<svg width="64" height="64" viewBox="0 0 64 64" fill="none" xmlns="http://www.w3.org/2000/svg">
<path d="M24 36.6667C17.76 36.6667 5.33334 39.7867 5.33334 46V50.6667H42.6667V46C42.6667 39.7867 30.24 36.6667 24 36.6667ZM11.5733 45.3334C13.8133 43.7867 19.2267 42 24 42C28.7733 42 34.1867 43.7867 36.4267 45.3334H11.5733ZM24 32C29.1467 32 33.3333 27.8134 33.3333 22.6667C33.3333 17.52 29.1467 13.3334 24 13.3334C18.8533 13.3334 14.6667 17.52 14.6667 22.6667C14.6667 27.8134 18.8533 32 24 32ZM24 18.6667C26.2133 18.6667 28 20.4534 28 22.6667C28 24.88 26.2133 26.6667 24 26.6667C21.7867 26.6667 20 24.88 20 22.6667C20 20.4534 21.7867 18.6667 24 18.6667ZM42.7733 36.8267C45.8667 39.0667 48 42.0534 48 46V50.6667H58.6667V46C58.6667 40.6134 49.3333 37.5467 42.7733 36.8267ZM40 32C45.1467 32 49.3333 27.8134 49.3333 22.6667C49.3333 17.52 45.1467 13.3334 40 13.3334C38.56 13.3334 37.2267 13.68 36 14.2667C37.68 16.64 38.6667 19.5467 38.6667 22.6667C38.6667 25.7867 37.68 28.6934 36 31.0667C37.2267 31.6534 38.56 32 40 32Z" fill="#1E75BA"/>
</svg>
