<svg width="44" height="44" viewBox="0 0 44 44" fill="none" xmlns="http://www.w3.org/2000/svg">
<rect width="44" height="44" rx="4" fill="#E6F6FF"/>
<path d="M13.0513 31.1223V14.4432C13.08 14.2149 13.1481 13.9933 13.2526 13.7883C13.4448 13.4067 13.7668 13.1062 14.1608 12.941C14.893 12.7254 15.7918 13.6437 15.7918 13.6437L21.9057 19.8757L21.8544 24.442L16.2512 18.6983L16.2689 31.1264L13.0513 31.1223Z" fill="#FF8800"/>
<path fill-rule="evenodd" clip-rule="evenodd" d="M29.6937 31.2567C29.0239 31.2048 28.3881 30.9409 27.8785 30.5032L21.8182 24.4371L21.8915 19.8371L27.4935 25.5608L27.5147 12.9897L30.5771 12.9986L30.5558 29.761C30.5558 29.761 30.5859 31.2585 29.6913 31.2585L29.6937 31.2567Z" fill="#1CAFFD"/>
<path d="M29.382 38.0001C29.0422 37.9959 28.7066 37.9249 28.3942 37.791C28.0819 37.6571 27.799 37.463 27.5616 37.2197C27.3243 36.9765 27.1372 36.6889 27.0111 36.3733C26.8849 36.0578 26.8222 35.7205 26.8264 35.3807C26.818 34.6944 27.0826 34.033 27.5618 33.5418C28.0411 33.0506 28.6958 32.7698 29.382 32.7612C30.0683 32.7698 30.723 33.0506 31.2022 33.5418C31.6815 34.033 31.946 34.6944 31.9377 35.3807C31.9419 35.7205 31.8791 36.0578 31.753 36.3733C31.6268 36.6889 31.4397 36.9765 31.2024 37.2197C30.9651 37.463 30.6822 37.6571 30.3698 37.791C30.0575 37.9249 29.7218 37.9959 29.382 38.0001ZM29.382 38.0001C29.0422 37.9959 28.7066 37.9249 28.3942 37.791C28.0819 37.6571 27.799 37.463 27.5616 37.2197C27.3243 36.9765 27.1372 36.6889 27.0111 36.3733C26.8849 36.0578 26.8222 35.7205 26.8264 35.3807C26.818 34.6944 27.0826 34.033 27.5618 33.5418C28.0411 33.0506 28.6958 32.7698 29.382 32.7612C30.0683 32.7698 30.723 33.0506 31.2022 33.5418C31.6815 34.033 31.946 34.6944 31.9377 35.3807C31.9419 35.7205 31.8791 36.0578 31.753 36.3733C31.6268 36.6889 31.4397 36.9765 31.2024 37.2197C30.9651 37.463 30.6822 37.6571 30.3698 37.791C30.0575 37.9249 29.7218 37.9959 29.382 38.0001ZM29.382 38.0001C29.0422 37.9959 28.7066 37.9249 28.3942 37.791C28.0819 37.6571 27.799 37.463 27.5616 37.2197C27.3243 36.9765 27.1372 36.6889 27.0111 36.3733C26.8849 36.0578 26.8222 35.7205 26.8264 35.3807C26.818 34.6944 27.0826 34.033 27.5618 33.5418C28.0411 33.0506 28.6958 32.7698 29.382 32.7612C30.0683 32.7698 30.723 33.0506 31.2022 33.5418C31.6815 34.033 31.946 34.6944 31.9377 35.3807C31.9419 35.7205 31.8791 36.0578 31.753 36.3733C31.6268 36.6889 31.4397 36.9765 31.2024 37.2197C30.9651 37.463 30.6822 37.6571 30.3698 37.791C30.0575 37.9249 29.7218 37.9959 29.382 38.0001Z" fill="#1CAFFD"/>
<path d="M14.6179 11.2389C14.2781 11.2347 13.9424 11.1637 13.6301 11.0298C13.3177 10.8959 13.0348 10.7018 12.7975 10.4585C12.5602 10.2153 12.3731 9.92765 12.2469 9.6121C12.1208 9.29655 12.058 8.95925 12.0622 8.61944C12.058 8.27963 12.1208 7.94232 12.2469 7.62677C12.3731 7.31122 12.5602 7.02361 12.7975 6.78037C13.0348 6.53713 13.3177 6.34301 13.6301 6.20912C13.9424 6.07522 14.2781 6.00416 14.6179 6C15.3041 6.00856 15.9588 6.28932 16.4381 6.78054C16.9173 7.27176 17.1819 7.93321 17.1735 8.61944C17.1819 9.30567 16.9173 9.96712 16.4381 10.4583C15.9588 10.9496 15.3041 11.2303 14.6179 11.2389ZM14.6179 11.2389C14.2781 11.2347 13.9424 11.1637 13.6301 11.0298C13.3177 10.8959 13.0348 10.7018 12.7975 10.4585C12.5602 10.2153 12.3731 9.92765 12.2469 9.6121C12.1208 9.29655 12.058 8.95925 12.0622 8.61944C12.058 8.27963 12.1208 7.94232 12.2469 7.62677C12.3731 7.31122 12.5602 7.02361 12.7975 6.78037C13.0348 6.53713 13.3177 6.34301 13.6301 6.20912C13.9424 6.07522 14.2781 6.00416 14.6179 6C15.3041 6.00856 15.9588 6.28932 16.4381 6.78054C16.9173 7.27176 17.1819 7.93321 17.1735 8.61944C17.1819 9.30567 16.9173 9.96712 16.4381 10.4583C15.9588 10.9496 15.3041 11.2303 14.6179 11.2389ZM14.6179 11.2389C14.2781 11.2347 13.9424 11.1637 13.6301 11.0298C13.3177 10.8959 13.0348 10.7018 12.7975 10.4585C12.5602 10.2153 12.3731 9.92765 12.2469 9.6121C12.1208 9.29655 12.058 8.95925 12.0622 8.61944C12.058 8.27963 12.1208 7.94232 12.2469 7.62677C12.3731 7.31122 12.5602 7.02361 12.7975 6.78037C13.0348 6.53713 13.3177 6.34301 13.6301 6.20912C13.9424 6.07522 14.2781 6.00416 14.6179 6C15.3041 6.00856 15.9588 6.28932 16.4381 6.78054C16.9173 7.27176 17.1819 7.93321 17.1735 8.61944C17.1819 9.30567 16.9173 9.96712 16.4381 10.4583C15.9588 10.9496 15.3041 11.2303 14.6179 11.2389Z" fill="#FF8800"/>
</svg>
