<svg width="59" height="59" viewBox="0 0 59 59" fill="none" xmlns="http://www.w3.org/2000/svg">
<path d="M48 21.3333L51.3333 14L58.6667 10.6667L51.3333 7.33333L48 0L44.6667 7.33333L37.3333 10.6667L44.6667 14L48 21.3333Z" fill="#1E75BA"/>
<path d="M48 37.3333L44.6667 44.6667L37.3333 48L44.6667 51.3333L48 58.6667L51.3333 51.3333L58.6667 48L51.3333 44.6667L48 37.3333Z" fill="#1E75BA"/>
<path d="M28 22.6667L21.3333 8L14.6667 22.6667L0 29.3333L14.6667 36L21.3333 50.6667L28 36L42.6667 29.3333L28 22.6667ZM23.9733 31.9733L21.3333 37.7867L18.6933 31.9733L12.88 29.3333L18.6933 26.6933L21.3333 20.88L23.9733 26.6933L29.7867 29.3333L23.9733 31.9733Z" fill="#1E75BA"/>
</svg>
