<svg width="44" height="44" viewBox="0 0 44 44" fill="none" xmlns="http://www.w3.org/2000/svg">
<rect width="44" height="44" rx="4" fill="#EC5B24"/>
<g clip-path="url(#clip0_12391_185)">
<mask id="mask0_12391_185" style="mask-type:luminance" maskUnits="userSpaceOnUse" x="3" y="12" width="38" height="20">
<path d="M40.8881 12.7681H3.07501V31.2315H40.8881V12.7681Z" fill="white"/>
</mask>
<g mask="url(#mask0_12391_185)">
<path d="M3.07501 14.9837C3.07501 13.76 4.06697 12.7681 5.29062 12.7681H38.6725C39.8961 12.7681 40.8881 13.76 40.8881 14.9837V29.0159C40.8881 30.2395 39.8961 31.2315 38.6725 31.2315H5.29062C4.06697 31.2315 3.07501 30.2395 3.07501 29.0159V14.9837Z" fill="#EC5B24"/>
<path fill-rule="evenodd" clip-rule="evenodd" d="M7.42355 16.9436C7.42355 16.6074 7.54251 16.3203 7.78059 16.0823C8.01868 15.8442 8.30574 15.7251 8.64195 15.7251C8.97822 15.7251 9.26509 15.8442 9.50309 16.0823C9.74117 16.3203 9.86031 16.6074 9.86031 16.9436C9.86031 17.2797 9.74117 17.5668 9.50309 17.8049C9.26509 18.0429 8.97794 18.1618 8.64195 18.1618C8.30597 18.1618 8.01868 18.0429 7.78059 17.8049C7.54251 17.5668 7.42355 17.2796 7.42355 16.9436ZM7.59155 19.0862H9.6922V25.8923H7.59155V19.0862ZM18.3022 16.9436C18.3022 16.6074 18.4211 16.3203 18.6591 16.0823C18.8973 15.8442 19.1844 15.7251 19.5205 15.7251C19.8565 15.7251 20.1436 15.8442 20.3818 16.0823C20.6198 16.3203 20.7388 16.6074 20.7388 16.9436C20.7388 17.2797 20.6197 17.5668 20.3818 17.8049C20.1436 18.0429 19.8565 18.1618 19.5205 18.1618C19.1845 18.1618 18.8973 18.0429 18.6591 17.8049C18.4211 17.5668 18.3022 17.2796 18.3022 16.9436ZM18.4702 19.0862H20.5709V25.8923H18.4702V19.0862ZM23.2374 22.4473C23.2374 22.6714 23.2792 22.8838 23.3633 23.0845C23.4474 23.2851 23.5664 23.4626 23.7205 23.6167C23.8746 23.7706 24.0519 23.8944 24.2527 23.9878C24.4534 24.0811 24.6752 24.1277 24.918 24.1277C25.1608 24.1277 25.3707 24.0811 25.5761 23.9878C25.7815 23.8944 25.9613 23.7707 26.1152 23.6167C26.2692 23.4627 26.3884 23.2852 26.4723 23.0845C26.5563 22.8838 26.5983 22.6714 26.5983 22.4473C26.5983 22.2231 26.5564 22.0108 26.4723 21.8101C26.3884 21.6094 26.2692 21.4319 26.1152 21.2779C25.9613 21.124 25.7815 21.0003 25.5761 20.9067C25.3707 20.8134 25.1513 20.7667 24.918 20.7667C24.6846 20.7667 24.4534 20.8134 24.2527 20.9067C24.0519 21.0003 23.8746 21.1239 23.7205 21.2779C23.5664 21.432 23.4474 21.6094 23.3633 21.8101C23.2792 22.0108 23.2374 22.2231 23.2374 22.4473ZM28.5309 25.3181C28.5309 26.6066 28.2064 27.5844 27.5576 28.2519C26.9088 28.9196 25.9214 29.2534 24.5958 29.2534C23.989 29.2534 23.3915 29.1857 22.8033 29.0503C22.215 28.9149 21.6736 28.6512 21.1786 28.259L22.3412 26.5225C22.6679 26.7933 23.0109 27.008 23.3704 27.1667C23.7298 27.3255 24.1242 27.4049 24.5537 27.4049C25.198 27.4049 25.6718 27.2484 25.9752 26.9356C26.2787 26.6228 26.4303 26.2237 26.4303 25.7384V25.0802H26.4022C26.1595 25.4069 25.8584 25.6381 25.4991 25.7734C25.1395 25.9088 24.8011 25.9764 24.4837 25.9764C23.9794 25.9764 23.522 25.8899 23.1113 25.7173C22.7005 25.5446 22.3481 25.3018 22.0539 24.9891C21.7599 24.6765 21.5335 24.3052 21.3748 23.8758C21.2161 23.4463 21.1367 22.975 21.1367 22.4613C21.1367 22.0133 21.209 21.5744 21.3537 21.1449C21.4985 20.7155 21.7039 20.3374 21.9699 20.0105C22.2361 19.6838 22.5605 19.42 22.9432 19.2194C23.326 19.0187 23.7601 18.9184 24.2456 18.9184C24.5444 18.9184 24.8176 18.951 25.065 19.0163C25.3124 19.0816 25.534 19.1657 25.7301 19.2683C25.9263 19.371 26.0942 19.4854 26.2343 19.6114C26.3745 19.7374 26.4863 19.8612 26.5704 19.9825H26.5983V19.0863H28.531L28.5309 25.3181ZM31.2254 22.4892C31.2254 23.0028 31.3724 23.4182 31.6665 23.7356C31.9607 24.0531 32.3738 24.2118 32.9058 24.2118C33.4379 24.2118 33.8513 24.0531 34.1451 23.7356C34.4393 23.4182 34.5863 23.0028 34.5863 22.4892C34.5863 21.9756 34.4393 21.5602 34.1451 21.2429C33.8512 20.9254 33.438 20.7666 32.9058 20.7666C32.3736 20.7666 31.9607 20.9254 31.6665 21.2429C31.3724 21.5602 31.2254 21.9756 31.2254 22.4892ZM29.1248 22.4892C29.1248 21.9477 29.2228 21.4576 29.4188 21.0188C29.6148 20.5799 29.8833 20.2041 30.2241 19.8913C30.5648 19.5785 30.9664 19.3381 31.4284 19.1702C31.8906 19.0021 32.383 18.9182 32.9058 18.9182C33.4286 18.9182 33.9211 19.0021 34.3834 19.1702C34.8456 19.3382 35.247 19.5786 35.5877 19.8913C35.9284 20.2041 36.197 20.5799 36.393 21.0188C36.589 21.4576 36.6871 21.9477 36.6871 22.4892C36.6871 23.0307 36.589 23.5209 36.393 23.9598C36.197 24.3985 35.9284 24.7743 35.5877 25.087C35.247 25.3999 34.8456 25.6402 34.3834 25.8083C33.9211 25.9764 33.4287 26.0603 32.9058 26.0603C32.383 26.0603 31.8906 25.9764 31.4284 25.8083C30.9663 25.6402 30.5648 25.3999 30.2241 25.087C29.8833 24.7742 29.6148 24.3984 29.4188 23.9598C29.2228 23.5209 29.1248 23.0308 29.1248 22.4892Z" fill="white"/>
<path fill-rule="evenodd" clip-rule="evenodd" d="M12.7647 22.2509L10.496 19.0859H12.9749L14.1792 20.9344L15.3416 19.0859H17.6803L15.4676 22.2509L18.0864 25.892H15.6076L14.1231 23.6233L12.5267 25.892H10.076L12.7647 22.2509Z" fill="white"/>
</g>
</g>
<defs>
<clipPath id="clip0_12391_185">
<rect width="37.85" height="18.4634" fill="white" transform="translate(3.07501 12.7681)"/>
</clipPath>
</defs>
</svg>
