<svg width="98" height="98" viewBox="0 0 98 98" fill="none" xmlns="http://www.w3.org/2000/svg">
<rect width="98" height="98" fill="url(#paint0_linear_2857_53175)"/>
<path fill-rule="evenodd" clip-rule="evenodd" d="M67.3992 73.2997C62.5025 76.368 56.8437 77.9967 51.068 78H51.0667C48.678 77.9984 46.2974 77.7226 43.9713 77.178C39.999 76.2616 36.2476 74.5651 32.9341 72.1867C29.6205 69.8081 26.8104 66.7948 24.6668 63.3212C20.3308 56.3194 18.944 47.8805 20.81 39.8557C22.6762 31.8305 27.6431 24.8742 34.6222 20.5133L34.6246 20.5118C35.3909 20.0361 36.3146 19.884 37.1928 20.0892C38.0709 20.2944 38.8318 20.84 39.3085 21.6058C39.5451 21.9861 39.7039 22.4093 39.7768 22.8501C39.8497 23.2914 39.8351 23.7428 39.7337 24.1786C39.6323 24.6142 39.4462 25.0257 39.1857 25.3895C38.9257 25.7527 38.5967 26.0614 38.2171 26.2975C32.7685 29.7025 28.8898 35.1343 27.4326 41.4018C25.9752 47.6697 27.0588 54.2608 30.4453 59.7289L30.4462 59.7303C32.1191 62.4418 34.312 64.7937 36.8981 66.6498C39.4842 68.506 42.4124 69.8295 45.5124 70.544L45.5178 70.5452C48.6137 71.2769 51.8236 71.3861 54.9618 70.8663C58.1 70.3466 61.1042 69.2083 63.8006 67.5172L63.8047 67.5147C64.5708 67.0393 65.4938 66.8875 66.3718 67.0927C67.2497 67.2979 68.0102 67.8432 68.487 68.6086L68.4883 68.6107C68.9631 69.3773 69.1155 70.3013 68.9115 71.1802C68.7075 72.0589 68.1639 72.8212 67.3992 73.2997ZM78.9999 63.5C78.9999 65.433 77.4329 67 75.4999 67C73.5669 67 71.9999 65.433 71.9999 63.5C71.9999 61.567 73.5669 60 75.4999 60C77.4329 60 78.9999 61.567 78.9999 63.5Z" fill="white"/>
<defs>
<linearGradient id="paint0_linear_2857_53175" x1="49" y1="0" x2="49" y2="98" gradientUnits="userSpaceOnUse">
<stop stop-color="#DB4F49"/>
<stop offset="1" stop-color="#CD3C34"/>
</linearGradient>
</defs>
</svg>
