<svg width="106" height="105" viewBox="0 0 106 105" fill="none" xmlns="http://www.w3.org/2000/svg">
<rect x="0.635986" width="104.636" height="104.636" rx="7.474" fill="white"/>
<mask id="mask0_3681_78662" style="mask-type:luminance" maskUnits="userSpaceOnUse" x="16" y="2" width="74" height="101">
<path d="M79.9274 24.6829C79.8296 24.0858 79.4998 23.5515 79.0098 23.1964C78.5199 22.8414 77.9095 22.6944 77.3116 22.7873C76.8417 22.8497 76.4072 23.0704 76.0795 23.4129L64.2514 35.222L55.0012 17.5557C54.8632 17.2904 54.6743 17.0549 54.4452 16.8627C54.2162 16.6706 53.9515 16.5254 53.6662 16.4356C53.381 16.3458 53.0809 16.3132 52.7831 16.3395C52.4852 16.3658 52.1955 16.4506 51.9304 16.5889C51.5287 16.8205 51.1953 17.154 50.9637 17.5557L45.9216 27.2229L33.2026 3.49083C33.06 3.2302 32.8673 3.00032 32.6355 2.81438C32.4038 2.62844 32.1377 2.49011 31.8523 2.40732C31.567 2.32454 31.2681 2.29894 30.9729 2.332C30.6776 2.36505 30.3918 2.4561 30.1318 2.59993C29.8232 2.76466 29.5557 2.99672 29.349 3.27891C29.1422 3.5611 29.0017 3.88619 28.9376 4.23009L16.6167 82.9325L49.5042 101.471C50.518 102.027 51.6556 102.318 52.8119 102.318C53.9681 102.318 55.1057 102.027 56.1196 101.471L89.2913 83.0083L79.9274 24.6829Z" fill="white"/>
</mask>
<g mask="url(#mask0_3681_78662)">
<path d="M16.6167 82.9327L28.9376 4.23024C29.031 3.64847 29.3501 3.12704 29.8257 2.77922C30.3013 2.4314 30.895 2.28528 31.4777 2.37262C31.8218 2.43574 32.148 2.57372 32.4329 2.7768C32.7179 2.97989 32.9548 3.24311 33.1268 3.54785L45.8458 27.2988L50.8879 17.6316C51.0259 17.3664 51.2148 17.1309 51.4439 16.9387C51.6729 16.7465 51.9376 16.6014 52.2228 16.5116C52.508 16.4218 52.8082 16.3891 53.106 16.4154C53.4039 16.4418 53.6936 16.5265 53.9587 16.6649C54.3603 16.8965 54.6938 17.23 54.9254 17.6316L89.2345 82.9327H16.6167Z" fill="#FFA000"/>
<path opacity="0.12" d="M58.6411 2.90288L-1.56091 -2.23401V106.797L16.6172 82.9322L58.6411 2.90288Z" fill="url(#paint0_linear_3681_78662)"/>
<path d="M59.1524 52.2823L45.8837 27.2424L16.6167 82.9331L59.1524 52.2823Z" fill="#F57C00"/>
<path opacity="0.2" d="M-1.56091 -2.23401H107.47V106.797H-1.56091V-2.23401Z" fill="url(#paint1_linear_3681_78662)"/>
<path d="M89.3103 82.9326L79.8327 24.6261C79.7348 24.029 79.405 23.4947 78.9151 23.1397C78.4251 22.7846 77.8147 22.6376 77.2168 22.7306C76.7483 22.7972 76.3151 23.0172 75.9847 23.3561L16.6167 82.9326L49.5042 101.471C50.518 102.027 51.6556 102.318 52.8119 102.318C53.9681 102.318 55.1057 102.027 56.1196 101.471L89.3103 82.9326Z" fill="#FFCA28"/>
<path d="M79.9274 24.6829C79.8296 24.0857 79.4998 23.5515 79.0098 23.1964C78.5198 22.8414 77.9095 22.6944 77.3116 22.7873C76.8417 22.8497 76.4071 23.0704 76.0795 23.4129L64.2514 35.222L55.0012 17.5557C54.8632 17.2904 54.6743 17.0549 54.4452 16.8627C54.2162 16.6706 53.9514 16.5254 53.6662 16.4356C53.381 16.3458 53.0809 16.3132 52.7831 16.3395C52.4852 16.3658 52.1955 16.4506 51.9304 16.5889C51.5287 16.8205 51.1953 17.154 50.9637 17.5557L45.9216 27.2229L33.2026 3.49083C33.06 3.2302 32.8673 3.00032 32.6355 2.81438C32.4038 2.62844 32.1377 2.49011 31.8523 2.40732C31.567 2.32454 31.2681 2.29894 30.9729 2.332C30.6776 2.36505 30.3918 2.4561 30.1318 2.59993C29.8232 2.76466 29.5557 2.99672 29.3489 3.27891C29.1422 3.5611 29.0017 3.88619 28.9376 4.23009L16.6167 82.9325L16.9579 83.1031L64.3461 35.7148L76.1742 23.9057C76.3829 23.689 76.6332 23.5166 76.91 23.3988C77.1869 23.2811 77.4846 23.2204 77.7854 23.2204C78.0863 23.2204 78.384 23.2811 78.6609 23.3988C78.9377 23.5166 79.188 23.689 79.3966 23.9057C79.7469 24.2353 79.9686 24.6787 80.0222 25.1567L89.3482 82.8946H89.4619L79.9274 24.6829ZM16.7304 82.8188L28.9376 4.79875C28.977 4.5062 29.0744 4.22445 29.224 3.97002C29.3737 3.71559 29.5726 3.4936 29.8092 3.31706C30.0458 3.14051 30.3152 3.01297 30.6017 2.94191C30.8882 2.87084 31.186 2.85769 31.4777 2.90322C31.8232 2.96251 32.1509 3.09897 32.4365 3.30244C32.722 3.50592 32.9579 3.77116 33.1268 4.07844L45.8458 27.8294L50.8879 18.1622C51.0239 17.8952 51.2119 17.6579 51.4406 17.4643C51.6694 17.2707 51.9345 17.1246 52.2204 17.0346C52.5063 16.9446 52.8073 16.9125 53.1057 16.9401C53.4042 16.9677 53.6941 17.0546 53.9586 17.1955C54.3603 17.4271 54.6938 17.7605 54.9254 18.1622L64.0049 35.4305L16.7304 82.8188Z" fill="white" fill-opacity="0.2"/>
<path opacity="0.2" d="M56.1204 100.826C55.1042 101.385 53.9631 101.678 52.8033 101.678C51.6434 101.678 50.5023 101.385 49.4861 100.826L16.6744 82.5149V83.0267L49.505 101.47C50.5189 102.026 51.6565 102.317 52.8127 102.317C53.969 102.317 55.1066 102.026 56.1204 101.47L89.2922 83.0078V82.496L56.1204 100.826Z" fill="#A52714"/>
<path d="M79.9274 24.6829C79.8296 24.0858 79.4998 23.5515 79.0098 23.1964C78.5199 22.8414 77.9095 22.6944 77.3116 22.7873C76.8417 22.8497 76.4072 23.0704 76.0795 23.4129L64.2514 35.222L55.0012 17.5557C54.8632 17.2904 54.6743 17.0549 54.4452 16.8627C54.2162 16.6706 53.9515 16.5254 53.6662 16.4356C53.381 16.3458 53.0809 16.3132 52.7831 16.3395C52.4852 16.3658 52.1955 16.4506 51.9304 16.5889C51.5287 16.8205 51.1953 17.154 50.9637 17.5557L45.9216 27.2229L33.2026 3.49083C33.06 3.2302 32.8673 3.00032 32.6355 2.81438C32.4038 2.62844 32.1377 2.49011 31.8523 2.40732C31.567 2.32454 31.2681 2.29894 30.9729 2.332C30.6776 2.36505 30.3918 2.4561 30.1318 2.59993C29.8232 2.76466 29.5557 2.99672 29.349 3.27891C29.1422 3.5611 29.0017 3.88619 28.9376 4.23009L16.6167 82.9325L49.5042 101.471C50.518 102.027 51.6556 102.318 52.8119 102.318C53.9681 102.318 55.1057 102.027 56.1196 101.471L89.2913 83.0083L79.9274 24.6829Z" fill="url(#paint2_linear_3681_78662)"/>
</g>
<defs>
<linearGradient id="paint0_linear_3681_78662" x1="30.7768" y1="55.9967" x2="26.2465" y2="53.6273" gradientUnits="userSpaceOnUse">
<stop stop-color="#A52714"/>
<stop offset="0.4" stop-color="#A52714" stop-opacity="0.5"/>
<stop offset="0.8" stop-color="#A52714" stop-opacity="0"/>
</linearGradient>
<linearGradient id="paint1_linear_3681_78662" x1="50.0733" y1="49.3813" x2="48.0451" y2="47.3531" gradientUnits="userSpaceOnUse">
<stop stop-color="#A52714" stop-opacity="0.8"/>
<stop offset="0.5" stop-color="#A52714" stop-opacity="0.21"/>
<stop offset="1" stop-color="#A52714" stop-opacity="0"/>
</linearGradient>
<linearGradient id="paint2_linear_3681_78662" x1="14.6798" y1="19.8984" x2="90.5452" y2="95.8143" gradientUnits="userSpaceOnUse">
<stop stop-color="white" stop-opacity="0.1"/>
<stop offset="1" stop-color="white" stop-opacity="0"/>
</linearGradient>
</defs>
</svg>
