<svg width="106" height="105" viewBox="0 0 106 105" fill="none" xmlns="http://www.w3.org/2000/svg">
<rect x="0.907959" width="104.636" height="104.636" rx="7.474" fill="white"/>
<g clip-path="url(#clip0_3683_78587)">
<path fill-rule="evenodd" clip-rule="evenodd" d="M68.172 67.5402C63.0596 67.5402 58.9153 63.4057 58.9153 58.3062C58.9153 53.2059 63.0596 49.0714 68.172 49.0714C73.2844 49.0714 77.4286 53.2059 77.4286 58.3062C77.4286 63.4057 73.2844 67.5402 68.172 67.5402ZM70.9431 40.5277V32.3127C73.0925 31.2999 74.598 29.1307 74.598 26.6133V26.4237C74.598 22.9494 71.7487 20.1068 68.2661 20.1068H68.0769C64.5944 20.1068 61.7451 22.9494 61.7451 26.4237V26.6133C61.7451 29.1307 63.2506 31.3008 65.4 32.3136V40.5277C62.1998 41.0212 59.2759 42.3379 56.8645 44.2758L34.2558 26.7303C34.405 26.1588 34.5098 25.5704 34.5107 24.9519C34.5143 21.0177 31.3221 17.8233 27.3768 17.818C23.4333 17.8136 20.2305 20.9991 20.2261 24.9342C20.2216 28.8693 23.4138 32.0637 27.3591 32.0681C28.6443 32.0699 29.8344 31.7057 30.8772 31.1138L53.1164 48.374C51.2254 51.2219 50.117 54.6334 50.117 58.3062C50.117 62.151 51.3347 65.7077 53.3917 68.6327L46.6291 75.3803C46.0944 75.2199 45.5402 75.1083 44.9522 75.1083C41.7112 75.1083 39.0831 77.7293 39.0831 80.9627C39.0831 84.1969 41.7112 86.818 44.9522 86.818C48.1941 86.818 50.8213 84.1969 50.8213 80.9627C50.8213 80.3779 50.7094 79.8241 50.5486 79.2906L57.2384 72.6166C60.2751 74.9284 64.057 76.3178 68.172 76.3178C78.1436 76.3178 86.2261 68.2535 86.2261 58.3062C86.2261 49.3009 79.5949 41.8612 70.9431 40.5277Z" fill="#F95C35"/>
</g>
<defs>
<clipPath id="clip0_3683_78587">
<rect width="66" height="69" fill="white" transform="translate(20.2261 17.818)"/>
</clipPath>
</defs>
</svg>
