<?xml version="1.0" encoding="utf-8"?>
<!-- Generator: Adobe Illustrator 25.0.1, SVG Export Plug-In . SVG Version: 6.00 Build 0)  -->
<svg version="1.0" id="Layer_1" xmlns="http://www.w3.org/2000/svg" xmlns:xlink="http://www.w3.org/1999/xlink" x="0px" y="0px"
	 viewBox="0 0 998 627" style="enable-background:new 0 0 998 627;" xml:space="preserve">
<style type="text/css">
	.st0{fill:#ED1C24;}
	.st1{fill:none;}
</style>
<path d="M139,424.8h4.6c3.9,0,6.5,1.9,6.5,5.9s-2,5.9-6.5,5.9H139V424.8z M139,460.6v-16.9h3.3c10.4,0,15-4.6,15-12.4
	s-4.6-12.4-15-12.4h-11.8v41.7H139z"/>
<path d="M181.9,430c0-4.6,2-5.9,5.2-5.9s5.2,1.3,5.2,5.9V447c0,4.5-2,5.9-5.2,5.9s-5.2-1.3-5.2-5.9V430z M174.1,446.3
	c0,10.4,5.9,14.3,13.7,14.3c8.5,0,13.7-3.9,13.7-14.3v-15c0-10.4-5.9-13.7-13.7-13.7c-7.8,0-13.7,3.9-13.7,13.7V446.3z"/>
<polygon points="225.6,460.6 233.4,460.6 240.5,432 240.5,432 246.4,460.6 254.2,460.6 264,419 256.2,419 250.3,445.7 250.3,445.7 
	244.4,419 236,419 230.1,445.7 230.1,445.7 224.2,419 216.4,419 "/>
<polygon points="303,460.6 303,453.5 288.1,453.5 288.1,442.4 299.1,442.4 299.1,435.2 288.1,435.2 288.1,425.5 303,425.5 303,419 
	280.2,419 280.2,460.6 "/>
<path d="M329.1,424.8h4.6c3.9,0,5.9,2,5.9,5.9s-2,5.9-5.9,5.9h-4.6V424.8z M349.3,460.6l-7.8-18.9c4.6-2,6.5-5.2,6.5-10.4
	c0-7.8-4.6-12.4-15-12.4h-12.3v41.7h8.5v-16.9h3.9l7.2,16.9H349.3z"/>
<path d="M400.7,430c0-4.6,2-5.9,5.2-5.9s5.9,1.3,5.9,5.9V447c0,4.5-2,5.9-5.9,5.9c-3.3,0-5.2-1.3-5.2-5.9V430z M392.2,446.3
	c0,10.4,5.9,14.3,13.7,14.3c8.5,0,13.7-3.9,13.7-14.3v-15c0-10.4-5.9-13.7-13.7-13.7s-13.7,3.9-13.7,13.7V446.3z"/>
<polygon points="445.6,460.6 445.6,442.4 456,442.4 456,435.2 445.6,435.2 445.6,425.5 459.3,425.5 459.3,419 437.1,419 
	437.1,460.6 "/>
<path d="M528.3,427.4c-1.3-5.9-5.9-10.4-13.7-10.4c-8.5,0-13,4.6-13,11.7c0,11.7,18.2,11.7,18.2,19.5c0,3.2-2,5.2-5.2,5.2
	c-2.6,0-5.9-2-6.5-6.5l-7.2,1.3c2,8.5,7.2,11.7,14.3,11.7c8.5,0,13.7-4.6,13.7-11.7c0-13-18.2-13.7-18.2-19.5c0-3.3,1.3-4.6,4.6-4.6
	c2.6,0,4.6,2,5.9,5.9L528.3,427.4L528.3,427.4z"/>
<polygon points="553.7,460.6 553.7,419 545.2,419 545.2,460.6 "/>
<polygon points="577.8,460.6 577.8,427.4 577.8,427.4 586.9,460.6 593.4,460.6 601.9,427.4 601.9,427.4 601.9,460.6 609,460.6 
	609,419 598,419 590.2,445.7 590.2,445.7 582.3,419 570.6,419 570.6,460.6 "/>
<path d="M633.8,424.8h4.6c3.9,0,6.5,1.9,6.5,5.9s-2,5.9-6.5,5.9h-4.6V424.8z M633.8,460.6v-16.9h3.9c10.4,0,15-4.6,15-12.4
	s-5.2-12.4-15-12.4H626v41.7H633.8z"/>
<polygon points="687.8,460.6 687.8,453.5 674.8,453.5 674.8,419 666.3,419 666.3,460.6 "/>
<polygon points="711.2,460.6 711.2,419 702.8,419 702.8,460.6 "/>
<path d="M734.7,430c0-4.6,2-5.9,5.2-5.9s5.9,1.3,5.9,5.9v1.3h8.5c0-10.4-5.9-13.7-13.7-13.7s-13.7,3.9-13.7,13.7v15
	c0,10.4,5.9,14.3,13.7,14.3c8.5,0,13.7-3.9,13.7-14.3v-2h-8.5v2.6c0,4.5-2,5.9-5.9,5.9c-3.2,0-5.2-1.3-5.2-5.9V430z"/>
<polygon points="780.3,460.6 780.3,419 772.5,419 772.5,460.6 "/>
<polygon points="795.9,419 795.9,425.5 805.7,425.5 805.7,460.6 813.5,460.6 813.5,425.5 823.2,425.5 823.2,419 "/>
<polygon points="844.1,419 835.6,419 847.3,443.7 847.3,460.6 855.8,460.6 855.8,443.7 867.5,419 859,419 851.9,435.2 "/>
<path class="st0" d="M429.3,282.9c5.9-3.9,18.2-18.9,18.9-20.2s3.2-3.9,0.6-6.5s-5.2-1.3-8.5,0.6c-3.2,1.3-16.9,11.7-22.1,16.3
	c-5.2,3.9-18.2,15.6-18.2,15.6s-7.2,5.9-4.6,9.1s5.2,2,8.5,0.7C407.8,297.2,423.5,286.8,429.3,282.9L429.3,282.9z M718.4,356.5
	c2,0.6,6.5,2,6.5,6.5c0,0-4.6,9.1-5.9,9.8c-2,0.6-5.2,0.6-11.7-2s-38.4-10.4-46.9-12.4s-27.3-5.2-27.3-5.2s-2.6-1.3-6.5,4.6
	c-3.9,6.5-16.3,24.1-16.3,24.1c-0.4,1.5-1.7,2.6-3.2,2.6c-2.6,0-12.4-0.7-16.3-2.6s-5.2-2-2.6-5.9s11.1-21.5,15-24.7
	c3.2-3.2-2.6-2.6-4.6-3.2c-2-0.6-39.7-2.6-50.8-2c-11.1,0-50.1,0-64.5,1.3c-14.3,0.6-65.1,5.9-78.8,7.8
	c-13.7,2.6-68.4,9.8-75.5,11.7s-22.1,3.9-22.1,3.9c-5,1.1-10.2,0.7-15-1.3c-7.2-3.2-18.9-7.8-9.1-11.1c9.8-3.3,58.6-13,73.6-15
	c15-2.6,62.5-9.1,82-9.8s73.6-3.9,93.8-3.9s47.5,1.3,59.9,2.6c11.7,0.6,19.5,1.3,22.1,2s2.6-1.3,5.2-3.9s9.8-12.4,9.8-12.4
	s2.6-3.9-2.6-0.6c-4.6,3.2-12.4,3.2-16.3,0c-3.9-3.9-5.2-7.2-7.2-5.9c-4.2,2.3-8.5,4.3-13,5.9c-3.9,1.3-20.8,5.2-30.6-1.3
	c-9.8-7.2-10.4-9.8-11.7-13c-1.3-4.5-2-4.5-5.2-2.6c-3.3,1.9-14.3,7.8-18.9,9.8c-4.1,2.4-8.9,3.3-13.7,2.6
	c-6.5-0.6-13.7-2.6-16.9-7.8c-2.6-5.2-3.2-9.1-6.5-6.5s-21.5,13-31.2,15.6c-9.8,3.3-12.4,3.9-17.6,3.3c-5.9-0.6-11.7-3.3-13.7-6.5
	s-2.6-3.9-5.2-2.6c-2.6,2-9.8,7.2-15,7.2c-5.2-0.6-18.9-3.9-26-17.6s-2-19.5,4.6-26.7c6.5-6.5,18.2-16.9,18.2-16.9s15-11.1,19.5-13
	c5.2-2.6,13-7.2,18.2-7.2c7.1-0.9,14.2,1.2,19.6,5.9c7.2,5.9,11.7,11.7,12.4,14.3s3.9,10.4-1.3,16.3s-20.2,19.5-20.2,19.5
	s-5.9,3.3-3.3,7.2s12.4-2.6,15.6-4.5c3.2-2.6,20.2-16.9,25.4-21.5c5.2-5.2,37.8-37.1,41-40.4c2.6-3.3,30-30,33.8-32.6
	c3.9-2.6,5.2-4.6,13-3.2c4.1,0.7,8,2,11.7,3.9c0,0,7.8,3.3,1.3,7.8c-5.9,4.5-26.7,22.1-31.9,27.3c-5.2,5.2-20.2,20.2-24.7,25.4
	c-4.6,6.5-17.6,22.8-19.5,25.4c-2,3.3-3.3,6.5,0,9.1c3.3,2,9.1,0,15-5.2s24.1-20.2,30-26.7c6.5-6.5,40.4-38.4,43.6-41.7
	c3.3-2.6,18.9-15,18.9-15s2-2.6,6.5-2.6s9.1,0.6,11.7,2l7.8,3.9c0,0,3.2,1.3-2,5.2s-33.8,26-41,34.5c-7.8,8.5-22.8,25.4-28.7,32.6
	c-5.9,7.8-9.8,11.1-5.2,16.3s9.8,3.9,12.4,3.3c6.5-3.7,12.4-8.3,17.6-13.7c6.5-6.5,26-28,28.7-30c2-2.6,9.8-9.8,9.8-9.8
	s1.3-3.2,5.9-3.2s6.5,0.6,11.1,1.3c3.9,0.6,13,2.6,8.5,7.8c-5.2,5.2-17.6,18.2-20.2,20.8c-2.6,3.2-13,15-15,18.2s-4.6,7.2-2,9.1
	s9.8-0.6,16.3-4.6c9-4.8,17.3-10.7,24.7-17.6c8.5-7.8,22.1-20.2,22.1-20.2s2.6-5.2,12.4-3.2c9.8,2.6,12.4,3.2,12.4,3.2
	s7.8,2,2.6,6.5s-22.1,20.2-28.6,26c-6.5,6.5-26.7,26.7-30,30.6s-13,13-9.1,13.7s33.9,5.9,40.4,7.9
	C693,347.4,716.5,355.2,718.4,356.5z M381.8,194.4c-5.8-0.8-11.7-0.8-17.6,0c-9.8,1.3-38.4,3.9-43.6,6.5s-9.8-3.3-11.7-5.2
	c-2.6-2-7.8-7.8-7.8-7.8s-2.6-3.3,2-4.6c5.2-1.3,34.5-5.9,43.6-7.2c9.1-0.6,53.4-3.3,65.8-3.3c11.7,0,52.7,2.6,63.8,5.2
	c0,0,2-0.6,4.6,4.6c1.2,3.3,1.9,6.9,2,10.4c0,0,2,3.9-5.2,3.3c-8.5-0.6-20.8-1.3-29.3-2s-28.6-2-31.9-2c-2.6,0-3.9,0-5.2,2.6
	c-2,2.6-9.8,13-11.7,15.6s-10.4,13.7-17.6,23.5s-16.3,22.1-24.7,34.5c-7.8,13-15,24.7-18.2,30c-2,3.1-3.7,6.4-5.2,9.8
	c-0.6,1.3-1.3,3.3-5.2,3.3c-3.9,0-20.8-0.6-20.8-0.6s-7.2,0.6-2.6-7.2c4.6-8.5,14.3-24.7,18.2-30.6c3.9-6.5,25.4-35.8,29.9-41
	C357.1,227.6,381.8,194.4,381.8,194.4L381.8,194.4z"/>
<path d="M426.7,276.4c5.9-3.9,18.3-18.9,18.9-20.2s3.3-3.9,0.6-6.5s-5.2-1.3-8.5,0.6c-3.2,1.3-16.9,12.4-22.1,16.3
	s-18.2,15.6-18.2,15.6s-7.2,5.9-4.5,9.1s5.2,2,8.5,0.7C405.2,290.7,420.9,280.3,426.7,276.4L426.7,276.4z M409.8,166.4h-3.2
	c-15.6,0-53.4,2.6-61.9,3.3c-9.1,0.6-38.4,5.9-43.6,7.2s-2.6,4.5-2.6,4.5s5.2,5.9,7.8,7.8c2.6,2,6.5,7.8,11.7,5.2
	c5.9-2.6,34.5-5.2,43.6-6.5c5.8-0.8,11.7-0.8,17.6,0c0,0-24.7,32.5-28.6,38.4c-3.9,5.2-25.4,34.5-30,41
	c-3.9,6.5-14.3,22.8-18.9,30.6c-3.9,7.8,3.2,7.2,3.2,7.2s16.9,0.6,20.8,0.6c3.2,0,3.9-2.6,4.6-3.9c1.5-3.4,3.2-6.6,5.2-9.8
	c3.3-5.2,10.4-16.9,18.2-30s17.6-25.4,24.7-35.2s15.6-20.8,17.6-23.4s9.8-13,11.7-15.6s2.6-2.6,5.2-2.6c3.3,0,23.4,1.3,31.9,2
	c9.1,0.7,21.5,1.3,29.3,2s5.2-3.3,5.2-3.3c0.3-3.4-0.4-6.8-2-9.8c-2.6-5.2-4.6-4.6-4.6-4.6C462.5,168.4,421.5,166.4,409.8,166.4
	L409.8,166.4z M715.8,350c2,1.3,6.5,2.6,5.9,6.5c0,0-3.9,9.1-5.9,9.8s-5.2,0.6-11.7-2s-38.4-10.4-46.9-12.4
	c-7.8-1.3-26.7-4.5-26.7-4.5s-2.6-1.3-6.5,5.2c-3.9,5.9-16.3,24.1-16.3,24.1c-0.4,1.5-1.7,2.6-3.3,2.6c-2.6,0-12.4-0.6-16.3-2.6
	s-5.2-2-2.6-5.9s11.1-21.5,15-24.7s-2-2.6-3.9-3.2c-2,0-39.7-2.6-50.8-2c-11.1,0-50.1,0-64.5,1.3s-65.8,5.9-78.8,7.8
	c-13.7,2-68.4,9.8-75.5,11.7c-7.2,1.3-22.1,3.9-22.1,3.9c-5,1.1-10.2,0.7-15-1.3c-7.2-3.2-18.9-7.8-9.1-11.1s58.6-13,73.6-15
	s62.5-9.1,82-9.8c19.5-1.3,73.6-3.9,93.7-3.9c20.2,0,47.5,1.3,59.9,2.6c11.7,0.6,19.5,1.3,22.1,2s2.6-1.3,5.2-3.9s9.8-12.4,9.8-12.4
	s2.6-3.3-2.6-0.6c-5.2,3.2-12.4,3.2-16.3-0.6c-3.9-3.9-5.2-6.5-7.2-5.9s-9.1,4.5-13,5.9s-20.2,5.2-30-2c-9.8-6.5-10.4-9.8-11.7-12.4
	c-1.3-3.2-2-3.2-5.2-1.3c-3.3,2.6-14.3,7.8-18.9,9.8c-4.2,2.3-8.9,3.4-13.7,3.2c-6.5-0.6-13.7-2.6-16.9-7.8s-3.3-9.1-6.5-6.5
	s-21.5,13-31.2,15.6c-11.1,1.3-13.7,2.6-18.9,1.3c-5.9-1.3-11.7-3.3-13.7-6.5s-2.6-3.9-5.2-2s-9.8,7.2-15,6.5s-18.9-3.9-26.7-17.6
	c-7.2-13.7-2-19.5,4.5-26c6.5-7.2,18.9-16.9,18.9-16.9s15-10.4,19.5-13c5.2-2.6,13-7.2,18.2-7.2s12.4,0,19.5,5.9
	s11.1,11.7,12.4,14.3c0.6,2,3.9,10.4-1.3,16.3s-19.5,19.5-19.5,19.5s-5.9,3.3-3.3,7.8c2.6,3.9,12.4-2.6,15-5.2
	c3.3-2,20.2-16.9,25.4-21.5c5.2-5.2,37.8-37.1,41-39.7c2.6-3.3,29.9-30,34.5-32.6c3.9-2.6,5.2-4.5,13-3.2c4.1,0.7,8,2,11.7,3.9
	c0,0,7.8,3.2,1.3,7.8c-5.9,5.2-26.7,22.1-31.9,27.3c-5.2,5.2-20.1,20.2-24.6,25.4c-5.2,5.2-18.2,21.5-20.2,24.7s-3.3,6.5,0,9.1
	s9.1,0,15-5.2s24.1-20.2,30-26.7s40.4-38.4,43.6-41s18.9-15.6,18.9-15.6s2-2.6,6.5-2.6s9.1,0.6,11.7,2l7.8,3.9c0,0,3.3,1.3-2,5.2
	s-33.9,26-41.7,34.5c-7.2,8.5-22.8,25.4-28.6,32.5c-5.9,7.8-9.8,11.7-5.2,16.3c4.5,5.2,9.8,3.9,12.4,3.2s11.7-7.2,17.6-13.7
	c6.5-6.5,26-27.4,28.6-30c2-2.6,9.8-9.8,9.8-9.8s1.3-3.2,5.9-3.2s6.5,0.6,11.1,1.3c3.9,1.3,13,2.6,8.5,7.8
	c-5.2,5.2-17.6,17.6-20.2,20.8s-13,15-15,18.2s-4.5,7.2-2,9.1s9.8-0.6,16.3-4.6c9.2-4.7,17.7-10.6,25.4-17.6
	c8.5-7.8,22.1-20.2,22.1-20.2s2-5.2,12.4-3.2c9.8,2,12.4,3.2,12.4,3.2s7.8,2,2.6,6.5s-22.1,19.5-28.7,26c-6.5,5.9-26.7,26.7-30,30.6
	s-13,13-9.1,13.7s33.8,6.5,40.4,8.5C691,340.8,713.8,349.3,715.8,350L715.8,350z"/>
<rect x="99" y="144" class="st1" width="800" height="339"/>
</svg>
