<svg width="63" height="61" viewBox="0 0 63 61" fill="none" xmlns="http://www.w3.org/2000/svg">
<path d="M62.2424 0.577395L61.8706 60.632L0.602192 60.5372L0.305786 0.261719L62.2407 0.580308" fill="url(#paint0_linear_2857_53148)"/>
<path d="M48.0105 48.8645C47.6284 48.227 47.0598 47.7106 46.3297 47.3178C45.5786 46.9145 44.6391 46.6288 43.5075 46.4496C42.4413 46.2807 41.2038 46.2065 39.7915 46.2243L23.5849 46.422C23.9443 45.2325 24.8013 43.7299 26.1745 41.951C27.7093 39.9574 29.8773 37.6144 32.6763 34.9303L32.6777 34.9289C33.6406 33.9928 34.3765 33.2777 34.885 32.784C35.2455 32.4584 35.7522 31.9759 36.4111 31.3363C40.7706 27.1727 43.6155 23.6709 44.9513 20.7805C45.7132 19.1423 46.2853 17.4606 46.6691 15.7364C46.774 15.2644 46.8625 14.7934 46.9369 14.3237C47.1345 13.0761 47.2269 11.8312 47.2118 10.5895C47.1983 9.45788 47.0723 8.49842 46.8251 7.70538C46.5777 6.91388 46.2046 6.28252 45.6904 5.8402C45.1098 5.3473 44.232 5.03812 43.0496 4.84887C42.0731 4.69422 40.8833 4.62712 39.4756 4.64369L20.7461 4.87565C18.4779 4.90426 16.7443 5.29593 15.5488 6.11073C14.5992 6.75547 14.013 7.69253 13.8346 8.84648C13.7869 9.14747 13.765 9.46325 13.7697 9.79434C13.7808 11.3844 14.4082 12.6485 15.6185 13.4327C16.3319 13.901 17.2342 14.2137 18.3179 14.3853C19.056 14.5022 19.8791 14.5537 20.7889 14.5431L36.4592 14.3866C36.4424 14.6603 36.4175 14.9324 36.3753 15.1994C36.2242 16.153 35.9115 17.0581 35.4355 17.9226C34.7824 19.114 33.3644 20.7406 31.1968 22.7506C30.5865 23.2964 29.6488 24.1488 28.3842 25.3048C23.4786 29.639 19.8573 33.423 17.5134 36.6765L17.5117 36.6794L17.5111 36.6809C15.8594 38.9142 14.6007 41.1724 13.7448 43.456C13.246 44.788 12.8946 46.0871 12.6938 47.3553C12.55 48.2633 12.4835 49.1538 12.4946 50.0276C12.5102 51.2813 12.6521 52.3361 12.9316 53.1981C13.2116 54.0566 13.6352 54.7325 14.2186 55.185C14.7626 55.6019 15.6166 55.8684 16.8196 56.0625C18.3474 56.3045 20.4397 56.405 23.1133 56.3732L40.1072 56.1646C43.1173 56.1246 45.2656 55.7487 46.6039 54.9636C47.6733 54.3363 48.3324 53.3469 48.5265 52.0892C48.5769 51.7711 48.5995 51.438 48.5944 51.087C48.5847 50.2491 48.3927 49.5013 48.0105 48.8645ZM36.4116 31.3352L36.4129 31.3346L36.4111 31.3363L36.4099 31.3361L36.4116 31.3352Z" fill="white"/>
<defs>
<linearGradient id="paint0_linear_2857_53148" x1="31.2177" y1="1.37037" x2="31.6375" y2="60.7017" gradientUnits="userSpaceOnUse">
<stop stop-color="#D92231"/>
<stop offset="1" stop-color="#BA2234"/>
</linearGradient>
</defs>
</svg>
