<svg width="21" height="21" viewBox="0 0 21 21" fill="none" xmlns="http://www.w3.org/2000/svg">
<path d="M5.00595 20.0291H0.854948V6.66012H5.00595V20.0291ZM2.92395 4.83711C2.44645 4.83869 1.9792 4.69873 1.5812 4.43492C1.18319 4.17111 0.872288 3.79528 0.68774 3.35489C0.503192 2.9145 0.453281 2.4293 0.544308 1.96056C0.635335 1.49182 0.863219 1.06056 1.19918 0.72125C1.53514 0.381939 1.96412 0.14979 2.43193 0.0541188C2.89974 -0.0415524 3.38542 0.00354509 3.82762 0.183716C4.26982 0.363887 4.64871 0.671052 4.91646 1.06642C5.1842 1.46179 5.32878 1.92763 5.33195 2.40511C5.33408 3.04662 5.08183 3.66281 4.63047 4.11867C4.17911 4.57453 3.56544 4.83288 2.92395 4.83711ZM20.5429 20.0291H16.4009V13.5211C16.4009 11.9701 16.3699 9.98111 14.2429 9.98111C12.0849 9.98111 11.7539 11.6661 11.7539 13.4091V20.0281H7.60695V6.66012H11.5889V8.48411H11.6469C12.045 7.80266 12.6204 7.24197 13.312 6.86176C14.0036 6.48155 14.7853 6.29608 15.5739 6.32512C19.7739 6.32512 20.5479 9.09212 20.5479 12.6851V20.0291H20.5429Z" fill="#D5D9DC"/>
</svg>
