<svg width="23" height="22" viewBox="0 0 23 22" fill="none" xmlns="http://www.w3.org/2000/svg">
<path fillRule="evenodd" clip-rule="evenodd" d="M19.4841 2.78728C19.3519 2.42905 19.1259 2.11295 18.8296 1.8721C18.5333 1.63124 18.1777 1.4745 17.8001 1.41828L8.58605 0.0412844C8.21092 -0.0149451 7.82753 0.0371596 7.481 0.191465C7.13448 0.345771 6.83925 0.595856 6.63005 0.912285L1.16805 9.15828C0.994771 9.42125 0.901581 9.72888 0.899806 10.0438C0.898031 10.3587 0.987746 10.6674 1.15805 10.9323L5.59405 17.7903C5.9522 18.3447 6.5006 18.749 7.13605 18.9273L16.0661 21.4463C16.3835 21.536 16.7223 21.5129 17.0247 21.3811C17.3271 21.2493 17.5746 21.0169 17.7251 20.7233L22.1061 12.1763C22.2611 11.8735 22.3516 11.5418 22.3719 11.2022C22.3922 10.8626 22.3419 10.5224 22.2241 10.2033L19.4841 2.78728Z" fill="#DC281E"/>
<path fillRule="evenodd" clip-rule="evenodd" d="M15.0851 4.60714C15.6121 4.69714 15.7311 5.27814 15.3421 5.90714C15.1915 6.15497 14.9908 6.36857 14.7528 6.53424C14.5148 6.69991 14.2448 6.81399 13.9601 6.86914L11.4931 9.24914C11.4311 10.0311 10.3991 10.9961 9.62409 10.8281C8.74609 10.6381 9.32409 9.49214 9.77109 9.07414L9.60109 7.71614C9.50344 7.73603 9.40264 7.73453 9.30562 7.71174C9.20861 7.68896 9.11768 7.64542 9.03909 7.58414L7.08509 8.67914C6.85309 9.28614 6.03209 10.0441 5.35709 9.89814C4.87809 9.79814 4.80009 9.22414 5.18109 8.62114C5.3469 8.36156 5.56443 8.13893 5.82009 7.96714L6.22009 6.34914L6.16209 6.34014C5.68509 6.24814 5.60509 5.69314 5.98109 5.10114C6.17399 4.80044 6.43592 4.55016 6.74509 4.37114L7.18509 2.88614C6.82809 2.73614 6.77709 2.27514 7.12909 1.72014C7.28714 1.45016 7.51038 1.22412 7.77836 1.0627C8.04635 0.901275 8.35053 0.809629 8.66309 0.796143C9.14209 0.870143 9.23509 1.40914 8.86309 1.99614C8.68342 2.27516 8.44441 2.5111 8.16309 2.68714L7.70809 4.24614C8.02909 4.42414 8.05009 4.90814 7.72409 5.42314C7.59181 5.6305 7.42626 5.81464 7.23409 5.96814L6.79609 7.72314C6.83315 7.73373 6.86901 7.74814 6.90309 7.76614L9.01609 6.58014C9.04076 6.53214 9.06842 6.48348 9.09909 6.43414C9.2584 6.15019 9.49077 5.91403 9.77211 5.75015C10.0534 5.58628 10.3735 5.50065 10.6991 5.50214C11.1991 5.59414 11.3041 6.16514 10.9191 6.77814C10.7908 6.98071 10.6307 7.16134 10.4451 7.31314C10.5004 7.73914 10.5554 8.16548 10.6101 8.59214C10.7168 8.56445 10.827 8.55332 10.9371 8.55914L13.2191 6.35914C13.2045 6.07661 13.2844 5.79726 13.4461 5.56514C13.61 5.27467 13.8481 5.03292 14.1361 4.86461C14.4241 4.6963 14.7515 4.60745 15.0851 4.60714ZM19.2651 5.93914C19.5041 5.43914 19.8581 5.53914 20.0541 6.15814C20.2439 6.80483 20.2211 7.49538 19.9891 8.12814C19.7601 8.62314 19.4121 8.55514 19.2091 7.96414C19.0025 7.30163 19.0222 6.58923 19.2651 5.93914ZM19.9841 11.2391C20.2061 10.7481 20.5301 10.7891 20.7081 11.3151C20.8785 11.9027 20.854 12.5297 20.6381 13.1021C20.4251 13.5831 20.1061 13.5761 19.9221 13.0721C19.7374 12.4713 19.7596 11.8259 19.9851 11.2391H19.9841ZM18.1721 10.8391C18.4151 10.3181 18.7801 10.3671 18.9871 10.9301C19.1872 11.5508 19.1692 12.2211 18.9361 12.8301C18.7041 13.3401 18.3451 13.3301 18.1311 12.7911C17.9131 12.1562 17.9276 11.4644 18.1721 10.8391ZM18.0111 15.5971C18.2471 15.0761 18.6031 15.0701 18.8111 15.5661C19.0061 16.1478 18.9891 16.7798 18.7631 17.3501C18.5381 17.8581 18.1881 17.8991 17.9781 17.4271C17.7689 16.8355 17.7835 16.1878 18.0191 15.6061L18.0111 15.5971ZM16.0761 14.1221C16.3361 13.5681 16.7421 13.5801 16.9761 14.1291C17.2068 14.7538 17.1976 15.4419 16.9501 16.0601C16.7021 16.6001 16.3051 16.6271 16.0591 16.1071C15.8121 15.4702 15.8196 14.7627 16.0801 14.1311L16.0761 14.1221ZM14.0541 11.9861C14.3421 11.3991 14.8021 11.4391 15.0821 12.0551C15.3532 12.7289 15.3532 13.4814 15.0821 14.1551C14.8091 14.7261 14.3581 14.7301 14.0701 14.1481C13.9231 13.807 13.8459 13.4398 13.8432 13.0683C13.8404 12.6968 13.9121 12.3285 14.0541 11.9851V11.9861ZM12.1541 15.5641C12.7932 15.7769 13.3359 16.2101 13.6851 16.7861C13.9551 17.2951 13.7131 17.5691 13.1591 17.4101C12.5421 17.1967 12.0164 16.779 11.6691 16.2261C11.3851 15.7151 11.5931 15.4131 12.1551 15.5631L12.1541 15.5641ZM12.5541 18.4981C13.134 18.7035 13.6295 19.0952 13.9631 19.6121C14.2101 20.0551 13.9851 20.2731 13.4731 20.1121C12.9124 19.9069 12.4316 19.5287 12.1001 19.0321C11.8391 18.5871 12.0331 18.3441 12.5541 18.5021V18.4981ZM9.30009 15.8261C9.8927 16.0373 10.3994 16.4375 10.7421 16.9651C11.0201 17.4371 10.8331 17.6921 10.3341 17.5421C9.76293 17.33 9.27309 16.9434 8.93409 16.4371C8.64109 15.9621 8.79709 15.6841 9.30209 15.8261H9.30009ZM8.32309 17.2041C8.87093 17.4105 9.34217 17.7802 9.67309 18.2631C9.94209 18.6931 9.78009 18.9151 9.32109 18.7631C8.79142 18.5594 8.33365 18.2039 8.00509 17.7411C7.72409 17.3081 7.85909 17.0631 8.32309 17.2051V17.2041ZM5.44409 14.3041C6.01336 14.5171 6.50253 14.9014 6.84409 15.4041C7.14409 15.8721 7.01409 16.1361 6.55709 16.0041C6.00505 15.7915 5.5293 15.4185 5.19109 14.9331C4.87609 14.4621 4.98109 14.1751 5.44209 14.3031L5.44409 14.3041ZM2.72209 11.2861C3.32087 11.5076 3.83338 11.9143 4.18509 12.4471C4.52109 12.9591 4.41609 13.2691 3.96109 13.1471C3.38352 12.9269 2.88679 12.5359 2.53709 12.0261C2.18709 11.5121 2.26109 11.1771 2.71909 11.2891L2.72209 11.2861Z" fill="white"/>
</svg>
