<svg width="600" height="450" viewBox="0 0 600 450" fill="none" xmlns="http://www.w3.org/2000/svg">
<rect x="205" y="25" width="190" height="400" rx="24" fill="#CCCCCC"/>
<rect x="210" y="30" width="180" height="390" rx="20" fill="white"/>
<rect x="330" y="343" width="36" height="36" rx="18" fill="#CC5229"/>
<path d="M353.492 360.242C354.367 360.667 355.192 361.2 355.958 361.833L355.067 362.725C354.583 362.333 354.058 361.983 353.5 361.667V360.242H353.492ZM342.5 360.242V361.658C341.958 361.967 341.433 362.317 340.942 362.717L340.05 361.825C340.808 361.2 341.633 360.675 342.5 360.242ZM348 357.308C344.217 357.308 340.783 358.792 338.242 361.2C338.092 361.35 338 361.558 338 361.792C338 362.025 338.092 362.233 338.242 362.375L340.308 364.442C340.458 364.592 340.667 364.683 340.9 364.683C341.125 364.683 341.333 364.6 341.483 364.45C342.142 363.842 342.883 363.317 343.7 362.908C343.975 362.775 344.167 362.483 344.167 362.158V359.575C345.375 359.183 346.667 358.975 348 358.975C349.333 358.975 350.625 359.183 351.825 359.583V362.167C351.825 362.5 352.017 362.783 352.292 362.917C353.108 363.325 353.858 363.842 354.517 364.458C354.667 364.6 354.875 364.692 355.1 364.692C355.333 364.692 355.542 364.6 355.692 364.45L357.758 362.383C357.908 362.233 358 362.025 358 361.792C358 361.558 357.908 361.35 357.758 361.2C355.217 358.792 351.783 357.308 348 357.308Z" fill="white"/>
<rect x="234" y="343" width="36" height="36" rx="18" fill="#29A653"/>
<path d="M247.45 355.167C247.5 355.908 247.625 356.633 247.825 357.325L246.825 358.325C246.483 357.325 246.267 356.267 246.192 355.167H247.45ZM255.667 365.183C256.375 365.383 257.1 365.508 257.833 365.558V366.8C256.733 366.725 255.675 366.508 254.667 366.175L255.667 365.183ZM248.25 353.5H245.333C244.875 353.5 244.5 353.875 244.5 354.333C244.5 362.158 250.842 368.5 258.667 368.5C259.125 368.5 259.5 368.125 259.5 367.667V364.758C259.5 364.3 259.125 363.925 258.667 363.925C257.633 363.925 256.625 363.758 255.692 363.45C255.608 363.417 255.517 363.408 255.433 363.408C255.217 363.408 255.008 363.492 254.842 363.65L253.008 365.483C250.65 364.275 248.717 362.35 247.517 359.992L249.35 358.158C249.583 357.925 249.65 357.6 249.558 357.308C249.25 356.375 249.083 355.375 249.083 354.333C249.083 353.875 248.708 353.5 248.25 353.5Z" fill="white"/>
<rect x="284" y="72.5" width="31" height="31" rx="15.5" stroke="#D5D9DC"/>
<path d="M299.499 84C300.233 84 300.833 84.6 300.833 85.3333C300.833 86.0667 300.233 86.6667 299.499 86.6667C298.766 86.6667 298.166 86.0667 298.166 85.3333C298.166 84.6 298.766 84 299.499 84ZM299.499 90.6667C301.299 90.6667 303.366 91.5267 303.499 92H295.499C295.653 91.52 297.706 90.6667 299.499 90.6667ZM299.499 82.6667C298.026 82.6667 296.833 83.86 296.833 85.3333C296.833 86.8067 298.026 88 299.499 88C300.973 88 302.166 86.8067 302.166 85.3333C302.166 83.86 300.973 82.6667 299.499 82.6667ZM299.499 89.3333C297.719 89.3333 294.166 90.2267 294.166 92V93.3333H304.833V92C304.833 90.2267 301.279 89.3333 299.499 89.3333Z" fill="#3F4346"/>
<path d="M270.308 117V115.152H268.46V114.501H270.308V112.661H270.959V114.501H272.799V115.152H270.959V117H270.308ZM274.521 117L276.769 114.058L276.899 113.98C276.812 114.119 276.711 114.229 276.595 114.31C276.48 114.391 276.352 114.449 276.213 114.483C276.075 114.518 275.921 114.535 275.753 114.535C275.377 114.535 275.039 114.449 274.738 114.275C274.437 114.096 274.197 113.853 274.018 113.546C273.844 113.234 273.757 112.878 273.757 112.479C273.757 112.085 273.847 111.735 274.026 111.429C274.212 111.122 274.46 110.879 274.773 110.7C275.091 110.52 275.447 110.431 275.84 110.431C276.245 110.431 276.604 110.523 276.916 110.708C277.229 110.888 277.475 111.139 277.654 111.463C277.833 111.782 277.923 112.149 277.923 112.565C277.923 112.797 277.894 113.025 277.836 113.251C277.784 113.477 277.703 113.699 277.593 113.919C277.483 114.139 277.344 114.359 277.177 114.579L275.354 117H274.521ZM275.84 113.911C276.112 113.911 276.352 113.85 276.561 113.728C276.769 113.601 276.931 113.43 277.046 113.216C277.168 112.996 277.229 112.751 277.229 112.479C277.229 112.201 277.168 111.955 277.046 111.741C276.925 111.521 276.76 111.351 276.552 111.229C276.344 111.102 276.106 111.038 275.84 111.038C275.574 111.038 275.337 111.102 275.129 111.229C274.92 111.351 274.755 111.521 274.634 111.741C274.512 111.955 274.452 112.201 274.452 112.479C274.452 112.751 274.51 112.996 274.625 113.216C274.747 113.43 274.912 113.601 275.12 113.728C275.334 113.85 275.574 113.911 275.84 113.911ZM280.012 117V111.142H278.797V110.535H280.706V117H280.012ZM284.394 117L286.642 114.058L286.772 113.98C286.685 114.119 286.584 114.229 286.468 114.31C286.353 114.391 286.225 114.449 286.086 114.483C285.948 114.518 285.794 114.535 285.627 114.535C285.25 114.535 284.912 114.449 284.611 114.275C284.31 114.096 284.07 113.853 283.891 113.546C283.717 113.234 283.631 112.878 283.631 112.479C283.631 112.085 283.72 111.735 283.9 111.429C284.085 111.122 284.333 110.879 284.646 110.7C284.964 110.52 285.32 110.431 285.713 110.431C286.118 110.431 286.477 110.523 286.789 110.708C287.102 110.888 287.348 111.139 287.527 111.463C287.706 111.782 287.796 112.149 287.796 112.565C287.796 112.797 287.767 113.025 287.709 113.251C287.657 113.477 287.576 113.699 287.466 113.919C287.356 114.139 287.217 114.359 287.05 114.579L285.227 117H284.394ZM285.713 113.911C285.985 113.911 286.225 113.85 286.434 113.728C286.642 113.601 286.804 113.43 286.92 113.216C287.041 112.996 287.102 112.751 287.102 112.479C287.102 112.201 287.041 111.955 286.92 111.741C286.798 111.521 286.633 111.351 286.425 111.229C286.217 111.102 285.979 111.038 285.713 111.038C285.447 111.038 285.21 111.102 285.002 111.229C284.793 111.351 284.629 111.521 284.507 111.741C284.386 111.955 284.325 112.201 284.325 112.479C284.325 112.751 284.383 112.996 284.498 113.216C284.62 113.43 284.785 113.601 284.993 113.728C285.207 113.85 285.447 113.911 285.713 113.911ZM290.935 117.104C290.599 117.104 290.287 117.046 289.997 116.931C289.714 116.815 289.465 116.65 289.251 116.436C289.037 116.222 288.875 115.967 288.765 115.672L289.295 115.412C289.428 115.747 289.645 116.014 289.945 116.21C290.252 116.401 290.582 116.497 290.935 116.497C291.218 116.497 291.47 116.43 291.69 116.297C291.915 116.164 292.092 115.985 292.219 115.759C292.346 115.528 292.41 115.27 292.41 114.987C292.41 114.692 292.343 114.431 292.21 114.206C292.083 113.98 291.91 113.804 291.69 113.676C291.47 113.543 291.221 113.477 290.943 113.477C290.66 113.477 290.397 113.543 290.154 113.676C289.917 113.804 289.743 113.96 289.633 114.145L289.086 114.041L289.572 110.535H292.844V111.142H289.824L290.093 110.908L289.702 113.668L289.433 113.546C289.636 113.297 289.873 113.121 290.145 113.017C290.417 112.907 290.695 112.852 290.978 112.852C291.395 112.852 291.762 112.95 292.08 113.147C292.398 113.338 292.647 113.595 292.827 113.919C293.012 114.237 293.104 114.593 293.104 114.987C293.104 115.386 293.009 115.747 292.818 116.071C292.633 116.39 292.375 116.641 292.046 116.826C291.722 117.012 291.351 117.104 290.935 117.104ZM294.981 113.676L294.477 113.312L295.224 112.322L294.121 111.949L294.312 111.359L295.423 111.724V110.535H296.048V111.724L297.159 111.359L297.35 111.949L296.248 112.322L296.994 113.312L296.491 113.676L295.736 112.687L294.981 113.676ZM299.133 113.676L298.63 113.312L299.376 112.322L298.274 111.949L298.465 111.359L299.576 111.724V110.535H300.201V111.724L301.311 111.359L301.502 111.949L300.4 112.322L301.147 113.312L300.643 113.676L299.888 112.687L299.133 113.676ZM303.286 113.676L302.782 113.312L303.529 112.322L302.427 111.949L302.618 111.359L303.728 111.724V110.535H304.353V111.724L305.464 111.359L305.655 111.949L304.553 112.322L305.299 113.312L304.796 113.676L304.041 112.687L303.286 113.676ZM307.438 113.676L306.935 113.312L307.681 112.322L306.579 111.949L306.77 111.359L307.881 111.724V110.535H308.506V111.724L309.617 111.359L309.808 111.949L308.705 112.322L309.452 113.312L308.948 113.676L308.193 112.687L307.438 113.676ZM311.591 113.676L311.088 113.312L311.834 112.322L310.732 111.949L310.923 111.359L312.034 111.724V110.535H312.658V111.724L313.769 111.359L313.96 111.949L312.858 112.322L313.604 113.312L313.101 113.676L312.346 112.687L311.591 113.676ZM315.744 113.676L315.24 113.312L315.987 112.322L314.885 111.949L315.075 111.359L316.186 111.724V110.535H316.811V111.724L317.922 111.359L318.113 111.949L317.011 112.322L317.757 113.312L317.254 113.676L316.499 112.687L315.744 113.676ZM321.762 117.104C321.253 117.104 320.805 116.965 320.417 116.688C320.035 116.404 319.737 116.014 319.523 115.516C319.309 115.013 319.202 114.428 319.202 113.763C319.202 113.098 319.309 112.516 319.523 112.019C319.737 111.515 320.035 111.125 320.417 110.847C320.799 110.57 321.244 110.431 321.753 110.431C322.263 110.431 322.708 110.57 323.09 110.847C323.472 111.125 323.77 111.515 323.984 112.019C324.198 112.516 324.305 113.098 324.305 113.763C324.305 114.428 324.198 115.013 323.984 115.516C323.775 116.019 323.48 116.41 323.099 116.688C322.717 116.965 322.271 117.104 321.762 117.104ZM321.762 116.453C322.132 116.453 322.456 116.34 322.734 116.115C323.012 115.889 323.229 115.577 323.385 115.178C323.541 114.773 323.619 114.301 323.619 113.763C323.619 113.225 323.541 112.756 323.385 112.357C323.229 111.952 323.012 111.64 322.734 111.42C322.456 111.194 322.129 111.082 321.753 111.082C321.383 111.082 321.059 111.194 320.781 111.42C320.504 111.64 320.287 111.952 320.131 112.357C319.974 112.756 319.896 113.225 319.896 113.763C319.896 114.295 319.974 114.764 320.131 115.169C320.287 115.574 320.504 115.889 320.781 116.115C321.065 116.34 321.392 116.453 321.762 116.453ZM325.437 117V116.566L327.242 114.579C327.595 114.191 327.881 113.87 328.101 113.616C328.326 113.361 328.494 113.13 328.604 112.921C328.714 112.713 328.769 112.487 328.769 112.244C328.769 111.857 328.656 111.559 328.431 111.351C328.205 111.142 327.904 111.038 327.528 111.038C327.14 111.038 326.814 111.148 326.547 111.368C326.287 111.588 326.111 111.894 326.018 112.288L325.385 112.149C325.46 111.796 325.596 111.492 325.792 111.238C325.989 110.983 326.235 110.786 326.53 110.648C326.825 110.503 327.155 110.431 327.519 110.431C327.907 110.431 328.245 110.509 328.535 110.665C328.824 110.821 329.05 111.035 329.212 111.307C329.379 111.579 329.463 111.891 329.463 112.244C329.463 112.487 329.411 112.722 329.307 112.947C329.209 113.173 329.058 113.416 328.856 113.676C328.653 113.937 328.393 114.24 328.075 114.587L326.435 116.393H329.637V117H325.437Z" fill="black"/>
<path d="M249.112 135.144C248.48 135.144 247.896 135.032 247.36 134.808C246.832 134.576 246.368 134.252 245.968 133.836C245.576 133.42 245.272 132.932 245.056 132.372C244.84 131.812 244.732 131.2 244.732 130.536C244.732 129.864 244.84 129.248 245.056 128.688C245.272 128.128 245.576 127.64 245.968 127.224C246.36 126.808 246.824 126.488 247.36 126.264C247.896 126.032 248.48 125.916 249.112 125.916C249.728 125.916 250.28 126.024 250.768 126.24C251.264 126.456 251.68 126.736 252.016 127.08C252.36 127.424 252.604 127.792 252.748 128.184L251.668 128.676C251.46 128.18 251.136 127.78 250.696 127.476C250.256 127.164 249.728 127.008 249.112 127.008C248.488 127.008 247.932 127.156 247.444 127.452C246.964 127.748 246.588 128.16 246.316 128.688C246.044 129.216 245.908 129.832 245.908 130.536C245.908 131.232 246.044 131.844 246.316 132.372C246.588 132.9 246.964 133.312 247.444 133.608C247.932 133.904 248.488 134.052 249.112 134.052C249.728 134.052 250.256 133.9 250.696 133.596C251.136 133.284 251.46 132.88 251.668 132.384L252.748 132.876C252.604 133.268 252.36 133.636 252.016 133.98C251.68 134.324 251.264 134.604 250.768 134.82C250.28 135.036 249.728 135.144 249.112 135.144ZM254.216 135V125.916H255.332V129.792L255.128 129.684C255.288 129.276 255.544 128.96 255.896 128.736C256.256 128.504 256.676 128.388 257.156 128.388C257.62 128.388 258.032 128.492 258.392 128.7C258.76 128.908 259.048 129.196 259.256 129.564C259.472 129.932 259.58 130.348 259.58 130.812V135H258.452V131.172C258.452 130.812 258.384 130.508 258.248 130.26C258.12 130.012 257.94 129.82 257.708 129.684C257.476 129.54 257.208 129.468 256.904 129.468C256.608 129.468 256.34 129.54 256.1 129.684C255.86 129.82 255.672 130.016 255.536 130.272C255.4 130.52 255.332 130.82 255.332 131.172V135H254.216ZM263.073 135.144C262.649 135.144 262.273 135.068 261.945 134.916C261.625 134.756 261.373 134.54 261.189 134.268C261.005 133.988 260.913 133.668 260.913 133.308C260.913 132.964 260.985 132.656 261.129 132.384C261.281 132.104 261.513 131.868 261.825 131.676C262.145 131.484 262.545 131.348 263.025 131.268L265.425 130.872V131.808L263.277 132.168C262.861 132.24 262.557 132.372 262.365 132.564C262.181 132.756 262.089 132.992 262.089 133.272C262.089 133.536 262.193 133.756 262.401 133.932C262.617 134.108 262.885 134.196 263.205 134.196C263.613 134.196 263.965 134.112 264.261 133.944C264.565 133.768 264.801 133.532 264.969 133.236C265.145 132.94 265.233 132.612 265.233 132.252V130.608C265.233 130.256 265.101 129.972 264.837 129.756C264.581 129.532 264.241 129.42 263.817 129.42C263.449 129.42 263.121 129.516 262.833 129.708C262.553 129.892 262.345 130.14 262.209 130.452L261.237 129.948C261.357 129.652 261.549 129.388 261.812 129.156C262.077 128.916 262.385 128.728 262.737 128.592C263.089 128.456 263.457 128.388 263.84 128.388C264.337 128.388 264.773 128.484 265.149 128.676C265.525 128.86 265.817 129.12 266.025 129.456C266.241 129.784 266.349 130.168 266.349 130.608V135H265.257V133.776L265.461 133.848C265.325 134.104 265.141 134.328 264.909 134.52C264.677 134.712 264.405 134.864 264.093 134.976C263.781 135.088 263.441 135.144 263.073 135.144ZM268.079 135V128.532H269.171V129.852L269.015 129.648C269.175 129.24 269.431 128.928 269.783 128.712C270.135 128.496 270.531 128.388 270.971 128.388C271.475 128.388 271.927 128.528 272.327 128.808C272.735 129.088 273.015 129.456 273.167 129.912L272.855 129.924C273.023 129.42 273.307 129.04 273.707 128.784C274.107 128.52 274.551 128.388 275.039 128.388C275.487 128.388 275.891 128.492 276.251 128.7C276.619 128.908 276.911 129.196 277.127 129.564C277.343 129.932 277.451 130.348 277.451 130.812V135H276.323V131.172C276.323 130.812 276.259 130.508 276.131 130.26C276.003 130.012 275.827 129.82 275.603 129.684C275.387 129.54 275.131 129.468 274.835 129.468C274.547 129.468 274.287 129.54 274.055 129.684C273.831 129.82 273.651 130.016 273.515 130.272C273.387 130.52 273.323 130.82 273.323 131.172V135H272.195V131.172C272.195 130.812 272.131 130.508 272.003 130.26C271.875 130.012 271.699 129.82 271.475 129.684C271.259 129.54 271.003 129.468 270.707 129.468C270.419 129.468 270.159 129.54 269.927 129.684C269.703 129.82 269.523 130.016 269.387 130.272C269.259 130.52 269.195 130.82 269.195 131.172V135H268.079ZM280.932 135.144C280.508 135.144 280.132 135.068 279.804 134.916C279.484 134.756 279.232 134.54 279.048 134.268C278.864 133.988 278.772 133.668 278.772 133.308C278.772 132.964 278.844 132.656 278.988 132.384C279.14 132.104 279.372 131.868 279.684 131.676C280.004 131.484 280.404 131.348 280.884 131.268L283.284 130.872V131.808L281.136 132.168C280.72 132.24 280.416 132.372 280.224 132.564C280.04 132.756 279.948 132.992 279.948 133.272C279.948 133.536 280.052 133.756 280.26 133.932C280.476 134.108 280.744 134.196 281.064 134.196C281.472 134.196 281.824 134.112 282.12 133.944C282.424 133.768 282.66 133.532 282.828 133.236C283.004 132.94 283.092 132.612 283.092 132.252V130.608C283.092 130.256 282.96 129.972 282.696 129.756C282.44 129.532 282.1 129.42 281.676 129.42C281.308 129.42 280.98 129.516 280.692 129.708C280.412 129.892 280.204 130.14 280.068 130.452L279.096 129.948C279.216 129.652 279.408 129.388 279.672 129.156C279.936 128.916 280.244 128.728 280.596 128.592C280.948 128.456 281.316 128.388 281.7 128.388C282.196 128.388 282.632 128.484 283.008 128.676C283.384 128.86 283.676 129.12 283.884 129.456C284.1 129.784 284.208 130.168 284.208 130.608V135H283.116V133.776L283.32 133.848C283.184 134.104 283 134.328 282.768 134.52C282.536 134.712 282.264 134.864 281.952 134.976C281.64 135.088 281.3 135.144 280.932 135.144ZM288.878 135.144C288.27 135.144 287.722 134.996 287.234 134.7C286.754 134.404 286.374 134 286.094 133.488C285.814 132.976 285.674 132.404 285.674 131.772C285.674 131.124 285.814 130.548 286.094 130.044C286.374 129.532 286.754 129.128 287.234 128.832C287.722 128.536 288.27 128.388 288.878 128.388C289.414 128.388 289.89 128.504 290.306 128.736C290.722 128.96 291.05 129.264 291.29 129.648L291.11 129.924V125.916H292.238V135H291.146V133.62L291.29 133.812C291.066 134.236 290.738 134.564 290.306 134.796C289.882 135.028 289.406 135.144 288.878 135.144ZM288.974 134.064C289.382 134.064 289.746 133.964 290.066 133.764C290.386 133.564 290.638 133.292 290.822 132.948C291.014 132.596 291.11 132.204 291.11 131.772C291.11 131.332 291.014 130.94 290.822 130.596C290.638 130.244 290.386 129.968 290.066 129.768C289.746 129.568 289.382 129.468 288.974 129.468C288.574 129.468 288.21 129.572 287.882 129.78C287.562 129.98 287.31 130.252 287.126 130.596C286.942 130.932 286.85 131.324 286.85 131.772C286.85 132.204 286.942 132.596 287.126 132.948C287.31 133.292 287.562 133.564 287.882 133.764C288.202 133.964 288.566 134.064 288.974 134.064ZM295.862 135.144C295.438 135.144 295.062 135.068 294.734 134.916C294.414 134.756 294.162 134.54 293.978 134.268C293.794 133.988 293.702 133.668 293.702 133.308C293.702 132.964 293.774 132.656 293.918 132.384C294.07 132.104 294.302 131.868 294.614 131.676C294.934 131.484 295.334 131.348 295.814 131.268L298.214 130.872V131.808L296.066 132.168C295.65 132.24 295.346 132.372 295.154 132.564C294.97 132.756 294.878 132.992 294.878 133.272C294.878 133.536 294.982 133.756 295.19 133.932C295.406 134.108 295.674 134.196 295.994 134.196C296.402 134.196 296.754 134.112 297.05 133.944C297.354 133.768 297.59 133.532 297.758 133.236C297.934 132.94 298.022 132.612 298.022 132.252V130.608C298.022 130.256 297.89 129.972 297.626 129.756C297.37 129.532 297.03 129.42 296.606 129.42C296.238 129.42 295.91 129.516 295.622 129.708C295.342 129.892 295.134 130.14 294.998 130.452L294.026 129.948C294.146 129.652 294.338 129.388 294.602 129.156C294.866 128.916 295.174 128.728 295.526 128.592C295.878 128.456 296.246 128.388 296.63 128.388C297.126 128.388 297.562 128.484 297.938 128.676C298.314 128.86 298.606 129.12 298.814 129.456C299.03 129.784 299.138 130.168 299.138 130.608V135H298.046V133.776L298.25 133.848C298.114 134.104 297.93 134.328 297.698 134.52C297.466 134.712 297.194 134.864 296.882 134.976C296.57 135.088 296.23 135.144 295.862 135.144ZM302.942 135V128.532H304.034V129.72L303.914 129.552C304.066 129.184 304.298 128.912 304.61 128.736C304.922 128.552 305.302 128.46 305.75 128.46H306.146V129.516H305.582C305.126 129.516 304.758 129.66 304.478 129.948C304.198 130.228 304.058 130.628 304.058 131.148V135H302.942ZM310.113 135.144C309.489 135.144 308.933 134.996 308.445 134.7C307.957 134.404 307.573 134 307.293 133.488C307.013 132.968 306.873 132.388 306.873 131.748C306.873 131.1 307.009 130.524 307.281 130.02C307.561 129.516 307.937 129.12 308.409 128.832C308.889 128.536 309.425 128.388 310.017 128.388C310.497 128.388 310.921 128.476 311.289 128.652C311.665 128.82 311.981 129.052 312.237 129.348C312.501 129.636 312.701 129.968 312.837 130.344C312.981 130.712 313.053 131.096 313.053 131.496C313.053 131.584 313.045 131.684 313.029 131.796C313.021 131.9 313.009 132 312.993 132.096H307.689V131.136H312.345L311.817 131.568C311.889 131.152 311.849 130.78 311.697 130.452C311.545 130.124 311.321 129.864 311.025 129.672C310.729 129.48 310.393 129.384 310.017 129.384C309.641 129.384 309.297 129.48 308.985 129.672C308.673 129.864 308.429 130.14 308.253 130.5C308.085 130.852 308.017 131.272 308.049 131.76C308.017 132.232 308.089 132.648 308.265 133.008C308.449 133.36 308.705 133.636 309.033 133.836C309.369 134.028 309.733 134.124 310.125 134.124C310.557 134.124 310.921 134.024 311.217 133.824C311.513 133.624 311.753 133.368 311.937 133.056L312.873 133.536C312.745 133.832 312.545 134.104 312.273 134.352C312.009 134.592 311.693 134.784 311.325 134.928C310.965 135.072 310.561 135.144 310.113 135.144ZM317.509 135.144C316.877 135.144 316.313 134.996 315.817 134.7C315.329 134.404 314.945 134 314.665 133.488C314.385 132.976 314.245 132.4 314.245 131.76C314.245 131.112 314.385 130.536 314.665 130.032C314.945 129.528 315.329 129.128 315.817 128.832C316.313 128.536 316.877 128.388 317.509 128.388C317.933 128.388 318.329 128.464 318.697 128.616C319.065 128.768 319.389 128.972 319.669 129.228C319.949 129.484 320.153 129.784 320.281 130.128L319.285 130.608C319.133 130.272 318.901 130 318.589 129.792C318.277 129.576 317.917 129.468 317.509 129.468C317.117 129.468 316.761 129.568 316.441 129.768C316.129 129.968 315.881 130.24 315.697 130.584C315.513 130.928 315.421 131.324 315.421 131.772C315.421 132.204 315.513 132.596 315.697 132.948C315.881 133.292 316.129 133.564 316.441 133.764C316.761 133.964 317.117 134.064 317.509 134.064C317.917 134.064 318.277 133.96 318.589 133.752C318.901 133.536 319.133 133.252 319.285 132.9L320.281 133.404C320.153 133.74 319.949 134.04 319.669 134.304C319.389 134.56 319.065 134.764 318.697 134.916C318.329 135.068 317.933 135.144 317.509 135.144ZM324.715 135.144C324.091 135.144 323.535 134.996 323.047 134.7C322.559 134.404 322.175 134 321.895 133.488C321.615 132.968 321.475 132.388 321.475 131.748C321.475 131.1 321.611 130.524 321.883 130.02C322.163 129.516 322.539 129.12 323.011 128.832C323.491 128.536 324.027 128.388 324.619 128.388C325.099 128.388 325.523 128.476 325.891 128.652C326.267 128.82 326.583 129.052 326.839 129.348C327.103 129.636 327.303 129.968 327.439 130.344C327.583 130.712 327.655 131.096 327.655 131.496C327.655 131.584 327.647 131.684 327.631 131.796C327.623 131.9 327.611 132 327.595 132.096H322.291V131.136H326.947L326.419 131.568C326.491 131.152 326.451 130.78 326.299 130.452C326.147 130.124 325.923 129.864 325.627 129.672C325.331 129.48 324.995 129.384 324.619 129.384C324.243 129.384 323.899 129.48 323.587 129.672C323.275 129.864 323.031 130.14 322.855 130.5C322.687 130.852 322.619 131.272 322.651 131.76C322.619 132.232 322.691 132.648 322.867 133.008C323.051 133.36 323.307 133.636 323.635 133.836C323.971 134.028 324.335 134.124 324.727 134.124C325.159 134.124 325.523 134.024 325.819 133.824C326.115 133.624 326.355 133.368 326.539 133.056L327.475 133.536C327.347 133.832 327.147 134.104 326.875 134.352C326.611 134.592 326.295 134.784 325.927 134.928C325.567 135.072 325.163 135.144 324.715 135.144ZM332.458 135.144C331.938 135.144 331.462 135.028 331.03 134.796C330.606 134.564 330.278 134.236 330.046 133.812L330.202 133.62V135H329.11V125.916H330.226V129.924L330.058 129.648C330.298 129.264 330.626 128.96 331.042 128.736C331.458 128.504 331.934 128.388 332.47 128.388C333.078 128.388 333.622 128.536 334.102 128.832C334.59 129.128 334.974 129.532 335.254 130.044C335.534 130.548 335.674 131.124 335.674 131.772C335.674 132.404 335.534 132.976 335.254 133.488C334.974 134 334.59 134.404 334.102 134.7C333.622 134.996 333.074 135.144 332.458 135.144ZM332.374 134.064C332.782 134.064 333.146 133.964 333.466 133.764C333.786 133.564 334.034 133.292 334.21 132.948C334.394 132.596 334.486 132.204 334.486 131.772C334.486 131.324 334.394 130.932 334.21 130.596C334.034 130.252 333.786 129.98 333.466 129.78C333.146 129.572 332.782 129.468 332.374 129.468C331.966 129.468 331.598 129.568 331.27 129.768C330.95 129.968 330.694 130.244 330.502 130.596C330.318 130.94 330.226 131.332 330.226 131.772C330.226 132.204 330.318 132.596 330.502 132.948C330.694 133.292 330.95 133.564 331.27 133.764C331.598 133.964 331.966 134.064 332.374 134.064ZM337.137 135V128.532H338.253V135H337.137ZM337.137 127.5V126.06H338.253V127.5H337.137ZM342.925 135.144C342.317 135.144 341.769 134.996 341.281 134.7C340.801 134.404 340.421 134 340.141 133.488C339.861 132.976 339.721 132.404 339.721 131.772C339.721 131.124 339.861 130.548 340.141 130.044C340.421 129.532 340.801 129.128 341.281 128.832C341.769 128.536 342.317 128.388 342.925 128.388C343.461 128.388 343.937 128.504 344.353 128.736C344.769 128.96 345.097 129.264 345.337 129.648L345.157 129.924V125.916H346.285V135H345.193V133.62L345.337 133.812C345.113 134.236 344.785 134.564 344.353 134.796C343.929 135.028 343.453 135.144 342.925 135.144ZM343.021 134.064C343.429 134.064 343.793 133.964 344.113 133.764C344.433 133.564 344.685 133.292 344.869 132.948C345.061 132.596 345.157 132.204 345.157 131.772C345.157 131.332 345.061 130.94 344.869 130.596C344.685 130.244 344.433 129.968 344.113 129.768C343.793 129.568 343.429 129.468 343.021 129.468C342.621 129.468 342.257 129.572 341.929 129.78C341.609 129.98 341.357 130.252 341.173 130.596C340.989 130.932 340.897 131.324 340.897 131.772C340.897 132.204 340.989 132.596 341.173 132.948C341.357 133.292 341.609 133.564 341.929 133.764C342.249 133.964 342.613 134.064 343.021 134.064ZM349.908 135.144C349.484 135.144 349.108 135.068 348.78 134.916C348.46 134.756 348.208 134.54 348.024 134.268C347.84 133.988 347.748 133.668 347.748 133.308C347.748 132.964 347.82 132.656 347.964 132.384C348.116 132.104 348.348 131.868 348.66 131.676C348.98 131.484 349.38 131.348 349.86 131.268L352.26 130.872V131.808L350.112 132.168C349.696 132.24 349.392 132.372 349.2 132.564C349.016 132.756 348.924 132.992 348.924 133.272C348.924 133.536 349.028 133.756 349.236 133.932C349.452 134.108 349.72 134.196 350.04 134.196C350.448 134.196 350.8 134.112 351.096 133.944C351.4 133.768 351.636 133.532 351.804 133.236C351.98 132.94 352.068 132.612 352.068 132.252V130.608C352.068 130.256 351.936 129.972 351.672 129.756C351.416 129.532 351.076 129.42 350.652 129.42C350.284 129.42 349.956 129.516 349.668 129.708C349.388 129.892 349.18 130.14 349.044 130.452L348.072 129.948C348.192 129.652 348.384 129.388 348.648 129.156C348.912 128.916 349.22 128.728 349.572 128.592C349.924 128.456 350.292 128.388 350.676 128.388C351.172 128.388 351.608 128.484 351.984 128.676C352.36 128.86 352.652 129.12 352.86 129.456C353.076 129.784 353.184 130.168 353.184 130.608V135H352.092V133.776L352.296 133.848C352.16 134.104 351.976 134.328 351.744 134.52C351.512 134.712 351.24 134.864 350.928 134.976C350.616 135.088 350.276 135.144 349.908 135.144Z" fill="black"/>
<path d="M218.888 46L220.928 43.36L221.088 43.464C221.013 43.544 220.931 43.608 220.84 43.656C220.755 43.704 220.661 43.7387 220.56 43.76C220.464 43.7813 220.36 43.792 220.248 43.792C219.891 43.792 219.571 43.712 219.288 43.552C219.005 43.3867 218.781 43.1627 218.616 42.88C218.456 42.592 218.376 42.2667 218.376 41.904C218.376 41.5253 218.464 41.1893 218.64 40.896C218.816 40.6027 219.056 40.3707 219.36 40.2C219.664 40.0293 220.011 39.944 220.4 39.944C220.795 39.944 221.141 40.0293 221.44 40.2C221.744 40.3707 221.981 40.6053 222.152 40.904C222.328 41.1973 222.416 41.5333 222.416 41.912C222.416 42.1147 222.395 42.3147 222.352 42.512C222.309 42.7093 222.235 42.9147 222.128 43.128C222.021 43.336 221.872 43.5653 221.68 43.816L220.016 46H218.888ZM220.4 43C220.608 43 220.792 42.952 220.952 42.856C221.112 42.76 221.24 42.6293 221.336 42.464C221.432 42.2987 221.48 42.1093 221.48 41.896C221.48 41.6773 221.432 41.4853 221.336 41.32C221.24 41.1493 221.109 41.0187 220.944 40.928C220.784 40.832 220.603 40.784 220.4 40.784C220.197 40.784 220.013 40.832 219.848 40.928C219.688 41.0187 219.56 41.1493 219.464 41.32C219.368 41.4853 219.32 41.6773 219.32 41.896C219.32 42.1093 219.365 42.2987 219.456 42.464C219.552 42.6293 219.683 42.76 219.848 42.856C220.013 42.952 220.197 43 220.4 43ZM223.733 46V44.96H224.653V46H223.733ZM223.733 42.712V41.672H224.653V42.712H223.733ZM228.73 46V44.656H225.89V43.872L228.69 40.04H229.626V43.872H230.45V44.656H229.626V46H228.73ZM226.586 44.216L226.434 43.872H228.73V40.792L228.986 40.872L226.586 44.216ZM232.158 46V40.84H231.014V40.04H233.094V46H232.158Z" fill="#212528"/>
<path d="M340.923 47H340.173C339.975 47 339.784 46.921 339.643 46.7803C339.503 46.6397 339.424 46.4489 339.424 46.25V39.75C339.424 39.5511 339.503 39.3603 339.643 39.2197C339.784 39.079 339.975 39 340.173 39H340.923C341.122 39 341.313 39.079 341.454 39.2197C341.594 39.3603 341.673 39.5511 341.673 39.75V46.25C341.673 46.4489 341.594 46.6397 341.454 46.7803C341.313 46.921 341.122 47 340.923 47ZM337.423 47H336.673C336.474 47 336.284 46.921 336.143 46.7803C336.002 46.6397 335.923 46.4489 335.923 46.25V41.5004C335.923 41.3015 336.002 41.1108 336.143 40.9701C336.284 40.8295 336.474 40.7504 336.673 40.7504H337.423C337.622 40.7504 337.813 40.8295 337.954 40.9701C338.094 41.1108 338.173 41.3015 338.173 41.5004V46.25C338.173 46.4488 338.094 46.6394 337.954 46.7801C337.813 46.9207 337.623 46.9998 337.424 47H337.423ZM333.923 47H333.173C332.974 47 332.784 46.921 332.643 46.7803C332.502 46.6397 332.423 46.4489 332.423 46.25V43.2501C332.423 43.0512 332.502 42.8605 332.643 42.7198C332.784 42.5792 332.974 42.5001 333.173 42.5001H333.923C334.122 42.5001 334.313 42.5792 334.453 42.7198C334.594 42.8605 334.673 43.0512 334.673 43.2501V46.25C334.673 46.4489 334.594 46.6397 334.453 46.7803C334.313 46.921 334.122 47 333.923 47ZM330.424 47H329.674C329.475 47 329.284 46.921 329.143 46.7803C329.003 46.6397 328.924 46.4489 328.924 46.25V44.7501C328.924 44.5512 329.003 44.3604 329.143 44.2198C329.284 44.0791 329.475 44.0001 329.674 44.0001H330.424C330.623 44.0001 330.813 44.0791 330.954 44.2198C331.095 44.3604 331.174 44.5512 331.174 44.7501V46.25C331.174 46.4489 331.095 46.6397 330.954 46.7803C330.813 46.921 330.623 47 330.424 47Z" fill="#212528"/>
<path d="M353.252 47C353.222 46.9999 353.192 46.9939 353.165 46.9823C353.137 46.9706 353.112 46.9537 353.091 46.9323L351.631 45.4613C351.609 45.4396 351.591 45.4134 351.579 45.3845C351.568 45.3555 351.562 45.3245 351.563 45.2933C351.563 45.2622 351.57 45.2316 351.582 45.2032C351.595 45.1749 351.613 45.1493 351.636 45.1281C352.087 44.7467 352.659 44.5375 353.25 44.5375C353.841 44.5375 354.412 44.7467 354.864 45.1281C354.887 45.1491 354.905 45.1746 354.918 45.203C354.931 45.2314 354.938 45.2621 354.939 45.2933C354.939 45.3245 354.934 45.3555 354.922 45.3844C354.91 45.4133 354.892 45.4394 354.87 45.4613L353.414 46.9323C353.393 46.9537 353.367 46.9706 353.34 46.9823C353.312 46.9939 353.282 46.9999 353.252 47ZM355.815 44.4181C355.757 44.418 355.701 44.3956 355.659 44.3555C355 43.7592 354.142 43.429 353.254 43.429C352.365 43.429 351.508 43.7592 350.848 44.3555C350.806 44.3956 350.75 44.418 350.692 44.4181C350.662 44.4182 350.633 44.4124 350.605 44.401C350.578 44.3897 350.553 44.373 350.532 44.3519L349.688 43.4999C349.666 43.4781 349.648 43.4521 349.636 43.4234C349.624 43.3946 349.618 43.3638 349.618 43.3326C349.618 43.3014 349.624 43.2706 349.636 43.2419C349.648 43.2131 349.666 43.1871 349.688 43.1653C350.656 42.2659 351.928 41.766 353.25 41.766C354.571 41.766 355.843 42.2659 356.811 43.1653C356.834 43.1869 356.852 43.2129 356.864 43.2416C356.877 43.2703 356.884 43.3013 356.884 43.3326C356.884 43.3637 356.878 43.3945 356.866 43.4233C356.854 43.452 356.837 43.4781 356.815 43.4999L355.975 44.3519C355.954 44.3728 355.929 44.3895 355.901 44.4009C355.874 44.4122 355.845 44.4181 355.815 44.4181ZM357.757 42.4589C357.728 42.4591 357.699 42.4536 357.672 42.4426C357.645 42.4316 357.621 42.4154 357.601 42.3948C356.427 41.2803 354.87 40.6589 353.252 40.6589C351.633 40.6589 350.077 41.2803 348.903 42.3948C348.882 42.4157 348.858 42.4322 348.831 42.4435C348.803 42.4548 348.774 42.4606 348.745 42.4606C348.715 42.4606 348.686 42.4548 348.659 42.4435C348.632 42.4322 348.607 42.4157 348.587 42.3948L347.743 41.5437C347.721 41.5218 347.704 41.4959 347.692 41.4674C347.68 41.4389 347.674 41.4083 347.674 41.3774C347.674 41.3465 347.68 41.316 347.692 41.2874C347.704 41.2589 347.721 41.233 347.743 41.2112C349.225 39.7921 351.198 39 353.25 39C355.303 39 357.276 39.7921 358.758 41.2112C358.78 41.233 358.797 41.2589 358.809 41.2874C358.821 41.316 358.827 41.3465 358.827 41.3774C358.827 41.4083 358.821 41.4389 358.809 41.4674C358.797 41.4959 358.78 41.5218 358.758 41.5437L357.913 42.3948C357.872 42.4359 357.815 42.4589 357.757 42.4589Z" fill="#212528"/>
<g opacity="0.35">
<path opacity="0.35" d="M378.474 39.353H366.709C365.865 39.353 365.18 40.0378 365.18 40.8827V45.1174C365.18 45.9622 365.865 46.6471 366.709 46.6471H378.474C379.319 46.6471 380.004 45.9622 380.004 45.1174V40.8827C380.004 40.0378 379.319 39.353 378.474 39.353Z" stroke="#212528" stroke-miterlimit="10"/>
</g>
<path opacity="0.4" d="M381.062 41.5892V44.4128C381.34 44.2959 381.577 44.0995 381.744 43.8484C381.911 43.5973 382 43.3025 382 43.001C382 42.6996 381.911 42.4048 381.744 42.1537C381.577 41.9026 381.34 41.7062 381.062 41.5892" fill="#212528"/>
<path d="M378.004 40.4118H367.179C366.66 40.4118 366.238 40.8331 366.238 41.3528V44.6472C366.238 45.1669 366.66 45.5882 367.179 45.5882H378.004C378.523 45.5882 378.945 45.1669 378.945 44.6472V41.3528C378.945 40.8331 378.523 40.4118 378.004 40.4118Z" fill="#212528"/>
<path d="M146.366 147L141.666 151.7L156.933 167L141.666 182.3L146.366 187L166.366 167L146.366 147Z" fill="#4CD9D9" fill-opacity="0.16"/>
<path d="M168.333 147L163.633 151.7L178.899 167L163.633 182.3L168.333 187L188.333 167L168.333 147Z" fill="#4CD9D9" fill-opacity="0.16"/>
<path d="M41.504 103.384C39.7973 103.384 38.2187 103.075 36.768 102.456C35.3387 101.837 34.08 100.973 32.992 99.864C31.9253 98.7547 31.0933 97.4533 30.496 95.96C29.8987 94.4667 29.6 92.8347 29.6 91.064C29.6 89.2933 29.888 87.6613 30.464 86.168C31.0613 84.6533 31.8933 83.352 32.96 82.264C34.048 81.1547 35.3173 80.3013 36.768 79.704C38.2187 79.0853 39.7973 78.776 41.504 78.776C43.2107 78.776 44.736 79.064 46.08 79.64C47.4453 80.216 48.5973 80.984 49.536 81.944C50.4747 82.8827 51.1467 83.9173 51.552 85.048L47.648 86.872C47.2 85.6773 46.4427 84.696 45.376 83.928C44.3093 83.1387 43.0187 82.744 41.504 82.744C40.0107 82.744 38.688 83.096 37.536 83.8C36.4053 84.504 35.52 85.4747 34.88 86.712C34.2613 87.9493 33.952 89.4 33.952 91.064C33.952 92.728 34.2613 94.1893 34.88 95.448C35.52 96.6853 36.4053 97.656 37.536 98.36C38.688 99.064 40.0107 99.416 41.504 99.416C43.0187 99.416 44.3093 99.032 45.376 98.264C46.4427 97.4747 47.2 96.4827 47.648 95.288L51.552 97.112C51.1467 98.2427 50.4747 99.288 49.536 100.248C48.5973 101.187 47.4453 101.944 46.08 102.52C44.736 103.096 43.2107 103.384 41.504 103.384ZM54.7333 103V78.776H58.9253V89.016L58.3493 88.408C58.7546 87.3627 59.4159 86.5733 60.3333 86.04C61.2719 85.4853 62.3599 85.208 63.5973 85.208C64.8773 85.208 66.0079 85.4853 66.9893 86.04C67.9919 86.5947 68.7706 87.3733 69.3253 88.376C69.8799 89.3573 70.1573 90.4987 70.1573 91.8V103H65.9653V92.792C65.9653 92.024 65.8159 91.3627 65.5173 90.808C65.2186 90.2533 64.8026 89.8267 64.2693 89.528C63.7573 89.208 63.1493 89.048 62.4453 89.048C61.7626 89.048 61.1546 89.208 60.6213 89.528C60.0879 89.8267 59.6719 90.2533 59.3733 90.808C59.0746 91.3627 58.9253 92.024 58.9253 92.792V103H54.7333ZM78.982 103.384C77.766 103.384 76.71 103.181 75.814 102.776C74.918 102.371 74.2247 101.795 73.734 101.048C73.2433 100.28 72.998 99.3947 72.998 98.392C72.998 97.432 73.2113 96.5787 73.638 95.832C74.0647 95.064 74.726 94.424 75.622 93.912C76.518 93.4 77.6487 93.0373 79.014 92.824L84.71 91.896V95.096L79.814 95.928C78.982 96.0773 78.3633 96.344 77.958 96.728C77.5527 97.112 77.35 97.6133 77.35 98.232C77.35 98.8293 77.574 99.3093 78.022 99.672C78.4913 100.013 79.0673 100.184 79.75 100.184C80.6247 100.184 81.3927 100.003 82.054 99.64C82.7367 99.256 83.2593 98.7333 83.622 98.072C84.006 97.4107 84.198 96.6853 84.198 95.896V91.416C84.198 90.6693 83.8993 90.0507 83.302 89.56C82.726 89.048 81.958 88.792 80.998 88.792C80.102 88.792 79.302 89.0373 78.598 89.528C77.9153 89.9973 77.414 90.6267 77.094 91.416L73.67 89.752C74.0113 88.8347 74.5447 88.0453 75.27 87.384C76.0167 86.7013 76.8913 86.168 77.894 85.784C78.8967 85.4 79.9847 85.208 81.158 85.208C82.5873 85.208 83.846 85.4747 84.934 86.008C86.022 86.52 86.8647 87.2453 87.462 88.184C88.0807 89.1013 88.39 90.1787 88.39 91.416V103H84.422V100.024L85.318 99.96C84.87 100.707 84.3367 101.336 83.718 101.848C83.0993 102.339 82.3953 102.723 81.606 103C80.8167 103.256 79.942 103.384 78.982 103.384ZM92.2645 103V85.592H96.2005V89.624L95.7525 88.952C96.0725 87.6933 96.7125 86.7547 97.6725 86.136C98.6325 85.5173 99.7632 85.208 101.065 85.208C102.494 85.208 103.753 85.5813 104.841 86.328C105.929 87.0747 106.633 88.056 106.953 89.272L105.769 89.368C106.302 87.9813 107.102 86.9467 108.169 86.264C109.235 85.56 110.462 85.208 111.849 85.208C113.086 85.208 114.185 85.4853 115.145 86.04C116.126 86.5947 116.894 87.3733 117.449 88.376C118.003 89.3573 118.281 90.4987 118.281 91.8V103H114.089V92.792C114.089 92.024 113.95 91.3627 113.673 90.808C113.395 90.2533 113.011 89.8267 112.521 89.528C112.03 89.208 111.433 89.048 110.729 89.048C110.067 89.048 109.481 89.208 108.969 89.528C108.457 89.8267 108.062 90.2533 107.785 90.808C107.507 91.3627 107.369 92.024 107.369 92.792V103H103.177V92.792C103.177 92.024 103.038 91.3627 102.761 90.808C102.483 90.2533 102.089 89.8267 101.577 89.528C101.086 89.208 100.499 89.048 99.8165 89.048C99.1552 89.048 98.5685 89.208 98.0565 89.528C97.5445 89.8267 97.1498 90.2533 96.8725 90.808C96.5952 91.3627 96.4565 92.024 96.4565 92.792V103H92.2645ZM127.107 103.384C125.891 103.384 124.835 103.181 123.939 102.776C123.043 102.371 122.35 101.795 121.859 101.048C121.368 100.28 121.123 99.3947 121.123 98.392C121.123 97.432 121.336 96.5787 121.763 95.832C122.19 95.064 122.851 94.424 123.747 93.912C124.643 93.4 125.774 93.0373 127.139 92.824L132.835 91.896V95.096L127.939 95.928C127.107 96.0773 126.488 96.344 126.083 96.728C125.678 97.112 125.475 97.6133 125.475 98.232C125.475 98.8293 125.699 99.3093 126.147 99.672C126.616 100.013 127.192 100.184 127.875 100.184C128.75 100.184 129.518 100.003 130.179 99.64C130.862 99.256 131.384 98.7333 131.747 98.072C132.131 97.4107 132.323 96.6853 132.323 95.896V91.416C132.323 90.6693 132.024 90.0507 131.427 89.56C130.851 89.048 130.083 88.792 129.123 88.792C128.227 88.792 127.427 89.0373 126.723 89.528C126.04 89.9973 125.539 90.6267 125.219 91.416L121.795 89.752C122.136 88.8347 122.67 88.0453 123.395 87.384C124.142 86.7013 125.016 86.168 126.019 85.784C127.022 85.4 128.11 85.208 129.283 85.208C130.712 85.208 131.971 85.4747 133.059 86.008C134.147 86.52 134.99 87.2453 135.587 88.184C136.206 89.1013 136.515 90.1787 136.515 91.416V103H132.547V100.024L133.443 99.96C132.995 100.707 132.462 101.336 131.843 101.848C131.224 102.339 130.52 102.723 129.731 103C128.942 103.256 128.067 103.384 127.107 103.384ZM148.486 103.384C146.8 103.384 145.296 102.989 143.974 102.2C142.651 101.389 141.606 100.291 140.838 98.904C140.07 97.5173 139.686 95.9813 139.686 94.296C139.686 92.5893 140.07 91.0533 140.838 89.688C141.606 88.3227 142.651 87.2347 143.974 86.424C145.318 85.6133 146.811 85.208 148.454 85.208C149.776 85.208 150.95 85.4747 151.974 86.008C153.019 86.52 153.84 87.2453 154.438 88.184L153.798 89.048V78.776H157.99V103H154.022V99.64L154.47 100.472C153.872 101.411 153.04 102.136 151.974 102.648C150.907 103.139 149.744 103.384 148.486 103.384ZM148.934 99.544C149.894 99.544 150.736 99.32 151.462 98.872C152.187 98.424 152.752 97.8053 153.158 97.016C153.584 96.2267 153.798 95.32 153.798 94.296C153.798 93.2933 153.584 92.3973 153.158 91.608C152.752 90.7973 152.187 90.168 151.462 89.72C150.736 89.272 149.894 89.048 148.934 89.048C147.995 89.048 147.152 89.2827 146.406 89.752C145.659 90.2 145.072 90.8187 144.646 91.608C144.24 92.376 144.038 93.272 144.038 94.296C144.038 95.32 144.24 96.2267 144.646 97.016C145.072 97.8053 145.659 98.424 146.406 98.872C147.152 99.32 147.995 99.544 148.934 99.544ZM167.17 103.384C165.954 103.384 164.898 103.181 164.002 102.776C163.106 102.371 162.412 101.795 161.922 101.048C161.431 100.28 161.186 99.3947 161.186 98.392C161.186 97.432 161.399 96.5787 161.826 95.832C162.252 95.064 162.914 94.424 163.81 93.912C164.706 93.4 165.836 93.0373 167.202 92.824L172.898 91.896V95.096L168.002 95.928C167.17 96.0773 166.551 96.344 166.146 96.728C165.74 97.112 165.538 97.6133 165.538 98.232C165.538 98.8293 165.762 99.3093 166.21 99.672C166.679 100.013 167.255 100.184 167.938 100.184C168.812 100.184 169.58 100.003 170.242 99.64C170.924 99.256 171.447 98.7333 171.81 98.072C172.194 97.4107 172.386 96.6853 172.386 95.896V91.416C172.386 90.6693 172.087 90.0507 171.49 89.56C170.914 89.048 170.146 88.792 169.186 88.792C168.29 88.792 167.49 89.0373 166.786 89.528C166.103 89.9973 165.602 90.6267 165.282 91.416L161.858 89.752C162.199 88.8347 162.732 88.0453 163.458 87.384C164.204 86.7013 165.079 86.168 166.082 85.784C167.084 85.4 168.172 85.208 169.345 85.208C170.775 85.208 172.034 85.4747 173.122 86.008C174.21 86.52 175.052 87.2453 175.65 88.184C176.268 89.1013 176.578 90.1787 176.578 91.416V103H172.61V100.024L173.506 99.96C173.058 100.707 172.524 101.336 171.906 101.848C171.287 102.339 170.583 102.723 169.794 103C169.004 103.256 168.13 103.384 167.17 103.384ZM187.076 103.384C185.22 103.384 183.599 102.947 182.212 102.072C180.847 101.176 179.908 99.9707 179.396 98.456L182.532 96.952C182.98 97.9333 183.599 98.7013 184.388 99.256C185.199 99.8107 186.095 100.088 187.076 100.088C187.844 100.088 188.452 99.9173 188.9 99.576C189.348 99.2347 189.572 98.7867 189.572 98.232C189.572 97.8907 189.476 97.6133 189.284 97.4C189.113 97.1653 188.868 96.9733 188.548 96.824C188.249 96.6533 187.919 96.5147 187.556 96.408L184.708 95.608C183.236 95.1813 182.116 94.5307 181.348 93.656C180.601 92.7813 180.228 91.7467 180.228 90.552C180.228 89.4853 180.495 88.5573 181.028 87.768C181.583 86.9573 182.34 86.328 183.3 85.88C184.281 85.432 185.401 85.208 186.66 85.208C188.303 85.208 189.753 85.6027 191.012 86.392C192.271 87.1813 193.167 88.2907 193.7 89.72L190.5 91.224C190.201 90.4347 189.7 89.8053 188.996 89.336C188.292 88.8667 187.503 88.632 186.628 88.632C185.924 88.632 185.369 88.792 184.964 89.112C184.559 89.432 184.356 89.848 184.356 90.36C184.356 90.68 184.441 90.9573 184.612 91.192C184.783 91.4267 185.017 91.6187 185.316 91.768C185.636 91.9173 185.999 92.056 186.404 92.184L189.188 93.016C190.617 93.4427 191.716 94.0827 192.484 94.936C193.273 95.7893 193.668 96.8347 193.668 98.072C193.668 99.1173 193.391 100.045 192.836 100.856C192.281 101.645 191.513 102.264 190.532 102.712C189.551 103.16 188.399 103.384 187.076 103.384ZM29.952 143V125.592H33.888V129.464L33.568 128.888C33.9733 127.587 34.6027 126.68 35.456 126.168C36.3307 125.656 37.376 125.4 38.592 125.4H39.616V129.112H38.112C36.9173 129.112 35.9573 129.485 35.232 130.232C34.5067 130.957 34.144 131.981 34.144 133.304V143H29.952ZM50.1768 143.384C48.3848 143.384 46.8168 142.979 45.4728 142.168C44.1288 141.357 43.0834 140.259 42.3368 138.872C41.5901 137.485 41.2168 135.949 41.2168 134.264C41.2168 132.515 41.5901 130.968 42.3368 129.624C43.1048 128.259 44.1394 127.181 45.4408 126.392C46.7634 125.603 48.2354 125.208 49.8568 125.208C51.2221 125.208 52.4168 125.432 53.4408 125.88C54.4861 126.328 55.3714 126.947 56.0968 127.736C56.8221 128.525 57.3768 129.432 57.7608 130.456C58.1448 131.459 58.3368 132.547 58.3368 133.72C58.3368 134.019 58.3154 134.328 58.2728 134.648C58.2514 134.968 58.1981 135.245 58.1128 135.48H44.6727V132.28H55.7448L53.7608 133.784C53.9528 132.803 53.8994 131.928 53.6008 131.16C53.3234 130.392 52.8541 129.784 52.1928 129.336C51.5528 128.888 50.7741 128.664 49.8568 128.664C48.9821 128.664 48.2034 128.888 47.5208 129.336C46.8381 129.763 46.3154 130.403 45.9528 131.256C45.6114 132.088 45.4834 133.101 45.5688 134.296C45.4834 135.363 45.6221 136.312 45.9848 137.144C46.3688 137.955 46.9234 138.584 47.6488 139.032C48.3954 139.48 49.2488 139.704 50.2088 139.704C51.1688 139.704 51.9794 139.501 52.6408 139.096C53.3234 138.691 53.8568 138.147 54.2408 137.464L57.6328 139.128C57.2914 139.96 56.7581 140.696 56.0328 141.336C55.3074 141.976 54.4434 142.477 53.4408 142.84C52.4594 143.203 51.3714 143.384 50.1768 143.384ZM69.8985 143.384C68.1705 143.384 66.6132 142.989 65.2265 142.2C63.8612 141.389 62.7838 140.301 61.9945 138.936C61.2052 137.549 60.8105 135.992 60.8105 134.264C60.8105 132.536 61.2052 130.989 61.9945 129.624C62.7838 128.259 63.8612 127.181 65.2265 126.392C66.6132 125.603 68.1705 125.208 69.8985 125.208C71.1358 125.208 72.2878 125.432 73.3545 125.88C74.4212 126.307 75.3385 126.904 76.1065 127.672C76.8958 128.419 77.4612 129.315 77.8025 130.36L74.1225 131.96C73.8025 131.085 73.2585 130.381 72.4905 129.848C71.7438 129.315 70.8798 129.048 69.8985 129.048C68.9812 129.048 68.1598 129.272 67.4345 129.72C66.7305 130.168 66.1758 130.787 65.7705 131.576C65.3652 132.365 65.1625 133.272 65.1625 134.296C65.1625 135.32 65.3652 136.227 65.7705 137.016C66.1758 137.805 66.7305 138.424 67.4345 138.872C68.1598 139.32 68.9812 139.544 69.8985 139.544C70.9012 139.544 71.7758 139.277 72.5225 138.744C73.2692 138.211 73.8025 137.496 74.1225 136.6L77.8025 138.264C77.4612 139.245 76.9065 140.131 76.1385 140.92C75.3705 141.688 74.4532 142.296 73.3865 142.744C72.3198 143.171 71.1572 143.384 69.8985 143.384ZM89.2393 143.384C87.4473 143.384 85.8793 142.979 84.5353 142.168C83.1913 141.357 82.1459 140.259 81.3993 138.872C80.6526 137.485 80.2793 135.949 80.2793 134.264C80.2793 132.515 80.6526 130.968 81.3993 129.624C82.1673 128.259 83.2019 127.181 84.5033 126.392C85.8259 125.603 87.2979 125.208 88.9193 125.208C90.2846 125.208 91.4793 125.432 92.5033 125.88C93.5486 126.328 94.4339 126.947 95.1593 127.736C95.8846 128.525 96.4393 129.432 96.8233 130.456C97.2073 131.459 97.3993 132.547 97.3993 133.72C97.3993 134.019 97.3779 134.328 97.3353 134.648C97.3139 134.968 97.2606 135.245 97.1753 135.48H83.7352V132.28H94.8073L92.8233 133.784C93.0153 132.803 92.9619 131.928 92.6633 131.16C92.3859 130.392 91.9166 129.784 91.2553 129.336C90.6153 128.888 89.8366 128.664 88.9193 128.664C88.0446 128.664 87.2659 128.888 86.5833 129.336C85.9006 129.763 85.3779 130.403 85.0153 131.256C84.6739 132.088 84.5459 133.101 84.6313 134.296C84.5459 135.363 84.6846 136.312 85.0473 137.144C85.4313 137.955 85.9859 138.584 86.7113 139.032C87.4579 139.48 88.3113 139.704 89.2713 139.704C90.2313 139.704 91.0419 139.501 91.7033 139.096C92.3859 138.691 92.9193 138.147 93.3033 137.464L96.6953 139.128C96.3539 139.96 95.8206 140.696 95.0953 141.336C94.3699 141.976 93.5059 142.477 92.5033 142.84C91.5219 143.203 90.4339 143.384 89.2393 143.384ZM110.081 143.384C108.822 143.384 107.66 143.139 106.593 142.648C105.548 142.136 104.716 141.411 104.097 140.472L104.513 139.64V143H100.577V118.776H104.769V129.048L104.129 128.184C104.726 127.245 105.537 126.52 106.561 126.008C107.585 125.475 108.769 125.208 110.113 125.208C111.756 125.208 113.238 125.613 114.561 126.424C115.884 127.235 116.929 128.323 117.697 129.688C118.486 131.053 118.881 132.589 118.881 134.296C118.881 135.981 118.497 137.517 117.729 138.904C116.961 140.291 115.916 141.389 114.593 142.2C113.27 142.989 111.766 143.384 110.081 143.384ZM109.601 139.544C110.561 139.544 111.414 139.32 112.161 138.872C112.908 138.424 113.484 137.805 113.889 137.016C114.316 136.227 114.529 135.32 114.529 134.296C114.529 133.272 114.316 132.376 113.889 131.608C113.484 130.819 112.908 130.2 112.161 129.752C111.414 129.283 110.561 129.048 109.601 129.048C108.684 129.048 107.852 129.272 107.105 129.72C106.38 130.168 105.804 130.797 105.377 131.608C104.972 132.397 104.769 133.293 104.769 134.296C104.769 135.32 104.972 136.227 105.377 137.016C105.804 137.805 106.38 138.424 107.105 138.872C107.852 139.32 108.684 139.544 109.601 139.544ZM122.077 143V125.592H126.269V143H122.077ZM122.077 123.64V119.16H126.269V123.64H122.077ZM138.236 143.384C136.55 143.384 135.046 142.989 133.724 142.2C132.401 141.389 131.356 140.291 130.588 138.904C129.82 137.517 129.436 135.981 129.436 134.296C129.436 132.589 129.82 131.053 130.588 129.688C131.356 128.323 132.401 127.235 133.724 126.424C135.068 125.613 136.561 125.208 138.204 125.208C139.526 125.208 140.7 125.475 141.724 126.008C142.769 126.52 143.59 127.245 144.188 128.184L143.548 129.048V118.776H147.74V143H143.772V139.64L144.22 140.472C143.622 141.411 142.79 142.136 141.724 142.648C140.657 143.139 139.494 143.384 138.236 143.384ZM138.684 139.544C139.644 139.544 140.486 139.32 141.212 138.872C141.937 138.424 142.502 137.805 142.908 137.016C143.334 136.227 143.548 135.32 143.548 134.296C143.548 133.293 143.334 132.397 142.908 131.608C142.502 130.797 141.937 130.168 141.212 129.72C140.486 129.272 139.644 129.048 138.684 129.048C137.745 129.048 136.902 129.283 136.156 129.752C135.409 130.2 134.822 130.819 134.396 131.608C133.99 132.376 133.788 133.272 133.788 134.296C133.788 135.32 133.99 136.227 134.396 137.016C134.822 137.805 135.409 138.424 136.156 138.872C136.902 139.32 137.745 139.544 138.684 139.544ZM156.92 143.384C155.704 143.384 154.648 143.181 153.752 142.776C152.856 142.371 152.162 141.795 151.672 141.048C151.181 140.28 150.936 139.395 150.936 138.392C150.936 137.432 151.149 136.579 151.576 135.832C152.002 135.064 152.664 134.424 153.56 133.912C154.456 133.4 155.586 133.037 156.952 132.824L162.648 131.896V135.096L157.752 135.928C156.92 136.077 156.301 136.344 155.896 136.728C155.49 137.112 155.288 137.613 155.288 138.232C155.288 138.829 155.512 139.309 155.96 139.672C156.429 140.013 157.005 140.184 157.688 140.184C158.562 140.184 159.33 140.003 159.992 139.64C160.674 139.256 161.197 138.733 161.56 138.072C161.944 137.411 162.136 136.685 162.136 135.896V131.416C162.136 130.669 161.837 130.051 161.24 129.56C160.664 129.048 159.896 128.792 158.936 128.792C158.04 128.792 157.24 129.037 156.536 129.528C155.853 129.997 155.352 130.627 155.032 131.416L151.608 129.752C151.949 128.835 152.482 128.045 153.208 127.384C153.954 126.701 154.829 126.168 155.832 125.784C156.834 125.4 157.922 125.208 159.095 125.208C160.525 125.208 161.784 125.475 162.872 126.008C163.96 126.52 164.802 127.245 165.4 128.184C166.018 129.101 166.328 130.179 166.328 131.416V143H162.36V140.024L163.256 139.96C162.808 140.707 162.274 141.336 161.656 141.848C161.037 142.339 160.333 142.723 159.544 143C158.754 143.256 157.88 143.384 156.92 143.384ZM176.826 143.384C174.97 143.384 173.349 142.947 171.962 142.072C170.597 141.176 169.658 139.971 169.146 138.456L172.282 136.952C172.73 137.933 173.349 138.701 174.138 139.256C174.949 139.811 175.845 140.088 176.826 140.088C177.594 140.088 178.202 139.917 178.65 139.576C179.098 139.235 179.322 138.787 179.322 138.232C179.322 137.891 179.226 137.613 179.034 137.4C178.863 137.165 178.618 136.973 178.298 136.824C177.999 136.653 177.669 136.515 177.306 136.408L174.458 135.608C172.986 135.181 171.866 134.531 171.098 133.656C170.351 132.781 169.978 131.747 169.978 130.552C169.978 129.485 170.245 128.557 170.778 127.768C171.333 126.957 172.09 126.328 173.05 125.88C174.031 125.432 175.151 125.208 176.41 125.208C178.053 125.208 179.503 125.603 180.762 126.392C182.021 127.181 182.917 128.291 183.45 129.72L180.25 131.224C179.951 130.435 179.45 129.805 178.746 129.336C178.042 128.867 177.253 128.632 176.378 128.632C175.674 128.632 175.119 128.792 174.714 129.112C174.309 129.432 174.106 129.848 174.106 130.36C174.106 130.68 174.191 130.957 174.362 131.192C174.533 131.427 174.767 131.619 175.066 131.768C175.386 131.917 175.749 132.056 176.154 132.184L178.938 133.016C180.367 133.443 181.466 134.083 182.234 134.936C183.023 135.789 183.418 136.835 183.418 138.072C183.418 139.117 183.141 140.045 182.586 140.856C182.031 141.645 181.263 142.264 180.282 142.712C179.301 143.16 178.149 143.384 176.826 143.384Z" fill="#24B3B3"/>
<path d="M413.816 296.384C412.301 296.384 410.893 296.107 409.592 295.552C408.312 294.997 407.203 294.229 406.264 293.248C405.347 292.245 404.675 291.083 404.248 289.76L407.864 288.192C408.44 289.557 409.272 290.635 410.36 291.424C411.448 292.192 412.675 292.576 414.04 292.576C414.808 292.576 415.469 292.459 416.024 292.224C416.6 291.968 417.037 291.627 417.336 291.2C417.656 290.773 417.816 290.261 417.816 289.664C417.816 288.96 417.603 288.384 417.176 287.936C416.771 287.467 416.152 287.104 415.32 286.848L410.744 285.376C408.888 284.8 407.491 283.936 406.552 282.784C405.613 281.632 405.144 280.277 405.144 278.72C405.144 277.355 405.475 276.149 406.136 275.104C406.819 274.059 407.757 273.248 408.952 272.672C410.168 272.075 411.555 271.776 413.112 271.776C414.541 271.776 415.853 272.032 417.048 272.544C418.243 273.035 419.267 273.728 420.12 274.624C420.995 275.499 421.645 276.533 422.072 277.728L418.488 279.328C418.019 278.133 417.315 277.216 416.376 276.576C415.437 275.915 414.349 275.584 413.112 275.584C412.387 275.584 411.747 275.712 411.192 275.968C410.637 276.203 410.2 276.544 409.88 276.992C409.581 277.419 409.432 277.931 409.432 278.528C409.432 279.189 409.645 279.776 410.072 280.288C410.499 280.779 411.149 281.163 412.024 281.44L416.408 282.816C418.307 283.435 419.725 284.288 420.664 285.376C421.624 286.464 422.104 287.808 422.104 289.408C422.104 290.773 421.752 291.979 421.048 293.024C420.344 294.069 419.373 294.891 418.136 295.488C416.899 296.085 415.459 296.384 413.816 296.384ZM426.023 296V272.16H430.183L439.111 284.288H437.127L445.863 272.16H450.023V296H445.639V277.12L447.335 277.536L438.279 289.6H437.767L428.935 277.536L430.375 277.12V296H426.023ZM463.097 296.384C461.583 296.384 460.175 296.107 458.873 295.552C457.593 294.997 456.484 294.229 455.545 293.248C454.628 292.245 453.956 291.083 453.529 289.76L457.145 288.192C457.721 289.557 458.553 290.635 459.641 291.424C460.729 292.192 461.956 292.576 463.321 292.576C464.089 292.576 464.751 292.459 465.305 292.224C465.881 291.968 466.319 291.627 466.617 291.2C466.937 290.773 467.097 290.261 467.097 289.664C467.097 288.96 466.884 288.384 466.457 287.936C466.052 287.467 465.433 287.104 464.601 286.848L460.025 285.376C458.169 284.8 456.772 283.936 455.833 282.784C454.895 281.632 454.425 280.277 454.425 278.72C454.425 277.355 454.756 276.149 455.417 275.104C456.1 274.059 457.039 273.248 458.233 272.672C459.449 272.075 460.836 271.776 462.393 271.776C463.823 271.776 465.135 272.032 466.329 272.544C467.524 273.035 468.548 273.728 469.401 274.624C470.276 275.499 470.927 276.533 471.353 277.728L467.769 279.328C467.3 278.133 466.596 277.216 465.657 276.576C464.719 275.915 463.631 275.584 462.393 275.584C461.668 275.584 461.028 275.712 460.473 275.968C459.919 276.203 459.481 276.544 459.161 276.992C458.863 277.419 458.713 277.931 458.713 278.528C458.713 279.189 458.927 279.776 459.353 280.288C459.78 280.779 460.431 281.163 461.305 281.44L465.689 282.816C467.588 283.435 469.007 284.288 469.945 285.376C470.905 286.464 471.385 287.808 471.385 289.408C471.385 290.773 471.033 291.979 470.329 293.024C469.625 294.069 468.655 294.891 467.417 295.488C466.18 296.085 464.74 296.384 463.097 296.384ZM404.952 336V318.592H408.888V322.464L408.568 321.888C408.973 320.587 409.603 319.68 410.456 319.168C411.331 318.656 412.376 318.4 413.592 318.4H414.616V322.112H413.112C411.917 322.112 410.957 322.485 410.232 323.232C409.507 323.957 409.144 324.981 409.144 326.304V336H404.952ZM425.177 336.384C423.385 336.384 421.817 335.979 420.473 335.168C419.129 334.357 418.083 333.259 417.337 331.872C416.59 330.485 416.217 328.949 416.217 327.264C416.217 325.515 416.59 323.968 417.337 322.624C418.105 321.259 419.139 320.181 420.441 319.392C421.763 318.603 423.235 318.208 424.857 318.208C426.222 318.208 427.417 318.432 428.441 318.88C429.486 319.328 430.371 319.947 431.097 320.736C431.822 321.525 432.377 322.432 432.761 323.456C433.145 324.459 433.337 325.547 433.337 326.72C433.337 327.019 433.315 327.328 433.273 327.648C433.251 327.968 433.198 328.245 433.113 328.48H419.673V325.28H430.745L428.761 326.784C428.953 325.803 428.899 324.928 428.601 324.16C428.323 323.392 427.854 322.784 427.193 322.336C426.553 321.888 425.774 321.664 424.857 321.664C423.982 321.664 423.203 321.888 422.521 322.336C421.838 322.763 421.315 323.403 420.953 324.256C420.611 325.088 420.483 326.101 420.569 327.296C420.483 328.363 420.622 329.312 420.985 330.144C421.369 330.955 421.923 331.584 422.649 332.032C423.395 332.48 424.249 332.704 425.209 332.704C426.169 332.704 426.979 332.501 427.641 332.096C428.323 331.691 428.857 331.147 429.241 330.464L432.633 332.128C432.291 332.96 431.758 333.696 431.033 334.336C430.307 334.976 429.443 335.477 428.441 335.84C427.459 336.203 426.371 336.384 425.177 336.384ZM444.899 336.384C443.171 336.384 441.613 335.989 440.227 335.2C438.861 334.389 437.784 333.301 436.995 331.936C436.205 330.549 435.811 328.992 435.811 327.264C435.811 325.536 436.205 323.989 436.995 322.624C437.784 321.259 438.861 320.181 440.227 319.392C441.613 318.603 443.171 318.208 444.899 318.208C446.136 318.208 447.288 318.432 448.355 318.88C449.421 319.307 450.339 319.904 451.107 320.672C451.896 321.419 452.461 322.315 452.803 323.36L449.123 324.96C448.803 324.085 448.259 323.381 447.491 322.848C446.744 322.315 445.88 322.048 444.899 322.048C443.981 322.048 443.16 322.272 442.435 322.72C441.731 323.168 441.176 323.787 440.771 324.576C440.365 325.365 440.163 326.272 440.163 327.296C440.163 328.32 440.365 329.227 440.771 330.016C441.176 330.805 441.731 331.424 442.435 331.872C443.16 332.32 443.981 332.544 444.899 332.544C445.901 332.544 446.776 332.277 447.523 331.744C448.269 331.211 448.803 330.496 449.123 329.6L452.803 331.264C452.461 332.245 451.907 333.131 451.139 333.92C450.371 334.688 449.453 335.296 448.387 335.744C447.32 336.171 446.157 336.384 444.899 336.384ZM464.239 336.384C462.447 336.384 460.879 335.979 459.535 335.168C458.191 334.357 457.146 333.259 456.399 331.872C455.653 330.485 455.279 328.949 455.279 327.264C455.279 325.515 455.653 323.968 456.399 322.624C457.167 321.259 458.202 320.181 459.503 319.392C460.826 318.603 462.298 318.208 463.919 318.208C465.285 318.208 466.479 318.432 467.503 318.88C468.549 319.328 469.434 319.947 470.159 320.736C470.885 321.525 471.439 322.432 471.823 323.456C472.207 324.459 472.399 325.547 472.399 326.72C472.399 327.019 472.378 327.328 472.335 327.648C472.314 327.968 472.261 328.245 472.175 328.48H458.735V325.28H469.807L467.823 326.784C468.015 325.803 467.962 324.928 467.663 324.16C467.386 323.392 466.917 322.784 466.255 322.336C465.615 321.888 464.837 321.664 463.919 321.664C463.045 321.664 462.266 321.888 461.583 322.336C460.901 322.763 460.378 323.403 460.015 324.256C459.674 325.088 459.546 326.101 459.631 327.296C459.546 328.363 459.685 329.312 460.047 330.144C460.431 330.955 460.986 331.584 461.711 332.032C462.458 332.48 463.311 332.704 464.271 332.704C465.231 332.704 466.042 332.501 466.703 332.096C467.386 331.691 467.919 331.147 468.303 330.464L471.695 332.128C471.354 332.96 470.821 333.696 470.095 334.336C469.37 334.976 468.506 335.477 467.503 335.84C466.522 336.203 465.434 336.384 464.239 336.384ZM485.081 336.384C483.822 336.384 482.66 336.139 481.593 335.648C480.548 335.136 479.716 334.411 479.097 333.472L479.513 332.64V336H475.577V311.776H479.769V322.048L479.129 321.184C479.726 320.245 480.537 319.52 481.561 319.008C482.585 318.475 483.769 318.208 485.113 318.208C486.756 318.208 488.238 318.613 489.561 319.424C490.884 320.235 491.929 321.323 492.697 322.688C493.486 324.053 493.881 325.589 493.881 327.296C493.881 328.981 493.497 330.517 492.729 331.904C491.961 333.291 490.916 334.389 489.593 335.2C488.27 335.989 486.766 336.384 485.081 336.384ZM484.601 332.544C485.561 332.544 486.414 332.32 487.161 331.872C487.908 331.424 488.484 330.805 488.889 330.016C489.316 329.227 489.529 328.32 489.529 327.296C489.529 326.272 489.316 325.376 488.889 324.608C488.484 323.819 487.908 323.2 487.161 322.752C486.414 322.283 485.561 322.048 484.601 322.048C483.684 322.048 482.852 322.272 482.105 322.72C481.38 323.168 480.804 323.797 480.377 324.608C479.972 325.397 479.769 326.293 479.769 327.296C479.769 328.32 479.972 329.227 480.377 330.016C480.804 330.805 481.38 331.424 482.105 331.872C482.852 332.32 483.684 332.544 484.601 332.544ZM497.077 336V318.592H501.269V336H497.077ZM497.077 316.64V312.16H501.269V316.64H497.077ZM513.236 336.384C511.55 336.384 510.046 335.989 508.724 335.2C507.401 334.389 506.356 333.291 505.588 331.904C504.82 330.517 504.436 328.981 504.436 327.296C504.436 325.589 504.82 324.053 505.588 322.688C506.356 321.323 507.401 320.235 508.724 319.424C510.068 318.613 511.561 318.208 513.204 318.208C514.526 318.208 515.7 318.475 516.724 319.008C517.769 319.52 518.59 320.245 519.188 321.184L518.548 322.048V311.776H522.74V336H518.772V332.64L519.22 333.472C518.622 334.411 517.79 335.136 516.724 335.648C515.657 336.139 514.494 336.384 513.236 336.384ZM513.684 332.544C514.644 332.544 515.486 332.32 516.212 331.872C516.937 331.424 517.502 330.805 517.908 330.016C518.334 329.227 518.548 328.32 518.548 327.296C518.548 326.293 518.334 325.397 517.908 324.608C517.502 323.797 516.937 323.168 516.212 322.72C515.486 322.272 514.644 322.048 513.684 322.048C512.745 322.048 511.902 322.283 511.156 322.752C510.409 323.2 509.822 323.819 509.396 324.608C508.99 325.376 508.788 326.272 508.788 327.296C508.788 328.32 508.99 329.227 509.396 330.016C509.822 330.805 510.409 331.424 511.156 331.872C511.902 332.32 512.745 332.544 513.684 332.544ZM535.152 336.384C533.445 336.384 531.888 335.989 530.48 335.2C529.093 334.411 527.984 333.333 527.152 331.968C526.341 330.603 525.936 329.045 525.936 327.296C525.936 325.547 526.341 323.989 527.152 322.624C527.984 321.259 529.093 320.181 530.48 319.392C531.866 318.603 533.424 318.208 535.152 318.208C536.858 318.208 538.405 318.603 539.792 319.392C541.178 320.181 542.277 321.259 543.088 322.624C543.92 323.968 544.336 325.525 544.336 327.296C544.336 329.045 543.92 330.603 543.088 331.968C542.256 333.333 541.146 334.411 539.76 335.2C538.373 335.989 536.837 336.384 535.152 336.384ZM535.152 332.544C536.09 332.544 536.912 332.32 537.616 331.872C538.341 331.424 538.906 330.805 539.312 330.016C539.738 329.205 539.952 328.299 539.952 327.296C539.952 326.272 539.738 325.376 539.312 324.608C538.906 323.819 538.341 323.2 537.616 322.752C536.912 322.283 536.09 322.048 535.152 322.048C534.192 322.048 533.349 322.283 532.624 322.752C531.898 323.2 531.322 323.819 530.896 324.608C530.49 325.376 530.288 326.272 530.288 327.296C530.288 328.299 530.49 329.205 530.896 330.016C531.322 330.805 531.898 331.424 532.624 331.872C533.349 332.32 534.192 332.544 535.152 332.544ZM554.139 336.384C552.283 336.384 550.661 335.947 549.275 335.072C547.909 334.176 546.971 332.971 546.459 331.456L549.595 329.952C550.043 330.933 550.661 331.701 551.451 332.256C552.261 332.811 553.157 333.088 554.139 333.088C554.907 333.088 555.515 332.917 555.963 332.576C556.411 332.235 556.635 331.787 556.635 331.232C556.635 330.891 556.539 330.613 556.347 330.4C556.176 330.165 555.931 329.973 555.611 329.824C555.312 329.653 554.981 329.515 554.619 329.408L551.771 328.608C550.299 328.181 549.179 327.531 548.411 326.656C547.664 325.781 547.291 324.747 547.291 323.552C547.291 322.485 547.557 321.557 548.091 320.768C548.645 319.957 549.403 319.328 550.363 318.88C551.344 318.432 552.464 318.208 553.723 318.208C555.365 318.208 556.816 318.603 558.075 319.392C559.333 320.181 560.229 321.291 560.763 322.72L557.563 324.224C557.264 323.435 556.763 322.805 556.059 322.336C555.355 321.867 554.565 321.632 553.691 321.632C552.987 321.632 552.432 321.792 552.027 322.112C551.621 322.432 551.419 322.848 551.419 323.36C551.419 323.68 551.504 323.957 551.675 324.192C551.845 324.427 552.08 324.619 552.379 324.768C552.699 324.917 553.061 325.056 553.467 325.184L556.251 326.016C557.68 326.443 558.779 327.083 559.547 327.936C560.336 328.789 560.731 329.835 560.731 331.072C560.731 332.117 560.453 333.045 559.899 333.856C559.344 334.645 558.576 335.264 557.595 335.712C556.613 336.16 555.461 336.384 554.139 336.384Z" fill="#24B3B3"/>
</svg>
