<svg width="600" height="450" viewBox="0 0 600 450" fill="none" xmlns="http://www.w3.org/2000/svg">
<path d="M98.4776 150C97.4221 150 96.5664 150.84 96.5664 151.875C96.5664 152.91 97.4221 153.75 98.4776 153.75H182.881C184.611 153.75 186.184 154.445 187.326 155.566C188.469 156.686 189.178 158.23 189.178 159.927V260.073C189.178 261.77 188.469 263.314 187.326 264.434C186.184 265.554 184.611 266.25 182.881 266.25H98.4776C97.4221 266.25 96.5664 267.089 96.5664 268.125C96.5664 269.16 97.4221 270 98.4776 270H182.881C185.666 270 188.196 268.884 190.029 267.085C191.862 265.287 193 262.805 193 260.073V159.927C193 157.195 191.862 154.713 190.029 152.914C188.196 151.116 185.666 150 182.881 150L98.4776 150Z" fill="#5D6164" stroke="#3F4346"/>
<path d="M109.161 227.219C113.367 229.516 113.314 233.61 113.251 238.435C113.247 238.704 113.243 238.985 113.243 240.093V255.514C113.243 259.5 111.583 263.122 108.908 265.746C106.232 268.371 102.54 270 98.4778 270H87.7656C83.703 270 80.0111 268.371 77.3358 265.746C74.6607 263.122 73 259.5 73 255.514V240.093C73 237.9 73.0071 239.692 73.0048 239.087C72.9838 233.753 72.9661 229.214 77.6771 226.936V193.064C72.9661 190.786 72.9838 186.247 73.0048 180.913C73.0071 180.308 73 182.099 73 179.907V164.486C73 160.5 74.6607 156.878 77.3358 154.254C80.0111 151.629 83.703 150 87.7656 150H98.4778C102.54 150 106.232 151.629 108.908 154.254C111.583 156.878 113.243 160.5 113.243 164.486V172.309V179.907C113.243 181.015 113.247 181.296 113.251 181.565C113.314 186.39 113.367 190.484 109.161 192.781V207.428V227.219ZM109.443 238.391C109.493 234.572 109.535 231.377 106.603 230.162C105.866 229.902 105.339 229.21 105.339 228.397V207.428V191.637C105.325 190.884 105.778 190.165 106.533 189.865C109.535 188.672 109.494 185.458 109.443 181.609C109.432 180.779 109.421 179.937 109.421 179.906V172.309V164.486C109.421 161.535 108.189 158.852 106.205 156.905C104.221 154.958 101.485 153.75 98.4778 153.75H87.7656C84.7582 153.75 82.0228 154.958 80.0385 156.905C78.0543 158.852 76.8225 161.535 76.8225 164.486V179.906C76.8225 181.422 76.8174 179.644 76.8124 180.913C76.7956 185.198 76.7819 188.798 80.095 190.014C80.9047 190.232 81.4996 190.959 81.4996 191.823V228.143C81.5144 228.932 81.0171 229.675 80.2165 229.948C76.783 231.121 76.7954 234.751 76.8124 239.087C76.8174 240.356 76.8225 238.577 76.8225 240.093V255.514C76.8225 258.465 78.0543 261.148 80.0385 263.095C82.0228 265.041 84.7583 266.25 87.7656 266.25H98.4779C101.485 266.25 104.221 265.041 106.205 263.095C108.189 261.148 109.421 258.465 109.421 255.514V240.093C109.421 240.063 109.432 239.221 109.443 238.391Z" fill="#5D6164" stroke="#3F4346"/>
<path d="M129.255 163.184H173.165C174.822 163.184 176.326 163.847 177.415 164.915C178.504 165.984 179.181 167.46 179.181 169.084V180.357C179.181 181.982 178.504 183.458 177.415 184.526C176.326 185.595 174.822 186.258 173.165 186.258H129.255C127.599 186.258 126.095 185.595 125.006 184.526C123.916 183.458 123.24 181.982 123.24 180.357V169.084C123.24 167.46 123.916 165.984 125.006 164.915C126.095 163.847 127.599 163.184 129.255 163.184ZM173.165 166.934H129.255C128.654 166.934 128.106 167.176 127.708 167.567C127.31 167.958 127.063 168.495 127.063 169.084V180.357C127.063 180.947 127.31 181.484 127.708 181.875C128.106 182.266 128.654 182.508 129.255 182.508H173.165C173.766 182.508 174.314 182.266 174.713 181.875C175.111 181.484 175.358 180.947 175.358 180.357V169.084C175.358 168.495 175.111 167.958 174.713 167.567C174.314 167.176 173.766 166.934 173.165 166.934Z" fill="#5D6164" stroke="#3F4346"/>
<path fill-rule="evenodd" clip-rule="evenodd" d="M169.481 198.473H172.44C173.796 198.473 174.905 199.561 174.905 200.892V203.794C174.905 205.125 173.796 206.213 172.44 206.213H169.481C168.125 206.213 167.016 205.125 167.016 203.794V200.892C167.016 199.561 168.125 198.473 169.481 198.473Z" fill="#5D6164" stroke="#3F4346"/>
<path fill-rule="evenodd" clip-rule="evenodd" d="M149.731 198.473H152.69C154.046 198.473 155.155 199.561 155.155 200.892V203.794C155.155 205.125 154.046 206.213 152.69 206.213H149.731C148.375 206.213 147.266 205.125 147.266 203.794V200.892C147.266 199.561 148.375 198.473 149.731 198.473Z" fill="#5D6164" stroke="#3F4346"/>
<path fill-rule="evenodd" clip-rule="evenodd" d="M129.981 198.473H132.94C134.296 198.473 135.405 199.561 135.405 200.892V203.794C135.405 205.125 134.296 206.213 132.94 206.213H129.981C128.625 206.213 127.516 205.125 127.516 203.794V200.892C127.516 199.561 128.625 198.473 129.981 198.473Z" fill="#5D6164" stroke="#3F4346"/>
<path fill-rule="evenodd" clip-rule="evenodd" d="M169.481 214.406H172.44C173.796 214.406 174.905 215.495 174.905 216.825V219.727C174.905 221.058 173.796 222.146 172.44 222.146H169.481C168.125 222.146 167.016 221.058 167.016 219.727V216.825C167.016 215.495 168.125 214.406 169.481 214.406Z" fill="#5D6164" stroke="#3F4346"/>
<path fill-rule="evenodd" clip-rule="evenodd" d="M149.731 214.406H152.69C154.046 214.406 155.155 215.495 155.155 216.825V219.727C155.155 221.058 154.046 222.146 152.69 222.146H149.731C148.375 222.146 147.266 221.058 147.266 219.727V216.825C147.266 215.495 148.375 214.406 149.731 214.406Z" fill="#5D6164" stroke="#3F4346"/>
<path fill-rule="evenodd" clip-rule="evenodd" d="M129.981 214.406H132.94C134.296 214.406 135.405 215.495 135.405 216.825V219.727C135.405 221.058 134.296 222.146 132.94 222.146H129.981C128.625 222.146 127.516 221.058 127.516 219.727V216.825C127.516 215.495 128.625 214.406 129.981 214.406Z" fill="#5D6164" stroke="#3F4346"/>
<path fill-rule="evenodd" clip-rule="evenodd" d="M169.481 230.379H172.44C173.796 230.379 174.905 231.467 174.905 232.798V235.7C174.905 237.03 173.796 238.119 172.44 238.119H169.481C168.125 238.119 167.016 237.03 167.016 235.7V232.798C167.016 231.467 168.125 230.379 169.481 230.379Z" fill="#5D6164" stroke="#3F4346"/>
<path fill-rule="evenodd" clip-rule="evenodd" d="M149.731 230.379H152.69C154.046 230.379 155.155 231.467 155.155 232.798V235.7C155.155 237.03 154.046 238.119 152.69 238.119H149.731C148.375 238.119 147.266 237.03 147.266 235.7V232.798C147.266 231.467 148.375 230.379 149.731 230.379Z" fill="#5D6164" stroke="#3F4346"/>
<path fill-rule="evenodd" clip-rule="evenodd" d="M129.981 230.379H132.94C134.296 230.379 135.405 231.467 135.405 232.798V235.7C135.405 237.03 134.296 238.119 132.94 238.119H129.981C128.625 238.119 127.516 237.03 127.516 235.7V232.798C127.516 231.467 128.625 230.379 129.981 230.379Z" fill="#5D6164" stroke="#3F4346"/>
<path fill-rule="evenodd" clip-rule="evenodd" d="M169.481 246.316H172.44C173.796 246.316 174.905 247.405 174.905 248.735V251.637C174.905 252.968 173.796 254.056 172.44 254.056H169.481C168.125 254.056 167.016 252.968 167.016 251.637V248.735C167.016 247.405 168.125 246.316 169.481 246.316Z" fill="#5D6164" stroke="#3F4346"/>
<path fill-rule="evenodd" clip-rule="evenodd" d="M149.731 246.316H152.69C154.046 246.316 155.155 247.405 155.155 248.735V251.637C155.155 252.968 154.046 254.056 152.69 254.056H149.731C148.375 254.056 147.266 252.968 147.266 251.637V248.735C147.266 247.405 148.375 246.316 149.731 246.316Z" fill="#5D6164" stroke="#3F4346"/>
<path fill-rule="evenodd" clip-rule="evenodd" d="M129.981 246.316H132.94C134.296 246.316 135.405 247.405 135.405 248.735V251.637C135.405 252.968 134.296 254.056 132.94 254.056H129.981C128.625 254.056 127.516 252.968 127.516 251.637V248.735C127.516 247.405 128.625 246.316 129.981 246.316Z" fill="#5D6164" stroke="#3F4346"/>
<path d="M234.728 210V192.12H237.848L244.544 201.216H243.056L249.608 192.12H252.728V210H249.44V195.84L250.712 196.152L243.92 205.2H243.536L236.912 196.152L237.992 195.84V210H234.728ZM259.846 210.288C258.934 210.288 258.142 210.136 257.47 209.832C256.798 209.528 256.278 209.096 255.91 208.536C255.542 207.96 255.358 207.296 255.358 206.544C255.358 205.824 255.518 205.184 255.838 204.624C256.158 204.048 256.654 203.568 257.326 203.184C257.998 202.8 258.846 202.528 259.87 202.368L264.142 201.672V204.072L260.47 204.696C259.846 204.808 259.382 205.008 259.078 205.296C258.774 205.584 258.622 205.96 258.622 206.424C258.622 206.872 258.79 207.232 259.126 207.504C259.478 207.76 259.91 207.888 260.422 207.888C261.078 207.888 261.654 207.752 262.15 207.48C262.662 207.192 263.054 206.8 263.326 206.304C263.614 205.808 263.758 205.264 263.758 204.672V201.312C263.758 200.752 263.534 200.288 263.086 199.92C262.654 199.536 262.078 199.344 261.358 199.344C260.686 199.344 260.086 199.528 259.558 199.896C259.046 200.248 258.67 200.72 258.43 201.312L255.862 200.064C256.118 199.376 256.518 198.784 257.062 198.288C257.622 197.776 258.278 197.376 259.03 197.088C259.782 196.8 260.598 196.656 261.478 196.656C262.55 196.656 263.494 196.856 264.31 197.256C265.126 197.64 265.758 198.184 266.206 198.888C266.67 199.576 266.902 200.384 266.902 201.312V210H263.926V207.768L264.598 207.72C264.262 208.28 263.862 208.752 263.398 209.136C262.934 209.504 262.406 209.792 261.814 210C261.222 210.192 260.566 210.288 259.846 210.288ZM269.808 210V196.944H272.952V210H269.808ZM269.808 195.48V192.12H272.952V195.48H269.808ZM280.823 210.288C279.431 210.288 278.215 209.96 277.175 209.304C276.151 208.632 275.447 207.728 275.063 206.592L277.415 205.464C277.751 206.2 278.215 206.776 278.807 207.192C279.415 207.608 280.087 207.816 280.823 207.816C281.399 207.816 281.855 207.688 282.191 207.432C282.527 207.176 282.695 206.84 282.695 206.424C282.695 206.168 282.623 205.96 282.479 205.8C282.351 205.624 282.167 205.48 281.927 205.368C281.703 205.24 281.455 205.136 281.183 205.056L279.047 204.456C277.943 204.136 277.103 203.648 276.527 202.992C275.967 202.336 275.687 201.56 275.687 200.664C275.687 199.864 275.887 199.168 276.287 198.576C276.703 197.968 277.271 197.496 277.991 197.16C278.727 196.824 279.567 196.656 280.511 196.656C281.743 196.656 282.831 196.952 283.775 197.544C284.719 198.136 285.391 198.968 285.791 200.04L283.391 201.168C283.167 200.576 282.791 200.104 282.263 199.752C281.735 199.4 281.143 199.224 280.487 199.224C279.959 199.224 279.543 199.344 279.239 199.584C278.935 199.824 278.783 200.136 278.783 200.52C278.783 200.76 278.847 200.968 278.975 201.144C279.103 201.32 279.279 201.464 279.503 201.576C279.743 201.688 280.015 201.792 280.319 201.888L282.407 202.512C283.479 202.832 284.303 203.312 284.879 203.952C285.471 204.592 285.767 205.376 285.767 206.304C285.767 207.088 285.559 207.784 285.143 208.392C284.727 208.984 284.151 209.448 283.415 209.784C282.679 210.12 281.815 210.288 280.823 210.288ZM298.64 210.288C297.296 210.288 296.12 209.984 295.112 209.376C294.104 208.768 293.32 207.944 292.76 206.904C292.2 205.864 291.92 204.712 291.92 203.448C291.92 202.136 292.2 200.976 292.76 199.968C293.336 198.944 294.112 198.136 295.088 197.544C296.08 196.952 297.184 196.656 298.4 196.656C299.424 196.656 300.32 196.824 301.088 197.16C301.872 197.496 302.536 197.96 303.08 198.552C303.624 199.144 304.04 199.824 304.328 200.592C304.616 201.344 304.76 202.16 304.76 203.04C304.76 203.264 304.744 203.496 304.712 203.736C304.696 203.976 304.656 204.184 304.592 204.36H294.512V201.96H302.816L301.328 203.088C301.472 202.352 301.432 201.696 301.208 201.12C301 200.544 300.648 200.088 300.152 199.752C299.672 199.416 299.088 199.248 298.4 199.248C297.744 199.248 297.16 199.416 296.648 199.752C296.136 200.072 295.744 200.552 295.472 201.192C295.216 201.816 295.12 202.576 295.184 203.472C295.12 204.272 295.224 204.984 295.496 205.608C295.784 206.216 296.2 206.688 296.744 207.024C297.304 207.36 297.944 207.528 298.664 207.528C299.384 207.528 299.992 207.376 300.488 207.072C301 206.768 301.4 206.36 301.688 205.848L304.232 207.096C303.976 207.72 303.576 208.272 303.032 208.752C302.488 209.232 301.84 209.608 301.088 209.88C300.352 210.152 299.536 210.288 298.64 210.288ZM313.432 210.288C312.136 210.288 310.968 209.992 309.928 209.4C308.904 208.792 308.096 207.976 307.504 206.952C306.912 205.912 306.616 204.744 306.616 203.448C306.616 202.152 306.912 200.992 307.504 199.968C308.096 198.944 308.904 198.136 309.928 197.544C310.968 196.952 312.136 196.656 313.432 196.656C314.36 196.656 315.224 196.824 316.024 197.16C316.824 197.48 317.512 197.928 318.088 198.504C318.68 199.064 319.104 199.736 319.36 200.52L316.6 201.72C316.36 201.064 315.952 200.536 315.376 200.136C314.816 199.736 314.168 199.536 313.432 199.536C312.744 199.536 312.128 199.704 311.584 200.04C311.056 200.376 310.64 200.84 310.336 201.432C310.032 202.024 309.88 202.704 309.88 203.472C309.88 204.24 310.032 204.92 310.336 205.512C310.64 206.104 311.056 206.568 311.584 206.904C312.128 207.24 312.744 207.408 313.432 207.408C314.184 207.408 314.84 207.208 315.4 206.808C315.96 206.408 316.36 205.872 316.6 205.2L319.36 206.448C319.104 207.184 318.688 207.848 318.112 208.44C317.536 209.016 316.848 209.472 316.048 209.808C315.248 210.128 314.376 210.288 313.432 210.288ZM328.129 210.288C326.849 210.288 325.681 209.992 324.625 209.4C323.585 208.808 322.753 208 322.129 206.976C321.521 205.952 321.217 204.784 321.217 203.472C321.217 202.16 321.521 200.992 322.129 199.968C322.753 198.944 323.585 198.136 324.625 197.544C325.665 196.952 326.833 196.656 328.129 196.656C329.409 196.656 330.569 196.952 331.609 197.544C332.649 198.136 333.473 198.944 334.081 199.968C334.705 200.976 335.017 202.144 335.017 203.472C335.017 204.784 334.705 205.952 334.081 206.976C333.457 208 332.625 208.808 331.585 209.4C330.545 209.992 329.393 210.288 328.129 210.288ZM328.129 207.408C328.833 207.408 329.449 207.24 329.977 206.904C330.521 206.568 330.945 206.104 331.249 205.512C331.569 204.904 331.729 204.224 331.729 203.472C331.729 202.704 331.569 202.032 331.249 201.456C330.945 200.864 330.521 200.4 329.977 200.064C329.449 199.712 328.833 199.536 328.129 199.536C327.409 199.536 326.777 199.712 326.233 200.064C325.689 200.4 325.257 200.864 324.937 201.456C324.633 202.032 324.481 202.704 324.481 203.472C324.481 204.224 324.633 204.904 324.937 205.512C325.257 206.104 325.689 206.568 326.233 206.904C326.777 207.24 327.409 207.408 328.129 207.408ZM337.402 210V196.944H340.354V199.512L340.114 199.056C340.418 198.272 340.914 197.68 341.602 197.28C342.306 196.864 343.122 196.656 344.05 196.656C345.01 196.656 345.858 196.864 346.594 197.28C347.346 197.696 347.93 198.28 348.346 199.032C348.762 199.768 348.97 200.624 348.97 201.6V210H345.826V202.344C345.826 201.768 345.714 201.272 345.49 200.856C345.266 200.44 344.954 200.12 344.554 199.896C344.17 199.656 343.714 199.536 343.186 199.536C342.674 199.536 342.218 199.656 341.818 199.896C341.418 200.12 341.106 200.44 340.882 200.856C340.658 201.272 340.546 201.768 340.546 202.344V210H337.402ZM358.012 210.288C356.732 210.288 355.564 209.992 354.508 209.4C353.468 208.808 352.636 208 352.012 206.976C351.404 205.952 351.1 204.784 351.1 203.472C351.1 202.16 351.404 200.992 352.012 199.968C352.636 198.944 353.468 198.136 354.508 197.544C355.548 196.952 356.716 196.656 358.012 196.656C359.292 196.656 360.452 196.952 361.492 197.544C362.532 198.136 363.356 198.944 363.964 199.968C364.588 200.976 364.9 202.144 364.9 203.472C364.9 204.784 364.588 205.952 363.964 206.976C363.34 208 362.508 208.808 361.468 209.4C360.428 209.992 359.276 210.288 358.012 210.288ZM358.012 207.408C358.716 207.408 359.332 207.24 359.86 206.904C360.404 206.568 360.828 206.104 361.132 205.512C361.452 204.904 361.612 204.224 361.612 203.472C361.612 202.704 361.452 202.032 361.132 201.456C360.828 200.864 360.404 200.4 359.86 200.064C359.332 199.712 358.716 199.536 358.012 199.536C357.292 199.536 356.66 199.712 356.116 200.064C355.572 200.4 355.14 200.864 354.82 201.456C354.516 202.032 354.364 202.704 354.364 203.472C354.364 204.224 354.516 204.904 354.82 205.512C355.14 206.104 355.572 206.568 356.116 206.904C356.66 207.24 357.292 207.408 358.012 207.408ZM353.332 194.64L356.14 190.68H359.86L362.692 194.64H359.572L358.012 192.48L356.452 194.64H353.332ZM367.284 210V196.944H370.236V199.968L369.9 199.464C370.14 198.52 370.62 197.816 371.34 197.352C372.06 196.888 372.908 196.656 373.884 196.656C374.956 196.656 375.9 196.936 376.716 197.496C377.532 198.056 378.06 198.792 378.3 199.704L377.412 199.776C377.812 198.736 378.412 197.96 379.212 197.448C380.012 196.92 380.932 196.656 381.972 196.656C382.9 196.656 383.724 196.864 384.444 197.28C385.18 197.696 385.756 198.28 386.172 199.032C386.588 199.768 386.796 200.624 386.796 201.6V210H383.652V202.344C383.652 201.768 383.548 201.272 383.34 200.856C383.132 200.44 382.844 200.12 382.476 199.896C382.108 199.656 381.66 199.536 381.132 199.536C380.636 199.536 380.196 199.656 379.812 199.896C379.428 200.12 379.132 200.44 378.924 200.856C378.716 201.272 378.612 201.768 378.612 202.344V210H375.468V202.344C375.468 201.768 375.364 201.272 375.156 200.856C374.948 200.44 374.652 200.12 374.268 199.896C373.9 199.656 373.46 199.536 372.948 199.536C372.452 199.536 372.012 199.656 371.628 199.896C371.244 200.12 370.948 200.44 370.74 200.856C370.532 201.272 370.428 201.768 370.428 202.344V210H367.284ZM389.456 210V196.944H392.6V210H389.456ZM389.456 195.48V192.12H392.6V195.48H389.456ZM401.791 210.288C400.495 210.288 399.327 209.992 398.287 209.4C397.263 208.792 396.455 207.976 395.863 206.952C395.271 205.912 394.975 204.744 394.975 203.448C394.975 202.152 395.271 200.992 395.863 199.968C396.455 198.944 397.263 198.136 398.287 197.544C399.327 196.952 400.495 196.656 401.791 196.656C402.719 196.656 403.583 196.824 404.383 197.16C405.183 197.48 405.871 197.928 406.447 198.504C407.039 199.064 407.463 199.736 407.719 200.52L404.959 201.72C404.719 201.064 404.311 200.536 403.735 200.136C403.175 199.736 402.527 199.536 401.791 199.536C401.103 199.536 400.487 199.704 399.943 200.04C399.415 200.376 398.999 200.84 398.695 201.432C398.391 202.024 398.239 202.704 398.239 203.472C398.239 204.24 398.391 204.92 398.695 205.512C398.999 206.104 399.415 206.568 399.943 206.904C400.487 207.24 401.103 207.408 401.791 207.408C402.543 207.408 403.199 207.208 403.759 206.808C404.319 206.408 404.719 205.872 404.959 205.2L407.719 206.448C407.463 207.184 407.047 207.848 406.471 208.44C405.895 209.016 405.207 209.472 404.407 209.808C403.607 210.128 402.735 210.288 401.791 210.288ZM416.489 210.288C415.209 210.288 414.041 209.992 412.985 209.4C411.945 208.808 411.113 208 410.489 206.976C409.881 205.952 409.577 204.784 409.577 203.472C409.577 202.16 409.881 200.992 410.489 199.968C411.113 198.944 411.945 198.136 412.985 197.544C414.025 196.952 415.193 196.656 416.489 196.656C417.769 196.656 418.929 196.952 419.969 197.544C421.009 198.136 421.833 198.944 422.441 199.968C423.065 200.976 423.377 202.144 423.377 203.472C423.377 204.784 423.065 205.952 422.441 206.976C421.817 208 420.985 208.808 419.945 209.4C418.905 209.992 417.753 210.288 416.489 210.288ZM416.489 207.408C417.193 207.408 417.809 207.24 418.337 206.904C418.881 206.568 419.305 206.104 419.609 205.512C419.929 204.904 420.089 204.224 420.089 203.472C420.089 202.704 419.929 202.032 419.609 201.456C419.305 200.864 418.881 200.4 418.337 200.064C417.809 199.712 417.193 199.536 416.489 199.536C415.769 199.536 415.137 199.712 414.593 200.064C414.049 200.4 413.617 200.864 413.297 201.456C412.993 202.032 412.841 202.704 412.841 203.472C412.841 204.224 412.993 204.904 413.297 205.512C413.617 206.104 414.049 206.568 414.593 206.904C415.137 207.24 415.769 207.408 416.489 207.408ZM436.099 210.288C434.835 210.288 433.707 209.992 432.715 209.4C431.723 208.792 430.939 207.968 430.363 206.928C429.787 205.888 429.499 204.736 429.499 203.472C429.499 202.192 429.787 201.04 430.363 200.016C430.939 198.992 431.723 198.176 432.715 197.568C433.723 196.96 434.843 196.656 436.075 196.656C437.067 196.656 437.947 196.856 438.715 197.256C439.499 197.64 440.115 198.184 440.562 198.888L440.083 199.536V191.832H443.227V210H440.251V207.48L440.587 208.104C440.139 208.808 439.515 209.352 438.715 209.736C437.915 210.104 437.043 210.288 436.099 210.288ZM436.435 207.408C437.155 207.408 437.787 207.24 438.331 206.904C438.875 206.568 439.299 206.104 439.603 205.512C439.923 204.92 440.083 204.24 440.083 203.472C440.083 202.72 439.923 202.048 439.603 201.456C439.299 200.848 438.875 200.376 438.331 200.04C437.787 199.704 437.155 199.536 436.435 199.536C435.731 199.536 435.099 199.712 434.539 200.064C433.979 200.4 433.539 200.864 433.219 201.456C432.915 202.032 432.763 202.704 432.763 203.472C432.763 204.24 432.915 204.92 433.219 205.512C433.539 206.104 433.979 206.568 434.539 206.904C435.099 207.24 435.731 207.408 436.435 207.408ZM452.536 210.288C451.256 210.288 450.088 209.992 449.032 209.4C447.992 208.808 447.16 208 446.536 206.976C445.928 205.952 445.624 204.784 445.624 203.472C445.624 202.16 445.928 200.992 446.536 199.968C447.16 198.944 447.992 198.136 449.032 197.544C450.072 196.952 451.24 196.656 452.536 196.656C453.816 196.656 454.976 196.952 456.016 197.544C457.056 198.136 457.88 198.944 458.488 199.968C459.112 200.976 459.424 202.144 459.424 203.472C459.424 204.784 459.112 205.952 458.488 206.976C457.864 208 457.032 208.808 455.992 209.4C454.952 209.992 453.8 210.288 452.536 210.288ZM452.536 207.408C453.24 207.408 453.856 207.24 454.384 206.904C454.928 206.568 455.352 206.104 455.656 205.512C455.976 204.904 456.136 204.224 456.136 203.472C456.136 202.704 455.976 202.032 455.656 201.456C455.352 200.864 454.928 200.4 454.384 200.064C453.856 199.712 453.24 199.536 452.536 199.536C451.816 199.536 451.184 199.712 450.64 200.064C450.096 200.4 449.664 200.864 449.344 201.456C449.04 202.032 448.888 202.704 448.888 203.472C448.888 204.224 449.04 204.904 449.344 205.512C449.664 206.104 450.096 206.568 450.64 206.904C451.184 207.24 451.816 207.408 452.536 207.408ZM476.129 214.8V207.48L476.633 208.104C476.185 208.808 475.561 209.352 474.761 209.736C473.961 210.104 473.089 210.288 472.145 210.288C470.881 210.288 469.753 209.992 468.761 209.4C467.769 208.792 466.985 207.968 466.409 206.928C465.833 205.888 465.545 204.736 465.545 203.472C465.545 202.192 465.833 201.04 466.409 200.016C466.985 198.992 467.769 198.176 468.761 197.568C469.769 196.96 470.889 196.656 472.121 196.656C473.113 196.656 473.993 196.856 474.761 197.256C475.545 197.64 476.161 198.184 476.609 198.888L476.297 199.536V196.944H479.273V214.8H476.129ZM472.481 207.408C473.201 207.408 473.833 207.24 474.377 206.904C474.921 206.568 475.345 206.104 475.649 205.512C475.969 204.92 476.129 204.24 476.129 203.472C476.129 202.72 475.969 202.048 475.649 201.456C475.345 200.848 474.921 200.376 474.377 200.04C473.833 199.704 473.201 199.536 472.481 199.536C471.777 199.536 471.145 199.712 470.585 200.064C470.025 200.4 469.585 200.864 469.265 201.456C468.961 202.032 468.809 202.704 468.809 203.472C468.809 204.24 468.961 204.92 469.265 205.512C469.585 206.104 470.025 206.568 470.585 206.904C471.145 207.24 471.777 207.408 472.481 207.408ZM486.854 210.288C485.846 210.288 484.966 210.064 484.214 209.616C483.478 209.168 482.91 208.544 482.51 207.744C482.126 206.944 481.934 206.008 481.934 204.936V196.944H485.078V204.672C485.078 205.216 485.182 205.696 485.39 206.112C485.614 206.512 485.926 206.832 486.326 207.072C486.742 207.296 487.206 207.408 487.718 207.408C488.23 207.408 488.686 207.296 489.086 207.072C489.486 206.832 489.798 206.504 490.022 206.088C490.246 205.672 490.358 205.176 490.358 204.6V196.944H493.502V210H490.526V207.432L490.79 207.888C490.486 208.688 489.982 209.288 489.278 209.688C488.59 210.088 487.782 210.288 486.854 210.288ZM502.617 210.288C501.273 210.288 500.097 209.984 499.089 209.376C498.081 208.768 497.297 207.944 496.737 206.904C496.177 205.864 495.897 204.712 495.897 203.448C495.897 202.136 496.177 200.976 496.737 199.968C497.313 198.944 498.089 198.136 499.065 197.544C500.057 196.952 501.161 196.656 502.377 196.656C503.401 196.656 504.297 196.824 505.065 197.16C505.849 197.496 506.513 197.96 507.057 198.552C507.601 199.144 508.017 199.824 508.305 200.592C508.593 201.344 508.737 202.16 508.737 203.04C508.737 203.264 508.721 203.496 508.689 203.736C508.673 203.976 508.633 204.184 508.569 204.36H498.489V201.96H506.793L505.305 203.088C505.449 202.352 505.409 201.696 505.185 201.12C504.977 200.544 504.625 200.088 504.129 199.752C503.649 199.416 503.065 199.248 502.377 199.248C501.721 199.248 501.137 199.416 500.625 199.752C500.113 200.072 499.721 200.552 499.449 201.192C499.193 201.816 499.097 202.576 499.161 203.472C499.097 204.272 499.201 204.984 499.473 205.608C499.761 206.216 500.177 206.688 500.721 207.024C501.281 207.36 501.921 207.528 502.641 207.528C503.361 207.528 503.969 207.376 504.465 207.072C504.977 206.768 505.377 206.36 505.665 205.848L508.209 207.096C507.953 207.72 507.553 208.272 507.009 208.752C506.465 209.232 505.817 209.608 505.065 209.88C504.329 210.152 503.513 210.288 502.617 210.288ZM240.416 240.144C238.944 240.144 237.8 239.744 236.984 238.944C236.184 238.128 235.784 236.984 235.784 235.512V229.752H233.528V226.944H233.768C234.408 226.944 234.904 226.776 235.256 226.44C235.608 226.104 235.784 225.616 235.784 224.976V223.968H238.928V226.944H241.928V229.752H238.928V235.344C238.928 235.776 239 236.144 239.144 236.448C239.304 236.752 239.544 236.984 239.864 237.144C240.2 237.304 240.624 237.384 241.136 237.384C241.248 237.384 241.376 237.376 241.52 237.36C241.68 237.344 241.832 237.328 241.976 237.312V240C241.752 240.032 241.496 240.064 241.208 240.096C240.92 240.128 240.656 240.144 240.416 240.144ZM250.453 240.288C249.109 240.288 247.933 239.984 246.925 239.376C245.917 238.768 245.133 237.944 244.573 236.904C244.013 235.864 243.733 234.712 243.733 233.448C243.733 232.136 244.013 230.976 244.573 229.968C245.149 228.944 245.925 228.136 246.901 227.544C247.893 226.952 248.997 226.656 250.213 226.656C251.237 226.656 252.133 226.824 252.901 227.16C253.685 227.496 254.349 227.96 254.893 228.552C255.437 229.144 255.853 229.824 256.141 230.592C256.429 231.344 256.573 232.16 256.573 233.04C256.573 233.264 256.557 233.496 256.525 233.736C256.509 233.976 256.469 234.184 256.405 234.36H246.325V231.96H254.629L253.141 233.088C253.285 232.352 253.245 231.696 253.021 231.12C252.813 230.544 252.461 230.088 251.965 229.752C251.485 229.416 250.901 229.248 250.213 229.248C249.557 229.248 248.973 229.416 248.461 229.752C247.949 230.072 247.557 230.552 247.285 231.192C247.029 231.816 246.933 232.576 246.997 233.472C246.933 234.272 247.037 234.984 247.309 235.608C247.597 236.216 248.013 236.688 248.557 237.024C249.117 237.36 249.757 237.528 250.477 237.528C251.197 237.528 251.805 237.376 252.301 237.072C252.813 236.768 253.213 236.36 253.501 235.848L256.045 237.096C255.789 237.72 255.389 238.272 254.845 238.752C254.301 239.232 253.653 239.608 252.901 239.88C252.165 240.152 251.349 240.288 250.453 240.288ZM258.956 240V221.832H262.1V240H258.956ZM271.195 240.288C269.851 240.288 268.675 239.984 267.667 239.376C266.659 238.768 265.875 237.944 265.315 236.904C264.755 235.864 264.475 234.712 264.475 233.448C264.475 232.136 264.755 230.976 265.315 229.968C265.891 228.944 266.667 228.136 267.643 227.544C268.635 226.952 269.739 226.656 270.955 226.656C271.979 226.656 272.875 226.824 273.643 227.16C274.427 227.496 275.091 227.96 275.635 228.552C276.179 229.144 276.595 229.824 276.883 230.592C277.171 231.344 277.315 232.16 277.315 233.04C277.315 233.264 277.299 233.496 277.267 233.736C277.251 233.976 277.211 234.184 277.147 234.36H267.067V231.96H275.371L273.883 233.088C274.027 232.352 273.987 231.696 273.763 231.12C273.555 230.544 273.203 230.088 272.707 229.752C272.227 229.416 271.643 229.248 270.955 229.248C270.299 229.248 269.715 229.416 269.203 229.752C268.691 230.072 268.299 230.552 268.027 231.192C267.771 231.816 267.675 232.576 267.739 233.472C267.675 234.272 267.779 234.984 268.051 235.608C268.339 236.216 268.755 236.688 269.299 237.024C269.859 237.36 270.499 237.528 271.219 237.528C271.939 237.528 272.547 237.376 273.043 237.072C273.555 236.768 273.955 236.36 274.243 235.848L276.787 237.096C276.531 237.72 276.131 238.272 275.587 238.752C275.043 239.232 274.395 239.608 273.643 239.88C272.907 240.152 272.091 240.288 271.195 240.288ZM281.21 240V229.752H278.906V226.944H281.21V226.512C281.21 225.52 281.41 224.68 281.81 223.992C282.226 223.288 282.802 222.752 283.538 222.384C284.274 222.016 285.146 221.832 286.154 221.832C286.346 221.832 286.554 221.848 286.778 221.88C287.018 221.896 287.218 221.92 287.378 221.952V224.664C287.218 224.632 287.066 224.616 286.922 224.616C286.794 224.6 286.674 224.592 286.562 224.592C285.858 224.592 285.314 224.752 284.93 225.072C284.546 225.376 284.354 225.856 284.354 226.512V226.944H287.258V229.752H284.354V240H281.21ZM295.457 240.288C294.177 240.288 293.009 239.992 291.953 239.4C290.913 238.808 290.081 238 289.457 236.976C288.849 235.952 288.545 234.784 288.545 233.472C288.545 232.16 288.849 230.992 289.457 229.968C290.081 228.944 290.913 228.136 291.953 227.544C292.993 226.952 294.161 226.656 295.457 226.656C296.737 226.656 297.897 226.952 298.937 227.544C299.977 228.136 300.801 228.944 301.409 229.968C302.033 230.976 302.345 232.144 302.345 233.472C302.345 234.784 302.033 235.952 301.409 236.976C300.785 238 299.953 238.808 298.913 239.4C297.873 239.992 296.721 240.288 295.457 240.288ZM295.457 237.408C296.161 237.408 296.777 237.24 297.305 236.904C297.849 236.568 298.273 236.104 298.577 235.512C298.897 234.904 299.057 234.224 299.057 233.472C299.057 232.704 298.897 232.032 298.577 231.456C298.273 230.864 297.849 230.4 297.305 230.064C296.777 229.712 296.161 229.536 295.457 229.536C294.737 229.536 294.105 229.712 293.561 230.064C293.017 230.4 292.585 230.864 292.265 231.456C291.961 232.032 291.809 232.704 291.809 233.472C291.809 234.224 291.961 234.904 292.265 235.512C292.585 236.104 293.017 236.568 293.561 236.904C294.105 237.24 294.737 237.408 295.457 237.408ZM304.73 240V226.944H307.682V229.512L307.442 229.056C307.746 228.272 308.242 227.68 308.93 227.28C309.634 226.864 310.45 226.656 311.378 226.656C312.338 226.656 313.186 226.864 313.922 227.28C314.674 227.696 315.258 228.28 315.674 229.032C316.09 229.768 316.298 230.624 316.298 231.6V240H313.154V232.344C313.154 231.768 313.042 231.272 312.818 230.856C312.594 230.44 312.282 230.12 311.882 229.896C311.498 229.656 311.042 229.536 310.514 229.536C310.002 229.536 309.546 229.656 309.146 229.896C308.746 230.12 308.434 230.44 308.21 230.856C307.986 231.272 307.874 231.768 307.874 232.344V240H304.73ZM325.148 240.288C323.804 240.288 322.628 239.984 321.62 239.376C320.612 238.768 319.828 237.944 319.268 236.904C318.708 235.864 318.428 234.712 318.428 233.448C318.428 232.136 318.708 230.976 319.268 229.968C319.844 228.944 320.62 228.136 321.596 227.544C322.588 226.952 323.692 226.656 324.908 226.656C325.932 226.656 326.828 226.824 327.596 227.16C328.38 227.496 329.044 227.96 329.588 228.552C330.132 229.144 330.548 229.824 330.836 230.592C331.124 231.344 331.268 232.16 331.268 233.04C331.268 233.264 331.252 233.496 331.22 233.736C331.204 233.976 331.164 234.184 331.1 234.36H321.02V231.96H329.324L327.836 233.088C327.98 232.352 327.94 231.696 327.716 231.12C327.508 230.544 327.156 230.088 326.66 229.752C326.18 229.416 325.596 229.248 324.908 229.248C324.252 229.248 323.668 229.416 323.156 229.752C322.644 230.072 322.252 230.552 321.98 231.192C321.724 231.816 321.628 232.576 321.692 233.472C321.628 234.272 321.732 234.984 322.004 235.608C322.292 236.216 322.708 236.688 323.252 237.024C323.812 237.36 324.452 237.528 325.172 237.528C325.892 237.528 326.5 237.376 326.996 237.072C327.508 236.768 327.908 236.36 328.196 235.848L330.74 237.096C330.484 237.72 330.084 238.272 329.54 238.752C328.996 239.232 328.348 239.608 327.596 239.88C326.86 240.152 326.044 240.288 325.148 240.288ZM338.62 240.288C337.228 240.288 336.012 239.96 334.972 239.304C333.948 238.632 333.244 237.728 332.86 236.592L335.212 235.464C335.548 236.2 336.012 236.776 336.604 237.192C337.212 237.608 337.884 237.816 338.62 237.816C339.196 237.816 339.652 237.688 339.988 237.432C340.324 237.176 340.492 236.84 340.492 236.424C340.492 236.168 340.42 235.96 340.276 235.8C340.148 235.624 339.964 235.48 339.724 235.368C339.5 235.24 339.252 235.136 338.98 235.056L336.844 234.456C335.74 234.136 334.9 233.648 334.324 232.992C333.764 232.336 333.484 231.56 333.484 230.664C333.484 229.864 333.684 229.168 334.084 228.576C334.5 227.968 335.068 227.496 335.788 227.16C336.524 226.824 337.364 226.656 338.308 226.656C339.54 226.656 340.628 226.952 341.572 227.544C342.516 228.136 343.188 228.968 343.588 230.04L341.188 231.168C340.964 230.576 340.588 230.104 340.06 229.752C339.532 229.4 338.94 229.224 338.284 229.224C337.756 229.224 337.34 229.344 337.036 229.584C336.732 229.824 336.58 230.136 336.58 230.52C336.58 230.76 336.644 230.968 336.772 231.144C336.9 231.32 337.076 231.464 337.3 231.576C337.54 231.688 337.812 231.792 338.116 231.888L340.204 232.512C341.276 232.832 342.1 233.312 342.676 233.952C343.268 234.592 343.564 235.376 343.564 236.304C343.564 237.088 343.356 237.784 342.94 238.392C342.524 238.984 341.948 239.448 341.212 239.784C340.476 240.12 339.612 240.288 338.62 240.288ZM351.757 240V229.752H349.453V226.944H351.757V226.512C351.757 225.52 351.957 224.68 352.357 223.992C352.773 223.288 353.349 222.752 354.085 222.384C354.821 222.016 355.693 221.832 356.701 221.832C356.893 221.832 357.101 221.848 357.325 221.88C357.565 221.896 357.765 221.92 357.925 221.952V224.664C357.765 224.632 357.613 224.616 357.469 224.616C357.341 224.6 357.221 224.592 357.109 224.592C356.405 224.592 355.861 224.752 355.477 225.072C355.093 225.376 354.901 225.856 354.901 226.512V226.944H360.613V229.752H354.901V240H351.757ZM359.437 240V226.944H362.605V240H359.437ZM364.046 240L368.606 233.448L364.022 226.944H367.718L371.294 232.224H369.638L373.214 226.944H376.886L372.326 233.448L376.862 240H373.19L369.662 234.744H371.27L367.742 240H364.046ZM384.52 240.288C383.24 240.288 382.072 239.992 381.016 239.4C379.976 238.808 379.144 238 378.52 236.976C377.912 235.952 377.608 234.784 377.608 233.472C377.608 232.16 377.912 230.992 378.52 229.968C379.144 228.944 379.976 228.136 381.016 227.544C382.056 226.952 383.224 226.656 384.52 226.656C385.8 226.656 386.96 226.952 388 227.544C389.04 228.136 389.864 228.944 390.472 229.968C391.096 230.976 391.408 232.144 391.408 233.472C391.408 234.784 391.096 235.952 390.472 236.976C389.848 238 389.016 238.808 387.976 239.4C386.936 239.992 385.784 240.288 384.52 240.288ZM384.52 237.408C385.224 237.408 385.84 237.24 386.368 236.904C386.912 236.568 387.336 236.104 387.64 235.512C387.96 234.904 388.12 234.224 388.12 233.472C388.12 232.704 387.96 232.032 387.64 231.456C387.336 230.864 386.912 230.4 386.368 230.064C385.84 229.712 385.224 229.536 384.52 229.536C383.8 229.536 383.168 229.712 382.624 230.064C382.08 230.4 381.648 230.864 381.328 231.456C381.024 232.032 380.872 232.704 380.872 233.472C380.872 234.224 381.024 234.904 381.328 235.512C381.648 236.104 382.08 236.568 382.624 236.904C383.168 237.24 383.8 237.408 384.52 237.408ZM398.76 240.288C397.368 240.288 396.152 239.96 395.112 239.304C394.088 238.632 393.384 237.728 393 236.592L395.352 235.464C395.688 236.2 396.152 236.776 396.744 237.192C397.352 237.608 398.024 237.816 398.76 237.816C399.336 237.816 399.792 237.688 400.128 237.432C400.464 237.176 400.632 236.84 400.632 236.424C400.632 236.168 400.56 235.96 400.416 235.8C400.288 235.624 400.104 235.48 399.864 235.368C399.64 235.24 399.392 235.136 399.12 235.056L396.984 234.456C395.88 234.136 395.04 233.648 394.464 232.992C393.904 232.336 393.624 231.56 393.624 230.664C393.624 229.864 393.824 229.168 394.224 228.576C394.64 227.968 395.208 227.496 395.928 227.16C396.664 226.824 397.504 226.656 398.448 226.656C399.68 226.656 400.768 226.952 401.712 227.544C402.656 228.136 403.328 228.968 403.728 230.04L401.328 231.168C401.104 230.576 400.728 230.104 400.2 229.752C399.672 229.4 399.08 229.224 398.424 229.224C397.896 229.224 397.48 229.344 397.176 229.584C396.872 229.824 396.72 230.136 396.72 230.52C396.72 230.76 396.784 230.968 396.912 231.144C397.04 231.32 397.216 231.464 397.44 231.576C397.68 231.688 397.952 231.792 398.256 231.888L400.344 232.512C401.416 232.832 402.24 233.312 402.816 233.952C403.408 234.592 403.704 235.376 403.704 236.304C403.704 237.088 403.496 237.784 403.08 238.392C402.664 238.984 402.088 239.448 401.352 239.784C400.616 240.12 399.752 240.288 398.76 240.288ZM240.416 270.144C238.944 270.144 237.8 269.744 236.984 268.944C236.184 268.128 235.784 266.984 235.784 265.512V259.752H233.528V256.944H233.768C234.408 256.944 234.904 256.776 235.256 256.44C235.608 256.104 235.784 255.616 235.784 254.976V253.968H238.928V256.944H241.928V259.752H238.928V265.344C238.928 265.776 239 266.144 239.144 266.448C239.304 266.752 239.544 266.984 239.864 267.144C240.2 267.304 240.624 267.384 241.136 267.384C241.248 267.384 241.376 267.376 241.52 267.36C241.68 267.344 241.832 267.328 241.976 267.312V270C241.752 270.032 241.496 270.064 241.208 270.096C240.92 270.128 240.656 270.144 240.416 270.144ZM244.378 270V256.944H247.33V259.848L247.09 259.416C247.394 258.44 247.866 257.76 248.506 257.376C249.162 256.992 249.946 256.8 250.858 256.8H251.626V259.584H250.498C249.602 259.584 248.882 259.864 248.338 260.424C247.794 260.968 247.522 261.736 247.522 262.728V270H244.378ZM257.315 270.288C256.403 270.288 255.611 270.136 254.939 269.832C254.267 269.528 253.747 269.096 253.379 268.536C253.011 267.96 252.827 267.296 252.827 266.544C252.827 265.824 252.987 265.184 253.307 264.624C253.627 264.048 254.123 263.568 254.795 263.184C255.467 262.8 256.315 262.528 257.339 262.368L261.611 261.672V264.072L257.939 264.696C257.315 264.808 256.851 265.008 256.547 265.296C256.243 265.584 256.091 265.96 256.091 266.424C256.091 266.872 256.259 267.232 256.595 267.504C256.947 267.76 257.379 267.888 257.891 267.888C258.547 267.888 259.123 267.752 259.619 267.48C260.131 267.192 260.523 266.8 260.795 266.304C261.083 265.808 261.227 265.264 261.227 264.672V261.312C261.227 260.752 261.003 260.288 260.555 259.92C260.123 259.536 259.547 259.344 258.827 259.344C258.155 259.344 257.555 259.528 257.027 259.896C256.515 260.248 256.139 260.72 255.899 261.312L253.331 260.064C253.587 259.376 253.987 258.784 254.531 258.288C255.091 257.776 255.747 257.376 256.499 257.088C257.251 256.8 258.067 256.656 258.947 256.656C260.019 256.656 260.963 256.856 261.779 257.256C262.595 257.64 263.227 258.184 263.675 258.888C264.139 259.576 264.371 260.384 264.371 261.312V270H261.395V267.768L262.067 267.72C261.731 268.28 261.331 268.752 260.867 269.136C260.403 269.504 259.875 269.792 259.283 270C258.691 270.192 258.035 270.288 257.315 270.288ZM273.349 270.288C272.085 270.288 270.957 269.992 269.965 269.4C268.973 268.792 268.189 267.968 267.613 266.928C267.037 265.888 266.749 264.736 266.749 263.472C266.749 262.192 267.037 261.04 267.613 260.016C268.189 258.992 268.973 258.176 269.965 257.568C270.973 256.96 272.093 256.656 273.325 256.656C274.317 256.656 275.197 256.856 275.965 257.256C276.749 257.64 277.365 258.184 277.812 258.888L277.333 259.536V251.832H280.477V270H277.501V267.48L277.837 268.104C277.389 268.808 276.765 269.352 275.965 269.736C275.165 270.104 274.293 270.288 273.349 270.288ZM273.685 267.408C274.405 267.408 275.037 267.24 275.581 266.904C276.125 266.568 276.549 266.104 276.853 265.512C277.173 264.92 277.333 264.24 277.333 263.472C277.333 262.72 277.173 262.048 276.853 261.456C276.549 260.848 276.125 260.376 275.581 260.04C275.037 259.704 274.405 259.536 273.685 259.536C272.981 259.536 272.349 259.712 271.789 260.064C271.229 260.4 270.789 260.864 270.469 261.456C270.165 262.032 270.013 262.704 270.013 263.472C270.013 264.24 270.165 264.92 270.469 265.512C270.789 266.104 271.229 266.568 271.789 266.904C272.349 267.24 272.981 267.408 273.685 267.408ZM283.402 270V256.944H286.546V270H283.402ZM283.402 255.48V252.12H286.546V255.48H283.402ZM295.736 270.288C294.44 270.288 293.272 269.992 292.232 269.4C291.208 268.792 290.4 267.976 289.808 266.952C289.216 265.912 288.92 264.744 288.92 263.448C288.92 262.152 289.216 260.992 289.808 259.968C290.4 258.944 291.208 258.136 292.232 257.544C293.272 256.952 294.44 256.656 295.736 256.656C296.664 256.656 297.528 256.824 298.328 257.16C299.128 257.48 299.816 257.928 300.392 258.504C300.984 259.064 301.408 259.736 301.664 260.52L298.904 261.72C298.664 261.064 298.256 260.536 297.68 260.136C297.12 259.736 296.472 259.536 295.736 259.536C295.048 259.536 294.432 259.704 293.888 260.04C293.36 260.376 292.944 260.84 292.64 261.432C292.336 262.024 292.184 262.704 292.184 263.472C292.184 264.24 292.336 264.92 292.64 265.512C292.944 266.104 293.36 266.568 293.888 266.904C294.432 267.24 295.048 267.408 295.736 267.408C296.488 267.408 297.144 267.208 297.704 266.808C298.264 266.408 298.664 265.872 298.904 265.2L301.664 266.448C301.408 267.184 300.992 267.848 300.416 268.44C299.84 269.016 299.152 269.472 298.352 269.808C297.552 270.128 296.68 270.288 295.736 270.288ZM304.05 270V256.944H307.194V270H304.05ZM304.05 255.48V252.12H307.194V255.48H304.05ZM316.481 270.288C315.201 270.288 314.033 269.992 312.977 269.4C311.937 268.808 311.105 268 310.481 266.976C309.873 265.952 309.569 264.784 309.569 263.472C309.569 262.16 309.873 260.992 310.481 259.968C311.105 258.944 311.937 258.136 312.977 257.544C314.017 256.952 315.185 256.656 316.481 256.656C317.761 256.656 318.921 256.952 319.961 257.544C321.001 258.136 321.825 258.944 322.433 259.968C323.057 260.976 323.369 262.144 323.369 263.472C323.369 264.784 323.057 265.952 322.433 266.976C321.809 268 320.977 268.808 319.937 269.4C318.897 269.992 317.745 270.288 316.481 270.288ZM316.481 267.408C317.185 267.408 317.801 267.24 318.329 266.904C318.873 266.568 319.297 266.104 319.601 265.512C319.921 264.904 320.081 264.224 320.081 263.472C320.081 262.704 319.921 262.032 319.601 261.456C319.297 260.864 318.873 260.4 318.329 260.064C317.801 259.712 317.185 259.536 316.481 259.536C315.761 259.536 315.129 259.712 314.585 260.064C314.041 260.4 313.609 260.864 313.289 261.456C312.985 262.032 312.833 262.704 312.833 263.472C312.833 264.224 312.985 264.904 313.289 265.512C313.609 266.104 314.041 266.568 314.585 266.904C315.129 267.24 315.761 267.408 316.481 267.408ZM325.753 270V256.944H328.705V259.512L328.465 259.056C328.769 258.272 329.265 257.68 329.953 257.28C330.657 256.864 331.473 256.656 332.401 256.656C333.361 256.656 334.209 256.864 334.945 257.28C335.697 257.696 336.281 258.28 336.697 259.032C337.113 259.768 337.321 260.624 337.321 261.6V270H334.177V262.344C334.177 261.768 334.065 261.272 333.841 260.856C333.617 260.44 333.305 260.12 332.905 259.896C332.521 259.656 332.065 259.536 331.537 259.536C331.025 259.536 330.569 259.656 330.169 259.896C329.769 260.12 329.457 260.44 329.233 260.856C329.009 261.272 328.897 261.768 328.897 262.344V270H325.753ZM343.94 270.288C343.028 270.288 342.236 270.136 341.564 269.832C340.892 269.528 340.372 269.096 340.004 268.536C339.636 267.96 339.452 267.296 339.452 266.544C339.452 265.824 339.612 265.184 339.932 264.624C340.252 264.048 340.748 263.568 341.42 263.184C342.092 262.8 342.94 262.528 343.964 262.368L348.236 261.672V264.072L344.564 264.696C343.94 264.808 343.476 265.008 343.172 265.296C342.868 265.584 342.716 265.96 342.716 266.424C342.716 266.872 342.884 267.232 343.22 267.504C343.572 267.76 344.004 267.888 344.516 267.888C345.172 267.888 345.748 267.752 346.244 267.48C346.756 267.192 347.148 266.8 347.42 266.304C347.708 265.808 347.852 265.264 347.852 264.672V261.312C347.852 260.752 347.628 260.288 347.18 259.92C346.748 259.536 346.172 259.344 345.452 259.344C344.78 259.344 344.18 259.528 343.652 259.896C343.14 260.248 342.764 260.72 342.524 261.312L339.956 260.064C340.212 259.376 340.612 258.784 341.156 258.288C341.716 257.776 342.372 257.376 343.124 257.088C343.876 256.8 344.692 256.656 345.572 256.656C346.644 256.656 347.588 256.856 348.404 257.256C349.22 257.64 349.852 258.184 350.3 258.888C350.764 259.576 350.996 260.384 350.996 261.312V270H348.02V267.768L348.692 267.72C348.356 268.28 347.956 268.752 347.492 269.136C347.028 269.504 346.5 269.792 345.908 270C345.316 270.192 344.66 270.288 343.94 270.288ZM353.902 270V256.944H357.046V270H353.902ZM353.902 255.48V252.12H357.046V255.48H353.902ZM364.916 270.288C363.524 270.288 362.308 269.96 361.268 269.304C360.244 268.632 359.54 267.728 359.156 266.592L361.508 265.464C361.844 266.2 362.308 266.776 362.9 267.192C363.508 267.608 364.18 267.816 364.916 267.816C365.492 267.816 365.948 267.688 366.284 267.432C366.62 267.176 366.788 266.84 366.788 266.424C366.788 266.168 366.716 265.96 366.572 265.8C366.444 265.624 366.26 265.48 366.02 265.368C365.796 265.24 365.548 265.136 365.276 265.056L363.14 264.456C362.036 264.136 361.196 263.648 360.62 262.992C360.06 262.336 359.78 261.56 359.78 260.664C359.78 259.864 359.98 259.168 360.38 258.576C360.796 257.968 361.364 257.496 362.084 257.16C362.82 256.824 363.66 256.656 364.604 256.656C365.836 256.656 366.924 256.952 367.868 257.544C368.812 258.136 369.484 258.968 369.884 260.04L367.484 261.168C367.26 260.576 366.884 260.104 366.356 259.752C365.828 259.4 365.236 259.224 364.58 259.224C364.052 259.224 363.636 259.344 363.332 259.584C363.028 259.824 362.876 260.136 362.876 260.52C362.876 260.76 362.94 260.968 363.068 261.144C363.196 261.32 363.372 261.464 363.596 261.576C363.836 261.688 364.108 261.792 364.412 261.888L366.5 262.512C367.572 262.832 368.396 263.312 368.972 263.952C369.564 264.592 369.86 265.376 369.86 266.304C369.86 267.088 369.652 267.784 369.236 268.392C368.82 268.984 368.244 269.448 367.508 269.784C366.772 270.12 365.908 270.288 364.916 270.288ZM376.542 274.8V256.944H379.494V259.536L379.206 258.888C379.654 258.184 380.262 257.64 381.03 257.256C381.798 256.856 382.686 256.656 383.694 256.656C384.926 256.656 386.038 256.96 387.03 257.568C388.022 258.176 388.806 258.992 389.382 260.016C389.974 261.04 390.27 262.192 390.27 263.472C390.27 264.736 389.982 265.888 389.406 266.928C388.83 267.968 388.046 268.792 387.054 269.4C386.062 269.992 384.934 270.288 383.67 270.288C382.726 270.288 381.854 270.104 381.054 269.736C380.27 269.352 379.646 268.808 379.182 268.104L379.686 267.48V274.8H376.542ZM383.31 267.408C384.03 267.408 384.67 267.24 385.23 266.904C385.79 266.568 386.222 266.104 386.526 265.512C386.846 264.92 387.006 264.24 387.006 263.472C387.006 262.704 386.846 262.032 386.526 261.456C386.222 260.864 385.79 260.4 385.23 260.064C384.67 259.712 384.03 259.536 383.31 259.536C382.622 259.536 381.998 259.704 381.438 260.04C380.894 260.376 380.462 260.848 380.142 261.456C379.838 262.048 379.686 262.72 379.686 263.472C379.686 264.24 379.838 264.92 380.142 265.512C380.462 266.104 380.894 266.568 381.438 266.904C381.998 267.24 382.622 267.408 383.31 267.408ZM396.627 270.288C395.715 270.288 394.923 270.136 394.251 269.832C393.579 269.528 393.059 269.096 392.691 268.536C392.323 267.96 392.139 267.296 392.139 266.544C392.139 265.824 392.299 265.184 392.619 264.624C392.939 264.048 393.435 263.568 394.107 263.184C394.779 262.8 395.627 262.528 396.651 262.368L400.923 261.672V264.072L397.251 264.696C396.627 264.808 396.163 265.008 395.859 265.296C395.555 265.584 395.403 265.96 395.403 266.424C395.403 266.872 395.571 267.232 395.907 267.504C396.259 267.76 396.691 267.888 397.203 267.888C397.859 267.888 398.435 267.752 398.931 267.48C399.443 267.192 399.835 266.8 400.107 266.304C400.395 265.808 400.539 265.264 400.539 264.672V261.312C400.539 260.752 400.315 260.288 399.867 259.92C399.435 259.536 398.859 259.344 398.139 259.344C397.467 259.344 396.867 259.528 396.339 259.896C395.827 260.248 395.451 260.72 395.211 261.312L392.643 260.064C392.899 259.376 393.299 258.784 393.843 258.288C394.403 257.776 395.059 257.376 395.811 257.088C396.563 256.8 397.379 256.656 398.259 256.656C399.331 256.656 400.275 256.856 401.091 257.256C401.907 257.64 402.539 258.184 402.987 258.888C403.451 259.576 403.683 260.384 403.683 261.312V270H400.707V267.768L401.379 267.72C401.043 268.28 400.643 268.752 400.179 269.136C399.715 269.504 399.187 269.792 398.595 270C398.003 270.192 397.347 270.288 396.627 270.288ZM406.589 270V256.944H409.541V259.848L409.301 259.416C409.605 258.44 410.077 257.76 410.717 257.376C411.373 256.992 412.157 256.8 413.069 256.8H413.837V259.584H412.709C411.813 259.584 411.093 259.864 410.549 260.424C410.005 260.968 409.733 261.736 409.733 262.728V270H406.589ZM419.526 270.288C418.614 270.288 417.822 270.136 417.15 269.832C416.478 269.528 415.958 269.096 415.59 268.536C415.222 267.96 415.038 267.296 415.038 266.544C415.038 265.824 415.198 265.184 415.518 264.624C415.838 264.048 416.334 263.568 417.006 263.184C417.678 262.8 418.526 262.528 419.55 262.368L423.822 261.672V264.072L420.15 264.696C419.526 264.808 419.062 265.008 418.758 265.296C418.454 265.584 418.302 265.96 418.302 266.424C418.302 266.872 418.47 267.232 418.806 267.504C419.158 267.76 419.59 267.888 420.102 267.888C420.758 267.888 421.334 267.752 421.83 267.48C422.342 267.192 422.734 266.8 423.006 266.304C423.294 265.808 423.438 265.264 423.438 264.672V261.312C423.438 260.752 423.214 260.288 422.766 259.92C422.334 259.536 421.758 259.344 421.038 259.344C420.366 259.344 419.766 259.528 419.238 259.896C418.726 260.248 418.35 260.72 418.11 261.312L415.542 260.064C415.798 259.376 416.198 258.784 416.742 258.288C417.302 257.776 417.958 257.376 418.71 257.088C419.462 256.8 420.278 256.656 421.158 256.656C422.23 256.656 423.174 256.856 423.99 257.256C424.806 257.64 425.438 258.184 425.886 258.888C426.35 259.576 426.582 260.384 426.582 261.312V270H423.606V267.768L424.278 267.72C423.942 268.28 423.542 268.752 423.078 269.136C422.614 269.504 422.086 269.792 421.494 270C420.902 270.192 420.246 270.288 419.526 270.288ZM433.753 270V256.944H436.705V259.848L436.465 259.416C436.769 258.44 437.241 257.76 437.881 257.376C438.537 256.992 439.321 256.8 440.233 256.8H441.001V259.584H439.873C438.977 259.584 438.257 259.864 437.713 260.424C437.169 260.968 436.897 261.736 436.897 262.728V270H433.753ZM448.922 270.288C447.578 270.288 446.402 269.984 445.394 269.376C444.386 268.768 443.602 267.944 443.042 266.904C442.482 265.864 442.202 264.712 442.202 263.448C442.202 262.136 442.482 260.976 443.042 259.968C443.618 258.944 444.394 258.136 445.37 257.544C446.362 256.952 447.466 256.656 448.682 256.656C449.706 256.656 450.602 256.824 451.37 257.16C452.154 257.496 452.818 257.96 453.362 258.552C453.906 259.144 454.322 259.824 454.61 260.592C454.898 261.344 455.042 262.16 455.042 263.04C455.042 263.264 455.026 263.496 454.994 263.736C454.978 263.976 454.938 264.184 454.874 264.36H444.794V261.96H453.098L451.61 263.088C451.754 262.352 451.714 261.696 451.49 261.12C451.282 260.544 450.93 260.088 450.434 259.752C449.954 259.416 449.37 259.248 448.682 259.248C448.026 259.248 447.442 259.416 446.93 259.752C446.418 260.072 446.026 260.552 445.754 261.192C445.498 261.816 445.402 262.576 445.466 263.472C445.402 264.272 445.506 264.984 445.778 265.608C446.066 266.216 446.482 266.688 447.026 267.024C447.586 267.36 448.226 267.528 448.946 267.528C449.666 267.528 450.274 267.376 450.77 267.072C451.282 266.768 451.682 266.36 451.97 265.848L454.514 267.096C454.258 267.72 453.858 268.272 453.314 268.752C452.77 269.232 452.122 269.608 451.37 269.88C450.634 270.152 449.818 270.288 448.922 270.288ZM463.713 270.288C462.417 270.288 461.249 269.992 460.209 269.4C459.185 268.792 458.377 267.976 457.785 266.952C457.193 265.912 456.897 264.744 456.897 263.448C456.897 262.152 457.193 260.992 457.785 259.968C458.377 258.944 459.185 258.136 460.209 257.544C461.249 256.952 462.417 256.656 463.713 256.656C464.641 256.656 465.505 256.824 466.305 257.16C467.105 257.48 467.793 257.928 468.369 258.504C468.961 259.064 469.385 259.736 469.641 260.52L466.881 261.72C466.641 261.064 466.233 260.536 465.657 260.136C465.097 259.736 464.449 259.536 463.713 259.536C463.025 259.536 462.409 259.704 461.865 260.04C461.337 260.376 460.921 260.84 460.617 261.432C460.313 262.024 460.161 262.704 460.161 263.472C460.161 264.24 460.313 264.92 460.617 265.512C460.921 266.104 461.337 266.568 461.865 266.904C462.409 267.24 463.025 267.408 463.713 267.408C464.465 267.408 465.121 267.208 465.681 266.808C466.241 266.408 466.641 265.872 466.881 265.2L469.641 266.448C469.385 267.184 468.969 267.848 468.393 268.44C467.817 269.016 467.129 269.472 466.329 269.808C465.529 270.128 464.657 270.288 463.713 270.288ZM478.219 270.288C476.875 270.288 475.699 269.984 474.691 269.376C473.683 268.768 472.899 267.944 472.339 266.904C471.779 265.864 471.499 264.712 471.499 263.448C471.499 262.136 471.779 260.976 472.339 259.968C472.915 258.944 473.691 258.136 474.667 257.544C475.659 256.952 476.763 256.656 477.979 256.656C479.003 256.656 479.899 256.824 480.667 257.16C481.451 257.496 482.115 257.96 482.659 258.552C483.203 259.144 483.619 259.824 483.907 260.592C484.195 261.344 484.339 262.16 484.339 263.04C484.339 263.264 484.323 263.496 484.291 263.736C484.275 263.976 484.235 264.184 484.171 264.36H474.09V261.96H482.395L480.907 263.088C481.051 262.352 481.011 261.696 480.787 261.12C480.579 260.544 480.227 260.088 479.731 259.752C479.251 259.416 478.667 259.248 477.979 259.248C477.323 259.248 476.739 259.416 476.227 259.752C475.715 260.072 475.323 260.552 475.051 261.192C474.795 261.816 474.699 262.576 474.763 263.472C474.699 264.272 474.803 264.984 475.075 265.608C475.363 266.216 475.779 266.688 476.323 267.024C476.883 267.36 477.523 267.528 478.243 267.528C478.963 267.528 479.571 267.376 480.067 267.072C480.579 266.768 480.979 266.36 481.267 265.848L483.811 267.096C483.555 267.72 483.155 268.272 482.611 268.752C482.067 269.232 481.419 269.608 480.667 269.88C479.931 270.152 479.115 270.288 478.219 270.288ZM493.85 270.288C492.906 270.288 492.034 270.104 491.234 269.736C490.45 269.352 489.826 268.808 489.362 268.104L489.674 267.48V270H486.722V251.832H489.866V259.536L489.386 258.888C489.834 258.184 490.442 257.64 491.21 257.256C491.978 256.856 492.866 256.656 493.874 256.656C495.106 256.656 496.218 256.96 497.21 257.568C498.202 258.176 498.986 258.992 499.562 260.016C500.154 261.04 500.45 262.192 500.45 263.472C500.45 264.736 500.162 265.888 499.586 266.928C499.01 267.968 498.226 268.792 497.234 269.4C496.242 269.992 495.114 270.288 493.85 270.288ZM493.49 267.408C494.21 267.408 494.85 267.24 495.41 266.904C495.97 266.568 496.402 266.104 496.706 265.512C497.026 264.92 497.186 264.24 497.186 263.472C497.186 262.704 497.026 262.032 496.706 261.456C496.402 260.864 495.97 260.4 495.41 260.064C494.85 259.712 494.21 259.536 493.49 259.536C492.802 259.536 492.178 259.704 491.618 260.04C491.074 260.376 490.642 260.848 490.322 261.456C490.018 262.048 489.866 262.72 489.866 263.472C489.866 264.24 490.018 264.92 490.322 265.512C490.642 266.104 491.074 266.568 491.618 266.904C492.178 267.24 492.802 267.408 493.49 267.408ZM509.039 270.288C507.695 270.288 506.519 269.984 505.511 269.376C504.503 268.768 503.719 267.944 503.159 266.904C502.599 265.864 502.319 264.712 502.319 263.448C502.319 262.136 502.599 260.976 503.159 259.968C503.735 258.944 504.511 258.136 505.487 257.544C506.479 256.952 507.583 256.656 508.799 256.656C509.823 256.656 510.719 256.824 511.487 257.16C512.271 257.496 512.935 257.96 513.479 258.552C514.023 259.144 514.439 259.824 514.727 260.592C515.015 261.344 515.159 262.16 515.159 263.04C515.159 263.264 515.143 263.496 515.111 263.736C515.095 263.976 515.055 264.184 514.991 264.36H504.911V261.96H513.215L511.727 263.088C511.871 262.352 511.831 261.696 511.607 261.12C511.399 260.544 511.047 260.088 510.551 259.752C510.071 259.416 509.487 259.248 508.799 259.248C508.143 259.248 507.559 259.416 507.047 259.752C506.535 260.072 506.143 260.552 505.871 261.192C505.615 261.816 505.519 262.576 505.583 263.472C505.519 264.272 505.623 264.984 505.895 265.608C506.183 266.216 506.599 266.688 507.143 267.024C507.703 267.36 508.343 267.528 509.063 267.528C509.783 267.528 510.391 267.376 510.887 267.072C511.399 266.768 511.799 266.36 512.087 265.848L514.631 267.096C514.375 267.72 513.975 268.272 513.431 268.752C512.887 269.232 512.239 269.608 511.487 269.88C510.751 270.152 509.935 270.288 509.039 270.288ZM517.542 270V256.944H520.494V259.848L520.254 259.416C520.558 258.44 521.03 257.76 521.67 257.376C522.326 256.992 523.11 256.8 524.022 256.8H524.79V259.584H523.662C522.766 259.584 522.046 259.864 521.502 260.424C520.958 260.968 520.686 261.736 520.686 262.728V270H517.542ZM240.752 300.288C239.456 300.288 238.288 299.992 237.248 299.4C236.224 298.792 235.416 297.976 234.824 296.952C234.232 295.912 233.936 294.744 233.936 293.448C233.936 292.152 234.232 290.992 234.824 289.968C235.416 288.944 236.224 288.136 237.248 287.544C238.288 286.952 239.456 286.656 240.752 286.656C241.68 286.656 242.544 286.824 243.344 287.16C244.144 287.48 244.832 287.928 245.408 288.504C246 289.064 246.424 289.736 246.68 290.52L243.92 291.72C243.68 291.064 243.272 290.536 242.696 290.136C242.136 289.736 241.488 289.536 240.752 289.536C240.064 289.536 239.448 289.704 238.904 290.04C238.376 290.376 237.96 290.84 237.656 291.432C237.352 292.024 237.2 292.704 237.2 293.472C237.2 294.24 237.352 294.92 237.656 295.512C237.96 296.104 238.376 296.568 238.904 296.904C239.448 297.24 240.064 297.408 240.752 297.408C241.504 297.408 242.16 297.208 242.72 296.808C243.28 296.408 243.68 295.872 243.92 295.2L246.68 296.448C246.424 297.184 246.008 297.848 245.432 298.44C244.856 299.016 244.168 299.472 243.368 299.808C242.568 300.128 241.696 300.288 240.752 300.288ZM249.066 300V281.832H252.21V289.512L251.778 289.056C252.082 288.272 252.578 287.68 253.266 287.28C253.97 286.864 254.786 286.656 255.714 286.656C256.674 286.656 257.522 286.864 258.258 287.28C259.01 287.696 259.594 288.28 260.01 289.032C260.426 289.768 260.634 290.624 260.634 291.6V300H257.49V292.344C257.49 291.768 257.378 291.272 257.154 290.856C256.93 290.44 256.618 290.12 256.218 289.896C255.834 289.656 255.378 289.536 254.85 289.536C254.338 289.536 253.882 289.656 253.482 289.896C253.082 290.12 252.77 290.44 252.546 290.856C252.322 291.272 252.21 291.768 252.21 292.344V300H249.066ZM267.252 300.288C266.34 300.288 265.548 300.136 264.876 299.832C264.204 299.528 263.684 299.096 263.316 298.536C262.948 297.96 262.764 297.296 262.764 296.544C262.764 295.824 262.924 295.184 263.244 294.624C263.564 294.048 264.06 293.568 264.732 293.184C265.404 292.8 266.252 292.528 267.276 292.368L271.548 291.672V294.072L267.876 294.696C267.252 294.808 266.788 295.008 266.484 295.296C266.18 295.584 266.028 295.96 266.028 296.424C266.028 296.872 266.196 297.232 266.532 297.504C266.884 297.76 267.316 297.888 267.828 297.888C268.484 297.888 269.06 297.752 269.556 297.48C270.068 297.192 270.46 296.8 270.732 296.304C271.02 295.808 271.164 295.264 271.164 294.672V291.312C271.164 290.752 270.94 290.288 270.492 289.92C270.06 289.536 269.484 289.344 268.764 289.344C268.092 289.344 267.492 289.528 266.964 289.896C266.452 290.248 266.076 290.72 265.836 291.312L263.268 290.064C263.524 289.376 263.924 288.784 264.468 288.288C265.028 287.776 265.684 287.376 266.436 287.088C267.188 286.8 268.004 286.656 268.884 286.656C269.956 286.656 270.9 286.856 271.716 287.256C272.532 287.64 273.164 288.184 273.612 288.888C274.076 289.576 274.308 290.384 274.308 291.312V300H271.332V297.768L272.004 297.72C271.668 298.28 271.268 298.752 270.804 299.136C270.34 299.504 269.812 299.792 269.22 300C268.628 300.192 267.972 300.288 267.252 300.288ZM277.214 300V286.944H280.166V289.968L279.83 289.464C280.07 288.52 280.55 287.816 281.27 287.352C281.99 286.888 282.838 286.656 283.814 286.656C284.886 286.656 285.83 286.936 286.646 287.496C287.462 288.056 287.99 288.792 288.23 289.704L287.342 289.776C287.742 288.736 288.342 287.96 289.142 287.448C289.942 286.92 290.862 286.656 291.902 286.656C292.83 286.656 293.654 286.864 294.374 287.28C295.11 287.696 295.686 288.28 296.102 289.032C296.518 289.768 296.726 290.624 296.726 291.6V300H293.582V292.344C293.582 291.768 293.478 291.272 293.27 290.856C293.062 290.44 292.774 290.12 292.406 289.896C292.038 289.656 291.59 289.536 291.062 289.536C290.566 289.536 290.126 289.656 289.742 289.896C289.358 290.12 289.062 290.44 288.854 290.856C288.646 291.272 288.542 291.768 288.542 292.344V300H285.398V292.344C285.398 291.768 285.294 291.272 285.086 290.856C284.878 290.44 284.582 290.12 284.198 289.896C283.83 289.656 283.39 289.536 282.878 289.536C282.382 289.536 281.942 289.656 281.558 289.896C281.174 290.12 280.878 290.44 280.67 290.856C280.462 291.272 280.358 291.768 280.358 292.344V300H277.214ZM303.346 300.288C302.434 300.288 301.642 300.136 300.97 299.832C300.298 299.528 299.778 299.096 299.41 298.536C299.042 297.96 298.858 297.296 298.858 296.544C298.858 295.824 299.018 295.184 299.338 294.624C299.658 294.048 300.154 293.568 300.826 293.184C301.498 292.8 302.346 292.528 303.37 292.368L307.642 291.672V294.072L303.97 294.696C303.346 294.808 302.882 295.008 302.578 295.296C302.274 295.584 302.122 295.96 302.122 296.424C302.122 296.872 302.29 297.232 302.626 297.504C302.978 297.76 303.41 297.888 303.922 297.888C304.578 297.888 305.154 297.752 305.65 297.48C306.162 297.192 306.554 296.8 306.826 296.304C307.114 295.808 307.258 295.264 307.258 294.672V291.312C307.258 290.752 307.034 290.288 306.586 289.92C306.154 289.536 305.578 289.344 304.858 289.344C304.186 289.344 303.586 289.528 303.058 289.896C302.546 290.248 302.17 290.72 301.93 291.312L299.362 290.064C299.618 289.376 300.018 288.784 300.562 288.288C301.122 287.776 301.778 287.376 302.53 287.088C303.282 286.8 304.098 286.656 304.978 286.656C306.05 286.656 306.994 286.856 307.81 287.256C308.626 287.64 309.258 288.184 309.706 288.888C310.17 289.576 310.402 290.384 310.402 291.312V300H307.426V297.768L308.098 297.72C307.762 298.28 307.362 298.752 306.898 299.136C306.434 299.504 305.906 299.792 305.314 300C304.722 300.192 304.066 300.288 303.346 300.288ZM319.38 300.288C318.116 300.288 316.988 299.992 315.996 299.4C315.004 298.792 314.22 297.968 313.644 296.928C313.068 295.888 312.78 294.736 312.78 293.472C312.78 292.192 313.068 291.04 313.644 290.016C314.22 288.992 315.004 288.176 315.996 287.568C317.004 286.96 318.124 286.656 319.356 286.656C320.348 286.656 321.228 286.856 321.996 287.256C322.78 287.64 323.396 288.184 323.844 288.888L323.364 289.536V281.832H326.508V300H323.532V297.48L323.868 298.104C323.42 298.808 322.796 299.352 321.996 299.736C321.196 300.104 320.324 300.288 319.38 300.288ZM319.716 297.408C320.436 297.408 321.068 297.24 321.612 296.904C322.156 296.568 322.58 296.104 322.884 295.512C323.204 294.92 323.364 294.24 323.364 293.472C323.364 292.72 323.204 292.048 322.884 291.456C322.58 290.848 322.156 290.376 321.612 290.04C321.068 289.704 320.436 289.536 319.716 289.536C319.012 289.536 318.38 289.712 317.82 290.064C317.26 290.4 316.82 290.864 316.5 291.456C316.196 292.032 316.044 292.704 316.044 293.472C316.044 294.24 316.196 294.92 316.5 295.512C316.82 296.104 317.26 296.568 317.82 296.904C318.38 297.24 319.012 297.408 319.716 297.408ZM333.393 300.288C332.481 300.288 331.689 300.136 331.017 299.832C330.345 299.528 329.825 299.096 329.457 298.536C329.089 297.96 328.905 297.296 328.905 296.544C328.905 295.824 329.065 295.184 329.385 294.624C329.705 294.048 330.201 293.568 330.873 293.184C331.545 292.8 332.393 292.528 333.417 292.368L337.689 291.672V294.072L334.017 294.696C333.393 294.808 332.929 295.008 332.625 295.296C332.321 295.584 332.169 295.96 332.169 296.424C332.169 296.872 332.337 297.232 332.673 297.504C333.025 297.76 333.457 297.888 333.969 297.888C334.625 297.888 335.201 297.752 335.697 297.48C336.209 297.192 336.601 296.8 336.873 296.304C337.161 295.808 337.305 295.264 337.305 294.672V291.312C337.305 290.752 337.081 290.288 336.633 289.92C336.201 289.536 335.625 289.344 334.905 289.344C334.233 289.344 333.633 289.528 333.105 289.896C332.593 290.248 332.217 290.72 331.977 291.312L329.409 290.064C329.665 289.376 330.065 288.784 330.609 288.288C331.169 287.776 331.825 287.376 332.577 287.088C333.329 286.8 334.145 286.656 335.025 286.656C336.097 286.656 337.041 286.856 337.857 287.256C338.673 287.64 339.305 288.184 339.753 288.888C340.217 289.576 340.449 290.384 340.449 291.312V300H337.473V297.768L338.145 297.72C337.809 298.28 337.409 298.752 336.945 299.136C336.481 299.504 335.953 299.792 335.361 300C334.769 300.192 334.113 300.288 333.393 300.288ZM348.323 300.288C346.931 300.288 345.715 299.96 344.675 299.304C343.651 298.632 342.947 297.728 342.563 296.592L344.915 295.464C345.251 296.2 345.715 296.776 346.307 297.192C346.915 297.608 347.587 297.816 348.323 297.816C348.899 297.816 349.355 297.688 349.691 297.432C350.027 297.176 350.195 296.84 350.195 296.424C350.195 296.168 350.123 295.96 349.979 295.8C349.851 295.624 349.667 295.48 349.427 295.368C349.203 295.24 348.955 295.136 348.683 295.056L346.547 294.456C345.443 294.136 344.603 293.648 344.027 292.992C343.467 292.336 343.187 291.56 343.187 290.664C343.187 289.864 343.387 289.168 343.787 288.576C344.203 287.968 344.771 287.496 345.491 287.16C346.227 286.824 347.067 286.656 348.011 286.656C349.243 286.656 350.331 286.952 351.275 287.544C352.219 288.136 352.891 288.968 353.291 290.04L350.891 291.168C350.667 290.576 350.291 290.104 349.763 289.752C349.235 289.4 348.643 289.224 347.987 289.224C347.459 289.224 347.043 289.344 346.739 289.584C346.435 289.824 346.283 290.136 346.283 290.52C346.283 290.76 346.347 290.968 346.475 291.144C346.603 291.32 346.779 291.464 347.003 291.576C347.243 291.688 347.515 291.792 347.819 291.888L349.907 292.512C350.979 292.832 351.803 293.312 352.379 293.952C352.971 294.592 353.267 295.376 353.267 296.304C353.267 297.088 353.059 297.784 352.643 298.392C352.227 298.984 351.651 299.448 350.915 299.784C350.179 300.12 349.315 300.288 348.323 300.288Z" fill="#24B3B3"/>
<path d="M253.001 148.333C243.801 148.333 236.334 155.8 236.334 165C236.334 174.2 243.801 181.667 253.001 181.667C262.201 181.667 269.667 174.2 269.667 165C269.667 155.8 262.201 148.333 253.001 148.333ZM253.001 178.333C245.651 178.333 239.667 172.35 239.667 165C239.667 157.65 245.651 151.667 253.001 151.667C260.351 151.667 266.334 157.65 266.334 165C266.334 172.35 260.351 178.333 253.001 178.333ZM253.517 163.567C250.567 162.817 249.617 162 249.617 160.783C249.617 159.383 250.934 158.4 253.117 158.4C255.417 158.4 256.284 159.5 256.351 161.133H259.201C259.117 158.9 257.751 156.85 255.051 156.183V153.333H251.167V156.15C248.651 156.683 246.634 158.317 246.634 160.833C246.634 163.817 249.117 165.317 252.734 166.183C255.984 166.95 256.634 168.1 256.634 169.3C256.634 170.183 255.984 171.617 253.134 171.617C250.467 171.617 249.417 170.417 249.267 168.883H246.401C246.567 171.717 248.667 173.317 251.167 173.833V176.667H255.067V173.883C257.601 173.4 259.601 171.95 259.617 169.267C259.601 165.6 256.451 164.333 253.517 163.567Z" fill="#24B3B3"/>
</svg>
