<svg width="267" height="80" viewBox="0 0 267 80" fill="none" xmlns="http://www.w3.org/2000/svg">
<g clip-path="url(#clip0_9448_8503)">
<path d="M38.448 30.1333C38.448 34.6667 34.71 38.4 30.171 38.4C25.632 38.4 21.894 34.6667 21.894 30.1333C21.894 25.6 25.632 21.8667 30.171 21.8667C34.71 21.8667 38.448 25.6 38.448 30.1333ZM30.171 41.6C25.632 41.6 21.894 45.3333 21.894 49.8667C21.894 54.4 25.632 58.1333 30.171 58.1333C34.71 58.1333 38.448 54.4 38.448 49.8667C38.448 45.3333 34.71 41.6 30.171 41.6ZM80.1 40C80.1 62.1333 62.211 80 40.05 80C17.889 80 0 62.1333 0 40C0 17.8667 17.889 0 40.05 0C62.211 0 80.1 17.8667 80.1 40ZM69.42 40C69.42 23.7333 56.337 10.6667 40.05 10.6667C23.763 10.6667 10.68 23.7333 10.68 40C10.68 56.2667 23.763 69.3333 40.05 69.3333C56.337 69.3333 69.42 56.2667 69.42 40ZM49.929 41.6C45.39 41.6 41.652 45.3333 41.652 49.8667C41.652 54.4 45.39 58.1333 49.929 58.1333C54.468 58.1333 58.206 54.4 58.206 49.8667C58.206 45.3333 54.468 41.6 49.929 41.6ZM49.929 21.8667C45.39 21.8667 41.652 25.6 41.652 30.1333C41.652 34.6667 45.39 38.4 49.929 38.4C54.468 38.4 58.206 34.6667 58.206 30.1333C58.206 25.6 54.468 21.8667 49.929 21.8667ZM187.701 15.7333C187.968 15.7333 188.235 16 188.502 16.2667V24.8C188.502 25.3333 187.968 25.6 187.701 25.6H173.55C173.016 25.6 172.749 25.0667 172.749 24.8V16.5333C172.749 16 173.283 15.7333 173.55 15.7333H187.701ZM187.434 27.7333H160.2C159.933 27.7333 159.399 28 159.399 28.5333L155.928 41.8667L155.661 42.6667L151.389 28.5333C151.389 28.2667 150.855 27.7333 150.588 27.7333H139.908C139.641 27.7333 139.107 28 139.107 28.5333L135.102 41.8667L134.835 42.6667L134.568 41.8667L132.966 35.2L131.364 28.5333C131.364 28.2667 130.83 27.7333 130.563 27.7333H109.203V16.2667C109.203 16 108.669 15.4667 108.135 15.7333L94.785 20C94.251 20 93.984 20.2667 93.984 20.8V28H90.513C90.246 28 89.712 28.2667 89.712 28.8V38.9333C89.712 39.2 89.979 39.7333 90.513 39.7333H93.984V52.2667C93.984 61.0667 98.79 65.0667 107.601 65.0667C111.339 65.0667 114.81 64.2667 117.213 62.9333V52.2667C117.213 51.7333 116.679 51.4667 116.412 51.7333C115.077 52.2667 113.742 52.5333 112.674 52.5333C110.271 52.5333 108.936 51.4667 108.936 48.8V39.7333H116.679C116.946 39.7333 117.48 39.4667 117.48 38.9333V30.4L127.626 64C127.626 64.2667 128.16 64.8 128.427 64.8H139.641C139.908 64.8 140.442 64.5333 140.442 64L145.248 49.0667L147.651 56.8L149.787 64C149.787 64.2667 150.321 64.8 150.588 64.8H161.802C162.069 64.8 162.603 64.5333 162.603 64L172.749 30.4V64C172.749 64.2667 173.016 64.8 173.55 64.8H187.167C187.434 64.8 187.968 64.5333 187.968 64V28.5333C187.968 28.2667 187.701 27.7333 187.434 27.7333ZM205.323 15.7333H191.706C191.439 15.7333 190.905 16 190.905 16.5333V63.7333C190.905 64 191.172 64.5333 191.706 64.5333H205.323C205.59 64.5333 206.124 64.2667 206.124 63.7333V16.2667C206.124 16 205.857 15.7333 205.323 15.7333ZM223.479 15.7333H209.328C209.061 15.7333 208.527 16 208.527 16.5333V24.8C208.527 25.0667 208.794 25.6 209.328 25.6H223.479C223.746 25.6 224.28 25.3333 224.28 24.8V16.2667C224.28 16 224.013 15.7333 223.479 15.7333ZM223.212 27.7333H209.595C209.328 27.7333 208.794 28 208.794 28.5333V63.4667C208.794 63.7333 209.061 64.2667 209.595 64.2667H223.212C223.479 64.2667 224.013 64 224.013 63.4667V28.5333C224.013 28.2667 223.746 27.7333 223.212 27.7333ZM266.199 45.8667C266.199 56 257.655 64.8 245.64 64.8C233.892 64.8 225.348 56 225.348 45.8667C225.348 35.7333 233.892 26.9333 245.907 26.9333C257.655 26.9333 266.199 35.7333 266.199 45.8667ZM251.781 46.1333C251.781 42.4 249.111 39.4667 245.907 39.7333C242.436 39.7333 240.033 42.6667 240.033 46.1333C240.033 49.6 242.703 52.5333 245.907 52.5333C249.378 52.5333 251.781 49.6 251.781 46.1333Z" fill="#F22F46"/>
</g>
<defs>
<clipPath id="clip0_9448_8503">
<rect width="266.199" height="80" fill="white"/>
</clipPath>
</defs>
</svg>
