         <svg
             width="20"
             height="20"
             viewBox="0 0 20 20"
             fill="none"
             xmlns="http://www.w3.org/2000/svg"
             style="display: block"
         >
             <path
                 d="M0.004 20L1.356 15.032C0.465 13.505 -0.003 11.768 0 10C0 4.477 4.477 0 10 0C15.523 0 20 4.477 20 10C20 15.523 15.523 20 10 20C8.233 20.003 6.497 19.535 4.97 18.645L0.004 20ZM6.391 5.308C6.262 5.316 6.136 5.35 6.02 5.408C5.912 5.469 5.813 5.546 5.726 5.636C5.606 5.749 5.538 5.847 5.465 5.942C5.095 6.423 4.897 7.013 4.9 7.62C4.902 8.11 5.03 8.587 5.23 9.033C5.639 9.935 6.312 10.89 7.201 11.775C7.415 11.988 7.624 12.202 7.849 12.401C8.952 13.373 10.267 14.073 11.689 14.447L12.258 14.534C12.443 14.544 12.628 14.53 12.814 14.521C13.105 14.506 13.39 14.427 13.647 14.29C13.813 14.202 13.891 14.158 14.03 14.07C14.03 14.07 14.073 14.042 14.155 13.98C14.29 13.88 14.373 13.809 14.485 13.692C14.568 13.606 14.64 13.505 14.695 13.39C14.773 13.227 14.851 12.916 14.883 12.657C14.907 12.459 14.9 12.351 14.897 12.284C14.893 12.177 14.804 12.066 14.707 12.019L14.125 11.758C14.125 11.758 13.255 11.379 12.724 11.137C12.668 11.113 12.608 11.099 12.547 11.096C12.479 11.089 12.41 11.097 12.344 11.119C12.279 11.141 12.219 11.176 12.169 11.223V11.221C12.164 11.221 12.097 11.278 11.374 12.154C11.333 12.21 11.275 12.252 11.21 12.275C11.144 12.298 11.073 12.301 11.006 12.284C10.941 12.267 10.877 12.245 10.815 12.218C10.691 12.166 10.648 12.146 10.563 12.109L10.558 12.107C9.986 11.857 9.456 11.52 8.988 11.107C8.862 10.997 8.745 10.877 8.625 10.761C8.232 10.384 7.889 9.958 7.605 9.493L7.546 9.398C7.504 9.334 7.469 9.265 7.444 9.193C7.406 9.046 7.505 8.928 7.505 8.928C7.505 8.928 7.748 8.662 7.861 8.518C7.955 8.398 8.043 8.274 8.124 8.145C8.242 7.955 8.279 7.76 8.217 7.609C7.937 6.925 7.647 6.244 7.349 5.568C7.29 5.434 7.115 5.338 6.956 5.319C6.902 5.313 6.848 5.307 6.794 5.303C6.66 5.296 6.525 5.299 6.391 5.308Z"
                 fill="white"
             />
         </svg>