<svg width="600" height="450" viewBox="0 0 600 450" fill="none" xmlns="http://www.w3.org/2000/svg">
<path d="M549.333 164C549.333 160.333 546.333 157.333 542.667 157.333H489.333C485.667 157.333 482.667 160.333 482.667 164V204C482.667 207.667 485.667 210.667 489.333 210.667H542.667C546.333 210.667 549.333 207.667 549.333 204V164ZM542.667 164L516 180.633L489.333 164H542.667ZM542.667 204H489.333V170.667L516 187.333L542.667 170.667V204Z" fill="#DBEAF6"/>
<g filter="url(#filter0_d_6432_13786)">
<rect x="375" y="195" width="153.539" height="68.5385" rx="34.2693" fill="#F9EAE5" shape-rendering="crispEdges"/>
<path d="M402.045 221.875C402.045 220.073 403.408 218.613 405.09 218.613H429.449C431.13 218.613 432.494 220.073 432.494 221.875V238.187C432.494 239.989 431.13 241.449 429.449 241.449H405.09C403.408 241.449 402.045 239.989 402.045 238.187V221.875Z" fill="#8C2E0E"/>
<path d="M402.045 220.362C402.045 218.554 403.309 217.089 404.868 217.089H429.671C431.23 217.089 432.494 218.554 432.494 220.362C432.494 221.601 431.89 222.734 430.933 223.288L418.631 230.419C417.774 230.916 416.765 230.916 415.908 230.419L403.605 223.288C402.649 222.734 402.045 221.601 402.045 220.362Z" fill="#CC5229"/>
<path d="M445.137 236.269V221.724H454.256V223.613H447.331V228.045H453.78V229.927H447.331V234.38H454.341V236.269H445.137ZM463.444 229.202V231.042H456.996V229.202H463.444ZM466.275 236.269V225.36H468.313V227.136H468.448C468.675 226.534 469.047 226.065 469.563 225.729C470.079 225.388 470.697 225.218 471.417 225.218C472.146 225.218 472.757 225.388 473.249 225.729C473.746 226.07 474.113 226.539 474.35 227.136H474.464C474.724 226.553 475.138 226.089 475.707 225.743C476.275 225.393 476.952 225.218 477.738 225.218C478.727 225.218 479.535 225.528 480.16 226.148C480.789 226.769 481.104 227.704 481.104 228.954V236.269H478.981V229.153C478.981 228.414 478.779 227.879 478.377 227.547C477.975 227.216 477.494 227.05 476.935 227.05C476.244 227.05 475.707 227.263 475.323 227.689C474.939 228.111 474.748 228.653 474.748 229.316V236.269H472.631V229.018C472.631 228.426 472.447 227.95 472.077 227.59C471.708 227.23 471.227 227.05 470.636 227.05C470.233 227.05 469.861 227.157 469.52 227.37C469.184 227.578 468.912 227.869 468.704 228.243C468.5 228.618 468.398 229.051 468.398 229.543V236.269H466.275ZM487.125 236.511C486.434 236.511 485.809 236.383 485.25 236.127C484.692 235.867 484.249 235.49 483.922 234.998C483.6 234.505 483.439 233.902 483.439 233.187C483.439 232.571 483.558 232.064 483.794 231.667C484.031 231.269 484.351 230.954 484.753 230.722C485.156 230.49 485.605 230.315 486.102 230.197C486.6 230.078 487.106 229.988 487.622 229.927C488.276 229.851 488.806 229.789 489.213 229.742C489.62 229.69 489.916 229.607 490.101 229.493C490.286 229.38 490.378 229.195 490.378 228.939V228.89C490.378 228.27 490.203 227.789 489.852 227.448C489.507 227.107 488.991 226.937 488.304 226.937C487.589 226.937 487.026 227.095 486.614 227.413C486.207 227.725 485.925 228.073 485.769 228.457L483.773 228.002C484.01 227.339 484.355 226.804 484.81 226.397C485.269 225.985 485.797 225.687 486.394 225.502C486.99 225.313 487.618 225.218 488.276 225.218C488.711 225.218 489.173 225.27 489.661 225.374C490.153 225.474 490.612 225.658 491.039 225.928C491.469 226.198 491.822 226.584 492.097 227.086C492.371 227.583 492.509 228.229 492.509 229.025V236.269H490.435V234.778H490.35C490.212 235.052 490.006 235.322 489.732 235.587C489.457 235.852 489.104 236.073 488.674 236.248C488.243 236.423 487.727 236.511 487.125 236.511ZM487.587 234.806C488.174 234.806 488.676 234.69 489.093 234.458C489.514 234.226 489.834 233.923 490.051 233.549C490.274 233.17 490.385 232.765 490.385 232.334V230.928C490.309 231.004 490.163 231.075 489.945 231.141C489.732 231.203 489.488 231.257 489.213 231.305C488.939 231.347 488.671 231.387 488.411 231.425C488.15 231.458 487.933 231.487 487.757 231.511C487.345 231.563 486.969 231.65 486.628 231.773C486.292 231.896 486.022 232.074 485.818 232.306C485.62 232.533 485.52 232.836 485.52 233.215C485.52 233.741 485.714 234.138 486.102 234.408C486.491 234.673 486.986 234.806 487.587 234.806ZM495.337 236.269V225.36H497.461V236.269H495.337ZM496.41 223.677C496.04 223.677 495.723 223.554 495.458 223.307C495.198 223.056 495.067 222.758 495.067 222.413C495.067 222.062 495.198 221.764 495.458 221.518C495.723 221.267 496.04 221.141 496.41 221.141C496.779 221.141 497.094 221.267 497.354 221.518C497.619 221.764 497.752 222.062 497.752 222.413C497.752 222.758 497.619 223.056 497.354 223.307C497.094 223.554 496.779 223.677 496.41 223.677ZM502.441 221.724V236.269H500.318V221.724H502.441Z" fill="#3F4346"/>
</g>
<path fill-rule="evenodd" clip-rule="evenodd" d="M213 65.6667L199.667 79V29C199.667 23.8223 203.602 19.5637 208.644 19.0516C208.98 19.0175 209.322 19 209.667 19H256.682C257.555 19 258.422 19.1407 259.25 19.4167L259.238 19.4285C263.344 20.673 266.333 24.4874 266.333 29V55.6667C266.333 61.1895 261.856 65.6667 256.333 65.6667H213ZM206.333 62.9052V29C206.333 27.1591 207.826 25.6667 209.667 25.6667H243.572L206.333 62.9052ZM253 25.6667L219.667 59H256.333C258.174 59 259.667 57.5076 259.667 55.6667V29C259.667 27.159 258.174 25.6667 256.333 25.6667H253Z" fill="#DBEAF6"/>
<g filter="url(#filter1_d_6432_13786)">
<rect x="217" y="63" width="136.539" height="68.5385" rx="34.2693" fill="#E2F0FF" shape-rendering="crispEdges"/>
<path d="M244.045 88.1347C244.045 85.6122 246.09 83.5674 248.612 83.5674H269.926C272.449 83.5674 274.494 85.6122 274.494 88.1347V100.314C274.494 102.837 272.449 104.882 269.926 104.882H244.045V88.1347Z" fill="#0D4680"/>
<path d="M244.045 88.1347C244.045 85.6122 246.09 83.5674 248.612 83.5674H270.086C270.484 83.5674 270.88 83.6316 271.258 83.7577L244.045 110.971V88.1347Z" fill="#66BDFF"/>
<path d="M295.07 93.5446C294.994 92.8723 294.682 92.3514 294.132 91.9821C293.583 91.6081 292.892 91.421 292.058 91.421C291.462 91.421 290.946 91.5157 290.51 91.7051C290.074 91.8898 289.736 92.1455 289.494 92.4722C289.258 92.7941 289.139 93.1611 289.139 93.573C289.139 93.9187 289.22 94.217 289.381 94.4679C289.547 94.7189 289.762 94.9296 290.027 95.1C290.297 95.2657 290.586 95.4054 290.894 95.519C291.201 95.6279 291.497 95.7179 291.781 95.7889L293.202 96.1582C293.666 96.2719 294.142 96.4258 294.629 96.6199C295.117 96.814 295.569 97.0697 295.986 97.3869C296.403 97.7042 296.739 98.0972 296.994 98.5659C297.255 99.0347 297.385 99.5957 297.385 100.249C297.385 101.073 297.172 101.805 296.746 102.444C296.324 103.083 295.711 103.587 294.906 103.957C294.106 104.326 293.138 104.511 292.002 104.511C290.913 104.511 289.97 104.338 289.175 103.992C288.379 103.646 287.757 103.156 287.307 102.522C286.857 101.883 286.609 101.125 286.561 100.249H288.763C288.806 100.775 288.976 101.213 289.274 101.563C289.577 101.909 289.963 102.167 290.432 102.337C290.905 102.503 291.424 102.586 291.987 102.586C292.608 102.586 293.159 102.489 293.642 102.295C294.13 102.096 294.513 101.821 294.793 101.471C295.072 101.116 295.212 100.701 295.212 100.228C295.212 99.797 295.089 99.4442 294.842 99.1696C294.601 98.895 294.272 98.6677 293.855 98.4878C293.443 98.3079 292.977 98.1493 292.456 98.0119L290.737 97.5432C289.573 97.226 288.649 96.7596 287.967 96.144C287.29 95.5285 286.952 94.7141 286.952 93.7009C286.952 92.8628 287.179 92.1313 287.634 91.5063C288.088 90.8813 288.704 90.3959 289.48 90.0503C290.257 89.6999 291.133 89.5247 292.108 89.5247C293.093 89.5247 293.962 89.6975 294.715 90.0432C295.472 90.3888 296.069 90.8647 296.504 91.4707C296.94 92.0721 297.167 92.7634 297.186 93.5446H295.07ZM300.008 89.7236H302.671L307.302 101.03H307.472L312.103 89.7236H314.766V104.269H312.678V93.7435H312.543L308.253 104.248H306.52L302.231 93.7364H302.096V104.269H300.008V89.7236ZM325.89 93.5446C325.814 92.8723 325.502 92.3514 324.953 91.9821C324.403 91.6081 323.712 91.421 322.879 91.421C322.282 91.421 321.766 91.5157 321.33 91.7051C320.895 91.8898 320.556 92.1455 320.315 92.4722C320.078 92.7941 319.96 93.1611 319.96 93.573C319.96 93.9187 320.04 94.217 320.201 94.4679C320.367 94.7189 320.582 94.9296 320.847 95.1C321.117 95.2657 321.406 95.4054 321.714 95.519C322.022 95.6279 322.318 95.7179 322.602 95.7889L324.022 96.1582C324.486 96.2719 324.962 96.4258 325.45 96.6199C325.937 96.814 326.39 97.0697 326.806 97.3869C327.223 97.7042 327.559 98.0972 327.815 98.5659C328.075 99.0347 328.205 99.5957 328.205 100.249C328.205 101.073 327.992 101.805 327.566 102.444C327.145 103.083 326.532 103.587 325.727 103.957C324.927 104.326 323.958 104.511 322.822 104.511C321.733 104.511 320.791 104.338 319.995 103.992C319.2 103.646 318.577 103.156 318.127 102.522C317.677 101.883 317.429 101.125 317.382 100.249H319.583C319.626 100.775 319.796 101.213 320.095 101.563C320.398 101.909 320.784 102.167 321.252 102.337C321.726 102.503 322.244 102.586 322.808 102.586C323.428 102.586 323.98 102.489 324.463 102.295C324.95 102.096 325.334 101.821 325.613 101.471C325.892 101.116 326.032 100.701 326.032 100.228C326.032 99.797 325.909 99.4442 325.663 99.1696C325.421 98.895 325.092 98.6677 324.676 98.4878C324.264 98.3079 323.797 98.1493 323.276 98.0119L321.558 97.5432C320.393 97.226 319.47 96.7596 318.788 96.144C318.111 95.5285 317.772 94.7141 317.772 93.7009C317.772 92.8628 317.999 92.1313 318.454 91.5063C318.909 90.8813 319.524 90.3959 320.301 90.0503C321.077 89.6999 321.953 89.5247 322.928 89.5247C323.913 89.5247 324.782 89.6975 325.535 90.0432C326.293 90.3888 326.889 90.8647 327.325 91.4707C327.76 92.0721 327.988 92.7634 328.007 93.5446H325.89Z" fill="#3F4346"/>
</g>
<path d="M193.8 378.667C194 381.633 194.5 384.533 195.3 387.3L191.3 391.3C189.933 387.3 189.067 383.067 188.767 378.667H193.8ZM226.667 418.733C229.5 419.533 232.4 420.033 235.333 420.233V425.2C230.933 424.9 226.7 424.033 222.667 422.7L226.667 418.733ZM197 372H185.333C183.5 372 182 373.5 182 375.333C182 406.633 207.367 432 238.667 432C240.5 432 242 430.5 242 428.667V417.033C242 415.2 240.5 413.7 238.667 413.7C234.533 413.7 230.5 413.033 226.767 411.8C226.433 411.667 226.067 411.633 225.733 411.633C224.867 411.633 224.033 411.967 223.367 412.6L216.033 419.933C206.6 415.1 198.867 407.4 194.067 397.967L201.4 390.633C202.333 389.7 202.6 388.4 202.233 387.233C201 383.5 200.333 379.5 200.333 375.333C200.333 373.5 198.833 372 197 372Z" fill="#DBEAF6"/>
<g filter="url(#filter2_d_6432_13786)">
<rect x="213" y="327" width="146.539" height="68.5385" rx="34.2693" fill="#EDEDFD" shape-rendering="crispEdges"/>
<path d="M270.494 361.27C270.494 369.678 263.677 376.494 255.269 376.494C246.861 376.494 240.045 369.678 240.045 361.27C240.045 352.862 246.861 346.045 255.269 346.045C263.677 346.045 270.494 352.862 270.494 361.27Z" fill="#696BEF"/>
<path d="M270.494 361.27C270.494 369.678 263.677 376.494 255.269 376.494C246.861 376.494 240.045 369.678 240.045 361.27C240.045 352.862 246.861 346.045 255.269 346.045C263.677 346.045 270.494 352.862 270.494 361.27Z" fill="#696BEF"/>
<path d="M265.926 364.314C265.926 365.114 265.769 365.906 265.463 366.645C265.157 367.384 264.708 368.055 264.143 368.621C263.577 369.186 262.906 369.635 262.167 369.941C261.428 370.247 260.636 370.404 259.837 370.404L259.837 364.314H265.926Z" fill="white"/>
<path d="M259.478 358.535L258.005 347.71L250.702 353.657L255.269 361.126H257.215C258.599 361.126 259.665 359.906 259.478 358.535Z" fill="#3A3BA6"/>
<path d="M257.629 370.824L256.637 374.763L255.269 367.983H255.414C256.901 367.983 257.992 369.382 257.629 370.824Z" fill="#3A3BA6"/>
<path fill-rule="evenodd" clip-rule="evenodd" d="M255.269 367.982C251.486 367.982 248.418 364.915 248.418 361.131H256.639C257.396 361.131 258.01 360.523 258.01 359.767V347.703C257.124 347.524 256.208 347.429 255.269 347.429C247.702 347.429 241.567 353.564 241.567 361.131C241.567 368.699 247.702 374.833 255.269 374.833C255.732 374.833 256.189 374.81 256.639 374.765V369.352C256.639 368.596 256.026 367.982 255.269 367.982ZM255.27 354.28C255.27 355.037 254.656 355.65 253.899 355.65C253.143 355.65 252.529 355.037 252.529 354.28C252.529 353.523 253.143 352.91 253.899 352.91C254.656 352.91 255.27 353.523 255.27 354.28Z" fill="white"/>
<path d="M284.408 353.724L288.456 365.57H288.619L292.668 353.724H295.04L289.806 368.269H287.27L282.036 353.724H284.408ZM300.471 368.489C299.449 368.489 298.556 368.255 297.794 367.786C297.032 367.317 296.44 366.662 296.018 365.819C295.597 364.976 295.386 363.991 295.386 362.864C295.386 361.733 295.597 360.743 296.018 359.895C296.44 359.048 297.032 358.39 297.794 357.921C298.556 357.452 299.449 357.218 300.471 357.218C301.494 357.218 302.387 357.452 303.149 357.921C303.911 358.39 304.503 359.048 304.925 359.895C305.346 360.743 305.557 361.733 305.557 362.864C305.557 363.991 305.346 364.976 304.925 365.819C304.503 366.662 303.911 367.317 303.149 367.786C302.387 368.255 301.494 368.489 300.471 368.489ZM300.478 366.707C301.141 366.707 301.691 366.531 302.126 366.181C302.562 365.831 302.884 365.364 303.092 364.782C303.305 364.199 303.412 363.558 303.412 362.857C303.412 362.161 303.305 361.522 303.092 360.939C302.884 360.352 302.562 359.881 302.126 359.526C301.691 359.171 301.141 358.993 300.478 358.993C299.811 358.993 299.257 359.171 298.817 359.526C298.381 359.881 298.057 360.352 297.844 360.939C297.635 361.522 297.531 362.161 297.531 362.857C297.531 363.558 297.635 364.199 297.844 364.782C298.057 365.364 298.381 365.831 298.817 366.181C299.257 366.531 299.811 366.707 300.478 366.707ZM307.927 368.269V357.36H310.051V368.269H307.927ZM308.999 355.677C308.63 355.677 308.313 355.554 308.048 355.307C307.787 355.056 307.657 354.758 307.657 354.413C307.657 354.062 307.787 353.764 308.048 353.518C308.313 353.267 308.63 353.141 308.999 353.141C309.369 353.141 309.684 353.267 309.944 353.518C310.209 353.764 310.342 354.062 310.342 354.413C310.342 354.758 310.209 355.056 309.944 355.307C309.684 355.554 309.369 355.677 308.999 355.677ZM317.503 368.489C316.447 368.489 315.538 368.25 314.775 367.772C314.018 367.289 313.435 366.624 313.028 365.776C312.621 364.929 312.417 363.958 312.417 362.864C312.417 361.756 312.626 360.779 313.042 359.931C313.459 359.079 314.046 358.413 314.804 357.935C315.561 357.457 316.454 357.218 317.481 357.218C318.31 357.218 319.049 357.372 319.697 357.68C320.346 357.983 320.869 358.409 321.267 358.958C321.669 359.507 321.908 360.149 321.984 360.883H319.917C319.804 360.371 319.543 359.931 319.136 359.562C318.734 359.192 318.194 359.008 317.517 359.008C316.925 359.008 316.407 359.164 315.961 359.476C315.521 359.784 315.178 360.225 314.932 360.797C314.685 361.366 314.562 362.038 314.562 362.814C314.562 363.61 314.683 364.297 314.925 364.874C315.166 365.452 315.507 365.899 315.947 366.216C316.392 366.534 316.916 366.692 317.517 366.692C317.919 366.692 318.284 366.619 318.611 366.472C318.942 366.321 319.219 366.105 319.442 365.826C319.669 365.547 319.827 365.21 319.917 364.817H321.984C321.908 365.523 321.679 366.153 321.295 366.707C320.912 367.261 320.398 367.696 319.754 368.013C319.115 368.331 318.364 368.489 317.503 368.489ZM328.957 368.489C327.882 368.489 326.956 368.26 326.18 367.8C325.408 367.336 324.811 366.685 324.39 365.847C323.973 365.004 323.765 364.017 323.765 362.886C323.765 361.768 323.973 360.783 324.39 359.931C324.811 359.079 325.399 358.413 326.151 357.935C326.909 357.457 327.794 357.218 328.808 357.218C329.423 357.218 330.02 357.32 330.597 357.523C331.175 357.727 331.694 358.047 332.153 358.482C332.612 358.918 332.974 359.484 333.24 360.18C333.505 360.871 333.637 361.711 333.637 362.701V363.454H324.965V361.863H331.556C331.556 361.304 331.443 360.809 331.215 360.378C330.988 359.943 330.668 359.6 330.257 359.349C329.849 359.098 329.371 358.972 328.822 358.972C328.225 358.972 327.704 359.119 327.259 359.413C326.819 359.701 326.478 360.08 326.237 360.549C326 361.013 325.882 361.517 325.882 362.062V363.305C325.882 364.034 326.009 364.654 326.265 365.165C326.525 365.677 326.888 366.067 327.352 366.337C327.816 366.602 328.358 366.735 328.978 366.735C329.381 366.735 329.748 366.678 330.079 366.564C330.41 366.446 330.697 366.271 330.938 366.039C331.18 365.807 331.365 365.52 331.492 365.18L333.502 365.542C333.341 366.134 333.052 366.652 332.636 367.097C332.224 367.538 331.705 367.881 331.08 368.127C330.46 368.368 329.752 368.489 328.957 368.489Z" fill="#3F4346"/>
</g>
<g filter="url(#filter3_d_6432_13786)">
<rect x="40" y="205" width="213.549" height="48.6197" rx="24.3099" fill="white" shape-rendering="crispEdges"/>
<path d="M60.6197 224.31C60.6197 221.549 62.8583 219.31 65.6197 219.31H80.6197V229.548C80.6197 232.31 78.3811 234.548 75.6197 234.548H65.3816L60.6197 239.31V224.31Z" fill="#3A73B5"/>
<path d="M68.2388 227.929C68.2388 228.718 67.5992 229.358 66.8102 229.358C66.0212 229.358 65.3817 228.718 65.3817 227.929C65.3817 227.14 66.0212 226.5 66.8102 226.5C67.5992 226.5 68.2388 227.14 68.2388 227.929Z" fill="#0D4680"/>
<path d="M73.0484 227.929C73.0484 228.718 72.4088 229.358 71.6198 229.358C70.8308 229.358 70.1912 228.718 70.1912 227.929C70.1912 227.14 70.8308 226.5 71.6198 226.5C72.4088 226.5 73.0484 227.14 73.0484 227.929Z" fill="#0D4680"/>
<path d="M77.8577 227.929C77.8577 228.718 77.2181 229.358 76.4291 229.358C75.6401 229.358 75.0005 228.718 75.0005 227.929C75.0005 227.14 75.6401 226.5 76.4291 226.5C77.2181 226.5 77.8577 227.14 77.8577 227.929Z" fill="#0D4680"/>
<path d="M67.2388 226.929C67.2388 227.718 66.5992 228.358 65.8102 228.358C65.0212 228.358 64.3817 227.718 64.3817 226.929C64.3817 226.14 65.0212 225.5 65.8102 225.5C66.5992 225.5 67.2388 226.14 67.2388 226.929Z" fill="white"/>
<path d="M72.0484 226.929C72.0484 227.718 71.4088 228.358 70.6198 228.358C69.8308 228.358 69.1912 227.718 69.1912 226.929C69.1912 226.14 69.8308 225.5 70.6198 225.5C71.4088 225.5 72.0484 226.14 72.0484 226.929Z" fill="white"/>
<path d="M76.8577 226.929C76.8577 227.718 76.2181 228.358 75.4291 228.358C74.6401 228.358 74.0005 227.718 74.0005 226.929C74.0005 226.14 74.6401 225.5 75.4291 225.5C76.2181 225.5 76.8577 226.14 76.8577 226.929Z" fill="white"/>
<path d="M93.5276 236.31V221.765H102.647V223.654H95.7222V228.086H102.171V229.968H95.7222V234.421H102.732V236.31H93.5276ZM107.531 229.833V236.31H105.408V225.401H107.446V227.177H107.581C107.832 226.599 108.225 226.135 108.76 225.784C109.3 225.434 109.979 225.259 110.799 225.259C111.542 225.259 112.193 225.415 112.752 225.728C113.31 226.035 113.744 226.495 114.051 227.106C114.359 227.716 114.513 228.472 114.513 229.371V236.31H112.389V229.627C112.389 228.836 112.183 228.218 111.772 227.773C111.36 227.323 110.794 227.098 110.074 227.098C109.582 227.098 109.144 227.205 108.76 227.418C108.381 227.631 108.081 227.944 107.858 228.356C107.64 228.763 107.531 229.255 107.531 229.833ZM126.303 225.401L122.347 236.31H120.074L116.111 225.401H118.391L121.154 233.796H121.267L124.023 225.401H126.303ZM128.299 236.31V225.401H130.422V236.31H128.299ZM129.371 223.718C129.002 223.718 128.684 223.595 128.419 223.348C128.159 223.097 128.029 222.799 128.029 222.454C128.029 222.103 128.159 221.805 128.419 221.559C128.684 221.308 129.002 221.182 129.371 221.182C129.74 221.182 130.055 221.308 130.316 221.559C130.581 221.805 130.713 222.103 130.713 222.454C130.713 222.799 130.581 223.097 130.316 223.348C130.055 223.595 129.74 223.718 129.371 223.718ZM136.454 236.552C135.762 236.552 135.137 236.424 134.579 236.168C134.02 235.908 133.577 235.531 133.251 235.039C132.929 234.546 132.768 233.943 132.768 233.228C132.768 232.612 132.886 232.106 133.123 231.708C133.359 231.31 133.679 230.995 134.082 230.763C134.484 230.531 134.934 230.356 135.431 230.238C135.928 230.119 136.435 230.029 136.951 229.968C137.604 229.892 138.135 229.83 138.542 229.783C138.949 229.731 139.245 229.648 139.43 229.534C139.614 229.421 139.707 229.236 139.707 228.981V228.931C139.707 228.311 139.531 227.83 139.181 227.489C138.835 227.148 138.319 226.978 137.633 226.978C136.918 226.978 136.354 227.136 135.942 227.454C135.535 227.766 135.253 228.114 135.097 228.498L133.101 228.043C133.338 227.38 133.684 226.845 134.138 226.438C134.598 226.026 135.126 225.728 135.722 225.543C136.319 225.354 136.946 225.259 137.604 225.259C138.04 225.259 138.502 225.311 138.989 225.415C139.482 225.515 139.941 225.699 140.367 225.969C140.798 226.239 141.151 226.625 141.425 227.127C141.7 227.624 141.837 228.27 141.837 229.066V236.31H139.763V234.819H139.678C139.541 235.093 139.335 235.363 139.06 235.628C138.786 235.893 138.433 236.114 138.002 236.289C137.571 236.464 137.055 236.552 136.454 236.552ZM136.915 234.847C137.502 234.847 138.004 234.731 138.421 234.499C138.842 234.267 139.162 233.964 139.38 233.59C139.602 233.211 139.714 232.806 139.714 232.375V230.969C139.638 231.045 139.491 231.116 139.273 231.182C139.06 231.244 138.816 231.298 138.542 231.346C138.267 231.388 138 231.428 137.739 231.466C137.479 231.499 137.261 231.528 137.086 231.552C136.674 231.604 136.297 231.691 135.957 231.814C135.62 231.937 135.35 232.115 135.147 232.347C134.948 232.574 134.849 232.877 134.849 233.256C134.849 233.782 135.043 234.179 135.431 234.449C135.819 234.714 136.314 234.847 136.915 234.847ZM144.666 236.31V225.401H146.718V227.134H146.832C147.031 226.547 147.381 226.085 147.883 225.749C148.39 225.408 148.963 225.238 149.602 225.238C149.734 225.238 149.891 225.242 150.071 225.252C150.255 225.261 150.4 225.273 150.504 225.287V227.319C150.419 227.295 150.267 227.269 150.049 227.24C149.831 227.207 149.614 227.191 149.396 227.191C148.894 227.191 148.446 227.297 148.054 227.51C147.665 227.719 147.357 228.01 147.13 228.384C146.903 228.753 146.789 229.175 146.789 229.648V236.31H144.666ZM170.44 229.037C170.44 230.59 170.156 231.926 169.588 233.043C169.019 234.156 168.241 235.013 167.251 235.614C166.266 236.211 165.146 236.509 163.892 236.509C162.632 236.509 161.508 236.211 160.518 235.614C159.533 235.013 158.757 234.153 158.188 233.036C157.62 231.918 157.336 230.586 157.336 229.037C157.336 227.484 157.62 226.151 158.188 225.039C158.757 223.921 159.533 223.064 160.518 222.468C161.508 221.866 162.632 221.566 163.892 221.566C165.146 221.566 166.266 221.866 167.251 222.468C168.241 223.064 169.019 223.921 169.588 225.039C170.156 226.151 170.44 227.484 170.44 229.037ZM168.267 229.037C168.267 227.854 168.075 226.857 167.691 226.047C167.312 225.233 166.792 224.617 166.129 224.201C165.471 223.779 164.725 223.569 163.892 223.569C163.054 223.569 162.305 223.779 161.647 224.201C160.989 224.617 160.468 225.233 160.085 226.047C159.706 226.857 159.517 227.854 159.517 229.037C159.517 230.221 159.706 231.22 160.085 232.034C160.468 232.844 160.989 233.46 161.647 233.881C162.305 234.298 163.054 234.506 163.892 234.506C164.725 234.506 165.471 234.298 166.129 233.881C166.792 233.46 167.312 232.844 167.691 232.034C168.075 231.22 168.267 230.221 168.267 229.037ZM171.834 223.654V221.765H183.091V223.654H178.552V236.31H176.365V223.654H171.834ZM185.578 236.31V221.765H190.763C191.895 221.765 192.832 221.971 193.576 222.383C194.319 222.794 194.875 223.358 195.245 224.073C195.614 224.783 195.799 225.583 195.799 226.473C195.799 227.368 195.612 228.173 195.237 228.888C194.868 229.598 194.309 230.162 193.561 230.579C192.818 230.99 191.883 231.196 190.756 231.196H187.191V229.336H190.557C191.272 229.336 191.852 229.213 192.297 228.966C192.742 228.715 193.069 228.374 193.277 227.944C193.486 227.513 193.59 227.023 193.59 226.473C193.59 225.924 193.486 225.436 193.277 225.01C193.069 224.584 192.74 224.25 192.29 224.009C191.845 223.767 191.258 223.647 190.529 223.647H187.773V236.31H185.578ZM203.494 240.401V225.401H205.568V227.169H205.745C205.868 226.942 206.046 226.679 206.278 226.381C206.51 226.083 206.832 225.822 207.244 225.6C207.656 225.373 208.2 225.259 208.877 225.259C209.758 225.259 210.544 225.481 211.235 225.927C211.927 226.372 212.469 227.013 212.862 227.851C213.259 228.689 213.458 229.698 213.458 230.877C213.458 232.056 213.262 233.067 212.869 233.909C212.476 234.748 211.936 235.394 211.25 235.848C210.563 236.298 209.779 236.523 208.899 236.523C208.236 236.523 207.694 236.412 207.272 236.189C206.856 235.967 206.529 235.706 206.292 235.408C206.055 235.11 205.873 234.845 205.745 234.613H205.617V240.401H203.494ZM205.575 230.856C205.575 231.623 205.686 232.295 205.909 232.873C206.131 233.45 206.453 233.902 206.875 234.229C207.296 234.551 207.812 234.712 208.423 234.712C209.057 234.712 209.588 234.544 210.014 234.208C210.44 233.867 210.762 233.405 210.98 232.823C211.202 232.24 211.313 231.585 211.313 230.856C211.313 230.136 211.205 229.49 210.987 228.917C210.774 228.344 210.452 227.891 210.021 227.56C209.595 227.229 209.062 227.063 208.423 227.063C207.807 227.063 207.286 227.222 206.86 227.539C206.439 227.856 206.119 228.299 205.902 228.867C205.684 229.435 205.575 230.098 205.575 230.856ZM220.433 236.53C219.41 236.53 218.518 236.296 217.755 235.827C216.993 235.358 216.401 234.703 215.98 233.86C215.558 233.017 215.348 232.032 215.348 230.905C215.348 229.774 215.558 228.784 215.98 227.936C216.401 227.089 216.993 226.431 217.755 225.962C218.518 225.493 219.41 225.259 220.433 225.259C221.455 225.259 222.348 225.493 223.11 225.962C223.873 226.431 224.464 227.089 224.886 227.936C225.307 228.784 225.518 229.774 225.518 230.905C225.518 232.032 225.307 233.017 224.886 233.86C224.464 234.703 223.873 235.358 223.11 235.827C222.348 236.296 221.455 236.53 220.433 236.53ZM220.44 234.748C221.103 234.748 221.652 234.572 222.088 234.222C222.523 233.872 222.845 233.405 223.054 232.823C223.267 232.24 223.373 231.599 223.373 230.898C223.373 230.202 223.267 229.563 223.054 228.981C222.845 228.393 222.523 227.922 222.088 227.567C221.652 227.212 221.103 227.034 220.44 227.034C219.772 227.034 219.218 227.212 218.778 227.567C218.342 227.922 218.018 228.393 217.805 228.981C217.597 229.563 217.492 230.202 217.492 230.898C217.492 231.599 217.597 232.24 217.805 232.823C218.018 233.405 218.342 233.872 218.778 234.222C219.218 234.572 219.772 234.748 220.44 234.748ZM227.888 236.31V225.401H229.941V227.134H230.055C230.253 226.547 230.604 226.085 231.106 225.749C231.612 225.408 232.185 225.238 232.824 225.238C232.957 225.238 233.113 225.242 233.293 225.252C233.478 225.261 233.622 225.273 233.726 225.287V227.319C233.641 227.295 233.49 227.269 233.272 227.24C233.054 227.207 232.836 227.191 232.618 227.191C232.117 227.191 231.669 227.297 231.276 227.51C230.888 227.719 230.58 228.01 230.353 228.384C230.126 228.753 230.012 229.175 230.012 229.648V236.31H227.888Z" fill="#3F4346"/>
</g>
<path d="M257.549 228.56C257.135 228.56 256.799 228.896 256.799 229.31C256.799 229.724 257.135 230.06 257.549 230.06V228.56ZM371.53 229.84C371.823 229.547 371.823 229.073 371.53 228.78L366.757 224.007C366.464 223.714 365.99 223.714 365.697 224.007C365.404 224.3 365.404 224.775 365.697 225.067L369.939 229.31L365.697 233.553C365.404 233.846 365.404 234.32 365.697 234.613C365.99 234.906 366.464 234.906 366.757 234.613L371.53 229.84ZM257.549 230.06H371V228.56H257.549V230.06Z" fill="#1E75BA"/>
<path d="M257.549 228.56C257.135 228.56 256.799 228.896 256.799 229.31C256.799 229.724 257.135 230.06 257.549 230.06V228.56ZM285.8 131.008C285.507 130.715 285.032 130.715 284.739 131.008L279.966 135.781C279.673 136.074 279.673 136.549 279.966 136.842C280.259 137.135 280.734 137.135 281.027 136.842L285.269 132.599L289.512 136.842C289.805 137.135 290.28 137.135 290.573 136.842C290.865 136.549 290.865 136.074 290.573 135.781L285.8 131.008ZM257.549 230.06H261.269V228.56H257.549V230.06ZM286.019 205.31V131.539H284.519V205.31H286.019ZM261.269 230.06C274.938 230.06 286.019 218.979 286.019 205.31H284.519C284.519 218.151 274.11 228.56 261.269 228.56V230.06Z" fill="#1E75BA"/>
<path d="M257.549 228.56C257.135 228.56 256.799 228.896 256.799 229.31C256.799 229.724 257.135 230.06 257.549 230.06V228.56ZM285.739 323.531C286.032 323.823 286.507 323.823 286.8 323.531L291.573 318.758C291.865 318.465 291.865 317.99 291.573 317.697C291.28 317.404 290.805 317.404 290.512 317.697L286.269 321.94L282.027 317.697C281.734 317.404 281.259 317.404 280.966 317.697C280.673 317.99 280.673 318.465 280.966 318.758L285.739 323.531ZM257.549 230.06H262.269V228.56H257.549V230.06ZM285.519 253.31V323H287.019V253.31H285.519ZM262.269 230.06C275.11 230.06 285.519 240.469 285.519 253.31H287.019C287.019 239.641 275.938 228.56 262.269 228.56V230.06Z" fill="#1E75BA"/>
<defs>
<filter id="filter0_d_6432_13786" x="371.346" y="195" width="160.846" height="75.8463" filterUnits="userSpaceOnUse" color-interpolation-filters="sRGB">
<feFlood flood-opacity="0" result="BackgroundImageFix"/>
<feColorMatrix in="SourceAlpha" type="matrix" values="0 0 0 0 0 0 0 0 0 0 0 0 0 0 0 0 0 0 127 0" result="hardAlpha"/>
<feOffset dy="3.65385"/>
<feGaussianBlur stdDeviation="1.82693"/>
<feComposite in2="hardAlpha" operator="out"/>
<feColorMatrix type="matrix" values="0 0 0 0 0 0 0 0 0 0 0 0 0 0 0 0 0 0 0.25 0"/>
<feBlend mode="normal" in2="BackgroundImageFix" result="effect1_dropShadow_6432_13786"/>
<feBlend mode="normal" in="SourceGraphic" in2="effect1_dropShadow_6432_13786" result="shape"/>
</filter>
<filter id="filter1_d_6432_13786" x="213.346" y="63" width="143.846" height="75.8463" filterUnits="userSpaceOnUse" color-interpolation-filters="sRGB">
<feFlood flood-opacity="0" result="BackgroundImageFix"/>
<feColorMatrix in="SourceAlpha" type="matrix" values="0 0 0 0 0 0 0 0 0 0 0 0 0 0 0 0 0 0 127 0" result="hardAlpha"/>
<feOffset dy="3.65385"/>
<feGaussianBlur stdDeviation="1.82693"/>
<feComposite in2="hardAlpha" operator="out"/>
<feColorMatrix type="matrix" values="0 0 0 0 0 0 0 0 0 0 0 0 0 0 0 0 0 0 0.25 0"/>
<feBlend mode="normal" in2="BackgroundImageFix" result="effect1_dropShadow_6432_13786"/>
<feBlend mode="normal" in="SourceGraphic" in2="effect1_dropShadow_6432_13786" result="shape"/>
</filter>
<filter id="filter2_d_6432_13786" x="209.346" y="327" width="153.846" height="75.8463" filterUnits="userSpaceOnUse" color-interpolation-filters="sRGB">
<feFlood flood-opacity="0" result="BackgroundImageFix"/>
<feColorMatrix in="SourceAlpha" type="matrix" values="0 0 0 0 0 0 0 0 0 0 0 0 0 0 0 0 0 0 127 0" result="hardAlpha"/>
<feOffset dy="3.65385"/>
<feGaussianBlur stdDeviation="1.82693"/>
<feComposite in2="hardAlpha" operator="out"/>
<feColorMatrix type="matrix" values="0 0 0 0 0 0 0 0 0 0 0 0 0 0 0 0 0 0 0.25 0"/>
<feBlend mode="normal" in2="BackgroundImageFix" result="effect1_dropShadow_6432_13786"/>
<feBlend mode="normal" in="SourceGraphic" in2="effect1_dropShadow_6432_13786" result="shape"/>
</filter>
<filter id="filter3_d_6432_13786" x="35.3451" y="205" width="222.859" height="57.9295" filterUnits="userSpaceOnUse" color-interpolation-filters="sRGB">
<feFlood flood-opacity="0" result="BackgroundImageFix"/>
<feColorMatrix in="SourceAlpha" type="matrix" values="0 0 0 0 0 0 0 0 0 0 0 0 0 0 0 0 0 0 127 0" result="hardAlpha"/>
<feOffset dy="4.65493"/>
<feGaussianBlur stdDeviation="2.32746"/>
<feComposite in2="hardAlpha" operator="out"/>
<feColorMatrix type="matrix" values="0 0 0 0 0 0 0 0 0 0 0 0 0 0 0 0 0 0 0.25 0"/>
<feBlend mode="normal" in2="BackgroundImageFix" result="effect1_dropShadow_6432_13786"/>
<feBlend mode="normal" in="SourceGraphic" in2="effect1_dropShadow_6432_13786" result="shape"/>
</filter>
</defs>
</svg>
