<svg width="331" height="212" viewBox="0 0 331 212" fill="none" xmlns="http://www.w3.org/2000/svg">
<g clip-path="url(#clip0_6421_6818)">
<g filter="url(#filter0_d_6421_6818)">
<rect x="28" y="13" width="280" height="186.667" rx="5.91921" fill="white"/>
</g>
<ellipse cx="42.0002" cy="27.0002" rx="4.66667" ry="4.66667" fill="#DF434C"/>
<ellipse cx="53.6667" cy="27.0002" rx="4.66667" ry="4.66667" fill="#E7B44C"/>
<ellipse cx="65.3337" cy="27.0002" rx="4.66667" ry="4.66667" fill="#6BD280"/>
<rect x="79.3335" y="22.3335" width="219.333" height="9.33333" rx="4.66667" fill="#E1E3E8"/>
<rect x="88.6665" y="66.6667" width="210" height="99.1667" rx="3.74648" fill="#FAFAFA"/>
<path d="M98.8983 88V79.3083H100.007L104.883 86.04L104.358 86.1217V79.3083H105.723V88H104.615L99.7733 81.2217L100.275 81.1283V88H98.8983ZM110.44 88.14C109.833 88.14 109.277 87.9961 108.771 87.7083C108.274 87.4206 107.877 87.0278 107.581 86.53C107.286 86.0322 107.138 85.4683 107.138 84.8383C107.138 84.2006 107.286 83.6367 107.581 83.1467C107.877 82.6489 108.274 82.26 108.771 81.98C109.269 81.6922 109.825 81.5483 110.44 81.5483C111.062 81.5483 111.618 81.6922 112.108 81.98C112.606 82.26 112.999 82.6489 113.286 83.1467C113.582 83.6367 113.73 84.2006 113.73 84.8383C113.73 85.4761 113.582 86.0439 113.286 86.5417C112.991 87.0394 112.594 87.4322 112.096 87.72C111.599 88 111.046 88.14 110.44 88.14ZM110.44 86.915C110.813 86.915 111.144 86.8256 111.431 86.6467C111.719 86.4678 111.945 86.2228 112.108 85.9117C112.279 85.5928 112.365 85.235 112.365 84.8383C112.365 84.4417 112.279 84.0878 112.108 83.7767C111.945 83.4656 111.719 83.2206 111.431 83.0417C111.144 82.8628 110.813 82.7733 110.44 82.7733C110.074 82.7733 109.744 82.8628 109.448 83.0417C109.16 83.2206 108.931 83.4656 108.76 83.7767C108.596 84.0878 108.515 84.4417 108.515 84.8383C108.515 85.235 108.596 85.5928 108.76 85.9117C108.931 86.2228 109.16 86.4678 109.448 86.6467C109.744 86.8256 110.074 86.915 110.44 86.915ZM117.35 88.14C116.705 88.14 116.137 87.9806 115.647 87.6617C115.165 87.3428 114.826 86.915 114.632 86.3783L115.647 85.9C115.818 86.2578 116.051 86.5417 116.347 86.7517C116.65 86.9617 116.985 87.0667 117.35 87.0667C117.661 87.0667 117.914 86.9967 118.108 86.8567C118.303 86.7167 118.4 86.5261 118.4 86.285C118.4 86.1294 118.357 86.005 118.272 85.9117C118.186 85.8106 118.077 85.7289 117.945 85.6667C117.821 85.6044 117.692 85.5578 117.56 85.5267L116.568 85.2467C116.024 85.0911 115.616 84.8578 115.343 84.5467C115.079 84.2278 114.947 83.8583 114.947 83.4383C114.947 83.0572 115.044 82.7267 115.238 82.4467C115.433 82.1589 115.701 81.9372 116.043 81.7817C116.386 81.6261 116.771 81.5483 117.198 81.5483C117.774 81.5483 118.287 81.6922 118.738 81.98C119.19 82.26 119.508 82.6528 119.695 83.1583L118.68 83.6367C118.556 83.3333 118.357 83.0922 118.085 82.9133C117.821 82.7344 117.521 82.645 117.187 82.645C116.899 82.645 116.67 82.715 116.498 82.855C116.327 82.9872 116.242 83.1622 116.242 83.38C116.242 83.5278 116.281 83.6522 116.358 83.7533C116.436 83.8467 116.537 83.9244 116.662 83.9867C116.786 84.0411 116.915 84.0878 117.047 84.1267L118.073 84.43C118.595 84.5778 118.995 84.8111 119.275 85.13C119.555 85.4411 119.695 85.8144 119.695 86.25C119.695 86.6233 119.594 86.9539 119.392 87.2417C119.197 87.5217 118.925 87.7433 118.575 87.9067C118.225 88.0622 117.817 88.14 117.35 88.14ZM123.32 88.14C122.675 88.14 122.107 87.9806 121.617 87.6617C121.135 87.3428 120.796 86.915 120.602 86.3783L121.617 85.9C121.788 86.2578 122.021 86.5417 122.317 86.7517C122.62 86.9617 122.955 87.0667 123.32 87.0667C123.631 87.0667 123.884 86.9967 124.078 86.8567C124.273 86.7167 124.37 86.5261 124.37 86.285C124.37 86.1294 124.327 86.005 124.242 85.9117C124.156 85.8106 124.047 85.7289 123.915 85.6667C123.791 85.6044 123.662 85.5578 123.53 85.5267L122.538 85.2467C121.994 85.0911 121.586 84.8578 121.313 84.5467C121.049 84.2278 120.917 83.8583 120.917 83.4383C120.917 83.0572 121.014 82.7267 121.208 82.4467C121.403 82.1589 121.671 81.9372 122.013 81.7817C122.356 81.6261 122.741 81.5483 123.168 81.5483C123.744 81.5483 124.257 81.6922 124.708 81.98C125.16 82.26 125.478 82.6528 125.665 83.1583L124.65 83.6367C124.526 83.3333 124.327 83.0922 124.055 82.9133C123.791 82.7344 123.491 82.645 123.157 82.645C122.869 82.645 122.64 82.715 122.468 82.855C122.297 82.9872 122.212 83.1622 122.212 83.38C122.212 83.5278 122.251 83.6522 122.328 83.7533C122.406 83.8467 122.507 83.9244 122.632 83.9867C122.756 84.0411 122.885 84.0878 123.017 84.1267L124.043 84.43C124.565 84.5778 124.965 84.8111 125.245 85.13C125.525 85.4411 125.665 85.8144 125.665 86.25C125.665 86.6233 125.564 86.9539 125.362 87.2417C125.167 87.5217 124.895 87.7433 124.545 87.9067C124.195 88.0622 123.787 88.14 123.32 88.14ZM128.847 88.14C128.419 88.14 128.042 88.0661 127.715 87.9183C127.396 87.7628 127.147 87.5528 126.969 87.2883C126.79 87.0161 126.7 86.6972 126.7 86.3317C126.7 85.9894 126.774 85.6822 126.922 85.41C127.077 85.1378 127.315 84.9083 127.634 84.7217C127.952 84.535 128.353 84.4028 128.835 84.325L131.029 83.9633V85.0017L129.092 85.34C128.742 85.4022 128.485 85.515 128.322 85.6783C128.159 85.8339 128.077 86.0361 128.077 86.285C128.077 86.5261 128.166 86.7244 128.345 86.88C128.532 87.0278 128.769 87.1017 129.057 87.1017C129.415 87.1017 129.726 87.0239 129.99 86.8683C130.262 86.7128 130.472 86.5067 130.62 86.25C130.768 85.9856 130.842 85.6939 130.842 85.375V83.7533C130.842 83.4422 130.725 83.1894 130.492 82.995C130.266 82.7928 129.963 82.6917 129.582 82.6917C129.232 82.6917 128.925 82.785 128.66 82.9717C128.404 83.1506 128.213 83.3839 128.089 83.6717L126.992 83.1233C127.109 82.8122 127.299 82.54 127.564 82.3067C127.828 82.0656 128.135 81.8789 128.485 81.7467C128.843 81.6144 129.22 81.5483 129.617 81.5483C130.115 81.5483 130.554 81.6417 130.935 81.8283C131.324 82.015 131.624 82.2756 131.834 82.61C132.051 82.9367 132.16 83.3178 132.16 83.7533V88H130.9V86.8567L131.169 86.8917C131.021 87.1483 130.83 87.37 130.597 87.5567C130.371 87.7433 130.111 87.8872 129.815 87.9883C129.527 88.0894 129.205 88.14 128.847 88.14ZM135.869 88V79.3083H139.031C139.614 79.3083 140.128 79.4172 140.571 79.635C141.022 79.845 141.372 80.1561 141.621 80.5683C141.87 80.9728 141.994 81.4589 141.994 82.0267C141.994 82.5867 141.866 83.0689 141.609 83.4733C141.36 83.8778 141.014 84.1889 140.571 84.4067C140.128 84.6244 139.614 84.7333 139.031 84.7333H137.246V88H135.869ZM137.246 83.5083H139.066C139.377 83.5083 139.649 83.4461 139.883 83.3217C140.116 83.1972 140.299 83.0261 140.431 82.8083C140.563 82.5828 140.629 82.3183 140.629 82.015C140.629 81.7117 140.563 81.4511 140.431 81.2333C140.299 81.0078 140.116 80.8367 139.883 80.72C139.649 80.5956 139.377 80.5333 139.066 80.5333H137.246V83.5083ZM146.1 88.14C145.494 88.14 144.938 87.9961 144.432 87.7083C143.934 87.4206 143.538 87.0278 143.242 86.53C142.947 86.0322 142.799 85.4683 142.799 84.8383C142.799 84.2006 142.947 83.6367 143.242 83.1467C143.538 82.6489 143.934 82.26 144.432 81.98C144.93 81.6922 145.486 81.5483 146.1 81.5483C146.723 81.5483 147.279 81.6922 147.769 81.98C148.267 82.26 148.659 82.6489 148.947 83.1467C149.243 83.6367 149.39 84.2006 149.39 84.8383C149.39 85.4761 149.243 86.0439 148.947 86.5417C148.652 87.0394 148.255 87.4322 147.757 87.72C147.259 88 146.707 88.14 146.1 88.14ZM146.1 86.915C146.474 86.915 146.804 86.8256 147.092 86.6467C147.38 86.4678 147.605 86.2228 147.769 85.9117C147.94 85.5928 148.025 85.235 148.025 84.8383C148.025 84.4417 147.94 84.0878 147.769 83.7767C147.605 83.4656 147.38 83.2206 147.092 83.0417C146.804 82.8628 146.474 82.7733 146.1 82.7733C145.735 82.7733 145.404 82.8628 145.109 83.0417C144.821 83.2206 144.592 83.4656 144.42 83.7767C144.257 84.0878 144.175 84.4417 144.175 84.8383C144.175 85.235 144.257 85.5928 144.42 85.9117C144.592 86.2228 144.821 86.4678 145.109 86.6467C145.404 86.8256 145.735 86.915 146.1 86.915ZM150.678 88V79.1683H151.996V88H150.678ZM153.386 88V81.6883H154.704V88H153.386ZM153.386 80.5333L154.237 78.6083H155.964L154.692 80.5333H153.386ZM158.819 88.07C158.158 88.07 157.645 87.8833 157.279 87.51C156.914 87.1367 156.731 86.6117 156.731 85.935V82.8783H155.623V81.6883H155.798C156.093 81.6883 156.323 81.6028 156.486 81.4317C156.649 81.2606 156.731 81.0272 156.731 80.7317V80.2417H158.049V81.6883H159.484V82.8783H158.049V85.8767C158.049 86.0944 158.084 86.2811 158.154 86.4367C158.224 86.5844 158.337 86.7011 158.493 86.7867C158.648 86.8644 158.85 86.9033 159.099 86.9033C159.162 86.9033 159.232 86.8994 159.309 86.8917C159.387 86.8839 159.461 86.8761 159.531 86.8683V88C159.422 88.0156 159.302 88.0311 159.169 88.0467C159.037 88.0622 158.92 88.07 158.819 88.07ZM160.818 88V81.6883H162.136V88H160.818ZM160.818 80.825V79.3083H162.136V80.825H160.818ZM166.676 88.14C166.046 88.14 165.486 87.9961 164.996 87.7083C164.513 87.4128 164.128 87.0161 163.841 86.5183C163.561 86.0206 163.421 85.4567 163.421 84.8267C163.421 84.2044 163.561 83.6444 163.841 83.1467C164.121 82.6489 164.506 82.26 164.996 81.98C165.486 81.6922 166.046 81.5483 166.676 81.5483C167.103 81.5483 167.504 81.6261 167.877 81.7817C168.251 81.9294 168.573 82.1356 168.846 82.4C169.126 82.6644 169.332 82.9717 169.464 83.3217L168.309 83.8583C168.177 83.5317 167.963 83.2711 167.667 83.0767C167.379 82.8744 167.049 82.7733 166.676 82.7733C166.318 82.7733 165.995 82.8628 165.707 83.0417C165.427 83.2128 165.206 83.4578 165.042 83.7767C164.879 84.0878 164.797 84.4417 164.797 84.8383C164.797 85.235 164.879 85.5928 165.042 85.9117C165.206 86.2228 165.427 86.4678 165.707 86.6467C165.995 86.8256 166.318 86.915 166.676 86.915C167.057 86.915 167.387 86.8178 167.667 86.6233C167.955 86.4211 168.169 86.1528 168.309 85.8183L169.464 86.3667C169.339 86.7011 169.137 87.0044 168.857 87.2767C168.585 87.5411 168.262 87.7511 167.889 87.9067C167.516 88.0622 167.111 88.14 166.676 88.14ZM172.585 88.14C172.158 88.14 171.78 88.0661 171.454 87.9183C171.135 87.7628 170.886 87.5528 170.707 87.2883C170.528 87.0161 170.439 86.6972 170.439 86.3317C170.439 85.9894 170.513 85.6822 170.66 85.41C170.816 85.1378 171.053 84.9083 171.372 84.7217C171.691 84.535 172.092 84.4028 172.574 84.325L174.767 83.9633V85.0017L172.83 85.34C172.48 85.4022 172.224 85.515 172.06 85.6783C171.897 85.8339 171.815 86.0361 171.815 86.285C171.815 86.5261 171.905 86.7244 172.084 86.88C172.27 87.0278 172.508 87.1017 172.795 87.1017C173.153 87.1017 173.464 87.0239 173.729 86.8683C174.001 86.7128 174.211 86.5067 174.359 86.25C174.507 85.9856 174.58 85.6939 174.58 85.375V83.7533C174.58 83.4422 174.464 83.1894 174.23 82.995C174.005 82.7928 173.702 82.6917 173.32 82.6917C172.97 82.6917 172.663 82.785 172.399 82.9717C172.142 83.1506 171.952 83.3839 171.827 83.6717L170.73 83.1233C170.847 82.8122 171.038 82.54 171.302 82.3067C171.567 82.0656 171.874 81.8789 172.224 81.7467C172.582 81.6144 172.959 81.5483 173.355 81.5483C173.853 81.5483 174.293 81.6417 174.674 81.8283C175.063 82.015 175.362 82.2756 175.572 82.61C175.79 82.9367 175.899 83.3178 175.899 83.7533V88H174.639V86.8567L174.907 86.8917C174.759 87.1483 174.569 87.37 174.335 87.5567C174.11 87.7433 173.849 87.8872 173.554 87.9883C173.266 88.0894 172.943 88.14 172.585 88.14ZM182.396 88.14C181.79 88.14 181.245 87.9961 180.763 87.7083C180.289 87.4128 179.911 87.0161 179.631 86.5183C179.359 86.0206 179.223 85.4606 179.223 84.8383C179.223 84.2161 179.363 83.6561 179.643 83.1583C179.923 82.6606 180.3 82.2678 180.775 81.98C181.249 81.6922 181.786 81.5483 182.385 81.5483C182.89 81.5483 183.337 81.6494 183.726 81.8517C184.115 82.0539 184.422 82.3339 184.648 82.6917L184.45 82.995V79.1683H185.756V88H184.508V86.7167L184.66 86.9617C184.442 87.3428 184.131 87.6344 183.726 87.8367C183.322 88.0389 182.879 88.14 182.396 88.14ZM182.525 86.915C182.89 86.915 183.217 86.8256 183.505 86.6467C183.8 86.4678 184.03 86.2228 184.193 85.9117C184.364 85.5928 184.45 85.235 184.45 84.8383C184.45 84.4417 184.364 84.0878 184.193 83.7767C184.03 83.4656 183.8 83.2206 183.505 83.0417C183.217 82.8628 182.89 82.7733 182.525 82.7733C182.159 82.7733 181.829 82.8628 181.533 83.0417C181.237 83.2206 181.008 83.4656 180.845 83.7767C180.681 84.0878 180.6 84.4417 180.6 84.8383C180.6 85.235 180.681 85.5928 180.845 85.9117C181.008 86.2228 181.234 86.4678 181.521 86.6467C181.817 86.8256 182.151 86.915 182.525 86.915ZM190.259 88.14C189.629 88.14 189.069 87.9961 188.579 87.7083C188.096 87.4128 187.719 87.0161 187.447 86.5183C187.175 86.0128 187.039 85.4489 187.039 84.8267C187.039 84.1889 187.175 83.625 187.447 83.135C187.727 82.645 188.1 82.26 188.567 81.98C189.034 81.6922 189.563 81.5483 190.154 81.5483C190.628 81.5483 191.052 81.63 191.425 81.7933C191.799 81.9567 192.114 82.1822 192.37 82.47C192.627 82.75 192.821 83.0728 192.954 83.4383C193.094 83.8039 193.164 84.1928 193.164 84.605C193.164 84.7061 193.16 84.8111 193.152 84.92C193.144 85.0289 193.129 85.13 193.105 85.2233H188.077V84.1733H192.359L191.729 84.6517C191.806 84.2706 191.779 83.9322 191.647 83.6367C191.523 83.3333 191.328 83.0961 191.064 82.925C190.807 82.7461 190.504 82.6567 190.154 82.6567C189.804 82.6567 189.493 82.7461 189.22 82.925C188.948 83.0961 188.738 83.345 188.59 83.6717C188.443 83.9906 188.384 84.3794 188.415 84.8383C188.376 85.2661 188.435 85.6394 188.59 85.9583C188.754 86.2772 188.979 86.5261 189.267 86.705C189.563 86.8839 189.897 86.9733 190.27 86.9733C190.651 86.9733 190.974 86.8878 191.239 86.7167C191.511 86.5456 191.725 86.3239 191.88 86.0517L192.954 86.5767C192.829 86.8722 192.635 87.1406 192.37 87.3817C192.114 87.615 191.803 87.8017 191.437 87.9417C191.079 88.0739 190.686 88.14 190.259 88.14ZM196.618 88V79.3083H199.465C200.367 79.3083 201.149 79.4911 201.81 79.8567C202.479 80.2144 202.996 80.72 203.361 81.3733C203.727 82.0267 203.91 82.785 203.91 83.6483C203.91 84.5039 203.727 85.2622 203.361 85.9233C202.996 86.5767 202.479 87.0861 201.81 87.4517C201.149 87.8172 200.367 88 199.465 88H196.618ZM197.995 86.775H199.488C200.102 86.775 200.635 86.6467 201.086 86.39C201.545 86.1333 201.899 85.7717 202.148 85.305C202.397 84.8383 202.521 84.2861 202.521 83.6483C202.521 83.0106 202.393 82.4622 202.136 82.0033C201.887 81.5367 201.537 81.175 201.086 80.9183C200.635 80.6617 200.102 80.5333 199.488 80.5333H197.995V86.775ZM208.101 88.14C207.471 88.14 206.911 87.9961 206.421 87.7083C205.938 87.4128 205.561 87.0161 205.289 86.5183C205.017 86.0128 204.881 85.4489 204.881 84.8267C204.881 84.1889 205.017 83.625 205.289 83.135C205.569 82.645 205.942 82.26 206.409 81.98C206.876 81.6922 207.404 81.5483 207.996 81.5483C208.47 81.5483 208.894 81.63 209.267 81.7933C209.641 81.9567 209.956 82.1822 210.212 82.47C210.469 82.75 210.663 83.0728 210.796 83.4383C210.936 83.8039 211.006 84.1928 211.006 84.605C211.006 84.7061 211.002 84.8111 210.994 84.92C210.986 85.0289 210.971 85.13 210.947 85.2233H205.919V84.1733H210.201L209.571 84.6517C209.648 84.2706 209.621 83.9322 209.489 83.6367C209.364 83.3333 209.17 83.0961 208.906 82.925C208.649 82.7461 208.346 82.6567 207.996 82.6567C207.646 82.6567 207.334 82.7461 207.062 82.925C206.79 83.0961 206.58 83.345 206.432 83.6717C206.284 83.9906 206.226 84.3794 206.257 84.8383C206.218 85.2661 206.277 85.6394 206.432 85.9583C206.596 86.2772 206.821 86.5261 207.109 86.705C207.404 86.8839 207.739 86.9733 208.112 86.9733C208.493 86.9733 208.816 86.8878 209.081 86.7167C209.353 86.5456 209.567 86.3239 209.722 86.0517L210.796 86.5767C210.671 86.8722 210.477 87.1406 210.212 87.3817C209.956 87.615 209.644 87.8017 209.279 87.9417C208.921 88.0739 208.528 88.14 208.101 88.14ZM214.01 88L211.537 81.6883H212.972L214.873 86.8333H214.348L216.25 81.6883H217.697L215.212 88H214.01ZM221.524 88.14C220.917 88.14 220.361 87.9961 219.855 87.7083C219.358 87.4206 218.961 87.0278 218.665 86.53C218.37 86.0322 218.222 85.4683 218.222 84.8383C218.222 84.2006 218.37 83.6367 218.665 83.1467C218.961 82.6489 219.358 82.26 219.855 81.98C220.353 81.6922 220.909 81.5483 221.524 81.5483C222.146 81.5483 222.702 81.6922 223.192 81.98C223.69 82.26 224.083 82.6489 224.37 83.1467C224.666 83.6367 224.814 84.2006 224.814 84.8383C224.814 85.4761 224.666 86.0439 224.37 86.5417C224.075 87.0394 223.678 87.4322 223.18 87.72C222.683 88 222.13 88.14 221.524 88.14ZM221.524 86.915C221.897 86.915 222.228 86.8256 222.515 86.6467C222.803 86.4678 223.029 86.2228 223.192 85.9117C223.363 85.5928 223.449 85.235 223.449 84.8383C223.449 84.4417 223.363 84.0878 223.192 83.7767C223.029 83.4656 222.803 83.2206 222.515 83.0417C222.228 82.8628 221.897 82.7733 221.524 82.7733C221.158 82.7733 220.828 82.8628 220.532 83.0417C220.244 83.2206 220.015 83.4656 219.844 83.7767C219.68 84.0878 219.599 84.4417 219.599 84.8383C219.599 85.235 219.68 85.5928 219.844 85.9117C220.015 86.2228 220.244 86.4678 220.532 86.6467C220.828 86.8256 221.158 86.915 221.524 86.915ZM226.101 88V79.1683H227.419V88H226.101ZM231.212 88.14C230.738 88.14 230.322 88.035 229.964 87.825C229.606 87.6072 229.326 87.3078 229.124 86.9267C228.929 86.5378 228.832 86.0906 228.832 85.585V81.6883H230.15V85.4683C230.15 85.7561 230.209 86.0089 230.325 86.2267C230.442 86.4444 230.605 86.6156 230.815 86.74C231.025 86.8567 231.267 86.915 231.539 86.915C231.819 86.915 232.064 86.8528 232.274 86.7283C232.484 86.6039 232.647 86.4289 232.764 86.2033C232.888 85.9778 232.95 85.7133 232.95 85.41V81.6883H234.257V88H233.009V86.7633L233.149 86.9267C233.001 87.3156 232.756 87.615 232.414 87.825C232.072 88.035 231.671 88.14 231.212 88.14ZM238.795 88.14C238.165 88.14 237.605 87.9961 237.115 87.7083C236.632 87.4128 236.247 87.0161 235.96 86.5183C235.68 86.0206 235.54 85.4567 235.54 84.8267C235.54 84.2044 235.68 83.6444 235.96 83.1467C236.24 82.6489 236.625 82.26 237.115 81.98C237.605 81.6922 238.165 81.5483 238.795 81.5483C239.222 81.5483 239.623 81.6261 239.996 81.7817C240.37 81.9294 240.692 82.1356 240.965 82.4C241.245 82.6644 241.451 82.9717 241.583 83.3217L240.428 83.8583C240.296 83.5317 240.082 83.2711 239.786 83.0767C239.499 82.8744 239.168 82.7733 238.795 82.7733C238.437 82.7733 238.114 82.8628 237.826 83.0417C237.546 83.2128 237.325 83.4578 237.161 83.7767C236.998 84.0878 236.916 84.4417 236.916 84.8383C236.916 85.235 236.998 85.5928 237.161 85.9117C237.325 86.2228 237.546 86.4678 237.826 86.6467C238.114 86.8256 238.437 86.915 238.795 86.915C239.176 86.915 239.506 86.8178 239.786 86.6233C240.074 86.4211 240.288 86.1528 240.428 85.8183L241.583 86.3667C241.459 86.7011 241.256 87.0044 240.976 87.2767C240.704 87.5411 240.381 87.7511 240.008 87.9067C239.635 88.0622 239.23 88.14 238.795 88.14ZM238.923 90.7417C238.705 90.7417 238.476 90.7067 238.235 90.6367C237.994 90.5667 237.791 90.4656 237.628 90.3333L237.931 89.54C238.048 89.6333 238.176 89.7033 238.316 89.75C238.464 89.8044 238.608 89.8317 238.748 89.8317C238.919 89.8317 239.051 89.7928 239.145 89.715C239.246 89.6372 239.296 89.5322 239.296 89.4C239.296 89.2444 239.203 89.12 239.016 89.0267C238.837 88.9333 238.557 88.8672 238.176 88.8283L238.433 87.8833H239.25L239.121 88.385C239.534 88.4472 239.849 88.5756 240.066 88.77C240.292 88.9644 240.405 89.2094 240.405 89.505C240.405 89.8706 240.269 90.1661 239.996 90.3917C239.724 90.625 239.366 90.7417 238.923 90.7417ZM244.705 88.14C244.277 88.14 243.9 88.0661 243.573 87.9183C243.254 87.7628 243.005 87.5528 242.826 87.2883C242.647 87.0161 242.558 86.6972 242.558 86.3317C242.558 85.9894 242.632 85.6822 242.78 85.41C242.935 85.1378 243.172 84.9083 243.491 84.7217C243.81 84.535 244.211 84.4028 244.693 84.325L246.886 83.9633V85.0017L244.95 85.34C244.6 85.4022 244.343 85.515 244.18 85.6783C244.016 85.8339 243.935 86.0361 243.935 86.285C243.935 86.5261 244.024 86.7244 244.203 86.88C244.39 87.0278 244.627 87.1017 244.915 87.1017C245.272 87.1017 245.583 87.0239 245.848 86.8683C246.12 86.7128 246.33 86.5067 246.478 86.25C246.626 85.9856 246.7 85.6939 246.7 85.375V83.7533C246.7 83.4422 246.583 83.1894 246.35 82.995C246.124 82.7928 245.821 82.6917 245.44 82.6917C245.09 82.6917 244.782 82.785 244.518 82.9717C244.261 83.1506 244.071 83.3839 243.946 83.6717L242.85 83.1233C242.966 82.8122 243.157 82.54 243.421 82.3067C243.686 82.0656 243.993 81.8789 244.343 81.7467C244.701 81.6144 245.078 81.5483 245.475 81.5483C245.972 81.5483 246.412 81.6417 246.793 81.8283C247.182 82.015 247.481 82.2756 247.691 82.61C247.909 82.9367 248.018 83.3178 248.018 83.7533V88H246.758V86.8567L247.026 86.8917C246.878 87.1483 246.688 87.37 246.455 87.5567C246.229 87.7433 245.968 87.8872 245.673 87.9883C245.385 88.0894 245.062 88.14 244.705 88.14ZM246.28 80.5333C246.07 80.5333 245.895 80.4983 245.755 80.4283C245.622 80.3583 245.506 80.2806 245.405 80.195C245.311 80.1094 245.214 80.0317 245.113 79.9617C245.02 79.8917 244.907 79.8567 244.775 79.8567C244.642 79.8567 244.541 79.9072 244.471 80.0083C244.401 80.1094 244.366 80.2689 244.366 80.4867H243.328C243.328 79.9111 243.456 79.4872 243.713 79.215C243.97 78.935 244.288 78.795 244.67 78.795C244.887 78.795 245.062 78.83 245.195 78.9C245.335 78.9622 245.455 79.04 245.556 79.1333C245.657 79.2189 245.755 79.2967 245.848 79.3667C245.949 79.4289 246.062 79.46 246.186 79.46C246.334 79.46 246.439 79.4056 246.501 79.2967C246.571 79.1878 246.606 79.0361 246.606 78.8417H247.633C247.633 79.3861 247.501 79.8061 247.236 80.1017C246.98 80.3894 246.661 80.5333 246.28 80.5333ZM252.604 88.14C251.998 88.14 251.442 87.9961 250.936 87.7083C250.438 87.4206 250.042 87.0278 249.746 86.53C249.45 86.0322 249.303 85.4683 249.303 84.8383C249.303 84.2006 249.45 83.6367 249.746 83.1467C250.042 82.6489 250.438 82.26 250.936 81.98C251.434 81.6922 251.99 81.5483 252.604 81.5483C253.227 81.5483 253.783 81.6922 254.273 81.98C254.77 82.26 255.163 82.6489 255.451 83.1467C255.747 83.6367 255.894 84.2006 255.894 84.8383C255.894 85.4761 255.747 86.0439 255.451 86.5417C255.155 87.0394 254.759 87.4322 254.261 87.72C253.763 88 253.211 88.14 252.604 88.14ZM252.604 86.915C252.978 86.915 253.308 86.8256 253.596 86.6467C253.884 86.4678 254.109 86.2228 254.273 85.9117C254.444 85.5928 254.529 85.235 254.529 84.8383C254.529 84.4417 254.444 84.0878 254.273 83.7767C254.109 83.4656 253.884 83.2206 253.596 83.0417C253.308 82.8628 252.978 82.7733 252.604 82.7733C252.239 82.7733 251.908 82.8628 251.613 83.0417C251.325 83.2206 251.095 83.4656 250.924 83.7767C250.761 84.0878 250.679 84.4417 250.679 84.8383C250.679 85.235 250.761 85.5928 250.924 85.9117C251.095 86.2228 251.325 86.4678 251.613 86.6467C251.908 86.8256 252.239 86.915 252.604 86.915Z" fill="#5D6164"/>
<rect x="98" y="112.167" width="112" height="4.66667" rx="2.33333" fill="#B9C2D0"/>
<rect x="98" y="121.5" width="112" height="4.66667" rx="2.33333" fill="#B9C2D0"/>
<rect x="98" y="100.5" width="163.333" height="7" rx="3.5" fill="#B9C2D0"/>
<rect x="37.3335" y="41.0002" width="42" height="14" rx="7" fill="#FAFAFA"/>
<path d="M58.066 52.0002V46.1296H56.722V45.0469H59.3353V52.0002H58.066Z" fill="#5D6164"/>
<rect x="37.3335" y="59.6667" width="42" height="14" rx="7" fill="#FAFAFA"/>
<path d="M55.9783 70.6667V69.7054L57.8637 67.7361C58.237 67.3441 58.5232 67.033 58.7223 66.8027C58.9277 66.5663 59.0708 66.3641 59.1517 66.1961C59.2325 66.0281 59.273 65.857 59.273 65.6827C59.273 65.3903 59.1797 65.1601 58.993 64.9921C58.8125 64.8241 58.5792 64.7401 58.293 64.7401C57.9943 64.7401 57.7361 64.8272 57.5183 65.0014C57.3005 65.1694 57.1419 65.4183 57.0423 65.7481L55.9317 65.4027C56.0063 65.0356 56.1588 64.7183 56.389 64.4507C56.6192 64.177 56.8992 63.9685 57.229 63.8254C57.565 63.6761 57.9197 63.6014 58.293 63.6014C58.741 63.6014 59.133 63.6823 59.469 63.8441C59.8112 64.0059 60.0757 64.233 60.2623 64.5254C60.4552 64.8179 60.5517 65.1601 60.5517 65.5521C60.5517 65.801 60.505 66.0467 60.4117 66.2894C60.3183 66.5321 60.1783 66.781 59.9917 67.0361C59.805 67.285 59.5623 67.565 59.2637 67.8761L57.6303 69.5934H60.645V70.6667H55.9783Z" fill="#5D6164"/>
<rect x="37.3335" y="78.3335" width="42" height="14" rx="7" fill="#F2CA55"/>
<path d="M58.2153 89.4455C57.8357 89.4455 57.4749 89.3771 57.1326 89.2402C56.7966 89.0971 56.5073 88.8979 56.2646 88.6428C56.0282 88.3815 55.8664 88.0735 55.7793 87.7188L56.89 87.3268C57.002 87.6442 57.1731 87.8868 57.4033 88.0548C57.6335 88.2166 57.9042 88.2975 58.2153 88.2975C58.4642 88.2975 58.6789 88.2508 58.8593 88.1575C59.046 88.0642 59.1922 87.9304 59.298 87.7562C59.4037 87.5757 59.4566 87.3642 59.4566 87.1215C59.4566 86.8788 59.4037 86.6735 59.298 86.5055C59.1984 86.3313 59.0553 86.1975 58.8686 86.1042C58.682 86.0108 58.4611 85.9642 58.206 85.9642C58.0877 85.9642 57.9633 85.9766 57.8326 86.0015C57.7082 86.0264 57.5962 86.0637 57.4966 86.1135L57.2073 85.5068L59.0086 83.4535H56.1713V82.3802H60.4366V83.3788L58.626 85.4975L58.6446 85.0215C59.0615 85.0277 59.4255 85.1179 59.7366 85.2922C60.0477 85.4664 60.2904 85.7059 60.4646 86.0108C60.6389 86.3157 60.726 86.6735 60.726 87.0842C60.726 87.5322 60.6171 87.9366 60.3993 88.2975C60.1815 88.6522 59.8829 88.9322 59.5033 89.1375C59.1237 89.3428 58.6944 89.4455 58.2153 89.4455Z" fill="#3F4346"/>
<rect x="37.3335" y="97" width="42" height="14" rx="7" fill="#FAFAFA"/>
<path d="M58.8081 108V106.469H55.6161V105.405L58.7334 101.047H60.0588V105.405H61.0761V106.469H60.0588V108H58.8081ZM56.5494 105.863L56.3254 105.405H58.8081V102.045L59.1348 102.148L56.5494 105.863Z" fill="#5D6164"/>
<rect x="37.3335" y="115.667" width="42" height="14" rx="7" fill="#FAFAFA"/>
<path d="M58.2344 126.779C57.8673 126.779 57.5157 126.71 57.1797 126.573C56.85 126.436 56.5637 126.243 56.3211 125.995C56.0846 125.739 55.9228 125.438 55.8357 125.089L56.9371 124.697C57.0428 125.015 57.214 125.251 57.4504 125.407C57.6868 125.556 57.9482 125.631 58.2344 125.631C58.4708 125.631 58.6793 125.581 58.8597 125.481C59.0464 125.375 59.1895 125.232 59.2891 125.052C59.3886 124.865 59.4384 124.651 59.4384 124.408C59.4384 124.165 59.3855 123.954 59.2797 123.773C59.1802 123.593 59.0402 123.453 58.8597 123.353C58.6793 123.247 58.4708 123.195 58.2344 123.195C57.9917 123.195 57.7708 123.247 57.5717 123.353C57.3788 123.459 57.2388 123.611 57.1517 123.811L56.1157 123.577L56.6664 119.713H60.4557V120.787H57.1704L57.6464 120.236L57.2544 123.148L56.8904 122.849C57.0646 122.594 57.2762 122.407 57.5251 122.289C57.7802 122.171 58.0882 122.112 58.4491 122.112C58.9095 122.112 59.3077 122.211 59.6437 122.411C59.986 122.61 60.2504 122.88 60.4371 123.223C60.6237 123.565 60.7171 123.96 60.7171 124.408C60.7171 124.856 60.6082 125.26 60.3904 125.621C60.1726 125.982 59.8771 126.265 59.5037 126.471C59.1304 126.676 58.7073 126.779 58.2344 126.779Z" fill="#5D6164"/>
<rect x="4" y="153.333" width="110" height="30" rx="15" fill="#F2CA55"/>
<path d="M23.75 162.333H34.25V163.833H23.75V162.333ZM23.75 169.833H26.75V174.333H31.25V169.833H34.25L29 164.583L23.75 169.833ZM29.75 168.333V172.833H28.25V168.333H27.3725L29 166.706L30.6275 168.333H29.75Z" fill="#3F4346"/>
<path d="M43.536 174.333V163.903H47.33C48.03 163.903 48.646 164.034 49.178 164.295C49.7193 164.547 50.1393 164.921 50.438 165.415C50.7367 165.901 50.886 166.484 50.886 167.165C50.886 167.837 50.732 168.416 50.424 168.901C50.1253 169.387 49.71 169.76 49.178 170.021C48.646 170.283 48.03 170.413 47.33 170.413H45.188V174.333H43.536ZM45.188 168.943H47.372C47.7453 168.943 48.072 168.869 48.352 168.719C48.632 168.57 48.8513 168.365 49.01 168.103C49.1687 167.833 49.248 167.515 49.248 167.151C49.248 166.787 49.1687 166.475 49.01 166.213C48.8513 165.943 48.632 165.737 48.352 165.597C48.072 165.448 47.7453 165.373 47.372 165.373H45.188V168.943ZM55.1348 174.501C54.5655 174.501 54.0661 174.375 53.6368 174.123C53.2075 173.862 52.8715 173.503 52.6288 173.045C52.3955 172.579 52.2788 172.042 52.2788 171.435V166.759H53.8608V171.295C53.8608 171.641 53.9308 171.944 54.0708 172.205C54.2108 172.467 54.4068 172.672 54.6588 172.821C54.9108 172.961 55.2001 173.031 55.5268 173.031C55.8628 173.031 56.1568 172.957 56.4088 172.807C56.6608 172.658 56.8568 172.448 56.9968 172.177C57.1461 171.907 57.2208 171.589 57.2208 171.225V166.759H58.7888V174.333H57.2908V172.849L57.4588 173.045C57.2815 173.512 56.9875 173.871 56.5768 174.123C56.1661 174.375 55.6855 174.501 55.1348 174.501ZM64.6819 174.501C64.0939 174.501 63.5572 174.38 63.0719 174.137C62.5959 173.895 62.2272 173.545 61.9659 173.087L62.1479 172.793V174.333H60.6359V163.735H62.2179V168.327L61.9659 167.963C62.2459 167.534 62.6192 167.198 63.0859 166.955C63.5526 166.713 64.0846 166.591 64.6819 166.591C65.4006 166.591 66.0446 166.764 66.6139 167.109C67.1926 167.455 67.6452 167.926 67.9719 168.523C68.3079 169.121 68.4759 169.793 68.4759 170.539C68.4759 171.286 68.3079 171.958 67.9719 172.555C67.6452 173.153 67.1972 173.629 66.6279 173.983C66.0586 174.329 65.4099 174.501 64.6819 174.501ZM64.5279 173.031C64.9759 173.031 65.3726 172.924 65.7179 172.709C66.0632 172.495 66.3339 172.201 66.5299 171.827C66.7352 171.445 66.8379 171.015 66.8379 170.539C66.8379 170.063 66.7352 169.639 66.5299 169.265C66.3339 168.892 66.0632 168.598 65.7179 168.383C65.3726 168.169 64.9759 168.061 64.5279 168.061C64.0892 168.061 63.6926 168.169 63.3379 168.383C62.9926 168.598 62.7172 168.892 62.5119 169.265C62.3159 169.639 62.2179 170.063 62.2179 170.539C62.2179 171.015 62.3159 171.445 62.5119 171.827C62.7172 172.201 62.9926 172.495 63.3379 172.709C63.6926 172.924 64.0892 173.031 64.5279 173.031ZM70.0148 174.333V163.735H71.5968V174.333H70.0148ZM73.4465 174.333V166.759H75.0285V174.333H73.4465ZM73.4465 165.723V163.903H75.0285V165.723H73.4465ZM80.4761 174.501C79.7201 174.501 79.0481 174.329 78.4601 173.983C77.8814 173.629 77.4194 173.153 77.0741 172.555C76.7381 171.958 76.5701 171.281 76.5701 170.525C76.5701 169.779 76.7381 169.107 77.0741 168.509C77.4101 167.912 77.8721 167.445 78.4601 167.109C79.0481 166.764 79.7201 166.591 80.4761 166.591C80.9894 166.591 81.4701 166.685 81.9181 166.871C82.3661 167.049 82.7534 167.296 83.0801 167.613C83.4161 167.931 83.6634 168.299 83.8221 168.719L82.4361 169.363C82.2774 168.971 82.0208 168.659 81.6661 168.425C81.3208 168.183 80.9241 168.061 80.4761 168.061C80.0468 168.061 79.6594 168.169 79.3141 168.383C78.9781 168.589 78.7121 168.883 78.5161 169.265C78.3201 169.639 78.2221 170.063 78.2221 170.539C78.2221 171.015 78.3201 171.445 78.5161 171.827C78.7121 172.201 78.9781 172.495 79.3141 172.709C79.6594 172.924 80.0468 173.031 80.4761 173.031C80.9334 173.031 81.3301 172.915 81.6661 172.681C82.0114 172.439 82.2681 172.117 82.4361 171.715L83.8221 172.373C83.6728 172.775 83.4301 173.139 83.0941 173.465C82.7674 173.783 82.3801 174.035 81.9321 174.221C81.4841 174.408 80.9988 174.501 80.4761 174.501ZM87.568 174.501C87.0546 174.501 86.602 174.413 86.21 174.235C85.8273 174.049 85.5286 173.797 85.314 173.479C85.0993 173.153 84.992 172.77 84.992 172.331C84.992 171.921 85.0806 171.552 85.258 171.225C85.4446 170.899 85.7293 170.623 86.112 170.399C86.4946 170.175 86.9753 170.017 87.554 169.923L90.186 169.489V170.735L87.862 171.141C87.442 171.216 87.134 171.351 86.938 171.547C86.742 171.734 86.644 171.977 86.644 172.275C86.644 172.565 86.7513 172.803 86.966 172.989C87.19 173.167 87.4746 173.255 87.82 173.255C88.2493 173.255 88.6226 173.162 88.94 172.975C89.2666 172.789 89.5186 172.541 89.696 172.233C89.8733 171.916 89.962 171.566 89.962 171.183V169.237C89.962 168.864 89.822 168.561 89.542 168.327C89.2713 168.085 88.9073 167.963 88.45 167.963C88.03 167.963 87.6613 168.075 87.344 168.299C87.036 168.514 86.8073 168.794 86.658 169.139L85.342 168.481C85.482 168.108 85.7106 167.781 86.028 167.501C86.3453 167.212 86.714 166.988 87.134 166.829C87.5633 166.671 88.016 166.591 88.492 166.591C89.0893 166.591 89.6166 166.703 90.074 166.927C90.5406 167.151 90.9 167.464 91.152 167.865C91.4133 168.257 91.544 168.715 91.544 169.237V174.333H90.032V172.961L90.354 173.003C90.1766 173.311 89.948 173.577 89.668 173.801C89.3973 174.025 89.0846 174.198 88.73 174.319C88.3846 174.441 87.9973 174.501 87.568 174.501ZM93.3937 174.333V166.759H94.9057V168.285L94.7657 168.061C94.9337 167.567 95.2044 167.212 95.5777 166.997C95.9511 166.773 96.3991 166.661 96.9217 166.661H97.3837V168.103H96.7257C96.2031 168.103 95.7784 168.267 95.4517 168.593C95.1344 168.911 94.9757 169.368 94.9757 169.965V174.333H93.3937Z" fill="#3F4346"/>
<rect x="291" y="76.3333" width="34" height="34" rx="17" fill="#FDF4E2"/>
<path d="M301.2 90.7083H309.45V92.2083H301.2V90.7083ZM301.2 89.2083H309.45V87.7083H301.2V89.2083ZM301.2 95.2083H306.45V93.7083H301.2V95.2083ZM312.458 92.8608L312.99 92.3283C313.283 92.0358 313.755 92.0358 314.048 92.3283L314.58 92.8608C314.873 93.1533 314.873 93.6258 314.58 93.9183L314.048 94.4508L312.458 92.8608ZM311.925 93.3933L307.95 97.3683V98.9583H309.54L313.515 94.9833L311.925 93.3933Z" fill="#8C5D00"/>
<path d="M94.4515 44.0627V46.1044H97.8543V54.2711H99.8959V46.1044H103.299V44.0627H94.4515ZM90.3682 49.5072H92.4098V54.2711H94.4515V49.5072H96.4932V47.4655H90.3682V49.5072Z" fill="#5D6164"/>
<path d="M122.362 49.024C123.022 48.5681 123.484 47.8195 123.484 47.1253C123.484 45.5872 122.294 44.4031 120.762 44.4031H116.509V53.9309H121.3C122.722 53.9309 123.825 52.7739 123.825 51.3515C123.825 50.3171 123.239 49.4324 122.362 49.024ZM118.55 46.1045H120.592C121.157 46.1045 121.613 46.5604 121.613 47.1253C121.613 47.6902 121.157 48.1461 120.592 48.1461H118.55V46.1045ZM120.932 52.2295H118.55V50.1878H120.932C121.497 50.1878 121.953 50.6438 121.953 51.2086C121.953 51.7735 121.497 52.2295 120.932 52.2295Z" fill="#5D6164"/>
<path d="M142.139 44.4031V46.4447H143.643L141.315 51.8892H139.417V53.9309H144.861V51.8892H143.357L145.684 46.4447H147.583V44.4031H142.139Z" fill="#5D6164"/>
<path d="M166.833 52.5698C169.086 52.5698 170.917 50.7391 170.917 48.4864V43.042H169.215V48.4864C169.215 49.7999 168.147 50.8684 166.833 50.8684C165.52 50.8684 164.451 49.7999 164.451 48.4864V43.042H162.75V48.4864C162.75 50.7391 164.581 52.5698 166.833 52.5698ZM162.069 53.9309V55.292H171.597V53.9309H162.069Z" fill="#5D6164"/>
<path d="M184.654 49.1669C184.654 48.0032 185.6 47.0572 186.764 47.0572H189.486V45.7642H186.764C184.885 45.7642 183.361 47.2886 183.361 49.1669C183.361 51.0453 184.885 52.5697 186.764 52.5697H189.486V51.2767H186.764C185.6 51.2767 184.654 50.3307 184.654 49.1669ZM187.444 49.8475H192.889V48.4864H187.444V49.8475ZM193.569 45.7642H190.847V47.0572H193.569C194.733 47.0572 195.679 48.0032 195.679 49.1669C195.679 50.3307 194.733 51.2767 193.569 51.2767H190.847V52.5697H193.569C195.448 52.5697 196.972 51.0453 196.972 49.1669C196.972 47.2886 195.448 45.7642 193.569 45.7642Z" fill="#5D6164"/>
<path d="M208.225 48.1461C207.66 48.1461 207.204 48.602 207.204 49.1669C207.204 49.7318 207.66 50.1877 208.225 50.1877C208.79 50.1877 209.246 49.7318 209.246 49.1669C209.246 48.602 208.79 48.1461 208.225 48.1461ZM208.225 44.0627C207.66 44.0627 207.204 44.5187 207.204 45.0836C207.204 45.6484 207.66 46.1044 208.225 46.1044C208.79 46.1044 209.246 45.6484 209.246 45.0836C209.246 44.5187 208.79 44.0627 208.225 44.0627ZM208.225 52.2294C207.66 52.2294 207.204 52.6922 207.204 53.2502C207.204 53.8083 207.667 54.2711 208.225 54.2711C208.783 54.2711 209.246 53.8083 209.246 53.2502C209.246 52.6922 208.79 52.2294 208.225 52.2294ZM210.267 53.9308H219.794V52.5697H210.267V53.9308ZM210.267 49.8475H219.794V48.4864H210.267V49.8475ZM210.267 44.403V45.7641H219.794V44.403H210.267Z" fill="#5D6164"/>
<path d="M241.597 44.4031V53.9309H232.069V44.4031H241.597ZM241.597 43.042H232.069C231.321 43.042 230.708 43.6545 230.708 44.4031V53.9309C230.708 54.6795 231.321 55.292 232.069 55.292H241.597C242.346 55.292 242.958 54.6795 242.958 53.9309V44.4031C242.958 43.6545 242.346 43.042 241.597 43.042ZM238.289 49.0717L236.248 51.7055L234.791 49.9428L232.75 52.5698H240.916L238.289 49.0717Z" fill="#5D6164"/>
</g>
<defs>
<filter id="filter0_d_6421_6818" x="13.2346" y="1.92597" width="309.531" height="216.197" filterUnits="userSpaceOnUse" color-interpolation-filters="sRGB">
<feFlood flood-opacity="0" result="BackgroundImageFix"/>
<feColorMatrix in="SourceAlpha" type="matrix" values="0 0 0 0 0 0 0 0 0 0 0 0 0 0 0 0 0 0 127 0" result="hardAlpha"/>
<feOffset dy="3.69134"/>
<feGaussianBlur stdDeviation="7.38269"/>
<feComposite in2="hardAlpha" operator="out"/>
<feColorMatrix type="matrix" values="0 0 0 0 0 0 0 0 0 0 0 0 0 0 0 0 0 0 0.25 0"/>
<feBlend mode="normal" in2="BackgroundImageFix" result="effect1_dropShadow_6421_6818"/>
<feBlend mode="normal" in="SourceGraphic" in2="effect1_dropShadow_6421_6818" result="shape"/>
</filter>
<clipPath id="clip0_6421_6818">
<rect width="330.667" height="212" fill="white"/>
</clipPath>
</defs>
</svg>
