<svg width="331" height="212" viewBox="0 0 331 212" fill="none" xmlns="http://www.w3.org/2000/svg">
<g clip-path="url(#clip0_6421_6856)">
<g filter="url(#filter0_d_6421_6856)">
<rect x="24.3335" y="13" width="280" height="186.667" rx="5.91921" fill="white"/>
</g>
<ellipse cx="38.3337" cy="27.0002" rx="4.66667" ry="4.66667" fill="#DF434C"/>
<ellipse cx="50.0002" cy="27.0002" rx="4.66667" ry="4.66667" fill="#E7B44C"/>
<ellipse cx="61.6672" cy="27.0002" rx="4.66667" ry="4.66667" fill="#6BD280"/>
<rect x="75.667" y="22.3335" width="219.333" height="9.33333" rx="4.66667" fill="#E1E3E8"/>
<g filter="url(#filter1_d_6421_6856)">
<rect x="0.333496" y="72.3333" width="329" height="28" rx="14" fill="#FAFAFA" shape-rendering="crispEdges"/>
<path d="M13.3415 92.3333V81.7353H14.6435V86.2573L14.4055 86.1313C14.5922 85.6553 14.8908 85.2866 15.3015 85.0253C15.7215 84.7546 16.2115 84.6193 16.7715 84.6193C17.3128 84.6193 17.7935 84.7406 18.2135 84.9833C18.6428 85.2259 18.9788 85.5619 19.2215 85.9913C19.4735 86.4206 19.5995 86.9059 19.5995 87.4473V92.3333H18.2835V87.8673C18.2835 87.4473 18.2042 87.0926 18.0455 86.8033C17.8962 86.5139 17.6862 86.2899 17.4155 86.1313C17.1448 85.9633 16.8322 85.8793 16.4775 85.8793C16.1322 85.8793 15.8195 85.9633 15.5395 86.1313C15.2595 86.2899 15.0402 86.5186 14.8815 86.8173C14.7228 87.1066 14.6435 87.4566 14.6435 87.8673V92.3333H13.3415ZM24.5286 92.4173C23.7913 92.4173 23.2219 92.2073 22.8206 91.7873C22.4286 91.3673 22.2326 90.7746 22.2326 90.0093V86.0333H20.8606V84.7873H21.1406C21.4766 84.7873 21.7426 84.6846 21.9386 84.4793C22.1346 84.2739 22.2326 84.0033 22.2326 83.6673V83.0513H23.5346V84.7873H25.2286V86.0333H23.5346V89.9673C23.5346 90.2193 23.5719 90.4386 23.6466 90.6253C23.7306 90.8119 23.8659 90.9613 24.0526 91.0733C24.2393 91.1759 24.4866 91.2273 24.7946 91.2273C24.8599 91.2273 24.9393 91.2226 25.0326 91.2133C25.1353 91.2039 25.2286 91.1946 25.3126 91.1853V92.3333C25.1913 92.3613 25.0559 92.3799 24.9066 92.3893C24.7573 92.4079 24.6313 92.4173 24.5286 92.4173ZM30.0794 92.4173C29.342 92.4173 28.7727 92.2073 28.3714 91.7873C27.9794 91.3673 27.7834 90.7746 27.7834 90.0093V86.0333H26.4114V84.7873H26.6914C27.0274 84.7873 27.2934 84.6846 27.4894 84.4793C27.6854 84.2739 27.7834 84.0033 27.7834 83.6673V83.0513H29.0854V84.7873H30.7794V86.0333H29.0854V89.9673C29.0854 90.2193 29.1227 90.4386 29.1974 90.6253C29.2814 90.8119 29.4167 90.9613 29.6034 91.0733C29.79 91.1759 30.0374 91.2273 30.3454 91.2273C30.4107 91.2273 30.49 91.2226 30.5834 91.2133C30.686 91.2039 30.7794 91.1946 30.8634 91.1853V92.3333C30.742 92.3613 30.6067 92.3799 30.4574 92.3893C30.308 92.4079 30.182 92.4173 30.0794 92.4173ZM32.5642 95.1333V84.7873H33.8382V86.4113L33.6702 86.0893C33.9502 85.6413 34.3328 85.2866 34.8182 85.0253C35.3035 84.7546 35.8588 84.6193 36.4842 84.6193C37.1935 84.6193 37.8282 84.7919 38.3882 85.1373C38.9575 85.4826 39.4055 85.9539 39.7322 86.5513C40.0588 87.1393 40.2222 87.8113 40.2222 88.5673C40.2222 89.3046 40.0588 89.9719 39.7322 90.5693C39.4055 91.1666 38.9575 91.6379 38.3882 91.9833C37.8282 92.3286 37.1888 92.5013 36.4702 92.5013C35.8635 92.5013 35.3082 92.3659 34.8042 92.0953C34.3095 91.8246 33.9268 91.4419 33.6562 90.9473L33.8662 90.7233V95.1333H32.5642ZM36.3722 91.2413C36.8482 91.2413 37.2728 91.1246 37.6462 90.8913C38.0195 90.6579 38.3088 90.3406 38.5142 89.9393C38.7288 89.5286 38.8362 89.0713 38.8362 88.5673C38.8362 88.0446 38.7288 87.5873 38.5142 87.1953C38.3088 86.7939 38.0195 86.4766 37.6462 86.2433C37.2728 86.0006 36.8482 85.8793 36.3722 85.8793C35.8962 85.8793 35.4668 85.9959 35.0842 86.2293C34.7108 86.4626 34.4122 86.7846 34.1882 87.1953C33.9735 87.5966 33.8662 88.0539 33.8662 88.5673C33.8662 89.0713 33.9735 89.5286 34.1882 89.9393C34.4122 90.3406 34.7108 90.6579 35.0842 90.8913C35.4668 91.1246 35.8962 91.2413 36.3722 91.2413ZM44.6314 92.5013C43.8754 92.5013 43.2174 92.3146 42.6574 91.9413C42.0974 91.5679 41.7007 91.0639 41.4674 90.4293L42.5034 89.9253C42.7181 90.3733 43.0121 90.7279 43.3854 90.9893C43.7587 91.2506 44.1741 91.3813 44.6314 91.3813C45.0421 91.3813 45.3827 91.2833 45.6534 91.0873C45.9241 90.8913 46.0594 90.6346 46.0594 90.3173C46.0594 90.0933 45.9941 89.9159 45.8634 89.7853C45.7421 89.6453 45.5927 89.5379 45.4154 89.4633C45.2381 89.3793 45.0747 89.3186 44.9254 89.2813L43.7914 88.9593C43.1101 88.7633 42.6107 88.4833 42.2934 88.1193C41.9854 87.7553 41.8314 87.3306 41.8314 86.8453C41.8314 86.3973 41.9434 86.0099 42.1674 85.6833C42.4007 85.3473 42.7134 85.0859 43.1054 84.8993C43.5067 84.7126 43.9547 84.6193 44.4494 84.6193C45.1121 84.6193 45.7047 84.7873 46.2274 85.1233C46.7594 85.4593 47.1374 85.9306 47.3614 86.5373L46.2974 87.0273C46.1294 86.6353 45.8774 86.3273 45.5414 86.1033C45.2054 85.8699 44.8274 85.7533 44.4074 85.7533C44.0247 85.7533 43.7214 85.8513 43.4974 86.0473C43.2734 86.2339 43.1614 86.4719 43.1614 86.7613C43.1614 86.9759 43.2174 87.1533 43.3294 87.2933C43.4414 87.4239 43.5767 87.5266 43.7354 87.6013C43.8941 87.6666 44.0481 87.7226 44.1974 87.7693L45.4294 88.1333C46.0454 88.3106 46.5214 88.5859 46.8574 88.9593C47.2027 89.3326 47.3754 89.7806 47.3754 90.3033C47.3754 90.7233 47.2587 91.1013 47.0254 91.4373C46.7921 91.7733 46.4701 92.0346 46.0594 92.2213C45.6487 92.4079 45.1727 92.5013 44.6314 92.5013ZM49.6118 92.3333V90.6533H50.9698V92.3333H49.6118ZM49.6118 86.4673V84.7873H50.9698V86.4673H49.6118ZM52.6131 94.0133L57.3171 82.4773H58.7871L54.0831 94.0133H52.6131ZM58.9842 94.0133L63.6882 82.4773H65.1582L60.4542 94.0133H58.9842ZM68.0013 92.3333L65.4113 84.7873H66.8533L68.9113 91.1013L68.4073 91.0873L70.4233 84.7873H71.6553L73.6713 91.0873L73.1673 91.1013L75.2393 84.7873H76.6673L74.0773 92.3333H72.8313L70.8433 86.0333H71.2353L69.2473 92.3333H68.0013ZM79.5677 92.3333L76.9777 84.7873H78.4197L80.4777 91.1013L79.9737 91.0873L81.9897 84.7873H83.2217L85.2377 91.0873L84.7337 91.1013L86.8057 84.7873H88.2337L85.6437 92.3333H84.3977L82.4097 86.0333H82.8017L80.8137 92.3333H79.5677ZM91.1341 92.3333L88.5441 84.7873H89.9861L92.0441 91.1013L91.5401 91.0873L93.5561 84.7873H94.7881L96.8041 91.0873L96.3001 91.1013L98.3721 84.7873H99.8001L97.2101 92.3333H95.9641L93.9761 86.0333H94.3681L92.3801 92.3333H91.1341ZM100.936 92.3333V90.6533H102.294V92.3333H100.936ZM105.253 95.4133C105.085 95.4133 104.917 95.3993 104.749 95.3713C104.581 95.3526 104.423 95.3106 104.273 95.2453V94.0833C104.376 94.0926 104.502 94.1113 104.651 94.1393C104.81 94.1673 104.964 94.1813 105.113 94.1813C105.552 94.1813 105.883 94.0833 106.107 93.8873C106.341 93.6913 106.56 93.3599 106.765 92.8933L107.241 91.7593L107.213 92.8933L103.993 84.7873H105.407L107.913 91.2273H107.493L109.985 84.7873H111.427L108.025 93.2293C107.867 93.6306 107.661 93.9993 107.409 94.3353C107.167 94.6713 106.868 94.9326 106.513 95.1193C106.159 95.3153 105.739 95.4133 105.253 95.4133ZM116.033 92.5013C115.305 92.5013 114.647 92.3333 114.059 91.9973C113.471 91.6519 113.004 91.1806 112.659 90.5833C112.314 89.9859 112.141 89.3093 112.141 88.5533C112.141 87.7973 112.309 87.1253 112.645 86.5373C112.99 85.9493 113.457 85.4826 114.045 85.1373C114.633 84.7919 115.296 84.6193 116.033 84.6193C116.761 84.6193 117.419 84.7919 118.007 85.1373C118.595 85.4733 119.057 85.9353 119.393 86.5233C119.738 87.1113 119.911 87.7879 119.911 88.5533C119.911 89.3186 119.734 89.9999 119.379 90.5973C119.024 91.1853 118.553 91.6519 117.965 91.9973C117.386 92.3333 116.742 92.5013 116.033 92.5013ZM116.033 91.2413C116.5 91.2413 116.92 91.1246 117.293 90.8913C117.676 90.6579 117.974 90.3359 118.189 89.9253C118.413 89.5146 118.525 89.0573 118.525 88.5533C118.525 88.0399 118.413 87.5873 118.189 87.1953C117.974 86.7939 117.676 86.4766 117.293 86.2433C116.92 86.0006 116.5 85.8793 116.033 85.8793C115.557 85.8793 115.128 86.0006 114.745 86.2433C114.372 86.4766 114.073 86.7939 113.849 87.1953C113.625 87.5873 113.513 88.0399 113.513 88.5533C113.513 89.0573 113.625 89.5146 113.849 89.9253C114.073 90.3359 114.372 90.6579 114.745 90.8913C115.128 91.1246 115.557 91.2413 116.033 91.2413ZM124.283 92.5013C123.742 92.5013 123.252 92.3753 122.813 92.1233C122.384 91.8713 122.048 91.5213 121.805 91.0733C121.572 90.6159 121.455 90.0933 121.455 89.5053V84.7873H122.757V89.3653C122.757 89.7386 122.832 90.0653 122.981 90.3453C123.14 90.6253 123.354 90.8446 123.625 91.0033C123.905 91.1619 124.222 91.2413 124.577 91.2413C124.932 91.2413 125.244 91.1619 125.515 91.0033C125.795 90.8446 126.01 90.6159 126.159 90.3173C126.318 90.0186 126.397 89.6639 126.397 89.2533V84.7873H127.713V92.3333H126.439V90.8633L126.649 90.9893C126.472 91.4653 126.168 91.8386 125.739 92.1093C125.319 92.3706 124.834 92.5013 124.283 92.5013ZM129.73 92.3333V84.7873H131.004V86.1733L130.864 85.9773C131.042 85.5479 131.312 85.2306 131.676 85.0253C132.04 84.8106 132.484 84.7033 133.006 84.7033H133.468V85.9353H132.81C132.278 85.9353 131.849 86.1033 131.522 86.4393C131.196 86.7659 131.032 87.2326 131.032 87.8393V92.3333H129.73ZM134.723 89.1553V87.9653H139.973V89.1553H134.723ZM145.982 92.5013C145.375 92.5013 144.82 92.3659 144.316 92.0953C143.821 91.8246 143.439 91.4419 143.168 90.9473L143.35 90.7233V92.3333H142.076V81.7353H143.378V86.4113L143.182 86.0893C143.462 85.6413 143.845 85.2866 144.33 85.0253C144.815 84.7546 145.371 84.6193 145.996 84.6193C146.705 84.6193 147.34 84.7919 147.9 85.1373C148.469 85.4826 148.917 85.9539 149.244 86.5513C149.571 87.1393 149.734 87.8113 149.734 88.5673C149.734 89.3046 149.571 89.9719 149.244 90.5693C148.917 91.1666 148.469 91.6379 147.9 91.9833C147.34 92.3286 146.701 92.5013 145.982 92.5013ZM145.884 91.2413C146.36 91.2413 146.785 91.1246 147.158 90.8913C147.531 90.6579 147.821 90.3406 148.026 89.9393C148.241 89.5286 148.348 89.0713 148.348 88.5673C148.348 88.0446 148.241 87.5873 148.026 87.1953C147.821 86.7939 147.531 86.4766 147.158 86.2433C146.785 86.0006 146.36 85.8793 145.884 85.8793C145.408 85.8793 144.979 85.9959 144.596 86.2293C144.223 86.4626 143.924 86.7846 143.7 87.1953C143.485 87.5966 143.378 88.0539 143.378 88.5673C143.378 89.0713 143.485 89.5286 143.7 89.9393C143.924 90.3406 144.223 90.6579 144.596 90.8913C144.979 91.1246 145.408 91.2413 145.884 91.2413ZM151.441 92.3333V84.7873H152.715V86.1733L152.575 85.9773C152.752 85.5479 153.023 85.2306 153.387 85.0253C153.751 84.8106 154.194 84.7033 154.717 84.7033H155.179V85.9353H154.521C153.989 85.9353 153.56 86.1033 153.233 86.4393C152.906 86.7659 152.743 87.2326 152.743 87.8393V92.3333H151.441ZM158.548 92.5013C158.053 92.5013 157.614 92.4126 157.232 92.2353C156.858 92.0486 156.564 91.7966 156.35 91.4793C156.135 91.1526 156.028 90.7793 156.028 90.3593C156.028 89.9579 156.112 89.5986 156.28 89.2813C156.457 88.9546 156.728 88.6793 157.092 88.4553C157.465 88.2313 157.932 88.0726 158.492 87.9793L161.292 87.5173V88.6093L158.786 89.0293C158.3 89.1133 157.946 89.2673 157.722 89.4913C157.507 89.7153 157.4 89.9906 157.4 90.3173C157.4 90.6253 157.521 90.8819 157.764 91.0873C158.016 91.2926 158.328 91.3953 158.702 91.3953C159.178 91.3953 159.588 91.2973 159.934 91.1013C160.288 90.8959 160.564 90.6206 160.76 90.2753C160.965 89.9299 161.068 89.5473 161.068 89.1273V87.2093C161.068 86.7986 160.914 86.4673 160.606 86.2153C160.307 85.9539 159.91 85.8233 159.416 85.8233C158.986 85.8233 158.604 85.9353 158.268 86.1593C157.941 86.3739 157.698 86.6633 157.54 87.0273L156.406 86.4393C156.546 86.0939 156.77 85.7859 157.078 85.5153C157.386 85.2353 157.745 85.0159 158.156 84.8573C158.566 84.6986 158.996 84.6193 159.444 84.6193C160.022 84.6193 160.531 84.7313 160.97 84.9553C161.408 85.1699 161.749 85.4733 161.992 85.8653C162.244 86.2479 162.37 86.6959 162.37 87.2093V92.3333H161.096V90.9053L161.334 90.9893C161.175 91.2879 160.96 91.5493 160.69 91.7733C160.419 91.9973 160.102 92.1746 159.738 92.3053C159.374 92.4359 158.977 92.5013 158.548 92.5013ZM164.388 92.3333V84.7873H165.662V86.2573L165.452 86.1313C165.639 85.6553 165.938 85.2866 166.348 85.0253C166.768 84.7546 167.258 84.6193 167.818 84.6193C168.36 84.6193 168.84 84.7406 169.26 84.9833C169.69 85.2259 170.026 85.5619 170.268 85.9913C170.52 86.4206 170.646 86.9059 170.646 87.4473V92.3333H169.33V87.8673C169.33 87.4473 169.256 87.0926 169.106 86.8033C168.957 86.5139 168.742 86.2899 168.462 86.1313C168.192 85.9633 167.879 85.8793 167.524 85.8793C167.17 85.8793 166.852 85.9633 166.572 86.1313C166.302 86.2899 166.087 86.5186 165.928 86.8173C165.77 87.1066 165.69 87.4566 165.69 87.8673V92.3333H164.388ZM175.939 92.5013C175.23 92.5013 174.591 92.3286 174.021 91.9833C173.461 91.6379 173.018 91.1666 172.691 90.5693C172.365 89.9719 172.201 89.3046 172.201 88.5673C172.201 87.8113 172.365 87.1393 172.691 86.5513C173.018 85.9539 173.461 85.4826 174.021 85.1373C174.591 84.7919 175.23 84.6193 175.939 84.6193C176.565 84.6193 177.12 84.7546 177.605 85.0253C178.091 85.2866 178.473 85.6413 178.753 86.0893L178.543 86.4113V81.7353H179.859V92.3333H178.585V90.7233L178.753 90.9473C178.492 91.4419 178.109 91.8246 177.605 92.0953C177.111 92.3659 176.555 92.5013 175.939 92.5013ZM176.051 91.2413C176.527 91.2413 176.952 91.1246 177.325 90.8913C177.699 90.6579 177.993 90.3406 178.207 89.9393C178.431 89.5286 178.543 89.0713 178.543 88.5673C178.543 88.0539 178.431 87.5966 178.207 87.1953C177.993 86.7846 177.699 86.4626 177.325 86.2293C176.952 85.9959 176.527 85.8793 176.051 85.8793C175.585 85.8793 175.16 86.0006 174.777 86.2433C174.404 86.4766 174.11 86.7939 173.895 87.1953C173.681 87.5873 173.573 88.0446 173.573 88.5673C173.573 89.0713 173.681 89.5286 173.895 89.9393C174.11 90.3406 174.404 90.6579 174.777 90.8913C175.151 91.1246 175.575 91.2413 176.051 91.2413ZM182.407 92.3333V90.6533H183.765V92.3333H182.407ZM189.818 92.5013C189.081 92.5013 188.423 92.3286 187.844 91.9833C187.275 91.6379 186.827 91.1666 186.5 90.5693C186.173 89.9719 186.01 89.2999 186.01 88.5533C186.01 87.7973 186.173 87.1253 186.5 86.5373C186.827 85.9493 187.275 85.4826 187.844 85.1373C188.423 84.7919 189.081 84.6193 189.818 84.6193C190.313 84.6193 190.775 84.7079 191.204 84.8853C191.633 85.0626 192.011 85.3006 192.338 85.5993C192.665 85.8979 192.903 86.2479 193.052 86.6493L191.89 87.2093C191.713 86.8173 191.442 86.4999 191.078 86.2573C190.714 86.0053 190.294 85.8793 189.818 85.8793C189.361 85.8793 188.945 85.9959 188.572 86.2293C188.208 86.4626 187.919 86.7799 187.704 87.1813C187.489 87.5826 187.382 88.0446 187.382 88.5673C187.382 89.0713 187.489 89.5286 187.704 89.9393C187.919 90.3406 188.208 90.6579 188.572 90.8913C188.945 91.1246 189.361 91.2413 189.818 91.2413C190.294 91.2413 190.714 91.1199 191.078 90.8773C191.442 90.6253 191.713 90.2939 191.89 89.8833L193.052 90.4713C192.903 90.8633 192.665 91.2133 192.338 91.5213C192.011 91.8199 191.633 92.0579 191.204 92.2353C190.775 92.4126 190.313 92.5013 189.818 92.5013ZM198.338 92.5013C197.61 92.5013 196.952 92.3333 196.364 91.9973C195.776 91.6519 195.309 91.1806 194.964 90.5833C194.618 89.9859 194.446 89.3093 194.446 88.5533C194.446 87.7973 194.614 87.1253 194.95 86.5373C195.295 85.9493 195.762 85.4826 196.35 85.1373C196.938 84.7919 197.6 84.6193 198.338 84.6193C199.066 84.6193 199.724 84.7919 200.312 85.1373C200.9 85.4733 201.362 85.9353 201.698 86.5233C202.043 87.1113 202.216 87.7879 202.216 88.5533C202.216 89.3186 202.038 89.9999 201.684 90.5973C201.329 91.1853 200.858 91.6519 200.27 91.9973C199.691 92.3333 199.047 92.5013 198.338 92.5013ZM198.338 91.2413C198.804 91.2413 199.224 91.1246 199.598 90.8913C199.98 90.6579 200.279 90.3359 200.494 89.9253C200.718 89.5146 200.83 89.0573 200.83 88.5533C200.83 88.0399 200.718 87.5873 200.494 87.1953C200.279 86.7939 199.98 86.4766 199.598 86.2433C199.224 86.0006 198.804 85.8793 198.338 85.8793C197.862 85.8793 197.432 86.0006 197.05 86.2433C196.676 86.4766 196.378 86.7939 196.154 87.1953C195.93 87.5873 195.818 88.0399 195.818 88.5533C195.818 89.0573 195.93 89.5146 196.154 89.9253C196.378 90.3359 196.676 90.6579 197.05 90.8913C197.432 91.1246 197.862 91.2413 198.338 91.2413ZM203.914 92.3333V84.7873H205.188V86.3273L205.006 86.0893C205.192 85.6133 205.491 85.2493 205.902 84.9973C206.312 84.7453 206.774 84.6193 207.288 84.6193C207.876 84.6193 208.403 84.7826 208.87 85.1093C209.346 85.4359 209.672 85.8653 209.85 86.3973L209.486 86.4113C209.682 85.8233 210.013 85.3799 210.48 85.0813C210.946 84.7733 211.464 84.6193 212.034 84.6193C212.556 84.6193 213.028 84.7406 213.448 84.9833C213.877 85.2259 214.218 85.5619 214.47 85.9913C214.722 86.4206 214.848 86.9059 214.848 87.4473V92.3333H213.532V87.8673C213.532 87.4473 213.457 87.0926 213.308 86.8033C213.158 86.5139 212.953 86.2899 212.692 86.1313C212.44 85.9633 212.141 85.8793 211.796 85.8793C211.46 85.8793 211.156 85.9633 210.886 86.1313C210.624 86.2899 210.414 86.5186 210.256 86.8173C210.106 87.1066 210.032 87.4566 210.032 87.8673V92.3333H208.716V87.8673C208.716 87.4473 208.641 87.0926 208.492 86.8033C208.342 86.5139 208.137 86.2899 207.876 86.1313C207.624 85.9633 207.325 85.8793 206.98 85.8793C206.644 85.8793 206.34 85.9633 206.07 86.1313C205.808 86.2899 205.598 86.5186 205.44 86.8173C205.29 87.1066 205.216 87.4566 205.216 87.8673V92.3333H203.914ZM215.787 94.0133L220.491 82.4773H221.961L217.257 94.0133H215.787ZM223.068 92.3333V81.7353H224.37V86.2573L224.132 86.1313C224.319 85.6553 224.617 85.2866 225.028 85.0253C225.448 84.7546 225.938 84.6193 226.498 84.6193C227.039 84.6193 227.52 84.7406 227.94 84.9833C228.369 85.2259 228.705 85.5619 228.948 85.9913C229.2 86.4206 229.326 86.9059 229.326 87.4473V92.3333H228.01V87.8673C228.01 87.4473 227.931 87.0926 227.772 86.8033C227.623 86.5139 227.413 86.2899 227.142 86.1313C226.871 85.9633 226.559 85.8793 226.204 85.8793C225.859 85.8793 225.546 85.9633 225.266 86.1313C224.986 86.2899 224.767 86.5186 224.608 86.8173C224.449 87.1066 224.37 87.4566 224.37 87.8673V92.3333H223.068ZM234.773 92.5013C234.045 92.5013 233.387 92.3333 232.799 91.9973C232.211 91.6519 231.744 91.1806 231.399 90.5833C231.054 89.9859 230.881 89.3093 230.881 88.5533C230.881 87.7973 231.049 87.1253 231.385 86.5373C231.73 85.9493 232.197 85.4826 232.785 85.1373C233.373 84.7919 234.036 84.6193 234.773 84.6193C235.501 84.6193 236.159 84.7919 236.747 85.1373C237.335 85.4733 237.797 85.9353 238.133 86.5233C238.478 87.1113 238.651 87.7879 238.651 88.5533C238.651 89.3186 238.474 89.9999 238.119 90.5973C237.764 91.1853 237.293 91.6519 236.705 91.9973C236.126 92.3333 235.482 92.5013 234.773 92.5013ZM234.773 91.2413C235.24 91.2413 235.66 91.1246 236.033 90.8913C236.416 90.6579 236.714 90.3359 236.929 89.9253C237.153 89.5146 237.265 89.0573 237.265 88.5533C237.265 88.0399 237.153 87.5873 236.929 87.1953C236.714 86.7939 236.416 86.4766 236.033 86.2433C235.66 86.0006 235.24 85.8793 234.773 85.8793C234.297 85.8793 233.868 86.0006 233.485 86.2433C233.112 86.4766 232.813 86.7939 232.589 87.1953C232.365 87.5873 232.253 88.0399 232.253 88.5533C232.253 89.0573 232.365 89.5146 232.589 89.9253C232.813 90.3359 233.112 90.6579 233.485 90.8913C233.868 91.1246 234.297 91.2413 234.773 91.2413ZM240.349 92.3333V84.7873H241.623V86.3273L241.441 86.0893C241.628 85.6133 241.927 85.2493 242.337 84.9973C242.748 84.7453 243.21 84.6193 243.723 84.6193C244.311 84.6193 244.839 84.7826 245.305 85.1093C245.781 85.4359 246.108 85.8653 246.285 86.3973L245.921 86.4113C246.117 85.8233 246.449 85.3799 246.915 85.0813C247.382 84.7733 247.9 84.6193 248.469 84.6193C248.992 84.6193 249.463 84.7406 249.883 84.9833C250.313 85.2259 250.653 85.5619 250.905 85.9913C251.157 86.4206 251.283 86.9059 251.283 87.4473V92.3333H249.967V87.8673C249.967 87.4473 249.893 87.0926 249.743 86.8033C249.594 86.5139 249.389 86.2899 249.127 86.1313C248.875 85.9633 248.577 85.8793 248.231 85.8793C247.895 85.8793 247.592 85.9633 247.321 86.1313C247.06 86.2899 246.85 86.5186 246.691 86.8173C246.542 87.1066 246.467 87.4566 246.467 87.8673V92.3333H245.151V87.8673C245.151 87.4473 245.077 87.0926 244.927 86.8033C244.778 86.5139 244.573 86.2899 244.311 86.1313C244.059 85.9633 243.761 85.8793 243.415 85.8793C243.079 85.8793 242.776 85.9633 242.505 86.1313C242.244 86.2899 242.034 86.5186 241.875 86.8173C241.726 87.1066 241.651 87.4566 241.651 87.8673V92.3333H240.349ZM256.605 92.5013C255.877 92.5013 255.228 92.3286 254.659 91.9833C254.089 91.6379 253.641 91.1666 253.315 90.5693C252.988 89.9626 252.825 89.2859 252.825 88.5393C252.825 87.7833 252.983 87.1113 253.301 86.5233C253.627 85.9353 254.066 85.4733 254.617 85.1373C255.177 84.7919 255.802 84.6193 256.493 84.6193C257.053 84.6193 257.547 84.7219 257.977 84.9273C258.415 85.1233 258.784 85.3939 259.083 85.7393C259.391 86.0753 259.624 86.4626 259.783 86.9013C259.951 87.3306 260.035 87.7786 260.035 88.2453C260.035 88.3479 260.025 88.4646 260.007 88.5953C259.997 88.7166 259.983 88.8333 259.965 88.9453H253.777V87.8253H259.209L258.593 88.3293C258.677 87.8439 258.63 87.4099 258.453 87.0273C258.275 86.6446 258.014 86.3413 257.669 86.1173C257.323 85.8933 256.931 85.7813 256.493 85.7813C256.054 85.7813 255.653 85.8933 255.289 86.1173C254.925 86.3413 254.64 86.6633 254.435 87.0833C254.239 87.4939 254.159 87.9839 254.197 88.5533C254.159 89.1039 254.243 89.5893 254.449 90.0093C254.663 90.4199 254.962 90.7419 255.345 90.9753C255.737 91.1993 256.161 91.3113 256.619 91.3113C257.123 91.3113 257.547 91.1946 257.893 90.9613C258.238 90.7279 258.518 90.4293 258.733 90.0653L259.825 90.6253C259.675 90.9706 259.442 91.2879 259.125 91.5773C258.817 91.8573 258.448 92.0813 258.019 92.2493C257.599 92.4173 257.127 92.5013 256.605 92.5013ZM260.822 94.0133L265.526 82.4773H266.996L262.292 94.0133H260.822ZM271.603 92.5013C270.866 92.5013 270.208 92.3286 269.629 91.9833C269.06 91.6379 268.612 91.1666 268.285 90.5693C267.959 89.9719 267.795 89.2999 267.795 88.5533C267.795 87.7973 267.959 87.1253 268.285 86.5373C268.612 85.9493 269.06 85.4826 269.629 85.1373C270.208 84.7919 270.866 84.6193 271.603 84.6193C272.098 84.6193 272.56 84.7079 272.989 84.8853C273.419 85.0626 273.797 85.3006 274.123 85.5993C274.45 85.8979 274.688 86.2479 274.837 86.6493L273.675 87.2093C273.498 86.8173 273.227 86.4999 272.863 86.2573C272.499 86.0053 272.079 85.8793 271.603 85.8793C271.146 85.8793 270.731 85.9959 270.357 86.2293C269.993 86.4626 269.704 86.7799 269.489 87.1813C269.275 87.5826 269.167 88.0446 269.167 88.5673C269.167 89.0713 269.275 89.5286 269.489 89.9393C269.704 90.3406 269.993 90.6579 270.357 90.8913C270.731 91.1246 271.146 91.2413 271.603 91.2413C272.079 91.2413 272.499 91.1199 272.863 90.8773C273.227 90.6253 273.498 90.2939 273.675 89.8833L274.837 90.4713C274.688 90.8633 274.45 91.2133 274.123 91.5213C273.797 91.8199 273.419 92.0579 272.989 92.2353C272.56 92.4126 272.098 92.5013 271.603 92.5013ZM278.655 92.5013C278.16 92.5013 277.722 92.4126 277.339 92.2353C276.966 92.0486 276.672 91.7966 276.457 91.4793C276.242 91.1526 276.135 90.7793 276.135 90.3593C276.135 89.9579 276.219 89.5986 276.387 89.2813C276.564 88.9546 276.835 88.6793 277.199 88.4553C277.572 88.2313 278.039 88.0726 278.599 87.9793L281.399 87.5173V88.6093L278.893 89.0293C278.408 89.1133 278.053 89.2673 277.829 89.4913C277.614 89.7153 277.507 89.9906 277.507 90.3173C277.507 90.6253 277.628 90.8819 277.871 91.0873C278.123 91.2926 278.436 91.3953 278.809 91.3953C279.285 91.3953 279.696 91.2973 280.041 91.1013C280.396 90.8959 280.671 90.6206 280.867 90.2753C281.072 89.9299 281.175 89.5473 281.175 89.1273V87.2093C281.175 86.7986 281.021 86.4673 280.713 86.2153C280.414 85.9539 280.018 85.8233 279.523 85.8233C279.094 85.8233 278.711 85.9353 278.375 86.1593C278.048 86.3739 277.806 86.6633 277.647 87.0273L276.513 86.4393C276.653 86.0939 276.877 85.7859 277.185 85.5153C277.493 85.2353 277.852 85.0159 278.263 84.8573C278.674 84.6986 279.103 84.6193 279.551 84.6193C280.13 84.6193 280.638 84.7313 281.077 84.9553C281.516 85.1699 281.856 85.4733 282.099 85.8653C282.351 86.2479 282.477 86.6959 282.477 87.2093V92.3333H281.203V90.9053L281.441 90.9893C281.282 91.2879 281.068 91.5493 280.797 91.7733C280.526 91.9973 280.209 92.1746 279.845 92.3053C279.481 92.4359 279.084 92.5013 278.655 92.5013ZM287.425 92.4173C286.688 92.4173 286.118 92.2073 285.717 91.7873C285.325 91.3673 285.129 90.7746 285.129 90.0093V86.0333H283.757V84.7873H284.037C284.373 84.7873 284.639 84.6846 284.835 84.4793C285.031 84.2739 285.129 84.0033 285.129 83.6673V83.0513H286.431V84.7873H288.125V86.0333H286.431V89.9673C286.431 90.2193 286.468 90.4386 286.543 90.6253C286.627 90.8119 286.762 90.9613 286.949 91.0733C287.136 91.1759 287.383 91.2273 287.691 91.2273C287.756 91.2273 287.836 91.2226 287.929 91.2133C288.032 91.2039 288.125 91.1946 288.209 91.1853V92.3333C288.088 92.3613 287.952 92.3799 287.803 92.3893C287.654 92.4079 287.528 92.4173 287.425 92.4173ZM293.177 92.5013C292.449 92.5013 291.8 92.3286 291.231 91.9833C290.661 91.6379 290.213 91.1666 289.887 90.5693C289.56 89.9626 289.397 89.2859 289.397 88.5393C289.397 87.7833 289.555 87.1113 289.873 86.5233C290.199 85.9353 290.638 85.4733 291.189 85.1373C291.749 84.7919 292.374 84.6193 293.065 84.6193C293.625 84.6193 294.119 84.7219 294.549 84.9273C294.987 85.1233 295.356 85.3939 295.655 85.7393C295.963 86.0753 296.196 86.4626 296.355 86.9013C296.523 87.3306 296.607 87.7786 296.607 88.2453C296.607 88.3479 296.597 88.4646 296.579 88.5953C296.569 88.7166 296.555 88.8333 296.537 88.9453H290.349V87.8253H295.781L295.165 88.3293C295.249 87.8439 295.202 87.4099 295.025 87.0273C294.847 86.6446 294.586 86.3413 294.241 86.1173C293.895 85.8933 293.503 85.7813 293.065 85.7813C292.626 85.7813 292.225 85.8933 291.861 86.1173C291.497 86.3413 291.212 86.6633 291.007 87.0833C290.811 87.4939 290.731 87.9839 290.769 88.5533C290.731 89.1039 290.815 89.5893 291.021 90.0093C291.235 90.4199 291.534 90.7419 291.917 90.9753C292.309 91.1993 292.733 91.3113 293.191 91.3113C293.695 91.3113 294.119 91.1946 294.465 90.9613C294.81 90.7279 295.09 90.4293 295.305 90.0653L296.397 90.6253C296.247 90.9706 296.014 91.2879 295.697 91.5773C295.389 91.8573 295.02 92.0813 294.591 92.2493C294.171 92.4173 293.699 92.5013 293.177 92.5013ZM301.902 95.4133C301.37 95.4133 300.876 95.3293 300.418 95.1613C299.97 94.9933 299.583 94.7599 299.256 94.4613C298.939 94.1719 298.696 93.8313 298.528 93.4393L299.746 92.8793C299.877 93.2339 300.124 93.5326 300.488 93.7753C300.862 94.0273 301.328 94.1533 301.888 94.1533C302.318 94.1533 302.705 94.0693 303.05 93.9013C303.405 93.7426 303.685 93.4999 303.89 93.1733C304.096 92.8559 304.198 92.4686 304.198 92.0113V90.3173L304.436 90.5693C304.175 91.0826 303.797 91.4746 303.302 91.7453C302.817 92.0159 302.28 92.1513 301.692 92.1513C300.983 92.1513 300.348 91.9879 299.788 91.6613C299.228 91.3253 298.79 90.8726 298.472 90.3033C298.155 89.7246 297.996 89.0853 297.996 88.3853C297.996 87.6759 298.155 87.0366 298.472 86.4673C298.79 85.8979 299.224 85.4499 299.774 85.1233C300.334 84.7873 300.969 84.6193 301.678 84.6193C302.266 84.6193 302.798 84.7546 303.274 85.0253C303.76 85.2866 304.147 85.6506 304.436 86.1173L304.24 86.4673V84.7873H305.514V92.0113C305.514 92.6646 305.36 93.2479 305.052 93.7613C304.744 94.2746 304.315 94.6759 303.764 94.9653C303.223 95.2639 302.602 95.4133 301.902 95.4133ZM301.804 90.8913C302.252 90.8913 302.654 90.7793 303.008 90.5553C303.372 90.3313 303.662 90.0326 303.876 89.6593C304.091 89.2766 304.198 88.8519 304.198 88.3853C304.198 87.9279 304.091 87.5079 303.876 87.1253C303.662 86.7426 303.372 86.4393 303.008 86.2153C302.654 85.9913 302.252 85.8793 301.804 85.8793C301.347 85.8793 300.932 85.9913 300.558 86.2153C300.185 86.4393 299.891 86.7426 299.676 87.1253C299.471 87.4986 299.368 87.9186 299.368 88.3853C299.368 88.8519 299.471 89.2766 299.676 89.6593C299.891 90.0326 300.18 90.3313 300.544 90.5553C300.918 90.7793 301.338 90.8913 301.804 90.8913ZM308.065 92.3333V90.6533H309.423V92.3333H308.065ZM310.865 92.3333V90.6533H312.223V92.3333H310.865ZM313.665 92.3333V90.6533H315.023V92.3333H313.665Z" fill="#454545"/>
</g>
<g filter="url(#filter2_d_6421_6856)">
<rect x="60.3335" y="128.333" width="209" height="28" rx="14" fill="#DE8644" shape-rendering="crispEdges"/>
<path d="M74.9337 142.333C74.9337 141.193 75.8603 140.267 77.0003 140.267H79.667V139H77.0003C75.1603 139 73.667 140.493 73.667 142.333C73.667 144.173 75.1603 145.667 77.0003 145.667H79.667V144.4H77.0003C75.8603 144.4 74.9337 143.473 74.9337 142.333ZM77.667 143H83.0003V141.667H77.667V143ZM83.667 139H81.0003V140.267H83.667C84.807 140.267 85.7337 141.193 85.7337 142.333C85.7337 143.473 84.807 144.4 83.667 144.4H81.0003V145.667H83.667C85.507 145.667 87.0003 144.173 87.0003 142.333C87.0003 140.493 85.507 139 83.667 139Z" fill="white"/>
<path d="M97.3415 148.333V137.735H98.6435V142.257L98.4055 142.131C98.5922 141.655 98.8908 141.287 99.3015 141.025C99.7215 140.755 100.211 140.619 100.771 140.619C101.313 140.619 101.793 140.741 102.213 140.983C102.643 141.226 102.979 141.562 103.221 141.991C103.473 142.421 103.599 142.906 103.599 143.447V148.333H102.283V143.867C102.283 143.447 102.204 143.093 102.045 142.803C101.896 142.514 101.686 142.29 101.415 142.131C101.145 141.963 100.832 141.879 100.477 141.879C100.132 141.879 99.8195 141.963 99.5395 142.131C99.2595 142.29 99.0402 142.519 98.8815 142.817C98.7228 143.107 98.6435 143.457 98.6435 143.867V148.333H97.3415ZM108.529 148.417C107.791 148.417 107.222 148.207 106.821 147.787C106.429 147.367 106.233 146.775 106.233 146.009V142.033H104.861V140.787H105.141C105.477 140.787 105.743 140.685 105.939 140.479C106.135 140.274 106.233 140.003 106.233 139.667V139.051H107.535V140.787H109.229V142.033H107.535V145.967C107.535 146.219 107.572 146.439 107.647 146.625C107.731 146.812 107.866 146.961 108.053 147.073C108.239 147.176 108.487 147.227 108.795 147.227C108.86 147.227 108.939 147.223 109.033 147.213C109.135 147.204 109.229 147.195 109.313 147.185V148.333C109.191 148.361 109.056 148.38 108.907 148.389C108.757 148.408 108.631 148.417 108.529 148.417ZM114.079 148.417C113.342 148.417 112.773 148.207 112.371 147.787C111.979 147.367 111.783 146.775 111.783 146.009V142.033H110.411V140.787H110.691C111.027 140.787 111.293 140.685 111.489 140.479C111.685 140.274 111.783 140.003 111.783 139.667V139.051H113.085V140.787H114.779V142.033H113.085V145.967C113.085 146.219 113.123 146.439 113.197 146.625C113.281 146.812 113.417 146.961 113.603 147.073C113.79 147.176 114.037 147.227 114.345 147.227C114.411 147.227 114.49 147.223 114.583 147.213C114.686 147.204 114.779 147.195 114.863 147.185V148.333C114.742 148.361 114.607 148.38 114.457 148.389C114.308 148.408 114.182 148.417 114.079 148.417ZM116.564 151.133V140.787H117.838V142.411L117.67 142.089C117.95 141.641 118.333 141.287 118.818 141.025C119.303 140.755 119.859 140.619 120.484 140.619C121.193 140.619 121.828 140.792 122.388 141.137C122.957 141.483 123.405 141.954 123.732 142.551C124.059 143.139 124.222 143.811 124.222 144.567C124.222 145.305 124.059 145.972 123.732 146.569C123.405 147.167 122.957 147.638 122.388 147.983C121.828 148.329 121.189 148.501 120.47 148.501C119.863 148.501 119.308 148.366 118.804 148.095C118.309 147.825 117.927 147.442 117.656 146.947L117.866 146.723V151.133H116.564ZM120.372 147.241C120.848 147.241 121.273 147.125 121.646 146.891C122.019 146.658 122.309 146.341 122.514 145.939C122.729 145.529 122.836 145.071 122.836 144.567C122.836 144.045 122.729 143.587 122.514 143.195C122.309 142.794 122.019 142.477 121.646 142.243C121.273 142.001 120.848 141.879 120.372 141.879C119.896 141.879 119.467 141.996 119.084 142.229C118.711 142.463 118.412 142.785 118.188 143.195C117.973 143.597 117.866 144.054 117.866 144.567C117.866 145.071 117.973 145.529 118.188 145.939C118.412 146.341 118.711 146.658 119.084 146.891C119.467 147.125 119.896 147.241 120.372 147.241ZM128.631 148.501C127.875 148.501 127.217 148.315 126.657 147.941C126.097 147.568 125.701 147.064 125.467 146.429L126.503 145.925C126.718 146.373 127.012 146.728 127.385 146.989C127.759 147.251 128.174 147.381 128.631 147.381C129.042 147.381 129.383 147.283 129.653 147.087C129.924 146.891 130.059 146.635 130.059 146.317C130.059 146.093 129.994 145.916 129.863 145.785C129.742 145.645 129.593 145.538 129.415 145.463C129.238 145.379 129.075 145.319 128.925 145.281L127.791 144.959C127.11 144.763 126.611 144.483 126.293 144.119C125.985 143.755 125.831 143.331 125.831 142.845C125.831 142.397 125.943 142.01 126.167 141.683C126.401 141.347 126.713 141.086 127.105 140.899C127.507 140.713 127.955 140.619 128.449 140.619C129.112 140.619 129.705 140.787 130.227 141.123C130.759 141.459 131.137 141.931 131.361 142.537L130.297 143.027C130.129 142.635 129.877 142.327 129.541 142.103C129.205 141.87 128.827 141.753 128.407 141.753C128.025 141.753 127.721 141.851 127.497 142.047C127.273 142.234 127.161 142.472 127.161 142.761C127.161 142.976 127.217 143.153 127.329 143.293C127.441 143.424 127.577 143.527 127.735 143.601C127.894 143.667 128.048 143.723 128.197 143.769L129.429 144.133C130.045 144.311 130.521 144.586 130.857 144.959C131.203 145.333 131.375 145.781 131.375 146.303C131.375 146.723 131.259 147.101 131.025 147.437C130.792 147.773 130.47 148.035 130.059 148.221C129.649 148.408 129.173 148.501 128.631 148.501ZM133.612 148.333V146.653H134.97V148.333H133.612ZM133.612 142.467V140.787H134.97V142.467H133.612ZM136.613 150.013L141.317 138.477H142.787L138.083 150.013H136.613ZM142.984 150.013L147.688 138.477H149.158L144.454 150.013H142.984ZM150.265 148.333V140.787H151.539V142.327L151.357 142.089C151.544 141.613 151.843 141.249 152.253 140.997C152.664 140.745 153.126 140.619 153.639 140.619C154.227 140.619 154.755 140.783 155.221 141.109C155.697 141.436 156.024 141.865 156.201 142.397L155.837 142.411C156.033 141.823 156.365 141.38 156.831 141.081C157.298 140.773 157.816 140.619 158.385 140.619C158.908 140.619 159.379 140.741 159.799 140.983C160.229 141.226 160.569 141.562 160.821 141.991C161.073 142.421 161.199 142.906 161.199 143.447V148.333H159.883V143.867C159.883 143.447 159.809 143.093 159.659 142.803C159.51 142.514 159.305 142.29 159.043 142.131C158.791 141.963 158.493 141.879 158.147 141.879C157.811 141.879 157.508 141.963 157.237 142.131C156.976 142.29 156.766 142.519 156.607 142.817C156.458 143.107 156.383 143.457 156.383 143.867V148.333H155.067V143.867C155.067 143.447 154.993 143.093 154.843 142.803C154.694 142.514 154.489 142.29 154.227 142.131C153.975 141.963 153.677 141.879 153.331 141.879C152.995 141.879 152.692 141.963 152.421 142.131C152.16 142.29 151.95 142.519 151.791 142.817C151.642 143.107 151.567 143.457 151.567 143.867V148.333H150.265ZM163.581 148.333V146.653H164.939V148.333H163.581ZM168.276 148.333L171.874 143.643L172.126 143.671C171.986 143.858 171.832 144.007 171.664 144.119C171.496 144.222 171.309 144.297 171.104 144.343C170.908 144.39 170.693 144.413 170.46 144.413C169.844 144.413 169.289 144.273 168.794 143.993C168.309 143.704 167.921 143.312 167.632 142.817C167.352 142.313 167.212 141.739 167.212 141.095C167.212 140.451 167.361 139.877 167.66 139.373C167.959 138.869 168.369 138.473 168.892 138.183C169.415 137.885 170.003 137.735 170.656 137.735C171.328 137.735 171.921 137.885 172.434 138.183C172.957 138.473 173.367 138.879 173.666 139.401C173.965 139.915 174.114 140.507 174.114 141.179C174.114 141.543 174.072 141.903 173.988 142.257C173.904 142.612 173.769 142.971 173.582 143.335C173.405 143.699 173.167 144.077 172.868 144.469L169.928 148.333H168.276ZM170.656 143.209C171.057 143.209 171.412 143.121 171.72 142.943C172.037 142.757 172.285 142.505 172.462 142.187C172.639 141.861 172.728 141.497 172.728 141.095C172.728 140.675 172.635 140.307 172.448 139.989C172.271 139.672 172.028 139.42 171.72 139.233C171.412 139.047 171.057 138.953 170.656 138.953C170.264 138.953 169.914 139.047 169.606 139.233C169.298 139.42 169.051 139.672 168.864 139.989C168.687 140.307 168.598 140.675 168.598 141.095C168.598 141.497 168.687 141.861 168.864 142.187C169.041 142.505 169.284 142.757 169.592 142.943C169.909 143.121 170.264 143.209 170.656 143.209ZM175.873 148.333V140.787H177.147V142.327L176.965 142.089C177.151 141.613 177.45 141.249 177.861 140.997C178.271 140.745 178.733 140.619 179.247 140.619C179.835 140.619 180.362 140.783 180.829 141.109C181.305 141.436 181.631 141.865 181.809 142.397L181.445 142.411C181.641 141.823 181.972 141.38 182.439 141.081C182.905 140.773 183.423 140.619 183.993 140.619C184.515 140.619 184.987 140.741 185.407 140.983C185.836 141.226 186.177 141.562 186.429 141.991C186.681 142.421 186.807 142.906 186.807 143.447V148.333H185.491V143.867C185.491 143.447 185.416 143.093 185.267 142.803C185.117 142.514 184.912 142.29 184.651 142.131C184.399 141.963 184.1 141.879 183.755 141.879C183.419 141.879 183.115 141.963 182.845 142.131C182.583 142.29 182.373 142.519 182.215 142.817C182.065 143.107 181.991 143.457 181.991 143.867V148.333H180.675V143.867C180.675 143.447 180.6 143.093 180.451 142.803C180.301 142.514 180.096 142.29 179.835 142.131C179.583 141.963 179.284 141.879 178.939 141.879C178.603 141.879 178.299 141.963 178.029 142.131C177.767 142.29 177.557 142.519 177.399 142.817C177.249 143.107 177.175 143.457 177.175 143.867V148.333H175.873ZM189.188 148.333V146.653H190.546V148.333H189.188ZM193.099 148.333V140.787H194.401V148.333H193.099ZM193.099 139.583V137.903H194.401V139.583H193.099ZM200.006 148.501C199.278 148.501 198.62 148.333 198.032 147.997C197.444 147.652 196.977 147.181 196.632 146.583C196.286 145.986 196.114 145.309 196.114 144.553C196.114 143.797 196.282 143.125 196.618 142.537C196.963 141.949 197.43 141.483 198.018 141.137C198.606 140.792 199.268 140.619 200.006 140.619C200.734 140.619 201.392 140.792 201.98 141.137C202.568 141.473 203.03 141.935 203.366 142.523C203.711 143.111 203.884 143.788 203.884 144.553C203.884 145.319 203.706 146 203.352 146.597C202.997 147.185 202.526 147.652 201.938 147.997C201.359 148.333 200.715 148.501 200.006 148.501ZM200.006 147.241C200.472 147.241 200.892 147.125 201.266 146.891C201.648 146.658 201.947 146.336 202.162 145.925C202.386 145.515 202.498 145.057 202.498 144.553C202.498 144.04 202.386 143.587 202.162 143.195C201.947 142.794 201.648 142.477 201.266 142.243C200.892 142.001 200.472 141.879 200.006 141.879C199.53 141.879 199.1 142.001 198.718 142.243C198.344 142.477 198.046 142.794 197.822 143.195C197.598 143.587 197.486 144.04 197.486 144.553C197.486 145.057 197.598 145.515 197.822 145.925C198.046 146.336 198.344 146.658 198.718 146.891C199.1 147.125 199.53 147.241 200.006 147.241ZM204.672 150.013L209.376 138.477H210.846L206.142 150.013H204.672ZM214.655 148.501C213.899 148.501 213.241 148.315 212.681 147.941C212.121 147.568 211.724 147.064 211.491 146.429L212.527 145.925C212.741 146.373 213.035 146.728 213.409 146.989C213.782 147.251 214.197 147.381 214.655 147.381C215.065 147.381 215.406 147.283 215.677 147.087C215.947 146.891 216.083 146.635 216.083 146.317C216.083 146.093 216.017 145.916 215.887 145.785C215.765 145.645 215.616 145.538 215.439 145.463C215.261 145.379 215.098 145.319 214.949 145.281L213.815 144.959C213.133 144.763 212.634 144.483 212.317 144.119C212.009 143.755 211.855 143.331 211.855 142.845C211.855 142.397 211.967 142.01 212.191 141.683C212.424 141.347 212.737 141.086 213.129 140.899C213.53 140.713 213.978 140.619 214.473 140.619C215.135 140.619 215.728 140.787 216.251 141.123C216.783 141.459 217.161 141.931 217.385 142.537L216.321 143.027C216.153 142.635 215.901 142.327 215.565 142.103C215.229 141.87 214.851 141.753 214.431 141.753C214.048 141.753 213.745 141.851 213.521 142.047C213.297 142.234 213.185 142.472 213.185 142.761C213.185 142.976 213.241 143.153 213.353 143.293C213.465 143.424 213.6 143.527 213.759 143.601C213.917 143.667 214.071 143.723 214.221 143.769L215.453 144.133C216.069 144.311 216.545 144.586 216.881 144.959C217.226 145.333 217.399 145.781 217.399 146.303C217.399 146.723 217.282 147.101 217.049 147.437C216.815 147.773 216.493 148.035 216.083 148.221C215.672 148.408 215.196 148.501 214.655 148.501ZM219.103 148.333V137.735H220.405V142.257L220.167 142.131C220.354 141.655 220.653 141.287 221.063 141.025C221.483 140.755 221.973 140.619 222.533 140.619C223.075 140.619 223.555 140.741 223.975 140.983C224.405 141.226 224.741 141.562 224.983 141.991C225.235 142.421 225.361 142.906 225.361 143.447V148.333H224.045V143.867C224.045 143.447 223.966 143.093 223.807 142.803C223.658 142.514 223.448 142.29 223.177 142.131C222.907 141.963 222.594 141.879 222.239 141.879C221.894 141.879 221.581 141.963 221.301 142.131C221.021 142.29 220.802 142.519 220.643 142.817C220.485 143.107 220.405 143.457 220.405 143.867V148.333H219.103ZM227.224 148.333V140.787H228.498V142.173L228.358 141.977C228.536 141.548 228.806 141.231 229.17 141.025C229.534 140.811 229.978 140.703 230.5 140.703H230.962V141.935H230.304C229.772 141.935 229.343 142.103 229.016 142.439C228.69 142.766 228.526 143.233 228.526 143.839V148.333H227.224ZM235.253 148.417C234.516 148.417 233.947 148.207 233.545 147.787C233.153 147.367 232.957 146.775 232.957 146.009V142.033H231.585V140.787H231.865C232.201 140.787 232.467 140.685 232.663 140.479C232.859 140.274 232.957 140.003 232.957 139.667V139.051H234.259V140.787H235.953V142.033H234.259V145.967C234.259 146.219 234.297 146.439 234.371 146.625C234.455 146.812 234.591 146.961 234.777 147.073C234.964 147.176 235.211 147.227 235.519 147.227C235.585 147.227 235.664 147.223 235.757 147.213C235.86 147.204 235.953 147.195 236.037 147.185V148.333C235.916 148.361 235.781 148.38 235.631 148.389C235.482 148.408 235.356 148.417 235.253 148.417ZM239.222 148.333V139.093H237.248V137.903H240.608V148.333H239.222ZM246.99 148.501C246.383 148.501 245.828 148.366 245.324 148.095C244.829 147.825 244.446 147.442 244.176 146.947L244.358 146.723V148.333H243.084V137.735H244.386V142.411L244.19 142.089C244.47 141.641 244.852 141.287 245.338 141.025C245.823 140.755 246.378 140.619 247.004 140.619C247.713 140.619 248.348 140.792 248.908 141.137C249.477 141.483 249.925 141.954 250.252 142.551C250.578 143.139 250.742 143.811 250.742 144.567C250.742 145.305 250.578 145.972 250.252 146.569C249.925 147.167 249.477 147.638 248.908 147.983C248.348 148.329 247.708 148.501 246.99 148.501ZM246.892 147.241C247.368 147.241 247.792 147.125 248.166 146.891C248.539 146.658 248.828 146.341 249.034 145.939C249.248 145.529 249.356 145.071 249.356 144.567C249.356 144.045 249.248 143.587 249.034 143.195C248.828 142.794 248.539 142.477 248.166 142.243C247.792 142.001 247.368 141.879 246.892 141.879C246.416 141.879 245.986 141.996 245.604 142.229C245.23 142.463 244.932 142.785 244.708 143.195C244.493 143.597 244.386 144.054 244.386 144.567C244.386 145.071 244.493 145.529 244.708 145.939C244.932 146.341 245.23 146.658 245.604 146.891C245.986 147.125 246.416 147.241 246.892 147.241ZM253.014 148.333V142.033H251.572V140.787H253.014V140.255C253.014 139.714 253.131 139.257 253.364 138.883C253.607 138.51 253.924 138.225 254.316 138.029C254.718 137.833 255.161 137.735 255.646 137.735C255.749 137.735 255.861 137.745 255.982 137.763C256.113 137.773 256.22 137.787 256.304 137.805V138.967C256.23 138.949 256.141 138.939 256.038 138.939C255.936 138.93 255.856 138.925 255.8 138.925C255.371 138.925 255.016 139.028 254.736 139.233C254.466 139.439 254.33 139.779 254.33 140.255V140.787H256.122V142.033H254.33V148.333H253.014Z" fill="white"/>
</g>
<path d="M165.333 104.333C165.333 103.781 164.886 103.333 164.333 103.333C163.781 103.333 163.333 103.781 163.333 104.333H165.333ZM163.626 125.04C164.017 125.431 164.65 125.431 165.041 125.04L171.405 118.676C171.795 118.286 171.795 117.653 171.405 117.262C171.014 116.872 170.381 116.872 169.99 117.262L164.333 122.919L158.677 117.262C158.286 116.872 157.653 116.872 157.262 117.262C156.872 117.653 156.872 118.286 157.262 118.676L163.626 125.04ZM163.333 104.333V124.333H165.333V104.333H163.333Z" fill="#8F9396"/>
</g>
<defs>
<filter id="filter0_d_6421_6856" x="9.56812" y="1.92597" width="309.531" height="216.197" filterUnits="userSpaceOnUse" color-interpolation-filters="sRGB">
<feFlood flood-opacity="0" result="BackgroundImageFix"/>
<feColorMatrix in="SourceAlpha" type="matrix" values="0 0 0 0 0 0 0 0 0 0 0 0 0 0 0 0 0 0 127 0" result="hardAlpha"/>
<feOffset dy="3.69134"/>
<feGaussianBlur stdDeviation="7.38269"/>
<feComposite in2="hardAlpha" operator="out"/>
<feColorMatrix type="matrix" values="0 0 0 0 0 0 0 0 0 0 0 0 0 0 0 0 0 0 0.25 0"/>
<feBlend mode="normal" in2="BackgroundImageFix" result="effect1_dropShadow_6421_6856"/>
<feBlend mode="normal" in="SourceGraphic" in2="effect1_dropShadow_6421_6856" result="shape"/>
</filter>
<filter id="filter1_d_6421_6856" x="-3.6665" y="72.3333" width="337" height="36" filterUnits="userSpaceOnUse" color-interpolation-filters="sRGB">
<feFlood flood-opacity="0" result="BackgroundImageFix"/>
<feColorMatrix in="SourceAlpha" type="matrix" values="0 0 0 0 0 0 0 0 0 0 0 0 0 0 0 0 0 0 127 0" result="hardAlpha"/>
<feOffset dy="4"/>
<feGaussianBlur stdDeviation="2"/>
<feComposite in2="hardAlpha" operator="out"/>
<feColorMatrix type="matrix" values="0 0 0 0 0 0 0 0 0 0 0 0 0 0 0 0 0 0 0.15 0"/>
<feBlend mode="normal" in2="BackgroundImageFix" result="effect1_dropShadow_6421_6856"/>
<feBlend mode="normal" in="SourceGraphic" in2="effect1_dropShadow_6421_6856" result="shape"/>
</filter>
<filter id="filter2_d_6421_6856" x="56.3335" y="128.333" width="217" height="36" filterUnits="userSpaceOnUse" color-interpolation-filters="sRGB">
<feFlood flood-opacity="0" result="BackgroundImageFix"/>
<feColorMatrix in="SourceAlpha" type="matrix" values="0 0 0 0 0 0 0 0 0 0 0 0 0 0 0 0 0 0 127 0" result="hardAlpha"/>
<feOffset dy="4"/>
<feGaussianBlur stdDeviation="2"/>
<feComposite in2="hardAlpha" operator="out"/>
<feColorMatrix type="matrix" values="0 0 0 0 0 0 0 0 0 0 0 0 0 0 0 0 0 0 0.15 0"/>
<feBlend mode="normal" in2="BackgroundImageFix" result="effect1_dropShadow_6421_6856"/>
<feBlend mode="normal" in="SourceGraphic" in2="effect1_dropShadow_6421_6856" result="shape"/>
</filter>
<clipPath id="clip0_6421_6856">
<rect width="330.667" height="212" fill="white"/>
</clipPath>
</defs>
</svg>
