<svg width="371" height="80" viewBox="0 0 371 80" fill="none" xmlns="http://www.w3.org/2000/svg">
<g clip-path="url(#clip0_9448_8565)">
<path d="M107.594 58.5524C104.468 58.5524 101.721 57.705 99.3543 56.0101C96.9869 54.3151 95.1337 52.0551 93.7939 49.2303C92.4539 46.3583 91.784 43.2275 91.784 39.8376C91.784 36.2593 92.4762 33.0343 93.8608 30.1623C95.245 27.2433 97.1657 24.9364 99.6221 23.2414C102.078 21.5465 104.915 20.699 108.13 20.699C110.854 20.699 113.244 21.3581 115.299 22.6764C117.353 23.9475 119.05 25.6661 120.39 27.8318V21.3345H128.228V56.5751C128.228 60.2473 127.379 63.3781 125.683 65.9678C124.03 68.6042 121.73 70.6054 118.782 71.9707C115.835 73.3831 112.485 74.0892 108.733 74.0892C104.892 74.0892 101.654 73.4065 99.0192 72.0412C96.4286 70.7229 94.1958 68.84 92.32 66.3915L97.2105 61.3774C98.5503 63.1195 100.225 64.4848 102.235 65.4734C104.289 66.4621 106.456 66.9566 108.733 66.9566C110.609 66.9566 112.328 66.58 113.892 65.8265C115.5 65.1204 116.795 63.9903 117.777 62.4366C118.76 60.9303 119.251 58.9762 119.251 56.5751V51.9141C118.09 54.0326 116.437 55.6804 114.294 56.8574C112.194 57.9875 109.961 58.5524 107.594 58.5524ZM110.609 50.996C112.574 50.996 114.338 50.3838 115.901 49.1598C117.509 47.9358 118.625 46.476 119.251 44.7812V35.9534C118.447 33.7875 117.174 32.0456 115.433 30.7273C113.735 29.409 111.949 28.7499 110.073 28.7499C108.242 28.7499 106.634 29.2913 105.25 30.3743C103.91 31.457 102.86 32.8694 102.101 34.6115C101.341 36.3065 100.962 38.1427 100.962 40.12C100.962 42.1446 101.386 43.9808 102.235 45.6286C103.083 47.2764 104.222 48.5947 105.652 49.5835C107.125 50.525 108.778 50.996 110.609 50.996Z" fill="#494949"/>
<path d="M133.908 47.3941C133.908 44.993 134.533 42.8979 135.784 41.1088C137.079 39.2726 138.866 37.8602 141.144 36.8715C143.421 35.8827 146.034 35.3884 148.982 35.3884C150.456 35.3884 151.952 35.5296 153.47 35.8122C154.988 36.0475 156.306 36.4006 157.423 36.8715V34.8941C157.423 32.54 156.753 30.7273 155.413 29.4562C154.117 28.185 152.175 27.5492 149.585 27.5492C147.664 27.5492 145.833 27.9025 144.091 28.6086C142.349 29.3149 140.518 30.3507 138.598 31.716L135.717 25.5012C138.039 23.9006 140.407 22.7 142.818 21.8995C145.275 21.0991 147.843 20.699 150.523 20.699C155.524 20.699 159.41 22.0172 162.179 24.6539C164.993 27.2903 166.4 31.0568 166.4 35.9534V47.7473C166.4 48.7831 166.556 49.5128 166.869 49.9366C167.181 50.313 167.74 50.5488 168.544 50.6427V58.3406C167.74 58.529 167.003 58.6465 166.333 58.6936C165.707 58.7878 165.171 58.8349 164.725 58.8349C162.938 58.8349 161.576 58.4111 160.639 57.5637C159.701 56.7162 159.142 55.6804 158.964 54.4564L158.763 52.5496C157.199 54.6682 155.279 56.2926 153.001 57.4225C150.768 58.5052 148.468 59.0467 146.101 59.0467C143.734 59.0467 141.635 58.5524 139.804 57.5637C137.972 56.5277 136.521 55.1391 135.449 53.397C134.422 51.6082 133.908 49.6069 133.908 47.3941ZM155.748 49.301C156.864 48.1709 157.423 47.0882 157.423 46.0524V42.3094C155.1 41.3206 152.756 40.8263 150.389 40.8263C148.021 40.8263 146.101 41.3678 144.627 42.4507C143.153 43.4865 142.416 44.8753 142.416 46.6172C142.416 48.0296 142.952 49.301 144.024 50.4309C145.096 51.5608 146.637 52.1259 148.647 52.1259C149.987 52.1259 151.282 51.8667 152.532 51.349C153.827 50.8313 154.899 50.1484 155.748 49.301Z" fill="#494949"/>
<path d="M174.721 6.78711H183.698V46.4768C183.698 48.2189 183.966 49.3722 184.502 49.9373C185.038 50.5023 185.775 50.7846 186.713 50.7846C187.427 50.7846 188.164 50.6907 188.923 50.5023C189.683 50.3137 190.352 50.0785 190.933 49.796L192.139 56.9996C190.933 57.6118 189.526 58.0823 187.919 58.412C186.311 58.7417 184.859 58.9063 183.564 58.9063C180.75 58.9063 178.562 58.1295 176.999 56.5758C175.48 54.9747 174.721 52.7149 174.721 49.796V6.78711Z" fill="#494949"/>
<path d="M195.984 6.78711H204.961V46.4768C204.961 48.2189 205.229 49.3722 205.765 49.9373C206.301 50.5023 207.037 50.7846 207.975 50.7846C208.69 50.7846 209.427 50.6907 210.186 50.5023C210.945 50.3137 211.615 50.0785 212.196 49.796L213.402 56.9996C212.196 57.6118 210.789 58.0823 209.181 58.412C207.573 58.7417 206.122 58.9063 204.827 58.9063C202.013 58.9063 199.824 58.1295 198.261 56.5758C196.743 54.9747 195.984 52.7149 195.984 49.796V6.78711Z" fill="#494949"/>
<path d="M214.901 47.3941C214.901 44.993 215.526 42.8979 216.777 41.1088C218.072 39.2726 219.859 37.8602 222.137 36.8715C224.415 35.8827 227.027 35.3884 229.975 35.3884C231.448 35.3884 232.945 35.5296 234.463 35.8122C235.981 36.0475 237.299 36.4006 238.417 36.8715V34.8941C238.417 32.54 237.745 30.7273 236.406 29.4562C235.112 28.185 233.168 27.5492 230.577 27.5492C228.657 27.5492 226.825 27.9025 225.084 28.6086C223.343 29.3149 221.512 30.3507 219.592 31.716L216.709 25.5012C219.034 23.9006 221.4 22.7 223.81 21.8995C226.267 21.0991 228.836 20.699 231.516 20.699C236.518 20.699 240.404 22.0172 243.173 24.6539C245.985 27.2903 247.394 31.0568 247.394 35.9534V47.7473C247.394 48.7831 247.549 49.5128 247.861 49.9366C248.175 50.313 248.733 50.5488 249.537 50.6427V58.3406C248.733 58.529 247.996 58.6465 247.326 58.6936C246.701 58.7878 246.164 58.8349 245.718 58.8349C243.93 58.8349 242.568 58.4111 241.632 57.5637C240.693 56.7162 240.135 55.6804 239.956 54.4564L239.756 52.5496C238.194 54.6682 236.272 56.2926 233.994 57.4225C231.762 58.5052 229.461 59.0467 227.095 59.0467C224.726 59.0467 222.627 58.5524 220.796 57.5637C218.966 56.5277 217.514 55.1391 216.442 53.397C215.415 51.6082 214.901 49.6069 214.901 47.3941ZM236.741 49.301C237.857 48.1709 238.417 47.0882 238.417 46.0524V42.3094C236.093 41.3206 233.749 40.8263 231.381 40.8263C229.015 40.8263 227.095 41.3678 225.621 42.4507C224.147 43.4865 223.408 44.8753 223.408 46.6172C223.408 48.0296 223.945 49.301 225.017 50.4309C226.088 51.5608 227.629 52.1259 229.64 52.1259C230.979 52.1259 232.274 51.8667 233.526 51.349C234.821 50.8313 235.893 50.1484 236.741 49.301Z" fill="#494949"/>
<path d="M275.747 59.0476C273.067 59.0476 270.678 58.412 268.579 57.1406C266.48 55.8695 264.827 54.1274 263.621 51.9147V58.3412H255.783V6.78711H264.76V27.8324C266.01 25.6198 267.642 23.8777 269.65 22.6065C271.705 21.3354 274.095 20.6997 276.819 20.6997C279.857 20.6997 282.514 21.5943 284.791 23.3834C287.114 25.1253 288.922 27.4558 290.217 30.3749C291.514 33.2939 292.16 36.4956 292.16 39.9796C292.16 43.5577 291.446 46.7827 290.017 49.6547C288.587 52.5269 286.623 54.8101 284.122 56.505C281.665 58.2 278.874 59.0476 275.747 59.0476ZM273.269 50.9966C275.189 50.9966 276.863 50.5023 278.293 49.5135C279.766 48.5248 280.905 47.2063 281.709 45.5587C282.558 43.8638 282.983 42.0276 282.983 40.0501C282.983 38.0257 282.581 36.1659 281.777 34.4709C281.017 32.729 279.945 31.34 278.56 30.3042C277.177 29.2684 275.592 28.7505 273.804 28.7505C271.84 28.7505 270.032 29.4568 268.379 30.8693C266.77 32.2345 265.564 33.9295 264.76 35.9541V44.7819C265.341 46.6181 266.48 48.1244 268.177 49.3017C269.874 50.4316 271.57 50.9966 273.269 50.9966Z" fill="#494949"/>
<path d="M314.453 59.0467C310.613 59.0467 307.307 58.176 304.539 56.4339C301.815 54.6448 299.716 52.2905 298.242 49.3715C296.768 46.4526 296.031 43.2981 296.031 39.9082C296.031 36.4713 296.768 33.2932 298.242 30.3743C299.76 27.4551 301.882 25.1246 304.606 23.3827C307.375 21.5934 310.657 20.699 314.453 20.699C318.25 20.699 321.509 21.5934 324.234 23.3827C327.004 25.1246 329.124 27.4551 330.6 30.3743C332.074 33.2932 332.81 36.4713 332.81 39.9082C332.81 43.2981 332.074 46.4526 330.6 49.3715C329.124 52.2905 327.004 54.6448 324.234 56.4339C321.509 58.176 318.25 59.0467 314.453 59.0467ZM305.276 39.9082C305.276 42.0739 305.678 44.0044 306.482 45.6991C307.286 47.3469 308.379 48.6419 309.764 49.5833C311.149 50.525 312.711 50.996 314.453 50.996C316.151 50.996 317.693 50.525 319.076 49.5833C320.461 48.5947 321.556 47.2764 322.358 45.6286C323.208 43.9336 323.631 42.0033 323.631 39.8376C323.631 37.7189 323.208 35.8355 322.358 34.1878C321.556 32.4928 320.461 31.1745 319.076 30.233C317.693 29.2442 316.151 28.7499 314.453 28.7499C312.711 28.7499 311.149 29.2442 309.764 30.233C308.379 31.1745 307.286 32.4928 306.482 34.1878C305.678 35.8355 305.276 37.7425 305.276 39.9082Z" fill="#494949"/>
<path d="M342.996 21.3354L350.364 32.9173L350.901 34.1887L351.57 32.9173L358.872 21.3354H368.318L356.126 39.7679L368.52 58.3413H359.074L351.503 46.83L350.901 45.6293L350.364 46.83L342.861 58.3413H333.415L345.808 39.9797L333.617 21.3354H342.996Z" fill="#494949"/>
<path d="M61.857 16.8223L38.281 2.33075C36.7895 1.41852 35.0994 0.938477 33.3794 0.938477C31.6592 0.938477 29.9693 1.41852 28.4777 2.33075L4.90162 16.8223C3.41316 17.7408 2.17714 19.0591 1.317 20.6453C0.456867 22.2317 0.00274781 24.0305 0 25.8621V54.8412C0.00311535 56.6728 0.457392 58.4713 1.31748 60.0578C2.17758 61.6439 3.41341 62.9623 4.90162 63.8808L28.4777 78.3764C29.969 79.289 31.6592 79.7694 33.3794 79.7694C35.0994 79.7694 36.7895 79.289 38.281 78.3764L61.857 63.889C63.3446 62.9698 64.58 61.6515 65.4394 60.065C66.2991 58.4789 66.7528 56.6802 66.7549 54.8488V25.8621C66.7528 24.0307 66.2996 22.2319 65.4402 20.6457C64.5804 19.0594 63.345 17.741 61.857 16.8223ZM61.8242 54.8412C61.8229 55.7511 61.5973 56.6446 61.1701 57.4326C60.7429 58.2208 60.129 58.8757 59.3899 59.3317L35.8429 73.8039V44.1671C35.8402 42.5427 35.4328 40.9482 34.6621 39.5458C33.8916 38.1437 32.7855 36.9844 31.4566 36.1858L7.1313 21.5231L7.36888 21.3675L30.945 6.87978C31.6855 6.42599 32.5248 6.18715 33.3794 6.18715C34.2337 6.18715 35.0733 6.42599 35.8137 6.87978L59.3899 21.3675C60.129 21.8248 60.7429 22.4804 61.1701 23.269C61.5973 24.0576 61.8229 24.9517 61.8242 25.8621V54.8412Z" fill="#3364FA"/>
</g>
<defs>
<clipPath id="clip0_9448_8565">
<rect width="370.526" height="80" fill="white"/>
</clipPath>
</defs>
</svg>
