<svg width="81" height="80" viewBox="0 0 81 80" fill="none" xmlns="http://www.w3.org/2000/svg">
<path d="M69.21 16.1194L45.1943 1.41292C43.6749 0.487161 41.9532 0 40.2011 0C38.4489 0 36.7274 0.487161 35.208 1.41292L11.1923 16.1194C9.67604 17.0515 8.41696 18.3893 7.54078 19.9991C6.66461 21.609 6.20202 23.4345 6.19922 25.2932V54.7021C6.20239 56.5609 6.66514 58.3861 7.54128 59.9961C8.41741 61.6057 9.67629 62.9436 11.1923 63.8757L35.208 78.5863C36.7272 79.5125 38.4489 80 40.2011 80C41.9532 80 43.6749 79.5125 45.1943 78.5863L69.21 63.8841C70.7253 62.9513 71.9837 61.6134 72.8591 60.0034C73.7349 58.3937 74.1971 56.5683 74.1992 54.7098V25.2932C74.1971 23.4347 73.7354 21.6093 72.86 19.9995C71.9841 18.3897 70.7257 17.0517 69.21 16.1194ZM69.1765 54.7021C69.1752 55.6255 68.9453 56.5322 68.5102 57.3319C68.0751 58.1318 67.4497 58.7965 66.6968 59.2592L42.7107 73.9461V43.8697C42.7079 42.2212 42.2929 40.603 41.5078 39.1799C40.7229 37.757 39.5962 36.5805 38.2425 35.7701L13.4635 20.8899L13.7055 20.732L37.7214 6.02941C38.4757 5.56889 39.3307 5.32651 40.2011 5.32651C41.0714 5.32651 41.9266 5.56889 42.6809 6.02941L66.6968 20.732C67.4497 21.1961 68.0751 21.8614 68.5102 22.6617C68.9453 23.462 69.1752 24.3694 69.1765 25.2932V54.7021Z" fill="#3364FA"/>
</svg>
