<svg width="65" height="64" viewBox="0 0 65 64" fill="none" xmlns="http://www.w3.org/2000/svg">
<path d="M51.334 24L54.6673 16.6666L62.0006 13.3333L54.6673 9.99996L51.334 2.66663L48.0006 9.99996L40.6673 13.3333L48.0006 16.6666L51.334 24Z" fill="#5D6164"/>
<path d="M51.334 40L48.0006 47.3333L40.6673 50.6666L48.0006 54L51.334 61.3333L54.6673 54L62.0006 50.6666L54.6673 47.3333L51.334 40Z" fill="#5D6164"/>
<path d="M31.334 25.3333L24.6673 10.6666L18.0007 25.3333L3.33398 32L18.0007 38.6666L24.6673 53.3333L31.334 38.6666L46.0006 32L31.334 25.3333ZM27.3073 34.64L24.6673 40.4533L22.0273 34.64L16.214 32L22.0273 29.36L24.6673 23.5466L27.3073 29.36L33.1206 32L27.3073 34.64Z" fill="#5D6164"/>
</svg>
