<svg width="151" height="151" viewBox="0 0 151 151" fill="none" xmlns="http://www.w3.org/2000/svg">
<g clip-path="url(#clip0_6352_2626)">
<mask id="mask0_6352_2626" style="mask-type:luminance" maskUnits="userSpaceOnUse" x="0" y="1" width="150" height="150">
<path d="M44.2223 1.66767C36.2819 2.04245 30.8585 3.3143 26.1194 5.17129C21.2135 7.08384 17.0547 9.64694 12.9177 13.8009C8.77573 17.9574 6.23209 22.1235 4.33409 27.0343C2.49645 31.7856 1.2512 37.2115 0.900555 45.1568C0.552421 53.1168 0.472585 55.6556 0.511391 75.9204C0.550048 96.1828 0.63948 98.7264 1.01906 106.689C1.39863 114.627 2.66573 120.048 4.5227 124.79C6.43768 129.696 8.99815 133.852 13.1545 137.992C17.3085 142.131 21.477 144.672 26.3902 146.573C31.1366 148.408 36.5648 149.658 44.5077 150.006C52.4675 150.357 55.0086 150.434 75.2684 150.396C95.5378 150.357 98.079 150.267 106.039 149.89C113.979 149.511 119.398 148.239 124.142 146.387C129.048 144.467 133.206 141.911 137.343 137.755C141.481 133.6 144.024 129.432 145.922 124.519C147.76 119.772 149.01 114.344 149.356 106.406C149.704 98.4412 149.786 95.8975 149.747 75.6351C149.709 55.3702 149.617 52.8314 149.24 44.874C148.862 36.9286 147.591 31.51 145.736 26.766C143.819 21.86 141.261 17.7059 137.107 13.564C132.953 9.4269 128.784 6.87835 123.871 4.98512C119.122 3.14747 113.696 1.89494 105.753 1.5516C97.7936 1.19858 95.2525 1.12126 74.9855 1.15993C54.7234 1.1986 52.1822 1.28567 44.2223 1.66767ZM45.0929 136.575C37.8173 136.258 33.8665 135.049 31.2334 134.036C27.7467 132.687 25.2587 131.069 22.6401 128.47C20.0263 125.861 18.4039 123.38 17.0426 119.9C16.0197 117.267 14.7891 113.321 14.4482 106.046C14.0782 98.18 13.9936 95.8201 13.9573 75.8938C13.9187 55.9724 13.9911 53.6124 14.3345 45.7396C14.6464 38.4688 15.8627 34.5131 16.8733 31.8823C18.2225 28.3908 19.8352 25.9076 22.4394 23.289C25.0482 20.6703 27.529 19.0527 31.0108 17.6914C33.6415 16.6637 37.5876 15.4427 44.8607 15.097C52.731 14.7246 55.0884 14.6448 75.0097 14.6061C94.9356 14.5674 97.2955 14.6376 105.168 14.9833C112.439 15.3 116.395 16.5042 119.023 17.5222C122.512 18.8713 125 20.4793 127.616 23.0883C130.232 25.6973 131.855 28.1732 133.216 31.6623C134.244 34.2857 135.465 38.2367 135.808 45.5075C136.183 53.3779 136.268 55.7378 136.304 75.6593C136.342 95.5856 136.27 97.9454 135.924 105.813C135.607 113.089 134.401 117.042 133.385 119.678C132.036 123.162 130.423 125.65 127.817 128.269C125.21 130.878 122.73 132.505 119.245 133.866C116.62 134.892 112.669 136.115 105.4 136.461C97.5302 136.831 95.1727 136.915 75.2442 136.952C55.323 136.99 52.9656 136.916 45.0929 136.575ZM105.93 35.8865C105.94 40.8288 109.958 44.8305 114.9 44.8208C119.845 44.8111 123.847 40.7949 123.839 35.8526C123.83 30.9103 119.811 26.9063 114.867 26.9159C109.922 26.9256 105.92 30.9442 105.93 35.8865ZM36.8115 75.8503C36.8526 97.0146 54.0415 114.134 75.2007 114.093C96.3623 114.051 113.491 96.8671 113.45 75.7028C113.409 54.5458 96.2172 37.417 75.0532 37.4581C53.894 37.4992 36.7704 54.6909 36.8115 75.8503ZM50.2526 75.8237C50.2284 62.0873 61.3461 50.9285 75.0798 50.9043C88.816 50.8778 99.9771 61.9906 100.004 75.7294C100.03 89.4682 88.9127 100.625 75.1741 100.651C61.4404 100.678 50.2792 89.5625 50.2526 75.8237Z" fill="white"/>
</mask>
<g mask="url(#mask0_6352_2626)">
<mask id="mask1_6352_2626" style="mask-type:luminance" maskUnits="userSpaceOnUse" x="-6" y="-5" width="162" height="162">
<path d="M155.666 -4.69374H-5.52808V156.502H155.666V-4.69374Z" fill="white"/>
</mask>
<g mask="url(#mask1_6352_2626)">
<mask id="mask2_6352_2626" style="mask-type:luminance" maskUnits="userSpaceOnUse" x="-7" y="-6" width="164" height="164">
<path d="M156.412 -5.44006H-6.27441V157.249H156.412V-5.44006Z" fill="white"/>
</mask>
<g mask="url(#mask2_6352_2626)">
<mask id="mask3_6352_2626" style="mask-type:luminance" maskUnits="userSpaceOnUse" x="-7" y="-6" width="164" height="164">
<path d="M156.412 -5.44006H-6.27441V157.249H156.412V-5.44006Z" fill="white"/>
</mask>
<g mask="url(#mask3_6352_2626)">
<rect x="-6.32739" y="-5.46402" width="162.77" height="162.77" fill="white"/>
</g>
</g>
</g>
</g>
</g>
<defs>
<clipPath id="clip0_6352_2626">
<rect width="150" height="150" fill="white" transform="translate(0.129395 0.777771)"/>
</clipPath>
</defs>
</svg>
