<svg width="150" height="152" viewBox="0 0 150 152" fill="none" xmlns="http://www.w3.org/2000/svg">
<g clip-path="url(#clip0_6352_2651)">
<path fill-rule="evenodd" clip-rule="evenodd" d="M128.144 22.4856C114.045 8.36875 95.2942 0.590498 75.315 0.583336C34.1462 0.583336 0.641025 34.085 0.6267 75.2646C0.619538 88.4288 4.06102 101.278 10.5966 112.602L0 151.307L39.5932 140.921C50.5012 146.873 62.7846 150.007 75.2829 150.01H75.315C116.477 150.01 149.986 116.505 150 75.3254C150.007 55.3679 142.247 36.6061 128.144 22.4892V22.4856ZM75.315 137.398H75.29C64.1525 137.394 53.2267 134.4 43.6937 128.745L41.4267 127.399L17.9308 133.562L24.2014 110.653L22.726 108.304C16.5127 98.4204 13.2287 86.9963 13.2359 75.2683C13.2502 41.0432 41.0972 13.1961 75.3404 13.1961C91.9208 13.2033 107.506 19.6673 119.227 31.4027C130.948 43.1346 137.398 58.7342 137.391 75.3183C137.376 109.547 109.53 137.394 75.315 137.394V137.398ZM109.365 90.9071C107.499 89.9725 98.3242 85.46 96.6121 84.8371C94.9004 84.2138 93.6579 83.9025 92.415 85.7717C91.1725 87.6412 87.595 91.8454 86.5063 93.0879C85.4175 94.3342 84.3287 94.4883 82.4629 93.5533C80.5975 92.6188 74.5846 90.6492 67.4546 84.2925C61.9075 79.3433 58.1613 73.2342 57.0729 71.3646C55.9842 69.4954 56.9583 68.4854 57.8892 67.5579C58.7271 66.72 59.755 65.3771 60.6896 64.2883C61.6246 63.1996 61.9325 62.4192 62.5554 61.1763C63.1787 59.93 62.8671 58.8417 62.4017 57.9067C61.9358 56.9721 58.2046 47.7863 56.6467 44.0513C55.1317 40.4129 53.5921 40.9071 52.4496 40.8462C51.3608 40.7925 50.1183 40.7818 48.8721 40.7818C47.6258 40.7818 45.6058 41.2473 43.8942 43.1167C42.1825 44.9858 37.3621 49.5017 37.3621 58.6837C37.3621 67.8658 44.0483 76.7438 44.9829 77.99C45.9175 79.2363 58.1433 98.0838 76.8621 106.17C81.3137 108.093 84.7908 109.243 87.5017 110.102C91.9712 111.524 96.0392 111.323 99.255 110.843C102.84 110.306 110.296 106.328 111.85 101.969C113.404 97.6108 113.404 93.8721 112.939 93.095C112.473 92.3179 111.227 91.8488 109.361 90.9142L109.365 90.9071Z" fill="white"/>
</g>
<defs>
<clipPath id="clip0_6352_2651">
<rect width="150" height="150.833" fill="white" transform="translate(0 0.583336)"/>
</clipPath>
</defs>
</svg>
