<svg width="64" height="64" viewBox="0 0 64 64" fill="none" xmlns="http://www.w3.org/2000/svg">
<path d="M31.9998 50.6666C29.0665 50.6666 26.6665 53.0666 26.6665 56C26.6665 58.9333 29.0665 61.3333 31.9998 61.3333C34.9332 61.3333 37.3332 58.9333 37.3332 56C37.3332 53.0666 34.9332 50.6666 31.9998 50.6666ZM15.9998 2.66663C13.0665 2.66663 10.6665 5.06663 10.6665 7.99996C10.6665 10.9333 13.0665 13.3333 15.9998 13.3333C18.9332 13.3333 21.3332 10.9333 21.3332 7.99996C21.3332 5.06663 18.9332 2.66663 15.9998 2.66663ZM15.9998 18.6666C13.0665 18.6666 10.6665 21.0666 10.6665 24C10.6665 26.9333 13.0665 29.3333 15.9998 29.3333C18.9332 29.3333 21.3332 26.9333 21.3332 24C21.3332 21.0666 18.9332 18.6666 15.9998 18.6666ZM15.9998 34.6666C13.0665 34.6666 10.6665 37.0666 10.6665 40C10.6665 42.9333 13.0665 45.3333 15.9998 45.3333C18.9332 45.3333 21.3332 42.9333 21.3332 40C21.3332 37.0666 18.9332 34.6666 15.9998 34.6666ZM47.9998 13.3333C50.9332 13.3333 53.3332 10.9333 53.3332 7.99996C53.3332 5.06663 50.9332 2.66663 47.9998 2.66663C45.0665 2.66663 42.6665 5.06663 42.6665 7.99996C42.6665 10.9333 45.0665 13.3333 47.9998 13.3333ZM31.9998 34.6666C29.0665 34.6666 26.6665 37.0666 26.6665 40C26.6665 42.9333 29.0665 45.3333 31.9998 45.3333C34.9332 45.3333 37.3332 42.9333 37.3332 40C37.3332 37.0666 34.9332 34.6666 31.9998 34.6666ZM47.9998 34.6666C45.0665 34.6666 42.6665 37.0666 42.6665 40C42.6665 42.9333 45.0665 45.3333 47.9998 45.3333C50.9332 45.3333 53.3332 42.9333 53.3332 40C53.3332 37.0666 50.9332 34.6666 47.9998 34.6666ZM47.9998 18.6666C45.0665 18.6666 42.6665 21.0666 42.6665 24C42.6665 26.9333 45.0665 29.3333 47.9998 29.3333C50.9332 29.3333 53.3332 26.9333 53.3332 24C53.3332 21.0666 50.9332 18.6666 47.9998 18.6666ZM31.9998 18.6666C29.0665 18.6666 26.6665 21.0666 26.6665 24C26.6665 26.9333 29.0665 29.3333 31.9998 29.3333C34.9332 29.3333 37.3332 26.9333 37.3332 24C37.3332 21.0666 34.9332 18.6666 31.9998 18.6666ZM31.9998 2.66663C29.0665 2.66663 26.6665 5.06663 26.6665 7.99996C26.6665 10.9333 29.0665 13.3333 31.9998 13.3333C34.9332 13.3333 37.3332 10.9333 37.3332 7.99996C37.3332 5.06663 34.9332 2.66663 31.9998 2.66663Z" fill="#5D6164"/>
</svg>
