<svg width="40" height="40" viewBox="0 0 40 40" fill="none" xmlns="http://www.w3.org/2000/svg">
<path d="M3.33325 10C3.33325 7.23858 5.57183 5 8.33325 5H31.6666C34.428 5 36.6666 7.23858 36.6666 10V25C36.6666 27.7614 34.428 30 31.6666 30H8.33325C5.57183 30 3.33325 27.7614 3.33325 25V10Z" fill="#F2CA55"/>
<path fill-rule="evenodd" clip-rule="evenodd" d="M16.4168 18.3333C16.4168 20.3123 18.0211 21.9166 20.0002 21.9166C21.9792 21.9166 23.5835 20.3123 23.5835 18.3333H26.4168C26.4168 21.8771 23.544 24.7499 20.0002 24.7499C16.4563 24.7499 13.5835 21.8771 13.5835 18.3333H16.4168Z" fill="#8C5D00"/>
<path fill-rule="evenodd" clip-rule="evenodd" d="M15.25 14.9999V10.8333H18.0833V14.9999H15.25ZM21.9167 14.9999V10.8333H24.75V14.9999H21.9167Z" fill="#8C5D00"/>
<path d="M23.3334 30V35L16.6667 30H23.3334Z" fill="#8C5D00"/>
</svg>
