<svg width="40" height="40" viewBox="0 0 40 40" fill="none" xmlns="http://www.w3.org/2000/svg">
<path d="M3.33203 10C3.33203 7.23858 5.57061 5 8.33203 5H31.6654C34.4268 5 36.6654 7.23858 36.6654 10V25C36.6654 27.7614 34.4268 30 31.6654 30H8.33203C5.57061 30 3.33203 27.7614 3.33203 25V10Z" fill="#F2CA55"/>
<path fillRule="evenodd" clip-rule="evenodd" d="M16.4154 18.3335C16.4154 20.3125 18.0197 21.9168 19.9987 21.9168C21.9777 21.9168 23.582 20.3125 23.582 18.3335H26.4154C26.4154 21.8773 23.5425 24.7502 19.9987 24.7502C16.4549 24.7502 13.582 21.8773 13.582 18.3335H16.4154Z" fill="#8C5D00"/>
<path fillRule="evenodd" clip-rule="evenodd" d="M15.25 15.0002V10.8335H18.0833V15.0002H15.25ZM21.9167 15.0002V10.8335H24.75V15.0002H21.9167Z" fill="#8C5D00"/>
<path d="M23.3346 30V35L16.668 30H23.3346Z" fill="#8C5D00"/>
</svg>
