<svg width="40" height="40" viewBox="0 0 40 40" fill="none" xmlns="http://www.w3.org/2000/svg">
<path d="M3.33398 11.6668C3.33398 7.06446 7.06495 3.3335 11.6673 3.3335H36.6673V20.397C36.6673 24.9994 32.9364 28.7303 28.334 28.7303H11.2705L3.33398 36.6668V11.6668Z" fill="#3A73B5"/>
<path d="M16.0314 17.6983C16.0314 19.0133 14.9654 20.0793 13.6505 20.0793C12.3355 20.0793 11.2695 19.0133 11.2695 17.6983C11.2695 16.3834 12.3355 15.3174 13.6505 15.3174C14.9654 15.3174 16.0314 16.3834 16.0314 17.6983Z" fill="#0D4680"/>
<path d="M24.0474 17.6983C24.0474 19.0133 22.9814 20.0793 21.6664 20.0793C20.3515 20.0793 19.2855 19.0133 19.2855 17.6983C19.2855 16.3834 20.3515 15.3174 21.6664 15.3174C22.9814 15.3174 24.0474 16.3834 24.0474 17.6983Z" fill="#0D4680"/>
<path d="M32.0629 17.6983C32.0629 19.0133 30.9969 20.0793 29.682 20.0793C28.367 20.0793 27.301 19.0133 27.301 17.6983C27.301 16.3834 28.367 15.3174 29.682 15.3174C30.9969 15.3174 32.0629 16.3834 32.0629 17.6983Z" fill="#0D4680"/>
<path d="M14.3654 16.0318C14.3654 17.3468 13.2994 18.4128 11.9845 18.4128C10.6695 18.4128 9.60352 17.3468 9.60352 16.0318C9.60352 14.7169 10.6695 13.6509 11.9845 13.6509C13.2994 13.6509 14.3654 14.7169 14.3654 16.0318Z" fill="white"/>
<path d="M22.3814 16.0318C22.3814 17.3468 21.3154 18.4128 20.0004 18.4128C18.6855 18.4128 17.6195 17.3468 17.6195 16.0318C17.6195 14.7169 18.6855 13.6509 20.0004 13.6509C21.3154 13.6509 22.3814 14.7169 22.3814 16.0318Z" fill="white"/>
<path d="M30.3969 16.0318C30.3969 17.3468 29.3309 18.4128 28.016 18.4128C26.701 18.4128 25.635 17.3468 25.635 16.0318C25.635 14.7169 26.701 13.6509 28.016 13.6509C29.3309 13.6509 30.3969 14.7169 30.3969 16.0318Z" fill="white"/>
</svg>
