<svg width="30" height="30" viewBox="0 0 30 30" fill="none" xmlns="http://www.w3.org/2000/svg">
<g clip-path="url(#clip0_229_10063)">
<path d="M25 2.5H5C3.625 2.5 2.5 3.625 2.5 5V27.5L7.5 22.5H25C26.375 22.5 27.5 21.375 27.5 20V5C27.5 3.625 26.375 2.5 25 2.5ZM25 20H7.5L5 22.5V5H25V20Z" fill="#DE8644"/>
<path d="M15 18.125C15.6346 18.125 16.1538 17.6058 16.1538 16.9712H13.8461C13.8461 17.6058 14.3596 18.125 15 18.125ZM18.4615 14.6635V11.7788C18.4615 10.0077 17.5154 8.525 15.8654 8.13269V7.74038C15.8654 7.26154 15.4788 6.875 15 6.875C14.5211 6.875 14.1346 7.26154 14.1346 7.74038V8.13269C12.4788 8.525 11.5384 10.0019 11.5384 11.7788V14.6635L10.3846 15.8173V16.3942H19.6154V15.8173L18.4615 14.6635Z" fill="#DE8644"/>
</g>
<defs>
<clipPath id="clip0_229_10063">
<rect width="30" height="30" fill="white"/>
</clipPath>
</defs>
</svg>
