<svg width="40" height="40" viewBox="0 0 40 40" fill="none" xmlns="http://www.w3.org/2000/svg">
<path d="M19.0013 2.24385C19.6201 1.88659 20.3825 1.88659 21.0013 2.24385L34.8784 10.2558C35.4972 10.6131 35.8784 11.2733 35.8784 11.9879V28.0118C35.8784 28.7263 35.4972 29.3866 34.8784 29.7439L21.0013 37.7558C20.3825 38.1131 19.6201 38.1131 19.0013 37.7558L5.12417 29.7439C4.50537 29.3866 4.12417 28.7263 4.12417 28.0118V11.9879C4.12417 11.2733 4.50537 10.6131 5.12417 10.2558L19.0013 2.24385Z" fill="#3A73B5"/>
<path d="M28.6635 2.81738L39.2137 8.90855V21.0909L28.6635 27.1821L18.1133 21.0909V8.90855L28.6635 2.81738Z" fill="white"/>
<path d="M28.8848 6.6665L36.1017 10.8332V19.1665L28.8848 23.3332L21.668 19.1665V10.8332L28.8848 6.6665Z" fill="#E65CA1"/>
</svg>
