<svg width="30" height="30" viewBox="0 0 30 30" fill="none" xmlns="http://www.w3.org/2000/svg">
<path d="M15 2.5C11.6855 2.5 8.50391 3.81777 6.16211 6.16113C3.81836 8.50449 2.5 11.6861 2.5 15C2.5 18.3139 3.81836 21.4955 6.16211 23.8389C8.50391 26.1822 11.6855 27.5 15 27.5C18.3145 27.5 21.4961 26.1822 23.8379 23.8389C26.1816 21.4955 27.5 18.3139 27.5 15C27.5 11.6861 26.1816 8.50449 23.8379 6.16113C21.4961 3.81777 18.3145 2.5 15 2.5V2.5Z" fill="url(#paint0_linear_869_14518)"/>
<path d="M8.15964 14.868C11.8042 13.2805 14.2338 12.2338 15.4487 11.7281C18.9213 10.2842 19.642 10.0334 20.1127 10.025C20.2162 10.0232 20.4467 10.0488 20.5971 10.1705C20.7221 10.273 20.7573 10.4117 20.7748 10.509C20.7905 10.6062 20.812 10.8279 20.7944 11.001C20.6069 12.9775 19.7924 17.774 19.3784 19.9879C19.2046 20.9246 18.8588 21.2387 18.5248 21.2694C17.7983 21.3362 17.2475 20.7897 16.5443 20.3289C15.4447 19.6076 14.8237 19.1588 13.7553 18.4551C12.521 17.6418 13.3217 17.1947 14.0248 16.4642C14.2084 16.273 17.4076 13.3639 17.4682 13.1C17.476 13.067 17.4838 12.9439 17.4096 12.8791C17.3374 12.814 17.2299 12.8363 17.1517 12.8539C17.0404 12.8789 15.2846 14.0406 11.8783 16.3389C11.3803 16.6814 10.9291 16.8484 10.5228 16.8396C10.0775 16.8301 9.21822 16.5873 8.57955 16.3799C7.7983 16.1254 7.17522 15.9908 7.22991 15.5586C7.25725 15.3336 7.56785 15.1033 8.15964 14.868V14.868Z" fill="white"/>
<defs>
<linearGradient id="paint0_linear_869_14518" x1="15" y1="2.5" x2="15" y2="27.5" gradientUnits="userSpaceOnUse">
<stop stop-color="#2AABEE"/>
<stop offset="1" stop-color="#229ED9"/>
</linearGradient>
</defs>
</svg>
