<svg width="30" height="30" viewBox="0 0 30 30" fill="none" xmlns="http://www.w3.org/2000/svg">
<path d="M27.5 15C27.5 21.9036 21.9036 27.5 15 27.5C8.09644 27.5 2.5 21.9036 2.5 15C2.5 8.09644 8.09644 2.5 15 2.5C21.9036 2.5 27.5 8.09644 27.5 15Z" fill="#696BEF"/>
<path d="M27.5 15C27.5 21.9036 21.9036 27.5 15 27.5C8.09644 27.5 2.5 21.9036 2.5 15C2.5 8.09644 8.09644 2.5 15 2.5C21.9036 2.5 27.5 8.09644 27.5 15Z" fill="#696BEF"/>
<path d="M23.75 17.5C23.75 18.1566 23.6207 18.8068 23.3694 19.4134C23.1181 20.02 22.7498 20.5712 22.2855 21.0355C21.8212 21.4998 21.27 21.8681 20.6634 22.1194C20.0568 22.3707 19.4066 22.5 18.75 22.5L18.75 17.5H23.75Z" fill="white"/>
<path d="M18.5907 13.748L17.2461 3.86725L11.25 8.75002L15 14.8829H17.5998C18.2057 14.8829 18.6724 14.3484 18.5907 13.748Z" fill="#3A3BA6"/>
<path d="M17.2112 21.7568L16.123 26.0791L15 20.5127H16.2415C16.8927 20.5127 17.3702 21.1253 17.2112 21.7568Z" fill="#3A3BA6"/>
<path fillRule="evenodd" clip-rule="evenodd" d="M15 20.5115C11.8934 20.5115 9.375 17.9931 9.375 14.8865H16.125C16.7463 14.8865 17.25 14.3874 17.25 13.7661V3.86152C16.523 3.71394 15.7705 3.63647 15 3.63647C8.7868 3.63647 3.75 8.67327 3.75 14.8865C3.75 21.0997 8.7868 26.1365 15 26.1365C15.3797 26.1365 15.755 26.1177 16.125 26.0809V21.6365C16.125 21.0152 15.6213 20.5115 15 20.5115ZM15.0003 9.26161C15.0003 9.88293 14.4966 10.3866 13.8753 10.3866C13.254 10.3866 12.7503 9.88293 12.7503 9.26161C12.7503 8.64029 13.254 8.13661 13.8753 8.13661C14.4966 8.13661 15.0003 8.64029 15.0003 9.26161Z" fill="white"/>
</svg>
