<svg width="40" height="40" viewBox="0 0 40 40" fill="none" xmlns="http://www.w3.org/2000/svg">
<rect width="40" height="40" rx="20" fill="#25D366"/>
<g clip-path="url(#clip0_4111_2821)">
<path fill-rule="evenodd" clip-rule="evenodd" d="M28.5031 11.485C26.2473 9.23878 23.2471 8.00114 20.0504 8C13.4634 8 8.10256 13.3307 8.10027 19.883C8.09913 21.9776 8.64976 24.0221 9.69546 25.8239L8 31.9825L14.3349 30.33C16.0802 31.2771 18.0455 31.7756 20.0453 31.7762H20.0504C26.6363 31.7762 31.9977 26.445 32 19.8927C32.0011 16.7171 30.7595 13.7318 28.5031 11.4856V11.485ZM20.0504 29.7693H20.0464C18.2644 29.7688 16.5163 29.2924 14.991 28.3926L14.6283 28.1784L10.8689 29.159L11.8722 25.5139L11.6362 25.1401C10.642 23.5674 10.1166 21.7497 10.1177 19.8836C10.12 14.4378 14.5756 10.0069 20.0545 10.0069C22.7073 10.008 25.201 11.0366 27.0763 12.9039C28.9517 14.7706 29.9837 17.2527 29.9825 19.8915C29.9802 25.3379 25.5247 29.7688 20.0504 29.7688V29.7693ZM25.4983 22.372C25.1998 22.2232 23.7319 21.5052 23.4579 21.4061C23.1841 21.3069 22.9853 21.2574 22.7864 21.5548C22.5876 21.8523 22.0152 22.5213 21.841 22.719C21.6668 22.9173 21.4926 22.9418 21.1941 22.793C20.8956 22.6443 19.9335 22.3309 18.7927 21.3195C17.9052 20.532 17.3058 19.5599 17.1317 19.2624C16.9575 18.965 17.1133 18.8043 17.2623 18.6567C17.3963 18.5234 17.5608 18.3097 17.7103 18.1365C17.8599 17.9632 17.9092 17.8391 18.0089 17.6413C18.1086 17.443 18.0587 17.2698 17.9843 17.1211C17.9097 16.9724 17.3127 15.5107 17.0635 14.9164C16.8211 14.3375 16.5747 14.4162 16.3919 14.4065C16.2177 14.3979 16.0189 14.3962 15.8195 14.3962C15.6201 14.3962 15.2969 14.4703 15.0231 14.7677C14.7492 15.0651 13.9779 15.7837 13.9779 17.2447C13.9779 18.7057 15.0477 20.1183 15.1973 20.3166C15.3468 20.5149 17.3029 23.5139 20.2979 24.8005C21.0102 25.1065 21.5665 25.2894 22.0003 25.4262C22.7154 25.6524 23.3663 25.6205 23.8808 25.5441C24.4544 25.4587 25.6473 24.8256 25.896 24.1321C26.1447 23.4386 26.1447 22.8437 26.0702 22.7201C25.9957 22.5964 25.7963 22.5218 25.4978 22.3731L25.4983 22.372Z" fill="white"/>
</g>
<defs>
<clipPath id="clip0_4111_2821">
<rect width="24" height="24" fill="white" transform="translate(8 8)"/>
</clipPath>
</defs>
</svg>
