<svg width="30" height="30" viewBox="0 0 30 30" fill="none" xmlns="http://www.w3.org/2000/svg">
<path fillRule="evenodd" clip-rule="evenodd" d="M4.44094 21.7112L2.6875 28.125L9.22534 26.3989C11.0274 27.3932 13.0525 27.9136 15.1108 27.911C21.8989 27.911 27.4209 22.3534 27.4209 15.5238C27.4209 12.2099 26.144 9.09769 23.8145 6.75389C21.485 4.41008 18.392 3.125 15.0985 3.125C8.3105 3.125 2.7877 8.68184 2.80068 15.5238C2.79735 17.6941 3.36291 19.8275 4.44094 21.7112ZM9.88935 24.3952L9.51369 24.1681L9.51236 24.1689L5.61759 25.2024L6.65725 21.3969L6.41933 21.0056C5.39198 19.3681 4.85338 17.4654 4.85338 15.5244C4.85338 9.85441 9.44961 5.22955 15.0978 5.22955C17.8282 5.22955 20.4079 6.31349 22.3379 8.25301C24.2665 10.1939 25.3307 12.7893 25.3307 15.5367C25.3307 21.2067 20.7345 25.8316 15.0992 25.8316C13.265 25.8302 11.4651 25.334 9.88935 24.3952Z" fill="#C1C5C8"/>
<path fillRule="evenodd" clip-rule="evenodd" d="M4.44094 20.4612L2.6875 26.875L9.22534 25.1489C11.0274 26.1432 13.0525 26.6636 15.1108 26.661C21.8989 26.661 27.4209 21.1034 27.4209 14.2738C27.4209 10.9599 26.144 7.84769 23.8145 5.50389C21.485 3.16008 18.392 1.875 15.0985 1.875C8.3105 1.875 2.7877 7.43184 2.80068 14.2738C2.79735 16.4441 3.36291 18.5775 4.44094 20.4612ZM9.88935 23.1452L9.51369 22.9181L9.51236 22.9189L5.61759 23.9524L6.65725 20.1469L6.41933 19.7556C5.39198 18.1181 4.85338 16.2154 4.85338 14.2744C4.85338 8.60441 9.44961 3.97955 15.0978 3.97955C17.8282 3.97955 20.4079 5.06349 22.3379 7.00301C24.2665 8.94395 25.3307 11.5393 25.3307 14.2867C25.3307 19.9567 20.7345 24.5816 15.0992 24.5816C13.265 24.5802 11.4651 24.084 9.88935 23.1452Z" fill="url(#paint0_linear_229_10054)"/>
<path d="M9.51383 22.9181L9.88948 23.1451C11.4653 24.0839 13.2651 24.5802 15.0994 24.5816C20.7346 24.5816 25.3308 19.9566 25.3308 14.2867C25.3308 11.5393 24.2666 8.94389 22.338 7.00295C20.4081 5.06343 17.8283 3.97949 15.098 3.97949C9.44975 3.97949 4.85352 8.60435 4.85352 14.2744C4.85352 16.2153 5.39211 18.118 6.41946 19.7556L6.65739 20.1469L5.61772 23.9523L9.5125 22.9188L9.51383 22.9181Z" fill="url(#paint1_linear_229_10054)"/>
<path fillRule="evenodd" clip-rule="evenodd" d="M12.0302 9.08233C11.8052 8.56557 11.5543 8.5533 11.3416 8.5533C11.1535 8.54034 10.953 8.54034 10.7403 8.54034C10.5399 8.54034 10.2018 8.61602 9.91406 8.93098C9.62568 9.24594 8.83691 9.98972 8.83691 11.5148C8.83691 13.0391 9.93928 14.5137 10.0893 14.7148C10.2392 14.9166 12.2183 18.1426 15.3489 19.3902C17.9538 20.423 18.4801 20.2219 19.0439 20.1585C19.607 20.0958 20.8594 19.4154 21.1225 18.6839C21.3727 17.966 21.3727 17.3361 21.2977 17.21C21.2227 17.0839 21.0093 17.0082 20.7087 16.8446C20.3958 16.6932 18.8932 15.9379 18.6048 15.8363C18.3172 15.7354 18.1167 15.6849 17.9163 15.9876C17.7159 16.3026 17.1275 16.9959 16.9394 17.197C16.7642 17.3988 16.5767 17.4241 16.276 17.2727C15.9624 17.1221 14.9739 16.7941 13.7959 15.7354C12.8823 14.9166 12.2688 13.8961 12.0806 13.5934C11.9054 13.2784 12.0554 13.1148 12.2183 12.9635C12.356 12.8251 12.5319 12.598 12.6819 12.4215C12.8319 12.2449 12.8817 12.1065 12.9948 11.9047C13.095 11.7036 13.0446 11.5141 12.9696 11.3634C12.8946 11.2243 12.3056 9.69998 12.0302 9.08233Z" fill="white"/>
<defs>
<linearGradient id="paint0_linear_229_10054" x1="15.0522" y1="26.8777" x2="15.0522" y2="1.87841" gradientUnits="userSpaceOnUse">
<stop stop-color="#F9F9F9"/>
<stop offset="1" stop-color="white"/>
</linearGradient>
<linearGradient id="paint1_linear_229_10054" x1="15.0517" y1="26.4449" x2="15.0517" y2="2.31136" gradientUnits="userSpaceOnUse">
<stop stop-color="#20B038"/>
<stop offset="1" stop-color="#60D66A"/>
</linearGradient>
</defs>
</svg>
