<svg width="32" height="32" viewBox="0 0 32 32" fill="none" xmlns="http://www.w3.org/2000/svg">
<path fill-rule="evenodd" clip-rule="evenodd" d="M4.73704 23.1586L2.8667 30L9.84039 28.1588C11.7626 29.2195 13.9227 29.7746 16.1182 29.7717C23.3588 29.7717 29.249 23.8436 29.249 16.5587C29.249 13.0239 27.887 9.70424 25.4022 7.20419C22.9174 4.70413 19.6182 3.33337 16.1051 3.33337C8.86457 3.33337 2.97358 9.26067 2.98742 16.5587C2.98387 18.8738 3.58714 21.1494 4.73704 23.1586ZM10.5487 26.0216L10.148 25.7794L10.1466 25.7802L5.99213 26.8826L7.1011 22.8234L6.84732 22.406C5.75148 20.6594 5.17697 18.6298 5.17697 16.5594C5.17697 10.5114 10.0796 5.57822 16.1044 5.57822C19.0168 5.57822 21.7685 6.73443 23.8271 8.80325C25.8843 10.8736 27.0195 13.642 27.0195 16.5726C27.0195 22.6205 22.1168 27.5538 16.1059 27.5538C14.1494 27.5523 12.2295 27.0229 10.5487 26.0216Z" fill="#C1C5C8"/>
<path fill-rule="evenodd" clip-rule="evenodd" d="M4.73704 21.8252L2.8667 28.6667L9.84039 26.8254C11.7626 27.8861 13.9227 28.4412 16.1182 28.4384C23.3588 28.4384 29.249 22.5103 29.249 15.2253C29.249 11.6905 27.887 8.37087 25.4022 5.87081C22.9174 3.37075 19.6182 2 16.1051 2C8.86457 2 2.97358 7.9273 2.98742 15.2253C2.98387 17.5404 3.58714 19.816 4.73704 21.8252ZM10.5487 24.6882L10.148 24.446L10.1466 24.4468L5.99213 25.5492L7.1011 21.4901L6.84732 21.0727C5.75148 19.326 5.17697 17.2964 5.17697 15.2261C5.17697 9.17804 10.0796 4.24485 16.1044 4.24485C19.0168 4.24485 21.7685 5.40105 23.8271 7.46988C25.8843 9.54021 27.0195 12.3086 27.0195 15.2392C27.0195 21.2871 22.1168 26.2204 16.1059 26.2204C14.1494 26.2189 12.2295 25.6896 10.5487 24.6882Z" fill="url(#paint0_linear_4929_9584)"/>
<path d="M10.1482 24.4459L10.5489 24.6881C12.2298 25.6895 14.1496 26.2188 16.1062 26.2203C22.1171 26.2203 27.0197 21.287 27.0197 15.2391C27.0197 12.3085 25.8846 9.54011 23.8274 7.46978C21.7688 5.40095 19.017 4.24475 16.1047 4.24475C10.0799 4.24475 5.17725 9.17794 5.17725 15.226C5.17725 17.2963 5.75175 19.3259 6.84759 21.0726L7.10138 21.49L5.9924 25.5491L10.1468 24.4467L10.1482 24.4459Z" fill="url(#paint1_linear_4929_9584)"/>
<path fill-rule="evenodd" clip-rule="evenodd" d="M12.8319 9.68773C12.592 9.13653 12.3243 9.12344 12.0975 9.12344C11.8968 9.10962 11.683 9.10962 11.4561 9.10962C11.2423 9.10962 10.8816 9.19034 10.5747 9.5263C10.2671 9.86226 9.42578 10.6556 9.42578 12.2823C9.42578 13.9083 10.6016 15.4812 10.7616 15.6957C10.9216 15.911 13.0326 19.352 16.3719 20.6828C19.1504 21.7845 19.7118 21.57 20.3132 21.5023C20.9139 21.4354 22.2497 20.7097 22.5304 19.9294C22.7973 19.1637 22.7973 18.4918 22.7173 18.3572C22.6373 18.2227 22.4097 18.142 22.089 17.9675C21.7552 17.806 20.1525 17.0003 19.8449 16.892C19.538 16.7843 19.3242 16.7305 19.1104 17.0534C18.8967 17.3894 18.2691 18.1289 18.0684 18.3434C17.8815 18.5587 17.6815 18.5856 17.3608 18.4241C17.0263 18.2634 15.9719 17.9137 14.7153 16.7843C13.7409 15.911 13.0864 14.8224 12.8857 14.4995C12.6988 14.1636 12.8588 13.989 13.0326 13.8276C13.1795 13.68 13.3671 13.4378 13.5271 13.2495C13.6871 13.0612 13.7402 12.9135 13.8609 12.6983C13.9678 12.4838 13.914 12.2816 13.834 12.1209C13.754 11.9726 13.1257 10.3466 12.8319 9.68773Z" fill="white"/>
<defs>
<linearGradient id="paint0_linear_4929_9584" x1="16.0557" y1="28.6696" x2="16.0557" y2="2.00364" gradientUnits="userSpaceOnUse">
<stop stop-color="#F9F9F9"/>
<stop offset="1" stop-color="white"/>
</linearGradient>
<linearGradient id="paint1_linear_4929_9584" x1="16.0553" y1="28.2078" x2="16.0553" y2="2.46541" gradientUnits="userSpaceOnUse">
<stop stop-color="#20B038"/>
<stop offset="1" stop-color="#60D66A"/>
</linearGradient>
</defs>
</svg>
