<svg width="394" height="80" viewBox="0 0 394 80" fill="none" xmlns="http://www.w3.org/2000/svg">
<g clip-path="url(#clip0_9585_448)">
<mask id="mask0_9585_448" style="mask-type:luminance" maskUnits="userSpaceOnUse" x="0" y="0" width="394" height="80">
<path d="M393.89 0H0.375977V80H393.89V0Z" fill="white"/>
</mask>
<g mask="url(#mask0_9585_448)">
<path d="M124.827 2.1709C109.22 2.1709 96.2402 15.5989 96.2402 32.0977C96.2402 48.5965 108.954 62.0244 124.827 62.0244C140.7 62.0244 153.152 48.5965 153.413 32.0977C153.413 15.4198 140.962 2.1709 124.827 2.1709ZM124.827 52.9867C114.13 52.9867 105.27 43.7697 105.27 32.0977C105.27 20.4258 114.125 11.2088 124.827 11.2088C135.528 11.2088 144.117 20.1592 144.379 32.0977C144.379 43.5075 135.524 52.9867 124.827 52.9867Z" fill="#FF4369"/>
<path d="M4.20347 2.16211V11.6019H25.4275L11.8019 26.2879H22.6822C30.154 26.2879 36.4431 32.3204 36.2861 39.7988C36.1289 47.2162 30.573 52.8468 23.1099 52.8468C16.6114 52.8468 11.444 48.7451 10.2001 42.5071L9.66767 39.9211L0.384644 39.8338C0.384644 39.8338 0.777437 42.5728 0.917097 43.4856C2.58865 54.1923 11.5967 61.7449 22.7172 61.7449C35.2647 61.7449 45.0497 52.2134 45.0497 39.2136C45.0497 29.9529 39.6204 22.1118 31.6118 18.7308L47.891 2.16211H4.20347ZM40.8337 52.7595C40.0088 53.9432 39.0836 55.0397 38.045 56.0269C39.0749 55.0397 40.0088 53.9432 40.8337 52.7595Z" fill="#FF4369"/>
<path d="M70.9217 16.9792L82.1339 2.16211H70.6512L52.8008 25.685C49.8419 29.5467 48.2271 34.3953 48.2271 39.4233C48.2271 52.2614 57.8242 61.9589 70.7428 61.9589C83.6614 61.9589 93.3502 52.3533 93.3502 39.5106C93.3502 26.6679 83.753 17.0622 70.9217 16.9748V16.9792ZM70.6556 52.9297C63.0309 52.9297 57.379 47.3648 57.379 39.729C57.379 32.0932 63.0309 26.4407 70.6556 26.4407C78.28 26.4407 83.9319 32.0976 83.9319 39.729C83.9319 47.3604 78.1928 52.9297 70.6556 52.9297Z" fill="#FF4369"/>
<path d="M295.378 2.16699H285.946V62.0119H295.378V2.16699Z" fill="#FF4369"/>
<path d="M269.567 24.4311C268.027 22.426 265.849 20.7704 263.218 19.46C260.59 18.1539 257.504 17.455 253.968 17.455C250.071 17.455 246.445 18.3286 243.176 20.2462C239.911 22.0765 237.371 24.6931 235.469 28.0087C233.565 31.3241 232.659 35.1595 232.659 39.519C232.659 43.8783 233.565 47.8011 235.469 51.204C237.371 54.6025 240.002 57.3065 243.176 59.2241C246.348 61.0543 249.888 62.0153 253.785 62.0153C257.325 62.0153 260.407 61.4038 263.126 60.0104C265.845 58.617 268.023 56.8696 269.563 54.8645V62.0153H278.994V17.455H269.563V24.4311H269.567ZM267.757 47.7835C266.499 50.0769 264.885 51.75 262.82 52.8944C260.755 54.039 258.511 54.6592 256.182 54.6592C253.851 54.6592 251.607 54.0434 249.544 52.8944C247.479 51.75 245.778 49.9852 244.52 47.6918C243.264 45.3985 242.636 42.7558 242.636 39.7591C242.636 36.7626 243.264 34.2072 244.52 32.0012C245.865 29.7996 247.479 28.1223 249.544 26.9777C251.607 25.8333 253.851 25.213 256.182 25.213C258.511 25.213 260.755 25.8289 262.82 26.9777C264.885 28.2096 266.499 29.8869 267.757 32.0885C269.1 34.2902 269.728 36.9372 269.728 39.934C269.728 42.9305 269.1 45.5733 267.757 47.7794V47.7835Z" fill="#FF4369"/>
<path d="M222.894 0C221.318 0 219.979 0.550399 218.953 1.57694C217.928 2.6821 217.377 3.94451 217.377 5.52145C217.377 7.09839 217.928 8.44381 218.953 9.46598C220.056 10.4925 221.318 11.0429 222.894 11.0429C224.468 11.0429 225.73 10.4925 226.756 9.46598C227.781 8.3608 228.332 7.09839 228.332 5.52145C228.332 3.94451 227.781 2.59909 226.756 1.57694C225.653 0.550399 224.391 0 222.894 0Z" fill="#FF4369"/>
<path d="M227.547 17.455H218.115V61.9499H227.547V17.455Z" fill="#FF4369"/>
<path d="M196.647 5.84892C191.886 3.42016 186.317 2.16211 179.941 2.16211H160.358V61.9502H179.941C186.317 61.9502 191.886 60.7795 196.647 58.4424C201.502 56.0138 205.18 52.5978 207.786 48.1029C210.391 43.6079 211.739 38.3923 211.739 32.2768C211.739 26.1612 210.391 20.8582 207.786 16.3633C205.18 11.7766 201.496 8.27328 196.647 5.84454V5.84892ZM195.731 48.911C192.026 52.7113 186.601 54.6116 179.552 54.6116L169.789 54.7033V10.5535H179.552C186.601 10.5535 191.934 12.5454 195.731 16.4332C199.437 20.3253 201.335 25.8424 201.335 32.8054C201.335 39.7684 199.528 45.1062 195.731 48.9066V48.911Z" fill="#FF4369"/>
<path d="M334.16 20.2331C330.777 18.4072 327.046 17.455 322.964 17.455C318.884 17.455 315.07 18.4116 311.771 20.2331C308.47 22.0592 305.783 24.6626 303.875 28.0479C301.967 31.4333 301.013 35.3429 301.013 39.6849C301.013 44.0269 301.881 48.0238 303.787 51.4093C305.608 54.7117 308.213 57.3152 311.513 59.2241C314.812 61.0499 318.457 62.0022 322.533 62.0022C326.609 62.0022 330.427 61.0456 333.816 59.2241C337.284 57.3152 339.977 54.7074 341.972 51.3219C343.966 47.9365 344.922 44.0269 344.922 39.6849C344.922 35.3429 343.966 31.4333 342.06 28.0479C340.152 24.6626 337.459 22.0548 334.164 20.2331H334.16ZM333.901 47.8971C332.601 50.0988 330.952 51.7719 328.956 52.9163C326.963 54.0609 324.793 54.5894 322.537 54.5894C318.892 54.5894 315.943 53.3575 313.599 50.7146C311.256 48.1637 310.042 44.4638 310.042 39.7985C310.042 36.6315 310.648 33.9888 311.779 31.7872C312.91 29.5855 314.468 27.9126 316.38 26.768C318.373 25.6236 320.456 25.0951 322.799 25.0951C325.142 25.0951 327.225 25.6236 329.219 26.768C331.214 27.9126 332.776 29.5855 333.995 31.7872C335.207 33.9888 335.817 36.6271 335.817 39.7985C335.817 42.9699 335.123 45.6957 333.911 47.8971H333.901Z" fill="#FF4369"/>
<path d="M393.89 17.455H369.916C365.919 17.5161 362.322 18.3941 359.058 20.2375C355.584 22.1509 352.891 24.7631 350.892 28.1527C349.077 31.2324 348.121 34.7533 347.964 38.6366C347.946 39.0209 347.937 39.4098 347.937 39.8116C347.937 43.2844 348.545 46.4733 349.761 49.3475C350.075 50.0769 350.421 50.7847 350.804 51.4705C352.384 54.2793 354.505 56.5508 357.067 58.2893C357.599 58.6474 358.146 58.9838 358.708 59.2983C362.095 61.1243 365.831 62.0809 369.916 62.0809C374.002 62.0809 377.82 61.1243 381.125 59.2983C381.695 58.9838 382.254 58.6386 382.782 58.2718V59.3814C382.782 61.3165 382.407 63.2385 381.614 65.0033C381.512 65.2217 381.407 65.4401 381.294 65.6498C380.163 67.8252 378.601 69.4764 376.689 70.6077C374.692 71.7391 372.517 72.2589 370.261 72.2589C368.006 72.2589 365.831 71.7391 363.832 70.6077C361.833 69.4764 360.271 67.8252 359.054 65.6498C358.923 65.4226 358.81 65.1867 358.695 64.9552H349.111C349.56 66.5191 350.19 67.9998 350.971 69.3933C352.881 72.7874 355.574 75.3953 358.875 77.2212C362.262 79.0471 366.002 80.0039 370.083 80.0039C374.163 80.0039 377.987 79.0471 381.29 77.2212C384.593 75.3953 387.282 72.7831 389.198 69.3933C390.613 66.8859 391.682 64.1034 391.865 61.0412C392.149 56.3192 391.883 39.9775 391.865 39.5801C391.738 35.4477 390.931 31.7697 389.333 28.5416C388.814 27.4714 388.224 26.471 387.57 25.5448H393.88V17.4593L393.89 17.455ZM381.407 48.0982C380.038 50.2997 378.305 51.9728 376.21 53.1172C374.111 54.2618 371.832 54.7903 369.459 54.7903C365.627 54.7903 362.522 53.5584 360.062 50.9157C357.599 48.3646 356.322 44.6647 356.322 39.9994C356.322 36.8324 356.958 34.1897 358.146 31.9881C359.333 29.7864 360.974 28.1135 362.981 26.9689C365.08 25.8245 367.266 25.296 369.733 25.296C372.199 25.296 374.385 25.8245 376.484 26.9689C378.585 28.1135 380.225 29.7864 381.504 31.9881C382.782 34.1897 383.42 36.828 383.42 39.9994C383.42 43.1708 382.691 45.8966 381.413 48.0982H381.407Z" fill="#FF4369"/>
</g>
</g>
<defs>
<clipPath id="clip0_9585_448">
<rect width="393.514" height="80" fill="white" transform="translate(0.375977)"/>
</clipPath>
</defs>
</svg>
