<svg width="600" height="450" viewBox="0 0 600 450" fill="none" xmlns="http://www.w3.org/2000/svg">
<path d="M69.6 309.333L43 336L69.6 362.667V342.667H116.333V329.333H69.6V309.333ZM163 296L136.4 269.333V289.333H89.6667V302.667H136.4V322.667L163 296Z" fill="#DBEAF6"/>
<path d="M241.666 21H542.999C552.166 21 559.666 28.5 559.666 37.6667V147.667L534.333 121.333H241.666C232.499 121.333 224.999 113.833 224.999 104.667V37.6667C224.999 28.5 232.499 21 241.666 21Z" fill="#BEDCF4"/>
<rect x="241" y="37" width="303" height="16" rx="2" fill="white"/>
<rect x="241" y="61" width="271" height="12" rx="2" fill="white"/>
<path d="M241 83C241 81.8954 241.895 81 243 81H486C487.105 81 488 81.8954 488 83V91C488 92.1046 487.105 93 486 93H243C241.895 93 241 92.1046 241 91V83Z" fill="white"/>
<rect x="468" y="101" width="56" height="12" rx="2" fill="white"/>
<path d="M539.977 103.47L539.037 102.53L534.81 106.757L535.75 107.697L539.977 103.47ZM542.803 102.53L535.75 109.583L532.963 106.803L532.023 107.743L535.75 111.47L543.75 103.47L542.803 102.53ZM528.25 107.743L531.977 111.47L532.917 110.53L529.197 106.803L528.25 107.743Z" fill="#1E75BA"/>
<path d="M326 146H56.6667C47.5 146 40 153.5 40 162.667V252.667L65.3333 226.333H326C335.167 226.333 342.667 218.833 342.667 209.667V162.667C342.667 153.5 335.167 146 326 146Z" fill="#BEDCF4"/>
<rect x="56" y="162" width="271" height="16" rx="2" fill="#70ABDB"/>
<rect x="56" y="186" width="198" height="12" rx="2" fill="#70ABDB"/>
<rect x="267" y="206" width="40" height="12" rx="2" fill="#70ABDB"/>
<path d="M322.977 208.47L322.037 207.53L317.81 211.757L318.75 212.697L322.977 208.47ZM325.803 207.53L318.75 214.583L315.963 211.803L315.023 212.743L318.75 216.47L326.75 208.47L325.803 207.53ZM311.25 212.743L314.977 216.47L315.917 215.53L312.197 211.803L311.25 212.743Z" fill="#1E75BA"/>
<path d="M376.666 249H541.999C551.166 249 558.666 256.5 558.666 265.667V354.667L533.333 329.333H376.666C367.499 329.333 359.999 321.833 359.999 312.667V265.667C359.999 256.5 367.499 249 376.666 249Z" fill="#BEDCF4"/>
<rect x="376" y="265" width="167" height="16" rx="2" fill="white"/>
<rect x="376" y="289" width="135" height="12" rx="2" fill="white"/>
<rect x="482" y="309" width="40" height="12" rx="2" fill="white"/>
<path d="M538.977 311.47L538.037 310.53L533.81 314.757L534.75 315.697L538.977 311.47ZM541.803 310.53L534.75 317.583L531.963 314.803L531.023 315.743L534.75 319.47L542.75 311.47L541.803 310.53ZM527.25 315.743L530.977 319.47L531.917 318.53L528.197 314.803L527.25 315.743Z" fill="#1E75BA"/>
<path d="M184.857 408.435H181.67C181.579 407.912 181.411 407.449 181.167 407.045C180.923 406.636 180.619 406.29 180.255 406.006C179.891 405.722 179.477 405.509 179.011 405.366C178.55 405.219 178.053 405.145 177.519 405.145C176.57 405.145 175.729 405.384 174.996 405.861C174.263 406.332 173.69 407.026 173.275 407.94C172.86 408.849 172.653 409.96 172.653 411.273C172.653 412.608 172.86 413.733 173.275 414.648C173.695 415.557 174.269 416.244 174.996 416.71C175.729 417.17 176.567 417.401 177.511 417.401C178.033 417.401 178.522 417.332 178.977 417.196C179.437 417.054 179.849 416.847 180.212 416.574C180.582 416.301 180.891 415.966 181.141 415.568C181.397 415.17 181.573 414.716 181.67 414.205L184.857 414.222C184.738 415.051 184.479 415.83 184.082 416.557C183.69 417.284 183.175 417.926 182.539 418.483C181.903 419.034 181.158 419.466 180.306 419.778C179.454 420.085 178.508 420.239 177.468 420.239C175.934 420.239 174.565 419.884 173.36 419.173C172.156 418.463 171.207 417.438 170.513 416.097C169.82 414.756 169.474 413.148 169.474 411.273C169.474 409.392 169.823 407.784 170.522 406.449C171.221 405.108 172.173 404.082 173.377 403.372C174.582 402.662 175.945 402.307 177.468 402.307C178.44 402.307 179.343 402.443 180.178 402.716C181.013 402.989 181.758 403.389 182.411 403.918C183.065 404.44 183.602 405.082 184.022 405.844C184.448 406.599 184.727 407.463 184.857 408.435ZM193.327 420.256C192.048 420.256 190.94 419.974 190.003 419.412C189.065 418.849 188.338 418.062 187.821 417.051C187.31 416.04 187.054 414.858 187.054 413.506C187.054 412.153 187.31 410.969 187.821 409.952C188.338 408.935 189.065 408.145 190.003 407.582C190.94 407.02 192.048 406.739 193.327 406.739C194.605 406.739 195.713 407.02 196.651 407.582C197.588 408.145 198.313 408.935 198.824 409.952C199.341 410.969 199.599 412.153 199.599 413.506C199.599 414.858 199.341 416.04 198.824 417.051C198.313 418.062 197.588 418.849 196.651 419.412C195.713 419.974 194.605 420.256 193.327 420.256ZM193.344 417.784C194.037 417.784 194.616 417.594 195.082 417.213C195.548 416.827 195.895 416.31 196.122 415.662C196.355 415.014 196.472 414.293 196.472 413.497C196.472 412.696 196.355 411.972 196.122 411.324C195.895 410.67 195.548 410.151 195.082 409.764C194.616 409.378 194.037 409.185 193.344 409.185C192.634 409.185 192.043 409.378 191.571 409.764C191.105 410.151 190.756 410.67 190.523 411.324C190.295 411.972 190.182 412.696 190.182 413.497C190.182 414.293 190.295 415.014 190.523 415.662C190.756 416.31 191.105 416.827 191.571 417.213C192.043 417.594 192.634 417.784 193.344 417.784ZM202.218 420V406.909H205.167V409.134H205.32C205.593 408.384 206.045 407.798 206.675 407.378C207.306 406.952 208.059 406.739 208.934 406.739C209.82 406.739 210.567 406.955 211.175 407.386C211.789 407.812 212.221 408.395 212.471 409.134H212.607C212.897 408.406 213.386 407.827 214.073 407.395C214.766 406.957 215.587 406.739 216.536 406.739C217.741 406.739 218.724 407.119 219.485 407.881C220.246 408.642 220.627 409.753 220.627 411.213V420H217.533V411.69C217.533 410.878 217.317 410.284 216.886 409.909C216.454 409.528 215.925 409.338 215.3 409.338C214.556 409.338 213.974 409.571 213.553 410.037C213.138 410.497 212.931 411.097 212.931 411.835V420H209.906V411.562C209.906 410.886 209.701 410.347 209.292 409.943C208.888 409.54 208.36 409.338 207.707 409.338C207.263 409.338 206.86 409.452 206.496 409.679C206.133 409.901 205.843 410.216 205.627 410.625C205.411 411.028 205.303 411.5 205.303 412.04V420H202.218ZM232.101 414.494V406.909H235.186V420H232.195V417.673H232.058C231.763 418.406 231.277 419.006 230.601 419.472C229.93 419.937 229.104 420.17 228.121 420.17C227.263 420.17 226.504 419.98 225.845 419.599C225.192 419.213 224.68 418.653 224.311 417.92C223.942 417.182 223.757 416.29 223.757 415.244V406.909H226.842V414.767C226.842 415.597 227.07 416.256 227.524 416.744C227.979 417.233 228.575 417.477 229.314 417.477C229.768 417.477 230.209 417.366 230.635 417.145C231.061 416.923 231.411 416.594 231.683 416.156C231.962 415.713 232.101 415.159 232.101 414.494ZM241.444 412.33V420H238.359V406.909H241.308V409.134H241.461C241.762 408.401 242.242 407.818 242.901 407.386C243.566 406.955 244.387 406.739 245.364 406.739C246.268 406.739 247.055 406.932 247.725 407.318C248.401 407.705 248.924 408.264 249.293 408.997C249.668 409.73 249.853 410.619 249.847 411.665V420H246.762V412.142C246.762 411.267 246.535 410.582 246.08 410.088C245.631 409.594 245.009 409.347 244.214 409.347C243.674 409.347 243.194 409.466 242.773 409.705C242.359 409.937 242.032 410.276 241.793 410.719C241.56 411.162 241.444 411.699 241.444 412.33ZM252.984 420V406.909H256.069V420H252.984ZM254.535 405.051C254.046 405.051 253.626 404.889 253.273 404.565C252.921 404.236 252.745 403.841 252.745 403.381C252.745 402.915 252.921 402.52 253.273 402.196C253.626 401.866 254.046 401.702 254.535 401.702C255.029 401.702 255.45 401.866 255.796 402.196C256.148 402.52 256.325 402.915 256.325 403.381C256.325 403.841 256.148 404.236 255.796 404.565C255.45 404.889 255.029 405.051 254.535 405.051ZM264.952 420.256C263.645 420.256 262.523 419.969 261.585 419.395C260.653 418.821 259.935 418.028 259.429 417.017C258.929 416 258.679 414.83 258.679 413.506C258.679 412.176 258.935 411.003 259.446 409.986C259.957 408.963 260.679 408.168 261.611 407.599C262.548 407.026 263.656 406.739 264.935 406.739C265.997 406.739 266.938 406.935 267.756 407.327C268.58 407.713 269.236 408.261 269.724 408.972C270.213 409.676 270.491 410.5 270.56 411.443H267.611C267.491 410.812 267.207 410.287 266.759 409.866C266.315 409.44 265.722 409.227 264.977 409.227C264.347 409.227 263.793 409.398 263.315 409.739C262.838 410.074 262.466 410.557 262.199 411.188C261.938 411.818 261.807 412.574 261.807 413.455C261.807 414.347 261.938 415.114 262.199 415.756C262.46 416.392 262.827 416.884 263.298 417.23C263.776 417.571 264.335 417.741 264.977 417.741C265.432 417.741 265.838 417.656 266.196 417.486C266.56 417.31 266.864 417.057 267.108 416.727C267.352 416.398 267.52 415.997 267.611 415.526H270.56C270.486 416.452 270.213 417.273 269.741 417.989C269.27 418.699 268.628 419.256 267.815 419.659C267.003 420.057 266.048 420.256 264.952 420.256ZM276.86 420.264C276.031 420.264 275.283 420.116 274.619 419.821C273.96 419.52 273.437 419.077 273.05 418.491C272.67 417.906 272.479 417.185 272.479 416.327C272.479 415.588 272.616 414.977 272.888 414.494C273.161 414.011 273.533 413.625 274.005 413.335C274.477 413.045 275.008 412.827 275.599 412.679C276.195 412.526 276.812 412.415 277.448 412.347C278.215 412.267 278.837 412.196 279.315 412.134C279.792 412.065 280.138 411.963 280.354 411.827C280.576 411.685 280.687 411.466 280.687 411.17V411.119C280.687 410.477 280.496 409.98 280.116 409.628C279.735 409.276 279.187 409.099 278.471 409.099C277.715 409.099 277.116 409.264 276.673 409.594C276.235 409.923 275.94 410.312 275.786 410.761L272.906 410.352C273.133 409.557 273.508 408.892 274.031 408.358C274.553 407.818 275.192 407.415 275.948 407.148C276.704 406.875 277.539 406.739 278.454 406.739C279.085 406.739 279.712 406.812 280.337 406.96C280.962 407.108 281.533 407.352 282.05 407.693C282.567 408.028 282.982 408.486 283.295 409.065C283.613 409.645 283.772 410.369 283.772 411.239V420H280.806V418.202H280.704C280.516 418.565 280.252 418.906 279.911 419.224C279.576 419.537 279.153 419.79 278.641 419.983C278.136 420.17 277.542 420.264 276.86 420.264ZM277.661 417.997C278.281 417.997 278.817 417.875 279.272 417.631C279.727 417.381 280.076 417.051 280.32 416.642C280.57 416.233 280.695 415.787 280.695 415.304V413.761C280.599 413.841 280.434 413.915 280.201 413.983C279.974 414.051 279.718 414.111 279.434 414.162C279.15 414.213 278.869 414.259 278.59 414.298C278.312 414.338 278.07 414.372 277.866 414.401C277.406 414.463 276.994 414.565 276.63 414.707C276.266 414.849 275.979 415.048 275.769 415.304C275.559 415.554 275.454 415.878 275.454 416.276C275.454 416.844 275.661 417.273 276.076 417.562C276.491 417.852 277.019 417.997 277.661 417.997ZM292.585 420.256C291.278 420.256 290.156 419.969 289.218 419.395C288.286 418.821 287.567 418.028 287.062 417.017C286.562 416 286.312 414.83 286.312 413.506C286.312 412.176 286.567 411.003 287.079 409.986C287.59 408.963 288.312 408.168 289.244 407.599C290.181 407.026 291.289 406.739 292.567 406.739C293.63 406.739 294.57 406.935 295.388 407.327C296.212 407.713 296.869 408.261 297.357 408.972C297.846 409.676 298.124 410.5 298.192 411.443H295.244C295.124 410.812 294.84 410.287 294.391 409.866C293.948 409.44 293.354 409.227 292.61 409.227C291.979 409.227 291.425 409.398 290.948 409.739C290.471 410.074 290.099 410.557 289.832 411.188C289.57 411.818 289.44 412.574 289.44 413.455C289.44 414.347 289.57 415.114 289.832 415.756C290.093 416.392 290.46 416.884 290.931 417.23C291.408 417.571 291.968 417.741 292.61 417.741C293.065 417.741 293.471 417.656 293.829 417.486C294.192 417.31 294.496 417.057 294.741 416.727C294.985 416.398 295.153 415.997 295.244 415.526H298.192C298.119 416.452 297.846 417.273 297.374 417.989C296.903 418.699 296.261 419.256 295.448 419.659C294.636 420.057 293.681 420.256 292.585 420.256ZM291.698 419.932H293.369L293.232 420.656C293.766 420.736 294.218 420.94 294.587 421.27C294.962 421.605 295.15 422.085 295.15 422.71C295.156 423.517 294.795 424.165 294.067 424.653C293.34 425.142 292.303 425.386 290.957 425.386L290.923 423.869C291.576 423.869 292.096 423.781 292.482 423.605C292.869 423.435 293.065 423.162 293.07 422.787C293.082 422.423 292.945 422.156 292.661 421.986C292.383 421.821 291.94 421.707 291.332 421.645L291.698 419.932ZM304.493 420.264C303.663 420.264 302.916 420.116 302.251 419.821C301.592 419.52 301.07 419.077 300.683 418.491C300.303 417.906 300.112 417.185 300.112 416.327C300.112 415.588 300.249 414.977 300.521 414.494C300.794 414.011 301.166 413.625 301.638 413.335C302.109 413.045 302.641 412.827 303.232 412.679C303.828 412.526 304.445 412.415 305.081 412.347C305.848 412.267 306.47 412.196 306.947 412.134C307.425 412.065 307.771 411.963 307.987 411.827C308.209 411.685 308.32 411.466 308.32 411.17V411.119C308.32 410.477 308.129 409.98 307.749 409.628C307.368 409.276 306.82 409.099 306.104 409.099C305.348 409.099 304.749 409.264 304.305 409.594C303.868 409.923 303.572 410.312 303.419 410.761L300.538 410.352C300.766 409.557 301.141 408.892 301.663 408.358C302.186 407.818 302.825 407.415 303.581 407.148C304.337 406.875 305.172 406.739 306.087 406.739C306.717 406.739 307.345 406.812 307.97 406.96C308.595 407.108 309.166 407.352 309.683 407.693C310.2 408.028 310.615 408.486 310.928 409.065C311.246 409.645 311.405 410.369 311.405 411.239V420H308.439V418.202H308.337C308.149 418.565 307.885 418.906 307.544 419.224C307.209 419.537 306.786 419.79 306.274 419.983C305.768 420.17 305.175 420.264 304.493 420.264ZM305.294 417.997C305.913 417.997 306.45 417.875 306.905 417.631C307.359 417.381 307.709 417.051 307.953 416.642C308.203 416.233 308.328 415.787 308.328 415.304V413.761C308.232 413.841 308.067 413.915 307.834 413.983C307.607 414.051 307.351 414.111 307.067 414.162C306.783 414.213 306.501 414.259 306.223 414.298C305.945 414.338 305.703 414.372 305.499 414.401C305.038 414.463 304.626 414.565 304.263 414.707C303.899 414.849 303.612 415.048 303.402 415.304C303.192 415.554 303.087 415.878 303.087 416.276C303.087 416.844 303.294 417.273 303.709 417.562C304.124 417.852 304.652 417.997 305.294 417.997ZM303.717 405.315L301.851 405.273C301.851 404.261 302.112 403.469 302.635 402.895C303.158 402.321 303.803 402.034 304.57 402.034C304.939 402.034 305.26 402.097 305.533 402.222C305.805 402.341 306.055 402.48 306.283 402.639C306.516 402.798 306.743 402.94 306.964 403.065C307.186 403.185 307.43 403.244 307.697 403.244C308.021 403.244 308.277 403.122 308.464 402.878C308.658 402.634 308.757 402.321 308.763 401.94L310.595 402.017C310.589 403.034 310.325 403.824 309.803 404.386C309.28 404.943 308.638 405.224 307.876 405.23C307.467 405.236 307.124 405.176 306.845 405.051C306.567 404.926 306.322 404.784 306.112 404.625C305.908 404.466 305.7 404.327 305.49 404.207C305.28 404.082 305.033 404.02 304.749 404.02C304.447 404.02 304.2 404.139 304.007 404.378C303.814 404.616 303.717 404.929 303.717 405.315ZM320.217 420.256C318.939 420.256 317.831 419.974 316.893 419.412C315.956 418.849 315.229 418.062 314.712 417.051C314.2 416.04 313.945 414.858 313.945 413.506C313.945 412.153 314.2 410.969 314.712 409.952C315.229 408.935 315.956 408.145 316.893 407.582C317.831 407.02 318.939 406.739 320.217 406.739C321.496 406.739 322.604 407.02 323.541 407.582C324.479 408.145 325.203 408.935 325.714 409.952C326.232 410.969 326.49 412.153 326.49 413.506C326.49 414.858 326.232 416.04 325.714 417.051C325.203 418.062 324.479 418.849 323.541 419.412C322.604 419.974 321.496 420.256 320.217 420.256ZM320.234 417.784C320.928 417.784 321.507 417.594 321.973 417.213C322.439 416.827 322.786 416.31 323.013 415.662C323.246 415.014 323.362 414.293 323.362 413.497C323.362 412.696 323.246 411.972 323.013 411.324C322.786 410.67 322.439 410.151 321.973 409.764C321.507 409.378 320.928 409.185 320.234 409.185C319.524 409.185 318.933 409.378 318.462 409.764C317.996 410.151 317.646 410.67 317.413 411.324C317.186 411.972 317.072 412.696 317.072 413.497C317.072 414.293 317.186 415.014 317.413 415.662C317.646 416.31 317.996 416.827 318.462 417.213C318.933 417.594 319.524 417.784 320.234 417.784ZM335.198 420V402.545H338.283V409.074H338.411C338.57 408.756 338.795 408.418 339.085 408.06C339.374 407.696 339.766 407.386 340.261 407.131C340.755 406.869 341.386 406.739 342.153 406.739C343.164 406.739 344.076 406.997 344.888 407.514C345.707 408.026 346.354 408.784 346.832 409.79C347.315 410.79 347.556 412.017 347.556 413.472C347.556 414.909 347.32 416.131 346.849 417.136C346.377 418.142 345.735 418.909 344.923 419.438C344.11 419.966 343.19 420.23 342.161 420.23C341.411 420.23 340.789 420.105 340.295 419.855C339.8 419.605 339.403 419.304 339.102 418.952C338.806 418.594 338.576 418.256 338.411 417.938H338.232V420H335.198ZM338.224 413.455C338.224 414.301 338.343 415.043 338.582 415.679C338.826 416.315 339.175 416.812 339.63 417.17C340.09 417.523 340.647 417.699 341.3 417.699C341.982 417.699 342.553 417.517 343.013 417.153C343.474 416.784 343.82 416.281 344.053 415.645C344.292 415.003 344.411 414.273 344.411 413.455C344.411 412.642 344.295 411.92 344.062 411.29C343.829 410.659 343.482 410.165 343.022 409.807C342.562 409.449 341.988 409.27 341.3 409.27C340.641 409.27 340.082 409.443 339.621 409.79C339.161 410.136 338.812 410.622 338.573 411.247C338.34 411.872 338.224 412.608 338.224 413.455ZM350.179 420V406.909H353.264V420H350.179ZM351.73 405.051C351.241 405.051 350.821 404.889 350.469 404.565C350.116 404.236 349.94 403.841 349.94 403.381C349.94 402.915 350.116 402.52 350.469 402.196C350.821 401.866 351.241 401.702 351.73 401.702C352.224 401.702 352.645 401.866 352.991 402.196C353.344 402.52 353.52 402.915 353.52 403.381C353.52 403.841 353.344 404.236 352.991 404.565C352.645 404.889 352.224 405.051 351.73 405.051ZM361.295 420.23C360.266 420.23 359.346 419.966 358.533 419.438C357.721 418.909 357.079 418.142 356.607 417.136C356.136 416.131 355.9 414.909 355.9 413.472C355.9 412.017 356.138 410.79 356.616 409.79C357.099 408.784 357.749 408.026 358.567 407.514C359.386 406.997 360.298 406.739 361.303 406.739C362.07 406.739 362.701 406.869 363.195 407.131C363.69 407.386 364.082 407.696 364.371 408.06C364.661 408.418 364.886 408.756 365.045 409.074H365.173V402.545H368.266V420H365.232V417.938H365.045C364.886 418.256 364.656 418.594 364.354 418.952C364.053 419.304 363.656 419.605 363.161 419.855C362.667 420.105 362.045 420.23 361.295 420.23ZM362.156 417.699C362.809 417.699 363.366 417.523 363.826 417.17C364.286 416.812 364.636 416.315 364.874 415.679C365.113 415.043 365.232 414.301 365.232 413.455C365.232 412.608 365.113 411.872 364.874 411.247C364.641 410.622 364.295 410.136 363.835 409.79C363.38 409.443 362.82 409.27 362.156 409.27C361.468 409.27 360.894 409.449 360.434 409.807C359.974 410.165 359.627 410.659 359.394 411.29C359.161 411.92 359.045 412.642 359.045 413.455C359.045 414.273 359.161 415.003 359.394 415.645C359.633 416.281 359.982 416.784 360.442 417.153C360.908 417.517 361.479 417.699 362.156 417.699ZM371.554 420V406.909H374.639V420H371.554ZM373.105 405.051C372.616 405.051 372.196 404.889 371.844 404.565C371.491 404.236 371.315 403.841 371.315 403.381C371.315 402.915 371.491 402.52 371.844 402.196C372.196 401.866 372.616 401.702 373.105 401.702C373.599 401.702 374.02 401.866 374.366 402.196C374.719 402.52 374.895 402.915 374.895 403.381C374.895 403.841 374.719 404.236 374.366 404.565C374.02 404.889 373.599 405.051 373.105 405.051ZM377.812 420V406.909H380.803V409.091H380.94C381.178 408.335 381.587 407.753 382.167 407.344C382.752 406.929 383.42 406.722 384.17 406.722C384.34 406.722 384.531 406.73 384.741 406.747C384.957 406.759 385.136 406.778 385.278 406.807V409.645C385.147 409.599 384.94 409.56 384.656 409.526C384.377 409.486 384.107 409.466 383.846 409.466C383.283 409.466 382.778 409.588 382.329 409.832C381.886 410.071 381.536 410.403 381.281 410.83C381.025 411.256 380.897 411.747 380.897 412.304V420H377.812ZM392.584 420.256C391.271 420.256 390.138 419.983 389.183 419.438C388.234 418.886 387.504 418.108 386.993 417.102C386.482 416.091 386.226 414.901 386.226 413.531C386.226 412.185 386.482 411.003 386.993 409.986C387.51 408.963 388.232 408.168 389.158 407.599C390.084 407.026 391.172 406.739 392.422 406.739C393.229 406.739 393.99 406.869 394.706 407.131C395.428 407.386 396.064 407.784 396.615 408.324C397.172 408.864 397.609 409.551 397.928 410.386C398.246 411.216 398.405 412.205 398.405 413.352V414.298H387.675V412.219H395.447C395.442 411.628 395.314 411.102 395.064 410.642C394.814 410.176 394.464 409.81 394.016 409.543C393.572 409.276 393.055 409.142 392.464 409.142C391.834 409.142 391.28 409.295 390.803 409.602C390.325 409.903 389.953 410.301 389.686 410.795C389.425 411.284 389.291 411.821 389.286 412.406V414.222C389.286 414.983 389.425 415.636 389.703 416.182C389.982 416.722 390.371 417.136 390.871 417.426C391.371 417.71 391.956 417.852 392.626 417.852C393.075 417.852 393.482 417.79 393.845 417.665C394.209 417.534 394.524 417.344 394.791 417.094C395.058 416.844 395.26 416.534 395.396 416.165L398.277 416.489C398.095 417.25 397.749 417.915 397.237 418.483C396.732 419.045 396.084 419.483 395.294 419.795C394.504 420.102 393.601 420.256 392.584 420.256ZM406.725 420.256C405.418 420.256 404.296 419.969 403.359 419.395C402.427 418.821 401.708 418.028 401.202 417.017C400.702 416 400.452 414.83 400.452 413.506C400.452 412.176 400.708 411.003 401.219 409.986C401.731 408.963 402.452 408.168 403.384 407.599C404.322 407.026 405.43 406.739 406.708 406.739C407.771 406.739 408.711 406.935 409.529 407.327C410.353 407.713 411.009 408.261 411.498 408.972C411.987 409.676 412.265 410.5 412.333 411.443H409.384C409.265 410.812 408.981 410.287 408.532 409.866C408.089 409.44 407.495 409.227 406.751 409.227C406.12 409.227 405.566 409.398 405.089 409.739C404.612 410.074 404.239 410.557 403.972 411.188C403.711 411.818 403.58 412.574 403.58 413.455C403.58 414.347 403.711 415.114 403.972 415.756C404.234 416.392 404.6 416.884 405.072 417.23C405.549 417.571 406.109 417.741 406.751 417.741C407.205 417.741 407.612 417.656 407.969 417.486C408.333 417.31 408.637 417.057 408.881 416.727C409.126 416.398 409.293 415.997 409.384 415.526H412.333C412.259 416.452 411.987 417.273 411.515 417.989C411.043 418.699 410.401 419.256 409.589 419.659C408.776 420.057 407.822 420.256 406.725 420.256ZM414.866 420V406.909H417.952V420H414.866ZM416.418 405.051C415.929 405.051 415.509 404.889 415.156 404.565C414.804 404.236 414.628 403.841 414.628 403.381C414.628 402.915 414.804 402.52 415.156 402.196C415.509 401.866 415.929 401.702 416.418 401.702C416.912 401.702 417.332 401.866 417.679 402.196C418.031 402.52 418.207 402.915 418.207 403.381C418.207 403.841 418.031 404.236 417.679 404.565C417.332 404.889 416.912 405.051 416.418 405.051ZM426.835 420.256C425.556 420.256 424.448 419.974 423.511 419.412C422.573 418.849 421.846 418.062 421.329 417.051C420.817 416.04 420.562 414.858 420.562 413.506C420.562 412.153 420.817 410.969 421.329 409.952C421.846 408.935 422.573 408.145 423.511 407.582C424.448 407.02 425.556 406.739 426.835 406.739C428.113 406.739 429.221 407.02 430.158 407.582C431.096 408.145 431.82 408.935 432.332 409.952C432.849 410.969 433.107 412.153 433.107 413.506C433.107 414.858 432.849 416.04 432.332 417.051C431.82 418.062 431.096 418.849 430.158 419.412C429.221 419.974 428.113 420.256 426.835 420.256ZM426.852 417.784C427.545 417.784 428.124 417.594 428.59 417.213C429.056 416.827 429.403 416.31 429.63 415.662C429.863 415.014 429.979 414.293 429.979 413.497C429.979 412.696 429.863 411.972 429.63 411.324C429.403 410.67 429.056 410.151 428.59 409.764C428.124 409.378 427.545 409.185 426.852 409.185C426.141 409.185 425.55 409.378 425.079 409.764C424.613 410.151 424.263 410.67 424.031 411.324C423.803 411.972 423.69 412.696 423.69 413.497C423.69 414.293 423.803 415.014 424.031 415.662C424.263 416.31 424.613 416.827 425.079 417.213C425.55 417.594 426.141 417.784 426.852 417.784ZM438.811 412.33V420H435.726V406.909H438.675V409.134H438.828C439.129 408.401 439.609 407.818 440.268 407.386C440.933 406.955 441.754 406.739 442.732 406.739C443.635 406.739 444.422 406.932 445.092 407.318C445.768 407.705 446.291 408.264 446.661 408.997C447.036 409.73 447.22 410.619 447.214 411.665V420H444.129V412.142C444.129 411.267 443.902 410.582 443.447 410.088C442.999 409.594 442.376 409.347 441.581 409.347C441.041 409.347 440.561 409.466 440.141 409.705C439.726 409.937 439.399 410.276 439.161 410.719C438.928 411.162 438.811 411.699 438.811 412.33ZM454.118 420.264C453.288 420.264 452.541 420.116 451.876 419.821C451.217 419.52 450.695 419.077 450.308 418.491C449.928 417.906 449.737 417.185 449.737 416.327C449.737 415.588 449.874 414.977 450.146 414.494C450.419 414.011 450.791 413.625 451.263 413.335C451.734 413.045 452.266 412.827 452.857 412.679C453.453 412.526 454.07 412.415 454.706 412.347C455.473 412.267 456.095 412.196 456.572 412.134C457.05 412.065 457.396 411.963 457.612 411.827C457.834 411.685 457.945 411.466 457.945 411.17V411.119C457.945 410.477 457.754 409.98 457.374 409.628C456.993 409.276 456.445 409.099 455.729 409.099C454.973 409.099 454.374 409.264 453.93 409.594C453.493 409.923 453.197 410.312 453.044 410.761L450.163 410.352C450.391 409.557 450.766 408.892 451.288 408.358C451.811 407.818 452.45 407.415 453.206 407.148C453.962 406.875 454.797 406.739 455.712 406.739C456.342 406.739 456.97 406.812 457.595 406.96C458.22 407.108 458.791 407.352 459.308 407.693C459.825 408.028 460.24 408.486 460.553 409.065C460.871 409.645 461.03 410.369 461.03 411.239V420H458.064V418.202H457.962C457.774 418.565 457.51 418.906 457.169 419.224C456.834 419.537 456.411 419.79 455.899 419.983C455.393 420.17 454.8 420.264 454.118 420.264ZM454.919 417.997C455.538 417.997 456.075 417.875 456.53 417.631C456.984 417.381 457.334 417.051 457.578 416.642C457.828 416.233 457.953 415.787 457.953 415.304V413.761C457.857 413.841 457.692 413.915 457.459 413.983C457.232 414.051 456.976 414.111 456.692 414.162C456.408 414.213 456.126 414.259 455.848 414.298C455.57 414.338 455.328 414.372 455.124 414.401C454.663 414.463 454.251 414.565 453.888 414.707C453.524 414.849 453.237 415.048 453.027 415.304C452.817 415.554 452.712 415.878 452.712 416.276C452.712 416.844 452.919 417.273 453.334 417.562C453.749 417.852 454.277 417.997 454.919 417.997ZM467.217 402.545V420H464.132V402.545H467.217Z" fill="#3A74B5"/>
<path fill-rule="evenodd" clip-rule="evenodd" d="M136.738 417.825L134.867 424.667L141.841 422.825C143.763 423.886 145.923 424.441 148.119 424.438C155.359 424.438 161.25 418.51 161.25 411.225C161.25 407.691 159.887 404.371 157.403 401.871C154.918 399.371 151.619 398 148.106 398C140.865 398 134.974 403.927 134.988 411.225C134.984 413.54 135.588 415.816 136.738 417.825ZM142.549 420.688L142.148 420.446L142.147 420.447L137.993 421.549L139.102 417.49L138.848 417.073C137.752 415.326 137.177 413.296 137.177 411.226C137.177 405.178 142.08 400.245 148.105 400.245C151.017 400.245 153.769 401.401 155.828 403.47C157.885 405.54 159.02 408.309 159.02 411.239C159.02 417.287 154.117 422.22 148.106 422.22C146.15 422.219 144.23 421.69 142.549 420.688Z" fill="url(#paint0_linear_6449_43271)"/>
<path d="M142.151 420.446L142.551 420.688C144.232 421.689 146.152 422.219 148.109 422.22C154.12 422.22 159.022 417.287 159.022 411.239C159.022 408.309 157.887 405.54 155.83 403.47C153.771 401.401 151.019 400.245 148.107 400.245C142.082 400.245 137.18 405.178 137.18 411.226C137.18 413.296 137.754 415.326 138.85 417.073L139.104 417.49L137.995 421.549L142.149 420.447L142.151 420.446Z" fill="url(#paint1_linear_6449_43271)"/>
<path fill-rule="evenodd" clip-rule="evenodd" d="M144.834 405.688C144.594 405.137 144.326 405.123 144.099 405.123C143.899 405.11 143.685 405.11 143.458 405.11C143.244 405.11 142.884 405.19 142.577 405.526C142.269 405.862 141.428 406.656 141.428 408.282C141.428 409.908 142.604 411.481 142.764 411.696C142.924 411.911 145.035 415.352 148.374 416.683C151.152 417.785 151.714 417.57 152.315 417.502C152.916 417.435 154.252 416.71 154.532 415.929C154.799 415.164 154.799 414.492 154.719 414.357C154.639 414.223 154.412 414.142 154.091 413.968C153.757 413.806 152.154 413 151.847 412.892C151.54 412.784 151.326 412.731 151.112 413.053C150.899 413.389 150.271 414.129 150.07 414.343C149.883 414.559 149.683 414.586 149.363 414.424C149.028 414.264 147.974 413.914 146.717 412.784C145.743 411.911 145.088 410.822 144.888 410.5C144.701 410.164 144.861 409.989 145.035 409.828C145.181 409.68 145.369 409.438 145.529 409.25C145.689 409.061 145.742 408.914 145.863 408.698C145.97 408.484 145.916 408.282 145.836 408.121C145.756 407.973 145.128 406.347 144.834 405.688Z" fill="white"/>
<defs>
<linearGradient id="paint0_linear_6449_43271" x1="148.056" y1="424.67" x2="148.056" y2="398.004" gradientUnits="userSpaceOnUse">
<stop stop-color="#F9F9F9"/>
<stop offset="1" stop-color="white"/>
</linearGradient>
<linearGradient id="paint1_linear_6449_43271" x1="148.058" y1="424.208" x2="148.058" y2="398.465" gradientUnits="userSpaceOnUse">
<stop stop-color="#20B038"/>
<stop offset="1" stop-color="#60D66A"/>
</linearGradient>
</defs>
</svg>
