<svg width="500" height="350" viewBox="0 0 500 350" fill="none" xmlns="http://www.w3.org/2000/svg">
<g opacity="0.4" filter="url(#filter0_f_6423_12758)">
<ellipse cx="223.71" cy="284.911" rx="189.888" ry="2.09821" fill="black"/>
</g>
<path d="M53.5446 50.75C53.5446 44.4924 58.6174 39.4196 64.875 39.4196H383.804C390.061 39.4196 395.134 44.4924 395.134 50.75V269.804C395.134 270.499 394.57 271.062 393.875 271.062H54.8036C54.1083 271.062 53.5446 270.499 53.5446 269.804V50.75Z" fill="#E2E8F0" stroke="#CBD5E0" stroke-width="0.839286"/>
<path d="M55.2231 50.3303C55.2231 45.2315 59.3565 41.0981 64.4553 41.0981H384.223C389.322 41.0981 393.455 45.2315 393.455 50.3303V262.67H55.2231V50.3303Z" fill="#C5D8F1"/>
<path d="M12 270.643C12 270.179 12.3758 269.804 12.8393 269.804H434.161C434.624 269.804 435 270.179 435 270.643V277.357H12V270.643Z" fill="#C3D2E7"/>
<path d="M12 270.643C12 270.179 12.3758 269.804 12.8393 269.804H434.161C434.624 269.804 435 270.179 435 270.643V277.357H12V270.643Z" fill="url(#paint0_linear_6423_12758)"/>
<path d="M12 277.357H435C418.497 283.737 400.956 287.009 383.262 287.009H59.2913C43.0385 287.009 26.953 283.726 12 277.357Z" fill="#C3D2E7"/>
<path d="M12 277.357H435C418.497 283.737 400.956 287.009 383.262 287.009H59.2913C43.0385 287.009 26.953 283.726 12 277.357Z" fill="url(#paint1_linear_6423_12758)"/>
<path fill-rule="evenodd" clip-rule="evenodd" d="M188.684 269.804C188.9 273.084 191.629 275.679 194.964 275.679H252.456C255.791 275.679 258.52 273.084 258.736 269.804H188.684Z" fill="#C3D2E7"/>
<path fill-rule="evenodd" clip-rule="evenodd" d="M188.684 269.804C188.9 273.084 191.629 275.679 194.964 275.679H252.456C255.791 275.679 258.52 273.084 258.736 269.804H188.684Z" fill="url(#paint2_linear_6423_12758)"/>
<rect x="62.2075" y="53.4829" width="322.737" height="202.523" fill="white"/>
<path d="M191.382 237.477V216.106C191.382 208.22 197.598 201.82 205.256 201.82C212.915 201.82 219.131 208.22 219.131 216.106V237.477C225.846 232.849 230.231 225.02 230.231 216.106C230.231 201.877 219.076 190.392 205.256 190.392C191.437 190.392 180.282 201.877 180.282 216.106C180.282 225.02 184.666 232.849 191.382 237.477ZM221.906 251.592C220.352 250.792 218.687 250.392 216.967 250.392H213.581V216.106C213.581 211.363 209.863 207.534 205.256 207.534C200.65 207.534 196.932 211.363 196.932 216.106V277.477L177.84 273.363C175.787 272.906 173.622 273.592 172.124 275.134C169.737 277.649 169.737 281.649 172.124 284.163L194.379 307.077C196.488 309.192 199.318 310.392 202.259 310.392H236.114C241.663 310.392 246.325 306.22 247.102 300.563L250.599 275.02C251.265 270.163 248.823 265.363 244.549 263.192L221.906 251.592Z" fill="#1E75BA"/>
<g filter="url(#filter1_d_6423_12758)">
<rect x="79" y="92" width="60" height="60" rx="30" fill="#FDF4E2" shape-rendering="crispEdges"/>
<path d="M117.671 120.674C117.671 120.573 117.577 120.491 117.461 120.491H115.884C115.769 120.491 115.674 120.573 115.674 120.674C115.674 123.882 112.687 126.482 109 126.482C105.314 126.482 102.326 123.882 102.326 120.674C102.326 120.573 102.231 120.491 102.116 120.491H100.539C100.424 120.491 100.329 120.573 100.329 120.674C100.329 124.531 103.656 127.715 107.949 128.165V130.507H104.131C103.771 130.507 103.482 130.834 103.482 131.239V132.062C103.482 132.162 103.556 132.245 103.645 132.245H114.355C114.444 132.245 114.518 132.162 114.518 132.062V131.239C114.518 130.834 114.229 130.507 113.869 130.507H109.946V128.177C114.289 127.765 117.671 124.563 117.671 120.674ZM109 124.561C111.467 124.561 113.467 122.842 113.467 120.719V115.597C113.467 113.475 111.467 111.755 109 111.755C106.533 111.755 104.533 113.475 104.533 115.597V120.719C104.533 122.842 106.533 124.561 109 124.561ZM106.53 115.597C106.53 114.44 107.631 113.493 109 113.493C110.369 113.493 111.47 114.44 111.47 115.597V120.719C111.47 121.877 110.369 122.823 109 122.823C107.631 122.823 106.53 121.877 106.53 120.719V115.597Z" fill="#373F46"/>
</g>
<g filter="url(#filter2_d_6423_12758)">
<rect x="231" y="92" width="60" height="60" rx="30" fill="#FDF4E2" shape-rendering="crispEdges"/>
<path d="M252.61 113.998C251.598 113.998 250.628 114.349 249.913 114.974C249.198 115.599 248.796 116.448 248.796 117.332L248.796 130.002C249.278 129.581 249.783 128.736 250.321 128.668V117.332C250.321 116.801 250.562 116.292 250.992 115.917C251.421 115.542 252.003 115.331 252.61 115.331H263.288C263.895 115.331 264.477 115.542 264.906 115.917C265.335 116.292 265.576 116.801 265.576 117.332V126.668C265.576 127.198 265.335 127.707 264.906 128.082C264.477 128.458 263.895 128.668 263.288 128.668H262.525V130.002H263.288C264.299 130.002 265.269 129.651 265.984 129.025C266.7 128.4 267.101 127.552 267.101 126.668V125.334L270.762 127.735C270.989 127.883 271.259 127.974 271.541 127.996C271.823 128.018 272.107 127.971 272.36 127.861C272.613 127.75 272.826 127.58 272.975 127.369C273.124 127.158 273.203 126.915 273.203 126.668V117.332C273.203 117.084 273.124 116.841 272.975 116.631C272.826 116.42 272.613 116.25 272.36 116.139C272.107 116.028 271.823 115.981 271.541 116.004C271.259 116.026 270.989 116.116 270.762 116.265L267.101 118.666V117.332C267.101 116.448 266.7 115.599 265.984 114.974C265.269 114.349 264.299 113.998 263.288 113.998H252.61ZM267.101 120.333L271.678 117.332V126.668L267.101 123.667V120.333Z" fill="#373F46"/>
<path d="M250.321 128.668C249.783 128.736 249.278 129.581 248.796 130.002H262.525V128.668H250.321Z" fill="#373F46"/>
</g>
<g filter="url(#filter3_d_6423_12758)">
<rect x="155" y="92" width="60" height="60" rx="30" fill="#373F46" shape-rendering="crispEdges"/>
<path d="M185.963 114.419H177.292C176.781 114.419 176.291 114.596 175.93 114.912C175.568 115.228 175.365 115.657 175.365 116.104V124.527C175.365 124.974 175.568 125.402 175.93 125.718C176.291 126.034 176.781 126.212 177.292 126.212H192.707C193.218 126.212 193.708 126.034 194.07 125.718C194.431 125.402 194.634 124.974 194.634 124.527V122M181.146 129.581H188.853M185 126.212V129.581M194.634 114.419L189.817 118.631M189.817 114.419L194.634 118.631" stroke="white" stroke-width="2.16602" stroke-linecap="round" stroke-linejoin="round"/>
</g>
<g filter="url(#filter4_d_6423_12758)">
<rect x="307" y="92" width="60" height="60" rx="30" fill="#DE6863" shape-rendering="crispEdges"/>
<path d="M350.556 122.112L346.791 125.404L342.544 123.812L343.194 120.971C343.232 120.804 343.223 120.631 343.166 120.468C343.11 120.304 343.008 120.156 342.87 120.035C342.788 119.968 342.869 120.034 342.869 120.034L342.851 120.019C342.813 119.987 342.774 119.955 342.734 119.925C342.66 119.869 342.559 119.795 342.428 119.709C342.169 119.54 341.794 119.322 341.304 119.108C340.32 118.678 338.882 118.265 337 118.265C335.119 118.265 333.681 118.678 332.697 119.107C332.207 119.322 331.834 119.54 331.572 119.71C331.425 119.806 331.284 119.91 331.15 120.02L331.138 120.029L331.132 120.034C331.132 120.034 331.043 120.121 331.131 120.035C330.975 120.171 330.866 120.343 330.816 120.53C330.765 120.717 330.775 120.913 330.845 121.096L331.407 122.569L327.067 125.279L323.444 122.112C324.959 120.341 329.487 115.94 337 115.94C344.513 115.94 349.043 120.341 350.556 122.112ZM340.724 121.199L340.218 123.406C340.112 123.872 340.192 124.357 340.445 124.778C340.699 125.199 341.11 125.531 341.61 125.718L345.857 127.31C346.293 127.473 346.774 127.518 347.24 127.44C347.705 127.361 348.133 127.163 348.468 126.87L352.277 123.54C353.039 122.874 353.227 121.784 352.525 120.952C350.93 119.059 345.764 113.867 337 113.867C328.236 113.867 323.071 119.06 321.476 120.952C320.775 121.785 320.962 122.874 321.724 123.54L325.39 126.745C325.787 127.092 326.312 127.305 326.871 127.345C327.431 127.386 327.988 127.252 328.445 126.966L332.784 124.256C333.197 123.999 333.505 123.632 333.662 123.21C333.819 122.789 333.817 122.334 333.656 121.913L333.365 121.152C333.493 121.084 333.624 121.021 333.758 120.962C334.45 120.659 335.528 120.339 337 120.339C338.473 120.339 339.55 120.659 340.244 120.963C340.408 121.035 340.568 121.114 340.723 121.199L340.724 121.199Z" fill="white"/>
</g>
<g filter="url(#filter5_d_6423_12758)">
<rect x="281" y="180" width="206.443" height="48.2213" rx="24.1106" fill="white" shape-rendering="crispEdges"/>
<path d="M311.262 212.865C310.144 212.865 309.112 212.667 308.164 212.271C307.23 211.861 306.409 211.288 305.702 210.552C305.009 209.817 304.471 208.954 304.089 207.963C303.707 206.973 303.516 205.891 303.516 204.717C303.516 203.528 303.707 202.439 304.089 201.448C304.471 200.458 305.009 199.595 305.702 198.859C306.395 198.124 307.216 197.558 308.164 197.162C309.112 196.751 310.144 196.546 311.262 196.546C312.351 196.546 313.327 196.737 314.19 197.119C315.068 197.501 315.803 197.996 316.397 198.605C317.006 199.213 317.437 199.864 317.692 200.557L315.782 201.427C315.414 200.55 314.841 199.843 314.063 199.305C313.285 198.753 312.351 198.477 311.262 198.477C310.158 198.477 309.175 198.739 308.312 199.263C307.463 199.786 306.798 200.515 306.317 201.448C305.836 202.382 305.596 203.472 305.596 204.717C305.596 205.947 305.836 207.03 306.317 207.963C306.798 208.897 307.463 209.626 308.312 210.149C309.175 210.673 310.158 210.934 311.262 210.934C312.351 210.934 313.285 210.666 314.063 210.128C314.841 209.576 315.414 208.862 315.782 207.985L317.692 208.855C317.437 209.548 317.006 210.199 316.397 210.807C315.803 211.415 315.068 211.911 314.19 212.293C313.327 212.675 312.351 212.865 311.262 212.865ZM325.513 212.865C324.409 212.865 323.412 212.611 322.52 212.102C321.629 211.578 320.922 210.864 320.398 209.958C319.875 209.053 319.613 208.027 319.613 206.881C319.613 205.735 319.868 204.717 320.377 203.825C320.901 202.934 321.608 202.227 322.499 201.703C323.391 201.18 324.395 200.918 325.513 200.918C326.616 200.918 327.614 201.18 328.505 201.703C329.396 202.212 330.096 202.913 330.606 203.804C331.129 204.695 331.391 205.721 331.391 206.881C331.391 208.041 331.122 209.074 330.585 209.979C330.047 210.871 329.333 211.578 328.441 212.102C327.564 212.611 326.588 212.865 325.513 212.865ZM325.513 210.956C326.22 210.956 326.857 210.779 327.423 210.425C328.003 210.071 328.455 209.583 328.781 208.961C329.12 208.338 329.29 207.645 329.29 206.881C329.29 206.103 329.12 205.417 328.781 204.823C328.455 204.214 328.003 203.733 327.423 203.38C326.857 203.012 326.22 202.828 325.513 202.828C324.791 202.828 324.14 203.012 323.56 203.38C322.994 203.733 322.542 204.214 322.202 204.823C321.863 205.417 321.693 206.103 321.693 206.881C321.693 207.645 321.863 208.338 322.202 208.961C322.542 209.583 322.994 210.071 323.56 210.425C324.14 210.779 324.791 210.956 325.513 210.956ZM333.965 212.611V201.173H335.896V203.401L335.578 203.21C335.861 202.488 336.314 201.929 336.936 201.533C337.573 201.123 338.315 200.918 339.164 200.918C339.985 200.918 340.713 201.102 341.35 201.47C342.001 201.838 342.51 202.347 342.878 202.998C343.26 203.648 343.451 204.384 343.451 205.205V212.611H341.456V205.841C341.456 205.205 341.343 204.667 341.117 204.228C340.89 203.79 340.565 203.45 340.14 203.21C339.73 202.955 339.256 202.828 338.719 202.828C338.181 202.828 337.7 202.955 337.276 203.21C336.865 203.45 336.54 203.797 336.299 204.25C336.059 204.688 335.939 205.219 335.939 205.841V212.611H333.965ZM350.922 212.738C349.805 212.738 348.942 212.42 348.333 211.783C347.739 211.147 347.442 210.248 347.442 209.088V203.061H345.363V201.173H345.787C346.296 201.173 346.699 201.017 346.997 200.706C347.294 200.394 347.442 199.984 347.442 199.475V198.541H349.416V201.173H351.984V203.061H349.416V209.024C349.416 209.406 349.472 209.739 349.586 210.022C349.713 210.305 349.918 210.531 350.201 210.701C350.484 210.857 350.859 210.934 351.326 210.934C351.425 210.934 351.545 210.927 351.686 210.913C351.842 210.899 351.984 210.885 352.111 210.871V212.611C351.927 212.653 351.722 212.682 351.495 212.696C351.269 212.724 351.078 212.738 350.922 212.738ZM354.689 212.611V201.173H356.62V203.273L356.408 202.976C356.677 202.326 357.087 201.845 357.639 201.533C358.19 201.208 358.862 201.045 359.655 201.045H360.355V202.913H359.358C358.551 202.913 357.9 203.167 357.405 203.677C356.91 204.172 356.662 204.879 356.662 205.799V212.611H354.689ZM367.541 212.865C366.437 212.865 365.44 212.611 364.549 212.102C363.657 211.578 362.95 210.864 362.426 209.958C361.903 209.053 361.641 208.027 361.641 206.881C361.641 205.735 361.896 204.717 362.405 203.825C362.929 202.934 363.636 202.227 364.527 201.703C365.419 201.18 366.423 200.918 367.541 200.918C368.644 200.918 369.642 201.18 370.533 201.703C371.424 202.212 372.125 202.913 372.634 203.804C373.157 204.695 373.419 205.721 373.419 206.881C373.419 208.041 373.15 209.074 372.613 209.979C372.075 210.871 371.361 211.578 370.469 212.102C369.592 212.611 368.616 212.865 367.541 212.865ZM367.541 210.956C368.248 210.956 368.885 210.779 369.451 210.425C370.031 210.071 370.483 209.583 370.809 208.961C371.148 208.338 371.318 207.645 371.318 206.881C371.318 206.103 371.148 205.417 370.809 204.823C370.483 204.214 370.031 203.733 369.451 203.38C368.885 203.012 368.248 202.828 367.541 202.828C366.819 202.828 366.168 203.012 365.588 203.38C365.022 203.733 364.57 204.214 364.23 204.823C363.891 205.417 363.721 206.103 363.721 206.881C363.721 207.645 363.891 208.338 364.23 208.961C364.57 209.583 365.022 210.071 365.588 210.425C366.168 210.779 366.819 210.956 367.541 210.956ZM375.993 212.611V196.546H377.967V212.611H375.993ZM386.292 212.865C385.188 212.865 384.205 212.604 383.342 212.08C382.479 211.557 381.8 210.842 381.305 209.937C380.81 209.017 380.562 207.992 380.562 206.86C380.562 205.714 380.803 204.695 381.284 203.804C381.779 202.913 382.444 202.212 383.278 201.703C384.127 201.18 385.075 200.918 386.122 200.918C386.971 200.918 387.721 201.074 388.372 201.385C389.036 201.682 389.595 202.092 390.048 202.616C390.515 203.125 390.869 203.712 391.109 204.377C391.364 205.028 391.491 205.707 391.491 206.414C391.491 206.57 391.477 206.747 391.449 206.945C391.434 207.129 391.413 207.306 391.385 207.475H382.005V205.778H390.239L389.305 206.542C389.433 205.806 389.362 205.148 389.093 204.568C388.824 203.988 388.428 203.528 387.905 203.189C387.381 202.849 386.787 202.679 386.122 202.679C385.457 202.679 384.849 202.849 384.297 203.189C383.745 203.528 383.314 204.016 383.003 204.653C382.705 205.275 382.585 206.018 382.642 206.881C382.585 207.716 382.713 208.451 383.024 209.088C383.349 209.711 383.802 210.199 384.382 210.552C384.976 210.892 385.62 211.062 386.313 211.062C387.077 211.062 387.721 210.885 388.244 210.531C388.768 210.177 389.192 209.725 389.517 209.173L391.173 210.022C390.946 210.545 390.593 211.026 390.112 211.465C389.645 211.889 389.086 212.229 388.435 212.484C387.799 212.738 387.084 212.865 386.292 212.865ZM402.932 212.865C401.856 212.865 400.887 212.604 400.024 212.08C399.175 211.557 398.503 210.842 398.008 209.937C397.513 209.032 397.266 208.02 397.266 206.902C397.266 205.756 397.513 204.738 398.008 203.846C398.503 202.941 399.175 202.227 400.024 201.703C400.887 201.18 401.856 200.918 402.932 200.918C403.88 200.918 404.721 201.123 405.457 201.533C406.193 201.929 406.773 202.467 407.197 203.146L406.879 203.634V196.546H408.874V212.611H406.942V210.17L407.197 210.51C406.801 211.26 406.221 211.84 405.457 212.25C404.707 212.66 403.865 212.865 402.932 212.865ZM403.101 210.956C403.823 210.956 404.467 210.779 405.033 210.425C405.598 210.071 406.044 209.59 406.369 208.982C406.709 208.36 406.879 207.666 406.879 206.902C406.879 206.124 406.709 205.431 406.369 204.823C406.044 204.2 405.598 203.712 405.033 203.358C404.467 203.005 403.823 202.828 403.101 202.828C402.394 202.828 401.75 203.012 401.17 203.38C400.604 203.733 400.159 204.214 399.833 204.823C399.508 205.417 399.345 206.11 399.345 206.902C399.345 207.666 399.508 208.36 399.833 208.982C400.159 209.59 400.604 210.071 401.17 210.425C401.736 210.779 402.38 210.956 403.101 210.956ZM417.191 212.865C416.088 212.865 415.104 212.604 414.241 212.08C413.378 211.557 412.699 210.842 412.204 209.937C411.709 209.017 411.461 207.992 411.461 206.86C411.461 205.714 411.702 204.695 412.183 203.804C412.678 202.913 413.343 202.212 414.178 201.703C415.027 201.18 415.974 200.918 417.021 200.918C417.87 200.918 418.62 201.074 419.271 201.385C419.936 201.682 420.495 202.092 420.947 202.616C421.414 203.125 421.768 203.712 422.008 204.377C422.263 205.028 422.39 205.707 422.39 206.414C422.39 206.57 422.376 206.747 422.348 206.945C422.334 207.129 422.313 207.306 422.284 207.475H412.904V205.778H421.138L420.205 206.542C420.332 205.806 420.261 205.148 419.992 204.568C419.724 203.988 419.327 203.528 418.804 203.189C418.281 202.849 417.686 202.679 417.021 202.679C416.356 202.679 415.748 202.849 415.196 203.189C414.645 203.528 414.213 204.016 413.902 204.653C413.605 205.275 413.485 206.018 413.541 206.881C413.485 207.716 413.612 208.451 413.923 209.088C414.248 209.711 414.701 210.199 415.281 210.552C415.875 210.892 416.519 211.062 417.212 211.062C417.976 211.062 418.62 210.885 419.144 210.531C419.667 210.177 420.091 209.725 420.417 209.173L422.072 210.022C421.846 210.545 421.492 211.026 421.011 211.465C420.544 211.889 419.985 212.229 419.335 212.484C418.698 212.738 417.983 212.865 417.191 212.865ZM433.279 212.738C432.162 212.738 431.299 212.42 430.69 211.783C430.096 211.147 429.799 210.248 429.799 209.088V203.061H427.719V201.173H428.144C428.653 201.173 429.056 201.017 429.353 200.706C429.65 200.394 429.799 199.984 429.799 199.475V198.541H431.772V201.173H434.34V203.061H431.772V209.024C431.772 209.406 431.829 209.739 431.942 210.022C432.07 210.305 432.275 210.531 432.558 210.701C432.841 210.857 433.216 210.934 433.682 210.934C433.781 210.934 433.902 210.927 434.043 210.913C434.199 210.899 434.34 210.885 434.468 210.871V212.611C434.284 212.653 434.079 212.682 433.852 212.696C433.626 212.724 433.435 212.738 433.279 212.738ZM441.998 212.865C440.894 212.865 439.911 212.604 439.048 212.08C438.185 211.557 437.506 210.842 437.011 209.937C436.515 209.017 436.268 207.992 436.268 206.86C436.268 205.714 436.508 204.695 436.989 203.804C437.485 202.913 438.15 202.212 438.984 201.703C439.833 201.18 440.781 200.918 441.828 200.918C442.677 200.918 443.427 201.074 444.077 201.385C444.742 201.682 445.301 202.092 445.754 202.616C446.221 203.125 446.574 203.712 446.815 204.377C447.07 205.028 447.197 205.707 447.197 206.414C447.197 206.57 447.183 206.747 447.154 206.945C447.14 207.129 447.119 207.306 447.091 207.475H437.711V205.778H445.945L445.011 206.542C445.138 205.806 445.068 205.148 444.799 204.568C444.53 203.988 444.134 203.528 443.61 203.189C443.087 202.849 442.493 202.679 441.828 202.679C441.163 202.679 440.555 202.849 440.003 203.189C439.451 203.528 439.02 204.016 438.708 204.653C438.411 205.275 438.291 206.018 438.348 206.881C438.291 207.716 438.418 208.451 438.73 209.088C439.055 209.711 439.508 210.199 440.088 210.552C440.682 210.892 441.326 211.062 442.019 211.062C442.783 211.062 443.427 210.885 443.95 210.531C444.473 210.177 444.898 209.725 445.223 209.173L446.879 210.022C446.652 210.545 446.298 211.026 445.817 211.465C445.351 211.889 444.792 212.229 444.141 212.484C443.504 212.738 442.79 212.865 441.998 212.865ZM449.77 212.611V196.546H451.744V212.611H449.77ZM458.159 212.865C457.409 212.865 456.744 212.731 456.164 212.462C455.598 212.179 455.153 211.797 454.827 211.316C454.502 210.821 454.339 210.255 454.339 209.619C454.339 209.01 454.466 208.466 454.721 207.985C454.99 207.489 455.4 207.072 455.952 206.733C456.518 206.393 457.225 206.153 458.074 206.011L462.318 205.311V206.966L458.52 207.603C457.784 207.73 457.246 207.963 456.907 208.303C456.582 208.642 456.419 209.06 456.419 209.555C456.419 210.022 456.603 210.411 456.971 210.722C457.353 211.033 457.826 211.189 458.392 211.189C459.114 211.189 459.736 211.04 460.26 210.743C460.797 210.432 461.215 210.015 461.512 209.491C461.823 208.968 461.979 208.388 461.979 207.751V204.844C461.979 204.221 461.745 203.719 461.278 203.337C460.826 202.941 460.225 202.743 459.475 202.743C458.824 202.743 458.244 202.913 457.735 203.252C457.239 203.578 456.872 204.016 456.631 204.568L454.912 203.677C455.124 203.153 455.464 202.686 455.931 202.276C456.398 201.852 456.942 201.519 457.565 201.279C458.187 201.038 458.838 200.918 459.517 200.918C460.394 200.918 461.165 201.088 461.83 201.427C462.495 201.753 463.012 202.212 463.379 202.807C463.761 203.387 463.952 204.066 463.952 204.844V212.611H462.021V210.446L462.382 210.574C462.141 211.026 461.816 211.422 461.406 211.762C460.996 212.102 460.515 212.37 459.963 212.568C459.411 212.766 458.81 212.865 458.159 212.865Z" fill="#212528"/>
</g>
<defs>
<filter id="filter0_f_6423_12758" x="15.357" y="264.348" width="416.705" height="41.1249" filterUnits="userSpaceOnUse" color-interpolation-filters="sRGB">
<feFlood flood-opacity="0" result="BackgroundImageFix"/>
<feBlend mode="normal" in="SourceGraphic" in2="BackgroundImageFix" result="shape"/>
<feGaussianBlur stdDeviation="9.23214" result="effect1_foregroundBlur_6423_12758"/>
</filter>
<filter id="filter1_d_6423_12758" x="75" y="88" width="68" height="68" filterUnits="userSpaceOnUse" color-interpolation-filters="sRGB">
<feFlood flood-opacity="0" result="BackgroundImageFix"/>
<feColorMatrix in="SourceAlpha" type="matrix" values="0 0 0 0 0 0 0 0 0 0 0 0 0 0 0 0 0 0 127 0" result="hardAlpha"/>
<feOffset/>
<feGaussianBlur stdDeviation="2"/>
<feComposite in2="hardAlpha" operator="out"/>
<feColorMatrix type="matrix" values="0 0 0 0 0 0 0 0 0 0 0 0 0 0 0 0 0 0 0.1 0"/>
<feBlend mode="normal" in2="BackgroundImageFix" result="effect1_dropShadow_6423_12758"/>
<feBlend mode="normal" in="SourceGraphic" in2="effect1_dropShadow_6423_12758" result="shape"/>
</filter>
<filter id="filter2_d_6423_12758" x="227" y="88" width="68" height="68" filterUnits="userSpaceOnUse" color-interpolation-filters="sRGB">
<feFlood flood-opacity="0" result="BackgroundImageFix"/>
<feColorMatrix in="SourceAlpha" type="matrix" values="0 0 0 0 0 0 0 0 0 0 0 0 0 0 0 0 0 0 127 0" result="hardAlpha"/>
<feOffset/>
<feGaussianBlur stdDeviation="2"/>
<feComposite in2="hardAlpha" operator="out"/>
<feColorMatrix type="matrix" values="0 0 0 0 0 0 0 0 0 0 0 0 0 0 0 0 0 0 0.1 0"/>
<feBlend mode="normal" in2="BackgroundImageFix" result="effect1_dropShadow_6423_12758"/>
<feBlend mode="normal" in="SourceGraphic" in2="effect1_dropShadow_6423_12758" result="shape"/>
</filter>
<filter id="filter3_d_6423_12758" x="151" y="88" width="68" height="68" filterUnits="userSpaceOnUse" color-interpolation-filters="sRGB">
<feFlood flood-opacity="0" result="BackgroundImageFix"/>
<feColorMatrix in="SourceAlpha" type="matrix" values="0 0 0 0 0 0 0 0 0 0 0 0 0 0 0 0 0 0 127 0" result="hardAlpha"/>
<feOffset/>
<feGaussianBlur stdDeviation="2"/>
<feComposite in2="hardAlpha" operator="out"/>
<feColorMatrix type="matrix" values="0 0 0 0 0 0 0 0 0 0 0 0 0 0 0 0 0 0 0.1 0"/>
<feBlend mode="normal" in2="BackgroundImageFix" result="effect1_dropShadow_6423_12758"/>
<feBlend mode="normal" in="SourceGraphic" in2="effect1_dropShadow_6423_12758" result="shape"/>
</filter>
<filter id="filter4_d_6423_12758" x="303" y="88" width="68" height="68" filterUnits="userSpaceOnUse" color-interpolation-filters="sRGB">
<feFlood flood-opacity="0" result="BackgroundImageFix"/>
<feColorMatrix in="SourceAlpha" type="matrix" values="0 0 0 0 0 0 0 0 0 0 0 0 0 0 0 0 0 0 127 0" result="hardAlpha"/>
<feOffset/>
<feGaussianBlur stdDeviation="2"/>
<feComposite in2="hardAlpha" operator="out"/>
<feColorMatrix type="matrix" values="0 0 0 0 0 0 0 0 0 0 0 0 0 0 0 0 0 0 0.1 0"/>
<feBlend mode="normal" in2="BackgroundImageFix" result="effect1_dropShadow_6423_12758"/>
<feBlend mode="normal" in="SourceGraphic" in2="effect1_dropShadow_6423_12758" result="shape"/>
</filter>
<filter id="filter5_d_6423_12758" x="275.695" y="180" width="217.053" height="58.8318" filterUnits="userSpaceOnUse" color-interpolation-filters="sRGB">
<feFlood flood-opacity="0" result="BackgroundImageFix"/>
<feColorMatrix in="SourceAlpha" type="matrix" values="0 0 0 0 0 0 0 0 0 0 0 0 0 0 0 0 0 0 127 0" result="hardAlpha"/>
<feOffset dy="5.30531"/>
<feGaussianBlur stdDeviation="2.65266"/>
<feComposite in2="hardAlpha" operator="out"/>
<feColorMatrix type="matrix" values="0 0 0 0 0 0 0 0 0 0 0 0 0 0 0 0 0 0 0.25 0"/>
<feBlend mode="normal" in2="BackgroundImageFix" result="effect1_dropShadow_6423_12758"/>
<feBlend mode="normal" in="SourceGraphic" in2="effect1_dropShadow_6423_12758" result="shape"/>
</filter>
<linearGradient id="paint0_linear_6423_12758" x1="12" y1="273.581" x2="435" y2="273.581" gradientUnits="userSpaceOnUse">
<stop stop-color="#97AAC4"/>
<stop offset="0.0295345" stop-color="#CAD4DB"/>
<stop offset="0.0625" stop-color="#BECCDE"/>
<stop offset="0.133609" stop-color="#B7C2D0" stop-opacity="0.3"/>
<stop offset="0.865967" stop-color="#B7C2D0" stop-opacity="0.3"/>
<stop offset="0.941937" stop-color="#BECCDE"/>
<stop offset="0.971275" stop-color="#CAD4DB"/>
<stop offset="0.996436" stop-color="#B7C2D0"/>
</linearGradient>
<linearGradient id="paint1_linear_6423_12758" x1="223.5" y1="277.357" x2="223.5" y2="287.009" gradientUnits="userSpaceOnUse">
<stop stop-color="#B4C9E7" stop-opacity="0.6"/>
<stop offset="1" stop-color="#AAB5C6" stop-opacity="0.6"/>
</linearGradient>
<linearGradient id="paint2_linear_6423_12758" x1="195.594" y1="273.371" x2="253.085" y2="273.371" gradientUnits="userSpaceOnUse">
<stop stop-color="#B5C2D3"/>
<stop offset="0.317518" stop-color="#CFD9E7" stop-opacity="0"/>
<stop offset="0.660584" stop-color="#CFD9E7" stop-opacity="0"/>
<stop offset="1" stop-color="#CFD9E7"/>
</linearGradient>
</defs>
</svg>
