<svg width="507" height="350" viewBox="0 0 507 350" fill="none" xmlns="http://www.w3.org/2000/svg">
<path d="M99.5 71V39H71.5V51H47.5V39H19.5V71H47.5V59H55.5V99H71.5V111H99.5V79H71.5V91H63.5V59H71.5V71H99.5ZM39.5 63H27.5V47H39.5V63ZM79.5 87H91.5V103H79.5V87ZM79.5 47H91.5V63H79.5V47Z" fill="#DBEAF6"/>
<path fill-rule="evenodd" clip-rule="evenodd" d="M234.181 81.5896C263.516 84.0295 292.341 93.9837 311.896 115.124C332.983 137.92 349.108 168.588 341.611 197.725C334.462 225.509 301.052 235.482 276.655 252.082C252.919 268.232 232.832 292.387 203.41 291.762C171.283 291.079 138.218 275.245 121.802 248.79C106.348 223.885 118.399 193.892 125.417 166.073C131.479 142.046 138.676 117.968 158.737 102.385C179.733 86.076 206.912 79.3215 234.181 81.5896Z" fill="#F2BE55" fill-opacity="0.17"/>
<g filter="url(#filter0_d_6423_12816)">
<rect x="287" y="251.75" width="215.722" height="46.1772" rx="4.61772" fill="#1E75BA" shape-rendering="crispEdges"/>
<path d="M317.304 275.704H312.109V280.899H310.378V275.704H305.183V273.973H310.378V268.778H312.109V273.973H317.304V275.704Z" fill="white"/>
<path d="M328.535 279.838H326.653L330.883 268.084H332.932L337.161 279.838H335.279L331.956 270.219H331.864L328.535 279.838ZM328.851 275.235H334.958V276.728H328.851V275.235ZM341.879 280.011C341.168 280.011 340.532 279.829 339.974 279.465C339.419 279.098 338.983 278.576 338.665 277.898C338.351 277.217 338.195 276.401 338.195 275.448C338.195 274.495 338.353 273.68 338.671 273.003C338.992 272.326 339.432 271.807 339.991 271.447C340.55 271.088 341.183 270.908 341.891 270.908C342.438 270.908 342.878 271 343.211 271.183C343.547 271.363 343.808 271.574 343.991 271.815C344.179 272.056 344.324 272.268 344.428 272.452H344.531V268.084H346.247V279.838H344.571V278.467H344.428C344.324 278.654 344.175 278.868 343.98 279.109C343.789 279.351 343.525 279.561 343.188 279.741C342.851 279.921 342.415 280.011 341.879 280.011ZM342.258 278.547C342.752 278.547 343.169 278.417 343.509 278.157C343.854 277.893 344.114 277.527 344.29 277.061C344.47 276.594 344.56 276.05 344.56 275.431C344.56 274.818 344.472 274.283 344.296 273.824C344.12 273.364 343.861 273.007 343.521 272.75C343.18 272.494 342.759 272.366 342.258 272.366C341.742 272.366 341.311 272.5 340.967 272.767C340.622 273.035 340.362 273.401 340.186 273.864C340.014 274.327 339.928 274.849 339.928 275.431C339.928 276.02 340.016 276.55 340.192 277.02C340.368 277.491 340.628 277.864 340.972 278.14C341.321 278.411 341.749 278.547 342.258 278.547ZM348.696 279.838V271.023H350.412V279.838H348.696ZM349.563 269.662C349.264 269.662 349.008 269.563 348.794 269.364C348.583 269.161 348.478 268.92 348.478 268.641C348.478 268.358 348.583 268.117 348.794 267.918C349.008 267.715 349.264 267.614 349.563 267.614C349.861 267.614 350.116 267.715 350.326 267.918C350.54 268.117 350.648 268.358 350.648 268.641C350.648 268.92 350.54 269.161 350.326 269.364C350.116 269.563 349.861 269.662 349.563 269.662ZM356.434 280.016C355.581 280.016 354.846 279.823 354.23 279.437C353.618 279.046 353.148 278.509 352.818 277.824C352.489 277.139 352.325 276.355 352.325 275.471C352.325 274.575 352.493 273.785 352.83 273.1C353.167 272.412 353.641 271.874 354.253 271.488C354.866 271.101 355.587 270.908 356.417 270.908C357.087 270.908 357.684 271.032 358.208 271.281C358.732 271.526 359.155 271.87 359.476 272.314C359.801 272.758 359.995 273.276 360.056 273.869H358.386C358.294 273.456 358.083 273.1 357.754 272.802C357.429 272.503 356.993 272.354 356.446 272.354C355.967 272.354 355.548 272.481 355.189 272.733C354.833 272.982 354.556 273.338 354.357 273.801C354.158 274.26 354.058 274.803 354.058 275.431C354.058 276.073 354.156 276.628 354.351 277.095C354.546 277.562 354.821 277.923 355.177 278.18C355.537 278.436 355.96 278.564 356.446 278.564C356.771 278.564 357.066 278.505 357.33 278.386C357.597 278.264 357.821 278.09 358.001 277.864C358.185 277.638 358.313 277.367 358.386 277.049H360.056C359.995 277.619 359.809 278.128 359.499 278.576C359.189 279.023 358.774 279.375 358.254 279.632C357.737 279.888 357.131 280.016 356.434 280.016ZM361.891 279.838V271.023H363.607V279.838H361.891ZM362.758 269.662C362.459 269.662 362.203 269.563 361.989 269.364C361.778 269.161 361.673 268.92 361.673 268.641C361.673 268.358 361.778 268.117 361.989 267.918C362.203 267.715 362.459 267.614 362.758 267.614C363.056 267.614 363.31 267.715 363.521 267.918C363.735 268.117 363.842 268.358 363.842 268.641C363.842 268.92 363.735 269.161 363.521 269.364C363.31 269.563 363.056 269.662 362.758 269.662ZM369.629 280.016C368.803 280.016 368.081 279.827 367.465 279.448C366.849 279.069 366.371 278.539 366.03 277.858C365.69 277.177 365.52 276.381 365.52 275.471C365.52 274.556 365.69 273.757 366.03 273.072C366.371 272.387 366.849 271.855 367.465 271.476C368.081 271.097 368.803 270.908 369.629 270.908C370.456 270.908 371.177 271.097 371.793 271.476C372.409 271.855 372.887 272.387 373.228 273.072C373.568 273.757 373.738 274.556 373.738 275.471C373.738 276.381 373.568 277.177 373.228 277.858C372.887 278.539 372.409 279.069 371.793 279.448C371.177 279.827 370.456 280.016 369.629 280.016ZM369.635 278.576C370.17 278.576 370.614 278.434 370.966 278.151C371.318 277.868 371.579 277.491 371.747 277.02C371.919 276.55 372.005 276.031 372.005 275.465C372.005 274.903 371.919 274.386 371.747 273.915C371.579 273.441 371.318 273.06 370.966 272.773C370.614 272.486 370.17 272.343 369.635 272.343C369.095 272.343 368.648 272.486 368.292 272.773C367.94 273.06 367.678 273.441 367.505 273.915C367.337 274.386 367.253 274.903 367.253 275.465C367.253 276.031 367.337 276.55 367.505 277.02C367.678 277.491 367.94 277.868 368.292 278.151C368.648 278.434 369.095 278.576 369.635 278.576ZM377.37 274.604V279.838H375.654V271.023H377.301V272.458H377.41C377.613 271.991 377.931 271.616 378.363 271.333C378.799 271.05 379.348 270.908 380.01 270.908C380.611 270.908 381.137 271.034 381.588 271.287C382.04 271.535 382.39 271.907 382.639 272.4C382.887 272.894 383.012 273.504 383.012 274.231V279.838H381.296V274.438C381.296 273.799 381.129 273.299 380.796 272.94C380.464 272.576 380.006 272.394 379.425 272.394C379.027 272.394 378.673 272.481 378.363 272.653C378.057 272.825 377.814 273.077 377.634 273.41C377.458 273.739 377.37 274.137 377.37 274.604ZM387.879 280.034C387.32 280.034 386.815 279.93 386.364 279.724C385.912 279.513 385.554 279.209 385.29 278.811C385.03 278.413 384.9 277.925 384.9 277.347C384.9 276.85 384.996 276.441 385.187 276.119C385.378 275.798 385.637 275.543 385.962 275.356C386.287 275.168 386.651 275.027 387.052 274.931C387.454 274.836 387.863 274.763 388.281 274.713C388.809 274.652 389.237 274.602 389.566 274.564C389.895 274.522 390.134 274.455 390.284 274.363C390.433 274.271 390.507 274.122 390.507 273.915V273.875C390.507 273.374 390.366 272.986 390.083 272.71C389.803 272.435 389.386 272.297 388.831 272.297C388.254 272.297 387.798 272.425 387.466 272.681C387.136 272.934 386.909 273.215 386.783 273.525L385.17 273.158C385.361 272.622 385.64 272.19 386.008 271.861C386.379 271.528 386.806 271.287 387.288 271.138C387.77 270.984 388.277 270.908 388.809 270.908C389.161 270.908 389.534 270.95 389.928 271.034C390.326 271.115 390.697 271.264 391.041 271.482C391.389 271.7 391.674 272.012 391.896 272.417C392.118 272.819 392.229 273.341 392.229 273.984V279.838H390.553V278.633H390.484C390.373 278.855 390.207 279.073 389.985 279.287C389.763 279.502 389.478 279.68 389.13 279.821C388.782 279.963 388.365 280.034 387.879 280.034ZM388.252 278.656C388.726 278.656 389.132 278.562 389.469 278.375C389.809 278.187 390.067 277.942 390.243 277.64C390.423 277.334 390.513 277.007 390.513 276.659V275.522C390.452 275.584 390.333 275.641 390.157 275.695C389.985 275.744 389.788 275.788 389.566 275.827C389.344 275.861 389.128 275.894 388.918 275.924C388.707 275.951 388.531 275.974 388.39 275.993C388.057 276.035 387.752 276.106 387.477 276.205C387.205 276.305 386.987 276.448 386.823 276.636C386.662 276.819 386.582 277.064 386.582 277.37C386.582 277.795 386.739 278.117 387.052 278.335C387.366 278.549 387.766 278.656 388.252 278.656ZM394.515 279.838V271.023H396.174V272.423H396.265C396.426 271.949 396.709 271.576 397.115 271.304C397.524 271.028 397.987 270.891 398.504 270.891C398.611 270.891 398.737 270.895 398.883 270.902C399.032 270.91 399.148 270.919 399.233 270.931V272.572C399.164 272.553 399.041 272.532 398.865 272.509C398.689 272.482 398.513 272.469 398.337 272.469C397.932 272.469 397.57 272.555 397.253 272.727C396.939 272.896 396.69 273.131 396.506 273.433C396.323 273.732 396.231 274.072 396.231 274.455V279.838H394.515ZM406.711 274.604V279.838H404.995V271.023H406.642V272.458H406.751C406.954 271.991 407.272 271.616 407.704 271.333C408.14 271.05 408.689 270.908 409.351 270.908C409.952 270.908 410.478 271.034 410.929 271.287C411.381 271.535 411.731 271.907 411.98 272.4C412.228 272.894 412.353 273.504 412.353 274.231V279.838H410.637V274.438C410.637 273.799 410.47 273.299 410.137 272.94C409.805 272.576 409.347 272.394 408.766 272.394C408.368 272.394 408.014 272.481 407.704 272.653C407.398 272.825 407.155 273.077 406.975 273.41C406.799 273.739 406.711 274.137 406.711 274.604ZM418.368 280.016C417.541 280.016 416.82 279.827 416.204 279.448C415.588 279.069 415.11 278.539 414.769 277.858C414.429 277.177 414.258 276.381 414.258 275.471C414.258 274.556 414.429 273.757 414.769 273.072C415.11 272.387 415.588 271.855 416.204 271.476C416.82 271.097 417.541 270.908 418.368 270.908C419.194 270.908 419.915 271.097 420.531 271.476C421.147 271.855 421.626 272.387 421.966 273.072C422.307 273.757 422.477 274.556 422.477 275.471C422.477 276.381 422.307 277.177 421.966 277.858C421.626 278.539 421.147 279.069 420.531 279.448C419.915 279.827 419.194 280.016 418.368 280.016ZM418.373 278.576C418.909 278.576 419.353 278.434 419.705 278.151C420.057 277.868 420.317 277.491 420.485 277.02C420.658 276.55 420.744 276.031 420.744 275.465C420.744 274.903 420.658 274.386 420.485 273.915C420.317 273.441 420.057 273.06 419.705 272.773C419.353 272.486 418.909 272.343 418.373 272.343C417.834 272.343 417.386 272.486 417.03 272.773C416.678 273.06 416.416 273.441 416.244 273.915C416.076 274.386 415.992 274.903 415.992 275.465C415.992 276.031 416.076 276.55 416.244 277.02C416.416 277.491 416.678 277.868 417.03 278.151C417.386 278.434 417.834 278.576 418.373 278.576ZM431.634 271.023L428.437 279.838H426.601L423.398 271.023H425.241L427.473 277.807H427.565L429.792 271.023H431.634ZM436.66 280.016C435.834 280.016 435.113 279.827 434.497 279.448C433.881 279.069 433.402 278.539 433.062 277.858C432.721 277.177 432.551 276.381 432.551 275.471C432.551 274.556 432.721 273.757 433.062 273.072C433.402 272.387 433.881 271.855 434.497 271.476C435.113 271.097 435.834 270.908 436.66 270.908C437.487 270.908 438.208 271.097 438.824 271.476C439.44 271.855 439.918 272.387 440.259 273.072C440.6 273.757 440.77 274.556 440.77 275.471C440.77 276.381 440.6 277.177 440.259 277.858C439.918 278.539 439.44 279.069 438.824 279.448C438.208 279.827 437.487 280.016 436.66 280.016ZM436.666 278.576C437.202 278.576 437.646 278.434 437.998 278.151C438.35 277.868 438.61 277.491 438.778 277.02C438.95 276.55 439.037 276.031 439.037 275.465C439.037 274.903 438.95 274.386 438.778 273.915C438.61 273.441 438.35 273.06 437.998 272.773C437.646 272.486 437.202 272.343 436.666 272.343C436.127 272.343 435.679 272.486 435.323 272.773C434.971 273.06 434.709 273.441 434.537 273.915C434.369 274.386 434.284 274.903 434.284 275.465C434.284 276.031 434.369 276.55 434.537 277.02C434.709 277.491 434.971 277.868 435.323 278.151C435.679 278.434 436.127 278.576 436.666 278.576ZM451.158 271.023V272.4H446.176V271.023H451.158ZM447.542 279.838V270.001C447.542 269.45 447.663 268.993 447.904 268.629C448.145 268.262 448.464 267.989 448.862 267.809C449.26 267.625 449.693 267.533 450.159 267.533C450.504 267.533 450.798 267.562 451.043 267.619C451.288 267.673 451.47 267.723 451.589 267.769L451.187 269.157C451.106 269.134 451.003 269.108 450.877 269.077C450.751 269.043 450.598 269.025 450.418 269.025C450.001 269.025 449.702 269.129 449.522 269.335C449.346 269.542 449.258 269.84 449.258 270.231V279.838H447.542ZM454.645 268.084V279.838H452.929V268.084H454.645ZM462.538 276.182V271.023H464.26V279.838H462.572V278.312H462.48C462.278 278.782 461.952 279.175 461.505 279.488C461.061 279.798 460.508 279.953 459.846 279.953C459.28 279.953 458.778 279.829 458.342 279.58C457.91 279.328 457.569 278.955 457.321 278.461C457.076 277.967 456.953 277.357 456.953 276.63V271.023H458.669V276.423C458.669 277.024 458.836 277.502 459.169 277.858C459.502 278.214 459.934 278.392 460.466 278.392C460.787 278.392 461.107 278.312 461.424 278.151C461.746 277.99 462.012 277.747 462.222 277.422C462.436 277.097 462.542 276.684 462.538 276.182ZM467.92 271.023L469.865 274.455L471.828 271.023H473.705L470.956 275.431L473.728 279.838H471.851L469.865 276.544L467.885 279.838H466.003L468.746 275.431L466.037 271.023H467.92ZM478.833 280.016C478.007 280.016 477.286 279.827 476.67 279.448C476.053 279.069 475.575 278.539 475.235 277.858C474.894 277.177 474.724 276.381 474.724 275.471C474.724 274.556 474.894 273.757 475.235 273.072C475.575 272.387 476.053 271.855 476.67 271.476C477.286 271.097 478.007 270.908 478.833 270.908C479.66 270.908 480.381 271.097 480.997 271.476C481.613 271.855 482.091 272.387 482.432 273.072C482.772 273.757 482.943 274.556 482.943 275.471C482.943 276.381 482.772 277.177 482.432 277.858C482.091 278.539 481.613 279.069 480.997 279.448C480.381 279.827 479.66 280.016 478.833 280.016ZM478.839 278.576C479.375 278.576 479.818 278.434 480.171 278.151C480.523 277.868 480.783 277.491 480.951 277.02C481.123 276.55 481.209 276.031 481.209 275.465C481.209 274.903 481.123 274.386 480.951 273.915C480.783 273.441 480.523 273.06 480.171 272.773C479.818 272.486 479.375 272.343 478.839 272.343C478.299 272.343 477.852 272.486 477.496 272.773C477.144 273.06 476.882 273.441 476.71 273.915C476.541 274.386 476.457 274.903 476.457 275.465C476.457 276.031 476.541 276.55 476.71 277.02C476.882 277.491 477.144 277.868 477.496 278.151C477.852 278.434 478.299 278.576 478.839 278.576Z" fill="white"/>
</g>
<g filter="url(#filter1_d_6423_12816)">
<rect x="6" y="134.75" width="140" height="79" rx="39.5" fill="white" shape-rendering="crispEdges"/>
<path d="M46.74 173.098L42.024 168.406L43.428 167.002L48.12 171.694L46.74 173.098ZM40.284 173.11C38.564 173.11 37.104 172.73 35.904 171.97C34.704 171.21 33.788 170.154 33.156 168.802C32.532 167.45 32.22 165.886 32.22 164.11C32.22 162.334 32.532 160.77 33.156 159.418C33.788 158.066 34.704 157.01 35.904 156.25C37.104 155.49 38.564 155.11 40.284 155.11C42.012 155.11 43.476 155.49 44.676 156.25C45.876 157.01 46.788 158.066 47.412 159.418C48.036 160.77 48.348 162.334 48.348 164.11C48.348 165.886 48.036 167.45 47.412 168.802C46.788 170.154 45.876 171.21 44.676 171.97C43.476 172.73 42.012 173.11 40.284 173.11ZM40.284 171.07C41.572 171.078 42.644 170.79 43.5 170.206C44.364 169.614 45.008 168.794 45.432 167.746C45.864 166.698 46.08 165.486 46.08 164.11C46.08 162.726 45.864 161.514 45.432 160.474C45.008 159.434 44.364 158.622 43.5 158.038C42.644 157.454 41.572 157.158 40.284 157.15C38.996 157.142 37.924 157.43 37.068 158.014C36.22 158.598 35.58 159.414 35.148 160.462C34.716 161.51 34.496 162.726 34.488 164.11C34.48 165.486 34.692 166.694 35.124 167.734C35.556 168.774 36.2 169.59 37.056 170.182C37.92 170.766 38.996 171.062 40.284 171.07ZM55.6781 173.086C54.8461 173.086 54.1301 172.954 53.5301 172.69C52.9381 172.426 52.4461 172.074 52.0541 171.634C51.6621 171.194 51.3541 170.706 51.1301 170.17C50.9061 169.634 50.7461 169.086 50.6501 168.526C50.5621 167.966 50.5181 167.442 50.5181 166.954V159.79H52.6781V166.282C52.6781 166.89 52.7341 167.478 52.8461 168.046C52.9581 168.614 53.1461 169.126 53.4101 169.582C53.6821 170.038 54.0421 170.398 54.4901 170.662C54.9461 170.926 55.5141 171.058 56.1941 171.058C56.7301 171.058 57.2181 170.966 57.6581 170.782C58.0981 170.598 58.4741 170.326 58.7861 169.966C59.0981 169.598 59.3381 169.134 59.5061 168.574C59.6741 168.014 59.7581 167.362 59.7581 166.618L61.1621 167.05C61.1621 168.298 60.9341 169.374 60.4781 170.278C60.0301 171.182 59.3941 171.878 58.5701 172.366C57.7541 172.846 56.7901 173.086 55.6781 173.086ZM59.9981 172.75V169.282H59.7581V159.79H61.9061V172.75H59.9981ZM68.9499 173.11C67.9819 173.11 67.1699 172.934 66.5139 172.582C65.8659 172.222 65.3739 171.75 65.0379 171.166C64.7099 170.582 64.5459 169.942 64.5459 169.246C64.5459 168.566 64.6739 167.978 64.9299 167.482C65.1939 166.978 65.5619 166.562 66.0339 166.234C66.5059 165.898 67.0699 165.634 67.7259 165.442C68.3419 165.274 69.0299 165.13 69.7899 165.01C70.5579 164.882 71.3339 164.766 72.1179 164.662C72.9019 164.558 73.6339 164.458 74.3139 164.362L73.5459 164.806C73.5699 163.654 73.3379 162.802 72.8499 162.25C72.3699 161.698 71.5379 161.422 70.3539 161.422C69.5699 161.422 68.8819 161.602 68.2899 161.962C67.7059 162.314 67.2939 162.89 67.0539 163.69L65.0259 163.078C65.3379 161.942 65.9419 161.05 66.8379 160.402C67.7339 159.754 68.9139 159.43 70.3779 159.43C71.5539 159.43 72.5619 159.642 73.4019 160.066C74.2499 160.482 74.8579 161.114 75.2259 161.962C75.4099 162.362 75.5259 162.798 75.5739 163.27C75.6219 163.734 75.6459 164.222 75.6459 164.734V172.75H73.7499V169.642L74.1939 169.93C73.7059 170.978 73.0219 171.77 72.1419 172.306C71.2699 172.842 70.2059 173.11 68.9499 173.11ZM69.2739 171.322C70.0419 171.322 70.7059 171.186 71.2659 170.914C71.8339 170.634 72.2899 170.27 72.6339 169.822C72.9779 169.366 73.2019 168.87 73.3059 168.334C73.4259 167.934 73.4899 167.49 73.4979 167.002C73.5139 166.506 73.5219 166.126 73.5219 165.862L74.2659 166.186C73.5699 166.282 72.8859 166.374 72.2139 166.462C71.5419 166.55 70.9059 166.646 70.3059 166.75C69.7059 166.846 69.1659 166.962 68.6859 167.098C68.3339 167.21 68.0019 167.354 67.6899 167.53C67.3859 167.706 67.1379 167.934 66.9459 168.214C66.7619 168.486 66.6699 168.826 66.6699 169.234C66.6699 169.586 66.7579 169.922 66.9339 170.242C67.1179 170.562 67.3979 170.822 67.7739 171.022C68.1579 171.222 68.6579 171.322 69.2739 171.322ZM87.9939 172.75V166.258C87.9939 165.642 87.9379 165.05 87.8259 164.482C87.7219 163.914 87.5339 163.406 87.2619 162.958C86.9979 162.502 86.6379 162.142 86.1819 161.878C85.7339 161.614 85.1659 161.482 84.4779 161.482C83.9419 161.482 83.4539 161.574 83.0139 161.758C82.5819 161.934 82.2099 162.206 81.8979 162.574C81.5859 162.942 81.3419 163.406 81.1659 163.966C80.9979 164.518 80.9139 165.17 80.9139 165.922L79.5099 165.49C79.5099 164.234 79.7339 163.158 80.1819 162.262C80.6379 161.358 81.2739 160.666 82.0899 160.186C82.9139 159.698 83.8819 159.454 84.9939 159.454C85.8339 159.454 86.5499 159.586 87.1419 159.85C87.7339 160.114 88.2259 160.466 88.6179 160.906C89.0099 161.338 89.3179 161.826 89.5419 162.37C89.7659 162.906 89.9219 163.454 90.0099 164.014C90.1059 164.566 90.1539 165.09 90.1539 165.586V172.75H87.9939ZM78.7539 172.75V159.79H80.6739V163.258H80.9139V172.75H78.7539ZM98.2446 173.11C97.0366 173.11 96.0006 172.81 95.1366 172.21C94.2726 171.602 93.6046 170.782 93.1326 169.75C92.6686 168.718 92.4366 167.554 92.4366 166.258C92.4366 164.962 92.6686 163.798 93.1326 162.766C93.6046 161.734 94.2726 160.922 95.1366 160.33C96.0006 159.73 97.0326 159.43 98.2326 159.43C99.4566 159.43 100.485 159.726 101.317 160.318C102.149 160.91 102.777 161.722 103.201 162.754C103.633 163.786 103.849 164.954 103.849 166.258C103.849 167.546 103.633 168.71 103.201 169.75C102.777 170.782 102.149 171.602 101.317 172.21C100.485 172.81 99.4606 173.11 98.2446 173.11ZM98.5086 171.154C99.3806 171.154 100.097 170.946 100.657 170.53C101.217 170.106 101.629 169.526 101.893 168.79C102.165 168.046 102.301 167.202 102.301 166.258C102.301 165.298 102.165 164.454 101.893 163.726C101.629 162.99 101.221 162.418 100.669 162.01C100.117 161.594 99.4166 161.386 98.5686 161.386C97.6886 161.386 96.9606 161.602 96.3846 162.034C95.8166 162.466 95.3926 163.05 95.1126 163.786C94.8406 164.522 94.7046 165.346 94.7046 166.258C94.7046 167.178 94.8446 168.01 95.1246 168.754C95.4046 169.49 95.8246 170.074 96.3846 170.506C96.9526 170.938 97.6606 171.154 98.5086 171.154ZM102.301 172.75V163.21H102.061V155.47H104.209V172.75H102.301ZM113.091 173.11C111.803 173.11 110.691 172.818 109.755 172.234C108.827 171.65 108.111 170.842 107.607 169.81C107.103 168.778 106.851 167.594 106.851 166.258C106.851 164.898 107.107 163.706 107.619 162.682C108.131 161.658 108.855 160.862 109.791 160.294C110.727 159.718 111.827 159.43 113.091 159.43C114.387 159.43 115.503 159.722 116.439 160.306C117.375 160.882 118.091 161.686 118.587 162.718C119.091 163.742 119.343 164.922 119.343 166.258C119.343 167.61 119.091 168.802 118.587 169.834C118.083 170.858 117.363 171.662 116.427 172.246C115.491 172.822 114.379 173.11 113.091 173.11ZM113.091 171.082C114.435 171.082 115.435 170.634 116.091 169.738C116.747 168.842 117.075 167.682 117.075 166.258C117.075 164.794 116.743 163.63 116.079 162.766C115.415 161.894 114.419 161.458 113.091 161.458C112.187 161.458 111.443 161.662 110.859 162.07C110.275 162.478 109.839 163.042 109.551 163.762C109.263 164.482 109.119 165.314 109.119 166.258C109.119 167.714 109.455 168.882 110.127 169.762C110.799 170.642 111.787 171.082 113.091 171.082Z" fill="#212528"/>
<path d="M45.724 199.678C45.1 198.958 44.564 198.15 44.116 197.254C43.668 196.358 43.324 195.417 43.084 194.43C42.844 193.443 42.7293 192.457 42.74 191.47C42.7293 190.478 42.844 189.489 43.084 188.502C43.324 187.515 43.668 186.577 44.116 185.686C44.564 184.79 45.1 183.982 45.724 183.262L46.78 184.062C46.1507 184.809 45.6333 185.585 45.228 186.39C44.828 187.195 44.532 188.025 44.34 188.878C44.148 189.726 44.0493 190.59 44.044 191.47C44.0493 192.339 44.148 193.203 44.34 194.062C44.5373 194.915 44.836 195.747 45.236 196.558C45.6413 197.363 46.156 198.134 46.78 198.87L45.724 199.678ZM47.7731 196.75L51.6291 185.23H53.6131L57.4691 196.75H55.9891L52.3811 186.062H52.8291L49.2531 196.75H47.7731ZM49.6291 194.054V192.718H55.6131V194.054H49.6291ZM62.5413 196.99C61.6666 196.99 60.9226 196.795 60.3093 196.406C59.7013 196.011 59.2373 195.47 58.9173 194.782C58.5973 194.094 58.4319 193.31 58.4213 192.43C58.4319 191.529 58.5999 190.737 58.9253 190.054C59.2559 189.366 59.7279 188.83 60.3413 188.446C60.9546 188.062 61.6933 187.87 62.5573 187.87C63.4693 187.87 64.2533 188.094 64.9093 188.542C65.5706 188.99 66.0133 189.603 66.2373 190.382L64.8293 190.806C64.6479 190.305 64.3519 189.915 63.9413 189.638C63.5359 189.361 63.0693 189.222 62.5413 189.222C61.9493 189.222 61.4613 189.361 61.0773 189.638C60.6933 189.91 60.4079 190.289 60.2213 190.774C60.0346 191.254 59.9386 191.806 59.9333 192.43C59.9439 193.39 60.1653 194.166 60.5973 194.758C61.0346 195.345 61.6826 195.638 62.5413 195.638C63.1066 195.638 63.5759 195.51 63.9493 195.254C64.3226 194.993 64.6053 194.617 64.7973 194.126L66.2373 194.502C65.9386 195.307 65.4719 195.923 64.8373 196.35C64.2026 196.777 63.4373 196.99 62.5413 196.99ZM67.7956 186.582V185.11H69.2196V186.582H67.7956ZM67.7956 196.75V188.11H69.2196V196.75H67.7956ZM75.3 196.99C74.4413 196.99 73.7 196.795 73.076 196.406C72.4573 196.017 71.98 195.478 71.644 194.79C71.308 194.102 71.14 193.313 71.14 192.422C71.14 191.515 71.3107 190.721 71.652 190.038C71.9933 189.355 72.476 188.825 73.1 188.446C73.724 188.062 74.4573 187.87 75.3 187.87C76.164 187.87 76.908 188.065 77.532 188.454C78.156 188.838 78.6333 189.374 78.964 190.062C79.3 190.745 79.468 191.531 79.468 192.422C79.468 193.323 79.3 194.118 78.964 194.806C78.628 195.489 78.148 196.025 77.524 196.414C76.9 196.798 76.1587 196.99 75.3 196.99ZM75.3 195.638C76.196 195.638 76.8627 195.339 77.3 194.742C77.7373 194.145 77.956 193.371 77.956 192.422C77.956 191.446 77.7347 190.67 77.292 190.094C76.8493 189.513 76.1853 189.222 75.3 189.222C74.6973 189.222 74.2013 189.358 73.812 189.63C73.4227 189.902 73.132 190.278 72.94 190.758C72.748 191.238 72.652 191.793 72.652 192.422C72.652 193.393 72.876 194.171 73.324 194.758C73.772 195.345 74.4307 195.638 75.3 195.638ZM87.3814 196.75V192.422C87.3814 192.011 87.344 191.617 87.2694 191.238C87.2 190.859 87.0747 190.521 86.8934 190.222C86.7174 189.918 86.4774 189.678 86.1734 189.502C85.8747 189.326 85.496 189.238 85.0374 189.238C84.68 189.238 84.3547 189.299 84.0614 189.422C83.7734 189.539 83.5254 189.721 83.3174 189.966C83.1094 190.211 82.9467 190.521 82.8294 190.894C82.7174 191.262 82.6614 191.697 82.6614 192.198L81.7254 191.91C81.7254 191.073 81.8747 190.355 82.1734 189.758C82.4774 189.155 82.9014 188.694 83.4454 188.374C83.9947 188.049 84.64 187.886 85.3814 187.886C85.9414 187.886 86.4187 187.974 86.8134 188.15C87.208 188.326 87.536 188.561 87.7974 188.854C88.0587 189.142 88.264 189.467 88.4134 189.83C88.5627 190.187 88.6667 190.553 88.7254 190.926C88.7894 191.294 88.8214 191.643 88.8214 191.974V196.75H87.3814ZM81.2214 196.75V188.11H82.5014V190.422H82.6614V196.75H81.2214ZM93.3573 196.99C92.7119 196.99 92.1706 196.873 91.7333 196.638C91.3013 196.398 90.9733 196.083 90.7493 195.694C90.5306 195.305 90.4213 194.878 90.4213 194.414C90.4213 193.961 90.5066 193.569 90.6773 193.238C90.8533 192.902 91.0986 192.625 91.4133 192.406C91.7279 192.182 92.1039 192.006 92.5413 191.878C92.9519 191.766 93.4106 191.67 93.9173 191.59C94.4293 191.505 94.9466 191.427 95.4693 191.358C95.9919 191.289 96.4799 191.222 96.9333 191.158L96.4213 191.454C96.4373 190.686 96.2826 190.118 95.9573 189.75C95.6373 189.382 95.0826 189.198 94.2933 189.198C93.7706 189.198 93.3119 189.318 92.9173 189.558C92.5279 189.793 92.2533 190.177 92.0933 190.71L90.7413 190.302C90.9493 189.545 91.3519 188.95 91.9493 188.518C92.5466 188.086 93.3333 187.87 94.3093 187.87C95.0933 187.87 95.7653 188.011 96.3253 188.294C96.8906 188.571 97.2959 188.993 97.5413 189.558C97.6639 189.825 97.7413 190.115 97.7733 190.43C97.8053 190.739 97.8212 191.065 97.8212 191.406V196.75H96.5573V194.678L96.8533 194.87C96.5279 195.569 96.0719 196.097 95.4853 196.454C94.9039 196.811 94.1946 196.99 93.3573 196.99ZM93.5733 195.798C94.0853 195.798 94.5279 195.707 94.9013 195.526C95.2799 195.339 95.5839 195.097 95.8133 194.798C96.0426 194.494 96.1919 194.163 96.2613 193.806C96.3413 193.539 96.3839 193.243 96.3893 192.918C96.3999 192.587 96.4053 192.334 96.4053 192.158L96.9013 192.374C96.4373 192.438 95.9813 192.499 95.5333 192.558C95.0853 192.617 94.6613 192.681 94.2613 192.75C93.8613 192.814 93.5013 192.891 93.1813 192.982C92.9466 193.057 92.7253 193.153 92.5173 193.27C92.3146 193.387 92.1493 193.539 92.0213 193.726C91.8986 193.907 91.8372 194.134 91.8372 194.406C91.8372 194.641 91.8959 194.865 92.0133 195.078C92.1359 195.291 92.3226 195.465 92.5733 195.598C92.8293 195.731 93.1626 195.798 93.5733 195.798ZM99.9013 196.75V188.11H101.173V190.198L100.965 189.926C101.067 189.659 101.197 189.414 101.357 189.19C101.523 188.966 101.707 188.782 101.909 188.638C102.133 188.457 102.387 188.318 102.669 188.222C102.952 188.126 103.24 188.07 103.533 188.054C103.827 188.033 104.101 188.051 104.357 188.11V189.446C104.059 189.366 103.731 189.345 103.373 189.382C103.016 189.419 102.685 189.55 102.381 189.774C102.104 189.971 101.888 190.211 101.733 190.494C101.584 190.777 101.48 191.083 101.421 191.414C101.363 191.739 101.333 192.073 101.333 192.414V196.75H99.9013ZM106.174 199.678L105.118 198.87C105.742 198.134 106.254 197.363 106.654 196.558C107.059 195.747 107.36 194.915 107.558 194.062C107.755 193.203 107.854 192.339 107.854 191.47C107.854 190.59 107.755 189.726 107.558 188.878C107.366 188.025 107.067 187.195 106.662 186.39C106.262 185.585 105.747 184.809 105.118 184.062L106.174 183.262C106.798 183.982 107.334 184.79 107.782 185.686C108.235 186.577 108.579 187.515 108.814 188.502C109.054 189.489 109.168 190.478 109.158 191.47C109.168 192.457 109.054 193.443 108.814 194.43C108.579 195.417 108.235 196.358 107.782 197.254C107.334 198.15 106.798 198.958 106.174 199.678Z" fill="#8F9396"/>
</g>
<g filter="url(#filter2_d_6423_12816)">
<rect x="182" y="134.75" width="140" height="79" rx="39.5" fill="white" shape-rendering="crispEdges"/>
<path d="M244.812 173.11C243.588 173.11 242.484 172.902 241.5 172.486C240.524 172.07 239.716 171.478 239.076 170.71C238.444 169.934 238.032 169.018 237.84 167.962L240.048 167.614C240.328 168.702 240.908 169.554 241.788 170.17C242.676 170.778 243.72 171.082 244.92 171.082C245.696 171.082 246.396 170.962 247.02 170.722C247.652 170.474 248.152 170.122 248.52 169.666C248.888 169.21 249.072 168.67 249.072 168.046C249.072 167.662 249.004 167.334 248.868 167.062C248.74 166.782 248.56 166.546 248.328 166.354C248.104 166.154 247.848 165.986 247.56 165.85C247.272 165.714 246.972 165.602 246.66 165.514L242.256 164.206C241.776 164.062 241.312 163.882 240.864 163.666C240.416 163.442 240.016 163.166 239.664 162.838C239.312 162.502 239.032 162.102 238.824 161.638C238.616 161.166 238.512 160.61 238.512 159.97C238.512 158.946 238.776 158.074 239.304 157.354C239.84 156.626 240.564 156.07 241.476 155.686C242.388 155.302 243.416 155.114 244.56 155.122C245.72 155.13 246.756 155.338 247.668 155.746C248.588 156.146 249.348 156.722 249.948 157.474C250.556 158.226 250.964 159.126 251.172 160.174L248.904 160.57C248.784 159.866 248.516 159.262 248.1 158.758C247.692 158.246 247.18 157.854 246.564 157.582C245.948 157.302 245.272 157.158 244.536 157.15C243.832 157.142 243.196 157.254 242.628 157.486C242.06 157.718 241.608 158.042 241.272 158.458C240.936 158.866 240.768 159.338 240.768 159.874C240.768 160.402 240.92 160.83 241.224 161.158C241.528 161.478 241.9 161.734 242.34 161.926C242.788 162.11 243.224 162.262 243.648 162.382L246.936 163.33C247.312 163.434 247.744 163.578 248.232 163.762C248.728 163.946 249.208 164.206 249.672 164.542C250.136 164.87 250.52 165.31 250.824 165.862C251.128 166.406 251.28 167.094 251.28 167.926C251.28 168.758 251.112 169.498 250.776 170.146C250.448 170.794 249.988 171.338 249.396 171.778C248.804 172.21 248.116 172.538 247.332 172.762C246.548 172.994 245.708 173.11 244.812 173.11ZM259.413 173.11C258.141 173.11 257.029 172.83 256.077 172.27C255.133 171.702 254.397 170.914 253.869 169.906C253.341 168.89 253.077 167.706 253.077 166.354C253.077 164.938 253.337 163.714 253.857 162.682C254.377 161.642 255.101 160.842 256.029 160.282C256.965 159.714 258.061 159.43 259.317 159.43C260.621 159.43 261.729 159.73 262.641 160.33C263.561 160.93 264.249 161.786 264.705 162.898C265.169 164.01 265.369 165.334 265.305 166.87H263.145V166.102C263.121 164.51 262.797 163.322 262.173 162.538C261.549 161.746 260.621 161.35 259.389 161.35C258.069 161.35 257.065 161.774 256.377 162.622C255.689 163.47 255.345 164.686 255.345 166.27C255.345 167.798 255.689 168.982 256.377 169.822C257.065 170.662 258.045 171.082 259.317 171.082C260.173 171.082 260.917 170.886 261.549 170.494C262.181 170.102 262.677 169.538 263.037 168.802L265.089 169.51C264.585 170.654 263.825 171.542 262.809 172.174C261.801 172.798 260.669 173.11 259.413 173.11ZM254.625 166.87V165.154H264.201V166.87H254.625Z" fill="#212528"/>
<path d="M221.724 199.678C221.1 198.958 220.564 198.15 220.116 197.254C219.668 196.358 219.324 195.417 219.084 194.43C218.844 193.443 218.729 192.457 218.74 191.47C218.729 190.478 218.844 189.489 219.084 188.502C219.324 187.515 219.668 186.577 220.116 185.686C220.564 184.79 221.1 183.982 221.724 183.262L222.78 184.062C222.151 184.809 221.633 185.585 221.228 186.39C220.828 187.195 220.532 188.025 220.34 188.878C220.148 189.726 220.049 190.59 220.044 191.47C220.049 192.339 220.148 193.203 220.34 194.062C220.537 194.915 220.836 195.747 221.236 196.558C221.641 197.363 222.156 198.134 222.78 198.87L221.724 199.678ZM224.573 196.75V185.23H228.125C228.242 185.23 228.448 185.233 228.741 185.238C229.034 185.243 229.314 185.265 229.581 185.302C230.472 185.419 231.216 185.745 231.813 186.278C232.416 186.806 232.869 187.478 233.173 188.294C233.477 189.11 233.629 190.009 233.629 190.99C233.629 191.971 233.477 192.87 233.173 193.686C232.869 194.502 232.416 195.177 231.813 195.71C231.216 196.238 230.472 196.561 229.581 196.678C229.314 196.71 229.032 196.731 228.733 196.742C228.44 196.747 228.237 196.75 228.125 196.75H224.573ZM226.037 195.39H228.125C228.328 195.39 228.554 195.385 228.805 195.374C229.056 195.358 229.274 195.334 229.461 195.302C230.09 195.185 230.6 194.921 230.989 194.51C231.378 194.099 231.664 193.587 231.845 192.974C232.026 192.361 232.117 191.699 232.117 190.99C232.117 190.265 232.024 189.595 231.837 188.982C231.656 188.369 231.37 187.859 230.981 187.454C230.592 187.049 230.085 186.79 229.461 186.678C229.274 186.641 229.053 186.617 228.797 186.606C228.541 186.595 228.317 186.59 228.125 186.59H226.037V195.39ZM239.144 196.99C238.285 196.99 237.544 196.795 236.92 196.406C236.301 196.017 235.824 195.478 235.488 194.79C235.152 194.102 234.984 193.313 234.984 192.422C234.984 191.515 235.154 190.721 235.496 190.038C235.837 189.355 236.32 188.825 236.944 188.446C237.568 188.062 238.301 187.87 239.144 187.87C240.008 187.87 240.752 188.065 241.376 188.454C242 188.838 242.477 189.374 242.808 190.062C243.144 190.745 243.312 191.531 243.312 192.422C243.312 193.323 243.144 194.118 242.808 194.806C242.472 195.489 241.992 196.025 241.368 196.414C240.744 196.798 240.002 196.99 239.144 196.99ZM239.144 195.638C240.04 195.638 240.706 195.339 241.144 194.742C241.581 194.145 241.8 193.371 241.8 192.422C241.8 191.446 241.578 190.67 241.136 190.094C240.693 189.513 240.029 189.222 239.144 189.222C238.541 189.222 238.045 189.358 237.656 189.63C237.266 189.902 236.976 190.278 236.784 190.758C236.592 191.238 236.496 191.793 236.496 192.422C236.496 193.393 236.72 194.171 237.168 194.758C237.616 195.345 238.274 195.638 239.144 195.638ZM248.817 196.99C247.969 196.99 247.228 196.803 246.593 196.43C245.964 196.051 245.473 195.526 245.121 194.854C244.769 194.177 244.593 193.387 244.593 192.486C244.593 191.542 244.766 190.726 245.113 190.038C245.46 189.345 245.942 188.811 246.561 188.438C247.185 188.059 247.916 187.87 248.753 187.87C249.622 187.87 250.361 188.07 250.969 188.47C251.582 188.87 252.041 189.441 252.345 190.182C252.654 190.923 252.788 191.806 252.745 192.83H251.305V192.318C251.289 191.257 251.073 190.465 250.657 189.942C250.241 189.414 249.622 189.15 248.801 189.15C247.921 189.15 247.252 189.433 246.793 189.998C246.334 190.563 246.105 191.374 246.105 192.43C246.105 193.449 246.334 194.238 246.793 194.798C247.252 195.358 247.905 195.638 248.753 195.638C249.324 195.638 249.82 195.507 250.241 195.246C250.662 194.985 250.993 194.609 251.233 194.118L252.601 194.59C252.265 195.353 251.758 195.945 251.081 196.366C250.409 196.782 249.654 196.99 248.817 196.99ZM245.625 192.83V191.686H252.009V192.83H245.625ZM260.444 196.75V192.422C260.444 192.011 260.407 191.617 260.332 191.238C260.263 190.859 260.137 190.521 259.956 190.222C259.78 189.918 259.54 189.678 259.236 189.502C258.937 189.326 258.559 189.238 258.1 189.238C257.743 189.238 257.417 189.299 257.124 189.422C256.836 189.539 256.588 189.721 256.38 189.966C256.172 190.211 256.009 190.521 255.892 190.894C255.78 191.262 255.724 191.697 255.724 192.198L254.788 191.91C254.788 191.073 254.937 190.355 255.236 189.758C255.54 189.155 255.964 188.694 256.508 188.374C257.057 188.049 257.703 187.886 258.444 187.886C259.004 187.886 259.481 187.974 259.876 188.15C260.271 188.326 260.599 188.561 260.86 188.854C261.121 189.142 261.327 189.467 261.476 189.83C261.625 190.187 261.729 190.553 261.788 190.926C261.852 191.294 261.884 191.643 261.884 191.974V196.75H260.444ZM254.284 196.75V188.11H255.564V190.422H255.724V196.75H254.284ZM267.174 200.598C266.976 200.598 266.79 200.571 266.614 200.518C266.443 200.47 266.28 200.409 266.126 200.334L266.47 199.414C266.71 199.499 266.904 199.542 267.054 199.542C267.246 199.542 267.392 199.483 267.494 199.366C267.6 199.249 267.654 199.121 267.654 198.982C267.654 198.747 267.547 198.577 267.334 198.47C267.12 198.369 266.875 198.278 266.598 198.198L267.182 196.558L268.15 196.55L267.774 197.606C268.067 197.739 268.302 197.921 268.478 198.15C268.654 198.385 268.742 198.675 268.742 199.022C268.742 199.475 268.587 199.851 268.278 200.15C267.968 200.449 267.6 200.598 267.174 200.598ZM267.526 196.99C266.651 196.99 265.907 196.795 265.294 196.406C264.686 196.011 264.222 195.47 263.902 194.782C263.582 194.094 263.416 193.31 263.406 192.43C263.416 191.529 263.584 190.737 263.91 190.054C264.24 189.366 264.712 188.83 265.326 188.446C265.939 188.062 266.678 187.87 267.542 187.87C268.454 187.87 269.238 188.094 269.894 188.542C270.555 188.99 270.998 189.603 271.222 190.382L269.814 190.806C269.632 190.305 269.336 189.915 268.926 189.638C268.52 189.361 268.054 189.222 267.526 189.222C266.934 189.222 266.446 189.361 266.062 189.638C265.678 189.91 265.392 190.289 265.206 190.774C265.019 191.254 264.923 191.806 264.918 192.43C264.928 193.39 265.15 194.166 265.582 194.758C266.019 195.345 266.667 195.638 267.526 195.638C268.091 195.638 268.56 195.51 268.934 195.254C269.307 194.993 269.59 194.617 269.782 194.126L271.222 194.502C270.923 195.307 270.456 195.923 269.822 196.35C269.187 196.777 268.422 196.99 267.526 196.99ZM275.232 196.99C274.587 196.99 274.046 196.873 273.608 196.638C273.176 196.398 272.848 196.083 272.624 195.694C272.406 195.305 272.296 194.878 272.296 194.414C272.296 193.961 272.382 193.569 272.552 193.238C272.728 192.902 272.974 192.625 273.288 192.406C273.603 192.182 273.979 192.006 274.416 191.878C274.827 191.766 275.286 191.67 275.792 191.59C276.304 191.505 276.822 191.427 277.344 191.358C277.867 191.289 278.355 191.222 278.808 191.158L278.296 191.454C278.312 190.686 278.158 190.118 277.832 189.75C277.512 189.382 276.958 189.198 276.168 189.198C275.646 189.198 275.187 189.318 274.792 189.558C274.403 189.793 274.128 190.177 273.968 190.71L272.616 190.302C272.824 189.545 273.227 188.95 273.824 188.518C274.422 188.086 275.208 187.87 276.184 187.87C276.968 187.87 277.64 188.011 278.2 188.294C278.766 188.571 279.171 188.993 279.416 189.558C279.539 189.825 279.616 190.115 279.648 190.43C279.68 190.739 279.696 191.065 279.696 191.406V196.75H278.432V194.678L278.728 194.87C278.403 195.569 277.947 196.097 277.36 196.454C276.779 196.811 276.07 196.99 275.232 196.99ZM275.448 195.798C275.96 195.798 276.403 195.707 276.776 195.526C277.155 195.339 277.459 195.097 277.688 194.798C277.918 194.494 278.067 194.163 278.136 193.806C278.216 193.539 278.259 193.243 278.264 192.918C278.275 192.587 278.28 192.334 278.28 192.158L278.776 192.374C278.312 192.438 277.856 192.499 277.408 192.558C276.96 192.617 276.536 192.681 276.136 192.75C275.736 192.814 275.376 192.891 275.056 192.982C274.822 193.057 274.6 193.153 274.392 193.27C274.19 193.387 274.024 193.539 273.896 193.726C273.774 193.907 273.712 194.134 273.712 194.406C273.712 194.641 273.771 194.865 273.888 195.078C274.011 195.291 274.198 195.465 274.448 195.598C274.704 195.731 275.038 195.798 275.448 195.798ZM282.08 199.678L281.024 198.87C281.648 198.134 282.16 197.363 282.56 196.558C282.965 195.747 283.266 194.915 283.464 194.062C283.661 193.203 283.76 192.339 283.76 191.47C283.76 190.59 283.661 189.726 283.464 188.878C283.272 188.025 282.973 187.195 282.568 186.39C282.168 185.585 281.653 184.809 281.024 184.062L282.08 183.262C282.704 183.982 283.24 184.79 283.688 185.686C284.141 186.577 284.485 187.515 284.72 188.502C284.96 189.489 285.074 190.478 285.064 191.47C285.074 192.457 284.96 193.443 284.72 194.43C284.485 195.417 284.141 196.358 283.688 197.254C283.24 198.15 282.704 198.958 282.08 199.678Z" fill="#8F9396"/>
</g>
<path d="M150 173.25C149.448 173.25 149 173.698 149 174.25C149 174.802 149.448 175.25 150 175.25V173.25ZM178.707 174.957C179.098 174.567 179.098 173.933 178.707 173.543L172.343 167.179C171.953 166.788 171.319 166.788 170.929 167.179C170.538 167.569 170.538 168.203 170.929 168.593L176.586 174.25L170.929 179.907C170.538 180.297 170.538 180.931 170.929 181.321C171.319 181.712 171.953 181.712 172.343 181.321L178.707 174.957ZM150 175.25H178V173.25H150V175.25Z" fill="#B3B3B3"/>
<g filter="url(#filter3_d_6423_12816)">
<rect x="358" y="134.75" width="140" height="79" rx="39.5" fill="white" shape-rendering="crispEdges"/>
<path d="M396.18 172.75V155.47H407.1V157.498H398.316V162.91H405.66V164.938H398.316V170.722H407.1V172.75H396.18ZM419.213 172.75V166.258C419.213 165.642 419.157 165.05 419.045 164.482C418.941 163.914 418.753 163.406 418.481 162.958C418.217 162.502 417.857 162.142 417.401 161.878C416.953 161.614 416.385 161.482 415.697 161.482C415.161 161.482 414.673 161.574 414.233 161.758C413.801 161.934 413.429 162.206 413.117 162.574C412.805 162.942 412.561 163.406 412.385 163.966C412.217 164.518 412.133 165.17 412.133 165.922L410.729 165.49C410.729 164.234 410.953 163.158 411.401 162.262C411.857 161.358 412.493 160.666 413.309 160.186C414.133 159.698 415.101 159.454 416.213 159.454C417.053 159.454 417.769 159.586 418.361 159.85C418.953 160.114 419.445 160.466 419.837 160.906C420.229 161.338 420.537 161.826 420.761 162.37C420.985 162.906 421.141 163.454 421.229 164.014C421.325 164.566 421.373 165.09 421.373 165.586V172.75H419.213ZM409.973 172.75V159.79H411.893V163.258H412.133V172.75H409.973ZM431.729 172.75C430.961 172.902 430.201 172.962 429.449 172.93C428.705 172.906 428.041 172.758 427.457 172.486C426.873 172.206 426.429 171.774 426.125 171.19C425.869 170.678 425.729 170.162 425.705 169.642C425.689 169.114 425.681 168.518 425.681 167.854V156.19H427.817V167.758C427.817 168.286 427.821 168.738 427.829 169.114C427.845 169.49 427.929 169.814 428.081 170.086C428.369 170.598 428.825 170.898 429.449 170.986C430.081 171.074 430.841 171.05 431.729 170.914V172.75ZM423.053 161.554V159.79H431.729V161.554H423.053ZM441.632 157.774C441.28 157.774 440.94 157.702 440.612 157.558C440.284 157.406 439.968 157.234 439.664 157.042C439.36 156.85 439.072 156.682 438.8 156.538C438.528 156.386 438.272 156.31 438.032 156.31C437.744 156.31 437.556 156.438 437.468 156.694C437.38 156.942 437.38 157.222 437.468 157.534H436.028C435.836 156.734 435.904 156.058 436.232 155.506C436.56 154.946 437.112 154.666 437.888 154.666C438.248 154.666 438.592 154.742 438.92 154.894C439.248 155.038 439.564 155.206 439.868 155.398C440.18 155.59 440.472 155.762 440.744 155.914C441.016 156.058 441.268 156.13 441.5 156.13C441.772 156.13 441.96 156.006 442.064 155.758C442.168 155.51 442.168 155.218 442.064 154.882H443.504C443.704 155.666 443.64 156.346 443.312 156.922C442.984 157.49 442.424 157.774 441.632 157.774ZM438.044 173.11C437.076 173.11 436.264 172.934 435.608 172.582C434.96 172.222 434.468 171.75 434.132 171.166C433.804 170.582 433.64 169.942 433.64 169.246C433.64 168.566 433.768 167.978 434.024 167.482C434.288 166.978 434.656 166.562 435.128 166.234C435.6 165.898 436.164 165.634 436.82 165.442C437.436 165.274 438.124 165.13 438.884 165.01C439.652 164.882 440.428 164.766 441.212 164.662C441.996 164.558 442.728 164.458 443.408 164.362L442.64 164.806C442.664 163.654 442.432 162.802 441.944 162.25C441.464 161.698 440.632 161.422 439.448 161.422C438.664 161.422 437.976 161.602 437.384 161.962C436.8 162.314 436.388 162.89 436.148 163.69L434.12 163.078C434.432 161.942 435.036 161.05 435.932 160.402C436.828 159.754 438.008 159.43 439.472 159.43C440.648 159.43 441.656 159.642 442.496 160.066C443.344 160.482 443.952 161.114 444.32 161.962C444.504 162.362 444.62 162.798 444.668 163.27C444.716 163.734 444.74 164.222 444.74 164.734V172.75H442.844V169.642L443.288 169.93C442.8 170.978 442.116 171.77 441.236 172.306C440.364 172.842 439.3 173.11 438.044 173.11ZM438.368 171.322C439.136 171.322 439.8 171.186 440.36 170.914C440.928 170.634 441.384 170.27 441.728 169.822C442.072 169.366 442.296 168.87 442.4 168.334C442.52 167.934 442.584 167.49 442.592 167.002C442.608 166.506 442.616 166.126 442.616 165.862L443.36 166.186C442.664 166.282 441.98 166.374 441.308 166.462C440.636 166.55 440 166.646 439.4 166.75C438.8 166.846 438.26 166.962 437.78 167.098C437.428 167.21 437.096 167.354 436.784 167.53C436.48 167.706 436.232 167.934 436.04 168.214C435.856 168.486 435.764 168.826 435.764 169.234C435.764 169.586 435.852 169.922 436.028 170.242C436.212 170.562 436.492 170.822 436.868 171.022C437.252 171.222 437.752 171.322 438.368 171.322ZM453.38 173.11C452.092 173.11 450.98 172.818 450.044 172.234C449.116 171.65 448.4 170.842 447.896 169.81C447.392 168.778 447.14 167.594 447.14 166.258C447.14 164.898 447.396 163.706 447.908 162.682C448.42 161.658 449.144 160.862 450.08 160.294C451.016 159.718 452.116 159.43 453.38 159.43C454.676 159.43 455.792 159.722 456.728 160.306C457.664 160.882 458.38 161.686 458.876 162.718C459.38 163.742 459.632 164.922 459.632 166.258C459.632 167.61 459.38 168.802 458.876 169.834C458.372 170.858 457.652 171.662 456.716 172.246C455.78 172.822 454.668 173.11 453.38 173.11ZM453.38 171.082C454.724 171.082 455.724 170.634 456.38 169.738C457.036 168.842 457.364 167.682 457.364 166.258C457.364 164.794 457.032 163.63 456.368 162.766C455.704 161.894 454.708 161.458 453.38 161.458C452.476 161.458 451.732 161.662 451.148 162.07C450.564 162.478 450.128 163.042 449.84 163.762C449.552 164.482 449.408 165.314 449.408 166.258C449.408 167.714 449.744 168.882 450.416 169.762C451.088 170.642 452.076 171.082 453.38 171.082Z" fill="#212528"/>
<path d="M407.224 199.678C406.6 198.958 406.064 198.15 405.616 197.254C405.168 196.358 404.824 195.417 404.584 194.43C404.344 193.443 404.229 192.457 404.24 191.47C404.229 190.478 404.344 189.489 404.584 188.502C404.824 187.515 405.168 186.577 405.616 185.686C406.064 184.79 406.6 183.982 407.224 183.262L408.28 184.062C407.651 184.809 407.133 185.585 406.728 186.39C406.328 187.195 406.032 188.025 405.84 188.878C405.648 189.726 405.549 190.59 405.544 191.47C405.549 192.339 405.648 193.203 405.84 194.062C406.037 194.915 406.336 195.747 406.736 196.558C407.141 197.363 407.656 198.134 408.28 198.87L407.224 199.678ZM409.273 196.75L413.129 185.23H415.113L418.969 196.75H417.489L413.881 186.062H414.329L410.753 196.75H409.273ZM411.129 194.054V192.718H417.113V194.054H411.129ZM423.689 200.598C423.492 200.598 423.305 200.571 423.129 200.518C422.959 200.47 422.796 200.409 422.641 200.334L422.985 199.414C423.225 199.499 423.42 199.542 423.569 199.542C423.761 199.542 423.908 199.483 424.009 199.366C424.116 199.249 424.169 199.121 424.169 198.982C424.169 198.747 424.063 198.577 423.849 198.47C423.636 198.369 423.391 198.278 423.113 198.198L423.697 196.558L424.665 196.55L424.289 197.606C424.583 197.739 424.817 197.921 424.993 198.15C425.169 198.385 425.257 198.675 425.257 199.022C425.257 199.475 425.103 199.851 424.793 200.15C424.484 200.449 424.116 200.598 423.689 200.598ZM424.041 196.99C423.167 196.99 422.423 196.795 421.809 196.406C421.201 196.011 420.737 195.47 420.417 194.782C420.097 194.094 419.932 193.31 419.921 192.43C419.932 191.529 420.1 190.737 420.425 190.054C420.756 189.366 421.228 188.83 421.841 188.446C422.455 188.062 423.193 187.87 424.057 187.87C424.969 187.87 425.753 188.094 426.409 188.542C427.071 188.99 427.513 189.603 427.737 190.382L426.329 190.806C426.148 190.305 425.852 189.915 425.441 189.638C425.036 189.361 424.569 189.222 424.041 189.222C423.449 189.222 422.961 189.361 422.577 189.638C422.193 189.91 421.908 190.289 421.721 190.774C421.535 191.254 421.439 191.806 421.433 192.43C421.444 193.39 421.665 194.166 422.097 194.758C422.535 195.345 423.183 195.638 424.041 195.638C424.607 195.638 425.076 195.51 425.449 195.254C425.823 194.993 426.105 194.617 426.297 194.126L427.737 194.502C427.439 195.307 426.972 195.923 426.337 196.35C425.703 196.777 424.937 196.99 424.041 196.99ZM434.14 186.766C433.905 186.766 433.679 186.718 433.46 186.622C433.241 186.521 433.031 186.406 432.828 186.278C432.625 186.15 432.433 186.038 432.252 185.942C432.071 185.841 431.9 185.79 431.74 185.79C431.548 185.79 431.423 185.875 431.364 186.046C431.305 186.211 431.305 186.398 431.364 186.606H430.404C430.276 186.073 430.321 185.622 430.54 185.254C430.759 184.881 431.127 184.694 431.644 184.694C431.884 184.694 432.113 184.745 432.332 184.846C432.551 184.942 432.761 185.054 432.964 185.182C433.172 185.31 433.367 185.425 433.548 185.526C433.729 185.622 433.897 185.67 434.052 185.67C434.233 185.67 434.359 185.587 434.428 185.422C434.497 185.257 434.497 185.062 434.428 184.838H435.388C435.521 185.361 435.479 185.814 435.26 186.198C435.041 186.577 434.668 186.766 434.14 186.766ZM431.748 196.99C431.103 196.99 430.561 196.873 430.124 196.638C429.692 196.398 429.364 196.083 429.14 195.694C428.921 195.305 428.812 194.878 428.812 194.414C428.812 193.961 428.897 193.569 429.068 193.238C429.244 192.902 429.489 192.625 429.804 192.406C430.119 192.182 430.495 192.006 430.932 191.878C431.343 191.766 431.801 191.67 432.308 191.59C432.82 191.505 433.337 191.427 433.86 191.358C434.383 191.289 434.871 191.222 435.324 191.158L434.812 191.454C434.828 190.686 434.673 190.118 434.348 189.75C434.028 189.382 433.473 189.198 432.684 189.198C432.161 189.198 431.703 189.318 431.308 189.558C430.919 189.793 430.644 190.177 430.484 190.71L429.132 190.302C429.34 189.545 429.743 188.95 430.34 188.518C430.937 188.086 431.724 187.87 432.7 187.87C433.484 187.87 434.156 188.011 434.716 188.294C435.281 188.571 435.687 188.993 435.932 189.558C436.055 189.825 436.132 190.115 436.164 190.43C436.196 190.739 436.212 191.065 436.212 191.406V196.75H434.948V194.678L435.244 194.87C434.919 195.569 434.463 196.097 433.876 196.454C433.295 196.811 432.585 196.99 431.748 196.99ZM431.964 195.798C432.476 195.798 432.919 195.707 433.292 195.526C433.671 195.339 433.975 195.097 434.204 194.798C434.433 194.494 434.583 194.163 434.652 193.806C434.732 193.539 434.775 193.243 434.78 192.918C434.791 192.587 434.796 192.334 434.796 192.158L435.292 192.374C434.828 192.438 434.372 192.499 433.924 192.558C433.476 192.617 433.052 192.681 432.652 192.75C432.252 192.814 431.892 192.891 431.572 192.982C431.337 193.057 431.116 193.153 430.908 193.27C430.705 193.387 430.54 193.539 430.412 193.726C430.289 193.907 430.228 194.134 430.228 194.406C430.228 194.641 430.287 194.865 430.404 195.078C430.527 195.291 430.713 195.465 430.964 195.598C431.22 195.731 431.553 195.798 431.964 195.798ZM441.972 196.99C441.113 196.99 440.372 196.795 439.748 196.406C439.129 196.017 438.652 195.478 438.316 194.79C437.98 194.102 437.812 193.313 437.812 192.422C437.812 191.515 437.983 190.721 438.324 190.038C438.665 189.355 439.148 188.825 439.772 188.446C440.396 188.062 441.129 187.87 441.972 187.87C442.836 187.87 443.58 188.065 444.204 188.454C444.828 188.838 445.305 189.374 445.636 190.062C445.972 190.745 446.14 191.531 446.14 192.422C446.14 193.323 445.972 194.118 445.636 194.806C445.3 195.489 444.82 196.025 444.196 196.414C443.572 196.798 442.831 196.99 441.972 196.99ZM441.972 195.638C442.868 195.638 443.535 195.339 443.972 194.742C444.409 194.145 444.628 193.371 444.628 192.422C444.628 191.446 444.407 190.67 443.964 190.094C443.521 189.513 442.857 189.222 441.972 189.222C441.369 189.222 440.873 189.358 440.484 189.63C440.095 189.902 439.804 190.278 439.612 190.758C439.42 191.238 439.324 191.793 439.324 192.422C439.324 193.393 439.548 194.171 439.996 194.758C440.444 195.345 441.103 195.638 441.972 195.638ZM447.877 199.678L446.821 198.87C447.445 198.134 447.957 197.363 448.357 196.558C448.762 195.747 449.063 194.915 449.261 194.062C449.458 193.203 449.557 192.339 449.557 191.47C449.557 190.59 449.458 189.726 449.261 188.878C449.069 188.025 448.77 187.195 448.365 186.39C447.965 185.585 447.45 184.809 446.821 184.062L447.877 183.262C448.501 183.982 449.037 184.79 449.485 185.686C449.938 186.577 450.282 187.515 450.517 188.502C450.757 189.489 450.871 190.478 450.861 191.47C450.871 192.457 450.757 193.443 450.517 194.43C450.282 195.417 449.938 196.358 449.485 197.254C449.037 198.15 448.501 198.958 447.877 199.678Z" fill="#8F9396"/>
</g>
<path d="M326 173.25C325.448 173.25 325 173.698 325 174.25C325 174.802 325.448 175.25 326 175.25V173.25ZM354.707 174.957C355.098 174.567 355.098 173.933 354.707 173.543L348.343 167.179C347.953 166.788 347.319 166.788 346.929 167.179C346.538 167.569 346.538 168.203 346.929 168.593L352.586 174.25L346.929 179.907C346.538 180.297 346.538 180.931 346.929 181.321C347.319 181.712 347.953 181.712 348.343 181.321L354.707 174.957ZM326 175.25H354V173.25H326V175.25Z" fill="#B3B3B3"/>
<defs>
<filter id="filter0_d_6423_12816" x="283" y="251.75" width="223.722" height="54.1772" filterUnits="userSpaceOnUse" color-interpolation-filters="sRGB">
<feFlood flood-opacity="0" result="BackgroundImageFix"/>
<feColorMatrix in="SourceAlpha" type="matrix" values="0 0 0 0 0 0 0 0 0 0 0 0 0 0 0 0 0 0 127 0" result="hardAlpha"/>
<feOffset dy="4"/>
<feGaussianBlur stdDeviation="2"/>
<feComposite in2="hardAlpha" operator="out"/>
<feColorMatrix type="matrix" values="0 0 0 0 0 0 0 0 0 0 0 0 0 0 0 0 0 0 0.25 0"/>
<feBlend mode="normal" in2="BackgroundImageFix" result="effect1_dropShadow_6423_12816"/>
<feBlend mode="normal" in="SourceGraphic" in2="effect1_dropShadow_6423_12816" result="shape"/>
</filter>
<filter id="filter1_d_6423_12816" x="0" y="134.75" width="152" height="91" filterUnits="userSpaceOnUse" color-interpolation-filters="sRGB">
<feFlood flood-opacity="0" result="BackgroundImageFix"/>
<feColorMatrix in="SourceAlpha" type="matrix" values="0 0 0 0 0 0 0 0 0 0 0 0 0 0 0 0 0 0 127 0" result="hardAlpha"/>
<feOffset dy="6"/>
<feGaussianBlur stdDeviation="3"/>
<feComposite in2="hardAlpha" operator="out"/>
<feColorMatrix type="matrix" values="0 0 0 0 0 0 0 0 0 0 0 0 0 0 0 0 0 0 0.25 0"/>
<feBlend mode="normal" in2="BackgroundImageFix" result="effect1_dropShadow_6423_12816"/>
<feBlend mode="normal" in="SourceGraphic" in2="effect1_dropShadow_6423_12816" result="shape"/>
</filter>
<filter id="filter2_d_6423_12816" x="176" y="134.75" width="152" height="91" filterUnits="userSpaceOnUse" color-interpolation-filters="sRGB">
<feFlood flood-opacity="0" result="BackgroundImageFix"/>
<feColorMatrix in="SourceAlpha" type="matrix" values="0 0 0 0 0 0 0 0 0 0 0 0 0 0 0 0 0 0 127 0" result="hardAlpha"/>
<feOffset dy="6"/>
<feGaussianBlur stdDeviation="3"/>
<feComposite in2="hardAlpha" operator="out"/>
<feColorMatrix type="matrix" values="0 0 0 0 0 0 0 0 0 0 0 0 0 0 0 0 0 0 0.25 0"/>
<feBlend mode="normal" in2="BackgroundImageFix" result="effect1_dropShadow_6423_12816"/>
<feBlend mode="normal" in="SourceGraphic" in2="effect1_dropShadow_6423_12816" result="shape"/>
</filter>
<filter id="filter3_d_6423_12816" x="352" y="134.75" width="152" height="91" filterUnits="userSpaceOnUse" color-interpolation-filters="sRGB">
<feFlood flood-opacity="0" result="BackgroundImageFix"/>
<feColorMatrix in="SourceAlpha" type="matrix" values="0 0 0 0 0 0 0 0 0 0 0 0 0 0 0 0 0 0 127 0" result="hardAlpha"/>
<feOffset dy="6"/>
<feGaussianBlur stdDeviation="3"/>
<feComposite in2="hardAlpha" operator="out"/>
<feColorMatrix type="matrix" values="0 0 0 0 0 0 0 0 0 0 0 0 0 0 0 0 0 0 0.25 0"/>
<feBlend mode="normal" in2="BackgroundImageFix" result="effect1_dropShadow_6423_12816"/>
<feBlend mode="normal" in="SourceGraphic" in2="effect1_dropShadow_6423_12816" result="shape"/>
</filter>
</defs>
</svg>
