<svg width="600" height="450" viewBox="0 0 600 450" fill="none" xmlns="http://www.w3.org/2000/svg">
<rect width="600" height="450" rx="16" fill="white"/>
<rect x="37" y="105" width="56" height="56" rx="16" fill="#E8F7E8"/>
<path d="M74.8985 129.89L73.8485 125.52C73.6285 124.62 72.8485 124 71.9385 124H58.0485C57.1485 124 56.3585 124.63 56.1485 125.52L55.0985 129.89C54.8585 130.91 55.0785 131.95 55.7185 132.77C55.7985 132.88 55.9085 132.96 55.9985 133.06V140C55.9985 141.1 56.8985 142 57.9985 142H71.9985C73.0985 142 73.9985 141.1 73.9985 140V133.06C74.0885 132.97 74.1985 132.88 74.2785 132.78C74.9185 131.96 75.1485 130.91 74.8985 129.89ZM71.9085 125.99L72.9585 130.36C73.0585 130.78 72.9685 131.2 72.7085 131.53C72.5685 131.71 72.2685 132 71.7685 132C71.1585 132 70.6285 131.51 70.5585 130.86L69.9785 126L71.9085 125.99ZM65.9985 126H67.9585L68.4985 130.52C68.5485 130.91 68.4285 131.3 68.1685 131.59C67.9485 131.85 67.6285 132 67.2185 132C66.5485 132 65.9985 131.41 65.9985 130.69V126ZM61.4885 130.52L62.0385 126H63.9985V130.69C63.9985 131.41 63.4485 132 62.7085 132C62.3685 132 62.0585 131.85 61.8185 131.59C61.5685 131.3 61.4485 130.91 61.4885 130.52ZM57.0385 130.36L58.0485 126H60.0185L59.4385 130.86C59.3585 131.51 58.8385 132 58.2285 132C57.7385 132 57.4285 131.71 57.2985 131.53C57.0285 131.21 56.9385 130.78 57.0385 130.36ZM57.9985 140V133.97C58.0785 133.98 58.1485 134 58.2285 134C59.0985 134 59.8885 133.64 60.4685 133.05C61.0685 133.65 61.8685 134 62.7785 134C63.6485 134 64.4285 133.64 65.0085 133.07C65.5985 133.64 66.3985 134 67.2985 134C68.1385 134 68.9385 133.65 69.5385 133.05C70.1185 133.64 70.9085 134 71.7785 134C71.8585 134 71.9285 133.98 72.0085 133.97V140H57.9985Z" fill="#307368"/>
<rect x="150" y="6" width="80" height="80" rx="16" fill="#F2F2F3"/>
<path d="M168.275 49.2614C168.918 53.9462 171.123 58.1717 174.43 61.5704L181.87 54.1299C181.87 46.2301 186.004 39.0652 192.801 35.0234L168.275 49.2614Z" fill="#9B65C3"/>
<path d="M181.962 54.0374C178.104 54.0374 174.338 53.0269 171.031 51.0979C170.113 50.5468 169.194 49.9037 168.275 49.2607C168.918 53.9455 171.123 58.171 174.43 61.5697L181.962 54.0374Z" fill="#9B65C3"/>
<path d="M181.962 54.0376L174.43 61.5699C177.828 64.9687 182.054 67.0814 186.647 67.7244L200.885 43.1064C197.027 49.8121 189.77 54.0376 181.962 54.0376Z" fill="#BE63C5"/>
<path d="M184.902 65.061C182.972 61.6622 181.962 57.9879 181.962 54.1299L174.43 61.5704C177.828 64.9691 182.054 67.0819 186.647 67.7249C186.096 66.8063 185.453 65.9796 184.902 65.061Z" fill="#BF63C6"/>
<path d="M209.979 25.1943L192.894 34.9313C186.096 38.7893 177.829 38.7893 170.939 34.9313C169.01 38.33 168 42.1881 168 46.0461C168 47.0565 168.092 48.2507 168.276 49.2611C169.194 49.9041 170.113 50.5472 171.031 51.0983C174.43 53.0273 178.104 54.0378 181.962 54.0378L210.347 25.6536C210.163 25.5618 210.071 25.3781 209.979 25.1943Z" fill="#3278B1"/>
<path d="M170.939 51.0987C174.338 53.0277 178.012 54.0381 181.87 54.0381C181.87 46.1383 186.004 38.9734 192.801 34.9316L168.275 49.1696C169.194 49.9045 170.021 50.5475 170.939 51.0987Z" fill="#3278B2"/>
<path d="M170.939 34.9316C169.01 38.3304 168 42.1884 168 46.0465C168 47.0569 168.092 48.2511 168.276 49.2615L192.894 34.9316C186.188 38.9734 177.829 38.9734 170.939 34.9316Z" fill="#45A4EC"/>
<path d="M210.347 25.6534C209.979 25.286 209.704 25.0104 209.336 24.7349C208.509 24.2756 207.499 24 206.58 24H189.954C182.054 24 174.797 28.2255 170.939 34.9311C177.737 38.7891 186.004 38.7891 192.894 34.9311C186.096 38.7891 181.962 46.1378 181.962 54.0376C189.862 54.0376 197.027 49.904 201.069 43.1065L210.806 26.0209C210.622 25.929 210.438 25.8372 210.347 25.6534Z" fill="#19BB7D"/>
<path d="M192.894 34.9307L209.979 25.1937C209.704 25.1019 209.612 24.8263 209.336 24.6426L170.939 34.9307C177.829 38.9724 186.188 38.9724 192.894 34.9307Z" fill="#08C7FB"/>
<path d="M206.489 24H189.954C182.054 24 174.797 28.2255 170.939 34.9311L209.336 24.643C208.418 24.2756 207.499 24 206.489 24Z" fill="#59F2F6"/>
<path d="M201.069 43.1065L210.806 26.0209C210.714 25.929 210.531 25.7453 210.439 25.4697L182.055 53.9457C182.055 57.8038 183.065 61.5699 184.994 64.8768C185.545 65.7954 186.188 66.714 186.831 67.6326C187.842 67.7244 188.852 67.9081 189.954 67.9081C193.813 67.9081 197.579 66.8977 200.886 64.9687C197.028 58.1712 197.028 49.8121 201.069 43.1065Z" fill="#DA3757"/>
<path d="M181.963 54.0376C181.963 57.8956 182.973 61.6618 184.902 64.9687C185.453 65.8872 186.097 66.8058 186.74 67.7244L200.978 43.1064C197.028 49.8121 189.771 54.0376 181.963 54.0376Z" fill="#D33C4E"/>
<path d="M201.068 43.1064L186.83 67.7244C187.841 67.8163 188.851 68 190.045 68C193.903 68 197.669 66.9895 200.976 65.0605C197.026 58.1712 197.026 49.8121 201.068 43.1064Z" fill="#EE5A24"/>
<path d="M211.266 26.7559C210.898 26.1129 210.531 25.5618 209.98 25.1943L192.894 34.9313C186.097 38.7893 181.963 46.138 181.963 54.0378C189.863 54.0378 197.028 49.9041 201.069 43.1067C197.211 49.9041 197.211 58.1714 201.069 65.0607C207.775 61.2027 212 53.9459 212 46.2298V29.5117C212 28.5012 211.725 27.5826 211.266 26.7559Z" fill="#8BDF55"/>
<path d="M209.98 25.1943L192.894 34.9313C186.097 38.7893 181.963 46.138 181.963 54.0378L210.347 25.6536C210.163 25.5618 210.071 25.2862 209.98 25.1943Z" fill="#25C16F"/>
<path d="M181.963 54.0376C189.863 54.0376 197.028 49.904 201.069 43.1065L210.806 26.0209C210.714 25.929 210.531 25.7453 210.439 25.4697L181.963 54.0376Z" fill="#8BDF55"/>
<path d="M210.806 26.0205L201.069 43.1061C197.211 49.9036 197.211 58.1708 201.069 65.0602L211.357 26.7554C211.082 26.4798 210.99 26.2961 210.806 26.0205Z" fill="#FFBB00"/>
<path d="M201.068 65.0607C207.866 61.2027 211.999 53.9459 211.999 46.0461V29.5117C211.999 28.5012 211.724 27.5826 211.265 26.6641L201.068 65.0607Z" fill="#FFA800"/>
<rect x="387" y="351" width="80" height="80" rx="16" fill="#F2F2F3"/>
<path d="M427.053 413H412.735C408.473 413 405 409.525 405 405.262V391C405 390.287 405.576 389.71 406.289 389.71C407.002 389.71 407.578 390.287 407.578 391V405.262C407.578 408.099 409.884 410.42 412.735 410.42H427.053C427.766 410.42 428.342 410.997 428.342 411.71C428.342 412.423 427.766 413 427.053 413Z" fill="#F9B21D"/>
<path d="M441.265 413H427.053C426.34 413 425.764 412.423 425.764 411.71C425.764 410.997 426.34 410.42 427.053 410.42H441.265C444.101 410.42 446.421 408.114 446.421 405.262V391C446.421 390.287 446.998 389.71 447.711 389.71C448.423 389.71 449 390.287 449 391V405.262C448.985 409.525 445.527 413 441.265 413Z" fill="#226DB4"/>
<path d="M447.711 392.29C446.998 392.29 446.421 391.713 446.421 391V376.738C446.421 373.901 444.116 371.579 441.265 371.579H427.053C426.34 371.579 425.764 371.003 425.764 370.29C425.764 369.577 426.34 369 427.053 369H441.265C445.527 369 449 372.474 449 376.738V391C448.985 391.713 448.408 392.29 447.711 392.29Z" fill="#089949"/>
<path d="M406.289 392.29C405.576 392.29 405 391.713 405 391V376.738C405 372.474 408.473 369 412.735 369H427.053C427.766 369 428.342 369.577 428.342 370.29C428.342 371.003 427.766 371.579 427.053 371.579H412.735C409.899 371.579 407.578 373.886 407.578 376.738V391C407.578 391.713 407.002 392.29 406.289 392.29Z" fill="#E42527"/>
<path d="M433.378 402.222C430.4 402.222 427.604 401.064 425.486 398.978L419.529 393.02C418.768 392.242 418.338 391.232 418.338 390.14C418.338 389.047 418.768 388.038 419.546 387.26C421.134 385.704 423.699 385.704 425.271 387.276L430.731 392.738C431.211 393.218 432.005 393.218 432.501 392.738C432.733 392.506 432.865 392.192 432.865 391.844C432.865 391.513 432.733 391.199 432.501 390.951L426.545 384.992C424.956 383.42 422.855 382.559 420.605 382.559C418.321 382.559 416.187 383.453 414.615 385.075C413.027 386.697 412.183 388.849 412.216 391.133C412.266 393.351 413.159 395.42 414.731 396.975C416.319 398.531 418.404 399.392 420.621 399.392C420.952 399.392 421.267 399.375 421.598 399.342C422.375 399.26 423.07 399.806 423.153 400.584C423.236 401.362 422.69 402.057 421.912 402.14C421.482 402.189 421.052 402.206 420.621 402.206C417.66 402.206 414.863 401.064 412.762 398.995C410.661 396.926 409.453 394.162 409.403 391.215C409.337 388.17 410.479 385.306 412.596 383.138C414.714 380.97 417.56 379.778 420.605 379.762C420.621 379.762 420.621 379.762 420.638 379.762C423.616 379.762 426.412 380.92 428.53 383.006L434.487 388.964C435.265 389.742 435.678 390.752 435.678 391.844C435.678 392.937 435.248 393.963 434.47 394.724C432.882 396.297 430.317 396.28 428.745 394.708L423.285 389.246C422.805 388.766 422.011 388.766 421.531 389.246C421.3 389.478 421.167 389.792 421.167 390.123C421.167 390.454 421.3 390.769 421.531 391L427.488 396.959C429.076 398.531 431.178 399.392 433.395 399.392C438.028 399.392 441.8 395.618 441.8 390.984C441.8 388.733 440.923 386.631 439.335 385.025C437.746 383.436 435.629 382.559 433.395 382.559C433.08 382.559 432.766 382.575 432.452 382.609C431.674 382.691 430.979 382.145 430.896 381.367C430.814 380.589 431.36 379.894 432.137 379.811C432.551 379.762 432.981 379.745 433.395 379.745C436.39 379.745 439.202 380.92 441.337 383.039C443.455 385.158 444.63 387.988 444.63 390.984C444.63 393.98 443.455 396.793 441.337 398.912C439.186 401.064 436.373 402.222 433.378 402.222Z" fill="#226DB4"/>
<rect x="150" y="282" width="144" height="144" rx="16" fill="#F2F2F3"/>
<path d="M181.464 335.526C181.918 335.98 182.735 337.115 183.825 336.615C184.96 336.071 190.818 335.526 192.725 335.253C194.632 335.026 196.267 335.299 196.267 335.299C196.267 335.299 191.227 342.246 190.455 343.381C189.592 344.471 185.278 350.692 184.461 351.963C183.644 353.28 181.6 356.731 180.647 358.456C179.784 360.182 181.237 360.046 181.237 360.046C181.237 360.046 184.688 360.137 185.46 360.137C186.186 360.091 186.323 359.592 186.413 359.365C186.595 359.092 186.777 358.366 187.458 357.276C188.048 356.186 189.547 353.689 191.181 350.964C192.816 348.285 194.723 345.606 196.131 343.608C197.629 341.565 199.309 339.204 199.718 338.659C200.081 338.114 201.761 335.889 202.124 335.389C202.488 334.844 202.624 334.89 203.214 334.844C203.396 334.844 203.895 334.844 204.486 334.89C206.03 334.935 208.482 335.162 209.662 335.253C211.388 335.435 213.885 335.48 215.429 335.616C216.973 335.798 216.519 334.89 216.519 334.89C216.519 334.89 216.609 333.846 216.201 332.756C215.701 331.621 215.338 331.757 215.338 331.757C213.567 331.212 207.891 330.803 204.486 330.712C203.623 330.667 202.896 330.667 202.442 330.667H201.716C198.583 330.712 190.863 331.166 189.183 331.348C187.367 331.53 181.464 332.665 180.374 332.847C179.33 333.119 179.92 333.8 179.92 333.8C179.92 333.8 180.964 335.026 181.464 335.526Z" fill="#3069B3"/>
<path d="M264.469 369.354C264.106 369.173 259.338 367.493 257.976 367.084C256.523 366.721 250.529 365.449 249.757 365.359C248.985 365.268 250.847 363.452 251.573 362.498C252.3 361.681 256.296 357.321 257.703 356.05C259.02 354.733 262.471 351.555 263.516 350.556C264.515 349.557 262.971 349.103 262.971 349.103C262.971 349.103 262.471 348.83 260.473 348.376C258.43 347.877 257.976 348.966 257.976 348.966C257.976 348.966 255.161 351.6 253.481 353.189C251.755 354.779 249.757 356.095 248.349 356.867C247.033 357.639 245.67 358.184 245.08 357.821C244.535 357.503 245.08 356.686 245.443 355.959C245.807 355.187 247.986 352.781 248.531 352.1C249.076 351.418 251.573 348.739 252.618 347.695C253.617 346.605 251.846 346.197 250.983 345.97C250.166 345.788 249.621 345.652 248.713 345.652C247.895 345.652 247.578 346.242 247.578 346.242C247.578 346.242 246.079 347.786 245.67 348.331C245.307 348.876 241.22 353.371 239.949 354.733C238.632 356.095 236.861 357.412 236.362 357.594C235.817 357.776 234.773 358.048 233.864 356.913C232.956 355.778 233.683 355.096 234.863 353.462C236.089 351.873 239.177 348.285 240.676 346.514C242.219 344.789 247.941 340.067 249.076 339.249C250.166 338.432 249.53 338.159 249.53 338.159C249.53 338.159 248.531 337.478 247.941 337.297C247.396 337.024 246.442 336.843 245.443 336.843C244.49 336.843 244.127 337.388 244.127 337.388C244.127 337.388 240.948 340.021 240.312 340.657C239.722 341.202 232.775 348.013 231.503 349.33C230.232 350.647 226.599 353.916 225.373 354.96C224.102 356.005 222.967 356.504 222.285 356.05C221.604 355.596 221.831 354.824 222.285 354.188C222.649 353.507 225.419 350.102 226.418 348.966C227.417 347.831 230.413 344.653 231.458 343.563C232.502 342.473 236.68 338.841 237.86 337.796C239.132 336.797 237.588 336.162 237.588 336.162C237.588 336.162 236.725 335.617 235.227 335.344C233.728 335.026 233.456 335.39 232.638 335.934C231.776 336.479 226.236 342.246 225.691 342.882C225.146 343.427 218.426 350.192 217.427 351.282C216.382 352.281 212.977 355.369 212.25 355.778C211.66 356.277 209.662 357.639 209.163 356.777C208.572 355.959 209.753 355.187 209.753 355.187C209.753 355.187 212.704 352.327 213.749 351.101C214.793 349.875 214.203 348.149 214.021 347.695C213.794 347.196 212.977 345.879 211.524 344.653C210.025 343.427 208.572 343.381 207.528 343.381C206.665 343.427 205.394 344.199 204.395 344.698C204.213 344.744 204.077 344.88 203.895 344.925C203.033 345.561 200.081 347.831 200.081 347.831C200.081 347.831 197.72 349.965 196.267 351.418C194.95 352.872 193.86 354.052 195.313 356.958C196.812 359.864 199.536 360.545 200.717 360.682C201.761 360.863 203.214 359.683 203.668 359.229C204.032 358.865 204.213 358.911 204.486 359.41C204.531 359.456 204.577 359.592 204.667 359.683C205.031 360.409 206.302 360.909 207.483 361.136C208.572 361.317 209.072 361.045 211.07 360.455C213.068 359.864 216.746 357.594 217.381 357.094C218.108 356.55 218.153 357.367 218.744 358.457C219.334 359.546 220.832 359.955 222.104 360.091C223.421 360.182 224.011 359.864 224.919 359.501C225.736 359.138 228.007 358.003 228.733 357.503C229.414 357.049 229.505 357.004 229.778 357.73C230.05 358.411 230.096 359.002 232.139 360.364C234.137 361.817 237.542 360.954 238.269 360.727C239.086 360.455 240.539 359.683 240.903 359.456C241.266 359.229 241.584 359.819 242.401 360.682C243.173 361.454 244.717 361.408 245.716 360.772C246.715 360.091 246.215 360.818 246.215 360.818C246.215 360.818 244.717 362.907 244.217 363.452C243.763 363.996 243.718 364.405 243.218 364.269C242.764 364.178 241.175 364.042 238.768 363.906C236.362 363.724 230.731 363.452 226.645 363.406C222.558 363.361 211.751 363.951 207.71 364.178C206.847 364.223 205.712 364.36 204.44 364.45C199.809 364.95 193.452 365.949 191 366.267C187.912 366.766 178.104 368.81 176.106 369.445C175.606 369.627 175.379 369.763 175.334 369.99V370.081C175.425 370.626 176.878 371.216 177.922 371.716C179.421 372.442 180.874 372.034 180.874 372.034C180.874 372.034 183.825 371.489 185.369 371.216C186.868 370.898 197.902 369.218 200.671 368.719C201.443 368.628 202.76 368.446 204.395 368.219C208.618 367.72 214.612 367.175 216.655 366.993C219.516 366.812 227.462 366.812 229.687 366.766C231.912 366.721 239.586 367.13 239.994 367.22C240.358 367.311 241.584 367.175 240.812 367.811C240.085 368.583 238.314 372.215 237.86 373.033C237.406 373.895 237.588 373.85 238.405 374.304C239.177 374.758 241.22 374.849 241.72 374.849C242.174 374.849 242.31 374.304 242.31 374.304C242.31 374.304 244.808 370.49 245.625 369.264C246.442 367.947 246.942 368.265 246.942 368.265C246.942 368.265 250.847 368.991 252.572 369.309C254.298 369.627 260.655 371.307 262.017 371.897C263.379 372.488 264.015 372.442 264.378 372.351C264.742 372.17 265.604 370.263 265.604 370.263V369.945C265.559 369.809 264.742 369.582 264.469 369.354ZM205.893 353.87C205.575 354.143 205.031 354.461 204.44 354.869C202.987 355.868 201.262 357.004 200.717 357.185C199.945 357.412 199.445 357.685 198.991 357.004C198.492 356.323 199.945 355.006 199.945 355.006C199.945 355.006 202.579 352.644 203.578 351.736C203.805 351.555 204.122 351.282 204.44 351.055C205.757 350.011 207.573 348.558 208.073 348.285C208.663 347.967 209.163 347.695 209.708 348.24C210.252 348.785 209.798 349.33 209.617 349.602C209.526 349.92 207.074 353.008 205.893 353.87Z" fill="#3069B3"/>
<path d="M268.93 343.881C269.702 343.881 270.428 344.062 271.11 344.426C271.836 344.789 272.381 345.379 272.744 346.06C273.107 346.787 273.334 347.513 273.334 348.24C273.334 348.967 273.107 349.738 272.744 350.42C272.381 351.146 271.791 351.691 271.11 352.054C270.383 352.417 269.656 352.645 268.93 352.645C268.158 352.645 267.431 352.417 266.75 352.054C266.024 351.691 265.479 351.101 265.116 350.42C264.752 349.693 264.525 348.967 264.525 348.24C264.525 347.513 264.752 346.742 265.116 346.06C265.479 345.334 266.069 344.789 266.75 344.426C267.431 344.017 268.158 343.881 268.93 343.881ZM268.93 344.607C268.34 344.607 267.704 344.789 267.114 345.107C266.523 345.425 266.069 345.879 265.751 346.469C265.434 347.059 265.252 347.695 265.252 348.331C265.252 349.012 265.434 349.602 265.751 350.147C266.069 350.737 266.523 351.191 267.114 351.509C267.704 351.827 268.34 352.009 268.93 352.009C269.611 352.009 270.201 351.827 270.746 351.509C271.291 351.191 271.791 350.737 272.108 350.147C272.426 349.602 272.608 348.921 272.608 348.331C272.608 347.65 272.426 347.059 272.108 346.469C271.791 345.879 271.337 345.425 270.746 345.107C270.156 344.744 269.52 344.607 268.93 344.607ZM267.023 350.692V345.97H268.657C269.202 345.97 269.611 346.015 269.883 346.06C270.156 346.151 270.338 346.287 270.474 346.56C270.655 346.787 270.701 347.014 270.701 347.241C270.701 347.559 270.61 347.922 270.338 348.104C270.065 348.376 269.793 348.467 269.339 348.558C269.52 348.603 269.611 348.739 269.702 348.83C269.883 349.012 270.156 349.33 270.428 349.784L270.973 350.737H270.02L269.566 349.965C269.248 349.421 268.975 349.012 268.748 348.876C268.567 348.785 268.43 348.694 268.158 348.694H267.704V350.737H267.023V350.692ZM267.795 348.058H268.748C269.202 348.058 269.52 348.013 269.611 347.831C269.793 347.741 269.883 347.513 269.883 347.286C269.883 347.105 269.838 347.014 269.793 346.923C269.747 346.832 269.611 346.742 269.475 346.651C269.293 346.605 269.112 346.605 268.703 346.605H267.84V348.058H267.795Z" fill="#3069B3"/>
<rect x="474" y="6" width="80" height="80" rx="16" fill="#F2F2F3"/>
<rect x="492" y="24" width="44" height="44" fill="#D92727"/>
<path d="M515.347 58.8997C514.204 58.8997 513.061 58.7763 511.962 58.5295C508.138 57.7066 504.798 55.4851 502.732 52.3584C498.424 45.8582 500.534 37.3421 507.479 33.2692C508.05 32.94 508.754 33.1046 509.105 33.6394C509.457 34.1331 509.281 34.8325 508.71 35.1616C502.908 38.5763 501.106 45.7348 504.754 51.2064C506.512 53.8394 509.281 55.6908 512.49 56.3902C515.699 57.0895 519.083 56.5959 521.896 54.9502C522.468 54.6211 523.171 54.7857 523.523 55.3205C523.874 55.8553 523.698 56.5136 523.127 56.8427C520.797 58.2003 518.072 58.8997 515.347 58.8997Z" fill="white"/>
<path fill-rule="evenodd" clip-rule="evenodd" d="M507.63 33.5286C500.826 37.5194 498.775 45.8439 502.982 52.1927C505.002 55.25 508.274 57.4289 512.026 58.2362L512.028 58.2367C513.105 58.4786 514.226 58.5997 515.347 58.5997C518.022 58.5997 520.695 57.9129 522.976 56.5835L522.977 56.5827C523.411 56.333 523.521 55.8648 523.272 55.4853C523.01 55.087 522.484 54.9584 522.047 55.2097C519.166 56.8945 515.705 57.3979 512.426 56.6833C509.145 55.9681 506.308 54.0736 504.504 51.373C500.755 45.7494 502.616 38.3998 508.558 34.9031L508.56 34.9017C508.997 34.6497 509.097 34.1453 508.861 33.8135L508.858 33.8089L508.855 33.8042C508.593 33.4059 508.067 33.2774 507.63 33.5286ZM509.353 33.47C508.911 32.8027 508.033 32.6039 507.329 33.0092L507.327 33.0104C500.242 37.1657 498.074 45.8727 502.482 52.5241C504.593 55.7195 508.003 57.9839 511.898 58.8225C513.019 59.0741 514.183 59.1997 515.347 59.1997C518.122 59.1997 520.899 58.4879 523.277 57.1023C523.986 56.6936 524.227 55.8456 523.773 55.1557C523.332 54.4847 522.452 54.284 521.746 54.6903L521.745 54.6913C518.999 56.2973 515.692 56.7811 512.554 56.097C509.418 55.4134 506.717 53.6054 505.004 51.04C501.457 45.7206 503.199 38.7537 508.861 35.4208C509.564 35.0151 509.815 34.1248 509.353 33.47Z" fill="white"/>
<path d="M526.269 54.7284C526.949 54.7284 527.5 54.2127 527.5 53.5765C527.5 52.9403 526.949 52.4245 526.269 52.4245C525.589 52.4245 525.038 52.9403 525.038 53.5765C525.038 54.2127 525.589 54.7284 526.269 54.7284Z" fill="white"/>
<path fill-rule="evenodd" clip-rule="evenodd" d="M526.269 52.7245C525.736 52.7245 525.338 53.1243 525.338 53.5765C525.338 54.0286 525.736 54.4284 526.269 54.4284C526.802 54.4284 527.2 54.0286 527.2 53.5765C527.2 53.1243 526.802 52.7245 526.269 52.7245ZM524.738 53.5765C524.738 52.7562 525.442 52.1245 526.269 52.1245C527.095 52.1245 527.8 52.7562 527.8 53.5765C527.8 54.3967 527.095 55.0284 526.269 55.0284C525.442 55.0284 524.738 54.3967 524.738 53.5765Z" fill="white"/>
<rect x="31" y="354" width="88" height="88" rx="16" fill="#E8F7E8"/>
<path fill-rule="evenodd" clip-rule="evenodd" d="M86.05 424.545L85.9252 376.561C85.602 376.238 84.9716 376.335 84.7252 376.407L83.0836 376.916C82.881 376.249 82.618 375.602 82.298 374.983C81.1332 372.759 79.4308 371.583 77.37 371.58H77.3636C77.226 371.58 77.09 371.593 76.9524 371.604L76.9364 371.606C76.8768 371.532 76.8149 371.461 76.7508 371.391C75.8548 370.431 74.7028 369.962 73.3236 370.002C70.6644 370.079 68.0164 372.002 65.8676 375.418C64.3556 377.823 63.2084 380.842 62.8804 383.18L57.6436 384.804C56.1028 385.289 56.0548 385.337 55.8516 386.791C55.6996 387.892 51.666 419.122 51.666 419.122L85.4708 424.975L86.05 424.543V424.545ZM74.9748 372.196C74.5252 371.9 73.9988 371.762 73.3748 371.775C69.2692 371.894 65.6884 378.314 64.7748 382.593L68.7076 381.374L69.41 381.156C69.9252 378.439 71.218 375.62 72.9092 373.806C73.5005 373.155 74.1986 372.611 74.9732 372.196H74.9748ZM71.354 380.553L76.9988 378.802C77.0164 377.33 76.8564 375.154 76.1204 373.618C75.3364 373.942 74.6772 374.508 74.2036 375.015C72.9348 376.38 71.8996 378.462 71.3556 380.553H71.354ZM78.7668 378.255L81.3908 377.441C80.9716 376.078 79.9764 373.793 77.9588 373.409C78.586 375.03 78.7476 376.906 78.7668 378.255Z" fill="#95BF47"/>
<path d="M93.6243 380.13C93.4227 380.114 89.5155 380.053 89.5155 380.053C89.5155 380.053 86.2467 376.876 85.9235 376.551C85.7984 376.435 85.6398 376.362 85.4707 376.343V424.967L100.119 421.32C100.119 421.32 94.1411 380.855 94.1027 380.578C94.0842 380.46 94.0269 380.352 93.9399 380.271C93.8529 380.19 93.7413 380.14 93.6227 380.13H93.6243Z" fill="#5E8E3E"/>
<path d="M77.3538 387.681L75.6514 394.055C75.6514 394.055 73.7538 393.19 71.5026 393.332C68.2034 393.54 68.1682 395.625 68.2018 396.148C68.381 398.996 75.8706 399.62 76.2914 406.297C76.6226 411.55 73.509 415.145 69.0226 415.427C63.6386 415.767 60.6738 412.587 60.6738 412.587L61.8146 407.726C61.8146 407.726 64.7986 409.98 67.1858 409.828C68.7474 409.731 69.3042 408.46 69.2482 407.561C69.013 403.844 62.9138 404.062 62.5282 397.953C62.205 392.809 65.5762 387.601 73.0178 387.131C75.885 386.948 77.3538 387.683 77.3538 387.683" fill="white"/>
<rect x="492" y="264" width="56" height="56" rx="16" fill="#E8F7E8"/>
<path d="M526 286H524C524 283.79 522.21 282 520 282C517.79 282 516 283.79 516 286H514C512.9 286 512 286.9 512 288V300C512 301.1 512.9 302 514 302H526C527.1 302 528 301.1 528 300V288C528 286.9 527.1 286 526 286ZM520 284C521.1 284 522 284.9 522 286H518C518 284.9 518.9 284 520 284ZM526 300H514V288H516V290C516 290.55 516.45 291 517 291C517.55 291 518 290.55 518 290V288H522V290C522 290.55 522.45 291 523 291C523.55 291 524 290.55 524 290V288H526V300Z" fill="#307368"/>
<g filter="url(#filter0_d_9118_1399)">
<rect x="194.5" y="163" width="228" height="68" rx="16" fill="#E8F7E8" shape-rendering="crispEdges"/>
<path d="M232.385 186.636V207H228.696V186.636H232.385ZM239.82 198.051V207H236.221V191.727H239.661V194.322H239.84C240.191 193.467 240.751 192.788 241.52 192.284C242.296 191.78 243.254 191.528 244.394 191.528C245.448 191.528 246.366 191.754 247.148 192.205C247.937 192.655 248.547 193.308 248.978 194.163C249.415 195.018 249.631 196.056 249.624 197.276V207H246.025V197.832C246.025 196.812 245.759 196.013 245.229 195.436C244.705 194.859 243.98 194.571 243.051 194.571C242.422 194.571 241.862 194.71 241.371 194.989C240.887 195.26 240.506 195.655 240.228 196.172C239.956 196.689 239.82 197.315 239.82 198.051ZM260.909 191.727V194.511H252.13V191.727H260.909ZM254.297 188.068H257.897V202.406C257.897 202.89 257.97 203.261 258.115 203.52C258.268 203.772 258.467 203.944 258.712 204.037C258.957 204.13 259.229 204.176 259.527 204.176C259.753 204.176 259.958 204.16 260.144 204.126C260.336 204.093 260.482 204.063 260.581 204.037L261.188 206.851C260.996 206.917 260.721 206.99 260.363 207.07C260.011 207.149 259.58 207.196 259.07 207.209C258.168 207.235 257.356 207.099 256.634 206.801C255.911 206.496 255.338 206.026 254.914 205.389C254.496 204.753 254.291 203.957 254.297 203.003V188.068ZM270.517 207.298C268.986 207.298 267.663 206.98 266.55 206.344C265.443 205.701 264.591 204.793 263.994 203.619C263.398 202.439 263.099 201.051 263.099 199.453C263.099 197.882 263.398 196.503 263.994 195.317C264.598 194.124 265.439 193.196 266.52 192.533C267.6 191.863 268.87 191.528 270.328 191.528C271.269 191.528 272.158 191.681 272.993 191.986C273.835 192.284 274.577 192.748 275.22 193.378C275.87 194.008 276.38 194.81 276.751 195.784C277.123 196.752 277.308 197.905 277.308 199.244V200.348H264.79V197.922H273.858C273.851 197.232 273.702 196.619 273.411 196.082C273.119 195.539 272.711 195.111 272.188 194.8C271.67 194.488 271.067 194.332 270.378 194.332C269.642 194.332 268.996 194.511 268.439 194.869C267.882 195.221 267.448 195.685 267.136 196.261C266.831 196.831 266.676 197.458 266.669 198.141V200.259C266.669 201.147 266.831 201.909 267.156 202.545C267.481 203.175 267.935 203.659 268.518 203.997C269.102 204.329 269.785 204.494 270.567 204.494C271.09 204.494 271.564 204.421 271.989 204.276C272.413 204.123 272.781 203.901 273.092 203.609C273.404 203.318 273.639 202.956 273.798 202.526L277.159 202.903C276.947 203.792 276.543 204.567 275.946 205.23C275.356 205.886 274.6 206.397 273.679 206.761C272.758 207.119 271.704 207.298 270.517 207.298ZM286.995 213.045C285.703 213.045 284.592 212.87 283.664 212.518C282.736 212.174 281.991 211.71 281.427 211.126C280.864 210.543 280.473 209.897 280.254 209.188L283.495 208.402C283.641 208.7 283.853 208.995 284.132 209.287C284.41 209.585 284.785 209.83 285.255 210.023C285.733 210.222 286.333 210.321 287.055 210.321C288.076 210.321 288.921 210.072 289.591 209.575C290.26 209.085 290.595 208.276 290.595 207.149V204.256H290.416C290.23 204.627 289.958 205.008 289.6 205.399C289.249 205.79 288.782 206.118 288.199 206.384C287.622 206.649 286.896 206.781 286.021 206.781C284.848 206.781 283.784 206.506 282.829 205.956C281.881 205.399 281.126 204.571 280.562 203.47C280.005 202.363 279.727 200.978 279.727 199.314C279.727 197.637 280.005 196.222 280.562 195.068C281.126 193.908 281.885 193.03 282.839 192.433C283.794 191.83 284.858 191.528 286.031 191.528C286.926 191.528 287.662 191.681 288.238 191.986C288.822 192.284 289.286 192.645 289.63 193.07C289.975 193.487 290.237 193.882 290.416 194.253H290.615V191.727H294.164V207.249C294.164 208.554 293.853 209.635 293.23 210.49C292.607 211.345 291.755 211.985 290.674 212.409C289.594 212.833 288.368 213.045 286.995 213.045ZM287.025 203.957C287.788 203.957 288.437 203.772 288.974 203.401C289.511 203.029 289.919 202.496 290.197 201.8C290.475 201.104 290.615 200.268 290.615 199.294C290.615 198.333 290.475 197.491 290.197 196.768C289.925 196.046 289.521 195.486 288.984 195.088C288.454 194.684 287.801 194.482 287.025 194.482C286.223 194.482 285.554 194.69 285.017 195.108C284.48 195.526 284.075 196.099 283.804 196.828C283.532 197.551 283.396 198.373 283.396 199.294C283.396 200.229 283.532 201.047 283.804 201.75C284.082 202.446 284.49 202.99 285.027 203.381C285.57 203.765 286.236 203.957 287.025 203.957ZM297.853 207V191.727H301.343V194.273H301.502C301.781 193.391 302.258 192.712 302.934 192.234C303.617 191.75 304.396 191.509 305.271 191.509C305.47 191.509 305.692 191.518 305.937 191.538C306.189 191.552 306.398 191.575 306.564 191.608V194.919C306.411 194.866 306.169 194.82 305.838 194.78C305.513 194.733 305.198 194.71 304.893 194.71C304.237 194.71 303.647 194.853 303.123 195.138C302.606 195.416 302.199 195.804 301.9 196.301C301.602 196.798 301.453 197.372 301.453 198.021V207H297.853ZM313.076 207.308C312.109 207.308 311.237 207.136 310.461 206.791C309.692 206.44 309.083 205.923 308.632 205.24C308.188 204.557 307.966 203.715 307.966 202.714C307.966 201.853 308.125 201.14 308.443 200.577C308.761 200.013 309.195 199.562 309.745 199.224C310.296 198.886 310.915 198.631 311.605 198.459C312.301 198.28 313.02 198.151 313.762 198.071C314.657 197.978 315.383 197.895 315.94 197.822C316.497 197.743 316.901 197.624 317.153 197.464C317.412 197.299 317.541 197.044 317.541 196.699V196.639C317.541 195.89 317.319 195.31 316.875 194.899C316.431 194.488 315.791 194.283 314.956 194.283C314.074 194.283 313.375 194.475 312.858 194.859C312.347 195.244 312.002 195.698 311.824 196.222L308.463 195.744C308.728 194.816 309.165 194.041 309.775 193.418C310.385 192.788 311.131 192.317 312.012 192.006C312.894 191.688 313.868 191.528 314.936 191.528C315.672 191.528 316.404 191.615 317.133 191.787C317.862 191.959 318.529 192.244 319.132 192.642C319.735 193.033 320.219 193.567 320.583 194.243C320.955 194.919 321.14 195.764 321.14 196.778V207H317.68V204.902H317.561C317.342 205.326 317.034 205.724 316.636 206.095C316.245 206.46 315.751 206.755 315.154 206.98C314.565 207.199 313.872 207.308 313.076 207.308ZM314.011 204.663C314.734 204.663 315.36 204.521 315.89 204.236C316.421 203.944 316.828 203.56 317.113 203.082C317.405 202.605 317.551 202.085 317.551 201.521V199.722C317.438 199.814 317.246 199.901 316.974 199.98C316.709 200.06 316.411 200.129 316.079 200.189C315.748 200.249 315.42 200.302 315.095 200.348C314.77 200.394 314.488 200.434 314.25 200.467C313.713 200.54 313.232 200.66 312.808 200.825C312.384 200.991 312.049 201.223 311.804 201.521C311.558 201.813 311.436 202.191 311.436 202.655C311.436 203.318 311.678 203.818 312.162 204.156C312.645 204.494 313.262 204.663 314.011 204.663ZM332.386 191.727V194.511H323.606V191.727H332.386ZM325.774 188.068H329.373V202.406C329.373 202.89 329.446 203.261 329.592 203.52C329.744 203.772 329.943 203.944 330.189 204.037C330.434 204.13 330.706 204.176 331.004 204.176C331.229 204.176 331.435 204.16 331.62 204.126C331.813 204.093 331.958 204.063 332.058 204.037L332.664 206.851C332.472 206.917 332.197 206.99 331.839 207.07C331.488 207.149 331.057 207.196 330.547 207.209C329.645 207.235 328.833 207.099 328.11 206.801C327.388 206.496 326.815 206.026 326.39 205.389C325.973 204.753 325.767 203.957 325.774 203.003V188.068ZM335.396 207V191.727H338.996V207H335.396ZM337.206 189.56C336.636 189.56 336.145 189.371 335.734 188.993C335.323 188.608 335.118 188.148 335.118 187.611C335.118 187.067 335.323 186.607 335.734 186.229C336.145 185.844 336.636 185.652 337.206 185.652C337.783 185.652 338.273 185.844 338.678 186.229C339.089 186.607 339.294 187.067 339.294 187.611C339.294 188.148 339.089 188.608 338.678 188.993C338.273 189.371 337.783 189.56 337.206 189.56ZM349.359 207.298C347.868 207.298 346.575 206.97 345.481 206.314C344.387 205.658 343.539 204.74 342.936 203.56C342.339 202.38 342.041 201.001 342.041 199.423C342.041 197.846 342.339 196.464 342.936 195.277C343.539 194.09 344.387 193.169 345.481 192.513C346.575 191.857 347.868 191.528 349.359 191.528C350.85 191.528 352.143 191.857 353.237 192.513C354.331 193.169 355.176 194.09 355.772 195.277C356.376 196.464 356.677 197.846 356.677 199.423C356.677 201.001 356.376 202.38 355.772 203.56C355.176 204.74 354.331 205.658 353.237 206.314C352.143 206.97 350.85 207.298 349.359 207.298ZM349.379 204.415C350.188 204.415 350.864 204.193 351.407 203.749C351.951 203.298 352.355 202.695 352.62 201.939C352.892 201.183 353.028 200.341 353.028 199.413C353.028 198.479 352.892 197.634 352.62 196.878C352.355 196.116 351.951 195.509 351.407 195.058C350.864 194.607 350.188 194.382 349.379 194.382C348.55 194.382 347.861 194.607 347.311 195.058C346.767 195.509 346.359 196.116 346.088 196.878C345.823 197.634 345.69 198.479 345.69 199.413C345.69 200.341 345.823 201.183 346.088 201.939C346.359 202.695 346.767 203.298 347.311 203.749C347.861 204.193 348.55 204.415 349.379 204.415ZM363.332 198.051V207H359.732V191.727H363.173V194.322H363.352C363.703 193.467 364.263 192.788 365.032 192.284C365.808 191.78 366.765 191.528 367.906 191.528C368.96 191.528 369.878 191.754 370.66 192.205C371.449 192.655 372.058 193.308 372.489 194.163C372.927 195.018 373.142 196.056 373.136 197.276V207H369.536V197.832C369.536 196.812 369.271 196.013 368.741 195.436C368.217 194.859 367.491 194.571 366.563 194.571C365.933 194.571 365.373 194.71 364.883 194.989C364.399 195.26 364.018 195.655 363.739 196.172C363.468 196.689 363.332 197.315 363.332 198.051ZM388.866 195.764L385.585 196.122C385.492 195.791 385.329 195.479 385.097 195.188C384.872 194.896 384.567 194.661 384.183 194.482C383.798 194.303 383.327 194.213 382.771 194.213C382.022 194.213 381.392 194.375 380.881 194.7C380.378 195.025 380.129 195.446 380.136 195.963C380.129 196.407 380.291 196.768 380.623 197.047C380.961 197.325 381.518 197.554 382.293 197.733L384.898 198.29C386.344 198.601 387.417 199.095 388.12 199.771C388.829 200.447 389.187 201.332 389.194 202.426C389.187 203.387 388.906 204.236 388.349 204.972C387.799 205.701 387.033 206.271 386.052 206.682C385.071 207.093 383.944 207.298 382.671 207.298C380.802 207.298 379.297 206.907 378.157 206.125C377.017 205.336 376.337 204.239 376.119 202.834L379.629 202.496C379.788 203.185 380.126 203.705 380.643 204.057C381.16 204.408 381.833 204.584 382.661 204.584C383.516 204.584 384.202 204.408 384.719 204.057C385.243 203.705 385.505 203.271 385.505 202.754C385.505 202.317 385.336 201.955 384.998 201.67C384.666 201.385 384.149 201.167 383.447 201.014L380.842 200.467C379.377 200.162 378.293 199.649 377.59 198.926C376.888 198.197 376.54 197.276 376.546 196.162C376.54 195.221 376.795 194.405 377.312 193.716C377.835 193.02 378.561 192.483 379.489 192.105C380.424 191.721 381.501 191.528 382.721 191.528C384.511 191.528 385.919 191.91 386.947 192.672C387.981 193.434 388.621 194.465 388.866 195.764Z" fill="#307368"/>
</g>
<path d="M425.75 196.251C425.336 196.251 425 196.586 425 197.001C425 197.415 425.336 197.751 425.75 197.751V196.251ZM519.302 80.6152C519.009 80.3223 518.534 80.3223 518.241 80.6152L513.468 85.3881C513.176 85.681 513.176 86.1559 513.468 86.4488C513.761 86.7417 514.236 86.7417 514.529 86.4488L518.772 82.2062L523.014 86.4488C523.307 86.7417 523.782 86.7417 524.075 86.4488C524.368 86.1559 524.368 85.681 524.075 85.3881L519.302 80.6152ZM425.75 197.751H494.772V196.251H425.75V197.751ZM519.522 173.001V81.1455H518.022V173.001H519.522ZM494.772 197.751C508.441 197.751 519.522 186.67 519.522 173.001H518.022C518.022 185.841 507.612 196.251 494.772 196.251V197.751Z" fill="#8F9396"/>
<path d="M191.25 197.75C191.664 197.75 192 197.414 192 197C192 196.586 191.664 196.25 191.25 196.25V197.75ZM74.4697 351.28C74.7626 351.573 75.2374 351.573 75.5303 351.28L80.3033 346.507C80.5962 346.214 80.5962 345.74 80.3033 345.447C80.0104 345.154 79.5355 345.154 79.2426 345.447L75 349.689L70.7574 345.447C70.4645 345.154 69.9896 345.154 69.6967 345.447C69.4038 345.74 69.4038 346.214 69.6967 346.507L74.4697 351.28ZM191.25 196.25H99V197.75H191.25V196.25ZM74.25 221V350.75H75.75V221H74.25ZM99 196.25C85.331 196.25 74.25 207.331 74.25 221H75.75C75.75 208.159 86.1594 197.75 99 197.75V196.25Z" fill="#8F9396"/>
<path d="M307.75 159.75C307.75 160.164 308.086 160.5 308.5 160.5C308.914 160.5 309.25 160.164 309.25 159.75H307.75ZM190.53 88.7197C190.237 88.4268 189.763 88.4268 189.47 88.7197L184.697 93.4926C184.404 93.7855 184.404 94.2604 184.697 94.5533C184.99 94.8462 185.464 94.8462 185.757 94.5533L190 90.3107L194.243 94.5533C194.536 94.8462 195.01 94.8462 195.303 94.5533C195.596 94.2604 195.596 93.7855 195.303 93.4926L190.53 88.7197ZM309.25 159.75V148.5H307.75V159.75H309.25ZM284.5 123.75H214V125.25H284.5V123.75ZM190.75 100.5V89.25H189.25V100.5H190.75ZM214 123.75C201.159 123.75 190.75 113.341 190.75 100.5H189.25C189.25 114.169 200.331 125.25 214 125.25V123.75ZM309.25 148.5C309.25 134.831 298.169 123.75 284.5 123.75V125.25C297.341 125.25 307.75 135.659 307.75 148.5H309.25Z" fill="#8F9396"/>
<path d="M309.25 234.25C309.25 233.836 308.914 233.5 308.5 233.5C308.086 233.5 307.75 233.836 307.75 234.25H309.25ZM426.47 348.28C426.763 348.573 427.237 348.573 427.53 348.28L432.303 343.507C432.596 343.214 432.596 342.74 432.303 342.447C432.01 342.154 431.536 342.154 431.243 342.447L427 346.689L422.757 342.447C422.464 342.154 421.99 342.154 421.697 342.447C421.404 342.74 421.404 343.214 421.697 343.507L426.47 348.28ZM307.75 234.25V267H309.25V234.25H307.75ZM332.5 291.75H403V290.25H332.5V291.75ZM426.25 315V347.75H427.75V315H426.25ZM403 291.75C415.841 291.75 426.25 302.159 426.25 315H427.75C427.75 301.331 416.669 290.25 403 290.25V291.75ZM307.75 267C307.75 280.669 318.831 291.75 332.5 291.75V290.25C319.659 290.25 309.25 279.841 309.25 267H307.75Z" fill="#8F9396"/>
<defs>
<filter id="filter0_d_9118_1399" x="186.5" y="159" width="244" height="84" filterUnits="userSpaceOnUse" color-interpolation-filters="sRGB">
<feFlood flood-opacity="0" result="BackgroundImageFix"/>
<feColorMatrix in="SourceAlpha" type="matrix" values="0 0 0 0 0 0 0 0 0 0 0 0 0 0 0 0 0 0 127 0" result="hardAlpha"/>
<feOffset dy="4"/>
<feGaussianBlur stdDeviation="4"/>
<feComposite in2="hardAlpha" operator="out"/>
<feColorMatrix type="matrix" values="0 0 0 0 0 0 0 0 0 0 0 0 0 0 0 0 0 0 0.2 0"/>
<feBlend mode="normal" in2="BackgroundImageFix" result="effect1_dropShadow_9118_1399"/>
<feBlend mode="normal" in="SourceGraphic" in2="effect1_dropShadow_9118_1399" result="shape"/>
</filter>
</defs>
</svg>
