<svg width="600" height="450" viewBox="0 0 600 450" fill="none" xmlns="http://www.w3.org/2000/svg">
<rect x="400" y="312" width="160" height="89" rx="8" fill="#F9EAE5"/>
<path d="M442.667 343.167H421.334C419.867 343.167 418.667 344.367 418.667 345.833V369.833L424 364.5H442.667C444.134 364.5 445.334 363.3 445.334 361.833V345.833C445.334 344.367 444.134 343.167 442.667 343.167ZM442.667 361.833H422.894L421.334 363.393V345.833H442.667V361.833ZM430.667 347.167H433.334V355.167H430.667V347.167ZM430.667 357.833H433.334V360.5H430.667V357.833Z" fill="#CC5229"/>
<path d="M465.119 347V336.818H471.433V338.141H466.655V341.243H470.98V342.56H466.655V347H465.119ZM475.397 347.169C474.913 347.169 474.476 347.08 474.085 346.901C473.694 346.718 473.384 346.455 473.155 346.11C472.93 345.765 472.817 345.343 472.817 344.842C472.817 344.411 472.9 344.057 473.066 343.778C473.231 343.5 473.455 343.28 473.737 343.117C474.019 342.955 474.333 342.832 474.681 342.749C475.029 342.666 475.384 342.603 475.745 342.56C476.203 342.507 476.574 342.464 476.859 342.431C477.144 342.395 477.351 342.337 477.48 342.257C477.61 342.178 477.674 342.048 477.674 341.869V341.835C477.674 341.4 477.552 341.064 477.306 340.825C477.065 340.587 476.703 340.467 476.223 340.467C475.722 340.467 475.328 340.578 475.039 340.8C474.754 341.019 474.557 341.263 474.448 341.531L473.051 341.213C473.217 340.749 473.458 340.375 473.777 340.089C474.098 339.801 474.468 339.592 474.885 339.463C475.303 339.33 475.742 339.264 476.203 339.264C476.508 339.264 476.831 339.301 477.172 339.374C477.517 339.443 477.838 339.572 478.137 339.761C478.438 339.95 478.685 340.22 478.877 340.572C479.07 340.92 479.166 341.372 479.166 341.929V347H477.714V345.956H477.654C477.558 346.148 477.414 346.337 477.222 346.523C477.03 346.708 476.783 346.862 476.481 346.985C476.18 347.108 475.818 347.169 475.397 347.169ZM475.721 345.976C476.132 345.976 476.483 345.895 476.775 345.732C477.069 345.57 477.293 345.358 477.446 345.096C477.601 344.831 477.679 344.547 477.679 344.246V343.261C477.626 343.314 477.524 343.364 477.371 343.411C477.222 343.454 477.051 343.492 476.859 343.525C476.667 343.555 476.48 343.583 476.297 343.609C476.115 343.633 475.962 343.652 475.84 343.669C475.551 343.705 475.288 343.767 475.049 343.853C474.814 343.939 474.625 344.063 474.483 344.226C474.343 344.385 474.274 344.597 474.274 344.862C474.274 345.23 474.41 345.509 474.681 345.697C474.953 345.883 475.3 345.976 475.721 345.976ZM481.146 347V339.364H482.632V347H481.146ZM481.896 338.185C481.638 338.185 481.416 338.099 481.23 337.927C481.048 337.751 480.957 337.542 480.957 337.3C480.957 337.055 481.048 336.846 481.23 336.674C481.416 336.498 481.638 336.411 481.896 336.411C482.155 336.411 482.375 336.498 482.558 336.674C482.743 336.846 482.836 337.055 482.836 337.3C482.836 337.542 482.743 337.751 482.558 337.927C482.375 338.099 482.155 338.185 481.896 338.185ZM486.119 336.818V347H484.632V336.818H486.119ZM491.41 347.154C490.657 347.154 490.009 346.993 489.466 346.672C488.925 346.347 488.508 345.891 488.213 345.305C487.921 344.715 487.775 344.024 487.775 343.232C487.775 342.449 487.921 341.76 488.213 341.163C488.508 340.567 488.919 340.101 489.446 339.766C489.976 339.432 490.596 339.264 491.305 339.264C491.736 339.264 492.154 339.335 492.558 339.478C492.962 339.621 493.325 339.844 493.647 340.149C493.968 340.454 494.222 340.85 494.407 341.337C494.593 341.821 494.686 342.41 494.686 343.102V343.629H488.616V342.516H493.229C493.229 342.125 493.15 341.778 492.991 341.477C492.831 341.172 492.608 340.931 492.319 340.756C492.034 340.58 491.7 340.492 491.315 340.492C490.898 340.492 490.533 340.595 490.221 340.8C489.913 341.003 489.675 341.268 489.506 341.596C489.34 341.921 489.257 342.274 489.257 342.655V343.525C489.257 344.035 489.346 344.469 489.525 344.827C489.708 345.185 489.961 345.459 490.286 345.648C490.611 345.833 490.99 345.926 491.425 345.926C491.706 345.926 491.963 345.886 492.195 345.807C492.427 345.724 492.628 345.601 492.797 345.439C492.966 345.277 493.095 345.076 493.184 344.837L494.591 345.091C494.479 345.505 494.277 345.868 493.985 346.18C493.697 346.488 493.334 346.728 492.896 346.901C492.462 347.07 491.966 347.154 491.41 347.154ZM499.194 347.149C498.577 347.149 498.027 346.992 497.543 346.677C497.063 346.359 496.685 345.906 496.41 345.32C496.138 344.73 496.002 344.022 496.002 343.197C496.002 342.371 496.14 341.665 496.415 341.079C496.693 340.492 497.074 340.043 497.558 339.732C498.042 339.42 498.591 339.264 499.204 339.264C499.678 339.264 500.059 339.344 500.347 339.503C500.639 339.659 500.864 339.841 501.023 340.05C501.186 340.259 501.312 340.442 501.401 340.602H501.491V336.818H502.977V347H501.526V345.812H501.401C501.312 345.974 501.183 346.16 501.013 346.369C500.848 346.577 500.619 346.76 500.327 346.915C500.036 347.071 499.658 347.149 499.194 347.149ZM499.522 345.881C499.95 345.881 500.311 345.769 500.606 345.543C500.904 345.315 501.129 344.998 501.282 344.594C501.438 344.189 501.516 343.719 501.516 343.182C501.516 342.652 501.439 342.187 501.287 341.79C501.134 341.392 500.911 341.082 500.616 340.86C500.321 340.638 499.956 340.527 499.522 340.527C499.075 340.527 498.702 340.643 498.403 340.875C498.105 341.107 497.88 341.424 497.727 341.825C497.578 342.226 497.504 342.678 497.504 343.182C497.504 343.692 497.58 344.151 497.732 344.559C497.885 344.967 498.11 345.29 498.408 345.528C498.71 345.764 499.081 345.881 499.522 345.881Z" fill="#CC5229"/>
<path d="M465.415 375V372.341L471.628 366.588C472.156 366.077 472.599 365.616 472.957 365.207C473.321 364.798 473.597 364.398 473.784 364.006C473.972 363.608 474.065 363.179 474.065 362.719C474.065 362.207 473.949 361.767 473.716 361.398C473.483 361.023 473.165 360.736 472.761 360.537C472.358 360.332 471.901 360.23 471.389 360.23C470.855 360.23 470.389 360.338 469.991 360.554C469.594 360.77 469.287 361.08 469.071 361.483C468.855 361.886 468.747 362.366 468.747 362.923H465.244C465.244 361.781 465.503 360.79 466.02 359.949C466.537 359.108 467.261 358.457 468.193 357.997C469.125 357.537 470.199 357.307 471.415 357.307C472.665 357.307 473.753 357.528 474.679 357.972C475.611 358.409 476.335 359.017 476.852 359.795C477.369 360.574 477.628 361.466 477.628 362.472C477.628 363.131 477.497 363.781 477.236 364.423C476.98 365.065 476.523 365.778 475.864 366.562C475.205 367.341 474.276 368.276 473.077 369.366L470.528 371.864V371.983H477.858V375H465.415ZM480.634 375V357.545H484.325V365.241H484.555L490.836 357.545H495.259L488.782 365.361L495.336 375H490.921L486.14 367.824L484.325 370.04V375H480.634Z" fill="#CC5229"/>
<rect x="40" y="312" width="160" height="89" rx="8" fill="#7B7F82" fill-opacity="0.1"/>
<path d="M67.7333 361.7L62.1333 356.1L60.2666 357.967L67.7333 365.433L83.7333 349.433L81.8666 347.567L67.7333 361.7Z" fill="#5D6164"/>
<path d="M104.616 338.141V336.818H112.496V338.141H109.32V347H107.788V338.141H104.616ZM116.228 347.154C115.512 347.154 114.887 346.99 114.353 346.662C113.82 346.334 113.405 345.875 113.11 345.285C112.815 344.695 112.668 344.005 112.668 343.217C112.668 342.424 112.815 341.732 113.11 341.138C113.405 340.545 113.82 340.085 114.353 339.756C114.887 339.428 115.512 339.264 116.228 339.264C116.944 339.264 117.568 339.428 118.102 339.756C118.636 340.085 119.05 340.545 119.345 341.138C119.64 341.732 119.787 342.424 119.787 343.217C119.787 344.005 119.64 344.695 119.345 345.285C119.05 345.875 118.636 346.334 118.102 346.662C117.568 346.99 116.944 347.154 116.228 347.154ZM116.233 345.906C116.697 345.906 117.081 345.784 117.386 345.538C117.691 345.293 117.916 344.967 118.062 344.559C118.211 344.151 118.286 343.702 118.286 343.212C118.286 342.724 118.211 342.277 118.062 341.869C117.916 341.458 117.691 341.129 117.386 340.88C117.081 340.631 116.697 340.507 116.233 340.507C115.765 340.507 115.377 340.631 115.069 340.88C114.764 341.129 114.537 341.458 114.388 341.869C114.242 342.277 114.169 342.724 114.169 343.212C114.169 343.702 114.242 344.151 114.388 344.559C114.537 344.967 114.764 345.293 115.069 345.538C115.377 345.784 115.765 345.906 116.233 345.906ZM125.011 339.364V340.557H120.84V339.364H125.011ZM121.959 337.534H123.445V344.758C123.445 345.046 123.488 345.263 123.574 345.409C123.661 345.552 123.772 345.649 123.907 345.702C124.047 345.752 124.198 345.777 124.36 345.777C124.479 345.777 124.584 345.769 124.673 345.752C124.763 345.736 124.832 345.722 124.882 345.712L125.15 346.94C125.064 346.973 124.942 347.007 124.782 347.04C124.623 347.076 124.425 347.096 124.186 347.099C123.795 347.106 123.43 347.036 123.092 346.891C122.754 346.745 122.481 346.519 122.272 346.214C122.063 345.91 121.959 345.527 121.959 345.066V337.534ZM128.878 347.169C128.394 347.169 127.956 347.08 127.565 346.901C127.174 346.718 126.864 346.455 126.636 346.11C126.41 345.765 126.298 345.343 126.298 344.842C126.298 344.411 126.38 344.057 126.546 343.778C126.712 343.5 126.936 343.28 127.217 343.117C127.499 342.955 127.814 342.832 128.162 342.749C128.51 342.666 128.865 342.603 129.226 342.56C129.683 342.507 130.054 342.464 130.339 342.431C130.625 342.395 130.832 342.337 130.961 342.257C131.09 342.178 131.155 342.048 131.155 341.869V341.835C131.155 341.4 131.032 341.064 130.787 340.825C130.545 340.587 130.184 340.467 129.703 340.467C129.203 340.467 128.808 340.578 128.52 340.8C128.235 341.019 128.038 341.263 127.928 341.531L126.531 341.213C126.697 340.749 126.939 340.375 127.257 340.089C127.579 339.801 127.948 339.592 128.366 339.463C128.783 339.33 129.223 339.264 129.683 339.264C129.988 339.264 130.311 339.301 130.653 339.374C130.997 339.443 131.319 339.572 131.617 339.761C131.919 339.95 132.166 340.22 132.358 340.572C132.55 340.92 132.646 341.372 132.646 341.929V347H131.195V345.956H131.135C131.039 346.148 130.895 346.337 130.702 346.523C130.51 346.708 130.263 346.862 129.962 346.985C129.66 347.108 129.299 347.169 128.878 347.169ZM129.201 345.976C129.612 345.976 129.963 345.895 130.255 345.732C130.55 345.57 130.774 345.358 130.926 345.096C131.082 344.831 131.16 344.547 131.16 344.246V343.261C131.107 343.314 131.004 343.364 130.852 343.411C130.702 343.454 130.532 343.492 130.339 343.525C130.147 343.555 129.96 343.583 129.778 343.609C129.595 343.633 129.443 343.652 129.32 343.669C129.032 343.705 128.768 343.767 128.53 343.853C128.295 343.939 128.106 344.063 127.963 344.226C127.824 344.385 127.754 344.597 127.754 344.862C127.754 345.23 127.89 345.509 128.162 345.697C128.434 345.883 128.78 345.976 129.201 345.976ZM136.113 336.818V347H134.626V336.818H136.113ZM147.49 339.493C147.437 339.022 147.218 338.658 146.834 338.399C146.45 338.137 145.966 338.006 145.382 338.006C144.965 338.006 144.603 338.073 144.298 338.205C143.994 338.335 143.757 338.513 143.588 338.742C143.422 338.968 143.339 339.224 143.339 339.513C143.339 339.755 143.395 339.964 143.508 340.139C143.624 340.315 143.775 340.462 143.96 340.582C144.149 340.698 144.352 340.795 144.567 340.875C144.782 340.951 144.99 341.014 145.188 341.064L146.183 341.322C146.508 341.402 146.841 341.51 147.182 341.646C147.523 341.781 147.84 341.96 148.132 342.183C148.423 342.405 148.659 342.68 148.838 343.008C149.02 343.336 149.111 343.729 149.111 344.186C149.111 344.763 148.962 345.275 148.664 345.722C148.369 346.17 147.939 346.523 147.376 346.781C146.816 347.04 146.138 347.169 145.343 347.169C144.58 347.169 143.921 347.048 143.364 346.806C142.807 346.564 142.371 346.221 142.056 345.777C141.741 345.33 141.567 344.799 141.534 344.186H143.075C143.105 344.554 143.225 344.861 143.433 345.106C143.646 345.348 143.916 345.528 144.244 345.648C144.575 345.764 144.938 345.822 145.333 345.822C145.767 345.822 146.153 345.754 146.491 345.618C146.832 345.479 147.101 345.286 147.296 345.041C147.492 344.793 147.59 344.503 147.59 344.171C147.59 343.87 147.503 343.623 147.331 343.43C147.162 343.238 146.932 343.079 146.64 342.953C146.352 342.827 146.025 342.716 145.661 342.62L144.458 342.292C143.642 342.07 142.996 341.743 142.519 341.312C142.045 340.882 141.808 340.312 141.808 339.602C141.808 339.016 141.967 338.504 142.285 338.066C142.603 337.629 143.034 337.289 143.578 337.047C144.121 336.802 144.734 336.679 145.417 336.679C146.106 336.679 146.715 336.8 147.242 337.042C147.772 337.284 148.19 337.617 148.494 338.041C148.799 338.462 148.959 338.946 148.972 339.493H147.49ZM154.119 347.154C153.366 347.154 152.718 346.993 152.175 346.672C151.634 346.347 151.217 345.891 150.922 345.305C150.63 344.715 150.484 344.024 150.484 343.232C150.484 342.449 150.63 341.76 150.922 341.163C151.217 340.567 151.628 340.101 152.155 339.766C152.685 339.432 153.305 339.264 154.014 339.264C154.445 339.264 154.863 339.335 155.267 339.478C155.671 339.621 156.034 339.844 156.356 340.149C156.677 340.454 156.931 340.85 157.116 341.337C157.302 341.821 157.395 342.41 157.395 343.102V343.629H151.325V342.516H155.938C155.938 342.125 155.859 341.778 155.7 341.477C155.54 341.172 155.317 340.931 155.028 340.756C154.743 340.58 154.409 340.492 154.024 340.492C153.607 340.492 153.242 340.595 152.93 340.8C152.622 341.003 152.384 341.268 152.214 341.596C152.049 341.921 151.966 342.274 151.966 342.655V343.525C151.966 344.035 152.055 344.469 152.234 344.827C152.417 345.185 152.67 345.459 152.995 345.648C153.32 345.833 153.699 345.926 154.134 345.926C154.415 345.926 154.672 345.886 154.904 345.807C155.136 345.724 155.337 345.601 155.506 345.439C155.675 345.277 155.804 345.076 155.893 344.837L157.3 345.091C157.188 345.505 156.986 345.868 156.694 346.18C156.406 346.488 156.043 346.728 155.605 346.901C155.171 347.07 154.675 347.154 154.119 347.154ZM160.531 342.466V347H159.044V339.364H160.471V340.607H160.566C160.741 340.202 161.016 339.877 161.391 339.632C161.769 339.387 162.244 339.264 162.818 339.264C163.338 339.264 163.794 339.374 164.185 339.592C164.576 339.808 164.879 340.129 165.095 340.557C165.31 340.984 165.418 341.513 165.418 342.143V347H163.931V342.322C163.931 341.768 163.787 341.336 163.499 341.024C163.21 340.709 162.814 340.552 162.311 340.552C161.966 340.552 161.659 340.626 161.391 340.776C161.126 340.925 160.915 341.143 160.759 341.432C160.607 341.717 160.531 342.062 160.531 342.466ZM170.976 339.364V340.557H166.805V339.364H170.976ZM167.923 337.534H169.41V344.758C169.41 345.046 169.453 345.263 169.539 345.409C169.625 345.552 169.736 345.649 169.872 345.702C170.012 345.752 170.162 345.777 170.325 345.777C170.444 345.777 170.548 345.769 170.638 345.752C170.727 345.736 170.797 345.722 170.847 345.712L171.115 346.94C171.029 346.973 170.906 347.007 170.747 347.04C170.588 347.076 170.389 347.096 170.151 347.099C169.76 347.106 169.395 347.036 169.057 346.891C168.719 346.745 168.445 346.519 168.237 346.214C168.028 345.91 167.923 345.527 167.923 345.066V337.534Z" fill="#3F4346"/>
<path d="M111.79 375.239C110.585 375.239 109.511 375.017 108.568 374.574C107.631 374.131 106.886 373.52 106.335 372.741C105.784 371.963 105.497 371.071 105.474 370.065H109.054C109.094 370.741 109.378 371.29 109.906 371.71C110.435 372.131 111.062 372.341 111.79 372.341C112.369 372.341 112.881 372.213 113.324 371.957C113.773 371.696 114.122 371.335 114.372 370.875C114.628 370.409 114.756 369.875 114.756 369.273C114.756 368.659 114.625 368.119 114.364 367.653C114.108 367.187 113.753 366.824 113.298 366.562C112.844 366.301 112.324 366.168 111.739 366.162C111.227 366.162 110.73 366.267 110.247 366.477C109.77 366.687 109.398 366.974 109.131 367.338L105.849 366.75L106.676 357.545H117.347V360.562H109.719L109.267 364.935H109.369C109.676 364.503 110.139 364.145 110.759 363.861C111.378 363.577 112.071 363.435 112.838 363.435C113.889 363.435 114.827 363.682 115.651 364.176C116.474 364.67 117.125 365.349 117.602 366.213C118.08 367.071 118.315 368.06 118.31 369.179C118.315 370.355 118.043 371.401 117.491 372.315C116.946 373.224 116.182 373.94 115.199 374.463C114.222 374.98 113.085 375.239 111.79 375.239ZM127.727 375.384C126.261 375.378 125 375.017 123.943 374.301C122.892 373.585 122.082 372.548 121.514 371.19C120.952 369.832 120.673 368.199 120.679 366.29C120.679 364.386 120.96 362.764 121.523 361.423C122.091 360.082 122.901 359.062 123.952 358.364C125.009 357.659 126.267 357.307 127.727 357.307C129.188 357.307 130.443 357.659 131.494 358.364C132.551 359.068 133.364 360.091 133.932 361.432C134.5 362.767 134.781 364.386 134.776 366.29C134.776 368.205 134.491 369.841 133.923 371.199C133.361 372.557 132.554 373.594 131.503 374.31C130.452 375.026 129.193 375.384 127.727 375.384ZM127.727 372.324C128.727 372.324 129.526 371.821 130.122 370.815C130.719 369.81 131.014 368.301 131.009 366.29C131.009 364.966 130.872 363.864 130.599 362.983C130.332 362.102 129.952 361.44 129.457 360.997C128.969 360.554 128.392 360.332 127.727 360.332C126.733 360.332 125.938 360.83 125.341 361.824C124.744 362.818 124.443 364.307 124.438 366.29C124.438 367.631 124.571 368.75 124.838 369.648C125.111 370.54 125.494 371.21 125.989 371.659C126.483 372.102 127.062 372.324 127.727 372.324ZM144.251 375.384C142.785 375.378 141.523 375.017 140.467 374.301C139.415 373.585 138.606 372.548 138.038 371.19C137.475 369.832 137.197 368.199 137.202 366.29C137.202 364.386 137.484 362.764 138.046 361.423C138.614 360.082 139.424 359.062 140.475 358.364C141.532 357.659 142.79 357.307 144.251 357.307C145.711 357.307 146.967 357.659 148.018 358.364C149.075 359.068 149.887 360.091 150.455 361.432C151.023 362.767 151.305 364.386 151.299 366.29C151.299 368.205 151.015 369.841 150.447 371.199C149.884 372.557 149.077 373.594 148.026 374.31C146.975 375.026 145.717 375.384 144.251 375.384ZM144.251 372.324C145.251 372.324 146.049 371.821 146.646 370.815C147.242 369.81 147.538 368.301 147.532 366.29C147.532 364.966 147.396 363.864 147.123 362.983C146.856 362.102 146.475 361.44 145.981 360.997C145.492 360.554 144.915 360.332 144.251 360.332C143.256 360.332 142.461 360.83 141.864 361.824C141.268 362.818 140.967 364.307 140.961 366.29C140.961 367.631 141.094 368.75 141.362 369.648C141.634 370.54 142.018 371.21 142.512 371.659C143.006 372.102 143.586 372.324 144.251 372.324ZM154.033 375V357.545H157.723V365.241H157.953L164.234 357.545H168.658L162.18 365.361L168.734 375H164.32L159.538 367.824L157.723 370.04V375H154.033Z" fill="#3F4346"/>
<rect x="220" y="312" width="160" height="89" rx="8" fill="#E8F7E8"/>
<path d="M259.953 349.44L258.073 347.56L249.62 356.013L251.5 357.893L259.953 349.44ZM265.607 347.56L251.5 361.667L245.927 356.107L244.047 357.987L251.5 365.44L267.5 349.44L265.607 347.56ZM236.5 357.987L243.953 365.44L245.833 363.56L238.393 356.107L236.5 357.987Z" fill="#29A653"/>
<path d="M288.415 347H285.119V336.818H288.519C289.517 336.818 290.374 337.022 291.089 337.43C291.805 337.834 292.354 338.416 292.735 339.175C293.12 339.93 293.312 340.837 293.312 341.894C293.312 342.955 293.118 343.866 292.73 344.629C292.346 345.391 291.789 345.978 291.06 346.388C290.33 346.796 289.449 347 288.415 347ZM286.655 345.658H288.33C289.106 345.658 289.75 345.512 290.264 345.22C290.778 344.925 291.162 344.499 291.418 343.942C291.673 343.382 291.8 342.7 291.8 341.894C291.8 341.095 291.673 340.418 291.418 339.861C291.166 339.304 290.79 338.881 290.289 338.593C289.789 338.305 289.167 338.161 288.425 338.161H286.655V345.658ZM298.394 347.154C297.642 347.154 296.994 346.993 296.45 346.672C295.91 346.347 295.492 345.891 295.197 345.305C294.906 344.715 294.76 344.024 294.76 343.232C294.76 342.449 294.906 341.76 295.197 341.163C295.492 340.567 295.903 340.101 296.43 339.766C296.961 339.432 297.58 339.264 298.29 339.264C298.72 339.264 299.138 339.335 299.542 339.478C299.947 339.621 300.31 339.844 300.631 340.149C300.953 340.454 301.206 340.85 301.392 341.337C301.577 341.821 301.67 342.41 301.67 343.102V343.629H295.6V342.516H300.214C300.214 342.125 300.134 341.778 299.975 341.477C299.816 341.172 299.592 340.931 299.304 340.756C299.019 340.58 298.684 340.492 298.3 340.492C297.882 340.492 297.517 340.595 297.206 340.8C296.898 341.003 296.659 341.268 296.49 341.596C296.324 341.921 296.241 342.274 296.241 342.655V343.525C296.241 344.035 296.331 344.469 296.51 344.827C296.692 345.185 296.946 345.459 297.27 345.648C297.595 345.833 297.975 345.926 298.409 345.926C298.691 345.926 298.948 345.886 299.18 345.807C299.412 345.724 299.612 345.601 299.781 345.439C299.95 345.277 300.079 345.076 300.169 344.837L301.576 345.091C301.463 345.505 301.261 345.868 300.969 346.18C300.681 346.488 300.318 346.728 299.881 346.901C299.446 347.07 298.951 347.154 298.394 347.154ZM304.806 336.818V347H303.32V336.818H304.806ZM306.806 347V339.364H308.292V347H306.806ZM307.557 338.185C307.298 338.185 307.076 338.099 306.89 337.927C306.708 337.751 306.617 337.542 306.617 337.3C306.617 337.055 306.708 336.846 306.89 336.674C307.076 336.498 307.298 336.411 307.557 336.411C307.815 336.411 308.036 336.498 308.218 336.674C308.403 336.846 308.496 337.055 308.496 337.3C308.496 337.542 308.403 337.751 308.218 337.927C308.036 338.099 307.815 338.185 307.557 338.185ZM316.825 339.364L314.056 347H312.465L309.691 339.364H311.287L313.221 345.24H313.3L315.229 339.364H316.825ZM321.253 347.154C320.501 347.154 319.853 346.993 319.309 346.672C318.769 346.347 318.352 345.891 318.057 345.305C317.765 344.715 317.619 344.024 317.619 343.232C317.619 342.449 317.765 341.76 318.057 341.163C318.352 340.567 318.763 340.101 319.29 339.766C319.82 339.432 320.44 339.264 321.149 339.264C321.58 339.264 321.997 339.335 322.402 339.478C322.806 339.621 323.169 339.844 323.491 340.149C323.812 340.454 324.066 340.85 324.251 341.337C324.437 341.821 324.53 342.41 324.53 343.102V343.629H318.459V342.516H323.073C323.073 342.125 322.993 341.778 322.834 341.477C322.675 341.172 322.452 340.931 322.163 340.756C321.878 340.58 321.543 340.492 321.159 340.492C320.741 340.492 320.377 340.595 320.065 340.8C319.757 341.003 319.518 341.268 319.349 341.596C319.184 341.921 319.101 342.274 319.101 342.655V343.525C319.101 344.035 319.19 344.469 319.369 344.827C319.551 345.185 319.805 345.459 320.13 345.648C320.455 345.833 320.834 345.926 321.268 345.926C321.55 345.926 321.807 345.886 322.039 345.807C322.271 345.724 322.471 345.601 322.64 345.439C322.809 345.277 322.939 345.076 323.028 344.837L324.435 345.091C324.323 345.505 324.12 345.868 323.829 346.18C323.54 346.488 323.177 346.728 322.74 346.901C322.306 347.07 321.81 347.154 321.253 347.154ZM326.179 347V339.364H327.616V340.577H327.695C327.835 340.166 328.08 339.843 328.431 339.607C328.786 339.369 329.187 339.249 329.634 339.249C329.727 339.249 329.836 339.253 329.962 339.259C330.092 339.266 330.193 339.274 330.266 339.284V340.706C330.206 340.689 330.1 340.671 329.947 340.651C329.795 340.628 329.643 340.616 329.49 340.616C329.139 340.616 328.826 340.691 328.55 340.84C328.279 340.986 328.063 341.19 327.904 341.452C327.745 341.71 327.665 342.005 327.665 342.337V347H326.179ZM334.57 347.154C333.817 347.154 333.169 346.993 332.626 346.672C332.086 346.347 331.668 345.891 331.373 345.305C331.081 344.715 330.936 344.024 330.936 343.232C330.936 342.449 331.081 341.76 331.373 341.163C331.668 340.567 332.079 340.101 332.606 339.766C333.136 339.432 333.756 339.264 334.465 339.264C334.896 339.264 335.314 339.335 335.718 339.478C336.123 339.621 336.485 339.844 336.807 340.149C337.128 340.454 337.382 340.85 337.568 341.337C337.753 341.821 337.846 342.41 337.846 343.102V343.629H331.776V342.516H336.389C336.389 342.125 336.31 341.778 336.151 341.477C335.992 341.172 335.768 340.931 335.48 340.756C335.195 340.58 334.86 340.492 334.475 340.492C334.058 340.492 333.693 340.595 333.382 340.8C333.073 341.003 332.835 341.268 332.666 341.596C332.5 341.921 332.417 342.274 332.417 342.655V343.525C332.417 344.035 332.507 344.469 332.686 344.827C332.868 345.185 333.121 345.459 333.446 345.648C333.771 345.833 334.151 345.926 334.585 345.926C334.866 345.926 335.123 345.886 335.355 345.807C335.587 345.724 335.788 345.601 335.957 345.439C336.126 345.277 336.255 345.076 336.345 344.837L337.752 345.091C337.639 345.505 337.437 345.868 337.145 346.18C336.857 346.488 336.494 346.728 336.056 346.901C335.622 347.07 335.127 347.154 334.57 347.154ZM342.354 347.149C341.738 347.149 341.187 346.992 340.703 346.677C340.223 346.359 339.845 345.906 339.57 345.32C339.298 344.73 339.162 344.022 339.162 343.197C339.162 342.371 339.3 341.665 339.575 341.079C339.853 340.492 340.234 340.043 340.718 339.732C341.202 339.42 341.751 339.264 342.364 339.264C342.838 339.264 343.219 339.344 343.507 339.503C343.799 339.659 344.025 339.841 344.184 340.05C344.346 340.259 344.472 340.442 344.561 340.602H344.651V336.818H346.137V347H344.686V345.812H344.561C344.472 345.974 344.343 346.16 344.174 346.369C344.008 346.577 343.779 346.76 343.488 346.915C343.196 347.071 342.818 347.149 342.354 347.149ZM342.682 345.881C343.11 345.881 343.471 345.769 343.766 345.543C344.064 345.315 344.29 344.998 344.442 344.594C344.598 344.189 344.676 343.719 344.676 343.182C344.676 342.652 344.6 342.187 344.447 341.79C344.295 341.392 344.071 341.082 343.776 340.86C343.481 340.638 343.116 340.527 342.682 340.527C342.235 340.527 341.862 340.643 341.564 340.875C341.265 341.107 341.04 341.424 340.887 341.825C340.738 342.226 340.664 342.678 340.664 343.182C340.664 343.692 340.74 344.151 340.892 344.559C341.045 344.967 341.27 345.29 341.569 345.528C341.87 345.764 342.241 345.881 342.682 345.881Z" fill="#29A653"/>
<path d="M285.151 371.932V369.026L292.438 357.545H294.943V361.568H293.46L288.866 368.838V368.974H299.222V371.932H285.151ZM293.528 375V371.045L293.597 369.759V357.545H297.057V375H293.528ZM307.996 357.307C308.893 357.307 309.757 357.457 310.587 357.759C311.422 358.06 312.166 358.54 312.82 359.199C313.479 359.858 313.999 360.733 314.379 361.824C314.766 362.909 314.962 364.241 314.967 365.821C314.967 367.304 314.8 368.628 314.464 369.793C314.135 370.952 313.661 371.938 313.041 372.75C312.422 373.562 311.675 374.182 310.8 374.608C309.925 375.028 308.947 375.239 307.868 375.239C306.703 375.239 305.675 375.014 304.783 374.565C303.891 374.111 303.172 373.494 302.626 372.716C302.087 371.932 301.76 371.051 301.646 370.074H305.286C305.428 370.71 305.726 371.205 306.18 371.557C306.635 371.903 307.197 372.077 307.868 372.077C309.004 372.077 309.868 371.582 310.459 370.594C311.05 369.599 311.348 368.239 311.354 366.511H311.234C310.973 367.023 310.621 367.463 310.178 367.832C309.734 368.196 309.226 368.477 308.652 368.676C308.084 368.875 307.479 368.974 306.837 368.974C305.808 368.974 304.891 368.733 304.084 368.25C303.277 367.767 302.641 367.102 302.175 366.256C301.709 365.409 301.476 364.443 301.476 363.358C301.47 362.188 301.74 361.145 302.286 360.23C302.831 359.315 303.592 358.599 304.57 358.082C305.553 357.56 306.695 357.301 307.996 357.307ZM308.021 360.205C307.447 360.205 306.936 360.341 306.487 360.614C306.044 360.886 305.692 361.253 305.43 361.713C305.175 362.173 305.05 362.687 305.055 363.256C305.055 363.83 305.18 364.347 305.43 364.807C305.686 365.261 306.033 365.625 306.47 365.898C306.913 366.165 307.419 366.298 307.987 366.298C308.413 366.298 308.808 366.219 309.172 366.06C309.536 365.901 309.851 365.682 310.118 365.403C310.391 365.119 310.604 364.793 310.757 364.423C310.911 364.054 310.987 363.662 310.987 363.247C310.982 362.696 310.851 362.19 310.595 361.73C310.339 361.27 309.987 360.901 309.538 360.622C309.089 360.344 308.584 360.205 308.021 360.205ZM324.036 375.239C322.723 375.239 321.555 375.026 320.533 374.599C319.516 374.168 318.717 373.58 318.138 372.835C317.558 372.091 317.268 371.247 317.268 370.304C317.268 369.577 317.433 368.909 317.763 368.301C318.098 367.688 318.553 367.179 319.126 366.776C319.7 366.366 320.342 366.105 321.053 365.991V365.872C320.121 365.685 319.365 365.233 318.786 364.517C318.206 363.795 317.916 362.957 317.916 362.003C317.916 361.099 318.18 360.295 318.709 359.591C319.237 358.881 319.962 358.324 320.882 357.92C321.808 357.511 322.859 357.307 324.036 357.307C325.212 357.307 326.26 357.511 327.18 357.92C328.107 358.33 328.834 358.889 329.362 359.599C329.891 360.304 330.158 361.105 330.163 362.003C330.158 362.963 329.862 363.801 329.277 364.517C328.692 365.233 327.942 365.685 327.027 365.872V365.991C327.726 366.105 328.359 366.366 328.928 366.776C329.501 367.179 329.956 367.688 330.291 368.301C330.632 368.909 330.805 369.577 330.811 370.304C330.805 371.247 330.513 372.091 329.933 372.835C329.354 373.58 328.553 374.168 327.53 374.599C326.513 375.026 325.348 375.239 324.036 375.239ZM324.036 372.528C324.621 372.528 325.132 372.423 325.57 372.213C326.007 371.997 326.348 371.702 326.592 371.327C326.842 370.946 326.967 370.509 326.967 370.014C326.967 369.509 326.839 369.062 326.584 368.676C326.328 368.284 325.982 367.977 325.544 367.756C325.107 367.528 324.604 367.415 324.036 367.415C323.473 367.415 322.97 367.528 322.527 367.756C322.084 367.977 321.734 368.284 321.479 368.676C321.229 369.062 321.104 369.509 321.104 370.014C321.104 370.509 321.226 370.946 321.47 371.327C321.714 371.702 322.058 371.997 322.501 372.213C322.945 372.423 323.456 372.528 324.036 372.528ZM324.036 364.73C324.524 364.73 324.959 364.631 325.339 364.432C325.72 364.233 326.018 363.957 326.234 363.605C326.45 363.253 326.558 362.847 326.558 362.386C326.558 361.932 326.45 361.534 326.234 361.193C326.018 360.847 325.723 360.577 325.348 360.384C324.973 360.185 324.536 360.085 324.036 360.085C323.541 360.085 323.104 360.185 322.723 360.384C322.342 360.577 322.044 360.847 321.828 361.193C321.618 361.534 321.513 361.932 321.513 362.386C321.513 362.847 321.621 363.253 321.837 363.605C322.053 363.957 322.351 364.233 322.732 364.432C323.112 364.631 323.547 364.73 324.036 364.73ZM336.715 371.233L336.724 366.878H337.252L341.445 361.909H345.613L339.979 368.489H339.119L336.715 371.233ZM333.425 375V357.545H337.056V375H333.425ZM341.607 375L337.755 369.298L340.175 366.733L345.86 375H341.607Z" fill="#29A653"/>
<path d="M41 76H56V125H41V76ZM69 55H83V125H69V55ZM97 95H111V125H97V95Z" fill="#DBEAF6"/>
<path d="M128.854 125V107.545H140.207V110.196H132.016V114.935H139.619V117.585H132.016V122.349H140.275V125H128.854ZM146.381 117.33V125H143.296V111.909H146.245V114.134H146.398C146.7 113.401 147.18 112.818 147.839 112.386C148.504 111.955 149.325 111.739 150.302 111.739C151.205 111.739 151.992 111.932 152.663 112.318C153.339 112.705 153.862 113.264 154.231 113.997C154.606 114.73 154.79 115.619 154.785 116.665V125H151.7V117.142C151.7 116.267 151.472 115.582 151.018 115.088C150.569 114.594 149.947 114.347 149.151 114.347C148.612 114.347 148.131 114.466 147.711 114.705C147.296 114.937 146.969 115.276 146.731 115.719C146.498 116.162 146.381 116.699 146.381 117.33ZM161.006 117.33V125H157.921V107.545H160.938V114.134H161.092C161.398 113.395 161.873 112.812 162.515 112.386C163.163 111.955 163.987 111.739 164.987 111.739C165.896 111.739 166.688 111.929 167.364 112.31C168.04 112.69 168.563 113.247 168.933 113.98C169.308 114.713 169.495 115.608 169.495 116.665V125H166.41V117.142C166.41 116.261 166.183 115.577 165.728 115.088C165.279 114.594 164.648 114.347 163.836 114.347C163.29 114.347 162.802 114.466 162.37 114.705C161.944 114.937 161.609 115.276 161.364 115.719C161.126 116.162 161.006 116.699 161.006 117.33ZM176.407 125.264C175.577 125.264 174.83 125.116 174.165 124.821C173.506 124.52 172.984 124.077 172.597 123.491C172.217 122.906 172.026 122.185 172.026 121.327C172.026 120.588 172.163 119.977 172.435 119.494C172.708 119.011 173.08 118.625 173.552 118.335C174.023 118.045 174.555 117.827 175.146 117.679C175.742 117.526 176.359 117.415 176.995 117.347C177.762 117.267 178.384 117.196 178.862 117.134C179.339 117.065 179.685 116.963 179.901 116.827C180.123 116.685 180.234 116.466 180.234 116.17V116.119C180.234 115.477 180.043 114.98 179.663 114.628C179.282 114.276 178.734 114.099 178.018 114.099C177.262 114.099 176.663 114.264 176.219 114.594C175.782 114.923 175.487 115.312 175.333 115.761L172.452 115.352C172.68 114.557 173.055 113.892 173.577 113.358C174.1 112.818 174.739 112.415 175.495 112.148C176.251 111.875 177.086 111.739 178.001 111.739C178.631 111.739 179.259 111.812 179.884 111.96C180.509 112.108 181.08 112.352 181.597 112.693C182.114 113.028 182.529 113.486 182.842 114.065C183.16 114.645 183.319 115.369 183.319 116.239V125H180.353V123.202H180.251C180.063 123.565 179.799 123.906 179.458 124.224C179.123 124.537 178.7 124.79 178.188 124.983C177.683 125.17 177.089 125.264 176.407 125.264ZM177.208 122.997C177.827 122.997 178.364 122.875 178.819 122.631C179.273 122.381 179.623 122.051 179.867 121.642C180.117 121.233 180.242 120.787 180.242 120.304V118.761C180.146 118.841 179.981 118.915 179.748 118.983C179.521 119.051 179.265 119.111 178.981 119.162C178.697 119.213 178.415 119.259 178.137 119.298C177.859 119.338 177.617 119.372 177.413 119.401C176.952 119.463 176.54 119.565 176.177 119.707C175.813 119.849 175.526 120.048 175.316 120.304C175.106 120.554 175.001 120.878 175.001 121.276C175.001 121.844 175.208 122.273 175.623 122.562C176.038 122.852 176.566 122.997 177.208 122.997ZM189.506 117.33V125H186.421V111.909H189.37V114.134H189.523C189.825 113.401 190.305 112.818 190.964 112.386C191.629 111.955 192.45 111.739 193.427 111.739C194.33 111.739 195.117 111.932 195.788 112.318C196.464 112.705 196.987 113.264 197.356 113.997C197.731 114.73 197.915 115.619 197.91 116.665V125H194.825V117.142C194.825 116.267 194.597 115.582 194.143 115.088C193.694 114.594 193.072 114.347 192.276 114.347C191.737 114.347 191.256 114.466 190.836 114.705C190.421 114.937 190.094 115.276 189.856 115.719C189.623 116.162 189.506 116.699 189.506 117.33ZM206.756 125.256C205.45 125.256 204.327 124.969 203.39 124.395C202.458 123.821 201.739 123.028 201.234 122.017C200.734 121 200.484 119.83 200.484 118.506C200.484 117.176 200.739 116.003 201.251 114.986C201.762 113.963 202.484 113.168 203.415 112.599C204.353 112.026 205.461 111.739 206.739 111.739C207.802 111.739 208.742 111.935 209.56 112.327C210.384 112.713 211.04 113.261 211.529 113.972C212.018 114.676 212.296 115.5 212.364 116.443H209.415C209.296 115.812 209.012 115.287 208.563 114.866C208.12 114.44 207.526 114.227 206.782 114.227C206.151 114.227 205.597 114.398 205.12 114.739C204.643 115.074 204.271 115.557 204.004 116.188C203.742 116.818 203.612 117.574 203.612 118.455C203.612 119.347 203.742 120.114 204.004 120.756C204.265 121.392 204.631 121.884 205.103 122.23C205.58 122.571 206.14 122.741 206.782 122.741C207.237 122.741 207.643 122.656 208.001 122.486C208.364 122.31 208.668 122.057 208.913 121.727C209.157 121.398 209.325 120.997 209.415 120.526H212.364C212.29 121.452 212.018 122.273 211.546 122.989C211.075 123.699 210.433 124.256 209.62 124.659C208.808 125.057 207.853 125.256 206.756 125.256ZM220.693 125.256C219.381 125.256 218.247 124.983 217.293 124.438C216.344 123.886 215.614 123.108 215.102 122.102C214.591 121.091 214.335 119.901 214.335 118.531C214.335 117.185 214.591 116.003 215.102 114.986C215.619 113.963 216.341 113.168 217.267 112.599C218.193 112.026 219.281 111.739 220.531 111.739C221.338 111.739 222.099 111.869 222.815 112.131C223.537 112.386 224.173 112.784 224.724 113.324C225.281 113.864 225.719 114.551 226.037 115.386C226.355 116.216 226.514 117.205 226.514 118.352V119.298H215.784V117.219H223.557C223.551 116.628 223.423 116.102 223.173 115.642C222.923 115.176 222.574 114.81 222.125 114.543C221.682 114.276 221.165 114.142 220.574 114.142C219.943 114.142 219.389 114.295 218.912 114.602C218.435 114.903 218.063 115.301 217.795 115.795C217.534 116.284 217.401 116.821 217.395 117.406V119.222C217.395 119.983 217.534 120.636 217.812 121.182C218.091 121.722 218.48 122.136 218.98 122.426C219.48 122.71 220.065 122.852 220.736 122.852C221.185 122.852 221.591 122.79 221.955 122.665C222.318 122.534 222.634 122.344 222.901 122.094C223.168 121.844 223.369 121.534 223.506 121.165L226.386 121.489C226.205 122.25 225.858 122.915 225.347 123.483C224.841 124.045 224.193 124.483 223.403 124.795C222.614 125.102 221.71 125.256 220.693 125.256ZM233.982 125.23C232.954 125.23 232.033 124.966 231.221 124.438C230.408 123.909 229.766 123.142 229.295 122.136C228.823 121.131 228.587 119.909 228.587 118.472C228.587 117.017 228.826 115.79 229.303 114.79C229.786 113.784 230.437 113.026 231.255 112.514C232.073 111.997 232.985 111.739 233.991 111.739C234.758 111.739 235.388 111.869 235.883 112.131C236.377 112.386 236.769 112.696 237.059 113.06C237.349 113.418 237.573 113.756 237.732 114.074H237.86V107.545H240.954V125H237.92V122.938H237.732C237.573 123.256 237.343 123.594 237.042 123.952C236.741 124.304 236.343 124.605 235.849 124.855C235.354 125.105 234.732 125.23 233.982 125.23ZM234.843 122.699C235.496 122.699 236.053 122.523 236.513 122.17C236.974 121.812 237.323 121.315 237.562 120.679C237.8 120.043 237.92 119.301 237.92 118.455C237.92 117.608 237.8 116.872 237.562 116.247C237.329 115.622 236.982 115.136 236.522 114.79C236.067 114.443 235.508 114.27 234.843 114.27C234.156 114.27 233.582 114.449 233.121 114.807C232.661 115.165 232.315 115.659 232.082 116.29C231.849 116.92 231.732 117.642 231.732 118.455C231.732 119.273 231.849 120.003 232.082 120.645C232.32 121.281 232.67 121.784 233.13 122.153C233.596 122.517 234.167 122.699 234.843 122.699ZM252.572 125H249.197L255.342 107.545H259.246L265.399 125H262.024L257.362 111.125H257.226L252.572 125ZM252.683 118.156H261.888V120.696H252.683V118.156ZM270.647 117.33V125H267.562V111.909H270.511V114.134H270.664C270.965 113.401 271.445 112.818 272.104 112.386C272.769 111.955 273.59 111.739 274.567 111.739C275.471 111.739 276.258 111.932 276.928 112.318C277.604 112.705 278.127 113.264 278.496 113.997C278.871 114.73 279.056 115.619 279.05 116.665V125H275.965V117.142C275.965 116.267 275.738 115.582 275.283 115.088C274.835 114.594 274.212 114.347 273.417 114.347C272.877 114.347 272.397 114.466 271.977 114.705C271.562 114.937 271.235 115.276 270.996 115.719C270.763 116.162 270.647 116.699 270.647 117.33ZM285.954 125.264C285.124 125.264 284.377 125.116 283.712 124.821C283.053 124.52 282.531 124.077 282.144 123.491C281.763 122.906 281.573 122.185 281.573 121.327C281.573 120.588 281.71 119.977 281.982 119.494C282.255 119.011 282.627 118.625 283.099 118.335C283.57 118.045 284.102 117.827 284.692 117.679C285.289 117.526 285.906 117.415 286.542 117.347C287.309 117.267 287.931 117.196 288.408 117.134C288.886 117.065 289.232 116.963 289.448 116.827C289.67 116.685 289.781 116.466 289.781 116.17V116.119C289.781 115.477 289.59 114.98 289.21 114.628C288.829 114.276 288.281 114.099 287.565 114.099C286.809 114.099 286.21 114.264 285.766 114.594C285.329 114.923 285.033 115.312 284.88 115.761L281.999 115.352C282.227 114.557 282.602 113.892 283.124 113.358C283.647 112.818 284.286 112.415 285.042 112.148C285.798 111.875 286.633 111.739 287.548 111.739C288.178 111.739 288.806 111.812 289.431 111.96C290.056 112.108 290.627 112.352 291.144 112.693C291.661 113.028 292.076 113.486 292.388 114.065C292.707 114.645 292.866 115.369 292.866 116.239V125H289.9V123.202H289.798C289.61 123.565 289.346 123.906 289.005 124.224C288.67 124.537 288.246 124.79 287.735 124.983C287.229 125.17 286.636 125.264 285.954 125.264ZM286.755 122.997C287.374 122.997 287.911 122.875 288.366 122.631C288.82 122.381 289.17 122.051 289.414 121.642C289.664 121.233 289.789 120.787 289.789 120.304V118.761C289.692 118.841 289.528 118.915 289.295 118.983C289.067 119.051 288.812 119.111 288.528 119.162C288.244 119.213 287.962 119.259 287.684 119.298C287.406 119.338 287.164 119.372 286.96 119.401C286.499 119.463 286.087 119.565 285.724 119.707C285.36 119.849 285.073 120.048 284.863 120.304C284.653 120.554 284.548 120.878 284.548 121.276C284.548 121.844 284.755 122.273 285.17 122.562C285.585 122.852 286.113 122.997 286.755 122.997ZM299.053 107.545V125H295.968V107.545H299.053ZM304.143 129.909C303.723 129.909 303.334 129.875 302.976 129.807C302.624 129.744 302.342 129.67 302.132 129.585L302.848 127.182C303.297 127.313 303.697 127.375 304.05 127.369C304.402 127.364 304.712 127.253 304.979 127.037C305.251 126.827 305.482 126.474 305.669 125.98L305.933 125.273L301.186 111.909H304.459L307.476 121.795H307.612L310.638 111.909H313.919L308.678 126.585C308.433 127.278 308.109 127.872 307.706 128.366C307.303 128.866 306.808 129.247 306.223 129.509C305.643 129.776 304.95 129.909 304.143 129.909ZM322.591 111.909V114.295H315.065V111.909H322.591ZM316.923 108.773H320.009V121.062C320.009 121.477 320.071 121.795 320.196 122.017C320.327 122.233 320.497 122.381 320.707 122.46C320.918 122.54 321.151 122.58 321.406 122.58C321.599 122.58 321.776 122.565 321.935 122.537C322.099 122.509 322.224 122.483 322.31 122.46L322.83 124.872C322.665 124.929 322.429 124.991 322.122 125.06C321.821 125.128 321.452 125.168 321.014 125.179C320.241 125.202 319.545 125.085 318.926 124.83C318.307 124.568 317.815 124.165 317.452 123.619C317.094 123.074 316.918 122.392 316.923 121.574V108.773ZM325.171 125V111.909H328.256V125H325.171ZM326.722 110.051C326.234 110.051 325.813 109.889 325.461 109.565C325.109 109.236 324.933 108.841 324.933 108.381C324.933 107.915 325.109 107.52 325.461 107.196C325.813 106.866 326.234 106.702 326.722 106.702C327.217 106.702 327.637 106.866 327.984 107.196C328.336 107.52 328.512 107.915 328.512 108.381C328.512 108.841 328.336 109.236 327.984 109.565C327.637 109.889 327.217 110.051 326.722 110.051ZM337.139 125.256C335.832 125.256 334.71 124.969 333.773 124.395C332.841 123.821 332.122 123.028 331.616 122.017C331.116 121 330.866 119.83 330.866 118.506C330.866 117.176 331.122 116.003 331.634 114.986C332.145 113.963 332.866 113.168 333.798 112.599C334.736 112.026 335.844 111.739 337.122 111.739C338.185 111.739 339.125 111.935 339.943 112.327C340.767 112.713 341.423 113.261 341.912 113.972C342.401 114.676 342.679 115.5 342.747 116.443H339.798C339.679 115.812 339.395 115.287 338.946 114.866C338.503 114.44 337.909 114.227 337.165 114.227C336.534 114.227 335.98 114.398 335.503 114.739C335.026 115.074 334.653 115.557 334.386 116.188C334.125 116.818 333.994 117.574 333.994 118.455C333.994 119.347 334.125 120.114 334.386 120.756C334.648 121.392 335.014 121.884 335.486 122.23C335.963 122.571 336.523 122.741 337.165 122.741C337.619 122.741 338.026 122.656 338.384 122.486C338.747 122.31 339.051 122.057 339.295 121.727C339.54 121.398 339.707 120.997 339.798 120.526H342.747C342.673 121.452 342.401 122.273 341.929 122.989C341.457 123.699 340.815 124.256 340.003 124.659C339.19 125.057 338.236 125.256 337.139 125.256ZM355.627 115.369L352.815 115.676C352.735 115.392 352.596 115.125 352.397 114.875C352.204 114.625 351.942 114.423 351.613 114.27C351.283 114.116 350.88 114.04 350.403 114.04C349.761 114.04 349.221 114.179 348.783 114.457C348.352 114.736 348.138 115.097 348.144 115.54C348.138 115.92 348.278 116.23 348.562 116.469C348.852 116.707 349.329 116.903 349.994 117.057L352.227 117.534C353.465 117.801 354.386 118.224 354.988 118.804C355.596 119.384 355.903 120.142 355.908 121.08C355.903 121.903 355.661 122.631 355.184 123.261C354.712 123.886 354.056 124.375 353.215 124.727C352.374 125.08 351.408 125.256 350.317 125.256C348.715 125.256 347.425 124.92 346.448 124.25C345.471 123.574 344.888 122.634 344.701 121.429L347.71 121.139C347.846 121.73 348.136 122.176 348.579 122.477C349.022 122.778 349.599 122.929 350.309 122.929C351.042 122.929 351.63 122.778 352.073 122.477C352.522 122.176 352.746 121.804 352.746 121.361C352.746 120.986 352.602 120.676 352.312 120.432C352.028 120.187 351.585 120 350.982 119.869L348.749 119.401C347.494 119.139 346.565 118.699 345.962 118.08C345.36 117.455 345.062 116.665 345.067 115.71C345.062 114.903 345.281 114.205 345.724 113.614C346.173 113.017 346.795 112.557 347.59 112.233C348.391 111.903 349.315 111.739 350.36 111.739C351.894 111.739 353.102 112.065 353.982 112.719C354.869 113.372 355.417 114.256 355.627 115.369Z" fill="#3A74B5"/>
<path d="M40 263.5L99.5 217L170 256L232 241.5L299 253.5L362.5 194L427.5 241L492.5 244.5L559.5 198.5" stroke="#1E75BA"/>
<path d="M40 263.5L99 228.5L169.5 258L231.5 243.5L299.5 254.5L364.5 215L427 257L493 244.5L560 210.5" stroke="#DE8644"/>
<path d="M40 263.5L99.5 236L169.5 260L231.5 245L299.5 255L363 206.5L426.5 250L493 244.5L559.5 215" stroke="#29A653"/>
<path d="M40 263.5L99 261L170 263.5L232 261L300 263.5L367 256.5L428 261L492.5 259L560 248" stroke="#CC5229"/>
<line x1="40.5" y1="186" x2="40.5" y2="264" stroke="#5D6164"/>
<line x1="560" y1="264.5" x2="40" y2="264.5" stroke="#5D6164"/>
<line x1="39" y1="256.5" x2="42" y2="256.5" stroke="#5D6164"/>
<line x1="169.5" y1="266" x2="169.5" y2="263" stroke="#5D6164"/>
<line x1="99.5" y1="266" x2="99.5" y2="263" stroke="#5D6164"/>
<line x1="299.5" y1="266" x2="299.5" y2="263" stroke="#5D6164"/>
<line x1="366.5" y1="266" x2="366.5" y2="263" stroke="#5D6164"/>
<line x1="231.5" y1="266" x2="231.5" y2="263" stroke="#5D6164"/>
<line x1="427.5" y1="266" x2="427.5" y2="263" stroke="#5D6164"/>
<line x1="493.5" y1="266" x2="493.5" y2="263" stroke="#5D6164"/>
<line x1="559.5" y1="266" x2="559.5" y2="263" stroke="#5D6164"/>
<line x1="39" y1="248.5" x2="42" y2="248.5" stroke="#5D6164"/>
<line x1="39" y1="240.5" x2="42" y2="240.5" stroke="#5D6164"/>
<line x1="39" y1="232.5" x2="42" y2="232.5" stroke="#5D6164"/>
<line x1="39" y1="224.5" x2="42" y2="224.5" stroke="#5D6164"/>
<line x1="39" y1="216.5" x2="42" y2="216.5" stroke="#5D6164"/>
<line x1="39" y1="208.5" x2="42" y2="208.5" stroke="#5D6164"/>
<line x1="39" y1="200.5" x2="42" y2="200.5" stroke="#5D6164"/>
<line x1="39" y1="192.5" x2="42" y2="192.5" stroke="#5D6164"/>
</svg>
