<svg width="600" height="450" viewBox="0 0 600 450" fill="none" xmlns="http://www.w3.org/2000/svg">
<path d="M132.5 41.5L125 34L117.5 41.5L110 34L102.5 41.5L95 34L87.5 41.5L80 34L72.5 41.5L65 34V104H50V119C50 127.3 56.7 134 65 134H125C133.3 134 140 127.3 140 119V34L132.5 41.5ZM110 124H65C62.25 124 60 121.75 60 119V114H110V124ZM130 119C130 121.75 127.75 124 125 124C122.25 124 120 121.75 120 119V104H75V49H130V119Z" fill="#DBEAF6"/>
<path d="M110 59H80V69H110V59Z" fill="#DBEAF6"/>
<path d="M125 59H115V69H125V59Z" fill="#DBEAF6"/>
<path d="M110 74H80V84H110V74Z" fill="#DBEAF6"/>
<path d="M125 74H115V84H125V74Z" fill="#DBEAF6"/>
<g filter="url(#filter0_d_2038_27395)">
<rect x="123" y="100" width="315" height="179.957" rx="5.74286" fill="white" shape-rendering="crispEdges"/>
<path d="M137.129 117.6C137.129 116.357 138.136 115.35 139.379 115.35H149.879C151.121 115.35 152.129 116.357 152.129 117.6V123.6C152.129 124.843 151.121 125.85 149.879 125.85H137.129V117.6Z" fill="#0D4680"/>
<path d="M137.129 117.6C137.129 116.357 138.136 115.35 139.379 115.35H149.957C150.153 115.35 150.349 115.382 150.535 115.444L137.129 128.85V117.6Z" fill="#66BDFF"/>
<path d="M167.526 119.94C167.484 119.549 167.308 119.244 166.997 119.026C166.689 118.807 166.288 118.698 165.795 118.698C165.448 118.698 165.15 118.75 164.902 118.855C164.654 118.96 164.464 119.102 164.333 119.281C164.201 119.461 164.134 119.665 164.131 119.896C164.131 120.087 164.174 120.253 164.261 120.393C164.351 120.534 164.472 120.653 164.624 120.752C164.777 120.848 164.946 120.928 165.131 120.994C165.316 121.06 165.503 121.115 165.692 121.16L166.553 121.375C166.899 121.456 167.233 121.565 167.553 121.703C167.876 121.84 168.164 122.014 168.418 122.223C168.675 122.432 168.879 122.685 169.028 122.981C169.178 123.277 169.252 123.624 169.252 124.021C169.252 124.559 169.115 125.033 168.84 125.443C168.565 125.85 168.167 126.168 167.647 126.398C167.13 126.625 166.503 126.739 165.768 126.739C165.053 126.739 164.433 126.628 163.907 126.407C163.384 126.186 162.974 125.863 162.678 125.438C162.385 125.014 162.226 124.497 162.203 123.887H163.839C163.863 124.207 163.962 124.473 164.135 124.685C164.309 124.897 164.535 125.056 164.813 125.16C165.094 125.265 165.408 125.317 165.754 125.317C166.116 125.317 166.433 125.264 166.705 125.156C166.98 125.045 167.195 124.893 167.351 124.699C167.506 124.501 167.586 124.271 167.589 124.008C167.586 123.769 167.515 123.571 167.378 123.416C167.24 123.257 167.047 123.126 166.799 123.021C166.554 122.914 166.267 122.818 165.938 122.734L164.893 122.465C164.137 122.271 163.539 121.976 163.099 121.582C162.663 121.184 162.445 120.656 162.445 119.999C162.445 119.458 162.591 118.984 162.884 118.577C163.18 118.17 163.582 117.855 164.091 117.631C164.599 117.404 165.174 117.29 165.817 117.29C166.469 117.29 167.04 117.404 167.53 117.631C168.024 117.855 168.411 118.167 168.692 118.568C168.973 118.966 169.118 119.423 169.127 119.94H167.526ZM170.736 117.416H172.772L175.498 124.071H175.606L178.332 117.416H180.368V126.6H178.772V120.29H178.687L176.148 126.573H174.956L172.417 120.277H172.332V126.6H170.736V117.416ZM187.172 119.94C187.13 119.549 186.953 119.244 186.642 119.026C186.334 118.807 185.934 118.698 185.441 118.698C185.094 118.698 184.796 118.75 184.548 118.855C184.3 118.96 184.11 119.102 183.979 119.281C183.847 119.461 183.78 119.665 183.777 119.896C183.777 120.087 183.82 120.253 183.907 120.393C183.996 120.534 184.118 120.653 184.27 120.752C184.423 120.848 184.591 120.928 184.777 120.994C184.962 121.06 185.149 121.115 185.337 121.16L186.198 121.375C186.545 121.456 186.879 121.565 187.198 121.703C187.521 121.84 187.81 122.014 188.064 122.223C188.321 122.432 188.524 122.685 188.674 122.981C188.823 123.277 188.898 123.624 188.898 124.021C188.898 124.559 188.761 125.033 188.486 125.443C188.211 125.85 187.813 126.168 187.293 126.398C186.775 126.625 186.149 126.739 185.414 126.739C184.699 126.739 184.079 126.628 183.553 126.407C183.029 126.186 182.62 125.863 182.324 125.438C182.031 125.014 181.872 124.497 181.848 123.887H183.485C183.509 124.207 183.608 124.473 183.781 124.685C183.955 124.897 184.18 125.056 184.458 125.16C184.739 125.265 185.053 125.317 185.4 125.317C185.762 125.317 186.079 125.264 186.351 125.156C186.626 125.045 186.841 124.893 186.997 124.699C187.152 124.501 187.231 124.271 187.234 124.008C187.231 123.769 187.161 123.571 187.024 123.416C186.886 123.257 186.693 123.126 186.445 123.021C186.2 122.914 185.913 122.818 185.584 122.734L184.539 122.465C183.783 122.271 183.185 121.976 182.745 121.582C182.309 121.184 182.091 120.656 182.091 119.999C182.091 119.458 182.237 118.984 182.53 118.577C182.826 118.17 183.228 117.855 183.736 117.631C184.245 117.404 184.82 117.29 185.463 117.29C186.115 117.29 186.686 117.404 187.176 117.631C187.669 117.855 188.057 118.167 188.338 118.568C188.619 118.966 188.764 119.423 188.773 119.94H187.172Z" fill="#212528"/>
<rect x="401.693" y="110.261" width="23.6786" height="23.6786" rx="11.8393" fill="white"/>
<path d="M417.676 118.791L416.841 117.956L413.532 121.265L410.223 117.956L409.388 118.791L412.697 122.1L409.388 125.409L410.223 126.244L413.532 122.935L416.841 126.244L417.676 125.409L414.367 122.1L417.676 118.791Z" fill="#5D6164"/>
<path d="M438 143.411H123V144.989H438V143.411Z" fill="#D5D9DC" mask="url(#path-4-inside-1_2038_27395)"/>
<rect x="136.023" y="165.116" width="289.211" height="30.7821" rx="2.7625" fill="white"/>
<path d="M152.854 180.489C152.854 181.337 152.701 182.069 152.395 182.686C152.089 183.304 151.669 183.78 151.135 184.115C150.601 184.45 149.992 184.617 149.307 184.617C148.621 184.617 148.012 184.45 147.478 184.115C146.944 183.78 146.524 183.304 146.218 182.686C145.912 182.069 145.759 181.337 145.759 180.489C145.759 179.641 145.912 178.909 146.218 178.292C146.524 177.674 146.944 177.198 147.478 176.863C148.012 176.528 148.621 176.361 149.307 176.361C149.992 176.361 150.601 176.528 151.135 176.863C151.669 177.198 152.089 177.674 152.395 178.292C152.701 178.909 152.854 179.641 152.854 180.489ZM151.912 180.489C151.912 179.793 151.796 179.206 151.563 178.727C151.333 178.248 151.02 177.886 150.625 177.64C150.233 177.394 149.793 177.271 149.307 177.271C148.82 177.271 148.379 177.394 147.984 177.64C147.592 177.886 147.279 178.248 147.046 178.727C146.816 179.206 146.701 179.793 146.701 180.489C146.701 181.185 146.816 181.772 147.046 182.251C147.279 182.73 147.592 183.092 147.984 183.338C148.379 183.584 148.82 183.707 149.307 183.707C149.793 183.707 150.233 183.584 150.625 183.338C151.02 183.092 151.333 182.73 151.563 182.251C151.796 181.772 151.912 181.185 151.912 180.489ZM154.365 184.507V178.48H155.259V179.39H155.322C155.432 179.092 155.631 178.85 155.919 178.664C156.206 178.479 156.531 178.386 156.892 178.386C156.96 178.386 157.045 178.387 157.147 178.39C157.249 178.392 157.326 178.396 157.378 178.401V179.343C157.347 179.335 157.275 179.324 157.162 179.308C157.053 179.29 156.936 179.28 156.813 179.28C156.52 179.28 156.259 179.342 156.028 179.465C155.801 179.585 155.62 179.753 155.487 179.967C155.356 180.179 155.291 180.421 155.291 180.693V184.507H154.365ZM160.568 184.633C160.066 184.633 159.623 184.506 159.238 184.252C158.854 183.996 158.553 183.635 158.336 183.169C158.119 182.701 158.01 182.148 158.01 181.509C158.01 180.876 158.119 180.327 158.336 179.861C158.553 179.396 158.855 179.036 159.242 178.782C159.629 178.528 160.077 178.401 160.584 178.401C160.977 178.401 161.287 178.467 161.514 178.598C161.744 178.726 161.92 178.872 162.04 179.037C162.163 179.199 162.258 179.333 162.326 179.437H162.405V176.471H163.331V184.507H162.436V183.581H162.326C162.258 183.691 162.162 183.83 162.036 183.997C161.91 184.162 161.731 184.31 161.498 184.44C161.266 184.569 160.956 184.633 160.568 184.633ZM160.694 183.801C161.066 183.801 161.379 183.704 161.636 183.511C161.892 183.314 162.087 183.044 162.22 182.698C162.354 182.35 162.421 181.949 162.421 181.494C162.421 181.044 162.355 180.65 162.224 180.312C162.094 179.972 161.9 179.708 161.644 179.52C161.387 179.329 161.071 179.233 160.694 179.233C160.302 179.233 159.975 179.334 159.713 179.535C159.454 179.734 159.259 180.005 159.128 180.348C159 180.688 158.936 181.07 158.936 181.494C158.936 181.923 159.001 182.312 159.132 182.663C159.266 183.011 159.462 183.288 159.721 183.495C159.982 183.699 160.307 183.801 160.694 183.801ZM167.683 184.633C167.102 184.633 166.601 184.505 166.18 184.248C165.761 183.989 165.438 183.628 165.211 183.165C164.986 182.7 164.873 182.158 164.873 181.541C164.873 180.923 164.986 180.379 165.211 179.908C165.438 179.435 165.755 179.066 166.16 178.802C166.568 178.535 167.044 178.401 167.589 178.401C167.902 178.401 168.212 178.454 168.519 178.558C168.825 178.663 169.103 178.833 169.354 179.069C169.605 179.301 169.806 179.61 169.955 179.995C170.104 180.379 170.178 180.853 170.178 181.415V181.807H165.532V181.007H169.237C169.237 180.667 169.169 180.363 169.033 180.097C168.899 179.83 168.708 179.619 168.46 179.465C168.214 179.311 167.923 179.233 167.589 179.233C167.22 179.233 166.901 179.325 166.631 179.508C166.364 179.689 166.159 179.924 166.015 180.214C165.871 180.505 165.799 180.816 165.799 181.148V181.682C165.799 182.137 165.878 182.523 166.035 182.839C166.194 183.153 166.415 183.393 166.698 183.558C166.98 183.72 167.309 183.801 167.683 183.801C167.926 183.801 168.146 183.767 168.342 183.699C168.541 183.628 168.712 183.524 168.856 183.385C169 183.244 169.111 183.068 169.19 182.859L170.084 183.11C169.99 183.414 169.832 183.681 169.609 183.911C169.387 184.138 169.112 184.316 168.785 184.444C168.458 184.57 168.091 184.633 167.683 184.633ZM171.587 184.507V178.48H172.482V179.39H172.545C172.654 179.092 172.853 178.85 173.141 178.664C173.429 178.479 173.753 178.386 174.114 178.386C174.182 178.386 174.267 178.387 174.369 178.39C174.471 178.392 174.548 178.396 174.601 178.401V179.343C174.569 179.335 174.497 179.324 174.385 179.308C174.275 179.29 174.159 179.28 174.036 179.28C173.743 179.28 173.481 179.342 173.251 179.465C173.023 179.585 172.843 179.753 172.709 179.967C172.579 180.179 172.513 180.421 172.513 180.693V184.507H171.587ZM182.605 182.043V178.48H183.531V184.507H182.605V183.487H182.542C182.401 183.793 182.181 184.053 181.883 184.268C181.584 184.48 181.208 184.586 180.753 184.586C180.376 184.586 180.041 184.503 179.748 184.338C179.455 184.171 179.225 183.92 179.057 183.585C178.89 183.248 178.806 182.822 178.806 182.31V178.48H179.732V182.247C179.732 182.686 179.855 183.037 180.101 183.299C180.35 183.56 180.666 183.691 181.051 183.691C181.281 183.691 181.515 183.632 181.753 183.514C181.994 183.397 182.195 183.216 182.357 182.973C182.522 182.73 182.605 182.42 182.605 182.043ZM185.227 186.767V178.48H186.122V179.437H186.231C186.299 179.333 186.394 179.199 186.514 179.037C186.637 178.872 186.812 178.726 187.04 178.598C187.27 178.467 187.581 178.401 187.974 178.401C188.481 178.401 188.929 178.528 189.316 178.782C189.703 179.036 190.005 179.396 190.222 179.861C190.439 180.327 190.548 180.876 190.548 181.509C190.548 182.148 190.439 182.701 190.222 183.169C190.005 183.635 189.704 183.996 189.32 184.252C188.935 184.506 188.492 184.633 187.989 184.633C187.602 184.633 187.292 184.569 187.059 184.44C186.827 184.31 186.647 184.162 186.522 183.997C186.396 183.83 186.299 183.691 186.231 183.581H186.153V186.767H185.227ZM186.137 181.494C186.137 181.949 186.204 182.35 186.337 182.698C186.471 183.044 186.666 183.314 186.922 183.511C187.178 183.704 187.492 183.801 187.864 183.801C188.251 183.801 188.574 183.699 188.833 183.495C189.095 183.288 189.291 183.011 189.422 182.663C189.555 182.312 189.622 181.923 189.622 181.494C189.622 181.07 189.556 180.688 189.426 180.348C189.297 180.005 189.103 179.734 188.841 179.535C188.582 179.334 188.256 179.233 187.864 179.233C187.487 179.233 187.171 179.329 186.914 179.52C186.658 179.708 186.464 179.972 186.333 180.312C186.203 180.65 186.137 181.044 186.137 181.494ZM194.236 184.633C193.734 184.633 193.291 184.506 192.906 184.252C192.522 183.996 192.221 183.635 192.004 183.169C191.787 182.701 191.678 182.148 191.678 181.509C191.678 180.876 191.787 180.327 192.004 179.861C192.221 179.396 192.523 179.036 192.91 178.782C193.297 178.528 193.745 178.401 194.252 178.401C194.645 178.401 194.955 178.467 195.182 178.598C195.412 178.726 195.588 178.872 195.708 179.037C195.831 179.199 195.926 179.333 195.994 179.437H196.073V176.471H196.999V184.507H196.104V183.581H195.994C195.926 183.691 195.83 183.83 195.704 183.997C195.578 184.162 195.399 184.31 195.166 184.44C194.934 184.569 194.624 184.633 194.236 184.633ZM194.362 183.801C194.733 183.801 195.047 183.704 195.304 183.511C195.56 183.314 195.755 183.044 195.888 182.698C196.022 182.35 196.089 181.949 196.089 181.494C196.089 181.044 196.023 180.65 195.892 180.312C195.762 179.972 195.568 179.708 195.312 179.52C195.055 179.329 194.739 179.233 194.362 179.233C193.97 179.233 193.643 179.334 193.381 179.535C193.122 179.734 192.927 180.005 192.796 180.348C192.668 180.688 192.604 181.07 192.604 181.494C192.604 181.923 192.669 182.312 192.8 182.663C192.934 183.011 193.13 183.288 193.389 183.495C193.65 183.699 193.975 183.801 194.362 183.801ZM200.597 184.648C200.215 184.648 199.869 184.577 199.557 184.433C199.246 184.286 198.999 184.076 198.816 183.801C198.633 183.524 198.541 183.189 198.541 182.796C198.541 182.451 198.609 182.171 198.745 181.957C198.881 181.739 199.063 181.569 199.291 181.446C199.518 181.324 199.769 181.232 200.044 181.172C200.321 181.109 200.6 181.059 200.88 181.023C201.246 180.976 201.543 180.94 201.771 180.917C202.001 180.891 202.168 180.847 202.273 180.787C202.38 180.727 202.434 180.622 202.434 180.473V180.442C202.434 180.055 202.328 179.754 202.116 179.539C201.907 179.325 201.589 179.218 201.162 179.218C200.72 179.218 200.374 179.314 200.122 179.508C199.871 179.702 199.695 179.908 199.593 180.128L198.714 179.814C198.871 179.448 199.08 179.163 199.342 178.959C199.606 178.752 199.894 178.608 200.205 178.527C200.519 178.443 200.827 178.401 201.131 178.401C201.324 178.401 201.547 178.425 201.798 178.472C202.052 178.517 202.296 178.609 202.532 178.751C202.77 178.892 202.967 179.105 203.124 179.39C203.281 179.675 203.36 180.057 203.36 180.536V184.507H202.434V183.691H202.387C202.324 183.822 202.219 183.962 202.073 184.111C201.926 184.26 201.731 184.387 201.488 184.492C201.245 184.596 200.948 184.648 200.597 184.648ZM200.739 183.817C201.105 183.817 201.413 183.745 201.665 183.601C201.918 183.457 202.109 183.271 202.237 183.044C202.368 182.816 202.434 182.577 202.434 182.325V181.478C202.394 181.525 202.308 181.568 202.175 181.607C202.044 181.644 201.892 181.677 201.72 181.705C201.549 181.732 201.383 181.755 201.221 181.776C201.062 181.794 200.932 181.81 200.833 181.823C200.592 181.855 200.367 181.906 200.158 181.976C199.951 182.044 199.784 182.148 199.655 182.286C199.53 182.422 199.467 182.608 199.467 182.843C199.467 183.165 199.586 183.408 199.824 183.573C200.065 183.735 200.37 183.817 200.739 183.817ZM207.671 178.48V179.265H204.548V178.48H207.671ZM205.458 177.036H206.384V182.781C206.384 183.042 206.422 183.238 206.498 183.369C206.576 183.497 206.676 183.584 206.796 183.628C206.919 183.67 207.049 183.691 207.185 183.691C207.287 183.691 207.37 183.686 207.436 183.675C207.501 183.662 207.554 183.652 207.593 183.644L207.781 184.476C207.718 184.499 207.631 184.523 207.518 184.546C207.406 184.573 207.263 184.586 207.09 184.586C206.829 184.586 206.573 184.529 206.321 184.417C206.073 184.304 205.866 184.133 205.701 183.903C205.539 183.673 205.458 183.382 205.458 183.032V177.036ZM211.527 184.633C210.946 184.633 210.445 184.505 210.024 184.248C209.605 183.989 209.282 183.628 209.054 183.165C208.829 182.7 208.717 182.158 208.717 181.541C208.717 180.923 208.829 180.379 209.054 179.908C209.282 179.435 209.599 179.066 210.004 178.802C210.412 178.535 210.888 178.401 211.432 178.401C211.746 178.401 212.056 178.454 212.362 178.558C212.668 178.663 212.947 178.833 213.198 179.069C213.449 179.301 213.649 179.61 213.799 179.995C213.948 180.379 214.022 180.853 214.022 181.415V181.807H209.376V181.007H213.08C213.08 180.667 213.012 180.363 212.876 180.097C212.743 179.83 212.552 179.619 212.304 179.465C212.058 179.311 211.767 179.233 211.432 179.233C211.064 179.233 210.744 179.325 210.475 179.508C210.208 179.689 210.003 179.924 209.859 180.214C209.715 180.505 209.643 180.816 209.643 181.148V181.682C209.643 182.137 209.722 182.523 209.879 182.839C210.038 183.153 210.259 183.393 210.542 183.558C210.824 183.72 211.152 183.801 211.527 183.801C211.77 183.801 211.99 183.767 212.186 183.699C212.385 183.628 212.556 183.524 212.7 183.385C212.844 183.244 212.955 183.068 213.033 182.859L213.928 183.11C213.834 183.414 213.676 183.681 213.453 183.911C213.231 184.138 212.956 184.316 212.629 184.444C212.302 184.57 211.935 184.633 211.527 184.633Z" fill="#3F4346"/>
<g clip-path="url(#clip0_2038_27395)">
<path d="M414.44 178.264L411.421 181.277L408.402 178.264L407.475 179.192L411.421 183.138L415.368 179.192L414.44 178.264Z" fill="#5D6164"/>
</g>
<rect x="136.023" y="165.116" width="289.211" height="30.7821" rx="2.7625" stroke="#D5D9DC" stroke-width="0.789286"/>
<rect width="65.3143" height="10" transform="translate(141.943 159.986)" fill="white"/>
<path d="M148.934 163.681C148.901 163.396 148.764 163.176 148.525 163.019C148.286 162.862 147.993 162.784 147.645 162.784C147.391 162.784 147.169 162.825 146.978 162.907C146.789 162.989 146.642 163.102 146.535 163.246C146.43 163.39 146.378 163.553 146.378 163.737C146.378 163.89 146.415 164.022 146.487 164.132C146.562 164.24 146.657 164.331 146.773 164.404C146.889 164.475 147.011 164.534 147.138 164.58C147.265 164.625 147.382 164.662 147.488 164.69L148.071 164.847C148.221 164.886 148.387 164.94 148.57 165.009C148.755 165.078 148.932 165.173 149.1 165.292C149.27 165.41 149.41 165.561 149.52 165.746C149.63 165.931 149.686 166.158 149.686 166.427C149.686 166.738 149.604 167.018 149.442 167.268C149.281 167.519 149.046 167.718 148.735 167.865C148.427 168.013 148.052 168.087 147.611 168.087C147.2 168.087 146.844 168.02 146.544 167.888C146.245 167.755 146.009 167.57 145.837 167.333C145.667 167.095 145.571 166.82 145.548 166.506H146.266C146.285 166.723 146.358 166.902 146.485 167.044C146.614 167.184 146.776 167.289 146.972 167.358C147.17 167.425 147.383 167.459 147.611 167.459C147.877 167.459 148.115 167.416 148.326 167.33C148.537 167.242 148.705 167.121 148.828 166.965C148.951 166.809 149.013 166.625 149.013 166.416C149.013 166.226 148.96 166.07 148.853 165.951C148.747 165.831 148.606 165.734 148.433 165.659C148.259 165.585 148.071 165.519 147.869 165.463L147.163 165.261C146.714 165.132 146.359 164.948 146.098 164.709C145.836 164.47 145.705 164.157 145.705 163.77C145.705 163.449 145.792 163.169 145.966 162.929C146.142 162.688 146.377 162.501 146.672 162.369C146.97 162.234 147.301 162.167 147.667 162.167C148.037 162.167 148.366 162.233 148.654 162.366C148.942 162.497 149.17 162.676 149.338 162.904C149.508 163.132 149.598 163.391 149.607 163.681H148.934ZM152.544 168.075C152.129 168.075 151.771 167.984 151.47 167.801C151.171 167.616 150.94 167.358 150.778 167.027C150.617 166.695 150.537 166.308 150.537 165.867C150.537 165.426 150.617 165.037 150.778 164.701C150.94 164.363 151.167 164.099 151.456 163.91C151.748 163.72 152.088 163.624 152.476 163.624C152.701 163.624 152.922 163.662 153.141 163.737C153.359 163.811 153.558 163.933 153.738 164.101C153.917 164.267 154.06 164.488 154.167 164.762C154.273 165.037 154.326 165.375 154.326 165.777V166.057H151.008V165.486H153.654C153.654 165.243 153.605 165.026 153.508 164.835C153.413 164.645 153.276 164.494 153.099 164.384C152.923 164.274 152.716 164.219 152.476 164.219C152.213 164.219 151.985 164.284 151.793 164.415C151.602 164.544 151.455 164.712 151.353 164.919C151.25 165.127 151.198 165.349 151.198 165.586V165.968C151.198 166.293 151.254 166.568 151.367 166.795C151.481 167.019 151.638 167.19 151.84 167.307C152.042 167.423 152.277 167.481 152.544 167.481C152.718 167.481 152.874 167.457 153.015 167.408C153.157 167.358 153.279 167.283 153.382 167.184C153.485 167.083 153.564 166.958 153.62 166.809L154.259 166.988C154.192 167.205 154.079 167.395 153.92 167.56C153.761 167.722 153.565 167.849 153.331 167.941C153.098 168.031 152.835 168.075 152.544 168.075ZM155.994 162.245V167.986H155.333V162.245H155.994ZM159.011 168.075C158.596 168.075 158.238 167.984 157.937 167.801C157.638 167.616 157.407 167.358 157.245 167.027C157.084 166.695 157.004 166.308 157.004 165.867C157.004 165.426 157.084 165.037 157.245 164.701C157.407 164.363 157.633 164.099 157.923 163.91C158.215 163.72 158.555 163.624 158.943 163.624C159.168 163.624 159.389 163.662 159.608 163.737C159.826 163.811 160.025 163.933 160.205 164.101C160.384 164.267 160.527 164.488 160.633 164.762C160.74 165.037 160.793 165.375 160.793 165.777V166.057H157.475V165.486H160.121C160.121 165.243 160.072 165.026 159.975 164.835C159.88 164.645 159.743 164.494 159.566 164.384C159.39 164.274 159.183 164.219 158.943 164.219C158.68 164.219 158.452 164.284 158.259 164.415C158.069 164.544 157.922 164.712 157.819 164.919C157.717 165.127 157.665 165.349 157.665 165.586V165.968C157.665 166.293 157.721 166.568 157.833 166.795C157.947 167.019 158.105 167.19 158.307 167.307C158.509 167.423 158.743 167.481 159.011 167.481C159.184 167.481 159.341 167.457 159.482 167.408C159.624 167.358 159.746 167.283 159.849 167.184C159.951 167.083 160.031 166.958 160.087 166.809L160.726 166.988C160.659 167.205 160.546 167.395 160.387 167.56C160.228 167.722 160.032 167.849 159.798 167.941C159.565 168.031 159.302 168.075 159.011 168.075ZM163.548 168.075C163.145 168.075 162.797 167.98 162.506 167.79C162.214 167.599 161.99 167.336 161.833 167.002C161.676 166.667 161.598 166.285 161.598 165.856C161.598 165.418 161.678 165.032 161.839 164.698C162.001 164.362 162.227 164.099 162.517 163.91C162.809 163.72 163.149 163.624 163.537 163.624C163.84 163.624 164.113 163.681 164.356 163.793C164.599 163.905 164.798 164.062 164.953 164.264C165.108 164.465 165.204 164.701 165.241 164.97H164.58C164.529 164.774 164.417 164.6 164.244 164.449C164.072 164.295 163.84 164.219 163.548 164.219C163.291 164.219 163.065 164.286 162.87 164.42C162.678 164.553 162.527 164.741 162.419 164.984C162.312 165.225 162.259 165.508 162.259 165.833C162.259 166.166 162.311 166.455 162.416 166.702C162.523 166.949 162.672 167.14 162.865 167.277C163.059 167.413 163.287 167.481 163.548 167.481C163.72 167.481 163.876 167.451 164.017 167.392C164.157 167.332 164.275 167.246 164.373 167.134C164.47 167.022 164.539 166.887 164.58 166.73H165.241C165.204 166.984 165.112 167.213 164.964 167.417C164.818 167.619 164.625 167.779 164.384 167.899C164.145 168.017 163.866 168.075 163.548 168.075ZM168.081 163.681V164.241H165.85V163.681H168.081ZM166.5 162.649H167.161V166.752C167.161 166.939 167.188 167.079 167.243 167.173C167.299 167.264 167.37 167.326 167.456 167.358C167.543 167.388 167.636 167.403 167.733 167.403C167.806 167.403 167.866 167.399 167.913 167.392C167.959 167.382 167.997 167.375 168.025 167.369L168.159 167.963C168.114 167.98 168.052 167.997 167.971 168.014C167.891 168.032 167.789 168.042 167.666 168.042C167.479 168.042 167.296 168.002 167.117 167.921C166.939 167.841 166.791 167.719 166.674 167.554C166.558 167.39 166.5 167.182 166.5 166.932V162.649ZM173.168 163.681V164.241H170.937V163.681H173.168ZM171.587 162.649H172.249V166.752C172.249 166.939 172.276 167.079 172.33 167.173C172.386 167.264 172.457 167.326 172.543 167.358C172.631 167.388 172.723 167.403 172.82 167.403C172.893 167.403 172.953 167.399 173 167.392C173.046 167.382 173.084 167.375 173.112 167.369L173.246 167.963C173.202 167.98 173.139 167.997 173.059 168.014C172.978 168.032 172.876 168.042 172.753 168.042C172.566 168.042 172.383 168.002 172.204 167.921C172.026 167.841 171.879 167.719 171.761 167.554C171.645 167.39 171.587 167.182 171.587 166.932V162.649ZM175.922 168.075C175.507 168.075 175.149 167.984 174.848 167.801C174.549 167.616 174.318 167.358 174.156 167.027C173.995 166.695 173.915 166.308 173.915 165.867C173.915 165.426 173.995 165.037 174.156 164.701C174.318 164.363 174.545 164.099 174.834 163.91C175.126 163.72 175.466 163.624 175.854 163.624C176.079 163.624 176.3 163.662 176.519 163.737C176.737 163.811 176.936 163.933 177.116 164.101C177.295 164.267 177.438 164.488 177.545 164.762C177.651 165.037 177.704 165.375 177.704 165.777V166.057H174.386V165.486H177.032C177.032 165.243 176.983 165.026 176.886 164.835C176.791 164.645 176.654 164.494 176.477 164.384C176.301 164.274 176.094 164.219 175.854 164.219C175.591 164.219 175.363 164.284 175.171 164.415C174.98 164.544 174.833 164.712 174.73 164.919C174.628 165.127 174.576 165.349 174.576 165.586V165.968C174.576 166.293 174.632 166.568 174.744 166.795C174.858 167.019 175.016 167.19 175.218 167.307C175.42 167.423 175.654 167.481 175.922 167.481C176.095 167.481 176.252 167.457 176.393 167.408C176.535 167.358 176.657 167.283 176.76 167.184C176.863 167.083 176.942 166.958 176.998 166.809L177.637 166.988C177.57 167.205 177.457 167.395 177.298 167.56C177.139 167.722 176.943 167.849 176.709 167.941C176.476 168.031 176.213 168.075 175.922 168.075ZM178.711 167.986V163.681H179.35V164.353H179.406C179.495 164.123 179.64 163.945 179.84 163.818C180.04 163.689 180.28 163.624 180.56 163.624C180.844 163.624 181.081 163.689 181.27 163.818C181.46 163.945 181.609 164.123 181.715 164.353H181.76C181.87 164.131 182.036 163.954 182.256 163.823C182.477 163.691 182.741 163.624 183.049 163.624C183.434 163.624 183.749 163.745 183.994 163.986C184.239 164.225 184.361 164.598 184.361 165.104V167.986H183.7V165.104C183.7 164.787 183.613 164.56 183.439 164.423C183.265 164.287 183.061 164.219 182.825 164.219C182.522 164.219 182.288 164.31 182.122 164.493C181.955 164.675 181.872 164.904 181.872 165.183V167.986H181.199V165.037C181.199 164.792 181.12 164.595 180.961 164.446C180.802 164.294 180.598 164.219 180.347 164.219C180.176 164.219 180.015 164.264 179.865 164.356C179.718 164.448 179.598 164.575 179.507 164.737C179.417 164.898 179.372 165.084 179.372 165.295V167.986H178.711ZM185.571 169.6V163.681H186.21V164.364H186.288C186.337 164.29 186.404 164.194 186.49 164.079C186.578 163.961 186.703 163.856 186.865 163.765C187.03 163.671 187.252 163.624 187.533 163.624C187.895 163.624 188.215 163.715 188.491 163.896C188.768 164.078 188.983 164.335 189.139 164.667C189.294 165 189.371 165.392 189.371 165.844C189.371 166.3 189.294 166.695 189.139 167.03C188.983 167.363 188.769 167.62 188.494 167.804C188.219 167.985 187.903 168.075 187.544 168.075C187.267 168.075 187.046 168.03 186.879 167.938C186.713 167.845 186.585 167.739 186.495 167.621C186.406 167.502 186.337 167.403 186.288 167.324H186.232V169.6H185.571ZM186.221 165.833C186.221 166.158 186.268 166.445 186.364 166.694C186.459 166.94 186.598 167.134 186.781 167.274C186.965 167.412 187.189 167.481 187.454 167.481C187.731 167.481 187.961 167.408 188.146 167.263C188.333 167.115 188.473 166.917 188.567 166.668C188.662 166.418 188.71 166.14 188.71 165.833C188.71 165.53 188.663 165.258 188.57 165.015C188.478 164.77 188.339 164.577 188.152 164.434C187.967 164.291 187.734 164.219 187.454 164.219C187.185 164.219 186.959 164.287 186.776 164.423C186.593 164.558 186.454 164.747 186.361 164.989C186.268 165.231 186.221 165.512 186.221 165.833ZM191.042 162.245V167.986H190.38V162.245H191.042ZM193.52 168.087C193.247 168.087 193 168.035 192.777 167.932C192.555 167.828 192.378 167.677 192.248 167.481C192.117 167.283 192.051 167.044 192.051 166.764C192.051 166.517 192.1 166.317 192.197 166.164C192.294 166.009 192.424 165.887 192.587 165.799C192.749 165.712 192.929 165.646 193.125 165.603C193.323 165.558 193.522 165.523 193.722 165.497C193.984 165.463 194.196 165.438 194.358 165.421C194.523 165.402 194.642 165.372 194.717 165.329C194.794 165.286 194.832 165.211 194.832 165.104V165.082C194.832 164.805 194.756 164.591 194.605 164.437C194.455 164.284 194.228 164.207 193.924 164.207C193.608 164.207 193.36 164.277 193.181 164.415C193.002 164.553 192.876 164.701 192.803 164.858L192.175 164.633C192.287 164.372 192.436 164.168 192.623 164.022C192.812 163.875 193.018 163.772 193.24 163.714C193.464 163.654 193.685 163.624 193.901 163.624C194.04 163.624 194.198 163.641 194.378 163.675C194.559 163.707 194.734 163.773 194.902 163.874C195.072 163.975 195.213 164.127 195.325 164.331C195.437 164.534 195.493 164.807 195.493 165.149V167.986H194.832V167.403H194.798C194.753 167.496 194.679 167.596 194.574 167.703C194.469 167.809 194.33 167.9 194.156 167.975C193.983 168.049 193.771 168.087 193.52 168.087ZM193.621 167.492C193.883 167.492 194.103 167.441 194.283 167.338C194.464 167.235 194.6 167.103 194.692 166.94C194.785 166.778 194.832 166.607 194.832 166.427V165.822C194.804 165.856 194.742 165.886 194.647 165.914C194.553 165.941 194.445 165.964 194.322 165.984C194.2 166.003 194.082 166.02 193.966 166.035C193.852 166.048 193.759 166.059 193.688 166.069C193.516 166.091 193.356 166.127 193.206 166.178C193.059 166.226 192.939 166.3 192.847 166.399C192.758 166.496 192.713 166.629 192.713 166.797C192.713 167.027 192.798 167.201 192.968 167.319C193.14 167.434 193.358 167.492 193.621 167.492ZM198.573 163.681V164.241H196.342V163.681H198.573ZM196.992 162.649H197.654V166.752C197.654 166.939 197.681 167.079 197.735 167.173C197.791 167.264 197.862 167.326 197.948 167.358C198.036 167.388 198.128 167.403 198.225 167.403C198.298 167.403 198.358 167.399 198.405 167.392C198.452 167.382 198.489 167.375 198.517 167.369L198.652 167.963C198.607 167.98 198.544 167.997 198.464 168.014C198.383 168.032 198.282 168.042 198.158 168.042C197.971 168.042 197.788 168.002 197.609 167.921C197.431 167.841 197.284 167.719 197.166 167.554C197.05 167.39 196.992 167.182 196.992 166.932V162.649ZM201.327 168.075C200.912 168.075 200.554 167.984 200.253 167.801C199.954 167.616 199.724 167.358 199.561 167.027C199.4 166.695 199.32 166.308 199.32 165.867C199.32 165.426 199.4 165.037 199.561 164.701C199.724 164.363 199.95 164.099 200.239 163.91C200.531 163.72 200.871 163.624 201.26 163.624C201.484 163.624 201.705 163.662 201.924 163.737C202.142 163.811 202.341 163.933 202.521 164.101C202.7 164.267 202.843 164.488 202.95 164.762C203.056 165.037 203.109 165.375 203.109 165.777V166.057H199.791V165.486H202.437C202.437 165.243 202.388 165.026 202.291 164.835C202.196 164.645 202.059 164.494 201.882 164.384C201.706 164.274 201.499 164.219 201.26 164.219C200.996 164.219 200.768 164.284 200.576 164.415C200.385 164.544 200.238 164.712 200.136 164.919C200.033 165.127 199.981 165.349 199.981 165.586V165.968C199.981 166.293 200.038 166.568 200.15 166.795C200.264 167.019 200.422 167.19 200.623 167.307C200.825 167.423 201.06 167.481 201.327 167.481C201.501 167.481 201.658 167.457 201.798 167.408C201.94 167.358 202.062 167.283 202.165 167.184C202.268 167.083 202.347 166.958 202.403 166.809L203.042 166.988C202.975 167.205 202.862 167.395 202.703 167.56C202.544 167.722 202.348 167.849 202.114 167.941C201.881 168.031 201.618 168.075 201.327 168.075Z" fill="#3F4346"/>
<rect x="136.023" y="220.366" width="289.211" height="30.7821" rx="2.7625" fill="white"/>
<path d="M145.634 232.584V231.721H151.661V232.584H149.134V239.757H148.161V232.584H145.634ZM152.411 239.757V233.73H153.306V234.64H153.369C153.479 234.342 153.678 234.1 153.965 233.914C154.253 233.729 154.577 233.636 154.939 233.636C155.007 233.636 155.092 233.637 155.194 233.64C155.296 233.642 155.373 233.646 155.425 233.652V234.593C155.394 234.585 155.322 234.574 155.209 234.558C155.099 234.54 154.983 234.53 154.86 234.53C154.567 234.53 154.305 234.592 154.075 234.715C153.848 234.835 153.667 235.003 153.534 235.217C153.403 235.429 153.338 235.671 153.338 235.943V239.757H152.411ZM158.296 239.899C157.915 239.899 157.568 239.827 157.257 239.683C156.945 239.536 156.698 239.326 156.515 239.051C156.332 238.774 156.24 238.439 156.24 238.046C156.24 237.701 156.308 237.421 156.444 237.207C156.58 236.99 156.762 236.819 156.99 236.697C157.217 236.574 157.469 236.482 157.743 236.422C158.02 236.359 158.299 236.309 158.579 236.273C158.945 236.226 159.242 236.19 159.47 236.167C159.7 236.141 159.867 236.097 159.972 236.037C160.079 235.977 160.133 235.872 160.133 235.723V235.692C160.133 235.305 160.027 235.004 159.815 234.789C159.606 234.575 159.288 234.468 158.862 234.468C158.419 234.468 158.073 234.564 157.822 234.758C157.571 234.952 157.394 235.158 157.292 235.378L156.413 235.064C156.57 234.698 156.779 234.413 157.041 234.209C157.305 234.002 157.593 233.858 157.904 233.777C158.218 233.693 158.527 233.652 158.83 233.652C159.024 233.652 159.246 233.675 159.497 233.722C159.751 233.767 159.996 233.859 160.231 234.001C160.469 234.142 160.667 234.355 160.824 234.64C160.98 234.926 161.059 235.307 161.059 235.786V239.757H160.133V238.941H160.086C160.023 239.072 159.918 239.212 159.772 239.361C159.625 239.51 159.431 239.637 159.187 239.742C158.944 239.846 158.647 239.899 158.296 239.899ZM158.438 239.067C158.804 239.067 159.113 238.995 159.364 238.851C159.618 238.707 159.809 238.521 159.937 238.294C160.068 238.066 160.133 237.827 160.133 237.576V236.728C160.094 236.775 160.007 236.818 159.874 236.857C159.743 236.894 159.591 236.927 159.419 236.956C159.249 236.982 159.083 237.005 158.92 237.026C158.761 237.044 158.631 237.06 158.532 237.073C158.291 237.105 158.066 237.156 157.857 237.226C157.65 237.294 157.483 237.398 157.355 237.536C157.229 237.672 157.166 237.858 157.166 238.093C157.166 238.415 157.285 238.659 157.523 238.823C157.764 238.986 158.069 239.067 158.438 239.067ZM163.675 236.131V239.757H162.749V233.73H163.644V234.672H163.722C163.864 234.366 164.078 234.12 164.366 233.934C164.654 233.746 165.025 233.652 165.48 233.652C165.888 233.652 166.246 233.735 166.552 233.903C166.858 234.067 167.096 234.319 167.266 234.656C167.436 234.991 167.521 235.415 167.521 235.927V239.757H166.595V235.99C166.595 235.517 166.472 235.148 166.226 234.884C165.98 234.617 165.643 234.483 165.214 234.483C164.918 234.483 164.654 234.547 164.421 234.676C164.191 234.804 164.009 234.991 163.875 235.237C163.742 235.483 163.675 235.781 163.675 236.131ZM173.482 235.08L172.65 235.315C172.598 235.177 172.521 235.042 172.419 234.911C172.32 234.778 172.184 234.668 172.011 234.581C171.838 234.495 171.617 234.452 171.348 234.452C170.979 234.452 170.671 234.537 170.426 234.707C170.182 234.874 170.061 235.088 170.061 235.347C170.061 235.577 170.144 235.759 170.312 235.892C170.479 236.026 170.741 236.137 171.097 236.226L171.991 236.445C172.53 236.576 172.932 236.776 173.196 237.046C173.46 237.313 173.592 237.657 173.592 238.078C173.592 238.423 173.493 238.732 173.294 239.004C173.098 239.276 172.823 239.49 172.47 239.647C172.117 239.804 171.706 239.883 171.238 239.883C170.623 239.883 170.114 239.749 169.711 239.483C169.309 239.216 169.053 238.826 168.946 238.313L169.825 238.093C169.909 238.418 170.067 238.661 170.3 238.823C170.535 238.986 170.843 239.067 171.222 239.067C171.654 239.067 171.996 238.975 172.25 238.792C172.507 238.606 172.635 238.384 172.635 238.125C172.635 237.916 172.562 237.74 172.415 237.599C172.269 237.455 172.044 237.348 171.74 237.277L170.736 237.042C170.184 236.911 169.778 236.708 169.519 236.434C169.263 236.156 169.135 235.81 169.135 235.394C169.135 235.054 169.23 234.753 169.421 234.491C169.615 234.23 169.878 234.024 170.21 233.875C170.545 233.726 170.924 233.652 171.348 233.652C171.944 233.652 172.412 233.782 172.753 234.044C173.095 234.306 173.338 234.651 173.482 235.08ZM176.76 239.899C176.378 239.899 176.031 239.827 175.72 239.683C175.409 239.536 175.162 239.326 174.978 239.051C174.795 238.774 174.704 238.439 174.704 238.046C174.704 237.701 174.772 237.421 174.908 237.207C175.044 236.99 175.226 236.819 175.453 236.697C175.681 236.574 175.932 236.482 176.207 236.422C176.484 236.359 176.763 236.309 177.042 236.273C177.409 236.226 177.706 236.19 177.933 236.167C178.163 236.141 178.331 236.097 178.435 236.037C178.543 235.977 178.596 235.872 178.596 235.723V235.692C178.596 235.305 178.49 235.004 178.278 234.789C178.069 234.575 177.751 234.468 177.325 234.468C176.883 234.468 176.536 234.564 176.285 234.758C176.034 234.952 175.857 235.158 175.755 235.378L174.876 235.064C175.033 234.698 175.243 234.413 175.504 234.209C175.768 234.002 176.056 233.858 176.367 233.777C176.681 233.693 176.99 233.652 177.294 233.652C177.487 233.652 177.71 233.675 177.961 233.722C178.214 233.767 178.459 233.859 178.694 234.001C178.932 234.142 179.13 234.355 179.287 234.64C179.444 234.926 179.522 235.307 179.522 235.786V239.757H178.596V238.941H178.549C178.486 239.072 178.382 239.212 178.235 239.361C178.089 239.51 177.894 239.637 177.651 239.742C177.407 239.846 177.11 239.899 176.76 239.899ZM176.901 239.067C177.267 239.067 177.576 238.995 177.827 238.851C178.081 238.707 178.272 238.521 178.4 238.294C178.531 238.066 178.596 237.827 178.596 237.576V236.728C178.557 236.775 178.471 236.818 178.337 236.857C178.207 236.894 178.055 236.927 177.882 236.956C177.712 236.982 177.546 237.005 177.384 237.026C177.224 237.044 177.095 237.06 176.995 237.073C176.755 237.105 176.53 237.156 176.32 237.226C176.114 237.294 175.946 237.398 175.818 237.536C175.693 237.672 175.63 237.858 175.63 238.093C175.63 238.415 175.749 238.659 175.987 238.823C176.228 238.986 176.532 239.067 176.901 239.067ZM183.661 239.883C183.096 239.883 182.61 239.749 182.202 239.483C181.793 239.216 181.479 238.848 181.26 238.38C181.04 237.912 180.93 237.377 180.93 236.775C180.93 236.163 181.043 235.623 181.268 235.154C181.495 234.684 181.812 234.316 182.217 234.052C182.625 233.785 183.101 233.652 183.646 233.652C184.069 233.652 184.451 233.73 184.791 233.887C185.131 234.044 185.41 234.264 185.627 234.546C185.844 234.829 185.979 235.158 186.031 235.535H185.105C185.035 235.26 184.878 235.017 184.634 234.805C184.394 234.591 184.069 234.483 183.661 234.483C183.3 234.483 182.984 234.578 182.712 234.766C182.442 234.952 182.232 235.215 182.08 235.555C181.931 235.892 181.856 236.288 181.856 236.744C181.856 237.209 181.929 237.615 182.076 237.96C182.225 238.305 182.434 238.574 182.704 238.764C182.976 238.955 183.295 239.051 183.661 239.051C183.902 239.051 184.12 239.009 184.317 238.925C184.513 238.842 184.679 238.721 184.815 238.564C184.951 238.407 185.048 238.219 185.105 237.999H186.031C185.979 238.355 185.85 238.676 185.643 238.961C185.439 239.243 185.168 239.468 184.831 239.636C184.496 239.8 184.106 239.883 183.661 239.883ZM190.006 233.73V234.515H186.883V233.73H190.006ZM187.793 232.286H188.719V238.031C188.719 238.292 188.757 238.489 188.833 238.619C188.912 238.747 189.011 238.834 189.131 238.878C189.254 238.92 189.384 238.941 189.52 238.941C189.622 238.941 189.706 238.936 189.771 238.925C189.836 238.912 189.889 238.902 189.928 238.894L190.116 239.726C190.053 239.749 189.966 239.773 189.853 239.797C189.741 239.823 189.598 239.836 189.426 239.836C189.164 239.836 188.908 239.779 188.656 239.667C188.408 239.555 188.201 239.383 188.037 239.153C187.874 238.923 187.793 238.632 187.793 238.282V232.286ZM191.399 239.757V233.73H192.325V239.757H191.399ZM191.87 232.725C191.69 232.725 191.534 232.664 191.403 232.541C191.275 232.418 191.211 232.27 191.211 232.098C191.211 231.925 191.275 231.777 191.403 231.654C191.534 231.531 191.69 231.47 191.87 231.47C192.051 231.47 192.205 231.531 192.333 231.654C192.464 231.777 192.529 231.925 192.529 232.098C192.529 232.27 192.464 232.418 192.333 232.541C192.205 232.664 192.051 232.725 191.87 232.725ZM196.47 239.883C195.926 239.883 195.449 239.753 195.038 239.494C194.63 239.235 194.311 238.873 194.08 238.407C193.853 237.942 193.739 237.398 193.739 236.775C193.739 236.147 193.853 235.599 194.08 235.131C194.311 234.663 194.63 234.299 195.038 234.04C195.449 233.781 195.926 233.652 196.47 233.652C197.014 233.652 197.49 233.781 197.899 234.04C198.309 234.299 198.628 234.663 198.856 235.131C199.086 235.599 199.201 236.147 199.201 236.775C199.201 237.398 199.086 237.942 198.856 238.407C198.628 238.873 198.309 239.235 197.899 239.494C197.49 239.753 197.014 239.883 196.47 239.883ZM196.47 239.051C196.884 239.051 197.224 238.945 197.49 238.733C197.757 238.521 197.955 238.243 198.083 237.897C198.211 237.552 198.275 237.178 198.275 236.775C198.275 236.372 198.211 235.997 198.083 235.649C197.955 235.301 197.757 235.02 197.49 234.805C197.224 234.591 196.884 234.483 196.47 234.483C196.057 234.483 195.717 234.591 195.45 234.805C195.183 235.02 194.986 235.301 194.857 235.649C194.729 235.997 194.665 236.372 194.665 236.775C194.665 237.178 194.729 237.552 194.857 237.897C194.986 238.243 195.183 238.521 195.45 238.733C195.717 238.945 196.057 239.051 196.47 239.051ZM201.541 236.131V239.757H200.615V233.73H201.51V234.672H201.588C201.729 234.366 201.944 234.12 202.232 233.934C202.519 233.746 202.891 233.652 203.346 233.652C203.754 233.652 204.111 233.735 204.417 233.903C204.723 234.067 204.961 234.319 205.131 234.656C205.301 234.991 205.386 235.415 205.386 235.927V239.757H204.46V235.99C204.46 235.517 204.337 235.148 204.092 234.884C203.846 234.617 203.508 234.483 203.079 234.483C202.784 234.483 202.519 234.547 202.287 234.676C202.056 234.804 201.875 234.991 201.741 235.237C201.608 235.483 201.541 235.781 201.541 236.131ZM208.852 239.899C208.47 239.899 208.124 239.827 207.813 239.683C207.501 239.536 207.254 239.326 207.071 239.051C206.888 238.774 206.796 238.439 206.796 238.046C206.796 237.701 206.864 237.421 207 237.207C207.136 236.99 207.318 236.819 207.546 236.697C207.773 236.574 208.024 236.482 208.299 236.422C208.576 236.359 208.855 236.309 209.135 236.273C209.501 236.226 209.798 236.19 210.026 236.167C210.256 236.141 210.423 236.097 210.528 236.037C210.635 235.977 210.689 235.872 210.689 235.723V235.692C210.689 235.305 210.583 235.004 210.371 234.789C210.162 234.575 209.844 234.468 209.417 234.468C208.975 234.468 208.629 234.564 208.378 234.758C208.126 234.952 207.95 235.158 207.848 235.378L206.969 235.064C207.126 234.698 207.335 234.413 207.597 234.209C207.861 234.002 208.149 233.858 208.46 233.777C208.774 233.693 209.083 233.652 209.386 233.652C209.58 233.652 209.802 233.675 210.053 233.722C210.307 233.767 210.551 233.859 210.787 234.001C211.025 234.142 211.222 234.355 211.379 234.64C211.536 234.926 211.615 235.307 211.615 235.786V239.757H210.689V238.941H210.642C210.579 239.072 210.474 239.212 210.328 239.361C210.181 239.51 209.986 239.637 209.743 239.742C209.5 239.846 209.203 239.899 208.852 239.899ZM208.994 239.067C209.36 239.067 209.669 238.995 209.92 238.851C210.173 238.707 210.364 238.521 210.493 238.294C210.623 238.066 210.689 237.827 210.689 237.576V236.728C210.65 236.775 210.563 236.818 210.43 236.857C210.299 236.894 210.147 236.927 209.975 236.956C209.805 236.982 209.638 237.005 209.476 237.026C209.317 237.044 209.187 237.06 209.088 237.073C208.847 237.105 208.622 237.156 208.413 237.226C208.206 237.294 208.039 237.398 207.911 237.536C207.785 237.672 207.722 237.858 207.722 238.093C207.722 238.415 207.841 238.659 208.079 238.823C208.32 238.986 208.625 239.067 208.994 239.067ZM214.231 231.721V239.757H213.305V231.721H214.231Z" fill="#3F4346"/>
<g clip-path="url(#clip1_2038_27395)">
<path d="M414.44 233.514L411.421 236.527L408.402 233.514L407.475 234.442L411.421 238.388L415.368 234.442L414.44 233.514Z" fill="#5D6164"/>
</g>
<rect x="136.023" y="220.366" width="289.211" height="30.7821" rx="2.7625" stroke="#D5D9DC" stroke-width="0.789286"/>
<rect width="42.3143" height="10" transform="translate(141.943 215.236)" fill="white"/>
<path d="M148.934 218.931C148.901 218.647 148.764 218.426 148.525 218.269C148.286 218.112 147.993 218.034 147.645 218.034C147.391 218.034 147.169 218.075 146.978 218.157C146.789 218.239 146.642 218.352 146.535 218.496C146.43 218.64 146.378 218.804 146.378 218.987C146.378 219.14 146.415 219.272 146.487 219.382C146.562 219.49 146.657 219.581 146.773 219.654C146.889 219.725 147.011 219.784 147.138 219.83C147.265 219.875 147.382 219.912 147.488 219.94L148.071 220.097C148.221 220.136 148.387 220.19 148.57 220.259C148.755 220.328 148.932 220.423 149.1 220.542C149.27 220.66 149.41 220.811 149.52 220.996C149.63 221.181 149.686 221.408 149.686 221.677C149.686 221.988 149.604 222.268 149.442 222.518C149.281 222.769 149.046 222.968 148.735 223.115C148.427 223.263 148.052 223.337 147.611 223.337C147.2 223.337 146.844 223.27 146.544 223.138C146.245 223.005 146.009 222.82 145.837 222.583C145.667 222.345 145.571 222.07 145.548 221.756H146.266C146.285 221.973 146.358 222.152 146.485 222.294C146.614 222.434 146.776 222.539 146.972 222.608C147.17 222.675 147.383 222.709 147.611 222.709C147.877 222.709 148.115 222.666 148.326 222.58C148.537 222.492 148.705 222.371 148.828 222.216C148.951 222.059 149.013 221.875 149.013 221.666C149.013 221.476 148.96 221.32 148.853 221.201C148.747 221.081 148.606 220.984 148.433 220.909C148.259 220.835 148.071 220.769 147.869 220.713L147.163 220.511C146.714 220.382 146.359 220.198 146.098 219.959C145.836 219.72 145.705 219.407 145.705 219.02C145.705 218.699 145.792 218.419 145.966 218.179C146.142 217.938 146.377 217.752 146.672 217.619C146.97 217.484 147.301 217.417 147.667 217.417C148.037 217.417 148.366 217.483 148.654 217.616C148.942 217.747 149.17 217.926 149.338 218.154C149.508 218.382 149.598 218.641 149.607 218.931H148.934ZM150.828 217.496H151.658L153.609 222.26H153.676L155.627 217.496H156.457V223.236H155.806V218.875H155.75L153.956 223.236H153.329L151.535 218.875H151.479V223.236H150.828V217.496ZM160.989 218.931C160.956 218.647 160.819 218.426 160.58 218.269C160.341 218.112 160.048 218.034 159.7 218.034C159.446 218.034 159.224 218.075 159.033 218.157C158.844 218.239 158.697 218.352 158.59 218.496C158.486 218.64 158.433 218.804 158.433 218.987C158.433 219.14 158.47 219.272 158.543 219.382C158.617 219.49 158.713 219.581 158.828 219.654C158.944 219.725 159.066 219.784 159.193 219.83C159.32 219.875 159.437 219.912 159.543 219.94L160.126 220.097C160.276 220.136 160.442 220.19 160.625 220.259C160.81 220.328 160.987 220.423 161.155 220.542C161.325 220.66 161.465 220.811 161.575 220.996C161.686 221.181 161.741 221.408 161.741 221.677C161.741 221.988 161.659 222.268 161.497 222.518C161.336 222.769 161.101 222.968 160.79 223.115C160.482 223.263 160.107 223.337 159.667 223.337C159.255 223.337 158.899 223.27 158.599 223.138C158.3 223.005 158.064 222.82 157.892 222.583C157.722 222.345 157.626 222.07 157.604 221.756H158.321C158.34 221.973 158.413 222.152 158.54 222.294C158.669 222.434 158.831 222.539 159.027 222.608C159.226 222.675 159.439 222.709 159.667 222.709C159.932 222.709 160.17 222.666 160.381 222.58C160.592 222.492 160.76 222.371 160.883 222.216C161.006 222.059 161.068 221.875 161.068 221.666C161.068 221.476 161.015 221.32 160.908 221.201C160.802 221.081 160.662 220.984 160.488 220.909C160.314 220.835 160.126 220.769 159.924 220.713L159.218 220.511C158.77 220.382 158.415 220.198 158.153 219.959C157.891 219.72 157.761 219.407 157.761 219.02C157.761 218.699 157.847 218.419 158.021 218.179C158.197 217.938 158.432 217.752 158.728 217.619C159.025 217.484 159.356 217.417 159.723 217.417C160.093 217.417 160.421 217.483 160.709 217.616C160.997 217.747 161.225 217.926 161.393 218.154C161.563 218.382 161.653 218.641 161.662 218.931H160.989ZM166.886 218.931V219.491H164.655V218.931H166.886ZM165.305 217.899H165.967V222.003C165.967 222.189 165.994 222.33 166.048 222.423C166.104 222.515 166.175 222.576 166.261 222.608C166.349 222.638 166.441 222.653 166.538 222.653C166.611 222.653 166.671 222.649 166.718 222.642C166.765 222.632 166.802 222.625 166.83 222.619L166.964 223.213C166.92 223.23 166.857 223.247 166.777 223.264C166.696 223.282 166.594 223.292 166.471 223.292C166.284 223.292 166.101 223.252 165.922 223.171C165.744 223.091 165.597 222.969 165.479 222.804C165.363 222.64 165.305 222.432 165.305 222.182V217.899ZM168.307 224.85C168.195 224.85 168.095 224.841 168.007 224.822C167.919 224.805 167.859 224.789 167.825 224.772L167.993 224.189C168.154 224.23 168.296 224.245 168.419 224.234C168.542 224.222 168.652 224.167 168.747 224.068C168.844 223.971 168.933 223.813 169.013 223.595L169.137 223.258L167.545 218.931H168.262L169.451 222.361H169.495L170.684 218.931H171.401L169.574 223.864C169.492 224.086 169.39 224.27 169.268 224.416C169.147 224.563 169.006 224.673 168.845 224.744C168.686 224.815 168.507 224.85 168.307 224.85ZM172.274 224.85V218.931H172.914V219.614H172.992C173.041 219.54 173.108 219.444 173.194 219.329C173.282 219.211 173.407 219.106 173.569 219.015C173.734 218.921 173.956 218.875 174.236 218.875C174.599 218.875 174.919 218.965 175.195 219.146C175.472 219.328 175.687 219.585 175.843 219.917C175.998 220.25 176.075 220.642 176.075 221.094C176.075 221.55 175.998 221.946 175.843 222.28C175.687 222.613 175.473 222.87 175.198 223.054C174.923 223.235 174.606 223.325 174.248 223.325C173.971 223.325 173.75 223.28 173.583 223.188C173.417 223.095 173.289 222.989 173.199 222.871C173.11 222.752 173.041 222.653 172.992 222.574H172.936V224.85H172.274ZM172.925 221.083C172.925 221.408 172.972 221.695 173.068 221.944C173.163 222.19 173.302 222.384 173.485 222.524C173.668 222.662 173.893 222.731 174.158 222.731C174.435 222.731 174.665 222.658 174.85 222.513C175.037 222.365 175.177 222.167 175.271 221.918C175.366 221.668 175.414 221.39 175.414 221.083C175.414 220.78 175.367 220.508 175.274 220.265C175.182 220.02 175.043 219.827 174.856 219.685C174.671 219.541 174.438 219.469 174.158 219.469C173.889 219.469 173.663 219.537 173.48 219.673C173.297 219.808 173.158 219.997 173.065 220.24C172.971 220.481 172.925 220.762 172.925 221.083ZM178.889 223.325C178.474 223.325 178.117 223.234 177.816 223.051C177.517 222.866 177.286 222.608 177.123 222.277C176.963 221.945 176.882 221.558 176.882 221.117C176.882 220.676 176.963 220.287 177.123 219.951C177.286 219.613 177.512 219.349 177.802 219.16C178.093 218.97 178.433 218.875 178.822 218.875C179.046 218.875 179.268 218.912 179.486 218.987C179.705 219.061 179.904 219.183 180.083 219.351C180.263 219.517 180.406 219.738 180.512 220.012C180.619 220.287 180.672 220.625 180.672 221.027V221.307H177.353V220.736H179.999C179.999 220.493 179.951 220.276 179.853 220.085C179.758 219.895 179.622 219.744 179.444 219.634C179.269 219.524 179.061 219.469 178.822 219.469C178.558 219.469 178.331 219.534 178.138 219.665C177.947 219.794 177.801 219.962 177.698 220.169C177.595 220.377 177.544 220.599 177.544 220.837V221.218C177.544 221.543 177.6 221.818 177.712 222.045C177.826 222.269 177.984 222.44 178.186 222.557C178.388 222.673 178.622 222.731 178.889 222.731C179.063 222.731 179.22 222.707 179.36 222.658C179.502 222.608 179.625 222.533 179.727 222.434C179.83 222.333 179.909 222.208 179.966 222.059L180.605 222.238C180.537 222.455 180.424 222.645 180.265 222.81C180.107 222.972 179.91 223.099 179.677 223.191C179.443 223.281 179.181 223.325 178.889 223.325Z" fill="#3F4346"/>
<g filter="url(#filter1_d_2038_27395)">
<g clip-path="url(#clip2_2038_27395)">
<rect x="135.629" y="255.329" width="290" height="88" rx="4" fill="white"/>
<rect width="290" height="44" transform="translate(135.629 255.329)" fill="#4DA0FF" fill-opacity="0.16"/>
<path d="M148.305 273.241V272.147H155.941V273.241H152.739V282.329H151.506V273.241H148.305ZM156.892 282.329V274.692H158.025V275.846H158.105C158.244 275.468 158.496 275.161 158.861 274.926C159.225 274.691 159.636 274.573 160.094 274.573C160.18 274.573 160.288 274.575 160.417 274.578C160.546 274.581 160.644 274.586 160.71 274.593V275.786C160.67 275.776 160.579 275.761 160.437 275.741C160.297 275.718 160.15 275.706 159.994 275.706C159.623 275.706 159.292 275.784 159 275.94C158.712 276.093 158.483 276.305 158.314 276.576C158.148 276.845 158.065 277.152 158.065 277.496V282.329H156.892ZM164.348 282.508C163.864 282.508 163.425 282.416 163.031 282.234C162.636 282.049 162.323 281.782 162.091 281.434C161.859 281.082 161.743 280.658 161.743 280.161C161.743 279.723 161.829 279.369 162.001 279.097C162.174 278.822 162.404 278.607 162.693 278.451C162.981 278.295 163.299 278.179 163.647 278.103C163.998 278.023 164.351 277.96 164.706 277.914C165.17 277.854 165.546 277.809 165.835 277.78C166.126 277.746 166.338 277.692 166.471 277.616C166.607 277.539 166.675 277.407 166.675 277.218V277.178C166.675 276.688 166.541 276.306 166.272 276.035C166.007 275.763 165.604 275.627 165.064 275.627C164.504 275.627 164.065 275.75 163.746 275.995C163.428 276.24 163.205 276.502 163.075 276.78L161.962 276.383C162.161 275.919 162.426 275.557 162.757 275.299C163.092 275.037 163.456 274.855 163.851 274.752C164.249 274.646 164.64 274.593 165.024 274.593C165.269 274.593 165.551 274.623 165.869 274.682C166.191 274.739 166.501 274.856 166.799 275.035C167.101 275.214 167.351 275.484 167.55 275.846C167.749 276.207 167.848 276.691 167.848 277.297V282.329H166.675V281.295H166.615C166.536 281.46 166.403 281.638 166.217 281.826C166.032 282.015 165.785 282.176 165.477 282.309C165.168 282.441 164.792 282.508 164.348 282.508ZM164.527 281.454C164.991 281.454 165.382 281.362 165.7 281.18C166.022 280.998 166.264 280.763 166.426 280.474C166.592 280.186 166.675 279.883 166.675 279.564V278.491C166.625 278.55 166.516 278.605 166.347 278.655C166.181 278.701 165.989 278.742 165.77 278.779C165.555 278.812 165.344 278.842 165.139 278.868C164.936 278.892 164.772 278.911 164.646 278.928C164.341 278.968 164.056 279.032 163.791 279.122C163.529 279.208 163.317 279.339 163.155 279.515C162.996 279.687 162.916 279.922 162.916 280.221C162.916 280.628 163.067 280.937 163.369 281.145C163.674 281.351 164.06 281.454 164.527 281.454ZM171.163 277.735V282.329H169.99V274.692H171.123V275.885H171.223C171.402 275.498 171.673 275.186 172.038 274.951C172.402 274.712 172.873 274.593 173.45 274.593C173.967 274.593 174.419 274.699 174.807 274.911C175.195 275.12 175.496 275.438 175.712 275.866C175.927 276.29 176.035 276.827 176.035 277.476V282.329H174.862V277.556C174.862 276.956 174.706 276.489 174.394 276.154C174.083 275.816 173.655 275.647 173.112 275.647C172.737 275.647 172.402 275.728 172.107 275.89C171.816 276.053 171.585 276.29 171.416 276.601C171.247 276.913 171.163 277.291 171.163 277.735ZM183.588 276.402L182.534 276.701C182.468 276.525 182.37 276.354 182.241 276.189C182.115 276.02 181.943 275.88 181.724 275.771C181.505 275.662 181.225 275.607 180.884 275.607C180.416 275.607 180.027 275.715 179.715 275.93C179.407 276.142 179.253 276.412 179.253 276.741C179.253 277.032 179.359 277.263 179.571 277.432C179.783 277.601 180.115 277.741 180.565 277.854L181.699 278.133C182.382 278.298 182.89 278.552 183.225 278.893C183.56 279.231 183.727 279.667 183.727 280.201C183.727 280.638 183.601 281.029 183.349 281.374C183.101 281.719 182.753 281.991 182.305 282.189C181.858 282.388 181.338 282.488 180.744 282.488C179.965 282.488 179.321 282.319 178.81 281.981C178.3 281.643 177.977 281.149 177.841 280.499L178.955 280.221C179.061 280.632 179.261 280.94 179.556 281.145C179.854 281.351 180.244 281.454 180.724 281.454C181.271 281.454 181.706 281.338 182.027 281.106C182.352 280.87 182.514 280.589 182.514 280.26C182.514 279.995 182.421 279.773 182.236 279.594C182.05 279.412 181.765 279.276 181.381 279.187L180.108 278.888C179.409 278.723 178.895 278.466 178.567 278.118C178.242 277.766 178.08 277.327 178.08 276.8C178.08 276.369 178.201 275.988 178.443 275.657C178.688 275.325 179.021 275.065 179.442 274.876C179.866 274.687 180.347 274.593 180.884 274.593C181.639 274.593 182.233 274.759 182.663 275.09C183.098 275.421 183.406 275.859 183.588 276.402ZM187.741 282.508C187.257 282.508 186.818 282.416 186.423 282.234C186.029 282.049 185.716 281.782 185.484 281.434C185.252 281.082 185.136 280.658 185.136 280.161C185.136 279.723 185.222 279.369 185.394 279.097C185.566 278.822 185.797 278.607 186.085 278.451C186.373 278.295 186.692 278.179 187.04 278.103C187.391 278.023 187.744 277.96 188.099 277.914C188.563 277.854 188.939 277.809 189.227 277.78C189.519 277.746 189.731 277.692 189.864 277.616C189.999 277.539 190.067 277.407 190.067 277.218V277.178C190.067 276.688 189.933 276.306 189.665 276.035C189.399 275.763 188.997 275.627 188.457 275.627C187.896 275.627 187.457 275.75 187.139 275.995C186.821 276.24 186.597 276.502 186.468 276.78L185.354 276.383C185.553 275.919 185.818 275.557 186.15 275.299C186.484 275.037 186.849 274.855 187.243 274.752C187.641 274.646 188.032 274.593 188.417 274.593C188.662 274.593 188.944 274.623 189.262 274.682C189.583 274.739 189.893 274.856 190.192 275.035C190.493 275.214 190.743 275.484 190.942 275.846C191.141 276.207 191.241 276.691 191.241 277.297V282.329H190.067V281.295H190.008C189.928 281.46 189.796 281.638 189.61 281.826C189.424 282.015 189.177 282.176 188.869 282.309C188.561 282.441 188.185 282.508 187.741 282.508ZM187.92 281.454C188.384 281.454 188.775 281.362 189.093 281.18C189.414 280.998 189.656 280.763 189.819 280.474C189.984 280.186 190.067 279.883 190.067 279.564V278.491C190.018 278.55 189.908 278.605 189.739 278.655C189.573 278.701 189.381 278.742 189.163 278.779C188.947 278.812 188.737 278.842 188.531 278.868C188.329 278.892 188.165 278.911 188.039 278.928C187.734 278.968 187.449 279.032 187.184 279.122C186.922 279.208 186.71 279.339 186.547 279.515C186.388 279.687 186.309 279.922 186.309 280.221C186.309 280.628 186.46 280.937 186.761 281.145C187.066 281.351 187.452 281.454 187.92 281.454ZM196.484 282.488C195.769 282.488 195.152 282.319 194.635 281.981C194.118 281.643 193.72 281.177 193.442 280.584C193.163 279.99 193.024 279.313 193.024 278.55C193.024 277.775 193.167 277.09 193.452 276.497C193.74 275.9 194.141 275.435 194.655 275.1C195.172 274.762 195.775 274.593 196.465 274.593C197.001 274.593 197.485 274.692 197.916 274.891C198.347 275.09 198.7 275.368 198.975 275.726C199.25 276.084 199.421 276.502 199.487 276.979H198.314C198.224 276.631 198.026 276.323 197.717 276.054C197.412 275.783 197.001 275.647 196.484 275.647C196.027 275.647 195.626 275.766 195.281 276.005C194.94 276.24 194.673 276.573 194.481 277.004C194.292 277.432 194.197 277.934 194.197 278.51C194.197 279.1 194.29 279.614 194.476 280.052C194.665 280.489 194.93 280.829 195.271 281.071C195.616 281.313 196.02 281.434 196.484 281.434C196.789 281.434 197.066 281.381 197.315 281.275C197.563 281.169 197.774 281.016 197.946 280.817C198.118 280.618 198.241 280.38 198.314 280.101H199.487C199.421 280.552 199.257 280.958 198.995 281.319C198.737 281.677 198.394 281.962 197.966 282.174C197.542 282.383 197.048 282.488 196.484 282.488ZM204.523 274.692V275.687H200.566V274.692H204.523ZM201.72 272.863H202.893V280.141C202.893 280.473 202.941 280.721 203.037 280.887C203.136 281.049 203.262 281.159 203.415 281.215C203.571 281.268 203.735 281.295 203.907 281.295C204.036 281.295 204.142 281.288 204.225 281.275C204.308 281.258 204.374 281.245 204.424 281.235L204.663 282.289C204.583 282.319 204.472 282.348 204.33 282.378C204.187 282.411 204.006 282.428 203.788 282.428C203.456 282.428 203.131 282.357 202.813 282.214C202.498 282.072 202.237 281.855 202.028 281.563C201.822 281.271 201.72 280.903 201.72 280.459V272.863ZM206.288 282.329V274.692H207.462V282.329H206.288ZM206.885 273.42C206.656 273.42 206.459 273.342 206.293 273.186C206.131 273.03 206.05 272.843 206.05 272.624C206.05 272.405 206.131 272.218 206.293 272.062C206.459 271.907 206.656 271.829 206.885 271.829C207.114 271.829 207.309 271.907 207.472 272.062C207.637 272.218 207.72 272.405 207.72 272.624C207.72 272.843 207.637 273.03 207.472 273.186C207.309 273.342 207.114 273.42 206.885 273.42ZM212.713 282.488C212.024 282.488 211.419 282.324 210.898 281.996C210.381 281.667 209.977 281.208 209.685 280.618C209.397 280.028 209.253 279.339 209.253 278.55C209.253 277.755 209.397 277.06 209.685 276.467C209.977 275.874 210.381 275.413 210.898 275.085C211.419 274.757 212.024 274.593 212.713 274.593C213.402 274.593 214.006 274.757 214.523 275.085C215.043 275.413 215.447 275.874 215.736 276.467C216.027 277.06 216.173 277.755 216.173 278.55C216.173 279.339 216.027 280.028 215.736 280.618C215.447 281.208 215.043 281.667 214.523 281.996C214.006 282.324 213.402 282.488 212.713 282.488ZM212.713 281.434C213.237 281.434 213.667 281.299 214.006 281.031C214.344 280.763 214.594 280.41 214.756 279.972C214.919 279.535 215 279.061 215 278.55C215 278.04 214.919 277.564 214.756 277.123C214.594 276.683 214.344 276.326 214.006 276.054C213.667 275.783 213.237 275.647 212.713 275.647C212.189 275.647 211.758 275.783 211.42 276.054C211.082 276.326 210.832 276.683 210.67 277.123C210.507 277.564 210.426 278.04 210.426 278.55C210.426 279.061 210.507 279.535 210.67 279.972C210.832 280.41 211.082 280.763 211.42 281.031C211.758 281.299 212.189 281.434 212.713 281.434ZM219.137 277.735V282.329H217.964V274.692H219.098V275.885H219.197C219.376 275.498 219.648 275.186 220.012 274.951C220.377 274.712 220.848 274.593 221.424 274.593C221.941 274.593 222.394 274.699 222.782 274.911C223.169 275.12 223.471 275.438 223.686 275.866C223.902 276.29 224.01 276.827 224.01 277.476V282.329H222.836V277.556C222.836 276.956 222.681 276.489 222.369 276.154C222.057 275.816 221.63 275.647 221.086 275.647C220.712 275.647 220.377 275.728 220.082 275.89C219.79 276.053 219.56 276.29 219.391 276.601C219.222 276.913 219.137 277.291 219.137 277.735ZM228.401 282.508C227.917 282.508 227.478 282.416 227.083 282.234C226.689 282.049 226.376 281.782 226.144 281.434C225.912 281.082 225.796 280.658 225.796 280.161C225.796 279.723 225.882 279.369 226.054 279.097C226.227 278.822 226.457 278.607 226.745 278.451C227.034 278.295 227.352 278.179 227.7 278.103C228.051 278.023 228.404 277.96 228.759 277.914C229.223 277.854 229.599 277.809 229.887 277.78C230.179 277.746 230.391 277.692 230.524 277.616C230.66 277.539 230.728 277.407 230.728 277.218V277.178C230.728 276.688 230.593 276.306 230.325 276.035C230.06 275.763 229.657 275.627 229.117 275.627C228.557 275.627 228.117 275.75 227.799 275.995C227.481 276.24 227.257 276.502 227.128 276.78L226.014 276.383C226.213 275.919 226.478 275.557 226.81 275.299C227.145 275.037 227.509 274.855 227.904 274.752C228.301 274.646 228.692 274.593 229.077 274.593C229.322 274.593 229.604 274.623 229.922 274.682C230.244 274.739 230.553 274.856 230.852 275.035C231.153 275.214 231.404 275.484 231.603 275.846C231.801 276.207 231.901 276.691 231.901 277.297V282.329H230.728V281.295H230.668C230.588 281.46 230.456 281.638 230.27 281.826C230.085 282.015 229.838 282.176 229.529 282.309C229.221 282.441 228.845 282.508 228.401 282.508ZM228.58 281.454C229.044 281.454 229.435 281.362 229.753 281.18C230.075 280.998 230.317 280.763 230.479 280.474C230.645 280.186 230.728 279.883 230.728 279.564V278.491C230.678 278.55 230.568 278.605 230.399 278.655C230.234 278.701 230.041 278.742 229.823 278.779C229.607 278.812 229.397 278.842 229.191 278.868C228.989 278.892 228.825 278.911 228.699 278.928C228.394 278.968 228.109 279.032 227.844 279.122C227.582 279.208 227.37 279.339 227.208 279.515C227.049 279.687 226.969 279.922 226.969 280.221C226.969 280.628 227.12 280.937 227.421 281.145C227.726 281.351 228.112 281.454 228.58 281.454ZM235.216 272.147V282.329H234.042V272.147H235.216Z" fill="#3F4346"/>
<path d="M148.862 326.329V316.147H152.302C153.101 316.147 153.754 316.291 154.261 316.579C154.771 316.864 155.149 317.25 155.394 317.738C155.639 318.225 155.762 318.768 155.762 319.368C155.762 319.968 155.639 320.514 155.394 321.004C155.152 321.495 154.778 321.886 154.271 322.177C153.764 322.466 153.114 322.61 152.322 322.61H149.856V321.516H152.282C152.829 321.516 153.268 321.422 153.599 321.233C153.931 321.044 154.171 320.789 154.32 320.467C154.473 320.142 154.549 319.776 154.549 319.368C154.549 318.961 154.473 318.596 154.32 318.275C154.171 317.953 153.929 317.701 153.595 317.519C153.26 317.333 152.816 317.241 152.262 317.241H150.095V326.329H148.862ZM157.589 326.329V318.692H158.723V319.846H158.802C158.941 319.468 159.193 319.161 159.558 318.926C159.923 318.691 160.334 318.573 160.791 318.573C160.877 318.573 160.985 318.575 161.114 318.578C161.243 318.581 161.341 318.586 161.407 318.593V319.786C161.368 319.776 161.276 319.761 161.134 319.741C160.995 319.718 160.847 319.706 160.691 319.706C160.32 319.706 159.989 319.784 159.697 319.94C159.409 320.093 159.18 320.305 159.011 320.576C158.845 320.845 158.762 321.152 158.762 321.496V326.329H157.589ZM165.668 326.488C164.979 326.488 164.374 326.324 163.853 325.996C163.336 325.667 162.932 325.208 162.64 324.618C162.352 324.028 162.208 323.339 162.208 322.55C162.208 321.755 162.352 321.06 162.64 320.467C162.932 319.874 163.336 319.413 163.853 319.085C164.374 318.757 164.979 318.593 165.668 318.593C166.357 318.593 166.961 318.757 167.478 319.085C167.998 319.413 168.402 319.874 168.691 320.467C168.982 321.06 169.128 321.755 169.128 322.55C169.128 323.339 168.982 324.028 168.691 324.618C168.402 325.208 167.998 325.667 167.478 325.996C166.961 326.324 166.357 326.488 165.668 326.488ZM165.668 325.434C166.192 325.434 166.623 325.299 166.961 325.031C167.299 324.763 167.549 324.41 167.711 323.972C167.874 323.535 167.955 323.061 167.955 322.55C167.955 322.04 167.874 321.564 167.711 321.123C167.549 320.683 167.299 320.326 166.961 320.054C166.623 319.783 166.192 319.647 165.668 319.647C165.144 319.647 164.713 319.783 164.375 320.054C164.037 320.326 163.787 320.683 163.625 321.123C163.462 321.564 163.381 322.04 163.381 322.55C163.381 323.061 163.462 323.535 163.625 323.972C163.787 324.41 164.037 324.763 164.375 325.031C164.713 325.299 165.144 325.434 165.668 325.434ZM170.919 326.329V318.692H172.053V319.885H172.152C172.311 319.478 172.568 319.161 172.923 318.936C173.277 318.707 173.703 318.593 174.201 318.593C174.704 318.593 175.124 318.707 175.458 318.936C175.796 319.161 176.06 319.478 176.249 319.885H176.328C176.524 319.491 176.817 319.178 177.208 318.946C177.599 318.71 178.068 318.593 178.615 318.593C179.298 318.593 179.857 318.807 180.291 319.234C180.725 319.658 180.942 320.32 180.942 321.218V326.329H179.769V321.218C179.769 320.654 179.615 320.252 179.306 320.01C178.998 319.768 178.635 319.647 178.218 319.647C177.681 319.647 177.265 319.809 176.97 320.134C176.675 320.456 176.527 320.863 176.527 321.357V326.329H175.334V321.098C175.334 320.664 175.193 320.315 174.911 320.049C174.63 319.781 174.267 319.647 173.823 319.647C173.518 319.647 173.233 319.728 172.968 319.89C172.706 320.053 172.494 320.278 172.331 320.567C172.172 320.852 172.093 321.181 172.093 321.556V326.329H170.919ZM186.19 326.488C185.5 326.488 184.895 326.324 184.375 325.996C183.858 325.667 183.453 325.208 183.162 324.618C182.873 324.028 182.729 323.339 182.729 322.55C182.729 321.755 182.873 321.06 183.162 320.467C183.453 319.874 183.858 319.413 184.375 319.085C184.895 318.757 185.5 318.593 186.19 318.593C186.879 318.593 187.482 318.757 187.999 319.085C188.52 319.413 188.924 319.874 189.212 320.467C189.504 321.06 189.65 321.755 189.65 322.55C189.65 323.339 189.504 324.028 189.212 324.618C188.924 325.208 188.52 325.667 187.999 325.996C187.482 326.324 186.879 326.488 186.19 326.488ZM186.19 325.434C186.713 325.434 187.144 325.299 187.482 325.031C187.82 324.763 188.07 324.41 188.233 323.972C188.395 323.535 188.476 323.061 188.476 322.55C188.476 322.04 188.395 321.564 188.233 321.123C188.07 320.683 187.82 320.326 187.482 320.054C187.144 319.783 186.713 319.647 186.19 319.647C185.666 319.647 185.235 319.783 184.897 320.054C184.559 320.326 184.309 320.683 184.146 321.123C183.984 321.564 183.903 322.04 183.903 322.55C183.903 323.061 183.984 323.535 184.146 323.972C184.309 324.41 184.559 324.763 184.897 325.031C185.235 325.299 185.666 325.434 186.19 325.434ZM194.762 318.692V319.687H190.804V318.692H194.762ZM191.958 316.863H193.131V324.141C193.131 324.473 193.179 324.721 193.275 324.887C193.375 325.049 193.501 325.159 193.653 325.215C193.809 325.268 193.973 325.295 194.145 325.295C194.275 325.295 194.381 325.288 194.463 325.275C194.546 325.258 194.613 325.245 194.662 325.235L194.901 326.289C194.821 326.319 194.71 326.348 194.568 326.378C194.425 326.411 194.245 326.428 194.026 326.428C193.695 326.428 193.37 326.357 193.052 326.214C192.737 326.072 192.475 325.855 192.266 325.563C192.061 325.271 191.958 324.903 191.958 324.459V316.863ZM196.527 326.329V318.692H197.7V326.329H196.527ZM197.123 317.42C196.895 317.42 196.697 317.342 196.532 317.186C196.369 317.03 196.288 316.843 196.288 316.624C196.288 316.405 196.369 316.218 196.532 316.062C196.697 315.907 196.895 315.829 197.123 315.829C197.352 315.829 197.548 315.907 197.71 316.062C197.876 316.218 197.959 316.405 197.959 316.624C197.959 316.843 197.876 317.03 197.71 317.186C197.548 317.342 197.352 317.42 197.123 317.42ZM202.951 326.488C202.262 326.488 201.657 326.324 201.137 325.996C200.62 325.667 200.215 325.208 199.924 324.618C199.635 324.028 199.491 323.339 199.491 322.55C199.491 321.755 199.635 321.06 199.924 320.467C200.215 319.874 200.62 319.413 201.137 319.085C201.657 318.757 202.262 318.593 202.951 318.593C203.641 318.593 204.244 318.757 204.761 319.085C205.281 319.413 205.686 319.874 205.974 320.467C206.266 321.06 206.411 321.755 206.411 322.55C206.411 323.339 206.266 324.028 205.974 324.618C205.686 325.208 205.281 325.667 204.761 325.996C204.244 326.324 203.641 326.488 202.951 326.488ZM202.951 325.434C203.475 325.434 203.906 325.299 204.244 325.031C204.582 324.763 204.832 324.41 204.995 323.972C205.157 323.535 205.238 323.061 205.238 322.55C205.238 322.04 205.157 321.564 204.995 321.123C204.832 320.683 204.582 320.326 204.244 320.054C203.906 319.783 203.475 319.647 202.951 319.647C202.428 319.647 201.997 319.783 201.659 320.054C201.321 320.326 201.07 320.683 200.908 321.123C200.745 321.564 200.664 322.04 200.664 322.55C200.664 323.061 200.745 323.535 200.908 323.972C201.07 324.41 201.321 324.763 201.659 325.031C201.997 325.299 202.428 325.434 202.951 325.434ZM209.376 321.735V326.329H208.202V318.692H209.336V319.885H209.435C209.614 319.498 209.886 319.186 210.251 318.951C210.615 318.712 211.086 318.593 211.663 318.593C212.18 318.593 212.632 318.699 213.02 318.911C213.408 319.12 213.709 319.438 213.925 319.866C214.14 320.29 214.248 320.827 214.248 321.476V326.329H213.075V321.556C213.075 320.956 212.919 320.489 212.607 320.154C212.296 319.816 211.868 319.647 211.325 319.647C210.95 319.647 210.615 319.728 210.32 319.89C210.029 320.053 209.798 320.29 209.629 320.601C209.46 320.913 209.376 321.291 209.376 321.735ZM218.639 326.508C218.155 326.508 217.716 326.416 217.322 326.234C216.927 326.049 216.614 325.782 216.382 325.434C216.15 325.082 216.034 324.658 216.034 324.161C216.034 323.723 216.12 323.369 216.292 323.097C216.465 322.822 216.695 322.607 216.984 322.451C217.272 322.295 217.59 322.179 217.938 322.103C218.289 322.023 218.642 321.96 218.997 321.914C219.461 321.854 219.837 321.809 220.126 321.78C220.417 321.746 220.629 321.692 220.762 321.616C220.898 321.539 220.966 321.407 220.966 321.218V321.178C220.966 320.688 220.832 320.306 220.563 320.035C220.298 319.763 219.895 319.627 219.355 319.627C218.795 319.627 218.356 319.75 218.038 319.995C217.719 320.24 217.496 320.502 217.366 320.78L216.253 320.383C216.452 319.919 216.717 319.557 217.048 319.299C217.383 319.037 217.748 318.855 218.142 318.752C218.54 318.646 218.931 318.593 219.315 318.593C219.56 318.593 219.842 318.623 220.16 318.682C220.482 318.739 220.792 318.856 221.09 319.035C221.392 319.214 221.642 319.484 221.841 319.846C222.04 320.207 222.139 320.691 222.139 321.297V326.329H220.966V325.295H220.906C220.827 325.46 220.694 325.638 220.508 325.826C220.323 326.015 220.076 326.176 219.768 326.309C219.459 326.441 219.083 326.508 218.639 326.508ZM218.818 325.454C219.282 325.454 219.673 325.362 219.991 325.18C220.313 324.998 220.555 324.763 220.717 324.474C220.883 324.186 220.966 323.883 220.966 323.564V322.491C220.916 322.55 220.807 322.605 220.638 322.655C220.472 322.701 220.28 322.742 220.061 322.779C219.846 322.812 219.635 322.842 219.43 322.868C219.227 322.892 219.063 322.911 218.937 322.928C218.632 322.968 218.347 323.032 218.082 323.122C217.82 323.208 217.608 323.339 217.446 323.515C217.287 323.687 217.207 323.922 217.207 324.221C217.207 324.628 217.358 324.937 217.66 325.145C217.965 325.351 218.351 325.454 218.818 325.454ZM225.454 316.147V326.329H224.281V316.147H225.454Z" fill="#3F4346"/>
</g>
</g>
<rect x="123.359" y="100.359" width="314.282" height="179.239" rx="5.38393" stroke="#D5D9DC" stroke-width="0.717857" shape-rendering="crispEdges"/>
</g>
<g filter="url(#filter2_d_2038_27395)">
<rect x="392" y="288" width="108.418" height="36.3342" rx="3.63342" fill="#1E75BA" shape-rendering="crispEdges"/>
<path d="M412.594 303.848C412.546 303.42 412.347 303.089 411.998 302.854C411.649 302.617 411.209 302.498 410.679 302.498C410.3 302.498 409.972 302.558 409.695 302.678C409.418 302.796 409.203 302.958 409.049 303.166C408.899 303.371 408.823 303.604 408.823 303.866C408.823 304.086 408.874 304.276 408.977 304.435C409.082 304.595 409.219 304.729 409.388 304.837C409.559 304.942 409.743 305.031 409.939 305.103C410.134 305.173 410.323 305.23 410.503 305.275L411.406 305.51C411.701 305.582 412.004 305.68 412.314 305.803C412.624 305.927 412.912 306.089 413.177 306.291C413.442 306.493 413.655 306.743 413.818 307.041C413.984 307.339 414.066 307.696 414.066 308.111C414.066 308.635 413.931 309.1 413.66 309.507C413.392 309.913 413.002 310.234 412.49 310.468C411.981 310.703 411.366 310.821 410.643 310.821C409.951 310.821 409.352 310.711 408.846 310.491C408.34 310.271 407.944 309.96 407.658 309.556C407.372 309.15 407.214 308.668 407.184 308.111H408.584C408.611 308.445 408.719 308.724 408.909 308.947C409.102 309.166 409.347 309.33 409.645 309.439C409.946 309.544 410.276 309.597 410.634 309.597C411.029 309.597 411.379 309.535 411.686 309.412C411.996 309.285 412.24 309.111 412.418 308.888C412.596 308.662 412.684 308.399 412.684 308.098C412.684 307.824 412.606 307.599 412.45 307.425C412.296 307.25 412.087 307.106 411.822 306.991C411.56 306.877 411.263 306.776 410.932 306.689L409.839 306.39C409.099 306.189 408.512 305.892 408.078 305.501C407.648 305.109 407.432 304.592 407.432 303.947C407.432 303.414 407.577 302.949 407.866 302.552C408.155 302.155 408.546 301.846 409.04 301.626C409.534 301.403 410.091 301.292 410.711 301.292C411.337 301.292 411.89 301.402 412.368 301.622C412.85 301.841 413.229 302.144 413.506 302.529C413.783 302.912 413.928 303.351 413.94 303.848H412.594ZM418.615 310.807C417.932 310.807 417.343 310.661 416.849 310.369C416.359 310.074 415.979 309.66 415.711 309.127C415.446 308.591 415.314 307.964 415.314 307.244C415.314 306.533 415.446 305.907 415.711 305.365C415.979 304.823 416.353 304.4 416.831 304.096C417.313 303.792 417.876 303.64 418.52 303.64C418.912 303.64 419.291 303.705 419.658 303.834C420.025 303.964 420.355 304.167 420.647 304.444C420.939 304.721 421.17 305.081 421.338 305.523C421.507 305.963 421.591 306.497 421.591 307.127V307.605H416.077V306.594H420.268C420.268 306.238 420.196 305.924 420.051 305.65C419.907 305.373 419.703 305.155 419.441 304.995C419.183 304.835 418.878 304.756 418.529 304.756C418.15 304.756 417.819 304.849 417.536 305.036C417.256 305.219 417.039 305.46 416.885 305.758C416.735 306.053 416.66 306.374 416.66 306.72V307.51C416.66 307.974 416.741 308.368 416.903 308.694C417.069 309.019 417.299 309.267 417.594 309.439C417.889 309.607 418.234 309.692 418.629 309.692C418.884 309.692 419.118 309.656 419.329 309.583C419.539 309.508 419.721 309.397 419.875 309.249C420.029 309.102 420.146 308.919 420.227 308.703L421.505 308.933C421.403 309.309 421.219 309.639 420.954 309.922C420.692 310.202 420.363 310.42 419.965 310.577C419.571 310.73 419.121 310.807 418.615 310.807ZM424.439 306.549V310.667H423.089V303.731H424.385V304.86H424.471C424.631 304.492 424.881 304.197 425.221 303.974C425.564 303.752 425.996 303.64 426.517 303.64C426.989 303.64 427.403 303.74 427.759 303.938C428.114 304.134 428.389 304.426 428.585 304.814C428.781 305.203 428.879 305.683 428.879 306.255V310.667H427.528V306.418C427.528 305.915 427.397 305.522 427.136 305.239C426.874 304.953 426.514 304.81 426.056 304.81C425.743 304.81 425.465 304.878 425.221 305.013C424.98 305.149 424.789 305.347 424.647 305.609C424.509 305.868 424.439 306.181 424.439 306.549ZM433.286 310.803C432.726 310.803 432.227 310.66 431.787 310.374C431.35 310.085 431.007 309.674 430.757 309.141C430.51 308.605 430.387 307.962 430.387 307.212C430.387 306.463 430.512 305.821 430.762 305.289C431.015 304.756 431.361 304.348 431.801 304.065C432.24 303.782 432.738 303.64 433.295 303.64C433.726 303.64 434.072 303.713 434.334 303.857C434.599 303.999 434.804 304.164 434.948 304.354C435.096 304.543 435.21 304.711 435.291 304.855H435.373V301.418H436.723V310.667H435.404V309.588H435.291C435.21 309.735 435.093 309.904 434.939 310.094C434.789 310.283 434.581 310.449 434.316 310.59C434.051 310.732 433.708 310.803 433.286 310.803ZM433.584 309.651C433.973 309.651 434.301 309.549 434.569 309.344C434.84 309.136 435.044 308.849 435.183 308.481C435.324 308.114 435.395 307.687 435.395 307.199C435.395 306.717 435.326 306.296 435.187 305.934C435.049 305.573 434.846 305.292 434.578 305.09C434.31 304.888 433.979 304.787 433.584 304.787C433.178 304.787 432.839 304.893 432.568 305.103C432.297 305.314 432.093 305.602 431.954 305.966C431.819 306.33 431.751 306.741 431.751 307.199C431.751 307.662 431.82 308.079 431.959 308.45C432.097 308.82 432.302 309.114 432.573 309.33C432.847 309.544 433.184 309.651 433.584 309.651ZM447.168 303.848C447.12 303.42 446.921 303.089 446.572 302.854C446.223 302.617 445.783 302.498 445.254 302.498C444.874 302.498 444.546 302.558 444.269 302.678C443.992 302.796 443.777 302.958 443.623 303.166C443.473 303.371 443.398 303.604 443.398 303.866C443.398 304.086 443.449 304.276 443.551 304.435C443.656 304.595 443.793 304.729 443.962 304.837C444.134 304.942 444.317 305.031 444.513 305.103C444.709 305.173 444.897 305.23 445.077 305.275L445.981 305.51C446.276 305.582 446.578 305.68 446.888 305.803C447.198 305.927 447.486 306.089 447.751 306.291C448.016 306.493 448.23 306.743 448.392 307.041C448.558 307.339 448.641 307.696 448.641 308.111C448.641 308.635 448.505 309.1 448.234 309.507C447.966 309.913 447.576 310.234 447.064 310.468C446.556 310.703 445.94 310.821 445.217 310.821C444.525 310.821 443.926 310.711 443.42 310.491C442.914 310.271 442.518 309.96 442.232 309.556C441.946 309.15 441.788 308.668 441.758 308.111H443.158C443.185 308.445 443.294 308.724 443.483 308.947C443.676 309.166 443.921 309.33 444.219 309.439C444.52 309.544 444.85 309.597 445.208 309.597C445.603 309.597 445.954 309.535 446.261 309.412C446.571 309.285 446.815 309.111 446.992 308.888C447.17 308.662 447.259 308.399 447.259 308.098C447.259 307.824 447.18 307.599 447.024 307.425C446.87 307.25 446.661 307.106 446.396 306.991C446.134 306.877 445.838 306.776 445.506 306.689L444.414 306.39C443.673 306.189 443.086 305.892 442.652 305.501C442.222 305.109 442.007 304.592 442.007 303.947C442.007 303.414 442.151 302.949 442.44 302.552C442.729 302.155 443.121 301.846 443.614 301.626C444.108 301.403 444.665 301.292 445.285 301.292C445.911 301.292 446.464 301.402 446.943 301.622C447.424 301.841 447.804 302.144 448.081 302.529C448.358 302.912 448.502 303.351 448.514 303.848H447.168ZM450.308 301.418H452.002L454.946 308.608H455.054L457.999 301.418H459.692V310.667H458.365V303.974H458.279L455.551 310.654H454.449L451.722 303.97H451.636V310.667H450.308V301.418ZM466.765 303.848C466.717 303.42 466.519 303.089 466.169 302.854C465.82 302.617 465.38 302.498 464.851 302.498C464.471 302.498 464.143 302.558 463.866 302.678C463.589 302.796 463.374 302.958 463.22 303.166C463.07 303.371 462.995 303.604 462.995 303.866C462.995 304.086 463.046 304.276 463.148 304.435C463.253 304.595 463.39 304.729 463.559 304.837C463.731 304.942 463.914 305.031 464.11 305.103C464.306 305.173 464.494 305.23 464.674 305.275L465.578 305.51C465.873 305.582 466.175 305.68 466.485 305.803C466.795 305.927 467.083 306.089 467.348 306.291C467.613 306.493 467.827 306.743 467.989 307.041C468.155 307.339 468.238 307.696 468.238 308.111C468.238 308.635 468.102 309.1 467.831 309.507C467.563 309.913 467.173 310.234 466.662 310.468C466.153 310.703 465.537 310.821 464.814 310.821C464.122 310.821 463.523 310.711 463.017 310.491C462.511 310.271 462.115 309.96 461.829 309.556C461.543 309.15 461.385 308.668 461.355 308.111H462.755C462.782 308.445 462.891 308.724 463.08 308.947C463.273 309.166 463.518 309.33 463.816 309.439C464.118 309.544 464.447 309.597 464.805 309.597C465.2 309.597 465.551 309.535 465.858 309.412C466.168 309.285 466.412 309.111 466.589 308.888C466.767 308.662 466.856 308.399 466.856 308.098C466.856 307.824 466.777 307.599 466.621 307.425C466.467 307.25 466.258 307.106 465.993 306.991C465.731 306.877 465.435 306.776 465.104 306.689L464.011 306.39C463.27 306.189 462.683 305.892 462.249 305.501C461.819 305.109 461.604 304.592 461.604 303.947C461.604 303.414 461.748 302.949 462.037 302.552C462.326 302.155 462.718 301.846 463.211 301.626C463.705 301.403 464.262 301.292 464.882 301.292C465.508 301.292 466.061 301.402 466.54 301.622C467.021 301.841 467.401 302.144 467.678 302.529C467.955 302.912 468.099 303.351 468.111 303.848H466.765Z" fill="white"/>
<path d="M475.558 302.1L480.675 304.294L475.552 303.612L475.558 302.1ZM480.668 308.041L475.552 310.234V308.722L480.668 308.041ZM474.196 300.036L474.189 304.805L484.408 306.167L474.189 307.53L474.196 312.298L488.496 306.167L474.196 300.036Z" fill="white"/>
</g>
<mask id="mask0_2038_27395" style="mask-type:alpha" maskUnits="userSpaceOnUse" x="428" y="320" width="120" height="120">
<rect x="428" y="320" width="120" height="120" fill="#D9D9D9"/>
</mask>
<g mask="url(#mask0_2038_27395)">
<path d="M443 420V340L538 380L443 420ZM453 405L512.25 380L453 355V372.5L483 380L453 387.5V405ZM453 405V355V387.5V405Z" fill="#DBEAF6"/>
</g>
<defs>
<filter id="filter0_d_2038_27395" x="107" y="92" width="339" height="267.329" filterUnits="userSpaceOnUse" color-interpolation-filters="sRGB">
<feFlood flood-opacity="0" result="BackgroundImageFix"/>
<feColorMatrix in="SourceAlpha" type="matrix" values="0 0 0 0 0 0 0 0 0 0 0 0 0 0 0 0 0 0 127 0" result="hardAlpha"/>
<feOffset dx="-4" dy="4"/>
<feGaussianBlur stdDeviation="6"/>
<feComposite in2="hardAlpha" operator="out"/>
<feColorMatrix type="matrix" values="0 0 0 0 0 0 0 0 0 0 0 0 0 0 0 0 0 0 0.1 0"/>
<feBlend mode="normal" in2="BackgroundImageFix" result="effect1_dropShadow_2038_27395"/>
<feBlend mode="normal" in="SourceGraphic" in2="effect1_dropShadow_2038_27395" result="shape"/>
</filter>
<filter id="filter1_d_2038_27395" x="125.629" y="249.329" width="310" height="108" filterUnits="userSpaceOnUse" color-interpolation-filters="sRGB">
<feFlood flood-opacity="0" result="BackgroundImageFix"/>
<feColorMatrix in="SourceAlpha" type="matrix" values="0 0 0 0 0 0 0 0 0 0 0 0 0 0 0 0 0 0 127 0" result="hardAlpha"/>
<feOffset dy="4"/>
<feGaussianBlur stdDeviation="5"/>
<feComposite in2="hardAlpha" operator="out"/>
<feColorMatrix type="matrix" values="0 0 0 0 0 0 0 0 0 0 0 0 0 0 0 0 0 0 0.25 0"/>
<feBlend mode="normal" in2="BackgroundImageFix" result="effect1_dropShadow_2038_27395"/>
<feBlend mode="normal" in="SourceGraphic" in2="effect1_dropShadow_2038_27395" result="shape"/>
</filter>
<filter id="filter2_d_2038_27395" x="388.853" y="288" width="114.712" height="42.6289" filterUnits="userSpaceOnUse" color-interpolation-filters="sRGB">
<feFlood flood-opacity="0" result="BackgroundImageFix"/>
<feColorMatrix in="SourceAlpha" type="matrix" values="0 0 0 0 0 0 0 0 0 0 0 0 0 0 0 0 0 0 127 0" result="hardAlpha"/>
<feOffset dy="3.14737"/>
<feGaussianBlur stdDeviation="1.57368"/>
<feComposite in2="hardAlpha" operator="out"/>
<feColorMatrix type="matrix" values="0 0 0 0 0 0 0 0 0 0 0 0 0 0 0 0 0 0 0.25 0"/>
<feBlend mode="normal" in2="BackgroundImageFix" result="effect1_dropShadow_2038_27395"/>
<feBlend mode="normal" in="SourceGraphic" in2="effect1_dropShadow_2038_27395" result="shape"/>
</filter>
<clipPath id="clip0_2038_27395">
<rect width="15.7857" height="15.7857" fill="white" transform="translate(403.529 172.614)"/>
</clipPath>
<clipPath id="clip1_2038_27395">
<rect width="15.7857" height="15.7857" fill="white" transform="translate(403.529 227.864)"/>
</clipPath>
<clipPath id="clip2_2038_27395">
<rect x="135.629" y="255.329" width="290" height="88" rx="4" fill="white"/>
</clipPath>
</defs>
</svg>
