<svg width="600" height="451" viewBox="0 0 600 451" fill="none" xmlns="http://www.w3.org/2000/svg">
<g filter="url(#filter0_dd_6446_32259)">
<rect x="372" y="251" width="156" height="36" rx="18" fill="#F6EFFC" shape-rendering="crispEdges"/>
<path d="M391.408 276V265.52H388.176V264.08H396.176V265.52H392.992V276H391.408ZM400.354 276.192C399.522 276.192 398.781 275.995 398.13 275.6C397.48 275.205 396.968 274.667 396.594 273.984C396.221 273.291 396.034 272.517 396.034 271.664C396.034 270.8 396.216 270.032 396.578 269.36C396.952 268.688 397.453 268.16 398.082 267.776C398.722 267.381 399.437 267.184 400.226 267.184C400.866 267.184 401.432 267.301 401.922 267.536C402.424 267.76 402.845 268.069 403.186 268.464C403.538 268.848 403.805 269.291 403.986 269.792C404.178 270.283 404.274 270.795 404.274 271.328C404.274 271.445 404.264 271.579 404.242 271.728C404.232 271.867 404.216 272 404.194 272.128H397.122V270.848H403.33L402.626 271.424C402.722 270.869 402.669 270.373 402.466 269.936C402.264 269.499 401.965 269.152 401.57 268.896C401.176 268.64 400.728 268.512 400.226 268.512C399.725 268.512 399.266 268.64 398.85 268.896C398.434 269.152 398.109 269.52 397.874 270C397.65 270.469 397.56 271.029 397.602 271.68C397.56 272.309 397.656 272.864 397.89 273.344C398.136 273.813 398.477 274.181 398.914 274.448C399.362 274.704 399.848 274.832 400.37 274.832C400.946 274.832 401.432 274.699 401.826 274.432C402.221 274.165 402.541 273.824 402.786 273.408L404.034 274.048C403.864 274.443 403.597 274.805 403.234 275.136C402.882 275.456 402.461 275.712 401.97 275.904C401.49 276.096 400.952 276.192 400.354 276.192ZM406.215 276V263.888H407.703V276H406.215ZM413.979 276.192C413.147 276.192 412.406 275.995 411.755 275.6C411.105 275.205 410.593 274.667 410.219 273.984C409.846 273.291 409.659 272.517 409.659 271.664C409.659 270.8 409.841 270.032 410.203 269.36C410.577 268.688 411.078 268.16 411.707 267.776C412.347 267.381 413.062 267.184 413.851 267.184C414.491 267.184 415.057 267.301 415.547 267.536C416.049 267.76 416.47 268.069 416.811 268.464C417.163 268.848 417.43 269.291 417.611 269.792C417.803 270.283 417.899 270.795 417.899 271.328C417.899 271.445 417.889 271.579 417.867 271.728C417.857 271.867 417.841 272 417.819 272.128H410.747V270.848H416.955L416.251 271.424C416.347 270.869 416.294 270.373 416.091 269.936C415.889 269.499 415.59 269.152 415.195 268.896C414.801 268.64 414.353 268.512 413.851 268.512C413.35 268.512 412.891 268.64 412.475 268.896C412.059 269.152 411.734 269.52 411.499 270C411.275 270.469 411.185 271.029 411.227 271.68C411.185 272.309 411.281 272.864 411.515 273.344C411.761 273.813 412.102 274.181 412.539 274.448C412.987 274.704 413.473 274.832 413.995 274.832C414.571 274.832 415.057 274.699 415.451 274.432C415.846 274.165 416.166 273.824 416.411 273.408L417.659 274.048C417.489 274.443 417.222 274.805 416.859 275.136C416.507 275.456 416.086 275.712 415.595 275.904C415.115 276.096 414.577 276.192 413.979 276.192ZM423.84 276.192C422.997 276.192 422.245 275.995 421.584 275.6C420.933 275.205 420.421 274.667 420.048 273.984C419.674 273.301 419.488 272.533 419.488 271.68C419.488 270.816 419.674 270.048 420.048 269.376C420.421 268.704 420.933 268.171 421.584 267.776C422.245 267.381 422.997 267.184 423.84 267.184C424.405 267.184 424.933 267.285 425.424 267.488C425.914 267.691 426.346 267.963 426.72 268.304C427.093 268.645 427.365 269.045 427.536 269.504L426.208 270.144C426.005 269.696 425.696 269.333 425.28 269.056C424.864 268.768 424.384 268.624 423.84 268.624C423.317 268.624 422.842 268.757 422.416 269.024C422 269.291 421.669 269.653 421.424 270.112C421.178 270.571 421.056 271.099 421.056 271.696C421.056 272.272 421.178 272.795 421.424 273.264C421.669 273.723 422 274.085 422.416 274.352C422.842 274.619 423.317 274.752 423.84 274.752C424.384 274.752 424.864 274.613 425.28 274.336C425.696 274.048 426.005 273.669 426.208 273.2L427.536 273.872C427.365 274.32 427.093 274.72 426.72 275.072C426.346 275.413 425.914 275.685 425.424 275.888C424.933 276.091 424.405 276.192 423.84 276.192ZM433.576 276.192C432.744 276.192 431.992 276 431.32 275.616C430.648 275.221 430.115 274.683 429.72 274C429.325 273.317 429.128 272.544 429.128 271.68C429.128 270.816 429.32 270.048 429.704 269.376C430.099 268.704 430.632 268.171 431.304 267.776C431.976 267.381 432.733 267.184 433.576 267.184C434.408 267.184 435.16 267.381 435.832 267.776C436.504 268.16 437.032 268.688 437.416 269.36C437.811 270.032 438.008 270.805 438.008 271.68C438.008 272.555 437.805 273.333 437.4 274.016C436.995 274.688 436.456 275.221 435.784 275.616C435.123 276 434.387 276.192 433.576 276.192ZM433.576 274.752C434.109 274.752 434.589 274.619 435.016 274.352C435.453 274.085 435.795 273.717 436.04 273.248C436.296 272.779 436.424 272.256 436.424 271.68C436.424 271.093 436.296 270.576 436.04 270.128C435.795 269.669 435.453 269.307 435.016 269.04C434.589 268.763 434.109 268.624 433.576 268.624C433.032 268.624 432.541 268.763 432.104 269.04C431.677 269.307 431.336 269.669 431.08 270.128C430.824 270.576 430.696 271.093 430.696 271.68C430.696 272.256 430.824 272.779 431.08 273.248C431.336 273.717 431.677 274.085 432.104 274.352C432.541 274.619 433.032 274.752 433.576 274.752ZM439.949 276V267.376H441.405V269.136L441.197 268.864C441.41 268.32 441.752 267.904 442.221 267.616C442.69 267.328 443.218 267.184 443.805 267.184C444.477 267.184 445.08 267.371 445.613 267.744C446.157 268.117 446.53 268.608 446.733 269.216L446.317 269.232C446.541 268.56 446.92 268.053 447.453 267.712C447.986 267.36 448.578 267.184 449.229 267.184C449.826 267.184 450.365 267.323 450.845 267.6C451.336 267.877 451.725 268.261 452.013 268.752C452.301 269.243 452.445 269.797 452.445 270.416V276H450.941V270.896C450.941 270.416 450.856 270.011 450.685 269.68C450.514 269.349 450.28 269.093 449.981 268.912C449.693 268.72 449.352 268.624 448.957 268.624C448.573 268.624 448.226 268.72 447.917 268.912C447.618 269.093 447.378 269.355 447.197 269.696C447.026 270.027 446.941 270.427 446.941 270.896V276H445.437V270.896C445.437 270.416 445.352 270.011 445.181 269.68C445.01 269.349 444.776 269.093 444.477 268.912C444.189 268.72 443.848 268.624 443.453 268.624C443.069 268.624 442.722 268.72 442.413 268.912C442.114 269.093 441.874 269.355 441.693 269.696C441.522 270.027 441.437 270.427 441.437 270.896V276H439.949ZM457.324 276V267.376H458.78V268.96L458.62 268.736C458.823 268.245 459.132 267.883 459.548 267.648C459.964 267.403 460.471 267.28 461.068 267.28H461.596V268.688H460.844C460.236 268.688 459.745 268.88 459.372 269.264C458.999 269.637 458.812 270.171 458.812 270.864V276H457.324ZM467.014 276.192C466.182 276.192 465.43 276 464.758 275.616C464.086 275.221 463.552 274.683 463.158 274C462.763 273.317 462.566 272.544 462.566 271.68C462.566 270.816 462.758 270.048 463.142 269.376C463.536 268.704 464.07 268.171 464.742 267.776C465.414 267.381 466.171 267.184 467.014 267.184C467.846 267.184 468.598 267.381 469.27 267.776C469.942 268.16 470.47 268.688 470.854 269.36C471.248 270.032 471.446 270.805 471.446 271.68C471.446 272.555 471.243 273.333 470.838 274.016C470.432 274.688 469.894 275.221 469.222 275.616C468.56 276 467.824 276.192 467.014 276.192ZM467.014 274.752C467.547 274.752 468.027 274.619 468.454 274.352C468.891 274.085 469.232 273.717 469.478 273.248C469.734 272.779 469.862 272.256 469.862 271.68C469.862 271.093 469.734 270.576 469.478 270.128C469.232 269.669 468.891 269.307 468.454 269.04C468.027 268.763 467.547 268.624 467.014 268.624C466.47 268.624 465.979 268.763 465.542 269.04C465.115 269.307 464.774 269.669 464.518 270.128C464.262 270.576 464.134 271.093 464.134 271.68C464.134 272.256 464.262 272.779 464.518 273.248C464.774 273.717 465.115 274.085 465.542 274.352C465.979 274.619 466.47 274.752 467.014 274.752ZM476.442 276.192C475.824 276.192 475.264 276.048 474.762 275.76C474.272 275.472 473.888 275.072 473.61 274.56C473.344 274.037 473.21 273.44 473.21 272.768V267.376H474.698V272.608C474.698 273.035 474.784 273.408 474.954 273.728C475.136 274.048 475.381 274.299 475.69 274.48C476.01 274.661 476.373 274.752 476.778 274.752C477.184 274.752 477.541 274.661 477.85 274.48C478.17 274.299 478.416 274.037 478.586 273.696C478.768 273.355 478.858 272.949 478.858 272.48V267.376H480.362V276H478.906V274.32L479.146 274.464C478.944 275.008 478.597 275.435 478.106 275.744C477.626 276.043 477.072 276.192 476.442 276.192ZM486.172 276.096C485.329 276.096 484.678 275.856 484.22 275.376C483.772 274.896 483.548 274.219 483.548 273.344V268.8H481.98V267.376H482.3C482.684 267.376 482.988 267.259 483.212 267.024C483.436 266.789 483.548 266.48 483.548 266.096V265.392H485.036V267.376H486.972V268.8H485.036V273.296C485.036 273.584 485.078 273.835 485.164 274.048C485.26 274.261 485.414 274.432 485.628 274.56C485.841 274.677 486.124 274.736 486.476 274.736C486.55 274.736 486.641 274.731 486.748 274.72C486.865 274.709 486.972 274.699 487.068 274.688V276C486.929 276.032 486.774 276.053 486.604 276.064C486.433 276.085 486.289 276.096 486.172 276.096ZM492.745 276.192C491.913 276.192 491.172 275.995 490.521 275.6C489.87 275.205 489.358 274.667 488.985 273.984C488.612 273.291 488.425 272.517 488.425 271.664C488.425 270.8 488.606 270.032 488.969 269.36C489.342 268.688 489.844 268.16 490.473 267.776C491.113 267.381 491.828 267.184 492.617 267.184C493.257 267.184 493.822 267.301 494.313 267.536C494.814 267.76 495.236 268.069 495.577 268.464C495.929 268.848 496.196 269.291 496.377 269.792C496.569 270.283 496.665 270.795 496.665 271.328C496.665 271.445 496.654 271.579 496.633 271.728C496.622 271.867 496.606 272 496.585 272.128H489.513V270.848H495.721L495.017 271.424C495.113 270.869 495.06 270.373 494.857 269.936C494.654 269.499 494.356 269.152 493.961 268.896C493.566 268.64 493.118 268.512 492.617 268.512C492.116 268.512 491.657 268.64 491.241 268.896C490.825 269.152 490.5 269.52 490.265 270C490.041 270.469 489.95 271.029 489.993 271.68C489.95 272.309 490.046 272.864 490.281 273.344C490.526 273.813 490.868 274.181 491.305 274.448C491.753 274.704 492.238 274.832 492.761 274.832C493.337 274.832 493.822 274.699 494.217 274.432C494.612 274.165 494.932 273.824 495.177 273.408L496.425 274.048C496.254 274.443 495.988 274.805 495.625 275.136C495.273 275.456 494.852 275.712 494.361 275.904C493.881 276.096 493.342 276.192 492.745 276.192ZM501.547 276V264.08H506.555C507.269 264.08 507.883 264.208 508.395 264.464C508.917 264.72 509.317 265.083 509.595 265.552C509.883 266.011 510.027 266.56 510.027 267.2C510.027 267.787 509.872 268.32 509.563 268.8C509.264 269.269 508.821 269.637 508.235 269.904L508.219 269.312C508.731 269.504 509.152 269.76 509.483 270.08C509.824 270.389 510.08 270.752 510.251 271.168C510.421 271.573 510.507 272.005 510.507 272.464C510.507 273.563 510.155 274.427 509.451 275.056C508.747 275.685 507.787 276 506.571 276H501.547ZM503.115 274.56H506.635C507.328 274.56 507.883 274.373 508.299 274C508.715 273.627 508.923 273.12 508.923 272.48C508.923 271.84 508.715 271.333 508.299 270.96C507.883 270.576 507.328 270.384 506.635 270.384H503.115V274.56ZM503.115 268.976H506.523C507.099 268.976 507.563 268.811 507.915 268.48C508.267 268.139 508.443 267.707 508.443 267.184C508.443 266.64 508.267 266.224 507.915 265.936C507.563 265.648 507.099 265.504 506.523 265.504H503.115V268.976Z" fill="#212528"/>
</g>
<g filter="url(#filter1_dd_6446_32259)">
<rect x="223" y="143" width="155" height="36" rx="18" fill="#FDF4E2" shape-rendering="crispEdges"/>
<path d="M242.408 168V157.52H239.176V156.08H247.176V157.52H243.992V168H242.408ZM251.354 168.192C250.522 168.192 249.781 167.995 249.13 167.6C248.48 167.205 247.968 166.667 247.594 165.984C247.221 165.291 247.034 164.517 247.034 163.664C247.034 162.8 247.216 162.032 247.578 161.36C247.952 160.688 248.453 160.16 249.082 159.776C249.722 159.381 250.437 159.184 251.226 159.184C251.866 159.184 252.432 159.301 252.922 159.536C253.424 159.76 253.845 160.069 254.186 160.464C254.538 160.848 254.805 161.291 254.986 161.792C255.178 162.283 255.274 162.795 255.274 163.328C255.274 163.445 255.264 163.579 255.242 163.728C255.232 163.867 255.216 164 255.194 164.128H248.122V162.848H254.33L253.626 163.424C253.722 162.869 253.669 162.373 253.466 161.936C253.264 161.499 252.965 161.152 252.57 160.896C252.176 160.64 251.728 160.512 251.226 160.512C250.725 160.512 250.266 160.64 249.85 160.896C249.434 161.152 249.109 161.52 248.874 162C248.65 162.469 248.56 163.029 248.602 163.68C248.56 164.309 248.656 164.864 248.89 165.344C249.136 165.813 249.477 166.181 249.914 166.448C250.362 166.704 250.848 166.832 251.37 166.832C251.946 166.832 252.432 166.699 252.826 166.432C253.221 166.165 253.541 165.824 253.786 165.408L255.034 166.048C254.864 166.443 254.597 166.805 254.234 167.136C253.882 167.456 253.461 167.712 252.97 167.904C252.49 168.096 251.952 168.192 251.354 168.192ZM257.215 168V155.888H258.703V168H257.215ZM264.979 168.192C264.147 168.192 263.406 167.995 262.755 167.6C262.105 167.205 261.593 166.667 261.219 165.984C260.846 165.291 260.659 164.517 260.659 163.664C260.659 162.8 260.841 162.032 261.203 161.36C261.577 160.688 262.078 160.16 262.707 159.776C263.347 159.381 264.062 159.184 264.851 159.184C265.491 159.184 266.057 159.301 266.547 159.536C267.049 159.76 267.47 160.069 267.811 160.464C268.163 160.848 268.43 161.291 268.611 161.792C268.803 162.283 268.899 162.795 268.899 163.328C268.899 163.445 268.889 163.579 268.867 163.728C268.857 163.867 268.841 164 268.819 164.128H261.747V162.848H267.955L267.251 163.424C267.347 162.869 267.294 162.373 267.091 161.936C266.889 161.499 266.59 161.152 266.195 160.896C265.801 160.64 265.353 160.512 264.851 160.512C264.35 160.512 263.891 160.64 263.475 160.896C263.059 161.152 262.734 161.52 262.499 162C262.275 162.469 262.185 163.029 262.227 163.68C262.185 164.309 262.281 164.864 262.515 165.344C262.761 165.813 263.102 166.181 263.539 166.448C263.987 166.704 264.473 166.832 264.995 166.832C265.571 166.832 266.057 166.699 266.451 166.432C266.846 166.165 267.166 165.824 267.411 165.408L268.659 166.048C268.489 166.443 268.222 166.805 267.859 167.136C267.507 167.456 267.086 167.712 266.595 167.904C266.115 168.096 265.577 168.192 264.979 168.192ZM274.84 168.192C273.997 168.192 273.245 167.995 272.584 167.6C271.933 167.205 271.421 166.667 271.048 165.984C270.674 165.301 270.488 164.533 270.488 163.68C270.488 162.816 270.674 162.048 271.048 161.376C271.421 160.704 271.933 160.171 272.584 159.776C273.245 159.381 273.997 159.184 274.84 159.184C275.405 159.184 275.933 159.285 276.424 159.488C276.914 159.691 277.346 159.963 277.72 160.304C278.093 160.645 278.365 161.045 278.536 161.504L277.208 162.144C277.005 161.696 276.696 161.333 276.28 161.056C275.864 160.768 275.384 160.624 274.84 160.624C274.317 160.624 273.842 160.757 273.416 161.024C273 161.291 272.669 161.653 272.424 162.112C272.178 162.571 272.056 163.099 272.056 163.696C272.056 164.272 272.178 164.795 272.424 165.264C272.669 165.723 273 166.085 273.416 166.352C273.842 166.619 274.317 166.752 274.84 166.752C275.384 166.752 275.864 166.613 276.28 166.336C276.696 166.048 277.005 165.669 277.208 165.2L278.536 165.872C278.365 166.32 278.093 166.72 277.72 167.072C277.346 167.413 276.914 167.685 276.424 167.888C275.933 168.091 275.405 168.192 274.84 168.192ZM284.576 168.192C283.744 168.192 282.992 168 282.32 167.616C281.648 167.221 281.115 166.683 280.72 166C280.325 165.317 280.128 164.544 280.128 163.68C280.128 162.816 280.32 162.048 280.704 161.376C281.099 160.704 281.632 160.171 282.304 159.776C282.976 159.381 283.733 159.184 284.576 159.184C285.408 159.184 286.16 159.381 286.832 159.776C287.504 160.16 288.032 160.688 288.416 161.36C288.811 162.032 289.008 162.805 289.008 163.68C289.008 164.555 288.805 165.333 288.4 166.016C287.995 166.688 287.456 167.221 286.784 167.616C286.123 168 285.387 168.192 284.576 168.192ZM284.576 166.752C285.109 166.752 285.589 166.619 286.016 166.352C286.453 166.085 286.795 165.717 287.04 165.248C287.296 164.779 287.424 164.256 287.424 163.68C287.424 163.093 287.296 162.576 287.04 162.128C286.795 161.669 286.453 161.307 286.016 161.04C285.589 160.763 285.109 160.624 284.576 160.624C284.032 160.624 283.541 160.763 283.104 161.04C282.677 161.307 282.336 161.669 282.08 162.128C281.824 162.576 281.696 163.093 281.696 163.68C281.696 164.256 281.824 164.779 282.08 165.248C282.336 165.717 282.677 166.085 283.104 166.352C283.541 166.619 284.032 166.752 284.576 166.752ZM290.949 168V159.376H292.405V161.136L292.197 160.864C292.41 160.32 292.752 159.904 293.221 159.616C293.69 159.328 294.218 159.184 294.805 159.184C295.477 159.184 296.08 159.371 296.613 159.744C297.157 160.117 297.53 160.608 297.733 161.216L297.317 161.232C297.541 160.56 297.92 160.053 298.453 159.712C298.986 159.36 299.578 159.184 300.229 159.184C300.826 159.184 301.365 159.323 301.845 159.6C302.336 159.877 302.725 160.261 303.013 160.752C303.301 161.243 303.445 161.797 303.445 162.416V168H301.941V162.896C301.941 162.416 301.856 162.011 301.685 161.68C301.514 161.349 301.28 161.093 300.981 160.912C300.693 160.72 300.352 160.624 299.957 160.624C299.573 160.624 299.226 160.72 298.917 160.912C298.618 161.093 298.378 161.355 298.197 161.696C298.026 162.027 297.941 162.427 297.941 162.896V168H296.437V162.896C296.437 162.416 296.352 162.011 296.181 161.68C296.01 161.349 295.776 161.093 295.477 160.912C295.189 160.72 294.848 160.624 294.453 160.624C294.069 160.624 293.722 160.72 293.413 160.912C293.114 161.093 292.874 161.355 292.693 161.696C292.522 162.027 292.437 162.427 292.437 162.896V168H290.949ZM308.324 168V159.376H309.78V160.96L309.62 160.736C309.823 160.245 310.132 159.883 310.548 159.648C310.964 159.403 311.471 159.28 312.068 159.28H312.596V160.688H311.844C311.236 160.688 310.745 160.88 310.372 161.264C309.999 161.637 309.812 162.171 309.812 162.864V168H308.324ZM318.014 168.192C317.182 168.192 316.43 168 315.758 167.616C315.086 167.221 314.552 166.683 314.158 166C313.763 165.317 313.566 164.544 313.566 163.68C313.566 162.816 313.758 162.048 314.142 161.376C314.536 160.704 315.07 160.171 315.742 159.776C316.414 159.381 317.171 159.184 318.014 159.184C318.846 159.184 319.598 159.381 320.27 159.776C320.942 160.16 321.47 160.688 321.854 161.36C322.248 162.032 322.446 162.805 322.446 163.68C322.446 164.555 322.243 165.333 321.838 166.016C321.432 166.688 320.894 167.221 320.222 167.616C319.56 168 318.824 168.192 318.014 168.192ZM318.014 166.752C318.547 166.752 319.027 166.619 319.454 166.352C319.891 166.085 320.232 165.717 320.478 165.248C320.734 164.779 320.862 164.256 320.862 163.68C320.862 163.093 320.734 162.576 320.478 162.128C320.232 161.669 319.891 161.307 319.454 161.04C319.027 160.763 318.547 160.624 318.014 160.624C317.47 160.624 316.979 160.763 316.542 161.04C316.115 161.307 315.774 161.669 315.518 162.128C315.262 162.576 315.134 163.093 315.134 163.68C315.134 164.256 315.262 164.779 315.518 165.248C315.774 165.717 316.115 166.085 316.542 166.352C316.979 166.619 317.47 166.752 318.014 166.752ZM327.442 168.192C326.824 168.192 326.264 168.048 325.762 167.76C325.272 167.472 324.888 167.072 324.61 166.56C324.344 166.037 324.21 165.44 324.21 164.768V159.376H325.698V164.608C325.698 165.035 325.784 165.408 325.954 165.728C326.136 166.048 326.381 166.299 326.69 166.48C327.01 166.661 327.373 166.752 327.778 166.752C328.184 166.752 328.541 166.661 328.85 166.48C329.17 166.299 329.416 166.037 329.586 165.696C329.768 165.355 329.858 164.949 329.858 164.48V159.376H331.362V168H329.906V166.32L330.146 166.464C329.944 167.008 329.597 167.435 329.106 167.744C328.626 168.043 328.072 168.192 327.442 168.192ZM337.172 168.096C336.329 168.096 335.678 167.856 335.22 167.376C334.772 166.896 334.548 166.219 334.548 165.344V160.8H332.98V159.376H333.3C333.684 159.376 333.988 159.259 334.212 159.024C334.436 158.789 334.548 158.48 334.548 158.096V157.392H336.036V159.376H337.972V160.8H336.036V165.296C336.036 165.584 336.078 165.835 336.164 166.048C336.26 166.261 336.414 166.432 336.628 166.56C336.841 166.677 337.124 166.736 337.476 166.736C337.55 166.736 337.641 166.731 337.748 166.72C337.865 166.709 337.972 166.699 338.068 166.688V168C337.929 168.032 337.774 168.053 337.604 168.064C337.433 168.085 337.289 168.096 337.172 168.096ZM343.745 168.192C342.913 168.192 342.172 167.995 341.521 167.6C340.87 167.205 340.358 166.667 339.985 165.984C339.612 165.291 339.425 164.517 339.425 163.664C339.425 162.8 339.606 162.032 339.969 161.36C340.342 160.688 340.844 160.16 341.473 159.776C342.113 159.381 342.828 159.184 343.617 159.184C344.257 159.184 344.822 159.301 345.313 159.536C345.814 159.76 346.236 160.069 346.577 160.464C346.929 160.848 347.196 161.291 347.377 161.792C347.569 162.283 347.665 162.795 347.665 163.328C347.665 163.445 347.654 163.579 347.633 163.728C347.622 163.867 347.606 164 347.585 164.128H340.513V162.848H346.721L346.017 163.424C346.113 162.869 346.06 162.373 345.857 161.936C345.654 161.499 345.356 161.152 344.961 160.896C344.566 160.64 344.118 160.512 343.617 160.512C343.116 160.512 342.657 160.64 342.241 160.896C341.825 161.152 341.5 161.52 341.265 162C341.041 162.469 340.95 163.029 340.993 163.68C340.95 164.309 341.046 164.864 341.281 165.344C341.526 165.813 341.868 166.181 342.305 166.448C342.753 166.704 343.238 166.832 343.761 166.832C344.337 166.832 344.822 166.699 345.217 166.432C345.612 166.165 345.932 165.824 346.177 165.408L347.425 166.048C347.254 166.443 346.988 166.805 346.625 167.136C346.273 167.456 345.852 167.712 345.361 167.904C344.881 168.096 344.342 168.192 343.745 168.192ZM351.395 168L355.667 156.08H357.523L361.795 168H360.115L359.139 165.2H354.051L353.075 168H351.395ZM354.547 163.76H358.643L356.371 157.216H356.819L354.547 163.76Z" fill="#212528"/>
</g>
<path d="M301.5 182.5C301.5 181.948 301.052 181.5 300.5 181.5C299.948 181.5 299.5 181.948 299.5 182.5H301.5ZM352.125 218C352.677 218 353.125 217.552 353.125 217C353.125 216.448 352.677 216 352.125 216V218ZM398.375 216C397.823 216 397.375 216.448 397.375 217C397.375 217.552 397.823 218 398.375 218V216ZM449.293 248.207C449.683 248.598 450.317 248.598 450.707 248.207L457.071 241.843C457.462 241.453 457.462 240.819 457.071 240.429C456.681 240.038 456.047 240.038 455.657 240.429L450 246.086L444.343 240.429C443.953 240.038 443.319 240.038 442.929 240.429C442.538 240.819 442.538 241.453 442.929 241.843L449.293 248.207ZM299.5 182.5V193H301.5V182.5H299.5ZM324.5 218H352.125V216H324.5V218ZM398.375 218H426V216H398.375V218ZM449 241V247.5H451V241H449ZM426 218C438.703 218 449 228.297 449 241H451C451 227.193 439.807 216 426 216V218ZM299.5 193C299.5 206.807 310.693 218 324.5 218V216C311.797 216 301.5 205.703 301.5 193H299.5Z" fill="#CC5229"/>
<path d="M359.244 222V213.06H364.908V214.14H360.42V217.032H364.488V218.112H360.42V222H359.244ZM367.544 222.144C367.12 222.144 366.744 222.068 366.416 221.916C366.096 221.756 365.844 221.54 365.66 221.268C365.476 220.988 365.384 220.668 365.384 220.308C365.384 219.964 365.456 219.656 365.6 219.384C365.752 219.104 365.984 218.868 366.296 218.676C366.616 218.484 367.016 218.348 367.496 218.268L369.896 217.872V218.808L367.748 219.168C367.332 219.24 367.028 219.372 366.836 219.564C366.652 219.756 366.56 219.992 366.56 220.272C366.56 220.536 366.664 220.756 366.872 220.932C367.088 221.108 367.356 221.196 367.676 221.196C368.084 221.196 368.436 221.112 368.732 220.944C369.036 220.768 369.272 220.532 369.44 220.236C369.616 219.94 369.704 219.612 369.704 219.252V217.608C369.704 217.256 369.572 216.972 369.308 216.756C369.052 216.532 368.712 216.42 368.288 216.42C367.92 216.42 367.592 216.516 367.304 216.708C367.024 216.892 366.816 217.14 366.68 217.452L365.708 216.948C365.828 216.652 366.02 216.388 366.284 216.156C366.548 215.916 366.856 215.728 367.208 215.592C367.56 215.456 367.928 215.388 368.312 215.388C368.808 215.388 369.244 215.484 369.62 215.676C369.996 215.86 370.288 216.12 370.496 216.456C370.712 216.784 370.82 217.168 370.82 217.608V222H369.728V220.776L369.932 220.848C369.796 221.104 369.612 221.328 369.38 221.52C369.148 221.712 368.876 221.864 368.564 221.976C368.252 222.088 367.912 222.144 367.544 222.144ZM372.418 222V215.532H373.534V222H372.418ZM372.418 214.5V213.06H373.534V214.5H372.418ZM375.134 222V212.916H376.25V222H375.134ZM380.826 222.144C380.202 222.144 379.646 221.996 379.158 221.7C378.67 221.404 378.286 221 378.006 220.488C377.726 219.968 377.586 219.388 377.586 218.748C377.586 218.1 377.722 217.524 377.994 217.02C378.274 216.516 378.65 216.12 379.122 215.832C379.602 215.536 380.138 215.388 380.73 215.388C381.21 215.388 381.634 215.476 382.002 215.652C382.378 215.82 382.694 216.052 382.95 216.348C383.214 216.636 383.414 216.968 383.55 217.344C383.694 217.712 383.766 218.096 383.766 218.496C383.766 218.584 383.758 218.684 383.742 218.796C383.734 218.9 383.722 219 383.706 219.096H378.402V218.136H383.058L382.53 218.568C382.602 218.152 382.562 217.78 382.41 217.452C382.258 217.124 382.034 216.864 381.738 216.672C381.442 216.48 381.106 216.384 380.73 216.384C380.354 216.384 380.01 216.48 379.698 216.672C379.386 216.864 379.142 217.14 378.966 217.5C378.798 217.852 378.73 218.272 378.762 218.76C378.73 219.232 378.802 219.648 378.978 220.008C379.162 220.36 379.418 220.636 379.746 220.836C380.082 221.028 380.446 221.124 380.838 221.124C381.27 221.124 381.634 221.024 381.93 220.824C382.226 220.624 382.466 220.368 382.65 220.056L383.586 220.536C383.458 220.832 383.258 221.104 382.986 221.352C382.722 221.592 382.406 221.784 382.038 221.928C381.678 222.072 381.274 222.144 380.826 222.144ZM388.029 222.144C387.421 222.144 386.873 221.996 386.385 221.7C385.905 221.404 385.525 221 385.245 220.488C384.965 219.976 384.825 219.404 384.825 218.772C384.825 218.124 384.965 217.548 385.245 217.044C385.525 216.532 385.905 216.128 386.385 215.832C386.873 215.536 387.421 215.388 388.029 215.388C388.565 215.388 389.041 215.504 389.457 215.736C389.873 215.96 390.201 216.264 390.441 216.648L390.261 216.924V212.916H391.389V222H390.297V220.62L390.441 220.812C390.217 221.236 389.889 221.564 389.457 221.796C389.033 222.028 388.557 222.144 388.029 222.144ZM388.125 221.064C388.533 221.064 388.897 220.964 389.217 220.764C389.537 220.564 389.789 220.292 389.973 219.948C390.165 219.596 390.261 219.204 390.261 218.772C390.261 218.332 390.165 217.94 389.973 217.596C389.789 217.244 389.537 216.968 389.217 216.768C388.897 216.568 388.533 216.468 388.125 216.468C387.725 216.468 387.361 216.572 387.033 216.78C386.713 216.98 386.461 217.252 386.277 217.596C386.093 217.932 386.001 218.324 386.001 218.772C386.001 219.204 386.093 219.596 386.277 219.948C386.461 220.292 386.713 220.564 387.033 220.764C387.353 220.964 387.717 221.064 388.125 221.064Z" fill="#CC5229"/>
<g filter="url(#filter2_dd_6446_32259)">
<rect x="233" y="73" width="134.35" height="36" rx="18" fill="#E2F0FF" shape-rendering="crispEdges"/>
<path d="M254.776 98.192C254.018 98.192 253.325 98.0533 252.696 97.776C252.066 97.488 251.533 97.0987 251.096 96.608C250.658 96.1173 250.344 95.568 250.152 94.96L251.512 94.4C251.8 95.168 252.226 95.76 252.792 96.176C253.368 96.5813 254.04 96.784 254.808 96.784C255.277 96.784 255.688 96.7093 256.04 96.56C256.392 96.4107 256.664 96.2027 256.856 95.936C257.058 95.6587 257.16 95.3387 257.16 94.976C257.16 94.4747 257.016 94.08 256.728 93.792C256.45 93.4933 256.04 93.2693 255.496 93.12L253.304 92.448C252.44 92.1813 251.778 91.76 251.32 91.184C250.861 90.608 250.632 89.9467 250.632 89.2C250.632 88.5493 250.786 87.9787 251.096 87.488C251.416 86.9867 251.853 86.5973 252.408 86.32C252.973 86.032 253.613 85.888 254.328 85.888C255.042 85.888 255.688 86.016 256.264 86.272C256.85 86.528 257.346 86.8747 257.752 87.312C258.157 87.7387 258.456 88.2293 258.648 88.784L257.304 89.344C257.048 88.672 256.664 88.1653 256.152 87.824C255.64 87.472 255.037 87.296 254.344 87.296C253.917 87.296 253.538 87.3707 253.208 87.52C252.888 87.6587 252.637 87.8667 252.456 88.144C252.285 88.4107 252.2 88.7307 252.2 89.104C252.2 89.5413 252.338 89.9307 252.616 90.272C252.893 90.6133 253.314 90.8747 253.88 91.056L255.88 91.648C256.818 91.936 257.528 92.3467 258.008 92.88C258.488 93.4133 258.728 94.0747 258.728 94.864C258.728 95.5147 258.557 96.0907 258.216 96.592C257.885 97.0933 257.421 97.488 256.824 97.776C256.237 98.0533 255.554 98.192 254.776 98.192ZM264.815 98.192C263.983 98.192 263.242 97.9947 262.591 97.6C261.941 97.2053 261.429 96.6667 261.055 95.984C260.682 95.2907 260.495 94.5173 260.495 93.664C260.495 92.8 260.677 92.032 261.039 91.36C261.413 90.688 261.914 90.16 262.543 89.776C263.183 89.3813 263.898 89.184 264.687 89.184C265.327 89.184 265.893 89.3013 266.383 89.536C266.885 89.76 267.306 90.0693 267.647 90.464C267.999 90.848 268.266 91.2907 268.447 91.792C268.639 92.2827 268.735 92.7947 268.735 93.328C268.735 93.4453 268.725 93.5787 268.703 93.728C268.693 93.8667 268.677 94 268.655 94.128H261.583V92.848H267.791L267.087 93.424C267.183 92.8693 267.13 92.3733 266.927 91.936C266.725 91.4987 266.426 91.152 266.031 90.896C265.637 90.64 265.189 90.512 264.687 90.512C264.186 90.512 263.727 90.64 263.311 90.896C262.895 91.152 262.57 91.52 262.335 92C262.111 92.4693 262.021 93.0293 262.063 93.68C262.021 94.3093 262.117 94.864 262.351 95.344C262.597 95.8133 262.938 96.1813 263.375 96.448C263.823 96.704 264.309 96.832 264.831 96.832C265.407 96.832 265.893 96.6987 266.287 96.432C266.682 96.1653 267.002 95.824 267.247 95.408L268.495 96.048C268.325 96.4427 268.058 96.8053 267.695 97.136C267.343 97.456 266.922 97.712 266.431 97.904C265.951 98.096 265.413 98.192 264.815 98.192ZM270.675 98V89.376H272.131V91.056L271.891 90.912C272.105 90.368 272.446 89.9467 272.915 89.648C273.395 89.3387 273.955 89.184 274.595 89.184C275.214 89.184 275.763 89.3227 276.243 89.6C276.734 89.8773 277.118 90.2613 277.395 90.752C277.683 91.2427 277.827 91.7973 277.827 92.416V98H276.323V92.896C276.323 92.416 276.238 92.0107 276.067 91.68C275.897 91.3493 275.651 91.0933 275.331 90.912C275.022 90.72 274.665 90.624 274.259 90.624C273.854 90.624 273.491 90.72 273.171 90.912C272.862 91.0933 272.617 91.3547 272.435 91.696C272.254 92.0267 272.163 92.4267 272.163 92.896V98H270.675ZM283.877 98.192C283.066 98.192 282.335 97.9947 281.685 97.6C281.045 97.2053 280.538 96.6667 280.165 95.984C279.791 95.3013 279.605 94.5387 279.605 93.696C279.605 92.832 279.791 92.064 280.165 91.392C280.538 90.7093 281.045 90.1707 281.685 89.776C282.335 89.3813 283.066 89.184 283.877 89.184C284.591 89.184 285.226 89.3387 285.781 89.648C286.335 89.9467 286.773 90.352 287.093 90.864L286.853 91.232V85.888H288.357V98H286.901V96.16L287.093 96.416C286.794 96.9813 286.357 97.4187 285.781 97.728C285.215 98.0373 284.581 98.192 283.877 98.192ZM284.005 96.752C284.549 96.752 285.034 96.6187 285.461 96.352C285.887 96.0853 286.223 95.7227 286.469 95.264C286.725 94.7947 286.853 94.272 286.853 93.696C286.853 93.1093 286.725 92.5867 286.469 92.128C286.223 91.6587 285.887 91.2907 285.461 91.024C285.034 90.7573 284.549 90.624 284.005 90.624C283.471 90.624 282.986 90.7627 282.549 91.04C282.122 91.3067 281.786 91.6693 281.541 92.128C281.295 92.576 281.173 93.0987 281.173 93.696C281.173 94.272 281.295 94.7947 281.541 95.264C281.786 95.7227 282.122 96.0853 282.549 96.352C282.975 96.6187 283.461 96.752 284.005 96.752ZM297.697 98.192C296.94 98.192 296.247 98.0533 295.617 97.776C294.988 97.488 294.455 97.0987 294.017 96.608C293.58 96.1173 293.265 95.568 293.073 94.96L294.433 94.4C294.721 95.168 295.148 95.76 295.713 96.176C296.289 96.5813 296.961 96.784 297.729 96.784C298.199 96.784 298.609 96.7093 298.961 96.56C299.313 96.4107 299.585 96.2027 299.777 95.936C299.98 95.6587 300.081 95.3387 300.081 94.976C300.081 94.4747 299.937 94.08 299.649 93.792C299.372 93.4933 298.961 93.2693 298.417 93.12L296.225 92.448C295.361 92.1813 294.7 91.76 294.241 91.184C293.783 90.608 293.553 89.9467 293.553 89.2C293.553 88.5493 293.708 87.9787 294.017 87.488C294.337 86.9867 294.775 86.5973 295.329 86.32C295.895 86.032 296.535 85.888 297.249 85.888C297.964 85.888 298.609 86.016 299.185 86.272C299.772 86.528 300.268 86.8747 300.673 87.312C301.079 87.7387 301.377 88.2293 301.569 88.784L300.225 89.344C299.969 88.672 299.585 88.1653 299.073 87.824C298.561 87.472 297.959 87.296 297.265 87.296C296.839 87.296 296.46 87.3707 296.129 87.52C295.809 87.6587 295.559 87.8667 295.377 88.144C295.207 88.4107 295.121 88.7307 295.121 89.104C295.121 89.5413 295.26 89.9307 295.537 90.272C295.815 90.6133 296.236 90.8747 296.801 91.056L298.801 91.648C299.74 91.936 300.449 92.3467 300.929 92.88C301.409 93.4133 301.649 94.0747 301.649 94.864C301.649 95.5147 301.479 96.0907 301.137 96.592C300.807 97.0933 300.343 97.488 299.745 97.776C299.159 98.0533 298.476 98.192 297.697 98.192ZM303.945 98V86.08H305.385L309.849 92.432H309.113L313.545 86.08H314.985V98H313.401V88.064L313.961 88.24L309.529 94.48H309.401L305.017 88.24L305.513 88.064V98H303.945ZM321.729 98.192C320.971 98.192 320.278 98.0533 319.649 97.776C319.019 97.488 318.486 97.0987 318.049 96.608C317.611 96.1173 317.297 95.568 317.105 94.96L318.465 94.4C318.753 95.168 319.179 95.76 319.745 96.176C320.321 96.5813 320.993 96.784 321.761 96.784C322.23 96.784 322.641 96.7093 322.993 96.56C323.345 96.4107 323.617 96.2027 323.809 95.936C324.011 95.6587 324.113 95.3387 324.113 94.976C324.113 94.4747 323.969 94.08 323.681 93.792C323.403 93.4933 322.993 93.2693 322.449 93.12L320.257 92.448C319.393 92.1813 318.731 91.76 318.273 91.184C317.814 90.608 317.585 89.9467 317.585 89.2C317.585 88.5493 317.739 87.9787 318.049 87.488C318.369 86.9867 318.806 86.5973 319.361 86.32C319.926 86.032 320.566 85.888 321.281 85.888C321.995 85.888 322.641 86.016 323.217 86.272C323.803 86.528 324.299 86.8747 324.705 87.312C325.11 87.7387 325.409 88.2293 325.601 88.784L324.257 89.344C324.001 88.672 323.617 88.1653 323.105 87.824C322.593 87.472 321.99 87.296 321.297 87.296C320.87 87.296 320.491 87.3707 320.161 87.52C319.841 87.6587 319.59 87.8667 319.409 88.144C319.238 88.4107 319.153 88.7307 319.153 89.104C319.153 89.5413 319.291 89.9307 319.569 90.272C319.846 90.6133 320.267 90.8747 320.833 91.056L322.833 91.648C323.771 91.936 324.481 92.3467 324.961 92.88C325.441 93.4133 325.681 94.0747 325.681 94.864C325.681 95.5147 325.51 96.0907 325.169 96.592C324.838 97.0933 324.374 97.488 323.777 97.776C323.19 98.0533 322.507 98.192 321.729 98.192Z" fill="#212528"/>
<path d="M337.391 86.9328L342.507 89.1265L337.384 88.4453L337.391 86.9328ZM342.5 92.8735L337.384 95.0672V93.5547L342.5 92.8735ZM336.028 84.8686L336.021 89.6375L346.24 91L336.021 92.3625L336.028 97.1314L350.328 91L336.028 84.8686Z" fill="#1E75BA"/>
</g>
<path d="M301.5 112.5C301.5 111.948 301.052 111.5 300.5 111.5C299.948 111.5 299.5 111.948 299.5 112.5H301.5ZM299.793 140.207C300.183 140.598 300.817 140.598 301.207 140.207L307.571 133.843C307.962 133.453 307.962 132.819 307.571 132.429C307.181 132.038 306.547 132.038 306.157 132.429L300.5 138.086L294.843 132.429C294.453 132.038 293.819 132.038 293.429 132.429C293.038 132.819 293.038 133.453 293.429 133.843L299.793 140.207ZM299.5 112.5V139.5H301.5V112.5H299.5Z" fill="#29A653"/>
<g filter="url(#filter3_dd_6446_32259)">
<rect x="211" y="391" width="178.35" height="36" rx="18" fill="#E8F7E8" shape-rendering="crispEdges"/>
<path d="M241.988 404.354L234.214 412.134L231.326 409.245L232.286 408.285L234.214 410.213L241.027 403.4L241.988 404.354ZM240.482 407.787C240.571 408.176 240.625 408.584 240.625 409C240.625 412.011 238.186 414.45 235.175 414.45C232.164 414.45 229.725 412.011 229.725 409C229.725 405.989 232.164 403.55 235.175 403.55C236.251 403.55 237.246 403.863 238.091 404.401L239.072 403.42C237.968 402.644 236.626 402.187 235.175 402.187C231.414 402.187 228.362 405.239 228.362 409C228.362 412.761 231.414 415.813 235.175 415.813C238.936 415.813 241.988 412.761 241.988 409C241.988 408.189 241.838 407.413 241.579 406.691L240.482 407.787Z" fill="#29A653"/>
<path d="M252.679 416V404.08H260.231V405.52H254.247V409.376H259.671V410.816H254.247V416H252.679ZM263.921 416.192C263.356 416.192 262.855 416.091 262.417 415.888C261.991 415.675 261.655 415.387 261.409 415.024C261.164 414.651 261.041 414.224 261.041 413.744C261.041 413.285 261.137 412.875 261.329 412.512C261.532 412.139 261.841 411.824 262.257 411.568C262.684 411.312 263.217 411.131 263.857 411.024L267.057 410.496V411.744L264.193 412.224C263.639 412.32 263.233 412.496 262.977 412.752C262.732 413.008 262.609 413.323 262.609 413.696C262.609 414.048 262.748 414.341 263.025 414.576C263.313 414.811 263.671 414.928 264.097 414.928C264.641 414.928 265.111 414.816 265.505 414.592C265.911 414.357 266.225 414.043 266.449 413.648C266.684 413.253 266.801 412.816 266.801 412.336V410.144C266.801 409.675 266.625 409.296 266.273 409.008C265.932 408.709 265.479 408.56 264.913 408.56C264.423 408.56 263.985 408.688 263.601 408.944C263.228 409.189 262.951 409.52 262.769 409.936L261.473 409.264C261.633 408.869 261.889 408.517 262.241 408.208C262.593 407.888 263.004 407.637 263.473 407.456C263.943 407.275 264.433 407.184 264.945 407.184C265.607 407.184 266.188 407.312 266.689 407.568C267.191 407.813 267.58 408.16 267.857 408.608C268.145 409.045 268.289 409.557 268.289 410.144V416H266.833V414.368L267.105 414.464C266.924 414.805 266.679 415.104 266.369 415.36C266.06 415.616 265.697 415.819 265.281 415.968C264.865 416.117 264.412 416.192 263.921 416.192ZM273.684 416.192C272.82 416.192 272.068 415.979 271.428 415.552C270.788 415.125 270.335 414.549 270.068 413.824L271.252 413.248C271.498 413.76 271.834 414.165 272.26 414.464C272.687 414.763 273.162 414.912 273.684 414.912C274.154 414.912 274.543 414.8 274.852 414.576C275.162 414.352 275.316 414.059 275.316 413.696C275.316 413.44 275.242 413.237 275.092 413.088C274.954 412.928 274.783 412.805 274.58 412.72C274.378 412.624 274.191 412.555 274.02 412.512L272.724 412.144C271.946 411.92 271.375 411.6 271.012 411.184C270.66 410.768 270.484 410.283 270.484 409.728C270.484 409.216 270.612 408.773 270.868 408.4C271.135 408.016 271.492 407.717 271.94 407.504C272.399 407.291 272.911 407.184 273.476 407.184C274.234 407.184 274.911 407.376 275.508 407.76C276.116 408.144 276.548 408.683 276.804 409.376L275.588 409.936C275.396 409.488 275.108 409.136 274.724 408.88C274.34 408.613 273.908 408.48 273.428 408.48C272.991 408.48 272.644 408.592 272.388 408.816C272.132 409.029 272.004 409.301 272.004 409.632C272.004 409.877 272.068 410.08 272.196 410.24C272.324 410.389 272.479 410.507 272.66 410.592C272.842 410.667 273.018 410.731 273.188 410.784L274.596 411.2C275.3 411.403 275.844 411.717 276.228 412.144C276.623 412.571 276.82 413.083 276.82 413.68C276.82 414.16 276.687 414.592 276.42 414.976C276.154 415.36 275.786 415.659 275.316 415.872C274.847 416.085 274.303 416.192 273.684 416.192ZM282.272 416.096C281.43 416.096 280.779 415.856 280.32 415.376C279.872 414.896 279.648 414.219 279.648 413.344V408.8H278.08V407.376H278.4C278.784 407.376 279.088 407.259 279.312 407.024C279.536 406.789 279.648 406.48 279.648 406.096V405.392H281.136V407.376H283.072V408.8H281.136V413.296C281.136 413.584 281.179 413.835 281.264 414.048C281.36 414.261 281.515 414.432 281.728 414.56C281.942 414.677 282.224 414.736 282.576 414.736C282.651 414.736 282.742 414.731 282.848 414.72C282.966 414.709 283.072 414.699 283.168 414.688V416C283.03 416.032 282.875 416.053 282.704 416.064C282.534 416.085 282.39 416.096 282.272 416.096ZM288.846 416.192C288.014 416.192 287.272 415.995 286.622 415.6C285.971 415.205 285.459 414.667 285.086 413.984C284.712 413.291 284.526 412.517 284.526 411.664C284.526 410.8 284.707 410.032 285.07 409.36C285.443 408.688 285.944 408.16 286.574 407.776C287.214 407.381 287.928 407.184 288.718 407.184C289.358 407.184 289.923 407.301 290.414 407.536C290.915 407.76 291.336 408.069 291.678 408.464C292.03 408.848 292.296 409.291 292.478 409.792C292.67 410.283 292.766 410.795 292.766 411.328C292.766 411.445 292.755 411.579 292.734 411.728C292.723 411.867 292.707 412 292.686 412.128H285.614V410.848H291.822L291.118 411.424C291.214 410.869 291.16 410.373 290.958 409.936C290.755 409.499 290.456 409.152 290.062 408.896C289.667 408.64 289.219 408.512 288.718 408.512C288.216 408.512 287.758 408.64 287.342 408.896C286.926 409.152 286.6 409.52 286.366 410C286.142 410.469 286.051 411.029 286.094 411.68C286.051 412.309 286.147 412.864 286.382 413.344C286.627 413.813 286.968 414.181 287.406 414.448C287.854 414.704 288.339 414.832 288.862 414.832C289.438 414.832 289.923 414.699 290.318 414.432C290.712 414.165 291.032 413.824 291.278 413.408L292.526 414.048C292.355 414.443 292.088 414.805 291.726 415.136C291.374 415.456 290.952 415.712 290.462 415.904C289.982 416.096 289.443 416.192 288.846 416.192ZM297.794 416.192C296.93 416.192 296.178 415.979 295.538 415.552C294.898 415.125 294.444 414.549 294.178 413.824L295.362 413.248C295.607 413.76 295.943 414.165 296.37 414.464C296.796 414.763 297.271 414.912 297.794 414.912C298.263 414.912 298.652 414.8 298.962 414.576C299.271 414.352 299.426 414.059 299.426 413.696C299.426 413.44 299.351 413.237 299.202 413.088C299.063 412.928 298.892 412.805 298.69 412.72C298.487 412.624 298.3 412.555 298.13 412.512L296.834 412.144C296.055 411.92 295.484 411.6 295.122 411.184C294.77 410.768 294.594 410.283 294.594 409.728C294.594 409.216 294.722 408.773 294.978 408.4C295.244 408.016 295.602 407.717 296.05 407.504C296.508 407.291 297.02 407.184 297.586 407.184C298.343 407.184 299.02 407.376 299.618 407.76C300.226 408.144 300.658 408.683 300.914 409.376L299.698 409.936C299.506 409.488 299.218 409.136 298.834 408.88C298.45 408.613 298.018 408.48 297.538 408.48C297.1 408.48 296.754 408.592 296.498 408.816C296.242 409.029 296.114 409.301 296.114 409.632C296.114 409.877 296.178 410.08 296.306 410.24C296.434 410.389 296.588 410.507 296.77 410.592C296.951 410.667 297.127 410.731 297.298 410.784L298.706 411.2C299.41 411.403 299.954 411.717 300.338 412.144C300.732 412.571 300.93 413.083 300.93 413.68C300.93 414.16 300.796 414.592 300.53 414.976C300.263 415.36 299.895 415.659 299.426 415.872C298.956 416.085 298.412 416.192 297.794 416.192ZM306.382 416.096C305.539 416.096 304.888 415.856 304.43 415.376C303.982 414.896 303.758 414.219 303.758 413.344V408.8H302.19V407.376H302.51C302.894 407.376 303.198 407.259 303.422 407.024C303.646 406.789 303.758 406.48 303.758 406.096V405.392H305.246V407.376H307.182V408.8H305.246V413.296C305.246 413.584 305.288 413.835 305.374 414.048C305.47 414.261 305.624 414.432 305.838 414.56C306.051 414.677 306.334 414.736 306.686 414.736C306.76 414.736 306.851 414.731 306.958 414.72C307.075 414.709 307.182 414.699 307.278 414.688V416C307.139 416.032 306.984 416.053 306.814 416.064C306.643 416.085 306.499 416.096 306.382 416.096ZM312.163 416V404.08H316.067C317.272 404.08 318.323 404.325 319.219 404.816C320.115 405.307 320.808 406 321.299 406.896C321.79 407.781 322.035 408.827 322.035 410.032C322.035 411.227 321.79 412.272 321.299 413.168C320.808 414.064 320.115 414.763 319.219 415.264C318.323 415.755 317.272 416 316.067 416H312.163ZM313.731 414.56H316.083C316.968 414.56 317.731 414.373 318.371 414C319.022 413.627 319.523 413.104 319.875 412.432C320.227 411.749 320.403 410.949 320.403 410.032C320.403 409.104 320.222 408.304 319.859 407.632C319.507 406.96 319.006 406.443 318.355 406.08C317.715 405.707 316.958 405.52 316.083 405.52H313.731V414.56ZM327.814 416.192C326.982 416.192 326.241 415.995 325.59 415.6C324.94 415.205 324.428 414.667 324.054 413.984C323.681 413.291 323.494 412.517 323.494 411.664C323.494 410.8 323.676 410.032 324.038 409.36C324.412 408.688 324.913 408.16 325.542 407.776C326.182 407.381 326.897 407.184 327.686 407.184C328.326 407.184 328.892 407.301 329.382 407.536C329.884 407.76 330.305 408.069 330.646 408.464C330.998 408.848 331.265 409.291 331.446 409.792C331.638 410.283 331.734 410.795 331.734 411.328C331.734 411.445 331.724 411.579 331.702 411.728C331.692 411.867 331.676 412 331.654 412.128H324.582V410.848H330.79L330.086 411.424C330.182 410.869 330.129 410.373 329.926 409.936C329.724 409.499 329.425 409.152 329.03 408.896C328.636 408.64 328.188 408.512 327.686 408.512C327.185 408.512 326.726 408.64 326.31 408.896C325.894 409.152 325.569 409.52 325.334 410C325.11 410.469 325.02 411.029 325.062 411.68C325.02 412.309 325.116 412.864 325.35 413.344C325.596 413.813 325.937 414.181 326.374 414.448C326.822 414.704 327.308 414.832 327.83 414.832C328.406 414.832 328.892 414.699 329.286 414.432C329.681 414.165 330.001 413.824 330.246 413.408L331.494 414.048C331.324 414.443 331.057 414.805 330.694 415.136C330.342 415.456 329.921 415.712 329.43 415.904C328.95 416.096 328.412 416.192 327.814 416.192ZM333.674 416V403.888H335.162V416H333.674ZM337.471 416V407.376H338.959V416H337.471ZM337.471 406V404.08H338.959V406H337.471ZM343.668 416L340.292 407.376H341.956L344.66 414.672H344.084L346.804 407.376H348.468L345.076 416H343.668ZM353.611 416.192C352.779 416.192 352.038 415.995 351.387 415.6C350.737 415.205 350.225 414.667 349.851 413.984C349.478 413.291 349.291 412.517 349.291 411.664C349.291 410.8 349.473 410.032 349.835 409.36C350.209 408.688 350.71 408.16 351.339 407.776C351.979 407.381 352.694 407.184 353.483 407.184C354.123 407.184 354.689 407.301 355.179 407.536C355.681 407.76 356.102 408.069 356.443 408.464C356.795 408.848 357.062 409.291 357.243 409.792C357.435 410.283 357.531 410.795 357.531 411.328C357.531 411.445 357.521 411.579 357.499 411.728C357.489 411.867 357.473 412 357.451 412.128H350.379V410.848H356.587L355.883 411.424C355.979 410.869 355.926 410.373 355.723 409.936C355.521 409.499 355.222 409.152 354.827 408.896C354.433 408.64 353.985 408.512 353.483 408.512C352.982 408.512 352.523 408.64 352.107 408.896C351.691 409.152 351.366 409.52 351.131 410C350.907 410.469 350.817 411.029 350.859 411.68C350.817 412.309 350.913 412.864 351.147 413.344C351.393 413.813 351.734 414.181 352.171 414.448C352.619 414.704 353.105 414.832 353.627 414.832C354.203 414.832 354.689 414.699 355.083 414.432C355.478 414.165 355.798 413.824 356.043 413.408L357.291 414.048C357.121 414.443 356.854 414.805 356.491 415.136C356.139 415.456 355.718 415.712 355.227 415.904C354.747 416.096 354.209 416.192 353.611 416.192ZM359.471 416V407.376H360.927V408.96L360.767 408.736C360.97 408.245 361.279 407.883 361.695 407.648C362.111 407.403 362.618 407.28 363.215 407.28H363.743V408.688H362.991C362.383 408.688 361.893 408.88 361.519 409.264C361.146 409.637 360.959 410.171 360.959 410.864V416H359.471ZM365.529 419.52C365.337 419.52 365.145 419.504 364.953 419.472C364.761 419.451 364.58 419.403 364.409 419.328V418C364.526 418.011 364.67 418.032 364.841 418.064C365.022 418.096 365.198 418.112 365.369 418.112C365.87 418.112 366.249 418 366.505 417.776C366.772 417.552 367.022 417.173 367.257 416.64L367.801 415.344L367.769 416.64L364.089 407.376H365.705L368.569 414.736H368.089L370.937 407.376H372.585L368.697 417.024C368.516 417.483 368.281 417.904 367.993 418.288C367.716 418.672 367.374 418.971 366.969 419.184C366.564 419.408 366.084 419.52 365.529 419.52Z" fill="#212528"/>
</g>
<path d="M301.5 182.5C301.5 181.948 301.052 181.5 300.5 181.5C299.948 181.5 299.5 181.948 299.5 182.5H301.5ZM148 250.763C148 251.315 148.448 251.763 149 251.763C149.552 251.763 150 251.315 150 250.763H148ZM150 289.763C150 289.211 149.552 288.763 149 288.763C148.448 288.763 148 289.211 148 289.763H150ZM299.793 388.207C300.183 388.598 300.817 388.598 301.207 388.207L307.571 381.843C307.962 381.453 307.962 380.819 307.571 380.429C307.181 380.038 306.547 380.038 306.157 380.429L300.5 386.086L294.843 380.429C294.453 380.038 293.819 380.038 293.429 380.429C293.038 380.819 293.038 381.453 293.429 381.843L299.793 388.207ZM299.5 182.5V194H301.5V182.5H299.5ZM276.5 217H173V219H276.5V217ZM148 242V250.763H150V242H148ZM148 289.763V296H150V289.763H148ZM173 321H276.5V319H173V321ZM299.5 344V387.5H301.5V344H299.5ZM148 296C148 309.807 159.193 321 173 321V319C160.297 319 150 308.703 150 296H148ZM173 217C159.193 217 148 228.193 148 242H150C150 229.297 160.297 219 173 219V217ZM276.5 321C289.203 321 299.5 331.297 299.5 344H301.5C301.5 330.193 290.307 319 276.5 319V321ZM299.5 194C299.5 206.703 289.203 217 276.5 217V219C290.307 219 301.5 207.807 301.5 194H299.5Z" fill="#29A653"/>
<path d="M122.413 277.455C121.656 277.455 120.962 277.316 120.333 277.039C119.704 276.751 119.17 276.362 118.733 275.871C118.296 275.38 117.981 274.831 117.789 274.223L119.149 273.663C119.437 274.431 119.864 275.023 120.429 275.439C121.005 275.844 121.677 276.047 122.445 276.047C122.914 276.047 123.325 275.972 123.677 275.823C124.029 275.674 124.301 275.466 124.493 275.199C124.696 274.922 124.797 274.602 124.797 274.239C124.797 273.738 124.653 273.343 124.365 273.055C124.088 272.756 123.677 272.532 123.133 272.383L120.941 271.711C120.077 271.444 119.416 271.023 118.957 270.447C118.498 269.871 118.269 269.21 118.269 268.463C118.269 267.812 118.424 267.242 118.733 266.751C119.053 266.25 119.49 265.86 120.045 265.583C120.61 265.295 121.25 265.151 121.965 265.151C122.68 265.151 123.325 265.279 123.901 265.535C124.488 265.791 124.984 266.138 125.389 266.575C125.794 267.002 126.093 267.492 126.285 268.047L124.941 268.607C124.685 267.935 124.301 267.428 123.789 267.087C123.277 266.735 122.674 266.559 121.981 266.559C121.554 266.559 121.176 266.634 120.845 266.783C120.525 266.922 120.274 267.13 120.093 267.407C119.922 267.674 119.837 267.994 119.837 268.367C119.837 268.804 119.976 269.194 120.253 269.535C120.53 269.876 120.952 270.138 121.517 270.319L123.517 270.911C124.456 271.199 125.165 271.61 125.645 272.143C126.125 272.676 126.365 273.338 126.365 274.127C126.365 274.778 126.194 275.354 125.853 275.855C125.522 276.356 125.058 276.751 124.461 277.039C123.874 277.316 123.192 277.455 122.413 277.455ZM131.365 277.455C130.746 277.455 130.186 277.311 129.685 277.023C129.194 276.735 128.81 276.335 128.533 275.823C128.266 275.3 128.133 274.703 128.133 274.031V268.639H129.621V273.871C129.621 274.298 129.706 274.671 129.877 274.991C130.058 275.311 130.303 275.562 130.613 275.743C130.933 275.924 131.295 276.015 131.701 276.015C132.106 276.015 132.463 275.924 132.773 275.743C133.093 275.562 133.338 275.3 133.509 274.959C133.69 274.618 133.781 274.212 133.781 273.743V268.639H135.285V277.263H133.829V275.583L134.069 275.727C133.866 276.271 133.519 276.698 133.029 277.007C132.549 277.306 131.994 277.455 131.365 277.455ZM141.414 277.455C140.571 277.455 139.819 277.258 139.158 276.863C138.507 276.468 137.995 275.93 137.622 275.247C137.249 274.564 137.062 273.796 137.062 272.943C137.062 272.079 137.249 271.311 137.622 270.639C137.995 269.967 138.507 269.434 139.158 269.039C139.819 268.644 140.571 268.447 141.414 268.447C141.979 268.447 142.507 268.548 142.998 268.751C143.489 268.954 143.921 269.226 144.294 269.567C144.667 269.908 144.939 270.308 145.11 270.767L143.782 271.407C143.579 270.959 143.27 270.596 142.854 270.319C142.438 270.031 141.958 269.887 141.414 269.887C140.891 269.887 140.417 270.02 139.99 270.287C139.574 270.554 139.243 270.916 138.998 271.375C138.753 271.834 138.63 272.362 138.63 272.959C138.63 273.535 138.753 274.058 138.998 274.527C139.243 274.986 139.574 275.348 139.99 275.615C140.417 275.882 140.891 276.015 141.414 276.015C141.958 276.015 142.438 275.876 142.854 275.599C143.27 275.311 143.579 274.932 143.782 274.463L145.11 275.135C144.939 275.583 144.667 275.983 144.294 276.335C143.921 276.676 143.489 276.948 142.998 277.151C142.507 277.354 141.979 277.455 141.414 277.455ZM150.879 277.455C150.036 277.455 149.284 277.258 148.623 276.863C147.972 276.468 147.46 275.93 147.087 275.247C146.713 274.564 146.527 273.796 146.527 272.943C146.527 272.079 146.713 271.311 147.087 270.639C147.46 269.967 147.972 269.434 148.623 269.039C149.284 268.644 150.036 268.447 150.879 268.447C151.444 268.447 151.972 268.548 152.463 268.751C152.953 268.954 153.385 269.226 153.759 269.567C154.132 269.908 154.404 270.308 154.575 270.767L153.247 271.407C153.044 270.959 152.735 270.596 152.319 270.319C151.903 270.031 151.423 269.887 150.879 269.887C150.356 269.887 149.881 270.02 149.455 270.287C149.039 270.554 148.708 270.916 148.463 271.375C148.217 271.834 148.095 272.362 148.095 272.959C148.095 273.535 148.217 274.058 148.463 274.527C148.708 274.986 149.039 275.348 149.455 275.615C149.881 275.882 150.356 276.015 150.879 276.015C151.423 276.015 151.903 275.876 152.319 275.599C152.735 275.311 153.044 274.932 153.247 274.463L154.575 275.135C154.404 275.583 154.132 275.983 153.759 276.335C153.385 276.676 152.953 276.948 152.463 277.151C151.972 277.354 151.444 277.455 150.879 277.455ZM160.311 277.455C159.479 277.455 158.738 277.258 158.087 276.863C157.437 276.468 156.925 275.93 156.551 275.247C156.178 274.554 155.991 273.78 155.991 272.927C155.991 272.063 156.173 271.295 156.535 270.623C156.909 269.951 157.41 269.423 158.039 269.039C158.679 268.644 159.394 268.447 160.183 268.447C160.823 268.447 161.389 268.564 161.879 268.799C162.381 269.023 162.802 269.332 163.143 269.727C163.495 270.111 163.762 270.554 163.943 271.055C164.135 271.546 164.231 272.058 164.231 272.591C164.231 272.708 164.221 272.842 164.199 272.991C164.189 273.13 164.173 273.263 164.151 273.391H157.079V272.111H163.287L162.583 272.687C162.679 272.132 162.626 271.636 162.423 271.199C162.221 270.762 161.922 270.415 161.527 270.159C161.133 269.903 160.685 269.775 160.183 269.775C159.682 269.775 159.223 269.903 158.807 270.159C158.391 270.415 158.066 270.783 157.831 271.263C157.607 271.732 157.517 272.292 157.559 272.943C157.517 273.572 157.613 274.127 157.847 274.607C158.093 275.076 158.434 275.444 158.871 275.711C159.319 275.967 159.805 276.095 160.327 276.095C160.903 276.095 161.389 275.962 161.783 275.695C162.178 275.428 162.498 275.087 162.743 274.671L163.991 275.311C163.821 275.706 163.554 276.068 163.191 276.399C162.839 276.719 162.418 276.975 161.927 277.167C161.447 277.359 160.909 277.455 160.311 277.455ZM169.083 277.455C168.219 277.455 167.467 277.242 166.827 276.815C166.187 276.388 165.734 275.812 165.467 275.087L166.651 274.511C166.897 275.023 167.233 275.428 167.659 275.727C168.086 276.026 168.561 276.175 169.083 276.175C169.553 276.175 169.942 276.063 170.251 275.839C170.561 275.615 170.715 275.322 170.715 274.959C170.715 274.703 170.641 274.5 170.491 274.351C170.353 274.191 170.182 274.068 169.979 273.983C169.777 273.887 169.59 273.818 169.419 273.775L168.123 273.407C167.345 273.183 166.774 272.863 166.411 272.447C166.059 272.031 165.883 271.546 165.883 270.991C165.883 270.479 166.011 270.036 166.267 269.663C166.534 269.279 166.891 268.98 167.339 268.767C167.798 268.554 168.31 268.447 168.875 268.447C169.633 268.447 170.31 268.639 170.907 269.023C171.515 269.407 171.947 269.946 172.203 270.639L170.987 271.199C170.795 270.751 170.507 270.399 170.123 270.143C169.739 269.876 169.307 269.743 168.827 269.743C168.39 269.743 168.043 269.855 167.787 270.079C167.531 270.292 167.403 270.564 167.403 270.895C167.403 271.14 167.467 271.343 167.595 271.503C167.723 271.652 167.878 271.77 168.059 271.855C168.241 271.93 168.417 271.994 168.587 272.047L169.995 272.463C170.699 272.666 171.243 272.98 171.627 273.407C172.022 273.834 172.219 274.346 172.219 274.943C172.219 275.423 172.086 275.855 171.819 276.239C171.553 276.623 171.185 276.922 170.715 277.135C170.246 277.348 169.702 277.455 169.083 277.455ZM177.079 277.455C176.215 277.455 175.463 277.242 174.823 276.815C174.183 276.388 173.73 275.812 173.463 275.087L174.647 274.511C174.893 275.023 175.229 275.428 175.655 275.727C176.082 276.026 176.557 276.175 177.079 276.175C177.549 276.175 177.938 276.063 178.247 275.839C178.557 275.615 178.711 275.322 178.711 274.959C178.711 274.703 178.637 274.5 178.487 274.351C178.349 274.191 178.178 274.068 177.975 273.983C177.773 273.887 177.586 273.818 177.415 273.775L176.119 273.407C175.341 273.183 174.77 272.863 174.407 272.447C174.055 272.031 173.879 271.546 173.879 270.991C173.879 270.479 174.007 270.036 174.263 269.663C174.53 269.279 174.887 268.98 175.335 268.767C175.794 268.554 176.306 268.447 176.871 268.447C177.629 268.447 178.306 268.639 178.903 269.023C179.511 269.407 179.943 269.946 180.199 270.639L178.983 271.199C178.791 270.751 178.503 270.399 178.119 270.143C177.735 269.876 177.303 269.743 176.823 269.743C176.386 269.743 176.039 269.855 175.783 270.079C175.527 270.292 175.399 270.564 175.399 270.895C175.399 271.14 175.463 271.343 175.591 271.503C175.719 271.652 175.874 271.77 176.055 271.855C176.237 271.93 176.413 271.994 176.583 272.047L177.991 272.463C178.695 272.666 179.239 272.98 179.623 273.407C180.018 273.834 180.215 274.346 180.215 274.943C180.215 275.423 180.082 275.855 179.815 276.239C179.549 276.623 179.181 276.922 178.711 277.135C178.242 277.348 177.698 277.455 177.079 277.455Z" fill="#29A653"/>
<path d="M451 290.5C451 289.948 450.552 289.5 450 289.5C449.447 289.5 449 289.948 449 290.5H451ZM405.213 319C404.66 319 404.213 319.448 404.213 320C404.213 320.552 404.66 321 405.213 321V319ZM344.963 321C345.515 321 345.963 320.552 345.963 320C345.963 319.448 345.515 319 344.963 319V321ZM299.468 388.207C299.858 388.598 300.491 388.598 300.882 388.207L307.246 381.843C307.636 381.453 307.636 380.819 307.246 380.429C306.855 380.038 306.222 380.038 305.832 380.429L300.175 386.086L294.518 380.429C294.127 380.038 293.494 380.038 293.104 380.429C292.713 380.819 292.713 381.453 293.104 381.843L299.468 388.207ZM449 290.5V296H451V290.5H449ZM426 319H405.213V321H426V319ZM344.963 319H324.175V321H344.963V319ZM299.175 344V387.5H301.175V344H299.175ZM324.175 319C310.368 319 299.175 330.193 299.175 344H301.175C301.175 331.297 311.472 321 324.175 321V319ZM449 296C449 308.703 438.702 319 426 319V321C439.807 321 451 309.807 451 296H449Z" fill="#29A653"/>
<path d="M355.147 325.144C354.579 325.144 354.059 325.04 353.587 324.832C353.115 324.616 352.715 324.324 352.387 323.956C352.059 323.588 351.823 323.176 351.679 322.72L352.699 322.3C352.915 322.876 353.235 323.32 353.659 323.632C354.091 323.936 354.595 324.088 355.171 324.088C355.523 324.088 355.831 324.032 356.095 323.92C356.359 323.808 356.563 323.652 356.707 323.452C356.859 323.244 356.935 323.004 356.935 322.732C356.935 322.356 356.827 322.06 356.611 321.844C356.403 321.62 356.095 321.452 355.687 321.34L354.043 320.836C353.395 320.636 352.899 320.32 352.555 319.888C352.211 319.456 352.039 318.96 352.039 318.4C352.039 317.912 352.155 317.484 352.387 317.116C352.627 316.74 352.955 316.448 353.371 316.24C353.795 316.024 354.275 315.916 354.811 315.916C355.347 315.916 355.831 316.012 356.263 316.204C356.703 316.396 357.075 316.656 357.379 316.984C357.683 317.304 357.907 317.672 358.051 318.088L357.043 318.508C356.851 318.004 356.563 317.624 356.179 317.368C355.795 317.104 355.343 316.972 354.823 316.972C354.503 316.972 354.219 317.028 353.971 317.14C353.731 317.244 353.543 317.4 353.407 317.608C353.279 317.808 353.215 318.048 353.215 318.328C353.215 318.656 353.319 318.948 353.527 319.204C353.735 319.46 354.051 319.656 354.475 319.792L355.975 320.236C356.679 320.452 357.211 320.76 357.571 321.16C357.931 321.56 358.111 322.056 358.111 322.648C358.111 323.136 357.983 323.568 357.727 323.944C357.479 324.32 357.131 324.616 356.683 324.832C356.243 325.04 355.731 325.144 355.147 325.144ZM361.86 325.144C361.396 325.144 360.976 325.036 360.6 324.82C360.232 324.604 359.944 324.304 359.736 323.92C359.536 323.528 359.436 323.08 359.436 322.576V318.532H360.552V322.456C360.552 322.776 360.616 323.056 360.744 323.296C360.88 323.536 361.064 323.724 361.296 323.86C361.536 323.996 361.808 324.064 362.112 324.064C362.416 324.064 362.684 323.996 362.916 323.86C363.156 323.724 363.34 323.528 363.468 323.272C363.604 323.016 363.672 322.712 363.672 322.36V318.532H364.8V325H363.708V323.74L363.888 323.848C363.736 324.256 363.476 324.576 363.108 324.808C362.748 325.032 362.332 325.144 361.86 325.144ZM369.397 325.144C368.765 325.144 368.201 324.996 367.705 324.7C367.217 324.404 366.833 324 366.553 323.488C366.273 322.976 366.133 322.4 366.133 321.76C366.133 321.112 366.273 320.536 366.553 320.032C366.833 319.528 367.217 319.128 367.705 318.832C368.201 318.536 368.765 318.388 369.397 318.388C369.821 318.388 370.217 318.464 370.585 318.616C370.953 318.768 371.277 318.972 371.557 319.228C371.837 319.484 372.041 319.784 372.169 320.128L371.173 320.608C371.021 320.272 370.789 320 370.477 319.792C370.165 319.576 369.805 319.468 369.397 319.468C369.005 319.468 368.649 319.568 368.329 319.768C368.017 319.968 367.769 320.24 367.585 320.584C367.401 320.928 367.309 321.324 367.309 321.772C367.309 322.204 367.401 322.596 367.585 322.948C367.769 323.292 368.017 323.564 368.329 323.764C368.649 323.964 369.005 324.064 369.397 324.064C369.805 324.064 370.165 323.96 370.477 323.752C370.789 323.536 371.021 323.252 371.173 322.9L372.169 323.404C372.041 323.74 371.837 324.04 371.557 324.304C371.277 324.56 370.953 324.764 370.585 324.916C370.217 325.068 369.821 325.144 369.397 325.144ZM376.496 325.144C375.864 325.144 375.3 324.996 374.804 324.7C374.316 324.404 373.932 324 373.652 323.488C373.372 322.976 373.232 322.4 373.232 321.76C373.232 321.112 373.372 320.536 373.652 320.032C373.932 319.528 374.316 319.128 374.804 318.832C375.3 318.536 375.864 318.388 376.496 318.388C376.92 318.388 377.316 318.464 377.684 318.616C378.052 318.768 378.376 318.972 378.656 319.228C378.936 319.484 379.14 319.784 379.268 320.128L378.272 320.608C378.12 320.272 377.888 320 377.576 319.792C377.264 319.576 376.904 319.468 376.496 319.468C376.104 319.468 375.748 319.568 375.428 319.768C375.116 319.968 374.868 320.24 374.684 320.584C374.5 320.928 374.408 321.324 374.408 321.772C374.408 322.204 374.5 322.596 374.684 322.948C374.868 323.292 375.116 323.564 375.428 323.764C375.748 323.964 376.104 324.064 376.496 324.064C376.904 324.064 377.264 323.96 377.576 323.752C377.888 323.536 378.12 323.252 378.272 322.9L379.268 323.404C379.14 323.74 378.936 324.04 378.656 324.304C378.376 324.56 378.052 324.764 377.684 324.916C377.316 325.068 376.92 325.144 376.496 325.144ZM383.57 325.144C382.946 325.144 382.39 324.996 381.902 324.7C381.414 324.404 381.03 324 380.75 323.488C380.47 322.968 380.33 322.388 380.33 321.748C380.33 321.1 380.466 320.524 380.738 320.02C381.018 319.516 381.394 319.12 381.866 318.832C382.346 318.536 382.882 318.388 383.474 318.388C383.954 318.388 384.378 318.476 384.746 318.652C385.122 318.82 385.438 319.052 385.694 319.348C385.958 319.636 386.158 319.968 386.294 320.344C386.438 320.712 386.51 321.096 386.51 321.496C386.51 321.584 386.502 321.684 386.486 321.796C386.478 321.9 386.466 322 386.45 322.096H381.146V321.136H385.802L385.274 321.568C385.346 321.152 385.306 320.78 385.154 320.452C385.002 320.124 384.778 319.864 384.482 319.672C384.186 319.48 383.85 319.384 383.474 319.384C383.098 319.384 382.754 319.48 382.442 319.672C382.13 319.864 381.886 320.14 381.71 320.5C381.542 320.852 381.474 321.272 381.506 321.76C381.474 322.232 381.546 322.648 381.722 323.008C381.906 323.36 382.162 323.636 382.49 323.836C382.826 324.028 383.19 324.124 383.582 324.124C384.014 324.124 384.378 324.024 384.674 323.824C384.97 323.624 385.21 323.368 385.394 323.056L386.33 323.536C386.202 323.832 386.002 324.104 385.73 324.352C385.466 324.592 385.15 324.784 384.782 324.928C384.422 325.072 384.018 325.144 383.57 325.144ZM390.149 325.144C389.501 325.144 388.937 324.984 388.457 324.664C387.977 324.344 387.637 323.912 387.437 323.368L388.325 322.936C388.509 323.32 388.761 323.624 389.081 323.848C389.401 324.072 389.757 324.184 390.149 324.184C390.501 324.184 390.793 324.1 391.025 323.932C391.257 323.764 391.373 323.544 391.373 323.272C391.373 323.08 391.317 322.928 391.205 322.816C391.101 322.696 390.973 322.604 390.821 322.54C390.669 322.468 390.529 322.416 390.401 322.384L389.429 322.108C388.845 321.94 388.417 321.7 388.145 321.388C387.881 321.076 387.749 320.712 387.749 320.296C387.749 319.912 387.845 319.58 388.037 319.3C388.237 319.012 388.505 318.788 388.841 318.628C389.185 318.468 389.569 318.388 389.993 318.388C390.561 318.388 391.069 318.532 391.517 318.82C391.973 319.108 392.297 319.512 392.489 320.032L391.577 320.452C391.433 320.116 391.217 319.852 390.929 319.66C390.641 319.46 390.317 319.36 389.957 319.36C389.629 319.36 389.369 319.444 389.177 319.612C388.985 319.772 388.889 319.976 388.889 320.224C388.889 320.408 388.937 320.56 389.033 320.68C389.129 320.792 389.245 320.88 389.381 320.944C389.517 321 389.649 321.048 389.777 321.088L390.833 321.4C391.361 321.552 391.769 321.788 392.057 322.108C392.353 322.428 392.501 322.812 392.501 323.26C392.501 323.62 392.401 323.944 392.201 324.232C392.001 324.52 391.725 324.744 391.373 324.904C391.021 325.064 390.613 325.144 390.149 325.144ZM396.146 325.144C395.498 325.144 394.934 324.984 394.454 324.664C393.974 324.344 393.634 323.912 393.434 323.368L394.322 322.936C394.506 323.32 394.758 323.624 395.078 323.848C395.398 324.072 395.754 324.184 396.146 324.184C396.498 324.184 396.79 324.1 397.022 323.932C397.254 323.764 397.37 323.544 397.37 323.272C397.37 323.08 397.314 322.928 397.202 322.816C397.098 322.696 396.97 322.604 396.818 322.54C396.666 322.468 396.526 322.416 396.398 322.384L395.426 322.108C394.842 321.94 394.414 321.7 394.142 321.388C393.878 321.076 393.746 320.712 393.746 320.296C393.746 319.912 393.842 319.58 394.034 319.3C394.234 319.012 394.502 318.788 394.838 318.628C395.182 318.468 395.566 318.388 395.99 318.388C396.558 318.388 397.066 318.532 397.514 318.82C397.97 319.108 398.294 319.512 398.486 320.032L397.574 320.452C397.43 320.116 397.214 319.852 396.926 319.66C396.638 319.46 396.314 319.36 395.954 319.36C395.626 319.36 395.366 319.444 395.174 319.612C394.982 319.772 394.886 319.976 394.886 320.224C394.886 320.408 394.934 320.56 395.03 320.68C395.126 320.792 395.242 320.88 395.378 320.944C395.514 321 395.646 321.048 395.774 321.088L396.83 321.4C397.358 321.552 397.766 321.788 398.054 322.108C398.35 322.428 398.498 322.812 398.498 323.26C398.498 323.62 398.398 323.944 398.198 324.232C397.998 324.52 397.722 324.744 397.37 324.904C397.018 325.064 396.61 325.144 396.146 325.144Z" fill="#29A653"/>
<path d="M468.8 32.6L464.066 27.8667C466.366 25.6 469.333 23.4 473.866 21.9L475.5 28.3667C472.533 29.4333 470.5 30.9333 468.8 32.6ZM486 36.6667L499.333 23.3333L486 10V20.0667C483.3 20.1333 480.866 20.3333 478.766 20.7L480.4 27.1667C482 26.9333 483.9 26.7667 486 26.7333V36.6667ZM486 70L499.333 56.6667L486 43.3333V53.3C473.733 52.9667 470.166 49.0333 466.4 44.8333C464.933 43.1667 463.333 41.4667 461.233 40C462.866 38.8667 464.166 37.5667 465.366 36.2333L460.666 31.5333C457.833 34.6333 455.533 36.6667 449.333 36.6667H432.666V43.3333H449.333C456.066 43.3333 458.2 45.7 461.433 49.3C465.566 53.9 470.7 59.5667 486 59.9667V70Z" fill="#E2F0FF"/>
<path d="M152.834 420.817C157.667 415.983 160.667 409.35 160.667 401.983C160.667 387.25 148.734 375.35 134 375.35C119.267 375.35 107.334 387.25 107.334 401.983C107.334 414.417 115.834 424.783 127.334 427.75V420.817C119.567 418.083 114 410.683 114 401.983C114 390.95 122.967 381.983 134 381.983C145.034 381.983 154 390.95 154 401.983C154 407.517 151.7 412.45 148.067 416.05L137.334 405.317V428.65H160.667L152.834 420.817Z" fill="#E2F0FF"/>
<path d="M199.016 30.5455V48H195.854V30.5455H199.016ZM205.389 40.3295V48H202.304V34.9091H205.253V37.1335H205.406C205.707 36.4006 206.188 35.8182 206.847 35.3864C207.511 34.9545 208.332 34.7386 209.31 34.7386C210.213 34.7386 211 34.9318 211.67 35.3182C212.347 35.7045 212.869 36.2642 213.239 36.9972C213.614 37.7301 213.798 38.6193 213.793 39.6648V48H210.707V40.142C210.707 39.267 210.48 38.5824 210.026 38.0881C209.577 37.5937 208.955 37.3466 208.159 37.3466C207.619 37.3466 207.139 37.4659 206.719 37.7045C206.304 37.9375 205.977 38.2756 205.739 38.7188C205.506 39.1619 205.389 39.6989 205.389 40.3295ZM223.466 34.9091V37.2955H215.94V34.9091H223.466ZM217.798 31.7727H220.884V44.0625C220.884 44.4773 220.946 44.7955 221.071 45.017C221.202 45.233 221.372 45.3807 221.582 45.4602C221.793 45.5398 222.026 45.5795 222.281 45.5795C222.474 45.5795 222.651 45.5653 222.81 45.5369C222.974 45.5085 223.099 45.483 223.185 45.4602L223.705 47.8722C223.54 47.929 223.304 47.9915 222.997 48.0597C222.696 48.1278 222.327 48.1676 221.889 48.179C221.116 48.2017 220.42 48.0852 219.801 47.8295C219.182 47.5682 218.69 47.1648 218.327 46.6193C217.969 46.0739 217.793 45.392 217.798 44.5739V31.7727ZM231.701 48.2557C230.388 48.2557 229.255 47.983 228.3 47.4375C227.352 46.8864 226.621 46.108 226.11 45.1023C225.599 44.0909 225.343 42.9006 225.343 41.5312C225.343 40.1847 225.599 39.0028 226.11 37.9858C226.627 36.9631 227.349 36.1676 228.275 35.5994C229.201 35.0256 230.289 34.7386 231.539 34.7386C232.346 34.7386 233.107 34.8693 233.823 35.1307C234.545 35.3864 235.181 35.7841 235.732 36.3239C236.289 36.8636 236.727 37.5511 237.045 38.3864C237.363 39.2159 237.522 40.2045 237.522 41.3523V42.2983H226.792V40.2188H234.565C234.559 39.6278 234.431 39.1023 234.181 38.642C233.931 38.1761 233.582 37.8097 233.133 37.5426C232.69 37.2756 232.173 37.142 231.582 37.142C230.951 37.142 230.397 37.2955 229.92 37.6023C229.442 37.9034 229.07 38.3011 228.803 38.7955C228.542 39.2841 228.408 39.821 228.403 40.4062V42.2216C228.403 42.983 228.542 43.6364 228.82 44.1818C229.099 44.7216 229.488 45.1364 229.988 45.4261C230.488 45.7102 231.073 45.8523 231.744 45.8523C232.192 45.8523 232.599 45.7898 232.962 45.6648C233.326 45.5341 233.641 45.3438 233.908 45.0938C234.175 44.8438 234.377 44.5341 234.513 44.1648L237.394 44.4886C237.212 45.25 236.866 45.9148 236.354 46.483C235.849 47.0455 235.201 47.483 234.411 47.7955C233.621 48.1023 232.718 48.2557 231.701 48.2557ZM243.217 30.5455V48H240.132V30.5455H243.217ZM249.475 30.5455V48H246.39V30.5455H249.475ZM252.648 48V34.9091H255.733V48H252.648ZM254.199 33.0511C253.71 33.0511 253.29 32.8892 252.938 32.5653C252.585 32.2358 252.409 31.8409 252.409 31.3807C252.409 30.9148 252.585 30.5199 252.938 30.196C253.29 29.8665 253.71 29.7017 254.199 29.7017C254.693 29.7017 255.114 29.8665 255.46 30.196C255.813 30.5199 255.989 30.9148 255.989 31.3807C255.989 31.8409 255.813 32.2358 255.46 32.5653C255.114 32.8892 254.693 33.0511 254.199 33.0511ZM264.599 53.1818C263.491 53.1818 262.539 53.0313 261.744 52.7301C260.948 52.4347 260.309 52.0369 259.826 51.5369C259.343 51.0369 259.008 50.483 258.82 49.875L261.599 49.2017C261.724 49.4574 261.906 49.7102 262.144 49.9602C262.383 50.2159 262.704 50.4261 263.107 50.5909C263.516 50.7614 264.031 50.8466 264.65 50.8466C265.525 50.8466 266.249 50.6335 266.823 50.2074C267.397 49.7869 267.684 49.0938 267.684 48.1278V45.6477H267.531C267.371 45.9659 267.138 46.2926 266.832 46.6278C266.531 46.9631 266.13 47.2443 265.63 47.4716C265.136 47.6989 264.513 47.8125 263.763 47.8125C262.758 47.8125 261.846 47.5767 261.028 47.1051C260.215 46.6278 259.567 45.9176 259.085 44.9744C258.607 44.0256 258.369 42.8381 258.369 41.4119C258.369 39.9744 258.607 38.7614 259.085 37.7727C259.567 36.7784 260.218 36.0256 261.036 35.5142C261.854 34.9972 262.766 34.7386 263.772 34.7386C264.539 34.7386 265.17 34.8693 265.664 35.1307C266.164 35.3864 266.562 35.696 266.857 36.0597C267.153 36.4176 267.377 36.7557 267.531 37.0739H267.701V34.9091H270.744V48.2131C270.744 49.3324 270.477 50.2585 269.942 50.9915C269.408 51.7244 268.678 52.2727 267.752 52.6364C266.826 53 265.775 53.1818 264.599 53.1818ZM264.624 45.392C265.278 45.392 265.835 45.233 266.295 44.9148C266.755 44.5966 267.104 44.1392 267.343 43.5426C267.582 42.946 267.701 42.2301 267.701 41.3949C267.701 40.571 267.582 39.8494 267.343 39.2301C267.11 38.6108 266.763 38.1307 266.303 37.7898C265.849 37.4432 265.289 37.2699 264.624 37.2699C263.937 37.2699 263.363 37.4489 262.903 37.8068C262.442 38.1648 262.096 38.6562 261.863 39.2812C261.63 39.9006 261.513 40.6051 261.513 41.3949C261.513 42.196 261.63 42.8977 261.863 43.5C262.102 44.0966 262.451 44.5625 262.911 44.8977C263.377 45.2273 263.948 45.392 264.624 45.392ZM279.701 48.2557C278.388 48.2557 277.255 47.983 276.3 47.4375C275.352 46.8864 274.621 46.108 274.11 45.1023C273.599 44.0909 273.343 42.9006 273.343 41.5312C273.343 40.1847 273.599 39.0028 274.11 37.9858C274.627 36.9631 275.349 36.1676 276.275 35.5994C277.201 35.0256 278.289 34.7386 279.539 34.7386C280.346 34.7386 281.107 34.8693 281.823 35.1307C282.545 35.3864 283.181 35.7841 283.732 36.3239C284.289 36.8636 284.727 37.5511 285.045 38.3864C285.363 39.2159 285.522 40.2045 285.522 41.3523V42.2983H274.792V40.2188H282.565C282.559 39.6278 282.431 39.1023 282.181 38.642C281.931 38.1761 281.582 37.8097 281.133 37.5426C280.69 37.2756 280.173 37.142 279.582 37.142C278.951 37.142 278.397 37.2955 277.92 37.6023C277.442 37.9034 277.07 38.3011 276.803 38.7955C276.542 39.2841 276.408 39.821 276.403 40.4062V42.2216C276.403 42.983 276.542 43.6364 276.82 44.1818C277.099 44.7216 277.488 45.1364 277.988 45.4261C278.488 45.7102 279.073 45.8523 279.744 45.8523C280.192 45.8523 280.599 45.7898 280.962 45.6648C281.326 45.5341 281.641 45.3438 281.908 45.0938C282.175 44.8438 282.377 44.5341 282.513 44.1648L285.394 44.4886C285.212 45.25 284.866 45.9148 284.354 46.483C283.849 47.0455 283.201 47.483 282.411 47.7955C281.621 48.1023 280.718 48.2557 279.701 48.2557ZM291.217 40.3295V48H288.132V34.9091H291.081V37.1335H291.234C291.536 36.4006 292.016 35.8182 292.675 35.3864C293.339 34.9545 294.161 34.7386 295.138 34.7386C296.041 34.7386 296.828 34.9318 297.499 35.3182C298.175 35.7045 298.697 36.2642 299.067 36.9972C299.442 37.7301 299.626 38.6193 299.621 39.6648V48H296.536V40.142C296.536 39.267 296.308 38.5824 295.854 38.0881C295.405 37.5937 294.783 37.3466 293.987 37.3466C293.447 37.3466 292.967 37.4659 292.547 37.7045C292.132 37.9375 291.805 38.2756 291.567 38.7188C291.334 39.1619 291.217 39.6989 291.217 40.3295ZM309.294 34.9091V37.2955H301.768V34.9091H309.294ZM303.626 31.7727H306.712V44.0625C306.712 44.4773 306.774 44.7955 306.899 45.017C307.03 45.233 307.2 45.3807 307.411 45.4602C307.621 45.5398 307.854 45.5795 308.109 45.5795C308.303 45.5795 308.479 45.5653 308.638 45.5369C308.803 45.5085 308.928 45.483 309.013 45.4602L309.533 47.8722C309.368 47.929 309.132 47.9915 308.825 48.0597C308.524 48.1278 308.155 48.1676 307.717 48.179C306.945 48.2017 306.249 48.0852 305.629 47.8295C305.01 47.5682 304.518 47.1648 304.155 46.6193C303.797 46.0739 303.621 45.392 303.626 44.5739V31.7727ZM317.964 48V30.5455H324.509C325.85 30.5455 326.975 30.7784 327.884 31.2443C328.799 31.7102 329.489 32.3636 329.955 33.2045C330.427 34.0398 330.663 35.0142 330.663 36.1278C330.663 37.2472 330.424 38.2187 329.947 39.0426C329.475 39.8608 328.779 40.4943 327.859 40.9432C326.938 41.3864 325.808 41.608 324.467 41.608H319.805V38.983H324.04C324.825 38.983 325.467 38.875 325.967 38.6591C326.467 38.4375 326.836 38.1165 327.075 37.696C327.319 37.2699 327.441 36.7472 327.441 36.1278C327.441 35.5085 327.319 34.9801 327.075 34.5426C326.83 34.0994 326.458 33.7642 325.958 33.5369C325.458 33.304 324.813 33.1875 324.023 33.1875H321.126V48H317.964ZM326.981 40.0909L331.302 48H327.773L323.529 40.0909H326.981ZM338.96 48.2557C337.681 48.2557 336.573 47.9744 335.636 47.4119C334.698 46.8494 333.971 46.0625 333.454 45.0511C332.942 44.0398 332.687 42.858 332.687 41.5057C332.687 40.1534 332.942 38.9687 333.454 37.9517C333.971 36.9347 334.698 36.1449 335.636 35.5824C336.573 35.0199 337.681 34.7386 338.96 34.7386C340.238 34.7386 341.346 35.0199 342.283 35.5824C343.221 36.1449 343.945 36.9347 344.457 37.9517C344.974 38.9687 345.232 40.1534 345.232 41.5057C345.232 42.858 344.974 44.0398 344.457 45.0511C343.945 46.0625 343.221 46.8494 342.283 47.4119C341.346 47.9744 340.238 48.2557 338.96 48.2557ZM338.977 45.7841C339.67 45.7841 340.249 45.5937 340.715 45.2131C341.181 44.8267 341.528 44.3097 341.755 43.6619C341.988 43.0142 342.104 42.2926 342.104 41.4972C342.104 40.696 341.988 39.9716 341.755 39.3239C341.528 38.6705 341.181 38.1506 340.715 37.7642C340.249 37.3778 339.67 37.1847 338.977 37.1847C338.266 37.1847 337.675 37.3778 337.204 37.7642C336.738 38.1506 336.388 38.6705 336.156 39.3239C335.928 39.9716 335.815 40.696 335.815 41.4972C335.815 42.2926 335.928 43.0142 336.156 43.6619C336.388 44.3097 336.738 44.8267 337.204 45.2131C337.675 45.5937 338.266 45.7841 338.977 45.7841ZM356.195 42.4943V34.9091H359.28V48H356.288V45.6733H356.152C355.857 46.4062 355.371 47.0057 354.695 47.4716C354.024 47.9375 353.197 48.1705 352.214 48.1705C351.357 48.1705 350.598 47.9801 349.939 47.5994C349.286 47.2131 348.774 46.6534 348.405 45.9205C348.036 45.1818 347.851 44.2898 347.851 43.2443V34.9091H350.936V42.767C350.936 43.5966 351.163 44.2557 351.618 44.7443C352.072 45.233 352.669 45.4773 353.408 45.4773C353.862 45.4773 354.303 45.3665 354.729 45.1449C355.155 44.9233 355.504 44.5938 355.777 44.1562C356.055 43.7131 356.195 43.1591 356.195 42.4943ZM368.989 34.9091V37.2955H361.464V34.9091H368.989ZM363.322 31.7727H366.407V44.0625C366.407 44.4773 366.469 44.7955 366.594 45.017C366.725 45.233 366.896 45.3807 367.106 45.4602C367.316 45.5398 367.549 45.5795 367.805 45.5795C367.998 45.5795 368.174 45.5653 368.333 45.5369C368.498 45.5085 368.623 45.483 368.708 45.4602L369.228 47.8722C369.063 47.929 368.827 47.9915 368.521 48.0597C368.219 48.1278 367.85 48.1676 367.413 48.179C366.64 48.2017 365.944 48.0852 365.325 47.8295C364.705 47.5682 364.214 47.1648 363.85 46.6193C363.492 46.0739 363.316 45.392 363.322 44.5739V31.7727ZM371.57 48V34.9091H374.655V48H371.57ZM373.121 33.0511C372.632 33.0511 372.212 32.8892 371.859 32.5653C371.507 32.2358 371.331 31.8409 371.331 31.3807C371.331 30.9148 371.507 30.5199 371.859 30.196C372.212 29.8665 372.632 29.7017 373.121 29.7017C373.615 29.7017 374.036 29.8665 374.382 30.196C374.734 30.5199 374.911 30.9148 374.911 31.3807C374.911 31.8409 374.734 32.2358 374.382 32.5653C374.036 32.8892 373.615 33.0511 373.121 33.0511ZM380.913 40.3295V48H377.827V34.9091H380.776V37.1335H380.93C381.231 36.4006 381.711 35.8182 382.37 35.3864C383.035 34.9545 383.856 34.7386 384.833 34.7386C385.737 34.7386 386.523 34.9318 387.194 35.3182C387.87 35.7045 388.393 36.2642 388.762 36.9972C389.137 37.7301 389.322 38.6193 389.316 39.6648V48H386.231V40.142C386.231 39.267 386.004 38.5824 385.549 38.0881C385.1 37.5937 384.478 37.3466 383.683 37.3466C383.143 37.3466 382.663 37.4659 382.242 37.7045C381.827 37.9375 381.501 38.2756 381.262 38.7188C381.029 39.1619 380.913 39.6989 380.913 40.3295ZM398.146 53.1818C397.038 53.1818 396.086 53.0313 395.29 52.7301C394.495 52.4347 393.856 52.0369 393.373 51.5369C392.89 51.0369 392.555 50.483 392.367 49.875L395.146 49.2017C395.271 49.4574 395.452 49.7102 395.691 49.9602C395.93 50.2159 396.251 50.4261 396.654 50.5909C397.063 50.7614 397.577 50.8466 398.197 50.8466C399.072 50.8466 399.796 50.6335 400.37 50.2074C400.944 49.7869 401.231 49.0938 401.231 48.1278V45.6477H401.077C400.918 45.9659 400.685 46.2926 400.379 46.6278C400.077 46.9631 399.677 47.2443 399.177 47.4716C398.683 47.6989 398.06 47.8125 397.31 47.8125C396.305 47.8125 395.393 47.5767 394.575 47.1051C393.762 46.6278 393.114 45.9176 392.631 44.9744C392.154 44.0256 391.915 42.8381 391.915 41.4119C391.915 39.9744 392.154 38.7614 392.631 37.7727C393.114 36.7784 393.765 36.0256 394.583 35.5142C395.401 34.9972 396.313 34.7386 397.319 34.7386C398.086 34.7386 398.717 34.8693 399.211 35.1307C399.711 35.3864 400.109 35.696 400.404 36.0597C400.7 36.4176 400.924 36.7557 401.077 37.0739H401.248V34.9091H404.29V48.2131C404.29 49.3324 404.023 50.2585 403.489 50.9915C402.955 51.7244 402.225 52.2727 401.299 52.6364C400.373 53 399.322 53.1818 398.146 53.1818ZM398.171 45.392C398.825 45.392 399.381 45.233 399.842 44.9148C400.302 44.5966 400.651 44.1392 400.89 43.5426C401.129 42.946 401.248 42.2301 401.248 41.3949C401.248 40.571 401.129 39.8494 400.89 39.2301C400.657 38.6108 400.31 38.1307 399.85 37.7898C399.396 37.4432 398.836 37.2699 398.171 37.2699C397.484 37.2699 396.91 37.4489 396.45 37.8068C395.989 38.1648 395.643 38.6562 395.41 39.2812C395.177 39.9006 395.06 40.6051 395.06 41.3949C395.06 42.196 395.177 42.8977 395.41 43.5C395.648 44.0966 395.998 44.5625 396.458 44.8977C396.924 45.2273 397.495 45.392 398.171 45.392Z" fill="#3A74B5"/>
<defs>
<filter id="filter0_dd_6446_32259" x="368" y="249" width="164" height="46" filterUnits="userSpaceOnUse" color-interpolation-filters="sRGB">
<feFlood flood-opacity="0" result="BackgroundImageFix"/>
<feColorMatrix in="SourceAlpha" type="matrix" values="0 0 0 0 0 0 0 0 0 0 0 0 0 0 0 0 0 0 127 0" result="hardAlpha"/>
<feOffset dy="4"/>
<feGaussianBlur stdDeviation="2"/>
<feComposite in2="hardAlpha" operator="out"/>
<feColorMatrix type="matrix" values="0 0 0 0 0 0 0 0 0 0 0 0 0 0 0 0 0 0 0.15 0"/>
<feBlend mode="normal" in2="BackgroundImageFix" result="effect1_dropShadow_6446_32259"/>
<feColorMatrix in="SourceAlpha" type="matrix" values="0 0 0 0 0 0 0 0 0 0 0 0 0 0 0 0 0 0 127 0" result="hardAlpha"/>
<feOffset/>
<feGaussianBlur stdDeviation="1"/>
<feComposite in2="hardAlpha" operator="out"/>
<feColorMatrix type="matrix" values="0 0 0 0 0 0 0 0 0 0 0 0 0 0 0 0 0 0 0.2 0"/>
<feBlend mode="normal" in2="effect1_dropShadow_6446_32259" result="effect2_dropShadow_6446_32259"/>
<feBlend mode="normal" in="SourceGraphic" in2="effect2_dropShadow_6446_32259" result="shape"/>
</filter>
<filter id="filter1_dd_6446_32259" x="219" y="141" width="163" height="46" filterUnits="userSpaceOnUse" color-interpolation-filters="sRGB">
<feFlood flood-opacity="0" result="BackgroundImageFix"/>
<feColorMatrix in="SourceAlpha" type="matrix" values="0 0 0 0 0 0 0 0 0 0 0 0 0 0 0 0 0 0 127 0" result="hardAlpha"/>
<feOffset dy="4"/>
<feGaussianBlur stdDeviation="2"/>
<feComposite in2="hardAlpha" operator="out"/>
<feColorMatrix type="matrix" values="0 0 0 0 0 0 0 0 0 0 0 0 0 0 0 0 0 0 0.15 0"/>
<feBlend mode="normal" in2="BackgroundImageFix" result="effect1_dropShadow_6446_32259"/>
<feColorMatrix in="SourceAlpha" type="matrix" values="0 0 0 0 0 0 0 0 0 0 0 0 0 0 0 0 0 0 127 0" result="hardAlpha"/>
<feOffset/>
<feGaussianBlur stdDeviation="1"/>
<feComposite in2="hardAlpha" operator="out"/>
<feColorMatrix type="matrix" values="0 0 0 0 0 0 0 0 0 0 0 0 0 0 0 0 0 0 0.2 0"/>
<feBlend mode="normal" in2="effect1_dropShadow_6446_32259" result="effect2_dropShadow_6446_32259"/>
<feBlend mode="normal" in="SourceGraphic" in2="effect2_dropShadow_6446_32259" result="shape"/>
</filter>
<filter id="filter2_dd_6446_32259" x="229" y="71" width="142.351" height="46" filterUnits="userSpaceOnUse" color-interpolation-filters="sRGB">
<feFlood flood-opacity="0" result="BackgroundImageFix"/>
<feColorMatrix in="SourceAlpha" type="matrix" values="0 0 0 0 0 0 0 0 0 0 0 0 0 0 0 0 0 0 127 0" result="hardAlpha"/>
<feOffset dy="4"/>
<feGaussianBlur stdDeviation="2"/>
<feComposite in2="hardAlpha" operator="out"/>
<feColorMatrix type="matrix" values="0 0 0 0 0 0 0 0 0 0 0 0 0 0 0 0 0 0 0.15 0"/>
<feBlend mode="normal" in2="BackgroundImageFix" result="effect1_dropShadow_6446_32259"/>
<feColorMatrix in="SourceAlpha" type="matrix" values="0 0 0 0 0 0 0 0 0 0 0 0 0 0 0 0 0 0 127 0" result="hardAlpha"/>
<feOffset/>
<feGaussianBlur stdDeviation="1"/>
<feComposite in2="hardAlpha" operator="out"/>
<feColorMatrix type="matrix" values="0 0 0 0 0 0 0 0 0 0 0 0 0 0 0 0 0 0 0.2 0"/>
<feBlend mode="normal" in2="effect1_dropShadow_6446_32259" result="effect2_dropShadow_6446_32259"/>
<feBlend mode="normal" in="SourceGraphic" in2="effect2_dropShadow_6446_32259" result="shape"/>
</filter>
<filter id="filter3_dd_6446_32259" x="207" y="389" width="186.351" height="46" filterUnits="userSpaceOnUse" color-interpolation-filters="sRGB">
<feFlood flood-opacity="0" result="BackgroundImageFix"/>
<feColorMatrix in="SourceAlpha" type="matrix" values="0 0 0 0 0 0 0 0 0 0 0 0 0 0 0 0 0 0 127 0" result="hardAlpha"/>
<feOffset dy="4"/>
<feGaussianBlur stdDeviation="2"/>
<feComposite in2="hardAlpha" operator="out"/>
<feColorMatrix type="matrix" values="0 0 0 0 0 0 0 0 0 0 0 0 0 0 0 0 0 0 0.15 0"/>
<feBlend mode="normal" in2="BackgroundImageFix" result="effect1_dropShadow_6446_32259"/>
<feColorMatrix in="SourceAlpha" type="matrix" values="0 0 0 0 0 0 0 0 0 0 0 0 0 0 0 0 0 0 127 0" result="hardAlpha"/>
<feOffset/>
<feGaussianBlur stdDeviation="1"/>
<feComposite in2="hardAlpha" operator="out"/>
<feColorMatrix type="matrix" values="0 0 0 0 0 0 0 0 0 0 0 0 0 0 0 0 0 0 0.2 0"/>
<feBlend mode="normal" in2="effect1_dropShadow_6446_32259" result="effect2_dropShadow_6446_32259"/>
<feBlend mode="normal" in="SourceGraphic" in2="effect2_dropShadow_6446_32259" result="shape"/>
</filter>
</defs>
</svg>
