<svg width="600" height="450" viewBox="0 0 600 450" fill="none" xmlns="http://www.w3.org/2000/svg">
<rect width="600" height="450" rx="16" fill="white"/>
<rect x="37" y="105" width="56" height="56" rx="16" fill="#E8F7E8"/>
<path d="M74.8985 129.89L73.8485 125.52C73.6285 124.62 72.8485 124 71.9385 124H58.0485C57.1485 124 56.3585 124.63 56.1485 125.52L55.0985 129.89C54.8585 130.91 55.0785 131.95 55.7185 132.77C55.7985 132.88 55.9085 132.96 55.9985 133.06V140C55.9985 141.1 56.8985 142 57.9985 142H71.9985C73.0985 142 73.9985 141.1 73.9985 140V133.06C74.0885 132.97 74.1985 132.88 74.2785 132.78C74.9185 131.96 75.1485 130.91 74.8985 129.89ZM71.9085 125.99L72.9585 130.36C73.0585 130.78 72.9685 131.2 72.7085 131.53C72.5685 131.71 72.2685 132 71.7685 132C71.1585 132 70.6285 131.51 70.5585 130.86L69.9785 126L71.9085 125.99ZM65.9985 126H67.9585L68.4985 130.52C68.5485 130.91 68.4285 131.3 68.1685 131.59C67.9485 131.85 67.6285 132 67.2185 132C66.5485 132 65.9985 131.41 65.9985 130.69V126ZM61.4885 130.52L62.0385 126H63.9985V130.69C63.9985 131.41 63.4485 132 62.7085 132C62.3685 132 62.0585 131.85 61.8185 131.59C61.5685 131.3 61.4485 130.91 61.4885 130.52ZM57.0385 130.36L58.0485 126H60.0185L59.4385 130.86C59.3585 131.51 58.8385 132 58.2285 132C57.7385 132 57.4285 131.71 57.2985 131.53C57.0285 131.21 56.9385 130.78 57.0385 130.36ZM57.9985 140V133.97C58.0785 133.98 58.1485 134 58.2285 134C59.0985 134 59.8885 133.64 60.4685 133.05C61.0685 133.65 61.8685 134 62.7785 134C63.6485 134 64.4285 133.64 65.0085 133.07C65.5985 133.64 66.3985 134 67.2985 134C68.1385 134 68.9385 133.65 69.5385 133.05C70.1185 133.64 70.9085 134 71.7785 134C71.8585 134 71.9285 133.98 72.0085 133.97V140H57.9985Z" fill="#307368"/>
<rect x="150" y="6" width="80" height="80" rx="16" fill="#F2F2F3"/>
<path d="M168.275 49.2614C168.918 53.9462 171.123 58.1717 174.43 61.5704L181.87 54.1299C181.87 46.2301 186.004 39.0652 192.801 35.0234L168.275 49.2614Z" fill="#9B65C3"/>
<path d="M181.962 54.0374C178.104 54.0374 174.338 53.0269 171.031 51.0979C170.113 50.5468 169.194 49.9037 168.275 49.2607C168.918 53.9455 171.123 58.171 174.43 61.5697L181.962 54.0374Z" fill="#9B65C3"/>
<path d="M181.962 54.0376L174.43 61.5699C177.828 64.9687 182.054 67.0814 186.647 67.7244L200.885 43.1064C197.027 49.8121 189.77 54.0376 181.962 54.0376Z" fill="#BE63C5"/>
<path d="M184.902 65.061C182.972 61.6622 181.962 57.9879 181.962 54.1299L174.43 61.5704C177.828 64.9691 182.054 67.0819 186.647 67.7249C186.096 66.8063 185.453 65.9796 184.902 65.061Z" fill="#BF63C6"/>
<path d="M209.979 25.1943L192.894 34.9313C186.096 38.7893 177.829 38.7893 170.939 34.9313C169.01 38.33 168 42.1881 168 46.0461C168 47.0565 168.092 48.2507 168.276 49.2611C169.194 49.9041 170.113 50.5472 171.031 51.0983C174.43 53.0273 178.104 54.0378 181.962 54.0378L210.347 25.6536C210.163 25.5618 210.071 25.3781 209.979 25.1943Z" fill="#3278B1"/>
<path d="M170.939 51.0987C174.338 53.0277 178.012 54.0381 181.87 54.0381C181.87 46.1383 186.004 38.9734 192.801 34.9316L168.275 49.1696C169.194 49.9045 170.021 50.5475 170.939 51.0987Z" fill="#3278B2"/>
<path d="M170.939 34.9316C169.01 38.3304 168 42.1884 168 46.0465C168 47.0569 168.092 48.2511 168.276 49.2615L192.894 34.9316C186.188 38.9734 177.829 38.9734 170.939 34.9316Z" fill="#45A4EC"/>
<path d="M210.347 25.6534C209.979 25.286 209.704 25.0104 209.336 24.7349C208.509 24.2756 207.499 24 206.58 24H189.954C182.054 24 174.797 28.2255 170.939 34.9311C177.737 38.7891 186.004 38.7891 192.894 34.9311C186.096 38.7891 181.962 46.1378 181.962 54.0376C189.862 54.0376 197.027 49.904 201.069 43.1065L210.806 26.0209C210.622 25.929 210.438 25.8372 210.347 25.6534Z" fill="#19BB7D"/>
<path d="M192.894 34.9307L209.979 25.1937C209.704 25.1019 209.612 24.8263 209.336 24.6426L170.939 34.9307C177.829 38.9724 186.188 38.9724 192.894 34.9307Z" fill="#08C7FB"/>
<path d="M206.489 24H189.954C182.054 24 174.797 28.2255 170.939 34.9311L209.336 24.643C208.418 24.2756 207.499 24 206.489 24Z" fill="#59F2F6"/>
<path d="M201.069 43.1065L210.806 26.0209C210.714 25.929 210.531 25.7453 210.439 25.4697L182.055 53.9457C182.055 57.8038 183.065 61.5699 184.994 64.8768C185.545 65.7954 186.188 66.714 186.831 67.6326C187.842 67.7244 188.852 67.9081 189.954 67.9081C193.813 67.9081 197.579 66.8977 200.886 64.9687C197.028 58.1712 197.028 49.8121 201.069 43.1065Z" fill="#DA3757"/>
<path d="M181.963 54.0376C181.963 57.8956 182.973 61.6618 184.902 64.9687C185.453 65.8872 186.097 66.8058 186.74 67.7244L200.978 43.1064C197.028 49.8121 189.771 54.0376 181.963 54.0376Z" fill="#D33C4E"/>
<path d="M201.068 43.1064L186.83 67.7244C187.841 67.8163 188.851 68 190.045 68C193.903 68 197.669 66.9895 200.976 65.0605C197.026 58.1712 197.026 49.8121 201.068 43.1064Z" fill="#EE5A24"/>
<path d="M211.266 26.7559C210.898 26.1129 210.531 25.5618 209.98 25.1943L192.894 34.9313C186.097 38.7893 181.963 46.138 181.963 54.0378C189.863 54.0378 197.028 49.9041 201.069 43.1067C197.211 49.9041 197.211 58.1714 201.069 65.0607C207.775 61.2027 212 53.9459 212 46.2298V29.5117C212 28.5012 211.725 27.5826 211.266 26.7559Z" fill="#8BDF55"/>
<path d="M209.98 25.1943L192.894 34.9313C186.097 38.7893 181.963 46.138 181.963 54.0378L210.347 25.6536C210.163 25.5618 210.071 25.2862 209.98 25.1943Z" fill="#25C16F"/>
<path d="M181.963 54.0376C189.863 54.0376 197.028 49.904 201.069 43.1065L210.806 26.0209C210.714 25.929 210.531 25.7453 210.439 25.4697L181.963 54.0376Z" fill="#8BDF55"/>
<path d="M210.806 26.0205L201.069 43.1061C197.211 49.9036 197.211 58.1708 201.069 65.0602L211.357 26.7554C211.082 26.4798 210.99 26.2961 210.806 26.0205Z" fill="#FFBB00"/>
<path d="M201.068 65.0607C207.866 61.2027 211.999 53.9459 211.999 46.0461V29.5117C211.999 28.5012 211.724 27.5826 211.265 26.6641L201.068 65.0607Z" fill="#FFA800"/>
<rect x="387" y="351" width="80" height="80" rx="16" fill="#F2F2F3"/>
<path d="M427.053 413H412.735C408.473 413 405 409.525 405 405.262V391C405 390.287 405.576 389.71 406.289 389.71C407.002 389.71 407.578 390.287 407.578 391V405.262C407.578 408.099 409.884 410.42 412.735 410.42H427.053C427.766 410.42 428.342 410.997 428.342 411.71C428.342 412.423 427.766 413 427.053 413Z" fill="#F9B21D"/>
<path d="M441.265 413H427.053C426.34 413 425.764 412.423 425.764 411.71C425.764 410.997 426.34 410.42 427.053 410.42H441.265C444.101 410.42 446.421 408.114 446.421 405.262V391C446.421 390.287 446.998 389.71 447.711 389.71C448.423 389.71 449 390.287 449 391V405.262C448.985 409.525 445.527 413 441.265 413Z" fill="#226DB4"/>
<path d="M447.711 392.29C446.998 392.29 446.421 391.713 446.421 391V376.738C446.421 373.901 444.116 371.579 441.265 371.579H427.053C426.34 371.579 425.764 371.003 425.764 370.29C425.764 369.577 426.34 369 427.053 369H441.265C445.527 369 449 372.474 449 376.738V391C448.985 391.713 448.408 392.29 447.711 392.29Z" fill="#089949"/>
<path d="M406.289 392.29C405.576 392.29 405 391.713 405 391V376.738C405 372.474 408.473 369 412.735 369H427.053C427.766 369 428.342 369.577 428.342 370.29C428.342 371.003 427.766 371.579 427.053 371.579H412.735C409.899 371.579 407.578 373.886 407.578 376.738V391C407.578 391.713 407.002 392.29 406.289 392.29Z" fill="#E42527"/>
<path d="M433.378 402.222C430.4 402.222 427.604 401.064 425.486 398.978L419.529 393.02C418.768 392.242 418.338 391.232 418.338 390.14C418.338 389.047 418.768 388.038 419.546 387.26C421.134 385.704 423.699 385.704 425.271 387.276L430.731 392.738C431.211 393.218 432.005 393.218 432.501 392.738C432.733 392.506 432.865 392.192 432.865 391.844C432.865 391.513 432.733 391.199 432.501 390.951L426.545 384.992C424.956 383.42 422.855 382.559 420.605 382.559C418.321 382.559 416.187 383.453 414.615 385.075C413.027 386.697 412.183 388.849 412.216 391.133C412.266 393.351 413.159 395.42 414.731 396.975C416.319 398.531 418.404 399.392 420.621 399.392C420.952 399.392 421.267 399.375 421.598 399.342C422.375 399.26 423.07 399.806 423.153 400.584C423.236 401.362 422.69 402.057 421.912 402.14C421.482 402.189 421.052 402.206 420.621 402.206C417.66 402.206 414.863 401.064 412.762 398.995C410.661 396.926 409.453 394.162 409.403 391.215C409.337 388.17 410.479 385.306 412.596 383.138C414.714 380.97 417.56 379.778 420.605 379.762C420.621 379.762 420.621 379.762 420.638 379.762C423.616 379.762 426.412 380.92 428.53 383.006L434.487 388.964C435.265 389.742 435.678 390.752 435.678 391.844C435.678 392.937 435.248 393.963 434.47 394.724C432.882 396.297 430.317 396.28 428.745 394.708L423.285 389.246C422.805 388.766 422.011 388.766 421.531 389.246C421.3 389.478 421.167 389.792 421.167 390.123C421.167 390.454 421.3 390.769 421.531 391L427.488 396.959C429.076 398.531 431.178 399.392 433.395 399.392C438.028 399.392 441.8 395.618 441.8 390.984C441.8 388.733 440.923 386.631 439.335 385.025C437.746 383.436 435.629 382.559 433.395 382.559C433.08 382.559 432.766 382.575 432.452 382.609C431.674 382.691 430.979 382.145 430.896 381.367C430.814 380.589 431.36 379.894 432.137 379.811C432.551 379.762 432.981 379.745 433.395 379.745C436.39 379.745 439.202 380.92 441.337 383.039C443.455 385.158 444.63 387.988 444.63 390.984C444.63 393.98 443.455 396.793 441.337 398.912C439.186 401.064 436.373 402.222 433.378 402.222Z" fill="#226DB4"/>
<rect x="150" y="282" width="144" height="144" rx="16" fill="#F2F2F3"/>
<path d="M181.464 335.526C181.918 335.98 182.735 337.115 183.825 336.615C184.96 336.071 190.818 335.526 192.725 335.253C194.632 335.026 196.267 335.299 196.267 335.299C196.267 335.299 191.227 342.246 190.455 343.381C189.592 344.471 185.278 350.692 184.461 351.963C183.644 353.28 181.6 356.731 180.647 358.456C179.784 360.182 181.237 360.046 181.237 360.046C181.237 360.046 184.688 360.137 185.46 360.137C186.186 360.091 186.323 359.592 186.413 359.365C186.595 359.092 186.777 358.366 187.458 357.276C188.048 356.186 189.547 353.689 191.181 350.964C192.816 348.285 194.723 345.606 196.131 343.608C197.629 341.565 199.309 339.204 199.718 338.659C200.081 338.114 201.761 335.889 202.124 335.389C202.488 334.844 202.624 334.89 203.214 334.844C203.396 334.844 203.895 334.844 204.486 334.89C206.03 334.935 208.482 335.162 209.662 335.253C211.388 335.435 213.885 335.48 215.429 335.616C216.973 335.798 216.519 334.89 216.519 334.89C216.519 334.89 216.609 333.846 216.201 332.756C215.701 331.621 215.338 331.757 215.338 331.757C213.567 331.212 207.891 330.803 204.486 330.712C203.623 330.667 202.896 330.667 202.442 330.667H201.716C198.583 330.712 190.863 331.166 189.183 331.348C187.367 331.53 181.464 332.665 180.374 332.847C179.33 333.119 179.92 333.8 179.92 333.8C179.92 333.8 180.964 335.026 181.464 335.526Z" fill="#3069B3"/>
<path d="M264.469 369.354C264.106 369.173 259.338 367.493 257.976 367.084C256.523 366.721 250.529 365.449 249.757 365.359C248.985 365.268 250.847 363.452 251.573 362.498C252.3 361.681 256.296 357.321 257.703 356.05C259.02 354.733 262.471 351.555 263.516 350.556C264.515 349.557 262.971 349.103 262.971 349.103C262.971 349.103 262.471 348.83 260.473 348.376C258.43 347.877 257.976 348.966 257.976 348.966C257.976 348.966 255.161 351.6 253.481 353.189C251.755 354.779 249.757 356.095 248.349 356.867C247.033 357.639 245.67 358.184 245.08 357.821C244.535 357.503 245.08 356.686 245.443 355.959C245.807 355.187 247.986 352.781 248.531 352.1C249.076 351.418 251.573 348.739 252.618 347.695C253.617 346.605 251.846 346.197 250.983 345.97C250.166 345.788 249.621 345.652 248.713 345.652C247.895 345.652 247.578 346.242 247.578 346.242C247.578 346.242 246.079 347.786 245.67 348.331C245.307 348.876 241.22 353.371 239.949 354.733C238.632 356.095 236.861 357.412 236.362 357.594C235.817 357.776 234.773 358.048 233.864 356.913C232.956 355.778 233.683 355.096 234.863 353.462C236.089 351.873 239.177 348.285 240.676 346.514C242.219 344.789 247.941 340.067 249.076 339.249C250.166 338.432 249.53 338.159 249.53 338.159C249.53 338.159 248.531 337.478 247.941 337.297C247.396 337.024 246.442 336.843 245.443 336.843C244.49 336.843 244.127 337.388 244.127 337.388C244.127 337.388 240.948 340.021 240.312 340.657C239.722 341.202 232.775 348.013 231.503 349.33C230.232 350.647 226.599 353.916 225.373 354.96C224.102 356.005 222.967 356.504 222.285 356.05C221.604 355.596 221.831 354.824 222.285 354.188C222.649 353.507 225.419 350.102 226.418 348.966C227.417 347.831 230.413 344.653 231.458 343.563C232.502 342.473 236.68 338.841 237.86 337.796C239.132 336.797 237.588 336.162 237.588 336.162C237.588 336.162 236.725 335.617 235.227 335.344C233.728 335.026 233.456 335.39 232.638 335.934C231.776 336.479 226.236 342.246 225.691 342.882C225.146 343.427 218.426 350.192 217.427 351.282C216.382 352.281 212.977 355.369 212.25 355.778C211.66 356.277 209.662 357.639 209.163 356.777C208.572 355.959 209.753 355.187 209.753 355.187C209.753 355.187 212.704 352.327 213.749 351.101C214.793 349.875 214.203 348.149 214.021 347.695C213.794 347.196 212.977 345.879 211.524 344.653C210.025 343.427 208.572 343.381 207.528 343.381C206.665 343.427 205.394 344.199 204.395 344.698C204.213 344.744 204.077 344.88 203.895 344.925C203.033 345.561 200.081 347.831 200.081 347.831C200.081 347.831 197.72 349.965 196.267 351.418C194.95 352.872 193.86 354.052 195.313 356.958C196.812 359.864 199.536 360.545 200.717 360.682C201.761 360.863 203.214 359.683 203.668 359.229C204.032 358.865 204.213 358.911 204.486 359.41C204.531 359.456 204.577 359.592 204.667 359.683C205.031 360.409 206.302 360.909 207.483 361.136C208.572 361.317 209.072 361.045 211.07 360.455C213.068 359.864 216.746 357.594 217.381 357.094C218.108 356.55 218.153 357.367 218.744 358.457C219.334 359.546 220.832 359.955 222.104 360.091C223.421 360.182 224.011 359.864 224.919 359.501C225.736 359.138 228.007 358.003 228.733 357.503C229.414 357.049 229.505 357.004 229.778 357.73C230.05 358.411 230.096 359.002 232.139 360.364C234.137 361.817 237.542 360.954 238.269 360.727C239.086 360.455 240.539 359.683 240.903 359.456C241.266 359.229 241.584 359.819 242.401 360.682C243.173 361.454 244.717 361.408 245.716 360.772C246.715 360.091 246.215 360.818 246.215 360.818C246.215 360.818 244.717 362.907 244.217 363.452C243.763 363.996 243.718 364.405 243.218 364.269C242.764 364.178 241.175 364.042 238.768 363.906C236.362 363.724 230.731 363.452 226.645 363.406C222.558 363.361 211.751 363.951 207.71 364.178C206.847 364.223 205.712 364.36 204.44 364.45C199.809 364.95 193.452 365.949 191 366.267C187.912 366.766 178.104 368.81 176.106 369.445C175.606 369.627 175.379 369.763 175.334 369.99V370.081C175.425 370.626 176.878 371.216 177.922 371.716C179.421 372.442 180.874 372.034 180.874 372.034C180.874 372.034 183.825 371.489 185.369 371.216C186.868 370.898 197.902 369.218 200.671 368.719C201.443 368.628 202.76 368.446 204.395 368.219C208.618 367.72 214.612 367.175 216.655 366.993C219.516 366.812 227.462 366.812 229.687 366.766C231.912 366.721 239.586 367.13 239.994 367.22C240.358 367.311 241.584 367.175 240.812 367.811C240.085 368.583 238.314 372.215 237.86 373.033C237.406 373.895 237.588 373.85 238.405 374.304C239.177 374.758 241.22 374.849 241.72 374.849C242.174 374.849 242.31 374.304 242.31 374.304C242.31 374.304 244.808 370.49 245.625 369.264C246.442 367.947 246.942 368.265 246.942 368.265C246.942 368.265 250.847 368.991 252.572 369.309C254.298 369.627 260.655 371.307 262.017 371.897C263.379 372.488 264.015 372.442 264.378 372.351C264.742 372.17 265.604 370.263 265.604 370.263V369.945C265.559 369.809 264.742 369.582 264.469 369.354ZM205.893 353.87C205.575 354.143 205.031 354.461 204.44 354.869C202.987 355.868 201.262 357.004 200.717 357.185C199.945 357.412 199.445 357.685 198.991 357.004C198.492 356.323 199.945 355.006 199.945 355.006C199.945 355.006 202.579 352.644 203.578 351.736C203.805 351.555 204.122 351.282 204.44 351.055C205.757 350.011 207.573 348.558 208.073 348.285C208.663 347.967 209.163 347.695 209.708 348.24C210.252 348.785 209.798 349.33 209.617 349.602C209.526 349.92 207.074 353.008 205.893 353.87Z" fill="#3069B3"/>
<path d="M268.93 343.881C269.702 343.881 270.428 344.062 271.11 344.426C271.836 344.789 272.381 345.379 272.744 346.06C273.107 346.787 273.334 347.513 273.334 348.24C273.334 348.967 273.107 349.738 272.744 350.42C272.381 351.146 271.791 351.691 271.11 352.054C270.383 352.417 269.656 352.645 268.93 352.645C268.158 352.645 267.431 352.417 266.75 352.054C266.024 351.691 265.479 351.101 265.116 350.42C264.752 349.693 264.525 348.967 264.525 348.24C264.525 347.513 264.752 346.742 265.116 346.06C265.479 345.334 266.069 344.789 266.75 344.426C267.431 344.017 268.158 343.881 268.93 343.881ZM268.93 344.607C268.34 344.607 267.704 344.789 267.114 345.107C266.523 345.425 266.069 345.879 265.751 346.469C265.434 347.059 265.252 347.695 265.252 348.331C265.252 349.012 265.434 349.602 265.751 350.147C266.069 350.737 266.523 351.191 267.114 351.509C267.704 351.827 268.34 352.009 268.93 352.009C269.611 352.009 270.201 351.827 270.746 351.509C271.291 351.191 271.791 350.737 272.108 350.147C272.426 349.602 272.608 348.921 272.608 348.331C272.608 347.65 272.426 347.059 272.108 346.469C271.791 345.879 271.337 345.425 270.746 345.107C270.156 344.744 269.52 344.607 268.93 344.607ZM267.023 350.692V345.97H268.657C269.202 345.97 269.611 346.015 269.883 346.06C270.156 346.151 270.338 346.287 270.474 346.56C270.655 346.787 270.701 347.014 270.701 347.241C270.701 347.559 270.61 347.922 270.338 348.104C270.065 348.376 269.793 348.467 269.339 348.558C269.52 348.603 269.611 348.739 269.702 348.83C269.883 349.012 270.156 349.33 270.428 349.784L270.973 350.737H270.02L269.566 349.965C269.248 349.421 268.975 349.012 268.748 348.876C268.567 348.785 268.43 348.694 268.158 348.694H267.704V350.737H267.023V350.692ZM267.795 348.058H268.748C269.202 348.058 269.52 348.013 269.611 347.831C269.793 347.741 269.883 347.513 269.883 347.286C269.883 347.105 269.838 347.014 269.793 346.923C269.747 346.832 269.611 346.742 269.475 346.651C269.293 346.605 269.112 346.605 268.703 346.605H267.84V348.058H267.795Z" fill="#3069B3"/>
<rect x="474" y="6" width="80" height="80" rx="16" fill="#F2F2F3"/>
<rect x="492" y="24" width="44" height="44" fill="#D92727"/>
<path d="M515.347 58.8997C514.204 58.8997 513.061 58.7763 511.962 58.5295C508.138 57.7066 504.798 55.4851 502.732 52.3584C498.424 45.8582 500.534 37.3421 507.479 33.2692C508.05 32.94 508.754 33.1046 509.105 33.6394C509.457 34.1331 509.281 34.8325 508.71 35.1616C502.908 38.5763 501.106 45.7348 504.754 51.2064C506.512 53.8394 509.281 55.6908 512.49 56.3902C515.699 57.0895 519.083 56.5959 521.896 54.9502C522.468 54.6211 523.171 54.7857 523.523 55.3205C523.874 55.8553 523.698 56.5136 523.127 56.8427C520.797 58.2003 518.072 58.8997 515.347 58.8997Z" fill="white"/>
<path fill-rule="evenodd" clip-rule="evenodd" d="M507.63 33.5286C500.826 37.5194 498.775 45.8439 502.982 52.1927C505.002 55.25 508.274 57.4289 512.026 58.2362L512.028 58.2367C513.105 58.4786 514.226 58.5997 515.347 58.5997C518.022 58.5997 520.695 57.9129 522.976 56.5835L522.977 56.5827C523.411 56.333 523.521 55.8648 523.272 55.4853C523.01 55.087 522.484 54.9584 522.047 55.2097C519.166 56.8945 515.705 57.3979 512.426 56.6833C509.145 55.9681 506.308 54.0736 504.504 51.373C500.755 45.7494 502.616 38.3998 508.558 34.9031L508.56 34.9017C508.997 34.6497 509.097 34.1453 508.861 33.8135L508.858 33.8089L508.855 33.8042C508.593 33.4059 508.067 33.2774 507.63 33.5286ZM509.353 33.47C508.911 32.8027 508.033 32.6039 507.329 33.0092L507.327 33.0104C500.242 37.1657 498.074 45.8727 502.482 52.5241C504.593 55.7195 508.003 57.9839 511.898 58.8225C513.019 59.0741 514.183 59.1997 515.347 59.1997C518.122 59.1997 520.899 58.4879 523.277 57.1023C523.986 56.6936 524.227 55.8456 523.773 55.1557C523.332 54.4847 522.452 54.284 521.746 54.6903L521.745 54.6913C518.999 56.2973 515.692 56.7811 512.554 56.097C509.418 55.4134 506.717 53.6054 505.004 51.04C501.457 45.7206 503.199 38.7537 508.861 35.4208C509.564 35.0151 509.815 34.1248 509.353 33.47Z" fill="white"/>
<path d="M526.269 54.7284C526.949 54.7284 527.5 54.2127 527.5 53.5765C527.5 52.9403 526.949 52.4245 526.269 52.4245C525.589 52.4245 525.038 52.9403 525.038 53.5765C525.038 54.2127 525.589 54.7284 526.269 54.7284Z" fill="white"/>
<path fill-rule="evenodd" clip-rule="evenodd" d="M526.269 52.7245C525.736 52.7245 525.338 53.1243 525.338 53.5765C525.338 54.0286 525.736 54.4284 526.269 54.4284C526.802 54.4284 527.2 54.0286 527.2 53.5765C527.2 53.1243 526.802 52.7245 526.269 52.7245ZM524.738 53.5765C524.738 52.7562 525.442 52.1245 526.269 52.1245C527.095 52.1245 527.8 52.7562 527.8 53.5765C527.8 54.3967 527.095 55.0284 526.269 55.0284C525.442 55.0284 524.738 54.3967 524.738 53.5765Z" fill="white"/>
<rect x="31" y="354" width="88" height="88" rx="16" fill="#E8F7E8"/>
<path fill-rule="evenodd" clip-rule="evenodd" d="M86.05 424.545L85.9252 376.561C85.602 376.238 84.9716 376.335 84.7252 376.407L83.0836 376.916C82.881 376.249 82.618 375.602 82.298 374.983C81.1332 372.759 79.4308 371.583 77.37 371.58H77.3636C77.226 371.58 77.09 371.593 76.9524 371.604L76.9364 371.606C76.8768 371.532 76.8149 371.461 76.7508 371.391C75.8548 370.431 74.7028 369.962 73.3236 370.002C70.6644 370.079 68.0164 372.002 65.8676 375.418C64.3556 377.823 63.2084 380.842 62.8804 383.18L57.6436 384.804C56.1028 385.289 56.0548 385.337 55.8516 386.791C55.6996 387.892 51.666 419.122 51.666 419.122L85.4708 424.975L86.05 424.543V424.545ZM74.9748 372.196C74.5252 371.9 73.9988 371.762 73.3748 371.775C69.2692 371.894 65.6884 378.314 64.7748 382.593L68.7076 381.374L69.41 381.156C69.9252 378.439 71.218 375.62 72.9092 373.806C73.5005 373.155 74.1986 372.611 74.9732 372.196H74.9748ZM71.354 380.553L76.9988 378.802C77.0164 377.33 76.8564 375.154 76.1204 373.618C75.3364 373.942 74.6772 374.508 74.2036 375.015C72.9348 376.38 71.8996 378.462 71.3556 380.553H71.354ZM78.7668 378.255L81.3908 377.441C80.9716 376.078 79.9764 373.793 77.9588 373.409C78.586 375.03 78.7476 376.906 78.7668 378.255V378.255Z" fill="#95BF47"/>
<path d="M93.6243 380.13C93.4227 380.114 89.5155 380.053 89.5155 380.053C89.5155 380.053 86.2467 376.876 85.9235 376.551C85.7984 376.435 85.6398 376.362 85.4707 376.343V424.967L100.119 421.32C100.119 421.32 94.1411 380.855 94.1027 380.578C94.0842 380.46 94.0269 380.352 93.9399 380.271C93.8529 380.19 93.7413 380.14 93.6227 380.13H93.6243Z" fill="#5E8E3E"/>
<path d="M77.3538 387.681L75.6514 394.055C75.6514 394.055 73.7538 393.19 71.5026 393.332C68.2034 393.54 68.1682 395.625 68.2018 396.148C68.381 398.996 75.8706 399.62 76.2914 406.297C76.6226 411.55 73.509 415.145 69.0226 415.427C63.6386 415.767 60.6738 412.587 60.6738 412.587L61.8146 407.726C61.8146 407.726 64.7986 409.98 67.1858 409.828C68.7474 409.731 69.3042 408.46 69.2482 407.561C69.013 403.844 62.9138 404.062 62.5282 397.953C62.205 392.809 65.5762 387.601 73.0178 387.131C75.885 386.948 77.3538 387.683 77.3538 387.683" fill="white"/>
<rect x="492" y="264" width="56" height="56" rx="16" fill="#E8F7E8"/>
<path d="M526 286H524C524 283.79 522.21 282 520 282C517.79 282 516 283.79 516 286H514C512.9 286 512 286.9 512 288V300C512 301.1 512.9 302 514 302H526C527.1 302 528 301.1 528 300V288C528 286.9 527.1 286 526 286ZM520 284C521.1 284 522 284.9 522 286H518C518 284.9 518.9 284 520 284ZM526 300H514V288H516V290C516 290.55 516.45 291 517 291C517.55 291 518 290.55 518 290V288H522V290C522 290.55 522.45 291 523 291C523.55 291 524 290.55 524 290V288H526V300Z" fill="#307368"/>
<g filter="url(#filter0_d_9212_9247)">
<rect x="195.5" y="163" width="226" height="68" rx="16" fill="#E8F7E8" shape-rendering="crispEdges"/>
<path d="M233.506 186.636V207H229.817V186.636H233.506ZM240.941 198.051V207H237.342V191.727H240.782V194.322H240.961C241.312 193.467 241.872 192.788 242.641 192.284C243.417 191.78 244.375 191.528 245.515 191.528C246.569 191.528 247.487 191.754 248.269 192.205C249.058 192.655 249.668 193.308 250.099 194.163C250.536 195.018 250.752 196.056 250.745 197.276V207H247.146V197.832C247.146 196.812 246.88 196.013 246.35 195.436C245.826 194.859 245.101 194.571 244.173 194.571C243.543 194.571 242.983 194.71 242.492 194.989C242.008 195.26 241.627 195.655 241.349 196.172C241.077 196.689 240.941 197.315 240.941 198.051ZM262.031 191.727V194.511H253.251V191.727H262.031ZM255.418 188.068H259.018V202.406C259.018 202.89 259.091 203.261 259.237 203.52C259.389 203.772 259.588 203.944 259.833 204.037C260.078 204.13 260.35 204.176 260.648 204.176C260.874 204.176 261.079 204.16 261.265 204.126C261.457 204.093 261.603 204.063 261.702 204.037L262.309 206.851C262.117 206.917 261.842 206.99 261.484 207.07C261.132 207.149 260.701 207.196 260.191 207.209C259.29 207.235 258.478 207.099 257.755 206.801C257.032 206.496 256.459 206.026 256.035 205.389C255.617 204.753 255.412 203.957 255.418 203.003V188.068ZM271.638 207.298C270.107 207.298 268.784 206.98 267.671 206.344C266.564 205.701 265.712 204.793 265.115 203.619C264.519 202.439 264.221 201.051 264.221 199.453C264.221 197.882 264.519 196.503 265.115 195.317C265.719 194.124 266.56 193.196 267.641 192.533C268.721 191.863 269.991 191.528 271.449 191.528C272.391 191.528 273.279 191.681 274.114 191.986C274.956 192.284 275.698 192.748 276.341 193.378C276.991 194.008 277.501 194.81 277.873 195.784C278.244 196.752 278.429 197.905 278.429 199.244V200.348H265.911V197.922H274.979C274.972 197.232 274.823 196.619 274.532 196.082C274.24 195.539 273.832 195.111 273.309 194.8C272.792 194.488 272.188 194.332 271.499 194.332C270.763 194.332 270.117 194.511 269.56 194.869C269.003 195.221 268.569 195.685 268.257 196.261C267.953 196.831 267.797 197.458 267.79 198.141V200.259C267.79 201.147 267.953 201.909 268.277 202.545C268.602 203.175 269.056 203.659 269.64 203.997C270.223 204.329 270.906 204.494 271.688 204.494C272.212 204.494 272.685 204.421 273.11 204.276C273.534 204.123 273.902 203.901 274.213 203.609C274.525 203.318 274.76 202.956 274.919 202.526L278.28 202.903C278.068 203.792 277.664 204.567 277.067 205.23C276.477 205.886 275.721 206.397 274.8 206.761C273.879 207.119 272.825 207.298 271.638 207.298ZM288.116 213.045C286.824 213.045 285.714 212.87 284.786 212.518C283.857 212.174 283.112 211.71 282.548 211.126C281.985 210.543 281.594 209.897 281.375 209.188L284.616 208.402C284.762 208.7 284.974 208.995 285.253 209.287C285.531 209.585 285.906 209.83 286.376 210.023C286.854 210.222 287.454 210.321 288.176 210.321C289.197 210.321 290.042 210.072 290.712 209.575C291.381 209.085 291.716 208.276 291.716 207.149V204.256H291.537C291.351 204.627 291.08 205.008 290.722 205.399C290.37 205.79 289.903 206.118 289.32 206.384C288.743 206.649 288.017 206.781 287.142 206.781C285.969 206.781 284.905 206.506 283.95 205.956C283.002 205.399 282.247 204.571 281.683 203.47C281.126 202.363 280.848 200.978 280.848 199.314C280.848 197.637 281.126 196.222 281.683 195.068C282.247 193.908 283.006 193.03 283.96 192.433C284.915 191.83 285.979 191.528 287.152 191.528C288.047 191.528 288.783 191.681 289.359 191.986C289.943 192.284 290.407 192.645 290.751 193.07C291.096 193.487 291.358 193.882 291.537 194.253H291.736V191.727H295.286V207.249C295.286 208.554 294.974 209.635 294.351 210.49C293.728 211.345 292.876 211.985 291.795 212.409C290.715 212.833 289.489 213.045 288.116 213.045ZM288.146 203.957C288.909 203.957 289.558 203.772 290.095 203.401C290.632 203.029 291.04 202.496 291.318 201.8C291.597 201.104 291.736 200.268 291.736 199.294C291.736 198.333 291.597 197.491 291.318 196.768C291.046 196.046 290.642 195.486 290.105 195.088C289.575 194.684 288.922 194.482 288.146 194.482C287.344 194.482 286.675 194.69 286.138 195.108C285.601 195.526 285.196 196.099 284.925 196.828C284.653 197.551 284.517 198.373 284.517 199.294C284.517 200.229 284.653 201.047 284.925 201.75C285.203 202.446 285.611 202.99 286.148 203.381C286.691 203.765 287.357 203.957 288.146 203.957ZM298.974 207V191.727H302.464V194.273H302.624C302.902 193.391 303.379 192.712 304.055 192.234C304.738 191.75 305.517 191.509 306.392 191.509C306.591 191.509 306.813 191.518 307.058 191.538C307.31 191.552 307.519 191.575 307.685 191.608V194.919C307.532 194.866 307.29 194.82 306.959 194.78C306.634 194.733 306.319 194.71 306.014 194.71C305.358 194.71 304.768 194.853 304.244 195.138C303.727 195.416 303.32 195.804 303.021 196.301C302.723 196.798 302.574 197.372 302.574 198.021V207H298.974ZM314.197 207.308C313.23 207.308 312.358 207.136 311.582 206.791C310.813 206.44 310.204 205.923 309.753 205.24C309.309 204.557 309.087 203.715 309.087 202.714C309.087 201.853 309.246 201.14 309.564 200.577C309.882 200.013 310.316 199.562 310.866 199.224C311.417 198.886 312.036 198.631 312.726 198.459C313.422 198.28 314.141 198.151 314.884 198.071C315.778 197.978 316.504 197.895 317.061 197.822C317.618 197.743 318.022 197.624 318.274 197.464C318.533 197.299 318.662 197.044 318.662 196.699V196.639C318.662 195.89 318.44 195.31 317.996 194.899C317.552 194.488 316.912 194.283 316.077 194.283C315.195 194.283 314.496 194.475 313.979 194.859C313.468 195.244 313.124 195.698 312.945 196.222L309.584 195.744C309.849 194.816 310.286 194.041 310.896 193.418C311.506 192.788 312.252 192.317 313.134 192.006C314.015 191.688 314.99 191.528 316.057 191.528C316.793 191.528 317.525 191.615 318.254 191.787C318.983 191.959 319.65 192.244 320.253 192.642C320.856 193.033 321.34 193.567 321.705 194.243C322.076 194.919 322.261 195.764 322.261 196.778V207H318.801V204.902H318.682C318.463 205.326 318.155 205.724 317.757 206.095C317.366 206.46 316.872 206.755 316.276 206.98C315.686 207.199 314.993 207.308 314.197 207.308ZM315.132 204.663C315.855 204.663 316.481 204.521 317.011 204.236C317.542 203.944 317.949 203.56 318.234 203.082C318.526 202.605 318.672 202.085 318.672 201.521V199.722C318.559 199.814 318.367 199.901 318.095 199.98C317.83 200.06 317.532 200.129 317.2 200.189C316.869 200.249 316.541 200.302 316.216 200.348C315.891 200.394 315.609 200.434 315.371 200.467C314.834 200.54 314.353 200.66 313.929 200.825C313.505 200.991 313.17 201.223 312.925 201.521C312.679 201.813 312.557 202.191 312.557 202.655C312.557 203.318 312.799 203.818 313.283 204.156C313.767 204.494 314.383 204.663 315.132 204.663ZM332.543 207.298C331.018 207.298 329.709 206.964 328.615 206.294C327.528 205.625 326.689 204.7 326.099 203.52C325.516 202.333 325.224 200.968 325.224 199.423C325.224 197.872 325.523 196.503 326.119 195.317C326.716 194.124 327.558 193.196 328.645 192.533C329.739 191.863 331.031 191.528 332.523 191.528C333.762 191.528 334.859 191.757 335.814 192.214C336.775 192.665 337.541 193.305 338.111 194.134C338.681 194.955 339.006 195.917 339.085 197.017H335.645C335.506 196.281 335.174 195.668 334.651 195.178C334.134 194.68 333.441 194.432 332.572 194.432C331.837 194.432 331.19 194.631 330.634 195.028C330.077 195.42 329.643 195.983 329.331 196.719C329.026 197.455 328.874 198.336 328.874 199.364C328.874 200.404 329.026 201.299 329.331 202.048C329.636 202.791 330.063 203.364 330.614 203.768C331.17 204.166 331.823 204.365 332.572 204.365C333.103 204.365 333.577 204.266 333.994 204.067C334.419 203.861 334.773 203.566 335.058 203.182C335.343 202.797 335.539 202.33 335.645 201.78H339.085C338.999 202.86 338.681 203.818 338.131 204.653C337.58 205.482 336.831 206.132 335.884 206.602C334.936 207.066 333.822 207.298 332.543 207.298ZM331.509 206.92H333.457L333.298 207.766C333.921 207.858 334.448 208.097 334.879 208.482C335.317 208.873 335.536 209.433 335.536 210.162C335.542 211.103 335.121 211.859 334.273 212.429C333.424 212.999 332.214 213.284 330.643 213.284L330.604 211.514C331.366 211.514 331.973 211.411 332.423 211.206C332.874 211.007 333.103 210.689 333.109 210.251C333.123 209.827 332.964 209.516 332.632 209.317C332.307 209.125 331.79 208.992 331.081 208.919L331.509 206.92ZM348.703 207.298C347.211 207.298 345.919 206.97 344.825 206.314C343.731 205.658 342.883 204.74 342.279 203.56C341.683 202.38 341.385 201.001 341.385 199.423C341.385 197.846 341.683 196.464 342.279 195.277C342.883 194.09 343.731 193.169 344.825 192.513C345.919 191.857 347.211 191.528 348.703 191.528C350.194 191.528 351.487 191.857 352.581 192.513C353.674 193.169 354.52 194.09 355.116 195.277C355.719 196.464 356.021 197.846 356.021 199.423C356.021 201.001 355.719 202.38 355.116 203.56C354.52 204.74 353.674 205.658 352.581 206.314C351.487 206.97 350.194 207.298 348.703 207.298ZM348.723 204.415C349.531 204.415 350.208 204.193 350.751 203.749C351.295 203.298 351.699 202.695 351.964 201.939C352.236 201.183 352.372 200.341 352.372 199.413C352.372 198.479 352.236 197.634 351.964 196.878C351.699 196.116 351.295 195.509 350.751 195.058C350.208 194.607 349.531 194.382 348.723 194.382C347.894 194.382 347.205 194.607 346.654 195.058C346.111 195.509 345.703 196.116 345.431 196.878C345.166 197.634 345.034 198.479 345.034 199.413C345.034 200.341 345.166 201.183 345.431 201.939C345.703 202.695 346.111 203.298 346.654 203.749C347.205 204.193 347.894 204.415 348.723 204.415ZM345.779 189.868L343.602 189.818C343.602 188.638 343.907 187.714 344.517 187.044C345.127 186.375 345.879 186.04 346.774 186.04C347.205 186.04 347.579 186.113 347.897 186.259C348.216 186.398 348.507 186.56 348.772 186.746C349.044 186.931 349.309 187.097 349.568 187.243C349.826 187.382 350.111 187.452 350.423 187.452C350.801 187.452 351.099 187.309 351.318 187.024C351.543 186.739 351.659 186.375 351.666 185.93L353.804 186.02C353.797 187.206 353.489 188.128 352.879 188.784C352.269 189.434 351.52 189.762 350.632 189.768C350.154 189.775 349.753 189.705 349.429 189.56C349.104 189.414 348.819 189.248 348.574 189.062C348.335 188.877 348.093 188.714 347.848 188.575C347.602 188.429 347.314 188.357 346.983 188.357C346.631 188.357 346.343 188.496 346.118 188.774C345.892 189.053 345.779 189.417 345.779 189.868ZM365.837 207.298C364.306 207.298 362.984 206.98 361.87 206.344C360.763 205.701 359.911 204.793 359.315 203.619C358.718 202.439 358.42 201.051 358.42 199.453C358.42 197.882 358.718 196.503 359.315 195.317C359.918 194.124 360.76 193.196 361.84 192.533C362.921 191.863 364.19 191.528 365.648 191.528C366.59 191.528 367.478 191.681 368.313 191.986C369.155 192.284 369.897 192.748 370.54 193.378C371.19 194.008 371.701 194.81 372.072 195.784C372.443 196.752 372.629 197.905 372.629 199.244V200.348H360.11V197.922H369.178C369.172 197.232 369.022 196.619 368.731 196.082C368.439 195.539 368.031 195.111 367.508 194.8C366.991 194.488 366.388 194.332 365.698 194.332C364.962 194.332 364.316 194.511 363.759 194.869C363.202 195.221 362.768 195.685 362.457 196.261C362.152 196.831 361.996 197.458 361.989 198.141V200.259C361.989 201.147 362.152 201.909 362.477 202.545C362.801 203.175 363.255 203.659 363.839 203.997C364.422 204.329 365.105 204.494 365.887 204.494C366.411 204.494 366.885 204.421 367.309 204.276C367.733 204.123 368.101 203.901 368.413 203.609C368.724 203.318 368.96 202.956 369.119 202.526L372.479 202.903C372.267 203.792 371.863 204.567 371.266 205.23C370.676 205.886 369.921 206.397 368.999 206.761C368.078 207.119 367.024 207.298 365.837 207.298ZM387.745 195.764L384.463 196.122C384.371 195.791 384.208 195.479 383.976 195.188C383.751 194.896 383.446 194.661 383.061 194.482C382.677 194.303 382.206 194.213 381.65 194.213C380.9 194.213 380.271 194.375 379.76 194.7C379.257 195.025 379.008 195.446 379.015 195.963C379.008 196.407 379.17 196.768 379.502 197.047C379.84 197.325 380.397 197.554 381.172 197.733L383.777 198.29C385.222 198.601 386.296 199.095 386.999 199.771C387.708 200.447 388.066 201.332 388.073 202.426C388.066 203.387 387.784 204.236 387.228 204.972C386.677 205.701 385.912 206.271 384.931 206.682C383.95 207.093 382.823 207.298 381.55 207.298C379.681 207.298 378.176 206.907 377.036 206.125C375.896 205.336 375.216 204.239 374.998 202.834L378.507 202.496C378.667 203.185 379.005 203.705 379.522 204.057C380.039 204.408 380.712 204.584 381.54 204.584C382.395 204.584 383.081 204.408 383.598 204.057C384.122 203.705 384.384 203.271 384.384 202.754C384.384 202.317 384.215 201.955 383.877 201.67C383.545 201.385 383.028 201.167 382.326 201.014L379.721 200.467C378.256 200.162 377.172 199.649 376.469 198.926C375.766 198.197 375.418 197.276 375.425 196.162C375.418 195.221 375.674 194.405 376.191 193.716C376.714 193.02 377.44 192.483 378.368 192.105C379.303 191.721 380.38 191.528 381.6 191.528C383.39 191.528 384.798 191.91 385.826 192.672C386.86 193.434 387.499 194.465 387.745 195.764Z" fill="#307368"/>
</g>
<path d="M424.75 196.251C424.336 196.251 424 196.586 424 197.001C424 197.415 424.336 197.751 424.75 197.751V196.251ZM519.302 80.6152C519.009 80.3223 518.534 80.3223 518.241 80.6152L513.468 85.3881C513.176 85.681 513.176 86.1559 513.468 86.4488C513.761 86.7417 514.236 86.7417 514.529 86.4488L518.772 82.2062L523.014 86.4488C523.307 86.7417 523.782 86.7417 524.075 86.4488C524.368 86.1559 524.368 85.681 524.075 85.3881L519.302 80.6152ZM424.75 197.751H494.772V196.251H424.75V197.751ZM519.522 173.001V81.1455H518.022V173.001H519.522ZM494.772 197.751C508.441 197.751 519.522 186.67 519.522 173.001H518.022C518.022 185.841 507.612 196.251 494.772 196.251V197.751Z" fill="#8F9396"/>
<path d="M192.25 197.75C192.664 197.75 193 197.414 193 197C193 196.586 192.664 196.25 192.25 196.25V197.75ZM74.4697 351.28C74.7626 351.573 75.2374 351.573 75.5303 351.28L80.3033 346.507C80.5962 346.214 80.5962 345.74 80.3033 345.447C80.0104 345.154 79.5355 345.154 79.2426 345.447L75 349.689L70.7574 345.447C70.4645 345.154 69.9896 345.154 69.6967 345.447C69.4038 345.74 69.4038 346.214 69.6967 346.507L74.4697 351.28ZM192.25 196.25H99V197.75H192.25V196.25ZM74.25 221V350.75H75.75V221H74.25ZM99 196.25C85.331 196.25 74.25 207.331 74.25 221H75.75C75.75 208.159 86.1594 197.75 99 197.75V196.25Z" fill="#8F9396"/>
<path d="M307.75 159.75C307.75 160.164 308.086 160.5 308.5 160.5C308.914 160.5 309.25 160.164 309.25 159.75H307.75ZM190.53 88.7197C190.237 88.4268 189.763 88.4268 189.47 88.7197L184.697 93.4926C184.404 93.7855 184.404 94.2604 184.697 94.5533C184.99 94.8462 185.464 94.8462 185.757 94.5533L190 90.3107L194.243 94.5533C194.536 94.8462 195.01 94.8462 195.303 94.5533C195.596 94.2604 195.596 93.7855 195.303 93.4926L190.53 88.7197ZM309.25 159.75V148.5H307.75V159.75H309.25ZM284.5 123.75H214V125.25H284.5V123.75ZM190.75 100.5V89.25H189.25V100.5H190.75ZM214 123.75C201.159 123.75 190.75 113.341 190.75 100.5H189.25C189.25 114.169 200.331 125.25 214 125.25V123.75ZM309.25 148.5C309.25 134.831 298.169 123.75 284.5 123.75V125.25C297.341 125.25 307.75 135.659 307.75 148.5H309.25Z" fill="#8F9396"/>
<path d="M309.25 234.25C309.25 233.836 308.914 233.5 308.5 233.5C308.086 233.5 307.75 233.836 307.75 234.25H309.25ZM426.47 348.28C426.763 348.573 427.237 348.573 427.53 348.28L432.303 343.507C432.596 343.214 432.596 342.74 432.303 342.447C432.01 342.154 431.536 342.154 431.243 342.447L427 346.689L422.757 342.447C422.464 342.154 421.99 342.154 421.697 342.447C421.404 342.74 421.404 343.214 421.697 343.507L426.47 348.28ZM307.75 234.25V267H309.25V234.25H307.75ZM332.5 291.75H403V290.25H332.5V291.75ZM426.25 315V347.75H427.75V315H426.25ZM403 291.75C415.841 291.75 426.25 302.159 426.25 315H427.75C427.75 301.331 416.669 290.25 403 290.25V291.75ZM307.75 267C307.75 280.669 318.831 291.75 332.5 291.75V290.25C319.659 290.25 309.25 279.841 309.25 267H307.75Z" fill="#8F9396"/>
<defs>
<filter id="filter0_d_9212_9247" x="187.5" y="159" width="242" height="84" filterUnits="userSpaceOnUse" color-interpolation-filters="sRGB">
<feFlood flood-opacity="0" result="BackgroundImageFix"/>
<feColorMatrix in="SourceAlpha" type="matrix" values="0 0 0 0 0 0 0 0 0 0 0 0 0 0 0 0 0 0 127 0" result="hardAlpha"/>
<feOffset dy="4"/>
<feGaussianBlur stdDeviation="4"/>
<feComposite in2="hardAlpha" operator="out"/>
<feColorMatrix type="matrix" values="0 0 0 0 0 0 0 0 0 0 0 0 0 0 0 0 0 0 0.2 0"/>
<feBlend mode="normal" in2="BackgroundImageFix" result="effect1_dropShadow_9212_9247"/>
<feBlend mode="normal" in="SourceGraphic" in2="effect1_dropShadow_9212_9247" result="shape"/>
</filter>
</defs>
</svg>
