<svg width="600" height="450" viewBox="0 0 600 450" fill="none" xmlns="http://www.w3.org/2000/svg">
<rect x="40" y="70" width="172" height="109" rx="8" fill="#E2F0FF"/>
<path d="M82.666 111.167H61.3327C59.866 111.167 58.666 112.367 58.666 113.833V137.833L63.9993 132.5H82.666C84.1327 132.5 85.3327 131.3 85.3327 129.833V113.833C85.3327 112.367 84.1327 111.167 82.666 111.167ZM82.666 129.833H63.9993L61.3327 132.5V113.833H82.666V129.833Z" fill="#1E75BA"/>
<path d="M96.6165 96.1406V94.8182H104.496V96.1406H101.32V105H99.7884V96.1406H96.6165ZM108.228 105.154C107.512 105.154 106.887 104.99 106.353 104.662C105.82 104.334 105.405 103.875 105.11 103.285C104.815 102.695 104.668 102.005 104.668 101.217C104.668 100.424 104.815 99.7318 105.11 99.1385C105.405 98.5452 105.82 98.0845 106.353 97.7564C106.887 97.4283 107.512 97.2642 108.228 97.2642C108.944 97.2642 109.568 97.4283 110.102 97.7564C110.636 98.0845 111.05 98.5452 111.345 99.1385C111.64 99.7318 111.787 100.424 111.787 101.217C111.787 102.005 111.64 102.695 111.345 103.285C111.05 103.875 110.636 104.334 110.102 104.662C109.568 104.99 108.944 105.154 108.228 105.154ZM108.233 103.906C108.697 103.906 109.081 103.784 109.386 103.538C109.691 103.293 109.916 102.967 110.062 102.559C110.211 102.151 110.286 101.702 110.286 101.212C110.286 100.724 110.211 100.277 110.062 99.8693C109.916 99.4583 109.691 99.1286 109.386 98.88C109.081 98.6314 108.697 98.5071 108.233 98.5071C107.765 98.5071 107.377 98.6314 107.069 98.88C106.764 99.1286 106.537 99.4583 106.388 99.8693C106.242 100.277 106.169 100.724 106.169 101.212C106.169 101.702 106.242 102.151 106.388 102.559C106.537 102.967 106.764 103.293 107.069 103.538C107.377 103.784 107.765 103.906 108.233 103.906ZM117.011 97.3636V98.5568H112.84V97.3636H117.011ZM113.959 95.5341H115.445V102.758C115.445 103.046 115.488 103.263 115.574 103.409C115.661 103.552 115.772 103.649 115.907 103.702C116.047 103.752 116.198 103.777 116.36 103.777C116.479 103.777 116.584 103.769 116.673 103.752C116.763 103.736 116.832 103.722 116.882 103.712L117.15 104.94C117.064 104.973 116.942 105.007 116.782 105.04C116.623 105.076 116.425 105.096 116.186 105.099C115.795 105.106 115.43 105.036 115.092 104.891C114.754 104.745 114.481 104.519 114.272 104.214C114.063 103.91 113.959 103.527 113.959 103.066V95.5341ZM120.878 105.169C120.394 105.169 119.956 105.08 119.565 104.901C119.174 104.718 118.864 104.455 118.636 104.11C118.41 103.765 118.298 103.343 118.298 102.842C118.298 102.411 118.38 102.057 118.546 101.778C118.712 101.5 118.936 101.28 119.217 101.117C119.499 100.955 119.814 100.832 120.162 100.749C120.51 100.666 120.865 100.603 121.226 100.56C121.683 100.507 122.054 100.464 122.339 100.431C122.625 100.395 122.832 100.337 122.961 100.257C123.09 100.178 123.155 100.048 123.155 99.8693V99.8345C123.155 99.4003 123.032 99.0639 122.787 98.8253C122.545 98.5866 122.184 98.4673 121.703 98.4673C121.203 98.4673 120.808 98.5784 120.52 98.8004C120.235 99.0192 120.038 99.2628 119.928 99.5312L118.531 99.2131C118.697 98.7491 118.939 98.3745 119.257 98.0895C119.579 97.8011 119.948 97.5923 120.366 97.4631C120.783 97.3305 121.223 97.2642 121.683 97.2642C121.988 97.2642 122.311 97.3007 122.653 97.3736C122.997 97.4432 123.319 97.5724 123.617 97.7614C123.919 97.9503 124.166 98.2204 124.358 98.5717C124.55 98.9197 124.646 99.3722 124.646 99.929V105H123.195V103.956H123.135C123.039 104.148 122.895 104.337 122.702 104.523C122.51 104.708 122.263 104.862 121.962 104.985C121.66 105.108 121.299 105.169 120.878 105.169ZM121.201 103.976C121.612 103.976 121.963 103.895 122.255 103.732C122.55 103.57 122.774 103.358 122.926 103.096C123.082 102.831 123.16 102.547 123.16 102.246V101.261C123.107 101.314 123.004 101.364 122.852 101.411C122.702 101.454 122.532 101.492 122.339 101.525C122.147 101.555 121.96 101.583 121.778 101.609C121.595 101.633 121.443 101.652 121.32 101.669C121.032 101.705 120.768 101.767 120.53 101.853C120.295 101.939 120.106 102.063 119.963 102.226C119.824 102.385 119.754 102.597 119.754 102.862C119.754 103.23 119.89 103.509 120.162 103.697C120.434 103.883 120.78 103.976 121.201 103.976ZM128.113 94.8182V105H126.626V94.8182H128.113ZM136.676 105.149C136.06 105.149 135.51 104.992 135.026 104.677C134.545 104.359 134.167 103.906 133.892 103.32C133.62 102.73 133.485 102.022 133.485 101.197C133.485 100.371 133.622 99.6655 133.897 99.0788C134.176 98.4922 134.557 98.0431 135.041 97.7315C135.525 97.42 136.073 97.2642 136.686 97.2642C137.16 97.2642 137.541 97.3438 137.83 97.5028C138.121 97.6586 138.347 97.8409 138.506 98.0497C138.668 98.2585 138.794 98.4425 138.884 98.6016H138.973V94.8182H140.46V105H139.008V103.812H138.884C138.794 103.974 138.665 104.16 138.496 104.369C138.33 104.577 138.102 104.76 137.81 104.915C137.518 105.071 137.14 105.149 136.676 105.149ZM137.004 103.881C137.432 103.881 137.793 103.769 138.088 103.543C138.387 103.315 138.612 102.998 138.764 102.594C138.92 102.189 138.998 101.719 138.998 101.182C138.998 100.652 138.922 100.187 138.769 99.7898C138.617 99.392 138.393 99.0821 138.098 98.8601C137.803 98.638 137.439 98.527 137.004 98.527C136.557 98.527 136.184 98.643 135.886 98.875C135.588 99.107 135.362 99.4235 135.21 99.8246C135.061 100.226 134.986 100.678 134.986 101.182C134.986 101.692 135.062 102.151 135.215 102.559C135.367 102.967 135.593 103.29 135.891 103.528C136.192 103.764 136.564 103.881 137.004 103.881ZM145.873 105.154C145.12 105.154 144.472 104.993 143.929 104.672C143.388 104.347 142.971 103.891 142.676 103.305C142.384 102.715 142.238 102.024 142.238 101.232C142.238 100.449 142.384 99.7599 142.676 99.1634C142.971 98.5668 143.382 98.1011 143.909 97.7663C144.439 97.4316 145.059 97.2642 145.768 97.2642C146.199 97.2642 146.617 97.3355 147.021 97.478C147.425 97.6205 147.788 97.8442 148.11 98.1491C148.431 98.4541 148.685 98.8501 148.87 99.3374C149.056 99.8213 149.149 100.41 149.149 101.102V101.629H143.078V100.516H147.692C147.692 100.125 147.613 99.7782 147.453 99.4766C147.294 99.1716 147.071 98.9313 146.782 98.7557C146.497 98.58 146.163 98.4922 145.778 98.4922C145.36 98.4922 144.996 98.5949 144.684 98.8004C144.376 99.0026 144.137 99.2678 143.968 99.5959C143.803 99.9207 143.72 100.274 143.72 100.655V101.525C143.72 102.035 143.809 102.469 143.988 102.827C144.171 103.185 144.424 103.459 144.749 103.648C145.074 103.833 145.453 103.926 145.887 103.926C146.169 103.926 146.426 103.886 146.658 103.807C146.89 103.724 147.091 103.601 147.26 103.439C147.429 103.277 147.558 103.076 147.647 102.837L149.054 103.091C148.942 103.505 148.739 103.868 148.448 104.18C148.159 104.488 147.797 104.728 147.359 104.901C146.925 105.07 146.429 105.154 145.873 105.154ZM96.9993 125V117.364H98.4261V118.607H98.5206C98.6797 118.186 98.9399 117.857 99.3011 117.622C99.6624 117.384 100.095 117.264 100.599 117.264C101.109 117.264 101.537 117.384 101.881 117.622C102.229 117.861 102.486 118.189 102.652 118.607H102.732C102.914 118.199 103.204 117.874 103.602 117.632C103.999 117.387 104.473 117.264 105.023 117.264C105.716 117.264 106.281 117.481 106.719 117.915C107.16 118.35 107.38 119.004 107.38 119.879V125H105.893V120.018C105.893 119.501 105.753 119.127 105.471 118.895C105.189 118.663 104.853 118.547 104.462 118.547C103.978 118.547 103.602 118.696 103.333 118.994C103.065 119.289 102.93 119.669 102.93 120.133V125H101.449V119.924C101.449 119.51 101.32 119.177 101.061 118.925C100.803 118.673 100.466 118.547 100.052 118.547C99.7701 118.547 99.5099 118.621 99.2713 118.771C99.036 118.916 98.8454 119.12 98.6996 119.382C98.5571 119.644 98.4858 119.947 98.4858 120.292V125H96.9993ZM112.664 125.154C111.911 125.154 111.263 124.993 110.72 124.672C110.179 124.347 109.762 123.891 109.467 123.305C109.175 122.715 109.029 122.024 109.029 121.232C109.029 120.449 109.175 119.76 109.467 119.163C109.762 118.567 110.173 118.101 110.7 117.766C111.23 117.432 111.85 117.264 112.559 117.264C112.99 117.264 113.408 117.335 113.812 117.478C114.216 117.621 114.579 117.844 114.901 118.149C115.222 118.454 115.476 118.85 115.661 119.337C115.847 119.821 115.94 120.41 115.94 121.102V121.629H109.869V120.516H114.483C114.483 120.125 114.404 119.778 114.244 119.477C114.085 119.172 113.862 118.931 113.573 118.756C113.288 118.58 112.954 118.492 112.569 118.492C112.151 118.492 111.787 118.595 111.475 118.8C111.167 119.003 110.928 119.268 110.759 119.596C110.594 119.921 110.511 120.274 110.511 120.655V121.525C110.511 122.035 110.6 122.469 110.779 122.827C110.962 123.185 111.215 123.459 111.54 123.648C111.865 123.833 112.244 123.926 112.678 123.926C112.96 123.926 113.217 123.886 113.449 123.807C113.681 123.724 113.882 123.601 114.051 123.439C114.22 123.277 114.349 123.076 114.438 122.837L115.845 123.091C115.733 123.505 115.53 123.868 115.239 124.18C114.95 124.488 114.588 124.728 114.15 124.901C113.716 125.07 113.22 125.154 112.664 125.154ZM119.076 120.466V125H117.589V117.364H119.016V118.607H119.11C119.286 118.202 119.561 117.877 119.936 117.632C120.314 117.387 120.789 117.264 121.363 117.264C121.883 117.264 122.339 117.374 122.73 117.592C123.121 117.808 123.424 118.129 123.64 118.557C123.855 118.984 123.963 119.513 123.963 120.143V125H122.476V120.322C122.476 119.768 122.332 119.336 122.044 119.024C121.755 118.709 121.359 118.552 120.855 118.552C120.511 118.552 120.204 118.626 119.936 118.776C119.671 118.925 119.46 119.143 119.304 119.432C119.152 119.717 119.076 120.062 119.076 120.466ZM131.679 119.228L130.331 119.467C130.275 119.294 130.185 119.13 130.063 118.974C129.944 118.819 129.781 118.691 129.576 118.592C129.37 118.492 129.113 118.442 128.805 118.442C128.384 118.442 128.033 118.537 127.751 118.726C127.469 118.911 127.328 119.152 127.328 119.447C127.328 119.702 127.423 119.907 127.612 120.063C127.801 120.219 128.106 120.347 128.527 120.446L129.74 120.724C130.442 120.887 130.966 121.137 131.311 121.475C131.655 121.813 131.828 122.252 131.828 122.793C131.828 123.25 131.695 123.658 131.43 124.016C131.168 124.37 130.802 124.649 130.331 124.851C129.864 125.053 129.322 125.154 128.706 125.154C127.85 125.154 127.153 124.972 126.613 124.607C126.072 124.239 125.741 123.717 125.618 123.041L127.055 122.822C127.145 123.197 127.328 123.48 127.607 123.673C127.885 123.862 128.248 123.956 128.696 123.956C129.183 123.956 129.572 123.855 129.864 123.653C130.156 123.447 130.301 123.197 130.301 122.902C130.301 122.663 130.212 122.463 130.033 122.3C129.857 122.138 129.587 122.015 129.223 121.933L127.93 121.649C127.217 121.487 126.69 121.228 126.349 120.874C126.011 120.519 125.842 120.07 125.842 119.526C125.842 119.076 125.968 118.681 126.22 118.343C126.472 118.005 126.82 117.741 127.264 117.553C127.708 117.36 128.217 117.264 128.79 117.264C129.615 117.264 130.265 117.443 130.739 117.801C131.213 118.156 131.526 118.631 131.679 119.228ZM135.684 125.169C135.201 125.169 134.763 125.08 134.372 124.901C133.981 124.718 133.671 124.455 133.442 124.11C133.217 123.765 133.104 123.343 133.104 122.842C133.104 122.411 133.187 122.057 133.353 121.778C133.519 121.5 133.742 121.28 134.024 121.117C134.306 120.955 134.621 120.832 134.969 120.749C135.317 120.666 135.671 120.603 136.032 120.56C136.49 120.507 136.861 120.464 137.146 120.431C137.431 120.395 137.638 120.337 137.768 120.257C137.897 120.178 137.961 120.048 137.961 119.869V119.835C137.961 119.4 137.839 119.064 137.594 118.825C137.352 118.587 136.99 118.467 136.51 118.467C136.009 118.467 135.615 118.578 135.327 118.8C135.041 119.019 134.844 119.263 134.735 119.531L133.338 119.213C133.504 118.749 133.746 118.375 134.064 118.089C134.385 117.801 134.755 117.592 135.172 117.463C135.59 117.33 136.029 117.264 136.49 117.264C136.795 117.264 137.118 117.301 137.459 117.374C137.804 117.443 138.126 117.572 138.424 117.761C138.725 117.95 138.972 118.22 139.165 118.572C139.357 118.92 139.453 119.372 139.453 119.929V125H138.001V123.956H137.942C137.845 124.148 137.701 124.337 137.509 124.523C137.317 124.708 137.07 124.862 136.768 124.985C136.467 125.108 136.105 125.169 135.684 125.169ZM136.008 123.976C136.419 123.976 136.77 123.895 137.062 123.732C137.357 123.57 137.58 123.358 137.733 123.096C137.889 122.831 137.966 122.547 137.966 122.246V121.261C137.913 121.314 137.811 121.364 137.658 121.411C137.509 121.454 137.338 121.492 137.146 121.525C136.954 121.555 136.767 121.583 136.584 121.609C136.402 121.633 136.25 121.652 136.127 121.669C135.839 121.705 135.575 121.767 135.336 121.853C135.101 121.939 134.912 122.063 134.77 122.226C134.631 122.385 134.561 122.597 134.561 122.862C134.561 123.23 134.697 123.509 134.969 123.697C135.24 123.883 135.587 123.976 136.008 123.976ZM144.635 128.023C144.028 128.023 143.506 127.943 143.069 127.784C142.634 127.625 142.28 127.415 142.005 127.153C141.73 126.891 141.524 126.604 141.388 126.293L142.666 125.766C142.755 125.911 142.875 126.066 143.024 126.228C143.176 126.394 143.382 126.535 143.64 126.651C143.902 126.767 144.239 126.825 144.65 126.825C145.213 126.825 145.679 126.687 146.047 126.412C146.414 126.14 146.598 125.706 146.598 125.109V123.608H146.504C146.414 123.77 146.285 123.951 146.116 124.15C145.95 124.349 145.722 124.521 145.43 124.667C145.138 124.813 144.759 124.886 144.292 124.886C143.688 124.886 143.145 124.745 142.661 124.463C142.18 124.178 141.799 123.759 141.517 123.205C141.239 122.648 141.1 121.964 141.1 121.152C141.1 120.34 141.237 119.644 141.512 119.064C141.791 118.484 142.172 118.04 142.656 117.732C143.14 117.42 143.688 117.264 144.301 117.264C144.775 117.264 145.158 117.344 145.45 117.503C145.742 117.659 145.969 117.841 146.131 118.05C146.297 118.259 146.424 118.442 146.514 118.602H146.623V117.364H148.08V125.169C148.08 125.825 147.927 126.364 147.623 126.785C147.318 127.206 146.905 127.517 146.385 127.719C145.868 127.922 145.284 128.023 144.635 128.023ZM144.62 123.653C145.047 123.653 145.408 123.553 145.703 123.354C146.002 123.152 146.227 122.864 146.38 122.489C146.535 122.112 146.613 121.659 146.613 121.132C146.613 120.618 146.537 120.166 146.385 119.775C146.232 119.384 146.008 119.079 145.713 118.86C145.418 118.638 145.054 118.527 144.62 118.527C144.172 118.527 143.799 118.643 143.501 118.875C143.203 119.104 142.977 119.415 142.825 119.81C142.676 120.204 142.601 120.645 142.601 121.132C142.601 121.633 142.677 122.072 142.83 122.45C142.982 122.827 143.208 123.122 143.506 123.335C143.808 123.547 144.179 123.653 144.62 123.653ZM153.365 125.154C152.612 125.154 151.964 124.993 151.421 124.672C150.881 124.347 150.463 123.891 150.168 123.305C149.876 122.715 149.73 122.024 149.73 121.232C149.73 120.449 149.876 119.76 150.168 119.163C150.463 118.567 150.874 118.101 151.401 117.766C151.931 117.432 152.551 117.264 153.26 117.264C153.691 117.264 154.109 117.335 154.513 117.478C154.917 117.621 155.28 117.844 155.602 118.149C155.923 118.454 156.177 118.85 156.363 119.337C156.548 119.821 156.641 120.41 156.641 121.102V121.629H150.571V120.516H155.184C155.184 120.125 155.105 119.778 154.946 119.477C154.787 119.172 154.563 118.931 154.275 118.756C153.989 118.58 153.655 118.492 153.27 118.492C152.853 118.492 152.488 118.595 152.176 118.8C151.868 119.003 151.63 119.268 151.461 119.596C151.295 119.921 151.212 120.274 151.212 120.655V121.525C151.212 122.035 151.301 122.469 151.48 122.827C151.663 123.185 151.916 123.459 152.241 123.648C152.566 123.833 152.945 123.926 153.38 123.926C153.661 123.926 153.918 123.886 154.15 123.807C154.382 123.724 154.583 123.601 154.752 123.439C154.921 123.277 155.05 123.076 155.14 122.837L156.547 123.091C156.434 123.505 156.232 123.868 155.94 124.18C155.652 124.488 155.289 124.728 154.851 124.901C154.417 125.07 153.922 125.154 153.365 125.154ZM159.777 120.466V125H158.29V117.364H159.717V118.607H159.812C159.987 118.202 160.262 117.877 160.637 117.632C161.015 117.387 161.49 117.264 162.064 117.264C162.584 117.264 163.04 117.374 163.431 117.592C163.822 117.808 164.125 118.129 164.341 118.557C164.556 118.984 164.664 119.513 164.664 120.143V125H163.177V120.322C163.177 119.768 163.033 119.336 162.745 119.024C162.456 118.709 162.06 118.552 161.557 118.552C161.212 118.552 160.905 118.626 160.637 118.776C160.372 118.925 160.161 119.143 160.006 119.432C159.853 119.717 159.777 120.062 159.777 120.466ZM172.38 119.228L171.032 119.467C170.976 119.294 170.887 119.13 170.764 118.974C170.645 118.819 170.482 118.691 170.277 118.592C170.071 118.492 169.814 118.442 169.506 118.442C169.085 118.442 168.734 118.537 168.452 118.726C168.171 118.911 168.03 119.152 168.03 119.447C168.03 119.702 168.124 119.907 168.313 120.063C168.502 120.219 168.807 120.347 169.228 120.446L170.441 120.724C171.144 120.887 171.667 121.137 172.012 121.475C172.357 121.813 172.529 122.252 172.529 122.793C172.529 123.25 172.396 123.658 172.131 124.016C171.869 124.37 171.503 124.649 171.032 124.851C170.565 125.053 170.023 125.154 169.407 125.154C168.552 125.154 167.854 124.972 167.314 124.607C166.773 124.239 166.442 123.717 166.319 123.041L167.756 122.822C167.846 123.197 168.03 123.48 168.308 123.673C168.586 123.862 168.949 123.956 169.397 123.956C169.884 123.956 170.273 123.855 170.565 123.653C170.857 123.447 171.003 123.197 171.003 122.902C171.003 122.663 170.913 122.463 170.734 122.3C170.559 122.138 170.288 122.015 169.924 121.933L168.631 121.649C167.919 121.487 167.392 121.228 167.05 120.874C166.712 120.519 166.543 120.07 166.543 119.526C166.543 119.076 166.669 118.681 166.921 118.343C167.173 118.005 167.521 117.741 167.965 117.553C168.409 117.36 168.918 117.264 169.491 117.264C170.317 117.264 170.966 117.443 171.44 117.801C171.914 118.156 172.227 118.631 172.38 119.228Z" fill="#1E75BA"/>
<path d="M103.79 153.239C102.585 153.239 101.511 153.017 100.568 152.574C99.6307 152.131 98.8864 151.52 98.3352 150.741C97.7841 149.963 97.4972 149.071 97.4744 148.065H101.054C101.094 148.741 101.378 149.29 101.906 149.71C102.435 150.131 103.062 150.341 103.79 150.341C104.369 150.341 104.881 150.213 105.324 149.957C105.773 149.696 106.122 149.335 106.372 148.875C106.628 148.409 106.756 147.875 106.756 147.273C106.756 146.659 106.625 146.119 106.364 145.653C106.108 145.187 105.753 144.824 105.298 144.562C104.844 144.301 104.324 144.168 103.739 144.162C103.227 144.162 102.73 144.267 102.247 144.477C101.77 144.687 101.398 144.974 101.131 145.338L97.8494 144.75L98.6761 135.545H109.347V138.562H101.719L101.267 142.935H101.369C101.676 142.503 102.139 142.145 102.759 141.861C103.378 141.577 104.071 141.435 104.838 141.435C105.889 141.435 106.827 141.682 107.651 142.176C108.474 142.67 109.125 143.349 109.602 144.213C110.08 145.071 110.315 146.06 110.31 147.179C110.315 148.355 110.043 149.401 109.491 150.315C108.946 151.224 108.182 151.94 107.199 152.463C106.222 152.98 105.085 153.239 103.79 153.239ZM119.727 153.384C118.261 153.378 117 153.017 115.943 152.301C114.892 151.585 114.082 150.548 113.514 149.19C112.952 147.832 112.673 146.199 112.679 144.29C112.679 142.386 112.96 140.764 113.523 139.423C114.091 138.082 114.901 137.062 115.952 136.364C117.009 135.659 118.267 135.307 119.727 135.307C121.188 135.307 122.443 135.659 123.494 136.364C124.551 137.068 125.364 138.091 125.932 139.432C126.5 140.767 126.781 142.386 126.776 144.29C126.776 146.205 126.491 147.841 125.923 149.199C125.361 150.557 124.554 151.594 123.503 152.31C122.452 153.026 121.193 153.384 119.727 153.384ZM119.727 150.324C120.727 150.324 121.526 149.821 122.122 148.815C122.719 147.81 123.014 146.301 123.009 144.29C123.009 142.966 122.872 141.864 122.599 140.983C122.332 140.102 121.952 139.44 121.457 138.997C120.969 138.554 120.392 138.332 119.727 138.332C118.733 138.332 117.938 138.83 117.341 139.824C116.744 140.818 116.443 142.307 116.438 144.29C116.438 145.631 116.571 146.75 116.838 147.648C117.111 148.54 117.494 149.21 117.989 149.659C118.483 150.102 119.062 150.324 119.727 150.324ZM134.996 153V139.909H138.456V142.219H138.609C138.882 141.452 139.337 140.847 139.973 140.403C140.609 139.96 141.371 139.739 142.257 139.739C143.155 139.739 143.919 139.963 144.55 140.412C145.18 140.855 145.601 141.457 145.811 142.219H145.947C146.214 141.469 146.697 140.869 147.396 140.42C148.101 139.966 148.933 139.739 149.893 139.739C151.115 139.739 152.107 140.128 152.868 140.906C153.635 141.679 154.018 142.776 154.018 144.196V153H150.396V144.912C150.396 144.185 150.203 143.639 149.817 143.276C149.43 142.912 148.947 142.73 148.368 142.73C147.709 142.73 147.195 142.94 146.825 143.361C146.456 143.776 146.271 144.324 146.271 145.006V153H142.751V144.835C142.751 144.193 142.567 143.682 142.197 143.301C141.834 142.92 141.354 142.73 140.757 142.73C140.354 142.73 139.99 142.832 139.666 143.037C139.348 143.236 139.095 143.517 138.908 143.881C138.72 144.239 138.626 144.659 138.626 145.142V153H134.996ZM156.886 153V139.909H160.517V153H156.886ZM158.71 138.222C158.17 138.222 157.707 138.043 157.321 137.685C156.94 137.321 156.75 136.886 156.75 136.381C156.75 135.881 156.94 135.452 157.321 135.094C157.707 134.73 158.17 134.548 158.71 134.548C159.25 134.548 159.71 134.73 160.091 135.094C160.477 135.452 160.67 135.881 160.67 136.381C160.67 136.886 160.477 137.321 160.091 137.685C159.71 138.043 159.25 138.222 158.71 138.222ZM167.056 135.545V153H163.425V135.545H167.056Z" fill="#1E75BA"/>
<rect x="388" y="177" width="172" height="89" rx="8" fill="#F9EAE5"/>
<path d="M430.666 208.167H409.333C407.866 208.167 406.666 209.367 406.666 210.833V234.833L411.999 229.5H430.666C432.133 229.5 433.333 228.3 433.333 226.833V210.833C433.333 209.367 432.133 208.167 430.666 208.167ZM430.666 226.833H410.893L409.333 228.393V210.833H430.666V226.833ZM418.666 212.167H421.333V220.167H418.666V212.167ZM418.666 222.833H421.333V225.5H418.666V222.833Z" fill="#CC5229"/>
<path d="M453.119 212V201.818H459.433V203.141H454.655V206.243H458.98V207.56H454.655V212H453.119ZM463.397 212.169C462.913 212.169 462.476 212.08 462.085 211.901C461.694 211.718 461.384 211.455 461.155 211.11C460.93 210.765 460.817 210.343 460.817 209.842C460.817 209.411 460.9 209.057 461.066 208.778C461.231 208.5 461.455 208.28 461.737 208.117C462.019 207.955 462.333 207.832 462.681 207.749C463.029 207.666 463.384 207.603 463.745 207.56C464.203 207.507 464.574 207.464 464.859 207.431C465.144 207.395 465.351 207.337 465.48 207.257C465.61 207.178 465.674 207.048 465.674 206.869V206.835C465.674 206.4 465.552 206.064 465.306 205.825C465.065 205.587 464.703 205.467 464.223 205.467C463.722 205.467 463.328 205.578 463.039 205.8C462.754 206.019 462.557 206.263 462.448 206.531L461.051 206.213C461.217 205.749 461.458 205.375 461.777 205.089C462.098 204.801 462.468 204.592 462.885 204.463C463.303 204.33 463.742 204.264 464.203 204.264C464.508 204.264 464.831 204.301 465.172 204.374C465.517 204.443 465.838 204.572 466.137 204.761C466.438 204.95 466.685 205.22 466.877 205.572C467.07 205.92 467.166 206.372 467.166 206.929V212H465.714V210.956H465.654C465.558 211.148 465.414 211.337 465.222 211.523C465.03 211.708 464.783 211.862 464.481 211.985C464.18 212.108 463.818 212.169 463.397 212.169ZM463.721 210.976C464.132 210.976 464.483 210.895 464.775 210.732C465.069 210.57 465.293 210.358 465.446 210.096C465.601 209.831 465.679 209.547 465.679 209.246V208.261C465.626 208.314 465.524 208.364 465.371 208.411C465.222 208.454 465.051 208.492 464.859 208.525C464.667 208.555 464.48 208.583 464.297 208.609C464.115 208.633 463.962 208.652 463.84 208.669C463.551 208.705 463.288 208.767 463.049 208.853C462.814 208.939 462.625 209.063 462.483 209.226C462.343 209.385 462.274 209.597 462.274 209.862C462.274 210.23 462.41 210.509 462.681 210.697C462.953 210.883 463.3 210.976 463.721 210.976ZM470.632 201.818V212H469.146V201.818H470.632ZM474.119 207.466V212H472.632V201.818H474.099V205.607H474.193C474.372 205.196 474.646 204.869 475.013 204.627C475.381 204.385 475.862 204.264 476.455 204.264C476.979 204.264 477.436 204.372 477.827 204.587C478.222 204.803 478.527 205.124 478.742 205.552C478.961 205.976 479.07 206.506 479.07 207.143V212H477.584V207.322C477.584 206.762 477.44 206.327 477.151 206.019C476.863 205.708 476.462 205.552 475.948 205.552C475.597 205.552 475.282 205.626 475.004 205.776C474.728 205.925 474.511 206.143 474.352 206.432C474.196 206.717 474.119 207.062 474.119 207.466ZM484.271 212.154C483.555 212.154 482.93 211.99 482.396 211.662C481.863 211.334 481.448 210.875 481.153 210.285C480.858 209.695 480.711 209.005 480.711 208.217C480.711 207.424 480.858 206.732 481.153 206.138C481.448 205.545 481.863 205.085 482.396 204.756C482.93 204.428 483.555 204.264 484.271 204.264C484.987 204.264 485.611 204.428 486.145 204.756C486.679 205.085 487.093 205.545 487.388 206.138C487.683 206.732 487.83 207.424 487.83 208.217C487.83 209.005 487.683 209.695 487.388 210.285C487.093 210.875 486.679 211.334 486.145 211.662C485.611 211.99 484.987 212.154 484.271 212.154ZM484.276 210.906C484.74 210.906 485.124 210.784 485.429 210.538C485.734 210.293 485.959 209.967 486.105 209.559C486.254 209.151 486.329 208.702 486.329 208.212C486.329 207.724 486.254 207.277 486.105 206.869C485.959 206.458 485.734 206.129 485.429 205.88C485.124 205.631 484.74 205.507 484.276 205.507C483.808 205.507 483.42 205.631 483.112 205.88C482.807 206.129 482.58 206.458 482.431 206.869C482.285 207.277 482.212 207.724 482.212 208.212C482.212 208.702 482.285 209.151 482.431 209.559C482.58 209.967 482.807 210.293 483.112 210.538C483.42 210.784 483.808 210.906 484.276 210.906ZM494.327 208.833V204.364H495.818V212H494.357V210.678H494.277C494.102 211.085 493.82 211.425 493.432 211.697C493.048 211.965 492.569 212.099 491.995 212.099C491.505 212.099 491.07 211.992 490.693 211.776C490.318 211.558 490.023 211.234 489.808 210.807C489.596 210.379 489.49 209.851 489.49 209.221V204.364H490.976V209.042C490.976 209.562 491.12 209.977 491.409 210.285C491.697 210.593 492.071 210.747 492.532 210.747C492.811 210.747 493.087 210.678 493.362 210.538C493.641 210.399 493.871 210.189 494.053 209.907C494.239 209.625 494.33 209.267 494.327 208.833Z" fill="#CC5229"/>
<path d="M460.259 240.384C458.793 240.378 457.531 240.017 456.474 239.301C455.423 238.585 454.614 237.548 454.045 236.19C453.483 234.832 453.205 233.199 453.21 231.29C453.21 229.386 453.491 227.764 454.054 226.423C454.622 225.082 455.432 224.062 456.483 223.364C457.54 222.659 458.798 222.307 460.259 222.307C461.719 222.307 462.974 222.659 464.026 223.364C465.082 224.068 465.895 225.091 466.463 226.432C467.031 227.767 467.313 229.386 467.307 231.29C467.307 233.205 467.023 234.841 466.455 236.199C465.892 237.557 465.085 238.594 464.034 239.31C462.983 240.026 461.724 240.384 460.259 240.384ZM460.259 237.324C461.259 237.324 462.057 236.821 462.653 235.815C463.25 234.81 463.545 233.301 463.54 231.29C463.54 229.966 463.403 228.864 463.131 227.983C462.864 227.102 462.483 226.44 461.989 225.997C461.5 225.554 460.923 225.332 460.259 225.332C459.264 225.332 458.469 225.83 457.872 226.824C457.276 227.818 456.974 229.307 456.969 231.29C456.969 232.631 457.102 233.75 457.369 234.648C457.642 235.54 458.026 236.21 458.52 236.659C459.014 237.102 459.594 237.324 460.259 237.324ZM473.215 237.614L473.121 238.551C473.048 239.301 472.906 240.048 472.695 240.793C472.491 241.543 472.275 242.222 472.048 242.83C471.826 243.438 471.647 243.915 471.511 244.261H469.158C469.244 243.926 469.36 243.457 469.508 242.855C469.656 242.259 469.795 241.588 469.925 240.844C470.056 240.099 470.138 239.341 470.173 238.568L470.215 237.614H473.215ZM482.735 240.239C481.531 240.239 480.457 240.017 479.513 239.574C478.576 239.131 477.832 238.52 477.281 237.741C476.729 236.963 476.442 236.071 476.42 235.065H479.999C480.039 235.741 480.323 236.29 480.852 236.71C481.38 237.131 482.008 237.341 482.735 237.341C483.315 237.341 483.826 237.213 484.269 236.957C484.718 236.696 485.067 236.335 485.317 235.875C485.573 235.409 485.701 234.875 485.701 234.273C485.701 233.659 485.57 233.119 485.309 232.653C485.053 232.187 484.698 231.824 484.244 231.562C483.789 231.301 483.269 231.168 482.684 231.162C482.173 231.162 481.675 231.267 481.192 231.477C480.715 231.687 480.343 231.974 480.076 232.338L476.795 231.75L477.621 222.545H488.292V225.562H480.664L480.212 229.935H480.315C480.621 229.503 481.085 229.145 481.704 228.861C482.323 228.577 483.016 228.435 483.783 228.435C484.835 228.435 485.772 228.682 486.596 229.176C487.42 229.67 488.07 230.349 488.548 231.213C489.025 232.071 489.261 233.06 489.255 234.179C489.261 235.355 488.988 236.401 488.437 237.315C487.891 238.224 487.127 238.94 486.144 239.463C485.167 239.98 484.031 240.239 482.735 240.239ZM497.418 240V226.909H500.878V229.219H501.031C501.304 228.452 501.759 227.847 502.395 227.403C503.031 226.96 503.793 226.739 504.679 226.739C505.577 226.739 506.341 226.963 506.972 227.412C507.602 227.855 508.023 228.457 508.233 229.219H508.369C508.636 228.469 509.119 227.869 509.818 227.42C510.523 226.966 511.355 226.739 512.315 226.739C513.537 226.739 514.528 227.128 515.29 227.906C516.057 228.679 516.44 229.776 516.44 231.196V240H512.818V231.912C512.818 231.185 512.625 230.639 512.239 230.276C511.852 229.912 511.369 229.73 510.79 229.73C510.131 229.73 509.616 229.94 509.247 230.361C508.878 230.776 508.693 231.324 508.693 232.006V240H505.173V231.835C505.173 231.193 504.989 230.682 504.619 230.301C504.256 229.92 503.776 229.73 503.179 229.73C502.776 229.73 502.412 229.832 502.088 230.037C501.77 230.236 501.517 230.517 501.33 230.881C501.142 231.239 501.048 231.659 501.048 232.142V240H497.418ZM519.308 240V226.909H522.939V240H519.308ZM521.132 225.222C520.592 225.222 520.129 225.043 519.743 224.685C519.362 224.321 519.172 223.886 519.172 223.381C519.172 222.881 519.362 222.452 519.743 222.094C520.129 221.73 520.592 221.548 521.132 221.548C521.672 221.548 522.132 221.73 522.513 222.094C522.899 222.452 523.092 222.881 523.092 223.381C523.092 223.886 522.899 224.321 522.513 224.685C522.132 225.043 521.672 225.222 521.132 225.222ZM529.478 222.545V240H525.847V222.545H529.478Z" fill="#CC5229"/>
<rect x="214" y="177" width="172" height="89" rx="8" fill="#EFEAE3"/>
<path d="M241.734 226.7L236.134 221.1L234.268 222.967L241.734 230.434L257.734 214.434L255.868 212.567L241.734 226.7Z" fill="#5D6164"/>
<path d="M279.119 212V201.818H285.502V203.141H280.655V206.243H285.169V207.56H280.655V210.678H285.562V212H279.119ZM288.921 207.466V212H287.435V204.364H288.862V205.607H288.956C289.132 205.202 289.407 204.877 289.781 204.632C290.159 204.387 290.635 204.264 291.208 204.264C291.729 204.264 292.184 204.374 292.575 204.592C292.967 204.808 293.27 205.129 293.485 205.557C293.701 205.984 293.808 206.513 293.808 207.143V212H292.322V207.322C292.322 206.768 292.178 206.336 291.889 206.024C291.601 205.709 291.205 205.552 290.701 205.552C290.356 205.552 290.05 205.626 289.781 205.776C289.516 205.925 289.306 206.143 289.15 206.432C288.998 206.717 288.921 207.062 288.921 207.466ZM302.061 204.364L299.292 212H297.701L294.927 204.364H296.523L298.457 210.24H298.536L300.465 204.364H302.061ZM303.458 212V204.364H304.945V212H303.458ZM304.209 203.185C303.95 203.185 303.728 203.099 303.543 202.927C303.36 202.751 303.269 202.542 303.269 202.3C303.269 202.055 303.36 201.846 303.543 201.674C303.728 201.498 303.95 201.411 304.209 201.411C304.468 201.411 304.688 201.498 304.87 201.674C305.056 201.846 305.149 202.055 305.149 202.3C305.149 202.542 305.056 202.751 304.87 202.927C304.688 203.099 304.468 203.185 304.209 203.185ZM309.167 212.169C308.683 212.169 308.246 212.08 307.854 211.901C307.463 211.718 307.153 211.455 306.925 211.11C306.699 210.765 306.587 210.343 306.587 209.842C306.587 209.411 306.67 209.057 306.835 208.778C307.001 208.5 307.225 208.28 307.506 208.117C307.788 207.955 308.103 207.832 308.451 207.749C308.799 207.666 309.154 207.603 309.515 207.56C309.972 207.507 310.344 207.464 310.629 207.431C310.914 207.395 311.121 207.337 311.25 207.257C311.379 207.178 311.444 207.048 311.444 206.869V206.835C311.444 206.4 311.321 206.064 311.076 205.825C310.834 205.587 310.473 205.467 309.992 205.467C309.492 205.467 309.097 205.578 308.809 205.8C308.524 206.019 308.327 206.263 308.217 206.531L306.82 206.213C306.986 205.749 307.228 205.375 307.546 205.089C307.868 204.801 308.237 204.592 308.655 204.463C309.072 204.33 309.512 204.264 309.972 204.264C310.277 204.264 310.6 204.301 310.942 204.374C311.286 204.443 311.608 204.572 311.906 204.761C312.208 204.95 312.455 205.22 312.647 205.572C312.839 205.92 312.935 206.372 312.935 206.929V212H311.484V210.956H311.424C311.328 211.148 311.184 211.337 310.991 211.523C310.799 211.708 310.552 211.862 310.251 211.985C309.949 212.108 309.588 212.169 309.167 212.169ZM309.49 210.976C309.901 210.976 310.252 210.895 310.544 210.732C310.839 210.57 311.063 210.358 311.215 210.096C311.371 209.831 311.449 209.547 311.449 209.246V208.261C311.396 208.314 311.293 208.364 311.141 208.411C310.991 208.454 310.821 208.492 310.629 208.525C310.436 208.555 310.249 208.583 310.067 208.609C309.884 208.633 309.732 208.652 309.609 208.669C309.321 208.705 309.058 208.767 308.819 208.853C308.584 208.939 308.395 209.063 308.252 209.226C308.113 209.385 308.043 209.597 308.043 209.862C308.043 210.23 308.179 210.509 308.451 210.697C308.723 210.883 309.069 210.976 309.49 210.976ZM317.774 212.149C317.157 212.149 316.607 211.992 316.123 211.677C315.643 211.359 315.265 210.906 314.99 210.32C314.718 209.73 314.582 209.022 314.582 208.197C314.582 207.371 314.72 206.665 314.995 206.079C315.273 205.492 315.654 205.043 316.138 204.732C316.622 204.42 317.171 204.264 317.784 204.264C318.258 204.264 318.639 204.344 318.927 204.503C319.219 204.659 319.444 204.841 319.604 205.05C319.766 205.259 319.892 205.442 319.981 205.602H320.071V201.818H321.557V212H320.106V210.812H319.981C319.892 210.974 319.763 211.16 319.594 211.369C319.428 211.577 319.199 211.76 318.907 211.915C318.616 212.071 318.238 212.149 317.774 212.149ZM318.102 210.881C318.53 210.881 318.891 210.769 319.186 210.543C319.484 210.315 319.71 209.998 319.862 209.594C320.018 209.189 320.096 208.719 320.096 208.182C320.096 207.652 320.019 207.187 319.867 206.79C319.715 206.392 319.491 206.082 319.196 205.86C318.901 205.638 318.536 205.527 318.102 205.527C317.655 205.527 317.282 205.643 316.983 205.875C316.685 206.107 316.46 206.424 316.307 206.825C316.158 207.226 316.084 207.678 316.084 208.182C316.084 208.692 316.16 209.151 316.312 209.559C316.465 209.967 316.69 210.29 316.988 210.528C317.29 210.764 317.661 210.881 318.102 210.881ZM326.896 212.154C326.18 212.154 325.555 211.99 325.021 211.662C324.488 211.334 324.073 210.875 323.778 210.285C323.483 209.695 323.336 209.005 323.336 208.217C323.336 207.424 323.483 206.732 323.778 206.138C324.073 205.545 324.488 205.085 325.021 204.756C325.555 204.428 326.18 204.264 326.896 204.264C327.612 204.264 328.236 204.428 328.77 204.756C329.304 205.085 329.718 205.545 330.013 206.138C330.308 206.732 330.455 207.424 330.455 208.217C330.455 209.005 330.308 209.695 330.013 210.285C329.718 210.875 329.304 211.334 328.77 211.662C328.236 211.99 327.612 212.154 326.896 212.154ZM326.901 210.906C327.365 210.906 327.749 210.784 328.054 210.538C328.359 210.293 328.584 209.967 328.73 209.559C328.879 209.151 328.954 208.702 328.954 208.212C328.954 207.724 328.879 207.277 328.73 206.869C328.584 206.458 328.359 206.129 328.054 205.88C327.749 205.631 327.365 205.507 326.901 205.507C326.433 205.507 326.045 205.631 325.737 205.88C325.432 206.129 325.205 206.458 325.056 206.869C324.91 207.277 324.837 207.724 324.837 208.212C324.837 208.702 324.91 209.151 325.056 209.559C325.205 209.967 325.432 210.293 325.737 210.538C326.045 210.784 326.433 210.906 326.901 210.906Z" fill="#DE8644"/>
<path d="M279.151 236.932V234.026L286.438 222.545H288.943V226.568H287.46L282.866 233.838V233.974H293.222V236.932H279.151ZM287.528 240V236.045L287.597 234.759V222.545H291.057V240H287.528ZM301.996 222.307C302.893 222.307 303.757 222.457 304.587 222.759C305.422 223.06 306.166 223.54 306.82 224.199C307.479 224.858 307.999 225.733 308.379 226.824C308.766 227.909 308.962 229.241 308.967 230.821C308.967 232.304 308.8 233.628 308.464 234.793C308.135 235.952 307.661 236.938 307.041 237.75C306.422 238.562 305.675 239.182 304.8 239.608C303.925 240.028 302.947 240.239 301.868 240.239C300.703 240.239 299.675 240.014 298.783 239.565C297.891 239.111 297.172 238.494 296.626 237.716C296.087 236.932 295.76 236.051 295.646 235.074H299.286C299.428 235.71 299.726 236.205 300.18 236.557C300.635 236.903 301.197 237.077 301.868 237.077C303.004 237.077 303.868 236.582 304.459 235.594C305.05 234.599 305.348 233.239 305.354 231.511H305.234C304.973 232.023 304.621 232.463 304.178 232.832C303.734 233.196 303.226 233.477 302.652 233.676C302.084 233.875 301.479 233.974 300.837 233.974C299.808 233.974 298.891 233.733 298.084 233.25C297.277 232.767 296.641 232.102 296.175 231.256C295.709 230.409 295.476 229.443 295.476 228.358C295.47 227.188 295.74 226.145 296.286 225.23C296.831 224.315 297.592 223.599 298.57 223.082C299.553 222.56 300.695 222.301 301.996 222.307ZM302.021 225.205C301.447 225.205 300.936 225.341 300.487 225.614C300.044 225.886 299.692 226.253 299.43 226.713C299.175 227.173 299.05 227.687 299.055 228.256C299.055 228.83 299.18 229.347 299.43 229.807C299.686 230.261 300.033 230.625 300.47 230.898C300.913 231.165 301.419 231.298 301.987 231.298C302.413 231.298 302.808 231.219 303.172 231.06C303.536 230.901 303.851 230.682 304.118 230.403C304.391 230.119 304.604 229.793 304.757 229.423C304.911 229.054 304.987 228.662 304.987 228.247C304.982 227.696 304.851 227.19 304.595 226.73C304.339 226.27 303.987 225.901 303.538 225.622C303.089 225.344 302.584 225.205 302.021 225.205ZM314.801 237.614L314.707 238.551C314.634 239.301 314.491 240.048 314.281 240.793C314.077 241.543 313.861 242.222 313.634 242.83C313.412 243.438 313.233 243.915 313.097 244.261H310.744C310.83 243.926 310.946 243.457 311.094 242.855C311.241 242.259 311.381 241.588 311.511 240.844C311.642 240.099 311.724 239.341 311.759 238.568L311.801 237.614H314.801ZM324.321 240.239C323.116 240.239 322.043 240.017 321.099 239.574C320.162 239.131 319.418 238.52 318.866 237.741C318.315 236.963 318.028 236.071 318.006 235.065H321.585C321.625 235.741 321.909 236.29 322.438 236.71C322.966 237.131 323.594 237.341 324.321 237.341C324.901 237.341 325.412 237.213 325.855 236.957C326.304 236.696 326.653 236.335 326.903 235.875C327.159 235.409 327.287 234.875 327.287 234.273C327.287 233.659 327.156 233.119 326.895 232.653C326.639 232.187 326.284 231.824 325.83 231.562C325.375 231.301 324.855 231.168 324.27 231.162C323.759 231.162 323.261 231.267 322.778 231.477C322.301 231.687 321.929 231.974 321.662 232.338L318.381 231.75L319.207 222.545H329.878V225.562H322.25L321.798 229.935H321.901C322.207 229.503 322.67 229.145 323.29 228.861C323.909 228.577 324.602 228.435 325.369 228.435C326.42 228.435 327.358 228.682 328.182 229.176C329.006 229.67 329.656 230.349 330.134 231.213C330.611 232.071 330.847 233.06 330.841 234.179C330.847 235.355 330.574 236.401 330.023 237.315C329.477 238.224 328.713 238.94 327.73 239.463C326.753 239.98 325.616 240.239 324.321 240.239ZM339.004 240V226.909H342.464V229.219H342.617C342.89 228.452 343.344 227.847 343.981 227.403C344.617 226.96 345.379 226.739 346.265 226.739C347.163 226.739 347.927 226.963 348.558 227.412C349.188 227.855 349.609 228.457 349.819 229.219H349.955C350.222 228.469 350.705 227.869 351.404 227.42C352.109 226.966 352.941 226.739 353.901 226.739C355.123 226.739 356.114 227.128 356.876 227.906C357.643 228.679 358.026 229.776 358.026 231.196V240H354.404V231.912C354.404 231.185 354.211 230.639 353.825 230.276C353.438 229.912 352.955 229.73 352.376 229.73C351.717 229.73 351.202 229.94 350.833 230.361C350.464 230.776 350.279 231.324 350.279 232.006V240H346.759V231.835C346.759 231.193 346.575 230.682 346.205 230.301C345.842 229.92 345.362 229.73 344.765 229.73C344.362 229.73 343.998 229.832 343.674 230.037C343.356 230.236 343.103 230.517 342.915 230.881C342.728 231.239 342.634 231.659 342.634 232.142V240H339.004ZM360.894 240V226.909H364.525V240H360.894ZM362.718 225.222C362.178 225.222 361.715 225.043 361.329 224.685C360.948 224.321 360.758 223.886 360.758 223.381C360.758 222.881 360.948 222.452 361.329 222.094C361.715 221.73 362.178 221.548 362.718 221.548C363.258 221.548 363.718 221.73 364.099 222.094C364.485 222.452 364.678 222.881 364.678 223.381C364.678 223.886 364.485 224.321 364.099 224.685C363.718 225.043 363.258 225.222 362.718 225.222ZM371.064 222.545V240H367.433V222.545H371.064Z" fill="#DE8644"/>
<rect x="40" y="268" width="172" height="89" rx="8" fill="#E8F7E8"/>
<path d="M79.9533 305.44L78.0733 303.56L69.62 312.013L71.5 313.893L79.9533 305.44ZM85.6067 303.56L71.5 317.667L65.9267 312.107L64.0467 313.987L71.5 321.44L87.5 305.44L85.6067 303.56ZM56.5 313.987L63.9533 321.44L65.8333 319.56L58.3933 312.107L56.5 313.987Z" fill="#5D6164"/>
<path d="M105.119 303V292.818H111.502V294.141H106.655V297.243H111.169V298.56H106.655V301.678H111.562V303H105.119ZM114.921 298.466V303H113.435V295.364H114.862V296.607H114.956C115.132 296.202 115.407 295.877 115.781 295.632C116.159 295.387 116.635 295.264 117.208 295.264C117.729 295.264 118.184 295.374 118.575 295.592C118.967 295.808 119.27 296.129 119.485 296.557C119.701 296.984 119.808 297.513 119.808 298.143V303H118.322V298.322C118.322 297.768 118.178 297.336 117.889 297.024C117.601 296.709 117.205 296.552 116.701 296.552C116.356 296.552 116.05 296.626 115.781 296.776C115.516 296.925 115.306 297.143 115.15 297.432C114.998 297.717 114.921 298.062 114.921 298.466ZM125.367 295.364V296.557H121.195V295.364H125.367ZM122.314 293.534H123.801V300.758C123.801 301.046 123.844 301.263 123.93 301.409C124.016 301.552 124.127 301.649 124.263 301.702C124.402 301.752 124.553 301.777 124.715 301.777C124.835 301.777 124.939 301.769 125.029 301.752C125.118 301.736 125.188 301.722 125.237 301.712L125.506 302.94C125.42 302.973 125.297 303.007 125.138 303.04C124.979 303.076 124.78 303.096 124.541 303.099C124.15 303.106 123.786 303.036 123.448 302.891C123.11 302.745 122.836 302.519 122.627 302.214C122.419 301.91 122.314 301.527 122.314 301.066V293.534ZM127.011 303V295.364H128.448V296.577H128.527C128.667 296.166 128.912 295.843 129.263 295.607C129.618 295.369 130.019 295.249 130.466 295.249C130.559 295.249 130.668 295.253 130.794 295.259C130.924 295.266 131.025 295.274 131.098 295.284V296.706C131.038 296.689 130.932 296.671 130.779 296.651C130.627 296.628 130.475 296.616 130.322 296.616C129.971 296.616 129.658 296.691 129.382 296.84C129.111 296.986 128.895 297.19 128.736 297.452C128.577 297.71 128.498 298.005 128.498 298.337V303H127.011ZM135.402 303.154C134.649 303.154 134.001 302.993 133.458 302.672C132.918 302.347 132.5 301.891 132.205 301.305C131.913 300.715 131.768 300.024 131.768 299.232C131.768 298.449 131.913 297.76 132.205 297.163C132.5 296.567 132.911 296.101 133.438 295.766C133.968 295.432 134.588 295.264 135.297 295.264C135.728 295.264 136.146 295.335 136.55 295.478C136.955 295.621 137.318 295.844 137.639 296.149C137.961 296.454 138.214 296.85 138.4 297.337C138.585 297.821 138.678 298.41 138.678 299.102V299.629H132.608V298.516H137.221C137.221 298.125 137.142 297.778 136.983 297.477C136.824 297.172 136.6 296.931 136.312 296.756C136.027 296.58 135.692 296.492 135.307 296.492C134.89 296.492 134.525 296.595 134.214 296.8C133.905 297.003 133.667 297.268 133.498 297.596C133.332 297.921 133.249 298.274 133.249 298.655V299.525C133.249 300.035 133.339 300.469 133.518 300.827C133.7 301.185 133.953 301.459 134.278 301.648C134.603 301.833 134.983 301.926 135.417 301.926C135.698 301.926 135.955 301.886 136.187 301.807C136.419 301.724 136.62 301.601 136.789 301.439C136.958 301.277 137.087 301.076 137.177 300.837L138.584 301.091C138.471 301.505 138.269 301.868 137.977 302.18C137.689 302.488 137.326 302.728 136.888 302.901C136.454 303.07 135.959 303.154 135.402 303.154ZM143.529 306.023C142.923 306.023 142.401 305.943 141.963 305.784C141.529 305.625 141.174 305.415 140.899 305.153C140.624 304.891 140.419 304.604 140.283 304.293L141.56 303.766C141.65 303.911 141.769 304.066 141.918 304.228C142.071 304.394 142.276 304.535 142.535 304.651C142.797 304.767 143.133 304.825 143.544 304.825C144.107 304.825 144.573 304.687 144.941 304.412C145.309 304.14 145.493 303.706 145.493 303.109V301.608H145.398C145.309 301.77 145.18 301.951 145.011 302.15C144.845 302.349 144.616 302.521 144.325 302.667C144.033 302.813 143.653 302.886 143.186 302.886C142.583 302.886 142.039 302.745 141.555 302.463C141.075 302.178 140.694 301.759 140.412 301.205C140.134 300.648 139.994 299.964 139.994 299.152C139.994 298.34 140.132 297.644 140.407 297.064C140.685 296.484 141.067 296.04 141.55 295.732C142.034 295.42 142.583 295.264 143.196 295.264C143.67 295.264 144.053 295.344 144.344 295.503C144.636 295.659 144.863 295.841 145.026 296.05C145.191 296.259 145.319 296.442 145.408 296.602H145.518V295.364H146.974V303.169C146.974 303.825 146.822 304.364 146.517 304.785C146.212 305.206 145.799 305.517 145.279 305.719C144.762 305.922 144.179 306.023 143.529 306.023ZM143.514 301.653C143.942 301.653 144.303 301.553 144.598 301.354C144.896 301.152 145.122 300.864 145.274 300.489C145.43 300.112 145.508 299.659 145.508 299.132C145.508 298.618 145.432 298.166 145.279 297.775C145.127 297.384 144.903 297.079 144.608 296.86C144.313 296.638 143.948 296.527 143.514 296.527C143.067 296.527 142.694 296.643 142.396 296.875C142.097 297.104 141.872 297.415 141.719 297.81C141.57 298.204 141.496 298.645 141.496 299.132C141.496 299.633 141.572 300.072 141.724 300.45C141.877 300.827 142.102 301.122 142.401 301.335C142.702 301.547 143.073 301.653 143.514 301.653ZM153.805 299.833V295.364H155.297V303H153.835V301.678H153.756C153.58 302.085 153.298 302.425 152.911 302.697C152.526 302.965 152.047 303.099 151.474 303.099C150.983 303.099 150.549 302.992 150.171 302.776C149.797 302.558 149.502 302.234 149.286 301.807C149.074 301.379 148.968 300.851 148.968 300.221V295.364H150.455V300.042C150.455 300.562 150.599 300.977 150.887 301.285C151.175 301.593 151.55 301.747 152.011 301.747C152.289 301.747 152.566 301.678 152.841 301.538C153.119 301.399 153.35 301.189 153.532 300.907C153.718 300.625 153.809 300.267 153.805 299.833ZM160.585 303.154C159.833 303.154 159.185 302.993 158.642 302.672C158.101 302.347 157.684 301.891 157.389 301.305C157.097 300.715 156.951 300.024 156.951 299.232C156.951 298.449 157.097 297.76 157.389 297.163C157.684 296.567 158.095 296.101 158.622 295.766C159.152 295.432 159.772 295.264 160.481 295.264C160.912 295.264 161.329 295.335 161.734 295.478C162.138 295.621 162.501 295.844 162.823 296.149C163.144 296.454 163.398 296.85 163.583 297.337C163.769 297.821 163.862 298.41 163.862 299.102V299.629H157.791V298.516H162.405C162.405 298.125 162.325 297.778 162.166 297.477C162.007 297.172 161.784 296.931 161.495 296.756C161.21 296.58 160.875 296.492 160.491 296.492C160.073 296.492 159.709 296.595 159.397 296.8C159.089 297.003 158.85 297.268 158.681 297.596C158.516 297.921 158.433 298.274 158.433 298.655V299.525C158.433 300.035 158.522 300.469 158.701 300.827C158.883 301.185 159.137 301.459 159.462 301.648C159.787 301.833 160.166 301.926 160.6 301.926C160.882 301.926 161.139 301.886 161.371 301.807C161.603 301.724 161.803 301.601 161.972 301.439C162.142 301.277 162.271 301.076 162.36 300.837L163.767 301.091C163.655 301.505 163.452 301.868 163.161 302.18C162.872 302.488 162.509 302.728 162.072 302.901C161.638 303.07 161.142 303.154 160.585 303.154Z" fill="#29A653"/>
<path d="M105.151 327.932V325.026L112.438 313.545H114.943V317.568H113.46L108.866 324.838V324.974H119.222V327.932H105.151ZM113.528 331V327.045L113.597 325.759V313.545H117.057V331H113.528ZM122.371 331L129.607 316.682V316.562H121.178V313.545H133.425V316.605L126.18 331H122.371ZM141.543 331V317.909H145.003V320.219H145.156C145.429 319.452 145.884 318.847 146.52 318.403C147.156 317.96 147.918 317.739 148.804 317.739C149.702 317.739 150.466 317.963 151.097 318.412C151.727 318.855 152.148 319.457 152.358 320.219H152.494C152.761 319.469 153.244 318.869 153.943 318.42C154.648 317.966 155.48 317.739 156.44 317.739C157.662 317.739 158.653 318.128 159.415 318.906C160.182 319.679 160.565 320.776 160.565 322.196V331H156.943V322.912C156.943 322.185 156.75 321.639 156.364 321.276C155.977 320.912 155.494 320.73 154.915 320.73C154.256 320.73 153.741 320.94 153.372 321.361C153.003 321.776 152.818 322.324 152.818 323.006V331H149.298V322.835C149.298 322.193 149.114 321.682 148.744 321.301C148.381 320.92 147.901 320.73 147.304 320.73C146.901 320.73 146.537 320.832 146.213 321.037C145.895 321.236 145.642 321.517 145.455 321.881C145.267 322.239 145.173 322.659 145.173 323.142V331H141.543ZM163.433 331V317.909H167.064V331H163.433ZM165.257 316.222C164.717 316.222 164.254 316.043 163.868 315.685C163.487 315.321 163.297 314.886 163.297 314.381C163.297 313.881 163.487 313.452 163.868 313.094C164.254 312.73 164.717 312.548 165.257 312.548C165.797 312.548 166.257 312.73 166.638 313.094C167.024 313.452 167.217 313.881 167.217 314.381C167.217 314.886 167.024 315.321 166.638 315.685C166.257 316.043 165.797 316.222 165.257 316.222ZM173.603 313.545V331H169.972V313.545H173.603Z" fill="#29A653"/>
<rect x="214" y="268" width="172" height="89" rx="8" fill="#DCEEFA"/>
<path d="M253.953 305.44L252.073 303.56L243.62 312.013L245.5 313.893L253.953 305.44ZM259.607 303.56L245.5 317.667L239.927 312.107L238.047 313.987L245.5 321.44L261.5 305.44L259.607 303.56ZM230.5 313.987L237.953 321.44L239.833 319.56L232.393 312.107L230.5 313.987Z" fill="#2188BA"/>
<path d="M279.119 303V292.818H280.655V301.678H285.268V303H279.119ZM286.902 303V295.364H288.388V303H286.902ZM287.652 294.185C287.394 294.185 287.172 294.099 286.986 293.927C286.804 293.751 286.713 293.542 286.713 293.3C286.713 293.055 286.804 292.846 286.986 292.674C287.172 292.498 287.394 292.411 287.652 292.411C287.911 292.411 288.131 292.498 288.314 292.674C288.499 292.846 288.592 293.055 288.592 293.3C288.592 293.542 288.499 293.751 288.314 293.927C288.131 294.099 287.911 294.185 287.652 294.185ZM293.247 303.149C292.63 303.149 292.08 302.992 291.596 302.677C291.115 302.359 290.738 301.906 290.463 301.32C290.191 300.73 290.055 300.022 290.055 299.197C290.055 298.371 290.192 297.665 290.468 297.079C290.746 296.492 291.127 296.043 291.611 295.732C292.095 295.42 292.643 295.264 293.257 295.264C293.731 295.264 294.112 295.344 294.4 295.503C294.692 295.659 294.917 295.841 295.076 296.05C295.239 296.259 295.365 296.442 295.454 296.602H295.544V292.818H297.03V303H295.578V301.812H295.454C295.365 301.974 295.235 302.16 295.066 302.369C294.901 302.577 294.672 302.76 294.38 302.915C294.088 303.071 293.711 303.149 293.247 303.149ZM293.575 301.881C294.002 301.881 294.364 301.769 294.659 301.543C294.957 301.315 295.182 300.998 295.335 300.594C295.49 300.189 295.568 299.719 295.568 299.182C295.568 298.652 295.492 298.187 295.34 297.79C295.187 297.392 294.963 297.082 294.669 296.86C294.374 296.638 294.009 296.527 293.575 296.527C293.127 296.527 292.754 296.643 292.456 296.875C292.158 297.107 291.932 297.424 291.78 297.825C291.631 298.226 291.556 298.678 291.556 299.182C291.556 299.692 291.633 300.151 291.785 300.559C291.937 300.967 292.163 301.29 292.461 301.528C292.763 301.764 293.134 301.881 293.575 301.881ZM302.368 303.154C301.652 303.154 301.028 302.99 300.494 302.662C299.96 302.334 299.546 301.875 299.251 301.285C298.956 300.695 298.809 300.005 298.809 299.217C298.809 298.424 298.956 297.732 299.251 297.138C299.546 296.545 299.96 296.085 300.494 295.756C301.028 295.428 301.652 295.264 302.368 295.264C303.084 295.264 303.709 295.428 304.243 295.756C304.776 296.085 305.19 296.545 305.485 297.138C305.78 297.732 305.928 298.424 305.928 299.217C305.928 300.005 305.78 300.695 305.485 301.285C305.19 301.875 304.776 302.334 304.243 302.662C303.709 302.99 303.084 303.154 302.368 303.154ZM302.373 301.906C302.837 301.906 303.222 301.784 303.527 301.538C303.832 301.293 304.057 300.967 304.203 300.559C304.352 300.151 304.426 299.702 304.426 299.212C304.426 298.724 304.352 298.277 304.203 297.869C304.057 297.458 303.832 297.129 303.527 296.88C303.222 296.631 302.837 296.507 302.373 296.507C301.906 296.507 301.518 296.631 301.21 296.88C300.905 297.129 300.678 297.458 300.529 297.869C300.383 298.277 300.31 298.724 300.31 299.212C300.31 299.702 300.383 300.151 300.529 300.559C300.678 300.967 300.905 301.293 301.21 301.538C301.518 301.784 301.906 301.906 302.373 301.906Z" fill="#2188BA"/>
<path d="M279.151 327.932V325.026L286.438 313.545H288.943V317.568H287.46L282.866 324.838V324.974H293.222V327.932H279.151ZM287.528 331V327.045L287.597 325.759V313.545H291.057V331H287.528ZM302.055 331.239C300.851 331.239 299.777 331.017 298.834 330.574C297.896 330.131 297.152 329.52 296.601 328.741C296.05 327.963 295.763 327.071 295.74 326.065H299.32C299.359 326.741 299.643 327.29 300.172 327.71C300.7 328.131 301.328 328.341 302.055 328.341C302.635 328.341 303.146 328.213 303.589 327.957C304.038 327.696 304.388 327.335 304.638 326.875C304.893 326.409 305.021 325.875 305.021 325.273C305.021 324.659 304.891 324.119 304.629 323.653C304.374 323.187 304.018 322.824 303.564 322.562C303.109 322.301 302.589 322.168 302.004 322.162C301.493 322.162 300.996 322.267 300.513 322.477C300.036 322.687 299.663 322.974 299.396 323.338L296.115 322.75L296.942 313.545H307.612V316.562H299.984L299.533 320.935H299.635C299.942 320.503 300.405 320.145 301.024 319.861C301.643 319.577 302.337 319.435 303.104 319.435C304.155 319.435 305.092 319.682 305.916 320.176C306.74 320.67 307.391 321.349 307.868 322.213C308.345 323.071 308.581 324.06 308.575 325.179C308.581 326.355 308.308 327.401 307.757 328.315C307.212 329.224 306.447 329.94 305.464 330.463C304.487 330.98 303.351 331.239 302.055 331.239ZM316.738 331V317.909H320.198V320.219H320.352C320.624 319.452 321.079 318.847 321.715 318.403C322.352 317.96 323.113 317.739 323.999 317.739C324.897 317.739 325.661 317.963 326.292 318.412C326.923 318.855 327.343 319.457 327.553 320.219H327.69C327.957 319.469 328.44 318.869 329.138 318.42C329.843 317.966 330.675 317.739 331.636 317.739C332.857 317.739 333.849 318.128 334.61 318.906C335.377 319.679 335.761 320.776 335.761 322.196V331H332.138V322.912C332.138 322.185 331.945 321.639 331.559 321.276C331.173 320.912 330.69 320.73 330.11 320.73C329.451 320.73 328.937 320.94 328.567 321.361C328.198 321.776 328.013 322.324 328.013 323.006V331H324.494V322.835C324.494 322.193 324.309 321.682 323.94 321.301C323.576 320.92 323.096 320.73 322.499 320.73C322.096 320.73 321.732 320.832 321.408 321.037C321.09 321.236 320.837 321.517 320.65 321.881C320.462 322.239 320.369 322.659 320.369 323.142V331H316.738ZM338.629 331V317.909H342.259V331H338.629ZM340.452 316.222C339.913 316.222 339.45 316.043 339.063 315.685C338.683 315.321 338.492 314.886 338.492 314.381C338.492 313.881 338.683 313.452 339.063 313.094C339.45 312.73 339.913 312.548 340.452 312.548C340.992 312.548 341.452 312.73 341.833 313.094C342.219 313.452 342.413 313.881 342.413 314.381C342.413 314.886 342.219 315.321 341.833 315.685C341.452 316.043 340.992 316.222 340.452 316.222ZM348.798 313.545V331H345.168V313.545H348.798Z" fill="#2188BA"/>
<path d="M509 300H439C433.5 300 429 304.5 429 310V380C429 385.5 433.5 390 439 390H509C514.5 390 519 385.5 519 380V310C519 304.5 514.5 300 509 300ZM509 380H439V310H509V380Z" fill="#E8F7E8"/>
<path d="M459 345H449V370H459V345Z" fill="#E8F7E8"/>
<path d="M499 320H489V370H499V320Z" fill="#E8F7E8"/>
<path d="M479 355H469V370H479V355Z" fill="#E8F7E8"/>
<path d="M479 335H469V345H479V335Z" fill="#E8F7E8"/>
<path d="M439 90H454V139H439V90ZM467 69H481V139H467V69ZM495 109H509V139H495V109Z" fill="#E8F7E8"/>
<path d="M247.162 139H243.787L249.932 121.545H253.836L259.989 139H256.614L251.952 125.125H251.816L247.162 139ZM247.273 132.156H256.478V134.696H247.273V132.156ZM265.237 131.33V139H262.152V125.909H265.1V128.134H265.254C265.555 127.401 266.035 126.818 266.694 126.386C267.359 125.955 268.18 125.739 269.157 125.739C270.061 125.739 270.848 125.932 271.518 126.318C272.194 126.705 272.717 127.264 273.086 127.997C273.461 128.73 273.646 129.619 273.64 130.665V139H270.555V131.142C270.555 130.267 270.328 129.582 269.873 129.088C269.424 128.594 268.802 128.347 268.007 128.347C267.467 128.347 266.987 128.466 266.566 128.705C266.152 128.937 265.825 129.276 265.586 129.719C265.353 130.162 265.237 130.699 265.237 131.33ZM280.544 139.264C279.714 139.264 278.967 139.116 278.302 138.821C277.643 138.52 277.12 138.077 276.734 137.491C276.353 136.906 276.163 136.185 276.163 135.327C276.163 134.588 276.299 133.977 276.572 133.494C276.845 133.011 277.217 132.625 277.689 132.335C278.16 132.045 278.691 131.827 279.282 131.679C279.879 131.526 280.495 131.415 281.132 131.347C281.899 131.267 282.521 131.196 282.998 131.134C283.475 131.065 283.822 130.963 284.038 130.827C284.26 130.685 284.37 130.466 284.37 130.17V130.119C284.37 129.477 284.18 128.98 283.799 128.628C283.419 128.276 282.87 128.099 282.154 128.099C281.399 128.099 280.799 128.264 280.356 128.594C279.919 128.923 279.623 129.312 279.47 129.761L276.589 129.352C276.816 128.557 277.191 127.892 277.714 127.358C278.237 126.818 278.876 126.415 279.632 126.148C280.387 125.875 281.223 125.739 282.137 125.739C282.768 125.739 283.396 125.812 284.021 125.96C284.646 126.108 285.217 126.352 285.734 126.693C286.251 127.028 286.666 127.486 286.978 128.065C287.297 128.645 287.456 129.369 287.456 130.239V139H284.49V137.202H284.387C284.2 137.565 283.936 137.906 283.595 138.224C283.26 138.537 282.836 138.79 282.325 138.983C281.819 139.17 281.225 139.264 280.544 139.264ZM281.345 136.997C281.964 136.997 282.501 136.875 282.956 136.631C283.41 136.381 283.76 136.051 284.004 135.642C284.254 135.233 284.379 134.787 284.379 134.304V132.761C284.282 132.841 284.118 132.915 283.885 132.983C283.657 133.051 283.402 133.111 283.118 133.162C282.833 133.213 282.552 133.259 282.274 133.298C281.995 133.338 281.754 133.372 281.549 133.401C281.089 133.463 280.677 133.565 280.314 133.707C279.95 133.849 279.663 134.048 279.453 134.304C279.243 134.554 279.137 134.878 279.137 135.276C279.137 135.844 279.345 136.273 279.76 136.562C280.174 136.852 280.703 136.997 281.345 136.997ZM281.089 124.188L282.998 120.293H286.015L283.399 124.188H281.089ZM293.643 121.545V139H290.558V121.545H293.643ZM296.816 139V125.909H299.901V139H296.816ZM298.367 124.051C297.878 124.051 297.458 123.889 297.105 123.565C296.753 123.236 296.577 122.841 296.577 122.381C296.577 121.915 296.753 121.52 297.105 121.196C297.458 120.866 297.878 120.702 298.367 120.702C298.861 120.702 299.282 120.866 299.628 121.196C299.98 121.52 300.157 121.915 300.157 122.381C300.157 122.841 299.98 123.236 299.628 123.565C299.282 123.889 298.861 124.051 298.367 124.051ZM313.42 129.369L310.608 129.676C310.528 129.392 310.389 129.125 310.19 128.875C309.997 128.625 309.735 128.423 309.406 128.27C309.076 128.116 308.673 128.04 308.196 128.04C307.554 128.04 307.014 128.179 306.576 128.457C306.145 128.736 305.931 129.097 305.937 129.54C305.931 129.92 306.071 130.23 306.355 130.469C306.645 130.707 307.122 130.903 307.787 131.057L310.02 131.534C311.258 131.801 312.179 132.224 312.781 132.804C313.389 133.384 313.696 134.142 313.701 135.08C313.696 135.903 313.454 136.631 312.977 137.261C312.505 137.886 311.849 138.375 311.008 138.727C310.167 139.08 309.201 139.256 308.11 139.256C306.508 139.256 305.218 138.92 304.241 138.25C303.264 137.574 302.681 136.634 302.494 135.429L305.502 135.139C305.639 135.73 305.929 136.176 306.372 136.477C306.815 136.778 307.392 136.929 308.102 136.929C308.835 136.929 309.423 136.778 309.866 136.477C310.315 136.176 310.539 135.804 310.539 135.361C310.539 134.986 310.395 134.676 310.105 134.432C309.821 134.187 309.377 134 308.775 133.869L306.542 133.401C305.287 133.139 304.358 132.699 303.755 132.08C303.153 131.455 302.855 130.665 302.86 129.71C302.855 128.903 303.074 128.205 303.517 127.614C303.966 127.017 304.588 126.557 305.383 126.233C306.184 125.903 307.108 125.739 308.153 125.739C309.687 125.739 310.895 126.065 311.775 126.719C312.662 127.372 313.21 128.256 313.42 129.369ZM322.041 139.256C320.728 139.256 319.595 138.983 318.64 138.438C317.691 137.886 316.961 137.108 316.45 136.102C315.939 135.091 315.683 133.901 315.683 132.531C315.683 131.185 315.939 130.003 316.45 128.986C316.967 127.963 317.689 127.168 318.615 126.599C319.541 126.026 320.629 125.739 321.879 125.739C322.686 125.739 323.447 125.869 324.163 126.131C324.885 126.386 325.521 126.784 326.072 127.324C326.629 127.864 327.066 128.551 327.385 129.386C327.703 130.216 327.862 131.205 327.862 132.352V133.298H317.132V131.219H324.904C324.899 130.628 324.771 130.102 324.521 129.642C324.271 129.176 323.922 128.81 323.473 128.543C323.029 128.276 322.512 128.142 321.922 128.142C321.291 128.142 320.737 128.295 320.26 128.602C319.782 128.903 319.41 129.301 319.143 129.795C318.882 130.284 318.748 130.821 318.743 131.406V133.222C318.743 133.983 318.882 134.636 319.16 135.182C319.439 135.722 319.828 136.136 320.328 136.426C320.828 136.71 321.413 136.852 322.083 136.852C322.532 136.852 322.939 136.79 323.302 136.665C323.666 136.534 323.981 136.344 324.248 136.094C324.515 135.844 324.717 135.534 324.853 135.165L327.734 135.489C327.552 136.25 327.206 136.915 326.694 137.483C326.189 138.045 325.541 138.483 324.751 138.795C323.961 139.102 323.058 139.256 322.041 139.256ZM341.283 139.23C340.255 139.23 339.334 138.966 338.522 138.438C337.709 137.909 337.067 137.142 336.596 136.136C336.124 135.131 335.888 133.909 335.888 132.472C335.888 131.017 336.127 129.79 336.604 128.79C337.087 127.784 337.738 127.026 338.556 126.514C339.374 125.997 340.286 125.739 341.292 125.739C342.059 125.739 342.689 125.869 343.184 126.131C343.678 126.386 344.07 126.696 344.36 127.06C344.65 127.418 344.874 127.756 345.033 128.074H345.161V121.545H348.255V139H345.221V136.938H345.033C344.874 137.256 344.644 137.594 344.343 137.952C344.042 138.304 343.644 138.605 343.15 138.855C342.655 139.105 342.033 139.23 341.283 139.23ZM342.144 136.699C342.797 136.699 343.354 136.523 343.814 136.17C344.275 135.812 344.624 135.315 344.863 134.679C345.101 134.043 345.221 133.301 345.221 132.455C345.221 131.608 345.101 130.872 344.863 130.247C344.63 129.622 344.283 129.136 343.823 128.79C343.368 128.443 342.809 128.27 342.144 128.27C341.456 128.27 340.882 128.449 340.422 128.807C339.962 129.165 339.615 129.659 339.382 130.29C339.15 130.92 339.033 131.642 339.033 132.455C339.033 133.273 339.15 134.003 339.382 134.645C339.621 135.281 339.971 135.784 340.431 136.153C340.897 136.517 341.468 136.699 342.144 136.699ZM357.338 139.256C356.025 139.256 354.892 138.983 353.937 138.438C352.988 137.886 352.258 137.108 351.747 136.102C351.235 135.091 350.98 133.901 350.98 132.531C350.98 131.185 351.235 130.003 351.747 128.986C352.264 127.963 352.985 127.168 353.912 126.599C354.838 126.026 355.926 125.739 357.176 125.739C357.983 125.739 358.744 125.869 359.46 126.131C360.181 126.386 360.818 126.784 361.369 127.324C361.926 127.864 362.363 128.551 362.681 129.386C363 130.216 363.159 131.205 363.159 132.352V133.298H352.429V131.219H360.201C360.196 130.628 360.068 130.102 359.818 129.642C359.568 129.176 359.218 128.81 358.77 128.543C358.326 128.276 357.809 128.142 357.218 128.142C356.588 128.142 356.034 128.295 355.556 128.602C355.079 128.903 354.707 129.301 354.44 129.795C354.179 130.284 354.045 130.821 354.039 131.406V133.222C354.039 133.983 354.179 134.636 354.457 135.182C354.735 135.722 355.125 136.136 355.625 136.426C356.125 136.71 356.71 136.852 357.38 136.852C357.829 136.852 358.235 136.79 358.599 136.665C358.963 136.534 359.278 136.344 359.545 136.094C359.812 135.844 360.014 135.534 360.15 135.165L363.031 135.489C362.849 136.25 362.502 136.915 361.991 137.483C361.485 138.045 360.838 138.483 360.048 138.795C359.258 139.102 358.355 139.256 357.338 139.256ZM371.858 139V121.545H374.944V128.074H375.071C375.23 127.756 375.455 127.418 375.745 127.06C376.034 126.696 376.426 126.386 376.921 126.131C377.415 125.869 378.046 125.739 378.813 125.739C379.824 125.739 380.736 125.997 381.549 126.514C382.367 127.026 383.015 127.784 383.492 128.79C383.975 129.79 384.216 131.017 384.216 132.472C384.216 133.909 383.98 135.131 383.509 136.136C383.037 137.142 382.395 137.909 381.583 138.438C380.77 138.966 379.85 139.23 378.821 139.23C378.071 139.23 377.449 139.105 376.955 138.855C376.461 138.605 376.063 138.304 375.762 137.952C375.466 137.594 375.236 137.256 375.071 136.938H374.892V139H371.858ZM374.884 132.455C374.884 133.301 375.003 134.043 375.242 134.679C375.486 135.315 375.836 135.812 376.29 136.17C376.75 136.523 377.307 136.699 377.961 136.699C378.642 136.699 379.213 136.517 379.674 136.153C380.134 135.784 380.48 135.281 380.713 134.645C380.952 134.003 381.071 133.273 381.071 132.455C381.071 131.642 380.955 130.92 380.722 130.29C380.489 129.659 380.142 129.165 379.682 128.807C379.222 128.449 378.648 128.27 377.961 128.27C377.301 128.27 376.742 128.443 376.282 128.79C375.821 129.136 375.472 129.622 375.233 130.247C375 130.872 374.884 131.608 374.884 132.455ZM390.606 139.264C389.777 139.264 389.029 139.116 388.365 138.821C387.706 138.52 387.183 138.077 386.797 137.491C386.416 136.906 386.225 136.185 386.225 135.327C386.225 134.588 386.362 133.977 386.635 133.494C386.907 133.011 387.279 132.625 387.751 132.335C388.223 132.045 388.754 131.827 389.345 131.679C389.941 131.526 390.558 131.415 391.194 131.347C391.961 131.267 392.583 131.196 393.061 131.134C393.538 131.065 393.885 130.963 394.1 130.827C394.322 130.685 394.433 130.466 394.433 130.17V130.119C394.433 129.477 394.243 128.98 393.862 128.628C393.481 128.276 392.933 128.099 392.217 128.099C391.461 128.099 390.862 128.264 390.419 128.594C389.981 128.923 389.686 129.312 389.532 129.761L386.652 129.352C386.879 128.557 387.254 127.892 387.777 127.358C388.299 126.818 388.939 126.415 389.694 126.148C390.45 125.875 391.285 125.739 392.2 125.739C392.831 125.739 393.458 125.812 394.083 125.96C394.708 126.108 395.279 126.352 395.797 126.693C396.314 127.028 396.728 127.486 397.041 128.065C397.359 128.645 397.518 129.369 397.518 130.239V139H394.552V137.202H394.45C394.262 137.565 393.998 137.906 393.657 138.224C393.322 138.537 392.899 138.79 392.387 138.983C391.882 139.17 391.288 139.264 390.606 139.264ZM391.407 136.997C392.027 136.997 392.564 136.875 393.018 136.631C393.473 136.381 393.822 136.051 394.066 135.642C394.316 135.233 394.441 134.787 394.441 134.304V132.761C394.345 132.841 394.18 132.915 393.947 132.983C393.72 133.051 393.464 133.111 393.18 133.162C392.896 133.213 392.615 133.259 392.336 133.298C392.058 133.338 391.816 133.372 391.612 133.401C391.152 133.463 390.74 133.565 390.376 133.707C390.012 133.849 389.725 134.048 389.515 134.304C389.305 134.554 389.2 134.878 389.2 135.276C389.2 135.844 389.407 136.273 389.822 136.562C390.237 136.852 390.765 136.997 391.407 136.997ZM407.157 125.909V128.295H399.632V125.909H407.157ZM401.49 122.773H404.575V135.062C404.575 135.477 404.637 135.795 404.762 136.017C404.893 136.233 405.064 136.381 405.274 136.46C405.484 136.54 405.717 136.58 405.973 136.58C406.166 136.58 406.342 136.565 406.501 136.537C406.666 136.509 406.791 136.483 406.876 136.46L407.396 138.872C407.231 138.929 406.995 138.991 406.689 139.06C406.387 139.128 406.018 139.168 405.581 139.179C404.808 139.202 404.112 139.085 403.493 138.83C402.873 138.568 402.382 138.165 402.018 137.619C401.66 137.074 401.484 136.392 401.49 135.574V122.773ZM415.392 139.256C414.08 139.256 412.946 138.983 411.992 138.438C411.043 137.886 410.313 137.108 409.801 136.102C409.29 135.091 409.034 133.901 409.034 132.531C409.034 131.185 409.29 130.003 409.801 128.986C410.319 127.963 411.04 127.168 411.966 126.599C412.892 126.026 413.98 125.739 415.23 125.739C416.037 125.739 416.799 125.869 417.515 126.131C418.236 126.386 418.873 126.784 419.424 127.324C419.98 127.864 420.418 128.551 420.736 129.386C421.054 130.216 421.213 131.205 421.213 132.352V133.298H410.483V131.219H418.256C418.25 130.628 418.123 130.102 417.873 129.642C417.623 129.176 417.273 128.81 416.824 128.543C416.381 128.276 415.864 128.142 415.273 128.142C414.642 128.142 414.088 128.295 413.611 128.602C413.134 128.903 412.762 129.301 412.495 129.795C412.233 130.284 412.1 130.821 412.094 131.406V133.222C412.094 133.983 412.233 134.636 412.512 135.182C412.79 135.722 413.179 136.136 413.679 136.426C414.179 136.71 414.765 136.852 415.435 136.852C415.884 136.852 416.29 136.79 416.654 136.665C417.017 136.534 417.333 136.344 417.6 136.094C417.867 135.844 418.069 135.534 418.205 135.165L421.086 135.489C420.904 136.25 420.557 136.915 420.046 137.483C419.54 138.045 418.892 138.483 418.103 138.795C417.313 139.102 416.409 139.256 415.392 139.256ZM431.758 130.46V133H423.9V130.46H431.758ZM435.003 143.909V125.909H438.037V128.074H438.216C438.375 127.756 438.6 127.418 438.89 127.06C439.179 126.696 439.571 126.386 440.066 126.131C440.56 125.869 441.191 125.739 441.958 125.739C442.969 125.739 443.881 125.997 444.694 126.514C445.512 127.026 446.159 127.784 446.637 128.79C447.12 129.79 447.361 131.017 447.361 132.472C447.361 133.909 447.125 135.131 446.654 136.136C446.182 137.142 445.54 137.909 444.728 138.438C443.915 138.966 442.995 139.23 441.966 139.23C441.216 139.23 440.594 139.105 440.1 138.855C439.605 138.605 439.208 138.304 438.907 137.952C438.611 137.594 438.381 137.256 438.216 136.938H438.088V143.909H435.003ZM438.029 132.455C438.029 133.301 438.148 134.043 438.387 134.679C438.631 135.315 438.98 135.812 439.435 136.17C439.895 136.523 440.452 136.699 441.105 136.699C441.787 136.699 442.358 136.517 442.819 136.153C443.279 135.784 443.625 135.281 443.858 134.645C444.097 134.003 444.216 133.273 444.216 132.455C444.216 131.642 444.1 130.92 443.867 130.29C443.634 129.659 443.287 129.165 442.827 128.807C442.367 128.449 441.793 128.27 441.105 128.27C440.446 128.27 439.887 128.443 439.426 128.79C438.966 129.136 438.617 129.622 438.378 130.247C438.145 130.872 438.029 131.608 438.029 132.455ZM453.77 139.264C452.941 139.264 452.194 139.116 451.529 138.821C450.87 138.52 450.347 138.077 449.961 137.491C449.58 136.906 449.39 136.185 449.39 135.327C449.39 134.588 449.526 133.977 449.799 133.494C450.071 133.011 450.444 132.625 450.915 132.335C451.387 132.045 451.918 131.827 452.509 131.679C453.105 131.526 453.722 131.415 454.358 131.347C455.125 131.267 455.748 131.196 456.225 131.134C456.702 131.065 457.049 130.963 457.265 130.827C457.486 130.685 457.597 130.466 457.597 130.17V130.119C457.597 129.477 457.407 128.98 457.026 128.628C456.645 128.276 456.097 128.099 455.381 128.099C454.625 128.099 454.026 128.264 453.583 128.594C453.145 128.923 452.85 129.312 452.696 129.761L449.816 129.352C450.043 128.557 450.418 127.892 450.941 127.358C451.463 126.818 452.103 126.415 452.858 126.148C453.614 125.875 454.449 125.739 455.364 125.739C455.995 125.739 456.623 125.812 457.248 125.96C457.873 126.108 458.444 126.352 458.961 126.693C459.478 127.028 459.892 127.486 460.205 128.065C460.523 128.645 460.682 129.369 460.682 130.239V139H457.716V137.202H457.614C457.426 137.565 457.162 137.906 456.821 138.224C456.486 138.537 456.063 138.79 455.551 138.983C455.046 139.17 454.452 139.264 453.77 139.264ZM454.571 136.997C455.191 136.997 455.728 136.875 456.182 136.631C456.637 136.381 456.986 136.051 457.23 135.642C457.48 135.233 457.605 134.787 457.605 134.304V132.761C457.509 132.841 457.344 132.915 457.111 132.983C456.884 133.051 456.628 133.111 456.344 133.162C456.06 133.213 455.779 133.259 455.5 133.298C455.222 133.338 454.98 133.372 454.776 133.401C454.316 133.463 453.904 133.565 453.54 133.707C453.176 133.849 452.89 134.048 452.679 134.304C452.469 134.554 452.364 134.878 452.364 135.276C452.364 135.844 452.571 136.273 452.986 136.562C453.401 136.852 453.929 136.997 454.571 136.997ZM463.784 143.909V125.909H466.819V128.074H466.998C467.157 127.756 467.381 127.418 467.671 127.06C467.961 126.696 468.353 126.386 468.847 126.131C469.341 125.869 469.972 125.739 470.739 125.739C471.75 125.739 472.662 125.997 473.475 126.514C474.293 127.026 474.941 127.784 475.418 128.79C475.901 129.79 476.142 131.017 476.142 132.472C476.142 133.909 475.907 135.131 475.435 136.136C474.963 137.142 474.321 137.909 473.509 138.438C472.696 138.966 471.776 139.23 470.748 139.23C469.998 139.23 469.375 139.105 468.881 138.855C468.387 138.605 467.989 138.304 467.688 137.952C467.392 137.594 467.162 137.256 466.998 136.938H466.87V143.909H463.784ZM466.81 132.455C466.81 133.301 466.929 134.043 467.168 134.679C467.412 135.315 467.762 135.812 468.216 136.17C468.676 136.523 469.233 136.699 469.887 136.699C470.569 136.699 471.14 136.517 471.6 136.153C472.06 135.784 472.407 135.281 472.64 134.645C472.878 134.003 472.998 133.273 472.998 132.455C472.998 131.642 472.881 130.92 472.648 130.29C472.415 129.659 472.069 129.165 471.608 128.807C471.148 128.449 470.574 128.27 469.887 128.27C469.228 128.27 468.668 128.443 468.208 128.79C467.748 129.136 467.398 129.622 467.159 130.247C466.926 130.872 466.81 131.608 466.81 132.455ZM484.495 139.256C483.216 139.256 482.108 138.974 481.171 138.412C480.233 137.849 479.506 137.062 478.989 136.051C478.478 135.04 478.222 133.858 478.222 132.506C478.222 131.153 478.478 129.969 478.989 128.952C479.506 127.935 480.233 127.145 481.171 126.582C482.108 126.02 483.216 125.739 484.495 125.739C485.773 125.739 486.881 126.02 487.819 126.582C488.756 127.145 489.48 127.935 489.992 128.952C490.509 129.969 490.767 131.153 490.767 132.506C490.767 133.858 490.509 135.04 489.992 136.051C489.48 137.062 488.756 137.849 487.819 138.412C486.881 138.974 485.773 139.256 484.495 139.256ZM484.512 136.784C485.205 136.784 485.784 136.594 486.25 136.213C486.716 135.827 487.063 135.31 487.29 134.662C487.523 134.014 487.64 133.293 487.64 132.497C487.64 131.696 487.523 130.972 487.29 130.324C487.063 129.67 486.716 129.151 486.25 128.764C485.784 128.378 485.205 128.185 484.512 128.185C483.801 128.185 483.211 128.378 482.739 128.764C482.273 129.151 481.924 129.67 481.691 130.324C481.463 130.972 481.35 131.696 481.35 132.497C481.35 133.293 481.463 134.014 481.691 134.662C481.924 135.31 482.273 135.827 482.739 136.213C483.211 136.594 483.801 136.784 484.512 136.784Z" fill="#3A74B5"/>
</svg>
