<svg width="560" height="500" viewBox="0 0 560 500" fill="none" xmlns="http://www.w3.org/2000/svg">
<rect width="560" height="500" rx="16" fill="white"/>
<rect x="37" y="105" width="56" height="56" rx="16" fill="#E8F7E8"/>
<path d="M74.8985 129.89L73.8485 125.52C73.6285 124.62 72.8485 124 71.9385 124H58.0485C57.1485 124 56.3585 124.63 56.1485 125.52L55.0985 129.89C54.8585 130.91 55.0785 131.95 55.7185 132.77C55.7985 132.88 55.9085 132.96 55.9985 133.06V140C55.9985 141.1 56.8985 142 57.9985 142H71.9985C73.0985 142 73.9985 141.1 73.9985 140V133.06C74.0885 132.97 74.1985 132.88 74.2785 132.78C74.9185 131.96 75.1485 130.91 74.8985 129.89ZM71.9085 125.99L72.9585 130.36C73.0585 130.78 72.9685 131.2 72.7085 131.53C72.5685 131.71 72.2685 132 71.7685 132C71.1585 132 70.6285 131.51 70.5585 130.86L69.9785 126L71.9085 125.99ZM65.9985 126H67.9585L68.4985 130.52C68.5485 130.91 68.4285 131.3 68.1685 131.59C67.9485 131.85 67.6285 132 67.2185 132C66.5485 132 65.9985 131.41 65.9985 130.69V126ZM61.4885 130.52L62.0385 126H63.9985V130.69C63.9985 131.41 63.4485 132 62.7085 132C62.3685 132 62.0585 131.85 61.8185 131.59C61.5685 131.3 61.4485 130.91 61.4885 130.52ZM57.0385 130.36L58.0485 126H60.0185L59.4385 130.86C59.3585 131.51 58.8385 132 58.2285 132C57.7385 132 57.4285 131.71 57.2985 131.53C57.0285 131.21 56.9385 130.78 57.0385 130.36ZM57.9985 140V133.97C58.0785 133.98 58.1485 134 58.2285 134C59.0985 134 59.8885 133.64 60.4685 133.05C61.0685 133.65 61.8685 134 62.7785 134C63.6485 134 64.4285 133.64 65.0085 133.07C65.5985 133.64 66.3985 134 67.2985 134C68.1385 134 68.9385 133.65 69.5385 133.05C70.1185 133.64 70.9085 134 71.7785 134C71.8585 134 71.9285 133.98 72.0085 133.97V140H57.9985Z" fill="#307368"/>
<rect x="150" y="6" width="80" height="80" rx="16" fill="#F2F2F3"/>
<path d="M168.275 49.261C168.918 53.9458 171.123 58.1712 174.43 61.57L181.87 54.1295C181.87 46.2297 186.004 39.0648 192.801 35.023L168.275 49.261Z" fill="#9B65C3"/>
<path d="M181.962 54.0376C178.104 54.0376 174.338 53.0272 171.031 51.0981C170.113 50.547 169.194 49.904 168.275 49.261C168.918 53.9457 171.123 58.1712 174.43 61.57L181.962 54.0376Z" fill="#9B65C3"/>
<path d="M181.962 54.0376L174.43 61.5699C177.828 64.9687 182.054 67.0814 186.647 67.7244L200.885 43.1065C197.027 49.8121 189.77 54.0376 181.962 54.0376Z" fill="#BE63C5"/>
<path d="M184.902 65.0606C182.972 61.6618 181.962 57.9875 181.962 54.1295L174.43 61.57C177.828 64.9687 182.054 67.0815 186.647 67.7245C186.096 66.8059 185.453 65.9792 184.902 65.0606Z" fill="#BF63C6"/>
<path d="M209.979 25.1942L192.894 34.9311C186.096 38.7891 177.829 38.7891 170.939 34.9311C169.01 38.3299 168 42.1879 168 46.0459C168 47.0564 168.092 48.2505 168.276 49.261C169.194 49.904 170.113 50.547 171.031 51.0981C174.43 53.0271 178.104 54.0376 181.962 54.0376L210.347 25.6534C210.163 25.5616 210.071 25.3779 209.979 25.1942Z" fill="#3278B1"/>
<path d="M170.939 51.0982C174.338 53.0272 178.012 54.0376 181.87 54.0376C181.87 46.1378 186.004 38.9729 192.801 34.9312L168.275 49.1691C169.194 49.904 170.021 50.547 170.939 51.0982Z" fill="#3278B2"/>
<path d="M170.939 34.9312C169.01 38.3299 168 42.1879 168 46.046C168 47.0564 168.092 48.2506 168.276 49.261L192.894 34.9312C186.188 38.9729 177.829 38.9729 170.939 34.9312Z" fill="#45A4EC"/>
<path d="M210.347 25.6534C209.979 25.286 209.704 25.0104 209.336 24.7349C208.509 24.2756 207.499 24 206.58 24H189.954C182.054 24 174.797 28.2255 170.939 34.9311C177.737 38.7891 186.004 38.7891 192.894 34.9311C186.096 38.7891 181.962 46.1378 181.962 54.0376C189.862 54.0376 197.027 49.904 201.069 43.1065L210.806 26.0209C210.622 25.929 210.438 25.8372 210.347 25.6534Z" fill="#19BB7D"/>
<path d="M192.894 34.9312L209.979 25.1942C209.704 25.1024 209.612 24.8268 209.336 24.6431L170.939 34.9312C177.829 38.9729 186.188 38.9729 192.894 34.9312Z" fill="#08C7FB"/>
<path d="M206.489 24H189.954C182.054 24 174.797 28.2255 170.939 34.9311L209.336 24.643C208.418 24.2756 207.499 24 206.489 24Z" fill="#59F2F6"/>
<path d="M201.069 43.1064L210.806 26.0208C210.714 25.929 210.531 25.7453 210.439 25.4697L182.055 53.9457C182.055 57.8037 183.065 61.5699 184.994 64.8768C185.545 65.7954 186.188 66.714 186.831 67.6325C187.842 67.7244 188.852 67.9081 189.954 67.9081C193.813 67.9081 197.579 66.8977 200.886 64.9687C197.028 58.1712 197.028 49.8121 201.069 43.1064Z" fill="#DA3757"/>
<path d="M181.963 54.0376C181.963 57.8956 182.973 61.6618 184.902 64.9687C185.453 65.8873 186.097 66.8058 186.74 67.7244L200.978 43.1065C197.028 49.8121 189.771 54.0376 181.963 54.0376Z" fill="#D33C4E"/>
<path d="M201.068 43.1065L186.83 67.7244C187.841 67.8163 188.851 68 190.045 68C193.903 68 197.669 66.9896 200.976 65.0605C197.026 58.1712 197.026 49.8121 201.068 43.1065Z" fill="#EE5A24"/>
<path d="M211.266 26.7557C210.898 26.1127 210.531 25.5616 209.98 25.1942L192.894 34.9311C186.097 38.7891 181.963 46.1378 181.963 54.0376C189.863 54.0376 197.028 49.904 201.069 43.1065C197.211 49.904 197.211 58.1712 201.069 65.0605C207.775 61.2025 212 53.9457 212 46.2296V29.5115C212 28.501 211.725 27.5825 211.266 26.7557Z" fill="#8BDF55"/>
<path d="M209.98 25.1942L192.894 34.9311C186.097 38.7891 181.963 46.1378 181.963 54.0376L210.347 25.6534C210.163 25.5616 210.071 25.286 209.98 25.1942Z" fill="#25C16F"/>
<path d="M181.963 54.0375C189.863 54.0375 197.028 49.9039 201.069 43.1064L210.806 26.0208C210.714 25.929 210.531 25.7453 210.439 25.4697L181.963 54.0375Z" fill="#8BDF55"/>
<path d="M210.806 26.0209L201.069 43.1065C197.211 49.904 197.211 58.1712 201.069 65.0606L211.357 26.7558C211.082 26.4802 210.99 26.2965 210.806 26.0209Z" fill="#FFBB00"/>
<path d="M201.068 65.0605C207.866 61.2025 211.999 53.9457 211.999 46.0459V29.5115C211.999 28.501 211.724 27.5825 211.265 26.6639L201.068 65.0605Z" fill="#FFA800"/>
<rect x="347" y="358" width="80" height="80" rx="16" fill="#F2F2F3"/>
<path d="M387.053 420H372.735C368.473 420 365 416.526 365 412.262V398C365 397.287 365.576 396.71 366.289 396.71C367.002 396.71 367.578 397.287 367.578 398V412.262C367.578 415.099 369.884 417.421 372.735 417.421H387.053C387.766 417.421 388.342 417.997 388.342 418.71C388.342 419.423 387.766 420 387.053 420Z" fill="#F9B21D"/>
<path d="M401.265 420H387.053C386.34 420 385.764 419.423 385.764 418.71C385.764 417.997 386.34 417.421 387.053 417.421H401.265C404.101 417.421 406.421 415.114 406.421 412.262V398C406.421 397.287 406.998 396.71 407.711 396.71C408.423 396.71 409 397.287 409 398V412.262C408.985 416.526 405.527 420 401.265 420Z" fill="#226DB4"/>
<path d="M407.711 399.29C406.998 399.29 406.421 398.713 406.421 398V383.738C406.421 380.901 404.116 378.579 401.265 378.579H387.053C386.34 378.579 385.764 378.003 385.764 377.29C385.764 376.577 386.34 376 387.053 376H401.265C405.527 376 409 379.474 409 383.738V398C408.985 398.713 408.408 399.29 407.711 399.29Z" fill="#089949"/>
<path d="M366.289 399.29C365.576 399.29 365 398.713 365 398V383.738C365 379.474 368.473 376 372.735 376H387.053C387.766 376 388.342 376.577 388.342 377.29C388.342 378.003 387.766 378.579 387.053 378.579H372.735C369.899 378.579 367.578 380.886 367.578 383.738V398C367.578 398.713 367.002 399.29 366.289 399.29Z" fill="#E42527"/>
<path d="M393.378 409.222C390.4 409.222 387.604 408.063 385.486 405.978L379.529 400.019C378.768 399.241 378.338 398.232 378.338 397.139C378.338 396.047 378.768 395.037 379.546 394.259C381.134 392.703 383.699 392.703 385.271 394.276L390.731 399.738C391.211 400.218 392.005 400.218 392.501 399.738C392.733 399.506 392.865 399.192 392.865 398.844C392.865 398.513 392.733 398.199 392.501 397.95L386.545 391.992C384.956 390.419 382.855 389.559 380.605 389.559C378.321 389.559 376.187 390.452 374.615 392.074C373.027 393.697 372.183 395.848 372.216 398.132C372.266 400.35 373.159 402.419 374.731 403.975C376.319 405.531 378.404 406.392 380.621 406.392C380.952 406.392 381.267 406.375 381.598 406.342C382.375 406.259 383.07 406.806 383.153 407.583C383.236 408.361 382.69 409.057 381.912 409.139C381.482 409.189 381.052 409.206 380.621 409.206C377.66 409.206 374.863 408.063 372.762 405.994C370.661 403.926 369.453 401.161 369.403 398.215C369.337 395.17 370.479 392.306 372.596 390.138C374.714 387.97 377.56 386.778 380.605 386.761C380.621 386.761 380.621 386.761 380.638 386.761C383.616 386.761 386.412 387.92 388.53 390.006L394.487 395.964C395.265 396.742 395.678 397.752 395.678 398.844C395.678 399.937 395.248 400.963 394.47 401.724C392.882 403.297 390.317 403.28 388.745 401.708L383.285 396.246C382.805 395.766 382.011 395.766 381.531 396.246C381.3 396.477 381.167 396.792 381.167 397.123C381.167 397.454 381.3 397.768 381.531 398L387.488 403.959C389.076 405.531 391.178 406.392 393.395 406.392C398.028 406.392 401.8 402.618 401.8 397.983C401.8 395.732 400.923 393.63 399.335 392.025C397.746 390.436 395.629 389.559 393.395 389.559C393.08 389.559 392.766 389.575 392.452 389.608C391.674 389.691 390.979 389.145 390.896 388.367C390.814 387.589 391.36 386.894 392.137 386.811C392.551 386.761 392.981 386.745 393.395 386.745C396.39 386.745 399.202 387.92 401.337 390.039C403.455 392.157 404.63 394.988 404.63 397.983C404.63 400.979 403.455 403.793 401.337 405.912C399.186 408.063 396.373 409.222 393.378 409.222Z" fill="#226DB4"/>
<rect x="123" y="332" width="144" height="144" rx="16" fill="#F2F2F3"/>
<path d="M154.464 385.525C154.918 385.979 155.735 387.115 156.825 386.615C157.96 386.07 163.818 385.525 165.725 385.253C167.632 385.026 169.267 385.298 169.267 385.298C169.267 385.298 164.227 392.246 163.455 393.381C162.592 394.471 158.278 400.691 157.461 401.963C156.644 403.28 154.6 406.731 153.647 408.456C152.784 410.182 154.237 410.045 154.237 410.045C154.237 410.045 157.688 410.136 158.46 410.136C159.186 410.091 159.323 409.591 159.413 409.364C159.595 409.092 159.777 408.365 160.458 407.276C161.048 406.186 162.547 403.688 164.181 400.964C165.816 398.285 167.723 395.606 169.131 393.608C170.629 391.565 172.309 389.203 172.718 388.658C173.081 388.114 174.761 385.889 175.124 385.389C175.488 384.844 175.624 384.89 176.214 384.844C176.396 384.844 176.895 384.844 177.486 384.89C179.03 384.935 181.482 385.162 182.662 385.253C184.388 385.434 186.885 385.48 188.429 385.616C189.973 385.798 189.519 384.89 189.519 384.89C189.519 384.89 189.609 383.845 189.201 382.755C188.701 381.62 188.338 381.756 188.338 381.756C186.567 381.212 180.891 380.803 177.486 380.712C176.623 380.667 175.896 380.667 175.442 380.667H174.716C171.583 380.712 163.863 381.166 162.183 381.348C160.367 381.529 154.464 382.665 153.374 382.846C152.33 383.119 152.92 383.8 152.92 383.8C152.92 383.8 153.964 385.026 154.464 385.525Z" fill="#3069B3"/>
<path d="M237.469 419.354C237.106 419.172 232.338 417.492 230.976 417.084C229.523 416.72 223.529 415.449 222.757 415.358C221.985 415.267 223.847 413.451 224.573 412.497C225.3 411.68 229.296 407.321 230.703 406.05C232.02 404.733 235.471 401.554 236.516 400.555C237.515 399.556 235.971 399.102 235.971 399.102C235.971 399.102 235.471 398.83 233.473 398.376C231.43 397.876 230.976 398.966 230.976 398.966C230.976 398.966 228.161 401.6 226.481 403.189C224.755 404.778 222.757 406.095 221.349 406.867C220.033 407.639 218.67 408.184 218.08 407.82C217.535 407.503 218.08 406.685 218.443 405.959C218.807 405.187 220.986 402.78 221.531 402.099C222.076 401.418 224.573 398.739 225.618 397.695C226.617 396.605 224.846 396.196 223.983 395.969C223.166 395.787 222.621 395.651 221.713 395.651C220.895 395.651 220.578 396.242 220.578 396.242C220.578 396.242 219.079 397.785 218.67 398.33C218.307 398.875 214.22 403.371 212.949 404.733C211.632 406.095 209.861 407.412 209.362 407.593C208.817 407.775 207.773 408.048 206.864 406.912C205.956 405.777 206.683 405.096 207.863 403.461C209.089 401.872 212.177 398.285 213.676 396.514C215.219 394.788 220.941 390.066 222.076 389.249C223.166 388.431 222.53 388.159 222.53 388.159C222.53 388.159 221.531 387.478 220.941 387.296C220.396 387.024 219.442 386.842 218.443 386.842C217.49 386.842 217.127 387.387 217.127 387.387C217.127 387.387 213.948 390.021 213.312 390.656C212.722 391.201 205.775 398.012 204.503 399.329C203.232 400.646 199.599 403.915 198.373 404.96C197.102 406.004 195.967 406.504 195.285 406.05C194.604 405.595 194.831 404.824 195.285 404.188C195.649 403.507 198.419 400.101 199.418 398.966C200.417 397.831 203.413 394.652 204.458 393.562C205.502 392.473 209.68 388.84 210.86 387.796C212.132 386.797 210.588 386.161 210.588 386.161C210.588 386.161 209.725 385.616 208.227 385.344C206.728 385.026 206.456 385.389 205.638 385.934C204.776 386.479 199.236 392.246 198.691 392.881C198.146 393.426 191.426 400.192 190.427 401.282C189.382 402.281 185.977 405.368 185.25 405.777C184.66 406.277 182.662 407.639 182.163 406.776C181.572 405.959 182.753 405.187 182.753 405.187C182.753 405.187 185.704 402.326 186.749 401.1C187.793 399.874 187.203 398.149 187.021 397.695C186.794 397.195 185.977 395.878 184.524 394.652C183.025 393.426 181.572 393.381 180.528 393.381C179.665 393.426 178.394 394.198 177.395 394.698C177.213 394.743 177.077 394.879 176.895 394.925C176.033 395.56 173.081 397.831 173.081 397.831C173.081 397.831 170.72 399.965 169.267 401.418C167.95 402.871 166.86 404.052 168.313 406.958C169.812 409.864 172.536 410.545 173.717 410.681C174.761 410.863 176.214 409.682 176.668 409.228C177.032 408.865 177.213 408.91 177.486 409.41C177.531 409.455 177.577 409.591 177.667 409.682C178.031 410.409 179.302 410.908 180.483 411.135C181.572 411.317 182.072 411.044 184.07 410.454C186.068 409.864 189.746 407.593 190.381 407.094C191.108 406.549 191.153 407.366 191.744 408.456C192.334 409.546 193.832 409.955 195.104 410.091C196.421 410.182 197.011 409.864 197.919 409.501C198.736 409.137 201.007 408.002 201.733 407.503C202.414 407.049 202.505 407.003 202.778 407.73C203.05 408.411 203.096 409.001 205.139 410.363C207.137 411.816 210.542 410.954 211.269 410.727C212.086 410.454 213.539 409.682 213.903 409.455C214.266 409.228 214.584 409.818 215.401 410.681C216.173 411.453 217.717 411.408 218.716 410.772C219.715 410.091 219.215 410.817 219.215 410.817C219.215 410.817 217.717 412.906 217.217 413.451C216.763 413.996 216.718 414.405 216.218 414.268C215.764 414.178 214.175 414.041 211.768 413.905C209.362 413.723 203.731 413.451 199.645 413.406C195.558 413.36 184.751 413.95 180.71 414.178C179.847 414.223 178.712 414.359 177.44 414.45C172.809 414.949 166.452 415.948 164 416.266C160.912 416.766 151.104 418.809 149.106 419.445C148.606 419.626 148.379 419.763 148.334 419.99V420.081C148.425 420.625 149.878 421.216 150.922 421.715C152.421 422.442 153.874 422.033 153.874 422.033C153.874 422.033 156.825 421.488 158.369 421.216C159.868 420.898 170.902 419.218 173.671 418.718C174.443 418.627 175.76 418.446 177.395 418.219C181.618 417.719 187.612 417.174 189.655 416.993C192.516 416.811 200.462 416.811 202.687 416.766C204.912 416.72 212.586 417.129 212.994 417.22C213.358 417.311 214.584 417.174 213.812 417.81C213.085 418.582 211.314 422.215 210.86 423.032C210.406 423.895 210.588 423.849 211.405 424.303C212.177 424.758 214.22 424.848 214.72 424.848C215.174 424.848 215.31 424.303 215.31 424.303C215.31 424.303 217.808 420.489 218.625 419.263C219.442 417.946 219.942 418.264 219.942 418.264C219.942 418.264 223.847 418.991 225.572 419.309C227.298 419.626 233.655 421.307 235.017 421.897C236.379 422.487 237.015 422.442 237.378 422.351C237.742 422.169 238.604 420.262 238.604 420.262V419.944C238.559 419.808 237.742 419.581 237.469 419.354ZM178.893 403.87C178.575 404.142 178.031 404.46 177.44 404.869C175.987 405.868 174.262 407.003 173.717 407.185C172.945 407.412 172.445 407.684 171.991 407.003C171.492 406.322 172.945 405.005 172.945 405.005C172.945 405.005 175.579 402.644 176.578 401.736C176.805 401.554 177.122 401.282 177.44 401.055C178.757 400.01 180.573 398.557 181.073 398.285C181.663 397.967 182.163 397.695 182.708 398.239C183.252 398.784 182.798 399.329 182.617 399.602C182.526 399.92 180.074 403.007 178.893 403.87Z" fill="#3069B3"/>
<path d="M241.93 393.88C242.702 393.88 243.428 394.062 244.11 394.425C244.836 394.788 245.381 395.379 245.744 396.06C246.107 396.786 246.334 397.513 246.334 398.239C246.334 398.966 246.107 399.738 245.744 400.419C245.381 401.145 244.791 401.69 244.11 402.054C243.383 402.417 242.656 402.644 241.93 402.644C241.158 402.644 240.431 402.417 239.75 402.054C239.024 401.69 238.479 401.1 238.116 400.419C237.752 399.692 237.525 398.966 237.525 398.239C237.525 397.513 237.752 396.741 238.116 396.06C238.479 395.333 239.069 394.788 239.75 394.425C240.431 394.016 241.158 393.88 241.93 393.88ZM241.93 394.607C241.34 394.607 240.704 394.788 240.114 395.106C239.523 395.424 239.069 395.878 238.751 396.468C238.434 397.059 238.252 397.694 238.252 398.33C238.252 399.011 238.434 399.602 238.751 400.147C239.069 400.737 239.523 401.191 240.114 401.509C240.704 401.827 241.34 402.008 241.93 402.008C242.611 402.008 243.201 401.827 243.746 401.509C244.291 401.191 244.791 400.737 245.108 400.147C245.426 399.602 245.608 398.92 245.608 398.33C245.608 397.649 245.426 397.059 245.108 396.468C244.791 395.878 244.337 395.424 243.746 395.106C243.156 394.743 242.52 394.607 241.93 394.607ZM240.023 400.691V395.969H241.657C242.202 395.969 242.611 396.014 242.883 396.06C243.156 396.151 243.338 396.287 243.474 396.559C243.655 396.786 243.701 397.013 243.701 397.24C243.701 397.558 243.61 397.922 243.338 398.103C243.065 398.376 242.793 398.466 242.339 398.557C242.52 398.603 242.611 398.739 242.702 398.83C242.883 399.011 243.156 399.329 243.428 399.783L243.973 400.737H243.02L242.566 399.965C242.248 399.42 241.975 399.011 241.748 398.875C241.567 398.784 241.43 398.693 241.158 398.693H240.704V400.737H240.023V400.691ZM240.795 398.058H241.748C242.202 398.058 242.52 398.012 242.611 397.831C242.793 397.74 242.883 397.513 242.883 397.286C242.883 397.104 242.838 397.013 242.793 396.923C242.747 396.832 242.611 396.741 242.475 396.65C242.293 396.605 242.112 396.605 241.703 396.605H240.84V398.058H240.795Z" fill="#3069B3"/>
<rect x="474" y="6" width="80" height="80" rx="16" fill="#F2F2F3"/>
<rect x="492" y="24" width="44" height="44" fill="#D92727"/>
<path d="M515.347 58.9C514.204 58.9 513.061 58.7766 511.962 58.5297C508.138 57.7069 504.798 55.4853 502.732 52.3587C498.424 45.8584 500.534 37.3424 507.479 33.2694C508.05 32.9403 508.754 33.1049 509.105 33.6397C509.457 34.1334 509.281 34.8328 508.71 35.1619C502.908 38.5766 501.106 45.735 504.754 51.2067C506.512 53.8397 509.281 55.691 512.49 56.3904C515.699 57.0898 519.083 56.5961 521.896 54.9505C522.468 54.6214 523.171 54.7859 523.523 55.3208C523.874 55.8556 523.698 56.5138 523.127 56.843C520.797 58.2006 518.072 58.9 515.347 58.9Z" fill="white"/>
<path fill-rule="evenodd" clip-rule="evenodd" d="M507.63 33.5289C500.826 37.5196 498.775 45.8442 502.982 52.1929C505.002 55.2503 508.274 57.4292 512.026 58.2364L512.028 58.237C513.105 58.4789 514.226 58.6 515.347 58.6C518.022 58.6 520.695 57.9132 522.976 56.5838L522.977 56.583C523.411 56.3333 523.521 55.8651 523.272 55.4856C523.01 55.0872 522.484 54.9587 522.047 55.2099C519.166 56.8947 515.705 57.3982 512.426 56.6835C509.145 55.9684 506.308 54.0739 504.504 51.3733C500.755 45.7497 502.616 38.4001 508.558 34.9034L508.56 34.9019C508.997 34.65 509.097 34.1455 508.861 33.8138L508.858 33.8092L508.855 33.8045C508.593 33.4062 508.067 33.2776 507.63 33.5289ZM509.353 33.4703C508.911 32.803 508.033 32.6041 507.329 33.0095L507.327 33.0107C500.242 37.1659 498.074 45.873 502.482 52.5244C504.593 55.7198 508.003 57.9842 511.898 58.8227C513.019 59.0744 514.183 59.2 515.347 59.2C518.122 59.2 520.899 58.4881 523.277 57.1026C523.986 56.6939 524.227 55.8459 523.773 55.156C523.332 54.4849 522.452 54.2843 521.746 54.6905L521.745 54.6916C518.999 56.2976 515.692 56.7813 512.554 56.0973C509.418 55.4137 506.717 53.6056 505.004 51.0403C501.457 45.7209 503.199 38.754 508.861 35.4211C509.564 35.0154 509.815 34.125 509.353 33.4703Z" fill="white"/>
<path d="M526.269 54.7287C526.949 54.7287 527.5 54.2129 527.5 53.5767C527.5 52.9405 526.949 52.4248 526.269 52.4248C525.589 52.4248 525.038 52.9405 525.038 53.5767C525.038 54.2129 525.589 54.7287 526.269 54.7287Z" fill="white"/>
<path fill-rule="evenodd" clip-rule="evenodd" d="M526.269 52.7248C525.736 52.7248 525.338 53.1246 525.338 53.5767C525.338 54.0289 525.736 54.4287 526.269 54.4287C526.802 54.4287 527.2 54.0289 527.2 53.5767C527.2 53.1246 526.802 52.7248 526.269 52.7248ZM524.738 53.5767C524.738 52.7565 525.442 52.1248 526.269 52.1248C527.095 52.1248 527.8 52.7565 527.8 53.5767C527.8 54.397 527.095 55.0287 526.269 55.0287C525.442 55.0287 524.738 54.397 524.738 53.5767Z" fill="white"/>
<rect x="3" y="388" width="88" height="88" rx="16" fill="#E8F7E8"/>
<path fill-rule="evenodd" clip-rule="evenodd" d="M58.05 458.545L57.9252 410.561C57.602 410.238 56.9716 410.335 56.7252 410.407L55.0836 410.916C54.881 410.249 54.618 409.602 54.298 408.983C53.1332 406.759 51.4308 405.583 49.37 405.58H49.3636C49.226 405.58 49.09 405.593 48.9524 405.604L48.9364 405.606C48.8768 405.532 48.8149 405.461 48.7508 405.391C47.8548 404.431 46.7028 403.962 45.3236 404.002C42.6644 404.079 40.0164 406.002 37.8676 409.418C36.3556 411.823 35.2084 414.842 34.8804 417.18L29.6436 418.804C28.1028 419.289 28.0548 419.337 27.8516 420.791C27.6996 421.892 23.666 453.122 23.666 453.122L57.4708 458.975L58.05 458.543V458.545ZM46.9748 406.196C46.5252 405.9 45.9988 405.762 45.3748 405.775C41.2692 405.894 37.6884 412.314 36.7748 416.593L40.7076 415.374L41.41 415.156C41.9252 412.439 43.218 409.62 44.9092 407.806C45.5005 407.155 46.1986 406.611 46.9732 406.196H46.9748ZM43.354 414.553L48.9988 412.802C49.0164 411.33 48.8564 409.154 48.1204 407.618C47.3364 407.942 46.6772 408.508 46.2036 409.015C44.9348 410.38 43.8996 412.462 43.3556 414.553H43.354ZM50.7668 412.255L53.3908 411.441C52.9716 410.078 51.9764 407.793 49.9588 407.409C50.586 409.03 50.7476 410.906 50.7668 412.255Z" fill="#95BF47"/>
<path d="M65.6243 414.13C65.4227 414.114 61.5155 414.054 61.5155 414.054C61.5155 414.054 58.2467 410.876 57.9235 410.551C57.7984 410.436 57.6398 410.363 57.4707 410.343V458.967L72.1187 455.321C72.1187 455.321 66.1411 414.855 66.1027 414.578C66.0842 414.461 66.0269 414.353 65.9399 414.272C65.8529 414.19 65.7413 414.141 65.6227 414.13H65.6243Z" fill="#5E8E3E"/>
<path d="M49.3538 421.681L47.6514 428.055C47.6514 428.055 45.7538 427.19 43.5026 427.332C40.2034 427.54 40.1682 429.625 40.2018 430.148C40.381 432.996 47.8706 433.62 48.2914 440.297C48.6226 445.55 45.509 449.145 41.0226 449.426C35.6386 449.767 32.6738 446.586 32.6738 446.586L33.8146 441.726C33.8146 441.726 36.7986 443.98 39.1858 443.828C40.7474 443.73 41.3042 442.46 41.2482 441.561C41.013 437.844 34.9138 438.062 34.5282 431.953C34.205 426.809 37.5762 421.601 45.0178 421.13C47.885 420.948 49.3538 421.682 49.3538 421.682" fill="white"/>
<rect x="492" y="264" width="56" height="56" rx="16" fill="#E8F7E8"/>
<path d="M526 286H524C524 283.79 522.21 282 520 282C517.79 282 516 283.79 516 286H514C512.9 286 512 286.9 512 288V300C512 301.1 512.9 302 514 302H526C527.1 302 528 301.1 528 300V288C528 286.9 527.1 286 526 286ZM520 284C521.1 284 522 284.9 522 286H518C518 284.9 518.9 284 520 284ZM526 300H514V288H516V290C516 290.55 516.45 291 517 291C517.55 291 518 290.55 518 290V288H522V290C522 290.55 522.45 291 523 291C523.55 291 524 290.55 524 290V288H526V300Z" fill="#307368"/>
<g filter="url(#filter0_d_7821_17316)">
<rect x="175.5" y="188" width="226" height="68" rx="16" fill="#E8F7E8" shape-rendering="crispEdges"/>
<path d="M213.506 211.636V232H209.817V211.636H213.506ZM220.941 223.051V232H217.342V216.727H220.782V219.322H220.961C221.312 218.467 221.872 217.788 222.641 217.284C223.417 216.78 224.375 216.528 225.515 216.528C226.569 216.528 227.487 216.754 228.269 217.205C229.058 217.655 229.668 218.308 230.099 219.163C230.536 220.018 230.752 221.056 230.745 222.276V232H227.146V222.832C227.146 221.812 226.88 221.013 226.35 220.436C225.826 219.859 225.101 219.571 224.173 219.571C223.543 219.571 222.983 219.71 222.492 219.989C222.008 220.26 221.627 220.655 221.349 221.172C221.077 221.689 220.941 222.315 220.941 223.051ZM242.031 216.727V219.511H233.251V216.727H242.031ZM235.418 213.068H239.018V227.406C239.018 227.89 239.091 228.261 239.237 228.52C239.389 228.772 239.588 228.944 239.833 229.037C240.078 229.13 240.35 229.176 240.648 229.176C240.874 229.176 241.079 229.16 241.265 229.126C241.457 229.093 241.603 229.063 241.702 229.037L242.309 231.851C242.117 231.917 241.842 231.99 241.484 232.07C241.132 232.149 240.701 232.196 240.191 232.209C239.29 232.235 238.478 232.099 237.755 231.801C237.032 231.496 236.459 231.026 236.035 230.389C235.617 229.753 235.412 228.957 235.418 228.003V213.068ZM251.638 232.298C250.107 232.298 248.784 231.98 247.671 231.344C246.564 230.701 245.712 229.793 245.115 228.619C244.519 227.439 244.221 226.051 244.221 224.453C244.221 222.882 244.519 221.503 245.115 220.317C245.719 219.124 246.56 218.196 247.641 217.533C248.721 216.863 249.991 216.528 251.449 216.528C252.391 216.528 253.279 216.681 254.114 216.986C254.956 217.284 255.698 217.748 256.341 218.378C256.991 219.008 257.501 219.81 257.873 220.784C258.244 221.752 258.429 222.905 258.429 224.244V225.348H245.911V222.922H254.979C254.972 222.232 254.823 221.619 254.532 221.082C254.24 220.539 253.832 220.111 253.309 219.8C252.792 219.488 252.188 219.332 251.499 219.332C250.763 219.332 250.117 219.511 249.56 219.869C249.003 220.221 248.569 220.685 248.257 221.261C247.953 221.831 247.797 222.458 247.79 223.141V225.259C247.79 226.147 247.953 226.909 248.277 227.545C248.602 228.175 249.056 228.659 249.64 228.997C250.223 229.329 250.906 229.494 251.688 229.494C252.212 229.494 252.685 229.421 253.11 229.276C253.534 229.123 253.902 228.901 254.213 228.609C254.525 228.318 254.76 227.956 254.919 227.526L258.28 227.903C258.068 228.792 257.664 229.567 257.067 230.23C256.477 230.886 255.721 231.397 254.8 231.761C253.879 232.119 252.825 232.298 251.638 232.298ZM268.116 238.045C266.824 238.045 265.714 237.87 264.786 237.518C263.857 237.174 263.112 236.71 262.548 236.126C261.985 235.543 261.594 234.897 261.375 234.188L264.616 233.402C264.762 233.7 264.974 233.995 265.253 234.287C265.531 234.585 265.906 234.83 266.376 235.023C266.854 235.222 267.454 235.321 268.176 235.321C269.197 235.321 270.042 235.072 270.712 234.575C271.381 234.085 271.716 233.276 271.716 232.149V229.256H271.537C271.351 229.627 271.08 230.008 270.722 230.399C270.37 230.79 269.903 231.118 269.32 231.384C268.743 231.649 268.017 231.781 267.142 231.781C265.969 231.781 264.905 231.506 263.95 230.956C263.002 230.399 262.247 229.571 261.683 228.47C261.126 227.363 260.848 225.978 260.848 224.314C260.848 222.637 261.126 221.222 261.683 220.068C262.247 218.908 263.006 218.03 263.96 217.433C264.915 216.83 265.979 216.528 267.152 216.528C268.047 216.528 268.783 216.681 269.359 216.986C269.943 217.284 270.407 217.645 270.751 218.07C271.096 218.487 271.358 218.882 271.537 219.253H271.736V216.727H275.286V232.249C275.286 233.554 274.974 234.635 274.351 235.49C273.728 236.345 272.876 236.985 271.795 237.409C270.715 237.833 269.489 238.045 268.116 238.045ZM268.146 228.957C268.909 228.957 269.558 228.772 270.095 228.401C270.632 228.029 271.04 227.496 271.318 226.8C271.597 226.104 271.736 225.268 271.736 224.294C271.736 223.333 271.597 222.491 271.318 221.768C271.046 221.046 270.642 220.486 270.105 220.088C269.575 219.684 268.922 219.482 268.146 219.482C267.344 219.482 266.675 219.69 266.138 220.108C265.601 220.526 265.196 221.099 264.925 221.828C264.653 222.551 264.517 223.373 264.517 224.294C264.517 225.229 264.653 226.047 264.925 226.75C265.203 227.446 265.611 227.99 266.148 228.381C266.691 228.765 267.357 228.957 268.146 228.957ZM278.974 232V216.727H282.464V219.273H282.624C282.902 218.391 283.379 217.712 284.055 217.234C284.738 216.75 285.517 216.509 286.392 216.509C286.591 216.509 286.813 216.518 287.058 216.538C287.31 216.552 287.519 216.575 287.685 216.608V219.919C287.532 219.866 287.29 219.82 286.959 219.78C286.634 219.733 286.319 219.71 286.014 219.71C285.358 219.71 284.768 219.853 284.244 220.138C283.727 220.416 283.32 220.804 283.021 221.301C282.723 221.798 282.574 222.372 282.574 223.021V232H278.974ZM294.197 232.308C293.23 232.308 292.358 232.136 291.582 231.791C290.813 231.44 290.204 230.923 289.753 230.24C289.309 229.557 289.087 228.715 289.087 227.714C289.087 226.853 289.246 226.14 289.564 225.577C289.882 225.013 290.316 224.562 290.866 224.224C291.417 223.886 292.036 223.631 292.726 223.459C293.422 223.28 294.141 223.151 294.884 223.071C295.778 222.978 296.504 222.895 297.061 222.822C297.618 222.743 298.022 222.624 298.274 222.464C298.533 222.299 298.662 222.044 298.662 221.699V221.639C298.662 220.89 298.44 220.31 297.996 219.899C297.552 219.488 296.912 219.283 296.077 219.283C295.195 219.283 294.496 219.475 293.979 219.859C293.468 220.244 293.124 220.698 292.945 221.222L289.584 220.744C289.849 219.816 290.286 219.041 290.896 218.418C291.506 217.788 292.252 217.317 293.134 217.006C294.015 216.688 294.99 216.528 296.057 216.528C296.793 216.528 297.525 216.615 298.254 216.787C298.983 216.959 299.65 217.244 300.253 217.642C300.856 218.033 301.34 218.567 301.705 219.243C302.076 219.919 302.261 220.764 302.261 221.778V232H298.801V229.902H298.682C298.463 230.326 298.155 230.724 297.757 231.095C297.366 231.46 296.872 231.755 296.276 231.98C295.686 232.199 294.993 232.308 294.197 232.308ZM295.132 229.663C295.855 229.663 296.481 229.521 297.011 229.236C297.542 228.944 297.949 228.56 298.234 228.082C298.526 227.605 298.672 227.085 298.672 226.521V224.722C298.559 224.814 298.367 224.901 298.095 224.98C297.83 225.06 297.532 225.129 297.2 225.189C296.869 225.249 296.541 225.302 296.216 225.348C295.891 225.394 295.609 225.434 295.371 225.467C294.834 225.54 294.353 225.66 293.929 225.825C293.505 225.991 293.17 226.223 292.925 226.521C292.679 226.813 292.557 227.191 292.557 227.655C292.557 228.318 292.799 228.818 293.283 229.156C293.767 229.494 294.383 229.663 295.132 229.663ZM312.543 232.298C311.018 232.298 309.709 231.964 308.615 231.294C307.528 230.625 306.689 229.7 306.099 228.52C305.516 227.333 305.224 225.968 305.224 224.423C305.224 222.872 305.523 221.503 306.119 220.317C306.716 219.124 307.558 218.196 308.645 217.533C309.739 216.863 311.031 216.528 312.523 216.528C313.762 216.528 314.859 216.757 315.814 217.214C316.775 217.665 317.541 218.305 318.111 219.134C318.681 219.955 319.006 220.917 319.085 222.017H315.645C315.506 221.281 315.174 220.668 314.651 220.178C314.134 219.68 313.441 219.432 312.572 219.432C311.837 219.432 311.19 219.631 310.634 220.028C310.077 220.42 309.643 220.983 309.331 221.719C309.026 222.455 308.874 223.336 308.874 224.364C308.874 225.404 309.026 226.299 309.331 227.048C309.636 227.791 310.063 228.364 310.614 228.768C311.17 229.166 311.823 229.365 312.572 229.365C313.103 229.365 313.577 229.266 313.994 229.067C314.419 228.861 314.773 228.566 315.058 228.182C315.343 227.797 315.539 227.33 315.645 226.78H319.085C318.999 227.86 318.681 228.818 318.131 229.653C317.58 230.482 316.831 231.132 315.884 231.602C314.936 232.066 313.822 232.298 312.543 232.298ZM311.509 231.92H313.457L313.298 232.766C313.921 232.858 314.448 233.097 314.879 233.482C315.317 233.873 315.536 234.433 315.536 235.162C315.542 236.103 315.121 236.859 314.273 237.429C313.424 237.999 312.214 238.284 310.643 238.284L310.604 236.514C311.366 236.514 311.973 236.411 312.423 236.206C312.874 236.007 313.103 235.689 313.109 235.251C313.123 234.827 312.964 234.516 312.632 234.317C312.307 234.125 311.79 233.992 311.081 233.919L311.509 231.92ZM328.703 232.298C327.211 232.298 325.919 231.97 324.825 231.314C323.731 230.658 322.883 229.74 322.279 228.56C321.683 227.38 321.385 226.001 321.385 224.423C321.385 222.846 321.683 221.464 322.279 220.277C322.883 219.09 323.731 218.169 324.825 217.513C325.919 216.857 327.211 216.528 328.703 216.528C330.194 216.528 331.487 216.857 332.581 217.513C333.674 218.169 334.52 219.09 335.116 220.277C335.719 221.464 336.021 222.846 336.021 224.423C336.021 226.001 335.719 227.38 335.116 228.56C334.52 229.74 333.674 230.658 332.581 231.314C331.487 231.97 330.194 232.298 328.703 232.298ZM328.723 229.415C329.531 229.415 330.208 229.193 330.751 228.749C331.295 228.298 331.699 227.695 331.964 226.939C332.236 226.183 332.372 225.341 332.372 224.413C332.372 223.479 332.236 222.634 331.964 221.878C331.699 221.116 331.295 220.509 330.751 220.058C330.208 219.607 329.531 219.382 328.723 219.382C327.894 219.382 327.205 219.607 326.654 220.058C326.111 220.509 325.703 221.116 325.431 221.878C325.166 222.634 325.034 223.479 325.034 224.413C325.034 225.341 325.166 226.183 325.431 226.939C325.703 227.695 326.111 228.298 326.654 228.749C327.205 229.193 327.894 229.415 328.723 229.415ZM325.779 214.868L323.602 214.818C323.602 213.638 323.907 212.714 324.517 212.044C325.127 211.375 325.879 211.04 326.774 211.04C327.205 211.04 327.579 211.113 327.897 211.259C328.216 211.398 328.507 211.56 328.772 211.746C329.044 211.931 329.309 212.097 329.568 212.243C329.826 212.382 330.111 212.452 330.423 212.452C330.801 212.452 331.099 212.309 331.318 212.024C331.543 211.739 331.659 211.375 331.666 210.93L333.804 211.02C333.797 212.206 333.489 213.128 332.879 213.784C332.269 214.434 331.52 214.762 330.632 214.768C330.154 214.775 329.753 214.705 329.429 214.56C329.104 214.414 328.819 214.248 328.574 214.062C328.335 213.877 328.093 213.714 327.848 213.575C327.602 213.429 327.314 213.357 326.983 213.357C326.631 213.357 326.343 213.496 326.118 213.774C325.892 214.053 325.779 214.417 325.779 214.868ZM345.837 232.298C344.306 232.298 342.984 231.98 341.87 231.344C340.763 230.701 339.911 229.793 339.315 228.619C338.718 227.439 338.42 226.051 338.42 224.453C338.42 222.882 338.718 221.503 339.315 220.317C339.918 219.124 340.76 218.196 341.84 217.533C342.921 216.863 344.19 216.528 345.648 216.528C346.59 216.528 347.478 216.681 348.313 216.986C349.155 217.284 349.897 217.748 350.54 218.378C351.19 219.008 351.701 219.81 352.072 220.784C352.443 221.752 352.629 222.905 352.629 224.244V225.348H340.11V222.922H349.178C349.172 222.232 349.022 221.619 348.731 221.082C348.439 220.539 348.031 220.111 347.508 219.8C346.991 219.488 346.388 219.332 345.698 219.332C344.962 219.332 344.316 219.511 343.759 219.869C343.202 220.221 342.768 220.685 342.457 221.261C342.152 221.831 341.996 222.458 341.989 223.141V225.259C341.989 226.147 342.152 226.909 342.477 227.545C342.801 228.175 343.255 228.659 343.839 228.997C344.422 229.329 345.105 229.494 345.887 229.494C346.411 229.494 346.885 229.421 347.309 229.276C347.733 229.123 348.101 228.901 348.413 228.609C348.724 228.318 348.96 227.956 349.119 227.526L352.479 227.903C352.267 228.792 351.863 229.567 351.266 230.23C350.676 230.886 349.921 231.397 348.999 231.761C348.078 232.119 347.024 232.298 345.837 232.298ZM367.745 220.764L364.463 221.122C364.371 220.791 364.208 220.479 363.976 220.188C363.751 219.896 363.446 219.661 363.061 219.482C362.677 219.303 362.206 219.213 361.65 219.213C360.9 219.213 360.271 219.375 359.76 219.7C359.257 220.025 359.008 220.446 359.015 220.963C359.008 221.407 359.17 221.768 359.502 222.047C359.84 222.325 360.397 222.554 361.172 222.733L363.777 223.29C365.222 223.601 366.296 224.095 366.999 224.771C367.708 225.447 368.066 226.332 368.073 227.426C368.066 228.387 367.784 229.236 367.228 229.972C366.677 230.701 365.912 231.271 364.931 231.682C363.95 232.093 362.823 232.298 361.55 232.298C359.681 232.298 358.176 231.907 357.036 231.125C355.896 230.336 355.216 229.239 354.998 227.834L358.507 227.496C358.667 228.185 359.005 228.705 359.522 229.057C360.039 229.408 360.712 229.584 361.54 229.584C362.395 229.584 363.081 229.408 363.598 229.057C364.122 228.705 364.384 228.271 364.384 227.754C364.384 227.317 364.215 226.955 363.877 226.67C363.545 226.385 363.028 226.167 362.326 226.014L359.721 225.467C358.256 225.162 357.172 224.649 356.469 223.926C355.766 223.197 355.418 222.276 355.425 221.162C355.418 220.221 355.674 219.405 356.191 218.716C356.714 218.02 357.44 217.483 358.368 217.105C359.303 216.721 360.38 216.528 361.6 216.528C363.39 216.528 364.798 216.91 365.826 217.672C366.86 218.434 367.499 219.465 367.745 220.764Z" fill="#307368"/>
</g>
<path d="M404.75 221.25C404.336 221.25 404 221.586 404 222C404 222.414 404.336 222.75 404.75 222.75V221.25ZM519.302 80.6144C519.009 80.3216 518.534 80.3216 518.241 80.6144L513.468 85.3874C513.176 85.6803 513.176 86.1552 513.468 86.4481C513.761 86.741 514.236 86.741 514.529 86.4481L518.772 82.2054L523.014 86.4481C523.307 86.741 523.782 86.741 524.075 86.4481C524.368 86.1552 524.368 85.6803 524.075 85.3874L519.302 80.6144ZM404.75 222.75H494.772V221.25H404.75V222.75ZM519.522 198V81.1448H518.022V198H519.522ZM494.772 222.75C508.441 222.75 519.522 211.669 519.522 198H518.022C518.022 210.841 507.612 221.25 494.772 221.25V222.75Z" fill="#8F9396"/>
<path d="M172.25 222.75C172.664 222.75 173 222.414 173 222C173 221.586 172.664 221.25 172.25 221.25V222.75ZM46.4697 385.28C46.7626 385.573 47.2374 385.573 47.5303 385.28L52.3033 380.507C52.5962 380.214 52.5962 379.74 52.3033 379.447C52.0104 379.154 51.5355 379.154 51.2426 379.447L47 383.689L42.7574 379.447C42.4645 379.154 41.9896 379.154 41.6967 379.447C41.4038 379.74 41.4038 380.214 41.6967 380.507L46.4697 385.28ZM172.25 221.25H71V222.75H172.25V221.25ZM46.25 246V384.75H47.75V246H46.25ZM71 221.25C57.331 221.25 46.25 232.331 46.25 246H47.75C47.75 233.159 58.1594 222.75 71 222.75V221.25Z" fill="#8F9396"/>
<path d="M287.75 184.75C287.75 185.164 288.086 185.5 288.5 185.5C288.914 185.5 289.25 185.164 289.25 184.75H287.75ZM190.53 88.7197C190.237 88.4268 189.763 88.4268 189.47 88.7197L184.697 93.4926C184.404 93.7855 184.404 94.2604 184.697 94.5533C184.99 94.8462 185.464 94.8462 185.757 94.5533L190 90.3107L194.243 94.5533C194.536 94.8462 195.01 94.8462 195.303 94.5533C195.596 94.2604 195.596 93.7855 195.303 93.4926L190.53 88.7197ZM289.25 184.75V161H287.75V184.75H289.25ZM264.5 136.25H214V137.75H264.5V136.25ZM190.75 113V89.25H189.25V113H190.75ZM214 136.25C201.159 136.25 190.75 125.841 190.75 113H189.25C189.25 126.669 200.331 137.75 214 137.75V136.25ZM289.25 161C289.25 147.331 278.169 136.25 264.5 136.25V137.75C277.341 137.75 287.75 148.159 287.75 161H289.25Z" fill="#8F9396"/>
<path d="M289.25 259.25C289.25 258.836 288.914 258.5 288.5 258.5C288.086 258.5 287.75 258.836 287.75 259.25H289.25ZM386.47 355.28C386.763 355.573 387.237 355.573 387.53 355.28L392.303 350.507C392.596 350.214 392.596 349.74 392.303 349.447C392.01 349.154 391.536 349.154 391.243 349.447L387 353.689L382.757 349.447C382.464 349.154 381.99 349.154 381.697 349.447C381.404 349.74 381.404 350.214 381.697 350.507L386.47 355.28ZM287.75 259.25V283H289.25V259.25H287.75ZM312.5 307.75H363V306.25H312.5V307.75ZM386.25 331V354.75H387.75V331H386.25ZM363 307.75C375.841 307.75 386.25 318.159 386.25 331H387.75C387.75 317.331 376.669 306.25 363 306.25V307.75ZM287.75 283C287.75 296.669 298.831 307.75 312.5 307.75V306.25C299.659 306.25 289.25 295.841 289.25 283H287.75Z" fill="#8F9396"/>
<defs>
<filter id="filter0_d_7821_17316" x="167.5" y="184" width="242" height="84" filterUnits="userSpaceOnUse" color-interpolation-filters="sRGB">
<feFlood flood-opacity="0" result="BackgroundImageFix"/>
<feColorMatrix in="SourceAlpha" type="matrix" values="0 0 0 0 0 0 0 0 0 0 0 0 0 0 0 0 0 0 127 0" result="hardAlpha"/>
<feOffset dy="4"/>
<feGaussianBlur stdDeviation="4"/>
<feComposite in2="hardAlpha" operator="out"/>
<feColorMatrix type="matrix" values="0 0 0 0 0 0 0 0 0 0 0 0 0 0 0 0 0 0 0.2 0"/>
<feBlend mode="normal" in2="BackgroundImageFix" result="effect1_dropShadow_7821_17316"/>
<feBlend mode="normal" in="SourceGraphic" in2="effect1_dropShadow_7821_17316" result="shape"/>
</filter>
</defs>
</svg>
