<svg width="600" height="450" viewBox="0 0 600 450" fill="none" xmlns="http://www.w3.org/2000/svg">
<rect x="40" y="86" width="172" height="89" rx="8" fill="#E2F0FF"/>
<path fill-rule="evenodd" clip-rule="evenodd" d="M61.3333 119.833C59.8605 119.833 58.6666 121.027 58.6666 122.5V134.5C58.6666 135.973 59.8605 137.167 61.3333 137.167H62.6666V138.5C62.6666 139.967 63.8666 141.167 65.3333 141.167H82.6666C84.1333 141.167 85.3333 139.967 85.3333 138.5V126.5C85.3333 125.033 84.1333 123.833 82.6666 123.833H81.3333V122.5C81.3333 121.027 80.1394 119.833 78.6666 119.833H61.3333ZM78.6666 123.833V122.5L61.3333 122.5V134.5H62.6666V126.5C62.6666 125.033 63.8666 123.833 65.3333 123.833H78.6666ZM74 130.5L82.6666 126.5H65.3333L74 130.5ZM65.3333 129.167V138.5H82.6666V129.167L74 133.167L65.3333 129.167Z" fill="#1E75BA"/>
<path d="M96.6165 112.141V110.818H104.496V112.141H101.32V121H99.7884V112.141H96.6165ZM108.228 121.154C107.512 121.154 106.887 120.99 106.353 120.662C105.82 120.334 105.405 119.875 105.11 119.285C104.815 118.695 104.668 118.005 104.668 117.217C104.668 116.424 104.815 115.732 105.11 115.138C105.405 114.545 105.82 114.085 106.353 113.756C106.887 113.428 107.512 113.264 108.228 113.264C108.944 113.264 109.568 113.428 110.102 113.756C110.636 114.085 111.05 114.545 111.345 115.138C111.64 115.732 111.787 116.424 111.787 117.217C111.787 118.005 111.64 118.695 111.345 119.285C111.05 119.875 110.636 120.334 110.102 120.662C109.568 120.99 108.944 121.154 108.228 121.154ZM108.233 119.906C108.697 119.906 109.081 119.784 109.386 119.538C109.691 119.293 109.916 118.967 110.062 118.559C110.211 118.151 110.286 117.702 110.286 117.212C110.286 116.724 110.211 116.277 110.062 115.869C109.916 115.458 109.691 115.129 109.386 114.88C109.081 114.631 108.697 114.507 108.233 114.507C107.765 114.507 107.377 114.631 107.069 114.88C106.764 115.129 106.537 115.458 106.388 115.869C106.242 116.277 106.169 116.724 106.169 117.212C106.169 117.702 106.242 118.151 106.388 118.559C106.537 118.967 106.764 119.293 107.069 119.538C107.377 119.784 107.765 119.906 108.233 119.906ZM117.011 113.364V114.557H112.84V113.364H117.011ZM113.959 111.534H115.445V118.758C115.445 119.046 115.488 119.263 115.574 119.409C115.661 119.552 115.772 119.649 115.907 119.702C116.047 119.752 116.198 119.777 116.36 119.777C116.479 119.777 116.584 119.769 116.673 119.752C116.763 119.736 116.832 119.722 116.882 119.712L117.15 120.94C117.064 120.973 116.942 121.007 116.782 121.04C116.623 121.076 116.425 121.096 116.186 121.099C115.795 121.106 115.43 121.036 115.092 120.891C114.754 120.745 114.481 120.519 114.272 120.214C114.063 119.91 113.959 119.527 113.959 119.066V111.534ZM120.878 121.169C120.394 121.169 119.956 121.08 119.565 120.901C119.174 120.718 118.864 120.455 118.636 120.11C118.41 119.765 118.298 119.343 118.298 118.842C118.298 118.411 118.38 118.057 118.546 117.778C118.712 117.5 118.936 117.28 119.217 117.117C119.499 116.955 119.814 116.832 120.162 116.749C120.51 116.666 120.865 116.603 121.226 116.56C121.683 116.507 122.054 116.464 122.339 116.431C122.625 116.395 122.832 116.337 122.961 116.257C123.09 116.178 123.155 116.048 123.155 115.869V115.835C123.155 115.4 123.032 115.064 122.787 114.825C122.545 114.587 122.184 114.467 121.703 114.467C121.203 114.467 120.808 114.578 120.52 114.8C120.235 115.019 120.038 115.263 119.928 115.531L118.531 115.213C118.697 114.749 118.939 114.375 119.257 114.089C119.579 113.801 119.948 113.592 120.366 113.463C120.783 113.33 121.223 113.264 121.683 113.264C121.988 113.264 122.311 113.301 122.653 113.374C122.997 113.443 123.319 113.572 123.617 113.761C123.919 113.95 124.166 114.22 124.358 114.572C124.55 114.92 124.646 115.372 124.646 115.929V121H123.195V119.956H123.135C123.039 120.148 122.895 120.337 122.702 120.523C122.51 120.708 122.263 120.862 121.962 120.985C121.66 121.108 121.299 121.169 120.878 121.169ZM121.201 119.976C121.612 119.976 121.963 119.895 122.255 119.732C122.55 119.57 122.774 119.358 122.926 119.096C123.082 118.831 123.16 118.547 123.16 118.246V117.261C123.107 117.314 123.004 117.364 122.852 117.411C122.702 117.454 122.532 117.492 122.339 117.525C122.147 117.555 121.96 117.583 121.778 117.609C121.595 117.633 121.443 117.652 121.32 117.669C121.032 117.705 120.768 117.767 120.53 117.853C120.295 117.939 120.106 118.063 119.963 118.226C119.824 118.385 119.754 118.597 119.754 118.862C119.754 119.23 119.89 119.509 120.162 119.697C120.434 119.883 120.78 119.976 121.201 119.976ZM128.113 110.818V121H126.626V110.818H128.113ZM133.937 121V110.818H140.32V112.141H135.473V115.243H139.987V116.56H135.473V119.678H140.38V121H133.937ZM142.253 121V113.364H143.68V114.607H143.775C143.934 114.186 144.194 113.857 144.555 113.622C144.916 113.384 145.349 113.264 145.853 113.264C146.363 113.264 146.791 113.384 147.135 113.622C147.483 113.861 147.74 114.189 147.906 114.607H147.985C148.168 114.199 148.458 113.874 148.855 113.632C149.253 113.387 149.727 113.264 150.277 113.264C150.97 113.264 151.535 113.481 151.973 113.915C152.413 114.35 152.634 115.004 152.634 115.879V121H151.147V116.018C151.147 115.501 151.007 115.127 150.725 114.895C150.443 114.663 150.107 114.547 149.716 114.547C149.232 114.547 148.855 114.696 148.587 114.994C148.319 115.289 148.184 115.669 148.184 116.133V121H146.703V115.924C146.703 115.51 146.574 115.177 146.315 114.925C146.056 114.673 145.72 114.547 145.306 114.547C145.024 114.547 144.764 114.621 144.525 114.771C144.29 114.916 144.099 115.12 143.953 115.382C143.811 115.644 143.74 115.947 143.74 116.292V121H142.253ZM156.849 121.169C156.365 121.169 155.927 121.08 155.536 120.901C155.145 120.718 154.835 120.455 154.606 120.11C154.381 119.765 154.268 119.343 154.268 118.842C154.268 118.411 154.351 118.057 154.517 117.778C154.683 117.5 154.906 117.28 155.188 117.117C155.47 116.955 155.785 116.832 156.133 116.749C156.481 116.666 156.835 116.603 157.197 116.56C157.654 116.507 158.025 116.464 158.31 116.431C158.595 116.395 158.802 116.337 158.932 116.257C159.061 116.178 159.126 116.048 159.126 115.869V115.835C159.126 115.4 159.003 115.064 158.758 114.825C158.516 114.587 158.154 114.467 157.674 114.467C157.173 114.467 156.779 114.578 156.491 114.8C156.206 115.019 156.008 115.263 155.899 115.531L154.502 115.213C154.668 114.749 154.91 114.375 155.228 114.089C155.549 113.801 155.919 113.592 156.336 113.463C156.754 113.33 157.193 113.264 157.654 113.264C157.959 113.264 158.282 113.301 158.623 113.374C158.968 113.443 159.29 113.572 159.588 113.761C159.89 113.95 160.136 114.22 160.329 114.572C160.521 114.92 160.617 115.372 160.617 115.929V121H159.165V119.956H159.106C159.01 120.148 158.865 120.337 158.673 120.523C158.481 120.708 158.234 120.862 157.932 120.985C157.631 121.108 157.269 121.169 156.849 121.169ZM157.172 119.976C157.583 119.976 157.934 119.895 158.226 119.732C158.521 119.57 158.744 119.358 158.897 119.096C159.053 118.831 159.131 118.547 159.131 118.246V117.261C159.077 117.314 158.975 117.364 158.822 117.411C158.673 117.454 158.502 117.492 158.31 117.525C158.118 117.555 157.931 117.583 157.748 117.609C157.566 117.633 157.414 117.652 157.291 117.669C157.003 117.705 156.739 117.767 156.501 117.853C156.265 117.939 156.076 118.063 155.934 118.226C155.795 118.385 155.725 118.597 155.725 118.862C155.725 119.23 155.861 119.509 156.133 119.697C156.404 119.883 156.751 119.976 157.172 119.976ZM162.597 121V113.364H164.083V121H162.597ZM163.348 112.185C163.089 112.185 162.867 112.099 162.681 111.927C162.499 111.751 162.408 111.542 162.408 111.3C162.408 111.055 162.499 110.846 162.681 110.674C162.867 110.498 163.089 110.411 163.348 110.411C163.606 110.411 163.827 110.498 164.009 110.674C164.194 110.846 164.287 111.055 164.287 111.3C164.287 111.542 164.194 111.751 164.009 111.927C163.827 112.099 163.606 112.185 163.348 112.185ZM167.57 110.818V121H166.083V110.818H167.57ZM175.292 115.228L173.945 115.467C173.888 115.294 173.799 115.13 173.676 114.974C173.557 114.819 173.394 114.691 173.189 114.592C172.983 114.492 172.727 114.442 172.418 114.442C171.997 114.442 171.646 114.537 171.364 114.726C171.083 114.911 170.942 115.152 170.942 115.447C170.942 115.702 171.036 115.907 171.225 116.063C171.414 116.219 171.719 116.347 172.14 116.446L173.353 116.724C174.056 116.887 174.579 117.137 174.924 117.475C175.269 117.813 175.441 118.252 175.441 118.793C175.441 119.25 175.308 119.658 175.043 120.016C174.781 120.37 174.415 120.649 173.945 120.851C173.477 121.053 172.935 121.154 172.319 121.154C171.464 121.154 170.766 120.972 170.226 120.607C169.686 120.239 169.354 119.717 169.232 119.041L170.668 118.822C170.758 119.197 170.942 119.48 171.22 119.673C171.499 119.862 171.862 119.956 172.309 119.956C172.796 119.956 173.186 119.855 173.477 119.653C173.769 119.447 173.915 119.197 173.915 118.902C173.915 118.663 173.825 118.463 173.646 118.3C173.471 118.138 173.201 118.015 172.836 117.933L171.543 117.649C170.831 117.487 170.304 117.228 169.962 116.874C169.624 116.519 169.455 116.07 169.455 115.526C169.455 115.076 169.581 114.681 169.833 114.343C170.085 114.005 170.433 113.741 170.877 113.553C171.321 113.36 171.83 113.264 172.403 113.264C173.229 113.264 173.878 113.443 174.352 113.801C174.826 114.156 175.139 114.631 175.292 115.228Z" fill="#1E75BA"/>
<path d="M97.1506 145.932V143.026L104.438 131.545H106.943V135.568H105.46L100.866 142.838V142.974H111.222V145.932H97.1506ZM105.528 149V145.045L105.597 143.759V131.545H109.057V149H105.528ZM114.371 149L121.607 134.682V134.562H113.178V131.545H125.425V134.605L118.18 149H114.371ZM127.11 149.222C126.548 149.222 126.065 149.023 125.661 148.625C125.263 148.222 125.065 147.739 125.065 147.176C125.065 146.619 125.263 146.142 125.661 145.744C126.065 145.347 126.548 145.148 127.11 145.148C127.656 145.148 128.133 145.347 128.542 145.744C128.951 146.142 129.156 146.619 129.156 147.176C129.156 147.551 129.059 147.895 128.866 148.207C128.678 148.514 128.431 148.761 128.124 148.949C127.817 149.131 127.479 149.222 127.11 149.222ZM138.089 131.307C138.987 131.307 139.851 131.457 140.68 131.759C141.516 132.06 142.26 132.54 142.913 133.199C143.572 133.858 144.092 134.733 144.473 135.824C144.859 136.909 145.055 138.241 145.061 139.821C145.061 141.304 144.893 142.628 144.558 143.793C144.229 144.952 143.754 145.938 143.135 146.75C142.516 147.562 141.768 148.182 140.893 148.608C140.018 149.028 139.041 149.239 137.962 149.239C136.797 149.239 135.768 149.014 134.876 148.565C133.984 148.111 133.266 147.494 132.72 146.716C132.18 145.932 131.854 145.051 131.74 144.074H135.379C135.521 144.71 135.82 145.205 136.274 145.557C136.729 145.903 137.291 146.077 137.962 146.077C139.098 146.077 139.962 145.582 140.553 144.594C141.143 143.599 141.442 142.239 141.447 140.511H141.328C141.067 141.023 140.714 141.463 140.271 141.832C139.828 142.196 139.32 142.477 138.746 142.676C138.178 142.875 137.572 142.974 136.93 142.974C135.902 142.974 134.984 142.733 134.178 142.25C133.371 141.767 132.734 141.102 132.268 140.256C131.803 139.409 131.57 138.443 131.57 137.358C131.564 136.188 131.834 135.145 132.379 134.23C132.925 133.315 133.686 132.599 134.663 132.082C135.646 131.56 136.788 131.301 138.089 131.307ZM138.115 134.205C137.541 134.205 137.03 134.341 136.581 134.614C136.138 134.886 135.786 135.253 135.524 135.713C135.268 136.173 135.143 136.687 135.149 137.256C135.149 137.83 135.274 138.347 135.524 138.807C135.78 139.261 136.126 139.625 136.564 139.898C137.007 140.165 137.513 140.298 138.081 140.298C138.507 140.298 138.902 140.219 139.266 140.06C139.629 139.901 139.945 139.682 140.212 139.403C140.484 139.119 140.697 138.793 140.851 138.423C141.004 138.054 141.081 137.662 141.081 137.247C141.075 136.696 140.945 136.19 140.689 135.73C140.433 135.27 140.081 134.901 139.632 134.622C139.183 134.344 138.678 134.205 138.115 134.205ZM150.942 145.233L150.95 140.878H151.479L155.672 135.909H159.839L154.206 142.489H153.345L150.942 145.233ZM147.652 149V131.545H151.283V149H147.652ZM155.834 149L151.982 143.298L154.402 140.733L160.087 149H155.834Z" fill="#1E75BA"/>
<rect x="388" y="177" width="172" height="89" rx="8" fill="#F9EAE5"/>
<path d="M430.667 210.833H409.333C407.867 210.833 406.68 212.033 406.68 213.5L406.667 229.5C406.667 230.967 407.867 232.167 409.333 232.167H420V229.5H409.333V216.167L420 222.833L430.667 216.167V222.833H433.333V213.5C433.333 212.033 432.133 210.833 430.667 210.833ZM420 220.167L409.333 213.5H430.667L420 220.167Z" fill="#CC5229"/>
<path d="M428.148 227.76L424.848 224.46L422.962 226.345L426.262 229.645L422.962 232.945L424.848 234.831L428.148 231.531L431.448 234.831L433.333 232.945L430.033 229.645L433.333 226.346L431.448 224.46L428.148 227.76Z" fill="#CC5229"/>
<path d="M453.119 212V201.818H459.433V203.141H454.655V206.243H458.98V207.56H454.655V212H453.119ZM463.397 212.169C462.913 212.169 462.476 212.08 462.085 211.901C461.694 211.718 461.384 211.455 461.155 211.11C460.93 210.765 460.817 210.343 460.817 209.842C460.817 209.411 460.9 209.057 461.066 208.778C461.231 208.5 461.455 208.28 461.737 208.117C462.019 207.955 462.333 207.832 462.681 207.749C463.029 207.666 463.384 207.603 463.745 207.56C464.203 207.507 464.574 207.464 464.859 207.431C465.144 207.395 465.351 207.337 465.48 207.257C465.61 207.178 465.674 207.048 465.674 206.869V206.835C465.674 206.4 465.552 206.064 465.306 205.825C465.065 205.587 464.703 205.467 464.223 205.467C463.722 205.467 463.328 205.578 463.039 205.8C462.754 206.019 462.557 206.263 462.448 206.531L461.051 206.213C461.217 205.749 461.458 205.375 461.777 205.089C462.098 204.801 462.468 204.592 462.885 204.463C463.303 204.33 463.742 204.264 464.203 204.264C464.508 204.264 464.831 204.301 465.172 204.374C465.517 204.443 465.838 204.572 466.137 204.761C466.438 204.95 466.685 205.22 466.877 205.572C467.07 205.92 467.166 206.372 467.166 206.929V212H465.714V210.956H465.654C465.558 211.148 465.414 211.337 465.222 211.523C465.03 211.708 464.783 211.862 464.481 211.985C464.18 212.108 463.818 212.169 463.397 212.169ZM463.721 210.976C464.132 210.976 464.483 210.895 464.775 210.732C465.069 210.57 465.293 210.358 465.446 210.096C465.601 209.831 465.679 209.547 465.679 209.246V208.261C465.626 208.314 465.524 208.364 465.371 208.411C465.222 208.454 465.051 208.492 464.859 208.525C464.667 208.555 464.48 208.583 464.297 208.609C464.115 208.633 463.962 208.652 463.84 208.669C463.551 208.705 463.288 208.767 463.049 208.853C462.814 208.939 462.625 209.063 462.483 209.226C462.343 209.385 462.274 209.597 462.274 209.862C462.274 210.23 462.41 210.509 462.681 210.697C462.953 210.883 463.3 210.976 463.721 210.976ZM469.146 212V204.364H470.632V212H469.146ZM469.896 203.185C469.638 203.185 469.416 203.099 469.23 202.927C469.048 202.751 468.957 202.542 468.957 202.3C468.957 202.055 469.048 201.846 469.23 201.674C469.416 201.498 469.638 201.411 469.896 201.411C470.155 201.411 470.375 201.498 470.558 201.674C470.743 201.846 470.836 202.055 470.836 202.3C470.836 202.542 470.743 202.751 470.558 202.927C470.375 203.099 470.155 203.185 469.896 203.185ZM474.119 201.818V212H472.632V201.818H474.119ZM479.41 212.154C478.657 212.154 478.009 211.993 477.466 211.672C476.925 211.347 476.508 210.891 476.213 210.305C475.921 209.715 475.775 209.024 475.775 208.232C475.775 207.449 475.921 206.76 476.213 206.163C476.508 205.567 476.919 205.101 477.446 204.766C477.976 204.432 478.596 204.264 479.305 204.264C479.736 204.264 480.154 204.335 480.558 204.478C480.962 204.621 481.325 204.844 481.647 205.149C481.968 205.454 482.222 205.85 482.407 206.337C482.593 206.821 482.686 207.41 482.686 208.102V208.629H476.616V207.516H481.229C481.229 207.125 481.15 206.778 480.991 206.477C480.831 206.172 480.608 205.931 480.319 205.756C480.034 205.58 479.7 205.492 479.315 205.492C478.898 205.492 478.533 205.595 478.221 205.8C477.913 206.003 477.675 206.268 477.506 206.596C477.34 206.921 477.257 207.274 477.257 207.655V208.525C477.257 209.035 477.346 209.469 477.525 209.827C477.708 210.185 477.961 210.459 478.286 210.648C478.611 210.833 478.99 210.926 479.425 210.926C479.706 210.926 479.963 210.886 480.195 210.807C480.427 210.724 480.628 210.601 480.797 210.439C480.966 210.277 481.095 210.076 481.184 209.837L482.591 210.091C482.479 210.505 482.277 210.868 481.985 211.18C481.697 211.488 481.334 211.728 480.896 211.901C480.462 212.07 479.966 212.154 479.41 212.154ZM487.194 212.149C486.577 212.149 486.027 211.992 485.543 211.677C485.063 211.359 484.685 210.906 484.41 210.32C484.138 209.73 484.002 209.022 484.002 208.197C484.002 207.371 484.14 206.665 484.415 206.079C484.693 205.492 485.074 205.043 485.558 204.732C486.042 204.42 486.591 204.264 487.204 204.264C487.678 204.264 488.059 204.344 488.347 204.503C488.639 204.659 488.864 204.841 489.023 205.05C489.186 205.259 489.312 205.442 489.401 205.602H489.491V201.818H490.977V212H489.526V210.812H489.401C489.312 210.974 489.183 211.16 489.013 211.369C488.848 211.577 488.619 211.76 488.327 211.915C488.036 212.071 487.658 212.149 487.194 212.149ZM487.522 210.881C487.95 210.881 488.311 210.769 488.606 210.543C488.904 210.315 489.129 209.998 489.282 209.594C489.438 209.189 489.516 208.719 489.516 208.182C489.516 207.652 489.439 207.187 489.287 206.79C489.134 206.392 488.911 206.082 488.616 205.86C488.321 205.638 487.956 205.527 487.522 205.527C487.075 205.527 486.702 205.643 486.403 205.875C486.105 206.107 485.88 206.424 485.727 206.825C485.578 207.226 485.504 207.678 485.504 208.182C485.504 208.692 485.58 209.151 485.732 209.559C485.885 209.967 486.11 210.29 486.408 210.528C486.71 210.764 487.081 210.881 487.522 210.881Z" fill="#CC5229"/>
<path d="M453.415 240V237.341L459.628 231.588C460.156 231.077 460.599 230.616 460.957 230.207C461.321 229.798 461.597 229.398 461.784 229.006C461.972 228.608 462.065 228.179 462.065 227.719C462.065 227.207 461.949 226.767 461.716 226.398C461.483 226.023 461.165 225.736 460.761 225.537C460.358 225.332 459.901 225.23 459.389 225.23C458.855 225.23 458.389 225.338 457.991 225.554C457.594 225.77 457.287 226.08 457.071 226.483C456.855 226.886 456.747 227.366 456.747 227.923H453.244C453.244 226.781 453.503 225.79 454.02 224.949C454.537 224.108 455.261 223.457 456.193 222.997C457.125 222.537 458.199 222.307 459.415 222.307C460.665 222.307 461.753 222.528 462.679 222.972C463.611 223.409 464.335 224.017 464.852 224.795C465.369 225.574 465.628 226.466 465.628 227.472C465.628 228.131 465.497 228.781 465.236 229.423C464.98 230.065 464.523 230.778 463.864 231.562C463.205 232.341 462.276 233.276 461.077 234.366L458.528 236.864V236.983H465.858V240H453.415ZM470.688 240.222C470.126 240.222 469.643 240.023 469.239 239.625C468.842 239.222 468.643 238.739 468.643 238.176C468.643 237.619 468.842 237.142 469.239 236.744C469.643 236.347 470.126 236.148 470.688 236.148C471.234 236.148 471.711 236.347 472.12 236.744C472.529 237.142 472.734 237.619 472.734 238.176C472.734 238.551 472.637 238.895 472.444 239.207C472.256 239.514 472.009 239.761 471.702 239.949C471.396 240.131 471.058 240.222 470.688 240.222ZM481.57 240.239C480.297 240.239 479.163 240.02 478.169 239.582C477.18 239.139 476.399 238.531 475.825 237.759C475.257 236.98 474.964 236.082 474.947 235.065H478.663C478.686 235.491 478.825 235.866 479.081 236.19C479.342 236.509 479.689 236.756 480.121 236.932C480.553 237.108 481.038 237.196 481.578 237.196C482.141 237.196 482.638 237.097 483.07 236.898C483.501 236.699 483.839 236.423 484.084 236.071C484.328 235.719 484.45 235.312 484.45 234.852C484.45 234.386 484.32 233.974 484.058 233.616C483.803 233.253 483.433 232.969 482.95 232.764C482.473 232.56 481.905 232.457 481.246 232.457H479.618V229.747H481.246C481.803 229.747 482.294 229.651 482.72 229.457C483.152 229.264 483.487 228.997 483.726 228.656C483.964 228.31 484.084 227.906 484.084 227.446C484.084 227.009 483.979 226.625 483.768 226.295C483.564 225.96 483.274 225.699 482.899 225.511C482.53 225.324 482.098 225.23 481.604 225.23C481.104 225.23 480.646 225.321 480.232 225.503C479.817 225.679 479.484 225.932 479.234 226.261C478.984 226.591 478.851 226.977 478.834 227.42H475.297C475.314 226.415 475.601 225.528 476.158 224.761C476.714 223.994 477.464 223.395 478.408 222.963C479.357 222.526 480.428 222.307 481.621 222.307C482.825 222.307 483.879 222.526 484.783 222.963C485.686 223.401 486.388 223.991 486.888 224.736C487.393 225.474 487.643 226.304 487.638 227.224C487.643 228.202 487.339 229.017 486.726 229.67C486.118 230.324 485.325 230.739 484.348 230.915V231.051C485.632 231.216 486.609 231.662 487.28 232.389C487.956 233.111 488.291 234.014 488.286 235.099C488.291 236.094 488.004 236.977 487.425 237.75C486.851 238.523 486.058 239.131 485.047 239.574C484.036 240.017 482.876 240.239 481.57 240.239ZM494.262 236.233L494.271 231.878H494.799L498.992 226.909H503.16L497.526 233.489H496.665L494.262 236.233ZM490.972 240V222.545H494.603V240H490.972ZM499.154 240L495.302 234.298L497.722 231.733L503.407 240H499.154Z" fill="#CC5229"/>
<rect x="214" y="177" width="172" height="89" rx="8" fill="#EFEAE3"/>
<path d="M256.667 210.833H235.333C233.867 210.833 232.68 212.033 232.68 213.5L232.667 229.5C232.667 230.967 233.867 232.167 235.333 232.167H246V229.5H235.333V216.167L246 222.833L256.667 216.167V222.833H259.333V213.5C259.333 212.033 258.133 210.833 256.667 210.833ZM246 220.167L235.333 213.5H256.667L246 220.167Z" fill="#DE8644"/>
<path d="M260.667 229.5L255.333 224.167V228.167H248.667V230.833H255.333V234.833L260.667 229.5Z" fill="#DE8644"/>
<path d="M287.575 205.129H286.024C285.964 204.798 285.853 204.506 285.691 204.254C285.529 204.002 285.33 203.789 285.094 203.613C284.859 203.437 284.596 203.305 284.304 203.215C284.016 203.126 283.709 203.081 283.384 203.081C282.798 203.081 282.272 203.228 281.808 203.523C281.348 203.818 280.983 204.251 280.714 204.821C280.449 205.391 280.317 206.087 280.317 206.909C280.317 207.738 280.449 208.437 280.714 209.007C280.983 209.577 281.349 210.008 281.813 210.3C282.277 210.591 282.799 210.737 283.379 210.737C283.701 210.737 284.006 210.694 284.294 210.608C284.586 210.518 284.849 210.388 285.085 210.215C285.32 210.043 285.519 209.832 285.681 209.584C285.847 209.332 285.961 209.044 286.024 208.719L287.575 208.724C287.492 209.224 287.332 209.685 287.093 210.106C286.858 210.523 286.554 210.885 286.183 211.19C285.815 211.491 285.394 211.725 284.92 211.891C284.446 212.056 283.929 212.139 283.369 212.139C282.488 212.139 281.702 211.93 281.013 211.513C280.323 211.092 279.78 210.49 279.382 209.708C278.988 208.926 278.79 207.993 278.79 206.909C278.79 205.822 278.989 204.889 279.387 204.11C279.785 203.328 280.328 202.728 281.018 202.31C281.707 201.889 282.491 201.679 283.369 201.679C283.91 201.679 284.413 201.757 284.881 201.913C285.351 202.065 285.774 202.29 286.148 202.589C286.523 202.884 286.833 203.245 287.078 203.673C287.323 204.097 287.489 204.582 287.575 205.129ZM290.781 201.818V212H289.294V201.818H290.781ZM292.781 212V204.364H294.267V212H292.781ZM293.531 203.185C293.273 203.185 293.051 203.099 292.865 202.927C292.683 202.751 292.592 202.542 292.592 202.3C292.592 202.055 292.683 201.846 292.865 201.674C293.051 201.498 293.273 201.411 293.531 201.411C293.79 201.411 294.01 201.498 294.192 201.674C294.378 201.846 294.471 202.055 294.471 202.3C294.471 202.542 294.378 202.751 294.192 202.927C294.01 203.099 293.79 203.185 293.531 203.185ZM299.483 212.154C298.744 212.154 298.108 211.987 297.574 211.652C297.044 211.314 296.636 210.848 296.351 210.255C296.066 209.662 295.924 208.982 295.924 208.217C295.924 207.441 296.07 206.757 296.361 206.163C296.653 205.567 297.064 205.101 297.594 204.766C298.125 204.432 298.749 204.264 299.469 204.264C300.049 204.264 300.566 204.372 301.02 204.587C301.474 204.799 301.84 205.098 302.118 205.482C302.4 205.867 302.568 206.316 302.621 206.83H301.174C301.094 206.472 300.912 206.163 300.627 205.905C300.345 205.646 299.967 205.517 299.493 205.517C299.079 205.517 298.716 205.626 298.405 205.845C298.096 206.061 297.856 206.369 297.684 206.77C297.511 207.168 297.425 207.638 297.425 208.182C297.425 208.739 297.51 209.219 297.679 209.624C297.848 210.028 298.086 210.341 298.395 210.563C298.706 210.785 299.073 210.896 299.493 210.896C299.775 210.896 300.03 210.845 300.259 210.742C300.491 210.636 300.685 210.485 300.841 210.29C301 210.094 301.111 209.859 301.174 209.584H302.621C302.568 210.078 302.407 210.518 302.138 210.906C301.87 211.294 301.51 211.599 301.059 211.821C300.612 212.043 300.087 212.154 299.483 212.154ZM305.577 209.41L305.567 207.595H305.826L308.869 204.364H310.648L307.178 208.043H306.945L305.577 209.41ZM304.21 212V201.818H305.697V212H304.21ZM309.033 212L306.298 208.371L307.322 207.332L310.857 212H309.033ZM314.98 212.154C314.228 212.154 313.58 211.993 313.036 211.672C312.496 211.347 312.078 210.891 311.783 210.305C311.492 209.715 311.346 209.024 311.346 208.232C311.346 207.449 311.492 206.76 311.783 206.163C312.078 205.567 312.489 205.101 313.016 204.766C313.546 204.432 314.166 204.264 314.876 204.264C315.306 204.264 315.724 204.335 316.128 204.478C316.533 204.621 316.896 204.844 317.217 205.149C317.539 205.454 317.792 205.85 317.978 206.337C318.163 206.821 318.256 207.41 318.256 208.102V208.629H312.186V207.516H316.8C316.8 207.125 316.72 206.778 316.561 206.477C316.402 206.172 316.178 205.931 315.89 205.756C315.605 205.58 315.27 205.492 314.885 205.492C314.468 205.492 314.103 205.595 313.792 205.8C313.483 206.003 313.245 206.268 313.076 206.596C312.91 206.921 312.827 207.274 312.827 207.655V208.525C312.827 209.035 312.917 209.469 313.096 209.827C313.278 210.185 313.532 210.459 313.856 210.648C314.181 210.833 314.561 210.926 314.995 210.926C315.277 210.926 315.533 210.886 315.765 210.807C315.997 210.724 316.198 210.601 316.367 210.439C316.536 210.277 316.665 210.076 316.755 209.837L318.162 210.091C318.049 210.505 317.847 210.868 317.555 211.18C317.267 211.488 316.904 211.728 316.466 211.901C316.032 212.07 315.537 212.154 314.98 212.154ZM322.764 212.149C322.148 212.149 321.598 211.992 321.114 211.677C320.633 211.359 320.255 210.906 319.98 210.32C319.708 209.73 319.572 209.022 319.572 208.197C319.572 207.371 319.71 206.665 319.985 206.079C320.263 205.492 320.645 205.043 321.129 204.732C321.612 204.42 322.161 204.264 322.774 204.264C323.248 204.264 323.629 204.344 323.918 204.503C324.209 204.659 324.435 204.841 324.594 205.05C324.756 205.259 324.882 205.442 324.972 205.602H325.061V201.818H326.548V212H325.096V210.812H324.972C324.882 210.974 324.753 211.16 324.584 211.369C324.418 211.577 324.189 211.76 323.898 211.915C323.606 212.071 323.228 212.149 322.764 212.149ZM323.092 210.881C323.52 210.881 323.881 210.769 324.176 210.543C324.474 210.315 324.7 209.998 324.852 209.594C325.008 209.189 325.086 208.719 325.086 208.182C325.086 207.652 325.01 207.187 324.857 206.79C324.705 206.392 324.481 206.082 324.186 205.86C323.891 205.638 323.527 205.527 323.092 205.527C322.645 205.527 322.272 205.643 321.974 205.875C321.675 206.107 321.45 206.424 321.298 206.825C321.148 207.226 321.074 207.678 321.074 208.182C321.074 208.692 321.15 209.151 321.303 209.559C321.455 209.967 321.68 210.29 321.979 210.528C322.28 210.764 322.652 210.881 323.092 210.881Z" fill="#DE8644"/>
<path d="M285.926 240.239C284.614 240.239 283.446 240.026 282.423 239.599C281.406 239.168 280.608 238.58 280.028 237.835C279.449 237.091 279.159 236.247 279.159 235.304C279.159 234.577 279.324 233.909 279.653 233.301C279.989 232.688 280.443 232.179 281.017 231.776C281.591 231.366 282.233 231.105 282.943 230.991V230.872C282.011 230.685 281.256 230.233 280.676 229.517C280.097 228.795 279.807 227.957 279.807 227.003C279.807 226.099 280.071 225.295 280.599 224.591C281.128 223.881 281.852 223.324 282.773 222.92C283.699 222.511 284.75 222.307 285.926 222.307C287.102 222.307 288.151 222.511 289.071 222.92C289.997 223.33 290.724 223.889 291.253 224.599C291.781 225.304 292.048 226.105 292.054 227.003C292.048 227.963 291.753 228.801 291.168 229.517C290.582 230.233 289.832 230.685 288.918 230.872V230.991C289.616 231.105 290.25 231.366 290.818 231.776C291.392 232.179 291.847 232.688 292.182 233.301C292.523 233.909 292.696 234.577 292.702 235.304C292.696 236.247 292.403 237.091 291.824 237.835C291.244 238.58 290.443 239.168 289.42 239.599C288.403 240.026 287.239 240.239 285.926 240.239ZM285.926 237.528C286.511 237.528 287.023 237.423 287.46 237.213C287.898 236.997 288.239 236.702 288.483 236.327C288.733 235.946 288.858 235.509 288.858 235.014C288.858 234.509 288.73 234.062 288.474 233.676C288.219 233.284 287.872 232.977 287.435 232.756C286.997 232.528 286.494 232.415 285.926 232.415C285.364 232.415 284.861 232.528 284.418 232.756C283.974 232.977 283.625 233.284 283.369 233.676C283.119 234.062 282.994 234.509 282.994 235.014C282.994 235.509 283.116 235.946 283.361 236.327C283.605 236.702 283.949 236.997 284.392 237.213C284.835 237.423 285.347 237.528 285.926 237.528ZM285.926 229.73C286.415 229.73 286.849 229.631 287.23 229.432C287.611 229.233 287.909 228.957 288.125 228.605C288.341 228.253 288.449 227.847 288.449 227.386C288.449 226.932 288.341 226.534 288.125 226.193C287.909 225.847 287.614 225.577 287.239 225.384C286.864 225.185 286.426 225.085 285.926 225.085C285.432 225.085 284.994 225.185 284.614 225.384C284.233 225.577 283.935 225.847 283.719 226.193C283.509 226.534 283.403 226.932 283.403 227.386C283.403 227.847 283.511 228.253 283.727 228.605C283.943 228.957 284.241 229.233 284.622 229.432C285.003 229.631 285.438 229.73 285.926 229.73ZM296.946 240.222C296.384 240.222 295.901 240.023 295.497 239.625C295.099 239.222 294.901 238.739 294.901 238.176C294.901 237.619 295.099 237.142 295.497 236.744C295.901 236.347 296.384 236.148 296.946 236.148C297.491 236.148 297.969 236.347 298.378 236.744C298.787 237.142 298.991 237.619 298.991 238.176C298.991 238.551 298.895 238.895 298.702 239.207C298.514 239.514 298.267 239.761 297.96 239.949C297.653 240.131 297.315 240.222 296.946 240.222ZM301.938 240V237.341L308.151 231.588C308.68 231.077 309.123 230.616 309.481 230.207C309.844 229.798 310.12 229.398 310.308 229.006C310.495 228.608 310.589 228.179 310.589 227.719C310.589 227.207 310.472 226.767 310.239 226.398C310.006 226.023 309.688 225.736 309.285 225.537C308.881 225.332 308.424 225.23 307.913 225.23C307.379 225.23 306.913 225.338 306.515 225.554C306.117 225.77 305.81 226.08 305.594 226.483C305.379 226.886 305.271 227.366 305.271 227.923H301.768C301.768 226.781 302.026 225.79 302.543 224.949C303.06 224.108 303.785 223.457 304.717 222.997C305.648 222.537 306.722 222.307 307.938 222.307C309.188 222.307 310.276 222.528 311.202 222.972C312.134 223.409 312.859 224.017 313.376 224.795C313.893 225.574 314.151 226.466 314.151 227.472C314.151 228.131 314.021 228.781 313.759 229.423C313.504 230.065 313.046 230.778 312.387 231.562C311.728 232.341 310.799 233.276 309.6 234.366L307.052 236.864V236.983H314.381V240H301.938ZM320.379 236.233L320.388 231.878H320.916L325.109 226.909H329.277L323.643 233.489H322.783L320.379 236.233ZM317.089 240V222.545H320.72V240H317.089ZM325.271 240L321.419 234.298L323.839 231.733L329.524 240H325.271Z" fill="#DE8644"/>
<rect x="40" y="268" width="172" height="89" rx="8" fill="#E8F7E8"/>
<path d="M82.6666 301.833H61.3333C59.8666 301.833 58.68 303.033 58.68 304.5L58.6666 320.5C58.6666 321.967 59.8666 323.167 61.3333 323.167H72V320.5H61.3333V307.167L72 313.833L82.6666 307.167V313.833H85.3333V304.5C85.3333 303.033 84.1333 301.833 82.6666 301.833ZM72 311.167L61.3333 304.5H82.6666L72 311.167ZM79.12 325.833L74.4 321.113L76.28 319.233L79.1066 322.06L84.76 316.407L86.6666 318.287L79.12 325.833Z" fill="#29A653"/>
<path d="M108.415 303H105.119V292.818H108.519C109.517 292.818 110.374 293.022 111.089 293.43C111.805 293.834 112.354 294.416 112.735 295.175C113.12 295.93 113.312 296.837 113.312 297.894C113.312 298.955 113.118 299.866 112.73 300.629C112.346 301.391 111.789 301.978 111.06 302.388C110.33 302.796 109.449 303 108.415 303ZM106.655 301.658H108.33C109.106 301.658 109.75 301.512 110.264 301.22C110.778 300.925 111.162 300.499 111.418 299.942C111.673 299.382 111.8 298.7 111.8 297.894C111.8 297.095 111.673 296.418 111.418 295.861C111.166 295.304 110.79 294.881 110.289 294.593C109.789 294.305 109.167 294.161 108.425 294.161H106.655V301.658ZM118.394 303.154C117.642 303.154 116.994 302.993 116.45 302.672C115.91 302.347 115.492 301.891 115.197 301.305C114.906 300.715 114.76 300.024 114.76 299.232C114.76 298.449 114.906 297.76 115.197 297.163C115.492 296.567 115.903 296.101 116.43 295.766C116.961 295.432 117.58 295.264 118.29 295.264C118.72 295.264 119.138 295.335 119.542 295.478C119.947 295.621 120.31 295.844 120.631 296.149C120.953 296.454 121.206 296.85 121.392 297.337C121.577 297.821 121.67 298.41 121.67 299.102V299.629H115.6V298.516H120.214C120.214 298.125 120.134 297.778 119.975 297.477C119.816 297.172 119.592 296.931 119.304 296.756C119.019 296.58 118.684 296.492 118.3 296.492C117.882 296.492 117.517 296.595 117.206 296.8C116.898 297.003 116.659 297.268 116.49 297.596C116.324 297.921 116.241 298.274 116.241 298.655V299.525C116.241 300.035 116.331 300.469 116.51 300.827C116.692 301.185 116.946 301.459 117.27 301.648C117.595 301.833 117.975 301.926 118.409 301.926C118.691 301.926 118.948 301.886 119.18 301.807C119.412 301.724 119.612 301.601 119.781 301.439C119.95 301.277 120.079 301.076 120.169 300.837L121.576 301.091C121.463 301.505 121.261 301.868 120.969 302.18C120.681 302.488 120.318 302.728 119.881 302.901C119.446 303.07 118.951 303.154 118.394 303.154ZM124.806 292.818V303H123.32V292.818H124.806ZM126.806 303V295.364H128.292V303H126.806ZM127.557 294.185C127.298 294.185 127.076 294.099 126.89 293.927C126.708 293.751 126.617 293.542 126.617 293.3C126.617 293.055 126.708 292.846 126.89 292.674C127.076 292.498 127.298 292.411 127.557 292.411C127.815 292.411 128.036 292.498 128.218 292.674C128.403 292.846 128.496 293.055 128.496 293.3C128.496 293.542 128.403 293.751 128.218 293.927C128.036 294.099 127.815 294.185 127.557 294.185ZM136.825 295.364L134.056 303H132.465L129.691 295.364H131.287L133.221 301.24H133.3L135.229 295.364H136.825ZM141.253 303.154C140.501 303.154 139.853 302.993 139.309 302.672C138.769 302.347 138.352 301.891 138.057 301.305C137.765 300.715 137.619 300.024 137.619 299.232C137.619 298.449 137.765 297.76 138.057 297.163C138.352 296.567 138.763 296.101 139.29 295.766C139.82 295.432 140.44 295.264 141.149 295.264C141.58 295.264 141.997 295.335 142.402 295.478C142.806 295.621 143.169 295.844 143.491 296.149C143.812 296.454 144.066 296.85 144.251 297.337C144.437 297.821 144.53 298.41 144.53 299.102V299.629H138.459V298.516H143.073C143.073 298.125 142.993 297.778 142.834 297.477C142.675 297.172 142.452 296.931 142.163 296.756C141.878 296.58 141.543 296.492 141.159 296.492C140.741 296.492 140.377 296.595 140.065 296.8C139.757 297.003 139.518 297.268 139.349 297.596C139.184 297.921 139.101 298.274 139.101 298.655V299.525C139.101 300.035 139.19 300.469 139.369 300.827C139.551 301.185 139.805 301.459 140.13 301.648C140.455 301.833 140.834 301.926 141.268 301.926C141.55 301.926 141.807 301.886 142.039 301.807C142.271 301.724 142.471 301.601 142.64 301.439C142.809 301.277 142.939 301.076 143.028 300.837L144.435 301.091C144.323 301.505 144.12 301.868 143.829 302.18C143.54 302.488 143.177 302.728 142.74 302.901C142.306 303.07 141.81 303.154 141.253 303.154ZM146.179 303V295.364H147.616V296.577H147.695C147.835 296.166 148.08 295.843 148.431 295.607C148.786 295.369 149.187 295.249 149.634 295.249C149.727 295.249 149.836 295.253 149.962 295.259C150.092 295.266 150.193 295.274 150.266 295.284V296.706C150.206 296.689 150.1 296.671 149.947 296.651C149.795 296.628 149.643 296.616 149.49 296.616C149.139 296.616 148.826 296.691 148.55 296.84C148.279 296.986 148.063 297.19 147.904 297.452C147.745 297.71 147.665 298.005 147.665 298.337V303H146.179ZM154.57 303.154C153.817 303.154 153.169 302.993 152.626 302.672C152.086 302.347 151.668 301.891 151.373 301.305C151.081 300.715 150.936 300.024 150.936 299.232C150.936 298.449 151.081 297.76 151.373 297.163C151.668 296.567 152.079 296.101 152.606 295.766C153.136 295.432 153.756 295.264 154.465 295.264C154.896 295.264 155.314 295.335 155.718 295.478C156.123 295.621 156.485 295.844 156.807 296.149C157.128 296.454 157.382 296.85 157.568 297.337C157.753 297.821 157.846 298.41 157.846 299.102V299.629H151.776V298.516H156.389C156.389 298.125 156.31 297.778 156.151 297.477C155.992 297.172 155.768 296.931 155.48 296.756C155.195 296.58 154.86 296.492 154.475 296.492C154.058 296.492 153.693 296.595 153.382 296.8C153.073 297.003 152.835 297.268 152.666 297.596C152.5 297.921 152.417 298.274 152.417 298.655V299.525C152.417 300.035 152.507 300.469 152.686 300.827C152.868 301.185 153.121 301.459 153.446 301.648C153.771 301.833 154.151 301.926 154.585 301.926C154.866 301.926 155.123 301.886 155.355 301.807C155.587 301.724 155.788 301.601 155.957 301.439C156.126 301.277 156.255 301.076 156.345 300.837L157.752 301.091C157.639 301.505 157.437 301.868 157.145 302.18C156.857 302.488 156.494 302.728 156.056 302.901C155.622 303.07 155.127 303.154 154.57 303.154ZM162.354 303.149C161.738 303.149 161.187 302.992 160.703 302.677C160.223 302.359 159.845 301.906 159.57 301.32C159.298 300.73 159.162 300.022 159.162 299.197C159.162 298.371 159.3 297.665 159.575 297.079C159.853 296.492 160.234 296.043 160.718 295.732C161.202 295.42 161.751 295.264 162.364 295.264C162.838 295.264 163.219 295.344 163.507 295.503C163.799 295.659 164.025 295.841 164.184 296.05C164.346 296.259 164.472 296.442 164.561 296.602H164.651V292.818H166.137V303H164.686V301.812H164.561C164.472 301.974 164.343 302.16 164.174 302.369C164.008 302.577 163.779 302.76 163.488 302.915C163.196 303.071 162.818 303.149 162.354 303.149ZM162.682 301.881C163.11 301.881 163.471 301.769 163.766 301.543C164.064 301.315 164.29 300.998 164.442 300.594C164.598 300.189 164.676 299.719 164.676 299.182C164.676 298.652 164.6 298.187 164.447 297.79C164.295 297.392 164.071 297.082 163.776 296.86C163.481 296.638 163.116 296.527 162.682 296.527C162.235 296.527 161.862 296.643 161.564 296.875C161.265 297.107 161.04 297.424 160.887 297.825C160.738 298.226 160.664 298.678 160.664 299.182C160.664 299.692 160.74 300.151 160.892 300.559C161.045 300.967 161.27 301.29 161.569 301.528C161.87 301.764 162.241 301.881 162.682 301.881Z" fill="#29A653"/>
<path d="M105.151 327.932V325.026L112.438 313.545H114.943V317.568H113.46L108.866 324.838V324.974H119.222V327.932H105.151ZM113.528 331V327.045L113.597 325.759V313.545H117.057V331H113.528ZM128.055 331.239C126.851 331.239 125.777 331.017 124.834 330.574C123.896 330.131 123.152 329.52 122.601 328.741C122.05 327.963 121.763 327.071 121.74 326.065H125.32C125.359 326.741 125.643 327.29 126.172 327.71C126.7 328.131 127.328 328.341 128.055 328.341C128.635 328.341 129.146 328.213 129.589 327.957C130.038 327.696 130.388 327.335 130.638 326.875C130.893 326.409 131.021 325.875 131.021 325.273C131.021 324.659 130.891 324.119 130.629 323.653C130.374 323.187 130.018 322.824 129.564 322.562C129.109 322.301 128.589 322.168 128.004 322.162C127.493 322.162 126.996 322.267 126.513 322.477C126.036 322.687 125.663 322.974 125.396 323.338L122.115 322.75L122.942 313.545H133.612V316.562H125.984L125.533 320.935H125.635C125.942 320.503 126.405 320.145 127.024 319.861C127.643 319.577 128.337 319.435 129.104 319.435C130.155 319.435 131.092 319.682 131.916 320.176C132.74 320.67 133.391 321.349 133.868 322.213C134.345 323.071 134.581 324.06 134.575 325.179C134.581 326.355 134.308 327.401 133.757 328.315C133.212 329.224 132.447 329.94 131.464 330.463C130.487 330.98 129.351 331.239 128.055 331.239ZM138.743 331.222C138.18 331.222 137.697 331.023 137.294 330.625C136.896 330.222 136.697 329.739 136.697 329.176C136.697 328.619 136.896 328.142 137.294 327.744C137.697 327.347 138.18 327.148 138.743 327.148C139.288 327.148 139.766 327.347 140.175 327.744C140.584 328.142 140.788 328.619 140.788 329.176C140.788 329.551 140.692 329.895 140.499 330.207C140.311 330.514 140.064 330.761 139.757 330.949C139.45 331.131 139.112 331.222 138.743 331.222ZM149.731 331.239C148.833 331.233 147.967 331.082 147.131 330.787C146.302 330.491 145.558 330.011 144.898 329.347C144.239 328.682 143.717 327.801 143.33 326.705C142.95 325.608 142.759 324.261 142.759 322.665C142.765 321.199 142.933 319.889 143.262 318.736C143.597 317.577 144.075 316.594 144.694 315.787C145.319 314.98 146.066 314.366 146.935 313.946C147.805 313.52 148.779 313.307 149.859 313.307C151.023 313.307 152.052 313.534 152.944 313.989C153.836 314.437 154.552 315.048 155.092 315.821C155.637 316.594 155.967 317.46 156.08 318.42H152.441C152.299 317.812 152.001 317.335 151.546 316.989C151.092 316.642 150.529 316.469 149.859 316.469C148.722 316.469 147.859 316.963 147.268 317.952C146.683 318.94 146.384 320.284 146.373 321.983H146.492C146.754 321.466 147.106 321.026 147.549 320.662C147.998 320.293 148.506 320.011 149.075 319.818C149.648 319.619 150.254 319.52 150.89 319.52C151.924 319.52 152.844 319.764 153.651 320.253C154.458 320.736 155.094 321.401 155.56 322.247C156.026 323.094 156.259 324.062 156.259 325.153C156.259 326.335 155.984 327.386 155.433 328.307C154.887 329.227 154.123 329.949 153.14 330.472C152.163 330.989 151.026 331.244 149.731 331.239ZM149.714 328.341C150.282 328.341 150.79 328.205 151.239 327.932C151.688 327.659 152.04 327.29 152.296 326.824C152.552 326.358 152.68 325.835 152.68 325.256C152.68 324.676 152.552 324.156 152.296 323.696C152.046 323.236 151.7 322.869 151.256 322.597C150.813 322.324 150.308 322.188 149.739 322.188C149.313 322.188 148.918 322.267 148.555 322.426C148.197 322.585 147.881 322.807 147.609 323.091C147.342 323.375 147.131 323.705 146.978 324.08C146.825 324.449 146.748 324.844 146.748 325.264C146.748 325.827 146.876 326.341 147.131 326.807C147.393 327.273 147.745 327.645 148.188 327.923C148.637 328.202 149.146 328.341 149.714 328.341ZM162.2 327.233L162.208 322.878H162.737L166.93 317.909H171.097L165.464 324.489H164.603L162.2 327.233ZM158.91 331V313.545H162.54V331H158.91ZM167.092 331L163.239 325.298L165.66 322.733L171.344 331H167.092Z" fill="#29A653"/>
<rect x="214" y="268" width="172" height="89" rx="8" fill="#DCEEFA"/>
<path d="M259.32 309.167C259.32 308.207 258.827 307.367 258.067 306.9L246 299.833L233.933 306.9C233.173 307.367 232.667 308.207 232.667 309.167V322.5C232.667 323.967 233.867 325.167 235.333 325.167H256.667C258.133 325.167 259.333 323.967 259.333 322.5L259.32 309.167ZM256.653 309.167V309.18L246 315.833L235.333 309.167L246 302.927L256.653 309.167ZM235.333 322.5V312.287L246 318.98L256.653 312.327L256.667 322.5H235.333Z" fill="#2188BA"/>
<path d="M287.963 297.909C287.963 298.996 287.764 299.931 287.366 300.713C286.969 301.492 286.424 302.092 285.731 302.513C285.041 302.93 284.258 303.139 283.379 303.139C282.498 303.139 281.71 302.93 281.018 302.513C280.328 302.092 279.785 301.49 279.387 300.708C278.989 299.926 278.79 298.993 278.79 297.909C278.79 296.822 278.989 295.889 279.387 295.11C279.785 294.328 280.328 293.728 281.018 293.31C281.71 292.889 282.498 292.679 283.379 292.679C284.258 292.679 285.041 292.889 285.731 293.31C286.424 293.728 286.969 294.328 287.366 295.11C287.764 295.889 287.963 296.822 287.963 297.909ZM286.442 297.909C286.442 297.08 286.308 296.383 286.039 295.816C285.774 295.246 285.409 294.815 284.945 294.523C284.485 294.228 283.963 294.081 283.379 294.081C282.793 294.081 282.269 294.228 281.808 294.523C281.348 294.815 280.983 295.246 280.714 295.816C280.449 296.383 280.317 297.08 280.317 297.909C280.317 298.738 280.449 299.437 280.714 300.007C280.983 300.574 281.348 301.005 281.808 301.3C282.269 301.591 282.793 301.737 283.379 301.737C283.963 301.737 284.485 301.591 284.945 301.3C285.409 301.005 285.774 300.574 286.039 300.007C286.308 299.437 286.442 298.738 286.442 297.909ZM289.759 305.864V295.364H291.211V296.602H291.335C291.421 296.442 291.546 296.259 291.708 296.05C291.87 295.841 292.096 295.659 292.384 295.503C292.672 295.344 293.054 295.264 293.528 295.264C294.144 295.264 294.694 295.42 295.178 295.732C295.662 296.043 296.041 296.492 296.317 297.079C296.595 297.665 296.734 298.371 296.734 299.197C296.734 300.022 296.597 300.73 296.322 301.32C296.046 301.906 295.669 302.359 295.188 302.677C294.707 302.992 294.159 303.149 293.542 303.149C293.078 303.149 292.699 303.071 292.404 302.915C292.112 302.76 291.884 302.577 291.718 302.369C291.552 302.16 291.425 301.974 291.335 301.812H291.246V305.864H289.759ZM291.216 299.182C291.216 299.719 291.294 300.189 291.449 300.594C291.605 300.998 291.831 301.315 292.126 301.543C292.421 301.769 292.782 301.881 293.209 301.881C293.653 301.881 294.025 301.764 294.323 301.528C294.621 301.29 294.847 300.967 294.999 300.559C295.155 300.151 295.233 299.692 295.233 299.182C295.233 298.678 295.157 298.226 295.004 297.825C294.855 297.424 294.63 297.107 294.328 296.875C294.03 296.643 293.657 296.527 293.209 296.527C292.778 296.527 292.414 296.638 292.116 296.86C291.821 297.082 291.597 297.392 291.444 297.79C291.292 298.187 291.216 298.652 291.216 299.182ZM301.691 303.154C300.939 303.154 300.291 302.993 299.747 302.672C299.207 302.347 298.789 301.891 298.494 301.305C298.202 300.715 298.057 300.024 298.057 299.232C298.057 298.449 298.202 297.76 298.494 297.163C298.789 296.567 299.2 296.101 299.727 295.766C300.257 295.432 300.877 295.264 301.586 295.264C302.017 295.264 302.435 295.335 302.839 295.478C303.244 295.621 303.607 295.844 303.928 296.149C304.25 296.454 304.503 296.85 304.689 297.337C304.874 297.821 304.967 298.41 304.967 299.102V299.629H298.897V298.516H303.51C303.51 298.125 303.431 297.778 303.272 297.477C303.113 297.172 302.889 296.931 302.601 296.756C302.316 296.58 301.981 296.492 301.596 296.492C301.179 296.492 300.814 296.595 300.503 296.8C300.194 297.003 299.956 297.268 299.787 297.596C299.621 297.921 299.538 298.274 299.538 298.655V299.525C299.538 300.035 299.628 300.469 299.807 300.827C299.989 301.185 300.242 301.459 300.567 301.648C300.892 301.833 301.272 301.926 301.706 301.926C301.988 301.926 302.244 301.886 302.476 301.807C302.708 301.724 302.909 301.601 303.078 301.439C303.247 301.277 303.376 301.076 303.466 300.837L304.873 301.091C304.76 301.505 304.558 301.868 304.266 302.18C303.978 302.488 303.615 302.728 303.177 302.901C302.743 303.07 302.248 303.154 301.691 303.154ZM308.103 298.466V303H306.616V295.364H308.043V296.607H308.138C308.313 296.202 308.589 295.877 308.963 295.632C309.341 295.387 309.817 295.264 310.39 295.264C310.91 295.264 311.366 295.374 311.757 295.592C312.148 295.808 312.451 296.129 312.667 296.557C312.882 296.984 312.99 297.513 312.99 298.143V303H311.504V298.322C311.504 297.768 311.359 297.336 311.071 297.024C310.783 296.709 310.387 296.552 309.883 296.552C309.538 296.552 309.232 296.626 308.963 296.776C308.698 296.925 308.487 297.143 308.332 297.432C308.179 297.717 308.103 298.062 308.103 298.466ZM318.275 303.154C317.522 303.154 316.875 302.993 316.331 302.672C315.791 302.347 315.373 301.891 315.078 301.305C314.786 300.715 314.641 300.024 314.641 299.232C314.641 298.449 314.786 297.76 315.078 297.163C315.373 296.567 315.784 296.101 316.311 295.766C316.841 295.432 317.461 295.264 318.17 295.264C318.601 295.264 319.019 295.335 319.423 295.478C319.828 295.621 320.191 295.844 320.512 296.149C320.834 296.454 321.087 296.85 321.273 297.337C321.458 297.821 321.551 298.41 321.551 299.102V299.629H315.481V298.516H320.094C320.094 298.125 320.015 297.778 319.856 297.477C319.697 297.172 319.473 296.931 319.185 296.756C318.9 296.58 318.565 296.492 318.18 296.492C317.763 296.492 317.398 296.595 317.087 296.8C316.778 297.003 316.54 297.268 316.371 297.596C316.205 297.921 316.122 298.274 316.122 298.655V299.525C316.122 300.035 316.212 300.469 316.391 300.827C316.573 301.185 316.826 301.459 317.151 301.648C317.476 301.833 317.856 301.926 318.29 301.926C318.571 301.926 318.828 301.886 319.06 301.807C319.292 301.724 319.493 301.601 319.662 301.439C319.831 301.277 319.96 301.076 320.05 300.837L321.457 301.091C321.344 301.505 321.142 301.868 320.85 302.18C320.562 302.488 320.199 302.728 319.761 302.901C319.327 303.07 318.832 303.154 318.275 303.154ZM326.059 303.149C325.443 303.149 324.892 302.992 324.409 302.677C323.928 302.359 323.55 301.906 323.275 301.32C323.003 300.73 322.867 300.022 322.867 299.197C322.867 298.371 323.005 297.665 323.28 297.079C323.558 296.492 323.94 296.043 324.423 295.732C324.907 295.42 325.456 295.264 326.069 295.264C326.543 295.264 326.924 295.344 327.213 295.503C327.504 295.659 327.73 295.841 327.889 296.05C328.051 296.259 328.177 296.442 328.267 296.602H328.356V292.818H329.843V303H328.391V301.812H328.267C328.177 301.974 328.048 302.16 327.879 302.369C327.713 302.577 327.484 302.76 327.193 302.915C326.901 303.071 326.523 303.149 326.059 303.149ZM326.387 301.881C326.815 301.881 327.176 301.769 327.471 301.543C327.769 301.315 327.995 300.998 328.147 300.594C328.303 300.189 328.381 299.719 328.381 299.182C328.381 298.652 328.305 298.187 328.152 297.79C328 297.392 327.776 297.082 327.481 296.86C327.186 296.638 326.821 296.527 326.387 296.527C325.94 296.527 325.567 296.643 325.269 296.875C324.97 297.107 324.745 297.424 324.593 297.825C324.443 298.226 324.369 298.678 324.369 299.182C324.369 299.692 324.445 300.151 324.597 300.559C324.75 300.967 324.975 301.29 325.274 301.528C325.575 301.764 325.946 301.881 326.387 301.881Z" fill="#2188BA"/>
<path d="M287.009 313.545V331H283.318V317.048H283.216L279.219 319.554V316.281L283.54 313.545H287.009ZM298.751 313.545V331H295.06V317.048H294.958L290.961 319.554V316.281L295.282 313.545H298.751ZM304.118 331.222C303.555 331.222 303.072 331.023 302.669 330.625C302.271 330.222 302.072 329.739 302.072 329.176C302.072 328.619 302.271 328.142 302.669 327.744C303.072 327.347 303.555 327.148 304.118 327.148C304.663 327.148 305.141 327.347 305.55 327.744C305.959 328.142 306.163 328.619 306.163 329.176C306.163 329.551 306.067 329.895 305.874 330.207C305.686 330.514 305.439 330.761 305.132 330.949C304.825 331.131 304.487 331.222 304.118 331.222ZM308.846 327.932V325.026L316.133 313.545H318.638V317.568H317.156L312.562 324.838V324.974H322.917V327.932H308.846ZM317.224 331V327.045L317.292 325.759V313.545H320.752V331H317.224ZM328.7 327.233L328.708 322.878H329.237L333.43 317.909H337.597L331.964 324.489H331.103L328.7 327.233ZM325.41 331V313.545H329.04V331H325.41ZM333.592 331L329.739 325.298L332.16 322.733L337.844 331H333.592Z" fill="#2188BA"/>
<path d="M509 300H439C433.5 300 429 304.5 429 310V380C429 385.5 433.5 390 439 390H509C514.5 390 519 385.5 519 380V310C519 304.5 514.5 300 509 300ZM509 380H439V310H509V380Z" fill="#F9EAE5"/>
<path d="M459 345H449V370H459V345Z" fill="#F9EAE5"/>
<path d="M499 320H489V370H499V320Z" fill="#F9EAE5"/>
<path d="M479 355H469V370H479V355Z" fill="#F9EAE5"/>
<path d="M479 335H469V345H479V335Z" fill="#F9EAE5"/>
<path d="M439 90H454V139H439V90ZM467 69H481V139H467V69ZM495 109H509V139H495V109Z" fill="#F9EAE5"/>
<path d="M242.202 139V121.545H253.554V124.196H245.364V128.935H252.966V131.585H245.364V136.349H253.623V139H242.202ZM256.644 139V125.909H259.593V128.134H259.746C260.019 127.384 260.471 126.798 261.101 126.378C261.732 125.952 262.485 125.739 263.36 125.739C264.246 125.739 264.993 125.955 265.601 126.386C266.215 126.812 266.647 127.395 266.897 128.134H267.033C267.323 127.406 267.811 126.827 268.499 126.395C269.192 125.957 270.013 125.739 270.962 125.739C272.167 125.739 273.15 126.119 273.911 126.881C274.672 127.642 275.053 128.753 275.053 130.213V139H271.959V130.69C271.959 129.878 271.743 129.284 271.311 128.909C270.88 128.528 270.351 128.338 269.726 128.338C268.982 128.338 268.4 128.571 267.979 129.037C267.564 129.497 267.357 130.097 267.357 130.835V139H264.331V130.562C264.331 129.886 264.127 129.347 263.718 128.943C263.314 128.54 262.786 128.338 262.132 128.338C261.689 128.338 261.286 128.452 260.922 128.679C260.559 128.901 260.269 129.216 260.053 129.625C259.837 130.028 259.729 130.5 259.729 131.04V139H256.644ZM281.95 139.264C281.12 139.264 280.373 139.116 279.708 138.821C279.049 138.52 278.527 138.077 278.14 137.491C277.76 136.906 277.569 136.185 277.569 135.327C277.569 134.588 277.706 133.977 277.978 133.494C278.251 133.011 278.623 132.625 279.095 132.335C279.566 132.045 280.098 131.827 280.689 131.679C281.285 131.526 281.902 131.415 282.538 131.347C283.305 131.267 283.927 131.196 284.404 131.134C284.882 131.065 285.228 130.963 285.444 130.827C285.666 130.685 285.777 130.466 285.777 130.17V130.119C285.777 129.477 285.586 128.98 285.206 128.628C284.825 128.276 284.277 128.099 283.561 128.099C282.805 128.099 282.206 128.264 281.762 128.594C281.325 128.923 281.029 129.312 280.876 129.761L277.995 129.352C278.223 128.557 278.598 127.892 279.12 127.358C279.643 126.818 280.282 126.415 281.038 126.148C281.794 125.875 282.629 125.739 283.544 125.739C284.174 125.739 284.802 125.812 285.427 125.96C286.052 126.108 286.623 126.352 287.14 126.693C287.657 127.028 288.072 127.486 288.385 128.065C288.703 128.645 288.862 129.369 288.862 130.239V139H285.896V137.202H285.794C285.606 137.565 285.342 137.906 285.001 138.224C284.666 138.537 284.243 138.79 283.731 138.983C283.225 139.17 282.632 139.264 281.95 139.264ZM282.751 136.997C283.37 136.997 283.907 136.875 284.362 136.631C284.816 136.381 285.166 136.051 285.41 135.642C285.66 135.233 285.785 134.787 285.785 134.304V132.761C285.689 132.841 285.524 132.915 285.291 132.983C285.064 133.051 284.808 133.111 284.524 133.162C284.24 133.213 283.958 133.259 283.68 133.298C283.402 133.338 283.16 133.372 282.956 133.401C282.495 133.463 282.083 133.565 281.72 133.707C281.356 133.849 281.069 134.048 280.859 134.304C280.649 134.554 280.544 134.878 280.544 135.276C280.544 135.844 280.751 136.273 281.166 136.562C281.581 136.852 282.109 136.997 282.751 136.997ZM291.964 139V125.909H295.049V139H291.964ZM293.515 124.051C293.027 124.051 292.606 123.889 292.254 123.565C291.902 123.236 291.725 122.841 291.725 122.381C291.725 121.915 291.902 121.52 292.254 121.196C292.606 120.866 293.027 120.702 293.515 120.702C294.01 120.702 294.43 120.866 294.777 121.196C295.129 121.52 295.305 121.915 295.305 122.381C295.305 122.841 295.129 123.236 294.777 123.565C294.43 123.889 294.01 124.051 293.515 124.051ZM301.307 121.545V139H298.222V121.545H301.307ZM314.2 139.264C313.37 139.264 312.623 139.116 311.958 138.821C311.299 138.52 310.777 138.077 310.39 137.491C310.01 136.906 309.819 136.185 309.819 135.327C309.819 134.588 309.956 133.977 310.228 133.494C310.501 133.011 310.873 132.625 311.345 132.335C311.816 132.045 312.348 131.827 312.939 131.679C313.535 131.526 314.152 131.415 314.788 131.347C315.555 131.267 316.177 131.196 316.654 131.134C317.132 131.065 317.478 130.963 317.694 130.827C317.916 130.685 318.027 130.466 318.027 130.17V130.119C318.027 129.477 317.836 128.98 317.456 128.628C317.075 128.276 316.527 128.099 315.811 128.099C315.055 128.099 314.456 128.264 314.012 128.594C313.575 128.923 313.279 129.312 313.126 129.761L310.245 129.352C310.473 128.557 310.848 127.892 311.37 127.358C311.893 126.818 312.532 126.415 313.288 126.148C314.044 125.875 314.879 125.739 315.794 125.739C316.424 125.739 317.052 125.812 317.677 125.96C318.302 126.108 318.873 126.352 319.39 126.693C319.907 127.028 320.322 127.486 320.635 128.065C320.953 128.645 321.112 129.369 321.112 130.239V139H318.146V137.202H318.044C317.856 137.565 317.592 137.906 317.251 138.224C316.916 138.537 316.493 138.79 315.981 138.983C315.475 139.17 314.882 139.264 314.2 139.264ZM315.001 136.997C315.62 136.997 316.157 136.875 316.612 136.631C317.066 136.381 317.416 136.051 317.66 135.642C317.91 135.233 318.035 134.787 318.035 134.304V132.761C317.939 132.841 317.774 132.915 317.541 132.983C317.314 133.051 317.058 133.111 316.774 133.162C316.49 133.213 316.208 133.259 315.93 133.298C315.652 133.338 315.41 133.372 315.206 133.401C314.745 133.463 314.333 133.565 313.97 133.707C313.606 133.849 313.319 134.048 313.109 134.304C312.899 134.554 312.794 134.878 312.794 135.276C312.794 135.844 313.001 136.273 313.416 136.562C313.831 136.852 314.359 136.997 315.001 136.997ZM327.299 131.33V139H324.214V125.909H327.163V128.134H327.316C327.618 127.401 328.098 126.818 328.757 126.386C329.422 125.955 330.243 125.739 331.22 125.739C332.123 125.739 332.91 125.932 333.581 126.318C334.257 126.705 334.779 127.264 335.149 127.997C335.524 128.73 335.708 129.619 335.703 130.665V139H332.618V131.142C332.618 130.267 332.39 129.582 331.936 129.088C331.487 128.594 330.865 128.347 330.069 128.347C329.529 128.347 329.049 128.466 328.629 128.705C328.214 128.937 327.887 129.276 327.649 129.719C327.416 130.162 327.299 130.699 327.299 131.33ZM342.606 139.264C341.777 139.264 341.029 139.116 340.365 138.821C339.706 138.52 339.183 138.077 338.797 137.491C338.416 136.906 338.225 136.185 338.225 135.327C338.225 134.588 338.362 133.977 338.635 133.494C338.907 133.011 339.279 132.625 339.751 132.335C340.223 132.045 340.754 131.827 341.345 131.679C341.941 131.526 342.558 131.415 343.194 131.347C343.961 131.267 344.583 131.196 345.061 131.134C345.538 131.065 345.885 130.963 346.1 130.827C346.322 130.685 346.433 130.466 346.433 130.17V130.119C346.433 129.477 346.243 128.98 345.862 128.628C345.481 128.276 344.933 128.099 344.217 128.099C343.461 128.099 342.862 128.264 342.419 128.594C341.981 128.923 341.686 129.312 341.532 129.761L338.652 129.352C338.879 128.557 339.254 127.892 339.777 127.358C340.299 126.818 340.939 126.415 341.694 126.148C342.45 125.875 343.285 125.739 344.2 125.739C344.831 125.739 345.458 125.812 346.083 125.96C346.708 126.108 347.279 126.352 347.797 126.693C348.314 127.028 348.728 127.486 349.041 128.065C349.359 128.645 349.518 129.369 349.518 130.239V139H346.552V137.202H346.45C346.262 137.565 345.998 137.906 345.657 138.224C345.322 138.537 344.899 138.79 344.387 138.983C343.882 139.17 343.288 139.264 342.606 139.264ZM343.407 136.997C344.027 136.997 344.564 136.875 345.018 136.631C345.473 136.381 345.822 136.051 346.066 135.642C346.316 135.233 346.441 134.787 346.441 134.304V132.761C346.345 132.841 346.18 132.915 345.947 132.983C345.72 133.051 345.464 133.111 345.18 133.162C344.896 133.213 344.615 133.259 344.336 133.298C344.058 133.338 343.816 133.372 343.612 133.401C343.152 133.463 342.74 133.565 342.376 133.707C342.012 133.849 341.725 134.048 341.515 134.304C341.305 134.554 341.2 134.878 341.2 135.276C341.2 135.844 341.407 136.273 341.822 136.562C342.237 136.852 342.765 136.997 343.407 136.997ZM355.706 121.545V139H352.62V121.545H355.706ZM360.796 143.909C360.375 143.909 359.986 143.875 359.628 143.807C359.276 143.744 358.995 143.67 358.784 143.585L359.5 141.182C359.949 141.313 360.35 141.375 360.702 141.369C361.054 141.364 361.364 141.253 361.631 141.037C361.904 140.827 362.134 140.474 362.321 139.98L362.586 139.273L357.838 125.909H361.111L364.128 135.795H364.265L367.29 125.909H370.571L365.33 140.585C365.086 141.278 364.762 141.872 364.358 142.366C363.955 142.866 363.461 143.247 362.875 143.509C362.296 143.776 361.603 143.909 360.796 143.909ZM379.243 125.909V128.295H371.718V125.909H379.243ZM373.576 122.773H376.661V135.062C376.661 135.477 376.723 135.795 376.848 136.017C376.979 136.233 377.15 136.381 377.36 136.46C377.57 136.54 377.803 136.58 378.059 136.58C378.252 136.58 378.428 136.565 378.587 136.537C378.752 136.509 378.877 136.483 378.962 136.46L379.482 138.872C379.317 138.929 379.081 138.991 378.775 139.06C378.473 139.128 378.104 139.168 377.667 139.179C376.894 139.202 376.198 139.085 375.578 138.83C374.959 138.568 374.468 138.165 374.104 137.619C373.746 137.074 373.57 136.392 373.576 135.574V122.773ZM381.824 139V125.909H384.909V139H381.824ZM383.375 124.051C382.886 124.051 382.466 123.889 382.113 123.565C381.761 123.236 381.585 122.841 381.585 122.381C381.585 121.915 381.761 121.52 382.113 121.196C382.466 120.866 382.886 120.702 383.375 120.702C383.869 120.702 384.289 120.866 384.636 121.196C384.988 121.52 385.164 121.915 385.164 122.381C385.164 122.841 384.988 123.236 384.636 123.565C384.289 123.889 383.869 124.051 383.375 124.051ZM393.792 139.256C392.485 139.256 391.363 138.969 390.425 138.395C389.493 137.821 388.775 137.028 388.269 136.017C387.769 135 387.519 133.83 387.519 132.506C387.519 131.176 387.775 130.003 388.286 128.986C388.797 127.963 389.519 127.168 390.451 126.599C391.388 126.026 392.496 125.739 393.775 125.739C394.837 125.739 395.777 125.935 396.596 126.327C397.419 126.713 398.076 127.261 398.564 127.972C399.053 128.676 399.331 129.5 399.4 130.443H396.451C396.331 129.812 396.047 129.287 395.598 128.866C395.155 128.44 394.561 128.227 393.817 128.227C393.186 128.227 392.632 128.398 392.155 128.739C391.678 129.074 391.306 129.557 391.039 130.188C390.777 130.818 390.647 131.574 390.647 132.455C390.647 133.347 390.777 134.114 391.039 134.756C391.3 135.392 391.667 135.884 392.138 136.23C392.615 136.571 393.175 136.741 393.817 136.741C394.272 136.741 394.678 136.656 395.036 136.486C395.4 136.31 395.703 136.057 395.948 135.727C396.192 135.398 396.36 134.997 396.451 134.526H399.4C399.326 135.452 399.053 136.273 398.581 136.989C398.11 137.699 397.468 138.256 396.655 138.659C395.843 139.057 394.888 139.256 393.792 139.256ZM412.279 129.369L409.467 129.676C409.387 129.392 409.248 129.125 409.049 128.875C408.856 128.625 408.595 128.423 408.265 128.27C407.936 128.116 407.532 128.04 407.055 128.04C406.413 128.04 405.873 128.179 405.436 128.457C405.004 128.736 404.791 129.097 404.797 129.54C404.791 129.92 404.93 130.23 405.214 130.469C405.504 130.707 405.981 130.903 406.646 131.057L408.879 131.534C410.118 131.801 411.038 132.224 411.64 132.804C412.248 133.384 412.555 134.142 412.561 135.08C412.555 135.903 412.314 136.631 411.836 137.261C411.365 137.886 410.708 138.375 409.868 138.727C409.027 139.08 408.061 139.256 406.97 139.256C405.368 139.256 404.078 138.92 403.1 138.25C402.123 137.574 401.541 136.634 401.353 135.429L404.362 135.139C404.498 135.73 404.788 136.176 405.231 136.477C405.674 136.778 406.251 136.929 406.961 136.929C407.694 136.929 408.282 136.778 408.725 136.477C409.174 136.176 409.399 135.804 409.399 135.361C409.399 134.986 409.254 134.676 408.964 134.432C408.68 134.187 408.237 134 407.635 133.869L405.402 133.401C404.146 133.139 403.217 132.699 402.615 132.08C402.012 131.455 401.714 130.665 401.72 129.71C401.714 128.903 401.933 128.205 402.376 127.614C402.825 127.017 403.447 126.557 404.243 126.233C405.044 125.903 405.967 125.739 407.012 125.739C408.547 125.739 409.754 126.065 410.635 126.719C411.521 127.372 412.069 128.256 412.279 129.369Z" fill="#3A74B5"/>
</svg>
