<svg width="600" height="450" viewBox="0 0 600 450" fill="none" xmlns="http://www.w3.org/2000/svg">
<rect x="40" y="86" width="172" height="89" rx="8" fill="#E2F0FF"/>
<path fill-rule="evenodd" clip-rule="evenodd" d="M61.3346 119.833C59.8619 119.833 58.668 121.027 58.668 122.5V134.5C58.668 135.973 59.8619 137.167 61.3346 137.167H62.668V138.5C62.668 139.967 63.868 141.167 65.3346 141.167H82.668C84.1346 141.167 85.3346 139.967 85.3346 138.5V126.5C85.3346 125.033 84.1346 123.833 82.668 123.833H81.3346V122.5C81.3346 121.027 80.1407 119.833 78.668 119.833H61.3346ZM78.668 123.833V122.5L61.3346 122.5V134.5H62.668V126.5C62.668 125.033 63.868 123.833 65.3346 123.833H78.668ZM74.0013 130.5L82.668 126.5H65.3346L74.0013 130.5ZM65.3346 129.167V138.5H82.668V129.167L74.0013 133.167L65.3346 129.167Z" fill="#1E75BA"/>
<path d="M96.6165 112.141V110.818H104.496V112.141H101.32V121H99.7884V112.141H96.6165ZM108.228 121.154C107.512 121.154 106.887 120.99 106.353 120.662C105.82 120.334 105.405 119.875 105.11 119.285C104.815 118.695 104.668 118.005 104.668 117.217C104.668 116.424 104.815 115.732 105.11 115.138C105.405 114.545 105.82 114.085 106.353 113.756C106.887 113.428 107.512 113.264 108.228 113.264C108.944 113.264 109.568 113.428 110.102 113.756C110.636 114.085 111.05 114.545 111.345 115.138C111.64 115.732 111.787 116.424 111.787 117.217C111.787 118.005 111.64 118.695 111.345 119.285C111.05 119.875 110.636 120.334 110.102 120.662C109.568 120.99 108.944 121.154 108.228 121.154ZM108.233 119.906C108.697 119.906 109.081 119.784 109.386 119.538C109.691 119.293 109.916 118.967 110.062 118.559C110.211 118.151 110.286 117.702 110.286 117.212C110.286 116.724 110.211 116.277 110.062 115.869C109.916 115.458 109.691 115.129 109.386 114.88C109.081 114.631 108.697 114.507 108.233 114.507C107.765 114.507 107.377 114.631 107.069 114.88C106.764 115.129 106.537 115.458 106.388 115.869C106.242 116.277 106.169 116.724 106.169 117.212C106.169 117.702 106.242 118.151 106.388 118.559C106.537 118.967 106.764 119.293 107.069 119.538C107.377 119.784 107.765 119.906 108.233 119.906ZM117.011 113.364V114.557H112.84V113.364H117.011ZM113.959 111.534H115.445V118.758C115.445 119.046 115.488 119.263 115.574 119.409C115.661 119.552 115.772 119.649 115.907 119.702C116.047 119.752 116.198 119.777 116.36 119.777C116.479 119.777 116.584 119.769 116.673 119.752C116.763 119.736 116.832 119.722 116.882 119.712L117.15 120.94C117.064 120.973 116.942 121.007 116.782 121.04C116.623 121.076 116.425 121.096 116.186 121.099C115.795 121.106 115.43 121.036 115.092 120.891C114.754 120.745 114.481 120.519 114.272 120.214C114.063 119.91 113.959 119.527 113.959 119.066V111.534ZM120.878 121.169C120.394 121.169 119.956 121.08 119.565 120.901C119.174 120.718 118.864 120.455 118.636 120.11C118.41 119.765 118.298 119.343 118.298 118.842C118.298 118.411 118.38 118.057 118.546 117.778C118.712 117.5 118.936 117.28 119.217 117.117C119.499 116.955 119.814 116.832 120.162 116.749C120.51 116.666 120.865 116.603 121.226 116.56C121.683 116.507 122.054 116.464 122.339 116.431C122.625 116.395 122.832 116.337 122.961 116.257C123.09 116.178 123.155 116.048 123.155 115.869V115.835C123.155 115.4 123.032 115.064 122.787 114.825C122.545 114.587 122.184 114.467 121.703 114.467C121.203 114.467 120.808 114.578 120.52 114.8C120.235 115.019 120.038 115.263 119.928 115.531L118.531 115.213C118.697 114.749 118.939 114.375 119.257 114.089C119.579 113.801 119.948 113.592 120.366 113.463C120.783 113.33 121.223 113.264 121.683 113.264C121.988 113.264 122.311 113.301 122.653 113.374C122.997 113.443 123.319 113.572 123.617 113.761C123.919 113.95 124.166 114.22 124.358 114.572C124.55 114.92 124.646 115.372 124.646 115.929V121H123.195V119.956H123.135C123.039 120.148 122.895 120.337 122.702 120.523C122.51 120.708 122.263 120.862 121.962 120.985C121.66 121.108 121.299 121.169 120.878 121.169ZM121.201 119.976C121.612 119.976 121.963 119.895 122.255 119.732C122.55 119.57 122.774 119.358 122.926 119.096C123.082 118.831 123.16 118.547 123.16 118.246V117.261C123.107 117.314 123.004 117.364 122.852 117.411C122.702 117.454 122.532 117.492 122.339 117.525C122.147 117.555 121.96 117.583 121.778 117.609C121.595 117.633 121.443 117.652 121.32 117.669C121.032 117.705 120.768 117.767 120.53 117.853C120.295 117.939 120.106 118.063 119.963 118.226C119.824 118.385 119.754 118.597 119.754 118.862C119.754 119.23 119.89 119.509 120.162 119.697C120.434 119.883 120.78 119.976 121.201 119.976ZM128.113 110.818V121H126.626V110.818H128.113ZM133.937 121V110.818H140.32V112.141H135.473V115.243H139.987V116.56H135.473V119.678H140.38V121H133.937ZM142.253 121V113.364H143.68V114.607H143.775C143.934 114.186 144.194 113.857 144.555 113.622C144.916 113.384 145.349 113.264 145.853 113.264C146.363 113.264 146.791 113.384 147.135 113.622C147.483 113.861 147.74 114.189 147.906 114.607H147.985C148.168 114.199 148.458 113.874 148.855 113.632C149.253 113.387 149.727 113.264 150.277 113.264C150.97 113.264 151.535 113.481 151.973 113.915C152.413 114.35 152.634 115.004 152.634 115.879V121H151.147V116.018C151.147 115.501 151.007 115.127 150.725 114.895C150.443 114.663 150.107 114.547 149.716 114.547C149.232 114.547 148.855 114.696 148.587 114.994C148.319 115.289 148.184 115.669 148.184 116.133V121H146.703V115.924C146.703 115.51 146.574 115.177 146.315 114.925C146.056 114.673 145.72 114.547 145.306 114.547C145.024 114.547 144.764 114.621 144.525 114.771C144.29 114.916 144.099 115.12 143.953 115.382C143.811 115.644 143.74 115.947 143.74 116.292V121H142.253ZM156.849 121.169C156.365 121.169 155.927 121.08 155.536 120.901C155.145 120.718 154.835 120.455 154.606 120.11C154.381 119.765 154.268 119.343 154.268 118.842C154.268 118.411 154.351 118.057 154.517 117.778C154.683 117.5 154.906 117.28 155.188 117.117C155.47 116.955 155.785 116.832 156.133 116.749C156.481 116.666 156.835 116.603 157.197 116.56C157.654 116.507 158.025 116.464 158.31 116.431C158.595 116.395 158.802 116.337 158.932 116.257C159.061 116.178 159.126 116.048 159.126 115.869V115.835C159.126 115.4 159.003 115.064 158.758 114.825C158.516 114.587 158.154 114.467 157.674 114.467C157.173 114.467 156.779 114.578 156.491 114.8C156.206 115.019 156.008 115.263 155.899 115.531L154.502 115.213C154.668 114.749 154.91 114.375 155.228 114.089C155.549 113.801 155.919 113.592 156.336 113.463C156.754 113.33 157.193 113.264 157.654 113.264C157.959 113.264 158.282 113.301 158.623 113.374C158.968 113.443 159.29 113.572 159.588 113.761C159.89 113.95 160.136 114.22 160.329 114.572C160.521 114.92 160.617 115.372 160.617 115.929V121H159.165V119.956H159.106C159.01 120.148 158.865 120.337 158.673 120.523C158.481 120.708 158.234 120.862 157.932 120.985C157.631 121.108 157.269 121.169 156.849 121.169ZM157.172 119.976C157.583 119.976 157.934 119.895 158.226 119.732C158.521 119.57 158.744 119.358 158.897 119.096C159.053 118.831 159.131 118.547 159.131 118.246V117.261C159.077 117.314 158.975 117.364 158.822 117.411C158.673 117.454 158.502 117.492 158.31 117.525C158.118 117.555 157.931 117.583 157.748 117.609C157.566 117.633 157.414 117.652 157.291 117.669C157.003 117.705 156.739 117.767 156.501 117.853C156.265 117.939 156.076 118.063 155.934 118.226C155.795 118.385 155.725 118.597 155.725 118.862C155.725 119.23 155.861 119.509 156.133 119.697C156.404 119.883 156.751 119.976 157.172 119.976ZM162.597 121V113.364H164.083V121H162.597ZM163.348 112.185C163.089 112.185 162.867 112.099 162.681 111.927C162.499 111.751 162.408 111.542 162.408 111.3C162.408 111.055 162.499 110.846 162.681 110.674C162.867 110.498 163.089 110.411 163.348 110.411C163.606 110.411 163.827 110.498 164.009 110.674C164.194 110.846 164.287 111.055 164.287 111.3C164.287 111.542 164.194 111.751 164.009 111.927C163.827 112.099 163.606 112.185 163.348 112.185ZM167.57 110.818V121H166.083V110.818H167.57ZM175.292 115.228L173.945 115.467C173.888 115.294 173.799 115.13 173.676 114.974C173.557 114.819 173.394 114.691 173.189 114.592C172.983 114.492 172.727 114.442 172.418 114.442C171.997 114.442 171.646 114.537 171.364 114.726C171.083 114.911 170.942 115.152 170.942 115.447C170.942 115.702 171.036 115.907 171.225 116.063C171.414 116.219 171.719 116.347 172.14 116.446L173.353 116.724C174.056 116.887 174.579 117.137 174.924 117.475C175.269 117.813 175.441 118.252 175.441 118.793C175.441 119.25 175.308 119.658 175.043 120.016C174.781 120.37 174.415 120.649 173.945 120.851C173.477 121.053 172.935 121.154 172.319 121.154C171.464 121.154 170.766 120.972 170.226 120.607C169.686 120.239 169.354 119.717 169.232 119.041L170.668 118.822C170.758 119.197 170.942 119.48 171.22 119.673C171.499 119.862 171.862 119.956 172.309 119.956C172.796 119.956 173.186 119.855 173.477 119.653C173.769 119.447 173.915 119.197 173.915 118.902C173.915 118.663 173.825 118.463 173.646 118.3C173.471 118.138 173.201 118.015 172.836 117.933L171.543 117.649C170.831 117.487 170.304 117.228 169.962 116.874C169.624 116.519 169.455 116.07 169.455 115.526C169.455 115.076 169.581 114.681 169.833 114.343C170.085 114.005 170.433 113.741 170.877 113.553C171.321 113.36 171.83 113.264 172.403 113.264C173.229 113.264 173.878 113.443 174.352 113.801C174.826 114.156 175.139 114.631 175.292 115.228Z" fill="#1E75BA"/>
<path d="M103.79 149.239C102.585 149.239 101.511 149.017 100.568 148.574C99.6307 148.131 98.8864 147.52 98.3352 146.741C97.7841 145.963 97.4972 145.071 97.4744 144.065H101.054C101.094 144.741 101.378 145.29 101.906 145.71C102.435 146.131 103.062 146.341 103.79 146.341C104.369 146.341 104.881 146.213 105.324 145.957C105.773 145.696 106.122 145.335 106.372 144.875C106.628 144.409 106.756 143.875 106.756 143.273C106.756 142.659 106.625 142.119 106.364 141.653C106.108 141.187 105.753 140.824 105.298 140.562C104.844 140.301 104.324 140.168 103.739 140.162C103.227 140.162 102.73 140.267 102.247 140.477C101.77 140.687 101.398 140.974 101.131 141.338L97.8494 140.75L98.6761 131.545H109.347V134.562H101.719L101.267 138.935H101.369C101.676 138.503 102.139 138.145 102.759 137.861C103.378 137.577 104.071 137.435 104.838 137.435C105.889 137.435 106.827 137.682 107.651 138.176C108.474 138.67 109.125 139.349 109.602 140.213C110.08 141.071 110.315 142.06 110.31 143.179C110.315 144.355 110.043 145.401 109.491 146.315C108.946 147.224 108.182 147.94 107.199 148.463C106.222 148.98 105.085 149.239 103.79 149.239ZM119.727 149.384C118.261 149.378 117 149.017 115.943 148.301C114.892 147.585 114.082 146.548 113.514 145.19C112.952 143.832 112.673 142.199 112.679 140.29C112.679 138.386 112.96 136.764 113.523 135.423C114.091 134.082 114.901 133.062 115.952 132.364C117.009 131.659 118.267 131.307 119.727 131.307C121.188 131.307 122.443 131.659 123.494 132.364C124.551 133.068 125.364 134.091 125.932 135.432C126.5 136.767 126.781 138.386 126.776 140.29C126.776 142.205 126.491 143.841 125.923 145.199C125.361 146.557 124.554 147.594 123.503 148.31C122.452 149.026 121.193 149.384 119.727 149.384ZM119.727 146.324C120.727 146.324 121.526 145.821 122.122 144.815C122.719 143.81 123.014 142.301 123.009 140.29C123.009 138.966 122.872 137.864 122.599 136.983C122.332 136.102 121.952 135.44 121.457 134.997C120.969 134.554 120.392 134.332 119.727 134.332C118.733 134.332 117.938 134.83 117.341 135.824C116.744 136.818 116.443 138.307 116.438 140.29C116.438 141.631 116.571 142.75 116.838 143.648C117.111 144.54 117.494 145.21 117.989 145.659C118.483 146.102 119.062 146.324 119.727 146.324ZM132.731 145.233L132.739 140.878H133.268L137.461 135.909H141.629L135.995 142.489H135.134L132.731 145.233ZM129.441 149V131.545H133.072V149H129.441ZM137.623 149L133.771 143.298L136.191 140.733L141.876 149H137.623Z" fill="#1E75BA"/>
<rect x="388" y="177" width="172" height="89" rx="8" fill="#F9EAE5"/>
<path d="M430.668 210.833H409.335C407.868 210.833 406.681 212.033 406.681 213.5L406.668 229.5C406.668 230.967 407.868 232.167 409.335 232.167H420.001V229.5H409.335V216.167L420.001 222.833L430.668 216.167V222.833H433.335V213.5C433.335 212.033 432.135 210.833 430.668 210.833ZM420.001 220.167L409.335 213.5H430.668L420.001 220.167Z" fill="#CC5229"/>
<path d="M428.149 227.76L424.849 224.46L422.964 226.346L426.264 229.646L422.964 232.945L424.849 234.831L428.149 231.531L431.449 234.831L433.335 232.945L430.035 229.646L433.335 226.346L431.449 224.46L428.149 227.76Z" fill="#CC5229"/>
<path d="M453.119 212V201.818H459.433V203.141H454.655V206.243H458.98V207.56H454.655V212H453.119ZM463.397 212.169C462.913 212.169 462.476 212.08 462.085 211.901C461.694 211.718 461.384 211.455 461.155 211.11C460.93 210.765 460.817 210.343 460.817 209.842C460.817 209.411 460.9 209.057 461.066 208.778C461.231 208.5 461.455 208.28 461.737 208.117C462.019 207.955 462.333 207.832 462.681 207.749C463.029 207.666 463.384 207.603 463.745 207.56C464.203 207.507 464.574 207.464 464.859 207.431C465.144 207.395 465.351 207.337 465.48 207.257C465.61 207.178 465.674 207.048 465.674 206.869V206.835C465.674 206.4 465.552 206.064 465.306 205.825C465.065 205.587 464.703 205.467 464.223 205.467C463.722 205.467 463.328 205.578 463.039 205.8C462.754 206.019 462.557 206.263 462.448 206.531L461.051 206.213C461.217 205.749 461.458 205.375 461.777 205.089C462.098 204.801 462.468 204.592 462.885 204.463C463.303 204.33 463.742 204.264 464.203 204.264C464.508 204.264 464.831 204.301 465.172 204.374C465.517 204.443 465.838 204.572 466.137 204.761C466.438 204.95 466.685 205.22 466.877 205.572C467.07 205.92 467.166 206.372 467.166 206.929V212H465.714V210.956H465.654C465.558 211.148 465.414 211.337 465.222 211.523C465.03 211.708 464.783 211.862 464.481 211.985C464.18 212.108 463.818 212.169 463.397 212.169ZM463.721 210.976C464.132 210.976 464.483 210.895 464.775 210.732C465.069 210.57 465.293 210.358 465.446 210.096C465.601 209.831 465.679 209.547 465.679 209.246V208.261C465.626 208.314 465.524 208.364 465.371 208.411C465.222 208.454 465.051 208.492 464.859 208.525C464.667 208.555 464.48 208.583 464.297 208.609C464.115 208.633 463.962 208.652 463.84 208.669C463.551 208.705 463.288 208.767 463.049 208.853C462.814 208.939 462.625 209.063 462.483 209.226C462.343 209.385 462.274 209.597 462.274 209.862C462.274 210.23 462.41 210.509 462.681 210.697C462.953 210.883 463.3 210.976 463.721 210.976ZM469.146 212V204.364H470.632V212H469.146ZM469.896 203.185C469.638 203.185 469.416 203.099 469.23 202.927C469.048 202.751 468.957 202.542 468.957 202.3C468.957 202.055 469.048 201.846 469.23 201.674C469.416 201.498 469.638 201.411 469.896 201.411C470.155 201.411 470.375 201.498 470.558 201.674C470.743 201.846 470.836 202.055 470.836 202.3C470.836 202.542 470.743 202.751 470.558 202.927C470.375 203.099 470.155 203.185 469.896 203.185ZM474.119 201.818V212H472.632V201.818H474.119ZM479.41 212.154C478.657 212.154 478.009 211.993 477.466 211.672C476.925 211.347 476.508 210.891 476.213 210.305C475.921 209.715 475.775 209.024 475.775 208.232C475.775 207.449 475.921 206.76 476.213 206.163C476.508 205.567 476.919 205.101 477.446 204.766C477.976 204.432 478.596 204.264 479.305 204.264C479.736 204.264 480.154 204.335 480.558 204.478C480.962 204.621 481.325 204.844 481.647 205.149C481.968 205.454 482.222 205.85 482.407 206.337C482.593 206.821 482.686 207.41 482.686 208.102V208.629H476.616V207.516H481.229C481.229 207.125 481.15 206.778 480.991 206.477C480.831 206.172 480.608 205.931 480.319 205.756C480.034 205.58 479.7 205.492 479.315 205.492C478.898 205.492 478.533 205.595 478.221 205.8C477.913 206.003 477.675 206.268 477.506 206.596C477.34 206.921 477.257 207.274 477.257 207.655V208.525C477.257 209.035 477.346 209.469 477.525 209.827C477.708 210.185 477.961 210.459 478.286 210.648C478.611 210.833 478.99 210.926 479.425 210.926C479.706 210.926 479.963 210.886 480.195 210.807C480.427 210.724 480.628 210.601 480.797 210.439C480.966 210.277 481.095 210.076 481.184 209.837L482.591 210.091C482.479 210.505 482.277 210.868 481.985 211.18C481.697 211.488 481.334 211.728 480.896 211.901C480.462 212.07 479.966 212.154 479.41 212.154ZM487.194 212.149C486.577 212.149 486.027 211.992 485.543 211.677C485.063 211.359 484.685 210.906 484.41 210.32C484.138 209.73 484.002 209.022 484.002 208.197C484.002 207.371 484.14 206.665 484.415 206.079C484.693 205.492 485.074 205.043 485.558 204.732C486.042 204.42 486.591 204.264 487.204 204.264C487.678 204.264 488.059 204.344 488.347 204.503C488.639 204.659 488.864 204.841 489.023 205.05C489.186 205.259 489.312 205.442 489.401 205.602H489.491V201.818H490.977V212H489.526V210.812H489.401C489.312 210.974 489.183 211.16 489.013 211.369C488.848 211.577 488.619 211.76 488.327 211.915C488.036 212.071 487.658 212.149 487.194 212.149ZM487.522 210.881C487.95 210.881 488.311 210.769 488.606 210.543C488.904 210.315 489.129 209.998 489.282 209.594C489.438 209.189 489.516 208.719 489.516 208.182C489.516 207.652 489.439 207.187 489.287 206.79C489.134 206.392 488.911 206.082 488.616 205.86C488.321 205.638 487.956 205.527 487.522 205.527C487.075 205.527 486.702 205.643 486.403 205.875C486.105 206.107 485.88 206.424 485.727 206.825C485.578 207.226 485.504 207.678 485.504 208.182C485.504 208.692 485.58 209.151 485.732 209.559C485.885 209.967 486.11 210.29 486.408 210.528C486.71 210.764 487.081 210.881 487.522 210.881Z" fill="#CC5229"/>
<path d="M453.415 240V237.341L459.628 231.588C460.156 231.077 460.599 230.616 460.957 230.207C461.321 229.798 461.597 229.398 461.784 229.006C461.972 228.608 462.065 228.179 462.065 227.719C462.065 227.207 461.949 226.767 461.716 226.398C461.483 226.023 461.165 225.736 460.761 225.537C460.358 225.332 459.901 225.23 459.389 225.23C458.855 225.23 458.389 225.338 457.991 225.554C457.594 225.77 457.287 226.08 457.071 226.483C456.855 226.886 456.747 227.366 456.747 227.923H453.244C453.244 226.781 453.503 225.79 454.02 224.949C454.537 224.108 455.261 223.457 456.193 222.997C457.125 222.537 458.199 222.307 459.415 222.307C460.665 222.307 461.753 222.528 462.679 222.972C463.611 223.409 464.335 224.017 464.852 224.795C465.369 225.574 465.628 226.466 465.628 227.472C465.628 228.131 465.497 228.781 465.236 229.423C464.98 230.065 464.523 230.778 463.864 231.562C463.205 232.341 462.276 233.276 461.077 234.366L458.528 236.864V236.983H465.858V240H453.415ZM471.856 236.233L471.864 231.878H472.393L476.586 226.909H480.754L475.12 233.489H474.259L471.856 236.233ZM468.566 240V222.545H472.197V240H468.566ZM476.748 240L472.896 234.298L475.316 231.733L481.001 240H476.748Z" fill="#CC5229"/>
<rect x="214" y="177" width="172" height="89" rx="8" fill="#DE8644" fill-opacity="0.1"/>
<path d="M256.668 210.833H235.335C233.868 210.833 232.681 212.033 232.681 213.5L232.668 229.5C232.668 230.967 233.868 232.167 235.335 232.167H246.001V229.5H235.335V216.167L246.001 222.833L256.668 216.167V222.833H259.335V213.5C259.335 212.033 258.135 210.833 256.668 210.833ZM246.001 220.167L235.335 213.5H256.668L246.001 220.167Z" fill="#DE8644"/>
<path d="M260.668 229.5L255.335 224.167V228.167H248.668V230.834H255.335V234.834L260.668 229.5Z" fill="#DE8644"/>
<path d="M284.672 204.493C284.619 204.022 284.4 203.658 284.016 203.399C283.631 203.137 283.147 203.006 282.564 203.006C282.146 203.006 281.785 203.073 281.48 203.205C281.175 203.335 280.938 203.513 280.769 203.742C280.603 203.968 280.521 204.224 280.521 204.513C280.521 204.755 280.577 204.964 280.69 205.139C280.806 205.315 280.956 205.462 281.142 205.582C281.331 205.698 281.533 205.795 281.749 205.875C281.964 205.951 282.171 206.014 282.37 206.064L283.364 206.322C283.689 206.402 284.022 206.51 284.364 206.646C284.705 206.781 285.022 206.96 285.313 207.183C285.605 207.405 285.84 207.68 286.019 208.008C286.201 208.336 286.293 208.729 286.293 209.186C286.293 209.763 286.143 210.275 285.845 210.722C285.55 211.17 285.121 211.523 284.558 211.781C283.997 212.04 283.32 212.169 282.524 212.169C281.762 212.169 281.102 212.048 280.545 211.806C279.989 211.564 279.553 211.221 279.238 210.777C278.923 210.33 278.749 209.799 278.716 209.186H280.257C280.287 209.554 280.406 209.861 280.615 210.106C280.827 210.348 281.097 210.528 281.425 210.648C281.757 210.764 282.12 210.822 282.514 210.822C282.948 210.822 283.335 210.754 283.673 210.618C284.014 210.479 284.282 210.286 284.478 210.041C284.674 209.793 284.771 209.503 284.771 209.171C284.771 208.87 284.685 208.623 284.513 208.43C284.344 208.238 284.113 208.079 283.822 207.953C283.533 207.827 283.207 207.716 282.842 207.62L281.639 207.292C280.824 207.07 280.178 206.743 279.7 206.312C279.226 205.882 278.989 205.312 278.989 204.602C278.989 204.016 279.148 203.504 279.467 203.066C279.785 202.629 280.216 202.289 280.759 202.047C281.303 201.802 281.916 201.679 282.599 201.679C283.288 201.679 283.896 201.8 284.423 202.042C284.954 202.284 285.371 202.617 285.676 203.041C285.981 203.462 286.14 203.946 286.153 204.493H284.672ZM292.846 208.833V204.364H294.338V212H292.876V210.678H292.797C292.621 211.085 292.339 211.425 291.952 211.697C291.567 211.965 291.088 212.099 290.515 212.099C290.024 212.099 289.59 211.992 289.212 211.776C288.838 211.558 288.543 211.234 288.327 210.807C288.115 210.379 288.009 209.851 288.009 209.221V204.364H289.496V209.042C289.496 209.562 289.64 209.977 289.928 210.285C290.216 210.593 290.591 210.747 291.052 210.747C291.33 210.747 291.607 210.678 291.882 210.538C292.16 210.399 292.391 210.189 292.573 209.907C292.759 209.625 292.85 209.267 292.846 208.833ZM296.335 214.864V204.364H297.787V205.602H297.911C297.997 205.442 298.122 205.259 298.284 205.05C298.446 204.841 298.672 204.659 298.96 204.503C299.249 204.344 299.63 204.264 300.104 204.264C300.72 204.264 301.27 204.42 301.754 204.732C302.238 205.043 302.618 205.492 302.893 206.079C303.171 206.665 303.31 207.371 303.31 208.197C303.31 209.022 303.173 209.73 302.898 210.32C302.623 210.906 302.245 211.359 301.764 211.677C301.284 211.992 300.735 212.149 300.119 212.149C299.655 212.149 299.275 212.071 298.98 211.915C298.688 211.76 298.46 211.577 298.294 211.369C298.128 211.16 298.001 210.974 297.911 210.812H297.822V214.864H296.335ZM297.792 208.182C297.792 208.719 297.87 209.189 298.026 209.594C298.181 209.998 298.407 210.315 298.702 210.543C298.997 210.769 299.358 210.881 299.786 210.881C300.23 210.881 300.601 210.764 300.899 210.528C301.197 210.29 301.423 209.967 301.575 209.559C301.731 209.151 301.809 208.692 301.809 208.182C301.809 207.678 301.733 207.226 301.58 206.825C301.431 206.424 301.206 206.107 300.904 205.875C300.606 205.643 300.233 205.527 299.786 205.527C299.355 205.527 298.99 205.638 298.692 205.86C298.397 206.082 298.173 206.392 298.021 206.79C297.868 207.187 297.792 207.652 297.792 208.182ZM304.976 214.864V204.364H306.428V205.602H306.552C306.638 205.442 306.762 205.259 306.925 205.05C307.087 204.841 307.313 204.659 307.601 204.503C307.889 204.344 308.27 204.264 308.744 204.264C309.361 204.264 309.911 204.42 310.395 204.732C310.879 205.043 311.258 205.492 311.533 206.079C311.812 206.665 311.951 207.371 311.951 208.197C311.951 209.022 311.813 209.73 311.538 210.32C311.263 210.906 310.885 211.359 310.405 211.677C309.924 211.992 309.376 212.149 308.759 212.149C308.295 212.149 307.916 212.071 307.621 211.915C307.329 211.76 307.1 211.577 306.935 211.369C306.769 211.16 306.641 210.974 306.552 210.812H306.462V214.864H304.976ZM306.433 208.182C306.433 208.719 306.51 209.189 306.666 209.594C306.822 209.998 307.047 210.315 307.342 210.543C307.637 210.769 307.999 210.881 308.426 210.881C308.87 210.881 309.241 210.764 309.54 210.528C309.838 210.29 310.063 209.967 310.216 209.559C310.372 209.151 310.45 208.692 310.45 208.182C310.45 207.678 310.373 207.226 310.221 206.825C310.072 206.424 309.846 206.107 309.545 205.875C309.246 205.643 308.874 205.527 308.426 205.527C307.995 205.527 307.631 205.638 307.332 205.86C307.037 206.082 306.814 206.392 306.661 206.79C306.509 207.187 306.433 207.652 306.433 208.182ZM313.616 212V204.364H315.053V205.577H315.133C315.272 205.166 315.517 204.843 315.869 204.607C316.223 204.369 316.624 204.249 317.072 204.249C317.165 204.249 317.274 204.253 317.4 204.259C317.529 204.266 317.63 204.274 317.703 204.284V205.706C317.643 205.689 317.537 205.671 317.385 205.651C317.232 205.628 317.08 205.616 316.928 205.616C316.576 205.616 316.263 205.691 315.988 205.84C315.716 205.986 315.501 206.19 315.342 206.452C315.183 206.71 315.103 207.005 315.103 207.337V212H313.616ZM322.007 212.154C321.255 212.154 320.607 211.993 320.063 211.672C319.523 211.347 319.106 210.891 318.811 210.305C318.519 209.715 318.373 209.024 318.373 208.232C318.373 207.449 318.519 206.76 318.811 206.163C319.106 205.567 319.517 205.101 320.044 204.766C320.574 204.432 321.194 204.264 321.903 204.264C322.334 204.264 322.751 204.335 323.156 204.478C323.56 204.621 323.923 204.844 324.244 205.149C324.566 205.454 324.82 205.85 325.005 206.337C325.191 206.821 325.284 207.41 325.284 208.102V208.629H319.213V207.516H323.827C323.827 207.125 323.747 206.778 323.588 206.477C323.429 206.172 323.205 205.931 322.917 205.756C322.632 205.58 322.297 205.492 321.913 205.492C321.495 205.492 321.131 205.595 320.819 205.8C320.511 206.003 320.272 206.268 320.103 206.596C319.937 206.921 319.855 207.274 319.855 207.655V208.525C319.855 209.035 319.944 209.469 320.123 209.827C320.305 210.185 320.559 210.459 320.884 210.648C321.209 210.833 321.588 210.926 322.022 210.926C322.304 210.926 322.561 210.886 322.793 210.807C323.025 210.724 323.225 210.601 323.394 210.439C323.563 210.277 323.693 210.076 323.782 209.837L325.189 210.091C325.076 210.505 324.874 210.868 324.583 211.18C324.294 211.488 323.931 211.728 323.494 211.901C323.06 212.07 322.564 212.154 322.007 212.154ZM332.655 206.228L331.308 206.467C331.252 206.294 331.162 206.13 331.039 205.974C330.92 205.819 330.758 205.691 330.552 205.592C330.347 205.492 330.09 205.442 329.782 205.442C329.361 205.442 329.009 205.537 328.728 205.726C328.446 205.911 328.305 206.152 328.305 206.447C328.305 206.702 328.4 206.907 328.588 207.063C328.777 207.219 329.082 207.347 329.503 207.446L330.716 207.724C331.419 207.887 331.943 208.137 332.287 208.475C332.632 208.813 332.804 209.252 332.804 209.793C332.804 210.25 332.672 210.658 332.407 211.016C332.145 211.37 331.779 211.649 331.308 211.851C330.841 212.053 330.299 212.154 329.682 212.154C328.827 212.154 328.129 211.972 327.589 211.607C327.049 211.239 326.717 210.717 326.595 210.041L328.032 209.822C328.121 210.197 328.305 210.48 328.583 210.673C328.862 210.862 329.225 210.956 329.672 210.956C330.159 210.956 330.549 210.855 330.841 210.653C331.132 210.447 331.278 210.197 331.278 209.902C331.278 209.663 331.189 209.463 331.01 209.3C330.834 209.138 330.564 209.015 330.199 208.933L328.907 208.649C328.194 208.487 327.667 208.228 327.326 207.874C326.988 207.519 326.819 207.07 326.819 206.526C326.819 206.076 326.944 205.681 327.196 205.343C327.448 205.005 327.796 204.741 328.24 204.553C328.685 204.36 329.193 204.264 329.767 204.264C330.592 204.264 331.242 204.443 331.716 204.801C332.19 205.156 332.503 205.631 332.655 206.228ZM340.161 206.228L338.814 206.467C338.757 206.294 338.668 206.13 338.545 205.974C338.426 205.819 338.264 205.691 338.058 205.592C337.853 205.492 337.596 205.442 337.287 205.442C336.867 205.442 336.515 205.537 336.233 205.726C335.952 205.911 335.811 206.152 335.811 206.447C335.811 206.702 335.905 206.907 336.094 207.063C336.283 207.219 336.588 207.347 337.009 207.446L338.222 207.724C338.925 207.887 339.448 208.137 339.793 208.475C340.138 208.813 340.31 209.252 340.31 209.793C340.31 210.25 340.178 210.658 339.912 211.016C339.651 211.37 339.284 211.649 338.814 211.851C338.346 212.053 337.805 212.154 337.188 212.154C336.333 212.154 335.635 211.972 335.095 211.607C334.555 211.239 334.223 210.717 334.101 210.041L335.537 209.822C335.627 210.197 335.811 210.48 336.089 210.673C336.368 210.862 336.731 210.956 337.178 210.956C337.665 210.956 338.055 210.855 338.346 210.653C338.638 210.447 338.784 210.197 338.784 209.902C338.784 209.663 338.694 209.463 338.515 209.3C338.34 209.138 338.07 209.015 337.705 208.933L336.412 208.649C335.7 208.487 335.173 208.228 334.831 207.874C334.493 207.519 334.324 207.07 334.324 206.526C334.324 206.076 334.45 205.681 334.702 205.343C334.954 205.005 335.302 204.741 335.746 204.553C336.19 204.36 336.699 204.264 337.273 204.264C338.098 204.264 338.747 204.443 339.221 204.801C339.695 205.156 340.009 205.631 340.161 206.228ZM345.236 212.154C344.483 212.154 343.835 211.993 343.292 211.672C342.752 211.347 342.334 210.891 342.039 210.305C341.747 209.715 341.602 209.024 341.602 208.232C341.602 207.449 341.747 206.76 342.039 206.163C342.334 205.567 342.745 205.101 343.272 204.766C343.802 204.432 344.422 204.264 345.131 204.264C345.562 204.264 345.98 204.335 346.384 204.478C346.789 204.621 347.152 204.844 347.473 205.149C347.795 205.454 348.048 205.85 348.234 206.337C348.419 206.821 348.512 207.41 348.512 208.102V208.629H342.442V207.516H347.055C347.055 207.125 346.976 206.778 346.817 206.477C346.658 206.172 346.434 205.931 346.146 205.756C345.861 205.58 345.526 205.492 345.141 205.492C344.724 205.492 344.359 205.595 344.048 205.8C343.739 206.003 343.501 206.268 343.332 206.596C343.166 206.921 343.083 207.274 343.083 207.655V208.525C343.083 209.035 343.173 209.469 343.352 209.827C343.534 210.185 343.787 210.459 344.112 210.648C344.437 210.833 344.817 210.926 345.251 210.926C345.532 210.926 345.789 210.886 346.021 210.807C346.253 210.724 346.454 210.601 346.623 210.439C346.792 210.277 346.921 210.076 347.011 209.837L348.418 210.091C348.305 210.505 348.103 210.868 347.811 211.18C347.523 211.488 347.16 211.728 346.722 211.901C346.288 212.07 345.793 212.154 345.236 212.154ZM353.02 212.149C352.404 212.149 351.853 211.992 351.369 211.677C350.889 211.359 350.511 210.906 350.236 210.32C349.964 209.73 349.828 209.022 349.828 208.197C349.828 207.371 349.966 206.665 350.241 206.079C350.519 205.492 350.901 205.043 351.384 204.732C351.868 204.42 352.417 204.264 353.03 204.264C353.504 204.264 353.885 204.344 354.173 204.503C354.465 204.659 354.691 204.841 354.85 205.05C355.012 205.259 355.138 205.442 355.227 205.602H355.317V201.818H356.803V212H355.352V210.812H355.227C355.138 210.974 355.009 211.16 354.84 211.369C354.674 211.577 354.445 211.76 354.154 211.915C353.862 212.071 353.484 212.149 353.02 212.149ZM353.348 210.881C353.776 210.881 354.137 210.769 354.432 210.543C354.73 210.315 354.956 209.998 355.108 209.594C355.264 209.189 355.342 208.719 355.342 208.182C355.342 207.652 355.266 207.187 355.113 206.79C354.961 206.392 354.737 206.082 354.442 205.86C354.147 205.638 353.782 205.527 353.348 205.527C352.901 205.527 352.528 205.643 352.23 205.875C351.931 206.107 351.706 206.424 351.553 206.825C351.404 207.226 351.33 207.678 351.33 208.182C351.33 208.692 351.406 209.151 351.558 209.559C351.711 209.967 351.936 210.29 352.235 210.528C352.536 210.764 352.907 210.881 353.348 210.881Z" fill="#DE8644"/>
<path d="M280.105 240L287.341 225.682V225.562H278.912V222.545H291.159V225.605L283.915 240H280.105ZM292.844 240.222C292.282 240.222 291.799 240.023 291.396 239.625C290.998 239.222 290.799 238.739 290.799 238.176C290.799 237.619 290.998 237.142 291.396 236.744C291.799 236.347 292.282 236.148 292.844 236.148C293.39 236.148 293.867 236.347 294.276 236.744C294.685 237.142 294.89 237.619 294.89 238.176C294.89 238.551 294.793 238.895 294.6 239.207C294.413 239.514 294.165 239.761 293.859 239.949C293.552 240.131 293.214 240.222 292.844 240.222ZM304.071 240.239C302.866 240.239 301.793 240.017 300.849 239.574C299.912 239.131 299.168 238.52 298.616 237.741C298.065 236.963 297.778 236.071 297.756 235.065H301.335C301.375 235.741 301.659 236.29 302.188 236.71C302.716 237.131 303.344 237.341 304.071 237.341C304.651 237.341 305.162 237.213 305.605 236.957C306.054 236.696 306.403 236.335 306.653 235.875C306.909 235.409 307.037 234.875 307.037 234.273C307.037 233.659 306.906 233.119 306.645 232.653C306.389 232.187 306.034 231.824 305.58 231.562C305.125 231.301 304.605 231.168 304.02 231.162C303.509 231.162 303.011 231.267 302.528 231.477C302.051 231.687 301.679 231.974 301.412 232.338L298.131 231.75L298.957 222.545H309.628V225.562H302L301.548 229.935H301.651C301.957 229.503 302.42 229.145 303.04 228.861C303.659 228.577 304.352 228.435 305.119 228.435C306.17 228.435 307.108 228.682 307.932 229.176C308.756 229.67 309.406 230.349 309.884 231.213C310.361 232.071 310.597 233.06 310.591 234.179C310.597 235.355 310.324 236.401 309.773 237.315C309.227 238.224 308.463 238.94 307.48 239.463C306.503 239.98 305.366 240.239 304.071 240.239ZM316.489 236.233L316.497 231.878H317.026L321.219 226.909H325.386L319.753 233.489H318.892L316.489 236.233ZM313.199 240V222.545H316.83V240H313.199ZM321.381 240L317.528 234.298L319.949 231.733L325.634 240H321.381Z" fill="#DE8644"/>
<rect x="40" y="268" width="172" height="89" rx="8" fill="#E8F7E8"/>
<path d="M82.668 301.833H61.3346C59.868 301.833 58.6813 303.033 58.6813 304.5L58.668 320.5C58.668 321.967 59.868 323.167 61.3346 323.167H72.0013V320.5H61.3346V307.167L72.0013 313.833L82.668 307.167V313.833H85.3346V304.5C85.3346 303.033 84.1346 301.833 82.668 301.833ZM72.0013 311.167L61.3346 304.5H82.668L72.0013 311.167ZM79.1213 325.833L74.4013 321.113L76.2813 319.233L79.108 322.06L84.7613 316.407L86.668 318.287L79.1213 325.833Z" fill="#29A653"/>
<path d="M108.415 303H105.119V292.818H108.519C109.517 292.818 110.374 293.022 111.089 293.43C111.805 293.834 112.354 294.416 112.735 295.175C113.12 295.93 113.312 296.837 113.312 297.894C113.312 298.955 113.118 299.866 112.73 300.629C112.346 301.391 111.789 301.978 111.06 302.388C110.33 302.796 109.449 303 108.415 303ZM106.655 301.658H108.33C109.106 301.658 109.75 301.512 110.264 301.22C110.778 300.925 111.162 300.499 111.418 299.942C111.673 299.382 111.8 298.7 111.8 297.894C111.8 297.095 111.673 296.418 111.418 295.861C111.166 295.304 110.79 294.881 110.289 294.593C109.789 294.305 109.167 294.161 108.425 294.161H106.655V301.658ZM118.394 303.154C117.642 303.154 116.994 302.993 116.45 302.672C115.91 302.347 115.492 301.891 115.197 301.305C114.906 300.715 114.76 300.024 114.76 299.232C114.76 298.449 114.906 297.76 115.197 297.163C115.492 296.567 115.903 296.101 116.43 295.766C116.961 295.432 117.58 295.264 118.29 295.264C118.72 295.264 119.138 295.335 119.542 295.478C119.947 295.621 120.31 295.844 120.631 296.149C120.953 296.454 121.206 296.85 121.392 297.337C121.577 297.821 121.67 298.41 121.67 299.102V299.629H115.6V298.516H120.214C120.214 298.125 120.134 297.778 119.975 297.477C119.816 297.172 119.592 296.931 119.304 296.756C119.019 296.58 118.684 296.492 118.3 296.492C117.882 296.492 117.517 296.595 117.206 296.8C116.898 297.003 116.659 297.268 116.49 297.596C116.324 297.921 116.241 298.274 116.241 298.655V299.525C116.241 300.035 116.331 300.469 116.51 300.827C116.692 301.185 116.946 301.459 117.27 301.648C117.595 301.833 117.975 301.926 118.409 301.926C118.691 301.926 118.948 301.886 119.18 301.807C119.412 301.724 119.612 301.601 119.781 301.439C119.95 301.277 120.079 301.076 120.169 300.837L121.576 301.091C121.463 301.505 121.261 301.868 120.969 302.18C120.681 302.488 120.318 302.728 119.881 302.901C119.446 303.07 118.951 303.154 118.394 303.154ZM124.806 292.818V303H123.32V292.818H124.806ZM126.806 303V295.364H128.292V303H126.806ZM127.557 294.185C127.298 294.185 127.076 294.099 126.89 293.927C126.708 293.751 126.617 293.542 126.617 293.3C126.617 293.055 126.708 292.846 126.89 292.674C127.076 292.498 127.298 292.411 127.557 292.411C127.815 292.411 128.036 292.498 128.218 292.674C128.403 292.846 128.496 293.055 128.496 293.3C128.496 293.542 128.403 293.751 128.218 293.927C128.036 294.099 127.815 294.185 127.557 294.185ZM136.825 295.364L134.056 303H132.465L129.691 295.364H131.287L133.221 301.24H133.3L135.229 295.364H136.825ZM141.253 303.154C140.501 303.154 139.853 302.993 139.309 302.672C138.769 302.347 138.352 301.891 138.057 301.305C137.765 300.715 137.619 300.024 137.619 299.232C137.619 298.449 137.765 297.76 138.057 297.163C138.352 296.567 138.763 296.101 139.29 295.766C139.82 295.432 140.44 295.264 141.149 295.264C141.58 295.264 141.997 295.335 142.402 295.478C142.806 295.621 143.169 295.844 143.491 296.149C143.812 296.454 144.066 296.85 144.251 297.337C144.437 297.821 144.53 298.41 144.53 299.102V299.629H138.459V298.516H143.073C143.073 298.125 142.993 297.778 142.834 297.477C142.675 297.172 142.452 296.931 142.163 296.756C141.878 296.58 141.543 296.492 141.159 296.492C140.741 296.492 140.377 296.595 140.065 296.8C139.757 297.003 139.518 297.268 139.349 297.596C139.184 297.921 139.101 298.274 139.101 298.655V299.525C139.101 300.035 139.19 300.469 139.369 300.827C139.551 301.185 139.805 301.459 140.13 301.648C140.455 301.833 140.834 301.926 141.268 301.926C141.55 301.926 141.807 301.886 142.039 301.807C142.271 301.724 142.471 301.601 142.64 301.439C142.809 301.277 142.939 301.076 143.028 300.837L144.435 301.091C144.323 301.505 144.12 301.868 143.829 302.18C143.54 302.488 143.177 302.728 142.74 302.901C142.306 303.07 141.81 303.154 141.253 303.154ZM146.179 303V295.364H147.616V296.577H147.695C147.835 296.166 148.08 295.843 148.431 295.607C148.786 295.369 149.187 295.249 149.634 295.249C149.727 295.249 149.836 295.253 149.962 295.259C150.092 295.266 150.193 295.274 150.266 295.284V296.706C150.206 296.689 150.1 296.671 149.947 296.651C149.795 296.628 149.643 296.616 149.49 296.616C149.139 296.616 148.826 296.691 148.55 296.84C148.279 296.986 148.063 297.19 147.904 297.452C147.745 297.71 147.665 298.005 147.665 298.337V303H146.179ZM154.57 303.154C153.817 303.154 153.169 302.993 152.626 302.672C152.086 302.347 151.668 301.891 151.373 301.305C151.081 300.715 150.936 300.024 150.936 299.232C150.936 298.449 151.081 297.76 151.373 297.163C151.668 296.567 152.079 296.101 152.606 295.766C153.136 295.432 153.756 295.264 154.465 295.264C154.896 295.264 155.314 295.335 155.718 295.478C156.123 295.621 156.485 295.844 156.807 296.149C157.128 296.454 157.382 296.85 157.568 297.337C157.753 297.821 157.846 298.41 157.846 299.102V299.629H151.776V298.516H156.389C156.389 298.125 156.31 297.778 156.151 297.477C155.992 297.172 155.768 296.931 155.48 296.756C155.195 296.58 154.86 296.492 154.475 296.492C154.058 296.492 153.693 296.595 153.382 296.8C153.073 297.003 152.835 297.268 152.666 297.596C152.5 297.921 152.417 298.274 152.417 298.655V299.525C152.417 300.035 152.507 300.469 152.686 300.827C152.868 301.185 153.121 301.459 153.446 301.648C153.771 301.833 154.151 301.926 154.585 301.926C154.866 301.926 155.123 301.886 155.355 301.807C155.587 301.724 155.788 301.601 155.957 301.439C156.126 301.277 156.255 301.076 156.345 300.837L157.752 301.091C157.639 301.505 157.437 301.868 157.145 302.18C156.857 302.488 156.494 302.728 156.056 302.901C155.622 303.07 155.127 303.154 154.57 303.154ZM162.354 303.149C161.738 303.149 161.187 302.992 160.703 302.677C160.223 302.359 159.845 301.906 159.57 301.32C159.298 300.73 159.162 300.022 159.162 299.197C159.162 298.371 159.3 297.665 159.575 297.079C159.853 296.492 160.234 296.043 160.718 295.732C161.202 295.42 161.751 295.264 162.364 295.264C162.838 295.264 163.219 295.344 163.507 295.503C163.799 295.659 164.025 295.841 164.184 296.05C164.346 296.259 164.472 296.442 164.561 296.602H164.651V292.818H166.137V303H164.686V301.812H164.561C164.472 301.974 164.343 302.16 164.174 302.369C164.008 302.577 163.779 302.76 163.488 302.915C163.196 303.071 162.818 303.149 162.354 303.149ZM162.682 301.881C163.11 301.881 163.471 301.769 163.766 301.543C164.064 301.315 164.29 300.998 164.442 300.594C164.598 300.189 164.676 299.719 164.676 299.182C164.676 298.652 164.6 298.187 164.447 297.79C164.295 297.392 164.071 297.082 163.776 296.86C163.481 296.638 163.116 296.527 162.682 296.527C162.235 296.527 161.862 296.643 161.564 296.875C161.265 297.107 161.04 297.424 160.887 297.825C160.738 298.226 160.664 298.678 160.664 299.182C160.664 299.692 160.74 300.151 160.892 300.559C161.045 300.967 161.27 301.29 161.569 301.528C161.87 301.764 162.241 301.881 162.682 301.881Z" fill="#29A653"/>
<path d="M105.151 327.932V325.026L112.438 313.545H114.943V317.568H113.46L108.866 324.838V324.974H119.222V327.932H105.151ZM113.528 331V327.045L113.597 325.759V313.545H117.057V331H113.528ZM122.371 331L129.607 316.682V316.562H121.178V313.545H133.425V316.605L126.18 331H122.371ZM139.278 327.233L139.286 322.878H139.815L144.008 317.909H148.175L142.542 324.489H141.681L139.278 327.233ZM135.988 331V313.545H139.619V331H135.988ZM144.17 331L140.317 325.298L142.738 322.733L148.423 331H144.17Z" fill="#29A653"/>
<rect x="214" y="268" width="172" height="89" rx="8" fill="#DCEEFA"/>
<path d="M259.321 309.167C259.321 308.207 258.828 307.367 258.068 306.9L246.001 299.833L233.935 306.9C233.175 307.367 232.668 308.207 232.668 309.167V322.5C232.668 323.967 233.868 325.167 235.335 325.167H256.668C258.135 325.167 259.335 323.967 259.335 322.5L259.321 309.167ZM256.655 309.167V309.18L246.001 315.833L235.335 309.167L246.001 302.927L256.655 309.167ZM235.335 322.5V312.287L246.001 318.98L256.655 312.327L256.668 322.5H235.335Z" fill="#2188BA"/>
<path d="M287.963 297.909C287.963 298.996 287.764 299.931 287.366 300.713C286.969 301.492 286.424 302.092 285.731 302.513C285.041 302.93 284.258 303.139 283.379 303.139C282.498 303.139 281.71 302.93 281.018 302.513C280.328 302.092 279.785 301.49 279.387 300.708C278.989 299.926 278.79 298.993 278.79 297.909C278.79 296.822 278.989 295.889 279.387 295.11C279.785 294.328 280.328 293.728 281.018 293.31C281.71 292.889 282.498 292.679 283.379 292.679C284.258 292.679 285.041 292.889 285.731 293.31C286.424 293.728 286.969 294.328 287.366 295.11C287.764 295.889 287.963 296.822 287.963 297.909ZM286.442 297.909C286.442 297.08 286.308 296.383 286.039 295.816C285.774 295.246 285.409 294.815 284.945 294.523C284.485 294.228 283.963 294.081 283.379 294.081C282.793 294.081 282.269 294.228 281.808 294.523C281.348 294.815 280.983 295.246 280.714 295.816C280.449 296.383 280.317 297.08 280.317 297.909C280.317 298.738 280.449 299.437 280.714 300.007C280.983 300.574 281.348 301.005 281.808 301.3C282.269 301.591 282.793 301.737 283.379 301.737C283.963 301.737 284.485 301.591 284.945 301.3C285.409 301.005 285.774 300.574 286.039 300.007C286.308 299.437 286.442 298.738 286.442 297.909ZM289.759 305.864V295.364H291.211V296.602H291.335C291.421 296.442 291.546 296.259 291.708 296.05C291.87 295.841 292.096 295.659 292.384 295.503C292.672 295.344 293.054 295.264 293.528 295.264C294.144 295.264 294.694 295.42 295.178 295.732C295.662 296.043 296.041 296.492 296.317 297.079C296.595 297.665 296.734 298.371 296.734 299.197C296.734 300.022 296.597 300.73 296.322 301.32C296.046 301.906 295.669 302.359 295.188 302.677C294.707 302.992 294.159 303.149 293.542 303.149C293.078 303.149 292.699 303.071 292.404 302.915C292.112 302.76 291.884 302.577 291.718 302.369C291.552 302.16 291.425 301.974 291.335 301.812H291.246V305.864H289.759ZM291.216 299.182C291.216 299.719 291.294 300.189 291.449 300.594C291.605 300.998 291.831 301.315 292.126 301.543C292.421 301.769 292.782 301.881 293.209 301.881C293.653 301.881 294.025 301.764 294.323 301.528C294.621 301.29 294.847 300.967 294.999 300.559C295.155 300.151 295.233 299.692 295.233 299.182C295.233 298.678 295.157 298.226 295.004 297.825C294.855 297.424 294.63 297.107 294.328 296.875C294.03 296.643 293.657 296.527 293.209 296.527C292.778 296.527 292.414 296.638 292.116 296.86C291.821 297.082 291.597 297.392 291.444 297.79C291.292 298.187 291.216 298.652 291.216 299.182ZM301.691 303.154C300.939 303.154 300.291 302.993 299.747 302.672C299.207 302.347 298.789 301.891 298.494 301.305C298.202 300.715 298.057 300.024 298.057 299.232C298.057 298.449 298.202 297.76 298.494 297.163C298.789 296.567 299.2 296.101 299.727 295.766C300.257 295.432 300.877 295.264 301.586 295.264C302.017 295.264 302.435 295.335 302.839 295.478C303.244 295.621 303.607 295.844 303.928 296.149C304.25 296.454 304.503 296.85 304.689 297.337C304.874 297.821 304.967 298.41 304.967 299.102V299.629H298.897V298.516H303.51C303.51 298.125 303.431 297.778 303.272 297.477C303.113 297.172 302.889 296.931 302.601 296.756C302.316 296.58 301.981 296.492 301.596 296.492C301.179 296.492 300.814 296.595 300.503 296.8C300.194 297.003 299.956 297.268 299.787 297.596C299.621 297.921 299.538 298.274 299.538 298.655V299.525C299.538 300.035 299.628 300.469 299.807 300.827C299.989 301.185 300.242 301.459 300.567 301.648C300.892 301.833 301.272 301.926 301.706 301.926C301.988 301.926 302.244 301.886 302.476 301.807C302.708 301.724 302.909 301.601 303.078 301.439C303.247 301.277 303.376 301.076 303.466 300.837L304.873 301.091C304.76 301.505 304.558 301.868 304.266 302.18C303.978 302.488 303.615 302.728 303.177 302.901C302.743 303.07 302.248 303.154 301.691 303.154ZM308.103 298.466V303H306.616V295.364H308.043V296.607H308.138C308.313 296.202 308.589 295.877 308.963 295.632C309.341 295.387 309.817 295.264 310.39 295.264C310.91 295.264 311.366 295.374 311.757 295.592C312.148 295.808 312.451 296.129 312.667 296.557C312.882 296.984 312.99 297.513 312.99 298.143V303H311.504V298.322C311.504 297.768 311.359 297.336 311.071 297.024C310.783 296.709 310.387 296.552 309.883 296.552C309.538 296.552 309.232 296.626 308.963 296.776C308.698 296.925 308.487 297.143 308.332 297.432C308.179 297.717 308.103 298.062 308.103 298.466ZM318.275 303.154C317.522 303.154 316.875 302.993 316.331 302.672C315.791 302.347 315.373 301.891 315.078 301.305C314.786 300.715 314.641 300.024 314.641 299.232C314.641 298.449 314.786 297.76 315.078 297.163C315.373 296.567 315.784 296.101 316.311 295.766C316.841 295.432 317.461 295.264 318.17 295.264C318.601 295.264 319.019 295.335 319.423 295.478C319.828 295.621 320.191 295.844 320.512 296.149C320.834 296.454 321.087 296.85 321.273 297.337C321.458 297.821 321.551 298.41 321.551 299.102V299.629H315.481V298.516H320.094C320.094 298.125 320.015 297.778 319.856 297.477C319.697 297.172 319.473 296.931 319.185 296.756C318.9 296.58 318.565 296.492 318.18 296.492C317.763 296.492 317.398 296.595 317.087 296.8C316.778 297.003 316.54 297.268 316.371 297.596C316.205 297.921 316.122 298.274 316.122 298.655V299.525C316.122 300.035 316.212 300.469 316.391 300.827C316.573 301.185 316.826 301.459 317.151 301.648C317.476 301.833 317.856 301.926 318.29 301.926C318.571 301.926 318.828 301.886 319.06 301.807C319.292 301.724 319.493 301.601 319.662 301.439C319.831 301.277 319.96 301.076 320.05 300.837L321.457 301.091C321.344 301.505 321.142 301.868 320.85 302.18C320.562 302.488 320.199 302.728 319.761 302.901C319.327 303.07 318.832 303.154 318.275 303.154ZM326.059 303.149C325.443 303.149 324.892 302.992 324.409 302.677C323.928 302.359 323.55 301.906 323.275 301.32C323.003 300.73 322.867 300.022 322.867 299.197C322.867 298.371 323.005 297.665 323.28 297.079C323.558 296.492 323.94 296.043 324.423 295.732C324.907 295.42 325.456 295.264 326.069 295.264C326.543 295.264 326.924 295.344 327.213 295.503C327.504 295.659 327.73 295.841 327.889 296.05C328.051 296.259 328.177 296.442 328.267 296.602H328.356V292.818H329.843V303H328.391V301.812H328.267C328.177 301.974 328.048 302.16 327.879 302.369C327.713 302.577 327.484 302.76 327.193 302.915C326.901 303.071 326.523 303.149 326.059 303.149ZM326.387 301.881C326.815 301.881 327.176 301.769 327.471 301.543C327.769 301.315 327.995 300.998 328.147 300.594C328.303 300.189 328.381 299.719 328.381 299.182C328.381 298.652 328.305 298.187 328.152 297.79C328 297.392 327.776 297.082 327.481 296.86C327.186 296.638 326.821 296.527 326.387 296.527C325.94 296.527 325.567 296.643 325.269 296.875C324.97 297.107 324.745 297.424 324.593 297.825C324.443 298.226 324.369 298.678 324.369 299.182C324.369 299.692 324.445 300.151 324.597 300.559C324.75 300.967 324.975 301.29 325.274 301.528C325.575 301.764 325.946 301.881 326.387 301.881Z" fill="#2188BA"/>
<path d="M279.151 327.932V325.026L286.438 313.545H288.943V317.568H287.46L282.866 324.838V324.974H293.222V327.932H279.151ZM287.528 331V327.045L287.597 325.759V313.545H291.057V331H287.528ZM302.055 331.239C300.851 331.239 299.777 331.017 298.834 330.574C297.896 330.131 297.152 329.52 296.601 328.741C296.05 327.963 295.763 327.071 295.74 326.065H299.32C299.359 326.741 299.643 327.29 300.172 327.71C300.7 328.131 301.328 328.341 302.055 328.341C302.635 328.341 303.146 328.213 303.589 327.957C304.038 327.696 304.388 327.335 304.638 326.875C304.893 326.409 305.021 325.875 305.021 325.273C305.021 324.659 304.891 324.119 304.629 323.653C304.374 323.187 304.018 322.824 303.564 322.562C303.109 322.301 302.589 322.168 302.004 322.162C301.493 322.162 300.996 322.267 300.513 322.477C300.036 322.687 299.663 322.974 299.396 323.338L296.115 322.75L296.942 313.545H307.612V316.562H299.984L299.533 320.935H299.635C299.942 320.503 300.405 320.145 301.024 319.861C301.643 319.577 302.337 319.435 303.104 319.435C304.155 319.435 305.092 319.682 305.916 320.176C306.74 320.67 307.391 321.349 307.868 322.213C308.345 323.071 308.581 324.06 308.575 325.179C308.581 326.355 308.308 327.401 307.757 328.315C307.212 329.224 306.447 329.94 305.464 330.463C304.487 330.98 303.351 331.239 302.055 331.239ZM314.473 327.233L314.482 322.878H315.01L319.203 317.909H323.371L317.737 324.489H316.876L314.473 327.233ZM311.183 331V313.545H314.814V331H311.183ZM319.365 331L315.513 325.298L317.933 322.733L323.618 331H319.365Z" fill="#2188BA"/>
<path d="M509 300H439C433.5 300 429 304.5 429 310V380C429 385.5 433.5 390 439 390H509C514.5 390 519 385.5 519 380V310C519 304.5 514.5 300 509 300ZM509 380H439V310H509V380Z" fill="#CC5229" fill-opacity="0.2"/>
<path d="M459 345H449V370H459V345Z" fill="#CC5229" fill-opacity="0.2"/>
<path d="M499 320H489V370H499V320Z" fill="#CC5229" fill-opacity="0.2"/>
<path d="M479 355H469V370H479V355Z" fill="#CC5229" fill-opacity="0.2"/>
<path d="M479 335H469V345H479V335Z" fill="#CC5229" fill-opacity="0.2"/>
<path d="M439 90H454V139H439V90ZM467 69H481V139H467V69ZM495 109H509V139H495V109Z" fill="#CC5229" fill-opacity="0.2"/>
<path d="M242.202 139V121.545H253.554V124.196H245.364V128.935H252.966V131.585H245.364V136.349H253.623V139H242.202ZM256.644 139V125.909H259.593V128.134H259.746C260.019 127.384 260.471 126.798 261.101 126.378C261.732 125.952 262.485 125.739 263.36 125.739C264.246 125.739 264.993 125.955 265.601 126.386C266.215 126.812 266.647 127.395 266.897 128.134H267.033C267.323 127.406 267.811 126.827 268.499 126.395C269.192 125.957 270.013 125.739 270.962 125.739C272.167 125.739 273.15 126.119 273.911 126.881C274.672 127.642 275.053 128.753 275.053 130.213V139H271.959V130.69C271.959 129.878 271.743 129.284 271.311 128.909C270.88 128.528 270.351 128.338 269.726 128.338C268.982 128.338 268.4 128.571 267.979 129.037C267.564 129.497 267.357 130.097 267.357 130.835V139H264.331V130.562C264.331 129.886 264.127 129.347 263.718 128.943C263.314 128.54 262.786 128.338 262.132 128.338C261.689 128.338 261.286 128.452 260.922 128.679C260.559 128.901 260.269 129.216 260.053 129.625C259.837 130.028 259.729 130.5 259.729 131.04V139H256.644ZM281.95 139.264C281.12 139.264 280.373 139.116 279.708 138.821C279.049 138.52 278.527 138.077 278.14 137.491C277.76 136.906 277.569 136.185 277.569 135.327C277.569 134.588 277.706 133.977 277.978 133.494C278.251 133.011 278.623 132.625 279.095 132.335C279.566 132.045 280.098 131.827 280.689 131.679C281.285 131.526 281.902 131.415 282.538 131.347C283.305 131.267 283.927 131.196 284.404 131.134C284.882 131.065 285.228 130.963 285.444 130.827C285.666 130.685 285.777 130.466 285.777 130.17V130.119C285.777 129.477 285.586 128.98 285.206 128.628C284.825 128.276 284.277 128.099 283.561 128.099C282.805 128.099 282.206 128.264 281.762 128.594C281.325 128.923 281.029 129.312 280.876 129.761L277.995 129.352C278.223 128.557 278.598 127.892 279.12 127.358C279.643 126.818 280.282 126.415 281.038 126.148C281.794 125.875 282.629 125.739 283.544 125.739C284.174 125.739 284.802 125.812 285.427 125.96C286.052 126.108 286.623 126.352 287.14 126.693C287.657 127.028 288.072 127.486 288.385 128.065C288.703 128.645 288.862 129.369 288.862 130.239V139H285.896V137.202H285.794C285.606 137.565 285.342 137.906 285.001 138.224C284.666 138.537 284.243 138.79 283.731 138.983C283.225 139.17 282.632 139.264 281.95 139.264ZM282.751 136.997C283.37 136.997 283.907 136.875 284.362 136.631C284.816 136.381 285.166 136.051 285.41 135.642C285.66 135.233 285.785 134.787 285.785 134.304V132.761C285.689 132.841 285.524 132.915 285.291 132.983C285.064 133.051 284.808 133.111 284.524 133.162C284.24 133.213 283.958 133.259 283.68 133.298C283.402 133.338 283.16 133.372 282.956 133.401C282.495 133.463 282.083 133.565 281.72 133.707C281.356 133.849 281.069 134.048 280.859 134.304C280.649 134.554 280.544 134.878 280.544 135.276C280.544 135.844 280.751 136.273 281.166 136.562C281.581 136.852 282.109 136.997 282.751 136.997ZM291.964 139V125.909H295.049V139H291.964ZM293.515 124.051C293.027 124.051 292.606 123.889 292.254 123.565C291.902 123.236 291.725 122.841 291.725 122.381C291.725 121.915 291.902 121.52 292.254 121.196C292.606 120.866 293.027 120.702 293.515 120.702C294.01 120.702 294.43 120.866 294.777 121.196C295.129 121.52 295.305 121.915 295.305 122.381C295.305 122.841 295.129 123.236 294.777 123.565C294.43 123.889 294.01 124.051 293.515 124.051ZM301.307 121.545V139H298.222V121.545H301.307ZM314.2 139.264C313.37 139.264 312.623 139.116 311.958 138.821C311.299 138.52 310.777 138.077 310.39 137.491C310.01 136.906 309.819 136.185 309.819 135.327C309.819 134.588 309.956 133.977 310.228 133.494C310.501 133.011 310.873 132.625 311.345 132.335C311.816 132.045 312.348 131.827 312.939 131.679C313.535 131.526 314.152 131.415 314.788 131.347C315.555 131.267 316.177 131.196 316.654 131.134C317.132 131.065 317.478 130.963 317.694 130.827C317.916 130.685 318.027 130.466 318.027 130.17V130.119C318.027 129.477 317.836 128.98 317.456 128.628C317.075 128.276 316.527 128.099 315.811 128.099C315.055 128.099 314.456 128.264 314.012 128.594C313.575 128.923 313.279 129.312 313.126 129.761L310.245 129.352C310.473 128.557 310.848 127.892 311.37 127.358C311.893 126.818 312.532 126.415 313.288 126.148C314.044 125.875 314.879 125.739 315.794 125.739C316.424 125.739 317.052 125.812 317.677 125.96C318.302 126.108 318.873 126.352 319.39 126.693C319.907 127.028 320.322 127.486 320.635 128.065C320.953 128.645 321.112 129.369 321.112 130.239V139H318.146V137.202H318.044C317.856 137.565 317.592 137.906 317.251 138.224C316.916 138.537 316.493 138.79 315.981 138.983C315.475 139.17 314.882 139.264 314.2 139.264ZM315.001 136.997C315.62 136.997 316.157 136.875 316.612 136.631C317.066 136.381 317.416 136.051 317.66 135.642C317.91 135.233 318.035 134.787 318.035 134.304V132.761C317.939 132.841 317.774 132.915 317.541 132.983C317.314 133.051 317.058 133.111 316.774 133.162C316.49 133.213 316.208 133.259 315.93 133.298C315.652 133.338 315.41 133.372 315.206 133.401C314.745 133.463 314.333 133.565 313.97 133.707C313.606 133.849 313.319 134.048 313.109 134.304C312.899 134.554 312.794 134.878 312.794 135.276C312.794 135.844 313.001 136.273 313.416 136.562C313.831 136.852 314.359 136.997 315.001 136.997ZM327.299 131.33V139H324.214V125.909H327.163V128.134H327.316C327.618 127.401 328.098 126.818 328.757 126.386C329.422 125.955 330.243 125.739 331.22 125.739C332.123 125.739 332.91 125.932 333.581 126.318C334.257 126.705 334.779 127.264 335.149 127.997C335.524 128.73 335.708 129.619 335.703 130.665V139H332.618V131.142C332.618 130.267 332.39 129.582 331.936 129.088C331.487 128.594 330.865 128.347 330.069 128.347C329.529 128.347 329.049 128.466 328.629 128.705C328.214 128.937 327.887 129.276 327.649 129.719C327.416 130.162 327.299 130.699 327.299 131.33ZM342.606 139.264C341.777 139.264 341.029 139.116 340.365 138.821C339.706 138.52 339.183 138.077 338.797 137.491C338.416 136.906 338.225 136.185 338.225 135.327C338.225 134.588 338.362 133.977 338.635 133.494C338.907 133.011 339.279 132.625 339.751 132.335C340.223 132.045 340.754 131.827 341.345 131.679C341.941 131.526 342.558 131.415 343.194 131.347C343.961 131.267 344.583 131.196 345.061 131.134C345.538 131.065 345.885 130.963 346.1 130.827C346.322 130.685 346.433 130.466 346.433 130.17V130.119C346.433 129.477 346.243 128.98 345.862 128.628C345.481 128.276 344.933 128.099 344.217 128.099C343.461 128.099 342.862 128.264 342.419 128.594C341.981 128.923 341.686 129.312 341.532 129.761L338.652 129.352C338.879 128.557 339.254 127.892 339.777 127.358C340.299 126.818 340.939 126.415 341.694 126.148C342.45 125.875 343.285 125.739 344.2 125.739C344.831 125.739 345.458 125.812 346.083 125.96C346.708 126.108 347.279 126.352 347.797 126.693C348.314 127.028 348.728 127.486 349.041 128.065C349.359 128.645 349.518 129.369 349.518 130.239V139H346.552V137.202H346.45C346.262 137.565 345.998 137.906 345.657 138.224C345.322 138.537 344.899 138.79 344.387 138.983C343.882 139.17 343.288 139.264 342.606 139.264ZM343.407 136.997C344.027 136.997 344.564 136.875 345.018 136.631C345.473 136.381 345.822 136.051 346.066 135.642C346.316 135.233 346.441 134.787 346.441 134.304V132.761C346.345 132.841 346.18 132.915 345.947 132.983C345.72 133.051 345.464 133.111 345.18 133.162C344.896 133.213 344.615 133.259 344.336 133.298C344.058 133.338 343.816 133.372 343.612 133.401C343.152 133.463 342.74 133.565 342.376 133.707C342.012 133.849 341.725 134.048 341.515 134.304C341.305 134.554 341.2 134.878 341.2 135.276C341.2 135.844 341.407 136.273 341.822 136.562C342.237 136.852 342.765 136.997 343.407 136.997ZM355.706 121.545V139H352.62V121.545H355.706ZM360.796 143.909C360.375 143.909 359.986 143.875 359.628 143.807C359.276 143.744 358.995 143.67 358.784 143.585L359.5 141.182C359.949 141.313 360.35 141.375 360.702 141.369C361.054 141.364 361.364 141.253 361.631 141.037C361.904 140.827 362.134 140.474 362.321 139.98L362.586 139.273L357.838 125.909H361.111L364.128 135.795H364.265L367.29 125.909H370.571L365.33 140.585C365.086 141.278 364.762 141.872 364.358 142.366C363.955 142.866 363.461 143.247 362.875 143.509C362.296 143.776 361.603 143.909 360.796 143.909ZM379.243 125.909V128.295H371.718V125.909H379.243ZM373.576 122.773H376.661V135.062C376.661 135.477 376.723 135.795 376.848 136.017C376.979 136.233 377.15 136.381 377.36 136.46C377.57 136.54 377.803 136.58 378.059 136.58C378.252 136.58 378.428 136.565 378.587 136.537C378.752 136.509 378.877 136.483 378.962 136.46L379.482 138.872C379.317 138.929 379.081 138.991 378.775 139.06C378.473 139.128 378.104 139.168 377.667 139.179C376.894 139.202 376.198 139.085 375.578 138.83C374.959 138.568 374.468 138.165 374.104 137.619C373.746 137.074 373.57 136.392 373.576 135.574V122.773ZM381.824 139V125.909H384.909V139H381.824ZM383.375 124.051C382.886 124.051 382.466 123.889 382.113 123.565C381.761 123.236 381.585 122.841 381.585 122.381C381.585 121.915 381.761 121.52 382.113 121.196C382.466 120.866 382.886 120.702 383.375 120.702C383.869 120.702 384.289 120.866 384.636 121.196C384.988 121.52 385.164 121.915 385.164 122.381C385.164 122.841 384.988 123.236 384.636 123.565C384.289 123.889 383.869 124.051 383.375 124.051ZM393.792 139.256C392.485 139.256 391.363 138.969 390.425 138.395C389.493 137.821 388.775 137.028 388.269 136.017C387.769 135 387.519 133.83 387.519 132.506C387.519 131.176 387.775 130.003 388.286 128.986C388.797 127.963 389.519 127.168 390.451 126.599C391.388 126.026 392.496 125.739 393.775 125.739C394.837 125.739 395.777 125.935 396.596 126.327C397.419 126.713 398.076 127.261 398.564 127.972C399.053 128.676 399.331 129.5 399.4 130.443H396.451C396.331 129.812 396.047 129.287 395.598 128.866C395.155 128.44 394.561 128.227 393.817 128.227C393.186 128.227 392.632 128.398 392.155 128.739C391.678 129.074 391.306 129.557 391.039 130.188C390.777 130.818 390.647 131.574 390.647 132.455C390.647 133.347 390.777 134.114 391.039 134.756C391.3 135.392 391.667 135.884 392.138 136.23C392.615 136.571 393.175 136.741 393.817 136.741C394.272 136.741 394.678 136.656 395.036 136.486C395.4 136.31 395.703 136.057 395.948 135.727C396.192 135.398 396.36 134.997 396.451 134.526H399.4C399.326 135.452 399.053 136.273 398.581 136.989C398.11 137.699 397.468 138.256 396.655 138.659C395.843 139.057 394.888 139.256 393.792 139.256ZM412.279 129.369L409.467 129.676C409.387 129.392 409.248 129.125 409.049 128.875C408.856 128.625 408.595 128.423 408.265 128.27C407.936 128.116 407.532 128.04 407.055 128.04C406.413 128.04 405.873 128.179 405.436 128.457C405.004 128.736 404.791 129.097 404.797 129.54C404.791 129.92 404.93 130.23 405.214 130.469C405.504 130.707 405.981 130.903 406.646 131.057L408.879 131.534C410.118 131.801 411.038 132.224 411.64 132.804C412.248 133.384 412.555 134.142 412.561 135.08C412.555 135.903 412.314 136.631 411.836 137.261C411.365 137.886 410.708 138.375 409.868 138.727C409.027 139.08 408.061 139.256 406.97 139.256C405.368 139.256 404.078 138.92 403.1 138.25C402.123 137.574 401.541 136.634 401.353 135.429L404.362 135.139C404.498 135.73 404.788 136.176 405.231 136.477C405.674 136.778 406.251 136.929 406.961 136.929C407.694 136.929 408.282 136.778 408.725 136.477C409.174 136.176 409.399 135.804 409.399 135.361C409.399 134.986 409.254 134.676 408.964 134.432C408.68 134.187 408.237 134 407.635 133.869L405.402 133.401C404.146 133.139 403.217 132.699 402.615 132.08C402.012 131.455 401.714 130.665 401.72 129.71C401.714 128.903 401.933 128.205 402.376 127.614C402.825 127.017 403.447 126.557 404.243 126.233C405.044 125.903 405.967 125.739 407.012 125.739C408.547 125.739 409.754 126.065 410.635 126.719C411.521 127.372 412.069 128.256 412.279 129.369Z" fill="#3A74B5"/>
</svg>
