<?xml version="1.0" encoding="UTF-8" standalone="yes"?>
<svg width="24" height="24" viewBox="0 0 24 24" fill="none" version="1.2" baseProfile="tiny-ps" xmlns="http://www.w3.org/2000/svg">
  <title>bimi-svg-tiny-12-ps</title>
  <path fill-rule="evenodd" d="M2.08891 9.91851L21.8714 3.00563C21.8991 2.9965 21.9292 2.99856 21.9554 3.01136C21.9816 3.02415 22.0017 3.04667 22.0115 3.07411C22.0156 3.08599 22.0177 3.09846 22.0177 3.11102V20.8884C22.0177 20.918 22.006 20.9464 21.9851 20.9673C21.9641 20.9883 21.9357 21 21.9061 21H21.8915L2.10581 20.035C2.07722 20.0335 2.0503 20.0211 2.0306 20.0003C2.0109 19.9796 1.99994 19.952 1.99997 19.9234V10.0275C1.99999 10.0019 2.00885 9.9771 2.02507 9.95732C2.04128 9.93754 2.06384 9.92354 2.08891 9.91851ZM4.24883 11.8223C4.15092 11.8035 4.04954 11.822 3.96451 11.874C3.87949 11.926 3.81696 12.008 3.78914 12.1037C3.76133 12.1994 3.77025 12.3021 3.81414 12.3916C3.85804 12.4811 3.93376 12.551 4.02648 12.5876L11.2542 14.6777L11.4156 14.5443L18.6131 8.60619C18.6596 8.57514 18.6991 8.53469 18.7291 8.48744C18.759 8.44019 18.7787 8.3872 18.7868 8.33187C18.795 8.27655 18.7915 8.22012 18.7766 8.16623C18.7616 8.11234 18.7355 8.06219 18.7 8.019C18.6644 7.97581 18.6202 7.94055 18.5702 7.9155C18.5202 7.89044 18.4656 7.87614 18.4097 7.87351C18.3538 7.87089 18.298 7.88001 18.2459 7.90027C18.1938 7.92054 18.1465 7.9515 18.107 7.99117L11.0719 13.7972L4.24883 11.8223Z" fill="#1E75BA"/>
</svg>