<svg width="600" height="450" viewBox="0 0 600 450" fill="none" xmlns="http://www.w3.org/2000/svg">
<rect x="40" y="70" width="172" height="109" rx="8" fill="#E2F0FF"/>
<path d="M82.666 111.167H61.3327C59.866 111.167 58.666 112.367 58.666 113.833V137.833L63.9993 132.5H82.666C84.1327 132.5 85.3327 131.3 85.3327 129.833V113.833C85.3327 112.367 84.1327 111.167 82.666 111.167ZM82.666 129.833H63.9993L61.3327 132.5V113.833H82.666V129.833Z" fill="#1E75BA"/>
<path d="M96.6165 96.1406V94.8182H104.496V96.1406H101.32V105H99.7884V96.1406H96.6165ZM108.228 105.154C107.512 105.154 106.887 104.99 106.353 104.662C105.82 104.334 105.405 103.875 105.11 103.285C104.815 102.695 104.668 102.005 104.668 101.217C104.668 100.424 104.815 99.7318 105.11 99.1385C105.405 98.5452 105.82 98.0845 106.353 97.7564C106.887 97.4283 107.512 97.2642 108.228 97.2642C108.944 97.2642 109.568 97.4283 110.102 97.7564C110.636 98.0845 111.05 98.5452 111.345 99.1385C111.64 99.7318 111.787 100.424 111.787 101.217C111.787 102.005 111.64 102.695 111.345 103.285C111.05 103.875 110.636 104.334 110.102 104.662C109.568 104.99 108.944 105.154 108.228 105.154ZM108.233 103.906C108.697 103.906 109.081 103.784 109.386 103.538C109.691 103.293 109.916 102.967 110.062 102.559C110.211 102.151 110.286 101.702 110.286 101.212C110.286 100.724 110.211 100.277 110.062 99.8693C109.916 99.4583 109.691 99.1286 109.386 98.88C109.081 98.6314 108.697 98.5071 108.233 98.5071C107.765 98.5071 107.377 98.6314 107.069 98.88C106.764 99.1286 106.537 99.4583 106.388 99.8693C106.242 100.277 106.169 100.724 106.169 101.212C106.169 101.702 106.242 102.151 106.388 102.559C106.537 102.967 106.764 103.293 107.069 103.538C107.377 103.784 107.765 103.906 108.233 103.906ZM117.011 97.3636V98.5568H112.84V97.3636H117.011ZM113.959 95.5341H115.445V102.758C115.445 103.046 115.488 103.263 115.574 103.409C115.661 103.552 115.772 103.649 115.907 103.702C116.047 103.752 116.198 103.777 116.36 103.777C116.479 103.777 116.584 103.769 116.673 103.752C116.763 103.736 116.832 103.722 116.882 103.712L117.15 104.94C117.064 104.973 116.942 105.007 116.782 105.04C116.623 105.076 116.425 105.096 116.186 105.099C115.795 105.106 115.43 105.036 115.092 104.891C114.754 104.745 114.481 104.519 114.272 104.214C114.063 103.91 113.959 103.527 113.959 103.066V95.5341ZM120.878 105.169C120.394 105.169 119.956 105.08 119.565 104.901C119.174 104.718 118.864 104.455 118.636 104.11C118.41 103.765 118.298 103.343 118.298 102.842C118.298 102.411 118.38 102.057 118.546 101.778C118.712 101.5 118.936 101.28 119.217 101.117C119.499 100.955 119.814 100.832 120.162 100.749C120.51 100.666 120.865 100.603 121.226 100.56C121.683 100.507 122.054 100.464 122.339 100.431C122.625 100.395 122.832 100.337 122.961 100.257C123.09 100.178 123.155 100.048 123.155 99.8693V99.8345C123.155 99.4003 123.032 99.0639 122.787 98.8253C122.545 98.5866 122.184 98.4673 121.703 98.4673C121.203 98.4673 120.808 98.5784 120.52 98.8004C120.235 99.0192 120.038 99.2628 119.928 99.5312L118.531 99.2131C118.697 98.7491 118.939 98.3745 119.257 98.0895C119.579 97.8011 119.948 97.5923 120.366 97.4631C120.783 97.3305 121.223 97.2642 121.683 97.2642C121.988 97.2642 122.311 97.3007 122.653 97.3736C122.997 97.4432 123.319 97.5724 123.617 97.7614C123.919 97.9503 124.166 98.2204 124.358 98.5717C124.55 98.9197 124.646 99.3722 124.646 99.929V105H123.195V103.956H123.135C123.039 104.148 122.895 104.337 122.702 104.523C122.51 104.708 122.263 104.862 121.962 104.985C121.66 105.108 121.299 105.169 120.878 105.169ZM121.201 103.976C121.612 103.976 121.963 103.895 122.255 103.732C122.55 103.57 122.774 103.358 122.926 103.096C123.082 102.831 123.16 102.547 123.16 102.246V101.261C123.107 101.314 123.004 101.364 122.852 101.411C122.702 101.454 122.532 101.492 122.339 101.525C122.147 101.555 121.96 101.583 121.778 101.609C121.595 101.633 121.443 101.652 121.32 101.669C121.032 101.705 120.768 101.767 120.53 101.853C120.295 101.939 120.106 102.063 119.963 102.226C119.824 102.385 119.754 102.597 119.754 102.862C119.754 103.23 119.89 103.509 120.162 103.697C120.434 103.883 120.78 103.976 121.201 103.976ZM128.113 94.8182V105H126.626V94.8182H128.113ZM136.676 105.149C136.06 105.149 135.51 104.992 135.026 104.677C134.545 104.359 134.167 103.906 133.892 103.32C133.62 102.73 133.485 102.022 133.485 101.197C133.485 100.371 133.622 99.6655 133.897 99.0788C134.176 98.4922 134.557 98.0431 135.041 97.7315C135.525 97.42 136.073 97.2642 136.686 97.2642C137.16 97.2642 137.541 97.3438 137.83 97.5028C138.121 97.6586 138.347 97.8409 138.506 98.0497C138.668 98.2585 138.794 98.4425 138.884 98.6016H138.973V94.8182H140.46V105H139.008V103.812H138.884C138.794 103.974 138.665 104.16 138.496 104.369C138.33 104.577 138.102 104.76 137.81 104.915C137.518 105.071 137.14 105.149 136.676 105.149ZM137.004 103.881C137.432 103.881 137.793 103.769 138.088 103.543C138.387 103.315 138.612 102.998 138.764 102.594C138.92 102.189 138.998 101.719 138.998 101.182C138.998 100.652 138.922 100.187 138.769 99.7898C138.617 99.392 138.393 99.0821 138.098 98.8601C137.803 98.638 137.439 98.527 137.004 98.527C136.557 98.527 136.184 98.643 135.886 98.875C135.588 99.107 135.362 99.4235 135.21 99.8246C135.061 100.226 134.986 100.678 134.986 101.182C134.986 101.692 135.062 102.151 135.215 102.559C135.367 102.967 135.593 103.29 135.891 103.528C136.192 103.764 136.564 103.881 137.004 103.881ZM145.873 105.154C145.12 105.154 144.472 104.993 143.929 104.672C143.388 104.347 142.971 103.891 142.676 103.305C142.384 102.715 142.238 102.024 142.238 101.232C142.238 100.449 142.384 99.7599 142.676 99.1634C142.971 98.5668 143.382 98.1011 143.909 97.7663C144.439 97.4316 145.059 97.2642 145.768 97.2642C146.199 97.2642 146.617 97.3355 147.021 97.478C147.425 97.6205 147.788 97.8442 148.11 98.1491C148.431 98.4541 148.685 98.8501 148.87 99.3374C149.056 99.8213 149.149 100.41 149.149 101.102V101.629H143.078V100.516H147.692C147.692 100.125 147.613 99.7782 147.453 99.4766C147.294 99.1716 147.071 98.9313 146.782 98.7557C146.497 98.58 146.163 98.4922 145.778 98.4922C145.36 98.4922 144.996 98.5949 144.684 98.8004C144.376 99.0026 144.137 99.2678 143.968 99.5959C143.803 99.9207 143.72 100.274 143.72 100.655V101.525C143.72 102.035 143.809 102.469 143.988 102.827C144.171 103.185 144.424 103.459 144.749 103.648C145.074 103.833 145.453 103.926 145.887 103.926C146.169 103.926 146.426 103.886 146.658 103.807C146.89 103.724 147.091 103.601 147.26 103.439C147.429 103.277 147.558 103.076 147.647 102.837L149.054 103.091C148.942 103.505 148.739 103.868 148.448 104.18C148.159 104.488 147.797 104.728 147.359 104.901C146.925 105.07 146.429 105.154 145.873 105.154ZM96.9993 125V117.364H98.4261V118.607H98.5206C98.6797 118.186 98.9399 117.857 99.3011 117.622C99.6624 117.384 100.095 117.264 100.599 117.264C101.109 117.264 101.537 117.384 101.881 117.622C102.229 117.861 102.486 118.189 102.652 118.607H102.732C102.914 118.199 103.204 117.874 103.602 117.632C103.999 117.387 104.473 117.264 105.023 117.264C105.716 117.264 106.281 117.481 106.719 117.915C107.16 118.35 107.38 119.004 107.38 119.879V125H105.893V120.018C105.893 119.501 105.753 119.127 105.471 118.895C105.189 118.663 104.853 118.547 104.462 118.547C103.978 118.547 103.602 118.696 103.333 118.994C103.065 119.289 102.93 119.669 102.93 120.133V125H101.449V119.924C101.449 119.51 101.32 119.177 101.061 118.925C100.803 118.673 100.466 118.547 100.052 118.547C99.7701 118.547 99.5099 118.621 99.2713 118.771C99.036 118.916 98.8454 119.12 98.6996 119.382C98.5571 119.644 98.4858 119.947 98.4858 120.292V125H96.9993ZM112.664 125.154C111.911 125.154 111.263 124.993 110.72 124.672C110.179 124.347 109.762 123.891 109.467 123.305C109.175 122.715 109.029 122.024 109.029 121.232C109.029 120.449 109.175 119.76 109.467 119.163C109.762 118.567 110.173 118.101 110.7 117.766C111.23 117.432 111.85 117.264 112.559 117.264C112.99 117.264 113.408 117.335 113.812 117.478C114.216 117.621 114.579 117.844 114.901 118.149C115.222 118.454 115.476 118.85 115.661 119.337C115.847 119.821 115.94 120.41 115.94 121.102V121.629H109.869V120.516H114.483C114.483 120.125 114.404 119.778 114.244 119.477C114.085 119.172 113.862 118.931 113.573 118.756C113.288 118.58 112.954 118.492 112.569 118.492C112.151 118.492 111.787 118.595 111.475 118.8C111.167 119.003 110.928 119.268 110.759 119.596C110.594 119.921 110.511 120.274 110.511 120.655V121.525C110.511 122.035 110.6 122.469 110.779 122.827C110.962 123.185 111.215 123.459 111.54 123.648C111.865 123.833 112.244 123.926 112.678 123.926C112.96 123.926 113.217 123.886 113.449 123.807C113.681 123.724 113.882 123.601 114.051 123.439C114.22 123.277 114.349 123.076 114.438 122.837L115.845 123.091C115.733 123.505 115.53 123.868 115.239 124.18C114.95 124.488 114.588 124.728 114.15 124.901C113.716 125.07 113.22 125.154 112.664 125.154ZM119.076 120.466V125H117.589V117.364H119.016V118.607H119.11C119.286 118.202 119.561 117.877 119.936 117.632C120.314 117.387 120.789 117.264 121.363 117.264C121.883 117.264 122.339 117.374 122.73 117.592C123.121 117.808 123.424 118.129 123.64 118.557C123.855 118.984 123.963 119.513 123.963 120.143V125H122.476V120.322C122.476 119.768 122.332 119.336 122.044 119.024C121.755 118.709 121.359 118.552 120.855 118.552C120.511 118.552 120.204 118.626 119.936 118.776C119.671 118.925 119.46 119.143 119.304 119.432C119.152 119.717 119.076 120.062 119.076 120.466ZM131.679 119.228L130.331 119.467C130.275 119.294 130.185 119.13 130.063 118.974C129.944 118.819 129.781 118.691 129.576 118.592C129.37 118.492 129.113 118.442 128.805 118.442C128.384 118.442 128.033 118.537 127.751 118.726C127.469 118.911 127.328 119.152 127.328 119.447C127.328 119.702 127.423 119.907 127.612 120.063C127.801 120.219 128.106 120.347 128.527 120.446L129.74 120.724C130.442 120.887 130.966 121.137 131.311 121.475C131.655 121.813 131.828 122.252 131.828 122.793C131.828 123.25 131.695 123.658 131.43 124.016C131.168 124.37 130.802 124.649 130.331 124.851C129.864 125.053 129.322 125.154 128.706 125.154C127.85 125.154 127.153 124.972 126.613 124.607C126.072 124.239 125.741 123.717 125.618 123.041L127.055 122.822C127.145 123.197 127.328 123.48 127.607 123.673C127.885 123.862 128.248 123.956 128.696 123.956C129.183 123.956 129.572 123.855 129.864 123.653C130.156 123.447 130.301 123.197 130.301 122.902C130.301 122.663 130.212 122.463 130.033 122.3C129.857 122.138 129.587 122.015 129.223 121.933L127.93 121.649C127.217 121.487 126.69 121.228 126.349 120.874C126.011 120.519 125.842 120.07 125.842 119.526C125.842 119.076 125.968 118.681 126.22 118.343C126.472 118.005 126.82 117.741 127.264 117.553C127.708 117.36 128.217 117.264 128.79 117.264C129.615 117.264 130.265 117.443 130.739 117.801C131.213 118.156 131.526 118.631 131.679 119.228ZM135.684 125.169C135.201 125.169 134.763 125.08 134.372 124.901C133.981 124.718 133.671 124.455 133.442 124.11C133.217 123.765 133.104 123.343 133.104 122.842C133.104 122.411 133.187 122.057 133.353 121.778C133.519 121.5 133.742 121.28 134.024 121.117C134.306 120.955 134.621 120.832 134.969 120.749C135.317 120.666 135.671 120.603 136.032 120.56C136.49 120.507 136.861 120.464 137.146 120.431C137.431 120.395 137.638 120.337 137.768 120.257C137.897 120.178 137.961 120.048 137.961 119.869V119.835C137.961 119.4 137.839 119.064 137.594 118.825C137.352 118.587 136.99 118.467 136.51 118.467C136.009 118.467 135.615 118.578 135.327 118.8C135.041 119.019 134.844 119.263 134.735 119.531L133.338 119.213C133.504 118.749 133.746 118.375 134.064 118.089C134.385 117.801 134.755 117.592 135.172 117.463C135.59 117.33 136.029 117.264 136.49 117.264C136.795 117.264 137.118 117.301 137.459 117.374C137.804 117.443 138.126 117.572 138.424 117.761C138.725 117.95 138.972 118.22 139.165 118.572C139.357 118.92 139.453 119.372 139.453 119.929V125H138.001V123.956H137.942C137.845 124.148 137.701 124.337 137.509 124.523C137.317 124.708 137.07 124.862 136.768 124.985C136.467 125.108 136.105 125.169 135.684 125.169ZM136.008 123.976C136.419 123.976 136.77 123.895 137.062 123.732C137.357 123.57 137.58 123.358 137.733 123.096C137.889 122.831 137.966 122.547 137.966 122.246V121.261C137.913 121.314 137.811 121.364 137.658 121.411C137.509 121.454 137.338 121.492 137.146 121.525C136.954 121.555 136.767 121.583 136.584 121.609C136.402 121.633 136.25 121.652 136.127 121.669C135.839 121.705 135.575 121.767 135.336 121.853C135.101 121.939 134.912 122.063 134.77 122.226C134.631 122.385 134.561 122.597 134.561 122.862C134.561 123.23 134.697 123.509 134.969 123.697C135.24 123.883 135.587 123.976 136.008 123.976ZM144.635 128.023C144.028 128.023 143.506 127.943 143.069 127.784C142.634 127.625 142.28 127.415 142.005 127.153C141.73 126.891 141.524 126.604 141.388 126.293L142.666 125.766C142.755 125.911 142.875 126.066 143.024 126.228C143.176 126.394 143.382 126.535 143.64 126.651C143.902 126.767 144.239 126.825 144.65 126.825C145.213 126.825 145.679 126.687 146.047 126.412C146.414 126.14 146.598 125.706 146.598 125.109V123.608H146.504C146.414 123.77 146.285 123.951 146.116 124.15C145.95 124.349 145.722 124.521 145.43 124.667C145.138 124.813 144.759 124.886 144.292 124.886C143.688 124.886 143.145 124.745 142.661 124.463C142.18 124.178 141.799 123.759 141.517 123.205C141.239 122.648 141.1 121.964 141.1 121.152C141.1 120.34 141.237 119.644 141.512 119.064C141.791 118.484 142.172 118.04 142.656 117.732C143.14 117.42 143.688 117.264 144.301 117.264C144.775 117.264 145.158 117.344 145.45 117.503C145.742 117.659 145.969 117.841 146.131 118.05C146.297 118.259 146.424 118.442 146.514 118.602H146.623V117.364H148.08V125.169C148.08 125.825 147.927 126.364 147.623 126.785C147.318 127.206 146.905 127.517 146.385 127.719C145.868 127.922 145.284 128.023 144.635 128.023ZM144.62 123.653C145.047 123.653 145.408 123.553 145.703 123.354C146.002 123.152 146.227 122.864 146.38 122.489C146.535 122.112 146.613 121.659 146.613 121.132C146.613 120.618 146.537 120.166 146.385 119.775C146.232 119.384 146.008 119.079 145.713 118.86C145.418 118.638 145.054 118.527 144.62 118.527C144.172 118.527 143.799 118.643 143.501 118.875C143.203 119.104 142.977 119.415 142.825 119.81C142.676 120.204 142.601 120.645 142.601 121.132C142.601 121.633 142.677 122.072 142.83 122.45C142.982 122.827 143.208 123.122 143.506 123.335C143.808 123.547 144.179 123.653 144.62 123.653ZM153.365 125.154C152.612 125.154 151.964 124.993 151.421 124.672C150.881 124.347 150.463 123.891 150.168 123.305C149.876 122.715 149.73 122.024 149.73 121.232C149.73 120.449 149.876 119.76 150.168 119.163C150.463 118.567 150.874 118.101 151.401 117.766C151.931 117.432 152.551 117.264 153.26 117.264C153.691 117.264 154.109 117.335 154.513 117.478C154.917 117.621 155.28 117.844 155.602 118.149C155.923 118.454 156.177 118.85 156.363 119.337C156.548 119.821 156.641 120.41 156.641 121.102V121.629H150.571V120.516H155.184C155.184 120.125 155.105 119.778 154.946 119.477C154.787 119.172 154.563 118.931 154.275 118.756C153.989 118.58 153.655 118.492 153.27 118.492C152.853 118.492 152.488 118.595 152.176 118.8C151.868 119.003 151.63 119.268 151.461 119.596C151.295 119.921 151.212 120.274 151.212 120.655V121.525C151.212 122.035 151.301 122.469 151.48 122.827C151.663 123.185 151.916 123.459 152.241 123.648C152.566 123.833 152.945 123.926 153.38 123.926C153.661 123.926 153.918 123.886 154.15 123.807C154.382 123.724 154.583 123.601 154.752 123.439C154.921 123.277 155.05 123.076 155.14 122.837L156.547 123.091C156.434 123.505 156.232 123.868 155.94 124.18C155.652 124.488 155.289 124.728 154.851 124.901C154.417 125.07 153.922 125.154 153.365 125.154ZM159.777 120.466V125H158.29V117.364H159.717V118.607H159.812C159.987 118.202 160.262 117.877 160.637 117.632C161.015 117.387 161.49 117.264 162.064 117.264C162.584 117.264 163.04 117.374 163.431 117.592C163.822 117.808 164.125 118.129 164.341 118.557C164.556 118.984 164.664 119.513 164.664 120.143V125H163.177V120.322C163.177 119.768 163.033 119.336 162.745 119.024C162.456 118.709 162.06 118.552 161.557 118.552C161.212 118.552 160.905 118.626 160.637 118.776C160.372 118.925 160.161 119.143 160.006 119.432C159.853 119.717 159.777 120.062 159.777 120.466ZM172.38 119.228L171.032 119.467C170.976 119.294 170.887 119.13 170.764 118.974C170.645 118.819 170.482 118.691 170.277 118.592C170.071 118.492 169.814 118.442 169.506 118.442C169.085 118.442 168.734 118.537 168.452 118.726C168.171 118.911 168.03 119.152 168.03 119.447C168.03 119.702 168.124 119.907 168.313 120.063C168.502 120.219 168.807 120.347 169.228 120.446L170.441 120.724C171.144 120.887 171.667 121.137 172.012 121.475C172.357 121.813 172.529 122.252 172.529 122.793C172.529 123.25 172.396 123.658 172.131 124.016C171.869 124.37 171.503 124.649 171.032 124.851C170.565 125.053 170.023 125.154 169.407 125.154C168.552 125.154 167.854 124.972 167.314 124.607C166.773 124.239 166.442 123.717 166.319 123.041L167.756 122.822C167.846 123.197 168.03 123.48 168.308 123.673C168.586 123.862 168.949 123.956 169.397 123.956C169.884 123.956 170.273 123.855 170.565 123.653C170.857 123.447 171.003 123.197 171.003 122.902C171.003 122.663 170.913 122.463 170.734 122.3C170.559 122.138 170.288 122.015 169.924 121.933L168.631 121.649C167.919 121.487 167.392 121.228 167.05 120.874C166.712 120.519 166.543 120.07 166.543 119.526C166.543 119.076 166.669 118.681 166.921 118.343C167.173 118.005 167.521 117.741 167.965 117.553C168.409 117.36 168.918 117.264 169.491 117.264C170.317 117.264 170.966 117.443 171.44 117.801C171.914 118.156 172.227 118.631 172.38 119.228Z" fill="#1E75BA"/>
<path d="M103.79 153.239C102.585 153.239 101.511 153.017 100.568 152.574C99.6307 152.131 98.8864 151.52 98.3352 150.741C97.7841 149.963 97.4972 149.071 97.4744 148.065H101.054C101.094 148.741 101.378 149.29 101.906 149.71C102.435 150.131 103.062 150.341 103.79 150.341C104.369 150.341 104.881 150.213 105.324 149.957C105.773 149.696 106.122 149.335 106.372 148.875C106.628 148.409 106.756 147.875 106.756 147.273C106.756 146.659 106.625 146.119 106.364 145.653C106.108 145.187 105.753 144.824 105.298 144.562C104.844 144.301 104.324 144.168 103.739 144.162C103.227 144.162 102.73 144.267 102.247 144.477C101.77 144.687 101.398 144.974 101.131 145.338L97.8494 144.75L98.6761 135.545H109.347V138.562H101.719L101.267 142.935H101.369C101.676 142.503 102.139 142.145 102.759 141.861C103.378 141.577 104.071 141.435 104.838 141.435C105.889 141.435 106.827 141.682 107.651 142.176C108.474 142.67 109.125 143.349 109.602 144.213C110.08 145.071 110.315 146.06 110.31 147.179C110.315 148.355 110.043 149.401 109.491 150.315C108.946 151.224 108.182 151.94 107.199 152.463C106.222 152.98 105.085 153.239 103.79 153.239ZM119.727 153.384C118.261 153.378 117 153.017 115.943 152.301C114.892 151.585 114.082 150.548 113.514 149.19C112.952 147.832 112.673 146.199 112.679 144.29C112.679 142.386 112.96 140.764 113.523 139.423C114.091 138.082 114.901 137.062 115.952 136.364C117.009 135.659 118.267 135.307 119.727 135.307C121.188 135.307 122.443 135.659 123.494 136.364C124.551 137.068 125.364 138.091 125.932 139.432C126.5 140.767 126.781 142.386 126.776 144.29C126.776 146.205 126.491 147.841 125.923 149.199C125.361 150.557 124.554 151.594 123.503 152.31C122.452 153.026 121.193 153.384 119.727 153.384ZM119.727 150.324C120.727 150.324 121.526 149.821 122.122 148.815C122.719 147.81 123.014 146.301 123.009 144.29C123.009 142.966 122.872 141.864 122.599 140.983C122.332 140.102 121.952 139.44 121.457 138.997C120.969 138.554 120.392 138.332 119.727 138.332C118.733 138.332 117.938 138.83 117.341 139.824C116.744 140.818 116.443 142.307 116.438 144.29C116.438 145.631 116.571 146.75 116.838 147.648C117.111 148.54 117.494 149.21 117.989 149.659C118.483 150.102 119.062 150.324 119.727 150.324ZM134.996 153V139.909H138.456V142.219H138.609C138.882 141.452 139.337 140.847 139.973 140.403C140.609 139.96 141.371 139.739 142.257 139.739C143.155 139.739 143.919 139.963 144.55 140.412C145.18 140.855 145.601 141.457 145.811 142.219H145.947C146.214 141.469 146.697 140.869 147.396 140.42C148.101 139.966 148.933 139.739 149.893 139.739C151.115 139.739 152.107 140.128 152.868 140.906C153.635 141.679 154.018 142.776 154.018 144.196V153H150.396V144.912C150.396 144.185 150.203 143.639 149.817 143.276C149.43 142.912 148.947 142.73 148.368 142.73C147.709 142.73 147.195 142.94 146.825 143.361C146.456 143.776 146.271 144.324 146.271 145.006V153H142.751V144.835C142.751 144.193 142.567 143.682 142.197 143.301C141.834 142.92 141.354 142.73 140.757 142.73C140.354 142.73 139.99 142.832 139.666 143.037C139.348 143.236 139.095 143.517 138.908 143.881C138.72 144.239 138.626 144.659 138.626 145.142V153H134.996ZM156.886 153V139.909H160.517V153H156.886ZM158.71 138.222C158.17 138.222 157.707 138.043 157.321 137.685C156.94 137.321 156.75 136.886 156.75 136.381C156.75 135.881 156.94 135.452 157.321 135.094C157.707 134.73 158.17 134.548 158.71 134.548C159.25 134.548 159.71 134.73 160.091 135.094C160.477 135.452 160.67 135.881 160.67 136.381C160.67 136.886 160.477 137.321 160.091 137.685C159.71 138.043 159.25 138.222 158.71 138.222ZM167.056 135.545V153H163.425V135.545H167.056Z" fill="#1E75BA"/>
<rect x="388" y="177" width="172" height="89" rx="8" fill="#F9EAE5"/>
<path d="M430.666 208.167H409.333C407.866 208.167 406.666 209.367 406.666 210.833V234.833L411.999 229.5H430.666C432.133 229.5 433.333 228.3 433.333 226.833V210.833C433.333 209.367 432.133 208.167 430.666 208.167ZM430.666 226.833H410.893L409.333 228.393V210.833H430.666V226.833ZM418.666 212.167H421.333V220.167H418.666V212.167ZM418.666 222.833H421.333V225.5H418.666V222.833Z" fill="#CC5229"/>
<path d="M449.119 212V201.818H455.433V203.141H450.655V206.243H454.98V207.56H450.655V212H449.119ZM457.107 212V204.364H458.544V205.577H458.623C458.762 205.166 459.008 204.843 459.359 204.607C459.713 204.369 460.115 204.249 460.562 204.249C460.655 204.249 460.764 204.253 460.89 204.259C461.019 204.266 461.12 204.274 461.193 204.284V205.706C461.134 205.689 461.028 205.671 460.875 205.651C460.723 205.628 460.57 205.616 460.418 205.616C460.066 205.616 459.753 205.691 459.478 205.84C459.206 205.986 458.991 206.19 458.832 206.452C458.673 206.71 458.593 207.005 458.593 207.337V212H457.107ZM464.634 212.169C464.15 212.169 463.712 212.08 463.321 211.901C462.93 211.718 462.62 211.455 462.392 211.11C462.166 210.765 462.053 210.343 462.053 209.842C462.053 209.411 462.136 209.057 462.302 208.778C462.468 208.5 462.691 208.28 462.973 208.117C463.255 207.955 463.57 207.832 463.918 207.749C464.266 207.666 464.62 207.603 464.982 207.56C465.439 207.507 465.81 207.464 466.095 207.431C466.38 207.395 466.588 207.337 466.717 207.257C466.846 207.178 466.911 207.048 466.911 206.869V206.835C466.911 206.4 466.788 206.064 466.543 205.825C466.301 205.587 465.94 205.467 465.459 205.467C464.959 205.467 464.564 205.578 464.276 205.8C463.991 206.019 463.794 206.263 463.684 206.531L462.287 206.213C462.453 205.749 462.695 205.375 463.013 205.089C463.334 204.801 463.704 204.592 464.122 204.463C464.539 204.33 464.978 204.264 465.439 204.264C465.744 204.264 466.067 204.301 466.409 204.374C466.753 204.443 467.075 204.572 467.373 204.761C467.675 204.95 467.922 205.22 468.114 205.572C468.306 205.92 468.402 206.372 468.402 206.929V212H466.95V210.956H466.891C466.795 211.148 466.651 211.337 466.458 211.523C466.266 211.708 466.019 211.862 465.718 211.985C465.416 212.108 465.055 212.169 464.634 212.169ZM464.957 210.976C465.368 210.976 465.719 210.895 466.011 210.732C466.306 210.57 466.53 210.358 466.682 210.096C466.838 209.831 466.916 209.547 466.916 209.246V208.261C466.863 208.314 466.76 208.364 466.607 208.411C466.458 208.454 466.288 208.492 466.095 208.525C465.903 208.555 465.716 208.583 465.534 208.609C465.351 208.633 465.199 208.652 465.076 208.669C464.788 208.705 464.524 208.767 464.286 208.853C464.05 208.939 463.861 209.063 463.719 209.226C463.58 209.385 463.51 209.597 463.51 209.862C463.51 210.23 463.646 210.509 463.918 210.697C464.19 210.883 464.536 210.976 464.957 210.976ZM473.599 212.154C472.86 212.154 472.223 211.987 471.69 211.652C471.159 211.314 470.752 210.848 470.467 210.255C470.182 209.662 470.039 208.982 470.039 208.217C470.039 207.441 470.185 206.757 470.477 206.163C470.768 205.567 471.179 205.101 471.71 204.766C472.24 204.432 472.865 204.264 473.584 204.264C474.164 204.264 474.681 204.372 475.135 204.587C475.589 204.799 475.955 205.098 476.234 205.482C476.515 205.867 476.683 206.316 476.736 206.83H475.289C475.21 206.472 475.027 206.163 474.742 205.905C474.46 205.646 474.083 205.517 473.609 205.517C473.194 205.517 472.831 205.626 472.52 205.845C472.212 206.061 471.971 206.369 471.799 206.77C471.627 207.168 471.54 207.638 471.54 208.182C471.54 208.739 471.625 209.219 471.794 209.624C471.963 210.028 472.202 210.341 472.51 210.563C472.821 210.785 473.188 210.896 473.609 210.896C473.89 210.896 474.146 210.845 474.374 210.742C474.606 210.636 474.8 210.485 474.956 210.29C475.115 210.094 475.226 209.859 475.289 209.584H476.736C476.683 210.078 476.522 210.518 476.254 210.906C475.985 211.294 475.625 211.599 475.175 211.821C474.727 212.043 474.202 212.154 473.599 212.154ZM480.548 212.169C480.064 212.169 479.626 212.08 479.235 211.901C478.844 211.718 478.534 211.455 478.306 211.11C478.08 210.765 477.968 210.343 477.968 209.842C477.968 209.411 478.05 209.057 478.216 208.778C478.382 208.5 478.606 208.28 478.887 208.117C479.169 207.955 479.484 207.832 479.832 207.749C480.18 207.666 480.535 207.603 480.896 207.56C481.353 207.507 481.724 207.464 482.009 207.431C482.294 207.395 482.502 207.337 482.631 207.257C482.76 207.178 482.825 207.048 482.825 206.869V206.835C482.825 206.4 482.702 206.064 482.457 205.825C482.215 205.587 481.854 205.467 481.373 205.467C480.873 205.467 480.478 205.578 480.19 205.8C479.905 206.019 479.708 206.263 479.598 206.531L478.201 206.213C478.367 205.749 478.609 205.375 478.927 205.089C479.249 204.801 479.618 204.592 480.036 204.463C480.453 204.33 480.892 204.264 481.353 204.264C481.658 204.264 481.981 204.301 482.323 204.374C482.667 204.443 482.989 204.572 483.287 204.761C483.589 204.95 483.836 205.22 484.028 205.572C484.22 205.92 484.316 206.372 484.316 206.929V212H482.865V210.956H482.805C482.709 211.148 482.565 211.337 482.372 211.523C482.18 211.708 481.933 211.862 481.632 211.985C481.33 212.108 480.969 212.169 480.548 212.169ZM480.871 210.976C481.282 210.976 481.633 210.895 481.925 210.732C482.22 210.57 482.444 210.358 482.596 210.096C482.752 209.831 482.83 209.547 482.83 209.246V208.261C482.777 208.314 482.674 208.364 482.521 208.411C482.372 208.454 482.202 208.492 482.009 208.525C481.817 208.555 481.63 208.583 481.448 208.609C481.265 208.633 481.113 208.652 480.99 208.669C480.702 208.705 480.438 208.767 480.2 208.853C479.964 208.939 479.776 209.063 479.633 209.226C479.494 209.385 479.424 209.597 479.424 209.862C479.424 210.23 479.56 210.509 479.832 210.697C480.104 210.883 480.45 210.976 480.871 210.976ZM492.018 206.228L490.671 206.467C490.615 206.294 490.525 206.13 490.403 205.974C490.283 205.819 490.121 205.691 489.915 205.592C489.71 205.492 489.453 205.442 489.145 205.442C488.724 205.442 488.373 205.537 488.091 205.726C487.809 205.911 487.668 206.152 487.668 206.447C487.668 206.702 487.763 206.907 487.952 207.063C488.141 207.219 488.446 207.347 488.866 207.446L490.08 207.724C490.782 207.887 491.306 208.137 491.651 208.475C491.995 208.813 492.168 209.252 492.168 209.793C492.168 210.25 492.035 210.658 491.77 211.016C491.508 211.37 491.142 211.649 490.671 211.851C490.204 212.053 489.662 212.154 489.045 212.154C488.19 212.154 487.493 211.972 486.952 211.607C486.412 211.239 486.081 210.717 485.958 210.041L487.395 209.822C487.484 210.197 487.668 210.48 487.947 210.673C488.225 210.862 488.588 210.956 489.036 210.956C489.523 210.956 489.912 210.855 490.204 210.653C490.496 210.447 490.641 210.197 490.641 209.902C490.641 209.663 490.552 209.463 490.373 209.3C490.197 209.138 489.927 209.015 489.562 208.933L488.27 208.649C487.557 208.487 487.03 208.228 486.689 207.874C486.351 207.519 486.182 207.07 486.182 206.526C486.182 206.076 486.308 205.681 486.56 205.343C486.812 205.005 487.16 204.741 487.604 204.553C488.048 204.36 488.557 204.264 489.13 204.264C489.955 204.264 490.605 204.443 491.079 204.801C491.553 205.156 491.866 205.631 492.018 206.228ZM499.524 206.228L498.177 206.467C498.121 206.294 498.031 206.13 497.909 205.974C497.789 205.819 497.627 205.691 497.421 205.592C497.216 205.492 496.959 205.442 496.651 205.442C496.23 205.442 495.878 205.537 495.597 205.726C495.315 205.911 495.174 206.152 495.174 206.447C495.174 206.702 495.269 206.907 495.458 207.063C495.646 207.219 495.951 207.347 496.372 207.446L497.585 207.724C498.288 207.887 498.812 208.137 499.156 208.475C499.501 208.813 499.673 209.252 499.673 209.793C499.673 210.25 499.541 210.658 499.276 211.016C499.014 211.37 498.648 211.649 498.177 211.851C497.71 212.053 497.168 212.154 496.551 212.154C495.696 212.154 494.999 211.972 494.458 211.607C493.918 211.239 493.587 210.717 493.464 210.041L494.901 209.822C494.99 210.197 495.174 210.48 495.453 210.673C495.731 210.862 496.094 210.956 496.541 210.956C497.029 210.956 497.418 210.855 497.71 210.653C498.001 210.447 498.147 210.197 498.147 209.902C498.147 209.663 498.058 209.463 497.879 209.3C497.703 209.138 497.433 209.015 497.068 208.933L495.776 208.649C495.063 208.487 494.536 208.228 494.195 207.874C493.857 207.519 493.688 207.07 493.688 206.526C493.688 206.076 493.814 205.681 494.066 205.343C494.317 205.005 494.665 204.741 495.11 204.553C495.554 204.36 496.062 204.264 496.636 204.264C497.461 204.264 498.111 204.443 498.585 204.801C499.059 205.156 499.372 205.631 499.524 206.228ZM503.53 212.169C503.046 212.169 502.609 212.08 502.218 211.901C501.827 211.718 501.517 211.455 501.288 211.11C501.063 210.765 500.95 210.343 500.95 209.842C500.95 209.411 501.033 209.057 501.199 208.778C501.364 208.5 501.588 208.28 501.87 208.117C502.151 207.955 502.466 207.832 502.814 207.749C503.162 207.666 503.517 207.603 503.878 207.56C504.336 207.507 504.707 207.464 504.992 207.431C505.277 207.395 505.484 207.337 505.613 207.257C505.743 207.178 505.807 207.048 505.807 206.869V206.835C505.807 206.4 505.685 206.064 505.439 205.825C505.197 205.587 504.836 205.467 504.355 205.467C503.855 205.467 503.461 205.578 503.172 205.8C502.887 206.019 502.69 206.263 502.581 206.531L501.184 206.213C501.349 205.749 501.591 205.375 501.909 205.089C502.231 204.801 502.6 204.592 503.018 204.463C503.436 204.33 503.875 204.264 504.336 204.264C504.641 204.264 504.964 204.301 505.305 204.374C505.65 204.443 505.971 204.572 506.27 204.761C506.571 204.95 506.818 205.22 507.01 205.572C507.203 205.92 507.299 206.372 507.299 206.929V212H505.847V210.956H505.787C505.691 211.148 505.547 211.337 505.355 211.523C505.163 211.708 504.916 211.862 504.614 211.985C504.312 212.108 503.951 212.169 503.53 212.169ZM503.853 210.976C504.264 210.976 504.616 210.895 504.907 210.732C505.202 210.57 505.426 210.358 505.578 210.096C505.734 209.831 505.812 209.547 505.812 209.246V208.261C505.759 208.314 505.656 208.364 505.504 208.411C505.355 208.454 505.184 208.492 504.992 208.525C504.8 208.555 504.612 208.583 504.43 208.609C504.248 208.633 504.095 208.652 503.973 208.669C503.684 208.705 503.421 208.767 503.182 208.853C502.947 208.939 502.758 209.063 502.615 209.226C502.476 209.385 502.407 209.597 502.407 209.862C502.407 210.23 502.542 210.509 502.814 210.697C503.086 210.883 503.432 210.976 503.853 210.976ZM512.137 212.149C511.521 212.149 510.971 211.992 510.487 211.677C510.006 211.359 509.628 210.906 509.353 210.32C509.081 209.73 508.945 209.022 508.945 208.197C508.945 207.371 509.083 206.665 509.358 206.079C509.637 205.492 510.018 205.043 510.502 204.732C510.985 204.42 511.534 204.264 512.147 204.264C512.621 204.264 513.002 204.344 513.291 204.503C513.582 204.659 513.808 204.841 513.967 205.05C514.129 205.259 514.255 205.442 514.345 205.602H514.434V201.818H515.921V212H514.469V210.812H514.345C514.255 210.974 514.126 211.16 513.957 211.369C513.791 211.577 513.562 211.76 513.271 211.915C512.979 212.071 512.601 212.149 512.137 212.149ZM512.465 210.881C512.893 210.881 513.254 210.769 513.549 210.543C513.847 210.315 514.073 209.998 514.225 209.594C514.381 209.189 514.459 208.719 514.459 208.182C514.459 207.652 514.383 207.187 514.23 206.79C514.078 206.392 513.854 206.082 513.559 205.86C513.264 205.638 512.9 205.527 512.465 205.527C512.018 205.527 511.645 205.643 511.347 205.875C511.048 206.107 510.823 206.424 510.671 206.825C510.521 207.226 510.447 207.678 510.447 208.182C510.447 208.692 510.523 209.151 510.676 209.559C510.828 209.967 511.053 210.29 511.352 210.528C511.653 210.764 512.025 210.881 512.465 210.881ZM521.259 212.154C520.543 212.154 519.918 211.99 519.385 211.662C518.851 211.334 518.437 210.875 518.142 210.285C517.847 209.695 517.699 209.005 517.699 208.217C517.699 207.424 517.847 206.732 518.142 206.138C518.437 205.545 518.851 205.085 519.385 204.756C519.918 204.428 520.543 204.264 521.259 204.264C521.975 204.264 522.6 204.428 523.133 204.756C523.667 205.085 524.081 205.545 524.376 206.138C524.671 206.732 524.819 207.424 524.819 208.217C524.819 209.005 524.671 209.695 524.376 210.285C524.081 210.875 523.667 211.334 523.133 211.662C522.6 211.99 521.975 212.154 521.259 212.154ZM521.264 210.906C521.728 210.906 522.112 210.784 522.417 210.538C522.722 210.293 522.948 209.967 523.093 209.559C523.243 209.151 523.317 208.702 523.317 208.212C523.317 207.724 523.243 207.277 523.093 206.869C522.948 206.458 522.722 206.129 522.417 205.88C522.112 205.631 521.728 205.507 521.264 205.507C520.797 205.507 520.409 205.631 520.1 205.88C519.796 206.129 519.569 206.458 519.419 206.869C519.274 207.277 519.201 207.724 519.201 208.212C519.201 208.702 519.274 209.151 519.419 209.559C519.569 209.967 519.796 210.293 520.1 210.538C520.409 210.784 520.797 210.906 521.264 210.906Z" fill="#CC5229"/>
<path d="M456.259 240.384C454.793 240.378 453.531 240.017 452.474 239.301C451.423 238.585 450.614 237.548 450.045 236.19C449.483 234.832 449.205 233.199 449.21 231.29C449.21 229.386 449.491 227.764 450.054 226.423C450.622 225.082 451.432 224.062 452.483 223.364C453.54 222.659 454.798 222.307 456.259 222.307C457.719 222.307 458.974 222.659 460.026 223.364C461.082 224.068 461.895 225.091 462.463 226.432C463.031 227.767 463.313 229.386 463.307 231.29C463.307 233.205 463.023 234.841 462.455 236.199C461.892 237.557 461.085 238.594 460.034 239.31C458.983 240.026 457.724 240.384 456.259 240.384ZM456.259 237.324C457.259 237.324 458.057 236.821 458.653 235.815C459.25 234.81 459.545 233.301 459.54 231.29C459.54 229.966 459.403 228.864 459.131 227.983C458.864 227.102 458.483 226.44 457.989 225.997C457.5 225.554 456.923 225.332 456.259 225.332C455.264 225.332 454.469 225.83 453.872 226.824C453.276 227.818 452.974 229.307 452.969 231.29C452.969 232.631 453.102 233.75 453.369 234.648C453.642 235.54 454.026 236.21 454.52 236.659C455.014 237.102 455.594 237.324 456.259 237.324ZM469.215 237.614L469.121 238.551C469.048 239.301 468.906 240.048 468.695 240.793C468.491 241.543 468.275 242.222 468.048 242.83C467.826 243.438 467.647 243.915 467.511 244.261H465.158C465.244 243.926 465.36 243.457 465.508 242.855C465.656 242.259 465.795 241.588 465.925 240.844C466.056 240.099 466.138 239.341 466.173 238.568L466.215 237.614H469.215ZM478.735 240.239C477.531 240.239 476.457 240.017 475.513 239.574C474.576 239.131 473.832 238.52 473.281 237.741C472.729 236.963 472.442 236.071 472.42 235.065H475.999C476.039 235.741 476.323 236.29 476.852 236.71C477.38 237.131 478.008 237.341 478.735 237.341C479.315 237.341 479.826 237.213 480.269 236.957C480.718 236.696 481.067 236.335 481.317 235.875C481.573 235.409 481.701 234.875 481.701 234.273C481.701 233.659 481.57 233.119 481.309 232.653C481.053 232.187 480.698 231.824 480.244 231.562C479.789 231.301 479.269 231.168 478.684 231.162C478.173 231.162 477.675 231.267 477.192 231.477C476.715 231.687 476.343 231.974 476.076 232.338L472.795 231.75L473.621 222.545H484.292V225.562H476.664L476.212 229.935H476.315C476.621 229.503 477.085 229.145 477.704 228.861C478.323 228.577 479.016 228.435 479.783 228.435C480.835 228.435 481.772 228.682 482.596 229.176C483.42 229.67 484.07 230.349 484.548 231.213C485.025 232.071 485.261 233.06 485.255 234.179C485.261 235.355 484.988 236.401 484.437 237.315C483.891 238.224 483.127 238.94 482.144 239.463C481.167 239.98 480.031 240.239 478.735 240.239ZM493.418 240V226.909H496.878V229.219H497.031C497.304 228.452 497.759 227.847 498.395 227.403C499.031 226.96 499.793 226.739 500.679 226.739C501.577 226.739 502.341 226.963 502.972 227.412C503.602 227.855 504.023 228.457 504.233 229.219H504.369C504.636 228.469 505.119 227.869 505.818 227.42C506.523 226.966 507.355 226.739 508.315 226.739C509.537 226.739 510.528 227.128 511.29 227.906C512.057 228.679 512.44 229.776 512.44 231.196V240H508.818V231.912C508.818 231.185 508.625 230.639 508.239 230.276C507.852 229.912 507.369 229.73 506.79 229.73C506.131 229.73 505.616 229.94 505.247 230.361C504.878 230.776 504.693 231.324 504.693 232.006V240H501.173V231.835C501.173 231.193 500.989 230.682 500.619 230.301C500.256 229.92 499.776 229.73 499.179 229.73C498.776 229.73 498.412 229.832 498.088 230.037C497.77 230.236 497.517 230.517 497.33 230.881C497.142 231.239 497.048 231.659 497.048 232.142V240H493.418ZM515.308 240V226.909H518.939V240H515.308ZM517.132 225.222C516.592 225.222 516.129 225.043 515.743 224.685C515.362 224.321 515.172 223.886 515.172 223.381C515.172 222.881 515.362 222.452 515.743 222.094C516.129 221.73 516.592 221.548 517.132 221.548C517.672 221.548 518.132 221.73 518.513 222.094C518.899 222.452 519.092 222.881 519.092 223.381C519.092 223.886 518.899 224.321 518.513 224.685C518.132 225.043 517.672 225.222 517.132 225.222ZM525.478 222.545V240H521.847V222.545H525.478Z" fill="#CC5229"/>
<rect x="214" y="177" width="172" height="89" rx="8" fill="#EFEAE3"/>
<path d="M241.734 226.7L236.134 221.1L234.268 222.967L241.734 230.433L257.734 214.433L255.868 212.567L241.734 226.7Z" fill="#5D6164"/>
<path d="M275.119 212V201.818H281.502V203.141H276.655V206.243H281.169V207.56H276.655V210.678H281.562V212H275.119ZM284.921 207.466V212H283.435V204.364H284.862V205.607H284.956C285.132 205.202 285.407 204.877 285.781 204.632C286.159 204.387 286.635 204.264 287.208 204.264C287.729 204.264 288.184 204.374 288.575 204.592C288.967 204.808 289.27 205.129 289.485 205.557C289.701 205.984 289.808 206.513 289.808 207.143V212H288.322V207.322C288.322 206.768 288.178 206.336 287.889 206.024C287.601 205.709 287.205 205.552 286.701 205.552C286.356 205.552 286.05 205.626 285.781 205.776C285.516 205.925 285.306 206.143 285.15 206.432C284.998 206.717 284.921 207.062 284.921 207.466ZM298.061 204.364L295.292 212H293.701L290.927 204.364H292.523L294.457 210.24H294.536L296.465 204.364H298.061ZM299.458 212V204.364H300.945V212H299.458ZM300.209 203.185C299.95 203.185 299.728 203.099 299.543 202.927C299.36 202.751 299.269 202.542 299.269 202.3C299.269 202.055 299.36 201.846 299.543 201.674C299.728 201.498 299.95 201.411 300.209 201.411C300.468 201.411 300.688 201.498 300.87 201.674C301.056 201.846 301.149 202.055 301.149 202.3C301.149 202.542 301.056 202.751 300.87 202.927C300.688 203.099 300.468 203.185 300.209 203.185ZM305.167 212.169C304.683 212.169 304.246 212.08 303.854 211.901C303.463 211.718 303.153 211.455 302.925 211.11C302.699 210.765 302.587 210.343 302.587 209.842C302.587 209.411 302.67 209.057 302.835 208.778C303.001 208.5 303.225 208.28 303.506 208.117C303.788 207.955 304.103 207.832 304.451 207.749C304.799 207.666 305.154 207.603 305.515 207.56C305.972 207.507 306.344 207.464 306.629 207.431C306.914 207.395 307.121 207.337 307.25 207.257C307.379 207.178 307.444 207.048 307.444 206.869V206.835C307.444 206.4 307.321 206.064 307.076 205.825C306.834 205.587 306.473 205.467 305.992 205.467C305.492 205.467 305.097 205.578 304.809 205.8C304.524 206.019 304.327 206.263 304.217 206.531L302.82 206.213C302.986 205.749 303.228 205.375 303.546 205.089C303.868 204.801 304.237 204.592 304.655 204.463C305.072 204.33 305.512 204.264 305.972 204.264C306.277 204.264 306.6 204.301 306.942 204.374C307.286 204.443 307.608 204.572 307.906 204.761C308.208 204.95 308.455 205.22 308.647 205.572C308.839 205.92 308.935 206.372 308.935 206.929V212H307.484V210.956H307.424C307.328 211.148 307.184 211.337 306.991 211.523C306.799 211.708 306.552 211.862 306.251 211.985C305.949 212.108 305.588 212.169 305.167 212.169ZM305.49 210.976C305.901 210.976 306.252 210.895 306.544 210.732C306.839 210.57 307.063 210.358 307.215 210.096C307.371 209.831 307.449 209.547 307.449 209.246V208.261C307.396 208.314 307.293 208.364 307.141 208.411C306.991 208.454 306.821 208.492 306.629 208.525C306.436 208.555 306.249 208.583 306.067 208.609C305.884 208.633 305.732 208.652 305.609 208.669C305.321 208.705 305.058 208.767 304.819 208.853C304.584 208.939 304.395 209.063 304.252 209.226C304.113 209.385 304.043 209.597 304.043 209.862C304.043 210.23 304.179 210.509 304.451 210.697C304.723 210.883 305.069 210.976 305.49 210.976ZM313.774 212.149C313.157 212.149 312.607 211.992 312.123 211.677C311.643 211.359 311.265 210.906 310.99 210.32C310.718 209.73 310.582 209.022 310.582 208.197C310.582 207.371 310.72 206.665 310.995 206.079C311.273 205.492 311.654 205.043 312.138 204.732C312.622 204.42 313.171 204.264 313.784 204.264C314.258 204.264 314.639 204.344 314.927 204.503C315.219 204.659 315.444 204.841 315.604 205.05C315.766 205.259 315.892 205.442 315.981 205.602H316.071V201.818H317.557V212H316.106V210.812H315.981C315.892 210.974 315.763 211.16 315.594 211.369C315.428 211.577 315.199 211.76 314.907 211.915C314.616 212.071 314.238 212.149 313.774 212.149ZM314.102 210.881C314.53 210.881 314.891 210.769 315.186 210.543C315.484 210.315 315.71 209.998 315.862 209.594C316.018 209.189 316.096 208.719 316.096 208.182C316.096 207.652 316.019 207.187 315.867 206.79C315.715 206.392 315.491 206.082 315.196 205.86C314.901 205.638 314.536 205.527 314.102 205.527C313.655 205.527 313.282 205.643 312.983 205.875C312.685 206.107 312.46 206.424 312.307 206.825C312.158 207.226 312.084 207.678 312.084 208.182C312.084 208.692 312.16 209.151 312.312 209.559C312.465 209.967 312.69 210.29 312.988 210.528C313.29 210.764 313.661 210.881 314.102 210.881ZM322.896 212.154C322.18 212.154 321.555 211.99 321.021 211.662C320.488 211.334 320.073 210.875 319.778 210.285C319.483 209.695 319.336 209.005 319.336 208.217C319.336 207.424 319.483 206.732 319.778 206.138C320.073 205.545 320.488 205.085 321.021 204.756C321.555 204.428 322.18 204.264 322.896 204.264C323.612 204.264 324.236 204.428 324.77 204.756C325.304 205.085 325.718 205.545 326.013 206.138C326.308 206.732 326.455 207.424 326.455 208.217C326.455 209.005 326.308 209.695 326.013 210.285C325.718 210.875 325.304 211.334 324.77 211.662C324.236 211.99 323.612 212.154 322.896 212.154ZM322.901 210.906C323.365 210.906 323.749 210.784 324.054 210.538C324.359 210.293 324.584 209.967 324.73 209.559C324.879 209.151 324.954 208.702 324.954 208.212C324.954 207.724 324.879 207.277 324.73 206.869C324.584 206.458 324.359 206.129 324.054 205.88C323.749 205.631 323.365 205.507 322.901 205.507C322.433 205.507 322.045 205.631 321.737 205.88C321.432 206.129 321.205 206.458 321.056 206.869C320.91 207.277 320.837 207.724 320.837 208.212C320.837 208.702 320.91 209.151 321.056 209.559C321.205 209.967 321.432 210.293 321.737 210.538C322.045 210.784 322.433 210.906 322.901 210.906Z" fill="#DE8644"/>
<path d="M275.151 236.932V234.026L282.438 222.545H284.943V226.568H283.46L278.866 233.838V233.974H289.222V236.932H275.151ZM283.528 240V236.045L283.597 234.759V222.545H287.057V240H283.528ZM297.996 222.307C298.893 222.307 299.757 222.457 300.587 222.759C301.422 223.06 302.166 223.54 302.82 224.199C303.479 224.858 303.999 225.733 304.379 226.824C304.766 227.909 304.962 229.241 304.967 230.821C304.967 232.304 304.8 233.628 304.464 234.793C304.135 235.952 303.661 236.938 303.041 237.75C302.422 238.562 301.675 239.182 300.8 239.608C299.925 240.028 298.947 240.239 297.868 240.239C296.703 240.239 295.675 240.014 294.783 239.565C293.891 239.111 293.172 238.494 292.626 237.716C292.087 236.932 291.76 236.051 291.646 235.074H295.286C295.428 235.71 295.726 236.205 296.18 236.557C296.635 236.903 297.197 237.077 297.868 237.077C299.004 237.077 299.868 236.582 300.459 235.594C301.05 234.599 301.348 233.239 301.354 231.511H301.234C300.973 232.023 300.621 232.463 300.178 232.832C299.734 233.196 299.226 233.477 298.652 233.676C298.084 233.875 297.479 233.974 296.837 233.974C295.808 233.974 294.891 233.733 294.084 233.25C293.277 232.767 292.641 232.102 292.175 231.256C291.709 230.409 291.476 229.443 291.476 228.358C291.47 227.188 291.74 226.145 292.286 225.23C292.831 224.315 293.592 223.599 294.57 223.082C295.553 222.56 296.695 222.301 297.996 222.307ZM298.021 225.205C297.447 225.205 296.936 225.341 296.487 225.614C296.044 225.886 295.692 226.253 295.43 226.713C295.175 227.173 295.05 227.687 295.055 228.256C295.055 228.83 295.18 229.347 295.43 229.807C295.686 230.261 296.033 230.625 296.47 230.898C296.913 231.165 297.419 231.298 297.987 231.298C298.413 231.298 298.808 231.219 299.172 231.06C299.536 230.901 299.851 230.682 300.118 230.403C300.391 230.119 300.604 229.793 300.757 229.423C300.911 229.054 300.987 228.662 300.987 228.247C300.982 227.696 300.851 227.19 300.595 226.73C300.339 226.27 299.987 225.901 299.538 225.622C299.089 225.344 298.584 225.205 298.021 225.205ZM310.801 237.614L310.707 238.551C310.634 239.301 310.491 240.048 310.281 240.793C310.077 241.543 309.861 242.222 309.634 242.83C309.412 243.438 309.233 243.915 309.097 244.261H306.744C306.83 243.926 306.946 243.457 307.094 242.855C307.241 242.259 307.381 241.588 307.511 240.844C307.642 240.099 307.724 239.341 307.759 238.568L307.801 237.614H310.801ZM320.321 240.239C319.116 240.239 318.043 240.017 317.099 239.574C316.162 239.131 315.418 238.52 314.866 237.741C314.315 236.963 314.028 236.071 314.006 235.065H317.585C317.625 235.741 317.909 236.29 318.438 236.71C318.966 237.131 319.594 237.341 320.321 237.341C320.901 237.341 321.412 237.213 321.855 236.957C322.304 236.696 322.653 236.335 322.903 235.875C323.159 235.409 323.287 234.875 323.287 234.273C323.287 233.659 323.156 233.119 322.895 232.653C322.639 232.187 322.284 231.824 321.83 231.562C321.375 231.301 320.855 231.168 320.27 231.162C319.759 231.162 319.261 231.267 318.778 231.477C318.301 231.687 317.929 231.974 317.662 232.338L314.381 231.75L315.207 222.545H325.878V225.562H318.25L317.798 229.935H317.901C318.207 229.503 318.67 229.145 319.29 228.861C319.909 228.577 320.602 228.435 321.369 228.435C322.42 228.435 323.358 228.682 324.182 229.176C325.006 229.67 325.656 230.349 326.134 231.213C326.611 232.071 326.847 233.06 326.841 234.179C326.847 235.355 326.574 236.401 326.023 237.315C325.477 238.224 324.713 238.94 323.73 239.463C322.753 239.98 321.616 240.239 320.321 240.239ZM335.004 240V226.909H338.464V229.219H338.617C338.89 228.452 339.344 227.847 339.981 227.403C340.617 226.96 341.379 226.739 342.265 226.739C343.163 226.739 343.927 226.963 344.558 227.412C345.188 227.855 345.609 228.457 345.819 229.219H345.955C346.222 228.469 346.705 227.869 347.404 227.42C348.109 226.966 348.941 226.739 349.901 226.739C351.123 226.739 352.114 227.128 352.876 227.906C353.643 228.679 354.026 229.776 354.026 231.196V240H350.404V231.912C350.404 231.185 350.211 230.639 349.825 230.276C349.438 229.912 348.955 229.73 348.376 229.73C347.717 229.73 347.202 229.94 346.833 230.361C346.464 230.776 346.279 231.324 346.279 232.006V240H342.759V231.835C342.759 231.193 342.575 230.682 342.205 230.301C341.842 229.92 341.362 229.73 340.765 229.73C340.362 229.73 339.998 229.832 339.674 230.037C339.356 230.236 339.103 230.517 338.915 230.881C338.728 231.239 338.634 231.659 338.634 232.142V240H335.004ZM356.894 240V226.909H360.525V240H356.894ZM358.718 225.222C358.178 225.222 357.715 225.043 357.329 224.685C356.948 224.321 356.758 223.886 356.758 223.381C356.758 222.881 356.948 222.452 357.329 222.094C357.715 221.73 358.178 221.548 358.718 221.548C359.258 221.548 359.718 221.73 360.099 222.094C360.485 222.452 360.678 222.881 360.678 223.381C360.678 223.886 360.485 224.321 360.099 224.685C359.718 225.043 359.258 225.222 358.718 225.222ZM367.064 222.545V240H363.433V222.545H367.064Z" fill="#DE8644"/>
<rect x="40" y="268" width="172" height="89" rx="8" fill="#E8F7E8"/>
<path d="M79.9533 305.44L78.0733 303.56L69.62 312.013L71.5 313.893L79.9533 305.44ZM85.6067 303.56L71.5 317.667L65.9267 312.107L64.0467 313.987L71.5 321.44L87.5 305.44L85.6067 303.56ZM56.5 313.987L63.9533 321.44L65.8333 319.56L58.3933 312.107L56.5 313.987Z" fill="#5D6164"/>
<path d="M101.119 303V292.818H107.502V294.141H102.655V297.243H107.169V298.56H102.655V301.678H107.562V303H101.119ZM110.921 298.466V303H109.435V295.364H110.862V296.607H110.956C111.132 296.202 111.407 295.877 111.781 295.632C112.159 295.387 112.635 295.264 113.208 295.264C113.729 295.264 114.184 295.374 114.575 295.592C114.967 295.808 115.27 296.129 115.485 296.557C115.701 296.984 115.808 297.513 115.808 298.143V303H114.322V298.322C114.322 297.768 114.178 297.336 113.889 297.024C113.601 296.709 113.205 296.552 112.701 296.552C112.356 296.552 112.05 296.626 111.781 296.776C111.516 296.925 111.306 297.143 111.15 297.432C110.998 297.717 110.921 298.062 110.921 298.466ZM121.367 295.364V296.557H117.195V295.364H121.367ZM118.314 293.534H119.801V300.758C119.801 301.046 119.844 301.263 119.93 301.409C120.016 301.552 120.127 301.649 120.263 301.702C120.402 301.752 120.553 301.777 120.715 301.777C120.835 301.777 120.939 301.769 121.029 301.752C121.118 301.736 121.188 301.722 121.237 301.712L121.506 302.94C121.42 302.973 121.297 303.007 121.138 303.04C120.979 303.076 120.78 303.096 120.541 303.099C120.15 303.106 119.786 303.036 119.448 302.891C119.11 302.745 118.836 302.519 118.627 302.214C118.419 301.91 118.314 301.527 118.314 301.066V293.534ZM123.011 303V295.364H124.448V296.577H124.527C124.667 296.166 124.912 295.843 125.263 295.607C125.618 295.369 126.019 295.249 126.466 295.249C126.559 295.249 126.668 295.253 126.794 295.259C126.924 295.266 127.025 295.274 127.098 295.284V296.706C127.038 296.689 126.932 296.671 126.779 296.651C126.627 296.628 126.475 296.616 126.322 296.616C125.971 296.616 125.658 296.691 125.382 296.84C125.111 296.986 124.895 297.19 124.736 297.452C124.577 297.71 124.498 298.005 124.498 298.337V303H123.011ZM131.402 303.154C130.649 303.154 130.001 302.993 129.458 302.672C128.918 302.347 128.5 301.891 128.205 301.305C127.913 300.715 127.768 300.024 127.768 299.232C127.768 298.449 127.913 297.76 128.205 297.163C128.5 296.567 128.911 296.101 129.438 295.766C129.968 295.432 130.588 295.264 131.297 295.264C131.728 295.264 132.146 295.335 132.55 295.478C132.955 295.621 133.318 295.844 133.639 296.149C133.961 296.454 134.214 296.85 134.4 297.337C134.585 297.821 134.678 298.41 134.678 299.102V299.629H128.608V298.516H133.221C133.221 298.125 133.142 297.778 132.983 297.477C132.824 297.172 132.6 296.931 132.312 296.756C132.027 296.58 131.692 296.492 131.307 296.492C130.89 296.492 130.525 296.595 130.214 296.8C129.905 297.003 129.667 297.268 129.498 297.596C129.332 297.921 129.249 298.274 129.249 298.655V299.525C129.249 300.035 129.339 300.469 129.518 300.827C129.7 301.185 129.953 301.459 130.278 301.648C130.603 301.833 130.983 301.926 131.417 301.926C131.698 301.926 131.955 301.886 132.187 301.807C132.419 301.724 132.62 301.601 132.789 301.439C132.958 301.277 133.087 301.076 133.177 300.837L134.584 301.091C134.471 301.505 134.269 301.868 133.977 302.18C133.689 302.488 133.326 302.728 132.888 302.901C132.454 303.07 131.959 303.154 131.402 303.154ZM139.529 306.023C138.923 306.023 138.401 305.943 137.963 305.784C137.529 305.625 137.174 305.415 136.899 305.153C136.624 304.891 136.419 304.604 136.283 304.293L137.56 303.766C137.65 303.911 137.769 304.066 137.918 304.228C138.071 304.394 138.276 304.535 138.535 304.651C138.797 304.767 139.133 304.825 139.544 304.825C140.107 304.825 140.573 304.687 140.941 304.412C141.309 304.14 141.493 303.706 141.493 303.109V301.608H141.398C141.309 301.77 141.18 301.951 141.011 302.15C140.845 302.349 140.616 302.521 140.325 302.667C140.033 302.813 139.653 302.886 139.186 302.886C138.583 302.886 138.039 302.745 137.555 302.463C137.075 302.178 136.694 301.759 136.412 301.205C136.134 300.648 135.994 299.964 135.994 299.152C135.994 298.34 136.132 297.644 136.407 297.064C136.685 296.484 137.067 296.04 137.55 295.732C138.034 295.42 138.583 295.264 139.196 295.264C139.67 295.264 140.053 295.344 140.344 295.503C140.636 295.659 140.863 295.841 141.026 296.05C141.191 296.259 141.319 296.442 141.408 296.602H141.518V295.364H142.974V303.169C142.974 303.825 142.822 304.364 142.517 304.785C142.212 305.206 141.799 305.517 141.279 305.719C140.762 305.922 140.179 306.023 139.529 306.023ZM139.514 301.653C139.942 301.653 140.303 301.553 140.598 301.354C140.896 301.152 141.122 300.864 141.274 300.489C141.43 300.112 141.508 299.659 141.508 299.132C141.508 298.618 141.432 298.166 141.279 297.775C141.127 297.384 140.903 297.079 140.608 296.86C140.313 296.638 139.948 296.527 139.514 296.527C139.067 296.527 138.694 296.643 138.396 296.875C138.097 297.104 137.872 297.415 137.719 297.81C137.57 298.204 137.496 298.645 137.496 299.132C137.496 299.633 137.572 300.072 137.724 300.45C137.877 300.827 138.102 301.122 138.401 301.335C138.702 301.547 139.073 301.653 139.514 301.653ZM149.805 299.833V295.364H151.297V303H149.835V301.678H149.756C149.58 302.085 149.298 302.425 148.911 302.697C148.526 302.965 148.047 303.099 147.474 303.099C146.983 303.099 146.549 302.992 146.171 302.776C145.797 302.558 145.502 302.234 145.286 301.807C145.074 301.379 144.968 300.851 144.968 300.221V295.364H146.455V300.042C146.455 300.562 146.599 300.977 146.887 301.285C147.175 301.593 147.55 301.747 148.011 301.747C148.289 301.747 148.566 301.678 148.841 301.538C149.119 301.399 149.35 301.189 149.532 300.907C149.718 300.625 149.809 300.267 149.805 299.833ZM156.585 303.154C155.833 303.154 155.185 302.993 154.642 302.672C154.101 302.347 153.684 301.891 153.389 301.305C153.097 300.715 152.951 300.024 152.951 299.232C152.951 298.449 153.097 297.76 153.389 297.163C153.684 296.567 154.095 296.101 154.622 295.766C155.152 295.432 155.772 295.264 156.481 295.264C156.912 295.264 157.329 295.335 157.734 295.478C158.138 295.621 158.501 295.844 158.823 296.149C159.144 296.454 159.398 296.85 159.583 297.337C159.769 297.821 159.862 298.41 159.862 299.102V299.629H153.791V298.516H158.405C158.405 298.125 158.325 297.778 158.166 297.477C158.007 297.172 157.784 296.931 157.495 296.756C157.21 296.58 156.875 296.492 156.491 296.492C156.073 296.492 155.709 296.595 155.397 296.8C155.089 297.003 154.85 297.268 154.681 297.596C154.516 297.921 154.433 298.274 154.433 298.655V299.525C154.433 300.035 154.522 300.469 154.701 300.827C154.883 301.185 155.137 301.459 155.462 301.648C155.787 301.833 156.166 301.926 156.6 301.926C156.882 301.926 157.139 301.886 157.371 301.807C157.603 301.724 157.803 301.601 157.972 301.439C158.142 301.277 158.271 301.076 158.36 300.837L159.767 301.091C159.655 301.505 159.452 301.868 159.161 302.18C158.872 302.488 158.509 302.728 158.072 302.901C157.638 303.07 157.142 303.154 156.585 303.154Z" fill="#29A653"/>
<path d="M101.151 327.932V325.026L108.438 313.545H110.943V317.568H109.46L104.866 324.838V324.974H115.222V327.932H101.151ZM109.528 331V327.045L109.597 325.759V313.545H113.057V331H109.528ZM118.371 331L125.607 316.682V316.562H117.178V313.545H129.425V316.605L122.18 331H118.371ZM137.543 331V317.909H141.003V320.219H141.156C141.429 319.452 141.884 318.847 142.52 318.403C143.156 317.96 143.918 317.739 144.804 317.739C145.702 317.739 146.466 317.963 147.097 318.412C147.727 318.855 148.148 319.457 148.358 320.219H148.494C148.761 319.469 149.244 318.869 149.943 318.42C150.648 317.966 151.48 317.739 152.44 317.739C153.662 317.739 154.653 318.128 155.415 318.906C156.182 319.679 156.565 320.776 156.565 322.196V331H152.943V322.912C152.943 322.185 152.75 321.639 152.364 321.276C151.977 320.912 151.494 320.73 150.915 320.73C150.256 320.73 149.741 320.94 149.372 321.361C149.003 321.776 148.818 322.324 148.818 323.006V331H145.298V322.835C145.298 322.193 145.114 321.682 144.744 321.301C144.381 320.92 143.901 320.73 143.304 320.73C142.901 320.73 142.537 320.832 142.213 321.037C141.895 321.236 141.642 321.517 141.455 321.881C141.267 322.239 141.173 322.659 141.173 323.142V331H137.543ZM159.433 331V317.909H163.064V331H159.433ZM161.257 316.222C160.717 316.222 160.254 316.043 159.868 315.685C159.487 315.321 159.297 314.886 159.297 314.381C159.297 313.881 159.487 313.452 159.868 313.094C160.254 312.73 160.717 312.548 161.257 312.548C161.797 312.548 162.257 312.73 162.638 313.094C163.024 313.452 163.217 313.881 163.217 314.381C163.217 314.886 163.024 315.321 162.638 315.685C162.257 316.043 161.797 316.222 161.257 316.222ZM169.603 313.545V331H165.972V313.545H169.603Z" fill="#29A653"/>
<rect x="214" y="268" width="172" height="89" rx="8" fill="#DCEEFA"/>
<path d="M253.953 305.44L252.073 303.56L243.62 312.013L245.5 313.893L253.953 305.44ZM259.607 303.56L245.5 317.667L239.927 312.107L238.047 313.987L245.5 321.44L261.5 305.44L259.607 303.56ZM230.5 313.987L237.953 321.44L239.833 319.56L232.393 312.107L230.5 313.987Z" fill="#2188BA"/>
<path d="M275.119 303V292.818H276.655V301.678H281.268V303H275.119ZM286.193 303.154C285.44 303.154 284.792 302.993 284.249 302.672C283.709 302.347 283.291 301.891 282.996 301.305C282.704 300.715 282.559 300.024 282.559 299.232C282.559 298.449 282.704 297.76 282.996 297.163C283.291 296.567 283.702 296.101 284.229 295.766C284.759 295.432 285.379 295.264 286.088 295.264C286.519 295.264 286.937 295.335 287.341 295.478C287.746 295.621 288.109 295.844 288.43 296.149C288.752 296.454 289.005 296.85 289.191 297.337C289.376 297.821 289.469 298.41 289.469 299.102V299.629H283.399V298.516H288.012C288.012 298.125 287.933 297.778 287.774 297.477C287.615 297.172 287.391 296.931 287.103 296.756C286.818 296.58 286.483 296.492 286.098 296.492C285.681 296.492 285.316 296.595 285.005 296.8C284.696 297.003 284.458 297.268 284.289 297.596C284.123 297.921 284.04 298.274 284.04 298.655V299.525C284.04 300.035 284.13 300.469 284.309 300.827C284.491 301.185 284.744 301.459 285.069 301.648C285.394 301.833 285.774 301.926 286.208 301.926C286.489 301.926 286.746 301.886 286.978 301.807C287.21 301.724 287.411 301.601 287.58 301.439C287.749 301.277 287.878 301.076 287.968 300.837L289.375 301.091C289.262 301.505 289.06 301.868 288.768 302.18C288.48 302.488 288.117 302.728 287.679 302.901C287.245 303.07 286.75 303.154 286.193 303.154ZM291.118 303V295.364H292.555V296.577H292.635C292.774 296.166 293.019 295.843 293.371 295.607C293.725 295.369 294.126 295.249 294.574 295.249C294.666 295.249 294.776 295.253 294.902 295.259C295.031 295.266 295.132 295.274 295.205 295.284V296.706C295.145 296.689 295.039 296.671 294.887 296.651C294.734 296.628 294.582 296.616 294.43 296.616C294.078 296.616 293.765 296.691 293.49 296.84C293.218 296.986 293.003 297.19 292.844 297.452C292.684 297.71 292.605 298.005 292.605 298.337V303H291.118Z" fill="#2188BA"/>
<path d="M275.151 327.932V325.026L282.438 313.545H284.943V317.568H283.46L278.866 324.838V324.974H289.222V327.932H275.151ZM283.528 331V327.045L283.597 325.759V313.545H287.057V331H283.528ZM298.055 331.239C296.851 331.239 295.777 331.017 294.834 330.574C293.896 330.131 293.152 329.52 292.601 328.741C292.05 327.963 291.763 327.071 291.74 326.065H295.32C295.359 326.741 295.643 327.29 296.172 327.71C296.7 328.131 297.328 328.341 298.055 328.341C298.635 328.341 299.146 328.213 299.589 327.957C300.038 327.696 300.388 327.335 300.638 326.875C300.893 326.409 301.021 325.875 301.021 325.273C301.021 324.659 300.891 324.119 300.629 323.653C300.374 323.187 300.018 322.824 299.564 322.562C299.109 322.301 298.589 322.168 298.004 322.162C297.493 322.162 296.996 322.267 296.513 322.477C296.036 322.687 295.663 322.974 295.396 323.338L292.115 322.75L292.942 313.545H303.612V316.562H295.984L295.533 320.935H295.635C295.942 320.503 296.405 320.145 297.024 319.861C297.643 319.577 298.337 319.435 299.104 319.435C300.155 319.435 301.092 319.682 301.916 320.176C302.74 320.67 303.391 321.349 303.868 322.213C304.345 323.071 304.581 324.06 304.575 325.179C304.581 326.355 304.308 327.401 303.757 328.315C303.212 329.224 302.447 329.94 301.464 330.463C300.487 330.98 299.351 331.239 298.055 331.239ZM312.738 331V317.909H316.198V320.219H316.352C316.624 319.452 317.079 318.847 317.715 318.403C318.352 317.96 319.113 317.739 319.999 317.739C320.897 317.739 321.661 317.963 322.292 318.412C322.923 318.855 323.343 319.457 323.553 320.219H323.69C323.957 319.469 324.44 318.869 325.138 318.42C325.843 317.966 326.675 317.739 327.636 317.739C328.857 317.739 329.849 318.128 330.61 318.906C331.377 319.679 331.761 320.776 331.761 322.196V331H328.138V322.912C328.138 322.185 327.945 321.639 327.559 321.276C327.173 320.912 326.69 320.73 326.11 320.73C325.451 320.73 324.937 320.94 324.567 321.361C324.198 321.776 324.013 322.324 324.013 323.006V331H320.494V322.835C320.494 322.193 320.309 321.682 319.94 321.301C319.576 320.92 319.096 320.73 318.499 320.73C318.096 320.73 317.732 320.832 317.408 321.037C317.09 321.236 316.837 321.517 316.65 321.881C316.462 322.239 316.369 322.659 316.369 323.142V331H312.738ZM334.629 331V317.909H338.259V331H334.629ZM336.452 316.222C335.913 316.222 335.45 316.043 335.063 315.685C334.683 315.321 334.492 314.886 334.492 314.381C334.492 313.881 334.683 313.452 335.063 313.094C335.45 312.73 335.913 312.548 336.452 312.548C336.992 312.548 337.452 312.73 337.833 313.094C338.219 313.452 338.413 313.881 338.413 314.381C338.413 314.886 338.219 315.321 337.833 315.685C337.452 316.043 336.992 316.222 336.452 316.222ZM344.798 313.545V331H341.168V313.545H344.798Z" fill="#2188BA"/>
<path d="M509 300H439C433.5 300 429 304.5 429 310V380C429 385.5 433.5 390 439 390H509C514.5 390 519 385.5 519 380V310C519 304.5 514.5 300 509 300ZM509 380H439V310H509V380Z" fill="#E8F7E8"/>
<path d="M459 345H449V370H459V345Z" fill="#E8F7E8"/>
<path d="M499 320H489V370H499V320Z" fill="#E8F7E8"/>
<path d="M479 355H469V370H479V355Z" fill="#E8F7E8"/>
<path d="M479 335H469V345H479V335Z" fill="#E8F7E8"/>
<path d="M439 90H454V139H439V90ZM467 69H481V139H467V69ZM495 109H509V139H495V109Z" fill="#E8F7E8"/>
<path d="M231.994 119H228.619L234.764 101.545H238.668L244.821 119H241.446L236.784 105.125H236.648L231.994 119ZM232.105 112.156H241.31V114.696H232.105V112.156ZM250.069 111.33V119H246.984V105.909H249.933V108.134H250.086C250.387 107.401 250.867 106.818 251.526 106.386C252.191 105.955 253.012 105.739 253.989 105.739C254.893 105.739 255.68 105.932 256.35 106.318C257.026 106.705 257.549 107.264 257.918 107.997C258.293 108.73 258.478 109.619 258.472 110.665V119H255.387V111.142C255.387 110.267 255.16 109.582 254.705 109.088C254.256 108.594 253.634 108.347 252.839 108.347C252.299 108.347 251.819 108.466 251.398 108.705C250.984 108.937 250.657 109.276 250.418 109.719C250.185 110.162 250.069 110.699 250.069 111.33ZM265.376 119.264C264.546 119.264 263.799 119.116 263.134 118.821C262.475 118.52 261.952 118.077 261.566 117.491C261.185 116.906 260.995 116.185 260.995 115.327C260.995 114.588 261.131 113.977 261.404 113.494C261.677 113.011 262.049 112.625 262.521 112.335C262.992 112.045 263.523 111.827 264.114 111.679C264.711 111.526 265.327 111.415 265.964 111.347C266.731 111.267 267.353 111.196 267.83 111.134C268.308 111.065 268.654 110.963 268.87 110.827C269.092 110.685 269.202 110.466 269.202 110.17V110.119C269.202 109.477 269.012 108.98 268.631 108.628C268.251 108.276 267.702 108.099 266.987 108.099C266.231 108.099 265.631 108.264 265.188 108.594C264.751 108.923 264.455 109.312 264.302 109.761L261.421 109.352C261.648 108.557 262.023 107.892 262.546 107.358C263.069 106.818 263.708 106.415 264.464 106.148C265.219 105.875 266.055 105.739 266.969 105.739C267.6 105.739 268.228 105.812 268.853 105.96C269.478 106.108 270.049 106.352 270.566 106.693C271.083 107.028 271.498 107.486 271.81 108.065C272.129 108.645 272.288 109.369 272.288 110.239V119H269.322V117.202H269.219C269.032 117.565 268.768 117.906 268.427 118.224C268.092 118.537 267.668 118.79 267.157 118.983C266.651 119.17 266.058 119.264 265.376 119.264ZM266.177 116.997C266.796 116.997 267.333 116.875 267.788 116.631C268.242 116.381 268.592 116.051 268.836 115.642C269.086 115.233 269.211 114.787 269.211 114.304V112.761C269.114 112.841 268.95 112.915 268.717 112.983C268.489 113.051 268.234 113.111 267.95 113.162C267.665 113.213 267.384 113.259 267.106 113.298C266.827 113.338 266.586 113.372 266.381 113.401C265.921 113.463 265.509 113.565 265.146 113.707C264.782 113.849 264.495 114.048 264.285 114.304C264.075 114.554 263.969 114.878 263.969 115.276C263.969 115.844 264.177 116.273 264.592 116.562C265.006 116.852 265.535 116.997 266.177 116.997ZM265.921 104.188L267.83 100.293H270.847L268.231 104.188H265.921ZM278.475 101.545V119H275.39V101.545H278.475ZM281.648 119V105.909H284.733V119H281.648ZM283.199 104.051C282.71 104.051 282.29 103.889 281.938 103.565C281.585 103.236 281.409 102.841 281.409 102.381C281.409 101.915 281.585 101.52 281.938 101.196C282.29 100.866 282.71 100.702 283.199 100.702C283.693 100.702 284.114 100.866 284.46 101.196C284.813 101.52 284.989 101.915 284.989 102.381C284.989 102.841 284.813 103.236 284.46 103.565C284.114 103.889 283.693 104.051 283.199 104.051ZM298.252 109.369L295.44 109.676C295.36 109.392 295.221 109.125 295.022 108.875C294.829 108.625 294.567 108.423 294.238 108.27C293.908 108.116 293.505 108.04 293.028 108.04C292.386 108.04 291.846 108.179 291.408 108.457C290.977 108.736 290.763 109.097 290.769 109.54C290.763 109.92 290.903 110.23 291.187 110.469C291.477 110.707 291.954 110.903 292.619 111.057L294.852 111.534C296.09 111.801 297.011 112.224 297.613 112.804C298.221 113.384 298.528 114.142 298.533 115.08C298.528 115.903 298.286 116.631 297.809 117.261C297.337 117.886 296.681 118.375 295.84 118.727C294.999 119.08 294.033 119.256 292.942 119.256C291.34 119.256 290.05 118.92 289.073 118.25C288.096 117.574 287.513 116.634 287.326 115.429L290.335 115.139C290.471 115.73 290.761 116.176 291.204 116.477C291.647 116.778 292.224 116.929 292.934 116.929C293.667 116.929 294.255 116.778 294.698 116.477C295.147 116.176 295.371 115.804 295.371 115.361C295.371 114.986 295.227 114.676 294.937 114.432C294.653 114.187 294.21 114 293.607 113.869L291.374 113.401C290.119 113.139 289.19 112.699 288.587 112.08C287.985 111.455 287.687 110.665 287.692 109.71C287.687 108.903 287.906 108.205 288.349 107.614C288.798 107.017 289.42 106.557 290.215 106.233C291.016 105.903 291.94 105.739 292.985 105.739C294.519 105.739 295.727 106.065 296.607 106.719C297.494 107.372 298.042 108.256 298.252 109.369ZM306.873 119.256C305.56 119.256 304.427 118.983 303.472 118.438C302.523 117.886 301.793 117.108 301.282 116.102C300.771 115.091 300.515 113.901 300.515 112.531C300.515 111.185 300.771 110.003 301.282 108.986C301.799 107.963 302.521 107.168 303.447 106.599C304.373 106.026 305.461 105.739 306.711 105.739C307.518 105.739 308.279 105.869 308.995 106.131C309.717 106.386 310.353 106.784 310.904 107.324C311.461 107.864 311.898 108.551 312.217 109.386C312.535 110.216 312.694 111.205 312.694 112.352V113.298H301.964V111.219H309.737C309.731 110.628 309.603 110.102 309.353 109.642C309.103 109.176 308.754 108.81 308.305 108.543C307.862 108.276 307.344 108.142 306.754 108.142C306.123 108.142 305.569 108.295 305.092 108.602C304.614 108.903 304.242 109.301 303.975 109.795C303.714 110.284 303.58 110.821 303.575 111.406V113.222C303.575 113.983 303.714 114.636 303.992 115.182C304.271 115.722 304.66 116.136 305.16 116.426C305.66 116.71 306.245 116.852 306.915 116.852C307.364 116.852 307.771 116.79 308.134 116.665C308.498 116.534 308.813 116.344 309.08 116.094C309.347 115.844 309.549 115.534 309.685 115.165L312.566 115.489C312.384 116.25 312.038 116.915 311.526 117.483C311.021 118.045 310.373 118.483 309.583 118.795C308.793 119.102 307.89 119.256 306.873 119.256ZM326.115 119.23C325.087 119.23 324.166 118.966 323.354 118.438C322.541 117.909 321.899 117.142 321.428 116.136C320.956 115.131 320.72 113.909 320.72 112.472C320.72 111.017 320.959 109.79 321.436 108.79C321.919 107.784 322.57 107.026 323.388 106.514C324.206 105.997 325.118 105.739 326.124 105.739C326.891 105.739 327.521 105.869 328.016 106.131C328.51 106.386 328.902 106.696 329.192 107.06C329.482 107.418 329.706 107.756 329.865 108.074H329.993V101.545H333.087V119H330.053V116.938H329.865C329.706 117.256 329.476 117.594 329.175 117.952C328.874 118.304 328.476 118.605 327.982 118.855C327.487 119.105 326.865 119.23 326.115 119.23ZM326.976 116.699C327.629 116.699 328.186 116.523 328.646 116.17C329.107 115.812 329.456 115.315 329.695 114.679C329.933 114.043 330.053 113.301 330.053 112.455C330.053 111.608 329.933 110.872 329.695 110.247C329.462 109.622 329.115 109.136 328.655 108.79C328.2 108.443 327.641 108.27 326.976 108.27C326.288 108.27 325.714 108.449 325.254 108.807C324.794 109.165 324.447 109.659 324.214 110.29C323.982 110.92 323.865 111.642 323.865 112.455C323.865 113.273 323.982 114.003 324.214 114.645C324.453 115.281 324.803 115.784 325.263 116.153C325.729 116.517 326.3 116.699 326.976 116.699ZM342.17 119.256C340.857 119.256 339.724 118.983 338.769 118.438C337.82 117.886 337.09 117.108 336.579 116.102C336.067 115.091 335.812 113.901 335.812 112.531C335.812 111.185 336.067 110.003 336.579 108.986C337.096 107.963 337.817 107.168 338.744 106.599C339.67 106.026 340.758 105.739 342.008 105.739C342.815 105.739 343.576 105.869 344.292 106.131C345.013 106.386 345.65 106.784 346.201 107.324C346.758 107.864 347.195 108.551 347.513 109.386C347.832 110.216 347.991 111.205 347.991 112.352V113.298H337.261V111.219H345.033C345.028 110.628 344.9 110.102 344.65 109.642C344.4 109.176 344.05 108.81 343.602 108.543C343.158 108.276 342.641 108.142 342.05 108.142C341.42 108.142 340.866 108.295 340.388 108.602C339.911 108.903 339.539 109.301 339.272 109.795C339.011 110.284 338.877 110.821 338.871 111.406V113.222C338.871 113.983 339.011 114.636 339.289 115.182C339.567 115.722 339.957 116.136 340.457 116.426C340.957 116.71 341.542 116.852 342.212 116.852C342.661 116.852 343.067 116.79 343.431 116.665C343.795 116.534 344.11 116.344 344.377 116.094C344.644 115.844 344.846 115.534 344.982 115.165L347.863 115.489C347.681 116.25 347.335 116.915 346.823 117.483C346.317 118.045 345.67 118.483 344.88 118.795C344.09 119.102 343.187 119.256 342.17 119.256ZM232.39 148V130.545H235.475V137.074H235.603C235.762 136.756 235.986 136.418 236.276 136.06C236.566 135.696 236.958 135.386 237.452 135.131C237.946 134.869 238.577 134.739 239.344 134.739C240.355 134.739 241.267 134.997 242.08 135.514C242.898 136.026 243.546 136.784 244.023 137.79C244.506 138.79 244.748 140.017 244.748 141.472C244.748 142.909 244.512 144.131 244.04 145.136C243.569 146.142 242.926 146.909 242.114 147.438C241.301 147.966 240.381 148.23 239.353 148.23C238.603 148.23 237.98 148.105 237.486 147.855C236.992 147.605 236.594 147.304 236.293 146.952C235.998 146.594 235.767 146.256 235.603 145.938H235.424V148H232.39ZM235.415 141.455C235.415 142.301 235.534 143.043 235.773 143.679C236.017 144.315 236.367 144.812 236.821 145.17C237.282 145.523 237.838 145.699 238.492 145.699C239.174 145.699 239.745 145.517 240.205 145.153C240.665 144.784 241.012 144.281 241.245 143.645C241.483 143.003 241.603 142.273 241.603 141.455C241.603 140.642 241.486 139.92 241.253 139.29C241.02 138.659 240.674 138.165 240.213 137.807C239.753 137.449 239.179 137.27 238.492 137.27C237.833 137.27 237.273 137.443 236.813 137.79C236.353 138.136 236.003 138.622 235.765 139.247C235.532 139.872 235.415 140.608 235.415 141.455ZM251.137 148.264C250.308 148.264 249.561 148.116 248.896 147.821C248.237 147.52 247.714 147.077 247.328 146.491C246.947 145.906 246.757 145.185 246.757 144.327C246.757 143.588 246.893 142.977 247.166 142.494C247.439 142.011 247.811 141.625 248.282 141.335C248.754 141.045 249.285 140.827 249.876 140.679C250.473 140.526 251.089 140.415 251.725 140.347C252.493 140.267 253.115 140.196 253.592 140.134C254.069 140.065 254.416 139.963 254.632 139.827C254.853 139.685 254.964 139.466 254.964 139.17V139.119C254.964 138.477 254.774 137.98 254.393 137.628C254.012 137.276 253.464 137.099 252.748 137.099C251.993 137.099 251.393 137.264 250.95 137.594C250.512 137.923 250.217 138.312 250.064 138.761L247.183 138.352C247.41 137.557 247.785 136.892 248.308 136.358C248.831 135.818 249.47 135.415 250.225 135.148C250.981 134.875 251.816 134.739 252.731 134.739C253.362 134.739 253.99 134.812 254.615 134.96C255.24 135.108 255.811 135.352 256.328 135.693C256.845 136.028 257.26 136.486 257.572 137.065C257.89 137.645 258.049 138.369 258.049 139.239V148H255.083V146.202H254.981C254.794 146.565 254.529 146.906 254.189 147.224C253.853 147.537 253.43 147.79 252.919 147.983C252.413 148.17 251.819 148.264 251.137 148.264ZM251.939 145.997C252.558 145.997 253.095 145.875 253.549 145.631C254.004 145.381 254.353 145.051 254.598 144.642C254.848 144.233 254.973 143.787 254.973 143.304V141.761C254.876 141.841 254.711 141.915 254.478 141.983C254.251 142.051 253.995 142.111 253.711 142.162C253.427 142.213 253.146 142.259 252.868 142.298C252.589 142.338 252.348 142.372 252.143 142.401C251.683 142.463 251.271 142.565 250.907 142.707C250.544 142.849 250.257 143.048 250.047 143.304C249.836 143.554 249.731 143.878 249.731 144.276C249.731 144.844 249.939 145.273 250.353 145.562C250.768 145.852 251.297 145.997 251.939 145.997ZM267.689 134.909V137.295H260.163V134.909H267.689ZM262.021 131.773H265.106V144.062C265.106 144.477 265.169 144.795 265.294 145.017C265.424 145.233 265.595 145.381 265.805 145.46C266.015 145.54 266.248 145.58 266.504 145.58C266.697 145.58 266.873 145.565 267.032 145.537C267.197 145.509 267.322 145.483 267.407 145.46L267.927 147.872C267.762 147.929 267.527 147.991 267.22 148.06C266.919 148.128 266.549 148.168 266.112 148.179C265.339 148.202 264.643 148.085 264.024 147.83C263.404 147.568 262.913 147.165 262.549 146.619C262.191 146.074 262.015 145.392 262.021 144.574V131.773ZM275.924 148.256C274.611 148.256 273.478 147.983 272.523 147.438C271.574 146.886 270.844 146.108 270.333 145.102C269.821 144.091 269.566 142.901 269.566 141.531C269.566 140.185 269.821 139.003 270.333 137.986C270.85 136.963 271.571 136.168 272.498 135.599C273.424 135.026 274.512 134.739 275.762 134.739C276.569 134.739 277.33 134.869 278.046 135.131C278.767 135.386 279.404 135.784 279.955 136.324C280.512 136.864 280.949 137.551 281.267 138.386C281.586 139.216 281.745 140.205 281.745 141.352V142.298H271.015V140.219H278.787C278.782 139.628 278.654 139.102 278.404 138.642C278.154 138.176 277.804 137.81 277.355 137.543C276.912 137.276 276.395 137.142 275.804 137.142C275.174 137.142 274.62 137.295 274.142 137.602C273.665 137.903 273.293 138.301 273.026 138.795C272.765 139.284 272.631 139.821 272.625 140.406V142.222C272.625 142.983 272.765 143.636 273.043 144.182C273.321 144.722 273.711 145.136 274.211 145.426C274.711 145.71 275.296 145.852 275.966 145.852C276.415 145.852 276.821 145.79 277.185 145.665C277.549 145.534 277.864 145.344 278.131 145.094C278.398 144.844 278.6 144.534 278.736 144.165L281.617 144.489C281.435 145.25 281.088 145.915 280.577 146.483C280.071 147.045 279.424 147.483 278.634 147.795C277.844 148.102 276.941 148.256 275.924 148.256ZM292.289 139.46V142H284.431V139.46H292.289ZM295.534 152.909V134.909H298.569V137.074H298.748C298.907 136.756 299.131 136.418 299.421 136.06C299.711 135.696 300.103 135.386 300.597 135.131C301.091 134.869 301.722 134.739 302.489 134.739C303.5 134.739 304.412 134.997 305.225 135.514C306.043 136.026 306.691 136.784 307.168 137.79C307.651 138.79 307.892 140.017 307.892 141.472C307.892 142.909 307.657 144.131 307.185 145.136C306.713 146.142 306.071 146.909 305.259 147.438C304.446 147.966 303.526 148.23 302.498 148.23C301.748 148.23 301.125 148.105 300.631 147.855C300.137 147.605 299.739 147.304 299.438 146.952C299.142 146.594 298.912 146.256 298.748 145.938H298.62V152.909H295.534ZM298.56 141.455C298.56 142.301 298.679 143.043 298.918 143.679C299.162 144.315 299.512 144.812 299.966 145.17C300.426 145.523 300.983 145.699 301.637 145.699C302.319 145.699 302.89 145.517 303.35 145.153C303.81 144.784 304.157 144.281 304.39 143.645C304.628 143.003 304.748 142.273 304.748 141.455C304.748 140.642 304.631 139.92 304.398 139.29C304.165 138.659 303.819 138.165 303.358 137.807C302.898 137.449 302.324 137.27 301.637 137.27C300.978 137.27 300.418 137.443 299.958 137.79C299.498 138.136 299.148 138.622 298.909 139.247C298.676 139.872 298.56 140.608 298.56 141.455ZM314.301 148.264C313.472 148.264 312.725 148.116 312.06 147.821C311.401 147.52 310.878 147.077 310.492 146.491C310.111 145.906 309.921 145.185 309.921 144.327C309.921 143.588 310.057 142.977 310.33 142.494C310.603 142.011 310.975 141.625 311.446 141.335C311.918 141.045 312.449 140.827 313.04 140.679C313.637 140.526 314.253 140.415 314.89 140.347C315.657 140.267 316.279 140.196 316.756 140.134C317.233 140.065 317.58 139.963 317.796 139.827C318.017 139.685 318.128 139.466 318.128 139.17V139.119C318.128 138.477 317.938 137.98 317.557 137.628C317.176 137.276 316.628 137.099 315.912 137.099C315.157 137.099 314.557 137.264 314.114 137.594C313.676 137.923 313.381 138.312 313.228 138.761L310.347 138.352C310.574 137.557 310.949 136.892 311.472 136.358C311.995 135.818 312.634 135.415 313.39 135.148C314.145 134.875 314.98 134.739 315.895 134.739C316.526 134.739 317.154 134.812 317.779 134.96C318.404 135.108 318.975 135.352 319.492 135.693C320.009 136.028 320.424 136.486 320.736 137.065C321.054 137.645 321.213 138.369 321.213 139.239V148H318.248V146.202H318.145C317.958 146.565 317.694 146.906 317.353 147.224C317.017 147.537 316.594 147.79 316.083 147.983C315.577 148.17 314.983 148.264 314.301 148.264ZM315.103 145.997C315.722 145.997 316.259 145.875 316.713 145.631C317.168 145.381 317.517 145.051 317.762 144.642C318.012 144.233 318.137 143.787 318.137 143.304V141.761C318.04 141.841 317.875 141.915 317.642 141.983C317.415 142.051 317.159 142.111 316.875 142.162C316.591 142.213 316.31 142.259 316.032 142.298C315.753 142.338 315.512 142.372 315.307 142.401C314.847 142.463 314.435 142.565 314.071 142.707C313.708 142.849 313.421 143.048 313.211 143.304C313 143.554 312.895 143.878 312.895 144.276C312.895 144.844 313.103 145.273 313.517 145.562C313.932 145.852 314.461 145.997 315.103 145.997ZM324.316 152.909V134.909H327.35V137.074H327.529C327.688 136.756 327.912 136.418 328.202 136.06C328.492 135.696 328.884 135.386 329.378 135.131C329.873 134.869 330.503 134.739 331.27 134.739C332.282 134.739 333.194 134.997 334.006 135.514C334.824 136.026 335.472 136.784 335.949 137.79C336.432 138.79 336.674 140.017 336.674 141.472C336.674 142.909 336.438 144.131 335.966 145.136C335.495 146.142 334.853 146.909 334.04 147.438C333.228 147.966 332.307 148.23 331.279 148.23C330.529 148.23 329.907 148.105 329.412 147.855C328.918 147.605 328.52 147.304 328.219 146.952C327.924 146.594 327.694 146.256 327.529 145.938H327.401V152.909H324.316ZM327.341 141.455C327.341 142.301 327.461 143.043 327.699 143.679C327.944 144.315 328.293 144.812 328.748 145.17C329.208 145.523 329.765 145.699 330.418 145.699C331.1 145.699 331.671 145.517 332.131 145.153C332.591 144.784 332.938 144.281 333.171 143.645C333.409 143.003 333.529 142.273 333.529 141.455C333.529 140.642 333.412 139.92 333.179 139.29C332.946 138.659 332.6 138.165 332.14 137.807C331.679 137.449 331.105 137.27 330.418 137.27C329.759 137.27 329.199 137.443 328.739 137.79C328.279 138.136 327.929 138.622 327.691 139.247C327.458 139.872 327.341 140.608 327.341 141.455ZM345.026 148.256C343.748 148.256 342.64 147.974 341.702 147.412C340.765 146.849 340.037 146.062 339.52 145.051C339.009 144.04 338.753 142.858 338.753 141.506C338.753 140.153 339.009 138.969 339.52 137.952C340.037 136.935 340.765 136.145 341.702 135.582C342.64 135.02 343.748 134.739 345.026 134.739C346.304 134.739 347.412 135.02 348.35 135.582C349.287 136.145 350.012 136.935 350.523 137.952C351.04 138.969 351.299 140.153 351.299 141.506C351.299 142.858 351.04 144.04 350.523 145.051C350.012 146.062 349.287 146.849 348.35 147.412C347.412 147.974 346.304 148.256 345.026 148.256ZM345.043 145.784C345.736 145.784 346.316 145.594 346.782 145.213C347.248 144.827 347.594 144.31 347.821 143.662C348.054 143.014 348.171 142.293 348.171 141.497C348.171 140.696 348.054 139.972 347.821 139.324C347.594 138.67 347.248 138.151 346.782 137.764C346.316 137.378 345.736 137.185 345.043 137.185C344.333 137.185 343.742 137.378 343.27 137.764C342.804 138.151 342.455 138.67 342.222 139.324C341.995 139.972 341.881 140.696 341.881 141.497C341.881 142.293 341.995 143.014 342.222 143.662C342.455 144.31 342.804 144.827 343.27 145.213C343.742 145.594 344.333 145.784 345.043 145.784Z" fill="#3A74B5"/>
</svg>
