<svg width="66" height="68" viewBox="0 0 66 68" fill="none" xmlns="http://www.w3.org/2000/svg">
<g filter="url(#filter0_d_4255_22675)">
<rect width="64" height="64" rx="32" fill="white" shape-rendering="crispEdges"/>
<path d="M29.9997 33.3334H26.6663V29.3334H29.9997V26H33.9997V29.3334H37.333V33.3334H33.9997V36.6667H29.9997V33.3334ZM31.9997 18.6667L21.333 22.6667V30.7867C21.333 37.52 25.8797 43.8 31.9997 45.3334C38.1197 43.8 42.6663 37.52 42.6663 30.7867V22.6667L31.9997 18.6667ZM39.9997 30.7867C39.9997 36.12 36.5997 41.0534 31.9997 42.56C27.3997 41.0534 23.9997 36.1334 23.9997 30.7867V24.52L31.9997 21.52L39.9997 24.52V30.7867Z" fill="black"/>
</g>
<defs>
<filter id="filter0_d_4255_22675" x="0" y="0" width="66" height="68" filterUnits="userSpaceOnUse" color-interpolation-filters="sRGB">
<feFlood flood-opacity="0" result="BackgroundImageFix"/>
<feColorMatrix in="SourceAlpha" type="matrix" values="0 0 0 0 0 0 0 0 0 0 0 0 0 0 0 0 0 0 127 0" result="hardAlpha"/>
<feOffset dx="2" dy="4"/>
<feComposite in2="hardAlpha" operator="out"/>
<feColorMatrix type="matrix" values="0 0 0 0 0 0 0 0 0 0 0 0 0 0 0 0 0 0 1 0"/>
<feBlend mode="normal" in2="BackgroundImageFix" result="effect1_dropShadow_4255_22675"/>
<feBlend mode="normal" in="SourceGraphic" in2="effect1_dropShadow_4255_22675" result="shape"/>
</filter>
</defs>
</svg>
