<svg width="74" height="76" viewBox="0 0 74 76" fill="none" xmlns="http://www.w3.org/2000/svg">
<g filter="url(#filter0_d_4255_22775)">
<rect width="72" height="72" rx="36" fill="#F4FF80" shape-rendering="crispEdges"/>
<path d="M44.3333 33.5V27.6667C44.3333 26.75 43.5833 26 42.6667 26H22.6667C21.75 26 21 26.75 21 27.6667V44.3333C21 45.25 21.75 46 22.6667 46H42.6667C43.5833 46 44.3333 45.25 44.3333 44.3333V38.5L51 45.1667V26.8333L44.3333 33.5ZM41 42.6667H24.3333V29.3333H41V42.6667ZM31 41H34.3333V37.6667H37.6667V34.3333H34.3333V31H31V34.3333H27.6667V37.6667H31V41Z" fill="black"/>
</g>
<defs>
<filter id="filter0_d_4255_22775" x="0" y="0" width="74" height="76" filterUnits="userSpaceOnUse" color-interpolation-filters="sRGB">
<feFlood flood-opacity="0" result="BackgroundImageFix"/>
<feColorMatrix in="SourceAlpha" type="matrix" values="0 0 0 0 0 0 0 0 0 0 0 0 0 0 0 0 0 0 127 0" result="hardAlpha"/>
<feOffset dx="2" dy="4"/>
<feComposite in2="hardAlpha" operator="out"/>
<feColorMatrix type="matrix" values="0 0 0 0 0 0 0 0 0 0 0 0 0 0 0 0 0 0 1 0"/>
<feBlend mode="normal" in2="BackgroundImageFix" result="effect1_dropShadow_4255_22775"/>
<feBlend mode="normal" in="SourceGraphic" in2="effect1_dropShadow_4255_22775" result="shape"/>
</filter>
</defs>
</svg>
