<svg width="74" height="76" viewBox="0 0 74 76" fill="none" xmlns="http://www.w3.org/2000/svg">
<g filter="url(#filter0_d_4255_23014)">
<rect width="72" height="72" rx="36" fill="#26D9D9" shape-rendering="crispEdges"/>
<path d="M49.3333 45.9998C51.1667 45.9998 52.65 44.4998 52.65 42.6665L52.6667 25.9998C52.6667 24.1498 51.1667 22.6665 49.3333 22.6665H22.6667C20.8167 22.6665 19.3333 24.1498 19.3333 25.9998V42.6665C19.3333 44.4998 20.8167 45.9998 22.6667 45.9998H16V49.3332H56V45.9998H49.3333ZM22.6667 42.6665V25.9998H49.3333V42.6832L22.6667 42.6665ZM37.6667 31.2165C31.1833 32.1165 28.6 36.5498 27.6667 40.9998C29.9833 37.8832 33.0333 36.4665 37.6667 36.4665V40.1165L44.3333 33.8832L37.6667 27.6665V31.2165Z" fill="black"/>
</g>
<defs>
<filter id="filter0_d_4255_23014" x="0" y="0" width="74" height="76" filterUnits="userSpaceOnUse" color-interpolation-filters="sRGB">
<feFlood flood-opacity="0" result="BackgroundImageFix"/>
<feColorMatrix in="SourceAlpha" type="matrix" values="0 0 0 0 0 0 0 0 0 0 0 0 0 0 0 0 0 0 127 0" result="hardAlpha"/>
<feOffset dx="2" dy="4"/>
<feComposite in2="hardAlpha" operator="out"/>
<feColorMatrix type="matrix" values="0 0 0 0 0 0 0 0 0 0 0 0 0 0 0 0 0 0 1 0"/>
<feBlend mode="normal" in2="BackgroundImageFix" result="effect1_dropShadow_4255_23014"/>
<feBlend mode="normal" in="SourceGraphic" in2="effect1_dropShadow_4255_23014" result="shape"/>
</filter>
</defs>
</svg>
