<svg width="540" height="400" viewBox="0 0 540 400" fill="none" xmlns="http://www.w3.org/2000/svg">
<g clip-path="url(#clip0_4255_22779)">
<rect width="625" height="450" transform="translate(-42.5 -25)" fill="white"/>
<path fill-rule="evenodd" clip-rule="evenodd" d="M359.167 139.778C373.412 172.028 379.466 208.047 368.45 240.726C356.571 275.964 333.573 310.493 298.648 319.301C265.347 327.699 235.718 298.274 204.289 282.126C173.71 266.415 136.809 259.127 120.607 227.825C102.915 193.644 100.612 149.797 119.014 117.376C136.338 86.8539 174.771 82.3452 208.036 73.7887C236.766 66.3985 266.2 60.1733 294.076 72.345C323.251 85.0836 345.925 109.799 359.167 139.778Z" fill="#FBFFCC"/>
<g filter="url(#filter0_d_4255_22779)">
<rect x="90" y="158" width="309" height="64" rx="8" fill="white"/>
<rect x="109.5" y="170" width="40" height="40" rx="20" fill="white"/>
<rect x="110.75" y="171.25" width="37.5" height="37.5" rx="18.75" fill="#4CD9D9" fill-opacity="0.16"/>
<path d="M126.421 187.062C126.368 186.566 126.144 186.18 125.751 185.903C125.36 185.627 124.853 185.489 124.228 185.489C123.788 185.489 123.411 185.555 123.097 185.688C122.783 185.82 122.542 186 122.376 186.227C122.209 186.455 122.124 186.714 122.12 187.006C122.12 187.248 122.175 187.458 122.285 187.636C122.398 187.814 122.552 187.966 122.745 188.091C122.938 188.212 123.152 188.314 123.387 188.398C123.622 188.481 123.858 188.551 124.097 188.608L125.188 188.881C125.627 188.983 126.05 189.121 126.455 189.295C126.864 189.47 127.23 189.689 127.552 189.955C127.877 190.22 128.135 190.54 128.324 190.915C128.514 191.29 128.608 191.729 128.608 192.233C128.608 192.915 128.434 193.515 128.086 194.034C127.737 194.549 127.233 194.953 126.574 195.244C125.919 195.532 125.126 195.676 124.194 195.676C123.288 195.676 122.502 195.536 121.836 195.256C121.173 194.975 120.654 194.566 120.279 194.028C119.908 193.491 119.707 192.835 119.677 192.062H121.751C121.781 192.468 121.906 192.805 122.126 193.074C122.345 193.343 122.631 193.544 122.983 193.676C123.34 193.809 123.737 193.875 124.177 193.875C124.635 193.875 125.036 193.807 125.381 193.67C125.73 193.53 126.002 193.337 126.199 193.091C126.396 192.841 126.497 192.549 126.501 192.216C126.497 191.913 126.408 191.663 126.233 191.466C126.059 191.265 125.815 191.098 125.501 190.966C125.19 190.83 124.826 190.708 124.41 190.602L123.086 190.261C122.127 190.015 121.37 189.642 120.813 189.142C120.26 188.638 119.983 187.97 119.983 187.136C119.983 186.451 120.169 185.85 120.54 185.335C120.915 184.82 121.425 184.42 122.069 184.136C122.713 183.848 123.442 183.705 124.256 183.705C125.082 183.705 125.805 183.848 126.427 184.136C127.052 184.42 127.542 184.816 127.898 185.324C128.254 185.828 128.438 186.407 128.449 187.062H126.421ZM137.132 187.062C137.079 186.566 136.855 186.18 136.461 185.903C136.071 185.627 135.563 185.489 134.938 185.489C134.499 185.489 134.122 185.555 133.808 185.688C133.493 185.82 133.253 186 133.086 186.227C132.919 186.455 132.834 186.714 132.83 187.006C132.83 187.248 132.885 187.458 132.995 187.636C133.109 187.814 133.262 187.966 133.455 188.091C133.649 188.212 133.863 188.314 134.097 188.398C134.332 188.481 134.569 188.551 134.808 188.608L135.899 188.881C136.338 188.983 136.76 189.121 137.166 189.295C137.575 189.47 137.94 189.689 138.262 189.955C138.588 190.22 138.846 190.54 139.035 190.915C139.224 191.29 139.319 191.729 139.319 192.233C139.319 192.915 139.145 193.515 138.796 194.034C138.448 194.549 137.944 194.953 137.285 195.244C136.63 195.532 135.836 195.676 134.904 195.676C133.999 195.676 133.213 195.536 132.546 195.256C131.883 194.975 131.365 194.566 130.99 194.028C130.618 193.491 130.418 192.835 130.387 192.062H132.461C132.491 192.468 132.616 192.805 132.836 193.074C133.056 193.343 133.342 193.544 133.694 193.676C134.05 193.809 134.448 193.875 134.887 193.875C135.346 193.875 135.747 193.807 136.092 193.67C136.44 193.53 136.713 193.337 136.91 193.091C137.107 192.841 137.207 192.549 137.211 192.216C137.207 191.913 137.118 191.663 136.944 191.466C136.77 191.265 136.526 191.098 136.211 190.966C135.901 190.83 135.537 190.708 135.12 190.602L133.796 190.261C132.838 190.015 132.08 189.642 131.524 189.142C130.971 188.638 130.694 187.97 130.694 187.136C130.694 186.451 130.88 185.85 131.251 185.335C131.626 184.82 132.135 184.42 132.779 184.136C133.423 183.848 134.152 183.705 134.967 183.705C135.793 183.705 136.516 183.848 137.137 184.136C137.762 184.42 138.253 184.816 138.609 185.324C138.965 185.828 139.149 186.407 139.16 187.062H137.132Z" fill="#212528"/>
<circle cx="143" cy="203" r="4" fill="#29A653"/>
<circle cx="143" cy="203" r="4" stroke="white"/>
<rect x="110.75" y="171.25" width="37.5" height="37.5" rx="18.75" stroke="white" stroke-width="2.5"/>
<path d="M158.403 205.5V204.733L161.284 201.58C161.622 201.21 161.901 200.889 162.119 200.616C162.338 200.341 162.5 200.082 162.605 199.841C162.713 199.597 162.767 199.341 162.767 199.074C162.767 198.767 162.693 198.501 162.545 198.277C162.401 198.053 162.202 197.879 161.949 197.757C161.696 197.635 161.412 197.574 161.097 197.574C160.761 197.574 160.469 197.643 160.219 197.783C159.972 197.919 159.78 198.111 159.643 198.358C159.51 198.605 159.443 198.895 159.443 199.227H158.438C158.438 198.716 158.555 198.267 158.791 197.881C159.027 197.494 159.348 197.193 159.754 196.977C160.163 196.761 160.622 196.653 161.131 196.653C161.642 196.653 162.095 196.761 162.49 196.977C162.885 197.193 163.195 197.484 163.419 197.851C163.643 198.217 163.756 198.625 163.756 199.074C163.756 199.395 163.697 199.709 163.581 200.016C163.467 200.32 163.268 200.659 162.984 201.034C162.703 201.406 162.312 201.861 161.812 202.398L159.852 204.494V204.562H163.909V205.5H158.403ZM168.618 205.619C168.055 205.619 167.554 205.523 167.114 205.33C166.676 205.136 166.328 204.868 166.07 204.524C165.814 204.178 165.675 203.776 165.652 203.318H166.726C166.749 203.599 166.845 203.842 167.016 204.047C167.186 204.249 167.409 204.405 167.685 204.516C167.96 204.626 168.266 204.682 168.601 204.682C168.976 204.682 169.308 204.616 169.598 204.486C169.888 204.355 170.115 204.173 170.28 203.94C170.445 203.707 170.527 203.438 170.527 203.131C170.527 202.81 170.447 202.527 170.288 202.283C170.129 202.036 169.896 201.842 169.589 201.703C169.283 201.564 168.908 201.494 168.464 201.494H167.766V200.557H168.464C168.811 200.557 169.115 200.494 169.376 200.369C169.641 200.244 169.847 200.068 169.994 199.841C170.145 199.614 170.22 199.347 170.22 199.04C170.22 198.744 170.155 198.487 170.024 198.268C169.893 198.05 169.709 197.879 169.47 197.757C169.234 197.635 168.956 197.574 168.635 197.574C168.334 197.574 168.05 197.629 167.783 197.74C167.518 197.848 167.303 198.006 167.135 198.213C166.967 198.418 166.876 198.665 166.862 198.955H165.839C165.857 198.497 165.994 198.097 166.253 197.753C166.511 197.406 166.849 197.136 167.267 196.943C167.688 196.75 168.149 196.653 168.652 196.653C169.192 196.653 169.655 196.763 170.041 196.982C170.428 197.197 170.724 197.483 170.932 197.838C171.139 198.193 171.243 198.577 171.243 198.989C171.243 199.48 171.114 199.899 170.855 200.246C170.599 200.592 170.251 200.832 169.811 200.966V201.034C170.362 201.125 170.793 201.359 171.102 201.737C171.412 202.112 171.567 202.577 171.567 203.131C171.567 203.605 171.438 204.031 171.179 204.409C170.923 204.784 170.574 205.08 170.131 205.295C169.688 205.511 169.183 205.619 168.618 205.619ZM176.378 196.773V205.5H175.321V197.881H175.27L173.139 199.295V198.222L175.321 196.773H176.378Z" fill="#5D6164"/>
<path d="M164.972 179.062C164.919 178.566 164.695 178.18 164.301 177.903C163.911 177.627 163.403 177.489 162.778 177.489C162.339 177.489 161.962 177.555 161.648 177.688C161.333 177.82 161.093 178 160.926 178.227C160.759 178.455 160.674 178.714 160.67 179.006C160.67 179.248 160.725 179.458 160.835 179.636C160.949 179.814 161.102 179.966 161.295 180.091C161.489 180.212 161.703 180.314 161.938 180.398C162.172 180.481 162.409 180.551 162.648 180.608L163.739 180.881C164.178 180.983 164.6 181.121 165.006 181.295C165.415 181.47 165.78 181.689 166.102 181.955C166.428 182.22 166.686 182.54 166.875 182.915C167.064 183.29 167.159 183.729 167.159 184.233C167.159 184.915 166.985 185.515 166.636 186.034C166.288 186.549 165.784 186.953 165.125 187.244C164.47 187.532 163.676 187.676 162.744 187.676C161.839 187.676 161.053 187.536 160.386 187.256C159.723 186.975 159.205 186.566 158.83 186.028C158.458 185.491 158.258 184.835 158.227 184.062H160.301C160.331 184.468 160.456 184.805 160.676 185.074C160.896 185.343 161.182 185.544 161.534 185.676C161.89 185.809 162.288 185.875 162.727 185.875C163.186 185.875 163.587 185.807 163.932 185.67C164.28 185.53 164.553 185.337 164.75 185.091C164.947 184.841 165.047 184.549 165.051 184.216C165.047 183.913 164.958 183.663 164.784 183.466C164.61 183.265 164.366 183.098 164.051 182.966C163.741 182.83 163.377 182.708 162.96 182.602L161.636 182.261C160.678 182.015 159.92 181.642 159.364 181.142C158.811 180.638 158.534 179.97 158.534 179.136C158.534 178.451 158.72 177.85 159.091 177.335C159.466 176.82 159.975 176.42 160.619 176.136C161.263 175.848 161.992 175.705 162.807 175.705C163.633 175.705 164.356 175.848 164.977 176.136C165.602 176.42 166.093 176.816 166.449 177.324C166.805 177.828 166.989 178.407 167 179.062H164.972ZM173.305 178.773V180.364H168.288V178.773H173.305ZM169.527 176.682H171.584V184.875C171.584 185.152 171.625 185.364 171.709 185.511C171.796 185.655 171.91 185.754 172.05 185.807C172.19 185.86 172.345 185.886 172.516 185.886C172.644 185.886 172.762 185.877 172.868 185.858C172.978 185.839 173.061 185.822 173.118 185.807L173.464 187.415C173.355 187.453 173.197 187.494 172.993 187.54C172.792 187.585 172.546 187.612 172.254 187.619C171.739 187.634 171.275 187.557 170.862 187.386C170.449 187.212 170.122 186.943 169.879 186.58C169.641 186.216 169.523 185.761 169.527 185.216V176.682ZM178.795 187.67C177.92 187.67 177.165 187.489 176.528 187.125C175.896 186.758 175.409 186.239 175.068 185.568C174.727 184.894 174.557 184.1 174.557 183.188C174.557 182.29 174.727 181.502 175.068 180.824C175.413 180.142 175.894 179.612 176.511 179.233C177.129 178.85 177.854 178.659 178.688 178.659C179.225 178.659 179.733 178.746 180.21 178.92C180.691 179.091 181.116 179.356 181.483 179.716C181.854 180.076 182.146 180.534 182.358 181.091C182.57 181.644 182.676 182.303 182.676 183.068V183.699H175.523V182.312H180.705C180.701 181.919 180.616 181.568 180.449 181.261C180.282 180.951 180.049 180.706 179.75 180.528C179.455 180.35 179.11 180.261 178.716 180.261C178.295 180.261 177.926 180.364 177.608 180.568C177.29 180.769 177.042 181.034 176.864 181.364C176.689 181.689 176.6 182.047 176.597 182.438V183.648C176.597 184.155 176.689 184.591 176.875 184.955C177.061 185.314 177.32 185.591 177.653 185.784C177.987 185.973 178.377 186.068 178.824 186.068C179.123 186.068 179.394 186.027 179.636 185.943C179.879 185.856 180.089 185.729 180.267 185.562C180.445 185.396 180.58 185.189 180.67 184.943L182.591 185.159C182.47 185.667 182.239 186.11 181.898 186.489C181.561 186.864 181.129 187.155 180.602 187.364C180.076 187.568 179.473 187.67 178.795 187.67ZM191.962 178.773L188.854 187.5H186.581L183.473 178.773H185.666L187.672 185.256H187.763L189.774 178.773H191.962ZM196.952 187.67C196.077 187.67 195.321 187.489 194.685 187.125C194.052 186.758 193.565 186.239 193.224 185.568C192.884 184.894 192.713 184.1 192.713 183.188C192.713 182.29 192.884 181.502 193.224 180.824C193.569 180.142 194.05 179.612 194.668 179.233C195.285 178.85 196.01 178.659 196.844 178.659C197.382 178.659 197.889 178.746 198.366 178.92C198.848 179.091 199.272 179.356 199.639 179.716C200.01 180.076 200.302 180.534 200.514 181.091C200.726 181.644 200.832 182.303 200.832 183.068V183.699H193.679V182.312H198.861C198.857 181.919 198.772 181.568 198.605 181.261C198.438 180.951 198.205 180.706 197.906 180.528C197.611 180.35 197.266 180.261 196.872 180.261C196.452 180.261 196.082 180.364 195.764 180.568C195.446 180.769 195.198 181.034 195.02 181.364C194.846 181.689 194.757 182.047 194.753 182.438V183.648C194.753 184.155 194.846 184.591 195.031 184.955C195.217 185.314 195.476 185.591 195.81 185.784C196.143 185.973 196.533 186.068 196.98 186.068C197.279 186.068 197.55 186.027 197.793 185.943C198.035 185.856 198.245 185.729 198.423 185.562C198.601 185.396 198.736 185.189 198.827 184.943L200.747 185.159C200.626 185.667 200.395 186.11 200.054 186.489C199.717 186.864 199.285 187.155 198.759 187.364C198.232 187.568 197.63 187.67 196.952 187.67ZM212.956 179.062C212.903 178.566 212.679 178.18 212.286 177.903C211.895 177.627 211.388 177.489 210.763 177.489C210.323 177.489 209.946 177.555 209.632 177.688C209.318 177.82 209.077 178 208.911 178.227C208.744 178.455 208.659 178.714 208.655 179.006C208.655 179.248 208.71 179.458 208.82 179.636C208.933 179.814 209.087 179.966 209.28 180.091C209.473 180.212 209.687 180.314 209.922 180.398C210.157 180.481 210.393 180.551 210.632 180.608L211.723 180.881C212.162 180.983 212.585 181.121 212.99 181.295C213.399 181.47 213.765 181.689 214.087 181.955C214.412 182.22 214.67 182.54 214.859 182.915C215.049 183.29 215.143 183.729 215.143 184.233C215.143 184.915 214.969 185.515 214.621 186.034C214.272 186.549 213.768 186.953 213.109 187.244C212.454 187.532 211.661 187.676 210.729 187.676C209.823 187.676 209.037 187.536 208.371 187.256C207.708 186.975 207.189 186.566 206.814 186.028C206.443 185.491 206.242 184.835 206.212 184.062H208.286C208.316 184.468 208.441 184.805 208.661 185.074C208.88 185.343 209.166 185.544 209.518 185.676C209.875 185.809 210.272 185.875 210.712 185.875C211.17 185.875 211.571 185.807 211.916 185.67C212.265 185.53 212.537 185.337 212.734 185.091C212.931 184.841 213.032 184.549 213.036 184.216C213.032 183.913 212.943 183.663 212.768 183.466C212.594 183.265 212.35 183.098 212.036 182.966C211.725 182.83 211.361 182.708 210.945 182.602L209.621 182.261C208.662 182.015 207.905 181.642 207.348 181.142C206.795 180.638 206.518 179.97 206.518 179.136C206.518 178.451 206.704 177.85 207.075 177.335C207.45 176.82 207.96 176.42 208.604 176.136C209.248 175.848 209.977 175.705 210.791 175.705C211.617 175.705 212.34 175.848 212.962 176.136C213.587 176.42 214.077 176.816 214.433 177.324C214.789 177.828 214.973 178.407 214.984 179.062H212.956ZM221.29 178.773V180.364H216.273V178.773H221.29ZM217.511 176.682H219.568V184.875C219.568 185.152 219.61 185.364 219.693 185.511C219.78 185.655 219.894 185.754 220.034 185.807C220.174 185.86 220.33 185.886 220.5 185.886C220.629 185.886 220.746 185.877 220.852 185.858C220.962 185.839 221.045 185.822 221.102 185.807L221.449 187.415C221.339 187.453 221.182 187.494 220.977 187.54C220.777 187.585 220.53 187.612 220.239 187.619C219.723 187.634 219.259 187.557 218.847 187.386C218.434 187.212 218.106 186.943 217.864 186.58C217.625 186.216 217.508 185.761 217.511 185.216V176.682ZM225.521 187.676C224.968 187.676 224.47 187.578 224.027 187.381C223.588 187.18 223.239 186.884 222.982 186.494C222.728 186.104 222.601 185.623 222.601 185.051C222.601 184.559 222.692 184.152 222.874 183.83C223.055 183.508 223.304 183.25 223.618 183.057C223.932 182.864 224.286 182.718 224.68 182.619C225.078 182.517 225.489 182.443 225.913 182.398C226.425 182.345 226.839 182.297 227.158 182.256C227.476 182.21 227.707 182.142 227.851 182.051C227.999 181.956 228.072 181.811 228.072 181.614V181.58C228.072 181.152 227.946 180.82 227.692 180.585C227.438 180.35 227.072 180.233 226.595 180.233C226.091 180.233 225.692 180.343 225.396 180.562C225.105 180.782 224.908 181.042 224.805 181.341L222.885 181.068C223.036 180.538 223.286 180.095 223.635 179.739C223.983 179.379 224.41 179.11 224.913 178.932C225.417 178.75 225.974 178.659 226.584 178.659C227.004 178.659 227.423 178.708 227.839 178.807C228.256 178.905 228.637 179.068 228.982 179.295C229.326 179.519 229.603 179.824 229.811 180.21C230.023 180.597 230.129 181.08 230.129 181.659V187.5H228.152V186.301H228.084C227.959 186.544 227.783 186.771 227.555 186.983C227.332 187.191 227.05 187.36 226.709 187.489C226.372 187.614 225.976 187.676 225.521 187.676ZM226.055 186.165C226.468 186.165 226.826 186.083 227.129 185.92C227.432 185.754 227.665 185.534 227.828 185.261C227.995 184.989 228.078 184.691 228.078 184.369V183.341C228.014 183.394 227.904 183.443 227.749 183.489C227.597 183.534 227.427 183.574 227.237 183.608C227.048 183.642 226.86 183.672 226.675 183.699C226.489 183.725 226.328 183.748 226.192 183.767C225.885 183.809 225.61 183.877 225.368 183.972C225.125 184.066 224.934 184.199 224.794 184.369C224.654 184.536 224.584 184.752 224.584 185.017C224.584 185.396 224.722 185.682 224.999 185.875C225.275 186.068 225.627 186.165 226.055 186.165ZM232.197 187.5V178.773H234.192V180.227H234.283C234.442 179.723 234.714 179.335 235.101 179.062C235.491 178.786 235.936 178.648 236.436 178.648C236.55 178.648 236.677 178.653 236.817 178.665C236.961 178.672 237.08 178.686 237.175 178.705V180.597C237.088 180.566 236.949 180.54 236.76 180.517C236.574 180.491 236.394 180.477 236.22 180.477C235.845 180.477 235.508 180.559 235.209 180.722C234.913 180.881 234.68 181.102 234.51 181.386C234.339 181.67 234.254 181.998 234.254 182.369V187.5H232.197ZM240.416 184.761L240.411 182.278H240.74L243.876 178.773H246.28L242.422 183.068H241.996L240.416 184.761ZM238.541 187.5V175.864H240.598V187.5H238.541ZM244.018 187.5L241.178 183.528L242.564 182.08L246.479 187.5H244.018Z" fill="#3F4346"/>
<line x1="255" y1="205" x2="255" y2="175" stroke="#D5D9DC"/>
<rect x="263.5" y="172" width="36" height="36" rx="18" fill="white"/>
<path d="M276.95 184.167C277 184.908 277.125 185.633 277.325 186.325L276.325 187.325C275.983 186.325 275.767 185.267 275.692 184.167H276.95ZM285.167 194.183C285.875 194.383 286.6 194.508 287.333 194.558V195.8C286.233 195.725 285.175 195.508 284.167 195.175L285.167 194.183ZM277.75 182.5H274.833C274.375 182.5 274 182.875 274 183.333C274 191.158 280.342 197.5 288.167 197.5C288.625 197.5 289 197.125 289 196.667V193.758C289 193.3 288.625 192.925 288.167 192.925C287.133 192.925 286.125 192.758 285.192 192.45C285.108 192.417 285.017 192.408 284.933 192.408C284.717 192.408 284.508 192.492 284.342 192.65L282.508 194.483C280.15 193.275 278.217 191.35 277.017 188.992L278.85 187.158C279.083 186.925 279.15 186.6 279.058 186.308C278.75 185.375 278.583 184.375 278.583 183.333C278.583 182.875 278.208 182.5 277.75 182.5Z" fill="#5D6164"/>
<rect x="303.5" y="172" width="36" height="36" rx="18" fill="white"/>
<path d="M325.667 188.75V185.833C325.667 185.375 325.292 185 324.833 185H314.833C314.375 185 314 185.375 314 185.833V194.167C314 194.625 314.375 195 314.833 195H324.833C325.292 195 325.667 194.625 325.667 194.167V191.25L329 194.583V185.417L325.667 188.75ZM324 193.333H315.667V186.667H324V193.333ZM319 192.5H320.667V190.833H322.333V189.167H320.667V187.5H319V189.167H317.333V190.833H319V192.5Z" fill="#5D6164"/>
<rect x="343.5" y="172" width="36" height="36" rx="18" fill="white"/>
<g clip-path="url(#clip1_4255_22779)">
<path d="M368.167 195C369.083 195 369.825 194.25 369.825 193.333L369.833 185C369.833 184.075 369.083 183.333 368.167 183.333H354.833C353.908 183.333 353.167 184.075 353.167 185V193.333C353.167 194.25 353.908 195 354.833 195H351.5V196.667H371.5V195H368.167ZM354.833 193.333V185H368.167V193.342L354.833 193.333ZM362.333 187.608C359.092 188.058 357.8 190.275 357.333 192.5C358.492 190.942 360.017 190.233 362.333 190.233V192.058L365.667 188.942L362.333 185.833V187.608Z" fill="#5D6164"/>
</g>
<rect x="90.5" y="158.5" width="308" height="63" rx="7.5" stroke="#F4FF80"/>
</g>
<g filter="url(#filter1_dd_4255_22779)">
<rect x="258" y="298" width="127" height="38" rx="19" fill="white" shape-rendering="crispEdges"/>
<path d="M277.936 323L274.08 311.48H275.56L278.912 321.488L282.296 311.48H283.776L279.92 323H277.936ZM284.827 312.832V311.36H286.251V312.832H284.827ZM284.827 323V314.36H286.251V323H284.827ZM292.043 323.24C291.238 323.24 290.547 323.04 289.971 322.64C289.395 322.235 288.95 321.688 288.635 321C288.326 320.312 288.171 319.536 288.171 318.672C288.171 317.808 288.326 317.032 288.635 316.344C288.95 315.656 289.395 315.115 289.971 314.72C290.547 314.32 291.235 314.12 292.035 314.12C292.851 314.12 293.537 314.317 294.091 314.712C294.646 315.107 295.065 315.648 295.347 316.336C295.635 317.024 295.779 317.803 295.779 318.672C295.779 319.531 295.635 320.307 295.347 321C295.065 321.688 294.646 322.235 294.091 322.64C293.537 323.04 292.854 323.24 292.043 323.24ZM292.219 321.936C292.801 321.936 293.278 321.797 293.651 321.52C294.025 321.237 294.299 320.851 294.475 320.36C294.657 319.864 294.747 319.301 294.747 318.672C294.747 318.032 294.657 317.469 294.475 316.984C294.299 316.493 294.027 316.112 293.659 315.84C293.291 315.563 292.825 315.424 292.259 315.424C291.673 315.424 291.187 315.568 290.803 315.856C290.425 316.144 290.142 316.533 289.955 317.024C289.774 317.515 289.683 318.064 289.683 318.672C289.683 319.285 289.777 319.84 289.963 320.336C290.15 320.827 290.43 321.216 290.803 321.504C291.182 321.792 291.654 321.936 292.219 321.936ZM294.747 323V316.64H294.587V311.48H296.019V323H294.747ZM302.005 323.24C301.157 323.24 300.415 323.053 299.781 322.68C299.151 322.301 298.661 321.776 298.309 321.104C297.957 320.427 297.781 319.637 297.781 318.736C297.781 317.792 297.954 316.976 298.301 316.288C298.647 315.595 299.13 315.061 299.749 314.688C300.373 314.309 301.103 314.12 301.941 314.12C302.81 314.12 303.549 314.32 304.157 314.72C304.77 315.12 305.229 315.691 305.533 316.432C305.842 317.173 305.975 318.056 305.933 319.08H304.493V318.568C304.477 317.507 304.261 316.715 303.845 316.192C303.429 315.664 302.81 315.4 301.989 315.4C301.109 315.4 300.439 315.683 299.981 316.248C299.522 316.813 299.293 317.624 299.293 318.68C299.293 319.699 299.522 320.488 299.981 321.048C300.439 321.608 301.093 321.888 301.941 321.888C302.511 321.888 303.007 321.757 303.429 321.496C303.85 321.235 304.181 320.859 304.421 320.368L305.789 320.84C305.453 321.603 304.946 322.195 304.269 322.616C303.597 323.032 302.842 323.24 302.005 323.24ZM298.813 319.08V317.936H305.197V319.08H298.813ZM311.394 323.24C310.535 323.24 309.794 323.045 309.17 322.656C308.551 322.267 308.074 321.728 307.738 321.04C307.402 320.352 307.234 319.563 307.234 318.672C307.234 317.765 307.404 316.971 307.746 316.288C308.087 315.605 308.57 315.075 309.194 314.696C309.818 314.312 310.551 314.12 311.394 314.12C312.258 314.12 313.002 314.315 313.626 314.704C314.25 315.088 314.727 315.624 315.058 316.312C315.394 316.995 315.562 317.781 315.562 318.672C315.562 319.573 315.394 320.368 315.058 321.056C314.722 321.739 314.242 322.275 313.618 322.664C312.994 323.048 312.252 323.24 311.394 323.24ZM311.394 321.888C312.29 321.888 312.956 321.589 313.394 320.992C313.831 320.395 314.05 319.621 314.05 318.672C314.05 317.696 313.828 316.92 313.386 316.344C312.943 315.763 312.279 315.472 311.394 315.472C310.791 315.472 310.295 315.608 309.906 315.88C309.516 316.152 309.226 316.528 309.034 317.008C308.842 317.488 308.746 318.043 308.746 318.672C308.746 319.643 308.97 320.421 309.418 321.008C309.866 321.595 310.524 321.888 311.394 321.888ZM324.166 323.24C323.292 323.24 322.548 323.045 321.934 322.656C321.326 322.261 320.862 321.72 320.542 321.032C320.222 320.344 320.057 319.56 320.046 318.68C320.057 317.779 320.225 316.987 320.55 316.304C320.881 315.616 321.353 315.08 321.966 314.696C322.58 314.312 323.318 314.12 324.182 314.12C325.094 314.12 325.878 314.344 326.534 314.792C327.196 315.24 327.638 315.853 327.862 316.632L326.454 317.056C326.273 316.555 325.977 316.165 325.566 315.888C325.161 315.611 324.694 315.472 324.166 315.472C323.574 315.472 323.086 315.611 322.702 315.888C322.318 316.16 322.033 316.539 321.846 317.024C321.66 317.504 321.564 318.056 321.558 318.68C321.569 319.64 321.79 320.416 322.222 321.008C322.66 321.595 323.308 321.888 324.166 321.888C324.732 321.888 325.201 321.76 325.574 321.504C325.948 321.243 326.23 320.867 326.422 320.376L327.862 320.752C327.564 321.557 327.097 322.173 326.462 322.6C325.828 323.027 325.062 323.24 324.166 323.24ZM331.873 323.24C331.228 323.24 330.686 323.123 330.249 322.888C329.817 322.648 329.489 322.333 329.265 321.944C329.046 321.555 328.937 321.128 328.937 320.664C328.937 320.211 329.022 319.819 329.193 319.488C329.369 319.152 329.614 318.875 329.929 318.656C330.244 318.432 330.62 318.256 331.057 318.128C331.468 318.016 331.926 317.92 332.433 317.84C332.945 317.755 333.462 317.677 333.985 317.608C334.508 317.539 334.996 317.472 335.449 317.408L334.937 317.704C334.953 316.936 334.798 316.368 334.473 316C334.153 315.632 333.598 315.448 332.809 315.448C332.286 315.448 331.828 315.568 331.433 315.808C331.044 316.043 330.769 316.427 330.609 316.96L329.257 316.552C329.465 315.795 329.868 315.2 330.465 314.768C331.062 314.336 331.849 314.12 332.825 314.12C333.609 314.12 334.281 314.261 334.841 314.544C335.406 314.821 335.812 315.243 336.057 315.808C336.18 316.075 336.257 316.365 336.289 316.68C336.321 316.989 336.337 317.315 336.337 317.656V323H335.073V320.928L335.369 321.12C335.044 321.819 334.588 322.347 334.001 322.704C333.42 323.061 332.71 323.24 331.873 323.24ZM332.089 322.048C332.601 322.048 333.044 321.957 333.417 321.776C333.796 321.589 334.1 321.347 334.329 321.048C334.558 320.744 334.708 320.413 334.777 320.056C334.857 319.789 334.9 319.493 334.905 319.168C334.916 318.837 334.921 318.584 334.921 318.408L335.417 318.624C334.953 318.688 334.497 318.749 334.049 318.808C333.601 318.867 333.177 318.931 332.777 319C332.377 319.064 332.017 319.141 331.697 319.232C331.462 319.307 331.241 319.403 331.033 319.52C330.83 319.637 330.665 319.789 330.537 319.976C330.414 320.157 330.353 320.384 330.353 320.656C330.353 320.891 330.412 321.115 330.529 321.328C330.652 321.541 330.838 321.715 331.089 321.848C331.345 321.981 331.678 322.048 332.089 322.048ZM338.577 323V311.24H340.001V323H338.577ZM342.561 323V311.24H343.985V323H342.561ZM346.546 312.832V311.36H347.97V312.832H346.546ZM346.546 323V314.36H347.97V323H346.546ZM356.522 323V318.672C356.522 318.261 356.485 317.867 356.41 317.488C356.341 317.109 356.215 316.771 356.034 316.472C355.858 316.168 355.618 315.928 355.314 315.752C355.015 315.576 354.637 315.488 354.178 315.488C353.821 315.488 353.495 315.549 353.202 315.672C352.914 315.789 352.666 315.971 352.458 316.216C352.25 316.461 352.087 316.771 351.97 317.144C351.858 317.512 351.802 317.947 351.802 318.448L350.866 318.16C350.866 317.323 351.015 316.605 351.314 316.008C351.618 315.405 352.042 314.944 352.586 314.624C353.135 314.299 353.781 314.136 354.522 314.136C355.082 314.136 355.559 314.224 355.954 314.4C356.349 314.576 356.677 314.811 356.938 315.104C357.199 315.392 357.405 315.717 357.554 316.08C357.703 316.437 357.807 316.803 357.866 317.176C357.93 317.544 357.962 317.893 357.962 318.224V323H356.522ZM350.362 323V314.36H351.642V316.672H351.802V323H350.362ZM363.538 327.08C363.085 327.08 362.642 327.011 362.21 326.872C361.778 326.733 361.381 326.523 361.018 326.24C360.661 325.963 360.362 325.611 360.122 325.184L361.426 324.496C361.639 324.917 361.941 325.224 362.33 325.416C362.725 325.608 363.13 325.704 363.546 325.704C364.095 325.704 364.551 325.603 364.914 325.4C365.277 325.203 365.543 324.907 365.714 324.512C365.89 324.117 365.975 323.627 365.97 323.04V320.68H366.138V314.36H367.402V323.056C367.402 323.291 367.394 323.517 367.378 323.736C367.367 323.955 367.341 324.171 367.298 324.384C367.186 324.997 366.965 325.501 366.634 325.896C366.303 326.296 365.877 326.592 365.354 326.784C364.831 326.981 364.226 327.08 363.538 327.08ZM363.434 323.24C362.629 323.24 361.938 323.04 361.362 322.64C360.786 322.235 360.341 321.688 360.026 321C359.717 320.312 359.562 319.536 359.562 318.672C359.562 317.808 359.717 317.032 360.026 316.344C360.341 315.656 360.786 315.115 361.362 314.72C361.938 314.32 362.626 314.12 363.426 314.12C364.242 314.12 364.927 314.317 365.482 314.712C366.037 315.107 366.455 315.648 366.738 316.336C367.026 317.024 367.17 317.803 367.17 318.672C367.17 319.531 367.026 320.307 366.738 321C366.455 321.688 366.037 322.235 365.482 322.64C364.927 323.04 364.245 323.24 363.434 323.24ZM363.61 321.936C364.191 321.936 364.669 321.797 365.042 321.52C365.415 321.237 365.69 320.851 365.866 320.36C366.047 319.864 366.138 319.301 366.138 318.672C366.138 318.032 366.047 317.469 365.866 316.984C365.69 316.493 365.418 316.112 365.05 315.84C364.682 315.563 364.215 315.424 363.65 315.424C363.063 315.424 362.578 315.568 362.194 315.856C361.815 316.144 361.533 316.533 361.346 317.024C361.165 317.515 361.074 318.064 361.074 318.672C361.074 319.285 361.167 319.84 361.354 320.336C361.541 320.827 361.821 321.216 362.194 321.504C362.573 321.792 363.045 321.936 363.61 321.936Z" fill="#212528"/>
</g>
<path d="M322.5 212C322.5 211.448 322.052 211 321.5 211C320.948 211 320.5 211.448 320.5 212H322.5ZM320.793 294.707C321.183 295.098 321.817 295.098 322.207 294.707L328.571 288.343C328.962 287.953 328.962 287.319 328.571 286.929C328.181 286.538 327.547 286.538 327.157 286.929L321.5 292.586L315.843 286.929C315.453 286.538 314.819 286.538 314.429 286.929C314.038 287.319 314.038 287.953 314.429 288.343L320.793 294.707ZM320.5 212V294H322.5V212H320.5Z" fill="#B3B3B3"/>
<g filter="url(#filter2_dd_4255_22779)">
<rect x="219" y="58" width="125" height="38" rx="19" fill="white" shape-rendering="crispEdges"/>
<path d="M238.936 83L235.08 71.48H236.56L239.912 81.488L243.296 71.48H244.776L240.92 83H238.936ZM248.706 83.24C247.848 83.24 247.106 83.0453 246.482 82.656C245.864 82.2667 245.386 81.728 245.05 81.04C244.714 80.352 244.546 79.5627 244.546 78.672C244.546 77.7653 244.717 76.9707 245.058 76.288C245.4 75.6053 245.882 75.0747 246.506 74.696C247.13 74.312 247.864 74.12 248.706 74.12C249.57 74.12 250.314 74.3147 250.938 74.704C251.562 75.088 252.04 75.624 252.37 76.312C252.706 76.9947 252.874 77.7813 252.874 78.672C252.874 79.5733 252.706 80.368 252.37 81.056C252.034 81.7387 251.554 82.2747 250.93 82.664C250.306 83.048 249.565 83.24 248.706 83.24ZM248.706 81.888C249.602 81.888 250.269 81.5893 250.706 80.992C251.144 80.3947 251.362 79.6213 251.362 78.672C251.362 77.696 251.141 76.92 250.698 76.344C250.256 75.7627 249.592 75.472 248.706 75.472C248.104 75.472 247.608 75.608 247.218 75.88C246.829 76.152 246.538 76.528 246.346 77.008C246.154 77.488 246.058 78.0427 246.058 78.672C246.058 79.6427 246.282 80.4213 246.73 81.008C247.178 81.5947 247.837 81.888 248.706 81.888ZM254.796 72.832V71.36H256.22V72.832H254.796ZM254.796 83V74.36H256.22V83H254.796ZM262.26 83.24C261.385 83.24 260.641 83.0453 260.028 82.656C259.42 82.2613 258.956 81.72 258.636 81.032C258.316 80.344 258.151 79.56 258.14 78.68C258.151 77.7787 258.319 76.9867 258.644 76.304C258.975 75.616 259.447 75.08 260.06 74.696C260.673 74.312 261.412 74.12 262.276 74.12C263.188 74.12 263.972 74.344 264.628 74.792C265.289 75.24 265.732 75.8533 265.956 76.632L264.548 77.056C264.367 76.5547 264.071 76.1653 263.66 75.888C263.255 75.6107 262.788 75.472 262.26 75.472C261.668 75.472 261.18 75.6107 260.796 75.888C260.412 76.16 260.127 76.5387 259.94 77.024C259.753 77.504 259.657 78.056 259.652 78.68C259.663 79.64 259.884 80.416 260.316 81.008C260.753 81.5947 261.401 81.888 262.26 81.888C262.825 81.888 263.295 81.76 263.668 81.504C264.041 81.2427 264.324 80.8667 264.516 80.376L265.956 80.752C265.657 81.5573 265.191 82.1733 264.556 82.6C263.921 83.0267 263.156 83.24 262.26 83.24ZM271.098 83.24C270.25 83.24 269.509 83.0533 268.874 82.68C268.245 82.3013 267.754 81.776 267.402 81.104C267.05 80.4267 266.874 79.6373 266.874 78.736C266.874 77.792 267.048 76.976 267.394 76.288C267.741 75.5947 268.224 75.0613 268.842 74.688C269.466 74.3093 270.197 74.12 271.034 74.12C271.904 74.12 272.642 74.32 273.25 74.72C273.864 75.12 274.322 75.6907 274.626 76.432C274.936 77.1733 275.069 78.056 275.026 79.08H273.586V78.568C273.57 77.5067 273.354 76.7147 272.938 76.192C272.522 75.664 271.904 75.4 271.082 75.4C270.202 75.4 269.533 75.6827 269.074 76.248C268.616 76.8133 268.386 77.624 268.386 78.68C268.386 79.6987 268.616 80.488 269.074 81.048C269.533 81.608 270.186 81.888 271.034 81.888C271.605 81.888 272.101 81.7573 272.522 81.496C272.944 81.2347 273.274 80.8587 273.514 80.368L274.882 80.84C274.546 81.6027 274.04 82.1947 273.362 82.616C272.69 83.032 271.936 83.24 271.098 83.24ZM267.906 79.08V77.936H274.29V79.08H267.906ZM283.651 83.24C282.776 83.24 282.032 83.0453 281.419 82.656C280.811 82.2613 280.347 81.72 280.027 81.032C279.707 80.344 279.541 79.56 279.531 78.68C279.541 77.7787 279.709 76.9867 280.035 76.304C280.365 75.616 280.837 75.08 281.451 74.696C282.064 74.312 282.803 74.12 283.667 74.12C284.579 74.12 285.363 74.344 286.019 74.792C286.68 75.24 287.123 75.8533 287.347 76.632L285.939 77.056C285.757 76.5547 285.461 76.1653 285.051 75.888C284.645 75.6107 284.179 75.472 283.651 75.472C283.059 75.472 282.571 75.6107 282.187 75.888C281.803 76.16 281.517 76.5387 281.331 77.024C281.144 77.504 281.048 78.056 281.043 78.68C281.053 79.64 281.275 80.416 281.707 81.008C282.144 81.5947 282.792 81.888 283.651 81.888C284.216 81.888 284.685 81.76 285.059 81.504C285.432 81.2427 285.715 80.8667 285.907 80.376L287.347 80.752C287.048 81.5573 286.581 82.1733 285.947 82.6C285.312 83.0267 284.547 83.24 283.651 83.24ZM291.357 83.24C290.712 83.24 290.171 83.1227 289.733 82.888C289.301 82.648 288.973 82.3333 288.749 81.944C288.531 81.5547 288.421 81.128 288.421 80.664C288.421 80.2107 288.507 79.8187 288.677 79.488C288.853 79.152 289.099 78.8747 289.413 78.656C289.728 78.432 290.104 78.256 290.541 78.128C290.952 78.016 291.411 77.92 291.917 77.84C292.429 77.7547 292.947 77.6773 293.469 77.608C293.992 77.5387 294.48 77.472 294.933 77.408L294.421 77.704C294.437 76.936 294.283 76.368 293.957 76C293.637 75.632 293.083 75.448 292.293 75.448C291.771 75.448 291.312 75.568 290.917 75.808C290.528 76.0427 290.253 76.4267 290.093 76.96L288.741 76.552C288.949 75.7947 289.352 75.2 289.949 74.768C290.547 74.336 291.333 74.12 292.309 74.12C293.093 74.12 293.765 74.2613 294.325 74.544C294.891 74.8213 295.296 75.2427 295.541 75.808C295.664 76.0747 295.741 76.3653 295.773 76.68C295.805 76.9893 295.821 77.3147 295.821 77.656V83H294.557V80.928L294.853 81.12C294.528 81.8187 294.072 82.3467 293.485 82.704C292.904 83.0613 292.195 83.24 291.357 83.24ZM291.573 82.048C292.085 82.048 292.528 81.9573 292.901 81.776C293.28 81.5893 293.584 81.3467 293.813 81.048C294.043 80.744 294.192 80.4133 294.261 80.056C294.341 79.7893 294.384 79.4933 294.389 79.168C294.4 78.8373 294.405 78.584 294.405 78.408L294.901 78.624C294.437 78.688 293.981 78.7493 293.533 78.808C293.085 78.8667 292.661 78.9307 292.261 79C291.861 79.064 291.501 79.1413 291.181 79.232C290.947 79.3067 290.725 79.4027 290.517 79.52C290.315 79.6373 290.149 79.7893 290.021 79.976C289.899 80.1573 289.837 80.384 289.837 80.656C289.837 80.8907 289.896 81.1147 290.013 81.328C290.136 81.5413 290.323 81.7147 290.573 81.848C290.829 81.9813 291.163 82.048 291.573 82.048ZM298.061 83V71.24H299.485V83H298.061ZM302.046 83V71.24H303.47V83H302.046ZM306.03 72.832V71.36H307.454V72.832H306.03ZM306.03 83V74.36H307.454V83H306.03ZM316.006 83V78.672C316.006 78.2613 315.969 77.8667 315.894 77.488C315.825 77.1093 315.7 76.7707 315.518 76.472C315.342 76.168 315.102 75.928 314.798 75.752C314.5 75.576 314.121 75.488 313.662 75.488C313.305 75.488 312.98 75.5493 312.686 75.672C312.398 75.7893 312.15 75.9707 311.942 76.216C311.734 76.4613 311.572 76.7707 311.454 77.144C311.342 77.512 311.286 77.9467 311.286 78.448L310.35 78.16C310.35 77.3227 310.5 76.6053 310.798 76.008C311.102 75.4053 311.526 74.944 312.07 74.624C312.62 74.2987 313.265 74.136 314.006 74.136C314.566 74.136 315.044 74.224 315.438 74.4C315.833 74.576 316.161 74.8107 316.422 75.104C316.684 75.392 316.889 75.7173 317.038 76.08C317.188 76.4373 317.292 76.8027 317.35 77.176C317.414 77.544 317.446 77.8933 317.446 78.224V83H316.006ZM309.846 83V74.36H311.126V76.672H311.286V83H309.846ZM323.022 87.08C322.569 87.08 322.126 87.0107 321.694 86.872C321.262 86.7333 320.865 86.5227 320.502 86.24C320.145 85.9627 319.846 85.6107 319.606 85.184L320.91 84.496C321.124 84.9173 321.425 85.224 321.814 85.416C322.209 85.608 322.614 85.704 323.03 85.704C323.58 85.704 324.036 85.6027 324.398 85.4C324.761 85.2027 325.028 84.9067 325.198 84.512C325.374 84.1173 325.46 83.6267 325.454 83.04V80.68H325.622V74.36H326.886V83.056C326.886 83.2907 326.878 83.5173 326.862 83.736C326.852 83.9547 326.825 84.1707 326.782 84.384C326.67 84.9973 326.449 85.5013 326.118 85.896C325.788 86.296 325.361 86.592 324.838 86.784C324.316 86.9813 323.71 87.08 323.022 87.08ZM322.918 83.24C322.113 83.24 321.422 83.04 320.846 82.64C320.27 82.2347 319.825 81.688 319.51 81C319.201 80.312 319.046 79.536 319.046 78.672C319.046 77.808 319.201 77.032 319.51 76.344C319.825 75.656 320.27 75.1147 320.846 74.72C321.422 74.32 322.11 74.12 322.91 74.12C323.726 74.12 324.412 74.3173 324.966 74.712C325.521 75.1067 325.94 75.648 326.222 76.336C326.51 77.024 326.654 77.8027 326.654 78.672C326.654 79.5307 326.51 80.3067 326.222 81C325.94 81.688 325.521 82.2347 324.966 82.64C324.412 83.04 323.729 83.24 322.918 83.24ZM323.094 81.936C323.676 81.936 324.153 81.7973 324.526 81.52C324.9 81.2373 325.174 80.8507 325.35 80.36C325.532 79.864 325.622 79.3013 325.622 78.672C325.622 78.032 325.532 77.4693 325.35 76.984C325.174 76.4933 324.902 76.112 324.534 75.84C324.166 75.5627 323.7 75.424 323.134 75.424C322.548 75.424 322.062 75.568 321.678 75.856C321.3 76.144 321.017 76.5333 320.83 77.024C320.649 77.5147 320.558 78.064 320.558 78.672C320.558 79.2853 320.652 79.84 320.838 80.336C321.025 80.8267 321.305 81.216 321.678 81.504C322.057 81.792 322.529 81.936 323.094 81.936Z" fill="#212528"/>
</g>
<path d="M280.5 168C280.5 168.552 280.948 169 281.5 169C282.052 169 282.5 168.552 282.5 168H280.5ZM282.207 99.2929C281.817 98.9024 281.183 98.9024 280.793 99.2929L274.429 105.657C274.038 106.047 274.038 106.681 274.429 107.071C274.819 107.462 275.453 107.462 275.843 107.071L281.5 101.414L287.157 107.071C287.547 107.462 288.181 107.462 288.571 107.071C288.962 106.681 288.962 106.047 288.571 105.657L282.207 99.2929ZM282.5 168V100H280.5V168H282.5Z" fill="#B3B3B3"/>
<path d="M159.833 299.75V285.167C159.833 282.875 157.958 281 155.667 281H105.667C103.375 281 101.5 282.875 101.5 285.167V326.833C101.5 329.125 103.375 331 105.667 331H155.667C157.958 331 159.833 329.125 159.833 326.833V312.25L176.5 328.917V283.083L159.833 299.75ZM151.5 322.667H109.833V289.333H151.5V322.667ZM126.5 318.5H134.833V310.167H143.167V301.833H134.833V293.5H126.5V301.833H118.167V310.167H126.5V318.5Z" fill="#FBFFCC"/>
<g clip-path="url(#clip2_4255_22779)">
<path d="M389.25 48.8333C389.5 52.5417 390.125 56.1667 391.125 59.625L386.125 64.625C384.417 59.625 383.333 54.3333 382.958 48.8333H389.25V48.8333ZM430.333 98.9167C433.875 99.9167 437.5 100.542 441.167 100.792V107C435.667 106.625 430.375 105.542 425.333 103.875L430.333 98.9167V98.9167ZM393.25 40.5H378.667C376.375 40.5 374.5 42.375 374.5 44.6667C374.5 83.7917 406.208 115.5 445.333 115.5C447.625 115.5 449.5 113.625 449.5 111.333V96.7917C449.5 94.5 447.625 92.625 445.333 92.625C440.167 92.625 435.125 91.7917 430.458 90.25C430.042 90.0833 429.583 90.0417 429.167 90.0417C428.083 90.0417 427.042 90.4583 426.208 91.25L417.042 100.417C405.25 94.375 395.583 84.75 389.583 72.9583L398.75 63.7917C399.917 62.625 400.25 61 399.792 59.5417C398.25 54.875 397.417 49.875 397.417 44.6667C397.417 42.375 395.542 40.5 393.25 40.5Z" fill="#FBFFCC"/>
</g>
</g>
<defs>
<filter id="filter0_d_4255_22779" x="90" y="158" width="317" height="72" filterUnits="userSpaceOnUse" color-interpolation-filters="sRGB">
<feFlood flood-opacity="0" result="BackgroundImageFix"/>
<feColorMatrix in="SourceAlpha" type="matrix" values="0 0 0 0 0 0 0 0 0 0 0 0 0 0 0 0 0 0 127 0" result="hardAlpha"/>
<feOffset dx="8" dy="8"/>
<feComposite in2="hardAlpha" operator="out"/>
<feColorMatrix type="matrix" values="0 0 0 0 0.956863 0 0 0 0 1 0 0 0 0 0.501961 0 0 0 1 0"/>
<feBlend mode="normal" in2="BackgroundImageFix" result="effect1_dropShadow_4255_22779"/>
<feBlend mode="normal" in="SourceGraphic" in2="effect1_dropShadow_4255_22779" result="shape"/>
</filter>
<filter id="filter1_dd_4255_22779" x="246" y="290" width="151" height="62" filterUnits="userSpaceOnUse" color-interpolation-filters="sRGB">
<feFlood flood-opacity="0" result="BackgroundImageFix"/>
<feColorMatrix in="SourceAlpha" type="matrix" values="0 0 0 0 0 0 0 0 0 0 0 0 0 0 0 0 0 0 127 0" result="hardAlpha"/>
<feOffset dy="4"/>
<feGaussianBlur stdDeviation="6"/>
<feComposite in2="hardAlpha" operator="out"/>
<feColorMatrix type="matrix" values="0 0 0 0 0 0 0 0 0 0 0 0 0 0 0 0 0 0 0.25 0"/>
<feBlend mode="normal" in2="BackgroundImageFix" result="effect1_dropShadow_4255_22779"/>
<feColorMatrix in="SourceAlpha" type="matrix" values="0 0 0 0 0 0 0 0 0 0 0 0 0 0 0 0 0 0 127 0" result="hardAlpha"/>
<feOffset dx="2" dy="4"/>
<feComposite in2="hardAlpha" operator="out"/>
<feColorMatrix type="matrix" values="0 0 0 0 0 0 0 0 0 0 0 0 0 0 0 0 0 0 1 0"/>
<feBlend mode="normal" in2="effect1_dropShadow_4255_22779" result="effect2_dropShadow_4255_22779"/>
<feBlend mode="normal" in="SourceGraphic" in2="effect2_dropShadow_4255_22779" result="shape"/>
</filter>
<filter id="filter2_dd_4255_22779" x="207" y="50" width="149" height="62" filterUnits="userSpaceOnUse" color-interpolation-filters="sRGB">
<feFlood flood-opacity="0" result="BackgroundImageFix"/>
<feColorMatrix in="SourceAlpha" type="matrix" values="0 0 0 0 0 0 0 0 0 0 0 0 0 0 0 0 0 0 127 0" result="hardAlpha"/>
<feOffset dy="4"/>
<feGaussianBlur stdDeviation="6"/>
<feComposite in2="hardAlpha" operator="out"/>
<feColorMatrix type="matrix" values="0 0 0 0 0 0 0 0 0 0 0 0 0 0 0 0 0 0 0.25 0"/>
<feBlend mode="normal" in2="BackgroundImageFix" result="effect1_dropShadow_4255_22779"/>
<feColorMatrix in="SourceAlpha" type="matrix" values="0 0 0 0 0 0 0 0 0 0 0 0 0 0 0 0 0 0 127 0" result="hardAlpha"/>
<feOffset dx="2" dy="4"/>
<feComposite in2="hardAlpha" operator="out"/>
<feColorMatrix type="matrix" values="0 0 0 0 0 0 0 0 0 0 0 0 0 0 0 0 0 0 1 0"/>
<feBlend mode="normal" in2="effect1_dropShadow_4255_22779" result="effect2_dropShadow_4255_22779"/>
<feBlend mode="normal" in="SourceGraphic" in2="effect2_dropShadow_4255_22779" result="shape"/>
</filter>
<clipPath id="clip0_4255_22779">
<rect width="540" height="400" fill="white"/>
</clipPath>
<clipPath id="clip1_4255_22779">
<rect width="20" height="20" fill="white" transform="translate(351.5 180)"/>
</clipPath>
<clipPath id="clip2_4255_22779">
<rect width="100" height="100" fill="white" transform="translate(362 28)"/>
</clipPath>
</defs>
</svg>
