<svg width="540" height="400" viewBox="0 0 540 400" fill="none" xmlns="http://www.w3.org/2000/svg">
<g filter="url(#filter0_d_4255_22755)">
<rect x="43.5156" y="18.1538" width="180" height="79" rx="16" fill="white" shape-rendering="crispEdges"/>
<path d="M105.88 56.1538L100.876 38.8738H103.108L106.948 52.5418L110.776 38.8858L113.02 38.8738L116.86 52.5418L120.688 38.8738H122.932L117.928 56.1538H115.792L111.904 42.6058L108.016 56.1538H105.88ZM134.205 56.1538V49.6618C134.205 49.0458 134.149 48.4538 134.037 47.8858C133.933 47.3178 133.745 46.8098 133.473 46.3618C133.209 45.9058 132.849 45.5458 132.393 45.2818C131.945 45.0178 131.377 44.8858 130.689 44.8858C130.153 44.8858 129.665 44.9778 129.225 45.1618C128.793 45.3378 128.421 45.6098 128.109 45.9778C127.797 46.3458 127.553 46.8098 127.377 47.3698C127.209 47.9218 127.125 48.5738 127.125 49.3258L125.721 48.8938C125.721 47.6378 125.945 46.5618 126.393 45.6658C126.849 44.7618 127.485 44.0698 128.301 43.5898C129.125 43.1018 130.093 42.8578 131.205 42.8578C132.045 42.8578 132.761 42.9898 133.353 43.2538C133.945 43.5178 134.437 43.8698 134.829 44.3098C135.221 44.7418 135.529 45.2298 135.753 45.7738C135.977 46.3098 136.133 46.8578 136.221 47.4178C136.317 47.9698 136.365 48.4938 136.365 48.9898V56.1538H134.205ZM124.965 56.1538V38.8738H126.885V48.4138H127.125V56.1538H124.965ZM145.101 56.5138C143.829 56.5138 142.717 56.2338 141.765 55.6738C140.821 55.1058 140.085 54.3178 139.557 53.3098C139.029 52.2938 138.765 51.1098 138.765 49.7578C138.765 48.3418 139.025 47.1178 139.545 46.0858C140.065 45.0458 140.789 44.2458 141.717 43.6858C142.653 43.1178 143.749 42.8338 145.005 42.8338C146.309 42.8338 147.417 43.1338 148.329 43.7338C149.249 44.3338 149.937 45.1898 150.393 46.3018C150.857 47.4138 151.057 48.7378 150.993 50.2738H148.833V49.5058C148.809 47.9138 148.485 46.7258 147.861 45.9418C147.237 45.1498 146.309 44.7538 145.077 44.7538C143.757 44.7538 142.753 45.1778 142.065 46.0258C141.377 46.8738 141.033 48.0898 141.033 49.6738C141.033 51.2018 141.377 52.3858 142.065 53.2258C142.753 54.0658 143.733 54.4858 145.005 54.4858C145.861 54.4858 146.605 54.2898 147.237 53.8978C147.869 53.5058 148.365 52.9418 148.725 52.2058L150.777 52.9138C150.273 54.0578 149.513 54.9458 148.497 55.5778C147.489 56.2018 146.357 56.5138 145.101 56.5138ZM140.313 50.2738V48.5578H149.889V50.2738H140.313ZM162.541 56.1538V49.6618C162.541 49.0458 162.485 48.4538 162.373 47.8858C162.269 47.3178 162.081 46.8098 161.809 46.3618C161.545 45.9058 161.185 45.5458 160.729 45.2818C160.281 45.0178 159.713 44.8858 159.025 44.8858C158.489 44.8858 158.001 44.9778 157.561 45.1618C157.129 45.3378 156.757 45.6098 156.445 45.9778C156.133 46.3458 155.889 46.8098 155.713 47.3698C155.545 47.9218 155.461 48.5738 155.461 49.3258L154.057 48.8938C154.057 47.6378 154.281 46.5618 154.729 45.6658C155.185 44.7618 155.821 44.0698 156.637 43.5898C157.461 43.1018 158.429 42.8578 159.541 42.8578C160.381 42.8578 161.097 42.9898 161.689 43.2538C162.281 43.5178 162.773 43.8698 163.165 44.3098C163.557 44.7418 163.865 45.2298 164.089 45.7738C164.313 46.3098 164.469 46.8578 164.557 47.4178C164.653 47.9698 164.701 48.4938 164.701 48.9898V56.1538H162.541ZM153.301 56.1538V43.1938H155.221V46.6618H155.461V56.1538H153.301Z" fill="#212528"/>
<path d="M105.24 83.0818C104.616 82.3618 104.08 81.5538 103.632 80.6578C103.184 79.7618 102.84 78.8205 102.6 77.8338C102.36 76.8471 102.245 75.8605 102.256 74.8738C102.245 73.8818 102.36 72.8925 102.6 71.9058C102.84 70.9191 103.184 69.9805 103.632 69.0898C104.08 68.1938 104.616 67.3858 105.24 66.6658L106.296 67.4658C105.666 68.2125 105.149 68.9885 104.744 69.7938C104.344 70.5991 104.048 71.4285 103.856 72.2818C103.664 73.1298 103.565 73.9938 103.56 74.8738C103.565 75.7431 103.664 76.6071 103.856 77.4658C104.053 78.3191 104.352 79.1511 104.752 79.9618C105.157 80.7671 105.672 81.5378 106.296 82.2738L105.24 83.0818ZM111.057 80.1538V69.9858H107.129V68.6338H116.409V69.9858H112.481V80.1538H111.057ZM116.886 80.1538V71.5138H118.158V73.6018L117.95 73.3298C118.051 73.0631 118.182 72.8178 118.342 72.5938C118.507 72.3698 118.691 72.1858 118.894 72.0418C119.118 71.8605 119.371 71.7218 119.654 71.6258C119.936 71.5298 120.224 71.4738 120.518 71.4578C120.811 71.4365 121.086 71.4551 121.342 71.5138V72.8498C121.043 72.7698 120.715 72.7485 120.358 72.7858C120 72.8231 119.67 72.9538 119.366 73.1778C119.088 73.3751 118.872 73.6151 118.718 73.8978C118.568 74.1805 118.464 74.4871 118.406 74.8178C118.347 75.1431 118.318 75.4765 118.318 75.8178V80.1538H116.886ZM123.014 69.9858V68.5138H124.438V69.9858H123.014ZM123.014 80.1538V71.5138H124.438V80.1538H123.014ZM130.335 84.2338C129.881 84.2338 129.439 84.1645 129.007 84.0258C128.575 83.8871 128.177 83.6765 127.815 83.3938C127.457 83.1165 127.159 82.7645 126.919 82.3378L128.223 81.6498C128.436 82.0711 128.737 82.3778 129.127 82.5698C129.521 82.7618 129.927 82.8578 130.343 82.8578C130.892 82.8578 131.348 82.7565 131.711 82.5538C132.073 82.3565 132.34 82.0605 132.511 81.6658C132.687 81.2711 132.772 80.7805 132.767 80.1938V77.8338H132.935V71.5138H134.199V80.2098C134.199 80.4445 134.191 80.6711 134.175 80.8898C134.164 81.1085 134.137 81.3245 134.095 81.5378C133.983 82.1511 133.761 82.6551 133.431 83.0498C133.1 83.4498 132.673 83.7458 132.151 83.9378C131.628 84.1351 131.023 84.2338 130.335 84.2338ZM130.231 80.3938C129.425 80.3938 128.735 80.1938 128.159 79.7938C127.583 79.3885 127.137 78.8418 126.823 78.1538C126.513 77.4658 126.359 76.6898 126.359 75.8258C126.359 74.9618 126.513 74.1858 126.823 73.4978C127.137 72.8098 127.583 72.2685 128.159 71.8738C128.735 71.4738 129.423 71.2738 130.223 71.2738C131.039 71.2738 131.724 71.4711 132.279 71.8658C132.833 72.2605 133.252 72.8018 133.535 73.4898C133.823 74.1778 133.967 74.9565 133.967 75.8258C133.967 76.6845 133.823 77.4605 133.535 78.1538C133.252 78.8418 132.833 79.3885 132.279 79.7938C131.724 80.1938 131.041 80.3938 130.231 80.3938ZM130.407 79.0898C130.988 79.0898 131.465 78.9511 131.839 78.6738C132.212 78.3911 132.487 78.0045 132.663 77.5138C132.844 77.0178 132.935 76.4551 132.935 75.8258C132.935 75.1858 132.844 74.6231 132.663 74.1378C132.487 73.6471 132.215 73.2658 131.847 72.9938C131.479 72.7165 131.012 72.5778 130.447 72.5778C129.86 72.5778 129.375 72.7218 128.991 73.0098C128.612 73.2978 128.329 73.6871 128.143 74.1778C127.961 74.6685 127.871 75.2178 127.871 75.8258C127.871 76.4391 127.964 76.9938 128.151 77.4898C128.337 77.9805 128.617 78.3698 128.991 78.6578C129.369 78.9458 129.841 79.0898 130.407 79.0898ZM139.929 84.2338C139.475 84.2338 139.033 84.1645 138.601 84.0258C138.169 83.8871 137.771 83.6765 137.409 83.3938C137.051 83.1165 136.753 82.7645 136.513 82.3378L137.817 81.6498C138.03 82.0711 138.331 82.3778 138.721 82.5698C139.115 82.7618 139.521 82.8578 139.937 82.8578C140.486 82.8578 140.942 82.7565 141.305 82.5538C141.667 82.3565 141.934 82.0605 142.105 81.6658C142.281 81.2711 142.366 80.7805 142.361 80.1938V77.8338H142.529V71.5138H143.793V80.2098C143.793 80.4445 143.785 80.6711 143.769 80.8898C143.758 81.1085 143.731 81.3245 143.689 81.5378C143.577 82.1511 143.355 82.6551 143.025 83.0498C142.694 83.4498 142.267 83.7458 141.745 83.9378C141.222 84.1351 140.617 84.2338 139.929 84.2338ZM139.825 80.3938C139.019 80.3938 138.329 80.1938 137.753 79.7938C137.177 79.3885 136.731 78.8418 136.417 78.1538C136.107 77.4658 135.953 76.6898 135.953 75.8258C135.953 74.9618 136.107 74.1858 136.417 73.4978C136.731 72.8098 137.177 72.2685 137.753 71.8738C138.329 71.4738 139.017 71.2738 139.817 71.2738C140.633 71.2738 141.318 71.4711 141.873 71.8658C142.427 72.2605 142.846 72.8018 143.129 73.4898C143.417 74.1778 143.561 74.9565 143.561 75.8258C143.561 76.6845 143.417 77.4605 143.129 78.1538C142.846 78.8418 142.427 79.3885 141.873 79.7938C141.318 80.1938 140.635 80.3938 139.825 80.3938ZM140.001 79.0898C140.582 79.0898 141.059 78.9511 141.433 78.6738C141.806 78.3911 142.081 78.0045 142.257 77.5138C142.438 77.0178 142.529 76.4551 142.529 75.8258C142.529 75.1858 142.438 74.6231 142.257 74.1378C142.081 73.6471 141.809 73.2658 141.441 72.9938C141.073 72.7165 140.606 72.5778 140.041 72.5778C139.454 72.5778 138.969 72.7218 138.585 73.0098C138.206 73.2978 137.923 73.6871 137.737 74.1778C137.555 74.6685 137.465 75.2178 137.465 75.8258C137.465 76.4391 137.558 76.9938 137.745 77.4898C137.931 77.9805 138.211 78.3698 138.585 78.6578C138.963 78.9458 139.435 79.0898 140.001 79.0898ZM149.77 80.3938C148.922 80.3938 148.181 80.2071 147.546 79.8338C146.917 79.4551 146.426 78.9298 146.074 78.2578C145.722 77.5805 145.546 76.7911 145.546 75.8898C145.546 74.9458 145.72 74.1298 146.066 73.4418C146.413 72.7485 146.896 72.2151 147.514 71.8418C148.138 71.4631 148.869 71.2738 149.706 71.2738C150.576 71.2738 151.314 71.4738 151.922 71.8738C152.536 72.2738 152.994 72.8445 153.298 73.5858C153.608 74.3271 153.741 75.2098 153.698 76.2338H152.258V75.7218C152.242 74.6605 152.026 73.8685 151.61 73.3458C151.194 72.8178 150.576 72.5538 149.754 72.5538C148.874 72.5538 148.205 72.8365 147.746 73.4018C147.288 73.9671 147.058 74.7778 147.058 75.8338C147.058 76.8525 147.288 77.6418 147.746 78.2018C148.205 78.7618 148.858 79.0418 149.706 79.0418C150.277 79.0418 150.773 78.9111 151.194 78.6498C151.616 78.3885 151.946 78.0125 152.186 77.5218L153.554 77.9938C153.218 78.7565 152.712 79.3485 152.034 79.7698C151.362 80.1858 150.608 80.3938 149.77 80.3938ZM146.578 76.2338V75.0898H152.962V76.2338H146.578ZM155.479 80.1538V71.5138H156.751V73.6018L156.543 73.3298C156.645 73.0631 156.775 72.8178 156.935 72.5938C157.101 72.3698 157.285 72.1858 157.487 72.0418C157.711 71.8605 157.965 71.7218 158.247 71.6258C158.53 71.5298 158.818 71.4738 159.111 71.4578C159.405 71.4365 159.679 71.4551 159.935 71.5138V72.8498C159.637 72.7698 159.309 72.7485 158.951 72.7858C158.594 72.8231 158.263 72.9538 157.959 73.1778C157.682 73.3751 157.466 73.6151 157.311 73.8978C157.162 74.1805 157.058 74.4871 156.999 74.8178C156.941 75.1431 156.911 75.4765 156.911 75.8178V80.1538H155.479ZM161.752 83.0818L160.696 82.2738C161.32 81.5378 161.832 80.7671 162.232 79.9618C162.637 79.1511 162.938 78.3191 163.136 77.4658C163.333 76.6071 163.432 75.7431 163.432 74.8738C163.432 73.9938 163.333 73.1298 163.136 72.2818C162.944 71.4285 162.645 70.5991 162.24 69.7938C161.84 68.9885 161.325 68.2125 160.696 67.4658L161.752 66.6658C162.376 67.3858 162.912 68.1938 163.36 69.0898C163.813 69.9805 164.157 70.9191 164.392 71.9058C164.632 72.8925 164.746 73.8818 164.736 74.8738C164.746 75.8605 164.632 76.8471 164.392 77.8338C164.157 78.8205 163.813 79.7618 163.36 80.6578C162.912 81.5538 162.376 82.3618 161.752 83.0818Z" fill="#3F4346"/>
<rect x="44.0156" y="18.6538" width="179" height="78" rx="15.5" stroke="#26D9D9" shape-rendering="crispEdges"/>
</g>
<g filter="url(#filter1_d_4255_22755)">
<rect x="176.016" y="148" width="180" height="79" rx="16" fill="white" shape-rendering="crispEdges"/>
<path d="M260.436 186V168.72H262.572V186H260.436ZM267.408 186V172.332C267.408 171.996 267.424 171.656 267.456 171.312C267.488 170.96 267.56 170.62 267.672 170.292C267.784 169.956 267.968 169.648 268.224 169.368C268.52 169.04 268.844 168.808 269.196 168.672C269.548 168.528 269.904 168.44 270.264 168.408C270.632 168.376 270.98 168.36 271.308 168.36H272.952V170.136H271.428C270.796 170.136 270.324 170.292 270.012 170.604C269.7 170.908 269.544 171.372 269.544 171.996V186H267.408ZM265.212 174.804V173.04H272.952V174.804H265.212Z" fill="#212528"/>
<path d="M227.24 212.928C226.616 212.208 226.08 211.4 225.632 210.504C225.184 209.608 224.84 208.667 224.6 207.68C224.36 206.693 224.245 205.707 224.256 204.72C224.245 203.728 224.36 202.739 224.6 201.752C224.84 200.765 225.184 199.827 225.632 198.936C226.08 198.04 226.616 197.232 227.24 196.512L228.296 197.312C227.666 198.059 227.149 198.835 226.744 199.64C226.344 200.445 226.048 201.275 225.856 202.128C225.664 202.976 225.565 203.84 225.56 204.72C225.565 205.589 225.664 206.453 225.856 207.312C226.053 208.165 226.352 208.997 226.752 209.808C227.157 210.613 227.672 211.384 228.296 212.12L227.24 212.928ZM234.356 210.24C233.209 210.24 232.236 209.987 231.436 209.48C230.636 208.973 230.025 208.269 229.604 207.368C229.188 206.467 228.98 205.424 228.98 204.24C228.98 203.056 229.188 202.013 229.604 201.112C230.025 200.211 230.636 199.507 231.436 199C232.236 198.493 233.209 198.24 234.356 198.24C235.689 198.24 236.785 198.579 237.644 199.256C238.508 199.933 239.103 200.845 239.428 201.992L237.98 202.376C237.745 201.517 237.327 200.84 236.724 200.344C236.121 199.848 235.332 199.6 234.356 199.6C233.497 199.6 232.783 199.795 232.212 200.184C231.641 200.573 231.212 201.117 230.924 201.816C230.636 202.509 230.489 203.317 230.484 204.24C230.479 205.157 230.62 205.965 230.908 206.664C231.196 207.357 231.628 207.901 232.204 208.296C232.78 208.685 233.497 208.88 234.356 208.88C235.332 208.88 236.121 208.632 236.724 208.136C237.327 207.635 237.745 206.957 237.98 206.104L239.428 206.488C239.103 207.629 238.508 208.541 237.644 209.224C236.785 209.901 235.689 210.24 234.356 210.24ZM244.863 210.24C244.004 210.24 243.263 210.045 242.639 209.656C242.02 209.267 241.543 208.728 241.207 208.04C240.871 207.352 240.703 206.563 240.703 205.672C240.703 204.765 240.873 203.971 241.215 203.288C241.556 202.605 242.039 202.075 242.663 201.696C243.287 201.312 244.02 201.12 244.863 201.12C245.727 201.12 246.471 201.315 247.095 201.704C247.719 202.088 248.196 202.624 248.527 203.312C248.863 203.995 249.031 204.781 249.031 205.672C249.031 206.573 248.863 207.368 248.527 208.056C248.191 208.739 247.711 209.275 247.087 209.664C246.463 210.048 245.721 210.24 244.863 210.24ZM244.863 208.888C245.759 208.888 246.425 208.589 246.863 207.992C247.3 207.395 247.519 206.621 247.519 205.672C247.519 204.696 247.297 203.92 246.855 203.344C246.412 202.763 245.748 202.472 244.863 202.472C244.26 202.472 243.764 202.608 243.375 202.88C242.985 203.152 242.695 203.528 242.503 204.008C242.311 204.488 242.215 205.043 242.215 205.672C242.215 206.643 242.439 207.421 242.887 208.008C243.335 208.595 243.993 208.888 244.863 208.888ZM256.944 210V205.672C256.944 205.261 256.907 204.867 256.832 204.488C256.763 204.109 256.637 203.771 256.456 203.472C256.28 203.168 256.04 202.928 255.736 202.752C255.437 202.576 255.059 202.488 254.6 202.488C254.243 202.488 253.917 202.549 253.624 202.672C253.336 202.789 253.088 202.971 252.88 203.216C252.672 203.461 252.509 203.771 252.392 204.144C252.28 204.512 252.224 204.947 252.224 205.448L251.288 205.16C251.288 204.323 251.437 203.605 251.736 203.008C252.04 202.405 252.464 201.944 253.008 201.624C253.557 201.299 254.203 201.136 254.944 201.136C255.504 201.136 255.981 201.224 256.376 201.4C256.771 201.576 257.099 201.811 257.36 202.104C257.621 202.392 257.827 202.717 257.976 203.08C258.125 203.437 258.229 203.803 258.288 204.176C258.352 204.544 258.384 204.893 258.384 205.224V210H256.944ZM250.784 210V201.36H252.064V203.672H252.224V210H250.784ZM263.778 210.24C262.972 210.24 262.282 210.04 261.706 209.64C261.13 209.235 260.684 208.688 260.37 208C260.06 207.312 259.906 206.536 259.906 205.672C259.906 204.808 260.06 204.032 260.37 203.344C260.684 202.656 261.13 202.115 261.706 201.72C262.282 201.32 262.97 201.12 263.77 201.12C264.586 201.12 265.271 201.317 265.826 201.712C266.38 202.107 266.799 202.648 267.082 203.336C267.37 204.024 267.514 204.803 267.514 205.672C267.514 206.531 267.37 207.307 267.082 208C266.799 208.688 266.38 209.235 265.826 209.64C265.271 210.04 264.588 210.24 263.778 210.24ZM263.954 208.936C264.535 208.936 265.012 208.797 265.386 208.52C265.759 208.237 266.034 207.851 266.21 207.36C266.391 206.864 266.482 206.301 266.482 205.672C266.482 205.032 266.391 204.469 266.21 203.984C266.034 203.493 265.762 203.112 265.394 202.84C265.026 202.563 264.559 202.424 263.994 202.424C263.407 202.424 262.922 202.568 262.538 202.856C262.159 203.144 261.876 203.533 261.69 204.024C261.508 204.515 261.418 205.064 261.418 205.672C261.418 206.285 261.511 206.84 261.698 207.336C261.884 207.827 262.164 208.216 262.538 208.504C262.916 208.792 263.388 208.936 263.954 208.936ZM266.482 210V203.64H266.322V198.48H267.754V210H266.482ZM270.155 199.832V198.36H271.579V199.832H270.155ZM270.155 210V201.36H271.579V210H270.155ZM278.803 210C278.291 210.101 277.785 210.141 277.283 210.12C276.787 210.104 276.345 210.005 275.955 209.824C275.566 209.637 275.27 209.349 275.067 208.96C274.897 208.619 274.803 208.275 274.787 207.928C274.777 207.576 274.771 207.179 274.771 206.736V198.96H276.195V206.672C276.195 207.024 276.198 207.325 276.203 207.576C276.214 207.827 276.27 208.043 276.371 208.224C276.563 208.565 276.867 208.765 277.283 208.824C277.705 208.883 278.211 208.867 278.803 208.776V210ZM273.019 202.536V201.36H278.803V202.536H273.019ZM280.718 199.832V198.36H282.142V199.832H280.718ZM280.718 210V201.36H282.142V210H280.718ZM288.222 210.24C287.363 210.24 286.622 210.045 285.998 209.656C285.379 209.267 284.902 208.728 284.566 208.04C284.23 207.352 284.062 206.563 284.062 205.672C284.062 204.765 284.233 203.971 284.574 203.288C284.915 202.605 285.398 202.075 286.022 201.696C286.646 201.312 287.379 201.12 288.222 201.12C289.086 201.12 289.83 201.315 290.454 201.704C291.078 202.088 291.555 202.624 291.886 203.312C292.222 203.995 292.39 204.781 292.39 205.672C292.39 206.573 292.222 207.368 291.886 208.056C291.55 208.739 291.07 209.275 290.446 209.664C289.822 210.048 289.081 210.24 288.222 210.24ZM288.222 208.888C289.118 208.888 289.785 208.589 290.222 207.992C290.659 207.395 290.878 206.621 290.878 205.672C290.878 204.696 290.657 203.92 290.214 203.344C289.771 202.763 289.107 202.472 288.222 202.472C287.619 202.472 287.123 202.608 286.734 202.88C286.345 203.152 286.054 203.528 285.862 204.008C285.67 204.488 285.574 205.043 285.574 205.672C285.574 206.643 285.798 207.421 286.246 208.008C286.694 208.595 287.353 208.888 288.222 208.888ZM300.303 210V205.672C300.303 205.261 300.266 204.867 300.191 204.488C300.122 204.109 299.997 203.771 299.815 203.472C299.639 203.168 299.399 202.928 299.095 202.752C298.797 202.576 298.418 202.488 297.959 202.488C297.602 202.488 297.277 202.549 296.983 202.672C296.695 202.789 296.447 202.971 296.239 203.216C296.031 203.461 295.869 203.771 295.751 204.144C295.639 204.512 295.583 204.947 295.583 205.448L294.647 205.16C294.647 204.323 294.797 203.605 295.095 203.008C295.399 202.405 295.823 201.944 296.367 201.624C296.917 201.299 297.562 201.136 298.303 201.136C298.863 201.136 299.341 201.224 299.735 201.4C300.13 201.576 300.458 201.811 300.719 202.104C300.981 202.392 301.186 202.717 301.335 203.08C301.485 203.437 301.589 203.803 301.647 204.176C301.711 204.544 301.743 204.893 301.743 205.224V210H300.303ZM294.143 210V201.36H295.423V203.672H295.583V210H294.143ZM304.127 212.928L303.071 212.12C303.695 211.384 304.207 210.613 304.607 209.808C305.012 208.997 305.313 208.165 305.511 207.312C305.708 206.453 305.807 205.589 305.807 204.72C305.807 203.84 305.708 202.976 305.511 202.128C305.319 201.275 305.02 200.445 304.615 199.64C304.215 198.835 303.7 198.059 303.071 197.312L304.127 196.512C304.751 197.232 305.287 198.04 305.735 198.936C306.188 199.827 306.532 200.765 306.767 201.752C307.007 202.739 307.121 203.728 307.111 204.72C307.121 205.707 307.007 206.693 306.767 207.68C306.532 208.667 306.188 209.608 305.735 210.504C305.287 211.4 304.751 212.208 304.127 212.928Z" fill="#3F4346"/>
<rect x="176.516" y="148.5" width="179" height="78" rx="15.5" stroke="#26D9D9" shape-rendering="crispEdges"/>
</g>
<path d="M227.516 56.6538C226.963 56.6538 226.516 57.1015 226.516 57.6538C226.516 58.2061 226.963 58.6538 227.516 58.6538V56.6538ZM265.309 144.707C265.699 145.098 266.332 145.098 266.723 144.707L273.087 138.343C273.477 137.953 273.477 137.319 273.087 136.929C272.696 136.538 272.063 136.538 271.672 136.929L266.016 142.586L260.359 136.929C259.968 136.538 259.335 136.538 258.945 136.929C258.554 137.319 258.554 137.953 258.945 138.343L265.309 144.707ZM227.516 58.6538H242.016V56.6538H227.516V58.6538ZM265.016 81.6538V144H267.016V81.6538H265.016ZM242.016 58.6538C254.718 58.6538 265.016 68.9513 265.016 81.6538H267.016C267.016 67.8467 255.823 56.6538 242.016 56.6538V58.6538Z" fill="#B3B3B3"/>
<g filter="url(#filter2_d_4255_22755)">
<rect x="316.484" y="302.846" width="180" height="79" rx="16" fill="white" shape-rendering="crispEdges"/>
<path d="M383.616 340.846V325.594H377.724V323.566H391.644V325.594H385.752V340.846H383.616ZM402.783 340.846V334.354C402.783 333.738 402.727 333.146 402.615 332.578C402.511 332.01 402.323 331.502 402.051 331.054C401.787 330.598 401.427 330.238 400.971 329.974C400.523 329.71 399.955 329.578 399.267 329.578C398.731 329.578 398.243 329.67 397.803 329.854C397.371 330.03 396.999 330.302 396.687 330.67C396.375 331.038 396.131 331.502 395.955 332.062C395.787 332.614 395.703 333.266 395.703 334.018L394.299 333.586C394.299 332.33 394.523 331.254 394.971 330.358C395.427 329.454 396.063 328.762 396.879 328.282C397.703 327.794 398.671 327.55 399.783 327.55C400.623 327.55 401.339 327.682 401.931 327.946C402.523 328.21 403.015 328.562 403.407 329.002C403.799 329.434 404.107 329.922 404.331 330.466C404.555 331.002 404.711 331.55 404.799 332.11C404.895 332.662 404.943 333.186 404.943 333.682V340.846H402.783ZM393.543 340.846V323.566H395.463V333.106H395.703V340.846H393.543ZM413.679 341.206C412.407 341.206 411.295 340.926 410.343 340.366C409.399 339.798 408.663 339.01 408.135 338.002C407.607 336.986 407.343 335.802 407.343 334.45C407.343 333.034 407.603 331.81 408.123 330.778C408.643 329.738 409.367 328.938 410.295 328.378C411.231 327.81 412.327 327.526 413.583 327.526C414.887 327.526 415.995 327.826 416.907 328.426C417.827 329.026 418.515 329.882 418.971 330.994C419.435 332.106 419.635 333.43 419.571 334.966H417.411V334.198C417.387 332.606 417.063 331.418 416.439 330.634C415.815 329.842 414.887 329.446 413.655 329.446C412.335 329.446 411.331 329.87 410.643 330.718C409.955 331.566 409.611 332.782 409.611 334.366C409.611 335.894 409.955 337.078 410.643 337.918C411.331 338.758 412.311 339.178 413.583 339.178C414.439 339.178 415.183 338.982 415.815 338.59C416.447 338.198 416.943 337.634 417.303 336.898L419.355 337.606C418.851 338.75 418.091 339.638 417.075 340.27C416.067 340.894 414.935 341.206 413.679 341.206ZM408.891 334.966V333.25H418.467V334.966H408.891ZM431.119 340.846V334.354C431.119 333.738 431.063 333.146 430.951 332.578C430.847 332.01 430.659 331.502 430.387 331.054C430.123 330.598 429.763 330.238 429.307 329.974C428.859 329.71 428.291 329.578 427.603 329.578C427.067 329.578 426.579 329.67 426.139 329.854C425.707 330.03 425.335 330.302 425.023 330.67C424.711 331.038 424.467 331.502 424.291 332.062C424.123 332.614 424.039 333.266 424.039 334.018L422.635 333.586C422.635 332.33 422.859 331.254 423.307 330.358C423.763 329.454 424.399 328.762 425.215 328.282C426.039 327.794 427.007 327.55 428.119 327.55C428.959 327.55 429.675 327.682 430.267 327.946C430.859 328.21 431.351 328.562 431.743 329.002C432.135 329.434 432.443 329.922 432.667 330.466C432.891 331.002 433.047 331.55 433.135 332.11C433.231 332.662 433.279 333.186 433.279 333.682V340.846H431.119ZM421.879 340.846V327.886H423.799V331.354H424.039V340.846H421.879Z" fill="#212528"/>
<path d="M380.208 367.774C379.584 367.054 379.048 366.246 378.6 365.35C378.152 364.454 377.808 363.513 377.568 362.526C377.328 361.54 377.214 360.553 377.224 359.566C377.214 358.574 377.328 357.585 377.568 356.598C377.808 355.612 378.152 354.673 378.6 353.782C379.048 352.886 379.584 352.078 380.208 351.358L381.264 352.158C380.635 352.905 380.118 353.681 379.712 354.486C379.312 355.292 379.016 356.121 378.824 356.974C378.632 357.822 378.534 358.686 378.528 359.566C378.534 360.436 378.632 361.3 378.824 362.158C379.022 363.012 379.32 363.844 379.72 364.654C380.126 365.46 380.64 366.23 381.264 366.966L380.208 367.774ZM382.258 364.846L386.114 353.326H388.098L391.954 364.846H390.474L386.866 354.158H387.314L383.738 364.846H382.258ZM384.114 362.15V360.814H390.098V362.15H384.114ZM397.026 365.086C396.151 365.086 395.407 364.892 394.794 364.502C394.186 364.108 393.722 363.566 393.402 362.878C393.082 362.19 392.916 361.406 392.906 360.526C392.916 359.625 393.084 358.833 393.41 358.15C393.74 357.462 394.212 356.926 394.826 356.542C395.439 356.158 396.178 355.966 397.042 355.966C397.954 355.966 398.738 356.19 399.394 356.638C400.055 357.086 400.498 357.7 400.722 358.478L399.314 358.902C399.132 358.401 398.836 358.012 398.426 357.734C398.02 357.457 397.554 357.318 397.026 357.318C396.434 357.318 395.946 357.457 395.562 357.734C395.178 358.006 394.892 358.385 394.706 358.87C394.519 359.35 394.423 359.902 394.418 360.526C394.428 361.486 394.65 362.262 395.082 362.854C395.519 363.441 396.167 363.734 397.026 363.734C397.591 363.734 398.06 363.606 398.434 363.35C398.807 363.089 399.09 362.713 399.282 362.222L400.722 362.598C400.423 363.404 399.956 364.02 399.322 364.446C398.687 364.873 397.922 365.086 397.026 365.086ZM407.178 364.846C406.666 364.948 406.16 364.988 405.658 364.966C405.162 364.95 404.72 364.852 404.33 364.67C403.941 364.484 403.645 364.196 403.442 363.806C403.272 363.465 403.178 363.121 403.162 362.774C403.152 362.422 403.146 362.025 403.146 361.582V353.806H404.57V361.518C404.57 361.87 404.573 362.172 404.578 362.422C404.589 362.673 404.645 362.889 404.746 363.07C404.938 363.412 405.242 363.612 405.658 363.67C406.08 363.729 406.586 363.713 407.178 363.622V364.846ZM401.394 357.382V356.206H407.178V357.382H401.394ZM409.093 354.678V353.206H410.517V354.678H409.093ZM409.093 364.846V356.206H410.517V364.846H409.093ZM416.597 365.086C415.738 365.086 414.997 364.892 414.373 364.502C413.754 364.113 413.277 363.574 412.941 362.886C412.605 362.198 412.437 361.409 412.437 360.518C412.437 359.612 412.608 358.817 412.949 358.134C413.29 357.452 413.773 356.921 414.397 356.542C415.021 356.158 415.754 355.966 416.597 355.966C417.461 355.966 418.205 356.161 418.829 356.55C419.453 356.934 419.93 357.47 420.261 358.158C420.597 358.841 420.765 359.628 420.765 360.518C420.765 361.42 420.597 362.214 420.261 362.902C419.925 363.585 419.445 364.121 418.821 364.51C418.197 364.894 417.456 365.086 416.597 365.086ZM416.597 363.734C417.493 363.734 418.16 363.436 418.597 362.838C419.034 362.241 419.253 361.468 419.253 360.518C419.253 359.542 419.032 358.766 418.589 358.19C418.146 357.609 417.482 357.318 416.597 357.318C415.994 357.318 415.498 357.454 415.109 357.726C414.72 357.998 414.429 358.374 414.237 358.854C414.045 359.334 413.949 359.889 413.949 360.518C413.949 361.489 414.173 362.268 414.621 362.854C415.069 363.441 415.728 363.734 416.597 363.734ZM428.678 364.846V360.518C428.678 360.108 428.641 359.713 428.566 359.334C428.497 358.956 428.372 358.617 428.19 358.318C428.014 358.014 427.774 357.774 427.47 357.598C427.172 357.422 426.793 357.334 426.334 357.334C425.977 357.334 425.652 357.396 425.358 357.518C425.07 357.636 424.822 357.817 424.614 358.062C424.406 358.308 424.244 358.617 424.126 358.99C424.014 359.358 423.958 359.793 423.958 360.294L423.022 360.006C423.022 359.169 423.172 358.452 423.47 357.854C423.774 357.252 424.198 356.79 424.742 356.47C425.292 356.145 425.937 355.982 426.678 355.982C427.238 355.982 427.716 356.07 428.11 356.246C428.505 356.422 428.833 356.657 429.094 356.95C429.356 357.238 429.561 357.564 429.71 357.926C429.86 358.284 429.964 358.649 430.022 359.022C430.086 359.39 430.118 359.74 430.118 360.07V364.846H428.678ZM422.518 364.846V356.206H423.798V358.518H423.958V364.846H422.518ZM432.502 367.774L431.446 366.966C432.07 366.23 432.582 365.46 432.982 364.654C433.387 363.844 433.688 363.012 433.886 362.158C434.083 361.3 434.182 360.436 434.182 359.566C434.182 358.686 434.083 357.822 433.886 356.974C433.694 356.121 433.395 355.292 432.99 354.486C432.59 353.681 432.075 352.905 431.446 352.158L432.502 351.358C433.126 352.078 433.662 352.886 434.11 353.782C434.563 354.673 434.907 355.612 435.142 356.598C435.382 357.585 435.496 358.574 435.486 359.566C435.496 360.553 435.382 361.54 435.142 362.526C434.907 363.513 434.563 364.454 434.11 365.35C433.662 366.246 433.126 367.054 432.502 367.774Z" fill="#3F4346"/>
<rect x="316.984" y="303.346" width="179" height="78" rx="15.5" stroke="#26D9D9" shape-rendering="crispEdges"/>
</g>
<path d="M267.016 231C267.016 230.448 266.568 230 266.016 230C265.463 230 265.016 230.448 265.016 231H267.016ZM313.191 343.053C313.582 342.663 313.582 342.03 313.191 341.639L306.828 335.275C306.437 334.885 305.804 334.885 305.413 335.275C305.023 335.666 305.023 336.299 305.413 336.689L311.07 342.346L305.413 348.003C305.023 348.394 305.023 349.027 305.413 349.417C305.804 349.808 306.437 349.808 306.828 349.417L313.191 343.053ZM265.016 231V318.346H267.016V231H265.016ZM290.016 343.346H312.484V341.346H290.016V343.346ZM265.016 318.346C265.016 332.153 276.209 343.346 290.016 343.346V341.346C277.313 341.346 267.016 331.049 267.016 318.346H265.016Z" fill="#B3B3B3"/>
<defs>
<filter id="filter0_d_4255_22755" x="43.5156" y="18.1538" width="184" height="85" filterUnits="userSpaceOnUse" color-interpolation-filters="sRGB">
<feFlood flood-opacity="0" result="BackgroundImageFix"/>
<feColorMatrix in="SourceAlpha" type="matrix" values="0 0 0 0 0 0 0 0 0 0 0 0 0 0 0 0 0 0 127 0" result="hardAlpha"/>
<feOffset dx="4" dy="6"/>
<feComposite in2="hardAlpha" operator="out"/>
<feColorMatrix type="matrix" values="0 0 0 0 0.14902 0 0 0 0 0.85098 0 0 0 0 0.85098 0 0 0 1 0"/>
<feBlend mode="normal" in2="BackgroundImageFix" result="effect1_dropShadow_4255_22755"/>
<feBlend mode="normal" in="SourceGraphic" in2="effect1_dropShadow_4255_22755" result="shape"/>
</filter>
<filter id="filter1_d_4255_22755" x="176.016" y="148" width="184" height="85" filterUnits="userSpaceOnUse" color-interpolation-filters="sRGB">
<feFlood flood-opacity="0" result="BackgroundImageFix"/>
<feColorMatrix in="SourceAlpha" type="matrix" values="0 0 0 0 0 0 0 0 0 0 0 0 0 0 0 0 0 0 127 0" result="hardAlpha"/>
<feOffset dx="4" dy="6"/>
<feComposite in2="hardAlpha" operator="out"/>
<feColorMatrix type="matrix" values="0 0 0 0 0.14902 0 0 0 0 0.85098 0 0 0 0 0.85098 0 0 0 1 0"/>
<feBlend mode="normal" in2="BackgroundImageFix" result="effect1_dropShadow_4255_22755"/>
<feBlend mode="normal" in="SourceGraphic" in2="effect1_dropShadow_4255_22755" result="shape"/>
</filter>
<filter id="filter2_d_4255_22755" x="316.484" y="302.846" width="184" height="85" filterUnits="userSpaceOnUse" color-interpolation-filters="sRGB">
<feFlood flood-opacity="0" result="BackgroundImageFix"/>
<feColorMatrix in="SourceAlpha" type="matrix" values="0 0 0 0 0 0 0 0 0 0 0 0 0 0 0 0 0 0 127 0" result="hardAlpha"/>
<feOffset dx="4" dy="6"/>
<feComposite in2="hardAlpha" operator="out"/>
<feColorMatrix type="matrix" values="0 0 0 0 0.14902 0 0 0 0 0.85098 0 0 0 0 0.85098 0 0 0 1 0"/>
<feBlend mode="normal" in2="BackgroundImageFix" result="effect1_dropShadow_4255_22755"/>
<feBlend mode="normal" in="SourceGraphic" in2="effect1_dropShadow_4255_22755" result="shape"/>
</filter>
</defs>
</svg>
