<svg width="81" height="80" viewBox="0 0 81 80" fill="none" xmlns="http://www.w3.org/2000/svg">
<g clip-path="url(#clip0_10050_2182)">
<path d="M4.38794 45.4351C5.45962 53.243 9.13394 60.2855 14.6454 65.95L27.0463 53.5492C27.0463 40.3829 33.9356 28.4413 45.2648 21.7051L4.38794 45.4351Z" fill="#9B65C3"/>
<path d="M27.1993 53.3961C20.7693 53.3961 14.4923 51.712 8.98084 48.497C7.44987 47.5784 5.91891 46.5067 4.38794 45.4351C5.45962 53.243 9.13394 60.2854 14.6454 65.95L27.1993 53.3961Z" fill="#9B65C3"/>
<path d="M27.1988 53.396L14.6448 65.9499C20.3094 71.6145 27.3519 75.1357 35.0067 76.2074L58.7367 35.1775C52.3066 46.3536 40.212 53.396 27.1988 53.396Z" fill="#BE63C5"/>
<path d="M32.0979 71.7676C28.8828 66.103 27.1988 59.9791 27.1988 53.5491L14.6448 65.9499C20.3094 71.6145 27.3519 75.1357 35.0067 76.2074C34.0881 74.6764 33.0164 73.2986 32.0979 71.7676Z" fill="#BF63C6"/>
<path d="M73.8935 5.32349L45.4175 21.5517C34.0883 27.9818 20.3096 27.9818 8.82738 21.5517C5.61235 27.2163 3.92828 33.6464 3.92828 40.0764C3.92828 41.7605 4.08138 43.7508 4.38757 45.4348C5.91854 46.5065 7.44951 47.5782 8.98048 48.4968C14.6451 51.7118 20.7689 53.3959 27.199 53.3959L74.5059 6.08897C74.1997 5.93587 74.0466 5.62968 73.8935 5.32349Z" fill="#3278B1"/>
<path d="M8.82774 48.497C14.4923 51.7121 20.6162 53.3961 27.0463 53.3961C27.0463 40.2298 33.9356 28.2883 45.2648 21.552L4.38794 45.282C5.91891 46.5068 7.29678 47.5784 8.82774 48.497Z" fill="#3278B2"/>
<path d="M8.82738 21.552C5.61235 27.2166 3.92828 33.6466 3.92828 40.0767C3.92828 41.7608 4.08138 43.751 4.38757 45.4351L45.4175 21.552C34.2414 28.2883 20.3096 28.2883 8.82738 21.552Z" fill="#45A4EC"/>
<path d="M74.5054 6.08899C73.893 5.47661 73.4337 5.01732 72.8213 4.55803C71.4435 3.79254 69.7594 3.33325 68.2284 3.33325H40.5179C27.3516 3.33325 15.257 10.3757 8.8269 21.5518C20.1561 27.9818 33.9348 27.9818 45.417 21.5518C34.0879 27.9818 27.1985 40.2296 27.1985 53.3959C40.3648 53.3959 52.3064 46.5065 59.0426 35.1774L75.2709 6.70138C74.9647 6.54828 74.6585 6.39519 74.5054 6.08899Z" fill="#19BB7D"/>
<path d="M45.417 21.5519L73.893 5.32361C73.4337 5.17051 73.2806 4.71122 72.8213 4.40503L8.8269 21.5519C20.3092 28.2881 34.241 28.2881 45.417 21.5519Z" fill="#08C7FB"/>
<path d="M68.0753 3.33325H40.5179C27.3516 3.33325 15.257 10.3757 8.8269 21.5518L72.8213 4.40493C71.2904 3.79254 69.7594 3.33325 68.0753 3.33325Z" fill="#59F2F6"/>
<path d="M59.0437 35.1775L75.272 6.70154C75.1189 6.54844 74.8127 6.24225 74.6596 5.78296L27.3527 53.2429C27.3527 59.673 29.0368 65.95 32.2518 71.4615C33.1704 72.9924 34.2421 74.5234 35.3138 76.0544C36.9978 76.2074 38.6819 76.5136 40.519 76.5136C46.9491 76.5136 53.2261 74.8296 58.7376 71.6145C52.3075 60.2854 52.3075 46.3536 59.0437 35.1775Z" fill="#DA3757"/>
<path d="M27.1984 53.396C27.1984 59.8261 28.8825 66.103 32.0975 71.6145C33.0161 73.1455 34.0878 74.6764 35.1595 76.2074L58.8894 35.1775C52.3063 46.3536 40.2116 53.396 27.1984 53.396Z" fill="#D33C4E"/>
<path d="M59.043 35.1775L35.313 76.2074C36.9971 76.3605 38.6811 76.6667 40.6714 76.6667C47.1014 76.6667 53.3784 74.9826 58.8899 71.7676C52.3067 60.2854 52.3067 46.3536 59.043 35.1775Z" fill="#EE5A24"/>
<path d="M76.0363 7.92613C75.4239 6.85445 74.8115 5.93587 73.8929 5.32349L45.4169 21.5517C34.0878 27.9818 27.1984 40.2295 27.1984 53.3959C40.3647 53.3959 52.3063 46.5065 59.0425 35.1773C52.6125 46.5065 52.6125 60.2852 59.0425 71.7675C70.2186 65.3374 77.2611 53.2428 77.2611 40.3826V12.519C77.2611 10.835 76.8018 9.304 76.0363 7.92613Z" fill="#8BDF55"/>
<path d="M73.8929 5.32349L45.4169 21.5517C34.0878 27.9818 27.1984 40.2295 27.1984 53.3959L74.5053 6.08897C74.1991 5.93587 74.046 5.47658 73.8929 5.32349Z" fill="#25C16F"/>
<path d="M27.1984 53.396C40.3647 53.396 52.3063 46.5067 59.0425 35.1775L75.2708 6.70154C75.1177 6.54844 74.8115 6.24225 74.6584 5.78296L27.1984 53.396Z" fill="#8BDF55"/>
<path d="M75.2713 6.70166L59.043 35.1776C52.6129 46.5068 52.6129 60.2855 59.043 71.7678L76.1898 7.92643C75.7305 7.46714 75.5774 7.16095 75.2713 6.70166Z" fill="#FFBB00"/>
<path d="M59.0427 71.7676C70.3719 65.3376 77.2612 53.2429 77.2612 40.0766V12.5192C77.2612 10.8351 76.8019 9.30416 76.0365 7.77319L59.0427 71.7676Z" fill="#FFA800"/>
</g>
<defs>
<clipPath id="clip0_10050_2182">
<rect width="80" height="80" fill="white" transform="translate(0.594971)"/>
</clipPath>
</defs>
</svg>
