<svg width="31" height="36" viewBox="0 0 31 36" fill="none" xmlns="http://www.w3.org/2000/svg">
<path d="M14.3269 17.2307L0.130859 32.2974C0.132193 32.3001 0.132193 32.3041 0.133526 32.3067C0.569526 33.9427 2.06286 35.1467 3.83619 35.1467C4.54553 35.1467 5.21086 34.9547 5.78153 34.6187L5.82686 34.5921L21.8055 25.3721L14.3269 17.2307Z" fill="#EA4335"/>
<path d="M28.688 14.665L28.6747 14.6557L21.776 10.657L14.004 17.573L21.804 25.3704L28.6654 21.4117C29.868 20.761 30.6854 19.493 30.6854 18.0317C30.6854 16.5784 29.88 15.317 28.688 14.665Z" fill="#FBBC04"/>
<path d="M0.130667 3.70136C0.0453333 4.01603 0 4.34669 0 4.68803V31.312C0 31.6534 0.0453333 31.984 0.132 32.2974L14.8147 17.616L0.130667 3.70136Z" fill="#4285F4"/>
<path d="M14.4317 17.9998L21.7784 10.6544L5.81837 1.40109C5.23837 1.05309 4.56104 0.85309 3.83704 0.85309C2.0637 0.85309 0.567704 2.05976 0.131704 3.69709L0.130371 3.70109L14.4317 17.9998Z" fill="#34A853"/>
</svg>
