<svg width="30" height="36" viewBox="0 0 30 36" fill="none" xmlns="http://www.w3.org/2000/svg">
<g clip-path="url(#clip0_7259_4213)">
<path d="M28.2735 12.4412C25.9402 13.8824 24.499 16.3529 24.499 19.098C24.499 22.1863 26.352 25 29.1657 26.1667C28.6167 27.951 27.7931 29.598 26.7637 31.1078C25.2539 33.2353 23.6755 35.4314 21.3422 35.4314C19.0088 35.4314 18.3226 34.0588 15.5775 34.0588C12.901 34.0588 11.9402 35.5 9.74413 35.5C7.54805 35.5 6.03824 33.5098 4.32256 31.0392C2.05785 27.6078 0.75393 23.6275 0.685303 19.4412C0.685303 12.6471 5.07746 9.0098 9.46962 9.0098C11.8029 9.0098 13.7245 10.5196 15.1657 10.5196C16.5382 10.5196 18.7343 8.94118 21.3422 8.94118C24.0873 8.87255 26.6951 10.1765 28.2735 12.4412ZM20.1069 6.05882C21.2735 4.68628 21.8912 2.97059 21.9598 1.18627C21.9598 0.980392 21.9598 0.705882 21.8912 0.5C19.901 0.705882 18.048 1.66667 16.7441 3.17647C15.5775 4.48039 14.8912 6.12745 14.8226 7.91177C14.8226 8.11765 14.8226 8.32353 14.8912 8.52941C15.0284 8.52941 15.2343 8.59804 15.3716 8.59804C17.2245 8.46078 18.9402 7.5 20.1069 6.05882Z" fill="white"/>
</g>
<defs>
<clipPath id="clip0_7259_4213">
<rect width="28.4804" height="35" fill="white" transform="translate(0.685303 0.5)"/>
</clipPath>
</defs>
</svg>
