<svg width="600" height="450" viewBox="0 0 600 450" fill="none" xmlns="http://www.w3.org/2000/svg">
<path d="M560.5 52.5L493 15L425.5 52.5V127.5L493 165L560.5 127.5V52.5ZM493 32.175L537.325 56.775L514.75 69.3C509.275 63.6 501.55 60 493 60C484.45 60 476.725 63.6 471.25 69.3L448.675 56.775L493 32.175ZM485.5 143.7L440.5 118.725V69.45L463.975 82.5C463.3 84.825 463 87.375 463 90C463 103.95 472.525 115.725 485.5 119.025V143.7ZM478 90C478 81.75 484.75 75 493 75C501.25 75 508 81.75 508 90C508 98.25 501.25 105 493 105C484.75 105 478 98.25 478 90ZM500.5 143.7V119.1C513.475 115.8 523 104.025 523 90.075C523 87.45 522.7 84.9 522.025 82.5L545.5 69.45V118.725L500.5 143.7Z" fill="#DBEAF6"/>
<g filter="url(#filter0_d_2077_28742)">
<rect x="206" y="150" width="300" height="40" rx="4" fill="white" shape-rendering="crispEdges"/>
<path d="M227.307 164.818V175H226.114L220.565 167.006H220.466V175H219.233V164.818H220.426L225.994 172.832H226.094V164.818H227.307ZM232.717 175.159C232.028 175.159 231.423 174.995 230.903 174.667C230.385 174.339 229.981 173.88 229.689 173.29C229.401 172.7 229.257 172.01 229.257 171.222C229.257 170.426 229.401 169.732 229.689 169.138C229.981 168.545 230.385 168.085 230.903 167.756C231.423 167.428 232.028 167.264 232.717 167.264C233.407 167.264 234.01 167.428 234.527 167.756C235.047 168.085 235.452 168.545 235.74 169.138C236.032 169.732 236.177 170.426 236.177 171.222C236.177 172.01 236.032 172.7 235.74 173.29C235.452 173.88 235.047 174.339 234.527 174.667C234.01 174.995 233.407 175.159 232.717 175.159ZM232.717 174.105C233.241 174.105 233.672 173.971 234.01 173.702C234.348 173.434 234.598 173.081 234.76 172.643C234.923 172.206 235.004 171.732 235.004 171.222C235.004 170.711 234.923 170.236 234.76 169.795C234.598 169.354 234.348 168.998 234.01 168.726C233.672 168.454 233.241 168.318 232.717 168.318C232.193 168.318 231.763 168.454 231.425 168.726C231.086 168.998 230.836 169.354 230.674 169.795C230.511 170.236 230.43 170.711 230.43 171.222C230.43 171.732 230.511 172.206 230.674 172.643C230.836 173.081 231.086 173.434 231.425 173.702C231.763 173.971 232.193 174.105 232.717 174.105ZM237.968 175V167.364H239.102V168.517H239.181C239.321 168.139 239.573 167.833 239.937 167.597C240.302 167.362 240.713 167.244 241.17 167.244C241.256 167.244 241.364 167.246 241.493 167.249C241.623 167.253 241.72 167.258 241.787 167.264V168.457C241.747 168.447 241.656 168.433 241.513 168.413C241.374 168.389 241.226 168.378 241.071 168.378C240.699 168.378 240.368 168.456 240.076 168.612C239.788 168.764 239.559 168.976 239.39 169.248C239.225 169.516 239.142 169.823 239.142 170.168V175H237.968ZM243.177 175V167.364H244.311V168.557H244.41C244.569 168.149 244.826 167.833 245.181 167.607C245.536 167.379 245.961 167.264 246.459 167.264C246.962 167.264 247.382 167.379 247.716 167.607C248.055 167.833 248.318 168.149 248.507 168.557H248.586C248.782 168.162 249.075 167.849 249.466 167.617C249.858 167.382 250.327 167.264 250.873 167.264C251.556 167.264 252.115 167.478 252.549 167.906C252.983 168.33 253.2 168.991 253.2 169.889V175H252.027V169.889C252.027 169.326 251.873 168.923 251.564 168.681C251.256 168.439 250.893 168.318 250.476 168.318C249.939 168.318 249.523 168.481 249.228 168.805C248.933 169.127 248.785 169.535 248.785 170.028V175H247.592V169.77C247.592 169.336 247.451 168.986 247.17 168.721C246.888 168.452 246.525 168.318 246.081 168.318C245.776 168.318 245.491 168.399 245.226 168.562C244.964 168.724 244.752 168.95 244.589 169.238C244.43 169.523 244.351 169.853 244.351 170.227V175H243.177ZM257.593 175.179C257.109 175.179 256.669 175.088 256.275 174.906C255.881 174.72 255.567 174.453 255.335 174.105C255.103 173.754 254.987 173.33 254.987 172.832C254.987 172.395 255.074 172.04 255.246 171.768C255.418 171.493 255.649 171.278 255.937 171.122C256.225 170.966 256.544 170.85 256.892 170.774C257.243 170.695 257.596 170.632 257.95 170.585C258.414 170.526 258.791 170.481 259.079 170.451C259.371 170.418 259.583 170.363 259.715 170.287C259.851 170.211 259.919 170.078 259.919 169.889V169.849C259.919 169.359 259.785 168.978 259.517 168.706C259.251 168.434 258.849 168.298 258.308 168.298C257.748 168.298 257.309 168.421 256.991 168.666C256.673 168.911 256.449 169.173 256.32 169.452L255.206 169.054C255.405 168.59 255.67 168.229 256.002 167.97C256.336 167.708 256.701 167.526 257.095 167.423C257.493 167.317 257.884 167.264 258.269 167.264C258.514 167.264 258.796 167.294 259.114 167.354C259.435 167.41 259.745 167.528 260.044 167.707C260.345 167.886 260.595 168.156 260.794 168.517C260.993 168.878 261.093 169.362 261.093 169.969V175H259.919V173.966H259.86C259.78 174.132 259.647 174.309 259.462 174.498C259.276 174.687 259.029 174.848 258.721 174.98C258.413 175.113 258.037 175.179 257.593 175.179ZM257.771 174.125C258.235 174.125 258.627 174.034 258.945 173.852C259.266 173.669 259.508 173.434 259.671 173.146C259.836 172.857 259.919 172.554 259.919 172.236V171.162C259.869 171.222 259.76 171.276 259.591 171.326C259.425 171.372 259.233 171.414 259.014 171.45C258.799 171.483 258.588 171.513 258.383 171.54C258.181 171.563 258.017 171.583 257.891 171.599C257.586 171.639 257.301 171.704 257.036 171.793C256.774 171.879 256.562 172.01 256.399 172.186C256.24 172.358 256.161 172.594 256.161 172.892C256.161 173.3 256.311 173.608 256.613 173.817C256.918 174.022 257.304 174.125 257.771 174.125ZM264.407 164.818V175H263.234V164.818H264.407Z" fill="#3F4346"/>
<g clip-path="url(#clip0_2077_28742)">
<path d="M491.825 167.158L488 170.975L484.175 167.158L483 168.333L488 173.333L493 168.333L491.825 167.158Z" fill="#5D6164"/>
</g>
<rect x="206.5" y="150.5" width="299" height="39" rx="3.5" stroke="#D5D9DC" shape-rendering="crispEdges"/>
</g>
<rect width="41" height="12" transform="translate(214 144)" fill="white"/>
<path d="M219.761 146.727V154H218.881V146.727H219.761ZM221.527 154V146.727H223.985C224.555 146.727 225.021 146.83 225.384 147.036C225.748 147.24 226.018 147.516 226.193 147.864C226.369 148.212 226.456 148.6 226.456 149.028C226.456 149.457 226.369 149.846 226.193 150.197C226.021 150.547 225.753 150.826 225.391 151.035C225.029 151.241 224.565 151.344 223.999 151.344H222.237V150.562H223.97C224.361 150.562 224.675 150.495 224.911 150.36C225.148 150.225 225.32 150.043 225.426 149.813C225.535 149.581 225.59 149.32 225.59 149.028C225.59 148.737 225.535 148.477 225.426 148.247C225.32 148.018 225.147 147.838 224.908 147.707C224.669 147.575 224.352 147.509 223.956 147.509H222.408V154H221.527ZM232.946 148.545V149.256H230.119V148.545H232.946ZM230.943 147.239H231.781V152.438C231.781 152.674 231.815 152.852 231.884 152.97C231.955 153.086 232.045 153.164 232.154 153.205C232.265 153.242 232.382 153.261 232.506 153.261C232.598 153.261 232.674 153.257 232.733 153.247C232.792 153.235 232.839 153.226 232.875 153.219L233.045 153.972C232.988 153.993 232.909 154.014 232.807 154.036C232.706 154.059 232.577 154.071 232.42 154.071C232.184 154.071 231.952 154.02 231.724 153.918C231.499 153.817 231.312 153.661 231.163 153.453C231.016 153.245 230.943 152.982 230.943 152.665V147.239ZM234.746 156.045C234.604 156.045 234.478 156.034 234.366 156.01C234.255 155.989 234.178 155.967 234.135 155.946L234.349 155.207C234.552 155.259 234.732 155.278 234.888 155.264C235.045 155.25 235.183 155.18 235.304 155.055C235.427 154.932 235.539 154.732 235.641 154.455L235.797 154.028L233.78 148.545H234.689L236.195 152.892H236.252L237.758 148.545H238.667L236.351 154.795C236.247 155.077 236.118 155.31 235.964 155.495C235.81 155.682 235.632 155.821 235.428 155.911C235.227 156 235 156.045 234.746 156.045ZM239.773 156.045V148.545H240.583V149.412H240.682C240.744 149.317 240.829 149.196 240.938 149.05C241.049 148.901 241.208 148.768 241.414 148.652C241.622 148.534 241.904 148.474 242.259 148.474C242.718 148.474 243.123 148.589 243.473 148.819C243.824 149.049 244.097 149.374 244.294 149.795C244.49 150.217 244.588 150.714 244.588 151.287C244.588 151.865 244.49 152.365 244.294 152.789C244.097 153.21 243.825 153.537 243.477 153.769C243.129 153.999 242.727 154.114 242.273 154.114C241.923 154.114 241.642 154.056 241.431 153.94C241.221 153.821 241.058 153.687 240.945 153.538C240.831 153.387 240.744 153.261 240.682 153.162H240.611V156.045H239.773ZM240.597 151.273C240.597 151.685 240.657 152.048 240.778 152.363C240.899 152.675 241.075 152.92 241.307 153.098C241.539 153.273 241.823 153.361 242.159 153.361C242.51 153.361 242.802 153.268 243.036 153.084C243.273 152.897 243.451 152.646 243.569 152.331C243.69 152.014 243.75 151.661 243.75 151.273C243.75 150.889 243.691 150.544 243.573 150.236C243.457 149.926 243.28 149.681 243.044 149.501C242.809 149.318 242.514 149.227 242.159 149.227C241.818 149.227 241.532 149.314 241.3 149.487C241.068 149.657 240.893 149.896 240.774 150.204C240.656 150.509 240.597 150.866 240.597 151.273ZM248.154 154.114C247.628 154.114 247.175 153.998 246.794 153.766C246.415 153.531 246.122 153.205 245.916 152.786C245.713 152.364 245.611 151.874 245.611 151.315C245.611 150.757 245.713 150.264 245.916 149.838C246.122 149.41 246.409 149.076 246.776 148.837C247.145 148.595 247.576 148.474 248.068 148.474C248.352 148.474 248.633 148.522 248.91 148.616C249.187 148.711 249.439 148.865 249.666 149.078C249.894 149.289 250.075 149.568 250.21 149.916C250.345 150.264 250.412 150.693 250.412 151.202V151.557H246.208V150.832H249.56C249.56 150.525 249.498 150.25 249.375 150.009C249.254 149.767 249.082 149.576 248.857 149.437C248.634 149.297 248.371 149.227 248.068 149.227C247.735 149.227 247.446 149.31 247.202 149.476C246.96 149.639 246.775 149.852 246.644 150.115C246.514 150.378 246.449 150.66 246.449 150.96V151.443C246.449 151.855 246.52 152.204 246.662 152.491C246.807 152.775 247.007 152.991 247.262 153.141C247.518 153.287 247.815 153.361 248.154 153.361C248.374 153.361 248.573 153.33 248.75 153.268C248.93 153.205 249.085 153.11 249.215 152.984C249.346 152.857 249.446 152.698 249.517 152.509L250.327 152.736C250.242 153.01 250.098 153.252 249.897 153.46C249.696 153.666 249.447 153.827 249.151 153.943C248.856 154.057 248.523 154.114 248.154 154.114Z" fill="#3F4346"/>
<g filter="url(#filter1_d_2077_28742)">
<rect x="40" y="80" width="300" height="40" rx="4" fill="white" shape-rendering="crispEdges"/>
<path d="M56.6335 94.8182V105H55.4006V96.1108H55.3409L52.8551 97.7614V96.5085L55.4006 94.8182H56.6335ZM59.5618 105V104.105L62.9226 100.426C63.317 99.9953 63.6418 99.6207 63.897 99.3026C64.1522 98.9811 64.3411 98.6795 64.4638 98.3977C64.5897 98.1127 64.6527 97.8144 64.6527 97.5028C64.6527 97.1449 64.5665 96.835 64.3942 96.5732C64.2251 96.3113 63.9931 96.1091 63.6982 95.9666C63.4032 95.8241 63.0717 95.7528 62.7038 95.7528C62.3127 95.7528 61.9714 95.834 61.6797 95.9964C61.3913 96.1555 61.1676 96.3793 61.0085 96.6676C60.8527 96.956 60.7749 97.294 60.7749 97.6818H59.6016C59.6016 97.0852 59.7391 96.5616 60.0142 96.1108C60.2893 95.66 60.6638 95.3087 61.1378 95.0568C61.6151 94.8049 62.1503 94.679 62.7436 94.679C63.3402 94.679 63.8688 94.8049 64.3295 95.0568C64.7902 95.3087 65.1515 95.6484 65.4134 96.076C65.6752 96.5036 65.8061 96.9792 65.8061 97.5028C65.8061 97.8774 65.7382 98.2436 65.6023 98.6016C65.4697 98.9562 65.2377 99.3523 64.9062 99.7898C64.5781 100.224 64.1224 100.754 63.5391 101.381L61.2521 103.827V103.906H65.9851V105H59.5618ZM71.4787 105.139C70.8224 105.139 70.2375 105.027 69.7237 104.801C69.2133 104.576 68.8073 104.263 68.5057 103.862C68.2074 103.457 68.045 102.988 68.0185 102.455H69.2713C69.2978 102.783 69.4105 103.066 69.6094 103.305C69.8082 103.54 70.0684 103.722 70.3899 103.852C70.7114 103.981 71.0677 104.045 71.4588 104.045C71.8963 104.045 72.2841 103.969 72.6222 103.817C72.9602 103.664 73.2254 103.452 73.4176 103.18C73.6098 102.909 73.706 102.594 73.706 102.236C73.706 101.861 73.6132 101.531 73.4276 101.246C73.242 100.958 72.9702 100.733 72.6122 100.57C72.2543 100.408 71.8168 100.327 71.2997 100.327H70.4844V99.233H71.2997C71.7041 99.233 72.0587 99.16 72.3636 99.0142C72.6719 98.8684 72.9122 98.6629 73.0845 98.3977C73.2602 98.1326 73.348 97.821 73.348 97.4631C73.348 97.1184 73.2718 96.8184 73.1193 96.5632C72.9669 96.308 72.7514 96.1091 72.473 95.9666C72.1979 95.8241 71.8731 95.7528 71.4986 95.7528C71.1473 95.7528 70.8158 95.8175 70.5043 95.9467C70.196 96.0727 69.9441 96.2566 69.7486 96.4986C69.553 96.7372 69.447 97.0256 69.4304 97.3636H68.2372C68.2571 96.83 68.4179 96.3627 68.7195 95.9616C69.0211 95.5573 69.4155 95.2424 69.9027 95.017C70.3932 94.7917 70.9318 94.679 71.5185 94.679C72.1482 94.679 72.6884 94.8066 73.1392 95.0618C73.59 95.3137 73.9363 95.6468 74.1783 96.0611C74.4202 96.4754 74.5412 96.9228 74.5412 97.4034C74.5412 97.9768 74.3904 98.4657 74.0888 98.87C73.7905 99.2744 73.3845 99.5545 72.8707 99.7102V99.7898C73.5137 99.8958 74.0159 100.169 74.3771 100.61C74.7384 101.048 74.919 101.589 74.919 102.236C74.919 102.789 74.7682 103.286 74.4666 103.727C74.1683 104.165 73.7607 104.509 73.2436 104.761C72.7266 105.013 72.1383 105.139 71.4787 105.139ZM77.513 105.08C77.2677 105.08 77.0572 104.992 76.8816 104.816C76.7059 104.64 76.6181 104.43 76.6181 104.185C76.6181 103.939 76.7059 103.729 76.8816 103.553C77.0572 103.378 77.2677 103.29 77.513 103.29C77.7582 103.29 77.9687 103.378 78.1444 103.553C78.32 103.729 78.4078 103.939 78.4078 104.185C78.4078 104.347 78.3664 104.496 78.2836 104.632C78.204 104.768 78.0963 104.877 77.9604 104.96C77.8278 105.04 77.6787 105.08 77.513 105.08ZM80.4934 105V104.105L83.8542 100.426C84.2486 99.9953 84.5734 99.6207 84.8287 99.3026C85.0839 98.9811 85.2728 98.6795 85.3954 98.3977C85.5214 98.1127 85.5843 97.8144 85.5843 97.5028C85.5843 97.1449 85.4982 96.835 85.3258 96.5732C85.1568 96.3113 84.9248 96.1091 84.6298 95.9666C84.3348 95.8241 84.0034 95.7528 83.6355 95.7528C83.2444 95.7528 82.903 95.834 82.6113 95.9964C82.323 96.1555 82.0993 96.3793 81.9402 96.6676C81.7844 96.956 81.7065 97.294 81.7065 97.6818H80.5332C80.5332 97.0852 80.6708 96.5616 80.9458 96.1108C81.2209 95.66 81.5955 95.3087 82.0694 95.0568C82.5467 94.8049 83.082 94.679 83.6752 94.679C84.2718 94.679 84.8005 94.8049 85.2612 95.0568C85.7219 95.3087 86.0832 95.6484 86.345 96.076C86.6068 96.5036 86.7377 96.9792 86.7377 97.5028C86.7377 97.8774 86.6698 98.2436 86.5339 98.6016C86.4013 98.9562 86.1693 99.3523 85.8379 99.7898C85.5098 100.224 85.054 100.754 84.4707 101.381L82.1838 103.827V103.906H86.9167V105H80.4934ZM92.4103 105.139C91.7541 105.139 91.1691 105.027 90.6554 104.801C90.1449 104.576 89.7389 104.263 89.4373 103.862C89.139 103.457 88.9766 102.988 88.9501 102.455H90.2029C90.2295 102.783 90.3422 103.066 90.541 103.305C90.7399 103.54 91.0001 103.722 91.3216 103.852C91.6431 103.981 91.9993 104.045 92.3904 104.045C92.8279 104.045 93.2157 103.969 93.5538 103.817C93.8919 103.664 94.157 103.452 94.3493 103.18C94.5415 102.909 94.6376 102.594 94.6376 102.236C94.6376 101.861 94.5448 101.531 94.3592 101.246C94.1736 100.958 93.9018 100.733 93.5439 100.57C93.1859 100.408 92.7484 100.327 92.2314 100.327H91.416V99.233H92.2314C92.6357 99.233 92.9904 99.16 93.2953 99.0142C93.6035 98.8684 93.8438 98.6629 94.0162 98.3977C94.1918 98.1326 94.2797 97.821 94.2797 97.4631C94.2797 97.1184 94.2034 96.8184 94.051 96.5632C93.8985 96.308 93.6831 96.1091 93.4047 95.9666C93.1296 95.8241 92.8047 95.7528 92.4302 95.7528C92.0789 95.7528 91.7475 95.8175 91.4359 95.9467C91.1277 96.0727 90.8758 96.2566 90.6802 96.4986C90.4847 96.7372 90.3786 97.0256 90.362 97.3636H89.1689C89.1887 96.83 89.3495 96.3627 89.6511 95.9616C89.9527 95.5573 90.3471 95.2424 90.8343 95.017C91.3249 94.7917 91.8635 94.679 92.4501 94.679C93.0798 94.679 93.6201 94.8066 94.0708 95.0618C94.5216 95.3137 94.868 95.6468 95.1099 96.0611C95.3519 96.4754 95.4728 96.9228 95.4728 97.4034C95.4728 97.9768 95.322 98.4657 95.0204 98.87C94.7221 99.2744 94.3161 99.5545 93.8024 99.7102V99.7898C94.4454 99.8958 94.9475 100.169 95.3088 100.61C95.67 101.048 95.8507 101.589 95.8507 102.236C95.8507 102.789 95.6999 103.286 95.3983 103.727C95.1 104.165 94.6923 104.509 94.1752 104.761C93.6582 105.013 93.0699 105.139 92.4103 105.139ZM97.6454 102.912V101.898L102.12 94.8182H102.856V96.3892H102.358L98.9778 101.739V101.818H105.003V102.912H97.6454ZM102.438 105V102.604V102.131V94.8182H103.611V105H102.438ZM107.263 105.08C107.018 105.08 106.807 104.992 106.632 104.816C106.456 104.64 106.368 104.43 106.368 104.185C106.368 103.939 106.456 103.729 106.632 103.553C106.807 103.378 107.018 103.29 107.263 103.29C107.508 103.29 107.719 103.378 107.894 103.553C108.07 103.729 108.158 103.939 108.158 104.185C108.158 104.347 108.116 104.496 108.034 104.632C107.954 104.768 107.846 104.877 107.71 104.96C107.578 105.04 107.429 105.08 107.263 105.08ZM110.005 102.912V101.898L114.479 94.8182H115.215V96.3892H114.718L111.337 101.739V101.818H117.363V102.912H110.005ZM114.797 105V102.604V102.131V94.8182H115.971V105H114.797ZM122.408 105.139C121.824 105.139 121.299 105.023 120.832 104.791C120.364 104.559 119.99 104.241 119.708 103.837C119.426 103.432 119.272 102.972 119.246 102.455H120.439C120.485 102.915 120.694 103.296 121.065 103.598C121.44 103.896 121.887 104.045 122.408 104.045C122.825 104.045 123.196 103.948 123.521 103.752C123.849 103.557 124.106 103.288 124.292 102.947C124.481 102.602 124.575 102.213 124.575 101.778C124.575 101.334 124.478 100.938 124.282 100.59C124.09 100.239 123.825 99.9621 123.487 99.7599C123.148 99.5578 122.762 99.455 122.328 99.4517C122.017 99.4484 121.697 99.4964 121.369 99.5959C121.04 99.692 120.77 99.8163 120.558 99.9688L119.405 99.8295L120.021 94.8182H125.311V95.9119H121.055L120.697 98.9148H120.757C120.966 98.7491 121.228 98.6115 121.543 98.5021C121.857 98.3928 122.186 98.3381 122.527 98.3381C123.15 98.3381 123.705 98.4872 124.192 98.7855C124.683 99.0805 125.067 99.4848 125.346 99.9986C125.628 100.512 125.768 101.099 125.768 101.759C125.768 102.408 125.623 102.988 125.331 103.499C125.043 104.006 124.645 104.407 124.138 104.702C123.631 104.993 123.054 105.139 122.408 105.139ZM131.124 105.139C130.706 105.133 130.289 105.053 129.871 104.901C129.454 104.748 129.073 104.491 128.728 104.13C128.383 103.765 128.106 103.273 127.898 102.653C127.689 102.03 127.584 101.248 127.584 100.307C127.584 99.4053 127.669 98.6065 127.838 97.9105C128.007 97.2112 128.252 96.6229 128.574 96.1456C128.895 95.665 129.283 95.3004 129.737 95.0518C130.194 94.8033 130.71 94.679 131.283 94.679C131.853 94.679 132.36 94.7933 132.805 95.022C133.252 95.2474 133.617 95.5623 133.898 95.9666C134.18 96.371 134.362 96.8366 134.445 97.3636H133.232C133.119 96.9062 132.901 96.5268 132.576 96.2251C132.251 95.9235 131.82 95.7727 131.283 95.7727C130.494 95.7727 129.873 96.1158 129.419 96.8018C128.968 97.4879 128.741 98.4508 128.738 99.6903H128.817C129.003 99.4086 129.223 99.1683 129.479 98.9695C129.737 98.7673 130.022 98.6115 130.334 98.5021C130.645 98.3928 130.975 98.3381 131.323 98.3381C131.906 98.3381 132.44 98.4839 132.924 98.7756C133.408 99.0639 133.796 99.4633 134.087 99.9737C134.379 100.481 134.525 101.062 134.525 101.719C134.525 102.348 134.384 102.925 134.102 103.449C133.82 103.969 133.424 104.384 132.914 104.692C132.407 104.997 131.81 105.146 131.124 105.139ZM131.124 104.045C131.542 104.045 131.916 103.941 132.248 103.732C132.582 103.523 132.846 103.243 133.038 102.892C133.234 102.541 133.331 102.15 133.331 101.719C133.331 101.298 133.237 100.915 133.048 100.57C132.863 100.222 132.606 99.9455 132.278 99.7401C131.953 99.5346 131.581 99.4318 131.164 99.4318C130.849 99.4318 130.556 99.4948 130.284 99.6207C130.012 99.7434 129.773 99.9124 129.568 100.128C129.366 100.343 129.207 100.59 129.091 100.869C128.975 101.144 128.917 101.434 128.917 101.739C128.917 102.143 129.011 102.521 129.2 102.872C129.392 103.223 129.654 103.507 129.986 103.722C130.32 103.938 130.7 104.045 131.124 104.045ZM136.876 105.08C136.631 105.08 136.421 104.992 136.245 104.816C136.069 104.64 135.981 104.43 135.981 104.185C135.981 103.939 136.069 103.729 136.245 103.553C136.421 103.378 136.631 103.29 136.876 103.29C137.122 103.29 137.332 103.378 137.508 103.553C137.683 103.729 137.771 103.939 137.771 104.185C137.771 104.347 137.73 104.496 137.647 104.632C137.567 104.768 137.46 104.877 137.324 104.96C137.191 105.04 137.042 105.08 136.876 105.08ZM142.882 105.139C142.464 105.133 142.047 105.053 141.629 104.901C141.211 104.748 140.83 104.491 140.486 104.13C140.141 103.765 139.864 103.273 139.655 102.653C139.447 102.03 139.342 101.248 139.342 100.307C139.342 99.4053 139.427 98.6065 139.596 97.9105C139.765 97.2112 140.01 96.6229 140.331 96.1456C140.653 95.665 141.041 95.3004 141.495 95.0518C141.952 94.8033 142.468 94.679 143.041 94.679C143.611 94.679 144.118 94.7933 144.562 95.022C145.01 95.2474 145.374 95.5623 145.656 95.9666C145.938 96.371 146.12 96.8366 146.203 97.3636H144.99C144.877 96.9062 144.658 96.5268 144.334 96.2251C144.009 95.9235 143.578 95.7727 143.041 95.7727C142.252 95.7727 141.631 96.1158 141.177 96.8018C140.726 97.4879 140.499 98.4508 140.496 99.6903H140.575C140.761 99.4086 140.981 99.1683 141.236 98.9695C141.495 98.7673 141.78 98.6115 142.091 98.5021C142.403 98.3928 142.733 98.3381 143.081 98.3381C143.664 98.3381 144.198 98.4839 144.682 98.7756C145.166 99.0639 145.553 99.4633 145.845 99.9737C146.137 100.481 146.282 101.062 146.282 101.719C146.282 102.348 146.142 102.925 145.86 103.449C145.578 103.969 145.182 104.384 144.672 104.692C144.165 104.997 143.568 105.146 142.882 105.139ZM142.882 104.045C143.3 104.045 143.674 103.941 144.006 103.732C144.34 103.523 144.604 103.243 144.796 102.892C144.992 102.541 145.089 102.15 145.089 101.719C145.089 101.298 144.995 100.915 144.806 100.57C144.62 100.222 144.363 99.9455 144.035 99.7401C143.711 99.5346 143.339 99.4318 142.922 99.4318C142.607 99.4318 142.314 99.4948 142.042 99.6207C141.77 99.7434 141.531 99.9124 141.326 100.128C141.124 100.343 140.965 100.59 140.849 100.869C140.733 101.144 140.675 101.434 140.675 101.739C140.675 102.143 140.769 102.521 140.958 102.872C141.15 103.223 141.412 103.507 141.743 103.722C142.078 103.938 142.458 104.045 142.882 104.045ZM148.556 105L153.11 95.9915V95.9119H147.86V94.8182H154.382V95.9716L149.848 105H148.556ZM159.292 105.139C158.609 105.139 158.006 105.018 157.482 104.776C156.962 104.531 156.556 104.195 156.264 103.767C155.973 103.336 155.828 102.846 155.832 102.295C155.828 101.865 155.913 101.467 156.085 101.102C156.258 100.734 156.493 100.428 156.791 100.183C157.093 99.9339 157.429 99.7765 157.8 99.7102V99.6506C157.313 99.5246 156.925 99.2512 156.637 98.8303C156.349 98.406 156.206 97.9238 156.21 97.3835C156.206 96.8665 156.337 96.4041 156.602 95.9964C156.867 95.5888 157.232 95.2673 157.696 95.032C158.163 94.7966 158.695 94.679 159.292 94.679C159.882 94.679 160.409 94.7966 160.873 95.032C161.337 95.2673 161.701 95.5888 161.967 95.9964C162.235 96.4041 162.371 96.8665 162.374 97.3835C162.371 97.9238 162.223 98.406 161.932 98.8303C161.643 99.2512 161.261 99.5246 160.783 99.6506V99.7102C161.151 99.7765 161.483 99.9339 161.778 100.183C162.073 100.428 162.308 100.734 162.484 101.102C162.659 101.467 162.749 101.865 162.752 102.295C162.749 102.846 162.6 103.336 162.305 103.767C162.013 104.195 161.607 104.531 161.087 104.776C160.57 105.018 159.971 105.139 159.292 105.139ZM159.292 104.045C159.753 104.045 160.15 103.971 160.485 103.822C160.82 103.673 161.078 103.462 161.261 103.19C161.443 102.919 161.536 102.6 161.539 102.236C161.536 101.851 161.436 101.512 161.241 101.217C161.045 100.922 160.778 100.69 160.44 100.521C160.106 100.352 159.723 100.267 159.292 100.267C158.858 100.267 158.47 100.352 158.129 100.521C157.79 100.69 157.524 100.922 157.328 101.217C157.136 101.512 157.041 101.851 157.045 102.236C157.041 102.6 157.129 102.919 157.308 103.19C157.491 103.462 157.751 103.673 158.089 103.822C158.427 103.971 158.828 104.045 159.292 104.045ZM159.292 99.2131C159.656 99.2131 159.98 99.1402 160.261 98.9943C160.546 98.8485 160.77 98.6446 160.933 98.3828C161.095 98.121 161.178 97.8144 161.181 97.4631C161.178 97.1184 161.097 96.8184 160.938 96.5632C160.778 96.3047 160.558 96.1058 160.276 95.9666C159.995 95.8241 159.666 95.7528 159.292 95.7528C158.911 95.7528 158.578 95.8241 158.293 95.9666C158.008 96.1058 157.787 96.3047 157.631 96.5632C157.476 96.8184 157.399 97.1184 157.403 97.4631C157.399 97.8144 157.477 98.121 157.636 98.3828C157.799 98.6446 158.022 98.8485 158.308 98.9943C158.593 99.1402 158.921 99.2131 159.292 99.2131Z" fill="#3F4346"/>
<rect x="40.5" y="80.5" width="299" height="39" rx="3.5" stroke="#D5D9DC" shape-rendering="crispEdges"/>
</g>
<rect width="87" height="12" transform="translate(48 74)" fill="white"/>
<path d="M52.8807 84V76.7273H57.2699V77.5085H53.7614V79.9659H57.0426V80.7472H53.7614V83.2188H57.3267V84H52.8807ZM59.5817 80.7188V84H58.7436V78.5455H59.5533V79.3977H59.6243C59.7521 79.1207 59.9463 78.8982 60.2067 78.7301C60.4671 78.5597 60.8033 78.4744 61.2152 78.4744C61.5845 78.4744 61.9077 78.5502 62.1847 78.7017C62.4616 78.8509 62.6771 79.0781 62.831 79.3835C62.9848 79.6866 63.0618 80.0701 63.0618 80.5341V84H62.2237V80.5909C62.2237 80.1624 62.1125 79.8286 61.8899 79.5895C61.6674 79.348 61.362 79.2273 60.9737 79.2273C60.7062 79.2273 60.4671 79.2853 60.2564 79.4013C60.0481 79.5173 59.8835 79.6866 59.7628 79.9091C59.642 80.1316 59.5817 80.4015 59.5817 80.7188ZM66.9654 78.5455V79.2557H64.1387V78.5455H66.9654ZM64.9625 77.2386H65.8006V82.4375C65.8006 82.6742 65.8349 82.8518 65.9036 82.9702C65.9746 83.0862 66.0646 83.1643 66.1735 83.2045C66.2847 83.2424 66.4019 83.2614 66.525 83.2614C66.6174 83.2614 66.6931 83.2566 66.7523 83.2472C66.8115 83.2353 66.8588 83.2259 66.8944 83.2188L67.0648 83.9716C67.008 83.9929 66.9287 84.0142 66.8269 84.0355C66.7251 84.0592 66.5961 84.071 66.4398 84.071C66.2031 84.071 65.9711 84.0201 65.7438 83.9183C65.5189 83.8165 65.3319 83.6615 65.1827 83.4531C65.0359 83.2448 64.9625 82.982 64.9625 82.6648V77.2386ZM70.4544 84.1136C69.9288 84.1136 69.4754 83.9976 69.0943 83.7656C68.7155 83.5312 68.4231 83.2045 68.2172 82.7855C68.0136 82.3641 67.9118 81.8741 67.9118 81.3153C67.9118 80.7566 68.0136 80.2642 68.2172 79.8381C68.4231 79.4096 68.7096 79.0758 69.0765 78.8366C69.4458 78.5952 69.8767 78.4744 70.3691 78.4744C70.6532 78.4744 70.9338 78.5218 71.2108 78.6165C71.4877 78.7112 71.7399 78.8651 71.9672 79.0781C72.1944 79.2888 72.3755 79.5682 72.5105 79.9162C72.6454 80.2642 72.7129 80.6927 72.7129 81.2017V81.5568H68.5083V80.8324H71.8606C71.8606 80.5246 71.7991 80.25 71.676 80.0085C71.5552 79.767 71.3824 79.5765 71.1575 79.4368C70.935 79.2971 70.6722 79.2273 70.3691 79.2273C70.0353 79.2273 69.7465 79.3101 69.5027 79.4759C69.2612 79.6392 69.0753 79.8523 68.9451 80.1151C68.8149 80.3778 68.7498 80.6596 68.7498 80.9602V81.4432C68.7498 81.8551 68.8208 82.2043 68.9629 82.4908C69.1073 82.7749 69.3074 82.9915 69.563 83.1406C69.8187 83.2874 70.1158 83.3608 70.4544 83.3608C70.6745 83.3608 70.8734 83.33 71.051 83.2685C71.2309 83.2045 71.3859 83.1098 71.5162 82.9844C71.6464 82.8565 71.747 82.6979 71.818 82.5085L72.6277 82.7358C72.5424 83.0104 72.3992 83.2519 72.198 83.4602C71.9967 83.6662 71.7482 83.8272 71.4522 83.9432C71.1563 84.0568 70.8237 84.1136 70.4544 84.1136ZM73.9877 84V78.5455H74.7974V79.3693H74.8542C74.9537 79.0994 75.1336 78.8804 75.394 78.7124C75.6544 78.5443 75.948 78.4602 76.2747 78.4602C76.3362 78.4602 76.4132 78.4614 76.5055 78.4638C76.5978 78.4661 76.6677 78.4697 76.715 78.4744V79.3267C76.6866 79.3196 76.6215 79.3089 76.5197 79.2947C76.4203 79.2782 76.3149 79.2699 76.2037 79.2699C75.9385 79.2699 75.7018 79.3255 75.4934 79.4368C75.2875 79.5457 75.1241 79.6972 75.0034 79.8913C74.885 80.0831 74.8258 80.3021 74.8258 80.5483V84H73.9877ZM81.5153 76.7273V84H80.6346V76.7273H81.5153ZM83.2811 84V76.7273H85.7385C86.309 76.7273 86.7754 76.8303 87.1376 77.0362C87.5022 77.2398 87.7721 77.5156 87.9473 77.8636C88.1225 78.2116 88.21 78.5999 88.21 79.0284C88.21 79.4569 88.1225 79.8464 87.9473 80.1967C87.7744 80.5471 87.5069 80.8265 87.1447 81.0348C86.7825 81.2408 86.3185 81.3438 85.7527 81.3438H83.9913V80.5625H85.7243C86.1149 80.5625 86.4286 80.495 86.6653 80.3601C86.902 80.2251 87.0737 80.0429 87.1802 79.8132C87.2891 79.5812 87.3436 79.3196 87.3436 79.0284C87.3436 78.7372 87.2891 78.4768 87.1802 78.2472C87.0737 78.0175 86.9009 77.8376 86.6618 77.7074C86.4226 77.5748 86.1054 77.5085 85.71 77.5085H84.1618V84H83.2811ZM92.7395 84H91.8162L94.4867 76.7273H95.3958L98.0662 84H97.1429L94.9696 77.8778H94.9128L92.7395 84ZM93.0804 81.1591H96.802V81.9403H93.0804V81.1591ZM101.145 84.1136C100.691 84.1136 100.289 83.9988 99.9412 83.7692C99.5932 83.5372 99.321 83.2105 99.1245 82.7891C98.928 82.3653 98.8297 81.8646 98.8297 81.2869C98.8297 80.714 98.928 80.2169 99.1245 79.7955C99.321 79.3741 99.5944 79.0485 99.9448 78.8189C100.295 78.5893 100.7 78.4744 101.159 78.4744C101.514 78.4744 101.795 78.5336 102.001 78.652C102.209 78.768 102.368 78.9006 102.477 79.0497C102.588 79.1965 102.674 79.3172 102.736 79.4119H102.807V76.7273H103.645V84H102.835V83.1619H102.736C102.674 83.2614 102.587 83.3868 102.473 83.5384C102.36 83.6875 102.197 83.8213 101.987 83.9396C101.776 84.0556 101.495 84.1136 101.145 84.1136ZM101.259 83.3608C101.595 83.3608 101.879 83.2732 102.111 83.098C102.343 82.9205 102.519 82.6754 102.64 82.3629C102.761 82.0481 102.821 81.6847 102.821 81.2727C102.821 80.8655 102.762 80.5092 102.644 80.2038C102.525 79.8961 102.35 79.657 102.118 79.4865C101.886 79.3137 101.6 79.2273 101.259 79.2273C100.904 79.2273 100.608 79.3184 100.371 79.5007C100.137 79.6806 99.9602 79.9257 99.8418 80.2358C99.7258 80.5436 99.6678 80.8892 99.6678 81.2727C99.6678 81.661 99.727 82.0137 99.8453 82.331C99.9661 82.6458 100.144 82.8968 100.378 83.0838C100.615 83.2685 100.908 83.3608 101.259 83.3608ZM107.356 84.1136C106.901 84.1136 106.5 83.9988 106.152 83.7692C105.804 83.5372 105.532 83.2105 105.335 82.7891C105.139 82.3653 105.041 81.8646 105.041 81.2869C105.041 80.714 105.139 80.2169 105.335 79.7955C105.532 79.3741 105.805 79.0485 106.156 78.8189C106.506 78.5893 106.911 78.4744 107.37 78.4744C107.725 78.4744 108.006 78.5336 108.212 78.652C108.42 78.768 108.579 78.9006 108.688 79.0497C108.799 79.1965 108.885 79.3172 108.947 79.4119H109.018V76.7273H109.856V84H109.046V83.1619H108.947C108.885 83.2614 108.798 83.3868 108.684 83.5384C108.57 83.6875 108.408 83.8213 108.198 83.9396C107.987 84.0556 107.706 84.1136 107.356 84.1136ZM107.47 83.3608C107.806 83.3608 108.09 83.2732 108.322 83.098C108.554 82.9205 108.73 82.6754 108.851 82.3629C108.972 82.0481 109.032 81.6847 109.032 81.2727C109.032 80.8655 108.973 80.5092 108.855 80.2038C108.736 79.8961 108.561 79.657 108.329 79.4865C108.097 79.3137 107.811 79.2273 107.47 79.2273C107.115 79.2273 106.819 79.3184 106.582 79.5007C106.347 79.6806 106.171 79.9257 106.053 80.2358C105.937 80.5436 105.879 80.8892 105.879 81.2727C105.879 81.661 105.938 82.0137 106.056 82.331C106.177 82.6458 106.355 82.8968 106.589 83.0838C106.826 83.2685 107.119 83.3608 107.47 83.3608ZM111.507 84V78.5455H112.317V79.3693H112.374C112.473 79.0994 112.653 78.8804 112.914 78.7124C113.174 78.5443 113.468 78.4602 113.794 78.4602C113.856 78.4602 113.933 78.4614 114.025 78.4638C114.117 78.4661 114.187 78.4697 114.235 78.4744V79.3267C114.206 79.3196 114.141 79.3089 114.039 79.2947C113.94 79.2782 113.834 79.2699 113.723 79.2699C113.458 79.2699 113.221 79.3255 113.013 79.4368C112.807 79.5457 112.644 79.6972 112.523 79.8913C112.405 80.0831 112.345 80.3021 112.345 80.5483V84H111.507ZM117.349 84.1136C116.823 84.1136 116.37 83.9976 115.989 83.7656C115.61 83.5312 115.318 83.2045 115.112 82.7855C114.908 82.3641 114.806 81.8741 114.806 81.3153C114.806 80.7566 114.908 80.2642 115.112 79.8381C115.318 79.4096 115.604 79.0758 115.971 78.8366C116.34 78.5952 116.771 78.4744 117.264 78.4744C117.548 78.4744 117.828 78.5218 118.105 78.6165C118.382 78.7112 118.634 78.8651 118.862 79.0781C119.089 79.2888 119.27 79.5682 119.405 79.9162C119.54 80.2642 119.607 80.6927 119.607 81.2017V81.5568H115.403V80.8324H118.755C118.755 80.5246 118.694 80.25 118.57 80.0085C118.45 79.767 118.277 79.5765 118.052 79.4368C117.829 79.2971 117.567 79.2273 117.264 79.2273C116.93 79.2273 116.641 79.3101 116.397 79.4759C116.156 79.6392 115.97 79.8523 115.84 80.1151C115.709 80.3778 115.644 80.6596 115.644 80.9602V81.4432C115.644 81.8551 115.715 82.2043 115.857 82.4908C116.002 82.7749 116.202 82.9915 116.458 83.1406C116.713 83.2874 117.01 83.3608 117.349 83.3608C117.569 83.3608 117.768 83.33 117.945 83.2685C118.125 83.2045 118.28 83.1098 118.411 82.9844C118.541 82.8565 118.642 82.6979 118.713 82.5085L119.522 82.7358C119.437 83.0104 119.294 83.2519 119.093 83.4602C118.891 83.6662 118.643 83.8272 118.347 83.9432C118.051 84.0568 117.718 84.1136 117.349 84.1136ZM124.746 79.767L123.993 79.9801C123.946 79.8546 123.876 79.7327 123.784 79.6143C123.694 79.4936 123.57 79.3942 123.414 79.3161C123.258 79.2379 123.058 79.1989 122.814 79.1989C122.48 79.1989 122.202 79.2758 121.98 79.4297C121.759 79.5812 121.649 79.7741 121.649 80.0085C121.649 80.2169 121.725 80.3814 121.877 80.5021C122.028 80.6229 122.265 80.7235 122.587 80.804L123.396 81.0028C123.884 81.1212 124.248 81.3023 124.487 81.5462C124.726 81.7876 124.845 82.099 124.845 82.4801C124.845 82.7926 124.755 83.072 124.575 83.3182C124.398 83.5644 124.149 83.7585 123.83 83.9006C123.51 84.0426 123.138 84.1136 122.715 84.1136C122.158 84.1136 121.698 83.9929 121.333 83.7514C120.969 83.5099 120.738 83.1572 120.641 82.6932L121.436 82.4943C121.512 82.7879 121.655 83.008 121.866 83.1548C122.079 83.3016 122.357 83.375 122.7 83.375C123.091 83.375 123.401 83.2921 123.631 83.1264C123.863 82.9583 123.979 82.7571 123.979 82.5227C123.979 82.3333 123.913 82.1747 123.78 82.0469C123.647 81.9167 123.444 81.8196 123.169 81.7557L122.26 81.5426C121.761 81.4242 121.394 81.2408 121.159 80.9922C120.927 80.7412 120.811 80.4276 120.811 80.0511C120.811 79.7434 120.898 79.4711 121.07 79.2344C121.246 78.9976 121.484 78.8118 121.784 78.6768C122.087 78.5419 122.431 78.4744 122.814 78.4744C123.354 78.4744 123.778 78.5928 124.085 78.8295C124.396 79.0663 124.616 79.3788 124.746 79.767ZM129.971 79.767L129.218 79.9801C129.17 79.8546 129.1 79.7327 129.008 79.6143C128.918 79.4936 128.795 79.3942 128.639 79.3161C128.483 79.2379 128.283 79.1989 128.039 79.1989C127.705 79.1989 127.427 79.2758 127.204 79.4297C126.984 79.5812 126.874 79.7741 126.874 80.0085C126.874 80.2169 126.95 80.3814 127.101 80.5021C127.253 80.6229 127.489 80.7235 127.811 80.804L128.621 81.0028C129.109 81.1212 129.472 81.3023 129.711 81.5462C129.95 81.7876 130.07 82.099 130.07 82.4801C130.07 82.7926 129.98 83.072 129.8 83.3182C129.623 83.5644 129.374 83.7585 129.054 83.9006C128.735 84.0426 128.363 84.1136 127.939 84.1136C127.383 84.1136 126.922 83.9929 126.558 83.7514C126.193 83.5099 125.962 83.1572 125.865 82.6932L126.661 82.4943C126.737 82.7879 126.88 83.008 127.091 83.1548C127.304 83.3016 127.582 83.375 127.925 83.375C128.316 83.375 128.626 83.2921 128.855 83.1264C129.087 82.9583 129.203 82.7571 129.203 82.5227C129.203 82.3333 129.137 82.1747 129.005 82.0469C128.872 81.9167 128.668 81.8196 128.394 81.7557L127.485 81.5426C126.985 81.4242 126.618 81.2408 126.384 80.9922C126.152 80.7412 126.036 80.4276 126.036 80.0511C126.036 79.7434 126.122 79.4711 126.295 79.2344C126.47 78.9976 126.708 78.8118 127.009 78.6768C127.312 78.5419 127.655 78.4744 128.039 78.4744C128.578 78.4744 129.002 78.5928 129.31 78.8295C129.62 79.0663 129.84 79.3788 129.971 79.767Z" fill="#3F4346"/>
<path d="M54.8267 53H52.4972L57.7315 38.4545H60.267L65.5014 53H63.1719L59.0597 41.0966H58.946L54.8267 53ZM55.2173 47.304H62.7741V49.1506H55.2173V47.304ZM71.3395 53.2131C70.4588 53.2131 69.6728 52.9882 68.9815 52.5384C68.295 52.0838 67.7552 51.4375 67.3622 50.5994C66.974 49.7566 66.7798 48.7457 66.7798 47.5668C66.7798 46.3878 66.9763 45.3793 67.3693 44.5412C67.767 43.7031 68.3116 43.0616 69.0028 42.6165C69.6941 42.1714 70.4777 41.9489 71.3537 41.9489C72.0308 41.9489 72.5753 42.0625 72.9872 42.2898C73.4039 42.5123 73.7259 42.7727 73.9531 43.071C74.1851 43.3693 74.3651 43.6321 74.4929 43.8594H74.6207V38.4545H76.7443V53H74.6705V51.3026H74.4929C74.3651 51.5346 74.1804 51.7997 73.9389 52.098C73.7022 52.3963 73.3755 52.6567 72.9588 52.8793C72.5421 53.1018 72.0024 53.2131 71.3395 53.2131ZM71.8082 51.402C72.419 51.402 72.9351 51.241 73.3565 50.919C73.7827 50.5923 74.1046 50.1402 74.3224 49.5625C74.545 48.9848 74.6562 48.3125 74.6562 47.5455C74.6562 46.7879 74.5473 46.125 74.3295 45.5568C74.1117 44.9886 73.7921 44.5459 73.3707 44.2287C72.9493 43.9115 72.4285 43.7528 71.8082 43.7528C71.169 43.7528 70.6364 43.9186 70.2102 44.25C69.7841 44.5814 69.4621 45.0336 69.2443 45.6065C69.0313 46.1795 68.9247 46.8258 68.9247 47.5455C68.9247 48.2746 69.0336 48.9304 69.2514 49.5128C69.4692 50.0952 69.7912 50.5568 70.2173 50.8977C70.6482 51.2339 71.1785 51.402 71.8082 51.402ZM83.859 53.2131C82.9783 53.2131 82.1924 52.9882 81.5011 52.5384C80.8145 52.0838 80.2747 51.4375 79.8817 50.5994C79.4935 49.7566 79.2994 48.7457 79.2994 47.5668C79.2994 46.3878 79.4959 45.3793 79.8888 44.5412C80.2866 43.7031 80.8311 43.0616 81.5224 42.6165C82.2137 42.1714 82.9973 41.9489 83.8732 41.9489C84.5503 41.9489 85.0948 42.0625 85.5067 42.2898C85.9234 42.5123 86.2454 42.7727 86.4727 43.071C86.7047 43.3693 86.8846 43.6321 87.0124 43.8594H87.1403V38.4545H89.2638V53H87.19V51.3026H87.0124C86.8846 51.5346 86.6999 51.7997 86.4585 52.098C86.2217 52.3963 85.895 52.6567 85.4783 52.8793C85.0617 53.1018 84.5219 53.2131 83.859 53.2131ZM84.3278 51.402C84.9386 51.402 85.4547 51.241 85.8761 50.919C86.3022 50.5923 86.6242 50.1402 86.842 49.5625C87.0645 48.9848 87.1758 48.3125 87.1758 47.5455C87.1758 46.7879 87.0669 46.125 86.8491 45.5568C86.6313 44.9886 86.3117 44.5459 85.8903 44.2287C85.4689 43.9115 84.948 43.7528 84.3278 43.7528C83.6886 43.7528 83.1559 43.9186 82.7298 44.25C82.3036 44.5814 81.9817 45.0336 81.7638 45.6065C81.5508 46.1795 81.4442 46.8258 81.4442 47.5455C81.4442 48.2746 81.5531 48.9304 81.771 49.5128C81.9888 50.0952 82.3107 50.5568 82.7369 50.8977C83.1677 51.2339 83.698 51.402 84.3278 51.402ZM99.9528 38.4545V53H97.7582V38.4545H99.9528ZM103.149 53V38.4545H108.333C109.465 38.4545 110.403 38.6605 111.146 39.0724C111.889 39.4844 112.446 40.0478 112.815 40.7628C113.184 41.473 113.369 42.2732 113.369 43.1634C113.369 44.0582 113.182 44.8632 112.808 45.5781C112.439 46.2884 111.88 46.8518 111.132 47.2685C110.388 47.6804 109.453 47.8864 108.326 47.8864H104.761V46.0256H108.127C108.842 46.0256 109.422 45.9025 109.868 45.6562C110.313 45.4053 110.639 45.0644 110.848 44.6335C111.056 44.2027 111.16 43.7126 111.16 43.1634C111.16 42.6141 111.056 42.1264 110.848 41.7003C110.639 41.2741 110.31 40.9403 109.86 40.6989C109.415 40.4574 108.828 40.3366 108.099 40.3366H105.343V53H103.149ZM122.463 53H120.134L125.368 38.4545H127.904L133.138 53H130.809L126.696 41.0966H126.583L122.463 53ZM122.854 47.304H130.411V49.1506H122.854V47.304ZM138.976 53.2131C138.096 53.2131 137.31 52.9882 136.618 52.5384C135.932 52.0838 135.392 51.4375 134.999 50.5994C134.611 49.7566 134.417 48.7457 134.417 47.5668C134.417 46.3878 134.613 45.3793 135.006 44.5412C135.404 43.7031 135.948 43.0616 136.64 42.6165C137.331 42.1714 138.114 41.9489 138.99 41.9489C139.667 41.9489 140.212 42.0625 140.624 42.2898C141.041 42.5123 141.363 42.7727 141.59 43.071C141.822 43.3693 142.002 43.6321 142.13 43.8594H142.257V38.4545H144.381V53H142.307V51.3026H142.13C142.002 51.5346 141.817 51.7997 141.576 52.098C141.339 52.3963 141.012 52.6567 140.596 52.8793C140.179 53.1018 139.639 53.2131 138.976 53.2131ZM139.445 51.402C140.056 51.402 140.572 51.241 140.993 50.919C141.419 50.5923 141.741 50.1402 141.959 49.5625C142.182 48.9848 142.293 48.3125 142.293 47.5455C142.293 46.7879 142.184 46.125 141.966 45.5568C141.748 44.9886 141.429 44.5459 141.007 44.2287C140.586 43.9115 140.065 43.7528 139.445 43.7528C138.806 43.7528 138.273 43.9186 137.847 44.25C137.421 44.5814 137.099 45.0336 136.881 45.6065C136.668 46.1795 136.561 46.8258 136.561 47.5455C136.561 48.2746 136.67 48.9304 136.888 49.5128C137.106 50.0952 137.428 50.5568 137.854 50.8977C138.285 51.2339 138.815 51.402 139.445 51.402ZM151.496 53.2131C150.615 53.2131 149.829 52.9882 149.138 52.5384C148.451 52.0838 147.911 51.4375 147.518 50.5994C147.13 49.7566 146.936 48.7457 146.936 47.5668C146.936 46.3878 147.133 45.3793 147.526 44.5412C147.923 43.7031 148.468 43.0616 149.159 42.6165C149.85 42.1714 150.634 41.9489 151.51 41.9489C152.187 41.9489 152.732 42.0625 153.143 42.2898C153.56 42.5123 153.882 42.7727 154.109 43.071C154.341 43.3693 154.521 43.6321 154.649 43.8594H154.777V38.4545H156.901V53H154.827V51.3026H154.649C154.521 51.5346 154.337 51.7997 154.095 52.098C153.858 52.3963 153.532 52.6567 153.115 52.8793C152.698 53.1018 152.159 53.2131 151.496 53.2131ZM151.964 51.402C152.575 51.402 153.091 51.241 153.513 50.919C153.939 50.5923 154.261 50.1402 154.479 49.5625C154.701 48.9848 154.812 48.3125 154.812 47.5455C154.812 46.7879 154.704 46.125 154.486 45.5568C154.268 44.9886 153.948 44.5459 153.527 44.2287C153.106 43.9115 152.585 43.7528 151.964 43.7528C151.325 43.7528 150.793 43.9186 150.366 44.25C149.94 44.5814 149.618 45.0336 149.401 45.6065C149.188 46.1795 149.081 46.8258 149.081 47.5455C149.081 48.2746 149.19 48.9304 149.408 49.5128C149.625 50.0952 149.947 50.5568 150.374 50.8977C150.804 51.2339 151.335 51.402 151.964 51.402ZM159.931 53V42.0909H161.984V43.8239H162.098C162.297 43.2367 162.647 42.7751 163.149 42.4389C163.655 42.098 164.228 41.9276 164.868 41.9276C165 41.9276 165.156 41.9323 165.336 41.9418C165.521 41.9512 165.665 41.9631 165.77 41.9773V44.0085C165.684 43.9848 165.533 43.9588 165.315 43.9304C165.097 43.8973 164.879 43.8807 164.662 43.8807C164.16 43.8807 163.712 43.9872 163.319 44.2003C162.931 44.4086 162.623 44.6998 162.396 45.0739C162.169 45.4432 162.055 45.8646 162.055 46.3381V53H159.931ZM171.918 53.2202C170.844 53.2202 169.918 52.9905 169.141 52.5312C168.37 52.0672 167.773 51.4162 167.352 50.5781C166.935 49.7353 166.727 48.7481 166.727 47.6165C166.727 46.4991 166.935 45.5142 167.352 44.6619C167.773 43.8097 168.36 43.1444 169.113 42.6662C169.871 42.188 170.756 41.9489 171.769 41.9489C172.385 41.9489 172.981 42.0507 173.559 42.2543C174.137 42.4579 174.655 42.7775 175.114 43.2131C175.574 43.6487 175.936 44.2145 176.201 44.9105C176.466 45.6018 176.599 46.4422 176.599 47.4318V48.1847H167.927V46.5938H174.518C174.518 46.035 174.404 45.5402 174.177 45.1094C173.95 44.6738 173.63 44.3305 173.218 44.0795C172.811 43.8286 172.333 43.7031 171.783 43.7031C171.187 43.7031 170.666 43.8499 170.221 44.1435C169.781 44.4323 169.44 44.8111 169.198 45.2798C168.961 45.7438 168.843 46.2481 168.843 46.7926V48.0355C168.843 48.7647 168.971 49.3849 169.227 49.8963C169.487 50.4077 169.849 50.7983 170.313 51.0682C170.777 51.3333 171.319 51.4659 171.94 51.4659C172.342 51.4659 172.709 51.4091 173.04 51.2955C173.372 51.1771 173.658 51.0019 173.9 50.7699C174.141 50.5379 174.326 50.2514 174.454 49.9105L176.464 50.2727C176.303 50.8646 176.014 51.383 175.597 51.8281C175.185 52.2685 174.667 52.6117 174.042 52.858C173.422 53.0994 172.714 53.2202 171.918 53.2202ZM187.13 44.7543L185.205 45.0952C185.124 44.849 184.997 44.6146 184.821 44.392C184.651 44.1695 184.419 43.9872 184.125 43.8452C183.832 43.7031 183.465 43.6321 183.025 43.6321C182.423 43.6321 181.921 43.767 181.519 44.0369C181.116 44.3021 180.915 44.6454 180.915 45.0668C180.915 45.4313 181.05 45.7249 181.32 45.9474C181.59 46.17 182.025 46.3523 182.627 46.4943L184.36 46.892C185.364 47.1241 186.112 47.4815 186.604 47.9645C187.096 48.4474 187.343 49.0748 187.343 49.8466C187.343 50.5 187.153 51.0824 186.775 51.5938C186.4 52.1004 185.877 52.4981 185.205 52.7869C184.537 53.0758 183.763 53.2202 182.882 53.2202C181.661 53.2202 180.664 52.9598 179.892 52.4389C179.121 51.9134 178.647 51.1676 178.472 50.2017L180.525 49.8892C180.652 50.4242 180.915 50.8291 181.313 51.1037C181.711 51.3736 182.229 51.5085 182.868 51.5085C183.564 51.5085 184.121 51.3641 184.537 51.0753C184.954 50.7817 185.162 50.4242 185.162 50.0028C185.162 49.6619 185.034 49.3755 184.779 49.1435C184.528 48.9115 184.142 48.7363 183.621 48.6179L181.775 48.2131C180.757 47.9811 180.004 47.6117 179.516 47.1051C179.033 46.5985 178.792 45.9569 178.792 45.1804C178.792 44.5365 178.971 43.973 179.331 43.4901C179.691 43.0071 180.188 42.6307 180.823 42.3608C181.457 42.0862 182.184 41.9489 183.003 41.9489C184.182 41.9489 185.11 42.2045 185.787 42.7159C186.464 43.2225 186.912 43.902 187.13 44.7543ZM197.852 44.7543L195.928 45.0952C195.847 44.849 195.719 44.6146 195.544 44.392C195.374 44.1695 195.142 43.9872 194.848 43.8452C194.554 43.7031 194.188 43.6321 193.747 43.6321C193.146 43.6321 192.644 43.767 192.241 44.0369C191.839 44.3021 191.638 44.6454 191.638 45.0668C191.638 45.4313 191.773 45.7249 192.043 45.9474C192.313 46.17 192.748 46.3523 193.349 46.4943L195.082 46.892C196.086 47.1241 196.834 47.4815 197.327 47.9645C197.819 48.4474 198.065 49.0748 198.065 49.8466C198.065 50.5 197.876 51.0824 197.497 51.5938C197.123 52.1004 196.6 52.4981 195.928 52.7869C195.26 53.0758 194.486 53.2202 193.605 53.2202C192.384 53.2202 191.387 52.9598 190.615 52.4389C189.843 51.9134 189.37 51.1676 189.195 50.2017L191.247 49.8892C191.375 50.4242 191.638 50.8291 192.036 51.1037C192.433 51.3736 192.952 51.5085 193.591 51.5085C194.287 51.5085 194.843 51.3641 195.26 51.0753C195.677 50.7817 195.885 50.4242 195.885 50.0028C195.885 49.6619 195.757 49.3755 195.501 49.1435C195.25 48.9115 194.865 48.7363 194.344 48.6179L192.497 48.2131C191.479 47.9811 190.726 47.6117 190.239 47.1051C189.756 46.5985 189.514 45.9569 189.514 45.1804C189.514 44.5365 189.694 43.973 190.054 43.4901C190.414 43.0071 190.911 42.6307 191.545 42.3608C192.18 42.0862 192.907 41.9489 193.726 41.9489C194.905 41.9489 195.833 42.2045 196.51 42.7159C197.187 43.2225 197.634 43.902 197.852 44.7543Z" fill="#3F4346"/>
<path d="M109 404C109 404 149 384 149 354V319L109 304L69 319V354C69 384 109 404 109 404Z" fill="#DBEAF6" stroke="#3A73B5" stroke-width="4.02463" stroke-linecap="round" stroke-linejoin="round"/>
<path d="M121.374 347.384H96.6263C94.6738 347.384 93.0909 348.967 93.0909 350.919V363.293C93.0909 365.246 94.6738 366.828 96.6263 366.828H121.374C123.326 366.828 124.909 365.246 124.909 363.293V350.919C124.909 348.967 123.326 347.384 121.374 347.384Z" fill="white" stroke="#3A73B5" stroke-width="4.02463" stroke-linecap="round" stroke-linejoin="round"/>
<path d="M101.121 345.429V340.33C101.121 338.008 101.951 335.782 103.429 334.14C104.906 332.498 106.91 331.576 109 331.576C111.09 331.576 113.094 332.498 114.571 334.14C116.049 335.782 116.879 338.008 116.879 340.33V345.429" fill="white"/>
<path d="M101.121 345.429V340.33C101.121 338.008 101.951 335.782 103.429 334.14C104.906 332.498 106.91 331.576 109 331.576C111.09 331.576 113.094 332.498 114.571 334.14C116.049 335.782 116.879 338.008 116.879 340.33V345.429" stroke="#3A73B5" stroke-width="4.02463" stroke-linecap="round" stroke-linejoin="round"/>
<g filter="url(#filter2_d_2077_28742)">
<g clip-path="url(#clip1_2077_28742)">
<path d="M206 202C206 197.582 209.582 194 214 194H498C502.418 194 506 197.582 506 202V406C506 410.418 502.418 414 498 414H214C209.582 414 206 410.418 206 406V202Z" fill="white"/>
<path d="M219.651 221H218.358L222.097 210.818H223.369L227.108 221H225.815L222.773 212.429H222.693L219.651 221ZM220.128 217.023H225.338V218.116H220.128V217.023ZM229.708 210.818V221H228.535V210.818H229.708ZM233.03 210.818V221H231.857V210.818H233.03Z" fill="#3F4346"/>
<path d="M227.307 254.818V265H226.114L220.565 257.006H220.466V265H219.233V254.818H220.426L225.994 262.832H226.094V254.818H227.307ZM232.717 265.159C232.028 265.159 231.423 264.995 230.903 264.667C230.385 264.339 229.981 263.88 229.689 263.29C229.401 262.7 229.257 262.01 229.257 261.222C229.257 260.426 229.401 259.732 229.689 259.138C229.981 258.545 230.385 258.085 230.903 257.756C231.423 257.428 232.028 257.264 232.717 257.264C233.407 257.264 234.01 257.428 234.527 257.756C235.047 258.085 235.452 258.545 235.74 259.138C236.032 259.732 236.177 260.426 236.177 261.222C236.177 262.01 236.032 262.7 235.74 263.29C235.452 263.88 235.047 264.339 234.527 264.667C234.01 264.995 233.407 265.159 232.717 265.159ZM232.717 264.105C233.241 264.105 233.672 263.971 234.01 263.702C234.348 263.434 234.598 263.081 234.76 262.643C234.923 262.206 235.004 261.732 235.004 261.222C235.004 260.711 234.923 260.236 234.76 259.795C234.598 259.354 234.348 258.998 234.01 258.726C233.672 258.454 233.241 258.318 232.717 258.318C232.193 258.318 231.763 258.454 231.425 258.726C231.086 258.998 230.836 259.354 230.674 259.795C230.511 260.236 230.43 260.711 230.43 261.222C230.43 261.732 230.511 262.206 230.674 262.643C230.836 263.081 231.086 263.434 231.425 263.702C231.763 263.971 232.193 264.105 232.717 264.105ZM237.968 265V257.364H239.102V258.517H239.181C239.321 258.139 239.573 257.833 239.937 257.597C240.302 257.362 240.713 257.244 241.17 257.244C241.256 257.244 241.364 257.246 241.493 257.249C241.623 257.253 241.72 257.258 241.787 257.264V258.457C241.747 258.447 241.656 258.433 241.513 258.413C241.374 258.389 241.226 258.378 241.071 258.378C240.699 258.378 240.368 258.456 240.076 258.612C239.788 258.764 239.559 258.976 239.39 259.248C239.225 259.516 239.142 259.823 239.142 260.168V265H237.968ZM243.177 265V257.364H244.311V258.557H244.41C244.569 258.149 244.826 257.833 245.181 257.607C245.536 257.379 245.961 257.264 246.459 257.264C246.962 257.264 247.382 257.379 247.716 257.607C248.055 257.833 248.318 258.149 248.507 258.557H248.586C248.782 258.162 249.075 257.849 249.466 257.617C249.858 257.382 250.327 257.264 250.873 257.264C251.556 257.264 252.115 257.478 252.549 257.906C252.983 258.33 253.2 258.991 253.2 259.889V265H252.027V259.889C252.027 259.326 251.873 258.923 251.564 258.681C251.256 258.439 250.893 258.318 250.476 258.318C249.939 258.318 249.523 258.481 249.228 258.805C248.933 259.127 248.785 259.535 248.785 260.028V265H247.592V259.77C247.592 259.336 247.451 258.986 247.17 258.721C246.888 258.452 246.525 258.318 246.081 258.318C245.776 258.318 245.491 258.399 245.226 258.562C244.964 258.724 244.752 258.95 244.589 259.238C244.43 259.523 244.351 259.853 244.351 260.227V265H243.177ZM257.593 265.179C257.109 265.179 256.669 265.088 256.275 264.906C255.881 264.72 255.567 264.453 255.335 264.105C255.103 263.754 254.987 263.33 254.987 262.832C254.987 262.395 255.074 262.04 255.246 261.768C255.418 261.493 255.649 261.278 255.937 261.122C256.225 260.966 256.544 260.85 256.892 260.774C257.243 260.695 257.596 260.632 257.95 260.585C258.414 260.526 258.791 260.481 259.079 260.451C259.371 260.418 259.583 260.363 259.715 260.287C259.851 260.211 259.919 260.078 259.919 259.889V259.849C259.919 259.359 259.785 258.978 259.517 258.706C259.251 258.434 258.849 258.298 258.308 258.298C257.748 258.298 257.309 258.421 256.991 258.666C256.673 258.911 256.449 259.173 256.32 259.452L255.206 259.054C255.405 258.59 255.67 258.229 256.002 257.97C256.336 257.708 256.701 257.526 257.095 257.423C257.493 257.317 257.884 257.264 258.269 257.264C258.514 257.264 258.796 257.294 259.114 257.354C259.435 257.41 259.745 257.528 260.044 257.707C260.345 257.886 260.595 258.156 260.794 258.517C260.993 258.878 261.093 259.362 261.093 259.969V265H259.919V263.966H259.86C259.78 264.132 259.647 264.309 259.462 264.498C259.276 264.687 259.029 264.848 258.721 264.98C258.413 265.113 258.037 265.179 257.593 265.179ZM257.771 264.125C258.235 264.125 258.627 264.034 258.945 263.852C259.266 263.669 259.508 263.434 259.671 263.146C259.836 262.857 259.919 262.554 259.919 262.236V261.162C259.869 261.222 259.76 261.276 259.591 261.326C259.425 261.372 259.233 261.414 259.014 261.45C258.799 261.483 258.588 261.513 258.383 261.54C258.181 261.563 258.017 261.583 257.891 261.599C257.586 261.639 257.301 261.704 257.036 261.793C256.774 261.879 256.562 262.01 256.399 262.186C256.24 262.358 256.161 262.594 256.161 262.892C256.161 263.3 256.311 263.608 256.613 263.817C256.918 264.022 257.304 264.125 257.771 264.125ZM264.407 254.818V265H263.234V254.818H264.407Z" fill="#3F4346"/>
<rect width="300" height="44" transform="translate(206 282)" fill="#4DA0FF" fill-opacity="0.16"/>
<path d="M221.082 309L218.298 298.818H219.551L221.679 307.111H221.778L223.946 298.818H225.338L227.506 307.111H227.605L229.733 298.818H230.986L228.202 309H226.929L224.682 300.886H224.602L222.355 309H221.082ZM233.536 304.406V309H232.363V298.818H233.536V302.557H233.636C233.815 302.162 234.083 301.849 234.441 301.617C234.802 301.382 235.283 301.264 235.883 301.264C236.403 301.264 236.859 301.369 237.25 301.577C237.641 301.783 237.944 302.099 238.16 302.527C238.379 302.951 238.488 303.491 238.488 304.148V309H237.315V304.227C237.315 303.621 237.157 303.152 236.842 302.82C236.531 302.486 236.098 302.318 235.545 302.318C235.16 302.318 234.816 302.399 234.511 302.562C234.209 302.724 233.97 302.961 233.795 303.273C233.622 303.584 233.536 303.962 233.536 304.406ZM240.634 309V301.364H241.808V309H240.634ZM241.231 300.091C241.002 300.091 240.805 300.013 240.639 299.857C240.477 299.701 240.396 299.514 240.396 299.295C240.396 299.077 240.477 298.889 240.639 298.734C240.805 298.578 241.002 298.5 241.231 298.5C241.46 298.5 241.655 298.578 241.818 298.734C241.983 298.889 242.066 299.077 242.066 299.295C242.066 299.514 241.983 299.701 241.818 299.857C241.655 300.013 241.46 300.091 241.231 300.091ZM247.278 301.364V302.358H243.32V301.364H247.278ZM244.474 299.534H245.647V306.812C245.647 307.144 245.695 307.393 245.791 307.558C245.891 307.721 246.017 307.83 246.169 307.886C246.325 307.939 246.489 307.966 246.661 307.966C246.79 307.966 246.897 307.959 246.979 307.946C247.062 307.929 247.129 307.916 247.178 307.906L247.417 308.96C247.337 308.99 247.226 309.02 247.084 309.05C246.941 309.083 246.761 309.099 246.542 309.099C246.21 309.099 245.886 309.028 245.567 308.886C245.253 308.743 244.991 308.526 244.782 308.234C244.576 307.943 244.474 307.575 244.474 307.131V299.534ZM252.162 309.159C251.426 309.159 250.792 308.997 250.258 308.672C249.728 308.344 249.319 307.886 249.03 307.3C248.745 306.71 248.603 306.024 248.603 305.241C248.603 304.459 248.745 303.77 249.03 303.173C249.319 302.573 249.72 302.106 250.233 301.771C250.75 301.433 251.354 301.264 252.043 301.264C252.441 301.264 252.833 301.33 253.221 301.463C253.609 301.596 253.962 301.811 254.28 302.109C254.598 302.404 254.852 302.795 255.041 303.283C255.23 303.77 255.324 304.37 255.324 305.082V305.58H249.438V304.565H254.131C254.131 304.134 254.045 303.75 253.873 303.412C253.703 303.074 253.462 302.807 253.147 302.612C252.835 302.416 252.467 302.318 252.043 302.318C251.576 302.318 251.171 302.434 250.83 302.666C250.492 302.895 250.232 303.193 250.049 303.561C249.867 303.929 249.776 304.323 249.776 304.744V305.42C249.776 305.997 249.875 306.486 250.074 306.887C250.276 307.285 250.556 307.588 250.914 307.797C251.272 308.002 251.688 308.105 252.162 308.105C252.471 308.105 252.749 308.062 252.998 307.976C253.249 307.886 253.467 307.754 253.649 307.578C253.831 307.399 253.972 307.177 254.071 306.912L255.205 307.23C255.086 307.615 254.885 307.953 254.603 308.244C254.322 308.533 253.974 308.758 253.559 308.92C253.145 309.08 252.679 309.159 252.162 309.159ZM258.282 298.818V309H257.109V298.818H258.282ZM260.431 309V301.364H261.605V309H260.431ZM261.028 300.091C260.799 300.091 260.602 300.013 260.436 299.857C260.274 299.701 260.193 299.514 260.193 299.295C260.193 299.077 260.274 298.889 260.436 298.734C260.602 298.578 260.799 298.5 261.028 298.5C261.257 298.5 261.452 298.578 261.615 298.734C261.78 298.889 261.863 299.077 261.863 299.295C261.863 299.514 261.78 299.701 261.615 299.857C261.452 300.013 261.257 300.091 261.028 300.091ZM269.163 303.074L268.109 303.372C268.042 303.196 267.945 303.026 267.815 302.86C267.689 302.691 267.517 302.552 267.298 302.442C267.08 302.333 266.799 302.278 266.458 302.278C265.991 302.278 265.601 302.386 265.29 302.602C264.982 302.814 264.827 303.084 264.827 303.412C264.827 303.704 264.933 303.934 265.146 304.103C265.358 304.272 265.689 304.413 266.14 304.526L267.273 304.804C267.956 304.97 268.465 305.223 268.8 305.565C269.134 305.903 269.302 306.339 269.302 306.872C269.302 307.31 269.176 307.701 268.924 308.045C268.675 308.39 268.327 308.662 267.88 308.861C267.433 309.06 266.912 309.159 266.319 309.159C265.54 309.159 264.895 308.99 264.385 308.652C263.875 308.314 263.551 307.82 263.415 307.17L264.529 306.892C264.635 307.303 264.836 307.611 265.131 307.817C265.429 308.022 265.818 308.125 266.299 308.125C266.846 308.125 267.28 308.009 267.602 307.777C267.926 307.542 268.089 307.26 268.089 306.932C268.089 306.667 267.996 306.445 267.81 306.266C267.625 306.083 267.34 305.947 266.955 305.858L265.683 305.56C264.983 305.394 264.469 305.137 264.141 304.789C263.817 304.438 263.654 303.999 263.654 303.472C263.654 303.041 263.775 302.66 264.017 302.328C264.262 301.997 264.595 301.737 265.016 301.548C265.441 301.359 265.921 301.264 266.458 301.264C267.214 301.264 267.807 301.43 268.238 301.761C268.672 302.093 268.98 302.53 269.163 303.074ZM274.389 301.364V302.358H270.432V301.364H274.389ZM271.585 299.534H272.758V306.812C272.758 307.144 272.806 307.393 272.903 307.558C273.002 307.721 273.128 307.83 273.28 307.886C273.436 307.939 273.6 307.966 273.773 307.966C273.902 307.966 274.008 307.959 274.091 307.946C274.174 307.929 274.24 307.916 274.29 307.906L274.528 308.96C274.449 308.99 274.338 309.02 274.195 309.05C274.053 309.083 273.872 309.099 273.653 309.099C273.322 309.099 272.997 309.028 272.679 308.886C272.364 308.743 272.102 308.526 271.893 308.234C271.688 307.943 271.585 307.575 271.585 307.131V299.534ZM279.274 309.159C278.538 309.159 277.903 308.997 277.369 308.672C276.839 308.344 276.43 307.886 276.142 307.3C275.856 306.71 275.714 306.024 275.714 305.241C275.714 304.459 275.856 303.77 276.142 303.173C276.43 302.573 276.831 302.106 277.345 301.771C277.862 301.433 278.465 301.264 279.154 301.264C279.552 301.264 279.945 301.33 280.333 301.463C280.72 301.596 281.073 301.811 281.392 302.109C281.71 302.404 281.963 302.795 282.152 303.283C282.341 303.77 282.436 304.37 282.436 305.082V305.58H276.549V304.565H281.242C281.242 304.134 281.156 303.75 280.984 303.412C280.815 303.074 280.573 302.807 280.258 302.612C279.946 302.416 279.579 302.318 279.154 302.318C278.687 302.318 278.283 302.434 277.941 302.666C277.603 302.895 277.343 303.193 277.161 303.561C276.978 303.929 276.887 304.323 276.887 304.744V305.42C276.887 305.997 276.987 306.486 277.186 306.887C277.388 307.285 277.668 307.588 278.026 307.797C278.384 308.002 278.8 308.105 279.274 308.105C279.582 308.105 279.86 308.062 280.109 307.976C280.361 307.886 280.578 307.754 280.76 307.578C280.942 307.399 281.083 307.177 281.183 306.912L282.316 307.23C282.197 307.615 281.996 307.953 281.715 308.244C281.433 308.533 281.085 308.758 280.671 308.92C280.256 309.08 279.791 309.159 279.274 309.159ZM287.104 309.159C286.468 309.159 285.906 308.998 285.419 308.677C284.931 308.352 284.55 307.895 284.275 307.305C284 306.711 283.862 306.01 283.862 305.202C283.862 304.4 284 303.704 284.275 303.114C284.55 302.524 284.933 302.068 285.423 301.746C285.914 301.425 286.481 301.264 287.124 301.264C287.621 301.264 288.014 301.347 288.302 301.513C288.594 301.675 288.816 301.861 288.968 302.07C289.124 302.275 289.245 302.444 289.331 302.577H289.431V298.818H290.604V309H289.47V307.827H289.331C289.245 307.966 289.122 308.142 288.963 308.354C288.804 308.562 288.577 308.75 288.282 308.915C287.987 309.078 287.594 309.159 287.104 309.159ZM287.263 308.105C287.734 308.105 288.131 307.982 288.456 307.737C288.781 307.489 289.028 307.146 289.197 306.708C289.366 306.267 289.45 305.759 289.45 305.182C289.45 304.612 289.368 304.113 289.202 303.685C289.036 303.254 288.791 302.92 288.466 302.681C288.141 302.439 287.74 302.318 287.263 302.318C286.766 302.318 286.352 302.446 286.02 302.701C285.692 302.953 285.445 303.296 285.279 303.73C285.117 304.161 285.036 304.645 285.036 305.182C285.036 305.725 285.119 306.219 285.284 306.663C285.453 307.104 285.702 307.455 286.03 307.717C286.361 307.976 286.772 308.105 287.263 308.105Z" fill="#3F4346"/>
<path d="M218.676 343.912V342.818H226.312V343.912H223.111V353H221.878V343.912H218.676ZM230.151 353.159C229.415 353.159 228.78 352.997 228.246 352.672C227.716 352.344 227.307 351.886 227.018 351.3C226.733 350.71 226.591 350.024 226.591 349.241C226.591 348.459 226.733 347.77 227.018 347.173C227.307 346.573 227.708 346.106 228.222 345.771C228.739 345.433 229.342 345.264 230.031 345.264C230.429 345.264 230.822 345.33 231.21 345.463C231.597 345.596 231.95 345.811 232.268 346.109C232.587 346.404 232.84 346.795 233.029 347.283C233.218 347.77 233.312 348.37 233.312 349.082V349.58H227.426V348.565H232.119C232.119 348.134 232.033 347.75 231.861 347.412C231.692 347.074 231.45 346.807 231.135 346.612C230.823 346.416 230.455 346.318 230.031 346.318C229.564 346.318 229.16 346.434 228.818 346.666C228.48 346.895 228.22 347.193 228.038 347.561C227.855 347.929 227.764 348.323 227.764 348.744V349.42C227.764 349.997 227.864 350.486 228.062 350.887C228.265 351.285 228.545 351.588 228.903 351.797C229.261 352.002 229.677 352.105 230.151 352.105C230.459 352.105 230.737 352.062 230.986 351.976C231.238 351.886 231.455 351.754 231.637 351.578C231.819 351.399 231.96 351.177 232.06 350.912L233.193 351.23C233.074 351.615 232.873 351.953 232.592 352.244C232.31 352.533 231.962 352.758 231.548 352.92C231.133 353.08 230.668 353.159 230.151 353.159ZM235.097 353V345.364H236.231V346.557H236.33C236.489 346.149 236.746 345.833 237.101 345.607C237.455 345.379 237.881 345.264 238.379 345.264C238.882 345.264 239.302 345.379 239.636 345.607C239.974 345.833 240.238 346.149 240.427 346.557H240.506C240.702 346.162 240.995 345.849 241.386 345.617C241.777 345.382 242.246 345.264 242.793 345.264C243.476 345.264 244.035 345.478 244.469 345.906C244.903 346.33 245.12 346.991 245.12 347.889V353H243.947V347.889C243.947 347.326 243.793 346.923 243.484 346.681C243.176 346.439 242.813 346.318 242.396 346.318C241.859 346.318 241.443 346.481 241.148 346.805C240.853 347.127 240.705 347.535 240.705 348.028V353H239.512V347.77C239.512 347.336 239.371 346.986 239.089 346.721C238.808 346.452 238.445 346.318 238.001 346.318C237.696 346.318 237.411 346.399 237.146 346.562C236.884 346.724 236.672 346.95 236.509 347.238C236.35 347.523 236.271 347.853 236.271 348.227V353H235.097ZM247.265 355.864V345.364H248.399V346.577H248.538C248.624 346.444 248.743 346.275 248.896 346.07C249.052 345.861 249.274 345.675 249.562 345.513C249.854 345.347 250.248 345.264 250.745 345.264C251.388 345.264 251.955 345.425 252.446 345.746C252.936 346.068 253.319 346.524 253.594 347.114C253.869 347.704 254.007 348.4 254.007 349.202C254.007 350.01 253.869 350.711 253.594 351.305C253.319 351.895 252.938 352.352 252.451 352.677C251.963 352.998 251.402 353.159 250.765 353.159C250.275 353.159 249.882 353.078 249.587 352.915C249.292 352.75 249.065 352.562 248.906 352.354C248.747 352.142 248.624 351.966 248.538 351.827H248.439V355.864H247.265ZM248.419 349.182C248.419 349.759 248.503 350.267 248.672 350.708C248.841 351.146 249.088 351.489 249.413 351.737C249.738 351.982 250.136 352.105 250.606 352.105C251.097 352.105 251.506 351.976 251.834 351.717C252.166 351.455 252.414 351.104 252.58 350.663C252.749 350.219 252.833 349.725 252.833 349.182C252.833 348.645 252.751 348.161 252.585 347.73C252.422 347.296 252.176 346.953 251.844 346.701C251.516 346.446 251.103 346.318 250.606 346.318C250.129 346.318 249.728 346.439 249.403 346.681C249.078 346.92 248.833 347.254 248.667 347.685C248.502 348.113 248.419 348.612 248.419 349.182ZM258.899 353.159C258.209 353.159 257.605 352.995 257.084 352.667C256.567 352.339 256.163 351.88 255.871 351.29C255.583 350.7 255.439 350.01 255.439 349.222C255.439 348.426 255.583 347.732 255.871 347.138C256.163 346.545 256.567 346.085 257.084 345.756C257.605 345.428 258.209 345.264 258.899 345.264C259.588 345.264 260.191 345.428 260.708 345.756C261.229 346.085 261.633 346.545 261.922 347.138C262.213 347.732 262.359 348.426 262.359 349.222C262.359 350.01 262.213 350.7 261.922 351.29C261.633 351.88 261.229 352.339 260.708 352.667C260.191 352.995 259.588 353.159 258.899 353.159ZM258.899 352.105C259.422 352.105 259.853 351.971 260.191 351.702C260.529 351.434 260.78 351.081 260.942 350.643C261.105 350.206 261.186 349.732 261.186 349.222C261.186 348.711 261.105 348.236 260.942 347.795C260.78 347.354 260.529 346.998 260.191 346.726C259.853 346.454 259.422 346.318 258.899 346.318C258.375 346.318 257.944 346.454 257.606 346.726C257.268 346.998 257.018 347.354 256.855 347.795C256.693 348.236 256.612 348.711 256.612 349.222C256.612 349.732 256.693 350.206 256.855 350.643C257.018 351.081 257.268 351.434 257.606 351.702C257.944 351.971 258.375 352.105 258.899 352.105ZM264.15 353V345.364H265.284V346.517H265.363C265.502 346.139 265.754 345.833 266.119 345.597C266.483 345.362 266.894 345.244 267.352 345.244C267.438 345.244 267.546 345.246 267.675 345.249C267.804 345.253 267.902 345.258 267.968 345.264V346.457C267.928 346.447 267.837 346.433 267.695 346.413C267.556 346.389 267.408 346.378 267.252 346.378C266.881 346.378 266.55 346.456 266.258 346.612C265.97 346.764 265.741 346.976 265.572 347.248C265.406 347.516 265.323 347.823 265.323 348.168V353H264.15ZM271.606 353.179C271.122 353.179 270.683 353.088 270.289 352.906C269.894 352.72 269.581 352.453 269.349 352.105C269.117 351.754 269.001 351.33 269.001 350.832C269.001 350.395 269.087 350.04 269.26 349.768C269.432 349.493 269.662 349.278 269.951 349.122C270.239 348.966 270.557 348.85 270.905 348.774C271.257 348.695 271.609 348.632 271.964 348.585C272.428 348.526 272.804 348.481 273.093 348.451C273.384 348.418 273.596 348.363 273.729 348.287C273.865 348.211 273.933 348.078 273.933 347.889V347.849C273.933 347.359 273.799 346.978 273.53 346.706C273.265 346.434 272.862 346.298 272.322 346.298C271.762 346.298 271.323 346.421 271.005 346.666C270.686 346.911 270.463 347.173 270.333 347.452L269.22 347.054C269.419 346.59 269.684 346.229 270.015 345.97C270.35 345.708 270.715 345.526 271.109 345.423C271.507 345.317 271.898 345.264 272.282 345.264C272.528 345.264 272.809 345.294 273.127 345.354C273.449 345.41 273.759 345.528 274.057 345.707C274.359 345.886 274.609 346.156 274.808 346.517C275.007 346.878 275.106 347.362 275.106 347.969V353H273.933V351.966H273.873C273.794 352.132 273.661 352.309 273.475 352.498C273.29 352.687 273.043 352.848 272.735 352.98C272.426 353.113 272.05 353.179 271.606 353.179ZM271.785 352.125C272.249 352.125 272.64 352.034 272.958 351.852C273.28 351.669 273.522 351.434 273.684 351.146C273.85 350.857 273.933 350.554 273.933 350.236V349.162C273.883 349.222 273.774 349.276 273.605 349.326C273.439 349.372 273.247 349.414 273.028 349.45C272.813 349.483 272.602 349.513 272.397 349.54C272.194 349.563 272.03 349.583 271.904 349.599C271.6 349.639 271.315 349.704 271.049 349.793C270.788 349.879 270.575 350.01 270.413 350.186C270.254 350.358 270.174 350.594 270.174 350.892C270.174 351.3 270.325 351.608 270.627 351.817C270.932 352.022 271.318 352.125 271.785 352.125ZM277.248 353V345.364H278.381V346.517H278.461C278.6 346.139 278.852 345.833 279.216 345.597C279.581 345.362 279.992 345.244 280.449 345.244C280.536 345.244 280.643 345.246 280.773 345.249C280.902 345.253 281 345.258 281.066 345.264V346.457C281.026 346.447 280.935 346.433 280.792 346.413C280.653 346.389 280.506 346.378 280.35 346.378C279.979 346.378 279.647 346.456 279.356 346.612C279.067 346.764 278.839 346.976 278.67 347.248C278.504 347.516 278.421 347.823 278.421 348.168V353H277.248ZM283.445 355.864C283.246 355.864 283.069 355.847 282.913 355.814C282.757 355.784 282.649 355.754 282.59 355.724L282.888 354.69C283.173 354.763 283.425 354.79 283.644 354.77C283.862 354.75 284.056 354.652 284.225 354.477C284.398 354.304 284.555 354.024 284.698 353.636L284.916 353.04L282.093 345.364H283.365L285.473 351.449H285.553L287.661 345.364H288.933L285.692 354.114C285.546 354.508 285.365 354.835 285.15 355.093C284.935 355.355 284.684 355.549 284.399 355.675C284.118 355.801 283.799 355.864 283.445 355.864ZM294.579 353V342.818H298.138C298.848 342.818 299.433 342.941 299.893 343.186C300.354 343.428 300.697 343.754 300.922 344.165C301.148 344.573 301.26 345.026 301.26 345.523C301.26 345.96 301.183 346.321 301.027 346.607C300.874 346.892 300.672 347.117 300.42 347.283C300.172 347.448 299.902 347.571 299.61 347.651V347.75C299.921 347.77 300.235 347.879 300.55 348.078C300.864 348.277 301.128 348.562 301.34 348.933C301.552 349.304 301.658 349.759 301.658 350.295C301.658 350.806 301.542 351.265 301.31 351.673C301.078 352.08 300.712 352.403 300.211 352.642C299.711 352.881 299.06 353 298.258 353H294.579ZM295.812 351.906H298.258C299.063 351.906 299.635 351.75 299.973 351.439C300.314 351.124 300.485 350.743 300.485 350.295C300.485 349.951 300.397 349.633 300.221 349.341C300.046 349.046 299.796 348.811 299.471 348.635C299.146 348.456 298.761 348.366 298.317 348.366H295.812V351.906ZM295.812 347.293H298.099C298.47 347.293 298.805 347.22 299.103 347.074C299.404 346.928 299.643 346.723 299.819 346.457C299.998 346.192 300.087 345.881 300.087 345.523C300.087 345.075 299.931 344.696 299.62 344.384C299.308 344.069 298.814 343.912 298.138 343.912H295.812V347.293ZM304.698 342.818V353H303.525V342.818H304.698ZM309.95 353.159C309.26 353.159 308.655 352.995 308.135 352.667C307.618 352.339 307.214 351.88 306.922 351.29C306.634 350.7 306.489 350.01 306.489 349.222C306.489 348.426 306.634 347.732 306.922 347.138C307.214 346.545 307.618 346.085 308.135 345.756C308.655 345.428 309.26 345.264 309.95 345.264C310.639 345.264 311.242 345.428 311.759 345.756C312.28 346.085 312.684 346.545 312.972 347.138C313.264 347.732 313.41 348.426 313.41 349.222C313.41 350.01 313.264 350.7 312.972 351.29C312.684 351.88 312.28 352.339 311.759 352.667C311.242 352.995 310.639 353.159 309.95 353.159ZM309.95 352.105C310.473 352.105 310.904 351.971 311.242 351.702C311.58 351.434 311.83 351.081 311.993 350.643C312.155 350.206 312.237 349.732 312.237 349.222C312.237 348.711 312.155 348.236 311.993 347.795C311.83 347.354 311.58 346.998 311.242 346.726C310.904 346.454 310.473 346.318 309.95 346.318C309.426 346.318 308.995 346.454 308.657 346.726C308.319 346.998 308.069 347.354 307.906 347.795C307.744 348.236 307.663 348.711 307.663 349.222C307.663 349.732 307.744 350.206 307.906 350.643C308.069 351.081 308.319 351.434 308.657 351.702C308.995 351.971 309.426 352.105 309.95 352.105ZM318.303 353.159C317.587 353.159 316.971 352.99 316.454 352.652C315.937 352.314 315.539 351.848 315.26 351.255C314.982 350.662 314.843 349.984 314.843 349.222C314.843 348.446 314.985 347.762 315.27 347.168C315.559 346.572 315.96 346.106 316.474 345.771C316.991 345.433 317.594 345.264 318.283 345.264C318.82 345.264 319.304 345.364 319.735 345.562C320.166 345.761 320.519 346.04 320.794 346.398C321.069 346.756 321.24 347.173 321.306 347.651H320.133C320.043 347.303 319.844 346.994 319.536 346.726C319.231 346.454 318.82 346.318 318.303 346.318C317.846 346.318 317.445 346.437 317.1 346.676C316.759 346.911 316.492 347.245 316.3 347.675C316.111 348.103 316.016 348.605 316.016 349.182C316.016 349.772 316.109 350.286 316.295 350.723C316.483 351.161 316.749 351.5 317.09 351.742C317.435 351.984 317.839 352.105 318.303 352.105C318.608 352.105 318.885 352.052 319.133 351.946C319.382 351.84 319.592 351.688 319.765 351.489C319.937 351.29 320.06 351.051 320.133 350.773H321.306C321.24 351.223 321.076 351.629 320.814 351.991C320.555 352.349 320.212 352.634 319.785 352.846C319.36 353.055 318.867 353.159 318.303 353.159ZM324.115 350.216L324.095 348.764H324.334L327.675 345.364H329.126L325.567 348.963H325.467L324.115 350.216ZM323.021 353V342.818H324.194V353H323.021ZM327.873 353L324.89 349.222L325.726 348.406L329.365 353H327.873Z" fill="#3F4346"/>
<path d="M219.233 397V386.818H222.673C223.472 386.818 224.125 386.962 224.632 387.251C225.143 387.536 225.52 387.922 225.766 388.409C226.011 388.896 226.134 389.44 226.134 390.04C226.134 390.64 226.011 391.185 225.766 391.675C225.524 392.166 225.149 392.557 224.642 392.849C224.135 393.137 223.485 393.281 222.693 393.281H220.227V392.188H222.653C223.2 392.188 223.639 392.093 223.971 391.904C224.302 391.715 224.543 391.46 224.692 391.138C224.844 390.814 224.92 390.447 224.92 390.04C224.92 389.632 224.844 389.268 224.692 388.946C224.543 388.625 224.301 388.373 223.966 388.19C223.631 388.005 223.187 387.912 222.634 387.912H220.466V397H219.233ZM231.08 397.159C230.344 397.159 229.71 396.997 229.176 396.672C228.646 396.344 228.237 395.886 227.948 395.3C227.663 394.71 227.521 394.024 227.521 393.241C227.521 392.459 227.663 391.77 227.948 391.173C228.237 390.573 228.638 390.106 229.151 389.771C229.668 389.433 230.272 389.264 230.961 389.264C231.359 389.264 231.751 389.33 232.139 389.463C232.527 389.596 232.88 389.811 233.198 390.109C233.516 390.404 233.77 390.795 233.959 391.283C234.148 391.77 234.242 392.37 234.242 393.082V393.58H228.356V392.565H233.049C233.049 392.134 232.963 391.75 232.79 391.412C232.621 391.074 232.379 390.807 232.065 390.612C231.753 390.416 231.385 390.318 230.961 390.318C230.494 390.318 230.089 390.434 229.748 390.666C229.41 390.895 229.15 391.193 228.967 391.561C228.785 391.929 228.694 392.323 228.694 392.744V393.42C228.694 393.997 228.793 394.486 228.992 394.887C229.194 395.285 229.474 395.588 229.832 395.797C230.19 396.002 230.606 396.105 231.08 396.105C231.388 396.105 231.667 396.062 231.915 395.976C232.167 395.886 232.384 395.754 232.567 395.578C232.749 395.399 232.89 395.177 232.989 394.912L234.123 395.23C234.004 395.615 233.803 395.953 233.521 396.244C233.24 396.533 232.892 396.758 232.477 396.92C232.063 397.08 231.597 397.159 231.08 397.159ZM236.027 397V389.364H237.161V390.517H237.24C237.379 390.139 237.631 389.833 237.996 389.597C238.36 389.362 238.771 389.244 239.229 389.244C239.315 389.244 239.423 389.246 239.552 389.249C239.681 389.253 239.779 389.258 239.845 389.264V390.457C239.805 390.447 239.714 390.433 239.572 390.413C239.433 390.389 239.285 390.378 239.129 390.378C238.758 390.378 238.427 390.456 238.135 390.612C237.847 390.764 237.618 390.976 237.449 391.248C237.283 391.516 237.2 391.823 237.2 392.168V397H236.027ZM241.236 397V389.364H242.369V390.557H242.469C242.628 390.149 242.885 389.833 243.24 389.607C243.594 389.379 244.02 389.264 244.517 389.264C245.021 389.264 245.44 389.379 245.775 389.607C246.113 389.833 246.377 390.149 246.566 390.557H246.645C246.841 390.162 247.134 389.849 247.525 389.617C247.916 389.382 248.385 389.264 248.932 389.264C249.615 389.264 250.173 389.478 250.607 389.906C251.042 390.33 251.259 390.991 251.259 391.889V397H250.085V391.889C250.085 391.326 249.931 390.923 249.623 390.681C249.315 390.439 248.952 390.318 248.534 390.318C247.997 390.318 247.581 390.481 247.286 390.805C246.991 391.127 246.844 391.535 246.844 392.028V397H245.651V391.77C245.651 391.336 245.51 390.986 245.228 390.721C244.946 390.452 244.584 390.318 244.139 390.318C243.834 390.318 243.549 390.399 243.284 390.562C243.022 390.724 242.81 390.95 242.648 391.238C242.489 391.523 242.409 391.853 242.409 392.227V397H241.236ZM255.651 397.179C255.167 397.179 254.728 397.088 254.334 396.906C253.939 396.72 253.626 396.453 253.394 396.105C253.162 395.754 253.046 395.33 253.046 394.832C253.046 394.395 253.132 394.04 253.305 393.768C253.477 393.493 253.707 393.278 253.996 393.122C254.284 392.966 254.602 392.85 254.95 392.774C255.301 392.695 255.654 392.632 256.009 392.585C256.473 392.526 256.849 392.481 257.138 392.451C257.429 392.418 257.641 392.363 257.774 392.287C257.91 392.211 257.978 392.078 257.978 391.889V391.849C257.978 391.359 257.844 390.978 257.575 390.706C257.31 390.434 256.907 390.298 256.367 390.298C255.807 390.298 255.368 390.421 255.05 390.666C254.731 390.911 254.508 391.173 254.378 391.452L253.265 391.054C253.464 390.59 253.729 390.229 254.06 389.97C254.395 389.708 254.76 389.526 255.154 389.423C255.552 389.317 255.943 389.264 256.327 389.264C256.573 389.264 256.854 389.294 257.172 389.354C257.494 389.41 257.804 389.528 258.102 389.707C258.404 389.886 258.654 390.156 258.853 390.517C259.052 390.878 259.151 391.362 259.151 391.969V397H257.978V395.966H257.918C257.839 396.132 257.706 396.309 257.52 396.498C257.335 396.687 257.088 396.848 256.78 396.98C256.471 397.113 256.095 397.179 255.651 397.179ZM255.83 396.125C256.294 396.125 256.685 396.034 257.003 395.852C257.325 395.669 257.567 395.434 257.729 395.146C257.895 394.857 257.978 394.554 257.978 394.236V393.162C257.928 393.222 257.819 393.276 257.65 393.326C257.484 393.372 257.292 393.414 257.073 393.45C256.858 393.483 256.647 393.513 256.442 393.54C256.239 393.563 256.075 393.583 255.949 393.599C255.644 393.639 255.359 393.704 255.094 393.793C254.832 393.879 254.62 394.01 254.458 394.186C254.299 394.358 254.219 394.594 254.219 394.892C254.219 395.3 254.37 395.608 254.672 395.817C254.977 396.022 255.363 396.125 255.83 396.125ZM262.466 392.406V397H261.293V389.364H262.426V390.557H262.526C262.705 390.169 262.976 389.857 263.341 389.622C263.705 389.384 264.176 389.264 264.753 389.264C265.27 389.264 265.722 389.37 266.11 389.582C266.498 389.791 266.799 390.109 267.015 390.537C267.23 390.961 267.338 391.498 267.338 392.148V397H266.165V392.227C266.165 391.627 266.009 391.16 265.697 390.825C265.386 390.487 264.958 390.318 264.415 390.318C264.04 390.318 263.705 390.399 263.411 390.562C263.119 390.724 262.888 390.961 262.719 391.273C262.55 391.584 262.466 391.962 262.466 392.406ZM272.684 397.159C271.948 397.159 271.313 396.997 270.78 396.672C270.249 396.344 269.84 395.886 269.552 395.3C269.267 394.71 269.124 394.024 269.124 393.241C269.124 392.459 269.267 391.77 269.552 391.173C269.84 390.573 270.241 390.106 270.755 389.771C271.272 389.433 271.875 389.264 272.564 389.264C272.962 389.264 273.355 389.33 273.743 389.463C274.131 389.596 274.483 389.811 274.802 390.109C275.12 390.404 275.373 390.795 275.562 391.283C275.751 391.77 275.846 392.37 275.846 393.082V393.58H269.959V392.565H274.653C274.653 392.134 274.566 391.75 274.394 391.412C274.225 391.074 273.983 390.807 273.668 390.612C273.357 390.416 272.989 390.318 272.564 390.318C272.097 390.318 271.693 390.434 271.351 390.666C271.013 390.895 270.753 391.193 270.571 391.561C270.389 391.929 270.297 392.323 270.297 392.744V393.42C270.297 393.997 270.397 394.486 270.596 394.887C270.798 395.285 271.078 395.588 271.436 395.797C271.794 396.002 272.21 396.105 272.684 396.105C272.992 396.105 273.27 396.062 273.519 395.976C273.771 395.886 273.988 395.754 274.17 395.578C274.353 395.399 274.493 395.177 274.593 394.912L275.726 395.23C275.607 395.615 275.407 395.953 275.125 396.244C274.843 396.533 274.495 396.758 274.081 396.92C273.666 397.08 273.201 397.159 272.684 397.159ZM278.804 392.406V397H277.631V389.364H278.764V390.557H278.863C279.042 390.169 279.314 389.857 279.679 389.622C280.043 389.384 280.514 389.264 281.091 389.264C281.608 389.264 282.06 389.37 282.448 389.582C282.836 389.791 283.137 390.109 283.353 390.537C283.568 390.961 283.676 391.498 283.676 392.148V397H282.503V392.227C282.503 391.627 282.347 391.16 282.035 390.825C281.724 390.487 281.296 390.318 280.753 390.318C280.378 390.318 280.043 390.399 279.748 390.562C279.457 390.724 279.226 390.961 279.057 391.273C278.888 391.584 278.804 391.962 278.804 392.406ZM289.141 389.364V390.358H285.184V389.364H289.141ZM286.337 387.534H287.51V394.812C287.51 395.144 287.558 395.393 287.654 395.558C287.754 395.721 287.88 395.83 288.032 395.886C288.188 395.939 288.352 395.966 288.525 395.966C288.654 395.966 288.76 395.959 288.843 395.946C288.926 395.929 288.992 395.916 289.042 395.906L289.28 396.96C289.201 396.99 289.09 397.02 288.947 397.05C288.805 397.083 288.624 397.099 288.405 397.099C288.074 397.099 287.749 397.028 287.431 396.886C287.116 396.743 286.854 396.526 286.645 396.234C286.44 395.943 286.337 395.575 286.337 395.131V387.534ZM295.002 397V386.818H298.562C299.271 386.818 299.856 386.941 300.317 387.186C300.778 387.428 301.121 387.754 301.346 388.165C301.572 388.573 301.684 389.026 301.684 389.523C301.684 389.96 301.606 390.321 301.451 390.607C301.298 390.892 301.096 391.117 300.844 391.283C300.596 391.448 300.325 391.571 300.034 391.651V391.75C300.345 391.77 300.658 391.879 300.973 392.078C301.288 392.277 301.552 392.562 301.764 392.933C301.976 393.304 302.082 393.759 302.082 394.295C302.082 394.806 301.966 395.265 301.734 395.673C301.502 396.08 301.136 396.403 300.635 396.642C300.135 396.881 299.484 397 298.681 397H295.002ZM296.235 395.906H298.681C299.487 395.906 300.059 395.75 300.397 395.439C300.738 395.124 300.909 394.743 300.909 394.295C300.909 393.951 300.821 393.633 300.645 393.341C300.47 393.046 300.219 392.811 299.895 392.635C299.57 392.456 299.185 392.366 298.741 392.366H296.235V395.906ZM296.235 391.293H298.522C298.894 391.293 299.228 391.22 299.527 391.074C299.828 390.928 300.067 390.723 300.243 390.457C300.422 390.192 300.511 389.881 300.511 389.523C300.511 389.075 300.355 388.696 300.044 388.384C299.732 388.069 299.238 387.912 298.562 387.912H296.235V391.293ZM305.122 386.818V397H303.949V386.818H305.122ZM310.373 397.159C309.684 397.159 309.079 396.995 308.559 396.667C308.042 396.339 307.637 395.88 307.346 395.29C307.057 394.7 306.913 394.01 306.913 393.222C306.913 392.426 307.057 391.732 307.346 391.138C307.637 390.545 308.042 390.085 308.559 389.756C309.079 389.428 309.684 389.264 310.373 389.264C311.063 389.264 311.666 389.428 312.183 389.756C312.703 390.085 313.108 390.545 313.396 391.138C313.688 391.732 313.834 392.426 313.834 393.222C313.834 394.01 313.688 394.7 313.396 395.29C313.108 395.88 312.703 396.339 312.183 396.667C311.666 396.995 311.063 397.159 310.373 397.159ZM310.373 396.105C310.897 396.105 311.328 395.971 311.666 395.702C312.004 395.434 312.254 395.081 312.417 394.643C312.579 394.206 312.66 393.732 312.66 393.222C312.66 392.711 312.579 392.236 312.417 391.795C312.254 391.354 312.004 390.998 311.666 390.726C311.328 390.454 310.897 390.318 310.373 390.318C309.85 390.318 309.419 390.454 309.081 390.726C308.743 390.998 308.492 391.354 308.33 391.795C308.168 392.236 308.086 392.711 308.086 393.222C308.086 393.732 308.168 394.206 308.33 394.643C308.492 395.081 308.743 395.434 309.081 395.702C309.419 395.971 309.85 396.105 310.373 396.105ZM318.727 397.159C318.011 397.159 317.395 396.99 316.877 396.652C316.36 396.314 315.963 395.848 315.684 395.255C315.406 394.662 315.267 393.984 315.267 393.222C315.267 392.446 315.409 391.762 315.694 391.168C315.983 390.572 316.384 390.106 316.897 389.771C317.414 389.433 318.018 389.264 318.707 389.264C319.244 389.264 319.728 389.364 320.159 389.562C320.59 389.761 320.943 390.04 321.218 390.398C321.493 390.756 321.663 391.173 321.73 391.651H320.556C320.467 391.303 320.268 390.994 319.96 390.726C319.655 390.454 319.244 390.318 318.727 390.318C318.27 390.318 317.868 390.437 317.524 390.676C317.182 390.911 316.916 391.245 316.723 391.675C316.534 392.103 316.44 392.605 316.44 393.182C316.44 393.772 316.533 394.286 316.718 394.723C316.907 395.161 317.172 395.5 317.514 395.742C317.859 395.984 318.263 396.105 318.727 396.105C319.032 396.105 319.309 396.052 319.557 395.946C319.806 395.84 320.016 395.688 320.189 395.489C320.361 395.29 320.484 395.051 320.556 394.773H321.73C321.663 395.223 321.499 395.629 321.238 395.991C320.979 396.349 320.636 396.634 320.208 396.846C319.784 397.055 319.29 397.159 318.727 397.159ZM324.539 394.216L324.519 392.764H324.757L328.098 389.364H329.55L325.99 392.963H325.891L324.539 394.216ZM323.445 397V386.818H324.618V397H323.445ZM328.297 397L325.314 393.222L326.15 392.406L329.789 397H328.297Z" fill="#3F4346"/>
</g>
</g>
<g filter="url(#filter3_d_2077_28742)">
<rect x="478" y="394" width="82" height="40" rx="4" fill="#1157A6" shape-rendering="crispEdges"/>
<path d="M504.25 414.75H499.75V419.25H498.25V414.75H493.75V413.25H498.25V408.75H499.75V413.25H504.25V414.75Z" fill="white"/>
<path d="M514.261 419.5H512.398L516.585 407.864H518.614L522.801 419.5H520.938L517.648 409.977H517.557L514.261 419.5ZM514.574 414.943H520.619V416.42H514.574V414.943ZM527.472 419.67C526.767 419.67 526.138 419.491 525.585 419.131C525.036 418.767 524.604 418.25 524.29 417.58C523.979 416.905 523.824 416.097 523.824 415.153C523.824 414.21 523.981 413.403 524.295 412.733C524.614 412.062 525.049 411.549 525.602 411.193C526.155 410.837 526.782 410.659 527.483 410.659C528.025 410.659 528.46 410.75 528.79 410.932C529.123 411.11 529.381 411.318 529.562 411.557C529.748 411.795 529.892 412.006 529.994 412.188H530.097V407.864H531.795V419.5H530.136V418.142H529.994C529.892 418.328 529.744 418.54 529.551 418.778C529.362 419.017 529.1 419.225 528.767 419.403C528.434 419.581 528.002 419.67 527.472 419.67ZM527.847 418.222C528.335 418.222 528.748 418.093 529.085 417.835C529.426 417.574 529.684 417.212 529.858 416.75C530.036 416.288 530.125 415.75 530.125 415.136C530.125 414.53 530.038 414 529.864 413.545C529.689 413.091 529.434 412.737 529.097 412.483C528.759 412.229 528.343 412.102 527.847 412.102C527.335 412.102 526.909 412.235 526.568 412.5C526.227 412.765 525.97 413.127 525.795 413.585C525.625 414.044 525.54 414.561 525.54 415.136C525.54 415.72 525.627 416.244 525.801 416.71C525.975 417.176 526.233 417.545 526.574 417.818C526.919 418.087 527.343 418.222 527.847 418.222ZM537.487 419.67C536.783 419.67 536.154 419.491 535.601 419.131C535.052 418.767 534.62 418.25 534.305 417.58C533.995 416.905 533.839 416.097 533.839 415.153C533.839 414.21 533.997 413.403 534.311 412.733C534.629 412.062 535.065 411.549 535.618 411.193C536.171 410.837 536.798 410.659 537.499 410.659C538.04 410.659 538.476 410.75 538.805 410.932C539.139 411.11 539.396 411.318 539.578 411.557C539.764 411.795 539.908 412.006 540.01 412.188H540.112V407.864H541.811V419.5H540.152V418.142H540.01C539.908 418.328 539.76 418.54 539.567 418.778C539.377 419.017 539.116 419.225 538.783 419.403C538.449 419.581 538.018 419.67 537.487 419.67ZM537.862 418.222C538.351 418.222 538.764 418.093 539.101 417.835C539.442 417.574 539.699 417.212 539.874 416.75C540.052 416.288 540.141 415.75 540.141 415.136C540.141 414.53 540.054 414 539.879 413.545C539.705 413.091 539.449 412.737 539.112 412.483C538.775 412.229 538.358 412.102 537.862 412.102C537.351 412.102 536.925 412.235 536.584 412.5C536.243 412.765 535.985 413.127 535.811 413.585C535.641 414.044 535.555 414.561 535.555 415.136C535.555 415.72 535.643 416.244 535.817 416.71C535.991 417.176 536.249 417.545 536.589 417.818C536.934 418.087 537.358 418.222 537.862 418.222Z" fill="white"/>
</g>
<defs>
<filter id="filter0_d_2077_28742" x="198" y="146" width="316" height="56" filterUnits="userSpaceOnUse" color-interpolation-filters="sRGB">
<feFlood flood-opacity="0" result="BackgroundImageFix"/>
<feColorMatrix in="SourceAlpha" type="matrix" values="0 0 0 0 0 0 0 0 0 0 0 0 0 0 0 0 0 0 127 0" result="hardAlpha"/>
<feOffset dy="4"/>
<feGaussianBlur stdDeviation="4"/>
<feComposite in2="hardAlpha" operator="out"/>
<feColorMatrix type="matrix" values="0 0 0 0 0 0 0 0 0 0 0 0 0 0 0 0 0 0 0.15 0"/>
<feBlend mode="normal" in2="BackgroundImageFix" result="effect1_dropShadow_2077_28742"/>
<feBlend mode="normal" in="SourceGraphic" in2="effect1_dropShadow_2077_28742" result="shape"/>
</filter>
<filter id="filter1_d_2077_28742" x="32" y="76" width="316" height="56" filterUnits="userSpaceOnUse" color-interpolation-filters="sRGB">
<feFlood flood-opacity="0" result="BackgroundImageFix"/>
<feColorMatrix in="SourceAlpha" type="matrix" values="0 0 0 0 0 0 0 0 0 0 0 0 0 0 0 0 0 0 127 0" result="hardAlpha"/>
<feOffset dy="4"/>
<feGaussianBlur stdDeviation="4"/>
<feComposite in2="hardAlpha" operator="out"/>
<feColorMatrix type="matrix" values="0 0 0 0 0 0 0 0 0 0 0 0 0 0 0 0 0 0 0.15 0"/>
<feBlend mode="normal" in2="BackgroundImageFix" result="effect1_dropShadow_2077_28742"/>
<feBlend mode="normal" in="SourceGraphic" in2="effect1_dropShadow_2077_28742" result="shape"/>
</filter>
<filter id="filter2_d_2077_28742" x="198" y="190" width="316" height="236" filterUnits="userSpaceOnUse" color-interpolation-filters="sRGB">
<feFlood flood-opacity="0" result="BackgroundImageFix"/>
<feColorMatrix in="SourceAlpha" type="matrix" values="0 0 0 0 0 0 0 0 0 0 0 0 0 0 0 0 0 0 127 0" result="hardAlpha"/>
<feOffset dy="4"/>
<feGaussianBlur stdDeviation="4"/>
<feComposite in2="hardAlpha" operator="out"/>
<feColorMatrix type="matrix" values="0 0 0 0 0 0 0 0 0 0 0 0 0 0 0 0 0 0 0.15 0"/>
<feBlend mode="normal" in2="BackgroundImageFix" result="effect1_dropShadow_2077_28742"/>
<feBlend mode="normal" in="SourceGraphic" in2="effect1_dropShadow_2077_28742" result="shape"/>
</filter>
<filter id="filter3_d_2077_28742" x="470" y="390" width="98" height="56" filterUnits="userSpaceOnUse" color-interpolation-filters="sRGB">
<feFlood flood-opacity="0" result="BackgroundImageFix"/>
<feColorMatrix in="SourceAlpha" type="matrix" values="0 0 0 0 0 0 0 0 0 0 0 0 0 0 0 0 0 0 127 0" result="hardAlpha"/>
<feOffset dy="4"/>
<feGaussianBlur stdDeviation="4"/>
<feComposite in2="hardAlpha" operator="out"/>
<feColorMatrix type="matrix" values="0 0 0 0 0 0 0 0 0 0 0 0 0 0 0 0 0 0 0.15 0"/>
<feBlend mode="normal" in2="BackgroundImageFix" result="effect1_dropShadow_2077_28742"/>
<feBlend mode="normal" in="SourceGraphic" in2="effect1_dropShadow_2077_28742" result="shape"/>
</filter>
<clipPath id="clip0_2077_28742">
<rect width="20" height="20" fill="white" transform="translate(478 160)"/>
</clipPath>
<clipPath id="clip1_2077_28742">
<path d="M206 202C206 197.582 209.582 194 214 194H498C502.418 194 506 197.582 506 202V406C506 410.418 502.418 414 498 414H214C209.582 414 206 410.418 206 406V202Z" fill="white"/>
</clipPath>
</defs>
</svg>
