<svg width="600" height="459" viewBox="0 0 600 459" fill="none" xmlns="http://www.w3.org/2000/svg">
<path d="M560.333 135C560.333 125.833 552.833 118.333 543.667 118.333H410.333C401.167 118.333 393.667 125.833 393.667 135V235C393.667 244.167 401.167 251.667 410.333 251.667H543.667C552.833 251.667 560.333 244.167 560.333 235V135ZM543.667 135L477 176.583L410.333 135H543.667ZM543.667 235H410.333V151.667L477 193.333L543.667 151.667V235Z" fill="#DBEAF6"/>
<g filter="url(#filter0_d_2077_28743)">
<rect x="375" y="200" width="144.539" height="68.5385" rx="34.2693" fill="#F9EAE5" shape-rendering="crispEdges"/>
<path d="M402.045 226.875C402.045 225.073 403.408 223.612 405.09 223.612H429.449C431.13 223.612 432.494 225.073 432.494 226.875V243.187C432.494 244.988 431.13 246.449 429.449 246.449H405.09C403.408 246.449 402.045 244.988 402.045 243.187V226.875Z" fill="#8C2E0E"/>
<path d="M402.045 225.362C402.045 223.555 403.309 222.09 404.868 222.09H429.671C431.23 222.09 432.494 223.555 432.494 225.362C432.494 226.601 431.89 227.734 430.933 228.289L418.631 235.419C417.774 235.916 416.765 235.916 415.908 235.419L403.605 228.289C402.649 227.734 402.045 226.601 402.045 225.362Z" fill="#CC5229"/>
<path d="M445.137 241.269V226.724H454.256V228.613H447.331V233.045H453.78V234.927H447.331V239.38H454.341V241.269H445.137ZM457.017 241.269V230.36H459.055V232.136H459.19C459.417 231.534 459.789 231.066 460.305 230.73C460.821 230.389 461.439 230.218 462.159 230.218C462.888 230.218 463.499 230.389 463.991 230.73C464.489 231.07 464.855 231.539 465.092 232.136H465.206C465.466 231.553 465.881 231.089 466.449 230.744C467.017 230.393 467.694 230.218 468.48 230.218C469.47 230.218 470.277 230.528 470.902 231.149C471.532 231.769 471.846 232.704 471.846 233.954V241.269H469.723V234.153C469.723 233.414 469.522 232.879 469.119 232.548C468.717 232.216 468.236 232.051 467.677 232.051C466.986 232.051 466.449 232.264 466.065 232.69C465.682 233.111 465.49 233.653 465.49 234.316V241.269H463.373V234.018C463.373 233.426 463.189 232.95 462.819 232.59C462.45 232.23 461.97 232.051 461.378 232.051C460.975 232.051 460.604 232.157 460.263 232.37C459.926 232.578 459.654 232.87 459.446 233.244C459.242 233.618 459.14 234.051 459.14 234.543V241.269H457.017ZM477.867 241.511C477.176 241.511 476.551 241.383 475.992 241.127C475.434 240.867 474.991 240.49 474.664 239.998C474.342 239.506 474.181 238.902 474.181 238.187C474.181 237.571 474.3 237.065 474.536 236.667C474.773 236.269 475.093 235.954 475.495 235.722C475.898 235.49 476.348 235.315 476.845 235.197C477.342 235.078 477.848 234.989 478.365 234.927C479.018 234.851 479.548 234.79 479.955 234.742C480.363 234.69 480.659 234.607 480.843 234.494C481.028 234.38 481.12 234.195 481.12 233.94V233.89C481.12 233.27 480.945 232.789 480.595 232.448C480.249 232.107 479.733 231.937 479.046 231.937C478.331 231.937 477.768 232.096 477.356 232.413C476.949 232.725 476.667 233.073 476.511 233.457L474.515 233.002C474.752 232.339 475.098 231.804 475.552 231.397C476.011 230.985 476.539 230.687 477.136 230.502C477.732 230.313 478.36 230.218 479.018 230.218C479.454 230.218 479.915 230.27 480.403 230.374C480.895 230.474 481.355 230.658 481.781 230.928C482.212 231.198 482.564 231.584 482.839 232.086C483.114 232.583 483.251 233.23 483.251 234.025V241.269H481.177V239.778H481.092C480.955 240.052 480.749 240.322 480.474 240.587C480.199 240.853 479.847 241.073 479.416 241.248C478.985 241.423 478.469 241.511 477.867 241.511ZM478.329 239.806C478.916 239.806 479.418 239.69 479.835 239.458C480.256 239.226 480.576 238.923 480.794 238.549C481.016 238.17 481.127 237.765 481.127 237.335V235.928C481.052 236.004 480.905 236.075 480.687 236.141C480.474 236.203 480.23 236.257 479.955 236.305C479.681 236.347 479.413 236.388 479.153 236.426C478.893 236.459 478.675 236.487 478.5 236.511C478.088 236.563 477.711 236.65 477.37 236.774C477.034 236.897 476.764 237.074 476.561 237.306C476.362 237.533 476.262 237.837 476.262 238.215C476.262 238.741 476.456 239.139 476.845 239.408C477.233 239.674 477.728 239.806 478.329 239.806ZM486.079 241.269V230.36H488.203V241.269H486.079ZM487.152 228.677C486.783 228.677 486.465 228.554 486.2 228.308C485.94 228.057 485.81 227.758 485.81 227.413C485.81 227.062 485.94 226.764 486.2 226.518C486.465 226.267 486.783 226.141 487.152 226.141C487.521 226.141 487.836 226.267 488.096 226.518C488.362 226.764 488.494 227.062 488.494 227.413C488.494 227.758 488.362 228.057 488.096 228.308C487.836 228.554 487.521 228.677 487.152 228.677ZM493.183 226.724V241.269H491.06V226.724H493.183Z" fill="#3F4346"/>
</g>
<path fill-rule="evenodd" clip-rule="evenodd" d="M172 141.667L138.667 175V50C138.667 37.0558 148.504 26.4093 161.111 25.1291C161.951 25.0437 162.804 25 163.667 25H281.206C283.388 25 285.555 25.3517 287.625 26.0417L287.595 26.0711C297.861 29.1825 305.333 38.7186 305.333 50V116.667C305.333 130.474 294.14 141.667 280.333 141.667H172ZM155.333 134.763V50C155.333 45.3976 159.064 41.6667 163.667 41.6667H248.43L155.333 134.763ZM272 41.6667L188.667 125H280.333C284.936 125 288.667 121.269 288.667 116.667V50C288.667 45.3976 284.936 41.6667 280.333 41.6667H272Z" fill="#DBEAF6"/>
<g filter="url(#filter1_d_2077_28743)">
<rect x="217" y="100" width="136.539" height="68.5385" rx="34.2693" fill="#E2F0FF" shape-rendering="crispEdges"/>
<path d="M244.045 125.135C244.045 122.612 246.09 120.567 248.612 120.567H269.926C272.449 120.567 274.494 122.612 274.494 125.135V137.314C274.494 139.837 272.449 141.881 269.926 141.881H244.045V125.135Z" fill="#0D4680"/>
<path d="M244.045 125.135C244.045 122.612 246.09 120.567 248.612 120.567H270.086C270.484 120.567 270.88 120.632 271.259 120.758L244.045 147.971V125.135Z" fill="#66BDFF"/>
<path d="M295.07 130.545C294.994 129.873 294.682 129.352 294.132 128.982C293.583 128.608 292.892 128.421 292.058 128.421C291.462 128.421 290.946 128.516 290.51 128.705C290.075 128.89 289.736 129.146 289.495 129.472C289.258 129.794 289.139 130.161 289.139 130.573C289.139 130.919 289.22 131.217 289.381 131.468C289.547 131.719 289.762 131.93 290.027 132.1C290.297 132.266 290.586 132.406 290.894 132.519C291.201 132.628 291.497 132.718 291.781 132.789L293.202 133.158C293.666 133.272 294.142 133.426 294.629 133.62C295.117 133.814 295.569 134.07 295.986 134.387C296.403 134.704 296.739 135.097 296.995 135.566C297.255 136.035 297.385 136.596 297.385 137.249C297.385 138.073 297.172 138.805 296.746 139.444C296.325 140.083 295.711 140.587 294.906 140.957C294.106 141.326 293.138 141.511 292.002 141.511C290.913 141.511 289.97 141.338 289.175 140.992C288.379 140.647 287.757 140.157 287.307 139.522C286.857 138.883 286.609 138.125 286.561 137.249H288.763C288.806 137.775 288.976 138.213 289.274 138.563C289.577 138.909 289.963 139.167 290.432 139.337C290.906 139.503 291.424 139.586 291.987 139.586C292.608 139.586 293.159 139.489 293.642 139.295C294.13 139.096 294.513 138.821 294.793 138.471C295.072 138.116 295.212 137.702 295.212 137.228C295.212 136.797 295.089 136.444 294.843 136.17C294.601 135.895 294.272 135.668 293.855 135.488C293.443 135.308 292.977 135.149 292.456 135.012L290.737 134.543C289.573 134.226 288.649 133.76 287.968 133.144C287.29 132.529 286.952 131.714 286.952 130.701C286.952 129.863 287.179 129.132 287.634 128.507C288.088 127.882 288.704 127.396 289.48 127.051C290.257 126.7 291.133 126.525 292.108 126.525C293.093 126.525 293.962 126.698 294.715 127.043C295.472 127.389 296.069 127.865 296.504 128.471C296.94 129.072 297.167 129.764 297.186 130.545H295.07ZM300.008 126.724H302.671L307.302 138.031H307.472L312.103 126.724H314.766V141.269H312.678V130.744H312.543L308.253 141.248H306.52L302.231 130.737H302.096V141.269H300.008V126.724ZM325.89 130.545C325.814 129.873 325.502 129.352 324.953 128.982C324.403 128.608 323.712 128.421 322.879 128.421C322.282 128.421 321.766 128.516 321.33 128.705C320.895 128.89 320.556 129.146 320.315 129.472C320.078 129.794 319.96 130.161 319.96 130.573C319.96 130.919 320.04 131.217 320.201 131.468C320.367 131.719 320.582 131.93 320.848 132.1C321.117 132.266 321.406 132.406 321.714 132.519C322.022 132.628 322.318 132.718 322.602 132.789L324.022 133.158C324.486 133.272 324.962 133.426 325.45 133.62C325.937 133.814 326.39 134.07 326.806 134.387C327.223 134.704 327.559 135.097 327.815 135.566C328.075 136.035 328.205 136.596 328.205 137.249C328.205 138.073 327.992 138.805 327.566 139.444C327.145 140.083 326.532 140.587 325.727 140.957C324.927 141.326 323.958 141.511 322.822 141.511C321.733 141.511 320.791 141.338 319.995 140.992C319.2 140.647 318.577 140.157 318.127 139.522C317.678 138.883 317.429 138.125 317.382 137.249H319.583C319.626 137.775 319.796 138.213 320.095 138.563C320.398 138.909 320.784 139.167 321.252 139.337C321.726 139.503 322.244 139.586 322.808 139.586C323.428 139.586 323.98 139.489 324.463 139.295C324.95 139.096 325.334 138.821 325.613 138.471C325.893 138.116 326.032 137.702 326.032 137.228C326.032 136.797 325.909 136.444 325.663 136.17C325.421 135.895 325.092 135.668 324.676 135.488C324.264 135.308 323.797 135.149 323.277 135.012L321.558 134.543C320.393 134.226 319.47 133.76 318.788 133.144C318.111 132.529 317.772 131.714 317.772 130.701C317.772 129.863 318 129.132 318.454 128.507C318.909 127.882 319.524 127.396 320.301 127.051C321.077 126.7 321.953 126.525 322.928 126.525C323.913 126.525 324.782 126.698 325.535 127.043C326.293 127.389 326.889 127.865 327.325 128.471C327.76 129.072 327.988 129.764 328.007 130.545H325.89Z" fill="#3F4346"/>
</g>
<path d="M176.5 300.667C177 308.083 178.25 315.333 180.25 322.25L170.25 332.25C166.833 322.25 164.667 311.667 163.917 300.667H176.5ZM258.667 400.833C265.75 402.833 273 404.083 280.333 404.583V417C269.333 416.25 258.75 414.083 248.667 410.75L258.667 400.833ZM184.5 284H155.333C150.75 284 147 287.75 147 292.333C147 370.583 210.417 434 288.667 434C293.25 434 297 430.25 297 425.667V396.583C297 392 293.25 388.25 288.667 388.25C278.333 388.25 268.25 386.583 258.917 383.5C258.083 383.167 257.167 383.083 256.333 383.083C254.167 383.083 252.083 383.917 250.417 385.5L232.083 403.833C208.5 391.75 189.167 372.5 177.167 348.917L195.5 330.583C197.833 328.25 198.5 325 197.583 322.083C194.5 312.75 192.833 302.75 192.833 292.333C192.833 287.75 189.083 284 184.5 284Z" fill="#DBEAF6"/>
<g filter="url(#filter2_d_2077_28743)">
<rect x="213" y="300" width="146.539" height="68.5385" rx="34.2693" fill="#EDEDFD" shape-rendering="crispEdges"/>
<path d="M270.494 334.269C270.494 342.678 263.678 349.494 255.269 349.494C246.861 349.494 240.045 342.678 240.045 334.269C240.045 325.861 246.861 319.045 255.269 319.045C263.678 319.045 270.494 325.861 270.494 334.269Z" fill="#696BEF"/>
<path d="M270.494 334.269C270.494 342.678 263.678 349.494 255.269 349.494C246.861 349.494 240.045 342.678 240.045 334.269C240.045 325.861 246.861 319.045 255.269 319.045C263.678 319.045 270.494 325.861 270.494 334.269Z" fill="#696BEF"/>
<path d="M265.926 337.314C265.926 338.114 265.769 338.906 265.463 339.645C265.157 340.384 264.708 341.055 264.143 341.62C263.577 342.186 262.906 342.634 262.167 342.94C261.428 343.246 260.636 343.404 259.837 343.404L259.837 337.314H265.926Z" fill="white"/>
<path d="M259.478 331.535L258.005 320.71L250.702 326.657L255.269 334.127H257.215C258.599 334.127 259.664 332.906 259.478 331.535Z" fill="#3A3BA6"/>
<path d="M257.629 343.825L256.637 347.763L255.269 340.983H255.414C256.901 340.983 257.992 342.382 257.629 343.825Z" fill="#3A3BA6"/>
<path fill-rule="evenodd" clip-rule="evenodd" d="M255.269 340.982C251.486 340.982 248.418 337.915 248.418 334.131H256.64C257.396 334.131 258.01 333.523 258.01 332.766V320.703C257.124 320.523 256.208 320.429 255.269 320.429C247.702 320.429 241.567 326.564 241.567 334.131C241.567 341.698 247.702 347.833 255.269 347.833C255.732 347.833 256.189 347.81 256.64 347.765V342.352C256.64 341.595 256.026 340.982 255.269 340.982ZM255.27 327.28C255.27 328.037 254.656 328.65 253.9 328.65C253.143 328.65 252.529 328.037 252.529 327.28C252.529 326.523 253.143 325.91 253.9 325.91C254.656 325.91 255.27 326.523 255.27 327.28Z" fill="white"/>
<path d="M284.408 326.724L288.456 338.57H288.62L292.668 326.724H295.04L289.806 341.269H287.27L282.036 326.724H284.408ZM300.471 341.489C299.449 341.489 298.556 341.255 297.794 340.786C297.032 340.318 296.44 339.662 296.018 338.819C295.597 337.976 295.386 336.991 295.386 335.864C295.386 334.733 295.597 333.743 296.018 332.896C296.44 332.048 297.032 331.39 297.794 330.921C298.556 330.453 299.449 330.218 300.471 330.218C301.494 330.218 302.387 330.453 303.149 330.921C303.911 331.39 304.503 332.048 304.925 332.896C305.346 333.743 305.557 334.733 305.557 335.864C305.557 336.991 305.346 337.976 304.925 338.819C304.503 339.662 303.911 340.318 303.149 340.786C302.387 341.255 301.494 341.489 300.471 341.489ZM300.479 339.707C301.141 339.707 301.691 339.532 302.126 339.181C302.562 338.831 302.884 338.364 303.092 337.782C303.305 337.2 303.412 336.558 303.412 335.857C303.412 335.161 303.305 334.522 303.092 333.94C302.884 333.353 302.562 332.882 302.126 332.526C301.691 332.171 301.141 331.994 300.479 331.994C299.811 331.994 299.257 332.171 298.817 332.526C298.381 332.882 298.057 333.353 297.844 333.94C297.635 334.522 297.531 335.161 297.531 335.857C297.531 336.558 297.635 337.2 297.844 337.782C298.057 338.364 298.381 338.831 298.817 339.181C299.257 339.532 299.811 339.707 300.479 339.707ZM307.927 341.269V330.36H310.051V341.269H307.927ZM309 328.677C308.63 328.677 308.313 328.554 308.048 328.308C307.787 328.057 307.657 327.758 307.657 327.413C307.657 327.062 307.787 326.764 308.048 326.518C308.313 326.267 308.63 326.141 309 326.141C309.369 326.141 309.684 326.267 309.944 326.518C310.209 326.764 310.342 327.062 310.342 327.413C310.342 327.758 310.209 328.057 309.944 328.308C309.684 328.554 309.369 328.677 309 328.677ZM317.503 341.489C316.447 341.489 315.538 341.25 314.775 340.772C314.018 340.289 313.435 339.624 313.028 338.776C312.621 337.929 312.417 336.958 312.417 335.864C312.417 334.757 312.626 333.779 313.042 332.931C313.459 332.079 314.046 331.414 314.804 330.935C315.561 330.457 316.454 330.218 317.481 330.218C318.31 330.218 319.049 330.372 319.697 330.68C320.346 330.983 320.869 331.409 321.267 331.958C321.669 332.507 321.908 333.149 321.984 333.883H319.917C319.804 333.372 319.543 332.931 319.136 332.562C318.734 332.193 318.194 332.008 317.517 332.008C316.925 332.008 316.407 332.164 315.962 332.477C315.521 332.784 315.178 333.225 314.932 333.798C314.685 334.366 314.562 335.038 314.562 335.815C314.562 336.61 314.683 337.297 314.925 337.874C315.166 338.452 315.507 338.899 315.947 339.217C316.392 339.534 316.916 339.693 317.517 339.693C317.919 339.693 318.284 339.619 318.611 339.472C318.942 339.321 319.219 339.105 319.442 338.826C319.669 338.547 319.828 338.211 319.917 337.818H321.984C321.908 338.523 321.679 339.153 321.295 339.707C320.912 340.261 320.398 340.696 319.754 341.014C319.115 341.331 318.364 341.489 317.503 341.489ZM328.957 341.489C327.882 341.489 326.956 341.26 326.18 340.801C325.408 340.337 324.812 339.685 324.39 338.847C323.973 338.005 323.765 337.017 323.765 335.886C323.765 334.768 323.973 333.783 324.39 332.931C324.812 332.079 325.399 331.414 326.152 330.935C326.909 330.457 327.794 330.218 328.808 330.218C329.423 330.218 330.02 330.32 330.598 330.524C331.175 330.727 331.694 331.047 332.153 331.482C332.612 331.918 332.974 332.484 333.24 333.18C333.505 333.871 333.637 334.712 333.637 335.701V336.454H324.965V334.863H331.556C331.556 334.304 331.443 333.81 331.215 333.379C330.988 332.943 330.669 332.6 330.257 332.349C329.849 332.098 329.371 331.972 328.822 331.972C328.225 331.972 327.705 332.119 327.259 332.413C326.819 332.702 326.478 333.08 326.237 333.549C326 334.013 325.882 334.517 325.882 335.062V336.305C325.882 337.034 326.009 337.654 326.265 338.166C326.526 338.677 326.888 339.068 327.352 339.337C327.816 339.603 328.358 339.735 328.978 339.735C329.381 339.735 329.748 339.678 330.079 339.565C330.41 339.446 330.697 339.271 330.938 339.039C331.18 338.807 331.365 338.521 331.492 338.18L333.502 338.542C333.341 339.134 333.053 339.652 332.636 340.097C332.224 340.538 331.705 340.881 331.08 341.127C330.46 341.369 329.752 341.489 328.957 341.489Z" fill="#3F4346"/>
</g>
<g filter="url(#filter3_d_2077_28743)">
<rect x="40" y="210" width="198.549" height="48.6197" rx="24.3099" fill="white" shape-rendering="crispEdges"/>
<path d="M60.6198 229.31C60.6198 226.548 62.8583 224.31 65.6198 224.31H80.6198V234.548C80.6198 237.309 78.3812 239.548 75.6198 239.548H65.3817L60.6198 244.31V229.31Z" fill="#3A73B5"/>
<path d="M68.2389 232.929C68.2389 233.718 67.5993 234.357 66.8103 234.357C66.0213 234.357 65.3817 233.718 65.3817 232.929C65.3817 232.14 66.0213 231.5 66.8103 231.5C67.5993 231.5 68.2389 232.14 68.2389 232.929Z" fill="#0D4680"/>
<path d="M73.0484 232.929C73.0484 233.718 72.4088 234.357 71.6199 234.357C70.8309 234.357 70.1913 233.718 70.1913 232.929C70.1913 232.14 70.8309 231.5 71.6199 231.5C72.4088 231.5 73.0484 232.14 73.0484 232.929Z" fill="#0D4680"/>
<path d="M77.8578 232.929C77.8578 233.718 77.2182 234.357 76.4292 234.357C75.6402 234.357 75.0006 233.718 75.0006 232.929C75.0006 232.14 75.6402 231.5 76.4292 231.5C77.2182 231.5 77.8578 232.14 77.8578 232.929Z" fill="#0D4680"/>
<path d="M67.2389 231.929C67.2389 232.718 66.5993 233.357 65.8103 233.357C65.0213 233.357 64.3817 232.718 64.3817 231.929C64.3817 231.14 65.0213 230.5 65.8103 230.5C66.5993 230.5 67.2389 231.14 67.2389 231.929Z" fill="white"/>
<path d="M72.0484 231.929C72.0484 232.718 71.4088 233.357 70.6199 233.357C69.8309 233.357 69.1913 232.718 69.1913 231.929C69.1913 231.14 69.8309 230.5 70.6199 230.5C71.4088 230.5 72.0484 231.14 72.0484 231.929Z" fill="white"/>
<path d="M76.8578 231.929C76.8578 232.718 76.2182 233.357 75.4292 233.357C74.6402 233.357 74.0006 232.718 74.0006 231.929C74.0006 231.14 74.6402 230.5 75.4292 230.5C76.2182 230.5 76.8578 231.14 76.8578 231.929Z" fill="white"/>
<path d="M101.461 230.585C101.385 229.913 101.073 229.392 100.523 229.023C99.9741 228.649 99.2828 228.462 98.4495 228.462C97.8529 228.462 97.3368 228.556 96.9012 228.746C96.4656 228.931 96.127 229.186 95.8855 229.513C95.6488 229.835 95.5304 230.202 95.5304 230.614C95.5304 230.959 95.6109 231.258 95.7719 231.509C95.9376 231.76 96.1531 231.97 96.4182 232.141C96.6881 232.306 96.9769 232.446 97.2847 232.56C97.5924 232.669 97.8884 232.759 98.1725 232.83L99.5929 233.199C100.057 233.313 100.533 233.467 101.02 233.661C101.508 233.855 101.96 234.11 102.377 234.428C102.794 234.745 103.13 235.138 103.386 235.607C103.646 236.075 103.776 236.637 103.776 237.29C103.776 238.114 103.563 238.845 103.137 239.485C102.716 240.124 102.102 240.628 101.297 240.997C100.497 241.367 99.529 241.551 98.3926 241.551C97.3036 241.551 96.3614 241.378 95.5659 241.033C94.7705 240.687 94.1478 240.197 93.698 239.563C93.2482 238.923 92.9996 238.166 92.9523 237.29H95.154C95.1966 237.815 95.3671 238.253 95.6654 238.604C95.9684 238.949 96.3543 239.208 96.823 239.378C97.2965 239.544 97.815 239.627 98.3784 239.627C98.9987 239.627 99.5503 239.53 100.033 239.335C100.521 239.137 100.904 238.862 101.184 238.512C101.463 238.156 101.603 237.742 101.603 237.269C101.603 236.838 101.48 236.485 101.234 236.21C100.992 235.936 100.663 235.708 100.246 235.529C99.8344 235.349 99.368 235.19 98.8472 235.053L97.1284 234.584C95.9637 234.267 95.0404 233.8 94.3585 233.185C93.6815 232.569 93.3429 231.755 93.3429 230.742C93.3429 229.904 93.5702 229.172 94.0247 228.547C94.4793 227.922 95.0948 227.437 95.8713 227.091C96.6478 226.741 97.5238 226.565 98.4992 226.565C99.484 226.565 100.353 226.738 101.106 227.084C101.863 227.43 102.46 227.905 102.895 228.512C103.331 229.113 103.558 229.804 103.577 230.585H101.461ZM110.93 241.53C109.855 241.53 108.929 241.3 108.153 240.841C107.381 240.377 106.785 239.726 106.363 238.888C105.946 238.045 105.738 237.058 105.738 235.926C105.738 234.809 105.946 233.824 106.363 232.972C106.785 232.119 107.372 231.454 108.125 230.976C108.882 230.498 109.768 230.259 110.781 230.259C111.396 230.259 111.993 230.36 112.571 230.564C113.148 230.768 113.667 231.087 114.126 231.523C114.585 231.958 114.947 232.524 115.213 233.22C115.478 233.912 115.61 234.752 115.61 235.742V236.494H106.938V234.904H113.529C113.529 234.345 113.416 233.85 113.188 233.419C112.961 232.984 112.642 232.64 112.23 232.389C111.822 232.138 111.344 232.013 110.795 232.013C110.198 232.013 109.678 232.16 109.232 232.453C108.792 232.742 108.451 233.121 108.21 233.59C107.973 234.054 107.855 234.558 107.855 235.102V236.345C107.855 237.074 107.982 237.695 108.238 238.206C108.499 238.717 108.861 239.108 109.325 239.378C109.789 239.643 110.331 239.776 110.951 239.776C111.354 239.776 111.721 239.719 112.052 239.605C112.384 239.487 112.67 239.312 112.911 239.08C113.153 238.848 113.338 238.561 113.465 238.22L115.475 238.583C115.314 239.174 115.026 239.693 114.609 240.138C114.197 240.578 113.679 240.922 113.054 241.168C112.433 241.409 111.725 241.53 110.93 241.53ZM120.09 234.833V241.31H117.966V230.401H120.005V232.176H120.14C120.391 231.599 120.784 231.135 121.319 230.784C121.859 230.434 122.538 230.259 123.357 230.259C124.1 230.259 124.752 230.415 125.31 230.727C125.869 231.035 126.302 231.494 126.61 232.105C126.918 232.716 127.072 233.471 127.072 234.371V241.31H124.948V234.627C124.948 233.836 124.742 233.218 124.33 232.773C123.918 232.323 123.352 232.098 122.633 232.098C122.14 232.098 121.702 232.205 121.319 232.418C120.94 232.631 120.639 232.943 120.417 233.355C120.199 233.762 120.09 234.255 120.09 234.833ZM134.003 241.523C133.123 241.523 132.337 241.298 131.645 240.848C130.959 240.394 130.419 239.747 130.026 238.909C129.638 238.066 129.444 237.056 129.444 235.877C129.444 234.698 129.64 233.689 130.033 232.851C130.431 232.013 130.975 231.371 131.667 230.926C132.358 230.481 133.142 230.259 134.018 230.259C134.695 230.259 135.239 230.372 135.651 230.6C136.068 230.822 136.39 231.083 136.617 231.381C136.849 231.679 137.029 231.942 137.157 232.169H137.285V226.764H139.408V241.31H137.334V239.612H137.157C137.029 239.844 136.844 240.11 136.603 240.408C136.366 240.706 136.039 240.967 135.623 241.189C135.206 241.412 134.666 241.523 134.003 241.523ZM134.472 239.712C135.083 239.712 135.599 239.551 136.02 239.229C136.447 238.902 136.769 238.45 136.986 237.872C137.209 237.295 137.32 236.622 137.32 235.855C137.32 235.098 137.211 234.435 136.993 233.867C136.776 233.298 136.456 232.856 136.035 232.539C135.613 232.221 135.092 232.063 134.472 232.063C133.833 232.063 133.3 232.228 132.874 232.56C132.448 232.891 132.126 233.343 131.908 233.916C131.695 234.489 131.589 235.136 131.589 235.855C131.589 236.584 131.698 237.24 131.915 237.823C132.133 238.405 132.455 238.867 132.881 239.208C133.312 239.544 133.842 239.712 134.472 239.712ZM160.538 234.037C160.538 235.59 160.253 236.925 159.685 238.043C159.117 239.155 158.338 240.012 157.349 240.614C156.364 241.21 155.244 241.509 153.989 241.509C152.73 241.509 151.605 241.21 150.616 240.614C149.631 240.012 148.854 239.153 148.286 238.036C147.718 236.918 147.434 235.585 147.434 234.037C147.434 232.484 147.718 231.151 148.286 230.039C148.854 228.921 149.631 228.064 150.616 227.467C151.605 226.866 152.73 226.565 153.989 226.565C155.244 226.565 156.364 226.866 157.349 227.467C158.338 228.064 159.117 228.921 159.685 230.039C160.253 231.151 160.538 232.484 160.538 234.037ZM158.364 234.037C158.364 232.853 158.172 231.857 157.789 231.047C157.41 230.233 156.889 229.617 156.226 229.2C155.568 228.779 154.823 228.568 153.989 228.568C153.151 228.568 152.403 228.779 151.745 229.2C151.087 229.617 150.566 230.233 150.182 231.047C149.804 231.857 149.614 232.853 149.614 234.037C149.614 235.221 149.804 236.22 150.182 237.034C150.566 237.844 151.087 238.459 151.745 238.881C152.403 239.298 153.151 239.506 153.989 239.506C154.823 239.506 155.568 239.298 156.226 238.881C156.889 238.459 157.41 237.844 157.789 237.034C158.172 236.22 158.364 235.221 158.364 234.037ZM161.931 228.654V226.764H173.188V228.654H168.65V241.31H166.463V228.654H161.931ZM175.676 241.31V226.764H180.861C181.992 226.764 182.93 226.97 183.673 227.382C184.417 227.794 184.973 228.358 185.342 229.073C185.712 229.783 185.896 230.583 185.896 231.473C185.896 232.368 185.709 233.173 185.335 233.888C184.966 234.598 184.407 235.162 183.659 235.578C182.916 235.99 181.98 236.196 180.854 236.196H177.288V234.335H180.655C181.37 234.335 181.95 234.212 182.395 233.966C182.84 233.715 183.167 233.374 183.375 232.943C183.583 232.512 183.687 232.022 183.687 231.473C183.687 230.924 183.583 230.436 183.375 230.01C183.167 229.584 182.837 229.25 182.388 229.009C181.943 228.767 181.355 228.646 180.626 228.646H177.871V241.31H175.676ZM202.924 230.401L198.968 241.31H196.695L192.732 230.401H195.012L197.775 238.796H197.888L200.644 230.401H202.924ZM204.92 241.31V230.401H207.043V241.31H204.92ZM205.992 228.717C205.623 228.717 205.306 228.594 205.04 228.348C204.78 228.097 204.65 227.799 204.65 227.453C204.65 227.103 204.78 226.805 205.04 226.558C205.306 226.307 205.623 226.182 205.992 226.182C206.361 226.182 206.676 226.307 206.937 226.558C207.202 226.805 207.334 227.103 207.334 227.453C207.334 227.799 207.202 228.097 206.937 228.348C206.676 228.594 206.361 228.717 205.992 228.717ZM213.075 241.551C212.384 241.551 211.759 241.423 211.2 241.168C210.641 240.907 210.198 240.531 209.872 240.039C209.55 239.546 209.389 238.942 209.389 238.227C209.389 237.612 209.507 237.105 209.744 236.708C209.981 236.31 210.3 235.995 210.703 235.763C211.105 235.531 211.555 235.356 212.052 235.237C212.549 235.119 213.056 235.029 213.572 234.967C214.225 234.892 214.756 234.83 215.163 234.783C215.57 234.731 215.866 234.648 216.051 234.534C216.235 234.421 216.328 234.236 216.328 233.98V233.931C216.328 233.31 216.152 232.83 215.802 232.489C215.456 232.148 214.94 231.977 214.254 231.977C213.539 231.977 212.975 232.136 212.563 232.453C212.156 232.766 211.875 233.114 211.718 233.497L209.723 233.043C209.959 232.38 210.305 231.845 210.759 231.438C211.219 231.026 211.747 230.727 212.343 230.543C212.94 230.353 213.567 230.259 214.225 230.259C214.661 230.259 215.123 230.311 215.61 230.415C216.103 230.514 216.562 230.699 216.988 230.969C217.419 231.239 217.772 231.625 218.046 232.127C218.321 232.624 218.458 233.27 218.458 234.065V241.31H216.384V239.818H216.299C216.162 240.093 215.956 240.363 215.681 240.628C215.407 240.893 215.054 241.113 214.623 241.289C214.192 241.464 213.676 241.551 213.075 241.551ZM213.536 239.847C214.124 239.847 214.625 239.731 215.042 239.499C215.464 239.267 215.783 238.964 216.001 238.59C216.223 238.211 216.335 237.806 216.335 237.375V235.969C216.259 236.045 216.112 236.116 215.894 236.182C215.681 236.244 215.437 236.298 215.163 236.345C214.888 236.388 214.621 236.428 214.36 236.466C214.1 236.499 213.882 236.528 213.707 236.551C213.295 236.603 212.919 236.691 212.578 236.814C212.241 236.937 211.972 237.115 211.768 237.347C211.569 237.574 211.47 237.877 211.47 238.256C211.47 238.781 211.664 239.179 212.052 239.449C212.44 239.714 212.935 239.847 213.536 239.847Z" fill="#3F4346"/>
</g>
<path d="M242.549 233.56C242.135 233.56 241.799 233.896 241.799 234.31C241.799 234.724 242.135 235.06 242.549 235.06V233.56ZM371.53 234.84C371.823 234.547 371.823 234.072 371.53 233.779L366.757 229.007C366.465 228.714 365.99 228.714 365.697 229.007C365.404 229.299 365.404 229.774 365.697 230.067L369.939 234.31L365.697 238.552C365.404 238.845 365.404 239.32 365.697 239.613C365.99 239.906 366.465 239.906 366.757 239.613L371.53 234.84ZM242.549 235.06H371V233.56H242.549V235.06Z" fill="#1E75BA"/>
<path d="M242.549 233.56C242.135 233.56 241.799 233.896 241.799 234.31C241.799 234.724 242.135 235.06 242.549 235.06V233.56ZM285.8 168.008C285.507 167.715 285.032 167.715 284.739 168.008L279.966 172.781C279.673 173.074 279.673 173.549 279.966 173.842C280.259 174.135 280.734 174.135 281.027 173.842L285.269 169.599L289.512 173.842C289.805 174.135 290.28 174.135 290.573 173.842C290.866 173.549 290.866 173.074 290.573 172.781L285.8 168.008ZM242.549 235.06H261.269V233.56H242.549V235.06ZM286.019 210.31V168.539H284.519V210.31H286.019ZM261.269 235.06C274.938 235.06 286.019 223.979 286.019 210.31H284.519C284.519 223.151 274.11 233.56 261.269 233.56V235.06Z" fill="#1E75BA"/>
<path d="M242.549 233.56C242.135 233.56 241.799 233.896 241.799 234.31C241.799 234.724 242.135 235.06 242.549 235.06V233.56ZM285.739 296.53C286.032 296.823 286.507 296.823 286.8 296.53L291.573 291.757C291.866 291.464 291.866 290.99 291.573 290.697C291.28 290.404 290.805 290.404 290.512 290.697L286.269 294.939L282.027 290.697C281.734 290.404 281.259 290.404 280.966 290.697C280.673 290.99 280.673 291.464 280.966 291.757L285.739 296.53ZM242.549 235.06H262.269V233.56H242.549V235.06ZM285.519 258.31V296H287.019V258.31H285.519ZM262.269 235.06C275.11 235.06 285.519 245.469 285.519 258.31H287.019C287.019 244.641 275.938 233.56 262.269 233.56V235.06Z" fill="#1E75BA"/>
<defs>
<filter id="filter0_d_2077_28743" x="371.346" y="200" width="151.846" height="75.8463" filterUnits="userSpaceOnUse" color-interpolation-filters="sRGB">
<feFlood flood-opacity="0" result="BackgroundImageFix"/>
<feColorMatrix in="SourceAlpha" type="matrix" values="0 0 0 0 0 0 0 0 0 0 0 0 0 0 0 0 0 0 127 0" result="hardAlpha"/>
<feOffset dy="3.65385"/>
<feGaussianBlur stdDeviation="1.82693"/>
<feComposite in2="hardAlpha" operator="out"/>
<feColorMatrix type="matrix" values="0 0 0 0 0 0 0 0 0 0 0 0 0 0 0 0 0 0 0.25 0"/>
<feBlend mode="normal" in2="BackgroundImageFix" result="effect1_dropShadow_2077_28743"/>
<feBlend mode="normal" in="SourceGraphic" in2="effect1_dropShadow_2077_28743" result="shape"/>
</filter>
<filter id="filter1_d_2077_28743" x="213.346" y="100" width="143.846" height="75.8462" filterUnits="userSpaceOnUse" color-interpolation-filters="sRGB">
<feFlood flood-opacity="0" result="BackgroundImageFix"/>
<feColorMatrix in="SourceAlpha" type="matrix" values="0 0 0 0 0 0 0 0 0 0 0 0 0 0 0 0 0 0 127 0" result="hardAlpha"/>
<feOffset dy="3.65385"/>
<feGaussianBlur stdDeviation="1.82693"/>
<feComposite in2="hardAlpha" operator="out"/>
<feColorMatrix type="matrix" values="0 0 0 0 0 0 0 0 0 0 0 0 0 0 0 0 0 0 0.25 0"/>
<feBlend mode="normal" in2="BackgroundImageFix" result="effect1_dropShadow_2077_28743"/>
<feBlend mode="normal" in="SourceGraphic" in2="effect1_dropShadow_2077_28743" result="shape"/>
</filter>
<filter id="filter2_d_2077_28743" x="209.346" y="300" width="153.846" height="75.8463" filterUnits="userSpaceOnUse" color-interpolation-filters="sRGB">
<feFlood flood-opacity="0" result="BackgroundImageFix"/>
<feColorMatrix in="SourceAlpha" type="matrix" values="0 0 0 0 0 0 0 0 0 0 0 0 0 0 0 0 0 0 127 0" result="hardAlpha"/>
<feOffset dy="3.65385"/>
<feGaussianBlur stdDeviation="1.82693"/>
<feComposite in2="hardAlpha" operator="out"/>
<feColorMatrix type="matrix" values="0 0 0 0 0 0 0 0 0 0 0 0 0 0 0 0 0 0 0.25 0"/>
<feBlend mode="normal" in2="BackgroundImageFix" result="effect1_dropShadow_2077_28743"/>
<feBlend mode="normal" in="SourceGraphic" in2="effect1_dropShadow_2077_28743" result="shape"/>
</filter>
<filter id="filter3_d_2077_28743" x="35.3451" y="210" width="207.859" height="57.9296" filterUnits="userSpaceOnUse" color-interpolation-filters="sRGB">
<feFlood flood-opacity="0" result="BackgroundImageFix"/>
<feColorMatrix in="SourceAlpha" type="matrix" values="0 0 0 0 0 0 0 0 0 0 0 0 0 0 0 0 0 0 127 0" result="hardAlpha"/>
<feOffset dy="4.65493"/>
<feGaussianBlur stdDeviation="2.32746"/>
<feComposite in2="hardAlpha" operator="out"/>
<feColorMatrix type="matrix" values="0 0 0 0 0 0 0 0 0 0 0 0 0 0 0 0 0 0 0.25 0"/>
<feBlend mode="normal" in2="BackgroundImageFix" result="effect1_dropShadow_2077_28743"/>
<feBlend mode="normal" in="SourceGraphic" in2="effect1_dropShadow_2077_28743" result="shape"/>
</filter>
</defs>
</svg>
