<svg width="40" height="41" viewBox="0 0 40 41" fill="none" xmlns="http://www.w3.org/2000/svg">
<path d="M31.6667 5.5H8.33333C6.5 5.5 5 7 5 8.83333V32.1667C5 34 6.5 35.5 8.33333 35.5H31.6667C33.5 35.5 35 34 35 32.1667V8.83333C35 7 33.5 5.5 31.6667 5.5ZM31.6667 32.1667H8.33333V8.83333H31.6667V32.1667Z" fill="#F2CA55"/>
<path d="M15 20.5H11.6667V28.8333H15V20.5Z" fill="#F2CA55"/>
<path d="M28.3333 12.1667H25V28.8333H28.3333V12.1667Z" fill="#F2CA55"/>
<path d="M21.6667 23.8333H18.3333V28.8333H21.6667V23.8333Z" fill="#F2CA55"/>
<path d="M21.6667 17.1667H18.3333V20.5H21.6667V17.1667Z" fill="#F2CA55"/>
</svg>
