<svg width="40" height="40" viewBox="0 0 40 40" fill="none" xmlns="http://www.w3.org/2000/svg">
<path d="M33.3334 15.8334V12.5C33.3334 10.6667 31.8334 9.16669 30.0001 9.16669H25.0001C25.0001 6.40002 22.7667 4.16669 20.0001 4.16669C17.2334 4.16669 15.0001 6.40002 15.0001 9.16669H10.0001C8.16675 9.16669 6.66675 10.6667 6.66675 12.5V15.8334C3.90008 15.8334 1.66675 18.0667 1.66675 20.8334C1.66675 23.6 3.90008 25.8334 6.66675 25.8334V32.5C6.66675 34.3334 8.16675 35.8334 10.0001 35.8334H30.0001C31.8334 35.8334 33.3334 34.3334 33.3334 32.5V25.8334C36.1001 25.8334 38.3334 23.6 38.3334 20.8334C38.3334 18.0667 36.1001 15.8334 33.3334 15.8334ZM30.0001 32.5H10.0001V12.5H30.0001V32.5ZM15.0001 22.5C13.6167 22.5 12.5001 21.3834 12.5001 20C12.5001 18.6167 13.6167 17.5 15.0001 17.5C16.3834 17.5 17.5001 18.6167 17.5001 20C17.5001 21.3834 16.3834 22.5 15.0001 22.5ZM27.5001 20C27.5001 21.3834 26.3834 22.5 25.0001 22.5C23.6167 22.5 22.5001 21.3834 22.5001 20C22.5001 18.6167 23.6167 17.5 25.0001 17.5C26.3834 17.5 27.5001 18.6167 27.5001 20ZM13.3334 25.8334H26.6667V29.1667H13.3334V25.8334Z" fill="#F2CA55"/>
</svg>
