<svg width="40" height="40" viewBox="0 0 40 40" fill="none" xmlns="http://www.w3.org/2000/svg">
<path d="M19.0918 29.5666C13.7918 29.3166 9.57511 24.95 9.57511 19.5833C9.57511 14.0666 14.0584 9.58329 19.5751 9.58329C24.9418 9.58329 29.3084 13.8 29.5584 19.1L26.0584 18.05C25.3751 15.1 22.7251 12.9166 19.5751 12.9166C15.8918 12.9166 12.9084 15.9 12.9084 19.5833C12.9084 22.7333 15.0918 25.3833 18.0418 26.0666L19.0918 29.5666ZM36.2418 19.5833C36.2418 20.0833 36.2251 20.5833 36.1751 21.0833L32.8918 20.1C32.9084 19.9333 32.9084 19.75 32.9084 19.5833C32.9084 12.2166 26.9418 6.24996 19.5751 6.24996C12.2084 6.24996 6.24178 12.2166 6.24178 19.5833C6.24178 26.95 12.2084 32.9166 19.5751 32.9166C19.7418 32.9166 19.9251 32.9166 20.0918 32.9L21.0751 36.1833C20.5751 36.2333 20.0751 36.25 19.5751 36.25C10.3751 36.25 2.90845 28.7833 2.90845 19.5833C2.90845 10.3833 10.3751 2.91663 19.5751 2.91663C28.7751 2.91663 36.2418 10.3833 36.2418 19.5833ZM29.9584 26.6833L36.2418 24.5833L19.5751 19.5833L24.5751 36.25L26.6751 29.9666L33.7918 37.0833L37.0918 33.7833L29.9584 26.6833Z" fill="#F2CA55"/>
</svg>
