<svg width="40" height="40" viewBox="0 0 40 40" fill="none" xmlns="http://www.w3.org/2000/svg">
<path d="M33.3333 30.0001C35.1667 30.0001 36.65 28.5001 36.65 26.6667L36.6667 10.0001C36.6667 8.15008 35.1667 6.66675 33.3333 6.66675H6.66667C4.81667 6.66675 3.33333 8.15008 3.33333 10.0001V26.6667C3.33333 28.5001 4.81667 30.0001 6.66667 30.0001H0V33.3334H40V30.0001H33.3333ZM6.66667 26.6667V10.0001H33.3333V26.6834L6.66667 26.6667ZM21.6667 15.2167C15.1833 16.1167 12.6 20.5501 11.6667 25.0001C13.9833 21.8834 17.0333 20.4667 21.6667 20.4667V24.1167L28.3333 17.8834L21.6667 11.6667V15.2167Z" fill="#F2CA55"/>
</svg>
