<svg width="520" height="261" viewBox="0 0 520 261" fill="none" xmlns="http://www.w3.org/2000/svg">
<g clip-path="url(#clip0_9480_3029)">
<rect y="0.5" width="520" height="260" rx="12" fill="#E2F0FF"/>
<rect width="260" height="260" transform="translate(0 0.5)" fill="#1E75BA"/>
<rect x="80" y="80.5" width="100" height="100" rx="12" fill="white"/>
<rect width="68" height="68" transform="translate(96 96.5)" fill="white"/>
<path fill-rule="evenodd" clip-rule="evenodd" d="M101.919 124.602L157.969 105.016C158.048 104.99 158.133 104.996 158.207 105.032C158.281 105.068 158.338 105.132 158.366 105.21C158.378 105.244 158.384 105.279 158.384 105.315V155.684C158.384 155.768 158.35 155.848 158.291 155.907C158.232 155.967 158.151 156 158.067 156H158.026L101.967 153.266C101.886 153.262 101.809 153.227 101.753 153.168C101.698 153.109 101.667 153.031 101.667 152.95V124.911C101.667 124.839 101.692 124.768 101.738 124.712C101.784 124.656 101.848 124.617 101.919 124.602ZM108.038 129.996C107.761 129.943 107.474 129.996 107.233 130.143C106.992 130.29 106.815 130.523 106.736 130.794C106.657 131.065 106.682 131.356 106.807 131.609C106.931 131.863 107.146 132.061 107.408 132.165L127.887 138.087L128.344 137.709L148.737 120.884C148.869 120.796 148.981 120.682 149.066 120.548C149.151 120.414 149.206 120.264 149.229 120.107C149.253 119.95 149.243 119.79 149.2 119.638C149.158 119.485 149.084 119.343 148.983 119.221C148.883 119.098 148.757 118.998 148.616 118.927C148.474 118.856 148.319 118.816 148.161 118.808C148.003 118.801 147.844 118.827 147.697 118.884C147.549 118.942 147.415 119.029 147.303 119.142L127.37 135.592L108.038 129.996Z" fill="#1E75BA"/>
<rect width="260" height="260" transform="translate(260 0.5)" fill="#EBEBEB"/>
<rect x="340" y="80.5" width="100" height="100" rx="12" fill="white"/>
<path d="M381.869 142.749V141.71C381.89 138.147 382.205 135.307 382.816 133.19C383.447 131.072 384.363 129.362 385.565 128.059C386.766 126.756 388.211 125.575 389.901 124.516C391.164 123.702 392.294 122.857 393.291 121.982C394.289 121.106 395.083 120.139 395.673 119.08C396.264 118.001 396.559 116.8 396.559 115.477C396.559 114.072 396.223 112.84 395.551 111.781C394.879 110.723 393.973 109.908 392.833 109.338C391.713 108.768 390.471 108.483 389.107 108.483C387.784 108.483 386.532 108.778 385.351 109.369C384.17 109.939 383.203 110.794 382.45 111.934C381.696 113.054 381.289 114.448 381.228 116.118H368.768C368.87 112.046 369.847 108.687 371.7 106.04C373.552 103.373 376.006 101.388 379.06 100.085C382.114 98.7611 385.483 98.0994 389.168 98.0994C393.22 98.0994 396.803 98.7713 399.918 100.115C403.033 101.438 405.477 103.362 407.248 105.887C409.019 108.412 409.905 111.455 409.905 115.018C409.905 117.401 409.508 119.518 408.714 121.371C407.94 123.203 406.851 124.832 405.446 126.257C404.041 127.662 402.382 128.934 400.468 130.075C398.86 131.031 397.536 132.029 396.498 133.067C395.48 134.106 394.716 135.307 394.207 136.671C393.719 138.035 393.464 139.715 393.444 141.71V142.749H381.869ZM387.916 162.294C385.88 162.294 384.139 161.581 382.694 160.156C381.269 158.711 380.566 156.98 380.587 154.964C380.566 152.969 381.269 151.259 382.694 149.834C384.139 148.409 385.88 147.696 387.916 147.696C389.85 147.696 391.55 148.409 393.016 149.834C394.482 151.259 395.225 152.969 395.246 154.964C395.225 156.308 394.869 157.54 394.177 158.66C393.505 159.759 392.619 160.645 391.52 161.317C390.42 161.968 389.219 162.294 387.916 162.294Z" fill="#808080"/>
<rect x="240" y="110.5" width="39" height="39" rx="4" fill="white"/>
<path d="M259.102 126.773L256.051 135.5H253.324L250.273 126.773H252.83L254.642 133.017H254.733L256.54 126.773H259.102ZM267.602 129.261L265.386 129.398C265.348 129.208 265.267 129.038 265.142 128.886C265.017 128.731 264.852 128.608 264.648 128.517C264.447 128.422 264.206 128.375 263.926 128.375C263.551 128.375 263.235 128.455 262.977 128.614C262.72 128.769 262.591 128.977 262.591 129.239C262.591 129.447 262.674 129.623 262.841 129.767C263.008 129.911 263.294 130.027 263.699 130.114L265.278 130.432C266.127 130.606 266.759 130.886 267.176 131.273C267.593 131.659 267.801 132.167 267.801 132.795C267.801 133.367 267.633 133.869 267.295 134.301C266.962 134.733 266.504 135.07 265.92 135.312C265.341 135.551 264.672 135.67 263.915 135.67C262.759 135.67 261.839 135.43 261.153 134.949C260.472 134.464 260.072 133.805 259.955 132.972L262.335 132.847C262.407 133.199 262.581 133.468 262.858 133.653C263.134 133.835 263.489 133.926 263.92 133.926C264.345 133.926 264.686 133.845 264.943 133.682C265.205 133.515 265.337 133.301 265.341 133.04C265.337 132.82 265.244 132.64 265.062 132.5C264.881 132.356 264.6 132.246 264.222 132.17L262.71 131.869C261.858 131.699 261.223 131.403 260.807 130.983C260.394 130.562 260.188 130.027 260.188 129.375C260.188 128.814 260.339 128.331 260.642 127.926C260.949 127.521 261.379 127.208 261.932 126.989C262.489 126.769 263.14 126.659 263.886 126.659C264.989 126.659 265.856 126.892 266.489 127.358C267.125 127.824 267.496 128.458 267.602 129.261Z" fill="black"/>
</g>
<defs>
<clipPath id="clip0_9480_3029">
<rect y="0.5" width="520" height="260" rx="12" fill="white"/>
</clipPath>
</defs>
</svg>
