<svg width="266" height="249" viewBox="0 0 266 249" fill="none" xmlns="http://www.w3.org/2000/svg">
<g filter="url(#filter0_d_4482_7618)">
<path d="M225.618 21.5H171.042C167.698 22.1182 166.295 24.6768 166.062 25.8789C165.985 29.0557 165.979 36.2852 166.165 39.7883C166.351 43.2914 169.494 44.854 171.042 45.1975H233.282C230.495 42.9307 230.198 39.9703 230.16 38.7579C230.083 36.268 230.077 30.6184 230.263 26.9092C230.448 23.2 227.244 21.7576 225.618 21.5Z" fill="#F2CA55"/>
<path d="M175.524 38.2707V28.979H176.746V33.1197H181.398V28.979H182.633V38.2707H181.398V34.2422H176.746V38.2707H175.524ZM187.651 38.4204C187.002 38.4204 186.424 38.2665 185.917 37.9589C185.41 37.6512 185.011 37.2314 184.72 36.6992C184.429 36.1588 184.283 35.5559 184.283 34.8908C184.283 34.2173 184.425 33.6186 184.708 33.0948C184.999 32.571 185.389 32.1594 185.88 31.8601C186.379 31.5524 186.936 31.3986 187.551 31.3986C188.05 31.3986 188.491 31.4901 188.873 31.673C189.264 31.8476 189.592 32.0887 189.858 32.3964C190.133 32.6957 190.341 33.0408 190.482 33.4315C190.632 33.814 190.707 34.2131 190.707 34.6289C190.707 34.7203 190.698 34.8243 190.682 34.9407C190.673 35.0487 190.661 35.1527 190.644 35.2525H185.132V34.2547H189.971L189.422 34.7037C189.497 34.2713 189.455 33.8847 189.297 33.5438C189.139 33.2029 188.906 32.9327 188.599 32.7331C188.291 32.5336 187.942 32.4338 187.551 32.4338C187.16 32.4338 186.803 32.5336 186.479 32.7331C186.154 32.9327 185.901 33.2195 185.718 33.5937C185.543 33.9595 185.472 34.396 185.506 34.9032C185.472 35.3938 185.547 35.8262 185.73 36.2003C185.921 36.5662 186.188 36.853 186.528 37.0609C186.878 37.2605 187.256 37.3602 187.663 37.3602C188.112 37.3602 188.491 37.2563 188.798 37.0484C189.106 36.8406 189.355 36.5745 189.547 36.2502L190.519 36.7491C190.386 37.0567 190.179 37.3394 189.896 37.5972C189.621 37.8466 189.293 38.0462 188.911 38.1959C188.536 38.3455 188.117 38.4204 187.651 38.4204ZM192.219 38.2707V28.8294H193.379V38.2707H192.219ZM195.179 38.2707V28.8294H196.338V38.2707H195.179ZM201.331 38.4204C200.683 38.4204 200.096 38.2707 199.573 37.9714C199.049 37.6637 198.633 37.2438 198.325 36.7117C198.018 36.1795 197.864 35.5767 197.864 34.9032C197.864 34.2298 198.014 33.6311 198.313 33.1073C198.62 32.5834 199.036 32.1677 199.56 31.8601C200.084 31.5524 200.674 31.3986 201.331 31.3986C201.98 31.3986 202.566 31.5524 203.09 31.8601C203.613 32.1594 204.025 32.571 204.324 33.0948C204.632 33.6186 204.786 34.2214 204.786 34.9032C204.786 35.585 204.628 36.192 204.312 36.7242C203.996 37.248 203.576 37.6637 203.052 37.9714C202.537 38.2707 201.963 38.4204 201.331 38.4204ZM201.331 37.2979C201.747 37.2979 202.121 37.1939 202.454 36.9861C202.794 36.7782 203.061 36.4913 203.252 36.1255C203.451 35.7597 203.551 35.3522 203.551 34.9032C203.551 34.4459 203.451 34.0427 203.252 33.6935C203.061 33.3359 202.794 33.0532 202.454 32.8454C202.121 32.6292 201.747 32.5211 201.331 32.5211C200.907 32.5211 200.525 32.6292 200.184 32.8454C199.851 33.0532 199.585 33.3359 199.385 33.6935C199.186 34.0427 199.086 34.4459 199.086 34.9032C199.086 35.3522 199.186 35.7597 199.385 36.1255C199.585 36.4913 199.851 36.7782 200.184 36.9861C200.525 37.1939 200.907 37.2979 201.331 37.2979Z" fill="#3F4346"/>
</g>
<g filter="url(#filter1_d_4482_7618)">
<path d="M215.997 59.1974H85.1654C78.8327 59.1974 78.0198 62.2449 77.496 63.465C77.3214 66.6895 77.3082 74.2046 77.7273 77.7603C78.1463 81.3159 81.6735 82.9021 85.1654 83.2507H233.282C226.996 80.9499 227.017 77.886 226.932 76.6554C226.758 74.1281 226.801 67.5974 226.264 63.8529C225.595 59.1974 219.663 59.4589 215.997 59.1974Z" fill="#F2CA55"/>
<path d="M86.0016 76.8185V67.5268H87.2239V76.8185H86.0016ZM91.3088 76.8185V70.0961H92.4437V71.4056L92.2566 71.2934C92.4229 70.8693 92.689 70.5409 93.0548 70.3081C93.429 70.067 93.8655 69.9464 94.3644 69.9464C94.8467 69.9464 95.2749 70.0545 95.649 70.2707C96.0315 70.4868 96.3308 70.7862 96.547 71.1687C96.7715 71.5511 96.8838 71.9835 96.8838 72.4657V76.8185H95.7114V72.8399C95.7114 72.4657 95.6449 72.1498 95.5118 71.892C95.3788 71.6343 95.1876 71.4347 94.9381 71.2934C94.697 71.1437 94.4184 71.0689 94.1025 71.0689C93.7865 71.0689 93.5038 71.1437 93.2544 71.2934C93.0133 71.4347 92.822 71.6384 92.6807 71.9045C92.5393 72.1623 92.4687 72.4741 92.4687 72.8399V76.8185H91.3088ZM101.637 76.9681C100.988 76.9681 100.41 76.8143 99.903 76.5067C99.3958 76.199 98.9967 75.7791 98.7056 75.247C98.4146 74.7066 98.2691 74.1037 98.2691 73.4386C98.2691 72.7651 98.4105 72.1664 98.6932 71.6426C98.9842 71.1188 99.375 70.7072 99.8655 70.4079C100.364 70.1002 100.922 69.9464 101.537 69.9464C102.036 69.9464 102.476 70.0379 102.859 70.2208C103.25 70.3954 103.578 70.6365 103.844 70.9442C104.119 71.2435 104.326 71.5885 104.468 71.9793C104.617 72.3618 104.692 72.7609 104.692 73.1766C104.692 73.2681 104.684 73.372 104.667 73.4884C104.659 73.5965 104.646 73.7005 104.63 73.8002H99.1172V72.8025H103.956L103.408 73.2515C103.482 72.8191 103.441 72.4325 103.283 72.0916C103.125 71.7507 102.892 71.4805 102.584 71.2809C102.277 71.0813 101.928 70.9816 101.537 70.9816C101.146 70.9816 100.788 71.0813 100.464 71.2809C100.14 71.4805 99.8863 71.7673 99.7034 72.1415C99.5288 72.5073 99.4581 72.9438 99.4914 73.451C99.4581 73.9416 99.533 74.374 99.7159 74.7481C99.9071 75.114 100.173 75.4008 100.514 75.6087C100.863 75.8082 101.242 75.908 101.649 75.908C102.098 75.908 102.476 75.8041 102.784 75.5962C103.092 75.3884 103.341 75.1223 103.532 74.798L104.505 75.2969C104.372 75.6045 104.164 75.8872 103.882 76.145C103.607 76.3944 103.279 76.594 102.896 76.7436C102.522 76.8933 102.102 76.9681 101.637 76.9681ZM109.298 76.9681C108.649 76.9681 108.071 76.8143 107.564 76.5067C107.057 76.199 106.658 75.7791 106.367 75.247C106.076 74.7066 105.93 74.1037 105.93 73.4386C105.93 72.7651 106.072 72.1664 106.354 71.6426C106.645 71.1188 107.036 70.7072 107.527 70.4079C108.025 70.1002 108.583 69.9464 109.198 69.9464C109.697 69.9464 110.137 70.0379 110.52 70.2208C110.911 70.3954 111.239 70.6365 111.505 70.9442C111.78 71.2435 111.987 71.5885 112.129 71.9793C112.278 72.3618 112.353 72.7609 112.353 73.1766C112.353 73.2681 112.345 73.372 112.328 73.4884C112.32 73.5965 112.308 73.7005 112.291 73.8002H106.778V72.8025H111.617L111.069 73.2515C111.143 72.8191 111.102 72.4325 110.944 72.0916C110.786 71.7507 110.553 71.4805 110.245 71.2809C109.938 71.0813 109.589 70.9816 109.198 70.9816C108.807 70.9816 108.45 71.0813 108.125 71.2809C107.801 71.4805 107.547 71.7673 107.364 72.1415C107.19 72.5073 107.119 72.9438 107.152 73.451C107.119 73.9416 107.194 74.374 107.377 74.7481C107.568 75.114 107.834 75.4008 108.175 75.6087C108.524 75.8082 108.903 75.908 109.31 75.908C109.759 75.908 110.137 75.8041 110.445 75.5962C110.753 75.3884 111.002 75.1223 111.193 74.798L112.166 75.2969C112.033 75.6045 111.825 75.8872 111.543 76.145C111.268 76.3944 110.94 76.594 110.557 76.7436C110.183 76.8933 109.763 76.9681 109.298 76.9681ZM116.921 76.9681C116.289 76.9681 115.72 76.8143 115.213 76.5067C114.714 76.199 114.319 75.7791 114.028 75.247C113.737 74.7149 113.591 74.1204 113.591 73.4635C113.591 72.79 113.737 72.1914 114.028 71.6675C114.319 71.1354 114.714 70.7155 115.213 70.4079C115.72 70.1002 116.289 69.9464 116.921 69.9464C117.478 69.9464 117.973 70.067 118.405 70.3081C118.838 70.5409 119.179 70.8568 119.428 71.256L119.241 71.5428V67.3772H120.413V76.8185H119.278V75.3842L119.428 75.5838C119.195 76.0244 118.854 76.3653 118.405 76.6065C117.965 76.8476 117.47 76.9681 116.921 76.9681ZM117.021 75.8457C117.445 75.8457 117.823 75.7417 118.156 75.5339C118.489 75.326 118.75 75.0433 118.942 74.6858C119.141 74.3199 119.241 73.9125 119.241 73.4635C119.241 73.0062 119.141 72.5988 118.942 72.2412C118.75 71.8754 118.489 71.5885 118.156 71.3807C117.823 71.1728 117.445 71.0689 117.021 71.0689C116.605 71.0689 116.227 71.177 115.886 71.3931C115.553 71.601 115.292 71.8837 115.1 72.2412C114.909 72.5905 114.813 72.9979 114.813 73.4635C114.813 73.9125 114.909 74.3199 115.1 74.6858C115.292 75.0433 115.553 75.326 115.886 75.5339C116.219 75.7417 116.597 75.8457 117.021 75.8457ZM124.365 76.8185V67.3772H125.524V71.4056L125.312 71.2934C125.479 70.8693 125.745 70.5409 126.111 70.3081C126.485 70.067 126.921 69.9464 127.42 69.9464C127.902 69.9464 128.331 70.0545 128.705 70.2707C129.087 70.4868 129.387 70.7862 129.603 71.1687C129.827 71.5511 129.94 71.9835 129.94 72.4657V76.8185H128.767V72.8399C128.767 72.4657 128.696 72.1498 128.555 71.892C128.422 71.6343 128.235 71.4347 127.994 71.2934C127.753 71.1437 127.474 71.0689 127.158 71.0689C126.851 71.0689 126.572 71.1437 126.323 71.2934C126.073 71.4347 125.878 71.6384 125.736 71.9045C125.595 72.1623 125.524 72.4741 125.524 72.8399V76.8185H124.365ZM134.692 76.9681C134.044 76.9681 133.466 76.8143 132.959 76.5067C132.452 76.199 132.052 75.7791 131.761 75.247C131.47 74.7066 131.325 74.1037 131.325 73.4386C131.325 72.7651 131.466 72.1664 131.749 71.6426C132.04 71.1188 132.431 70.7072 132.921 70.4079C133.42 70.1002 133.977 69.9464 134.593 69.9464C135.091 69.9464 135.532 70.0379 135.915 70.2208C136.305 70.3954 136.634 70.6365 136.9 70.9442C137.174 71.2435 137.382 71.5885 137.523 71.9793C137.673 72.3618 137.748 72.7609 137.748 73.1766C137.748 73.2681 137.74 73.372 137.723 73.4884C137.715 73.5965 137.702 73.7005 137.686 73.8002H132.173V72.8025H137.012L136.463 73.2515C136.538 72.8191 136.497 72.4325 136.339 72.0916C136.181 71.7507 135.948 71.4805 135.64 71.2809C135.333 71.0813 134.983 70.9816 134.593 70.9816C134.202 70.9816 133.844 71.0813 133.52 71.2809C133.196 71.4805 132.942 71.7673 132.759 72.1415C132.585 72.5073 132.514 72.9438 132.547 73.451C132.514 73.9416 132.589 74.374 132.772 74.7481C132.963 75.114 133.229 75.4008 133.57 75.6087C133.919 75.8082 134.297 75.908 134.705 75.908C135.154 75.908 135.532 75.8041 135.84 75.5962C136.147 75.3884 136.397 75.1223 136.588 74.798L137.561 75.2969C137.428 75.6045 137.22 75.8872 136.937 76.145C136.663 76.3944 136.334 76.594 135.952 76.7436C135.578 76.8933 135.158 76.9681 134.692 76.9681ZM139.26 76.8185V67.3772H140.42V76.8185H139.26ZM142.22 79.3129V70.0961H143.355V71.5428L143.205 71.256C143.455 70.8568 143.796 70.5409 144.228 70.3081C144.66 70.067 145.155 69.9464 145.712 69.9464C146.344 69.9464 146.909 70.1002 147.408 70.4079C147.916 70.7155 148.315 71.1354 148.606 71.6675C148.897 72.1914 149.042 72.79 149.042 73.4635C149.042 74.1204 148.897 74.7149 148.606 75.247C148.315 75.7791 147.916 76.199 147.408 76.5067C146.909 76.8143 146.34 76.9681 145.7 76.9681C145.159 76.9681 144.664 76.8476 144.216 76.6065C143.775 76.3653 143.434 76.0244 143.193 75.5838L143.38 75.3842V79.3129H142.22ZM145.612 75.8457C146.036 75.8457 146.415 75.7417 146.747 75.5339C147.08 75.326 147.338 75.0433 147.521 74.6858C147.712 74.3199 147.807 73.9125 147.807 73.4635C147.807 72.9979 147.712 72.5905 147.521 72.2412C147.338 71.8837 147.08 71.601 146.747 71.3931C146.415 71.177 146.036 71.0689 145.612 71.0689C145.188 71.0689 144.806 71.1728 144.465 71.3807C144.132 71.5885 143.866 71.8754 143.667 72.2412C143.475 72.5988 143.38 73.0062 143.38 73.4635C143.38 73.9125 143.475 74.3199 143.667 74.6858C143.866 75.0433 144.132 75.326 144.465 75.5339C144.806 75.7417 145.188 75.8457 145.612 75.8457ZM154.265 76.8185L151.958 70.0961H153.243L155.076 75.7209L154.627 75.7085L156.423 70.0961H157.521L159.317 75.7085L158.868 75.7209L160.713 70.0961H161.986L159.678 76.8185H158.568L156.797 71.2061H157.146L155.375 76.8185H154.265ZM163.023 76.8185V70.0961H164.183V76.8185H163.023ZM163.023 69.0235V67.5268H164.183V69.0235H163.023ZM168.714 76.8933C168.057 76.8933 167.55 76.7062 167.192 76.3321C166.843 75.9579 166.669 75.4299 166.669 74.7481V71.2061H165.446V70.0961H165.696C165.995 70.0961 166.232 70.0046 166.407 69.8217C166.581 69.6387 166.669 69.3976 166.669 69.0983V68.5495H167.828V70.0961H169.338V71.2061H167.828V74.7107C167.828 74.9352 167.862 75.1306 167.928 75.2969C168.003 75.4632 168.124 75.5962 168.29 75.696C168.456 75.7875 168.677 75.8332 168.951 75.8332C169.009 75.8332 169.08 75.829 169.163 75.8207C169.254 75.8124 169.338 75.8041 169.412 75.7958V76.8185C169.304 76.8434 169.184 76.8601 169.051 76.8684C168.918 76.885 168.805 76.8933 168.714 76.8933ZM170.928 76.8185V67.3772H172.087V71.4056L171.875 71.2934C172.042 70.8693 172.308 70.5409 172.674 70.3081C173.048 70.067 173.484 69.9464 173.983 69.9464C174.465 69.9464 174.894 70.0545 175.268 70.2707C175.65 70.4868 175.95 70.7862 176.166 71.1687C176.39 71.5511 176.503 71.9835 176.503 72.4657V76.8185H175.33V72.8399C175.33 72.4657 175.26 72.1498 175.118 71.892C174.985 71.6343 174.798 71.4347 174.557 71.2934C174.316 71.1437 174.037 71.0689 173.721 71.0689C173.414 71.0689 173.135 71.1437 172.886 71.2934C172.636 71.4347 172.441 71.6384 172.3 71.9045C172.158 72.1623 172.087 72.4741 172.087 72.8399V76.8185H170.928ZM183.798 76.9681C183.257 76.9681 182.763 76.8476 182.314 76.6065C181.873 76.3653 181.532 76.0244 181.291 75.5838L181.453 75.3842V76.8185H180.318V67.3772H181.478V71.5428L181.303 71.256C181.553 70.8568 181.894 70.5409 182.326 70.3081C182.759 70.067 183.253 69.9464 183.81 69.9464C184.442 69.9464 185.008 70.1002 185.507 70.4079C186.014 70.7155 186.413 71.1354 186.704 71.6675C186.995 72.1914 187.14 72.79 187.14 73.4635C187.14 74.1204 186.995 74.7149 186.704 75.247C186.413 75.7791 186.014 76.199 185.507 76.5067C185.008 76.8143 184.438 76.9681 183.798 76.9681ZM183.711 75.8457C184.135 75.8457 184.513 75.7417 184.845 75.5339C185.178 75.326 185.436 75.0433 185.619 74.6858C185.81 74.3199 185.906 73.9125 185.906 73.4635C185.906 72.9979 185.81 72.5905 185.619 72.2412C185.436 71.8837 185.178 71.601 184.845 71.3931C184.513 71.177 184.135 71.0689 183.711 71.0689C183.286 71.0689 182.904 71.1728 182.563 71.3807C182.231 71.5885 181.964 71.8754 181.765 72.2412C181.574 72.5988 181.478 73.0062 181.478 73.4635C181.478 73.9125 181.574 74.3199 181.765 74.6858C181.964 75.0433 182.231 75.326 182.563 75.5339C182.904 75.7417 183.286 75.8457 183.711 75.8457ZM188.661 76.8185V70.0961H189.821V76.8185H188.661ZM188.661 69.0235V67.5268H189.821V69.0235H188.661ZM191.621 76.8185V67.3772H192.781V76.8185H191.621ZM194.581 76.8185V67.3772H195.74V76.8185H194.581ZM197.54 76.8185V70.0961H198.7V76.8185H197.54ZM197.54 69.0235V67.5268H198.7V69.0235H197.54ZM200.5 76.8185V70.0961H201.635V71.4056L201.448 71.2934C201.614 70.8693 201.88 70.5409 202.246 70.3081C202.62 70.067 203.057 69.9464 203.556 69.9464C204.038 69.9464 204.466 70.0545 204.84 70.2707C205.223 70.4868 205.522 70.7862 205.738 71.1687C205.963 71.5511 206.075 71.9835 206.075 72.4657V76.8185H204.903V72.8399C204.903 72.4657 204.836 72.1498 204.703 71.892C204.57 71.6343 204.379 71.4347 204.129 71.2934C203.888 71.1437 203.61 71.0689 203.294 71.0689C202.978 71.0689 202.695 71.1437 202.446 71.2934C202.204 71.4347 202.013 71.6384 201.872 71.9045C201.731 72.1623 201.66 72.4741 201.66 72.8399V76.8185H200.5ZM210.94 79.5623C210.466 79.5623 210.025 79.4875 209.618 79.3378C209.219 79.1882 208.874 78.9803 208.583 78.7142C208.3 78.4565 208.084 78.153 207.934 77.8038L209.019 77.3049C209.136 77.6208 209.356 77.8869 209.68 78.1031C210.013 78.3276 210.429 78.4398 210.928 78.4398C211.31 78.4398 211.655 78.365 211.963 78.2153C212.279 78.074 212.528 77.8578 212.711 77.5668C212.894 77.2841 212.985 76.939 212.985 76.5316V75.0225L213.197 75.247C212.965 75.7043 212.628 76.0535 212.187 76.2947C211.755 76.5358 211.277 76.6563 210.753 76.6563C210.121 76.6563 209.556 76.5108 209.057 76.2198C208.558 75.9205 208.167 75.5172 207.884 75.01C207.602 74.4945 207.46 73.925 207.46 73.3014C207.46 72.6695 207.602 72.0999 207.884 71.5927C208.167 71.0855 208.554 70.6864 209.044 70.3954C209.543 70.0961 210.109 69.9464 210.74 69.9464C211.264 69.9464 211.738 70.067 212.162 70.3081C212.595 70.5409 212.94 70.8652 213.197 71.2809L213.023 71.5927V70.0961H214.158V76.5316C214.158 77.1137 214.021 77.6333 213.746 78.0906C213.472 78.5479 213.089 78.9055 212.599 79.1632C212.117 79.4293 211.564 79.5623 210.94 79.5623ZM210.853 75.5339C211.252 75.5339 211.609 75.4341 211.925 75.2345C212.25 75.035 212.507 74.7689 212.699 74.4363C212.89 74.0954 212.985 73.7171 212.985 73.3014C212.985 72.8939 212.89 72.5198 212.699 72.1789C212.507 71.838 212.25 71.5678 211.925 71.3682C211.609 71.1687 211.252 71.0689 210.853 71.0689C210.445 71.0689 210.075 71.1687 209.743 71.3682C209.41 71.5678 209.148 71.838 208.957 72.1789C208.774 72.5115 208.683 72.8856 208.683 73.3014C208.683 73.7171 208.774 74.0954 208.957 74.4363C209.148 74.7689 209.406 75.035 209.73 75.2345C210.063 75.4341 210.437 75.5339 210.853 75.5339ZM216.43 76.8185V75.3218H217.64V76.8185H216.43Z" fill="#3F4346"/>
</g>
<g filter="url(#filter2_d_4482_7618)">
<path d="M56.3658 97.2507H222.759C231.32 97.2507 232.419 102.965 233.127 105.253C233.363 111.299 233.38 125.39 232.814 132.057C232.248 138.725 227.479 141.699 222.759 142.352H33C41.4967 138.038 41.4684 132.293 41.5833 129.986C41.8194 125.247 41.7602 113.001 42.4869 105.98C43.3904 97.2507 51.4094 97.741 56.3658 97.2507Z" fill="white"/>
<path d="M54.3832 115.438V107.269H51.8638V106.146H58.0999V107.269H55.6179V115.438H54.3832ZM61.4567 115.588C60.8081 115.588 60.222 115.438 59.6981 115.139C59.1743 114.831 58.7586 114.411 58.4509 113.879C58.1433 113.347 57.9895 112.744 57.9895 112.071C57.9895 111.397 58.1391 110.798 58.4385 110.275C58.7461 109.751 59.1618 109.335 59.6857 109.027C60.2095 108.72 60.7998 108.566 61.4567 108.566C62.1052 108.566 62.6914 108.72 63.2152 109.027C63.7391 109.327 64.1507 109.738 64.45 110.262C64.7576 110.786 64.9114 111.389 64.9114 112.071C64.9114 112.752 64.7535 113.359 64.4375 113.891C64.1215 114.415 63.7017 114.831 63.1778 115.139C62.6623 115.438 62.0886 115.588 61.4567 115.588ZM61.4567 114.465C61.8724 114.465 62.2466 114.361 62.5792 114.153C62.9201 113.946 63.1861 113.659 63.3774 113.293C63.5769 112.927 63.6767 112.52 63.6767 112.071C63.6767 111.613 63.5769 111.21 63.3774 110.861C63.1861 110.503 62.9201 110.221 62.5792 110.013C62.2466 109.796 61.8724 109.688 61.4567 109.688C61.0326 109.688 60.6502 109.796 60.3093 110.013C59.9767 110.221 59.7106 110.503 59.5111 110.861C59.3115 111.21 59.2117 111.613 59.2117 112.071C59.2117 112.52 59.3115 112.927 59.5111 113.293C59.7106 113.659 59.9767 113.946 60.3093 114.153C60.6502 114.361 61.0326 114.465 61.4567 114.465ZM70.9622 115.588C70.48 115.588 70.0435 115.475 69.6527 115.251C69.2702 115.026 68.9709 114.715 68.7547 114.316C68.5468 113.908 68.4429 113.442 68.4429 112.919V108.716H69.6028V112.794C69.6028 113.127 69.6693 113.418 69.8023 113.667C69.9437 113.916 70.1349 114.112 70.376 114.253C70.6255 114.394 70.9082 114.465 71.2241 114.465C71.5401 114.465 71.8186 114.394 72.0598 114.253C72.3092 114.112 72.5005 113.908 72.6335 113.642C72.7748 113.376 72.8455 113.06 72.8455 112.694V108.716H74.0179V115.438H72.8829V114.128L73.07 114.241C72.912 114.665 72.6418 114.997 72.2593 115.238C71.8852 115.471 71.4528 115.588 70.9622 115.588ZM75.8148 117.932V108.716H76.9498V110.162L76.8001 109.875C77.0496 109.476 77.3905 109.16 77.8228 108.928C78.2552 108.686 78.7499 108.566 79.307 108.566C79.9389 108.566 80.5043 108.72 81.0032 109.027C81.5104 109.335 81.9095 109.755 82.2005 110.287C82.4915 110.811 82.637 111.41 82.637 112.083C82.637 112.74 82.4915 113.334 82.2005 113.867C81.9095 114.399 81.5104 114.819 81.0032 115.126C80.5043 115.434 79.9348 115.588 79.2945 115.588C78.7541 115.588 78.2593 115.467 77.8104 115.226C77.3697 114.985 77.0288 114.644 76.7876 114.203L76.9747 114.004V117.932H75.8148ZM79.2072 114.465C79.6313 114.465 80.0096 114.361 80.3422 114.153C80.6748 113.946 80.9325 113.663 81.1154 113.305C81.3067 112.939 81.4023 112.532 81.4023 112.083C81.4023 111.617 81.3067 111.21 81.1154 110.861C80.9325 110.503 80.6748 110.221 80.3422 110.013C80.0096 109.796 79.6313 109.688 79.2072 109.688C78.7832 109.688 78.4007 109.792 78.0598 110C77.7272 110.208 77.4611 110.495 77.2616 110.861C77.0703 111.218 76.9747 111.626 76.9747 112.083C76.9747 112.532 77.0703 112.939 77.2616 113.305C77.4611 113.663 77.7272 113.946 78.0598 114.153C78.4007 114.361 78.7832 114.465 79.2072 114.465ZM87.2136 115.588C86.5817 115.588 86.0121 115.434 85.5049 115.126C85.006 114.819 84.6111 114.399 84.3201 113.867C84.0291 113.334 83.8836 112.74 83.8836 112.083C83.8836 111.41 84.0291 110.811 84.3201 110.287C84.6111 109.755 85.006 109.335 85.5049 109.027C86.0121 108.72 86.5817 108.566 87.2136 108.566C87.7707 108.566 88.2654 108.686 88.6978 108.928C89.1301 109.16 89.471 109.476 89.7205 109.875L89.5334 110.162V105.997H90.7058V115.438H89.5708V114.004L89.7205 114.203C89.4877 114.644 89.1467 114.985 88.6978 115.226C88.2571 115.467 87.7624 115.588 87.2136 115.588ZM87.3134 114.465C87.7374 114.465 88.1157 114.361 88.4483 114.153C88.7809 113.946 89.0428 113.663 89.2341 113.305C89.4336 112.939 89.5334 112.532 89.5334 112.083C89.5334 111.626 89.4336 111.218 89.2341 110.861C89.0428 110.495 88.7809 110.208 88.4483 110C88.1157 109.792 87.7374 109.688 87.3134 109.688C86.8976 109.688 86.5193 109.796 86.1784 110.013C85.8458 110.221 85.5839 110.503 85.3927 110.861C85.2014 111.21 85.1058 111.617 85.1058 112.083C85.1058 112.532 85.2014 112.939 85.3927 113.305C85.5839 113.663 85.8458 113.946 86.1784 114.153C86.511 114.361 86.8893 114.465 87.3134 114.465ZM94.4716 115.588C94.0309 115.588 93.6402 115.509 93.2993 115.351C92.9667 115.184 92.7048 114.96 92.5135 114.677C92.3223 114.386 92.2267 114.054 92.2267 113.679C92.2267 113.322 92.3015 113.002 92.4512 112.719C92.6091 112.428 92.8503 112.183 93.1745 111.983C93.5071 111.784 93.9229 111.642 94.4217 111.559L96.9161 111.148V112.12L94.6837 112.495C94.2513 112.569 93.9353 112.707 93.7358 112.906C93.5445 113.106 93.4489 113.351 93.4489 113.642C93.4489 113.916 93.557 114.145 93.7732 114.328C93.9977 114.511 94.2762 114.602 94.6088 114.602C95.0329 114.602 95.3987 114.515 95.7064 114.34C96.0223 114.158 96.2676 113.912 96.4422 113.605C96.6251 113.297 96.7166 112.956 96.7166 112.582V110.873C96.7166 110.507 96.5794 110.212 96.305 109.988C96.0389 109.755 95.6856 109.638 95.2449 109.638C94.8624 109.638 94.5215 109.738 94.2222 109.938C93.9312 110.129 93.715 110.387 93.5736 110.711L92.5634 110.187C92.6881 109.88 92.8877 109.605 93.1621 109.364C93.4364 109.115 93.7566 108.919 94.1224 108.778C94.4883 108.637 94.8707 108.566 95.2698 108.566C95.7853 108.566 96.2385 108.666 96.6293 108.865C97.0201 109.056 97.3236 109.327 97.5397 109.676C97.7642 110.017 97.8765 110.416 97.8765 110.873V115.438H96.7415V114.166L96.9536 114.241C96.8122 114.507 96.621 114.74 96.3798 114.939C96.1387 115.139 95.856 115.297 95.5317 115.413C95.2075 115.529 94.8541 115.588 94.4716 115.588ZM102.284 115.513C101.628 115.513 101.12 115.326 100.763 114.952C100.414 114.577 100.239 114.049 100.239 113.368V109.826H99.0168V108.716H99.2662C99.5656 108.716 99.8025 108.624 99.9772 108.441C100.152 108.258 100.239 108.017 100.239 107.718V107.169H101.399V108.716H102.908V109.826H101.399V113.33C101.399 113.555 101.432 113.75 101.499 113.916C101.574 114.083 101.694 114.216 101.86 114.316C102.027 114.407 102.247 114.453 102.521 114.453C102.58 114.453 102.65 114.449 102.733 114.44C102.825 114.432 102.908 114.424 102.983 114.415V115.438C102.875 115.463 102.754 115.48 102.621 115.488C102.488 115.505 102.376 115.513 102.284 115.513ZM107.408 115.588C106.76 115.588 106.182 115.434 105.675 115.126C105.168 114.819 104.769 114.399 104.478 113.867C104.186 113.326 104.041 112.723 104.041 112.058C104.041 111.385 104.182 110.786 104.465 110.262C104.756 109.738 105.147 109.327 105.637 109.027C106.136 108.72 106.693 108.566 107.309 108.566C107.808 108.566 108.248 108.657 108.631 108.84C109.021 109.015 109.35 109.256 109.616 109.564C109.89 109.863 110.098 110.208 110.24 110.599C110.389 110.981 110.464 111.38 110.464 111.796C110.464 111.888 110.456 111.992 110.439 112.108C110.431 112.216 110.418 112.32 110.402 112.42H104.889V111.422H109.728L109.179 111.871C109.254 111.439 109.213 111.052 109.055 110.711C108.897 110.37 108.664 110.1 108.356 109.9C108.049 109.701 107.699 109.601 107.309 109.601C106.918 109.601 106.56 109.701 106.236 109.9C105.912 110.1 105.658 110.387 105.475 110.761C105.301 111.127 105.23 111.563 105.263 112.071C105.23 112.561 105.305 112.993 105.488 113.368C105.679 113.733 105.945 114.02 106.286 114.228C106.635 114.428 107.013 114.528 107.421 114.528C107.87 114.528 108.248 114.424 108.556 114.216C108.864 114.008 109.113 113.742 109.304 113.418L110.277 113.916C110.144 114.224 109.936 114.507 109.653 114.764C109.379 115.014 109.051 115.213 108.668 115.363C108.294 115.513 107.874 115.588 107.408 115.588ZM117.612 115.588C117.071 115.588 116.577 115.467 116.128 115.226C115.687 114.985 115.346 114.644 115.105 114.203L115.267 114.004V115.438H114.132V105.997H115.292V110.162L115.118 109.875C115.367 109.476 115.708 109.16 116.14 108.928C116.573 108.686 117.067 108.566 117.624 108.566C118.256 108.566 118.822 108.72 119.321 109.027C119.828 109.335 120.227 109.755 120.518 110.287C120.809 110.811 120.954 111.41 120.954 112.083C120.954 112.74 120.809 113.334 120.518 113.867C120.227 114.399 119.828 114.819 119.321 115.126C118.822 115.434 118.252 115.588 117.612 115.588ZM117.525 114.465C117.949 114.465 118.327 114.361 118.66 114.153C118.992 113.946 119.25 113.663 119.433 113.305C119.624 112.939 119.72 112.532 119.72 112.083C119.72 111.617 119.624 111.21 119.433 110.861C119.25 110.503 118.992 110.221 118.66 110.013C118.327 109.796 117.949 109.688 117.525 109.688C117.101 109.688 116.718 109.792 116.377 110C116.045 110.208 115.779 110.495 115.579 110.861C115.388 111.218 115.292 111.626 115.292 112.083C115.292 112.532 115.388 112.939 115.579 113.305C115.779 113.663 116.045 113.946 116.377 114.153C116.718 114.361 117.101 114.465 117.525 114.465ZM122.475 115.438V108.716H123.635V115.438H122.475ZM122.475 107.643V106.146H123.635V107.643H122.475ZM125.435 115.438V105.997H126.595V115.438H125.435ZM128.395 115.438V105.997H129.555V115.438H128.395ZM131.354 115.438V108.716H132.514V115.438H131.354ZM131.354 107.643V106.146H132.514V107.643H131.354ZM134.314 115.438V108.716H135.449V110.025L135.262 109.913C135.428 109.489 135.694 109.16 136.06 108.928C136.434 108.686 136.871 108.566 137.37 108.566C137.852 108.566 138.28 108.674 138.654 108.89C139.037 109.106 139.336 109.406 139.552 109.788C139.777 110.171 139.889 110.603 139.889 111.085V115.438H138.717V111.459C138.717 111.085 138.65 110.769 138.517 110.512C138.384 110.254 138.193 110.054 137.943 109.913C137.702 109.763 137.424 109.688 137.108 109.688C136.792 109.688 136.509 109.763 136.26 109.913C136.019 110.054 135.827 110.258 135.686 110.524C135.545 110.782 135.474 111.094 135.474 111.459V115.438H134.314ZM144.754 118.182C144.28 118.182 143.839 118.107 143.432 117.957C143.033 117.808 142.688 117.6 142.397 117.334C142.114 117.076 141.898 116.772 141.748 116.423L142.833 115.924C142.95 116.24 143.17 116.506 143.494 116.723C143.827 116.947 144.243 117.059 144.742 117.059C145.124 117.059 145.469 116.985 145.777 116.835C146.093 116.694 146.342 116.477 146.525 116.186C146.708 115.904 146.8 115.559 146.8 115.151V113.642L147.012 113.867C146.779 114.324 146.442 114.673 146.001 114.914C145.569 115.155 145.091 115.276 144.567 115.276C143.935 115.276 143.37 115.13 142.871 114.839C142.372 114.54 141.981 114.137 141.698 113.63C141.416 113.114 141.274 112.544 141.274 111.921C141.274 111.289 141.416 110.719 141.698 110.212C141.981 109.705 142.368 109.306 142.858 109.015C143.357 108.716 143.923 108.566 144.555 108.566C145.078 108.566 145.552 108.686 145.976 108.928C146.409 109.16 146.754 109.485 147.012 109.9L146.837 110.212V108.716H147.972V115.151C147.972 115.733 147.835 116.253 147.56 116.71C147.286 117.167 146.903 117.525 146.413 117.783C145.931 118.049 145.378 118.182 144.754 118.182ZM144.667 114.153C145.066 114.153 145.423 114.054 145.739 113.854C146.064 113.654 146.321 113.388 146.513 113.056C146.704 112.715 146.8 112.337 146.8 111.921C146.8 111.513 146.704 111.139 146.513 110.798C146.321 110.457 146.064 110.187 145.739 109.988C145.423 109.788 145.066 109.688 144.667 109.688C144.259 109.688 143.889 109.788 143.557 109.988C143.224 110.187 142.962 110.457 142.771 110.798C142.588 111.131 142.497 111.505 142.497 111.921C142.497 112.337 142.588 112.715 142.771 113.056C142.962 113.388 143.22 113.654 143.544 113.854C143.877 114.054 144.251 114.153 144.667 114.153ZM149.97 117.172V116.61C150.227 116.544 150.423 116.415 150.556 116.224C150.689 116.032 150.764 115.771 150.78 115.438H150.219V113.941H151.429V115.001C151.429 115.6 151.304 116.082 151.055 116.448C150.814 116.814 150.452 117.055 149.97 117.172ZM158.858 118.182C158.384 118.182 157.944 118.107 157.536 117.957C157.137 117.808 156.792 117.6 156.501 117.334C156.218 117.076 156.002 116.772 155.852 116.423L156.938 115.924C157.054 116.24 157.274 116.506 157.599 116.723C157.931 116.947 158.347 117.059 158.846 117.059C159.228 117.059 159.573 116.985 159.881 116.835C160.197 116.694 160.446 116.477 160.629 116.186C160.812 115.904 160.904 115.559 160.904 115.151V113.642L161.116 113.867C160.883 114.324 160.546 114.673 160.105 114.914C159.673 115.155 159.195 115.276 158.671 115.276C158.039 115.276 157.474 115.13 156.975 114.839C156.476 114.54 156.085 114.137 155.803 113.63C155.52 113.114 155.379 112.544 155.379 111.921C155.379 111.289 155.52 110.719 155.803 110.212C156.085 109.705 156.472 109.306 156.962 109.015C157.461 108.716 158.027 108.566 158.659 108.566C159.182 108.566 159.656 108.686 160.08 108.928C160.513 109.16 160.858 109.485 161.116 109.9L160.941 110.212V108.716H162.076V115.151C162.076 115.733 161.939 116.253 161.664 116.71C161.39 117.167 161.008 117.525 160.517 117.783C160.035 118.049 159.482 118.182 158.858 118.182ZM158.771 114.153C159.17 114.153 159.528 114.054 159.843 113.854C160.168 113.654 160.426 113.388 160.617 113.056C160.808 112.715 160.904 112.337 160.904 111.921C160.904 111.513 160.808 111.139 160.617 110.798C160.426 110.457 160.168 110.187 159.843 109.988C159.528 109.788 159.17 109.688 158.771 109.688C158.363 109.688 157.993 109.788 157.661 109.988C157.328 110.187 157.066 110.457 156.875 110.798C156.692 111.131 156.601 111.505 156.601 111.921C156.601 112.337 156.692 112.715 156.875 113.056C157.066 113.388 157.324 113.654 157.648 113.854C157.981 114.054 158.355 114.153 158.771 114.153ZM167.067 115.588C166.419 115.588 165.832 115.438 165.308 115.139C164.785 114.831 164.369 114.411 164.061 113.879C163.754 113.347 163.6 112.744 163.6 112.071C163.6 111.397 163.749 110.798 164.049 110.275C164.356 109.751 164.772 109.335 165.296 109.027C165.82 108.72 166.41 108.566 167.067 108.566C167.716 108.566 168.302 108.72 168.826 109.027C169.349 109.327 169.761 109.738 170.06 110.262C170.368 110.786 170.522 111.389 170.522 112.071C170.522 112.752 170.364 113.359 170.048 113.891C169.732 114.415 169.312 114.831 168.788 115.139C168.273 115.438 167.699 115.588 167.067 115.588ZM167.067 114.465C167.483 114.465 167.857 114.361 168.19 114.153C168.53 113.946 168.797 113.659 168.988 113.293C169.187 112.927 169.287 112.52 169.287 112.071C169.287 111.613 169.187 111.21 168.988 110.861C168.797 110.503 168.53 110.221 168.19 110.013C167.857 109.796 167.483 109.688 167.067 109.688C166.643 109.688 166.261 109.796 165.92 110.013C165.587 110.221 165.321 110.503 165.121 110.861C164.922 111.21 164.822 111.613 164.822 112.071C164.822 112.52 164.922 112.927 165.121 113.293C165.321 113.659 165.587 113.946 165.92 114.153C166.261 114.361 166.643 114.465 167.067 114.465ZM176.922 115.513C176.265 115.513 175.758 115.326 175.4 114.952C175.051 114.577 174.876 114.049 174.876 113.368V109.826H173.654V108.716H173.904C174.203 108.716 174.44 108.624 174.614 108.441C174.789 108.258 174.876 108.017 174.876 107.718V107.169H176.036V108.716H177.545V109.826H176.036V113.33C176.036 113.555 176.07 113.75 176.136 113.916C176.211 114.083 176.331 114.216 176.498 114.316C176.664 114.407 176.884 114.453 177.159 114.453C177.217 114.453 177.288 114.449 177.371 114.44C177.462 114.432 177.545 114.424 177.62 114.415V115.438C177.512 115.463 177.392 115.48 177.259 115.488C177.126 115.505 177.013 115.513 176.922 115.513ZM182.146 115.588C181.497 115.588 180.911 115.438 180.387 115.139C179.863 114.831 179.447 114.411 179.14 113.879C178.832 113.347 178.678 112.744 178.678 112.071C178.678 111.397 178.828 110.798 179.127 110.275C179.435 109.751 179.851 109.335 180.375 109.027C180.898 108.72 181.489 108.566 182.146 108.566C182.794 108.566 183.38 108.72 183.904 109.027C184.428 109.327 184.839 109.738 185.139 110.262C185.446 110.786 185.6 111.389 185.6 112.071C185.6 112.752 185.442 113.359 185.126 113.891C184.81 114.415 184.391 114.831 183.867 115.139C183.351 115.438 182.777 115.588 182.146 115.588ZM182.146 114.465C182.561 114.465 182.935 114.361 183.268 114.153C183.609 113.946 183.875 113.659 184.066 113.293C184.266 112.927 184.366 112.52 184.366 112.071C184.366 111.613 184.266 111.21 184.066 110.861C183.875 110.503 183.609 110.221 183.268 110.013C182.935 109.796 182.561 109.688 182.146 109.688C181.721 109.688 181.339 109.796 180.998 110.013C180.666 110.221 180.399 110.503 180.2 110.861C180 111.21 179.901 111.613 179.901 112.071C179.901 112.52 180 112.927 180.2 113.293C180.399 113.659 180.666 113.946 180.998 114.153C181.339 114.361 181.721 114.465 182.146 114.465ZM189.631 118.182C189.481 118.182 189.331 118.169 189.182 118.144C189.032 118.128 188.891 118.09 188.758 118.032V116.997C188.849 117.005 188.961 117.022 189.094 117.047C189.236 117.072 189.373 117.084 189.506 117.084C189.897 117.084 190.192 116.997 190.391 116.822C190.599 116.648 190.795 116.353 190.978 115.937L191.402 114.927L191.377 115.937L188.508 108.716H189.768L192 114.453H191.626L193.846 108.716H195.131L192.1 116.236C191.959 116.594 191.776 116.922 191.551 117.221C191.335 117.521 191.069 117.754 190.753 117.92C190.437 118.095 190.063 118.182 189.631 118.182ZM199.234 115.588C198.585 115.588 197.999 115.438 197.475 115.139C196.951 114.831 196.536 114.411 196.228 113.879C195.92 113.347 195.766 112.744 195.766 112.071C195.766 111.397 195.916 110.798 196.215 110.275C196.523 109.751 196.939 109.335 197.463 109.027C197.986 108.72 198.577 108.566 199.234 108.566C199.882 108.566 200.468 108.72 200.992 109.027C201.516 109.327 201.928 109.738 202.227 110.262C202.535 110.786 202.688 111.389 202.688 112.071C202.688 112.752 202.53 113.359 202.214 113.891C201.899 114.415 201.479 114.831 200.955 115.139C200.439 115.438 199.866 115.588 199.234 115.588ZM199.234 114.465C199.649 114.465 200.024 114.361 200.356 114.153C200.697 113.946 200.963 113.659 201.154 113.293C201.354 112.927 201.454 112.52 201.454 112.071C201.454 111.613 201.354 111.21 201.154 110.861C200.963 110.503 200.697 110.221 200.356 110.013C200.024 109.796 199.649 109.688 199.234 109.688C198.81 109.688 198.427 109.796 198.086 110.013C197.754 110.221 197.488 110.503 197.288 110.861C197.088 111.21 196.989 111.613 196.989 112.071C196.989 112.52 197.088 112.927 197.288 113.293C197.488 113.659 197.754 113.946 198.086 114.153C198.427 114.361 198.81 114.465 199.234 114.465ZM206.583 115.588C206.101 115.588 205.665 115.475 205.274 115.251C204.891 115.026 204.592 114.715 204.376 114.316C204.168 113.908 204.064 113.442 204.064 112.919V108.716H205.224V112.794C205.224 113.127 205.29 113.418 205.424 113.667C205.565 113.916 205.756 114.112 205.997 114.253C206.247 114.394 206.529 114.465 206.845 114.465C207.161 114.465 207.44 114.394 207.681 114.253C207.93 114.112 208.122 113.908 208.255 113.642C208.396 113.376 208.467 113.06 208.467 112.694V108.716H209.639V115.438H208.504V114.128L208.691 114.241C208.533 114.665 208.263 114.997 207.881 115.238C207.506 115.471 207.074 115.588 206.583 115.588ZM211.436 115.438V108.716H212.571V109.95L212.446 109.776C212.604 109.393 212.845 109.111 213.17 108.928C213.494 108.736 213.889 108.641 214.354 108.641H214.766V109.738H214.18C213.706 109.738 213.323 109.888 213.032 110.187C212.741 110.478 212.596 110.894 212.596 111.434V115.438H211.436ZM54.5952 134.588C54.1545 134.588 53.7638 134.509 53.4229 134.351C53.0903 134.184 52.8284 133.96 52.6371 133.677C52.4459 133.386 52.3503 133.054 52.3503 132.679C52.3503 132.322 52.4251 132.002 52.5748 131.719C52.7327 131.428 52.9739 131.183 53.2981 130.983C53.6307 130.784 54.0465 130.642 54.5453 130.559L57.0397 130.148V131.12L54.8072 131.495C54.3749 131.569 54.0589 131.707 53.8594 131.906C53.6681 132.106 53.5725 132.351 53.5725 132.642C53.5725 132.916 53.6806 133.145 53.8968 133.328C54.1213 133.511 54.3998 133.602 54.7324 133.602C55.1565 133.602 55.5223 133.515 55.83 133.34C56.1459 133.158 56.3912 132.912 56.5658 132.605C56.7487 132.297 56.8402 131.956 56.8402 131.582V129.873C56.8402 129.507 56.703 129.212 56.4286 128.988C56.1625 128.755 55.8092 128.638 55.3685 128.638C54.986 128.638 54.6451 128.738 54.3458 128.938C54.0548 129.129 53.8386 129.387 53.6972 129.711L52.687 129.187C52.8117 128.88 53.0113 128.605 53.2857 128.364C53.56 128.115 53.8802 127.919 54.246 127.778C54.6119 127.637 54.9943 127.566 55.3934 127.566C55.9089 127.566 56.3621 127.666 56.7529 127.865C57.1437 128.056 57.4472 128.327 57.6633 128.676C57.8878 129.017 58.0001 129.416 58.0001 129.873V134.438H56.8651V133.166L57.0772 133.241C56.9358 133.507 56.7446 133.74 56.5034 133.939C56.2623 134.139 55.9796 134.297 55.6553 134.413C55.3311 134.529 54.9777 134.588 54.5952 134.588ZM62.9165 134.588C62.2596 134.588 61.6735 134.434 61.1579 134.126C60.6508 133.819 60.2516 133.399 59.9606 132.867C59.6696 132.334 59.5241 131.736 59.5241 131.071C59.5241 130.397 59.6696 129.798 59.9606 129.275C60.2516 128.751 60.6508 128.335 61.1579 128.027C61.6735 127.72 62.2596 127.566 62.9165 127.566C63.3572 127.566 63.7688 127.645 64.1512 127.803C64.5337 127.961 64.8705 128.173 65.1615 128.439C65.4525 128.705 65.6645 129.017 65.7975 129.374L64.7624 129.873C64.6044 129.524 64.3633 129.241 64.039 129.025C63.7147 128.801 63.3406 128.688 62.9165 128.688C62.5091 128.688 62.1391 128.792 61.8065 129C61.4822 129.208 61.2245 129.491 61.0332 129.848C60.842 130.206 60.7464 130.617 60.7464 131.083C60.7464 131.532 60.842 131.939 61.0332 132.305C61.2245 132.663 61.4822 132.946 61.8065 133.153C62.1391 133.361 62.5091 133.465 62.9165 133.465C63.3406 133.465 63.7147 133.357 64.039 133.141C64.3633 132.916 64.6044 132.621 64.7624 132.255L65.7975 132.779C65.6645 133.128 65.4525 133.44 65.1615 133.715C64.8705 133.981 64.5337 134.193 64.1512 134.351C63.7688 134.509 63.3572 134.588 62.9165 134.588ZM70.4314 134.588C69.7745 134.588 69.1883 134.434 68.6728 134.126C68.1656 133.819 67.7665 133.399 67.4755 132.867C67.1845 132.334 67.039 131.736 67.039 131.071C67.039 130.397 67.1845 129.798 67.4755 129.275C67.7665 128.751 68.1656 128.335 68.6728 128.027C69.1883 127.72 69.7745 127.566 70.4314 127.566C70.8721 127.566 71.2836 127.645 71.6661 127.803C72.0486 127.961 72.3853 128.173 72.6764 128.439C72.9674 128.705 73.1794 129.017 73.3124 129.374L72.2773 129.873C72.1193 129.524 71.8781 129.241 71.5539 129.025C71.2296 128.801 70.8554 128.688 70.4314 128.688C70.024 128.688 69.654 128.792 69.3214 129C68.9971 129.208 68.7394 129.491 68.5481 129.848C68.3569 130.206 68.2613 130.617 68.2613 131.083C68.2613 131.532 68.3569 131.939 68.5481 132.305C68.7394 132.663 68.9971 132.946 69.3214 133.153C69.654 133.361 70.024 133.465 70.4314 133.465C70.8554 133.465 71.2296 133.357 71.5539 133.141C71.8781 132.916 72.1193 132.621 72.2773 132.255L73.3124 132.779C73.1794 133.128 72.9674 133.44 72.6764 133.715C72.3853 133.981 72.0486 134.193 71.6661 134.351C71.2836 134.509 70.8721 134.588 70.4314 134.588ZM78.0211 134.588C77.3726 134.588 76.7864 134.438 76.2626 134.139C75.7387 133.831 75.323 133.411 75.0154 132.879C74.7077 132.347 74.5539 131.744 74.5539 131.071C74.5539 130.397 74.7036 129.798 75.0029 129.275C75.3105 128.751 75.7263 128.335 76.2501 128.027C76.7739 127.72 77.3643 127.566 78.0211 127.566C78.6697 127.566 79.2558 127.72 79.7797 128.027C80.3035 128.327 80.7151 128.738 81.0144 129.262C81.322 129.786 81.4759 130.389 81.4759 131.071C81.4759 131.752 81.3179 132.359 81.0019 132.891C80.686 133.415 80.2661 133.831 79.7423 134.139C79.2267 134.438 78.653 134.588 78.0211 134.588ZM78.0211 133.465C78.4368 133.465 78.811 133.361 79.1436 133.153C79.4845 132.946 79.7506 132.659 79.9418 132.293C80.1414 131.927 80.2411 131.52 80.2411 131.071C80.2411 130.613 80.1414 130.21 79.9418 129.861C79.7506 129.503 79.4845 129.221 79.1436 129.013C78.811 128.796 78.4368 128.688 78.0211 128.688C77.5971 128.688 77.2146 128.796 76.8737 129.013C76.5411 129.221 76.275 129.503 76.0755 129.861C75.8759 130.21 75.7761 130.613 75.7761 131.071C75.7761 131.52 75.8759 131.927 76.0755 132.293C76.275 132.659 76.5411 132.946 76.8737 133.153C77.2146 133.361 77.5971 133.465 78.0211 133.465ZM85.3708 134.588C84.8886 134.588 84.4521 134.475 84.0613 134.251C83.6788 134.026 83.3795 133.715 83.1633 133.316C82.9554 132.908 82.8515 132.442 82.8515 131.919V127.716H84.0114V131.794C84.0114 132.127 84.0779 132.418 84.2109 132.667C84.3523 132.916 84.5435 133.112 84.7847 133.253C85.0341 133.394 85.3168 133.465 85.6328 133.465C85.9487 133.465 86.2273 133.394 86.4684 133.253C86.7178 133.112 86.9091 132.908 87.0421 132.642C87.1834 132.376 87.2541 132.06 87.2541 131.694V127.716H88.4265V134.438H87.2915V133.128L87.4786 133.241C87.3206 133.665 87.0504 133.997 86.6679 134.238C86.2938 134.471 85.8614 134.588 85.3708 134.588ZM90.2234 134.438V127.716H91.3584V129.025L91.1713 128.913C91.3376 128.489 91.6037 128.16 91.9695 127.928C92.3437 127.686 92.7802 127.566 93.2791 127.566C93.7613 127.566 94.1895 127.674 94.5637 127.89C94.9462 128.106 95.2455 128.406 95.4617 128.788C95.6862 129.171 95.7984 129.603 95.7984 130.085V134.438H94.6261V130.459C94.6261 130.085 94.5595 129.769 94.4265 129.512C94.2935 129.254 94.1022 129.054 93.8528 128.913C93.6117 128.763 93.3331 128.688 93.0172 128.688C92.7012 128.688 92.4185 128.763 92.1691 128.913C91.9279 129.054 91.7367 129.258 91.5954 129.524C91.454 129.782 91.3833 130.094 91.3833 130.459V134.438H90.2234ZM100.19 134.513C99.5327 134.513 99.0255 134.326 98.668 133.952C98.3188 133.577 98.1442 133.049 98.1442 132.368V128.826H96.9219V127.716H97.1713C97.4707 127.716 97.7076 127.624 97.8822 127.441C98.0568 127.258 98.1442 127.017 98.1442 126.718V126.169H99.3041V127.716H100.813V128.826H99.3041V132.33C99.3041 132.555 99.3373 132.75 99.4038 132.916C99.4787 133.083 99.5992 133.216 99.7655 133.316C99.9318 133.407 100.152 133.453 100.427 133.453C100.485 133.453 100.555 133.449 100.639 133.44C100.73 133.432 100.813 133.424 100.888 133.415V134.438C100.78 134.463 100.659 134.48 100.526 134.488C100.393 134.505 100.281 134.513 100.19 134.513ZM106.53 134.588C106.089 134.588 105.698 134.509 105.357 134.351C105.025 134.184 104.763 133.96 104.571 133.677C104.38 133.386 104.285 133.054 104.285 132.679C104.285 132.322 104.359 132.002 104.509 131.719C104.667 131.428 104.908 131.183 105.232 130.983C105.565 130.784 105.981 130.642 106.48 130.559L108.974 130.148V131.12L106.742 131.495C106.309 131.569 105.993 131.707 105.794 131.906C105.602 132.106 105.507 132.351 105.507 132.642C105.507 132.916 105.615 133.145 105.831 133.328C106.056 133.511 106.334 133.602 106.667 133.602C107.091 133.602 107.457 133.515 107.764 133.34C108.08 133.158 108.326 132.912 108.5 132.605C108.683 132.297 108.775 131.956 108.775 131.582V129.873C108.775 129.507 108.637 129.212 108.363 128.988C108.097 128.755 107.743 128.638 107.303 128.638C106.92 128.638 106.579 128.738 106.28 128.938C105.989 129.129 105.773 129.387 105.632 129.711L104.621 129.187C104.746 128.88 104.946 128.605 105.22 128.364C105.494 128.115 105.814 127.919 106.18 127.778C106.546 127.637 106.929 127.566 107.328 127.566C107.843 127.566 108.296 127.666 108.687 127.865C109.078 128.056 109.381 128.327 109.598 128.676C109.822 129.017 109.934 129.416 109.934 129.873V134.438H108.799V133.166L109.011 133.241C108.87 133.507 108.679 133.74 108.438 133.939C108.197 134.139 107.914 134.297 107.59 134.413C107.265 134.529 106.912 134.588 106.53 134.588ZM111.733 134.438V127.716H112.868V129.025L112.681 128.913C112.847 128.489 113.113 128.16 113.479 127.928C113.853 127.686 114.29 127.566 114.788 127.566C115.271 127.566 115.699 127.674 116.073 127.89C116.456 128.106 116.755 128.406 116.971 128.788C117.196 129.171 117.308 129.603 117.308 130.085V134.438H116.135V130.459C116.135 130.085 116.069 129.769 115.936 129.512C115.803 129.254 115.612 129.054 115.362 128.913C115.121 128.763 114.843 128.688 114.527 128.688C114.211 128.688 113.928 128.763 113.678 128.913C113.437 129.054 113.246 129.258 113.105 129.524C112.963 129.782 112.893 130.094 112.893 130.459V134.438H111.733ZM122.023 134.588C121.391 134.588 120.822 134.434 120.315 134.126C119.816 133.819 119.421 133.399 119.13 132.867C118.839 132.334 118.693 131.74 118.693 131.083C118.693 130.41 118.839 129.811 119.13 129.287C119.421 128.755 119.816 128.335 120.315 128.027C120.822 127.72 121.391 127.566 122.023 127.566C122.58 127.566 123.075 127.686 123.507 127.928C123.94 128.16 124.281 128.476 124.53 128.875L124.343 129.162V124.997H125.515V134.438H124.38V133.004L124.53 133.203C124.297 133.644 123.956 133.985 123.507 134.226C123.067 134.467 122.572 134.588 122.023 134.588ZM122.123 133.465C122.547 133.465 122.925 133.361 123.258 133.153C123.591 132.946 123.852 132.663 124.044 132.305C124.243 131.939 124.343 131.532 124.343 131.083C124.343 130.626 124.243 130.218 124.044 129.861C123.852 129.495 123.591 129.208 123.258 129C122.925 128.792 122.547 128.688 122.123 128.688C121.707 128.688 121.329 128.796 120.988 129.013C120.655 129.221 120.394 129.503 120.202 129.861C120.011 130.21 119.915 130.617 119.915 131.083C119.915 131.532 120.011 131.939 120.202 132.305C120.394 132.663 120.655 132.946 120.988 133.153C121.321 133.361 121.699 133.465 122.123 133.465ZM131.874 134.588C131.2 134.588 130.614 134.421 130.115 134.089C129.616 133.756 129.263 133.307 129.055 132.742L129.978 132.293C130.169 132.692 130.431 133.008 130.764 133.241C131.096 133.473 131.466 133.59 131.874 133.59C132.239 133.59 132.543 133.503 132.784 133.328C133.025 133.153 133.146 132.925 133.146 132.642C133.146 132.442 133.088 132.284 132.971 132.168C132.863 132.043 132.73 131.948 132.572 131.881C132.414 131.806 132.269 131.752 132.136 131.719L131.125 131.432C130.518 131.258 130.073 131.008 129.791 130.684C129.516 130.36 129.379 129.981 129.379 129.549C129.379 129.15 129.479 128.805 129.679 128.514C129.886 128.214 130.165 127.982 130.514 127.815C130.872 127.649 131.271 127.566 131.711 127.566C132.302 127.566 132.83 127.716 133.295 128.015C133.769 128.314 134.106 128.734 134.306 129.275L133.358 129.711C133.208 129.362 132.984 129.087 132.684 128.888C132.385 128.68 132.048 128.576 131.674 128.576C131.333 128.576 131.063 128.663 130.863 128.838C130.664 129.004 130.564 129.216 130.564 129.474C130.564 129.665 130.614 129.823 130.714 129.948C130.813 130.064 130.934 130.156 131.075 130.222C131.217 130.281 131.354 130.331 131.487 130.372L132.585 130.696C133.133 130.854 133.557 131.1 133.857 131.432C134.164 131.765 134.318 132.164 134.318 132.63C134.318 133.004 134.214 133.34 134.006 133.64C133.798 133.939 133.512 134.172 133.146 134.338C132.78 134.505 132.356 134.588 131.874 134.588ZM138.93 134.588C138.281 134.588 137.703 134.434 137.196 134.126C136.689 133.819 136.29 133.399 135.999 132.867C135.708 132.326 135.562 131.723 135.562 131.058C135.562 130.385 135.703 129.786 135.986 129.262C136.277 128.738 136.668 128.327 137.159 128.027C137.657 127.72 138.214 127.566 138.83 127.566C139.329 127.566 139.769 127.657 140.152 127.84C140.543 128.015 140.871 128.256 141.137 128.564C141.411 128.863 141.619 129.208 141.761 129.599C141.91 129.981 141.985 130.38 141.985 130.796C141.985 130.888 141.977 130.992 141.96 131.108C141.952 131.216 141.939 131.32 141.923 131.42H136.41V130.422H141.249L140.701 130.871C140.775 130.439 140.734 130.052 140.576 129.711C140.418 129.37 140.185 129.1 139.877 128.9C139.57 128.701 139.221 128.601 138.83 128.601C138.439 128.601 138.081 128.701 137.757 128.9C137.433 129.1 137.179 129.387 136.996 129.761C136.822 130.127 136.751 130.563 136.784 131.071C136.751 131.561 136.826 131.993 137.009 132.368C137.2 132.733 137.466 133.02 137.807 133.228C138.156 133.428 138.535 133.528 138.942 133.528C139.391 133.528 139.769 133.424 140.077 133.216C140.385 133.008 140.634 132.742 140.825 132.418L141.798 132.916C141.665 133.224 141.457 133.507 141.175 133.764C140.9 134.014 140.572 134.213 140.189 134.363C139.815 134.513 139.395 134.588 138.93 134.588ZM143.498 134.438V124.997H144.657V134.438H143.498ZM149.55 134.588C148.902 134.588 148.324 134.434 147.817 134.126C147.309 133.819 146.91 133.399 146.619 132.867C146.328 132.326 146.183 131.723 146.183 131.058C146.183 130.385 146.324 129.786 146.607 129.262C146.898 128.738 147.289 128.327 147.779 128.027C148.278 127.72 148.835 127.566 149.45 127.566C149.949 127.566 150.39 127.657 150.773 127.84C151.163 128.015 151.492 128.256 151.758 128.564C152.032 128.863 152.24 129.208 152.381 129.599C152.531 129.981 152.606 130.38 152.606 130.796C152.606 130.888 152.598 130.992 152.581 131.108C152.573 131.216 152.56 131.32 152.544 131.42H147.031V130.422H151.87L151.321 130.871C151.396 130.439 151.355 130.052 151.197 129.711C151.039 129.37 150.806 129.1 150.498 128.9C150.191 128.701 149.841 128.601 149.45 128.601C149.06 128.601 148.702 128.701 148.378 128.9C148.054 129.1 147.8 129.387 147.617 129.761C147.442 130.127 147.372 130.563 147.405 131.071C147.372 131.561 147.447 131.993 147.63 132.368C147.821 132.733 148.087 133.02 148.428 133.228C148.777 133.428 149.155 133.528 149.563 133.528C150.012 133.528 150.39 133.424 150.698 133.216C151.005 133.008 151.255 132.742 151.446 132.418L152.419 132.916C152.286 133.224 152.078 133.507 151.795 133.764C151.521 134.014 151.192 134.213 150.81 134.363C150.436 134.513 150.016 134.588 149.55 134.588ZM157.236 134.588C156.579 134.588 155.993 134.434 155.478 134.126C154.971 133.819 154.571 133.399 154.28 132.867C153.989 132.334 153.844 131.736 153.844 131.071C153.844 130.397 153.989 129.798 154.28 129.275C154.571 128.751 154.971 128.335 155.478 128.027C155.993 127.72 156.579 127.566 157.236 127.566C157.677 127.566 158.089 127.645 158.471 127.803C158.853 127.961 159.19 128.173 159.481 128.439C159.772 128.705 159.984 129.017 160.117 129.374L159.082 129.873C158.924 129.524 158.683 129.241 158.359 129.025C158.034 128.801 157.66 128.688 157.236 128.688C156.829 128.688 156.459 128.792 156.126 129C155.802 129.208 155.544 129.491 155.353 129.848C155.162 130.206 155.066 130.617 155.066 131.083C155.066 131.532 155.162 131.939 155.353 132.305C155.544 132.663 155.802 132.946 156.126 133.153C156.459 133.361 156.829 133.465 157.236 133.465C157.66 133.465 158.034 133.357 158.359 133.141C158.683 132.916 158.924 132.621 159.082 132.255L160.117 132.779C159.984 133.128 159.772 133.44 159.481 133.715C159.19 133.981 158.853 134.193 158.471 134.351C158.089 134.509 157.677 134.588 157.236 134.588ZM164.365 134.513C163.708 134.513 163.2 134.326 162.843 133.952C162.494 133.577 162.319 133.049 162.319 132.368V128.826H161.097V127.716H161.346C161.646 127.716 161.883 127.624 162.057 127.441C162.232 127.258 162.319 127.017 162.319 126.718V126.169H163.479V127.716H164.988V128.826H163.479V132.33C163.479 132.555 163.512 132.75 163.579 132.916C163.654 133.083 163.774 133.216 163.94 133.316C164.107 133.407 164.327 133.453 164.601 133.453C164.66 133.453 164.73 133.449 164.814 133.44C164.905 133.432 164.988 133.424 165.063 133.415V134.438C164.955 134.463 164.834 134.48 164.701 134.488C164.568 134.505 164.456 134.513 164.365 134.513ZM172.214 134.588C171.673 134.588 171.178 134.467 170.729 134.226C170.289 133.985 169.948 133.644 169.707 133.203L169.869 133.004V134.438H168.734V124.997H169.894V129.162L169.719 128.875C169.969 128.476 170.31 128.16 170.742 127.928C171.174 127.686 171.669 127.566 172.226 127.566C172.858 127.566 173.423 127.72 173.922 128.027C174.429 128.335 174.829 128.755 175.12 129.287C175.411 129.811 175.556 130.41 175.556 131.083C175.556 131.74 175.411 132.334 175.12 132.867C174.829 133.399 174.429 133.819 173.922 134.126C173.423 134.434 172.854 134.588 172.214 134.588ZM172.126 133.465C172.55 133.465 172.929 133.361 173.261 133.153C173.594 132.946 173.852 132.663 174.035 132.305C174.226 131.939 174.321 131.532 174.321 131.083C174.321 130.617 174.226 130.21 174.035 129.861C173.852 129.503 173.594 129.221 173.261 129.013C172.929 128.796 172.55 128.688 172.126 128.688C171.702 128.688 171.32 128.792 170.979 129C170.646 129.208 170.38 129.495 170.181 129.861C169.989 130.218 169.894 130.626 169.894 131.083C169.894 131.532 169.989 131.939 170.181 132.305C170.38 132.663 170.646 132.946 170.979 133.153C171.32 133.361 171.702 133.465 172.126 133.465ZM177.077 134.438V127.716H178.237V134.438H177.077ZM177.077 126.643V125.146H178.237V126.643H177.077ZM180.037 134.438V124.997H181.197V134.438H180.037ZM182.996 134.438V124.997H184.156V134.438H182.996ZM185.956 134.438V127.716H187.116V134.438H185.956ZM185.956 126.643V125.146H187.116V126.643H185.956ZM188.916 134.438V127.716H190.051V129.025L189.864 128.913C190.03 128.489 190.296 128.16 190.662 127.928C191.036 127.686 191.472 127.566 191.971 127.566C192.454 127.566 192.882 127.674 193.256 127.89C193.638 128.106 193.938 128.406 194.154 128.788C194.378 129.171 194.491 129.603 194.491 130.085V134.438H193.318V130.459C193.318 130.085 193.252 129.769 193.119 129.512C192.986 129.254 192.795 129.054 192.545 128.913C192.304 128.763 192.025 128.688 191.709 128.688C191.393 128.688 191.111 128.763 190.861 128.913C190.62 129.054 190.429 129.258 190.288 129.524C190.146 129.782 190.076 130.094 190.076 130.459V134.438H188.916ZM199.356 137.182C198.882 137.182 198.441 137.107 198.034 136.957C197.635 136.808 197.29 136.6 196.999 136.334C196.716 136.076 196.5 135.772 196.35 135.423L197.435 134.924C197.551 135.24 197.772 135.506 198.096 135.723C198.429 135.947 198.844 136.059 199.343 136.059C199.726 136.059 200.071 135.985 200.378 135.835C200.694 135.694 200.944 135.477 201.127 135.186C201.31 134.904 201.401 134.559 201.401 134.151V132.642L201.613 132.867C201.38 133.324 201.044 133.673 200.603 133.914C200.171 134.155 199.693 134.276 199.169 134.276C198.537 134.276 197.971 134.13 197.472 133.839C196.974 133.54 196.583 133.137 196.3 132.63C196.017 132.114 195.876 131.544 195.876 130.921C195.876 130.289 196.017 129.719 196.3 129.212C196.583 128.705 196.969 128.306 197.46 128.015C197.959 127.716 198.524 127.566 199.156 127.566C199.68 127.566 200.154 127.686 200.578 127.928C201.01 128.16 201.355 128.485 201.613 128.9L201.439 129.212V127.716H202.574V134.151C202.574 134.733 202.436 135.253 202.162 135.71C201.888 136.167 201.505 136.525 201.015 136.783C200.532 137.049 199.979 137.182 199.356 137.182ZM199.268 133.153C199.668 133.153 200.025 133.054 200.341 132.854C200.665 132.654 200.923 132.388 201.114 132.056C201.306 131.715 201.401 131.337 201.401 130.921C201.401 130.513 201.306 130.139 201.114 129.798C200.923 129.457 200.665 129.187 200.341 128.988C200.025 128.788 199.668 128.688 199.268 128.688C198.861 128.688 198.491 128.788 198.158 128.988C197.826 129.187 197.564 129.457 197.373 129.798C197.19 130.131 197.098 130.505 197.098 130.921C197.098 131.337 197.19 131.715 197.373 132.056C197.564 132.388 197.822 132.654 198.146 132.854C198.479 133.054 198.853 133.153 199.268 133.153Z" fill="#3F4346"/>
</g>
<g filter="url(#filter3_d_4482_7618)">
<path d="M225.618 156.352H155.897C152.553 156.97 151.15 159.529 150.918 160.731C150.84 163.908 150.835 171.137 151.02 174.641C151.206 178.144 154.349 179.706 155.897 180.05H233.282C230.495 177.783 230.198 174.823 230.16 173.61C230.083 171.12 230.077 165.471 230.263 161.761C230.448 158.052 227.244 156.61 225.618 156.352Z" fill="#F2CA55"/>
<path d="M162.002 173.125V164.956H159.483V163.833H165.719V164.956H163.237V173.125H162.002ZM166.76 173.125V163.684H167.919V167.712L167.707 167.6C167.874 167.176 168.14 166.847 168.506 166.615C168.88 166.373 169.316 166.253 169.815 166.253C170.297 166.253 170.726 166.361 171.1 166.577C171.482 166.793 171.782 167.093 171.998 167.475C172.222 167.858 172.335 168.29 172.335 168.772V173.125H171.162V169.146C171.162 168.772 171.091 168.456 170.95 168.199C170.817 167.941 170.63 167.741 170.389 167.6C170.148 167.45 169.869 167.375 169.553 167.375C169.246 167.375 168.967 167.45 168.718 167.6C168.468 167.741 168.273 167.945 168.131 168.211C167.99 168.469 167.919 168.781 167.919 169.146V173.125H166.76ZM175.965 173.275C175.524 173.275 175.133 173.196 174.792 173.038C174.46 172.871 174.198 172.647 174.007 172.364C173.816 172.073 173.72 171.741 173.72 171.366C173.72 171.009 173.795 170.689 173.944 170.406C174.102 170.115 174.344 169.87 174.668 169.67C175 169.471 175.416 169.329 175.915 169.246L178.409 168.835V169.807L176.177 170.182C175.745 170.256 175.429 170.394 175.229 170.593C175.038 170.793 174.942 171.038 174.942 171.329C174.942 171.603 175.05 171.832 175.266 172.015C175.491 172.198 175.769 172.289 176.102 172.289C176.526 172.289 176.892 172.202 177.2 172.027C177.516 171.845 177.761 171.599 177.935 171.292C178.118 170.984 178.21 170.643 178.21 170.269V168.56C178.21 168.194 178.073 167.899 177.798 167.675C177.532 167.442 177.179 167.326 176.738 167.326C176.356 167.326 176.015 167.425 175.715 167.625C175.424 167.816 175.208 168.074 175.067 168.398L174.057 167.874C174.181 167.567 174.381 167.292 174.655 167.051C174.93 166.802 175.25 166.606 175.616 166.465C175.981 166.324 176.364 166.253 176.763 166.253C177.279 166.253 177.732 166.353 178.123 166.552C178.513 166.743 178.817 167.014 179.033 167.363C179.257 167.704 179.37 168.103 179.37 168.56V173.125H178.235V171.853L178.447 171.928C178.305 172.194 178.114 172.427 177.873 172.626C177.632 172.826 177.349 172.984 177.025 173.1C176.701 173.216 176.347 173.275 175.965 173.275ZM181.168 173.125V166.403H182.303V167.712L182.116 167.6C182.282 167.176 182.548 166.847 182.914 166.615C183.288 166.373 183.725 166.253 184.224 166.253C184.706 166.253 185.134 166.361 185.508 166.577C185.891 166.793 186.19 167.093 186.406 167.475C186.631 167.858 186.743 168.29 186.743 168.772V173.125H185.571V169.146C185.571 168.772 185.504 168.456 185.371 168.199C185.238 167.941 185.047 167.741 184.798 167.6C184.556 167.45 184.278 167.375 183.962 167.375C183.646 167.375 183.363 167.45 183.114 167.6C182.873 167.741 182.681 167.945 182.54 168.211C182.399 168.469 182.328 168.781 182.328 169.146V173.125H181.168ZM188.403 173.125V163.684H189.563V170.157L189.089 170.044L192.656 166.403H194.14L191.558 169.109L194.315 173.125H192.943L190.423 169.483L191.147 169.446L189.189 171.491L189.563 170.643V173.125H188.403ZM199.97 173.125V168.872L196.753 163.833H198.137L200.831 168.061H200.332L203.013 163.833H204.398L201.205 168.872V173.125H199.97ZM207.417 173.275C206.769 173.275 206.182 173.125 205.659 172.826C205.135 172.518 204.719 172.098 204.411 171.566C204.104 171.034 203.95 170.431 203.95 169.758C203.95 169.084 204.1 168.485 204.399 167.962C204.707 167.438 205.122 167.022 205.646 166.714C206.17 166.407 206.76 166.253 207.417 166.253C208.066 166.253 208.652 166.407 209.176 166.714C209.7 167.014 210.111 167.425 210.41 167.949C210.718 168.473 210.872 169.076 210.872 169.758C210.872 170.439 210.714 171.046 210.398 171.578C210.082 172.102 209.662 172.518 209.138 172.826C208.623 173.125 208.049 173.275 207.417 173.275ZM207.417 172.152C207.833 172.152 208.207 172.048 208.54 171.84C208.881 171.633 209.147 171.346 209.338 170.98C209.537 170.614 209.637 170.207 209.637 169.758C209.637 169.3 209.537 168.897 209.338 168.548C209.147 168.19 208.881 167.908 208.54 167.7C208.207 167.483 207.833 167.375 207.417 167.375C206.993 167.375 206.611 167.483 206.27 167.7C205.937 167.908 205.671 168.19 205.472 168.548C205.272 168.897 205.172 169.3 205.172 169.758C205.172 170.207 205.272 170.614 205.472 170.98C205.671 171.346 205.937 171.633 206.27 171.84C206.611 172.048 206.993 172.152 207.417 172.152ZM214.767 173.275C214.285 173.275 213.848 173.162 213.457 172.938C213.075 172.713 212.776 172.402 212.559 172.003C212.352 171.595 212.248 171.129 212.248 170.606V166.403H213.407V170.481C213.407 170.814 213.474 171.105 213.607 171.354C213.748 171.603 213.94 171.799 214.181 171.94C214.43 172.082 214.713 172.152 215.029 172.152C215.345 172.152 215.623 172.082 215.864 171.94C216.114 171.799 216.305 171.595 216.438 171.329C216.58 171.063 216.65 170.747 216.65 170.381V166.403H217.823V173.125H216.688V171.815L216.875 171.928C216.717 172.352 216.446 172.684 216.064 172.925C215.69 173.158 215.257 173.275 214.767 173.275ZM220.131 170.406L220.056 163.833H221.278L221.191 170.406H220.131ZM220.056 173.125V171.628H221.278V173.125H220.056Z" fill="#3F4346"/>
</g>
<rect x="199.282" y="194.05" width="34" height="34" rx="17" fill="#F2CA55"/>
<path d="M222.282 203.55H210.282C209.457 203.55 208.782 204.225 208.782 205.05V218.55L211.782 215.55H222.282C223.107 215.55 223.782 214.875 223.782 214.05V205.05C223.782 204.225 223.107 203.55 222.282 203.55ZM222.282 214.05H211.782L210.282 215.55V205.05H222.282V214.05Z" fill="#212528"/>
<defs>
<filter id="filter0_d_4482_7618" x="155.321" y="15.264" width="88.6508" height="45.0781" filterUnits="userSpaceOnUse" color-interpolation-filters="sRGB">
<feFlood flood-opacity="0" result="BackgroundImageFix"/>
<feColorMatrix in="SourceAlpha" type="matrix" values="0 0 0 0 0 0 0 0 0 0 0 0 0 0 0 0 0 0 127 0" result="hardAlpha"/>
<feOffset dy="4.4543"/>
<feGaussianBlur stdDeviation="5.34516"/>
<feComposite in2="hardAlpha" operator="out"/>
<feColorMatrix type="matrix" values="0 0 0 0 0 0 0 0 0 0 0 0 0 0 0 0 0 0 0.16 0"/>
<feBlend mode="normal" in2="BackgroundImageFix" result="effect1_dropShadow_4482_7618"/>
<feBlend mode="normal" in="SourceGraphic" in2="effect1_dropShadow_4482_7618" result="shape"/>
</filter>
<filter id="filter1_d_4482_7618" x="66.691" y="52.9614" width="177.281" height="45.4339" filterUnits="userSpaceOnUse" color-interpolation-filters="sRGB">
<feFlood flood-opacity="0" result="BackgroundImageFix"/>
<feColorMatrix in="SourceAlpha" type="matrix" values="0 0 0 0 0 0 0 0 0 0 0 0 0 0 0 0 0 0 127 0" result="hardAlpha"/>
<feOffset dy="4.4543"/>
<feGaussianBlur stdDeviation="5.34516"/>
<feComposite in2="hardAlpha" operator="out"/>
<feColorMatrix type="matrix" values="0 0 0 0 0 0 0 0 0 0 0 0 0 0 0 0 0 0 0.16 0"/>
<feBlend mode="normal" in2="BackgroundImageFix" result="effect1_dropShadow_4482_7618"/>
<feBlend mode="normal" in="SourceGraphic" in2="effect1_dropShadow_4482_7618" result="shape"/>
</filter>
<filter id="filter2_d_4482_7618" x="22.3097" y="91.0147" width="221.662" height="66.4822" filterUnits="userSpaceOnUse" color-interpolation-filters="sRGB">
<feFlood flood-opacity="0" result="BackgroundImageFix"/>
<feColorMatrix in="SourceAlpha" type="matrix" values="0 0 0 0 0 0 0 0 0 0 0 0 0 0 0 0 0 0 127 0" result="hardAlpha"/>
<feOffset dy="4.4543"/>
<feGaussianBlur stdDeviation="5.34516"/>
<feComposite in2="hardAlpha" operator="out"/>
<feColorMatrix type="matrix" values="0 0 0 0 0 0 0 0 0 0 0 0 0 0 0 0 0 0 0.16 0"/>
<feBlend mode="normal" in2="BackgroundImageFix" result="effect1_dropShadow_4482_7618"/>
<feBlend mode="normal" in="SourceGraphic" in2="effect1_dropShadow_4482_7618" result="shape"/>
</filter>
<filter id="filter3_d_4482_7618" x="140.177" y="150.116" width="103.795" height="45.0781" filterUnits="userSpaceOnUse" color-interpolation-filters="sRGB">
<feFlood flood-opacity="0" result="BackgroundImageFix"/>
<feColorMatrix in="SourceAlpha" type="matrix" values="0 0 0 0 0 0 0 0 0 0 0 0 0 0 0 0 0 0 127 0" result="hardAlpha"/>
<feOffset dy="4.4543"/>
<feGaussianBlur stdDeviation="5.34516"/>
<feComposite in2="hardAlpha" operator="out"/>
<feColorMatrix type="matrix" values="0 0 0 0 0 0 0 0 0 0 0 0 0 0 0 0 0 0 0.16 0"/>
<feBlend mode="normal" in2="BackgroundImageFix" result="effect1_dropShadow_4482_7618"/>
<feBlend mode="normal" in="SourceGraphic" in2="effect1_dropShadow_4482_7618" result="shape"/>
</filter>
</defs>
</svg>
