<svg width="600" height="450" viewBox="0 0 600 450" fill="none" xmlns="http://www.w3.org/2000/svg">
<g clip-path="url(#clip0_6449_44166)">
<g filter="url(#filter0_d_6449_44166)">
<rect x="83.334" y="80.6028" width="433.333" height="288.889" rx="9.16068" fill="white"/>
</g>
<ellipse cx="105" cy="102.271" rx="7.22222" ry="7.22222" fill="#DF434C"/>
<ellipse cx="123.056" cy="102.271" rx="7.22222" ry="7.22222" fill="#E7B44C"/>
<ellipse cx="141.111" cy="102.271" rx="7.22222" ry="7.22222" fill="#6BD280"/>
<rect x="162.777" y="95.049" width="339.444" height="14.4444" rx="7.22222" fill="#E1E3E8"/>
<rect x="177.223" y="163.657" width="325" height="153.472" rx="5.79812" fill="#F2F2F3"/>
<path d="M193.058 197.103V183.651H194.774L202.321 194.069L201.508 194.196V183.651H203.621V197.103H201.905L194.412 186.613L195.189 186.468V197.103H193.058ZM210.92 197.319C209.981 197.319 209.12 197.097 208.338 196.651C207.568 196.206 206.954 195.598 206.496 194.828C206.039 194.057 205.81 193.185 205.81 192.21C205.81 191.223 206.039 190.35 206.496 189.592C206.954 188.821 207.568 188.219 208.338 187.786C209.108 187.341 209.969 187.118 210.92 187.118C211.883 187.118 212.743 187.341 213.502 187.786C214.272 188.219 214.88 188.821 215.325 189.592C215.783 190.35 216.012 191.223 216.012 192.21C216.012 193.197 215.783 194.075 215.325 194.846C214.868 195.616 214.254 196.224 213.484 196.669C212.713 197.103 211.859 197.319 210.92 197.319ZM210.92 195.424C211.498 195.424 212.009 195.285 212.455 195.008C212.9 194.731 213.249 194.352 213.502 193.871C213.767 193.377 213.899 192.824 213.899 192.21C213.899 191.596 213.767 191.048 213.502 190.567C213.249 190.085 212.9 189.706 212.455 189.429C212.009 189.152 211.498 189.014 210.92 189.014C210.354 189.014 209.843 189.152 209.385 189.429C208.94 189.706 208.585 190.085 208.32 190.567C208.067 191.048 207.941 191.596 207.941 192.21C207.941 192.824 208.067 193.377 208.32 193.871C208.585 194.352 208.94 194.731 209.385 195.008C209.843 195.285 210.354 195.424 210.92 195.424ZM221.615 197.319C220.615 197.319 219.737 197.073 218.978 196.579C218.232 196.086 217.708 195.424 217.408 194.593L218.978 193.853C219.243 194.406 219.604 194.846 220.062 195.171C220.531 195.496 221.049 195.658 221.615 195.658C222.096 195.658 222.487 195.55 222.788 195.333C223.089 195.117 223.24 194.822 223.24 194.449C223.24 194.208 223.173 194.015 223.041 193.871C222.908 193.714 222.74 193.588 222.535 193.492C222.343 193.395 222.144 193.323 221.94 193.275L220.405 192.842C219.562 192.601 218.93 192.24 218.509 191.758C218.1 191.265 217.895 190.693 217.895 190.043C217.895 189.453 218.046 188.942 218.346 188.508C218.647 188.063 219.063 187.72 219.592 187.479C220.122 187.238 220.718 187.118 221.38 187.118C222.271 187.118 223.065 187.341 223.763 187.786C224.461 188.219 224.955 188.827 225.244 189.61L223.673 190.35C223.48 189.881 223.173 189.507 222.752 189.231C222.343 188.954 221.879 188.815 221.362 188.815C220.916 188.815 220.561 188.924 220.296 189.14C220.032 189.345 219.899 189.616 219.899 189.953C219.899 190.181 219.959 190.374 220.08 190.531C220.2 190.675 220.357 190.795 220.549 190.892C220.742 190.976 220.94 191.048 221.145 191.108L222.734 191.578C223.54 191.806 224.16 192.168 224.594 192.661C225.027 193.143 225.244 193.72 225.244 194.394C225.244 194.972 225.087 195.484 224.774 195.929C224.473 196.363 224.052 196.706 223.51 196.958C222.969 197.199 222.337 197.319 221.615 197.319ZM230.854 197.319C229.855 197.319 228.976 197.073 228.218 196.579C227.471 196.086 226.948 195.424 226.647 194.593L228.218 193.853C228.483 194.406 228.844 194.846 229.301 195.171C229.771 195.496 230.288 195.658 230.854 195.658C231.335 195.658 231.727 195.55 232.027 195.333C232.328 195.117 232.479 194.822 232.479 194.449C232.479 194.208 232.413 194.015 232.28 193.871C232.148 193.714 231.979 193.588 231.775 193.492C231.582 193.395 231.384 193.323 231.179 193.275L229.644 192.842C228.802 192.601 228.17 192.24 227.748 191.758C227.339 191.265 227.134 190.693 227.134 190.043C227.134 189.453 227.285 188.942 227.586 188.508C227.887 188.063 228.302 187.72 228.832 187.479C229.361 187.238 229.957 187.118 230.619 187.118C231.51 187.118 232.304 187.341 233.002 187.786C233.701 188.219 234.194 188.827 234.483 189.61L232.912 190.35C232.72 189.881 232.413 189.507 231.991 189.231C231.582 188.954 231.119 188.815 230.601 188.815C230.156 188.815 229.801 188.924 229.536 189.14C229.271 189.345 229.139 189.616 229.139 189.953C229.139 190.181 229.199 190.374 229.319 190.531C229.44 190.675 229.596 190.795 229.789 190.892C229.981 190.976 230.18 191.048 230.384 191.108L231.973 191.578C232.78 191.806 233.4 192.168 233.833 192.661C234.266 193.143 234.483 193.72 234.483 194.394C234.483 194.972 234.327 195.484 234.014 195.929C233.713 196.363 233.291 196.706 232.75 196.958C232.208 197.199 231.576 197.319 230.854 197.319ZM239.407 197.319C238.745 197.319 238.161 197.205 237.656 196.976C237.162 196.736 236.777 196.411 236.5 196.001C236.223 195.58 236.085 195.087 236.085 194.521C236.085 193.991 236.199 193.516 236.428 193.094C236.669 192.673 237.036 192.318 237.529 192.029C238.023 191.74 238.643 191.536 239.389 191.415L242.784 190.856V192.463L239.786 192.986C239.245 193.082 238.847 193.257 238.595 193.51C238.342 193.75 238.215 194.063 238.215 194.449C238.215 194.822 238.354 195.129 238.631 195.369C238.92 195.598 239.287 195.713 239.732 195.713C240.286 195.713 240.767 195.592 241.177 195.351C241.598 195.111 241.923 194.792 242.152 194.394C242.38 193.985 242.495 193.534 242.495 193.04V190.531C242.495 190.049 242.314 189.658 241.953 189.357C241.604 189.044 241.134 188.888 240.545 188.888C240.003 188.888 239.528 189.032 239.118 189.321C238.721 189.598 238.426 189.959 238.234 190.404L236.536 189.556C236.717 189.074 237.012 188.653 237.421 188.292C237.83 187.919 238.306 187.63 238.847 187.425C239.401 187.22 239.985 187.118 240.599 187.118C241.369 187.118 242.049 187.263 242.639 187.551C243.241 187.84 243.704 188.244 244.029 188.761C244.366 189.267 244.535 189.856 244.535 190.531V197.103H242.585V195.333L243 195.388C242.771 195.785 242.477 196.128 242.115 196.417C241.766 196.706 241.363 196.928 240.906 197.085C240.46 197.241 239.961 197.319 239.407 197.319ZM250.275 197.103V183.651H255.168C256.071 183.651 256.866 183.82 257.552 184.157C258.25 184.482 258.792 184.963 259.177 185.601C259.562 186.227 259.754 186.98 259.754 187.858C259.754 188.725 259.556 189.471 259.159 190.097C258.773 190.723 258.238 191.205 257.552 191.542C256.866 191.879 256.071 192.047 255.168 192.047H252.406V197.103H250.275ZM252.406 190.151H255.223C255.704 190.151 256.125 190.055 256.486 189.863C256.848 189.67 257.13 189.405 257.335 189.068C257.54 188.719 257.642 188.31 257.642 187.84C257.642 187.371 257.54 186.968 257.335 186.631C257.13 186.281 256.848 186.017 256.486 185.836C256.125 185.644 255.704 185.547 255.223 185.547H252.406V190.151ZM266.109 197.319C265.17 197.319 264.31 197.097 263.527 196.651C262.757 196.206 262.143 195.598 261.686 194.828C261.228 194.057 260.999 193.185 260.999 192.21C260.999 191.223 261.228 190.35 261.686 189.592C262.143 188.821 262.757 188.219 263.527 187.786C264.298 187.341 265.158 187.118 266.109 187.118C267.072 187.118 267.933 187.341 268.691 187.786C269.461 188.219 270.069 188.821 270.515 189.592C270.972 190.35 271.201 191.223 271.201 192.21C271.201 193.197 270.972 194.075 270.515 194.846C270.057 195.616 269.443 196.224 268.673 196.669C267.903 197.103 267.048 197.319 266.109 197.319ZM266.109 195.424C266.687 195.424 267.199 195.285 267.644 195.008C268.089 194.731 268.438 194.352 268.691 193.871C268.956 193.377 269.088 192.824 269.088 192.21C269.088 191.596 268.956 191.048 268.691 190.567C268.438 190.085 268.089 189.706 267.644 189.429C267.199 189.152 266.687 189.014 266.109 189.014C265.543 189.014 265.032 189.152 264.574 189.429C264.129 189.706 263.774 190.085 263.509 190.567C263.256 191.048 263.13 191.596 263.13 192.21C263.13 192.824 263.256 193.377 263.509 193.871C263.774 194.352 264.129 194.731 264.574 195.008C265.032 195.285 265.543 195.424 266.109 195.424ZM273.193 197.103V183.435H275.233V197.103H273.193ZM277.384 197.103V187.335H279.424V197.103H277.384ZM277.384 185.547L278.702 182.568H281.374L279.406 185.547H277.384ZM285.793 197.211C284.77 197.211 283.976 196.922 283.41 196.344C282.844 195.767 282.561 194.954 282.561 193.907V189.176H280.846V187.335H281.117C281.574 187.335 281.929 187.202 282.182 186.938C282.435 186.673 282.561 186.312 282.561 185.854V185.096H284.601V187.335H286.822V189.176H284.601V193.817C284.601 194.154 284.656 194.443 284.764 194.683C284.872 194.912 285.047 195.093 285.288 195.225C285.528 195.345 285.841 195.406 286.226 195.406C286.323 195.406 286.431 195.4 286.551 195.388C286.672 195.375 286.786 195.363 286.895 195.351V197.103C286.726 197.127 286.539 197.151 286.335 197.175C286.13 197.199 285.95 197.211 285.793 197.211ZM288.886 197.103V187.335H290.926V197.103H288.886ZM288.886 185.999V183.651H290.926V185.999H288.886ZM297.952 197.319C296.977 197.319 296.11 197.097 295.352 196.651C294.605 196.194 294.009 195.58 293.564 194.81C293.131 194.039 292.914 193.167 292.914 192.192C292.914 191.229 293.131 190.362 293.564 189.592C293.997 188.821 294.593 188.219 295.352 187.786C296.11 187.341 296.977 187.118 297.952 187.118C298.614 187.118 299.234 187.238 299.811 187.479C300.389 187.708 300.889 188.027 301.31 188.436C301.743 188.845 302.062 189.321 302.267 189.863L300.479 190.693C300.275 190.188 299.944 189.784 299.486 189.483C299.041 189.17 298.529 189.014 297.952 189.014C297.398 189.014 296.898 189.152 296.453 189.429C296.02 189.694 295.677 190.073 295.424 190.567C295.171 191.048 295.045 191.596 295.045 192.21C295.045 192.824 295.171 193.377 295.424 193.871C295.677 194.352 296.02 194.731 296.453 195.008C296.898 195.285 297.398 195.424 297.952 195.424C298.541 195.424 299.053 195.273 299.486 194.972C299.932 194.659 300.263 194.244 300.479 193.726L302.267 194.575C302.074 195.093 301.761 195.562 301.328 195.983C300.907 196.393 300.407 196.718 299.829 196.958C299.252 197.199 298.626 197.319 297.952 197.319ZM307.098 197.319C306.436 197.319 305.852 197.205 305.346 196.976C304.853 196.736 304.468 196.411 304.191 196.001C303.914 195.58 303.776 195.087 303.776 194.521C303.776 193.991 303.89 193.516 304.119 193.094C304.359 192.673 304.727 192.318 305.22 192.029C305.714 191.74 306.333 191.536 307.08 191.415L310.474 190.856V192.463L307.477 192.986C306.935 193.082 306.538 193.257 306.285 193.51C306.033 193.75 305.906 194.063 305.906 194.449C305.906 194.822 306.045 195.129 306.321 195.369C306.61 195.598 306.977 195.713 307.423 195.713C307.977 195.713 308.458 195.592 308.867 195.351C309.289 195.111 309.614 194.792 309.842 194.394C310.071 193.985 310.185 193.534 310.185 193.04V190.531C310.185 190.049 310.005 189.658 309.644 189.357C309.295 189.044 308.825 188.888 308.235 188.888C307.694 188.888 307.218 189.032 306.809 189.321C306.412 189.598 306.117 189.959 305.924 190.404L304.227 189.556C304.408 189.074 304.702 188.653 305.112 188.292C305.521 187.919 305.996 187.63 306.538 187.425C307.092 187.22 307.676 187.118 308.289 187.118C309.06 187.118 309.74 187.263 310.33 187.551C310.932 187.84 311.395 188.244 311.72 188.761C312.057 189.267 312.226 189.856 312.226 190.531V197.103H310.276V195.333L310.691 195.388C310.462 195.785 310.167 196.128 309.806 196.417C309.457 196.706 309.054 196.928 308.596 197.085C308.151 197.241 307.652 197.319 307.098 197.319ZM322.281 197.319C321.342 197.319 320.5 197.097 319.753 196.651C319.019 196.194 318.435 195.58 318.002 194.81C317.581 194.039 317.37 193.173 317.37 192.21C317.37 191.247 317.587 190.38 318.02 189.61C318.453 188.839 319.037 188.231 319.772 187.786C320.506 187.341 321.336 187.118 322.263 187.118C323.046 187.118 323.738 187.275 324.34 187.588C324.941 187.9 325.417 188.334 325.766 188.888L325.459 189.357V183.435H327.481V197.103H325.549V195.117L325.784 195.496C325.447 196.086 324.966 196.537 324.34 196.85C323.714 197.163 323.028 197.319 322.281 197.319ZM322.48 195.424C323.046 195.424 323.551 195.285 323.997 195.008C324.454 194.731 324.809 194.352 325.062 193.871C325.327 193.377 325.459 192.824 325.459 192.21C325.459 191.596 325.327 191.048 325.062 190.567C324.809 190.085 324.454 189.706 323.997 189.429C323.551 189.152 323.046 189.014 322.48 189.014C321.914 189.014 321.403 189.152 320.945 189.429C320.488 189.706 320.133 190.085 319.88 190.567C319.627 191.048 319.501 191.596 319.501 192.21C319.501 192.824 319.627 193.377 319.88 193.871C320.133 194.352 320.482 194.731 320.927 195.008C321.385 195.285 321.902 195.424 322.48 195.424ZM334.449 197.319C333.474 197.319 332.608 197.097 331.849 196.651C331.103 196.194 330.519 195.58 330.098 194.81C329.677 194.027 329.466 193.155 329.466 192.192C329.466 191.205 329.677 190.332 330.098 189.574C330.531 188.815 331.109 188.219 331.831 187.786C332.553 187.341 333.372 187.118 334.287 187.118C335.021 187.118 335.677 187.244 336.255 187.497C336.833 187.75 337.32 188.099 337.717 188.544C338.115 188.978 338.416 189.477 338.62 190.043C338.837 190.609 338.945 191.211 338.945 191.849C338.945 192.005 338.939 192.168 338.927 192.336C338.915 192.505 338.891 192.661 338.855 192.806H331.073V191.181H337.699L336.724 191.921C336.845 191.331 336.803 190.807 336.598 190.35C336.405 189.881 336.104 189.513 335.695 189.249C335.298 188.972 334.828 188.833 334.287 188.833C333.745 188.833 333.264 188.972 332.842 189.249C332.421 189.513 332.096 189.899 331.867 190.404C331.639 190.898 331.548 191.5 331.597 192.21C331.536 192.872 331.627 193.45 331.867 193.943C332.12 194.437 332.469 194.822 332.915 195.099C333.372 195.375 333.89 195.514 334.467 195.514C335.057 195.514 335.557 195.381 335.966 195.117C336.387 194.852 336.718 194.509 336.959 194.088L338.62 194.9C338.428 195.357 338.127 195.773 337.717 196.146C337.32 196.507 336.839 196.796 336.273 197.013C335.719 197.217 335.111 197.319 334.449 197.319ZM344.291 197.103V183.651H348.697C350.093 183.651 351.303 183.934 352.326 184.5C353.361 185.054 354.162 185.836 354.727 186.847C355.293 187.858 355.576 189.032 355.576 190.368C355.576 191.692 355.293 192.866 354.727 193.889C354.162 194.9 353.361 195.688 352.326 196.254C351.303 196.82 350.093 197.103 348.697 197.103H344.291ZM346.422 195.207H348.733C349.684 195.207 350.508 195.008 351.206 194.611C351.917 194.214 352.464 193.654 352.849 192.932C353.235 192.21 353.427 191.355 353.427 190.368C353.427 189.381 353.229 188.532 352.831 187.822C352.446 187.1 351.905 186.54 351.206 186.143C350.508 185.746 349.684 185.547 348.733 185.547H346.422V195.207ZM362.062 197.319C361.087 197.319 360.22 197.097 359.462 196.651C358.715 196.194 358.132 195.58 357.71 194.81C357.289 194.027 357.078 193.155 357.078 192.192C357.078 191.205 357.289 190.332 357.71 189.574C358.144 188.815 358.721 188.219 359.444 187.786C360.166 187.341 360.984 187.118 361.899 187.118C362.633 187.118 363.289 187.244 363.867 187.497C364.445 187.75 364.932 188.099 365.33 188.544C365.727 188.978 366.028 189.477 366.232 190.043C366.449 190.609 366.557 191.211 366.557 191.849C366.557 192.005 366.551 192.168 366.539 192.336C366.527 192.505 366.503 192.661 366.467 192.806H358.685V191.181H365.312L364.337 191.921C364.457 191.331 364.415 190.807 364.21 190.35C364.018 189.881 363.717 189.513 363.307 189.249C362.91 188.972 362.441 188.833 361.899 188.833C361.357 188.833 360.876 188.972 360.455 189.249C360.033 189.513 359.708 189.899 359.48 190.404C359.251 190.898 359.161 191.5 359.209 192.21C359.149 192.872 359.239 193.45 359.48 193.943C359.732 194.437 360.082 194.822 360.527 195.099C360.984 195.375 361.502 195.514 362.08 195.514C362.669 195.514 363.169 195.381 363.578 195.117C364 194.852 364.331 194.509 364.571 194.088L366.232 194.9C366.04 195.357 365.739 195.773 365.33 196.146C364.932 196.507 364.451 196.796 363.885 197.013C363.332 197.217 362.724 197.319 362.062 197.319ZM371.207 197.103L367.379 187.335H369.6L372.543 195.297H371.731L374.674 187.335H376.913L373.067 197.103H371.207ZM382.836 197.319C381.897 197.319 381.036 197.097 380.254 196.651C379.483 196.206 378.869 195.598 378.412 194.828C377.954 194.057 377.726 193.185 377.726 192.21C377.726 191.223 377.954 190.35 378.412 189.592C378.869 188.821 379.483 188.219 380.254 187.786C381.024 187.341 381.885 187.118 382.836 187.118C383.798 187.118 384.659 187.341 385.417 187.786C386.188 188.219 386.796 188.821 387.241 189.592C387.698 190.35 387.927 191.223 387.927 192.21C387.927 193.197 387.698 194.075 387.241 194.846C386.784 195.616 386.17 196.224 385.399 196.669C384.629 197.103 383.774 197.319 382.836 197.319ZM382.836 195.424C383.413 195.424 383.925 195.285 384.37 195.008C384.816 194.731 385.165 194.352 385.417 193.871C385.682 193.377 385.815 192.824 385.815 192.21C385.815 191.596 385.682 191.048 385.417 190.567C385.165 190.085 384.816 189.706 384.37 189.429C383.925 189.152 383.413 189.014 382.836 189.014C382.27 189.014 381.758 189.152 381.301 189.429C380.855 189.706 380.5 190.085 380.236 190.567C379.983 191.048 379.856 191.596 379.856 192.21C379.856 192.824 379.983 193.377 380.236 193.871C380.5 194.352 380.855 194.731 381.301 195.008C381.758 195.285 382.27 195.424 382.836 195.424ZM389.919 197.103V183.435H391.959V197.103H389.919ZM397.83 197.319C397.095 197.319 396.451 197.157 395.898 196.832C395.344 196.495 394.911 196.031 394.598 195.442C394.297 194.84 394.146 194.148 394.146 193.365V187.335H396.186V193.185C396.186 193.63 396.277 194.021 396.457 194.358C396.638 194.695 396.891 194.96 397.216 195.153C397.541 195.333 397.914 195.424 398.335 195.424C398.768 195.424 399.148 195.327 399.473 195.135C399.798 194.942 400.05 194.671 400.231 194.322C400.424 193.973 400.52 193.564 400.52 193.094V187.335H402.542V197.103H400.61V195.189L400.827 195.442C400.598 196.044 400.219 196.507 399.689 196.832C399.16 197.157 398.54 197.319 397.83 197.319ZM409.565 197.319C408.59 197.319 407.723 197.097 406.965 196.651C406.218 196.194 405.622 195.58 405.177 194.81C404.744 194.039 404.527 193.167 404.527 192.192C404.527 191.229 404.744 190.362 405.177 189.592C405.61 188.821 406.206 188.219 406.965 187.786C407.723 187.341 408.59 187.118 409.565 187.118C410.227 187.118 410.846 187.238 411.424 187.479C412.002 187.708 412.502 188.027 412.923 188.436C413.356 188.845 413.675 189.321 413.88 189.863L412.092 190.693C411.888 190.188 411.557 189.784 411.099 189.483C410.654 189.17 410.142 189.014 409.565 189.014C409.011 189.014 408.511 189.152 408.066 189.429C407.633 189.694 407.29 190.073 407.037 190.567C406.784 191.048 406.658 191.596 406.658 192.21C406.658 192.824 406.784 193.377 407.037 193.871C407.29 194.352 407.633 194.731 408.066 195.008C408.511 195.285 409.011 195.424 409.565 195.424C410.154 195.424 410.666 195.273 411.099 194.972C411.545 194.659 411.876 194.244 412.092 193.726L413.88 194.575C413.687 195.093 413.374 195.562 412.941 195.983C412.52 196.393 412.02 196.718 411.442 196.958C410.865 197.199 410.239 197.319 409.565 197.319ZM409.763 201.346C409.426 201.346 409.071 201.292 408.698 201.183C408.325 201.075 408.012 200.919 407.759 200.714L408.228 199.486C408.409 199.631 408.608 199.739 408.824 199.811C409.053 199.895 409.276 199.938 409.492 199.938C409.757 199.938 409.962 199.877 410.106 199.757C410.263 199.637 410.341 199.474 410.341 199.269C410.341 199.029 410.196 198.836 409.908 198.692C409.631 198.547 409.197 198.445 408.608 198.385L409.005 196.922H410.269L410.07 197.699C410.708 197.795 411.196 197.994 411.533 198.294C411.882 198.595 412.056 198.975 412.056 199.432C412.056 199.998 411.846 200.455 411.424 200.804C411.003 201.165 410.449 201.346 409.763 201.346ZM418.711 197.319C418.049 197.319 417.465 197.205 416.959 196.976C416.466 196.736 416.081 196.411 415.804 196.001C415.527 195.58 415.389 195.087 415.389 194.521C415.389 193.991 415.503 193.516 415.732 193.094C415.972 192.673 416.339 192.318 416.833 192.029C417.327 191.74 417.946 191.536 418.693 191.415L422.087 190.856V192.463L419.09 192.986C418.548 193.082 418.151 193.257 417.898 193.51C417.645 193.75 417.519 194.063 417.519 194.449C417.519 194.822 417.658 195.129 417.934 195.369C418.223 195.598 418.59 195.713 419.036 195.713C419.589 195.713 420.071 195.592 420.48 195.351C420.902 195.111 421.227 194.792 421.455 194.394C421.684 193.985 421.798 193.534 421.798 193.04V190.531C421.798 190.049 421.618 189.658 421.257 189.357C420.908 189.044 420.438 188.888 419.848 188.888C419.307 188.888 418.831 189.032 418.422 189.321C418.025 189.598 417.73 189.959 417.537 190.404L415.84 189.556C416.02 189.074 416.315 188.653 416.725 188.292C417.134 187.919 417.609 187.63 418.151 187.425C418.705 187.22 419.289 187.118 419.902 187.118C420.673 187.118 421.353 187.263 421.943 187.551C422.545 187.84 423.008 188.244 423.333 188.761C423.67 189.267 423.839 189.856 423.839 190.531V197.103H421.889V195.333L422.304 195.388C422.075 195.785 421.78 196.128 421.419 196.417C421.07 196.706 420.667 196.928 420.209 197.085C419.764 197.241 419.264 197.319 418.711 197.319ZM421.148 185.547C420.823 185.547 420.552 185.493 420.336 185.385C420.131 185.276 419.951 185.156 419.794 185.024C419.65 184.891 419.499 184.771 419.343 184.663C419.198 184.554 419.024 184.5 418.819 184.5C418.614 184.5 418.458 184.578 418.35 184.735C418.241 184.891 418.187 185.138 418.187 185.475H416.58C416.58 184.584 416.779 183.928 417.176 183.507C417.573 183.074 418.067 182.857 418.657 182.857C418.994 182.857 419.264 182.911 419.469 183.019C419.686 183.116 419.872 183.236 420.029 183.381C420.185 183.513 420.336 183.633 420.48 183.742C420.637 183.838 420.811 183.886 421.004 183.886C421.233 183.886 421.395 183.802 421.491 183.633C421.6 183.465 421.654 183.23 421.654 182.929H423.243C423.243 183.772 423.038 184.422 422.629 184.879C422.232 185.325 421.738 185.547 421.148 185.547ZM430.937 197.319C429.998 197.319 429.137 197.097 428.355 196.651C427.584 196.206 426.97 195.598 426.513 194.828C426.056 194.057 425.827 193.185 425.827 192.21C425.827 191.223 426.056 190.35 426.513 189.592C426.97 188.821 427.584 188.219 428.355 187.786C429.125 187.341 429.986 187.118 430.937 187.118C431.9 187.118 432.76 187.341 433.519 187.786C434.289 188.219 434.897 188.821 435.342 189.592C435.8 190.35 436.028 191.223 436.028 192.21C436.028 193.197 435.8 194.075 435.342 194.846C434.885 195.616 434.271 196.224 433.501 196.669C432.73 197.103 431.876 197.319 430.937 197.319ZM430.937 195.424C431.514 195.424 432.026 195.285 432.471 195.008C432.917 194.731 433.266 194.352 433.519 193.871C433.783 193.377 433.916 192.824 433.916 192.21C433.916 191.596 433.783 191.048 433.519 190.567C433.266 190.085 432.917 189.706 432.471 189.429C432.026 189.152 431.514 189.014 430.937 189.014C430.371 189.014 429.859 189.152 429.402 189.429C428.957 189.706 428.601 190.085 428.337 190.567C428.084 191.048 427.957 191.596 427.957 192.21C427.957 192.824 428.084 193.377 428.337 193.871C428.601 194.352 428.957 194.731 429.402 195.008C429.859 195.285 430.371 195.424 430.937 195.424Z" fill="#5D6164"/>
<rect x="191.668" y="234.074" width="173.333" height="7.22222" rx="3.61111" fill="#B9C2D0"/>
<rect x="191.668" y="248.519" width="173.333" height="7.22222" rx="3.61111" fill="#B9C2D0"/>
<rect x="191.668" y="216.019" width="252.778" height="10.8333" rx="5.41667" fill="#B9C2D0"/>
<rect x="97.7773" y="123.935" width="65" height="21.6667" rx="10.8333" fill="#F2F2F3"/>
<path d="M129.863 140.769V131.683H127.783V130.008H131.828V140.769H129.863Z" fill="#5D6164"/>
<rect x="97.7773" y="152.826" width="65" height="21.6667" rx="10.8333" fill="#F2F2F3"/>
<path d="M126.632 169.66V168.172L129.55 165.124C130.128 164.518 130.571 164.036 130.879 163.68C131.197 163.314 131.418 163.001 131.544 162.741C131.669 162.481 131.731 162.216 131.731 161.946C131.731 161.494 131.587 161.138 131.298 160.878C131.019 160.618 130.658 160.488 130.215 160.488C129.752 160.488 129.353 160.622 129.016 160.892C128.679 161.152 128.433 161.537 128.279 162.048L126.56 161.513C126.676 160.945 126.912 160.454 127.268 160.04C127.624 159.616 128.058 159.293 128.568 159.072C129.088 158.841 129.637 158.725 130.215 158.725C130.908 158.725 131.515 158.85 132.035 159.101C132.564 159.351 132.974 159.703 133.262 160.155C133.561 160.608 133.71 161.138 133.71 161.744C133.71 162.129 133.638 162.51 133.494 162.885C133.349 163.261 133.132 163.646 132.844 164.041C132.555 164.426 132.179 164.859 131.717 165.341L129.189 167.999H133.855V169.66H126.632Z" fill="#5D6164"/>
<rect x="97.7773" y="181.714" width="65" height="21.6667" rx="10.8333" fill="#F2CA55"/>
<path d="M130.094 198.721C129.507 198.721 128.948 198.615 128.419 198.403C127.899 198.182 127.451 197.874 127.076 197.479C126.71 197.074 126.459 196.598 126.324 196.049L128.043 195.442C128.217 195.933 128.481 196.309 128.838 196.569C129.194 196.819 129.613 196.944 130.094 196.944C130.48 196.944 130.812 196.872 131.091 196.728C131.38 196.583 131.606 196.376 131.77 196.106C131.934 195.827 132.016 195.5 132.016 195.124C132.016 194.749 131.934 194.431 131.77 194.171C131.616 193.901 131.394 193.694 131.106 193.55C130.817 193.405 130.475 193.333 130.08 193.333C129.897 193.333 129.704 193.352 129.502 193.391C129.31 193.429 129.136 193.487 128.982 193.564L128.534 192.625L131.322 189.448H126.931V187.786H133.532V189.332L130.73 192.611L130.759 191.874C131.404 191.884 131.967 192.024 132.449 192.293C132.93 192.563 133.306 192.934 133.576 193.405C133.845 193.877 133.98 194.431 133.98 195.066C133.98 195.76 133.811 196.386 133.474 196.944C133.137 197.493 132.675 197.926 132.088 198.244C131.5 198.562 130.836 198.721 130.094 198.721Z" fill="#3F4346"/>
<rect x="97.7773" y="210.602" width="65" height="21.6667" rx="10.8333" fill="#F2F2F3"/>
<path d="M131.012 227.435V225.067H126.072V223.42L130.896 216.674H132.947V223.42H134.522V225.067H132.947V227.435H131.012ZM127.516 224.128L127.17 223.42H131.012V218.22L131.517 218.379L127.516 224.128Z" fill="#5D6164"/>
<rect x="97.7773" y="239.493" width="65" height="21.6667" rx="10.8333" fill="#F2F2F3"/>
<path d="M130.124 256.5C129.556 256.5 129.012 256.394 128.492 256.182C127.981 255.97 127.538 255.672 127.163 255.286C126.797 254.892 126.547 254.425 126.412 253.885L128.116 253.279C128.28 253.77 128.545 254.136 128.911 254.376C129.277 254.607 129.681 254.723 130.124 254.723C130.49 254.723 130.813 254.646 131.092 254.492C131.381 254.328 131.602 254.107 131.756 253.827C131.91 253.539 131.987 253.206 131.987 252.831C131.987 252.455 131.905 252.128 131.742 251.849C131.588 251.569 131.371 251.353 131.092 251.199C130.813 251.035 130.49 250.953 130.124 250.953C129.748 250.953 129.407 251.035 129.098 251.199C128.8 251.362 128.583 251.598 128.448 251.906L126.845 251.545L127.697 245.565H133.562V247.226H128.477L129.214 246.374L128.607 250.881L128.044 250.419C128.314 250.024 128.641 249.735 129.026 249.552C129.421 249.369 129.898 249.277 130.456 249.277C131.169 249.277 131.785 249.432 132.305 249.74C132.835 250.048 133.244 250.467 133.533 250.996C133.822 251.526 133.966 252.137 133.966 252.831C133.966 253.524 133.798 254.15 133.461 254.709C133.124 255.267 132.666 255.705 132.088 256.023C131.511 256.341 130.856 256.5 130.124 256.5Z" fill="#5D6164"/>
<rect x="46.1914" y="297.786" width="169.571" height="46.4286" rx="23.2143" fill="#F2CA55"/>
<path d="M76.7559 311.715H93.0059V314.036H76.7559V311.715ZM76.7559 323.322H81.3987V330.286H88.363V323.322H93.0059L84.8809 315.197L76.7559 323.322ZM86.0416 321.001V327.965H83.7201V321.001H82.3621L84.8809 318.482L87.3996 321.001H86.0416Z" fill="#3F4346"/>
<path d="M107.044 329.501V313.359H112.915C113.999 313.359 114.952 313.561 115.775 313.966C116.613 314.356 117.263 314.933 117.725 315.699C118.188 316.45 118.419 317.353 118.419 318.407C118.419 319.447 118.18 320.343 117.704 321.094C117.242 321.845 116.599 322.423 115.775 322.827C114.952 323.232 113.999 323.434 112.915 323.434H109.6V329.501H107.044ZM109.6 321.159H112.98C113.558 321.159 114.064 321.043 114.497 320.812C114.93 320.581 115.27 320.263 115.515 319.859C115.761 319.44 115.884 318.949 115.884 318.386C115.884 317.822 115.761 317.338 115.515 316.934C115.27 316.515 114.93 316.197 114.497 315.981C114.064 315.749 113.558 315.634 112.98 315.634H109.6V321.159ZM124.994 329.761C124.113 329.761 123.34 329.566 122.676 329.176C122.012 328.771 121.492 328.215 121.116 327.507C120.755 326.785 120.574 325.954 120.574 325.016V317.779H123.023V324.799C123.023 325.333 123.131 325.803 123.348 326.207C123.564 326.612 123.868 326.929 124.258 327.161C124.648 327.377 125.095 327.486 125.601 327.486C126.121 327.486 126.576 327.37 126.966 327.139C127.356 326.908 127.659 326.583 127.876 326.164C128.107 325.745 128.223 325.254 128.223 324.691V317.779H130.649V329.501H128.331V327.204L128.591 327.507C128.317 328.229 127.862 328.786 127.226 329.176C126.59 329.566 125.847 329.761 124.994 329.761ZM139.77 329.761C138.86 329.761 138.029 329.573 137.278 329.197C136.541 328.822 135.971 328.28 135.566 327.572L135.848 327.117V329.501H133.508V313.099H135.956V320.206L135.566 319.642C136 318.978 136.577 318.458 137.3 318.082C138.022 317.707 138.845 317.519 139.77 317.519C140.882 317.519 141.879 317.786 142.76 318.321C143.655 318.855 144.356 319.584 144.861 320.509C145.381 321.433 145.641 322.473 145.641 323.629C145.641 324.784 145.381 325.824 144.861 326.749C144.356 327.673 143.662 328.41 142.781 328.959C141.9 329.493 140.896 329.761 139.77 329.761ZM139.531 327.486C140.225 327.486 140.839 327.319 141.373 326.987C141.907 326.655 142.326 326.2 142.63 325.622C142.947 325.03 143.106 324.366 143.106 323.629C143.106 322.892 142.947 322.235 142.63 321.657C142.326 321.079 141.907 320.624 141.373 320.292C140.839 319.96 140.225 319.794 139.531 319.794C138.852 319.794 138.239 319.96 137.69 320.292C137.155 320.624 136.729 321.079 136.411 321.657C136.108 322.235 135.956 322.892 135.956 323.629C135.956 324.366 136.108 325.03 136.411 325.622C136.729 326.2 137.155 326.655 137.69 326.987C138.239 327.319 138.852 327.486 139.531 327.486ZM148.023 329.501V313.099H150.471V329.501H148.023ZM153.334 329.501V317.779H155.782V329.501H153.334ZM153.334 316.176V313.359H155.782V316.176H153.334ZM164.213 329.761C163.043 329.761 162.003 329.493 161.093 328.959C160.197 328.41 159.482 327.673 158.948 326.749C158.428 325.824 158.168 324.777 158.168 323.607C158.168 322.452 158.428 321.412 158.948 320.487C159.468 319.563 160.183 318.841 161.093 318.321C162.003 317.786 163.043 317.519 164.213 317.519C165.007 317.519 165.751 317.663 166.445 317.952C167.138 318.227 167.737 318.609 168.243 319.101C168.763 319.592 169.146 320.162 169.391 320.812L167.246 321.809C167.001 321.202 166.604 320.718 166.055 320.357C165.52 319.982 164.906 319.794 164.213 319.794C163.549 319.794 162.949 319.96 162.415 320.292C161.895 320.61 161.483 321.065 161.18 321.657C160.876 322.235 160.725 322.892 160.725 323.629C160.725 324.366 160.876 325.03 161.18 325.622C161.483 326.2 161.895 326.655 162.415 326.987C162.949 327.319 163.549 327.486 164.213 327.486C164.921 327.486 165.535 327.305 166.055 326.944C166.589 326.568 166.986 326.07 167.246 325.449L169.391 326.467C169.16 327.088 168.785 327.652 168.265 328.157C167.759 328.648 167.16 329.038 166.466 329.327C165.773 329.616 165.022 329.761 164.213 329.761ZM175.189 329.761C174.394 329.761 173.694 329.623 173.087 329.349C172.495 329.06 172.032 328.67 171.7 328.179C171.368 327.673 171.202 327.081 171.202 326.402C171.202 325.767 171.339 325.196 171.614 324.691C171.902 324.185 172.343 323.759 172.935 323.412C173.527 323.066 174.271 322.82 175.167 322.676L179.24 322.004V323.932L175.644 324.561C174.994 324.676 174.517 324.886 174.214 325.189C173.91 325.478 173.759 325.853 173.759 326.316C173.759 326.763 173.925 327.132 174.257 327.421C174.604 327.695 175.044 327.832 175.579 327.832C176.243 327.832 176.821 327.688 177.312 327.399C177.817 327.11 178.207 326.727 178.482 326.251C178.756 325.759 178.894 325.218 178.894 324.626V321.614C178.894 321.036 178.677 320.567 178.244 320.206C177.825 319.83 177.261 319.642 176.554 319.642C175.904 319.642 175.333 319.816 174.842 320.162C174.365 320.494 174.011 320.928 173.78 321.462L171.744 320.444C171.96 319.866 172.314 319.361 172.805 318.927C173.296 318.479 173.867 318.133 174.517 317.887C175.181 317.642 175.882 317.519 176.619 317.519C177.543 317.519 178.359 317.692 179.067 318.039C179.789 318.386 180.345 318.869 180.735 319.491C181.14 320.097 181.342 320.805 181.342 321.614V329.501H179.002V327.377L179.5 327.442C179.226 327.919 178.872 328.331 178.439 328.677C178.02 329.024 177.536 329.291 176.987 329.479C176.452 329.667 175.853 329.761 175.189 329.761ZM184.205 329.501V317.779H186.545V320.141L186.328 319.794C186.588 319.028 187.007 318.479 187.585 318.147C188.162 317.801 188.856 317.627 189.665 317.627H190.38V319.859H189.361C188.552 319.859 187.895 320.112 187.39 320.617C186.898 321.108 186.653 321.816 186.653 322.741V329.501H184.205Z" fill="#3F4346"/>
<rect x="490.357" y="178.619" width="52.619" height="52.619" rx="26.3095" fill="#FDF4E2"/>
<path d="M506.145 200.866H518.912V203.187H506.145V200.866ZM506.145 198.545H518.912V196.223H506.145V198.545ZM506.145 207.83H514.27V205.509H506.145V207.83ZM523.567 204.197L524.391 203.373C524.844 202.92 525.575 202.92 526.028 203.373L526.852 204.197C527.304 204.65 527.304 205.381 526.852 205.834L526.028 206.658L523.567 204.197ZM522.743 205.021L516.591 211.173V213.634H519.052L525.203 207.482L522.743 205.021Z" fill="#8C5D00"/>
<path d="M186.177 128.675V131.835H191.443V144.474H194.603V131.835H199.869V128.675H186.177ZM179.857 137.101H183.017V144.474H186.177V137.101H189.337V133.941H179.857V137.101Z" fill="#5D6164"/>
<path d="M229.37 136.353C230.392 135.648 231.108 134.489 231.108 133.415C231.108 131.034 229.265 129.202 226.895 129.202H220.312V143.947H227.727C229.929 143.947 231.635 142.157 231.635 139.955C231.635 138.354 230.729 136.985 229.37 136.353ZM223.472 131.835H226.632C227.506 131.835 228.212 132.54 228.212 133.415C228.212 134.289 227.506 134.995 226.632 134.995H223.472V131.835ZM227.159 141.314H223.472V138.154H227.159C228.033 138.154 228.738 138.86 228.738 139.734C228.738 140.608 228.033 141.314 227.159 141.314Z" fill="#5D6164"/>
<path d="M259.979 129.202V132.361H262.306L258.704 140.787H255.766V143.947H264.192V140.787H261.864L265.466 132.361H268.405V129.202H259.979Z" fill="#5D6164"/>
<path d="M298.195 141.841C301.681 141.841 304.514 139.007 304.514 135.521V127.095H301.881V135.521C301.881 137.554 300.228 139.207 298.195 139.207C296.162 139.207 294.509 137.554 294.509 135.521V127.095H291.876V135.521C291.876 139.007 294.709 141.841 298.195 141.841ZM290.822 143.947V146.054H305.568V143.947H290.822Z" fill="#5D6164"/>
<path d="M325.775 136.574C325.775 134.773 327.239 133.309 329.04 133.309H333.253V131.308H329.04C326.133 131.308 323.773 133.667 323.773 136.574C323.773 139.481 326.133 141.841 329.04 141.841H333.253V139.839H329.04C327.239 139.839 325.775 138.375 325.775 136.574ZM330.093 137.628H338.519V135.521H330.093V137.628ZM339.572 131.308H335.359V133.309H339.572C341.373 133.309 342.837 134.773 342.837 136.574C342.837 138.375 341.373 139.839 339.572 139.839H335.359V141.841H339.572C342.479 141.841 344.838 139.481 344.838 136.574C344.838 133.667 342.479 131.308 339.572 131.308Z" fill="#5D6164"/>
<path d="M362.252 134.994C361.378 134.994 360.672 135.7 360.672 136.574C360.672 137.449 361.378 138.154 362.252 138.154C363.126 138.154 363.832 137.449 363.832 136.574C363.832 135.7 363.126 134.994 362.252 134.994ZM362.252 128.675C361.378 128.675 360.672 129.381 360.672 130.255C360.672 131.129 361.378 131.835 362.252 131.835C363.126 131.835 363.832 131.129 363.832 130.255C363.832 129.381 363.126 128.675 362.252 128.675ZM362.252 141.314C361.378 141.314 360.672 142.03 360.672 142.894C360.672 143.757 361.388 144.474 362.252 144.474C363.115 144.474 363.832 143.757 363.832 142.894C363.832 142.03 363.126 141.314 362.252 141.314ZM365.411 143.947H380.157V141.841H365.411V143.947ZM365.411 137.628H380.157V135.521H365.411V137.628ZM365.411 129.202V131.308H380.157V129.202H365.411Z" fill="#5D6164"/>
<path d="M413.901 129.202V143.947H399.155V129.202H413.901ZM413.901 127.095H399.155C397.997 127.095 397.049 128.043 397.049 129.202V143.947C397.049 145.106 397.997 146.054 399.155 146.054H413.901C415.059 146.054 416.007 145.106 416.007 143.947V129.202C416.007 128.043 415.059 127.095 413.901 127.095ZM408.782 136.427L405.622 140.503L403.368 137.775L400.209 141.841H412.847L408.782 136.427Z" fill="#5D6164"/>
</g>
<defs>
<filter id="filter0_d_6449_44166" x="60.4828" y="63.4644" width="479.036" height="334.591" filterUnits="userSpaceOnUse" color-interpolation-filters="sRGB">
<feFlood flood-opacity="0" result="BackgroundImageFix"/>
<feColorMatrix in="SourceAlpha" type="matrix" values="0 0 0 0 0 0 0 0 0 0 0 0 0 0 0 0 0 0 127 0" result="hardAlpha"/>
<feOffset dy="5.71279"/>
<feGaussianBlur stdDeviation="11.4256"/>
<feComposite in2="hardAlpha" operator="out"/>
<feColorMatrix type="matrix" values="0 0 0 0 0 0 0 0 0 0 0 0 0 0 0 0 0 0 0.25 0"/>
<feBlend mode="normal" in2="BackgroundImageFix" result="effect1_dropShadow_6449_44166"/>
<feBlend mode="normal" in="SourceGraphic" in2="effect1_dropShadow_6449_44166" result="shape"/>
</filter>
<clipPath id="clip0_6449_44166">
<rect width="520" height="328.095" fill="white" transform="translate(40 61)"/>
</clipPath>
</defs>
</svg>
