<svg xmlns="http://www.w3.org/2000/svg" width="56" height="40" fill="none" viewBox="0 0 56 40"><g clip-path="url(#clip0_10495_13712)"><path fill="#097895" fill-rule="evenodd" d="M5.982 2.8h-.03L4.486 6.966h2.912L5.982 2.799Zm9.887 1.813c-.368 0-.675.076-.92.23a1.854 1.854 0 0 0-.6.597c-.152.245-.26.526-.322.843a5.186 5.186 0 0 0-.094.986c0 .34.034.653.101.97.068.32.18.596.332.837.152.239.355.432.607.58.251.148.555.222.912.222.356 0 .675-.074.923-.223.245-.147.445-.34.598-.579.15-.24.26-.517.323-.836a4.98 4.98 0 0 0 .095-.97c0-.331-.034-.652-.101-.971-.07-.318-.183-.6-.34-.851a1.918 1.918 0 0 0-.606-.605c-.247-.154-.55-.23-.905-.23h-.003Zm8.879 0c-.38 0-.694.076-.946.23a1.82 1.82 0 0 0-.607.597 2.53 2.53 0 0 0-.324.843 4.983 4.983 0 0 0 0 1.934c.063.311.17.594.324.843.15.248.355.448.607.595.252.15.567.223.946.223.38 0 .695-.074.95-.223a1.71 1.71 0 0 0 .616-.595c.152-.25.258-.532.323-.843a4.76 4.76 0 0 0 .093-.963c0-.329-.03-.653-.093-.97a2.53 2.53 0 0 0-.323-.844 1.82 1.82 0 0 0-.616-.597c-.256-.154-.573-.23-.95-.23Zm15.616 0c-.38 0-.69.076-.944.23a1.84 1.84 0 0 0-.608.597 2.495 2.495 0 0 0-.321.843 5.109 5.109 0 0 0 0 1.934c.064.311.17.594.32.843.154.248.355.448.609.595.253.15.565.223.944.223.38 0 .696-.074.952-.223.258-.147.462-.347.614-.595.152-.25.261-.532.323-.843a4.991 4.991 0 0 0 0-1.933 2.468 2.468 0 0 0-.323-.844 1.802 1.802 0 0 0-.614-.597c-.255-.154-.574-.23-.952-.23ZM7.257 0l4.204 11.358H8.895l-.85-2.53H3.841l-.882 2.53H.473L4.723 0h2.534Zm24.59 0v11.358H29.61V0h2.235Zm3.668 0v11.358h-2.236V0h2.236ZM24.749 2.913c.64 0 1.22.101 1.739.309.52.207.964.499 1.33.875.366.376.649.832.85 1.368.198.534.3 1.13.3 1.789s-.1 1.251-.3 1.781a3.892 3.892 0 0 1-.85 1.36c-.366.377-.81.667-1.33.868-.52.201-1.1.301-1.739.301s-1.219-.1-1.733-.3a3.724 3.724 0 0 1-1.322-.868 3.85 3.85 0 0 1-.851-1.361 5.053 5.053 0 0 1-.298-1.781c0-.659.1-1.255.298-1.79.2-.535.482-.991.85-1.367a3.826 3.826 0 0 1 1.323-.875c.514-.208 1.092-.31 1.733-.31Zm15.617 0c.638 0 1.219.101 1.74.309.52.207.96.499 1.328.875.367.376.65.832.85 1.368.2.534.298 1.13.298 1.789s-.098 1.251-.298 1.781a3.87 3.87 0 0 1-.85 1.36c-.367.377-.81.667-1.329.868-.52.201-1.1.301-1.74.301-.638 0-1.217-.1-1.732-.3a3.725 3.725 0 0 1-1.322-.868 3.892 3.892 0 0 1-.85-1.361c-.2-.53-.3-1.122-.3-1.781 0-.659.099-1.255.3-1.79.2-.535.483-.991.85-1.367a3.812 3.812 0 0 1 1.322-.875c.517-.208 1.092-.31 1.733-.31Zm-24.008 0c.64 0 1.191.121 1.653.364.463.245.845.566 1.149.97.306.404.528.872.677 1.407.148.537.22 1.096.22 1.68 0 .55-.074 1.082-.22 1.59-.149.509-.37.96-.668 1.353a3.33 3.33 0 0 1-1.118.939c-.446.23-.969.348-1.566.348a3.14 3.14 0 0 1-1.394-.31 2.631 2.631 0 0 1-.992-.835l-.055-.079h-.031v7.205h-2.237V3.132H13.9v1.052h.03c.274-.445.62-.769 1.04-.97a3.16 3.16 0 0 1 1.385-.301h.002Z" clip-rule="evenodd"/><path fill="#F29123" fill-rule="evenodd" d="M51.764 13.21H19.266a3.301 3.301 0 0 0-3.301 3.301V39.59a.413.413 0 0 0 .645.342l2.148-1.454a8.259 8.259 0 0 1 4.625-1.417h28.383a3.301 3.301 0 0 0 3.301-3.302V16.511a3.301 3.301 0 0 0-3.301-3.301h-.002Z" clip-rule="evenodd"/><path fill="#fff" d="m34.188 21.513-3.611 4.841h3.611v-4.841Zm2.655-2.812v7.653h2.089v2.304h-2.089v2.713h-2.655v-2.713h-5.993v-2.812l5.33-7.145h3.318Zm16.048 0v2.245c-.956.82-4.51 4.042-5.076 10.425h-2.792c.527-6.813 4.763-10.348 4.763-10.348h-6.521V18.7h9.625l.001.001Zm-29.932-.293c2.832 0 4.568 1.875 4.568 4.08 0 1.64-.898 2.968-2.46 3.925l-2.44 1.483c-.488.312-.898.663-1.093 1.152h6.072v2.323h-9.372c.02-2.225.722-4.042 2.987-5.408l2.088-1.25c1.074-.645 1.504-1.308 1.504-2.187 0-.878-.645-1.738-1.914-1.738-1.346 0-2.011.918-2.011 2.108 0 .235.038.489.098.704l-2.558-.079a4.83 4.83 0 0 1-.098-.878c0-2.225 1.678-4.237 4.626-4.237l.003.002Zm18.644-2.382v18.181h-.813v-18.18h.813Z"/></g><defs><clipPath id="clip0_10495_13712"><path fill="#fff" d="M.473 0h54.593v40H.473z"/></clipPath></defs></svg>