<?xml version="1.0" encoding="utf-8"?>
<!-- Generator: Adobe Illustrator 25.0.0, SVG Export Plug-In . SVG Version: 6.00 Build 0)  -->
<svg version="1.1" id="Layer_1" xmlns="http://www.w3.org/2000/svg" xmlns:xlink="http://www.w3.org/1999/xlink" x="0px" y="0px"
	 viewBox="0 0 1134 300" style="enable-background:new 0 0 1134 300;" xml:space="preserve">
<style type="text/css">
	.st0{fill:#0071BB;}
	.st1{fill:#FFFFFF;}
</style>
<rect class="st0" width="1134" height="300"/>
<g>
	<path class="st1" d="M421.29,136.11V54.96h71.76c14.79,0,38.6,2,38.6,21.29c0,9.48-8.32,16.17-17.99,18.59
		c12.05,3.62,17.99,10.28,17.99,19.39c0,19.89-22.6,21.79-38.6,21.85h-71.76V136.11z M447.64,101.92l7.53-12.44
		c1.94-2.82,5.13-4.5,8.54-4.52h29.33c5.24,0,9.51-2.4,9.51-6.46c0-4.07-4.23-6.51-9.51-6.51h-45.41V101.92z M447.64,101.92v34.15
		l7.53-12.46c1.94-2.81,5.13-4.5,8.54-4.52h28.94c5.48,0.09,9.82-3.8,9.82-8.54c0-4.75-4.25-8.57-9.82-8.57L447.64,101.92z
		 M595.35,74.55l-35.57,61.62H528.8l49.6-81.21h33.9l49.55,81.15H630.9l-8.32-14.46h-45.92l7.62-12.44c1.95-2.8,5.13-4.48,8.54-4.52
		h19.89L595.35,74.55z M810.79,74.55l-35.54,61.62H744.2l49.58-81.21h33.9l49.54,81.15h-30.87l-8.33-14.46h-45.91l7.53-12.44
		c1.93-2.8,5.11-4.49,8.51-4.52h19.92l-17.36-30.13H810.79z M709.85,119.1c6.03,0,10.83-2.91,10.83-8.81V54.96h26.23v57.76
		c0,17.51-11.59,23.38-26.76,23.38h-43.84c-3.41-0.04-6.58-1.72-8.53-4.52l-7.62-12.5L709.85,119.1z M925.19,119.1
		c6.03,0,10.86-2.91,10.86-8.81V54.96h26.31v57.76c0,17.51-11.56,23.38-26.74,23.38h-43.84c-3.41-0.02-6.6-1.71-8.53-4.52
		l-7.62-12.5L925.19,119.1z"/>
	<path class="st1" d="M421.14,163.12h64.96v19.72h-42.46v19.34h38.39v18.67h-38.39v23.47h-22.51V163.12z"/>
	<path class="st1" d="M501.41,163.12h22.6v81.21h-22.6V163.12z"/>
	<path class="st1" d="M543.52,163.12h21l33.42,42.92v-42.92h22.27v81.21h-19.72l-34.65-44.54v44.54h-22.31V163.12z"/>
	<path class="st1" d="M633.09,232.26l12.52-14.96c7.39,6.19,16.7,9.63,26.34,9.75c6.03,0,9.28-2.09,9.28-5.57v-0.23
		c0-3.36-2.67-5.23-13.68-7.77c-17.3-3.95-30.63-8.81-30.63-25.52v-0.23c0-15.07,11.95-25.99,31.44-25.99
		c13.8,0,24.59,3.71,33.4,10.79l-11.25,15.89c-7.43-5.23-15.53-8.02-22.73-8.02c-5.45,0-8.12,2.32-8.12,5.23v0.23
		c0,3.72,2.79,5.33,14.04,7.89c18.68,4.05,30.27,10.09,30.27,25.3v0.23c0,16.57-13.11,26.44-32.81,26.44
		C656.74,245.71,643.06,241.19,633.09,232.26z"/>
	<path class="st1" d="M719.51,163.12h65.31v19.15h-43.03v12.29h38.98v17.75h-38.98v12.9h43.62v19.13h-65.9V163.12z"/>
	<path class="st1" d="M801.53,163.12h38.4c12.41,0,21,3.25,26.44,8.81c4.76,4.64,7.2,10.91,7.2,18.91v0.24
		c0,12.41-6.61,20.64-16.71,24.93l19.37,28.31h-25.99l-16.36-24.59h-9.85v24.59h-22.51V163.12z M838.81,202.11
		c7.67,0,12.05-3.72,12.05-9.64v-0.23c0-6.39-4.64-9.63-12.17-9.63h-14.73v19.5L838.81,202.11z"/>
	<path class="st1" d="M880.76,163.12h25.18l18.44,51.39l18.4-51.39h24.71l-32.95,81.79h-20.82L880.76,163.12z"/>
	<path class="st1" d="M338.62,177.15c0,28.88-32.27,31.64-55.1,31.77h-20.53v-26h40.83v-19.84h-40.83v-26.97h45.2v-20.97h-69.14
		v93.83h-26.41V91.03h70.92c21.09,0,55.1,3.01,55.1,30.92c0,13.8-11.83,23.95-25.61,27.44
		C330.12,154.66,338.62,163.12,338.62,177.15z M272.48,44.04c-58.52,0-105.96,47.44-105.96,105.96s47.44,105.96,105.96,105.96
		S378.44,208.52,378.44,150l0,0c0-58.51-47.42-105.94-105.93-105.96L272.48,44.04z"/>
</g>
</svg>
