<?xml version="1.0" encoding="UTF-8" standalone="no"?>
<!-- Created with Inkscape (http://www.inkscape.org/) -->

<svg
   xmlns:dc="http://purl.org/dc/elements/1.1/"
   xmlns:cc="http://creativecommons.org/ns#"
   xmlns:rdf="http://www.w3.org/1999/02/22-rdf-syntax-ns#"
   xmlns:svg="http://www.w3.org/2000/svg"
   xmlns="http://www.w3.org/2000/svg"
   xmlns:sodipodi="http://sodipodi.sourceforge.net/DTD/sodipodi-0.dtd"
   xmlns:inkscape="http://www.inkscape.org/namespaces/inkscape"
   width="128.00024mm"
   height="17.15686mm"
   viewBox="0 0 128.00024 17.15686"
   version="1.1"
   id="svg5583"
   inkscape:version="0.92.0 r15299"
   sodipodi:docname="housing com.svg">
  <defs
     id="defs5577" />
  <sodipodi:namedview
     id="base"
     pagecolor="#ffffff"
     bordercolor="#666666"
     borderopacity="1.0"
     inkscape:pageopacity="0.0"
     inkscape:pageshadow="2"
     inkscape:zoom="1.8687462"
     inkscape:cx="240.00048"
     inkscape:cy="30.532649"
     inkscape:document-units="mm"
     inkscape:current-layer="layer1"
     showgrid="false"
     fit-margin-top="0"
     fit-margin-left="0"
     fit-margin-right="0"
     fit-margin-bottom="0"
     inkscape:window-width="1280"
     inkscape:window-height="744"
     inkscape:window-x="-4"
     inkscape:window-y="-4"
     inkscape:window-maximized="1" />
  <metadata
     id="metadata5580">
    <rdf:RDF>
      <cc:Work
         rdf:about="">
        <dc:format>image/svg+xml</dc:format>
        <dc:type
           rdf:resource="http://purl.org/dc/dcmitype/StillImage" />
        <dc:title></dc:title>
      </cc:Work>
    </rdf:RDF>
  </metadata>
  <g
     inkscape:label="Layer 1"
     inkscape:groupmode="layer"
     id="layer1"
     transform="translate(18.898935,-182.08824)">
    <g
       id="g5634"
       transform="translate(0.49999457,-0.49999912)">
      <path
         d="m -2.7417145,197.55918 c 0,0.93169 -0.75494,1.68592 -1.68592,1.68592 H -17.212655 c -0.93134,0 -1.68628,-0.75423 -1.68628,-1.68592 v -12.78502 c 0,-0.93098 0.75494,-1.68592 1.68628,-1.68592 h 12.7850205 c 0.93098,0 1.68592,0.75494 1.68592,1.68592 z"
         style="fill:#ffdc00;fill-opacity:1;fillRule:evenodd;stroke:none;stroke-width:0.35277778"
         id="path5349"
         inkscape:connector-curvature="0" />
      <path
         d="m -10.820534,187.75753 -5.428541,5.4289 c 0,0 1.102431,1.10172 1.26223,1.26153 0.15981,0.15981 0.370421,0.17956 0.546811,0.004 0.144639,-0.14499 3.37361,-3.42406 3.37361,-3.42406 0.17287,-0.18662 0.23284,-0.32385 0.24589,-0.37536 0.0138,0.0515 0.0737,0.18874 0.24624,0.37536 0,0 3.2289695,3.27907 3.3739695,3.42406 0.17603,0.17603 0.38699,0.15628 0.5468,-0.004 0.16016,-0.15981 1.26189,-1.26153 1.26189,-1.26153 z"
         style="fill:#7323dc;fill-opacity:1;fillRule:evenodd;stroke:none;stroke-width:0.35277778"
         id="path5353"
         inkscape:connector-curvature="0" />
      <path
         d="m 5.1667255,192.8781 c 0,0.43603 0.25329,0.69603 0.67769,0.69603 h 3.383131 c 0.1323,0 0.269528,-0.0145 0.39864,-0.0392 -0.01799,0.11642 -0.0272,0.2473 -0.0272,0.39159 v 3.46039 c 0,0.43004 0.246938,0.67734 0.6776865,0.67734 h 2.114192 v -7.2263 H 5.1666855 Z"
         style="fill:#000000;fill-opacity:1;fillRule:nonzero;stroke:none;stroke-width:0.35277778"
         id="path5357"
         inkscape:connector-curvature="0" />
      <path
         d="m 1.4461555,184.96497 v 12.44071 c 0,0.4191 0.25365,0.65863 0.69603,0.65863 h 2.09585 v -13.79537 h -2.09585 c -0.44238,0 -0.69603,0.25365 -0.69603,0.69603"
         style="fill:#000000;fill-opacity:1;fillRule:nonzero;stroke:none;stroke-width:0.35277778"
         id="path5361"
         inkscape:connector-curvature="0" />
      <path
         d="m 10.277235,184.26887 c -0.4310905,0 -0.6780385,0.2473 -0.6780385,0.67839 v 4.28484 c 0,0.43109 0.246948,0.67874 0.6780385,0.67874 h 2.113489 v -5.64197 z"
         style="fill:#000000;fill-opacity:1;fillRule:nonzero;stroke:none;stroke-width:0.35277778"
         id="path5365"
         inkscape:connector-curvature="0" />
      <path
         d="m 20.216324,184.06655 c -3.35139,0 -5.352698,1.94557 -5.352698,5.20382 v 3.84705 c 0,3.22509 2.001308,5.1502 5.352698,5.1502 3.300942,0 5.351992,-1.99461 5.351992,-5.20524 v -3.84669 c 0,-3.17605 -2.05105,-5.14914 -5.351992,-5.14914 m -2.561169,5.20382 c 0,-1.72367 0.861131,-2.5975 2.561169,-2.5975 1.699332,0 2.560812,0.87383 2.560812,2.5975 v 3.79201 c 0,1.72368 -0.86148,2.59821 -2.560812,2.59821 -1.700038,0 -2.561169,-0.87453 -2.561169,-2.59821 z"
         style="fill:#000000;fill-opacity:1;fillRule:nonzero;stroke:none;stroke-width:0.35277778"
         id="path5369"
         inkscape:connector-curvature="0" />
      <path
         d="m 36.228307,184.26852 c -0.436391,0 -0.696381,0.25365 -0.696381,0.67839 v 8.18938 c 0,1.67499 -0.806101,2.52448 -2.39536,2.52448 -1.57798,0 -2.377019,-0.84949 -2.377019,-2.52448 v -8.86777 h -2.113852 c -0.430739,0 -0.67768,0.2473 -0.67768,0.67839 v 8.2991 c 0,3.14431 1.93181,5.02144 5.168551,5.02144 3.198979,0 5.186529,-1.92405 5.186529,-5.02144 v -8.97749 z"
         style="fill:#000000;fill-opacity:1;fillRule:nonzero;stroke:none;stroke-width:0.35277778"
         id="path5373"
         inkscape:connector-curvature="0" />
      <path
         d="m 46.443695,189.96496 c -2.320219,-0.84737 -2.94816,-1.19627 -2.94816,-2.03729 0,-0.83115 0.682271,-1.32786 1.825271,-1.32786 0.97014,0 1.577271,0.37395 1.970608,1.21638 0.138653,0.27799 0.324911,0.4131 0.568683,0.4131 0.103719,0 0.215199,-0.0254 0.33161,-0.0748 l 1.768128,-0.64311 -0.0494,-0.14958 c -0.732369,-2.21721 -2.22744,-3.29529 -4.571648,-3.29529 -2.772132,0 -4.634442,1.55151 -4.634442,3.86115 0,2.4003 1.53352,3.43676 4.00861,4.33105 1.94945,0.70344 2.59856,1.09079 2.59856,2.00025 0,0.89606 -0.7747,1.47496 -1.972728,1.47496 -1.279882,0 -2.035173,-0.46707 -2.31281,-1.43792 -0.132652,-0.37606 -0.389822,-0.45543 -0.582081,-0.45543 -0.0974,0 -0.207082,0.0208 -0.324559,0.0617 l -1.75895,0.62019 0.0356,0.14287 c 0.594778,2.42394 2.19393,3.60221 4.887737,3.60221 2.882191,0 4.818941,-1.64817 4.818941,-4.10104 0,-1.98226 -1.128889,-3.27766 -3.65901,-4.20158"
         style="fill:#000000;fill-opacity:1;fillRule:nonzero;stroke:none;stroke-width:0.35277778"
         id="path5377"
         inkscape:connector-curvature="0" />
      <path
         d="m 53.032135,184.26852 c -0.435679,0 -0.696029,0.25365 -0.696029,0.67839 v 12.44071 c 0,0.42439 0.26035,0.67769 0.696029,0.67769 h 2.09515 v -13.79679 z"
         style="fill:#000000;fill-opacity:1;fillRule:nonzero;stroke:none;stroke-width:0.35277778"
         id="path5381"
         inkscape:connector-curvature="0" />
      <path
         d="m 66.853976,184.26852 c -0.430739,0 -0.67804,0.2473 -0.67804,0.67839 v 6.6795 c 0,0.87735 0.02469,1.73848 0.0765,2.61126 -0.37006,-0.98496 -0.7687,-1.98579 -1.202971,-2.9203 l -3.393718,-7.04885 h -2.862792 c -0.45897,0 -0.73307,0.27411 -0.73307,0.73272 v 12.38638 c 0,0.42439 0.26035,0.67769 0.69673,0.67769 h 2.00307 v -7.39599 c 0,-0.92463 -0.0289,-1.80587 -0.0878,-2.67123 0.36054,0.94756 0.788109,2.02 1.287989,3.02013 l 3.201112,6.43925 c 0.204959,0.43145 0.471659,0.60784 0.920398,0.60784 h 2.774952 v -13.79679 z"
         style="fill:#000000;fill-opacity:1;fillRule:nonzero;stroke:none;stroke-width:0.35277778"
         id="path5385"
         inkscape:connector-curvature="0" />
      <path
         d="m 76.592296,190.28719 -0.02011,1.78153 c 0,0.43039 0.246951,0.67733 0.677331,0.67733 h 1.4732 c 0.14288,0 0.26847,-0.008 0.378888,-0.0275 -0.0173,0.0995 -0.0265,0.2085 -0.0265,0.32527 v 0.62582 c 0,1.26577 -0.873482,1.99108 -2.39536,1.99108 -1.699681,0 -2.561521,-0.88688 -2.561521,-2.63525 v -3.71792 c 0,-1.77271 0.83785,-2.6349 2.561521,-2.6349 1.14758,0 1.879949,0.4893 2.24014,1.49684 0.14428,0.38311 0.478358,0.52211 0.885118,0.37253 l 1.878542,-0.63959 -0.0452,-0.14993 c -0.73941,-2.48038 -2.361478,-3.68653 -4.958279,-3.68653 h -0.0451 c -3.323879,0 -5.307899,1.92476 -5.307899,5.1495 v 3.90172 c 0,3.22545 2.000599,5.15021 5.352698,5.15021 2.999671,0 5.09446,-1.93605 5.09446,-4.70782 v -3.27237 z"
         style="fill:#000000;fill-opacity:1;fillRule:nonzero;stroke:none;stroke-width:0.35277778"
         id="path5389"
         inkscape:connector-curvature="0" />
      <path
         d="m 96.912435,192.68354 v 2.33892 c 0,1.14899 -0.59831,1.75612 -1.73002,1.75612 -1.13171,0 -1.73002,-0.60713 -1.73002,-1.75612 v -2.33892 c 0,-1.14864 0.59831,-1.75577 1.73002,-1.75577 1.13171,0 1.73002,0.60713 1.73002,1.75577 m -1.73002,-3.19405 c -2.06516,0 -3.29812,1.20403 -3.29812,3.22016 v 2.36466 c 0,1.98403 1.23296,3.1683 3.29812,3.1683 2.06481,0 3.29776,-1.20368 3.29776,-3.22015 v -2.36467 c 0,-1.98402 -1.23295,-3.1683 -3.29776,-3.1683"
         style="fill:#000000;fill-opacity:1;fillRule:nonzero;stroke:none;stroke-width:0.35277778"
         id="path5393"
         inkscape:connector-curvature="0" />
      <path
         d="m 87.770555,191.02181 c 0.77047,0 1.28129,0.33514 1.52329,1.00683 0.0854,0.19932 0.22649,0.25858 0.44874,0.18485 l 1.09819,-0.36618 -0.0706,-0.19685 c -0.49812,-1.391 -1.48026,-2.06692 -3.00073,-2.06692 l -0.0642,-3.7e-4 c -2.02389,0 -3.23251,1.18428 -3.23251,3.1683 v 2.22885 c 0,1.98402 1.20862,3.16865 3.23251,3.16865 h 7.9e-4 l 0.0646,-3.5e-4 c 1.52012,0 2.50155,-0.67628 2.99967,-2.06693 l 0.0706,-0.1972 -1.09855,-0.36583 c -0.21907,-0.073 -0.36053,-0.0187 -0.44838,0.18485 -0.24059,0.66816 -0.75318,1.00683 -1.52329,1.00683 -1.14794,0 -1.73002,-0.59972 -1.73002,-1.78188 v -2.12478 c 0,-1.18251 0.58208,-1.78188 1.73002,-1.78188"
         style="fill:#000000;fill-opacity:1;fillRule:nonzero;stroke:none;stroke-width:0.35277778"
         id="path5397"
         inkscape:connector-curvature="0" />
      <path
         d="m 106.80451,189.66821 c -0.17251,0 -0.32491,0.10407 -0.38806,0.26494 l -2.38901,6.0018 -2.49378,-6.26674 h -1.16382 c -0.23001,0 -0.416985,0.18697 -0.416985,0.41663 v 7.5625 c 0,0.22966 0.186975,0.41628 0.416985,0.41628 h 1.06045 v -4.5773 l 1.67041,4.30036 c 0.0593,0.16581 0.21695,0.27694 0.39264,0.27694 h 1.35713 l 1.77342,-4.578 v 4.16172 c 0,0.22966 0.18697,0.41628 0.41663,0.41628 h 1.0608 v -8.39541 z"
         style="fill:#000000;fill-opacity:1;fillRule:nonzero;stroke:none;stroke-width:0.35277778"
         id="path5401"
         inkscape:connector-curvature="0" />
      <path
         d="m 83.299415,196.83214 h -0.82197 c -0.11289,0 -0.20461,0.0917 -0.20461,0.20496 v 0.82162 c 0,0.11324 0.0917,0.20497 0.20461,0.20497 h 0.82197 c 0.11324,0 0.20496,-0.0917 0.20496,-0.20497 v -0.82162 c 0,-0.11324 -0.0917,-0.20496 -0.20496,-0.20496"
         style="fill:#000000;fill-opacity:1;fillRule:nonzero;stroke:none;stroke-width:0.35277778"
         id="path5405"
         inkscape:connector-curvature="0" />
    </g>
  </g>
</svg>
