<svg width="903" height="124" viewBox="0 0 903 124" fill="none" xmlns="http://www.w3.org/2000/svg">
<path d="M268.231 32.9084H200.488C197.162 32.9084 194.018 34.7587 192.209 37.5887L180.761 56.3646C180.761 56.3646 249.013 56.351 249.013 56.3646C251.104 56.5123 253.066 57.5467 254.5 59.2578C255.934 60.9688 256.734 63.228 256.735 65.5756L256.722 101.454H205.527V91.141C205.527 89.1002 207.008 87.4539 208.817 87.4539H244.582V74.1879C244.582 70.9362 242.786 69.1132 240.333 69.1132H190.728C184.658 69.1132 179.741 74.6234 179.741 81.4126V114.148C179.741 114.298 179.79 114.474 179.862 114.678C180.542 119.59 184.33 123.196 188.895 123.196H285.616V52.4192C285.616 41.6436 277.834 32.9084 268.231 32.9084ZM885.329 32.9084H817.61C814.259 32.9084 811.127 34.7587 809.318 37.5887L797.858 56.3646C797.858 56.3646 866.122 56.351 866.122 56.3646C870.42 56.6639 873.856 60.6776 873.856 65.5756L873.831 101.454H822.624V91.141C822.624 89.1002 824.105 87.4539 825.926 87.4539H861.703V74.1879C861.703 70.9362 859.894 69.1132 857.43 69.1132H807.837C801.767 69.1132 796.863 74.6234 796.863 81.4126V114.148C796.863 114.298 796.911 114.474 796.983 114.678C797.651 119.59 801.439 123.196 806.016 123.196H902.737V52.4192C902.737 41.6436 894.944 32.9084 885.329 32.9084ZM672.103 0.0835084V100.697H629.612C626.674 100.697 624.623 97.7589 624.623 95.3371V65.5814C624.623 60.4793 628.313 56.3704 632.865 56.3704H654.354C657.571 56.3704 660.861 54.3159 662.208 51.7989L672.103 32.9275L612.519 32.9417C602.928 32.9417 595.121 41.663 595.121 52.425C595.121 52.4931 595.134 52.5339 595.134 52.6019L595.121 107.065C595.121 117.433 602.6 123.201 609.398 123.201H701.603V0.0835084H672.103ZM733.005 32.9226C725.673 32.9226 720.938 39.2758 720.938 46.0922V123.209H750.439V65.7259C750.427 60.5558 753.705 56.2699 758.379 56.2699H780.207C783.375 56.0386 786.132 53.9566 787.807 51.1811L799.255 32.9226H733.005ZM426.802 62.2863V123.212H456.096V33.9589C456.096 33.9589 442.499 43.4418 432.884 50.163C429.217 52.8025 426.802 57.2386 426.802 62.2863ZM426.802 -0.000364243H456.096V22.7482L426.802 44.5443V-0.000364243ZM140.936 0.0785259H0V123.196H29.2696V28.8136H60.5553C61.989 28.8401 63.3556 29.4991 64.3581 30.648C65.3605 31.7969 65.9174 33.3428 65.9089 34.9496H65.9215V123.196H95.2156V34.9496C95.2156 31.5482 97.6801 28.7995 100.715 28.7995C100.727 28.7995 100.74 28.8136 100.764 28.8136H123.818C128.262 28.8136 131.868 32.8407 131.868 37.8204V123.196H161.15V22.7183C161.15 10.2284 152.093 0.0785259 140.936 0.0785259ZM558.667 32.9292L475.372 32.9832V123.203H504.849V56.3446H538.405C542.957 56.3446 546.647 60.4669 546.647 65.569H546.66V123.203H576.064V52.4259C576.064 41.6638 568.27 32.9292 558.667 32.9292ZM407.46 52.4018C407.46 41.6397 399.678 32.9043 390.063 32.9043C389.99 32.9043 389.808 32.9179 389.795 32.9043H351.53C348.082 32.9043 346.419 34.8499 344.634 37.8295C344.537 37.9792 333.125 56.3604 333.125 56.3604H370.286C374.681 56.5781 378.178 60.6195 378.178 65.5856L378.165 123.192H407.46V52.4018ZM303.83 0.0876605H333.137V123.192H303.83V0.0876605Z" fill="#E51636"/>
</svg>
