<svg version="1.1" id="Layer_1" xmlns:x="ns_extend;" xmlns:i="ns_ai;" xmlns:graph="ns_graphs;" xmlns="http://www.w3.org/2000/svg" xmlns:xlink="http://www.w3.org/1999/xlink" x="0px" y="0px" viewBox="0 0 90.3 76.3" style="enable-background:new 0 0 90.3 76.3;" xml:space="preserve">
 <style type="text/css">
  .st0{fill:#FFFFFF;}
	.st1{fill:#2859A6;}
	.st2{fill:#9DC248;}
 </style>
 <metadata>
  <sfw xmlns="ns_sfw;">
   <slices>
   </slices>
   <sliceSourceBounds bottomLeftOrigin="true" height="363.2" width="398.6" x="-132.1" y="-221.3">
   </sliceSourceBounds>
  </sfw>
 </metadata>
 <g>
  <path class="st0" d="M-236-234.6l0.1,0l0.1,0l0.1,0l0.1,0l0.1,0l0.1,0l0.1,0l0.1,0l0.1,0l0.1,0l0.1,0l0.1,0l0.1,0l0.1,0l0.1,0.1
		l0.1,0.1l0.1,0.1l0.1,0.1l0.1,0.1l0.1,0.1l0.1,0.1l0.1,0.1l0.1,0.1l0.1,0.1l0.1,0.1l0.1,0.1l0.1,0.1l0.1,0.1l0.1,0.1l0.1,0.1
		l0.1,0.1l0.1,0.1l0.1,0.1l0.1,0.1l0.1,0.1l0.1,0.1l0.1,0.1l0.1,0.1l0.1,0.1l0.1,0.1l0.1,0.1l0.1,0.1l0.1,0.1l0.1,0.1l0.1,0.1
		l0.1,0.1l0.1,0.1l0,0.1l0,0.1l0,0.2l0,0.2l0,0.2l0,0.2l0,0.2l0,0.2l0,0.2l0,0.2l0,0.2l0,0.2l0,0.2l0,0.2l0,0.2l0,0.2l0,0.2v0.2
		l0,0.2l0,0.2l0,0.2l0,0.2l0,0.2l0,0.2l0,0.2l0,0.2l0,0.2l0,0.2l0,0.2l0,0.2l0,0.2l0,0.2l0,0.1l0,0.1l-0.1,0.1l-0.1,0.1l-0.1,0.1
		l-0.1,0.1l-0.1,0.1l-0.1,0.1l-0.1,0.1l-0.1,0.1l-0.1,0.1l-0.1,0.1l-0.1,0.1l-0.1,0.1l-0.1,0.1l-0.1,0.1l-0.1,0.1l-0.1,0.1l-0.1,0.1
		l-0.1,0.1l-0.1,0.1l-0.1,0.1l-0.1,0.1l-0.1,0.1l-0.1,0.1l-0.1,0.1l-0.1,0.1l-0.1,0.1l-0.1,0.1l-0.1,0.1l-0.1,0.1l-0.1,0.1l-0.1,0.1
		l-0.1,0.1l-0.1,0.1l-0.1,0l-0.1,0l-0.1,0l-0.1,0l-0.1,0l-0.1,0l-0.1,0l-0.1,0l-0.1,0l-0.1,0l-0.1,0l-0.1,0l-0.1,0l-0.1,0l-0.2,0
		l-0.2,0l-0.1,0l-0.1,0l-0.1,0l-0.1,0l-0.1,0l-0.1,0l-0.1,0l-0.1,0l-0.1,0l-0.1,0l-0.1,0l-0.1,0l-0.1-0.1l-0.1-0.1l-0.1-0.1
		l-0.1-0.1l-0.1-0.1l-0.1-0.1l-0.1-0.1l-0.1-0.1l-0.1-0.1l-0.1-0.1l-0.1-0.1l-0.1-0.1l-0.1-0.1l-0.1-0.1l-0.1-0.1l-0.1-0.1l-0.1-0.1
		l-0.1-0.1l-0.1-0.1l-0.1-0.1l-0.1-0.1l-0.1-0.1l-0.1-0.1l-0.1-0.1l-0.1-0.1l-0.1-0.1l-0.1-0.1l-0.1-0.1l-0.1-0.1l-0.1-0.1l-0.1-0.1
		l-0.1-0.1l-0.1-0.1l0-0.1l0-0.2l0-0.2l0-0.2l0-0.2l0-0.2l0-0.2l0-0.2l0-0.2l0-0.2l0-0.2l0-0.2l0-0.2l0-0.2l0-0.2l0-0.2l0-0.2l0-0.2
		l0-0.2l0-0.2l0-0.2l0-0.2l0-0.2l0-0.2l0-0.2l0-0.2l0-0.2l0-0.2l0-0.2l0-0.2l0-0.2l0-0.2l0-0.1l0-0.1l0.1-0.1l0.1-0.1l0.1-0.1
		l0.1-0.1l0.1-0.1l0.1-0.1l0.1-0.1l0.1-0.1l0.1-0.1l0.1-0.1l0.1-0.1l0.1-0.1l0.1-0.1l0.1-0.1l0.1-0.1l0.1-0.1l0.1-0.1l0.1-0.1
		l0.1-0.1l0.1-0.1l0.1-0.1l0.1-0.1l0.1-0.1l0.1-0.1l0.1-0.1l0.1-0.1l0.1-0.1l0.1-0.1l0.1-0.1l0.1-0.1l0.1-0.1l0.1-0.1l0.1-0.1l0.1,0
		l0.1,0l0.1,0l0.1,0l0.1,0l0.1,0l0.1,0l0.1,0l0.1,0l0.1,0l0.1,0l0.1,0l0.1,0L-236-234.6z M-236-233.2l-0.2,0l-0.2,0l-0.2,0l-0.2,0
		l-0.2,0l-0.2,0.1l-0.2,0.1l-0.2,0.1l-0.2,0.1l-0.2,0.1l-0.2,0.1l-0.2,0.1l-0.2,0.1l-0.1,0.1l-0.1,0.2l-0.1,0.2l-0.1,0.1l-0.1,0.1
		l-0.1,0.1l-0.1,0.1l-0.1,0.1l-0.1,0.1l-0.1,0.1l-0.1,0.1l0,0.1l0,0.1l0,0.1l0,0.1l0,0.1l0,0.1l0,0.1l0,0.1l0,0.1l0,0.1l0,0.1l0,0.1
		l0,0.1l0,0.1l0,0.1l0,0.1l0,0.1l0,0.1l0,0.1l0,0.1l0,0.1l0,0.1l0,0.1l0,0.1l0,0.1l0,0.1l0,0.1l0,0.1l0,0.1l0,0.1l0,0.1l0,0.1l0,0.1
		l0,0.1l0,0.1l0,0.1l0,0.1l0,0.1l0,0.1l0,0.1l0,0.1l0,0.1l0,0.1l0,0.1l0,0.1l0,0.1l0,0.1l0.1,0.1l0.1,0.1l0.1,0.1l0.1,0.1l0.1,0.1
		l0.1,0.1l0.1,0.1l0.1,0.1l0.1,0.1l0.1,0.2l0.1,0.2l0.1,0.1l0.2,0.1l0.2,0.1l0.2,0.1l0.2,0.1l0.2,0.1l0.2,0.1l0.2,0.1l0.2,0.1l0.2,0
		l0.2,0l0.2,0l0.2,0l0.2,0l0.2,0l0.2,0l0.2,0l0.2,0l0.2,0l0.2-0.1l0.2-0.1l0.2-0.1l0.2-0.1l0.2-0.1l0.2-0.1l0.2-0.1l0.2-0.1l0.1-0.1
		l0.1-0.2l0.1-0.2l0.1-0.1l0.1-0.1l0.1-0.1l0.1-0.1l0.1-0.1l0.1-0.1l0.1-0.1l0.1-0.1l0.1-0.1l0-0.1l0-0.1l0-0.1l0-0.1l0-0.1l0-0.1
		l0-0.1l0-0.1l0-0.1l0-0.1l0-0.1l0-0.1l0-0.1l0-0.1l0-0.1l0-0.1l0-0.1l0-0.1l0-0.1l0-0.1l0-0.1l0-0.1l0-0.1l0-0.1l0-0.1l0-0.1l0-0.1
		l0-0.1l0-0.1l0-0.1l0-0.1l0-0.1l0-0.1l0-0.1l0-0.1l0-0.1l0-0.1l0-0.1l0-0.1l0-0.1l0-0.1l0-0.1l0-0.1l0-0.1l0-0.1l0-0.1l-0.1-0.1
		l-0.1-0.1l-0.1-0.1l-0.1-0.1l-0.1-0.1l-0.1-0.1l-0.1-0.1l-0.1-0.1l-0.1-0.1l-0.1-0.2l-0.1-0.2l-0.1-0.1l-0.2-0.1l-0.2-0.1l-0.2-0.1
		l-0.2-0.1l-0.2-0.1l-0.2-0.1l-0.2-0.1l-0.2-0.1l-0.2,0l-0.2,0l-0.2,0l-0.2,0">
  </path>
  <polyline class="st0" points="-245,-225.1 -245.1,-224.7 -245.2,-224.5 -245.3,-224.3 -245.4,-224.1 -245.5,-223.9 -245.6,-223.7 
		-245.8,-223.6 -245.9,-223.4 -246,-223.2 -246.1,-223.1 -246.3,-222.9 -246.4,-222.8 -246.5,-222.7 -246.7,-222.5 -246.8,-222.4 
		-247,-222.3 -247.1,-222.2 -247.3,-222.1 -247.5,-222 -247.6,-221.9 -247.8,-221.8 -248,-221.8 -248.2,-221.7 -248.4,-221.6 
		-248.5,-221.6 -248.7,-221.5 -248.9,-221.5 -249.1,-221.5 -249.3,-221.4 -249.5,-221.4 -249.7,-221.4 -249.9,-221.4 -250.1,-221.4 
		-250.2,-221.4 -250.4,-221.4 -250.5,-221.4 -250.7,-221.5 -250.8,-221.5 -251,-221.5 -251.1,-221.5 -251.2,-221.6 -251.4,-221.6 
		-251.5,-221.6 -251.6,-221.7 -251.8,-221.7 -251.9,-221.8 -252,-221.8 -252.2,-221.9 -252.3,-221.9 -252.4,-222 -252.5,-222.1 
		-252.6,-222.1 -252.8,-222.2 -252.9,-222.3 -253,-222.4 -253.1,-222.4 -253.2,-222.5 -253.3,-222.6 -253.4,-222.7 -253.5,-222.8 
		-253.6,-222.9 -253.7,-223 -253.8,-223.1 -253.9,-223.2 -254,-223.4 -254.1,-223.5 -254.2,-223.6 -254.3,-223.7 -254.3,-223.8 
		-254.4,-224 -254.5,-224.1 -254.6,-224.2 -254.6,-224.3 -254.7,-224.5 -254.8,-224.6 -254.8,-224.8 -254.9,-224.9 -254.9,-225 
		-255,-225.2 -255,-225.3 -255.1,-225.5 -255.1,-225.6 -255.2,-225.8 -255.2,-225.9 -255.2,-226.1 -255.3,-226.3 -255.3,-226.4 
		-255.3,-226.6 -255.3,-226.8 -255.4,-226.9 -255.4,-227.1 -255.4,-227.3 -255.4,-227.4 -255.4,-227.6 -255.4,-227.8 -255.4,-228 
		-255.4,-228.2 -255.4,-228.3 -255.4,-228.5 -255.4,-228.7 -255.4,-228.9 -255.4,-229 -255.3,-229.2 -255.3,-229.4 -255.3,-229.5 
		-255.3,-229.7 -255.2,-229.9 -255.2,-230 -255.2,-230.2 -255.1,-230.3 -255.1,-230.5 -255.1,-230.6 -255,-230.8 -255,-230.9 
		-254.9,-231.1 -254.8,-231.2 -254.8,-231.4 -254.7,-231.5 -254.7,-231.6 -254.6,-231.8 -254.5,-231.9 -254.4,-232 -254.4,-232.1 
		-254.3,-232.3 -254.2,-232.4 -254.1,-232.5 -254,-232.6 -253.9,-232.7 -253.8,-232.8 -253.7,-233 -253.6,-233.1 -253.5,-233.2 
		-253.4,-233.3 -253.3,-233.4 -253.2,-233.5 -253.1,-233.5 -253,-233.6 -252.9,-233.7 -252.8,-233.8 -252.7,-233.9 -252.5,-233.9 
		-252.4,-234 -252.3,-234.1 -252.2,-234.1 -252.1,-234.2 -251.9,-234.2 -251.8,-234.3 -251.7,-234.3 -251.5,-234.4 -251.4,-234.4 
		-251.3,-234.4 -251.1,-234.5 -251,-234.5 -250.9,-234.5 -250.7,-234.5 -250.6,-234.6 -250.4,-234.6 -250.3,-234.6 -250.1,-234.6 
		-250,-234.6 -249.8,-234.6 -249.6,-234.6 -249.3,-234.5 -249.1,-234.5 -248.9,-234.5 -248.8,-234.5 -248.6,-234.4 -248.4,-234.4 
		-248.2,-234.3 -248,-234.2 -247.8,-234.2 -247.7,-234.1 -247.5,-234 -247.3,-233.9 -247.2,-233.8 -247,-233.7 -246.8,-233.6 
		-246.7,-233.5 -246.6,-233.3 -246.4,-233.2 -246.3,-233.1 -246.1,-232.9 -246,-232.8 -245.9,-232.6 -245.8,-232.4 -245.7,-232.3 
		-245.5,-232.1 -245.4,-231.9 -245.3,-231.7 -245.2,-231.5 -245.1,-231.3 -245,-230.9 -246.4,-230.2 -246.5,-230.6 -246.6,-230.8 
		-246.7,-231 -246.8,-231.1 -246.9,-231.3 -247,-231.4 -247.1,-231.5 -247.2,-231.7 -247.2,-231.8 -247.3,-231.9 -247.4,-232 
		-247.5,-232.1 -247.6,-232.2 -247.7,-232.3 -247.8,-232.4 -247.9,-232.5 -248.1,-232.6 -248.2,-232.6 -248.3,-232.7 -248.4,-232.8 
		-248.5,-232.8 -248.6,-232.9 -248.8,-232.9 -248.9,-233 -249,-233 -249.1,-233 -249.3,-233.1 -249.4,-233.1 -249.5,-233.1 
		-249.7,-233.1 -249.8,-233.1 -250,-233.1 -250.2,-233.1 -250.4,-233.1 -250.6,-233.1 -250.8,-233 -251,-233 -251.2,-232.9 
		-251.3,-232.9 -251.5,-232.8 -251.7,-232.7 -251.9,-232.6 -252,-232.5 -252.2,-232.3 -252.3,-232.2 -252.5,-232.1 -252.6,-231.9 
		-252.7,-231.7 -252.8,-231.7 -252.9,-231.6 -252.9,-231.5 -253,-231.4 -253,-231.3 -253.1,-231.2 -253.2,-231.1 -253.2,-231 
		-253.3,-230.9 -253.3,-230.8 -253.4,-230.7 -253.4,-230.6 -253.4,-230.4 -253.5,-230.3 -253.5,-230.2 -253.5,-230.1 -253.6,-230 
		-253.6,-229.9 -253.6,-229.7 -253.7,-229.6 -253.7,-229.5 -253.7,-229.4 -253.7,-229.2 -253.7,-229.1 -253.8,-229 -253.8,-228.8 
		-253.8,-228.7 -253.8,-228.6 -253.8,-228.4 -253.8,-228.3 -253.8,-228.1 -253.8,-228 -253.8,-227.8 -253.8,-227.7 -253.8,-227.6 
		-253.8,-227.4 -253.8,-227.3 -253.8,-227.1 -253.8,-227 -253.7,-226.9 -253.7,-226.7 -253.7,-226.6 -253.7,-226.5 -253.7,-226.4 
		-253.6,-226.2 -253.6,-226.1 -253.6,-226 -253.5,-225.9 -253.5,-225.8 -253.5,-225.7 -253.4,-225.5 -253.4,-225.4 -253.3,-225.3 
		-253.3,-225.2 -253.2,-225.1 -253.2,-225 -253.1,-224.9 -253.1,-224.8 -253,-224.7 -253,-224.6 -252.9,-224.5 -252.9,-224.4 
		-252.8,-224.3 -252.7,-224.3 -252.6,-224.1 -252.4,-223.9 -252.3,-223.8 -252.2,-223.7 -252,-223.5 -251.8,-223.4 -251.7,-223.3 
		-251.5,-223.2 -251.3,-223.1 -251.1,-223.1 -251,-223 -250.8,-223 -250.6,-222.9 -250.4,-222.9 -250.2,-222.9 -249.9,-222.9 
		-249.8,-222.9 -249.7,-222.9 -249.5,-222.9 -249.4,-222.9 -249.2,-222.9 -249.1,-223 -249,-223 -248.9,-223 -248.7,-223.1 
		-248.6,-223.1 -248.5,-223.2 -248.4,-223.2 -248.3,-223.3 -248.1,-223.4 -248,-223.4 -247.9,-223.5 -247.8,-223.6 -247.7,-223.7 
		-247.6,-223.8 -247.5,-223.9 -247.4,-224 -247.3,-224.1 -247.2,-224.2 -247.1,-224.3 -247,-224.5 -247,-224.6 -246.9,-224.7 
		-246.8,-224.9 -246.7,-225 -246.6,-225.2 -246.5,-225.4 -246.4,-225.8 	">
  </polyline>
  <polyline class="st0" points="-261.6,-221.7 -261.7,-234.2 -260.1,-234.2 -260.1,-221.7 	">
  </polyline>
  <polyline class="st0" points="-269.9,-232 -269.8,-232.2 -269.7,-232.4 -269.6,-232.5 -269.5,-232.7 -269.4,-232.9 -269.3,-233 
		-269.2,-233.1 -269.1,-233.3 -269,-233.4 -268.8,-233.5 -268.7,-233.6 -268.6,-233.8 -268.5,-233.9 -268.4,-234 -268.2,-234 
		-268.1,-234.1 -268,-234.2 -267.9,-234.3 -267.7,-234.3 -267.6,-234.4 -267.4,-234.4 -267.3,-234.5 -267.2,-234.5 -267,-234.5 
		-266.9,-234.5 -266.7,-234.5 -266.6,-234.5 -266.5,-234.5 -266.4,-234.5 -266.3,-234.5 -266.3,-234.5 -266.2,-234.5 -266.1,-234.5 
		-266.1,-234.5 -266,-234.5 -265.9,-234.5 -265.8,-234.5 -265.8,-234.5 -265.7,-234.4 -265.6,-234.4 -265.5,-234.4 -265.5,-234.4 
		-265.2,-234.3 -265.2,-232.5 -265.6,-232.7 -265.7,-232.7 -265.8,-232.7 -265.8,-232.7 -265.9,-232.8 -266,-232.8 -266,-232.8 
		-266.1,-232.8 -266.2,-232.8 -266.2,-232.8 -266.3,-232.8 -266.3,-232.8 -266.4,-232.8 -266.5,-232.8 -266.5,-232.8 -266.6,-232.8 
		-266.8,-232.8 -267,-232.8 -267.2,-232.8 -267.3,-232.7 -267.5,-232.7 -267.7,-232.6 -267.8,-232.5 -268,-232.4 -268.1,-232.3 
		-268.3,-232.2 -268.4,-232.1 -268.6,-231.9 -268.7,-231.8 -268.8,-231.6 -269,-231.4 -269.1,-231.2 -269.2,-231.1 -269.2,-231 
		-269.3,-230.9 -269.3,-230.7 -269.4,-230.6 -269.4,-230.5 -269.5,-230.4 -269.5,-230.3 -269.6,-230.1 -269.6,-230 -269.7,-229.9 
		-269.7,-229.7 -269.7,-229.6 -269.8,-229.5 -269.8,-229.3 -269.8,-229.2 -269.9,-229 -269.9,-228.9 -269.9,-228.7 -270,-228.6 
		-270,-228.4 -270,-228.3 -270,-228.1 -270,-227.9 -270,-227.8 -270.1,-227.6 -270.1,-227.4 -270.1,-227.3 -270.1,-227.1 
		-270.1,-226.9 -270.1,-226.7 -270.1,-226.5 -270.1,-221.7 -271.6,-221.7 -271.7,-234.2 -270.1,-234.2 -270.1,-231.6 -270.1,-231.6 
		-270,-231.8 	">
  </polyline>
  <path class="st0" d="M-281.9-221.4l-0.1,0l-0.1,0l-0.1,0l-0.1,0l-0.1,0l-0.1,0l-0.2,0l-0.2,0l-0.2,0l-0.2,0l-0.2,0l-0.2,0l-0.2-0.1
		l-0.2-0.1l-0.2-0.1l-0.2-0.1l-0.2-0.1l-0.2-0.1l-0.2-0.1l-0.2-0.1l-0.2-0.1l-0.1-0.1l-0.1-0.1l-0.1-0.1l-0.1-0.1l-0.1-0.2l-0.1-0.2
		l-0.1-0.2l-0.1-0.2l-0.1-0.2l-0.1-0.2l-0.1-0.2l-0.1-0.2l0-0.2l0-0.2l0-0.2l0-0.2l0-0.2l0-0.2l0-0.2l0-0.2l0-0.2l0-0.2l0-0.2l0-0.2
		l0-0.1l0-0.1l0-0.1l0.1-0.1l0.1-0.1l0.1-0.1l0.1-0.1l0.1-0.1l0.1-0.1l0.1-0.1l0.1-0.1l0.1-0.1l0.1-0.1l0.1-0.1l0.1-0.1l0.1-0.1
		l0.1-0.1l0.1-0.1l0.1-0.1l0.1-0.1l0.1-0.1l0.1-0.1l0.1-0.1l0.1-0.1l0.2-0.1l0.1,0l0.1,0l0.1,0l0.1,0l0.1,0l0.1,0l0.2,0l0.2,0l0.2,0
		l0.2,0l0.2,0l0.2,0l0.2,0l0.2-0.1l0.2,0l0.2-0.1l0.2-0.1l0.2-0.1l0.2-0.1l0.2-0.1l0.2-0.1l0.2-0.1l0.2-0.1l0.2-0.1l0.2-0.1l0.2-0.1
		l0.2-0.1l0.2-0.1l0.1-0.1l0.1-0.1l0.1-0.1l0,0l0,0v0l0,0l0,0l0,0l0,0l0,0v0v0l0-0.1l0-0.1l0-0.1l0-0.1l0-0.1l0-0.1l0-0.1l0-0.1
		l0-0.1l-0.1-0.1l-0.1-0.1l-0.1-0.1l-0.1-0.1l-0.1-0.1l-0.1-0.1l-0.1-0.1l-0.1-0.1l-0.1-0.1l-0.1-0.1l-0.1-0.1l-0.1-0.1l-0.1,0
		l-0.1,0l-0.1,0l-0.1,0l-0.1,0l-0.1,0l-0.2,0l-0.2,0l-0.2,0l-0.2,0l-0.2,0l-0.2,0l-0.2,0l-0.2,0l-0.1,0l-0.1,0l-0.1,0l-0.1,0l-0.1,0
		l-0.1,0l-0.1,0l-0.1,0l-0.1,0.1l-0.1,0.1l-0.1,0.1l-0.1,0.1l-0.1,0.1l-0.1,0.1l-0.1,0.1l-0.1,0.1l-0.1,0.1l-0.1,0.1l-0.1,0.1
		l-0.1,0.1l-0.1,0.1l-0.1,0.1l-0.1,0.1l-0.1,0.1l-0.1,0.1l-0.1,0.1l-0.1,0.1l-0.1,0.1l-0.2,0.4l-1.2-0.9l0.2-0.4l0.1-0.2l0.1-0.2
		l0.1-0.2l0.1-0.2l0.1-0.2l0.1-0.1l0.1-0.1l0.1-0.1l0.1-0.1l0.1-0.1l0.1-0.1l0.1-0.1l0.1-0.1l0.1-0.1l0.2-0.1l0.2-0.1l0.2-0.1
		l0.2-0.1l0.2-0.1l0.2-0.1l0.2-0.1l0.2-0.1l0.2,0l0.2,0l0.2,0l0.2,0l0.2,0l0.2,0l0.2,0l0.2,0l0.2,0l0.3,0l0.3,0l0.3,0l0.2,0l0.2,0
		l0.2,0l0.2,0.1l0.2,0.1l0.2,0.1l0.2,0.1l0.2,0.1l0.2,0.1l0.2,0.1l0.2,0.1l0.2,0.1l0.1,0.1l0.1,0.1l0.1,0.1l0.1,0.2l0.1,0.2l0.1,0.2
		l0.1,0.2l0.1,0.2l0.1,0.2l0.1,0.2l0.1,0.2l0,0.2l0,0.2l0,0.2l0,0.2l0,0.2l0,0.3l0,5.9l0,0.1l0,0.1l0,0.1l0,0.1l0,0.1l0,0.1l0,0.1
		l0,0.1l0,0.1l0,0.1l0,0.1l0,0.1l0,0.1l0,0l0,0l0,0l0,0.1l0,0l0.1,0l0.1,0l0.1,0l0.1,0l0.1,0l0.1,0l0.5,0l0,1.3l-0.2,0.1l-0.1,0
		l-0.1,0l0,0l0,0l0,0l0,0l0,0l0,0l0,0l0,0l0,0l0,0l0,0l0,0l0,0l-0.1,0l-0.1,0l-0.1,0l-0.1,0l-0.1,0l-0.1,0l-0.1,0l-0.1,0l-0.1,0
		l-0.1,0l-0.1-0.1l-0.1-0.1l-0.1-0.1l-0.1-0.1l-0.1-0.1l-0.1-0.1l-0.1-0.1l-0.1-0.1l-0.1-0.1l-0.1-0.1l0-0.1l0-0.1l0-0.1l0-0.1
		l0-0.1l0-0.1l0-0.1l0-0.1l0,0l0,0l-0.1,0.1l-0.1,0.1l-0.1,0.1l-0.1,0.1l-0.1,0.1l-0.1,0.1l-0.1,0.1l-0.1,0.1l-0.1,0.1l-0.1,0.1
		l-0.1,0.1l-0.1,0.1l-0.1,0.1l-0.1,0.1l-0.1,0.1l-0.1,0.1l-0.1,0.1l-0.1,0l-0.1,0l-0.1,0l-0.1,0l-0.1,0L-281.9-221.4z M-279.1-229
		l-0.2,0.1l-0.2,0.1l-0.2,0.1l-0.2,0.1l-0.2,0.1l-0.2,0.1l-0.2,0.1l-0.2,0.1l-0.2,0.1l-0.2,0.1l-0.2,0.1l-0.2,0.1l-0.2,0.1l-0.2,0
		l-0.2,0l-0.2,0l-0.2,0l-0.2,0l-0.2,0l-0.2,0l-0.1,0l-0.1,0l-0.1,0l-0.1,0l-0.1,0l-0.1,0l-0.1,0l-0.1,0l0,0l-0.2,0.1l-0.2,0.1
		l-0.1,0.1l-0.1,0.1l-0.1,0.1l-0.1,0.1l-0.1,0.1l-0.1,0.1l0,0.1l0,0.1l0,0.1l0,0.1l0,0.1l0,0.1l0,0.1l0,0.1l0,0.1l0,0.1l0,0.1l0,0.1
		l0,0.1l0,0.1l0,0.1l0,0.1l0,0.1l0,0.1l0,0.1l0,0.1l0,0.1l0,0.1l0,0.1l0,0.1l0,0.1l0.1,0.1l0.1,0.1l0.1,0.1l0.1,0.1l0.1,0.1l0.1,0.1
		l0.1,0.1l0.1,0.1l0.1,0.1l0.1,0.1l0.1,0.1l0.1,0.1l0.1,0.1l0.1,0l0.1,0l0.1,0l0.1,0l0.1,0l0.1,0l0.1,0l0.1,0l0.2,0l0.2,0l0.2,0
		l0.2,0l0.2,0l0.2,0l0.2,0l0.2,0l0.2,0l0.2-0.1l0.2-0.1l0.2-0.1l0.2-0.1l0.2-0.1l0.2-0.1l0.2-0.1l0.1-0.1l0.1-0.1l0.1-0.1l0.1-0.1
		l0.1-0.1l0.1-0.1l0.1-0.1l0.1-0.1l0.1-0.1l0.1-0.1l0.1-0.2l0.1-0.2l0-0.2l0-0.2l0-0.2l0-0.2l0-0.2l0-0.2l0-2.9l0,0">
  </path>
  <polyline class="st0" points="-305,-234 -304.9,-234 -304.7,-234.1 -304.6,-234.2 -304.5,-234.2 -304.3,-234.3 -304.2,-234.3 
		-304,-234.4 -303.9,-234.4 -303.7,-234.4 -303.6,-234.4 -303.4,-234.5 -303.3,-234.5 -303.1,-234.5 -302.9,-234.5 -302.7,-234.5 
		-302.5,-234.4 -302.4,-234.4 -302.2,-234.4 -302,-234.4 -301.9,-234.3 -301.7,-234.3 -301.5,-234.2 -301.4,-234.2 -301.2,-234.1 
		-301.1,-234 -300.9,-233.9 -300.8,-233.9 -300.7,-233.8 -300.5,-233.7 -300.4,-233.6 -300.3,-233.4 -300.2,-233.3 -300.1,-233.2 
		-300,-233.1 -299.9,-232.9 -299.8,-232.8 -299.7,-232.6 -299.6,-232.5 -299.6,-232.3 -299.5,-232.2 -299.4,-232 -299.4,-231.9 
		-299.4,-231.9 -299.3,-232.1 -299.2,-232.2 -299.1,-232.4 -299,-232.5 -298.8,-232.7 -298.7,-232.8 -298.6,-233 -298.5,-233.1 
		-298.4,-233.2 -298.2,-233.4 -298.1,-233.5 -298,-233.6 -297.8,-233.7 -297.7,-233.8 -297.5,-233.9 -297.4,-234 -297.3,-234 
		-297.1,-234.1 -297,-234.2 -296.8,-234.2 -296.6,-234.3 -296.5,-234.3 -296.3,-234.4 -296.2,-234.4 -296,-234.4 -295.8,-234.5 
		-295.7,-234.5 -295.5,-234.5 -295.3,-234.5 -295.1,-234.5 -294.8,-234.5 -294.6,-234.4 -294.4,-234.4 -294.2,-234.4 -294,-234.3 
		-293.8,-234.3 -293.6,-234.2 -293.5,-234.1 -293.3,-234 -293.1,-233.9 -293,-233.8 -292.8,-233.6 -292.7,-233.5 -292.5,-233.4 
		-292.4,-233.2 -292.3,-233.1 -292.3,-233 -292.2,-233 -292.2,-232.9 -292.1,-232.8 -292.1,-232.7 -292,-232.6 -292,-232.5 
		-291.9,-232.4 -291.9,-232.3 -291.9,-232.2 -291.8,-232.1 -291.8,-232 -291.7,-231.9 -291.7,-231.8 -291.7,-231.6 -291.7,-231.5 
		-291.6,-231.4 -291.6,-231.3 -291.6,-231.2 -291.6,-231 -291.5,-230.9 -291.5,-230.8 -291.5,-230.7 -291.5,-230.5 -291.5,-230.4 
		-291.5,-230.2 -291.5,-230.1 -291.5,-230 -291.4,-229.8 -291.4,-229.7 -291.4,-229.5 -291.4,-221.7 -293,-221.7 -293,-229.3 
		-293,-229.5 -293,-229.8 -293,-230 -293,-230.2 -293.1,-230.4 -293.1,-230.6 -293.1,-230.8 -293.2,-231 -293.2,-231.2 
		-293.2,-231.4 -293.3,-231.5 -293.3,-231.7 -293.4,-231.8 -293.5,-231.9 -293.5,-232.1 -293.6,-232.2 -293.7,-232.3 -293.8,-232.4 
		-293.8,-232.5 -293.9,-232.6 -294,-232.6 -294.1,-232.7 -294.2,-232.8 -294.3,-232.8 -294.4,-232.9 -294.6,-232.9 -294.7,-233 
		-294.8,-233 -295,-233 -295.1,-233 -295.3,-233 -295.4,-233 -295.6,-233 -295.8,-233 -296,-233 -296.2,-233 -296.3,-232.9 
		-296.5,-232.9 -296.7,-232.8 -296.8,-232.7 -297,-232.6 -297.1,-232.5 -297.3,-232.4 -297.5,-232.3 -297.6,-232.2 -297.7,-232.1 
		-297.9,-231.9 -298,-231.7 -298.2,-231.6 -298.3,-231.4 -298.4,-231.2 -298.5,-231.1 -298.6,-230.9 -298.7,-230.7 -298.8,-230.5 
		-298.8,-230.3 -298.9,-230.1 -299,-229.9 -299,-229.7 -299.1,-229.4 -299.1,-229.2 -299.1,-229 -299.1,-228.8 -299.1,-228.5 
		-299.1,-221.7 -300.7,-221.7 -300.7,-229.2 -300.7,-229.5 -300.7,-229.7 -300.7,-230 -300.7,-230.2 -300.7,-230.4 -300.8,-230.6 
		-300.8,-230.8 -300.8,-231 -300.9,-231.2 -300.9,-231.3 -301,-231.5 -301,-231.7 -301.1,-231.8 -301.1,-231.9 -301.2,-232.1 
		-301.3,-232.2 -301.4,-232.3 -301.4,-232.4 -301.5,-232.5 -301.6,-232.5 -301.7,-232.6 -301.8,-232.7 -301.9,-232.7 -302,-232.8 
		-302.1,-232.9 -302.3,-232.9 -302.4,-232.9 -302.5,-233 -302.7,-233 -302.8,-233 -302.9,-233 -303.1,-233 -303.3,-233 -303.5,-233 
		-303.7,-233 -303.8,-232.9 -304,-232.9 -304.2,-232.8 -304.4,-232.8 -304.5,-232.7 -304.7,-232.6 -304.8,-232.5 -305,-232.4 
		-305.1,-232.3 -305.3,-232.2 -305.4,-232.1 -305.6,-231.9 -305.7,-231.8 -305.8,-231.6 -305.9,-231.4 -306.1,-231.3 -306.2,-231.1 
		-306.3,-230.9 -306.3,-230.7 -306.4,-230.5 -306.5,-230.3 -306.6,-230.1 -306.6,-229.9 -306.7,-229.7 -306.7,-229.5 -306.7,-229.2 
		-306.7,-229 -306.8,-228.7 -306.8,-228.5 -306.7,-221.6 -308.3,-221.6 -308.3,-234.1 -306.8,-234.1 -306.8,-232.3 -306.7,-232.3 
		-306.6,-232.5 -306.5,-232.6 -306.4,-232.8 -306.3,-232.9 -306.2,-233 -306,-233.2 -305.9,-233.3 -305.8,-233.4 -305.7,-233.5 
		-305.5,-233.6 -305.4,-233.7 -305.3,-233.8 -305.2,-233.9 	">
  </polyline>
  <path class="st0" d="M-274.1-244.9c0.7-3.8,1.6-7.4,2.5-10.6c-1.3-2-2.6-3.7-4.3-5.5c-5.3-4.8-14.2-15.9-21.3-19.3
		c-0.3-0.2,0-0.6,0.2-0.5c13.4-0.7,22,8.5,24.6,20.7l1.3,3c6-19,16.3-27.4,35.9-29.7c2.2-0.6,3.2,0.6,0.8,1.6
		c-14.3,6.8-36.1,29.1-38.5,40.5C-273.3-243.8-274.3-243.8-274.1-244.9">
  </path>
  <path class="st0" d="M-290.6-244.2l11,0l0-18.6c-0.9-0.9-1.9-2-2.9-3.1c-2.5-2.7-5.3-5.6-8.1-8.1L-290.6-244.2z">
  </path>
  <path class="st0" d="M-259.1-244.2l11,0l-0.1-29.9c-3.8,3.2-7.6,6.9-11,10.5L-259.1-244.2z">
  </path>
  <path class="st0" d="M-294.4-212.4l0,0.7c-0.1,0-0.2,0-0.3,0.1c-0.2,0-0.4,0.1-0.5,0.2c-0.1,0.1-0.2,0.3-0.2,0.4
		c0,0.2,0.1,0.4,0.2,0.5c0.1,0.1,0.3,0.2,0.5,0.2c0.1,0,0.2,0,0.2,0l0,0.7c-0.1,0-0.3,0.1-0.5,0.1c-0.4,0-0.8-0.1-1.1-0.3
		c-0.3-0.2-0.4-0.6-0.4-1c0-0.5,0.1-0.8,0.4-1C-295.6-212.2-295.1-212.3-294.4-212.4L-294.4-212.4z M-294.4-214.3l0,0.8
		c-0.3,0-0.5,0.1-0.6,0.2c-0.2,0.1-0.2,0.3-0.2,0.5v0l-0.9,0v-0.1c0-0.4,0.2-0.8,0.5-1C-295.3-214.2-294.9-214.3-294.4-214.3
		 M-299.9-213.6c0.2-0.2,0.4-0.4,0.6-0.5c0.2-0.1,0.5-0.2,0.7-0.2c0.5,0,0.9,0.1,1.1,0.4c0.2,0.3,0.4,0.7,0.4,1.3l0,2.9l-0.9,0
		l0-2.8c0-0.3-0.1-0.6-0.2-0.7c-0.1-0.2-0.3-0.2-0.6-0.2c-0.3,0-0.6,0.1-0.7,0.3c-0.2,0.2-0.3,0.5-0.3,0.8l0,2.7l-0.9,0l0-3
		c0-0.2-0.1-0.4-0.2-0.6c-0.1-0.1-0.3-0.2-0.5-0.2c-0.3,0-0.5,0.1-0.7,0.3c-0.2,0.2-0.3,0.5-0.3,0.8l0,2.6l-0.9,0l0-4.4l0.9,0l0,0.6
		c0.2-0.2,0.3-0.4,0.6-0.5c0.2-0.1,0.5-0.2,0.7-0.2c0.3,0,0.5,0.1,0.7,0.2C-300.2-214-300.1-213.9-299.9-213.6 M-291.3-215.8l0.9,0
		l0,3.4l1.7-1.8l1.1,0l-1.6,1.6l1.6,2.8l-1.1,0l-1.2-2.1l-0.6,0.6l0,1.5h-0.9L-291.3-215.8z M-294.3-209.7l0-0.7
		c0.2,0,0.5-0.1,0.6-0.3c0.2-0.2,0.3-0.4,0.3-0.8l0-0.6c-0.2,0.1-0.5,0.2-0.9,0.2l0,0l0-0.7l0.1,0c0.6-0.1,0.9-0.2,0.9-0.5
		c0-0.2-0.1-0.4-0.2-0.5c-0.1-0.1-0.4-0.2-0.7-0.2c0,0,0,0-0.1,0l0-0.8h0.1c0.6,0,1,0.1,1.3,0.3c0.3,0.2,0.5,0.5,0.5,1l0,2.2
		c0,0.2,0,0.3,0.1,0.3c0,0.1,0.1,0.1,0.2,0.1c0,0,0,0,0.1,0c0,0,0.1,0,0.1,0l0,0.7c-0.1,0-0.2,0-0.3,0.1c-0.1,0-0.2,0-0.2,0
		c-0.3,0-0.5-0.1-0.6-0.2c-0.1-0.1-0.2-0.3-0.2-0.5c-0.2,0.2-0.4,0.4-0.7,0.5C-294.1-209.7-294.2-209.7-294.3-209.7 M-285.1-214.4
		l0,0.8c-0.3,0-0.6,0.1-0.7,0.3c-0.2,0.2-0.3,0.5-0.3,0.8l1.1,0l0,0.7l-1.1,0c0,0.4,0.1,0.7,0.3,1c0.2,0.2,0.4,0.3,0.8,0.3l0,0.8
		c-0.6,0-1.1-0.2-1.5-0.6c-0.4-0.4-0.5-1-0.6-1.7c0-0.7,0.2-1.3,0.6-1.7C-286.3-214.1-285.8-214.4-285.1-214.4 M-285.1-211.7l0-0.7
		l1.1,0c0-0.4-0.1-0.6-0.3-0.8c-0.2-0.2-0.4-0.3-0.8-0.3h0l0-0.8h0c0.6,0,1.1,0.2,1.5,0.6c0.4,0.4,0.5,1,0.5,1.7c0,0.1,0,0.2,0,0.3
		c0,0,0,0,0,0L-285.1-211.7z M-285.1-209.6l0-0.8h0.1c0.3,0,0.5-0.1,0.6-0.2c0.2-0.1,0.3-0.3,0.3-0.5l0.9,0
		c-0.1,0.5-0.3,0.8-0.7,1.1C-284.2-209.8-284.6-209.6-285.1-209.6L-285.1-209.6z M-278.5-212.5l0,0.7c-0.1,0-0.2,0-0.3,0.1
		c-0.2,0-0.4,0.1-0.5,0.2c-0.1,0.1-0.2,0.3-0.2,0.4c0,0.2,0.1,0.4,0.2,0.5c0.1,0.1,0.3,0.2,0.5,0.2c0.1,0,0.2,0,0.2,0l0,0.7
		c-0.1,0-0.3,0.1-0.5,0.1c-0.4,0-0.8-0.1-1.1-0.3c-0.3-0.2-0.4-0.6-0.4-1c0-0.5,0.1-0.8,0.4-1C-279.7-212.2-279.2-212.4-278.5-212.5
		L-278.5-212.5z M-278.5-214.4l0,0.8c-0.3,0-0.5,0.1-0.6,0.2c-0.2,0.1-0.2,0.3-0.2,0.5v0l-0.9,0v-0.1c0-0.4,0.2-0.8,0.5-1
		C-279.4-214.2-279-214.4-278.5-214.4 M-278.5-209.7l0-0.7c0.2,0,0.5-0.1,0.6-0.3c0.2-0.2,0.3-0.4,0.3-0.8l0-0.6
		c-0.2,0.1-0.5,0.2-0.9,0.2l0,0l0-0.7l0.1,0c0.6-0.1,0.9-0.2,0.9-0.5c0-0.2-0.1-0.4-0.2-0.5c-0.1-0.1-0.4-0.2-0.7-0.2c0,0,0,0-0.1,0
		l0-0.8l0.1,0c0.6,0,1,0.1,1.3,0.3c0.3,0.2,0.4,0.5,0.5,1l0,2.2c0,0.2,0,0.3,0.1,0.3c0,0.1,0.1,0.1,0.2,0.1c0,0,0,0,0.1,0
		c0,0,0.1,0,0.1,0l0,0.7c-0.1,0-0.2,0-0.2,0.1c-0.1,0-0.2,0-0.2,0c-0.3,0-0.5-0.1-0.6-0.2c-0.1-0.1-0.2-0.3-0.2-0.5
		c-0.2,0.2-0.4,0.4-0.7,0.5C-278.2-209.8-278.4-209.7-278.5-209.7 M-271.7-214.4l0,0.8h0c-0.4,0-0.7,0.1-0.9,0.4
		c-0.2,0.3-0.3,0.7-0.3,1.2c0,0.5,0.1,0.8,0.3,1.1c0.2,0.3,0.5,0.4,0.9,0.4h0l0,0.8c-0.1,0-0.1,0-0.2,0c-0.6,0-1-0.2-1.4-0.6
		c-0.4-0.4-0.5-1-0.5-1.7c0-0.7,0.2-1.3,0.5-1.7s0.8-0.7,1.4-0.7C-271.9-214.4-271.8-214.4-271.7-214.4 M-261.7-215.9l0,0.8l-0.2,0
		c-0.1,0-0.1,0-0.1,0c-0.2,0-0.3,0-0.4,0.1c-0.1,0.1-0.1,0.2-0.1,0.4l0,0.3l0.8,0l0,0.7l-0.8,0l0,3.7l-0.9,0l0-3.7l-0.7,0l0-0.7
		l0.7,0l0-0.5c0-0.4,0.1-0.7,0.3-0.9c0.2-0.2,0.5-0.3,0.9-0.3C-262.2-216-262-215.9-261.7-215.9
		C-261.7-215.9-261.7-215.9-261.7-215.9 M-264.3-215.9l0,0.8l-0.2,0c0,0-0.1,0-0.1,0c-0.2,0-0.3,0-0.3,0.1c-0.1,0.1-0.1,0.2-0.1,0.4
		l0,0.3l0.8,0l0,0.7l-0.8,0l0,3.7l-0.9,0l0-3.7l-0.7,0l0-0.7l0.7,0l0-0.5c0-0.4,0.1-0.7,0.3-0.9c0.2-0.2,0.5-0.3,0.9-0.3
		C-264.8-216-264.6-215.9-264.3-215.9C-264.4-215.9-264.4-215.9-264.3-215.9 M-268.5-215.9l0.9,0l0,1l-0.9,0L-268.5-215.9z
		 M-268.5-214.3l0.9,0l0,4.4l-0.9,0L-268.5-214.3z M-271.7-209.7l0-0.8c0.4,0,0.7-0.1,0.9-0.4c0.2-0.3,0.3-0.7,0.3-1.2
		c0-0.5-0.1-0.9-0.3-1.1c-0.2-0.2-0.5-0.4-0.9-0.4l0-0.8c0.2,0,0.4,0.1,0.6,0.2c0.2,0.1,0.4,0.3,0.6,0.5l0-2.2l0.9,0l0,6.1l-0.9,0
		l0-0.6c-0.2,0.2-0.4,0.4-0.6,0.5C-271.3-209.7-271.5-209.7-271.7-209.7 M-259.3-214.4l0,0.8c-0.3,0-0.6,0.1-0.7,0.3
		c-0.2,0.2-0.3,0.5-0.3,0.8l1.1,0l0,0.7l-1.1,0c0,0.4,0.1,0.7,0.3,1c0.2,0.2,0.4,0.3,0.8,0.3l0,0.8c-0.6,0-1.1-0.2-1.5-0.6
		c-0.4-0.4-0.6-1-0.6-1.7c0-0.7,0.2-1.3,0.5-1.7C-260.4-214.2-259.9-214.4-259.3-214.4 M-254-214.4l0,1h-0.2c-0.4,0-0.7,0.1-0.9,0.3
		c-0.2,0.2-0.3,0.5-0.3,0.9l0,2.4l-0.9,0l0-4.4l0.9,0l0,0.8c0.1-0.3,0.3-0.5,0.5-0.7c0.2-0.2,0.4-0.2,0.7-0.2h0
		C-254.1-214.4-254-214.4-254-214.4 M-259.3-211.8l0-0.7l1.1,0c0-0.4-0.1-0.6-0.3-0.8c-0.2-0.2-0.4-0.3-0.8-0.3h0l0-0.8h0
		c0.6,0,1.1,0.2,1.5,0.6c0.4,0.4,0.5,1,0.5,1.7c0,0.1,0,0.2,0,0.3c0,0,0,0,0,0L-259.3-211.8z M-259.2-209.7l0-0.8l0.1,0
		c0.3,0,0.5-0.1,0.6-0.2c0.2-0.1,0.3-0.3,0.3-0.5l0.9,0c-0.1,0.5-0.3,0.8-0.7,1.1C-258.3-209.8-258.7-209.7-259.2-209.7
		L-259.2-209.7z M-251.5-214.4l0,0.8c-0.3,0-0.6,0.1-0.7,0.3c-0.2,0.2-0.3,0.5-0.3,0.8l1.1,0l0,0.7l-1.1,0c0,0.4,0.1,0.7,0.3,1
		c0.2,0.2,0.4,0.3,0.8,0.3l0,0.8c-0.6,0-1.1-0.2-1.5-0.6c-0.4-0.4-0.5-1-0.5-1.7c0-0.7,0.2-1.3,0.5-1.7
		C-252.7-214.2-252.2-214.4-251.5-214.4 M-239.9-212.8l-0.9,0c0-0.3-0.1-0.5-0.3-0.6c-0.2-0.2-0.4-0.2-0.7-0.2
		c-0.4,0-0.6,0.1-0.8,0.4c-0.2,0.3-0.3,0.6-0.3,1.2c0,0.5,0.1,0.9,0.3,1.1c0.2,0.3,0.5,0.4,0.8,0.4c0.3,0,0.5-0.1,0.7-0.2
		c0.2-0.2,0.3-0.4,0.3-0.7l0.9,0c0,0.6-0.2,1-0.6,1.3c-0.4,0.3-0.8,0.5-1.4,0.5c-0.6,0-1.1-0.2-1.4-0.6c-0.4-0.4-0.5-1-0.5-1.7
		c0-0.7,0.2-1.3,0.5-1.7c0.4-0.4,0.9-0.6,1.5-0.6c0.6,0,1,0.1,1.4,0.4C-240.1-213.7-239.9-213.3-239.9-212.8 M-244.8-212.7l0,2.8
		l-0.9,0l0-2.9c0-0.3-0.1-0.5-0.2-0.6c-0.1-0.1-0.3-0.2-0.6-0.2c-0.4,0-0.6,0.1-0.8,0.3c-0.2,0.2-0.3,0.5-0.3,0.9l0,2.6l-0.9,0
		l0-4.4l0.9,0l0,0.6c0.2-0.2,0.3-0.4,0.6-0.5c0.2-0.1,0.5-0.2,0.8-0.2c0.6,0,1,0.1,1.2,0.4C-244.9-213.8-244.8-213.3-244.8-212.7
		 M-251.5-211.8l0-0.7l1.1,0c0-0.4-0.1-0.6-0.3-0.8c-0.2-0.2-0.4-0.3-0.8-0.3h0l0-0.8h0c0.6,0,1.1,0.2,1.5,0.6
		c0.4,0.4,0.5,1,0.5,1.7c0,0.1,0,0.2,0,0.3c0,0,0,0,0,0L-251.5-211.8z M-251.5-209.7l0-0.8h0.1c0.3,0,0.5-0.1,0.6-0.2
		c0.2-0.1,0.3-0.3,0.3-0.5l0.9,0c-0.1,0.5-0.3,0.8-0.7,1.1C-250.6-209.8-251-209.7-251.5-209.7L-251.5-209.7z M-237.2-214.5l0,0.8
		c-0.3,0-0.6,0.1-0.7,0.3c-0.2,0.2-0.3,0.5-0.3,0.8l1.1,0l0,0.7l-1.1,0c0,0.4,0.1,0.7,0.3,1c0.2,0.2,0.4,0.3,0.8,0.3l0,0.8
		c-0.6,0-1.1-0.2-1.5-0.6c-0.4-0.4-0.5-1-0.6-1.7c0-0.7,0.2-1.3,0.6-1.7C-238.3-214.2-237.8-214.4-237.2-214.5 M-237.2-211.8l0-0.7
		l1.1,0c0-0.4-0.1-0.6-0.3-0.8c-0.2-0.2-0.4-0.3-0.8-0.3h0l0-0.8h0c0.6,0,1.1,0.2,1.5,0.6c0.4,0.4,0.5,1,0.5,1.7c0,0.1,0,0.2,0,0.3
		c0,0,0,0,0,0L-237.2-211.8z M-237.2-209.7l0-0.8h0.1c0.3,0,0.5-0.1,0.6-0.2c0.2-0.1,0.3-0.3,0.3-0.5l0.9,0
		c-0.1,0.5-0.3,0.8-0.7,1.1C-236.3-209.9-236.7-209.7-237.2-209.7L-237.2-209.7z">
  </path>
 </g>
 <g>
  <path class="st1" d="M83.9,60.9l0.2,0l0.2,0l0.2,0l0.2,0l0.2,0l0.2,0l0.2,0l0.2,0l0.2,0l0.2,0l0.2,0l0.2,0l0.2,0.1l0.1,0.1l0.1,0.1
		l0.1,0.1l0.1,0.1l0.1,0.1l0.1,0.1l0.1,0.1l0.1,0.1l0.1,0.1l0.1,0.1l0.1,0.1l0.1,0.1l0.1,0.1l0.1,0.1l0.1,0.1l0.1,0.1l0.1,0.1
		l0.1,0.1l0.1,0.1l0.1,0.1l0.1,0.1l0.1,0.1l0.1,0.1l0.1,0.1l0.1,0.1l0.1,0.1l0.1,0.1l0.1,0.2l0.1,0.2l0.1,0.2l0.1,0.2l0.1,0.2
		l0.1,0.2l0.1,0.2l0.1,0.2l0.1,0.2l0,0.2l0,0.2l0,0.2l0,0.2l0,0.2l0,0.2l0,0.2l0,0.2l0,0.2l0,0.2l0,0.2l0,0.2l0,0.2l0,0.2l0,0.2v0.2
		l0,0.2l0,0.2l0,0.2l0,0.2l0,0.2l0,0.2l0,0.2l0,0.2l0,0.2l0,0.2l0,0.2l0,0.2l0,0.2l0,0.2l-0.1,0.2l-0.1,0.2l-0.1,0.2l-0.1,0.2
		l-0.1,0.2l-0.1,0.2l-0.1,0.2l-0.1,0.2l-0.1,0.2L89.3,73l-0.1,0.1l-0.1,0.1L89,73.5l-0.1,0.1l-0.1,0.1l-0.1,0.1L88.6,74l-0.1,0.1
		l-0.1,0.1l-0.1,0.1l-0.1,0.1L88,74.6l-0.1,0.1l-0.1,0.1l-0.1,0.1L87.5,75l-0.1,0.1l-0.1,0.1l-0.1,0.1L87,75.4l-0.1,0.1l-0.1,0.1
		l-0.1,0.1l-0.1,0.1l-0.1,0.1l-0.1,0.1l-0.2,0.1l-0.2,0l-0.2,0l-0.2,0l-0.2,0l-0.2,0l-0.2,0l-0.2,0l-0.2,0l-0.2,0l-0.2,0l-0.2,0
		l-0.2,0l-0.2,0l-0.2,0l-0.2,0l-0.2,0l-0.2,0l-0.2,0l-0.2,0l-0.2,0l-0.2,0l-0.2,0l-0.2,0l-0.2,0l-0.2-0.1l-0.1-0.1l-0.1-0.1
		l-0.1-0.1l-0.1-0.1l-0.1-0.1L81,75.4l-0.1-0.1l-0.1-0.1l-0.1-0.1l-0.1-0.1L80.3,75l-0.1-0.1l-0.1-0.1l-0.1-0.1l-0.1-0.1l-0.1-0.1
		l-0.1-0.1l-0.1-0.1L79.4,74l-0.1-0.1l-0.1-0.1l-0.1-0.1L79,73.5l-0.1-0.1l-0.1-0.1l-0.1-0.1l-0.1-0.2l-0.1-0.2l-0.1-0.2l-0.1-0.2
		l-0.1-0.2l-0.1-0.2l-0.1-0.2l-0.1-0.2l-0.1-0.2L78,71.4l0-0.2l0-0.2l0-0.2l0-0.2l0-0.2l0-0.2l0-0.2l0-0.2l0-0.2l0-0.2l0-0.2l0-0.2
		l0-0.2l0-0.2l0-0.2l0-0.2l0-0.2l0-0.2l0-0.2l0-0.2l0-0.2l0-0.2l0-0.2l0-0.2l0-0.2l0-0.2l0-0.2l0-0.2l0-0.2l0-0.2l0.1-0.2l0.1-0.2
		l0.1-0.2l0.1-0.2l0.1-0.2l0.1-0.2l0.1-0.2l0.1-0.2l0.1-0.2l0.1-0.2l0.1-0.1l0.1-0.1l0.1-0.1l0.1-0.1l0.1-0.1l0.1-0.1l0.1-0.1
		l0.1-0.1l0.1-0.1l0.1-0.1l0.1-0.1l0.1-0.1l0.1-0.1l0.1-0.1l0.1-0.1l0.1-0.1l0.1-0.1l0.1-0.1l0.1-0.1l0.1-0.1l0.1-0.1l0.1-0.1
		l0.1-0.1l0.1-0.1l0.1-0.1l0.2-0.1l0.2-0.1l0.2,0l0.2,0l0.2,0l0.2,0l0.2,0l0.2,0l0.2,0l0.2,0l0.2,0l0.2,0l0.2,0L83.9,60.9z
		 M83.9,62.6l-0.2,0l-0.2,0l-0.2,0l-0.2,0l-0.2,0.1l-0.2,0.1l-0.2,0.1L82.2,63L82,63.1l-0.2,0.1l-0.2,0.1l-0.2,0.1l-0.2,0.2
		l-0.2,0.2L80.9,64l-0.2,0.2l-0.1,0.1l-0.1,0.1l-0.1,0.1l-0.1,0.1l-0.1,0.1l-0.1,0.1l-0.1,0.1l-0.1,0.1l-0.1,0.1l-0.1,0.1L80,65.4
		l0,0.1l0,0.1l0,0.1l0,0.1l0,0.1l0,0.1l0,0.1l0,0.1l0,0.1l0,0.1l0,0.1l0,0.1l0,0.2l0,0.2l0,0.2l0,0.2l0,0.2l0,0.2l0,0.2l0,0.2l0,0.2
		l0,0.2l0,0.2l0,0.2l0,0.2l0,0.2l0,0.2l0,0.2l0,0.2l0,0.2l0,0.1l0,0.1l0,0.1l0,0.1l0,0.1l0,0.1l0,0.1l0,0.1l0,0.1l0,0.1l0,0.1l0,0.1
		l0.1,0.1l0.1,0.1l0.1,0.1l0.1,0.1l0.1,0.1l0.1,0.1l0.1,0.1l0.1,0.1l0.1,0.1l0.1,0.1l0.1,0.1l0.2,0.2l0.2,0.2l0.2,0.2l0.2,0.2
		l0.2,0.1l0.2,0.1L82,74l0.2,0.1l0.2,0.1l0.2,0.1l0.2,0.1l0.2,0.1l0.2,0l0.2,0l0.2,0l0.2,0l0.2,0l0.2,0l0.2,0l0.2,0l0.2-0.1l0.2-0.1
		l0.2-0.1l0.2-0.1l0.2-0.1l0.2-0.1l0.2-0.1l0.2-0.1l0.2-0.2l0.2-0.2L87,73l0.2-0.2l0.1-0.1l0.1-0.1l0.1-0.1l0.1-0.1l0.1-0.1l0.1-0.1
		l0.1-0.1l0.1-0.1l0.1-0.1l0.1-0.1l0.1-0.1l0-0.1l0-0.1l0-0.1l0-0.1l0-0.1l0-0.1l0-0.1l0-0.1l0-0.1l0-0.1l0-0.1l0-0.1l0-0.2l0-0.2
		l0-0.2l0-0.2l0-0.2l0-0.2l0-0.2l0-0.2l0-0.2l0-0.2l0-0.2l0-0.2l0-0.2l0-0.2l0-0.2l0-0.2l0-0.2l0-0.2l0-0.1l0-0.1l0-0.1l0-0.1l0-0.1
		l0-0.1l0-0.1l0-0.1l0-0.1l0-0.1l0-0.1l-0.1-0.1l-0.1-0.1l-0.1-0.1l-0.1-0.1l-0.1-0.1l-0.1-0.1l-0.1-0.1l-0.1-0.1l-0.1-0.1l-0.1-0.1
		l-0.1-0.1l-0.1-0.1L87,64l-0.2-0.2l-0.2-0.2l-0.2-0.2l-0.2-0.1l-0.2-0.1l-0.2-0.1L85.7,63l-0.2-0.1l-0.2-0.1l-0.2-0.1l-0.2-0.1
		l-0.2,0l-0.2,0l-0.2,0">
  </path>
  <polyline class="st1" points="73.6,71.9 73.4,72.4 73.2,72.6 73.1,72.9 73,73.1 72.9,73.3 72.8,73.5 72.6,73.7 72.5,73.9 
		72.4,74.1 72.2,74.2 72.1,74.4 71.9,74.6 71.7,74.7 71.6,74.9 71.4,75 71.2,75.2 71,75.3 70.8,75.4 70.6,75.5 70.4,75.6 70.2,75.7 
		70,75.8 69.8,75.9 69.6,75.9 69.4,76 69.2,76 69,76.1 68.7,76.1 68.5,76.2 68.3,76.2 68,76.2 67.8,76.2 67.6,76.2 67.4,76.2 
		67.2,76.2 67.1,76.2 66.9,76.1 66.7,76.1 66.6,76.1 66.4,76.1 66.3,76 66.1,76 65.9,75.9 65.8,75.9 65.6,75.8 65.5,75.8 65.3,75.7 
		65.2,75.7 65.1,75.6 64.9,75.5 64.8,75.5 64.6,75.4 64.5,75.3 64.4,75.2 64.2,75.1 64.1,75 64,74.9 63.9,74.8 63.7,74.7 63.6,74.6 
		63.5,74.5 63.4,74.3 63.3,74.2 63.2,74.1 63.1,73.9 63,73.8 62.9,73.7 62.8,73.5 62.7,73.4 62.6,73.2 62.5,73.1 62.4,72.9 
		62.3,72.8 62.2,72.6 62.2,72.5 62.1,72.3 62,72.1 62,72 61.9,71.8 61.9,71.6 61.8,71.5 61.8,71.3 61.7,71.1 61.7,70.9 61.6,70.7 
		61.6,70.6 61.6,70.4 61.5,70.2 61.5,70 61.5,69.8 61.5,69.6 61.4,69.4 61.4,69.2 61.4,69 61.4,68.8 61.4,68.6 61.4,68.4 61.4,68.1 
		61.4,67.9 61.4,67.7 61.5,67.5 61.5,67.3 61.5,67.1 61.5,66.9 61.5,66.8 61.6,66.6 61.6,66.4 61.7,66.2 61.7,66 61.7,65.8 
		61.8,65.7 61.8,65.5 61.9,65.3 62,65.1 62,65 62.1,64.8 62.2,64.7 62.2,64.5 62.3,64.3 62.4,64.2 62.5,64 62.6,63.9 62.6,63.7 
		62.7,63.6 62.8,63.5 62.9,63.3 63,63.2 63.1,63 63.3,62.9 63.4,62.8 63.5,62.7 63.6,62.5 63.7,62.4 63.8,62.3 64,62.2 64.1,62.1 
		64.2,62 64.3,61.9 64.5,61.8 64.6,61.7 64.7,61.7 64.9,61.6 65,61.5 65.2,61.4 65.3,61.4 65.5,61.3 65.6,61.3 65.8,61.2 65.9,61.2 
		66.1,61.1 66.2,61.1 66.4,61 66.6,61 66.7,61 66.9,61 67.1,60.9 67.2,60.9 67.4,60.9 67.6,60.9 67.7,60.9 68,60.9 68.2,60.9 
		68.5,60.9 68.7,61 68.9,61 69.2,61 69.4,61.1 69.6,61.2 69.8,61.2 70,61.3 70.2,61.4 70.4,61.5 70.6,61.6 70.8,61.7 71,61.8 
		71.2,61.9 71.4,62.1 71.5,62.2 71.7,62.4 71.9,62.5 72,62.7 72.2,62.8 72.3,63 72.5,63.2 72.6,63.4 72.8,63.6 72.9,63.8 73,64 
		73.1,64.2 73.2,64.5 73.3,64.7 73.5,65.2 71.9,65.9 71.7,65.5 71.6,65.3 71.5,65.1 71.4,64.9 71.3,64.8 71.2,64.6 71.1,64.4 
		71,64.3 70.9,64.2 70.8,64 70.7,63.9 70.6,63.8 70.4,63.6 70.3,63.5 70.2,63.4 70.1,63.3 70,63.2 69.8,63.2 69.7,63.1 69.6,63 
		69.4,62.9 69.3,62.9 69.1,62.8 69,62.8 68.9,62.7 68.7,62.7 68.6,62.7 68.4,62.6 68.2,62.6 68.1,62.6 67.9,62.6 67.7,62.6 
		67.5,62.6 67.3,62.6 67,62.7 66.8,62.7 66.6,62.8 66.4,62.8 66.1,62.9 65.9,63 65.7,63.1 65.6,63.2 65.4,63.4 65.2,63.5 65,63.7 
		64.8,63.8 64.7,64 64.5,64.2 64.4,64.3 64.4,64.4 64.3,64.5 64.2,64.6 64.2,64.7 64.1,64.9 64,65 64,65.1 63.9,65.2 63.9,65.3 
		63.8,65.4 63.8,65.6 63.7,65.7 63.7,65.8 63.6,66 63.6,66.1 63.6,66.2 63.5,66.4 63.5,66.5 63.5,66.7 63.4,66.8 63.4,67 63.4,67.1 
		63.4,67.3 63.3,67.4 63.3,67.6 63.3,67.7 63.3,67.9 63.3,68.1 63.3,68.2 63.3,68.4 63.3,68.6 63.3,68.7 63.3,68.9 63.3,69.1 
		63.3,69.2 63.3,69.4 63.3,69.5 63.3,69.7 63.4,69.9 63.4,70 63.4,70.2 63.4,70.3 63.5,70.4 63.5,70.6 63.5,70.7 63.6,70.9 63.6,71 
		63.6,71.1 63.7,71.3 63.7,71.4 63.8,71.5 63.8,71.7 63.9,71.8 63.9,71.9 64,72 64.1,72.1 64.1,72.2 64.2,72.4 64.2,72.5 64.3,72.6 
		64.4,72.7 64.5,72.8 64.5,72.9 64.7,73.1 64.9,73.3 65,73.4 65.2,73.6 65.4,73.7 65.6,73.9 65.8,74 66,74.1 66.2,74.2 66.4,74.3 
		66.6,74.3 66.8,74.4 67,74.4 67.3,74.5 67.5,74.5 67.8,74.5 67.9,74.5 68.1,74.5 68.3,74.5 68.4,74.4 68.6,74.4 68.7,74.4 
		68.9,74.3 69,74.3 69.2,74.2 69.3,74.2 69.5,74.1 69.6,74.1 69.7,74 69.9,73.9 70,73.8 70.1,73.7 70.2,73.6 70.4,73.5 70.5,73.4 
		70.6,73.3 70.7,73.2 70.8,73.1 70.9,72.9 71,72.8 71.1,72.6 71.2,72.5 71.3,72.3 71.4,72.2 71.5,72 71.6,71.8 71.7,71.6 71.9,71.2 
			">
  </polyline>
  <polyline class="st1" points="54.2,75.8 54.2,61.3 56,61.3 56,75.8 	">
  </polyline>
  <polyline class="st1" points="44.6,63.9 44.7,63.7 44.8,63.5 45,63.3 45.1,63.1 45.2,62.9 45.3,62.7 45.4,62.6 45.6,62.4 
		45.7,62.3 45.8,62.1 46,62 46.1,61.9 46.2,61.7 46.4,61.6 46.5,61.5 46.7,61.4 46.8,61.4 47,61.3 47.1,61.2 47.3,61.1 47.5,61.1 
		47.6,61 47.8,61 48,61 48.1,61 48.3,61 48.5,60.9 48.6,60.9 48.6,60.9 48.7,61 48.8,61 48.9,61 49,61 49.1,61 49.1,61 49.2,61 
		49.3,61 49.4,61 49.5,61.1 49.6,61.1 49.7,61.1 49.7,61.1 50,61.2 50,63.3 49.6,63.1 49.5,63.1 49.4,63.1 49.3,63 49.3,63 49.2,63 
		49.1,63 49,63 48.9,63 48.9,62.9 48.8,62.9 48.7,62.9 48.7,62.9 48.6,62.9 48.5,62.9 48.4,62.9 48.2,62.9 48,62.9 47.8,63 47.6,63 
		47.4,63.1 47.2,63.2 47,63.3 46.8,63.4 46.6,63.5 46.5,63.7 46.3,63.8 46.1,64 46,64.2 45.8,64.4 45.7,64.6 45.5,64.9 45.5,65 
		45.4,65.1 45.3,65.2 45.3,65.4 45.2,65.5 45.1,65.6 45.1,65.8 45,65.9 45,66.1 44.9,66.2 44.9,66.4 44.8,66.5 44.8,66.7 44.7,66.9 
		44.7,67 44.7,67.2 44.6,67.4 44.6,67.5 44.6,67.7 44.5,67.9 44.5,68.1 44.5,68.2 44.5,68.4 44.5,68.6 44.4,68.8 44.4,69 44.4,69.2 
		44.4,69.4 44.4,69.6 44.4,69.8 44.4,70 44.4,70.2 44.4,75.8 42.6,75.9 42.5,61.4 44.4,61.3 44.4,64.4 44.4,64.4 44.5,64.1 	">
  </polyline>
  <path class="st1" d="M30.7,76.2l-0.2,0l-0.2,0l-0.2,0l-0.2,0l-0.2,0l-0.2,0l-0.3,0l-0.3,0l-0.3,0l-0.2,0l-0.2,0l-0.2-0.1L27.9,76
		L27.7,76l-0.2-0.1l-0.2-0.1L27,75.7l-0.2-0.1l-0.2-0.1l-0.2-0.1l-0.2-0.1L26.1,75L26,74.9l-0.2-0.2l-0.1-0.2l-0.1-0.2l-0.1-0.2
		L25.3,74l-0.1-0.2l-0.1-0.2L25,73.4L25,73.2l-0.1-0.2l0-0.2l0-0.2l0-0.2l0-0.2l0-0.2l0-0.2l0-0.2l0-0.2l0-0.2l0-0.2l0-0.2l0-0.2
		l0-0.2l0.1-0.2l0.1-0.2l0.1-0.2l0.1-0.2l0.1-0.2l0.1-0.1l0.1-0.1l0.1-0.1l0.1-0.1l0.1-0.1l0.1-0.1l0.1-0.1l0.1-0.1l0.1-0.1l0.1-0.1
		l0.1-0.1l0.1-0.1l0.1-0.1l0.2-0.1l0.2-0.1l0.2-0.1l0.2-0.1l0.2-0.1l0.2-0.1l0.1,0l0.1,0l0.1,0l0.1,0l0.2,0l0.2,0l0.2,0l0.2,0
		l0.2-0.1l0.2,0l0.2-0.1l0.2-0.1l0.2-0.1l0.3-0.1l0.3-0.1l0.3-0.1l0.3-0.1l0.3-0.1l0.3-0.1l0.3-0.1l0.2-0.1l0.2-0.1l0.2-0.1l0.2-0.1
		l0.2-0.1l0.2-0.1l0.2-0.1l0.2-0.1l0.2-0.1l0.2-0.1l0.2-0.1l0,0l0,0v0l0,0l0,0l0,0l0,0l0,0v0v0l0-0.2l0-0.1l0-0.1l0-0.1l0-0.1l0-0.1
		l0-0.1l0-0.1L34,64l-0.1-0.1l-0.1-0.1l-0.1-0.1l-0.1-0.1l-0.1-0.1l-0.1-0.1l-0.1-0.1l-0.1-0.1l-0.1-0.1L33,63.1L32.9,63L32.8,63
		l-0.1-0.1l-0.1,0l-0.2,0l-0.2,0l-0.2,0l-0.2,0l-0.2,0l-0.2,0l-0.2,0l-0.2,0l-0.2,0l-0.2,0l-0.2,0l-0.2,0l-0.2,0l-0.2,0l-0.2,0
		l-0.2,0l-0.2,0l-0.2,0l-0.2,0L29.1,63l-0.1,0.1l-0.1,0.1l-0.1,0.1l-0.1,0.1l-0.1,0.1l-0.1,0.1l-0.1,0.1L28,63.6l-0.1,0.1l-0.1,0.1
		L27.6,64l-0.1,0.1l-0.1,0.1l-0.1,0.1l-0.1,0.1l-0.1,0.1L27,64.7l-0.1,0.1L26.8,65l-0.1,0.2l-0.2,0.5l-1.4-1l0.2-0.4l0.1-0.2
		l0.1-0.2l0.1-0.2l0.1-0.2l0.1-0.2l0.1-0.2l0.1-0.2l0.1-0.2l0.2-0.2l0.2-0.1l0.2-0.1l0.2-0.1l0.2-0.1l0.2-0.1l0.2-0.1l0.2-0.1
		l0.2-0.1l0.2-0.1l0.2-0.1l0.2-0.1l0.2-0.1l0.2-0.1l0.2-0.1l0.2-0.1l0.2,0l0.2,0l0.2,0l0.2,0l0.2,0l0.2,0l0.2,0l0.3,0l0.3,0l0.3,0
		l0.3,0l0.3,0l0.3,0l0.3,0.1l0.2,0.1l0.2,0.1l0.2,0.1l0.2,0.1l0.2,0.1l0.2,0.1l0.2,0.1l0.2,0.1l0.2,0.1l0.2,0.2l0.1,0.2l0.1,0.2
		l0.1,0.2l0.1,0.2l0.1,0.2l0.1,0.2l0.1,0.2l0.1,0.2l0.1,0.2l0.1,0.3l0,0.3l0,0.3l0,0.3l0,0.3l0,0.3l0,6.9l0,0.2l0,0.2l0,0.1l0,0.1
		l0,0.1l0,0.1l0,0.1l0,0.1l0,0.1l0,0.1l0,0.1l0,0.1l0,0.1l0,0l0,0l0,0l0,0.1l0.1,0l0.1,0l0.1,0l0.1,0l0.1,0l0.1,0l0.2,0l0.5,0l0,1.5
		l-0.3,0.1l-0.1,0l-0.1,0l-0.1,0l-0.1,0l-0.1,0l0,0l-0.1,0l0,0l0,0l0,0l0,0l0,0l0,0l0,0l0,0l-0.1,0l-0.1,0l-0.1,0l-0.1,0l-0.1,0
		l-0.1,0l-0.1,0l-0.1,0l-0.1,0L35.4,76l-0.1-0.1l-0.1-0.1l-0.1-0.1L35,75.7L35,75.6l-0.1-0.1l-0.1-0.1l-0.1-0.1l-0.1-0.1l-0.1-0.1
		l-0.1-0.1l0-0.1l0-0.1l0-0.1l0-0.1l0-0.1l0-0.1l0-0.1l0,0l0,0l-0.1,0.1l-0.1,0.1l-0.1,0.1l-0.1,0.1l-0.2,0.1L33.3,75l-0.2,0.1
		L33,75.2l-0.2,0.1l-0.2,0.1l-0.2,0.1l-0.2,0.1l-0.2,0.1l-0.2,0.1L32,75.8l-0.2,0.1l-0.2,0.1L31.5,76L31.3,76l-0.2,0l-0.2,0l-0.2,0
		L30.7,76.2z M34,67.4l-0.2,0.1l-0.2,0.1l-0.2,0.1l-0.2,0.1l-0.2,0.1l-0.2,0.1L32.3,68L32.1,68l-0.3,0.1l-0.3,0.1l-0.3,0.1L31,68.3
		l-0.3,0.1l-0.3,0.1l-0.3,0.1L30,68.5l-0.2,0.1l-0.2,0.1l-0.2,0l-0.2,0l-0.2,0l-0.2,0l-0.1,0l-0.1,0l-0.1,0l-0.1,0l-0.1,0l-0.1,0
		l-0.1,0l-0.2,0.1l-0.2,0.1l-0.2,0.1l-0.2,0.1l-0.1,0.1l-0.1,0.1L27,69.9l-0.1,0.2l0,0.1l0,0.1l0,0.1l0,0.1l0,0.1l0,0.1l0,0.1l0,0.1
		l0,0.1l0,0.1l0,0.1l0,0.1l0,0.1l0,0.1l0,0.1l0,0.1l0,0.2l0,0.2l0,0.2l0,0.2l0,0.1l0,0.1l0,0.1l0,0.1l0.1,0.1l0.1,0.1l0.1,0.1
		l0.1,0.1l0.1,0.1l0.1,0.1l0.1,0.1l0.1,0.1l0.1,0.1l0.1,0.1l0.1,0.1l0.1,0.1l0.1,0.1l0.1,0.1l0.1,0.1l0.1,0.1l0.1,0l0.1,0l0.2,0
		l0.2,0l0.2,0l0.2,0l0.2,0l0.2,0l0.3,0l0.2,0l0.2,0l0.2,0l0.2,0l0.2,0l0.2-0.1l0.2-0.1l0.2-0.1l0.2-0.1l0.2-0.1l0.2-0.1l0.2-0.1
		l0.2-0.1l0.2-0.1l0.2-0.1l0.2-0.1l0.1-0.1l0.1-0.1l0.1-0.2l0.1-0.2l0.1-0.2l0.1-0.2l0.1-0.2L34,72l0.1-0.2l0.1-0.2l0-0.2l0-0.2
		l0-0.2l0-0.2l0-0.2l0-3.3l0,0">
  </path>
  <polyline class="st1" points="3.8,61.6 4,61.5 4.1,61.4 4.3,61.4 4.5,61.3 4.6,61.3 4.8,61.2 5,61.2 5.1,61.1 5.3,61.1 5.5,61.1 
		5.7,61 5.9,61 6,61 6.3,61 6.5,61 6.7,61.1 6.9,61.1 7.1,61.1 7.3,61.2 7.5,61.2 7.7,61.3 7.9,61.3 8.1,61.4 8.2,61.5 8.4,61.6 
		8.6,61.7 8.7,61.8 8.9,61.9 9,62 9.2,62.1 9.3,62.2 9.4,62.4 9.6,62.5 9.7,62.7 9.8,62.8 9.9,63 10,63.2 10.1,63.3 10.2,63.5 
		10.2,63.7 10.3,63.9 10.4,64 10.4,64 10.5,63.8 10.6,63.6 10.7,63.4 10.9,63.3 11,63.1 11.1,62.9 11.3,62.8 11.4,62.6 11.6,62.5 
		11.7,62.3 11.9,62.2 12,62.1 12.2,61.9 12.3,61.8 12.5,61.7 12.7,61.6 12.8,61.5 13,61.5 13.2,61.4 13.4,61.3 13.6,61.2 13.7,61.2 
		13.9,61.1 14.1,61.1 14.3,61.1 14.5,61 14.7,61 14.9,61 15.1,61 15.4,61 15.6,61 15.9,61.1 16.1,61.1 16.4,61.2 16.6,61.2 
		16.8,61.3 17.1,61.4 17.3,61.5 17.5,61.6 17.6,61.7 17.8,61.8 18,62 18.2,62.1 18.3,62.3 18.5,62.5 18.5,62.6 18.6,62.7 18.7,62.8 
		18.7,62.9 18.8,63 18.9,63.1 18.9,63.2 19,63.3 19,63.4 19.1,63.6 19.1,63.7 19.2,63.8 19.2,63.9 19.2,64.1 19.3,64.2 19.3,64.3 
		19.3,64.5 19.4,64.6 19.4,64.7 19.4,64.9 19.5,65 19.5,65.2 19.5,65.3 19.5,65.5 19.5,65.6 19.5,65.8 19.6,65.9 19.6,66.1 
		19.6,66.3 19.6,66.4 19.6,66.6 19.6,66.8 19.6,75.9 17.8,75.9 17.8,67.1 17.8,66.8 17.8,66.5 17.8,66.2 17.7,66 17.7,65.7 
		17.7,65.5 17.6,65.3 17.6,65 17.6,64.8 17.5,64.6 17.4,64.5 17.4,64.3 17.3,64.1 17.2,64 17.2,63.8 17.1,63.7 17,63.6 16.9,63.5 
		16.8,63.4 16.7,63.3 16.6,63.2 16.5,63.1 16.4,63 16.2,62.9 16.1,62.9 16,62.8 15.8,62.8 15.7,62.8 15.5,62.7 15.3,62.7 15.2,62.7 
		15,62.7 14.8,62.7 14.5,62.7 14.3,62.7 14.1,62.8 13.9,62.8 13.7,62.9 13.5,63 13.3,63.1 13.1,63.2 13,63.3 12.8,63.4 12.6,63.5 
		12.4,63.7 12.3,63.8 12.1,64 11.9,64.2 11.8,64.4 11.6,64.6 11.5,64.8 11.4,65 11.3,65.2 11.2,65.4 11.1,65.7 11,65.9 10.9,66.1 
		10.9,66.4 10.8,66.6 10.8,66.9 10.7,67.1 10.7,67.4 10.7,67.7 10.7,67.9 10.7,75.9 8.9,75.9 8.9,67.1 8.9,66.8 8.9,66.5 8.8,66.3 
		8.8,66 8.8,65.7 8.8,65.5 8.7,65.3 8.7,65.1 8.6,64.9 8.6,64.7 8.5,64.5 8.5,64.3 8.4,64.1 8.3,64 8.2,63.8 8.2,63.7 8.1,63.6 
		8,63.5 7.9,63.4 7.8,63.3 7.7,63.2 7.6,63.1 7.4,63 7.3,63 7.2,62.9 7,62.9 6.9,62.8 6.7,62.8 6.6,62.7 6.4,62.7 6.2,62.7 6,62.7 
		5.8,62.7 5.6,62.7 5.4,62.8 5.2,62.8 5,62.9 4.8,62.9 4.6,63 4.4,63.1 4.2,63.2 4,63.3 3.9,63.4 3.7,63.5 3.5,63.7 3.4,63.8 
		3.2,64 3,64.2 2.9,64.4 2.8,64.6 2.6,64.8 2.5,65 2.4,65.2 2.3,65.4 2.2,65.6 2.1,65.9 2,66.1 2,66.4 1.9,66.6 1.9,66.9 1.9,67.1 
		1.8,67.4 1.8,67.7 1.8,68 1.8,75.9 0,75.9 0,61.4 1.8,61.4 1.8,63.6 1.9,63.5 2,63.3 2.1,63.2 2.2,63 2.4,62.8 2.5,62.7 2.6,62.5 
		2.8,62.4 2.9,62.3 3.1,62.1 3.2,62 3.4,61.9 3.5,61.8 3.7,61.7 	">
  </polyline>
  <path class="st1" d="M20.8,50.1l12.9,0l0-24.1c-1.1-1.1-2.2-2.3-3.4-3.6c-3-3.1-6.2-6.5-9.4-9.5L20.8,50.1z">
  </path>
  <path class="st1" d="M57.6,50l12.9,0l-0.1-37.4c-4.5,3.8-8.9,8-12.8,12.3L57.6,50z">
  </path>
  <path class="st2" d="M40.1,49.2c0.9-4.5,1.9-8.6,3-12.4c-1.5-2.4-3-4.3-5.1-6.4c-6.2-5.6-16.6-18.7-25-22.6
		c-0.3-0.2-0.1-0.7,0.2-0.6c15.6-0.9,25.8,9.9,28.9,24.2l1.5,3.5c7-22.2,19.1-32,42-34.8c2.6-0.7,3.7,0.7,0.9,1.9
		c-16.8,7.9-42.3,34-45.1,47.4C41.1,50.5,39.9,50.5,40.1,49.2">
  </path>
 </g>
</svg>