<?xml version="1.0" encoding="utf-8"?>
<!-- Generator: Adobe Illustrator 23.0.6, SVG Export Plug-In . SVG Version: 6.00 Build 0)  -->
<svg version="1.1" xmlns="http://www.w3.org/2000/svg" xmlns:xlink="http://www.w3.org/1999/xlink" x="0px" y="0px"
	 viewBox="0 0 518.716 156.014" enable-background="new 0 0 518.716 156.014" xml:space="preserve">
<g id="图层_1">
</g>
<g id="图层_2">
	<g>
		<path fill="#454545" d="M252.854,50.527h-14.072l-14.23,18.657l-14.072-18.657h-14.546l21.029,27.116l-22.056,28.223H208.9
			l15.179-19.685l14.941,19.685h14.625l-21.977-28.302L252.854,50.527z M457.527,57.247c-4.032-5.218-11.305-8.222-20.001-8.222
			c-6.878,0-15.732,2.134-22.373,5.376l0.158,51.465h12.333V61.358c2.925-1.265,6.799-1.976,10.435-2.055
			c6.483-0.158,10.751,4.032,10.751,10.119v36.444h12.254V58.907l-2.846,6.166c4.032-3.557,8.933-5.534,13.439-5.534
			c6.483,0,10.672,3.637,10.672,9.724v36.602h12.333V65.311c0-9.803-7.747-16.285-19.606-16.285c-8.459,0-16.443,2.609-21.819,7.273
			L457.527,57.247z M506.383,50.527v55.338h12.333V50.527H506.383z M376.496,97.644c-10.277,0-16.127-7.352-16.127-20.159
			c0-12.174,5.85-19.131,16.127-19.131c10.356,0,16.206,6.957,16.206,19.131C392.702,90.292,386.852,97.644,376.496,97.644z
			 M376.496,49.025c-18.499,0-29.092,10.356-29.092,28.46c0.079,18.815,10.672,29.567,29.092,29.487
			c18.578,0,29.171-10.751,29.171-29.487C405.667,59.382,395.074,49.025,376.496,49.025z M263.131,105.866h12.333V50.527h-12.333
			V105.866z M326.217,96.063c-13.756,3.32-28.144,1.186-28.144-6.562c0-7.352,8.301-11.068,28.144-10.04V96.063z M310.881,49.025
			c-6.562,0-15.258,1.66-20.791,3.32v9.803c8.222-2.134,14.546-2.846,21.503-2.846c10.593,0,14.309,3.953,14.309,10.198v0.87
			c-29.013-0.949-39.844,6.957-39.844,18.578s9.012,18.025,30.199,18.025c6.245,0,15.099-1.186,21.898-3.716V70.765
			C338.155,55.35,330.881,49.025,310.881,49.025z"/>
		<g>
			<path fill-rule="evenodd" clip-rule="evenodd" fill="#ED6A1D" d="M150.085,156.014H5.922c-3.27,0-5.922-2.653-5.922-5.925V5.922
				C0,2.651,2.652,0,5.922,0h144.164c3.27,0,5.921,2.651,5.921,5.922v144.167C156.007,153.361,153.356,156.014,150.085,156.014"/>
			<path fill="#FFFFFF" d="M122.334,49.075h-12.273c-0.526,0-0.951,0.417-0.951,0.933v56.001c0,0.51,0.425,0.928,0.951,0.928h12.273
				c0.521,0,0.952-0.418,0.952-0.928V50.008C123.286,49.492,122.855,49.075,122.334,49.075"/>
			<path fill="#FFFFFF" d="M80.423,49.075H33.67c-0.526,0-0.948,0.417-0.948,0.933v56.001c0,0.51,0.422,0.928,0.948,0.928h12.276
				c0.525,0,0.956-0.418,0.956-0.928V62.055c0-0.507,0.422-0.928,0.949-0.928h26.445c7.435,0,9.546,5.695,9.546,9.369v35.513
				c0,0.51,0.428,0.928,0.954,0.928h12.267c0.523,0,0.95-0.418,0.95-0.928V66.28c0-3.277-0.393-7.989-4.619-12.136
				C88.97,49.816,84.933,49.075,80.423,49.075"/>
			<path fill="#FFFFFF" d="M71.834,71.375h-12.89c-0.526,0-0.956,0.418-0.956,0.93v33.704c0,0.51,0.431,0.928,0.956,0.928h12.89
				c0.52,0,0.948-0.418,0.948-0.928V72.305C72.783,71.793,72.355,71.375,71.834,71.375"/>
		</g>
	</g>
</g>
</svg>
