<svg width="500" height="350" viewBox="0 0 500 350" fill="none" xmlns="http://www.w3.org/2000/svg">
<path fill-rule="evenodd" clip-rule="evenodd" d="M299.667 117.778C313.912 150.028 319.966 186.047 308.95 218.726C297.071 253.964 274.073 288.493 239.148 297.301C205.847 305.699 176.218 276.274 144.789 260.126C114.21 244.415 77.3092 237.127 61.1069 205.825C43.4151 171.644 41.1122 127.797 59.5142 95.3759C76.8381 64.8539 115.271 60.3452 148.536 51.7887C177.266 44.3985 206.7 38.1733 234.576 50.345C263.751 63.0836 286.425 87.7986 299.667 117.778Z" fill="#F2BE55" fill-opacity="0.17"/>
<g filter="url(#filter0_d_6423_12786)">
<path d="M6 140C6 135.582 9.58172 132 14 132H307C311.418 132 315 135.582 315 140V188C315 192.418 311.418 196 307 196H14C9.58173 196 6 192.418 6 188V140Z" fill="white"/>
<rect x="18.5" y="144" width="40" height="40" rx="20" fill="white"/>
<rect x="19.75" y="145.25" width="37.5" height="37.5" rx="18.75" fill="#4CD9D9" fill-opacity="0.16"/>
<rect x="19.75" y="145.25" width="37.5" height="37.5" rx="18.75" stroke="white" stroke-width="2.5"/>
<path d="M30.1539 169.5H27.9039L32.0005 157.864H34.6028L38.7051 169.5H36.4551L33.3471 160.25H33.2562L30.1539 169.5ZM30.2278 164.938H36.3641V166.631H30.2278V164.938ZM38.5748 157.864H40.9555L43.802 163.011H43.9157L46.7623 157.864H49.143L44.91 165.159V169.5H42.8077V165.159L38.5748 157.864Z" fill="#212528"/>
<circle cx="52" cy="177" r="4" fill="#29A653"/>
<circle cx="52" cy="177" r="4" stroke="white"/>
<path d="M70.25 179.619C69.608 179.619 69.0611 179.445 68.6094 179.095C68.1577 178.743 67.8125 178.233 67.5739 177.565C67.3352 176.895 67.2159 176.085 67.2159 175.136C67.2159 174.193 67.3352 173.388 67.5739 172.72C67.8153 172.05 68.1619 171.538 68.6136 171.186C69.0682 170.831 69.6136 170.653 70.25 170.653C70.8864 170.653 71.4304 170.831 71.8821 171.186C72.3366 171.538 72.6832 172.05 72.9219 172.72C73.1634 173.388 73.2841 174.193 73.2841 175.136C73.2841 176.085 73.1648 176.895 72.9261 177.565C72.6875 178.233 72.3423 178.743 71.8906 179.095C71.4389 179.445 70.892 179.619 70.25 179.619ZM70.25 178.682C70.8864 178.682 71.3807 178.375 71.733 177.761C72.0852 177.148 72.2614 176.273 72.2614 175.136C72.2614 174.381 72.1804 173.737 72.0185 173.206C71.8594 172.675 71.6293 172.27 71.3281 171.991C71.0298 171.713 70.6705 171.574 70.25 171.574C69.6193 171.574 69.1264 171.885 68.7713 172.507C68.4162 173.126 68.2386 174.003 68.2386 175.136C68.2386 175.892 68.3182 176.534 68.4773 177.062C68.6364 177.591 68.8651 177.993 69.1634 178.268C69.4645 178.544 69.8267 178.682 70.25 178.682ZM77.75 179.619C77.108 179.619 76.5611 179.445 76.1094 179.095C75.6577 178.743 75.3125 178.233 75.0739 177.565C74.8352 176.895 74.7159 176.085 74.7159 175.136C74.7159 174.193 74.8352 173.388 75.0739 172.72C75.3153 172.05 75.6619 171.538 76.1136 171.186C76.5682 170.831 77.1136 170.653 77.75 170.653C78.3864 170.653 78.9304 170.831 79.3821 171.186C79.8366 171.538 80.1832 172.05 80.4219 172.72C80.6634 173.388 80.7841 174.193 80.7841 175.136C80.7841 176.085 80.6648 176.895 80.4261 177.565C80.1875 178.233 79.8423 178.743 79.3906 179.095C78.9389 179.445 78.392 179.619 77.75 179.619ZM77.75 178.682C78.3864 178.682 78.8807 178.375 79.233 177.761C79.5852 177.148 79.7614 176.273 79.7614 175.136C79.7614 174.381 79.6804 173.737 79.5185 173.206C79.3594 172.675 79.1293 172.27 78.8281 171.991C78.5298 171.713 78.1705 171.574 77.75 171.574C77.1193 171.574 76.6264 171.885 76.2713 172.507C75.9162 173.126 75.7386 174.003 75.7386 175.136C75.7386 175.892 75.8182 176.534 75.9773 177.062C76.1364 177.591 76.3651 177.993 76.6634 178.268C76.9645 178.544 77.3267 178.682 77.75 178.682ZM82.4418 179.5L86.3452 171.778V171.71H81.8452V170.773H87.4361V171.761L83.5497 179.5H82.4418Z" fill="#5D6164"/>
<path d="M69.142 161.5H66.892L70.9886 149.864H73.5909L77.6932 161.5H75.4432L72.3352 152.25H72.2443L69.142 161.5ZM69.2159 156.938H75.3523V158.631H69.2159V156.938ZM85.892 155.08L84.017 155.284C83.964 155.095 83.8712 154.917 83.7386 154.75C83.6098 154.583 83.4356 154.449 83.2159 154.347C82.9962 154.244 82.7273 154.193 82.4091 154.193C81.9811 154.193 81.6212 154.286 81.3295 154.472C81.0417 154.657 80.8996 154.898 80.9034 155.193C80.8996 155.447 80.9924 155.653 81.1818 155.812C81.375 155.972 81.6932 156.102 82.1364 156.205L83.625 156.523C84.4508 156.701 85.0644 156.983 85.4659 157.369C85.8712 157.756 86.0758 158.261 86.0795 158.886C86.0758 159.436 85.9148 159.92 85.5966 160.341C85.2822 160.758 84.8447 161.083 84.2841 161.318C83.7235 161.553 83.0795 161.67 82.3523 161.67C81.2841 161.67 80.4242 161.447 79.7727 161C79.1212 160.549 78.733 159.922 78.608 159.119L80.6136 158.926C80.7045 159.32 80.8977 159.617 81.1932 159.818C81.4886 160.019 81.8731 160.119 82.3466 160.119C82.8352 160.119 83.2273 160.019 83.5227 159.818C83.822 159.617 83.9716 159.369 83.9716 159.074C83.9716 158.824 83.875 158.617 83.6818 158.455C83.4924 158.292 83.197 158.167 82.7955 158.08L81.3068 157.767C80.4697 157.593 79.8504 157.299 79.4489 156.886C79.0473 156.47 78.8485 155.943 78.8523 155.307C78.8485 154.769 78.9943 154.303 79.2898 153.909C79.589 153.511 80.0038 153.205 80.5341 152.989C81.0682 152.769 81.6837 152.659 82.3807 152.659C83.4034 152.659 84.2083 152.877 84.7955 153.312C85.3864 153.748 85.7519 154.337 85.892 155.08ZM89.8324 156.386V161.5H87.7756V149.864H89.7869V154.256H89.8892C90.0938 153.763 90.41 153.375 90.8381 153.091C91.2699 152.803 91.8191 152.659 92.4858 152.659C93.0919 152.659 93.6203 152.786 94.071 153.04C94.5218 153.294 94.8703 153.665 95.1165 154.153C95.3665 154.642 95.4915 155.239 95.4915 155.943V161.5H93.4347V156.261C93.4347 155.674 93.2831 155.218 92.9801 154.892C92.6809 154.562 92.2604 154.398 91.7188 154.398C91.3551 154.398 91.0294 154.477 90.7415 154.636C90.4574 154.792 90.2339 155.017 90.071 155.312C89.9119 155.608 89.8324 155.966 89.8324 156.386ZM97.5881 161.5V152.773H99.6449V161.5H97.5881ZM98.6222 151.534C98.2964 151.534 98.0161 151.426 97.7812 151.21C97.5464 150.991 97.429 150.727 97.429 150.42C97.429 150.11 97.5464 149.847 97.7812 149.631C98.0161 149.411 98.2964 149.301 98.6222 149.301C98.9517 149.301 99.232 149.411 99.4631 149.631C99.6979 149.847 99.8153 150.11 99.8153 150.42C99.8153 150.727 99.6979 150.991 99.4631 151.21C99.232 151.426 98.9517 151.534 98.6222 151.534ZM108.658 155.08L106.783 155.284C106.73 155.095 106.637 154.917 106.504 154.75C106.375 154.583 106.201 154.449 105.982 154.347C105.762 154.244 105.493 154.193 105.175 154.193C104.747 154.193 104.387 154.286 104.095 154.472C103.807 154.657 103.665 154.898 103.669 155.193C103.665 155.447 103.758 155.653 103.947 155.812C104.141 155.972 104.459 156.102 104.902 156.205L106.391 156.523C107.216 156.701 107.83 156.983 108.232 157.369C108.637 157.756 108.841 158.261 108.845 158.886C108.841 159.436 108.68 159.92 108.362 160.341C108.048 160.758 107.61 161.083 107.05 161.318C106.489 161.553 105.845 161.67 105.118 161.67C104.05 161.67 103.19 161.447 102.538 161C101.887 160.549 101.499 159.922 101.374 159.119L103.379 158.926C103.47 159.32 103.663 159.617 103.959 159.818C104.254 160.019 104.639 160.119 105.112 160.119C105.601 160.119 105.993 160.019 106.288 159.818C106.588 159.617 106.737 159.369 106.737 159.074C106.737 158.824 106.641 158.617 106.447 158.455C106.258 158.292 105.963 158.167 105.561 158.08L104.072 157.767C103.235 157.593 102.616 157.299 102.214 156.886C101.813 156.47 101.614 155.943 101.618 155.307C101.614 154.769 101.76 154.303 102.055 153.909C102.355 153.511 102.769 153.205 103.3 152.989C103.834 152.769 104.449 152.659 105.146 152.659C106.169 152.659 106.974 152.877 107.561 153.312C108.152 153.748 108.518 154.337 108.658 155.08ZM112.598 156.386V161.5H110.541V149.864H112.553V154.256H112.655C112.859 153.763 113.176 153.375 113.604 153.091C114.036 152.803 114.585 152.659 115.251 152.659C115.857 152.659 116.386 152.786 116.837 153.04C117.287 153.294 117.636 153.665 117.882 154.153C118.132 154.642 118.257 155.239 118.257 155.943V161.5H116.2V156.261C116.2 155.674 116.049 155.218 115.746 154.892C115.446 154.562 115.026 154.398 114.484 154.398C114.121 154.398 113.795 154.477 113.507 154.636C113.223 154.792 113 155.017 112.837 155.312C112.678 155.608 112.598 155.966 112.598 156.386ZM123.618 149.864H125.999L128.845 155.011H128.959L131.805 149.864H134.186L129.953 157.159V161.5H127.851V157.159L123.618 149.864ZM136.599 161.676C136.046 161.676 135.548 161.578 135.105 161.381C134.666 161.18 134.317 160.884 134.06 160.494C133.806 160.104 133.679 159.623 133.679 159.051C133.679 158.559 133.77 158.152 133.952 157.83C134.134 157.508 134.382 157.25 134.696 157.057C135.01 156.864 135.365 156.718 135.759 156.619C136.156 156.517 136.567 156.443 136.991 156.398C137.503 156.345 137.918 156.297 138.236 156.256C138.554 156.21 138.785 156.142 138.929 156.051C139.077 155.956 139.151 155.811 139.151 155.614V155.58C139.151 155.152 139.024 154.82 138.77 154.585C138.516 154.35 138.151 154.233 137.673 154.233C137.17 154.233 136.77 154.343 136.474 154.562C136.183 154.782 135.986 155.042 135.884 155.341L133.963 155.068C134.115 154.538 134.365 154.095 134.713 153.739C135.062 153.379 135.488 153.11 135.991 152.932C136.495 152.75 137.052 152.659 137.662 152.659C138.082 152.659 138.501 152.708 138.918 152.807C139.334 152.905 139.715 153.068 140.06 153.295C140.404 153.519 140.681 153.824 140.889 154.21C141.101 154.597 141.207 155.08 141.207 155.659V161.5H139.23V160.301H139.162C139.037 160.544 138.861 160.771 138.634 160.983C138.41 161.191 138.128 161.36 137.787 161.489C137.45 161.614 137.054 161.676 136.599 161.676ZM137.134 160.165C137.546 160.165 137.904 160.083 138.207 159.92C138.51 159.754 138.743 159.534 138.906 159.261C139.073 158.989 139.156 158.691 139.156 158.369V157.341C139.092 157.394 138.982 157.443 138.827 157.489C138.675 157.534 138.505 157.574 138.315 157.608C138.126 157.642 137.938 157.672 137.753 157.699C137.567 157.725 137.406 157.748 137.27 157.767C136.963 157.809 136.688 157.877 136.446 157.972C136.204 158.066 136.012 158.199 135.872 158.369C135.732 158.536 135.662 158.752 135.662 159.017C135.662 159.396 135.8 159.682 136.077 159.875C136.353 160.068 136.705 160.165 137.134 160.165ZM146.514 161.653C145.829 161.653 145.215 161.477 144.673 161.125C144.132 160.773 143.704 160.261 143.389 159.591C143.075 158.92 142.918 158.106 142.918 157.148C142.918 156.178 143.077 155.36 143.395 154.693C143.717 154.023 144.151 153.517 144.696 153.176C145.241 152.831 145.849 152.659 146.52 152.659C147.031 152.659 147.452 152.746 147.781 152.92C148.111 153.091 148.372 153.297 148.565 153.54C148.759 153.778 148.908 154.004 149.014 154.216H149.099V149.864H151.162V161.5H149.139V160.125H149.014C148.908 160.337 148.755 160.562 148.554 160.801C148.353 161.036 148.088 161.237 147.759 161.403C147.429 161.57 147.014 161.653 146.514 161.653ZM147.088 159.966C147.524 159.966 147.895 159.848 148.202 159.614C148.509 159.375 148.741 159.044 148.901 158.619C149.06 158.195 149.139 157.701 149.139 157.136C149.139 156.572 149.06 156.081 148.901 155.665C148.745 155.248 148.514 154.924 148.207 154.693C147.904 154.462 147.531 154.347 147.088 154.347C146.63 154.347 146.247 154.466 145.94 154.705C145.634 154.943 145.402 155.273 145.247 155.693C145.092 156.114 145.014 156.595 145.014 157.136C145.014 157.682 145.092 158.169 145.247 158.597C145.406 159.021 145.639 159.356 145.946 159.602C146.257 159.845 146.637 159.966 147.088 159.966ZM155.865 161.676C155.312 161.676 154.814 161.578 154.371 161.381C153.931 161.18 153.583 160.884 153.325 160.494C153.071 160.104 152.945 159.623 152.945 159.051C152.945 158.559 153.036 158.152 153.217 157.83C153.399 157.508 153.647 157.25 153.962 157.057C154.276 156.864 154.63 156.718 155.024 156.619C155.422 156.517 155.833 156.443 156.257 156.398C156.768 156.345 157.183 156.297 157.501 156.256C157.82 156.21 158.051 156.142 158.195 156.051C158.342 155.956 158.416 155.811 158.416 155.614V155.58C158.416 155.152 158.289 154.82 158.036 154.585C157.782 154.35 157.416 154.233 156.939 154.233C156.435 154.233 156.036 154.343 155.74 154.562C155.448 154.782 155.251 155.042 155.149 155.341L153.229 155.068C153.38 154.538 153.63 154.095 153.979 153.739C154.327 153.379 154.753 153.11 155.257 152.932C155.761 152.75 156.318 152.659 156.928 152.659C157.348 152.659 157.767 152.708 158.183 152.807C158.6 152.905 158.981 153.068 159.325 153.295C159.67 153.519 159.946 153.824 160.155 154.21C160.367 154.597 160.473 155.08 160.473 155.659V161.5H158.496V160.301H158.428C158.303 160.544 158.126 160.771 157.899 160.983C157.676 161.191 157.393 161.36 157.053 161.489C156.715 161.614 156.32 161.676 155.865 161.676ZM156.399 160.165C156.812 160.165 157.17 160.083 157.473 159.92C157.776 159.754 158.009 159.534 158.172 159.261C158.339 158.989 158.422 158.691 158.422 158.369V157.341C158.357 157.394 158.248 157.443 158.092 157.489C157.941 157.534 157.77 157.574 157.581 157.608C157.392 157.642 157.204 157.672 157.018 157.699C156.833 157.725 156.672 157.748 156.536 157.767C156.229 157.809 155.954 157.877 155.712 157.972C155.469 158.066 155.278 158.199 155.138 158.369C154.998 158.536 154.928 158.752 154.928 159.017C154.928 159.396 155.066 159.682 155.342 159.875C155.619 160.068 155.971 160.165 156.399 160.165ZM170.024 152.773L166.916 161.5H164.643L161.536 152.773H163.729L165.734 159.256H165.825L167.837 152.773H170.024Z" fill="#3F4346"/>
<line x1="178" y1="179" x2="178" y2="149" stroke="#D5D9DC"/>
<rect x="186.5" y="146" width="36" height="36" rx="18" fill="white"/>
<path d="M199.95 158.167C200 158.908 200.125 159.633 200.325 160.325L199.325 161.325C198.983 160.325 198.767 159.267 198.692 158.167H199.95ZM208.167 168.183C208.875 168.383 209.6 168.508 210.333 168.558V169.8C209.233 169.725 208.175 169.508 207.167 169.175L208.167 168.183ZM200.75 156.5H197.833C197.375 156.5 197 156.875 197 157.333C197 165.158 203.342 171.5 211.167 171.5C211.625 171.5 212 171.125 212 170.667V167.758C212 167.3 211.625 166.925 211.167 166.925C210.133 166.925 209.125 166.758 208.192 166.45C208.108 166.417 208.017 166.408 207.933 166.408C207.717 166.408 207.508 166.492 207.342 166.65L205.508 168.483C203.15 167.275 201.217 165.35 200.017 162.992L201.85 161.158C202.083 160.925 202.15 160.6 202.058 160.308C201.75 159.375 201.583 158.375 201.583 157.333C201.583 156.875 201.208 156.5 200.75 156.5Z" fill="#5D6164"/>
<rect x="226.5" y="146" width="36" height="36" rx="18" fill="white"/>
<path d="M248.667 162.75V159.833C248.667 159.375 248.292 159 247.833 159H237.833C237.375 159 237 159.375 237 159.833V168.167C237 168.625 237.375 169 237.833 169H247.833C248.292 169 248.667 168.625 248.667 168.167V165.25L252 168.583V159.417L248.667 162.75ZM247 167.333H238.667V160.667H247V167.333ZM242 166.5H243.667V164.833H245.333V163.167H243.667V161.5H242V163.167H240.333V164.833H242V166.5Z" fill="#5D6164"/>
<rect x="266.5" y="146" width="36" height="36" rx="18" fill="white"/>
<g clip-path="url(#clip0_6423_12786)">
<path d="M291.167 169C292.083 169 292.825 168.25 292.825 167.333L292.833 159C292.833 158.075 292.083 157.333 291.167 157.333H277.833C276.908 157.333 276.167 158.075 276.167 159V167.333C276.167 168.25 276.908 169 277.833 169H274.5V170.667H294.5V169H291.167ZM277.833 167.333V159H291.167V167.342L277.833 167.333ZM285.333 161.608C282.092 162.058 280.8 164.275 280.333 166.5C281.492 164.942 283.017 164.233 285.333 164.233V166.058L288.667 162.942L285.333 159.833V161.608Z" fill="#5D6164"/>
</g>
</g>
<g filter="url(#filter1_d_6423_12786)">
<rect x="156.5" y="264" width="176" height="36" rx="18" fill="white" shape-rendering="crispEdges"/>
<path d="M179.316 289.192C178.473 289.192 177.695 289.043 176.98 288.744C176.276 288.435 175.657 288.003 175.124 287.448C174.601 286.893 174.196 286.243 173.908 285.496C173.62 284.749 173.476 283.933 173.476 283.048C173.476 282.152 173.62 281.331 173.908 280.584C174.196 279.837 174.601 279.187 175.124 278.632C175.647 278.077 176.265 277.651 176.98 277.352C177.695 277.043 178.473 276.888 179.316 276.888C180.137 276.888 180.873 277.032 181.524 277.32C182.185 277.608 182.74 277.981 183.188 278.44C183.647 278.899 183.972 279.389 184.164 279.912L182.724 280.568C182.447 279.907 182.015 279.373 181.428 278.968C180.841 278.552 180.137 278.344 179.316 278.344C178.484 278.344 177.743 278.541 177.092 278.936C176.452 279.331 175.951 279.88 175.588 280.584C175.225 281.288 175.044 282.109 175.044 283.048C175.044 283.976 175.225 284.792 175.588 285.496C175.951 286.2 176.452 286.749 177.092 287.144C177.743 287.539 178.484 287.736 179.316 287.736C180.137 287.736 180.841 287.533 181.428 287.128C182.015 286.712 182.447 286.173 182.724 285.512L184.164 286.168C183.972 286.691 183.647 287.181 183.188 287.64C182.74 288.099 182.185 288.472 181.524 288.76C180.873 289.048 180.137 289.192 179.316 289.192ZM186.121 289V276.888H187.609V282.056L187.337 281.912C187.55 281.368 187.891 280.947 188.361 280.648C188.841 280.339 189.401 280.184 190.041 280.184C190.659 280.184 191.209 280.323 191.689 280.6C192.179 280.877 192.563 281.261 192.841 281.752C193.129 282.243 193.273 282.797 193.273 283.416V289H191.769V283.896C191.769 283.416 191.678 283.011 191.497 282.68C191.326 282.349 191.086 282.093 190.777 281.912C190.467 281.72 190.11 281.624 189.705 281.624C189.31 281.624 188.953 281.72 188.633 281.912C188.313 282.093 188.062 282.355 187.881 282.696C187.699 283.027 187.609 283.427 187.609 283.896V289H186.121ZM197.93 289.192C197.365 289.192 196.863 289.091 196.426 288.888C195.999 288.675 195.663 288.387 195.418 288.024C195.173 287.651 195.05 287.224 195.05 286.744C195.05 286.285 195.146 285.875 195.338 285.512C195.541 285.139 195.85 284.824 196.266 284.568C196.693 284.312 197.226 284.131 197.866 284.024L201.066 283.496V284.744L198.202 285.224C197.647 285.32 197.242 285.496 196.986 285.752C196.741 286.008 196.618 286.323 196.618 286.696C196.618 287.048 196.757 287.341 197.034 287.576C197.322 287.811 197.679 287.928 198.106 287.928C198.65 287.928 199.119 287.816 199.514 287.592C199.919 287.357 200.234 287.043 200.458 286.648C200.693 286.253 200.81 285.816 200.81 285.336V283.144C200.81 282.675 200.634 282.296 200.282 282.008C199.941 281.709 199.487 281.56 198.922 281.56C198.431 281.56 197.994 281.688 197.61 281.944C197.237 282.189 196.959 282.52 196.778 282.936L195.482 282.264C195.642 281.869 195.898 281.517 196.25 281.208C196.602 280.888 197.013 280.637 197.482 280.456C197.951 280.275 198.442 280.184 198.954 280.184C199.615 280.184 200.197 280.312 200.698 280.568C201.199 280.813 201.589 281.16 201.866 281.608C202.154 282.045 202.298 282.557 202.298 283.144V289H200.842V287.368L201.114 287.464C200.933 287.805 200.687 288.104 200.378 288.36C200.069 288.616 199.706 288.819 199.29 288.968C198.874 289.117 198.421 289.192 197.93 289.192ZM204.605 289V280.376H206.061V282.136L205.853 281.864C206.066 281.32 206.408 280.904 206.877 280.616C207.346 280.328 207.874 280.184 208.461 280.184C209.133 280.184 209.736 280.371 210.269 280.744C210.813 281.117 211.186 281.608 211.389 282.216L210.973 282.232C211.197 281.56 211.576 281.053 212.109 280.712C212.642 280.36 213.234 280.184 213.885 280.184C214.482 280.184 215.021 280.323 215.501 280.6C215.992 280.877 216.381 281.261 216.669 281.752C216.957 282.243 217.101 282.797 217.101 283.416V289H215.597V283.896C215.597 283.416 215.512 283.011 215.341 282.68C215.17 282.349 214.936 282.093 214.637 281.912C214.349 281.72 214.008 281.624 213.613 281.624C213.229 281.624 212.882 281.72 212.573 281.912C212.274 282.093 212.034 282.355 211.853 282.696C211.682 283.027 211.597 283.427 211.597 283.896V289H210.093V283.896C210.093 283.416 210.008 283.011 209.837 282.68C209.666 282.349 209.432 282.093 209.133 281.912C208.845 281.72 208.504 281.624 208.109 281.624C207.725 281.624 207.378 281.72 207.069 281.912C206.77 282.093 206.53 282.355 206.349 282.696C206.178 283.027 206.093 283.427 206.093 283.896V289H204.605ZM221.743 289.192C221.177 289.192 220.676 289.091 220.239 288.888C219.812 288.675 219.476 288.387 219.231 288.024C218.985 287.651 218.863 287.224 218.863 286.744C218.863 286.285 218.959 285.875 219.151 285.512C219.353 285.139 219.663 284.824 220.079 284.568C220.505 284.312 221.039 284.131 221.679 284.024L224.879 283.496V284.744L222.015 285.224C221.46 285.32 221.055 285.496 220.799 285.752C220.553 286.008 220.431 286.323 220.431 286.696C220.431 287.048 220.569 287.341 220.847 287.576C221.135 287.811 221.492 287.928 221.919 287.928C222.463 287.928 222.932 287.816 223.327 287.592C223.732 287.357 224.047 287.043 224.271 286.648C224.505 286.253 224.623 285.816 224.623 285.336V283.144C224.623 282.675 224.447 282.296 224.095 282.008C223.753 281.709 223.3 281.56 222.735 281.56C222.244 281.56 221.807 281.688 221.423 281.944C221.049 282.189 220.772 282.52 220.591 282.936L219.295 282.264C219.455 281.869 219.711 281.517 220.062 281.208C220.415 280.888 220.825 280.637 221.295 280.456C221.764 280.275 222.255 280.184 222.766 280.184C223.428 280.184 224.009 280.312 224.511 280.568C225.012 280.813 225.401 281.16 225.679 281.608C225.967 282.045 226.111 282.557 226.111 283.144V289H224.655V287.368L224.927 287.464C224.745 287.805 224.5 288.104 224.191 288.36C223.881 288.616 223.519 288.819 223.103 288.968C222.687 289.117 222.233 289.192 221.743 289.192ZM232.338 289.192C231.527 289.192 230.796 288.995 230.146 288.6C229.506 288.205 228.999 287.667 228.626 286.984C228.252 286.301 228.066 285.539 228.066 284.696C228.066 283.832 228.252 283.064 228.626 282.392C228.999 281.709 229.506 281.171 230.146 280.776C230.796 280.381 231.527 280.184 232.338 280.184C233.052 280.184 233.687 280.339 234.242 280.648C234.796 280.947 235.234 281.352 235.554 281.864L235.314 282.232V276.888H236.818V289H235.362V287.16L235.554 287.416C235.255 287.981 234.818 288.419 234.242 288.728C233.676 289.037 233.042 289.192 232.338 289.192ZM232.466 287.752C233.01 287.752 233.495 287.619 233.922 287.352C234.348 287.085 234.684 286.723 234.93 286.264C235.186 285.795 235.314 285.272 235.314 284.696C235.314 284.109 235.186 283.587 234.93 283.128C234.684 282.659 234.348 282.291 233.922 282.024C233.495 281.757 233.01 281.624 232.466 281.624C231.932 281.624 231.447 281.763 231.01 282.04C230.583 282.307 230.247 282.669 230.002 283.128C229.756 283.576 229.634 284.099 229.634 284.696C229.634 285.272 229.756 285.795 230.002 286.264C230.247 286.723 230.583 287.085 231.01 287.352C231.436 287.619 231.922 287.752 232.466 287.752ZM241.649 289.192C241.083 289.192 240.582 289.091 240.145 288.888C239.718 288.675 239.382 288.387 239.137 288.024C238.891 287.651 238.769 287.224 238.769 286.744C238.769 286.285 238.865 285.875 239.057 285.512C239.259 285.139 239.569 284.824 239.985 284.568C240.411 284.312 240.945 284.131 241.585 284.024L244.785 283.496V284.744L241.921 285.224C241.366 285.32 240.961 285.496 240.705 285.752C240.459 286.008 240.337 286.323 240.337 286.696C240.337 287.048 240.475 287.341 240.753 287.576C241.041 287.811 241.398 287.928 241.825 287.928C242.369 287.928 242.838 287.816 243.233 287.592C243.638 287.357 243.953 287.043 244.177 286.648C244.411 286.253 244.529 285.816 244.529 285.336V283.144C244.529 282.675 244.353 282.296 244.001 282.008C243.659 281.709 243.206 281.56 242.641 281.56C242.15 281.56 241.713 281.688 241.329 281.944C240.955 282.189 240.678 282.52 240.497 282.936L239.201 282.264C239.361 281.869 239.617 281.517 239.969 281.208C240.321 280.888 240.731 280.637 241.201 280.456C241.67 280.275 242.161 280.184 242.673 280.184C243.334 280.184 243.915 280.312 244.417 280.568C244.918 280.813 245.307 281.16 245.585 281.608C245.873 282.045 246.017 282.557 246.017 283.144V289H244.561V287.368L244.833 287.464C244.651 287.805 244.406 288.104 244.097 288.36C243.787 288.616 243.425 288.819 243.009 288.968C242.593 289.117 242.139 289.192 241.649 289.192ZM255.01 289.192C254.199 289.192 253.468 288.995 252.818 288.6C252.178 288.205 251.671 287.667 251.298 286.984C250.924 286.301 250.738 285.539 250.738 284.696C250.738 283.832 250.924 283.064 251.298 282.392C251.671 281.709 252.178 281.171 252.818 280.776C253.468 280.381 254.199 280.184 255.01 280.184C255.724 280.184 256.359 280.339 256.914 280.648C257.468 280.947 257.906 281.352 258.226 281.864L257.986 282.232V276.888H259.49V289H258.034V287.16L258.226 287.416C257.927 287.981 257.49 288.419 256.914 288.728C256.348 289.037 255.714 289.192 255.01 289.192ZM255.138 287.752C255.682 287.752 256.167 287.619 256.594 287.352C257.02 287.085 257.356 286.723 257.602 286.264C257.858 285.795 257.986 285.272 257.986 284.696C257.986 284.109 257.858 283.587 257.602 283.128C257.356 282.659 257.02 282.291 256.594 282.024C256.167 281.757 255.682 281.624 255.138 281.624C254.604 281.624 254.119 281.763 253.682 282.04C253.255 282.307 252.919 282.669 252.674 283.128C252.428 283.576 252.306 284.099 252.306 284.696C252.306 285.272 252.428 285.795 252.674 286.264C252.919 286.723 253.255 287.085 253.682 287.352C254.108 287.619 254.594 287.752 255.138 287.752ZM265.761 289.192C264.929 289.192 264.187 288.995 263.537 288.6C262.886 288.205 262.374 287.667 262.001 286.984C261.627 286.291 261.441 285.517 261.441 284.664C261.441 283.8 261.622 283.032 261.985 282.36C262.358 281.688 262.859 281.16 263.489 280.776C264.129 280.381 264.843 280.184 265.633 280.184C266.273 280.184 266.838 280.301 267.329 280.536C267.83 280.76 268.251 281.069 268.593 281.464C268.945 281.848 269.211 282.291 269.393 282.792C269.585 283.283 269.681 283.795 269.681 284.328C269.681 284.445 269.67 284.579 269.649 284.728C269.638 284.867 269.622 285 269.601 285.128H262.529V283.848H268.737L268.033 284.424C268.129 283.869 268.075 283.373 267.873 282.936C267.67 282.499 267.371 282.152 266.977 281.896C266.582 281.64 266.134 281.512 265.633 281.512C265.131 281.512 264.673 281.64 264.257 281.896C263.841 282.152 263.515 282.52 263.281 283C263.057 283.469 262.966 284.029 263.009 284.68C262.966 285.309 263.062 285.864 263.297 286.344C263.542 286.813 263.883 287.181 264.321 287.448C264.769 287.704 265.254 287.832 265.777 287.832C266.353 287.832 266.838 287.699 267.233 287.432C267.627 287.165 267.947 286.824 268.193 286.408L269.441 287.048C269.27 287.443 269.003 287.805 268.641 288.136C268.289 288.456 267.867 288.712 267.377 288.904C266.897 289.096 266.358 289.192 265.761 289.192ZM276.786 289L273.41 280.376H275.074L277.778 287.672H277.202L279.922 280.376H281.586L278.194 289H276.786ZM282.694 289V280.376H284.182V289H282.694ZM282.694 278.76L283.958 276.232H285.974L284.182 278.76H282.694ZM290.181 289.192C289.371 289.192 288.64 288.995 287.989 288.6C287.349 288.205 286.843 287.667 286.469 286.984C286.096 286.301 285.909 285.539 285.909 284.696C285.909 283.832 286.096 283.064 286.469 282.392C286.843 281.709 287.349 281.171 287.989 280.776C288.64 280.381 289.371 280.184 290.181 280.184C290.896 280.184 291.531 280.339 292.085 280.648C292.64 280.947 293.077 281.352 293.397 281.864L293.157 282.232V276.888H294.661V289H293.205V287.16L293.397 287.416C293.099 287.981 292.661 288.419 292.085 288.728C291.52 289.037 290.885 289.192 290.181 289.192ZM290.309 287.752C290.853 287.752 291.339 287.619 291.765 287.352C292.192 287.085 292.528 286.723 292.773 286.264C293.029 285.795 293.157 285.272 293.157 284.696C293.157 284.109 293.029 283.587 292.773 283.128C292.528 282.659 292.192 282.291 291.765 282.024C291.339 281.757 290.853 281.624 290.309 281.624C289.776 281.624 289.291 281.763 288.853 282.04C288.427 282.307 288.091 282.669 287.845 283.128C287.6 283.576 287.477 284.099 287.477 284.696C287.477 285.272 287.6 285.795 287.845 286.264C288.091 286.723 288.427 287.085 288.853 287.352C289.28 287.619 289.765 287.752 290.309 287.752ZM300.933 289.192C300.101 289.192 299.359 288.995 298.709 288.6C298.058 288.205 297.546 287.667 297.173 286.984C296.799 286.291 296.613 285.517 296.613 284.664C296.613 283.8 296.794 283.032 297.157 282.36C297.53 281.688 298.031 281.16 298.661 280.776C299.301 280.381 300.015 280.184 300.805 280.184C301.445 280.184 302.01 280.301 302.501 280.536C303.002 280.76 303.423 281.069 303.765 281.464C304.117 281.848 304.383 282.291 304.565 282.792C304.757 283.283 304.852 283.795 304.852 284.328C304.852 284.445 304.842 284.579 304.821 284.728C304.81 284.867 304.794 285 304.773 285.128H297.701V283.848H303.909L303.205 284.424C303.301 283.869 303.247 283.373 303.045 282.936C302.842 282.499 302.543 282.152 302.149 281.896C301.754 281.64 301.306 281.512 300.805 281.512C300.303 281.512 299.845 281.64 299.429 281.896C299.013 282.152 298.687 282.52 298.453 283C298.229 283.469 298.138 284.029 298.181 284.68C298.138 285.309 298.234 285.864 298.469 286.344C298.714 286.813 299.055 287.181 299.493 287.448C299.941 287.704 300.426 287.832 300.949 287.832C301.525 287.832 302.01 287.699 302.405 287.432C302.799 287.165 303.119 286.824 303.365 286.408L304.613 287.048C304.442 287.443 304.175 287.805 303.812 288.136C303.461 288.456 303.039 288.712 302.549 288.904C302.069 289.096 301.53 289.192 300.933 289.192ZM310.889 289.192C310.057 289.192 309.305 289 308.633 288.616C307.961 288.221 307.427 287.683 307.033 287C306.638 286.317 306.441 285.544 306.441 284.68C306.441 283.816 306.633 283.048 307.017 282.376C307.411 281.704 307.945 281.171 308.617 280.776C309.289 280.381 310.046 280.184 310.889 280.184C311.721 280.184 312.473 280.381 313.145 280.776C313.817 281.16 314.345 281.688 314.729 282.36C315.123 283.032 315.321 283.805 315.321 284.68C315.321 285.555 315.118 286.333 314.713 287.016C314.307 287.688 313.769 288.221 313.097 288.616C312.435 289 311.699 289.192 310.889 289.192ZM310.889 287.752C311.422 287.752 311.902 287.619 312.329 287.352C312.766 287.085 313.107 286.717 313.353 286.248C313.609 285.779 313.737 285.256 313.737 284.68C313.737 284.093 313.609 283.576 313.353 283.128C313.107 282.669 312.766 282.307 312.329 282.04C311.902 281.763 311.422 281.624 310.889 281.624C310.345 281.624 309.854 281.763 309.417 282.04C308.99 282.307 308.649 282.669 308.393 283.128C308.137 283.576 308.009 284.093 308.009 284.68C308.009 285.256 308.137 285.779 308.393 286.248C308.649 286.717 308.99 287.085 309.417 287.352C309.854 287.619 310.345 287.752 310.889 287.752Z" fill="#212528"/>
</g>
<path d="M245.5 186C245.5 185.448 245.052 185 244.5 185C243.948 185 243.5 185.448 243.5 186H245.5ZM243.793 260.707C244.183 261.098 244.817 261.098 245.207 260.707L251.571 254.343C251.962 253.953 251.962 253.319 251.571 252.929C251.181 252.538 250.547 252.538 250.157 252.929L244.5 258.586L238.843 252.929C238.453 252.538 237.819 252.538 237.429 252.929C237.038 253.319 237.038 253.953 237.429 254.343L243.793 260.707ZM243.5 186V260H245.5V186H243.5Z" fill="#B3B3B3"/>
<g filter="url(#filter2_d_6423_12786)">
<rect x="125" y="40" width="159" height="36" rx="18" fill="white" shape-rendering="crispEdges"/>
<path d="M147.816 65.192C146.973 65.192 146.195 65.0427 145.48 64.744C144.776 64.4347 144.157 64.0027 143.624 63.448C143.101 62.8933 142.696 62.2427 142.408 61.496C142.12 60.7493 141.976 59.9333 141.976 59.048C141.976 58.152 142.12 57.3307 142.408 56.584C142.696 55.8373 143.101 55.1867 143.624 54.632C144.147 54.0773 144.765 53.6507 145.48 53.352C146.195 53.0427 146.973 52.888 147.816 52.888C148.637 52.888 149.373 53.032 150.024 53.32C150.685 53.608 151.24 53.9813 151.688 54.44C152.147 54.8987 152.472 55.3893 152.664 55.912L151.224 56.568C150.947 55.9067 150.515 55.3733 149.928 54.968C149.341 54.552 148.637 54.344 147.816 54.344C146.984 54.344 146.243 54.5413 145.592 54.936C144.952 55.3307 144.451 55.88 144.088 56.584C143.725 57.288 143.544 58.1093 143.544 59.048C143.544 59.976 143.725 60.792 144.088 61.496C144.451 62.2 144.952 62.7493 145.592 63.144C146.243 63.5387 146.984 63.736 147.816 63.736C148.637 63.736 149.341 63.5333 149.928 63.128C150.515 62.712 150.947 62.1733 151.224 61.512L152.664 62.168C152.472 62.6907 152.147 63.1813 151.688 63.64C151.24 64.0987 150.685 64.472 150.024 64.76C149.373 65.048 148.637 65.192 147.816 65.192ZM154.621 65V52.888H156.109V58.056L155.837 57.912C156.05 57.368 156.391 56.9467 156.861 56.648C157.341 56.3387 157.901 56.184 158.541 56.184C159.159 56.184 159.709 56.3227 160.189 56.6C160.679 56.8773 161.063 57.2613 161.341 57.752C161.629 58.2427 161.773 58.7973 161.773 59.416V65H160.269V59.896C160.269 59.416 160.178 59.0107 159.997 58.68C159.826 58.3493 159.586 58.0933 159.277 57.912C158.967 57.72 158.61 57.624 158.205 57.624C157.81 57.624 157.453 57.72 157.133 57.912C156.813 58.0933 156.562 58.3547 156.381 58.696C156.199 59.0267 156.109 59.4267 156.109 59.896V65H154.621ZM166.43 65.192C165.865 65.192 165.363 65.0907 164.926 64.888C164.499 64.6747 164.163 64.3867 163.918 64.024C163.673 63.6507 163.55 63.224 163.55 62.744C163.55 62.2853 163.646 61.8747 163.838 61.512C164.041 61.1387 164.35 60.824 164.766 60.568C165.193 60.312 165.726 60.1307 166.366 60.024L169.566 59.496V60.744L166.702 61.224C166.147 61.32 165.742 61.496 165.486 61.752C165.241 62.008 165.118 62.3227 165.118 62.696C165.118 63.048 165.257 63.3413 165.534 63.576C165.822 63.8107 166.179 63.928 166.606 63.928C167.15 63.928 167.619 63.816 168.014 63.592C168.419 63.3573 168.734 63.0427 168.958 62.648C169.193 62.2533 169.31 61.816 169.31 61.336V59.144C169.31 58.6747 169.134 58.296 168.782 58.008C168.441 57.7093 167.987 57.56 167.422 57.56C166.931 57.56 166.494 57.688 166.11 57.944C165.737 58.1893 165.459 58.52 165.278 58.936L163.982 58.264C164.142 57.8693 164.398 57.5173 164.75 57.208C165.102 56.888 165.513 56.6373 165.982 56.456C166.451 56.2747 166.942 56.184 167.454 56.184C168.115 56.184 168.697 56.312 169.198 56.568C169.699 56.8133 170.089 57.16 170.366 57.608C170.654 58.0453 170.798 58.5573 170.798 59.144V65H169.342V63.368L169.614 63.464C169.433 63.8053 169.187 64.104 168.878 64.36C168.569 64.616 168.206 64.8187 167.79 64.968C167.374 65.1173 166.921 65.192 166.43 65.192ZM173.105 65V56.376H174.561V58.136L174.353 57.864C174.566 57.32 174.908 56.904 175.377 56.616C175.846 56.328 176.374 56.184 176.961 56.184C177.633 56.184 178.236 56.3707 178.769 56.744C179.313 57.1173 179.686 57.608 179.889 58.216L179.473 58.232C179.697 57.56 180.076 57.0533 180.609 56.712C181.142 56.36 181.734 56.184 182.385 56.184C182.982 56.184 183.521 56.3227 184.001 56.6C184.492 56.8773 184.881 57.2613 185.169 57.752C185.457 58.2427 185.601 58.7973 185.601 59.416V65H184.097V59.896C184.097 59.416 184.012 59.0107 183.841 58.68C183.67 58.3493 183.436 58.0933 183.137 57.912C182.849 57.72 182.508 57.624 182.113 57.624C181.729 57.624 181.382 57.72 181.073 57.912C180.774 58.0933 180.534 58.3547 180.353 58.696C180.182 59.0267 180.097 59.4267 180.097 59.896V65H178.593V59.896C178.593 59.416 178.508 59.0107 178.337 58.68C178.166 58.3493 177.932 58.0933 177.633 57.912C177.345 57.72 177.004 57.624 176.609 57.624C176.225 57.624 175.878 57.72 175.569 57.912C175.27 58.0933 175.03 58.3547 174.849 58.696C174.678 59.0267 174.593 59.4267 174.593 59.896V65H173.105ZM190.243 65.192C189.677 65.192 189.176 65.0907 188.739 64.888C188.312 64.6747 187.976 64.3867 187.731 64.024C187.485 63.6507 187.363 63.224 187.363 62.744C187.363 62.2853 187.459 61.8747 187.651 61.512C187.853 61.1387 188.163 60.824 188.579 60.568C189.005 60.312 189.539 60.1307 190.179 60.024L193.379 59.496V60.744L190.515 61.224C189.96 61.32 189.555 61.496 189.299 61.752C189.053 62.008 188.931 62.3227 188.931 62.696C188.931 63.048 189.069 63.3413 189.347 63.576C189.635 63.8107 189.992 63.928 190.419 63.928C190.963 63.928 191.432 63.816 191.827 63.592C192.232 63.3573 192.547 63.0427 192.771 62.648C193.005 62.2533 193.123 61.816 193.123 61.336V59.144C193.123 58.6747 192.947 58.296 192.595 58.008C192.253 57.7093 191.8 57.56 191.235 57.56C190.744 57.56 190.307 57.688 189.923 57.944C189.549 58.1893 189.272 58.52 189.091 58.936L187.795 58.264C187.955 57.8693 188.211 57.5173 188.562 57.208C188.915 56.888 189.325 56.6373 189.795 56.456C190.264 56.2747 190.755 56.184 191.266 56.184C191.928 56.184 192.509 56.312 193.011 56.568C193.512 56.8133 193.901 57.16 194.179 57.608C194.467 58.0453 194.611 58.5573 194.611 59.144V65H193.155V63.368L193.427 63.464C193.245 63.8053 193 64.104 192.691 64.36C192.381 64.616 192.019 64.8187 191.603 64.968C191.187 65.1173 190.733 65.192 190.243 65.192ZM200.838 65.192C200.027 65.192 199.296 64.9947 198.646 64.6C198.006 64.2053 197.499 63.6667 197.126 62.984C196.752 62.3013 196.566 61.5387 196.566 60.696C196.566 59.832 196.752 59.064 197.126 58.392C197.499 57.7093 198.006 57.1707 198.646 56.776C199.296 56.3813 200.027 56.184 200.838 56.184C201.552 56.184 202.187 56.3387 202.742 56.648C203.296 56.9467 203.734 57.352 204.054 57.864L203.814 58.232V52.888H205.318V65H203.862V63.16L204.054 63.416C203.755 63.9813 203.318 64.4187 202.742 64.728C202.176 65.0373 201.542 65.192 200.838 65.192ZM200.966 63.752C201.51 63.752 201.995 63.6187 202.422 63.352C202.848 63.0853 203.184 62.7227 203.43 62.264C203.686 61.7947 203.814 61.272 203.814 60.696C203.814 60.1093 203.686 59.5867 203.43 59.128C203.184 58.6587 202.848 58.2907 202.422 58.024C201.995 57.7573 201.51 57.624 200.966 57.624C200.432 57.624 199.947 57.7627 199.51 58.04C199.083 58.3067 198.747 58.6693 198.502 59.128C198.256 59.576 198.134 60.0987 198.134 60.696C198.134 61.272 198.256 61.7947 198.502 62.264C198.747 62.7227 199.083 63.0853 199.51 63.352C199.936 63.6187 200.422 63.752 200.966 63.752ZM210.149 65.192C209.583 65.192 209.082 65.0907 208.645 64.888C208.218 64.6747 207.882 64.3867 207.637 64.024C207.391 63.6507 207.269 63.224 207.269 62.744C207.269 62.2853 207.365 61.8747 207.557 61.512C207.759 61.1387 208.069 60.824 208.485 60.568C208.911 60.312 209.445 60.1307 210.085 60.024L213.285 59.496V60.744L210.421 61.224C209.866 61.32 209.461 61.496 209.205 61.752C208.959 62.008 208.837 62.3227 208.837 62.696C208.837 63.048 208.975 63.3413 209.253 63.576C209.541 63.8107 209.898 63.928 210.325 63.928C210.869 63.928 211.338 63.816 211.733 63.592C212.138 63.3573 212.453 63.0427 212.677 62.648C212.911 62.2533 213.029 61.816 213.029 61.336V59.144C213.029 58.6747 212.853 58.296 212.501 58.008C212.159 57.7093 211.706 57.56 211.141 57.56C210.65 57.56 210.213 57.688 209.829 57.944C209.455 58.1893 209.178 58.52 208.997 58.936L207.701 58.264C207.861 57.8693 208.117 57.5173 208.469 57.208C208.821 56.888 209.231 56.6373 209.701 56.456C210.17 56.2747 210.661 56.184 211.173 56.184C211.834 56.184 212.415 56.312 212.917 56.568C213.418 56.8133 213.807 57.16 214.085 57.608C214.373 58.0453 214.517 58.5573 214.517 59.144V65H213.061V63.368L213.333 63.464C213.151 63.8053 212.906 64.104 212.597 64.36C212.287 64.616 211.925 64.8187 211.509 64.968C211.093 65.1173 210.639 65.192 210.149 65.192ZM223.51 65.192C222.699 65.192 221.968 64.9947 221.318 64.6C220.678 64.2053 220.171 63.6667 219.798 62.984C219.424 62.3013 219.238 61.5387 219.238 60.696C219.238 59.832 219.424 59.064 219.798 58.392C220.171 57.7093 220.678 57.1707 221.318 56.776C221.968 56.3813 222.699 56.184 223.51 56.184C224.224 56.184 224.859 56.3387 225.414 56.648C225.968 56.9467 226.406 57.352 226.726 57.864L226.486 58.232V52.888H227.99V65H226.534V63.16L226.726 63.416C226.427 63.9813 225.99 64.4187 225.414 64.728C224.848 65.0373 224.214 65.192 223.51 65.192ZM223.638 63.752C224.182 63.752 224.667 63.6187 225.094 63.352C225.52 63.0853 225.856 62.7227 226.102 62.264C226.358 61.7947 226.486 61.272 226.486 60.696C226.486 60.1093 226.358 59.5867 226.102 59.128C225.856 58.6587 225.52 58.2907 225.094 58.024C224.667 57.7573 224.182 57.624 223.638 57.624C223.104 57.624 222.619 57.7627 222.182 58.04C221.755 58.3067 221.419 58.6693 221.174 59.128C220.928 59.576 220.806 60.0987 220.806 60.696C220.806 61.272 220.928 61.7947 221.174 62.264C221.419 62.7227 221.755 63.0853 222.182 63.352C222.608 63.6187 223.094 63.752 223.638 63.752ZM234.261 65.192C233.429 65.192 232.687 64.9947 232.037 64.6C231.386 64.2053 230.874 63.6667 230.501 62.984C230.127 62.2907 229.941 61.5173 229.941 60.664C229.941 59.8 230.122 59.032 230.485 58.36C230.858 57.688 231.359 57.16 231.989 56.776C232.629 56.3813 233.343 56.184 234.133 56.184C234.773 56.184 235.338 56.3013 235.829 56.536C236.33 56.76 236.751 57.0693 237.093 57.464C237.445 57.848 237.711 58.2907 237.893 58.792C238.085 59.2827 238.181 59.7947 238.181 60.328C238.181 60.4453 238.17 60.5787 238.149 60.728C238.138 60.8667 238.122 61 238.101 61.128H231.029V59.848H237.237L236.533 60.424C236.629 59.8693 236.575 59.3733 236.373 58.936C236.17 58.4987 235.871 58.152 235.477 57.896C235.082 57.64 234.634 57.512 234.133 57.512C233.631 57.512 233.173 57.64 232.757 57.896C232.341 58.152 232.015 58.52 231.781 59C231.557 59.4693 231.466 60.0293 231.509 60.68C231.466 61.3093 231.562 61.864 231.797 62.344C232.042 62.8133 232.383 63.1813 232.821 63.448C233.269 63.704 233.754 63.832 234.277 63.832C234.853 63.832 235.338 63.6987 235.733 63.432C236.127 63.1653 236.447 62.824 236.693 62.408L237.941 63.048C237.77 63.4427 237.503 63.8053 237.141 64.136C236.789 64.456 236.367 64.712 235.877 64.904C235.397 65.096 234.858 65.192 234.261 65.192ZM245.286 65L241.91 56.376H243.574L246.278 63.672H245.702L248.422 56.376H250.086L246.694 65H245.286ZM255.357 65.192C254.525 65.192 253.773 65 253.101 64.616C252.429 64.2213 251.896 63.6827 251.501 63C251.107 62.3173 250.909 61.544 250.909 60.68C250.909 59.816 251.101 59.048 251.485 58.376C251.88 57.704 252.413 57.1707 253.085 56.776C253.757 56.3813 254.515 56.184 255.357 56.184C256.189 56.184 256.941 56.3813 257.613 56.776C258.285 57.16 258.813 57.688 259.197 58.36C259.592 59.032 259.789 59.8053 259.789 60.68C259.789 61.5547 259.587 62.3333 259.181 63.016C258.776 63.688 258.237 64.2213 257.565 64.616C256.904 65 256.168 65.192 255.357 65.192ZM255.357 63.752C255.891 63.752 256.371 63.6187 256.797 63.352C257.235 63.0853 257.576 62.7173 257.821 62.248C258.077 61.7787 258.205 61.256 258.205 60.68C258.205 60.0933 258.077 59.576 257.821 59.128C257.576 58.6693 257.235 58.3067 256.797 58.04C256.371 57.7627 255.891 57.624 255.357 57.624C254.813 57.624 254.323 57.7627 253.885 58.04C253.459 58.3067 253.117 58.6693 252.861 59.128C252.605 59.576 252.477 60.0933 252.477 60.68C252.477 61.256 252.605 61.7787 252.861 62.248C253.117 62.7173 253.459 63.0853 253.885 63.352C254.323 63.6187 254.813 63.752 255.357 63.752ZM260.882 65V63.736L266.018 57.256L266.274 57.8H261.138V56.376H267.602V57.64L262.514 64.136L262.258 63.576H267.634V65H260.882Z" fill="#212528"/>
</g>
<path d="M203.5 142C203.5 142.552 203.948 143 204.5 143C205.052 143 205.5 142.552 205.5 142H203.5ZM205.207 79.2929C204.817 78.9024 204.183 78.9024 203.793 79.2929L197.429 85.6569C197.038 86.0474 197.038 86.6805 197.429 87.0711C197.819 87.4616 198.453 87.4616 198.843 87.0711L204.5 81.4142L210.157 87.0711C210.547 87.4616 211.181 87.4616 211.571 87.0711C211.962 86.6805 211.962 86.0474 211.571 85.6569L205.207 79.2929ZM205.5 142V80H203.5V142H205.5Z" fill="#B3B3B3"/>
<g filter="url(#filter3_d_6423_12786)">
<rect x="325.5" y="136" width="169" height="56" rx="24" fill="white" shape-rendering="crispEdges"/>
<path d="M342.589 161.192C341.747 161.192 340.968 161.043 340.253 160.744C339.549 160.435 338.931 160.003 338.397 159.448C337.875 158.893 337.469 158.243 337.181 157.496C336.893 156.749 336.749 155.933 336.749 155.048C336.749 154.152 336.893 153.331 337.181 152.584C337.469 151.837 337.875 151.187 338.397 150.632C338.92 150.077 339.539 149.651 340.253 149.352C340.968 149.043 341.747 148.888 342.589 148.888C343.411 148.888 344.147 149.032 344.797 149.32C345.459 149.608 346.013 149.981 346.461 150.44C346.92 150.899 347.245 151.389 347.437 151.912L345.997 152.568C345.72 151.907 345.288 151.373 344.701 150.968C344.115 150.552 343.411 150.344 342.589 150.344C341.757 150.344 341.016 150.541 340.365 150.936C339.725 151.331 339.224 151.88 338.861 152.584C338.499 153.288 338.317 154.109 338.317 155.048C338.317 155.976 338.499 156.792 338.861 157.496C339.224 158.2 339.725 158.749 340.365 159.144C341.016 159.539 341.757 159.736 342.589 159.736C343.411 159.736 344.115 159.533 344.701 159.128C345.288 158.712 345.72 158.173 345.997 157.512L347.437 158.168C347.245 158.691 346.92 159.181 346.461 159.64C346.013 160.099 345.459 160.472 344.797 160.76C344.147 161.048 343.411 161.192 342.589 161.192ZM353.334 161.192C352.502 161.192 351.75 161 351.078 160.616C350.406 160.221 349.873 159.683 349.478 159C349.083 158.317 348.886 157.544 348.886 156.68C348.886 155.816 349.078 155.048 349.462 154.376C349.857 153.704 350.39 153.171 351.062 152.776C351.734 152.381 352.491 152.184 353.334 152.184C354.166 152.184 354.918 152.381 355.59 152.776C356.262 153.16 356.79 153.688 357.174 154.36C357.569 155.032 357.766 155.805 357.766 156.68C357.766 157.555 357.563 158.333 357.158 159.016C356.753 159.688 356.214 160.221 355.542 160.616C354.881 161 354.145 161.192 353.334 161.192ZM353.334 159.752C353.867 159.752 354.347 159.619 354.774 159.352C355.211 159.085 355.553 158.717 355.798 158.248C356.054 157.779 356.182 157.256 356.182 156.68C356.182 156.093 356.054 155.576 355.798 155.128C355.553 154.669 355.211 154.307 354.774 154.04C354.347 153.763 353.867 153.624 353.334 153.624C352.79 153.624 352.299 153.763 351.862 154.04C351.435 154.307 351.094 154.669 350.838 155.128C350.582 155.576 350.454 156.093 350.454 156.68C350.454 157.256 350.582 157.779 350.838 158.248C351.094 158.717 351.435 159.085 351.862 159.352C352.299 159.619 352.79 159.752 353.334 159.752ZM359.707 161V152.376H361.163V154.136L360.955 153.864C361.168 153.32 361.509 152.904 361.979 152.616C362.448 152.328 362.976 152.184 363.563 152.184C364.235 152.184 364.837 152.371 365.371 152.744C365.915 153.117 366.288 153.608 366.491 154.216L366.075 154.232C366.299 153.56 366.677 153.053 367.211 152.712C367.744 152.36 368.336 152.184 368.987 152.184C369.584 152.184 370.123 152.323 370.603 152.6C371.093 152.877 371.483 153.261 371.771 153.752C372.059 154.243 372.203 154.797 372.203 155.416V161H370.699V155.896C370.699 155.416 370.613 155.011 370.443 154.68C370.272 154.349 370.037 154.093 369.739 153.912C369.451 153.72 369.109 153.624 368.715 153.624C368.331 153.624 367.984 153.72 367.675 153.912C367.376 154.093 367.136 154.355 366.955 154.696C366.784 155.027 366.699 155.427 366.699 155.896V161H365.195V155.896C365.195 155.416 365.109 155.011 364.939 154.68C364.768 154.349 364.533 154.093 364.235 153.912C363.947 153.72 363.605 153.624 363.211 153.624C362.827 153.624 362.48 153.72 362.171 153.912C361.872 154.093 361.632 154.355 361.451 154.696C361.28 155.027 361.195 155.427 361.195 155.896V161H359.707ZM374.316 164.2V152.376H375.772V154.232L375.58 153.864C375.9 153.352 376.337 152.947 376.892 152.648C377.447 152.339 378.081 152.184 378.796 152.184C379.607 152.184 380.332 152.381 380.972 152.776C381.623 153.171 382.135 153.709 382.508 154.392C382.881 155.064 383.068 155.832 383.068 156.696C383.068 157.539 382.881 158.301 382.508 158.984C382.135 159.667 381.623 160.205 380.972 160.6C380.332 160.995 379.601 161.192 378.78 161.192C378.087 161.192 377.452 161.037 376.876 160.728C376.311 160.419 375.873 159.981 375.564 159.416L375.804 159.16V164.2H374.316ZM378.668 159.752C379.212 159.752 379.697 159.619 380.124 159.352C380.551 159.085 380.881 158.723 381.116 158.264C381.361 157.795 381.484 157.272 381.484 156.696C381.484 156.099 381.361 155.576 381.116 155.128C380.881 154.669 380.551 154.307 380.124 154.04C379.697 153.763 379.212 153.624 378.668 153.624C378.124 153.624 377.633 153.757 377.196 154.024C376.769 154.291 376.428 154.659 376.172 155.128C375.927 155.587 375.804 156.109 375.804 156.696C375.804 157.272 375.927 157.795 376.172 158.264C376.428 158.723 376.769 159.085 377.196 159.352C377.633 159.619 378.124 159.752 378.668 159.752ZM387.547 161.192C386.982 161.192 386.481 161.091 386.043 160.888C385.617 160.675 385.281 160.387 385.035 160.024C384.79 159.651 384.667 159.224 384.667 158.744C384.667 158.285 384.763 157.875 384.955 157.512C385.158 157.139 385.467 156.824 385.883 156.568C386.31 156.312 386.843 156.131 387.483 156.024L390.683 155.496V156.744L387.819 157.224C387.265 157.32 386.859 157.496 386.603 157.752C386.358 158.008 386.235 158.323 386.235 158.696C386.235 159.048 386.374 159.341 386.651 159.576C386.939 159.811 387.297 159.928 387.723 159.928C388.267 159.928 388.737 159.816 389.131 159.592C389.537 159.357 389.851 159.043 390.075 158.648C390.31 158.253 390.427 157.816 390.427 157.336V155.144C390.427 154.675 390.251 154.296 389.899 154.008C389.558 153.709 389.105 153.56 388.539 153.56C388.049 153.56 387.611 153.688 387.227 153.944C386.854 154.189 386.577 154.52 386.395 154.936L385.099 154.264C385.259 153.869 385.515 153.517 385.867 153.208C386.219 152.888 386.63 152.637 387.099 152.456C387.569 152.275 388.059 152.184 388.571 152.184C389.233 152.184 389.814 152.312 390.315 152.568C390.817 152.813 391.206 153.16 391.483 153.608C391.771 154.045 391.915 154.557 391.915 155.144V161H390.459V159.368L390.731 159.464C390.55 159.805 390.305 160.104 389.995 160.36C389.686 160.616 389.323 160.819 388.907 160.968C388.491 161.117 388.038 161.192 387.547 161.192ZM394.222 161V152.376H395.678V153.96L395.518 153.736C395.721 153.245 396.03 152.883 396.446 152.648C396.862 152.403 397.369 152.28 397.966 152.28H398.494V153.688H397.742C397.134 153.688 396.644 153.88 396.27 154.264C395.897 154.637 395.71 155.171 395.71 155.864V161H394.222ZM403.398 161.096C402.556 161.096 401.905 160.856 401.446 160.376C400.998 159.896 400.774 159.219 400.774 158.344V153.8H399.206V152.376H399.526C399.91 152.376 400.214 152.259 400.438 152.024C400.662 151.789 400.774 151.48 400.774 151.096V150.392H402.262V152.376H404.198V153.8H402.262V158.296C402.262 158.584 402.305 158.835 402.39 159.048C402.486 159.261 402.641 159.432 402.854 159.56C403.068 159.677 403.35 159.736 403.702 159.736C403.777 159.736 403.868 159.731 403.974 159.72C404.092 159.709 404.198 159.699 404.294 159.688V161C404.156 161.032 404.001 161.053 403.83 161.064C403.66 161.085 403.516 161.096 403.398 161.096ZM406.238 161V152.376H407.726V161H406.238ZM406.238 151V149.08H407.726V151H406.238ZM410.035 161V148.888H411.523V161H410.035ZM413.832 161V148.888H415.32V154.056L415.048 153.912C415.261 153.368 415.602 152.947 416.072 152.648C416.552 152.339 417.112 152.184 417.752 152.184C418.37 152.184 418.92 152.323 419.4 152.6C419.89 152.877 420.274 153.261 420.552 153.752C420.84 154.243 420.984 154.797 420.984 155.416V161H419.48V155.896C419.48 155.416 419.389 155.011 419.208 154.68C419.037 154.349 418.797 154.093 418.488 153.912C418.178 153.72 417.821 153.624 417.416 153.624C417.021 153.624 416.664 153.72 416.344 153.912C416.024 154.093 415.773 154.355 415.592 154.696C415.41 155.027 415.32 155.427 415.32 155.896V161H413.832ZM425.641 161.192C425.076 161.192 424.574 161.091 424.137 160.888C423.71 160.675 423.374 160.387 423.129 160.024C422.884 159.651 422.761 159.224 422.761 158.744C422.761 158.285 422.857 157.875 423.049 157.512C423.252 157.139 423.561 156.824 423.977 156.568C424.404 156.312 424.937 156.131 425.577 156.024L428.777 155.496V156.744L425.913 157.224C425.358 157.32 424.953 157.496 424.697 157.752C424.452 158.008 424.329 158.323 424.329 158.696C424.329 159.048 424.468 159.341 424.745 159.576C425.033 159.811 425.39 159.928 425.817 159.928C426.361 159.928 426.83 159.816 427.225 159.592C427.63 159.357 427.945 159.043 428.169 158.648C428.404 158.253 428.521 157.816 428.521 157.336V155.144C428.521 154.675 428.345 154.296 427.993 154.008C427.652 153.709 427.198 153.56 426.633 153.56C426.142 153.56 425.705 153.688 425.321 153.944C424.948 154.189 424.67 154.52 424.489 154.936L423.193 154.264C423.353 153.869 423.609 153.517 423.961 153.208C424.313 152.888 424.724 152.637 425.193 152.456C425.662 152.275 426.153 152.184 426.665 152.184C427.326 152.184 427.908 152.312 428.409 152.568C428.91 152.813 429.3 153.16 429.577 153.608C429.865 154.045 430.009 154.557 430.009 155.144V161H428.553V159.368L428.825 159.464C428.644 159.805 428.398 160.104 428.089 160.36C427.78 160.616 427.417 160.819 427.001 160.968C426.585 161.117 426.132 161.192 425.641 161.192ZM432.316 161V152.376H433.772V154.136L433.564 153.864C433.777 153.32 434.119 152.904 434.588 152.616C435.057 152.328 435.585 152.184 436.172 152.184C436.844 152.184 437.447 152.371 437.98 152.744C438.524 153.117 438.897 153.608 439.1 154.216L438.684 154.232C438.908 153.56 439.287 153.053 439.82 152.712C440.353 152.36 440.945 152.184 441.596 152.184C442.193 152.184 442.732 152.323 443.212 152.6C443.703 152.877 444.092 153.261 444.38 153.752C444.668 154.243 444.812 154.797 444.812 155.416V161H443.308V155.896C443.308 155.416 443.223 155.011 443.052 154.68C442.881 154.349 442.647 154.093 442.348 153.912C442.06 153.72 441.719 153.624 441.324 153.624C440.94 153.624 440.593 153.72 440.284 153.912C439.985 154.093 439.745 154.355 439.564 154.696C439.393 155.027 439.308 155.427 439.308 155.896V161H437.804V155.896C437.804 155.416 437.719 155.011 437.548 154.68C437.377 154.349 437.143 154.093 436.844 153.912C436.556 153.72 436.215 153.624 435.82 153.624C435.436 153.624 435.089 153.72 434.78 153.912C434.481 154.093 434.241 154.355 434.06 154.696C433.889 155.027 433.804 155.427 433.804 155.896V161H432.316ZM450.893 161.192C450.061 161.192 449.32 160.995 448.669 160.6C448.019 160.205 447.507 159.667 447.133 158.984C446.76 158.291 446.573 157.517 446.573 156.664C446.573 155.8 446.755 155.032 447.117 154.36C447.491 153.688 447.992 153.16 448.621 152.776C449.261 152.381 449.976 152.184 450.765 152.184C451.405 152.184 451.971 152.301 452.461 152.536C452.963 152.76 453.384 153.069 453.725 153.464C454.077 153.848 454.344 154.291 454.525 154.792C454.717 155.283 454.813 155.795 454.813 156.328C454.813 156.445 454.803 156.579 454.781 156.728C454.771 156.867 454.755 157 454.733 157.128H447.661V155.848H453.869L453.165 156.424C453.261 155.869 453.208 155.373 453.005 154.936C452.803 154.499 452.504 154.152 452.109 153.896C451.715 153.64 451.267 153.512 450.765 153.512C450.264 153.512 449.805 153.64 449.389 153.896C448.973 154.152 448.648 154.52 448.413 155C448.189 155.469 448.099 156.029 448.141 156.68C448.099 157.309 448.195 157.864 448.429 158.344C448.675 158.813 449.016 159.181 449.453 159.448C449.901 159.704 450.387 159.832 450.909 159.832C451.485 159.832 451.971 159.699 452.365 159.432C452.76 159.165 453.08 158.824 453.325 158.408L454.573 159.048C454.403 159.443 454.136 159.805 453.773 160.136C453.421 160.456 453 160.712 452.509 160.904C452.029 161.096 451.491 161.192 450.893 161.192ZM456.754 161V152.376H458.21V154.056L457.97 153.912C458.183 153.368 458.524 152.947 458.994 152.648C459.474 152.339 460.034 152.184 460.674 152.184C461.292 152.184 461.842 152.323 462.322 152.6C462.812 152.877 463.196 153.261 463.474 153.752C463.762 154.243 463.906 154.797 463.906 155.416V161H462.402V155.896C462.402 155.416 462.316 155.011 462.146 154.68C461.975 154.349 461.73 154.093 461.41 153.912C461.1 153.72 460.743 153.624 460.338 153.624C459.932 153.624 459.57 153.72 459.25 153.912C458.94 154.093 458.695 154.355 458.514 154.696C458.332 155.027 458.242 155.427 458.242 155.896V161H456.754ZM469.539 161.096C468.696 161.096 468.045 160.856 467.587 160.376C467.139 159.896 466.915 159.219 466.915 158.344V153.8H465.347V152.376H465.667C466.051 152.376 466.355 152.259 466.579 152.024C466.803 151.789 466.915 151.48 466.915 151.096V150.392H468.403V152.376H470.339V153.8H468.403V158.296C468.403 158.584 468.445 158.835 468.531 159.048C468.627 159.261 468.781 159.432 468.995 159.56C469.208 159.677 469.491 159.736 469.843 159.736C469.917 159.736 470.008 159.731 470.115 159.72C470.232 159.709 470.339 159.699 470.435 159.688V161C470.296 161.032 470.141 161.053 469.971 161.064C469.8 161.085 469.656 161.096 469.539 161.096ZM476.24 161.192C475.408 161.192 474.656 161 473.984 160.616C473.312 160.221 472.779 159.683 472.384 159C471.99 158.317 471.792 157.544 471.792 156.68C471.792 155.816 471.984 155.048 472.368 154.376C472.763 153.704 473.296 153.171 473.968 152.776C474.64 152.381 475.398 152.184 476.24 152.184C477.072 152.184 477.824 152.381 478.496 152.776C479.168 153.16 479.696 153.688 480.08 154.36C480.475 155.032 480.672 155.805 480.672 156.68C480.672 157.555 480.47 158.333 480.064 159.016C479.659 159.688 479.12 160.221 478.448 160.616C477.787 161 477.051 161.192 476.24 161.192ZM476.24 159.752C476.774 159.752 477.254 159.619 477.68 159.352C478.118 159.085 478.459 158.717 478.704 158.248C478.96 157.779 479.088 157.256 479.088 156.68C479.088 156.093 478.96 155.576 478.704 155.128C478.459 154.669 478.118 154.307 477.68 154.04C477.254 153.763 476.774 153.624 476.24 153.624C475.696 153.624 475.206 153.763 474.768 154.04C474.342 154.307 474 154.669 473.744 155.128C473.488 155.576 473.36 156.093 473.36 156.68C473.36 157.256 473.488 157.779 473.744 158.248C474 158.717 474.342 159.085 474.768 159.352C475.206 159.619 475.696 159.752 476.24 159.752ZM388.955 181.192C388.144 181.192 387.413 180.995 386.763 180.6C386.123 180.205 385.616 179.667 385.243 178.984C384.869 178.301 384.683 177.539 384.683 176.696C384.683 175.832 384.869 175.064 385.243 174.392C385.616 173.709 386.123 173.171 386.763 172.776C387.413 172.381 388.144 172.184 388.955 172.184C389.669 172.184 390.304 172.339 390.859 172.648C391.413 172.947 391.851 173.352 392.171 173.864L391.931 174.232V168.888H393.435V181H391.979V179.16L392.171 179.416C391.872 179.981 391.435 180.419 390.859 180.728C390.293 181.037 389.659 181.192 388.955 181.192ZM389.083 179.752C389.627 179.752 390.112 179.619 390.539 179.352C390.965 179.085 391.301 178.723 391.547 178.264C391.803 177.795 391.931 177.272 391.931 176.696C391.931 176.109 391.803 175.587 391.547 175.128C391.301 174.659 390.965 174.291 390.539 174.024C390.112 173.757 389.627 173.624 389.083 173.624C388.549 173.624 388.064 173.763 387.627 174.04C387.2 174.307 386.864 174.669 386.619 175.128C386.373 175.576 386.251 176.099 386.251 176.696C386.251 177.272 386.373 177.795 386.619 178.264C386.864 178.723 387.2 179.085 387.627 179.352C388.053 179.619 388.539 179.752 389.083 179.752ZM399.706 181.192C398.874 181.192 398.133 180.995 397.482 180.6C396.831 180.205 396.319 179.667 395.946 178.984C395.573 178.291 395.386 177.517 395.386 176.664C395.386 175.8 395.567 175.032 395.93 174.36C396.303 173.688 396.805 173.16 397.434 172.776C398.074 172.381 398.789 172.184 399.578 172.184C400.218 172.184 400.783 172.301 401.274 172.536C401.775 172.76 402.197 173.069 402.538 173.464C402.89 173.848 403.157 174.291 403.338 174.792C403.53 175.283 403.626 175.795 403.626 176.328C403.626 176.445 403.615 176.579 403.594 176.728C403.583 176.867 403.567 177 403.546 177.128H396.474V175.848H402.682L401.978 176.424C402.074 175.869 402.021 175.373 401.818 174.936C401.615 174.499 401.317 174.152 400.922 173.896C400.527 173.64 400.079 173.512 399.578 173.512C399.077 173.512 398.618 173.64 398.202 173.896C397.786 174.152 397.461 174.52 397.226 175C397.002 175.469 396.911 176.029 396.954 176.68C396.911 177.309 397.007 177.864 397.242 178.344C397.487 178.813 397.829 179.181 398.266 179.448C398.714 179.704 399.199 179.832 399.722 179.832C400.298 179.832 400.783 179.699 401.178 179.432C401.573 179.165 401.893 178.824 402.138 178.408L403.386 179.048C403.215 179.443 402.949 179.805 402.586 180.136C402.234 180.456 401.813 180.712 401.322 180.904C400.842 181.096 400.303 181.192 399.706 181.192ZM411.836 181.096C410.993 181.096 410.342 180.856 409.884 180.376C409.436 179.896 409.212 179.219 409.212 178.344V173.8H407.644V172.376H407.964C408.348 172.376 408.652 172.259 408.876 172.024C409.1 171.789 409.212 171.48 409.212 171.096V170.392H410.7V172.376H412.636V173.8H410.7V178.296C410.7 178.584 410.742 178.835 410.828 179.048C410.924 179.261 411.078 179.432 411.292 179.56C411.505 179.677 411.788 179.736 412.14 179.736C412.214 179.736 412.305 179.731 412.412 179.72C412.529 179.709 412.636 179.699 412.732 179.688V181C412.593 181.032 412.438 181.053 412.268 181.064C412.097 181.085 411.953 181.096 411.836 181.096ZM418.409 181.192C417.577 181.192 416.836 180.995 416.185 180.6C415.534 180.205 415.022 179.667 414.649 178.984C414.276 178.291 414.089 177.517 414.089 176.664C414.089 175.8 414.27 175.032 414.633 174.36C415.006 173.688 415.508 173.16 416.137 172.776C416.777 172.381 417.492 172.184 418.281 172.184C418.921 172.184 419.486 172.301 419.977 172.536C420.478 172.76 420.9 173.069 421.241 173.464C421.593 173.848 421.86 174.291 422.041 174.792C422.233 175.283 422.329 175.795 422.329 176.328C422.329 176.445 422.318 176.579 422.297 176.728C422.286 176.867 422.27 177 422.249 177.128H415.177V175.848H421.385L420.681 176.424C420.777 175.869 420.724 175.373 420.521 174.936C420.318 174.499 420.02 174.152 419.625 173.896C419.23 173.64 418.782 173.512 418.281 173.512C417.78 173.512 417.321 173.64 416.905 173.896C416.489 174.152 416.164 174.52 415.929 175C415.705 175.469 415.614 176.029 415.657 176.68C415.614 177.309 415.71 177.864 415.945 178.344C416.19 178.813 416.532 179.181 416.969 179.448C417.417 179.704 417.902 179.832 418.425 179.832C419.001 179.832 419.486 179.699 419.881 179.432C420.276 179.165 420.596 178.824 420.841 178.408L422.089 179.048C421.918 179.443 421.652 179.805 421.289 180.136C420.937 180.456 420.516 180.712 420.025 180.904C419.545 181.096 419.006 181.192 418.409 181.192ZM424.269 181V168.888H425.757V181H424.269ZM430.594 181.192C430.029 181.192 429.527 181.091 429.09 180.888C428.663 180.675 428.327 180.387 428.082 180.024C427.837 179.651 427.714 179.224 427.714 178.744C427.714 178.285 427.81 177.875 428.002 177.512C428.205 177.139 428.514 176.824 428.93 176.568C429.357 176.312 429.89 176.131 430.53 176.024L433.73 175.496V176.744L430.866 177.224C430.311 177.32 429.906 177.496 429.65 177.752C429.405 178.008 429.282 178.323 429.282 178.696C429.282 179.048 429.421 179.341 429.698 179.576C429.986 179.811 430.343 179.928 430.77 179.928C431.314 179.928 431.783 179.816 432.178 179.592C432.583 179.357 432.898 179.043 433.122 178.648C433.357 178.253 433.474 177.816 433.474 177.336V175.144C433.474 174.675 433.298 174.296 432.946 174.008C432.605 173.709 432.151 173.56 431.586 173.56C431.095 173.56 430.658 173.688 430.274 173.944C429.901 174.189 429.623 174.52 429.442 174.936L428.146 174.264C428.306 173.869 428.562 173.517 428.914 173.208C429.266 172.888 429.677 172.637 430.146 172.456C430.615 172.275 431.106 172.184 431.618 172.184C432.279 172.184 432.861 172.312 433.362 172.568C433.863 172.813 434.253 173.16 434.53 173.608C434.818 174.045 434.962 174.557 434.962 175.144V181H433.506V179.368L433.778 179.464C433.597 179.805 433.351 180.104 433.042 180.36C432.733 180.616 432.37 180.819 431.954 180.968C431.538 181.117 431.085 181.192 430.594 181.192Z" fill="#212528"/>
</g>
<path d="M415.222 257V241.444C415.222 239 413.222 237 410.778 237H357.444C355 237 353 239 353 241.444V285.889C353 288.333 355 290.333 357.444 290.333H410.778C413.222 290.333 415.222 288.333 415.222 285.889V270.333L433 288.111V239.222L415.222 257ZM406.333 281.444H361.889V245.889H406.333V281.444ZM379.667 277H388.556V268.111H397.444V259.222H388.556V250.333H379.667V259.222H370.778V268.111H379.667V277Z" fill="#DBEAF6"/>
<path d="M306.5 163C305.948 163 305.5 163.448 305.5 164C305.5 164.552 305.948 165 306.5 165V163ZM322.207 164.707C322.598 164.317 322.598 163.683 322.207 163.293L315.843 156.929C315.453 156.538 314.819 156.538 314.429 156.929C314.038 157.319 314.038 157.953 314.429 158.343L320.086 164L314.429 169.657C314.038 170.047 314.038 170.681 314.429 171.071C314.819 171.462 315.453 171.462 315.843 171.071L322.207 164.707ZM306.5 165H321.5V163H306.5V165Z" fill="#B3B3B3"/>
<defs>
<filter id="filter0_d_6423_12786" x="2" y="132" width="317" height="72" filterUnits="userSpaceOnUse" color-interpolation-filters="sRGB">
<feFlood flood-opacity="0" result="BackgroundImageFix"/>
<feColorMatrix in="SourceAlpha" type="matrix" values="0 0 0 0 0 0 0 0 0 0 0 0 0 0 0 0 0 0 127 0" result="hardAlpha"/>
<feOffset dy="4"/>
<feGaussianBlur stdDeviation="2"/>
<feComposite in2="hardAlpha" operator="out"/>
<feColorMatrix type="matrix" values="0 0 0 0 0 0 0 0 0 0 0 0 0 0 0 0 0 0 0.25 0"/>
<feBlend mode="normal" in2="BackgroundImageFix" result="effect1_dropShadow_6423_12786"/>
<feBlend mode="normal" in="SourceGraphic" in2="effect1_dropShadow_6423_12786" result="shape"/>
</filter>
<filter id="filter1_d_6423_12786" x="152.5" y="264" width="184" height="44" filterUnits="userSpaceOnUse" color-interpolation-filters="sRGB">
<feFlood flood-opacity="0" result="BackgroundImageFix"/>
<feColorMatrix in="SourceAlpha" type="matrix" values="0 0 0 0 0 0 0 0 0 0 0 0 0 0 0 0 0 0 127 0" result="hardAlpha"/>
<feOffset dy="4"/>
<feGaussianBlur stdDeviation="2"/>
<feComposite in2="hardAlpha" operator="out"/>
<feColorMatrix type="matrix" values="0 0 0 0 0 0 0 0 0 0 0 0 0 0 0 0 0 0 0.25 0"/>
<feBlend mode="normal" in2="BackgroundImageFix" result="effect1_dropShadow_6423_12786"/>
<feBlend mode="normal" in="SourceGraphic" in2="effect1_dropShadow_6423_12786" result="shape"/>
</filter>
<filter id="filter2_d_6423_12786" x="121" y="40" width="167" height="44" filterUnits="userSpaceOnUse" color-interpolation-filters="sRGB">
<feFlood flood-opacity="0" result="BackgroundImageFix"/>
<feColorMatrix in="SourceAlpha" type="matrix" values="0 0 0 0 0 0 0 0 0 0 0 0 0 0 0 0 0 0 127 0" result="hardAlpha"/>
<feOffset dy="4"/>
<feGaussianBlur stdDeviation="2"/>
<feComposite in2="hardAlpha" operator="out"/>
<feColorMatrix type="matrix" values="0 0 0 0 0 0 0 0 0 0 0 0 0 0 0 0 0 0 0.25 0"/>
<feBlend mode="normal" in2="BackgroundImageFix" result="effect1_dropShadow_6423_12786"/>
<feBlend mode="normal" in="SourceGraphic" in2="effect1_dropShadow_6423_12786" result="shape"/>
</filter>
<filter id="filter3_d_6423_12786" x="321.5" y="136" width="177" height="64" filterUnits="userSpaceOnUse" color-interpolation-filters="sRGB">
<feFlood flood-opacity="0" result="BackgroundImageFix"/>
<feColorMatrix in="SourceAlpha" type="matrix" values="0 0 0 0 0 0 0 0 0 0 0 0 0 0 0 0 0 0 127 0" result="hardAlpha"/>
<feOffset dy="4"/>
<feGaussianBlur stdDeviation="2"/>
<feComposite in2="hardAlpha" operator="out"/>
<feColorMatrix type="matrix" values="0 0 0 0 0 0 0 0 0 0 0 0 0 0 0 0 0 0 0.25 0"/>
<feBlend mode="normal" in2="BackgroundImageFix" result="effect1_dropShadow_6423_12786"/>
<feBlend mode="normal" in="SourceGraphic" in2="effect1_dropShadow_6423_12786" result="shape"/>
</filter>
<clipPath id="clip0_6423_12786">
<rect width="20" height="20" fill="white" transform="translate(274.5 154)"/>
</clipPath>
</defs>
</svg>
