<svg width="429" height="80" viewBox="0 0 429 80" fill="none" xmlns="http://www.w3.org/2000/svg">
<path d="M148.295 57.4493V30.5507H148.179L139.947 57.4493H131.425L123.193 30.5507H123.077V57.4493H114.439V22.4348H128.816L135.657 46.3188H135.773L142.556 22.3768H156.933V57.3913H148.295V57.4493ZM188.18 43.7101C188.18 44.5797 188.122 46.2029 188.122 46.2029H169.571C169.745 48.9275 171.948 50.7826 175.484 50.7826C179.079 50.7826 181.513 49.3913 183.195 48.058H183.6L186.267 54.9565C184.586 56.2899 180.76 58.029 175.658 58.029C167.426 58.029 161.513 52.7536 161.513 43.5942C161.513 34.5507 167.426 28.8116 175.136 28.8116C182.963 28.8116 188.18 34.8406 188.18 43.7101ZM169.861 40.2319H180.586C180.354 38.029 178.383 35.8841 175.252 35.8841C172.064 35.8841 170.209 37.971 169.861 40.2319ZM214.442 33.1594L211.485 39.7101H211.08C208.703 37.1014 205.398 35.7681 202.847 35.7681C200.702 35.7681 199.891 36.6957 199.891 37.6232C199.891 38.8406 200.355 39.0145 206.326 40.4638C211.891 41.7971 215.544 43.942 215.544 49.3333C215.544 54.9565 211.601 58.029 204.761 58.029C197.978 58.029 193.108 55.4783 191.195 53.4493L194.325 46.4348H194.731C197.166 48.4638 200.181 50.4348 204.471 50.4348C207.021 50.4348 207.485 49.7391 207.485 48.8116C207.485 47.8841 206.964 47.3623 200.934 45.8551C194.441 44.2319 191.949 41.6232 191.949 37.3913C191.949 32.1159 196.181 28.7536 202.5 28.7536C208.529 28.8116 213.167 31.6522 214.442 33.1594ZM241.284 33.1594L238.327 39.7101H237.921C235.544 37.1014 232.24 35.7681 229.689 35.7681C227.544 35.7681 226.732 36.6957 226.732 37.6232C226.732 38.8406 227.196 39.0145 233.167 40.4638C238.733 41.7971 242.385 43.942 242.385 49.3333C242.385 54.9565 238.443 58.029 231.602 58.029C224.819 58.029 219.949 55.4783 218.036 53.4493L221.167 46.4348H221.573C224.008 48.4638 227.022 50.4348 231.312 50.4348C233.863 50.4348 234.327 49.7391 234.327 48.8116C234.327 47.8841 233.805 47.3623 227.776 45.8551C221.283 44.2319 218.79 41.6232 218.79 37.3913C218.79 32.1159 223.022 28.7536 229.341 28.7536C235.428 28.8116 240.066 31.6522 241.284 33.1594ZM268.299 39.5942V57.4493H261.748L261.052 53.7391H260.878C259.545 56.1159 256.762 58.029 252.82 58.029C247.429 58.029 244.646 54.5507 244.646 49.971C244.646 45.3913 246.733 42.4928 253.284 41.2174C259.835 39.942 260.299 39.4783 260.299 38.087C260.299 36.7536 259.023 36 256.414 36C253.574 36 250.385 38.029 248.646 40.6377H248.24L244.936 33.8551C248.008 30.8406 251.951 28.8116 256.936 28.8116C263.255 28.8116 268.299 32.9275 268.299 39.5942ZM260.299 45.0435C259.835 45.7971 258.965 46.3188 256.009 47.0145C253.168 47.7101 252.762 48.5217 252.762 49.6232C252.762 50.7246 253.69 51.2464 255.139 51.2464C257.458 51.2464 260.415 49.7391 260.415 47.4783V45.0435H260.299ZM291.662 33.1014H291.836L292.3 29.3913H298.793V53.8551C298.793 62.4928 293.923 67.2464 285.053 67.2464C280.009 67.2464 276.125 65.5652 273.748 63.8261L276.241 56.6957H276.647C279.024 58.6087 281.575 59.7681 284.763 59.7681C288.995 59.7681 290.503 58.087 290.503 54.3188V51.7681H290.329C289.111 53.5652 286.734 55.0725 283.14 55.0725C276.473 55.0725 271.835 49.8551 271.835 42.4348C271.835 34.3188 277.343 28.7536 283.836 28.7536C287.778 28.8116 290.503 31.1304 291.662 33.1014ZM280.357 42.2029C280.357 45.6232 282.502 47.7681 285.749 47.7681C288.879 47.7681 291.024 45.7971 291.024 42.1449C291.024 38.6667 289.169 36.1739 285.749 36.1739C282.212 36.1739 280.357 38.7826 280.357 42.2029ZM329.518 43.7101C329.518 44.5797 329.46 46.2029 329.46 46.2029H310.909C311.083 48.9275 313.286 50.7826 316.822 50.7826C320.417 50.7826 322.851 49.3913 324.533 48.058H324.939L327.547 55.0145C325.866 56.3478 322.04 58.087 316.938 58.087C308.706 58.087 302.793 52.8116 302.793 43.6522C302.793 34.6087 308.706 28.8696 316.416 28.8696C324.301 28.8116 329.518 34.8406 329.518 43.7101ZM311.199 40.2319H321.924C321.692 38.029 319.721 35.8841 316.59 35.8841C313.46 35.8841 311.547 37.971 311.199 40.2319ZM352.766 22.4348C359.664 22.4348 363.375 25.7971 363.375 31.4203C363.375 35.4203 361.519 37.913 357.867 39.4783V39.5942C361.172 40.8696 363.375 43.5942 363.375 48.1159C363.375 52.6377 360.824 57.4493 351.49 57.4493H333.982V22.4348H352.766ZM342.852 36.6957H351.2C353.287 36.6957 354.447 35.4783 354.447 33.6812C354.447 31.942 353.519 30.5507 350.91 30.5507H342.852V36.6957ZM342.852 49.3333H351.2C353.287 49.3333 354.447 48.1159 354.447 46.2609C354.447 44.4058 353.519 43.0145 350.91 43.0145H342.852V49.3333ZM377.056 20.8696C377.056 23.8841 375.201 26.087 371.839 26.087C368.476 26.087 366.621 23.8841 366.621 20.8696C366.621 17.7971 368.476 15.7681 371.839 15.7681C375.201 15.7681 377.056 17.7971 377.056 20.8696ZM367.665 57.4493V29.3913H375.897V57.3913H367.665V57.4493ZM400.245 31.1304L399.028 38.6667H398.622C397.811 37.7971 396.593 36.9855 394.796 36.9855C391.491 36.9855 389.578 40 389.578 45.0435V57.4493H381.346V29.3913H388.129L388.593 33.1014H388.767C390.274 30.087 392.593 28.8116 395.144 28.8116C397.115 28.8116 399.202 29.5652 400.245 31.1304ZM422.449 57.4493L421.753 53.7391H421.579C419.956 56.2899 417.521 58.029 413.057 58.029C405.521 58.029 400.767 52 400.767 43.8261C400.767 35.4203 405.753 28.8116 413.289 28.8116C416.594 28.8116 419.319 30.087 420.884 32.2899H421V20.2899H429V57.4493H422.449ZM408.999 43.4783C408.999 47.7101 411.434 50.3768 415.086 50.3768C418.739 50.3768 421.232 48 421.232 43.4203C421.232 39.1884 418.797 36.1739 415.202 36.1739C411.608 36.1739 408.999 39.2464 408.999 43.4783ZM85.5681 14.2609C81.7419 14.2609 78.3215 16.1739 76.2345 19.0725L62.147 38.7826C61.6253 39.5362 60.7557 40 59.8281 40C58.2628 40 56.9874 38.7246 56.9874 37.1594C56.9874 36.5797 57.1614 36 57.4512 35.5942L69.3357 17.7971C70.5531 16 71.2488 13.7971 71.2488 11.4203C71.2488 5.10145 66.1472 0 59.8281 0H0V11.4203H51.2481C51.2481 14.5507 48.6973 17.1594 45.5088 17.1594H0C0 21.2174 0.869595 25.1015 2.37689 28.5797H39.7695C39.7695 31.7101 37.2186 34.3188 34.0301 34.3188H5.73932C10.9569 41.2754 19.247 45.7391 28.6386 45.7391H42.7261C44.2914 45.7391 45.5668 47.0145 45.5668 48.5797C45.5668 50.1449 44.2914 51.4203 42.7261 51.4203H28.5807L9.44959 80H44.0595C59.8861 80 73.3358 69.6812 78.0316 55.4203L84.4666 35.8841C86.5536 29.5652 90.3799 24 95.3655 19.7681C93.3945 16.4638 89.7422 14.2609 85.5681 14.2609ZM85.5681 22.087C84.4087 22.087 83.4231 21.1014 83.4231 19.942C83.4231 18.7826 84.4087 17.7971 85.5681 17.7971C86.7276 17.7971 87.7131 18.7826 87.7131 19.942C87.7131 21.1594 86.7276 22.087 85.5681 22.087Z" fill="#2481D7"/>
</svg>
