<svg width="80" height="80" viewBox="0 0 80 80" fill="none" xmlns="http://www.w3.org/2000/svg">
<path d="M71.7812 18.4074C68.5714 18.4074 65.7021 20.0122 63.9514 22.4438L52.1337 38.9788C51.696 39.611 50.9666 40.0001 50.1884 40.0001C48.8754 40.0001 47.8055 38.9302 47.8055 37.6171C47.8055 37.1308 47.9514 36.6445 48.1945 36.304L58.1641 21.3739C59.1854 19.8663 59.769 18.0183 59.769 16.0244C59.769 10.7235 55.4894 6.44385 50.1884 6.44385H0V16.0244H42.9909C42.9909 18.6505 40.8511 20.839 38.1763 20.839H0C0 24.2432 0.729483 27.5016 1.99392 30.4195H33.3617C33.3617 33.0457 31.2219 35.2341 28.5471 35.2341H4.81459C9.19149 41.07 16.1459 44.8147 24.0243 44.8147H35.8419C37.155 44.8147 38.2249 45.8846 38.2249 47.1977C38.2249 48.5107 37.155 49.5806 35.8419 49.5806H23.9757L7.92705 73.5563H36.9605C50.2371 73.5563 61.5198 64.8998 65.459 52.9363L70.8571 36.5472C72.6079 31.2463 75.8176 26.5776 80 23.0274C78.3465 20.2554 75.2827 18.4074 71.7812 18.4074ZM71.7812 24.9727C70.8085 24.9727 69.9818 24.146 69.9818 23.1733C69.9818 22.2007 70.8085 21.3739 71.7812 21.3739C72.7538 21.3739 73.5805 22.2007 73.5805 23.1733C73.5805 24.1946 72.7538 24.9727 71.7812 24.9727Z" fill="#2481D7"/>
</svg>
