<svg width="600" height="456" viewBox="0 0 600 456" fill="none" xmlns="http://www.w3.org/2000/svg">
<g clip-path="url(#clip0_6444_25574)">
<path d="M454.333 50.7994H537.667L495.917 103.299L454.333 50.7994ZM431.417 47.5495C448.25 69.1328 479.333 109.133 479.333 109.133V159.133C479.333 163.716 483.083 167.466 487.667 167.466H504.333C508.917 167.466 512.667 163.716 512.667 159.133V109.133C512.667 109.133 543.667 69.1328 560.5 47.5495C564.75 42.0494 560.833 34.1328 553.917 34.1328H438C431.083 34.1328 427.167 42.0494 431.417 47.5495Z" fill="#DBEAF6"/>
</g>
<path fill-rule="evenodd" clip-rule="evenodd" d="M146.312 270.517L162.992 260.887L215.743 291.343V352.255L199.052 361.892V383.011C199.052 388.965 195.875 394.467 190.718 397.444L127.999 433.655C122.843 436.632 116.489 436.632 111.333 433.655L48.6136 397.444C43.4569 394.467 40.2803 388.965 40.2803 383.011V310.589C40.2803 304.635 43.4569 299.132 48.6136 296.155L111.333 259.944C116.489 256.967 122.843 256.967 127.999 259.944L146.312 270.517ZM162.979 280.14L162.992 280.132L199.076 300.966V342.632L162.992 363.466L126.907 342.632V300.966L162.979 280.14ZM182.385 371.514V383.011L119.666 419.221L56.9469 383.011V310.589L119.666 274.378L129.646 280.14L110.241 291.343V352.255L162.992 382.711L182.385 371.514Z" fill="#DBEAF6"/>
<path d="M49.0824 161.799L46.2983 151.618H47.5511L49.679 159.91H49.7784L51.946 151.618H53.3381L55.5057 159.91H55.6051L57.733 151.618H58.9858L56.2017 161.799H54.929L52.6818 153.686H52.6023L50.3551 161.799H49.0824ZM61.5362 157.206V161.799H60.3629V151.618H61.5362V155.356H61.6357C61.8146 154.962 62.0831 154.649 62.4411 154.417C62.8023 154.181 63.2829 154.064 63.8828 154.064C64.4032 154.064 64.8589 154.168 65.25 154.377C65.6411 154.582 65.9444 154.899 66.1598 155.326C66.3786 155.751 66.4879 156.291 66.4879 156.947V161.799H65.3146V157.027C65.3146 156.42 65.1572 155.951 64.8423 155.62C64.5308 155.285 64.0982 155.118 63.5447 155.118C63.1603 155.118 62.8156 155.199 62.5107 155.361C62.209 155.524 61.9704 155.761 61.7947 156.072C61.6224 156.384 61.5362 156.762 61.5362 157.206ZM71.8361 161.959C71.1003 161.959 70.4656 161.796 69.932 161.471C69.4017 161.143 68.9924 160.686 68.704 160.099C68.419 159.509 68.2765 158.823 68.2765 158.041C68.2765 157.259 68.419 156.569 68.704 155.973C68.9924 155.373 69.3934 154.905 69.9071 154.571C70.4242 154.233 71.0274 154.064 71.7168 154.064C72.1145 154.064 72.5073 154.13 72.8951 154.263C73.2828 154.395 73.6358 154.611 73.954 154.909C74.2722 155.204 74.5257 155.595 74.7147 156.082C74.9036 156.569 74.998 157.169 74.998 157.882V158.379H69.1117V157.365H73.8049C73.8049 156.934 73.7187 156.549 73.5463 156.211C73.3773 155.873 73.1354 155.606 72.8205 155.411C72.5089 155.215 72.141 155.118 71.7168 155.118C71.2495 155.118 70.8451 155.234 70.5037 155.466C70.1657 155.694 69.9055 155.993 69.7232 156.361C69.5409 156.728 69.4498 157.123 69.4498 157.544V158.22C69.4498 158.797 69.5492 159.285 69.748 159.687C69.9502 160.084 70.2303 160.388 70.5882 160.596C70.9462 160.802 71.3622 160.905 71.8361 160.905C72.1444 160.905 72.4228 160.861 72.6713 160.775C72.9232 160.686 73.1403 160.553 73.3226 160.378C73.5049 160.199 73.6458 159.977 73.7452 159.711L74.8787 160.03C74.7594 160.414 74.5589 160.752 74.2772 161.044C73.9954 161.332 73.6474 161.557 73.2331 161.72C72.8188 161.879 72.3532 161.959 71.8361 161.959ZM76.7828 161.799V154.163H77.9164V155.316H77.9959C78.1351 154.939 78.387 154.632 78.7516 154.397C79.1162 154.161 79.5272 154.044 79.9846 154.044C80.0707 154.044 80.1784 154.045 80.3077 154.049C80.437 154.052 80.5347 154.057 80.601 154.064V155.257C80.5613 155.247 80.4701 155.232 80.3276 155.212C80.1884 155.189 80.0409 155.177 79.8851 155.177C79.5139 155.177 79.1825 155.255 78.8908 155.411C78.6025 155.563 78.3738 155.776 78.2047 156.047C78.039 156.316 77.9561 156.622 77.9561 156.967V161.799H76.7828ZM84.9611 161.959C84.2253 161.959 83.5906 161.796 83.057 161.471C82.5267 161.143 82.1174 160.686 81.829 160.099C81.544 159.509 81.4015 158.823 81.4015 158.041C81.4015 157.259 81.544 156.569 81.829 155.973C82.1174 155.373 82.5184 154.905 83.0321 154.571C83.5492 154.233 84.1524 154.064 84.8418 154.064C85.2395 154.064 85.6323 154.13 86.0201 154.263C86.4078 154.395 86.7608 154.611 87.079 154.909C87.3972 155.204 87.6507 155.595 87.8397 156.082C88.0286 156.569 88.123 157.169 88.123 157.882V158.379H82.2367V157.365H86.9299C86.9299 156.934 86.8437 156.549 86.6713 156.211C86.5023 155.873 86.2604 155.606 85.9455 155.411C85.6339 155.215 85.266 155.118 84.8418 155.118C84.3745 155.118 83.9701 155.234 83.6287 155.466C83.2907 155.694 83.0305 155.993 82.8482 156.361C82.6659 156.728 82.5748 157.123 82.5748 157.544V158.22C82.5748 158.797 82.6742 159.285 82.873 159.687C83.0752 160.084 83.3553 160.388 83.7132 160.596C84.0712 160.802 84.4872 160.905 84.9611 160.905C85.2694 160.905 85.5478 160.861 85.7963 160.775C86.0482 160.686 86.2653 160.553 86.4476 160.378C86.6299 160.199 86.7708 159.977 86.8702 159.711L88.0037 160.03C87.8844 160.414 87.6839 160.752 87.4022 161.044C87.1204 161.332 86.7724 161.557 86.3581 161.72C85.9438 161.879 85.4782 161.959 84.9611 161.959Z" fill="#3F4346"/>
<g clip-path="url(#clip1_6444_25574)">
<rect x="132" y="141.799" width="422" height="30" rx="4" fill="white"/>
<rect x="132" y="141.799" width="120" height="30" stroke="#D5D9DC"/>
<path d="M149.307 151.618V161.799H148.114L142.565 153.805H142.466V161.799H141.233V151.618H142.426L147.994 159.632H148.094V151.618H149.307ZM153.862 161.978C153.378 161.978 152.939 161.887 152.545 161.705C152.15 161.519 151.837 161.253 151.605 160.905C151.373 160.553 151.257 160.129 151.257 159.632C151.257 159.194 151.343 158.84 151.515 158.568C151.688 158.293 151.918 158.077 152.206 157.922C152.495 157.766 152.813 157.65 153.161 157.574C153.512 157.494 153.865 157.431 154.22 157.385C154.684 157.325 155.06 157.28 155.349 157.25C155.64 157.217 155.852 157.163 155.985 157.086C156.121 157.01 156.189 156.878 156.189 156.689V156.649C156.189 156.158 156.055 155.777 155.786 155.505C155.521 155.234 155.118 155.098 154.578 155.098C154.018 155.098 153.579 155.22 153.26 155.466C152.942 155.711 152.719 155.973 152.589 156.251L151.476 155.853C151.675 155.389 151.94 155.028 152.271 154.77C152.606 154.508 152.97 154.325 153.365 154.223C153.763 154.117 154.154 154.064 154.538 154.064C154.783 154.064 155.065 154.093 155.383 154.153C155.705 154.209 156.015 154.327 156.313 154.506C156.615 154.685 156.865 154.955 157.064 155.316C157.263 155.678 157.362 156.162 157.362 156.768V161.799H156.189V160.765H156.129C156.05 160.931 155.917 161.108 155.731 161.297C155.546 161.486 155.299 161.647 154.991 161.78C154.682 161.912 154.306 161.978 153.862 161.978ZM154.041 160.924C154.505 160.924 154.896 160.833 155.214 160.651C155.536 160.469 155.778 160.233 155.94 159.945C156.106 159.657 156.189 159.353 156.189 159.035V157.961C156.139 158.021 156.03 158.076 155.861 158.125C155.695 158.172 155.503 158.213 155.284 158.25C155.068 158.283 154.858 158.313 154.653 158.339C154.45 158.362 154.286 158.382 154.16 158.399C153.855 158.439 153.57 158.503 153.305 158.593C153.043 158.679 152.831 158.81 152.669 158.986C152.51 159.158 152.43 159.393 152.43 159.691C152.43 160.099 152.581 160.407 152.883 160.616C153.188 160.822 153.574 160.924 154.041 160.924ZM159.504 161.799V154.163H160.637V155.356H160.737C160.896 154.949 161.152 154.632 161.507 154.407C161.862 154.178 162.288 154.064 162.785 154.064C163.289 154.064 163.708 154.178 164.043 154.407C164.381 154.632 164.644 154.949 164.833 155.356H164.913C165.108 154.962 165.402 154.649 165.793 154.417C166.184 154.181 166.653 154.064 167.2 154.064C167.882 154.064 168.441 154.277 168.875 154.705C169.309 155.129 169.526 155.79 169.526 156.689V161.799H168.353V156.689C168.353 156.125 168.199 155.722 167.891 155.481C167.582 155.239 167.219 155.118 166.802 155.118C166.265 155.118 165.849 155.28 165.554 155.605C165.259 155.926 165.112 156.334 165.112 156.828V161.799H163.918V156.569C163.918 156.135 163.777 155.785 163.496 155.52C163.214 155.252 162.851 155.118 162.407 155.118C162.102 155.118 161.817 155.199 161.552 155.361C161.29 155.524 161.078 155.749 160.915 156.037C160.756 156.322 160.677 156.652 160.677 157.027V161.799H159.504ZM174.873 161.959C174.137 161.959 173.503 161.796 172.969 161.471C172.439 161.143 172.029 160.686 171.741 160.099C171.456 159.509 171.314 158.823 171.314 158.041C171.314 157.259 171.456 156.569 171.741 155.973C172.029 155.373 172.431 154.905 172.944 154.571C173.461 154.233 174.065 154.064 174.754 154.064C175.152 154.064 175.544 154.13 175.932 154.263C176.32 154.395 176.673 154.611 176.991 154.909C177.309 155.204 177.563 155.595 177.752 156.082C177.941 156.569 178.035 157.169 178.035 157.882V158.379H172.149V157.365H176.842C176.842 156.934 176.756 156.549 176.583 156.211C176.414 155.873 176.172 155.606 175.858 155.411C175.546 155.215 175.178 155.118 174.754 155.118C174.287 155.118 173.882 155.234 173.541 155.466C173.203 155.694 172.943 155.993 172.76 156.361C172.578 156.728 172.487 157.123 172.487 157.544V158.22C172.487 158.797 172.586 159.285 172.785 159.687C172.987 160.084 173.267 160.388 173.625 160.596C173.983 160.802 174.399 160.905 174.873 160.905C175.181 160.905 175.46 160.861 175.708 160.775C175.96 160.686 176.177 160.553 176.36 160.378C176.542 160.199 176.683 159.977 176.782 159.711L177.916 160.03C177.797 160.414 177.596 160.752 177.314 161.044C177.033 161.332 176.685 161.557 176.27 161.72C175.856 161.879 175.39 161.959 174.873 161.959Z" fill="#3F4346"/>
<path d="M232.981 155.133L236.222 158.466L239.463 155.133H232.981Z" fill="#5D6164"/>
<rect x="252" y="141.799" width="136" height="30" stroke="#D5D9DC"/>
<path d="M266.483 155.873L265.429 156.172C265.363 155.996 265.265 155.825 265.136 155.66C265.01 155.49 264.837 155.351 264.619 155.242C264.4 155.133 264.12 155.078 263.778 155.078C263.311 155.078 262.922 155.186 262.61 155.401C262.302 155.613 262.148 155.883 262.148 156.211C262.148 156.503 262.254 156.733 262.466 156.902C262.678 157.071 263.009 157.212 263.46 157.325L264.594 157.603C265.277 157.769 265.785 158.023 266.12 158.364C266.455 158.702 266.622 159.138 266.622 159.672C266.622 160.109 266.496 160.5 266.244 160.845C265.996 161.19 265.648 161.461 265.2 161.66C264.753 161.859 264.232 161.959 263.639 161.959C262.86 161.959 262.216 161.789 261.705 161.451C261.195 161.113 260.872 160.62 260.736 159.97L261.849 159.691C261.955 160.102 262.156 160.411 262.451 160.616C262.749 160.822 263.139 160.924 263.619 160.924C264.166 160.924 264.6 160.808 264.922 160.576C265.247 160.341 265.409 160.059 265.409 159.731C265.409 159.466 265.316 159.244 265.131 159.065C264.945 158.883 264.66 158.747 264.276 158.657L263.003 158.359C262.304 158.193 261.79 157.937 261.462 157.589C261.137 157.237 260.974 156.798 260.974 156.271C260.974 155.84 261.095 155.459 261.337 155.128C261.583 154.796 261.916 154.536 262.337 154.347C262.761 154.158 263.241 154.064 263.778 154.064C264.534 154.064 265.127 154.229 265.558 154.561C265.992 154.892 266.301 155.33 266.483 155.873ZM271.709 154.163V155.157H267.752V154.163H271.709ZM268.905 152.334H270.079V159.612C270.079 159.943 270.127 160.192 270.223 160.358C270.322 160.52 270.448 160.629 270.601 160.686C270.756 160.739 270.921 160.765 271.093 160.765C271.222 160.765 271.328 160.759 271.411 160.745C271.494 160.729 271.56 160.716 271.61 160.706L271.849 161.76C271.769 161.789 271.658 161.819 271.515 161.849C271.373 161.882 271.192 161.899 270.974 161.899C270.642 161.899 270.317 161.828 269.999 161.685C269.684 161.543 269.422 161.325 269.214 161.034C269.008 160.742 268.905 160.374 268.905 159.93V152.334ZM275.721 161.978C275.238 161.978 274.798 161.887 274.404 161.705C274.01 161.519 273.696 161.253 273.464 160.905C273.232 160.553 273.116 160.129 273.116 159.632C273.116 159.194 273.202 158.84 273.375 158.568C273.547 158.293 273.778 158.077 274.066 157.922C274.354 157.766 274.672 157.65 275.02 157.574C275.372 157.494 275.725 157.431 276.079 157.385C276.543 157.325 276.92 157.28 277.208 157.25C277.5 157.217 277.712 157.163 277.844 157.086C277.98 157.01 278.048 156.878 278.048 156.689V156.649C278.048 156.158 277.914 155.777 277.645 155.505C277.38 155.234 276.978 155.098 276.437 155.098C275.877 155.098 275.438 155.22 275.12 155.466C274.802 155.711 274.578 155.973 274.449 156.251L273.335 155.853C273.534 155.389 273.799 155.028 274.131 154.77C274.465 154.508 274.83 154.325 275.224 154.223C275.622 154.117 276.013 154.064 276.398 154.064C276.643 154.064 276.925 154.093 277.243 154.153C277.564 154.209 277.874 154.327 278.172 154.506C278.474 154.685 278.724 154.955 278.923 155.316C279.122 155.678 279.221 156.162 279.221 156.768V161.799H278.048V160.765H277.988C277.909 160.931 277.776 161.108 277.591 161.297C277.405 161.486 277.158 161.647 276.85 161.78C276.542 161.912 276.166 161.978 275.721 161.978ZM275.9 160.924C276.364 160.924 276.756 160.833 277.074 160.651C277.395 160.469 277.637 160.233 277.8 159.945C277.965 159.657 278.048 159.353 278.048 159.035V157.961C277.998 158.021 277.889 158.076 277.72 158.125C277.554 158.172 277.362 158.213 277.143 158.25C276.928 158.283 276.717 158.313 276.512 158.339C276.31 158.362 276.146 158.382 276.02 158.399C275.715 158.439 275.43 158.503 275.165 158.593C274.903 158.679 274.691 158.81 274.528 158.986C274.369 159.158 274.29 159.393 274.29 159.691C274.29 160.099 274.44 160.407 274.742 160.616C275.047 160.822 275.433 160.924 275.9 160.924ZM281.363 161.799V154.163H282.496V155.316H282.576C282.715 154.939 282.967 154.632 283.332 154.397C283.696 154.161 284.107 154.044 284.565 154.044C284.651 154.044 284.759 154.045 284.888 154.049C285.017 154.052 285.115 154.057 285.181 154.064V155.257C285.141 155.247 285.05 155.232 284.908 155.212C284.768 155.189 284.621 155.177 284.465 155.177C284.094 155.177 283.763 155.255 283.471 155.411C283.183 155.563 282.954 155.776 282.785 156.047C282.619 156.316 282.536 156.622 282.536 156.967V161.799H281.363ZM290.371 154.163V155.157H286.414V154.163H290.371ZM287.567 152.334H288.741V159.612C288.741 159.943 288.789 160.192 288.885 160.358C288.984 160.52 289.11 160.629 289.263 160.686C289.419 160.739 289.583 160.765 289.755 160.765C289.884 160.765 289.99 160.759 290.073 160.745C290.156 160.729 290.222 160.716 290.272 160.706L290.511 161.76C290.431 161.789 290.32 161.819 290.178 161.849C290.035 161.882 289.854 161.899 289.636 161.899C289.304 161.899 288.979 161.828 288.661 161.685C288.346 161.543 288.085 161.325 287.876 161.034C287.67 160.742 287.567 160.374 287.567 159.93V152.334ZM297.804 161.799L295.477 154.163H296.71L298.361 160.01H298.44L300.071 154.163H301.324L302.935 159.99H303.014L304.665 154.163H305.898L303.571 161.799H302.418L300.747 155.933H300.628L298.957 161.799H297.804ZM307.449 161.799V154.163H308.622V161.799H307.449ZM308.045 152.89C307.817 152.89 307.62 152.812 307.454 152.657C307.291 152.501 307.21 152.314 307.21 152.095C307.21 151.876 307.291 151.689 307.454 151.533C307.62 151.377 307.817 151.299 308.045 151.299C308.274 151.299 308.47 151.377 308.632 151.533C308.798 151.689 308.881 151.876 308.881 152.095C308.881 152.314 308.798 152.501 308.632 152.657C308.47 152.812 308.274 152.89 308.045 152.89ZM314.092 154.163V155.157H310.135V154.163H314.092ZM311.288 152.334H312.461V159.612C312.461 159.943 312.51 160.192 312.606 160.358C312.705 160.52 312.831 160.629 312.983 160.686C313.139 160.739 313.303 160.765 313.476 160.765C313.605 160.765 313.711 160.759 313.794 160.745C313.877 160.729 313.943 160.716 313.993 160.706L314.231 161.76C314.152 161.789 314.041 161.819 313.898 161.849C313.756 161.882 313.575 161.899 313.356 161.899C313.025 161.899 312.7 161.828 312.382 161.685C312.067 161.543 311.805 161.325 311.596 161.034C311.391 160.742 311.288 160.374 311.288 159.93V152.334ZM317.194 157.206V161.799H316.021V151.618H317.194V155.356H317.294C317.473 154.962 317.741 154.649 318.099 154.417C318.461 154.181 318.941 154.064 319.541 154.064C320.061 154.064 320.517 154.168 320.908 154.377C321.299 154.582 321.603 154.899 321.818 155.326C322.037 155.751 322.146 156.291 322.146 156.947V161.799H320.973V157.027C320.973 156.42 320.815 155.951 320.501 155.62C320.189 155.285 319.756 155.118 319.203 155.118C318.818 155.118 318.474 155.199 318.169 155.361C317.867 155.524 317.629 155.761 317.453 156.072C317.281 156.384 317.194 156.762 317.194 157.206Z" fill="#3F4346"/>
<path d="M368.981 155.133L372.222 158.466L375.463 155.133H368.981Z" fill="#5D6164"/>
<rect x="388" y="141.799" width="136" height="30" stroke="#D5D9DC"/>
<path d="M399.321 161.978C398.837 161.978 398.398 161.887 398.004 161.705C397.609 161.519 397.296 161.253 397.064 160.905C396.832 160.553 396.716 160.129 396.716 159.632C396.716 159.194 396.802 158.84 396.974 158.568C397.147 158.293 397.377 158.077 397.665 157.922C397.954 157.766 398.272 157.65 398.62 157.574C398.971 157.494 399.324 157.431 399.679 157.385C400.143 157.325 400.519 157.28 400.808 157.25C401.099 157.217 401.311 157.163 401.444 157.086C401.58 157.01 401.648 156.878 401.648 156.689V156.649C401.648 156.158 401.513 155.777 401.245 155.505C400.98 155.234 400.577 155.098 400.037 155.098C399.477 155.098 399.038 155.22 398.719 155.466C398.401 155.711 398.178 155.973 398.048 156.251L396.935 155.853C397.134 155.389 397.399 155.028 397.73 154.77C398.065 154.508 398.429 154.325 398.824 154.223C399.222 154.117 399.613 154.064 399.997 154.064C400.242 154.064 400.524 154.093 400.842 154.153C401.164 154.209 401.474 154.327 401.772 154.506C402.074 154.685 402.324 154.955 402.523 155.316C402.722 155.678 402.821 156.162 402.821 156.768V161.799H401.648V160.765H401.588C401.509 160.931 401.376 161.108 401.19 161.297C401.005 161.486 400.758 161.647 400.45 161.78C400.141 161.912 399.765 161.978 399.321 161.978ZM399.5 160.924C399.964 160.924 400.355 160.833 400.673 160.651C400.995 160.469 401.237 160.233 401.399 159.945C401.565 159.657 401.648 159.353 401.648 159.035V157.961C401.598 158.021 401.489 158.076 401.32 158.125C401.154 158.172 400.962 158.213 400.743 158.25C400.527 158.283 400.317 158.313 400.112 158.339C399.909 158.362 399.745 158.382 399.619 158.399C399.314 158.439 399.029 158.503 398.764 158.593C398.502 158.679 398.29 158.81 398.128 158.986C397.969 159.158 397.889 159.393 397.889 159.691C397.889 160.099 398.04 160.407 398.342 160.616C398.647 160.822 399.033 160.924 399.5 160.924Z" fill="#3F4346"/>
<rect x="524" y="141.799" width="30" height="30" stroke="#D5D9DC"/>
<path d="M542 154.549V162.049H536V154.549H542ZM540.875 150.049H537.125L536.375 150.799H533.75V152.299H544.25V150.799H541.625L540.875 150.049ZM543.5 153.049H534.5V162.049C534.5 162.874 535.175 163.549 536 163.549H542C542.825 163.549 543.5 162.874 543.5 162.049V153.049Z" fill="#5D6164"/>
</g>
<rect x="132.5" y="142.299" width="421" height="29" rx="3.5" stroke="#D5D9DC"/>
<rect x="46" y="187.799" width="70" height="30" rx="4" fill="white"/>
<rect x="46" y="187.799" width="70" height="30" rx="4" stroke="#D5D9DC"/>
<path d="M55.6506 207.799H54.358L58.0966 197.618H59.3693L63.108 207.799H61.8153L58.7727 199.228H58.6932L55.6506 207.799ZM56.1278 203.822H61.3381V204.916H56.1278V203.822ZM65.7081 203.206V207.799H64.5348V200.163H65.6683V201.356H65.7678C65.9467 200.968 66.2185 200.657 66.5831 200.422C66.9477 200.183 67.4183 200.064 67.995 200.064C68.5121 200.064 68.9645 200.17 69.3523 200.382C69.7401 200.591 70.0417 200.909 70.2571 201.336C70.4725 201.761 70.5803 202.298 70.5803 202.947V207.799H69.407V203.027C69.407 202.427 69.2512 201.959 68.9396 201.625C68.6281 201.287 68.2005 201.118 67.657 201.118C67.2824 201.118 66.9477 201.199 66.6527 201.361C66.361 201.524 66.1307 201.761 65.9616 202.072C65.7926 202.384 65.7081 202.762 65.7081 203.206ZM75.6078 207.959C74.9714 207.959 74.4096 207.798 73.9224 207.476C73.4352 207.151 73.054 206.694 72.7789 206.104C72.5038 205.511 72.3663 204.81 72.3663 204.001C72.3663 203.199 72.5038 202.503 72.7789 201.913C73.054 201.323 73.4368 200.867 73.9274 200.546C74.4179 200.224 74.9847 200.064 75.6277 200.064C76.1248 200.064 76.5176 200.147 76.8059 200.312C77.0976 200.475 77.3197 200.66 77.4721 200.869C77.6279 201.075 77.7489 201.244 77.835 201.376H77.9345V197.618H79.1078V207.799H77.9743V206.626H77.835C77.7489 206.765 77.6262 206.941 77.4672 207.153C77.3081 207.362 77.081 207.549 76.786 207.715C76.4911 207.877 76.0983 207.959 75.6078 207.959ZM75.7669 206.905C76.2375 206.905 76.6352 206.782 76.96 206.537C77.2849 206.288 77.5318 205.945 77.7008 205.508C77.8699 205.067 77.9544 204.558 77.9544 203.981C77.9544 203.411 77.8715 202.912 77.7058 202.485C77.5401 202.054 77.2948 201.719 76.97 201.481C76.6452 201.239 76.2441 201.118 75.7669 201.118C75.2697 201.118 74.8554 201.245 74.524 201.5C74.1958 201.752 73.9489 202.095 73.7832 202.53C73.6208 202.96 73.5396 203.444 73.5396 203.981C73.5396 204.525 73.6225 205.019 73.7882 205.463C73.9572 205.904 74.2058 206.255 74.5339 206.517C74.8654 206.775 75.2763 206.905 75.7669 206.905Z" fill="#3F4346"/>
<path d="M96.9814 201.133L100.222 204.466L103.463 201.133H96.9814Z" fill="#5D6164"/>
<g clip-path="url(#clip2_6444_25574)">
<rect x="132" y="187.799" width="422" height="30" rx="4" fill="white"/>
<rect x="132" y="187.799" width="120" height="30" stroke="#D5D9DC"/>
<path d="M141.651 207.799H140.358L144.097 197.618H145.369L149.108 207.799H147.815L144.773 199.228H144.693L141.651 207.799ZM142.128 203.822H147.338V204.916H142.128V203.822ZM151.708 197.618V207.799H150.535V197.618H151.708ZM153.857 207.799V200.163H155.03V207.799H153.857ZM154.454 198.89C154.225 198.89 154.028 198.812 153.862 198.657C153.7 198.501 153.618 198.314 153.618 198.095C153.618 197.876 153.7 197.689 153.862 197.533C154.028 197.377 154.225 197.299 154.454 197.299C154.682 197.299 154.878 197.377 155.04 197.533C155.206 197.689 155.289 197.876 155.289 198.095C155.289 198.314 155.206 198.501 155.04 198.657C154.878 198.812 154.682 198.89 154.454 198.89ZM159.426 207.978C158.943 207.978 158.503 207.887 158.109 207.705C157.715 207.519 157.401 207.253 157.169 206.905C156.937 206.553 156.821 206.129 156.821 205.632C156.821 205.194 156.908 204.84 157.08 204.568C157.252 204.293 157.483 204.077 157.771 203.922C158.059 203.766 158.377 203.65 158.725 203.574C159.077 203.494 159.43 203.431 159.784 203.385C160.248 203.325 160.625 203.28 160.913 203.25C161.205 203.217 161.417 203.163 161.549 203.086C161.685 203.01 161.753 202.878 161.753 202.689V202.649C161.753 202.158 161.619 201.777 161.35 201.505C161.085 201.234 160.683 201.098 160.142 201.098C159.582 201.098 159.143 201.22 158.825 201.466C158.507 201.711 158.283 201.973 158.154 202.251L157.04 201.853C157.239 201.389 157.504 201.028 157.836 200.77C158.17 200.508 158.535 200.325 158.929 200.223C159.327 200.117 159.718 200.064 160.103 200.064C160.348 200.064 160.63 200.093 160.948 200.153C161.269 200.209 161.579 200.327 161.877 200.506C162.179 200.685 162.429 200.955 162.628 201.316C162.827 201.678 162.926 202.162 162.926 202.768V207.799H161.753V206.765H161.694C161.614 206.931 161.481 207.108 161.296 207.297C161.11 207.486 160.863 207.647 160.555 207.78C160.247 207.912 159.871 207.978 159.426 207.978ZM159.605 206.924C160.069 206.924 160.461 206.833 160.779 206.651C161.1 206.469 161.342 206.233 161.505 205.945C161.67 205.657 161.753 205.353 161.753 205.035V203.961C161.703 204.021 161.594 204.076 161.425 204.125C161.259 204.172 161.067 204.213 160.848 204.25C160.633 204.283 160.422 204.313 160.217 204.339C160.015 204.362 159.851 204.382 159.725 204.399C159.42 204.439 159.135 204.503 158.87 204.593C158.608 204.679 158.396 204.81 158.233 204.986C158.074 205.158 157.995 205.393 157.995 205.691C157.995 206.099 158.145 206.407 158.447 206.616C158.752 206.822 159.138 206.924 159.605 206.924ZM170.477 201.873L169.423 202.172C169.357 201.996 169.259 201.825 169.13 201.66C169.004 201.49 168.831 201.351 168.613 201.242C168.394 201.133 168.114 201.078 167.773 201.078C167.305 201.078 166.916 201.186 166.604 201.401C166.296 201.613 166.142 201.883 166.142 202.211C166.142 202.503 166.248 202.733 166.46 202.902C166.672 203.071 167.004 203.212 167.454 203.325L168.588 203.603C169.271 203.769 169.779 204.023 170.114 204.364C170.449 204.702 170.616 205.138 170.616 205.672C170.616 206.109 170.49 206.5 170.238 206.845C169.99 207.19 169.642 207.461 169.194 207.66C168.747 207.859 168.227 207.959 167.633 207.959C166.854 207.959 166.21 207.789 165.699 207.451C165.189 207.113 164.866 206.62 164.73 205.97L165.844 205.691C165.95 206.102 166.15 206.411 166.445 206.616C166.743 206.822 167.133 206.924 167.613 206.924C168.16 206.924 168.595 206.808 168.916 206.576C169.241 206.341 169.403 206.059 169.403 205.731C169.403 205.466 169.31 205.244 169.125 205.065C168.939 204.883 168.654 204.747 168.27 204.657L166.997 204.359C166.298 204.193 165.784 203.937 165.456 203.589C165.131 203.237 164.969 202.798 164.969 202.271C164.969 201.84 165.09 201.459 165.331 201.128C165.577 200.796 165.91 200.536 166.331 200.347C166.755 200.158 167.236 200.064 167.773 200.064C168.528 200.064 169.122 200.229 169.552 200.561C169.987 200.892 170.295 201.33 170.477 201.873Z" fill="#3F4346"/>
<path d="M232.981 201.133L236.222 204.466L239.463 201.133H232.981Z" fill="#5D6164"/>
<rect x="252" y="187.799" width="136" height="30" stroke="#D5D9DC"/>
<path d="M266.483 201.873L265.429 202.172C265.363 201.996 265.265 201.825 265.136 201.66C265.01 201.49 264.837 201.351 264.619 201.242C264.4 201.133 264.12 201.078 263.778 201.078C263.311 201.078 262.922 201.186 262.61 201.401C262.302 201.613 262.148 201.883 262.148 202.211C262.148 202.503 262.254 202.733 262.466 202.902C262.678 203.071 263.009 203.212 263.46 203.325L264.594 203.603C265.277 203.769 265.785 204.023 266.12 204.364C266.455 204.702 266.622 205.138 266.622 205.672C266.622 206.109 266.496 206.5 266.244 206.845C265.996 207.19 265.648 207.461 265.2 207.66C264.753 207.859 264.232 207.959 263.639 207.959C262.86 207.959 262.216 207.789 261.705 207.451C261.195 207.113 260.872 206.62 260.736 205.97L261.849 205.691C261.955 206.102 262.156 206.411 262.451 206.616C262.749 206.822 263.139 206.924 263.619 206.924C264.166 206.924 264.6 206.808 264.922 206.576C265.247 206.341 265.409 206.059 265.409 205.731C265.409 205.466 265.316 205.244 265.131 205.065C264.945 204.883 264.66 204.747 264.276 204.657L263.003 204.359C262.304 204.193 261.79 203.937 261.462 203.589C261.137 203.237 260.974 202.798 260.974 202.271C260.974 201.84 261.095 201.459 261.337 201.128C261.583 200.796 261.916 200.536 262.337 200.347C262.761 200.158 263.241 200.064 263.778 200.064C264.534 200.064 265.127 200.229 265.558 200.561C265.992 200.892 266.301 201.33 266.483 201.873ZM271.59 207.959C270.854 207.959 270.22 207.796 269.686 207.471C269.156 207.143 268.746 206.686 268.458 206.099C268.173 205.509 268.03 204.823 268.03 204.041C268.03 203.259 268.173 202.569 268.458 201.973C268.746 201.373 269.147 200.905 269.661 200.571C270.178 200.233 270.781 200.064 271.471 200.064C271.868 200.064 272.261 200.13 272.649 200.263C273.037 200.395 273.39 200.611 273.708 200.909C274.026 201.204 274.28 201.595 274.469 202.082C274.657 202.569 274.752 203.169 274.752 203.882V204.379H268.866V203.365H273.559C273.559 202.934 273.473 202.549 273.3 202.211C273.131 201.873 272.889 201.606 272.574 201.411C272.263 201.215 271.895 201.118 271.471 201.118C271.003 201.118 270.599 201.234 270.258 201.466C269.92 201.694 269.659 201.993 269.477 202.361C269.295 202.728 269.204 203.123 269.204 203.544V204.22C269.204 204.797 269.303 205.285 269.502 205.687C269.704 206.084 269.984 206.388 270.342 206.596C270.7 206.802 271.116 206.905 271.59 206.905C271.898 206.905 272.177 206.861 272.425 206.775C272.677 206.686 272.894 206.553 273.077 206.378C273.259 206.199 273.4 205.977 273.499 205.711L274.633 206.03C274.513 206.414 274.313 206.752 274.031 207.044C273.749 207.332 273.401 207.557 272.987 207.72C272.573 207.879 272.107 207.959 271.59 207.959ZM277.71 197.618V207.799H276.537V197.618H277.71ZM283.061 207.959C282.325 207.959 281.69 207.796 281.157 207.471C280.626 207.143 280.217 206.686 279.929 206.099C279.644 205.509 279.501 204.823 279.501 204.041C279.501 203.259 279.644 202.569 279.929 201.973C280.217 201.373 280.618 200.905 281.132 200.571C281.649 200.233 282.252 200.064 282.941 200.064C283.339 200.064 283.732 200.13 284.12 200.263C284.507 200.395 284.86 200.611 285.179 200.909C285.497 201.204 285.75 201.595 285.939 202.082C286.128 202.569 286.223 203.169 286.223 203.882V204.379H280.336V203.365H285.029C285.029 202.934 284.943 202.549 284.771 202.211C284.602 201.873 284.36 201.606 284.045 201.411C283.734 201.215 283.366 201.118 282.941 201.118C282.474 201.118 282.07 201.234 281.728 201.466C281.39 201.694 281.13 201.993 280.948 202.361C280.766 202.728 280.674 203.123 280.674 203.544V204.22C280.674 204.797 280.774 205.285 280.973 205.687C281.175 206.084 281.455 206.388 281.813 206.596C282.171 206.802 282.587 206.905 283.061 206.905C283.369 206.905 283.647 206.861 283.896 206.775C284.148 206.686 284.365 206.553 284.547 206.378C284.73 206.199 284.87 205.977 284.97 205.711L286.103 206.03C285.984 206.414 285.783 206.752 285.502 207.044C285.22 207.332 284.872 207.557 284.458 207.72C284.043 207.879 283.578 207.959 283.061 207.959ZM291.11 207.959C290.394 207.959 289.777 207.789 289.26 207.451C288.743 207.113 288.346 206.648 288.067 206.054C287.789 205.461 287.65 204.783 287.65 204.021C287.65 203.245 287.792 202.561 288.077 201.968C288.365 201.371 288.766 200.905 289.28 200.571C289.797 200.233 290.4 200.064 291.09 200.064C291.627 200.064 292.111 200.163 292.542 200.362C292.972 200.561 293.325 200.839 293.6 201.197C293.876 201.555 294.046 201.973 294.113 202.45H292.939C292.85 202.102 292.651 201.794 292.343 201.525C292.038 201.254 291.627 201.118 291.11 201.118C290.652 201.118 290.251 201.237 289.907 201.476C289.565 201.711 289.298 202.044 289.106 202.475C288.917 202.902 288.823 203.405 288.823 203.981C288.823 204.571 288.916 205.085 289.101 205.522C289.29 205.96 289.555 206.3 289.897 206.542C290.241 206.784 290.646 206.905 291.11 206.905C291.415 206.905 291.691 206.852 291.94 206.745C292.189 206.639 292.399 206.487 292.571 206.288C292.744 206.089 292.866 205.851 292.939 205.572H294.113C294.046 206.023 293.882 206.429 293.62 206.79C293.362 207.148 293.019 207.433 292.591 207.645C292.167 207.854 291.673 207.959 291.11 207.959ZM299.149 200.163V201.157H295.191V200.163H299.149ZM296.345 198.334H297.518V205.612C297.518 205.943 297.566 206.192 297.662 206.358C297.762 206.52 297.888 206.629 298.04 206.686C298.196 206.739 298.36 206.765 298.532 206.765C298.662 206.765 298.768 206.759 298.85 206.745C298.933 206.729 299 206.716 299.049 206.706L299.288 207.76C299.208 207.789 299.097 207.819 298.955 207.849C298.812 207.882 298.632 207.899 298.413 207.899C298.082 207.899 297.757 207.828 297.439 207.685C297.124 207.543 296.862 207.325 296.653 207.034C296.448 206.742 296.345 206.374 296.345 205.93V198.334ZM307.953 207.959C307.264 207.959 306.659 207.794 306.139 207.466C305.622 207.138 305.217 206.679 304.926 206.089C304.637 205.499 304.493 204.81 304.493 204.021C304.493 203.226 304.637 202.531 304.926 201.938C305.217 201.345 305.622 200.884 306.139 200.556C306.659 200.228 307.264 200.064 307.953 200.064C308.643 200.064 309.246 200.228 309.763 200.556C310.283 200.884 310.688 201.345 310.976 201.938C311.268 202.531 311.414 203.226 311.414 204.021C311.414 204.81 311.268 205.499 310.976 206.089C310.688 206.679 310.283 207.138 309.763 207.466C309.246 207.794 308.643 207.959 307.953 207.959ZM307.953 206.905C308.477 206.905 308.908 206.77 309.246 206.502C309.584 206.233 309.834 205.88 309.997 205.443C310.159 205.005 310.24 204.531 310.24 204.021C310.24 203.511 310.159 203.035 309.997 202.594C309.834 202.153 309.584 201.797 309.246 201.525C308.908 201.254 308.477 201.118 307.953 201.118C307.43 201.118 306.999 201.254 306.661 201.525C306.323 201.797 306.073 202.153 305.91 202.594C305.748 203.035 305.667 203.511 305.667 204.021C305.667 204.531 305.748 205.005 305.91 205.443C306.073 205.88 306.323 206.233 306.661 206.502C306.999 206.77 307.43 206.905 307.953 206.905ZM313.205 210.663V200.163H314.338V201.376H314.477C314.564 201.244 314.683 201.075 314.835 200.869C314.991 200.66 315.213 200.475 315.502 200.312C315.793 200.147 316.188 200.064 316.685 200.064C317.328 200.064 317.895 200.224 318.385 200.546C318.876 200.867 319.258 201.323 319.534 201.913C319.809 202.503 319.946 203.199 319.946 204.001C319.946 204.81 319.809 205.511 319.534 206.104C319.258 206.694 318.877 207.151 318.39 207.476C317.903 207.798 317.341 207.959 316.705 207.959C316.214 207.959 315.821 207.877 315.526 207.715C315.231 207.549 315.004 207.362 314.845 207.153C314.686 206.941 314.564 206.765 314.477 206.626H314.378V210.663H313.205ZM314.358 203.981C314.358 204.558 314.443 205.067 314.612 205.508C314.781 205.945 315.028 206.288 315.352 206.537C315.677 206.782 316.075 206.905 316.546 206.905C317.036 206.905 317.445 206.775 317.774 206.517C318.105 206.255 318.354 205.904 318.519 205.463C318.688 205.019 318.773 204.525 318.773 203.981C318.773 203.444 318.69 202.96 318.524 202.53C318.362 202.095 318.115 201.752 317.784 201.5C317.455 201.245 317.043 201.118 316.546 201.118C316.068 201.118 315.667 201.239 315.343 201.481C315.018 201.719 314.772 202.054 314.607 202.485C314.441 202.912 314.358 203.411 314.358 203.981ZM324.938 207.959C324.202 207.959 323.567 207.796 323.034 207.471C322.503 207.143 322.094 206.686 321.806 206.099C321.521 205.509 321.378 204.823 321.378 204.041C321.378 203.259 321.521 202.569 321.806 201.973C322.094 201.373 322.495 200.905 323.009 200.571C323.526 200.233 324.129 200.064 324.818 200.064C325.216 200.064 325.609 200.13 325.997 200.263C326.384 200.395 326.737 200.611 327.056 200.909C327.374 201.204 327.627 201.595 327.816 202.082C328.005 202.569 328.1 203.169 328.1 203.882V204.379H322.213V203.365H326.906C326.906 202.934 326.82 202.549 326.648 202.211C326.479 201.873 326.237 201.606 325.922 201.411C325.61 201.215 325.243 201.118 324.818 201.118C324.351 201.118 323.947 201.234 323.605 201.466C323.267 201.694 323.007 201.993 322.825 202.361C322.642 202.728 322.551 203.123 322.551 203.544V204.22C322.551 204.797 322.651 205.285 322.85 205.687C323.052 206.084 323.332 206.388 323.69 206.596C324.048 206.802 324.464 206.905 324.938 206.905C325.246 206.905 325.524 206.861 325.773 206.775C326.025 206.686 326.242 206.553 326.424 206.378C326.606 206.199 326.747 205.977 326.847 205.711L327.98 206.03C327.861 206.414 327.66 206.752 327.379 207.044C327.097 207.332 326.749 207.557 326.335 207.72C325.92 207.879 325.455 207.959 324.938 207.959ZM329.884 207.799V200.163H331.018V201.316H331.097C331.237 200.939 331.489 200.632 331.853 200.397C332.218 200.161 332.629 200.044 333.086 200.044C333.172 200.044 333.28 200.045 333.409 200.049C333.539 200.052 333.636 200.057 333.703 200.064V201.257C333.663 201.247 333.572 201.232 333.429 201.212C333.29 201.189 333.142 201.177 332.987 201.177C332.615 201.177 332.284 201.255 331.992 201.411C331.704 201.563 331.475 201.776 331.306 202.047C331.141 202.316 331.058 202.622 331.058 202.967V207.799H329.884ZM337.341 207.978C336.857 207.978 336.417 207.887 336.023 207.705C335.629 207.519 335.315 207.253 335.083 206.905C334.851 206.553 334.735 206.129 334.735 205.632C334.735 205.194 334.822 204.84 334.994 204.568C335.166 204.293 335.397 204.077 335.685 203.922C335.973 203.766 336.292 203.65 336.64 203.574C336.991 203.494 337.344 203.431 337.699 203.385C338.163 203.325 338.539 203.28 338.827 203.25C339.119 203.217 339.331 203.163 339.463 203.086C339.599 203.01 339.667 202.878 339.667 202.689V202.649C339.667 202.158 339.533 201.777 339.265 201.505C338.999 201.234 338.597 201.098 338.056 201.098C337.496 201.098 337.057 201.22 336.739 201.466C336.421 201.711 336.197 201.973 336.068 202.251L334.954 201.853C335.153 201.389 335.418 201.028 335.75 200.77C336.084 200.508 336.449 200.325 336.843 200.223C337.241 200.117 337.632 200.064 338.017 200.064C338.262 200.064 338.544 200.093 338.862 200.153C339.183 200.209 339.493 200.327 339.792 200.506C340.093 200.685 340.343 200.955 340.542 201.316C340.741 201.678 340.841 202.162 340.841 202.768V207.799H339.667V206.765H339.608C339.528 206.931 339.395 207.108 339.21 207.297C339.024 207.486 338.777 207.647 338.469 207.78C338.161 207.912 337.785 207.978 337.341 207.978ZM337.52 206.924C337.984 206.924 338.375 206.833 338.693 206.651C339.014 206.469 339.256 206.233 339.419 205.945C339.584 205.657 339.667 205.353 339.667 205.035V203.961C339.618 204.021 339.508 204.076 339.339 204.125C339.173 204.172 338.981 204.213 338.762 204.25C338.547 204.283 338.337 204.313 338.131 204.339C337.929 204.362 337.765 204.382 337.639 204.399C337.334 204.439 337.049 204.503 336.784 204.593C336.522 204.679 336.31 204.81 336.147 204.986C335.988 205.158 335.909 205.393 335.909 205.691C335.909 206.099 336.06 206.407 336.361 206.616C336.666 206.822 337.052 206.924 337.52 206.924ZM346.303 200.163V201.157H342.346V200.163H346.303ZM343.499 198.334H344.672V205.612C344.672 205.943 344.72 206.192 344.817 206.358C344.916 206.52 345.042 206.629 345.194 206.686C345.35 206.739 345.514 206.765 345.687 206.765C345.816 206.765 345.922 206.759 346.005 206.745C346.088 206.729 346.154 206.716 346.204 206.706L346.442 207.76C346.363 207.789 346.252 207.819 346.109 207.849C345.967 207.882 345.786 207.899 345.567 207.899C345.236 207.899 344.911 207.828 344.593 207.685C344.278 207.543 344.016 207.325 343.807 207.034C343.602 206.742 343.499 206.374 343.499 205.93V198.334ZM351.088 207.959C350.399 207.959 349.794 207.794 349.274 207.466C348.757 207.138 348.352 206.679 348.061 206.089C347.772 205.499 347.628 204.81 347.628 204.021C347.628 203.226 347.772 202.531 348.061 201.938C348.352 201.345 348.757 200.884 349.274 200.556C349.794 200.228 350.399 200.064 351.088 200.064C351.778 200.064 352.381 200.228 352.898 200.556C353.418 200.884 353.823 201.345 354.111 201.938C354.403 202.531 354.548 203.226 354.548 204.021C354.548 204.81 354.403 205.499 354.111 206.089C353.823 206.679 353.418 207.138 352.898 207.466C352.381 207.794 351.778 207.959 351.088 207.959ZM351.088 206.905C351.612 206.905 352.043 206.77 352.381 206.502C352.719 206.233 352.969 205.88 353.132 205.443C353.294 205.005 353.375 204.531 353.375 204.021C353.375 203.511 353.294 203.035 353.132 202.594C352.969 202.153 352.719 201.797 352.381 201.525C352.043 201.254 351.612 201.118 351.088 201.118C350.565 201.118 350.134 201.254 349.796 201.525C349.458 201.797 349.207 202.153 349.045 202.594C348.883 203.035 348.801 203.511 348.801 204.021C348.801 204.531 348.883 205.005 349.045 205.443C349.207 205.88 349.458 206.233 349.796 206.502C350.134 206.77 350.565 206.905 351.088 206.905ZM356.339 207.799V200.163H357.473V201.316H357.553C357.692 200.939 357.944 200.632 358.308 200.397C358.673 200.161 359.084 200.044 359.541 200.044C359.627 200.044 359.735 200.045 359.864 200.049C359.994 200.052 360.091 200.057 360.158 200.064V201.257C360.118 201.247 360.027 201.232 359.884 201.212C359.745 201.189 359.598 201.177 359.442 201.177C359.071 201.177 358.739 201.255 358.447 201.411C358.159 201.563 357.93 201.776 357.761 202.047C357.596 202.316 357.513 202.622 357.513 202.967V207.799H356.339Z" fill="#3F4346"/>
<path d="M368.981 201.133L372.222 204.466L375.463 201.133H368.981Z" fill="#5D6164"/>
<rect x="388" y="187.799" width="136" height="30" stroke="#D5D9DC"/>
<path d="M397.233 207.799V197.618H403.378V198.711H398.466V202.152H403.06V203.245H398.466V206.706H403.457V207.799H397.233ZM406.614 203.206V207.799H405.441V200.163H406.575V201.356H406.674C406.853 200.968 407.125 200.657 407.489 200.422C407.854 200.183 408.325 200.064 408.901 200.064C409.418 200.064 409.871 200.17 410.259 200.382C410.646 200.591 410.948 200.909 411.163 201.336C411.379 201.761 411.487 202.298 411.487 202.947V207.799H410.313V203.027C410.313 202.427 410.157 201.959 409.846 201.625C409.534 201.287 409.107 201.118 408.563 201.118C408.189 201.118 407.854 201.199 407.559 201.361C407.267 201.524 407.037 201.761 406.868 202.072C406.699 202.384 406.614 202.762 406.614 203.206ZM416.952 200.163V201.157H412.994V200.163H416.952ZM414.148 198.334H415.321V205.612C415.321 205.943 415.369 206.192 415.465 206.358C415.564 206.52 415.69 206.629 415.843 206.686C415.999 206.739 416.163 206.765 416.335 206.765C416.464 206.765 416.57 206.759 416.653 206.745C416.736 206.729 416.802 206.716 416.852 206.706L417.091 207.76C417.011 207.789 416.9 207.819 416.758 207.849C416.615 207.882 416.434 207.899 416.216 207.899C415.884 207.899 415.559 207.828 415.241 207.685C414.926 207.543 414.665 207.325 414.456 207.034C414.25 206.742 414.148 206.374 414.148 205.93V198.334ZM421.836 207.959C421.1 207.959 420.466 207.796 419.932 207.471C419.402 207.143 418.992 206.686 418.704 206.099C418.419 205.509 418.276 204.823 418.276 204.041C418.276 203.259 418.419 202.569 418.704 201.973C418.992 201.373 419.393 200.905 419.907 200.571C420.424 200.233 421.027 200.064 421.717 200.064C422.115 200.064 422.507 200.13 422.895 200.263C423.283 200.395 423.636 200.611 423.954 200.909C424.272 201.204 424.526 201.595 424.715 202.082C424.904 202.569 424.998 203.169 424.998 203.882V204.379H419.112V203.365H423.805C423.805 202.934 423.719 202.549 423.546 202.211C423.377 201.873 423.135 201.606 422.82 201.411C422.509 201.215 422.141 201.118 421.717 201.118C421.249 201.118 420.845 201.234 420.504 201.466C420.166 201.694 419.905 201.993 419.723 202.361C419.541 202.728 419.45 203.123 419.45 203.544V204.22C419.45 204.797 419.549 205.285 419.748 205.687C419.95 206.084 420.23 206.388 420.588 206.596C420.946 206.802 421.362 206.905 421.836 206.905C422.144 206.905 422.423 206.861 422.671 206.775C422.923 206.686 423.14 206.553 423.323 206.378C423.505 206.199 423.646 205.977 423.745 205.711L424.879 206.03C424.759 206.414 424.559 206.752 424.277 207.044C423.995 207.332 423.647 207.557 423.233 207.72C422.819 207.879 422.353 207.959 421.836 207.959ZM426.783 207.799V200.163H427.916V201.316H427.996C428.135 200.939 428.387 200.632 428.752 200.397C429.116 200.161 429.527 200.044 429.985 200.044C430.071 200.044 430.178 200.045 430.308 200.049C430.437 200.052 430.535 200.057 430.601 200.064V201.257C430.561 201.247 430.47 201.232 430.328 201.212C430.188 201.189 430.041 201.177 429.885 201.177C429.514 201.177 429.182 201.255 428.891 201.411C428.602 201.563 428.374 201.776 428.205 202.047C428.039 202.316 427.956 202.622 427.956 202.967V207.799H426.783ZM438.176 207.978C437.693 207.978 437.253 207.887 436.859 207.705C436.465 207.519 436.151 207.253 435.919 206.905C435.687 206.553 435.571 206.129 435.571 205.632C435.571 205.194 435.658 204.84 435.83 204.568C436.002 204.293 436.233 204.077 436.521 203.922C436.809 203.766 437.127 203.65 437.475 203.574C437.827 203.494 438.18 203.431 438.534 203.385C438.998 203.325 439.375 203.28 439.663 203.25C439.955 203.217 440.167 203.163 440.299 203.086C440.435 203.01 440.503 202.878 440.503 202.689V202.649C440.503 202.158 440.369 201.777 440.1 201.505C439.835 201.234 439.433 201.098 438.892 201.098C438.332 201.098 437.893 201.22 437.575 201.466C437.257 201.711 437.033 201.973 436.904 202.251L435.79 201.853C435.989 201.389 436.254 201.028 436.586 200.77C436.92 200.508 437.285 200.325 437.679 200.223C438.077 200.117 438.468 200.064 438.853 200.064C439.098 200.064 439.38 200.093 439.698 200.153C440.019 200.209 440.329 200.327 440.627 200.506C440.929 200.685 441.179 200.955 441.378 201.316C441.577 201.678 441.676 202.162 441.676 202.768V207.799H440.503V206.765H440.444C440.364 206.931 440.231 207.108 440.046 207.297C439.86 207.486 439.613 207.647 439.305 207.78C438.997 207.912 438.621 207.978 438.176 207.978ZM438.355 206.924C438.819 206.924 439.211 206.833 439.529 206.651C439.85 206.469 440.092 206.233 440.255 205.945C440.42 205.657 440.503 205.353 440.503 205.035V203.961C440.453 204.021 440.344 204.076 440.175 204.125C440.009 204.172 439.817 204.213 439.598 204.25C439.383 204.283 439.172 204.313 438.967 204.339C438.765 204.362 438.601 204.382 438.475 204.399C438.17 204.439 437.885 204.503 437.62 204.593C437.358 204.679 437.146 204.81 436.983 204.986C436.824 205.158 436.745 205.393 436.745 205.691C436.745 206.099 436.895 206.407 437.197 206.616C437.502 206.822 437.888 206.924 438.355 206.924ZM454 200.163L451.176 207.799H449.983L447.159 200.163H448.432L450.54 206.248H450.619L452.727 200.163H454ZM457.563 207.978C457.079 207.978 456.64 207.887 456.246 207.705C455.851 207.519 455.538 207.253 455.306 206.905C455.074 206.553 454.958 206.129 454.958 205.632C454.958 205.194 455.044 204.84 455.217 204.568C455.389 204.293 455.619 204.077 455.908 203.922C456.196 203.766 456.514 203.65 456.862 203.574C457.214 203.494 457.567 203.431 457.921 203.385C458.385 203.325 458.761 203.28 459.05 203.25C459.341 203.217 459.554 203.163 459.686 203.086C459.822 203.01 459.89 202.878 459.89 202.689V202.649C459.89 202.158 459.756 201.777 459.487 201.505C459.222 201.234 458.819 201.098 458.279 201.098C457.719 201.098 457.28 201.22 456.962 201.466C456.643 201.711 456.42 201.973 456.29 202.251L455.177 201.853C455.376 201.389 455.641 201.028 455.972 200.77C456.307 200.508 456.672 200.325 457.066 200.223C457.464 200.117 457.855 200.064 458.239 200.064C458.485 200.064 458.766 200.093 459.085 200.153C459.406 200.209 459.716 200.327 460.014 200.506C460.316 200.685 460.566 200.955 460.765 201.316C460.964 201.678 461.063 202.162 461.063 202.768V207.799H459.89V206.765H459.83C459.751 206.931 459.618 207.108 459.433 207.297C459.247 207.486 459 207.647 458.692 207.78C458.384 207.912 458.007 207.978 457.563 207.978ZM457.742 206.924C458.206 206.924 458.597 206.833 458.915 206.651C459.237 206.469 459.479 206.233 459.641 205.945C459.807 205.657 459.89 205.353 459.89 205.035V203.961C459.84 204.021 459.731 204.076 459.562 204.125C459.396 204.172 459.204 204.213 458.985 204.25C458.77 204.283 458.559 204.313 458.354 204.339C458.152 204.362 457.987 204.382 457.862 204.399C457.557 204.439 457.272 204.503 457.006 204.593C456.745 204.679 456.532 204.81 456.37 204.986C456.211 205.158 456.131 205.393 456.131 205.691C456.131 206.099 456.282 206.407 456.584 206.616C456.889 206.822 457.275 206.924 457.742 206.924ZM464.378 197.618V207.799H463.205V197.618H464.378ZM471.339 204.677V200.163H472.513V207.799H471.339V206.507H471.26C471.081 206.895 470.803 207.224 470.425 207.496C470.047 207.765 469.57 207.899 468.993 207.899C468.516 207.899 468.091 207.794 467.72 207.586C467.349 207.374 467.057 207.055 466.845 206.631C466.633 206.204 466.527 205.665 466.527 205.015V200.163H467.7V204.936C467.7 205.493 467.856 205.937 468.168 206.268C468.482 206.6 468.884 206.765 469.371 206.765C469.662 206.765 469.959 206.691 470.261 206.542C470.566 206.392 470.821 206.164 471.026 205.856C471.235 205.547 471.339 205.155 471.339 204.677ZM477.863 207.959C477.128 207.959 476.493 207.796 475.959 207.471C475.429 207.143 475.02 206.686 474.731 206.099C474.446 205.509 474.304 204.823 474.304 204.041C474.304 203.259 474.446 202.569 474.731 201.973C475.02 201.373 475.421 200.905 475.934 200.571C476.452 200.233 477.055 200.064 477.744 200.064C478.142 200.064 478.535 200.13 478.922 200.263C479.31 200.395 479.663 200.611 479.981 200.909C480.3 201.204 480.553 201.595 480.742 202.082C480.931 202.569 481.025 203.169 481.025 203.882V204.379H475.139V203.365H479.832C479.832 202.934 479.746 202.549 479.574 202.211C479.405 201.873 479.163 201.606 478.848 201.411C478.536 201.215 478.168 201.118 477.744 201.118C477.277 201.118 476.872 201.234 476.531 201.466C476.193 201.694 475.933 201.993 475.751 202.361C475.568 202.728 475.477 203.123 475.477 203.544V204.22C475.477 204.797 475.577 205.285 475.775 205.687C475.978 206.084 476.258 206.388 476.616 206.596C476.974 206.802 477.39 206.905 477.863 206.905C478.172 206.905 478.45 206.861 478.699 206.775C478.951 206.686 479.168 206.553 479.35 206.378C479.532 206.199 479.673 205.977 479.773 205.711L480.906 206.03C480.787 206.414 480.586 206.752 480.305 207.044C480.023 207.332 479.675 207.557 479.26 207.72C478.846 207.879 478.381 207.959 477.863 207.959Z" fill="#8F9396"/>
<rect x="524" y="187.799" width="30" height="30" stroke="#D5D9DC"/>
<path d="M542 200.549V208.049H536V200.549H542ZM540.875 196.049H537.125L536.375 196.799H533.75V198.299H544.25V196.799H541.625L540.875 196.049ZM543.5 199.049H534.5V208.049C534.5 208.874 535.175 209.549 536 209.549H542C542.825 209.549 543.5 208.874 543.5 208.049V199.049Z" fill="#5D6164"/>
</g>
<rect x="132.5" y="188.299" width="421" height="29" rx="3.5" stroke="#D5D9DC"/>
<rect x="223" y="313.799" width="157" height="40" rx="4" fill="#7B7F82" fill-opacity="0.1"/>
<path d="M249.25 334.549H244.75V339.049H243.25V334.549H238.75V333.049H243.25V328.549H244.75V333.049H249.25V334.549Z" fill="#3F4346"/>
<path d="M259.261 339.799H257.398L261.585 328.163H263.614L267.801 339.799H265.938L262.648 330.277H262.557L259.261 339.799ZM259.574 335.243H265.619V336.72H259.574V335.243ZM272.472 339.97C271.767 339.97 271.138 339.79 270.585 339.43C270.036 339.066 269.604 338.549 269.29 337.879C268.979 337.205 268.824 336.396 268.824 335.453C268.824 334.51 268.981 333.703 269.295 333.032C269.614 332.362 270.049 331.849 270.602 331.493C271.155 331.137 271.782 330.959 272.483 330.959C273.025 330.959 273.46 331.049 273.79 331.231C274.123 331.409 274.381 331.618 274.562 331.856C274.748 332.095 274.892 332.305 274.994 332.487H275.097V328.163H276.795V339.799H275.136V338.441H274.994C274.892 338.627 274.744 338.839 274.551 339.078C274.362 339.316 274.1 339.525 273.767 339.703C273.434 339.881 273.002 339.97 272.472 339.97ZM272.847 338.521C273.335 338.521 273.748 338.392 274.085 338.135C274.426 337.873 274.684 337.512 274.858 337.049C275.036 336.587 275.125 336.049 275.125 335.436C275.125 334.83 275.038 334.299 274.864 333.845C274.689 333.39 274.434 333.036 274.097 332.782C273.759 332.529 273.343 332.402 272.847 332.402C272.335 332.402 271.909 332.534 271.568 332.799C271.227 333.065 270.97 333.426 270.795 333.885C270.625 334.343 270.54 334.86 270.54 335.436C270.54 336.019 270.627 336.544 270.801 337.01C270.975 337.476 271.233 337.845 271.574 338.118C271.919 338.387 272.343 338.521 272.847 338.521ZM282.487 339.97C281.783 339.97 281.154 339.79 280.601 339.43C280.052 339.066 279.62 338.549 279.305 337.879C278.995 337.205 278.839 336.396 278.839 335.453C278.839 334.51 278.997 333.703 279.311 333.032C279.629 332.362 280.065 331.849 280.618 331.493C281.171 331.137 281.798 330.959 282.499 330.959C283.04 330.959 283.476 331.049 283.805 331.231C284.139 331.409 284.396 331.618 284.578 331.856C284.764 332.095 284.908 332.305 285.01 332.487H285.112V328.163H286.811V339.799H285.152V338.441H285.01C284.908 338.627 284.76 338.839 284.567 339.078C284.377 339.316 284.116 339.525 283.783 339.703C283.449 339.881 283.018 339.97 282.487 339.97ZM282.862 338.521C283.351 338.521 283.764 338.392 284.101 338.135C284.442 337.873 284.699 337.512 284.874 337.049C285.052 336.587 285.141 336.049 285.141 335.436C285.141 334.83 285.054 334.299 284.879 333.845C284.705 333.39 284.449 333.036 284.112 332.782C283.775 332.529 283.358 332.402 282.862 332.402C282.351 332.402 281.925 332.534 281.584 332.799C281.243 333.065 280.985 333.426 280.811 333.885C280.641 334.343 280.555 334.86 280.555 335.436C280.555 336.019 280.643 336.544 280.817 337.01C280.991 337.476 281.249 337.845 281.589 338.118C281.934 338.387 282.358 338.521 282.862 338.521ZM297.146 339.976C296.302 339.976 295.574 339.784 294.964 339.402C294.358 339.015 293.893 338.483 293.567 337.805C293.241 337.127 293.078 336.351 293.078 335.476C293.078 334.589 293.245 333.807 293.578 333.129C293.911 332.447 294.381 331.915 294.987 331.532C295.593 331.15 296.307 330.959 297.129 330.959C297.792 330.959 298.383 331.082 298.902 331.328C299.421 331.57 299.839 331.911 300.158 332.351C300.48 332.79 300.671 333.303 300.732 333.89H299.078C298.987 333.481 298.779 333.129 298.453 332.834C298.131 332.538 297.699 332.39 297.158 332.39C296.684 332.39 296.269 332.515 295.913 332.765C295.561 333.012 295.286 333.364 295.089 333.822C294.893 334.277 294.794 334.815 294.794 335.436C294.794 336.072 294.891 336.621 295.084 337.084C295.277 337.546 295.55 337.904 295.902 338.157C296.258 338.411 296.677 338.538 297.158 338.538C297.48 338.538 297.771 338.479 298.033 338.362C298.298 338.241 298.519 338.068 298.697 337.845C298.879 337.621 299.006 337.352 299.078 337.038H300.732C300.671 337.602 300.487 338.106 300.18 338.549C299.874 338.993 299.463 339.341 298.947 339.595C298.436 339.849 297.836 339.976 297.146 339.976ZM306.224 339.976C305.406 339.976 304.692 339.788 304.082 339.413C303.473 339.038 302.999 338.513 302.662 337.839C302.325 337.165 302.156 336.377 302.156 335.476C302.156 334.57 302.325 333.779 302.662 333.101C302.999 332.423 303.473 331.896 304.082 331.521C304.692 331.146 305.406 330.959 306.224 330.959C307.043 330.959 307.757 331.146 308.366 331.521C308.976 331.896 309.45 332.423 309.787 333.101C310.124 333.779 310.293 334.57 310.293 335.476C310.293 336.377 310.124 337.165 309.787 337.839C309.45 338.513 308.976 339.038 308.366 339.413C307.757 339.788 307.043 339.976 306.224 339.976ZM306.23 338.549C306.76 338.549 307.2 338.409 307.548 338.129C307.897 337.849 308.154 337.476 308.321 337.01C308.491 336.544 308.577 336.03 308.577 335.47C308.577 334.913 308.491 334.402 308.321 333.936C308.154 333.466 307.897 333.089 307.548 332.805C307.2 332.521 306.76 332.379 306.23 332.379C305.696 332.379 305.253 332.521 304.901 332.805C304.552 333.089 304.293 333.466 304.122 333.936C303.955 334.402 303.872 334.913 303.872 335.47C303.872 336.03 303.955 336.544 304.122 337.01C304.293 337.476 304.552 337.849 304.901 338.129C305.253 338.409 305.696 338.549 306.23 338.549ZM313.888 334.618V339.799H312.189V331.072H313.82V332.493H313.928C314.128 332.03 314.443 331.659 314.871 331.379C315.303 331.099 315.846 330.959 316.501 330.959C317.096 330.959 317.617 331.084 318.064 331.334C318.511 331.58 318.857 331.947 319.104 332.436C319.35 332.924 319.473 333.529 319.473 334.248V339.799H317.774V334.453C317.774 333.82 317.609 333.326 317.28 332.97C316.95 332.61 316.498 332.43 315.922 332.43C315.528 332.43 315.178 332.515 314.871 332.686C314.568 332.856 314.327 333.106 314.149 333.436C313.975 333.762 313.888 334.155 313.888 334.618ZM325.018 339.97C324.314 339.97 323.685 339.79 323.132 339.43C322.583 339.066 322.151 338.549 321.837 337.879C321.526 337.205 321.371 336.396 321.371 335.453C321.371 334.51 321.528 333.703 321.842 333.032C322.161 332.362 322.596 331.849 323.149 331.493C323.702 331.137 324.329 330.959 325.03 330.959C325.571 330.959 326.007 331.049 326.337 331.231C326.67 331.409 326.928 331.618 327.109 331.856C327.295 332.095 327.439 332.305 327.541 332.487H327.643V328.163H329.342V339.799H327.683V338.441H327.541C327.439 338.627 327.291 338.839 327.098 339.078C326.909 339.316 326.647 339.525 326.314 339.703C325.981 339.881 325.549 339.97 325.018 339.97ZM325.393 338.521C325.882 338.521 326.295 338.392 326.632 338.135C326.973 337.873 327.231 337.512 327.405 337.049C327.583 336.587 327.672 336.049 327.672 335.436C327.672 334.83 327.585 334.299 327.411 333.845C327.236 333.39 326.981 333.036 326.643 332.782C326.306 332.529 325.89 332.402 325.393 332.402C324.882 332.402 324.456 332.534 324.115 332.799C323.774 333.065 323.517 333.426 323.342 333.885C323.172 334.343 323.087 334.86 323.087 335.436C323.087 336.019 323.174 336.544 323.348 337.01C323.522 337.476 323.78 337.845 324.121 338.118C324.465 338.387 324.89 338.521 325.393 338.521ZM331.767 339.799V331.072H333.466V339.799H331.767ZM332.625 329.726C332.33 329.726 332.076 329.627 331.864 329.43C331.655 329.229 331.551 328.991 331.551 328.714C331.551 328.434 331.655 328.195 331.864 327.998C332.076 327.798 332.33 327.697 332.625 327.697C332.92 327.697 333.172 327.798 333.381 327.998C333.593 328.195 333.699 328.434 333.699 328.714C333.699 328.991 333.593 329.229 333.381 329.43C333.172 329.627 332.92 329.726 332.625 329.726ZM339.825 331.072V332.436H335.058V331.072H339.825ZM336.337 328.981H338.036V337.237C338.036 337.566 338.085 337.815 338.183 337.981C338.282 338.144 338.409 338.256 338.564 338.316C338.723 338.373 338.895 338.402 339.081 338.402C339.217 338.402 339.337 338.392 339.439 338.373C339.541 338.354 339.621 338.339 339.678 338.328L339.984 339.731C339.886 339.769 339.746 339.807 339.564 339.845C339.382 339.887 339.155 339.909 338.882 339.913C338.435 339.921 338.018 339.841 337.632 339.674C337.246 339.508 336.933 339.25 336.695 338.902C336.456 338.553 336.337 338.116 336.337 337.589V328.981ZM341.705 339.799V331.072H343.403V339.799H341.705ZM342.562 329.726C342.267 329.726 342.013 329.627 341.801 329.43C341.593 329.229 341.489 328.991 341.489 328.714C341.489 328.434 341.593 328.195 341.801 327.998C342.013 327.798 342.267 327.697 342.562 327.697C342.858 327.697 343.11 327.798 343.318 327.998C343.53 328.195 343.636 328.434 343.636 328.714C343.636 328.991 343.53 329.229 343.318 329.43C343.11 329.627 342.858 329.726 342.562 329.726ZM349.365 339.976C348.547 339.976 347.833 339.788 347.223 339.413C346.613 339.038 346.14 338.513 345.803 337.839C345.465 337.165 345.297 336.377 345.297 335.476C345.297 334.57 345.465 333.779 345.803 333.101C346.14 332.423 346.613 331.896 347.223 331.521C347.833 331.146 348.547 330.959 349.365 330.959C350.183 330.959 350.897 331.146 351.507 331.521C352.117 331.896 352.59 332.423 352.928 333.101C353.265 333.779 353.433 334.57 353.433 335.476C353.433 336.377 353.265 337.165 352.928 337.839C352.59 338.513 352.117 339.038 351.507 339.413C350.897 339.788 350.183 339.976 349.365 339.976ZM349.371 338.549C349.901 338.549 350.34 338.409 350.689 338.129C351.037 337.849 351.295 337.476 351.462 337.01C351.632 336.544 351.717 336.03 351.717 335.47C351.717 334.913 351.632 334.402 351.462 333.936C351.295 333.466 351.037 333.089 350.689 332.805C350.34 332.521 349.901 332.379 349.371 332.379C348.837 332.379 348.393 332.521 348.041 332.805C347.693 333.089 347.433 333.466 347.263 333.936C347.096 334.402 347.013 334.913 347.013 335.47C347.013 336.03 347.096 336.544 347.263 337.01C347.433 337.476 347.693 337.849 348.041 338.129C348.393 338.409 348.837 338.549 349.371 338.549ZM357.028 334.618V339.799H355.33V331.072H356.96V332.493H357.068C357.269 332.03 357.583 331.659 358.011 331.379C358.443 331.099 358.987 330.959 359.642 330.959C360.237 330.959 360.758 331.084 361.205 331.334C361.652 331.58 361.998 331.947 362.244 332.436C362.491 332.924 362.614 333.529 362.614 334.248V339.799H360.915V334.453C360.915 333.82 360.75 333.326 360.42 332.97C360.091 332.61 359.638 332.43 359.062 332.43C358.669 332.43 358.318 332.515 358.011 332.686C357.708 332.856 357.468 333.106 357.29 333.436C357.116 333.762 357.028 334.155 357.028 334.618Z" fill="#3F4346"/>
<rect x="132.5" y="90.2994" width="133" height="39" rx="3.5" stroke="#1E75BA"/>
<path d="M151.5 114.299H154.5V112.799H151.5V114.299ZM146.25 105.299V106.799H159.75V105.299H146.25ZM148.5 110.549H157.5V109.049H148.5V110.549Z" fill="#1E75BA"/>
<path d="M168.261 115.799H166.398L170.585 104.163H172.614L176.801 115.799H174.938L171.648 106.277H171.557L168.261 115.799ZM168.574 111.243H174.619V112.72H168.574V111.243ZM178.345 119.072V107.072H180.004V108.487H180.146C180.245 108.305 180.387 108.095 180.572 107.856C180.758 107.618 181.016 107.409 181.345 107.231C181.675 107.049 182.11 106.959 182.652 106.959C183.357 106.959 183.985 107.137 184.538 107.493C185.091 107.849 185.525 108.362 185.839 109.032C186.158 109.703 186.317 110.51 186.317 111.453C186.317 112.396 186.16 113.205 185.845 113.879C185.531 114.549 185.099 115.066 184.55 115.43C184 115.79 183.374 115.97 182.669 115.97C182.139 115.97 181.705 115.881 181.368 115.703C181.035 115.525 180.773 115.316 180.584 115.078C180.394 114.839 180.249 114.627 180.146 114.441H180.044V119.072H178.345ZM180.01 111.436C180.01 112.049 180.099 112.587 180.277 113.049C180.455 113.512 180.713 113.873 181.05 114.135C181.387 114.392 181.8 114.521 182.288 114.521C182.796 114.521 183.22 114.387 183.561 114.118C183.902 113.845 184.16 113.476 184.334 113.01C184.512 112.544 184.601 112.019 184.601 111.436C184.601 110.86 184.514 110.343 184.339 109.885C184.169 109.426 183.911 109.065 183.567 108.799C183.226 108.534 182.8 108.402 182.288 108.402C181.796 108.402 181.379 108.529 181.038 108.782C180.701 109.036 180.446 109.39 180.271 109.845C180.097 110.299 180.01 110.83 180.01 111.436ZM188.22 119.072V107.072H189.879V108.487H190.021C190.12 108.305 190.262 108.095 190.447 107.856C190.633 107.618 190.891 107.409 191.22 107.231C191.55 107.049 191.985 106.959 192.527 106.959C193.232 106.959 193.86 107.137 194.413 107.493C194.966 107.849 195.4 108.362 195.714 109.032C196.033 109.703 196.192 110.51 196.192 111.453C196.192 112.396 196.035 113.205 195.72 113.879C195.406 114.549 194.974 115.066 194.425 115.43C193.875 115.79 193.249 115.97 192.544 115.97C192.014 115.97 191.58 115.881 191.243 115.703C190.91 115.525 190.648 115.316 190.459 115.078C190.269 114.839 190.124 114.627 190.021 114.441H189.919V119.072H188.22ZM189.885 111.436C189.885 112.049 189.974 112.587 190.152 113.049C190.33 113.512 190.588 113.873 190.925 114.135C191.262 114.392 191.675 114.521 192.163 114.521C192.671 114.521 193.095 114.387 193.436 114.118C193.777 113.845 194.035 113.476 194.209 113.01C194.387 112.544 194.476 112.019 194.476 111.436C194.476 110.86 194.389 110.343 194.214 109.885C194.044 109.426 193.786 109.065 193.442 108.799C193.101 108.534 192.675 108.402 192.163 108.402C191.671 108.402 191.254 108.529 190.913 108.782C190.576 109.036 190.321 109.39 190.146 109.845C189.972 110.299 189.885 110.83 189.885 111.436ZM199.794 104.163V115.799H198.095V104.163H199.794ZM203.153 119.072C202.9 119.072 202.669 119.051 202.46 119.01C202.252 118.972 202.097 118.93 201.994 118.885L202.403 117.493C202.714 117.576 202.991 117.612 203.233 117.601C203.475 117.589 203.689 117.498 203.875 117.328C204.064 117.157 204.231 116.879 204.375 116.493L204.585 115.913L201.392 107.072H203.21L205.42 113.845H205.511L207.722 107.072H209.545L205.949 116.964C205.782 117.419 205.57 117.803 205.312 118.118C205.055 118.436 204.748 118.674 204.392 118.834C204.036 118.993 203.623 119.072 203.153 119.072ZM219.53 107.072V108.436H214.598V107.072H219.53ZM215.95 115.799V106.061C215.95 105.515 216.07 105.063 216.308 104.703C216.547 104.339 216.863 104.068 217.257 103.89C217.651 103.709 218.079 103.618 218.541 103.618C218.882 103.618 219.174 103.646 219.416 103.703C219.659 103.756 219.839 103.805 219.956 103.851L219.558 105.226C219.479 105.203 219.376 105.176 219.251 105.146C219.126 105.112 218.975 105.095 218.797 105.095C218.384 105.095 218.089 105.197 217.911 105.402C217.736 105.606 217.649 105.902 217.649 106.288V115.799H215.95ZM221.283 115.799V107.072H222.982V115.799H221.283ZM222.141 105.726C221.845 105.726 221.591 105.627 221.379 105.43C221.171 105.229 221.067 104.991 221.067 104.714C221.067 104.434 221.171 104.195 221.379 103.998C221.591 103.798 221.845 103.697 222.141 103.697C222.436 103.697 222.688 103.798 222.896 103.998C223.108 104.195 223.214 104.434 223.214 104.714C223.214 104.991 223.108 105.229 222.896 105.43C222.688 105.627 222.436 105.726 222.141 105.726ZM226.966 104.163V115.799H225.267V104.163H226.966ZM233.325 107.072V108.436H228.558V107.072H233.325ZM229.837 104.981H231.536V113.237C231.536 113.566 231.585 113.815 231.683 113.981C231.782 114.144 231.909 114.256 232.064 114.316C232.223 114.373 232.395 114.402 232.581 114.402C232.717 114.402 232.837 114.392 232.939 114.373C233.041 114.354 233.121 114.339 233.178 114.328L233.484 115.731C233.386 115.769 233.246 115.807 233.064 115.845C232.882 115.887 232.655 115.909 232.382 115.913C231.935 115.921 231.518 115.841 231.132 115.674C230.746 115.508 230.433 115.25 230.195 114.902C229.956 114.553 229.837 114.116 229.837 113.589V104.981ZM238.872 115.976C238.012 115.976 237.272 115.792 236.651 115.424C236.033 115.053 235.556 114.532 235.219 113.862C234.885 113.188 234.719 112.398 234.719 111.493C234.719 110.599 234.885 109.811 235.219 109.129C235.556 108.447 236.026 107.915 236.628 107.532C237.234 107.15 237.942 106.959 238.753 106.959C239.245 106.959 239.723 107.04 240.185 107.203C240.647 107.366 241.062 107.621 241.429 107.97C241.796 108.318 242.086 108.771 242.298 109.328C242.51 109.881 242.616 110.553 242.616 111.345V111.947H235.679V110.674H240.952C240.952 110.227 240.861 109.832 240.679 109.487C240.497 109.138 240.241 108.864 239.912 108.663C239.586 108.462 239.204 108.362 238.764 108.362C238.287 108.362 237.87 108.479 237.514 108.714C237.162 108.945 236.889 109.248 236.696 109.623C236.507 109.995 236.412 110.398 236.412 110.834V111.828C236.412 112.411 236.514 112.907 236.719 113.316C236.927 113.726 237.217 114.038 237.588 114.254C237.959 114.466 238.393 114.572 238.889 114.572C239.211 114.572 239.505 114.527 239.77 114.436C240.035 114.341 240.264 114.201 240.457 114.015C240.651 113.83 240.798 113.601 240.901 113.328L242.509 113.618C242.38 114.091 242.149 114.506 241.815 114.862C241.486 115.214 241.071 115.489 240.571 115.686C240.075 115.879 239.509 115.976 238.872 115.976ZM244.501 115.799V107.072H246.143V108.459H246.234C246.393 107.989 246.674 107.62 247.075 107.351C247.481 107.078 247.939 106.941 248.45 106.941C248.556 106.941 248.681 106.945 248.825 106.953C248.973 106.96 249.089 106.97 249.172 106.981V108.606C249.104 108.587 248.982 108.566 248.808 108.544C248.634 108.517 248.46 108.504 248.286 108.504C247.884 108.504 247.526 108.589 247.212 108.76C246.901 108.926 246.655 109.159 246.473 109.459C246.291 109.754 246.2 110.091 246.2 110.47V115.799H244.501Z" fill="#1E75BA"/>
<rect x="388" y="313.799" width="173" height="40" rx="4" fill="#1E75BA"/>
<path d="M414.25 334.549H409.75V339.049H408.25V334.549H403.75V333.049H408.25V328.549H409.75V333.049H414.25V334.549Z" fill="white"/>
<path d="M432.943 331.947H431.17C431.102 331.568 430.975 331.235 430.79 330.947C430.604 330.659 430.377 330.415 430.108 330.214C429.839 330.013 429.538 329.862 429.205 329.76C428.875 329.657 428.525 329.606 428.153 329.606C427.483 329.606 426.883 329.775 426.352 330.112C425.826 330.449 425.409 330.943 425.102 331.595C424.799 332.246 424.648 333.042 424.648 333.981C424.648 334.928 424.799 335.727 425.102 336.379C425.409 337.03 425.828 337.523 426.358 337.856C426.888 338.19 427.485 338.356 428.148 338.356C428.515 338.356 428.864 338.307 429.193 338.209C429.527 338.106 429.828 337.957 430.097 337.76C430.366 337.563 430.593 337.322 430.778 337.038C430.968 336.75 431.098 336.421 431.17 336.049L432.943 336.055C432.848 336.627 432.665 337.154 432.392 337.635C432.123 338.112 431.777 338.525 431.352 338.873C430.932 339.218 430.451 339.485 429.909 339.674C429.367 339.864 428.777 339.959 428.136 339.959C427.129 339.959 426.231 339.72 425.443 339.243C424.655 338.762 424.034 338.074 423.58 337.18C423.129 336.286 422.903 335.22 422.903 333.981C422.903 332.739 423.131 331.673 423.585 330.782C424.04 329.888 424.661 329.203 425.449 328.726C426.237 328.245 427.133 328.004 428.136 328.004C428.754 328.004 429.33 328.093 429.864 328.271C430.402 328.445 430.884 328.703 431.312 329.044C431.741 329.381 432.095 329.794 432.375 330.282C432.655 330.767 432.845 331.322 432.943 331.947ZM434.908 339.799V331.072H436.55V332.459H436.641C436.8 331.989 437.08 331.62 437.482 331.351C437.887 331.078 438.345 330.941 438.857 330.941C438.963 330.941 439.088 330.945 439.232 330.953C439.379 330.96 439.495 330.97 439.578 330.981V332.606C439.51 332.587 439.389 332.566 439.214 332.544C439.04 332.517 438.866 332.504 438.692 332.504C438.29 332.504 437.932 332.589 437.618 332.76C437.307 332.926 437.061 333.159 436.879 333.459C436.697 333.754 436.607 334.091 436.607 334.47V339.799H434.908ZM444.497 339.976C443.637 339.976 442.897 339.792 442.276 339.424C441.658 339.053 441.181 338.532 440.844 337.862C440.51 337.188 440.344 336.398 440.344 335.493C440.344 334.599 440.51 333.811 440.844 333.129C441.181 332.447 441.651 331.915 442.253 331.532C442.859 331.15 443.567 330.959 444.378 330.959C444.87 330.959 445.348 331.04 445.81 331.203C446.272 331.366 446.687 331.621 447.054 331.97C447.421 332.318 447.711 332.771 447.923 333.328C448.135 333.881 448.241 334.553 448.241 335.345V335.947H441.304V334.674H446.577C446.577 334.227 446.486 333.832 446.304 333.487C446.122 333.138 445.866 332.864 445.537 332.663C445.211 332.462 444.829 332.362 444.389 332.362C443.912 332.362 443.495 332.479 443.139 332.714C442.787 332.945 442.514 333.248 442.321 333.623C442.132 333.995 442.037 334.398 442.037 334.834V335.828C442.037 336.411 442.139 336.907 442.344 337.316C442.552 337.726 442.842 338.038 443.213 338.254C443.584 338.466 444.018 338.572 444.514 338.572C444.836 338.572 445.13 338.527 445.395 338.436C445.66 338.341 445.889 338.201 446.082 338.015C446.276 337.83 446.423 337.601 446.526 337.328L448.134 337.618C448.005 338.091 447.774 338.506 447.44 338.862C447.111 339.214 446.696 339.489 446.196 339.686C445.7 339.879 445.134 339.976 444.497 339.976ZM452.666 339.993C452.113 339.993 451.613 339.89 451.166 339.686C450.719 339.477 450.365 339.176 450.104 338.782C449.846 338.388 449.717 337.905 449.717 337.334C449.717 336.841 449.812 336.436 450.001 336.118C450.191 335.799 450.446 335.548 450.768 335.362C451.09 335.176 451.45 335.036 451.848 334.941C452.246 334.847 452.651 334.775 453.064 334.726C453.587 334.665 454.011 334.616 454.337 334.578C454.662 334.536 454.899 334.47 455.047 334.379C455.195 334.288 455.268 334.14 455.268 333.936V333.896C455.268 333.4 455.128 333.015 454.848 332.743C454.571 332.47 454.159 332.334 453.609 332.334C453.037 332.334 452.587 332.46 452.257 332.714C451.931 332.964 451.706 333.243 451.581 333.549L449.984 333.186C450.174 332.655 450.45 332.227 450.814 331.902C451.181 331.572 451.604 331.334 452.081 331.186C452.558 331.034 453.06 330.959 453.587 330.959C453.935 330.959 454.304 331 454.695 331.084C455.089 331.163 455.456 331.311 455.797 331.527C456.142 331.743 456.424 332.051 456.643 332.453C456.863 332.851 456.973 333.368 456.973 334.004V339.799H455.314V338.606H455.246C455.136 338.826 454.971 339.042 454.751 339.254C454.532 339.466 454.25 339.642 453.905 339.782C453.56 339.923 453.147 339.993 452.666 339.993ZM453.036 338.629C453.505 338.629 453.907 338.536 454.24 338.351C454.577 338.165 454.833 337.923 455.007 337.623C455.185 337.32 455.274 336.996 455.274 336.652V335.527C455.214 335.587 455.096 335.644 454.922 335.697C454.751 335.746 454.556 335.79 454.337 335.828C454.117 335.862 453.903 335.894 453.695 335.924C453.486 335.951 453.312 335.974 453.172 335.993C452.842 336.034 452.541 336.104 452.268 336.203C452 336.301 451.784 336.443 451.621 336.629C451.462 336.811 451.382 337.053 451.382 337.356C451.382 337.777 451.537 338.095 451.848 338.311C452.159 338.523 452.554 338.629 453.036 338.629ZM463.31 331.072V332.436H458.543V331.072H463.31ZM459.821 328.981H461.52V337.237C461.52 337.566 461.569 337.815 461.668 337.981C461.766 338.144 461.893 338.256 462.048 338.316C462.207 338.373 462.38 338.402 462.565 338.402C462.702 338.402 462.821 338.392 462.923 338.373C463.026 338.354 463.105 338.339 463.162 338.328L463.469 339.731C463.37 339.769 463.23 339.807 463.048 339.845C462.866 339.887 462.639 339.909 462.366 339.913C461.92 339.921 461.503 339.841 461.116 339.674C460.73 339.508 460.418 339.25 460.179 338.902C459.94 338.553 459.821 338.116 459.821 337.589V328.981ZM468.857 339.976C467.997 339.976 467.256 339.792 466.635 339.424C466.018 339.053 465.54 338.532 465.203 337.862C464.87 337.188 464.703 336.398 464.703 335.493C464.703 334.599 464.87 333.811 465.203 333.129C465.54 332.447 466.01 331.915 466.612 331.532C467.218 331.15 467.927 330.959 468.737 330.959C469.23 330.959 469.707 331.04 470.169 331.203C470.631 331.366 471.046 331.621 471.413 331.97C471.781 332.318 472.071 332.771 472.283 333.328C472.495 333.881 472.601 334.553 472.601 335.345V335.947H465.663V334.674H470.936C470.936 334.227 470.845 333.832 470.663 333.487C470.482 333.138 470.226 332.864 469.896 332.663C469.571 332.462 469.188 332.362 468.749 332.362C468.271 332.362 467.855 332.479 467.499 332.714C467.146 332.945 466.874 333.248 466.68 333.623C466.491 333.995 466.396 334.398 466.396 334.834V335.828C466.396 336.411 466.499 336.907 466.703 337.316C466.911 337.726 467.201 338.038 467.572 338.254C467.944 338.466 468.377 338.572 468.874 338.572C469.196 338.572 469.489 338.527 469.754 338.436C470.019 338.341 470.249 338.201 470.442 338.015C470.635 337.83 470.783 337.601 470.885 337.328L472.493 337.618C472.364 338.091 472.133 338.506 471.8 338.862C471.47 339.214 471.055 339.489 470.555 339.686C470.059 339.879 469.493 339.976 468.857 339.976ZM485.26 333.203L483.72 333.476C483.656 333.279 483.554 333.091 483.413 332.913C483.277 332.735 483.091 332.589 482.857 332.476C482.622 332.362 482.328 332.305 481.976 332.305C481.495 332.305 481.093 332.413 480.771 332.629C480.449 332.841 480.288 333.116 480.288 333.453C480.288 333.745 480.396 333.979 480.612 334.157C480.828 334.335 481.177 334.481 481.658 334.595L483.044 334.913C483.847 335.099 484.446 335.385 484.839 335.771C485.233 336.157 485.43 336.659 485.43 337.277C485.43 337.799 485.279 338.265 484.976 338.674C484.677 339.08 484.258 339.398 483.72 339.629C483.186 339.86 482.567 339.976 481.862 339.976C480.885 339.976 480.088 339.767 479.47 339.351C478.853 338.93 478.474 338.334 478.334 337.561L479.976 337.311C480.078 337.739 480.288 338.063 480.607 338.282C480.925 338.498 481.339 338.606 481.851 338.606C482.408 338.606 482.853 338.491 483.186 338.26C483.519 338.025 483.686 337.739 483.686 337.402C483.686 337.129 483.584 336.9 483.379 336.714C483.179 336.529 482.87 336.388 482.453 336.294L480.976 335.97C480.161 335.784 479.559 335.489 479.169 335.084C478.783 334.678 478.589 334.165 478.589 333.544C478.589 333.029 478.733 332.578 479.021 332.191C479.309 331.805 479.707 331.504 480.214 331.288C480.722 331.068 481.304 330.959 481.959 330.959C482.902 330.959 483.644 331.163 484.186 331.572C484.728 331.977 485.086 332.521 485.26 333.203ZM491.06 339.976C490.2 339.976 489.459 339.792 488.838 339.424C488.221 339.053 487.743 338.532 487.406 337.862C487.073 337.188 486.906 336.398 486.906 335.493C486.906 334.599 487.073 333.811 487.406 333.129C487.743 332.447 488.213 331.915 488.815 331.532C489.421 331.15 490.13 330.959 490.94 330.959C491.433 330.959 491.91 331.04 492.372 331.203C492.834 331.366 493.249 331.621 493.616 331.97C493.984 332.318 494.274 332.771 494.486 333.328C494.698 333.881 494.804 334.553 494.804 335.345V335.947H487.866V334.674H493.139C493.139 334.227 493.048 333.832 492.866 333.487C492.685 333.138 492.429 332.864 492.099 332.663C491.774 332.462 491.391 332.362 490.952 332.362C490.474 332.362 490.058 332.479 489.702 332.714C489.349 332.945 489.077 333.248 488.884 333.623C488.694 333.995 488.599 334.398 488.599 334.834V335.828C488.599 336.411 488.702 336.907 488.906 337.316C489.115 337.726 489.404 338.038 489.776 338.254C490.147 338.466 490.58 338.572 491.077 338.572C491.399 338.572 491.692 338.527 491.957 338.436C492.223 338.341 492.452 338.201 492.645 338.015C492.838 337.83 492.986 337.601 493.088 337.328L494.696 337.618C494.567 338.091 494.336 338.506 494.003 338.862C493.673 339.214 493.259 339.489 492.759 339.686C492.262 339.879 491.696 339.976 491.06 339.976ZM500.348 343.254C499.655 343.254 499.058 343.163 498.558 342.981C498.062 342.799 497.657 342.559 497.342 342.26C497.028 341.96 496.793 341.633 496.638 341.277L498.098 340.674C498.2 340.841 498.337 341.017 498.507 341.203C498.681 341.392 498.916 341.553 499.212 341.686C499.511 341.818 499.895 341.885 500.365 341.885C501.009 341.885 501.541 341.727 501.962 341.413C502.382 341.102 502.592 340.606 502.592 339.924V338.209H502.484C502.382 338.394 502.234 338.601 502.041 338.828C501.852 339.055 501.59 339.252 501.257 339.419C500.924 339.585 500.49 339.669 499.956 339.669C499.267 339.669 498.645 339.508 498.092 339.186C497.543 338.86 497.107 338.381 496.786 337.748C496.467 337.112 496.308 336.33 496.308 335.402C496.308 334.474 496.465 333.678 496.78 333.015C497.098 332.352 497.534 331.845 498.087 331.493C498.64 331.137 499.267 330.959 499.967 330.959C500.509 330.959 500.946 331.049 501.28 331.231C501.613 331.409 501.873 331.618 502.058 331.856C502.248 332.095 502.393 332.305 502.496 332.487H502.621V331.072H504.286V339.993C504.286 340.743 504.111 341.358 503.763 341.839C503.414 342.32 502.943 342.676 502.348 342.907C501.757 343.138 501.09 343.254 500.348 343.254ZM500.331 338.26C500.82 338.26 501.232 338.146 501.57 337.919C501.911 337.688 502.168 337.358 502.342 336.93C502.52 336.498 502.609 335.981 502.609 335.379C502.609 334.792 502.522 334.275 502.348 333.828C502.174 333.381 501.918 333.032 501.581 332.782C501.244 332.529 500.827 332.402 500.331 332.402C499.82 332.402 499.393 332.534 499.053 332.799C498.712 333.061 498.454 333.417 498.28 333.868C498.109 334.318 498.024 334.822 498.024 335.379C498.024 335.951 498.111 336.453 498.286 336.885C498.46 337.316 498.717 337.654 499.058 337.896C499.403 338.138 499.827 338.26 500.331 338.26ZM506.564 339.799V331.072H508.195V332.493H508.303C508.484 332.012 508.782 331.637 509.195 331.368C509.607 331.095 510.102 330.959 510.678 330.959C511.261 330.959 511.75 331.095 512.143 331.368C512.541 331.64 512.835 332.015 513.024 332.493H513.115C513.323 332.027 513.655 331.655 514.109 331.379C514.564 331.099 515.106 330.959 515.734 330.959C516.526 330.959 517.172 331.207 517.672 331.703C518.176 332.199 518.428 332.947 518.428 333.947V339.799H516.729V334.106C516.729 333.515 516.568 333.087 516.246 332.822C515.924 332.557 515.539 332.424 515.092 332.424C514.539 332.424 514.109 332.595 513.803 332.936C513.496 333.273 513.342 333.707 513.342 334.237V339.799H511.649V333.998C511.649 333.525 511.501 333.144 511.206 332.856C510.911 332.568 510.526 332.424 510.053 332.424C509.731 332.424 509.433 332.51 509.161 332.68C508.892 332.847 508.674 333.08 508.507 333.379C508.344 333.678 508.263 334.025 508.263 334.419V339.799H506.564ZM524.466 339.976C523.606 339.976 522.866 339.792 522.244 339.424C521.627 339.053 521.15 338.532 520.812 337.862C520.479 337.188 520.312 336.398 520.312 335.493C520.312 334.599 520.479 333.811 520.812 333.129C521.15 332.447 521.619 331.915 522.222 331.532C522.828 331.15 523.536 330.959 524.347 330.959C524.839 330.959 525.316 331.04 525.778 331.203C526.241 331.366 526.655 331.621 527.023 331.97C527.39 332.318 527.68 332.771 527.892 333.328C528.104 333.881 528.21 334.553 528.21 335.345V335.947H521.273V334.674H526.545C526.545 334.227 526.455 333.832 526.273 333.487C526.091 333.138 525.835 332.864 525.506 332.663C525.18 332.462 524.797 332.362 524.358 332.362C523.881 332.362 523.464 332.479 523.108 332.714C522.756 332.945 522.483 333.248 522.29 333.623C522.1 333.995 522.006 334.398 522.006 334.834V335.828C522.006 336.411 522.108 336.907 522.312 337.316C522.521 337.726 522.811 338.038 523.182 338.254C523.553 338.466 523.987 338.572 524.483 338.572C524.805 338.572 525.098 338.527 525.364 338.436C525.629 338.341 525.858 338.201 526.051 338.015C526.244 337.83 526.392 337.601 526.494 337.328L528.102 337.618C527.973 338.091 527.742 338.506 527.409 338.862C527.08 339.214 526.665 339.489 526.165 339.686C525.669 339.879 525.102 339.976 524.466 339.976ZM531.794 334.618V339.799H530.095V331.072H531.726V332.493H531.834C532.035 332.03 532.349 331.659 532.777 331.379C533.209 331.099 533.752 330.959 534.408 330.959C535.002 330.959 535.523 331.084 535.97 331.334C536.417 331.58 536.764 331.947 537.01 332.436C537.256 332.924 537.379 333.529 537.379 334.248V339.799H535.68V334.453C535.68 333.82 535.516 333.326 535.186 332.97C534.857 332.61 534.404 332.43 533.828 332.43C533.434 332.43 533.084 332.515 532.777 332.686C532.474 332.856 532.233 333.106 532.055 333.436C531.881 333.762 531.794 334.155 531.794 334.618ZM543.732 331.072V332.436H538.964V331.072H543.732ZM540.243 328.981H541.942V337.237C541.942 337.566 541.991 337.815 542.089 337.981C542.188 338.144 542.315 338.256 542.47 338.316C542.629 338.373 542.802 338.402 542.987 338.402C543.124 338.402 543.243 338.392 543.345 338.373C543.447 338.354 543.527 338.339 543.584 338.328L543.891 339.731C543.792 339.769 543.652 339.807 543.47 339.845C543.288 339.887 543.061 339.909 542.788 339.913C542.341 339.921 541.925 339.841 541.538 339.674C541.152 339.508 540.839 339.25 540.601 338.902C540.362 338.553 540.243 338.116 540.243 337.589V328.981Z" fill="white"/>
<defs>
<clipPath id="clip0_6444_25574">
<rect width="200" height="200" fill="white" transform="translate(396 0.799438)"/>
</clipPath>
<clipPath id="clip1_6444_25574">
<rect x="132" y="141.799" width="422" height="30" rx="4" fill="white"/>
</clipPath>
<clipPath id="clip2_6444_25574">
<rect x="132" y="187.799" width="422" height="30" rx="4" fill="white"/>
</clipPath>
</defs>
</svg>
