<svg width="600" height="464" viewBox="0 0 600 464" fill="none" xmlns="http://www.w3.org/2000/svg">
<path d="M191.792 293.458C177.875 281.875 160.625 274.292 141.542 272.542V289.292C155.959 290.875 169.125 296.625 179.959 305.292L191.792 293.458Z" fill="#DBEAF6"/>
<path d="M124.875 289.292V272.542C105.792 274.208 88.542 281.875 74.6253 293.458L86.4587 305.292C97.292 296.625 110.459 290.875 124.875 289.292Z" fill="#DBEAF6"/>
<path d="M74.7087 317.042L62.8753 305.208C51.292 319.125 43.7087 336.375 41.9587 355.458H58.7087C60.292 341.042 66.042 327.875 74.7087 317.042Z" fill="#DBEAF6"/>
<path d="M207.709 355.458H224.459C222.709 336.375 215.125 319.125 203.542 305.208L191.709 317.042C200.375 327.875 206.125 341.042 207.709 355.458Z" fill="#DBEAF6"/>
<path d="M91.542 363.792L120.209 376.792L133.209 405.458L146.209 376.792L174.875 363.792L146.209 350.792L133.209 322.125L120.209 350.792L91.542 363.792Z" fill="#DBEAF6"/>
<path d="M133.209 438.792C107.292 438.792 84.4587 425.542 71.042 405.458H91.542V388.792H41.542V438.792H58.2087V416.292C74.792 439.958 102.125 455.458 133.209 455.458C173.792 455.458 208.209 429.042 220.209 392.458L203.875 388.708C193.625 417.792 165.875 438.792 133.209 438.792Z" fill="#DBEAF6"/>
<g filter="url(#filter0_d_6449_49804)">
<rect x="38" y="55" width="180" height="89" rx="44.5" fill="white" shape-rendering="crispEdges"/>
<path d="M90.8352 89.3409H93.4261L95.25 91.7188L96.1108 92.7756L99.017 96.5682H96.3239L94.3807 94.0369L93.7159 93.1165L90.8352 89.3409ZM99.5795 86.2727C99.5795 88.1364 99.2386 89.7386 98.5568 91.0795C97.875 92.4148 96.9403 93.4432 95.7528 94.1648C94.571 94.8807 93.2273 95.2386 91.7216 95.2386C90.2102 95.2386 88.8608 94.8807 87.6733 94.1648C86.4915 93.4432 85.5597 92.4119 84.8778 91.071C84.196 89.7301 83.8551 88.1307 83.8551 86.2727C83.8551 84.4091 84.196 82.8097 84.8778 81.4744C85.5597 80.1335 86.4915 79.1051 87.6733 78.3892C88.8608 77.6676 90.2102 77.3068 91.7216 77.3068C93.2273 77.3068 94.571 77.6676 95.7528 78.3892C96.9403 79.1051 97.875 80.1335 98.5568 81.4744C99.2386 82.8097 99.5795 84.4091 99.5795 86.2727ZM96.9716 86.2727C96.9716 84.8523 96.7415 83.6562 96.2812 82.6847C95.8267 81.7074 95.2017 80.9688 94.4062 80.4688C93.6165 79.9631 92.7216 79.7102 91.7216 79.7102C90.7159 79.7102 89.8182 79.9631 89.0284 80.4688C88.2386 80.9688 87.6136 81.7074 87.1534 82.6847C86.6989 83.6562 86.4716 84.8523 86.4716 86.2727C86.4716 87.6932 86.6989 88.892 87.1534 89.8693C87.6136 90.8409 88.2386 91.5795 89.0284 92.0852C89.8182 92.5852 90.7159 92.8352 91.7216 92.8352C92.7216 92.8352 93.6165 92.5852 94.4062 92.0852C95.2017 91.5795 95.8267 90.8409 96.2812 89.8693C96.7415 88.892 96.9716 87.6932 96.9716 86.2727ZM110.951 89.571V81.9091H113.508V95H111.002V92.733H110.866C110.565 93.4318 110.082 94.0142 109.417 94.4801C108.758 94.9403 107.937 95.1705 106.954 95.1705C106.113 95.1705 105.369 94.9858 104.721 94.6165C104.079 94.2415 103.573 93.6875 103.204 92.9545C102.84 92.2216 102.658 91.3153 102.658 90.2358V81.9091H105.207V89.929C105.207 90.821 105.454 91.5312 105.948 92.0597C106.442 92.5881 107.085 92.8523 107.874 92.8523C108.352 92.8523 108.826 92.733 109.298 92.4943C109.775 92.2557 110.17 91.8949 110.482 91.4119C110.8 90.929 110.957 90.3153 110.951 89.571ZM120.741 95.2898C119.912 95.2898 119.162 95.1364 118.491 94.8295C117.821 94.517 117.29 94.0653 116.898 93.4744C116.511 92.8835 116.318 92.1591 116.318 91.3011C116.318 90.5625 116.46 89.9545 116.744 89.4773C117.028 89 117.412 88.6222 117.895 88.3438C118.378 88.0653 118.918 87.8551 119.514 87.7131C120.111 87.571 120.719 87.4631 121.338 87.3892C122.122 87.2983 122.759 87.2244 123.247 87.1676C123.736 87.1051 124.091 87.0057 124.312 86.8693C124.534 86.733 124.645 86.5114 124.645 86.2045V86.1449C124.645 85.4006 124.435 84.8239 124.014 84.4148C123.599 84.0057 122.98 83.8011 122.156 83.8011C121.298 83.8011 120.622 83.9915 120.128 84.3722C119.639 84.7472 119.301 85.1648 119.114 85.625L116.719 85.0795C117.003 84.2841 117.418 83.642 117.963 83.1534C118.514 82.6591 119.148 82.3011 119.864 82.0795C120.58 81.8523 121.332 81.7386 122.122 81.7386C122.645 81.7386 123.199 81.8011 123.784 81.9261C124.375 82.0455 124.926 82.267 125.438 82.5909C125.955 82.9148 126.378 83.3778 126.707 83.9801C127.037 84.5767 127.202 85.3523 127.202 86.3068V95H124.713V93.2102H124.611C124.446 93.5398 124.199 93.8636 123.869 94.1818C123.54 94.5 123.116 94.7642 122.599 94.9744C122.082 95.1847 121.463 95.2898 120.741 95.2898ZM121.295 93.2443C122 93.2443 122.602 93.1051 123.102 92.8267C123.608 92.5483 123.991 92.1847 124.253 91.7358C124.52 91.2812 124.653 90.7955 124.653 90.2784V88.5909C124.563 88.6818 124.386 88.767 124.125 88.8466C123.869 88.9205 123.577 88.9858 123.247 89.0426C122.918 89.0937 122.597 89.142 122.284 89.1875C121.972 89.2273 121.71 89.2614 121.5 89.2898C121.006 89.3523 120.554 89.4574 120.145 89.6051C119.741 89.7528 119.418 89.9659 119.173 90.2443C118.935 90.517 118.815 90.8807 118.815 91.3352C118.815 91.9659 119.048 92.4432 119.514 92.767C119.98 93.0852 120.574 93.2443 121.295 93.2443ZM133.144 87.2273V95H130.596V81.9091H133.042V84.0398H133.204C133.505 83.3466 133.977 82.7898 134.619 82.3693C135.266 81.9489 136.082 81.7386 137.065 81.7386C137.957 81.7386 138.738 81.9261 139.408 82.3011C140.079 82.6705 140.599 83.2216 140.968 83.9545C141.337 84.6875 141.522 85.5937 141.522 86.6733V95H138.974V86.9801C138.974 86.0312 138.727 85.2898 138.232 84.7557C137.738 84.2159 137.059 83.946 136.195 83.946C135.604 83.946 135.079 84.0739 134.619 84.3295C134.164 84.5852 133.803 84.9602 133.536 85.4545C133.275 85.9432 133.144 86.5341 133.144 87.2273ZM149.84 95.2557C148.783 95.2557 147.84 94.9858 147.011 94.446C146.187 93.9006 145.539 93.125 145.067 92.1193C144.602 91.108 144.369 89.8949 144.369 88.4801C144.369 87.0653 144.604 85.8551 145.076 84.8494C145.553 83.8437 146.207 83.0739 147.036 82.5398C147.866 82.0057 148.806 81.7386 149.857 81.7386C150.67 81.7386 151.323 81.875 151.817 82.1477C152.317 82.4148 152.704 82.7273 152.977 83.0852C153.255 83.4432 153.471 83.7585 153.624 84.0312H153.778V77.5455H156.326V95H153.837V92.9631H153.624C153.471 93.2415 153.249 93.5597 152.96 93.9176C152.675 94.2756 152.283 94.5881 151.783 94.8551C151.283 95.1222 150.636 95.2557 149.84 95.2557ZM150.403 93.0824C151.136 93.0824 151.755 92.8892 152.261 92.5028C152.772 92.1108 153.158 91.5682 153.42 90.875C153.687 90.1818 153.82 89.375 153.82 88.4545C153.82 87.5455 153.69 86.75 153.428 86.0682C153.167 85.3864 152.783 84.8551 152.278 84.4744C151.772 84.0937 151.147 83.9034 150.403 83.9034C149.636 83.9034 148.996 84.1023 148.485 84.5C147.974 84.8977 147.587 85.4403 147.326 86.1278C147.07 86.8153 146.942 87.5909 146.942 88.4545C146.942 89.3295 147.073 90.1165 147.335 90.8153C147.596 91.5142 147.982 92.0682 148.494 92.4773C149.011 92.8807 149.647 93.0824 150.403 93.0824ZM165.477 95.2642C164.25 95.2642 163.179 94.983 162.264 94.4205C161.349 93.858 160.639 93.071 160.134 92.0597C159.628 91.0483 159.375 89.8665 159.375 88.5142C159.375 87.1562 159.628 85.9687 160.134 84.9517C160.639 83.9347 161.349 83.1449 162.264 82.5824C163.179 82.0199 164.25 81.7386 165.477 81.7386C166.705 81.7386 167.776 82.0199 168.69 82.5824C169.605 83.1449 170.315 83.9347 170.821 84.9517C171.327 85.9687 171.58 87.1562 171.58 88.5142C171.58 89.8665 171.327 91.0483 170.821 92.0597C170.315 93.071 169.605 93.858 168.69 94.4205C167.776 94.983 166.705 95.2642 165.477 95.2642ZM165.486 93.125C166.281 93.125 166.94 92.9148 167.463 92.4943C167.986 92.0739 168.372 91.5142 168.622 90.8153C168.878 90.1165 169.006 89.3466 169.006 88.5057C169.006 87.6705 168.878 86.9034 168.622 86.2045C168.372 85.5 167.986 84.9347 167.463 84.5085C166.94 84.0824 166.281 83.8693 165.486 83.8693C164.685 83.8693 164.02 84.0824 163.491 84.5085C162.969 84.9347 162.58 85.5 162.324 86.2045C162.074 86.9034 161.949 87.6705 161.949 88.5057C161.949 89.3466 162.074 90.1165 162.324 90.8153C162.58 91.5142 162.969 92.0739 163.491 92.4943C164.02 92.9148 164.685 93.125 165.486 93.125Z" fill="#212528"/>
<path d="M94.1364 120.182C94.1364 118.758 94.3239 117.447 94.6989 116.25C95.0739 115.053 95.6212 113.949 96.3409 112.938H97.8977C97.6174 113.312 97.3561 113.773 97.1136 114.318C96.8712 114.864 96.6591 115.462 96.4773 116.114C96.2955 116.761 96.1534 117.434 96.0511 118.131C95.9489 118.824 95.8977 119.508 95.8977 120.182C95.8977 121.083 95.9867 121.996 96.1648 122.92C96.3428 123.845 96.5833 124.703 96.8864 125.494C97.1894 126.286 97.5265 126.932 97.8977 127.432H96.3409C95.6212 126.42 95.0739 125.316 94.6989 124.119C94.3239 122.922 94.1364 121.61 94.1364 120.182ZM100.808 126H98.9446L103.132 114.364H105.161L109.348 126H107.484L104.195 116.477H104.104L100.808 126ZM101.121 121.443H107.166V122.92H101.121V121.443ZM114.428 126.176C113.583 126.176 112.856 125.985 112.246 125.602C111.64 125.216 111.174 124.684 110.848 124.006C110.522 123.328 110.359 122.551 110.359 121.676C110.359 120.79 110.526 120.008 110.859 119.33C111.193 118.648 111.662 118.116 112.268 117.733C112.875 117.35 113.589 117.159 114.411 117.159C115.073 117.159 115.664 117.282 116.183 117.528C116.702 117.771 117.121 118.112 117.439 118.551C117.761 118.991 117.952 119.504 118.013 120.091H116.359C116.268 119.682 116.06 119.33 115.734 119.034C115.412 118.739 114.981 118.591 114.439 118.591C113.965 118.591 113.551 118.716 113.195 118.966C112.842 119.212 112.568 119.564 112.371 120.023C112.174 120.477 112.075 121.015 112.075 121.636C112.075 122.273 112.172 122.822 112.365 123.284C112.558 123.746 112.831 124.104 113.183 124.358C113.539 124.612 113.958 124.739 114.439 124.739C114.761 124.739 115.053 124.68 115.314 124.562C115.579 124.441 115.801 124.269 115.979 124.045C116.161 123.822 116.287 123.553 116.359 123.239H118.013C117.952 123.803 117.768 124.307 117.462 124.75C117.155 125.193 116.744 125.542 116.229 125.795C115.717 126.049 115.117 126.176 114.428 126.176ZM119.83 126V117.273H121.528V126H119.83ZM120.688 115.926C120.392 115.926 120.138 115.828 119.926 115.631C119.718 115.43 119.614 115.191 119.614 114.915C119.614 114.634 119.718 114.396 119.926 114.199C120.138 113.998 120.392 113.898 120.688 113.898C120.983 113.898 121.235 113.998 121.443 114.199C121.655 114.396 121.761 114.634 121.761 114.915C121.761 115.191 121.655 115.43 121.443 115.631C121.235 115.828 120.983 115.926 120.688 115.926ZM127.49 126.176C126.672 126.176 125.958 125.989 125.348 125.614C124.738 125.239 124.265 124.714 123.928 124.04C123.59 123.366 123.422 122.578 123.422 121.676C123.422 120.771 123.59 119.979 123.928 119.301C124.265 118.623 124.738 118.097 125.348 117.722C125.958 117.347 126.672 117.159 127.49 117.159C128.308 117.159 129.022 117.347 129.632 117.722C130.242 118.097 130.715 118.623 131.053 119.301C131.39 119.979 131.558 120.771 131.558 121.676C131.558 122.578 131.39 123.366 131.053 124.04C130.715 124.714 130.242 125.239 129.632 125.614C129.022 125.989 128.308 126.176 127.49 126.176ZM127.496 124.75C128.026 124.75 128.465 124.61 128.814 124.33C129.162 124.049 129.42 123.676 129.587 123.21C129.757 122.744 129.842 122.231 129.842 121.67C129.842 121.114 129.757 120.602 129.587 120.136C129.42 119.667 129.162 119.29 128.814 119.006C128.465 118.722 128.026 118.58 127.496 118.58C126.962 118.58 126.518 118.722 126.166 119.006C125.818 119.29 125.558 119.667 125.388 120.136C125.221 120.602 125.138 121.114 125.138 121.67C125.138 122.231 125.221 122.744 125.388 123.21C125.558 123.676 125.818 124.049 126.166 124.33C126.518 124.61 126.962 124.75 127.496 124.75ZM135.153 120.818V126H133.455V117.273H135.085V118.693H135.193C135.394 118.231 135.708 117.86 136.136 117.58C136.568 117.299 137.112 117.159 137.767 117.159C138.362 117.159 138.883 117.284 139.33 117.534C139.777 117.78 140.123 118.148 140.369 118.636C140.616 119.125 140.739 119.729 140.739 120.449V126H139.04V120.653C139.04 120.021 138.875 119.527 138.545 119.17C138.216 118.811 137.763 118.631 137.188 118.631C136.794 118.631 136.443 118.716 136.136 118.886C135.833 119.057 135.593 119.307 135.415 119.636C135.241 119.962 135.153 120.356 135.153 120.818ZM145.557 126.193C145.004 126.193 144.504 126.091 144.057 125.886C143.61 125.678 143.256 125.377 142.994 124.983C142.737 124.589 142.608 124.106 142.608 123.534C142.608 123.042 142.703 122.636 142.892 122.318C143.081 122 143.337 121.748 143.659 121.562C143.981 121.377 144.341 121.237 144.739 121.142C145.136 121.047 145.542 120.975 145.955 120.926C146.477 120.866 146.902 120.816 147.227 120.778C147.553 120.737 147.79 120.67 147.938 120.58C148.085 120.489 148.159 120.341 148.159 120.136V120.097C148.159 119.6 148.019 119.216 147.739 118.943C147.462 118.67 147.049 118.534 146.5 118.534C145.928 118.534 145.477 118.661 145.148 118.915C144.822 119.165 144.597 119.443 144.472 119.75L142.875 119.386C143.064 118.856 143.341 118.428 143.705 118.102C144.072 117.773 144.494 117.534 144.972 117.386C145.449 117.235 145.951 117.159 146.477 117.159C146.826 117.159 147.195 117.201 147.585 117.284C147.979 117.364 148.347 117.511 148.688 117.727C149.032 117.943 149.314 118.252 149.534 118.653C149.754 119.051 149.864 119.568 149.864 120.205V126H148.205V124.807H148.136C148.027 125.027 147.862 125.242 147.642 125.455C147.422 125.667 147.14 125.843 146.795 125.983C146.451 126.123 146.038 126.193 145.557 126.193ZM145.926 124.83C146.396 124.83 146.797 124.737 147.131 124.551C147.468 124.366 147.723 124.123 147.898 123.824C148.076 123.521 148.165 123.197 148.165 122.852V121.727C148.104 121.788 147.987 121.845 147.812 121.898C147.642 121.947 147.447 121.991 147.227 122.028C147.008 122.062 146.794 122.095 146.585 122.125C146.377 122.152 146.203 122.174 146.062 122.193C145.733 122.235 145.432 122.305 145.159 122.403C144.89 122.502 144.674 122.644 144.511 122.83C144.352 123.011 144.273 123.254 144.273 123.557C144.273 123.977 144.428 124.295 144.739 124.511C145.049 124.723 145.445 124.83 145.926 124.83ZM152.126 126V117.273H153.768V118.659H153.859C154.018 118.189 154.299 117.82 154.7 117.551C155.106 117.278 155.564 117.142 156.075 117.142C156.181 117.142 156.306 117.146 156.45 117.153C156.598 117.161 156.714 117.17 156.797 117.182V118.807C156.729 118.788 156.607 118.767 156.433 118.744C156.259 118.718 156.085 118.705 155.911 118.705C155.509 118.705 155.151 118.79 154.837 118.96C154.526 119.127 154.28 119.36 154.098 119.659C153.916 119.955 153.825 120.292 153.825 120.67V126H152.126ZM161.534 121.17C161.534 122.598 161.347 123.911 160.972 125.108C160.597 126.305 160.049 127.409 159.33 128.42H157.773C158.053 128.045 158.314 127.585 158.557 127.04C158.799 126.494 159.011 125.898 159.193 125.25C159.375 124.598 159.517 123.924 159.619 123.227C159.722 122.53 159.773 121.845 159.773 121.17C159.773 120.273 159.684 119.362 159.506 118.438C159.328 117.513 159.087 116.655 158.784 115.864C158.481 115.072 158.144 114.426 157.773 113.926H159.33C160.049 114.937 160.597 116.042 160.972 117.239C161.347 118.436 161.534 119.746 161.534 121.17Z" fill="#5D6164"/>
</g>
<g filter="url(#filter1_d_6449_49804)">
<rect x="388" y="268" width="180" height="86" rx="43" fill="white" shape-rendering="crispEdges"/>
<path d="M446.918 308V290.545H457.861V292.812H449.551V298.131H457.29V300.389H449.551V305.733H457.963V308H446.918ZM463.722 300.227V308H461.174V294.909H463.62V297.04H463.782C464.083 296.347 464.555 295.79 465.197 295.369C465.844 294.949 466.66 294.739 467.643 294.739C468.535 294.739 469.316 294.926 469.987 295.301C470.657 295.67 471.177 296.222 471.546 296.955C471.915 297.687 472.1 298.594 472.1 299.673V308H469.552V299.98C469.552 299.031 469.305 298.29 468.81 297.756C468.316 297.216 467.637 296.946 466.773 296.946C466.183 296.946 465.657 297.074 465.197 297.33C464.742 297.585 464.381 297.96 464.114 298.455C463.853 298.943 463.722 299.534 463.722 300.227ZM481.629 294.909V296.955H474.478V294.909H481.629ZM476.396 291.773H478.944V304.156C478.944 304.651 479.018 305.023 479.165 305.273C479.313 305.517 479.504 305.685 479.737 305.776C479.975 305.861 480.234 305.903 480.512 305.903C480.717 305.903 480.896 305.889 481.049 305.861C481.202 305.832 481.322 305.81 481.407 305.793L481.867 307.898C481.719 307.955 481.509 308.011 481.237 308.068C480.964 308.131 480.623 308.165 480.214 308.17C479.543 308.182 478.918 308.062 478.339 307.812C477.759 307.562 477.29 307.176 476.933 306.653C476.575 306.131 476.396 305.474 476.396 304.685V291.773ZM488.257 308.29C487.428 308.29 486.678 308.136 486.007 307.83C485.337 307.517 484.805 307.065 484.413 306.474C484.027 305.884 483.834 305.159 483.834 304.301C483.834 303.562 483.976 302.955 484.26 302.477C484.544 302 484.928 301.622 485.411 301.344C485.893 301.065 486.433 300.855 487.03 300.713C487.626 300.571 488.234 300.463 488.854 300.389C489.638 300.298 490.274 300.224 490.763 300.168C491.251 300.105 491.607 300.006 491.828 299.869C492.05 299.733 492.161 299.511 492.161 299.205V299.145C492.161 298.401 491.95 297.824 491.53 297.415C491.115 297.006 490.496 296.801 489.672 296.801C488.814 296.801 488.138 296.991 487.643 297.372C487.155 297.747 486.817 298.165 486.629 298.625L484.234 298.08C484.518 297.284 484.933 296.642 485.479 296.153C486.03 295.659 486.663 295.301 487.379 295.08C488.095 294.852 488.848 294.739 489.638 294.739C490.161 294.739 490.714 294.801 491.3 294.926C491.891 295.045 492.442 295.267 492.953 295.591C493.47 295.915 493.893 296.378 494.223 296.98C494.553 297.577 494.717 298.352 494.717 299.307V308H492.229V306.21H492.126C491.962 306.54 491.714 306.864 491.385 307.182C491.055 307.5 490.632 307.764 490.115 307.974C489.598 308.185 488.979 308.29 488.257 308.29ZM488.811 306.244C489.516 306.244 490.118 306.105 490.618 305.827C491.124 305.548 491.507 305.185 491.768 304.736C492.036 304.281 492.169 303.795 492.169 303.278V301.591C492.078 301.682 491.902 301.767 491.641 301.847C491.385 301.92 491.092 301.986 490.763 302.043C490.433 302.094 490.112 302.142 489.8 302.188C489.487 302.227 489.226 302.261 489.016 302.29C488.521 302.352 488.07 302.457 487.661 302.605C487.257 302.753 486.933 302.966 486.689 303.244C486.45 303.517 486.331 303.881 486.331 304.335C486.331 304.966 486.564 305.443 487.03 305.767C487.496 306.085 488.089 306.244 488.811 306.244ZM487.209 293.324L485.496 293.273C485.496 292.33 485.749 291.577 486.254 291.014C486.766 290.452 487.396 290.17 488.146 290.17C488.493 290.17 488.797 290.23 489.058 290.349C489.32 290.463 489.564 290.597 489.791 290.75C490.024 290.898 490.254 291.031 490.482 291.151C490.714 291.264 490.973 291.321 491.257 291.321C491.587 291.321 491.854 291.196 492.058 290.946C492.268 290.696 492.374 290.386 492.374 290.017L494.053 290.128C494.053 291.077 493.797 291.824 493.286 292.369C492.774 292.909 492.146 293.182 491.402 293.188C490.999 293.188 490.663 293.131 490.396 293.017C490.135 292.898 489.902 292.764 489.697 292.616C489.493 292.463 489.283 292.327 489.067 292.207C488.851 292.088 488.592 292.028 488.291 292.028C487.973 292.028 487.712 292.153 487.507 292.403C487.308 292.648 487.209 292.955 487.209 293.324ZM503.626 308.264C502.398 308.264 501.327 307.983 500.413 307.42C499.498 306.858 498.788 306.071 498.282 305.06C497.776 304.048 497.523 302.866 497.523 301.514C497.523 300.156 497.776 298.969 498.282 297.952C498.788 296.935 499.498 296.145 500.413 295.582C501.327 295.02 502.398 294.739 503.626 294.739C504.853 294.739 505.924 295.02 506.839 295.582C507.754 296.145 508.464 296.935 508.969 297.952C509.475 298.969 509.728 300.156 509.728 301.514C509.728 302.866 509.475 304.048 508.969 305.06C508.464 306.071 507.754 306.858 506.839 307.42C505.924 307.983 504.853 308.264 503.626 308.264ZM503.634 306.125C504.43 306.125 505.089 305.915 505.612 305.494C506.134 305.074 506.521 304.514 506.771 303.815C507.026 303.116 507.154 302.347 507.154 301.506C507.154 300.67 507.026 299.903 506.771 299.205C506.521 298.5 506.134 297.935 505.612 297.509C505.089 297.082 504.43 296.869 503.634 296.869C502.833 296.869 502.168 297.082 501.64 297.509C501.117 297.935 500.728 298.5 500.472 299.205C500.222 299.903 500.097 300.67 500.097 301.506C500.097 302.347 500.222 303.116 500.472 303.815C500.728 304.514 501.117 305.074 501.64 305.494C502.168 305.915 502.833 306.125 503.634 306.125Z" fill="#212528"/>
<path d="M454.136 330.182C454.136 328.758 454.324 327.447 454.699 326.25C455.074 325.053 455.621 323.949 456.341 322.938H457.898C457.617 323.312 457.356 323.773 457.114 324.318C456.871 324.864 456.659 325.462 456.477 326.114C456.295 326.761 456.153 327.434 456.051 328.131C455.949 328.824 455.898 329.508 455.898 330.182C455.898 331.083 455.987 331.996 456.165 332.92C456.343 333.845 456.583 334.703 456.886 335.494C457.189 336.286 457.527 336.932 457.898 337.432H456.341C455.621 336.42 455.074 335.316 454.699 334.119C454.324 332.922 454.136 331.61 454.136 330.182ZM460.808 336H458.945L463.132 324.364H465.161L469.348 336H467.484L464.195 326.477H464.104L460.808 336ZM461.121 331.443H467.166V332.92H461.121V331.443ZM474.428 336.176C473.583 336.176 472.856 335.985 472.246 335.602C471.64 335.216 471.174 334.684 470.848 334.006C470.522 333.328 470.359 332.551 470.359 331.676C470.359 330.79 470.526 330.008 470.859 329.33C471.193 328.648 471.662 328.116 472.268 327.733C472.875 327.35 473.589 327.159 474.411 327.159C475.073 327.159 475.664 327.282 476.183 327.528C476.702 327.771 477.121 328.112 477.439 328.551C477.761 328.991 477.952 329.504 478.013 330.091H476.359C476.268 329.682 476.06 329.33 475.734 329.034C475.412 328.739 474.981 328.591 474.439 328.591C473.965 328.591 473.551 328.716 473.195 328.966C472.842 329.212 472.568 329.564 472.371 330.023C472.174 330.477 472.075 331.015 472.075 331.636C472.075 332.273 472.172 332.822 472.365 333.284C472.558 333.746 472.831 334.104 473.183 334.358C473.539 334.612 473.958 334.739 474.439 334.739C474.761 334.739 475.053 334.68 475.314 334.562C475.579 334.441 475.801 334.269 475.979 334.045C476.161 333.822 476.287 333.553 476.359 333.239H478.013C477.952 333.803 477.768 334.307 477.462 334.75C477.155 335.193 476.744 335.542 476.229 335.795C475.717 336.049 475.117 336.176 474.428 336.176ZM473.814 335.955H474.928L474.837 336.42C475.166 336.473 475.454 336.606 475.7 336.818C475.946 337.03 476.07 337.35 476.07 337.778C476.073 338.29 475.852 338.705 475.405 339.023C474.962 339.341 474.32 339.5 473.479 339.5L473.445 338.551C473.839 338.551 474.157 338.494 474.399 338.381C474.645 338.267 474.77 338.083 474.774 337.83C474.778 337.576 474.683 337.398 474.49 337.295C474.301 337.193 473.998 337.121 473.581 337.08L473.814 335.955ZM482.369 336.193C481.816 336.193 481.316 336.091 480.869 335.886C480.422 335.678 480.068 335.377 479.807 334.983C479.549 334.589 479.42 334.106 479.42 333.534C479.42 333.042 479.515 332.636 479.705 332.318C479.894 332 480.15 331.748 480.472 331.562C480.794 331.377 481.153 331.237 481.551 331.142C481.949 331.047 482.354 330.975 482.767 330.926C483.29 330.866 483.714 330.816 484.04 330.778C484.366 330.737 484.602 330.67 484.75 330.58C484.898 330.489 484.972 330.341 484.972 330.136V330.097C484.972 329.6 484.831 329.216 484.551 328.943C484.275 328.67 483.862 328.534 483.312 328.534C482.741 328.534 482.29 328.661 481.96 328.915C481.634 329.165 481.409 329.443 481.284 329.75L479.688 329.386C479.877 328.856 480.153 328.428 480.517 328.102C480.884 327.773 481.307 327.534 481.784 327.386C482.261 327.235 482.763 327.159 483.29 327.159C483.638 327.159 484.008 327.201 484.398 327.284C484.792 327.364 485.159 327.511 485.5 327.727C485.845 327.943 486.127 328.252 486.347 328.653C486.566 329.051 486.676 329.568 486.676 330.205V336H485.017V334.807H484.949C484.839 335.027 484.674 335.242 484.455 335.455C484.235 335.667 483.953 335.843 483.608 335.983C483.263 336.123 482.85 336.193 482.369 336.193ZM482.739 334.83C483.208 334.83 483.61 334.737 483.943 334.551C484.28 334.366 484.536 334.123 484.71 333.824C484.888 333.521 484.977 333.197 484.977 332.852V331.727C484.917 331.788 484.799 331.845 484.625 331.898C484.455 331.947 484.259 331.991 484.04 332.028C483.82 332.062 483.606 332.095 483.398 332.125C483.189 332.152 483.015 332.174 482.875 332.193C482.545 332.235 482.244 332.305 481.972 332.403C481.703 332.502 481.487 332.644 481.324 332.83C481.165 333.011 481.085 333.254 481.085 333.557C481.085 333.977 481.241 334.295 481.551 334.511C481.862 334.723 482.258 334.83 482.739 334.83ZM481.67 326.216L480.528 326.182C480.528 325.553 480.697 325.051 481.034 324.676C481.375 324.301 481.795 324.114 482.295 324.114C482.527 324.114 482.729 324.153 482.903 324.233C483.078 324.309 483.241 324.398 483.392 324.5C483.547 324.598 483.701 324.687 483.852 324.767C484.008 324.843 484.18 324.881 484.369 324.881C484.589 324.881 484.767 324.797 484.903 324.631C485.044 324.464 485.114 324.258 485.114 324.011L486.233 324.085C486.233 324.718 486.063 325.216 485.722 325.58C485.381 325.939 484.962 326.121 484.466 326.125C484.197 326.125 483.973 326.087 483.795 326.011C483.621 325.932 483.466 325.843 483.33 325.744C483.193 325.642 483.053 325.551 482.909 325.472C482.765 325.392 482.593 325.352 482.392 325.352C482.18 325.352 482.006 325.436 481.869 325.602C481.737 325.765 481.67 325.97 481.67 326.216ZM492.615 336.176C491.797 336.176 491.083 335.989 490.473 335.614C489.863 335.239 489.39 334.714 489.053 334.04C488.715 333.366 488.547 332.578 488.547 331.676C488.547 330.771 488.715 329.979 489.053 329.301C489.39 328.623 489.863 328.097 490.473 327.722C491.083 327.347 491.797 327.159 492.615 327.159C493.433 327.159 494.147 327.347 494.757 327.722C495.367 328.097 495.84 328.623 496.178 329.301C496.515 329.979 496.683 330.771 496.683 331.676C496.683 332.578 496.515 333.366 496.178 334.04C495.84 334.714 495.367 335.239 494.757 335.614C494.147 335.989 493.433 336.176 492.615 336.176ZM492.621 334.75C493.151 334.75 493.59 334.61 493.939 334.33C494.287 334.049 494.545 333.676 494.712 333.21C494.882 332.744 494.967 332.231 494.967 331.67C494.967 331.114 494.882 330.602 494.712 330.136C494.545 329.667 494.287 329.29 493.939 329.006C493.59 328.722 493.151 328.58 492.621 328.58C492.087 328.58 491.643 328.722 491.291 329.006C490.943 329.29 490.683 329.667 490.513 330.136C490.346 330.602 490.263 331.114 490.263 331.67C490.263 332.231 490.346 332.744 490.513 333.21C490.683 333.676 490.943 334.049 491.291 334.33C491.643 334.61 492.087 334.75 492.621 334.75ZM501.643 331.17C501.643 332.598 501.456 333.911 501.081 335.108C500.706 336.305 500.159 337.409 499.439 338.42H497.882C498.162 338.045 498.424 337.585 498.666 337.04C498.909 336.494 499.121 335.898 499.303 335.25C499.484 334.598 499.626 333.924 499.729 333.227C499.831 332.53 499.882 331.845 499.882 331.17C499.882 330.273 499.793 329.362 499.615 328.438C499.437 327.513 499.196 326.655 498.893 325.864C498.59 325.072 498.253 324.426 497.882 323.926H499.439C500.159 324.937 500.706 326.042 501.081 327.239C501.456 328.436 501.643 329.746 501.643 331.17Z" fill="#5D6164"/>
</g>
<path d="M157.211 182.455V197H155.194L147.801 186.332H147.666V197H145.471V182.455H147.502L154.903 193.136H155.038V182.455H157.211ZM163.417 197.241C162.725 197.241 162.1 197.114 161.542 196.858C160.983 196.598 160.54 196.221 160.214 195.729C159.892 195.236 159.731 194.633 159.731 193.918C159.731 193.302 159.849 192.795 160.086 192.398C160.323 192 160.642 191.685 161.045 191.453C161.447 191.221 161.897 191.046 162.394 190.928C162.891 190.809 163.398 190.719 163.914 190.658C164.567 190.582 165.098 190.52 165.505 190.473C165.912 190.421 166.208 190.338 166.393 190.224C166.577 190.111 166.67 189.926 166.67 189.67V189.621C166.67 189 166.494 188.52 166.144 188.179C165.798 187.838 165.282 187.668 164.596 187.668C163.881 187.668 163.317 187.826 162.905 188.143C162.498 188.456 162.216 188.804 162.06 189.188L160.064 188.733C160.301 188.07 160.647 187.535 161.101 187.128C161.561 186.716 162.089 186.418 162.685 186.233C163.282 186.044 163.909 185.949 164.567 185.949C165.003 185.949 165.465 186.001 165.952 186.105C166.445 186.205 166.904 186.389 167.33 186.659C167.761 186.929 168.114 187.315 168.388 187.817C168.663 188.314 168.8 188.96 168.8 189.756V197H166.726V195.509H166.641C166.504 195.783 166.298 196.053 166.023 196.318C165.749 196.583 165.396 196.804 164.965 196.979C164.534 197.154 164.018 197.241 163.417 197.241ZM163.878 195.537C164.465 195.537 164.967 195.421 165.384 195.189C165.805 194.957 166.125 194.654 166.343 194.28C166.565 193.901 166.677 193.496 166.677 193.065V191.659C166.601 191.735 166.454 191.806 166.236 191.872C166.023 191.934 165.779 191.988 165.505 192.036C165.23 192.078 164.963 192.118 164.702 192.156C164.442 192.189 164.224 192.218 164.049 192.241C163.637 192.294 163.26 192.381 162.92 192.504C162.583 192.627 162.314 192.805 162.11 193.037C161.911 193.264 161.812 193.567 161.812 193.946C161.812 194.472 162.006 194.869 162.394 195.139C162.782 195.404 163.277 195.537 163.878 195.537ZM176.922 197V186.091H179.045V197H176.922ZM177.994 184.408C177.625 184.408 177.308 184.285 177.042 184.038C176.782 183.787 176.652 183.489 176.652 183.143C176.652 182.793 176.782 182.495 177.042 182.249C177.308 181.998 177.625 181.872 177.994 181.872C178.363 181.872 178.678 181.998 178.939 182.249C179.204 182.495 179.336 182.793 179.336 183.143C179.336 183.489 179.204 183.787 178.939 184.038C178.678 184.285 178.363 184.408 177.994 184.408ZM184.026 190.523V197H181.902V186.091H183.941V187.866H184.075C184.326 187.289 184.719 186.825 185.254 186.474C185.794 186.124 186.474 185.949 187.293 185.949C188.036 185.949 188.687 186.105 189.246 186.418C189.805 186.725 190.238 187.185 190.546 187.795C190.853 188.406 191.007 189.161 191.007 190.061V197H188.884V190.317C188.884 189.526 188.678 188.908 188.266 188.463C187.854 188.013 187.288 187.788 186.568 187.788C186.076 187.788 185.638 187.895 185.254 188.108C184.876 188.321 184.575 188.634 184.352 189.045C184.135 189.453 184.026 189.945 184.026 190.523ZM198.948 186.091V187.795H192.989V186.091H198.948ZM194.587 183.477H196.71V193.797C196.71 194.209 196.772 194.519 196.895 194.727C197.018 194.931 197.177 195.071 197.371 195.146C197.57 195.217 197.785 195.253 198.017 195.253C198.188 195.253 198.337 195.241 198.465 195.217C198.593 195.194 198.692 195.175 198.763 195.161L199.146 196.915C199.023 196.962 198.848 197.009 198.621 197.057C198.394 197.109 198.11 197.137 197.769 197.142C197.21 197.152 196.689 197.052 196.206 196.844C195.723 196.635 195.333 196.313 195.034 195.878C194.736 195.442 194.587 194.895 194.587 194.237V183.477ZM205.881 197.22C204.806 197.22 203.881 196.991 203.104 196.531C202.332 196.067 201.736 195.416 201.314 194.578C200.898 193.735 200.689 192.748 200.689 191.616C200.689 190.499 200.898 189.514 201.314 188.662C201.736 187.81 202.323 187.144 203.076 186.666C203.833 186.188 204.719 185.949 205.732 185.949C206.348 185.949 206.944 186.051 207.522 186.254C208.099 186.458 208.618 186.777 209.077 187.213C209.537 187.649 209.899 188.214 210.164 188.911C210.429 189.602 210.562 190.442 210.562 191.432V192.185H201.89V190.594H208.481C208.481 190.035 208.367 189.54 208.14 189.109C207.912 188.674 207.593 188.33 207.181 188.08C206.774 187.829 206.296 187.703 205.746 187.703C205.15 187.703 204.629 187.85 204.184 188.143C203.743 188.432 203.403 188.811 203.161 189.28C202.924 189.744 202.806 190.248 202.806 190.793V192.036C202.806 192.765 202.934 193.385 203.189 193.896C203.45 194.408 203.812 194.798 204.276 195.068C204.74 195.333 205.282 195.466 205.903 195.466C206.305 195.466 206.672 195.409 207.003 195.295C207.335 195.177 207.621 195.002 207.863 194.77C208.104 194.538 208.289 194.251 208.417 193.911L210.427 194.273C210.266 194.865 209.977 195.383 209.56 195.828C209.148 196.268 208.63 196.612 208.005 196.858C207.385 197.099 206.677 197.22 205.881 197.22ZM217.492 201.318C216.625 201.318 215.879 201.205 215.254 200.977C214.634 200.75 214.128 200.449 213.735 200.075C213.342 199.701 213.048 199.292 212.854 198.847L214.679 198.094C214.807 198.302 214.977 198.522 215.191 198.754C215.408 198.991 215.702 199.192 216.071 199.358C216.445 199.524 216.926 199.607 217.513 199.607C218.318 199.607 218.983 199.41 219.509 199.017C220.034 198.629 220.297 198.009 220.297 197.156V195.011H220.162C220.034 195.243 219.85 195.501 219.608 195.786C219.371 196.07 219.045 196.316 218.628 196.524C218.211 196.732 217.669 196.837 217.002 196.837C216.14 196.837 215.363 196.635 214.672 196.233C213.985 195.826 213.441 195.227 213.039 194.436C212.641 193.641 212.442 192.663 212.442 191.503C212.442 190.343 212.638 189.348 213.031 188.52C213.429 187.691 213.974 187.057 214.665 186.616C215.356 186.171 216.14 185.949 217.016 185.949C217.693 185.949 218.24 186.062 218.656 186.29C219.073 186.512 219.397 186.773 219.629 187.071C219.866 187.369 220.048 187.632 220.176 187.859H220.333V186.091H222.414V197.241C222.414 198.179 222.196 198.948 221.76 199.55C221.325 200.151 220.735 200.596 219.992 200.885C219.253 201.174 218.42 201.318 217.492 201.318ZM217.47 195.075C218.081 195.075 218.597 194.933 219.019 194.649C219.445 194.36 219.767 193.948 219.985 193.413C220.207 192.874 220.318 192.227 220.318 191.474C220.318 190.741 220.209 190.094 219.992 189.536C219.774 188.977 219.454 188.541 219.033 188.229C218.611 187.911 218.091 187.753 217.47 187.753C216.831 187.753 216.298 187.919 215.872 188.25C215.446 188.577 215.124 189.022 214.906 189.585C214.693 190.149 214.587 190.778 214.587 191.474C214.587 192.189 214.696 192.817 214.914 193.357C215.131 193.896 215.453 194.318 215.879 194.621C216.31 194.924 216.841 195.075 217.47 195.075ZM225.262 197V186.091H227.314V187.824H227.428C227.627 187.237 227.977 186.775 228.479 186.439C228.985 186.098 229.558 185.928 230.198 185.928C230.33 185.928 230.486 185.932 230.666 185.942C230.851 185.951 230.995 185.963 231.1 185.977V188.009C231.014 187.985 230.863 187.959 230.645 187.93C230.427 187.897 230.209 187.881 229.992 187.881C229.49 187.881 229.042 187.987 228.649 188.2C228.261 188.409 227.953 188.7 227.726 189.074C227.499 189.443 227.385 189.865 227.385 190.338V197H225.262ZM236.014 197.241C235.323 197.241 234.698 197.114 234.139 196.858C233.581 196.598 233.138 196.221 232.811 195.729C232.489 195.236 232.328 194.633 232.328 193.918C232.328 193.302 232.447 192.795 232.683 192.398C232.92 192 233.24 191.685 233.642 191.453C234.045 191.221 234.494 191.046 234.992 190.928C235.489 190.809 235.995 190.719 236.512 190.658C237.165 190.582 237.695 190.52 238.102 190.473C238.51 190.421 238.806 190.338 238.99 190.224C239.175 190.111 239.267 189.926 239.267 189.67V189.621C239.267 189 239.092 188.52 238.742 188.179C238.396 187.838 237.88 187.668 237.193 187.668C236.478 187.668 235.915 187.826 235.503 188.143C235.096 188.456 234.814 188.804 234.658 189.188L232.662 188.733C232.899 188.07 233.244 187.535 233.699 187.128C234.158 186.716 234.686 186.418 235.283 186.233C235.879 186.044 236.507 185.949 237.165 185.949C237.601 185.949 238.062 186.001 238.55 186.105C239.042 186.205 239.502 186.389 239.928 186.659C240.359 186.929 240.711 187.315 240.986 187.817C241.261 188.314 241.398 188.96 241.398 189.756V197H239.324V195.509H239.239C239.102 195.783 238.896 196.053 238.621 196.318C238.346 196.583 237.994 196.804 237.563 196.979C237.132 197.154 236.616 197.241 236.014 197.241ZM236.476 195.537C237.063 195.537 237.565 195.421 237.982 195.189C238.403 194.957 238.723 194.654 238.941 194.28C239.163 193.901 239.274 193.496 239.274 193.065V191.659C239.199 191.735 239.052 191.806 238.834 191.872C238.621 191.934 238.377 191.988 238.102 192.036C237.828 192.078 237.56 192.118 237.3 192.156C237.039 192.189 236.822 192.218 236.646 192.241C236.235 192.294 235.858 192.381 235.517 192.504C235.181 192.627 234.911 192.805 234.708 193.037C234.509 193.264 234.409 193.567 234.409 193.946C234.409 194.472 234.603 194.869 234.992 195.139C235.38 195.404 235.875 195.537 236.476 195.537ZM248.822 197.22C247.766 197.22 246.857 196.981 246.094 196.503C245.337 196.02 244.754 195.355 244.347 194.507C243.94 193.66 243.736 192.689 243.736 191.595C243.736 190.487 243.945 189.509 244.361 188.662C244.778 187.81 245.365 187.144 246.123 186.666C246.88 186.188 247.773 185.949 248.8 185.949C249.629 185.949 250.367 186.103 251.016 186.411C251.665 186.714 252.188 187.14 252.586 187.689C252.988 188.238 253.227 188.88 253.303 189.614H251.236C251.123 189.102 250.862 188.662 250.455 188.293C250.053 187.923 249.513 187.739 248.836 187.739C248.244 187.739 247.725 187.895 247.28 188.207C246.84 188.515 246.497 188.955 246.251 189.528C246.004 190.097 245.881 190.769 245.881 191.545C245.881 192.341 246.002 193.027 246.243 193.605C246.485 194.183 246.826 194.63 247.266 194.947C247.711 195.265 248.234 195.423 248.836 195.423C249.238 195.423 249.603 195.35 249.93 195.203C250.261 195.052 250.538 194.836 250.76 194.557C250.988 194.277 251.146 193.941 251.236 193.548H253.303C253.227 194.254 252.998 194.884 252.614 195.438C252.231 195.991 251.717 196.427 251.073 196.744C250.434 197.062 249.683 197.22 248.822 197.22ZM248.055 196.943H249.447L249.333 197.526C249.745 197.592 250.105 197.758 250.412 198.023C250.72 198.288 250.874 198.688 250.874 199.223C250.879 199.862 250.602 200.381 250.043 200.778C249.489 201.176 248.687 201.375 247.635 201.375L247.593 200.189C248.085 200.189 248.483 200.118 248.786 199.976C249.094 199.834 249.25 199.604 249.255 199.287C249.26 198.97 249.141 198.747 248.9 198.619C248.663 198.491 248.284 198.402 247.763 198.349L248.055 196.943ZM258.749 197.241C258.057 197.241 257.432 197.114 256.874 196.858C256.315 196.598 255.872 196.221 255.546 195.729C255.224 195.236 255.063 194.633 255.063 193.918C255.063 193.302 255.181 192.795 255.418 192.398C255.655 192 255.974 191.685 256.377 191.453C256.779 191.221 257.229 191.046 257.726 190.928C258.223 190.809 258.73 190.719 259.246 190.658C259.899 190.582 260.43 190.52 260.837 190.473C261.244 190.421 261.54 190.338 261.725 190.224C261.909 190.111 262.002 189.926 262.002 189.67V189.621C262.002 189 261.826 188.52 261.476 188.179C261.13 187.838 260.614 187.668 259.928 187.668C259.213 187.668 258.649 187.826 258.237 188.143C257.83 188.456 257.548 188.804 257.392 189.188L255.396 188.733C255.633 188.07 255.979 187.535 256.433 187.128C256.893 186.716 257.421 186.418 258.017 186.233C258.614 186.044 259.241 185.949 259.899 185.949C260.335 185.949 260.797 186.001 261.284 186.105C261.777 186.205 262.236 186.389 262.662 186.659C263.093 186.929 263.446 187.315 263.72 187.817C263.995 188.314 264.132 188.96 264.132 189.756V197H262.058V195.509H261.973C261.836 195.783 261.63 196.053 261.355 196.318C261.081 196.583 260.728 196.804 260.297 196.979C259.866 197.154 259.35 197.241 258.749 197.241ZM259.21 195.537C259.798 195.537 260.299 195.421 260.716 195.189C261.137 194.957 261.457 194.654 261.675 194.28C261.897 193.901 262.009 193.496 262.009 193.065V191.659C261.933 191.735 261.786 191.806 261.568 191.872C261.355 191.934 261.111 191.988 260.837 192.036C260.562 192.078 260.295 192.118 260.034 192.156C259.774 192.189 259.556 192.218 259.381 192.241C258.969 192.294 258.593 192.381 258.252 192.504C257.915 192.627 257.646 192.805 257.442 193.037C257.243 193.264 257.144 193.567 257.144 193.946C257.144 194.472 257.338 194.869 257.726 195.139C258.114 195.404 258.609 195.537 259.21 195.537ZM257.875 184.77L256.448 184.727C256.448 183.941 256.658 183.314 257.08 182.845C257.506 182.376 258.031 182.142 258.656 182.142C258.945 182.142 259.199 182.192 259.416 182.291C259.634 182.386 259.838 182.497 260.027 182.625C260.221 182.748 260.413 182.859 260.602 182.959C260.797 183.054 261.012 183.101 261.249 183.101C261.523 183.101 261.746 182.997 261.916 182.788C262.092 182.58 262.179 182.322 262.179 182.014L263.578 182.107C263.578 182.897 263.365 183.52 262.939 183.974C262.513 184.424 261.99 184.652 261.369 184.656C261.033 184.656 260.754 184.609 260.531 184.514C260.314 184.415 260.119 184.304 259.949 184.18C259.779 184.053 259.603 183.939 259.423 183.839C259.244 183.74 259.028 183.69 258.777 183.69C258.512 183.69 258.294 183.795 258.124 184.003C257.958 184.206 257.875 184.462 257.875 184.77ZM271.556 197.22C270.533 197.22 269.641 196.986 268.878 196.517C268.116 196.048 267.524 195.393 267.103 194.55C266.681 193.707 266.471 192.722 266.471 191.595C266.471 190.464 266.681 189.474 267.103 188.626C267.524 187.779 268.116 187.121 268.878 186.652C269.641 186.183 270.533 185.949 271.556 185.949C272.579 185.949 273.471 186.183 274.233 186.652C274.996 187.121 275.588 187.779 276.009 188.626C276.43 189.474 276.641 190.464 276.641 191.595C276.641 192.722 276.43 193.707 276.009 194.55C275.588 195.393 274.996 196.048 274.233 196.517C273.471 196.986 272.579 197.22 271.556 197.22ZM271.563 195.438C272.226 195.438 272.775 195.262 273.211 194.912C273.646 194.562 273.968 194.095 274.177 193.513C274.39 192.93 274.496 192.289 274.496 191.588C274.496 190.892 274.39 190.253 274.177 189.67C273.968 189.083 273.646 188.612 273.211 188.257C272.775 187.902 272.226 187.724 271.563 187.724C270.895 187.724 270.341 187.902 269.901 188.257C269.465 188.612 269.141 189.083 268.928 189.67C268.72 190.253 268.616 190.892 268.616 191.588C268.616 192.289 268.72 192.93 268.928 193.513C269.141 194.095 269.465 194.562 269.901 194.912C270.341 195.262 270.895 195.438 271.563 195.438ZM288.388 197.213C287.508 197.213 286.722 196.988 286.03 196.538C285.344 196.084 284.804 195.437 284.411 194.599C284.023 193.757 283.829 192.746 283.829 191.567C283.829 190.388 284.025 189.379 284.418 188.541C284.816 187.703 285.36 187.062 286.052 186.616C286.743 186.171 287.527 185.949 288.403 185.949C289.08 185.949 289.624 186.062 290.036 186.29C290.453 186.512 290.775 186.773 291.002 187.071C291.234 187.369 291.414 187.632 291.542 187.859H291.67V182.455H293.793V197H291.719V195.303H291.542C291.414 195.535 291.229 195.8 290.988 196.098C290.751 196.396 290.424 196.657 290.008 196.879C289.591 197.102 289.051 197.213 288.388 197.213ZM288.857 195.402C289.468 195.402 289.984 195.241 290.405 194.919C290.831 194.592 291.153 194.14 291.371 193.562C291.594 192.985 291.705 192.312 291.705 191.545C291.705 190.788 291.596 190.125 291.378 189.557C291.161 188.989 290.841 188.546 290.42 188.229C289.998 187.911 289.477 187.753 288.857 187.753C288.218 187.753 287.685 187.919 287.259 188.25C286.833 188.581 286.511 189.034 286.293 189.607C286.08 190.179 285.974 190.826 285.974 191.545C285.974 192.275 286.082 192.93 286.3 193.513C286.518 194.095 286.84 194.557 287.266 194.898C287.697 195.234 288.227 195.402 288.857 195.402ZM301.419 197.22C300.396 197.22 299.504 196.986 298.742 196.517C297.979 196.048 297.387 195.393 296.966 194.55C296.545 193.707 296.334 192.722 296.334 191.595C296.334 190.464 296.545 189.474 296.966 188.626C297.387 187.779 297.979 187.121 298.742 186.652C299.504 186.183 300.396 185.949 301.419 185.949C302.442 185.949 303.334 186.183 304.097 186.652C304.859 187.121 305.451 187.779 305.872 188.626C306.294 189.474 306.504 190.464 306.504 191.595C306.504 192.722 306.294 193.707 305.872 194.55C305.451 195.393 304.859 196.048 304.097 196.517C303.334 196.986 302.442 197.22 301.419 197.22ZM301.426 195.438C302.089 195.438 302.638 195.262 303.074 194.912C303.51 194.562 303.832 194.095 304.04 193.513C304.253 192.93 304.36 192.289 304.36 191.588C304.36 190.892 304.253 190.253 304.04 189.67C303.832 189.083 303.51 188.612 303.074 188.257C302.638 187.902 302.089 187.724 301.426 187.724C300.759 187.724 300.205 187.902 299.764 188.257C299.329 188.612 299.004 189.083 298.791 189.67C298.583 190.253 298.479 190.892 298.479 191.588C298.479 192.289 298.583 192.93 298.791 193.513C299.004 194.095 299.329 194.562 299.764 194.912C300.205 195.262 300.759 195.438 301.426 195.438ZM318.763 197.22C317.707 197.22 316.798 196.981 316.036 196.503C315.278 196.02 314.696 195.355 314.289 194.507C313.881 193.66 313.678 192.689 313.678 191.595C313.678 190.487 313.886 189.509 314.303 188.662C314.719 187.81 315.307 187.144 316.064 186.666C316.822 186.188 317.714 185.949 318.742 185.949C319.57 185.949 320.309 186.103 320.958 186.411C321.606 186.714 322.129 187.14 322.527 187.689C322.93 188.238 323.169 188.88 323.244 189.614H321.178C321.064 189.102 320.804 188.662 320.396 188.293C319.994 187.923 319.454 187.739 318.777 187.739C318.185 187.739 317.667 187.895 317.222 188.207C316.781 188.515 316.438 188.955 316.192 189.528C315.946 190.097 315.823 190.769 315.823 191.545C315.823 192.341 315.943 193.027 316.185 193.605C316.426 194.183 316.767 194.63 317.208 194.947C317.653 195.265 318.176 195.423 318.777 195.423C319.18 195.423 319.544 195.35 319.871 195.203C320.202 195.052 320.479 194.836 320.702 194.557C320.929 194.277 321.088 193.941 321.178 193.548H323.244C323.169 194.254 322.939 194.884 322.556 195.438C322.172 195.991 321.658 196.427 321.014 196.744C320.375 197.062 319.625 197.22 318.763 197.22ZM327.639 182.455V197H325.515V182.455H327.639ZM330.496 197V186.091H332.619V197H330.496ZM331.568 184.408C331.199 184.408 330.882 184.285 330.617 184.038C330.356 183.787 330.226 183.489 330.226 183.143C330.226 182.793 330.356 182.495 330.617 182.249C330.882 181.998 331.199 181.872 331.568 181.872C331.938 181.872 332.253 181.998 332.513 182.249C332.778 182.495 332.911 182.793 332.911 183.143C332.911 183.489 332.778 183.787 332.513 184.038C332.253 184.285 331.938 184.408 331.568 184.408ZM340.178 197.22C339.103 197.22 338.178 196.991 337.401 196.531C336.629 196.067 336.033 195.416 335.611 194.578C335.195 193.735 334.986 192.748 334.986 191.616C334.986 190.499 335.195 189.514 335.611 188.662C336.033 187.81 336.62 187.144 337.373 186.666C338.13 186.188 339.016 185.949 340.029 185.949C340.644 185.949 341.241 186.051 341.819 186.254C342.396 186.458 342.915 186.777 343.374 187.213C343.833 187.649 344.196 188.214 344.461 188.911C344.726 189.602 344.858 190.442 344.858 191.432V192.185H336.187V190.594H342.778C342.778 190.035 342.664 189.54 342.437 189.109C342.209 188.674 341.89 188.33 341.478 188.08C341.071 187.829 340.592 187.703 340.043 187.703C339.447 187.703 338.926 187.85 338.481 188.143C338.04 188.432 337.699 188.811 337.458 189.28C337.221 189.744 337.103 190.248 337.103 190.793V192.036C337.103 192.765 337.231 193.385 337.486 193.896C337.747 194.408 338.109 194.798 338.573 195.068C339.037 195.333 339.579 195.466 340.199 195.466C340.602 195.466 340.969 195.409 341.3 195.295C341.632 195.177 341.918 195.002 342.16 194.77C342.401 194.538 342.586 194.251 342.714 193.911L344.724 194.273C344.563 194.865 344.274 195.383 343.857 195.828C343.445 196.268 342.927 196.612 342.302 196.858C341.681 197.099 340.974 197.22 340.178 197.22ZM349.338 190.523V197H347.215V186.091H349.253V187.866H349.388C349.639 187.289 350.032 186.825 350.567 186.474C351.107 186.124 351.786 185.949 352.605 185.949C353.349 185.949 354 186.105 354.558 186.418C355.117 186.725 355.55 187.185 355.858 187.795C356.166 188.406 356.32 189.161 356.32 190.061V197H354.196V190.317C354.196 189.526 353.99 188.908 353.578 188.463C353.166 188.013 352.601 187.788 351.881 187.788C351.388 187.788 350.95 187.895 350.567 188.108C350.188 188.321 349.887 188.634 349.665 189.045C349.447 189.453 349.338 189.945 349.338 190.523ZM364.26 186.091V187.795H358.301V186.091H364.26ZM359.899 183.477H362.023V193.797C362.023 194.209 362.084 194.519 362.208 194.727C362.331 194.931 362.489 195.071 362.683 195.146C362.882 195.217 363.098 195.253 363.33 195.253C363.5 195.253 363.649 195.241 363.777 195.217C363.905 195.194 364.004 195.175 364.075 195.161L364.459 196.915C364.336 196.962 364.161 197.009 363.933 197.057C363.706 197.109 363.422 197.137 363.081 197.142C362.522 197.152 362.002 197.052 361.519 196.844C361.036 196.635 360.645 196.313 360.347 195.878C360.048 195.442 359.899 194.895 359.899 194.237V183.477ZM371.194 197.22C370.119 197.22 369.193 196.991 368.417 196.531C367.645 196.067 367.048 195.416 366.627 194.578C366.21 193.735 366.002 192.748 366.002 191.616C366.002 190.499 366.21 189.514 366.627 188.662C367.048 187.81 367.635 187.144 368.388 186.666C369.146 186.188 370.031 185.949 371.045 185.949C371.66 185.949 372.257 186.051 372.834 186.254C373.412 186.458 373.93 186.777 374.39 187.213C374.849 187.649 375.211 188.214 375.476 188.911C375.742 189.602 375.874 190.442 375.874 191.432V192.185H367.202V190.594H373.793C373.793 190.035 373.68 189.54 373.452 189.109C373.225 188.674 372.905 188.33 372.493 188.08C372.086 187.829 371.608 187.703 371.059 187.703C370.462 187.703 369.941 187.85 369.496 188.143C369.056 188.432 368.715 188.811 368.474 189.28C368.237 189.744 368.118 190.248 368.118 190.793V192.036C368.118 192.765 368.246 193.385 368.502 193.896C368.762 194.408 369.125 194.798 369.589 195.068C370.053 195.333 370.595 195.466 371.215 195.466C371.617 195.466 371.984 195.409 372.316 195.295C372.647 195.177 372.934 195.002 373.175 194.77C373.417 194.538 373.601 194.251 373.729 193.911L375.739 194.273C375.578 194.865 375.289 195.383 374.873 195.828C374.461 196.268 373.942 196.612 373.317 196.858C372.697 197.099 371.989 197.22 371.194 197.22ZM380.993 195.011L380.887 195.786C380.816 196.354 380.695 196.946 380.524 197.561C380.359 198.181 380.186 198.757 380.006 199.287C379.831 199.817 379.686 200.239 379.573 200.551H378.067C378.128 200.258 378.214 199.86 378.323 199.358C378.432 198.861 378.538 198.304 378.642 197.689C378.746 197.073 378.825 196.446 378.877 195.807L378.948 195.011H380.993ZM391.174 182.455V197H389.051V182.455H391.174ZM397.206 197.241C396.515 197.241 395.89 197.114 395.331 196.858C394.772 196.598 394.329 196.221 394.003 195.729C393.681 195.236 393.52 194.633 393.52 193.918C393.52 193.302 393.638 192.795 393.875 192.398C394.112 192 394.431 191.685 394.834 191.453C395.236 191.221 395.686 191.046 396.183 190.928C396.68 190.809 397.187 190.719 397.703 190.658C398.356 190.582 398.887 190.52 399.294 190.473C399.701 190.421 399.997 190.338 400.182 190.224C400.366 190.111 400.459 189.926 400.459 189.67V189.621C400.459 189 400.283 188.52 399.933 188.179C399.587 187.838 399.071 187.668 398.385 187.668C397.67 187.668 397.106 187.826 396.694 188.143C396.287 188.456 396.006 188.804 395.849 189.188L393.854 188.733C394.09 188.07 394.436 187.535 394.89 187.128C395.35 186.716 395.878 186.418 396.474 186.233C397.071 186.044 397.698 185.949 398.356 185.949C398.792 185.949 399.254 186.001 399.741 186.105C400.234 186.205 400.693 186.389 401.119 186.659C401.55 186.929 401.903 187.315 402.177 187.817C402.452 188.314 402.589 188.96 402.589 189.756V197H400.515V195.509H400.43C400.293 195.783 400.087 196.053 399.812 196.318C399.538 196.583 399.185 196.804 398.754 196.979C398.323 197.154 397.807 197.241 397.206 197.241ZM397.667 195.537C398.255 195.537 398.756 195.421 399.173 195.189C399.595 194.957 399.914 194.654 400.132 194.28C400.354 193.901 400.466 193.496 400.466 193.065V191.659C400.39 191.735 400.243 191.806 400.025 191.872C399.812 191.934 399.568 191.988 399.294 192.036C399.019 192.078 398.752 192.118 398.491 192.156C398.231 192.189 398.013 192.218 397.838 192.241C397.426 192.294 397.05 192.381 396.709 192.504C396.372 192.627 396.103 192.805 395.899 193.037C395.7 193.264 395.601 193.567 395.601 193.946C395.601 194.472 395.795 194.869 396.183 195.139C396.571 195.404 397.066 195.537 397.667 195.537ZM407.541 190.523V197H405.418V186.091H407.456V187.866H407.591C407.842 187.289 408.235 186.825 408.77 186.474C409.31 186.124 409.989 185.949 410.808 185.949C411.552 185.949 412.203 186.105 412.762 186.418C413.32 186.725 413.753 187.185 414.061 187.795C414.369 188.406 414.523 189.161 414.523 190.061V197H412.399V190.317C412.399 189.526 412.193 188.908 411.781 188.463C411.369 188.013 410.804 187.788 410.084 187.788C409.592 187.788 409.154 187.895 408.77 188.108C408.391 188.321 408.091 188.634 407.868 189.045C407.65 189.453 407.541 189.945 407.541 190.523ZM421.966 197.22C420.91 197.22 420.001 196.981 419.239 196.503C418.481 196.02 417.899 195.355 417.492 194.507C417.084 193.66 416.881 192.689 416.881 191.595C416.881 190.487 417.089 189.509 417.506 188.662C417.923 187.81 418.51 187.144 419.267 186.666C420.025 186.188 420.917 185.949 421.945 185.949C422.773 185.949 423.512 186.103 424.161 186.411C424.809 186.714 425.333 187.14 425.73 187.689C426.133 188.238 426.372 188.88 426.448 189.614H424.381C424.267 189.102 424.007 188.662 423.6 188.293C423.197 187.923 422.657 187.739 421.98 187.739C421.388 187.739 420.87 187.895 420.425 188.207C419.985 188.515 419.641 188.955 419.395 189.528C419.149 190.097 419.026 190.769 419.026 191.545C419.026 192.341 419.146 193.027 419.388 193.605C419.629 194.183 419.97 194.63 420.411 194.947C420.856 195.265 421.379 195.423 421.98 195.423C422.383 195.423 422.747 195.35 423.074 195.203C423.405 195.052 423.682 194.836 423.905 194.557C424.132 194.277 424.291 193.941 424.381 193.548H426.448C426.372 194.254 426.142 194.884 425.759 195.438C425.375 195.991 424.861 196.427 424.218 196.744C423.578 197.062 422.828 197.22 421.966 197.22ZM421.199 196.943H422.591L422.477 197.526C422.889 197.592 423.249 197.758 423.557 198.023C423.865 198.288 424.019 198.688 424.019 199.223C424.023 199.862 423.746 200.381 423.188 200.778C422.634 201.176 421.831 201.375 420.78 201.375L420.737 200.189C421.23 200.189 421.628 200.118 421.931 199.976C422.238 199.834 422.395 199.604 422.399 199.287C422.404 198.97 422.286 198.747 422.044 198.619C421.807 198.491 421.429 198.402 420.908 198.349L421.199 196.943ZM431.893 197.241C431.202 197.241 430.577 197.114 430.018 196.858C429.46 196.598 429.017 196.221 428.69 195.729C428.368 195.236 428.207 194.633 428.207 193.918C428.207 193.302 428.326 192.795 428.562 192.398C428.799 192 429.119 191.685 429.521 191.453C429.924 191.221 430.373 191.046 430.871 190.928C431.368 190.809 431.874 190.719 432.39 190.658C433.044 190.582 433.574 190.52 433.981 190.473C434.389 190.421 434.684 190.338 434.869 190.224C435.054 190.111 435.146 189.926 435.146 189.67V189.621C435.146 189 434.971 188.52 434.621 188.179C434.275 187.838 433.759 187.668 433.072 187.668C432.357 187.668 431.794 187.826 431.382 188.143C430.975 188.456 430.693 188.804 430.537 189.188L428.541 188.733C428.778 188.07 429.123 187.535 429.578 187.128C430.037 186.716 430.565 186.418 431.162 186.233C431.758 186.044 432.386 185.949 433.044 185.949C433.479 185.949 433.941 186.001 434.429 186.105C434.921 186.205 435.381 186.389 435.807 186.659C436.238 186.929 436.59 187.315 436.865 187.817C437.14 188.314 437.277 188.96 437.277 189.756V197H435.203V195.509H435.118C434.98 195.783 434.774 196.053 434.5 196.318C434.225 196.583 433.872 196.804 433.442 196.979C433.011 197.154 432.495 197.241 431.893 197.241ZM432.355 195.537C432.942 195.537 433.444 195.421 433.861 195.189C434.282 194.957 434.602 194.654 434.819 194.28C435.042 193.901 435.153 193.496 435.153 193.065V191.659C435.077 191.735 434.931 191.806 434.713 191.872C434.5 191.934 434.256 191.988 433.981 192.036C433.707 192.078 433.439 192.118 433.179 192.156C432.918 192.189 432.701 192.218 432.525 192.241C432.113 192.294 431.737 192.381 431.396 192.504C431.06 192.627 430.79 192.805 430.586 193.037C430.388 193.264 430.288 193.567 430.288 193.946C430.288 194.472 430.482 194.869 430.871 195.139C431.259 195.404 431.754 195.537 432.355 195.537ZM440.105 197V186.091H442.144V187.866H442.279C442.506 187.265 442.878 186.796 443.394 186.46C443.91 186.119 444.528 185.949 445.247 185.949C445.977 185.949 446.587 186.119 447.08 186.46C447.577 186.801 447.944 187.27 448.181 187.866H448.294C448.555 187.284 448.969 186.82 449.537 186.474C450.105 186.124 450.782 185.949 451.568 185.949C452.558 185.949 453.365 186.259 453.99 186.879C454.62 187.5 454.935 188.435 454.935 189.685V197H452.811V189.884C452.811 189.145 452.61 188.61 452.208 188.278C451.805 187.947 451.325 187.781 450.766 187.781C450.075 187.781 449.537 187.994 449.154 188.42C448.77 188.842 448.578 189.384 448.578 190.047V197H446.462V189.749C446.462 189.157 446.277 188.681 445.908 188.321C445.539 187.961 445.058 187.781 444.466 187.781C444.064 187.781 443.692 187.888 443.351 188.101C443.015 188.309 442.743 188.6 442.534 188.974C442.331 189.348 442.229 189.782 442.229 190.274V197H440.105ZM462.376 197.22C461.354 197.22 460.461 196.986 459.699 196.517C458.936 196.048 458.345 195.393 457.923 194.55C457.502 193.707 457.291 192.722 457.291 191.595C457.291 190.464 457.502 189.474 457.923 188.626C458.345 187.779 458.936 187.121 459.699 186.652C460.461 186.183 461.354 185.949 462.376 185.949C463.399 185.949 464.291 186.183 465.054 186.652C465.816 187.121 466.408 187.779 466.829 188.626C467.251 189.474 467.461 190.464 467.461 191.595C467.461 192.722 467.251 193.707 466.829 194.55C466.408 195.393 465.816 196.048 465.054 196.517C464.291 196.986 463.399 197.22 462.376 197.22ZM462.383 195.438C463.046 195.438 463.595 195.262 464.031 194.912C464.467 194.562 464.789 194.095 464.997 193.513C465.21 192.93 465.317 192.289 465.317 191.588C465.317 190.892 465.21 190.253 464.997 189.67C464.789 189.083 464.467 188.612 464.031 188.257C463.595 187.902 463.046 187.724 462.383 187.724C461.716 187.724 461.162 187.902 460.721 188.257C460.286 188.612 459.961 189.083 459.748 189.67C459.54 190.253 459.436 190.892 459.436 191.588C459.436 192.289 459.54 192.93 459.748 193.513C459.961 194.095 460.286 194.562 460.721 194.912C461.162 195.262 461.716 195.438 462.383 195.438ZM478.007 188.754L476.082 189.095C476.001 188.849 475.874 188.615 475.698 188.392C475.528 188.17 475.296 187.987 475.002 187.845C474.709 187.703 474.342 187.632 473.901 187.632C473.3 187.632 472.798 187.767 472.396 188.037C471.993 188.302 471.792 188.645 471.792 189.067C471.792 189.431 471.927 189.725 472.197 189.947C472.467 190.17 472.902 190.352 473.504 190.494L475.237 190.892C476.24 191.124 476.989 191.482 477.481 191.964C477.973 192.447 478.22 193.075 478.22 193.847C478.22 194.5 478.03 195.082 477.651 195.594C477.277 196.1 476.754 196.498 476.082 196.787C475.414 197.076 474.64 197.22 473.759 197.22C472.538 197.22 471.541 196.96 470.769 196.439C469.998 195.913 469.524 195.168 469.349 194.202L471.401 193.889C471.529 194.424 471.792 194.829 472.19 195.104C472.588 195.374 473.106 195.509 473.745 195.509C474.441 195.509 474.998 195.364 475.414 195.075C475.831 194.782 476.039 194.424 476.039 194.003C476.039 193.662 475.911 193.375 475.656 193.143C475.405 192.911 475.019 192.736 474.498 192.618L472.651 192.213C471.633 191.981 470.881 191.612 470.393 191.105C469.91 190.598 469.669 189.957 469.669 189.18C469.669 188.536 469.848 187.973 470.208 187.49C470.568 187.007 471.065 186.631 471.7 186.361C472.334 186.086 473.061 185.949 473.88 185.949C475.059 185.949 475.987 186.205 476.664 186.716C477.341 187.223 477.789 187.902 478.007 188.754ZM199.3 227.22C198.244 227.22 197.335 226.981 196.573 226.503C195.815 226.02 195.233 225.355 194.826 224.507C194.418 223.66 194.215 222.689 194.215 221.595C194.215 220.487 194.423 219.509 194.84 218.662C195.257 217.81 195.844 217.144 196.601 216.666C197.359 216.188 198.251 215.949 199.279 215.949C200.107 215.949 200.846 216.103 201.495 216.411C202.143 216.714 202.667 217.14 203.064 217.689C203.467 218.238 203.706 218.88 203.782 219.614H201.715C201.601 219.102 201.341 218.662 200.934 218.293C200.531 217.923 199.991 217.739 199.314 217.739C198.722 217.739 198.204 217.895 197.759 218.207C197.319 218.515 196.975 218.955 196.729 219.528C196.483 220.097 196.36 220.769 196.36 221.545C196.36 222.341 196.48 223.027 196.722 223.605C196.963 224.183 197.304 224.63 197.745 224.947C198.19 225.265 198.713 225.423 199.314 225.423C199.717 225.423 200.081 225.35 200.408 225.203C200.739 225.052 201.016 224.836 201.239 224.557C201.466 224.277 201.625 223.941 201.715 223.548H203.782C203.706 224.254 203.476 224.884 203.093 225.438C202.709 225.991 202.195 226.427 201.551 226.744C200.912 227.062 200.162 227.22 199.3 227.22ZM209.227 227.241C208.536 227.241 207.911 227.114 207.352 226.858C206.794 226.598 206.351 226.221 206.024 225.729C205.702 225.236 205.541 224.633 205.541 223.918C205.541 223.302 205.66 222.795 205.896 222.398C206.133 222 206.453 221.685 206.855 221.453C207.258 221.221 207.707 221.046 208.205 220.928C208.702 220.809 209.208 220.719 209.724 220.658C210.378 220.582 210.908 220.52 211.315 220.473C211.723 220.421 212.018 220.338 212.203 220.224C212.388 220.111 212.48 219.926 212.48 219.67V219.621C212.48 219 212.305 218.52 211.955 218.179C211.609 217.838 211.093 217.668 210.406 217.668C209.691 217.668 209.128 217.826 208.716 218.143C208.309 218.456 208.027 218.804 207.871 219.188L205.875 218.733C206.112 218.07 206.457 217.535 206.912 217.128C207.371 216.716 207.899 216.418 208.496 216.233C209.092 216.044 209.72 215.949 210.378 215.949C210.813 215.949 211.275 216.001 211.763 216.105C212.255 216.205 212.714 216.389 213.141 216.659C213.571 216.929 213.924 217.315 214.199 217.817C214.473 218.314 214.611 218.96 214.611 219.756V227H212.537V225.509H212.452C212.314 225.783 212.108 226.053 211.834 226.318C211.559 226.583 211.206 226.804 210.776 226.979C210.345 227.154 209.829 227.241 209.227 227.241ZM209.689 225.537C210.276 225.537 210.778 225.421 211.195 225.189C211.616 224.957 211.936 224.654 212.153 224.28C212.376 223.901 212.487 223.496 212.487 223.065V221.659C212.411 221.735 212.265 221.806 212.047 221.872C211.834 221.934 211.59 221.988 211.315 222.036C211.041 222.078 210.773 222.118 210.513 222.156C210.252 222.189 210.035 222.218 209.859 222.241C209.447 222.294 209.071 222.381 208.73 222.504C208.394 222.627 208.124 222.805 207.92 223.037C207.722 223.264 207.622 223.567 207.622 223.946C207.622 224.472 207.816 224.869 208.205 225.139C208.593 225.404 209.088 225.537 209.689 225.537ZM217.439 227V216.091H219.478V217.866H219.613C219.84 217.265 220.212 216.796 220.728 216.46C221.244 216.119 221.862 215.949 222.581 215.949C223.31 215.949 223.921 216.119 224.414 216.46C224.911 216.801 225.278 217.27 225.515 217.866H225.628C225.889 217.284 226.303 216.82 226.871 216.474C227.439 216.124 228.116 215.949 228.902 215.949C229.892 215.949 230.699 216.259 231.324 216.879C231.954 217.5 232.269 218.435 232.269 219.685V227H230.145V219.884C230.145 219.145 229.944 218.61 229.542 218.278C229.139 217.947 228.658 217.781 228.1 217.781C227.408 217.781 226.871 217.994 226.488 218.42C226.104 218.842 225.912 219.384 225.912 220.047V227H223.796V219.749C223.796 219.157 223.611 218.681 223.242 218.321C222.873 217.961 222.392 217.781 221.8 217.781C221.398 217.781 221.026 217.888 220.685 218.101C220.349 218.309 220.077 218.6 219.868 218.974C219.665 219.348 219.563 219.782 219.563 220.274V227H217.439ZM235.115 231.091V216.091H237.189V217.859H237.366C237.49 217.632 237.667 217.369 237.899 217.071C238.131 216.773 238.453 216.512 238.865 216.29C239.277 216.062 239.821 215.949 240.499 215.949C241.379 215.949 242.165 216.171 242.857 216.616C243.548 217.062 244.09 217.703 244.483 218.541C244.881 219.379 245.08 220.388 245.08 221.567C245.08 222.746 244.883 223.757 244.49 224.599C244.097 225.437 243.557 226.084 242.871 226.538C242.184 226.988 241.401 227.213 240.52 227.213C239.857 227.213 239.315 227.102 238.893 226.879C238.477 226.657 238.15 226.396 237.913 226.098C237.677 225.8 237.494 225.535 237.366 225.303H237.239V231.091H235.115ZM237.196 221.545C237.196 222.312 237.307 222.985 237.53 223.562C237.752 224.14 238.074 224.592 238.496 224.919C238.917 225.241 239.433 225.402 240.044 225.402C240.679 225.402 241.209 225.234 241.635 224.898C242.061 224.557 242.383 224.095 242.601 223.513C242.823 222.93 242.935 222.275 242.935 221.545C242.935 220.826 242.826 220.179 242.608 219.607C242.395 219.034 242.073 218.581 241.642 218.25C241.216 217.919 240.683 217.753 240.044 217.753C239.429 217.753 238.908 217.911 238.482 218.229C238.06 218.546 237.741 218.989 237.523 219.557C237.305 220.125 237.196 220.788 237.196 221.545ZM250.634 227.241C249.942 227.241 249.317 227.114 248.759 226.858C248.2 226.598 247.757 226.221 247.43 225.729C247.108 225.236 246.947 224.633 246.947 223.918C246.947 223.302 247.066 222.795 247.303 222.398C247.539 222 247.859 221.685 248.261 221.453C248.664 221.221 249.114 221.046 249.611 220.928C250.108 220.809 250.615 220.719 251.131 220.658C251.784 220.582 252.314 220.52 252.722 220.473C253.129 220.421 253.425 220.338 253.609 220.224C253.794 220.111 253.886 219.926 253.886 219.67V219.621C253.886 219 253.711 218.52 253.361 218.179C253.015 217.838 252.499 217.668 251.812 217.668C251.098 217.668 250.534 217.826 250.122 218.143C249.715 218.456 249.433 218.804 249.277 219.188L247.281 218.733C247.518 218.07 247.864 217.535 248.318 217.128C248.777 216.716 249.305 216.418 249.902 216.233C250.499 216.044 251.126 215.949 251.784 215.949C252.22 215.949 252.681 216.001 253.169 216.105C253.661 216.205 254.121 216.389 254.547 216.659C254.978 216.929 255.33 217.315 255.605 217.817C255.88 218.314 256.017 218.96 256.017 219.756V227H253.943V225.509H253.858C253.721 225.783 253.515 226.053 253.24 226.318C252.965 226.583 252.613 226.804 252.182 226.979C251.751 227.154 251.235 227.241 250.634 227.241ZM251.095 225.537C251.682 225.537 252.184 225.421 252.601 225.189C253.022 224.957 253.342 224.654 253.56 224.28C253.782 223.901 253.893 223.496 253.893 223.065V221.659C253.818 221.735 253.671 221.806 253.453 221.872C253.24 221.934 252.996 221.988 252.722 222.036C252.447 222.078 252.179 222.118 251.919 222.156C251.659 222.189 251.441 222.218 251.266 222.241C250.854 222.294 250.477 222.381 250.136 222.504C249.8 222.627 249.53 222.805 249.327 223.037C249.128 223.264 249.028 223.567 249.028 223.946C249.028 224.472 249.223 224.869 249.611 225.139C249.999 225.404 250.494 225.537 251.095 225.537ZM260.969 220.523V227H258.846V216.091H260.884V217.866H261.019C261.27 217.289 261.663 216.825 262.198 216.474C262.738 216.124 263.417 215.949 264.236 215.949C264.98 215.949 265.631 216.105 266.189 216.418C266.748 216.725 267.181 217.185 267.489 217.795C267.797 218.406 267.951 219.161 267.951 220.061V227H265.827V220.317C265.827 219.526 265.621 218.908 265.209 218.463C264.797 218.013 264.231 217.788 263.512 217.788C263.019 217.788 262.581 217.895 262.198 218.108C261.819 218.321 261.518 218.634 261.296 219.045C261.078 219.453 260.969 219.945 260.969 220.523ZM272.922 220.523V227H270.799V212.455H272.894V217.866H273.029C273.284 217.279 273.675 216.813 274.201 216.467C274.726 216.122 275.413 215.949 276.26 215.949C277.008 215.949 277.662 216.103 278.221 216.411C278.784 216.718 279.22 217.178 279.527 217.788C279.84 218.394 279.996 219.152 279.996 220.061V227H277.873V220.317C277.873 219.517 277.667 218.896 277.255 218.456C276.843 218.011 276.27 217.788 275.536 217.788C275.034 217.788 274.584 217.895 274.186 218.108C273.793 218.321 273.483 218.634 273.256 219.045C273.033 219.453 272.922 219.945 272.922 220.523ZM286.005 227.241C285.313 227.241 284.688 227.114 284.13 226.858C283.571 226.598 283.128 226.221 282.801 225.729C282.48 225.236 282.319 224.633 282.319 223.918C282.319 223.302 282.437 222.795 282.674 222.398C282.91 222 283.23 221.685 283.632 221.453C284.035 221.221 284.485 221.046 284.982 220.928C285.479 220.809 285.986 220.719 286.502 220.658C287.155 220.582 287.685 220.52 288.093 220.473C288.5 220.421 288.796 220.338 288.98 220.224C289.165 220.111 289.257 219.926 289.257 219.67V219.621C289.257 219 289.082 218.52 288.732 218.179C288.386 217.838 287.87 217.668 287.184 217.668C286.469 217.668 285.905 217.826 285.493 218.143C285.086 218.456 284.804 218.804 284.648 219.188L282.652 218.733C282.889 218.07 283.235 217.535 283.689 217.128C284.149 216.716 284.676 216.418 285.273 216.233C285.87 216.044 286.497 215.949 287.155 215.949C287.591 215.949 288.052 216.001 288.54 216.105C289.033 216.205 289.492 216.389 289.918 216.659C290.349 216.929 290.702 217.315 290.976 217.817C291.251 218.314 291.388 218.96 291.388 219.756V227H289.314V225.509H289.229C289.092 225.783 288.886 226.053 288.611 226.318C288.337 226.583 287.984 226.804 287.553 226.979C287.122 227.154 286.606 227.241 286.005 227.241ZM286.466 225.537C287.053 225.537 287.555 225.421 287.972 225.189C288.393 224.957 288.713 224.654 288.931 224.28C289.153 223.901 289.265 223.496 289.265 223.065V221.659C289.189 221.735 289.042 221.806 288.824 221.872C288.611 221.934 288.367 221.988 288.093 222.036C287.818 222.078 287.551 222.118 287.29 222.156C287.03 222.189 286.812 222.218 286.637 222.241C286.225 222.294 285.848 222.381 285.507 222.504C285.171 222.627 284.901 222.805 284.698 223.037C284.499 223.264 284.4 223.567 284.4 223.946C284.4 224.472 284.594 224.869 284.982 225.139C285.37 225.404 285.865 225.537 286.466 225.537ZM303.593 227.213C302.713 227.213 301.927 226.988 301.235 226.538C300.549 226.084 300.009 225.437 299.616 224.599C299.228 223.757 299.034 222.746 299.034 221.567C299.034 220.388 299.23 219.379 299.623 218.541C300.021 217.703 300.565 217.062 301.257 216.616C301.948 216.171 302.732 215.949 303.608 215.949C304.285 215.949 304.829 216.062 305.241 216.29C305.658 216.512 305.98 216.773 306.207 217.071C306.439 217.369 306.619 217.632 306.747 217.859H306.875V212.455H308.998V227H306.924V225.303H306.747C306.619 225.535 306.434 225.8 306.193 226.098C305.956 226.396 305.629 226.657 305.213 226.879C304.796 227.102 304.256 227.213 303.593 227.213ZM304.062 225.402C304.673 225.402 305.189 225.241 305.61 224.919C306.037 224.592 306.359 224.14 306.576 223.562C306.799 222.985 306.91 222.312 306.91 221.545C306.91 220.788 306.801 220.125 306.583 219.557C306.366 218.989 306.046 218.546 305.625 218.229C305.203 217.911 304.682 217.753 304.062 217.753C303.423 217.753 302.89 217.919 302.464 218.25C302.038 218.581 301.716 219.034 301.498 219.607C301.285 220.179 301.179 220.826 301.179 221.545C301.179 222.275 301.288 222.93 301.505 223.513C301.723 224.095 302.045 224.557 302.471 224.898C302.902 225.234 303.432 225.402 304.062 225.402ZM316.731 227.22C315.656 227.22 314.73 226.991 313.954 226.531C313.182 226.067 312.585 225.416 312.164 224.578C311.747 223.735 311.539 222.748 311.539 221.616C311.539 220.499 311.747 219.514 312.164 218.662C312.585 217.81 313.173 217.144 313.925 216.666C314.683 216.188 315.568 215.949 316.582 215.949C317.197 215.949 317.794 216.051 318.371 216.254C318.949 216.458 319.468 216.777 319.927 217.213C320.386 217.649 320.748 218.214 321.013 218.911C321.279 219.602 321.411 220.442 321.411 221.432V222.185H312.739V220.594H319.33C319.33 220.035 319.217 219.54 318.989 219.109C318.762 218.674 318.442 218.33 318.031 218.08C317.623 217.829 317.145 217.703 316.596 217.703C315.999 217.703 315.478 217.85 315.033 218.143C314.593 218.432 314.252 218.811 314.011 219.28C313.774 219.744 313.656 220.248 313.656 220.793V222.036C313.656 222.765 313.783 223.385 314.039 223.896C314.299 224.408 314.662 224.798 315.126 225.068C315.59 225.333 316.132 225.466 316.752 225.466C317.155 225.466 317.522 225.409 317.853 225.295C318.184 225.177 318.471 225.002 318.712 224.77C318.954 224.538 319.138 224.251 319.266 223.911L321.276 224.273C321.115 224.865 320.826 225.383 320.41 225.828C319.998 226.268 319.479 226.612 318.854 226.858C318.234 227.099 317.526 227.22 316.731 227.22ZM329.06 227V216.091H331.184V227H329.06ZM330.133 214.408C329.763 214.408 329.446 214.285 329.181 214.038C328.921 213.787 328.79 213.489 328.79 213.143C328.79 212.793 328.921 212.495 329.181 212.249C329.446 211.998 329.763 211.872 330.133 211.872C330.502 211.872 330.817 211.998 331.077 212.249C331.343 212.495 331.475 212.793 331.475 213.143C331.475 213.489 331.343 213.787 331.077 214.038C330.817 214.285 330.502 214.408 330.133 214.408ZM336.164 220.523V227H334.041V216.091H336.079V217.866H336.214C336.465 217.289 336.858 216.825 337.393 216.474C337.933 216.124 338.612 215.949 339.431 215.949C340.175 215.949 340.826 216.105 341.385 216.418C341.943 216.725 342.377 217.185 342.684 217.795C342.992 218.406 343.146 219.161 343.146 220.061V227H341.022V220.317C341.022 219.526 340.816 218.908 340.404 218.463C339.993 218.013 339.427 217.788 338.707 217.788C338.215 217.788 337.777 217.895 337.393 218.108C337.014 218.321 336.714 218.634 336.491 219.045C336.273 219.453 336.164 219.945 336.164 220.523ZM351.086 216.091V217.795H345.127V216.091H351.086ZM346.725 213.477H348.849V223.797C348.849 224.209 348.911 224.519 349.034 224.727C349.157 224.931 349.315 225.071 349.51 225.146C349.708 225.217 349.924 225.253 350.156 225.253C350.326 225.253 350.475 225.241 350.603 225.217C350.731 225.194 350.831 225.175 350.902 225.161L351.285 226.915C351.162 226.962 350.987 227.009 350.76 227.057C350.532 227.109 350.248 227.137 349.907 227.142C349.349 227.152 348.828 227.052 348.345 226.844C347.862 226.635 347.471 226.313 347.173 225.878C346.875 225.442 346.725 224.895 346.725 224.237V213.477ZM358.02 227.22C356.945 227.22 356.019 226.991 355.243 226.531C354.471 226.067 353.875 225.416 353.453 224.578C353.036 223.735 352.828 222.748 352.828 221.616C352.828 220.499 353.036 219.514 353.453 218.662C353.875 217.81 354.462 217.144 355.214 216.666C355.972 216.188 356.857 215.949 357.871 215.949C358.486 215.949 359.083 216.051 359.661 216.254C360.238 216.458 360.757 216.777 361.216 217.213C361.675 217.649 362.037 218.214 362.303 218.911C362.568 219.602 362.7 220.442 362.7 221.432V222.185H354.028V220.594H360.619C360.619 220.035 360.506 219.54 360.278 219.109C360.051 218.674 359.732 218.33 359.32 218.08C358.912 217.829 358.434 217.703 357.885 217.703C357.288 217.703 356.768 217.85 356.322 218.143C355.882 218.432 355.541 218.811 355.3 219.28C355.063 219.744 354.945 220.248 354.945 220.793V222.036C354.945 222.765 355.072 223.385 355.328 223.896C355.589 224.408 355.951 224.798 356.415 225.068C356.879 225.333 357.421 225.466 358.041 225.466C358.444 225.466 358.811 225.409 359.142 225.295C359.473 225.177 359.76 225.002 360.001 224.77C360.243 224.538 360.428 224.251 360.555 223.911L362.565 224.273C362.404 224.865 362.116 225.383 361.699 225.828C361.287 226.268 360.768 226.612 360.143 226.858C359.523 227.099 358.815 227.22 358.02 227.22ZM369.63 231.318C368.764 231.318 368.018 231.205 367.393 230.977C366.773 230.75 366.266 230.449 365.873 230.075C365.48 229.701 365.187 229.292 364.993 228.847L366.818 228.094C366.946 228.302 367.116 228.522 367.329 228.754C367.547 228.991 367.841 229.192 368.21 229.358C368.584 229.524 369.065 229.607 369.652 229.607C370.457 229.607 371.122 229.41 371.647 229.017C372.173 228.629 372.436 228.009 372.436 227.156V225.011H372.301C372.173 225.243 371.988 225.501 371.747 225.786C371.51 226.07 371.183 226.316 370.767 226.524C370.35 226.732 369.808 226.837 369.14 226.837C368.279 226.837 367.502 226.635 366.811 226.233C366.124 225.826 365.58 225.227 365.177 224.436C364.779 223.641 364.581 222.663 364.581 221.503C364.581 220.343 364.777 219.348 365.17 218.52C365.568 217.691 366.112 217.057 366.804 216.616C367.495 216.171 368.279 215.949 369.154 215.949C369.832 215.949 370.378 216.062 370.795 216.29C371.212 216.512 371.536 216.773 371.768 217.071C372.005 217.369 372.187 217.632 372.315 217.859H372.471V216.091H374.552V227.241C374.552 228.179 374.334 228.948 373.899 229.55C373.463 230.151 372.874 230.596 372.13 230.885C371.392 231.174 370.558 231.318 369.63 231.318ZM369.609 225.075C370.22 225.075 370.736 224.933 371.157 224.649C371.583 224.36 371.905 223.948 372.123 223.413C372.346 222.874 372.457 222.227 372.457 221.474C372.457 220.741 372.348 220.094 372.13 219.536C371.913 218.977 371.593 218.541 371.172 218.229C370.75 217.911 370.229 217.753 369.609 217.753C368.97 217.753 368.437 217.919 368.011 218.25C367.585 218.577 367.263 219.022 367.045 219.585C366.832 220.149 366.725 220.778 366.725 221.474C366.725 222.189 366.834 222.817 367.052 223.357C367.27 223.896 367.592 224.318 368.018 224.621C368.449 224.924 368.979 225.075 369.609 225.075ZM377.4 227V216.091H379.453V217.824H379.566C379.765 217.237 380.116 216.775 380.618 216.439C381.124 216.098 381.697 215.928 382.336 215.928C382.469 215.928 382.625 215.932 382.805 215.942C382.99 215.951 383.134 215.963 383.238 215.977V218.009C383.153 217.985 383.002 217.959 382.784 217.93C382.566 217.897 382.348 217.881 382.13 217.881C381.628 217.881 381.181 217.987 380.788 218.2C380.4 218.409 380.092 218.7 379.865 219.074C379.637 219.443 379.524 219.865 379.524 220.338V227H377.4ZM388.153 227.241C387.462 227.241 386.837 227.114 386.278 226.858C385.719 226.598 385.277 226.221 384.95 225.729C384.628 225.236 384.467 224.633 384.467 223.918C384.467 223.302 384.585 222.795 384.822 222.398C385.059 222 385.378 221.685 385.781 221.453C386.183 221.221 386.633 221.046 387.13 220.928C387.627 220.809 388.134 220.719 388.65 220.658C389.304 220.582 389.834 220.52 390.241 220.473C390.648 220.421 390.944 220.338 391.129 220.224C391.314 220.111 391.406 219.926 391.406 219.67V219.621C391.406 219 391.231 218.52 390.88 218.179C390.535 217.838 390.019 217.668 389.332 217.668C388.617 217.668 388.054 217.826 387.642 218.143C387.234 218.456 386.953 218.804 386.797 219.188L384.801 218.733C385.038 218.07 385.383 217.535 385.838 217.128C386.297 216.716 386.825 216.418 387.422 216.233C388.018 216.044 388.645 215.949 389.304 215.949C389.739 215.949 390.201 216.001 390.689 216.105C391.181 216.205 391.64 216.389 392.066 216.659C392.497 216.929 392.85 217.315 393.125 217.817C393.399 218.314 393.537 218.96 393.537 219.756V227H391.463V225.509H391.377C391.24 225.783 391.034 226.053 390.76 226.318C390.485 226.583 390.132 226.804 389.701 226.979C389.27 227.154 388.754 227.241 388.153 227.241ZM388.615 225.537C389.202 225.537 389.704 225.421 390.12 225.189C390.542 224.957 390.861 224.654 391.079 224.28C391.302 223.901 391.413 223.496 391.413 223.065V221.659C391.337 221.735 391.19 221.806 390.973 221.872C390.76 221.934 390.516 221.988 390.241 222.036C389.967 222.078 389.699 222.118 389.439 222.156C389.178 222.189 388.96 222.218 388.785 222.241C388.373 222.294 387.997 222.381 387.656 222.504C387.32 222.627 387.05 222.805 386.846 223.037C386.647 223.264 386.548 223.567 386.548 223.946C386.548 224.472 386.742 224.869 387.13 225.139C387.519 225.404 388.013 225.537 388.615 225.537ZM400.96 227.22C399.904 227.22 398.995 226.981 398.233 226.503C397.475 226.02 396.893 225.355 396.486 224.507C396.079 223.66 395.875 222.689 395.875 221.595C395.875 220.487 396.083 219.509 396.5 218.662C396.917 217.81 397.504 217.144 398.261 216.666C399.019 216.188 399.911 215.949 400.939 215.949C401.768 215.949 402.506 216.103 403.155 216.411C403.804 216.714 404.327 217.14 404.724 217.689C405.127 218.238 405.366 218.88 405.442 219.614H403.375C403.261 219.102 403.001 218.662 402.594 218.293C402.191 217.923 401.652 217.739 400.974 217.739C400.383 217.739 399.864 217.895 399.419 218.207C398.979 218.515 398.635 218.955 398.389 219.528C398.143 220.097 398.02 220.769 398.02 221.545C398.02 222.341 398.141 223.027 398.382 223.605C398.624 224.183 398.964 224.63 399.405 224.947C399.85 225.265 400.373 225.423 400.974 225.423C401.377 225.423 401.741 225.35 402.068 225.203C402.4 225.052 402.677 224.836 402.899 224.557C403.126 224.277 403.285 223.941 403.375 223.548H405.442C405.366 224.254 405.136 224.884 404.753 225.438C404.369 225.991 403.856 226.427 403.212 226.744C402.572 227.062 401.822 227.22 400.96 227.22ZM400.193 226.943H401.585L401.472 227.526C401.884 227.592 402.243 227.758 402.551 228.023C402.859 228.288 403.013 228.688 403.013 229.223C403.018 229.862 402.741 230.381 402.182 230.778C401.628 231.176 400.825 231.375 399.774 231.375L399.732 230.189C400.224 230.189 400.622 230.118 400.925 229.976C401.232 229.834 401.389 229.604 401.393 229.287C401.398 228.97 401.28 228.747 401.038 228.619C400.802 228.491 400.423 228.402 399.902 228.349L400.193 226.943ZM410.887 227.241C410.196 227.241 409.571 227.114 409.012 226.858C408.454 226.598 408.011 226.221 407.684 225.729C407.362 225.236 407.201 224.633 407.201 223.918C407.201 223.302 407.32 222.795 407.556 222.398C407.793 222 408.113 221.685 408.515 221.453C408.918 221.221 409.368 221.046 409.865 220.928C410.362 220.809 410.868 220.719 411.385 220.658C412.038 220.582 412.568 220.52 412.975 220.473C413.383 220.421 413.679 220.338 413.863 220.224C414.048 220.111 414.14 219.926 414.14 219.67V219.621C414.14 219 413.965 218.52 413.615 218.179C413.269 217.838 412.753 217.668 412.066 217.668C411.351 217.668 410.788 217.826 410.376 218.143C409.969 218.456 409.687 218.804 409.531 219.188L407.535 218.733C407.772 218.07 408.118 217.535 408.572 217.128C409.031 216.716 409.559 216.418 410.156 216.233C410.752 216.044 411.38 215.949 412.038 215.949C412.474 215.949 412.935 216.001 413.423 216.105C413.915 216.205 414.375 216.389 414.801 216.659C415.232 216.929 415.584 217.315 415.859 217.817C416.134 218.314 416.271 218.96 416.271 219.756V227H414.197V225.509H414.112C413.975 225.783 413.769 226.053 413.494 226.318C413.219 226.583 412.867 226.804 412.436 226.979C412.005 227.154 411.489 227.241 410.887 227.241ZM411.349 225.537C411.936 225.537 412.438 225.421 412.855 225.189C413.276 224.957 413.596 224.654 413.814 224.28C414.036 223.901 414.147 223.496 414.147 223.065V221.659C414.072 221.735 413.925 221.806 413.707 221.872C413.494 221.934 413.25 221.988 412.975 222.036C412.701 222.078 412.433 222.118 412.173 222.156C411.913 222.189 411.695 222.218 411.52 222.241C411.108 222.294 410.731 222.381 410.39 222.504C410.054 222.627 409.784 222.805 409.581 223.037C409.382 223.264 409.282 223.567 409.282 223.946C409.282 224.472 409.476 224.869 409.865 225.139C410.253 225.404 410.748 225.537 411.349 225.537ZM410.014 214.77L408.586 214.727C408.586 213.941 408.797 213.314 409.218 212.845C409.645 212.376 410.17 212.142 410.795 212.142C411.084 212.142 411.337 212.192 411.555 212.291C411.773 212.386 411.976 212.497 412.166 212.625C412.36 212.748 412.552 212.859 412.741 212.959C412.935 213.054 413.151 213.101 413.387 213.101C413.662 213.101 413.885 212.997 414.055 212.788C414.23 212.58 414.318 212.322 414.318 212.014L415.717 212.107C415.717 212.897 415.504 213.52 415.078 213.974C414.652 214.424 414.128 214.652 413.508 214.656C413.172 214.656 412.893 214.609 412.67 214.514C412.452 214.415 412.258 214.304 412.088 214.18C411.917 214.053 411.742 213.939 411.562 213.839C411.382 213.74 411.167 213.69 410.916 213.69C410.651 213.69 410.433 213.795 410.262 214.003C410.097 214.206 410.014 214.462 410.014 214.77ZM423.695 227.22C422.672 227.22 421.779 226.986 421.017 226.517C420.255 226.048 419.663 225.393 419.241 224.55C418.82 223.707 418.609 222.722 418.609 221.595C418.609 220.464 418.82 219.474 419.241 218.626C419.663 217.779 420.255 217.121 421.017 216.652C421.779 216.183 422.672 215.949 423.695 215.949C424.717 215.949 425.61 216.183 426.372 216.652C427.134 217.121 427.726 217.779 428.148 218.626C428.569 219.474 428.78 220.464 428.78 221.595C428.78 222.722 428.569 223.707 428.148 224.55C427.726 225.393 427.134 226.048 426.372 226.517C425.61 226.986 424.717 227.22 423.695 227.22ZM423.702 225.438C424.365 225.438 424.914 225.262 425.349 224.912C425.785 224.562 426.107 224.095 426.315 223.513C426.528 222.93 426.635 222.289 426.635 221.588C426.635 220.892 426.528 220.253 426.315 219.67C426.107 219.083 425.785 218.612 425.349 218.257C424.914 217.902 424.365 217.724 423.702 217.724C423.034 217.724 422.48 217.902 422.04 218.257C421.604 218.612 421.28 219.083 421.067 219.67C420.858 220.253 420.754 220.892 420.754 221.588C420.754 222.289 420.858 222.93 421.067 223.513C421.28 224.095 421.604 224.562 422.04 224.912C422.48 225.262 423.034 225.438 423.702 225.438Z" fill="#3F4346"/>
<path d="M129 148C129 147.448 128.552 147 128 147C127.448 147 127 147.448 127 148H129ZM477.293 264.707C477.683 265.098 478.317 265.098 478.707 264.707L485.071 258.343C485.462 257.953 485.462 257.319 485.071 256.929C484.681 256.538 484.047 256.538 483.657 256.929L478 262.586L472.343 256.929C471.953 256.538 471.319 256.538 470.929 256.929C470.538 257.319 470.538 257.953 470.929 258.343L477.293 264.707ZM127 148V183H129V148H127ZM152 208H454V206H152V208ZM477 231V264H479V231H477ZM454 208C466.703 208 477 218.297 477 231H479C479 217.193 467.807 206 454 206V208ZM127 183C127 196.807 138.193 208 152 208V206C139.297 206 129 195.703 129 183H127Z" fill="#B3B3B3"/>
<rect x="131" y="291" width="179" height="40" rx="4" fill="#1E75BA"/>
<path d="M157.25 311.75H152.75V316.25H151.25V311.75H146.75V310.25H151.25V305.75H152.75V310.25H157.25V311.75Z" fill="white"/>
<path d="M167.261 317H165.398L169.585 305.364H171.614L175.801 317H173.938L170.648 307.477H170.557L167.261 317ZM167.574 312.443H173.619V313.92H167.574V312.443ZM180.472 317.17C179.767 317.17 179.138 316.991 178.585 316.631C178.036 316.267 177.604 315.75 177.29 315.08C176.979 314.405 176.824 313.597 176.824 312.653C176.824 311.71 176.981 310.903 177.295 310.233C177.614 309.562 178.049 309.049 178.602 308.693C179.155 308.337 179.782 308.159 180.483 308.159C181.025 308.159 181.46 308.25 181.79 308.432C182.123 308.61 182.381 308.818 182.562 309.057C182.748 309.295 182.892 309.506 182.994 309.688H183.097V305.364H184.795V317H183.136V315.642H182.994C182.892 315.828 182.744 316.04 182.551 316.278C182.362 316.517 182.1 316.725 181.767 316.903C181.434 317.081 181.002 317.17 180.472 317.17ZM180.847 315.722C181.335 315.722 181.748 315.593 182.085 315.335C182.426 315.074 182.684 314.712 182.858 314.25C183.036 313.788 183.125 313.25 183.125 312.636C183.125 312.03 183.038 311.5 182.864 311.045C182.689 310.591 182.434 310.237 182.097 309.983C181.759 309.729 181.343 309.602 180.847 309.602C180.335 309.602 179.909 309.735 179.568 310C179.227 310.265 178.97 310.627 178.795 311.085C178.625 311.544 178.54 312.061 178.54 312.636C178.54 313.22 178.627 313.744 178.801 314.21C178.975 314.676 179.233 315.045 179.574 315.318C179.919 315.587 180.343 315.722 180.847 315.722ZM187.22 317V308.273H188.919V317H187.22ZM188.078 306.926C187.783 306.926 187.529 306.828 187.317 306.631C187.108 306.43 187.004 306.191 187.004 305.915C187.004 305.634 187.108 305.396 187.317 305.199C187.529 304.998 187.783 304.898 188.078 304.898C188.374 304.898 188.625 304.998 188.834 305.199C189.046 305.396 189.152 305.634 189.152 305.915C189.152 306.191 189.046 306.43 188.834 306.631C188.625 306.828 188.374 306.926 188.078 306.926ZM194.881 317.176C194.036 317.176 193.309 316.985 192.699 316.602C192.093 316.216 191.627 315.684 191.301 315.006C190.975 314.328 190.812 313.551 190.812 312.676C190.812 311.79 190.979 311.008 191.312 310.33C191.646 309.648 192.116 309.116 192.722 308.733C193.328 308.35 194.042 308.159 194.864 308.159C195.527 308.159 196.117 308.282 196.636 308.528C197.155 308.771 197.574 309.112 197.892 309.551C198.214 309.991 198.405 310.504 198.466 311.091H196.812C196.722 310.682 196.513 310.33 196.188 310.034C195.866 309.739 195.434 309.591 194.892 309.591C194.419 309.591 194.004 309.716 193.648 309.966C193.295 310.212 193.021 310.564 192.824 311.023C192.627 311.477 192.528 312.015 192.528 312.636C192.528 313.273 192.625 313.822 192.818 314.284C193.011 314.746 193.284 315.104 193.636 315.358C193.992 315.612 194.411 315.739 194.892 315.739C195.214 315.739 195.506 315.68 195.767 315.562C196.032 315.441 196.254 315.269 196.432 315.045C196.614 314.822 196.741 314.553 196.812 314.239H198.466C198.405 314.803 198.222 315.307 197.915 315.75C197.608 316.193 197.197 316.542 196.682 316.795C196.17 317.049 195.57 317.176 194.881 317.176ZM200.283 317V308.273H201.982V317H200.283ZM201.141 306.926C200.845 306.926 200.591 306.828 200.379 306.631C200.171 306.43 200.067 306.191 200.067 305.915C200.067 305.634 200.171 305.396 200.379 305.199C200.591 304.998 200.845 304.898 201.141 304.898C201.436 304.898 201.688 304.998 201.896 305.199C202.108 305.396 202.214 305.634 202.214 305.915C202.214 306.191 202.108 306.43 201.896 306.631C201.688 306.828 201.436 306.926 201.141 306.926ZM207.943 317.176C207.125 317.176 206.411 316.989 205.801 316.614C205.191 316.239 204.718 315.714 204.381 315.04C204.044 314.366 203.875 313.578 203.875 312.676C203.875 311.771 204.044 310.979 204.381 310.301C204.718 309.623 205.191 309.097 205.801 308.722C206.411 308.347 207.125 308.159 207.943 308.159C208.761 308.159 209.475 308.347 210.085 308.722C210.695 309.097 211.169 309.623 211.506 310.301C211.843 310.979 212.011 311.771 212.011 312.676C212.011 313.578 211.843 314.366 211.506 315.04C211.169 315.714 210.695 316.239 210.085 316.614C209.475 316.989 208.761 317.176 207.943 317.176ZM207.949 315.75C208.479 315.75 208.919 315.61 209.267 315.33C209.616 315.049 209.873 314.676 210.04 314.21C210.21 313.744 210.295 313.231 210.295 312.67C210.295 312.114 210.21 311.602 210.04 311.136C209.873 310.667 209.616 310.29 209.267 310.006C208.919 309.722 208.479 309.58 207.949 309.58C207.415 309.58 206.972 309.722 206.619 310.006C206.271 310.29 206.011 310.667 205.841 311.136C205.674 311.602 205.591 312.114 205.591 312.67C205.591 313.231 205.674 313.744 205.841 314.21C206.011 314.676 206.271 315.049 206.619 315.33C206.972 315.61 207.415 315.75 207.949 315.75ZM215.607 311.818V317H213.908V308.273H215.538V309.693H215.646C215.847 309.231 216.161 308.86 216.589 308.58C217.021 308.299 217.565 308.159 218.22 308.159C218.815 308.159 219.336 308.284 219.783 308.534C220.23 308.78 220.576 309.148 220.822 309.636C221.069 310.125 221.192 310.729 221.192 311.449V317H219.493V311.653C219.493 311.021 219.328 310.527 218.999 310.17C218.669 309.811 218.216 309.631 217.641 309.631C217.247 309.631 216.896 309.716 216.589 309.886C216.286 310.057 216.046 310.307 215.868 310.636C215.694 310.962 215.607 311.356 215.607 311.818ZM226.01 317.193C225.457 317.193 224.957 317.091 224.51 316.886C224.063 316.678 223.709 316.377 223.447 315.983C223.19 315.589 223.061 315.106 223.061 314.534C223.061 314.042 223.156 313.636 223.345 313.318C223.535 313 223.79 312.748 224.112 312.562C224.434 312.377 224.794 312.237 225.192 312.142C225.589 312.047 225.995 311.975 226.408 311.926C226.93 311.866 227.355 311.816 227.68 311.778C228.006 311.737 228.243 311.67 228.391 311.58C228.538 311.489 228.612 311.341 228.612 311.136V311.097C228.612 310.6 228.472 310.216 228.192 309.943C227.915 309.67 227.502 309.534 226.953 309.534C226.381 309.534 225.93 309.661 225.601 309.915C225.275 310.165 225.05 310.443 224.925 310.75L223.328 310.386C223.518 309.856 223.794 309.428 224.158 309.102C224.525 308.773 224.947 308.534 225.425 308.386C225.902 308.235 226.404 308.159 226.93 308.159C227.279 308.159 227.648 308.201 228.038 308.284C228.432 308.364 228.8 308.511 229.141 308.727C229.485 308.943 229.768 309.252 229.987 309.653C230.207 310.051 230.317 310.568 230.317 311.205V317H228.658V315.807H228.589C228.48 316.027 228.315 316.242 228.095 316.455C227.875 316.667 227.593 316.843 227.249 316.983C226.904 317.123 226.491 317.193 226.01 317.193ZM226.379 315.83C226.849 315.83 227.25 315.737 227.584 315.551C227.921 315.366 228.177 315.123 228.351 314.824C228.529 314.521 228.618 314.197 228.618 313.852V312.727C228.557 312.788 228.44 312.845 228.266 312.898C228.095 312.947 227.9 312.991 227.68 313.028C227.461 313.062 227.247 313.095 227.038 313.125C226.83 313.152 226.656 313.174 226.516 313.193C226.186 313.235 225.885 313.305 225.612 313.403C225.343 313.502 225.127 313.644 224.964 313.83C224.805 314.011 224.726 314.254 224.726 314.557C224.726 314.977 224.881 315.295 225.192 315.511C225.502 315.723 225.898 315.83 226.379 315.83ZM232.58 317V308.273H234.222V309.659H234.312C234.472 309.189 234.752 308.82 235.153 308.551C235.559 308.278 236.017 308.142 236.528 308.142C236.634 308.142 236.759 308.146 236.903 308.153C237.051 308.161 237.167 308.17 237.25 308.182V309.807C237.182 309.788 237.061 309.767 236.886 309.744C236.712 309.718 236.538 309.705 236.364 309.705C235.962 309.705 235.604 309.79 235.29 309.96C234.979 310.127 234.733 310.36 234.551 310.659C234.369 310.955 234.278 311.292 234.278 311.67V317H232.58ZM246.614 320.455C245.92 320.455 245.324 320.364 244.824 320.182C244.328 320 243.922 319.759 243.608 319.46C243.294 319.161 243.059 318.833 242.903 318.477L244.364 317.875C244.466 318.042 244.602 318.218 244.773 318.403C244.947 318.593 245.182 318.754 245.477 318.886C245.777 319.019 246.161 319.085 246.631 319.085C247.275 319.085 247.807 318.928 248.227 318.614C248.648 318.303 248.858 317.807 248.858 317.125V315.409H248.75C248.648 315.595 248.5 315.801 248.307 316.028C248.117 316.256 247.856 316.453 247.523 316.619C247.189 316.786 246.756 316.869 246.222 316.869C245.532 316.869 244.911 316.708 244.358 316.386C243.809 316.061 243.373 315.581 243.051 314.949C242.733 314.312 242.574 313.53 242.574 312.602C242.574 311.674 242.731 310.879 243.045 310.216C243.364 309.553 243.799 309.045 244.352 308.693C244.905 308.337 245.532 308.159 246.233 308.159C246.775 308.159 247.212 308.25 247.545 308.432C247.879 308.61 248.138 308.818 248.324 309.057C248.513 309.295 248.659 309.506 248.761 309.688H248.886V308.273H250.551V317.193C250.551 317.943 250.377 318.559 250.028 319.04C249.68 319.521 249.208 319.877 248.614 320.108C248.023 320.339 247.356 320.455 246.614 320.455ZM246.597 315.46C247.085 315.46 247.498 315.347 247.835 315.119C248.176 314.888 248.434 314.559 248.608 314.131C248.786 313.699 248.875 313.182 248.875 312.58C248.875 311.992 248.788 311.475 248.614 311.028C248.439 310.581 248.184 310.233 247.847 309.983C247.509 309.729 247.093 309.602 246.597 309.602C246.085 309.602 245.659 309.735 245.318 310C244.977 310.261 244.72 310.617 244.545 311.068C244.375 311.519 244.29 312.023 244.29 312.58C244.29 313.152 244.377 313.653 244.551 314.085C244.725 314.517 244.983 314.854 245.324 315.097C245.669 315.339 246.093 315.46 246.597 315.46ZM255.369 317.193C254.816 317.193 254.316 317.091 253.869 316.886C253.422 316.678 253.068 316.377 252.807 315.983C252.549 315.589 252.42 315.106 252.42 314.534C252.42 314.042 252.515 313.636 252.705 313.318C252.894 313 253.15 312.748 253.472 312.562C253.794 312.377 254.153 312.237 254.551 312.142C254.949 312.047 255.354 311.975 255.767 311.926C256.29 311.866 256.714 311.816 257.04 311.778C257.366 311.737 257.602 311.67 257.75 311.58C257.898 311.489 257.972 311.341 257.972 311.136V311.097C257.972 310.6 257.831 310.216 257.551 309.943C257.275 309.67 256.862 309.534 256.312 309.534C255.741 309.534 255.29 309.661 254.96 309.915C254.634 310.165 254.409 310.443 254.284 310.75L252.688 310.386C252.877 309.856 253.153 309.428 253.517 309.102C253.884 308.773 254.307 308.534 254.784 308.386C255.261 308.235 255.763 308.159 256.29 308.159C256.638 308.159 257.008 308.201 257.398 308.284C257.792 308.364 258.159 308.511 258.5 308.727C258.845 308.943 259.127 309.252 259.347 309.653C259.566 310.051 259.676 310.568 259.676 311.205V317H258.017V315.807H257.949C257.839 316.027 257.674 316.242 257.455 316.455C257.235 316.667 256.953 316.843 256.608 316.983C256.263 317.123 255.85 317.193 255.369 317.193ZM255.739 315.83C256.208 315.83 256.61 315.737 256.943 315.551C257.28 315.366 257.536 315.123 257.71 314.824C257.888 314.521 257.977 314.197 257.977 313.852V312.727C257.917 312.788 257.799 312.845 257.625 312.898C257.455 312.947 257.259 312.991 257.04 313.028C256.82 313.062 256.606 313.095 256.398 313.125C256.189 313.152 256.015 313.174 255.875 313.193C255.545 313.235 255.244 313.305 254.972 313.403C254.703 313.502 254.487 313.644 254.324 313.83C254.165 314.011 254.085 314.254 254.085 314.557C254.085 314.977 254.241 315.295 254.551 315.511C254.862 315.723 255.258 315.83 255.739 315.83ZM266.013 308.273V309.636H261.246V308.273H266.013ZM262.524 306.182H264.223V314.438C264.223 314.767 264.272 315.015 264.371 315.182C264.469 315.345 264.596 315.456 264.751 315.517C264.911 315.574 265.083 315.602 265.268 315.602C265.405 315.602 265.524 315.593 265.626 315.574C265.729 315.555 265.808 315.54 265.865 315.528L266.172 316.932C266.073 316.97 265.933 317.008 265.751 317.045C265.57 317.087 265.342 317.11 265.07 317.114C264.623 317.121 264.206 317.042 263.82 316.875C263.433 316.708 263.121 316.451 262.882 316.102C262.643 315.754 262.524 315.316 262.524 314.79V306.182ZM267.892 317V308.273H269.591V317H267.892ZM268.75 306.926C268.455 306.926 268.201 306.828 267.989 306.631C267.78 306.43 267.676 306.191 267.676 305.915C267.676 305.634 267.78 305.396 267.989 305.199C268.201 304.998 268.455 304.898 268.75 304.898C269.045 304.898 269.297 304.998 269.506 305.199C269.718 305.396 269.824 305.634 269.824 305.915C269.824 306.191 269.718 306.43 269.506 306.631C269.297 306.828 269.045 306.926 268.75 306.926ZM273.575 305.364V317H271.876V305.364H273.575ZM277.56 311.818V317H275.861V305.364H277.537V309.693H277.645C277.849 309.223 278.162 308.85 278.582 308.574C279.003 308.297 279.552 308.159 280.23 308.159C280.829 308.159 281.351 308.282 281.798 308.528C282.249 308.775 282.598 309.142 282.844 309.631C283.094 310.116 283.219 310.722 283.219 311.449V317H281.52V311.653C281.52 311.013 281.355 310.517 281.026 310.165C280.696 309.809 280.238 309.631 279.651 309.631C279.249 309.631 278.889 309.716 278.571 309.886C278.257 310.057 278.009 310.307 277.827 310.636C277.649 310.962 277.56 311.356 277.56 311.818ZM289.162 317.176C288.344 317.176 287.63 316.989 287.02 316.614C286.41 316.239 285.937 315.714 285.599 315.04C285.262 314.366 285.094 313.578 285.094 312.676C285.094 311.771 285.262 310.979 285.599 310.301C285.937 309.623 286.41 309.097 287.02 308.722C287.63 308.347 288.344 308.159 289.162 308.159C289.98 308.159 290.694 308.347 291.304 308.722C291.914 309.097 292.387 309.623 292.724 310.301C293.062 310.979 293.23 311.771 293.23 312.676C293.23 313.578 293.062 314.366 292.724 315.04C292.387 315.714 291.914 316.239 291.304 316.614C290.694 316.989 289.98 317.176 289.162 317.176ZM289.168 315.75C289.698 315.75 290.137 315.61 290.486 315.33C290.834 315.049 291.092 314.676 291.259 314.21C291.429 313.744 291.514 313.231 291.514 312.67C291.514 312.114 291.429 311.602 291.259 311.136C291.092 310.667 290.834 310.29 290.486 310.006C290.137 309.722 289.698 309.58 289.168 309.58C288.634 309.58 288.19 309.722 287.838 310.006C287.49 310.29 287.23 310.667 287.06 311.136C286.893 311.602 286.81 312.114 286.81 312.67C286.81 313.231 286.893 313.744 287.06 314.21C287.23 314.676 287.49 315.049 287.838 315.33C288.19 315.61 288.634 315.75 289.168 315.75Z" fill="white"/>
<path d="M561.334 91.6667V25H503V50H453V25H394.667V91.6667H453V66.6667H469.667V150H503V175H561.334V108.333H503V133.333H486.334V66.6667H503V91.6667H561.334ZM436.334 75H411.334V41.6667H436.334V75ZM519.667 125H544.667V158.333H519.667V125ZM519.667 41.6667H544.667V75H519.667V41.6667Z" fill="#DBEAF6"/>
<defs>
<filter id="filter0_d_6449_49804" x="32" y="55" width="192" height="101" filterUnits="userSpaceOnUse" color-interpolation-filters="sRGB">
<feFlood flood-opacity="0" result="BackgroundImageFix"/>
<feColorMatrix in="SourceAlpha" type="matrix" values="0 0 0 0 0 0 0 0 0 0 0 0 0 0 0 0 0 0 127 0" result="hardAlpha"/>
<feOffset dy="6"/>
<feGaussianBlur stdDeviation="3"/>
<feComposite in2="hardAlpha" operator="out"/>
<feColorMatrix type="matrix" values="0 0 0 0 0 0 0 0 0 0 0 0 0 0 0 0 0 0 0.25 0"/>
<feBlend mode="normal" in2="BackgroundImageFix" result="effect1_dropShadow_6449_49804"/>
<feBlend mode="normal" in="SourceGraphic" in2="effect1_dropShadow_6449_49804" result="shape"/>
</filter>
<filter id="filter1_d_6449_49804" x="382" y="268" width="192" height="98" filterUnits="userSpaceOnUse" color-interpolation-filters="sRGB">
<feFlood flood-opacity="0" result="BackgroundImageFix"/>
<feColorMatrix in="SourceAlpha" type="matrix" values="0 0 0 0 0 0 0 0 0 0 0 0 0 0 0 0 0 0 127 0" result="hardAlpha"/>
<feOffset dy="6"/>
<feGaussianBlur stdDeviation="3"/>
<feComposite in2="hardAlpha" operator="out"/>
<feColorMatrix type="matrix" values="0 0 0 0 0 0 0 0 0 0 0 0 0 0 0 0 0 0 0.25 0"/>
<feBlend mode="normal" in2="BackgroundImageFix" result="effect1_dropShadow_6449_49804"/>
<feBlend mode="normal" in="SourceGraphic" in2="effect1_dropShadow_6449_49804" result="shape"/>
</filter>
</defs>
</svg>
