<svg width="600" height="450" viewBox="0 0 600 450" fill="none" xmlns="http://www.w3.org/2000/svg">
<path d="M190.792 262.458C176.875 250.875 159.625 243.292 140.542 241.542V258.292C154.958 259.875 168.125 265.625 178.958 274.292L190.792 262.458Z" fill="#DBEAF6"/>
<path d="M123.875 258.292V241.542C104.792 243.208 87.5416 250.875 73.625 262.458L85.4583 274.292C96.2916 265.625 109.458 259.875 123.875 258.292Z" fill="#DBEAF6"/>
<path d="M73.7083 286.042L61.875 274.208C50.2916 288.125 42.7083 305.375 40.9583 324.458H57.7083C59.2916 310.042 65.0416 296.875 73.7083 286.042Z" fill="#DBEAF6"/>
<path d="M206.708 324.458H223.458C221.708 305.375 214.125 288.125 202.542 274.208L190.708 286.042C199.375 296.875 205.125 310.042 206.708 324.458Z" fill="#DBEAF6"/>
<path d="M90.5416 332.792L119.208 345.792L132.208 374.458L145.208 345.792L173.875 332.792L145.208 319.792L132.208 291.125L119.208 319.792L90.5416 332.792Z" fill="#DBEAF6"/>
<path d="M132.208 407.792C106.292 407.792 83.4583 394.542 70.0416 374.458H90.5416V357.792H40.5416V407.792H57.2083V385.292C73.7916 408.958 101.125 424.458 132.208 424.458C172.792 424.458 207.208 398.042 219.208 361.458L202.875 357.708C192.625 386.792 164.875 407.792 132.208 407.792Z" fill="#DBEAF6"/>
<path d="M510 37.5H460V54.1667H510V37.5ZM476.667 145.833H493.333V95.8333H476.667V145.833ZM543.583 90.75L555.417 78.9167C551.833 74.6667 547.917 70.6667 543.667 67.1667L531.833 79C518.917 68.6667 502.667 62.5 485 62.5C443.583 62.5 410 96.0833 410 137.5C410 178.917 443.5 212.5 485 212.5C526.5 212.5 560 178.917 560 137.5C560 119.833 553.833 103.583 543.583 90.75ZM485 195.833C452.75 195.833 426.667 169.75 426.667 137.5C426.667 105.25 452.75 79.1667 485 79.1667C517.25 79.1667 543.333 105.25 543.333 137.5C543.333 169.75 517.25 195.833 485 195.833Z" fill="#DBEAF6"/>
<rect x="40.5" y="99.5001" width="99" height="39" rx="3.5" fill="white"/>
<path d="M56.375 124H53.233V113.818H56.5142C57.5019 113.818 58.3471 114.022 59.0497 114.43C59.7524 114.834 60.291 115.416 60.6655 116.175C61.04 116.93 61.2273 117.835 61.2273 118.889C61.2273 119.95 61.0384 120.863 60.6605 121.629C60.2827 122.391 59.7325 122.978 59.0099 123.389C58.2874 123.796 57.4091 124 56.375 124ZM54.4659 122.906H56.2955C57.1373 122.906 57.835 122.744 58.3885 122.419C58.942 122.094 59.3546 121.632 59.6264 121.032C59.8982 120.432 60.0341 119.718 60.0341 118.889C60.0341 118.067 59.8999 117.36 59.6314 116.766C59.3629 116.17 58.9619 115.712 58.4283 115.394C57.8946 115.073 57.2301 114.912 56.4347 114.912H54.4659V122.906ZM65.3835 124.179C64.8996 124.179 64.4605 124.088 64.0661 123.906C63.6716 123.72 63.3584 123.453 63.1264 123.105C62.8944 122.754 62.7784 122.33 62.7784 121.832C62.7784 121.395 62.8646 121.04 63.0369 120.769C63.2093 120.493 63.4396 120.278 63.728 120.122C64.0163 119.966 64.3345 119.85 64.6825 119.774C65.0339 119.695 65.3868 119.632 65.7415 119.585C66.2055 119.526 66.5817 119.481 66.87 119.451C67.1617 119.418 67.3738 119.363 67.5064 119.287C67.6423 119.211 67.7102 119.078 67.7102 118.889V118.849C67.7102 118.359 67.576 117.978 67.3075 117.706C67.0424 117.434 66.6397 117.298 66.0994 117.298C65.5393 117.298 65.1001 117.421 64.782 117.666C64.4638 117.912 64.2401 118.173 64.1108 118.452L62.9972 118.054C63.196 117.59 63.4612 117.229 63.7926 116.97C64.1274 116.708 64.492 116.526 64.8864 116.423C65.2841 116.317 65.6752 116.264 66.0597 116.264C66.3049 116.264 66.5866 116.294 66.9048 116.354C67.2263 116.41 67.5362 116.528 67.8345 116.707C68.1361 116.886 68.3864 117.156 68.5852 117.517C68.7841 117.878 68.8835 118.362 68.8835 118.969V124H67.7102V122.966H67.6506C67.571 123.132 67.4384 123.309 67.2528 123.498C67.0672 123.687 66.8203 123.848 66.5121 123.98C66.2038 124.113 65.8277 124.179 65.3835 124.179ZM65.5625 123.125C66.0265 123.125 66.4176 123.034 66.7358 122.852C67.0573 122.669 67.2992 122.434 67.4616 122.146C67.6274 121.857 67.7102 121.554 67.7102 121.236V120.162C67.6605 120.222 67.5511 120.276 67.3821 120.326C67.2164 120.372 67.0241 120.414 66.8054 120.45C66.59 120.483 66.3795 120.513 66.174 120.54C65.9718 120.563 65.8078 120.583 65.6818 120.599C65.3769 120.639 65.0919 120.704 64.8267 120.793C64.5649 120.88 64.3527 121.01 64.1903 121.186C64.0313 121.358 63.9517 121.594 63.9517 121.892C63.9517 122.3 64.1025 122.608 64.4041 122.817C64.709 123.022 65.0952 123.125 65.5625 123.125ZM71.5073 126.864C71.3084 126.864 71.1311 126.847 70.9753 126.814C70.8195 126.784 70.7118 126.754 70.6522 126.724L70.9505 125.69C71.2355 125.763 71.4874 125.79 71.7061 125.77C71.9249 125.75 72.1188 125.652 72.2878 125.477C72.4602 125.304 72.6176 125.024 72.7601 124.636L72.9789 124.04L70.155 116.364H71.4277L73.5357 122.449H73.6152L75.7232 116.364H76.9959L73.7544 125.114C73.6086 125.508 73.428 125.835 73.2125 126.093C72.9971 126.355 72.7469 126.549 72.4618 126.675C72.1801 126.801 71.8619 126.864 71.5073 126.864Z" fill="#3F4346"/>
<path d="M117.833 116.917L122 121.083L126.167 116.917H117.833Z" fill="#5D6164"/>
<rect x="40.5" y="99.5001" width="99" height="39" rx="3.5" stroke="#1E75BA"/>
<rect x="40.5" y="161.5" width="99" height="39" rx="3.5" fill="white"/>
<path d="M55.0824 186L52.2983 175.818H53.5511L55.679 184.111H55.7784L57.946 175.818H59.3381L61.5057 184.111H61.6051L63.733 175.818H64.9858L62.2017 186H60.929L58.6818 177.886H58.6023L56.3551 186H55.0824ZM68.8537 186.159C68.1179 186.159 67.4832 185.997 66.9496 185.672C66.4193 185.344 66.0099 184.886 65.7216 184.3C65.4366 183.71 65.294 183.024 65.294 182.242C65.294 181.459 65.4366 180.77 65.7216 180.173C66.0099 179.573 66.411 179.106 66.9247 178.771C67.4418 178.433 68.045 178.264 68.7344 178.264C69.1321 178.264 69.5249 178.331 69.9126 178.463C70.3004 178.596 70.6534 178.811 70.9716 179.109C71.2898 179.404 71.5433 179.796 71.7322 180.283C71.9212 180.77 72.0156 181.37 72.0156 182.082V182.58H66.1293V181.565H70.8224C70.8224 181.135 70.7363 180.75 70.5639 180.412C70.3949 180.074 70.1529 179.807 69.8381 179.612C69.5265 179.416 69.1586 179.318 68.7344 179.318C68.267 179.318 67.8627 179.434 67.5213 179.666C67.1832 179.895 66.9231 180.193 66.7408 180.561C66.5585 180.929 66.4673 181.323 66.4673 181.744V182.421C66.4673 182.997 66.5668 183.486 66.7656 183.887C66.9678 184.285 67.2479 184.588 67.6058 184.797C67.9638 185.002 68.3797 185.105 68.8537 185.105C69.1619 185.105 69.4403 185.062 69.6889 184.976C69.9408 184.886 70.1579 184.754 70.3402 184.578C70.5225 184.399 70.6634 184.177 70.7628 183.912L71.8963 184.23C71.777 184.615 71.5765 184.953 71.2947 185.244C71.013 185.533 70.665 185.758 70.2507 185.921C69.8364 186.08 69.3707 186.159 68.8537 186.159ZM77.0021 186.159C76.2663 186.159 75.6316 185.997 75.098 185.672C74.5677 185.344 74.1584 184.886 73.87 184.3C73.585 183.71 73.4425 183.024 73.4425 182.242C73.4425 181.459 73.585 180.77 73.87 180.173C74.1584 179.573 74.5594 179.106 75.0732 178.771C75.5902 178.433 76.1934 178.264 76.8828 178.264C77.2805 178.264 77.6733 178.331 78.0611 178.463C78.4489 178.596 78.8018 178.811 79.12 179.109C79.4382 179.404 79.6918 179.796 79.8807 180.283C80.0696 180.77 80.1641 181.37 80.1641 182.082V182.58H74.2777V181.565H78.9709C78.9709 181.135 78.8847 180.75 78.7124 180.412C78.5433 180.074 78.3014 179.807 77.9865 179.612C77.675 179.416 77.3071 179.318 76.8828 179.318C76.4155 179.318 76.0111 179.434 75.6697 179.666C75.3317 179.895 75.0715 180.193 74.8892 180.561C74.7069 180.929 74.6158 181.323 74.6158 181.744V182.421C74.6158 182.997 74.7152 183.486 74.9141 183.887C75.1162 184.285 75.3963 184.588 75.7543 184.797C76.1122 185.002 76.5282 185.105 77.0021 185.105C77.3104 185.105 77.5888 185.062 77.8374 184.976C78.0893 184.886 78.3063 184.754 78.4886 184.578C78.6709 184.399 78.8118 184.177 78.9112 183.912L80.0447 184.23C79.9254 184.615 79.7249 184.953 79.4432 185.244C79.1615 185.533 78.8134 185.758 78.3991 185.921C77.9848 186.08 77.5192 186.159 77.0021 186.159ZM83.0426 183.216L83.0227 181.764H83.2614L86.6023 178.364H88.054L84.4943 181.963H84.3949L83.0426 183.216ZM81.9489 186V175.818H83.1222V186H81.9489ZM86.8011 186L83.8182 182.222L84.6534 181.406L88.2926 186H86.8011Z" fill="#3F4346"/>
<path d="M117.833 178.917L122 183.083L126.167 178.917H117.833Z" fill="#5D6164"/>
<rect x="40.5" y="161.5" width="99" height="39" rx="3.5" stroke="#1E75BA"/>
<path d="M159.795 124.205C159.242 124.205 158.741 124.1 158.29 123.892C157.839 123.68 157.481 123.375 157.216 122.977C156.951 122.576 156.818 122.091 156.818 121.523C156.818 121.023 156.917 120.617 157.114 120.307C157.311 119.992 157.574 119.746 157.903 119.568C158.233 119.39 158.597 119.258 158.994 119.17C159.396 119.08 159.799 119.008 160.205 118.955C160.735 118.886 161.165 118.835 161.494 118.801C161.828 118.763 162.07 118.701 162.222 118.614C162.377 118.527 162.455 118.375 162.455 118.159V118.114C162.455 117.553 162.301 117.117 161.994 116.807C161.691 116.496 161.231 116.341 160.614 116.341C159.973 116.341 159.472 116.481 159.108 116.761C158.744 117.042 158.489 117.341 158.341 117.659L157.068 117.205C157.295 116.674 157.598 116.261 157.977 115.966C158.36 115.667 158.777 115.458 159.227 115.341C159.682 115.22 160.129 115.159 160.568 115.159C160.848 115.159 161.17 115.193 161.534 115.261C161.902 115.326 162.256 115.46 162.597 115.665C162.941 115.869 163.227 116.178 163.455 116.591C163.682 117.004 163.795 117.557 163.795 118.25V124H162.455V122.818H162.386C162.295 123.008 162.144 123.21 161.932 123.426C161.72 123.642 161.438 123.826 161.085 123.977C160.733 124.129 160.303 124.205 159.795 124.205ZM160 123C160.53 123 160.977 122.896 161.341 122.688C161.708 122.479 161.985 122.21 162.17 121.881C162.36 121.551 162.455 121.205 162.455 120.841V119.614C162.398 119.682 162.273 119.744 162.08 119.801C161.89 119.854 161.67 119.902 161.42 119.943C161.174 119.981 160.934 120.015 160.699 120.045C160.468 120.072 160.28 120.095 160.136 120.114C159.788 120.159 159.462 120.233 159.159 120.335C158.86 120.434 158.617 120.583 158.432 120.784C158.25 120.981 158.159 121.25 158.159 121.591C158.159 122.057 158.331 122.409 158.676 122.648C159.025 122.883 159.466 123 160 123ZM170.038 115.273V116.409H165.516V115.273H170.038ZM166.834 113.182H168.175V121.5C168.175 121.879 168.23 122.163 168.339 122.352C168.453 122.538 168.597 122.663 168.771 122.727C168.949 122.788 169.137 122.818 169.334 122.818C169.482 122.818 169.603 122.811 169.697 122.795C169.792 122.777 169.868 122.761 169.925 122.75L170.197 123.955C170.107 123.989 169.98 124.023 169.817 124.057C169.654 124.095 169.447 124.114 169.197 124.114C168.819 124.114 168.447 124.032 168.084 123.869C167.724 123.706 167.425 123.458 167.186 123.125C166.951 122.792 166.834 122.371 166.834 121.864V113.182Z" fill="#3F4346"/>
<path d="M337.795 186.205C337.242 186.205 336.741 186.1 336.29 185.892C335.839 185.68 335.481 185.375 335.216 184.977C334.951 184.576 334.818 184.091 334.818 183.523C334.818 183.023 334.917 182.617 335.114 182.307C335.311 181.992 335.574 181.746 335.903 181.568C336.233 181.39 336.597 181.258 336.994 181.17C337.396 181.08 337.799 181.008 338.205 180.955C338.735 180.886 339.165 180.835 339.494 180.801C339.828 180.763 340.07 180.701 340.222 180.614C340.377 180.527 340.455 180.375 340.455 180.159V180.114C340.455 179.553 340.301 179.117 339.994 178.807C339.691 178.496 339.231 178.341 338.614 178.341C337.973 178.341 337.472 178.481 337.108 178.761C336.744 179.042 336.489 179.341 336.341 179.659L335.068 179.205C335.295 178.674 335.598 178.261 335.977 177.966C336.36 177.667 336.777 177.458 337.227 177.341C337.682 177.22 338.129 177.159 338.568 177.159C338.848 177.159 339.17 177.193 339.534 177.261C339.902 177.326 340.256 177.46 340.597 177.665C340.941 177.869 341.227 178.178 341.455 178.591C341.682 179.004 341.795 179.557 341.795 180.25V186H340.455V184.818H340.386C340.295 185.008 340.144 185.21 339.932 185.426C339.72 185.642 339.438 185.826 339.085 185.977C338.733 186.129 338.303 186.205 337.795 186.205ZM338 185C338.53 185 338.977 184.896 339.341 184.688C339.708 184.479 339.985 184.21 340.17 183.881C340.36 183.551 340.455 183.205 340.455 182.841V181.614C340.398 181.682 340.273 181.744 340.08 181.801C339.89 181.854 339.67 181.902 339.42 181.943C339.174 181.981 338.934 182.015 338.699 182.045C338.468 182.072 338.28 182.095 338.136 182.114C337.788 182.159 337.462 182.233 337.159 182.335C336.86 182.434 336.617 182.583 336.432 182.784C336.25 182.981 336.159 183.25 336.159 183.591C336.159 184.057 336.331 184.409 336.676 184.648C337.025 184.883 337.466 185 338 185ZM348.038 177.273V178.409H343.516V177.273H348.038ZM344.834 175.182H346.175V183.5C346.175 183.879 346.23 184.163 346.339 184.352C346.453 184.538 346.597 184.663 346.771 184.727C346.949 184.788 347.137 184.818 347.334 184.818C347.482 184.818 347.603 184.811 347.697 184.795C347.792 184.777 347.868 184.761 347.925 184.75L348.197 185.955C348.107 185.989 347.98 186.023 347.817 186.057C347.654 186.095 347.447 186.114 347.197 186.114C346.819 186.114 346.447 186.032 346.084 185.869C345.724 185.706 345.425 185.458 345.186 185.125C344.951 184.792 344.834 184.371 344.834 183.864V175.182Z" fill="#3F4346"/>
<path d="M164.227 180.182C164.227 181.409 164.006 182.47 163.562 183.364C163.119 184.258 162.511 184.947 161.739 185.432C160.966 185.917 160.083 186.159 159.091 186.159C158.098 186.159 157.216 185.917 156.443 185.432C155.67 184.947 155.063 184.258 154.619 183.364C154.176 182.47 153.955 181.409 153.955 180.182C153.955 178.955 154.176 177.894 154.619 177C155.063 176.106 155.67 175.417 156.443 174.932C157.216 174.447 158.098 174.205 159.091 174.205C160.083 174.205 160.966 174.447 161.739 174.932C162.511 175.417 163.119 176.106 163.562 177C164.006 177.894 164.227 178.955 164.227 180.182ZM162.864 180.182C162.864 179.174 162.695 178.324 162.358 177.631C162.025 176.938 161.572 176.413 161 176.057C160.432 175.701 159.795 175.523 159.091 175.523C158.386 175.523 157.748 175.701 157.176 176.057C156.608 176.413 156.155 176.938 155.818 177.631C155.485 178.324 155.318 179.174 155.318 180.182C155.318 181.189 155.485 182.04 155.818 182.733C156.155 183.426 156.608 183.951 157.176 184.307C157.748 184.663 158.386 184.841 159.091 184.841C159.795 184.841 160.432 184.663 161 184.307C161.572 183.951 162.025 183.426 162.358 182.733C162.695 182.04 162.864 181.189 162.864 180.182ZM167.756 180.75V186H166.415V177.273H167.71V178.636H167.824C168.028 178.193 168.339 177.837 168.756 177.568C169.172 177.295 169.71 177.159 170.369 177.159C170.96 177.159 171.477 177.28 171.92 177.523C172.364 177.761 172.708 178.125 172.955 178.614C173.201 179.098 173.324 179.712 173.324 180.455V186H171.983V180.545C171.983 179.86 171.805 179.326 171.449 178.943C171.093 178.557 170.604 178.364 169.983 178.364C169.555 178.364 169.172 178.456 168.835 178.642C168.502 178.828 168.239 179.098 168.045 179.455C167.852 179.811 167.756 180.242 167.756 180.75Z" fill="#3F4346"/>
<rect x="188.5" y="99.5001" width="129" height="39" rx="3.5" fill="white"/>
<path d="M206.801 116.364C206.741 115.86 206.5 115.469 206.075 115.19C205.651 114.912 205.131 114.773 204.514 114.773C204.063 114.773 203.669 114.846 203.331 114.992C202.996 115.137 202.734 115.338 202.545 115.593C202.36 115.848 202.267 116.138 202.267 116.463C202.267 116.735 202.332 116.969 202.461 117.164C202.594 117.356 202.763 117.517 202.968 117.646C203.174 117.772 203.389 117.877 203.614 117.96C203.84 118.039 204.047 118.104 204.236 118.153L205.27 118.432C205.535 118.501 205.83 118.598 206.155 118.72C206.483 118.843 206.796 119.01 207.094 119.222C207.396 119.431 207.645 119.7 207.84 120.028C208.036 120.356 208.134 120.759 208.134 121.236C208.134 121.786 207.989 122.283 207.701 122.727C207.416 123.171 206.998 123.524 206.448 123.786C205.901 124.048 205.237 124.179 204.455 124.179C203.725 124.179 203.094 124.061 202.56 123.826C202.03 123.591 201.612 123.263 201.308 122.842C201.006 122.421 200.835 121.932 200.795 121.375H202.068C202.101 121.76 202.231 122.078 202.456 122.33C202.685 122.578 202.973 122.764 203.321 122.886C203.672 123.006 204.05 123.065 204.455 123.065C204.925 123.065 205.348 122.989 205.722 122.837C206.097 122.681 206.393 122.465 206.612 122.19C206.831 121.912 206.94 121.587 206.94 121.216C206.94 120.878 206.846 120.603 206.657 120.391C206.468 120.179 206.219 120.006 205.911 119.874C205.603 119.741 205.27 119.625 204.912 119.526L203.659 119.168C202.864 118.939 202.234 118.613 201.77 118.188C201.306 117.764 201.074 117.209 201.074 116.523C201.074 115.953 201.228 115.456 201.536 115.031C201.848 114.604 202.265 114.272 202.789 114.037C203.316 113.798 203.904 113.679 204.554 113.679C205.21 113.679 205.794 113.797 206.304 114.032C206.814 114.264 207.219 114.582 207.517 114.987C207.819 115.391 207.978 115.85 207.994 116.364H206.801ZM213.203 124.159C212.468 124.159 211.833 123.997 211.299 123.672C210.769 123.344 210.36 122.886 210.071 122.3C209.786 121.71 209.644 121.024 209.644 120.242C209.644 119.459 209.786 118.77 210.071 118.173C210.36 117.573 210.761 117.106 211.274 116.771C211.791 116.433 212.395 116.264 213.084 116.264C213.482 116.264 213.874 116.331 214.262 116.463C214.65 116.596 215.003 116.811 215.321 117.109C215.639 117.404 215.893 117.796 216.082 118.283C216.271 118.77 216.365 119.37 216.365 120.082V120.58H210.479V119.565H215.172C215.172 119.135 215.086 118.75 214.914 118.412C214.744 118.074 214.503 117.807 214.188 117.612C213.876 117.416 213.508 117.318 213.084 117.318C212.617 117.318 212.212 117.434 211.871 117.666C211.533 117.895 211.273 118.193 211.09 118.561C210.908 118.929 210.817 119.323 210.817 119.744V120.421C210.817 120.997 210.916 121.486 211.115 121.887C211.317 122.285 211.597 122.588 211.955 122.797C212.313 123.002 212.729 123.105 213.203 123.105C213.512 123.105 213.79 123.062 214.039 122.976C214.29 122.886 214.508 122.754 214.69 122.578C214.872 122.399 215.013 122.177 215.112 121.912L216.246 122.23C216.127 122.615 215.926 122.953 215.644 123.244C215.363 123.533 215.015 123.758 214.6 123.921C214.186 124.08 213.72 124.159 213.203 124.159ZM219.323 113.818V124H218.15V113.818H219.323ZM224.674 124.159C223.938 124.159 223.304 123.997 222.77 123.672C222.24 123.344 221.83 122.886 221.542 122.3C221.257 121.71 221.114 121.024 221.114 120.242C221.114 119.459 221.257 118.77 221.542 118.173C221.83 117.573 222.231 117.106 222.745 116.771C223.262 116.433 223.865 116.264 224.555 116.264C224.952 116.264 225.345 116.331 225.733 116.463C226.121 116.596 226.474 116.811 226.792 117.109C227.11 117.404 227.364 117.796 227.553 118.283C227.741 118.77 227.836 119.37 227.836 120.082V120.58H221.95V119.565H226.643C226.643 119.135 226.557 118.75 226.384 118.412C226.215 118.074 225.973 117.807 225.658 117.612C225.347 117.416 224.979 117.318 224.555 117.318C224.087 117.318 223.683 117.434 223.342 117.666C223.004 117.895 222.743 118.193 222.561 118.561C222.379 118.929 222.288 119.323 222.288 119.744V120.421C222.288 120.997 222.387 121.486 222.586 121.887C222.788 122.285 223.068 122.588 223.426 122.797C223.784 123.002 224.2 123.105 224.674 123.105C224.982 123.105 225.261 123.062 225.509 122.976C225.761 122.886 225.978 122.754 226.161 122.578C226.343 122.399 226.484 122.177 226.583 121.912L227.717 122.23C227.597 122.615 227.397 122.953 227.115 123.244C226.833 123.533 226.485 123.758 226.071 123.921C225.657 124.08 225.191 124.159 224.674 124.159ZM232.723 124.159C232.007 124.159 231.391 123.99 230.874 123.652C230.357 123.314 229.959 122.848 229.68 122.255C229.402 121.662 229.263 120.984 229.263 120.222C229.263 119.446 229.405 118.762 229.69 118.168C229.979 117.572 230.38 117.106 230.893 116.771C231.411 116.433 232.014 116.264 232.703 116.264C233.24 116.264 233.724 116.364 234.155 116.563C234.586 116.761 234.939 117.04 235.214 117.398C235.489 117.756 235.66 118.173 235.726 118.651H234.553C234.463 118.303 234.264 117.994 233.956 117.726C233.651 117.454 233.24 117.318 232.723 117.318C232.266 117.318 231.865 117.438 231.52 117.676C231.179 117.912 230.912 118.245 230.719 118.675C230.531 119.103 230.436 119.605 230.436 120.182C230.436 120.772 230.529 121.286 230.714 121.723C230.903 122.161 231.169 122.5 231.51 122.742C231.855 122.984 232.259 123.105 232.723 123.105C233.028 123.105 233.305 123.052 233.553 122.946C233.802 122.84 234.012 122.688 234.185 122.489C234.357 122.29 234.48 122.051 234.553 121.773H235.726C235.66 122.224 235.496 122.63 235.234 122.991C234.975 123.349 234.632 123.634 234.205 123.846C233.78 124.055 233.286 124.159 232.723 124.159ZM240.762 116.364V117.358H236.805V116.364H240.762ZM237.958 114.534H239.131V121.813C239.131 122.144 239.179 122.393 239.276 122.558C239.375 122.721 239.501 122.83 239.653 122.886C239.809 122.939 239.973 122.966 240.146 122.966C240.275 122.966 240.381 122.959 240.464 122.946C240.547 122.93 240.613 122.916 240.663 122.906L240.901 123.96C240.822 123.99 240.711 124.02 240.568 124.05C240.426 124.083 240.245 124.099 240.026 124.099C239.695 124.099 239.37 124.028 239.052 123.886C238.737 123.743 238.475 123.526 238.266 123.234C238.061 122.943 237.958 122.575 237.958 122.131V114.534ZM249.786 116.364V117.358H245.828V116.364H249.786ZM246.982 114.534H248.155V121.813C248.155 122.144 248.203 122.393 248.299 122.558C248.398 122.721 248.524 122.83 248.677 122.886C248.833 122.939 248.997 122.966 249.169 122.966C249.298 122.966 249.404 122.959 249.487 122.946C249.57 122.93 249.636 122.916 249.686 122.906L249.925 123.96C249.845 123.99 249.734 124.02 249.592 124.05C249.449 124.083 249.268 124.099 249.05 124.099C248.718 124.099 248.393 124.028 248.075 123.886C247.76 123.743 247.499 123.526 247.29 123.234C247.084 122.943 246.982 122.575 246.982 122.131V114.534ZM251.55 124V116.364H252.724V124H251.55ZM252.147 115.091C251.918 115.091 251.721 115.013 251.555 114.857C251.393 114.702 251.312 114.514 251.312 114.296C251.312 114.077 251.393 113.89 251.555 113.734C251.721 113.578 251.918 113.5 252.147 113.5C252.376 113.5 252.571 113.578 252.734 113.734C252.899 113.89 252.982 114.077 252.982 114.296C252.982 114.514 252.899 114.702 252.734 114.857C252.571 115.013 252.376 115.091 252.147 115.091ZM254.873 124V116.364H256.006V117.557H256.106C256.265 117.149 256.522 116.833 256.876 116.607C257.231 116.379 257.657 116.264 258.154 116.264C258.658 116.264 259.077 116.379 259.412 116.607C259.75 116.833 260.013 117.149 260.202 117.557H260.282C260.477 117.162 260.771 116.849 261.162 116.617C261.553 116.382 262.022 116.264 262.569 116.264C263.251 116.264 263.81 116.478 264.244 116.906C264.678 117.33 264.895 117.991 264.895 118.889V124H263.722V118.889C263.722 118.326 263.568 117.923 263.26 117.681C262.952 117.439 262.589 117.318 262.171 117.318C261.634 117.318 261.218 117.481 260.923 117.805C260.628 118.127 260.481 118.535 260.481 119.028V124H259.287V118.77C259.287 118.336 259.147 117.986 258.865 117.721C258.583 117.452 258.22 117.318 257.776 117.318C257.471 117.318 257.186 117.399 256.921 117.562C256.659 117.724 256.447 117.95 256.285 118.238C256.126 118.523 256.046 118.853 256.046 119.227V124H254.873ZM270.242 124.159C269.507 124.159 268.872 123.997 268.338 123.672C267.808 123.344 267.399 122.886 267.11 122.3C266.825 121.71 266.683 121.024 266.683 120.242C266.683 119.459 266.825 118.77 267.11 118.173C267.399 117.573 267.8 117.106 268.313 116.771C268.83 116.433 269.434 116.264 270.123 116.264C270.521 116.264 270.914 116.331 271.301 116.463C271.689 116.596 272.042 116.811 272.36 117.109C272.678 117.404 272.932 117.796 273.121 118.283C273.31 118.77 273.404 119.37 273.404 120.082V120.58H267.518V119.565H272.211C272.211 119.135 272.125 118.75 271.953 118.412C271.784 118.074 271.542 117.807 271.227 117.612C270.915 117.416 270.547 117.318 270.123 117.318C269.656 117.318 269.251 117.434 268.91 117.666C268.572 117.895 268.312 118.193 268.129 118.561C267.947 118.929 267.856 119.323 267.856 119.744V120.421C267.856 120.997 267.955 121.486 268.154 121.887C268.356 122.285 268.637 122.588 268.994 122.797C269.352 123.002 269.768 123.105 270.242 123.105C270.551 123.105 270.829 123.062 271.078 122.976C271.329 122.886 271.547 122.754 271.729 122.578C271.911 122.399 272.052 122.177 272.151 121.912L273.285 122.23C273.166 122.615 272.965 122.953 272.683 123.244C272.402 123.533 272.054 123.758 271.639 123.921C271.225 124.08 270.759 124.159 270.242 124.159Z" fill="#8F9396"/>
<path d="M295.833 116.917L300 121.083L304.167 116.917H295.833Z" fill="#5D6164"/>
<rect x="188.5" y="99.5001" width="129" height="39" rx="3.5" stroke="#1E75BA"/>
<rect x="196" y="93" width="32" height="12" rx="2" fill="white"/>
<path d="M200.44 96.6719V95.7273H206.069V96.6719H203.8V103H202.706V96.6719H200.44ZM207.227 103V97.5455H208.289V103H207.227ZM207.764 96.7038C207.579 96.7038 207.42 96.6423 207.288 96.5192C207.158 96.3937 207.093 96.2446 207.093 96.0717C207.093 95.8965 207.158 95.7474 207.288 95.6243C207.42 95.4988 207.579 95.4361 207.764 95.4361C207.948 95.4361 208.106 95.4988 208.236 95.6243C208.369 95.7474 208.435 95.8965 208.435 96.0717C208.435 96.2446 208.369 96.3937 208.236 96.5192C208.106 96.6423 207.948 96.7038 207.764 96.7038ZM209.718 103V97.5455H210.737V98.4332H210.804C210.918 98.1326 211.104 97.8982 211.362 97.7301C211.62 97.5597 211.929 97.4744 212.289 97.4744C212.653 97.4744 212.959 97.5597 213.205 97.7301C213.453 97.9006 213.637 98.1349 213.755 98.4332H213.812C213.942 98.142 214.15 97.91 214.434 97.7372C214.718 97.562 215.056 97.4744 215.449 97.4744C215.944 97.4744 216.348 97.6295 216.66 97.9396C216.975 98.2498 217.132 98.7173 217.132 99.3423V103H216.071V99.4418C216.071 99.0724 215.97 98.8049 215.769 98.6392C215.568 98.4735 215.327 98.3906 215.048 98.3906C214.702 98.3906 214.434 98.4972 214.242 98.7102C214.05 98.9209 213.954 99.192 213.954 99.5234V103H212.896V99.3743C212.896 99.0784 212.804 98.8404 212.619 98.6605C212.434 98.4806 212.194 98.3906 211.898 98.3906C211.697 98.3906 211.511 98.4439 211.341 98.5504C211.172 98.6546 211.036 98.8002 210.932 98.9872C210.83 99.1742 210.779 99.3909 210.779 99.6371V103H209.718ZM220.906 103.11C220.369 103.11 219.906 102.995 219.518 102.766C219.132 102.534 218.834 102.208 218.623 101.789C218.415 101.368 218.311 100.874 218.311 100.308C218.311 99.7495 218.415 99.2571 218.623 98.831C218.834 98.4048 219.127 98.0722 219.504 97.8331C219.883 97.594 220.325 97.4744 220.832 97.4744C221.14 97.4744 221.438 97.5253 221.727 97.6271C222.016 97.7289 222.275 97.8887 222.504 98.1065C222.734 98.3243 222.915 98.6072 223.048 98.9553C223.18 99.3009 223.247 99.7211 223.247 100.216V100.592H218.911V99.7969H222.206C222.206 99.5175 222.149 99.2701 222.036 99.0547C221.922 98.8369 221.762 98.6652 221.556 98.5398C221.353 98.4143 221.114 98.3516 220.839 98.3516C220.541 98.3516 220.28 98.425 220.058 98.5717C219.838 98.7161 219.667 98.9055 219.546 99.1399C219.428 99.3719 219.369 99.6241 219.369 99.8963V100.518C219.369 100.882 219.433 101.192 219.561 101.448C219.691 101.704 219.872 101.899 220.104 102.034C220.336 102.167 220.607 102.233 220.917 102.233C221.118 102.233 221.302 102.205 221.468 102.148C221.633 102.089 221.776 102.001 221.897 101.885C222.018 101.769 222.11 101.626 222.174 101.455L223.179 101.636C223.099 101.932 222.954 102.192 222.746 102.414C222.54 102.634 222.281 102.806 221.968 102.929C221.658 103.05 221.304 103.11 220.906 103.11Z" fill="#1E75BA"/>
<rect x="366.5" y="161.5" width="129" height="39" rx="3.5" fill="white"/>
<path d="M382.634 175.818V186H381.401V177.111H381.341L378.855 178.761V177.509L381.401 175.818H382.634ZM385.562 186V185.105L388.923 181.426C389.317 180.995 389.642 180.621 389.897 180.303C390.152 179.981 390.341 179.68 390.464 179.398C390.59 179.113 390.653 178.814 390.653 178.503C390.653 178.145 390.567 177.835 390.394 177.573C390.225 177.311 389.993 177.109 389.698 176.967C389.403 176.824 389.072 176.753 388.704 176.753C388.313 176.753 387.971 176.834 387.68 176.997C387.391 177.156 387.168 177.379 387.009 177.668C386.853 177.956 386.775 178.294 386.775 178.682H385.602C385.602 178.085 385.739 177.562 386.014 177.111C386.289 176.66 386.664 176.309 387.138 176.057C387.615 175.805 388.15 175.679 388.744 175.679C389.34 175.679 389.869 175.805 390.33 176.057C390.79 176.309 391.152 176.648 391.413 177.076C391.675 177.504 391.806 177.979 391.806 178.503C391.806 178.877 391.738 179.244 391.602 179.602C391.47 179.956 391.238 180.352 390.906 180.79C390.578 181.224 390.122 181.754 389.539 182.381L387.252 184.827V184.906H391.985V186H385.562ZM394.913 184.698C394.668 184.698 394.458 184.61 394.282 184.434C394.106 184.258 394.018 184.048 394.018 183.803C394.018 183.557 394.106 183.347 394.282 183.171C394.458 182.996 394.668 182.908 394.913 182.908C395.159 182.908 395.369 182.996 395.545 183.171C395.72 183.347 395.808 183.557 395.808 183.803C395.808 183.965 395.767 184.114 395.684 184.25C395.604 184.386 395.497 184.495 395.361 184.578C395.228 184.658 395.079 184.698 394.913 184.698ZM394.913 179.547C394.668 179.547 394.458 179.459 394.282 179.283C394.106 179.108 394.018 178.897 394.018 178.652C394.018 178.407 394.106 178.196 394.282 178.021C394.458 177.845 394.668 177.757 394.913 177.757C395.159 177.757 395.369 177.845 395.545 178.021C395.72 178.196 395.808 178.407 395.808 178.652C395.808 178.814 395.767 178.964 395.684 179.099C395.604 179.235 395.497 179.345 395.361 179.428C395.228 179.507 395.079 179.547 394.913 179.547ZM401.215 186.139C400.466 186.139 399.828 185.935 399.301 185.528C398.774 185.117 398.371 184.522 398.093 183.743C397.814 182.961 397.675 182.016 397.675 180.909C397.675 179.809 397.814 178.869 398.093 178.09C398.374 177.308 398.779 176.711 399.306 176.3C399.836 175.886 400.472 175.679 401.215 175.679C401.957 175.679 402.592 175.886 403.119 176.3C403.649 176.711 404.054 177.308 404.332 178.09C404.614 178.869 404.755 179.809 404.755 180.909C404.755 182.016 404.615 182.961 404.337 183.743C404.059 184.522 403.656 185.117 403.129 185.528C402.602 185.935 401.964 186.139 401.215 186.139ZM401.215 185.046C401.957 185.046 402.534 184.688 402.945 183.972C403.356 183.256 403.561 182.235 403.561 180.909C403.561 180.028 403.467 179.277 403.278 178.657C403.092 178.037 402.824 177.565 402.473 177.24C402.125 176.915 401.705 176.753 401.215 176.753C400.479 176.753 399.904 177.116 399.49 177.842C399.075 178.564 398.868 179.587 398.868 180.909C398.868 181.791 398.961 182.54 399.147 183.156C399.332 183.773 399.599 184.242 399.947 184.563C400.298 184.885 400.721 185.046 401.215 185.046ZM409.965 186.139C409.216 186.139 408.578 185.935 408.051 185.528C407.524 185.117 407.121 184.522 406.843 183.743C406.564 182.961 406.425 182.016 406.425 180.909C406.425 179.809 406.564 178.869 406.843 178.09C407.124 177.308 407.529 176.711 408.056 176.3C408.586 175.886 409.222 175.679 409.965 175.679C410.707 175.679 411.342 175.886 411.869 176.3C412.399 176.711 412.804 177.308 413.082 178.09C413.364 178.869 413.505 179.809 413.505 180.909C413.505 182.016 413.365 182.961 413.087 183.743C412.809 184.522 412.406 185.117 411.879 185.528C411.352 185.935 410.714 186.139 409.965 186.139ZM409.965 185.046C410.707 185.046 411.284 184.688 411.695 183.972C412.106 183.256 412.311 182.235 412.311 180.909C412.311 180.028 412.217 179.277 412.028 178.657C411.842 178.037 411.574 177.565 411.223 177.24C410.875 176.915 410.455 176.753 409.965 176.753C409.229 176.753 408.654 177.116 408.24 177.842C407.825 178.564 407.618 179.587 407.618 180.909C407.618 181.791 407.711 182.54 407.897 183.156C408.082 183.773 408.349 184.242 408.697 184.563C409.048 184.885 409.471 185.046 409.965 185.046Z" fill="#3F4346"/>
<path d="M473.833 178.917L478 183.083L482.167 178.917H473.833Z" fill="#5D6164"/>
<rect x="366.5" y="161.5" width="129" height="39" rx="3.5" stroke="#1E75BA"/>
<rect x="374" y="155" width="32" height="12" rx="2" fill="white"/>
<path d="M378.44 158.672V157.727H384.069V158.672H381.8V165H380.706V158.672H378.44ZM385.227 165V159.545H386.289V165H385.227ZM385.764 158.704C385.579 158.704 385.42 158.642 385.288 158.519C385.158 158.394 385.093 158.245 385.093 158.072C385.093 157.897 385.158 157.747 385.288 157.624C385.42 157.499 385.579 157.436 385.764 157.436C385.948 157.436 386.106 157.499 386.236 157.624C386.369 157.747 386.435 157.897 386.435 158.072C386.435 158.245 386.369 158.394 386.236 158.519C386.106 158.642 385.948 158.704 385.764 158.704ZM387.718 165V159.545H388.737V160.433H388.804C388.918 160.133 389.104 159.898 389.362 159.73C389.62 159.56 389.929 159.474 390.289 159.474C390.653 159.474 390.959 159.56 391.205 159.73C391.453 159.901 391.637 160.135 391.755 160.433H391.812C391.942 160.142 392.15 159.91 392.434 159.737C392.718 159.562 393.056 159.474 393.449 159.474C393.944 159.474 394.348 159.629 394.66 159.94C394.975 160.25 395.132 160.717 395.132 161.342V165H394.071V161.442C394.071 161.072 393.97 160.805 393.769 160.639C393.568 160.473 393.327 160.391 393.048 160.391C392.702 160.391 392.434 160.497 392.242 160.71C392.05 160.921 391.954 161.192 391.954 161.523V165H390.896V161.374C390.896 161.078 390.804 160.84 390.619 160.661C390.434 160.481 390.194 160.391 389.898 160.391C389.697 160.391 389.511 160.444 389.341 160.55C389.172 160.655 389.036 160.8 388.932 160.987C388.83 161.174 388.779 161.391 388.779 161.637V165H387.718ZM398.906 165.11C398.369 165.11 397.906 164.995 397.518 164.766C397.132 164.534 396.834 164.208 396.623 163.789C396.415 163.368 396.311 162.874 396.311 162.308C396.311 161.75 396.415 161.257 396.623 160.831C396.834 160.405 397.127 160.072 397.504 159.833C397.883 159.594 398.325 159.474 398.832 159.474C399.14 159.474 399.438 159.525 399.727 159.627C400.016 159.729 400.275 159.889 400.504 160.107C400.734 160.324 400.915 160.607 401.048 160.955C401.18 161.301 401.247 161.721 401.247 162.216V162.592H396.911V161.797H400.206C400.206 161.518 400.149 161.27 400.036 161.055C399.922 160.837 399.762 160.665 399.556 160.54C399.353 160.414 399.114 160.352 398.839 160.352C398.541 160.352 398.28 160.425 398.058 160.572C397.838 160.716 397.667 160.906 397.546 161.14C397.428 161.372 397.369 161.624 397.369 161.896V162.518C397.369 162.882 397.433 163.192 397.561 163.448C397.691 163.704 397.872 163.899 398.104 164.034C398.336 164.167 398.607 164.233 398.917 164.233C399.118 164.233 399.302 164.205 399.468 164.148C399.633 164.089 399.776 164.001 399.897 163.885C400.018 163.769 400.11 163.626 400.174 163.455L401.179 163.636C401.099 163.932 400.954 164.192 400.746 164.414C400.54 164.634 400.281 164.806 399.968 164.929C399.658 165.05 399.304 165.11 398.906 165.11Z" fill="#1E75BA"/>
<rect x="188.5" y="161.5" width="129" height="39" rx="3.5" fill="white"/>
<path d="M201.233 175.818H202.705L206.165 184.27H206.284L209.744 175.818H211.216V186H210.062V178.264H209.963L206.781 186H205.668L202.486 178.264H202.386V186H201.233V175.818ZM216.631 186.159C215.942 186.159 215.337 185.995 214.817 185.667C214.3 185.339 213.895 184.88 213.604 184.29C213.315 183.7 213.171 183.01 213.171 182.222C213.171 181.426 213.315 180.732 213.604 180.139C213.895 179.545 214.3 179.085 214.817 178.756C215.337 178.428 215.942 178.264 216.631 178.264C217.321 178.264 217.924 178.428 218.441 178.756C218.961 179.085 219.366 179.545 219.654 180.139C219.946 180.732 220.091 181.426 220.091 182.222C220.091 183.01 219.946 183.7 219.654 184.29C219.366 184.88 218.961 185.339 218.441 185.667C217.924 185.995 217.321 186.159 216.631 186.159ZM216.631 185.105C217.155 185.105 217.586 184.971 217.924 184.702C218.262 184.434 218.512 184.081 218.675 183.644C218.837 183.206 218.918 182.732 218.918 182.222C218.918 181.711 218.837 181.236 218.675 180.795C218.512 180.354 218.262 179.998 217.924 179.726C217.586 179.454 217.155 179.318 216.631 179.318C216.108 179.318 215.677 179.454 215.339 179.726C215.001 179.998 214.75 180.354 214.588 180.795C214.425 181.236 214.344 181.711 214.344 182.222C214.344 182.732 214.425 183.206 214.588 183.644C214.75 184.081 215.001 184.434 215.339 184.702C215.677 184.971 216.108 185.105 216.631 185.105ZM223.056 181.406V186H221.882V178.364H223.016V179.557H223.115C223.294 179.169 223.566 178.858 223.931 178.622C224.295 178.384 224.766 178.264 225.343 178.264C225.86 178.264 226.312 178.37 226.7 178.582C227.088 178.791 227.389 179.109 227.605 179.537C227.82 179.961 227.928 180.498 227.928 181.148V186H226.755V181.227C226.755 180.627 226.599 180.16 226.287 179.825C225.976 179.487 225.548 179.318 225.005 179.318C224.63 179.318 224.295 179.399 224 179.562C223.709 179.724 223.478 179.961 223.309 180.273C223.14 180.584 223.056 180.962 223.056 181.406ZM232.955 186.159C232.319 186.159 231.757 185.998 231.27 185.677C230.783 185.352 230.402 184.895 230.127 184.305C229.852 183.711 229.714 183.01 229.714 182.202C229.714 181.4 229.852 180.704 230.127 180.114C230.402 179.524 230.785 179.068 231.275 178.747C231.766 178.425 232.332 178.264 232.975 178.264C233.472 178.264 233.865 178.347 234.154 178.513C234.445 178.675 234.667 178.861 234.82 179.07C234.976 179.275 235.097 179.444 235.183 179.577H235.282V175.818H236.455V186H235.322V184.827H235.183C235.097 184.966 234.974 185.142 234.815 185.354C234.656 185.563 234.429 185.75 234.134 185.916C233.839 186.078 233.446 186.159 232.955 186.159ZM233.115 185.105C233.585 185.105 233.983 184.983 234.308 184.737C234.633 184.489 234.879 184.146 235.048 183.708C235.218 183.267 235.302 182.759 235.302 182.182C235.302 181.612 235.219 181.113 235.053 180.685C234.888 180.255 234.642 179.92 234.318 179.681C233.993 179.439 233.592 179.318 233.115 179.318C232.617 179.318 232.203 179.446 231.872 179.701C231.544 179.953 231.297 180.296 231.131 180.73C230.968 181.161 230.887 181.645 230.887 182.182C230.887 182.725 230.97 183.219 231.136 183.663C231.305 184.104 231.553 184.456 231.882 184.717C232.213 184.976 232.624 185.105 233.115 185.105ZM241.014 186.179C240.53 186.179 240.091 186.088 239.697 185.906C239.302 185.72 238.989 185.453 238.757 185.105C238.525 184.754 238.409 184.33 238.409 183.832C238.409 183.395 238.495 183.04 238.668 182.769C238.84 182.493 239.07 182.278 239.359 182.122C239.647 181.966 239.965 181.85 240.313 181.774C240.665 181.695 241.018 181.632 241.372 181.585C241.836 181.526 242.213 181.481 242.501 181.451C242.793 181.418 243.005 181.363 243.137 181.287C243.273 181.211 243.341 181.078 243.341 180.889V180.849C243.341 180.359 243.207 179.978 242.938 179.706C242.673 179.434 242.271 179.298 241.73 179.298C241.17 179.298 240.731 179.421 240.413 179.666C240.095 179.912 239.871 180.173 239.742 180.452L238.628 180.054C238.827 179.59 239.092 179.229 239.423 178.97C239.758 178.708 240.123 178.526 240.517 178.423C240.915 178.317 241.306 178.264 241.691 178.264C241.936 178.264 242.218 178.294 242.536 178.354C242.857 178.41 243.167 178.528 243.465 178.707C243.767 178.886 244.017 179.156 244.216 179.517C244.415 179.878 244.514 180.362 244.514 180.969V186H243.341V184.966H243.281C243.202 185.132 243.069 185.309 242.884 185.498C242.698 185.687 242.451 185.848 242.143 185.98C241.835 186.113 241.459 186.179 241.014 186.179ZM241.193 185.125C241.657 185.125 242.048 185.034 242.367 184.852C242.688 184.669 242.93 184.434 243.093 184.146C243.258 183.857 243.341 183.554 243.341 183.236V182.162C243.291 182.222 243.182 182.276 243.013 182.326C242.847 182.372 242.655 182.414 242.436 182.45C242.221 182.483 242.01 182.513 241.805 182.54C241.603 182.563 241.439 182.583 241.313 182.599C241.008 182.639 240.723 182.704 240.458 182.793C240.196 182.88 239.984 183.01 239.821 183.186C239.662 183.358 239.583 183.594 239.583 183.892C239.583 184.3 239.733 184.608 240.035 184.817C240.34 185.022 240.726 185.125 241.193 185.125ZM247.138 188.864C246.939 188.864 246.762 188.847 246.606 188.814C246.45 188.784 246.343 188.754 246.283 188.724L246.581 187.69C246.866 187.763 247.118 187.79 247.337 187.77C247.556 187.75 247.75 187.652 247.919 187.477C248.091 187.304 248.248 187.024 248.391 186.636L248.61 186.04L245.786 178.364H247.059L249.167 184.449H249.246L251.354 178.364H252.627L249.385 187.114C249.239 187.508 249.059 187.835 248.843 188.093C248.628 188.355 248.378 188.549 248.093 188.675C247.811 188.801 247.493 188.864 247.138 188.864Z" fill="#3F4346"/>
<path d="M295.833 178.917L300 183.083L304.167 178.917H295.833Z" fill="#5D6164"/>
<rect x="188.5" y="161.5" width="129" height="39" rx="3.5" stroke="#1E75BA"/>
<rect x="196" y="155" width="32" height="12" rx="2" fill="white"/>
<path d="M203.153 165H200.799V157.727H203.228C203.941 157.727 204.553 157.873 205.064 158.164C205.575 158.453 205.967 158.868 206.239 159.411C206.514 159.95 206.651 160.598 206.651 161.353C206.651 162.111 206.513 162.762 206.236 163.306C205.961 163.851 205.563 164.27 205.043 164.563C204.522 164.854 203.892 165 203.153 165ZM201.896 164.041H203.093C203.647 164.041 204.107 163.937 204.474 163.729C204.841 163.518 205.116 163.214 205.298 162.816C205.481 162.416 205.572 161.928 205.572 161.353C205.572 160.782 205.481 160.298 205.298 159.901C205.118 159.503 204.85 159.201 204.492 158.995C204.135 158.789 203.691 158.686 203.161 158.686H201.896V164.041ZM209.518 165.121C209.172 165.121 208.86 165.057 208.58 164.929C208.301 164.799 208.08 164.611 207.916 164.364C207.755 164.118 207.675 163.816 207.675 163.459C207.675 163.151 207.734 162.898 207.852 162.699C207.971 162.5 208.131 162.343 208.332 162.227C208.533 162.111 208.758 162.023 209.007 161.964C209.255 161.905 209.508 161.86 209.767 161.829C210.093 161.791 210.358 161.76 210.562 161.737C210.766 161.71 210.914 161.669 211.006 161.612C211.098 161.555 211.144 161.463 211.144 161.335V161.31C211.144 161 211.057 160.76 210.882 160.589C210.709 160.419 210.451 160.334 210.107 160.334C209.75 160.334 209.468 160.413 209.262 160.572C209.059 160.728 208.918 160.902 208.84 161.094L207.842 160.866C207.96 160.535 208.133 160.268 208.36 160.064C208.59 159.858 208.854 159.709 209.152 159.616C209.45 159.522 209.764 159.474 210.093 159.474C210.311 159.474 210.542 159.5 210.786 159.553C211.032 159.602 211.262 159.695 211.475 159.83C211.69 159.964 211.866 160.157 212.004 160.408C212.141 160.657 212.21 160.98 212.21 161.378V165H211.173V164.254H211.13C211.061 164.392 210.959 164.527 210.821 164.659C210.684 164.792 210.508 164.902 210.292 164.989C210.077 165.077 209.819 165.121 209.518 165.121ZM209.749 164.268C210.042 164.268 210.293 164.21 210.502 164.094C210.712 163.978 210.872 163.827 210.981 163.64C211.092 163.451 211.148 163.248 211.148 163.033V162.33C211.11 162.367 211.037 162.403 210.928 162.436C210.821 162.467 210.699 162.494 210.562 162.518C210.425 162.539 210.291 162.559 210.161 162.578C210.03 162.595 209.922 162.609 209.834 162.621C209.628 162.647 209.44 162.691 209.269 162.752C209.101 162.814 208.966 162.902 208.865 163.018C208.765 163.132 208.715 163.284 208.715 163.473C208.715 163.736 208.812 163.935 209.007 164.07C209.201 164.202 209.448 164.268 209.749 164.268ZM214.1 167.045C213.941 167.045 213.797 167.032 213.667 167.006C213.536 166.983 213.439 166.957 213.375 166.928L213.631 166.058C213.825 166.11 213.998 166.133 214.15 166.126C214.301 166.119 214.435 166.062 214.551 165.955C214.669 165.849 214.773 165.675 214.863 165.433L214.995 165.071L212.999 159.545H214.135L215.517 163.778H215.574L216.955 159.545H218.095L215.847 165.728C215.743 166.012 215.61 166.252 215.449 166.449C215.288 166.648 215.096 166.797 214.874 166.896C214.651 166.996 214.393 167.045 214.1 167.045ZM223.18 160.877L222.218 161.048C222.177 160.924 222.114 160.807 222.026 160.696C221.941 160.585 221.825 160.494 221.678 160.423C221.531 160.352 221.348 160.316 221.127 160.316C220.827 160.316 220.576 160.384 220.375 160.518C220.173 160.651 220.073 160.823 220.073 161.033C220.073 161.216 220.14 161.362 220.275 161.474C220.41 161.585 220.628 161.676 220.929 161.747L221.795 161.946C222.297 162.062 222.671 162.241 222.917 162.482C223.163 162.724 223.287 163.037 223.287 163.423C223.287 163.75 223.192 164.041 223.002 164.297C222.815 164.55 222.554 164.749 222.218 164.893C221.884 165.038 221.497 165.11 221.056 165.11C220.446 165.11 219.947 164.98 219.561 164.719C219.176 164.457 218.939 164.084 218.851 163.601L219.877 163.445C219.941 163.712 220.073 163.915 220.272 164.052C220.471 164.187 220.73 164.254 221.049 164.254C221.397 164.254 221.676 164.182 221.884 164.038C222.092 163.891 222.196 163.712 222.196 163.501C222.196 163.331 222.132 163.188 222.005 163.072C221.879 162.956 221.686 162.868 221.426 162.809L220.502 162.607C219.993 162.491 219.617 162.306 219.373 162.053C219.132 161.799 219.011 161.478 219.011 161.09C219.011 160.768 219.101 160.487 219.281 160.245C219.461 160.004 219.709 159.815 220.027 159.68C220.344 159.543 220.707 159.474 221.117 159.474C221.706 159.474 222.17 159.602 222.509 159.858C222.847 160.111 223.071 160.451 223.18 160.877Z" fill="#1E75BA"/>
<path d="M42.598 73V58.4545H47.7827C48.9096 58.4545 49.8447 58.6487 50.5881 59.0369C51.3362 59.4252 51.8949 59.9626 52.2642 60.6491C52.6335 61.331 52.8182 62.1193 52.8182 63.0142C52.8182 63.9044 52.6312 64.688 52.2571 65.3651C51.8878 66.0374 51.3291 66.5606 50.581 66.9347C49.8376 67.3087 48.9025 67.4957 47.7756 67.4957H43.848V65.6065H47.5767C48.2869 65.6065 48.8646 65.5047 49.3097 65.3011C49.7595 65.0975 50.0885 64.8016 50.2969 64.4134C50.5052 64.0251 50.6094 63.5587 50.6094 63.0142C50.6094 62.465 50.5028 61.9891 50.2898 61.5866C50.0814 61.1842 49.7524 60.8764 49.3026 60.6634C48.8575 60.4455 48.2727 60.3366 47.5483 60.3366H44.7926V73H42.598ZM49.7784 66.4375L53.3722 73H50.8722L47.3494 66.4375H49.7784ZM59.8832 73.2202C58.8084 73.2202 57.8827 72.9905 57.1062 72.5312C56.3344 72.0672 55.7378 71.4162 55.3164 70.5781C54.8997 69.7353 54.6914 68.7481 54.6914 67.6165C54.6914 66.4991 54.8997 65.5142 55.3164 64.6619C55.7378 63.8097 56.3249 63.1444 57.0778 62.6662C57.8353 62.188 58.7208 61.9489 59.734 61.9489C60.3496 61.9489 60.9461 62.0507 61.5238 62.2543C62.1014 62.4579 62.6199 62.7775 63.0792 63.2131C63.5385 63.6487 63.9007 64.2145 64.1658 64.9105C64.431 65.6018 64.5636 66.4422 64.5636 67.4318V68.1847H55.8917V66.5938H62.4826C62.4826 66.035 62.369 65.5402 62.1417 65.1094C61.9144 64.6738 61.5948 64.3305 61.1829 64.0795C60.7757 63.8286 60.2975 63.7031 59.7482 63.7031C59.1516 63.7031 58.6308 63.8499 58.1857 64.1435C57.7454 64.4323 57.4045 64.8111 57.163 65.2798C56.9263 65.7438 56.8079 66.2481 56.8079 66.7926V68.0355C56.8079 68.7647 56.9357 69.3849 57.1914 69.8963C57.4518 70.4077 57.814 70.7983 58.2781 71.0682C58.7421 71.3333 59.2842 71.4659 59.9045 71.4659C60.3069 71.4659 60.6739 71.4091 61.0053 71.2955C61.3368 71.1771 61.6232 71.0019 61.8647 70.7699C62.1062 70.5379 62.2908 70.2514 62.4187 69.9105L64.4286 70.2727C64.2676 70.8646 63.9788 71.383 63.5621 71.8281C63.1502 72.2685 62.6317 72.6117 62.0067 72.858C61.3865 73.0994 60.6786 73.2202 59.8832 73.2202ZM66.9197 77.0909V62.0909H68.9936V63.8594H69.1712C69.2943 63.6321 69.4718 63.3693 69.7038 63.071C69.9358 62.7727 70.2578 62.5123 70.6697 62.2898C71.0817 62.0625 71.6262 61.9489 72.3033 61.9489C73.1839 61.9489 73.9699 62.1714 74.6612 62.6165C75.3525 63.0616 75.8946 63.7031 76.2876 64.5412C76.6854 65.3793 76.8842 66.3878 76.8842 67.5668C76.8842 68.7457 76.6877 69.7566 76.2947 70.5994C75.9018 71.4375 75.362 72.0838 74.6754 72.5384C73.9889 72.9882 73.2053 73.2131 72.3246 73.2131C71.6617 73.2131 71.1196 73.1018 70.6982 72.8793C70.2815 72.6567 69.9548 72.3963 69.718 72.098C69.4813 71.7997 69.299 71.5346 69.1712 71.3026H69.0433V77.0909H66.9197ZM69.0007 67.5455C69.0007 68.3125 69.112 68.9848 69.3345 69.5625C69.5571 70.1402 69.879 70.5923 70.3004 70.919C70.7218 71.241 71.2379 71.402 71.8487 71.402C72.4832 71.402 73.0135 71.2339 73.4396 70.8977C73.8658 70.5568 74.1877 70.0952 74.4055 69.5128C74.6281 68.9304 74.7393 68.2746 74.7393 67.5455C74.7393 66.8258 74.6304 66.1795 74.4126 65.6065C74.1996 65.0336 73.8776 64.5814 73.4467 64.25C73.0206 63.9186 72.4879 63.7528 71.8487 63.7528C71.2332 63.7528 70.7124 63.9115 70.2862 64.2287C69.8648 64.5459 69.5452 64.9886 69.3274 65.5568C69.1096 66.125 69.0007 66.7879 69.0007 67.5455ZM83.9652 73.2202C82.8904 73.2202 81.9647 72.9905 81.1882 72.5312C80.4164 72.0672 79.8198 71.4162 79.3984 70.5781C78.9818 69.7353 78.7734 68.7481 78.7734 67.6165C78.7734 66.4991 78.9818 65.5142 79.3984 64.6619C79.8198 63.8097 80.407 63.1444 81.1598 62.6662C81.9174 62.188 82.8028 61.9489 83.8161 61.9489C84.4316 61.9489 85.0282 62.0507 85.6058 62.2543C86.1835 62.4579 86.7019 62.7775 87.1612 63.2131C87.6205 63.6487 87.9827 64.2145 88.2479 64.9105C88.513 65.6018 88.6456 66.4422 88.6456 67.4318V68.1847H79.9737V66.5938H86.5646C86.5646 66.035 86.451 65.5402 86.2237 65.1094C85.9964 64.6738 85.6768 64.3305 85.2649 64.0795C84.8577 63.8286 84.3795 63.7031 83.8303 63.7031C83.2337 63.7031 82.7128 63.8499 82.2678 64.1435C81.8274 64.4323 81.4865 64.8111 81.245 65.2798C81.0083 65.7438 80.8899 66.2481 80.8899 66.7926V68.0355C80.8899 68.7647 81.0178 69.3849 81.2734 69.8963C81.5339 70.4077 81.8961 70.7983 82.3601 71.0682C82.8241 71.3333 83.3662 71.4659 83.9865 71.4659C84.389 71.4659 84.7559 71.4091 85.0874 71.2955C85.4188 71.1771 85.7053 71.0019 85.9467 70.7699C86.1882 70.5379 86.3729 70.2514 86.5007 69.9105L88.5107 70.2727C88.3497 70.8646 88.0608 71.383 87.6442 71.8281C87.2322 72.2685 86.7138 72.6117 86.0888 72.858C85.4685 73.0994 84.7607 73.2202 83.9652 73.2202ZM94.1765 73.2415C93.4852 73.2415 92.8602 73.1136 92.3015 72.858C91.7428 72.5975 91.3001 72.2211 90.9734 71.7287C90.6514 71.2363 90.4904 70.6326 90.4904 69.9176C90.4904 69.3021 90.6088 68.7955 90.8455 68.3977C91.0823 68 91.4019 67.6851 91.8043 67.4531C92.2068 67.2211 92.6566 67.0459 93.1538 66.9276C93.6509 66.8092 94.1576 66.7192 94.6737 66.6577C95.3271 66.5819 95.8574 66.5204 96.2646 66.473C96.6718 66.4209 96.9677 66.3381 97.1523 66.2244C97.337 66.1108 97.4293 65.9261 97.4293 65.6705V65.6207C97.4293 65.0005 97.2541 64.5199 96.9038 64.179C96.5581 63.8381 96.042 63.6676 95.3555 63.6676C94.6405 63.6676 94.0771 63.8262 93.6651 64.1435C93.2579 64.456 92.9762 64.804 92.82 65.1875L90.8242 64.733C91.061 64.0701 91.4066 63.535 91.8612 63.1278C92.3204 62.7159 92.8484 62.4176 93.445 62.233C94.0415 62.0436 94.6689 61.9489 95.3271 61.9489C95.7627 61.9489 96.2243 62.0009 96.712 62.1051C97.2044 62.2045 97.6637 62.3892 98.0898 62.6591C98.5207 62.929 98.8735 63.3149 99.1481 63.8168C99.4227 64.3139 99.56 64.9602 99.56 65.7557V73H97.4862V71.5085H97.4009C97.2636 71.7831 97.0576 72.053 96.783 72.3182C96.5084 72.5833 96.1557 72.8035 95.7248 72.9787C95.2939 73.1539 94.7778 73.2415 94.1765 73.2415ZM94.6381 71.5369C95.2253 71.5369 95.7272 71.4209 96.1438 71.1889C96.5652 70.9569 96.8848 70.6539 97.1026 70.2798C97.3252 69.901 97.4364 69.4962 97.4364 69.0653V67.6591C97.3607 67.7348 97.2139 67.8059 96.9961 67.8722C96.783 67.9337 96.5392 67.9882 96.2646 68.0355C95.9899 68.0781 95.7224 68.1184 95.462 68.1562C95.2016 68.1894 94.9838 68.2178 94.8086 68.2415C94.3967 68.2936 94.0202 68.3812 93.6793 68.5043C93.3432 68.6274 93.0733 68.8049 92.8697 69.0369C92.6708 69.2642 92.5714 69.5672 92.5714 69.946C92.5714 70.4716 92.7655 70.8693 93.1538 71.1392C93.542 71.4044 94.0368 71.5369 94.6381 71.5369ZM107.481 62.0909V63.7955H101.522V62.0909H107.481ZM103.12 59.4773H105.244V69.7969C105.244 70.2088 105.305 70.5189 105.428 70.7273C105.551 70.9309 105.71 71.0705 105.904 71.1463C106.103 71.2173 106.318 71.2528 106.55 71.2528C106.721 71.2528 106.87 71.241 106.998 71.2173C107.126 71.1937 107.225 71.1747 107.296 71.1605L107.68 72.9148C107.557 72.9621 107.381 73.0095 107.154 73.0568C106.927 73.1089 106.643 73.1373 106.302 73.142C105.743 73.1515 105.222 73.0521 104.739 72.8438C104.256 72.6354 103.866 72.3134 103.567 71.8778C103.269 71.4422 103.12 70.8954 103.12 70.2372V59.4773ZM119.825 73.2202C118.75 73.2202 117.824 72.9905 117.048 72.5312C116.276 72.0672 115.679 71.4162 115.258 70.5781C114.841 69.7353 114.633 68.7481 114.633 67.6165C114.633 66.4991 114.841 65.5142 115.258 64.6619C115.679 63.8097 116.266 63.1444 117.019 62.6662C117.777 62.188 118.662 61.9489 119.675 61.9489C120.291 61.9489 120.888 62.0507 121.465 62.2543C122.043 62.4579 122.561 62.7775 123.021 63.2131C123.48 63.6487 123.842 64.2145 124.107 64.9105C124.372 65.6018 124.505 66.4422 124.505 67.4318V68.1847H115.833V66.5938H122.424C122.424 66.035 122.31 65.5402 122.083 65.1094C121.856 64.6738 121.536 64.3305 121.124 64.0795C120.717 63.8286 120.239 63.7031 119.69 63.7031C119.093 63.7031 118.572 63.8499 118.127 64.1435C117.687 64.4323 117.346 64.8111 117.104 65.2798C116.868 65.7438 116.749 66.2481 116.749 66.7926V68.0355C116.749 68.7647 116.877 69.3849 117.133 69.8963C117.393 70.4077 117.755 70.7983 118.219 71.0682C118.683 71.3333 119.226 71.4659 119.846 71.4659C120.248 71.4659 120.615 71.4091 120.947 71.2955C121.278 71.1771 121.565 71.0019 121.806 70.7699C122.048 70.5379 122.232 70.2514 122.36 69.9105L124.37 70.2727C124.209 70.8646 123.92 71.383 123.504 71.8281C123.092 72.2685 122.573 72.6117 121.948 72.858C121.328 73.0994 120.62 73.2202 119.825 73.2202ZM135.881 62.0909L131.925 73H129.652L125.689 62.0909H127.969L130.732 70.4858H130.846L133.601 62.0909H135.881ZM142.207 73.2202C141.133 73.2202 140.207 72.9905 139.43 72.5312C138.659 72.0672 138.062 71.4162 137.641 70.5781C137.224 69.7353 137.016 68.7481 137.016 67.6165C137.016 66.4991 137.224 65.5142 137.641 64.6619C138.062 63.8097 138.649 63.1444 139.402 62.6662C140.16 62.188 141.045 61.9489 142.058 61.9489C142.674 61.9489 143.27 62.0507 143.848 62.2543C144.426 62.4579 144.944 62.7775 145.403 63.2131C145.863 63.6487 146.225 64.2145 146.49 64.9105C146.755 65.6018 146.888 66.4422 146.888 67.4318V68.1847H138.216V66.5938H144.807C144.807 66.035 144.693 65.5402 144.466 65.1094C144.239 64.6738 143.919 64.3305 143.507 64.0795C143.1 63.8286 142.622 63.7031 142.072 63.7031C141.476 63.7031 140.955 63.8499 140.51 64.1435C140.07 64.4323 139.729 64.8111 139.487 65.2798C139.25 65.7438 139.132 66.2481 139.132 66.7926V68.0355C139.132 68.7647 139.26 69.3849 139.516 69.8963C139.776 70.4077 140.138 70.7983 140.602 71.0682C141.066 71.3333 141.608 71.4659 142.229 71.4659C142.631 71.4659 142.998 71.4091 143.33 71.2955C143.661 71.1771 143.947 71.0019 144.189 70.7699C144.43 70.5379 144.615 70.2514 144.743 69.9105L146.753 70.2727C146.592 70.8646 146.303 71.383 145.886 71.8281C145.474 72.2685 144.956 72.6117 144.331 72.858C143.711 73.0994 143.003 73.2202 142.207 73.2202ZM149.244 73V62.0909H151.297V63.8239H151.41C151.609 63.2367 151.959 62.7751 152.461 62.4389C152.968 62.098 153.541 61.9276 154.18 61.9276C154.313 61.9276 154.469 61.9323 154.649 61.9418C154.833 61.9512 154.978 61.9631 155.082 61.9773V64.0085C154.997 63.9848 154.845 63.9588 154.627 63.9304C154.41 63.8973 154.192 63.8807 153.974 63.8807C153.472 63.8807 153.025 63.9872 152.632 64.2003C152.243 64.4086 151.936 64.6998 151.708 65.0739C151.481 65.4432 151.368 65.8646 151.368 66.3381V73H149.244ZM158.594 77.0909C158.277 77.0909 157.988 77.0649 157.728 77.0128C157.467 76.9654 157.273 76.9134 157.145 76.8565L157.657 75.1165C158.045 75.2206 158.391 75.2656 158.694 75.2514C158.997 75.2372 159.264 75.1236 159.496 74.9105C159.733 74.6974 159.941 74.3494 160.121 73.8665L160.384 73.142L156.392 62.0909H158.665L161.428 70.5568H161.542L164.304 62.0909H166.584L162.088 74.456C161.88 75.0241 161.615 75.5047 161.293 75.8977C160.971 76.2955 160.587 76.5938 160.142 76.7926C159.697 76.9915 159.181 77.0909 158.594 77.0909Z" fill="#3F4346"/>
<rect x="409" y="333" width="151" height="40" rx="4" fill="#1E75BA"/>
<path d="M435.25 353.75H430.75V358.25H429.25V353.75H424.75V352.25H429.25V347.75H430.75V352.25H435.25V353.75Z" fill="white"/>
<path d="M445.261 358.5H443.398L447.585 346.864H449.614L453.801 358.5H451.938L448.648 348.977H448.557L445.261 358.5ZM445.574 353.943H451.619V355.42H445.574V353.943ZM458.472 358.67C457.767 358.67 457.138 358.491 456.585 358.131C456.036 357.767 455.604 357.25 455.29 356.58C454.979 355.905 454.824 355.097 454.824 354.153C454.824 353.21 454.981 352.403 455.295 351.733C455.614 351.062 456.049 350.549 456.602 350.193C457.155 349.837 457.782 349.659 458.483 349.659C459.025 349.659 459.46 349.75 459.79 349.932C460.123 350.11 460.381 350.318 460.562 350.557C460.748 350.795 460.892 351.006 460.994 351.188H461.097V346.864H462.795V358.5H461.136V357.142H460.994C460.892 357.328 460.744 357.54 460.551 357.778C460.362 358.017 460.1 358.225 459.767 358.403C459.434 358.581 459.002 358.67 458.472 358.67ZM458.847 357.222C459.335 357.222 459.748 357.093 460.085 356.835C460.426 356.574 460.684 356.212 460.858 355.75C461.036 355.288 461.125 354.75 461.125 354.136C461.125 353.53 461.038 353 460.864 352.545C460.689 352.091 460.434 351.737 460.097 351.483C459.759 351.229 459.343 351.102 458.847 351.102C458.335 351.102 457.909 351.235 457.568 351.5C457.227 351.765 456.97 352.127 456.795 352.585C456.625 353.044 456.54 353.561 456.54 354.136C456.54 354.72 456.627 355.244 456.801 355.71C456.975 356.176 457.233 356.545 457.574 356.818C457.919 357.087 458.343 357.222 458.847 357.222ZM468.487 358.67C467.783 358.67 467.154 358.491 466.601 358.131C466.052 357.767 465.62 357.25 465.305 356.58C464.995 355.905 464.839 355.097 464.839 354.153C464.839 353.21 464.997 352.403 465.311 351.733C465.629 351.062 466.065 350.549 466.618 350.193C467.171 349.837 467.798 349.659 468.499 349.659C469.04 349.659 469.476 349.75 469.805 349.932C470.139 350.11 470.396 350.318 470.578 350.557C470.764 350.795 470.908 351.006 471.01 351.188H471.112V346.864H472.811V358.5H471.152V357.142H471.01C470.908 357.328 470.76 357.54 470.567 357.778C470.377 358.017 470.116 358.225 469.783 358.403C469.449 358.581 469.018 358.67 468.487 358.67ZM468.862 357.222C469.351 357.222 469.764 357.093 470.101 356.835C470.442 356.574 470.699 356.212 470.874 355.75C471.052 355.288 471.141 354.75 471.141 354.136C471.141 353.53 471.054 353 470.879 352.545C470.705 352.091 470.449 351.737 470.112 351.483C469.775 351.229 469.358 351.102 468.862 351.102C468.351 351.102 467.925 351.235 467.584 351.5C467.243 351.765 466.985 352.127 466.811 352.585C466.641 353.044 466.555 353.561 466.555 354.136C466.555 354.72 466.643 355.244 466.817 355.71C466.991 356.176 467.249 356.545 467.589 356.818C467.934 357.087 468.358 357.222 468.862 357.222ZM479.47 358.5V349.773H481.112V351.159H481.203C481.362 350.689 481.643 350.32 482.044 350.051C482.449 349.778 482.908 349.642 483.419 349.642C483.525 349.642 483.65 349.646 483.794 349.653C483.942 349.661 484.057 349.67 484.141 349.682V351.307C484.072 351.288 483.951 351.267 483.777 351.244C483.603 351.218 483.429 351.205 483.254 351.205C482.853 351.205 482.495 351.29 482.18 351.46C481.87 351.627 481.624 351.86 481.442 352.159C481.26 352.455 481.169 352.792 481.169 353.17V358.5H479.47ZM489.06 358.676C488.2 358.676 487.459 358.492 486.838 358.125C486.221 357.754 485.743 357.233 485.406 356.562C485.073 355.888 484.906 355.098 484.906 354.193C484.906 353.299 485.073 352.511 485.406 351.83C485.743 351.148 486.213 350.616 486.815 350.233C487.421 349.85 488.13 349.659 488.94 349.659C489.433 349.659 489.91 349.741 490.372 349.903C490.834 350.066 491.249 350.322 491.616 350.67C491.984 351.019 492.274 351.472 492.486 352.028C492.698 352.581 492.804 353.254 492.804 354.045V354.648H485.866V353.375H491.139C491.139 352.928 491.048 352.532 490.866 352.188C490.685 351.839 490.429 351.564 490.099 351.364C489.774 351.163 489.391 351.062 488.952 351.062C488.474 351.062 488.058 351.18 487.702 351.415C487.349 351.646 487.077 351.949 486.884 352.324C486.694 352.695 486.599 353.098 486.599 353.534V354.528C486.599 355.112 486.702 355.608 486.906 356.017C487.115 356.426 487.404 356.739 487.776 356.955C488.147 357.167 488.58 357.273 489.077 357.273C489.399 357.273 489.692 357.227 489.957 357.136C490.223 357.042 490.452 356.902 490.645 356.716C490.838 356.53 490.986 356.301 491.088 356.028L492.696 356.318C492.567 356.792 492.336 357.206 492.003 357.562C491.673 357.915 491.259 358.189 490.759 358.386C490.262 358.58 489.696 358.676 489.06 358.676ZM494.689 361.773V349.773H496.348V351.188H496.49C496.589 351.006 496.731 350.795 496.916 350.557C497.102 350.318 497.359 350.11 497.689 349.932C498.018 349.75 498.454 349.659 498.996 349.659C499.7 349.659 500.329 349.837 500.882 350.193C501.435 350.549 501.869 351.062 502.183 351.733C502.501 352.403 502.661 353.21 502.661 354.153C502.661 355.097 502.503 355.905 502.189 356.58C501.875 357.25 501.443 357.767 500.893 358.131C500.344 358.491 499.717 358.67 499.013 358.67C498.482 358.67 498.049 358.581 497.712 358.403C497.378 358.225 497.117 358.017 496.928 357.778C496.738 357.54 496.592 357.328 496.49 357.142H496.388V361.773H494.689ZM496.354 354.136C496.354 354.75 496.443 355.288 496.621 355.75C496.799 356.212 497.056 356.574 497.393 356.835C497.731 357.093 498.143 357.222 498.632 357.222C499.14 357.222 499.564 357.087 499.905 356.818C500.246 356.545 500.503 356.176 500.678 355.71C500.856 355.244 500.945 354.72 500.945 354.136C500.945 353.561 500.857 353.044 500.683 352.585C500.513 352.127 500.255 351.765 499.911 351.5C499.57 351.235 499.143 351.102 498.632 351.102C498.14 351.102 497.723 351.229 497.382 351.483C497.045 351.737 496.789 352.091 496.615 352.545C496.441 353 496.354 353.53 496.354 354.136ZM508.325 358.676C507.465 358.676 506.725 358.492 506.104 358.125C505.486 357.754 505.009 357.233 504.672 356.562C504.339 355.888 504.172 355.098 504.172 354.193C504.172 353.299 504.339 352.511 504.672 351.83C505.009 351.148 505.479 350.616 506.081 350.233C506.687 349.85 507.395 349.659 508.206 349.659C508.698 349.659 509.176 349.741 509.638 349.903C510.1 350.066 510.515 350.322 510.882 350.67C511.25 351.019 511.539 351.472 511.751 352.028C511.964 352.581 512.07 353.254 512.07 354.045V354.648H505.132V353.375H510.405C510.405 352.928 510.314 352.532 510.132 352.188C509.95 351.839 509.695 351.564 509.365 351.364C509.039 351.163 508.657 351.062 508.217 351.062C507.74 351.062 507.323 351.18 506.967 351.415C506.615 351.646 506.342 351.949 506.149 352.324C505.96 352.695 505.865 353.098 505.865 353.534V354.528C505.865 355.112 505.967 355.608 506.172 356.017C506.38 356.426 506.67 356.739 507.041 356.955C507.412 357.167 507.846 357.273 508.342 357.273C508.664 357.273 508.958 357.227 509.223 357.136C509.488 357.042 509.717 356.902 509.911 356.716C510.104 356.53 510.251 356.301 510.354 356.028L511.962 356.318C511.833 356.792 511.602 357.206 511.268 357.562C510.939 357.915 510.524 358.189 510.024 358.386C509.528 358.58 508.962 358.676 508.325 358.676ZM516.494 358.693C515.941 358.693 515.441 358.591 514.994 358.386C514.547 358.178 514.193 357.877 513.932 357.483C513.674 357.089 513.545 356.606 513.545 356.034C513.545 355.542 513.64 355.136 513.83 354.818C514.019 354.5 514.275 354.248 514.597 354.062C514.919 353.877 515.278 353.737 515.676 353.642C516.074 353.547 516.479 353.475 516.892 353.426C517.415 353.366 517.839 353.316 518.165 353.278C518.491 353.237 518.727 353.17 518.875 353.08C519.023 352.989 519.097 352.841 519.097 352.636V352.597C519.097 352.1 518.956 351.716 518.676 351.443C518.4 351.17 517.987 351.034 517.438 351.034C516.866 351.034 516.415 351.161 516.085 351.415C515.759 351.665 515.534 351.943 515.409 352.25L513.812 351.886C514.002 351.356 514.278 350.928 514.642 350.602C515.009 350.273 515.432 350.034 515.909 349.886C516.386 349.735 516.888 349.659 517.415 349.659C517.763 349.659 518.133 349.701 518.523 349.784C518.917 349.864 519.284 350.011 519.625 350.227C519.97 350.443 520.252 350.752 520.472 351.153C520.691 351.551 520.801 352.068 520.801 352.705V358.5H519.142V357.307H519.074C518.964 357.527 518.799 357.742 518.58 357.955C518.36 358.167 518.078 358.343 517.733 358.483C517.388 358.623 516.975 358.693 516.494 358.693ZM516.864 357.33C517.333 357.33 517.735 357.237 518.068 357.051C518.405 356.866 518.661 356.623 518.835 356.324C519.013 356.021 519.102 355.697 519.102 355.352V354.227C519.042 354.288 518.924 354.345 518.75 354.398C518.58 354.447 518.384 354.491 518.165 354.528C517.945 354.562 517.731 354.595 517.523 354.625C517.314 354.652 517.14 354.674 517 354.693C516.67 354.735 516.369 354.805 516.097 354.903C515.828 355.002 515.612 355.144 515.449 355.33C515.29 355.511 515.21 355.754 515.21 356.057C515.21 356.477 515.366 356.795 515.676 357.011C515.987 357.223 516.383 357.33 516.864 357.33ZM527.138 349.773V351.136H522.371V349.773H527.138ZM523.649 347.682H525.348V355.938C525.348 356.267 525.397 356.515 525.496 356.682C525.594 356.845 525.721 356.956 525.876 357.017C526.036 357.074 526.208 357.102 526.393 357.102C526.53 357.102 526.649 357.093 526.751 357.074C526.854 357.055 526.933 357.04 526.99 357.028L527.297 358.432C527.198 358.47 527.058 358.508 526.876 358.545C526.695 358.587 526.467 358.61 526.195 358.614C525.748 358.621 525.331 358.542 524.945 358.375C524.558 358.208 524.246 357.951 524.007 357.602C523.768 357.254 523.649 356.816 523.649 356.29V347.682ZM532.685 358.676C531.825 358.676 531.084 358.492 530.463 358.125C529.846 357.754 529.368 357.233 529.031 356.562C528.698 355.888 528.531 355.098 528.531 354.193C528.531 353.299 528.698 352.511 529.031 351.83C529.368 351.148 529.838 350.616 530.44 350.233C531.046 349.85 531.755 349.659 532.565 349.659C533.058 349.659 533.535 349.741 533.997 349.903C534.459 350.066 534.874 350.322 535.241 350.67C535.609 351.019 535.899 351.472 536.111 352.028C536.323 352.581 536.429 353.254 536.429 354.045V354.648H529.491V353.375H534.764C534.764 352.928 534.673 352.532 534.491 352.188C534.31 351.839 534.054 351.564 533.724 351.364C533.399 351.163 533.016 351.062 532.577 351.062C532.099 351.062 531.683 351.18 531.327 351.415C530.974 351.646 530.702 351.949 530.509 352.324C530.319 352.695 530.224 353.098 530.224 353.534V354.528C530.224 355.112 530.327 355.608 530.531 356.017C530.74 356.426 531.029 356.739 531.401 356.955C531.772 357.167 532.205 357.273 532.702 357.273C533.024 357.273 533.317 357.227 533.582 357.136C533.848 357.042 534.077 356.902 534.27 356.716C534.463 356.53 534.611 356.301 534.713 356.028L536.321 356.318C536.192 356.792 535.961 357.206 535.628 357.562C535.298 357.915 534.884 358.189 534.384 358.386C533.887 358.58 533.321 358.676 532.685 358.676ZM538.314 358.5V349.773H539.956V351.159H540.047C540.206 350.689 540.486 350.32 540.888 350.051C541.293 349.778 541.751 349.642 542.263 349.642C542.369 349.642 542.494 349.646 542.638 349.653C542.786 349.661 542.901 349.67 542.984 349.682V351.307C542.916 351.288 542.795 351.267 542.621 351.244C542.446 351.218 542.272 351.205 542.098 351.205C541.696 351.205 541.339 351.29 541.024 351.46C540.714 351.627 540.467 351.86 540.286 352.159C540.104 352.455 540.013 352.792 540.013 353.17V358.5H538.314Z" fill="white"/>
</svg>
