<svg xmlns="http://www.w3.org/2000/svg" width="26" height="24" viewBox="0 0 26 24" fill="none">
<path d="M13 0C6.02104 0 0.368408 5.50583 0.368408 12.3035C0.368408 17.7478 3.9842 22.3463 9.00525 23.9765C9.63683 24.0842 9.87367 23.715 9.87367 23.3921C9.87367 23.0999 9.85788 22.131 9.85788 21.1005C6.6842 21.6696 5.86314 20.347 5.61051 19.6549C5.46841 19.3012 4.85262 18.2092 4.31578 17.917C3.87367 17.6863 3.24209 17.1173 4.29999 17.1019C5.29472 17.0865 6.00525 17.9939 6.24209 18.363C7.37893 20.2239 9.19472 19.701 9.92104 19.3781C10.0316 18.5783 10.3631 18.04 10.7263 17.7325C7.91578 17.4249 4.97893 16.3637 4.97893 11.6576C4.97893 10.3196 5.46841 9.21227 6.27367 8.35102C6.14736 8.04343 5.70525 6.78232 6.39999 5.09058C6.39999 5.09058 7.45788 4.76762 9.87367 6.3517C10.8842 6.07487 11.9579 5.93645 13.0316 5.93645C14.1053 5.93645 15.1789 6.07487 16.1895 6.3517C18.6052 4.75224 19.6631 5.09058 19.6631 5.09058C20.3579 6.78232 19.9158 8.04343 19.7895 8.35102C20.5947 9.21227 21.0842 10.3042 21.0842 11.6576C21.0842 16.3791 18.1316 17.4249 15.321 17.7325C15.7789 18.1169 16.1737 18.8552 16.1737 20.0086C16.1737 21.6542 16.1579 22.9768 16.1579 23.3921C16.1579 23.715 16.3947 24.0995 17.0263 23.9765C19.5339 23.1519 21.7129 21.5822 23.2566 19.4882C24.8003 17.3942 25.6309 14.8814 25.6316 12.3035C25.6316 5.50583 19.9789 0 13 0Z" fill="none"/>
</svg>