<svg width="120" height="120" viewBox="0 0 120 120" fill="none" xmlns="http://www.w3.org/2000/svg">
<path fill-rule="evenodd" clip-rule="evenodd" d="M47.9697 39.8665C47.0684 37.8648 46.1203 37.8242 45.2641 37.7891C44.5629 37.7593 43.7608 37.7611 42.9596 37.7611C42.1575 37.7611 40.8551 38.0621 39.7538 39.2653C38.6516 40.4685 35.5449 43.3769 35.5449 49.2927C35.5449 55.2086 39.8538 60.9244 40.4541 61.7274C41.0552 62.5295 48.7718 75.057 60.9937 79.876C71.15 83.8812 73.2166 83.0845 75.422 82.8844C77.6264 82.6843 82.5356 79.9761 83.5369 77.1686C84.5391 74.3612 84.5391 71.9558 84.239 71.4529C83.938 70.9508 83.1367 70.6507 81.9336 70.0496C80.7313 69.4485 74.8199 66.5392 73.7177 66.1381C72.6155 65.7371 71.8142 65.537 71.0121 66.7402C70.2109 67.9434 67.9082 70.6507 67.2061 71.4529C66.5049 72.2559 65.8038 72.3559 64.6006 71.7548C63.3983 71.1518 59.5256 69.8838 54.9319 65.7875C51.3575 62.6007 48.9448 58.6649 48.2427 57.4617C47.5416 56.2585 48.1679 55.6078 48.7709 55.0085C49.3107 54.4696 49.9732 53.6043 50.5752 52.9023C51.1745 52.2002 51.3755 51.6991 51.7757 50.8979C52.1767 50.0948 51.9766 49.3928 51.6756 48.7916C51.3755 48.1905 49.0386 42.244 47.9697 39.8665Z" fill="#212528"/>
<path fill-rule="evenodd" clip-rule="evenodd" d="M22.9995 97.55L27.0983 82.7552C22.6222 76.2955 19.9995 68.4541 19.9995 60C19.9995 37.9086 37.9081 20 59.9995 20C82.0909 20 99.9995 37.9086 99.9995 60C99.9995 82.0914 82.0909 100 59.9995 100C51.9571 100 44.469 97.6265 38.1975 93.5417L22.9995 97.55ZM36.738 104.269L8.71387 111.66L16.2936 84.3004C12.2843 77.1014 9.99954 68.807 9.99954 60C9.99954 32.3858 32.3853 10 59.9995 10C87.6138 10 110 32.3858 110 60C110 87.6142 87.6138 110 59.9995 110C51.6149 110 43.6927 107.929 36.738 104.269Z" fill="#212528"/>
</svg>
