<svg width="45" height="40" viewBox="0 0 45 40" fill="none" xmlns="http://www.w3.org/2000/svg">
<path fill-rule="evenodd" clip-rule="evenodd" d="M0.19787 15.3744L44.209 0.0124777C44.2706 -0.00779766 44.3376 -0.00322994 44.3959 0.0252054C44.4541 0.0536407 44.4989 0.10369 44.5207 0.164664C44.5298 0.19105 44.5345 0.218768 44.5345 0.246687V39.752C44.5345 39.8177 44.5084 39.8808 44.4618 39.9273C44.4152 39.9739 44.3521 40 44.2862 40H44.2536L0.235465 37.8555C0.171859 37.8523 0.111952 37.8247 0.0681287 37.7785C0.0243049 37.7323 -8.52564e-05 37.6711 2.2393e-07 37.6075V15.6165C3.01857e-05 15.5597 0.019755 15.5046 0.0558245 15.4607C0.091894 15.4167 0.142084 15.3856 0.19787 15.3744ZM5.00314 19.605C4.78532 19.5633 4.55976 19.6043 4.37061 19.72C4.18146 19.8356 4.04233 20.0176 3.98045 20.2304C3.91858 20.4431 3.93841 20.6713 4.03607 20.8702C4.13373 21.0691 4.30218 21.2244 4.50846 21.3058L20.5883 25.9504L20.9475 25.6539L36.9601 12.4582C37.0636 12.3892 37.1514 12.2993 37.218 12.1943C37.2846 12.0893 37.3284 11.9715 37.3466 11.8486C37.3648 11.7256 37.357 11.6002 37.3237 11.4805C37.2904 11.3607 37.2324 11.2493 37.1533 11.1533C37.0743 11.0573 36.9759 10.979 36.8647 10.9233C36.7535 10.8676 36.6318 10.8358 36.5075 10.83C36.3832 10.8242 36.2591 10.8444 36.1431 10.8895C36.0271 10.9345 35.9219 11.0033 35.8342 11.0915L20.1827 23.9937L5.00314 19.605Z" fill="#1E75BA"/>
</svg>
