<svg width="600" height="450" viewBox="0 0 600 450" fill="none" xmlns="http://www.w3.org/2000/svg">
<path d="M549.334 164C549.334 160.333 546.334 157.333 542.667 157.333H489.334C485.667 157.333 482.667 160.333 482.667 164V204C482.667 207.667 485.667 210.667 489.334 210.667H542.667C546.334 210.667 549.334 207.667 549.334 204V164ZM542.667 164L516 180.633L489.334 164H542.667ZM542.667 204H489.334V170.667L516 187.333L542.667 170.667V204Z" fill="#DBEAF6"/>
<g filter="url(#filter0_d_6449_51110)">
<rect x="375" y="195" width="190.539" height="68.5385" rx="34.2693" fill="#F9EAE5" shape-rendering="crispEdges"/>
<path d="M402.044 221.875C402.044 220.073 403.407 218.612 405.089 218.612H429.448C431.129 218.612 432.493 220.073 432.493 221.875V238.186C432.493 239.988 431.129 241.449 429.448 241.449H405.089C403.407 241.449 402.044 239.988 402.044 238.186V221.875Z" fill="#8C2E0E"/>
<path d="M402.044 220.362C402.044 218.555 403.308 217.09 404.867 217.09H429.67C431.229 217.09 432.493 218.555 432.493 220.362C432.493 221.601 431.889 222.734 430.932 223.289L418.63 230.419C417.773 230.916 416.764 230.916 415.907 230.419L403.604 223.289C402.648 222.734 402.044 221.601 402.044 220.362Z" fill="#CC5229"/>
<path d="M454.49 221.724H456.691V231.291C456.691 232.309 456.452 233.211 455.974 233.997C455.496 234.778 454.824 235.393 453.957 235.843C453.091 236.288 452.075 236.511 450.91 236.511C449.75 236.511 448.737 236.288 447.87 235.843C447.004 235.393 446.332 234.778 445.853 233.997C445.375 233.211 445.136 232.309 445.136 231.291V221.724H447.331V231.113C447.331 231.771 447.475 232.356 447.764 232.867C448.057 233.379 448.472 233.781 449.007 234.075C449.542 234.364 450.176 234.508 450.91 234.508C451.649 234.508 452.286 234.364 452.821 234.075C453.361 233.781 453.772 233.379 454.057 232.867C454.345 232.356 454.49 231.771 454.49 231.113V221.724ZM459.882 236.269V221.724H465.067C466.194 221.724 467.129 221.918 467.872 222.306C468.62 222.694 469.179 223.232 469.548 223.918C469.918 224.6 470.102 225.389 470.102 226.283C470.102 227.174 469.915 227.957 469.541 228.634C469.172 229.307 468.613 229.83 467.865 230.204C467.122 230.578 466.187 230.765 465.06 230.765H461.132V228.876H464.861C465.571 228.876 466.149 228.774 466.594 228.57C467.044 228.367 467.373 228.071 467.581 227.683C467.789 227.294 467.894 226.828 467.894 226.283C467.894 225.734 467.787 225.258 467.574 224.856C467.366 224.453 467.037 224.146 466.587 223.933C466.142 223.715 465.557 223.606 464.832 223.606H462.077V236.269H459.882ZM467.063 229.707L470.656 236.269H468.156L464.634 229.707H467.063ZM472.773 236.269V221.724H474.967V234.38H481.558V236.269H472.773ZM491.308 221.724V236.269H489.184V221.724H491.308ZM498.76 236.489C497.737 236.489 496.845 236.255 496.082 235.786C495.32 235.318 494.728 234.662 494.307 233.819C493.886 232.976 493.675 231.991 493.675 230.864C493.675 229.733 493.886 228.743 494.307 227.896C494.728 227.048 495.32 226.39 496.082 225.921C496.845 225.453 497.737 225.218 498.76 225.218C499.783 225.218 500.675 225.453 501.438 225.921C502.2 226.39 502.792 227.048 503.213 227.896C503.635 228.743 503.845 229.733 503.845 230.864C503.845 231.991 503.635 232.976 503.213 233.819C502.792 234.662 502.2 235.318 501.438 235.786C500.675 236.255 499.783 236.489 498.76 236.489ZM498.767 234.707C499.43 234.707 499.979 234.532 500.415 234.181C500.85 233.831 501.172 233.364 501.381 232.782C501.594 232.2 501.7 231.558 501.7 230.857C501.7 230.161 501.594 229.522 501.381 228.94C501.172 228.353 500.85 227.882 500.415 227.526C499.979 227.171 499.43 226.994 498.767 226.994C498.1 226.994 497.546 227.171 497.105 227.526C496.67 227.882 496.345 228.353 496.132 228.94C495.924 229.522 495.82 230.161 495.82 230.857C495.82 231.558 495.924 232.2 496.132 232.782C496.345 233.364 496.67 233.831 497.105 234.181C497.546 234.532 498.1 234.707 498.767 234.707ZM508.339 229.792V236.269H506.216V225.36H508.254V227.136H508.389C508.64 226.558 509.033 226.094 509.568 225.744C510.108 225.393 510.787 225.218 511.606 225.218C512.35 225.218 513.001 225.374 513.559 225.687C514.118 225.995 514.551 226.454 514.859 227.065C515.167 227.676 515.321 228.431 515.321 229.33V236.269H513.197V229.586C513.197 228.795 512.991 228.177 512.579 227.732C512.167 227.283 511.602 227.058 510.882 227.058C510.389 227.058 509.951 227.164 509.568 227.377C509.189 227.59 508.888 227.903 508.666 228.315C508.448 228.722 508.339 229.214 508.339 229.792ZM522.743 240.587C521.876 240.587 521.13 240.474 520.505 240.247C519.885 240.019 519.379 239.719 518.986 239.345C518.593 238.971 518.299 238.561 518.105 238.116L519.93 237.363C520.058 237.571 520.228 237.792 520.441 238.024C520.659 238.26 520.953 238.462 521.322 238.627C521.696 238.793 522.177 238.876 522.764 238.876C523.569 238.876 524.234 238.679 524.76 238.286C525.285 237.898 525.548 237.278 525.548 236.426V234.281H525.413C525.285 234.513 525.101 234.771 524.859 235.055C524.622 235.339 524.296 235.585 523.879 235.793C523.462 236.002 522.92 236.106 522.253 236.106C521.391 236.106 520.614 235.905 519.923 235.502C519.236 235.095 518.692 234.496 518.29 233.705C517.892 232.91 517.693 231.932 517.693 230.772C517.693 229.612 517.889 228.618 518.282 227.789C518.68 226.961 519.225 226.326 519.916 225.886C520.607 225.441 521.391 225.218 522.267 225.218C522.944 225.218 523.491 225.332 523.907 225.559C524.324 225.782 524.648 226.042 524.88 226.34C525.117 226.639 525.299 226.901 525.427 227.129H525.584V225.36H527.665V236.511C527.665 237.448 527.447 238.218 527.011 238.819C526.575 239.42 525.986 239.865 525.243 240.154C524.504 240.443 523.671 240.587 522.743 240.587ZM522.721 234.345C523.332 234.345 523.848 234.203 524.27 233.918C524.696 233.63 525.018 233.218 525.236 232.683C525.458 232.143 525.569 231.497 525.569 230.744C525.569 230.01 525.46 229.364 525.243 228.805C525.025 228.246 524.705 227.81 524.284 227.498C523.862 227.181 523.342 227.022 522.721 227.022C522.082 227.022 521.549 227.188 521.123 227.519C520.697 227.846 520.375 228.291 520.157 228.855C519.944 229.418 519.838 230.048 519.838 230.744C519.838 231.459 519.947 232.086 520.165 232.626C520.382 233.166 520.704 233.587 521.13 233.89C521.561 234.193 522.092 234.345 522.721 234.345ZM535.108 236.489C534.085 236.489 533.192 236.255 532.43 235.786C531.668 235.318 531.076 234.662 530.655 233.819C530.233 232.976 530.022 231.991 530.022 230.864C530.022 229.733 530.233 228.743 530.655 227.896C531.076 227.048 531.668 226.39 532.43 225.921C533.192 225.453 534.085 225.218 535.108 225.218C536.13 225.218 537.023 225.453 537.785 225.921C538.548 226.39 539.139 227.048 539.561 227.896C539.982 228.743 540.193 229.733 540.193 230.864C540.193 231.991 539.982 232.976 539.561 233.819C539.139 234.662 538.548 235.318 537.785 235.786C537.023 236.255 536.13 236.489 535.108 236.489ZM535.115 234.707C535.778 234.707 536.327 234.532 536.763 234.181C537.198 233.831 537.52 233.364 537.728 232.782C537.941 232.2 538.048 231.558 538.048 230.857C538.048 230.161 537.941 229.522 537.728 228.94C537.52 228.353 537.198 227.882 536.763 227.526C536.327 227.171 535.778 226.994 535.115 226.994C534.447 226.994 533.893 227.171 533.453 227.526C533.017 227.882 532.693 228.353 532.48 228.94C532.272 229.522 532.167 230.161 532.167 230.857C532.167 231.558 532.272 232.2 532.48 232.782C532.693 233.364 533.017 233.831 533.453 234.181C533.893 234.532 534.447 234.707 535.115 234.707Z" fill="#3F4346"/>
</g>
<path fill-rule="evenodd" clip-rule="evenodd" d="M213 65.6667L199.667 79V29C199.667 23.8223 203.602 19.5637 208.645 19.0516C208.981 19.0175 209.322 19 209.667 19H256.683C257.555 19 258.422 19.1407 259.25 19.4167L259.239 19.4285C263.345 20.673 266.334 24.4874 266.334 29V55.6667C266.334 61.1895 261.857 65.6667 256.334 65.6667H213ZM206.334 62.9052V29C206.334 27.1591 207.826 25.6667 209.667 25.6667H243.572L206.334 62.9052ZM253 25.6667L219.667 59H256.334C258.175 59 259.667 57.5076 259.667 55.6667V29C259.667 27.159 258.175 25.6667 256.334 25.6667H253Z" fill="#DBEAF6"/>
<g filter="url(#filter1_d_6449_51110)">
<rect x="217" y="63" width="136.539" height="68.5385" rx="34.2693" fill="#E2F0FF" shape-rendering="crispEdges"/>
<path d="M244.044 88.1346C244.044 85.6121 246.089 83.5673 248.611 83.5673H269.925C272.448 83.5673 274.493 85.6121 274.493 88.1346V100.314C274.493 102.837 272.448 104.881 269.925 104.881H244.044V88.1346Z" fill="#0D4680"/>
<path d="M244.044 88.1346C244.044 85.6121 246.089 83.5673 248.611 83.5673H270.085C270.483 83.5673 270.879 83.6315 271.258 83.7576L244.044 110.971V88.1346Z" fill="#66BDFF"/>
<path d="M295.069 93.5449C294.994 92.8725 294.681 92.3517 294.132 91.9824C293.583 91.6083 292.891 91.4213 292.058 91.4213C291.461 91.4213 290.945 91.516 290.51 91.7054C290.074 91.89 289.736 92.1457 289.494 92.4724C289.257 92.7944 289.139 93.1613 289.139 93.5733C289.139 93.9189 289.219 94.2172 289.38 94.4682C289.546 94.7191 289.762 94.9298 290.027 95.1003C290.297 95.266 290.585 95.4057 290.893 95.5193C291.201 95.6282 291.497 95.7182 291.781 95.7892L293.201 96.1585C293.665 96.2721 294.141 96.426 294.629 96.6201C295.117 96.8143 295.569 97.0699 295.986 97.3872C296.402 97.7044 296.738 98.0974 296.994 98.5662C297.254 99.0349 297.385 99.596 297.385 100.249C297.385 101.073 297.172 101.805 296.745 102.444C296.324 103.083 295.711 103.587 294.906 103.957C294.106 104.326 293.138 104.511 292.001 104.511C290.912 104.511 289.97 104.338 289.174 103.992C288.379 103.647 287.756 103.157 287.307 102.522C286.857 101.883 286.608 101.125 286.561 100.249H288.763C288.805 100.775 288.976 101.213 289.274 101.563C289.577 101.909 289.963 102.167 290.432 102.337C290.905 102.503 291.424 102.586 291.987 102.586C292.607 102.586 293.159 102.489 293.642 102.295C294.129 102.096 294.513 101.821 294.792 101.471C295.072 101.116 295.211 100.702 295.211 100.228C295.211 99.7972 295.088 99.4445 294.842 99.1699C294.601 98.8952 294.272 98.668 293.855 98.488C293.443 98.3081 292.977 98.1495 292.456 98.0122L290.737 97.5434C289.572 97.2262 288.649 96.7598 287.967 96.1443C287.29 95.5288 286.951 94.7144 286.951 93.7011C286.951 92.863 287.179 92.1315 287.633 91.5065C288.088 90.8815 288.703 90.3962 289.48 90.0505C290.256 89.7002 291.132 89.525 292.108 89.525C293.093 89.525 293.961 89.6978 294.714 90.0434C295.472 90.3891 296.068 90.8649 296.504 91.471C296.94 92.0723 297.167 92.7636 297.186 93.5449H295.069ZM300.007 89.7238H302.671L307.301 101.031H307.472L312.102 89.7238H314.766V104.269H312.678V93.7437H312.543L308.253 104.248H306.52L302.23 93.7366H302.095V104.269H300.007V89.7238ZM325.89 93.5449C325.814 92.8725 325.501 92.3517 324.952 91.9824C324.403 91.6083 323.712 91.4213 322.878 91.4213C322.282 91.4213 321.766 91.516 321.33 91.7054C320.894 91.89 320.556 92.1457 320.314 92.4724C320.078 92.7944 319.959 93.1613 319.959 93.5733C319.959 93.9189 320.04 94.2172 320.201 94.4682C320.366 94.7191 320.582 94.9298 320.847 95.1003C321.117 95.266 321.406 95.4057 321.714 95.5193C322.021 95.6282 322.317 95.7182 322.601 95.7892L324.022 96.1585C324.486 96.2721 324.962 96.426 325.449 96.6201C325.937 96.8143 326.389 97.0699 326.806 97.3872C327.223 97.7044 327.559 98.0974 327.814 98.5662C328.075 99.0349 328.205 99.596 328.205 100.249C328.205 101.073 327.992 101.805 327.566 102.444C327.144 103.083 326.531 103.587 325.726 103.957C324.926 104.326 323.958 104.511 322.821 104.511C321.732 104.511 320.79 104.338 319.995 103.992C319.199 103.647 318.577 103.157 318.127 102.522C317.677 101.883 317.428 101.125 317.381 100.249H319.583C319.625 100.775 319.796 101.213 320.094 101.563C320.397 101.909 320.783 102.167 321.252 102.337C321.725 102.503 322.244 102.586 322.807 102.586C323.428 102.586 323.979 102.489 324.462 102.295C324.95 102.096 325.333 101.821 325.613 101.471C325.892 101.116 326.032 100.702 326.032 100.228C326.032 99.7972 325.909 99.4445 325.662 99.1699C325.421 98.8952 325.092 98.668 324.675 98.488C324.263 98.3081 323.797 98.1495 323.276 98.0122L321.557 97.5434C320.392 97.2262 319.469 96.7598 318.787 96.1443C318.11 95.5288 317.772 94.7144 317.772 93.7011C317.772 92.863 317.999 92.1315 318.454 91.5065C318.908 90.8815 319.524 90.3962 320.3 90.0505C321.077 89.7002 321.953 89.525 322.928 89.525C323.913 89.525 324.782 89.6978 325.535 90.0434C326.292 90.3891 326.889 90.8649 327.324 91.471C327.76 92.0723 327.987 92.7636 328.006 93.5449H325.89Z" fill="#3F4346"/>
</g>
<path d="M193.8 378.667C194 381.633 194.5 384.533 195.3 387.3L191.3 391.3C189.933 387.3 189.067 383.067 188.767 378.667H193.8ZM226.667 418.733C229.5 419.533 232.4 420.033 235.333 420.233V425.2C230.933 424.9 226.7 424.033 222.667 422.7L226.667 418.733ZM197 372H185.333C183.5 372 182 373.5 182 375.333C182 406.633 207.367 432 238.667 432C240.5 432 242 430.5 242 428.667V417.033C242 415.2 240.5 413.7 238.667 413.7C234.533 413.7 230.5 413.033 226.767 411.8C226.433 411.667 226.067 411.633 225.733 411.633C224.867 411.633 224.033 411.967 223.367 412.6L216.033 419.933C206.6 415.1 198.867 407.4 194.067 397.967L201.4 390.633C202.333 389.7 202.6 388.4 202.233 387.233C201 383.5 200.333 379.5 200.333 375.333C200.333 373.5 198.833 372 197 372Z" fill="#DBEAF6"/>
<g filter="url(#filter2_d_6449_51110)">
<rect x="213" y="327" width="146.539" height="68.5385" rx="34.2693" fill="#EDEDFD" shape-rendering="crispEdges"/>
<path d="M270.493 361.269C270.493 369.677 263.677 376.493 255.268 376.493C246.86 376.493 240.044 369.677 240.044 361.269C240.044 352.861 246.86 346.045 255.268 346.045C263.677 346.045 270.493 352.861 270.493 361.269Z" fill="#696BEF"/>
<path d="M270.493 361.269C270.493 369.677 263.677 376.493 255.268 376.493C246.86 376.493 240.044 369.677 240.044 361.269C240.044 352.861 246.86 346.045 255.268 346.045C263.677 346.045 270.493 352.861 270.493 361.269Z" fill="#696BEF"/>
<path d="M265.927 364.314C265.927 365.114 265.769 365.906 265.463 366.644C265.157 367.383 264.709 368.055 264.143 368.62C263.578 369.186 262.906 369.634 262.167 369.94C261.429 370.246 260.637 370.404 259.837 370.404L259.837 364.314H265.927Z" fill="white"/>
<path d="M259.478 358.535L258.005 347.71L250.702 353.657L255.269 361.127H257.215C258.599 361.127 259.665 359.906 259.478 358.535Z" fill="#3A3BA6"/>
<path d="M257.629 370.825L256.637 374.763L255.27 367.984H255.414C256.902 367.984 257.992 369.383 257.629 370.825Z" fill="#3A3BA6"/>
<path fill-rule="evenodd" clip-rule="evenodd" d="M255.269 367.982C251.486 367.982 248.418 364.915 248.418 361.131H256.64C257.396 361.131 258.01 360.523 258.01 359.766V347.703C257.124 347.523 256.208 347.429 255.269 347.429C247.702 347.429 241.567 353.564 241.567 361.131C241.567 368.698 247.702 374.833 255.269 374.833C255.732 374.833 256.189 374.81 256.64 374.765V369.352C256.64 368.595 256.026 367.982 255.269 367.982ZM255.269 354.28C255.269 355.037 254.655 355.651 253.899 355.651C253.142 355.651 252.528 355.037 252.528 354.28C252.528 353.524 253.142 352.91 253.899 352.91C254.655 352.91 255.269 353.524 255.269 354.28Z" fill="white"/>
<path d="M284.407 353.724L288.456 365.57H288.619L292.667 353.724H295.04L289.805 368.269H287.27L282.035 353.724H284.407ZM300.471 368.489C299.448 368.489 298.556 368.255 297.793 367.786C297.031 367.318 296.439 366.662 296.018 365.819C295.596 364.976 295.386 363.991 295.386 362.864C295.386 361.733 295.596 360.743 296.018 359.896C296.439 359.048 297.031 358.39 297.793 357.921C298.556 357.453 299.448 357.218 300.471 357.218C301.494 357.218 302.386 357.453 303.149 357.921C303.911 358.39 304.503 359.048 304.924 359.896C305.345 360.743 305.556 361.733 305.556 362.864C305.556 363.991 305.345 364.976 304.924 365.819C304.503 366.662 303.911 367.318 303.149 367.786C302.386 368.255 301.494 368.489 300.471 368.489ZM300.478 366.707C301.141 366.707 301.69 366.532 302.126 366.181C302.561 365.831 302.883 365.364 303.092 364.782C303.305 364.2 303.411 363.558 303.411 362.857C303.411 362.161 303.305 361.522 303.092 360.94C302.883 360.353 302.561 359.882 302.126 359.526C301.69 359.171 301.141 358.994 300.478 358.994C299.81 358.994 299.256 359.171 298.816 359.526C298.381 359.882 298.056 360.353 297.843 360.94C297.635 361.522 297.531 362.161 297.531 362.857C297.531 363.558 297.635 364.2 297.843 364.782C298.056 365.364 298.381 365.831 298.816 366.181C299.256 366.532 299.81 366.707 300.478 366.707ZM307.927 368.269V357.36H310.05V368.269H307.927ZM308.999 355.677C308.63 355.677 308.312 355.554 308.047 355.308C307.787 355.057 307.657 354.758 307.657 354.413C307.657 354.062 307.787 353.764 308.047 353.518C308.312 353.267 308.63 353.141 308.999 353.141C309.368 353.141 309.683 353.267 309.944 353.518C310.209 353.764 310.341 354.062 310.341 354.413C310.341 354.758 310.209 355.057 309.944 355.308C309.683 355.554 309.368 355.677 308.999 355.677ZM317.502 368.489C316.446 368.489 315.537 368.25 314.775 367.772C314.017 367.289 313.435 366.624 313.028 365.776C312.621 364.929 312.417 363.958 312.417 362.864C312.417 361.757 312.625 360.779 313.042 359.931C313.459 359.079 314.046 358.414 314.803 357.935C315.561 357.457 316.453 357.218 317.481 357.218C318.31 357.218 319.048 357.372 319.697 357.68C320.345 357.983 320.869 358.409 321.266 358.958C321.669 359.507 321.908 360.149 321.984 360.883H319.917C319.803 360.372 319.543 359.931 319.136 359.562C318.733 359.193 318.194 359.008 317.516 359.008C316.925 359.008 316.406 359.164 315.961 359.477C315.521 359.784 315.177 360.225 314.931 360.798C314.685 361.366 314.562 362.038 314.562 362.815C314.562 363.61 314.683 364.297 314.924 364.874C315.166 365.452 315.506 365.899 315.947 366.217C316.392 366.534 316.915 366.693 317.516 366.693C317.919 366.693 318.283 366.619 318.61 366.472C318.942 366.321 319.219 366.105 319.441 365.826C319.668 365.547 319.827 365.211 319.917 364.818H321.984C321.908 365.523 321.678 366.153 321.295 366.707C320.911 367.261 320.398 367.696 319.754 368.014C319.114 368.331 318.364 368.489 317.502 368.489ZM328.956 368.489C327.882 368.489 326.956 368.26 326.179 367.801C325.408 367.337 324.811 366.685 324.39 365.847C323.973 365.005 323.765 364.017 323.765 362.886C323.765 361.768 323.973 360.783 324.39 359.931C324.811 359.079 325.398 358.414 326.151 357.935C326.909 357.457 327.794 357.218 328.807 357.218C329.423 357.218 330.019 357.32 330.597 357.524C331.175 357.727 331.693 358.047 332.152 358.482C332.612 358.918 332.974 359.484 333.239 360.18C333.504 360.871 333.637 361.712 333.637 362.701V363.454H324.965V361.863H331.556C331.556 361.304 331.442 360.81 331.215 360.379C330.988 359.943 330.668 359.6 330.256 359.349C329.849 359.098 329.371 358.972 328.821 358.972C328.225 358.972 327.704 359.119 327.259 359.413C326.819 359.702 326.478 360.08 326.236 360.549C325.999 361.013 325.881 361.517 325.881 362.062V363.305C325.881 364.034 326.009 364.654 326.265 365.166C326.525 365.677 326.887 366.068 327.351 366.337C327.815 366.603 328.357 366.735 328.978 366.735C329.38 366.735 329.747 366.678 330.079 366.565C330.41 366.446 330.696 366.271 330.938 366.039C331.179 365.807 331.364 365.521 331.492 365.18L333.502 365.542C333.341 366.134 333.052 366.652 332.635 367.097C332.223 367.538 331.705 367.881 331.08 368.127C330.46 368.369 329.752 368.489 328.956 368.489Z" fill="#3F4346"/>
</g>
<g filter="url(#filter3_d_6449_51110)">
<rect x="40" y="205" width="213.549" height="48.6197" rx="24.3099" fill="white" shape-rendering="crispEdges"/>
<path d="M60.6201 224.31C60.6201 221.548 62.8587 219.31 65.6201 219.31H80.6201V229.548C80.6201 232.309 78.3815 234.548 75.6201 234.548H65.382L60.6201 239.31V224.31Z" fill="#3A73B5"/>
<path d="M68.239 227.929C68.239 228.718 67.5994 229.357 66.8104 229.357C66.0214 229.357 65.3818 228.718 65.3818 227.929C65.3818 227.14 66.0214 226.5 66.8104 226.5C67.5994 226.5 68.239 227.14 68.239 227.929Z" fill="#0D4680"/>
<path d="M73.0485 227.929C73.0485 228.718 72.409 229.357 71.62 229.357C70.831 229.357 70.1914 228.718 70.1914 227.929C70.1914 227.14 70.831 226.5 71.62 226.5C72.409 226.5 73.0485 227.14 73.0485 227.929Z" fill="#0D4680"/>
<path d="M77.8579 227.929C77.8579 228.718 77.2183 229.357 76.4293 229.357C75.6403 229.357 75.0007 228.718 75.0007 227.929C75.0007 227.14 75.6403 226.5 76.4293 226.5C77.2183 226.5 77.8579 227.14 77.8579 227.929Z" fill="#0D4680"/>
<path d="M67.239 226.929C67.239 227.718 66.5994 228.357 65.8104 228.357C65.0214 228.357 64.3818 227.718 64.3818 226.929C64.3818 226.14 65.0214 225.5 65.8104 225.5C66.5994 225.5 67.239 226.14 67.239 226.929Z" fill="white"/>
<path d="M72.0485 226.929C72.0485 227.718 71.409 228.357 70.62 228.357C69.831 228.357 69.1914 227.718 69.1914 226.929C69.1914 226.14 69.831 225.5 70.62 225.5C71.409 225.5 72.0485 226.14 72.0485 226.929Z" fill="white"/>
<path d="M76.8579 226.929C76.8579 227.718 76.2183 228.357 75.4293 228.357C74.6403 228.357 74.0007 227.718 74.0007 226.929C74.0007 226.14 74.6403 225.5 75.4293 225.5C76.2183 225.5 76.8579 226.14 76.8579 226.929Z" fill="white"/>
<path d="M93.5277 236.31V221.764H102.647V223.654H95.7223V228.085H102.171V229.967H95.7223V234.421H102.732V236.31H93.5277ZM107.532 229.833V236.31H105.408V225.401H107.446V227.176H107.581C107.832 226.599 108.225 226.135 108.76 225.784C109.3 225.434 109.98 225.259 110.799 225.259C111.542 225.259 112.193 225.415 112.752 225.727C113.31 226.035 113.744 226.494 114.051 227.105C114.359 227.716 114.513 228.471 114.513 229.371V236.31H112.39V229.627C112.39 228.836 112.184 228.218 111.772 227.773C111.36 227.323 110.794 227.098 110.074 227.098C109.582 227.098 109.144 227.205 108.76 227.418C108.382 227.631 108.081 227.943 107.858 228.355C107.641 228.762 107.532 229.255 107.532 229.833ZM126.303 225.401L122.347 236.31H120.074L116.111 225.401H118.391L121.154 233.796H121.267L124.023 225.401H126.303ZM128.299 236.31V225.401H130.422V236.31H128.299ZM129.371 223.717C129.002 223.717 128.685 223.594 128.419 223.348C128.159 223.097 128.029 222.799 128.029 222.453C128.029 222.103 128.159 221.805 128.419 221.558C128.685 221.307 129.002 221.182 129.371 221.182C129.74 221.182 130.055 221.307 130.316 221.558C130.581 221.805 130.713 222.103 130.713 222.453C130.713 222.799 130.581 223.097 130.316 223.348C130.055 223.594 129.74 223.717 129.371 223.717ZM136.454 236.551C135.763 236.551 135.138 236.423 134.579 236.168C134.02 235.907 133.577 235.531 133.251 235.039C132.929 234.546 132.768 233.942 132.768 233.227C132.768 232.612 132.886 232.105 133.123 231.708C133.36 231.31 133.679 230.995 134.082 230.763C134.484 230.531 134.934 230.356 135.431 230.237C135.928 230.119 136.435 230.029 136.951 229.967C137.604 229.892 138.135 229.83 138.542 229.783C138.949 229.731 139.245 229.648 139.43 229.534C139.614 229.421 139.707 229.236 139.707 228.98V228.931C139.707 228.31 139.531 227.83 139.181 227.489C138.835 227.148 138.319 226.977 137.633 226.977C136.918 226.977 136.354 227.136 135.942 227.453C135.535 227.766 135.254 228.114 135.097 228.497L133.102 228.043C133.338 227.38 133.684 226.845 134.138 226.438C134.598 226.026 135.126 225.727 135.722 225.543C136.319 225.353 136.946 225.259 137.604 225.259C138.04 225.259 138.502 225.311 138.989 225.415C139.482 225.514 139.941 225.699 140.367 225.969C140.798 226.239 141.151 226.625 141.425 227.127C141.7 227.624 141.837 228.27 141.837 229.065V236.31H139.763V234.818H139.678C139.541 235.093 139.335 235.363 139.06 235.628C138.786 235.893 138.433 236.113 138.002 236.289C137.571 236.464 137.055 236.551 136.454 236.551ZM136.915 234.847C137.503 234.847 138.004 234.731 138.421 234.499C138.843 234.267 139.162 233.964 139.38 233.59C139.603 233.211 139.714 232.806 139.714 232.375V230.969C139.638 231.045 139.491 231.116 139.273 231.182C139.06 231.244 138.817 231.298 138.542 231.345C138.267 231.388 138 231.428 137.739 231.466C137.479 231.499 137.261 231.528 137.086 231.551C136.674 231.603 136.298 231.691 135.957 231.814C135.621 231.937 135.351 232.115 135.147 232.347C134.948 232.574 134.849 232.877 134.849 233.256C134.849 233.781 135.043 234.179 135.431 234.449C135.819 234.714 136.314 234.847 136.915 234.847ZM144.666 236.31V225.401H146.718V227.134H146.832C147.031 226.547 147.381 226.085 147.883 225.749C148.39 225.408 148.963 225.237 149.602 225.237C149.734 225.237 149.891 225.242 150.071 225.252C150.255 225.261 150.4 225.273 150.504 225.287V227.318C150.419 227.295 150.267 227.269 150.049 227.24C149.832 227.207 149.614 227.19 149.396 227.19C148.894 227.19 148.447 227.297 148.054 227.51C147.665 227.718 147.358 228.01 147.13 228.384C146.903 228.753 146.789 229.174 146.789 229.648V236.31H144.666ZM170.44 229.037C170.44 230.59 170.156 231.925 169.588 233.043C169.02 234.155 168.241 235.012 167.251 235.614C166.266 236.21 165.146 236.509 163.892 236.509C162.632 236.509 161.508 236.21 160.518 235.614C159.533 235.012 158.757 234.153 158.189 233.036C157.62 231.918 157.336 230.585 157.336 229.037C157.336 227.484 157.62 226.151 158.189 225.039C158.757 223.921 159.533 223.064 160.518 222.467C161.508 221.866 162.632 221.565 163.892 221.565C165.146 221.565 166.266 221.866 167.251 222.467C168.241 223.064 169.02 223.921 169.588 225.039C170.156 226.151 170.44 227.484 170.44 229.037ZM168.267 229.037C168.267 227.853 168.075 226.857 167.691 226.047C167.313 225.233 166.792 224.617 166.129 224.2C165.471 223.779 164.725 223.568 163.892 223.568C163.054 223.568 162.306 223.779 161.647 224.2C160.989 224.617 160.468 225.233 160.085 226.047C159.706 226.857 159.517 227.853 159.517 229.037C159.517 230.221 159.706 231.22 160.085 232.034C160.468 232.844 160.989 233.459 161.647 233.881C162.306 234.298 163.054 234.506 163.892 234.506C164.725 234.506 165.471 234.298 166.129 233.881C166.792 233.459 167.313 232.844 167.691 232.034C168.075 231.22 168.267 230.221 168.267 229.037ZM171.834 223.654V221.764H183.091V223.654H178.553V236.31H176.365V223.654H171.834ZM185.578 236.31V221.764H190.763C191.895 221.764 192.832 221.97 193.576 222.382C194.319 222.794 194.875 223.358 195.245 224.073C195.614 224.783 195.799 225.583 195.799 226.473C195.799 227.368 195.612 228.173 195.238 228.888C194.868 229.598 194.31 230.162 193.561 230.578C192.818 230.99 191.883 231.196 190.756 231.196H187.191V229.335H190.557C191.272 229.335 191.852 229.212 192.297 228.966C192.742 228.715 193.069 228.374 193.277 227.943C193.486 227.512 193.59 227.022 193.59 226.473C193.59 225.924 193.486 225.436 193.277 225.01C193.069 224.584 192.74 224.25 192.29 224.009C191.845 223.767 191.258 223.646 190.529 223.646H187.773V236.31H185.578ZM203.494 240.401V225.401H205.568V227.169H205.745C205.868 226.942 206.046 226.679 206.278 226.381C206.51 226.083 206.832 225.822 207.244 225.6C207.656 225.372 208.2 225.259 208.877 225.259C209.758 225.259 210.544 225.481 211.235 225.926C211.927 226.371 212.469 227.013 212.862 227.851C213.26 228.689 213.458 229.698 213.458 230.877C213.458 232.056 213.262 233.066 212.869 233.909C212.476 234.747 211.936 235.394 211.25 235.848C210.563 236.298 209.779 236.523 208.899 236.523C208.236 236.523 207.694 236.412 207.272 236.189C206.856 235.967 206.529 235.706 206.292 235.408C206.056 235.11 205.873 234.844 205.745 234.612H205.618V240.401H203.494ZM205.575 230.855C205.575 231.622 205.686 232.295 205.909 232.872C206.131 233.45 206.453 233.902 206.875 234.229C207.296 234.551 207.812 234.712 208.423 234.712C209.057 234.712 209.588 234.544 210.014 234.208C210.44 233.867 210.762 233.405 210.98 232.823C211.202 232.24 211.314 231.584 211.314 230.855C211.314 230.136 211.205 229.489 210.987 228.916C210.774 228.343 210.452 227.891 210.021 227.56C209.595 227.228 209.062 227.063 208.423 227.063C207.807 227.063 207.287 227.221 206.86 227.539C206.439 227.856 206.119 228.298 205.902 228.867C205.684 229.435 205.575 230.098 205.575 230.855ZM220.433 236.53C219.41 236.53 218.518 236.296 217.755 235.827C216.993 235.358 216.401 234.702 215.98 233.86C215.558 233.017 215.348 232.032 215.348 230.905C215.348 229.773 215.558 228.784 215.98 227.936C216.401 227.089 216.993 226.431 217.755 225.962C218.518 225.493 219.41 225.259 220.433 225.259C221.456 225.259 222.348 225.493 223.11 225.962C223.873 226.431 224.465 227.089 224.886 227.936C225.307 228.784 225.518 229.773 225.518 230.905C225.518 232.032 225.307 233.017 224.886 233.86C224.465 234.702 223.873 235.358 223.11 235.827C222.348 236.296 221.456 236.53 220.433 236.53ZM220.44 234.747C221.103 234.747 221.652 234.572 222.088 234.222C222.523 233.871 222.845 233.405 223.054 232.823C223.267 232.24 223.373 231.599 223.373 230.898C223.373 230.202 223.267 229.563 223.054 228.98C222.845 228.393 222.523 227.922 222.088 227.567C221.652 227.212 221.103 227.034 220.44 227.034C219.772 227.034 219.218 227.212 218.778 227.567C218.342 227.922 218.018 228.393 217.805 228.98C217.597 229.563 217.493 230.202 217.493 230.898C217.493 231.599 217.597 232.24 217.805 232.823C218.018 233.405 218.342 233.871 218.778 234.222C219.218 234.572 219.772 234.747 220.44 234.747ZM227.888 236.31V225.401H229.941V227.134H230.055C230.254 226.547 230.604 226.085 231.106 225.749C231.612 225.408 232.185 225.237 232.825 225.237C232.957 225.237 233.113 225.242 233.293 225.252C233.478 225.261 233.622 225.273 233.727 225.287V227.318C233.641 227.295 233.49 227.269 233.272 227.24C233.054 227.207 232.836 227.19 232.619 227.19C232.117 227.19 231.669 227.297 231.276 227.51C230.888 227.718 230.58 228.01 230.353 228.384C230.126 228.753 230.012 229.174 230.012 229.648V236.31H227.888Z" fill="#3F4346"/>
</g>
<path d="M257.55 228.56C257.136 228.56 256.8 228.896 256.8 229.31C256.8 229.724 257.136 230.06 257.55 230.06V228.56ZM371.531 229.84C371.824 229.547 371.824 229.072 371.531 228.78L366.758 224.007C366.465 223.714 365.99 223.714 365.697 224.007C365.404 224.3 365.404 224.774 365.697 225.067L369.94 229.31L365.697 233.553C365.404 233.845 365.404 234.32 365.697 234.613C365.99 234.906 366.465 234.906 366.758 234.613L371.531 229.84ZM257.55 230.06H371.001V228.56H257.55V230.06Z" fill="#1E75BA"/>
<path d="M257.55 228.56C257.136 228.56 256.8 228.896 256.8 229.31C256.8 229.724 257.136 230.06 257.55 230.06V228.56ZM285.8 131.008C285.507 130.715 285.032 130.715 284.739 131.008L279.967 135.781C279.674 136.074 279.674 136.549 279.967 136.842C280.259 137.135 280.734 137.135 281.027 136.842L285.27 132.599L289.512 136.842C289.805 137.135 290.28 137.135 290.573 136.842C290.866 136.549 290.866 136.074 290.573 135.781L285.8 131.008ZM257.55 230.06H261.27V228.56H257.55V230.06ZM286.02 205.31V131.538H284.52V205.31H286.02ZM261.27 230.06C274.939 230.06 286.02 218.979 286.02 205.31H284.52C284.52 218.15 274.11 228.56 261.27 228.56V230.06Z" fill="#1E75BA"/>
<path d="M257.55 228.56C257.136 228.56 256.8 228.896 256.8 229.31C256.8 229.724 257.136 230.06 257.55 230.06V228.56ZM285.739 323.53C286.032 323.823 286.507 323.823 286.8 323.53L291.573 318.757C291.866 318.465 291.866 317.99 291.573 317.697C291.28 317.404 290.805 317.404 290.512 317.697L286.27 321.939L282.027 317.697C281.734 317.404 281.259 317.404 280.966 317.697C280.674 317.99 280.674 318.465 280.966 318.757L285.739 323.53ZM257.55 230.06H262.27V228.56H257.55V230.06ZM285.52 253.31V323H287.02V253.31H285.52ZM262.27 230.06C275.11 230.06 285.52 240.469 285.52 253.31H287.02C287.02 239.641 275.939 228.56 262.27 228.56V230.06Z" fill="#1E75BA"/>
<defs>
<filter id="filter0_d_6449_51110" x="371.346" y="195" width="197.846" height="75.8463" filterUnits="userSpaceOnUse" color-interpolation-filters="sRGB">
<feFlood flood-opacity="0" result="BackgroundImageFix"/>
<feColorMatrix in="SourceAlpha" type="matrix" values="0 0 0 0 0 0 0 0 0 0 0 0 0 0 0 0 0 0 127 0" result="hardAlpha"/>
<feOffset dy="3.65385"/>
<feGaussianBlur stdDeviation="1.82693"/>
<feComposite in2="hardAlpha" operator="out"/>
<feColorMatrix type="matrix" values="0 0 0 0 0 0 0 0 0 0 0 0 0 0 0 0 0 0 0.25 0"/>
<feBlend mode="normal" in2="BackgroundImageFix" result="effect1_dropShadow_6449_51110"/>
<feBlend mode="normal" in="SourceGraphic" in2="effect1_dropShadow_6449_51110" result="shape"/>
</filter>
<filter id="filter1_d_6449_51110" x="213.346" y="63" width="143.846" height="75.8463" filterUnits="userSpaceOnUse" color-interpolation-filters="sRGB">
<feFlood flood-opacity="0" result="BackgroundImageFix"/>
<feColorMatrix in="SourceAlpha" type="matrix" values="0 0 0 0 0 0 0 0 0 0 0 0 0 0 0 0 0 0 127 0" result="hardAlpha"/>
<feOffset dy="3.65385"/>
<feGaussianBlur stdDeviation="1.82693"/>
<feComposite in2="hardAlpha" operator="out"/>
<feColorMatrix type="matrix" values="0 0 0 0 0 0 0 0 0 0 0 0 0 0 0 0 0 0 0.25 0"/>
<feBlend mode="normal" in2="BackgroundImageFix" result="effect1_dropShadow_6449_51110"/>
<feBlend mode="normal" in="SourceGraphic" in2="effect1_dropShadow_6449_51110" result="shape"/>
</filter>
<filter id="filter2_d_6449_51110" x="209.346" y="327" width="153.846" height="75.8463" filterUnits="userSpaceOnUse" color-interpolation-filters="sRGB">
<feFlood flood-opacity="0" result="BackgroundImageFix"/>
<feColorMatrix in="SourceAlpha" type="matrix" values="0 0 0 0 0 0 0 0 0 0 0 0 0 0 0 0 0 0 127 0" result="hardAlpha"/>
<feOffset dy="3.65385"/>
<feGaussianBlur stdDeviation="1.82693"/>
<feComposite in2="hardAlpha" operator="out"/>
<feColorMatrix type="matrix" values="0 0 0 0 0 0 0 0 0 0 0 0 0 0 0 0 0 0 0.25 0"/>
<feBlend mode="normal" in2="BackgroundImageFix" result="effect1_dropShadow_6449_51110"/>
<feBlend mode="normal" in="SourceGraphic" in2="effect1_dropShadow_6449_51110" result="shape"/>
</filter>
<filter id="filter3_d_6449_51110" x="35.3451" y="205" width="222.859" height="57.9296" filterUnits="userSpaceOnUse" color-interpolation-filters="sRGB">
<feFlood flood-opacity="0" result="BackgroundImageFix"/>
<feColorMatrix in="SourceAlpha" type="matrix" values="0 0 0 0 0 0 0 0 0 0 0 0 0 0 0 0 0 0 127 0" result="hardAlpha"/>
<feOffset dy="4.65493"/>
<feGaussianBlur stdDeviation="2.32746"/>
<feComposite in2="hardAlpha" operator="out"/>
<feColorMatrix type="matrix" values="0 0 0 0 0 0 0 0 0 0 0 0 0 0 0 0 0 0 0.25 0"/>
<feBlend mode="normal" in2="BackgroundImageFix" result="effect1_dropShadow_6449_51110"/>
<feBlend mode="normal" in="SourceGraphic" in2="effect1_dropShadow_6449_51110" result="shape"/>
</filter>
</defs>
</svg>
