<svg width="400" height="110" viewBox="0 0 400 110" fill="none" xmlns="http://www.w3.org/2000/svg">
<g clip-path="url(#clip0_966_16077)">
<path fillRule="evenodd" clip-rule="evenodd" d="M53.083 0.117955C51.723 0.162955 49.2 0.325955 45.833 0.586955C45.146 0.639955 44.108 0.749955 43.528 0.830955C42.947 0.911955 42.375 0.941955 42.257 0.895955C42.139 0.850955 40.851 1.00196 39.396 1.23296C37.941 1.46296 36.375 1.69596 35.917 1.75096C35.458 1.80496 34.671 1.95396 34.167 2.08096C33.662 2.20896 32.912 2.35696 32.5 2.41096C31.401 2.55596 29.334 3.06596 29.334 3.19296C29.333 3.25296 29.184 3.26296 29.002 3.21596C28.821 3.16796 28.539 3.18596 28.377 3.25596C28.216 3.32596 27.971 3.40496 27.833 3.43096C27.392 3.51396 25.623 4.02695 24.25 4.46995C23.517 4.70595 22.842 4.90796 22.75 4.91796C22.591 4.93496 22.327 5.02896 21.583 5.33296C20.865 5.62796 20.578 5.71796 20.454 5.69196C20.383 5.67596 20.03 5.81496 19.669 5.99896C19.308 6.18296 18.898 6.33296 18.757 6.33296C18.615 6.33296 18.5 6.40796 18.5 6.49996C18.5 6.59196 18.38 6.66695 18.234 6.66695C18.088 6.66695 17.761 6.81396 17.507 6.99496C17.253 7.17596 16.994 7.27196 16.932 7.20996C16.637 6.91396 16.93 42.533 17.237 44.333C17.402 45.296 17.558 46.37 17.585 46.72C17.647 47.536 18.277 50.124 18.729 51.417C18.921 51.967 19.089 52.473 19.101 52.542C19.114 52.61 19.14 52.685 19.159 52.708C19.177 52.731 19.217 52.862 19.247 53C19.278 53.137 19.423 53.531 19.57 53.874C19.717 54.218 19.843 54.555 19.849 54.624C19.856 54.693 19.939 54.844 20.035 54.958C20.13 55.073 20.162 55.167 20.107 55.167C20.051 55.167 20.154 55.431 20.336 55.755C20.518 56.079 20.667 56.447 20.667 56.575C20.667 56.702 20.723 56.831 20.792 56.861C20.86 56.892 21.246 57.554 21.648 58.333C22.05 59.112 22.483 59.811 22.61 59.885C22.737 59.96 22.797 60.091 22.744 60.177C22.69 60.263 22.726 60.333 22.823 60.333C22.921 60.333 23 60.458 23 60.609C23 60.761 23.187 61.131 23.417 61.431C23.646 61.732 23.833 62.029 23.833 62.092C23.833 62.192 24.337 62.847 25.068 63.696C25.2 63.849 25.394 64.136 25.5 64.333C25.606 64.531 25.836 64.836 26.013 65.013C26.189 65.189 26.333 65.408 26.333 65.5C26.333 65.592 26.446 65.667 26.583 65.667C26.721 65.667 26.815 65.734 26.792 65.815C26.748 65.97 27.769 67.214 28.917 68.405C29.283 68.785 29.827 69.378 30.125 69.721C30.423 70.064 30.667 70.299 30.667 70.243C30.667 70.187 31.176 70.653 31.799 71.279C33.202 72.689 35.402 74.67 35.92 74.989C36.133 75.121 36.387 75.402 36.484 75.614C36.58 75.826 36.741 76 36.84 76C37.013 76 37.301 76.238 38.601 77.458C38.918 77.756 39.236 78 39.308 78C39.379 78 39.604 78.225 39.807 78.5C40.01 78.775 40.239 79 40.316 79C40.45 79 41.306 79.745 43.015 81.349C43.463 81.77 43.859 82.085 43.894 82.05C43.93 82.015 44.151 82.214 44.385 82.493C44.62 82.772 44.862 83 44.922 83C44.983 83 45.242 83.206 45.497 83.458C46.379 84.329 47.138 85 47.241 85C47.298 85 47.568 85.229 47.841 85.508C48.135 85.808 48.423 85.968 48.544 85.898C48.657 85.833 48.693 85.843 48.623 85.919C48.491 86.065 49.118 86.833 49.37 86.833C49.537 86.833 50.32 87.686 50.328 87.875C50.339 88.141 49.959 87.979 49.449 87.501C49.156 87.226 48.821 87.001 48.703 87.001C48.586 87 48.446 86.887 48.394 86.75C48.341 86.612 48.196 86.5 48.072 86.5C47.948 86.5 47.712 86.363 47.548 86.196C47.384 86.029 46.987 85.713 46.667 85.494C46.346 85.275 45.984 84.98 45.863 84.839C45.677 84.624 45.662 84.623 45.77 84.833C45.841 84.971 45.628 84.858 45.298 84.583C44.005 83.508 43.44 83.075 43.061 82.87C42.844 82.752 42.667 82.579 42.667 82.485C42.667 82.391 42.601 82.354 42.52 82.404C42.44 82.454 42.196 82.324 41.978 82.115C41.761 81.906 41.176 81.448 40.679 81.097C40.182 80.746 39.694 80.393 39.596 80.314C39.497 80.234 39.079 79.904 38.667 79.58C38.254 79.256 37.742 78.843 37.528 78.662C37.313 78.481 37.093 78.333 37.037 78.333C36.981 78.333 36.713 78.127 36.442 77.875C36.17 77.623 36.003 77.529 36.07 77.667C36.137 77.804 36.055 77.767 35.888 77.583C35.433 77.085 34.167 76.119 34.167 76.271C34.167 76.343 33.91 76.131 33.597 75.799C33.284 75.467 32.997 75.225 32.96 75.262C32.923 75.299 32.678 75.106 32.415 74.832C32.152 74.558 31.87 74.333 31.787 74.333C31.653 74.333 31.272 74.022 30.325 73.139C30.162 72.986 29.998 72.891 29.961 72.927C29.925 72.964 29.453 72.586 28.913 72.087C28.373 71.588 27.904 71.207 27.872 71.239C27.84 71.271 27.645 71.137 27.44 70.941C26.737 70.267 26.003 69.667 25.882 69.667C25.761 69.667 25.374 69.314 24.552 68.458C24.31 68.206 24.03 68 23.929 68C23.829 68 23.653 67.85 23.539 67.667C23.424 67.483 23.246 67.333 23.143 67.333C23.039 67.333 22.784 67.165 22.576 66.958C22.368 66.752 21.834 66.253 21.39 65.85C20.176 64.747 18.025 62.667 18.099 62.667C18.135 62.667 17.928 62.442 17.64 62.167C17.353 61.892 17.06 61.667 16.991 61.667C16.922 61.667 16.667 61.329 16.425 60.917C16.184 60.504 15.923 60.167 15.846 60.167C15.769 60.167 15.664 60.009 15.614 59.817C15.564 59.624 15.448 59.513 15.357 59.569C15.265 59.625 15.138 59.505 15.073 59.302C15.009 59.099 14.866 58.842 14.755 58.731C14.645 58.621 14.301 58.13 13.991 57.64C13.681 57.151 13.388 56.712 13.339 56.667C13.122 56.463 12.543 55.502 12.083 54.583C11.808 54.033 11.527 53.558 11.457 53.527C11.388 53.497 11.374 53.403 11.425 53.319C11.477 53.235 11.44 53.167 11.343 53.167C11.246 53.167 11.167 53.031 11.167 52.865C11.167 52.698 10.968 52.155 10.726 51.656C10.483 51.158 10.26 50.6 10.23 50.417C10.2 50.233 10.029 49.578 9.84898 48.961C9.66998 48.344 9.48498 47.519 9.43998 47.128C9.25998 45.583 9.16898 44.899 9.08798 44.5C8.80898 43.125 8.66998 39.67 8.66298 33.94L8.65398 27.422L9.11498 27.086C9.36898 26.901 9.60698 26.775 9.64398 26.806C9.68198 26.837 9.75898 26.798 9.81498 26.72C9.92598 26.565 11.318 25.825 13.208 24.915L13.833 24.614V19.807C13.833 16.713 13.774 15 13.667 15C13.575 15 13.5 15.088 13.5 15.194C13.5 15.301 13.453 15.342 13.396 15.285C13.339 15.228 13.004 15.328 12.653 15.507C12.301 15.687 11.898 15.833 11.757 15.833C11.615 15.833 11.5 15.913 11.5 16.01C11.5 16.107 11.425 16.14 11.333 16.083C11.242 16.027 11.167 16.072 11.167 16.185C11.167 16.297 11.121 16.343 11.065 16.287C11.009 16.231 10.559 16.413 10.065 16.692C9.57098 16.97 9.16698 17.149 9.16698 17.088C9.16698 17.027 8.94198 17.138 8.66698 17.333C8.39198 17.529 8.16698 17.642 8.16698 17.584C8.16698 17.45 6.79098 18.194 6.62798 18.417C6.55998 18.508 6.50398 18.522 6.50298 18.447C6.50098 18.372 6.29398 18.451 6.04198 18.622C5.78998 18.793 5.37698 19.021 5.12498 19.13C4.87298 19.238 4.66698 19.394 4.66698 19.477C4.66698 19.623 4.04598 19.888 3.79198 19.851C3.72298 19.841 3.66698 19.908 3.66698 20C3.66698 20.092 3.55398 20.167 3.41698 20.167C3.27898 20.167 3.16598 20.223 3.16598 20.292C3.16598 20.36 2.75698 20.637 2.25898 20.906C1.75998 21.175 1.39698 21.468 1.45198 21.557C1.50698 21.645 1.46998 21.668 1.36998 21.606C1.26998 21.544 0.99898 21.683 0.76798 21.913C0.53698 22.144 0.27198 22.333 0.17898 22.333C-0.0470195 22.333 0.0869805 39.512 0.32898 41.667C0.42698 42.537 0.58798 43.7 0.68798 44.25C0.78798 44.8 0.89798 45.587 0.93298 46C0.96698 46.413 1.18798 47.425 1.42298 48.25C1.65798 49.075 1.86898 49.825 1.89198 49.917C2.21898 51.217 3.09898 53.31 3.41398 53.539C3.50698 53.606 3.51998 53.663 3.44198 53.664C3.36498 53.666 3.48798 53.985 3.71698 54.375C3.94498 54.765 4.13898 55.158 4.14798 55.25C4.15698 55.342 4.28498 55.558 4.43298 55.731C4.57998 55.903 4.79098 56.241 4.89998 56.481C5.22698 57.196 5.74098 57.998 5.87498 57.999C5.94398 58 5.99998 58.104 5.99998 58.232C5.99998 58.36 6.11198 58.508 6.24998 58.56C6.38798 58.613 6.49998 58.765 6.49998 58.898C6.49998 59.03 6.55898 59.164 6.63098 59.194C6.70198 59.225 7.11898 59.719 7.55698 60.292C7.99498 60.865 8.41098 61.333 8.48298 61.333C8.55498 61.333 8.69898 61.521 8.80298 61.75C8.90698 61.979 9.10698 62.167 9.24598 62.167C9.38598 62.167 9.49998 62.241 9.49998 62.332C9.49998 62.627 11.467 64.773 11.681 64.711C11.755 64.69 11.974 64.896 12.169 65.17C12.363 65.443 12.587 65.667 12.666 65.667C12.745 65.667 13.088 65.929 13.428 66.25C13.768 66.571 14.104 66.833 14.175 66.833C14.246 66.833 14.554 67.06 14.86 67.337C16.214 68.562 16.764 68.998 16.958 68.999C17.073 69 17.167 69.076 17.167 69.169C17.167 69.263 17.429 69.464 17.75 69.617C18.071 69.77 18.333 70.006 18.333 70.142C18.333 70.278 18.385 70.338 18.447 70.275C18.51 70.212 18.81 70.402 19.114 70.696C19.418 70.991 19.667 71.18 19.667 71.116C19.667 71.052 19.804 71.131 19.973 71.292C20.141 71.452 20.453 71.696 20.667 71.833C20.88 71.971 21.193 72.215 21.361 72.375C21.529 72.535 21.728 72.667 21.802 72.667C21.876 72.667 22.083 72.798 22.26 72.958C22.775 73.423 23.906 74.249 24.028 74.249C24.09 74.25 24.315 74.401 24.528 74.586C25.412 75.351 26.119 75.825 26.223 75.721C26.284 75.661 26.333 75.691 26.333 75.789C26.333 75.95 26.953 76.418 28.832 77.678C29.183 77.913 29.684 78.272 29.944 78.475C30.892 79.216 33 80.66 33 80.568C33 80.517 33.231 80.706 33.514 80.988C33.797 81.271 34.087 81.466 34.159 81.421C34.232 81.376 34.525 81.563 34.811 81.837C35.096 82.11 35.387 82.334 35.457 82.334C35.526 82.334 35.846 82.559 36.167 82.833C36.487 83.108 36.836 83.333 36.941 83.333C37.045 83.333 37.176 83.451 37.231 83.594C37.286 83.737 37.393 83.816 37.468 83.769C37.544 83.723 37.807 83.871 38.053 84.099C38.299 84.327 38.5 84.47 38.5 84.417C38.5 84.363 38.705 84.51 38.957 84.743C39.208 84.976 39.476 85.167 39.552 85.167C39.629 85.167 40.23 85.563 40.887 86.048C41.545 86.533 42.29 87.033 42.542 87.16C42.794 87.286 43 87.443 43 87.508C43 87.573 43.225 87.719 43.5 87.833C43.775 87.947 44 88.106 44 88.187C44 88.267 44.074 88.333 44.165 88.333C44.32 88.333 44.756 88.65 45.257 89.125C45.377 89.24 45.524 89.333 45.583 89.333C45.641 89.333 45.935 89.521 46.235 89.75C46.536 89.979 46.834 90.167 46.899 90.167C46.963 90.167 47.19 90.354 47.402 90.583C47.614 90.813 47.862 91 47.952 91C48.041 91 48.333 91.187 48.599 91.416C48.865 91.646 49.142 91.833 49.214 91.833C49.286 91.833 49.265 91.983 49.167 92.167C49.069 92.35 48.897 92.5 48.786 92.5C48.674 92.5 48.264 92.791 47.875 93.147C47.485 93.503 47.167 93.749 47.167 93.694C47.167 93.638 47.05 93.759 46.907 93.963C46.765 94.167 46.54 94.333 46.407 94.333C46.275 94.333 46.167 94.398 46.167 94.478C46.167 94.557 45.454 95.167 44.583 95.833C43.712 96.499 43 97.109 43 97.189C43 97.268 42.919 97.333 42.82 97.333C42.721 97.333 42.344 97.633 41.98 98C41.617 98.367 41.265 98.667 41.197 98.667C41.13 98.667 40.95 98.798 40.798 98.958C40.645 99.119 40.32 99.4 40.074 99.583C39.281 100.174 38.333 101.122 38.333 101.324C38.333 101.431 38.269 101.48 38.191 101.432C38.113 101.383 37.874 101.529 37.662 101.755C37.449 101.981 37.345 102.169 37.429 102.172C37.514 102.175 37.452 102.253 37.292 102.347C37.131 102.44 37 102.63 37 102.768C37 102.906 36.926 102.974 36.835 102.918C36.737 102.857 36.715 102.932 36.78 103.102C36.856 103.299 36.828 103.35 36.691 103.265C36.581 103.197 36.507 103.204 36.526 103.279C36.545 103.355 36.472 103.717 36.365 104.083C36.257 104.45 36.168 105.744 36.168 106.958L36.167 109.167H55.601H75.035L74.974 106.542C74.941 105.098 74.841 103.804 74.753 103.667C74.665 103.529 74.59 103.336 74.588 103.238C74.582 103.013 73.761 101.969 73 101.219C71.747 99.984 71.574 99.833 71.413 99.833C71.322 99.833 71.149 99.676 71.029 99.484C70.908 99.292 70.773 99.171 70.728 99.216C70.683 99.261 70.477 99.137 70.271 98.941C69.271 97.99 68.287 97.145 67.874 96.882C67.622 96.723 67.295 96.459 67.147 96.296C66.999 96.133 66.79 96 66.684 96C66.577 96 66.446 95.887 66.394 95.75C66.341 95.612 66.234 95.5 66.156 95.5C66.077 95.5 65.708 95.201 65.336 94.836C64.696 94.208 63.833 93.957 63.833 94.397C63.833 94.484 63.783 94.505 63.722 94.444C63.661 94.383 63.492 94.433 63.347 94.556C63.202 94.679 62.311 95.106 61.366 95.504C60.422 95.902 59.611 96.289 59.565 96.364C59.518 96.439 59.335 96.5 59.157 96.5C58.979 96.5 58.833 96.587 58.833 96.694C58.833 96.801 58.783 96.839 58.722 96.777C58.66 96.716 58.454 96.766 58.263 96.889C58.073 97.012 57.129 97.468 56.167 97.903C53.435 99.138 53.001 99.338 51.667 99.978C50.979 100.308 50.379 100.586 50.333 100.594C50.288 100.603 49.586 100.923 48.775 101.305C47.964 101.687 47.233 102 47.15 102C47.068 102 47 102.063 47 102.139C47 102.215 46.887 102.278 46.75 102.278C46.37 102.278 46.452 102.037 46.875 101.909C47.081 101.847 47.449 101.609 47.693 101.382C47.936 101.154 48.186 100.982 48.248 100.999C48.31 101.016 48.579 100.836 48.846 100.598C49.114 100.36 49.367 100.184 49.411 100.208C49.454 100.231 49.642 100.119 49.83 99.958C50.017 99.798 50.245 99.667 50.335 99.667C50.426 99.667 50.5 99.604 50.5 99.527C50.5 99.45 50.692 99.299 50.926 99.193C51.16 99.086 51.307 98.925 51.251 98.835C51.193 98.741 51.26 98.713 51.408 98.77C51.55 98.824 51.667 98.795 51.667 98.704C51.667 98.613 51.798 98.491 51.958 98.433C52.375 98.283 52.948 97.932 53.304 97.61C53.472 97.458 53.661 97.333 53.723 97.333C53.785 97.333 54.054 97.139 54.321 96.901C54.588 96.664 54.844 96.495 54.89 96.526C54.936 96.558 55.148 96.425 55.362 96.232C55.575 96.039 55.994 95.742 56.292 95.571C56.59 95.401 56.833 95.203 56.833 95.131C56.833 95.059 56.946 95 57.083 95C57.221 95 57.333 94.925 57.333 94.833C57.333 94.742 57.413 94.667 57.511 94.667C57.705 94.667 58.882 93.827 58.972 93.625C59.003 93.556 59.131 93.5 59.258 93.5C59.385 93.5 59.735 93.287 60.036 93.028C60.337 92.768 60.827 92.414 61.125 92.242C61.423 92.069 61.667 91.865 61.667 91.788C61.667 91.71 61.728 91.685 61.802 91.731C61.877 91.777 62.148 91.633 62.406 91.412C62.663 91.191 63.015 90.965 63.187 90.91C63.359 90.856 63.5 90.757 63.5 90.691C63.5 90.626 63.744 90.431 64.042 90.259C64.34 90.088 64.696 89.844 64.833 89.719C64.971 89.593 65.758 89.063 66.583 88.54C67.408 88.017 68.228 87.457 68.404 87.296C68.581 87.135 68.862 86.96 69.029 86.907C69.197 86.854 69.333 86.741 69.333 86.655C69.333 86.57 69.446 86.5 69.583 86.5C69.721 86.5 69.833 86.442 69.833 86.372C69.833 86.301 70.171 86.059 70.583 85.833C70.996 85.608 71.333 85.361 71.333 85.285C71.333 85.209 71.397 85.186 71.475 85.234C71.553 85.282 71.759 85.193 71.933 85.034C72.378 84.631 74.816 83 74.974 83C75.046 83 75.317 82.778 75.578 82.506C75.838 82.234 76.11 82.048 76.182 82.093C76.254 82.137 76.39 82.041 76.485 81.879C76.579 81.716 76.659 81.643 76.662 81.715C76.664 81.787 76.828 81.696 77.025 81.512C77.222 81.329 77.447 81.218 77.525 81.266C77.603 81.314 77.667 81.236 77.667 81.093C77.667 80.95 77.723 80.849 77.792 80.868C77.996 80.924 78.893 80.395 79.235 80.017C79.409 79.824 79.618 79.667 79.7 79.667C79.781 79.667 79.938 79.593 80.049 79.503C81.046 78.689 81.334 78.49 81.338 78.61C81.341 78.687 81.421 78.617 81.515 78.455C81.61 78.292 81.758 78.203 81.844 78.256C81.93 78.31 82 78.291 82 78.216C82 78.14 82.3 77.893 82.667 77.667C83.033 77.44 83.333 77.197 83.333 77.127C83.333 77.057 83.39 77.018 83.458 77.04C83.603 77.085 85.19 76.025 85.372 75.761C85.44 75.663 85.496 75.639 85.497 75.707C85.5 75.822 85.917 75.522 86.423 75.042C86.544 74.927 86.689 74.833 86.745 74.833C86.892 74.833 87.823 74.159 88.412 73.626C88.689 73.374 88.992 73.166 89.083 73.164C89.175 73.162 89.549 72.899 89.915 72.58C90.281 72.261 90.669 72 90.778 72C90.887 72 91.123 71.813 91.304 71.583C91.484 71.354 91.703 71.167 91.791 71.167C91.879 71.167 92.154 70.979 92.401 70.75C92.648 70.521 92.911 70.333 92.984 70.333C93.057 70.333 93.353 70.108 93.642 69.832C93.931 69.556 94.167 69.383 94.167 69.447C94.167 69.511 94.309 69.417 94.484 69.24C94.658 69.062 95.052 68.729 95.359 68.501C95.666 68.272 96.116 67.878 96.359 67.626C96.602 67.373 96.881 67.167 96.98 67.167C97.078 67.167 97.282 66.979 97.432 66.75C97.582 66.521 97.782 66.333 97.875 66.333C97.969 66.333 98.208 66.165 98.408 65.958C98.607 65.752 99.216 65.172 99.76 64.67C100.305 64.167 100.731 63.696 100.707 63.623C100.683 63.55 100.776 63.447 100.914 63.395C101.052 63.342 101.122 63.229 101.07 63.145C101.018 63.061 101.042 63.012 101.123 63.038C101.298 63.092 102.333 62.15 102.333 61.937C102.333 61.855 102.505 61.63 102.716 61.436C102.926 61.242 103.392 60.708 103.752 60.25C104.111 59.792 104.483 59.362 104.578 59.294C104.672 59.227 104.69 59.171 104.617 59.169C104.543 59.168 104.712 58.923 104.991 58.625C105.27 58.327 105.499 57.995 105.499 57.887C105.5 57.779 105.601 57.59 105.724 57.467C106.064 57.126 106.91 55.767 106.869 55.625C106.849 55.556 106.921 55.5 107.028 55.5C107.135 55.5 107.173 55.45 107.112 55.39C107.051 55.329 107.193 55.029 107.426 54.723C107.659 54.417 107.807 54.167 107.753 54.167C107.7 54.167 107.886 53.754 108.167 53.25C108.447 52.746 108.635 52.333 108.584 52.333C108.533 52.333 108.608 52.108 108.75 51.833C109.11 51.138 110.166 47.723 110.243 47.007C110.278 46.682 110.431 45.854 110.583 45.167C110.735 44.479 110.87 43.448 110.882 42.875C110.895 42.302 110.956 41.833 111.017 41.833C111.079 41.833 111.141 37.478 111.156 32.154L111.183 22.474L110.633 21.99C110.331 21.723 110.019 21.504 109.941 21.503C109.862 21.501 109.571 21.309 109.292 21.074C108.995 20.824 108.678 20.69 108.523 20.75C108.379 20.805 108.312 20.8 108.374 20.737C108.504 20.607 107.877 20.077 107.104 19.664C106.818 19.511 106.171 19.168 105.667 18.902C105.162 18.635 104.712 18.374 104.667 18.321C104.547 18.184 103.939 17.942 103.792 17.974C103.723 17.988 103.667 17.933 103.667 17.85C103.667 17.768 103.292 17.565 102.833 17.4C102.375 17.236 102 17.028 102 16.939C102 16.85 101.955 16.822 101.901 16.877C101.846 16.931 101.481 16.797 101.089 16.578C100.697 16.359 100.329 16.227 100.271 16.284C100.214 16.342 100.167 16.297 100.167 16.185C100.167 16.072 100.092 16.027 100 16.083C99.908 16.14 99.833 16.107 99.833 16.01C99.833 15.913 99.718 15.833 99.578 15.833C99.437 15.833 98.964 15.652 98.525 15.429C97.291 14.804 97.322 14.682 97.372 19.928L97.417 24.583L99 25.371C99.871 25.804 100.73 26.273 100.909 26.413C101.088 26.552 101.322 26.667 101.428 26.667C101.535 26.667 101.809 26.814 102.039 26.995C102.268 27.175 102.503 27.275 102.561 27.217C102.637 27.141 102.738 34.398 102.705 37.5C102.668 41.025 101.989 46.403 101.286 48.75C101.093 49.392 100.927 49.992 100.916 50.083C100.855 50.592 100.41 51.833 100.289 51.833C100.211 51.833 100.193 51.908 100.25 52C100.307 52.092 100.274 52.167 100.177 52.167C100.079 52.167 100 52.26 99.999 52.375C99.999 52.762 98.175 56.167 97.969 56.167C97.894 56.167 97.833 56.247 97.833 56.344C97.833 56.496 97.512 56.977 96.75 57.966C96.658 58.085 96.397 58.366 96.168 58.591C95.94 58.816 95.801 59 95.858 59C95.916 59 95.638 59.329 95.242 59.732C94.845 60.135 94.553 60.497 94.593 60.537C94.633 60.578 94.479 60.711 94.25 60.833C94.021 60.956 93.833 61.115 93.833 61.186C93.833 61.356 90.413 64.833 90.246 64.833C90.175 64.833 89.847 65.112 89.517 65.452C89.187 65.792 89.022 66.005 89.151 65.926C89.311 65.828 89.347 65.843 89.266 65.974C89.201 66.08 89.056 66.167 88.944 66.167C88.832 66.167 88.527 66.41 88.266 66.708C88.004 67.006 87.755 67.223 87.712 67.189C87.668 67.156 87.133 67.577 86.521 68.124C85.91 68.672 84.661 69.717 83.746 70.447C82.832 71.177 81.98 71.9 81.855 72.054C81.729 72.208 81.525 72.333 81.402 72.333C81.279 72.333 81.098 72.483 81 72.667C80.902 72.85 80.73 73 80.618 73C80.505 73 80.32 73.15 80.205 73.333C80.091 73.517 79.92 73.667 79.825 73.667C79.633 73.667 77.615 75.298 77.528 75.523C77.497 75.602 77.366 75.667 77.236 75.667C77.106 75.667 77 75.742 77 75.833C77 75.925 76.901 76 76.78 76C76.659 76 76.407 76.169 76.219 76.375C76.032 76.581 75.636 76.938 75.339 77.167C75.042 77.396 74.699 77.677 74.578 77.792C74.456 77.906 74.296 78 74.22 78C74.145 78 73.783 78.26 73.417 78.578C72.505 79.368 72.542 79.339 71.417 80.166C70.867 80.571 70.23 81.074 70.002 81.284C69.773 81.495 69.498 81.667 69.391 81.667C69.283 81.667 69.169 81.727 69.139 81.801C69.108 81.876 68.633 82.269 68.083 82.675C67.533 83.082 67.023 83.509 66.95 83.624C66.877 83.739 66.721 83.833 66.604 83.833C66.487 83.833 66.215 84.021 66 84.25C65.785 84.479 65.526 84.667 65.425 84.667C65.324 84.667 65.117 84.798 64.965 84.958C64.582 85.364 64.201 85.667 64.072 85.667C63.938 85.667 62.271 87.035 62.194 87.208C62.164 87.277 62.044 87.333 61.927 87.333C61.811 87.333 61.52 87.514 61.282 87.735C60.891 88.097 60.828 88.11 60.633 87.869C60.455 87.65 60.456 87.626 60.636 87.735C60.784 87.824 60.886 87.752 60.947 87.517C60.998 87.324 61.137 87.167 61.256 87.167C61.376 87.167 61.811 86.829 62.224 86.417C62.636 86.004 63.053 85.667 63.15 85.667C63.246 85.667 63.449 85.479 63.599 85.25C63.749 85.021 63.957 84.832 64.061 84.83C64.226 84.826 65.012 84.164 66.715 82.595C66.971 82.36 67.252 82.167 67.34 82.167C67.428 82.167 67.5 82.052 67.5 81.913C67.5 81.773 67.669 81.592 67.875 81.511C68.333 81.331 68.847 80.741 68.695 80.571C68.633 80.502 68.682 80.504 68.803 80.573C68.939 80.652 69.192 80.536 69.469 80.268C69.934 79.82 70.194 79.59 71.656 78.333C72.137 77.921 72.761 77.377 73.045 77.125C73.328 76.873 73.616 76.667 73.685 76.667C73.754 76.667 73.853 76.533 73.905 76.369C73.957 76.206 74.22 75.942 74.49 75.782C74.76 75.623 75.28 75.213 75.647 74.871C76.014 74.53 76.706 73.912 77.185 73.5C77.665 73.087 78.213 72.591 78.404 72.396C78.594 72.202 79.076 71.77 79.474 71.438C79.872 71.105 80.143 70.833 80.077 70.833C80.01 70.833 80.15 70.68 80.389 70.492C80.96 70.043 82.334 68.667 82.211 68.667C82.159 68.667 82.39 68.401 82.724 68.075C83.059 67.75 83.333 67.455 83.333 67.419C83.333 67.384 83.652 67.004 84.042 66.576C84.431 66.148 84.75 65.745 84.75 65.68C84.75 65.615 84.938 65.378 85.167 65.154C85.396 64.931 85.658 64.629 85.75 64.484C85.942 64.18 86.681 63.137 87.446 62.089C87.737 61.69 87.93 61.319 87.876 61.265C87.822 61.211 87.848 61.167 87.934 61.167C88.02 61.167 88.276 60.81 88.503 60.375C88.731 59.94 89.048 59.404 89.208 59.186C89.369 58.967 89.5 58.648 89.5 58.478C89.5 58.307 89.565 58.167 89.644 58.167C89.858 58.167 90.759 56.271 90.693 55.958C90.679 55.89 90.746 55.833 90.843 55.833C90.94 55.833 90.977 55.765 90.925 55.681C90.874 55.597 90.907 55.503 91.001 55.472C91.094 55.441 91.2 55.262 91.236 55.074C91.272 54.886 91.432 54.436 91.592 54.074C91.752 53.713 91.901 53.328 91.925 53.22C91.948 53.111 92.16 52.436 92.396 51.72C93.017 49.833 93.67 47.306 93.575 47.153C93.53 47.081 93.575 46.661 93.675 46.219C94.054 44.541 94.322 41.655 94.22 40.337C94.147 39.382 94.172 39 94.309 39C94.451 39 94.5 34.953 94.5 23.083C94.5 9.20995 94.469 7.16695 94.256 7.16695C94.121 7.16695 93.765 7.06295 93.464 6.93695C92.245 6.42495 90.192 5.68396 89.25 5.41596C88.7 5.25996 88.138 5.09096 88 5.04096C87.862 4.99096 87.6 4.92196 87.417 4.88696C87.233 4.85296 86.689 4.67696 86.208 4.49796C85.726 4.31796 85.295 4.16996 85.249 4.16896C85.204 4.16796 85.148 4.15896 85.125 4.14896C85.102 4.13896 84.896 4.11796 84.667 4.10196C84.438 4.08596 83.756 3.90396 83.152 3.69796C82.549 3.49296 81.836 3.29496 81.569 3.25796C81.302 3.22096 80.596 3.06096 80 2.90096C79.404 2.74096 78.729 2.59596 78.5 2.57996C78.271 2.56296 77.971 2.50896 77.833 2.45896C77.419 2.30796 74.969 1.81696 74.167 1.72396C73.754 1.67596 72.442 1.46296 71.25 1.24996C70.058 1.03796 68.783 0.860955 68.417 0.857955C68.05 0.854955 66.737 0.735955 65.5 0.593955C64.262 0.450955 61.9 0.259955 60.25 0.169955C57.381 0.0139551 56.459 0.00695508 53.083 0.117955ZM63 11.724C63.957 11.782 65.793 12.162 66.5 12.449C66.637 12.504 66.864 12.573 67.003 12.601C67.347 12.671 69.646 13.777 70.183 14.131C71.316 14.877 71.641 15.142 72.417 15.95C73.536 17.116 73.833 17.475 73.833 17.66C73.833 17.746 73.939 17.877 74.068 17.95C74.197 18.023 74.561 18.588 74.877 19.205C75.192 19.822 75.487 20.291 75.531 20.247C75.575 20.203 75.615 20.26 75.62 20.375C75.637 20.769 75.835 21.65 76.012 22.116C76.565 23.57 76.635 54.238 76.089 55.75C76.023 55.933 75.883 56.308 75.778 56.583C75.673 56.858 75.577 57.14 75.564 57.208C75.552 57.277 75.523 57.371 75.5 57.417C75.477 57.462 75.447 57.556 75.433 57.625C75.366 57.962 74.444 59.664 74.168 59.96C73.995 60.146 73.892 60.337 73.94 60.384C73.987 60.432 73.345 61.161 72.513 62.005C71.681 62.849 71 63.49 71 63.43C71 63.329 70.827 63.45 70.278 63.936C70.162 64.039 69.89 64.179 69.672 64.248C69.454 64.318 69.127 64.512 68.946 64.681C68.765 64.85 68.553 64.949 68.475 64.901C68.397 64.853 68.333 64.893 68.333 64.99C68.333 65.087 68.165 65.169 67.958 65.172C67.752 65.175 67.438 65.287 67.26 65.422C67.082 65.557 66.796 65.667 66.625 65.667C66.432 65.667 66.359 65.74 66.433 65.859C66.5 65.969 66.479 66.007 66.383 65.947C66.29 65.89 65.726 65.983 65.129 66.154C64.533 66.324 63.491 66.512 62.814 66.57C62.137 66.629 61.331 66.722 61.024 66.777C60.716 66.832 60.116 66.894 59.69 66.914C58.321 66.979 35.945 67.001 35.882 66.937C35.816 66.872 37.566 64.96 38.9 63.641C39.349 63.197 39.651 62.833 39.571 62.833C39.491 62.833 39.593 62.717 39.796 62.574L40.167 62.314V39.243V16.171L39.5 15.544C39.134 15.199 38.834 14.855 38.834 14.78C38.833 14.624 37.674 13.5 37.513 13.5C37.454 13.5 37.279 13.286 37.125 13.025C36.97 12.764 36.598 12.308 36.297 12.011L35.75 11.473L48.833 11.566C56.029 11.617 62.404 11.688 63 11.724ZM52.667 39.02V57.207L56.292 57.132C60.122 57.053 60.649 56.956 61.458 56.18C61.665 55.982 61.833 55.872 61.833 55.936C61.833 56.264 62.582 55.303 63.012 54.423L63.504 53.417L63.497 38.655C63.489 22.044 63.636 23.787 62.118 22.302C61.668 21.861 61.239 21.539 61.164 21.585C61.09 21.631 61.003 21.612 60.973 21.543C60.757 21.056 59.171 20.832 55.958 20.833H52.667V39.02ZM310.648 26.902C310.613 26.935 308.333 27.006 305.583 27.06C301.886 27.133 300.041 27.242 298.501 27.48C297.355 27.657 296.379 27.778 296.331 27.749C296.283 27.719 295.57 27.84 294.747 28.018C293.924 28.196 293.137 28.365 293 28.395C292.779 28.442 292.745 31.609 292.708 55.474L292.666 82.5H299.083H305.5V60.604V38.708L306.042 38.584C306.93 38.38 311.391 38.345 311.629 38.54C311.746 38.636 311.886 38.669 311.941 38.614C312.216 38.34 314.5 39.964 314.5 40.434C314.5 40.562 314.575 40.667 314.667 40.667C314.758 40.667 314.82 40.723 314.803 40.792C314.786 40.86 314.861 41.217 314.969 41.583C315.114 42.078 315.165 47.438 315.166 62.375L315.167 82.5H320.837H326.507L326.496 61.05L326.485 39.6L327.784 39.203C331.364 38.109 335.125 38.955 335.604 40.962C335.664 41.212 335.757 41.492 335.812 41.583C335.867 41.675 335.922 41.806 335.935 41.875C335.948 41.944 335.968 51.112 335.979 62.25L336 82.5H342.505H349.009L348.957 60.375C348.909 40.287 348.878 38.158 348.625 37.25C348.471 36.7 348.34 36.063 348.334 35.833C348.327 35.604 348.177 35.117 348 34.75C347.823 34.383 347.675 34.012 347.672 33.926C347.665 33.733 346.799 32.438 346.625 32.361C346.556 32.331 346.5 32.23 346.5 32.138C346.5 31.999 345.638 31.132 344.374 30C343.923 29.596 342.594 28.764 342.458 28.8C342.39 28.818 342.333 28.764 342.333 28.68C342.333 28.596 342.109 28.477 341.835 28.417C341.561 28.357 341.294 28.238 341.242 28.154C341.19 28.069 340.979 28 340.773 28C340.568 28 340.329 27.939 340.242 27.864C340.072 27.718 338.788 27.383 337.833 27.236C336.616 27.049 335.049 27.011 329.417 27.032C328.652 27.035 326.653 27.335 326 27.544C325.679 27.647 325.249 27.711 325.044 27.687C324.84 27.663 324.579 27.701 324.464 27.772C324.35 27.843 324.142 27.915 324.003 27.933C323.597 27.985 320.765 29.019 320.599 29.176C320.513 29.257 320.26 29.186 320.016 29.013C319.492 28.644 317.89 27.944 317.566 27.944C317.438 27.944 317.333 27.898 317.333 27.841C317.333 27.785 317.202 27.73 317.042 27.72C316.881 27.711 316.188 27.577 315.5 27.424C314.813 27.27 313.513 27.113 312.612 27.074C311.711 27.035 310.915 26.967 310.844 26.923C310.772 26.879 310.684 26.869 310.648 26.902ZM124.72 28.001C124.749 28.192 124.967 28.571 125.205 28.841C125.442 29.112 125.603 29.333 125.562 29.333C125.52 29.333 125.677 29.539 125.91 29.79C126.143 30.041 126.333 30.307 126.333 30.381C126.333 30.454 126.517 30.712 126.741 30.954C126.965 31.196 127.111 31.455 127.065 31.53C127.018 31.605 127.05 31.667 127.135 31.667C127.22 31.667 127.487 31.965 127.728 32.33L128.167 32.993L128.166 55.288L128.165 77.583L127.624 78.161C127.327 78.478 127.083 78.78 127.083 78.831C127.083 78.882 126.906 79.11 126.689 79.337C126.472 79.564 126.189 79.994 126.062 80.292C125.934 80.59 125.742 80.833 125.637 80.833C125.531 80.833 125.49 80.879 125.546 80.935C125.602 80.991 125.427 81.223 125.157 81.45C123.863 82.539 123.48 82.501 135.458 82.494C147.674 82.486 150.883 82.364 152.485 81.844C153.073 81.653 153.748 81.462 153.985 81.419C154.374 81.349 155.516 80.861 156.167 80.487C156.304 80.408 156.85 80.104 157.381 79.812C158.646 79.115 160.59 77.464 160.56 77.111C160.547 76.958 160.614 76.833 160.707 76.833C160.899 76.833 161.666 75.991 161.666 75.781C161.667 75.706 161.847 75.406 162.067 75.114C162.562 74.458 163.329 72.649 163.423 71.918C163.461 71.619 163.588 71.159 163.705 70.895C164.404 69.315 164.006 37.833 163.286 37.833C163.21 37.833 163.191 37.762 163.245 37.675C163.38 37.456 162.212 34.833 161.979 34.833C161.917 34.833 161.702 34.515 161.5 34.125C161.105 33.363 158.917 31.167 158.554 31.167C158.432 31.167 158.331 31.11 158.328 31.042C158.322 30.887 157.548 30.313 157.28 30.265C157.172 30.246 156.821 30.064 156.5 29.861C156.179 29.659 155.729 29.447 155.5 29.39C155.271 29.334 155.008 29.232 154.917 29.165C154.712 29.016 153.509 28.603 153.167 28.565C153.029 28.549 152.156 28.379 151.226 28.185C149.153 27.755 150.92 27.811 136.708 27.725L124.667 27.652L124.72 28.001ZM170.611 27.778C170.55 27.839 170.5 40.176 170.5 55.194V82.5H176.917H183.333V72.985V63.47L187.375 63.547C189.598 63.59 191.567 63.666 191.75 63.716C191.933 63.767 192.121 63.814 192.167 63.821C192.405 63.858 193.152 64.652 193.398 65.128C193.65 65.617 193.677 66.518 193.67 74.086L193.661 82.5H200.252H206.842L206.787 73.875C206.756 69.131 206.688 65.063 206.635 64.833C206.581 64.604 206.455 64.066 206.355 63.638C206.153 62.785 205.56 61.667 205.307 61.667C205.219 61.667 205.2 61.58 205.266 61.475C205.331 61.369 205.273 61.2 205.136 61.1C204.999 60.999 204.798 60.749 204.689 60.543C204.58 60.338 204.436 60.187 204.37 60.207C204.304 60.227 203.785 59.926 203.216 59.537C202.647 59.149 201.804 58.744 201.343 58.637L200.505 58.444L201.377 57.861C201.857 57.541 202.31 57.179 202.383 57.056C202.457 56.934 202.598 56.833 202.698 56.833C202.9 56.833 203.667 56.056 203.667 55.851C203.667 55.778 203.817 55.583 204 55.417C204.183 55.251 204.333 55.02 204.333 54.905C204.333 54.789 204.415 54.667 204.514 54.634C204.68 54.579 205.178 53.357 205.451 52.333C205.8 51.031 205.651 36.611 205.273 35C205.11 34.307 204.305 32.5 204.159 32.5C204.084 32.5 203.98 32.367 203.928 32.204C203.817 31.853 202.241 30.167 202.024 30.167C201.942 30.167 201.777 30.05 201.658 29.906C201.402 29.598 199.463 28.667 198.848 28.558C198.611 28.516 198.042 28.377 197.583 28.248C197.125 28.12 196.022 27.936 195.132 27.841C193.356 27.65 170.797 27.592 170.611 27.778ZM223.541 27.851C222.876 27.928 221.864 28.114 221.291 28.264C220.719 28.414 220.175 28.554 220.083 28.576C219.992 28.598 219.71 28.702 219.458 28.808C218.691 29.13 218.088 29.357 218 29.357C217.954 29.357 217.857 29.464 217.783 29.595C217.71 29.726 217.549 29.833 217.426 29.833C217.303 29.833 216.972 30.048 216.69 30.311C216.409 30.574 216.149 30.76 216.112 30.724C216.076 30.687 215.831 30.941 215.568 31.287C215.305 31.633 214.936 32.067 214.748 32.25C214.436 32.555 214.096 33.169 214.011 33.583C213.992 33.675 213.862 33.877 213.722 34.031C213.582 34.186 213.517 34.392 213.577 34.489C213.637 34.587 213.61 34.667 213.517 34.667C213.3 34.667 212.735 36.515 212.649 37.5C212.537 38.794 212.578 72.034 212.693 73.045C212.81 74.079 213.597 76.477 213.909 76.75C214.013 76.842 214.193 77.148 214.308 77.431C214.537 77.992 216.157 79.777 216.375 79.707C216.449 79.683 216.553 79.777 216.606 79.915C216.659 80.053 216.77 80.167 216.854 80.167C216.937 80.167 217.403 80.431 217.889 80.754C218.376 81.077 218.943 81.374 219.15 81.413C219.357 81.453 219.952 81.646 220.472 81.841C221.877 82.369 224.337 82.489 233.877 82.495L242.338 82.5L242.294 77.292L242.25 72.083L234.458 72.05C230.172 72.031 226.571 71.956 226.455 71.883C226.339 71.81 226.039 71.5 225.789 71.196L225.333 70.641V65.404V60.167H232.829H240.324L240.37 55.042L240.417 49.917L232.875 49.956L225.333 49.995V44.864V39.733L225.784 39.038C226.46 37.996 226.422 38 234.775 38H242.333V32.833V27.667L233.542 27.688C228.706 27.7 224.206 27.773 223.541 27.851ZM248.611 27.778C248.55 27.839 248.5 40.176 248.5 55.194V82.5H255H261.5V73V63.5H266.915H272.331L272.374 72.958L272.417 82.417L279.047 82.46L285.678 82.504L285.623 61.544C285.573 42.221 285.546 40.499 285.278 39.505C285.118 38.911 284.967 38.295 284.942 38.134C284.918 37.973 284.846 37.79 284.782 37.727C284.719 37.663 284.664 37.492 284.661 37.347C284.658 37.202 284.51 36.783 284.333 36.417C284.156 36.05 284.009 35.656 284.006 35.542C284.003 35.427 283.925 35.333 283.833 35.333C283.742 35.333 283.682 35.277 283.7 35.208C283.769 34.954 282.632 33.335 282.46 33.442C282.358 33.505 282.33 33.473 282.395 33.368C282.517 33.171 280.839 31.333 280.539 31.333C280.441 31.333 280.336 31.277 280.306 31.208C280.155 30.87 278.59 29.91 278.292 29.974C278.223 29.988 278.167 29.932 278.167 29.848C278.167 29.672 275.636 28.668 274.969 28.578C274.722 28.545 274.209 28.434 273.827 28.332C273.445 28.229 273.091 28.187 273.04 28.238C272.989 28.289 272.865 28.262 272.764 28.179C272.244 27.746 249.028 27.361 248.611 27.778ZM360.582 28.631C360.416 29.155 360.139 30.011 359.966 30.534C359.792 31.056 359.622 31.619 359.587 31.784C359.552 31.949 359.216 33.021 358.84 34.166C358.464 35.312 358.119 36.464 358.073 36.727C358.026 36.99 357.879 37.418 357.744 37.677C357.61 37.937 357.469 38.322 357.429 38.533C357.39 38.744 357.347 38.917 357.333 38.917C357.319 38.917 357.283 39.048 357.252 39.208C357.201 39.477 357.42 39.5 360.015 39.5H362.833V61V82.5H369.333H375.833V55.08V27.66L368.358 27.67L360.883 27.68L360.582 28.631ZM385.096 27.875C384.936 28.435 384.456 29.789 384.31 30.093C384.219 30.281 384.164 30.506 384.187 30.593C384.21 30.679 384.117 31.012 383.981 31.333C383.845 31.654 383.633 32.254 383.511 32.667C383.389 33.079 383.15 33.811 382.98 34.292C382.81 34.774 382.675 35.187 382.679 35.209C382.695 35.284 382.557 35.74 382.264 36.583C381.997 37.352 381.868 37.81 381.571 39.042L381.461 39.5H384.314H387.167V61V82.5H393.583H400V55.083V27.667H392.578C386.784 27.667 385.143 27.712 385.096 27.875ZM190.917 37.583C191.512 37.952 191.848 38.324 192.196 38.998L192.668 39.912L192.626 45.331L192.583 50.75L192.1 51.628C191.834 52.11 191.581 52.47 191.538 52.427C191.495 52.384 191.354 52.455 191.225 52.585C190.742 53.068 189.708 53.223 186.542 53.291L183.333 53.359V45.162V36.966L186.722 37.025L190.11 37.083L190.917 37.583ZM270.049 37.538C270.529 37.806 270.838 37.9 270.846 37.78C270.854 37.672 270.902 37.696 270.954 37.833C271.006 37.971 271.251 38.346 271.498 38.667C272.309 39.718 272.333 39.957 272.333 46.858V53.333H266.917H261.5V45.146V36.958L265.383 37.029C269.203 37.099 269.278 37.107 270.049 37.538ZM146.511 37.668C147.009 37.76 147.593 37.87 147.809 37.912C148.024 37.953 148.306 38.074 148.434 38.181C148.562 38.287 148.667 38.313 148.667 38.239C148.667 38.164 148.777 38.249 148.911 38.426C149.046 38.604 149.158 38.694 149.161 38.625C149.17 38.412 149.778 39.097 150.402 40.024L150.998 40.909L150.957 55.079C150.919 68.596 150.902 69.271 150.606 69.708C150.435 69.96 150.342 70.167 150.399 70.167C150.562 70.167 149.651 71.041 148.941 71.567C148.005 72.261 147.406 72.371 144.125 72.453L141.167 72.528V55.014V37.5H143.386C144.607 37.5 146.013 37.576 146.511 37.668Z" fill="#EC1C24"/>
<path fillRule="evenodd" clip-rule="evenodd" d="M9.31195 16.944C9.10295 17.198 9.11895 17.203 9.49995 17.005C10.059 16.714 10.101 16.667 9.79795 16.667C9.65695 16.667 9.43795 16.791 9.31195 16.944ZM75.446 20.292C75.363 20.433 75.61 21.167 75.741 21.167C75.787 21.167 75.757 20.987 75.673 20.767C75.59 20.547 75.566 20.322 75.622 20.267C75.677 20.212 75.677 20.167 75.621 20.167C75.565 20.167 75.487 20.223 75.446 20.292ZM303.258 26.978C302.784 27.08 309.233 27.043 310.25 26.938C310.525 26.91 309.175 26.884 307.25 26.88C305.325 26.876 303.529 26.92 303.258 26.978ZM310.847 26.894C310.885 26.928 311.329 26.998 311.833 27.05C312.425 27.111 312.602 27.095 312.333 27.006C311.92 26.868 310.714 26.777 310.847 26.894ZM329.417 27.001C329.202 27.094 329.381 27.111 329.917 27.049C330.375 26.996 330.781 26.926 330.819 26.893C330.964 26.769 329.735 26.863 329.417 27.001ZM331.417 26.938C332.5 27.05 336.472 27.077 336.203 26.97C336.046 26.908 334.792 26.863 333.417 26.872C332.042 26.88 331.142 26.91 331.417 26.938ZM0.0709519 32.583C0.0709519 34.508 0.0949519 35.273 0.123952 34.283C0.153952 33.292 0.153952 31.717 0.123952 30.783C0.0949519 29.848 0.0699519 30.658 0.0709519 32.583ZM94.218 39.917C94.219 40.467 94.25 40.672 94.287 40.372C94.325 40.072 94.324 39.622 94.286 39.372C94.248 39.122 94.217 39.367 94.218 39.917ZM111.042 40.25C111.044 40.617 111.078 40.747 111.118 40.54C111.158 40.332 111.156 40.032 111.115 39.873C111.073 39.714 111.04 39.883 111.042 40.25ZM225.542 49.948C225.702 49.99 225.965 49.99 226.125 49.948C226.285 49.906 226.154 49.872 225.833 49.872C225.512 49.872 225.381 49.906 225.542 49.948ZM227.213 49.956C227.652 49.99 228.327 49.99 228.713 49.955C229.1 49.92 228.742 49.892 227.917 49.892C227.092 49.893 226.775 49.922 227.213 49.956ZM230.458 49.957C231.031 49.989 231.969 49.989 232.542 49.957C233.115 49.924 232.646 49.898 231.5 49.898C230.354 49.898 229.885 49.924 230.458 49.957ZM234.625 49.957C235.198 49.989 236.135 49.989 236.708 49.957C237.281 49.924 236.813 49.898 235.667 49.898C234.521 49.898 234.052 49.924 234.625 49.957ZM238.127 49.951C238.334 49.991 238.634 49.99 238.794 49.948C238.953 49.906 238.783 49.874 238.417 49.875C238.05 49.877 237.92 49.911 238.127 49.951ZM240.039 49.938C240.304 50.016 240.333 50.447 240.376 55.053L240.424 60.083L240.42 55.002C240.417 50.045 240.409 49.92 240.083 49.887C239.829 49.861 239.818 49.873 240.039 49.938ZM203.167 59.508C203.745 59.901 204.074 60.015 203.667 59.682C203.438 59.494 203.175 59.34 203.083 59.34C202.992 59.339 203.029 59.415 203.167 59.508Z" fill="#F01C24"/>
<path fillRule="evenodd" clip-rule="evenodd" d="M9.31195 16.944C9.10295 17.198 9.11895 17.203 9.49995 17.005C10.059 16.714 10.101 16.667 9.79795 16.667C9.65695 16.667 9.43795 16.791 9.31195 16.944ZM75.446 20.292C75.363 20.433 75.61 21.167 75.741 21.167C75.787 21.167 75.757 20.987 75.673 20.767C75.59 20.547 75.566 20.322 75.622 20.267C75.677 20.212 75.677 20.167 75.621 20.167C75.565 20.167 75.487 20.223 75.446 20.292ZM303.258 26.978C302.784 27.08 309.233 27.043 310.25 26.938C310.525 26.91 309.175 26.884 307.25 26.88C305.325 26.876 303.529 26.92 303.258 26.978ZM310.847 26.894C310.885 26.928 311.329 26.998 311.833 27.05C312.425 27.111 312.602 27.095 312.333 27.006C311.92 26.868 310.714 26.777 310.847 26.894ZM329.417 27.001C329.202 27.094 329.381 27.111 329.917 27.049C330.375 26.996 330.781 26.926 330.819 26.893C330.964 26.769 329.735 26.863 329.417 27.001ZM331.417 26.938C332.5 27.05 336.472 27.077 336.203 26.97C336.046 26.908 334.792 26.863 333.417 26.872C332.042 26.88 331.142 26.91 331.417 26.938ZM0.0709519 32.583C0.0709519 34.508 0.0949519 35.273 0.123952 34.283C0.153952 33.292 0.153952 31.717 0.123952 30.783C0.0949519 29.848 0.0699519 30.658 0.0709519 32.583ZM94.218 39.917C94.219 40.467 94.25 40.672 94.287 40.372C94.325 40.072 94.324 39.622 94.286 39.372C94.248 39.122 94.217 39.367 94.218 39.917ZM111.042 40.25C111.044 40.617 111.078 40.747 111.118 40.54C111.158 40.332 111.156 40.032 111.115 39.873C111.073 39.714 111.04 39.883 111.042 40.25ZM225.542 49.948C225.702 49.99 225.965 49.99 226.125 49.948C226.285 49.906 226.154 49.872 225.833 49.872C225.512 49.872 225.381 49.906 225.542 49.948ZM227.213 49.956C227.652 49.99 228.327 49.99 228.713 49.955C229.1 49.92 228.742 49.892 227.917 49.892C227.092 49.893 226.775 49.922 227.213 49.956ZM230.458 49.957C231.031 49.989 231.969 49.989 232.542 49.957C233.115 49.924 232.646 49.898 231.5 49.898C230.354 49.898 229.885 49.924 230.458 49.957ZM234.625 49.957C235.198 49.989 236.135 49.989 236.708 49.957C237.281 49.924 236.813 49.898 235.667 49.898C234.521 49.898 234.052 49.924 234.625 49.957ZM238.127 49.951C238.334 49.991 238.634 49.99 238.794 49.948C238.953 49.906 238.783 49.874 238.417 49.875C238.05 49.877 237.92 49.911 238.127 49.951ZM240.039 49.938C240.304 50.016 240.333 50.447 240.376 55.053L240.424 60.083L240.42 55.002C240.417 50.045 240.409 49.92 240.083 49.887C239.829 49.861 239.818 49.873 240.039 49.938ZM203.167 59.508C203.745 59.901 204.074 60.015 203.667 59.682C203.438 59.494 203.175 59.34 203.083 59.34C202.992 59.339 203.029 59.415 203.167 59.508Z" fill="#F01C24"/>
<path fillRule="evenodd" clip-rule="evenodd" d="M9.31195 16.944C9.10295 17.198 9.11895 17.203 9.49995 17.005C10.059 16.714 10.101 16.667 9.79795 16.667C9.65695 16.667 9.43795 16.791 9.31195 16.944ZM75.446 20.292C75.363 20.433 75.61 21.167 75.741 21.167C75.787 21.167 75.757 20.987 75.673 20.767C75.59 20.547 75.566 20.322 75.622 20.267C75.677 20.212 75.677 20.167 75.621 20.167C75.565 20.167 75.487 20.223 75.446 20.292ZM303.258 26.978C302.784 27.08 309.233 27.043 310.25 26.938C310.525 26.91 309.175 26.884 307.25 26.88C305.325 26.876 303.529 26.92 303.258 26.978ZM310.847 26.894C310.885 26.928 311.329 26.998 311.833 27.05C312.425 27.111 312.602 27.095 312.333 27.006C311.92 26.868 310.714 26.777 310.847 26.894ZM329.417 27.001C329.202 27.094 329.381 27.111 329.917 27.049C330.375 26.996 330.781 26.926 330.819 26.893C330.964 26.769 329.735 26.863 329.417 27.001ZM331.417 26.938C332.5 27.05 336.472 27.077 336.203 26.97C336.046 26.908 334.792 26.863 333.417 26.872C332.042 26.88 331.142 26.91 331.417 26.938ZM0.0709519 32.583C0.0709519 34.508 0.0949519 35.273 0.123952 34.283C0.153952 33.292 0.153952 31.717 0.123952 30.783C0.0949519 29.848 0.0699519 30.658 0.0709519 32.583ZM94.218 39.917C94.219 40.467 94.25 40.672 94.287 40.372C94.325 40.072 94.324 39.622 94.286 39.372C94.248 39.122 94.217 39.367 94.218 39.917ZM111.042 40.25C111.044 40.617 111.078 40.747 111.118 40.54C111.158 40.332 111.156 40.032 111.115 39.873C111.073 39.714 111.04 39.883 111.042 40.25ZM225.542 49.948C225.702 49.99 225.965 49.99 226.125 49.948C226.285 49.906 226.154 49.872 225.833 49.872C225.512 49.872 225.381 49.906 225.542 49.948ZM227.213 49.956C227.652 49.99 228.327 49.99 228.713 49.955C229.1 49.92 228.742 49.892 227.917 49.892C227.092 49.893 226.775 49.922 227.213 49.956ZM230.458 49.957C231.031 49.989 231.969 49.989 232.542 49.957C233.115 49.924 232.646 49.898 231.5 49.898C230.354 49.898 229.885 49.924 230.458 49.957ZM234.625 49.957C235.198 49.989 236.135 49.989 236.708 49.957C237.281 49.924 236.813 49.898 235.667 49.898C234.521 49.898 234.052 49.924 234.625 49.957ZM238.127 49.951C238.334 49.991 238.634 49.99 238.794 49.948C238.953 49.906 238.783 49.874 238.417 49.875C238.05 49.877 237.92 49.911 238.127 49.951ZM240.039 49.938C240.304 50.016 240.333 50.447 240.376 55.053L240.424 60.083L240.42 55.002C240.417 50.045 240.409 49.92 240.083 49.887C239.829 49.861 239.818 49.873 240.039 49.938ZM203.167 59.508C203.745 59.901 204.074 60.015 203.667 59.682C203.438 59.494 203.175 59.34 203.083 59.34C202.992 59.339 203.029 59.415 203.167 59.508Z" fill="#F01C24"/>
<path fillRule="evenodd" clip-rule="evenodd" d="M9.31195 16.944C9.10295 17.198 9.11895 17.203 9.49995 17.005C10.059 16.714 10.101 16.667 9.79795 16.667C9.65695 16.667 9.43795 16.791 9.31195 16.944ZM75.446 20.292C75.363 20.433 75.61 21.167 75.741 21.167C75.787 21.167 75.757 20.987 75.673 20.767C75.59 20.547 75.566 20.322 75.622 20.267C75.677 20.212 75.677 20.167 75.621 20.167C75.565 20.167 75.487 20.223 75.446 20.292ZM303.258 26.978C302.784 27.08 309.233 27.043 310.25 26.938C310.525 26.91 309.175 26.884 307.25 26.88C305.325 26.876 303.529 26.92 303.258 26.978ZM310.847 26.894C310.885 26.928 311.329 26.998 311.833 27.05C312.425 27.111 312.602 27.095 312.333 27.006C311.92 26.868 310.714 26.777 310.847 26.894ZM329.417 27.001C329.202 27.094 329.381 27.111 329.917 27.049C330.375 26.996 330.781 26.926 330.819 26.893C330.964 26.769 329.735 26.863 329.417 27.001ZM331.417 26.938C332.5 27.05 336.472 27.077 336.203 26.97C336.046 26.908 334.792 26.863 333.417 26.872C332.042 26.88 331.142 26.91 331.417 26.938ZM0.0709519 32.583C0.0709519 34.508 0.0949519 35.273 0.123952 34.283C0.153952 33.292 0.153952 31.717 0.123952 30.783C0.0949519 29.848 0.0699519 30.658 0.0709519 32.583ZM94.218 39.917C94.219 40.467 94.25 40.672 94.287 40.372C94.325 40.072 94.324 39.622 94.286 39.372C94.248 39.122 94.217 39.367 94.218 39.917ZM111.042 40.25C111.044 40.617 111.078 40.747 111.118 40.54C111.158 40.332 111.156 40.032 111.115 39.873C111.073 39.714 111.04 39.883 111.042 40.25ZM225.542 49.948C225.702 49.99 225.965 49.99 226.125 49.948C226.285 49.906 226.154 49.872 225.833 49.872C225.512 49.872 225.381 49.906 225.542 49.948ZM227.213 49.956C227.652 49.99 228.327 49.99 228.713 49.955C229.1 49.92 228.742 49.892 227.917 49.892C227.092 49.893 226.775 49.922 227.213 49.956ZM230.458 49.957C231.031 49.989 231.969 49.989 232.542 49.957C233.115 49.924 232.646 49.898 231.5 49.898C230.354 49.898 229.885 49.924 230.458 49.957ZM234.625 49.957C235.198 49.989 236.135 49.989 236.708 49.957C237.281 49.924 236.813 49.898 235.667 49.898C234.521 49.898 234.052 49.924 234.625 49.957ZM238.127 49.951C238.334 49.991 238.634 49.99 238.794 49.948C238.953 49.906 238.783 49.874 238.417 49.875C238.05 49.877 237.92 49.911 238.127 49.951ZM240.039 49.938C240.304 50.016 240.333 50.447 240.376 55.053L240.424 60.083L240.42 55.002C240.417 50.045 240.409 49.92 240.083 49.887C239.829 49.861 239.818 49.873 240.039 49.938ZM203.167 59.508C203.745 59.901 204.074 60.015 203.667 59.682C203.438 59.494 203.175 59.34 203.083 59.34C202.992 59.339 203.029 59.415 203.167 59.508Z" fill="#F01C24"/>
</g>
<defs>
<clipPath id="clip0_966_16077">
<rect width="400" height="109.229" fill="white"/>
</clipPath>
</defs>
</svg>
