<svg width="91" height="24" viewBox="0 0 91 24" fill="none" xmlns="http://www.w3.org/2000/svg">
<g clip-path="url(#clip0_163_6292)">
<path d="M89.7775 4.14937C89.4594 3.79152 89.0355 3.61237 88.4616 3.61237C87.8878 3.61237 87.4507 3.80336 87.144 4.19665C86.84 4.57693 86.6814 5.14766 86.6814 5.89799V11.3257C85.9753 10.5635 85.2429 10.016 84.5009 9.64669C84.0357 9.4216 83.489 9.25555 82.8793 9.17105C82.5245 9.12368 82.1601 9.09919 81.7588 9.09919C79.8928 9.09919 78.3833 9.74223 77.2242 11.0274C76.0784 12.3135 75.5063 14.0989 75.5063 16.3946C75.5063 17.4792 75.6526 18.4902 75.9434 19.4193C76.237 20.3475 76.6487 21.1561 77.212 21.8473C77.7727 22.5377 78.442 23.0598 79.2103 23.4427C79.9778 23.8106 80.8065 23.9998 81.7089 23.9998C82.1242 23.9998 82.5123 23.9657 82.8793 23.8947C83.1228 23.857 83.3542 23.7983 83.5863 23.7265C84.1583 23.5372 84.6945 23.2639 85.1825 22.9188C85.6819 22.5605 86.183 22.097 86.6814 21.5372V21.8946C86.6814 22.5735 86.8523 23.0843 87.1808 23.4532C87.5224 23.8106 87.9491 23.9998 88.4616 23.9998C88.9855 23.9998 89.4122 23.8229 89.7407 23.4777C90.0692 23.1203 90.2405 22.5972 90.2405 21.8946V5.7079C90.2405 5.02897 90.0815 4.50507 89.7775 4.14937ZM85.9867 19.1218C85.6565 19.8122 85.2193 20.3238 84.684 20.6567C84.1347 20.9906 83.5364 21.1561 82.8793 21.1561H82.8679C82.2091 21.1561 81.6117 20.9783 81.0624 20.6331C80.5148 20.2766 80.075 19.7518 79.7587 19.0619C79.4425 18.3592 79.2839 17.5147 79.2839 16.5147C79.2839 15.5746 79.4294 14.7415 79.7342 14.0393C80.0276 13.3253 80.4535 12.7769 80.9905 12.3963C81.5389 12.0029 82.1487 11.8251 82.8434 11.8251H82.8793C83.525 11.8251 84.1215 12.0156 84.6708 12.384C85.2193 12.7528 85.6565 13.2899 85.9867 13.9916C86.3161 14.6937 86.4738 15.5387 86.4738 16.5147C86.4738 17.5616 86.3161 18.4315 85.9867 19.1218Z" fill="#003A9B"/>
<path d="M74.3464 19.2765C74.1169 19.0741 73.7989 18.9668 73.4081 18.9668C73.0551 18.9668 72.7871 19.05 72.5917 19.2046C72.1169 19.6335 71.7393 19.9769 71.4457 20.2283C71.154 20.4666 70.8247 20.7049 70.4707 20.9301C70.1308 21.1439 69.7646 21.3121 69.401 21.4075C69.0217 21.5135 68.6187 21.5609 68.1684 21.5609C68.0702 21.5609 67.9722 21.5609 67.888 21.5485C67.3274 21.5135 66.8034 21.3576 66.3286 21.072C65.7662 20.7505 65.3282 20.2766 64.9865 19.6571C64.6571 19.0141 64.488 18.2769 64.4758 17.4442H71.8242C72.8107 17.4442 73.5781 17.3001 74.1169 17.0377C74.6644 16.7525 74.9326 16.1576 74.9326 15.2413C74.9326 14.2413 74.6644 13.2649 74.1405 12.3021C73.6158 11.3489 72.8361 10.5635 71.7761 9.95681C70.7256 9.35065 69.4711 9.05227 67.9976 9.05227H67.888C66.8034 9.06366 65.803 9.24326 64.9138 9.57618C63.9878 9.93322 63.2072 10.4448 62.5606 11.0993C61.9404 11.7655 61.4525 12.5631 61.1239 13.4914C60.7954 14.4208 60.6237 15.4319 60.6237 16.5142C60.6237 18.8244 61.2947 20.6331 62.6352 21.9778C63.9011 23.2517 65.6576 23.9183 67.888 23.9885C68.0099 23.9998 68.143 23.9998 68.2779 23.9998C69.3257 23.9998 70.2648 23.8701 71.0804 23.5968C71.8978 23.3226 72.5671 22.9879 73.1059 22.585C73.6395 22.168 74.0425 21.7404 74.3087 21.2989C74.5786 20.8591 74.7126 20.4666 74.7126 20.1442C74.7126 19.7762 74.5918 19.4784 74.3464 19.2765ZM65.5726 12.5513C66.1683 11.9206 66.9375 11.6113 67.8749 11.6113H67.888C68.8623 11.6113 69.655 11.9206 70.2517 12.5391C70.851 13.1585 71.2023 14.0989 71.2889 15.36H64.4758C64.5967 14.1226 64.9629 13.1812 65.5726 12.5513Z" fill="#003A9B"/>
<path d="M58.3691 18.9668C58.0038 18.9668 57.7349 19.05 57.5412 19.2046C57.0769 19.6335 56.688 19.9777 56.3944 20.2283C56.1027 20.4666 55.7856 20.7049 55.4317 20.9301C55.0795 21.1439 54.7247 21.3121 54.3471 21.4075C53.9809 21.5135 53.5665 21.5609 53.1162 21.5609C53.0189 21.5609 52.9217 21.5609 52.8367 21.5485C52.2751 21.5135 51.7504 21.3576 51.2756 21.072C50.728 20.7505 50.276 20.2766 49.9484 19.6571C49.6057 19.0141 49.4349 18.2769 49.4231 17.4442H56.7843C57.7603 17.4442 58.5276 17.3001 59.0761 17.0377C59.6131 16.7525 59.8804 16.1576 59.8804 15.2413C59.8804 14.2413 59.6245 13.2649 59.1006 12.3021C58.5759 11.3489 57.7839 10.5635 56.7378 9.95681C55.6857 9.35065 54.4206 9.05227 52.9594 9.05227H52.8367C51.7504 9.06366 50.7631 9.24326 49.8625 9.57618C48.9352 9.93322 48.1554 10.4448 47.5216 11.0993C46.8878 11.7655 46.3998 12.5631 46.0722 13.4914C45.7419 14.4208 45.572 15.4319 45.572 16.5147C45.572 18.8244 46.2544 20.6331 47.5965 21.9778C48.862 23.2517 50.6063 23.9183 52.8367 23.9885C52.9699 23.9998 53.0917 23.9998 53.2266 23.9998C54.2857 23.9998 55.2135 23.8701 56.0273 23.5968C56.8448 23.3226 57.5158 22.9879 58.0511 22.585C58.5995 22.168 58.9894 21.7404 59.2583 21.2989C59.5273 20.8591 59.6604 20.4666 59.6604 20.1442C59.6604 19.7762 59.5396 19.4784 59.3083 19.2765C59.0647 19.0741 58.7467 18.9668 58.3691 18.9668ZM50.5209 12.5513C51.1165 11.9206 51.8836 11.6113 52.8236 11.6113H52.8367C53.8109 11.6113 54.6029 11.9206 55.2012 12.5391C55.8093 13.1585 56.1509 14.0989 56.249 15.36H49.4231C49.558 14.1226 49.9238 13.1812 50.5209 12.5513Z" fill="#003A9B"/>
<path d="M8.36084 21.5609V12.8019C8.61666 12.8242 8.86062 12.836 9.11643 12.836C10.335 12.836 11.4822 12.515 12.456 11.9438V21.5609C12.456 22.3817 12.2606 22.9888 11.8835 23.3944C11.5068 23.7983 11.0057 23.9998 10.3964 23.9998C9.79891 23.9998 9.32364 23.7983 8.93291 23.3822C8.5562 22.9775 8.36084 22.3695 8.36084 21.5609Z" fill="#003A9B"/>
<path d="M43.7672 4.14937C43.4492 3.79152 43.012 3.61237 42.4627 3.61237C41.8902 3.61237 41.4505 3.80336 41.1461 4.19665C40.8311 4.57693 40.683 5.14766 40.683 5.89799V11.3257C39.9761 10.5635 39.245 10.016 38.5012 9.64669C38.0272 9.4216 37.4898 9.25555 36.8813 9.17105C36.5283 9.12368 36.1621 9.09919 35.7604 9.09919C33.8944 9.09919 32.3713 9.74223 31.2263 11.0274C30.0804 12.3135 29.5065 14.0989 29.5065 16.3946C29.5065 17.4792 29.6542 18.4902 29.9327 19.4193C30.2263 20.3475 30.6525 21.1561 31.2145 21.8473C31.7739 22.5377 32.4444 23.0598 33.2137 23.4427C33.9811 23.8106 34.8085 23.9998 35.7105 23.9998C36.1126 23.9998 36.5033 23.9657 36.8813 23.8947C37.1244 23.857 37.3566 23.7983 37.5883 23.7265C38.1608 23.5372 38.697 23.2639 39.1845 22.9188C39.6839 22.5605 40.1723 22.097 40.683 21.5372V21.8946C40.683 22.5735 40.8547 23.0843 41.1833 23.4532C41.5126 23.8106 41.9511 23.9998 42.4627 23.9998C42.9613 23.9998 43.4015 23.8229 43.7318 23.4777C44.0603 23.1203 44.218 22.5972 44.218 21.8946V5.7079C44.218 5.02897 44.0729 4.50507 43.7672 4.14937ZM39.9878 19.1218C39.6598 19.8122 39.2205 20.3238 38.6733 20.6567C38.1363 20.9906 37.527 21.1561 36.8813 21.1561H36.8682C36.2121 21.1561 35.6132 20.9783 35.0652 20.6331C34.5045 20.2766 34.0779 19.7518 33.7603 19.0619C33.4441 18.3592 33.2855 17.5147 33.2855 16.5147C33.2855 15.5746 33.4331 14.7415 33.7244 14.0393C34.0292 13.3253 34.4432 12.7769 34.9916 12.3963C35.5286 12.0029 36.1489 11.8251 36.8327 11.8251H36.8813C37.527 11.8251 38.124 12.0156 38.6598 12.384C39.2205 12.7528 39.6598 13.2899 39.9878 13.9916C40.3042 14.6937 40.4768 15.5387 40.4768 16.5147C40.4768 17.5616 40.3042 18.4315 39.9878 19.1218Z" fill="#003A9B"/>
<path d="M18.4643 11.0993V11.5522C19.1344 10.6949 19.8541 10.076 20.6342 9.67082C21.4267 9.27879 22.3281 9.07506 23.3518 9.07506C24.3392 9.07506 25.2288 9.28973 26.0094 9.7067C26.7895 10.1229 27.362 10.7186 27.7523 11.4926C28.0086 11.9438 28.1672 12.4331 28.2394 12.9561C28.313 13.4672 28.3489 14.1331 28.3489 14.9434V21.7641C28.3489 22.5017 28.1672 23.0598 27.8246 23.4295C27.4842 23.8106 27.0317 23.9998 26.4833 23.9998C25.924 23.9998 25.4732 23.8106 25.1188 23.4172C24.7649 23.0361 24.5958 22.4781 24.5958 21.7641V15.6566C24.5958 14.4436 24.4246 13.515 24.0829 12.8724C23.7417 12.2302 23.0465 11.9083 22.0241 11.9083C21.3535 11.9083 20.7433 12.1115 20.1945 12.4913C19.6474 12.8847 19.2321 13.4191 18.9754 14.1098C18.7931 14.6579 18.7069 15.6688 18.7069 17.1818V21.7641C18.7069 22.5131 18.5264 23.0598 18.1725 23.4427C17.8185 23.8106 17.3683 23.9998 16.8067 23.9998C16.2596 23.9998 15.8189 23.8106 15.4659 23.4172C15.1128 23.0361 14.9411 22.4781 14.9411 21.7641V11.1584C14.9411 10.4571 15.0997 9.93322 15.4173 9.59986C15.7221 9.25555 16.1479 9.07506 16.6976 9.07506C17.0266 9.07506 17.3183 9.14602 17.5859 9.30283C17.8558 9.45614 18.0739 9.68311 18.2325 9.99234C18.3906 10.3007 18.4643 10.6708 18.4643 11.0993Z" fill="#003A9B"/>
<path d="M8.38451 0.566728C10.9198 -0.32687 13.8087 -0.279055 15.9779 1.55362C16.3813 1.92251 16.8434 2.38684 17.0265 2.93434C17.2463 3.62466 16.2595 2.86213 16.1242 2.76829C15.4176 2.31544 14.7102 1.9348 13.9191 1.6724C9.65351 0.387577 5.61742 2.70881 3.10836 6.31514C2.06058 7.90999 1.37682 9.5872 0.816559 11.4318C0.75611 11.635 0.70705 11.8974 0.596245 12.074C0.486736 12.278 0.548061 11.5286 0.548061 11.5037C0.632584 10.7428 0.792029 10.0047 0.987392 9.26658C2.14468 5.33829 4.70368 2.06568 8.38451 0.566728Z" fill="#003A9B"/>
<path d="M11.6877 10.3135C10.1647 11.0752 8.29867 10.4812 7.53081 8.99321C6.75066 7.50475 7.36085 5.68427 8.88389 4.93439C10.4078 4.17267 12.2739 4.76708 13.0408 6.25554C13.821 7.74347 13.2117 9.56394 11.6877 10.3135Z" fill="#003A9B"/>
</g>
<defs>
<clipPath id="clip0_163_6292">
<rect width="89.7095" height="24" fill="white" transform="translate(0.531006)"/>
</clipPath>
</defs>
</svg>
