<svg width="931" height="199" viewBox="0 0 931 199" fill="none" xmlns="http://www.w3.org/2000/svg">
<g clip-path="url(#clip0_3434_75237)">
<path d="M771.087 41.8569C784.502 40.0885 798.856 40.6825 811.014 47.231C823.71 53.7657 832.856 66.2133 836.171 80.0149C839.501 93.8579 839.432 108.626 835.605 122.373C831.626 136.727 820.988 149.161 807.132 154.77C796.908 159.135 785.524 159.481 774.596 158.597C759.344 157.146 744.589 148.774 736.659 135.47C727.127 119.9 726.491 100.531 729.572 82.9851C733.164 62.4832 750.047 44.4541 771.087 41.8569ZM773.767 62.3036C763.889 65.039 756.319 73.6045 753.86 83.4411C750.945 94.9769 750.889 107.48 754.744 118.808C758.626 129.971 769.402 138.813 781.463 138.882C791.686 139.821 802.172 135.014 807.947 126.503C813.694 118.021 814.868 107.342 814.661 97.3393C814.288 87.5304 812.395 76.8511 805.128 69.6671C797.309 61.1983 784.502 59.4438 773.767 62.3036Z" fill="#02164F"/>
<path d="M270.032 43.2385C277.616 43.1556 285.187 43.1694 292.772 43.2385C292.841 81.0925 292.772 118.96 292.813 156.814C285.201 156.856 277.603 156.842 270.004 156.828C270.032 118.96 269.963 81.1064 270.032 43.2385Z" fill="#02164F"/>
<path d="M463.432 43.2248C470.796 43.2248 478.173 43.0728 485.537 43.3215C485.55 81.1341 485.495 118.947 485.564 156.745C478.767 156.884 471.97 156.856 465.173 156.842C465.131 153.14 465.118 149.437 465.076 145.748C458.776 153.582 449.258 159.453 438.924 158.97C426.918 159.343 415.88 151.523 410.284 141.231C404.468 130.634 403.971 118.049 405.159 106.278C406.209 96.2342 410.436 86.1352 418.546 79.794C426.227 73.2731 436.976 71.6706 446.646 73.4528C453.236 74.8067 458.611 79.117 463.501 83.4965C463.335 70.068 463.432 56.6395 463.432 43.2248ZM439.352 90.8601C434.033 93.112 430.027 98.1131 428.687 103.708C426.946 110.657 427.25 117.98 428.3 125.025C429.253 131.311 433.011 137.432 438.938 140.112C444.699 142.419 451.965 141.701 456.442 137.1C462.838 131.311 463.985 122.069 463.722 113.918C463.363 107.038 462.327 99.4117 457.16 94.3691C452.684 89.6581 445.293 88.6358 439.352 90.8601Z" fill="#02164F"/>
<path d="M505.678 43.183C513 43.1968 520.322 43.183 527.63 43.2106C527.672 49.8835 527.672 56.5424 527.63 63.2152C520.322 63.2429 513 63.2153 505.692 63.2429C505.457 56.5563 505.457 49.8558 505.678 43.183Z" fill="#02164F"/>
<path d="M854.777 43.2524C862.113 43.1695 869.463 43.1695 876.812 43.2524C876.881 49.8837 876.881 56.529 876.799 63.1741C869.463 63.2432 862.113 63.2432 854.763 63.1741C854.694 56.529 854.694 49.8837 854.777 43.2524Z" fill="#02164F"/>
<path d="M897.897 43.3353C905.26 43.0866 912.624 43.1834 919.987 43.2386C920.043 81.1065 920.029 118.96 920.001 156.815C912.624 156.828 905.246 156.897 897.883 156.745C897.952 118.947 897.91 81.134 897.897 43.3353Z" fill="#02164F"/>
<path d="M351.694 73.8531C361.848 71.5045 373.757 72.6926 381.645 80.0977C388.042 86.4251 388.581 95.9162 388.788 104.399C388.871 121.848 388.733 139.296 388.843 156.759C381.466 156.897 374.088 156.842 366.697 156.814C366.31 137.97 367.637 119.029 365.799 100.254C364.763 89.948 351.5 86.8671 343.929 92.3242C337.201 95.9853 335.944 104.192 335.709 111.141C335.488 126.351 335.737 141.576 335.585 156.8C328.221 156.856 320.844 156.883 313.48 156.773C313.577 129.28 313.453 101.788 313.536 74.2952C320.402 74.2538 327.268 74.2952 334.121 74.2537C334.245 77.8733 334.245 81.5068 334.259 85.1402C339.301 80.3739 344.703 75.4557 351.694 73.8531Z" fill="#02164F"/>
<path d="M560.372 76.5474C570.209 72.0022 581.371 72.5962 591.913 73.2317C601.031 73.9915 611.378 78.1914 614.639 87.4615C620.275 110.188 610.853 134.917 620.897 156.815C613.423 156.773 605.935 157.063 598.461 156.607C597.756 153.955 596.969 151.33 596.181 148.719C590.296 153.623 583.499 158.03 575.666 158.749C567.39 159.522 558.272 158.735 551.682 153.167C541.583 145.168 540.271 128.493 548.85 118.961C554.045 113.103 561.989 110.975 569.352 109.317C577.779 107.618 586.234 105.988 594.496 103.529C594.869 99.4256 594.8 94.383 590.945 91.8824C586.414 89.1884 580.764 89.6444 575.707 90.0312C570.402 90.6253 567.528 95.6264 565.456 99.9644C558.77 98.9559 552.138 97.6296 545.452 96.5658C547.842 88.4424 552.484 80.3743 560.372 76.5474ZM571.563 123.823C566.009 125.785 563.439 133.038 566.976 137.915C571.701 145.818 583.471 144.491 589.536 138.896C595.974 134.005 594.441 125.081 594.703 118.021C586.994 119.941 579.05 121.116 571.563 123.823Z" fill="#02164F"/>
<path d="M673.892 73.9774C684.281 71.3663 696.618 72.6235 704.604 80.3877C710.655 86.7289 711.29 96.0405 711.401 104.357C711.387 121.834 711.442 139.324 711.359 156.8C703.996 156.856 696.618 156.883 689.255 156.773C688.868 137.777 690.277 118.684 688.329 99.7707C686.906 89.1328 672.593 86.8533 665.382 93.1669C659.123 97.4911 658.571 105.753 658.281 112.674C658.115 127.36 658.267 142.059 658.225 156.759C650.862 156.925 643.484 156.828 636.121 156.814C636.176 129.294 635.927 101.774 636.245 74.2537C643.098 74.2813 649.95 74.2537 656.802 74.2813C656.816 77.7904 656.816 81.3134 656.968 84.8363C661.997 80.3739 667.192 75.6905 673.892 73.9774Z" fill="#02164F"/>
<path d="M505.569 74.2817C512.877 74.2541 520.199 74.2817 527.522 74.254C527.825 101.774 527.604 129.294 527.632 156.815C520.255 156.87 512.877 156.884 505.514 156.745C505.597 129.267 505.5 101.774 505.569 74.2817Z" fill="#02164F"/>
<path d="M854.808 74.2264C862.13 74.2954 869.452 74.3092 876.774 74.2125C876.954 101.747 876.843 129.28 876.829 156.814C869.466 156.856 862.116 156.856 854.752 156.814C854.725 129.28 854.642 101.747 854.808 74.2264Z" fill="#02164F"/>
<path d="M94.6887 4.37858C101.068 4.21387 107.479 4.23396 113.782 5.28644C126.343 7.04593 138.519 11.4406 149.402 17.9363C163.522 26.4164 175.465 38.5279 183.555 52.8891C193.746 70.6045 197.808 91.7144 195.104 111.957C193.321 126.032 188.203 139.654 180.414 151.509C167.8 170.751 148.124 185.325 125.902 191.399C101.911 198.216 75.262 195.143 53.5175 182.903C29.6197 169.775 11.7075 146.001 6.28037 119.219C3.76165 108.285 3.64114 96.8884 5.13952 85.8012C6.49328 78.2209 8.25277 70.6527 11.35 63.5746C20.4889 41.1913 38.5377 22.6564 60.5916 12.7783C65.4241 10.5207 70.5259 8.9179 75.6276 7.3914C81.8862 5.84883 88.2613 4.80037 94.6887 4.37858ZM90.7037 8.52422C87.1406 8.97012 83.5654 9.412 80.0745 10.2797C76.8166 11.1112 73.4985 11.754 70.3732 13.0354C63.5361 15.3332 57.0043 18.5027 50.9465 22.4073C31.7488 34.4426 17.3555 53.8813 11.4223 75.7504C10.4582 79.8398 9.27311 83.9051 8.97585 88.115C7.8832 96.101 7.99969 104.236 9.03209 112.226C11.7476 132.022 21.1677 150.85 35.4847 164.81C43.1574 172.591 52.3806 178.761 62.2747 183.356C75.8445 189.503 90.9046 192.274 105.768 191.479C107.764 191.061 109.817 191.242 111.814 190.864C122.061 189.575 132.112 186.606 141.347 181.959C163.164 171.241 180.349 151.529 187.926 128.427C188.753 125.824 189.83 123.297 190.476 120.637C191.404 116.665 191.971 112.611 192.268 108.546C192.296 106.148 192.316 103.75 192.597 101.363C192.806 98.2783 192.184 95.2132 192.256 92.1201C191.437 84.0337 189.866 75.9713 186.941 68.367C179.944 49.1411 166.225 32.4702 148.803 21.7686C131.638 11.0429 110.813 6.36302 90.7037 8.52422Z" fill="#FEFEFE"/>
<path d="M28.0407 80.7156C30.3586 79.7836 32.9938 83.0897 31.1098 84.9697C29.9248 86.6207 27.0967 86.2672 26.3375 84.3832C25.4015 82.941 26.7954 81.3744 28.0407 80.7156Z" fill="#FEFEFE"/>
<path d="M40.4096 82.2219C43.8844 80.4665 48.1827 80.6271 51.6414 82.3424C54.0959 83.411 56.2651 85.4959 56.8797 88.1672C71.502 88.3119 86.1323 88.2275 100.754 88.2677C100.722 89.3603 100.722 90.457 100.763 91.5496C100.051 91.5898 99.3405 91.6179 98.6295 91.6541C98.7419 98.6519 98.4688 105.638 98.4366 112.631C96.7575 112.716 95.0783 112.692 93.3992 112.655C93.5117 108.956 93.4916 105.256 93.5358 101.56C91.8486 101.576 90.1614 101.516 88.4782 101.556C87.474 102.645 86.7067 104.075 85.1842 104.525C82.9346 105.505 80.6208 103.171 80.6569 100.962C80.3396 99.0415 82.2758 97.4909 84.0514 97.4829C87.3293 97.4226 90.6354 97.736 93.9013 97.2941C93.8732 95.4061 93.9335 93.514 94.0459 91.63C88.9 91.6822 83.7501 91.6099 78.6042 91.7103C78.5881 98.7523 78.2226 105.79 78.3793 112.84C76.68 112.776 74.9848 112.784 73.2856 112.836C73.2494 110.96 73.2856 109.084 73.3257 107.208C70.8311 108.482 67.6938 108.795 65.1791 107.413C62.347 105.774 60.3304 102.894 59.6555 99.7003C61.5717 99.1098 63.6968 97.8726 64.0703 95.7194C64.3756 94.4982 63.7168 93.2971 62.8652 92.4655C61.5115 90.923 59.2619 91.8268 57.4863 91.5978C57.6028 93.8394 57.7233 96.097 57.4903 98.3385C55.3733 98.2381 53.2563 98.3747 51.1393 98.3827C49.8578 98.443 48.4639 98.1698 47.3431 98.9532C47.3994 99.4593 47.4677 99.9655 47.536 100.472C50.9425 101.347 54.6784 101.006 57.8438 102.717C58.6312 103.131 59.4346 103.713 59.752 104.581C60.1055 107.67 58.3018 110.912 55.3934 112.101C51.2558 113.905 46.4072 112.696 42.84 110.165C43.5952 109.181 44.4629 108.285 45.2462 107.321C47.9778 108.377 51.2437 109.502 53.9754 107.839C54.9274 107.494 54.5137 106.377 54.5137 105.626C51.3884 104.653 47.8453 104.894 44.9771 103.103C43.4827 102.155 42.0848 100.399 42.7717 98.5434C42.7998 96.7678 44.0732 95.3096 45.656 94.6428C47.552 93.6305 49.7574 93.9679 51.8182 93.9519C51.8343 93.1806 51.8463 92.4053 51.8664 91.638C47.8533 91.5858 43.8402 91.634 39.8312 91.6099C39.8995 98.6679 39.799 105.726 39.8472 112.78C38.3328 112.816 36.8183 112.8 35.3079 112.872C35.1392 105.846 35.2195 98.8126 35.1874 91.7826C33.9622 91.3046 32.4919 91.7384 31.1703 91.5617C31.1542 93.6908 31.3029 95.8278 31.0819 97.9489C27.3982 97.9288 23.6422 97.7199 20.0068 98.3948C19.9425 99.1299 19.6091 100.375 20.6575 100.536C23.6945 100.873 27.0206 99.8289 29.8527 101.339C32.0139 102.492 32.3071 105.22 32.283 107.413C32.3594 109.016 31.3792 110.398 30.4432 111.603C29.1698 113.081 26.6029 112.467 25.5865 114.222C25.7271 115.214 26.6711 115.765 27.3741 116.359C26.4341 117.392 25.6347 118.537 24.6666 119.545C22.7384 118.147 21.1155 116.319 20.1072 114.15C18.1549 114.017 16.078 112.997 15.2465 111.149C14.9613 109.827 14.7323 108.096 15.9455 107.156C17.01 106.055 18.7695 106.232 20.0952 106.698C21.461 107.124 22.1519 108.546 23.4534 109.08C25.3334 109.341 26.8158 107.807 27.3902 106.152C25.0804 103.766 21.5172 104.505 18.5928 103.734C16.7248 103.392 15.355 101.633 15.2626 99.7686C15.2304 98.4189 15.0698 96.7437 16.303 95.8439C18.7575 93.4296 22.4211 93.6104 25.6106 93.5662C25.5263 92.9195 25.703 92.1964 25.3776 91.6059C22.0916 91.6019 18.8016 91.5657 15.5157 91.63C15.5197 90.4931 15.5157 89.3563 15.5036 88.2235C22.1158 88.1632 28.7319 88.2757 35.34 88.1391C36.023 85.5401 37.9953 83.3548 40.4096 82.2219ZM40.1686 88.2637C44.0491 88.3601 47.9296 88.2195 51.8102 88.2154C51.3321 85.7128 48.6969 84.3751 46.3228 84.4996C43.7519 84.2466 40.6707 85.4436 40.1686 88.2637ZM68.3807 91.6621C68.8547 93.8956 69.3006 96.3461 68.3526 98.5193C67.8022 99.9373 66.4846 100.809 65.4643 101.858C66.0709 102.745 66.802 103.866 68.0111 103.858C70.0357 104.151 72.0282 102.689 72.671 100.801C73.5828 97.8284 73.2092 94.695 73.2695 91.638C71.6386 91.646 70.0116 91.6541 68.3807 91.6621Z" fill="#FEFEFE"/>
<path d="M131.975 81.4707C132.851 82.0773 133.779 82.5955 134.735 83.0655C133.686 85.058 131.617 86.2792 129.52 86.8978C126.315 88.0025 122.507 86.0582 121.35 82.9088C122.185 82.4348 123.113 81.8202 124.089 81.8162C125.013 82.4509 125.897 83.2744 127.07 83.3788C128.93 83.7524 130.713 82.7682 131.975 81.4707Z" fill="#FEFEFE"/>
<path d="M106.154 88.1632C110.501 86.5764 116.193 89.6937 116.418 94.5223C116.253 96.6393 116 99.0576 114.289 100.536C115.149 101.375 116.273 102.167 116.454 103.444C116.792 105.304 117.213 107.461 115.807 109.008C112.726 113.507 105.254 113.35 102.061 109.076C101.338 108.14 101.141 106.935 100.848 105.818C101.856 105.18 102.86 104.533 103.873 103.894C104.391 105.28 105.013 106.823 106.427 107.518C107.629 108.249 109.388 108.257 110.32 107.084C111.654 105.871 111.2 103.926 111.152 102.34C110.404 100.359 107.922 101.259 106.323 101.018C106.363 100.098 106.407 99.1821 106.443 98.2662C108.785 98.7161 110.714 96.6071 111.228 94.5182C111.123 93.2287 109.818 92.3651 108.581 92.5619C106.869 92.1803 106.182 94.4178 104.624 94.47C103.74 94.0362 103.013 93.3412 102.226 92.7628C102.402 90.5775 104.045 88.7055 106.154 88.1632Z" fill="#FEFEFE"/>
<path d="M117.498 88.1954C140.182 88.1632 162.867 88.1512 185.547 88.2034C185.499 89.3322 185.499 90.465 185.535 91.5938C184.21 91.6139 182.888 91.5778 181.566 91.5697C181.635 98.6157 181.53 105.658 181.615 112.704C179.976 112.744 178.329 112.824 176.702 112.615C176.798 109.04 176.553 105.465 176.525 101.89C176.035 101.998 175.569 102.171 175.131 102.412C172.793 103.697 170.234 104.545 167.976 105.979C167.253 104.75 166.699 103.436 166.024 102.179C166.852 101.661 167.864 101.331 168.503 100.564C167.888 99.6883 166.771 99.0335 165.683 99.3468C163.996 99.865 162.505 101.52 162.734 103.372C162.742 105.879 165.064 107.345 166.611 108.976C166.016 110.237 165.361 111.466 164.703 112.696C161.71 110.912 159.167 108.16 158.171 104.77C157.717 102.416 157.781 99.7767 159.231 97.7561C160.557 95.386 163.365 94.1407 166.02 94.3415C168.876 94.3616 171.423 95.8479 173.661 97.4869C174.516 97.0852 175.392 96.7237 176.284 96.4103C176.268 94.8155 176.252 93.2208 176.368 91.63C169.262 91.5376 162.152 91.6179 155.045 91.5978C155.154 98.6318 154.929 105.67 155.094 112.7C153.495 112.804 151.888 112.76 150.289 112.74C150.293 110.763 150.345 108.783 150.402 106.807C147.104 107.674 143.175 108.494 140.202 106.296C137.836 104.774 137.547 101.725 137.161 99.1942C140.259 99.2585 142.448 94.8959 140.202 92.6423C138.599 90.8346 135.984 91.8389 133.895 91.4693C133.855 98.5394 133.867 105.618 133.924 112.692C132.349 112.655 130.774 112.664 129.203 112.559C129.372 105.569 129.179 98.5755 129.3 91.5818C128.079 91.5778 126.857 91.5657 125.636 91.5456C125.769 98.5796 125.588 105.618 125.733 112.655C124.037 112.792 122.334 112.744 120.635 112.712C120.715 108.843 120.759 104.971 120.659 101.102C119.422 101.175 118.185 101.203 116.947 101.187C116.955 99.6561 116.955 98.1296 117.028 96.6031C118.265 96.6072 119.502 96.6072 120.743 96.5951C120.715 94.92 120.675 93.2489 120.735 91.5737C119.651 91.5938 118.57 91.6219 117.49 91.626C117.518 90.4811 117.534 89.3362 117.498 88.1954ZM145.107 91.5537C145.657 93.4015 145.545 95.3739 145.42 97.274C145.139 99.1299 143.838 100.488 142.319 101.452C143.464 104.364 148.546 104.529 149.675 101.5C150.916 98.3385 150.225 94.8718 150.394 91.5657C148.63 91.5858 146.871 91.5818 145.107 91.5537Z" fill="#FEFEFE"/>
<path d="M91.0984 0.445898C94.1032 0.220941 97.1321 0.261111 100.141 0C103.76 0.329402 107.416 0.12453 111.011 0.723078C124.963 2.25359 138.589 6.70856 150.668 13.851C156.987 17.4945 162.8 21.9856 168.235 26.8342C170.524 29.2405 173.091 31.3896 175.14 34.0128C180.29 39.5925 184.5 45.9878 188.24 52.5798C189.212 54.7049 190.493 56.6732 191.269 58.8907C193.896 64.0969 195.467 69.7328 197.126 75.2965C198.379 80.7076 199.279 86.1989 199.841 91.7224C200.066 97.013 200.042 102.307 199.841 107.598C199.219 113.334 198.343 119.059 196.933 124.663C195.909 127.459 195.374 130.411 194.237 133.167C188.802 148.311 179.559 162.058 167.632 172.86C165.198 175.129 162.595 177.206 160.008 179.299C157.043 181.151 154.364 183.465 151.21 185.012C145.582 188.531 139.464 191.19 133.262 193.512C130.611 194.295 127.995 195.187 125.344 195.966C119.282 197.28 113.184 198.646 106.962 198.786C103.101 199.248 99.1969 199.188 95.3204 199.007C93.1511 198.642 90.9256 198.903 88.7685 198.457C87.3745 198.212 85.9444 198.304 84.5626 197.979C80.2562 197.007 75.8334 196.464 71.6436 195.03C67.0118 193.492 62.2998 192.066 57.9694 189.776C54.2415 188.314 50.8832 186.104 47.3682 184.224C41.6358 180.432 36.0079 176.427 31.107 171.582C19.4092 160.584 10.4109 146.713 5.31321 131.484C4.75483 130.098 4.2527 128.688 3.96346 127.218C0.92252 116.91 -0.379021 106.084 0.094997 95.3459C0.179356 90.1076 1.15953 84.9376 1.97098 79.7796C4.16432 69.8373 7.59091 60.1239 12.6605 51.2702C13.7009 49.0327 15.2917 47.1286 16.4366 44.9514C22.2975 36.5315 29.0101 28.5817 37.205 22.3471C40.8967 19.2459 44.9098 16.5665 49.0152 14.0599C50.9274 13.2283 52.5302 11.8344 54.4905 11.1193C60.7853 7.90967 67.3854 5.2383 74.2507 3.523C79.7461 1.92017 85.4423 1.2212 91.0984 0.445898ZM94.6897 4.37864C88.2623 4.80043 81.8872 5.8489 75.6285 7.39146C70.5268 8.91796 65.4251 10.5208 60.5925 12.7784C38.5386 22.6564 20.4898 41.1913 11.3509 63.5746C8.25373 70.6528 6.49424 78.221 5.14047 85.8012C3.6421 96.8884 3.76261 108.285 6.28133 119.219C11.7084 146.001 29.6207 169.775 53.5184 182.903C75.263 195.143 101.912 198.216 125.903 191.399C148.125 185.325 167.801 170.751 180.415 151.509C188.204 139.654 193.322 126.032 195.105 111.957C197.809 91.7144 193.747 70.6046 183.556 52.8891C175.466 38.528 163.523 26.4165 149.403 17.9364C138.52 11.4407 126.344 7.04599 113.783 5.2865C107.48 4.23402 101.069 4.21394 94.6897 4.37864Z" fill="#02164F"/>
<path d="M90.705 8.52428C110.815 6.36308 131.639 11.043 148.804 21.7687C166.227 32.4702 179.945 49.1412 186.943 68.367C189.867 75.9714 191.438 84.0337 192.257 92.1201C192.185 95.2133 192.808 98.2783 192.599 101.363C192.318 103.75 192.297 106.148 192.269 108.546C191.972 112.611 191.406 116.665 190.478 120.638C189.831 123.297 188.754 125.824 187.927 128.427C180.351 151.529 163.165 171.241 141.349 181.959C132.113 186.606 122.063 189.575 111.815 190.864C109.818 191.242 107.766 191.061 105.769 191.479C90.9059 192.274 75.8458 189.503 62.276 183.356C52.3819 178.761 43.1586 172.591 35.486 164.81C21.169 150.85 11.7489 132.022 9.03336 112.226C8.00096 104.236 7.88447 96.1011 8.97712 88.1151C9.27438 83.9052 10.4594 79.8399 11.4235 75.7504C17.3568 53.8814 31.7501 34.4426 50.9478 22.4074C57.0056 18.5028 63.5374 15.3333 70.3745 13.0355C73.4998 11.754 76.8179 11.1113 80.0758 10.2797C83.5666 9.41205 87.1418 8.97017 90.705 8.52428ZM80.8832 12.2843C67.5705 15.277 54.9247 21.2585 44.2874 29.8229C32.6378 39.0583 23.3141 51.2301 17.4934 64.9163C16.0512 68.0939 15.0831 71.4562 13.8217 74.706C58.2629 74.698 102.704 74.6498 147.137 74.3887C160.281 74.3806 173.425 74.3163 186.573 74.3445C182.351 59.5656 173.915 46.0761 162.88 35.4147C151.6 24.5846 137.504 16.6669 122.312 12.8909C108.802 9.46829 94.4972 9.36787 80.8832 12.2843ZM28.0423 80.7156C26.797 81.3744 25.403 82.9411 26.339 84.3832C27.0983 86.2672 29.9263 86.6207 31.1113 84.9697C32.9954 83.0897 30.3601 79.7836 28.0423 80.7156ZM40.4109 82.222C37.9966 83.3548 36.0243 85.5401 35.3413 88.1392C28.7332 88.2758 22.1171 88.1633 15.5049 88.2235C15.517 89.3564 15.521 90.4932 15.517 91.63C18.8029 91.5658 22.0929 91.6019 25.3789 91.6059C25.7043 92.1965 25.5276 92.9195 25.6119 93.5663C22.4224 93.6105 18.7588 93.4297 16.3043 95.844C15.0711 96.7438 15.2317 98.4189 15.2639 99.7687C15.3563 101.633 16.7261 103.392 18.5941 103.734C21.5185 104.505 25.0817 103.766 27.3915 106.152C26.8171 107.807 25.3347 109.341 23.4547 109.08C22.1532 108.546 21.4623 107.124 20.0965 106.698C18.7708 106.232 17.0113 106.055 15.9468 107.156C14.7336 108.096 14.9626 109.827 15.2478 111.149C16.0793 112.997 18.1562 114.017 20.1085 114.15C21.1168 116.319 22.7397 118.147 24.6679 119.545C25.636 118.537 26.4354 117.392 27.3754 116.359C26.6724 115.765 25.7284 115.214 25.5878 114.222C26.6042 112.467 29.1711 113.081 30.4445 111.603C31.3805 110.398 32.3607 109.016 32.2843 107.413C32.3084 105.22 32.0152 102.492 29.854 101.339C27.0219 99.8289 23.6958 100.873 20.6588 100.536C19.6104 100.375 19.9438 99.13 20.0081 98.3948C23.6436 97.72 27.3995 97.9289 31.0832 97.9489C31.3042 95.8279 31.1555 93.6908 31.1716 91.5618C32.4932 91.7385 33.9635 91.3047 35.1887 91.7827C35.2208 98.8126 35.1405 105.847 35.3092 112.872C36.8196 112.8 38.3341 112.816 39.8485 112.78C39.8003 105.726 39.9008 98.668 39.8325 91.61C43.8415 91.6341 47.8546 91.5859 51.8677 91.6381C51.8476 92.4053 51.8356 93.1806 51.8195 93.9519C49.7587 93.968 47.5533 93.6306 45.6573 94.6429C44.0745 95.3097 42.8011 96.7679 42.773 98.5435C42.0861 100.399 43.484 102.155 44.9784 103.103C47.8466 104.895 51.3897 104.653 54.515 105.626C54.515 106.377 54.9287 107.494 53.9767 107.839C51.245 109.502 47.9791 108.377 45.2475 107.321C44.4642 108.285 43.5965 109.181 42.8413 110.165C46.4085 112.696 51.2571 113.905 55.3947 112.101C58.3031 110.912 60.1068 107.67 59.7533 104.581C59.4359 103.713 58.6325 103.131 57.8451 102.717C54.6797 101.006 50.9438 101.347 47.5373 100.472C47.469 99.9655 47.4007 99.4594 47.3444 98.9532C48.4652 98.1699 49.8591 98.443 51.1406 98.3828C53.2576 98.3748 55.3746 98.2382 57.4916 98.3386C57.7246 96.0971 57.6041 93.8394 57.4876 91.5979C59.2632 91.8269 61.5128 90.923 62.8665 92.4656C63.7181 93.2971 64.3769 94.4982 64.0716 95.7194C63.6981 97.8726 61.573 99.1099 59.6569 99.7004C60.3317 102.894 62.3483 105.774 65.1804 107.413C67.6951 108.795 70.8324 108.482 73.327 107.208C73.2869 109.084 73.2507 110.96 73.2869 112.836C74.9861 112.784 76.6813 112.776 78.3806 112.84C78.2239 105.79 78.5894 98.7524 78.6055 91.7104C83.7514 91.61 88.9013 91.6823 94.0472 91.63C93.9348 93.5141 93.8745 95.4061 93.9026 97.2942C90.6367 97.736 87.3307 97.4227 84.0527 97.483C82.2771 97.491 80.3409 99.0416 80.6583 100.962C80.6221 103.171 82.9359 105.505 85.1855 104.525C86.708 104.075 87.4753 102.645 88.4795 101.556C90.1627 101.516 91.8499 101.576 93.5371 101.56C93.4929 105.256 93.513 108.956 93.4005 112.656C95.0796 112.692 96.7588 112.716 98.4379 112.631C98.4701 105.638 98.7432 98.6519 98.6308 91.6541C99.3418 91.618 100.053 91.5899 100.764 91.5497C100.724 90.4571 100.724 89.3604 100.756 88.2677C86.1336 88.2276 71.5033 88.3119 56.881 88.1673C56.2664 85.4959 54.0972 83.4111 51.6427 82.3425C48.184 80.6272 43.8857 80.4665 40.4109 82.222ZM131.977 81.4708C130.715 82.7683 128.932 83.7525 127.072 83.3789C125.899 83.2745 125.015 82.451 124.091 81.8163C123.115 81.8203 122.187 82.4349 121.351 82.9089C122.508 86.0583 126.317 88.0026 129.522 86.8979C131.619 86.2793 133.688 85.0581 134.736 83.0656C133.78 82.5956 132.852 82.0774 131.977 81.4708ZM106.155 88.1633C104.046 88.7056 102.403 90.5776 102.226 92.7629C103.013 93.3413 103.741 94.0363 104.624 94.4701C106.183 94.4179 106.87 92.1804 108.581 92.562C109.818 92.3652 111.124 93.2289 111.228 94.5183C110.714 96.6072 108.786 98.7162 106.444 98.2663C106.408 99.1822 106.364 100.098 106.324 101.018C107.922 101.259 110.405 100.359 111.152 102.34C111.2 103.926 111.654 105.871 110.321 107.084C109.389 108.257 107.629 108.249 106.428 107.518C105.014 106.823 104.391 105.28 103.873 103.894C102.861 104.533 101.856 105.18 100.848 105.818C101.141 106.935 101.338 108.14 102.061 109.076C105.255 113.351 112.727 113.507 115.808 109.008C117.214 107.461 116.792 105.304 116.455 103.444C116.274 102.167 115.149 101.376 114.289 100.536C116.001 99.0577 116.254 96.6394 116.418 94.5224C116.194 89.6938 110.501 86.5765 106.155 88.1633ZM117.499 88.1954C117.535 89.3363 117.519 90.4811 117.491 91.626C118.572 91.622 119.652 91.5939 120.737 91.5738C120.677 93.2489 120.717 94.92 120.745 96.5952C119.504 96.6072 118.266 96.6072 117.029 96.6032C116.957 98.1297 116.957 99.6562 116.949 101.187C118.186 101.203 119.423 101.175 120.661 101.102C120.761 104.971 120.717 108.843 120.636 112.712C122.336 112.744 124.039 112.792 125.734 112.656C125.59 105.618 125.77 98.5796 125.638 91.5457C126.859 91.5658 128.08 91.5778 129.301 91.5818C129.181 98.5756 129.374 105.569 129.205 112.559C130.776 112.664 132.35 112.656 133.925 112.692C133.869 105.618 133.857 98.5395 133.897 91.4694C135.986 91.8389 138.601 90.8347 140.204 92.6423C142.449 94.8959 140.26 99.2585 137.163 99.1942C137.548 101.725 137.838 104.774 140.204 106.296C143.176 108.494 147.105 107.674 150.403 106.807C150.347 108.783 150.295 110.763 150.291 112.74C151.889 112.76 153.496 112.804 155.095 112.7C154.93 105.67 155.155 98.6318 155.047 91.5979C162.153 91.618 169.263 91.5377 176.37 91.63C176.253 93.2208 176.269 94.8156 176.285 96.4104C175.394 96.7237 174.518 97.0853 173.662 97.487C171.425 95.848 168.878 94.3617 166.022 94.3416C163.366 94.1407 160.558 95.386 159.233 97.7561C157.783 99.7767 157.718 102.416 158.172 104.77C159.168 108.16 161.711 110.912 164.704 112.696C165.363 111.466 166.018 110.237 166.612 108.976C165.066 107.345 162.744 105.879 162.736 103.372C162.507 101.52 163.997 99.8651 165.684 99.3469C166.773 99.0336 167.89 99.6883 168.504 100.564C167.865 101.331 166.853 101.661 166.026 102.179C166.701 103.436 167.255 104.75 167.978 105.979C170.236 104.545 172.794 103.697 175.132 102.412C175.57 102.171 176.036 101.998 176.526 101.89C176.554 105.465 176.8 109.04 176.703 112.615C178.33 112.824 179.977 112.744 181.616 112.704C181.532 105.658 181.636 98.6158 181.568 91.5698C182.889 91.5778 184.211 91.614 185.537 91.5939C185.501 90.4651 185.501 89.3323 185.549 88.2035C162.868 88.1512 140.184 88.1633 117.499 88.1954ZM13.9583 124.775C19.1605 142.8 30.336 158.941 45.131 170.438C52.8519 176.495 61.6293 181.159 70.8605 184.453C75.2111 185.944 79.6901 186.992 84.1853 187.956C88.2466 188.768 92.3882 188.984 96.5057 189.338C100.169 189.33 103.853 189.519 107.501 189.065C115.225 188.647 122.822 186.823 130.133 184.345C143.421 179.701 155.553 171.856 165.323 161.728C174.996 151.658 182.307 139.317 186.449 125.976C180.712 125.908 174.976 125.984 169.239 125.92C166.295 125.747 163.346 125.804 160.398 125.783C146.069 125.783 131.744 125.639 117.415 125.575C110.047 125.671 102.688 125.386 95.3247 125.325C79.7906 125.048 64.2564 125.197 48.7223 125.008C37.133 124.912 25.5436 124.956 13.9583 124.775Z" fill="#02164F"/>
<path d="M40.1699 88.2637C40.6721 85.4437 43.7532 84.2466 46.3241 84.4997C48.6982 84.3752 51.3334 85.7128 51.8115 88.2155C47.931 88.2195 44.0504 88.3601 40.1699 88.2637Z" fill="#02164F"/>
<path d="M68.3813 91.6622C70.0122 91.6541 71.6391 91.6461 73.2701 91.6381C73.2098 94.6951 73.5834 97.8284 72.6715 100.801C72.0288 102.689 70.0363 104.151 68.0117 103.858C66.8025 103.866 66.0714 102.745 65.4648 101.858C66.4852 100.809 67.8028 99.9374 68.3531 98.5194C69.3012 96.3461 68.8553 93.8957 68.3813 91.6622Z" fill="#02164F"/>
<path d="M145.108 91.5537C146.872 91.5818 148.631 91.5858 150.395 91.5658C150.226 94.8718 150.917 98.3386 149.676 101.5C148.547 104.529 143.465 104.364 142.32 101.452C143.839 100.488 145.14 99.13 145.422 97.2741C145.546 95.374 145.659 93.4016 145.108 91.5537Z" fill="#02164F"/>
<path d="M80.8837 12.2842C94.4977 9.36782 108.803 9.46824 122.312 12.8908C137.505 16.6669 151.601 24.5846 162.881 35.4147C173.916 46.0761 182.352 59.5655 186.574 74.3444C173.426 74.3163 160.282 74.3806 147.138 74.3886C102.705 74.6497 58.2634 74.6979 13.8223 74.7059C15.0836 71.4561 16.0518 68.0938 17.4939 64.9163C23.3147 51.23 32.6384 39.0582 44.288 29.8229C54.9252 21.2584 67.5711 15.277 80.8837 12.2842Z" fill="#F37022"/>
<path d="M13.959 124.775C25.5443 124.956 37.1336 124.912 48.723 125.008C64.2571 125.197 79.7912 125.048 95.3253 125.325C102.689 125.386 110.048 125.671 117.415 125.575C131.744 125.639 146.069 125.783 160.398 125.783C163.347 125.804 166.295 125.747 169.24 125.92C174.976 125.984 180.713 125.908 186.449 125.976C182.308 139.317 174.996 151.658 165.323 161.728C155.554 171.856 143.422 179.701 130.134 184.345C122.822 186.823 115.226 188.647 107.501 189.065C103.854 189.519 100.17 189.33 96.5064 189.338C92.3888 188.984 88.2472 188.768 84.1859 187.956C79.6908 186.992 75.2117 185.944 70.8612 184.453C61.6299 181.159 52.8525 176.495 45.1317 170.438C30.3367 158.941 19.1611 142.8 13.959 124.775Z" fill="#F37022"/>
</g>
<defs>
<clipPath id="clip0_3434_75237">
<rect width="931" height="199" fill="white"/>
</clipPath>
</defs>
</svg>
