<svg width="235" height="80" viewBox="0 0 235 80" fill="none" xmlns="http://www.w3.org/2000/svg">
<g clip-path="url(#clip0_9448_8491)">
<path d="M117.003 54.526L107.251 23.7505H117.821L123.611 46.0918L120.465 46.1581L127.264 23.7505H137.083L143.941 46.1581L140.796 46.0918L146.652 23.7505H157.222L147.47 54.526H137.592L131.043 33.319H133.496L126.763 54.526H117.011H117.003Z" fill="#1D1D1B"/>
<path d="M172.889 55.1595C169.994 55.1595 167.446 54.4671 165.243 53.0823C163.041 51.6975 161.302 49.797 160.021 47.3883C158.739 44.9796 158.098 42.2173 158.098 39.1162C158.098 36.0151 158.739 33.3191 160.021 30.903C161.302 28.4943 163.048 26.5939 165.273 25.2091C167.497 23.8242 170.016 23.1318 172.823 23.1318C174.797 23.1318 176.58 23.478 178.171 24.1705C179.762 24.8629 181.073 25.8278 182.104 27.0653C183.135 28.3028 183.754 29.7392 183.96 31.3745V46.858C183.71 48.4932 183.069 49.9444 182.038 51.1966C181.007 52.4562 179.695 53.4285 178.104 54.1209C176.506 54.8133 174.768 55.1595 172.882 55.1595H172.889ZM175.217 45.4069C177.022 45.4069 178.465 44.8176 179.556 43.6464C180.646 42.4752 181.191 40.9651 181.191 39.1162C181.191 37.945 180.94 36.8843 180.432 35.9414C179.931 34.9986 179.239 34.2546 178.355 33.7095C177.471 33.1644 176.447 32.8919 175.268 32.8919C174.09 32.8919 173.051 33.1644 172.153 33.7095C171.247 34.2546 170.539 34.9986 170.009 35.9414C169.486 36.8843 169.221 37.945 169.221 39.1162C169.221 40.2874 169.471 41.4144 169.972 42.3573C170.473 43.3002 171.188 44.0441 172.108 44.5892C173.029 45.1343 174.06 45.4069 175.195 45.4069H175.217ZM180.815 54.5334V46.2245L182.391 38.7995L180.815 31.3082V23.758H191.643V54.5334H180.815Z" fill="#1D1D1B"/>
<path d="M195.415 32.877V23.7505H219.959V32.877H195.415ZM202.148 54.5259V11.0366H213.16V54.5259H202.148Z" fill="#1D1D1B"/>
<path d="M229.277 20.2295C227.597 20.2295 226.212 19.6549 225.122 18.4985C224.032 17.342 223.487 15.9498 223.487 14.3145C223.487 12.6793 224.032 11.2944 225.122 10.1601C226.212 9.02568 227.597 8.4585 229.277 8.4585C230.956 8.4585 232.275 9.02568 233.365 10.1601C234.455 11.2944 235 12.6793 235 14.3145C235 15.9498 234.455 17.3494 233.365 18.4985C232.275 19.6549 230.912 20.2295 229.277 20.2295ZM223.678 54.5259V23.7505H234.691V54.5259H223.678Z" fill="#1D1D1B"/>
<path d="M26.9302 63.6305H54.2804L70.6258 79.9611V63.6305H77.6088C85.9398 63.6305 92.7535 56.8169 92.7535 48.4859V26.9769C92.7535 18.6459 85.9398 11.8323 77.6088 11.8323H26.9302C18.5991 11.8323 11.7855 18.6459 11.7855 26.9769V48.4859C11.7855 56.8169 18.5991 63.6305 26.9302 63.6305Z" fill="#00E785"/>
<path d="M61.8014 75.2983L44.2259 57.7375H18.0911C8.11742 57.7375 0 49.6201 0 39.6465V18.1301C0 8.15648 8.11742 0.0390625 18.0911 0.0390625H68.7697C78.7434 0.0390625 86.8608 8.15648 86.8608 18.1301V39.6391C86.8608 49.6128 78.7434 57.7302 68.7697 57.7302H61.7867V51.8373H68.7697C75.4949 51.8373 80.9679 46.3643 80.9679 39.6391V18.1301C80.9679 11.4049 75.4949 5.93192 68.7697 5.93192H18.0911C11.3659 5.93192 5.89286 11.4049 5.89286 18.1301V39.6391C5.89286 46.3643 11.3659 51.8373 18.0911 51.8373H46.6641L61.853 67.0114L61.8014 75.2909V75.2983Z" fill="#1D1D1B"/>
</g>
<defs>
<clipPath id="clip0_9448_8491">
<rect width="235" height="80" fill="white"/>
</clipPath>
</defs>
</svg>
