<svg width="80" height="80" viewBox="0 0 80 80" fill="none" xmlns="http://www.w3.org/2000/svg">
<path d="M23.2275 60.381H46.8171L60.9149 74.4662V60.381H66.9378C74.1233 60.381 80.0001 54.5043 80.0001 47.3188V28.7673C80.0001 21.5818 74.1233 15.7051 66.9378 15.7051H23.2275C16.042 15.7051 10.1653 21.5818 10.1653 28.7673V47.3188C10.1653 54.5043 16.042 60.381 23.2275 60.381Z" fill="#00E785"/>
<path d="M53.3036 70.4447L38.1448 55.2986H15.6035C7.00127 55.2986 0 48.2973 0 39.695V21.1372C0 12.535 7.00127 5.53369 15.6035 5.53369H59.3138C67.9161 5.53369 74.9174 12.535 74.9174 21.1372V39.6887C74.9174 48.291 67.9161 55.2922 59.3138 55.2922H53.2909V50.2096H59.3138C65.1143 50.2096 69.8348 45.4892 69.8348 39.6887V21.1372C69.8348 15.3367 65.1143 10.6163 59.3138 10.6163H15.6035C9.80304 10.6163 5.08259 15.3367 5.08259 21.1372V39.6887C5.08259 45.4892 9.80304 50.2096 15.6035 50.2096H40.2477L53.3481 63.2973L53.3036 70.4384V70.4447Z" fill="#1D1D1B"/>
</svg>
