<svg width="350" height="80" viewBox="0 0 350 80" fill="none" xmlns="http://www.w3.org/2000/svg">
<g clip-path="url(#clip0_10183_4087)">
<path d="M120.447 27.6966C120.447 26.0276 119.159 24.6582 117.356 24.6582C115.553 24.6582 114.265 26.0276 114.265 27.6966V52.3455C114.265 54.0147 115.553 55.3841 117.356 55.3841C119.201 55.3841 120.447 54.0147 120.447 52.3455V27.6966Z" fill="#081D34"/>
<path d="M150.885 24.6582C149.082 24.6582 147.837 26.0276 147.837 27.6966V38.2238L148.009 47.6385L144.274 38.8227L139.38 28.8092C137.878 25.6852 136.161 24.6582 133.713 24.6582C130.107 24.6582 128.519 26.9262 128.519 30.1786V52.3455C128.519 54.0147 129.764 55.3841 131.567 55.3841C133.37 55.3841 134.615 54.0147 134.615 52.3455L134.572 41.9469L134.443 31.2912L138.436 41.048L143.373 51.2329C144.918 54.4852 146.55 55.4269 149.039 55.4269C152.259 55.4269 153.933 53.4582 153.933 49.821V27.6966C153.933 26.0276 152.688 24.6582 150.885 24.6582Z" fill="#081D34"/>
<path d="M176.727 30.949L183.724 31.1202C185.356 31.1629 186.644 29.9219 186.644 28.1246C186.644 26.3273 185.356 25.0863 183.724 25.0863L163.461 25.0435C161.873 25.0435 160.542 26.2845 160.542 28.0818C160.542 29.8791 161.873 31.1202 163.461 31.0773L170.502 30.949V52.3457C170.502 54.0148 171.79 55.3843 173.593 55.3843C175.439 55.3843 176.727 54.0148 176.727 52.3457V30.949Z" fill="#081D34"/>
<path d="M197.472 54.999H212.54C214.128 54.999 215.416 53.8008 215.416 52.1317C215.416 50.4201 214.128 49.2219 212.54 49.2219L199.446 49.2647V42.118H210.78C212.325 42.118 213.57 40.9626 213.57 39.3794C213.57 37.7531 212.325 36.5976 210.78 36.5976L199.446 36.6833V30.7779H212.54C214.128 30.7779 215.416 29.5796 215.416 27.8679C215.416 26.1561 214.128 25.0007 212.54 25.0007L197.514 25.0435C194.767 25.0435 193.221 26.5841 193.221 29.3229V50.7197C193.221 53.4583 194.767 54.999 197.472 54.999Z" fill="#081D34"/>
<path d="M239.96 42.8029C244.038 41.733 246.442 38.5664 246.442 34.3725C246.442 29.708 243.394 25.0435 236.096 25.0435H226.652C223.904 25.0435 222.358 26.584 222.358 29.3228V52.3457C222.358 54.0148 223.646 55.3843 225.536 55.3843C227.381 55.3843 228.712 54.0148 228.712 52.3457L228.669 44.3004H233.864L239.144 53.8008C240.003 55.2558 241.806 55.8548 243.48 54.999C245.154 54.1004 245.627 52.3029 244.725 50.8481L239.96 42.8029ZM228.669 30.735H236.139C238.672 30.735 240.26 32.3184 240.26 34.672C240.26 36.9829 238.758 38.6948 236.225 38.6948H228.669V30.735Z" fill="#081D34"/>
<path d="M265.404 55.5551C271.672 55.5551 275.707 52.7309 277.081 48.1519C277.81 45.5414 276.265 43.6586 273.947 43.6586C272.53 43.6586 271.586 44.386 271.027 45.9695C270.169 48.366 268.065 49.8639 265.06 49.8639C260.295 49.8639 258.234 46.654 258.234 39.9783C258.234 33.431 260.338 30.307 265.06 30.307C268.022 30.307 269.74 31.548 270.813 34.4152C271.414 36.0414 272.401 36.7688 273.861 36.7688C276.093 36.7688 277.724 34.9715 277.038 32.4895C275.664 27.4399 271.672 24.6155 265.232 24.6155C256.389 24.6155 251.881 30.0075 251.881 39.9783C251.881 50.0347 256.389 55.5551 265.404 55.5551Z" fill="#081D34"/>
<path d="M295.925 55.4698C305.027 55.4698 309.534 49.9063 309.534 39.9783C309.534 29.9647 304.898 24.4443 295.925 24.4443C286.91 24.4443 282.402 30.0503 282.359 39.9783C282.359 49.9491 286.953 55.4698 295.925 55.4698ZM295.925 49.7355C290.859 49.7355 288.67 46.526 288.67 39.9783C288.67 33.3454 290.903 30.1359 295.882 30.1359C300.905 30.1359 303.266 33.3454 303.224 39.9783C303.224 46.5684 300.991 49.7355 295.925 49.7355Z" fill="#081D34"/>
<path d="M349.498 30.0075C349.498 26.6268 347.394 24.6155 344.132 24.6155C341.47 24.6155 339.453 26.0705 338.465 29.4084L335.16 40.1495L332.97 47.8951L330.867 40.1495L327.346 29.4084C326.359 26.2844 324.642 24.6155 321.636 24.6155C318.331 24.6155 316.27 26.584 316.27 30.0075V52.3456C316.27 54.0147 317.472 55.3842 319.232 55.3842C320.992 55.3842 322.194 54.0147 322.194 52.3456L322.152 41.5618L321.851 30.0075L325.243 41.8186L328.849 52.26C329.621 54.5709 331.081 55.3414 332.97 55.3414C334.73 55.3414 336.147 54.6993 336.877 52.3456L340.311 41.8186L343.96 29.9219L343.617 41.5618V52.3456C343.617 54.0147 344.862 55.3842 346.579 55.3842C348.339 55.3842 349.541 54.0147 349.541 52.3456L349.498 30.0075Z" fill="#081D34"/>
<path d="M69.4896 44.0221C69.4896 44.7354 69.2084 45.4193 68.7078 45.9235C68.2072 46.4277 67.5282 46.7112 66.8202 46.7112C66.1121 46.7112 65.4331 46.4277 64.9325 45.9235C64.4319 45.4193 64.1508 44.7354 64.1508 44.0221V20.0001C64.1508 19.287 64.4319 18.6031 64.9325 18.0988C65.4331 17.5945 66.1121 17.3112 66.8202 17.3112C67.5282 17.3112 68.2072 17.5945 68.7078 18.0988C69.2084 18.6031 69.4896 19.287 69.4896 20.0001V44.0221ZM68.5628 60.6667C68.21 61.0221 58.2829 69.3554 40.0832 69.3554C21.8837 69.3554 12.0228 61.0667 11.6036 60.7109C11.3395 60.4867 11.1219 60.2119 10.9634 59.9028C10.8049 59.5933 10.7085 59.2558 10.6798 58.9088C10.6511 58.5621 10.6906 58.213 10.7962 57.8814C10.9017 57.5502 11.0712 57.2428 11.2948 56.9775C11.7555 56.4407 12.4083 56.1091 13.1108 56.0547C13.8133 56.0007 14.5086 56.2288 15.045 56.6888C15.1994 56.8 24.0676 64.0442 40.0611 64.0442C56.0548 64.0442 64.9891 56.7554 65.0775 56.6888C65.6199 56.2326 66.3175 56.0077 67.0217 56.0618C67.7262 56.1158 68.382 56.4442 68.8496 56.9775C69.2996 57.5067 69.5243 58.1933 69.4748 58.8881C69.4253 59.5828 69.1055 60.2302 68.5849 60.6888L68.5628 60.6667ZM10.6551 20.0001C10.6949 19.2847 11.0144 18.6143 11.5435 18.1355C12.0726 17.6566 12.7684 17.4082 13.4788 17.4446C14.1373 17.4822 14.7587 17.7642 15.2231 18.2361C15.6875 18.708 15.962 19.3364 15.9936 20.0001V43.9779C15.9936 44.6909 15.7124 45.3747 15.2118 45.8789C14.7112 46.3835 14.0323 46.6667 13.3243 46.6667C12.6164 46.6667 11.9375 46.3835 11.4369 45.8789C10.9363 45.3747 10.6551 44.6909 10.6551 43.9779V20.0001ZM24.0456 14.6668C24.0854 13.9514 24.4049 13.281 24.934 12.8022C25.4631 12.3233 26.1589 12.0749 26.8693 12.1113C27.5278 12.1489 28.1492 12.4309 28.6136 12.9028C29.078 13.3747 29.3525 14.0031 29.3841 14.6668V50.2221C29.3841 50.9354 29.1029 51.6193 28.6023 52.1235C28.1017 52.6277 27.4228 52.9109 26.7148 52.9109C26.0069 52.9109 25.328 52.6277 24.8274 52.1235C24.3268 51.6193 24.0456 50.9354 24.0456 50.2221V14.6668ZM37.5023 13.3335C37.5023 12.6204 37.7835 11.9364 38.2841 11.4322C38.7847 10.9279 39.4636 10.6446 40.1714 10.6446C40.8794 10.6446 41.5584 10.9279 42.059 11.4322C42.5596 11.9364 42.8408 12.6204 42.8408 13.3335V52C42.8408 52.713 42.5596 53.3968 42.059 53.9014C41.5584 54.4056 40.8794 54.6888 40.1714 54.6888C39.4636 54.6888 38.7847 54.4056 38.2841 53.9014C37.7835 53.3968 37.5023 52.713 37.5023 52V13.3335ZM50.7384 14.6668C50.7384 13.9537 51.0196 13.2698 51.5202 12.7655C52.0208 12.2612 52.6997 11.9779 53.4075 11.9779C54.1155 11.9779 54.7945 12.2612 55.2951 12.7655C55.7957 13.2698 56.0769 13.9537 56.0769 14.6668V50.2221C56.0769 50.9354 55.7957 51.6193 55.2951 52.1235C54.7945 52.6277 54.1155 52.9109 53.4075 52.9109C52.6997 52.9109 52.0208 52.6277 51.5202 52.1235C51.0196 51.6193 50.7384 50.9354 50.7384 50.2221V14.6668ZM70.2173 0.000221906H10.0373C8.72606 -0.00855824 7.42593 0.243295 6.21143 0.741361C4.99689 1.23943 3.89181 1.97393 2.95946 2.9028C2.02711 3.83168 1.2858 4.93667 0.777969 6.15456C0.270142 7.37242 0.00577331 8.67923 0 10.0002V70C0.00577331 71.3207 0.270142 72.6277 0.777969 73.8456C1.2858 75.0632 2.02711 76.1684 2.95946 77.0972C3.89181 78.026 4.99689 78.7607 6.21143 79.2586C7.42593 79.7568 8.72606 80.0084 10.0373 79.9996H70.2173C71.5267 80.0084 72.8253 79.7575 74.0382 79.2607C75.2514 78.7642 76.3555 78.0316 77.2875 77.1049C78.2196 76.1786 78.9613 75.0761 79.4704 73.8607C79.9797 72.6456 80.2462 71.3411 80.2546 70.0221V10.0002C80.249 8.68112 79.9854 7.37614 79.4788 6.15972C78.9726 4.9433 78.2332 3.8393 77.303 2.9107C76.373 1.98212 75.2707 1.24715 74.0585 0.747772C72.8467 0.24839 71.5488 -0.00562751 70.2394 0.000221906" fill="#081D34"/>
</g>
<defs>
<clipPath id="clip0_10183_4087">
<rect width="350" height="80" fill="white"/>
</clipPath>
</defs>
</svg>
