<svg width="80" height="80" viewBox="0 0 80 80" fill="none" xmlns="http://www.w3.org/2000/svg">
<g clip-path="url(#clip0_10065_2549)">
<g clip-path="url(#clip1_10065_2549)">
<path d="M68.559 43.9718C68.559 44.6762 68.2828 45.3516 67.791 45.8495C67.2993 46.3474 66.6328 46.6273 65.9372 46.6273C65.2421 46.6273 64.5752 46.3474 64.0834 45.8495C63.5917 45.3516 63.3155 44.6762 63.3155 43.9718V20.2501C63.3155 19.5459 63.5917 18.8705 64.0834 18.3726C64.5752 17.8746 65.2421 17.5948 65.9372 17.5948C66.6328 17.5948 67.2993 17.8746 67.791 18.3726C68.2828 18.8705 68.559 19.5459 68.559 20.2501V43.9718ZM67.649 60.4083C67.3024 60.7593 57.5524 68.9885 39.6772 68.9885C21.8024 68.9885 12.1174 60.8033 11.7058 60.452C11.4463 60.2306 11.2327 59.9593 11.0769 59.654C10.9212 59.3484 10.8266 59.0151 10.7984 58.6724C10.7702 58.3301 10.8091 57.9853 10.9127 57.6579C11.0164 57.3308 11.1828 57.0273 11.4024 56.7653C11.8549 56.2352 12.4961 55.9078 13.1861 55.854C13.8761 55.8007 14.5589 56.0259 15.0858 56.4802C15.2374 56.59 23.9474 63.7437 39.6559 63.7437C55.3641 63.7437 64.139 56.546 64.2255 56.4802C64.7583 56.0297 65.4434 55.8076 66.1352 55.861C66.8272 55.9143 67.4714 56.2387 67.9307 56.7653C68.3728 57.2878 68.5934 57.9659 68.5445 58.652C68.4959 59.338 68.1817 59.9773 67.6707 60.4302L67.649 60.4083ZM10.7741 20.2501C10.8133 19.5437 11.127 18.8816 11.6467 18.4088C12.1663 17.9359 12.8497 17.6906 13.5474 17.7265C14.1942 17.7637 14.8045 18.0422 15.2607 18.5082C15.7168 18.9741 15.9863 19.5947 16.0174 20.2501V43.9282C16.0174 44.6322 15.7412 45.3076 15.2495 45.8055C14.7579 46.3037 14.0911 46.5833 13.3958 46.5833C12.7004 46.5833 12.0336 46.3037 11.542 45.8055C11.0503 45.3076 10.7741 44.6322 10.7741 43.9282V20.2501ZM23.9258 14.9835C23.9649 14.277 24.2787 13.615 24.7983 13.1421C25.318 12.6693 26.0014 12.424 26.6991 12.4599C27.3459 12.4971 27.9562 12.7755 28.4123 13.2415C28.8684 13.7075 29.138 14.328 29.1691 14.9835V50.0943C29.1691 50.7987 28.8929 51.4741 28.4012 51.972C27.9095 52.4699 27.2427 52.7495 26.5474 52.7495C25.8521 52.7495 25.1853 52.4699 24.6936 51.972C24.202 51.4741 23.9258 50.7987 23.9258 50.0943V14.9835ZM37.1424 13.6668C37.1424 12.9626 37.4186 12.2872 37.9103 11.7893C38.4021 11.2913 39.0686 11.0115 39.7641 11.0115C40.4593 11.0115 41.1262 11.2913 41.6179 11.7893C42.1097 12.2872 42.3859 12.9626 42.3859 13.6668V51.85C42.3859 52.5541 42.1097 53.2294 41.6179 53.7276C41.1262 54.2255 40.4593 54.5052 39.7641 54.5052C39.0686 54.5052 38.4021 54.2255 37.9103 53.7276C37.4186 53.2294 37.1424 52.5541 37.1424 51.85V13.6668ZM50.1424 14.9835C50.1424 14.2793 50.4186 13.6039 50.9103 13.1059C51.4017 12.608 52.0686 12.3282 52.7641 12.3282C53.4593 12.3282 54.1262 12.608 54.6179 13.1059C55.1093 13.6039 55.3855 14.2793 55.3855 14.9835V50.0943C55.3855 50.7987 55.1093 51.4741 54.6179 51.972C54.1262 52.4699 53.4593 52.7495 52.7641 52.7495C52.0686 52.7495 51.4017 52.4699 50.9103 51.972C50.4186 51.4741 50.1424 50.7987 50.1424 50.0943V14.9835ZM69.2741 0.500219H10.1674C8.87955 0.491549 7.60262 0.740254 6.40975 1.23209C5.21686 1.72394 4.13151 2.44926 3.21579 3.36652C2.30007 4.28379 1.57199 5.37496 1.07322 6.57763C0.574451 7.78027 0.314798 9.07074 0.309128 10.3752V69.625C0.314798 70.9292 0.574451 72.2199 1.07322 73.4225C1.57199 74.6249 2.30007 75.7163 3.21579 76.6335C4.13151 77.5506 5.21686 78.2762 6.40975 78.7679C7.60262 79.2599 8.87955 79.5083 10.1674 79.4996H69.2741C70.56 79.5083 71.8352 79.2606 73.0265 78.7699C74.2183 78.2797 75.3024 77.5562 76.2179 76.6411C77.1334 75.7264 77.8621 74.6377 78.3621 73.4374C78.8621 72.2375 79.1238 70.9493 79.1324 69.6468V10.3752C79.1265 9.07261 78.8676 7.78394 78.3703 6.58272C77.8728 5.38151 77.1465 4.29131 76.2331 3.37431C75.32 2.45734 74.2369 1.73156 73.0466 1.23842C71.8562 0.745285 70.5817 0.494443 69.2955 0.500219" fill="#081D34"/>
</g>
</g>
<defs>
<clipPath id="clip0_10065_2549">
<rect width="80" height="80" fill="white"/>
</clipPath>
<clipPath id="clip1_10065_2549">
<rect width="80" height="79" fill="white" transform="translate(0 0.5)"/>
</clipPath>
</defs>
</svg>
