<svg width="600" height="450" viewBox="0 0 600 450" fill="none" xmlns="http://www.w3.org/2000/svg">
<path fill-rule="evenodd" clip-rule="evenodd" d="M146.719 190.39C158.224 149.24 180.296 110.872 215.77 88.7753C254.023 64.9473 302.134 50.3453 341.599 68.9976C379.229 86.783 384.296 137.135 401.272 176.449C417.789 214.7 446.708 249.936 437.765 291.706C427.999 337.316 396.389 380.121 354.201 396.29C314.485 411.511 275.048 386.134 237.33 368.525C204.754 353.316 172.415 336.475 155.702 303.618C138.21 269.231 136.024 228.642 146.719 190.39Z" fill="#E2F0FF"/>
<g filter="url(#filter0_d_6449_43455)">
<path d="M128 168.305C128 163.886 131.582 160.305 136 160.305H450C454.418 160.305 458 163.886 458 168.305V216.305C458 220.723 454.418 224.305 450 224.305H136C131.582 224.305 128 220.723 128 216.305V168.305Z" fill="white"/>
<rect x="144" y="172.305" width="40" height="40" rx="20" fill="white"/>
<rect x="145.25" y="173.555" width="37.5" height="37.5" rx="18.75" fill="#4CD9D9" fill-opacity="0.16"/>
<rect x="145.25" y="173.555" width="37.5" height="37.5" rx="18.75" stroke="white" stroke-width="2.5"/>
<path d="M157.986 197.805H154.042V186.168H158.065C159.22 186.168 160.213 186.401 161.042 186.867C161.876 187.329 162.516 187.994 162.963 188.862C163.41 189.729 163.633 190.767 163.633 191.975C163.633 193.187 163.408 194.229 162.957 195.1C162.51 195.971 161.864 196.64 161.02 197.106C160.179 197.572 159.167 197.805 157.986 197.805ZM156.15 195.981H157.883C158.694 195.981 159.37 195.833 159.912 195.538C160.453 195.238 160.861 194.793 161.133 194.202C161.406 193.608 161.542 192.865 161.542 191.975C161.542 191.085 161.406 190.346 161.133 189.759C160.861 189.168 160.457 188.727 159.923 188.435C159.393 188.14 158.734 187.992 157.946 187.992H156.15V195.981ZM165.956 197.805V186.168H170.32C171.214 186.168 171.964 186.335 172.57 186.668C173.18 187.002 173.64 187.46 173.95 188.043C174.265 188.623 174.422 189.282 174.422 190.021C174.422 190.767 174.265 191.43 173.95 192.009C173.636 192.589 173.172 193.045 172.558 193.379C171.945 193.708 171.189 193.873 170.291 193.873H167.399V192.14H170.007C170.53 192.14 170.958 192.049 171.291 191.867C171.625 191.685 171.871 191.435 172.03 191.117C172.193 190.799 172.274 190.433 172.274 190.021C172.274 189.608 172.193 189.244 172.03 188.93C171.871 188.615 171.623 188.371 171.286 188.197C170.952 188.019 170.522 187.93 169.996 187.93H168.064V197.805H165.956Z" fill="#212528"/>
<circle cx="177.5" cy="205.305" r="4" fill="#29A653"/>
<circle cx="177.5" cy="205.305" r="4" stroke="white"/>
<path d="M195.75 207.924C195.108 207.924 194.561 207.749 194.109 207.4C193.658 207.048 193.313 206.538 193.074 205.87C192.835 205.2 192.716 204.39 192.716 203.441C192.716 202.498 192.835 201.692 193.074 201.025C193.315 200.354 193.662 199.843 194.114 199.491C194.568 199.136 195.114 198.958 195.75 198.958C196.386 198.958 196.93 199.136 197.382 199.491C197.837 199.843 198.183 200.354 198.422 201.025C198.663 201.692 198.784 202.498 198.784 203.441C198.784 204.39 198.665 205.2 198.426 205.87C198.188 206.538 197.842 207.048 197.391 207.4C196.939 207.749 196.392 207.924 195.75 207.924ZM195.75 206.987C196.386 206.987 196.881 206.68 197.233 206.066C197.585 205.452 197.761 204.577 197.761 203.441C197.761 202.685 197.68 202.042 197.518 201.511C197.359 200.979 197.129 200.575 196.828 200.296C196.53 200.018 196.17 199.879 195.75 199.879C195.119 199.879 194.626 200.19 194.271 200.812C193.916 201.431 193.739 202.308 193.739 203.441C193.739 204.197 193.818 204.839 193.977 205.367C194.136 205.896 194.365 206.298 194.663 206.573C194.964 206.849 195.327 206.987 195.75 206.987ZM203.25 207.924C202.608 207.924 202.061 207.749 201.609 207.4C201.158 207.048 200.813 206.538 200.574 205.87C200.335 205.2 200.216 204.39 200.216 203.441C200.216 202.498 200.335 201.692 200.574 201.025C200.815 200.354 201.162 199.843 201.614 199.491C202.068 199.136 202.614 198.958 203.25 198.958C203.886 198.958 204.43 199.136 204.882 199.491C205.337 199.843 205.683 200.354 205.922 201.025C206.163 201.692 206.284 202.498 206.284 203.441C206.284 204.39 206.165 205.2 205.926 205.87C205.688 206.538 205.342 207.048 204.891 207.4C204.439 207.749 203.892 207.924 203.25 207.924ZM203.25 206.987C203.886 206.987 204.381 206.68 204.733 206.066C205.085 205.452 205.261 204.577 205.261 203.441C205.261 202.685 205.18 202.042 205.018 201.511C204.859 200.979 204.629 200.575 204.328 200.296C204.03 200.018 203.67 199.879 203.25 199.879C202.619 199.879 202.126 200.19 201.771 200.812C201.416 201.431 201.239 202.308 201.239 203.441C201.239 204.197 201.318 204.839 201.477 205.367C201.636 205.896 201.865 206.298 202.163 206.573C202.464 206.849 202.827 206.987 203.25 206.987ZM210.699 207.924C210.114 207.924 209.597 207.82 209.148 207.613C208.702 207.403 208.354 207.114 208.104 206.748C207.854 206.379 207.73 205.958 207.733 205.487C207.73 205.117 207.803 204.776 207.95 204.464C208.098 204.148 208.3 203.886 208.555 203.675C208.814 203.462 209.102 203.327 209.42 203.271V203.219C209.003 203.112 208.67 202.877 208.423 202.516C208.176 202.153 208.054 201.739 208.057 201.276C208.054 200.833 208.166 200.437 208.393 200.087C208.621 199.738 208.933 199.462 209.331 199.261C209.732 199.059 210.188 198.958 210.699 198.958C211.205 198.958 211.656 199.059 212.054 199.261C212.452 199.462 212.764 199.738 212.991 200.087C213.222 200.437 213.338 200.833 213.341 201.276C213.338 201.739 213.212 202.153 212.962 202.516C212.714 202.877 212.386 203.112 211.977 203.219V203.271C212.293 203.327 212.577 203.462 212.83 203.675C213.082 203.886 213.284 204.148 213.435 204.464C213.585 204.776 213.662 205.117 213.665 205.487C213.662 205.958 213.534 206.379 213.281 206.748C213.031 207.114 212.683 207.403 212.237 207.613C211.794 207.82 211.281 207.924 210.699 207.924ZM210.699 206.987C211.094 206.987 211.435 206.923 211.722 206.795C212.009 206.667 212.23 206.487 212.386 206.254C212.543 206.021 212.622 205.748 212.625 205.435C212.622 205.106 212.537 204.815 212.369 204.562C212.202 204.309 211.973 204.11 211.683 203.965C211.396 203.82 211.068 203.748 210.699 203.748C210.327 203.748 209.994 203.82 209.702 203.965C209.412 204.11 209.183 204.309 209.016 204.562C208.851 204.815 208.77 205.106 208.773 205.435C208.77 205.748 208.845 206.021 208.999 206.254C209.155 206.487 209.378 206.667 209.668 206.795C209.957 206.923 210.301 206.987 210.699 206.987ZM210.699 202.844C211.011 202.844 211.288 202.782 211.53 202.657C211.774 202.532 211.966 202.357 212.105 202.133C212.244 201.908 212.315 201.646 212.318 201.344C212.315 201.049 212.246 200.792 212.109 200.573C211.973 200.352 211.784 200.181 211.543 200.062C211.301 199.94 211.02 199.879 210.699 199.879C210.372 199.879 210.087 199.94 209.842 200.062C209.598 200.181 209.409 200.352 209.276 200.573C209.142 200.792 209.077 201.049 209.08 201.344C209.077 201.646 209.143 201.908 209.28 202.133C209.419 202.357 209.611 202.532 209.855 202.657C210.099 202.782 210.381 202.844 210.699 202.844Z" fill="#5D6164"/>
<path d="M197.091 189.805H193.148V178.168H197.17C198.326 178.168 199.318 178.401 200.148 178.867C200.981 179.329 201.621 179.994 202.068 180.862C202.515 181.729 202.739 182.767 202.739 183.975C202.739 185.187 202.513 186.229 202.062 187.1C201.616 187.971 200.97 188.64 200.125 189.106C199.284 189.572 198.273 189.805 197.091 189.805ZM195.256 187.981H196.989C197.799 187.981 198.475 187.833 199.017 187.538C199.559 187.238 199.966 186.793 200.239 186.202C200.511 185.608 200.648 184.865 200.648 183.975C200.648 183.085 200.511 182.346 200.239 181.759C199.966 181.168 199.563 180.727 199.028 180.435C198.498 180.14 197.839 179.992 197.051 179.992H195.256V187.981ZM207.162 189.981C206.609 189.981 206.111 189.882 205.668 189.685C205.228 189.485 204.88 189.189 204.622 188.799C204.368 188.409 204.241 187.928 204.241 187.356C204.241 186.863 204.332 186.456 204.514 186.134C204.696 185.812 204.944 185.555 205.259 185.362C205.573 185.168 205.927 185.022 206.321 184.924C206.719 184.822 207.13 184.748 207.554 184.702C208.065 184.649 208.48 184.602 208.798 184.56C209.116 184.515 209.348 184.447 209.491 184.356C209.639 184.261 209.713 184.115 209.713 183.918V183.884C209.713 183.456 209.586 183.125 209.332 182.89C209.079 182.655 208.713 182.538 208.236 182.538C207.732 182.538 207.332 182.647 207.037 182.867C206.745 183.087 206.548 183.346 206.446 183.646L204.526 183.373C204.677 182.843 204.927 182.399 205.276 182.043C205.624 181.683 206.05 181.415 206.554 181.237C207.058 181.055 207.615 180.964 208.224 180.964C208.645 180.964 209.063 181.013 209.48 181.112C209.897 181.21 210.277 181.373 210.622 181.6C210.967 181.824 211.243 182.129 211.452 182.515C211.664 182.901 211.77 183.384 211.77 183.964V189.805H209.793V188.606H209.724C209.599 188.848 209.423 189.076 209.196 189.288C208.973 189.496 208.69 189.665 208.349 189.793C208.012 189.918 207.616 189.981 207.162 189.981ZM207.696 188.469C208.109 188.469 208.467 188.388 208.77 188.225C209.073 188.058 209.306 187.839 209.469 187.566C209.635 187.293 209.719 186.996 209.719 186.674V185.646C209.654 185.699 209.545 185.748 209.389 185.793C209.238 185.839 209.067 185.879 208.878 185.913C208.688 185.947 208.501 185.977 208.315 186.004C208.13 186.03 207.969 186.053 207.832 186.072C207.526 186.113 207.251 186.182 207.009 186.276C206.766 186.371 206.575 186.504 206.435 186.674C206.295 186.841 206.224 187.057 206.224 187.322C206.224 187.701 206.363 187.987 206.639 188.18C206.916 188.373 207.268 188.469 207.696 188.469ZM221.321 181.077L218.213 189.805H215.94L212.832 181.077H215.026L217.031 187.56H217.122L219.134 181.077H221.321ZM222.744 189.805V181.077H224.801V189.805H222.744ZM223.778 179.839C223.453 179.839 223.172 179.731 222.938 179.515C222.703 179.295 222.585 179.032 222.585 178.725C222.585 178.415 222.703 178.151 222.938 177.935C223.172 177.716 223.453 177.606 223.778 177.606C224.108 177.606 224.388 177.716 224.619 177.935C224.854 178.151 224.972 178.415 224.972 178.725C224.972 179.032 224.854 179.295 224.619 179.515C224.388 179.731 224.108 179.839 223.778 179.839ZM230.155 189.958C229.469 189.958 228.856 189.782 228.314 189.43C227.772 189.077 227.344 188.566 227.03 187.896C226.715 187.225 226.558 186.411 226.558 185.452C226.558 184.483 226.717 183.665 227.036 182.998C227.357 182.327 227.791 181.822 228.337 181.481C228.882 181.136 229.49 180.964 230.161 180.964C230.672 180.964 231.092 181.051 231.422 181.225C231.751 181.396 232.013 181.602 232.206 181.844C232.399 182.083 232.549 182.308 232.655 182.521H232.74V178.168H234.803V189.805H232.78V188.43H232.655C232.549 188.642 232.395 188.867 232.195 189.106C231.994 189.341 231.729 189.541 231.399 189.708C231.07 189.875 230.655 189.958 230.155 189.958ZM230.729 188.271C231.164 188.271 231.536 188.153 231.842 187.918C232.149 187.68 232.382 187.348 232.541 186.924C232.7 186.5 232.78 186.005 232.78 185.441C232.78 184.877 232.7 184.386 232.541 183.969C232.386 183.553 232.155 183.229 231.848 182.998C231.545 182.767 231.172 182.651 230.729 182.651C230.27 182.651 229.888 182.771 229.581 183.009C229.274 183.248 229.043 183.577 228.888 183.998C228.732 184.418 228.655 184.899 228.655 185.441C228.655 185.987 228.732 186.473 228.888 186.901C229.047 187.326 229.28 187.661 229.587 187.907C229.897 188.149 230.278 188.271 230.729 188.271ZM241.054 189.805V178.168H245.418C246.312 178.168 247.062 178.335 247.668 178.668C248.277 179.002 248.738 179.46 249.048 180.043C249.363 180.623 249.52 181.282 249.52 182.021C249.52 182.767 249.363 183.43 249.048 184.009C248.734 184.589 248.27 185.045 247.656 185.379C247.043 185.708 246.287 185.873 245.389 185.873H242.497V184.14H245.105C245.628 184.14 246.056 184.049 246.389 183.867C246.723 183.685 246.969 183.435 247.128 183.117C247.291 182.799 247.372 182.433 247.372 182.021C247.372 181.608 247.291 181.244 247.128 180.93C246.969 180.615 246.721 180.371 246.384 180.197C246.05 180.019 245.62 179.93 245.094 179.93H243.162V189.805H241.054ZM254.999 189.975C254.124 189.975 253.368 189.793 252.732 189.43C252.099 189.062 251.612 188.543 251.271 187.873C250.93 187.199 250.76 186.405 250.76 185.492C250.76 184.594 250.93 183.807 251.271 183.129C251.616 182.447 252.097 181.916 252.714 181.538C253.332 181.155 254.057 180.964 254.891 180.964C255.429 180.964 255.936 181.051 256.413 181.225C256.894 181.396 257.319 181.661 257.686 182.021C258.057 182.38 258.349 182.839 258.561 183.396C258.773 183.949 258.879 184.608 258.879 185.373V186.004H251.726V184.617H256.908C256.904 184.223 256.819 183.873 256.652 183.566C256.485 183.255 256.252 183.011 255.953 182.833C255.658 182.655 255.313 182.566 254.919 182.566C254.499 182.566 254.129 182.668 253.811 182.873C253.493 183.074 253.245 183.339 253.067 183.668C252.893 183.994 252.804 184.352 252.8 184.742V185.952C252.8 186.46 252.893 186.896 253.078 187.259C253.264 187.619 253.523 187.896 253.857 188.089C254.19 188.278 254.58 188.373 255.027 188.373C255.326 188.373 255.597 188.331 255.839 188.248C256.082 188.161 256.292 188.034 256.47 187.867C256.648 187.701 256.783 187.494 256.874 187.248L258.794 187.464C258.673 187.971 258.442 188.415 258.101 188.793C257.764 189.168 257.332 189.46 256.805 189.668C256.279 189.873 255.677 189.975 254.999 189.975ZM264.977 181.077V182.668H259.96V181.077H264.977ZM261.199 178.987H263.256V187.18C263.256 187.456 263.297 187.668 263.381 187.816C263.468 187.96 263.581 188.058 263.722 188.112C263.862 188.165 264.017 188.191 264.188 188.191C264.316 188.191 264.434 188.182 264.54 188.163C264.65 188.144 264.733 188.127 264.79 188.112L265.136 189.719C265.027 189.757 264.869 189.799 264.665 189.844C264.464 189.89 264.218 189.916 263.926 189.924C263.411 189.939 262.947 189.862 262.534 189.691C262.121 189.517 261.794 189.248 261.551 188.884C261.313 188.521 261.195 188.066 261.199 187.521V178.987ZM270.467 189.975C269.592 189.975 268.837 189.793 268.2 189.43C267.568 189.062 267.081 188.543 266.74 187.873C266.399 187.199 266.229 186.405 266.229 185.492C266.229 184.594 266.399 183.807 266.74 183.129C267.085 182.447 267.566 181.916 268.183 181.538C268.801 181.155 269.526 180.964 270.359 180.964C270.897 180.964 271.405 181.051 271.882 181.225C272.363 181.396 272.787 181.661 273.155 182.021C273.526 182.38 273.818 182.839 274.03 183.396C274.242 183.949 274.348 184.608 274.348 185.373V186.004H267.195V184.617H272.376C272.373 184.223 272.287 183.873 272.121 183.566C271.954 183.255 271.721 183.011 271.422 182.833C271.126 182.655 270.782 182.566 270.388 182.566C269.967 182.566 269.598 182.668 269.28 182.873C268.962 183.074 268.714 183.339 268.536 183.668C268.361 183.994 268.272 184.352 268.268 184.742V185.952C268.268 186.46 268.361 186.896 268.547 187.259C268.732 187.619 268.992 187.896 269.325 188.089C269.659 188.278 270.049 188.373 270.496 188.373C270.795 188.373 271.066 188.331 271.308 188.248C271.551 188.161 271.761 188.034 271.939 187.867C272.117 187.701 272.251 187.494 272.342 187.248L274.263 187.464C274.142 187.971 273.911 188.415 273.57 188.793C273.232 189.168 272.801 189.46 272.274 189.668C271.748 189.873 271.145 189.975 270.467 189.975ZM276.088 189.805V181.077H278.082V182.532H278.173C278.332 182.028 278.605 181.64 278.991 181.367C279.382 181.091 279.827 180.952 280.327 180.952C280.44 180.952 280.567 180.958 280.707 180.969C280.851 180.977 280.971 180.99 281.065 181.009V182.901C280.978 182.871 280.84 182.844 280.651 182.822C280.465 182.795 280.285 182.782 280.111 182.782C279.736 182.782 279.399 182.863 279.099 183.026C278.804 183.185 278.571 183.407 278.401 183.691C278.23 183.975 278.145 184.303 278.145 184.674V189.805H276.088ZM289.33 183.384L287.455 183.589C287.402 183.399 287.309 183.221 287.176 183.055C287.047 182.888 286.873 182.754 286.653 182.651C286.434 182.549 286.165 182.498 285.847 182.498C285.419 182.498 285.059 182.591 284.767 182.776C284.479 182.962 284.337 183.202 284.341 183.498C284.337 183.752 284.43 183.958 284.619 184.117C284.813 184.276 285.131 184.407 285.574 184.509L287.062 184.827C287.888 185.005 288.502 185.288 288.903 185.674C289.309 186.06 289.513 186.566 289.517 187.191C289.513 187.74 289.352 188.225 289.034 188.646C288.72 189.062 288.282 189.388 287.722 189.623C287.161 189.858 286.517 189.975 285.79 189.975C284.722 189.975 283.862 189.752 283.21 189.305C282.559 188.854 282.17 188.227 282.045 187.424L284.051 187.231C284.142 187.625 284.335 187.922 284.631 188.123C284.926 188.324 285.311 188.424 285.784 188.424C286.273 188.424 286.665 188.324 286.96 188.123C287.259 187.922 287.409 187.674 287.409 187.379C287.409 187.129 287.313 186.922 287.119 186.759C286.93 186.596 286.634 186.471 286.233 186.384L284.744 186.072C283.907 185.897 283.288 185.604 282.886 185.191C282.485 184.774 282.286 184.248 282.29 183.612C282.286 183.074 282.432 182.608 282.727 182.214C283.027 181.816 283.441 181.509 283.972 181.293C284.506 181.074 285.121 180.964 285.818 180.964C286.841 180.964 287.646 181.182 288.233 181.617C288.824 182.053 289.189 182.642 289.33 183.384ZM295.02 189.975C294.168 189.975 293.429 189.788 292.804 189.413C292.179 189.038 291.694 188.513 291.349 187.839C291.009 187.165 290.838 186.377 290.838 185.475C290.838 184.574 291.009 183.784 291.349 183.106C291.694 182.428 292.179 181.901 292.804 181.526C293.429 181.151 294.168 180.964 295.02 180.964C295.872 180.964 296.611 181.151 297.236 181.526C297.861 181.901 298.344 182.428 298.685 183.106C299.029 183.784 299.202 184.574 299.202 185.475C299.202 186.377 299.029 187.165 298.685 187.839C298.344 188.513 297.861 189.038 297.236 189.413C296.611 189.788 295.872 189.975 295.02 189.975ZM295.031 188.327C295.493 188.327 295.88 188.201 296.19 187.947C296.501 187.689 296.732 187.344 296.884 186.913C297.039 186.481 297.116 186 297.116 185.469C297.116 184.935 297.039 184.452 296.884 184.021C296.732 183.585 296.501 183.238 296.19 182.981C295.88 182.723 295.493 182.594 295.031 182.594C294.558 182.594 294.164 182.723 293.849 182.981C293.539 183.238 293.306 183.585 293.151 184.021C292.999 184.452 292.923 184.935 292.923 185.469C292.923 186 292.999 186.481 293.151 186.913C293.306 187.344 293.539 187.689 293.849 187.947C294.164 188.201 294.558 188.327 295.031 188.327ZM303.004 184.691V189.805H300.947V181.077H302.913V182.56H303.016C303.216 182.072 303.536 181.683 303.976 181.396C304.419 181.108 304.966 180.964 305.618 180.964C306.22 180.964 306.745 181.093 307.192 181.35C307.643 181.608 307.991 181.981 308.237 182.469C308.487 182.958 308.61 183.551 308.607 184.248V189.805H306.55V184.566C306.55 183.983 306.398 183.526 306.095 183.197C305.796 182.867 305.381 182.702 304.851 182.702C304.491 182.702 304.171 182.782 303.891 182.941C303.614 183.096 303.396 183.322 303.237 183.617C303.082 183.913 303.004 184.271 303.004 184.691Z" fill="#3F4346"/>
<line x1="317.5" y1="207.305" x2="317.5" y2="177.305" stroke="#D5D9DC"/>
<rect x="326" y="174.305" width="36" height="36" rx="18" fill="#4DA0FF" fill-opacity="0.16"/>
<path d="M339.45 186.471C339.5 187.213 339.625 187.938 339.825 188.63L338.825 189.63C338.483 188.63 338.267 187.571 338.192 186.471H339.45ZM347.667 196.488C348.375 196.688 349.1 196.813 349.833 196.863V198.105C348.733 198.03 347.675 197.813 346.667 197.48L347.667 196.488ZM340.25 184.805H337.333C336.875 184.805 336.5 185.18 336.5 185.638C336.5 193.463 342.842 199.805 350.667 199.805C351.125 199.805 351.5 199.43 351.5 198.971V196.063C351.5 195.605 351.125 195.23 350.667 195.23C349.633 195.23 348.625 195.063 347.692 194.755C347.608 194.721 347.517 194.713 347.433 194.713C347.217 194.713 347.008 194.796 346.842 194.955L345.008 196.788C342.65 195.58 340.717 193.655 339.517 191.296L341.35 189.463C341.583 189.23 341.65 188.905 341.558 188.613C341.25 187.68 341.083 186.68 341.083 185.638C341.083 185.18 340.708 184.805 340.25 184.805Z" fill="#1E75BA"/>
<rect x="366" y="174.305" width="36" height="36" rx="18" fill="white"/>
<path d="M388.167 191.055V188.138C388.167 187.68 387.792 187.305 387.333 187.305H377.333C376.875 187.305 376.5 187.68 376.5 188.138V196.471C376.5 196.93 376.875 197.305 377.333 197.305H387.333C387.792 197.305 388.167 196.93 388.167 196.471V193.555L391.5 196.888V187.721L388.167 191.055ZM386.5 195.638H378.167V188.971H386.5V195.638ZM381.5 194.805H383.167V193.138H384.833V191.471H383.167V189.805H381.5V191.471H379.833V193.138H381.5V194.805Z" fill="#5D6164"/>
<rect x="406" y="174.305" width="36" height="36" rx="18" fill="white"/>
<path d="M430.667 197.305C431.583 197.305 432.325 196.555 432.325 195.638L432.333 187.305C432.333 186.38 431.583 185.638 430.667 185.638H417.333C416.408 185.638 415.667 186.38 415.667 187.305V195.638C415.667 196.555 416.408 197.305 417.333 197.305H414V198.971H434V197.305H430.667ZM417.333 195.638V187.305H430.667V195.646L417.333 195.638ZM424.833 189.913C421.592 190.363 420.3 192.58 419.833 194.805C420.992 193.246 422.517 192.538 424.833 192.538V194.363L428.167 191.246L424.833 188.138V189.913Z" fill="#5D6164"/>
</g>
<g filter="url(#filter1_d_6449_43455)">
<rect x="298" y="263.305" width="156" height="38" rx="19" fill="white" shape-rendering="crispEdges"/>
<path d="M319.856 288.545C318.709 288.545 317.736 288.291 316.936 287.785C316.136 287.278 315.525 286.574 315.104 285.673C314.688 284.771 314.48 283.729 314.48 282.545C314.48 281.361 314.688 280.318 315.104 279.417C315.525 278.515 316.136 277.811 316.936 277.305C317.736 276.798 318.709 276.545 319.856 276.545C321.189 276.545 322.285 276.883 323.144 277.561C324.008 278.238 324.603 279.15 324.928 280.297L323.48 280.681C323.245 279.822 322.827 279.145 322.224 278.649C321.621 278.153 320.832 277.905 319.856 277.905C318.997 277.905 318.283 278.099 317.712 278.489C317.141 278.878 316.712 279.422 316.424 280.121C316.136 280.814 315.989 281.622 315.984 282.545C315.979 283.462 316.12 284.27 316.408 284.969C316.696 285.662 317.128 286.206 317.704 286.601C318.28 286.99 318.997 287.185 319.856 287.185C320.832 287.185 321.621 286.937 322.224 286.441C322.827 285.939 323.245 285.262 323.48 284.409L324.928 284.793C324.603 285.934 324.008 286.846 323.144 287.529C322.285 288.206 321.189 288.545 319.856 288.545ZM332.835 288.305V283.977C332.835 283.566 332.797 283.171 332.723 282.793C332.653 282.414 332.528 282.075 332.347 281.777C332.171 281.473 331.931 281.233 331.627 281.057C331.328 280.881 330.949 280.793 330.491 280.793C330.133 280.793 329.808 280.854 329.515 280.977C329.227 281.094 328.979 281.275 328.771 281.521C328.563 281.766 328.4 282.075 328.283 282.449C328.171 282.817 328.115 283.251 328.115 283.753L327.179 283.465C327.179 282.627 327.328 281.91 327.627 281.313C327.931 280.71 328.355 280.249 328.899 279.929C329.448 279.603 330.093 279.441 330.835 279.441C331.395 279.441 331.872 279.529 332.267 279.705C332.661 279.881 332.989 280.115 333.251 280.409C333.512 280.697 333.717 281.022 333.867 281.385C334.016 281.742 334.12 282.107 334.179 282.481C334.243 282.849 334.275 283.198 334.275 283.529V288.305H332.835ZM326.675 288.305V276.785H327.955V283.145H328.115V288.305H326.675ZM338.81 288.545C338.165 288.545 337.624 288.427 337.186 288.193C336.754 287.953 336.426 287.638 336.202 287.249C335.984 286.859 335.874 286.433 335.874 285.969C335.874 285.515 335.96 285.123 336.13 284.793C336.306 284.457 336.552 284.179 336.866 283.961C337.181 283.737 337.557 283.561 337.994 283.433C338.405 283.321 338.864 283.225 339.37 283.145C339.882 283.059 340.4 282.982 340.922 282.913C341.445 282.843 341.933 282.777 342.386 282.713L341.874 283.009C341.89 282.241 341.736 281.673 341.41 281.305C341.09 280.937 340.536 280.753 339.746 280.753C339.224 280.753 338.765 280.873 338.37 281.113C337.981 281.347 337.706 281.731 337.546 282.265L336.194 281.857C336.402 281.099 336.805 280.505 337.402 280.073C338 279.641 338.786 279.425 339.762 279.425C340.546 279.425 341.218 279.566 341.778 279.849C342.344 280.126 342.749 280.547 342.994 281.113C343.117 281.379 343.194 281.67 343.226 281.985C343.258 282.294 343.274 282.619 343.274 282.961V288.305H342.01V286.233L342.306 286.425C341.981 287.123 341.525 287.651 340.938 288.009C340.357 288.366 339.648 288.545 338.81 288.545ZM339.026 287.353C339.538 287.353 339.981 287.262 340.354 287.081C340.733 286.894 341.037 286.651 341.266 286.353C341.496 286.049 341.645 285.718 341.714 285.361C341.794 285.094 341.837 284.798 341.842 284.473C341.853 284.142 341.858 283.889 341.858 283.713L342.354 283.929C341.89 283.993 341.434 284.054 340.986 284.113C340.538 284.171 340.114 284.235 339.714 284.305C339.314 284.369 338.954 284.446 338.634 284.537C338.4 284.611 338.178 284.707 337.97 284.825C337.768 284.942 337.602 285.094 337.474 285.281C337.352 285.462 337.29 285.689 337.29 285.961C337.29 286.195 337.349 286.419 337.466 286.633C337.589 286.846 337.776 287.019 338.026 287.153C338.282 287.286 338.616 287.353 339.026 287.353ZM355.682 288.305L355.69 282.777C355.69 282.131 355.517 281.627 355.17 281.265C354.829 280.897 354.384 280.713 353.834 280.713C353.514 280.713 353.21 280.787 352.922 280.937C352.634 281.081 352.4 281.31 352.218 281.625C352.037 281.934 351.946 282.331 351.946 282.817L351.194 282.513C351.184 281.899 351.309 281.363 351.57 280.905C351.837 280.441 352.2 280.081 352.658 279.825C353.117 279.569 353.634 279.441 354.21 279.441C355.112 279.441 355.821 279.715 356.338 280.265C356.856 280.809 357.114 281.542 357.114 282.465L357.106 288.305H355.682ZM345.346 288.305V279.665H346.618V281.977H346.778V288.305H345.346ZM350.522 288.305L350.53 282.833C350.53 282.171 350.36 281.654 350.018 281.281C349.677 280.902 349.224 280.713 348.658 280.713C348.098 280.713 347.645 280.905 347.298 281.289C346.952 281.673 346.778 282.182 346.778 282.817L346.026 282.369C346.026 281.809 346.16 281.307 346.426 280.865C346.693 280.422 347.056 280.075 347.514 279.825C347.973 279.569 348.493 279.441 349.074 279.441C349.656 279.441 350.162 279.563 350.594 279.809C351.026 280.054 351.36 280.406 351.594 280.865C351.829 281.318 351.946 281.859 351.946 282.489L351.938 288.305H350.522ZM361.654 288.545C361.009 288.545 360.467 288.427 360.03 288.193C359.598 287.953 359.27 287.638 359.046 287.249C358.827 286.859 358.718 286.433 358.718 285.969C358.718 285.515 358.803 285.123 358.974 284.793C359.15 284.457 359.395 284.179 359.71 283.961C360.025 283.737 360.401 283.561 360.838 283.433C361.249 283.321 361.707 283.225 362.214 283.145C362.726 283.059 363.243 282.982 363.766 282.913C364.289 282.843 364.777 282.777 365.23 282.713L364.718 283.009C364.734 282.241 364.579 281.673 364.254 281.305C363.934 280.937 363.379 280.753 362.59 280.753C362.067 280.753 361.609 280.873 361.214 281.113C360.825 281.347 360.55 281.731 360.39 282.265L359.038 281.857C359.246 281.099 359.649 280.505 360.246 280.073C360.843 279.641 361.63 279.425 362.606 279.425C363.39 279.425 364.062 279.566 364.622 279.849C365.187 280.126 365.593 280.547 365.838 281.113C365.961 281.379 366.038 281.67 366.07 281.985C366.102 282.294 366.118 282.619 366.118 282.961V288.305H364.854V286.233L365.15 286.425C364.825 287.123 364.369 287.651 363.782 288.009C363.201 288.366 362.491 288.545 361.654 288.545ZM361.87 287.353C362.382 287.353 362.825 287.262 363.198 287.081C363.577 286.894 363.881 286.651 364.11 286.353C364.339 286.049 364.489 285.718 364.558 285.361C364.638 285.094 364.681 284.798 364.686 284.473C364.697 284.142 364.702 283.889 364.702 283.713L365.198 283.929C364.734 283.993 364.278 284.054 363.83 284.113C363.382 284.171 362.958 284.235 362.558 284.305C362.158 284.369 361.798 284.446 361.478 284.537C361.243 284.611 361.022 284.707 360.814 284.825C360.611 284.942 360.446 285.094 360.318 285.281C360.195 285.462 360.134 285.689 360.134 285.961C360.134 286.195 360.193 286.419 360.31 286.633C360.433 286.846 360.619 287.019 360.87 287.153C361.126 287.286 361.459 287.353 361.87 287.353ZM371.59 288.545C370.785 288.545 370.094 288.345 369.518 287.945C368.942 287.539 368.497 286.993 368.182 286.305C367.873 285.617 367.718 284.841 367.718 283.977C367.718 283.113 367.873 282.337 368.182 281.649C368.497 280.961 368.942 280.419 369.518 280.025C370.094 279.625 370.782 279.425 371.582 279.425C372.398 279.425 373.083 279.622 373.638 280.017C374.193 280.411 374.611 280.953 374.894 281.641C375.182 282.329 375.326 283.107 375.326 283.977C375.326 284.835 375.182 285.611 374.894 286.305C374.611 286.993 374.193 287.539 373.638 287.945C373.083 288.345 372.401 288.545 371.59 288.545ZM371.766 287.241C372.347 287.241 372.825 287.102 373.198 286.825C373.571 286.542 373.846 286.155 374.022 285.665C374.203 285.169 374.294 284.606 374.294 283.977C374.294 283.337 374.203 282.774 374.022 282.289C373.846 281.798 373.574 281.417 373.206 281.145C372.838 280.867 372.371 280.729 371.806 280.729C371.219 280.729 370.734 280.873 370.35 281.161C369.971 281.449 369.689 281.838 369.502 282.329C369.321 282.819 369.23 283.369 369.23 283.977C369.23 284.59 369.323 285.145 369.51 285.641C369.697 286.131 369.977 286.521 370.35 286.809C370.729 287.097 371.201 287.241 371.766 287.241ZM374.294 288.305V281.945H374.134V276.785H375.566V288.305H374.294ZM380.264 288.545C379.618 288.545 379.077 288.427 378.64 288.193C378.208 287.953 377.88 287.638 377.656 287.249C377.437 286.859 377.328 286.433 377.328 285.969C377.328 285.515 377.413 285.123 377.584 284.793C377.76 284.457 378.005 284.179 378.32 283.961C378.634 283.737 379.01 283.561 379.448 283.433C379.858 283.321 380.317 283.225 380.824 283.145C381.336 283.059 381.853 282.982 382.376 282.913C382.898 282.843 383.386 282.777 383.84 282.713L383.328 283.009C383.344 282.241 383.189 281.673 382.864 281.305C382.544 280.937 381.989 280.753 381.2 280.753C380.677 280.753 380.218 280.873 379.824 281.113C379.434 281.347 379.16 281.731 379 282.265L377.648 281.857C377.856 281.099 378.258 280.505 378.856 280.073C379.453 279.641 380.24 279.425 381.216 279.425C382 279.425 382.672 279.566 383.232 279.849C383.797 280.126 384.202 280.547 384.448 281.113C384.57 281.379 384.648 281.67 384.68 281.985C384.712 282.294 384.727 282.619 384.727 282.961V288.305H383.464V286.233L383.76 286.425C383.434 287.123 382.978 287.651 382.392 288.009C381.81 288.366 381.101 288.545 380.264 288.545ZM380.48 287.353C380.992 287.353 381.434 287.262 381.808 287.081C382.186 286.894 382.49 286.651 382.72 286.353C382.949 286.049 383.098 285.718 383.168 285.361C383.248 285.094 383.29 284.798 383.296 284.473C383.306 284.142 383.312 283.889 383.312 283.713L383.808 283.929C383.344 283.993 382.888 284.054 382.44 284.113C381.992 284.171 381.568 284.235 381.168 284.305C380.768 284.369 380.408 284.446 380.088 284.537C379.853 284.611 379.632 284.707 379.424 284.825C379.221 284.942 379.056 285.094 378.928 285.281C378.805 285.462 378.743 285.689 378.743 285.961C378.743 286.195 378.802 286.419 378.92 286.633C379.042 286.846 379.229 287.019 379.48 287.153C379.736 287.286 380.069 287.353 380.48 287.353ZM393.403 288.545C392.597 288.545 391.907 288.345 391.331 287.945C390.755 287.539 390.309 286.993 389.995 286.305C389.685 285.617 389.531 284.841 389.531 283.977C389.531 283.113 389.685 282.337 389.995 281.649C390.309 280.961 390.755 280.419 391.331 280.025C391.907 279.625 392.595 279.425 393.395 279.425C394.211 279.425 394.896 279.622 395.451 280.017C396.005 280.411 396.424 280.953 396.707 281.641C396.995 282.329 397.139 283.107 397.139 283.977C397.139 284.835 396.995 285.611 396.707 286.305C396.424 286.993 396.005 287.539 395.451 287.945C394.896 288.345 394.213 288.545 393.403 288.545ZM393.579 287.241C394.16 287.241 394.637 287.102 395.011 286.825C395.384 286.542 395.659 286.155 395.835 285.665C396.016 285.169 396.107 284.606 396.107 283.977C396.107 283.337 396.016 282.774 395.835 282.289C395.659 281.798 395.387 281.417 395.019 281.145C394.651 280.867 394.184 280.729 393.619 280.729C393.032 280.729 392.547 280.873 392.163 281.161C391.784 281.449 391.501 281.838 391.315 282.329C391.133 282.819 391.043 283.369 391.043 283.977C391.043 284.59 391.136 285.145 391.323 285.641C391.509 286.131 391.789 286.521 392.163 286.809C392.541 287.097 393.013 287.241 393.579 287.241ZM396.107 288.305V281.945H395.947V276.785H397.379V288.305H396.107ZM403.364 288.545C402.516 288.545 401.775 288.358 401.14 287.985C400.511 287.606 400.02 287.081 399.668 286.409C399.316 285.731 399.14 284.942 399.14 284.041C399.14 283.097 399.313 282.281 399.66 281.593C400.007 280.899 400.489 280.366 401.108 279.993C401.732 279.614 402.463 279.425 403.3 279.425C404.169 279.425 404.908 279.625 405.516 280.025C406.129 280.425 406.588 280.995 406.892 281.737C407.201 282.478 407.335 283.361 407.292 284.385H405.852V283.873C405.836 282.811 405.62 282.019 405.204 281.497C404.788 280.969 404.169 280.705 403.348 280.705C402.468 280.705 401.799 280.987 401.34 281.553C400.881 282.118 400.652 282.929 400.652 283.985C400.652 285.003 400.881 285.793 401.34 286.353C401.799 286.913 402.452 287.193 403.3 287.193C403.871 287.193 404.367 287.062 404.788 286.801C405.209 286.539 405.54 286.163 405.78 285.673L407.148 286.145C406.812 286.907 406.305 287.499 405.628 287.921C404.956 288.337 404.201 288.545 403.364 288.545ZM400.172 284.385V283.241H406.556V284.385H400.172ZM414.612 288.305L411.476 279.665H412.916L415.34 286.489L417.756 279.665H419.204L416.068 288.305H414.612ZM424.019 288.545C423.16 288.545 422.419 288.35 421.795 287.961C421.176 287.571 420.699 287.033 420.363 286.345C420.027 285.657 419.859 284.867 419.859 283.977C419.859 283.07 420.029 282.275 420.371 281.593C420.712 280.91 421.195 280.379 421.819 280.001C422.443 279.617 423.176 279.425 424.019 279.425C424.883 279.425 425.627 279.619 426.251 280.009C426.875 280.393 427.352 280.929 427.683 281.617C428.019 282.299 428.187 283.086 428.187 283.977C428.187 284.878 428.019 285.673 427.683 286.361C427.347 287.043 426.867 287.579 426.243 287.969C425.619 288.353 424.877 288.545 424.019 288.545ZM424.019 287.193C424.915 287.193 425.581 286.894 426.019 286.297C426.456 285.699 426.675 284.926 426.675 283.977C426.675 283.001 426.453 282.225 426.011 281.649C425.568 281.067 424.904 280.777 424.019 280.777C423.416 280.777 422.92 280.913 422.531 281.185C422.141 281.457 421.851 281.833 421.659 282.313C421.467 282.793 421.371 283.347 421.371 283.977C421.371 284.947 421.595 285.726 422.043 286.313C422.491 286.899 423.149 287.193 424.019 287.193ZM428.836 288.305V288.049L434.076 280.961H429.268V279.665H436.372V279.937L431.14 287.009H436.1V288.305H428.836Z" fill="#212528"/>
</g>
<path d="M345 214.305C345 213.752 344.552 213.305 344 213.305C343.448 213.305 343 213.752 343 214.305H345ZM375.293 260.012C375.683 260.402 376.317 260.402 376.707 260.012L383.071 253.648C383.462 253.257 383.462 252.624 383.071 252.234C382.681 251.843 382.047 251.843 381.657 252.234L376 257.89L370.343 252.234C369.953 251.843 369.319 251.843 368.929 252.234C368.538 252.624 368.538 253.257 368.929 253.648L375.293 260.012ZM343 214.305V220.805H345V214.305H343ZM375 252.805V259.305H377V252.805H375ZM360 237.805C368.284 237.805 375 244.52 375 252.805H377C377 243.416 369.389 235.805 360 235.805V237.805ZM343 220.805C343 230.194 350.611 237.805 360 237.805V235.805C351.716 235.805 345 229.089 345 220.805H343Z" fill="#8F9396"/>
<rect x="185" y="341" width="375" height="36" rx="4" fill="#1E75BA"/>
<mask id="mask0_6449_43455" style="mask-type:alpha" maskUnits="userSpaceOnUse" x="201" y="348" width="18" height="18">
<rect x="201" y="348" width="18" height="18" fill="#D9D9D9"/>
</mask>
<g mask="url(#mask0_6449_43455)">
<path d="M205.05 363L204 361.95L212.7 353.25H207.75V351.75H215.25V359.25H213.75V354.3L205.05 363Z" fill="white"/>
</g>
<path d="M231.636 362.955V355.455H232.909V362.955H231.636ZM228.523 359.841V358.568H236.023V359.841H228.523ZM242.456 353.205C242.933 353.208 243.411 353.299 243.888 353.477C244.365 353.655 244.801 353.951 245.195 354.364C245.589 354.773 245.905 355.331 246.143 356.04C246.382 356.748 246.501 357.636 246.501 358.705C246.501 359.739 246.403 360.657 246.206 361.46C246.013 362.259 245.732 362.934 245.365 363.483C245.001 364.032 244.558 364.449 244.036 364.733C243.517 365.017 242.929 365.159 242.274 365.159C241.623 365.159 241.041 365.03 240.53 364.773C240.022 364.511 239.606 364.15 239.28 363.688C238.958 363.222 238.751 362.682 238.661 362.068H240.047C240.172 362.602 240.42 363.044 240.791 363.392C241.166 363.737 241.661 363.909 242.274 363.909C243.172 363.909 243.88 363.517 244.399 362.733C244.922 361.949 245.183 360.841 245.183 359.409H245.092C244.88 359.727 244.628 360.002 244.337 360.233C244.045 360.464 243.721 360.642 243.365 360.767C243.009 360.892 242.63 360.955 242.229 360.955C241.562 360.955 240.95 360.79 240.393 360.46C239.84 360.127 239.397 359.67 239.064 359.091C238.734 358.508 238.57 357.841 238.57 357.091C238.57 356.379 238.729 355.727 239.047 355.136C239.369 354.542 239.82 354.068 240.399 353.716C240.982 353.364 241.668 353.193 242.456 353.205ZM242.456 354.455C241.979 354.455 241.549 354.574 241.166 354.812C240.787 355.047 240.486 355.366 240.263 355.767C240.043 356.165 239.933 356.606 239.933 357.091C239.933 357.576 240.039 358.017 240.251 358.415C240.467 358.809 240.761 359.123 241.132 359.358C241.507 359.589 241.933 359.705 242.411 359.705C242.77 359.705 243.106 359.634 243.416 359.494C243.727 359.35 243.998 359.155 244.229 358.909C244.464 358.659 244.647 358.377 244.78 358.062C244.912 357.744 244.979 357.413 244.979 357.068C244.979 356.614 244.869 356.187 244.649 355.79C244.433 355.392 244.134 355.07 243.751 354.824C243.373 354.578 242.941 354.455 242.456 354.455ZM252.827 353.364V365H251.418V354.841H251.349L248.509 356.727V355.295L251.418 353.364H252.827ZM259.878 353.205C260.355 353.208 260.832 353.299 261.31 353.477C261.787 353.655 262.223 353.951 262.616 354.364C263.01 354.773 263.327 355.331 263.565 356.04C263.804 356.748 263.923 357.636 263.923 358.705C263.923 359.739 263.825 360.657 263.628 361.46C263.435 362.259 263.154 362.934 262.787 363.483C262.423 364.032 261.98 364.449 261.457 364.733C260.938 365.017 260.351 365.159 259.696 365.159C259.045 365.159 258.463 365.03 257.952 364.773C257.444 364.511 257.027 364.15 256.702 363.688C256.38 363.222 256.173 362.682 256.082 362.068H257.469C257.594 362.602 257.842 363.044 258.213 363.392C258.588 363.737 259.082 363.909 259.696 363.909C260.594 363.909 261.302 363.517 261.821 362.733C262.344 361.949 262.605 360.841 262.605 359.409H262.514C262.302 359.727 262.05 360.002 261.759 360.233C261.467 360.464 261.143 360.642 260.787 360.767C260.431 360.892 260.052 360.955 259.651 360.955C258.984 360.955 258.372 360.79 257.815 360.46C257.262 360.127 256.819 359.67 256.486 359.091C256.156 358.508 255.991 357.841 255.991 357.091C255.991 356.379 256.151 355.727 256.469 355.136C256.791 354.542 257.241 354.068 257.821 353.716C258.404 353.364 259.09 353.193 259.878 353.205ZM259.878 354.455C259.401 354.455 258.971 354.574 258.588 354.812C258.209 355.047 257.908 355.366 257.685 355.767C257.465 356.165 257.355 356.606 257.355 357.091C257.355 357.576 257.461 358.017 257.673 358.415C257.889 358.809 258.183 359.123 258.554 359.358C258.929 359.589 259.355 359.705 259.832 359.705C260.192 359.705 260.527 359.634 260.838 359.494C261.149 359.35 261.42 359.155 261.651 358.909C261.885 358.659 262.069 358.377 262.202 358.062C262.334 357.744 262.401 357.413 262.401 357.068C262.401 356.614 262.291 356.187 262.071 355.79C261.855 355.392 261.556 355.07 261.173 354.824C260.795 354.578 260.363 354.455 259.878 354.455ZM269.794 365.159C269.127 365.159 268.527 365.027 267.993 364.761C267.459 364.496 267.031 364.133 266.709 363.67C266.387 363.208 266.211 362.682 266.18 362.091H267.544C267.597 362.617 267.836 363.053 268.26 363.398C268.688 363.739 269.199 363.909 269.794 363.909C270.271 363.909 270.696 363.797 271.067 363.574C271.442 363.35 271.735 363.044 271.947 362.653C272.163 362.259 272.271 361.814 272.271 361.318C272.271 360.811 272.16 360.358 271.936 359.96C271.716 359.559 271.413 359.242 271.027 359.011C270.641 358.78 270.199 358.663 269.703 358.659C269.347 358.655 268.982 358.71 268.607 358.824C268.232 358.934 267.923 359.076 267.68 359.25L266.362 359.091L267.067 353.364H273.112V354.614H268.249L267.839 358.045H267.908C268.146 357.856 268.446 357.699 268.805 357.574C269.165 357.449 269.54 357.386 269.93 357.386C270.643 357.386 271.277 357.557 271.834 357.898C272.394 358.235 272.834 358.697 273.152 359.284C273.474 359.871 273.635 360.542 273.635 361.295C273.635 362.038 273.468 362.701 273.135 363.284C272.805 363.864 272.351 364.322 271.771 364.659C271.192 364.992 270.533 365.159 269.794 365.159ZM275.892 365V363.977L279.733 359.773C280.184 359.28 280.555 358.852 280.847 358.489C281.138 358.121 281.354 357.777 281.494 357.455C281.638 357.129 281.71 356.788 281.71 356.432C281.71 356.023 281.612 355.669 281.415 355.369C281.222 355.07 280.956 354.839 280.619 354.676C280.282 354.513 279.903 354.432 279.483 354.432C279.036 354.432 278.646 354.525 278.312 354.71C277.983 354.892 277.727 355.148 277.545 355.477C277.367 355.807 277.278 356.193 277.278 356.636H275.938C275.938 355.955 276.095 355.356 276.409 354.841C276.723 354.326 277.152 353.924 277.693 353.636C278.239 353.348 278.85 353.205 279.528 353.205C280.21 353.205 280.814 353.348 281.341 353.636C281.867 353.924 282.28 354.312 282.58 354.801C282.879 355.29 283.028 355.833 283.028 356.432C283.028 356.86 282.951 357.278 282.795 357.688C282.644 358.093 282.379 358.545 282 359.045C281.625 359.542 281.104 360.148 280.438 360.864L277.824 363.659V363.75H283.233V365H275.892ZM286.602 356.273L288.693 359.841L290.784 356.273H292.33L289.511 360.636L292.33 365H290.784L288.693 361.614L286.602 365H285.057L287.83 360.636L285.057 356.273H286.602ZM295.243 356.273L297.334 359.841L299.425 356.273H300.97L298.152 360.636L300.97 365H299.425L297.334 361.614L295.243 365H293.697L296.47 360.636L293.697 356.273H295.243ZM303.884 356.273L305.974 359.841L308.065 356.273H309.611L306.793 360.636L309.611 365H308.065L305.974 361.614L303.884 365H302.338L305.111 360.636L302.338 356.273H303.884ZM312.524 356.273L314.615 359.841L316.706 356.273H318.251L315.433 360.636L318.251 365H316.706L314.615 361.614L312.524 365H310.979L313.751 360.636L310.979 356.273H312.524ZM323.938 365.159C323.081 365.159 322.352 364.926 321.75 364.46C321.148 363.991 320.688 363.311 320.369 362.42C320.051 361.527 319.892 360.447 319.892 359.182C319.892 357.924 320.051 356.85 320.369 355.96C320.691 355.066 321.153 354.384 321.756 353.915C322.362 353.441 323.089 353.205 323.938 353.205C324.786 353.205 325.511 353.441 326.114 353.915C326.72 354.384 327.182 355.066 327.5 355.96C327.822 356.85 327.983 357.924 327.983 359.182C327.983 360.447 327.824 361.527 327.506 362.42C327.188 363.311 326.727 363.991 326.125 364.46C325.523 364.926 324.794 365.159 323.938 365.159ZM323.938 363.909C324.786 363.909 325.445 363.5 325.915 362.682C326.384 361.864 326.619 360.697 326.619 359.182C326.619 358.174 326.511 357.316 326.295 356.608C326.083 355.9 325.777 355.36 325.375 354.989C324.977 354.617 324.498 354.432 323.938 354.432C323.097 354.432 322.439 354.847 321.966 355.676C321.492 356.502 321.256 357.67 321.256 359.182C321.256 360.189 321.362 361.045 321.574 361.75C321.786 362.455 322.091 362.991 322.489 363.358C322.89 363.725 323.373 363.909 323.938 363.909ZM330.142 365V363.977L333.983 359.773C334.434 359.28 334.805 358.852 335.097 358.489C335.388 358.121 335.604 357.777 335.744 357.455C335.888 357.129 335.96 356.788 335.96 356.432C335.96 356.023 335.862 355.669 335.665 355.369C335.472 355.07 335.206 354.839 334.869 354.676C334.532 354.513 334.153 354.432 333.733 354.432C333.286 354.432 332.896 354.525 332.562 354.71C332.233 354.892 331.977 355.148 331.795 355.477C331.617 355.807 331.528 356.193 331.528 356.636H330.188C330.188 355.955 330.345 355.356 330.659 354.841C330.973 354.326 331.402 353.924 331.943 353.636C332.489 353.348 333.1 353.205 333.778 353.205C334.46 353.205 335.064 353.348 335.591 353.636C336.117 353.924 336.53 354.312 336.83 354.801C337.129 355.29 337.278 355.833 337.278 356.432C337.278 356.86 337.201 357.278 337.045 357.688C336.894 358.093 336.629 358.545 336.25 359.045C335.875 359.542 335.354 360.148 334.688 360.864L332.074 363.659V363.75H337.483V365H330.142Z" fill="white"/>
<path d="M360 365.159C359.144 365.159 358.415 364.926 357.812 364.46C357.21 363.991 356.75 363.311 356.432 362.42C356.114 361.527 355.955 360.447 355.955 359.182C355.955 357.924 356.114 356.85 356.432 355.96C356.754 355.066 357.216 354.384 357.818 353.915C358.424 353.441 359.152 353.205 360 353.205C360.848 353.205 361.574 353.441 362.176 353.915C362.782 354.384 363.244 355.066 363.562 355.96C363.884 356.85 364.045 357.924 364.045 359.182C364.045 360.447 363.886 361.527 363.568 362.42C363.25 363.311 362.79 363.991 362.188 364.46C361.585 364.926 360.856 365.159 360 365.159ZM360 363.909C360.848 363.909 361.508 363.5 361.977 362.682C362.447 361.864 362.682 360.697 362.682 359.182C362.682 358.174 362.574 357.316 362.358 356.608C362.146 355.9 361.839 355.36 361.438 354.989C361.04 354.617 360.561 354.432 360 354.432C359.159 354.432 358.502 354.847 358.028 355.676C357.555 356.502 357.318 357.67 357.318 359.182C357.318 360.189 357.424 361.045 357.636 361.75C357.848 362.455 358.153 362.991 358.551 363.358C358.953 363.725 359.436 363.909 360 363.909ZM365.932 362.614V361.455L371.045 353.364H371.886V355.159H371.318L367.455 361.273V361.364H374.341V362.614H365.932ZM371.409 365V362.261V361.722V353.364H372.75V365H371.409ZM377.47 363.511C377.19 363.511 376.949 363.411 376.749 363.21C376.548 363.009 376.447 362.769 376.447 362.489C376.447 362.208 376.548 361.968 376.749 361.767C376.949 361.566 377.19 361.466 377.47 361.466C377.75 361.466 377.991 361.566 378.192 361.767C378.393 361.968 378.493 362.208 378.493 362.489C378.493 362.674 378.446 362.845 378.351 363C378.26 363.155 378.137 363.28 377.982 363.375C377.83 363.466 377.66 363.511 377.47 363.511ZM377.47 357.625C377.19 357.625 376.949 357.525 376.749 357.324C376.548 357.123 376.447 356.883 376.447 356.602C376.447 356.322 376.548 356.081 376.749 355.881C376.949 355.68 377.19 355.58 377.47 355.58C377.75 355.58 377.991 355.68 378.192 355.881C378.393 356.081 378.493 356.322 378.493 356.602C378.493 356.788 378.446 356.958 378.351 357.114C378.26 357.269 378.137 357.394 377.982 357.489C377.83 357.58 377.66 357.625 377.47 357.625ZM380.876 365V363.977L384.717 359.773C385.168 359.28 385.539 358.852 385.831 358.489C386.123 358.121 386.339 357.777 386.479 357.455C386.623 357.129 386.695 356.788 386.695 356.432C386.695 356.023 386.596 355.669 386.399 355.369C386.206 355.07 385.941 354.839 385.604 354.676C385.267 354.513 384.888 354.432 384.467 354.432C384.02 354.432 383.63 354.525 383.297 354.71C382.967 354.892 382.712 355.148 382.53 355.477C382.352 355.807 382.263 356.193 382.263 356.636H380.922C380.922 355.955 381.079 355.356 381.393 354.841C381.708 354.326 382.136 353.924 382.678 353.636C383.223 353.348 383.835 353.205 384.513 353.205C385.195 353.205 385.799 353.348 386.325 353.636C386.852 353.924 387.265 354.312 387.564 354.801C387.863 355.29 388.013 355.833 388.013 356.432C388.013 356.86 387.935 357.278 387.78 357.688C387.628 358.093 387.363 358.545 386.984 359.045C386.609 359.542 386.089 360.148 385.422 360.864L382.808 363.659V363.75H388.217V365H380.876ZM394.2 365.159C393.534 365.159 392.933 365.027 392.399 364.761C391.865 364.496 391.437 364.133 391.115 363.67C390.793 363.208 390.617 362.682 390.587 362.091H391.95C392.003 362.617 392.242 363.053 392.666 363.398C393.094 363.739 393.606 363.909 394.2 363.909C394.678 363.909 395.102 363.797 395.473 363.574C395.848 363.35 396.142 363.044 396.354 362.653C396.57 362.259 396.678 361.814 396.678 361.318C396.678 360.811 396.566 360.358 396.342 359.96C396.123 359.559 395.82 359.242 395.433 359.011C395.047 358.78 394.606 358.663 394.109 358.659C393.753 358.655 393.388 358.71 393.013 358.824C392.638 358.934 392.329 359.076 392.087 359.25L390.768 359.091L391.473 353.364H397.518V354.614H392.655L392.246 358.045H392.314C392.553 357.856 392.852 357.699 393.212 357.574C393.571 357.449 393.946 357.386 394.337 357.386C395.049 357.386 395.683 357.557 396.24 357.898C396.801 358.235 397.24 358.697 397.558 359.284C397.88 359.871 398.041 360.542 398.041 361.295C398.041 362.038 397.875 362.701 397.541 363.284C397.212 363.864 396.757 364.322 396.178 364.659C395.598 364.992 394.939 365.159 394.2 365.159Z" fill="white"/>
<rect x="416" y="346" width="26" height="26" rx="13" fill="#E2F0FF"/>
<mask id="mask1_6449_43455" style="mask-type:alpha" maskUnits="userSpaceOnUse" x="420" y="350" width="18" height="18">
<rect x="420" y="350" width="18" height="18" fill="#D9D9D9"/>
</mask>
<g mask="url(#mask1_6449_43455)">
<path d="M433.763 361.212L432.675 360.125C432.85 359.837 432.981 359.538 433.069 359.225C433.156 358.913 433.2 358.588 433.2 358.25H434.7C434.7 358.8 434.619 359.322 434.456 359.815C434.294 360.309 434.062 360.775 433.763 361.212ZM431.55 358.962L430.2 357.612V353.75C430.2 353.537 430.128 353.359 429.985 353.215C429.841 353.072 429.663 353 429.45 353C429.238 353 429.06 353.072 428.916 353.215C428.772 353.359 428.7 353.537 428.7 353.75V356.112L427.2 354.613V353.75C427.2 353.125 427.419 352.594 427.856 352.156C428.294 351.719 428.825 351.5 429.45 351.5C430.075 351.5 430.606 351.719 431.044 352.156C431.481 352.594 431.7 353.125 431.7 353.75V358.25C431.7 358.387 431.684 358.512 431.653 358.625C431.622 358.738 431.588 358.85 431.55 358.962ZM428.7 365.75V363.444C427.4 363.269 426.325 362.688 425.475 361.7C424.625 360.713 424.2 359.562 424.2 358.25H425.7C425.7 359.287 426.059 360.172 426.778 360.903C427.497 361.634 428.388 362 429.45 362C429.875 362 430.278 361.934 430.66 361.804C431.041 361.672 430.347 362.378 430.66 362.14L432.769 362.319C432.406 362.606 432.01 362.85 431.579 363.05C431.147 363.25 430.688 363.381 430.2 363.444V365.75H428.7ZM435.3 366.95L421.5 353.15L422.55 352.1L436.35 365.9L435.3 366.95Z" fill="#1E75BA"/>
</g>
<rect x="450" y="346" width="26" height="26" rx="13" fill="#1258A3"/>
<mask id="mask2_6449_43455" style="mask-type:alpha" maskUnits="userSpaceOnUse" x="454" y="350" width="18" height="18">
<rect x="454" y="350" width="18" height="18" fill="#D9D9D9"/>
</mask>
<g mask="url(#mask2_6449_43455)">
<path d="M464.5 364.25V353.75H467.5V364.25H464.5ZM458.5 364.25V353.75H461.5V364.25H458.5Z" fill="white"/>
</g>
<rect x="484" y="346" width="26" height="26" rx="13" fill="#1E75BA"/>
<g clip-path="url(#clip0_6449_43455)">
<path d="M491 356H494V353H491V356ZM495.5 365H498.5V362H495.5V365ZM491 365H494V362H491V365ZM491 360.5H494V357.5H491V360.5ZM495.5 360.5H498.5V357.5H495.5V360.5ZM500 353V356H503V353H500ZM495.5 356H498.5V353H495.5V356ZM500 360.5H503V357.5H500V360.5ZM500 365H503V362H500V365Z" fill="white"/>
</g>
<rect x="518" y="346" width="26" height="26" rx="13" fill="#CC5229"/>
<mask id="mask3_6449_43455" style="mask-type:alpha" maskUnits="userSpaceOnUse" x="522" y="350" width="18" height="18">
<rect x="522" y="350" width="18" height="18" fill="#D9D9D9"/>
</mask>
<g mask="url(#mask3_6449_43455)">
<path d="M531 356C532.475 356 533.928 356.297 535.359 356.891C536.79 357.484 538.062 358.375 539.175 359.562C539.325 359.713 539.4 359.887 539.4 360.087C539.4 360.287 539.325 360.462 539.175 360.612L537.45 362.3C537.312 362.437 537.153 362.513 536.972 362.525C536.79 362.538 536.625 362.488 536.475 362.375L534 360.5V357.987C533.525 357.837 533.037 357.719 532.537 357.631C532.037 357.544 531.525 357.5 531 357.5C530.475 357.5 529.962 357.544 529.462 357.631C528.962 357.719 528.475 357.837 528 357.987V360.5L525.525 362.375C525.375 362.488 525.209 362.538 525.028 362.525C524.847 362.513 524.687 362.437 524.55 362.3L522.825 360.612C522.675 360.462 522.6 360.287 522.6 360.087C522.6 359.887 522.675 359.713 522.825 359.562C523.925 358.375 525.193 357.484 526.631 356.891C528.068 356.297 529.525 356 531 356ZM525.15 360.8L526.5 359.75V358.587C526.137 358.775 525.787 358.991 525.45 359.234C525.112 359.478 524.762 359.75 524.4 360.05L525.15 360.8ZM536.85 360.8L537.6 360.087C537.237 359.762 536.887 359.481 536.55 359.244C536.212 359.006 535.862 358.8 535.5 358.625V359.75L536.85 360.8Z" fill="white"/>
</g>
<rect x="40" y="84.3047" width="335" height="36" rx="4" fill="#1E75BA"/>
<mask id="mask4_6449_43455" style="mask-type:alpha" maskUnits="userSpaceOnUse" x="56" y="93" width="18" height="19">
<rect x="56" y="93.3047" width="18" height="18" fill="#D9D9D9"/>
</mask>
<g mask="url(#mask4_6449_43455)">
<path d="M60.05 108.305L59 107.255L67.7 98.5547H62.75V97.0547H70.25V104.555H68.75V99.6047L60.05 108.305Z" fill="white"/>
</g>
<path d="M86.6364 106.259V98.7592H87.9091V106.259H86.6364ZM83.5227 103.146V101.873H91.0227V103.146H83.5227ZM97.456 96.5092C97.9332 96.513 98.4105 96.6039 98.8878 96.782C99.3651 96.96 99.8007 97.2554 100.195 97.6683C100.589 98.0774 100.905 98.6361 101.143 99.3445C101.382 100.053 101.501 100.941 101.501 102.009C101.501 103.043 101.403 103.962 101.206 104.765C101.013 105.564 100.732 106.238 100.365 106.788C100.001 107.337 99.5582 107.754 99.0355 108.038C98.5166 108.322 97.9295 108.464 97.2741 108.464C96.6226 108.464 96.0412 108.335 95.5298 108.077C95.0223 107.816 94.6056 107.454 94.2798 106.992C93.9579 106.526 93.7514 105.987 93.6605 105.373H95.0469C95.1719 105.907 95.42 106.348 95.7912 106.697C96.1662 107.041 96.6605 107.214 97.2741 107.214C98.1719 107.214 98.8802 106.822 99.3991 106.038C99.9219 105.254 100.183 104.146 100.183 102.714H100.092C99.8802 103.032 99.6283 103.307 99.3366 103.538C99.045 103.769 98.7211 103.947 98.3651 104.072C98.009 104.197 97.6302 104.259 97.2287 104.259C96.562 104.259 95.9503 104.094 95.3935 103.765C94.8404 103.432 94.3973 102.975 94.0639 102.396C93.7344 101.812 93.5696 101.146 93.5696 100.396C93.5696 99.6835 93.7287 99.032 94.0469 98.4411C94.3688 97.8464 94.8196 97.3729 95.3991 97.0206C95.9825 96.6683 96.6681 96.4979 97.456 96.5092ZM97.456 97.7592C96.9787 97.7592 96.5488 97.8786 96.1662 98.1172C95.7874 98.352 95.4863 98.6702 95.2628 99.0717C95.0431 99.4695 94.9332 99.9107 94.9332 100.396C94.9332 100.88 95.0393 101.322 95.2514 101.719C95.4673 102.113 95.7609 102.428 96.1321 102.663C96.5071 102.894 96.9332 103.009 97.4105 103.009C97.7704 103.009 98.1056 102.939 98.4162 102.799C98.7268 102.655 98.9976 102.46 99.2287 102.214C99.4635 101.964 99.6473 101.682 99.7798 101.367C99.9124 101.049 99.9787 100.718 99.9787 100.373C99.9787 99.9183 99.8688 99.4922 99.6491 99.0945C99.4332 98.6967 99.134 98.3748 98.7514 98.1286C98.3726 97.8823 97.9408 97.7592 97.456 97.7592ZM107.827 96.6683V108.305H106.418V98.1456H106.349L103.509 100.032V98.6001L106.418 96.6683H107.827ZM114.878 96.5092C115.355 96.513 115.832 96.6039 116.31 96.782C116.787 96.96 117.223 97.2554 117.616 97.6683C118.01 98.0774 118.327 98.6361 118.565 99.3445C118.804 100.053 118.923 100.941 118.923 102.009C118.923 103.043 118.825 103.962 118.628 104.765C118.435 105.564 118.154 106.238 117.787 106.788C117.423 107.337 116.98 107.754 116.457 108.038C115.938 108.322 115.351 108.464 114.696 108.464C114.045 108.464 113.463 108.335 112.952 108.077C112.444 107.816 112.027 107.454 111.702 106.992C111.38 106.526 111.173 105.987 111.082 105.373H112.469C112.594 105.907 112.842 106.348 113.213 106.697C113.588 107.041 114.082 107.214 114.696 107.214C115.594 107.214 116.302 106.822 116.821 106.038C117.344 105.254 117.605 104.146 117.605 102.714H117.514C117.302 103.032 117.05 103.307 116.759 103.538C116.467 103.769 116.143 103.947 115.787 104.072C115.431 104.197 115.052 104.259 114.651 104.259C113.984 104.259 113.372 104.094 112.815 103.765C112.262 103.432 111.819 102.975 111.486 102.396C111.156 101.812 110.991 101.146 110.991 100.396C110.991 99.6835 111.151 99.032 111.469 98.4411C111.791 97.8464 112.241 97.3729 112.821 97.0206C113.404 96.6683 114.09 96.4979 114.878 96.5092ZM114.878 97.7592C114.401 97.7592 113.971 97.8786 113.588 98.1172C113.209 98.352 112.908 98.6702 112.685 99.0717C112.465 99.4695 112.355 99.9107 112.355 100.396C112.355 100.88 112.461 101.322 112.673 101.719C112.889 102.113 113.183 102.428 113.554 102.663C113.929 102.894 114.355 103.009 114.832 103.009C115.192 103.009 115.527 102.939 115.838 102.799C116.149 102.655 116.42 102.46 116.651 102.214C116.885 101.964 117.069 101.682 117.202 101.367C117.334 101.049 117.401 100.718 117.401 100.373C117.401 99.9183 117.291 99.4922 117.071 99.0945C116.855 98.6967 116.556 98.3748 116.173 98.1286C115.795 97.8823 115.363 97.7592 114.878 97.7592ZM124.794 108.464C124.127 108.464 123.527 108.331 122.993 108.066C122.459 107.801 122.031 107.437 121.709 106.975C121.387 106.513 121.211 105.987 121.18 105.396H122.544C122.597 105.922 122.836 106.358 123.26 106.702C123.688 107.043 124.199 107.214 124.794 107.214C125.271 107.214 125.696 107.102 126.067 106.879C126.442 106.655 126.735 106.348 126.947 105.958C127.163 105.564 127.271 105.119 127.271 104.623C127.271 104.115 127.16 103.663 126.936 103.265C126.716 102.863 126.413 102.547 126.027 102.316C125.641 102.085 125.199 101.968 124.703 101.964C124.347 101.96 123.982 102.015 123.607 102.129C123.232 102.238 122.923 102.38 122.68 102.555L121.362 102.396L122.067 96.6683H128.112V97.9183H123.249L122.839 101.35H122.908C123.146 101.161 123.446 101.004 123.805 100.879C124.165 100.754 124.54 100.691 124.93 100.691C125.643 100.691 126.277 100.862 126.834 101.202C127.394 101.54 127.834 102.002 128.152 102.589C128.474 103.176 128.635 103.846 128.635 104.6C128.635 105.343 128.468 106.005 128.135 106.589C127.805 107.168 127.351 107.627 126.771 107.964C126.192 108.297 125.533 108.464 124.794 108.464ZM130.892 108.305V107.282L134.733 103.077C135.184 102.585 135.555 102.157 135.847 101.793C136.138 101.426 136.354 101.081 136.494 100.759C136.638 100.433 136.71 100.093 136.71 99.7365C136.71 99.3274 136.612 98.9732 136.415 98.674C136.222 98.3748 135.956 98.1437 135.619 97.9808C135.282 97.8179 134.903 97.7365 134.483 97.7365C134.036 97.7365 133.646 97.8293 133.312 98.0149C132.983 98.1967 132.727 98.4524 132.545 98.782C132.367 99.1115 132.278 99.4979 132.278 99.9411H130.938C130.938 99.2592 131.095 98.6607 131.409 98.1456C131.723 97.6304 132.152 97.2289 132.693 96.9411C133.239 96.6532 133.85 96.5092 134.528 96.5092C135.21 96.5092 135.814 96.6532 136.341 96.9411C136.867 97.2289 137.28 97.6172 137.58 98.1058C137.879 98.5945 138.028 99.138 138.028 99.7365C138.028 100.165 137.951 100.583 137.795 100.992C137.644 101.397 137.379 101.85 137 102.35C136.625 102.846 136.104 103.452 135.438 104.168L132.824 106.964V107.055H138.233V108.305H130.892ZM141.602 99.5774L143.693 103.146L145.784 99.5774H147.33L144.511 103.941L147.33 108.305H145.784L143.693 104.918L141.602 108.305H140.057L142.83 103.941L140.057 99.5774H141.602ZM150.243 99.5774L152.334 103.146L154.425 99.5774H155.97L153.152 103.941L155.97 108.305H154.425L152.334 104.918L150.243 108.305H148.697L151.47 103.941L148.697 99.5774H150.243ZM158.884 99.5774L160.974 103.146L163.065 99.5774H164.611L161.793 103.941L164.611 108.305H163.065L160.974 104.918L158.884 108.305H157.338L160.111 103.941L157.338 99.5774H158.884ZM167.524 99.5774L169.615 103.146L171.706 99.5774H173.251L170.433 103.941L173.251 108.305H171.706L169.615 104.918L167.524 108.305H165.979L168.751 103.941L165.979 99.5774H167.524ZM178.938 108.464C178.081 108.464 177.352 108.231 176.75 107.765C176.148 107.295 175.688 106.615 175.369 105.725C175.051 104.831 174.892 103.752 174.892 102.487C174.892 101.229 175.051 100.155 175.369 99.2649C175.691 98.371 176.153 97.6892 176.756 97.2195C177.362 96.746 178.089 96.5092 178.938 96.5092C179.786 96.5092 180.511 96.746 181.114 97.2195C181.72 97.6892 182.182 98.371 182.5 99.2649C182.822 100.155 182.983 101.229 182.983 102.487C182.983 103.752 182.824 104.831 182.506 105.725C182.188 106.615 181.727 107.295 181.125 107.765C180.523 108.231 179.794 108.464 178.938 108.464ZM178.938 107.214C179.786 107.214 180.445 106.805 180.915 105.987C181.384 105.168 181.619 104.002 181.619 102.487C181.619 101.479 181.511 100.621 181.295 99.9126C181.083 99.2043 180.777 98.6645 180.375 98.2933C179.977 97.9221 179.498 97.7365 178.938 97.7365C178.097 97.7365 177.439 98.1513 176.966 98.9808C176.492 99.8066 176.256 100.975 176.256 102.487C176.256 103.494 176.362 104.35 176.574 105.055C176.786 105.759 177.091 106.295 177.489 106.663C177.89 107.03 178.373 107.214 178.938 107.214ZM185.142 108.305V107.282L188.983 103.077C189.434 102.585 189.805 102.157 190.097 101.793C190.388 101.426 190.604 101.081 190.744 100.759C190.888 100.433 190.96 100.093 190.96 99.7365C190.96 99.3274 190.862 98.9732 190.665 98.674C190.472 98.3748 190.206 98.1437 189.869 97.9808C189.532 97.8179 189.153 97.7365 188.733 97.7365C188.286 97.7365 187.896 97.8293 187.562 98.0149C187.233 98.1967 186.977 98.4524 186.795 98.782C186.617 99.1115 186.528 99.4979 186.528 99.9411H185.188C185.188 99.2592 185.345 98.6607 185.659 98.1456C185.973 97.6304 186.402 97.2289 186.943 96.9411C187.489 96.6532 188.1 96.5092 188.778 96.5092C189.46 96.5092 190.064 96.6532 190.591 96.9411C191.117 97.2289 191.53 97.6172 191.83 98.1058C192.129 98.5945 192.278 99.138 192.278 99.7365C192.278 100.165 192.201 100.583 192.045 100.992C191.894 101.397 191.629 101.85 191.25 102.35C190.875 102.846 190.354 103.452 189.688 104.168L187.074 106.964V107.055H192.483V108.305H185.142Z" fill="white"/>
<path d="M203.233 107.305V97.1229H209.378V98.2166H204.466V101.657H209.06V102.751H204.466V106.211H209.457V107.305H203.233ZM212.316 99.6683L214.146 102.79L215.975 99.6683H217.327L214.862 103.487L217.327 107.305H215.975L214.146 104.342L212.316 107.305H210.964L213.39 103.487L210.964 99.6683H212.316ZM222.323 99.6683V100.663H218.365V99.6683H222.323ZM219.519 97.8388H220.692V105.117C220.692 105.449 220.74 105.697 220.836 105.863C220.936 106.025 221.061 106.135 221.214 106.191C221.37 106.244 221.534 106.271 221.706 106.271C221.835 106.271 221.941 106.264 222.024 106.251C222.107 106.234 222.173 106.221 222.223 106.211L222.462 107.265C222.382 107.295 222.271 107.325 222.129 107.354C221.986 107.388 221.806 107.404 221.587 107.404C221.255 107.404 220.931 107.333 220.612 107.19C220.298 107.048 220.036 106.831 219.827 106.539C219.621 106.247 219.519 105.879 219.519 105.435V97.8388ZM224.088 107.305V99.6683H225.221V100.822H225.301C225.44 100.444 225.692 100.137 226.056 99.902C226.421 99.6667 226.832 99.549 227.289 99.549C227.375 99.549 227.483 99.5507 227.612 99.554C227.742 99.5573 227.839 99.5623 227.906 99.5689V100.762C227.866 100.752 227.775 100.737 227.632 100.717C227.493 100.694 227.346 100.683 227.19 100.683C226.819 100.683 226.487 100.76 226.195 100.916C225.907 101.069 225.678 101.281 225.509 101.553C225.344 101.821 225.261 102.128 225.261 102.472V107.305H224.088ZM232.166 107.464C231.477 107.464 230.872 107.3 230.352 106.972C229.835 106.643 229.43 106.184 229.139 105.594C228.85 105.004 228.706 104.315 228.706 103.526C228.706 102.731 228.85 102.036 229.139 101.443C229.43 100.85 229.835 100.389 230.352 100.061C230.872 99.733 231.477 99.5689 232.166 99.5689C232.856 99.5689 233.459 99.733 233.976 100.061C234.496 100.389 234.901 100.85 235.189 101.443C235.481 102.036 235.627 102.731 235.627 103.526C235.627 104.315 235.481 105.004 235.189 105.594C234.901 106.184 234.496 106.643 233.976 106.972C233.459 107.3 232.856 107.464 232.166 107.464ZM232.166 106.41C232.69 106.41 233.121 106.276 233.459 106.007C233.797 105.739 234.047 105.386 234.21 104.948C234.372 104.511 234.453 104.037 234.453 103.526C234.453 103.016 234.372 102.54 234.21 102.099C234.047 101.659 233.797 101.302 233.459 101.031C233.121 100.759 232.69 100.623 232.166 100.623C231.643 100.623 231.212 100.759 230.874 101.031C230.536 101.302 230.285 101.659 230.123 102.099C229.961 102.54 229.879 103.016 229.879 103.526C229.879 104.037 229.961 104.511 230.123 104.948C230.285 105.386 230.536 105.739 230.874 106.007C231.212 106.276 231.643 106.41 232.166 106.41ZM243.388 99.6683L240.565 107.305H239.371L236.548 99.6683H237.82L239.928 105.754H240.008L242.116 99.6683H243.388ZM247.865 107.464C247.13 107.464 246.495 107.301 245.961 106.977C245.431 106.648 245.022 106.191 244.733 105.604C244.448 105.014 244.306 104.328 244.306 103.546C244.306 102.764 244.448 102.075 244.733 101.478C245.022 100.878 245.423 100.411 245.936 100.076C246.453 99.7379 247.057 99.5689 247.746 99.5689C248.144 99.5689 248.537 99.6352 248.924 99.7678C249.312 99.9003 249.665 100.116 249.983 100.414C250.301 100.709 250.555 101.1 250.744 101.587C250.933 102.075 251.027 102.674 251.027 103.387V103.884H245.141V102.87H249.834C249.834 102.439 249.748 102.055 249.576 101.717C249.407 101.379 249.165 101.112 248.85 100.916C248.538 100.721 248.17 100.623 247.746 100.623C247.279 100.623 246.874 100.739 246.533 100.971C246.195 101.2 245.935 101.498 245.752 101.866C245.57 102.234 245.479 102.628 245.479 103.049V103.725C245.479 104.302 245.578 104.791 245.777 105.192C245.98 105.589 246.26 105.893 246.618 106.102C246.975 106.307 247.391 106.41 247.865 106.41C248.174 106.41 248.452 106.367 248.701 106.281C248.953 106.191 249.17 106.058 249.352 105.883C249.534 105.704 249.675 105.482 249.775 105.217L250.908 105.535C250.789 105.919 250.588 106.257 250.306 106.549C250.025 106.837 249.677 107.063 249.262 107.225C248.848 107.384 248.382 107.464 247.865 107.464ZM252.812 107.305V99.6683H253.946V100.822H254.025C254.164 100.444 254.416 100.137 254.781 99.902C255.145 99.6667 255.556 99.549 256.014 99.549C256.1 99.549 256.208 99.5507 256.337 99.554C256.466 99.5573 256.564 99.5623 256.63 99.5689V100.762C256.591 100.752 256.499 100.737 256.357 100.717C256.218 100.694 256.07 100.683 255.914 100.683C255.543 100.683 255.212 100.76 254.92 100.916C254.632 101.069 254.403 101.281 254.234 101.553C254.068 101.821 253.985 102.128 253.985 102.472V107.305H252.812ZM261.821 99.6683V100.663H257.863V99.6683H261.821ZM259.017 97.8388H260.19V105.117C260.19 105.449 260.238 105.697 260.334 105.863C260.434 106.025 260.56 106.135 260.712 106.191C260.868 106.244 261.032 106.271 261.204 106.271C261.333 106.271 261.44 106.264 261.522 106.251C261.605 106.234 261.672 106.221 261.721 106.211L261.96 107.265C261.88 107.295 261.769 107.325 261.627 107.354C261.484 107.388 261.304 107.404 261.085 107.404C260.753 107.404 260.429 107.333 260.11 107.19C259.796 107.048 259.534 106.831 259.325 106.539C259.119 106.247 259.017 105.879 259.017 105.435V97.8388ZM263.586 107.305V99.6683H264.759V107.305H263.586ZM264.182 98.3956C263.953 98.3956 263.756 98.3177 263.591 98.1619C263.428 98.0062 263.347 97.8189 263.347 97.6001C263.347 97.3814 263.428 97.1941 263.591 97.0384C263.756 96.8826 263.953 96.8047 264.182 96.8047C264.411 96.8047 264.606 96.8826 264.769 97.0384C264.935 97.1941 265.017 97.3814 265.017 97.6001C265.017 97.8189 264.935 98.0062 264.769 98.1619C264.606 98.3177 264.411 98.3956 264.182 98.3956ZM269.791 107.464C269.155 107.464 268.593 107.303 268.106 106.982C267.619 106.657 267.238 106.199 266.963 105.609C266.687 105.016 266.55 104.315 266.55 103.506C266.55 102.704 266.687 102.008 266.963 101.418C267.238 100.828 267.62 100.373 268.111 100.051C268.602 99.7296 269.168 99.5689 269.811 99.5689C270.308 99.5689 270.701 99.6518 270.99 99.8175C271.281 99.9799 271.503 100.165 271.656 100.374C271.811 100.58 271.932 100.749 272.019 100.881H272.118V97.1229H273.291V107.305H272.158V106.131H272.019C271.932 106.271 271.81 106.446 271.651 106.658C271.492 106.867 271.265 107.054 270.97 107.22C270.675 107.383 270.282 107.464 269.791 107.464ZM269.95 106.41C270.421 106.41 270.819 106.287 271.144 106.042C271.468 105.793 271.715 105.45 271.884 105.013C272.053 104.572 272.138 104.063 272.138 103.487C272.138 102.916 272.055 102.418 271.889 101.99C271.724 101.559 271.478 101.224 271.154 100.986C270.829 100.744 270.428 100.623 269.95 100.623C269.453 100.623 269.039 100.75 268.708 101.006C268.379 101.258 268.133 101.601 267.967 102.035C267.804 102.466 267.723 102.95 267.723 103.487C267.723 104.03 267.806 104.524 267.972 104.968C268.141 105.409 268.389 105.76 268.718 106.022C269.049 106.281 269.46 106.41 269.95 106.41ZM278.705 107.464C278.016 107.464 277.411 107.3 276.891 106.972C276.374 106.643 275.969 106.184 275.678 105.594C275.389 105.004 275.245 104.315 275.245 103.526C275.245 102.731 275.389 102.036 275.678 101.443C275.969 100.85 276.374 100.389 276.891 100.061C277.411 99.733 278.016 99.5689 278.705 99.5689C279.395 99.5689 279.998 99.733 280.515 100.061C281.035 100.389 281.44 100.85 281.728 101.443C282.02 102.036 282.166 102.731 282.166 103.526C282.166 104.315 282.02 105.004 281.728 105.594C281.44 106.184 281.035 106.643 280.515 106.972C279.998 107.3 279.395 107.464 278.705 107.464ZM278.705 106.41C279.229 106.41 279.66 106.276 279.998 106.007C280.336 105.739 280.586 105.386 280.749 104.948C280.911 104.511 280.992 104.037 280.992 103.526C280.992 103.016 280.911 102.54 280.749 102.099C280.586 101.659 280.336 101.302 279.998 101.031C279.66 100.759 279.229 100.623 278.705 100.623C278.182 100.623 277.751 100.759 277.413 101.031C277.075 101.302 276.825 101.659 276.662 102.099C276.5 102.54 276.419 103.016 276.419 103.526C276.419 104.037 276.5 104.511 276.662 104.948C276.825 105.386 277.075 105.739 277.413 106.007C277.751 106.276 278.182 106.41 278.705 106.41Z" fill="white"/>
<rect x="299" y="89.3047" width="26" height="26" rx="13" fill="#29A653"/>
<g clip-path="url(#clip1_6449_43455)">
<path d="M307.905 97.0547C307.95 97.7222 308.062 98.3747 308.242 98.9972L307.342 99.8972C307.035 98.9972 306.84 98.0447 306.773 97.0547H307.905ZM315.3 106.07C315.938 106.25 316.59 106.362 317.25 106.407V107.525C316.26 107.457 315.307 107.262 314.4 106.962L315.3 106.07ZM308.625 95.5547H306C305.587 95.5547 305.25 95.8922 305.25 96.3047C305.25 103.347 310.957 109.055 318 109.055C318.413 109.055 318.75 108.717 318.75 108.305V105.687C318.75 105.275 318.413 104.937 318 104.937C317.07 104.937 316.163 104.787 315.323 104.51C315.248 104.48 315.165 104.472 315.09 104.472C314.895 104.472 314.707 104.547 314.557 104.69L312.908 106.34C310.785 105.252 309.045 103.52 307.965 101.397L309.615 99.7472C309.825 99.5372 309.885 99.2447 309.802 98.9822C309.525 98.1422 309.375 97.2422 309.375 96.3047C309.375 95.8922 309.037 95.5547 308.625 95.5547Z" fill="white"/>
</g>
<rect x="333" y="89.3047" width="26" height="26" rx="13" fill="#CC5229"/>
<mask id="mask5_6449_43455" style="mask-type:alpha" maskUnits="userSpaceOnUse" x="337" y="93" width="18" height="19">
<rect x="337" y="93.3047" width="18" height="18" fill="#D9D9D9"/>
</mask>
<g mask="url(#mask5_6449_43455)">
<path d="M346 99.3047C347.475 99.3047 348.928 99.6017 350.359 100.196C351.79 100.789 353.062 101.68 354.175 102.867C354.325 103.017 354.4 103.192 354.4 103.392C354.4 103.592 354.325 103.767 354.175 103.917L352.45 105.605C352.312 105.742 352.153 105.817 351.972 105.83C351.79 105.842 351.625 105.792 351.475 105.68L349 103.805V101.292C348.525 101.142 348.037 101.023 347.537 100.936C347.037 100.848 346.525 100.805 346 100.805C345.475 100.805 344.962 100.848 344.462 100.936C343.962 101.023 343.475 101.142 343 101.292V103.805L340.525 105.68C340.375 105.792 340.209 105.842 340.028 105.83C339.847 105.817 339.687 105.742 339.55 105.605L337.825 103.917C337.675 103.767 337.6 103.592 337.6 103.392C337.6 103.192 337.675 103.017 337.825 102.867C338.925 101.68 340.193 100.789 341.631 100.196C343.068 99.6017 344.525 99.3047 346 99.3047ZM340.15 104.105L341.5 103.055V101.892C341.137 102.08 340.787 102.295 340.45 102.539C340.112 102.783 339.762 103.055 339.4 103.355L340.15 104.105ZM351.85 104.105L352.6 103.392C352.237 103.067 351.887 102.786 351.55 102.548C351.212 102.311 350.862 102.105 350.5 101.93V103.055L351.85 104.105Z" fill="white"/>
</g>
<g clip-path="url(#clip2_6449_43455)">
<path d="M128.333 355.139C127.697 351.883 126.105 348.891 123.76 346.545C121.414 344.199 118.422 342.607 115.166 341.972M141.666 355.139C140.915 348.374 137.885 342.067 133.076 337.251C128.267 332.436 121.963 329.399 115.199 328.639M88.5993 331.972H78.5993C77.671 331.968 76.7521 332.158 75.9015 332.53C75.0509 332.902 74.2874 333.448 73.6598 334.132C73.0322 334.816 72.5544 335.623 72.257 336.503C71.9596 337.382 71.8491 338.314 71.9327 339.239C73.0472 349.496 76.5522 359.349 82.166 368.005C87.2838 376.059 94.1121 382.887 102.166 388.005C110.862 393.639 120.763 397.144 131.066 398.239C131.988 398.322 132.917 398.212 133.794 397.917C134.671 397.621 135.477 397.147 136.161 396.523C136.844 395.899 137.39 395.139 137.764 394.293C138.138 393.446 138.332 392.531 138.333 391.605V381.605C138.349 379.988 137.776 378.419 136.721 377.193C135.666 375.966 134.201 375.165 132.599 374.939C129.399 374.516 126.257 373.734 123.233 372.605C122.04 372.157 120.743 372.06 119.496 372.326C118.25 372.591 117.106 373.209 116.199 374.105L111.966 378.339C103.621 373.593 96.7112 366.684 91.966 358.339L96.1993 354.105C97.0956 353.199 97.7132 352.055 97.979 350.808C98.2449 349.562 98.1478 348.265 97.6994 347.072C96.5709 344.048 95.7881 340.905 95.366 337.705C95.1376 336.086 94.322 334.607 93.0744 333.55C91.8267 332.493 90.2341 331.931 88.5993 331.972Z" stroke="#E2F0FF" stroke-width="8.83333" stroke-linecap="round" stroke-linejoin="round"/>
</g>
<path d="M510 119.75C504.063 119.75 499.25 114.937 499.25 109H490.75C490.75 119.631 499.369 128.25 510 128.25C520.631 128.25 529.25 119.631 529.25 109H520.75C520.75 114.937 515.937 119.75 510 119.75Z" fill="#E2F0FF"/>
<path d="M495.75 99V86.5H504.25V99H495.75Z" fill="#E2F0FF"/>
<path d="M515.75 99V86.5H524.25V99H515.75Z" fill="#E2F0FF"/>
<path fill-rule="evenodd" clip-rule="evenodd" d="M460 84C460 75.7157 466.716 69 475 69H545C553.284 69 560 75.7157 560 84V129C560 137.284 553.284 144 545 144H520V159L500 144H475C466.716 144 460 137.284 460 129V84ZM475 79H545C547.761 79 550 81.2386 550 84V129C550 131.761 547.761 134 545 134H475C472.239 134 470 131.761 470 129V84C470 81.2386 472.239 79 475 79Z" fill="#E2F0FF"/>
<defs>
<filter id="filter0_d_6449_43455" x="124" y="160.305" width="338" height="72" filterUnits="userSpaceOnUse" color-interpolation-filters="sRGB">
<feFlood flood-opacity="0" result="BackgroundImageFix"/>
<feColorMatrix in="SourceAlpha" type="matrix" values="0 0 0 0 0 0 0 0 0 0 0 0 0 0 0 0 0 0 127 0" result="hardAlpha"/>
<feOffset dy="4"/>
<feGaussianBlur stdDeviation="2"/>
<feComposite in2="hardAlpha" operator="out"/>
<feColorMatrix type="matrix" values="0 0 0 0 0 0 0 0 0 0 0 0 0 0 0 0 0 0 0.25 0"/>
<feBlend mode="normal" in2="BackgroundImageFix" result="effect1_dropShadow_6449_43455"/>
<feBlend mode="normal" in="SourceGraphic" in2="effect1_dropShadow_6449_43455" result="shape"/>
</filter>
<filter id="filter1_d_6449_43455" x="294" y="263.305" width="164" height="46" filterUnits="userSpaceOnUse" color-interpolation-filters="sRGB">
<feFlood flood-opacity="0" result="BackgroundImageFix"/>
<feColorMatrix in="SourceAlpha" type="matrix" values="0 0 0 0 0 0 0 0 0 0 0 0 0 0 0 0 0 0 127 0" result="hardAlpha"/>
<feOffset dy="4"/>
<feGaussianBlur stdDeviation="2"/>
<feComposite in2="hardAlpha" operator="out"/>
<feColorMatrix type="matrix" values="0 0 0 0 0 0 0 0 0 0 0 0 0 0 0 0 0 0 0.25 0"/>
<feBlend mode="normal" in2="BackgroundImageFix" result="effect1_dropShadow_6449_43455"/>
<feBlend mode="normal" in="SourceGraphic" in2="effect1_dropShadow_6449_43455" result="shape"/>
</filter>
<clipPath id="clip0_6449_43455">
<rect width="18" height="18" fill="white" transform="translate(488 350)"/>
</clipPath>
<clipPath id="clip1_6449_43455">
<rect width="18" height="18" fill="white" transform="translate(303 93.3047)"/>
</clipPath>
<clipPath id="clip2_6449_43455">
<rect width="80" height="80" fill="white" transform="matrix(0 -1 -1 0 145 405.305)"/>
</clipPath>
</defs>
</svg>
