<svg width="40" height="40" viewBox="0 0 40 40" fill="none" xmlns="http://www.w3.org/2000/svg">
<path d="M3.3335 6.66665C3.3335 4.8257 4.82588 3.33331 6.66683 3.33331H33.3335C35.1744 3.33331 36.6668 4.8257 36.6668 6.66665V33.3333C36.6668 35.1743 35.1744 36.6666 33.3335 36.6666H6.66683C4.82588 36.6666 3.3335 35.1743 3.3335 33.3333V6.66665Z" fill="#F2CA55"/>
<path fillRule="evenodd" clip-rule="evenodd" d="M19.0029 31.0565C19.8165 30.2429 19.8165 28.9238 19.0029 28.1102L14.2261 23.3333L19.0029 18.5565C19.8165 17.7429 19.8165 16.4238 19.0029 15.6102C18.1893 14.7966 16.8702 14.7966 16.0566 15.6102L8.3335 23.3333L16.0566 31.0565C16.8702 31.87 18.1893 31.87 19.0029 31.0565Z" fill="#8C5D00"/>
<path d="M3.3335 6.66665C3.3335 4.8257 4.82588 3.33331 6.66683 3.33331H8.3335V36.6666H6.66683C4.82588 36.6666 3.3335 35.1743 3.3335 33.3333V6.66665Z" fill="#8C5D00"/>
<path fillRule="evenodd" clip-rule="evenodd" d="M23.1668 15C22.3384 15 21.6668 15.6716 21.6668 16.5V30.1666C21.6668 30.9951 22.3384 31.6666 23.1668 31.6666C23.6444 31.6666 24.0698 31.4435 24.3445 31.0958C25.0384 31.4603 25.8285 31.6666 26.6668 31.6666C29.4283 31.6666 31.6668 29.4281 31.6668 26.6666C31.6668 23.9052 29.4283 21.6666 26.6668 21.6666C25.9557 21.6666 25.2793 21.8151 24.6668 22.0827V16.5C24.6668 15.6716 23.9953 15 23.1668 15ZM24.6668 26.8429V26.4904C24.7561 25.4641 25.6174 24.659 26.6668 24.659C27.7756 24.659 28.6745 25.5579 28.6745 26.6666C28.6745 27.7754 27.7756 28.6743 26.6668 28.6743C25.6174 28.6743 24.7561 27.8692 24.6668 26.8429Z" fill="#8C5D00"/>
</svg>
