<?xml version="1.0" encoding="UTF-8"?>
<!DOCTYPE svg PUBLIC "-//W3C//DTD SVG 1.1//EN" "http://www.w3.org/Graphics/SVG/1.1/DTD/svg11.dtd">
<!-- Creator: CorelDRAW X8 -->
<svg xmlns="http://www.w3.org/2000/svg" xml:space="preserve" width="8.77902in" height="6in" version="1.1" style="shape-rendering:geometricPrecision; text-rendering:geometricPrecision; image-rendering:optimizeQuality; fill-rule:evenodd; clip-rule:evenodd"
viewBox="0 0 91076 62246"
 xmlns:xlink="http://www.w3.org/1999/xlink">
 <defs>
  <style type="text/css">
   <![CDATA[
    .str1 {stroke:#1A307E;stroke-width:161.832}
    .str0 {stroke:#1A237E;stroke-width:188.29}
    .fil23 {fill:none}
    .fil22 {fill:#FEFEFE}
    .fil25 {fill:#1A237E}
    .fil13 {fill:#FEFEFE;fill-rule:nonzero}
    .fil24 {fill:#373435;fill-rule:nonzero}
    .fil1 {fill:#1A237E;fill-rule:nonzero}
    .fil9 {fill:#343B4B;fill-rule:nonzero}
    .fil12 {fill:#414B5B;fill-rule:nonzero}
    .fil2 {fill:#4B55C2;fill-rule:nonzero}
    .fil6 {fill:#505D6B;fill-rule:nonzero}
    .fil0 {fill:#868EE0;fill-rule:nonzero}
    .fil3 {fill:#B6BBED;fill-rule:nonzero}
    .fil18 {fill:#CF4956;fill-rule:nonzero}
    .fil5 {fill:#CFCFFF;fill-rule:nonzero}
    .fil7 {fill:#DD624B;fill-rule:nonzero}
    .fil8 {fill:#DFDDED;fill-rule:nonzero}
    .fil20 {fill:#F78759;fill-rule:nonzero}
    .fil17 {fill:#FB5B67;fill-rule:nonzero}
    .fil14 {fill:#FBC600;fill-rule:nonzero}
    .fil19 {fill:#FD7557;fill-rule:nonzero}
    .fil21 {fill:#FDA859;fill-rule:nonzero}
    .fil11 {fill:#FF7C6E;fill-rule:nonzero}
    .fil15 {fill:#FFA07E;fill-rule:nonzero}
    .fil16 {fill:#FFBF90;fill-rule:nonzero}
    .fil10 {fill:#FFEDDD;fill-rule:nonzero}
    .fil4 {fill:white;fill-rule:nonzero}
   ]]>
  </style>
 </defs>
 <g id="Layer_x0020_1">
  <metadata id="CorelCorpID_0Corel-Layer"/>
  <g id="_2490746896384">
   <path class="fil0" d="M740 25000c1576,3891 4057,5076 6417,7572 2883,3049 4827,5265 4078,9187 -1222,6408 -1746,22389 17405,20300 6864,-749 12288,-5409 16234,-10060 3358,-3957 9397,-4306 14259,-5229 5973,-1134 12058,-2846 17585,-5356 11382,-5167 14781,-12596 14317,-22101 -140,-2872 -599,-7395 -6075,-12688 -7392,-7144 -18132,-8101 -31060,-4820 -2958,751 -5755,1929 -8666,2815 -3024,922 -6171,1527 -9354,1800 -7424,636 -15121,-515 -22243,1449 -3766,1038 -7225,2939 -9949,5465 -3402,3157 -4612,7558 -2948,11666z"/>
   <polygon class="fil1" points="54989,55205 35885,55205 35885,50065 54989,50065 "/>
   <path class="fil2" d="M75070 51743l-59064 0c-1978,0 -3581,-1603 -3581,-3580l0 -40484c0,-1978 1603,-3581 3581,-3581l59064 0c1978,0 3581,1603 3581,3581l0 40484c0,1977 -1603,3580 -3581,3580z"/>
   <path class="fil0" d="M74399 47171l-57924 0c-1215,0 -2200,-984 -2200,-2199l0 -36937c0,-1215 985,-2199 2200,-2199l57924 0c1215,0 2200,984 2200,2199l0 36937c0,1215 -985,2199 -2200,2199z"/>
   <path class="fil2" d="M63200 57997l-35526 0 0 -447c0,-1542 1250,-2792 2793,-2792l29941 0c1542,0 2792,1250 2792,2792l0 447z"/>
   <path class="fil3" d="M70856 38003l-39786 0c-1056,0 -1911,-856 -1911,-1911l0 -25491c0,-1055 855,-1910 1911,-1910l39786 0c1056,0 1911,855 1911,1910l0 25491c0,1055 -855,1911 -1911,1911z"/>
   <path class="fil4" d="M63646 43346l-44513 0c-1180,0 -2137,-958 -2137,-2139l0 -28518c0,-1181 957,-2138 2137,-2138l44513 0c1181,0 2138,957 2138,2138l0 28518c0,1181 -957,2139 -2138,2139z"/>
   <path class="fil1" d="M63646 10551l-44513 0c-1180,0 -2137,957 -2137,2138l0 1871 48788 0 0 -1871c0,-1181 -957,-2138 -2138,-2138z"/>
   <path class="fil5" d="M59509 12629c0,340 -276,616 -617,616 -340,0 -616,-276 -616,-616 0,-340 276,-616 616,-616 341,0 617,276 617,616z"/>
   <path class="fil5" d="M62021 12629c0,340 -276,616 -616,616 -341,0 -617,-276 -617,-616 0,-340 276,-616 617,-616 340,0 616,276 616,616z"/>
   <path class="fil5" d="M64534 12629c0,340 -277,616 -617,616 -340,0 -617,-276 -617,-616 0,-340 277,-616 617,-616 340,0 617,276 617,616z"/>
   <g>
    <g>
     <polygon class="fil6" points="56950,29166 65832,29166 65832,28134 56950,28134 "/>
     <path class="fil6" d="M58637 29928l5508 0c306,0 553,-341 553,-762l-6614 0c0,421 247,762 553,762z"/>
     <path class="fil6" d="M60921 29928l0 9133c313,-49 626,-93 940,-132l0 -9001 -940 0z"/>
     <g>
      <path class="fil2" d="M73154 32780l0 -6792c0,-1188 -963,-2151 -2151,-2151l-3443 0 0 8943 5594 0z"/>
     </g>
     <g>
      <path class="fil7" d="M65166 24598c92,598 641,1017 1192,1269 953,434 2045,532 3067,321 828,-170 1786,-529 2270,-1259 320,-480 612,-983 399,-1576 -48,-133 -116,-258 -189,-381 -141,-239 -299,-470 -355,-740 -86,-409 60,-893 -210,-1211 -224,-264 -648,-289 -861,-560 -256,-325 -78,-791 -41,-1202 82,-894 -596,-1719 -1412,-2093 -511,-233 -1094,-330 -1643,-214 -550,116 -1060,458 -1327,953 -192,359 -251,773 -305,1177 -100,728 -199,1463 -145,2196 36,473 135,950 50,1417 -81,441 -325,858 -441,1284l0 1c-56,203 -82,408 -49,618z"/>
     </g>
     <path class="fil8" d="M58328 39737c0,540 3647,977 8145,977 4498,0 8145,-437 8145,-977 0,-540 -3647,-977 -8145,-977 -4498,0 -8145,437 -8145,977z"/>
     <g>
      <g>
       <g>
        <g>
         <path class="fil9" d="M61142 39685c10,-76 44,-166 140,-211 281,-133 1313,-547 1589,-777 215,-178 399,-561 471,-723l1938 58c124,500 220,1467 239,1670l-4377 -17z"/>
         <polygon class="fil4" points="61140,40125 65517,40141 65519,39702 61142,39685 "/>
         <g>
          <g>
           <path class="fil10" d="M63240 38822c3,5 6,10 8,15 22,38 35,98 -16,121 -26,11 -56,8 -84,2 -96,-19 -184,-61 -269,-109 -91,-52 -188,-108 -247,-198 -62,-93 23,-179 127,-157 180,38 384,164 481,326z"/>
          </g>
          <g>
           <path class="fil10" d="M62910 39056c3,5 6,10 9,15 21,39 35,98 -16,121 -26,11 -56,8 -84,2 -96,-19 -185,-60 -270,-109 -91,-52 -188,-108 -247,-198 -61,-92 23,-178 128,-157 180,38 383,165 480,326z"/>
          </g>
          <g>
           <path class="fil10" d="M62504 39209c3,5 6,10 9,16 21,38 35,97 -16,120 -26,12 -56,8 -84,3 -96,-19 -185,-61 -270,-109 -91,-52 -188,-109 -247,-198 -61,-93 24,-179 128,-157 180,38 383,164 480,325z"/>
          </g>
         </g>
        </g>
       </g>
       <polygon class="fil1" points="63658,37984 65084,38026 65440,35800 66148,31369 64364,30946 63890,35672 "/>
       <polygon class="fil11" points="63658,37984 65084,38026 65440,35800 63890,35672 "/>
       <g>
        <polygon class="fil2" points="64715,32780 73154,32780 73154,33551 64715,33551 "/>
       </g>
      </g>
      <g>
       <g>
        <g>
         <g>
          <path class="fil12" d="M59560 39452c16,-75 56,-163 155,-201 289,-114 1346,-457 1638,-667 226,-164 436,-533 518,-690l1930 189c90,508 120,1479 125,1682l-4366 -313z"/>
          <polygon class="fil4" points="59529,39890 63895,40204 63926,39765 59560,39452 "/>
          <g>
           <path class="fil4" d="M61712 38733c2,5 5,10 8,16 18,40 28,100 -25,119 -26,10 -56,4 -84,-3 -94,-26 -180,-73 -261,-127 -87,-58 -180,-121 -233,-215 -55,-96 35,-176 138,-147 177,50 371,189 457,357z"/>
           <path class="fil4" d="M61367 38944c3,5 5,11 8,16 18,40 28,100 -24,119 -27,10 -57,5 -84,-3 -95,-25 -181,-73 -262,-127 -87,-58 -180,-121 -233,-214 -55,-97 35,-177 138,-148 177,50 371,190 457,357z"/>
           <path class="fil4" d="M60952 39070c2,5 5,10 8,16 18,40 28,100 -25,119 -26,10 -56,4 -84,-3 -94,-26 -180,-73 -261,-127 -87,-58 -180,-121 -233,-215 -55,-96 35,-176 138,-147 177,50 371,189 457,357z"/>
          </g>
         </g>
        </g>
       </g>
      </g>
      <g>
       <path class="fil0" d="M62281 37935l1271 124 557 -2529 606 -2750c0,0 4677,568 5429,568 900,0 1359,-464 1591,-950 232,-486 256,-1046 97,-1561l-283 -909 -4658 -652 -68 868c-1471,-405 -2637,-678 -3276,-515 -383,99 -810,3179 -1061,5700 -105,1051 -178,2005 -205,2606z"/>
       <path class="fil0" d="M62281 37935l1271 124 557 -2529 -1623 -201c-105,1051 -178,2005 -205,2606z"/>
       <path class="fil13" d="M63647 30464c-144,217 -186,487 -169,744 15,216 96,459 298,524 109,35 232,8 333,-50 101,-57 184,-143 261,-232 116,-134 222,-279 286,-444 64,-165 82,-352 22,-515 -181,-494 -771,-421 -1031,-27z"/>
      </g>
     </g>
     <g>
      <polygon class="fil6" points="72293,34259 65337,34259 65337,33551 72293,33551 "/>
      <g>
       <polygon class="fil6" points="72966,39737 72258,39737 70739,33551 71447,33551 "/>
       <polygon class="fil6" points="64664,39737 65373,39737 66891,33551 66183,33551 "/>
      </g>
     </g>
     <path class="fil14" d="M66418 22317c0,0 -444,155 -474,345 -29,189 -607,2921 -607,2921l-1585 1024 588 987 2588 -633 -510 -4644z"/>
     <g>
      <path class="fil14" d="M67456 22231l-1038 86c0,0 -830,3144 -294,3673 537,529 997,971 997,971l-230 2315 4658 652c0,0 -1360,-6338 -1192,-8140l-673 72 -1774 1128 -454 -757z"/>
     </g>
     <g>
      <path class="fil15" d="M67059 22985c218,244 536,449 996,486 1014,79 1493,-1174 1629,-1611l-412 56c-48,-23 -119,-203 -189,-415 -111,-335 -216,-748 -216,-748l-907 422c0,0 129,340 190,614 26,118 40,224 24,283 0,0 0,1 -1,2 -2,8 -5,17 -10,24 -4,5 -9,11 -17,15 -79,50 -365,89 -690,118 0,0 -245,378 -397,754z"/>
      <path class="fil4" d="M67040 23687c369,246 1015,-216 1015,-216 0,0 187,505 858,272 672,-233 771,-1883 771,-1883l-412 56c0,0 -613,1238 -1196,1176 -513,-54 -52,-796 70,-979 14,-22 24,-35 27,-39 1,-1 1,-2 1,-2l-718 159c0,0 -245,378 -397,754 -120,298 -182,594 -19,702z"/>
      <path class="fil11" d="M69083 21501c-261,102 -669,217 -933,287 -61,-272 -190,-613 -190,-613l907 -422c0,0 105,414 216,748z"/>
      <g>
       <path class="fil16" d="M68043 17412c-36,1 -1348,367 -1546,833 -198,466 -420,2151 -27,2931 393,780 930,637 1120,570 190,-68 1077,-502 1269,-811 193,-309 552,-1866 428,-2259 -124,-393 -1244,-1264 -1244,-1264z"/>
       <path class="fil15" d="M68098 17288c-37,1 -1348,368 -1546,834 -198,466 -420,2150 -27,2930 393,780 930,638 1120,570 190,-68 1077,-501 1269,-811 193,-309 552,-1866 428,-2259 -124,-393 -1244,-1264 -1244,-1264z"/>
       <g>
        <path class="fil11" d="M67345 20241c42,-9 84,-25 125,-16 -54,90 -145,156 -246,182 -8,1 -16,3 -24,2 -10,-2 -18,-8 -26,-14 -49,-38 -91,-87 -122,-141 -6,-11 -12,-23 -13,-35 -4,-42 23,-29 45,-17 27,15 55,26 84,34 58,16 119,18 177,5z"/>
        <path class="fil17" d="M67218 20382c-22,-25 -47,-47 -69,-72 -28,-31 -53,-64 -74,-99 143,-73 160,-211 175,-367 6,-70 -4,-142 -30,-208 -14,-35 -32,-68 -53,-98 -11,-15 -23,-30 -36,-44 -12,-14 -26,-22 -42,-31 7,10 11,21 17,32 16,27 33,53 46,82 12,29 23,59 31,90 15,62 20,126 14,190 -6,62 -23,123 -54,178 -34,62 -89,121 -154,152 0,0 76,116 84,126 20,25 42,48 66,69 24,20 52,43 84,46 10,1 21,1 30,-4 -5,-5 -10,-9 -14,-15 -2,-2 -3,-4 -5,-7 -5,-7 -10,-13 -16,-20z"/>
       </g>
       <path class="fil15" d="M68898 20102c47,-26 274,-361 457,-175 182,185 247,505 94,695 -138,174 -335,363 -590,313l39 -833z"/>
       <path class="fil11" d="M69363 20173c12,43 8,88 -3,131 -49,183 -212,328 -368,464 45,-90 58,-190 44,-285 -5,-34 -13,-67 -15,-100 -8,-135 269,-461 342,-210z"/>
       <g>
        <path class="fil18" d="M68913 20823c0,0 3,-2 9,-6 6,-4 15,-10 26,-18 21,-17 49,-43 76,-81 26,-38 50,-88 59,-146 8,-58 3,-125 -29,-188 -4,-8 -8,-16 -13,-24l-3 -5c-1,-2 -1,-1 -1,-1l0 0 0 0 0 0c0,0 0,1 0,-1l3 -5 5 -11c3,-6 7,-13 10,-20 14,-27 30,-53 46,-77 16,-23 32,-46 49,-66 16,-20 32,-39 49,-53 16,-14 34,-24 51,-27 17,-3 34,1 45,6 11,5 18,13 21,18 3,6 3,9 3,9 0,0 1,-3 -1,-9 -1,-7 -6,-16 -18,-24 -11,-8 -29,-15 -52,-15 -23,1 -47,10 -68,24 -22,15 -41,32 -61,51 -20,20 -40,41 -60,65 -19,24 -37,51 -54,79 -4,7 -8,14 -12,22l-5 11 -8 15 -5 11c1,4 4,7 6,11l9 15c4,6 8,13 11,20 28,55 36,113 34,166 -4,53 -18,101 -37,139 -18,38 -40,67 -57,86 -8,9 -16,16 -21,21 -4,5 -7,8 -7,8z"/>
       </g>
       <g>
        <path class="fil19" d="M66400 19081c0,0 229,-199 380,-193 151,6 204,141 146,171 -57,31 -526,22 -526,22z"/>
       </g>
       <g>
        <path class="fil19" d="M68531 19194c0,0 -363,-284 -598,-315 -235,-31 -314,110 -224,159 91,49 822,156 822,156z"/>
       </g>
       <g>
        <path class="fil9" d="M68337 19348c-23,61 -101,110 -156,138 -30,-32 -65,-51 -102,-50 -96,2 -172,128 -169,283 3,154 83,277 179,276 96,-2 172,-129 169,-283 -1,-48 -9,-92 -23,-131 72,-66 102,-233 102,-233z"/>
        <path class="fil4" d="M68075 19745c0,0 108,37 218,4 109,-33 179,-123 179,-123 0,0 -108,-37 -217,-4 -110,33 -180,123 -180,123z"/>
       </g>
       <g>
        <path class="fil9" d="M66524 19345c17,50 80,92 125,116 24,-25 53,-40 84,-38 79,3 138,108 132,234 -6,127 -74,226 -153,223 -78,-4 -137,-109 -132,-235 2,-40 10,-76 22,-108 -57,-55 -78,-192 -78,-192z"/>
        <path class="fil4" d="M66729 19675c0,0 -89,28 -178,-1 -89,-30 -144,-105 -144,-105 0,0 89,-27 178,2 89,29 144,104 144,104z"/>
       </g>
       <g>
        <path class="fil11" d="M67982 20290c13,71 175,99 362,64 187,-36 327,-122 314,-193 -13,-70 -176,-99 -363,-63 -186,35 -327,122 -313,192z"/>
        <path class="fil11" d="M66127 20029c-20,51 86,142 239,203 152,62 292,71 313,20 20,-51 -87,-141 -239,-203 -153,-61 -293,-70 -313,-20z"/>
       </g>
       <g>
        <path class="fil17" d="M66823 20780c0,0 622,-378 1266,-113 0,0 -238,533 -567,554 -399,26 -699,-441 -699,-441z"/>
        <path class="fil4" d="M66861 20792c0,0 438,-163 1191,-112 0,0 -137,422 -571,442 -434,19 -620,-330 -620,-330z"/>
       </g>
      </g>
      <g>
       <g>
        <path class="fil7" d="M69705 19048c-11,89 -24,179 -38,269 0,1 0,1 -1,2 -74,483 -140,948 -140,948 -34,-164 -214,-332 -214,-332 -192,-78 -427,182 -427,182l20 -1104c0,0 -2,0 -5,-1 -323,-81 -636,-227 -961,-314 -622,-167 -1239,-225 -1877,-285 9,-358 168,-711 431,-953 196,-181 448,-299 711,-339 233,-35 464,-107 701,-107 559,0 1607,954 1789,1245 3,7 7,15 11,24 3,6 6,13 9,21 45,140 30,430 -9,744z"/>
       </g>
      </g>
      <g>
       <g>
        <path class="fil19" d="M65215 23979c212,-442 424,-886 637,-1328 142,-297 286,-603 309,-931 26,-383 -117,-754 -198,-1130 -220,-1023 45,-2138 701,-2953 -4,271 191,531 451,604 -60,-217 30,-467 213,-597 -23,448 427,858 871,793 -137,-109 -171,-326 -73,-471 -12,321 336,529 647,613 310,84 669,142 848,409 317,475 -204,1177 90,1666 239,399 835,369 1207,647 303,228 412,624 543,981 94,258 234,529 444,690 -141,-239 -299,-470 -355,-740 -86,-409 60,-893 -210,-1211 -104,-124 -253,-195 -403,-263 -171,-78 -344,-153 -458,-297 -256,-325 -78,-791 -41,-1202 82,-894 -596,-1719 -1412,-2093 -511,-233 -1094,-330 -1643,-214 -550,116 -1060,458 -1327,953 -50,92 -91,189 -125,289 -98,284 -140,589 -180,888 -100,728 -199,1463 -145,2196 36,473 135,950 50,1417 -81,441 -325,858 -441,1284z"/>
       </g>
       <g>
        <path class="fil20" d="M65931 18194c282,-355 622,-663 1007,-902l43 428c109,-258 372,-445 652,-463 -120,237 50,566 311,608 -75,-195 28,-439 219,-523 28,494 557,897 1042,792 -132,-156 -263,-313 -395,-470 267,112 538,225 771,399 231,173 424,417 476,702 71,383 -118,774 -69,1161 58,456 494,824 949,832 -171,-78 -344,-153 -458,-297 -256,-325 -78,-791 -41,-1202 82,-894 -596,-1719 -1412,-2093 -511,-233 -1094,-330 -1643,-214 -550,116 -1060,458 -1327,953 -50,92 -91,189 -125,289z"/>
       </g>
      </g>
     </g>
     <path class="fil14" d="M70357 21788c0,0 654,-113 831,323 178,436 1426,4686 1105,5483 -320,796 -5470,-209 -5470,-209l126 -1604 3101 0 307 -3993z"/>
     <path class="fil15" d="M66848 27066l-1070 -105 -1394 424 -220 -588c0,0 827,-937 916,-898 88,38 698,144 698,144l1150 0 -80 1023z"/>
     <g>
      <g>
       <polygon class="fil1" points="58170,28134 65832,28134 65832,27504 58170,27504 "/>
      </g>
      <g>
       <polygon class="fil1" points="58170,28134 64700,28134 63609,23663 57080,23663 "/>
      </g>
     </g>
     <path class="fil21" d="M70067 23049c89,-394 409,-699 808,-765 48,-8 68,65 20,73 -374,62 -671,342 -754,712 -11,48 -84,28 -74,-20z"/>
     <path class="fil21" d="M67395 25800c926,93 1852,186 2778,278 -311,-642 -417,-1354 -308,-2060 8,-48 81,-28 74,20 -110,708 5,1427 330,2065 12,24 -2,61 -33,58 -947,-95 -1894,-190 -2841,-285 -48,-5 -48,-81 0,-76z"/>
     <path class="fil21" d="M67423 27462c1149,220 2312,342 3481,365 49,1 49,77 0,76 -1176,-23 -2346,-146 -3501,-368 -48,-9 -27,-82 20,-73z"/>
     <path class="fil21" d="M66009 24634c67,-510 173,-1013 314,-1507 14,-47 87,-27 73,20 -119,421 -215,848 -281,1280 -65,422 -206,1014 172,1330 38,32 -16,85 -54,54 -348,-292 -276,-776 -224,-1177z"/>
    </g>
    <g>
     <polygon class="fil22" points="60073,26090 60197,26090 60197,25524 60073,25524 "/>
     <path class="fil22" d="M60976 26090l-204 0c-169,0 -319,-98 -319,-282 0,-207 153,-284 335,-284l188 0 0 264 -125 0 0 -149 -74 0c-105,0 -194,52 -194,163 0,129 87,173 203,173l32 0 33 0 125 0 0 115z"/>
     <polygon class="fil22" points="61952,26090 62077,26090 62077,25845 62319,25845 62319,26090 62444,26090 62444,25524 62319,25524 62319,25735 62077,25735 62077,25524 61952,25524 "/>
     <path class="fil22" d="M61267 25524l204 0c169,0 319,98 319,281 0,207 -153,285 -335,285l-188 0 0 -265 125 0 0 150 74 0c105,0 194,-52 194,-163 0,-129 -87,-173 -203,-173l-32 0 -33 0 -125 0 0 -115z"/>
     <path class="fil22" d="M59822 25754l-221 0 0 115 101 0 0 92c-23,13 -63,28 -117,28 -107,0 -176,-77 -176,-182 0,-106 69,-183 176,-183 63,0 104,19 137,54l88 -96c-56,-53 -136,-73 -225,-73 -177,0 -306,116 -306,298 0,181 129,297 306,297 83,0 164,-16 237,-54l0 -296z"/>
    </g>
   </g>
   <g>
    <rect class="fil23 str0" x="18933" y="17358" width="36056" height="22312"/>
    <path class="fil1" d="M20505 26826l222 0c99,0 173,19 222,57 50,37 75,94 75,169 0,55 -13,98 -37,130 -24,33 -56,56 -96,71 -39,14 -79,23 -121,26 -41,3 -95,5 -162,5l0 291 -103 0 0 -749zm103 372l77 0c89,0 150,-12 182,-37 33,-25 49,-61 49,-108 0,-45 -14,-80 -43,-104 -29,-25 -88,-37 -178,-37l-87 0 0 286z"/>
    <path id="1" class="fil1" d="M21645 27556l-70 34c-25,-22 -37,-49 -37,-80 -51,53 -118,80 -199,80 -81,0 -148,-26 -201,-79 -53,-53 -79,-120 -79,-200 0,-77 27,-143 82,-197 55,-55 121,-82 198,-82 81,0 147,25 198,76l87 -60 0 388c0,62 7,102 21,120zm-298 -46c56,0 102,-19 135,-55 34,-37 51,-85 51,-144 0,-60 -17,-107 -50,-144 -34,-36 -79,-54 -136,-54 -56,0 -101,18 -135,55 -35,36 -52,83 -52,141 0,58 17,105 51,143 33,39 78,58 136,58z"/>
    <path id="2" class="fil1" d="M22093 27038l-19 90c-9,-2 -18,-4 -28,-4 -52,0 -94,18 -127,53 -32,35 -48,80 -48,134l0 264 -92 0 0 -505 89 -30 0 103c25,-37 53,-65 83,-83 29,-19 62,-28 96,-28 11,0 27,2 46,6z"/>
    <path id="3" class="fil1" d="M22539 27048l-46 73 -140 0 0 242c0,67 9,114 26,141 17,26 37,45 60,54l-53 42c-42,-12 -73,-35 -94,-70 -20,-34 -31,-80 -31,-137l0 -272 -116 0 0 -73 116 0 0 -129 92 -74 0 203 186 0z"/>
    <path id="4" class="fil1" d="M22696 27575l-91 0 0 -503 91 -32 0 535zm-46 -749c18,0 33,6 46,19 13,13 19,28 19,46 0,17 -6,33 -19,45 -13,13 -28,19 -46,19 -18,0 -33,-6 -46,-19 -12,-12 -18,-27 -18,-45 0,-18 6,-34 18,-46 13,-13 28,-19 46,-19z"/>
    <path id="5" class="fil1" d="M23296 27536c-58,36 -125,54 -201,54 -79,0 -145,-26 -198,-78 -54,-52 -81,-118 -81,-195 0,-82 27,-150 81,-204 54,-54 122,-81 204,-81 74,0 137,18 189,54l-47 68c-46,-27 -92,-41 -135,-41 -60,0 -107,18 -140,55 -33,36 -50,86 -50,150 0,58 17,104 50,139 33,35 78,53 135,53 53,0 103,-16 150,-46l43 72z"/>
    <path id="6" class="fil1" d="M23901 27555l-71 35c-25,-23 -38,-55 -38,-98 -49,66 -117,98 -202,98 -61,0 -108,-17 -142,-53 -33,-35 -50,-84 -50,-146l0 -343 91 0 0 323c0,44 10,78 29,100 20,23 49,34 88,34 55,0 99,-19 133,-57 33,-38 50,-86 50,-144l0 -256 91 0 0 388c0,61 7,100 21,119z"/>
    <polygon id="7" class="fil1" points="24133,27575 24042,27575 24042,26773 24133,26743 "/>
    <path id="8" class="fil1" d="M24839 27556l-69 34c-25,-22 -38,-49 -38,-80 -51,53 -117,80 -199,80 -81,0 -147,-26 -200,-79 -53,-53 -80,-120 -80,-200 0,-77 28,-143 83,-197 54,-55 120,-82 197,-82 81,0 147,25 198,76l87 -60 0 388c0,62 7,102 21,120zm-298 -46c57,0 102,-19 136,-55 34,-37 51,-85 51,-144 0,-60 -17,-107 -51,-144 -33,-36 -79,-54 -136,-54 -56,0 -101,18 -135,55 -34,36 -51,83 -51,141 0,58 17,105 50,143 34,39 79,58 136,58z"/>
    <path id="9" class="fil1" d="M25287 27038l-18 90c-9,-2 -19,-4 -28,-4 -53,0 -95,18 -127,53 -33,35 -49,80 -49,134l0 264 -91 0 0 -505 88 -30 0 103c25,-37 53,-65 83,-83 30,-19 62,-28 97,-28 11,0 26,2 45,6z"/>
    <path class="fil1" d="M31944 26812c108,0 200,38 277,113 77,76 116,168 116,275 0,108 -39,200 -115,276 -77,76 -170,114 -278,114 -108,0 -200,-38 -277,-115 -76,-76 -115,-168 -115,-275 0,-69 18,-134 53,-194 35,-60 83,-108 143,-142 61,-35 126,-52 196,-52zm0 684c80,0 148,-28 202,-86 55,-58 82,-128 82,-210 0,-82 -27,-151 -82,-209 -54,-57 -122,-85 -202,-85 -80,0 -147,28 -201,86 -55,57 -82,126 -82,208 0,82 27,152 82,210 54,57 121,86 201,86z"/>
    <path id="1" class="fil1" d="M32549 27110c52,-52 119,-78 202,-78 77,0 141,27 194,81 52,54 79,120 79,198 0,80 -27,146 -80,199 -54,54 -120,80 -200,80 -75,0 -138,-24 -190,-73l0 260 -95 33 0 -762 90 62zm189 401c57,0 102,-19 135,-56 34,-38 50,-86 50,-146 0,-58 -16,-105 -50,-141 -33,-37 -78,-55 -135,-55 -57,0 -102,18 -136,55 -34,36 -50,84 -50,143 0,60 16,108 50,145 33,36 79,55 136,55z"/>
    <path id="2" class="fil1" d="M33209 27452c19,0 35,7 49,20 13,14 20,30 20,49 0,19 -7,36 -20,49 -14,13 -30,20 -49,20 -19,0 -35,-7 -49,-20 -13,-13 -20,-30 -20,-49 0,-19 7,-35 20,-49 14,-13 30,-20 49,-20z"/>
    <path id="3" class="fil1" d="M33840 27174c45,11 80,33 106,66 26,33 39,71 39,114 0,74 -25,129 -74,166 -49,37 -122,55 -219,55l-243 0 0 -749 249 0c87,0 153,16 196,47 44,31 66,78 66,140 0,39 -11,72 -31,101 -21,28 -51,49 -89,60zm-288 -36l84 0c89,0 148,-11 178,-32 30,-21 45,-51 45,-90 0,-32 -10,-56 -29,-71 -19,-16 -42,-25 -67,-29 -26,-3 -58,-5 -97,-5l-114 0 0 227zm0 352l112 0c82,0 138,-11 170,-34 32,-23 47,-56 47,-100 0,-44 -15,-77 -46,-100 -31,-23 -88,-34 -171,-34l-112 0 0 268z"/>
    <path id="4" class="fil1" d="M34651 27556l-70 34c-25,-22 -38,-49 -38,-80 -51,53 -117,80 -199,80 -80,0 -147,-26 -200,-79 -53,-53 -79,-120 -79,-200 0,-77 27,-143 82,-197 55,-55 120,-82 197,-82 82,0 148,25 198,76l87 -60 0 388c0,62 7,102 22,120zm-298 -46c56,0 102,-19 135,-55 34,-37 51,-85 51,-144 0,-60 -17,-107 -50,-144 -34,-36 -79,-54 -136,-54 -56,0 -101,18 -136,55 -34,36 -51,83 -51,141 0,58 17,105 50,143 34,39 79,58 137,58z"/>
    <polygon id="5" class="fil1" points="34882,27575 34791,27575 34791,26773 34882,26743 "/>
    <path id="6" class="fil1" d="M35113 27452c19,0 35,7 48,20 14,14 20,30 20,49 0,19 -6,36 -20,49 -13,13 -29,20 -48,20 -19,0 -36,-7 -49,-20 -14,-13 -20,-30 -20,-49 0,-19 6,-35 20,-49 13,-13 30,-20 49,-20z"/>
    <path class="fil1" d="M38941 26826l246 0c119,0 218,34 295,103 78,69 117,159 117,271 0,113 -39,203 -115,272 -77,69 -175,103 -293,103l-250 0 0 -749zm103 663l127 0c96,0 174,-25 231,-76 58,-52 87,-122 87,-213 0,-89 -29,-159 -88,-210 -59,-52 -135,-78 -230,-78l-127 0 0 577z"/>
    <path id="1" class="fil1" d="M40032 27038l-18 90c-10,-2 -19,-4 -29,-4 -52,0 -94,18 -126,53 -33,35 -49,80 -49,134l0 264 -92 0 0 -505 89 -30 0 103c25,-37 53,-65 83,-83 30,-19 62,-28 97,-28 11,0 26,2 45,6z"/>
    <path id="2" class="fil1" d="M40090 27452c19,0 35,7 49,20 13,14 20,30 20,49 0,19 -7,36 -20,49 -14,13 -30,20 -49,20 -19,0 -36,-7 -49,-20 -13,-13 -20,-30 -20,-49 0,-19 7,-35 20,-49 13,-13 30,-20 49,-20z"/>
    <path class="fil1" d="M44659 27527c-34,20 -73,35 -118,46 -45,11 -86,17 -126,17 -115,0 -211,-36 -286,-110 -76,-73 -114,-166 -114,-280 0,-113 38,-206 114,-279 76,-73 171,-109 286,-109 91,0 172,22 244,66l-54 77c-55,-36 -119,-54 -191,-54 -87,0 -157,27 -210,83 -53,55 -79,127 -79,216 0,89 26,161 78,216 53,55 124,83 212,83 67,0 130,-18 191,-54l53 82z"/>
    <path id="1" class="fil1" d="M45082 27038l-18 90c-9,-2 -19,-4 -28,-4 -52,0 -95,18 -127,53 -33,35 -49,80 -49,134l0 264 -91 0 0 -505 88 -30 0 103c25,-37 53,-65 83,-83 30,-19 62,-28 97,-28 11,0 26,2 45,6z"/>
    <path id="2" class="fil1" d="M45140 27452c19,0 35,7 49,20 13,14 20,30 20,49 0,19 -7,36 -20,49 -14,13 -30,20 -49,20 -19,0 -35,-7 -49,-20 -13,-13 -20,-30 -20,-49 0,-19 7,-35 20,-49 14,-13 30,-20 49,-20z"/>
    <path class="fil1" d="M49699 27527c-34,20 -73,35 -117,46 -45,11 -87,17 -126,17 -116,0 -211,-36 -287,-110 -76,-73 -113,-166 -113,-280 0,-113 38,-206 113,-279 76,-73 171,-109 287,-109 90,0 172,22 243,66l-54 77c-55,-36 -118,-54 -190,-54 -87,0 -157,27 -210,83 -53,55 -80,127 -80,216 0,89 26,161 79,216 52,55 123,83 212,83 66,0 130,-18 190,-54l53 82z"/>
    <polygon id="1" class="fil1" points="49906,27575 49815,27575 49815,26773 49906,26743 "/>
    <path id="2" class="fil1" d="M50312 27032c79,0 146,27 202,82 56,54 84,120 84,198 0,77 -28,143 -84,197 -56,54 -123,81 -202,81 -78,0 -145,-27 -201,-81 -57,-54 -85,-120 -85,-197 0,-79 28,-145 84,-199 56,-54 123,-81 202,-81zm0 474c54,0 99,-18 133,-55 34,-37 51,-83 51,-139 0,-56 -17,-103 -50,-140 -34,-38 -79,-57 -134,-57 -53,0 -98,19 -132,56 -35,37 -52,83 -52,138 0,56 17,103 50,141 34,37 78,56 134,56z"/>
    <path id="3" class="fil1" d="M50783 27452c19,0 35,7 49,20 13,14 20,30 20,49 0,19 -7,36 -20,49 -14,13 -30,20 -49,20 -19,0 -36,-7 -49,-20 -13,-13 -20,-30 -20,-49 0,-19 7,-35 20,-49 13,-13 30,-20 49,-20z"/>
    <path id="4" class="fil1" d="M51713 27174c45,11 80,33 106,66 26,33 39,71 39,114 0,74 -25,129 -74,166 -48,37 -122,55 -219,55l-243 0 0 -749 250 0c87,0 152,16 196,47 43,31 65,78 65,140 0,39 -10,72 -31,101 -21,28 -51,49 -89,60zm-288 -36l85 0c88,0 147,-11 177,-32 30,-21 45,-51 45,-90 0,-32 -9,-56 -29,-71 -19,-16 -41,-25 -67,-29 -26,-3 -58,-5 -97,-5l-114 0 0 227zm0 352l112 0c82,0 139,-11 170,-34 32,-23 48,-56 48,-100 0,-44 -16,-77 -47,-100 -31,-23 -88,-34 -171,-34l-112 0 0 268z"/>
    <path id="5" class="fil1" d="M52524 27556l-70 34c-25,-22 -37,-49 -37,-80 -51,53 -118,80 -199,80 -81,0 -148,-26 -201,-79 -53,-53 -79,-120 -79,-200 0,-77 27,-143 82,-197 55,-55 121,-82 198,-82 81,0 147,25 198,76l87 -60 0 388c0,62 7,102 21,120zm-298 -46c56,0 102,-19 136,-55 33,-37 50,-85 50,-144 0,-60 -17,-107 -50,-144 -34,-36 -79,-54 -136,-54 -56,0 -101,18 -135,55 -34,36 -52,83 -52,141 0,58 17,105 51,143 33,39 79,58 136,58z"/>
    <polygon id="6" class="fil1" points="52755,27575 52665,27575 52665,26773 52755,26743 "/>
    <path id="7" class="fil1" d="M52986 27452c19,0 35,7 49,20 13,14 20,30 20,49 0,19 -7,36 -20,49 -14,13 -30,20 -49,20 -19,0 -36,-7 -49,-20 -13,-13 -20,-30 -20,-49 0,-19 7,-35 20,-49 13,-13 30,-20 49,-20z"/>
    <path class="fil1" d="M20844 31091c-47,-30 -94,-45 -141,-45 -35,0 -64,8 -87,24 -24,17 -36,40 -36,68 0,22 8,43 24,62 16,18 56,42 121,69 41,18 75,35 100,50 26,15 48,35 66,61 18,26 27,59 27,98 0,57 -21,101 -63,133 -43,32 -98,47 -166,47 -32,0 -69,-5 -108,-17 -39,-12 -74,-27 -104,-47l49 -72c56,37 111,55 163,55 47,0 81,-8 105,-25 23,-17 34,-42 34,-76 0,-23 -7,-43 -23,-62 -16,-18 -55,-41 -119,-67 -41,-17 -75,-33 -101,-48 -25,-15 -47,-35 -65,-61 -19,-26 -28,-59 -28,-100 0,-52 20,-94 61,-125 40,-31 91,-46 150,-46 65,0 128,18 189,55l-48 69z"/>
    <path id="1" class="fil1" d="M21455 31645l-81 0 0 -287c0,-40 -9,-70 -26,-90 -18,-20 -43,-30 -78,-30 -48,0 -88,17 -118,51 -29,34 -45,77 -45,128l0 228 -81 0 0 -714 81 -26 0 352c23,-31 49,-55 78,-71 30,-16 63,-24 100,-24 53,0 95,16 125,48 30,31 45,75 45,130l0 305z"/>
    <path id="2" class="fil1" d="M22075 31628l-61 30c-23,-19 -34,-43 -34,-71 -45,48 -104,71 -177,71 -71,0 -131,-23 -178,-70 -47,-47 -70,-106 -70,-178 0,-68 24,-126 73,-175 48,-48 107,-73 175,-73 72,0 131,23 176,68l78 -53 0 345c0,55 6,90 18,106zm-264 -41c50,0 90,-16 120,-49 30,-32 45,-75 45,-128 0,-53 -15,-95 -44,-127 -30,-33 -71,-49 -121,-49 -50,0 -90,17 -120,49 -31,32 -46,74 -46,125 0,52 15,94 45,128 29,34 70,51 121,51z"/>
    <path id="3" class="fil1" d="M22473 31168l-16 80c-8,-2 -16,-3 -25,-3 -46,0 -84,15 -113,46 -28,31 -43,71 -43,119l0 235 -81 0 0 -448 78 -28 0 92c23,-33 48,-57 74,-74 27,-16 55,-25 86,-25 10,0 24,2 40,6z"/>
    <path id="4" class="fil1" d="M22962 31372l-383 76c7,44 25,79 56,103 30,24 69,36 115,36 51,0 98,-14 141,-40l38 63c-57,32 -119,48 -185,48 -73,0 -134,-22 -183,-67 -49,-46 -73,-104 -73,-175 0,-71 24,-131 71,-180 47,-49 105,-74 175,-74 61,0 113,19 156,57 43,38 67,89 72,153zm-91 -48c-9,-29 -26,-52 -52,-68 -26,-16 -55,-25 -86,-25 -42,0 -78,14 -106,41 -29,27 -45,63 -50,109l294 -57z"/>
    <path id="5" class="fil1" d="M23485 31645l-81 0 0 -287c0,-40 -9,-70 -26,-90 -18,-20 -44,-30 -78,-30 -48,0 -88,17 -118,51 -30,34 -45,77 -45,128l0 228 -81 0 0 -714 81 -26 0 352c23,-31 49,-55 78,-71 30,-16 63,-24 99,-24 54,0 96,16 126,48 30,31 45,75 45,130l0 305z"/>
    <path id="6" class="fil1" d="M23839 31162c70,0 129,25 179,73 50,48 74,107 74,176 0,69 -24,127 -74,175 -50,49 -110,72 -179,72 -70,0 -130,-24 -180,-72 -50,-48 -74,-106 -74,-175 0,-69 24,-129 74,-177 49,-48 109,-72 180,-72zm0 422c48,0 87,-16 117,-49 31,-33 46,-74 46,-124 0,-49 -15,-91 -45,-124 -30,-34 -69,-51 -118,-51 -48,0 -87,17 -118,50 -31,32 -46,73 -46,122 0,51 15,92 44,126 30,33 70,50 120,50z"/>
    <polygon id="7" class="fil1" points="24280,31645 24199,31645 24199,30932 24280,30905 "/>
    <path id="8" class="fil1" d="M24911 31627l-65 31c-23,-19 -34,-43 -34,-71 -45,48 -104,71 -177,71 -71,0 -131,-23 -178,-70 -47,-47 -70,-106 -70,-178 0,-68 24,-126 73,-175 48,-48 107,-73 175,-73 70,0 127,21 171,64l0 -293 85 -28 0 616c0,54 6,90 20,106zm-268 -40c50,0 90,-16 120,-49 30,-32 45,-75 45,-128 0,-53 -15,-95 -44,-127 -30,-33 -71,-49 -121,-49 -50,0 -90,17 -120,49 -31,32 -46,74 -46,125 0,52 15,94 45,128 29,34 70,51 121,51z"/>
    <path id="9" class="fil1" d="M25468 31372l-383 76c7,44 25,79 56,103 30,24 69,36 115,36 51,0 98,-14 141,-40l38 63c-57,32 -119,48 -185,48 -73,0 -134,-22 -183,-67 -49,-46 -73,-104 -73,-175 0,-71 24,-131 71,-180 47,-49 105,-74 175,-74 61,0 113,19 156,57 43,38 67,89 72,153zm-91 -48c-9,-29 -26,-52 -52,-68 -26,-16 -55,-25 -86,-25 -42,0 -78,14 -106,41 -29,27 -45,63 -50,109l294 -57z"/>
    <path id="10" class="fil1" d="M25839 31168l-17 80c-8,-2 -16,-3 -25,-3 -46,0 -84,15 -112,46 -29,31 -43,71 -43,119l0 235 -82 0 0 -448 79 -28 0 92c22,-33 47,-57 73,-74 27,-16 56,-25 86,-25 10,0 24,2 41,6z"/>
    <path id="11" class="fil1" d="M26008 31026c-14,-4 -26,-11 -34,-22 -9,-11 -13,-24 -13,-37 0,-18 6,-32 18,-44 11,-12 26,-18 43,-18 19,0 34,7 46,20 11,14 16,31 16,52 0,38 -27,105 -81,201l-56 0c30,-53 50,-103 61,-152z"/>
    <path id="12" class="fil1" d="M26494 31273c-39,-28 -82,-42 -128,-42 -27,0 -50,6 -68,16 -18,11 -28,26 -28,46 0,14 7,27 18,38 12,11 43,23 91,36 36,9 65,19 88,29 23,9 42,25 58,45 16,20 24,47 24,81 0,29 -7,53 -22,74 -16,20 -38,36 -66,46 -29,11 -61,16 -96,16 -64,0 -125,-18 -183,-56l42 -61c40,31 87,46 142,46 34,0 60,-5 78,-16 17,-10 26,-26 26,-47 0,-15 -6,-29 -19,-40 -12,-12 -43,-25 -94,-39 -35,-10 -64,-20 -86,-29 -22,-10 -41,-24 -56,-43 -16,-20 -24,-45 -24,-76 0,-42 17,-75 51,-99 33,-24 75,-36 126,-36 59,0 115,17 166,51l-40 60z"/>
    <polygon id="13" class="fil1" points="27379,30979 27318,31056 27018,31056 27018,31277 27301,31277 27301,31353 27018,31353 27018,31645 26927,31645 26927,30979 "/>
    <path id="14" class="fil1" d="M27876 31627l-63 31c-22,-20 -34,-49 -34,-86 -44,58 -104,86 -179,86 -54,0 -96,-15 -126,-46 -30,-32 -45,-75 -45,-131l0 -304 81 0 0 286c0,40 9,70 26,90 17,20 43,30 78,30 49,0 88,-17 118,-51 30,-34 45,-76 45,-128l0 -227 81 0 0 345c0,54 6,89 18,105z"/>
    <path id="15" class="fil1" d="M28427 31645l-81 0 0 -287c0,-40 -9,-70 -26,-90 -18,-20 -43,-30 -78,-30 -48,0 -88,17 -118,51 -29,34 -44,77 -44,128l0 228 -82 0 0 -448 79 -28 0 92c22,-33 48,-57 78,-74 30,-16 64,-25 102,-25 53,0 95,16 125,48 30,31 45,75 45,130l0 305z"/>
    <path id="16" class="fil1" d="M29051 31627l-65 31c-22,-19 -34,-43 -34,-71 -45,48 -104,71 -177,71 -71,0 -131,-23 -178,-70 -47,-47 -70,-106 -70,-178 0,-68 24,-126 73,-175 49,-48 107,-73 175,-73 70,0 127,21 171,64l0 -293 85 -28 0 616c0,54 7,90 20,106zm-268 -40c50,0 90,-16 120,-49 30,-32 45,-75 45,-128 0,-53 -15,-95 -44,-127 -30,-33 -71,-49 -121,-49 -50,0 -90,17 -120,49 -31,32 -46,74 -46,125 0,52 15,94 45,128 29,34 70,51 121,51z"/>
    <path class="fil1" d="M21066 34426c-30,18 -65,32 -104,42 -40,10 -77,15 -112,15 -103,0 -188,-33 -255,-98 -67,-65 -101,-148 -101,-249 0,-100 34,-183 101,-248 68,-65 153,-97 255,-97 81,0 153,20 216,59l-48 68c-49,-32 -105,-48 -169,-48 -77,0 -139,25 -187,74 -47,49 -70,113 -70,192 0,79 23,143 70,192 46,49 109,73 188,73 59,0 116,-15 169,-47l47 72z"/>
    <path id="1" class="fil1" d="M21609 34452l-63 31c-22,-20 -33,-49 -33,-87 -44,58 -104,87 -180,87 -54,0 -96,-16 -126,-47 -30,-31 -45,-75 -45,-130l0 -305 82 0 0 287c0,40 8,69 25,89 17,20 43,30 78,30 49,0 88,-17 118,-50 30,-34 45,-77 45,-129l0 -227 81 0 0 345c0,54 6,89 18,106z"/>
    <path id="2" class="fil1" d="M22008 33992l-16 80c-8,-2 -17,-3 -25,-3 -47,0 -84,16 -113,47 -29,31 -43,70 -43,119l0 235 -82 0 0 -449 79 -28 0 92c22,-32 47,-57 74,-74 26,-16 55,-24 86,-24 10,0 23,2 40,5z"/>
    <path id="3" class="fil1" d="M22349 33992l-16 80c-8,-2 -17,-3 -25,-3 -46,0 -84,16 -113,47 -29,31 -43,70 -43,119l0 235 -81 0 0 -449 78 -28 0 92c23,-32 47,-57 74,-74 27,-16 55,-24 86,-24 10,0 23,2 40,5z"/>
    <path id="4" class="fil1" d="M22837 34196l-382 76c6,45 25,79 55,103 31,24 69,36 116,36 51,0 98,-13 140,-40l39 63c-58,33 -119,49 -185,49 -74,0 -135,-23 -183,-68 -49,-45 -73,-103 -73,-174 0,-72 23,-132 70,-181 48,-49 106,-73 176,-73 61,0 113,18 156,56 42,38 66,89 71,153zm-91 -48c-8,-29 -25,-51 -51,-68 -26,-16 -55,-24 -86,-24 -43,0 -78,13 -106,40 -29,27 -45,63 -50,109l293 -57z"/>
    <path id="5" class="fil1" d="M23361 34470l-82 0 0 -288c0,-40 -8,-70 -26,-90 -17,-20 -43,-30 -77,-30 -49,0 -88,17 -118,51 -30,34 -45,77 -45,129l0 228 -81 0 0 -449 78 -28 0 92c22,-32 49,-57 79,-74 30,-16 63,-24 101,-24 54,0 96,16 126,47 30,31 45,75 45,130l0 306z"/>
    <path id="6" class="fil1" d="M23786 34001l-41 65 -124 0 0 215c0,60 7,101 22,125 16,24 33,40 54,48l-47 38c-37,-11 -65,-32 -83,-62 -19,-31 -28,-72 -28,-122l0 -242 -103 0 0 -65 103 0 0 -115 82 -65 0 180 165 0z"/>
    <polygon id="7" class="fil1" points="24575,34470 24119,34470 24119,33804 24210,33804 24210,34393 24515,34393 "/>
    <path id="8" class="fil1" d="M24737 34470l-81 0 0 -448 81 -29 0 477zm-41 -666c16,0 30,5 41,17 12,11 17,25 17,40 0,16 -5,29 -17,41 -11,11 -25,16 -41,16 -16,0 -29,-5 -41,-16 -10,-11 -16,-25 -16,-41 0,-16 6,-30 16,-41 12,-11 25,-16 41,-16z"/>
    <path id="9" class="fil1" d="M25365 34452l-62 31c-22,-20 -33,-44 -33,-72 -46,48 -105,72 -177,72 -72,0 -131,-24 -178,-71 -47,-47 -71,-106 -71,-177 0,-69 24,-127 73,-176 49,-48 107,-72 176,-72 72,0 131,22 176,68l77 -54 0 345c0,55 6,91 19,106zm-265 -41c50,0 91,-16 120,-49 31,-32 46,-75 46,-127 0,-53 -15,-96 -45,-128 -30,-32 -70,-48 -121,-48 -50,0 -90,16 -120,48 -31,33 -46,74 -46,126 0,51 15,94 45,127 30,34 70,51 121,51z"/>
    <path id="10" class="fil1" d="M25571 34050c48,-42 105,-63 171,-63 72,0 132,23 178,69 47,47 70,106 70,179 0,71 -23,131 -70,178 -47,46 -107,70 -178,70 -74,0 -133,-24 -177,-72 0,28 -11,52 -33,72l-66 -31c14,-17 20,-52 20,-107l0 -587 85 -28 0 320zm163 361c50,0 90,-17 120,-50 31,-33 46,-76 46,-128 0,-51 -15,-93 -45,-125 -30,-33 -70,-49 -121,-49 -50,0 -91,16 -121,48 -29,32 -44,75 -44,128 0,52 15,95 45,127 30,33 70,49 120,49z"/>
    <path id="11" class="fil1" d="M26178 34470l-81 0 0 -448 81 -29 0 477zm-41 -666c16,0 30,5 41,17 11,11 17,25 17,40 0,16 -6,29 -17,41 -11,11 -25,16 -41,16 -16,0 -30,-5 -41,-16 -10,-11 -16,-25 -16,-41 0,-16 6,-30 16,-41 11,-11 25,-16 41,-16z"/>
    <polygon id="12" class="fil1" points="26406,34470 26325,34470 26325,33757 26406,33730 "/>
    <path id="13" class="fil1" d="M26634 34470l-81 0 0 -448 81 -29 0 477zm-41 -666c16,0 30,5 41,17 11,11 17,25 17,40 0,16 -6,29 -17,41 -11,11 -25,16 -41,16 -16,0 -30,-5 -41,-16 -11,-11 -16,-25 -16,-41 0,-16 5,-30 16,-41 11,-11 25,-16 41,-16z"/>
    <path id="14" class="fil1" d="M27067 34001l-41 65 -125 0 0 215c0,60 8,101 23,125 15,24 33,40 54,48l-47 38c-38,-11 -65,-32 -84,-62 -18,-31 -27,-72 -27,-122l0 -242 -104 0 0 -65 104 0 0 -115 81 -65 0 180 166 0z"/>
    <path id="15" class="fil1" d="M27206 34470l-81 0 0 -448 81 -29 0 477zm-41 -666c16,0 30,5 41,17 11,11 17,25 17,40 0,16 -6,29 -17,41 -11,11 -25,16 -41,16 -16,0 -30,-5 -41,-16 -10,-11 -16,-25 -16,-41 0,-16 6,-30 16,-41 11,-11 25,-16 41,-16z"/>
    <path id="16" class="fil1" d="M27787 34196l-383 76c6,45 25,79 55,103 31,24 69,36 116,36 51,0 98,-13 140,-40l39 63c-58,33 -119,49 -185,49 -74,0 -135,-23 -183,-68 -49,-45 -73,-103 -73,-174 0,-72 23,-132 71,-181 47,-49 105,-73 175,-73 61,0 113,18 156,56 42,38 66,89 72,153zm-92 -48c-8,-29 -25,-51 -51,-68 -26,-16 -55,-24 -86,-24 -43,0 -78,13 -106,40 -29,27 -45,63 -50,109l293 -57z"/>
    <path id="17" class="fil1" d="M28151 34097c-40,-28 -82,-41 -129,-41 -27,0 -49,5 -67,16 -19,10 -28,25 -28,45 0,14 6,27 18,38 12,11 43,23 91,36 36,10 65,19 88,29 22,10 42,25 58,45 16,20 24,47 24,81 0,29 -7,53 -23,74 -15,20 -37,36 -66,47 -28,10 -60,16 -96,16 -63,0 -124,-19 -182,-57l42 -61c40,31 87,46 141,46 35,0 61,-5 79,-15 17,-11 26,-27 26,-48 0,-15 -6,-28 -19,-40 -12,-12 -43,-24 -94,-38 -35,-11 -64,-20 -86,-30 -22,-9 -41,-24 -57,-43 -15,-19 -23,-45 -23,-76 0,-42 17,-75 50,-99 34,-23 76,-35 126,-35 60,0 115,17 167,51l-40 59z"/>
    <path class="fil1" d="M21066 37251c-30,17 -65,31 -104,41 -40,10 -77,15 -112,15 -103,0 -188,-32 -255,-98 -67,-65 -101,-148 -101,-249 0,-100 34,-182 101,-247 68,-65 153,-98 255,-98 81,0 153,20 216,59l-48 69c-49,-33 -105,-49 -169,-49 -77,0 -139,25 -187,74 -47,50 -70,114 -70,192 0,79 23,144 70,192 46,49 109,74 188,74 59,0 116,-16 169,-48l47 73z"/>
    <path id="1" class="fil1" d="M21609 37276l-63 31c-22,-20 -33,-49 -33,-87 -44,58 -104,87 -180,87 -54,0 -96,-16 -126,-47 -30,-31 -45,-74 -45,-130l0 -305 82 0 0 287c0,40 8,70 25,90 17,20 43,30 78,30 49,0 88,-17 118,-51 30,-34 45,-77 45,-128l0 -228 81 0 0 345c0,54 6,89 18,106z"/>
    <path id="2" class="fil1" d="M22008 36817l-16 79c-8,-2 -17,-3 -25,-3 -47,0 -84,16 -113,47 -29,31 -43,71 -43,119l0 235 -82 0 0 -449 79 -27 0 91c22,-32 47,-57 74,-73 26,-17 55,-25 86,-25 10,0 23,2 40,6z"/>
    <path id="3" class="fil1" d="M22349 36817l-16 79c-8,-2 -17,-3 -25,-3 -46,0 -84,16 -113,47 -29,31 -43,71 -43,119l0 235 -81 0 0 -449 78 -27 0 91c23,-32 47,-57 74,-73 27,-17 55,-25 86,-25 10,0 23,2 40,6z"/>
    <path id="4" class="fil1" d="M22837 37021l-382 75c6,45 25,79 55,103 31,25 69,36 116,36 51,0 98,-13 140,-40l39 64c-58,32 -119,48 -185,48 -74,0 -135,-23 -183,-68 -49,-45 -73,-103 -73,-174 0,-71 23,-131 70,-181 48,-49 106,-73 176,-73 61,0 113,19 156,57 42,37 66,88 71,153zm-91 -48c-8,-29 -25,-52 -51,-68 -26,-17 -55,-25 -86,-25 -43,0 -78,13 -106,40 -29,27 -45,63 -50,110l293 -57z"/>
    <path id="5" class="fil1" d="M23361 37294l-82 0 0 -288c0,-39 -8,-69 -26,-89 -17,-21 -43,-31 -77,-31 -49,0 -88,17 -118,51 -30,34 -45,77 -45,129l0 228 -81 0 0 -449 78 -27 0 91c22,-32 49,-57 79,-73 30,-17 63,-25 101,-25 54,0 96,16 126,47 30,32 45,75 45,130l0 306z"/>
    <path id="6" class="fil1" d="M23786 36825l-41 65 -124 0 0 215c0,60 7,102 22,125 16,24 33,40 54,49l-47 37c-37,-11 -65,-32 -83,-62 -19,-31 -28,-71 -28,-122l0 -242 -103 0 0 -65 103 0 0 -115 82 -65 0 180 165 0z"/>
    <path id="7" class="fil1" d="M24721 37294l-98 0 -78 -163 -324 0 -76 163 -96 0 326 -679 21 0 325 679zm-210 -238l-129 -268 -126 268 255 0z"/>
    <path id="8" class="fil1" d="M25072 36921c-39,-27 -82,-41 -128,-41 -27,0 -50,5 -68,16 -18,11 -27,26 -27,45 0,15 6,27 18,38 12,11 42,23 91,36 35,10 64,19 87,29 23,10 42,25 59,45 16,21 24,48 24,81 0,29 -8,54 -23,74 -16,21 -38,36 -66,47 -29,11 -61,16 -96,16 -63,0 -124,-19 -183,-56l42 -62c40,31 88,46 142,46 35,0 61,-5 78,-15 18,-11 26,-27 26,-48 0,-15 -6,-28 -18,-40 -13,-11 -44,-24 -94,-38 -36,-10 -64,-20 -86,-30 -22,-9 -41,-24 -57,-43 -16,-19 -24,-44 -24,-76 0,-42 17,-74 51,-98 34,-24 76,-36 126,-36 59,0 115,17 167,51l-41 59z"/>
    <path id="9" class="fil1" d="M25498 36921c-40,-27 -82,-41 -128,-41 -28,0 -50,5 -68,16 -18,11 -28,26 -28,45 0,15 6,27 18,38 12,11 43,23 91,36 36,10 65,19 88,29 22,10 42,25 58,45 16,21 24,48 24,81 0,29 -7,54 -23,74 -15,21 -37,36 -66,47 -28,11 -60,16 -95,16 -64,0 -125,-19 -183,-56l42 -62c40,31 87,46 142,46 34,0 60,-5 78,-15 17,-11 26,-27 26,-48 0,-15 -6,-28 -19,-40 -12,-11 -43,-24 -94,-38 -35,-10 -64,-20 -86,-30 -22,-9 -41,-24 -57,-43 -15,-19 -23,-44 -23,-76 0,-42 17,-74 50,-98 34,-24 76,-36 126,-36 60,0 116,17 167,51l-40 59z"/>
    <path id="10" class="fil1" d="M26090 37021l-382 75c6,45 24,79 55,103 30,25 69,36 116,36 50,0 97,-13 140,-40l38 64c-57,32 -118,48 -184,48 -74,0 -135,-23 -184,-68 -48,-45 -72,-103 -72,-174 0,-71 23,-131 70,-181 47,-49 106,-73 175,-73 61,0 113,19 156,57 43,37 67,88 72,153zm-91 -48c-8,-29 -26,-52 -52,-68 -26,-17 -54,-25 -86,-25 -42,0 -77,13 -106,40 -28,27 -45,63 -49,110l293 -57z"/>
    <path id="11" class="fil1" d="M26474 36825l-42 65 -124 0 0 215c0,60 8,102 23,125 15,24 33,40 53,49l-47 37c-37,-11 -64,-32 -83,-62 -18,-31 -27,-71 -27,-122l0 -242 -104 0 0 -65 104 0 0 -115 81 -65 0 180 166 0z"/>
    <path id="12" class="fil1" d="M26799 36921c-40,-27 -83,-41 -129,-41 -27,0 -49,5 -67,16 -19,11 -28,26 -28,45 0,15 6,27 18,38 12,11 42,23 91,36 36,10 65,19 88,29 22,10 42,25 58,45 16,21 24,48 24,81 0,29 -7,54 -23,74 -15,21 -37,36 -66,47 -28,11 -60,16 -96,16 -63,0 -124,-19 -182,-56l42 -62c40,31 87,46 141,46 35,0 61,-5 79,-15 17,-11 26,-27 26,-48 0,-15 -6,-28 -19,-40 -12,-11 -44,-24 -94,-38 -35,-10 -64,-20 -86,-30 -22,-9 -41,-24 -57,-43 -15,-19 -23,-44 -23,-76 0,-42 17,-74 50,-98 34,-24 76,-36 126,-36 60,0 115,17 167,51l-40 59z"/>
    <polygon class="fil24" points="32271,31645 32185,31645 32185,31112 32048,31205 32048,31124 32249,30967 32271,30967 "/>
    <path id="1" class="fil24" d="M32701 30967c77,0 135,31 175,92 40,62 59,146 59,253 0,108 -19,193 -59,254 -40,62 -98,92 -175,92 -76,0 -135,-31 -174,-93 -40,-63 -60,-147 -60,-253 0,-107 20,-191 59,-253 40,-61 98,-92 175,-92zm0 611c46,0 82,-23 106,-70 24,-47 36,-112 36,-196 0,-84 -12,-149 -36,-196 -24,-46 -60,-69 -106,-69 -47,0 -82,23 -106,70 -24,46 -36,112 -36,195 0,83 12,148 36,196 24,47 59,70 106,70z"/>
    <path id="2" class="fil24" d="M33093 31656c-14,-3 -26,-10 -34,-21 -9,-11 -13,-24 -13,-38 0,-17 6,-31 18,-43 12,-12 26,-18 43,-18 19,0 35,7 46,20 11,13 16,30 16,51 0,38 -27,105 -81,201l-56 0c30,-52 50,-103 61,-152z"/>
    <path id="3" class="fil24" d="M33412 31206c28,-10 60,-15 95,-15 71,0 128,21 170,62 42,41 63,97 63,167 0,72 -22,130 -67,173 -44,44 -104,65 -177,65 -41,0 -80,-8 -117,-24 -38,-17 -74,-42 -108,-76l56 -61c28,27 56,47 84,61 29,13 57,20 86,20 46,0 83,-14 110,-42 27,-29 41,-66 41,-113 0,-48 -14,-86 -42,-114 -28,-27 -67,-41 -116,-41 -50,0 -98,14 -144,44l-17 0 9 -333 386 0 -63 79 -245 0 -4 148z"/>
    <path id="4" class="fil24" d="M34062 30967c77,0 135,31 175,92 40,62 60,146 60,253 0,108 -20,193 -60,254 -40,62 -98,92 -175,92 -76,0 -134,-31 -174,-93 -40,-63 -60,-147 -60,-253 0,-107 20,-191 60,-253 39,-61 98,-92 174,-92zm0 611c47,0 82,-23 106,-70 25,-47 37,-112 37,-196 0,-84 -12,-149 -37,-196 -24,-46 -59,-69 -106,-69 -46,0 -81,23 -106,70 -24,46 -36,112 -36,195 0,83 12,148 36,196 25,47 60,70 106,70z"/>
    <path id="5" class="fil24" d="M34611 30967c77,0 135,31 175,92 40,62 60,146 60,253 0,108 -20,193 -60,254 -40,62 -98,92 -175,92 -76,0 -134,-31 -174,-93 -40,-63 -60,-147 -60,-253 0,-107 20,-191 60,-253 40,-61 98,-92 174,-92zm0 611c47,0 82,-23 107,-70 24,-47 36,-112 36,-196 0,-84 -12,-149 -36,-196 -25,-46 -60,-69 -107,-69 -46,0 -81,23 -105,70 -24,46 -36,112 -36,195 0,83 12,148 36,196 24,47 59,70 105,70z"/>
    <path class="fil24" d="M32611 34044c28,-10 59,-15 95,-15 71,0 128,21 170,62 42,41 63,97 63,167 0,72 -22,130 -67,173 -45,44 -104,65 -177,65 -41,0 -80,-8 -118,-25 -37,-16 -73,-41 -107,-75l56 -61c28,27 56,47 84,61 29,13 57,20 86,20 46,0 83,-14 110,-42 27,-29 41,-66 41,-113 0,-48 -14,-86 -43,-114 -28,-28 -66,-41 -115,-41 -50,0 -98,14 -144,44l-17 0 8 -333 387 0 -63 79 -246 0 -3 148z"/>
    <path id="1" class="fil24" d="M33196 34072c28,-11 56,-16 85,-16 60,0 110,21 151,63 40,43 60,95 60,156 0,65 -22,118 -66,160 -44,41 -100,61 -167,61 -68,0 -124,-21 -168,-62 -43,-42 -65,-97 -65,-164 0,-57 24,-125 73,-202 48,-78 120,-166 216,-264l115 0c-47,45 -90,90 -129,135 -39,44 -74,89 -105,133zm62 344c38,0 72,-14 100,-41 28,-27 42,-60 42,-98 0,-39 -14,-72 -41,-100 -28,-28 -61,-41 -100,-41 -41,0 -75,13 -101,40 -26,26 -40,61 -40,102 0,38 14,70 42,97 27,27 60,41 98,41z"/>
    <path id="2" class="fil24" d="M33810 33804c77,0 135,31 175,93 40,62 60,146 60,253 0,108 -20,193 -60,254 -40,62 -98,92 -175,92 -76,0 -134,-31 -174,-93 -40,-63 -60,-147 -60,-253 0,-107 20,-191 60,-253 39,-62 98,-93 174,-93zm0 612c47,0 82,-23 106,-70 25,-47 37,-112 37,-196 0,-84 -12,-149 -37,-196 -24,-46 -59,-70 -106,-70 -46,0 -81,24 -106,71 -24,46 -36,111 -36,195 0,83 12,148 36,195 25,47 60,71 106,71z"/>
    <path id="3" class="fil24" d="M34359 33804c77,0 135,31 175,93 40,62 60,146 60,253 0,108 -20,193 -60,254 -40,62 -98,92 -175,92 -76,0 -134,-31 -174,-93 -40,-63 -60,-147 -60,-253 0,-107 20,-191 60,-253 40,-62 98,-93 174,-93zm0 612c47,0 82,-23 107,-70 24,-47 36,-112 36,-196 0,-84 -12,-149 -36,-196 -25,-46 -60,-70 -107,-70 -46,0 -81,24 -105,71 -24,46 -36,111 -36,195 0,83 12,148 36,195 24,47 59,71 105,71z"/>
    <polygon class="fil24" points="32276,37307 32189,37307 32189,36774 32053,36868 32053,36786 32254,36629 32276,36629 "/>
    <path id="1" class="fil24" d="M32950 37307l-489 0 0 -21 274 -281c37,-37 62,-70 77,-97 14,-28 22,-54 22,-79 0,-37 -12,-66 -36,-88 -24,-21 -55,-32 -93,-32 -31,0 -63,7 -94,21 -31,14 -63,35 -94,63l-51 -63c33,-32 71,-57 113,-75 43,-17 85,-26 128,-26 67,0 120,17 159,53 40,35 60,84 60,146 0,35 -9,71 -28,107 -18,35 -46,71 -83,107l-190 185 325 0 0 80z"/>
    <path id="2" class="fil24" d="M33104 37319c-15,-4 -26,-11 -35,-22 -8,-11 -13,-24 -13,-38 0,-17 6,-31 18,-43 12,-12 27,-18 43,-18 20,0 35,7 46,20 11,14 17,30 17,51 0,38 -27,105 -82,201l-56 0c30,-52 51,-103 62,-151z"/>
    <path id="3" class="fil24" d="M33458 36897c28,-12 56,-17 86,-17 60,0 110,21 150,64 40,42 60,94 60,156 0,64 -22,118 -66,159 -44,41 -100,62 -167,62 -68,0 -124,-21 -167,-63 -44,-42 -66,-96 -66,-163 0,-58 25,-125 73,-203 48,-78 120,-166 217,-263l114 0c-47,45 -90,89 -129,134 -39,44 -74,89 -105,134zm62 343c39,0 72,-13 100,-41 28,-27 42,-59 42,-97 0,-39 -14,-73 -41,-101 -27,-27 -61,-41 -100,-41 -41,0 -74,13 -101,40 -26,27 -39,61 -39,102 0,38 14,70 41,97 28,28 61,41 98,41z"/>
    <path id="4" class="fil24" d="M33972 36869c27,-11 59,-16 95,-16 71,0 128,21 170,62 42,41 63,97 63,167 0,72 -23,130 -67,173 -45,44 -104,66 -178,66 -40,0 -80,-9 -117,-25 -37,-17 -73,-42 -107,-76l56 -61c27,27 56,47 84,61 28,13 57,20 85,20 46,0 83,-14 110,-42 28,-29 41,-66 41,-113 0,-48 -14,-86 -42,-114 -28,-27 -66,-41 -116,-41 -50,0 -98,15 -143,44l-17 0 8 -333 386 0 -63 79 -245 0 -3 149z"/>
    <path id="5" class="fil24" d="M34848 37169l-80 0 0 138 -84 0 0 -138 -322 0 0 -39 371 -501 35 0 0 464 80 0 0 76zm-164 -76l0 -270 -201 270 201 0z"/>
    <path class="fil24" d="M38786 31206c27,-10 59,-15 94,-15 72,0 128,21 170,62 42,41 63,97 63,167 0,72 -22,130 -67,173 -44,44 -103,65 -177,65 -41,0 -80,-8 -117,-24 -38,-17 -73,-42 -108,-76l56 -61c28,27 56,47 85,61 28,13 56,20 85,20 46,0 83,-14 110,-42 27,-29 41,-66 41,-113 0,-48 -14,-86 -42,-114 -28,-27 -67,-41 -116,-41 -50,0 -98,14 -143,44l-18 0 9 -333 386 0 -63 79 -245 0 -3 148z"/>
    <path id="1" class="fil24" d="M39435 30967c77,0 135,31 175,92 40,62 60,146 60,253 0,108 -20,193 -60,254 -40,62 -98,92 -175,92 -76,0 -134,-31 -174,-93 -40,-63 -60,-147 -60,-253 0,-107 20,-191 60,-253 40,-61 98,-92 174,-92zm0 611c47,0 83,-23 107,-70 24,-47 36,-112 36,-196 0,-84 -12,-149 -36,-196 -24,-46 -60,-69 -107,-69 -46,0 -81,23 -105,70 -24,46 -36,112 -36,195 0,83 12,148 36,196 24,47 59,70 105,70z"/>
    <path id="2" class="fil24" d="M39985 30967c76,0 135,31 175,92 39,62 59,146 59,253 0,108 -20,193 -59,254 -40,62 -99,92 -175,92 -77,0 -135,-31 -175,-93 -40,-63 -59,-147 -59,-253 0,-107 19,-191 59,-253 40,-61 98,-92 175,-92zm0 611c46,0 82,-23 106,-70 24,-47 36,-112 36,-196 0,-84 -12,-149 -36,-196 -24,-46 -60,-69 -106,-69 -47,0 -82,23 -106,70 -24,46 -36,112 -36,195 0,83 12,148 36,196 24,47 59,70 106,70z"/>
    <path id="3" class="fil24" d="M40534 30967c76,0 135,31 175,92 40,62 59,146 59,253 0,108 -19,193 -59,254 -40,62 -99,92 -175,92 -77,0 -135,-31 -174,-93 -40,-63 -60,-147 -60,-253 0,-107 20,-191 59,-253 40,-61 98,-92 175,-92zm0 611c46,0 82,-23 106,-70 24,-47 36,-112 36,-196 0,-84 -12,-149 -36,-196 -24,-46 -60,-69 -106,-69 -47,0 -82,23 -106,70 -24,46 -36,112 -36,195 0,83 12,148 36,196 24,47 59,70 106,70z"/>
    <path class="fil24" d="M39656 33804c77,0 135,31 175,93 40,62 60,146 60,253 0,108 -20,193 -60,254 -40,62 -98,92 -175,92 -76,0 -134,-31 -174,-93 -40,-63 -60,-147 -60,-253 0,-107 20,-191 60,-253 39,-62 98,-93 174,-93zm0 612c47,0 82,-23 106,-70 25,-47 37,-112 37,-196 0,-84 -12,-149 -37,-196 -24,-46 -59,-70 -106,-70 -46,0 -82,24 -106,71 -24,46 -36,111 -36,195 0,83 12,148 36,195 24,47 60,71 106,71z"/>
    <path class="fil24" d="M39133 37169l-80 0 0 138 -84 0 0 -138 -322 0 0 -39 371 -501 35 0 0 464 80 0 0 76zm-164 -76l0 -270 -201 270 201 0z"/>
    <path id="1" class="fil24" d="M39456 36629c77,0 135,31 175,92 40,62 60,146 60,253 0,108 -20,193 -60,254 -40,62 -98,93 -175,93 -76,0 -134,-32 -174,-94 -40,-63 -60,-147 -60,-253 0,-107 20,-191 60,-253 39,-61 97,-92 174,-92zm0 611c47,0 82,-23 106,-70 24,-47 37,-112 37,-196 0,-84 -13,-149 -37,-195 -24,-47 -59,-70 -106,-70 -47,0 -82,23 -106,70 -24,47 -36,112 -36,195 0,83 12,149 36,196 24,47 59,70 106,70z"/>
    <path id="2" class="fil24" d="M40005 36629c77,0 135,31 175,92 40,62 60,146 60,253 0,108 -20,193 -60,254 -40,62 -98,93 -175,93 -76,0 -134,-32 -174,-94 -40,-63 -60,-147 -60,-253 0,-107 20,-191 60,-253 39,-61 98,-92 174,-92zm0 611c47,0 82,-23 106,-70 25,-47 37,-112 37,-196 0,-84 -12,-149 -37,-195 -24,-47 -59,-70 -106,-70 -46,0 -82,23 -106,70 -24,47 -36,112 -36,195 0,83 12,149 36,196 24,47 60,70 106,70z"/>
    <path id="3" class="fil24" d="M40554 36629c77,0 135,31 175,92 40,62 60,146 60,253 0,108 -20,193 -60,254 -40,62 -98,93 -175,93 -76,0 -134,-32 -174,-94 -40,-63 -60,-147 -60,-253 0,-107 20,-191 60,-253 39,-61 98,-92 174,-92zm0 611c47,0 82,-23 106,-70 25,-47 37,-112 37,-196 0,-84 -12,-149 -37,-195 -24,-47 -59,-70 -106,-70 -46,0 -82,23 -106,70 -24,47 -36,112 -36,195 0,83 12,149 36,196 24,47 60,70 106,70z"/>
    <path class="fil24" d="M44194 31646l-489 0 0 -21 274 -281c37,-37 62,-70 77,-97 14,-28 22,-54 22,-79 0,-37 -12,-66 -36,-88 -25,-21 -55,-32 -93,-32 -31,0 -63,7 -94,21 -31,14 -63,35 -94,63l-51 -63c33,-32 71,-57 113,-75 43,-17 85,-26 128,-26 67,0 120,17 159,53 40,35 60,84 60,146 0,35 -9,71 -28,106 -18,36 -46,72 -83,108l-190 185 325 0 0 80z"/>
    <path id="1" class="fil24" d="M44504 30968c77,0 135,31 175,92 40,62 60,146 60,253 0,108 -20,193 -60,254 -40,62 -98,92 -175,92 -76,0 -134,-31 -174,-93 -40,-63 -60,-147 -60,-253 0,-107 20,-191 60,-253 39,-61 98,-92 174,-92zm0 611c47,0 82,-23 106,-70 25,-47 37,-112 37,-196 0,-84 -12,-149 -37,-196 -24,-46 -59,-69 -106,-69 -46,0 -82,23 -106,70 -24,46 -36,112 -36,195 0,83 12,149 36,196 24,47 60,70 106,70z"/>
    <path id="2" class="fil24" d="M45053 30968c77,0 135,31 175,92 40,62 60,146 60,253 0,108 -20,193 -60,254 -40,62 -98,92 -175,92 -76,0 -134,-31 -174,-93 -40,-63 -60,-147 -60,-253 0,-107 20,-191 60,-253 40,-61 98,-92 174,-92zm0 611c47,0 82,-23 107,-70 24,-47 36,-112 36,-196 0,-84 -12,-149 -36,-196 -25,-46 -60,-69 -107,-69 -46,0 -81,23 -106,70 -23,46 -35,112 -35,195 0,83 12,149 35,196 25,47 60,70 106,70z"/>
    <path id="3" class="fil24" d="M45602 30968c77,0 135,31 175,92 40,62 60,146 60,253 0,108 -20,193 -60,254 -40,62 -98,92 -175,92 -76,0 -134,-31 -174,-93 -40,-63 -60,-147 -60,-253 0,-107 20,-191 60,-253 40,-61 98,-92 174,-92zm0 611c47,0 83,-23 107,-70 24,-47 36,-112 36,-196 0,-84 -12,-149 -36,-196 -24,-46 -60,-69 -107,-69 -46,0 -81,23 -105,70 -24,46 -36,112 -36,195 0,83 12,149 36,196 24,47 59,70 105,70z"/>
    <path class="fil24" d="M44718 33805c77,0 135,31 175,93 40,62 60,146 60,253 0,108 -20,193 -60,254 -40,62 -98,92 -175,92 -76,0 -134,-31 -174,-93 -40,-63 -60,-147 -60,-253 0,-107 20,-191 60,-253 40,-62 98,-93 174,-93zm0 612c47,0 83,-23 107,-70 24,-47 36,-112 36,-196 0,-84 -12,-149 -36,-196 -24,-46 -60,-70 -107,-70 -46,0 -81,24 -105,71 -24,46 -36,111 -36,195 0,83 12,148 36,195 24,47 59,71 105,71z"/>
    <path class="fil24" d="M44718 36630c77,0 135,31 175,92 40,62 60,146 60,253 0,108 -20,193 -60,254 -40,62 -98,93 -175,93 -76,0 -134,-31 -174,-94 -40,-63 -60,-147 -60,-253 0,-107 20,-191 60,-253 40,-61 98,-92 174,-92zm0 611c47,0 83,-23 107,-70 24,-47 36,-112 36,-196 0,-84 -12,-149 -36,-195 -24,-47 -60,-70 -107,-70 -46,0 -81,23 -105,70 -24,47 -36,112 -36,195 0,83 12,149 36,196 24,47 59,70 105,70z"/>
    <polygon class="fil24" points="50002,31646 49915,31646 49915,31113 49779,31206 49779,31125 49980,30968 50002,30968 "/>
    <path id="1" class="fil24" d="M50519 31293c38,9 68,28 90,58 22,30 33,64 33,102 0,63 -21,113 -64,151 -42,37 -96,55 -160,55 -43,0 -86,-8 -128,-25 -42,-18 -78,-42 -108,-74l55 -62c27,27 55,47 84,61 29,13 58,20 89,20 42,0 76,-11 101,-33 26,-22 39,-52 39,-91 0,-36 -9,-63 -26,-80 -18,-17 -39,-28 -65,-32 -25,-5 -57,-7 -96,-7l0 -77c36,0 66,-3 90,-7 23,-4 43,-14 59,-30 16,-16 25,-41 25,-75 0,-31 -11,-55 -33,-73 -22,-17 -51,-26 -86,-26 -30,0 -58,6 -85,20 -28,14 -54,35 -78,62l-56 -60c33,-34 68,-60 106,-77 37,-17 77,-25 118,-25 61,0 110,16 147,47 36,32 55,76 55,131 0,35 -9,65 -27,91 -19,26 -45,44 -79,56z"/>
    <path id="2" class="fil24" d="M50824 31658c-15,-4 -26,-11 -35,-22 -8,-11 -13,-24 -13,-38 0,-17 6,-31 18,-43 12,-12 27,-18 44,-18 19,0 34,7 45,20 11,13 17,30 17,51 0,38 -27,105 -82,201l-55 0c29,-52 50,-103 61,-151z"/>
    <path id="3" class="fil24" d="M51483 31646l-489 0 0 -21 273 -281c37,-37 63,-70 77,-97 15,-28 22,-54 22,-79 0,-37 -12,-66 -36,-88 -24,-21 -55,-32 -92,-32 -32,0 -63,7 -94,21 -32,14 -63,35 -94,63l-52 -63c34,-32 72,-57 114,-75 42,-17 85,-26 128,-26 66,0 119,17 159,53 40,35 59,84 59,146 0,35 -9,71 -28,106 -18,36 -46,72 -83,108l-190 185 326 0 0 80z"/>
    <path id="4" class="fil24" d="M51692 31207c28,-10 59,-15 95,-15 71,0 128,21 170,62 42,41 63,97 63,167 0,72 -23,130 -67,173 -45,44 -104,65 -178,65 -40,0 -80,-8 -117,-24 -37,-17 -73,-42 -107,-76l56 -61c28,27 56,47 84,61 28,13 57,20 85,20 46,0 83,-14 111,-42 27,-29 40,-66 40,-113 0,-48 -14,-86 -42,-114 -28,-27 -66,-41 -115,-41 -51,0 -99,14 -144,44l-17 0 8 -333 386 0 -63 79 -245 0 -3 148z"/>
    <path id="5" class="fil24" d="M52342 30968c77,0 135,31 175,92 40,62 60,146 60,253 0,108 -20,193 -60,254 -40,62 -98,92 -175,92 -76,0 -134,-31 -174,-93 -40,-63 -60,-147 -60,-253 0,-107 20,-191 59,-253 40,-61 98,-92 175,-92zm0 611c46,0 82,-23 106,-70 24,-47 36,-112 36,-196 0,-84 -12,-149 -36,-196 -24,-46 -60,-69 -106,-69 -47,0 -82,23 -106,70 -24,46 -36,112 -36,195 0,83 12,149 36,196 24,47 59,70 106,70z"/>
    <path class="fil24" d="M49983 34045c28,-10 59,-15 95,-15 71,0 128,21 170,62 42,41 63,97 63,167 0,72 -22,130 -67,173 -45,44 -104,65 -177,65 -41,0 -80,-8 -118,-25 -37,-16 -73,-41 -107,-75l56 -62c28,28 56,48 84,62 28,13 57,20 86,20 46,0 83,-14 110,-43 27,-28 41,-65 41,-112 0,-48 -14,-86 -43,-114 -28,-28 -66,-41 -115,-41 -51,0 -98,14 -144,44l-17 0 8 -333 387 0 -63 79 -246 0 -3 148z"/>
    <path id="1" class="fil24" d="M50568 34073c28,-11 56,-16 85,-16 60,0 110,21 151,63 40,43 60,95 60,156 0,65 -22,118 -66,160 -44,41 -100,61 -167,61 -68,0 -124,-21 -168,-62 -43,-42 -65,-97 -65,-164 0,-57 24,-125 73,-202 48,-78 120,-166 216,-264l115 0c-47,45 -90,90 -129,135 -39,44 -74,89 -105,133zm62 344c38,0 71,-14 100,-41 28,-27 42,-60 42,-98 0,-39 -14,-72 -41,-100 -28,-28 -61,-41 -100,-41 -41,0 -75,13 -101,40 -26,26 -40,61 -40,102 0,38 14,70 42,97 27,27 60,41 98,41z"/>
    <path id="2" class="fil24" d="M51182 33805c77,0 135,31 175,93 40,62 60,146 60,253 0,108 -20,193 -60,254 -40,62 -98,92 -175,92 -76,0 -134,-31 -174,-93 -40,-63 -60,-147 -60,-253 0,-107 20,-191 60,-253 39,-62 98,-93 174,-93zm0 612c47,0 82,-23 106,-70 25,-47 37,-112 37,-196 0,-84 -12,-149 -37,-196 -24,-46 -59,-70 -106,-70 -46,0 -82,24 -106,71 -24,46 -36,111 -36,195 0,83 12,148 36,195 24,47 60,71 106,71z"/>
    <path id="3" class="fil24" d="M51731 33805c77,0 135,31 175,93 40,62 60,146 60,253 0,108 -20,193 -60,254 -40,62 -98,92 -175,92 -76,0 -134,-31 -174,-93 -40,-63 -60,-147 -60,-253 0,-107 20,-191 60,-253 40,-62 98,-93 174,-93zm0 612c47,0 82,-23 107,-70 24,-47 36,-112 36,-196 0,-84 -12,-149 -36,-196 -25,-46 -60,-70 -107,-70 -46,0 -81,24 -106,71 -23,46 -35,111 -35,195 0,83 12,148 35,195 25,47 60,71 106,71z"/>
    <polygon class="fil24" points="50002,37308 49915,37308 49915,36775 49779,36869 49779,36787 49980,36630 50002,36630 "/>
    <path id="1" class="fil24" d="M50366 36898c28,-12 56,-17 85,-17 60,0 111,21 151,64 40,42 60,94 60,156 0,64 -22,118 -66,159 -44,41 -100,62 -167,62 -68,0 -124,-21 -168,-63 -43,-42 -65,-96 -65,-163 0,-58 24,-125 73,-203 48,-78 120,-165 217,-263l114 0c-47,45 -90,89 -129,134 -39,44 -74,89 -105,134zm62 343c39,0 72,-13 100,-41 28,-27 42,-59 42,-97 0,-39 -14,-73 -41,-101 -28,-27 -61,-41 -100,-41 -41,0 -75,13 -101,40 -26,27 -40,61 -40,102 0,38 14,70 42,97 28,28 60,41 98,41z"/>
    <path id="2" class="fil24" d="M50824 37320c-15,-4 -26,-11 -35,-22 -8,-11 -13,-24 -13,-38 0,-17 6,-31 18,-43 12,-12 27,-18 44,-18 19,0 34,7 45,20 11,14 17,30 17,51 0,38 -27,105 -82,201l-55 0c29,-52 50,-103 61,-151z"/>
    <path id="3" class="fil24" d="M51483 37308l-489 0 0 -21 273 -281c37,-37 63,-70 77,-97 15,-28 22,-54 22,-79 0,-37 -12,-66 -36,-88 -24,-21 -55,-32 -92,-32 -32,0 -63,7 -94,21 -32,14 -63,35 -94,63l-52 -63c34,-32 72,-57 114,-75 42,-17 85,-26 128,-26 66,0 119,17 159,53 40,35 59,84 59,146 0,35 -9,71 -28,107 -18,35 -46,71 -83,107l-190 185 326 0 0 80z"/>
    <path id="4" class="fil24" d="M51793 36630c76,0 135,31 175,92 40,62 59,146 59,253 0,108 -19,193 -59,254 -40,62 -99,93 -175,93 -76,0 -135,-31 -174,-94 -40,-63 -60,-147 -60,-253 0,-107 20,-191 59,-253 40,-61 98,-92 175,-92zm0 611c46,0 82,-23 106,-70 24,-47 36,-112 36,-196 0,-84 -12,-149 -36,-195 -24,-47 -60,-70 -106,-70 -47,0 -82,23 -106,70 -24,47 -36,112 -36,195 0,83 12,149 36,196 24,47 59,70 106,70z"/>
    <path id="5" class="fil24" d="M52342 36630c77,0 135,31 175,92 40,62 60,146 60,253 0,108 -20,193 -60,254 -40,62 -98,93 -175,93 -76,0 -134,-31 -174,-94 -40,-63 -60,-147 -60,-253 0,-107 20,-191 59,-253 40,-61 98,-92 175,-92zm0 611c46,0 82,-23 106,-70 24,-47 36,-112 36,-196 0,-84 -12,-149 -36,-195 -24,-47 -60,-70 -106,-70 -47,0 -82,23 -106,70 -24,47 -36,112 -36,195 0,83 12,149 36,196 24,47 59,70 106,70z"/>
    <rect class="fil25" x="18933" y="17358" width="36056" height="3483"/>
    <polygon class="fil13" points="20994,19062 20759,19062 20759,19680 20609,19680 20609,19062 20374,19062 20374,18930 20994,18930 "/>
    <path id="1" class="fil13" d="M21326 19142l-26 131c-9,-3 -21,-4 -38,-4 -39,0 -72,15 -98,45 -27,29 -40,68 -40,116l0 250 -139 0 0 -505 131 -39 0 95c26,-32 52,-55 78,-71 27,-16 54,-24 82,-24 22,0 39,2 50,6z"/>
    <path id="2" class="fil13" d="M21537 19680l-139 0 0 -503 139 -41 0 544zm-70 -793c25,0 46,9 63,26 18,18 27,38 27,63 0,24 -9,45 -27,62 -17,16 -38,25 -63,25 -24,0 -45,-9 -61,-25 -17,-17 -26,-38 -26,-62 0,-25 9,-45 26,-63 17,-17 37,-26 61,-26z"/>
    <path id="3" class="fil13" d="M22263 19647l-99 47c-27,-26 -41,-52 -41,-78 -52,52 -119,78 -202,78 -81,0 -147,-26 -199,-78 -52,-52 -78,-119 -78,-201 0,-77 28,-142 82,-197 54,-55 121,-82 200,-82 82,0 147,25 194,75l114 -59 0 366c0,42 2,72 7,88 5,16 12,30 22,41zm-320 -66c47,0 84,-15 112,-46 29,-31 43,-71 43,-118 0,-51 -14,-92 -41,-122 -27,-31 -65,-46 -112,-46 -48,0 -86,16 -114,46 -29,31 -43,70 -43,118 0,48 14,88 42,120 28,32 65,48 113,48z"/>
    <polygon id="4" class="fil13" points="22517,19680 22378,19680 22378,18887 22517,18847 "/>
    <path id="5" class="fil13" d="M23076 19195c49,-39 108,-59 178,-59 80,0 146,27 198,81 52,53 78,120 78,198 0,83 -26,150 -79,202 -52,52 -121,77 -206,77 -76,0 -140,-26 -193,-78 0,26 -14,52 -42,78l-100 -48c11,-14 19,-30 22,-48 3,-17 5,-44 5,-80l0 -631 139 -40 0 348zm156 386c48,0 85,-16 113,-48 28,-32 42,-72 42,-120 0,-46 -15,-85 -44,-117 -29,-31 -66,-47 -112,-47 -48,0 -85,16 -113,46 -27,31 -41,71 -41,122 0,47 14,87 42,118 29,31 66,46 113,46z"/>
    <path id="6" class="fil13" d="M24216 19647l-98 47c-28,-26 -42,-52 -42,-78 -52,52 -119,78 -201,78 -81,0 -148,-26 -199,-78 -52,-52 -78,-119 -78,-201 0,-77 27,-142 81,-197 55,-55 122,-82 200,-82 82,0 147,25 195,75l114 -59 0 366c0,42 2,72 7,88 4,16 12,30 21,41zm-320 -66c47,0 85,-15 113,-46 28,-31 42,-71 42,-118 0,-51 -13,-92 -41,-122 -27,-31 -64,-46 -112,-46 -48,0 -86,16 -114,46 -28,31 -42,70 -42,118 0,48 14,88 42,120 27,32 65,48 112,48z"/>
    <polygon id="7" class="fil13" points="24470,19680 24331,19680 24331,18887 24470,18847 "/>
    <path id="8" class="fil13" d="M25196 19647l-99 47c-28,-26 -42,-52 -42,-78 -52,52 -119,78 -201,78 -81,0 -147,-26 -199,-78 -52,-52 -78,-119 -78,-201 0,-77 27,-142 82,-197 54,-55 121,-82 199,-82 83,0 148,25 195,75l114 -59 0 366c0,42 2,72 7,88 5,16 12,30 22,41zm-320 -66c46,0 84,-15 112,-46 28,-31 43,-71 43,-118 0,-51 -14,-92 -41,-122 -27,-31 -65,-46 -112,-46 -48,0 -87,16 -115,46 -28,31 -42,70 -42,118 0,48 14,88 42,120 27,32 65,48 113,48z"/>
    <path id="9" class="fil13" d="M25826 19680l-139 0 0 -330c0,-31 -9,-55 -25,-71 -16,-16 -39,-24 -68,-24 -44,0 -79,15 -107,46 -27,30 -41,69 -41,116l0 263 -139 0 0 -505 131 -39 0 88c27,-29 56,-51 88,-66 33,-15 68,-22 105,-22 63,0 111,18 145,53 33,36 50,87 50,154l0 337z"/>
    <path id="10" class="fil13" d="M26421 19640c-62,36 -132,54 -210,54 -83,0 -151,-26 -205,-80 -54,-53 -81,-117 -81,-193 0,-82 27,-150 82,-204 54,-54 125,-81 211,-81 79,0 145,18 197,54l-59 97c-41,-25 -85,-38 -133,-38 -47,0 -85,16 -112,47 -28,31 -42,72 -42,124 0,47 14,86 42,116 28,30 63,45 105,45 46,0 95,-14 147,-42l58 101z"/>
    <path id="11" class="fil13" d="M27009 19392l-409 76c9,40 27,69 55,89 28,19 65,29 112,29 49,0 98,-14 148,-41l58 101c-69,32 -143,48 -221,48 -90,0 -163,-25 -218,-77 -55,-51 -82,-116 -82,-195 0,-84 27,-153 82,-206 55,-53 123,-80 205,-80 76,0 139,23 189,68 49,46 76,108 81,188zm-147 -74c-12,-24 -28,-42 -48,-55 -21,-12 -46,-18 -76,-18 -37,0 -68,11 -94,33 -26,22 -41,52 -47,89l265 -49z"/>
    <path class="fil13" d="M29312 18930l222 0c99,0 173,19 222,57 50,38 74,94 74,170 0,54 -12,97 -36,130 -25,32 -57,56 -96,70 -39,14 -80,23 -121,26 -42,4 -96,5 -163,5l0 292 -102 0 0 -750zm102 372l78 0c89,0 149,-12 182,-37 33,-24 49,-60 49,-107 0,-46 -15,-81 -44,-105 -28,-24 -88,-37 -177,-37l-88 0 0 286z"/>
    <path id="1" class="fil13" d="M30252 19143l-18 89c-10,-2 -19,-3 -29,-3 -52,0 -94,17 -127,52 -32,35 -48,80 -48,134l0 265 -92 0 0 -505 89 -31 0 103c25,-37 53,-64 83,-83 30,-18 62,-28 96,-28 12,0 27,2 46,7z"/>
    <path id="2" class="fil13" d="M30554 19136c79,0 146,27 202,82 56,54 84,120 84,199 0,77 -28,142 -84,196 -56,54 -124,81 -202,81 -78,0 -145,-27 -202,-81 -56,-54 -84,-120 -84,-196 0,-79 28,-146 84,-200 56,-54 123,-81 202,-81zm0 475c54,0 98,-19 133,-56 34,-36 51,-83 51,-138 0,-56 -17,-103 -50,-141 -34,-38 -79,-56 -134,-56 -54,0 -98,18 -132,55 -35,37 -52,83 -52,138 0,56 16,103 50,141 34,38 78,57 134,57z"/>
    <path id="3" class="fil13" d="M31403 19680l-91 0 0 -454 -219 0 0 454 -91 0 0 -454 -114 0 0 -74 114 0c0,-110 22,-188 66,-232 43,-45 96,-69 158,-73l37 53c-49,9 -86,25 -110,46 -24,22 -40,48 -48,80 -8,32 -12,74 -12,126l275 0c4,0 16,-2 35,-8l0 536zm-46 -750c18,0 33,7 46,20 13,12 19,27 19,45 0,18 -6,33 -19,46 -13,12 -28,19 -46,19 -18,0 -33,-7 -46,-19 -12,-13 -18,-28 -18,-46 0,-18 6,-33 18,-46 13,-12 28,-19 46,-19z"/>
    <path id="4" class="fil13" d="M31890 19152l-46 74 -140 0 0 241c0,67 8,114 25,141 17,27 37,45 61,54l-53 42c-42,-12 -73,-35 -94,-69 -21,-35 -31,-80 -31,-138l0 -271 -116 0 0 -74 116 0 0 -129 92 -73 0 202 186 0z"/>
    <path id="5" class="fil13" d="M32769 19346c5,22 7,44 7,67 0,82 -25,149 -76,202 -51,53 -120,79 -205,79 -79,0 -145,-22 -196,-68 -52,-45 -78,-104 -78,-175 0,-42 13,-82 39,-120 26,-38 62,-66 107,-84 -35,-13 -61,-32 -80,-58 -18,-26 -27,-56 -27,-90 0,-52 20,-95 62,-130 41,-35 95,-53 161,-53 73,0 140,21 199,63l-57 78c-46,-35 -94,-52 -144,-52 -35,0 -63,9 -85,27 -23,19 -34,43 -34,72 0,32 12,57 36,75 24,19 55,28 93,28l74 0 -57 87 -30 0c-46,0 -82,16 -109,46 -28,31 -41,69 -41,113 0,45 15,82 46,110 32,29 72,43 121,43 53,0 96,-16 129,-48 33,-32 52,-77 56,-134l-135 0 50 -78 174 0z"/>
    <polygon id="6" class="fil13" points="33722,19680 33209,19680 33209,18930 33311,18930 33311,19594 33654,19594 "/>
    <path id="7" class="fil13" d="M34027 19136c78,0 146,27 202,82 55,54 83,120 83,199 0,77 -28,142 -84,196 -56,54 -123,81 -201,81 -79,0 -146,-27 -202,-81 -56,-54 -84,-120 -84,-196 0,-79 28,-146 83,-200 56,-54 124,-81 203,-81zm0 475c54,0 98,-19 132,-56 35,-36 52,-83 52,-138 0,-56 -17,-103 -51,-141 -34,-38 -78,-56 -133,-56 -54,0 -98,18 -133,55 -34,37 -52,83 -52,138 0,56 17,103 51,141 33,38 78,57 134,57z"/>
    <path id="8" class="fil13" d="M34732 19260c-44,-31 -92,-46 -144,-46 -31,0 -56,6 -77,18 -20,12 -30,29 -30,51 0,16 6,30 20,43 13,12 47,26 102,40 40,11 73,22 99,33 25,11 47,28 65,50 18,23 27,54 27,92 0,32 -8,60 -25,83 -18,23 -42,40 -74,52 -33,12 -69,18 -108,18 -72,0 -140,-21 -206,-63l47 -69c45,35 99,52 160,52 39,0 68,-6 88,-18 19,-12 29,-29 29,-53 0,-17 -7,-32 -21,-45 -14,-13 -49,-28 -106,-43 -39,-12 -72,-23 -96,-34 -25,-10 -47,-27 -64,-48 -18,-22 -27,-50 -27,-86 0,-47 19,-84 57,-111 38,-26 85,-40 142,-40 67,0 129,19 187,58l-45 66z"/>
    <path id="9" class="fil13" d="M35211 19260c-44,-31 -93,-46 -144,-46 -31,0 -57,6 -77,18 -20,12 -31,29 -31,51 0,16 7,30 21,43 13,12 47,26 102,40 40,11 73,22 98,33 26,11 48,28 66,50 18,23 27,54 27,92 0,32 -8,60 -26,83 -17,23 -42,40 -74,52 -32,12 -68,18 -108,18 -71,0 -139,-21 -205,-63l47 -69c45,35 98,52 160,52 39,0 68,-6 87,-18 20,-12 30,-29 30,-53 0,-17 -7,-32 -21,-45 -14,-13 -49,-28 -106,-43 -40,-12 -72,-23 -97,-34 -24,-10 -46,-27 -63,-48 -18,-22 -27,-50 -27,-86 0,-47 19,-84 57,-111 38,-26 85,-40 142,-40 67,0 129,19 187,58l-45 66z"/>
    <path class="fil13" d="M37889 19278c45,12 80,33 106,66 26,33 39,71 39,114 0,74 -25,130 -74,166 -49,37 -122,56 -219,56l-243 0 0 -750 249 0c87,0 153,16 196,47 44,31 66,78 66,140 0,39 -11,73 -31,101 -21,29 -51,49 -89,60zm-288 -36l84 0c89,0 148,-10 178,-32 30,-21 45,-51 45,-90 0,-32 -10,-56 -29,-71 -19,-15 -42,-25 -67,-28 -26,-4 -58,-6 -97,-6l-114 0 0 227zm0 353l112 0c82,0 138,-12 170,-35 32,-22 47,-56 47,-99 0,-44 -15,-78 -46,-101 -31,-23 -88,-34 -171,-34l-112 0 0 269z"/>
    <path id="1" class="fil13" d="M38700 19660l-70 34c-25,-22 -38,-49 -38,-80 -51,54 -117,80 -199,80 -80,0 -147,-26 -200,-79 -53,-53 -79,-120 -79,-200 0,-77 27,-142 82,-197 55,-55 120,-82 197,-82 82,0 148,26 198,77l87 -61 0 389c0,62 7,102 22,119zm-298 -46c56,0 102,-18 135,-55 34,-37 51,-85 51,-144 0,-59 -17,-107 -50,-143 -34,-37 -79,-55 -136,-55 -56,0 -101,19 -135,55 -35,36 -52,83 -52,141 0,58 17,106 50,144 34,38 79,57 137,57z"/>
    <polygon id="2" class="fil13" points="38931,19680 38840,19680 38840,18877 38931,18847 "/>
    <path id="3" class="fil13" d="M39637 19660l-69 34c-25,-22 -38,-49 -38,-80 -51,54 -117,80 -199,80 -81,0 -147,-26 -200,-79 -53,-53 -80,-120 -80,-200 0,-77 28,-142 83,-197 54,-55 120,-82 197,-82 81,0 147,26 198,77l87 -61 0 389c0,62 7,102 21,119zm-298 -46c57,0 102,-18 136,-55 34,-37 51,-85 51,-144 0,-59 -17,-107 -51,-143 -33,-37 -79,-55 -136,-55 -56,0 -101,19 -135,55 -34,36 -51,83 -51,141 0,58 17,106 50,144 34,38 79,57 136,57z"/>
    <path id="4" class="fil13" d="M40256 19680l-91 0 0 -324c0,-45 -10,-78 -29,-101 -20,-23 -49,-34 -87,-34 -55,0 -99,19 -133,57 -34,39 -51,87 -51,145l0 257 -91 0 0 -505 88 -31 0 103c25,-37 55,-64 88,-83 34,-18 72,-28 115,-28 60,0 107,18 141,53 34,36 50,85 50,147l0 344z"/>
    <path id="5" class="fil13" d="M40848 19640c-58,36 -125,54 -201,54 -79,0 -145,-26 -198,-78 -54,-52 -80,-117 -80,-195 0,-82 27,-150 81,-204 54,-54 121,-81 203,-81 74,0 137,18 189,54l-46 68c-47,-27 -92,-41 -136,-41 -60,0 -107,19 -140,55 -33,37 -50,87 -50,150 0,58 17,105 50,139 33,36 78,53 135,53 53,0 103,-15 151,-45l42 71z"/>
    <path id="6" class="fil13" d="M41422 19372l-430 85c7,51 28,89 62,116 34,27 78,41 130,41 57,0 110,-15 158,-45l43 71c-64,36 -133,54 -208,54 -82,0 -151,-25 -206,-76 -54,-51 -82,-116 -82,-196 0,-80 27,-148 80,-203 53,-55 118,-83 197,-83 68,0 127,21 175,64 48,42 75,100 81,172zm-102 -54c-10,-33 -29,-58 -59,-76 -29,-19 -61,-28 -96,-28 -48,0 -88,15 -120,45 -32,30 -50,71 -55,123l330 -64z"/>
    <path id="7" class="fil13" d="M41832 19260c-44,-31 -93,-46 -144,-46 -31,0 -56,6 -77,18 -20,12 -31,29 -31,51 0,16 7,30 21,43 13,12 47,26 102,40 40,11 73,22 99,33 25,11 47,28 65,50 18,23 27,54 27,92 0,32 -8,60 -25,83 -18,23 -43,40 -75,52 -32,12 -68,18 -108,18 -71,0 -139,-21 -205,-63l47 -69c45,35 98,52 160,52 39,0 68,-6 88,-18 19,-12 29,-29 29,-53 0,-17 -7,-32 -21,-45 -14,-13 -49,-28 -106,-43 -40,-12 -72,-23 -97,-34 -24,-10 -46,-27 -63,-48 -18,-22 -27,-50 -27,-86 0,-47 19,-84 57,-111 38,-26 85,-40 142,-40 67,0 129,19 187,58l-45 66z"/>
    <path id="8" class="fil13" d="M42490 19680l-92 0 0 -324c0,-45 -10,-78 -29,-101 -20,-23 -49,-34 -87,-34 -55,0 -99,19 -133,57 -34,39 -51,87 -51,145l0 257 -91 0 0 -804 91 -29 0 396c25,-35 55,-62 88,-80 33,-18 70,-27 112,-27 60,0 107,18 141,53 34,36 51,85 51,147l0 344z"/>
    <path id="9" class="fil13" d="M43134 19372l-430 85c7,51 28,89 62,116 35,27 78,41 130,41 57,0 110,-15 158,-45l43 71c-64,36 -133,54 -207,54 -83,0 -152,-25 -207,-76 -54,-51 -81,-116 -81,-196 0,-80 26,-148 79,-203 53,-55 119,-83 197,-83 69,0 127,21 175,64 49,42 76,100 81,172zm-102 -54c-10,-33 -29,-58 -58,-76 -30,-19 -62,-28 -97,-28 -48,0 -87,15 -119,45 -32,30 -51,71 -56,123l330 -64z"/>
    <path id="10" class="fil13" d="M43732 19372l-430 85c7,51 27,89 62,116 34,27 77,41 130,41 57,0 110,-15 158,-45l43 71c-65,36 -134,54 -208,54 -83,0 -152,-25 -206,-76 -55,-51 -82,-116 -82,-196 0,-80 26,-148 79,-203 53,-55 119,-83 197,-83 69,0 128,21 176,64 48,42 75,100 81,172zm-103 -54c-9,-33 -29,-58 -58,-76 -29,-19 -61,-28 -97,-28 -47,0 -87,15 -119,45 -32,30 -50,71 -56,123l330 -64z"/>
    <path id="11" class="fil13" d="M44163 19152l-46 74 -140 0 0 241c0,67 8,114 25,141 17,27 38,45 61,54l-53 42c-42,-12 -73,-35 -94,-69 -20,-35 -31,-80 -31,-138l0 -271 -116 0 0 -74 116 0 0 -129 92 -73 0 202 186 0z"/>
    <path class="fil24" d="M20644 23008l-174 0 0 562 174 0c95,0 170,-25 224,-75 55,-50 82,-119 82,-206 0,-87 -27,-155 -82,-206 -54,-50 -129,-75 -224,-75zm0 -105c57,0 106,5 147,16 41,11 78,28 113,51 52,35 92,80 121,136 28,55 42,116 42,182 0,67 -14,128 -43,184 -28,56 -69,101 -120,136 -34,23 -71,40 -113,51 -41,10 -90,16 -147,16l-284 0 0 -772 284 0z"/>
    <path id="1" class="fil24" d="M21430 23571l0 -149c-68,21 -116,41 -142,59 -26,18 -39,39 -39,62 0,22 7,38 21,49 13,11 32,17 56,17 18,0 36,-3 53,-10 18,-6 35,-16 51,-28zm4 62c-26,18 -50,31 -73,39 -23,8 -48,12 -74,12 -46,0 -82,-11 -107,-33 -26,-22 -39,-52 -39,-90 0,-36 14,-68 42,-95 28,-28 70,-51 126,-69l121 -41c1,-3 1,-6 1,-9 0,-3 0,-7 0,-12 0,-31 -7,-53 -22,-66 -15,-13 -40,-20 -74,-20 -28,0 -58,6 -88,18 -30,12 -60,29 -90,53l0 -100c26,-22 55,-38 87,-49 33,-11 67,-16 104,-16 65,0 113,14 143,43 29,29 44,76 44,140l0 216c0,18 2,31 5,38 3,8 8,11 16,11 6,0 12,-1 19,-4 7,-4 18,-12 34,-24l0 62c-19,16 -37,28 -56,35 -19,8 -38,12 -58,12 -20,0 -35,-4 -44,-13 -10,-8 -16,-20 -17,-38z"/>
    <path id="2" class="fil24" d="M21950 23659c-16,9 -33,15 -51,19 -18,5 -38,7 -59,7 -57,0 -97,-14 -120,-41 -24,-27 -35,-77 -35,-149l0 -242 -87 0 0 -10 178 -196 11 0 0 118 160 0 0 88 -160 0 0 234c0,42 6,70 16,82 10,12 30,19 59,19 15,0 30,-2 45,-6 15,-4 29,-11 43,-19l0 96z"/>
    <path id="3" class="fil24" d="M22480 23621c-34,21 -69,38 -105,49 -36,10 -73,16 -111,16 -80,0 -145,-25 -193,-75 -48,-50 -71,-116 -71,-199 0,-76 23,-138 69,-186 46,-47 106,-71 180,-71 74,0 132,24 175,72 43,48 65,113 65,196l0 14 -382 0c3,49 19,86 47,113 29,28 67,41 116,41 32,0 66,-6 101,-18 35,-12 71,-30 109,-54l0 102zm-373 -256l270 0c-4,-37 -17,-67 -40,-89 -24,-23 -54,-34 -89,-34 -39,0 -70,10 -94,31 -24,21 -40,52 -47,92z"/>
    <path id="4" class="fil24" d="M22885 23675l0 -772 226 0c78,0 138,19 181,55 42,37 63,89 63,156 0,51 -12,92 -35,123 -23,31 -60,54 -110,69 13,7 25,17 37,28 11,12 26,31 44,58l187 283 -133 0 -133 -203c-39,-61 -71,-100 -96,-116 -24,-17 -53,-26 -87,-26l-33 0 0 345 -111 0zm111 -438l91 0c52,0 90,-10 116,-29 25,-20 38,-51 38,-91 0,-42 -12,-73 -36,-92 -25,-19 -64,-28 -118,-28l-91 0 0 240z"/>
    <path id="5" class="fil24" d="M23737 23571l0 -149c-68,21 -115,41 -141,59 -26,18 -39,39 -39,62 0,22 6,38 20,49 13,11 32,17 56,17 19,0 36,-3 54,-10 17,-6 34,-16 50,-28zm4 62c-25,18 -50,31 -73,39 -23,8 -48,12 -74,12 -46,0 -81,-11 -107,-33 -26,-22 -39,-52 -39,-90 0,-36 14,-68 42,-95 28,-28 70,-51 126,-69l121 -41c1,-3 1,-6 1,-9 0,-3 1,-7 1,-12 0,-31 -8,-53 -23,-66 -15,-13 -39,-20 -74,-20 -28,0 -57,6 -87,18 -31,12 -61,29 -91,53l0 -100c26,-22 55,-38 88,-49 32,-11 66,-16 103,-16 65,0 113,14 143,43 30,29 44,76 44,140l0 216c0,18 2,31 5,38 3,8 8,11 16,11 6,0 13,-1 20,-4 6,-4 17,-12 33,-24l0 62c-19,16 -37,28 -56,35 -18,8 -38,12 -58,12 -20,0 -34,-4 -44,-13 -10,-8 -15,-20 -17,-38z"/>
    <path id="6" class="fil24" d="M23976 23675l0 -510 102 0 0 62c25,-24 50,-42 76,-53 25,-11 52,-17 81,-17 55,0 99,16 130,48 32,32 48,76 48,132l0 338 -102 0 0 -312c0,-41 -8,-72 -26,-91 -17,-20 -44,-30 -81,-30 -26,0 -49,5 -69,15 -19,10 -39,27 -57,50l0 368 -102 0z"/>
    <path id="7" class="fil24" d="M24570 23770c0,25 13,43 38,56 25,13 61,19 110,19 47,0 85,-6 111,-19 27,-12 41,-29 41,-51 0,-24 -16,-42 -46,-54 -30,-12 -76,-18 -136,-18 -35,0 -63,6 -85,19 -22,13 -33,29 -33,48zm60 -258c-38,-12 -67,-31 -87,-58 -20,-28 -30,-61 -30,-101 0,-62 21,-109 64,-140 42,-32 106,-48 190,-48l202 0 0 83 -86 0c14,15 24,31 31,47 6,17 10,36 10,56 0,43 -13,80 -39,110 -26,30 -61,49 -105,57 -9,2 -22,4 -38,6 -55,9 -83,23 -83,42 0,20 40,37 118,52 19,4 34,7 45,9 50,11 87,28 112,52 26,24 38,55 38,93 0,52 -21,91 -64,118 -44,28 -107,41 -189,41 -80,0 -142,-13 -185,-39 -42,-27 -63,-65 -63,-115 0,-36 12,-65 37,-88 25,-23 61,-39 109,-48 -19,-9 -33,-18 -42,-28 -9,-10 -14,-22 -14,-34 0,-14 6,-25 17,-36 11,-11 28,-21 52,-31zm89 -261c-31,0 -57,9 -76,27 -20,19 -30,42 -30,70 0,30 10,53 28,70 19,17 45,25 78,25 33,0 60,-8 80,-25 19,-17 29,-40 29,-70 0,-28 -10,-51 -31,-70 -20,-18 -46,-27 -78,-27z"/>
    <path id="8" class="fil24" d="M25492 23621c-34,21 -69,38 -105,49 -35,10 -72,16 -111,16 -80,0 -144,-25 -192,-75 -48,-50 -72,-116 -72,-199 0,-76 23,-138 69,-186 46,-47 106,-71 181,-71 73,0 131,24 174,72 43,48 65,113 65,196l0 14 -382 0c3,49 19,86 47,113 29,28 68,41 116,41 32,0 66,-6 101,-18 35,-12 71,-30 109,-54l0 102zm-373 -256l270 0c-3,-37 -17,-67 -40,-89 -24,-23 -53,-34 -89,-34 -39,0 -70,10 -94,31 -24,21 -40,52 -47,92z"/>
    <polygon class="fil24" points="26582,23675 26582,22903 26691,22903 26691,23575 27058,23575 27058,23675 "/>
    <path id="1" class="fil24" d="M27381 23571l0 -149c-68,21 -116,41 -142,59 -26,18 -39,39 -39,62 0,22 7,38 21,49 13,11 32,17 56,17 18,0 36,-3 53,-10 18,-6 35,-16 51,-28zm4 62c-26,18 -50,31 -73,39 -23,8 -48,12 -74,12 -46,0 -82,-11 -107,-33 -26,-22 -39,-52 -39,-90 0,-36 14,-68 42,-95 28,-28 70,-51 126,-69l121 -41c1,-3 1,-6 1,-9 0,-3 0,-7 0,-12 0,-31 -7,-53 -22,-66 -15,-13 -40,-20 -74,-20 -28,0 -58,6 -88,18 -30,12 -60,29 -90,53l0 -100c26,-22 55,-38 88,-49 32,-11 66,-16 103,-16 65,0 113,14 143,43 29,29 44,76 44,140l0 216c0,18 2,31 5,38 3,8 8,11 16,11 6,0 12,-1 19,-4 7,-4 18,-12 34,-24l0 62c-19,16 -37,28 -56,35 -19,8 -38,12 -58,12 -20,0 -34,-4 -44,-13 -10,-8 -16,-20 -17,-38z"/>
    <path id="2" class="fil24" d="M27587 23640l0 -109c30,20 60,36 88,46 29,11 54,16 78,16 26,0 46,-5 61,-14 15,-10 23,-23 23,-40 0,-22 -28,-46 -84,-74 -16,-8 -28,-14 -37,-19 -48,-24 -80,-48 -98,-70 -18,-23 -26,-50 -26,-83 0,-43 15,-77 45,-102 31,-25 73,-37 126,-37 29,0 56,3 83,10 26,7 52,17 78,32l0 99c-32,-17 -60,-30 -86,-38 -26,-9 -50,-13 -74,-13 -21,0 -37,4 -49,11 -11,8 -17,18 -17,32 0,26 35,56 106,91l10 5c55,28 91,52 108,73 17,22 25,48 25,81 0,45 -16,81 -50,108 -34,26 -78,40 -134,40 -32,0 -62,-4 -91,-11 -29,-8 -57,-19 -85,-34z"/>
    <path id="3" class="fil24" d="M28326 23659c-16,9 -33,15 -51,19 -18,5 -38,7 -59,7 -57,0 -97,-14 -121,-41 -23,-27 -35,-77 -35,-149l0 -242 -87 0 0 -10 179 -196 11 0 0 118 159 0 0 88 -159 0 0 234c0,42 5,70 16,82 10,12 30,19 59,19 15,0 30,-2 45,-6 14,-4 29,-11 43,-19l0 96z"/>
    <path id="4" class="fil24" d="M28789 23376c-2,10 -4,18 -5,26 0,8 -1,15 -1,22 0,48 13,87 38,116 25,30 58,44 99,44 37,0 67,-11 89,-35 23,-23 34,-54 34,-92 0,-39 -12,-70 -35,-95 -24,-24 -54,-36 -91,-36 -25,0 -48,4 -69,12 -21,9 -41,21 -59,38zm19 -118c25,-12 48,-21 69,-27 21,-6 41,-9 59,-9 63,0 115,21 157,65 41,43 62,98 62,163 0,69 -23,126 -69,170 -46,45 -104,67 -175,67 -73,0 -131,-25 -175,-75 -44,-50 -66,-116 -66,-199 0,-102 27,-197 80,-286 54,-88 133,-167 236,-236l60 75c-66,46 -118,92 -157,139 -38,47 -65,98 -81,153z"/>
    <path id="5" class="fil24" d="M29548 23675l0 -510 101 0 0 62c26,-24 51,-42 76,-53 26,-11 53,-17 82,-17 37,0 69,7 94,21 25,14 46,35 63,65 32,-31 61,-53 88,-66 28,-13 57,-20 88,-20 55,0 99,16 131,48 32,32 48,76 48,132l0 338 -102 0 0 -312c0,-42 -9,-72 -26,-92 -17,-19 -44,-29 -80,-29 -27,0 -50,5 -70,15 -20,10 -39,27 -58,50l0 368 -100 0 0 -312c0,-41 -8,-72 -26,-91 -17,-20 -44,-30 -81,-30 -26,0 -49,5 -69,15 -19,10 -39,27 -58,50l0 368 -101 0z"/>
    <path id="6" class="fil24" d="M30518 23419c0,48 16,88 48,122 32,33 71,50 116,50 45,0 83,-17 116,-50 32,-34 48,-75 48,-122 0,-46 -16,-86 -48,-120 -32,-34 -71,-50 -116,-50 -45,0 -84,16 -116,50 -32,34 -48,74 -48,120zm-106 0c0,-74 26,-136 79,-188 52,-51 117,-77 192,-77 36,0 70,7 103,20 32,13 61,33 87,58 26,26 46,55 60,87 13,32 20,65 20,100 0,35 -7,69 -21,102 -14,34 -33,63 -59,87 -26,25 -54,45 -87,57 -32,13 -66,20 -103,20 -75,0 -140,-26 -192,-77 -53,-52 -79,-115 -79,-189z"/>
    <path id="7" class="fil24" d="M31049 23675l0 -510 102 0 0 62c25,-24 51,-42 76,-53 25,-11 52,-17 81,-17 55,0 99,16 131,48 32,32 48,76 48,132l0 338 -102 0 0 -312c0,-41 -9,-72 -26,-91 -18,-20 -45,-30 -82,-30 -26,0 -49,5 -68,15 -20,10 -39,27 -58,50l0 368 -102 0z"/>
    <path id="8" class="fil24" d="M31894 23659c-15,9 -32,15 -51,19 -18,5 -37,7 -58,7 -57,0 -98,-14 -121,-41 -23,-27 -35,-77 -35,-149l0 -242 -87 0 0 -10 178 -196 12 0 0 118 159 0 0 88 -159 0 0 234c0,42 5,70 15,82 11,12 30,19 59,19 16,0 31,-2 45,-6 15,-4 29,-11 43,-19l0 96z"/>
    <path id="9" class="fil24" d="M31979 23675l0 -772 102 0 0 324c25,-24 50,-42 75,-53 26,-11 53,-17 82,-17 55,0 99,16 131,48 32,32 48,76 48,132l0 338 -103 0 0 -312c0,-42 -8,-72 -25,-92 -17,-19 -44,-29 -80,-29 -27,0 -51,5 -71,15 -20,11 -39,27 -57,50l0 368 -102 0z"/>
    <path id="10" class="fil24" d="M32510 23640l0 -109c30,20 60,36 88,46 28,11 54,16 78,16 26,0 46,-5 61,-14 15,-10 23,-23 23,-40 0,-22 -28,-46 -84,-74 -16,-8 -28,-14 -37,-19 -48,-24 -80,-48 -98,-70 -18,-23 -27,-50 -27,-83 0,-43 16,-77 46,-102 31,-25 73,-37 126,-37 29,0 56,3 83,10 26,7 52,17 78,32l0 99c-32,-17 -60,-30 -86,-38 -26,-9 -51,-13 -74,-13 -21,0 -37,4 -49,11 -12,8 -17,18 -17,32 0,26 35,56 106,91l9 5c56,28 92,52 109,73 17,22 25,48 25,81 0,45 -16,81 -50,108 -34,26 -78,40 -134,40 -32,0 -62,-4 -91,-11 -29,-8 -57,-19 -85,-34z"/>
    <path class="fil1" d="M34276 23392l228 0 -108 -294 -120 294zm-323 283l337 -772 222 0 301 772 -205 0 -55 -151 -332 0 -62 151 -206 0z"/>
    <path id="1" class="fil1" d="M35014 23299l0 224c14,11 29,19 44,25 15,5 31,8 46,8 41,0 72,-13 96,-38 23,-26 34,-61 34,-105 0,-44 -11,-80 -34,-106 -23,-27 -53,-40 -91,-40 -16,0 -32,2 -48,8 -16,5 -31,13 -47,24zm-164 632l0 -779 158 0 0 43c22,-19 45,-33 70,-42 24,-8 51,-13 81,-13 73,0 133,26 178,76 46,51 69,117 69,198 0,81 -23,146 -69,197 -45,50 -105,75 -178,75 -29,0 -55,-4 -79,-12 -24,-8 -46,-21 -66,-38l0 295 -164 0z"/>
    <path id="2" class="fil1" d="M35660 23299l0 224c14,11 29,19 44,25 15,5 31,8 46,8 41,0 72,-13 96,-38 23,-26 34,-61 34,-105 0,-44 -11,-80 -34,-106 -23,-27 -53,-40 -91,-40 -16,0 -32,2 -48,8 -16,5 -31,13 -47,24zm-164 632l0 -779 158 0 0 43c22,-19 45,-33 70,-42 24,-8 51,-13 81,-13 73,0 133,26 178,76 46,51 69,117 69,198 0,81 -23,146 -69,197 -45,50 -105,75 -178,75 -29,0 -55,-4 -79,-12 -24,-8 -46,-21 -66,-38l0 295 -164 0z"/>
    <polygon id="3" class="fil1" points="36142,23675 36142,22903 36307,22903 36307,23675 "/>
    <polygon id="4" class="fil1" points="36566,23931 36393,23931 36548,23591 36349,23152 36526,23152 36632,23407 36745,23152 36919,23152 "/>
    <rect class="fil23 str1" x="18933" y="25416" width="36057" height="3510"/>
   </g>
  </g>
 </g>
</svg>
