<svg width="600" height="455" viewBox="0 0 600 455" fill="none" xmlns="http://www.w3.org/2000/svg">
<g clip-path="url(#clip0_2090_29029)">
<path d="M454.333 50H537.667L495.917 102.5L454.333 50ZM431.417 46.75C448.25 68.3333 479.333 108.333 479.333 108.333V158.333C479.333 162.917 483.083 166.667 487.667 166.667H504.333C508.917 166.667 512.667 162.917 512.667 158.333V108.333C512.667 108.333 543.667 68.3333 560.5 46.75C564.75 41.25 560.833 33.3333 553.917 33.3333H438C431.083 33.3333 427.167 41.25 431.417 46.75Z" fill="#DBEAF6"/>
</g>
<path fill-rule="evenodd" clip-rule="evenodd" d="M146.312 269.718L162.992 260.088L215.743 290.544V351.455L199.052 361.092V382.211C199.052 388.166 195.875 393.668 190.718 396.645L127.999 432.856C122.843 435.833 116.489 435.833 111.333 432.856L48.6136 396.645C43.4569 393.668 40.2803 388.166 40.2803 382.211V309.79C40.2803 303.835 43.4569 298.333 48.6136 295.356L111.333 259.145C116.489 256.168 122.843 256.168 127.999 259.145L146.312 269.718ZM162.979 279.341L162.992 279.333L199.076 300.166V341.833L162.992 362.666L126.907 341.833V300.166L162.979 279.341ZM182.385 370.715V382.211L119.666 418.422L56.9469 382.211V309.79L119.666 273.579L129.646 279.34L110.241 290.544V351.455L162.992 381.911L182.385 370.715Z" fill="#DBEAF6"/>
<path d="M49.0824 161L46.2983 150.818H47.5511L49.679 159.111H49.7784L51.946 150.818H53.3381L55.5057 159.111H55.6051L57.733 150.818H58.9858L56.2017 161H54.929L52.6818 152.886H52.6023L50.3551 161H49.0824ZM61.5362 156.406V161H60.3629V150.818H61.5362V154.557H61.6357C61.8146 154.162 62.0831 153.849 62.4411 153.617C62.8023 153.382 63.2829 153.264 63.8828 153.264C64.4032 153.264 64.8589 153.369 65.25 153.577C65.6411 153.783 65.9444 154.099 66.1598 154.527C66.3786 154.951 66.4879 155.491 66.4879 156.148V161H65.3146V156.227C65.3146 155.621 65.1572 155.152 64.8423 154.82C64.5308 154.486 64.0982 154.318 63.5447 154.318C63.1603 154.318 62.8156 154.399 62.5107 154.562C62.209 154.724 61.9704 154.961 61.7947 155.273C61.6224 155.584 61.5362 155.962 61.5362 156.406ZM71.8361 161.159C71.1003 161.159 70.4656 160.997 69.932 160.672C69.4017 160.344 68.9924 159.886 68.704 159.3C68.419 158.71 68.2765 158.024 68.2765 157.241C68.2765 156.459 68.419 155.77 68.704 155.173C68.9924 154.573 69.3934 154.106 69.9071 153.771C70.4242 153.433 71.0274 153.264 71.7168 153.264C72.1145 153.264 72.5073 153.33 72.8951 153.463C73.2828 153.596 73.6358 153.811 73.954 154.109C74.2722 154.404 74.5257 154.795 74.7147 155.283C74.9036 155.77 74.998 156.37 74.998 157.082V157.58H69.1117V156.565H73.8049C73.8049 156.134 73.7187 155.75 73.5463 155.412C73.3773 155.074 73.1354 154.807 72.8205 154.612C72.5089 154.416 72.141 154.318 71.7168 154.318C71.2495 154.318 70.8451 154.434 70.5037 154.666C70.1657 154.895 69.9055 155.193 69.7232 155.561C69.5409 155.929 69.4498 156.323 69.4498 156.744V157.42C69.4498 157.997 69.5492 158.486 69.748 158.887C69.9502 159.285 70.2303 159.588 70.5882 159.797C70.9462 160.002 71.3622 160.105 71.8361 160.105C72.1444 160.105 72.4228 160.062 72.6713 159.976C72.9232 159.886 73.1403 159.754 73.3226 159.578C73.5049 159.399 73.6458 159.177 73.7452 158.912L74.8787 159.23C74.7594 159.615 74.5589 159.953 74.2772 160.244C73.9954 160.533 73.6474 160.758 73.2331 160.92C72.8188 161.08 72.3532 161.159 71.8361 161.159ZM76.7828 161V153.364H77.9164V154.517H77.9959C78.1351 154.139 78.387 153.833 78.7516 153.597C79.1162 153.362 79.5272 153.244 79.9846 153.244C80.0707 153.244 80.1784 153.246 80.3077 153.249C80.437 153.253 80.5347 153.258 80.601 153.264V154.457C80.5613 154.447 80.4701 154.433 80.3276 154.413C80.1884 154.389 80.0409 154.378 79.8851 154.378C79.5139 154.378 79.1825 154.456 78.8908 154.612C78.6025 154.764 78.3738 154.976 78.2047 155.248C78.039 155.516 77.9561 155.823 77.9561 156.168V161H76.7828ZM84.9611 161.159C84.2253 161.159 83.5906 160.997 83.057 160.672C82.5267 160.344 82.1174 159.886 81.829 159.3C81.544 158.71 81.4015 158.024 81.4015 157.241C81.4015 156.459 81.544 155.77 81.829 155.173C82.1174 154.573 82.5184 154.106 83.0321 153.771C83.5492 153.433 84.1524 153.264 84.8418 153.264C85.2395 153.264 85.6323 153.33 86.0201 153.463C86.4078 153.596 86.7608 153.811 87.079 154.109C87.3972 154.404 87.6507 154.795 87.8397 155.283C88.0286 155.77 88.123 156.37 88.123 157.082V157.58H82.2367V156.565H86.9299C86.9299 156.134 86.8437 155.75 86.6713 155.412C86.5023 155.074 86.2604 154.807 85.9455 154.612C85.6339 154.416 85.266 154.318 84.8418 154.318C84.3745 154.318 83.9701 154.434 83.6287 154.666C83.2907 154.895 83.0305 155.193 82.8482 155.561C82.6659 155.929 82.5748 156.323 82.5748 156.744V157.42C82.5748 157.997 82.6742 158.486 82.873 158.887C83.0752 159.285 83.3553 159.588 83.7132 159.797C84.0712 160.002 84.4872 160.105 84.9611 160.105C85.2694 160.105 85.5478 160.062 85.7963 159.976C86.0482 159.886 86.2653 159.754 86.4476 159.578C86.6299 159.399 86.7708 159.177 86.8702 158.912L88.0037 159.23C87.8844 159.615 87.6839 159.953 87.4022 160.244C87.1204 160.533 86.7724 160.758 86.3581 160.92C85.9438 161.08 85.4782 161.159 84.9611 161.159Z" fill="#3F4346"/>
<g clip-path="url(#clip1_2090_29029)">
<rect x="132" y="141" width="422" height="30" rx="4" fill="white"/>
<path d="M149.307 150.818V161H148.114L142.565 153.006H142.466V161H141.233V150.818H142.426L147.994 158.832H148.094V150.818H149.307ZM153.862 161.179C153.378 161.179 152.939 161.088 152.545 160.906C152.15 160.72 151.837 160.453 151.605 160.105C151.373 159.754 151.257 159.33 151.257 158.832C151.257 158.395 151.343 158.04 151.515 157.768C151.688 157.493 151.918 157.278 152.206 157.122C152.495 156.966 152.813 156.85 153.161 156.774C153.512 156.695 153.865 156.632 154.22 156.585C154.684 156.526 155.06 156.481 155.349 156.451C155.64 156.418 155.852 156.363 155.985 156.287C156.121 156.211 156.189 156.078 156.189 155.889V155.849C156.189 155.359 156.055 154.978 155.786 154.706C155.521 154.434 155.118 154.298 154.578 154.298C154.018 154.298 153.579 154.421 153.26 154.666C152.942 154.911 152.719 155.173 152.589 155.452L151.476 155.054C151.675 154.59 151.94 154.229 152.271 153.97C152.606 153.708 152.97 153.526 153.365 153.423C153.763 153.317 154.154 153.264 154.538 153.264C154.783 153.264 155.065 153.294 155.383 153.354C155.705 153.41 156.015 153.528 156.313 153.707C156.615 153.886 156.865 154.156 157.064 154.517C157.263 154.878 157.362 155.362 157.362 155.969V161H156.189V159.966H156.129C156.05 160.132 155.917 160.309 155.731 160.498C155.546 160.687 155.299 160.848 154.991 160.98C154.682 161.113 154.306 161.179 153.862 161.179ZM154.041 160.125C154.505 160.125 154.896 160.034 155.214 159.852C155.536 159.669 155.778 159.434 155.94 159.146C156.106 158.857 156.189 158.554 156.189 158.236V157.162C156.139 157.222 156.03 157.276 155.861 157.326C155.695 157.372 155.503 157.414 155.284 157.45C155.068 157.483 154.858 157.513 154.653 157.54C154.45 157.563 154.286 157.583 154.16 157.599C153.855 157.639 153.57 157.704 153.305 157.793C153.043 157.879 152.831 158.01 152.669 158.186C152.51 158.358 152.43 158.594 152.43 158.892C152.43 159.3 152.581 159.608 152.883 159.817C153.188 160.022 153.574 160.125 154.041 160.125ZM159.504 161V153.364H160.637V154.557H160.737C160.896 154.149 161.152 153.833 161.507 153.607C161.862 153.379 162.288 153.264 162.785 153.264C163.289 153.264 163.708 153.379 164.043 153.607C164.381 153.833 164.644 154.149 164.833 154.557H164.913C165.108 154.162 165.402 153.849 165.793 153.617C166.184 153.382 166.653 153.264 167.2 153.264C167.882 153.264 168.441 153.478 168.875 153.906C169.309 154.33 169.526 154.991 169.526 155.889V161H168.353V155.889C168.353 155.326 168.199 154.923 167.891 154.681C167.582 154.439 167.219 154.318 166.802 154.318C166.265 154.318 165.849 154.481 165.554 154.805C165.259 155.127 165.112 155.535 165.112 156.028V161H163.918V155.77C163.918 155.336 163.777 154.986 163.496 154.721C163.214 154.452 162.851 154.318 162.407 154.318C162.102 154.318 161.817 154.399 161.552 154.562C161.29 154.724 161.078 154.95 160.915 155.238C160.756 155.523 160.677 155.853 160.677 156.227V161H159.504ZM174.873 161.159C174.137 161.159 173.503 160.997 172.969 160.672C172.439 160.344 172.029 159.886 171.741 159.3C171.456 158.71 171.314 158.024 171.314 157.241C171.314 156.459 171.456 155.77 171.741 155.173C172.029 154.573 172.431 154.106 172.944 153.771C173.461 153.433 174.065 153.264 174.754 153.264C175.152 153.264 175.544 153.33 175.932 153.463C176.32 153.596 176.673 153.811 176.991 154.109C177.309 154.404 177.563 154.795 177.752 155.283C177.941 155.77 178.035 156.37 178.035 157.082V157.58H172.149V156.565H176.842C176.842 156.134 176.756 155.75 176.583 155.412C176.414 155.074 176.172 154.807 175.858 154.612C175.546 154.416 175.178 154.318 174.754 154.318C174.287 154.318 173.882 154.434 173.541 154.666C173.203 154.895 172.943 155.193 172.76 155.561C172.578 155.929 172.487 156.323 172.487 156.744V157.42C172.487 157.997 172.586 158.486 172.785 158.887C172.987 159.285 173.267 159.588 173.625 159.797C173.983 160.002 174.399 160.105 174.873 160.105C175.181 160.105 175.46 160.062 175.708 159.976C175.96 159.886 176.177 159.754 176.36 159.578C176.542 159.399 176.683 159.177 176.782 158.912L177.916 159.23C177.797 159.615 177.596 159.953 177.314 160.244C177.033 160.533 176.685 160.758 176.27 160.92C175.856 161.08 175.39 161.159 174.873 161.159Z" fill="#3F4346"/>
<path d="M232.981 154.333L236.222 157.667L239.463 154.333H232.981Z" fill="#5D6164"/>
<rect x="132" y="141" width="120" height="30" stroke="#D5D9DC"/>
<path d="M266.483 155.074L265.429 155.372C265.363 155.196 265.265 155.026 265.136 154.86C265.01 154.691 264.837 154.552 264.619 154.442C264.4 154.333 264.12 154.278 263.778 154.278C263.311 154.278 262.922 154.386 262.61 154.602C262.302 154.814 262.148 155.084 262.148 155.412C262.148 155.704 262.254 155.934 262.466 156.103C262.678 156.272 263.009 156.413 263.46 156.526L264.594 156.804C265.277 156.97 265.785 157.223 266.12 157.565C266.455 157.903 266.622 158.339 266.622 158.872C266.622 159.31 266.496 159.701 266.244 160.045C265.996 160.39 265.648 160.662 265.2 160.861C264.753 161.06 264.232 161.159 263.639 161.159C262.86 161.159 262.216 160.99 261.705 160.652C261.195 160.314 260.872 159.82 260.736 159.17L261.849 158.892C261.955 159.303 262.156 159.611 262.451 159.817C262.749 160.022 263.139 160.125 263.619 160.125C264.166 160.125 264.6 160.009 264.922 159.777C265.247 159.542 265.409 159.26 265.409 158.932C265.409 158.667 265.316 158.445 265.131 158.266C264.945 158.083 264.66 157.947 264.276 157.858L263.003 157.56C262.304 157.394 261.79 157.137 261.462 156.789C261.137 156.438 260.974 155.999 260.974 155.472C260.974 155.041 261.095 154.66 261.337 154.328C261.583 153.997 261.916 153.737 262.337 153.548C262.761 153.359 263.241 153.264 263.778 153.264C264.534 153.264 265.127 153.43 265.558 153.761C265.992 154.093 266.301 154.53 266.483 155.074ZM271.709 153.364V154.358H267.752V153.364H271.709ZM268.905 151.534H270.079V158.812C270.079 159.144 270.127 159.393 270.223 159.558C270.322 159.721 270.448 159.83 270.601 159.886C270.756 159.939 270.921 159.966 271.093 159.966C271.222 159.966 271.328 159.959 271.411 159.946C271.494 159.929 271.56 159.916 271.61 159.906L271.849 160.96C271.769 160.99 271.658 161.02 271.515 161.05C271.373 161.083 271.192 161.099 270.974 161.099C270.642 161.099 270.317 161.028 269.999 160.886C269.684 160.743 269.422 160.526 269.214 160.234C269.008 159.943 268.905 159.575 268.905 159.131V151.534ZM275.721 161.179C275.238 161.179 274.798 161.088 274.404 160.906C274.01 160.72 273.696 160.453 273.464 160.105C273.232 159.754 273.116 159.33 273.116 158.832C273.116 158.395 273.202 158.04 273.375 157.768C273.547 157.493 273.778 157.278 274.066 157.122C274.354 156.966 274.672 156.85 275.02 156.774C275.372 156.695 275.725 156.632 276.079 156.585C276.543 156.526 276.92 156.481 277.208 156.451C277.5 156.418 277.712 156.363 277.844 156.287C277.98 156.211 278.048 156.078 278.048 155.889V155.849C278.048 155.359 277.914 154.978 277.645 154.706C277.38 154.434 276.978 154.298 276.437 154.298C275.877 154.298 275.438 154.421 275.12 154.666C274.802 154.911 274.578 155.173 274.449 155.452L273.335 155.054C273.534 154.59 273.799 154.229 274.131 153.97C274.465 153.708 274.83 153.526 275.224 153.423C275.622 153.317 276.013 153.264 276.398 153.264C276.643 153.264 276.925 153.294 277.243 153.354C277.564 153.41 277.874 153.528 278.172 153.707C278.474 153.886 278.724 154.156 278.923 154.517C279.122 154.878 279.221 155.362 279.221 155.969V161H278.048V159.966H277.988C277.909 160.132 277.776 160.309 277.591 160.498C277.405 160.687 277.158 160.848 276.85 160.98C276.542 161.113 276.166 161.179 275.721 161.179ZM275.9 160.125C276.364 160.125 276.756 160.034 277.074 159.852C277.395 159.669 277.637 159.434 277.8 159.146C277.965 158.857 278.048 158.554 278.048 158.236V157.162C277.998 157.222 277.889 157.276 277.72 157.326C277.554 157.372 277.362 157.414 277.143 157.45C276.928 157.483 276.717 157.513 276.512 157.54C276.31 157.563 276.146 157.583 276.02 157.599C275.715 157.639 275.43 157.704 275.165 157.793C274.903 157.879 274.691 158.01 274.528 158.186C274.369 158.358 274.29 158.594 274.29 158.892C274.29 159.3 274.44 159.608 274.742 159.817C275.047 160.022 275.433 160.125 275.9 160.125ZM281.363 161V153.364H282.496V154.517H282.576C282.715 154.139 282.967 153.833 283.332 153.597C283.696 153.362 284.107 153.244 284.565 153.244C284.651 153.244 284.759 153.246 284.888 153.249C285.017 153.253 285.115 153.258 285.181 153.264V154.457C285.141 154.447 285.05 154.433 284.908 154.413C284.768 154.389 284.621 154.378 284.465 154.378C284.094 154.378 283.763 154.456 283.471 154.612C283.183 154.764 282.954 154.976 282.785 155.248C282.619 155.516 282.536 155.823 282.536 156.168V161H281.363ZM290.371 153.364V154.358H286.414V153.364H290.371ZM287.567 151.534H288.741V158.812C288.741 159.144 288.789 159.393 288.885 159.558C288.984 159.721 289.11 159.83 289.263 159.886C289.419 159.939 289.583 159.966 289.755 159.966C289.884 159.966 289.99 159.959 290.073 159.946C290.156 159.929 290.222 159.916 290.272 159.906L290.511 160.96C290.431 160.99 290.32 161.02 290.178 161.05C290.035 161.083 289.854 161.099 289.636 161.099C289.304 161.099 288.979 161.028 288.661 160.886C288.346 160.743 288.085 160.526 287.876 160.234C287.67 159.943 287.567 159.575 287.567 159.131V151.534ZM297.804 161L295.477 153.364H296.71L298.361 159.21H298.44L300.071 153.364H301.324L302.935 159.19H303.014L304.665 153.364H305.898L303.571 161H302.418L300.747 155.134H300.628L298.957 161H297.804ZM307.449 161V153.364H308.622V161H307.449ZM308.045 152.091C307.817 152.091 307.62 152.013 307.454 151.857C307.291 151.701 307.21 151.514 307.21 151.295C307.21 151.077 307.291 150.889 307.454 150.734C307.62 150.578 307.817 150.5 308.045 150.5C308.274 150.5 308.47 150.578 308.632 150.734C308.798 150.889 308.881 151.077 308.881 151.295C308.881 151.514 308.798 151.701 308.632 151.857C308.47 152.013 308.274 152.091 308.045 152.091ZM314.092 153.364V154.358H310.135V153.364H314.092ZM311.288 151.534H312.461V158.812C312.461 159.144 312.51 159.393 312.606 159.558C312.705 159.721 312.831 159.83 312.983 159.886C313.139 159.939 313.303 159.966 313.476 159.966C313.605 159.966 313.711 159.959 313.794 159.946C313.877 159.929 313.943 159.916 313.993 159.906L314.231 160.96C314.152 160.99 314.041 161.02 313.898 161.05C313.756 161.083 313.575 161.099 313.356 161.099C313.025 161.099 312.7 161.028 312.382 160.886C312.067 160.743 311.805 160.526 311.596 160.234C311.391 159.943 311.288 159.575 311.288 159.131V151.534ZM317.194 156.406V161H316.021V150.818H317.194V154.557H317.294C317.473 154.162 317.741 153.849 318.099 153.617C318.461 153.382 318.941 153.264 319.541 153.264C320.061 153.264 320.517 153.369 320.908 153.577C321.299 153.783 321.603 154.099 321.818 154.527C322.037 154.951 322.146 155.491 322.146 156.148V161H320.973V156.227C320.973 155.621 320.815 155.152 320.501 154.82C320.189 154.486 319.756 154.318 319.203 154.318C318.818 154.318 318.474 154.399 318.169 154.562C317.867 154.724 317.629 154.961 317.453 155.273C317.281 155.584 317.194 155.962 317.194 156.406Z" fill="#3F4346"/>
<path d="M368.982 154.333L372.222 157.667L375.463 154.333H368.982Z" fill="#5D6164"/>
<rect x="252" y="141" width="136" height="30" stroke="#D5D9DC"/>
<path d="M399.321 161.179C398.837 161.179 398.398 161.088 398.004 160.906C397.609 160.72 397.296 160.453 397.064 160.105C396.832 159.754 396.716 159.33 396.716 158.832C396.716 158.395 396.802 158.04 396.974 157.768C397.147 157.493 397.377 157.278 397.665 157.122C397.954 156.966 398.272 156.85 398.62 156.774C398.971 156.695 399.324 156.632 399.679 156.585C400.143 156.526 400.519 156.481 400.808 156.451C401.099 156.418 401.311 156.363 401.444 156.287C401.58 156.211 401.648 156.078 401.648 155.889V155.849C401.648 155.359 401.513 154.978 401.245 154.706C400.98 154.434 400.577 154.298 400.037 154.298C399.477 154.298 399.038 154.421 398.719 154.666C398.401 154.911 398.178 155.173 398.048 155.452L396.935 155.054C397.134 154.59 397.399 154.229 397.73 153.97C398.065 153.708 398.429 153.526 398.824 153.423C399.222 153.317 399.613 153.264 399.997 153.264C400.242 153.264 400.524 153.294 400.842 153.354C401.164 153.41 401.474 153.528 401.772 153.707C402.074 153.886 402.324 154.156 402.523 154.517C402.722 154.878 402.821 155.362 402.821 155.969V161H401.648V159.966H401.588C401.509 160.132 401.376 160.309 401.19 160.498C401.005 160.687 400.758 160.848 400.45 160.98C400.141 161.113 399.765 161.179 399.321 161.179ZM399.5 160.125C399.964 160.125 400.355 160.034 400.673 159.852C400.995 159.669 401.237 159.434 401.399 159.146C401.565 158.857 401.648 158.554 401.648 158.236V157.162C401.598 157.222 401.489 157.276 401.32 157.326C401.154 157.372 400.962 157.414 400.743 157.45C400.527 157.483 400.317 157.513 400.112 157.54C399.909 157.563 399.745 157.583 399.619 157.599C399.314 157.639 399.029 157.704 398.764 157.793C398.502 157.879 398.29 158.01 398.128 158.186C397.969 158.358 397.889 158.594 397.889 158.892C397.889 159.3 398.04 159.608 398.342 159.817C398.647 160.022 399.033 160.125 399.5 160.125Z" fill="#3F4346"/>
<rect x="388" y="141" width="136" height="30" stroke="#D5D9DC"/>
<path d="M542 153.75V161.25H536V153.75H542ZM540.875 149.25H537.125L536.375 150H533.75V151.5H544.25V150H541.625L540.875 149.25ZM543.5 152.25H534.5V161.25C534.5 162.075 535.175 162.75 536 162.75H542C542.825 162.75 543.5 162.075 543.5 161.25V152.25Z" fill="#5D6164"/>
<rect x="524" y="141" width="30" height="30" stroke="#D5D9DC"/>
</g>
<rect x="132.5" y="141.5" width="421" height="29" rx="3.5" stroke="#D5D9DC"/>
<rect x="46" y="187" width="70" height="30" rx="4" fill="white"/>
<path d="M55.6506 207H54.358L58.0966 196.818H59.3693L63.108 207H61.8153L58.7727 198.429H58.6932L55.6506 207ZM56.1278 203.023H61.3381V204.116H56.1278V203.023ZM65.7081 202.406V207H64.5348V199.364H65.6683V200.557H65.7678C65.9467 200.169 66.2185 199.857 66.5831 199.622C66.9477 199.384 67.4183 199.264 67.995 199.264C68.5121 199.264 68.9645 199.37 69.3523 199.582C69.7401 199.791 70.0417 200.109 70.2571 200.537C70.4725 200.961 70.5803 201.498 70.5803 202.148V207H69.407V202.227C69.407 201.627 69.2512 201.16 68.9396 200.825C68.6281 200.487 68.2005 200.318 67.657 200.318C67.2824 200.318 66.9477 200.399 66.6527 200.562C66.361 200.724 66.1307 200.961 65.9616 201.273C65.7926 201.584 65.7081 201.962 65.7081 202.406ZM75.6078 207.159C74.9714 207.159 74.4096 206.998 73.9224 206.677C73.4352 206.352 73.054 205.895 72.7789 205.305C72.5038 204.711 72.3663 204.01 72.3663 203.202C72.3663 202.4 72.5038 201.704 72.7789 201.114C73.054 200.524 73.4368 200.068 73.9274 199.746C74.4179 199.425 74.9847 199.264 75.6277 199.264C76.1248 199.264 76.5176 199.347 76.8059 199.513C77.0976 199.675 77.3197 199.861 77.4721 200.07C77.6279 200.275 77.7489 200.444 77.835 200.577H77.9345V196.818H79.1078V207H77.9743V205.827H77.835C77.7489 205.966 77.6262 206.142 77.4672 206.354C77.3081 206.562 77.081 206.75 76.786 206.915C76.4911 207.078 76.0983 207.159 75.6078 207.159ZM75.7669 206.105C76.2375 206.105 76.6352 205.982 76.96 205.737C77.2849 205.489 77.5318 205.146 77.7008 204.708C77.8699 204.267 77.9544 203.759 77.9544 203.182C77.9544 202.612 77.8715 202.113 77.7058 201.685C77.5401 201.254 77.2948 200.92 76.97 200.681C76.6452 200.439 76.2441 200.318 75.7669 200.318C75.2697 200.318 74.8554 200.446 74.524 200.701C74.1958 200.953 73.9489 201.296 73.7832 201.73C73.6208 202.161 73.5396 202.645 73.5396 203.182C73.5396 203.725 73.6225 204.219 73.7882 204.663C73.9572 205.104 74.2058 205.455 74.5339 205.717C74.8654 205.976 75.2763 206.105 75.7669 206.105Z" fill="#3F4346"/>
<path d="M96.9815 200.333L100.222 203.667L103.463 200.333H96.9815Z" fill="#5D6164"/>
<rect x="46" y="187" width="70" height="30" rx="4" stroke="#D5D9DC"/>
<g clip-path="url(#clip2_2090_29029)">
<rect x="132" y="187" width="422" height="30" rx="4" fill="white"/>
<path d="M141.233 207V196.818H147.378V197.912H142.466V201.352H147.06V202.446H142.466V205.906H147.457V207H141.233ZM149.441 207V199.364H150.575V200.557H150.674C150.833 200.149 151.09 199.833 151.445 199.607C151.799 199.379 152.225 199.264 152.722 199.264C153.226 199.264 153.645 199.379 153.98 199.607C154.318 199.833 154.582 200.149 154.771 200.557H154.85C155.046 200.162 155.339 199.849 155.73 199.617C156.121 199.382 156.59 199.264 157.137 199.264C157.82 199.264 158.378 199.478 158.812 199.906C159.247 200.33 159.464 200.991 159.464 201.889V207H158.29V201.889C158.29 201.326 158.136 200.923 157.828 200.681C157.52 200.439 157.157 200.318 156.739 200.318C156.202 200.318 155.786 200.481 155.491 200.805C155.196 201.127 155.049 201.535 155.049 202.028V207H153.856V201.77C153.856 201.336 153.715 200.986 153.433 200.721C153.152 200.452 152.789 200.318 152.344 200.318C152.04 200.318 151.754 200.399 151.489 200.562C151.228 200.724 151.015 200.95 150.853 201.238C150.694 201.523 150.614 201.853 150.614 202.227V207H149.441ZM163.856 207.179C163.372 207.179 162.933 207.088 162.539 206.906C162.144 206.72 161.831 206.453 161.599 206.105C161.367 205.754 161.251 205.33 161.251 204.832C161.251 204.395 161.337 204.04 161.51 203.768C161.682 203.493 161.912 203.278 162.201 203.122C162.489 202.966 162.807 202.85 163.155 202.774C163.507 202.695 163.859 202.632 164.214 202.585C164.678 202.526 165.054 202.481 165.343 202.451C165.634 202.418 165.846 202.363 165.979 202.287C166.115 202.211 166.183 202.078 166.183 201.889V201.849C166.183 201.359 166.049 200.978 165.78 200.706C165.515 200.434 165.112 200.298 164.572 200.298C164.012 200.298 163.573 200.421 163.255 200.666C162.936 200.911 162.713 201.173 162.583 201.452L161.47 201.054C161.669 200.59 161.934 200.229 162.265 199.97C162.6 199.708 162.965 199.526 163.359 199.423C163.757 199.317 164.148 199.264 164.532 199.264C164.778 199.264 165.059 199.294 165.377 199.354C165.699 199.41 166.009 199.528 166.307 199.707C166.609 199.886 166.859 200.156 167.058 200.517C167.257 200.878 167.356 201.362 167.356 201.969V207H166.183V205.966H166.123C166.044 206.132 165.911 206.309 165.725 206.498C165.54 206.687 165.293 206.848 164.985 206.98C164.676 207.113 164.3 207.179 163.856 207.179ZM164.035 206.125C164.499 206.125 164.89 206.034 165.208 205.852C165.53 205.669 165.772 205.434 165.934 205.146C166.1 204.857 166.183 204.554 166.183 204.236V203.162C166.133 203.222 166.024 203.276 165.855 203.326C165.689 203.372 165.497 203.414 165.278 203.45C165.063 203.483 164.852 203.513 164.647 203.54C164.444 203.563 164.28 203.583 164.154 203.599C163.85 203.639 163.565 203.704 163.299 203.793C163.038 203.879 162.825 204.01 162.663 204.186C162.504 204.358 162.424 204.594 162.424 204.892C162.424 205.3 162.575 205.608 162.877 205.817C163.182 206.022 163.568 206.125 164.035 206.125ZM169.498 207V199.364H170.671V207H169.498ZM170.094 198.091C169.866 198.091 169.668 198.013 169.503 197.857C169.34 197.701 169.259 197.514 169.259 197.295C169.259 197.077 169.34 196.889 169.503 196.734C169.668 196.578 169.866 196.5 170.094 196.5C170.323 196.5 170.519 196.578 170.681 196.734C170.847 196.889 170.93 197.077 170.93 197.295C170.93 197.514 170.847 197.701 170.681 197.857C170.519 198.013 170.323 198.091 170.094 198.091ZM173.993 196.818V207H172.82V196.818H173.993Z" fill="#3F4346"/>
<path d="M232.981 200.333L236.222 203.667L239.463 200.333H232.981Z" fill="#5D6164"/>
<rect x="132" y="187" width="120" height="30" stroke="#D5D9DC"/>
<path d="M264.176 207.159C263.46 207.159 262.844 206.99 262.327 206.652C261.81 206.314 261.412 205.848 261.134 205.255C260.855 204.662 260.716 203.984 260.716 203.222C260.716 202.446 260.858 201.762 261.143 201.168C261.432 200.572 261.833 200.106 262.347 199.771C262.864 199.433 263.467 199.264 264.156 199.264C264.693 199.264 265.177 199.364 265.608 199.562C266.039 199.761 266.392 200.04 266.667 200.398C266.942 200.756 267.113 201.173 267.179 201.651H266.006C265.916 201.303 265.717 200.994 265.409 200.726C265.104 200.454 264.693 200.318 264.176 200.318C263.719 200.318 263.318 200.437 262.973 200.676C262.632 200.911 262.365 201.245 262.173 201.675C261.984 202.103 261.889 202.605 261.889 203.182C261.889 203.772 261.982 204.286 262.168 204.723C262.357 205.161 262.622 205.5 262.963 205.742C263.308 205.984 263.712 206.105 264.176 206.105C264.481 206.105 264.758 206.052 265.006 205.946C265.255 205.84 265.465 205.688 265.638 205.489C265.81 205.29 265.933 205.051 266.006 204.773H267.179C267.113 205.223 266.949 205.629 266.687 205.991C266.428 206.349 266.085 206.634 265.658 206.846C265.233 207.055 264.74 207.159 264.176 207.159ZM271.996 207.159C271.307 207.159 270.702 206.995 270.182 206.667C269.665 206.339 269.26 205.88 268.969 205.29C268.68 204.7 268.536 204.01 268.536 203.222C268.536 202.426 268.68 201.732 268.969 201.138C269.26 200.545 269.665 200.085 270.182 199.756C270.702 199.428 271.307 199.264 271.996 199.264C272.686 199.264 273.289 199.428 273.806 199.756C274.326 200.085 274.731 200.545 275.019 201.138C275.311 201.732 275.457 202.426 275.457 203.222C275.457 204.01 275.311 204.7 275.019 205.29C274.731 205.88 274.326 206.339 273.806 206.667C273.289 206.995 272.686 207.159 271.996 207.159ZM271.996 206.105C272.52 206.105 272.951 205.971 273.289 205.702C273.627 205.434 273.877 205.081 274.04 204.643C274.202 204.206 274.283 203.732 274.283 203.222C274.283 202.711 274.202 202.236 274.04 201.795C273.877 201.354 273.627 200.998 273.289 200.726C272.951 200.454 272.52 200.318 271.996 200.318C271.473 200.318 271.042 200.454 270.704 200.726C270.366 200.998 270.116 201.354 269.953 201.795C269.791 202.236 269.71 202.711 269.71 203.222C269.71 203.732 269.791 204.206 269.953 204.643C270.116 205.081 270.366 205.434 270.704 205.702C271.042 205.971 271.473 206.105 271.996 206.105ZM278.421 202.406V207H277.248V199.364H278.381V200.557H278.481C278.66 200.169 278.931 199.857 279.296 199.622C279.661 199.384 280.131 199.264 280.708 199.264C281.225 199.264 281.677 199.37 282.065 199.582C282.453 199.791 282.755 200.109 282.97 200.537C283.185 200.961 283.293 201.498 283.293 202.148V207H282.12V202.227C282.12 201.627 281.964 201.16 281.653 200.825C281.341 200.487 280.913 200.318 280.37 200.318C279.995 200.318 279.661 200.399 279.366 200.562C279.074 200.724 278.844 200.961 278.675 201.273C278.506 201.584 278.421 201.962 278.421 202.406ZM288.758 199.364V200.358H284.801V199.364H288.758ZM285.954 197.534H287.127V204.812C287.127 205.144 287.176 205.393 287.272 205.558C287.371 205.721 287.497 205.83 287.65 205.886C287.805 205.939 287.969 205.966 288.142 205.966C288.271 205.966 288.377 205.959 288.46 205.946C288.543 205.929 288.609 205.916 288.659 205.906L288.897 206.96C288.818 206.99 288.707 207.02 288.564 207.05C288.422 207.083 288.241 207.099 288.022 207.099C287.691 207.099 287.366 207.028 287.048 206.886C286.733 206.743 286.471 206.526 286.262 206.234C286.057 205.943 285.954 205.575 285.954 205.131V197.534ZM292.77 207.179C292.286 207.179 291.847 207.088 291.453 206.906C291.058 206.72 290.745 206.453 290.513 206.105C290.281 205.754 290.165 205.33 290.165 204.832C290.165 204.395 290.251 204.04 290.424 203.768C290.596 203.493 290.826 203.278 291.115 203.122C291.403 202.966 291.721 202.85 292.069 202.774C292.421 202.695 292.774 202.632 293.128 202.585C293.592 202.526 293.968 202.481 294.257 202.451C294.548 202.418 294.761 202.363 294.893 202.287C295.029 202.211 295.097 202.078 295.097 201.889V201.849C295.097 201.359 294.963 200.978 294.694 200.706C294.429 200.434 294.026 200.298 293.486 200.298C292.926 200.298 292.487 200.421 292.169 200.666C291.85 200.911 291.627 201.173 291.498 201.452L290.384 201.054C290.583 200.59 290.848 200.229 291.179 199.97C291.514 199.708 291.879 199.526 292.273 199.423C292.671 199.317 293.062 199.264 293.446 199.264C293.692 199.264 293.973 199.294 294.292 199.354C294.613 199.41 294.923 199.528 295.221 199.707C295.523 199.886 295.773 200.156 295.972 200.517C296.171 200.878 296.27 201.362 296.27 201.969V207H295.097V205.966H295.037C294.958 206.132 294.825 206.309 294.64 206.498C294.454 206.687 294.207 206.848 293.899 206.98C293.591 207.113 293.214 207.179 292.77 207.179ZM292.949 206.125C293.413 206.125 293.804 206.034 294.123 205.852C294.444 205.669 294.686 205.434 294.848 205.146C295.014 204.857 295.097 204.554 295.097 204.236V203.162C295.047 203.222 294.938 203.276 294.769 203.326C294.603 203.372 294.411 203.414 294.192 203.45C293.977 203.483 293.766 203.513 293.561 203.54C293.359 203.563 293.194 203.583 293.069 203.599C292.764 203.639 292.479 203.704 292.213 203.793C291.952 203.879 291.739 204.01 291.577 204.186C291.418 204.358 291.338 204.594 291.338 204.892C291.338 205.3 291.489 205.608 291.791 205.817C292.096 206.022 292.482 206.125 292.949 206.125ZM298.412 207V199.364H299.585V207H298.412ZM299.008 198.091C298.78 198.091 298.582 198.013 298.417 197.857C298.254 197.701 298.173 197.514 298.173 197.295C298.173 197.077 298.254 196.889 298.417 196.734C298.582 196.578 298.78 196.5 299.008 196.5C299.237 196.5 299.433 196.578 299.595 196.734C299.761 196.889 299.844 197.077 299.844 197.295C299.844 197.514 299.761 197.701 299.595 197.857C299.433 198.013 299.237 198.091 299.008 198.091ZM302.907 202.406V207H301.734V199.364H302.868V200.557H302.967C303.146 200.169 303.418 199.857 303.782 199.622C304.147 199.384 304.618 199.264 305.194 199.264C305.711 199.264 306.164 199.37 306.551 199.582C306.939 199.791 307.241 200.109 307.456 200.537C307.672 200.961 307.779 201.498 307.779 202.148V207H306.606V202.227C306.606 201.627 306.45 201.16 306.139 200.825C305.827 200.487 305.4 200.318 304.856 200.318C304.482 200.318 304.147 200.399 303.852 200.562C303.56 200.724 303.33 200.961 303.161 201.273C302.992 201.584 302.907 201.962 302.907 202.406ZM315.333 201.074L314.279 201.372C314.212 201.196 314.115 201.026 313.985 200.86C313.859 200.691 313.687 200.552 313.468 200.442C313.249 200.333 312.969 200.278 312.628 200.278C312.161 200.278 311.771 200.386 311.46 200.602C311.151 200.814 310.997 201.084 310.997 201.412C310.997 201.704 311.103 201.934 311.316 202.103C311.528 202.272 311.859 202.413 312.31 202.526L313.443 202.804C314.126 202.97 314.635 203.223 314.97 203.565C315.304 203.903 315.472 204.339 315.472 204.872C315.472 205.31 315.346 205.701 315.094 206.045C314.845 206.39 314.497 206.662 314.05 206.861C313.602 207.06 313.082 207.159 312.489 207.159C311.71 207.159 311.065 206.99 310.555 206.652C310.044 206.314 309.721 205.82 309.585 205.17L310.699 204.892C310.805 205.303 311.006 205.611 311.301 205.817C311.599 206.022 311.988 206.125 312.469 206.125C313.016 206.125 313.45 206.009 313.771 205.777C314.096 205.542 314.259 205.26 314.259 204.932C314.259 204.667 314.166 204.445 313.98 204.266C313.795 204.083 313.51 203.947 313.125 203.858L311.852 203.56C311.153 203.394 310.639 203.137 310.311 202.789C309.986 202.438 309.824 201.999 309.824 201.472C309.824 201.041 309.945 200.66 310.187 200.328C310.432 199.997 310.765 199.737 311.186 199.548C311.61 199.359 312.091 199.264 312.628 199.264C313.384 199.264 313.977 199.43 314.408 199.761C314.842 200.093 315.15 200.53 315.333 201.074Z" fill="#3F4346"/>
<path d="M368.982 200.333L372.222 203.667L375.463 200.333H368.982Z" fill="#5D6164"/>
<rect x="252" y="187" width="136" height="30" stroke="#D5D9DC"/>
<path d="M398.804 207L396.477 199.364H397.71L399.361 205.21H399.44L401.071 199.364H402.324L403.935 205.19H404.014L405.665 199.364H406.898L404.571 207H403.418L401.747 201.134H401.628L399.957 207H398.804ZM410.696 207.179C410.212 207.179 409.773 207.088 409.379 206.906C408.984 206.72 408.671 206.453 408.439 206.105C408.207 205.754 408.091 205.33 408.091 204.832C408.091 204.395 408.177 204.04 408.349 203.768C408.522 203.493 408.752 203.278 409.04 203.122C409.329 202.966 409.647 202.85 409.995 202.774C410.346 202.695 410.699 202.632 411.054 202.585C411.518 202.526 411.894 202.481 412.183 202.451C412.474 202.418 412.686 202.363 412.819 202.287C412.955 202.211 413.023 202.078 413.023 201.889V201.849C413.023 201.359 412.888 200.978 412.62 200.706C412.355 200.434 411.952 200.298 411.412 200.298C410.852 200.298 410.413 200.421 410.094 200.666C409.776 200.911 409.553 201.173 409.423 201.452L408.31 201.054C408.509 200.59 408.774 200.229 409.105 199.97C409.44 199.708 409.804 199.526 410.199 199.423C410.597 199.317 410.988 199.264 411.372 199.264C411.617 199.264 411.899 199.294 412.217 199.354C412.539 199.41 412.849 199.528 413.147 199.707C413.449 199.886 413.699 200.156 413.898 200.517C414.097 200.878 414.196 201.362 414.196 201.969V207H413.023V205.966H412.963C412.884 206.132 412.751 206.309 412.565 206.498C412.38 206.687 412.133 206.848 411.825 206.98C411.516 207.113 411.14 207.179 410.696 207.179ZM410.875 206.125C411.339 206.125 411.73 206.034 412.048 205.852C412.37 205.669 412.612 205.434 412.774 205.146C412.94 204.857 413.023 204.554 413.023 204.236V203.162C412.973 203.222 412.864 203.276 412.695 203.326C412.529 203.372 412.337 203.414 412.118 203.45C411.902 203.483 411.692 203.513 411.487 203.54C411.284 203.563 411.12 203.583 410.994 203.599C410.689 203.639 410.404 203.704 410.139 203.793C409.877 203.879 409.665 204.01 409.503 204.186C409.344 204.358 409.264 204.594 409.264 204.892C409.264 205.3 409.415 205.608 409.717 205.817C410.022 206.022 410.408 206.125 410.875 206.125ZM417.511 196.818V207H416.338V196.818H417.511ZM420.754 204.216L420.734 202.764H420.972L424.313 199.364H425.765L422.205 202.963H422.106L420.754 204.216ZM419.66 207V196.818H420.833V207H419.66ZM424.512 207L421.529 203.222L422.364 202.406L426.004 207H424.512ZM430.063 207.159C429.373 207.159 428.769 206.995 428.248 206.667C427.731 206.339 427.327 205.88 427.035 205.29C426.747 204.7 426.603 204.01 426.603 203.222C426.603 202.426 426.747 201.732 427.035 201.138C427.327 200.545 427.731 200.085 428.248 199.756C428.769 199.428 429.373 199.264 430.063 199.264C430.752 199.264 431.355 199.428 431.873 199.756C432.393 200.085 432.797 200.545 433.086 201.138C433.377 201.732 433.523 202.426 433.523 203.222C433.523 204.01 433.377 204.7 433.086 205.29C432.797 205.88 432.393 206.339 431.873 206.667C431.355 206.995 430.752 207.159 430.063 207.159ZM430.063 206.105C430.587 206.105 431.017 205.971 431.355 205.702C431.694 205.434 431.944 205.081 432.106 204.643C432.269 204.206 432.35 203.732 432.35 203.222C432.35 202.711 432.269 202.236 432.106 201.795C431.944 201.354 431.694 200.998 431.355 200.726C431.017 200.454 430.587 200.318 430.063 200.318C429.539 200.318 429.108 200.454 428.77 200.726C428.432 200.998 428.182 201.354 428.02 201.795C427.857 202.236 427.776 202.711 427.776 203.222C427.776 203.732 427.857 204.206 428.02 204.643C428.182 205.081 428.432 205.434 428.77 205.702C429.108 205.971 429.539 206.105 430.063 206.105ZM441.285 199.364L438.461 207H437.268L434.444 199.364H435.717L437.825 205.449H437.904L440.012 199.364H441.285ZM445.762 207.159C445.026 207.159 444.391 206.997 443.858 206.672C443.327 206.344 442.918 205.886 442.63 205.3C442.345 204.71 442.202 204.024 442.202 203.241C442.202 202.459 442.345 201.77 442.63 201.173C442.918 200.573 443.319 200.106 443.833 199.771C444.35 199.433 444.953 199.264 445.643 199.264C446.04 199.264 446.433 199.33 446.821 199.463C447.209 199.596 447.562 199.811 447.88 200.109C448.198 200.404 448.452 200.795 448.64 201.283C448.829 201.77 448.924 202.37 448.924 203.082V203.58H443.037V202.565H447.731C447.731 202.134 447.644 201.75 447.472 201.412C447.303 201.074 447.061 200.807 446.746 200.612C446.435 200.416 446.067 200.318 445.643 200.318C445.175 200.318 444.771 200.434 444.43 200.666C444.091 200.895 443.831 201.193 443.649 201.561C443.467 201.929 443.376 202.323 443.376 202.744V203.42C443.376 203.997 443.475 204.486 443.674 204.887C443.876 205.285 444.156 205.588 444.514 205.797C444.872 206.002 445.288 206.105 445.762 206.105C446.07 206.105 446.349 206.062 446.597 205.976C446.849 205.886 447.066 205.754 447.248 205.578C447.431 205.399 447.572 205.177 447.671 204.912L448.805 205.23C448.685 205.615 448.485 205.953 448.203 206.244C447.921 206.533 447.573 206.758 447.159 206.92C446.745 207.08 446.279 207.159 445.762 207.159ZM450.709 207V199.364H451.842V200.517H451.922C452.061 200.139 452.313 199.833 452.677 199.597C453.042 199.362 453.453 199.244 453.91 199.244C453.997 199.244 454.104 199.246 454.233 199.249C454.363 199.253 454.461 199.258 454.527 199.264V200.457C454.487 200.447 454.396 200.433 454.253 200.413C454.114 200.389 453.967 200.378 453.811 200.378C453.44 200.378 453.108 200.456 452.817 200.612C452.528 200.764 452.3 200.976 452.131 201.248C451.965 201.516 451.882 201.823 451.882 202.168V207H450.709ZM455.898 207.08C455.652 207.08 455.442 206.992 455.266 206.816C455.091 206.64 455.003 206.43 455.003 206.185C455.003 205.939 455.091 205.729 455.266 205.553C455.442 205.378 455.652 205.29 455.898 205.29C456.143 205.29 456.353 205.378 456.529 205.553C456.705 205.729 456.793 205.939 456.793 206.185C456.793 206.347 456.751 206.496 456.668 206.632C456.589 206.768 456.481 206.877 456.345 206.96C456.213 207.04 456.063 207.08 455.898 207.08ZM458.898 207V199.364H460.071V207H458.898ZM459.495 198.091C459.266 198.091 459.069 198.013 458.903 197.857C458.741 197.701 458.659 197.514 458.659 197.295C458.659 197.077 458.741 196.889 458.903 196.734C459.069 196.578 459.266 196.5 459.495 196.5C459.723 196.5 459.919 196.578 460.081 196.734C460.247 196.889 460.33 197.077 460.33 197.295C460.33 197.514 460.247 197.701 460.081 197.857C459.919 198.013 459.723 198.091 459.495 198.091ZM463.394 202.406V207H462.22V199.364H463.354V200.557H463.453C463.632 200.169 463.904 199.857 464.269 199.622C464.633 199.384 465.104 199.264 465.681 199.264C466.198 199.264 466.65 199.37 467.038 199.582C467.426 199.791 467.727 200.109 467.943 200.537C468.158 200.961 468.266 201.498 468.266 202.148V207H467.093V202.227C467.093 201.627 466.937 201.16 466.625 200.825C466.314 200.487 465.886 200.318 465.343 200.318C464.968 200.318 464.633 200.399 464.338 200.562C464.047 200.724 463.816 200.961 463.647 201.273C463.478 201.584 463.394 201.962 463.394 202.406Z" fill="#3F4346"/>
<rect x="388" y="187" width="136" height="30" stroke="#D5D9DC"/>
<path d="M542 199.75V207.25H536V199.75H542ZM540.875 195.25H537.125L536.375 196H533.75V197.5H544.25V196H541.625L540.875 195.25ZM543.5 198.25H534.5V207.25C534.5 208.075 535.175 208.75 536 208.75H542C542.825 208.75 543.5 208.075 543.5 207.25V198.25Z" fill="#5D6164"/>
<rect x="524" y="187" width="30" height="30" stroke="#D5D9DC"/>
</g>
<rect x="132.5" y="187.5" width="421" height="29" rx="3.5" stroke="#D5D9DC"/>
<path d="M47.6506 253H46.358L50.0966 242.818H51.3693L55.108 253H53.8153L50.7727 244.429H50.6932L47.6506 253ZM48.1278 249.023H53.3381V250.116H48.1278V249.023ZM57.7081 248.406V253H56.5348V245.364H57.6683V246.557H57.7678C57.9467 246.169 58.2185 245.857 58.5831 245.622C58.9477 245.384 59.4183 245.264 59.995 245.264C60.5121 245.264 60.9645 245.37 61.3523 245.582C61.7401 245.791 62.0417 246.109 62.2571 246.537C62.4725 246.961 62.5803 247.498 62.5803 248.148V253H61.407V248.227C61.407 247.627 61.2512 247.16 60.9396 246.825C60.6281 246.487 60.2005 246.318 59.657 246.318C59.2824 246.318 58.9477 246.399 58.6527 246.562C58.361 246.724 58.1307 246.961 57.9616 247.273C57.7926 247.584 57.7081 247.962 57.7081 248.406ZM67.6078 253.159C66.9714 253.159 66.4096 252.998 65.9224 252.677C65.4352 252.352 65.054 251.895 64.7789 251.305C64.5038 250.711 64.3663 250.01 64.3663 249.202C64.3663 248.4 64.5038 247.704 64.7789 247.114C65.054 246.524 65.4368 246.068 65.9274 245.746C66.4179 245.425 66.9847 245.264 67.6277 245.264C68.1248 245.264 68.5176 245.347 68.8059 245.513C69.0976 245.675 69.3197 245.861 69.4721 246.07C69.6279 246.275 69.7489 246.444 69.835 246.577H69.9345V242.818H71.1078V253H69.9743V251.827H69.835C69.7489 251.966 69.6262 252.142 69.4672 252.354C69.3081 252.562 69.081 252.75 68.786 252.915C68.4911 253.078 68.0983 253.159 67.6078 253.159ZM67.7669 252.105C68.2375 252.105 68.6352 251.982 68.96 251.737C69.2849 251.489 69.5318 251.146 69.7008 250.708C69.8699 250.267 69.9544 249.759 69.9544 249.182C69.9544 248.612 69.8715 248.113 69.7058 247.685C69.5401 247.254 69.2948 246.92 68.97 246.681C68.6452 246.439 68.2441 246.318 67.7669 246.318C67.2697 246.318 66.8554 246.446 66.524 246.701C66.1958 246.953 65.9489 247.296 65.7832 247.73C65.6208 248.161 65.5396 248.645 65.5396 249.182C65.5396 249.725 65.6225 250.219 65.7882 250.663C65.9572 251.104 66.2058 251.455 66.5339 251.717C66.8654 251.976 67.2763 252.105 67.7669 252.105Z" fill="#3F4346"/>
<g clip-path="url(#clip3_2090_29029)">
<rect x="132" y="233" width="422" height="30" rx="4" fill="white"/>
<path d="M149.426 246H148.193C148.12 245.645 147.993 245.334 147.81 245.065C147.631 244.797 147.413 244.571 147.154 244.389C146.899 244.204 146.616 244.064 146.304 243.972C145.992 243.879 145.668 243.832 145.33 243.832C144.713 243.832 144.155 243.988 143.654 244.3C143.157 244.611 142.761 245.07 142.466 245.677C142.174 246.283 142.028 247.027 142.028 247.909C142.028 248.791 142.174 249.535 142.466 250.141C142.761 250.748 143.157 251.207 143.654 251.518C144.155 251.83 144.713 251.986 145.33 251.986C145.668 251.986 145.992 251.939 146.304 251.847C146.616 251.754 146.899 251.616 147.154 251.434C147.413 251.248 147.631 251.021 147.81 250.753C147.993 250.481 148.12 250.17 148.193 249.818H149.426C149.333 250.339 149.164 250.804 148.919 251.215C148.674 251.626 148.369 251.976 148.004 252.264C147.64 252.549 147.23 252.766 146.776 252.915C146.326 253.065 145.843 253.139 145.33 253.139C144.461 253.139 143.689 252.927 143.013 252.503C142.337 252.079 141.805 251.475 141.417 250.693C141.029 249.911 140.835 248.983 140.835 247.909C140.835 246.835 141.029 245.907 141.417 245.125C141.805 244.343 142.337 243.74 143.013 243.315C143.689 242.891 144.461 242.679 145.33 242.679C145.843 242.679 146.326 242.754 146.776 242.903C147.23 243.052 147.64 243.271 148.004 243.559C148.369 243.844 148.674 244.192 148.919 244.603C149.164 245.011 149.333 245.476 149.426 246ZM151.259 253V245.364H152.393V246.517H152.472C152.612 246.139 152.864 245.833 153.228 245.597C153.593 245.362 154.004 245.244 154.461 245.244C154.547 245.244 154.655 245.246 154.784 245.249C154.914 245.253 155.011 245.258 155.078 245.264V246.457C155.038 246.447 154.947 246.433 154.804 246.413C154.665 246.389 154.517 246.378 154.362 246.378C153.99 246.378 153.659 246.456 153.367 246.612C153.079 246.764 152.85 246.976 152.681 247.248C152.516 247.516 152.433 247.823 152.433 248.168V253H151.259ZM159.438 253.159C158.702 253.159 158.067 252.997 157.534 252.672C157.003 252.344 156.594 251.886 156.306 251.3C156.021 250.71 155.878 250.024 155.878 249.241C155.878 248.459 156.021 247.77 156.306 247.173C156.594 246.573 156.995 246.106 157.509 245.771C158.026 245.433 158.629 245.264 159.318 245.264C159.716 245.264 160.109 245.33 160.497 245.463C160.884 245.596 161.237 245.811 161.556 246.109C161.874 246.404 162.127 246.795 162.316 247.283C162.505 247.77 162.6 248.37 162.6 249.082V249.58H156.713V248.565H161.406C161.406 248.134 161.32 247.75 161.148 247.412C160.979 247.074 160.737 246.807 160.422 246.612C160.11 246.416 159.743 246.318 159.318 246.318C158.851 246.318 158.447 246.434 158.105 246.666C157.767 246.895 157.507 247.193 157.325 247.561C157.142 247.929 157.051 248.323 157.051 248.744V249.42C157.051 249.997 157.151 250.486 157.35 250.887C157.552 251.285 157.832 251.588 158.19 251.797C158.548 252.002 158.964 252.105 159.438 252.105C159.746 252.105 160.024 252.062 160.273 251.976C160.525 251.886 160.742 251.754 160.924 251.578C161.106 251.399 161.247 251.177 161.347 250.912L162.48 251.23C162.361 251.615 162.16 251.953 161.879 252.244C161.597 252.533 161.249 252.758 160.835 252.92C160.42 253.08 159.955 253.159 159.438 253.159ZM166.632 253.179C166.148 253.179 165.709 253.088 165.314 252.906C164.92 252.72 164.606 252.453 164.374 252.105C164.142 251.754 164.026 251.33 164.026 250.832C164.026 250.395 164.113 250.04 164.285 249.768C164.457 249.493 164.688 249.278 164.976 249.122C165.264 248.966 165.583 248.85 165.931 248.774C166.282 248.695 166.635 248.632 166.99 248.585C167.454 248.526 167.83 248.481 168.118 248.451C168.41 248.418 168.622 248.363 168.754 248.287C168.89 248.211 168.958 248.078 168.958 247.889V247.849C168.958 247.359 168.824 246.978 168.556 246.706C168.29 246.434 167.888 246.298 167.347 246.298C166.787 246.298 166.348 246.421 166.03 246.666C165.712 246.911 165.488 247.173 165.359 247.452L164.245 247.054C164.444 246.59 164.709 246.229 165.041 245.97C165.375 245.708 165.74 245.526 166.134 245.423C166.532 245.317 166.923 245.264 167.308 245.264C167.553 245.264 167.835 245.294 168.153 245.354C168.474 245.41 168.784 245.528 169.083 245.707C169.384 245.886 169.634 246.156 169.833 246.517C170.032 246.878 170.132 247.362 170.132 247.969V253H168.958V251.966H168.899C168.819 252.132 168.686 252.309 168.501 252.498C168.315 252.687 168.068 252.848 167.76 252.98C167.452 253.113 167.076 253.179 166.632 253.179ZM166.811 252.125C167.275 252.125 167.666 252.034 167.984 251.852C168.305 251.669 168.547 251.434 168.71 251.146C168.875 250.857 168.958 250.554 168.958 250.236V249.162C168.909 249.222 168.799 249.276 168.63 249.326C168.464 249.372 168.272 249.414 168.053 249.45C167.838 249.483 167.628 249.513 167.422 249.54C167.22 249.563 167.056 249.583 166.93 249.599C166.625 249.639 166.34 249.704 166.075 249.793C165.813 249.879 165.601 250.01 165.438 250.186C165.279 250.358 165.2 250.594 165.2 250.892C165.2 251.3 165.351 251.608 165.652 251.817C165.957 252.022 166.343 252.125 166.811 252.125ZM175.594 245.364V246.358H171.637V245.364H175.594ZM172.79 243.534H173.963V250.812C173.963 251.144 174.011 251.393 174.108 251.558C174.207 251.721 174.333 251.83 174.485 251.886C174.641 251.939 174.805 251.966 174.978 251.966C175.107 251.966 175.213 251.959 175.296 251.946C175.379 251.929 175.445 251.916 175.495 251.906L175.733 252.96C175.654 252.99 175.543 253.02 175.4 253.05C175.258 253.083 175.077 253.099 174.858 253.099C174.527 253.099 174.202 253.028 173.884 252.886C173.569 252.743 173.307 252.526 173.098 252.234C172.893 251.943 172.79 251.575 172.79 251.131V243.534ZM180.479 253.159C179.743 253.159 179.108 252.997 178.575 252.672C178.044 252.344 177.635 251.886 177.347 251.3C177.062 250.71 176.919 250.024 176.919 249.241C176.919 248.459 177.062 247.77 177.347 247.173C177.635 246.573 178.036 246.106 178.55 245.771C179.067 245.433 179.67 245.264 180.359 245.264C180.757 245.264 181.15 245.33 181.538 245.463C181.925 245.596 182.278 245.811 182.597 246.109C182.915 246.404 183.168 246.795 183.357 247.283C183.546 247.77 183.641 248.37 183.641 249.082V249.58H177.754V248.565H182.447C182.447 248.134 182.361 247.75 182.189 247.412C182.02 247.074 181.778 246.807 181.463 246.612C181.152 246.416 180.784 246.318 180.359 246.318C179.892 246.318 179.488 246.434 179.146 246.666C178.808 246.895 178.548 247.193 178.366 247.561C178.183 247.929 178.092 248.323 178.092 248.744V249.42C178.092 249.997 178.192 250.486 178.391 250.887C178.593 251.285 178.873 251.588 179.231 251.797C179.589 252.002 180.005 252.105 180.479 252.105C180.787 252.105 181.065 252.062 181.314 251.976C181.566 251.886 181.783 251.754 181.965 251.578C182.147 251.399 182.288 251.177 182.388 250.912L183.521 251.23C183.402 251.615 183.201 251.953 182.92 252.244C182.638 252.533 182.29 252.758 181.876 252.92C181.461 253.08 180.996 253.159 180.479 253.159ZM188.309 253.159C187.673 253.159 187.111 252.998 186.624 252.677C186.136 252.352 185.755 251.895 185.48 251.305C185.205 250.711 185.067 250.01 185.067 249.202C185.067 248.4 185.205 247.704 185.48 247.114C185.755 246.524 186.138 246.068 186.629 245.746C187.119 245.425 187.686 245.264 188.329 245.264C188.826 245.264 189.219 245.347 189.507 245.513C189.799 245.675 190.021 245.861 190.173 246.07C190.329 246.275 190.45 246.444 190.536 246.577H190.636V242.818H191.809V253H190.675V251.827H190.536C190.45 251.966 190.327 252.142 190.168 252.354C190.009 252.562 189.782 252.75 189.487 252.915C189.192 253.078 188.799 253.159 188.309 253.159ZM188.468 252.105C188.939 252.105 189.336 251.982 189.661 251.737C189.986 251.489 190.233 251.146 190.402 250.708C190.571 250.267 190.656 249.759 190.656 249.182C190.656 248.612 190.573 248.113 190.407 247.685C190.241 247.254 189.996 246.92 189.671 246.681C189.346 246.439 188.945 246.318 188.468 246.318C187.971 246.318 187.557 246.446 187.225 246.701C186.897 246.953 186.65 247.296 186.484 247.73C186.322 248.161 186.241 248.645 186.241 249.182C186.241 249.725 186.324 250.219 186.489 250.663C186.658 251.104 186.907 251.455 187.235 251.717C187.567 251.976 187.978 252.105 188.468 252.105Z" fill="#3F4346"/>
<path d="M232.981 246.333L236.222 249.667L239.463 246.333H232.981Z" fill="#5D6164"/>
<rect x="132" y="233" width="120" height="30" stroke="#D5D9DC"/>
<path d="M261.233 253V242.818H262.406V246.577H262.506C262.592 246.444 262.711 246.275 262.864 246.07C263.019 245.861 263.241 245.675 263.53 245.513C263.821 245.347 264.216 245.264 264.713 245.264C265.356 245.264 265.923 245.425 266.413 245.746C266.904 246.068 267.287 246.524 267.562 247.114C267.837 247.704 267.974 248.4 267.974 249.202C267.974 250.01 267.837 250.711 267.562 251.305C267.287 251.895 266.906 252.352 266.418 252.677C265.931 252.998 265.369 253.159 264.733 253.159C264.242 253.159 263.85 253.078 263.555 252.915C263.26 252.75 263.033 252.562 262.874 252.354C262.714 252.142 262.592 251.966 262.506 251.827H262.366V253H261.233ZM262.386 249.182C262.386 249.759 262.471 250.267 262.64 250.708C262.809 251.146 263.056 251.489 263.381 251.737C263.705 251.982 264.103 252.105 264.574 252.105C265.064 252.105 265.474 251.976 265.802 251.717C266.133 251.455 266.382 251.104 266.548 250.663C266.717 250.219 266.801 249.725 266.801 249.182C266.801 248.645 266.718 248.161 266.553 247.73C266.39 247.296 266.143 246.953 265.812 246.701C265.484 246.446 265.071 246.318 264.574 246.318C264.097 246.318 263.696 246.439 263.371 246.681C263.046 246.92 262.801 247.254 262.635 247.685C262.469 248.113 262.386 248.612 262.386 249.182ZM272.971 253.159C272.235 253.159 271.6 252.997 271.067 252.672C270.536 252.344 270.127 251.886 269.839 251.3C269.554 250.71 269.411 250.024 269.411 249.241C269.411 248.459 269.554 247.77 269.839 247.173C270.127 246.573 270.528 246.106 271.042 245.771C271.559 245.433 272.162 245.264 272.852 245.264C273.249 245.264 273.642 245.33 274.03 245.463C274.418 245.596 274.771 245.811 275.089 246.109C275.407 246.404 275.661 246.795 275.849 247.283C276.038 247.77 276.133 248.37 276.133 249.082V249.58H270.246V248.565H274.94C274.94 248.134 274.853 247.75 274.681 247.412C274.512 247.074 274.27 246.807 273.955 246.612C273.644 246.416 273.276 246.318 272.852 246.318C272.384 246.318 271.98 246.434 271.638 246.666C271.3 246.895 271.04 247.193 270.858 247.561C270.676 247.929 270.585 248.323 270.585 248.744V249.42C270.585 249.997 270.684 250.486 270.883 250.887C271.085 251.285 271.365 251.588 271.723 251.797C272.081 252.002 272.497 252.105 272.971 252.105C273.279 252.105 273.558 252.062 273.806 251.976C274.058 251.886 274.275 251.754 274.457 251.578C274.64 251.399 274.781 251.177 274.88 250.912L276.013 251.23C275.894 251.615 275.694 251.953 275.412 252.244C275.13 252.533 274.782 252.758 274.368 252.92C273.954 253.08 273.488 253.159 272.971 253.159ZM281.318 245.364V246.358H277.202V245.364H281.318ZM278.435 253V244.31C278.435 243.872 278.537 243.508 278.743 243.216C278.948 242.924 279.215 242.705 279.543 242.56C279.871 242.414 280.218 242.341 280.582 242.341C280.871 242.341 281.106 242.364 281.288 242.411C281.471 242.457 281.607 242.5 281.696 242.54L281.358 243.554C281.298 243.534 281.215 243.509 281.109 243.479C281.007 243.45 280.871 243.435 280.702 243.435C280.314 243.435 280.034 243.532 279.862 243.728C279.692 243.924 279.608 244.21 279.608 244.588V253H278.435ZM285.75 253.159C285.061 253.159 284.456 252.995 283.936 252.667C283.419 252.339 283.014 251.88 282.723 251.29C282.434 250.7 282.29 250.01 282.29 249.222C282.29 248.426 282.434 247.732 282.723 247.138C283.014 246.545 283.419 246.085 283.936 245.756C284.456 245.428 285.061 245.264 285.75 245.264C286.44 245.264 287.043 245.428 287.56 245.756C288.08 246.085 288.485 246.545 288.773 247.138C289.065 247.732 289.211 248.426 289.211 249.222C289.211 250.01 289.065 250.7 288.773 251.29C288.485 251.88 288.08 252.339 287.56 252.667C287.043 252.995 286.44 253.159 285.75 253.159ZM285.75 252.105C286.274 252.105 286.705 251.971 287.043 251.702C287.381 251.434 287.631 251.081 287.794 250.643C287.956 250.206 288.037 249.732 288.037 249.222C288.037 248.711 287.956 248.236 287.794 247.795C287.631 247.354 287.381 246.998 287.043 246.726C286.705 246.454 286.274 246.318 285.75 246.318C285.227 246.318 284.796 246.454 284.458 246.726C284.12 246.998 283.869 247.354 283.707 247.795C283.545 248.236 283.463 248.711 283.463 249.222C283.463 249.732 283.545 250.206 283.707 250.643C283.869 251.081 284.12 251.434 284.458 251.702C284.796 251.971 285.227 252.105 285.75 252.105ZM291.002 253V245.364H292.135V246.517H292.215C292.354 246.139 292.606 245.833 292.97 245.597C293.335 245.362 293.746 245.244 294.203 245.244C294.289 245.244 294.397 245.246 294.526 245.249C294.656 245.253 294.753 245.258 294.82 245.264V246.457C294.78 246.447 294.689 246.433 294.546 246.413C294.407 246.389 294.26 246.378 294.104 246.378C293.733 246.378 293.401 246.456 293.11 246.612C292.821 246.764 292.593 246.976 292.423 247.248C292.258 247.516 292.175 247.823 292.175 248.168V253H291.002ZM299.18 253.159C298.444 253.159 297.809 252.997 297.276 252.672C296.745 252.344 296.336 251.886 296.048 251.3C295.763 250.71 295.62 250.024 295.62 249.241C295.62 248.459 295.763 247.77 296.048 247.173C296.336 246.573 296.737 246.106 297.251 245.771C297.768 245.433 298.371 245.264 299.061 245.264C299.458 245.264 299.851 245.33 300.239 245.463C300.627 245.596 300.98 245.811 301.298 246.109C301.616 246.404 301.869 246.795 302.058 247.283C302.247 247.77 302.342 248.37 302.342 249.082V249.58H296.455V248.565H301.149C301.149 248.134 301.062 247.75 300.89 247.412C300.721 247.074 300.479 246.807 300.164 246.612C299.853 246.416 299.485 246.318 299.061 246.318C298.593 246.318 298.189 246.434 297.847 246.666C297.509 246.895 297.249 247.193 297.067 247.561C296.885 247.929 296.794 248.323 296.794 248.744V249.42C296.794 249.997 296.893 250.486 297.092 250.887C297.294 251.285 297.574 251.588 297.932 251.797C298.29 252.002 298.706 252.105 299.18 252.105C299.488 252.105 299.767 252.062 300.015 251.976C300.267 251.886 300.484 251.754 300.666 251.578C300.849 251.399 300.99 251.177 301.089 250.912L302.222 251.23C302.103 251.615 301.903 251.953 301.621 252.244C301.339 252.533 300.991 252.758 300.577 252.92C300.163 253.08 299.697 253.159 299.18 253.159Z" fill="#3F4346"/>
<path d="M368.982 246.333L372.222 249.667L375.463 246.333H368.982Z" fill="#5D6164"/>
<rect x="252" y="233" width="136" height="30" stroke="#D5D9DC"/>
<path d="M400.375 253.139C399.626 253.139 398.988 252.935 398.461 252.528C397.934 252.117 397.531 251.522 397.253 250.743C396.974 249.961 396.835 249.016 396.835 247.909C396.835 246.809 396.974 245.869 397.253 245.09C397.535 244.308 397.939 243.711 398.466 243.3C398.996 242.886 399.633 242.679 400.375 242.679C401.117 242.679 401.752 242.886 402.279 243.3C402.809 243.711 403.214 244.308 403.492 245.09C403.774 245.869 403.915 246.809 403.915 247.909C403.915 249.016 403.776 249.961 403.497 250.743C403.219 251.522 402.816 252.117 402.289 252.528C401.762 252.935 401.124 253.139 400.375 253.139ZM400.375 252.045C401.117 252.045 401.694 251.687 402.105 250.972C402.516 250.256 402.722 249.235 402.722 247.909C402.722 247.027 402.627 246.277 402.438 245.657C402.253 245.037 401.984 244.565 401.633 244.24C401.285 243.915 400.866 243.753 400.375 243.753C399.639 243.753 399.064 244.116 398.65 244.842C398.236 245.564 398.028 246.587 398.028 247.909C398.028 248.791 398.121 249.54 398.307 250.156C398.492 250.773 398.759 251.242 399.107 251.563C399.459 251.885 399.881 252.045 400.375 252.045ZM409.384 242.818V253H408.151V244.111H408.091L405.605 245.761V244.509L408.151 242.818H409.384ZM415.931 242.341L412.65 254.531H411.576L414.857 242.341H415.931ZM420.623 253.139C419.874 253.139 419.236 252.935 418.709 252.528C418.182 252.117 417.779 251.522 417.501 250.743C417.222 249.961 417.083 249.016 417.083 247.909C417.083 246.809 417.222 245.869 417.501 245.09C417.783 244.308 418.187 243.711 418.714 243.3C419.244 242.886 419.881 242.679 420.623 242.679C421.365 242.679 422 242.886 422.527 243.3C423.057 243.711 423.462 244.308 423.74 245.09C424.022 245.869 424.163 246.809 424.163 247.909C424.163 249.016 424.024 249.961 423.745 250.743C423.467 251.522 423.064 252.117 422.537 252.528C422.01 252.935 421.372 253.139 420.623 253.139ZM420.623 252.045C421.365 252.045 421.942 251.687 422.353 250.972C422.764 250.256 422.97 249.235 422.97 247.909C422.97 247.027 422.875 246.277 422.686 245.657C422.501 245.037 422.232 244.565 421.881 244.24C421.533 243.915 421.114 243.753 420.623 243.753C419.887 243.753 419.312 244.116 418.898 244.842C418.484 245.564 418.276 246.587 418.276 247.909C418.276 248.791 418.369 249.54 418.555 250.156C418.74 250.773 419.007 251.242 419.355 251.563C419.707 251.885 420.129 252.045 420.623 252.045ZM429.632 242.818V253H428.399V244.111H428.339L425.853 245.761V244.509L428.399 242.818H429.632ZM436.179 242.341L432.898 254.531H431.824L435.105 242.341H436.179ZM437.55 253V252.105L440.911 248.426C441.305 247.995 441.63 247.621 441.885 247.303C442.141 246.981 442.329 246.679 442.452 246.398C442.578 246.113 442.641 245.814 442.641 245.503C442.641 245.145 442.555 244.835 442.382 244.573C442.213 244.311 441.981 244.109 441.686 243.967C441.391 243.824 441.06 243.753 440.692 243.753C440.301 243.753 439.96 243.834 439.668 243.996C439.38 244.156 439.156 244.379 438.997 244.668C438.841 244.956 438.763 245.294 438.763 245.682H437.59C437.59 245.085 437.727 244.562 438.002 244.111C438.278 243.66 438.652 243.309 439.126 243.057C439.603 242.805 440.139 242.679 440.732 242.679C441.328 242.679 441.857 242.805 442.318 243.057C442.779 243.309 443.14 243.648 443.402 244.076C443.663 244.504 443.794 244.979 443.794 245.503C443.794 245.877 443.726 246.244 443.591 246.602C443.458 246.956 443.226 247.352 442.895 247.79C442.566 248.224 442.111 248.754 441.527 249.381L439.24 251.827V251.906H443.973V253H437.55ZM449.348 253.139C448.599 253.139 447.961 252.935 447.434 252.528C446.907 252.117 446.504 251.522 446.225 250.743C445.947 249.961 445.808 249.016 445.808 247.909C445.808 246.809 445.947 245.869 446.225 245.09C446.507 244.308 446.912 243.711 447.439 243.3C447.969 242.886 448.605 242.679 449.348 242.679C450.09 242.679 450.725 242.886 451.252 243.3C451.782 243.711 452.186 244.308 452.465 245.09C452.747 245.869 452.887 246.809 452.887 247.909C452.887 249.016 452.748 249.961 452.47 250.743C452.191 251.522 451.789 252.117 451.262 252.528C450.735 252.935 450.097 253.139 449.348 253.139ZM449.348 252.045C450.09 252.045 450.667 251.687 451.078 250.972C451.489 250.256 451.694 249.235 451.694 247.909C451.694 247.027 451.6 246.277 451.411 245.657C451.225 245.037 450.957 244.565 450.605 244.24C450.257 243.915 449.838 243.753 449.348 243.753C448.612 243.753 448.037 244.116 447.623 244.842C447.208 245.564 447.001 246.587 447.001 247.909C447.001 248.791 447.094 249.54 447.279 250.156C447.465 250.773 447.732 251.242 448.08 251.563C448.431 251.885 448.854 252.045 449.348 252.045ZM454.777 253V252.105L458.137 248.426C458.532 247.995 458.857 247.621 459.112 247.303C459.367 246.981 459.556 246.679 459.679 246.398C459.805 246.113 459.868 245.814 459.868 245.503C459.868 245.145 459.781 244.835 459.609 244.573C459.44 244.311 459.208 244.109 458.913 243.967C458.618 243.824 458.287 243.753 457.919 243.753C457.528 243.753 457.186 243.834 456.895 243.996C456.606 244.156 456.382 244.379 456.223 244.668C456.068 244.956 455.99 245.294 455.99 245.682H454.816C454.816 245.085 454.954 244.562 455.229 244.111C455.504 243.66 455.879 243.309 456.353 243.057C456.83 242.805 457.365 242.679 457.958 242.679C458.555 242.679 459.084 242.805 459.544 243.057C460.005 243.309 460.366 243.648 460.628 244.076C460.89 244.504 461.021 244.979 461.021 245.503C461.021 245.877 460.953 246.244 460.817 246.602C460.685 246.956 460.453 247.352 460.121 247.79C459.793 248.224 459.337 248.754 458.754 249.381L456.467 251.827V251.906H461.2V253H454.777ZM466.694 253.139C466.037 253.139 465.452 253.027 464.939 252.801C464.428 252.576 464.022 252.263 463.721 251.862C463.422 251.457 463.26 250.988 463.233 250.455H464.486C464.513 250.783 464.625 251.066 464.824 251.305C465.023 251.54 465.283 251.722 465.605 251.852C465.926 251.981 466.283 252.045 466.674 252.045C467.111 252.045 467.499 251.969 467.837 251.817C468.175 251.664 468.44 251.452 468.632 251.18C468.825 250.909 468.921 250.594 468.921 250.236C468.921 249.861 468.828 249.531 468.642 249.246C468.457 248.958 468.185 248.733 467.827 248.57C467.469 248.408 467.032 248.327 466.515 248.327H465.699V247.233H466.515C466.919 247.233 467.274 247.16 467.578 247.014C467.887 246.868 468.127 246.663 468.299 246.398C468.475 246.133 468.563 245.821 468.563 245.463C468.563 245.118 468.487 244.818 468.334 244.563C468.182 244.308 467.966 244.109 467.688 243.967C467.413 243.824 467.088 243.753 466.713 243.753C466.362 243.753 466.031 243.817 465.719 243.947C465.411 244.073 465.159 244.257 464.963 244.499C464.768 244.737 464.662 245.026 464.645 245.364H463.452C463.472 244.83 463.633 244.363 463.934 243.962C464.236 243.557 464.63 243.242 465.118 243.017C465.608 242.792 466.147 242.679 466.733 242.679C467.363 242.679 467.903 242.807 468.354 243.062C468.805 243.314 469.151 243.647 469.393 244.061C469.635 244.475 469.756 244.923 469.756 245.403C469.756 245.977 469.605 246.466 469.304 246.87C469.005 247.274 468.599 247.554 468.086 247.71V247.79C468.729 247.896 469.231 248.169 469.592 248.61C469.953 249.048 470.134 249.589 470.134 250.236C470.134 250.789 469.983 251.286 469.681 251.727C469.383 252.165 468.975 252.509 468.458 252.761C467.941 253.013 467.353 253.139 466.694 253.139Z" fill="#3F4346"/>
<rect x="388" y="233" width="136" height="30" stroke="#D5D9DC"/>
<path d="M542 245.75V253.25H536V245.75H542ZM540.875 241.25H537.125L536.375 242H533.75V243.5H544.25V242H541.625L540.875 241.25ZM543.5 244.25H534.5V253.25C534.5 254.075 535.175 254.75 536 254.75H542C542.825 254.75 543.5 254.075 543.5 253.25V244.25Z" fill="#5D6164"/>
<rect x="524" y="233" width="30" height="30" stroke="#D5D9DC"/>
</g>
<rect x="132.5" y="233.5" width="421" height="29" rx="3.5" stroke="#D5D9DC"/>
<rect x="223" y="313" width="157" height="40" rx="4" fill="#7B7F82" fill-opacity="0.1"/>
<path d="M249.25 333.75H244.75V338.25H243.25V333.75H238.75V332.25H243.25V327.75H244.75V332.25H249.25V333.75Z" fill="#3F4346"/>
<path d="M259.261 338.5H257.398L261.585 326.864H263.614L267.801 338.5H265.938L262.648 328.977H262.557L259.261 338.5ZM259.574 333.943H265.619V335.42H259.574V333.943ZM272.472 338.67C271.767 338.67 271.138 338.491 270.585 338.131C270.036 337.767 269.604 337.25 269.29 336.58C268.979 335.905 268.824 335.097 268.824 334.153C268.824 333.21 268.981 332.403 269.295 331.733C269.614 331.062 270.049 330.549 270.602 330.193C271.155 329.837 271.782 329.659 272.483 329.659C273.025 329.659 273.46 329.75 273.79 329.932C274.123 330.11 274.381 330.318 274.562 330.557C274.748 330.795 274.892 331.006 274.994 331.188H275.097V326.864H276.795V338.5H275.136V337.142H274.994C274.892 337.328 274.744 337.54 274.551 337.778C274.362 338.017 274.1 338.225 273.767 338.403C273.434 338.581 273.002 338.67 272.472 338.67ZM272.847 337.222C273.335 337.222 273.748 337.093 274.085 336.835C274.426 336.574 274.684 336.212 274.858 335.75C275.036 335.288 275.125 334.75 275.125 334.136C275.125 333.53 275.038 333 274.864 332.545C274.689 332.091 274.434 331.737 274.097 331.483C273.759 331.229 273.343 331.102 272.847 331.102C272.335 331.102 271.909 331.235 271.568 331.5C271.227 331.765 270.97 332.127 270.795 332.585C270.625 333.044 270.54 333.561 270.54 334.136C270.54 334.72 270.627 335.244 270.801 335.71C270.975 336.176 271.233 336.545 271.574 336.818C271.919 337.087 272.343 337.222 272.847 337.222ZM282.487 338.67C281.783 338.67 281.154 338.491 280.601 338.131C280.052 337.767 279.62 337.25 279.305 336.58C278.995 335.905 278.839 335.097 278.839 334.153C278.839 333.21 278.997 332.403 279.311 331.733C279.629 331.062 280.065 330.549 280.618 330.193C281.171 329.837 281.798 329.659 282.499 329.659C283.04 329.659 283.476 329.75 283.805 329.932C284.139 330.11 284.396 330.318 284.578 330.557C284.764 330.795 284.908 331.006 285.01 331.188H285.112V326.864H286.811V338.5H285.152V337.142H285.01C284.908 337.328 284.76 337.54 284.567 337.778C284.377 338.017 284.116 338.225 283.783 338.403C283.449 338.581 283.018 338.67 282.487 338.67ZM282.862 337.222C283.351 337.222 283.764 337.093 284.101 336.835C284.442 336.574 284.699 336.212 284.874 335.75C285.052 335.288 285.141 334.75 285.141 334.136C285.141 333.53 285.054 333 284.879 332.545C284.705 332.091 284.449 331.737 284.112 331.483C283.775 331.229 283.358 331.102 282.862 331.102C282.351 331.102 281.925 331.235 281.584 331.5C281.243 331.765 280.985 332.127 280.811 332.585C280.641 333.044 280.555 333.561 280.555 334.136C280.555 334.72 280.643 335.244 280.817 335.71C280.991 336.176 281.249 336.545 281.589 336.818C281.934 337.087 282.358 337.222 282.862 337.222ZM297.146 338.676C296.302 338.676 295.574 338.485 294.964 338.102C294.358 337.716 293.893 337.184 293.567 336.506C293.241 335.828 293.078 335.051 293.078 334.176C293.078 333.29 293.245 332.508 293.578 331.83C293.911 331.148 294.381 330.616 294.987 330.233C295.593 329.85 296.307 329.659 297.129 329.659C297.792 329.659 298.383 329.782 298.902 330.028C299.421 330.271 299.839 330.612 300.158 331.051C300.48 331.491 300.671 332.004 300.732 332.591H299.078C298.987 332.182 298.779 331.83 298.453 331.534C298.131 331.239 297.699 331.091 297.158 331.091C296.684 331.091 296.269 331.216 295.913 331.466C295.561 331.712 295.286 332.064 295.089 332.523C294.893 332.977 294.794 333.515 294.794 334.136C294.794 334.773 294.891 335.322 295.084 335.784C295.277 336.246 295.55 336.604 295.902 336.858C296.258 337.112 296.677 337.239 297.158 337.239C297.48 337.239 297.771 337.18 298.033 337.062C298.298 336.941 298.519 336.769 298.697 336.545C298.879 336.322 299.006 336.053 299.078 335.739H300.732C300.671 336.303 300.487 336.807 300.18 337.25C299.874 337.693 299.463 338.042 298.947 338.295C298.436 338.549 297.836 338.676 297.146 338.676ZM306.224 338.676C305.406 338.676 304.692 338.489 304.082 338.114C303.473 337.739 302.999 337.214 302.662 336.54C302.325 335.866 302.156 335.078 302.156 334.176C302.156 333.271 302.325 332.479 302.662 331.801C302.999 331.123 303.473 330.597 304.082 330.222C304.692 329.847 305.406 329.659 306.224 329.659C307.043 329.659 307.757 329.847 308.366 330.222C308.976 330.597 309.45 331.123 309.787 331.801C310.124 332.479 310.293 333.271 310.293 334.176C310.293 335.078 310.124 335.866 309.787 336.54C309.45 337.214 308.976 337.739 308.366 338.114C307.757 338.489 307.043 338.676 306.224 338.676ZM306.23 337.25C306.76 337.25 307.2 337.11 307.548 336.83C307.897 336.549 308.154 336.176 308.321 335.71C308.491 335.244 308.577 334.731 308.577 334.17C308.577 333.614 308.491 333.102 308.321 332.636C308.154 332.167 307.897 331.79 307.548 331.506C307.2 331.222 306.76 331.08 306.23 331.08C305.696 331.08 305.253 331.222 304.901 331.506C304.552 331.79 304.293 332.167 304.122 332.636C303.955 333.102 303.872 333.614 303.872 334.17C303.872 334.731 303.955 335.244 304.122 335.71C304.293 336.176 304.552 336.549 304.901 336.83C305.253 337.11 305.696 337.25 306.23 337.25ZM313.888 333.318V338.5H312.189V329.773H313.82V331.193H313.928C314.128 330.731 314.443 330.36 314.871 330.08C315.303 329.799 315.846 329.659 316.501 329.659C317.096 329.659 317.617 329.784 318.064 330.034C318.511 330.28 318.857 330.648 319.104 331.136C319.35 331.625 319.473 332.229 319.473 332.949V338.5H317.774V333.153C317.774 332.521 317.609 332.027 317.28 331.67C316.95 331.311 316.498 331.131 315.922 331.131C315.528 331.131 315.178 331.216 314.871 331.386C314.568 331.557 314.327 331.807 314.149 332.136C313.975 332.462 313.888 332.856 313.888 333.318ZM325.018 338.67C324.314 338.67 323.685 338.491 323.132 338.131C322.583 337.767 322.151 337.25 321.837 336.58C321.526 335.905 321.371 335.097 321.371 334.153C321.371 333.21 321.528 332.403 321.842 331.733C322.161 331.062 322.596 330.549 323.149 330.193C323.702 329.837 324.329 329.659 325.03 329.659C325.571 329.659 326.007 329.75 326.337 329.932C326.67 330.11 326.928 330.318 327.109 330.557C327.295 330.795 327.439 331.006 327.541 331.188H327.643V326.864H329.342V338.5H327.683V337.142H327.541C327.439 337.328 327.291 337.54 327.098 337.778C326.909 338.017 326.647 338.225 326.314 338.403C325.981 338.581 325.549 338.67 325.018 338.67ZM325.393 337.222C325.882 337.222 326.295 337.093 326.632 336.835C326.973 336.574 327.231 336.212 327.405 335.75C327.583 335.288 327.672 334.75 327.672 334.136C327.672 333.53 327.585 333 327.411 332.545C327.236 332.091 326.981 331.737 326.643 331.483C326.306 331.229 325.89 331.102 325.393 331.102C324.882 331.102 324.456 331.235 324.115 331.5C323.774 331.765 323.517 332.127 323.342 332.585C323.172 333.044 323.087 333.561 323.087 334.136C323.087 334.72 323.174 335.244 323.348 335.71C323.522 336.176 323.78 336.545 324.121 336.818C324.465 337.087 324.89 337.222 325.393 337.222ZM331.767 338.5V329.773H333.466V338.5H331.767ZM332.625 328.426C332.33 328.426 332.076 328.328 331.864 328.131C331.655 327.93 331.551 327.691 331.551 327.415C331.551 327.134 331.655 326.896 331.864 326.699C332.076 326.498 332.33 326.398 332.625 326.398C332.92 326.398 333.172 326.498 333.381 326.699C333.593 326.896 333.699 327.134 333.699 327.415C333.699 327.691 333.593 327.93 333.381 328.131C333.172 328.328 332.92 328.426 332.625 328.426ZM339.825 329.773V331.136H335.058V329.773H339.825ZM336.337 327.682H338.036V335.938C338.036 336.267 338.085 336.515 338.183 336.682C338.282 336.845 338.409 336.956 338.564 337.017C338.723 337.074 338.895 337.102 339.081 337.102C339.217 337.102 339.337 337.093 339.439 337.074C339.541 337.055 339.621 337.04 339.678 337.028L339.984 338.432C339.886 338.47 339.746 338.508 339.564 338.545C339.382 338.587 339.155 338.61 338.882 338.614C338.435 338.621 338.018 338.542 337.632 338.375C337.246 338.208 336.933 337.951 336.695 337.602C336.456 337.254 336.337 336.816 336.337 336.29V327.682ZM341.705 338.5V329.773H343.403V338.5H341.705ZM342.562 328.426C342.267 328.426 342.013 328.328 341.801 328.131C341.593 327.93 341.489 327.691 341.489 327.415C341.489 327.134 341.593 326.896 341.801 326.699C342.013 326.498 342.267 326.398 342.562 326.398C342.858 326.398 343.11 326.498 343.318 326.699C343.53 326.896 343.636 327.134 343.636 327.415C343.636 327.691 343.53 327.93 343.318 328.131C343.11 328.328 342.858 328.426 342.562 328.426ZM349.365 338.676C348.547 338.676 347.833 338.489 347.223 338.114C346.613 337.739 346.14 337.214 345.803 336.54C345.465 335.866 345.297 335.078 345.297 334.176C345.297 333.271 345.465 332.479 345.803 331.801C346.14 331.123 346.613 330.597 347.223 330.222C347.833 329.847 348.547 329.659 349.365 329.659C350.183 329.659 350.897 329.847 351.507 330.222C352.117 330.597 352.59 331.123 352.928 331.801C353.265 332.479 353.433 333.271 353.433 334.176C353.433 335.078 353.265 335.866 352.928 336.54C352.59 337.214 352.117 337.739 351.507 338.114C350.897 338.489 350.183 338.676 349.365 338.676ZM349.371 337.25C349.901 337.25 350.34 337.11 350.689 336.83C351.037 336.549 351.295 336.176 351.462 335.71C351.632 335.244 351.717 334.731 351.717 334.17C351.717 333.614 351.632 333.102 351.462 332.636C351.295 332.167 351.037 331.79 350.689 331.506C350.34 331.222 349.901 331.08 349.371 331.08C348.837 331.08 348.393 331.222 348.041 331.506C347.693 331.79 347.433 332.167 347.263 332.636C347.096 333.102 347.013 333.614 347.013 334.17C347.013 334.731 347.096 335.244 347.263 335.71C347.433 336.176 347.693 336.549 348.041 336.83C348.393 337.11 348.837 337.25 349.371 337.25ZM357.028 333.318V338.5H355.33V329.773H356.96V331.193H357.068C357.269 330.731 357.583 330.36 358.011 330.08C358.443 329.799 358.987 329.659 359.642 329.659C360.237 329.659 360.758 329.784 361.205 330.034C361.652 330.28 361.998 330.648 362.244 331.136C362.491 331.625 362.614 332.229 362.614 332.949V338.5H360.915V333.153C360.915 332.521 360.75 332.027 360.42 331.67C360.091 331.311 359.638 331.131 359.062 331.131C358.669 331.131 358.318 331.216 358.011 331.386C357.708 331.557 357.468 331.807 357.29 332.136C357.116 332.462 357.028 332.856 357.028 333.318Z" fill="#3F4346"/>
<path d="M151.5 113.5H154.5V112H151.5V113.5ZM146.25 104.5V106H159.75V104.5H146.25ZM148.5 109.75H157.5V108.25H148.5V109.75Z" fill="#1E75BA"/>
<path d="M168.261 114.5H166.398L170.585 102.864H172.614L176.801 114.5H174.938L171.648 104.977H171.557L168.261 114.5ZM168.574 109.943H174.619V111.42H168.574V109.943ZM178.345 117.773V105.773H180.004V107.188H180.146C180.245 107.006 180.387 106.795 180.572 106.557C180.758 106.318 181.016 106.11 181.345 105.932C181.675 105.75 182.11 105.659 182.652 105.659C183.357 105.659 183.985 105.837 184.538 106.193C185.091 106.549 185.525 107.062 185.839 107.733C186.158 108.403 186.317 109.21 186.317 110.153C186.317 111.097 186.16 111.905 185.845 112.58C185.531 113.25 185.099 113.767 184.55 114.131C184 114.491 183.374 114.67 182.669 114.67C182.139 114.67 181.705 114.581 181.368 114.403C181.035 114.225 180.773 114.017 180.584 113.778C180.394 113.54 180.249 113.328 180.146 113.142H180.044V117.773H178.345ZM180.01 110.136C180.01 110.75 180.099 111.288 180.277 111.75C180.455 112.212 180.713 112.574 181.05 112.835C181.387 113.093 181.8 113.222 182.288 113.222C182.796 113.222 183.22 113.087 183.561 112.818C183.902 112.545 184.16 112.176 184.334 111.71C184.512 111.244 184.601 110.72 184.601 110.136C184.601 109.561 184.514 109.044 184.339 108.585C184.169 108.127 183.911 107.765 183.567 107.5C183.226 107.235 182.8 107.102 182.288 107.102C181.796 107.102 181.379 107.229 181.038 107.483C180.701 107.737 180.446 108.091 180.271 108.545C180.097 109 180.01 109.53 180.01 110.136ZM188.22 117.773V105.773H189.879V107.188H190.021C190.12 107.006 190.262 106.795 190.447 106.557C190.633 106.318 190.891 106.11 191.22 105.932C191.55 105.75 191.985 105.659 192.527 105.659C193.232 105.659 193.86 105.837 194.413 106.193C194.966 106.549 195.4 107.062 195.714 107.733C196.033 108.403 196.192 109.21 196.192 110.153C196.192 111.097 196.035 111.905 195.72 112.58C195.406 113.25 194.974 113.767 194.425 114.131C193.875 114.491 193.249 114.67 192.544 114.67C192.014 114.67 191.58 114.581 191.243 114.403C190.91 114.225 190.648 114.017 190.459 113.778C190.269 113.54 190.124 113.328 190.021 113.142H189.919V117.773H188.22ZM189.885 110.136C189.885 110.75 189.974 111.288 190.152 111.75C190.33 112.212 190.588 112.574 190.925 112.835C191.262 113.093 191.675 113.222 192.163 113.222C192.671 113.222 193.095 113.087 193.436 112.818C193.777 112.545 194.035 112.176 194.209 111.71C194.387 111.244 194.476 110.72 194.476 110.136C194.476 109.561 194.389 109.044 194.214 108.585C194.044 108.127 193.786 107.765 193.442 107.5C193.101 107.235 192.675 107.102 192.163 107.102C191.671 107.102 191.254 107.229 190.913 107.483C190.576 107.737 190.321 108.091 190.146 108.545C189.972 109 189.885 109.53 189.885 110.136ZM199.794 102.864V114.5H198.095V102.864H199.794ZM203.153 117.773C202.9 117.773 202.669 117.752 202.46 117.71C202.252 117.672 202.097 117.631 201.994 117.585L202.403 116.193C202.714 116.277 202.991 116.313 203.233 116.301C203.475 116.29 203.689 116.199 203.875 116.028C204.064 115.858 204.231 115.58 204.375 115.193L204.585 114.614L201.392 105.773H203.21L205.42 112.545H205.511L207.722 105.773H209.545L205.949 115.665C205.782 116.119 205.57 116.504 205.312 116.818C205.055 117.136 204.748 117.375 204.392 117.534C204.036 117.693 203.623 117.773 203.153 117.773ZM219.53 105.773V107.136H214.598V105.773H219.53ZM215.95 114.5V104.761C215.95 104.216 216.07 103.763 216.308 103.403C216.547 103.04 216.863 102.769 217.257 102.591C217.651 102.409 218.079 102.318 218.541 102.318C218.882 102.318 219.174 102.347 219.416 102.403C219.659 102.456 219.839 102.506 219.956 102.551L219.558 103.926C219.479 103.903 219.376 103.877 219.251 103.847C219.126 103.812 218.975 103.795 218.797 103.795C218.384 103.795 218.089 103.898 217.911 104.102C217.736 104.307 217.649 104.602 217.649 104.989V114.5H215.95ZM221.283 114.5V105.773H222.982V114.5H221.283ZM222.141 104.426C221.845 104.426 221.591 104.328 221.379 104.131C221.171 103.93 221.067 103.691 221.067 103.415C221.067 103.134 221.171 102.896 221.379 102.699C221.591 102.498 221.845 102.398 222.141 102.398C222.436 102.398 222.688 102.498 222.896 102.699C223.108 102.896 223.214 103.134 223.214 103.415C223.214 103.691 223.108 103.93 222.896 104.131C222.688 104.328 222.436 104.426 222.141 104.426ZM226.966 102.864V114.5H225.267V102.864H226.966ZM233.325 105.773V107.136H228.558V105.773H233.325ZM229.837 103.682H231.536V111.938C231.536 112.267 231.585 112.515 231.683 112.682C231.782 112.845 231.909 112.956 232.064 113.017C232.223 113.074 232.395 113.102 232.581 113.102C232.717 113.102 232.837 113.093 232.939 113.074C233.041 113.055 233.121 113.04 233.178 113.028L233.484 114.432C233.386 114.47 233.246 114.508 233.064 114.545C232.882 114.587 232.655 114.61 232.382 114.614C231.935 114.621 231.518 114.542 231.132 114.375C230.746 114.208 230.433 113.951 230.195 113.602C229.956 113.254 229.837 112.816 229.837 112.29V103.682ZM238.872 114.676C238.012 114.676 237.272 114.492 236.651 114.125C236.033 113.754 235.556 113.233 235.219 112.562C234.885 111.888 234.719 111.098 234.719 110.193C234.719 109.299 234.885 108.511 235.219 107.83C235.556 107.148 236.026 106.616 236.628 106.233C237.234 105.85 237.942 105.659 238.753 105.659C239.245 105.659 239.723 105.741 240.185 105.903C240.647 106.066 241.062 106.322 241.429 106.67C241.796 107.019 242.086 107.472 242.298 108.028C242.51 108.581 242.616 109.254 242.616 110.045V110.648H235.679V109.375H240.952C240.952 108.928 240.861 108.532 240.679 108.188C240.497 107.839 240.241 107.564 239.912 107.364C239.586 107.163 239.204 107.062 238.764 107.062C238.287 107.062 237.87 107.18 237.514 107.415C237.162 107.646 236.889 107.949 236.696 108.324C236.507 108.695 236.412 109.098 236.412 109.534V110.528C236.412 111.112 236.514 111.608 236.719 112.017C236.927 112.426 237.217 112.739 237.588 112.955C237.959 113.167 238.393 113.273 238.889 113.273C239.211 113.273 239.505 113.227 239.77 113.136C240.035 113.042 240.264 112.902 240.457 112.716C240.651 112.53 240.798 112.301 240.901 112.028L242.509 112.318C242.38 112.792 242.149 113.206 241.815 113.562C241.486 113.915 241.071 114.189 240.571 114.386C240.075 114.58 239.509 114.676 238.872 114.676ZM244.501 114.5V105.773H246.143V107.159H246.234C246.393 106.689 246.674 106.32 247.075 106.051C247.481 105.778 247.939 105.642 248.45 105.642C248.556 105.642 248.681 105.646 248.825 105.653C248.973 105.661 249.089 105.67 249.172 105.682V107.307C249.104 107.288 248.982 107.267 248.808 107.244C248.634 107.218 248.46 107.205 248.286 107.205C247.884 107.205 247.526 107.29 247.212 107.46C246.901 107.627 246.655 107.86 246.473 108.159C246.291 108.455 246.2 108.792 246.2 109.17V114.5H244.501Z" fill="#1E75BA"/>
<rect x="132.5" y="89.5" width="133" height="39" rx="3.5" stroke="#1E75BA"/>
<rect x="388" y="313" width="173" height="40" rx="4" fill="#1E75BA"/>
<path d="M414.25 333.75H409.75V338.25H408.25V333.75H403.75V332.25H408.25V327.75H409.75V332.25H414.25V333.75Z" fill="white"/>
<path d="M432.943 330.648H431.17C431.102 330.269 430.975 329.936 430.79 329.648C430.604 329.36 430.377 329.116 430.108 328.915C429.839 328.714 429.538 328.562 429.205 328.46C428.875 328.358 428.525 328.307 428.153 328.307C427.483 328.307 426.883 328.475 426.352 328.812C425.826 329.15 425.409 329.644 425.102 330.295C424.799 330.947 424.648 331.742 424.648 332.682C424.648 333.629 424.799 334.428 425.102 335.08C425.409 335.731 425.828 336.223 426.358 336.557C426.888 336.89 427.485 337.057 428.148 337.057C428.515 337.057 428.864 337.008 429.193 336.909C429.527 336.807 429.828 336.657 430.097 336.46C430.366 336.263 430.593 336.023 430.778 335.739C430.968 335.451 431.098 335.121 431.17 334.75L432.943 334.756C432.848 335.328 432.665 335.854 432.392 336.335C432.123 336.812 431.777 337.225 431.352 337.574C430.932 337.919 430.451 338.186 429.909 338.375C429.367 338.564 428.777 338.659 428.136 338.659C427.129 338.659 426.231 338.42 425.443 337.943C424.655 337.462 424.034 336.775 423.58 335.881C423.129 334.987 422.903 333.92 422.903 332.682C422.903 331.439 423.131 330.373 423.585 329.483C424.04 328.589 424.661 327.903 425.449 327.426C426.237 326.945 427.133 326.705 428.136 326.705C428.754 326.705 429.33 326.794 429.864 326.972C430.402 327.146 430.884 327.403 431.312 327.744C431.741 328.081 432.095 328.494 432.375 328.983C432.655 329.468 432.845 330.023 432.943 330.648ZM434.908 338.5V329.773H436.55V331.159H436.641C436.8 330.689 437.08 330.32 437.482 330.051C437.887 329.778 438.345 329.642 438.857 329.642C438.963 329.642 439.088 329.646 439.232 329.653C439.379 329.661 439.495 329.67 439.578 329.682V331.307C439.51 331.288 439.389 331.267 439.214 331.244C439.04 331.218 438.866 331.205 438.692 331.205C438.29 331.205 437.932 331.29 437.618 331.46C437.307 331.627 437.061 331.86 436.879 332.159C436.697 332.455 436.607 332.792 436.607 333.17V338.5H434.908ZM444.497 338.676C443.637 338.676 442.897 338.492 442.276 338.125C441.658 337.754 441.181 337.233 440.844 336.562C440.51 335.888 440.344 335.098 440.344 334.193C440.344 333.299 440.51 332.511 440.844 331.83C441.181 331.148 441.651 330.616 442.253 330.233C442.859 329.85 443.567 329.659 444.378 329.659C444.87 329.659 445.348 329.741 445.81 329.903C446.272 330.066 446.687 330.322 447.054 330.67C447.421 331.019 447.711 331.472 447.923 332.028C448.135 332.581 448.241 333.254 448.241 334.045V334.648H441.304V333.375H446.577C446.577 332.928 446.486 332.532 446.304 332.188C446.122 331.839 445.866 331.564 445.537 331.364C445.211 331.163 444.829 331.062 444.389 331.062C443.912 331.062 443.495 331.18 443.139 331.415C442.787 331.646 442.514 331.949 442.321 332.324C442.132 332.695 442.037 333.098 442.037 333.534V334.528C442.037 335.112 442.139 335.608 442.344 336.017C442.552 336.426 442.842 336.739 443.213 336.955C443.584 337.167 444.018 337.273 444.514 337.273C444.836 337.273 445.13 337.227 445.395 337.136C445.66 337.042 445.889 336.902 446.082 336.716C446.276 336.53 446.423 336.301 446.526 336.028L448.134 336.318C448.005 336.792 447.774 337.206 447.44 337.562C447.111 337.915 446.696 338.189 446.196 338.386C445.7 338.58 445.134 338.676 444.497 338.676ZM452.666 338.693C452.113 338.693 451.613 338.591 451.166 338.386C450.719 338.178 450.365 337.877 450.104 337.483C449.846 337.089 449.717 336.606 449.717 336.034C449.717 335.542 449.812 335.136 450.001 334.818C450.191 334.5 450.446 334.248 450.768 334.062C451.09 333.877 451.45 333.737 451.848 333.642C452.246 333.547 452.651 333.475 453.064 333.426C453.587 333.366 454.011 333.316 454.337 333.278C454.662 333.237 454.899 333.17 455.047 333.08C455.195 332.989 455.268 332.841 455.268 332.636V332.597C455.268 332.1 455.128 331.716 454.848 331.443C454.571 331.17 454.159 331.034 453.609 331.034C453.037 331.034 452.587 331.161 452.257 331.415C451.931 331.665 451.706 331.943 451.581 332.25L449.984 331.886C450.174 331.356 450.45 330.928 450.814 330.602C451.181 330.273 451.604 330.034 452.081 329.886C452.558 329.735 453.06 329.659 453.587 329.659C453.935 329.659 454.304 329.701 454.695 329.784C455.089 329.864 455.456 330.011 455.797 330.227C456.142 330.443 456.424 330.752 456.643 331.153C456.863 331.551 456.973 332.068 456.973 332.705V338.5H455.314V337.307H455.246C455.136 337.527 454.971 337.742 454.751 337.955C454.532 338.167 454.25 338.343 453.905 338.483C453.56 338.623 453.147 338.693 452.666 338.693ZM453.036 337.33C453.505 337.33 453.907 337.237 454.24 337.051C454.577 336.866 454.833 336.623 455.007 336.324C455.185 336.021 455.274 335.697 455.274 335.352V334.227C455.214 334.288 455.096 334.345 454.922 334.398C454.751 334.447 454.556 334.491 454.337 334.528C454.117 334.562 453.903 334.595 453.695 334.625C453.486 334.652 453.312 334.674 453.172 334.693C452.842 334.735 452.541 334.805 452.268 334.903C452 335.002 451.784 335.144 451.621 335.33C451.462 335.511 451.382 335.754 451.382 336.057C451.382 336.477 451.537 336.795 451.848 337.011C452.159 337.223 452.554 337.33 453.036 337.33ZM463.31 329.773V331.136H458.543V329.773H463.31ZM459.821 327.682H461.52V335.938C461.52 336.267 461.569 336.515 461.668 336.682C461.766 336.845 461.893 336.956 462.048 337.017C462.207 337.074 462.38 337.102 462.565 337.102C462.702 337.102 462.821 337.093 462.923 337.074C463.026 337.055 463.105 337.04 463.162 337.028L463.469 338.432C463.37 338.47 463.23 338.508 463.048 338.545C462.866 338.587 462.639 338.61 462.366 338.614C461.92 338.621 461.503 338.542 461.116 338.375C460.73 338.208 460.418 337.951 460.179 337.602C459.94 337.254 459.821 336.816 459.821 336.29V327.682ZM468.857 338.676C467.997 338.676 467.256 338.492 466.635 338.125C466.018 337.754 465.54 337.233 465.203 336.562C464.87 335.888 464.703 335.098 464.703 334.193C464.703 333.299 464.87 332.511 465.203 331.83C465.54 331.148 466.01 330.616 466.612 330.233C467.218 329.85 467.927 329.659 468.737 329.659C469.23 329.659 469.707 329.741 470.169 329.903C470.631 330.066 471.046 330.322 471.413 330.67C471.781 331.019 472.071 331.472 472.283 332.028C472.495 332.581 472.601 333.254 472.601 334.045V334.648H465.663V333.375H470.936C470.936 332.928 470.845 332.532 470.663 332.188C470.482 331.839 470.226 331.564 469.896 331.364C469.571 331.163 469.188 331.062 468.749 331.062C468.271 331.062 467.855 331.18 467.499 331.415C467.146 331.646 466.874 331.949 466.68 332.324C466.491 332.695 466.396 333.098 466.396 333.534V334.528C466.396 335.112 466.499 335.608 466.703 336.017C466.911 336.426 467.201 336.739 467.572 336.955C467.944 337.167 468.377 337.273 468.874 337.273C469.196 337.273 469.489 337.227 469.754 337.136C470.019 337.042 470.249 336.902 470.442 336.716C470.635 336.53 470.783 336.301 470.885 336.028L472.493 336.318C472.364 336.792 472.133 337.206 471.8 337.562C471.47 337.915 471.055 338.189 470.555 338.386C470.059 338.58 469.493 338.676 468.857 338.676ZM485.26 331.903L483.72 332.176C483.656 331.979 483.554 331.792 483.413 331.614C483.277 331.436 483.091 331.29 482.857 331.176C482.622 331.062 482.328 331.006 481.976 331.006C481.495 331.006 481.093 331.114 480.771 331.33C480.449 331.542 480.288 331.816 480.288 332.153C480.288 332.445 480.396 332.68 480.612 332.858C480.828 333.036 481.177 333.182 481.658 333.295L483.044 333.614C483.847 333.799 484.446 334.085 484.839 334.472C485.233 334.858 485.43 335.36 485.43 335.977C485.43 336.5 485.279 336.966 484.976 337.375C484.677 337.78 484.258 338.098 483.72 338.33C483.186 338.561 482.567 338.676 481.862 338.676C480.885 338.676 480.088 338.468 479.47 338.051C478.853 337.631 478.474 337.034 478.334 336.261L479.976 336.011C480.078 336.439 480.288 336.763 480.607 336.983C480.925 337.199 481.339 337.307 481.851 337.307C482.408 337.307 482.853 337.191 483.186 336.96C483.519 336.725 483.686 336.439 483.686 336.102C483.686 335.83 483.584 335.6 483.379 335.415C483.179 335.229 482.87 335.089 482.453 334.994L480.976 334.67C480.161 334.485 479.559 334.189 479.169 333.784C478.783 333.379 478.589 332.866 478.589 332.244C478.589 331.729 478.733 331.278 479.021 330.892C479.309 330.506 479.707 330.205 480.214 329.989C480.722 329.769 481.304 329.659 481.959 329.659C482.902 329.659 483.644 329.864 484.186 330.273C484.728 330.678 485.086 331.222 485.26 331.903ZM491.06 338.676C490.2 338.676 489.459 338.492 488.838 338.125C488.221 337.754 487.743 337.233 487.406 336.562C487.073 335.888 486.906 335.098 486.906 334.193C486.906 333.299 487.073 332.511 487.406 331.83C487.743 331.148 488.213 330.616 488.815 330.233C489.421 329.85 490.13 329.659 490.94 329.659C491.433 329.659 491.91 329.741 492.372 329.903C492.834 330.066 493.249 330.322 493.616 330.67C493.984 331.019 494.274 331.472 494.486 332.028C494.698 332.581 494.804 333.254 494.804 334.045V334.648H487.866V333.375H493.139C493.139 332.928 493.048 332.532 492.866 332.188C492.685 331.839 492.429 331.564 492.099 331.364C491.774 331.163 491.391 331.062 490.952 331.062C490.474 331.062 490.058 331.18 489.702 331.415C489.349 331.646 489.077 331.949 488.884 332.324C488.694 332.695 488.599 333.098 488.599 333.534V334.528C488.599 335.112 488.702 335.608 488.906 336.017C489.115 336.426 489.404 336.739 489.776 336.955C490.147 337.167 490.58 337.273 491.077 337.273C491.399 337.273 491.692 337.227 491.957 337.136C492.223 337.042 492.452 336.902 492.645 336.716C492.838 336.53 492.986 336.301 493.088 336.028L494.696 336.318C494.567 336.792 494.336 337.206 494.003 337.562C493.673 337.915 493.259 338.189 492.759 338.386C492.262 338.58 491.696 338.676 491.06 338.676ZM500.348 341.955C499.655 341.955 499.058 341.864 498.558 341.682C498.062 341.5 497.657 341.259 497.342 340.96C497.028 340.661 496.793 340.333 496.638 339.977L498.098 339.375C498.2 339.542 498.337 339.718 498.507 339.903C498.681 340.093 498.916 340.254 499.212 340.386C499.511 340.519 499.895 340.585 500.365 340.585C501.009 340.585 501.541 340.428 501.962 340.114C502.382 339.803 502.592 339.307 502.592 338.625V336.909H502.484C502.382 337.095 502.234 337.301 502.041 337.528C501.852 337.756 501.59 337.953 501.257 338.119C500.924 338.286 500.49 338.369 499.956 338.369C499.267 338.369 498.645 338.208 498.092 337.886C497.543 337.561 497.107 337.081 496.786 336.449C496.467 335.812 496.308 335.03 496.308 334.102C496.308 333.174 496.465 332.379 496.78 331.716C497.098 331.053 497.534 330.545 498.087 330.193C498.64 329.837 499.267 329.659 499.967 329.659C500.509 329.659 500.946 329.75 501.28 329.932C501.613 330.11 501.873 330.318 502.058 330.557C502.248 330.795 502.393 331.006 502.496 331.188H502.621V329.773H504.286V338.693C504.286 339.443 504.111 340.059 503.763 340.54C503.414 341.021 502.943 341.377 502.348 341.608C501.757 341.839 501.09 341.955 500.348 341.955ZM500.331 336.96C500.82 336.96 501.232 336.847 501.57 336.619C501.911 336.388 502.168 336.059 502.342 335.631C502.52 335.199 502.609 334.682 502.609 334.08C502.609 333.492 502.522 332.975 502.348 332.528C502.174 332.081 501.918 331.733 501.581 331.483C501.244 331.229 500.827 331.102 500.331 331.102C499.82 331.102 499.393 331.235 499.053 331.5C498.712 331.761 498.454 332.117 498.28 332.568C498.109 333.019 498.024 333.523 498.024 334.08C498.024 334.652 498.111 335.153 498.286 335.585C498.46 336.017 498.717 336.354 499.058 336.597C499.403 336.839 499.827 336.96 500.331 336.96ZM506.564 338.5V329.773H508.195V331.193H508.303C508.484 330.712 508.782 330.337 509.195 330.068C509.607 329.795 510.102 329.659 510.678 329.659C511.261 329.659 511.75 329.795 512.143 330.068C512.541 330.341 512.835 330.716 513.024 331.193H513.115C513.323 330.727 513.655 330.356 514.109 330.08C514.564 329.799 515.106 329.659 515.734 329.659C516.526 329.659 517.172 329.907 517.672 330.403C518.176 330.9 518.428 331.648 518.428 332.648V338.5H516.729V332.807C516.729 332.216 516.568 331.788 516.246 331.523C515.924 331.258 515.539 331.125 515.092 331.125C514.539 331.125 514.109 331.295 513.803 331.636C513.496 331.973 513.342 332.407 513.342 332.938V338.5H511.649V332.699C511.649 332.225 511.501 331.845 511.206 331.557C510.911 331.269 510.526 331.125 510.053 331.125C509.731 331.125 509.433 331.21 509.161 331.381C508.892 331.547 508.674 331.78 508.507 332.08C508.344 332.379 508.263 332.725 508.263 333.119V338.5H506.564ZM524.466 338.676C523.606 338.676 522.866 338.492 522.244 338.125C521.627 337.754 521.15 337.233 520.812 336.562C520.479 335.888 520.312 335.098 520.312 334.193C520.312 333.299 520.479 332.511 520.812 331.83C521.15 331.148 521.619 330.616 522.222 330.233C522.828 329.85 523.536 329.659 524.347 329.659C524.839 329.659 525.316 329.741 525.778 329.903C526.241 330.066 526.655 330.322 527.023 330.67C527.39 331.019 527.68 331.472 527.892 332.028C528.104 332.581 528.21 333.254 528.21 334.045V334.648H521.273V333.375H526.545C526.545 332.928 526.455 332.532 526.273 332.188C526.091 331.839 525.835 331.564 525.506 331.364C525.18 331.163 524.797 331.062 524.358 331.062C523.881 331.062 523.464 331.18 523.108 331.415C522.756 331.646 522.483 331.949 522.29 332.324C522.1 332.695 522.006 333.098 522.006 333.534V334.528C522.006 335.112 522.108 335.608 522.312 336.017C522.521 336.426 522.811 336.739 523.182 336.955C523.553 337.167 523.987 337.273 524.483 337.273C524.805 337.273 525.098 337.227 525.364 337.136C525.629 337.042 525.858 336.902 526.051 336.716C526.244 336.53 526.392 336.301 526.494 336.028L528.102 336.318C527.973 336.792 527.742 337.206 527.409 337.562C527.08 337.915 526.665 338.189 526.165 338.386C525.669 338.58 525.102 338.676 524.466 338.676ZM531.794 333.318V338.5H530.095V329.773H531.726V331.193H531.834C532.035 330.731 532.349 330.36 532.777 330.08C533.209 329.799 533.752 329.659 534.408 329.659C535.002 329.659 535.523 329.784 535.97 330.034C536.417 330.28 536.764 330.648 537.01 331.136C537.256 331.625 537.379 332.229 537.379 332.949V338.5H535.68V333.153C535.68 332.521 535.516 332.027 535.186 331.67C534.857 331.311 534.404 331.131 533.828 331.131C533.434 331.131 533.084 331.216 532.777 331.386C532.474 331.557 532.233 331.807 532.055 332.136C531.881 332.462 531.794 332.856 531.794 333.318ZM543.732 329.773V331.136H538.964V329.773H543.732ZM540.243 327.682H541.942V335.938C541.942 336.267 541.991 336.515 542.089 336.682C542.188 336.845 542.315 336.956 542.47 337.017C542.629 337.074 542.802 337.102 542.987 337.102C543.124 337.102 543.243 337.093 543.345 337.074C543.447 337.055 543.527 337.04 543.584 337.028L543.891 338.432C543.792 338.47 543.652 338.508 543.47 338.545C543.288 338.587 543.061 338.61 542.788 338.614C542.341 338.621 541.925 338.542 541.538 338.375C541.152 338.208 540.839 337.951 540.601 337.602C540.362 337.254 540.243 336.816 540.243 336.29V327.682Z" fill="white"/>
<defs>
<clipPath id="clip0_2090_29029">
<rect width="200" height="200" fill="white" transform="translate(396)"/>
</clipPath>
<clipPath id="clip1_2090_29029">
<rect x="132" y="141" width="422" height="30" rx="4" fill="white"/>
</clipPath>
<clipPath id="clip2_2090_29029">
<rect x="132" y="187" width="422" height="30" rx="4" fill="white"/>
</clipPath>
<clipPath id="clip3_2090_29029">
<rect x="132" y="233" width="422" height="30" rx="4" fill="white"/>
</clipPath>
</defs>
</svg>
