<svg width="550" height="400" viewBox="0 0 550 400" fill="none" xmlns="http://www.w3.org/2000/svg">
<g clip-path="url(#clip0_1421_20010)">
<path d="M436.068 235.558C436.339 235.26 436.662 235.024 437.017 234.863C437.372 234.702 437.752 234.619 438.136 234.619C438.52 234.619 438.9 234.702 439.255 234.863C439.61 235.024 439.933 235.26 440.204 235.558C440.476 235.856 440.691 236.209 440.838 236.598C440.985 236.987 441.061 237.404 441.061 237.825C441.061 238.246 440.985 238.663 440.838 239.052C440.691 239.441 440.476 239.794 440.204 240.092L426.243 255.395L420.555 257.095L422.106 250.861L436.068 235.558Z" stroke="white" stroke-width="2.25938" stroke-linecap="round" stroke-linejoin="round"/>
<line x1="460" y1="259" x2="480" y2="259" stroke="white" stroke-width="2" stroke-linecap="round"/>
<g clip-path="url(#clip1_1421_20010)">
<rect x="96.6497" y="59.8918" width="391.896" height="251.615" rx="13.3601" fill="white"/>
<ellipse cx="120.028" cy="78.2644" rx="6.68004" ry="7.23671" fill="#DF434C"/>
<circle cx="138.396" cy="78.2644" r="7.23671" fill="#E7B44C"/>
<circle cx="156.211" cy="78.2644" r="7.23671" fill="#6BD280"/>
<rect x="174.577" y="71.0277" width="296.148" height="14.4734" rx="7.23671" fill="#E1E3E8"/>
<rect x="113.348" y="107.767" width="66.8004" height="17.8134" rx="4.45336" fill="#F2F3F5"/>
<rect x="113.348" y="132.259" width="66.8004" height="17.8134" rx="4.45336" fill="#F2F3F5"/>
<rect x="113.348" y="156.756" width="66.8004" height="17.8134" rx="4.45336" fill="#5E9BF0"/>
<rect x="113.348" y="181.249" width="66.8004" height="17.8134" rx="4.45336" fill="#F2F3F5"/>
<rect x="113.348" y="205.743" width="66.8004" height="17.8134" rx="4.45336" fill="#F2F3F5"/>
<rect x="113.348" y="230.236" width="66.8004" height="17.8134" rx="4.45336" fill="#F2F3F5"/>
<rect x="194.669" y="132.624" width="276.554" height="125.521" rx="4.45336" fill="#F2F3F5"/>
<g filter="url(#filter0_bdii_1421_20010)">
<rect x="40.573" y="274.472" width="235.734" height="58.1682" rx="29.0841" fill="#5E9BF0"/>
</g>
<g filter="url(#filter1_bdii_1421_20010)">
<rect x="438.567" y="230.591" width="40.8198" height="40.8198" rx="20.4099" fill="#5E9BF0"/>
</g>
<path d="M83.2165 294.911V309.718H86.7914V294.911H83.2165ZM85.4587 297.851H88.3568C89.076 297.851 89.6401 298.013 90.049 298.338C90.458 298.662 90.6625 299.134 90.6625 299.755C90.6625 300.361 90.458 300.827 90.049 301.151C89.6401 301.475 89.076 301.638 88.3568 301.638H85.4587V304.578H88.3568C89.6119 304.578 90.6625 304.388 91.5086 304.007C92.3689 303.612 93.0176 303.055 93.4547 302.336C93.8919 301.602 94.1105 300.742 94.1105 299.755C94.1105 298.74 93.8919 297.872 93.4547 297.153C93.0176 296.434 92.3689 295.884 91.5086 295.503C90.6625 295.108 89.6119 294.911 88.3568 294.911H85.4587V297.851ZM99.6425 305.911V299.988H96.3002V306.249C96.3002 307.405 96.5752 308.315 97.1252 308.978C97.6893 309.627 98.5777 309.951 99.7905 309.951C100.51 309.951 101.109 309.803 101.589 309.507C102.068 309.196 102.456 308.78 102.752 308.259V309.718H105.946V299.988H102.752V305.911C102.752 306.291 102.682 306.616 102.54 306.884C102.399 307.152 102.202 307.356 101.948 307.497C101.708 307.638 101.412 307.709 101.06 307.709C100.538 307.709 100.171 307.554 99.9598 307.243C99.7482 306.919 99.6425 306.475 99.6425 305.911ZM112.275 293.219H109.081V309.718H112.275V293.219ZM120.229 304.853C120.229 303.753 120.003 302.829 119.552 302.082C119.115 301.334 118.544 300.763 117.839 300.368C117.148 299.974 116.4 299.776 115.596 299.776C114.792 299.776 114.073 299.981 113.439 300.39C112.804 300.799 112.303 301.384 111.937 302.145C111.57 302.893 111.387 303.795 111.387 304.853C111.387 305.897 111.57 306.799 111.937 307.561C112.303 308.322 112.804 308.907 113.439 309.316C114.073 309.725 114.792 309.93 115.596 309.93C116.4 309.93 117.148 309.732 117.839 309.337C118.544 308.943 119.115 308.371 119.552 307.624C120.003 306.863 120.229 305.939 120.229 304.853ZM116.866 304.853C116.866 305.361 116.76 305.805 116.548 306.186C116.337 306.552 116.055 306.841 115.702 307.053C115.35 307.25 114.962 307.349 114.539 307.349C114.172 307.349 113.812 307.25 113.46 307.053C113.121 306.855 112.839 306.573 112.614 306.207C112.388 305.826 112.275 305.375 112.275 304.853C112.275 304.331 112.388 303.887 112.614 303.52C112.839 303.14 113.121 302.85 113.46 302.653C113.812 302.456 114.172 302.357 114.539 302.357C114.962 302.357 115.35 302.463 115.702 302.674C116.055 302.872 116.337 303.161 116.548 303.541C116.76 303.908 116.866 304.345 116.866 304.853ZM122.792 293.219V309.718H126.008V293.219H122.792ZM128.938 296.328C128.938 296.836 129.122 297.252 129.488 297.576C129.855 297.901 130.292 298.063 130.8 298.063C131.321 298.063 131.759 297.901 132.111 297.576C132.478 297.252 132.661 296.836 132.661 296.328C132.661 295.82 132.478 295.411 132.111 295.101C131.759 294.777 131.321 294.615 130.8 294.615C130.292 294.615 129.855 294.777 129.488 295.101C129.122 295.411 128.938 295.82 128.938 296.328ZM129.255 299.988V309.718H132.344V299.988H129.255ZM136.138 306.186L134.805 308.301C135.243 308.639 135.715 308.95 136.223 309.232C136.73 309.5 137.28 309.711 137.873 309.866C138.479 310.036 139.135 310.12 139.84 310.12C140.996 310.12 141.892 309.859 142.526 309.337C143.175 308.802 143.5 308.012 143.5 306.968C143.5 306.362 143.366 305.875 143.098 305.509C142.844 305.142 142.498 304.839 142.061 304.599C141.638 304.359 141.173 304.148 140.665 303.965C140.185 303.781 139.777 303.633 139.438 303.52C139.114 303.393 138.86 303.259 138.677 303.118C138.507 302.977 138.423 302.801 138.423 302.59C138.423 302.406 138.493 302.258 138.634 302.145C138.789 302.033 139.015 301.976 139.311 301.976C139.748 301.976 140.228 302.103 140.75 302.357C141.271 302.597 141.737 302.907 142.146 303.288L143.288 301.215C142.907 300.933 142.498 300.686 142.061 300.474C141.638 300.263 141.18 300.093 140.686 299.967C140.207 299.84 139.685 299.776 139.121 299.776C138.416 299.776 137.788 299.882 137.238 300.093C136.702 300.305 136.272 300.615 135.948 301.024C135.637 301.433 135.482 301.934 135.482 302.526C135.482 303.147 135.616 303.654 135.884 304.049C136.152 304.444 136.491 304.761 136.9 305.001C137.323 305.227 137.767 305.424 138.232 305.593C138.754 305.748 139.163 305.897 139.459 306.038C139.769 306.179 139.988 306.327 140.115 306.482C140.242 306.623 140.305 306.799 140.305 307.011C140.305 307.236 140.228 307.42 140.073 307.561C139.918 307.702 139.678 307.772 139.353 307.772C139.128 307.772 138.86 307.73 138.55 307.645C138.239 307.547 137.88 307.384 137.471 307.159C137.076 306.919 136.632 306.595 136.138 306.186ZM149.106 293.219H145.891V309.718H149.106V293.219ZM152.216 303.795V309.718H155.41V303.33C155.41 302.526 155.297 301.849 155.072 301.299C154.846 300.749 154.486 300.333 153.993 300.051C153.513 299.769 152.872 299.628 152.068 299.628C151.264 299.628 150.601 299.818 150.079 300.199C149.572 300.566 149.191 301.066 148.937 301.701C148.683 302.322 148.556 303.02 148.556 303.795H149.106C149.106 303.415 149.177 303.097 149.318 302.843C149.459 302.575 149.656 302.371 149.91 302.23C150.164 302.075 150.46 301.997 150.799 301.997C151.32 301.997 151.687 302.152 151.899 302.463C152.11 302.773 152.216 303.217 152.216 303.795ZM168.19 306.863H176.017L175.784 304.134H168.444L168.19 306.863ZM172.061 300.347L174.155 305.149L174.028 306.059L175.805 309.718H179.866L172.061 293.98L164.276 309.718H168.317L170.157 305.911L169.988 305.128L172.061 300.347ZM184.887 299.988H181.735V309.718H184.887V299.988ZM187.701 303.288L189.076 300.559C188.906 300.305 188.66 300.108 188.335 299.967C188.011 299.825 187.672 299.755 187.32 299.755C186.784 299.755 186.269 299.931 185.776 300.284C185.282 300.636 184.88 301.116 184.57 301.722C184.274 302.329 184.126 303.02 184.126 303.795L184.887 304.916C184.887 304.451 184.951 304.056 185.078 303.732C185.205 303.407 185.388 303.161 185.628 302.991C185.867 302.822 186.142 302.738 186.453 302.738C186.735 302.738 186.967 302.787 187.151 302.886C187.348 302.984 187.531 303.118 187.701 303.288ZM189.925 299.988V302.632H196.44V299.988H189.925ZM191.638 296.603V309.718H194.705V296.603H191.638ZM198.246 296.328C198.246 296.836 198.429 297.252 198.795 297.576C199.162 297.901 199.599 298.063 200.107 298.063C200.629 298.063 201.066 297.901 201.419 297.576C201.785 297.252 201.969 296.836 201.969 296.328C201.969 295.82 201.785 295.411 201.419 295.101C201.066 294.777 200.629 294.615 200.107 294.615C199.599 294.615 199.162 294.777 198.795 295.101C198.429 295.411 198.246 295.82 198.246 296.328ZM198.563 299.988V309.718H201.651V299.988H198.563ZM207.603 304.853C207.603 304.373 207.716 303.943 207.942 303.563C208.167 303.182 208.477 302.879 208.872 302.653C209.281 302.427 209.718 302.315 210.184 302.315C210.536 302.315 210.896 302.371 211.263 302.484C211.629 302.597 211.968 302.759 212.278 302.97C212.602 303.182 212.863 303.443 213.061 303.753V300.622C212.722 300.383 212.299 300.185 211.791 300.03C211.284 299.861 210.663 299.776 209.93 299.776C208.858 299.776 207.892 299.988 207.032 300.411C206.186 300.834 205.516 301.426 205.022 302.188C204.543 302.935 204.303 303.823 204.303 304.853C204.303 305.868 204.543 306.757 205.022 307.518C205.516 308.28 206.186 308.872 207.032 309.295C207.892 309.718 208.858 309.93 209.93 309.93C210.663 309.93 211.284 309.852 211.791 309.697C212.299 309.528 212.722 309.309 213.061 309.041V305.932C212.863 306.242 212.609 306.503 212.299 306.714C212.003 306.926 211.672 307.095 211.305 307.222C210.952 307.335 210.579 307.391 210.184 307.391C209.718 307.391 209.281 307.286 208.872 307.074C208.477 306.863 208.167 306.573 207.942 306.207C207.716 305.826 207.603 305.375 207.603 304.853ZM216.004 293.219V309.718H219.219V293.219H216.004ZM227.29 309.93C228.531 309.93 229.582 309.69 230.442 309.211C231.316 308.731 232.007 308.012 232.515 307.053L229.659 306.355C229.419 306.778 229.095 307.095 228.686 307.307C228.291 307.518 227.812 307.624 227.248 307.624C226.754 307.624 226.338 307.518 226 307.307C225.661 307.081 225.407 306.757 225.238 306.334C225.069 305.911 224.984 305.403 224.984 304.811C224.998 304.162 225.083 303.626 225.238 303.203C225.407 302.766 225.654 302.441 225.979 302.23C226.303 302.018 226.705 301.913 227.184 301.913C227.565 301.913 227.896 301.997 228.178 302.166C228.461 302.336 228.679 302.575 228.834 302.886C228.989 303.196 229.067 303.563 229.067 303.986C229.067 304.084 229.039 304.211 228.982 304.366C228.94 304.507 228.884 304.627 228.813 304.726L229.575 303.753H223.567V305.53H232.451C232.48 305.431 232.494 305.311 232.494 305.17C232.494 305.015 232.494 304.86 232.494 304.705C232.494 303.661 232.289 302.773 231.88 302.04C231.471 301.306 230.879 300.749 230.103 300.368C229.328 299.974 228.376 299.776 227.248 299.776C226.12 299.776 225.139 299.981 224.307 300.39C223.489 300.799 222.862 301.384 222.425 302.145C221.988 302.907 221.769 303.809 221.769 304.853C221.769 305.882 221.995 306.778 222.446 307.539C222.897 308.301 223.532 308.893 224.35 309.316C225.182 309.725 226.162 309.93 227.29 309.93Z" fill="white"/>
<path d="M143.845 114.57L145.997 114.035V120.767H148.026V111.895L143.845 112.741V114.57Z" fill="#887D7D"/>
<path d="M142.217 145.259H149.596V143.331H146.112L148.14 141.514C148.514 141.19 148.816 140.834 149.049 140.444C149.281 140.046 149.397 139.61 149.397 139.137C149.397 138.805 149.327 138.478 149.186 138.154C149.045 137.831 148.833 137.536 148.551 137.271C148.277 136.997 147.933 136.781 147.518 136.624C147.103 136.458 146.626 136.375 146.087 136.375C145.341 136.375 144.706 136.528 144.183 136.835C143.669 137.142 143.283 137.553 143.026 138.067C142.769 138.581 142.641 139.15 142.641 139.772H144.706C144.706 139.457 144.756 139.179 144.855 138.938C144.963 138.698 145.117 138.511 145.316 138.378C145.523 138.245 145.76 138.179 146.025 138.179C146.224 138.179 146.398 138.212 146.548 138.279C146.697 138.337 146.821 138.42 146.921 138.528C147.021 138.627 147.095 138.743 147.145 138.876C147.195 139.009 147.22 139.141 147.22 139.274C147.22 139.506 147.174 139.726 147.083 139.934C147 140.133 146.871 140.336 146.697 140.543C146.531 140.751 146.332 140.983 146.1 141.24L142.217 145.259Z" fill="#887D7D"/>
<path d="M145.201 165.538C145.89 165.538 146.512 165.455 147.068 165.289C147.624 165.123 148.063 164.874 148.387 164.542C148.719 164.211 148.884 163.796 148.884 163.298C148.884 162.85 148.764 162.444 148.524 162.079C148.291 161.714 147.947 161.423 147.491 161.208C147.035 160.992 146.479 160.884 145.823 160.884C145.21 160.884 144.67 161.004 144.206 161.245C143.741 161.477 143.38 161.801 143.123 162.216C142.874 162.622 142.75 163.082 142.75 163.597H144.679C144.679 163.29 144.786 163.041 145.002 162.85C145.218 162.659 145.492 162.564 145.823 162.564C146.047 162.564 146.23 162.601 146.371 162.676C146.512 162.742 146.62 162.842 146.694 162.975C146.769 163.107 146.806 163.257 146.806 163.423C146.806 163.58 146.769 163.729 146.694 163.87C146.62 164.011 146.508 164.136 146.358 164.244C146.217 164.352 146.047 164.439 145.848 164.505C145.657 164.563 145.442 164.592 145.201 164.592V165.538ZM145.724 169.955C146.437 169.955 147.047 169.847 147.553 169.632C148.059 169.408 148.449 169.105 148.723 168.723C148.996 168.333 149.133 167.885 149.133 167.379C149.133 166.94 149.038 166.562 148.847 166.247C148.656 165.932 148.383 165.675 148.026 165.476C147.669 165.268 147.25 165.119 146.769 165.028C146.296 164.928 145.774 164.878 145.201 164.878V165.948C145.516 165.948 145.79 165.978 146.022 166.036C146.255 166.094 146.446 166.181 146.595 166.297C146.752 166.405 146.869 166.533 146.943 166.683C147.018 166.832 147.055 166.998 147.055 167.18C147.055 167.421 147.001 167.624 146.894 167.79C146.786 167.956 146.636 168.076 146.446 168.151C146.263 168.226 146.047 168.263 145.799 168.263C145.566 168.263 145.342 168.217 145.127 168.126C144.919 168.035 144.753 167.894 144.629 167.703C144.504 167.512 144.442 167.276 144.442 166.994H142.377C142.377 167.375 142.451 167.744 142.601 168.101C142.758 168.458 142.978 168.777 143.26 169.059C143.55 169.341 143.903 169.561 144.318 169.719C144.733 169.876 145.201 169.955 145.724 169.955Z" fill="white"/>
<path d="M141.882 192.706H149.87V190.914H148.091L147.879 191.188H144.669L146.548 188.587V191.922L146.311 192.059V194.249H148.501V185.539H146.933L141.882 192.706Z" fill="#887D7D"/>
<path d="M149.57 215.956C149.57 215.351 149.445 214.836 149.196 214.413C148.947 213.99 148.62 213.667 148.213 213.443C147.815 213.219 147.384 213.107 146.919 213.107C146.645 213.107 146.38 213.132 146.123 213.181C145.874 213.223 145.633 213.297 145.401 213.405L145.899 211.85H149.383V210.033H144.356L143.136 215.06C143.435 214.911 143.725 214.799 144.008 214.724C144.298 214.641 144.576 214.587 144.841 214.562C145.115 214.529 145.364 214.513 145.588 214.513C145.878 214.513 146.148 214.554 146.397 214.637C146.654 214.72 146.861 214.853 147.019 215.035C147.185 215.21 147.268 215.442 147.268 215.732C147.268 216.006 147.201 216.238 147.069 216.429C146.936 216.62 146.745 216.761 146.496 216.852C146.247 216.943 145.945 216.989 145.588 216.989C145.38 216.989 145.148 216.952 144.891 216.877C144.634 216.794 144.377 216.686 144.12 216.553C143.871 216.412 143.626 216.242 143.385 216.043L142.564 217.773C142.838 217.98 143.141 218.171 143.472 218.345C143.804 218.511 144.186 218.644 144.617 218.743C145.049 218.851 145.53 218.905 146.061 218.905C146.484 218.905 146.898 218.851 147.305 218.743C147.72 218.627 148.097 218.449 148.437 218.208C148.786 217.968 149.059 217.661 149.259 217.288C149.466 216.914 149.57 216.47 149.57 215.956Z" fill="#887D7D"/>
<path d="M144.59 240.175C144.59 239.885 144.652 239.628 144.776 239.404C144.909 239.18 145.083 239.005 145.299 238.881C145.523 238.757 145.776 238.694 146.058 238.694C146.332 238.694 146.577 238.757 146.792 238.881C147.016 239.005 147.19 239.18 147.315 239.404C147.448 239.628 147.514 239.885 147.514 240.175C147.514 240.474 147.448 240.735 147.315 240.959C147.19 241.175 147.016 241.345 146.792 241.469C146.577 241.585 146.332 241.643 146.058 241.643C145.776 241.643 145.523 241.585 145.299 241.469C145.083 241.345 144.909 241.175 144.776 240.959C144.652 240.735 144.59 240.474 144.59 240.175ZM146.033 234.563L143.52 237.761C143.238 238.109 142.997 238.483 142.798 238.881C142.607 239.279 142.512 239.711 142.512 240.175C142.512 240.888 142.669 241.49 142.985 241.979C143.308 242.46 143.735 242.825 144.266 243.074C144.805 243.315 145.403 243.435 146.058 243.435C146.705 243.435 147.294 243.315 147.825 243.074C148.364 242.825 148.791 242.46 149.107 241.979C149.43 241.49 149.592 240.888 149.592 240.175C149.592 239.735 149.513 239.341 149.356 238.993C149.206 238.645 148.999 238.35 148.733 238.109C148.476 237.861 148.186 237.674 147.862 237.55C147.547 237.417 147.228 237.35 146.904 237.35C146.589 237.35 146.324 237.384 146.108 237.45C145.9 237.516 145.681 237.666 145.448 237.898L145.884 237.711L148.696 234.563H146.033Z" fill="#887D7D"/>
<path d="M208.205 154.575C208.205 153.779 208.371 153.072 208.704 152.455C209.036 151.837 209.494 151.35 210.076 150.994C210.657 150.638 211.334 150.46 212.106 150.46C212.89 150.46 213.573 150.638 214.155 150.994C214.737 151.35 215.188 151.837 215.509 152.455C215.829 153.072 215.99 153.779 215.99 154.575C215.99 155.37 215.823 156.077 215.491 156.694C215.17 157.312 214.719 157.799 214.137 158.155C213.555 158.511 212.878 158.69 212.106 158.69C211.334 158.69 210.657 158.511 210.076 158.155C209.494 157.799 209.036 157.312 208.704 156.694C208.371 156.077 208.205 155.37 208.205 154.575ZM205.515 154.575C205.515 155.513 205.676 156.386 205.996 157.193C206.317 157.989 206.774 158.684 207.368 159.277C207.962 159.871 208.656 160.334 209.452 160.667C210.26 160.987 211.144 161.148 212.106 161.148C213.068 161.148 213.947 160.987 214.743 160.667C215.55 160.334 216.245 159.871 216.827 159.277C217.421 158.684 217.878 157.989 218.198 157.193C218.531 156.386 218.697 155.513 218.697 154.575C218.697 153.625 218.531 152.758 218.198 151.974C217.878 151.178 217.415 150.489 216.809 149.908C216.215 149.326 215.521 148.88 214.725 148.571C213.929 148.251 213.056 148.091 212.106 148.091C211.168 148.091 210.295 148.251 209.488 148.571C208.692 148.88 207.997 149.326 207.404 149.908C206.81 150.489 206.347 151.178 206.014 151.974C205.682 152.758 205.515 153.625 205.515 154.575ZM223.374 157.603V152.615H220.987V157.852C220.987 158.826 221.225 159.592 221.7 160.15C222.187 160.708 222.917 160.987 223.891 160.987C224.473 160.987 224.965 160.869 225.369 160.631C225.773 160.382 226.106 160.026 226.367 159.562V160.809H228.665V152.615H226.367V157.603C226.367 157.947 226.296 158.244 226.153 158.494C226.022 158.743 225.832 158.939 225.583 159.081C225.345 159.212 225.06 159.277 224.728 159.277C224.253 159.277 223.909 159.135 223.695 158.85C223.481 158.553 223.374 158.137 223.374 157.603ZM233.734 152.615H231.472V160.809H233.734V152.615ZM236.139 155.02L237.19 153.06C237.024 152.847 236.804 152.686 236.531 152.58C236.27 152.473 235.991 152.419 235.694 152.419C235.266 152.419 234.851 152.574 234.447 152.882C234.043 153.179 233.716 153.583 233.467 154.094C233.218 154.592 233.093 155.168 233.093 155.822L233.734 156.463C233.734 156.071 233.782 155.738 233.877 155.465C233.984 155.18 234.138 154.961 234.34 154.806C234.542 154.652 234.785 154.575 235.07 154.575C235.308 154.575 235.504 154.616 235.658 154.699C235.824 154.771 235.985 154.877 236.139 155.02ZM247.868 155.002L251.609 160.809H254.62L250.558 155.002H247.868ZM245.036 148.34V160.809H247.583V148.34H245.036ZM246.586 150.513H249.062C249.513 150.513 249.899 150.59 250.22 150.745C250.552 150.887 250.808 151.101 250.986 151.386C251.164 151.659 251.253 151.992 251.253 152.384C251.253 152.775 251.164 153.114 250.986 153.399C250.808 153.672 250.552 153.886 250.22 154.04C249.899 154.183 249.513 154.254 249.062 154.254H246.586V156.285H249.222C250.208 156.285 251.045 156.118 251.734 155.786C252.423 155.453 252.951 154.99 253.319 154.396C253.687 153.791 253.872 153.096 253.872 152.312C253.872 151.517 253.687 150.822 253.319 150.228C252.951 149.634 252.423 149.171 251.734 148.839C251.045 148.506 250.208 148.34 249.222 148.34H246.586V150.513ZM260.269 160.987C261.254 160.987 262.098 160.797 262.798 160.417C263.511 160.026 264.081 159.444 264.508 158.672L262.495 158.048C262.258 158.44 261.955 158.737 261.587 158.939C261.231 159.129 260.797 159.224 260.286 159.224C259.835 159.224 259.449 159.123 259.129 158.921C258.808 158.719 258.565 158.428 258.398 158.048C258.244 157.668 258.167 157.205 258.167 156.659C258.179 156.089 258.262 155.614 258.416 155.234C258.582 154.842 258.814 154.551 259.111 154.361C259.42 154.159 259.8 154.058 260.251 154.058C260.619 154.058 260.94 154.141 261.213 154.307C261.486 154.474 261.694 154.699 261.836 154.984C261.991 155.269 262.068 155.614 262.068 156.018C262.068 156.101 262.044 156.208 261.997 156.338C261.961 156.457 261.919 156.552 261.872 156.623L262.495 155.804H257.169V157.229H264.508C264.52 157.158 264.526 157.063 264.526 156.944C264.538 156.825 264.544 156.712 264.544 156.605C264.544 155.727 264.378 154.978 264.045 154.361C263.713 153.731 263.226 153.256 262.584 152.936C261.955 152.603 261.189 152.437 260.286 152.437C259.384 152.437 258.6 152.615 257.935 152.971C257.27 153.316 256.753 153.809 256.385 154.45C256.029 155.079 255.851 155.833 255.851 156.712C255.851 157.579 256.029 158.333 256.385 158.975C256.753 159.604 257.27 160.097 257.935 160.453C258.6 160.809 259.378 160.987 260.269 160.987ZM265.767 152.615V154.557H270.826V152.615H265.767ZM267.175 149.765V160.809H269.401V149.765H267.175ZM274.976 157.603V152.615H272.589V157.852C272.589 158.826 272.827 159.592 273.302 160.15C273.788 160.708 274.519 160.987 275.493 160.987C276.075 160.987 276.567 160.869 276.971 160.631C277.375 160.382 277.707 160.026 277.969 159.562V160.809H280.267V152.615H277.969V157.603C277.969 157.947 277.897 158.244 277.755 158.494C277.624 158.743 277.434 158.939 277.185 159.081C276.947 159.212 276.662 159.277 276.33 159.277C275.855 159.277 275.51 159.135 275.297 158.85C275.083 158.553 274.976 158.137 274.976 157.603ZM285.336 152.615H283.074V160.809H285.336V152.615ZM287.741 155.02L288.792 153.06C288.626 152.847 288.406 152.686 288.133 152.58C287.872 152.473 287.593 152.419 287.296 152.419C286.868 152.419 286.453 152.574 286.049 152.882C285.645 153.179 285.318 153.583 285.069 154.094C284.82 154.592 284.695 155.168 284.695 155.822L285.336 156.463C285.336 156.071 285.384 155.738 285.479 155.465C285.586 155.18 285.74 154.961 285.942 154.806C286.144 154.652 286.387 154.575 286.672 154.575C286.91 154.575 287.106 154.616 287.26 154.699C287.426 154.771 287.587 154.877 287.741 155.02ZM295.84 155.822V160.809H298.227V155.572C298.227 154.586 297.989 153.821 297.514 153.274C297.039 152.716 296.315 152.437 295.341 152.437C294.759 152.437 294.26 152.562 293.845 152.811C293.441 153.049 293.114 153.399 292.865 153.862V152.615H290.549V160.809H292.865V155.822C292.865 155.477 292.93 155.18 293.061 154.931C293.192 154.682 293.382 154.491 293.631 154.361C293.88 154.218 294.165 154.147 294.486 154.147C294.961 154.147 295.305 154.29 295.519 154.575C295.733 154.86 295.84 155.275 295.84 155.822ZM307.123 148.34V160.809H309.67V148.34H307.123ZM308.673 150.495H311.149C311.826 150.495 312.36 150.65 312.752 150.958C313.144 151.255 313.34 151.707 313.34 152.312C313.34 152.906 313.144 153.357 312.752 153.666C312.36 153.975 311.826 154.129 311.149 154.129H308.673V156.285H311.149C312.134 156.285 312.972 156.124 313.66 155.804C314.361 155.483 314.895 155.026 315.264 154.432C315.632 153.826 315.816 153.12 315.816 152.312C315.816 151.493 315.632 150.786 315.264 150.193C314.895 149.599 314.361 149.142 313.66 148.821C312.972 148.5 312.134 148.34 311.149 148.34H308.673V150.495ZM317.016 156.712C317.016 157.555 317.212 158.304 317.604 158.957C318.007 159.598 318.548 160.097 319.225 160.453C319.913 160.809 320.691 160.987 321.558 160.987C322.425 160.987 323.197 160.809 323.874 160.453C324.563 160.097 325.103 159.598 325.495 158.957C325.899 158.304 326.101 157.555 326.101 156.712C326.101 155.857 325.899 155.109 325.495 154.468C325.103 153.826 324.563 153.328 323.874 152.971C323.197 152.615 322.425 152.437 321.558 152.437C320.691 152.437 319.913 152.615 319.225 152.971C318.548 153.328 318.007 153.826 317.604 154.468C317.212 155.109 317.016 155.857 317.016 156.712ZM319.367 156.712C319.367 156.249 319.462 155.839 319.652 155.483C319.854 155.127 320.121 154.854 320.454 154.664C320.786 154.474 321.154 154.379 321.558 154.379C321.962 154.379 322.33 154.474 322.663 154.664C322.995 154.854 323.256 155.127 323.446 155.483C323.648 155.839 323.749 156.249 323.749 156.712C323.749 157.175 323.648 157.585 323.446 157.941C323.256 158.286 322.995 158.559 322.663 158.761C322.33 158.951 321.962 159.046 321.558 159.046C321.154 159.046 320.786 158.951 320.454 158.761C320.121 158.559 319.854 158.286 319.652 157.941C319.462 157.585 319.367 157.175 319.367 156.712ZM328.366 146.915V160.809H330.682V146.915H328.366ZM333.386 149.444C333.386 149.812 333.523 150.121 333.796 150.371C334.069 150.62 334.395 150.745 334.775 150.745C335.155 150.745 335.476 150.62 335.737 150.371C336.01 150.121 336.147 149.812 336.147 149.444C336.147 149.064 336.01 148.756 335.737 148.518C335.476 148.269 335.155 148.144 334.775 148.144C334.395 148.144 334.069 148.269 333.796 148.518C333.523 148.756 333.386 149.064 333.386 149.444ZM333.635 152.615V160.809H335.88V152.615H333.635ZM340.609 156.712C340.609 156.249 340.716 155.839 340.93 155.483C341.143 155.127 341.428 154.848 341.785 154.646C342.153 154.432 342.557 154.325 342.996 154.325C343.329 154.325 343.661 154.379 343.994 154.486C344.326 154.592 344.629 154.747 344.902 154.949C345.187 155.139 345.401 155.364 345.543 155.626V153.256C345.258 153.007 344.884 152.811 344.421 152.669C343.97 152.514 343.441 152.437 342.836 152.437C341.969 152.437 341.185 152.615 340.484 152.971C339.796 153.328 339.249 153.826 338.846 154.468C338.454 155.109 338.258 155.857 338.258 156.712C338.258 157.555 338.454 158.304 338.846 158.957C339.249 159.598 339.796 160.097 340.484 160.453C341.185 160.809 341.969 160.987 342.836 160.987C343.441 160.987 343.97 160.916 344.421 160.774C344.884 160.619 345.258 160.411 345.543 160.15V157.781C345.401 158.042 345.193 158.274 344.92 158.476C344.659 158.666 344.362 158.82 344.029 158.939C343.697 159.046 343.352 159.099 342.996 159.099C342.557 159.099 342.153 158.998 341.785 158.796C341.428 158.595 341.143 158.315 340.93 157.959C340.716 157.603 340.609 157.187 340.609 156.712ZM355.915 152.615H353.511L350.928 159.099L352.068 159.135L349.431 152.615H346.866L350.269 159.99L348.202 164.728H350.571L355.915 152.615Z" fill="#887D7D"/>
<rect x="204.874" y="188.752" width="228.591" height="7.14347" rx="3.57173" fill="#B9C2D0"/>
<rect x="204.874" y="175.483" width="228.591" height="7.14347" rx="3.57173" fill="#B9C2D0"/>
<rect x="204.874" y="202.016" width="169.228" height="6.68004" rx="3.34002" fill="#B9C2D0"/>
<g filter="url(#filter2_d_1421_20010)">
<path d="M248.712 305.878C248.496 304.851 249.597 304.052 250.51 304.574L286.898 325.39C287.823 325.919 287.67 327.295 286.651 327.608L268.989 333.032C268.716 333.115 268.481 333.292 268.325 333.531L259.485 347.124C258.893 348.035 257.493 347.773 257.271 346.71L248.712 305.878Z" fill="#333333"/>
<path d="M249.904 305.629L286.293 326.446L268.63 331.869C268.084 332.037 267.614 332.39 267.303 332.869L258.463 346.461L249.904 305.629Z" stroke="white" stroke-width="2.43479"/>
</g>
<path d="M464.967 238.686C465.27 238.384 465.63 238.144 466.027 237.98C466.423 237.816 466.848 237.731 467.277 237.731C467.706 237.731 468.131 237.816 468.527 237.98C468.923 238.144 469.283 238.384 469.587 238.686C469.89 238.989 470.131 239.349 470.295 239.744C470.459 240.14 470.543 240.564 470.543 240.992C470.543 241.42 470.459 241.844 470.295 242.24C470.131 242.636 469.89 242.995 469.587 243.298L453.995 258.861L447.642 260.591L449.375 254.25L464.967 238.686Z" stroke="white" stroke-width="2.30569" stroke-linecap="round" stroke-linejoin="round"/>
<line x1="449.896" y1="263.244" x2="470.306" y2="263.244" stroke="white" stroke-width="2.04099" stroke-linecap="round"/>
<path d="M203.18 119.309H210.732L210.263 117.269H203.629L203.18 119.309ZM206.915 112.737L209.181 118.044L209.242 118.636L211.181 122.983H213.896L206.915 107.9L199.935 122.983H202.65L204.63 118.514L204.67 117.983L206.915 112.737ZM217.374 120.065C217.374 119.765 217.442 119.514 217.578 119.309C217.728 119.105 217.946 118.949 218.231 118.84C218.517 118.718 218.891 118.656 219.354 118.656C219.885 118.656 220.388 118.724 220.864 118.86C221.34 118.997 221.789 119.214 222.211 119.514V118.391C222.089 118.241 221.878 118.078 221.579 117.901C221.279 117.711 220.898 117.547 220.436 117.411C219.987 117.275 219.449 117.207 218.823 117.207C217.653 117.207 216.748 117.479 216.109 118.024C215.469 118.554 215.149 119.275 215.149 120.187C215.149 120.827 215.299 121.371 215.598 121.82C215.898 122.269 216.299 122.609 216.803 122.84C217.306 123.072 217.85 123.187 218.435 123.187C218.98 123.187 219.51 123.092 220.027 122.902C220.558 122.698 220.993 122.398 221.334 122.004C221.687 121.595 221.864 121.092 221.864 120.493L221.538 119.269C221.538 119.731 221.422 120.139 221.191 120.493C220.973 120.833 220.68 121.092 220.313 121.269C219.959 121.446 219.565 121.534 219.129 121.534C218.789 121.534 218.483 121.48 218.211 121.371C217.952 121.262 217.748 121.099 217.599 120.881C217.449 120.65 217.374 120.378 217.374 120.065ZM216.68 116.044C216.816 115.949 217.02 115.833 217.292 115.697C217.578 115.547 217.912 115.425 218.293 115.33C218.687 115.221 219.102 115.166 219.538 115.166C219.823 115.166 220.089 115.193 220.334 115.248C220.578 115.302 220.789 115.391 220.966 115.513C221.143 115.636 221.279 115.792 221.374 115.983C221.483 116.173 221.538 116.418 221.538 116.717V122.983H223.701V116.289C223.701 115.663 223.531 115.139 223.191 114.717C222.851 114.282 222.381 113.948 221.783 113.717C221.198 113.486 220.517 113.37 219.742 113.37C218.871 113.37 218.095 113.493 217.415 113.738C216.748 113.983 216.204 114.234 215.782 114.493L216.68 116.044ZM242.366 115.615H244.836C245.734 115.615 246.523 115.486 247.204 115.228C247.897 114.969 248.435 114.595 248.816 114.105C249.21 113.602 249.408 112.996 249.408 112.288C249.408 111.472 249.21 110.799 248.816 110.268C248.435 109.737 247.897 109.343 247.204 109.084C246.523 108.826 245.734 108.696 244.836 108.696H240.529V122.983H245.081C246.088 122.983 246.972 122.84 247.734 122.555C248.51 122.255 249.115 121.8 249.551 121.187C250 120.575 250.224 119.799 250.224 118.86C250.224 118.18 250.088 117.595 249.816 117.105C249.544 116.615 249.163 116.214 248.673 115.901C248.197 115.588 247.653 115.357 247.04 115.207C246.428 115.057 245.775 114.983 245.081 114.983H242.366V116.309H244.938C245.346 116.309 245.72 116.357 246.061 116.452C246.401 116.534 246.693 116.677 246.938 116.881C247.197 117.071 247.394 117.316 247.53 117.615C247.68 117.901 247.755 118.235 247.755 118.616C247.755 119.146 247.632 119.588 247.387 119.942C247.142 120.296 246.809 120.561 246.387 120.738C245.965 120.915 245.482 121.004 244.938 121.004H242.938V110.676H244.673C245.339 110.676 245.884 110.839 246.305 111.166C246.727 111.492 246.938 111.955 246.938 112.554C246.938 112.948 246.843 113.289 246.652 113.574C246.462 113.846 246.197 114.057 245.856 114.207C245.516 114.357 245.122 114.432 244.673 114.432H242.366V115.615ZM266.577 109.86C266.577 110.227 266.713 110.547 266.985 110.819C267.271 111.077 267.597 111.207 267.965 111.207C268.359 111.207 268.686 111.077 268.945 110.819C269.217 110.547 269.353 110.227 269.353 109.86C269.353 109.479 269.217 109.159 268.945 108.9C268.686 108.642 268.359 108.513 267.965 108.513C267.597 108.513 267.271 108.642 266.985 108.9C266.713 109.159 266.577 109.479 266.577 109.86ZM266.883 113.595V122.983H269.047V113.595H266.883ZM286.237 108.696V118.289C286.237 119.078 286.359 119.786 286.604 120.412C286.849 121.024 287.203 121.548 287.665 121.983C288.141 122.419 288.699 122.752 289.339 122.983C289.978 123.215 290.679 123.33 291.441 123.33C292.203 123.33 292.904 123.215 293.543 122.983C294.183 122.752 294.734 122.419 295.196 121.983C295.659 121.548 296.013 121.024 296.258 120.412C296.516 119.786 296.646 119.078 296.646 118.289V108.696H294.237V118.187C294.237 119.071 293.999 119.786 293.523 120.33C293.047 120.861 292.353 121.126 291.441 121.126C290.516 121.126 289.815 120.861 289.339 120.33C288.876 119.786 288.645 119.071 288.645 118.187V108.696H286.237Z" fill="#9B9393"/>
<path d="M284.747 125.535H298.135V126.555H284.747V125.535Z" fill="#9B9393"/>
<g clip-path="url(#clip2_1421_20010)">
<path d="M320.803 116.036C321.132 116.476 321.551 116.839 322.033 117.102C322.514 117.365 323.047 117.522 323.594 117.561C324.141 117.6 324.691 117.521 325.205 117.33C325.719 117.138 326.186 116.838 326.574 116.45L328.87 114.153C329.567 113.432 329.953 112.465 329.944 111.462C329.935 110.458 329.533 109.498 328.823 108.789C328.114 108.079 327.154 107.677 326.151 107.668C325.147 107.659 324.181 108.045 323.459 108.742L322.142 110.051" stroke="#9B9393" stroke-width="2.04099" stroke-linecap="round" stroke-linejoin="round"/>
<path d="M323.864 114.505C323.535 114.066 323.116 113.702 322.635 113.439C322.153 113.176 321.62 113.02 321.073 112.98C320.526 112.941 319.976 113.02 319.462 113.212C318.948 113.404 318.481 113.704 318.093 114.092L315.797 116.388C315.1 117.11 314.714 118.076 314.723 119.08C314.732 120.083 315.134 121.043 315.844 121.753C316.553 122.462 317.513 122.865 318.517 122.873C319.52 122.882 320.487 122.496 321.208 121.799L322.517 120.49" stroke="#9B9393" stroke-width="2.04099" stroke-linecap="round" stroke-linejoin="round"/>
</g>
<path d="M394.617 107.616H382.712C381.772 107.616 381.011 108.377 381.011 109.317V121.223C381.011 122.162 381.772 122.923 382.712 122.923H394.617C395.557 122.923 396.318 122.162 396.318 121.223V109.317C396.318 108.377 395.557 107.616 394.617 107.616Z" stroke="#9B9393" stroke-width="1.53074" stroke-linecap="round" stroke-linejoin="round"/>
<path d="M385.688 113.57C386.393 113.57 386.964 112.999 386.964 112.295C386.964 111.59 386.393 111.019 385.688 111.019C384.984 111.019 384.413 111.59 384.413 112.295C384.413 112.999 384.984 113.57 385.688 113.57Z" stroke="#9B9393" stroke-width="1.53074" stroke-linecap="round" stroke-linejoin="round"/>
<path d="M396.32 117.824L392.068 113.572L382.713 122.927" stroke="#9B9393" stroke-width="1.53074" stroke-linecap="round" stroke-linejoin="round"/>
<line x1="351.809" y1="109.149" x2="364.175" y2="109.149" stroke="#887D7D" stroke-width="2.04099" stroke-linecap="round"/>
<line x1="345.806" y1="109.149" x2="347.366" y2="109.149" stroke="#887D7D" stroke-width="2.04099" stroke-linecap="round"/>
<line x1="345.806" y1="115.274" x2="347.366" y2="115.274" stroke="#887D7D" stroke-width="2.04099" stroke-linecap="round"/>
<line x1="345.806" y1="121.394" x2="347.366" y2="121.394" stroke="#887D7D" stroke-width="2.04099" stroke-linecap="round"/>
<line x1="351.809" y1="115.274" x2="364.175" y2="115.274" stroke="#887D7D" stroke-width="2.04099" stroke-linecap="round"/>
<line x1="351.809" y1="121.394" x2="364.175" y2="121.394" stroke="#887D7D" stroke-width="2.04099" stroke-linecap="round"/>
<line x1="413.023" y1="109.149" x2="425.389" y2="109.149" stroke="#887D7D" stroke-width="2.04099" stroke-linecap="round"/>
<line x1="413.02" y1="114.98" x2="419.979" y2="114.98" stroke="#887D7D" stroke-width="2.04099" stroke-linecap="round"/>
<line x1="413.023" y1="121.394" x2="425.389" y2="121.394" stroke="#887D7D" stroke-width="2.04099" stroke-linecap="round"/>
</g>
</g>
<defs>
<filter id="filter0_bdii_1421_20010" x="23.2672" y="257.166" width="270.346" height="93.8429" filterUnits="userSpaceOnUse" color-interpolation-filters="sRGB">
<feFlood flood-opacity="0" result="BackgroundImageFix"/>
<feGaussianBlur in="BackgroundImageFix" stdDeviation="8.65288"/>
<feComposite in2="SourceAlpha" operator="in" result="effect1_backgroundBlur_1421_20010"/>
<feColorMatrix in="SourceAlpha" type="matrix" values="0 0 0 0 0 0 0 0 0 0 0 0 0 0 0 0 0 0 127 0" result="hardAlpha"/>
<feOffset dy="4.08198"/>
<feGaussianBlur stdDeviation="7.14347"/>
<feComposite in2="hardAlpha" operator="out"/>
<feColorMatrix type="matrix" values="0 0 0 0 0 0 0 0 0 0 0 0 0 0 0 0 0 0 0.25 0"/>
<feBlend mode="normal" in2="effect1_backgroundBlur_1421_20010" result="effect2_dropShadow_1421_20010"/>
<feBlend mode="normal" in="SourceGraphic" in2="effect2_dropShadow_1421_20010" result="shape"/>
<feColorMatrix in="SourceAlpha" type="matrix" values="0 0 0 0 0 0 0 0 0 0 0 0 0 0 0 0 0 0 127 0" result="hardAlpha"/>
<feOffset dx="-9.94584" dy="9.94584"/>
<feGaussianBlur stdDeviation="4.97292"/>
<feComposite in2="hardAlpha" operator="arithmetic" k2="-1" k3="1"/>
<feColorMatrix type="matrix" values="0 0 0 0 1 0 0 0 0 1 0 0 0 0 1 0 0 0 0.1 0"/>
<feBlend mode="normal" in2="shape" result="effect3_innerShadow_1421_20010"/>
<feColorMatrix in="SourceAlpha" type="matrix" values="0 0 0 0 0 0 0 0 0 0 0 0 0 0 0 0 0 0 127 0" result="hardAlpha"/>
<feOffset dx="9.94584" dy="-9.94584"/>
<feGaussianBlur stdDeviation="4.97292"/>
<feComposite in2="hardAlpha" operator="arithmetic" k2="-1" k3="1"/>
<feColorMatrix type="matrix" values="0 0 0 0 0.670588 0 0 0 0 0.676549 0 0 0 0 0.691451 0 0 0 0.1 0"/>
<feBlend mode="normal" in2="effect3_innerShadow_1421_20010" result="effect4_innerShadow_1421_20010"/>
</filter>
<filter id="filter1_bdii_1421_20010" x="410.878" y="202.901" width="96.1982" height="96.1982" filterUnits="userSpaceOnUse" color-interpolation-filters="sRGB">
<feFlood flood-opacity="0" result="BackgroundImageFix"/>
<feGaussianBlur in="BackgroundImageFix" stdDeviation="13.8446"/>
<feComposite in2="SourceAlpha" operator="in" result="effect1_backgroundBlur_1421_20010"/>
<feColorMatrix in="SourceAlpha" type="matrix" values="0 0 0 0 0 0 0 0 0 0 0 0 0 0 0 0 0 0 127 0" result="hardAlpha"/>
<feOffset dy="4.08198"/>
<feGaussianBlur stdDeviation="5.10248"/>
<feComposite in2="hardAlpha" operator="out"/>
<feColorMatrix type="matrix" values="0 0 0 0 0 0 0 0 0 0 0 0 0 0 0 0 0 0 0.25 0"/>
<feBlend mode="normal" in2="effect1_backgroundBlur_1421_20010" result="effect2_dropShadow_1421_20010"/>
<feBlend mode="normal" in="SourceGraphic" in2="effect2_dropShadow_1421_20010" result="shape"/>
<feColorMatrix in="SourceAlpha" type="matrix" values="0 0 0 0 0 0 0 0 0 0 0 0 0 0 0 0 0 0 127 0" result="hardAlpha"/>
<feOffset dx="-15.9133" dy="15.9133"/>
<feGaussianBlur stdDeviation="7.95667"/>
<feComposite in2="hardAlpha" operator="arithmetic" k2="-1" k3="1"/>
<feColorMatrix type="matrix" values="0 0 0 0 1 0 0 0 0 1 0 0 0 0 1 0 0 0 0.1 0"/>
<feBlend mode="normal" in2="shape" result="effect3_innerShadow_1421_20010"/>
<feColorMatrix in="SourceAlpha" type="matrix" values="0 0 0 0 0 0 0 0 0 0 0 0 0 0 0 0 0 0 127 0" result="hardAlpha"/>
<feOffset dx="15.9133" dy="-15.9133"/>
<feGaussianBlur stdDeviation="7.95667"/>
<feComposite in2="hardAlpha" operator="arithmetic" k2="-1" k3="1"/>
<feColorMatrix type="matrix" values="0 0 0 0 0.670588 0 0 0 0 0.676549 0 0 0 0 0.691451 0 0 0 0.1 0"/>
<feBlend mode="normal" in2="effect3_innerShadow_1421_20010" result="effect4_innerShadow_1421_20010"/>
</filter>
<filter id="filter2_d_1421_20010" x="243.815" y="301.975" width="48.566" height="53.0082" filterUnits="userSpaceOnUse" color-interpolation-filters="sRGB">
<feFlood flood-opacity="0" result="BackgroundImageFix"/>
<feColorMatrix in="SourceAlpha" type="matrix" values="0 0 0 0 0 0 0 0 0 0 0 0 0 0 0 0 0 0 127 0" result="hardAlpha"/>
<feOffset dy="2.43479"/>
<feGaussianBlur stdDeviation="2.43479"/>
<feColorMatrix type="matrix" values="0 0 0 0 0 0 0 0 0 0 0 0 0 0 0 0 0 0 0.28 0"/>
<feBlend mode="normal" in2="BackgroundImageFix" result="effect1_dropShadow_1421_20010"/>
<feBlend mode="normal" in="SourceGraphic" in2="effect1_dropShadow_1421_20010" result="shape"/>
</filter>
<clipPath id="clip0_1421_20010">
<rect width="498" height="295" fill="white" transform="translate(26 52)"/>
</clipPath>
<clipPath id="clip1_1421_20010">
<rect width="556.17" height="300.026" fill="white" transform="translate(7 52)"/>
</clipPath>
<clipPath id="clip2_1421_20010">
<rect width="18.3689" height="18.3689" fill="white" transform="translate(313.148 106.087)"/>
</clipPath>
</defs>
</svg>
