<svg width="220" height="140" viewBox="0 0 220 140" fill="none" xmlns="http://www.w3.org/2000/svg">
<g clip-path="url(#clip0_2960_98139)">
<g filter="url(#filter0_d_2960_98139)">
<rect x="18.3333" y="8.62708" width="183.333" height="122.222" rx="3.87567" fill="white"/>
</g>
<ellipse cx="27.5" cy="17.7937" rx="3.05556" ry="3.05556" fill="#DF434C"/>
<ellipse cx="35.1388" cy="17.7937" rx="3.05556" ry="3.05556" fill="#E7B44C"/>
<ellipse cx="42.7777" cy="17.7937" rx="3.05556" ry="3.05556" fill="#6BD280"/>
<rect x="51.9444" y="14.7382" width="143.611" height="6.11111" rx="3.05556" fill="#E1E3E8"/>
<rect x="24.4444" y="26.9604" width="21.3889" height="3.05556" rx="1.52778" fill="#E1E3E8"/>
<rect x="24.4444" y="33.0715" width="21.3889" height="3.05556" rx="1.52778" fill="#E1E3E8"/>
<rect x="24.4444" y="39.1826" width="21.3889" height="3.05556" rx="1.52778" fill="#E1E3E8"/>
<rect x="51.9444" y="92.6549" width="91.6667" height="3.05556" rx="1.52778" fill="#E1E3E8"/>
<rect x="51.9445" y="98.766" width="61.1111" height="3.05556" rx="1.52778" fill="#E1E3E8"/>
<path d="M73.9855 34.2647L66.8106 27.0464C66.782 28.0489 66.7247 30.2946 66.7247 31.9445C66.7247 33.5944 67.985 34.1787 68.6152 34.2647H73.9855Z" fill="#696BEF"/>
<path d="M73.9855 34.2647H68.6152C67.985 34.1787 66.7247 33.5944 66.7247 31.9445C66.7247 30.2946 66.782 28.0489 66.8106 27.0464C63.0583 27.0177 55.2098 26.9604 53.8349 26.9604C52.46 26.9604 52.0017 28.1635 51.9444 28.765V52.3963C51.9444 53.8399 53.0902 54.3154 53.6631 54.3727H71.8806C73.5992 54.3727 74 53.1697 73.9855 52.5681V34.2647Z" fill="#696BEF" fill-opacity="0.12"/>
<rect x="55.8979" y="36.5844" width="8.59318" height="1.20305" rx="0.601523" fill="#8A8C8E"/>
<rect x="55.8979" y="39.6782" width="11.8586" height="1.20305" rx="0.601523" fill="#8A8C8E"/>
<g filter="url(#filter1_f_2960_98139)">
<rect x="67.0696" y="34.522" width="6.35896" height="1.03118" fill="#090909" fill-opacity="0.2"/>
</g>
<g filter="url(#filter2_f_2960_98139)">
<rect x="66.0211" y="33.6631" width="2.23862" height="1.03118" transform="rotate(40.6074 66.0211 33.6631)" fill="#090909" fill-opacity="0.2"/>
</g>
<g filter="url(#filter3_f_2960_98139)">
<rect x="66.2097" y="27.4755" width="5.49964" height="0.687454" transform="rotate(90 66.2097 27.4755)" fill="#090909" fill-opacity="0.2"/>
</g>
<path d="M100.722 34.2647L93.5467 27.0464C93.5181 28.0489 93.4608 30.2946 93.4608 31.9445C93.4608 33.5944 94.7211 34.1787 95.3513 34.2647H100.722Z" fill="#696BEF"/>
<path d="M100.722 34.2647H95.3513C94.7211 34.1787 93.4608 33.5944 93.4608 31.9445C93.4608 30.2946 93.5181 28.0489 93.5467 27.0464C89.7944 27.0177 81.946 26.9604 80.571 26.9604C79.1961 26.9604 78.7378 28.1635 78.6805 28.765V52.3963C78.6805 53.8399 79.8263 54.3154 80.3992 54.3727H98.6167C100.335 54.3727 100.736 53.1697 100.722 52.5681V34.2647Z" fill="#696BEF" fill-opacity="0.12"/>
<rect x="82.634" y="36.5844" width="8.59318" height="1.20305" rx="0.601523" fill="#8A8C8E"/>
<rect x="82.634" y="39.6782" width="11.8586" height="1.20305" rx="0.601523" fill="#8A8C8E"/>
<g filter="url(#filter4_f_2960_98139)">
<rect x="93.8057" y="34.522" width="6.35896" height="1.03118" fill="#090909" fill-opacity="0.2"/>
</g>
<g filter="url(#filter5_f_2960_98139)">
<rect x="92.7572" y="33.6631" width="2.23862" height="1.03118" transform="rotate(40.6074 92.7572 33.6631)" fill="#090909" fill-opacity="0.2"/>
</g>
<g filter="url(#filter6_f_2960_98139)">
<rect x="92.9457" y="27.4757" width="5.49964" height="0.687454" transform="rotate(90 92.9457 27.4757)" fill="#090909" fill-opacity="0.2"/>
</g>
<path d="M127.458 34.2647L120.283 27.0464C120.254 28.0489 120.197 30.2946 120.197 31.9445C120.197 33.5944 121.457 34.1787 122.087 34.2647H127.458Z" fill="#696BEF"/>
<path d="M127.458 34.2647H122.087C121.457 34.1787 120.197 33.5944 120.197 31.9445C120.197 30.2946 120.254 28.0489 120.283 27.0464C116.531 27.0177 108.682 26.9604 107.307 26.9604C105.932 26.9604 105.474 28.1635 105.417 28.765V52.3963C105.417 53.8399 106.562 54.3154 107.135 54.3727H125.353C127.072 54.3727 127.472 53.1697 127.458 52.5681V34.2647Z" fill="#696BEF" fill-opacity="0.12"/>
<rect x="109.37" y="36.5846" width="8.59318" height="1.20305" rx="0.601523" fill="#8A8C8E"/>
<rect x="109.37" y="39.6786" width="11.8586" height="1.20305" rx="0.601523" fill="#8A8C8E"/>
<g filter="url(#filter7_f_2960_98139)">
<rect x="120.542" y="34.5226" width="6.35896" height="1.03118" fill="#090909" fill-opacity="0.2"/>
</g>
<g filter="url(#filter8_f_2960_98139)">
<rect x="119.493" y="33.6631" width="2.23862" height="1.03118" transform="rotate(40.6074 119.493 33.6631)" fill="#090909" fill-opacity="0.2"/>
</g>
<g filter="url(#filter9_f_2960_98139)">
<rect x="119.682" y="27.4758" width="5.49964" height="0.687454" transform="rotate(90 119.682 27.4758)" fill="#090909" fill-opacity="0.2"/>
</g>
<path d="M154.194 34.2647L147.019 27.0464C146.99 28.0489 146.933 30.2946 146.933 31.9445C146.933 33.5944 148.193 34.1787 148.824 34.2647H154.194Z" fill="#696BEF"/>
<path d="M154.194 34.2647H148.824C148.193 34.1787 146.933 33.5944 146.933 31.9445C146.933 30.2946 146.99 28.0489 147.019 27.0464C143.267 27.0177 135.418 26.9604 134.043 26.9604C132.668 26.9604 132.21 28.1635 132.153 28.765V52.3963C132.153 53.8399 133.299 54.3154 133.871 54.3727H152.089C153.808 54.3727 154.208 53.1697 154.194 52.5681V34.2647Z" fill="#696BEF" fill-opacity="0.12"/>
<rect x="136.106" y="36.5844" width="8.59318" height="1.20305" rx="0.601523" fill="#8A8C8E"/>
<rect x="136.106" y="39.6782" width="11.8586" height="1.20305" rx="0.601523" fill="#8A8C8E"/>
<g filter="url(#filter10_f_2960_98139)">
<rect x="147.278" y="34.522" width="6.35896" height="1.03118" fill="#090909" fill-opacity="0.2"/>
</g>
<g filter="url(#filter11_f_2960_98139)">
<rect x="146.23" y="33.6631" width="2.23862" height="1.03118" transform="rotate(40.6074 146.23 33.6631)" fill="#090909" fill-opacity="0.2"/>
</g>
<g filter="url(#filter12_f_2960_98139)">
<rect x="146.418" y="27.4757" width="5.49964" height="0.687454" transform="rotate(90 146.418 27.4757)" fill="#090909" fill-opacity="0.2"/>
</g>
<path d="M73.9855 66.3479L66.8107 59.1296C66.782 60.1322 66.7247 62.3779 66.7247 64.0277C66.7247 65.6776 67.9851 66.262 68.6152 66.3479H73.9855Z" fill="#696BEF"/>
<path d="M73.9855 66.3479H68.6152C67.9851 66.262 66.7247 65.6776 66.7247 64.0277C66.7247 62.3779 66.782 60.1322 66.8107 59.1296C63.0583 59.101 55.2099 59.0437 53.835 59.0437C52.46 59.0437 52.0017 60.2467 51.9445 60.8483V84.4795C51.9445 85.9232 53.0902 86.3987 53.6631 86.4559H71.8806C73.5993 86.4559 74 85.2529 73.9855 84.6514V66.3479Z" fill="#696BEF" fill-opacity="0.12"/>
<rect x="55.898" y="68.668" width="8.59318" height="1.20305" rx="0.601523" fill="#8A8C8E"/>
<rect x="55.898" y="71.7618" width="11.8586" height="1.20305" rx="0.601523" fill="#8A8C8E"/>
<g filter="url(#filter13_f_2960_98139)">
<rect x="67.0696" y="66.6052" width="6.35896" height="1.03118" fill="#090909" fill-opacity="0.2"/>
</g>
<g filter="url(#filter14_f_2960_98139)">
<rect x="66.0211" y="65.7465" width="2.23862" height="1.03118" transform="rotate(40.6074 66.0211 65.7465)" fill="#090909" fill-opacity="0.2"/>
</g>
<g filter="url(#filter15_f_2960_98139)">
<rect x="66.2097" y="59.559" width="5.49964" height="0.687454" transform="rotate(90 66.2097 59.559)" fill="#090909" fill-opacity="0.2"/>
</g>
<path d="M100.722 66.3479L93.5467 59.1296C93.5181 60.1322 93.4608 62.3779 93.4608 64.0277C93.4608 65.6776 94.7211 66.262 95.3513 66.3479H100.722Z" fill="#696BEF"/>
<path d="M100.722 66.3479H95.3513C94.7211 66.262 93.4608 65.6776 93.4608 64.0277C93.4608 62.3779 93.5181 60.1322 93.5467 59.1296C89.7944 59.101 81.946 59.0437 80.571 59.0437C79.1961 59.0437 78.7378 60.2467 78.6805 60.8483V84.4795C78.6805 85.9232 79.8263 86.3987 80.3992 86.4559H98.6167C100.335 86.4559 100.736 85.2529 100.722 84.6514V66.3479Z" fill="#696BEF" fill-opacity="0.12"/>
<rect x="82.634" y="68.6676" width="8.59318" height="1.20305" rx="0.601523" fill="#8A8C8E"/>
<rect x="82.634" y="71.7617" width="11.8586" height="1.20305" rx="0.601523" fill="#8A8C8E"/>
<g filter="url(#filter16_f_2960_98139)">
<rect x="93.8057" y="66.6052" width="6.35896" height="1.03118" fill="#090909" fill-opacity="0.2"/>
</g>
<g filter="url(#filter17_f_2960_98139)">
<rect x="92.7572" y="65.7463" width="2.23862" height="1.03118" transform="rotate(40.6074 92.7572 65.7463)" fill="#090909" fill-opacity="0.2"/>
</g>
<g filter="url(#filter18_f_2960_98139)">
<rect x="92.9457" y="59.5591" width="5.49964" height="0.687454" transform="rotate(90 92.9457 59.5591)" fill="#090909" fill-opacity="0.2"/>
</g>
<path d="M127.458 66.3479L120.283 59.1296C120.254 60.1322 120.197 62.3779 120.197 64.0277C120.197 65.6776 121.457 66.262 122.087 66.3479H127.458Z" fill="#696BEF"/>
<path d="M127.458 66.3479H122.087C121.457 66.262 120.197 65.6776 120.197 64.0277C120.197 62.3779 120.254 60.1322 120.283 59.1296C116.531 59.101 108.682 59.0437 107.307 59.0437C105.932 59.0437 105.474 60.2467 105.417 60.8483V84.4795C105.417 85.9232 106.562 86.3987 107.135 86.4559H125.353C127.072 86.4559 127.472 85.2529 127.458 84.6514V66.3479Z" fill="#696BEF" fill-opacity="0.12"/>
<rect x="109.37" y="68.6676" width="8.59318" height="1.20305" rx="0.601523" fill="#8A8C8E"/>
<rect x="109.37" y="71.7617" width="11.8586" height="1.20305" rx="0.601523" fill="#8A8C8E"/>
<g filter="url(#filter19_f_2960_98139)">
<rect x="120.542" y="66.6053" width="6.35896" height="1.03118" fill="#090909" fill-opacity="0.2"/>
</g>
<g filter="url(#filter20_f_2960_98139)">
<rect x="119.493" y="65.7463" width="2.23862" height="1.03118" transform="rotate(40.6074 119.493 65.7463)" fill="#090909" fill-opacity="0.2"/>
</g>
<g filter="url(#filter21_f_2960_98139)">
<rect x="119.682" y="59.5591" width="5.49964" height="0.687454" transform="rotate(90 119.682 59.5591)" fill="#090909" fill-opacity="0.2"/>
</g>
<g filter="url(#filter22_d_2960_98139)">
<path d="M17.8335 35.1885L7.05807 39.6919C6.71222 39.8361 6.41732 40.0768 6.21012 40.384C6.00291 40.6912 5.89256 41.0513 5.89279 41.4195V45.7541C5.89334 49.7678 7.10909 53.6912 9.38627 57.0281C11.6635 60.365 14.8998 62.9654 18.6859 64.5005C22.871 63.2503 26.1241 59.8967 28.033 57.0477C30.2455 53.7511 31.2896 49.9102 31.2773 45.9651V41.4195C31.2775 41.0513 31.1672 40.6912 30.96 40.384C30.7528 40.0768 30.4579 39.8361 30.112 39.6919L19.3479 35.1885C19.1086 35.088 18.851 35.0363 18.5907 35.0363C18.3304 35.0363 18.0728 35.088 17.8335 35.1885Z" fill="#696BEF"/>
<path d="M22.2115 51.808H21.1883V46.1271C21.1702 45.4963 20.912 44.8975 20.4682 44.4578C20.0245 44.0181 19.4303 43.7722 18.8118 43.7722C18.1932 43.7722 17.599 44.0181 17.1553 44.4578C16.7116 44.8975 16.4533 45.4963 16.4353 46.1271V51.808H15.412V46.1271C15.4337 45.2218 15.8013 44.361 16.4366 43.7286C17.0718 43.0961 17.9242 42.7421 18.8118 42.7421C19.6994 42.7421 20.5518 43.0961 21.187 43.7286C21.8222 44.361 22.1899 45.2218 22.2115 46.1271V51.808Z" fill="#F5F5F5"/>
<path d="M22.6309 47.9302H14.9727C14.2452 47.9302 13.6555 48.4634 13.6555 49.1211V54.0324C13.6555 54.6902 14.2452 55.2234 14.9727 55.2234H22.6309C23.3583 55.2234 23.948 54.6902 23.948 54.0324V49.1211C23.948 48.4634 23.3583 47.9302 22.6309 47.9302Z" fill="white"/>
<path d="M19.6191 51.7398C19.7229 51.6462 19.8052 51.535 19.8612 51.4126C19.9172 51.2902 19.9459 51.159 19.9456 51.0265C19.9469 50.8355 19.8892 50.648 19.779 50.4851C19.6687 50.3222 19.5103 50.1904 19.3217 50.1045C19.133 50.0187 18.9216 49.9822 18.7112 49.9992C18.5008 50.0162 18.2999 50.086 18.131 50.2007C17.9622 50.3155 17.8322 50.4706 17.7556 50.6485C17.679 50.8265 17.659 51.0203 17.6978 51.208C17.7365 51.3958 17.8325 51.57 17.9749 51.711C18.1173 51.8521 18.3005 51.9543 18.5037 52.0063L18.2611 52.9779H19.338L19.1113 52.0063C19.2995 51.9577 19.4705 51.8659 19.6078 51.7398" fill="#696BEF" fill-opacity="0.12"/>
</g>
<rect x="149.286" y="100.512" width="68.3571" height="19.8571" rx="9.92857" fill="#696BEF"/>
<g clip-path="url(#clip1_2960_98139)">
<path d="M169.264 109.478C168.93 107.784 167.442 106.512 165.655 106.512C164.236 106.512 163.003 107.318 162.389 108.496C160.911 108.653 159.762 109.906 159.762 111.423C159.762 113.048 161.083 114.369 162.708 114.369H169.092C170.448 114.369 171.548 113.269 171.548 111.914C171.548 110.618 170.541 109.567 169.264 109.478ZM169.092 113.387H162.708C161.623 113.387 160.744 112.508 160.744 111.423C160.744 110.416 161.495 109.577 162.492 109.473L163.018 109.419L163.263 108.953C163.73 108.054 164.643 107.494 165.655 107.494C166.941 107.494 168.051 108.408 168.302 109.67L168.449 110.407L169.2 110.461C169.966 110.51 170.565 111.153 170.565 111.914C170.565 112.724 169.902 113.387 169.092 113.387ZM163.69 110.932H164.943V112.405H166.367V110.932H167.619L165.655 108.968L163.69 110.932Z" fill="white"/>
</g>
<path d="M177.758 114.551C177.251 114.551 176.799 114.444 176.402 114.23C176.011 114.016 175.702 113.723 175.476 113.35C175.256 112.977 175.146 112.553 175.146 112.076V107.612H176.228V112.03C176.228 112.33 176.292 112.595 176.42 112.828C176.555 113.06 176.735 113.24 176.961 113.368C177.193 113.497 177.459 113.561 177.758 113.561C178.064 113.561 178.33 113.497 178.556 113.368C178.788 113.24 178.968 113.06 179.097 112.828C179.231 112.595 179.298 112.33 179.298 112.03V107.612H180.371V112.076C180.371 112.553 180.261 112.977 180.041 113.35C179.821 113.723 179.512 114.016 179.115 114.23C178.724 114.444 178.272 114.551 177.758 114.551ZM181.626 116.274V109.482H182.616V110.508L182.497 110.27C182.68 109.989 182.925 109.769 183.23 109.61C183.536 109.451 183.884 109.372 184.275 109.372C184.746 109.372 185.167 109.485 185.54 109.711C185.919 109.937 186.215 110.246 186.429 110.637C186.649 111.028 186.759 111.468 186.759 111.957C186.759 112.446 186.649 112.886 186.429 113.277C186.215 113.668 185.922 113.98 185.549 114.212C185.177 114.438 184.752 114.551 184.275 114.551C183.89 114.551 183.539 114.471 183.221 114.313C182.909 114.154 182.668 113.925 182.497 113.625L182.662 113.433V116.274H181.626ZM184.174 113.588C184.468 113.588 184.727 113.518 184.954 113.378C185.18 113.237 185.357 113.045 185.485 112.8C185.62 112.55 185.687 112.268 185.687 111.957C185.687 111.645 185.62 111.367 185.485 111.123C185.357 110.878 185.18 110.686 184.954 110.545C184.727 110.405 184.468 110.334 184.174 110.334C183.887 110.334 183.627 110.405 183.395 110.545C183.169 110.686 182.989 110.878 182.854 111.123C182.726 111.367 182.662 111.645 182.662 111.957C182.662 112.268 182.726 112.55 182.854 112.8C182.989 113.045 183.169 113.237 183.395 113.378C183.627 113.518 183.887 113.588 184.174 113.588ZM187.767 114.441V107.502H188.803V114.441H187.767ZM192.406 114.551C191.93 114.551 191.493 114.438 191.096 114.212C190.704 113.986 190.393 113.677 190.161 113.286C189.928 112.895 189.812 112.452 189.812 111.957C189.812 111.456 189.928 111.013 190.161 110.628C190.393 110.236 190.704 109.931 191.096 109.711C191.487 109.485 191.924 109.372 192.406 109.372C192.895 109.372 193.332 109.485 193.717 109.711C194.108 109.931 194.417 110.236 194.643 110.628C194.875 111.013 194.991 111.456 194.991 111.957C194.991 112.458 194.875 112.904 194.643 113.295C194.411 113.686 194.099 113.995 193.708 114.221C193.317 114.441 192.883 114.551 192.406 114.551ZM192.406 113.588C192.7 113.588 192.959 113.518 193.186 113.378C193.412 113.237 193.589 113.045 193.717 112.8C193.852 112.55 193.919 112.268 193.919 111.957C193.919 111.645 193.852 111.367 193.717 111.123C193.589 110.878 193.412 110.686 193.186 110.545C192.959 110.405 192.7 110.334 192.406 110.334C192.119 110.334 191.859 110.405 191.627 110.545C191.401 110.686 191.221 110.878 191.086 111.123C190.958 111.367 190.894 111.645 190.894 111.957C190.894 112.268 190.958 112.55 191.086 112.8C191.221 113.045 191.401 113.237 191.627 113.378C191.859 113.518 192.119 113.588 192.406 113.588ZM197.488 114.551C197.152 114.551 196.855 114.493 196.598 114.377C196.348 114.255 196.152 114.09 196.012 113.882C195.871 113.668 195.801 113.417 195.801 113.13C195.801 112.861 195.859 112.62 195.975 112.406C196.097 112.192 196.284 112.012 196.534 111.865C196.785 111.718 197.1 111.615 197.478 111.553L199.202 111.269V112.085L197.68 112.351C197.405 112.4 197.203 112.488 197.075 112.617C196.947 112.739 196.883 112.898 196.883 113.093C196.883 113.283 196.953 113.439 197.093 113.561C197.24 113.677 197.427 113.735 197.653 113.735C197.934 113.735 198.178 113.674 198.386 113.552C198.6 113.43 198.765 113.268 198.881 113.066C198.997 112.858 199.055 112.629 199.055 112.378V111.104C199.055 110.86 198.963 110.661 198.78 110.508C198.603 110.35 198.365 110.27 198.065 110.27C197.79 110.27 197.549 110.343 197.341 110.49C197.139 110.631 196.99 110.814 196.892 111.04L196.03 110.609C196.122 110.365 196.272 110.151 196.479 109.968C196.687 109.778 196.928 109.631 197.203 109.528C197.485 109.424 197.781 109.372 198.093 109.372C198.484 109.372 198.829 109.445 199.128 109.592C199.434 109.738 199.669 109.943 199.834 110.206C200.005 110.463 200.091 110.762 200.091 111.104V114.441H199.101V113.543L199.312 113.57C199.196 113.772 199.046 113.946 198.863 114.093C198.685 114.239 198.481 114.352 198.248 114.432C198.022 114.511 197.769 114.551 197.488 114.551ZM203.594 114.551C203.117 114.551 202.689 114.438 202.31 114.212C201.938 113.98 201.641 113.668 201.421 113.277C201.207 112.886 201.1 112.446 201.1 111.957C201.1 111.468 201.21 111.028 201.43 110.637C201.65 110.246 201.947 109.937 202.32 109.711C202.692 109.485 203.114 109.372 203.585 109.372C203.982 109.372 204.333 109.451 204.639 109.61C204.944 109.769 205.186 109.989 205.363 110.27L205.207 110.508V107.502H206.234V114.441H205.253V113.433L205.372 113.625C205.201 113.925 204.957 114.154 204.639 114.313C204.321 114.471 203.973 114.551 203.594 114.551ZM203.695 113.588C203.982 113.588 204.239 113.518 204.465 113.378C204.697 113.237 204.877 113.045 205.005 112.8C205.14 112.55 205.207 112.268 205.207 111.957C205.207 111.645 205.14 111.367 205.005 111.123C204.877 110.878 204.697 110.686 204.465 110.545C204.239 110.405 203.982 110.334 203.695 110.334C203.407 110.334 203.148 110.405 202.915 110.545C202.683 110.686 202.503 110.878 202.375 111.123C202.246 111.367 202.182 111.645 202.182 111.957C202.182 112.268 202.246 112.55 202.375 112.8C202.503 113.045 202.68 113.237 202.906 113.378C203.139 113.518 203.401 113.588 203.695 113.588Z" fill="white"/>
</g>
<defs>
<filter id="filter0_d_2960_98139" x="8.66551" y="1.37622" width="202.669" height="141.558" filterUnits="userSpaceOnUse" color-interpolation-filters="sRGB">
<feFlood flood-opacity="0" result="BackgroundImageFix"/>
<feColorMatrix in="SourceAlpha" type="matrix" values="0 0 0 0 0 0 0 0 0 0 0 0 0 0 0 0 0 0 127 0" result="hardAlpha"/>
<feOffset dy="2.41695"/>
<feGaussianBlur stdDeviation="4.8339"/>
<feComposite in2="hardAlpha" operator="out"/>
<feColorMatrix type="matrix" values="0 0 0 0 0 0 0 0 0 0 0 0 0 0 0 0 0 0 0.25 0"/>
<feBlend mode="normal" in2="BackgroundImageFix" result="effect1_dropShadow_2960_98139"/>
<feBlend mode="normal" in="SourceGraphic" in2="effect1_dropShadow_2960_98139" result="shape"/>
</filter>
<filter id="filter1_f_2960_98139" x="58.9953" y="26.4477" width="22.5076" height="17.1798" filterUnits="userSpaceOnUse" color-interpolation-filters="sRGB">
<feFlood flood-opacity="0" result="BackgroundImageFix"/>
<feBlend mode="normal" in="SourceGraphic" in2="BackgroundImageFix" result="shape"/>
<feGaussianBlur stdDeviation="4.03716" result="effect1_foregroundBlur_2960_98139"/>
</filter>
<filter id="filter2_f_2960_98139" x="57.2756" y="25.5888" width="18.5193" height="18.3885" filterUnits="userSpaceOnUse" color-interpolation-filters="sRGB">
<feFlood flood-opacity="0" result="BackgroundImageFix"/>
<feBlend mode="normal" in="SourceGraphic" in2="BackgroundImageFix" result="shape"/>
<feGaussianBlur stdDeviation="4.03716" result="effect1_foregroundBlur_2960_98139"/>
</filter>
<filter id="filter3_f_2960_98139" x="57.4479" y="19.4011" width="16.8361" height="21.6483" filterUnits="userSpaceOnUse" color-interpolation-filters="sRGB">
<feFlood flood-opacity="0" result="BackgroundImageFix"/>
<feBlend mode="normal" in="SourceGraphic" in2="BackgroundImageFix" result="shape"/>
<feGaussianBlur stdDeviation="4.03716" result="effect1_foregroundBlur_2960_98139"/>
</filter>
<filter id="filter4_f_2960_98139" x="85.7314" y="26.4477" width="22.5076" height="17.1798" filterUnits="userSpaceOnUse" color-interpolation-filters="sRGB">
<feFlood flood-opacity="0" result="BackgroundImageFix"/>
<feBlend mode="normal" in="SourceGraphic" in2="BackgroundImageFix" result="shape"/>
<feGaussianBlur stdDeviation="4.03716" result="effect1_foregroundBlur_2960_98139"/>
</filter>
<filter id="filter5_f_2960_98139" x="84.0117" y="25.5888" width="18.5193" height="18.3885" filterUnits="userSpaceOnUse" color-interpolation-filters="sRGB">
<feFlood flood-opacity="0" result="BackgroundImageFix"/>
<feBlend mode="normal" in="SourceGraphic" in2="BackgroundImageFix" result="shape"/>
<feGaussianBlur stdDeviation="4.03716" result="effect1_foregroundBlur_2960_98139"/>
</filter>
<filter id="filter6_f_2960_98139" x="84.1839" y="19.4014" width="16.8361" height="21.6483" filterUnits="userSpaceOnUse" color-interpolation-filters="sRGB">
<feFlood flood-opacity="0" result="BackgroundImageFix"/>
<feBlend mode="normal" in="SourceGraphic" in2="BackgroundImageFix" result="shape"/>
<feGaussianBlur stdDeviation="4.03716" result="effect1_foregroundBlur_2960_98139"/>
</filter>
<filter id="filter7_f_2960_98139" x="112.467" y="26.4483" width="22.5076" height="17.1798" filterUnits="userSpaceOnUse" color-interpolation-filters="sRGB">
<feFlood flood-opacity="0" result="BackgroundImageFix"/>
<feBlend mode="normal" in="SourceGraphic" in2="BackgroundImageFix" result="shape"/>
<feGaussianBlur stdDeviation="4.03716" result="effect1_foregroundBlur_2960_98139"/>
</filter>
<filter id="filter8_f_2960_98139" x="110.748" y="25.5888" width="18.5193" height="18.3885" filterUnits="userSpaceOnUse" color-interpolation-filters="sRGB">
<feFlood flood-opacity="0" result="BackgroundImageFix"/>
<feBlend mode="normal" in="SourceGraphic" in2="BackgroundImageFix" result="shape"/>
<feGaussianBlur stdDeviation="4.03716" result="effect1_foregroundBlur_2960_98139"/>
</filter>
<filter id="filter9_f_2960_98139" x="110.92" y="19.4015" width="16.8361" height="21.6483" filterUnits="userSpaceOnUse" color-interpolation-filters="sRGB">
<feFlood flood-opacity="0" result="BackgroundImageFix"/>
<feBlend mode="normal" in="SourceGraphic" in2="BackgroundImageFix" result="shape"/>
<feGaussianBlur stdDeviation="4.03716" result="effect1_foregroundBlur_2960_98139"/>
</filter>
<filter id="filter10_f_2960_98139" x="139.204" y="26.4477" width="22.5076" height="17.1798" filterUnits="userSpaceOnUse" color-interpolation-filters="sRGB">
<feFlood flood-opacity="0" result="BackgroundImageFix"/>
<feBlend mode="normal" in="SourceGraphic" in2="BackgroundImageFix" result="shape"/>
<feGaussianBlur stdDeviation="4.03716" result="effect1_foregroundBlur_2960_98139"/>
</filter>
<filter id="filter11_f_2960_98139" x="137.484" y="25.5888" width="18.5193" height="18.3885" filterUnits="userSpaceOnUse" color-interpolation-filters="sRGB">
<feFlood flood-opacity="0" result="BackgroundImageFix"/>
<feBlend mode="normal" in="SourceGraphic" in2="BackgroundImageFix" result="shape"/>
<feGaussianBlur stdDeviation="4.03716" result="effect1_foregroundBlur_2960_98139"/>
</filter>
<filter id="filter12_f_2960_98139" x="137.656" y="19.4014" width="16.8361" height="21.6483" filterUnits="userSpaceOnUse" color-interpolation-filters="sRGB">
<feFlood flood-opacity="0" result="BackgroundImageFix"/>
<feBlend mode="normal" in="SourceGraphic" in2="BackgroundImageFix" result="shape"/>
<feGaussianBlur stdDeviation="4.03716" result="effect1_foregroundBlur_2960_98139"/>
</filter>
<filter id="filter13_f_2960_98139" x="58.9953" y="58.5309" width="22.5076" height="17.1798" filterUnits="userSpaceOnUse" color-interpolation-filters="sRGB">
<feFlood flood-opacity="0" result="BackgroundImageFix"/>
<feBlend mode="normal" in="SourceGraphic" in2="BackgroundImageFix" result="shape"/>
<feGaussianBlur stdDeviation="4.03716" result="effect1_foregroundBlur_2960_98139"/>
</filter>
<filter id="filter14_f_2960_98139" x="57.2757" y="57.6721" width="18.5193" height="18.3885" filterUnits="userSpaceOnUse" color-interpolation-filters="sRGB">
<feFlood flood-opacity="0" result="BackgroundImageFix"/>
<feBlend mode="normal" in="SourceGraphic" in2="BackgroundImageFix" result="shape"/>
<feGaussianBlur stdDeviation="4.03716" result="effect1_foregroundBlur_2960_98139"/>
</filter>
<filter id="filter15_f_2960_98139" x="57.4479" y="51.4846" width="16.8361" height="21.6483" filterUnits="userSpaceOnUse" color-interpolation-filters="sRGB">
<feFlood flood-opacity="0" result="BackgroundImageFix"/>
<feBlend mode="normal" in="SourceGraphic" in2="BackgroundImageFix" result="shape"/>
<feGaussianBlur stdDeviation="4.03716" result="effect1_foregroundBlur_2960_98139"/>
</filter>
<filter id="filter16_f_2960_98139" x="85.7314" y="58.5309" width="22.5076" height="17.1798" filterUnits="userSpaceOnUse" color-interpolation-filters="sRGB">
<feFlood flood-opacity="0" result="BackgroundImageFix"/>
<feBlend mode="normal" in="SourceGraphic" in2="BackgroundImageFix" result="shape"/>
<feGaussianBlur stdDeviation="4.03716" result="effect1_foregroundBlur_2960_98139"/>
</filter>
<filter id="filter17_f_2960_98139" x="84.0117" y="57.672" width="18.5193" height="18.3885" filterUnits="userSpaceOnUse" color-interpolation-filters="sRGB">
<feFlood flood-opacity="0" result="BackgroundImageFix"/>
<feBlend mode="normal" in="SourceGraphic" in2="BackgroundImageFix" result="shape"/>
<feGaussianBlur stdDeviation="4.03716" result="effect1_foregroundBlur_2960_98139"/>
</filter>
<filter id="filter18_f_2960_98139" x="84.1839" y="51.4848" width="16.8361" height="21.6483" filterUnits="userSpaceOnUse" color-interpolation-filters="sRGB">
<feFlood flood-opacity="0" result="BackgroundImageFix"/>
<feBlend mode="normal" in="SourceGraphic" in2="BackgroundImageFix" result="shape"/>
<feGaussianBlur stdDeviation="4.03716" result="effect1_foregroundBlur_2960_98139"/>
</filter>
<filter id="filter19_f_2960_98139" x="112.467" y="58.531" width="22.5076" height="17.1798" filterUnits="userSpaceOnUse" color-interpolation-filters="sRGB">
<feFlood flood-opacity="0" result="BackgroundImageFix"/>
<feBlend mode="normal" in="SourceGraphic" in2="BackgroundImageFix" result="shape"/>
<feGaussianBlur stdDeviation="4.03716" result="effect1_foregroundBlur_2960_98139"/>
</filter>
<filter id="filter20_f_2960_98139" x="110.748" y="57.672" width="18.5193" height="18.3885" filterUnits="userSpaceOnUse" color-interpolation-filters="sRGB">
<feFlood flood-opacity="0" result="BackgroundImageFix"/>
<feBlend mode="normal" in="SourceGraphic" in2="BackgroundImageFix" result="shape"/>
<feGaussianBlur stdDeviation="4.03716" result="effect1_foregroundBlur_2960_98139"/>
</filter>
<filter id="filter21_f_2960_98139" x="110.92" y="51.4848" width="16.8361" height="21.6483" filterUnits="userSpaceOnUse" color-interpolation-filters="sRGB">
<feFlood flood-opacity="0" result="BackgroundImageFix"/>
<feBlend mode="normal" in="SourceGraphic" in2="BackgroundImageFix" result="shape"/>
<feGaussianBlur stdDeviation="4.03716" result="effect1_foregroundBlur_2960_98139"/>
</filter>
<filter id="filter22_d_2960_98139" x="2.24702" y="32.2318" width="34.3588" height="38.4385" filterUnits="userSpaceOnUse" color-interpolation-filters="sRGB">
<feFlood flood-opacity="0" result="BackgroundImageFix"/>
<feColorMatrix in="SourceAlpha" type="matrix" values="0 0 0 0 0 0 0 0 0 0 0 0 0 0 0 0 0 0 127 0" result="hardAlpha"/>
<feOffset dx="0.841333" dy="1.68267"/>
<feGaussianBlur stdDeviation="2.24355"/>
<feComposite in2="hardAlpha" operator="out"/>
<feColorMatrix type="matrix" values="0 0 0 0 0 0 0 0 0 0 0 0 0 0 0 0 0 0 0.25 0"/>
<feBlend mode="normal" in2="BackgroundImageFix" result="effect1_dropShadow_2960_98139"/>
<feBlend mode="normal" in="SourceGraphic" in2="effect1_dropShadow_2960_98139" result="shape"/>
</filter>
<clipPath id="clip0_2960_98139">
<rect width="220" height="138.81" fill="white" transform="translate(0 0.333496)"/>
</clipPath>
<clipPath id="clip1_2960_98139">
<rect width="11.7857" height="11.7857" fill="white" transform="translate(159.762 104.548)"/>
</clipPath>
</defs>
</svg>
