<svg xmlns="http://www.w3.org/2000/svg" width="24" height="24" viewBox="0 0 24 24" fill="none">
<g clip-path="url(#clip0_861_23138)">
<path d="M23.5963 9.58354L23.5627 9.49759L20.3 0.984322C20.2337 0.817357 20.1164 0.675599 19.9648 0.579283C19.812 0.482869 19.6331 0.436243 19.4528 0.445842C19.2724 0.455441 19.0994 0.520791 18.9578 0.632873C18.8174 0.745396 18.7162 0.899362 18.6686 1.07281L16.4627 7.82381H7.53818L5.33232 1.07281C5.28469 0.899362 5.1835 0.745396 5.04319 0.632873C4.90213 0.520038 4.72929 0.454196 4.54892 0.444585C4.36855 0.434974 4.18969 0.482077 4.03745 0.579283C3.88517 0.675205 3.76734 0.817049 3.70095 0.984322L0.434486 9.50876L0.400836 9.59351C-0.068065 10.8213 -0.125703 12.168 0.236589 13.4313C0.598881 14.6946 1.36152 15.8062 2.40982 16.5988L2.42228 16.6075L2.45095 16.6299L7.42729 20.355L9.8874 22.2183L11.383 23.3511C11.5586 23.4838 11.7728 23.5557 11.993 23.5557C12.2132 23.5557 12.4274 23.4838 12.6031 23.3511L14.0986 22.2183L16.5599 20.355L21.565 16.6075L21.5786 16.5975C22.6305 15.8057 23.3962 14.6932 23.7602 13.4279C24.1242 12.1626 24.0667 10.8133 23.5963 9.58354Z" fill="#E24329"/>
<path d="M23.5966 9.584L23.563 9.49805C21.9717 9.82595 20.4723 10.5003 19.1712 11.4733L12.0063 16.9033C14.449 18.7503 16.5752 20.3555 16.5752 20.3555L21.5802 16.608L21.5939 16.598C22.6431 15.8042 23.4058 14.6907 23.7671 13.4256C24.1284 12.1605 24.0685 10.8122 23.5966 9.584Z" fill="#FC6D26"/>
<path d="M7.43115 20.3555L9.88755 22.2187L11.3831 23.3515C11.5588 23.4843 11.7729 23.5561 11.9931 23.5561C12.2133 23.5561 12.4275 23.4843 12.6032 23.3515L14.0987 22.2187L16.5601 20.3555C16.5601 20.3555 14.4339 18.7503 11.9912 16.9033L7.43115 20.3555Z" fill="#FCA326"/>
<path d="M4.82635 11.478C3.52557 10.5046 2.02592 9.83061 0.4345 9.50391L0.40085 9.58866C-0.0692554 10.817 -0.127527 12.1648 0.234809 13.4292C0.597145 14.6935 1.36047 15.8059 2.40983 16.5989L2.4223 16.6076L2.45096 16.63L7.4273 20.3551L12.0061 16.903L4.82635 11.478Z" fill="#FC6D26"/>
</g>
<defs>
<clipPath id="clip0_861_23138">
<rect width="24" height="24" fill="white"/>
</clipPath>
</defs>
</svg>