<svg xmlns="http://www.w3.org/2000/svg" width="18" height="24" viewBox="0 0 18 24" fill="none">
<g clip-path="url(#clip0_861_23125)">
<mask id="mask0_861_23125" style="mask-type:luminance" maskUnits="userSpaceOnUse" x="0" y="0" width="18" height="24">
<path d="M17.1618 0H0.840088V24H17.1618V0Z" fill="white"/>
</mask>
<g mask="url(#mask0_861_23125)">
<path d="M16.6974 20.3995C16.5213 20.0986 16.2677 19.8522 15.964 19.6867C15.573 19.4789 15.1507 19.3385 14.7143 19.2715C14.1675 19.181 13.6142 19.1373 13.0603 19.1408L5.8407 19.1016C6.12016 18.3699 6.52196 17.6928 7.02838 17.1C7.93364 15.9861 8.9174 14.9405 9.97191 13.9714L10.9722 13.0191C11.1362 12.8743 11.3653 12.6612 11.6632 12.3768C13.2192 11.0528 14.5342 9.46179 15.5484 7.67614C15.8962 6.95216 16.1656 6.19203 16.3519 5.40908C16.4025 5.19649 16.4457 4.9843 16.4813 4.77251C16.5788 4.216 16.6297 3.6521 16.6334 3.08687C16.6471 2.64581 16.5984 2.20504 16.4887 1.77804C16.4079 1.45242 16.2382 1.15656 15.9992 0.924472C15.6573 0.664935 15.2533 0.503045 14.8291 0.455616C14.3031 0.370828 13.7711 0.330314 13.2385 0.334489L4.89478 0.29247C4.08895 0.235627 3.28402 0.415416 2.57607 0.81038C2.3665 0.945774 2.18767 1.12485 2.05144 1.33575C1.9152 1.54664 1.82468 1.78453 1.78587 2.03364C1.76159 2.17518 1.7493 2.31858 1.74915 2.46225C1.72891 2.7852 1.79154 3.10795 1.93092 3.39896C2.0703 3.68997 2.28167 3.93929 2.54435 4.12253C2.90675 4.35751 3.31414 4.51173 3.7396 4.575C4.10269 4.6363 4.47019 4.66657 4.83826 4.66551L11.819 4.71765C11.8095 4.84129 11.7967 4.96433 11.7759 5.0842C11.6988 5.51492 11.5481 5.92861 11.3305 6.30652C10.797 7.11362 10.1514 7.83822 9.41385 8.45785C9.1431 8.70066 8.7186 9.07842 8.14038 9.59111C6.32329 11.0931 4.66963 12.7882 3.20764 14.6474C2.49575 15.5725 1.91444 16.5939 1.48051 17.6821C1.2568 18.2484 1.08983 18.8361 0.98214 19.4363C0.912674 19.8322 0.87628 20.2333 0.873349 20.6354C0.85974 21.1203 0.917193 21.6046 1.04383 22.0724C1.13506 22.4255 1.32922 22.7424 1.60086 22.9816C1.94716 23.2105 2.34174 23.3533 2.75258 23.3984C3.67823 23.5411 4.61364 23.6084 5.54986 23.5998L13.1208 23.6392C14.1132 23.7156 15.1089 23.5469 16.0231 23.1474C16.2567 23.0163 16.4575 22.8322 16.6098 22.6095C16.762 22.3868 16.8617 22.1314 16.901 21.8633C16.9263 21.7137 16.9388 21.5622 16.9385 21.4105C16.9489 21.0576 16.8656 20.7084 16.6974 20.3995Z" fill="#D94C44"/>
</g>
</g>
<defs>
<clipPath id="clip0_861_23125">
<rect width="16.32" height="24" fill="white" transform="translate(0.840088)"/>
</clipPath>
</defs>
</svg>