<svg xmlns="http://www.w3.org/2000/svg" width="28" height="24" viewBox="0 0 28 24" fill="none">
<path d="M26.1004 8.06738H18.1228L16.784 15.9248H11.2588L4.73486 23.7182C4.94164 23.898 5.20528 23.998 5.47864 24.0003H22.7938C23.2149 24.0058 23.5764 23.7003 23.6438 23.2821L26.1004 8.06738Z" fill="url(#paint0_linear_861_23146)"/>
<path d="M1.59513 7.12474e-05C1.34402 -0.00318644 1.10432 0.105412 0.940346 0.296737C0.77637 0.488061 0.704897 0.742527 0.7451 0.991873L4.35348 23.0253C4.39783 23.2933 4.53479 23.5371 4.74024 23.7135C4.94702 23.8934 5.21066 23.9934 5.48402 23.9957L12.1823 15.9245H11.243L9.76817 8.06701H26.1057L27.2533 1.00042C27.2959 0.75198 27.2273 0.497286 27.0659 0.304421C26.9045 0.111556 26.6667 0.000183202 26.416 7.12474e-05H1.59513Z" fill="#2684FF"/>
<defs>
<linearGradient id="paint0_linear_861_23146" x1="2159.8" y1="416.369" x2="1308.61" y2="1458.63" gradientUnits="userSpaceOnUse">
<stop stop-color="#0052CC"/>
<stop offset="1" stop-color="#2684FF"/>
</linearGradient>
</defs>
</svg>