<svg width="336" height="212" viewBox="0 0 336 212" fill="none" xmlns="http://www.w3.org/2000/svg">
<g clip-path="url(#clip0_2680_52475)">
<path d="M315.008 135.913C315.222 135.699 315.476 135.529 315.756 135.414C316.035 135.298 316.335 135.238 316.637 135.238C316.94 135.238 317.24 135.298 317.519 135.414C317.799 135.529 318.053 135.699 318.267 135.913C318.481 136.127 318.65 136.381 318.766 136.66C318.882 136.94 318.941 137.24 318.941 137.542C318.941 137.845 318.882 138.144 318.766 138.424C318.65 138.703 318.481 138.957 318.267 139.171L307.269 150.169L302.789 151.391L304.011 146.91L315.008 135.913Z" stroke="white" stroke-width="1.62921" stroke-linecap="round" stroke-linejoin="round"/>
<line x1="304.952" y1="153.265" x2="319.374" y2="153.265" stroke="white" stroke-width="1.44218" stroke-linecap="round"/>
<g clip-path="url(#clip1_2680_52475)">
<g filter="url(#filter0_d_2680_52475)">
<rect x="42.9446" y="9.6908" width="282.591" height="181.436" rx="9.6338" fill="white"/>
</g>
<ellipse cx="59.8027" cy="22.939" rx="4.8169" ry="5.21831" fill="#DF434C"/>
<circle cx="73.0475" cy="22.939" r="5.21831" fill="#E7B44C"/>
<circle cx="85.8939" cy="22.939" r="5.21831" fill="#6BD280"/>
<rect x="99.137" y="17.7207" width="213.549" height="10.4366" rx="5.21831" fill="#E1E3E8"/>
<rect x="54.9858" y="44.2126" width="48.169" height="12.8451" rx="3.21127" fill="#F2F3F5"/>
<rect x="54.9858" y="61.874" width="48.169" height="12.8451" rx="3.21127" fill="#F2F3F5"/>
<rect x="54.9858" y="79.5383" width="48.169" height="12.8451" rx="3.21127" fill="#5E9BF0"/>
<rect x="54.9858" y="97.1997" width="48.169" height="12.8451" rx="3.21127" fill="#F2F3F5"/>
<rect x="54.9858" y="114.863" width="48.169" height="12.8451" rx="3.21127" fill="#F2F3F5"/>
<rect x="54.9858" y="132.524" width="48.169" height="12.8451" rx="3.21127" fill="#F2F3F5"/>
<rect x="113.626" y="62.1371" width="199.42" height="90.5117" rx="3.21127" fill="#F2F3F5"/>
<g filter="url(#filter1_bdii_2680_52475)">
<rect x="8.50848" y="153.422" width="169.985" height="41.9444" rx="20.9722" fill="#5E9BF0"/>
</g>
<g filter="url(#filter2_bdii_2680_52475)">
<rect x="289.497" y="132.78" width="29.4347" height="29.4347" rx="14.7174" fill="#5E9BF0"/>
</g>
<path d="M37.7456 180.253V168.889H41.9861C42.7589 168.889 43.4403 169.031 44.0301 169.316C44.63 169.59 45.0978 169.997 45.4334 170.536C45.769 171.065 45.9368 171.711 45.9368 172.473C45.9368 173.226 45.7639 173.872 45.4181 174.411C45.0826 174.939 44.6199 175.346 44.0301 175.631C43.4403 175.916 42.7589 176.058 41.9861 176.058H39.8201V180.253H37.7456ZM39.8201 174.228H42.0166C42.3929 174.228 42.7183 174.156 42.9928 174.014C43.2674 173.861 43.4809 173.653 43.6335 173.389C43.786 173.124 43.8623 172.819 43.8623 172.473C43.8623 172.117 43.786 171.812 43.6335 171.558C43.4809 171.294 43.2674 171.09 42.9928 170.948C42.7183 170.796 42.3929 170.719 42.0166 170.719H39.8201V174.228ZM50.8856 180.436C50.2449 180.436 49.6856 180.293 49.2077 180.009C48.7399 179.724 48.3789 179.327 48.1247 178.819C47.8806 178.31 47.7586 177.716 47.7586 177.034V171.955H49.7568V176.866C49.7568 177.212 49.8229 177.517 49.9551 177.782C50.0975 178.036 50.2958 178.239 50.55 178.392C50.8144 178.534 51.1093 178.605 51.4347 178.605C51.7601 178.605 52.0499 178.534 52.3042 178.392C52.5584 178.239 52.7567 178.031 52.899 177.766C53.0414 177.502 53.1126 177.187 53.1126 176.821V171.955H55.1108V180.253H53.2194V178.621L53.3872 178.91C53.1939 179.419 52.8736 179.8 52.4262 180.054C51.9889 180.309 51.4754 180.436 50.8856 180.436ZM61.9562 180.436C61.3562 180.436 60.802 180.319 60.2935 180.085C59.7953 179.841 59.3987 179.495 59.1038 179.048L59.3021 178.651V180.253H57.4259V168.706H59.4241V173.602L59.119 173.19C59.4038 172.743 59.7902 172.397 60.2783 172.153C60.7664 171.899 61.3308 171.772 61.9714 171.772C62.7544 171.772 63.4612 171.965 64.0917 172.351C64.7221 172.738 65.2204 173.256 65.5865 173.907C65.9628 174.558 66.1509 175.29 66.1509 176.104C66.1509 176.907 65.9678 177.639 65.6018 178.3C65.2357 178.961 64.7374 179.485 64.1069 179.871C63.4764 180.248 62.7595 180.436 61.9562 180.436ZM61.7274 178.605C62.185 178.605 62.5917 178.499 62.9477 178.285C63.3036 178.071 63.5781 177.777 63.7713 177.4C63.9747 177.024 64.0764 176.592 64.0764 176.104C64.0764 175.616 63.9747 175.189 63.7713 174.822C63.5781 174.446 63.3036 174.151 62.9477 173.938C62.5917 173.714 62.185 173.602 61.7274 173.602C61.2901 173.602 60.8935 173.709 60.5376 173.922C60.1918 174.136 59.9173 174.436 59.7139 174.822C59.5207 175.199 59.4241 175.626 59.4241 176.104C59.4241 176.592 59.5207 177.024 59.7139 177.4C59.9173 177.777 60.1918 178.071 60.5376 178.285C60.8935 178.499 61.2901 178.605 61.7274 178.605ZM68.1319 180.253V168.706H70.1301V180.253H68.1319ZM72.4327 180.253V171.955H74.4309V180.253H72.4327ZM72.4327 171.024V168.889H74.4309V171.024H72.4327ZM79.891 180.436C79.0063 180.436 78.2334 180.227 77.5724 179.81C76.9216 179.383 76.4742 178.809 76.2301 178.087L77.725 177.37C77.9385 177.838 78.2334 178.204 78.6097 178.468C78.9961 178.732 79.4232 178.865 79.891 178.865C80.2571 178.865 80.5469 178.783 80.7604 178.621C80.974 178.458 81.0807 178.244 81.0807 177.98C81.0807 177.817 81.035 177.685 80.9435 177.583C80.8621 177.471 80.7452 177.38 80.5926 177.309C80.4503 177.227 80.2926 177.161 80.1198 177.11L78.7622 176.729C78.0605 176.526 77.5267 176.216 77.1606 175.799C76.8047 175.382 76.6267 174.889 76.6267 174.319C76.6267 173.811 76.7538 173.368 77.0081 172.992C77.2724 172.606 77.6334 172.306 78.0911 172.092C78.5588 171.879 79.0927 171.772 79.6927 171.772C80.4757 171.772 81.1672 171.96 81.7671 172.336C82.3671 172.712 82.7942 173.241 83.0484 173.922L81.5231 174.639C81.3807 174.263 81.1418 173.963 80.8062 173.739C80.4706 173.516 80.0943 173.404 79.6774 173.404C79.3418 173.404 79.0774 173.48 78.8842 173.633C78.691 173.785 78.5944 173.983 78.5944 174.228C78.5944 174.38 78.6351 174.512 78.7164 174.624C78.7978 174.736 78.9097 174.828 79.052 174.899C79.2046 174.97 79.3774 175.036 79.5706 175.097L80.8977 175.494C81.579 175.697 82.1027 176.002 82.4688 176.409C82.8451 176.816 83.0332 177.314 83.0332 177.904C83.0332 178.402 82.901 178.844 82.6366 179.231C82.3722 179.607 82.0061 179.902 81.5383 180.115C81.0706 180.329 80.5214 180.436 79.891 180.436ZM85.0264 180.253V168.706H87.0246V173.587L86.75 173.297C86.9433 172.799 87.2585 172.423 87.6958 172.168C88.1432 171.904 88.6618 171.772 89.2516 171.772C89.8618 171.772 90.4007 171.904 90.8685 172.168C91.3464 172.433 91.7176 172.804 91.982 173.282C92.2464 173.75 92.3786 174.294 92.3786 174.914V180.253H90.3804V175.387C90.3804 175.021 90.3092 174.705 90.1668 174.441C90.0245 174.177 89.8262 173.973 89.5719 173.831C89.3279 173.678 89.0381 173.602 88.7025 173.602C88.3771 173.602 88.0873 173.678 87.833 173.831C87.5788 173.973 87.3805 174.177 87.2382 174.441C87.0958 174.705 87.0246 175.021 87.0246 175.387V180.253H85.0264ZM96.9319 180.253L100.852 168.889H103.537L107.457 180.253H105.199L104.391 177.812H99.9978L99.1741 180.253H96.9319ZM100.593 175.982H103.796L101.905 170.323H102.484L100.593 175.982ZM109.011 180.253V171.955H110.888V173.8L110.735 173.526C110.928 172.906 111.228 172.473 111.635 172.229C112.052 171.985 112.55 171.863 113.13 171.863H113.618V173.633H112.901C112.332 173.633 111.874 173.811 111.528 174.167C111.182 174.512 111.01 175 111.01 175.631V180.253H109.011ZM119.18 180.344C118.245 180.344 117.518 180.09 116.999 179.582C116.491 179.063 116.237 178.336 116.237 177.4V173.739H114.803V171.955H114.955C115.362 171.955 115.677 171.848 115.901 171.634C116.125 171.421 116.237 171.111 116.237 170.704V170.063H118.235V171.955H120.141V173.739H118.235V177.294C118.235 177.568 118.28 177.802 118.372 177.995C118.474 178.188 118.626 178.336 118.83 178.438C119.043 178.539 119.313 178.59 119.638 178.59C119.709 178.59 119.791 178.585 119.882 178.575C119.984 178.565 120.08 178.554 120.172 178.544V180.253C120.03 180.273 119.867 180.293 119.684 180.314C119.501 180.334 119.333 180.344 119.18 180.344ZM122.156 180.253V171.955H124.154V180.253H122.156ZM122.156 171.024V168.889H124.154V171.024H122.156ZM130.453 180.436C129.63 180.436 128.887 180.248 128.226 179.871C127.576 179.485 127.062 178.966 126.686 178.315C126.31 177.655 126.121 176.912 126.121 176.088C126.121 175.265 126.31 174.528 126.686 173.877C127.062 173.226 127.576 172.712 128.226 172.336C128.887 171.96 129.63 171.772 130.453 171.772C131.043 171.772 131.592 171.879 132.101 172.092C132.609 172.295 133.046 172.58 133.413 172.946C133.789 173.302 134.058 173.729 134.221 174.228L132.467 174.99C132.314 174.573 132.055 174.238 131.689 173.983C131.333 173.729 130.921 173.602 130.453 173.602C130.016 173.602 129.625 173.709 129.279 173.922C128.943 174.136 128.679 174.431 128.486 174.807C128.292 175.183 128.196 175.616 128.196 176.104C128.196 176.592 128.292 177.024 128.486 177.4C128.679 177.777 128.943 178.071 129.279 178.285C129.625 178.499 130.016 178.605 130.453 178.605C130.931 178.605 131.348 178.478 131.704 178.224C132.06 177.97 132.314 177.629 132.467 177.202L134.221 177.995C134.058 178.463 133.794 178.885 133.428 179.261C133.062 179.627 132.624 179.917 132.116 180.131C131.608 180.334 131.053 180.436 130.453 180.436ZM136.195 180.253V168.706H138.193V180.253H136.195ZM144.431 180.436C143.577 180.436 142.829 180.243 142.189 179.856C141.548 179.47 141.05 178.946 140.694 178.285C140.338 177.624 140.16 176.892 140.16 176.088C140.16 175.255 140.338 174.517 140.694 173.877C141.06 173.226 141.553 172.712 142.173 172.336C142.804 171.96 143.506 171.772 144.278 171.772C144.929 171.772 145.499 171.879 145.987 172.092C146.485 172.306 146.907 172.601 147.253 172.977C147.599 173.353 147.863 173.785 148.046 174.273C148.229 174.751 148.321 175.27 148.321 175.829C148.321 175.972 148.31 176.119 148.29 176.272C148.28 176.424 148.255 176.556 148.214 176.668H141.807V175.143H147.085L146.139 175.86C146.231 175.392 146.205 174.975 146.063 174.609C145.931 174.243 145.707 173.953 145.392 173.739C145.087 173.526 144.716 173.419 144.278 173.419C143.862 173.419 143.49 173.526 143.165 173.739C142.84 173.943 142.59 174.248 142.418 174.655C142.255 175.051 142.194 175.534 142.234 176.104C142.194 176.612 142.26 177.065 142.433 177.461C142.616 177.848 142.88 178.148 143.226 178.361C143.582 178.575 143.989 178.682 144.446 178.682C144.904 178.682 145.29 178.585 145.605 178.392C145.931 178.199 146.185 177.939 146.368 177.614L147.985 178.407C147.822 178.804 147.568 179.154 147.222 179.46C146.877 179.765 146.465 180.004 145.987 180.176C145.519 180.349 145 180.436 144.431 180.436Z" fill="white"/>
<path d="M77.8679 53.2126V47.5688H76.5758V46.528H79.0882V53.2126H77.8679Z" fill="#887D7D"/>
<path d="M76.0586 70.874V69.9498L77.8711 68.0566C78.23 67.6798 78.5052 67.3807 78.6966 67.1593C78.894 66.932 79.0316 66.7376 79.1093 66.5761C79.1871 66.4146 79.226 66.2501 79.226 66.0826C79.226 65.8015 79.1362 65.5802 78.9568 65.4186C78.7833 65.2571 78.559 65.1764 78.2838 65.1764C77.9967 65.1764 77.7485 65.2601 77.5391 65.4276C77.3298 65.5891 77.1772 65.8284 77.0815 66.1454L76.0138 65.8134C76.0855 65.4605 76.2321 65.1555 76.4534 64.8982C76.6747 64.635 76.9439 64.4346 77.261 64.2971C77.584 64.1535 77.9249 64.0817 78.2838 64.0817C78.7145 64.0817 79.0914 64.1595 79.4144 64.315C79.7434 64.4705 79.9976 64.6889 80.1771 64.97C80.3625 65.2512 80.4552 65.5802 80.4552 65.957C80.4552 66.1963 80.4104 66.4326 80.3206 66.6658C80.2309 66.8991 80.0963 67.1384 79.9169 67.3837C79.7374 67.6229 79.5041 67.8921 79.217 68.1912L77.6468 69.8422H80.545V70.874H76.0586Z" fill="#887D7D"/>
<path d="M78.2757 88.646C77.9108 88.646 77.5638 88.5802 77.2348 88.4486C76.9118 88.311 76.6337 88.1196 76.4004 87.8744C76.1731 87.6231 76.0175 87.327 75.9338 86.9861L77.0015 86.6092C77.1092 86.9143 77.2737 87.1476 77.495 87.3091C77.7164 87.4646 77.9766 87.5424 78.2757 87.5424C78.5149 87.5424 78.7213 87.4975 78.8948 87.4078C79.0742 87.318 79.2148 87.1894 79.3165 87.022C79.4182 86.8485 79.469 86.6451 79.469 86.4118C79.469 86.1785 79.4182 85.9811 79.3165 85.8196C79.2208 85.6521 79.0832 85.5235 78.9037 85.4338C78.7243 85.3441 78.5119 85.2992 78.2667 85.2992C78.153 85.2992 78.0334 85.3112 77.9078 85.3351C77.7881 85.359 77.6805 85.3949 77.5848 85.4428L77.3066 84.8595L79.0383 82.8856H76.3106V81.8537H80.4111V82.8138L78.6704 84.8506L78.6884 84.393C79.0892 84.3989 79.4391 84.4857 79.7382 84.6532C80.0373 84.8207 80.2706 85.051 80.4381 85.3441C80.6056 85.6372 80.6893 85.9811 80.6893 86.3759C80.6893 86.8066 80.5846 87.1954 80.3753 87.5424C80.1659 87.8833 79.8788 88.1525 79.5139 88.3499C79.149 88.5473 78.7362 88.646 78.2757 88.646Z" fill="white"/>
<path d="M78.7791 106.2V104.728H75.7104V103.705L78.7073 99.5151H79.9814V103.705H80.9594V104.728H79.9814V106.2H78.7791ZM76.6077 104.145L76.3923 103.705H78.7791V100.475L79.0931 100.574L76.6077 104.145Z" fill="#887D7D"/>
<path d="M78.2275 123.97C77.8746 123.97 77.5366 123.905 77.2136 123.773C76.8966 123.641 76.6214 123.456 76.3881 123.217C76.1608 122.971 76.0053 122.681 75.9215 122.346L76.9803 121.969C77.082 122.275 77.2465 122.502 77.4738 122.651C77.7011 122.795 77.9524 122.867 78.2275 122.867C78.4548 122.867 78.6552 122.819 78.8287 122.723C79.0081 122.621 79.1457 122.484 79.2414 122.31C79.3371 122.131 79.385 121.925 79.385 121.691C79.385 121.458 79.3341 121.255 79.2325 121.081C79.1367 120.908 79.0022 120.773 78.8287 120.677C78.6552 120.576 78.4548 120.525 78.2275 120.525C77.9942 120.525 77.7819 120.576 77.5905 120.677C77.405 120.779 77.2704 120.926 77.1867 121.117L76.1907 120.893L76.7201 117.178H80.363V118.21H77.2046L77.6622 117.681L77.2854 120.48L76.9355 120.193C77.1029 119.948 77.3063 119.768 77.5456 119.654C77.7909 119.541 78.0869 119.484 78.4339 119.484C78.8765 119.484 79.2594 119.58 79.5824 119.771C79.9114 119.963 80.1656 120.223 80.3451 120.552C80.5245 120.881 80.6142 121.261 80.6142 121.691C80.6142 122.122 80.5096 122.511 80.3002 122.858C80.0908 123.205 79.8067 123.477 79.4478 123.674C79.0889 123.872 78.6821 123.97 78.2275 123.97Z" fill="#887D7D"/>
<path d="M78.3337 141.632C77.8791 141.632 77.4753 141.536 77.1224 141.344C76.7755 141.147 76.5033 140.884 76.3059 140.555C76.1085 140.22 76.0098 139.84 76.0098 139.415C76.0098 139.2 76.0307 138.985 76.0726 138.769C76.1205 138.554 76.2042 138.324 76.3238 138.078C76.4495 137.833 76.6289 137.561 76.8622 137.262L78.7285 134.839H80.1821L77.912 137.755L77.7146 137.54C77.7984 137.474 77.8851 137.423 77.9748 137.388C78.0645 137.346 78.1543 137.316 78.244 137.298C78.3397 137.28 78.4384 137.271 78.5401 137.271C78.9469 137.271 79.3087 137.364 79.6258 137.549C79.9428 137.734 80.1911 137.989 80.3705 138.312C80.5559 138.629 80.6487 138.988 80.6487 139.388C80.6487 139.819 80.55 140.205 80.3526 140.546C80.1552 140.881 79.88 141.147 79.5271 141.344C79.1801 141.536 78.7824 141.632 78.3337 141.632ZM78.3337 140.528C78.5371 140.528 78.7195 140.483 78.8811 140.393C79.0485 140.298 79.1801 140.163 79.2758 139.99C79.3775 139.816 79.4284 139.622 79.4284 139.406C79.4284 139.179 79.3775 138.985 79.2758 138.823C79.1801 138.656 79.0515 138.524 78.89 138.428C78.7285 138.333 78.5431 138.285 78.3337 138.285C78.1303 138.285 77.9449 138.333 77.7774 138.428C77.6099 138.524 77.4753 138.656 77.3736 138.823C77.2779 138.985 77.2301 139.179 77.2301 139.406C77.2301 139.622 77.2779 139.816 77.3736 139.99C77.4753 140.163 77.6099 140.298 77.7774 140.393C77.9449 140.483 78.1303 140.528 78.3337 140.528Z" fill="#887D7D"/>
<path d="M126.623 81.9146C125.929 81.9146 125.283 81.7905 124.683 81.5421C124.092 81.2938 123.57 80.947 123.116 80.5017C122.671 80.0564 122.32 79.534 122.063 78.9346C121.815 78.3351 121.69 77.68 121.69 76.9693C121.69 76.2585 121.815 75.6034 122.063 75.004C122.32 74.396 122.671 73.8736 123.116 73.4369C123.561 72.9916 124.084 72.6491 124.683 72.4093C125.283 72.161 125.929 72.0368 126.623 72.0368C127.325 72.0368 127.972 72.161 128.563 72.4093C129.162 72.6491 129.684 72.9916 130.13 73.4369C130.583 73.8822 130.935 74.4046 131.183 75.004C131.431 75.6034 131.555 76.2585 131.555 76.9693C131.555 77.68 131.427 78.3351 131.17 78.9346C130.922 79.534 130.575 80.0564 130.13 80.5017C129.684 80.947 129.162 81.2938 128.563 81.5421C127.963 81.7905 127.317 81.9146 126.623 81.9146ZM126.623 80.5274C127.12 80.5274 127.573 80.4375 127.984 80.2576C128.404 80.0778 128.768 79.8295 129.076 79.5126C129.385 79.1872 129.624 78.8104 129.796 78.3822C129.967 77.9455 130.053 77.4745 130.053 76.9693C130.053 76.4641 129.967 75.9973 129.796 75.5692C129.624 75.141 129.385 74.7642 129.076 74.4388C128.768 74.1134 128.404 73.8608 127.984 73.681C127.573 73.5011 127.12 73.4112 126.623 73.4112C126.126 73.4112 125.668 73.5011 125.248 73.681C124.837 73.8608 124.478 74.1134 124.169 74.4388C123.861 74.7642 123.621 75.141 123.45 75.5692C123.287 75.9973 123.206 76.4641 123.206 76.9693C123.206 77.4745 123.287 77.9455 123.45 78.3822C123.621 78.8104 123.861 79.1872 124.169 79.5126C124.478 79.8295 124.842 80.0778 125.261 80.2576C125.681 80.4375 126.135 80.5274 126.623 80.5274ZM135.973 81.9146C135.451 81.9146 134.993 81.799 134.599 81.5678C134.205 81.328 133.897 80.9984 133.674 80.5788C133.46 80.1506 133.353 79.6582 133.353 79.1016V74.8113H134.804V78.9731C134.804 79.29 134.869 79.5683 134.997 79.808C135.125 80.0478 135.305 80.2362 135.536 80.3732C135.768 80.5017 136.033 80.5659 136.333 80.5659C136.641 80.5659 136.911 80.4974 137.142 80.3604C137.373 80.2234 137.553 80.0307 137.682 79.7824C137.819 79.534 137.887 79.2429 137.887 78.9089V74.8113H139.326V81.7605H137.951V80.3989L138.105 80.5788C137.943 81.0069 137.673 81.3366 137.296 81.5678C136.919 81.799 136.478 81.9146 135.973 81.9146ZM141.406 81.7605V74.8113H142.793V76.2114L142.665 76.0059C142.819 75.5521 143.067 75.2266 143.41 75.0297C143.752 74.8242 144.163 74.7214 144.643 74.7214H145.067V76.0444H144.463C143.983 76.0444 143.594 76.1943 143.294 76.494C143.003 76.7852 142.857 77.2048 142.857 77.7528V81.7605H141.406ZM149.217 81.7605V72.1909H152.698C153.34 72.1909 153.906 72.3108 154.394 72.5506C154.882 72.7818 155.263 73.1243 155.537 73.5782C155.819 74.0235 155.961 74.5587 155.961 75.1838C155.961 75.8432 155.794 76.4084 155.46 76.8794C155.134 77.3504 154.693 77.6929 154.137 77.907L156.346 81.7605H154.625L152.274 77.5859L153.263 78.1639H150.733V81.7605H149.217ZM150.733 76.8151H152.724C153.075 76.8151 153.379 76.7466 153.636 76.6096C153.893 76.4726 154.09 76.2842 154.227 76.0444C154.372 75.7961 154.445 75.505 154.445 75.171C154.445 74.837 154.372 74.5501 154.227 74.3104C154.09 74.062 153.893 73.8736 153.636 73.7452C153.379 73.6082 153.075 73.5397 152.724 73.5397H150.733V76.8151ZM160.739 81.9146C160.046 81.9146 159.429 81.7562 158.89 81.4394C158.359 81.114 157.943 80.6772 157.644 80.1292C157.344 79.5726 157.194 78.9517 157.194 78.2666C157.194 77.5644 157.344 76.9436 157.644 76.4041C157.952 75.8646 158.363 75.4407 158.877 75.1324C159.391 74.8156 159.973 74.6572 160.624 74.6572C161.146 74.6572 161.613 74.7471 162.024 74.9269C162.435 75.1068 162.782 75.3551 163.064 75.6719C163.347 75.9802 163.561 76.3356 163.707 76.7381C163.861 77.1406 163.938 77.5687 163.938 78.0226C163.938 78.1339 163.934 78.2495 163.925 78.3694C163.916 78.4893 163.899 78.6006 163.874 78.7034H158.337V77.5473H163.051L162.358 78.074C162.443 77.6544 162.414 77.2819 162.268 76.9564C162.131 76.6225 161.917 76.3613 161.626 76.1729C161.343 75.9759 161.009 75.8775 160.624 75.8775C160.238 75.8775 159.896 75.9759 159.596 76.1729C159.296 76.3613 159.065 76.6353 158.903 76.995C158.74 77.3461 158.676 77.7742 158.71 78.2795C158.667 78.7505 158.731 79.1615 158.903 79.5126C159.082 79.8637 159.331 80.1377 159.648 80.3347C159.973 80.5317 160.341 80.6301 160.752 80.6301C161.172 80.6301 161.527 80.5359 161.818 80.3475C162.118 80.1591 162.354 79.9151 162.525 79.6154L163.707 80.1934C163.57 80.5188 163.355 80.8142 163.064 81.0797C162.782 81.3366 162.439 81.5421 162.037 81.6963C161.643 81.8419 161.21 81.9146 160.739 81.9146ZM168.745 81.8376C168.018 81.8376 167.452 81.632 167.05 81.221C166.647 80.81 166.446 80.2319 166.446 79.4869V76.1215H165.226V74.8113H165.419C165.744 74.8113 165.997 74.7171 166.176 74.5287C166.356 74.3403 166.446 74.0834 166.446 73.758V73.2185H167.898V74.8113H169.478V76.1215H167.898V79.4227C167.898 79.6625 167.936 79.868 168.013 80.0393C168.09 80.202 168.215 80.3304 168.386 80.4246C168.557 80.5102 168.78 80.5531 169.054 80.5531C169.122 80.5531 169.199 80.5488 169.285 80.5402C169.371 80.5317 169.452 80.5231 169.529 80.5145V81.7605C169.409 81.7776 169.276 81.7948 169.131 81.8119C168.985 81.829 168.857 81.8376 168.745 81.8376ZM173.81 81.9146C173.288 81.9146 172.829 81.799 172.436 81.5678C172.042 81.328 171.733 80.9984 171.511 80.5788C171.297 80.1506 171.19 79.6582 171.19 79.1016V74.8113H172.641V78.9731C172.641 79.29 172.705 79.5683 172.834 79.808C172.962 80.0478 173.142 80.2362 173.373 80.3732C173.604 80.5017 173.87 80.5659 174.17 80.5659C174.478 80.5659 174.748 80.4974 174.979 80.3604C175.21 80.2234 175.39 80.0307 175.518 79.7824C175.655 79.534 175.724 79.2429 175.724 78.9089V74.8113H177.162V81.7605H175.788V80.3989L175.942 80.5788C175.78 81.0069 175.51 81.3366 175.133 81.5678C174.756 81.799 174.315 81.9146 173.81 81.9146ZM179.243 81.7605V74.8113H180.63V76.2114L180.501 76.0059C180.656 75.5521 180.904 75.2266 181.246 75.0297C181.589 74.8242 182 74.7214 182.48 74.7214H182.903V76.0444H182.3C181.82 76.0444 181.431 76.1943 181.131 76.494C180.84 76.7852 180.694 77.2048 180.694 77.7528V81.7605H179.243ZM184.282 81.7605V74.8113H185.669V76.1729L185.502 75.9931C185.673 75.5563 185.947 75.2266 186.324 75.004C186.701 74.7728 187.138 74.6572 187.634 74.6572C188.148 74.6572 188.602 74.7685 188.996 74.9912C189.39 75.2138 189.698 75.5221 189.921 75.916C190.143 76.3099 190.255 76.7638 190.255 77.2776V81.7605H188.816V77.6629C188.816 77.3118 188.752 77.0164 188.623 76.7766C188.495 76.5283 188.311 76.3399 188.071 76.2114C187.84 76.0744 187.574 76.0059 187.275 76.0059C186.975 76.0059 186.705 76.0744 186.465 76.2114C186.234 76.3399 186.054 76.5283 185.926 76.7766C185.797 77.025 185.733 77.3204 185.733 77.6629V81.7605H184.282ZM194.966 81.7605V72.1909H198.447C199.089 72.1909 199.654 72.3108 200.142 72.5506C200.639 72.7818 201.024 73.1243 201.298 73.5782C201.572 74.0235 201.709 74.5587 201.709 75.1838C201.709 75.8004 201.568 76.3313 201.285 76.7766C201.011 77.2219 200.63 77.5644 200.142 77.8042C199.654 78.044 199.089 78.1639 198.447 78.1639H196.481V81.7605H194.966ZM196.481 76.8151H198.485C198.828 76.8151 199.127 76.7466 199.384 76.6096C199.641 76.4726 199.842 76.2842 199.988 76.0444C200.134 75.7961 200.206 75.505 200.206 75.171C200.206 74.837 200.134 74.5501 199.988 74.3104C199.842 74.062 199.641 73.8736 199.384 73.7452C199.127 73.6082 198.828 73.5397 198.485 73.5397H196.481V76.8151ZM206.615 81.9146C205.947 81.9146 205.335 81.7562 204.779 81.4394C204.231 81.1225 203.794 80.6901 203.468 80.142C203.143 79.594 202.98 78.9731 202.98 78.2795C202.98 77.5773 203.143 76.9564 203.468 76.417C203.794 75.8689 204.231 75.4407 204.779 75.1324C205.327 74.8156 205.939 74.6572 206.615 74.6572C207.3 74.6572 207.913 74.8156 208.452 75.1324C209 75.4407 209.433 75.8689 209.75 76.417C210.075 76.9564 210.238 77.5773 210.238 78.2795C210.238 78.9817 210.075 79.6068 209.75 80.1549C209.424 80.7029 208.987 81.1354 208.439 81.4522C207.891 81.7605 207.283 81.9146 206.615 81.9146ZM206.615 80.5659C207.026 80.5659 207.39 80.4674 207.707 80.2705C208.024 80.0735 208.272 79.8038 208.452 79.4612C208.641 79.1101 208.735 78.7162 208.735 78.2795C208.735 77.8428 208.641 77.4531 208.452 77.1106C208.272 76.7681 208.024 76.4983 207.707 76.3013C207.39 76.1044 207.026 76.0059 206.615 76.0059C206.213 76.0059 205.849 76.1044 205.524 76.3013C205.207 76.4983 204.954 76.7681 204.766 77.1106C204.586 77.4531 204.496 77.8428 204.496 78.2795C204.496 78.7162 204.586 79.1101 204.766 79.4612C204.954 79.8038 205.207 80.0735 205.524 80.2705C205.849 80.4674 206.213 80.5659 206.615 80.5659ZM212.04 81.7605V72.0368H213.492V81.7605H212.04ZM215.574 81.7605V74.8113H217.026V81.7605H215.574ZM215.574 73.8608V72.1909H217.026V73.8608H215.574ZM222.409 81.9146C221.715 81.9146 221.099 81.7562 220.559 81.4394C220.029 81.114 219.605 80.6772 219.288 80.1292C218.979 79.5811 218.825 78.9603 218.825 78.2666C218.825 77.5816 218.979 76.965 219.288 76.417C219.596 75.8689 220.02 75.4407 220.559 75.1324C221.099 74.8156 221.715 74.6572 222.409 74.6572C222.88 74.6572 223.321 74.7428 223.732 74.9141C224.143 75.0768 224.499 75.3037 224.798 75.5949C225.107 75.886 225.334 76.2243 225.479 76.6096L224.207 77.2005C224.062 76.8408 223.826 76.554 223.501 76.3399C223.184 76.1172 222.82 76.0059 222.409 76.0059C222.015 76.0059 221.66 76.1044 221.343 76.3013C221.035 76.4897 220.791 76.7595 220.611 77.1106C220.431 77.4531 220.341 77.8428 220.341 78.2795C220.341 78.7162 220.431 79.1101 220.611 79.4612C220.791 79.8038 221.035 80.0735 221.343 80.2705C221.66 80.4674 222.015 80.5659 222.409 80.5659C222.829 80.5659 223.193 80.4589 223.501 80.2448C223.818 80.0221 224.053 79.7267 224.207 79.3585L225.479 79.9622C225.342 80.3304 225.119 80.6644 224.811 80.9641C224.511 81.2553 224.156 81.4865 223.745 81.6577C223.334 81.829 222.889 81.9146 222.409 81.9146ZM227.9 84.5993C227.728 84.5993 227.557 84.5821 227.386 84.5479C227.223 84.5222 227.073 84.4794 226.936 84.4194V83.1735C227.039 83.1991 227.163 83.2206 227.309 83.2377C227.454 83.2634 227.596 83.2762 227.733 83.2762C228.135 83.2762 228.431 83.1863 228.619 83.0065C228.816 82.8352 228.992 82.5655 229.146 82.1972L229.608 81.1439L229.582 82.3642L226.577 74.8113H228.131L230.353 80.6044H229.826L232.036 74.8113H233.603L230.533 82.5184C230.37 82.9294 230.165 83.2891 229.916 83.5973C229.677 83.9142 229.39 84.1582 229.056 84.3295C228.73 84.5093 228.345 84.5993 227.9 84.5993Z" fill="#887D7D"/>
<rect x="120.984" y="102.61" width="164.834" height="5.15107" rx="2.57554" fill="#B9C2D0"/>
<rect x="120.984" y="93.0422" width="164.834" height="5.15107" rx="2.57554" fill="#B9C2D0"/>
<rect x="120.984" y="112.175" width="122.028" height="4.8169" rx="2.40845" fill="#B9C2D0"/>
<g filter="url(#filter3_d_2680_52475)">
<path d="M158.595 176.068C158.439 175.328 159.233 174.752 159.891 175.128L186.13 190.139C186.798 190.52 186.687 191.512 185.953 191.738L173.216 195.649C173.019 195.709 172.85 195.837 172.738 196.009L166.363 205.811C165.936 206.467 164.927 206.278 164.767 205.512L158.595 176.068Z" fill="#333333"/>
<path d="M159.455 175.889L185.694 190.9L172.958 194.81C172.564 194.931 172.225 195.186 172.001 195.531L165.626 205.333L159.455 175.889Z" stroke="white" stroke-width="1.7557"/>
</g>
<path d="M308.534 138.618C308.753 138.399 309.012 138.226 309.298 138.108C309.584 137.99 309.89 137.929 310.199 137.929C310.509 137.929 310.815 137.99 311.101 138.108C311.387 138.226 311.646 138.399 311.865 138.618C312.084 138.836 312.257 139.095 312.376 139.38C312.494 139.666 312.555 139.971 312.555 140.28C312.555 140.589 312.494 140.895 312.376 141.18C312.257 141.465 312.084 141.724 311.865 141.943L300.622 153.165L296.041 154.412L297.291 149.84L308.534 138.618Z" stroke="white" stroke-width="1.66261" stroke-linecap="round" stroke-linejoin="round"/>
<line x1="297.667" y1="156.326" x2="312.384" y2="156.326" stroke="white" stroke-width="1.47174" stroke-linecap="round"/>
<path d="M117.54 55.3213L121.47 44.3569H123.177L127.107 55.3213H125.561L124.664 52.7458H119.983L119.086 55.3213H117.54ZM120.44 51.4212H124.207L122.117 45.4018H122.53L120.44 51.4212ZM131.093 55.4979C130.573 55.4979 130.112 55.4047 129.71 55.2183C129.317 55.022 129.008 54.7571 128.783 54.4235C128.557 54.0801 128.444 53.6877 128.444 53.2461C128.444 52.8242 128.532 52.4465 128.709 52.1129C128.895 51.7695 129.18 51.4801 129.563 51.2446C129.955 51.0091 130.446 50.8423 131.034 50.7442L133.978 50.2585V51.4065L131.343 51.848C130.833 51.9363 130.46 52.0982 130.225 52.3337C129.999 52.5691 129.886 52.8586 129.886 53.202C129.886 53.5258 130.014 53.7956 130.269 54.0114C130.534 54.2273 130.863 54.3352 131.255 54.3352C131.755 54.3352 132.187 54.2322 132.55 54.0262C132.923 53.8103 133.213 53.5209 133.419 53.1578C133.634 52.7948 133.742 52.3925 133.742 51.951V49.9347C133.742 49.503 133.58 49.1547 133.257 48.8898C132.943 48.6151 132.526 48.4777 132.006 48.4777C131.554 48.4777 131.152 48.5955 130.799 48.8309C130.455 49.0566 130.2 49.3608 130.034 49.7434L128.841 49.1253C128.989 48.7623 129.224 48.4385 129.548 48.1539C129.872 47.8596 130.249 47.629 130.681 47.4622C131.113 47.2954 131.564 47.212 132.035 47.212C132.643 47.212 133.178 47.3298 133.639 47.5652C134.1 47.7909 134.459 48.1098 134.714 48.5219C134.979 48.9241 135.111 49.3951 135.111 49.9347V55.3213H133.772V53.8201L134.022 53.9084C133.855 54.2224 133.63 54.4971 133.345 54.7326C133.06 54.9681 132.727 55.1545 132.344 55.2919C131.962 55.4292 131.545 55.4979 131.093 55.4979ZM143.951 55.3213V44.3569H148.558C149.215 44.3569 149.779 44.4746 150.25 44.7101C150.731 44.9456 151.099 45.2791 151.354 45.7109C151.619 46.1328 151.751 46.6381 151.751 47.2267C151.751 47.7664 151.609 48.257 151.325 48.6985C151.05 49.1302 150.643 49.4687 150.103 49.714L150.088 49.1694C150.559 49.346 150.947 49.5815 151.251 49.8759C151.565 50.1604 151.8 50.494 151.957 50.8766C152.114 51.2495 152.193 51.6469 152.193 52.0688C152.193 53.0793 151.869 53.8741 151.222 54.453C150.574 55.0318 149.691 55.3213 148.572 55.3213H143.951ZM145.394 53.9967H148.631C149.269 53.9967 149.779 53.825 150.162 53.4816C150.545 53.1382 150.736 52.6722 150.736 52.0835C150.736 51.4948 150.545 51.0287 150.162 50.6853C149.779 50.3321 149.269 50.1555 148.631 50.1555H145.394V53.9967ZM145.394 48.8604H148.528C149.058 48.8604 149.485 48.7083 149.809 48.4041C150.133 48.0902 150.294 47.6928 150.294 47.212C150.294 46.7116 150.133 46.329 149.809 46.0641C149.485 45.7992 149.058 45.6667 148.528 45.6667H145.394V48.8604ZM160.536 55.3213V47.3886H161.904V55.3213H160.536ZM160.536 46.1229V44.3569H161.904V46.1229H160.536ZM174.576 55.4979C173.781 55.4979 173.075 55.3311 172.457 54.9975C171.848 54.6639 171.372 54.2077 171.029 53.6288C170.695 53.0401 170.529 52.3729 170.529 51.6272V44.3569H171.986V51.5978C171.986 52.0982 172.094 52.5446 172.31 52.9371C172.535 53.3197 172.839 53.619 173.222 53.8348C173.614 54.0507 174.066 54.1586 174.576 54.1586C175.086 54.1586 175.533 54.0507 175.915 53.8348C176.308 53.619 176.612 53.3197 176.828 52.9371C177.053 52.5446 177.166 52.0982 177.166 51.5978V44.3569H178.623V51.6272C178.623 52.3729 178.452 53.0401 178.108 53.6288C177.775 54.2077 177.304 54.6639 176.695 54.9975C176.087 55.3311 175.381 55.4979 174.576 55.4979Z" fill="#9B9393"/>
<path d="M169.381 57.8968H179.771V58.4855H169.381V57.8968Z" fill="#9B9393"/>
<g clip-path="url(#clip2_2680_52475)">
<path d="M204.579 50.1758C204.816 50.4927 205.118 50.7549 205.466 50.9446C205.813 51.1343 206.197 51.2471 206.592 51.2754C206.986 51.3037 207.382 51.2467 207.753 51.1084C208.124 50.9701 208.461 50.7537 208.74 50.4739L210.396 48.8182C210.899 48.2977 211.177 47.6007 211.171 46.8771C211.164 46.1536 210.874 45.4615 210.362 44.9498C209.851 44.4382 209.159 44.148 208.435 44.1417C207.712 44.1354 207.015 44.4136 206.494 44.9162L205.545 45.86" stroke="#9B9393" stroke-width="1.47174" stroke-linecap="round" stroke-linejoin="round"/>
<path d="M206.786 49.0718C206.549 48.755 206.247 48.4928 205.9 48.3031C205.552 48.1133 205.168 48.0005 204.774 47.9723C204.379 47.944 203.983 48.0009 203.612 48.1392C203.241 48.2775 202.905 48.494 202.625 48.7738L200.969 50.4295C200.467 50.95 200.188 51.647 200.195 52.3705C200.201 53.0941 200.491 53.7862 201.003 54.2978C201.515 54.8095 202.207 55.0997 202.93 55.106C203.654 55.1123 204.351 54.8341 204.871 54.3314L205.815 53.3877" stroke="#9B9393" stroke-width="1.47174" stroke-linecap="round" stroke-linejoin="round"/>
</g>
<path d="M257.806 44.104H249.221C248.543 44.104 247.994 44.6531 247.994 45.3304V53.9156C247.994 54.5929 248.543 55.142 249.221 55.142H257.806C258.483 55.142 259.032 54.5929 259.032 53.9156V45.3304C259.032 44.6531 258.483 44.104 257.806 44.104Z" stroke="#9B9393" stroke-width="1.1038" stroke-linecap="round" stroke-linejoin="round"/>
<path d="M251.367 48.3978C251.875 48.3978 252.287 47.986 252.287 47.4779C252.287 46.9699 251.875 46.5581 251.367 46.5581C250.859 46.5581 250.447 46.9699 250.447 47.4779C250.447 47.986 250.859 48.3978 251.367 48.3978Z" stroke="#9B9393" stroke-width="1.1038" stroke-linecap="round" stroke-linejoin="round"/>
<path d="M259.033 51.465L255.967 48.3989L249.222 55.1444" stroke="#9B9393" stroke-width="1.1038" stroke-linecap="round" stroke-linejoin="round"/>
<line x1="226.937" y1="45.2098" x2="235.854" y2="45.2098" stroke="#887D7D" stroke-width="1.47174" stroke-linecap="round"/>
<line x1="222.608" y1="45.2098" x2="223.734" y2="45.2098" stroke="#887D7D" stroke-width="1.47174" stroke-linecap="round"/>
<line x1="222.608" y1="49.6259" x2="223.734" y2="49.6259" stroke="#887D7D" stroke-width="1.47174" stroke-linecap="round"/>
<line x1="222.608" y1="54.039" x2="223.734" y2="54.039" stroke="#887D7D" stroke-width="1.47174" stroke-linecap="round"/>
<line x1="226.937" y1="49.6259" x2="235.854" y2="49.6259" stroke="#887D7D" stroke-width="1.47174" stroke-linecap="round"/>
<line x1="226.937" y1="54.039" x2="235.854" y2="54.039" stroke="#887D7D" stroke-width="1.47174" stroke-linecap="round"/>
<line x1="271.078" y1="45.2098" x2="279.995" y2="45.2098" stroke="#887D7D" stroke-width="1.47174" stroke-linecap="round"/>
<line x1="271.076" y1="49.4138" x2="276.094" y2="49.4138" stroke="#887D7D" stroke-width="1.47174" stroke-linecap="round"/>
<line x1="271.078" y1="54.039" x2="279.995" y2="54.039" stroke="#887D7D" stroke-width="1.47174" stroke-linecap="round"/>
</g>
</g>
<defs>
<filter id="filter0_d_2680_52475" x="28.5228" y="-4.73097" width="311.435" height="210.28" filterUnits="userSpaceOnUse" color-interpolation-filters="sRGB">
<feFlood flood-opacity="0" result="BackgroundImageFix"/>
<feColorMatrix in="SourceAlpha" type="matrix" values="0 0 0 0 0 0 0 0 0 0 0 0 0 0 0 0 0 0 127 0" result="hardAlpha"/>
<feOffset/>
<feGaussianBlur stdDeviation="7.21088"/>
<feComposite in2="hardAlpha" operator="out"/>
<feColorMatrix type="matrix" values="0 0 0 0 0 0 0 0 0 0 0 0 0 0 0 0 0 0 0.2 0"/>
<feBlend mode="normal" in2="BackgroundImageFix" result="effect1_dropShadow_2680_52475"/>
<feBlend mode="normal" in="SourceGraphic" in2="effect1_dropShadow_2680_52475" result="shape"/>
</filter>
<filter id="filter1_bdii_2680_52475" x="-3.97049" y="140.943" width="194.943" height="67.6691" filterUnits="userSpaceOnUse" color-interpolation-filters="sRGB">
<feFlood flood-opacity="0" result="BackgroundImageFix"/>
<feGaussianBlur in="BackgroundImageFix" stdDeviation="6.23949"/>
<feComposite in2="SourceAlpha" operator="in" result="effect1_backgroundBlur_2680_52475"/>
<feColorMatrix in="SourceAlpha" type="matrix" values="0 0 0 0 0 0 0 0 0 0 0 0 0 0 0 0 0 0 127 0" result="hardAlpha"/>
<feOffset dy="2.94347"/>
<feGaussianBlur stdDeviation="5.15107"/>
<feComposite in2="hardAlpha" operator="out"/>
<feColorMatrix type="matrix" values="0 0 0 0 0 0 0 0 0 0 0 0 0 0 0 0 0 0 0.25 0"/>
<feBlend mode="normal" in2="effect1_backgroundBlur_2680_52475" result="effect2_dropShadow_2680_52475"/>
<feBlend mode="normal" in="SourceGraphic" in2="effect2_dropShadow_2680_52475" result="shape"/>
<feColorMatrix in="SourceAlpha" type="matrix" values="0 0 0 0 0 0 0 0 0 0 0 0 0 0 0 0 0 0 127 0" result="hardAlpha"/>
<feOffset dx="-7.17183" dy="7.17183"/>
<feGaussianBlur stdDeviation="3.58591"/>
<feComposite in2="hardAlpha" operator="arithmetic" k2="-1" k3="1"/>
<feColorMatrix type="matrix" values="0 0 0 0 1 0 0 0 0 1 0 0 0 0 1 0 0 0 0.1 0"/>
<feBlend mode="normal" in2="shape" result="effect3_innerShadow_2680_52475"/>
<feColorMatrix in="SourceAlpha" type="matrix" values="0 0 0 0 0 0 0 0 0 0 0 0 0 0 0 0 0 0 127 0" result="hardAlpha"/>
<feOffset dx="7.17183" dy="-7.17183"/>
<feGaussianBlur stdDeviation="3.58591"/>
<feComposite in2="hardAlpha" operator="arithmetic" k2="-1" k3="1"/>
<feColorMatrix type="matrix" values="0 0 0 0 0.670588 0 0 0 0 0.676549 0 0 0 0 0.691451 0 0 0 0.1 0"/>
<feBlend mode="normal" in2="effect3_innerShadow_2680_52475" result="effect4_innerShadow_2680_52475"/>
</filter>
<filter id="filter2_bdii_2680_52475" x="269.531" y="112.813" width="69.3674" height="69.3674" filterUnits="userSpaceOnUse" color-interpolation-filters="sRGB">
<feFlood flood-opacity="0" result="BackgroundImageFix"/>
<feGaussianBlur in="BackgroundImageFix" stdDeviation="9.98318"/>
<feComposite in2="SourceAlpha" operator="in" result="effect1_backgroundBlur_2680_52475"/>
<feColorMatrix in="SourceAlpha" type="matrix" values="0 0 0 0 0 0 0 0 0 0 0 0 0 0 0 0 0 0 127 0" result="hardAlpha"/>
<feOffset dy="2.94347"/>
<feGaussianBlur stdDeviation="3.67934"/>
<feComposite in2="hardAlpha" operator="out"/>
<feColorMatrix type="matrix" values="0 0 0 0 0 0 0 0 0 0 0 0 0 0 0 0 0 0 0.25 0"/>
<feBlend mode="normal" in2="effect1_backgroundBlur_2680_52475" result="effect2_dropShadow_2680_52475"/>
<feBlend mode="normal" in="SourceGraphic" in2="effect2_dropShadow_2680_52475" result="shape"/>
<feColorMatrix in="SourceAlpha" type="matrix" values="0 0 0 0 0 0 0 0 0 0 0 0 0 0 0 0 0 0 127 0" result="hardAlpha"/>
<feOffset dx="-11.4749" dy="11.4749"/>
<feGaussianBlur stdDeviation="5.73746"/>
<feComposite in2="hardAlpha" operator="arithmetic" k2="-1" k3="1"/>
<feColorMatrix type="matrix" values="0 0 0 0 1 0 0 0 0 1 0 0 0 0 1 0 0 0 0.1 0"/>
<feBlend mode="normal" in2="shape" result="effect3_innerShadow_2680_52475"/>
<feColorMatrix in="SourceAlpha" type="matrix" values="0 0 0 0 0 0 0 0 0 0 0 0 0 0 0 0 0 0 127 0" result="hardAlpha"/>
<feOffset dx="11.4749" dy="-11.4749"/>
<feGaussianBlur stdDeviation="5.73746"/>
<feComposite in2="hardAlpha" operator="arithmetic" k2="-1" k3="1"/>
<feColorMatrix type="matrix" values="0 0 0 0 0.670588 0 0 0 0 0.676549 0 0 0 0 0.691451 0 0 0 0.1 0"/>
<feBlend mode="normal" in2="effect3_innerShadow_2680_52475" result="effect4_innerShadow_2680_52475"/>
</filter>
<filter id="filter3_d_2680_52475" x="155.064" y="173.254" width="35.0205" height="38.2235" filterUnits="userSpaceOnUse" color-interpolation-filters="sRGB">
<feFlood flood-opacity="0" result="BackgroundImageFix"/>
<feColorMatrix in="SourceAlpha" type="matrix" values="0 0 0 0 0 0 0 0 0 0 0 0 0 0 0 0 0 0 127 0" result="hardAlpha"/>
<feOffset dy="1.7557"/>
<feGaussianBlur stdDeviation="1.7557"/>
<feColorMatrix type="matrix" values="0 0 0 0 0 0 0 0 0 0 0 0 0 0 0 0 0 0 0.28 0"/>
<feBlend mode="normal" in2="BackgroundImageFix" result="effect1_dropShadow_2680_52475"/>
<feBlend mode="normal" in="SourceGraphic" in2="effect1_dropShadow_2680_52475" result="shape"/>
</filter>
<clipPath id="clip0_2680_52475">
<rect width="336" height="212" fill="white"/>
</clipPath>
<clipPath id="clip1_2680_52475">
<rect width="401.048" height="216.345" fill="white" transform="translate(-21.7007 4)"/>
</clipPath>
<clipPath id="clip2_2680_52475">
<rect width="13.2456" height="13.2456" fill="white" transform="translate(199.059 43.0016)"/>
</clipPath>
</defs>
</svg>
