<svg width="220" height="140" viewBox="0 0 220 140" fill="none" xmlns="http://www.w3.org/2000/svg">
<g clip-path="url(#clip0_2960_98088)">
<g filter="url(#filter0_d_2960_98088)">
<rect x="18.3328" y="8.62695" width="183.328" height="122.219" rx="3.87556" fill="white"/>
</g>
<ellipse cx="27.4991" cy="17.7934" rx="3.05547" ry="3.05547" fill="#DF434C"/>
<ellipse cx="35.1378" cy="17.7934" rx="3.05547" ry="3.05547" fill="#E7B44C"/>
<ellipse cx="42.7765" cy="17.7934" rx="3.05547" ry="3.05547" fill="#6BD280"/>
<rect x="51.9429" y="14.7379" width="143.607" height="6.11093" rx="3.05547" fill="#E1E3E8"/>
<rect x="58.0538" y="43.765" width="137.496" height="64.9287" rx="2.45298" fill="#F2F2F3"/>
<path d="M67.5181 57.9676C67.1057 57.9676 66.7212 57.8938 66.3647 57.7461C66.0133 57.5984 65.7027 57.3922 65.4328 57.1274C65.168 56.8626 64.9592 56.5519 64.8064 56.1955C64.6587 55.839 64.5849 55.4494 64.5849 55.0268C64.5849 54.6041 64.6587 54.2145 64.8064 53.858C64.9592 53.4965 65.168 53.1858 65.4328 52.9261C65.6976 52.6613 66.0082 52.4576 66.3647 52.315C66.7212 52.1673 67.1057 52.0935 67.5181 52.0935C67.9357 52.0935 68.3202 52.1673 68.6716 52.315C69.028 52.4576 69.3387 52.6613 69.6035 52.9261C69.8734 53.1909 70.0822 53.5016 70.2299 53.858C70.3775 54.2145 70.4514 54.6041 70.4514 55.0268C70.4514 55.4494 70.375 55.839 70.2222 56.1955C70.0745 56.5519 69.8683 56.8626 69.6035 57.1274C69.3387 57.3922 69.028 57.5984 68.6716 57.7461C68.3151 57.8938 67.9306 57.9676 67.5181 57.9676ZM67.5181 57.1427C67.8135 57.1427 68.0834 57.0892 68.3278 56.9823C68.5774 56.8753 68.7938 56.7276 68.9771 56.5392C69.1605 56.3457 69.303 56.1216 69.4049 55.867C69.5067 55.6073 69.5577 55.3272 69.5577 55.0268C69.5577 54.7263 69.5067 54.4488 69.4049 54.1941C69.303 53.9395 69.1605 53.7155 68.9771 53.5219C68.7938 53.3284 68.5774 53.1782 68.3278 53.0713C68.0834 52.9643 67.8135 52.9108 67.5181 52.9108C67.2228 52.9108 66.9503 52.9643 66.7008 53.0713C66.4564 53.1782 66.2425 53.3284 66.0592 53.5219C65.8758 53.7155 65.7332 53.9395 65.6314 54.1941C65.5346 54.4488 65.4863 54.7263 65.4863 55.0268C65.4863 55.3272 65.5346 55.6073 65.6314 55.867C65.7332 56.1216 65.8758 56.3457 66.0592 56.5392C66.2425 56.7276 66.4589 56.8753 66.7084 56.9823C66.958 57.0892 67.2279 57.1427 67.5181 57.1427ZM72.8494 57.9676C72.5388 57.9676 72.2663 57.8989 72.0321 57.7614C71.7978 57.6188 71.6145 57.4227 71.4821 57.1732C71.3548 56.9186 71.2911 56.6258 71.2911 56.2948V53.7435H72.1543V56.2184C72.1543 56.4068 72.1925 56.5723 72.2689 56.7149C72.3452 56.8575 72.4522 56.9695 72.5897 57.051C72.7272 57.1274 72.885 57.1656 73.0633 57.1656C73.2466 57.1656 73.407 57.1248 73.5445 57.0434C73.682 56.9619 73.7889 56.8473 73.8653 56.6996C73.9468 56.5519 73.9876 56.3788 73.9876 56.1802V53.7435H74.8431V57.876H74.0257V57.0663L74.1174 57.1732C74.0207 57.4278 73.8602 57.6239 73.6362 57.7614C73.4121 57.8989 73.1498 57.9676 72.8494 57.9676ZM75.8509 57.876V53.7435H76.6759V54.5761L76.5995 54.4539C76.6912 54.184 76.8388 53.9904 77.0425 53.8733C77.2462 53.7511 77.4907 53.69 77.7759 53.69H78.0279V54.4768H77.6689C77.3837 54.4768 77.152 54.5659 76.9738 54.7441C76.8006 54.9173 76.7141 55.1668 76.7141 55.4927V57.876H75.8509ZM80.0377 57.876V52.1852H82.1078C82.4897 52.1852 82.8258 52.2565 83.1161 52.3991C83.4064 52.5365 83.633 52.7402 83.796 53.0101C83.964 53.275 84.048 53.5932 84.048 53.965C84.048 54.3571 83.9487 54.6932 83.7501 54.9733C83.5566 55.2534 83.2943 55.4571 82.9633 55.5844L84.2772 57.876H83.2536L81.8557 55.3934L82.4439 55.7372H80.9391V57.876H80.0377ZM80.9391 54.9351H82.1231C82.3319 54.9351 82.5127 54.8944 82.6654 54.8129C82.8182 54.7314 82.9353 54.6194 83.0168 54.4768C83.1034 54.3291 83.1467 54.1559 83.1467 53.9573C83.1467 53.7587 83.1034 53.5881 83.0168 53.4456C82.9353 53.2979 82.8182 53.1858 82.6654 53.1094C82.5127 53.028 82.3319 52.9872 82.1231 52.9872H80.9391V54.9351ZM86.6606 57.9676C86.2481 57.9676 85.8815 57.8734 85.5607 57.685C85.2449 57.4915 84.9979 57.2318 84.8197 56.9059C84.6415 56.5749 84.5524 56.2057 84.5524 55.7983C84.5524 55.3807 84.6415 55.0115 84.8197 54.6907C85.003 54.3698 85.2475 54.1178 85.553 53.9344C85.8586 53.746 86.2049 53.6518 86.5919 53.6518C86.9025 53.6518 87.1801 53.7053 87.4245 53.8122C87.6689 53.9191 87.8752 54.0668 88.0432 54.2552C88.2113 54.4386 88.3386 54.6499 88.4252 54.8893C88.5168 55.1286 88.5627 55.3832 88.5627 55.6531C88.5627 55.7193 88.5601 55.7881 88.555 55.8594C88.5499 55.9307 88.5397 55.9969 88.5245 56.058H85.2322V55.3705H88.0356L87.6231 55.6837C87.674 55.4341 87.6562 55.2126 87.5696 55.0191C87.4882 54.8205 87.3608 54.6652 87.1877 54.5532C87.0196 54.436 86.821 54.3775 86.5919 54.3775C86.3627 54.3775 86.159 54.436 85.9808 54.5532C85.8026 54.6652 85.6651 54.8281 85.5683 55.042C85.4715 55.2508 85.4334 55.5054 85.4537 55.8059C85.4283 56.086 85.4665 56.3304 85.5683 56.5392C85.6752 56.748 85.8229 56.911 86.0113 57.0281C86.2049 57.1452 86.4238 57.2038 86.6683 57.2038C86.9178 57.2038 87.1291 57.1478 87.3023 57.0357C87.4805 56.9237 87.6206 56.7786 87.7224 56.6003L88.4252 56.9441C88.3437 57.1376 88.2164 57.3133 88.0432 57.4711C87.8752 57.6239 87.6715 57.7461 87.4321 57.8378C87.1979 57.9244 86.9407 57.9676 86.6606 57.9676ZM91.1925 57.9218C90.7597 57.9218 90.4235 57.7996 90.1842 57.5552C89.9449 57.3107 89.8252 56.967 89.8252 56.5239V54.5226H89.0995V53.7435H89.2141C89.4076 53.7435 89.5578 53.6874 89.6648 53.5754C89.7717 53.4634 89.8252 53.3106 89.8252 53.1171V52.7963H90.6884V53.7435H91.6279V54.5226H90.6884V56.4857C90.6884 56.6283 90.7113 56.7505 90.7571 56.8524C90.8029 56.9492 90.8768 57.0255 90.9786 57.0816C91.0805 57.1325 91.2129 57.1579 91.3758 57.1579C91.4166 57.1579 91.4624 57.1554 91.5133 57.1503C91.5643 57.1452 91.6126 57.1401 91.6585 57.135V57.876C91.5872 57.8862 91.5082 57.8963 91.4217 57.9065C91.3351 57.9167 91.2587 57.9218 91.1925 57.9218ZM93.9751 57.9676C93.6644 57.9676 93.392 57.8989 93.1577 57.7614C92.9235 57.6188 92.7402 57.4227 92.6078 57.1732C92.4804 56.9186 92.4168 56.6258 92.4168 56.2948V53.7435H93.28V56.2184C93.28 56.4068 93.3181 56.5723 93.3945 56.7149C93.4709 56.8575 93.5779 56.9695 93.7154 57.051C93.8529 57.1274 94.0107 57.1656 94.189 57.1656C94.3723 57.1656 94.5327 57.1248 94.6702 57.0434C94.8077 56.9619 94.9146 56.8473 94.991 56.6996C95.0725 56.5519 95.1132 56.3788 95.1132 56.1802V53.7435H95.9688V57.876H95.1514V57.0663L95.2431 57.1732C95.1463 57.4278 94.9859 57.6239 94.7619 57.7614C94.5378 57.8989 94.2755 57.9676 93.9751 57.9676ZM96.9766 57.876V53.7435H97.8016V54.5761L97.7252 54.4539C97.8168 54.184 97.9645 53.9904 98.1682 53.8733C98.3719 53.7511 98.6164 53.69 98.9015 53.69H99.1536V54.4768H98.7946C98.5094 54.4768 98.2777 54.5659 98.0995 54.7441C97.9263 54.9173 97.8398 55.1668 97.8398 55.4927V57.876H96.9766ZM99.7441 57.876V53.7435H100.569V54.5532L100.47 54.4462C100.572 54.1865 100.735 53.9904 100.959 53.858C101.183 53.7205 101.442 53.6518 101.738 53.6518C102.043 53.6518 102.313 53.718 102.548 53.8504C102.782 53.9828 102.965 54.1661 103.097 54.4004C103.23 54.6346 103.296 54.9045 103.296 55.2101V57.876H102.441V55.4392C102.441 55.2305 102.402 55.0548 102.326 54.9122C102.25 54.7645 102.14 54.6525 101.998 54.5761C101.86 54.4946 101.702 54.4539 101.524 54.4539C101.346 54.4539 101.185 54.4946 101.043 54.5761C100.905 54.6525 100.798 54.7645 100.722 54.9122C100.645 55.0599 100.607 55.2355 100.607 55.4392V57.876H99.7441ZM105.639 57.876V52.1852H107.709C108.091 52.1852 108.427 52.2565 108.718 52.3991C109.013 52.5365 109.242 52.7402 109.405 53.0101C109.568 53.275 109.649 53.5932 109.649 53.965C109.649 54.3316 109.565 54.6474 109.397 54.9122C109.234 55.177 109.008 55.3807 108.718 55.5233C108.427 55.6659 108.091 55.7372 107.709 55.7372H106.541V57.876H105.639ZM106.541 54.9351H107.732C107.936 54.9351 108.114 54.8944 108.267 54.8129C108.42 54.7314 108.539 54.6194 108.626 54.4768C108.712 54.3291 108.756 54.1559 108.756 53.9573C108.756 53.7587 108.712 53.5881 108.626 53.4456C108.539 53.2979 108.42 53.1858 108.267 53.1094C108.114 53.028 107.936 52.9872 107.732 52.9872H106.541V54.9351ZM112.338 57.9676C111.941 57.9676 111.577 57.8734 111.246 57.685C110.92 57.4966 110.66 57.2394 110.466 56.9135C110.273 56.5876 110.176 56.2184 110.176 55.8059C110.176 55.3883 110.273 55.0191 110.466 54.6983C110.66 54.3724 110.92 54.1178 111.246 53.9344C111.572 53.746 111.936 53.6518 112.338 53.6518C112.745 53.6518 113.109 53.746 113.43 53.9344C113.756 54.1178 114.013 54.3724 114.202 54.6983C114.395 55.0191 114.492 55.3883 114.492 55.8059C114.492 56.2235 114.395 56.5952 114.202 56.9211C114.008 57.2471 113.749 57.5042 113.423 57.6926C113.097 57.876 112.735 57.9676 112.338 57.9676ZM112.338 57.1656C112.582 57.1656 112.799 57.107 112.987 56.9899C113.176 56.8728 113.323 56.7124 113.43 56.5087C113.542 56.2999 113.598 56.0656 113.598 55.8059C113.598 55.5462 113.542 55.3145 113.43 55.1108C113.323 54.9071 113.176 54.7467 112.987 54.6295C112.799 54.5124 112.582 54.4539 112.338 54.4539C112.099 54.4539 111.882 54.5124 111.689 54.6295C111.5 54.7467 111.35 54.9071 111.238 55.1108C111.131 55.3145 111.078 55.5462 111.078 55.8059C111.078 56.0656 111.131 56.2999 111.238 56.5087C111.35 56.7124 111.5 56.8728 111.689 56.9899C111.882 57.107 112.099 57.1656 112.338 57.1656ZM115.335 57.876V52.0935H116.198V57.876H115.335ZM117.207 57.876V53.7435H118.07V57.876H117.207ZM117.207 53.1782V52.1852H118.07V53.1782H117.207ZM121.043 57.9676C120.63 57.9676 120.263 57.8734 119.943 57.685C119.627 57.4915 119.375 57.2318 119.186 56.9059C119.003 56.5799 118.911 56.2107 118.911 55.7983C118.911 55.3909 119.003 55.0242 119.186 54.6983C119.37 54.3724 119.622 54.1178 119.943 53.9344C120.263 53.746 120.63 53.6518 121.043 53.6518C121.323 53.6518 121.585 53.7027 121.829 53.8046C122.074 53.9013 122.285 54.0363 122.463 54.2094C122.647 54.3826 122.782 54.5837 122.868 54.8129L122.112 55.1643C122.025 54.9504 121.885 54.7798 121.692 54.6525C121.503 54.5201 121.287 54.4539 121.043 54.4539C120.808 54.4539 120.597 54.5124 120.409 54.6295C120.225 54.7416 120.08 54.902 119.973 55.1108C119.866 55.3145 119.813 55.5462 119.813 55.8059C119.813 56.0656 119.866 56.2999 119.973 56.5087C120.08 56.7124 120.225 56.8728 120.409 56.9899C120.597 57.107 120.808 57.1656 121.043 57.1656C121.292 57.1656 121.509 57.1019 121.692 56.9746C121.88 56.8422 122.02 56.6665 122.112 56.4475L122.868 56.8066C122.787 57.0255 122.654 57.2241 122.471 57.4024C122.293 57.5755 122.081 57.713 121.837 57.8149C121.593 57.9167 121.328 57.9676 121.043 57.9676ZM124.079 59.5641C123.977 59.5641 123.875 59.5539 123.773 59.5336C123.676 59.5183 123.587 59.4928 123.506 59.4572V58.7162C123.567 58.7315 123.641 58.7442 123.727 58.7544C123.814 58.7697 123.898 58.7773 123.979 58.7773C124.219 58.7773 124.394 58.7239 124.506 58.6169C124.623 58.5151 124.728 58.3547 124.82 58.1357L125.095 57.5093L125.079 58.235L123.292 53.7435H124.216L125.538 57.1885H125.224L126.538 53.7435H127.47L125.644 58.3267C125.548 58.5711 125.426 58.785 125.278 58.9683C125.135 59.1567 124.965 59.3019 124.766 59.4037C124.573 59.5107 124.343 59.5641 124.079 59.5641Z" fill="#5D6164"/>
<rect x="64.1648" y="73.5558" width="73.3312" height="3.05547" rx="1.52773" fill="#B9C2D0"/>
<rect x="64.1648" y="79.6667" width="73.3312" height="3.05547" rx="1.52773" fill="#B9C2D0"/>
<rect x="64.1648" y="65.9171" width="106.941" height="4.5832" rx="2.2916" fill="#B9C2D0"/>
<rect x="24.4437" y="26.96" width="27.4992" height="9.1664" rx="4.5832" fill="#F2F2F3"/>
<path d="M38.0182 33.5432V29.6994H37.1382V28.9906H38.8493V33.5432H38.0182Z" fill="#5D6164"/>
<rect x="24.4437" y="39.1816" width="27.4992" height="9.1664" rx="4.5832" fill="#F2F2F3"/>
<path d="M36.6513 45.7649V45.1355L37.8857 43.8461C38.1301 43.5894 38.3175 43.3857 38.4479 43.235C38.5824 43.0802 38.6761 42.9478 38.729 42.8378C38.782 42.7278 38.8085 42.6157 38.8085 42.5017C38.8085 42.3102 38.7473 42.1594 38.6251 42.0494C38.507 41.9394 38.3542 41.8845 38.1668 41.8845C37.9713 41.8845 37.8022 41.9415 37.6596 42.0556C37.517 42.1656 37.4131 42.3285 37.3479 42.5444L36.6207 42.3183C36.6696 42.078 36.7694 41.8702 36.9202 41.695C37.0709 41.5158 37.2542 41.3793 37.4702 41.2856C37.6902 41.1878 37.9224 41.1389 38.1668 41.1389C38.4601 41.1389 38.7168 41.1919 38.9368 41.2978C39.1609 41.4037 39.334 41.5524 39.4562 41.7439C39.5825 41.9354 39.6457 42.1594 39.6457 42.4161C39.6457 42.5791 39.6151 42.74 39.554 42.8989C39.4929 43.0577 39.4012 43.2207 39.279 43.3877C39.1568 43.5507 38.9979 43.734 38.8023 43.9377L37.7329 45.0621H39.7068V45.7649H36.6513Z" fill="#5D6164"/>
<rect x="24.4437" y="51.4036" width="27.4992" height="9.1664" rx="4.5832" fill="#F2CA55"/>
<path d="M38.1159 58.0601C37.8674 58.0601 37.6311 58.0153 37.4071 57.9257C37.1871 57.832 36.9976 57.7016 36.8388 57.5346C36.6839 57.3635 36.578 57.1618 36.521 56.9296L37.2482 56.673C37.3215 56.8807 37.4336 57.0396 37.5843 57.1496C37.735 57.2555 37.9122 57.3085 38.1159 57.3085C38.2789 57.3085 38.4194 57.2779 38.5376 57.2168C38.6598 57.1557 38.7556 57.0681 38.8248 56.9541C38.8941 56.8359 38.9287 56.6974 38.9287 56.5385C38.9287 56.3796 38.8941 56.2452 38.8248 56.1352C38.7596 56.0211 38.6659 55.9335 38.5437 55.8724C38.4215 55.8113 38.2769 55.7808 38.1098 55.7808C38.0324 55.7808 37.9509 55.7889 37.8654 55.8052C37.7839 55.8215 37.7106 55.846 37.6454 55.8785L37.456 55.4813L38.6354 54.1369H36.7776V53.4342H39.5703V54.088L38.3848 55.4752L38.397 55.1636C38.67 55.1676 38.9083 55.2267 39.112 55.3408C39.3157 55.4549 39.4746 55.6117 39.5887 55.8113C39.7027 56.0109 39.7598 56.2452 39.7598 56.5141C39.7598 56.8074 39.6885 57.0722 39.5459 57.3085C39.4033 57.5407 39.2078 57.724 38.9592 57.8585C38.7107 57.9929 38.4296 58.0601 38.1159 58.0601Z" fill="#3F4346"/>
<rect x="24.4437" y="63.6252" width="27.4992" height="9.1664" rx="4.5832" fill="#F2F2F3"/>
<path d="M38.5041 70.2085V69.2063H36.4141V68.5097L38.4552 65.6559H39.3229V68.5097H39.989V69.2063H39.3229V70.2085H38.5041ZM37.0252 68.8091L36.8786 68.5097H38.5041V66.3097L38.718 66.3769L37.0252 68.8091Z" fill="#5D6164"/>
<rect x="24.4437" y="75.8472" width="27.4992" height="9.1664" rx="4.5832" fill="#F2F2F3"/>
<path d="M38.1284 82.5038C37.8881 82.5038 37.6579 82.4589 37.4379 82.3693C37.222 82.2797 37.0346 82.1534 36.8757 81.9904C36.7209 81.8234 36.615 81.6258 36.5579 81.3977L37.279 81.141C37.3483 81.3488 37.4603 81.5036 37.6151 81.6054C37.7699 81.7032 37.941 81.7521 38.1284 81.7521C38.2833 81.7521 38.4197 81.7195 38.5379 81.6543C38.6601 81.5851 38.7538 81.4914 38.819 81.3732C38.8842 81.251 38.9168 81.1105 38.9168 80.9516C38.9168 80.7927 38.8821 80.6542 38.8129 80.536C38.7477 80.4179 38.656 80.3262 38.5379 80.261C38.4197 80.1918 38.2833 80.1572 38.1284 80.1572C37.9696 80.1572 37.8249 80.1918 37.6946 80.261C37.5683 80.3303 37.4766 80.4301 37.4196 80.5605L36.7413 80.4077L37.1018 77.8778H39.5828V78.5805H37.4318L37.7435 78.22L37.4868 80.1266L37.2485 79.931C37.3625 79.764 37.5011 79.6418 37.664 79.5644C37.831 79.487 38.0327 79.4483 38.269 79.4483C38.5705 79.4483 38.8312 79.5135 39.0512 79.6438C39.2753 79.7742 39.4484 79.9514 39.5706 80.1755C39.6928 80.3996 39.754 80.6582 39.754 80.9516C39.754 81.2449 39.6827 81.5097 39.5401 81.746C39.3975 81.9823 39.204 82.1676 38.9595 82.3021C38.7151 82.4365 38.4381 82.5038 38.1284 82.5038Z" fill="#5D6164"/>
<rect x="2.61896" y="100.509" width="67.3561" height="19.8569" rx="9.92846" fill="#F2CA55"/>
<path d="M15.5501 106.509H22.4249V107.491H15.5501V106.509ZM15.5501 111.42H17.5144V114.366H20.4607V111.42H22.4249L18.9875 107.982L15.5501 111.42ZM19.4786 110.437V113.384H18.4965V110.437H17.9219L18.9875 109.372L20.0531 110.437H19.4786Z" fill="#3F4346"/>
<path d="M28.2085 114.438V107.609H30.6926C31.151 107.609 31.5543 107.694 31.9026 107.865C32.257 108.03 32.532 108.275 32.7276 108.599C32.9231 108.916 33.0209 109.298 33.0209 109.744C33.0209 110.184 32.9201 110.563 32.7184 110.881C32.5229 111.199 32.2509 111.443 31.9026 111.614C31.5543 111.785 31.151 111.871 30.6926 111.871H29.2902V114.438H28.2085ZM29.2902 110.908H30.7201C30.9646 110.908 31.1785 110.86 31.3618 110.762C31.5451 110.664 31.6887 110.53 31.7926 110.358C31.8965 110.181 31.9484 109.973 31.9484 109.735C31.9484 109.497 31.8965 109.292 31.7926 109.121C31.6887 108.944 31.5451 108.809 31.3618 108.718C31.1785 108.62 30.9646 108.571 30.7201 108.571H29.2902V110.908ZM35.8028 114.547C35.43 114.547 35.1031 114.465 34.822 114.3C34.5409 114.129 34.3209 113.894 34.162 113.594C34.0092 113.289 33.9328 112.937 33.9328 112.54V109.478H34.9686V112.448C34.9686 112.674 35.0145 112.873 35.1061 113.044C35.1978 113.215 35.3261 113.35 35.4911 113.448C35.6561 113.539 35.8455 113.585 36.0594 113.585C36.2794 113.585 36.4719 113.536 36.6369 113.438C36.8019 113.341 36.9302 113.203 37.0219 113.026C37.1197 112.849 37.1686 112.641 37.1686 112.403V109.478H38.1952V114.438H37.2144V113.466L37.3244 113.594C37.2083 113.9 37.0158 114.135 36.7469 114.3C36.478 114.465 36.1633 114.547 35.8028 114.547ZM42.0537 114.547C41.6687 114.547 41.3173 114.468 40.9995 114.309C40.6879 114.15 40.4465 113.921 40.2754 113.622L40.3946 113.429V114.438H39.4046V107.499H40.4404V110.505L40.2754 110.267C40.4587 109.986 40.7032 109.766 41.0087 109.607C41.3143 109.448 41.6626 109.368 42.0537 109.368C42.5242 109.368 42.9459 109.482 43.3186 109.708C43.6975 109.934 43.9939 110.242 44.2078 110.633C44.4278 111.025 44.5378 111.465 44.5378 111.953C44.5378 112.442 44.4278 112.882 44.2078 113.273C43.9939 113.664 43.7006 113.976 43.3278 114.208C42.955 114.434 42.5303 114.547 42.0537 114.547ZM41.9528 113.585C42.2462 113.585 42.5059 113.515 42.732 113.374C42.9581 113.234 43.1353 113.041 43.2636 112.797C43.3981 112.546 43.4653 112.265 43.4653 111.953C43.4653 111.642 43.3981 111.364 43.2636 111.119C43.1353 110.875 42.9581 110.682 42.732 110.542C42.5059 110.401 42.2462 110.331 41.9528 110.331C41.6656 110.331 41.4059 110.401 41.1737 110.542C40.9476 110.682 40.7673 110.875 40.6329 111.119C40.5046 111.364 40.4404 111.642 40.4404 111.953C40.4404 112.265 40.5046 112.546 40.6329 112.797C40.7673 113.041 40.9476 113.234 41.1737 113.374C41.4059 113.515 41.6656 113.585 41.9528 113.585ZM45.5454 114.438V107.499H46.5812V114.438H45.5454ZM47.7922 114.438V109.478H48.828V114.438H47.7922ZM47.7922 108.8V107.609H48.828V108.8H47.7922ZM51.8723 114.547C51.3651 114.547 50.919 114.422 50.534 114.172C50.1552 113.921 49.8893 113.585 49.7366 113.163L50.534 112.788C50.6685 113.069 50.8518 113.292 51.084 113.457C51.3223 113.622 51.5851 113.704 51.8723 113.704C52.1168 113.704 52.3154 113.649 52.4681 113.539C52.6209 113.429 52.6973 113.279 52.6973 113.09C52.6973 112.968 52.6637 112.87 52.5965 112.797C52.5292 112.717 52.4437 112.653 52.3398 112.604C52.242 112.555 52.1412 112.519 52.0373 112.494L51.2582 112.274C50.8304 112.152 50.5096 111.969 50.2957 111.724C50.0879 111.474 49.984 111.183 49.984 110.853C49.984 110.554 50.0604 110.294 50.2132 110.074C50.366 109.848 50.5768 109.674 50.8457 109.552C51.1146 109.43 51.4171 109.368 51.7532 109.368C52.2054 109.368 52.6087 109.482 52.9631 109.708C53.3176 109.928 53.5681 110.236 53.7148 110.633L52.9173 111.009C52.8195 110.771 52.6637 110.582 52.4498 110.441C52.242 110.3 52.0068 110.23 51.744 110.23C51.5179 110.23 51.3376 110.285 51.2032 110.395C51.0687 110.499 51.0015 110.636 51.0015 110.808C51.0015 110.924 51.0321 111.021 51.0932 111.101C51.1543 111.174 51.2337 111.235 51.3315 111.284C51.4293 111.327 51.5301 111.364 51.634 111.394L52.4406 111.633C52.8501 111.749 53.1648 111.932 53.3848 112.183C53.6048 112.427 53.7148 112.72 53.7148 113.063C53.7148 113.356 53.6353 113.616 53.4764 113.842C53.3237 114.062 53.1098 114.236 52.8348 114.364C52.5598 114.486 52.239 114.547 51.8723 114.547ZM54.7297 114.438V107.499H55.7655V110.45L55.6005 110.322C55.7227 110.01 55.9182 109.775 56.1871 109.616C56.456 109.451 56.7677 109.368 57.1221 109.368C57.4887 109.368 57.8126 109.448 58.0937 109.607C58.3748 109.766 58.5948 109.986 58.7537 110.267C58.9126 110.548 58.992 110.869 58.992 111.229V114.438H57.9654V111.513C57.9654 111.263 57.9165 111.052 57.8187 110.881C57.7271 110.704 57.5987 110.569 57.4337 110.478C57.2688 110.38 57.0793 110.331 56.8654 110.331C56.6577 110.331 56.4682 110.38 56.2971 110.478C56.1321 110.569 56.0007 110.704 55.903 110.881C55.8113 111.058 55.7655 111.269 55.7655 111.513V114.438H54.7297Z" fill="#3F4346"/>
<rect x="190.53" y="50.094" width="22.2613" height="22.2613" rx="11.1306" fill="#FDF4E2"/>
<path d="M197.209 59.5059H202.61V60.488H197.209V59.5059ZM197.209 58.5237H202.61V57.5416H197.209V58.5237ZM197.209 62.4522H200.646V61.4701H197.209V62.4522ZM204.579 60.9152L204.928 60.5665C205.12 60.375 205.429 60.375 205.62 60.5665L205.969 60.9152C206.161 61.1067 206.161 61.4161 205.969 61.6076L205.62 61.9562L204.579 60.9152ZM204.231 61.2638L201.628 63.8664V64.9075H202.669L205.272 62.3049L204.231 61.2638Z" fill="#8C5D00"/>
<path d="M61.8414 28.9651V30.3019H64.0693V35.6489H65.4061V30.3019H67.634V28.9651H61.8414ZM59.1678 32.5298H60.5046V35.6489H61.8414V32.5298H63.1781V31.193H59.1678V32.5298Z" fill="#5D6164"/>
<path d="M80.1153 32.2134C80.5475 31.9149 80.8505 31.4247 80.8505 30.9702C80.8505 29.9632 80.0707 29.1879 79.0682 29.1879H76.2832V35.4261H79.4202C80.3515 35.4261 81.0733 34.6686 81.0733 33.7373C81.0733 33.06 80.6901 32.4808 80.1153 32.2134ZM77.62 30.3018H78.9568C79.3266 30.3018 79.6251 30.6004 79.6251 30.9702C79.6251 31.3401 79.3266 31.6386 78.9568 31.6386H77.62V30.3018ZM79.1796 34.3121H77.62V32.9754H79.1796C79.5494 32.9754 79.8479 33.2739 79.8479 33.6438C79.8479 34.0136 79.5494 34.3121 79.1796 34.3121Z" fill="#5D6164"/>
<path d="M93.0644 29.1879V30.5246H94.0491L92.5252 34.0893H91.282V35.4261H94.8468V34.0893H93.862L95.3859 30.5246H96.6291V29.1879H93.0644Z" fill="#5D6164"/>
<path d="M109.233 34.535C110.708 34.535 111.906 33.3364 111.906 31.8615V28.2968H110.793V31.8615C110.793 32.7214 110.093 33.421 109.233 33.421C108.373 33.421 107.673 32.7214 107.673 31.8615V28.2968H106.559V31.8615C106.559 33.3364 107.758 34.535 109.233 34.535ZM106.114 35.4262V36.3174H112.352V35.4262H106.114Z" fill="#5D6164"/>
<path d="M120.901 32.307C120.901 31.5451 121.52 30.9257 122.282 30.9257H124.065V30.0791H122.282C121.053 30.0791 120.054 31.0772 120.054 32.307C120.054 33.5369 121.053 34.535 122.282 34.535H124.065V33.6884H122.282C121.52 33.6884 120.901 33.069 120.901 32.307ZM122.728 32.7526H126.293V31.8615H122.728V32.7526ZM126.738 30.0791H124.956V30.9257H126.738C127.5 30.9257 128.12 31.5451 128.12 32.307C128.12 33.069 127.5 33.6884 126.738 33.6884H124.956V34.535H126.738C127.968 34.535 128.966 33.5369 128.966 32.307C128.966 31.0772 127.968 30.0791 126.738 30.0791Z" fill="#5D6164"/>
<path d="M136.334 31.6386C135.964 31.6386 135.666 31.9372 135.666 32.307C135.666 32.6768 135.964 32.9754 136.334 32.9754C136.704 32.9754 137.003 32.6768 137.003 32.307C137.003 31.9372 136.704 31.6386 136.334 31.6386ZM136.334 28.9651C135.964 28.9651 135.666 29.2636 135.666 29.6335C135.666 30.0033 135.964 30.3019 136.334 30.3019C136.704 30.3019 137.003 30.0033 137.003 29.6335C137.003 29.2636 136.704 28.9651 136.334 28.9651ZM136.334 34.3122C135.964 34.3122 135.666 34.6152 135.666 34.9805C135.666 35.3459 135.969 35.6489 136.334 35.6489C136.7 35.6489 137.003 35.3459 137.003 34.9805C137.003 34.6152 136.704 34.3122 136.334 34.3122ZM137.671 35.4261H143.909V34.5349H137.671V35.4261ZM137.671 32.7526H143.909V31.8614H137.671V32.7526ZM137.671 29.1879V30.0791H143.909V29.1879H137.671Z" fill="#5D6164"/>
<path d="M158.184 29.1879V35.4262H151.946V29.1879H158.184ZM158.184 28.2968H151.946C151.456 28.2968 151.055 28.6978 151.055 29.1879V35.4262C151.055 35.9163 151.456 36.3174 151.946 36.3174H158.184C158.674 36.3174 159.075 35.9163 159.075 35.4262V29.1879C159.075 28.6978 158.674 28.2968 158.184 28.2968ZM156.018 32.2447L154.682 33.9691L153.728 32.815L152.391 34.535H157.738L156.018 32.2447Z" fill="#5D6164"/>
</g>
<defs>
<filter id="filter0_d_2960_98088" x="8.66524" y="1.37631" width="202.663" height="141.554" filterUnits="userSpaceOnUse" color-interpolation-filters="sRGB">
<feFlood flood-opacity="0" result="BackgroundImageFix"/>
<feColorMatrix in="SourceAlpha" type="matrix" values="0 0 0 0 0 0 0 0 0 0 0 0 0 0 0 0 0 0 127 0" result="hardAlpha"/>
<feOffset dy="2.41688"/>
<feGaussianBlur stdDeviation="4.83376"/>
<feComposite in2="hardAlpha" operator="out"/>
<feColorMatrix type="matrix" values="0 0 0 0 0 0 0 0 0 0 0 0 0 0 0 0 0 0 0.25 0"/>
<feBlend mode="normal" in2="BackgroundImageFix" result="effect1_dropShadow_2960_98088"/>
<feBlend mode="normal" in="SourceGraphic" in2="effect1_dropShadow_2960_98088" result="shape"/>
</filter>
<clipPath id="clip0_2960_98088">
<rect width="220" height="138.81" fill="white" transform="translate(0 0.333496)"/>
</clipPath>
</defs>
</svg>
