<svg width="20" height="20" viewBox="0 0 20 20" fill="none" xmlns="http://www.w3.org/2000/svg">
<path d="M9.99163 1.66667C5.39163 1.66667 1.66663 5.4 1.66663 10C1.66663 14.6 5.39163 18.3333 9.99163 18.3333C14.6 18.3333 18.3333 14.6 18.3333 10C18.3333 5.4 14.6 1.66667 9.99163 1.66667ZM15.7666 6.66667H13.3083C13.0416 5.625 12.6583 4.625 12.1583 3.7C13.6916 4.225 14.9666 5.29167 15.7666 6.66667ZM9.99996 3.36667C10.6916 4.36667 11.2333 5.475 11.5916 6.66667H8.40829C8.76663 5.475 9.30829 4.36667 9.99996 3.36667ZM3.54996 11.6667C3.41663 11.1333 3.33329 10.575 3.33329 10C3.33329 9.425 3.41663 8.86667 3.54996 8.33333H6.36663C6.29996 8.88333 6.24996 9.43333 6.24996 10C6.24996 10.5667 6.29996 11.1167 6.36663 11.6667H3.54996ZM4.23329 13.3333H6.69163C6.95829 14.375 7.34163 15.375 7.84163 16.3C6.30829 15.775 5.03329 14.7167 4.23329 13.3333ZM6.69163 6.66667H4.23329C5.03329 5.28333 6.30829 4.225 7.84163 3.7C7.34163 4.625 6.95829 5.625 6.69163 6.66667ZM9.99996 16.6333C9.30829 15.6333 8.76663 14.525 8.40829 13.3333H11.5916C11.2333 14.525 10.6916 15.6333 9.99996 16.6333ZM11.95 11.6667H8.04996C7.97496 11.1167 7.91663 10.5667 7.91663 10C7.91663 9.43333 7.97496 8.875 8.04996 8.33333H11.95C12.025 8.875 12.0833 9.43333 12.0833 10C12.0833 10.5667 12.025 11.1167 11.95 11.6667ZM12.1583 16.3C12.6583 15.375 13.0416 14.375 13.3083 13.3333H15.7666C14.9666 14.7083 13.6916 15.775 12.1583 16.3ZM13.6333 11.6667C13.7 11.1167 13.75 10.5667 13.75 10C13.75 9.43333 13.7 8.88333 13.6333 8.33333H16.45C16.5833 8.86667 16.6666 9.425 16.6666 10C16.6666 10.575 16.5833 11.1333 16.45 11.6667H13.6333Z" fill="#3F4346"/>
</svg>
