<svg width="19" height="21" viewBox="0 0 19 21" fill="none" xmlns="http://www.w3.org/2000/svg">
<path fillRule="evenodd" clip-rule="evenodd" d="M13.0851 4.60714C13.6121 4.69714 13.7311 5.27814 13.3421 5.90714C13.1915 6.15497 12.9908 6.36857 12.7528 6.53424C12.5148 6.69991 12.2448 6.81399 11.9601 6.86914L9.49309 9.24914C9.43109 10.0311 8.39909 10.9961 7.62409 10.8281C6.74609 10.6381 7.32409 9.49214 7.77109 9.07414L7.60109 7.71614C7.50344 7.73603 7.40264 7.73453 7.30562 7.71174C7.20861 7.68896 7.11768 7.64542 7.03909 7.58414L5.08509 8.67914C4.85309 9.28614 4.03209 10.0441 3.35709 9.89814C2.87809 9.79814 2.80009 9.22414 3.18109 8.62114C3.3469 8.36156 3.56443 8.13893 3.82009 7.96714L4.22009 6.34914L4.16209 6.34014C3.68509 6.24814 3.60509 5.69314 3.98109 5.10114C4.17399 4.80044 4.43592 4.55016 4.74509 4.37114L5.18509 2.88614C4.82809 2.73614 4.77709 2.27514 5.12909 1.72014C5.28714 1.45016 5.51038 1.22412 5.77836 1.0627C6.04635 0.901275 6.35053 0.809629 6.66309 0.796143C7.14209 0.870143 7.23509 1.40914 6.86309 1.99614C6.68342 2.27516 6.44441 2.5111 6.16309 2.68714L5.70809 4.24614C6.02909 4.42414 6.05009 4.90814 5.72409 5.42314C5.59181 5.6305 5.42626 5.81464 5.23409 5.96814L4.79609 7.72314C4.83315 7.73373 4.86901 7.74814 4.90309 7.76614L7.01609 6.58014C7.04076 6.53214 7.06842 6.48348 7.09909 6.43414C7.2584 6.15019 7.49077 5.91403 7.77211 5.75015C8.05345 5.58628 8.37351 5.50065 8.69909 5.50214C9.19909 5.59414 9.30409 6.16514 8.91909 6.77814C8.79076 6.98071 8.63072 7.16134 8.44509 7.31314C8.50042 7.73914 8.55542 8.16548 8.61009 8.59214C8.71675 8.56445 8.82704 8.55332 8.93709 8.55914L11.2191 6.35914C11.2045 6.07661 11.2844 5.79726 11.4461 5.56514C11.61 5.27467 11.8481 5.03292 12.1361 4.86461C12.4241 4.6963 12.7515 4.60745 13.0851 4.60714ZM17.2651 5.93914C17.5041 5.43914 17.8581 5.53914 18.0541 6.15814C18.2439 6.80483 18.2211 7.49538 17.9891 8.12814C17.7601 8.62314 17.4121 8.55514 17.2091 7.96414C17.0025 7.30163 17.0222 6.58923 17.2651 5.93914ZM17.9841 11.2391C18.2061 10.7481 18.5301 10.7891 18.7081 11.3151C18.8785 11.9027 18.854 12.5297 18.6381 13.1021C18.4251 13.5831 18.1061 13.5761 17.9221 13.0721C17.7374 12.4713 17.7596 11.8259 17.9851 11.2391H17.9841ZM16.1721 10.8391C16.4151 10.3181 16.7801 10.3671 16.9871 10.9301C17.1872 11.5508 17.1692 12.2211 16.9361 12.8301C16.7041 13.3401 16.3451 13.3301 16.1311 12.7911C15.9131 12.1562 15.9276 11.4644 16.1721 10.8391ZM16.0111 15.5971C16.2471 15.0761 16.6031 15.0701 16.8111 15.5661C17.0061 16.1478 16.9891 16.7798 16.7631 17.3501C16.5381 17.8581 16.1881 17.8991 15.9781 17.4271C15.7689 16.8355 15.7835 16.1878 16.0191 15.6061L16.0111 15.5971ZM14.0761 14.1221C14.3361 13.5681 14.7421 13.5801 14.9761 14.1291C15.2068 14.7538 15.1976 15.4419 14.9501 16.0601C14.7021 16.6001 14.3051 16.6271 14.0591 16.1071C13.8121 15.4702 13.8196 14.7627 14.0801 14.1311L14.0761 14.1221ZM12.0541 11.9861C12.3421 11.3991 12.8021 11.4391 13.0821 12.0551C13.3532 12.7289 13.3532 13.4814 13.0821 14.1551C12.8091 14.7261 12.3581 14.7301 12.0701 14.1481C11.9231 13.807 11.8459 13.4398 11.8432 13.0683C11.8404 12.6968 11.9121 12.3285 12.0541 11.9851V11.9861ZM10.1541 15.5641C10.7932 15.7769 11.3359 16.2101 11.6851 16.7861C11.9551 17.2951 11.7131 17.5691 11.1591 17.4101C10.5421 17.1967 10.0164 16.779 9.66909 16.2261C9.38509 15.7151 9.59309 15.4131 10.1551 15.5631L10.1541 15.5641ZM10.5541 18.4981C11.134 18.7035 11.6295 19.0952 11.9631 19.6121C12.2101 20.0551 11.9851 20.2731 11.4731 20.1121C10.9124 19.9069 10.4316 19.5287 10.1001 19.0321C9.83909 18.5871 10.0331 18.3441 10.5541 18.5021V18.4981ZM7.30009 15.8261C7.8927 16.0373 8.39941 16.4375 8.74209 16.9651C9.02009 17.4371 8.83309 17.6921 8.33409 17.5421C7.76293 17.33 7.27309 16.9434 6.93409 16.4371C6.64109 15.9621 6.79709 15.6841 7.30209 15.8261H7.30009ZM6.32309 17.2041C6.87093 17.4105 7.34217 17.7802 7.67309 18.2631C7.94209 18.6931 7.78009 18.9151 7.32109 18.7631C6.79142 18.5594 6.33365 18.2039 6.00509 17.7411C5.72409 17.3081 5.85909 17.0631 6.32309 17.2051V17.2041ZM3.44409 14.3041C4.01336 14.5171 4.50253 14.9014 4.84409 15.4041C5.14409 15.8721 5.01409 16.1361 4.55709 16.0041C4.00505 15.7915 3.5293 15.4185 3.19109 14.9331C2.87609 14.4621 2.98109 14.1751 3.44209 14.3031L3.44409 14.3041ZM0.722089 11.2861C1.32087 11.5076 1.83338 11.9143 2.18509 12.4471C2.52109 12.9591 2.41609 13.2691 1.96109 13.1471C1.38352 12.9269 0.886792 12.5359 0.537089 12.0261C0.187089 11.5121 0.261089 11.1771 0.719089 11.2891L0.722089 11.2861Z" fill="white"/>
</svg>
