<svg width="135" height="20" viewBox="0 0 135 20" fill="none" xmlns="http://www.w3.org/2000/svg">
<path d="M1.07049 14V5.27273H4.01935C4.70401 5.27273 5.26367 5.39631 5.69833 5.64347C6.13583 5.88778 6.45969 6.21875 6.66992 6.63636C6.88015 7.05398 6.98526 7.51989 6.98526 8.03409C6.98526 8.5483 6.88015 9.01562 6.66992 9.43608C6.46254 9.85653 6.14151 10.1918 5.70685 10.4418C5.27219 10.6889 4.71538 10.8125 4.0364 10.8125H1.92276V9.875H4.00231C4.47106 9.875 4.84748 9.79403 5.13157 9.6321C5.41566 9.47017 5.62163 9.25142 5.74947 8.97585C5.88015 8.69744 5.94549 8.38352 5.94549 8.03409C5.94549 7.68466 5.88015 7.37216 5.74947 7.09659C5.62163 6.82102 5.41424 6.60511 5.12731 6.44886C4.84038 6.28977 4.45969 6.21023 3.98526 6.21023H2.12731V14H1.07049ZM11.1401 14.1364C10.5492 14.1364 10.0307 13.9957 9.58469 13.7145C9.14151 13.4332 8.79492 13.0398 8.54492 12.5341C8.29776 12.0284 8.17418 11.4375 8.17418 10.7614C8.17418 10.0795 8.29776 9.48437 8.54492 8.97585C8.79492 8.46733 9.14151 8.07244 9.58469 7.79119C10.0307 7.50994 10.5492 7.36932 11.1401 7.36932C11.731 7.36932 12.248 7.50994 12.6912 7.79119C13.1373 8.07244 13.4838 8.46733 13.731 8.97585C13.981 9.48437 14.106 10.0795 14.106 10.7614C14.106 11.4375 13.981 12.0284 13.731 12.5341C13.4838 13.0398 13.1373 13.4332 12.6912 13.7145C12.248 13.9957 11.731 14.1364 11.1401 14.1364ZM11.1401 13.233C11.589 13.233 11.9583 13.1179 12.248 12.8878C12.5378 12.6577 12.7523 12.3551 12.8915 11.9801C13.0307 11.6051 13.1003 11.1989 13.1003 10.7614C13.1003 10.3239 13.0307 9.91619 12.8915 9.53835C12.7523 9.16051 12.5378 8.85511 12.248 8.62216C11.9583 8.3892 11.589 8.27273 11.1401 8.27273C10.6912 8.27273 10.3219 8.3892 10.0321 8.62216C9.74237 8.85511 9.52788 9.16051 9.38867 9.53835C9.24947 9.91619 9.17987 10.3239 9.17987 10.7614C9.17987 11.1989 9.24947 11.6051 9.38867 11.9801C9.52788 12.3551 9.74237 12.6577 10.0321 12.8878C10.3219 13.1179 10.6912 13.233 11.1401 13.233ZM16.9015 14L14.9071 7.45455H15.964L17.3787 12.4659H17.4469L18.8446 7.45455H19.9185L21.2992 12.4489H21.3674L22.7821 7.45455H23.839L21.8446 14H20.856L19.4242 8.97159H19.3219L17.8901 14H16.9015ZM27.6902 14.1364C27.0595 14.1364 26.5154 13.9972 26.0581 13.7188C25.6035 13.4375 25.2527 13.0455 25.0055 12.5426C24.7612 12.0369 24.639 11.4489 24.639 10.7784C24.639 10.108 24.7612 9.51705 25.0055 9.00568C25.2527 8.49148 25.5964 8.09091 26.0368 7.80398C26.4799 7.5142 26.997 7.36932 27.5879 7.36932C27.9288 7.36932 28.2654 7.42614 28.5978 7.53977C28.9302 7.65341 29.2328 7.83807 29.5055 8.09375C29.7782 8.34659 29.9956 8.68182 30.1575 9.09943C30.3194 9.51705 30.4004 10.0312 30.4004 10.642V11.0682H25.3549V10.1989H29.3777C29.3777 9.82955 29.3038 9.5 29.1561 9.21023C29.0112 8.92045 28.8038 8.69176 28.5339 8.52415C28.2669 8.35653 27.9515 8.27273 27.5879 8.27273C27.1873 8.27273 26.8407 8.37216 26.5481 8.57102C26.2583 8.76705 26.0353 9.02273 25.8791 9.33807C25.7228 9.65341 25.6447 9.99148 25.6447 10.3523V10.9318C25.6447 11.4261 25.7299 11.8452 25.9004 12.1889C26.0737 12.5298 26.3137 12.7898 26.6206 12.9688C26.9274 13.1449 27.2839 13.233 27.6902 13.233C27.9544 13.233 28.193 13.196 28.4061 13.1222C28.622 13.0455 28.8081 12.9318 28.9643 12.7812C29.1206 12.6278 29.2413 12.4375 29.3265 12.2102L30.2981 12.483C30.1958 12.8125 30.024 13.1023 29.7825 13.3523C29.541 13.5994 29.2427 13.7926 28.8876 13.9318C28.5325 14.0682 28.1333 14.1364 27.6902 14.1364ZM31.9302 14V7.45455H32.9018V8.44318H32.97C33.0893 8.11932 33.3052 7.85653 33.6177 7.65483C33.9302 7.45312 34.2825 7.35227 34.6745 7.35227C34.7484 7.35227 34.8407 7.35369 34.9515 7.35653C35.0623 7.35937 35.1461 7.36364 35.2029 7.36932V8.39205C35.1689 8.38352 35.0907 8.37074 34.9686 8.35369C34.8493 8.33381 34.7228 8.32386 34.5893 8.32386C34.2711 8.32386 33.987 8.39062 33.737 8.52415C33.4899 8.65483 33.2939 8.83665 33.149 9.0696C33.0069 9.29972 32.9359 9.5625 32.9359 9.85795V14H31.9302ZM38.9402 14.1364C38.3095 14.1364 37.7654 13.9972 37.3081 13.7188C36.8535 13.4375 36.5027 13.0455 36.2555 12.5426C36.0112 12.0369 35.889 11.4489 35.889 10.7784C35.889 10.108 36.0112 9.51705 36.2555 9.00568C36.5027 8.49148 36.8464 8.09091 37.2868 7.80398C37.7299 7.5142 38.247 7.36932 38.8379 7.36932C39.1788 7.36932 39.5154 7.42614 39.8478 7.53977C40.1802 7.65341 40.4828 7.83807 40.7555 8.09375C41.0282 8.34659 41.2456 8.68182 41.4075 9.09943C41.5694 9.51705 41.6504 10.0312 41.6504 10.642V11.0682H36.6049V10.1989H40.6277C40.6277 9.82955 40.5538 9.5 40.4061 9.21023C40.2612 8.92045 40.0538 8.69176 39.7839 8.52415C39.5169 8.35653 39.2015 8.27273 38.8379 8.27273C38.4373 8.27273 38.0907 8.37216 37.7981 8.57102C37.5083 8.76705 37.2853 9.02273 37.1291 9.33807C36.9728 9.65341 36.8947 9.99148 36.8947 10.3523V10.9318C36.8947 11.4261 36.9799 11.8452 37.1504 12.1889C37.3237 12.5298 37.5637 12.7898 37.8706 12.9688C38.1774 13.1449 38.5339 13.233 38.9402 13.233C39.2044 13.233 39.443 13.196 39.6561 13.1222C39.872 13.0455 40.0581 12.9318 40.2143 12.7812C40.3706 12.6278 40.4913 12.4375 40.5765 12.2102L41.5481 12.483C41.4458 12.8125 41.274 13.1023 41.0325 13.3523C40.791 13.5994 40.4927 13.7926 40.1376 13.9318C39.7825 14.0682 39.3833 14.1364 38.9402 14.1364ZM45.6518 14.1364C45.1064 14.1364 44.6248 13.9986 44.2072 13.723C43.7896 13.4446 43.4629 13.0526 43.2271 12.5469C42.9913 12.0384 42.8734 11.4375 42.8734 10.7443C42.8734 10.0568 42.9913 9.46023 43.2271 8.95455C43.4629 8.44886 43.791 8.05824 44.2115 7.78267C44.6319 7.5071 45.1177 7.36932 45.6689 7.36932C46.095 7.36932 46.4316 7.44034 46.6788 7.58239C46.9288 7.72159 47.1191 7.88068 47.2498 8.05966C47.3833 8.2358 47.487 8.38068 47.5609 8.49432H47.6461V5.27273H48.6518V14H47.6802V12.9943H47.5609C47.487 13.1136 47.3819 13.2642 47.2456 13.446C47.1092 13.625 46.9146 13.7855 46.6618 13.9276C46.4089 14.0668 46.0723 14.1364 45.6518 14.1364ZM45.7882 13.233C46.1916 13.233 46.5325 13.1278 46.8109 12.9176C47.0893 12.7045 47.301 12.4105 47.4458 12.0355C47.5907 11.6577 47.6632 11.2216 47.6632 10.7273C47.6632 10.2386 47.5922 9.81108 47.4501 9.4446C47.3081 9.07528 47.0978 8.78835 46.8194 8.58381C46.541 8.37642 46.1973 8.27273 45.7882 8.27273C45.362 8.27273 45.0069 8.3821 44.7228 8.60085C44.4416 8.81676 44.2299 9.1108 44.0879 9.48295C43.9487 9.85227 43.8791 10.267 43.8791 10.7273C43.8791 11.1932 43.9501 11.6165 44.0922 11.9972C44.237 12.375 44.4501 12.6761 44.7314 12.9006C45.0154 13.1222 45.3677 13.233 45.7882 13.233ZM54.1447 14V5.27273H55.1504V8.49432H55.2356C55.3095 8.38068 55.4118 8.2358 55.5424 8.05966C55.676 7.88068 55.8663 7.72159 56.1135 7.58239C56.3635 7.44034 56.7015 7.36932 57.1277 7.36932C57.6788 7.36932 58.1646 7.5071 58.585 7.78267C59.0055 8.05824 59.3336 8.44886 59.5694 8.95455C59.8052 9.46023 59.9231 10.0568 59.9231 10.7443C59.9231 11.4375 59.8052 12.0384 59.5694 12.5469C59.3336 13.0526 59.0069 13.4446 58.5893 13.723C58.1717 13.9986 57.6902 14.1364 57.1447 14.1364C56.7243 14.1364 56.3876 14.0668 56.1348 13.9276C55.8819 13.7855 55.6873 13.625 55.551 13.446C55.4146 13.2642 55.3095 13.1136 55.2356 12.9943H55.1163V14H54.1447ZM55.1333 10.7273C55.1333 11.2216 55.2058 11.6577 55.3507 12.0355C55.4956 12.4105 55.7072 12.7045 55.9856 12.9176C56.264 13.1278 56.6049 13.233 57.0083 13.233C57.4288 13.233 57.7797 13.1222 58.0609 12.9006C58.345 12.6761 58.5581 12.375 58.7001 11.9972C58.845 11.6165 58.9174 11.1932 58.9174 10.7273C58.9174 10.267 58.8464 9.85227 58.7044 9.48295C58.5652 9.1108 58.3535 8.81676 58.0694 8.60085C57.7882 8.3821 57.4345 8.27273 57.0083 8.27273C56.5993 8.27273 56.2555 8.37642 55.9771 8.58381C55.6987 8.78835 55.4885 9.07528 55.3464 9.4446C55.2044 9.81108 55.1333 10.2386 55.1333 10.7273ZM61.8748 16.4545C61.7044 16.4545 61.5524 16.4403 61.4189 16.4119C61.2853 16.3864 61.193 16.3608 61.1419 16.3352L61.3975 15.4489C61.6419 15.5114 61.8578 15.5341 62.0453 15.517C62.2328 15.5 62.399 15.4162 62.5439 15.2656C62.6916 15.1179 62.8265 14.8778 62.9487 14.5455L63.1362 14.0341L60.7157 7.45455H61.8066L63.6135 12.6705H63.6816L65.4885 7.45455H66.5794L63.801 14.9545C63.676 15.2926 63.5211 15.5724 63.3365 15.794C63.1518 16.0185 62.9373 16.1847 62.693 16.2926C62.4515 16.4006 62.1788 16.4545 61.8748 16.4545Z" fill="#3F4346"/>
<path fill-rule="evenodd" clip-rule="evenodd" d="M72.7411 8.26542L89.2265 2.50469C89.2496 2.49709 89.2747 2.4988 89.2965 2.50946C89.3183 2.52013 89.3351 2.53889 89.3433 2.56176C89.3467 2.57165 89.3484 2.58205 89.3484 2.59252V17.407C89.3484 17.4317 89.3386 17.4553 89.3212 17.4728C89.3038 17.4902 89.2801 17.5 89.2554 17.5H89.2432L72.7552 16.6958C72.7313 16.6946 72.7089 16.6843 72.6925 16.667C72.6761 16.6496 72.6669 16.6267 72.667 16.6028V8.35622C72.667 8.3349 72.6744 8.31425 72.6879 8.29777C72.7014 8.28128 72.7202 8.26962 72.7411 8.26542ZM74.541 9.85189C74.4594 9.83625 74.3749 9.85163 74.3041 9.895C74.2332 9.93837 74.1811 10.0066 74.1579 10.0864C74.1348 10.1662 74.1422 10.2517 74.1788 10.3263C74.2154 10.4009 74.2785 10.4592 74.3557 10.4897L80.3788 12.2314L80.5134 12.1202L86.5113 7.17183C86.55 7.14595 86.5829 7.11224 86.6079 7.07287C86.6328 7.03349 86.6492 6.98933 86.656 6.94323C86.6629 6.89712 86.6599 6.8501 86.6475 6.80519C86.635 6.76028 86.6133 6.71849 86.5836 6.6825C86.554 6.64651 86.5172 6.61713 86.4755 6.59625C86.4339 6.57536 86.3883 6.56345 86.3417 6.56126C86.2952 6.55908 86.2487 6.56667 86.2052 6.58356C86.1618 6.60045 86.1224 6.62625 86.0895 6.65931L80.2269 11.4977L74.541 9.85189Z" fill="#1E75BA"/>
<path d="M95.5881 5.27273H96.8494L99.8153 12.517H99.9176L102.884 5.27273H104.145V14H103.156V7.36932H103.071L100.344 14H99.3892L96.6619 7.36932H96.5767V14H95.5881V5.27273ZM111.037 7.45455C110.985 7.02273 110.778 6.6875 110.414 6.44886C110.051 6.21023 109.605 6.09091 109.076 6.09091C108.69 6.09091 108.352 6.15341 108.062 6.27841C107.775 6.40341 107.551 6.57528 107.389 6.79403C107.23 7.01278 107.15 7.26136 107.15 7.53977C107.15 7.77273 107.206 7.97301 107.316 8.14062C107.43 8.3054 107.575 8.44318 107.751 8.55398C107.927 8.66193 108.112 8.75142 108.305 8.82244C108.498 8.89062 108.676 8.94602 108.838 8.98864L109.724 9.22727C109.951 9.28693 110.204 9.36932 110.483 9.47443C110.764 9.57955 111.032 9.72301 111.288 9.90483C111.547 10.0838 111.76 10.3139 111.927 10.5952C112.095 10.8764 112.179 11.2216 112.179 11.6307C112.179 12.1023 112.055 12.5284 111.808 12.9091C111.564 13.2898 111.206 13.5923 110.734 13.8168C110.265 14.0412 109.696 14.1534 109.025 14.1534C108.4 14.1534 107.859 14.0526 107.402 13.8509C106.947 13.6491 106.589 13.3679 106.328 13.0071C106.069 12.6463 105.923 12.2273 105.889 11.75H106.98C107.008 12.0795 107.119 12.3523 107.312 12.5682C107.508 12.7812 107.755 12.9403 108.054 13.0455C108.355 13.1477 108.679 13.1989 109.025 13.1989C109.429 13.1989 109.791 13.1335 110.112 13.0028C110.433 12.8693 110.687 12.6847 110.875 12.4489C111.062 12.2102 111.156 11.9318 111.156 11.6136C111.156 11.3239 111.075 11.0881 110.913 10.9062C110.751 10.7244 110.538 10.5767 110.274 10.4631C110.01 10.3494 109.724 10.25 109.417 10.1648L108.343 9.85795C107.662 9.66193 107.122 9.3821 106.724 9.01847C106.326 8.65483 106.127 8.17898 106.127 7.59091C106.127 7.10227 106.26 6.67614 106.524 6.3125C106.791 5.94602 107.149 5.66193 107.598 5.46023C108.049 5.25568 108.554 5.15341 109.11 5.15341C109.673 5.15341 110.173 5.25426 110.61 5.45597C111.048 5.65483 111.395 5.92756 111.65 6.27415C111.909 6.62074 112.045 7.0142 112.059 7.45455H111.037ZM119.882 8C119.788 7.71307 119.665 7.45597 119.511 7.22869C119.361 6.99858 119.18 6.80256 118.97 6.64062C118.763 6.47869 118.527 6.35511 118.263 6.26989C117.999 6.18466 117.709 6.14205 117.393 6.14205C116.876 6.14205 116.406 6.27557 115.983 6.54261C115.56 6.80966 115.223 7.20312 114.973 7.72301C114.723 8.2429 114.598 8.88068 114.598 9.63636C114.598 10.392 114.724 11.0298 114.977 11.5497C115.23 12.0696 115.572 12.4631 116.004 12.7301C116.436 12.9972 116.922 13.1307 117.462 13.1307C117.962 13.1307 118.402 13.0241 118.783 12.8111C119.166 12.5952 119.464 12.2912 119.678 11.8991C119.893 11.5043 120.001 11.0398 120.001 10.5057L120.325 10.5739H117.7V9.63636H121.024V10.5739C121.024 11.2926 120.871 11.9176 120.564 12.4489C120.26 12.9801 119.839 13.392 119.303 13.6847C118.768 13.9744 118.155 14.1193 117.462 14.1193C116.689 14.1193 116.01 13.9375 115.425 13.5739C114.842 13.2102 114.388 12.6932 114.061 12.0227C113.737 11.3523 113.575 10.5568 113.575 9.63636C113.575 8.94602 113.668 8.32528 113.852 7.77415C114.04 7.22017 114.304 6.74858 114.645 6.35938C114.986 5.97017 115.389 5.67188 115.855 5.46449C116.321 5.2571 116.834 5.15341 117.393 5.15341C117.854 5.15341 118.283 5.22301 118.68 5.36222C119.081 5.49858 119.438 5.69318 119.75 5.94602C120.065 6.19602 120.328 6.49574 120.538 6.84517C120.749 7.19176 120.893 7.5767 120.973 8H119.882ZM125.459 5.15341C125.817 5.15625 126.175 5.22443 126.533 5.35795C126.891 5.49148 127.218 5.71307 127.513 6.02273C127.809 6.32955 128.046 6.74858 128.225 7.27983C128.404 7.81108 128.493 8.47727 128.493 9.27841C128.493 10.054 128.419 10.7429 128.272 11.3452C128.127 11.9446 127.917 12.4503 127.641 12.8622C127.368 13.2741 127.036 13.5866 126.644 13.7997C126.255 14.0128 125.814 14.1193 125.323 14.1193C124.834 14.1193 124.398 14.0227 124.015 13.8295C123.634 13.6335 123.321 13.3622 123.077 13.0156C122.836 12.6662 122.681 12.2614 122.613 11.8011H123.652C123.746 12.2017 123.932 12.5327 124.211 12.794C124.492 13.0526 124.863 13.1818 125.323 13.1818C125.996 13.1818 126.527 12.8878 126.917 12.2997C127.309 11.7116 127.505 10.8807 127.505 9.80682H127.436C127.277 10.0455 127.088 10.2514 126.87 10.4247C126.651 10.598 126.408 10.7315 126.141 10.8253C125.874 10.919 125.59 10.9659 125.289 10.9659C124.789 10.9659 124.33 10.8423 123.912 10.5952C123.498 10.3452 123.165 10.0028 122.915 9.56818C122.668 9.13068 122.544 8.63068 122.544 8.06818C122.544 7.53409 122.664 7.04545 122.902 6.60227C123.144 6.15625 123.482 5.80114 123.917 5.53693C124.354 5.27273 124.868 5.14489 125.459 5.15341ZM125.459 6.09091C125.101 6.09091 124.779 6.1804 124.492 6.35938C124.208 6.53551 123.982 6.77415 123.814 7.07528C123.65 7.37358 123.567 7.70455 123.567 8.06818C123.567 8.43182 123.647 8.76278 123.806 9.06108C123.968 9.35653 124.188 9.59233 124.466 9.76847C124.748 9.94176 125.067 10.0284 125.425 10.0284C125.695 10.0284 125.946 9.97585 126.179 9.87074C126.412 9.76278 126.615 9.61648 126.789 9.43182C126.965 9.24432 127.103 9.03267 127.202 8.79688C127.301 8.55824 127.351 8.30966 127.351 8.05114C127.351 7.71023 127.269 7.39062 127.104 7.09233C126.942 6.79403 126.718 6.55256 126.431 6.3679C126.147 6.18324 125.823 6.09091 125.459 6.09091ZM133.237 5.27273V14H132.18V6.38068H132.129L129.999 7.79545V6.72159L132.18 5.27273H133.237Z" fill="#3F4346"/>
</svg>
