<svg width="544" height="338" viewBox="0 0 544 338" fill="none" xmlns="http://www.w3.org/2000/svg">
<g clip-path="url(#clip0_1553_22635)">
<rect x="96" y="56" width="352" height="226" rx="12" fill="white"/>
<ellipse cx="117" cy="72.5" rx="6" ry="6.5" fill="#DF434C"/>
<circle cx="133.5" cy="72.5" r="6.5" fill="#E7B44C"/>
<circle cx="149.5" cy="72.5" r="6.5" fill="#6BD280"/>
<rect x="166" y="66" width="265" height="13" rx="6.5" fill="#E1E3E8"/>
<g filter="url(#filter0_d_1553_22635)">
<rect x="5" y="115" width="525" height="38" rx="19" fill="white"/>
</g>
<path d="M30.363 125.18H28.311V140H30.363V125.18ZM33.935 134.68V140H36.006V134.395C36.006 133.648 35.892 133.027 35.664 132.533C35.436 132.026 35.094 131.646 34.638 131.393C34.1947 131.14 33.65 131.013 33.004 131.013C32.3453 131.013 31.7817 131.178 31.313 131.507C30.857 131.836 30.5023 132.273 30.249 132.818C29.9957 133.363 29.869 133.983 29.869 134.68H30.363C30.363 134.287 30.4453 133.945 30.61 133.654C30.7747 133.363 31.0027 133.135 31.294 132.97C31.5853 132.805 31.921 132.723 32.301 132.723C32.871 132.723 33.2827 132.888 33.536 133.217C33.802 133.546 33.935 134.034 33.935 134.68ZM37.9629 131.26V133.065H42.9219V131.26H37.9629ZM39.4259 128.22V140H41.4589V128.22H39.4259ZM43.6911 131.26V133.065H48.6501V131.26H43.6911ZM45.1541 128.22V140H47.1871V128.22H45.1541ZM52.6303 144.18V131.26H50.5593V144.18H52.6303ZM59.8693 135.63C59.8693 134.655 59.6729 133.825 59.2803 133.141C58.8876 132.457 58.3683 131.938 57.7223 131.583C57.0763 131.216 56.3733 131.032 55.6133 131.032C54.8659 131.032 54.2136 131.222 53.6563 131.602C53.1116 131.969 52.6873 132.495 52.3833 133.179C52.0919 133.863 51.9463 134.68 51.9463 135.63C51.9463 136.567 52.0919 137.384 52.3833 138.081C52.6873 138.765 53.1116 139.297 53.6563 139.677C54.2136 140.044 54.8659 140.228 55.6133 140.228C56.3733 140.228 57.0763 140.051 57.7223 139.696C58.3683 139.329 58.8876 138.803 59.2803 138.119C59.6729 137.422 59.8693 136.593 59.8693 135.63ZM57.7413 135.63C57.7413 136.213 57.6209 136.713 57.3803 137.131C57.1396 137.536 56.8166 137.847 56.4113 138.062C56.0186 138.265 55.5816 138.366 55.1003 138.366C54.7076 138.366 54.3213 138.265 53.9413 138.062C53.5613 137.847 53.2446 137.536 52.9913 137.131C52.7506 136.726 52.6303 136.225 52.6303 135.63C52.6303 135.035 52.7506 134.534 52.9913 134.129C53.2446 133.724 53.5613 133.42 53.9413 133.217C54.3213 133.002 54.7076 132.894 55.1003 132.894C55.5816 132.894 56.0186 133.002 56.4113 133.217C56.8166 133.42 57.1396 133.73 57.3803 134.148C57.6209 134.553 57.7413 135.047 57.7413 135.63ZM62.7927 137.131L61.5957 138.328C61.8491 138.657 62.1594 138.974 62.5267 139.278C62.9067 139.569 63.3437 139.81 63.8377 140C64.3444 140.177 64.8954 140.266 65.4907 140.266C66.4534 140.266 67.2134 140.019 67.7707 139.525C68.3407 139.018 68.6257 138.353 68.6257 137.53C68.6257 136.998 68.4991 136.567 68.2457 136.238C68.0051 135.909 67.6821 135.63 67.2767 135.402C66.8714 135.174 66.4281 134.965 65.9467 134.775C65.5921 134.636 65.2691 134.503 64.9777 134.376C64.6991 134.249 64.4711 134.11 64.2937 133.958C64.1291 133.793 64.0467 133.61 64.0467 133.407C64.0467 133.166 64.1417 132.983 64.3317 132.856C64.5217 132.729 64.7624 132.666 65.0537 132.666C65.4844 132.666 65.9024 132.774 66.3077 132.989C66.7131 133.204 67.0614 133.483 67.3527 133.825L68.4927 132.609C68.2521 132.318 67.9607 132.058 67.6187 131.83C67.2767 131.602 66.8904 131.418 66.4597 131.279C66.0417 131.14 65.5921 131.07 65.1107 131.07C64.5787 131.07 64.0784 131.159 63.6097 131.336C63.1537 131.501 62.7864 131.76 62.5077 132.115C62.2417 132.47 62.1087 132.913 62.1087 133.445C62.1087 133.964 62.2291 134.395 62.4697 134.737C62.7231 135.079 63.0397 135.358 63.4197 135.573C63.8124 135.776 64.2051 135.953 64.5977 136.105C64.9904 136.244 65.3324 136.384 65.6237 136.523C65.9151 136.65 66.1431 136.808 66.3077 136.998C66.4724 137.175 66.5547 137.391 66.5547 137.644C66.5547 137.935 66.4471 138.163 66.2317 138.328C66.0291 138.493 65.7441 138.575 65.3767 138.575C65.0854 138.575 64.7941 138.524 64.5027 138.423C64.2114 138.309 63.9201 138.144 63.6287 137.929C63.3501 137.701 63.0714 137.435 62.7927 137.131ZM71.3015 139.031C71.3015 139.386 71.4281 139.696 71.6815 139.962C71.9475 140.228 72.2641 140.361 72.6315 140.361C73.0241 140.361 73.3471 140.228 73.6005 139.962C73.8538 139.696 73.9805 139.386 73.9805 139.031C73.9805 138.664 73.8538 138.353 73.6005 138.1C73.3471 137.834 73.0241 137.701 72.6315 137.701C72.2641 137.701 71.9475 137.834 71.6815 138.1C71.4281 138.353 71.3015 138.664 71.3015 139.031ZM71.3015 131.849C71.3015 132.216 71.4281 132.533 71.6815 132.799C71.9475 133.052 72.2641 133.179 72.6315 133.179C73.0241 133.179 73.3471 133.052 73.6005 132.799C73.8538 132.533 73.9805 132.216 73.9805 131.849C73.9805 131.482 73.8538 131.171 73.6005 130.918C73.3471 130.652 73.0241 130.519 72.6315 130.519C72.2641 130.519 71.9475 130.652 71.6815 130.918C71.4281 131.171 71.3015 131.482 71.3015 131.849ZM84.3277 126.7L76.4237 142.85H78.4947L86.3417 126.7H84.3277ZM93.4886 126.7L85.5846 142.85H87.6556L95.5026 126.7H93.4886ZM96.353 131.26L100.438 140.627L103.06 134.718L105.796 140.627L109.881 131.26H107.658L105.606 136.485L103.041 130.595L100.628 136.466L98.576 131.26H96.353ZM111.025 131.26L115.11 140.627L117.732 134.718L120.468 140.627L124.553 131.26H122.33L120.278 136.485L117.713 130.595L115.3 136.466L113.248 131.26H111.025ZM125.696 131.26L129.781 140.627L132.403 134.718L135.139 140.627L139.224 131.26H137.001L134.949 136.485L132.384 130.595L129.971 136.466L127.919 131.26H125.696ZM140.257 139.031C140.257 139.386 140.383 139.696 140.637 139.962C140.903 140.228 141.219 140.361 141.587 140.361C141.979 140.361 142.302 140.228 142.556 139.962C142.809 139.696 142.936 139.386 142.936 139.031C142.936 138.664 142.809 138.353 142.556 138.1C142.302 137.834 141.979 137.701 141.587 137.701C141.219 137.701 140.903 137.834 140.637 138.1C140.383 138.353 140.257 138.664 140.257 139.031ZM154.138 131.26H151.934L149.198 138.119L150.167 138.176L147.374 131.26H145.018L148.533 138.974L146.253 144.18H148.438L154.138 131.26ZM154.994 135.63C154.994 136.517 155.196 137.308 155.602 138.005C156.02 138.689 156.583 139.227 157.293 139.62C158.002 140 158.806 140.19 159.706 140.19C160.605 140.19 161.403 140 162.1 139.62C162.809 139.227 163.373 138.689 163.791 138.005C164.209 137.308 164.418 136.517 164.418 135.63C164.418 134.731 164.209 133.939 163.791 133.255C163.373 132.571 162.809 132.039 162.1 131.659C161.403 131.266 160.605 131.07 159.706 131.07C158.806 131.07 158.002 131.266 157.293 131.659C156.583 132.039 156.02 132.571 155.602 133.255C155.196 133.939 154.994 134.731 154.994 135.63ZM157.103 135.63C157.103 135.085 157.217 134.604 157.445 134.186C157.673 133.768 157.983 133.445 158.376 133.217C158.768 132.989 159.212 132.875 159.706 132.875C160.187 132.875 160.624 132.989 161.017 133.217C161.422 133.445 161.739 133.768 161.967 134.186C162.195 134.604 162.309 135.085 162.309 135.63C162.309 136.175 162.195 136.656 161.967 137.074C161.739 137.479 161.422 137.802 161.017 138.043C160.624 138.271 160.187 138.385 159.706 138.385C159.212 138.385 158.768 138.271 158.376 138.043C157.983 137.802 157.673 137.479 157.445 137.074C157.217 136.656 157.103 136.175 157.103 135.63ZM169.044 136.58V131.26H166.935V136.808C166.935 137.847 167.194 138.67 167.714 139.278C168.246 139.886 168.999 140.19 169.975 140.19C170.583 140.19 171.102 140.063 171.533 139.81C171.976 139.544 172.337 139.158 172.616 138.651V140H174.668V131.26H172.616V136.58C172.616 136.973 172.533 137.321 172.369 137.625C172.204 137.916 171.976 138.144 171.685 138.309C171.393 138.461 171.051 138.537 170.659 138.537C170.114 138.537 169.709 138.366 169.443 138.024C169.177 137.682 169.044 137.201 169.044 136.58ZM179.891 131.26H177.858V140H179.891V131.26ZM182.494 133.445L183.482 131.716C183.292 131.475 183.058 131.311 182.779 131.222C182.5 131.121 182.203 131.07 181.886 131.07C181.443 131.07 181.012 131.228 180.594 131.545C180.189 131.862 179.853 132.292 179.587 132.837C179.334 133.369 179.207 133.983 179.207 134.68L179.891 135.079C179.891 134.661 179.935 134.3 180.024 133.996C180.125 133.679 180.284 133.432 180.499 133.255C180.714 133.078 180.993 132.989 181.335 132.989C181.588 132.989 181.797 133.027 181.962 133.103C182.127 133.179 182.304 133.293 182.494 133.445ZM184.244 136.409H188.139V134.566H184.244V136.409ZM192.107 125.18H190.036V140H192.107V125.18ZM199.346 135.63C199.346 134.667 199.15 133.85 198.757 133.179C198.365 132.495 197.845 131.976 197.199 131.621C196.553 131.254 195.85 131.07 195.09 131.07C194.368 131.07 193.722 131.254 193.152 131.621C192.595 131.988 192.158 132.514 191.841 133.198C191.525 133.869 191.366 134.68 191.366 135.63C191.366 136.567 191.525 137.378 191.841 138.062C192.158 138.746 192.595 139.272 193.152 139.639C193.722 140.006 194.368 140.19 195.09 140.19C195.85 140.19 196.553 140.013 197.199 139.658C197.845 139.291 198.365 138.765 198.757 138.081C199.15 137.397 199.346 136.58 199.346 135.63ZM197.218 135.63C197.218 136.213 197.098 136.713 196.857 137.131C196.617 137.549 196.294 137.866 195.888 138.081C195.496 138.296 195.059 138.404 194.577 138.404C194.185 138.404 193.798 138.296 193.418 138.081C193.038 137.866 192.722 137.555 192.468 137.15C192.228 136.732 192.107 136.225 192.107 135.63C192.107 135.035 192.228 134.534 192.468 134.129C192.722 133.711 193.038 133.394 193.418 133.179C193.798 132.964 194.185 132.856 194.577 132.856C195.059 132.856 195.496 132.964 195.888 133.179C196.294 133.394 196.617 133.711 196.857 134.129C197.098 134.547 197.218 135.047 197.218 135.63ZM203.904 131.26H201.871V140H203.904V131.26ZM206.507 133.445L207.495 131.716C207.305 131.475 207.07 131.311 206.792 131.222C206.513 131.121 206.215 131.07 205.899 131.07C205.455 131.07 205.025 131.228 204.607 131.545C204.201 131.862 203.866 132.292 203.6 132.837C203.346 133.369 203.22 133.983 203.22 134.68L203.904 135.079C203.904 134.661 203.948 134.3 204.037 133.996C204.138 133.679 204.296 133.432 204.512 133.255C204.727 133.078 205.006 132.989 205.348 132.989C205.601 132.989 205.81 133.027 205.975 133.103C206.139 133.179 206.317 133.293 206.507 133.445ZM210.765 137.283C210.765 137.004 210.828 136.77 210.955 136.58C211.094 136.39 211.297 136.244 211.563 136.143C211.829 136.029 212.177 135.972 212.608 135.972C213.102 135.972 213.571 136.035 214.014 136.162C214.457 136.289 214.875 136.491 215.268 136.77V135.725C215.154 135.586 214.958 135.434 214.679 135.269C214.4 135.092 214.046 134.94 213.615 134.813C213.197 134.686 212.697 134.623 212.114 134.623C211.025 134.623 210.182 134.876 209.587 135.383C208.992 135.877 208.694 136.548 208.694 137.397C208.694 137.992 208.833 138.499 209.112 138.917C209.391 139.335 209.764 139.652 210.233 139.867C210.702 140.082 211.208 140.19 211.753 140.19C212.26 140.19 212.754 140.101 213.235 139.924C213.729 139.734 214.134 139.455 214.451 139.088C214.78 138.708 214.945 138.239 214.945 137.682L214.641 136.542C214.641 136.973 214.533 137.353 214.318 137.682C214.115 137.999 213.843 138.239 213.501 138.404C213.172 138.569 212.804 138.651 212.399 138.651C212.082 138.651 211.797 138.6 211.544 138.499C211.303 138.398 211.113 138.246 210.974 138.043C210.835 137.828 210.765 137.574 210.765 137.283ZM210.119 133.54C210.246 133.451 210.436 133.344 210.689 133.217C210.955 133.078 211.265 132.964 211.62 132.875C211.987 132.774 212.374 132.723 212.779 132.723C213.045 132.723 213.292 132.748 213.52 132.799C213.748 132.85 213.944 132.932 214.109 133.046C214.274 133.16 214.4 133.306 214.489 133.483C214.59 133.66 214.641 133.888 214.641 134.167V140H216.655V133.768C216.655 133.185 216.497 132.698 216.18 132.305C215.863 131.9 215.426 131.589 214.869 131.374C214.324 131.159 213.691 131.051 212.969 131.051C212.158 131.051 211.436 131.165 210.803 131.393C210.182 131.621 209.676 131.855 209.283 132.096L210.119 133.54ZM225.241 134.68V140H227.35V134.452C227.35 133.401 227.091 132.577 226.571 131.982C226.052 131.374 225.298 131.07 224.31 131.07C223.702 131.07 223.177 131.197 222.733 131.45C222.303 131.703 221.948 132.09 221.669 132.609V131.26H219.617V140H221.669V134.68C221.669 134.287 221.752 133.945 221.916 133.654C222.081 133.35 222.309 133.122 222.6 132.97C222.892 132.805 223.227 132.723 223.607 132.723C224.165 132.723 224.576 132.888 224.842 133.217C225.108 133.546 225.241 134.034 225.241 134.68ZM237.115 125.18V140H239.186V125.18H237.115ZM229.876 135.63C229.876 136.58 230.072 137.397 230.465 138.081C230.857 138.765 231.377 139.291 232.023 139.658C232.681 140.013 233.384 140.19 234.132 140.19C234.866 140.19 235.506 140.006 236.051 139.639C236.608 139.272 237.045 138.746 237.362 138.062C237.691 137.378 237.856 136.567 237.856 135.63C237.856 134.68 237.691 133.869 237.362 133.198C237.045 132.514 236.608 131.988 236.051 131.621C235.506 131.254 234.866 131.07 234.132 131.07C233.384 131.07 232.681 131.254 232.023 131.621C231.377 131.976 230.857 132.495 230.465 133.179C230.072 133.85 229.876 134.667 229.876 135.63ZM232.004 135.63C232.004 135.047 232.124 134.547 232.365 134.129C232.605 133.711 232.922 133.394 233.315 133.179C233.72 132.964 234.157 132.856 234.626 132.856C235.018 132.856 235.405 132.964 235.785 133.179C236.177 133.394 236.494 133.711 236.735 134.129C236.988 134.534 237.115 135.035 237.115 135.63C237.115 136.225 236.988 136.732 236.735 137.15C236.494 137.555 236.177 137.866 235.785 138.081C235.405 138.296 235.018 138.404 234.626 138.404C234.157 138.404 233.72 138.296 233.315 138.081C232.922 137.866 232.605 137.549 232.365 137.131C232.124 136.713 232.004 136.213 232.004 135.63ZM242.584 139.031C242.584 139.386 242.711 139.696 242.964 139.962C243.23 140.228 243.547 140.361 243.914 140.361C244.307 140.361 244.63 140.228 244.883 139.962C245.137 139.696 245.263 139.386 245.263 139.031C245.263 138.664 245.137 138.353 244.883 138.1C244.63 137.834 244.307 137.701 243.914 137.701C243.547 137.701 243.23 137.834 242.964 138.1C242.711 138.353 242.584 138.664 242.584 139.031ZM250.101 135.63C250.101 135.085 250.221 134.604 250.462 134.186C250.702 133.768 251.025 133.439 251.431 133.198C251.849 132.957 252.311 132.837 252.818 132.837C253.223 132.837 253.616 132.9 253.996 133.027C254.376 133.154 254.711 133.331 255.003 133.559C255.307 133.774 255.528 134.028 255.668 134.319V132.058C255.364 131.754 254.952 131.513 254.433 131.336C253.913 131.159 253.343 131.07 252.723 131.07C251.823 131.07 251.013 131.266 250.291 131.659C249.581 132.039 249.018 132.571 248.6 133.255C248.194 133.939 247.992 134.731 247.992 135.63C247.992 136.517 248.194 137.308 248.6 138.005C249.018 138.689 249.581 139.227 250.291 139.62C251.013 140 251.823 140.19 252.723 140.19C253.343 140.19 253.913 140.101 254.433 139.924C254.952 139.747 255.364 139.506 255.668 139.202V136.941C255.528 137.22 255.313 137.473 255.022 137.701C254.73 137.929 254.395 138.106 254.015 138.233C253.635 138.36 253.236 138.423 252.818 138.423C252.311 138.423 251.849 138.303 251.431 138.062C251.025 137.821 250.702 137.498 250.462 137.093C250.221 136.675 250.101 136.187 250.101 135.63ZM257.841 135.63C257.841 136.517 258.043 137.308 258.449 138.005C258.867 138.689 259.43 139.227 260.14 139.62C260.849 140 261.653 140.19 262.553 140.19C263.452 140.19 264.25 140 264.947 139.62C265.656 139.227 266.22 138.689 266.638 138.005C267.056 137.308 267.265 136.517 267.265 135.63C267.265 134.731 267.056 133.939 266.638 133.255C266.22 132.571 265.656 132.039 264.947 131.659C264.25 131.266 263.452 131.07 262.553 131.07C261.653 131.07 260.849 131.266 260.14 131.659C259.43 132.039 258.867 132.571 258.449 133.255C258.043 133.939 257.841 134.731 257.841 135.63ZM259.95 135.63C259.95 135.085 260.064 134.604 260.292 134.186C260.52 133.768 260.83 133.445 261.223 133.217C261.615 132.989 262.059 132.875 262.553 132.875C263.034 132.875 263.471 132.989 263.864 133.217C264.269 133.445 264.586 133.768 264.814 134.186C265.042 134.604 265.156 135.085 265.156 135.63C265.156 136.175 265.042 136.656 264.814 137.074C264.586 137.479 264.269 137.802 263.864 138.043C263.471 138.271 263.034 138.385 262.553 138.385C262.059 138.385 261.615 138.271 261.223 138.043C260.83 137.802 260.52 137.479 260.292 137.074C260.064 136.656 259.95 136.175 259.95 135.63ZM282.284 134.452C282.284 133.73 282.182 133.116 281.98 132.609C281.777 132.102 281.467 131.722 281.049 131.469C280.643 131.203 280.13 131.07 279.51 131.07C278.914 131.07 278.382 131.203 277.914 131.469C277.458 131.735 277.078 132.121 276.774 132.628C276.584 132.121 276.273 131.735 275.843 131.469C275.425 131.203 274.893 131.07 274.247 131.07C273.689 131.07 273.202 131.197 272.784 131.45C272.378 131.691 272.049 132.052 271.796 132.533V131.26H269.782V140H271.796V134.68C271.796 134.262 271.865 133.907 272.005 133.616C272.144 133.325 272.34 133.103 272.594 132.951C272.86 132.799 273.17 132.723 273.525 132.723C274.031 132.723 274.399 132.888 274.627 133.217C274.867 133.534 274.988 134.021 274.988 134.68V140H277.04V134.68C277.04 134.262 277.109 133.907 277.249 133.616C277.401 133.325 277.603 133.103 277.857 132.951C278.123 132.799 278.427 132.723 278.769 132.723C279.275 132.723 279.643 132.888 279.871 133.217C280.111 133.534 280.232 134.021 280.232 134.68V140H282.284V134.452ZM292.352 126.7L284.448 142.85H286.519L294.366 126.7H292.352ZM298.579 125.18H296.527V140H298.579V125.18ZM302.151 134.68V140H304.222V134.395C304.222 133.648 304.108 133.027 303.88 132.533C303.652 132.026 303.31 131.646 302.854 131.393C302.411 131.14 301.866 131.013 301.22 131.013C300.562 131.013 299.998 131.178 299.529 131.507C299.073 131.836 298.719 132.273 298.465 132.818C298.212 133.363 298.085 133.983 298.085 134.68H298.579C298.579 134.287 298.662 133.945 298.826 133.654C298.991 133.363 299.219 133.135 299.51 132.97C299.802 132.805 300.137 132.723 300.517 132.723C301.087 132.723 301.499 132.888 301.752 133.217C302.018 133.546 302.151 134.034 302.151 134.68ZM306.73 135.63C306.73 136.517 306.933 137.308 307.338 138.005C307.756 138.689 308.32 139.227 309.029 139.62C309.738 140 310.543 140.19 311.442 140.19C312.341 140.19 313.139 140 313.836 139.62C314.545 139.227 315.109 138.689 315.527 138.005C315.945 137.308 316.154 136.517 316.154 135.63C316.154 134.731 315.945 133.939 315.527 133.255C315.109 132.571 314.545 132.039 313.836 131.659C313.139 131.266 312.341 131.07 311.442 131.07C310.543 131.07 309.738 131.266 309.029 131.659C308.32 132.039 307.756 132.571 307.338 133.255C306.933 133.939 306.73 134.731 306.73 135.63ZM308.839 135.63C308.839 135.085 308.953 134.604 309.181 134.186C309.409 133.768 309.719 133.445 310.112 133.217C310.505 132.989 310.948 132.875 311.442 132.875C311.923 132.875 312.36 132.989 312.753 133.217C313.158 133.445 313.475 133.768 313.703 134.186C313.931 134.604 314.045 135.085 314.045 135.63C314.045 136.175 313.931 136.656 313.703 137.074C313.475 137.479 313.158 137.802 312.753 138.043C312.36 138.271 311.923 138.385 311.442 138.385C310.948 138.385 310.505 138.271 310.112 138.043C309.719 137.802 309.409 137.479 309.181 137.074C308.953 136.656 308.839 136.175 308.839 135.63ZM331.173 134.452C331.173 133.73 331.072 133.116 330.869 132.609C330.666 132.102 330.356 131.722 329.938 131.469C329.533 131.203 329.02 131.07 328.399 131.07C327.804 131.07 327.272 131.203 326.803 131.469C326.347 131.735 325.967 132.121 325.663 132.628C325.473 132.121 325.163 131.735 324.732 131.469C324.314 131.203 323.782 131.07 323.136 131.07C322.579 131.07 322.091 131.197 321.673 131.45C321.268 131.691 320.938 132.052 320.685 132.533V131.26H318.671V140H320.685V134.68C320.685 134.262 320.755 133.907 320.894 133.616C321.033 133.325 321.23 133.103 321.483 132.951C321.749 132.799 322.059 132.723 322.414 132.723C322.921 132.723 323.288 132.888 323.516 133.217C323.757 133.534 323.877 134.021 323.877 134.68V140H325.929V134.68C325.929 134.262 325.999 133.907 326.138 133.616C326.29 133.325 326.493 133.103 326.746 132.951C327.012 132.799 327.316 132.723 327.658 132.723C328.165 132.723 328.532 132.888 328.76 133.217C329.001 133.534 329.121 134.021 329.121 134.68V140H331.173V134.452ZM338.163 140.19C339.176 140.19 340.044 139.994 340.766 139.601C341.488 139.208 342.077 138.619 342.533 137.834L340.766 137.112C340.487 137.581 340.139 137.929 339.721 138.157C339.303 138.385 338.815 138.499 338.258 138.499C337.726 138.499 337.27 138.385 336.89 138.157C336.523 137.929 336.244 137.6 336.054 137.169C335.864 136.726 335.769 136.187 335.769 135.554C335.782 134.921 335.883 134.389 336.073 133.958C336.263 133.527 336.542 133.198 336.909 132.97C337.276 132.742 337.72 132.628 338.239 132.628C338.67 132.628 339.043 132.723 339.36 132.913C339.689 133.103 339.943 133.369 340.12 133.711C340.31 134.053 340.405 134.458 340.405 134.927C340.405 135.016 340.38 135.13 340.329 135.269C340.291 135.396 340.253 135.497 340.215 135.573L340.842 134.699H334.914V136.105H342.59C342.603 136.054 342.609 135.972 342.609 135.858C342.622 135.744 342.628 135.636 342.628 135.535C342.628 134.598 342.451 133.8 342.096 133.141C341.754 132.47 341.26 131.957 340.614 131.602C339.968 131.247 339.183 131.07 338.258 131.07C337.333 131.07 336.529 131.26 335.845 131.64C335.161 132.007 334.629 132.533 334.249 133.217C333.882 133.901 333.698 134.705 333.698 135.63C333.698 136.542 333.882 137.34 334.249 138.024C334.616 138.708 335.136 139.24 335.807 139.62C336.491 140 337.276 140.19 338.163 140.19ZM351.089 126.7L343.185 142.85H345.256L353.103 126.7H351.089ZM355.11 135.63C355.11 135.085 355.231 134.604 355.471 134.186C355.712 133.768 356.035 133.439 356.44 133.198C356.858 132.957 357.321 132.837 357.827 132.837C358.233 132.837 358.625 132.9 359.005 133.027C359.385 133.154 359.721 133.331 360.012 133.559C360.316 133.774 360.538 134.028 360.677 134.319V132.058C360.373 131.754 359.962 131.513 359.442 131.336C358.923 131.159 358.353 131.07 357.732 131.07C356.833 131.07 356.022 131.266 355.3 131.659C354.591 132.039 354.027 132.571 353.609 133.255C353.204 133.939 353.001 134.731 353.001 135.63C353.001 136.517 353.204 137.308 353.609 138.005C354.027 138.689 354.591 139.227 355.3 139.62C356.022 140 356.833 140.19 357.732 140.19C358.353 140.19 358.923 140.101 359.442 139.924C359.962 139.747 360.373 139.506 360.677 139.202V136.941C360.538 137.22 360.323 137.473 360.031 137.701C359.74 137.929 359.404 138.106 359.024 138.233C358.644 138.36 358.245 138.423 357.827 138.423C357.321 138.423 356.858 138.303 356.44 138.062C356.035 137.821 355.712 137.498 355.471 137.093C355.231 136.675 355.11 136.187 355.11 135.63ZM364.808 137.283C364.808 137.004 364.871 136.77 364.998 136.58C365.137 136.39 365.34 136.244 365.606 136.143C365.872 136.029 366.22 135.972 366.651 135.972C367.145 135.972 367.613 136.035 368.057 136.162C368.5 136.289 368.918 136.491 369.311 136.77V135.725C369.197 135.586 369 135.434 368.722 135.269C368.443 135.092 368.088 134.94 367.658 134.813C367.24 134.686 366.739 134.623 366.157 134.623C365.067 134.623 364.225 134.876 363.63 135.383C363.034 135.877 362.737 136.548 362.737 137.397C362.737 137.992 362.876 138.499 363.155 138.917C363.433 139.335 363.807 139.652 364.276 139.867C364.744 140.082 365.251 140.19 365.796 140.19C366.302 140.19 366.796 140.101 367.278 139.924C367.772 139.734 368.177 139.455 368.494 139.088C368.823 138.708 368.988 138.239 368.988 137.682L368.684 136.542C368.684 136.973 368.576 137.353 368.361 137.682C368.158 137.999 367.886 138.239 367.544 138.404C367.214 138.569 366.847 138.651 366.442 138.651C366.125 138.651 365.84 138.6 365.587 138.499C365.346 138.398 365.156 138.246 365.017 138.043C364.877 137.828 364.808 137.574 364.808 137.283ZM364.162 133.54C364.288 133.451 364.478 133.344 364.732 133.217C364.998 133.078 365.308 132.964 365.663 132.875C366.03 132.774 366.416 132.723 366.822 132.723C367.088 132.723 367.335 132.748 367.563 132.799C367.791 132.85 367.987 132.932 368.152 133.046C368.316 133.16 368.443 133.306 368.532 133.483C368.633 133.66 368.684 133.888 368.684 134.167V140H370.698V133.768C370.698 133.185 370.539 132.698 370.223 132.305C369.906 131.9 369.469 131.589 368.912 131.374C368.367 131.159 367.734 131.051 367.012 131.051C366.201 131.051 365.479 131.165 364.846 131.393C364.225 131.621 363.718 131.855 363.326 132.096L364.162 133.54ZM372.444 131.26V133.065H377.403V131.26H372.444ZM373.907 128.22V140H375.94V128.22H373.907ZM383.188 140.19C384.201 140.19 385.069 139.994 385.791 139.601C386.513 139.208 387.102 138.619 387.558 137.834L385.791 137.112C385.512 137.581 385.164 137.929 384.746 138.157C384.328 138.385 383.84 138.499 383.283 138.499C382.751 138.499 382.295 138.385 381.915 138.157C381.548 137.929 381.269 137.6 381.079 137.169C380.889 136.726 380.794 136.187 380.794 135.554C380.807 134.921 380.908 134.389 381.098 133.958C381.288 133.527 381.567 133.198 381.934 132.97C382.301 132.742 382.745 132.628 383.264 132.628C383.695 132.628 384.068 132.723 384.385 132.913C384.714 133.103 384.968 133.369 385.145 133.711C385.335 134.053 385.43 134.458 385.43 134.927C385.43 135.016 385.405 135.13 385.354 135.269C385.316 135.396 385.278 135.497 385.24 135.573L385.867 134.699H379.939V136.105H387.615C387.628 136.054 387.634 135.972 387.634 135.858C387.647 135.744 387.653 135.636 387.653 135.535C387.653 134.598 387.476 133.8 387.121 133.141C386.779 132.47 386.285 131.957 385.639 131.602C384.993 131.247 384.208 131.07 383.283 131.07C382.358 131.07 381.554 131.26 380.87 131.64C380.186 132.007 379.654 132.533 379.274 133.217C378.907 133.901 378.723 134.705 378.723 135.63C378.723 136.542 378.907 137.34 379.274 138.024C379.641 138.708 380.161 139.24 380.832 139.62C381.516 140 382.301 140.19 383.188 140.19ZM389.688 140.589C389.713 141.349 389.903 142.02 390.258 142.603C390.625 143.186 391.144 143.635 391.816 143.952C392.487 144.281 393.298 144.446 394.248 144.446C395.046 144.446 395.787 144.275 396.471 143.933C397.155 143.604 397.706 143.097 398.124 142.413C398.554 141.729 398.77 140.861 398.77 139.81V131.26H396.756V139.81C396.756 140.469 396.629 141.007 396.376 141.425C396.135 141.843 395.818 142.153 395.426 142.356C395.033 142.559 394.621 142.66 394.191 142.66C393.709 142.66 393.285 142.571 392.918 142.394C392.55 142.217 392.259 141.97 392.044 141.653C391.841 141.336 391.733 140.982 391.721 140.589H389.688ZM389.517 135.592C389.517 136.542 389.713 137.353 390.106 138.024C390.498 138.695 391.018 139.208 391.664 139.563C392.322 139.918 393.025 140.095 393.773 140.095C394.507 140.095 395.147 139.918 395.692 139.563C396.249 139.196 396.686 138.676 397.003 138.005C397.332 137.334 397.497 136.529 397.497 135.592C397.497 134.642 397.332 133.831 397.003 133.16C396.686 132.489 396.249 131.976 395.692 131.621C395.147 131.254 394.507 131.07 393.773 131.07C393.025 131.07 392.322 131.247 391.664 131.602C391.018 131.957 390.498 132.47 390.106 133.141C389.713 133.8 389.517 134.617 389.517 135.592ZM391.645 135.592C391.645 134.997 391.765 134.496 392.006 134.091C392.246 133.686 392.563 133.382 392.956 133.179C393.361 132.964 393.798 132.856 394.267 132.856C394.558 132.856 394.849 132.913 395.141 133.027C395.445 133.141 395.717 133.318 395.958 133.559C396.198 133.787 396.388 134.072 396.528 134.414C396.68 134.743 396.756 135.136 396.756 135.592C396.756 136.175 396.629 136.675 396.376 137.093C396.135 137.498 395.818 137.802 395.426 138.005C395.046 138.208 394.659 138.309 394.267 138.309C393.798 138.309 393.361 138.208 392.956 138.005C392.563 137.79 392.246 137.479 392.006 137.074C391.765 136.669 391.645 136.175 391.645 135.592ZM401.219 135.63C401.219 136.517 401.422 137.308 401.827 138.005C402.245 138.689 402.809 139.227 403.518 139.62C404.228 140 405.032 140.19 405.931 140.19C406.831 140.19 407.629 140 408.325 139.62C409.035 139.227 409.598 138.689 410.016 138.005C410.434 137.308 410.643 136.517 410.643 135.63C410.643 134.731 410.434 133.939 410.016 133.255C409.598 132.571 409.035 132.039 408.325 131.659C407.629 131.266 406.831 131.07 405.931 131.07C405.032 131.07 404.228 131.266 403.518 131.659C402.809 132.039 402.245 132.571 401.827 133.255C401.422 133.939 401.219 134.731 401.219 135.63ZM403.328 135.63C403.328 135.085 403.442 134.604 403.67 134.186C403.898 133.768 404.209 133.445 404.601 133.217C404.994 132.989 405.437 132.875 405.931 132.875C406.413 132.875 406.85 132.989 407.242 133.217C407.648 133.445 407.964 133.768 408.192 134.186C408.42 134.604 408.534 135.085 408.534 135.63C408.534 136.175 408.42 136.656 408.192 137.074C407.964 137.479 407.648 137.802 407.242 138.043C406.85 138.271 406.413 138.385 405.931 138.385C405.437 138.385 404.994 138.271 404.601 138.043C404.209 137.802 403.898 137.479 403.67 137.074C403.442 136.656 403.328 136.175 403.328 135.63ZM415.193 131.26H413.16V140H415.193V131.26ZM417.796 133.445L418.784 131.716C418.594 131.475 418.36 131.311 418.081 131.222C417.803 131.121 417.505 131.07 417.188 131.07C416.745 131.07 416.314 131.228 415.896 131.545C415.491 131.862 415.155 132.292 414.889 132.837C414.636 133.369 414.509 133.983 414.509 134.68L415.193 135.079C415.193 134.661 415.238 134.3 415.326 133.996C415.428 133.679 415.586 133.432 415.801 133.255C416.017 133.078 416.295 132.989 416.637 132.989C416.891 132.989 417.1 133.027 417.264 133.103C417.429 133.179 417.606 133.293 417.796 133.445ZM429.071 131.26H426.867L424.131 138.119L425.1 138.176L422.307 131.26H419.951L423.466 138.974L421.186 144.18H423.371L429.071 131.26ZM436.616 126.7L428.712 142.85H430.783L438.63 126.7H436.616ZM441.45 144.18V131.26H439.379V144.18H441.45ZM448.689 135.63C448.689 134.655 448.493 133.825 448.1 133.141C447.708 132.457 447.188 131.938 446.542 131.583C445.896 131.216 445.193 131.032 444.433 131.032C443.686 131.032 443.034 131.222 442.476 131.602C441.932 131.969 441.507 132.495 441.203 133.179C440.912 133.863 440.766 134.68 440.766 135.63C440.766 136.567 440.912 137.384 441.203 138.081C441.507 138.765 441.932 139.297 442.476 139.677C443.034 140.044 443.686 140.228 444.433 140.228C445.193 140.228 445.896 140.051 446.542 139.696C447.188 139.329 447.708 138.803 448.1 138.119C448.493 137.422 448.689 136.593 448.689 135.63ZM446.561 135.63C446.561 136.213 446.441 136.713 446.2 137.131C445.96 137.536 445.637 137.847 445.231 138.062C444.839 138.265 444.402 138.366 443.92 138.366C443.528 138.366 443.141 138.265 442.761 138.062C442.381 137.847 442.065 137.536 441.811 137.131C441.571 136.726 441.45 136.225 441.45 135.63C441.45 135.035 441.571 134.534 441.811 134.129C442.065 133.724 442.381 133.42 442.761 133.217C443.141 133.002 443.528 132.894 443.92 132.894C444.402 132.894 444.839 133.002 445.231 133.217C445.637 133.42 445.96 133.73 446.2 134.148C446.441 134.553 446.561 135.047 446.561 135.63ZM453.247 131.26H451.214V140H453.247V131.26ZM455.85 133.445L456.838 131.716C456.648 131.475 456.414 131.311 456.135 131.222C455.856 131.121 455.559 131.07 455.242 131.07C454.799 131.07 454.368 131.228 453.95 131.545C453.545 131.862 453.209 132.292 452.943 132.837C452.69 133.369 452.563 133.983 452.563 134.68L453.247 135.079C453.247 134.661 453.291 134.3 453.38 133.996C453.481 133.679 453.64 133.432 453.855 133.255C454.07 133.078 454.349 132.989 454.691 132.989C454.944 132.989 455.153 133.027 455.318 133.103C455.483 133.179 455.66 133.293 455.85 133.445ZM457.873 135.63C457.873 136.517 458.075 137.308 458.481 138.005C458.899 138.689 459.462 139.227 460.172 139.62C460.881 140 461.685 140.19 462.585 140.19C463.484 140.19 464.282 140 464.979 139.62C465.688 139.227 466.252 138.689 466.67 138.005C467.088 137.308 467.297 136.517 467.297 135.63C467.297 134.731 467.088 133.939 466.67 133.255C466.252 132.571 465.688 132.039 464.979 131.659C464.282 131.266 463.484 131.07 462.585 131.07C461.685 131.07 460.881 131.266 460.172 131.659C459.462 132.039 458.899 132.571 458.481 133.255C458.075 133.939 457.873 134.731 457.873 135.63ZM459.982 135.63C459.982 135.085 460.096 134.604 460.324 134.186C460.552 133.768 460.862 133.445 461.255 133.217C461.647 132.989 462.091 132.875 462.585 132.875C463.066 132.875 463.503 132.989 463.896 133.217C464.301 133.445 464.618 133.768 464.846 134.186C465.074 134.604 465.188 135.085 465.188 135.63C465.188 136.175 465.074 136.656 464.846 137.074C464.618 137.479 464.301 137.802 463.896 138.043C463.503 138.271 463.066 138.385 462.585 138.385C462.091 138.385 461.647 138.271 461.255 138.043C460.862 137.802 460.552 137.479 460.324 137.074C460.096 136.656 459.982 136.175 459.982 135.63ZM476.388 125.18V140H478.459V125.18H476.388ZM469.149 135.63C469.149 136.58 469.345 137.397 469.738 138.081C470.131 138.765 470.65 139.291 471.296 139.658C471.955 140.013 472.658 140.19 473.405 140.19C474.14 140.19 474.779 140.006 475.324 139.639C475.881 139.272 476.318 138.746 476.635 138.062C476.964 137.378 477.129 136.567 477.129 135.63C477.129 134.68 476.964 133.869 476.635 133.198C476.318 132.514 475.881 131.988 475.324 131.621C474.779 131.254 474.14 131.07 473.405 131.07C472.658 131.07 471.955 131.254 471.296 131.621C470.65 131.976 470.131 132.495 469.738 133.179C469.345 133.85 469.149 134.667 469.149 135.63ZM471.277 135.63C471.277 135.047 471.397 134.547 471.638 134.129C471.879 133.711 472.195 133.394 472.588 133.179C472.993 132.964 473.43 132.856 473.899 132.856C474.292 132.856 474.678 132.964 475.058 133.179C475.451 133.394 475.767 133.711 476.008 134.129C476.261 134.534 476.388 135.035 476.388 135.63C476.388 136.225 476.261 136.732 476.008 137.15C475.767 137.555 475.451 137.866 475.058 138.081C474.678 138.296 474.292 138.404 473.899 138.404C473.43 138.404 472.993 138.296 472.588 138.081C472.195 137.866 471.879 137.549 471.638 137.131C471.397 136.713 471.277 136.213 471.277 135.63ZM483.681 136.58V131.26H481.572V136.808C481.572 137.847 481.832 138.67 482.351 139.278C482.883 139.886 483.637 140.19 484.612 140.19C485.22 140.19 485.74 140.063 486.17 139.81C486.614 139.544 486.975 139.158 487.253 138.651V140H489.305V131.26H487.253V136.58C487.253 136.973 487.171 137.321 487.006 137.625C486.842 137.916 486.614 138.144 486.322 138.309C486.031 138.461 485.689 138.537 485.296 138.537C484.752 138.537 484.346 138.366 484.08 138.024C483.814 137.682 483.681 137.201 483.681 136.58ZM493.864 135.63C493.864 135.085 493.984 134.604 494.225 134.186C494.466 133.768 494.789 133.439 495.194 133.198C495.612 132.957 496.074 132.837 496.581 132.837C496.986 132.837 497.379 132.9 497.759 133.027C498.139 133.154 498.475 133.331 498.766 133.559C499.07 133.774 499.292 134.028 499.431 134.319V132.058C499.127 131.754 498.715 131.513 498.196 131.336C497.677 131.159 497.107 131.07 496.486 131.07C495.587 131.07 494.776 131.266 494.054 131.659C493.345 132.039 492.781 132.571 492.363 133.255C491.958 133.939 491.755 134.731 491.755 135.63C491.755 136.517 491.958 137.308 492.363 138.005C492.781 138.689 493.345 139.227 494.054 139.62C494.776 140 495.587 140.19 496.486 140.19C497.107 140.19 497.677 140.101 498.196 139.924C498.715 139.747 499.127 139.506 499.431 139.202V136.941C499.292 137.22 499.076 137.473 498.785 137.701C498.494 137.929 498.158 138.106 497.778 138.233C497.398 138.36 496.999 138.423 496.581 138.423C496.074 138.423 495.612 138.303 495.194 138.062C494.789 137.821 494.466 137.498 494.225 137.093C493.984 136.675 493.864 136.187 493.864 135.63ZM501.053 131.26V133.065H506.012V131.26H501.053ZM502.516 128.22V140H504.549V128.22H502.516Z" fill="#454545"/>
<path d="M268.586 196.414C269.367 197.195 270.633 197.195 271.414 196.414L284.142 183.686C284.923 182.905 284.923 181.639 284.142 180.858C283.361 180.077 282.095 180.077 281.314 180.858L270 192.172L258.686 180.858C257.905 180.077 256.639 180.077 255.858 180.858C255.077 181.639 255.077 182.905 255.858 183.686L268.586 196.414ZM272 164C272 162.895 271.105 162 270 162C268.895 162 268 162.895 268 164H272ZM272 195V164H268V195H272Z" fill="#686868"/>
<g filter="url(#filter1_d_1553_22635)">
<rect x="136" y="206" width="275" height="38" rx="19" fill="#5E9BF0"/>
</g>
<path d="M183.363 215.68H181.311V230.5H183.363V215.68ZM186.935 225.18V230.5H189.006V224.895C189.006 224.148 188.892 223.527 188.664 223.033C188.436 222.526 188.094 222.146 187.638 221.893C187.195 221.64 186.65 221.513 186.004 221.513C185.345 221.513 184.782 221.678 184.313 222.007C183.857 222.336 183.502 222.773 183.249 223.318C182.996 223.863 182.869 224.483 182.869 225.18H183.363C183.363 224.787 183.445 224.445 183.61 224.154C183.775 223.863 184.003 223.635 184.294 223.47C184.585 223.305 184.921 223.223 185.301 223.223C185.871 223.223 186.283 223.388 186.536 223.717C186.802 224.046 186.935 224.534 186.935 225.18ZM190.963 221.76V223.565H195.922V221.76H190.963ZM192.426 218.72V230.5H194.459V218.72H192.426ZM196.691 221.76V223.565H201.65V221.76H196.691ZM198.154 218.72V230.5H200.187V218.72H198.154ZM205.63 234.68V221.76H203.559V234.68H205.63ZM212.869 226.13C212.869 225.155 212.673 224.325 212.28 223.641C211.888 222.957 211.368 222.438 210.722 222.083C210.076 221.716 209.373 221.532 208.613 221.532C207.866 221.532 207.214 221.722 206.656 222.102C206.112 222.469 205.687 222.995 205.383 223.679C205.092 224.363 204.946 225.18 204.946 226.13C204.946 227.067 205.092 227.884 205.383 228.581C205.687 229.265 206.112 229.797 206.656 230.177C207.214 230.544 207.866 230.728 208.613 230.728C209.373 230.728 210.076 230.551 210.722 230.196C211.368 229.829 211.888 229.303 212.28 228.619C212.673 227.922 212.869 227.093 212.869 226.13ZM210.741 226.13C210.741 226.713 210.621 227.213 210.38 227.631C210.14 228.036 209.817 228.347 209.411 228.562C209.019 228.765 208.582 228.866 208.1 228.866C207.708 228.866 207.321 228.765 206.941 228.562C206.561 228.347 206.245 228.036 205.991 227.631C205.751 227.226 205.63 226.725 205.63 226.13C205.63 225.535 205.751 225.034 205.991 224.629C206.245 224.224 206.561 223.92 206.941 223.717C207.321 223.502 207.708 223.394 208.1 223.394C208.582 223.394 209.019 223.502 209.411 223.717C209.817 223.92 210.14 224.23 210.38 224.648C210.621 225.053 210.741 225.547 210.741 226.13ZM215.793 227.631L214.596 228.828C214.849 229.157 215.159 229.474 215.527 229.778C215.907 230.069 216.344 230.31 216.838 230.5C217.344 230.677 217.895 230.766 218.491 230.766C219.453 230.766 220.213 230.519 220.771 230.025C221.341 229.518 221.626 228.853 221.626 228.03C221.626 227.498 221.499 227.067 221.246 226.738C221.005 226.409 220.682 226.13 220.277 225.902C219.871 225.674 219.428 225.465 218.947 225.275C218.592 225.136 218.269 225.003 217.978 224.876C217.699 224.749 217.471 224.61 217.294 224.458C217.129 224.293 217.047 224.11 217.047 223.907C217.047 223.666 217.142 223.483 217.332 223.356C217.522 223.229 217.762 223.166 218.054 223.166C218.484 223.166 218.902 223.274 219.308 223.489C219.713 223.704 220.061 223.983 220.353 224.325L221.493 223.109C221.252 222.818 220.961 222.558 220.619 222.33C220.277 222.102 219.89 221.918 219.46 221.779C219.042 221.64 218.592 221.57 218.111 221.57C217.579 221.57 217.078 221.659 216.61 221.836C216.154 222.001 215.786 222.26 215.508 222.615C215.242 222.97 215.109 223.413 215.109 223.945C215.109 224.464 215.229 224.895 215.47 225.237C215.723 225.579 216.04 225.858 216.42 226.073C216.812 226.276 217.205 226.453 217.598 226.605C217.99 226.744 218.332 226.884 218.624 227.023C218.915 227.15 219.143 227.308 219.308 227.498C219.472 227.675 219.555 227.891 219.555 228.144C219.555 228.435 219.447 228.663 219.232 228.828C219.029 228.993 218.744 229.075 218.377 229.075C218.085 229.075 217.794 229.024 217.503 228.923C217.211 228.809 216.92 228.644 216.629 228.429C216.35 228.201 216.071 227.935 215.793 227.631ZM224.301 229.531C224.301 229.886 224.428 230.196 224.681 230.462C224.947 230.728 225.264 230.861 225.631 230.861C226.024 230.861 226.347 230.728 226.6 230.462C226.854 230.196 226.98 229.886 226.98 229.531C226.98 229.164 226.854 228.853 226.6 228.6C226.347 228.334 226.024 228.201 225.631 228.201C225.264 228.201 224.947 228.334 224.681 228.6C224.428 228.853 224.301 229.164 224.301 229.531ZM224.301 222.349C224.301 222.716 224.428 223.033 224.681 223.299C224.947 223.552 225.264 223.679 225.631 223.679C226.024 223.679 226.347 223.552 226.6 223.299C226.854 223.033 226.98 222.716 226.98 222.349C226.98 221.982 226.854 221.671 226.6 221.418C226.347 221.152 226.024 221.019 225.631 221.019C225.264 221.019 224.947 221.152 224.681 221.418C224.428 221.671 224.301 221.982 224.301 222.349ZM237.328 217.2L229.424 233.35H231.495L239.342 217.2H237.328ZM246.489 217.2L238.585 233.35H240.656L248.503 217.2H246.489ZM261.83 224.952C261.83 224.23 261.729 223.616 261.526 223.109C261.323 222.602 261.013 222.222 260.595 221.969C260.19 221.703 259.677 221.57 259.056 221.57C258.461 221.57 257.929 221.703 257.46 221.969C257.004 222.235 256.624 222.621 256.32 223.128C256.13 222.621 255.82 222.235 255.389 221.969C254.971 221.703 254.439 221.57 253.793 221.57C253.236 221.57 252.748 221.697 252.33 221.95C251.925 222.191 251.595 222.552 251.342 223.033V221.76H249.328V230.5H251.342V225.18C251.342 224.762 251.412 224.407 251.551 224.116C251.69 223.825 251.887 223.603 252.14 223.451C252.406 223.299 252.716 223.223 253.071 223.223C253.578 223.223 253.945 223.388 254.173 223.717C254.414 224.034 254.534 224.521 254.534 225.18V230.5H256.586V225.18C256.586 224.762 256.656 224.407 256.795 224.116C256.947 223.825 257.15 223.603 257.403 223.451C257.669 223.299 257.973 223.223 258.315 223.223C258.822 223.223 259.189 223.388 259.417 223.717C259.658 224.034 259.778 224.521 259.778 225.18V230.5H261.83V224.952ZM265.305 229.531C265.305 229.886 265.432 230.196 265.685 230.462C265.951 230.728 266.268 230.861 266.635 230.861C267.028 230.861 267.351 230.728 267.604 230.462C267.857 230.196 267.984 229.886 267.984 229.531C267.984 229.164 267.857 228.853 267.604 228.6C267.351 228.334 267.028 228.201 266.635 228.201C266.268 228.201 265.951 228.334 265.685 228.6C265.432 228.853 265.305 229.164 265.305 229.531ZM278.654 221.684C278.654 222.229 278.534 222.71 278.293 223.128C278.065 223.546 277.749 223.875 277.343 224.116C276.938 224.357 276.482 224.477 275.975 224.477C275.456 224.477 274.994 224.357 274.588 224.116C274.183 223.875 273.86 223.546 273.619 223.128C273.391 222.71 273.277 222.229 273.277 221.684C273.277 221.139 273.391 220.664 273.619 220.259C273.86 219.841 274.183 219.518 274.588 219.29C274.994 219.049 275.456 218.929 275.975 218.929C276.482 218.929 276.938 219.049 277.343 219.29C277.749 219.518 278.065 219.841 278.293 220.259C278.534 220.664 278.654 221.139 278.654 221.684ZM275.5 230.481L279.718 224.819C280.048 224.388 280.314 223.913 280.516 223.394C280.732 222.875 280.839 222.305 280.839 221.684C280.839 220.696 280.624 219.854 280.193 219.157C279.763 218.448 279.18 217.909 278.445 217.542C277.711 217.162 276.887 216.972 275.975 216.972C275.063 216.972 274.24 217.162 273.505 217.542C272.771 217.909 272.182 218.448 271.738 219.157C271.308 219.854 271.092 220.696 271.092 221.684C271.092 222.317 271.2 222.9 271.415 223.432C271.631 223.964 271.922 224.426 272.289 224.819C272.669 225.199 273.1 225.49 273.581 225.693C274.063 225.896 274.569 225.997 275.101 225.997C275.545 225.997 275.931 225.946 276.26 225.845C276.59 225.744 276.906 225.528 277.21 225.199L276.868 225.256L272.65 230.481H275.5ZM295.807 224.952C295.807 224.23 295.705 223.616 295.503 223.109C295.3 222.602 294.99 222.222 294.572 221.969C294.166 221.703 293.653 221.57 293.033 221.57C292.437 221.57 291.905 221.703 291.437 221.969C290.981 222.235 290.601 222.621 290.297 223.128C290.107 222.621 289.796 222.235 289.366 221.969C288.948 221.703 288.416 221.57 287.77 221.57C287.212 221.57 286.725 221.697 286.307 221.95C285.901 222.191 285.572 222.552 285.319 223.033V221.76H283.305V230.5H285.319V225.18C285.319 224.762 285.388 224.407 285.528 224.116C285.667 223.825 285.863 223.603 286.117 223.451C286.383 223.299 286.693 223.223 287.048 223.223C287.554 223.223 287.922 223.388 288.15 223.717C288.39 224.034 288.511 224.521 288.511 225.18V230.5H290.563V225.18C290.563 224.762 290.632 224.407 290.772 224.116C290.924 223.825 291.126 223.603 291.38 223.451C291.646 223.299 291.95 223.223 292.292 223.223C292.798 223.223 293.166 223.388 293.394 223.717C293.634 224.034 293.755 224.521 293.755 225.18V230.5H295.807V224.952ZM299.282 229.531C299.282 229.886 299.408 230.196 299.662 230.462C299.928 230.728 300.244 230.861 300.612 230.861C301.004 230.861 301.327 230.728 301.581 230.462C301.834 230.196 301.961 229.886 301.961 229.531C301.961 229.164 301.834 228.853 301.581 228.6C301.327 228.334 301.004 228.201 300.612 228.201C300.244 228.201 299.928 228.334 299.662 228.6C299.408 228.853 299.282 229.164 299.282 229.531ZM305.354 218.283C305.354 218.625 305.481 218.923 305.734 219.176C306 219.417 306.304 219.537 306.646 219.537C307.013 219.537 307.317 219.417 307.558 219.176C307.811 218.923 307.938 218.625 307.938 218.283C307.938 217.928 307.811 217.631 307.558 217.39C307.317 217.149 307.013 217.029 306.646 217.029C306.304 217.029 306 217.149 305.734 217.39C305.481 217.631 305.354 217.928 305.354 218.283ZM305.639 221.76V230.5H307.653V221.76H305.639ZM310.382 226.13C310.382 227.017 310.585 227.808 310.99 228.505C311.408 229.189 311.972 229.727 312.681 230.12C313.39 230.5 314.195 230.69 315.094 230.69C315.993 230.69 316.791 230.5 317.488 230.12C318.197 229.727 318.761 229.189 319.179 228.505C319.597 227.808 319.806 227.017 319.806 226.13C319.806 225.231 319.597 224.439 319.179 223.755C318.761 223.071 318.197 222.539 317.488 222.159C316.791 221.766 315.993 221.57 315.094 221.57C314.195 221.57 313.39 221.766 312.681 222.159C311.972 222.539 311.408 223.071 310.99 223.755C310.585 224.439 310.382 225.231 310.382 226.13ZM312.491 226.13C312.491 225.585 312.605 225.104 312.833 224.686C313.061 224.268 313.371 223.945 313.764 223.717C314.157 223.489 314.6 223.375 315.094 223.375C315.575 223.375 316.012 223.489 316.405 223.717C316.81 223.945 317.127 224.268 317.355 224.686C317.583 225.104 317.697 225.585 317.697 226.13C317.697 226.675 317.583 227.156 317.355 227.574C317.127 227.979 316.81 228.302 316.405 228.543C316.012 228.771 315.575 228.885 315.094 228.885C314.6 228.885 314.157 228.771 313.764 228.543C313.371 228.302 313.061 227.979 312.833 227.574C312.605 227.156 312.491 226.675 312.491 226.13ZM328.255 217.2L320.351 233.35H322.422L330.269 217.2H328.255ZM330.936 227.631L329.739 228.828C329.993 229.157 330.303 229.474 330.67 229.778C331.05 230.069 331.487 230.31 331.981 230.5C332.488 230.677 333.039 230.766 333.634 230.766C334.597 230.766 335.357 230.519 335.914 230.025C336.484 229.518 336.769 228.853 336.769 228.03C336.769 227.498 336.643 227.067 336.389 226.738C336.149 226.409 335.826 226.13 335.42 225.902C335.015 225.674 334.572 225.465 334.09 225.275C333.736 225.136 333.413 225.003 333.121 224.876C332.843 224.749 332.615 224.61 332.437 224.458C332.273 224.293 332.19 224.11 332.19 223.907C332.19 223.666 332.285 223.483 332.475 223.356C332.665 223.229 332.906 223.166 333.197 223.166C333.628 223.166 334.046 223.274 334.451 223.489C334.857 223.704 335.205 223.983 335.496 224.325L336.636 223.109C336.396 222.818 336.104 222.558 335.762 222.33C335.42 222.102 335.034 221.918 334.603 221.779C334.185 221.64 333.736 221.57 333.254 221.57C332.722 221.57 332.222 221.659 331.753 221.836C331.297 222.001 330.93 222.26 330.651 222.615C330.385 222.97 330.252 223.413 330.252 223.945C330.252 224.464 330.373 224.895 330.613 225.237C330.867 225.579 331.183 225.858 331.563 226.073C331.956 226.276 332.349 226.453 332.741 226.605C333.134 226.744 333.476 226.884 333.767 227.023C334.059 227.15 334.287 227.308 334.451 227.498C334.616 227.675 334.698 227.891 334.698 228.144C334.698 228.435 334.591 228.663 334.375 228.828C334.173 228.993 333.888 229.075 333.52 229.075C333.229 229.075 332.938 229.024 332.646 228.923C332.355 228.809 332.064 228.644 331.772 228.429C331.494 228.201 331.215 227.935 330.936 227.631ZM341.212 215.68H339.16V230.5H341.212V215.68ZM344.784 225.18V230.5H346.855V224.895C346.855 224.148 346.741 223.527 346.513 223.033C346.285 222.526 345.943 222.146 345.487 221.893C345.044 221.64 344.499 221.513 343.853 221.513C343.195 221.513 342.631 221.678 342.162 222.007C341.706 222.336 341.352 222.773 341.098 223.318C340.845 223.863 340.718 224.483 340.718 225.18H341.212C341.212 224.787 341.295 224.445 341.459 224.154C341.624 223.863 341.852 223.635 342.143 223.47C342.435 223.305 342.77 223.223 343.15 223.223C343.72 223.223 344.132 223.388 344.385 223.717C344.651 224.046 344.784 224.534 344.784 225.18ZM352.061 221.76H350.028V230.5H352.061V221.76ZM354.664 223.945L355.652 222.216C355.462 221.975 355.228 221.811 354.949 221.722C354.67 221.621 354.373 221.57 354.056 221.57C353.613 221.57 353.182 221.728 352.764 222.045C352.359 222.362 352.023 222.792 351.757 223.337C351.504 223.869 351.377 224.483 351.377 225.18L352.061 225.579C352.061 225.161 352.105 224.8 352.194 224.496C352.295 224.179 352.454 223.932 352.669 223.755C352.884 223.578 353.163 223.489 353.505 223.489C353.758 223.489 353.967 223.527 354.132 223.603C354.297 223.679 354.474 223.793 354.664 223.945ZM356.414 221.76V223.565H361.373V221.76H356.414ZM357.877 218.72V230.5H359.91V218.72H357.877ZM363.472 220.316L366.55 219.461V230.5H368.773V216.991L363.472 218.188V220.316ZM374.922 215.68H372.851V230.5H374.922V215.68ZM382.161 226.13C382.161 225.167 381.965 224.35 381.572 223.679C381.18 222.995 380.66 222.476 380.014 222.121C379.368 221.754 378.665 221.57 377.905 221.57C377.183 221.57 376.537 221.754 375.967 222.121C375.41 222.488 374.973 223.014 374.656 223.698C374.34 224.369 374.181 225.18 374.181 226.13C374.181 227.067 374.34 227.878 374.656 228.562C374.973 229.246 375.41 229.772 375.967 230.139C376.537 230.506 377.183 230.69 377.905 230.69C378.665 230.69 379.368 230.513 380.014 230.158C380.66 229.791 381.18 229.265 381.572 228.581C381.965 227.897 382.161 227.08 382.161 226.13ZM380.033 226.13C380.033 226.713 379.913 227.213 379.672 227.631C379.432 228.049 379.109 228.366 378.703 228.581C378.311 228.796 377.874 228.904 377.392 228.904C377 228.904 376.613 228.796 376.233 228.581C375.853 228.366 375.537 228.055 375.283 227.65C375.043 227.232 374.922 226.725 374.922 226.13C374.922 225.535 375.043 225.034 375.283 224.629C375.537 224.211 375.853 223.894 376.233 223.679C376.613 223.464 377 223.356 377.392 223.356C377.874 223.356 378.311 223.464 378.703 223.679C379.109 223.894 379.432 224.211 379.672 224.629C379.913 225.047 380.033 225.547 380.033 226.13ZM383.964 221.76V223.565H388.98V221.76H383.964ZM388.752 217.884L389.721 216.288C389.62 216.161 389.474 216.035 389.284 215.908C389.107 215.781 388.891 215.674 388.638 215.585C388.385 215.496 388.087 215.452 387.745 215.452C387.137 215.452 386.624 215.572 386.206 215.813C385.788 216.041 385.465 216.383 385.237 216.839C385.022 217.282 384.914 217.846 384.914 218.53V230.5H386.928V218.929C386.928 218.562 386.966 218.264 387.042 218.036C387.118 217.808 387.219 217.643 387.346 217.542C387.485 217.441 387.65 217.39 387.84 217.39C388.005 217.39 388.163 217.422 388.315 217.485C388.48 217.548 388.625 217.681 388.752 217.884Z" fill="white"/>
<path d="M163.591 225.41C164.001 225.8 164.001 226.44 163.591 226.83C163.201 227.22 162.561 227.22 162.171 226.83C161.234 225.892 160.708 224.621 160.708 223.295C160.708 221.969 161.234 220.698 162.171 219.76L165.711 216.22C166.649 215.283 167.92 214.757 169.246 214.757C170.571 214.757 171.842 215.283 172.781 216.22C173.717 217.158 174.243 218.429 174.243 219.755C174.243 221.081 173.717 222.352 172.781 223.29L171.291 224.78C171.301 223.96 171.171 223.14 170.891 222.36L171.361 221.88C171.641 221.603 171.863 221.273 172.015 220.909C172.167 220.545 172.245 220.154 172.245 219.76C172.245 219.366 172.167 218.975 172.015 218.611C171.863 218.247 171.641 217.917 171.361 217.64C171.083 217.36 170.753 217.137 170.389 216.985C170.025 216.833 169.635 216.755 169.241 216.755C168.846 216.755 168.456 216.833 168.092 216.985C167.728 217.137 167.398 217.36 167.121 217.64L163.591 221.17C163.31 221.447 163.088 221.777 162.936 222.141C162.784 222.505 162.706 222.896 162.706 223.29C162.706 223.684 162.784 224.075 162.936 224.439C163.088 224.803 163.31 225.133 163.591 225.41ZM166.411 221.17C166.801 220.78 167.441 220.78 167.831 221.17C168.767 222.108 169.293 223.379 169.293 224.705C169.293 226.031 168.767 227.302 167.831 228.24L164.291 231.78C163.352 232.717 162.081 233.243 160.756 233.243C159.43 233.243 158.159 232.717 157.221 231.78C156.284 230.842 155.758 229.571 155.758 228.245C155.758 226.919 156.284 225.648 157.221 224.71L158.711 223.22C158.701 224.04 158.831 224.86 159.111 225.65L158.641 226.12C158.36 226.397 158.138 226.727 157.986 227.091C157.834 227.455 157.756 227.846 157.756 228.24C157.756 228.634 157.834 229.025 157.986 229.389C158.138 229.753 158.36 230.083 158.641 230.36C158.918 230.64 159.248 230.863 159.612 231.015C159.976 231.167 160.366 231.245 160.761 231.245C161.155 231.245 161.545 231.167 161.909 231.015C162.273 230.863 162.603 230.64 162.881 230.36L166.411 226.83C166.691 226.553 166.913 226.223 167.065 225.859C167.217 225.495 167.295 225.104 167.295 224.71C167.295 224.316 167.217 223.925 167.065 223.561C166.913 223.197 166.691 222.867 166.411 222.59C166.313 222.499 166.236 222.389 166.183 222.267C166.13 222.145 166.103 222.013 166.103 221.88C166.103 221.747 166.13 221.615 166.183 221.493C166.236 221.371 166.313 221.261 166.411 221.17Z" fill="white"/>
</g>
<defs>
<filter id="filter0_d_1553_22635" x="-12" y="99" width="559" height="72" filterUnits="userSpaceOnUse" color-interpolation-filters="sRGB">
<feFlood flood-opacity="0" result="BackgroundImageFix"/>
<feColorMatrix in="SourceAlpha" type="matrix" values="0 0 0 0 0 0 0 0 0 0 0 0 0 0 0 0 0 0 127 0" result="hardAlpha"/>
<feOffset dy="1"/>
<feGaussianBlur stdDeviation="8.5"/>
<feComposite in2="hardAlpha" operator="out"/>
<feColorMatrix type="matrix" values="0 0 0 0 0 0 0 0 0 0 0 0 0 0 0 0 0 0 0.14 0"/>
<feBlend mode="normal" in2="BackgroundImageFix" result="effect1_dropShadow_1553_22635"/>
<feBlend mode="normal" in="SourceGraphic" in2="effect1_dropShadow_1553_22635" result="shape"/>
</filter>
<filter id="filter1_d_1553_22635" x="119" y="191" width="309" height="72" filterUnits="userSpaceOnUse" color-interpolation-filters="sRGB">
<feFlood flood-opacity="0" result="BackgroundImageFix"/>
<feColorMatrix in="SourceAlpha" type="matrix" values="0 0 0 0 0 0 0 0 0 0 0 0 0 0 0 0 0 0 127 0" result="hardAlpha"/>
<feOffset dy="2"/>
<feGaussianBlur stdDeviation="8.5"/>
<feComposite in2="hardAlpha" operator="out"/>
<feColorMatrix type="matrix" values="0 0 0 0 0 0 0 0 0 0 0 0 0 0 0 0 0 0 0.25 0"/>
<feBlend mode="normal" in2="BackgroundImageFix" result="effect1_dropShadow_1553_22635"/>
<feBlend mode="normal" in="SourceGraphic" in2="effect1_dropShadow_1553_22635" result="shape"/>
</filter>
<clipPath id="clip0_1553_22635">
<rect width="544" height="337" fill="white" transform="translate(0 0.5)"/>
</clipPath>
</defs>
</svg>
