<svg width="220" height="140" viewBox="0 0 220 140" fill="none" xmlns="http://www.w3.org/2000/svg">
<g clip-path="url(#clip0_2960_98061)">
<g filter="url(#filter0_d_2960_98061)">
<rect x="18.3334" y="8.62842" width="183.333" height="122.222" rx="3.87567" fill="white"/>
</g>
<ellipse cx="27.5" cy="17.7941" rx="3.05555" ry="3.05556" fill="#DF434C"/>
<ellipse cx="35.1389" cy="17.7938" rx="3.05555" ry="3.05556" fill="#E7B44C"/>
<ellipse cx="42.7778" cy="17.7938" rx="3.05555" ry="3.05556" fill="#6BD280"/>
<rect x="51.9444" y="14.7383" width="143.611" height="6.11111" rx="3.05556" fill="#E1E3E8"/>
<g filter="url(#filter1_d_2960_98061)">
<rect x="2.61902" y="47.4767" width="215.417" height="18.3333" rx="9.16666" fill="#F2F2F3" shape-rendering="crispEdges"/>
<path d="M11.1363 60.7506V53.8114H11.9888V56.7723L11.8329 56.6898C11.9551 56.3781 12.1507 56.1367 12.4196 55.9656C12.6946 55.7884 13.0154 55.6998 13.3821 55.6998C13.7365 55.6998 14.0513 55.7792 14.3263 55.9381C14.6074 56.097 14.8274 56.317 14.9863 56.5981C15.1513 56.8792 15.2338 57.197 15.2338 57.5514V60.7506H14.3721V57.8264C14.3721 57.5514 14.3201 57.3192 14.2163 57.1298C14.1185 56.9403 13.981 56.7937 13.8038 56.6898C13.6265 56.5798 13.4218 56.5248 13.1896 56.5248C12.9635 56.5248 12.7588 56.5798 12.5754 56.6898C12.3921 56.7937 12.2485 56.9434 12.1446 57.1389C12.0407 57.3284 11.9888 57.5576 11.9888 57.8264V60.7506H11.1363ZM18.4611 60.8056C17.9784 60.8056 17.6056 60.6681 17.3428 60.3931C17.0861 60.1181 16.9578 59.7301 16.9578 59.2289V56.6256H16.0595V55.8098H16.2428C16.4628 55.8098 16.637 55.7426 16.7653 55.6081C16.8936 55.4737 16.9578 55.2964 16.9578 55.0764V54.6731H17.8103V55.8098H18.9195V56.6256H17.8103V59.2014C17.8103 59.3664 17.8348 59.5101 17.8836 59.6323C17.9386 59.7545 18.0273 59.8523 18.1495 59.9256C18.2717 59.9928 18.4336 60.0264 18.6353 60.0264C18.6781 60.0264 18.73 60.0234 18.7911 60.0173C18.8584 60.0112 18.9195 60.0051 18.9745 59.9989V60.7506C18.895 60.7689 18.8064 60.7812 18.7086 60.7873C18.6109 60.7995 18.5284 60.8056 18.4611 60.8056ZM22.0956 60.8056C21.6128 60.8056 21.24 60.6681 20.9772 60.3931C20.7206 60.1181 20.5922 59.7301 20.5922 59.2289V56.6256H19.6939V55.8098H19.8772C20.0972 55.8098 20.2714 55.7426 20.3997 55.6081C20.5281 55.4737 20.5922 55.2964 20.5922 55.0764V54.6731H21.4447V55.8098H22.5539V56.6256H21.4447V59.2014C21.4447 59.3664 21.4692 59.5101 21.5181 59.6323C21.5731 59.7545 21.6617 59.8523 21.7839 59.9256C21.9061 59.9928 22.0681 60.0264 22.2697 60.0264C22.3125 60.0264 22.3645 60.0234 22.4256 60.0173C22.4928 60.0112 22.5539 60.0051 22.6089 59.9989V60.7506C22.5295 60.7689 22.4409 60.7812 22.3431 60.7873C22.2453 60.7995 22.1628 60.8056 22.0956 60.8056ZM23.7225 62.5839V55.8098H24.5567V56.8731L24.4467 56.6623C24.63 56.3689 24.8806 56.1367 25.1984 55.9656C25.5161 55.7884 25.8797 55.6998 26.2892 55.6998C26.7536 55.6998 27.1692 55.8128 27.5359 56.0389C27.9086 56.2651 28.202 56.5737 28.4159 56.9648C28.6297 57.3498 28.7367 57.7898 28.7367 58.2848C28.7367 58.7676 28.6297 59.2045 28.4159 59.5956C28.202 59.9867 27.9086 60.2953 27.5359 60.5214C27.1692 60.7476 26.7506 60.8606 26.28 60.8606C25.8828 60.8606 25.5192 60.772 25.1892 60.5948C24.8653 60.4176 24.6147 60.167 24.4375 59.8431L24.575 59.6964V62.5839H23.7225ZM26.2159 60.0356C26.5275 60.0356 26.8056 59.9592 27.05 59.8064C27.2945 59.6537 27.4839 59.4459 27.6184 59.1831C27.7589 58.9142 27.8292 58.6148 27.8292 58.2848C27.8292 57.9426 27.7589 57.6431 27.6184 57.3864C27.4839 57.1237 27.2945 56.9159 27.05 56.7631C26.8056 56.6042 26.5275 56.5248 26.2159 56.5248C25.9042 56.5248 25.6231 56.6012 25.3725 56.7539C25.1281 56.9067 24.9325 57.1176 24.7859 57.3864C24.6453 57.6492 24.575 57.9487 24.575 58.2848C24.575 58.6148 24.6453 58.9142 24.7859 59.1831C24.9325 59.4459 25.1281 59.6537 25.3725 59.8064C25.6231 59.9592 25.9042 60.0356 26.2159 60.0356ZM31.6237 60.8606C31.1287 60.8606 30.6978 60.7384 30.3312 60.4939C29.9645 60.2495 29.7048 59.9195 29.552 59.5039L30.2303 59.1739C30.3709 59.4673 30.5634 59.6995 30.8078 59.8706C31.0523 60.0417 31.3242 60.1273 31.6237 60.1273C31.8926 60.1273 32.1156 60.0631 32.2928 59.9348C32.4701 59.8064 32.5587 59.6384 32.5587 59.4306C32.5587 59.2839 32.5159 59.1678 32.4303 59.0823C32.3509 58.9906 32.2531 58.9203 32.137 58.8714C32.0209 58.8164 31.914 58.7767 31.8162 58.7523L31.0737 58.5414C30.6276 58.4131 30.3006 58.2298 30.0928 57.9914C29.8912 57.7531 29.7903 57.4751 29.7903 57.1573C29.7903 56.8639 29.8637 56.6103 30.0103 56.3964C30.1631 56.1764 30.3678 56.0053 30.6245 55.8831C30.8873 55.7609 31.1806 55.6998 31.5045 55.6998C31.9384 55.6998 32.3265 55.8098 32.6687 56.0298C33.017 56.2498 33.2645 56.5584 33.4112 56.9556L32.7145 57.2764C32.6045 57.0198 32.4395 56.8181 32.2195 56.6714C31.9995 56.5187 31.752 56.4423 31.477 56.4423C31.2265 56.4423 31.0278 56.5064 30.8812 56.6348C30.7345 56.757 30.6612 56.9128 30.6612 57.1023C30.6612 57.2428 30.6978 57.3589 30.7712 57.4506C30.8445 57.5362 30.9331 57.6034 31.037 57.6523C31.1409 57.6951 31.2417 57.7317 31.3395 57.7623L32.1462 58.0006C32.5495 58.1167 32.8612 58.297 33.0812 58.5414C33.3073 58.7859 33.4203 59.0792 33.4203 59.4214C33.4203 59.6964 33.344 59.9439 33.1912 60.1639C33.0384 60.3839 32.8276 60.5551 32.5587 60.6773C32.2898 60.7995 31.9781 60.8606 31.6237 60.8606ZM34.8847 60.7506V59.6506H35.7738V60.7506H34.8847ZM34.8847 56.9098V55.8098H35.7738V56.9098H34.8847ZM36.8498 61.8506L39.9298 54.2973H40.8923L37.8123 61.8506H36.8498ZM41.0214 61.8506L44.1014 54.2973H45.0639L41.9839 61.8506H41.0214ZM46.9254 60.7506L45.2296 55.8098H46.1738L47.5213 59.9439L47.1913 59.9348L48.5113 55.8098H49.3179L50.6379 59.9348L50.3079 59.9439L51.6646 55.8098H52.5996L50.9038 60.7506H50.0879L48.7863 56.6256H49.0429L47.7413 60.7506H46.9254ZM54.4987 60.7506L52.8028 55.8098H53.747L55.0945 59.9439L54.7645 59.9348L56.0845 55.8098H56.8912L58.2112 59.9348L57.8812 59.9439L59.2378 55.8098H60.1728L58.477 60.7506H57.6612L56.3595 56.6256H56.6162L55.3145 60.7506H54.4987ZM62.0719 60.7506L60.3761 55.8098H61.3202L62.6677 59.9439L62.3377 59.9348L63.6577 55.8098H64.4644L65.7844 59.9348L65.4544 59.9439L66.8111 55.8098H67.7461L66.0502 60.7506H65.2344L63.9327 56.6256H64.1894L62.8877 60.7506H62.0719ZM68.4898 60.7506V59.6506H69.379V60.7506H68.4898ZM71.3166 62.7673C71.2066 62.7673 71.0966 62.7581 70.9866 62.7398C70.8766 62.7276 70.7727 62.7001 70.675 62.6573V61.8964C70.7422 61.9026 70.8247 61.9148 70.9225 61.9331C71.0264 61.9514 71.1272 61.9606 71.225 61.9606C71.5122 61.9606 71.7291 61.8964 71.8758 61.7681C72.0286 61.6398 72.1722 61.4228 72.3066 61.1173L72.6183 60.3748L72.6 61.1173L70.4916 55.8098H71.4175L73.0583 60.0264H72.7833L74.415 55.8098H75.3591L73.1316 61.3373C73.0277 61.6001 72.8933 61.8414 72.7283 62.0614C72.5694 62.2814 72.3739 62.4526 72.1416 62.5748C71.9094 62.7031 71.6344 62.7673 71.3166 62.7673ZM78.3747 60.8606C77.898 60.8606 77.4672 60.7506 77.0822 60.5306C76.6972 60.3045 76.3916 59.9959 76.1655 59.6048C75.9394 59.2137 75.8263 58.7706 75.8263 58.2756C75.8263 57.7806 75.9363 57.3406 76.1563 56.9556C76.3825 56.5706 76.688 56.2651 77.073 56.0389C77.458 55.8128 77.8919 55.6998 78.3747 55.6998C78.8513 55.6998 79.2822 55.8128 79.6672 56.0389C80.0522 56.2589 80.3547 56.5614 80.5747 56.9464C80.8008 57.3314 80.9138 57.7745 80.9138 58.2756C80.9138 58.7767 80.7977 59.2228 80.5655 59.6139C80.3333 59.9989 80.0247 60.3045 79.6397 60.5306C79.2608 60.7506 78.8391 60.8606 78.3747 60.8606ZM78.3747 60.0356C78.6802 60.0356 78.9552 59.9592 79.1997 59.8064C79.4502 59.6537 79.6458 59.4428 79.7863 59.1739C79.933 58.9051 80.0063 58.6056 80.0063 58.2756C80.0063 57.9395 79.933 57.6431 79.7863 57.3864C79.6458 57.1237 79.4502 56.9159 79.1997 56.7631C78.9552 56.6042 78.6802 56.5248 78.3747 56.5248C78.063 56.5248 77.7819 56.6042 77.5313 56.7631C77.2869 56.9159 77.0913 57.1237 76.9447 57.3864C76.798 57.6431 76.7247 57.9395 76.7247 58.2756C76.7247 58.6056 76.798 58.9051 76.9447 59.1739C77.0913 59.4428 77.2869 59.6537 77.5313 59.8064C77.7819 59.9592 78.063 60.0356 78.3747 60.0356ZM83.7766 60.8606C83.4221 60.8606 83.1013 60.7781 82.8141 60.6131C82.533 60.4481 82.313 60.2189 82.1541 59.9256C82.0013 59.6262 81.9249 59.2839 81.9249 58.8989V55.8098H82.7774V58.8073C82.7774 59.0517 82.8263 59.2656 82.9241 59.4489C83.028 59.6323 83.1685 59.7759 83.3457 59.8798C83.5291 59.9837 83.7368 60.0356 83.9691 60.0356C84.2013 60.0356 84.406 59.9837 84.5832 59.8798C84.7666 59.7759 84.9071 59.6262 85.0049 59.4306C85.1088 59.2351 85.1607 59.0028 85.1607 58.7339V55.8098H86.0224V60.7506H85.1882V59.7881L85.3257 59.8706C85.2096 60.1823 85.011 60.4267 84.7299 60.6039C84.4549 60.7751 84.1371 60.8606 83.7766 60.8606ZM87.3431 60.7506V55.8098H88.1773V56.7173L88.0856 56.5889C88.2017 56.3078 88.3789 56.1001 88.6173 55.9656C88.8556 55.8251 89.1459 55.7548 89.4881 55.7548H89.7906V56.5614H89.3598C89.0114 56.5614 88.7303 56.6714 88.5164 56.8914C88.3026 57.1053 88.1956 57.4109 88.1956 57.8081V60.7506H87.3431ZM90.612 58.6698V57.8906H94.0495V58.6698H90.612ZM97.9841 60.8606C97.5869 60.8606 97.2233 60.772 96.8933 60.5948C96.5694 60.4176 96.3188 60.167 96.1416 59.8431L96.2608 59.6964V60.7506H95.4266V53.8114H96.2791V56.8731L96.1508 56.6623C96.3341 56.3689 96.5847 56.1367 96.9024 55.9656C97.2202 55.7884 97.5838 55.6998 97.9933 55.6998C98.4577 55.6998 98.8733 55.8128 99.2399 56.0389C99.6127 56.2651 99.9061 56.5737 100.12 56.9648C100.334 57.3498 100.441 57.7898 100.441 58.2848C100.441 58.7676 100.334 59.2045 100.12 59.5956C99.9061 59.9867 99.6127 60.2953 99.2399 60.5214C98.8733 60.7476 98.4547 60.8606 97.9841 60.8606ZM97.9199 60.0356C98.2316 60.0356 98.5097 59.9592 98.7541 59.8064C98.9986 59.6537 99.188 59.4459 99.3224 59.1831C99.463 58.9142 99.5333 58.6148 99.5333 58.2848C99.5333 57.9426 99.463 57.6431 99.3224 57.3864C99.188 57.1237 98.9986 56.9159 98.7541 56.7631C98.5097 56.6042 98.2316 56.5248 97.9199 56.5248C97.6083 56.5248 97.3272 56.6012 97.0766 56.7539C96.8322 56.9067 96.6366 57.1176 96.4899 57.3864C96.3494 57.6492 96.2791 57.9487 96.2791 58.2848C96.2791 58.6148 96.3494 58.9142 96.4899 59.1831C96.6366 59.4459 96.8322 59.6537 97.0766 59.8064C97.3272 59.9592 97.6083 60.0356 97.9199 60.0356ZM101.559 60.7506V55.8098H102.393V56.7173L102.301 56.5889C102.417 56.3078 102.594 56.1001 102.833 55.9656C103.071 55.8251 103.361 55.7548 103.704 55.7548H104.006V56.5614H103.575C103.227 56.5614 102.946 56.6714 102.732 56.8914C102.518 57.1053 102.411 57.4109 102.411 57.8081V60.7506H101.559ZM106.212 60.8606C105.888 60.8606 105.601 60.8026 105.35 60.6864C105.106 60.5642 104.913 60.3992 104.773 60.1914C104.632 59.9776 104.562 59.7331 104.562 59.4581C104.562 59.1953 104.617 58.9601 104.727 58.7523C104.843 58.5384 105.02 58.3581 105.258 58.2114C105.503 58.0648 105.808 57.9609 106.175 57.8998L108.008 57.5973V58.3123L106.368 58.5873C106.05 58.6423 105.818 58.7431 105.671 58.8898C105.53 59.0364 105.46 59.2167 105.46 59.4306C105.46 59.6323 105.539 59.8003 105.698 59.9348C105.863 60.0692 106.068 60.1364 106.313 60.1364C106.624 60.1364 106.893 60.0723 107.119 59.9439C107.351 59.8095 107.532 59.6292 107.66 59.4031C107.794 59.177 107.862 58.9264 107.862 58.6514V57.3956C107.862 57.1267 107.761 56.9098 107.559 56.7448C107.364 56.5737 107.104 56.4881 106.78 56.4881C106.499 56.4881 106.248 56.5614 106.028 56.7081C105.814 56.8487 105.656 57.0381 105.552 57.2764L104.809 56.8914C104.901 56.6653 105.048 56.4637 105.249 56.2864C105.451 56.1031 105.686 55.9595 105.955 55.8556C106.224 55.7517 106.505 55.6998 106.798 55.6998C107.177 55.6998 107.51 55.7731 107.798 55.9198C108.085 56.0603 108.308 56.2589 108.467 56.5156C108.632 56.7662 108.714 57.0595 108.714 57.3956V60.7506H107.88V59.8156L108.036 59.8706C107.932 60.0662 107.791 60.2373 107.614 60.3839C107.437 60.5306 107.229 60.6467 106.991 60.7323C106.753 60.8178 106.493 60.8606 106.212 60.8606ZM110.036 60.7506V55.8098H110.87V56.7723L110.733 56.6898C110.855 56.3781 111.05 56.1367 111.319 55.9656C111.594 55.7884 111.915 55.6998 112.282 55.6998C112.636 55.6998 112.951 55.7792 113.226 55.9381C113.507 56.097 113.727 56.317 113.886 56.5981C114.051 56.8792 114.133 57.197 114.133 57.5514V60.7506H113.272V57.8264C113.272 57.5514 113.223 57.3192 113.125 57.1298C113.027 56.9403 112.887 56.7937 112.703 56.6898C112.526 56.5798 112.322 56.5248 112.089 56.5248C111.857 56.5248 111.649 56.5798 111.466 56.6898C111.289 56.7937 111.148 56.9434 111.044 57.1389C110.94 57.3284 110.888 57.5576 110.888 57.8264V60.7506H110.036ZM117.599 60.8606C117.135 60.8606 116.716 60.7476 116.343 60.5214C115.977 60.2953 115.686 59.9867 115.473 59.5956C115.259 59.2045 115.152 58.7676 115.152 58.2848C115.152 57.7898 115.259 57.3498 115.473 56.9648C115.686 56.5737 115.977 56.2651 116.343 56.0389C116.716 55.8128 117.135 55.6998 117.599 55.6998C118.009 55.6998 118.372 55.7884 118.69 55.9656C119.008 56.1367 119.258 56.3689 119.442 56.6623L119.304 56.8731V53.8114H120.166V60.7506H119.332V59.6964L119.442 59.8431C119.271 60.167 119.02 60.4176 118.69 60.5948C118.366 60.772 118.003 60.8606 117.599 60.8606ZM117.673 60.0356C117.984 60.0356 118.262 59.9592 118.507 59.8064C118.751 59.6537 118.944 59.4459 119.084 59.1831C119.231 58.9142 119.304 58.6148 119.304 58.2848C119.304 57.9487 119.231 57.6492 119.084 57.3864C118.944 57.1176 118.751 56.9067 118.507 56.7539C118.262 56.6012 117.984 56.5248 117.673 56.5248C117.367 56.5248 117.089 56.6042 116.838 56.7631C116.594 56.9159 116.401 57.1237 116.261 57.3864C116.12 57.6431 116.05 57.9426 116.05 58.2848C116.05 58.6148 116.12 58.9142 116.261 59.1831C116.401 59.4459 116.594 59.6537 116.838 59.8064C117.083 59.9592 117.361 60.0356 117.673 60.0356ZM121.834 60.7506V59.6506H122.723V60.7506H121.834ZM126.686 60.8606C126.204 60.8606 125.773 60.7476 125.394 60.5214C125.021 60.2953 124.728 59.9867 124.514 59.5956C124.3 59.2045 124.193 58.7645 124.193 58.2756C124.193 57.7806 124.3 57.3406 124.514 56.9556C124.728 56.5706 125.021 56.2651 125.394 56.0389C125.773 55.8128 126.204 55.6998 126.686 55.6998C127.01 55.6998 127.313 55.7578 127.594 55.8739C127.875 55.9901 128.122 56.1459 128.336 56.3414C128.55 56.537 128.706 56.7662 128.804 57.0289L128.043 57.3956C127.927 57.1389 127.75 56.9312 127.511 56.7723C127.273 56.6073 126.998 56.5248 126.686 56.5248C126.387 56.5248 126.115 56.6012 125.871 56.7539C125.632 56.9067 125.443 57.1145 125.302 57.3773C125.162 57.6401 125.091 57.9426 125.091 58.2848C125.091 58.6148 125.162 58.9142 125.302 59.1831C125.443 59.4459 125.632 59.6537 125.871 59.8064C126.115 59.9592 126.387 60.0356 126.686 60.0356C126.998 60.0356 127.273 59.9562 127.511 59.7973C127.75 59.6323 127.927 59.4153 128.043 59.1464L128.804 59.5314C128.706 59.7881 128.55 60.0173 128.336 60.2189C128.122 60.4145 127.875 60.5703 127.594 60.6864C127.313 60.8026 127.01 60.8606 126.686 60.8606ZM132.265 60.8606C131.788 60.8606 131.357 60.7506 130.972 60.5306C130.587 60.3045 130.282 59.9959 130.055 59.6048C129.829 59.2137 129.716 58.7706 129.716 58.2756C129.716 57.7806 129.826 57.3406 130.046 56.9556C130.272 56.5706 130.578 56.2651 130.963 56.0389C131.348 55.8128 131.782 55.6998 132.265 55.6998C132.741 55.6998 133.172 55.8128 133.557 56.0389C133.942 56.2589 134.245 56.5614 134.465 56.9464C134.691 57.3314 134.804 57.7745 134.804 58.2756C134.804 58.7767 134.688 59.2228 134.455 59.6139C134.223 59.9989 133.915 60.3045 133.53 60.5306C133.151 60.7506 132.729 60.8606 132.265 60.8606ZM132.265 60.0356C132.57 60.0356 132.845 59.9592 133.09 59.8064C133.34 59.6537 133.536 59.4428 133.676 59.1739C133.823 58.9051 133.896 58.6056 133.896 58.2756C133.896 57.9395 133.823 57.6431 133.676 57.3864C133.536 57.1237 133.34 56.9159 133.09 56.7631C132.845 56.6042 132.57 56.5248 132.265 56.5248C131.953 56.5248 131.672 56.6042 131.421 56.7631C131.177 56.9159 130.981 57.1237 130.835 57.3864C130.688 57.6431 130.615 57.9395 130.615 58.2756C130.615 58.6056 130.688 58.9051 130.835 59.1739C130.981 59.4428 131.177 59.6537 131.421 59.8064C131.672 59.9592 131.953 60.0356 132.265 60.0356ZM135.916 60.7506V55.8098H136.75V56.8181L136.631 56.6623C136.753 56.3506 136.948 56.1123 137.217 55.9473C137.486 55.7823 137.789 55.6998 138.125 55.6998C138.51 55.6998 138.855 55.8067 139.161 56.0206C139.472 56.2345 139.686 56.5156 139.802 56.8639L139.564 56.8731C139.692 56.4881 139.909 56.1978 140.215 56.0023C140.52 55.8006 140.86 55.6998 141.232 55.6998C141.575 55.6998 141.883 55.7792 142.158 55.9381C142.439 56.097 142.662 56.317 142.827 56.5981C142.992 56.8792 143.075 57.197 143.075 57.5514V60.7506H142.213V57.8264C142.213 57.5514 142.164 57.3192 142.067 57.1298C141.969 56.9403 141.834 56.7937 141.663 56.6898C141.498 56.5798 141.303 56.5248 141.077 56.5248C140.857 56.5248 140.658 56.5798 140.481 56.6898C140.31 56.7937 140.172 56.9434 140.068 57.1389C139.97 57.3284 139.922 57.5576 139.922 57.8264V60.7506H139.06V57.8264C139.06 57.5514 139.011 57.3192 138.913 57.1298C138.815 56.9403 138.681 56.7937 138.51 56.6898C138.345 56.5798 138.149 56.5248 137.923 56.5248C137.703 56.5248 137.505 56.5798 137.327 56.6898C137.156 56.7937 137.019 56.9434 136.915 57.1389C136.817 57.3284 136.768 57.5576 136.768 57.8264V60.7506H135.916ZM143.69 61.8506L146.77 54.2973H147.732L144.652 61.8506H143.69ZM148.457 60.7506V53.8114H149.31V56.7723L149.154 56.6898C149.276 56.3781 149.472 56.1367 149.741 55.9656C150.016 55.7884 150.336 55.6998 150.703 55.6998C151.057 55.6998 151.372 55.7792 151.647 55.9381C151.928 56.097 152.148 56.317 152.307 56.5981C152.472 56.8792 152.555 57.197 152.555 57.5514V60.7506H151.693V57.8264C151.693 57.5514 151.641 57.3192 151.537 57.1298C151.439 56.9403 151.302 56.7937 151.125 56.6898C150.947 56.5798 150.743 56.5248 150.511 56.5248C150.284 56.5248 150.08 56.5798 149.896 56.6898C149.713 56.7937 149.569 56.9434 149.466 57.1389C149.362 57.3284 149.31 57.5576 149.31 57.8264V60.7506H148.457ZM156.121 60.8606C155.645 60.8606 155.214 60.7506 154.829 60.5306C154.444 60.3045 154.138 59.9959 153.912 59.6048C153.686 59.2137 153.573 58.7706 153.573 58.2756C153.573 57.7806 153.683 57.3406 153.903 56.9556C154.129 56.5706 154.435 56.2651 154.82 56.0389C155.205 55.8128 155.638 55.6998 156.121 55.6998C156.598 55.6998 157.029 55.8128 157.414 56.0389C157.799 56.2589 158.101 56.5614 158.321 56.9464C158.547 57.3314 158.66 57.7745 158.66 58.2756C158.66 58.7767 158.544 59.2228 158.312 59.6139C158.08 59.9989 157.771 60.3045 157.386 60.5306C157.007 60.7506 156.586 60.8606 156.121 60.8606ZM156.121 60.0356C156.427 60.0356 156.702 59.9592 156.946 59.8064C157.197 59.6537 157.392 59.4428 157.533 59.1739C157.68 58.9051 157.753 58.6056 157.753 58.2756C157.753 57.9395 157.68 57.6431 157.533 57.3864C157.392 57.1237 157.197 56.9159 156.946 56.7631C156.702 56.6042 156.427 56.5248 156.121 56.5248C155.81 56.5248 155.528 56.6042 155.278 56.7631C155.033 56.9159 154.838 57.1237 154.691 57.3864C154.545 57.6431 154.471 57.9395 154.471 58.2756C154.471 58.6056 154.545 58.9051 154.691 59.1739C154.838 59.4428 155.033 59.6537 155.278 59.8064C155.528 59.9592 155.81 60.0356 156.121 60.0356ZM159.772 60.7506V55.8098H160.606V56.8181L160.487 56.6623C160.61 56.3506 160.805 56.1123 161.074 55.9473C161.343 55.7823 161.645 55.6998 161.981 55.6998C162.366 55.6998 162.712 55.8067 163.017 56.0206C163.329 56.2345 163.543 56.5156 163.659 56.8639L163.421 56.8731C163.549 56.4881 163.766 56.1978 164.071 56.0023C164.377 55.8006 164.716 55.6998 165.089 55.6998C165.431 55.6998 165.74 55.7792 166.015 55.9381C166.296 56.097 166.519 56.317 166.684 56.5981C166.849 56.8792 166.931 57.197 166.931 57.5514V60.7506H166.07V57.8264C166.07 57.5514 166.021 57.3192 165.923 57.1298C165.825 56.9403 165.691 56.7937 165.52 56.6898C165.355 56.5798 165.159 56.5248 164.933 56.5248C164.713 56.5248 164.515 56.5798 164.337 56.6898C164.166 56.7937 164.029 56.9434 163.925 57.1389C163.827 57.3284 163.778 57.5576 163.778 57.8264V60.7506H162.916V57.8264C162.916 57.5514 162.868 57.3192 162.77 57.1298C162.672 56.9403 162.538 56.7937 162.366 56.6898C162.201 56.5798 162.006 56.5248 161.78 56.5248C161.56 56.5248 161.361 56.5798 161.184 56.6898C161.013 56.7937 160.875 56.9434 160.771 57.1389C160.674 57.3284 160.625 57.5576 160.625 57.8264V60.7506H159.772ZM170.416 60.8606C169.939 60.8606 169.514 60.7476 169.141 60.5214C168.769 60.2953 168.475 59.9867 168.261 59.5956C168.048 59.1984 167.941 58.7553 167.941 58.2664C167.941 57.7714 168.044 57.3314 168.252 56.9464C168.466 56.5614 168.753 56.2589 169.114 56.0389C169.481 55.8128 169.89 55.6998 170.342 55.6998C170.709 55.6998 171.033 55.767 171.314 55.9014C171.601 56.0298 171.843 56.207 172.038 56.4331C172.24 56.6531 172.393 56.9067 172.496 57.1939C172.606 57.4751 172.661 57.7684 172.661 58.0739C172.661 58.1412 172.655 58.2176 172.643 58.3031C172.637 58.3826 172.628 58.4589 172.616 58.5323H168.564V57.7989H172.121L171.717 58.1289C171.772 57.8112 171.742 57.527 171.626 57.2764C171.509 57.0259 171.338 56.8273 171.112 56.6806C170.886 56.5339 170.629 56.4606 170.342 56.4606C170.055 56.4606 169.792 56.5339 169.554 56.6806C169.316 56.8273 169.129 57.0381 168.995 57.3131C168.866 57.582 168.814 57.9028 168.839 58.2756C168.814 58.6362 168.869 58.9539 169.004 59.2289C169.144 59.4978 169.34 59.7087 169.591 59.8614C169.847 60.0081 170.125 60.0814 170.425 60.0814C170.755 60.0814 171.033 60.0051 171.259 59.8523C171.485 59.6995 171.668 59.5039 171.809 59.2656L172.524 59.6323C172.426 59.8584 172.273 60.0662 172.066 60.2556C171.864 60.4389 171.623 60.5856 171.341 60.6956C171.066 60.8056 170.758 60.8606 170.416 60.8606ZM173.177 61.8506L176.257 54.2973H177.22L174.14 61.8506H173.177ZM180.236 60.8606C179.753 60.8606 179.323 60.7476 178.944 60.5214C178.571 60.2953 178.278 59.9867 178.064 59.5956C177.85 59.2045 177.743 58.7645 177.743 58.2756C177.743 57.7806 177.85 57.3406 178.064 56.9556C178.278 56.5706 178.571 56.2651 178.944 56.0389C179.323 55.8128 179.753 55.6998 180.236 55.6998C180.56 55.6998 180.863 55.7578 181.144 55.8739C181.425 55.9901 181.672 56.1459 181.886 56.3414C182.1 56.537 182.256 56.7662 182.354 57.0289L181.593 57.3956C181.477 57.1389 181.299 56.9312 181.061 56.7723C180.823 56.6073 180.548 56.5248 180.236 56.5248C179.937 56.5248 179.665 56.6012 179.42 56.7539C179.182 56.9067 178.993 57.1145 178.852 57.3773C178.711 57.6401 178.641 57.9426 178.641 58.2848C178.641 58.6148 178.711 58.9142 178.852 59.1831C178.993 59.4459 179.182 59.6537 179.42 59.8064C179.665 59.9592 179.937 60.0356 180.236 60.0356C180.548 60.0356 180.823 59.9562 181.061 59.7973C181.299 59.6323 181.477 59.4153 181.593 59.1464L182.354 59.5314C182.256 59.7881 182.1 60.0173 181.886 60.2189C181.672 60.4145 181.425 60.5703 181.144 60.6864C180.863 60.8026 180.56 60.8606 180.236 60.8606ZM184.853 60.8606C184.53 60.8606 184.242 60.8026 183.992 60.6864C183.747 60.5642 183.555 60.3992 183.414 60.1914C183.274 59.9776 183.203 59.7331 183.203 59.4581C183.203 59.1953 183.258 58.9601 183.368 58.7523C183.485 58.5384 183.662 58.3581 183.9 58.2114C184.145 58.0648 184.45 57.9609 184.817 57.8998L186.65 57.5973V58.3123L185.009 58.5873C184.691 58.6423 184.459 58.7431 184.313 58.8898C184.172 59.0364 184.102 59.2167 184.102 59.4306C184.102 59.6323 184.181 59.8003 184.34 59.9348C184.505 60.0692 184.71 60.1364 184.954 60.1364C185.266 60.1364 185.535 60.0723 185.761 59.9439C185.993 59.8095 186.173 59.6292 186.302 59.4031C186.436 59.177 186.503 58.9264 186.503 58.6514V57.3956C186.503 57.1267 186.403 56.9098 186.201 56.7448C186.005 56.5737 185.746 56.4881 185.422 56.4881C185.141 56.4881 184.89 56.5614 184.67 56.7081C184.456 56.8487 184.297 57.0381 184.193 57.2764L183.451 56.8914C183.543 56.6653 183.689 56.4637 183.891 56.2864C184.093 56.1031 184.328 55.9595 184.597 55.8556C184.866 55.7517 185.147 55.6998 185.44 55.6998C185.819 55.6998 186.152 55.7731 186.439 55.9198C186.726 56.0603 186.95 56.2589 187.108 56.5156C187.273 56.7662 187.356 57.0595 187.356 57.3956V60.7506H186.522V59.8156L186.678 59.8706C186.574 60.0662 186.433 60.2373 186.256 60.3839C186.079 60.5306 185.871 60.6467 185.633 60.7323C185.394 60.8178 185.135 60.8606 184.853 60.8606ZM190.596 60.8056C190.113 60.8056 189.74 60.6681 189.477 60.3931C189.221 60.1181 189.092 59.7301 189.092 59.2289V56.6256H188.194V55.8098H188.377C188.597 55.8098 188.772 55.7426 188.9 55.6081C189.028 55.4737 189.092 55.2964 189.092 55.0764V54.6731H189.945V55.8098H191.054V56.6256H189.945V59.2014C189.945 59.3664 189.969 59.5101 190.018 59.6323C190.073 59.7545 190.162 59.8523 190.284 59.9256C190.406 59.9928 190.568 60.0264 190.77 60.0264C190.813 60.0264 190.865 60.0234 190.926 60.0173C190.993 60.0112 191.054 60.0051 191.109 59.9989V60.7506C191.03 60.7689 190.941 60.7812 190.843 60.7873C190.745 60.7995 190.663 60.8056 190.596 60.8056ZM194.362 60.8606C193.885 60.8606 193.46 60.7476 193.088 60.5214C192.715 60.2953 192.421 59.9867 192.208 59.5956C191.994 59.1984 191.887 58.7553 191.887 58.2664C191.887 57.7714 191.991 57.3314 192.198 56.9464C192.412 56.5614 192.699 56.2589 193.06 56.0389C193.427 55.8128 193.836 55.6998 194.288 55.6998C194.655 55.6998 194.979 55.767 195.26 55.9014C195.547 56.0298 195.789 56.207 195.984 56.4331C196.186 56.6531 196.339 56.9067 196.443 57.1939C196.553 57.4751 196.608 57.7684 196.608 58.0739C196.608 58.1412 196.601 58.2176 196.589 58.3031C196.583 58.3826 196.574 58.4589 196.562 58.5323H192.51V57.7989H196.067L195.663 58.1289C195.718 57.8112 195.688 57.527 195.572 57.2764C195.456 57.0259 195.284 56.8273 195.058 56.6806C194.832 56.5339 194.576 56.4606 194.288 56.4606C194.001 56.4606 193.738 56.5339 193.5 56.6806C193.262 56.8273 193.075 57.0381 192.941 57.3131C192.813 57.582 192.761 57.9028 192.785 58.2756C192.761 58.6362 192.816 58.9539 192.95 59.2289C193.091 59.4978 193.286 59.7087 193.537 59.8614C193.793 60.0081 194.071 60.0814 194.371 60.0814C194.701 60.0814 194.979 60.0051 195.205 59.8523C195.431 59.6995 195.614 59.5039 195.755 59.2656L196.47 59.6323C196.372 59.8584 196.219 60.0662 196.012 60.2556C195.81 60.4389 195.569 60.5856 195.288 60.6956C195.013 60.8056 194.704 60.8606 194.362 60.8606ZM200.075 62.7673C199.727 62.7673 199.403 62.7123 199.103 62.6023C198.81 62.4923 198.556 62.3395 198.342 62.1439C198.135 61.9545 197.976 61.7314 197.866 61.4748L198.663 61.1081C198.749 61.3403 198.911 61.5359 199.149 61.6948C199.394 61.8598 199.699 61.9423 200.066 61.9423C200.347 61.9423 200.6 61.8873 200.827 61.7773C201.059 61.6734 201.242 61.5145 201.377 61.3006C201.511 61.0928 201.578 60.8392 201.578 60.5398V59.4306L201.734 59.5956C201.563 59.9317 201.315 60.1884 200.992 60.3656C200.674 60.5428 200.322 60.6314 199.937 60.6314C199.473 60.6314 199.057 60.5245 198.691 60.3106C198.324 60.0906 198.037 59.7942 197.829 59.4214C197.621 59.0426 197.517 58.6239 197.517 58.1656C197.517 57.7012 197.621 57.2826 197.829 56.9098C198.037 56.537 198.321 56.2437 198.682 56.0298C199.048 55.8098 199.464 55.6998 199.928 55.6998C200.313 55.6998 200.662 55.7884 200.973 55.9656C201.291 56.1367 201.545 56.3751 201.734 56.6806L201.606 56.9098V55.8098H202.44V60.5398C202.44 60.9676 202.339 61.3495 202.137 61.6856C201.936 62.0217 201.655 62.2845 201.294 62.4739C200.94 62.6695 200.533 62.7673 200.075 62.7673ZM200.011 59.8064C200.304 59.8064 200.567 59.7331 200.799 59.5864C201.037 59.4398 201.227 59.2442 201.367 58.9998C201.508 58.7492 201.578 58.4712 201.578 58.1656C201.578 57.8662 201.508 57.5912 201.367 57.3406C201.227 57.0901 201.037 56.8914 200.799 56.7448C200.567 56.5981 200.304 56.5248 200.011 56.5248C199.711 56.5248 199.439 56.5981 199.195 56.7448C198.95 56.8914 198.758 57.0901 198.617 57.3406C198.483 57.5851 198.416 57.8601 198.416 58.1656C198.416 58.4712 198.483 58.7492 198.617 58.9998C198.758 59.2442 198.947 59.4398 199.186 59.5864C199.43 59.7331 199.705 59.8064 200.011 59.8064ZM204.11 60.7506V59.6506H204.999V60.7506H204.11ZM205.943 60.7506V59.6506H206.832V60.7506H205.943ZM207.777 60.7506V59.6506H208.666V60.7506H207.777Z" fill="#454545"/>
</g>
<g filter="url(#filter2_d_2960_98061)">
<rect x="41.9048" y="84.1433" width="137.429" height="18.5476" rx="9.27381" fill="#DE8644" shape-rendering="crispEdges"/>
<path d="M51.4643 93.4172C51.4643 92.6707 52.0711 92.064 52.8175 92.064H54.5635V91.2346H52.8175C51.6127 91.2346 50.6349 92.2124 50.6349 93.4172C50.6349 94.6219 51.6127 95.5997 52.8175 95.5997H54.5635V94.7703H52.8175C52.0711 94.7703 51.4643 94.1636 51.4643 93.4172ZM53.254 93.8537H56.7461V92.9807H53.254V93.8537ZM57.1826 91.2346H55.4365V92.064H57.1826C57.929 92.064 58.5357 92.6707 58.5357 93.4172C58.5357 94.1636 57.929 94.7703 57.1826 94.7703H55.4365V95.5997H57.1826C58.3873 95.5997 59.3651 94.6219 59.3651 93.4172C59.3651 92.2124 58.3873 91.2346 57.1826 91.2346Z" fill="white"/>
<path d="M66.1362 97.4171V90.4779H66.9887V93.4388L66.8329 93.3563C66.9551 93.0446 67.1507 92.8032 67.4196 92.6321C67.6946 92.4549 68.0154 92.3663 68.3821 92.3663C68.7365 92.3663 69.0512 92.4457 69.3262 92.6046C69.6073 92.7635 69.8273 92.9835 69.9862 93.2646C70.1512 93.5457 70.2337 93.8635 70.2337 94.2179V97.4171H69.3721V94.4929C69.3721 94.2179 69.3201 93.9857 69.2162 93.7963C69.1184 93.6068 68.9809 93.4602 68.8037 93.3563C68.6265 93.2463 68.4218 93.1913 68.1896 93.1913C67.9634 93.1913 67.7587 93.2463 67.5754 93.3563C67.3921 93.4602 67.2484 93.6099 67.1446 93.8054C67.0407 93.9949 66.9887 94.2241 66.9887 94.4929V97.4171H66.1362ZM73.4611 97.4721C72.9783 97.4721 72.6056 97.3346 72.3428 97.0596C72.0861 96.7846 71.9578 96.3966 71.9578 95.8954V93.2921H71.0594V92.4763H71.2428C71.4628 92.4763 71.6369 92.4091 71.7653 92.2746C71.8936 92.1402 71.9578 91.9629 71.9578 91.7429V91.3396H72.8103V92.4763H73.9194V93.2921H72.8103V95.8679C72.8103 96.0329 72.8347 96.1766 72.8836 96.2988C72.9386 96.421 73.0272 96.5188 73.1494 96.5921C73.2717 96.6593 73.4336 96.6929 73.6353 96.6929C73.6781 96.6929 73.73 96.6899 73.7911 96.6838C73.8583 96.6777 73.9194 96.6716 73.9744 96.6654V97.4171C73.895 97.4354 73.8064 97.4477 73.7086 97.4538C73.6108 97.466 73.5283 97.4721 73.4611 97.4721ZM77.0955 97.4721C76.6128 97.4721 76.24 97.3346 75.9772 97.0596C75.7205 96.7846 75.5922 96.3966 75.5922 95.8954V93.2921H74.6939V92.4763H74.8772C75.0972 92.4763 75.2714 92.4091 75.3997 92.2746C75.528 92.1402 75.5922 91.9629 75.5922 91.7429V91.3396H76.4447V92.4763H77.5539V93.2921H76.4447V95.8679C76.4447 96.0329 76.4692 96.1766 76.518 96.2988C76.573 96.421 76.6617 96.5188 76.7839 96.5921C76.9061 96.6593 77.068 96.6929 77.2697 96.6929C77.3125 96.6929 77.3644 96.6899 77.4255 96.6838C77.4928 96.6777 77.5539 96.6716 77.6089 96.6654V97.4171C77.5294 97.4354 77.4408 97.4477 77.343 97.4538C77.2453 97.466 77.1628 97.4721 77.0955 97.4721ZM78.7225 99.2504V92.4763H79.5567V93.5396L79.4467 93.3288C79.63 93.0354 79.8805 92.8032 80.1983 92.6321C80.5161 92.4549 80.8797 92.3663 81.2892 92.3663C81.7536 92.3663 82.1692 92.4793 82.5358 92.7054C82.9086 92.9316 83.2019 93.2402 83.4158 93.6313C83.6297 94.0163 83.7367 94.4563 83.7367 94.9513C83.7367 95.4341 83.6297 95.871 83.4158 96.2621C83.2019 96.6532 82.9086 96.9618 82.5358 97.1879C82.1692 97.4141 81.7505 97.5271 81.28 97.5271C80.8828 97.5271 80.5192 97.4385 80.1892 97.2613C79.8653 97.0841 79.6147 96.8335 79.4375 96.5096L79.575 96.3629V99.2504H78.7225ZM81.2158 96.7021C81.5275 96.7021 81.8055 96.6257 82.05 96.4729C82.2944 96.3202 82.4839 96.1124 82.6183 95.8496C82.7589 95.5807 82.8292 95.2813 82.8292 94.9513C82.8292 94.6091 82.7589 94.3096 82.6183 94.0529C82.4839 93.7902 82.2944 93.5824 82.05 93.4296C81.8055 93.2707 81.5275 93.1913 81.2158 93.1913C80.9042 93.1913 80.623 93.2677 80.3725 93.4204C80.128 93.5732 79.9325 93.7841 79.7858 94.0529C79.6453 94.3157 79.575 94.6152 79.575 94.9513C79.575 95.2813 79.6453 95.5807 79.7858 95.8496C79.9325 96.1124 80.128 96.3202 80.3725 96.4729C80.623 96.6257 80.9042 96.7021 81.2158 96.7021ZM86.6237 97.5271C86.1287 97.5271 85.6978 97.4049 85.3312 97.1604C84.9645 96.916 84.7048 96.586 84.552 96.1704L85.2303 95.8404C85.3709 96.1338 85.5634 96.366 85.8078 96.5371C86.0523 96.7082 86.3242 96.7938 86.6237 96.7938C86.8925 96.7938 87.1156 96.7296 87.2928 96.6013C87.47 96.4729 87.5587 96.3049 87.5587 96.0971C87.5587 95.9504 87.5159 95.8343 87.4303 95.7488C87.3509 95.6571 87.2531 95.5868 87.137 95.5379C87.0209 95.4829 86.9139 95.4432 86.8162 95.4188L86.0737 95.2079C85.6275 95.0796 85.3006 94.8963 85.0928 94.6579C84.8912 94.4196 84.7903 94.1416 84.7903 93.8238C84.7903 93.5304 84.8637 93.2768 85.0103 93.0629C85.1631 92.8429 85.3678 92.6718 85.6245 92.5496C85.8873 92.4274 86.1806 92.3663 86.5045 92.3663C86.9384 92.3663 87.3264 92.4763 87.6687 92.6963C88.017 92.9163 88.2645 93.2249 88.4112 93.6221L87.7145 93.9429C87.6045 93.6863 87.4395 93.4846 87.2195 93.3379C86.9995 93.1852 86.752 93.1088 86.477 93.1088C86.2264 93.1088 86.0278 93.1729 85.8812 93.3013C85.7345 93.4235 85.6612 93.5793 85.6612 93.7688C85.6612 93.9093 85.6978 94.0254 85.7712 94.1171C85.8445 94.2027 85.9331 94.2699 86.037 94.3188C86.1409 94.3616 86.2417 94.3982 86.3395 94.4288L87.1462 94.6671C87.5495 94.7832 87.8612 94.9635 88.0812 95.2079C88.3073 95.4524 88.4203 95.7457 88.4203 96.0879C88.4203 96.3629 88.3439 96.6104 88.1912 96.8304C88.0384 97.0504 87.8275 97.2216 87.5587 97.3438C87.2898 97.466 86.9781 97.5271 86.6237 97.5271ZM89.8846 97.4171V96.3171H90.7738V97.4171H89.8846ZM89.8846 93.5763V92.4763H90.7738V93.5763H89.8846ZM91.8498 98.5171L94.9298 90.9638H95.8923L92.8123 98.5171H91.8498ZM96.0213 98.5171L99.1013 90.9638H100.064L96.9838 98.5171H96.0213ZM100.789 97.4171V92.4763H101.623V93.4846L101.504 93.3288C101.626 93.0171 101.822 92.7788 102.09 92.6138C102.359 92.4488 102.662 92.3663 102.998 92.3663C103.383 92.3663 103.728 92.4732 104.034 92.6871C104.345 92.901 104.559 93.1821 104.675 93.5304L104.437 93.5396C104.565 93.1546 104.782 92.8643 105.088 92.6688C105.393 92.4671 105.733 92.3663 106.105 92.3663C106.448 92.3663 106.756 92.4457 107.031 92.6046C107.312 92.7635 107.535 92.9835 107.7 93.2646C107.865 93.5457 107.948 93.8635 107.948 94.2179V97.4171H107.086V94.4929C107.086 94.2179 107.037 93.9857 106.94 93.7963C106.842 93.6068 106.707 93.4602 106.536 93.3563C106.371 93.2463 106.176 93.1913 105.95 93.1913C105.73 93.1913 105.531 93.2463 105.354 93.3563C105.183 93.4602 105.045 93.6099 104.941 93.8054C104.843 93.9949 104.795 94.2241 104.795 94.4929V97.4171H103.933V94.4929C103.933 94.2179 103.884 93.9857 103.786 93.7963C103.688 93.6068 103.554 93.4602 103.383 93.3563C103.218 93.2463 103.022 93.1913 102.796 93.1913C102.576 93.1913 102.378 93.2463 102.2 93.3563C102.029 93.4602 101.892 93.6099 101.788 93.8054C101.69 93.9949 101.641 94.2241 101.641 94.4929V97.4171H100.789ZM109.507 97.4171V96.3171H110.396V97.4171H109.507ZM112.581 97.4171L114.937 94.3463L115.102 94.3646C115.011 94.4868 114.91 94.5846 114.8 94.6579C114.69 94.7252 114.567 94.7741 114.433 94.8046C114.305 94.8352 114.164 94.8504 114.011 94.8504C113.608 94.8504 113.244 94.7588 112.921 94.5754C112.603 94.386 112.349 94.1293 112.16 93.8054C111.976 93.4754 111.885 93.0996 111.885 92.6779C111.885 92.2563 111.982 91.8804 112.178 91.5504C112.374 91.2204 112.642 90.9607 112.985 90.7713C113.327 90.5757 113.712 90.4779 114.14 90.4779C114.58 90.4779 114.968 90.5757 115.304 90.7713C115.646 90.9607 115.915 91.2266 116.111 91.5688C116.306 91.9049 116.404 92.2929 116.404 92.7329C116.404 92.9713 116.376 93.2066 116.321 93.4388C116.266 93.671 116.178 93.9063 116.056 94.1446C115.939 94.3829 115.784 94.6304 115.588 94.8871L113.663 97.4171H112.581ZM114.14 94.0621C114.402 94.0621 114.635 94.0041 114.836 93.8879C115.044 93.7657 115.206 93.6007 115.322 93.3929C115.438 93.1791 115.496 92.9407 115.496 92.6779C115.496 92.4029 115.435 92.1616 115.313 91.9538C115.197 91.746 115.038 91.581 114.836 91.4588C114.635 91.3366 114.402 91.2754 114.14 91.2754C113.883 91.2754 113.654 91.3366 113.452 91.4588C113.251 91.581 113.089 91.746 112.966 91.9538C112.85 92.1616 112.792 92.4029 112.792 92.6779C112.792 92.9407 112.85 93.1791 112.966 93.3929C113.082 93.6007 113.241 93.7657 113.443 93.8879C113.651 94.0041 113.883 94.0621 114.14 94.0621ZM117.555 97.4171V92.4763H118.39V93.4846L118.27 93.3288C118.393 93.0171 118.588 92.7788 118.857 92.6138C119.126 92.4488 119.429 92.3663 119.765 92.3663C120.15 92.3663 120.495 92.4732 120.8 92.6871C121.112 92.901 121.326 93.1821 121.442 93.5304L121.204 93.5396C121.332 93.1546 121.549 92.8643 121.855 92.6688C122.16 92.4671 122.499 92.3663 122.872 92.3663C123.214 92.3663 123.523 92.4457 123.798 92.6046C124.079 92.7635 124.302 92.9835 124.467 93.2646C124.632 93.5457 124.715 93.8635 124.715 94.2179V97.4171H123.853V94.4929C123.853 94.2179 123.804 93.9857 123.706 93.7963C123.609 93.6068 123.474 93.4602 123.303 93.3563C123.138 93.2463 122.942 93.1913 122.716 93.1913C122.496 93.1913 122.298 93.2463 122.12 93.3563C121.949 93.4602 121.812 93.6099 121.708 93.8054C121.61 93.9949 121.561 94.2241 121.561 94.4929V97.4171H120.7V94.4929C120.7 94.2179 120.651 93.9857 120.553 93.7963C120.455 93.6068 120.321 93.4602 120.15 93.3563C119.985 93.2463 119.789 93.1913 119.563 93.1913C119.343 93.1913 119.144 93.2463 118.967 93.3563C118.796 93.4602 118.659 93.6099 118.555 93.8054C118.457 93.9949 118.408 94.2241 118.408 94.4929V97.4171H117.555ZM126.274 97.4171V96.3171H127.163V97.4171H126.274ZM128.835 97.4171V92.4763H129.687V97.4171H128.835ZM128.835 91.6879V90.5879H129.687V91.6879H128.835ZM133.357 97.5271C132.88 97.5271 132.449 97.4171 132.064 97.1971C131.679 96.971 131.374 96.6624 131.148 96.2713C130.921 95.8802 130.808 95.4371 130.808 94.9421C130.808 94.4471 130.918 94.0071 131.138 93.6221C131.365 93.2371 131.67 92.9316 132.055 92.7054C132.44 92.4793 132.874 92.3663 133.357 92.3663C133.833 92.3663 134.264 92.4793 134.649 92.7054C135.034 92.9254 135.337 93.2279 135.557 93.6129C135.783 93.9979 135.896 94.441 135.896 94.9421C135.896 95.4432 135.78 95.8893 135.548 96.2804C135.315 96.6654 135.007 96.971 134.622 97.1971C134.243 97.4171 133.821 97.5271 133.357 97.5271ZM133.357 96.7021C133.662 96.7021 133.937 96.6257 134.182 96.4729C134.432 96.3202 134.628 96.1093 134.768 95.8404C134.915 95.5716 134.988 95.2721 134.988 94.9421C134.988 94.606 134.915 94.3096 134.768 94.0529C134.628 93.7902 134.432 93.5824 134.182 93.4296C133.937 93.2707 133.662 93.1913 133.357 93.1913C133.045 93.1913 132.764 93.2707 132.513 93.4296C132.269 93.5824 132.073 93.7902 131.927 94.0529C131.78 94.3096 131.707 94.606 131.707 94.9421C131.707 95.2721 131.78 95.5716 131.927 95.8404C132.073 96.1093 132.269 96.3202 132.513 96.4729C132.764 96.6257 133.045 96.7021 133.357 96.7021ZM136.412 98.5171L139.492 90.9638H140.454L137.374 98.5171H136.412ZM142.949 97.5271C142.454 97.5271 142.023 97.4049 141.656 97.1604C141.289 96.916 141.03 96.586 140.877 96.1704L141.555 95.8404C141.696 96.1338 141.888 96.366 142.133 96.5371C142.377 96.7082 142.649 96.7938 142.949 96.7938C143.217 96.7938 143.44 96.7296 143.618 96.6013C143.795 96.4729 143.884 96.3049 143.884 96.0971C143.884 95.9504 143.841 95.8343 143.755 95.7488C143.676 95.6571 143.578 95.5868 143.462 95.5379C143.346 95.4829 143.239 95.4432 143.141 95.4188L142.399 95.2079C141.952 95.0796 141.625 94.8963 141.418 94.6579C141.216 94.4196 141.115 94.1416 141.115 93.8238C141.115 93.5304 141.189 93.2768 141.335 93.0629C141.488 92.8429 141.693 92.6718 141.949 92.5496C142.212 92.4274 142.505 92.3663 142.829 92.3663C143.263 92.3663 143.651 92.4763 143.994 92.6963C144.342 92.9163 144.589 93.2249 144.736 93.6221L144.039 93.9429C143.929 93.6863 143.764 93.4846 143.544 93.3379C143.324 93.1852 143.077 93.1088 142.802 93.1088C142.551 93.1088 142.353 93.1729 142.206 93.3013C142.059 93.4235 141.986 93.5793 141.986 93.7688C141.986 93.9093 142.023 94.0254 142.096 94.1171C142.169 94.2027 142.258 94.2699 142.362 94.3188C142.466 94.3616 142.567 94.3982 142.664 94.4288L143.471 94.6671C143.874 94.7832 144.186 94.9635 144.406 95.2079C144.632 95.4524 144.745 95.7457 144.745 96.0879C144.745 96.3629 144.669 96.6104 144.516 96.8304C144.363 97.0504 144.152 97.2216 143.884 97.3438C143.615 97.466 143.303 97.5271 142.949 97.5271ZM145.861 97.4171V90.4779H146.714V93.4388L146.558 93.3563C146.68 93.0446 146.876 92.8032 147.144 92.6321C147.419 92.4549 147.74 92.3663 148.107 92.3663C148.461 92.3663 148.776 92.4457 149.051 92.6046C149.332 92.7635 149.552 92.9835 149.711 93.2646C149.876 93.5457 149.959 93.8635 149.959 94.2179V97.4171H149.097V94.4929C149.097 94.2179 149.045 93.9857 148.941 93.7963C148.843 93.6068 148.706 93.4602 148.529 93.3563C148.351 93.2463 148.147 93.1913 147.914 93.1913C147.688 93.1913 147.484 93.2463 147.3 93.3563C147.117 93.4602 146.973 93.6099 146.869 93.8054C146.766 93.9949 146.714 94.2241 146.714 94.4929V97.4171H145.861ZM151.179 97.4171V92.4763H152.013V93.3838L151.921 93.2554C152.037 92.9743 152.214 92.7666 152.453 92.6321C152.691 92.4916 152.981 92.4213 153.324 92.4213H153.626V93.2279H153.195C152.847 93.2279 152.566 93.3379 152.352 93.5579C152.138 93.7718 152.031 94.0774 152.031 94.4746V97.4171H151.179ZM156.436 97.4721C155.953 97.4721 155.58 97.3346 155.317 97.0596C155.061 96.7846 154.932 96.3966 154.932 95.8954V93.2921H154.034V92.4763H154.217C154.437 92.4763 154.611 92.4091 154.74 92.2746C154.868 92.1402 154.932 91.9629 154.932 91.7429V91.3396H155.785V92.4763H156.894V93.2921H155.785V95.8679C155.785 96.0329 155.809 96.1766 155.858 96.2988C155.913 96.421 156.002 96.5188 156.124 96.5921C156.246 96.6593 156.408 96.6929 156.61 96.6929C156.652 96.6929 156.704 96.6899 156.766 96.6838C156.833 96.6777 156.894 96.6716 156.949 96.6654V97.4171C156.869 97.4354 156.781 97.4477 156.683 97.4538C156.585 97.466 156.503 97.4721 156.436 97.4721ZM159.034 97.4171V91.3671H157.742V90.5879H159.942V97.4171H159.034ZM164.12 97.5271C163.723 97.5271 163.359 97.4385 163.029 97.2613C162.705 97.0841 162.455 96.8335 162.278 96.5096L162.397 96.3629V97.4171H161.563V90.4779H162.415V93.5396L162.287 93.3288C162.47 93.0354 162.721 92.8032 163.038 92.6321C163.356 92.4549 163.72 92.3663 164.129 92.3663C164.594 92.3663 165.009 92.4793 165.376 92.7054C165.749 92.9316 166.042 93.2402 166.256 93.6313C166.47 94.0163 166.577 94.4563 166.577 94.9513C166.577 95.4341 166.47 95.871 166.256 96.2621C166.042 96.6532 165.749 96.9618 165.376 97.1879C165.009 97.4141 164.591 97.5271 164.12 97.5271ZM164.056 96.7021C164.368 96.7021 164.646 96.6257 164.89 96.4729C165.135 96.3202 165.324 96.1124 165.458 95.8496C165.599 95.5807 165.669 95.2813 165.669 94.9513C165.669 94.6091 165.599 94.3096 165.458 94.0529C165.324 93.7902 165.135 93.5824 164.89 93.4296C164.646 93.2707 164.368 93.1913 164.056 93.1913C163.744 93.1913 163.463 93.2677 163.213 93.4204C162.968 93.5732 162.773 93.7841 162.626 94.0529C162.485 94.3157 162.415 94.6152 162.415 94.9513C162.415 95.2813 162.485 95.5807 162.626 95.8496C162.773 96.1124 162.968 96.3202 163.213 96.4729C163.463 96.6257 163.744 96.7021 164.056 96.7021ZM168.065 97.4171V93.2921H167.121V92.4763H168.065V92.1279C168.065 91.7735 168.141 91.4741 168.294 91.2296C168.453 90.9852 168.661 90.7988 168.917 90.6704C169.18 90.5421 169.471 90.4779 169.788 90.4779C169.856 90.4779 169.929 90.4841 170.008 90.4963C170.094 90.5024 170.164 90.5116 170.219 90.5238V91.2846C170.17 91.2724 170.112 91.2663 170.045 91.2663C169.978 91.2602 169.926 91.2571 169.889 91.2571C169.608 91.2571 169.376 91.3243 169.192 91.4588C169.015 91.5932 168.927 91.8163 168.927 92.1279V92.4763H170.1V93.2921H168.927V97.4171H168.065Z" fill="white"/>
</g>
<path d="M110.655 68.429C110.655 68.0673 110.362 67.7742 110 67.7742C109.638 67.7742 109.345 68.0673 109.345 68.429H110.655ZM109.537 81.9872C109.793 82.2429 110.207 82.2429 110.463 81.9872L114.63 77.8203C114.886 77.5646 114.886 77.15 114.63 76.8943C114.374 76.6386 113.96 76.6386 113.704 76.8943L110 80.5982L106.296 76.8943C106.04 76.6386 105.626 76.6386 105.37 76.8943C105.114 77.15 105.114 77.5646 105.37 77.8203L109.537 81.9872ZM109.345 68.429V81.5242H110.655V68.429H109.345Z" fill="#8F9396"/>
</g>
<defs>
<filter id="filter0_d_2960_98061" x="8.66557" y="1.37757" width="202.669" height="141.558" filterUnits="userSpaceOnUse" color-interpolation-filters="sRGB">
<feFlood flood-opacity="0" result="BackgroundImageFix"/>
<feColorMatrix in="SourceAlpha" type="matrix" values="0 0 0 0 0 0 0 0 0 0 0 0 0 0 0 0 0 0 127 0" result="hardAlpha"/>
<feOffset dy="2.41695"/>
<feGaussianBlur stdDeviation="4.8339"/>
<feComposite in2="hardAlpha" operator="out"/>
<feColorMatrix type="matrix" values="0 0 0 0 0 0 0 0 0 0 0 0 0 0 0 0 0 0 0.25 0"/>
<feBlend mode="normal" in2="BackgroundImageFix" result="effect1_dropShadow_2960_98061"/>
<feBlend mode="normal" in="SourceGraphic" in2="effect1_dropShadow_2960_98061" result="shape"/>
</filter>
<filter id="filter1_d_2960_98061" x="-2.90871e-05" y="47.4767" width="220.655" height="23.5715" filterUnits="userSpaceOnUse" color-interpolation-filters="sRGB">
<feFlood flood-opacity="0" result="BackgroundImageFix"/>
<feColorMatrix in="SourceAlpha" type="matrix" values="0 0 0 0 0 0 0 0 0 0 0 0 0 0 0 0 0 0 127 0" result="hardAlpha"/>
<feOffset dy="2.61905"/>
<feGaussianBlur stdDeviation="1.30952"/>
<feComposite in2="hardAlpha" operator="out"/>
<feColorMatrix type="matrix" values="0 0 0 0 0 0 0 0 0 0 0 0 0 0 0 0 0 0 0.15 0"/>
<feBlend mode="normal" in2="BackgroundImageFix" result="effect1_dropShadow_2960_98061"/>
<feBlend mode="normal" in="SourceGraphic" in2="effect1_dropShadow_2960_98061" result="shape"/>
</filter>
<filter id="filter2_d_2960_98061" x="39.2857" y="84.1433" width="142.667" height="23.7857" filterUnits="userSpaceOnUse" color-interpolation-filters="sRGB">
<feFlood flood-opacity="0" result="BackgroundImageFix"/>
<feColorMatrix in="SourceAlpha" type="matrix" values="0 0 0 0 0 0 0 0 0 0 0 0 0 0 0 0 0 0 127 0" result="hardAlpha"/>
<feOffset dy="2.61905"/>
<feGaussianBlur stdDeviation="1.30952"/>
<feComposite in2="hardAlpha" operator="out"/>
<feColorMatrix type="matrix" values="0 0 0 0 0 0 0 0 0 0 0 0 0 0 0 0 0 0 0.15 0"/>
<feBlend mode="normal" in2="BackgroundImageFix" result="effect1_dropShadow_2960_98061"/>
<feBlend mode="normal" in="SourceGraphic" in2="effect1_dropShadow_2960_98061" result="shape"/>
</filter>
<clipPath id="clip0_2960_98061">
<rect width="220" height="138.81" fill="white" transform="translate(0 0.333496)"/>
</clipPath>
</defs>
</svg>
