<svg width="336" height="212" viewBox="0 0 336 212" fill="none" xmlns="http://www.w3.org/2000/svg">
<g clip-path="url(#clip0_2680_52444)">
<g filter="url(#filter0_d_2680_52444)">
<rect x="60.5811" y="34.8794" width="221.217" height="142.032" rx="7.5415" fill="white"/>
</g>
<ellipse cx="73.7787" cy="45.249" rx="3.77075" ry="4.08498" fill="#DF434C"/>
<circle cx="84.1482" cy="45.249" r="4.08498" fill="#E7B44C"/>
<circle cx="94.2036" cy="45.249" r="4.08498" fill="#6BD280"/>
<rect x="104.573" y="41.1641" width="166.541" height="8.16996" rx="4.08498" fill="#E1E3E8"/>
<g filter="url(#filter1_d_2680_52444)">
<rect x="3.3913" y="71.9585" width="329.941" height="23.8814" rx="11.9407" fill="white"/>
</g>
<path d="M17.8597 87V77.9609H18.9702V81.8177L18.7672 81.7103C18.9264 81.3043 19.1812 80.9898 19.5314 80.7669C19.8897 80.5361 20.3076 80.4207 20.7852 80.4207C21.2469 80.4207 21.6569 80.5242 22.0151 80.7311C22.3813 80.9381 22.6679 81.2247 22.8748 81.5909C23.0898 81.957 23.1972 82.371 23.1972 82.8327V87H22.0748V83.1909C22.0748 82.8327 22.0071 82.5302 21.8718 82.2834C21.7444 82.0366 21.5653 81.8456 21.3345 81.7103C21.1036 81.567 20.8369 81.4953 20.5345 81.4953C20.2399 81.4953 19.9732 81.567 19.7344 81.7103C19.4956 81.8456 19.3085 82.0406 19.1732 82.2954C19.0379 82.5421 18.9702 82.8407 18.9702 83.1909V87H17.8597ZM27.7595 87.0716C27.1306 87.0716 26.645 86.8925 26.3027 86.5343C25.9684 86.1761 25.8012 85.6706 25.8012 85.0178V81.6267H24.631V80.564H24.8699C25.1564 80.564 25.3833 80.4764 25.5505 80.3013C25.7177 80.1261 25.8012 79.8953 25.8012 79.6087V79.0833H26.9117V80.564H28.3565V81.6267H26.9117V84.982C26.9117 85.197 26.9436 85.384 27.0072 85.5432C27.0789 85.7024 27.1943 85.8298 27.3535 85.9253C27.5127 86.0129 27.7237 86.0567 27.9864 86.0567C28.0421 86.0567 28.1098 86.0527 28.1894 86.0447C28.2769 86.0368 28.3565 86.0288 28.4282 86.0209V87C28.3247 87.0239 28.2093 87.0398 28.0819 87.0478C27.9545 87.0637 27.8471 87.0716 27.7595 87.0716ZM32.852 87.0716C32.2232 87.0716 31.7376 86.8925 31.3953 86.5343C31.0609 86.1761 30.8938 85.6706 30.8938 85.0178V81.6267H29.7236V80.564H29.9624C30.249 80.564 30.4758 80.4764 30.643 80.3013C30.8102 80.1261 30.8938 79.8953 30.8938 79.6087V79.0833H32.0042V80.564H33.4491V81.6267H32.0042V84.982C32.0042 85.197 32.0361 85.384 32.0998 85.5432C32.1714 85.7024 32.2868 85.8298 32.4461 85.9253C32.6053 86.0129 32.8162 86.0567 33.0789 86.0567C33.1346 86.0567 33.2023 86.0527 33.2819 86.0447C33.3695 86.0368 33.4491 86.0288 33.5207 86.0209V87C33.4172 87.0239 33.3018 87.0398 33.1744 87.0478C33.0471 87.0637 32.9396 87.0716 32.852 87.0716ZM35.3295 89.3881V80.564H36.4162V81.9491L36.2729 81.6744C36.5117 81.2923 36.8381 80.9898 37.252 80.7669C37.6659 80.5361 38.1396 80.4207 38.6729 80.4207C39.2779 80.4207 39.8193 80.5679 40.2969 80.8625C40.7825 81.157 41.1646 81.559 41.4432 82.0685C41.7218 82.57 41.8611 83.1432 41.8611 83.7879C41.8611 84.4168 41.7218 84.986 41.4432 85.4955C41.1646 86.0049 40.7825 86.4069 40.2969 86.7015C39.8193 86.996 39.274 87.1433 38.661 87.1433C38.1436 87.1433 37.6699 87.0279 37.2401 86.797C36.8182 86.5662 36.4918 86.2398 36.2609 85.8179L36.44 85.6268V89.3881H35.3295ZM38.5774 86.0686C38.9834 86.0686 39.3456 85.9691 39.664 85.7701C39.9824 85.5711 40.2292 85.3004 40.4044 84.9581C40.5874 84.6079 40.679 84.2178 40.679 83.7879C40.679 83.3422 40.5874 82.9521 40.4044 82.6178C40.2292 82.2755 39.9824 82.0048 39.664 81.8058C39.3456 81.5988 38.9834 81.4953 38.5774 81.4953C38.1714 81.4953 37.8053 81.5948 37.4789 81.7939C37.1605 81.9929 36.9057 82.2675 36.7147 82.6178C36.5316 82.9601 36.44 83.3501 36.44 83.7879C36.44 84.2178 36.5316 84.6079 36.7147 84.9581C36.9057 85.3004 37.1605 85.5711 37.4789 85.7701C37.8053 85.9691 38.1714 86.0686 38.5774 86.0686ZM45.98 87.1433C45.3352 87.1433 44.774 86.9841 44.2964 86.6657C43.8187 86.3472 43.4804 85.9174 43.2814 85.3761L44.165 84.9462C44.3481 85.3283 44.5989 85.6308 44.9173 85.8537C45.2357 86.0766 45.5899 86.188 45.98 86.188C46.3303 86.188 46.6208 86.1044 46.8517 85.9373C47.0825 85.7701 47.198 85.5512 47.198 85.2805C47.198 85.0895 47.1422 84.9382 47.0308 84.8268C46.9273 84.7074 46.7999 84.6158 46.6487 84.5522C46.4974 84.4805 46.3581 84.4288 46.2308 84.3969L45.2636 84.1223C44.6825 83.9551 44.2566 83.7163 43.9859 83.4058C43.7232 83.0954 43.5919 82.7332 43.5919 82.3192C43.5919 81.9371 43.6874 81.6068 43.8784 81.3282C44.0775 81.0416 44.3441 80.8187 44.6785 80.6595C45.0208 80.5003 45.4029 80.4207 45.8248 80.4207C46.39 80.4207 46.8955 80.564 47.3413 80.8505C47.795 81.1371 48.1174 81.5391 48.3084 82.0565L47.401 82.4745C47.2577 82.1401 47.0427 81.8774 46.7562 81.6864C46.4696 81.4874 46.1472 81.3879 45.789 81.3879C45.4626 81.3879 45.2039 81.4715 45.0128 81.6386C44.8218 81.7978 44.7262 82.0008 44.7262 82.2476C44.7262 82.4307 44.774 82.5819 44.8695 82.7013C44.965 82.8128 45.0805 82.9004 45.2158 82.964C45.3511 83.0198 45.4825 83.0675 45.6098 83.1073L46.6606 83.4178C47.186 83.569 47.592 83.8039 47.8786 84.1223C48.1731 84.4407 48.3204 84.8228 48.3204 85.2686C48.3204 85.6268 48.2209 85.9492 48.0219 86.2358C47.8229 86.5224 47.5482 86.7453 47.198 86.9045C46.8477 87.0637 46.4417 87.1433 45.98 87.1433ZM50.586 87V85.5671H51.7443V87H50.586ZM50.586 81.9968V80.564H51.7443V81.9968H50.586ZM53.5041 88.4329L57.5162 78.5937H58.77L54.7579 88.4329H53.5041ZM59.2963 88.4329L63.3084 78.5937H64.5622L60.5501 88.4329H59.2963ZM67.3453 87L65.1363 80.564H66.3662L68.1214 85.9492L67.6916 85.9373L69.411 80.564H70.4618L72.1813 85.9373L71.7514 85.9492L73.5186 80.564H74.7366L72.5276 87H71.4648L69.7693 81.6267H70.1036L68.408 87H67.3453ZM77.5686 87L75.3596 80.564H76.5895L78.3447 85.9492L77.9149 85.9373L79.6343 80.564H80.6851L82.4046 85.9373L81.9747 85.9492L83.7419 80.564H84.9599L82.7509 87H81.6881L79.9926 81.6267H80.3269L78.6313 87H77.5686ZM87.7919 87L85.5829 80.564H86.8128L88.568 85.9492L88.1382 85.9373L89.8576 80.564H90.9084L92.6279 85.9373L92.198 85.9492L93.9652 80.564H95.1832L92.9742 87H91.9114L90.2159 81.6267H90.5502L88.8546 87H87.7919ZM96.5102 87V85.5671H97.6685V87H96.5102ZM100.551 89.627C100.407 89.627 100.264 89.615 100.121 89.5911C99.9776 89.5752 99.8422 89.5394 99.7149 89.4837V88.4926C99.8024 88.5005 99.9099 88.5165 100.037 88.5404C100.173 88.5642 100.304 88.5762 100.431 88.5762C100.805 88.5762 101.088 88.4926 101.279 88.3254C101.478 88.1582 101.665 87.8757 101.84 87.4776L102.246 86.5104L102.222 87.4776L99.4761 80.564H100.682L102.819 86.0567H102.461L104.587 80.564H105.817L102.915 87.7642C102.78 88.1065 102.605 88.4209 102.39 88.7075C102.183 88.9941 101.928 89.217 101.625 89.3762C101.323 89.5434 100.965 89.627 100.551 89.627ZM110.103 87.1433C109.482 87.1433 108.921 87 108.419 86.7134C107.918 86.4189 107.52 86.0169 107.225 85.5074C106.931 84.9979 106.783 84.4208 106.783 83.776C106.783 83.1312 106.927 82.5581 107.213 82.0565C107.508 81.555 107.906 81.157 108.407 80.8625C108.909 80.5679 109.474 80.4207 110.103 80.4207C110.724 80.4207 111.285 80.5679 111.787 80.8625C112.288 81.1491 112.682 81.5431 112.969 82.0446C113.263 82.5461 113.411 83.1232 113.411 83.776C113.411 84.4288 113.259 85.0099 112.957 85.5194C112.654 86.0209 112.252 86.4189 111.751 86.7134C111.257 87 110.708 87.1433 110.103 87.1433ZM110.103 86.0686C110.501 86.0686 110.859 85.9691 111.178 85.7701C111.504 85.5711 111.759 85.2965 111.942 84.9462C112.133 84.5959 112.228 84.2059 112.228 83.776C112.228 83.3382 112.133 82.9521 111.942 82.6178C111.759 82.2755 111.504 82.0048 111.178 81.8058C110.859 81.5988 110.501 81.4953 110.103 81.4953C109.697 81.4953 109.331 81.5988 109.004 81.8058C108.686 82.0048 108.431 82.2755 108.24 82.6178C108.049 82.9521 107.954 83.3382 107.954 83.776C107.954 84.2059 108.049 84.5959 108.24 84.9462C108.431 85.2965 108.686 85.5711 109.004 85.7701C109.331 85.9691 109.697 86.0686 110.103 86.0686ZM117.498 87.1433C117.036 87.1433 116.618 87.0358 116.244 86.8209C115.878 86.606 115.591 86.3074 115.384 85.9253C115.185 85.5353 115.086 85.0895 115.086 84.588V80.564H116.196V84.4686C116.196 84.787 116.26 85.0656 116.387 85.3044C116.523 85.5432 116.706 85.7303 116.937 85.8656C117.175 86.001 117.446 86.0686 117.749 86.0686C118.051 86.0686 118.318 86.001 118.549 85.8656C118.787 85.7303 118.97 85.5353 119.098 85.2805C119.233 85.0258 119.301 84.7233 119.301 84.373V80.564H120.423V87H119.337V85.7462L119.516 85.8537C119.365 86.2597 119.106 86.5781 118.74 86.8089C118.381 87.0318 117.967 87.1433 117.498 87.1433ZM122.502 87V80.564H123.588V81.7461L123.469 81.5789C123.62 81.2127 123.851 80.9421 124.162 80.7669C124.472 80.5839 124.85 80.4923 125.296 80.4923H125.69V81.5431H125.129C124.675 81.5431 124.309 81.6864 124.03 81.973C123.752 82.2516 123.612 82.6496 123.612 83.167V87H122.502ZM127.118 84.2895V83.2745H131.596V84.2895H127.118ZM137.08 87.1433C136.562 87.1433 136.088 87.0279 135.659 86.797C135.237 86.5662 134.91 86.2398 134.679 85.8179L134.835 85.6268V87H133.748V77.9609H134.859V81.9491L134.691 81.6744C134.93 81.2923 135.257 80.9898 135.671 80.7669C136.084 80.5361 136.558 80.4207 137.091 80.4207C137.696 80.4207 138.238 80.5679 138.715 80.8625C139.201 81.157 139.583 81.559 139.862 82.0685C140.14 82.57 140.28 83.1432 140.28 83.7879C140.28 84.4168 140.14 84.986 139.862 85.4955C139.583 86.0049 139.201 86.4069 138.715 86.7015C138.238 86.996 137.692 87.1433 137.08 87.1433ZM136.996 86.0686C137.402 86.0686 137.764 85.9691 138.083 85.7701C138.401 85.5711 138.648 85.3004 138.823 84.9581C139.006 84.6079 139.097 84.2178 139.097 83.7879C139.097 83.3422 139.006 82.9521 138.823 82.6178C138.648 82.2755 138.401 82.0048 138.083 81.8058C137.764 81.5988 137.402 81.4953 136.996 81.4953C136.59 81.4953 136.224 81.5948 135.897 81.7939C135.579 81.9929 135.324 82.2675 135.133 82.6178C134.95 82.9601 134.859 83.3501 134.859 83.7879C134.859 84.2178 134.95 84.6079 135.133 84.9581C135.324 85.3004 135.579 85.5711 135.897 85.7701C136.224 85.9691 136.59 86.0686 136.996 86.0686ZM142.094 87V80.564H143.181V81.7461L143.061 81.5789C143.212 81.2127 143.443 80.9421 143.754 80.7669C144.064 80.5839 144.442 80.4923 144.888 80.4923H145.282V81.5431H144.721C144.267 81.5431 143.901 81.6864 143.622 81.973C143.344 82.2516 143.204 82.6496 143.204 83.167V87H142.094ZM148.513 87.1433C148.091 87.1433 147.717 87.0677 147.391 86.9164C147.073 86.7572 146.822 86.5423 146.639 86.2716C146.456 85.993 146.364 85.6746 146.364 85.3164C146.364 84.9741 146.436 84.6676 146.579 84.3969C146.73 84.1183 146.961 83.8835 147.272 83.6924C147.59 83.5014 147.988 83.366 148.466 83.2864L150.854 82.8924V83.8238L148.716 84.182C148.302 84.2536 148 84.385 147.809 84.576C147.626 84.7671 147.534 85.0019 147.534 85.2805C147.534 85.5432 147.638 85.7621 147.845 85.9373C148.06 86.1124 148.326 86.2 148.645 86.2C149.051 86.2 149.401 86.1164 149.696 85.9492C149.998 85.7741 150.233 85.5393 150.4 85.2447C150.575 84.9502 150.663 84.6238 150.663 84.2656V82.6297C150.663 82.2794 150.531 81.9968 150.269 81.7819C150.014 81.559 149.676 81.4476 149.254 81.4476C148.888 81.4476 148.561 81.5431 148.275 81.7341C147.996 81.9172 147.789 82.164 147.654 82.4745L146.686 81.973C146.806 81.6784 146.997 81.4157 147.26 81.1849C147.522 80.9461 147.829 80.759 148.179 80.6237C148.529 80.4883 148.895 80.4207 149.278 80.4207C149.771 80.4207 150.205 80.5162 150.579 80.7072C150.953 80.8903 151.244 81.1491 151.451 81.4834C151.666 81.8098 151.773 82.1919 151.773 82.6297V87H150.687V85.782L150.89 85.8537C150.754 86.1084 150.571 86.3313 150.34 86.5224C150.109 86.7134 149.839 86.8647 149.528 86.9761C149.218 87.0876 148.88 87.1433 148.513 87.1433ZM153.853 87V80.564H154.94V81.8177L154.761 81.7103C154.92 81.3043 155.175 80.9898 155.525 80.7669C155.883 80.5361 156.301 80.4207 156.779 80.4207C157.24 80.4207 157.65 80.5242 158.009 80.7311C158.375 80.9381 158.661 81.2247 158.868 81.5909C159.083 81.957 159.191 82.371 159.191 82.8327V87H158.068V83.1909C158.068 82.8327 158.005 82.5302 157.877 82.2834C157.75 82.0366 157.567 81.8456 157.328 81.7103C157.097 81.567 156.83 81.4953 156.528 81.4953C156.225 81.4953 155.955 81.567 155.716 81.7103C155.485 81.8456 155.302 82.0406 155.167 82.2954C155.031 82.5421 154.964 82.8407 154.964 83.1909V87H153.853ZM164.063 87.1433C163.458 87.1433 162.913 86.996 162.428 86.7015C161.95 86.4069 161.572 86.0049 161.293 85.4955C161.015 84.986 160.875 84.4168 160.875 83.7879C160.875 83.1432 161.015 82.57 161.293 82.0685C161.572 81.559 161.95 81.157 162.428 80.8625C162.913 80.5679 163.458 80.4207 164.063 80.4207C164.597 80.4207 165.07 80.5361 165.484 80.7669C165.898 80.9898 166.225 81.2923 166.464 81.6744L166.284 81.9491V77.9609H167.407V87H166.32V85.6268L166.464 85.8179C166.241 86.2398 165.914 86.5662 165.484 86.797C165.063 87.0279 164.589 87.1433 164.063 87.1433ZM164.159 86.0686C164.565 86.0686 164.927 85.9691 165.246 85.7701C165.564 85.5711 165.815 85.3004 165.998 84.9581C166.189 84.6079 166.284 84.2178 166.284 83.7879C166.284 83.3501 166.189 82.9601 165.998 82.6178C165.815 82.2675 165.564 81.9929 165.246 81.7939C164.927 81.5948 164.565 81.4953 164.159 81.4953C163.761 81.4953 163.399 81.5988 163.072 81.8058C162.754 82.0048 162.503 82.2755 162.32 82.6178C162.137 82.9521 162.045 83.3422 162.045 83.7879C162.045 84.2178 162.137 84.6079 162.32 84.9581C162.503 85.3004 162.754 85.5711 163.072 85.7701C163.391 85.9691 163.753 86.0686 164.159 86.0686ZM169.938 87V85.5671H171.096V87H169.938ZM176.617 87.1433C175.988 87.1433 175.427 86.996 174.933 86.7015C174.448 86.4069 174.066 86.0049 173.787 85.4955C173.508 84.986 173.369 84.4128 173.369 83.776C173.369 83.1312 173.508 82.5581 173.787 82.0565C174.066 81.555 174.448 81.157 174.933 80.8625C175.427 80.5679 175.988 80.4207 176.617 80.4207C177.039 80.4207 177.433 80.4963 177.799 80.6475C178.165 80.7988 178.488 81.0018 178.766 81.2565C179.045 81.5113 179.248 81.8098 179.375 82.1521L178.384 82.6297C178.233 82.2954 178.002 82.0247 177.692 81.8177C177.381 81.6028 177.023 81.4953 176.617 81.4953C176.227 81.4953 175.873 81.5948 175.554 81.7939C175.244 81.9929 174.997 82.2635 174.814 82.6058C174.631 82.9481 174.539 83.3422 174.539 83.7879C174.539 84.2178 174.631 84.6079 174.814 84.9581C174.997 85.3004 175.244 85.5711 175.554 85.7701C175.873 85.9691 176.227 86.0686 176.617 86.0686C177.023 86.0686 177.381 85.9651 177.692 85.7582C178.002 85.5432 178.233 85.2606 178.384 84.9104L179.375 85.4119C179.248 85.7462 179.045 86.0447 178.766 86.3074C178.488 86.5622 178.165 86.7652 177.799 86.9164C177.433 87.0677 177.039 87.1433 176.617 87.1433ZM184.242 87.1433C183.621 87.1433 183.06 87 182.558 86.7134C182.057 86.4189 181.658 86.0169 181.364 85.5074C181.069 84.9979 180.922 84.4208 180.922 83.776C180.922 83.1312 181.065 82.5581 181.352 82.0565C181.647 81.555 182.045 81.157 182.546 80.8625C183.048 80.5679 183.613 80.4207 184.242 80.4207C184.863 80.4207 185.424 80.5679 185.925 80.8625C186.427 81.1491 186.821 81.5431 187.107 82.0446C187.402 82.5461 187.549 83.1232 187.549 83.776C187.549 84.4288 187.398 85.0099 187.096 85.5194C186.793 86.0209 186.391 86.4189 185.889 86.7134C185.396 87 184.847 87.1433 184.242 87.1433ZM184.242 86.0686C184.64 86.0686 184.998 85.9691 185.316 85.7701C185.643 85.5711 185.897 85.2965 186.081 84.9462C186.272 84.5959 186.367 84.2059 186.367 83.776C186.367 83.3382 186.272 82.9521 186.081 82.6178C185.897 82.2755 185.643 82.0048 185.316 81.8058C184.998 81.5988 184.64 81.4953 184.242 81.4953C183.836 81.4953 183.47 81.5988 183.143 81.8058C182.825 82.0048 182.57 82.2755 182.379 82.6178C182.188 82.9521 182.092 83.3382 182.092 83.776C182.092 84.2059 182.188 84.5959 182.379 84.9462C182.57 85.2965 182.825 85.5711 183.143 85.7701C183.47 85.9691 183.836 86.0686 184.242 86.0686ZM189.356 87V80.564H190.442V81.8774L190.287 81.6744C190.446 81.2685 190.701 80.958 191.051 80.7431C191.402 80.5281 191.796 80.4207 192.234 80.4207C192.735 80.4207 193.185 80.56 193.583 80.8386C193.989 81.1172 194.267 81.4834 194.419 81.9371L194.108 81.9491C194.275 81.4476 194.558 81.0694 194.956 80.8147C195.354 80.552 195.796 80.4207 196.281 80.4207C196.727 80.4207 197.129 80.5242 197.487 80.7311C197.854 80.9381 198.144 81.2247 198.359 81.5909C198.574 81.957 198.682 82.371 198.682 82.8327V87H197.559V83.1909C197.559 82.8327 197.495 82.5302 197.368 82.2834C197.241 82.0366 197.066 81.8456 196.843 81.7103C196.628 81.567 196.373 81.4953 196.078 81.4953C195.792 81.4953 195.533 81.567 195.302 81.7103C195.079 81.8456 194.9 82.0406 194.765 82.2954C194.638 82.5421 194.574 82.8407 194.574 83.1909V87H193.452V83.1909C193.452 82.8327 193.388 82.5302 193.26 82.2834C193.133 82.0366 192.958 81.8456 192.735 81.7103C192.52 81.567 192.265 81.4953 191.971 81.4953C191.684 81.4953 191.426 81.567 191.195 81.7103C190.972 81.8456 190.793 82.0406 190.657 82.2954C190.53 82.5421 190.466 82.8407 190.466 83.1909V87H189.356ZM199.841 88.4329L203.853 78.5937H205.107L201.095 88.4329H199.841ZM206.409 87V77.9609H207.52V81.8177L207.317 81.7103C207.476 81.3043 207.731 80.9898 208.081 80.7669C208.439 80.5361 208.857 80.4207 209.335 80.4207C209.796 80.4207 210.206 80.5242 210.565 80.7311C210.931 80.9381 211.217 81.2247 211.424 81.5909C211.639 81.957 211.747 82.371 211.747 82.8327V87H210.624V83.1909C210.624 82.8327 210.557 82.5302 210.421 82.2834C210.294 82.0366 210.115 81.8456 209.884 81.7103C209.653 81.567 209.386 81.4953 209.084 81.4953C208.789 81.4953 208.523 81.567 208.284 81.7103C208.045 81.8456 207.858 82.0406 207.723 82.2954C207.587 82.5421 207.52 82.8407 207.52 83.1909V87H206.409ZM216.751 87.1433C216.13 87.1433 215.569 87 215.067 86.7134C214.566 86.4189 214.168 86.0169 213.873 85.5074C213.578 84.9979 213.431 84.4208 213.431 83.776C213.431 83.1312 213.574 82.5581 213.861 82.0565C214.156 81.555 214.554 81.157 215.055 80.8625C215.557 80.5679 216.122 80.4207 216.751 80.4207C217.372 80.4207 217.933 80.5679 218.434 80.8625C218.936 81.1491 219.33 81.5431 219.616 82.0446C219.911 82.5461 220.058 83.1232 220.058 83.776C220.058 84.4288 219.907 85.0099 219.605 85.5194C219.302 86.0209 218.9 86.4189 218.399 86.7134C217.905 87 217.356 87.1433 216.751 87.1433ZM216.751 86.0686C217.149 86.0686 217.507 85.9691 217.825 85.7701C218.152 85.5711 218.406 85.2965 218.59 84.9462C218.781 84.5959 218.876 84.2059 218.876 83.776C218.876 83.3382 218.781 82.9521 218.59 82.6178C218.406 82.2755 218.152 82.0048 217.825 81.8058C217.507 81.5988 217.149 81.4953 216.751 81.4953C216.345 81.4953 215.979 81.5988 215.652 81.8058C215.334 82.0048 215.079 82.2755 214.888 82.6178C214.697 82.9521 214.601 83.3382 214.601 83.776C214.601 84.2059 214.697 84.5959 214.888 84.9462C215.079 85.2965 215.334 85.5711 215.652 85.7701C215.979 85.9691 216.345 86.0686 216.751 86.0686ZM221.865 87V80.564H222.951V81.8774L222.796 81.6744C222.955 81.2685 223.21 80.958 223.56 80.7431C223.911 80.5281 224.305 80.4207 224.743 80.4207C225.244 80.4207 225.694 80.56 226.092 80.8386C226.498 81.1172 226.777 81.4834 226.928 81.9371L226.617 81.9491C226.784 81.4476 227.067 81.0694 227.465 80.8147C227.863 80.552 228.305 80.4207 228.791 80.4207C229.236 80.4207 229.638 80.5242 229.997 80.7311C230.363 80.9381 230.653 81.2247 230.868 81.5909C231.083 81.957 231.191 82.371 231.191 82.8327V87H230.068V83.1909C230.068 82.8327 230.004 82.5302 229.877 82.2834C229.75 82.0366 229.575 81.8456 229.352 81.7103C229.137 81.567 228.882 81.4953 228.588 81.4953C228.301 81.4953 228.042 81.567 227.811 81.7103C227.588 81.8456 227.409 82.0406 227.274 82.2954C227.147 82.5421 227.083 82.8407 227.083 83.1909V87H225.961V83.1909C225.961 82.8327 225.897 82.5302 225.77 82.2834C225.642 82.0366 225.467 81.8456 225.244 81.7103C225.029 81.567 224.774 81.4953 224.48 81.4953C224.193 81.4953 223.935 81.567 223.704 81.7103C223.481 81.8456 223.302 82.0406 223.166 82.2954C223.039 82.5421 222.975 82.8407 222.975 83.1909V87H221.865ZM236.087 87.1433C235.466 87.1433 234.913 86.996 234.428 86.7015C233.942 86.4069 233.56 86.0049 233.281 85.4955C233.003 84.978 232.863 84.4009 232.863 83.7641C232.863 83.1193 232.999 82.5461 233.269 82.0446C233.548 81.5431 233.922 81.1491 234.392 80.8625C234.869 80.5679 235.403 80.4207 235.992 80.4207C236.469 80.4207 236.891 80.5082 237.257 80.6834C237.632 80.8505 237.946 81.0814 238.201 81.3759C238.464 81.6625 238.663 81.9929 238.798 82.367C238.941 82.7332 239.013 83.1153 239.013 83.5133C239.013 83.6009 239.005 83.7004 238.989 83.8118C238.981 83.9153 238.969 84.0148 238.953 84.1103H233.675V83.1551H238.308L237.783 83.585C237.855 83.171 237.815 82.8009 237.663 82.4745C237.512 82.1481 237.289 81.8894 236.995 81.6983C236.7 81.5073 236.366 81.4117 235.992 81.4117C235.618 81.4117 235.275 81.5073 234.965 81.6983C234.654 81.8894 234.412 82.164 234.236 82.5222C234.069 82.8725 234.002 83.2904 234.034 83.776C234.002 84.2457 234.073 84.6596 234.248 85.0178C234.432 85.3681 234.686 85.6427 235.013 85.8418C235.347 86.0328 235.709 86.1283 236.099 86.1283C236.529 86.1283 236.891 86.0288 237.186 85.8298C237.48 85.6308 237.719 85.3761 237.902 85.0656L238.834 85.5432C238.706 85.8378 238.507 86.1084 238.237 86.3552C237.974 86.594 237.66 86.7851 237.293 86.9284C236.935 87.0716 236.533 87.1433 236.087 87.1433ZM240.043 88.4329L244.055 78.5937H245.309L241.297 88.4329H240.043ZM249.596 87.1433C248.967 87.1433 248.406 86.996 247.913 86.7015C247.427 86.4069 247.045 86.0049 246.766 85.4955C246.488 84.986 246.348 84.4128 246.348 83.776C246.348 83.1312 246.488 82.5581 246.766 82.0565C247.045 81.555 247.427 81.157 247.913 80.8625C248.406 80.5679 248.967 80.4207 249.596 80.4207C250.018 80.4207 250.412 80.4963 250.778 80.6475C251.145 80.7988 251.467 81.0018 251.746 81.2565C252.024 81.5113 252.227 81.8098 252.355 82.1521L251.363 82.6297C251.212 82.2954 250.981 82.0247 250.671 81.8177C250.36 81.6028 250.002 81.4953 249.596 81.4953C249.206 81.4953 248.852 81.5948 248.534 81.7939C248.223 81.9929 247.976 82.2635 247.793 82.6058C247.61 82.9481 247.519 83.3422 247.519 83.7879C247.519 84.2178 247.61 84.6079 247.793 84.9581C247.976 85.3004 248.223 85.5711 248.534 85.7701C248.852 85.9691 249.206 86.0686 249.596 86.0686C250.002 86.0686 250.36 85.9651 250.671 85.7582C250.981 85.5432 251.212 85.2606 251.363 84.9104L252.355 85.4119C252.227 85.7462 252.024 86.0447 251.746 86.3074C251.467 86.5622 251.145 86.7652 250.778 86.9164C250.412 87.0677 250.018 87.1433 249.596 87.1433ZM255.969 87.1433C255.547 87.1433 255.173 87.0677 254.847 86.9164C254.528 86.7572 254.277 86.5423 254.094 86.2716C253.911 85.993 253.82 85.6746 253.82 85.3164C253.82 84.9741 253.891 84.6676 254.035 84.3969C254.186 84.1183 254.417 83.8835 254.727 83.6924C255.046 83.5014 255.444 83.366 255.921 83.2864L258.309 82.8924V83.8238L256.172 84.182C255.758 84.2536 255.456 84.385 255.265 84.576C255.081 84.7671 254.99 85.0019 254.99 85.2805C254.99 85.5432 255.093 85.7621 255.3 85.9373C255.515 86.1124 255.782 86.2 256.1 86.2C256.506 86.2 256.857 86.1164 257.151 85.9492C257.454 85.7741 257.689 85.5393 257.856 85.2447C258.031 84.9502 258.118 84.6238 258.118 84.2656V82.6297C258.118 82.2794 257.987 81.9968 257.724 81.7819C257.47 81.559 257.131 81.4476 256.709 81.4476C256.343 81.4476 256.017 81.5431 255.73 81.7341C255.452 81.9172 255.245 82.164 255.109 82.4745L254.142 81.973C254.262 81.6784 254.453 81.4157 254.715 81.1849C254.978 80.9461 255.284 80.759 255.635 80.6237C255.985 80.4883 256.351 80.4207 256.733 80.4207C257.227 80.4207 257.661 80.5162 258.035 80.7072C258.409 80.8903 258.699 81.1491 258.906 81.4834C259.121 81.8098 259.229 82.1919 259.229 82.6297V87H258.142V85.782L258.345 85.8537C258.21 86.1084 258.027 86.3313 257.796 86.5224C257.565 86.7134 257.294 86.8647 256.984 86.9761C256.674 87.0876 256.335 87.1433 255.969 87.1433ZM263.807 87.0716C263.178 87.0716 262.693 86.8925 262.351 86.5343C262.016 86.1761 261.849 85.6706 261.849 85.0178V81.6267H260.679V80.564H260.918C261.204 80.564 261.431 80.4764 261.598 80.3013C261.765 80.1261 261.849 79.8953 261.849 79.6087V79.0833H262.96V80.564H264.404V81.6267H262.96V84.982C262.96 85.197 262.991 85.384 263.055 85.5432C263.127 85.7024 263.242 85.8298 263.401 85.9253C263.561 86.0129 263.771 86.0567 264.034 86.0567C264.09 86.0567 264.158 86.0527 264.237 86.0447C264.325 86.0368 264.404 86.0288 264.476 86.0209V87C264.372 87.0239 264.257 87.0398 264.13 87.0478C264.002 87.0637 263.895 87.0716 263.807 87.0716ZM269.071 87.1433C268.45 87.1433 267.897 86.996 267.411 86.7015C266.926 86.4069 266.544 86.0049 266.265 85.4955C265.986 84.978 265.847 84.4009 265.847 83.7641C265.847 83.1193 265.983 82.5461 266.253 82.0446C266.532 81.5431 266.906 81.1491 267.376 80.8625C267.853 80.5679 268.387 80.4207 268.976 80.4207C269.453 80.4207 269.875 80.5082 270.241 80.6834C270.616 80.8505 270.93 81.0814 271.185 81.3759C271.447 81.6625 271.646 81.9929 271.782 82.367C271.925 82.7332 271.997 83.1153 271.997 83.5133C271.997 83.6009 271.989 83.7004 271.973 83.8118C271.965 83.9153 271.953 84.0148 271.937 84.1103H266.659V83.1551H271.292L270.767 83.585C270.838 83.171 270.799 82.8009 270.647 82.4745C270.496 82.1481 270.273 81.8894 269.979 81.6983C269.684 81.5073 269.35 81.4117 268.976 81.4117C268.602 81.4117 268.259 81.5073 267.949 81.6983C267.638 81.8894 267.396 82.164 267.22 82.5222C267.053 82.8725 266.986 83.2904 267.017 83.776C266.986 84.2457 267.057 84.6596 267.232 85.0178C267.415 85.3681 267.67 85.6427 267.997 85.8418C268.331 86.0328 268.693 86.1283 269.083 86.1283C269.513 86.1283 269.875 86.0288 270.17 85.8298C270.464 85.6308 270.703 85.3761 270.886 85.0656L271.818 85.5432C271.69 85.8378 271.491 86.1084 271.221 86.3552C270.958 86.594 270.643 86.7851 270.277 86.9284C269.919 87.0716 269.517 87.1433 269.071 87.1433ZM276.872 89.627C276.418 89.627 275.996 89.5553 275.606 89.412C275.224 89.2687 274.893 89.0697 274.615 88.815C274.344 88.5682 274.137 88.2777 273.994 87.9433L275.033 87.4657C275.144 87.7682 275.355 88.0229 275.666 88.2299C275.984 88.4448 276.382 88.5523 276.86 88.5523C277.226 88.5523 277.556 88.4806 277.851 88.3374C278.153 88.202 278.392 87.9951 278.567 87.7164C278.742 87.4458 278.83 87.1154 278.83 86.7254V85.2805L279.033 85.4955C278.81 85.9333 278.488 86.2676 278.066 86.4985C277.652 86.7293 277.194 86.8448 276.692 86.8448C276.087 86.8448 275.546 86.7055 275.069 86.4268C274.591 86.1403 274.217 85.7542 273.946 85.2686C273.675 84.775 273.54 84.2298 273.54 83.6327C273.54 83.0277 273.675 82.4824 273.946 81.9968C274.217 81.5113 274.587 81.1292 275.057 80.8505C275.534 80.564 276.076 80.4207 276.68 80.4207C277.182 80.4207 277.636 80.5361 278.042 80.7669C278.456 80.9898 278.786 81.3003 279.033 81.6983L278.866 81.9968V80.564H279.952V86.7254C279.952 87.2826 279.821 87.7801 279.558 88.218C279.296 88.6558 278.929 88.9981 278.46 89.2449C277.998 89.4996 277.469 89.627 276.872 89.627ZM276.788 85.7701C277.17 85.7701 277.512 85.6746 277.815 85.4835C278.125 85.2925 278.372 85.0377 278.555 84.7193C278.738 84.3929 278.83 84.0307 278.83 83.6327C278.83 83.2427 278.738 82.8844 278.555 82.5581C278.372 82.2317 278.125 81.973 277.815 81.7819C277.512 81.5909 277.17 81.4953 276.788 81.4953C276.398 81.4953 276.044 81.5909 275.725 81.7819C275.407 81.973 275.156 82.2317 274.973 82.5581C274.798 82.8765 274.71 83.2347 274.71 83.6327C274.71 84.0307 274.798 84.3929 274.973 84.7193C275.156 85.0377 275.403 85.2925 275.713 85.4835C276.032 85.6746 276.39 85.7701 276.788 85.7701ZM285.089 87.1433C284.468 87.1433 283.907 87 283.405 86.7134C282.904 86.4189 282.506 86.0169 282.211 85.5074C281.917 84.9979 281.769 84.4208 281.769 83.776C281.769 83.1312 281.913 82.5581 282.199 82.0565C282.494 81.555 282.892 81.157 283.393 80.8625C283.895 80.5679 284.46 80.4207 285.089 80.4207C285.71 80.4207 286.271 80.5679 286.773 80.8625C287.274 81.1491 287.668 81.5431 287.955 82.0446C288.249 82.5461 288.396 83.1232 288.396 83.776C288.396 84.4288 288.245 85.0099 287.943 85.5194C287.64 86.0209 287.238 86.4189 286.737 86.7134C286.243 87 285.694 87.1433 285.089 87.1433ZM285.089 86.0686C285.487 86.0686 285.845 85.9691 286.164 85.7701C286.49 85.5711 286.745 85.2965 286.928 84.9462C287.119 84.5959 287.214 84.2059 287.214 83.776C287.214 83.3382 287.119 82.9521 286.928 82.6178C286.745 82.2755 286.49 82.0048 286.164 81.8058C285.845 81.5988 285.487 81.4953 285.089 81.4953C284.683 81.4953 284.317 81.5988 283.99 81.8058C283.672 82.0048 283.417 82.2755 283.226 82.6178C283.035 82.9521 282.94 83.3382 282.94 83.776C282.94 84.2059 283.035 84.5959 283.226 84.9462C283.417 85.2965 283.672 85.5711 283.99 85.7701C284.317 85.9691 284.683 86.0686 285.089 86.0686ZM290.203 87V80.564H291.29V81.7461L291.17 81.5789C291.322 81.2127 291.552 80.9421 291.863 80.7669C292.173 80.5839 292.551 80.4923 292.997 80.4923H293.391V81.5431H292.83C292.376 81.5431 292.01 81.6864 291.731 81.973C291.453 82.2516 291.314 82.6496 291.314 83.167V87H290.203ZM295.082 89.627C294.939 89.627 294.796 89.615 294.652 89.5911C294.509 89.5752 294.374 89.5394 294.246 89.4837V88.4926C294.334 88.5005 294.441 88.5165 294.569 88.5404C294.704 88.5642 294.835 88.5762 294.963 88.5762C295.337 88.5762 295.62 88.4926 295.811 88.3254C296.01 88.1582 296.197 87.8757 296.372 87.4776L296.778 86.5104L296.754 87.4776L294.008 80.564H295.214L297.351 86.0567H296.993L299.118 80.564H300.348L297.446 87.7642C297.311 88.1065 297.136 88.4209 296.921 88.7075C296.714 88.9941 296.459 89.217 296.157 89.3762C295.854 89.5434 295.496 89.627 295.082 89.627ZM300.918 88.4329L304.93 78.5937H306.184L302.172 88.4329H300.918ZM307.582 87V85.5671H308.74V87H307.582ZM309.97 87V85.5671H311.128V87H309.97ZM312.358 87V85.5671H313.516V87H312.358Z" fill="#454545"/>
<path d="M164.885 123.245C165.376 123.736 166.172 123.736 166.663 123.245L174.662 115.246C175.152 114.755 175.152 113.959 174.662 113.468C174.171 112.977 173.375 112.977 172.884 113.468L165.774 120.579L158.664 113.468C158.173 112.977 157.377 112.977 156.886 113.468C156.395 113.959 156.395 114.755 156.886 115.246L164.885 123.245ZM167.031 102.855C167.031 102.16 166.468 101.598 165.774 101.598C165.08 101.598 164.517 102.16 164.517 102.855H167.031ZM167.031 122.356V102.855H164.517V122.356H167.031Z" fill="#686868"/>
<rect x="85.7194" y="129.148" width="172.826" height="23.8814" rx="11.9407" fill="#5E9BF0"/>
<path d="M108.231 145.976V136.937H109.342V140.794L109.139 140.687C109.298 140.281 109.553 139.966 109.903 139.743C110.261 139.512 110.679 139.397 111.157 139.397C111.618 139.397 112.028 139.5 112.387 139.707C112.753 139.914 113.039 140.201 113.246 140.567C113.461 140.933 113.569 141.347 113.569 141.809V145.976H112.446V142.167C112.446 141.809 112.379 141.507 112.243 141.26C112.116 141.013 111.937 140.822 111.706 140.687C111.475 140.543 111.208 140.472 110.906 140.472C110.611 140.472 110.345 140.543 110.106 140.687C109.867 140.822 109.68 141.017 109.545 141.272C109.409 141.518 109.342 141.817 109.342 142.167V145.976H108.231ZM118.131 146.048C117.502 146.048 117.017 145.869 116.674 145.511C116.34 145.152 116.173 144.647 116.173 143.994V140.603H115.003V139.54H115.241C115.528 139.54 115.755 139.453 115.922 139.278C116.089 139.102 116.173 138.872 116.173 138.585V138.06H117.283V139.54H118.728V140.603H117.283V143.958C117.283 144.173 117.315 144.36 117.379 144.52C117.45 144.679 117.566 144.806 117.725 144.902C117.884 144.989 118.095 145.033 118.358 145.033C118.414 145.033 118.481 145.029 118.561 145.021C118.648 145.013 118.728 145.005 118.8 144.997V145.976C118.696 146 118.581 146.016 118.453 146.024C118.326 146.04 118.219 146.048 118.131 146.048ZM123.224 146.048C122.595 146.048 122.109 145.869 121.767 145.511C121.432 145.152 121.265 144.647 121.265 143.994V140.603H120.095V139.54H120.334C120.62 139.54 120.847 139.453 121.015 139.278C121.182 139.102 121.265 138.872 121.265 138.585V138.06H122.376V139.54H123.821V140.603H122.376V143.958C122.376 144.173 122.408 144.36 122.471 144.52C122.543 144.679 122.658 144.806 122.818 144.902C122.977 144.989 123.188 145.033 123.45 145.033C123.506 145.033 123.574 145.029 123.653 145.021C123.741 145.013 123.821 145.005 123.892 144.997V145.976C123.789 146 123.673 146.016 123.546 146.024C123.419 146.04 123.311 146.048 123.224 146.048ZM125.701 148.364V139.54H126.788V140.925L126.644 140.651C126.883 140.269 127.21 139.966 127.624 139.743C128.037 139.512 128.511 139.397 129.044 139.397C129.649 139.397 130.191 139.544 130.668 139.839C131.154 140.133 131.536 140.535 131.815 141.045C132.093 141.546 132.233 142.119 132.233 142.764C132.233 143.393 132.093 143.962 131.815 144.472C131.536 144.981 131.154 145.383 130.668 145.678C130.191 145.972 129.645 146.12 129.033 146.12C128.515 146.12 128.041 146.004 127.612 145.773C127.19 145.542 126.863 145.216 126.632 144.794L126.812 144.603V148.364H125.701ZM128.949 145.045C129.355 145.045 129.717 144.945 130.036 144.746C130.354 144.547 130.601 144.277 130.776 143.934C130.959 143.584 131.051 143.194 131.051 142.764C131.051 142.318 130.959 141.928 130.776 141.594C130.601 141.252 130.354 140.981 130.036 140.782C129.717 140.575 129.355 140.472 128.949 140.472C128.543 140.472 128.177 140.571 127.85 140.77C127.532 140.969 127.277 141.244 127.086 141.594C126.903 141.936 126.812 142.326 126.812 142.764C126.812 143.194 126.903 143.584 127.086 143.934C127.277 144.277 127.532 144.547 127.85 144.746C128.177 144.945 128.543 145.045 128.949 145.045ZM136.352 146.12C135.707 146.12 135.146 145.96 134.668 145.642C134.19 145.324 133.852 144.894 133.653 144.352L134.537 143.923C134.72 144.305 134.97 144.607 135.289 144.83C135.607 145.053 135.961 145.164 136.352 145.164C136.702 145.164 136.992 145.081 137.223 144.914C137.454 144.746 137.569 144.528 137.569 144.257C137.569 144.066 137.514 143.915 137.402 143.803C137.299 143.684 137.171 143.592 137.02 143.528C136.869 143.457 136.73 143.405 136.602 143.373L135.635 143.099C135.054 142.931 134.628 142.693 134.357 142.382C134.095 142.072 133.963 141.71 133.963 141.296C133.963 140.913 134.059 140.583 134.25 140.304C134.449 140.018 134.716 139.795 135.05 139.636C135.392 139.477 135.774 139.397 136.196 139.397C136.761 139.397 137.267 139.54 137.713 139.827C138.167 140.113 138.489 140.515 138.68 141.033L137.772 141.451C137.629 141.116 137.414 140.854 137.128 140.663C136.841 140.464 136.519 140.364 136.16 140.364C135.834 140.364 135.575 140.448 135.384 140.615C135.193 140.774 135.098 140.977 135.098 141.224C135.098 141.407 135.146 141.558 135.241 141.678C135.337 141.789 135.452 141.877 135.587 141.94C135.723 141.996 135.854 142.044 135.981 142.084L137.032 142.394C137.558 142.545 137.964 142.78 138.25 143.099C138.545 143.417 138.692 143.799 138.692 144.245C138.692 144.603 138.592 144.926 138.393 145.212C138.194 145.499 137.92 145.722 137.569 145.881C137.219 146.04 136.813 146.12 136.352 146.12ZM140.958 145.976V144.543H142.116V145.976H140.958ZM140.958 140.973V139.54H142.116V140.973H140.958ZM143.876 147.409L147.888 137.57H149.142L145.129 147.409H143.876ZM149.668 147.409L153.68 137.57H154.934L150.922 147.409H149.668ZM156.236 145.976V139.54H157.323V140.854L157.168 140.651C157.327 140.245 157.581 139.934 157.932 139.719C158.282 139.504 158.676 139.397 159.114 139.397C159.615 139.397 160.065 139.536 160.463 139.815C160.869 140.094 161.148 140.46 161.299 140.913L160.989 140.925C161.156 140.424 161.438 140.046 161.836 139.791C162.234 139.528 162.676 139.397 163.162 139.397C163.608 139.397 164.01 139.5 164.368 139.707C164.734 139.914 165.025 140.201 165.239 140.567C165.454 140.933 165.562 141.347 165.562 141.809V145.976H164.439V142.167C164.439 141.809 164.376 141.507 164.248 141.26C164.121 141.013 163.946 140.822 163.723 140.687C163.508 140.543 163.253 140.472 162.959 140.472C162.672 140.472 162.414 140.543 162.183 140.687C161.96 140.822 161.781 141.017 161.645 141.272C161.518 141.518 161.454 141.817 161.454 142.167V145.976H160.332V142.167C160.332 141.809 160.268 141.507 160.141 141.26C160.013 141.013 159.838 140.822 159.615 140.687C159.4 140.543 159.146 140.472 158.851 140.472C158.565 140.472 158.306 140.543 158.075 140.687C157.852 140.822 157.673 141.017 157.538 141.272C157.41 141.518 157.347 141.817 157.347 142.167V145.976H156.236ZM167.951 145.976V144.543H169.109V145.976H167.951ZM172.314 145.976L175.383 141.976L175.598 142C175.478 142.159 175.347 142.287 175.204 142.382C175.06 142.47 174.901 142.533 174.726 142.573C174.559 142.613 174.376 142.633 174.177 142.633C173.651 142.633 173.178 142.514 172.756 142.275C172.342 142.028 172.011 141.694 171.765 141.272C171.526 140.842 171.406 140.352 171.406 139.803C171.406 139.254 171.534 138.764 171.789 138.334C172.043 137.904 172.394 137.566 172.839 137.319C173.285 137.065 173.787 136.937 174.344 136.937C174.917 136.937 175.423 137.065 175.86 137.319C176.306 137.566 176.656 137.912 176.911 138.358C177.166 138.796 177.293 139.301 177.293 139.875C177.293 140.185 177.257 140.492 177.186 140.794C177.114 141.097 176.999 141.403 176.839 141.713C176.688 142.024 176.485 142.346 176.231 142.681L173.723 145.976H172.314ZM174.344 141.606C174.686 141.606 174.989 141.53 175.251 141.379C175.522 141.22 175.733 141.005 175.884 140.734C176.035 140.456 176.111 140.145 176.111 139.803C176.111 139.445 176.032 139.13 175.872 138.86C175.721 138.589 175.514 138.374 175.251 138.215C174.989 138.056 174.686 137.976 174.344 137.976C174.01 137.976 173.711 138.056 173.448 138.215C173.186 138.374 172.975 138.589 172.815 138.86C172.664 139.13 172.589 139.445 172.589 139.803C172.589 140.145 172.664 140.456 172.815 140.734C172.967 141.005 173.174 141.22 173.436 141.379C173.707 141.53 174.01 141.606 174.344 141.606ZM179.152 145.976V139.54H180.238V140.854L180.083 140.651C180.242 140.245 180.497 139.934 180.847 139.719C181.197 139.504 181.591 139.397 182.029 139.397C182.531 139.397 182.981 139.536 183.379 139.815C183.785 140.094 184.063 140.46 184.214 140.913L183.904 140.925C184.071 140.424 184.354 140.046 184.752 139.791C185.15 139.528 185.592 139.397 186.077 139.397C186.523 139.397 186.925 139.5 187.283 139.707C187.649 139.914 187.94 140.201 188.155 140.567C188.37 140.933 188.477 141.347 188.477 141.809V145.976H187.355V142.167C187.355 141.809 187.291 141.507 187.164 141.26C187.036 141.013 186.861 140.822 186.638 140.687C186.424 140.543 186.169 140.472 185.874 140.472C185.588 140.472 185.329 140.543 185.098 140.687C184.875 140.822 184.696 141.017 184.561 141.272C184.433 141.518 184.37 141.817 184.37 142.167V145.976H183.247V142.167C183.247 141.809 183.184 141.507 183.056 141.26C182.929 141.013 182.754 140.822 182.531 140.687C182.316 140.543 182.061 140.472 181.767 140.472C181.48 140.472 181.221 140.543 180.99 140.687C180.768 140.822 180.588 141.017 180.453 141.272C180.326 141.518 180.262 141.817 180.262 142.167V145.976H179.152ZM190.866 145.976V144.543H192.025V145.976H190.866ZM194.561 145.976V139.54H195.671V145.976H194.561ZM194.561 138.513V137.08H195.671V138.513H194.561ZM200.809 146.12C200.188 146.12 199.627 145.976 199.126 145.69C198.624 145.395 198.226 144.993 197.932 144.484C197.637 143.974 197.49 143.397 197.49 142.752C197.49 142.108 197.633 141.534 197.92 141.033C198.214 140.531 198.612 140.133 199.114 139.839C199.615 139.544 200.18 139.397 200.809 139.397C201.43 139.397 201.991 139.544 202.493 139.839C202.994 140.125 203.389 140.519 203.675 141.021C203.97 141.522 204.117 142.1 204.117 142.752C204.117 143.405 203.966 143.986 203.663 144.496C203.361 144.997 202.959 145.395 202.457 145.69C201.964 145.976 201.414 146.12 200.809 146.12ZM200.809 145.045C201.207 145.045 201.566 144.945 201.884 144.746C202.21 144.547 202.465 144.273 202.648 143.923C202.839 143.572 202.935 143.182 202.935 142.752C202.935 142.315 202.839 141.928 202.648 141.594C202.465 141.252 202.21 140.981 201.884 140.782C201.566 140.575 201.207 140.472 200.809 140.472C200.403 140.472 200.037 140.575 199.711 140.782C199.392 140.981 199.138 141.252 198.947 141.594C198.756 141.928 198.66 142.315 198.66 142.752C198.66 143.182 198.756 143.572 198.947 143.923C199.138 144.273 199.392 144.547 199.711 144.746C200.037 144.945 200.403 145.045 200.809 145.045ZM205.147 147.409L209.159 137.57H210.413L206.401 147.409H205.147ZM214.02 146.12C213.375 146.12 212.814 145.96 212.337 145.642C211.859 145.324 211.521 144.894 211.322 144.352L212.205 143.923C212.388 144.305 212.639 144.607 212.958 144.83C213.276 145.053 213.63 145.164 214.02 145.164C214.371 145.164 214.661 145.081 214.892 144.914C215.123 144.746 215.238 144.528 215.238 144.257C215.238 144.066 215.182 143.915 215.071 143.803C214.968 143.684 214.84 143.592 214.689 143.528C214.538 143.457 214.398 143.405 214.271 143.373L213.304 143.099C212.723 142.931 212.297 142.693 212.026 142.382C211.763 142.072 211.632 141.71 211.632 141.296C211.632 140.913 211.728 140.583 211.919 140.304C212.118 140.018 212.384 139.795 212.719 139.636C213.061 139.477 213.443 139.397 213.865 139.397C214.43 139.397 214.936 139.54 215.381 139.827C215.835 140.113 216.158 140.515 216.349 141.033L215.441 141.451C215.298 141.116 215.083 140.854 214.796 140.663C214.51 140.464 214.187 140.364 213.829 140.364C213.503 140.364 213.244 140.448 213.053 140.615C212.862 140.774 212.766 140.977 212.766 141.224C212.766 141.407 212.814 141.558 212.91 141.678C213.005 141.789 213.121 141.877 213.256 141.94C213.391 141.996 213.523 142.044 213.65 142.084L214.701 142.394C215.226 142.545 215.632 142.78 215.919 143.099C216.213 143.417 216.361 143.799 216.361 144.245C216.361 144.603 216.261 144.926 216.062 145.212C215.863 145.499 215.588 145.722 215.238 145.881C214.888 146.04 214.482 146.12 214.02 146.12ZM218.173 145.976V136.937H219.283V140.794L219.08 140.687C219.239 140.281 219.494 139.966 219.844 139.743C220.202 139.512 220.62 139.397 221.098 139.397C221.56 139.397 221.97 139.5 222.328 139.707C222.694 139.914 222.981 140.201 223.188 140.567C223.403 140.933 223.51 141.347 223.51 141.809V145.976H222.388V142.167C222.388 141.809 222.32 141.507 222.185 141.26C222.057 141.013 221.878 140.822 221.647 140.687C221.416 140.543 221.15 140.472 220.847 140.472C220.553 140.472 220.286 140.543 220.047 140.687C219.808 140.822 219.621 141.017 219.486 141.272C219.351 141.518 219.283 141.817 219.283 142.167V145.976H218.173ZM225.457 145.976V139.54H226.544V140.722L226.425 140.555C226.576 140.189 226.807 139.918 227.117 139.743C227.428 139.56 227.806 139.469 228.251 139.469H228.645V140.519H228.084C227.631 140.519 227.264 140.663 226.986 140.949C226.707 141.228 226.568 141.626 226.568 142.143V145.976H225.457ZM232.663 146.048C232.035 146.048 231.549 145.869 231.207 145.511C230.872 145.152 230.705 144.647 230.705 143.994V140.603H229.535V139.54H229.774C230.06 139.54 230.287 139.453 230.454 139.278C230.622 139.102 230.705 138.872 230.705 138.585V138.06H231.816V139.54H233.26V140.603H231.816V143.958C231.816 144.173 231.847 144.36 231.911 144.52C231.983 144.679 232.098 144.806 232.257 144.902C232.417 144.989 232.628 145.033 232.89 145.033C232.946 145.033 233.014 145.029 233.093 145.021C233.181 145.013 233.26 145.005 233.332 144.997V145.976C233.229 146 233.113 146.016 232.986 146.024C232.858 146.04 232.751 146.048 232.663 146.048ZM236.407 145.976V138.095H234.723V137.08H237.589V145.976H236.407ZM243.39 146.12C242.873 146.12 242.399 146.004 241.969 145.773C241.547 145.542 241.221 145.216 240.99 144.794L241.145 144.603V145.976H240.059V136.937H241.169V140.925L241.002 140.651C241.241 140.269 241.567 139.966 241.981 139.743C242.395 139.512 242.869 139.397 243.402 139.397C244.007 139.397 244.548 139.544 245.026 139.839C245.511 140.133 245.894 140.535 246.172 141.045C246.451 141.546 246.59 142.119 246.59 142.764C246.59 143.393 246.451 143.962 246.172 144.472C245.894 144.981 245.511 145.383 245.026 145.678C244.548 145.972 244.003 146.12 243.39 146.12ZM243.306 145.045C243.712 145.045 244.075 144.945 244.393 144.746C244.711 144.547 244.958 144.277 245.133 143.934C245.316 143.584 245.408 143.194 245.408 142.764C245.408 142.318 245.316 141.928 245.133 141.594C244.958 141.252 244.711 140.981 244.393 140.782C244.075 140.575 243.712 140.472 243.306 140.472C242.9 140.472 242.534 140.571 242.208 140.77C241.889 140.969 241.635 141.244 241.444 141.594C241.261 141.936 241.169 142.326 241.169 142.764C241.169 143.194 241.261 143.584 241.444 143.934C241.635 144.277 241.889 144.547 242.208 144.746C242.534 144.945 242.9 145.045 243.306 145.045ZM248.887 145.976V140.603H247.657V139.54H248.887V139.087C248.887 138.625 248.986 138.235 249.185 137.916C249.392 137.598 249.663 137.355 249.997 137.188C250.34 137.021 250.718 136.937 251.132 136.937C251.219 136.937 251.315 136.945 251.418 136.961C251.53 136.969 251.621 136.981 251.693 136.997V137.988C251.629 137.972 251.554 137.964 251.466 137.964C251.378 137.956 251.311 137.952 251.263 137.952C250.897 137.952 250.594 138.04 250.356 138.215C250.125 138.39 250.009 138.681 250.009 139.087V139.54H251.538V140.603H250.009V145.976H248.887Z" fill="white"/>
<path d="M98.0589 142.347C98.3165 142.592 98.3165 142.994 98.0589 143.239C97.8138 143.484 97.4116 143.484 97.1665 143.239C96.5778 142.65 96.2472 141.851 96.2472 141.017C96.2472 140.184 96.5778 139.385 97.1665 138.796L99.3912 136.571C99.9807 135.982 100.78 135.652 101.613 135.652C102.446 135.652 103.245 135.982 103.834 136.571C104.423 137.161 104.754 137.96 104.754 138.793C104.754 139.626 104.423 140.425 103.834 141.014L102.898 141.951C102.904 141.435 102.823 140.92 102.647 140.43L102.942 140.128C103.118 139.954 103.258 139.746 103.353 139.518C103.449 139.289 103.498 139.044 103.498 138.796C103.498 138.548 103.449 138.303 103.353 138.074C103.258 137.845 103.118 137.638 102.942 137.464C102.768 137.287 102.56 137.147 102.332 137.052C102.103 136.957 101.857 136.907 101.61 136.907C101.362 136.907 101.116 136.957 100.888 137.052C100.659 137.147 100.452 137.287 100.277 137.464L98.0589 139.682C97.8827 139.856 97.7428 140.064 97.6474 140.292C97.5519 140.521 97.5028 140.766 97.5028 141.014C97.5028 141.262 97.5519 141.507 97.6474 141.736C97.7428 141.965 97.8827 142.172 98.0589 142.347ZM99.8311 139.682C100.076 139.437 100.478 139.437 100.724 139.682C101.312 140.271 101.643 141.07 101.643 141.904C101.643 142.737 101.312 143.536 100.724 144.125L98.4988 146.35C97.9093 146.939 97.1103 147.269 96.2772 147.269C95.4441 147.269 94.6451 146.939 94.0556 146.35C93.467 145.76 93.1364 144.961 93.1364 144.128C93.1364 143.295 93.467 142.496 94.0556 141.907L94.992 140.97C94.9857 141.486 95.0674 142.001 95.2434 142.497L94.948 142.793C94.7718 142.967 94.632 143.175 94.5365 143.403C94.441 143.632 94.3919 143.877 94.3919 144.125C94.3919 144.373 94.441 144.618 94.5365 144.847C94.632 145.076 94.7718 145.283 94.948 145.457C95.1223 145.634 95.3298 145.774 95.5585 145.869C95.7872 145.964 96.0325 146.014 96.2803 146.014C96.5282 146.014 96.7735 145.964 97.0022 145.869C97.2309 145.774 97.4384 145.634 97.6127 145.457L99.8311 143.239C100.007 143.065 100.147 142.857 100.243 142.629C100.338 142.4 100.387 142.155 100.387 141.907C100.387 141.659 100.338 141.414 100.243 141.185C100.147 140.956 100.007 140.749 99.8311 140.574C99.7701 140.517 99.7214 140.448 99.6882 140.371C99.6549 140.295 99.6378 140.212 99.6378 140.128C99.6378 140.045 99.6549 139.962 99.6882 139.885C99.7214 139.808 99.7701 139.739 99.8311 139.682Z" fill="white"/>
</g>
<defs>
<filter id="filter0_d_2680_52444" x="48.0119" y="22.3102" width="246.356" height="167.17" filterUnits="userSpaceOnUse" color-interpolation-filters="sRGB">
<feFlood flood-opacity="0" result="BackgroundImageFix"/>
<feColorMatrix in="SourceAlpha" type="matrix" values="0 0 0 0 0 0 0 0 0 0 0 0 0 0 0 0 0 0 127 0" result="hardAlpha"/>
<feOffset/>
<feGaussianBlur stdDeviation="6.28458"/>
<feComposite in2="hardAlpha" operator="out"/>
<feColorMatrix type="matrix" values="0 0 0 0 0 0 0 0 0 0 0 0 0 0 0 0 0 0 0.2 0"/>
<feBlend mode="normal" in2="BackgroundImageFix" result="effect1_dropShadow_2680_52444"/>
<feBlend mode="normal" in="SourceGraphic" in2="effect1_dropShadow_2680_52444" result="shape"/>
</filter>
<filter id="filter1_d_2680_52444" x="-7.2925" y="61.9032" width="351.308" height="45.2491" filterUnits="userSpaceOnUse" color-interpolation-filters="sRGB">
<feFlood flood-opacity="0" result="BackgroundImageFix"/>
<feColorMatrix in="SourceAlpha" type="matrix" values="0 0 0 0 0 0 0 0 0 0 0 0 0 0 0 0 0 0 127 0" result="hardAlpha"/>
<feOffset dy="0.628458"/>
<feGaussianBlur stdDeviation="5.3419"/>
<feComposite in2="hardAlpha" operator="out"/>
<feColorMatrix type="matrix" values="0 0 0 0 0 0 0 0 0 0 0 0 0 0 0 0 0 0 0.14 0"/>
<feBlend mode="normal" in2="BackgroundImageFix" result="effect1_dropShadow_2680_52444"/>
<feBlend mode="normal" in="SourceGraphic" in2="effect1_dropShadow_2680_52444" result="shape"/>
</filter>
<clipPath id="clip0_2680_52444">
<rect width="336" height="212" fill="white"/>
</clipPath>
</defs>
</svg>
