<svg width="115" height="115" viewBox="0 0 115 115" fill="none" xmlns="http://www.w3.org/2000/svg">
<circle cx="57.5" cy="57.5" r="55" stroke="#1E75BA" stroke-width="5"/>
<path d="M78 81.5V76.5C78 73.8478 76.9464 71.3043 75.0711 69.4289C73.1957 67.5536 70.6522 66.5 68 66.5H48C45.3478 66.5 42.8043 67.5536 40.9289 69.4289C39.0536 71.3043 38 73.8478 38 76.5V81.5" stroke="#1E75BA" stroke-width="4.83333" stroke-linecap="round" stroke-linejoin="round"/>
<path d="M58 56.5C63.5228 56.5 68 52.0228 68 46.5C68 40.9772 63.5228 36.5 58 36.5C52.4772 36.5 48 40.9772 48 46.5C48 52.0228 52.4772 56.5 58 56.5Z" stroke="#1E75BA" stroke-width="4.83333" stroke-linecap="round" stroke-linejoin="round"/>
</svg>
