<svg width="21" height="18" viewBox="0 0 21 18" fill="none" xmlns="http://www.w3.org/2000/svg">
<path d="M18.2379 4.81892C18.2509 4.99692 18.2509 5.17492 18.2509 5.35292C18.2611 6.88922 17.9659 8.41223 17.3825 9.83352C16.7992 11.2548 15.9394 12.5461 14.8529 13.6323C13.7665 14.7186 12.4751 15.5782 11.0537 16.1613C9.63231 16.7444 8.10925 17.0393 6.57295 17.0289C4.33921 17.0336 2.1516 16.3933 0.272949 15.1849C0.602006 15.2212 0.932904 15.2383 1.26395 15.2359C3.11077 15.2413 4.90558 14.6244 6.35895 13.4849C5.50261 13.4693 4.67253 13.1867 3.98462 12.6765C3.29672 12.1662 2.78535 11.4539 2.52195 10.6389C2.77831 10.6797 3.03738 10.7011 3.29695 10.7029C3.6614 10.7018 4.02426 10.6547 4.37695 10.5629C3.44699 10.3757 2.61071 9.87189 2.01061 9.13722C1.41051 8.40255 1.08373 7.48252 1.08595 6.53392V6.48492C1.6546 6.8023 2.2902 6.98082 2.94095 7.00592C2.06973 6.42455 1.45333 5.53249 1.21767 4.51196C0.982003 3.49143 1.14485 2.41942 1.67295 1.51492C2.70338 2.78345 3.98887 3.8213 5.4461 4.56119C6.90333 5.30109 8.49977 5.72652 10.1319 5.80992C10.0667 5.50081 10.0331 5.18584 10.0319 4.86992C10.0333 4.04735 10.2816 3.24414 10.7447 2.56428C11.2077 1.88442 11.8642 1.35923 12.6291 1.05671C13.394 0.754189 14.2322 0.688271 15.035 0.867489C15.8378 1.04671 16.5683 1.46281 17.1319 2.06192C18.0494 1.88442 18.9291 1.54911 19.7319 1.07092C19.427 2.01875 18.7871 2.82295 17.9319 3.33292C18.7469 3.24022 19.5433 3.02619 20.2949 2.69792C19.7332 3.51597 19.0374 4.23337 18.2369 4.81992L18.2379 4.81892Z" fill="#D5D9DC"/>
</svg>
