<svg width="24" height="24" viewBox="0 0 24 24" fill="none" xmlns="http://www.w3.org/2000/svg">
<path d="M19.1955 16.0307C19.3965 15.5454 19.5 15.0253 19.5 14.5H15.5V18.5C16.0253 18.5 16.5454 18.3965 17.0307 18.1955C17.516 17.9945 17.957 17.6999 18.3284 17.3284C18.6999 16.957 18.9945 16.516 19.1955 16.0307Z" fill="#5D6164"/>
<path d="M12 7C12 7.55229 11.5523 8 11 8C10.4477 8 10 7.55229 10 7C10 6.44772 10.4477 6 11 6C11.5523 6 12 6.44772 12 7Z" fill="#5D6164"/>
<path fill-rule="evenodd" clip-rule="evenodd" d="M14 22.8563L13.1402 22.9416C12.9035 22.966 12.6645 22.9829 12.4235 22.992C12.283 22.9973 12.1418 23 12 23C5.92487 23 1 18.0751 1 12C1 5.92487 5.92487 1 12 1C12.7761 1 13.5334 1.08037 14.2641 1.23325L15 1.38263V1.41406C19.617 2.71992 23 6.96489 23 12C23 17.3921 19.1202 21.8781 14 22.8186V22.8563ZM21 12C21 16.2832 18.008 19.8675 14 20.777V18C14 16.8954 13.1046 16 12 16C10.1362 16 8.57006 14.7252 8.12602 13H13C14.0992 13 15 12.114 15 11.0041V3.51212C18.4956 4.74763 21 8.08134 21 12ZM3 12C3 16.9706 7.02944 21 12 21V18C8.68629 18 6 15.3137 6 12V11H13V3.05493C12.7471 3.02697 12.4911 3.0095 12.2323 3.00294C12.1551 3.00098 12.0777 3 12 3C7.02944 3 3 7.02944 3 12Z" fill="#5D6164"/>
</svg>
