<svg width="134" height="58" viewBox="0 0 134 58" fill="none" xmlns="http://www.w3.org/2000/svg">
<path d="M31.5407 30.8593L37.4521 10.1271H102.103L96.1915 30.8593H31.5407Z" fill="#F2CA55"/>
<path d="M68.1492 25.3441L69.3388 16.8225H70.8944L69.8993 23.9715H73.5481L73.3537 25.3441H68.1492ZM74.2341 25.3441L75.1034 19.1216H76.6133L75.744 25.3441H74.2341ZM75.1949 18.4239L75.4237 16.8225H76.9336L76.7162 18.4239H75.1949ZM79.0028 25.3441L77.4358 19.1216H79.0028L80.1009 24.0173H79.4718L81.9425 19.1216H83.6583L80.3297 25.3441H79.0028ZM86.7197 25.4814C86.1096 25.4814 85.5758 25.3479 85.1183 25.081C84.6684 24.8141 84.3176 24.4519 84.066 23.9944C83.8219 23.5292 83.6999 23.0107 83.6999 22.4388C83.6999 21.966 83.78 21.5237 83.9401 21.1119C84.1079 20.6925 84.3405 20.3226 84.6379 20.0024C84.9429 19.6821 85.2937 19.4343 85.6902 19.2589C86.0867 19.0759 86.5214 18.9843 86.9942 18.9843C87.6042 18.9843 88.1228 19.1102 88.5498 19.3618C88.9769 19.6135 89.3009 19.9528 89.5221 20.3798C89.7432 20.7992 89.8538 21.272 89.8538 21.7982C89.8538 21.9355 89.8424 22.0765 89.8195 22.2214C89.7966 22.3663 89.7661 22.5112 89.728 22.6561H84.9238L85.0039 21.5122H88.9502L88.2067 22.027C88.3058 21.6838 88.3134 21.3788 88.2295 21.1119C88.1533 20.8374 88.0046 20.62 87.7834 20.4599C87.5699 20.2998 87.303 20.2197 86.9828 20.2197C86.5633 20.2197 86.224 20.3226 85.9647 20.5285C85.7131 20.7344 85.5263 21.0166 85.4043 21.375C85.2899 21.7258 85.2327 22.1185 85.2327 22.5531C85.2327 22.8887 85.2937 23.1784 85.4157 23.4225C85.5453 23.6665 85.7245 23.8533 85.9533 23.9829C86.1821 24.105 86.449 24.166 86.754 24.166C87.0971 24.166 87.3984 24.0897 87.6576 23.9372C87.9169 23.7847 88.1228 23.5902 88.2753 23.3538L89.4649 23.9715C89.32 24.2689 89.1103 24.532 88.8358 24.7608C88.5689 24.9895 88.2524 25.1687 87.8864 25.2984C87.528 25.4204 87.1391 25.4814 86.7197 25.4814Z" fill="#212528"/>
<path d="M25.5832 51.5914L31.5017 30.8592H133.765L127.846 51.5914H25.5832Z" fill="#212528"/>
<path d="M68.4285 45.3614L67.3304 36.8398H68.9661L69.7439 44.1032H69.252L72.2375 36.8398H73.7817L74.7082 44.1032H74.1591L77.053 36.8398H78.7459L75.2801 45.3614H73.4843L72.5921 38.2925H73.0953L70.2129 45.3614H68.4285ZM78.5004 45.3614L79.69 36.8398H85.3634L85.169 38.2124H81.0511L80.7537 40.3971H84.6314L84.4484 41.7697H80.5593L80.2504 43.9888H84.3568L84.1738 45.3614H78.5004ZM85.3031 45.3614L86.4927 36.8398H89.9357C90.7211 36.8398 91.3274 37.0266 91.7544 37.4003C92.1891 37.7663 92.4064 38.281 92.4064 38.9445C92.4064 39.2495 92.3568 39.5354 92.2577 39.8023C92.1662 40.0616 92.0251 40.2942 91.8345 40.5001C91.6514 40.706 91.4189 40.8852 91.1367 41.0377L91.0338 40.4886C91.5294 40.7022 91.8764 40.9843 92.0747 41.3351C92.2806 41.6782 92.3835 42.0481 92.3835 42.4446C92.3835 43.0394 92.2462 43.558 91.9717 44.0002C91.7048 44.4349 91.3197 44.7704 90.8164 45.0068C90.3208 45.2432 89.7336 45.3614 89.0549 45.3614H85.3031ZM87.0532 43.9888H89.3523C89.6421 43.9888 89.8976 43.9316 90.1187 43.8172C90.3398 43.6952 90.5114 43.5275 90.6334 43.3139C90.7554 43.1004 90.8164 42.8602 90.8164 42.5933C90.8164 42.2654 90.7059 42.0023 90.4847 41.8041C90.2712 41.6058 89.9814 41.5067 89.6154 41.5067H87.3963L87.0532 43.9888ZM87.5908 40.1455H89.6726C89.9014 40.1455 90.1034 40.0959 90.2788 39.9968C90.4542 39.8977 90.5915 39.7642 90.6906 39.5964C90.7897 39.4287 90.8393 39.2342 90.8393 39.0131C90.8393 38.7538 90.7516 38.5479 90.5762 38.3954C90.4085 38.2429 90.1759 38.1666 89.8785 38.1666H87.8653L87.5908 40.1455ZM93.2787 45.3614L94.4683 36.8398H96.024L94.8344 45.3614H93.2787ZM96.4846 45.3614L97.6742 36.8398H98.8981L102.593 43.1538L102.044 43.2796L102.947 36.8398H104.503L103.313 45.3614H102.089L98.4406 39.0016L98.9439 38.8758L98.0403 45.3614H96.4846ZM104.265 45.3614L108.394 36.8398H110.408L112.158 45.3614H110.533L110.179 43.5313H106.896L106.027 45.3614H104.265ZM107.537 42.1587H109.916L109.104 37.9379L109.527 37.9836L107.537 42.1587ZM113.106 45.3614L114.296 36.8398H117.35C117.891 36.8398 118.364 36.9389 118.768 37.1372C119.172 37.3354 119.485 37.6252 119.706 38.0065C119.935 38.3802 120.049 38.8415 120.049 39.3906C120.049 39.8023 119.977 40.1798 119.832 40.523C119.687 40.8661 119.477 41.1635 119.203 41.4152C118.928 41.6668 118.597 41.8613 118.208 41.9985L119.649 45.3614H117.979L116.4 41.5867L117.338 42.2158H115.108L114.662 45.3614H113.106ZM115.302 40.8432H116.961C117.258 40.8432 117.521 40.7822 117.75 40.6602C117.979 40.5306 118.158 40.3552 118.288 40.1341C118.417 39.9129 118.482 39.6613 118.482 39.3791C118.482 39.0207 118.368 38.7386 118.139 38.5327C117.918 38.3192 117.613 38.2124 117.224 38.2124H115.657L115.302 40.8432Z" fill="white"/>
<rect width="58" height="58" rx="29" fill="white"/>
<path d="M8.16667 16.5C8.16667 13.0482 10.9649 10.25 14.4167 10.25H43.5833C47.0351 10.25 49.8333 13.0482 49.8333 16.5V35.25C49.8333 38.7018 47.0351 41.5 43.5833 41.5H14.4167C10.9649 41.5 8.16667 38.7018 8.16667 35.25V16.5Z" fill="#F2CA55"/>
<path fill-rule="evenodd" clip-rule="evenodd" d="M24.5209 26.9167C24.5209 29.3904 26.5263 31.3958 29.0001 31.3958C31.4738 31.3958 33.4792 29.3904 33.4792 26.9167H37.0209C37.0209 31.3464 33.4298 34.9375 29.0001 34.9375C24.5703 34.9375 20.9792 31.3464 20.9792 26.9167H24.5209Z" fill="#8C5D00"/>
<path fill-rule="evenodd" clip-rule="evenodd" d="M23.0626 22.75V17.5417H26.6042V22.75H23.0626ZM31.3959 22.75V17.5417H34.9376V22.75H31.3959Z" fill="#8C5D00"/>
<path d="M33.1667 41.5V47.75L24.8333 41.5H33.1667Z" fill="#8C5D00"/>
</svg>
