<svg width="360" height="622" viewBox="0 0 360 622" fill="none" xmlns="http://www.w3.org/2000/svg">
<rect x="24" y="24" width="40" height="40" rx="20" fill="#F2F2F3"/>
<rect x="24" y="80" width="231" height="16" fill="#F2F2F3"/>
<rect x="24" y="112" width="306" height="16" fill="#F2F2F3"/>
<rect x="24" y="144" width="230" height="230" fill="#F2F2F3"/>
<rect x="24" y="390" width="306" height="16" fill="#F2F2F3"/>
<rect x="24" y="422" width="166" height="16" fill="#F2F2F3"/>
<rect x="24" y="454" width="312" height="52" rx="8" fill="#F2F2F3"/>
<path d="M25.0705 536V527.273H28.0194C28.704 527.273 29.2637 527.396 29.6983 527.643C30.1358 527.888 30.4597 528.219 30.6699 528.636C30.8801 529.054 30.9853 529.52 30.9853 530.034C30.9853 530.548 30.8801 531.016 30.6699 531.436C30.4625 531.857 30.1415 532.192 29.7069 532.442C29.2722 532.689 28.7154 532.812 28.0364 532.812H25.9228V531.875H28.0023C28.4711 531.875 28.8475 531.794 29.1316 531.632C29.4157 531.47 29.6216 531.251 29.7495 530.976C29.8801 530.697 29.9455 530.384 29.9455 530.034C29.9455 529.685 29.8801 529.372 29.7495 529.097C29.6216 528.821 29.4142 528.605 29.1273 528.449C28.8404 528.29 28.4597 528.21 27.9853 528.21H26.1273V536H25.0705ZM35.1401 536.136C34.5492 536.136 34.0307 535.996 33.5847 535.714C33.1415 535.433 32.7949 535.04 32.5449 534.534C32.2978 534.028 32.1742 533.437 32.1742 532.761C32.1742 532.08 32.2978 531.484 32.5449 530.976C32.7949 530.467 33.1415 530.072 33.5847 529.791C34.0307 529.51 34.5492 529.369 35.1401 529.369C35.731 529.369 36.248 529.51 36.6912 529.791C37.1373 530.072 37.4838 530.467 37.731 530.976C37.981 531.484 38.106 532.08 38.106 532.761C38.106 533.437 37.981 534.028 37.731 534.534C37.4838 535.04 37.1373 535.433 36.6912 535.714C36.248 535.996 35.731 536.136 35.1401 536.136ZM35.1401 535.233C35.589 535.233 35.9583 535.118 36.248 534.888C36.5378 534.658 36.7523 534.355 36.8915 533.98C37.0307 533.605 37.1003 533.199 37.1003 532.761C37.1003 532.324 37.0307 531.916 36.8915 531.538C36.7523 531.161 36.5378 530.855 36.248 530.622C35.9583 530.389 35.589 530.273 35.1401 530.273C34.6912 530.273 34.3219 530.389 34.0321 530.622C33.7424 530.855 33.5279 531.161 33.3887 531.538C33.2495 531.916 33.1799 532.324 33.1799 532.761C33.1799 533.199 33.2495 533.605 33.3887 533.98C33.5279 534.355 33.7424 534.658 34.0321 534.888C34.3219 535.118 34.6912 535.233 35.1401 535.233ZM40.9015 536L38.9071 529.455H39.964L41.3787 534.466H41.4469L42.8446 529.455H43.9185L45.2992 534.449H45.3674L46.7821 529.455H47.839L45.8446 536H44.856L43.4242 530.972H43.3219L41.8901 536H40.9015ZM51.6902 536.136C51.0595 536.136 50.5154 535.997 50.0581 535.719C49.6035 535.438 49.2527 535.045 49.0055 534.543C48.7612 534.037 48.639 533.449 48.639 532.778C48.639 532.108 48.7612 531.517 49.0055 531.006C49.2527 530.491 49.5964 530.091 50.0368 529.804C50.4799 529.514 50.997 529.369 51.5879 529.369C51.9288 529.369 52.2654 529.426 52.5978 529.54C52.9302 529.653 53.2328 529.838 53.5055 530.094C53.7782 530.347 53.9956 530.682 54.1575 531.099C54.3194 531.517 54.4004 532.031 54.4004 532.642V533.068H49.3549V532.199H53.3777C53.3777 531.83 53.3038 531.5 53.1561 531.21C53.0112 530.92 52.8038 530.692 52.5339 530.524C52.2669 530.357 51.9515 530.273 51.5879 530.273C51.1873 530.273 50.8407 530.372 50.5481 530.571C50.2583 530.767 50.0353 531.023 49.8791 531.338C49.7228 531.653 49.6447 531.991 49.6447 532.352V532.932C49.6447 533.426 49.7299 533.845 49.9004 534.189C50.0737 534.53 50.3137 534.79 50.6206 534.969C50.9274 535.145 51.2839 535.233 51.6902 535.233C51.9544 535.233 52.193 535.196 52.4061 535.122C52.622 535.045 52.8081 534.932 52.9643 534.781C53.1206 534.628 53.2413 534.437 53.3265 534.21L54.2981 534.483C54.1958 534.812 54.024 535.102 53.7825 535.352C53.541 535.599 53.2427 535.793 52.8876 535.932C52.5325 536.068 52.1333 536.136 51.6902 536.136ZM55.9302 536V529.455H56.9018V530.443H56.97C57.0893 530.119 57.3052 529.857 57.6177 529.655C57.9302 529.453 58.2825 529.352 58.6745 529.352C58.7484 529.352 58.8407 529.354 58.9515 529.357C59.0623 529.359 59.1461 529.364 59.2029 529.369V530.392C59.1689 530.384 59.0907 530.371 58.9686 530.354C58.8493 530.334 58.7228 530.324 58.5893 530.324C58.2711 530.324 57.987 530.391 57.737 530.524C57.4899 530.655 57.2939 530.837 57.149 531.07C57.0069 531.3 56.9359 531.562 56.9359 531.858V536H55.9302ZM62.9402 536.136C62.3095 536.136 61.7654 535.997 61.3081 535.719C60.8535 535.438 60.5027 535.045 60.2555 534.543C60.0112 534.037 59.889 533.449 59.889 532.778C59.889 532.108 60.0112 531.517 60.2555 531.006C60.5027 530.491 60.8464 530.091 61.2868 529.804C61.7299 529.514 62.247 529.369 62.8379 529.369C63.1788 529.369 63.5154 529.426 63.8478 529.54C64.1802 529.653 64.4828 529.838 64.7555 530.094C65.0282 530.347 65.2456 530.682 65.4075 531.099C65.5694 531.517 65.6504 532.031 65.6504 532.642V533.068H60.6049V532.199H64.6277C64.6277 531.83 64.5538 531.5 64.4061 531.21C64.2612 530.92 64.0538 530.692 63.7839 530.524C63.5169 530.357 63.2015 530.273 62.8379 530.273C62.4373 530.273 62.0907 530.372 61.7981 530.571C61.5083 530.767 61.2853 531.023 61.1291 531.338C60.9728 531.653 60.8947 531.991 60.8947 532.352V532.932C60.8947 533.426 60.9799 533.845 61.1504 534.189C61.3237 534.53 61.5637 534.79 61.8706 534.969C62.1774 535.145 62.5339 535.233 62.9402 535.233C63.2044 535.233 63.443 535.196 63.6561 535.122C63.872 535.045 64.0581 534.932 64.2143 534.781C64.3706 534.628 64.4913 534.437 64.5765 534.21L65.5481 534.483C65.4458 534.812 65.274 535.102 65.0325 535.352C64.791 535.599 64.4927 535.793 64.1376 535.932C63.7825 536.068 63.3833 536.136 62.9402 536.136ZM69.6518 536.136C69.1064 536.136 68.6248 535.999 68.2072 535.723C67.7896 535.445 67.4629 535.053 67.2271 534.547C66.9913 534.038 66.8734 533.438 66.8734 532.744C66.8734 532.057 66.9913 531.46 67.2271 530.955C67.4629 530.449 67.791 530.058 68.2115 529.783C68.6319 529.507 69.1177 529.369 69.6689 529.369C70.095 529.369 70.4316 529.44 70.6788 529.582C70.9288 529.722 71.1191 529.881 71.2498 530.06C71.3833 530.236 71.487 530.381 71.5609 530.494H71.6461V527.273H72.6518V536H71.6802V534.994H71.5609C71.487 535.114 71.3819 535.264 71.2456 535.446C71.1092 535.625 70.9146 535.786 70.6618 535.928C70.4089 536.067 70.0723 536.136 69.6518 536.136ZM69.7882 535.233C70.1916 535.233 70.5325 535.128 70.8109 534.918C71.0893 534.705 71.301 534.411 71.4458 534.036C71.5907 533.658 71.6632 533.222 71.6632 532.727C71.6632 532.239 71.5922 531.811 71.4501 531.445C71.3081 531.075 71.0978 530.788 70.8194 530.584C70.541 530.376 70.1973 530.273 69.7882 530.273C69.362 530.273 69.0069 530.382 68.7228 530.601C68.4416 530.817 68.2299 531.111 68.0879 531.483C67.9487 531.852 67.8791 532.267 67.8791 532.727C67.8791 533.193 67.9501 533.616 68.0922 533.997C68.237 534.375 68.4501 534.676 68.7314 534.901C69.0154 535.122 69.3677 535.233 69.7882 535.233ZM78.1447 536V527.273H79.1504V530.494H79.2356C79.3095 530.381 79.4118 530.236 79.5424 530.06C79.676 529.881 79.8663 529.722 80.1135 529.582C80.3635 529.44 80.7015 529.369 81.1277 529.369C81.6788 529.369 82.1646 529.507 82.585 529.783C83.0055 530.058 83.3336 530.449 83.5694 530.955C83.8052 531.46 83.9231 532.057 83.9231 532.744C83.9231 533.438 83.8052 534.038 83.5694 534.547C83.3336 535.053 83.0069 535.445 82.5893 535.723C82.1717 535.999 81.6902 536.136 81.1447 536.136C80.7243 536.136 80.3876 536.067 80.1348 535.928C79.8819 535.786 79.6873 535.625 79.551 535.446C79.4146 535.264 79.3095 535.114 79.2356 534.994H79.1163V536H78.1447ZM79.1333 532.727C79.1333 533.222 79.2058 533.658 79.3507 534.036C79.4956 534.411 79.7072 534.705 79.9856 534.918C80.264 535.128 80.6049 535.233 81.0083 535.233C81.4288 535.233 81.7797 535.122 82.0609 534.901C82.345 534.676 82.5581 534.375 82.7001 533.997C82.845 533.616 82.9174 533.193 82.9174 532.727C82.9174 532.267 82.8464 531.852 82.7044 531.483C82.5652 531.111 82.3535 530.817 82.0694 530.601C81.7882 530.382 81.4345 530.273 81.0083 530.273C80.5993 530.273 80.2555 530.376 79.9771 530.584C79.6987 530.788 79.4885 531.075 79.3464 531.445C79.2044 531.811 79.1333 532.239 79.1333 532.727ZM85.8748 538.455C85.7044 538.455 85.5524 538.44 85.4189 538.412C85.2853 538.386 85.193 538.361 85.1419 538.335L85.3975 537.449C85.6419 537.511 85.8578 537.534 86.0453 537.517C86.2328 537.5 86.399 537.416 86.5439 537.266C86.6916 537.118 86.8265 536.878 86.9487 536.545L87.1362 536.034L84.7157 529.455H85.8066L87.6135 534.67H87.6816L89.4885 529.455H90.5794L87.801 536.955C87.676 537.293 87.5211 537.572 87.3365 537.794C87.1518 538.018 86.9373 538.185 86.693 538.293C86.4515 538.401 86.1788 538.455 85.8748 538.455Z" fill="#3F4346"/>
<path fill-rule="evenodd" clip-rule="evenodd" d="M96.7411 530.265L113.227 524.505C113.25 524.497 113.275 524.499 113.297 524.509C113.318 524.52 113.335 524.539 113.343 524.562C113.347 524.572 113.348 524.582 113.348 524.593V539.407C113.348 539.432 113.339 539.455 113.321 539.473C113.304 539.49 113.28 539.5 113.255 539.5H113.243L96.7552 538.696C96.7313 538.695 96.7089 538.684 96.6925 538.667C96.6761 538.65 96.6669 538.627 96.667 538.603V530.356C96.667 530.335 96.6744 530.314 96.6879 530.298C96.7014 530.281 96.7202 530.27 96.7411 530.265ZM98.541 531.852C98.4594 531.836 98.3749 531.852 98.3041 531.895C98.2332 531.938 98.1811 532.007 98.1579 532.086C98.1348 532.166 98.1422 532.252 98.1788 532.326C98.2154 532.401 98.2785 532.459 98.3557 532.49L104.379 534.231L104.513 534.12L110.511 529.172C110.55 529.146 110.583 529.112 110.608 529.073C110.633 529.033 110.649 528.989 110.656 528.943C110.663 528.897 110.66 528.85 110.647 528.805C110.635 528.76 110.613 528.718 110.584 528.682C110.554 528.647 110.517 528.617 110.476 528.596C110.434 528.575 110.388 528.563 110.342 528.561C110.295 528.559 110.249 528.567 110.205 528.584C110.162 528.6 110.122 528.626 110.09 528.659L104.227 533.498L98.541 531.852Z" fill="#1E75BA"/>
<path d="M119.588 527.273H120.849L123.815 534.517H123.918L126.884 527.273H128.145V536H127.156V529.369H127.071L124.344 536H123.389L120.662 529.369H120.577V536H119.588V527.273ZM135.037 529.455C134.985 529.023 134.778 528.688 134.414 528.449C134.051 528.21 133.605 528.091 133.076 528.091C132.69 528.091 132.352 528.153 132.062 528.278C131.775 528.403 131.551 528.575 131.389 528.794C131.23 529.013 131.15 529.261 131.15 529.54C131.15 529.773 131.206 529.973 131.316 530.141C131.43 530.305 131.575 530.443 131.751 530.554C131.927 530.662 132.112 530.751 132.305 530.822C132.498 530.891 132.676 530.946 132.838 530.989L133.724 531.227C133.951 531.287 134.204 531.369 134.483 531.474C134.764 531.58 135.032 531.723 135.288 531.905C135.547 532.084 135.76 532.314 135.927 532.595C136.095 532.876 136.179 533.222 136.179 533.631C136.179 534.102 136.055 534.528 135.808 534.909C135.564 535.29 135.206 535.592 134.734 535.817C134.265 536.041 133.696 536.153 133.025 536.153C132.4 536.153 131.859 536.053 131.402 535.851C130.947 535.649 130.589 535.368 130.328 535.007C130.069 534.646 129.923 534.227 129.889 533.75H130.98C131.008 534.08 131.119 534.352 131.312 534.568C131.508 534.781 131.755 534.94 132.054 535.045C132.355 535.148 132.679 535.199 133.025 535.199C133.429 535.199 133.791 535.134 134.112 535.003C134.433 534.869 134.687 534.685 134.875 534.449C135.062 534.21 135.156 533.932 135.156 533.614C135.156 533.324 135.075 533.088 134.913 532.906C134.751 532.724 134.538 532.577 134.274 532.463C134.01 532.349 133.724 532.25 133.417 532.165L132.343 531.858C131.662 531.662 131.122 531.382 130.724 531.018C130.326 530.655 130.127 530.179 130.127 529.591C130.127 529.102 130.26 528.676 130.524 528.312C130.791 527.946 131.149 527.662 131.598 527.46C132.049 527.256 132.554 527.153 133.11 527.153C133.673 527.153 134.173 527.254 134.61 527.456C135.048 527.655 135.395 527.928 135.65 528.274C135.909 528.621 136.045 529.014 136.059 529.455H135.037ZM143.882 530C143.788 529.713 143.665 529.456 143.511 529.229C143.361 528.999 143.18 528.803 142.97 528.641C142.763 528.479 142.527 528.355 142.263 528.27C141.999 528.185 141.709 528.142 141.393 528.142C140.876 528.142 140.406 528.276 139.983 528.543C139.56 528.81 139.223 529.203 138.973 529.723C138.723 530.243 138.598 530.881 138.598 531.636C138.598 532.392 138.724 533.03 138.977 533.55C139.23 534.07 139.572 534.463 140.004 534.73C140.436 534.997 140.922 535.131 141.462 535.131C141.962 535.131 142.402 535.024 142.783 534.811C143.166 534.595 143.464 534.291 143.678 533.899C143.893 533.504 144.001 533.04 144.001 532.506L144.325 532.574H141.7V531.636H145.024V532.574C145.024 533.293 144.871 533.918 144.564 534.449C144.26 534.98 143.839 535.392 143.303 535.685C142.768 535.974 142.155 536.119 141.462 536.119C140.689 536.119 140.01 535.938 139.425 535.574C138.842 535.21 138.388 534.693 138.061 534.023C137.737 533.352 137.575 532.557 137.575 531.636C137.575 530.946 137.668 530.325 137.852 529.774C138.04 529.22 138.304 528.749 138.645 528.359C138.986 527.97 139.389 527.672 139.855 527.464C140.321 527.257 140.834 527.153 141.393 527.153C141.854 527.153 142.283 527.223 142.68 527.362C143.081 527.499 143.438 527.693 143.75 527.946C144.065 528.196 144.328 528.496 144.538 528.845C144.749 529.192 144.893 529.577 144.973 530H143.882ZM149.459 527.153C149.817 527.156 150.175 527.224 150.533 527.358C150.891 527.491 151.218 527.713 151.513 528.023C151.809 528.33 152.046 528.749 152.225 529.28C152.404 529.811 152.493 530.477 152.493 531.278C152.493 532.054 152.419 532.743 152.272 533.345C152.127 533.945 151.917 534.45 151.641 534.862C151.368 535.274 151.036 535.587 150.644 535.8C150.255 536.013 149.814 536.119 149.323 536.119C148.834 536.119 148.398 536.023 148.015 535.83C147.634 535.634 147.321 535.362 147.077 535.016C146.836 534.666 146.681 534.261 146.613 533.801H147.652C147.746 534.202 147.932 534.533 148.211 534.794C148.492 535.053 148.863 535.182 149.323 535.182C149.996 535.182 150.527 534.888 150.917 534.3C151.309 533.712 151.505 532.881 151.505 531.807H151.436C151.277 532.045 151.088 532.251 150.87 532.425C150.651 532.598 150.408 532.732 150.141 532.825C149.874 532.919 149.59 532.966 149.289 532.966C148.789 532.966 148.33 532.842 147.912 532.595C147.498 532.345 147.165 532.003 146.915 531.568C146.668 531.131 146.544 530.631 146.544 530.068C146.544 529.534 146.664 529.045 146.902 528.602C147.144 528.156 147.482 527.801 147.917 527.537C148.354 527.273 148.868 527.145 149.459 527.153ZM149.459 528.091C149.101 528.091 148.779 528.18 148.492 528.359C148.208 528.536 147.982 528.774 147.814 529.075C147.65 529.374 147.567 529.705 147.567 530.068C147.567 530.432 147.647 530.763 147.806 531.061C147.968 531.357 148.188 531.592 148.466 531.768C148.748 531.942 149.067 532.028 149.425 532.028C149.695 532.028 149.946 531.976 150.179 531.871C150.412 531.763 150.615 531.616 150.789 531.432C150.965 531.244 151.103 531.033 151.202 530.797C151.301 530.558 151.351 530.31 151.351 530.051C151.351 529.71 151.269 529.391 151.104 529.092C150.942 528.794 150.718 528.553 150.431 528.368C150.147 528.183 149.823 528.091 149.459 528.091ZM157.237 527.273V536H156.18V528.381H156.129L153.999 529.795V528.722L156.18 527.273H157.237Z" fill="#3F4346"/>
<rect x="1" y="1" width="358" height="564" rx="23" stroke="#212528" stroke-width="2"/>
<rect x="320" y="582" width="40" height="40" rx="20" fill="#25D366"/>
<g clip-path="url(#clip0_4030_3712)">
<path fill-rule="evenodd" clip-rule="evenodd" d="M348.503 593.485C346.247 591.239 343.247 590.001 340.05 590C333.463 590 328.103 595.331 328.1 601.883C328.099 603.978 328.65 606.022 329.695 607.824L328 613.982L334.335 612.33C336.08 613.277 338.046 613.776 340.045 613.776H340.05C346.636 613.776 351.998 608.445 352 601.893C352.001 598.717 350.759 595.732 348.503 593.486V593.485ZM340.05 611.769H340.046C338.264 611.769 336.516 611.292 334.991 610.393L334.628 610.178L330.869 611.159L331.872 607.514L331.636 607.14C330.642 605.567 330.117 603.75 330.118 601.884C330.12 596.438 334.576 592.007 340.054 592.007C342.707 592.008 345.201 593.037 347.076 594.904C348.952 596.771 349.984 599.253 349.983 601.892C349.98 607.338 345.525 611.769 340.05 611.769V611.769ZM345.498 604.372C345.2 604.223 343.732 603.505 343.458 603.406C343.184 603.307 342.985 603.257 342.786 603.555C342.588 603.852 342.015 604.521 341.841 604.719C341.667 604.917 341.493 604.942 341.194 604.793C340.896 604.644 339.934 604.331 338.793 603.319C337.905 602.532 337.306 601.56 337.132 601.262C336.957 600.965 337.113 600.804 337.262 600.657C337.396 600.523 337.561 600.31 337.71 600.136C337.86 599.963 337.909 599.839 338.009 599.641C338.109 599.443 338.059 599.27 337.984 599.121C337.91 598.972 337.313 597.511 337.063 596.916C336.821 596.338 336.575 596.416 336.392 596.406C336.218 596.398 336.019 596.396 335.82 596.396C335.62 596.396 335.297 596.47 335.023 596.768C334.749 597.065 333.978 597.784 333.978 599.245C333.978 600.706 335.048 602.118 335.197 602.317C335.347 602.515 337.303 605.514 340.298 606.801C341.01 607.106 341.567 607.289 342 607.426C342.715 607.652 343.366 607.621 343.881 607.544C344.454 607.459 345.647 606.826 345.896 606.132C346.145 605.439 346.145 604.844 346.07 604.72C345.996 604.596 345.796 604.522 345.498 604.373L345.498 604.372Z" fill="white"/>
</g>
<defs>
<clipPath id="clip0_4030_3712">
<rect width="24" height="24" fill="white" transform="translate(328 590)"/>
</clipPath>
</defs>
</svg>
