<svg width="360" height="622" viewBox="0 0 360 622" fill="none" xmlns="http://www.w3.org/2000/svg">
<rect x="24" y="24" width="40" height="40" rx="20" fill="#F2F2F3"/>
<rect x="24" y="80" width="231" height="16" fill="#F2F2F3"/>
<rect x="24" y="112" width="306" height="16" fill="#F2F2F3"/>
<rect x="24" y="144" width="230" height="230" fill="#F2F2F3"/>
<rect x="24" y="390" width="306" height="16" fill="#F2F2F3"/>
<rect x="24" y="422" width="166" height="16" fill="#F2F2F3"/>
<rect x="24" y="454" width="312" height="52" rx="8" fill="#F2F2F3"/>
<path d="M113.57 536V527.273H116.519C117.204 527.273 117.764 527.396 118.198 527.643C118.636 527.888 118.96 528.219 119.17 528.636C119.38 529.054 119.485 529.52 119.485 530.034C119.485 530.548 119.38 531.016 119.17 531.436C118.963 531.857 118.642 532.192 118.207 532.442C117.772 532.689 117.215 532.812 116.536 532.812H114.423V531.875H116.502C116.971 531.875 117.347 531.794 117.632 531.632C117.916 531.47 118.122 531.251 118.249 530.976C118.38 530.697 118.445 530.384 118.445 530.034C118.445 529.685 118.38 529.372 118.249 529.097C118.122 528.821 117.914 528.605 117.627 528.449C117.34 528.29 116.96 528.21 116.485 528.21H114.627V536H113.57ZM123.64 536.136C123.049 536.136 122.531 535.996 122.085 535.714C121.642 535.433 121.295 535.04 121.045 534.534C120.798 534.028 120.674 533.437 120.674 532.761C120.674 532.08 120.798 531.484 121.045 530.976C121.295 530.467 121.642 530.072 122.085 529.791C122.531 529.51 123.049 529.369 123.64 529.369C124.231 529.369 124.748 529.51 125.191 529.791C125.637 530.072 125.984 530.467 126.231 530.976C126.481 531.484 126.606 532.08 126.606 532.761C126.606 533.437 126.481 534.028 126.231 534.534C125.984 535.04 125.637 535.433 125.191 535.714C124.748 535.996 124.231 536.136 123.64 536.136ZM123.64 535.233C124.089 535.233 124.458 535.118 124.748 534.888C125.038 534.658 125.252 534.355 125.392 533.98C125.531 533.605 125.6 533.199 125.6 532.761C125.6 532.324 125.531 531.916 125.392 531.538C125.252 531.161 125.038 530.855 124.748 530.622C124.458 530.389 124.089 530.273 123.64 530.273C123.191 530.273 122.822 530.389 122.532 530.622C122.242 530.855 122.028 531.161 121.889 531.538C121.749 531.916 121.68 532.324 121.68 532.761C121.68 533.199 121.749 533.605 121.889 533.98C122.028 534.355 122.242 534.658 122.532 534.888C122.822 535.118 123.191 535.233 123.64 535.233ZM129.401 536L127.407 529.455H128.464L129.879 534.466H129.947L131.345 529.455H132.419L133.799 534.449H133.867L135.282 529.455H136.339L134.345 536H133.356L131.924 530.972H131.822L130.39 536H129.401ZM140.19 536.136C139.559 536.136 139.015 535.997 138.558 535.719C138.104 535.438 137.753 535.045 137.506 534.543C137.261 534.037 137.139 533.449 137.139 532.778C137.139 532.108 137.261 531.517 137.506 531.006C137.753 530.491 138.096 530.091 138.537 529.804C138.98 529.514 139.497 529.369 140.088 529.369C140.429 529.369 140.765 529.426 141.098 529.54C141.43 529.653 141.733 529.838 142.006 530.094C142.278 530.347 142.496 530.682 142.657 531.099C142.819 531.517 142.9 532.031 142.9 532.642V533.068H137.855V532.199H141.878C141.878 531.83 141.804 531.5 141.656 531.21C141.511 530.92 141.304 530.692 141.034 530.524C140.767 530.357 140.452 530.273 140.088 530.273C139.687 530.273 139.341 530.372 139.048 530.571C138.758 530.767 138.535 531.023 138.379 531.338C138.223 531.653 138.145 531.991 138.145 532.352V532.932C138.145 533.426 138.23 533.845 138.4 534.189C138.574 534.53 138.814 534.79 139.121 534.969C139.427 535.145 139.784 535.233 140.19 535.233C140.454 535.233 140.693 535.196 140.906 535.122C141.122 535.045 141.308 534.932 141.464 534.781C141.621 534.628 141.741 534.437 141.827 534.21L142.798 534.483C142.696 534.812 142.524 535.102 142.282 535.352C142.041 535.599 141.743 535.793 141.388 535.932C141.032 536.068 140.633 536.136 140.19 536.136ZM144.43 536V529.455H145.402V530.443H145.47C145.589 530.119 145.805 529.857 146.118 529.655C146.43 529.453 146.782 529.352 147.175 529.352C147.248 529.352 147.341 529.354 147.452 529.357C147.562 529.359 147.646 529.364 147.703 529.369V530.392C147.669 530.384 147.591 530.371 147.469 530.354C147.349 530.334 147.223 530.324 147.089 530.324C146.771 530.324 146.487 530.391 146.237 530.524C145.99 530.655 145.794 530.837 145.649 531.07C145.507 531.3 145.436 531.562 145.436 531.858V536H144.43ZM151.44 536.136C150.809 536.136 150.265 535.997 149.808 535.719C149.354 535.438 149.003 535.045 148.756 534.543C148.511 534.037 148.389 533.449 148.389 532.778C148.389 532.108 148.511 531.517 148.756 531.006C149.003 530.491 149.346 530.091 149.787 529.804C150.23 529.514 150.747 529.369 151.338 529.369C151.679 529.369 152.015 529.426 152.348 529.54C152.68 529.653 152.983 529.838 153.256 530.094C153.528 530.347 153.746 530.682 153.907 531.099C154.069 531.517 154.15 532.031 154.15 532.642V533.068H149.105V532.199H153.128C153.128 531.83 153.054 531.5 152.906 531.21C152.761 530.92 152.554 530.692 152.284 530.524C152.017 530.357 151.702 530.273 151.338 530.273C150.937 530.273 150.591 530.372 150.298 530.571C150.008 530.767 149.785 531.023 149.629 531.338C149.473 531.653 149.395 531.991 149.395 532.352V532.932C149.395 533.426 149.48 533.845 149.65 534.189C149.824 534.53 150.064 534.79 150.371 534.969C150.677 535.145 151.034 535.233 151.44 535.233C151.704 535.233 151.943 535.196 152.156 535.122C152.372 535.045 152.558 534.932 152.714 534.781C152.871 534.628 152.991 534.437 153.077 534.21L154.048 534.483C153.946 534.812 153.774 535.102 153.532 535.352C153.291 535.599 152.993 535.793 152.638 535.932C152.282 536.068 151.883 536.136 151.44 536.136ZM158.152 536.136C157.606 536.136 157.125 535.999 156.707 535.723C156.29 535.445 155.963 535.053 155.727 534.547C155.491 534.038 155.373 533.438 155.373 532.744C155.373 532.057 155.491 531.46 155.727 530.955C155.963 530.449 156.291 530.058 156.711 529.783C157.132 529.507 157.618 529.369 158.169 529.369C158.595 529.369 158.932 529.44 159.179 529.582C159.429 529.722 159.619 529.881 159.75 530.06C159.883 530.236 159.987 530.381 160.061 530.494H160.146V527.273H161.152V536H160.18V534.994H160.061C159.987 535.114 159.882 535.264 159.746 535.446C159.609 535.625 159.415 535.786 159.162 535.928C158.909 536.067 158.572 536.136 158.152 536.136ZM158.288 535.233C158.692 535.233 159.032 535.128 159.311 534.918C159.589 534.705 159.801 534.411 159.946 534.036C160.091 533.658 160.163 533.222 160.163 532.727C160.163 532.239 160.092 531.811 159.95 531.445C159.808 531.075 159.598 530.788 159.319 530.584C159.041 530.376 158.697 530.273 158.288 530.273C157.862 530.273 157.507 530.382 157.223 530.601C156.942 530.817 156.73 531.111 156.588 531.483C156.449 531.852 156.379 532.267 156.379 532.727C156.379 533.193 156.45 533.616 156.592 533.997C156.737 534.375 156.95 534.676 157.231 534.901C157.515 535.122 157.868 535.233 158.288 535.233ZM166.645 536V527.273H167.65V530.494H167.736C167.809 530.381 167.912 530.236 168.042 530.06C168.176 529.881 168.366 529.722 168.613 529.582C168.863 529.44 169.202 529.369 169.628 529.369C170.179 529.369 170.665 529.507 171.085 529.783C171.506 530.058 171.834 530.449 172.069 530.955C172.305 531.46 172.423 532.057 172.423 532.744C172.423 533.438 172.305 534.038 172.069 534.547C171.834 535.053 171.507 535.445 171.089 535.723C170.672 535.999 170.19 536.136 169.645 536.136C169.224 536.136 168.888 536.067 168.635 535.928C168.382 535.786 168.187 535.625 168.051 535.446C167.915 535.264 167.809 535.114 167.736 534.994H167.616V536H166.645ZM167.633 532.727C167.633 533.222 167.706 533.658 167.851 534.036C167.996 534.411 168.207 534.705 168.486 534.918C168.764 535.128 169.105 535.233 169.508 535.233C169.929 535.233 170.28 535.122 170.561 534.901C170.845 534.676 171.058 534.375 171.2 533.997C171.345 533.616 171.417 533.193 171.417 532.727C171.417 532.267 171.346 531.852 171.204 531.483C171.065 531.111 170.854 530.817 170.569 530.601C170.288 530.382 169.934 530.273 169.508 530.273C169.099 530.273 168.756 530.376 168.477 530.584C168.199 530.788 167.988 531.075 167.846 531.445C167.704 531.811 167.633 532.239 167.633 532.727ZM174.375 538.455C174.204 538.455 174.052 538.44 173.919 538.412C173.785 538.386 173.693 538.361 173.642 538.335L173.898 537.449C174.142 537.511 174.358 537.534 174.545 537.517C174.733 537.5 174.899 537.416 175.044 537.266C175.192 537.118 175.327 536.878 175.449 536.545L175.636 536.034L173.216 529.455H174.307L176.113 534.67H176.182L177.988 529.455H179.079L176.301 536.955C176.176 537.293 176.021 537.572 175.836 537.794C175.652 538.018 175.437 538.185 175.193 538.293C174.952 538.401 174.679 538.455 174.375 538.455Z" fill="#3F4346"/>
<path fill-rule="evenodd" clip-rule="evenodd" d="M185.241 530.265L201.727 524.505C201.75 524.497 201.775 524.499 201.797 524.509C201.818 524.52 201.835 524.539 201.843 524.562C201.847 524.572 201.848 524.582 201.848 524.593V539.407C201.848 539.432 201.839 539.455 201.821 539.473C201.804 539.49 201.78 539.5 201.755 539.5H201.743L185.255 538.696C185.231 538.695 185.209 538.684 185.192 538.667C185.176 538.65 185.167 538.627 185.167 538.603V530.356C185.167 530.335 185.174 530.314 185.188 530.298C185.201 530.281 185.22 530.27 185.241 530.265ZM187.041 531.852C186.959 531.836 186.875 531.852 186.804 531.895C186.733 531.938 186.681 532.007 186.658 532.086C186.635 532.166 186.642 532.252 186.679 532.326C186.715 532.401 186.778 532.459 186.856 532.49L192.879 534.231L193.013 534.12L199.011 529.172C199.05 529.146 199.083 529.112 199.108 529.073C199.133 529.033 199.149 528.989 199.156 528.943C199.163 528.897 199.16 528.85 199.147 528.805C199.135 528.76 199.113 528.718 199.084 528.682C199.054 528.647 199.017 528.617 198.976 528.596C198.934 528.575 198.888 528.563 198.842 528.561C198.795 528.559 198.749 528.567 198.705 528.584C198.662 528.6 198.622 528.626 198.59 528.659L192.727 533.498L187.041 531.852Z" fill="#1E75BA"/>
<path d="M208.088 527.273H209.349L212.315 534.517H212.418L215.384 527.273H216.645V536H215.656V529.369H215.571L212.844 536H211.889L209.162 529.369H209.077V536H208.088V527.273ZM223.537 529.455C223.485 529.023 223.278 528.688 222.914 528.449C222.551 528.21 222.105 528.091 221.576 528.091C221.19 528.091 220.852 528.153 220.562 528.278C220.275 528.403 220.051 528.575 219.889 528.794C219.73 529.013 219.65 529.261 219.65 529.54C219.65 529.773 219.706 529.973 219.816 530.141C219.93 530.305 220.075 530.443 220.251 530.554C220.427 530.662 220.612 530.751 220.805 530.822C220.998 530.891 221.176 530.946 221.338 530.989L222.224 531.227C222.451 531.287 222.704 531.369 222.983 531.474C223.264 531.58 223.532 531.723 223.788 531.905C224.047 532.084 224.26 532.314 224.427 532.595C224.595 532.876 224.679 533.222 224.679 533.631C224.679 534.102 224.555 534.528 224.308 534.909C224.064 535.29 223.706 535.592 223.234 535.817C222.765 536.041 222.196 536.153 221.525 536.153C220.9 536.153 220.359 536.053 219.902 535.851C219.447 535.649 219.089 535.368 218.828 535.007C218.569 534.646 218.423 534.227 218.389 533.75H219.48C219.508 534.08 219.619 534.352 219.812 534.568C220.008 534.781 220.255 534.94 220.554 535.045C220.855 535.148 221.179 535.199 221.525 535.199C221.929 535.199 222.291 535.134 222.612 535.003C222.933 534.869 223.187 534.685 223.375 534.449C223.562 534.21 223.656 533.932 223.656 533.614C223.656 533.324 223.575 533.088 223.413 532.906C223.251 532.724 223.038 532.577 222.774 532.463C222.51 532.349 222.224 532.25 221.917 532.165L220.843 531.858C220.162 531.662 219.622 531.382 219.224 531.018C218.826 530.655 218.627 530.179 218.627 529.591C218.627 529.102 218.76 528.676 219.024 528.312C219.291 527.946 219.649 527.662 220.098 527.46C220.549 527.256 221.054 527.153 221.61 527.153C222.173 527.153 222.673 527.254 223.11 527.456C223.548 527.655 223.895 527.928 224.15 528.274C224.409 528.621 224.545 529.014 224.559 529.455H223.537ZM232.382 530C232.288 529.713 232.165 529.456 232.011 529.229C231.861 528.999 231.68 528.803 231.47 528.641C231.263 528.479 231.027 528.355 230.763 528.27C230.499 528.185 230.209 528.142 229.893 528.142C229.376 528.142 228.906 528.276 228.483 528.543C228.06 528.81 227.723 529.203 227.473 529.723C227.223 530.243 227.098 530.881 227.098 531.636C227.098 532.392 227.224 533.03 227.477 533.55C227.73 534.07 228.072 534.463 228.504 534.73C228.936 534.997 229.422 535.131 229.962 535.131C230.462 535.131 230.902 535.024 231.283 534.811C231.666 534.595 231.964 534.291 232.178 533.899C232.393 533.504 232.501 533.04 232.501 532.506L232.825 532.574H230.2V531.636H233.524V532.574C233.524 533.293 233.371 533.918 233.064 534.449C232.76 534.98 232.339 535.392 231.803 535.685C231.268 535.974 230.655 536.119 229.962 536.119C229.189 536.119 228.51 535.938 227.925 535.574C227.342 535.21 226.888 534.693 226.561 534.023C226.237 533.352 226.075 532.557 226.075 531.636C226.075 530.946 226.168 530.325 226.352 529.774C226.54 529.22 226.804 528.749 227.145 528.359C227.486 527.97 227.889 527.672 228.355 527.464C228.821 527.257 229.334 527.153 229.893 527.153C230.354 527.153 230.783 527.223 231.18 527.362C231.581 527.499 231.938 527.693 232.25 527.946C232.565 528.196 232.828 528.496 233.038 528.845C233.249 529.192 233.393 529.577 233.473 530H232.382ZM237.959 527.153C238.317 527.156 238.675 527.224 239.033 527.358C239.391 527.491 239.718 527.713 240.013 528.023C240.309 528.33 240.546 528.749 240.725 529.28C240.904 529.811 240.993 530.477 240.993 531.278C240.993 532.054 240.919 532.743 240.772 533.345C240.627 533.945 240.417 534.45 240.141 534.862C239.868 535.274 239.536 535.587 239.144 535.8C238.755 536.013 238.314 536.119 237.823 536.119C237.334 536.119 236.898 536.023 236.515 535.83C236.134 535.634 235.821 535.362 235.577 535.016C235.336 534.666 235.181 534.261 235.113 533.801H236.152C236.246 534.202 236.432 534.533 236.711 534.794C236.992 535.053 237.363 535.182 237.823 535.182C238.496 535.182 239.027 534.888 239.417 534.3C239.809 533.712 240.005 532.881 240.005 531.807H239.936C239.777 532.045 239.588 532.251 239.37 532.425C239.151 532.598 238.908 532.732 238.641 532.825C238.374 532.919 238.09 532.966 237.789 532.966C237.289 532.966 236.83 532.842 236.412 532.595C235.998 532.345 235.665 532.003 235.415 531.568C235.168 531.131 235.044 530.631 235.044 530.068C235.044 529.534 235.164 529.045 235.402 528.602C235.644 528.156 235.982 527.801 236.417 527.537C236.854 527.273 237.368 527.145 237.959 527.153ZM237.959 528.091C237.601 528.091 237.279 528.18 236.992 528.359C236.708 528.536 236.482 528.774 236.314 529.075C236.15 529.374 236.067 529.705 236.067 530.068C236.067 530.432 236.147 530.763 236.306 531.061C236.468 531.357 236.688 531.592 236.966 531.768C237.248 531.942 237.567 532.028 237.925 532.028C238.195 532.028 238.446 531.976 238.679 531.871C238.912 531.763 239.115 531.616 239.289 531.432C239.465 531.244 239.603 531.033 239.702 530.797C239.801 530.558 239.851 530.31 239.851 530.051C239.851 529.71 239.769 529.391 239.604 529.092C239.442 528.794 239.218 528.553 238.931 528.368C238.647 528.183 238.323 528.091 237.959 528.091ZM245.737 527.273V536H244.68V528.381H244.629L242.499 529.795V528.722L244.68 527.273H245.737Z" fill="#3F4346"/>
<rect x="1" y="1" width="358" height="564" rx="23" stroke="#212528" stroke-width="2"/>
<rect x="320" y="582" width="40" height="40" rx="20" fill="#25D366"/>
<g clip-path="url(#clip0_4030_3712)">
<path fill-rule="evenodd" clip-rule="evenodd" d="M348.503 593.485C346.247 591.239 343.247 590.001 340.05 590C333.463 590 328.103 595.331 328.1 601.883C328.099 603.978 328.65 606.022 329.695 607.824L328 613.982L334.335 612.33C336.08 613.277 338.046 613.776 340.045 613.776H340.05C346.636 613.776 351.998 608.445 352 601.893C352.001 598.717 350.759 595.732 348.503 593.486V593.485ZM340.05 611.769H340.046C338.264 611.769 336.516 611.292 334.991 610.393L334.628 610.178L330.869 611.159L331.872 607.514L331.636 607.14C330.642 605.567 330.117 603.75 330.118 601.884C330.12 596.438 334.576 592.007 340.054 592.007C342.707 592.008 345.201 593.037 347.076 594.904C348.952 596.771 349.984 599.253 349.983 601.892C349.98 607.338 345.525 611.769 340.05 611.769V611.769ZM345.498 604.372C345.2 604.223 343.732 603.505 343.458 603.406C343.184 603.307 342.985 603.257 342.786 603.555C342.588 603.852 342.015 604.521 341.841 604.719C341.667 604.917 341.493 604.942 341.194 604.793C340.896 604.644 339.934 604.331 338.793 603.319C337.905 602.532 337.306 601.56 337.132 601.262C336.957 600.965 337.113 600.804 337.262 600.657C337.396 600.523 337.561 600.31 337.71 600.136C337.86 599.963 337.909 599.839 338.009 599.641C338.109 599.443 338.059 599.27 337.984 599.121C337.91 598.972 337.313 597.511 337.063 596.916C336.821 596.338 336.575 596.416 336.392 596.406C336.218 596.398 336.019 596.396 335.82 596.396C335.62 596.396 335.297 596.47 335.023 596.768C334.749 597.065 333.978 597.784 333.978 599.245C333.978 600.706 335.048 602.118 335.197 602.317C335.347 602.515 337.303 605.514 340.298 606.801C341.01 607.106 341.567 607.289 342 607.426C342.715 607.652 343.366 607.621 343.881 607.544C344.454 607.459 345.647 606.826 345.896 606.132C346.145 605.439 346.145 604.844 346.07 604.72C345.996 604.596 345.796 604.522 345.498 604.373L345.498 604.372Z" fill="white"/>
</g>
<defs>
<clipPath id="clip0_4030_3712">
<rect width="24" height="24" fill="white" transform="translate(328 590)"/>
</clipPath>
</defs>
</svg>
