<svg width="600" height="450" viewBox="0 0 600 450" fill="none" xmlns="http://www.w3.org/2000/svg">
<rect x="400" y="312" width="160" height="89" rx="8" fill="#F9EAE5"/>
<path d="M442.667 343.167H421.334C419.867 343.167 418.667 344.367 418.667 345.833V369.833L424 364.5H442.667C444.134 364.5 445.334 363.3 445.334 361.833V345.833C445.334 344.367 444.134 343.167 442.667 343.167ZM442.667 361.833H422.894L421.334 363.393V345.833H442.667V361.833ZM430.667 347.167H433.334V355.167H430.667V347.167ZM430.667 357.833H433.334V360.5H430.667V357.833Z" fill="#CC5229"/>
<path d="M461.119 347V336.818H467.433V338.141H462.655V341.243H466.98V342.56H462.655V347H461.119ZM469.107 347V339.364H470.544V340.577H470.623C470.762 340.166 471.008 339.843 471.359 339.607C471.713 339.369 472.115 339.249 472.562 339.249C472.655 339.249 472.764 339.253 472.89 339.259C473.019 339.266 473.12 339.274 473.193 339.284V340.706C473.134 340.689 473.028 340.671 472.875 340.651C472.723 340.628 472.57 340.616 472.418 340.616C472.066 340.616 471.753 340.691 471.478 340.84C471.206 340.986 470.991 341.19 470.832 341.452C470.673 341.71 470.593 342.005 470.593 342.337V347H469.107ZM476.634 347.169C476.15 347.169 475.712 347.08 475.321 346.901C474.93 346.718 474.62 346.455 474.392 346.11C474.166 345.765 474.053 345.343 474.053 344.842C474.053 344.411 474.136 344.057 474.302 343.778C474.468 343.5 474.691 343.28 474.973 343.117C475.255 342.955 475.57 342.832 475.918 342.749C476.266 342.666 476.62 342.603 476.982 342.56C477.439 342.507 477.81 342.464 478.095 342.431C478.38 342.395 478.588 342.337 478.717 342.257C478.846 342.178 478.911 342.048 478.911 341.869V341.835C478.911 341.4 478.788 341.064 478.543 340.825C478.301 340.587 477.94 340.467 477.459 340.467C476.959 340.467 476.564 340.578 476.276 340.8C475.991 341.019 475.794 341.263 475.684 341.531L474.287 341.213C474.453 340.749 474.695 340.375 475.013 340.089C475.334 339.801 475.704 339.592 476.122 339.463C476.539 339.33 476.978 339.264 477.439 339.264C477.744 339.264 478.067 339.301 478.409 339.374C478.753 339.443 479.075 339.572 479.373 339.761C479.675 339.95 479.922 340.22 480.114 340.572C480.306 340.92 480.402 341.372 480.402 341.929V347H478.95V345.956H478.891C478.795 346.148 478.651 346.337 478.458 346.523C478.266 346.708 478.019 346.862 477.718 346.985C477.416 347.108 477.055 347.169 476.634 347.169ZM476.957 345.976C477.368 345.976 477.719 345.895 478.011 345.732C478.306 345.57 478.53 345.358 478.682 345.096C478.838 344.831 478.916 344.547 478.916 344.246V343.261C478.863 343.314 478.76 343.364 478.607 343.411C478.458 343.454 478.288 343.492 478.095 343.525C477.903 343.555 477.716 343.583 477.534 343.609C477.351 343.633 477.199 343.652 477.076 343.669C476.788 343.705 476.524 343.767 476.286 343.853C476.05 343.939 475.861 344.063 475.719 344.226C475.58 344.385 475.51 344.597 475.51 344.862C475.51 345.23 475.646 345.509 475.918 345.697C476.19 345.883 476.536 345.976 476.957 345.976ZM485.599 347.154C484.86 347.154 484.223 346.987 483.69 346.652C483.159 346.314 482.752 345.848 482.467 345.255C482.182 344.662 482.039 343.982 482.039 343.217C482.039 342.441 482.185 341.757 482.477 341.163C482.768 340.567 483.179 340.101 483.71 339.766C484.24 339.432 484.865 339.264 485.584 339.264C486.164 339.264 486.681 339.372 487.135 339.587C487.589 339.799 487.955 340.098 488.234 340.482C488.515 340.867 488.683 341.316 488.736 341.83H487.289C487.21 341.472 487.027 341.163 486.742 340.905C486.46 340.646 486.083 340.517 485.609 340.517C485.194 340.517 484.831 340.626 484.52 340.845C484.212 341.061 483.971 341.369 483.799 341.77C483.627 342.168 483.54 342.638 483.54 343.182C483.54 343.739 483.625 344.219 483.794 344.624C483.963 345.028 484.202 345.341 484.51 345.563C484.821 345.785 485.188 345.896 485.609 345.896C485.89 345.896 486.146 345.845 486.374 345.742C486.606 345.636 486.8 345.485 486.956 345.29C487.115 345.094 487.226 344.859 487.289 344.584H488.736C488.683 345.078 488.522 345.518 488.254 345.906C487.985 346.294 487.625 346.599 487.175 346.821C486.727 347.043 486.202 347.154 485.599 347.154ZM492.548 347.169C492.064 347.169 491.626 347.08 491.235 346.901C490.844 346.718 490.534 346.455 490.306 346.11C490.08 345.765 489.968 345.343 489.968 344.842C489.968 344.411 490.05 344.057 490.216 343.778C490.382 343.5 490.606 343.28 490.887 343.117C491.169 342.955 491.484 342.832 491.832 342.749C492.18 342.666 492.535 342.603 492.896 342.56C493.353 342.507 493.724 342.464 494.009 342.431C494.294 342.395 494.502 342.337 494.631 342.257C494.76 342.178 494.825 342.048 494.825 341.869V341.835C494.825 341.4 494.702 341.064 494.457 340.825C494.215 340.587 493.854 340.467 493.373 340.467C492.873 340.467 492.478 340.578 492.19 340.8C491.905 341.019 491.708 341.263 491.598 341.531L490.201 341.213C490.367 340.749 490.609 340.375 490.927 340.089C491.249 339.801 491.618 339.592 492.036 339.463C492.453 339.33 492.892 339.264 493.353 339.264C493.658 339.264 493.981 339.301 494.323 339.374C494.667 339.443 494.989 339.572 495.287 339.761C495.589 339.95 495.836 340.22 496.028 340.572C496.22 340.92 496.316 341.372 496.316 341.929V347H494.865V345.956H494.805C494.709 346.148 494.565 346.337 494.372 346.523C494.18 346.708 493.933 346.862 493.632 346.985C493.33 347.108 492.969 347.169 492.548 347.169ZM492.871 345.976C493.282 345.976 493.633 345.895 493.925 345.732C494.22 345.57 494.444 345.358 494.596 345.096C494.752 344.831 494.83 344.547 494.83 344.246V343.261C494.777 343.314 494.674 343.364 494.521 343.411C494.372 343.454 494.202 343.492 494.009 343.525C493.817 343.555 493.63 343.583 493.448 343.609C493.265 343.633 493.113 343.652 492.99 343.669C492.702 343.705 492.438 343.767 492.2 343.853C491.964 343.939 491.776 344.063 491.633 344.226C491.494 344.385 491.424 344.597 491.424 344.862C491.424 345.23 491.56 345.509 491.832 345.697C492.104 345.883 492.45 345.976 492.871 345.976ZM504.018 341.228L502.671 341.467C502.615 341.294 502.525 341.13 502.403 340.974C502.283 340.819 502.121 340.691 501.915 340.592C501.71 340.492 501.453 340.442 501.145 340.442C500.724 340.442 500.373 340.537 500.091 340.726C499.809 340.911 499.668 341.152 499.668 341.447C499.668 341.702 499.763 341.907 499.952 342.063C500.141 342.219 500.446 342.347 500.866 342.446L502.08 342.724C502.782 342.887 503.306 343.137 503.651 343.475C503.995 343.813 504.168 344.252 504.168 344.793C504.168 345.25 504.035 345.658 503.77 346.016C503.508 346.37 503.142 346.649 502.671 346.851C502.204 347.053 501.662 347.154 501.045 347.154C500.19 347.154 499.493 346.972 498.952 346.607C498.412 346.239 498.081 345.717 497.958 345.041L499.395 344.822C499.484 345.197 499.668 345.48 499.947 345.673C500.225 345.862 500.588 345.956 501.036 345.956C501.523 345.956 501.912 345.855 502.204 345.653C502.496 345.447 502.641 345.197 502.641 344.902C502.641 344.663 502.552 344.463 502.373 344.3C502.197 344.138 501.927 344.015 501.562 343.933L500.27 343.649C499.557 343.487 499.03 343.228 498.689 342.874C498.351 342.519 498.182 342.07 498.182 341.526C498.182 341.076 498.308 340.681 498.56 340.343C498.812 340.005 499.16 339.741 499.604 339.553C500.048 339.36 500.557 339.264 501.13 339.264C501.955 339.264 502.605 339.443 503.079 339.801C503.553 340.156 503.866 340.631 504.018 341.228ZM511.524 341.228L510.177 341.467C510.121 341.294 510.031 341.13 509.909 340.974C509.789 340.819 509.627 340.691 509.421 340.592C509.216 340.492 508.959 340.442 508.651 340.442C508.23 340.442 507.878 340.537 507.597 340.726C507.315 340.911 507.174 341.152 507.174 341.447C507.174 341.702 507.269 341.907 507.458 342.063C507.646 342.219 507.951 342.347 508.372 342.446L509.585 342.724C510.288 342.887 510.812 343.137 511.156 343.475C511.501 343.813 511.673 344.252 511.673 344.793C511.673 345.25 511.541 345.658 511.276 346.016C511.014 346.37 510.648 346.649 510.177 346.851C509.71 347.053 509.168 347.154 508.551 347.154C507.696 347.154 506.999 346.972 506.458 346.607C505.918 346.239 505.587 345.717 505.464 345.041L506.901 344.822C506.99 345.197 507.174 345.48 507.453 345.673C507.731 345.862 508.094 345.956 508.541 345.956C509.029 345.956 509.418 345.855 509.71 345.653C510.001 345.447 510.147 345.197 510.147 344.902C510.147 344.663 510.058 344.463 509.879 344.3C509.703 344.138 509.433 344.015 509.068 343.933L507.776 343.649C507.063 343.487 506.536 343.228 506.195 342.874C505.857 342.519 505.688 342.07 505.688 341.526C505.688 341.076 505.814 340.681 506.066 340.343C506.317 340.005 506.665 339.741 507.11 339.553C507.554 339.36 508.062 339.264 508.636 339.264C509.461 339.264 510.111 339.443 510.585 339.801C511.059 340.156 511.372 340.631 511.524 341.228ZM515.53 347.169C515.046 347.169 514.609 347.08 514.218 346.901C513.827 346.718 513.517 346.455 513.288 346.11C513.063 345.765 512.95 345.343 512.95 344.842C512.95 344.411 513.033 344.057 513.199 343.778C513.364 343.5 513.588 343.28 513.87 343.117C514.151 342.955 514.466 342.832 514.814 342.749C515.162 342.666 515.517 342.603 515.878 342.56C516.336 342.507 516.707 342.464 516.992 342.431C517.277 342.395 517.484 342.337 517.613 342.257C517.743 342.178 517.807 342.048 517.807 341.869V341.835C517.807 341.4 517.685 341.064 517.439 340.825C517.197 340.587 516.836 340.467 516.355 340.467C515.855 340.467 515.461 340.578 515.172 340.8C514.887 341.019 514.69 341.263 514.581 341.531L513.184 341.213C513.349 340.749 513.591 340.375 513.909 340.089C514.231 339.801 514.6 339.592 515.018 339.463C515.436 339.33 515.875 339.264 516.336 339.264C516.641 339.264 516.964 339.301 517.305 339.374C517.65 339.443 517.971 339.572 518.27 339.761C518.571 339.95 518.818 340.22 519.01 340.572C519.203 340.92 519.299 341.372 519.299 341.929V347H517.847V345.956H517.787C517.691 346.148 517.547 346.337 517.355 346.523C517.163 346.708 516.916 346.862 516.614 346.985C516.312 347.108 515.951 347.169 515.53 347.169ZM515.853 345.976C516.264 345.976 516.616 345.895 516.907 345.732C517.202 345.57 517.426 345.358 517.578 345.096C517.734 344.831 517.812 344.547 517.812 344.246V343.261C517.759 343.314 517.656 343.364 517.504 343.411C517.355 343.454 517.184 343.492 516.992 343.525C516.8 343.555 516.612 343.583 516.43 343.609C516.248 343.633 516.095 343.652 515.973 343.669C515.684 343.705 515.421 343.767 515.182 343.853C514.947 343.939 514.758 344.063 514.615 344.226C514.476 344.385 514.407 344.597 514.407 344.862C514.407 345.23 514.542 345.509 514.814 345.697C515.086 345.883 515.432 345.976 515.853 345.976ZM524.137 347.149C523.521 347.149 522.971 346.992 522.487 346.677C522.006 346.359 521.628 345.906 521.353 345.32C521.081 344.73 520.945 344.022 520.945 343.197C520.945 342.371 521.083 341.665 521.358 341.079C521.637 340.492 522.018 340.043 522.502 339.732C522.985 339.42 523.534 339.264 524.147 339.264C524.621 339.264 525.002 339.344 525.291 339.503C525.582 339.659 525.808 339.841 525.967 340.05C526.129 340.259 526.255 340.442 526.345 340.602H526.434V336.818H527.921V347H526.469V345.812H526.345C526.255 345.974 526.126 346.16 525.957 346.369C525.791 346.577 525.562 346.76 525.271 346.915C524.979 347.071 524.601 347.149 524.137 347.149ZM524.465 345.881C524.893 345.881 525.254 345.769 525.549 345.543C525.847 345.315 526.073 344.998 526.225 344.594C526.381 344.189 526.459 343.719 526.459 343.182C526.459 342.652 526.383 342.187 526.23 341.79C526.078 341.392 525.854 341.082 525.559 340.86C525.264 340.638 524.9 340.527 524.465 340.527C524.018 340.527 523.645 340.643 523.347 340.875C523.048 341.107 522.823 341.424 522.671 341.825C522.521 342.226 522.447 342.678 522.447 343.182C522.447 343.692 522.523 344.151 522.676 344.559C522.828 344.967 523.053 345.29 523.352 345.528C523.653 345.764 524.025 345.881 524.465 345.881ZM533.259 347.154C532.543 347.154 531.918 346.99 531.385 346.662C530.851 346.334 530.437 345.875 530.142 345.285C529.847 344.695 529.699 344.005 529.699 343.217C529.699 342.424 529.847 341.732 530.142 341.138C530.437 340.545 530.851 340.085 531.385 339.756C531.918 339.428 532.543 339.264 533.259 339.264C533.975 339.264 534.6 339.428 535.133 339.756C535.667 340.085 536.081 340.545 536.376 341.138C536.671 341.732 536.819 342.424 536.819 343.217C536.819 344.005 536.671 344.695 536.376 345.285C536.081 345.875 535.667 346.334 535.133 346.662C534.6 346.99 533.975 347.154 533.259 347.154ZM533.264 345.906C533.728 345.906 534.112 345.784 534.417 345.538C534.722 345.293 534.948 344.967 535.093 344.559C535.243 344.151 535.317 343.702 535.317 343.212C535.317 342.724 535.243 342.277 535.093 341.869C534.948 341.458 534.722 341.129 534.417 340.88C534.112 340.631 533.728 340.507 533.264 340.507C532.797 340.507 532.409 340.631 532.1 340.88C531.796 341.129 531.569 341.458 531.419 341.869C531.274 342.277 531.201 342.724 531.201 343.212C531.201 343.702 531.274 344.151 531.419 344.559C531.569 344.967 531.796 345.293 532.1 345.538C532.409 345.784 532.797 345.906 533.264 345.906Z" fill="#CC5229"/>
<path d="M461.415 375V372.341L467.628 366.588C468.156 366.077 468.599 365.616 468.957 365.207C469.321 364.798 469.597 364.398 469.784 364.006C469.972 363.608 470.065 363.179 470.065 362.719C470.065 362.207 469.949 361.767 469.716 361.398C469.483 361.023 469.165 360.736 468.761 360.537C468.358 360.332 467.901 360.23 467.389 360.23C466.855 360.23 466.389 360.338 465.991 360.554C465.594 360.77 465.287 361.08 465.071 361.483C464.855 361.886 464.747 362.366 464.747 362.923H461.244C461.244 361.781 461.503 360.79 462.02 359.949C462.537 359.108 463.261 358.457 464.193 357.997C465.125 357.537 466.199 357.307 467.415 357.307C468.665 357.307 469.753 357.528 470.679 357.972C471.611 358.409 472.335 359.017 472.852 359.795C473.369 360.574 473.628 361.466 473.628 362.472C473.628 363.131 473.497 363.781 473.236 364.423C472.98 365.065 472.523 365.778 471.864 366.562C471.205 367.341 470.276 368.276 469.077 369.366L466.528 371.864V371.983H473.858V375H461.415ZM476.634 375V357.545H480.325V365.241H480.555L486.836 357.545H491.259L484.782 365.361L491.336 375H486.921L482.14 367.824L480.325 370.04V375H476.634Z" fill="#CC5229"/>
<rect x="40" y="312" width="160" height="89" rx="8" fill="#7B7F82" fill-opacity="0.1"/>
<path d="M67.7333 361.7L62.1333 356.1L60.2666 357.967L67.7333 365.433L83.7333 349.433L81.8666 347.567L67.7333 361.7Z" fill="#5D6164"/>
<path d="M100.616 338.141V336.818H108.496V338.141H105.32V347H103.788V338.141H100.616ZM112.228 347.154C111.512 347.154 110.887 346.99 110.353 346.662C109.82 346.334 109.405 345.875 109.11 345.285C108.815 344.695 108.668 344.005 108.668 343.217C108.668 342.424 108.815 341.732 109.11 341.138C109.405 340.545 109.82 340.085 110.353 339.756C110.887 339.428 111.512 339.264 112.228 339.264C112.944 339.264 113.568 339.428 114.102 339.756C114.636 340.085 115.05 340.545 115.345 341.138C115.64 341.732 115.787 342.424 115.787 343.217C115.787 344.005 115.64 344.695 115.345 345.285C115.05 345.875 114.636 346.334 114.102 346.662C113.568 346.99 112.944 347.154 112.228 347.154ZM112.233 345.906C112.697 345.906 113.081 345.784 113.386 345.538C113.691 345.293 113.916 344.967 114.062 344.559C114.211 344.151 114.286 343.702 114.286 343.212C114.286 342.724 114.211 342.277 114.062 341.869C113.916 341.458 113.691 341.129 113.386 340.88C113.081 340.631 112.697 340.507 112.233 340.507C111.765 340.507 111.377 340.631 111.069 340.88C110.764 341.129 110.537 341.458 110.388 341.869C110.242 342.277 110.169 342.724 110.169 343.212C110.169 343.702 110.242 344.151 110.388 344.559C110.537 344.967 110.764 345.293 111.069 345.538C111.377 345.784 111.765 345.906 112.233 345.906ZM121.011 339.364V340.557H116.84V339.364H121.011ZM117.959 337.534H119.445V344.758C119.445 345.046 119.488 345.263 119.574 345.409C119.661 345.552 119.772 345.649 119.907 345.702C120.047 345.752 120.198 345.777 120.36 345.777C120.479 345.777 120.584 345.769 120.673 345.752C120.763 345.736 120.832 345.722 120.882 345.712L121.15 346.94C121.064 346.973 120.942 347.007 120.782 347.04C120.623 347.076 120.425 347.096 120.186 347.099C119.795 347.106 119.43 347.036 119.092 346.891C118.754 346.745 118.481 346.519 118.272 346.214C118.063 345.91 117.959 345.527 117.959 345.066V337.534ZM124.878 347.169C124.394 347.169 123.956 347.08 123.565 346.901C123.174 346.718 122.864 346.455 122.636 346.11C122.41 345.765 122.298 345.343 122.298 344.842C122.298 344.411 122.38 344.057 122.546 343.778C122.712 343.5 122.936 343.28 123.217 343.117C123.499 342.955 123.814 342.832 124.162 342.749C124.51 342.666 124.865 342.603 125.226 342.56C125.683 342.507 126.054 342.464 126.339 342.431C126.625 342.395 126.832 342.337 126.961 342.257C127.09 342.178 127.155 342.048 127.155 341.869V341.835C127.155 341.4 127.032 341.064 126.787 340.825C126.545 340.587 126.184 340.467 125.703 340.467C125.203 340.467 124.808 340.578 124.52 340.8C124.235 341.019 124.038 341.263 123.928 341.531L122.531 341.213C122.697 340.749 122.939 340.375 123.257 340.089C123.579 339.801 123.948 339.592 124.366 339.463C124.783 339.33 125.223 339.264 125.683 339.264C125.988 339.264 126.311 339.301 126.653 339.374C126.997 339.443 127.319 339.572 127.617 339.761C127.919 339.95 128.166 340.22 128.358 340.572C128.55 340.92 128.646 341.372 128.646 341.929V347H127.195V345.956H127.135C127.039 346.148 126.895 346.337 126.702 346.523C126.51 346.708 126.263 346.862 125.962 346.985C125.66 347.108 125.299 347.169 124.878 347.169ZM125.201 345.976C125.612 345.976 125.963 345.895 126.255 345.732C126.55 345.57 126.774 345.358 126.926 345.096C127.082 344.831 127.16 344.547 127.16 344.246V343.261C127.107 343.314 127.004 343.364 126.852 343.411C126.702 343.454 126.532 343.492 126.339 343.525C126.147 343.555 125.96 343.583 125.778 343.609C125.595 343.633 125.443 343.652 125.32 343.669C125.032 343.705 124.768 343.767 124.53 343.853C124.295 343.939 124.106 344.063 123.963 344.226C123.824 344.385 123.754 344.597 123.754 344.862C123.754 345.23 123.89 345.509 124.162 345.697C124.434 345.883 124.78 345.976 125.201 345.976ZM132.113 336.818V347H130.626V336.818H132.113ZM141.109 347.154C140.356 347.154 139.709 346.993 139.165 346.672C138.625 346.347 138.207 345.891 137.912 345.305C137.62 344.715 137.475 344.024 137.475 343.232C137.475 342.449 137.62 341.76 137.912 341.163C138.207 340.567 138.618 340.101 139.145 339.766C139.675 339.432 140.295 339.264 141.004 339.264C141.435 339.264 141.853 339.335 142.257 339.478C142.662 339.621 143.025 339.844 143.346 340.149C143.668 340.454 143.921 340.85 144.107 341.337C144.292 341.821 144.385 342.41 144.385 343.102V343.629H138.315V342.516H142.928C142.928 342.125 142.849 341.778 142.69 341.477C142.531 341.172 142.307 340.931 142.019 340.756C141.734 340.58 141.399 340.492 141.014 340.492C140.597 340.492 140.232 340.595 139.921 340.8C139.612 341.003 139.374 341.268 139.205 341.596C139.039 341.921 138.956 342.274 138.956 342.655V343.525C138.956 344.035 139.046 344.469 139.225 344.827C139.407 345.185 139.66 345.459 139.985 345.648C140.31 345.833 140.69 345.926 141.124 345.926C141.405 345.926 141.662 345.886 141.894 345.807C142.126 345.724 142.327 345.601 142.496 345.439C142.665 345.277 142.794 345.076 142.884 344.837L144.291 345.091C144.178 345.505 143.976 345.868 143.684 346.18C143.396 346.488 143.033 346.728 142.595 346.901C142.161 347.07 141.666 347.154 141.109 347.154ZM147.521 342.466V347H146.034V339.364H147.461V340.607H147.556C147.731 340.202 148.007 339.877 148.381 339.632C148.759 339.387 149.234 339.264 149.808 339.264C150.328 339.264 150.784 339.374 151.175 339.592C151.566 339.808 151.869 340.129 152.085 340.557C152.3 340.984 152.408 341.513 152.408 342.143V347H150.922V342.322C150.922 341.768 150.777 341.336 150.489 341.024C150.201 340.709 149.805 340.552 149.301 340.552C148.956 340.552 148.65 340.626 148.381 340.776C148.116 340.925 147.905 341.143 147.75 341.432C147.597 341.717 147.521 342.062 147.521 342.466ZM160.661 339.364L157.892 347H156.301L153.527 339.364H155.123L157.056 345.24H157.136L159.065 339.364H160.661ZM162.058 347V339.364H163.544V347H162.058ZM162.809 338.185C162.55 338.185 162.328 338.099 162.142 337.927C161.96 337.751 161.869 337.542 161.869 337.3C161.869 337.055 161.96 336.846 162.142 336.674C162.328 336.498 162.55 336.411 162.809 336.411C163.067 336.411 163.288 336.498 163.47 336.674C163.655 336.846 163.748 337.055 163.748 337.3C163.748 337.542 163.655 337.751 163.47 337.927C163.288 338.099 163.067 338.185 162.809 338.185ZM167.767 347.169C167.283 347.169 166.845 347.08 166.454 346.901C166.063 346.718 165.753 346.455 165.524 346.11C165.299 345.765 165.186 345.343 165.186 344.842C165.186 344.411 165.269 344.057 165.435 343.778C165.601 343.5 165.824 343.28 166.106 343.117C166.388 342.955 166.703 342.832 167.051 342.749C167.399 342.666 167.753 342.603 168.115 342.56C168.572 342.507 168.943 342.464 169.228 342.431C169.513 342.395 169.72 342.337 169.85 342.257C169.979 342.178 170.044 342.048 170.044 341.869V341.835C170.044 341.4 169.921 341.064 169.676 340.825C169.434 340.587 169.072 340.467 168.592 340.467C168.091 340.467 167.697 340.578 167.409 340.8C167.124 341.019 166.926 341.263 166.817 341.531L165.42 341.213C165.586 340.749 165.828 340.375 166.146 340.089C166.467 339.801 166.837 339.592 167.254 339.463C167.672 339.33 168.111 339.264 168.572 339.264C168.877 339.264 169.2 339.301 169.541 339.374C169.886 339.443 170.208 339.572 170.506 339.761C170.807 339.95 171.054 340.22 171.247 340.572C171.439 340.92 171.535 341.372 171.535 341.929V347H170.083V345.956H170.024C169.927 346.148 169.783 346.337 169.591 346.523C169.399 346.708 169.152 346.862 168.85 346.985C168.549 347.108 168.187 347.169 167.767 347.169ZM168.09 345.976C168.501 345.976 168.852 345.895 169.144 345.732C169.439 345.57 169.662 345.358 169.815 345.096C169.971 344.831 170.048 344.547 170.048 344.246V343.261C169.995 343.314 169.893 343.364 169.74 343.411C169.591 343.454 169.42 343.492 169.228 343.525C169.036 343.555 168.849 343.583 168.666 343.609C168.484 343.633 168.332 343.652 168.209 343.669C167.921 343.705 167.657 343.767 167.419 343.853C167.183 343.939 166.994 344.063 166.852 344.226C166.713 344.385 166.643 344.597 166.643 344.862C166.643 345.23 166.779 345.509 167.051 345.697C167.322 345.883 167.669 345.976 168.09 345.976ZM176.374 347.149C175.757 347.149 175.207 346.992 174.723 346.677C174.242 346.359 173.865 345.906 173.589 345.32C173.318 344.73 173.182 344.022 173.182 343.197C173.182 342.371 173.319 341.665 173.594 341.079C173.873 340.492 174.254 340.043 174.738 339.732C175.222 339.42 175.77 339.264 176.384 339.264C176.857 339.264 177.239 339.344 177.527 339.503C177.819 339.659 178.044 339.841 178.203 340.05C178.366 340.259 178.491 340.442 178.581 340.602H178.67V336.818H180.157V347H178.705V345.812H178.581C178.491 345.974 178.362 346.16 178.193 346.369C178.027 346.577 177.799 346.76 177.507 346.915C177.215 347.071 176.838 347.149 176.374 347.149ZM176.702 345.881C177.129 345.881 177.491 345.769 177.786 345.543C178.084 345.315 178.309 344.998 178.462 344.594C178.617 344.189 178.695 343.719 178.695 343.182C178.695 342.652 178.619 342.187 178.467 341.79C178.314 341.392 178.09 341.082 177.795 340.86C177.5 340.638 177.136 340.527 176.702 340.527C176.254 340.527 175.881 340.643 175.583 340.875C175.285 341.107 175.059 341.424 174.907 341.825C174.758 342.226 174.683 342.678 174.683 343.182C174.683 343.692 174.759 344.151 174.912 344.559C175.064 344.967 175.29 345.29 175.588 345.528C175.89 345.764 176.261 345.881 176.702 345.881ZM185.495 347.154C184.779 347.154 184.155 346.99 183.621 346.662C183.087 346.334 182.673 345.875 182.378 345.285C182.083 344.695 181.936 344.005 181.936 343.217C181.936 342.424 182.083 341.732 182.378 341.138C182.673 340.545 183.087 340.085 183.621 339.756C184.155 339.428 184.779 339.264 185.495 339.264C186.211 339.264 186.836 339.428 187.369 339.756C187.903 340.085 188.317 340.545 188.612 341.138C188.907 341.732 189.055 342.424 189.055 343.217C189.055 344.005 188.907 344.695 188.612 345.285C188.317 345.875 187.903 346.334 187.369 346.662C186.836 346.99 186.211 347.154 185.495 347.154ZM185.5 345.906C185.964 345.906 186.349 345.784 186.654 345.538C186.959 345.293 187.184 344.967 187.33 344.559C187.479 344.151 187.553 343.702 187.553 343.212C187.553 342.724 187.479 342.277 187.33 341.869C187.184 341.458 186.959 341.129 186.654 340.88C186.349 340.631 185.964 340.507 185.5 340.507C185.033 340.507 184.645 340.631 184.337 340.88C184.032 341.129 183.805 341.458 183.656 341.869C183.51 342.277 183.437 342.724 183.437 343.212C183.437 343.702 183.51 344.151 183.656 344.559C183.805 344.967 184.032 345.293 184.337 345.538C184.645 345.784 185.033 345.906 185.5 345.906Z" fill="#3F4346"/>
<path d="M107.79 375.239C106.585 375.239 105.511 375.017 104.568 374.574C103.631 374.131 102.886 373.52 102.335 372.741C101.784 371.963 101.497 371.071 101.474 370.065H105.054C105.094 370.741 105.378 371.29 105.906 371.71C106.435 372.131 107.062 372.341 107.79 372.341C108.369 372.341 108.881 372.213 109.324 371.957C109.773 371.696 110.122 371.335 110.372 370.875C110.628 370.409 110.756 369.875 110.756 369.273C110.756 368.659 110.625 368.119 110.364 367.653C110.108 367.187 109.753 366.824 109.298 366.562C108.844 366.301 108.324 366.168 107.739 366.162C107.227 366.162 106.73 366.267 106.247 366.477C105.77 366.687 105.398 366.974 105.131 367.338L101.849 366.75L102.676 357.545H113.347V360.562H105.719L105.267 364.935H105.369C105.676 364.503 106.139 364.145 106.759 363.861C107.378 363.577 108.071 363.435 108.838 363.435C109.889 363.435 110.827 363.682 111.651 364.176C112.474 364.67 113.125 365.349 113.602 366.213C114.08 367.071 114.315 368.06 114.31 369.179C114.315 370.355 114.043 371.401 113.491 372.315C112.946 373.224 112.182 373.94 111.199 374.463C110.222 374.98 109.085 375.239 107.79 375.239ZM123.727 375.384C122.261 375.378 121 375.017 119.943 374.301C118.892 373.585 118.082 372.548 117.514 371.19C116.952 369.832 116.673 368.199 116.679 366.29C116.679 364.386 116.96 362.764 117.523 361.423C118.091 360.082 118.901 359.062 119.952 358.364C121.009 357.659 122.267 357.307 123.727 357.307C125.188 357.307 126.443 357.659 127.494 358.364C128.551 359.068 129.364 360.091 129.932 361.432C130.5 362.767 130.781 364.386 130.776 366.29C130.776 368.205 130.491 369.841 129.923 371.199C129.361 372.557 128.554 373.594 127.503 374.31C126.452 375.026 125.193 375.384 123.727 375.384ZM123.727 372.324C124.727 372.324 125.526 371.821 126.122 370.815C126.719 369.81 127.014 368.301 127.009 366.29C127.009 364.966 126.872 363.864 126.599 362.983C126.332 362.102 125.952 361.44 125.457 360.997C124.969 360.554 124.392 360.332 123.727 360.332C122.733 360.332 121.938 360.83 121.341 361.824C120.744 362.818 120.443 364.307 120.438 366.29C120.438 367.631 120.571 368.75 120.838 369.648C121.111 370.54 121.494 371.21 121.989 371.659C122.483 372.102 123.062 372.324 123.727 372.324ZM140.251 375.384C138.785 375.378 137.523 375.017 136.467 374.301C135.415 373.585 134.606 372.548 134.038 371.19C133.475 369.832 133.197 368.199 133.202 366.29C133.202 364.386 133.484 362.764 134.046 361.423C134.614 360.082 135.424 359.062 136.475 358.364C137.532 357.659 138.79 357.307 140.251 357.307C141.711 357.307 142.967 357.659 144.018 358.364C145.075 359.068 145.887 360.091 146.455 361.432C147.023 362.767 147.305 364.386 147.299 366.29C147.299 368.205 147.015 369.841 146.447 371.199C145.884 372.557 145.077 373.594 144.026 374.31C142.975 375.026 141.717 375.384 140.251 375.384ZM140.251 372.324C141.251 372.324 142.049 371.821 142.646 370.815C143.242 369.81 143.538 368.301 143.532 366.29C143.532 364.966 143.396 363.864 143.123 362.983C142.856 362.102 142.475 361.44 141.981 360.997C141.492 360.554 140.915 360.332 140.251 360.332C139.256 360.332 138.461 360.83 137.864 361.824C137.268 362.818 136.967 364.307 136.961 366.29C136.961 367.631 137.094 368.75 137.362 369.648C137.634 370.54 138.018 371.21 138.512 371.659C139.006 372.102 139.586 372.324 140.251 372.324ZM150.033 375V357.545H153.723V365.241H153.953L160.234 357.545H164.658L158.18 365.361L164.734 375H160.32L155.538 367.824L153.723 370.04V375H150.033Z" fill="#3F4346"/>
<rect x="220" y="312" width="160" height="89" rx="8" fill="#E8F7E8"/>
<path d="M259.953 349.44L258.073 347.56L249.62 356.013L251.5 357.893L259.953 349.44ZM265.607 347.56L251.5 361.667L245.927 356.107L244.047 357.987L251.5 365.44L267.5 349.44L265.607 347.56ZM236.5 357.987L243.953 365.44L245.833 363.56L238.393 356.107L236.5 357.987Z" fill="#29A653"/>
<path d="M281.119 347V336.818H287.502V338.141H282.655V341.243H287.169V342.56H282.655V345.678H287.562V347H281.119ZM290.921 342.466V347H289.435V339.364H290.862V340.607H290.956C291.132 340.202 291.407 339.877 291.781 339.632C292.159 339.387 292.635 339.264 293.208 339.264C293.729 339.264 294.184 339.374 294.575 339.592C294.967 339.808 295.27 340.129 295.485 340.557C295.701 340.984 295.808 341.513 295.808 342.143V347H294.322V342.322C294.322 341.768 294.178 341.336 293.889 341.024C293.601 340.709 293.205 340.552 292.701 340.552C292.356 340.552 292.05 340.626 291.781 340.776C291.516 340.925 291.306 341.143 291.15 341.432C290.998 341.717 290.921 342.062 290.921 342.466ZM301.367 339.364V340.557H297.195V339.364H301.367ZM298.314 337.534H299.801V344.758C299.801 345.046 299.844 345.263 299.93 345.409C300.016 345.552 300.127 345.649 300.263 345.702C300.402 345.752 300.553 345.777 300.715 345.777C300.835 345.777 300.939 345.769 301.029 345.752C301.118 345.736 301.188 345.722 301.237 345.712L301.506 346.94C301.42 346.973 301.297 347.007 301.138 347.04C300.979 347.076 300.78 347.096 300.541 347.099C300.15 347.106 299.786 347.036 299.448 346.891C299.11 346.745 298.836 346.519 298.627 346.214C298.419 345.91 298.314 345.527 298.314 345.066V337.534ZM303.011 347V339.364H304.448V340.577H304.527C304.667 340.166 304.912 339.843 305.263 339.607C305.618 339.369 306.019 339.249 306.466 339.249C306.559 339.249 306.668 339.253 306.794 339.259C306.924 339.266 307.025 339.274 307.098 339.284V340.706C307.038 340.689 306.932 340.671 306.779 340.651C306.627 340.628 306.475 340.616 306.322 340.616C305.971 340.616 305.658 340.691 305.382 340.84C305.111 340.986 304.895 341.19 304.736 341.452C304.577 341.71 304.498 342.005 304.498 342.337V347H303.011ZM311.402 347.154C310.649 347.154 310.001 346.993 309.458 346.672C308.918 346.347 308.5 345.891 308.205 345.305C307.913 344.715 307.768 344.024 307.768 343.232C307.768 342.449 307.913 341.76 308.205 341.163C308.5 340.567 308.911 340.101 309.438 339.766C309.968 339.432 310.588 339.264 311.297 339.264C311.728 339.264 312.146 339.335 312.55 339.478C312.955 339.621 313.318 339.844 313.639 340.149C313.961 340.454 314.214 340.85 314.4 341.337C314.585 341.821 314.678 342.41 314.678 343.102V343.629H308.608V342.516H313.221C313.221 342.125 313.142 341.778 312.983 341.477C312.824 341.172 312.6 340.931 312.312 340.756C312.027 340.58 311.692 340.492 311.307 340.492C310.89 340.492 310.525 340.595 310.214 340.8C309.905 341.003 309.667 341.268 309.498 341.596C309.332 341.921 309.249 342.274 309.249 342.655V343.525C309.249 344.035 309.339 344.469 309.518 344.827C309.7 345.185 309.953 345.459 310.278 345.648C310.603 345.833 310.983 345.926 311.417 345.926C311.698 345.926 311.955 345.886 312.187 345.807C312.419 345.724 312.62 345.601 312.789 345.439C312.958 345.277 313.087 345.076 313.177 344.837L314.584 345.091C314.471 345.505 314.269 345.868 313.977 346.18C313.689 346.488 313.326 346.728 312.888 346.901C312.454 347.07 311.959 347.154 311.402 347.154ZM319.529 350.023C318.923 350.023 318.401 349.943 317.963 349.784C317.529 349.625 317.174 349.415 316.899 349.153C316.624 348.891 316.419 348.604 316.283 348.293L317.56 347.766C317.65 347.911 317.769 348.066 317.918 348.228C318.071 348.394 318.276 348.535 318.535 348.651C318.797 348.767 319.133 348.825 319.544 348.825C320.107 348.825 320.573 348.687 320.941 348.412C321.309 348.14 321.493 347.706 321.493 347.109V345.608H321.398C321.309 345.77 321.18 345.951 321.011 346.15C320.845 346.349 320.616 346.521 320.325 346.667C320.033 346.813 319.653 346.886 319.186 346.886C318.583 346.886 318.039 346.745 317.555 346.463C317.075 346.178 316.694 345.759 316.412 345.205C316.134 344.648 315.994 343.964 315.994 343.152C315.994 342.34 316.132 341.644 316.407 341.064C316.685 340.484 317.067 340.04 317.55 339.732C318.034 339.42 318.583 339.264 319.196 339.264C319.67 339.264 320.053 339.344 320.344 339.503C320.636 339.659 320.863 339.841 321.026 340.05C321.191 340.259 321.319 340.442 321.408 340.602H321.518V339.364H322.974V347.169C322.974 347.825 322.822 348.364 322.517 348.785C322.212 349.206 321.799 349.517 321.279 349.719C320.762 349.922 320.179 350.023 319.529 350.023ZM319.514 345.653C319.942 345.653 320.303 345.553 320.598 345.354C320.896 345.152 321.122 344.864 321.274 344.489C321.43 344.112 321.508 343.659 321.508 343.132C321.508 342.618 321.432 342.166 321.279 341.775C321.127 341.384 320.903 341.079 320.608 340.86C320.313 340.638 319.948 340.527 319.514 340.527C319.067 340.527 318.694 340.643 318.396 340.875C318.097 341.104 317.872 341.415 317.719 341.81C317.57 342.204 317.496 342.645 317.496 343.132C317.496 343.633 317.572 344.072 317.724 344.45C317.877 344.827 318.102 345.122 318.401 345.335C318.702 345.547 319.073 345.653 319.514 345.653ZM329.805 343.833V339.364H331.297V347H329.835V345.678H329.756C329.58 346.085 329.298 346.425 328.911 346.697C328.526 346.965 328.047 347.099 327.474 347.099C326.983 347.099 326.549 346.992 326.171 346.776C325.797 346.558 325.502 346.234 325.286 345.807C325.074 345.379 324.968 344.851 324.968 344.221V339.364H326.455V344.042C326.455 344.562 326.599 344.977 326.887 345.285C327.175 345.593 327.55 345.747 328.011 345.747C328.289 345.747 328.566 345.678 328.841 345.538C329.119 345.399 329.35 345.189 329.532 344.907C329.718 344.625 329.809 344.267 329.805 343.833ZM336.585 347.154C335.833 347.154 335.185 346.993 334.642 346.672C334.101 346.347 333.684 345.891 333.389 345.305C333.097 344.715 332.951 344.024 332.951 343.232C332.951 342.449 333.097 341.76 333.389 341.163C333.684 340.567 334.095 340.101 334.622 339.766C335.152 339.432 335.772 339.264 336.481 339.264C336.912 339.264 337.329 339.335 337.734 339.478C338.138 339.621 338.501 339.844 338.823 340.149C339.144 340.454 339.398 340.85 339.583 341.337C339.769 341.821 339.862 342.41 339.862 343.102V343.629H333.791V342.516H338.405C338.405 342.125 338.325 341.778 338.166 341.477C338.007 341.172 337.784 340.931 337.495 340.756C337.21 340.58 336.875 340.492 336.491 340.492C336.073 340.492 335.709 340.595 335.397 340.8C335.089 341.003 334.85 341.268 334.681 341.596C334.516 341.921 334.433 342.274 334.433 342.655V343.525C334.433 344.035 334.522 344.469 334.701 344.827C334.883 345.185 335.137 345.459 335.462 345.648C335.787 345.833 336.166 345.926 336.6 345.926C336.882 345.926 337.139 345.886 337.371 345.807C337.603 345.724 337.803 345.601 337.972 345.439C338.142 345.277 338.271 345.076 338.36 344.837L339.767 345.091C339.655 345.505 339.452 345.868 339.161 346.18C338.872 346.488 338.509 346.728 338.072 346.901C337.638 347.07 337.142 347.154 336.585 347.154Z" fill="#29A653"/>
<path d="M281.151 371.932V369.026L288.438 357.545H290.943V361.568H289.46L284.866 368.838V368.974H295.222V371.932H281.151ZM289.528 375V371.045L289.597 369.759V357.545H293.057V375H289.528ZM303.996 357.307C304.893 357.307 305.757 357.457 306.587 357.759C307.422 358.06 308.166 358.54 308.82 359.199C309.479 359.858 309.999 360.733 310.379 361.824C310.766 362.909 310.962 364.241 310.967 365.821C310.967 367.304 310.8 368.628 310.464 369.793C310.135 370.952 309.661 371.938 309.041 372.75C308.422 373.562 307.675 374.182 306.8 374.608C305.925 375.028 304.947 375.239 303.868 375.239C302.703 375.239 301.675 375.014 300.783 374.565C299.891 374.111 299.172 373.494 298.626 372.716C298.087 371.932 297.76 371.051 297.646 370.074H301.286C301.428 370.71 301.726 371.205 302.18 371.557C302.635 371.903 303.197 372.077 303.868 372.077C305.004 372.077 305.868 371.582 306.459 370.594C307.05 369.599 307.348 368.239 307.354 366.511H307.234C306.973 367.023 306.621 367.463 306.178 367.832C305.734 368.196 305.226 368.477 304.652 368.676C304.084 368.875 303.479 368.974 302.837 368.974C301.808 368.974 300.891 368.733 300.084 368.25C299.277 367.767 298.641 367.102 298.175 366.256C297.709 365.409 297.476 364.443 297.476 363.358C297.47 362.188 297.74 361.145 298.286 360.23C298.831 359.315 299.592 358.599 300.57 358.082C301.553 357.56 302.695 357.301 303.996 357.307ZM304.021 360.205C303.447 360.205 302.936 360.341 302.487 360.614C302.044 360.886 301.692 361.253 301.43 361.713C301.175 362.173 301.05 362.687 301.055 363.256C301.055 363.83 301.18 364.347 301.43 364.807C301.686 365.261 302.033 365.625 302.47 365.898C302.913 366.165 303.419 366.298 303.987 366.298C304.413 366.298 304.808 366.219 305.172 366.06C305.536 365.901 305.851 365.682 306.118 365.403C306.391 365.119 306.604 364.793 306.757 364.423C306.911 364.054 306.987 363.662 306.987 363.247C306.982 362.696 306.851 362.19 306.595 361.73C306.339 361.27 305.987 360.901 305.538 360.622C305.089 360.344 304.584 360.205 304.021 360.205ZM320.036 375.239C318.723 375.239 317.555 375.026 316.533 374.599C315.516 374.168 314.717 373.58 314.138 372.835C313.558 372.091 313.268 371.247 313.268 370.304C313.268 369.577 313.433 368.909 313.763 368.301C314.098 367.688 314.553 367.179 315.126 366.776C315.7 366.366 316.342 366.105 317.053 365.991V365.872C316.121 365.685 315.365 365.233 314.786 364.517C314.206 363.795 313.916 362.957 313.916 362.003C313.916 361.099 314.18 360.295 314.709 359.591C315.237 358.881 315.962 358.324 316.882 357.92C317.808 357.511 318.859 357.307 320.036 357.307C321.212 357.307 322.26 357.511 323.18 357.92C324.107 358.33 324.834 358.889 325.362 359.599C325.891 360.304 326.158 361.105 326.163 362.003C326.158 362.963 325.862 363.801 325.277 364.517C324.692 365.233 323.942 365.685 323.027 365.872V365.991C323.726 366.105 324.359 366.366 324.928 366.776C325.501 367.179 325.956 367.688 326.291 368.301C326.632 368.909 326.805 369.577 326.811 370.304C326.805 371.247 326.513 372.091 325.933 372.835C325.354 373.58 324.553 374.168 323.53 374.599C322.513 375.026 321.348 375.239 320.036 375.239ZM320.036 372.528C320.621 372.528 321.132 372.423 321.57 372.213C322.007 371.997 322.348 371.702 322.592 371.327C322.842 370.946 322.967 370.509 322.967 370.014C322.967 369.509 322.839 369.062 322.584 368.676C322.328 368.284 321.982 367.977 321.544 367.756C321.107 367.528 320.604 367.415 320.036 367.415C319.473 367.415 318.97 367.528 318.527 367.756C318.084 367.977 317.734 368.284 317.479 368.676C317.229 369.062 317.104 369.509 317.104 370.014C317.104 370.509 317.226 370.946 317.47 371.327C317.714 371.702 318.058 371.997 318.501 372.213C318.945 372.423 319.456 372.528 320.036 372.528ZM320.036 364.73C320.524 364.73 320.959 364.631 321.339 364.432C321.72 364.233 322.018 363.957 322.234 363.605C322.45 363.253 322.558 362.847 322.558 362.386C322.558 361.932 322.45 361.534 322.234 361.193C322.018 360.847 321.723 360.577 321.348 360.384C320.973 360.185 320.536 360.085 320.036 360.085C319.541 360.085 319.104 360.185 318.723 360.384C318.342 360.577 318.044 360.847 317.828 361.193C317.618 361.534 317.513 361.932 317.513 362.386C317.513 362.847 317.621 363.253 317.837 363.605C318.053 363.957 318.351 364.233 318.732 364.432C319.112 364.631 319.547 364.73 320.036 364.73ZM332.715 371.233L332.724 366.878H333.252L337.445 361.909H341.613L335.979 368.489H335.119L332.715 371.233ZM329.425 375V357.545H333.056V375H329.425ZM337.607 375L333.755 369.298L336.175 366.733L341.86 375H337.607Z" fill="#29A653"/>
<path d="M41 76H56V125H41V76ZM69 55H83V125H69V55ZM97 95H111V125H97V95Z" fill="#DBEAF6"/>
<path d="M140.315 125H136.94L143.085 107.545H146.988L153.141 125H149.766L145.104 111.125H144.968L140.315 125ZM140.425 118.156H149.63V120.696H140.425V118.156ZM158.389 117.33V125H155.304V111.909H158.253V114.134H158.406C158.707 113.401 159.188 112.818 159.847 112.386C160.511 111.955 161.332 111.739 162.31 111.739C163.213 111.739 164 111.932 164.67 112.318C165.347 112.705 165.869 113.264 166.239 113.997C166.614 114.73 166.798 115.619 166.793 116.665V125H163.707V117.142C163.707 116.267 163.48 115.582 163.026 115.088C162.577 114.594 161.955 114.347 161.159 114.347C160.619 114.347 160.139 114.466 159.719 114.705C159.304 114.937 158.977 115.276 158.739 115.719C158.506 116.162 158.389 116.699 158.389 117.33ZM173.696 125.264C172.866 125.264 172.119 125.116 171.455 124.821C170.795 124.52 170.273 124.077 169.886 123.491C169.506 122.906 169.315 122.185 169.315 121.327C169.315 120.588 169.452 119.977 169.724 119.494C169.997 119.011 170.369 118.625 170.841 118.335C171.313 118.045 171.844 117.827 172.435 117.679C173.031 117.526 173.648 117.415 174.284 117.347C175.051 117.267 175.673 117.196 176.151 117.134C176.628 117.065 176.974 116.963 177.19 116.827C177.412 116.685 177.523 116.466 177.523 116.17V116.119C177.523 115.477 177.332 114.98 176.952 114.628C176.571 114.276 176.023 114.099 175.307 114.099C174.551 114.099 173.952 114.264 173.509 114.594C173.071 114.923 172.776 115.312 172.622 115.761L169.741 115.352C169.969 114.557 170.344 113.892 170.866 113.358C171.389 112.818 172.028 112.415 172.784 112.148C173.54 111.875 174.375 111.739 175.29 111.739C175.92 111.739 176.548 111.812 177.173 111.96C177.798 112.108 178.369 112.352 178.886 112.693C179.403 113.028 179.818 113.486 180.131 114.065C180.449 114.645 180.608 115.369 180.608 116.239V125H177.642V123.202H177.54C177.352 123.565 177.088 123.906 176.747 124.224C176.412 124.537 175.989 124.79 175.477 124.983C174.972 125.17 174.378 125.264 173.696 125.264ZM174.497 122.997C175.116 122.997 175.653 122.875 176.108 122.631C176.563 122.381 176.912 122.051 177.156 121.642C177.406 121.233 177.531 120.787 177.531 120.304V118.761C177.435 118.841 177.27 118.915 177.037 118.983C176.81 119.051 176.554 119.111 176.27 119.162C175.986 119.213 175.705 119.259 175.426 119.298C175.148 119.338 174.906 119.372 174.702 119.401C174.241 119.463 173.83 119.565 173.466 119.707C173.102 119.849 172.815 120.048 172.605 120.304C172.395 120.554 172.29 120.878 172.29 121.276C172.29 121.844 172.497 122.273 172.912 122.562C173.327 122.852 173.855 122.997 174.497 122.997ZM174.241 110.188L176.151 106.293H179.168L176.551 110.188H174.241ZM186.795 107.545V125H183.71V107.545H186.795ZM189.968 125V111.909H193.053V125H189.968ZM191.519 110.051C191.031 110.051 190.61 109.889 190.258 109.565C189.906 109.236 189.729 108.841 189.729 108.381C189.729 107.915 189.906 107.52 190.258 107.196C190.61 106.866 191.031 106.702 191.519 106.702C192.013 106.702 192.434 106.866 192.781 107.196C193.133 107.52 193.309 107.915 193.309 108.381C193.309 108.841 193.133 109.236 192.781 109.565C192.434 109.889 192.013 110.051 191.519 110.051ZM206.572 115.369L203.76 115.676C203.68 115.392 203.541 115.125 203.342 114.875C203.149 114.625 202.888 114.423 202.558 114.27C202.229 114.116 201.825 114.04 201.348 114.04C200.706 114.04 200.166 114.179 199.729 114.457C199.297 114.736 199.084 115.097 199.089 115.54C199.084 115.92 199.223 116.23 199.507 116.469C199.797 116.707 200.274 116.903 200.939 117.057L203.172 117.534C204.411 117.801 205.331 118.224 205.933 118.804C206.541 119.384 206.848 120.142 206.854 121.08C206.848 121.903 206.607 122.631 206.129 123.261C205.658 123.886 205.001 124.375 204.161 124.727C203.32 125.08 202.354 125.256 201.263 125.256C199.661 125.256 198.371 124.92 197.393 124.25C196.416 123.574 195.834 122.634 195.646 121.429L198.655 121.139C198.791 121.73 199.081 122.176 199.524 122.477C199.967 122.778 200.544 122.929 201.254 122.929C201.987 122.929 202.575 122.778 203.018 122.477C203.467 122.176 203.692 121.804 203.692 121.361C203.692 120.986 203.547 120.676 203.257 120.432C202.973 120.187 202.53 120 201.928 119.869L199.695 119.401C198.439 119.139 197.51 118.699 196.908 118.08C196.305 117.455 196.007 116.665 196.013 115.71C196.007 114.903 196.226 114.205 196.669 113.614C197.118 113.017 197.74 112.557 198.536 112.233C199.337 111.903 200.26 111.739 201.305 111.739C202.839 111.739 204.047 112.065 204.928 112.719C205.814 113.372 206.362 114.256 206.572 115.369ZM215.193 125.256C213.881 125.256 212.747 124.983 211.793 124.438C210.844 123.886 210.114 123.108 209.602 122.102C209.091 121.091 208.835 119.901 208.835 118.531C208.835 117.185 209.091 116.003 209.602 114.986C210.119 113.963 210.841 113.168 211.767 112.599C212.693 112.026 213.781 111.739 215.031 111.739C215.838 111.739 216.599 111.869 217.315 112.131C218.037 112.386 218.673 112.784 219.224 113.324C219.781 113.864 220.219 114.551 220.537 115.386C220.855 116.216 221.014 117.205 221.014 118.352V119.298H210.284V117.219H218.057C218.051 116.628 217.923 116.102 217.673 115.642C217.423 115.176 217.074 114.81 216.625 114.543C216.182 114.276 215.665 114.142 215.074 114.142C214.443 114.142 213.889 114.295 213.412 114.602C212.935 114.903 212.563 115.301 212.295 115.795C212.034 116.284 211.901 116.821 211.895 117.406V119.222C211.895 119.983 212.034 120.636 212.312 121.182C212.591 121.722 212.98 122.136 213.48 122.426C213.98 122.71 214.565 122.852 215.236 122.852C215.685 122.852 216.091 122.79 216.455 122.665C216.818 122.534 217.134 122.344 217.401 122.094C217.668 121.844 217.869 121.534 218.006 121.165L220.886 121.489C220.705 122.25 220.358 122.915 219.847 123.483C219.341 124.045 218.693 124.483 217.903 124.795C217.114 125.102 216.21 125.256 215.193 125.256ZM233.344 125.264C232.515 125.264 231.768 125.116 231.103 124.821C230.444 124.52 229.921 124.077 229.535 123.491C229.154 122.906 228.964 122.185 228.964 121.327C228.964 120.588 229.1 119.977 229.373 119.494C229.646 119.011 230.018 118.625 230.489 118.335C230.961 118.045 231.492 117.827 232.083 117.679C232.68 117.526 233.296 117.415 233.933 117.347C234.7 117.267 235.322 117.196 235.799 117.134C236.276 117.065 236.623 116.963 236.839 116.827C237.06 116.685 237.171 116.466 237.171 116.17V116.119C237.171 115.477 236.981 114.98 236.6 114.628C236.219 114.276 235.671 114.099 234.955 114.099C234.2 114.099 233.6 114.264 233.157 114.594C232.719 114.923 232.424 115.312 232.271 115.761L229.39 115.352C229.617 114.557 229.992 113.892 230.515 113.358C231.038 112.818 231.677 112.415 232.433 112.148C233.188 111.875 234.023 111.739 234.938 111.739C235.569 111.739 236.197 111.812 236.822 111.96C237.447 112.108 238.018 112.352 238.535 112.693C239.052 113.028 239.467 113.486 239.779 114.065C240.097 114.645 240.256 115.369 240.256 116.239V125H237.29V123.202H237.188C237.001 123.565 236.737 123.906 236.396 124.224C236.06 124.537 235.637 124.79 235.126 124.983C234.62 125.17 234.026 125.264 233.344 125.264ZM234.146 122.997C234.765 122.997 235.302 122.875 235.756 122.631C236.211 122.381 236.56 122.051 236.805 121.642C237.055 121.233 237.18 120.787 237.18 120.304V118.761C237.083 118.841 236.918 118.915 236.685 118.983C236.458 119.051 236.202 119.111 235.918 119.162C235.634 119.213 235.353 119.259 235.075 119.298C234.796 119.338 234.555 119.372 234.35 119.401C233.89 119.463 233.478 119.565 233.114 119.707C232.751 119.849 232.464 120.048 232.254 120.304C232.043 120.554 231.938 120.878 231.938 121.276C231.938 121.844 232.146 122.273 232.56 122.562C232.975 122.852 233.504 122.997 234.146 122.997ZM243.359 129.909V111.909H246.393V114.074H246.572C246.731 113.756 246.955 113.418 247.245 113.06C247.535 112.696 247.927 112.386 248.421 112.131C248.915 111.869 249.546 111.739 250.313 111.739C251.325 111.739 252.237 111.997 253.049 112.514C253.867 113.026 254.515 113.784 254.992 114.79C255.475 115.79 255.717 117.017 255.717 118.472C255.717 119.909 255.481 121.131 255.009 122.136C254.538 123.142 253.896 123.909 253.083 124.438C252.271 124.966 251.35 125.23 250.322 125.23C249.572 125.23 248.95 125.105 248.455 124.855C247.961 124.605 247.563 124.304 247.262 123.952C246.967 123.594 246.737 123.256 246.572 122.938H246.444V129.909H243.359ZM246.384 118.455C246.384 119.301 246.504 120.043 246.742 120.679C246.987 121.315 247.336 121.812 247.79 122.17C248.251 122.523 248.808 122.699 249.461 122.699C250.143 122.699 250.714 122.517 251.174 122.153C251.634 121.784 251.981 121.281 252.214 120.645C252.452 120.003 252.572 119.273 252.572 118.455C252.572 117.642 252.455 116.92 252.222 116.29C251.989 115.659 251.643 115.165 251.183 114.807C250.722 114.449 250.148 114.27 249.461 114.27C248.802 114.27 248.242 114.443 247.782 114.79C247.322 115.136 246.972 115.622 246.734 116.247C246.501 116.872 246.384 117.608 246.384 118.455ZM258.359 125V111.909H261.35V114.091H261.487C261.725 113.335 262.134 112.753 262.714 112.344C263.299 111.929 263.967 111.722 264.717 111.722C264.887 111.722 265.077 111.73 265.288 111.747C265.504 111.759 265.683 111.778 265.825 111.807V114.645C265.694 114.599 265.487 114.56 265.202 114.526C264.924 114.486 264.654 114.466 264.393 114.466C263.83 114.466 263.325 114.588 262.876 114.832C262.433 115.071 262.083 115.403 261.827 115.83C261.572 116.256 261.444 116.747 261.444 117.304V125H258.359ZM267.874 125V111.909H270.96V125H267.874ZM269.425 110.051C268.937 110.051 268.516 109.889 268.164 109.565C267.812 109.236 267.636 108.841 267.636 108.381C267.636 107.915 267.812 107.52 268.164 107.196C268.516 106.866 268.937 106.702 269.425 106.702C269.92 106.702 270.34 106.866 270.687 107.196C271.039 107.52 271.215 107.915 271.215 108.381C271.215 108.841 271.039 109.236 270.687 109.565C270.34 109.889 269.92 110.051 269.425 110.051ZM274.132 125V111.909H277.081V114.134H277.234C277.507 113.384 277.959 112.798 278.589 112.378C279.22 111.952 279.973 111.739 280.848 111.739C281.734 111.739 282.482 111.955 283.089 112.386C283.703 112.812 284.135 113.395 284.385 114.134H284.521C284.811 113.406 285.3 112.827 285.987 112.395C286.68 111.957 287.501 111.739 288.45 111.739C289.655 111.739 290.638 112.119 291.399 112.881C292.161 113.642 292.541 114.753 292.541 116.213V125H289.447V116.69C289.447 115.878 289.232 115.284 288.8 114.909C288.368 114.528 287.839 114.338 287.214 114.338C286.47 114.338 285.888 114.571 285.467 115.037C285.053 115.497 284.845 116.097 284.845 116.835V125H281.82V116.562C281.82 115.886 281.615 115.347 281.206 114.943C280.803 114.54 280.274 114.338 279.621 114.338C279.178 114.338 278.774 114.452 278.411 114.679C278.047 114.901 277.757 115.216 277.541 115.625C277.325 116.028 277.217 116.5 277.217 117.04V125H274.132ZM301.381 125.256C300.103 125.256 298.995 124.974 298.058 124.412C297.12 123.849 296.393 123.062 295.876 122.051C295.364 121.04 295.109 119.858 295.109 118.506C295.109 117.153 295.364 115.969 295.876 114.952C296.393 113.935 297.12 113.145 298.058 112.582C298.995 112.02 300.103 111.739 301.381 111.739C302.66 111.739 303.768 112.02 304.705 112.582C305.643 113.145 306.367 113.935 306.879 114.952C307.396 115.969 307.654 117.153 307.654 118.506C307.654 119.858 307.396 121.04 306.879 122.051C306.367 123.062 305.643 123.849 304.705 124.412C303.768 124.974 302.66 125.256 301.381 125.256ZM301.398 122.784C302.092 122.784 302.671 122.594 303.137 122.213C303.603 121.827 303.95 121.31 304.177 120.662C304.41 120.014 304.526 119.293 304.526 118.497C304.526 117.696 304.41 116.972 304.177 116.324C303.95 115.67 303.603 115.151 303.137 114.764C302.671 114.378 302.092 114.185 301.398 114.185C300.688 114.185 300.097 114.378 299.626 114.764C299.16 115.151 298.81 115.67 298.577 116.324C298.35 116.972 298.237 117.696 298.237 118.497C298.237 119.293 298.35 120.014 298.577 120.662C298.81 121.31 299.16 121.827 299.626 122.213C300.097 122.594 300.688 122.784 301.398 122.784ZM310.273 125V111.909H313.264V114.091H313.401C313.639 113.335 314.048 112.753 314.628 112.344C315.213 111.929 315.881 111.722 316.631 111.722C316.801 111.722 316.991 111.73 317.202 111.747C317.418 111.759 317.597 111.778 317.739 111.807V114.645C317.608 114.599 317.401 114.56 317.116 114.526C316.838 114.486 316.568 114.466 316.307 114.466C315.744 114.466 315.239 114.588 314.79 114.832C314.347 115.071 313.997 115.403 313.741 115.83C313.486 116.256 313.358 116.747 313.358 117.304V125H310.273ZM323.321 125.264C322.491 125.264 321.744 125.116 321.08 124.821C320.42 124.52 319.898 124.077 319.511 123.491C319.131 122.906 318.94 122.185 318.94 121.327C318.94 120.588 319.077 119.977 319.349 119.494C319.622 119.011 319.994 118.625 320.466 118.335C320.938 118.045 321.469 117.827 322.06 117.679C322.656 117.526 323.273 117.415 323.909 117.347C324.676 117.267 325.298 117.196 325.776 117.134C326.253 117.065 326.599 116.963 326.815 116.827C327.037 116.685 327.148 116.466 327.148 116.17V116.119C327.148 115.477 326.957 114.98 326.577 114.628C326.196 114.276 325.648 114.099 324.932 114.099C324.176 114.099 323.577 114.264 323.134 114.594C322.696 114.923 322.401 115.312 322.247 115.761L319.366 115.352C319.594 114.557 319.969 113.892 320.491 113.358C321.014 112.818 321.653 112.415 322.409 112.148C323.165 111.875 324 111.739 324.915 111.739C325.545 111.739 326.173 111.812 326.798 111.96C327.423 112.108 327.994 112.352 328.511 112.693C329.028 113.028 329.443 113.486 329.756 114.065C330.074 114.645 330.233 115.369 330.233 116.239V125H327.267V123.202H327.165C326.977 123.565 326.713 123.906 326.372 124.224C326.037 124.537 325.614 124.79 325.102 124.983C324.597 125.17 324.003 125.264 323.321 125.264ZM324.122 122.997C324.741 122.997 325.278 122.875 325.733 122.631C326.188 122.381 326.537 122.051 326.781 121.642C327.031 121.233 327.156 120.787 327.156 120.304V118.761C327.06 118.841 326.895 118.915 326.662 118.983C326.435 119.051 326.179 119.111 325.895 119.162C325.611 119.213 325.33 119.259 325.051 119.298C324.773 119.338 324.531 119.372 324.327 119.401C323.866 119.463 323.455 119.565 323.091 119.707C322.727 119.849 322.44 120.048 322.23 120.304C322.02 120.554 321.915 120.878 321.915 121.276C321.915 121.844 322.122 122.273 322.537 122.562C322.952 122.852 323.48 122.997 324.122 122.997ZM338.193 125.23C337.165 125.23 336.244 124.966 335.432 124.438C334.619 123.909 333.977 123.142 333.506 122.136C333.034 121.131 332.798 119.909 332.798 118.472C332.798 117.017 333.037 115.79 333.514 114.79C333.997 113.784 334.648 113.026 335.466 112.514C336.284 111.997 337.196 111.739 338.202 111.739C338.969 111.739 339.599 111.869 340.094 112.131C340.588 112.386 340.98 112.696 341.27 113.06C341.56 113.418 341.784 113.756 341.943 114.074H342.071V107.545H345.165V125H342.131V122.938H341.943C341.784 123.256 341.554 123.594 341.253 123.952C340.952 124.304 340.554 124.605 340.06 124.855C339.565 125.105 338.943 125.23 338.193 125.23ZM339.054 122.699C339.707 122.699 340.264 122.523 340.724 122.17C341.185 121.812 341.534 121.315 341.773 120.679C342.011 120.043 342.131 119.301 342.131 118.455C342.131 117.608 342.011 116.872 341.773 116.247C341.54 115.622 341.193 115.136 340.733 114.79C340.278 114.443 339.719 114.27 339.054 114.27C338.366 114.27 337.793 114.449 337.332 114.807C336.872 115.165 336.526 115.659 336.293 116.29C336.06 116.92 335.943 117.642 335.943 118.455C335.943 119.273 336.06 120.003 336.293 120.645C336.531 121.281 336.881 121.784 337.341 122.153C337.807 122.517 338.378 122.699 339.054 122.699ZM352.219 125.264C351.39 125.264 350.643 125.116 349.978 124.821C349.319 124.52 348.796 124.077 348.41 123.491C348.029 122.906 347.839 122.185 347.839 121.327C347.839 120.588 347.975 119.977 348.248 119.494C348.521 119.011 348.893 118.625 349.364 118.335C349.836 118.045 350.367 117.827 350.958 117.679C351.555 117.526 352.171 117.415 352.808 117.347C353.575 117.267 354.197 117.196 354.674 117.134C355.151 117.065 355.498 116.963 355.714 116.827C355.935 116.685 356.046 116.466 356.046 116.17V116.119C356.046 115.477 355.856 114.98 355.475 114.628C355.094 114.276 354.546 114.099 353.83 114.099C353.075 114.099 352.475 114.264 352.032 114.594C351.594 114.923 351.299 115.312 351.146 115.761L348.265 115.352C348.492 114.557 348.867 113.892 349.39 113.358C349.913 112.818 350.552 112.415 351.308 112.148C352.063 111.875 352.898 111.739 353.813 111.739C354.444 111.739 355.072 111.812 355.697 111.96C356.322 112.108 356.893 112.352 357.41 112.693C357.927 113.028 358.342 113.486 358.654 114.065C358.972 114.645 359.131 115.369 359.131 116.239V125H356.165V123.202H356.063C355.876 123.565 355.612 123.906 355.271 124.224C354.935 124.537 354.512 124.79 354.001 124.983C353.495 125.17 352.901 125.264 352.219 125.264ZM353.021 122.997C353.64 122.997 354.177 122.875 354.631 122.631C355.086 122.381 355.435 122.051 355.68 121.642C355.93 121.233 356.055 120.787 356.055 120.304V118.761C355.958 118.841 355.793 118.915 355.56 118.983C355.333 119.051 355.077 119.111 354.793 119.162C354.509 119.213 354.228 119.259 353.95 119.298C353.671 119.338 353.43 119.372 353.225 119.401C352.765 119.463 352.353 119.565 351.989 119.707C351.626 119.849 351.339 120.048 351.129 120.304C350.918 120.554 350.813 120.878 350.813 121.276C350.813 121.844 351.021 122.273 351.435 122.562C351.85 122.852 352.379 122.997 353.021 122.997Z" fill="#3A74B5"/>
<path d="M40 263.5L99.5 217L170 256L232 241.5L299 253.5L362.5 194L427.5 241L492.5 244.5L559.5 198.5" stroke="#1E75BA"/>
<path d="M40 263.5L99 228.5L169.5 258L231.5 243.5L299.5 254.5L364.5 215L427 257L493 244.5L560 210.5" stroke="#DE8644"/>
<path d="M40 263.5L99.5 236L169.5 260L231.5 245L299.5 255L363 206.5L426.5 250L493 244.5L559.5 215" stroke="#29A653"/>
<path d="M40 263.5L99 261L170 263.5L232 261L300 263.5L367 256.5L428 261L492.5 259L560 248" stroke="#CC5229"/>
<line x1="40.5" y1="186" x2="40.5" y2="264" stroke="#5D6164"/>
<line x1="560" y1="264.5" x2="40" y2="264.5" stroke="#5D6164"/>
<line x1="39" y1="256.5" x2="42" y2="256.5" stroke="#5D6164"/>
<line x1="169.5" y1="266" x2="169.5" y2="263" stroke="#5D6164"/>
<line x1="99.5" y1="266" x2="99.5" y2="263" stroke="#5D6164"/>
<line x1="299.5" y1="266" x2="299.5" y2="263" stroke="#5D6164"/>
<line x1="366.5" y1="266" x2="366.5" y2="263" stroke="#5D6164"/>
<line x1="231.5" y1="266" x2="231.5" y2="263" stroke="#5D6164"/>
<line x1="427.5" y1="266" x2="427.5" y2="263" stroke="#5D6164"/>
<line x1="493.5" y1="266" x2="493.5" y2="263" stroke="#5D6164"/>
<line x1="559.5" y1="266" x2="559.5" y2="263" stroke="#5D6164"/>
<line x1="39" y1="248.5" x2="42" y2="248.5" stroke="#5D6164"/>
<line x1="39" y1="240.5" x2="42" y2="240.5" stroke="#5D6164"/>
<line x1="39" y1="232.5" x2="42" y2="232.5" stroke="#5D6164"/>
<line x1="39" y1="224.5" x2="42" y2="224.5" stroke="#5D6164"/>
<line x1="39" y1="216.5" x2="42" y2="216.5" stroke="#5D6164"/>
<line x1="39" y1="208.5" x2="42" y2="208.5" stroke="#5D6164"/>
<line x1="39" y1="200.5" x2="42" y2="200.5" stroke="#5D6164"/>
<line x1="39" y1="192.5" x2="42" y2="192.5" stroke="#5D6164"/>
</svg>
