<svg width="560" height="500" viewBox="0 0 560 500" fill="none" xmlns="http://www.w3.org/2000/svg">
<rect width="560" height="500" rx="16" fill="white"/>
<rect x="37" y="105" width="56" height="56" rx="16" fill="#E8F7E8"/>
<path d="M74.8985 129.89L73.8485 125.52C73.6285 124.62 72.8485 124 71.9385 124H58.0485C57.1485 124 56.3585 124.63 56.1485 125.52L55.0985 129.89C54.8585 130.91 55.0785 131.95 55.7185 132.77C55.7985 132.88 55.9085 132.96 55.9985 133.06V140C55.9985 141.1 56.8985 142 57.9985 142H71.9985C73.0985 142 73.9985 141.1 73.9985 140V133.06C74.0885 132.97 74.1985 132.88 74.2785 132.78C74.9185 131.96 75.1485 130.91 74.8985 129.89ZM71.9085 125.99L72.9585 130.36C73.0585 130.78 72.9685 131.2 72.7085 131.53C72.5685 131.71 72.2685 132 71.7685 132C71.1585 132 70.6285 131.51 70.5585 130.86L69.9785 126L71.9085 125.99ZM65.9985 126H67.9585L68.4985 130.52C68.5485 130.91 68.4285 131.3 68.1685 131.59C67.9485 131.85 67.6285 132 67.2185 132C66.5485 132 65.9985 131.41 65.9985 130.69V126ZM61.4885 130.52L62.0385 126H63.9985V130.69C63.9985 131.41 63.4485 132 62.7085 132C62.3685 132 62.0585 131.85 61.8185 131.59C61.5685 131.3 61.4485 130.91 61.4885 130.52ZM57.0385 130.36L58.0485 126H60.0185L59.4385 130.86C59.3585 131.51 58.8385 132 58.2285 132C57.7385 132 57.4285 131.71 57.2985 131.53C57.0285 131.21 56.9385 130.78 57.0385 130.36ZM57.9985 140V133.97C58.0785 133.98 58.1485 134 58.2285 134C59.0985 134 59.8885 133.64 60.4685 133.05C61.0685 133.65 61.8685 134 62.7785 134C63.6485 134 64.4285 133.64 65.0085 133.07C65.5985 133.64 66.3985 134 67.2985 134C68.1385 134 68.9385 133.65 69.5385 133.05C70.1185 133.64 70.9085 134 71.7785 134C71.8585 134 71.9285 133.98 72.0085 133.97V140H57.9985Z" fill="#307368"/>
<rect x="150" y="6" width="80" height="80" rx="16" fill="#F2F2F3"/>
<path d="M168.275 49.261C168.918 53.9458 171.123 58.1712 174.43 61.57L181.87 54.1295C181.87 46.2297 186.004 39.0648 192.801 35.023L168.275 49.261Z" fill="#9B65C3"/>
<path d="M181.962 54.0376C178.104 54.0376 174.338 53.0272 171.031 51.0981C170.113 50.547 169.194 49.904 168.275 49.261C168.918 53.9457 171.123 58.1712 174.43 61.57L181.962 54.0376Z" fill="#9B65C3"/>
<path d="M181.962 54.0376L174.43 61.5699C177.828 64.9687 182.054 67.0814 186.647 67.7244L200.885 43.1065C197.027 49.8121 189.77 54.0376 181.962 54.0376Z" fill="#BE63C5"/>
<path d="M184.902 65.0606C182.972 61.6618 181.962 57.9875 181.962 54.1295L174.43 61.57C177.828 64.9687 182.054 67.0815 186.647 67.7245C186.096 66.8059 185.453 65.9792 184.902 65.0606Z" fill="#BF63C6"/>
<path d="M209.979 25.1942L192.894 34.9311C186.096 38.7891 177.829 38.7891 170.939 34.9311C169.01 38.3299 168 42.1879 168 46.0459C168 47.0564 168.092 48.2505 168.276 49.261C169.194 49.904 170.113 50.547 171.031 51.0981C174.43 53.0271 178.104 54.0376 181.962 54.0376L210.347 25.6534C210.163 25.5616 210.071 25.3779 209.979 25.1942Z" fill="#3278B1"/>
<path d="M170.939 51.0982C174.338 53.0272 178.012 54.0376 181.87 54.0376C181.87 46.1378 186.004 38.9729 192.801 34.9312L168.275 49.1691C169.194 49.904 170.021 50.547 170.939 51.0982Z" fill="#3278B2"/>
<path d="M170.939 34.9312C169.01 38.3299 168 42.1879 168 46.046C168 47.0564 168.092 48.2506 168.276 49.261L192.894 34.9312C186.188 38.9729 177.829 38.9729 170.939 34.9312Z" fill="#45A4EC"/>
<path d="M210.347 25.6534C209.979 25.286 209.704 25.0104 209.336 24.7349C208.509 24.2756 207.499 24 206.58 24H189.954C182.054 24 174.797 28.2255 170.939 34.9311C177.737 38.7891 186.004 38.7891 192.894 34.9311C186.096 38.7891 181.962 46.1378 181.962 54.0376C189.862 54.0376 197.027 49.904 201.069 43.1065L210.806 26.0209C210.622 25.929 210.438 25.8372 210.347 25.6534Z" fill="#19BB7D"/>
<path d="M192.894 34.9312L209.979 25.1942C209.704 25.1024 209.612 24.8268 209.336 24.6431L170.939 34.9312C177.829 38.9729 186.188 38.9729 192.894 34.9312Z" fill="#08C7FB"/>
<path d="M206.489 24H189.954C182.054 24 174.797 28.2255 170.939 34.9311L209.336 24.643C208.418 24.2756 207.499 24 206.489 24Z" fill="#59F2F6"/>
<path d="M201.069 43.1064L210.806 26.0208C210.714 25.929 210.531 25.7453 210.439 25.4697L182.055 53.9457C182.055 57.8037 183.065 61.5699 184.994 64.8768C185.545 65.7954 186.188 66.714 186.831 67.6325C187.842 67.7244 188.852 67.9081 189.954 67.9081C193.813 67.9081 197.579 66.8977 200.886 64.9687C197.028 58.1712 197.028 49.8121 201.069 43.1064Z" fill="#DA3757"/>
<path d="M181.963 54.0376C181.963 57.8956 182.973 61.6618 184.902 64.9687C185.453 65.8873 186.097 66.8058 186.74 67.7244L200.978 43.1065C197.028 49.8121 189.771 54.0376 181.963 54.0376Z" fill="#D33C4E"/>
<path d="M201.068 43.1065L186.83 67.7244C187.841 67.8163 188.851 68 190.045 68C193.903 68 197.669 66.9896 200.976 65.0605C197.026 58.1712 197.026 49.8121 201.068 43.1065Z" fill="#EE5A24"/>
<path d="M211.266 26.7557C210.898 26.1127 210.531 25.5616 209.98 25.1942L192.894 34.9311C186.097 38.7891 181.963 46.1378 181.963 54.0376C189.863 54.0376 197.028 49.904 201.069 43.1065C197.211 49.904 197.211 58.1712 201.069 65.0605C207.775 61.2025 212 53.9457 212 46.2296V29.5115C212 28.501 211.725 27.5825 211.266 26.7557Z" fill="#8BDF55"/>
<path d="M209.98 25.1942L192.894 34.9311C186.097 38.7891 181.963 46.1378 181.963 54.0376L210.347 25.6534C210.163 25.5616 210.071 25.286 209.98 25.1942Z" fill="#25C16F"/>
<path d="M181.963 54.0375C189.863 54.0375 197.028 49.9039 201.069 43.1064L210.806 26.0208C210.714 25.929 210.531 25.7453 210.439 25.4697L181.963 54.0375Z" fill="#8BDF55"/>
<path d="M210.806 26.0209L201.069 43.1065C197.211 49.904 197.211 58.1712 201.069 65.0606L211.357 26.7558C211.082 26.4802 210.99 26.2965 210.806 26.0209Z" fill="#FFBB00"/>
<path d="M201.068 65.0605C207.866 61.2025 211.999 53.9457 211.999 46.0459V29.5115C211.999 28.501 211.724 27.5825 211.265 26.6639L201.068 65.0605Z" fill="#FFA800"/>
<rect x="347" y="358" width="80" height="80" rx="16" fill="#F2F2F3"/>
<path d="M387.053 420H372.735C368.473 420 365 416.526 365 412.262V398C365 397.287 365.576 396.71 366.289 396.71C367.002 396.71 367.578 397.287 367.578 398V412.262C367.578 415.099 369.884 417.421 372.735 417.421H387.053C387.766 417.421 388.342 417.997 388.342 418.71C388.342 419.423 387.766 420 387.053 420Z" fill="#F9B21D"/>
<path d="M401.265 420H387.053C386.34 420 385.764 419.423 385.764 418.71C385.764 417.997 386.34 417.421 387.053 417.421H401.265C404.101 417.421 406.421 415.114 406.421 412.262V398C406.421 397.287 406.998 396.71 407.711 396.71C408.423 396.71 409 397.287 409 398V412.262C408.985 416.526 405.527 420 401.265 420Z" fill="#226DB4"/>
<path d="M407.711 399.29C406.998 399.29 406.421 398.713 406.421 398V383.738C406.421 380.901 404.116 378.579 401.265 378.579H387.053C386.34 378.579 385.764 378.003 385.764 377.29C385.764 376.577 386.34 376 387.053 376H401.265C405.527 376 409 379.474 409 383.738V398C408.985 398.713 408.408 399.29 407.711 399.29Z" fill="#089949"/>
<path d="M366.289 399.29C365.576 399.29 365 398.713 365 398V383.738C365 379.474 368.473 376 372.735 376H387.053C387.766 376 388.342 376.577 388.342 377.29C388.342 378.003 387.766 378.579 387.053 378.579H372.735C369.899 378.579 367.578 380.886 367.578 383.738V398C367.578 398.713 367.002 399.29 366.289 399.29Z" fill="#E42527"/>
<path d="M393.378 409.222C390.4 409.222 387.604 408.063 385.486 405.978L379.529 400.019C378.768 399.241 378.338 398.232 378.338 397.139C378.338 396.047 378.768 395.037 379.546 394.259C381.134 392.703 383.699 392.703 385.271 394.276L390.731 399.738C391.211 400.218 392.005 400.218 392.501 399.738C392.733 399.506 392.865 399.192 392.865 398.844C392.865 398.513 392.733 398.199 392.501 397.95L386.545 391.992C384.956 390.419 382.855 389.559 380.605 389.559C378.321 389.559 376.187 390.452 374.615 392.074C373.027 393.697 372.183 395.848 372.216 398.132C372.266 400.35 373.159 402.419 374.731 403.975C376.319 405.531 378.404 406.392 380.621 406.392C380.952 406.392 381.267 406.375 381.598 406.342C382.375 406.259 383.07 406.806 383.153 407.583C383.236 408.361 382.69 409.057 381.912 409.139C381.482 409.189 381.052 409.206 380.621 409.206C377.66 409.206 374.863 408.063 372.762 405.994C370.661 403.926 369.453 401.161 369.403 398.215C369.337 395.17 370.479 392.306 372.596 390.138C374.714 387.97 377.56 386.778 380.605 386.761C380.621 386.761 380.621 386.761 380.638 386.761C383.616 386.761 386.412 387.92 388.53 390.006L394.487 395.964C395.265 396.742 395.678 397.752 395.678 398.844C395.678 399.937 395.248 400.963 394.47 401.724C392.882 403.297 390.317 403.28 388.745 401.708L383.285 396.246C382.805 395.766 382.011 395.766 381.531 396.246C381.3 396.477 381.167 396.792 381.167 397.123C381.167 397.454 381.3 397.768 381.531 398L387.488 403.959C389.076 405.531 391.178 406.392 393.395 406.392C398.028 406.392 401.8 402.618 401.8 397.983C401.8 395.732 400.923 393.63 399.335 392.025C397.746 390.436 395.629 389.559 393.395 389.559C393.08 389.559 392.766 389.575 392.452 389.608C391.674 389.691 390.979 389.145 390.896 388.367C390.814 387.589 391.36 386.894 392.137 386.811C392.551 386.761 392.981 386.745 393.395 386.745C396.39 386.745 399.202 387.92 401.337 390.039C403.455 392.157 404.63 394.988 404.63 397.983C404.63 400.979 403.455 403.793 401.337 405.912C399.186 408.063 396.373 409.222 393.378 409.222Z" fill="#226DB4"/>
<rect x="123" y="332" width="144" height="144" rx="16" fill="#F2F2F3"/>
<path d="M154.464 385.525C154.918 385.979 155.735 387.115 156.825 386.615C157.96 386.07 163.818 385.525 165.725 385.253C167.632 385.026 169.267 385.298 169.267 385.298C169.267 385.298 164.227 392.246 163.455 393.381C162.592 394.471 158.278 400.691 157.461 401.963C156.644 403.28 154.6 406.731 153.647 408.456C152.784 410.182 154.237 410.045 154.237 410.045C154.237 410.045 157.688 410.136 158.46 410.136C159.186 410.091 159.323 409.591 159.413 409.364C159.595 409.092 159.777 408.365 160.458 407.276C161.048 406.186 162.547 403.688 164.181 400.964C165.816 398.285 167.723 395.606 169.131 393.608C170.629 391.565 172.309 389.203 172.718 388.658C173.081 388.114 174.761 385.889 175.124 385.389C175.488 384.844 175.624 384.89 176.214 384.844C176.396 384.844 176.895 384.844 177.486 384.89C179.03 384.935 181.482 385.162 182.662 385.253C184.388 385.434 186.885 385.48 188.429 385.616C189.973 385.798 189.519 384.89 189.519 384.89C189.519 384.89 189.609 383.845 189.201 382.755C188.701 381.62 188.338 381.756 188.338 381.756C186.567 381.212 180.891 380.803 177.486 380.712C176.623 380.667 175.896 380.667 175.442 380.667H174.716C171.583 380.712 163.863 381.166 162.183 381.348C160.367 381.529 154.464 382.665 153.374 382.846C152.33 383.119 152.92 383.8 152.92 383.8C152.92 383.8 153.964 385.026 154.464 385.525Z" fill="#3069B3"/>
<path d="M237.469 419.354C237.106 419.172 232.338 417.492 230.976 417.084C229.523 416.72 223.529 415.449 222.757 415.358C221.985 415.267 223.847 413.451 224.573 412.497C225.3 411.68 229.296 407.321 230.703 406.05C232.02 404.733 235.471 401.554 236.516 400.555C237.515 399.556 235.971 399.102 235.971 399.102C235.971 399.102 235.471 398.83 233.473 398.376C231.43 397.876 230.976 398.966 230.976 398.966C230.976 398.966 228.161 401.6 226.481 403.189C224.755 404.778 222.757 406.095 221.349 406.867C220.033 407.639 218.67 408.184 218.08 407.82C217.535 407.503 218.08 406.685 218.443 405.959C218.807 405.187 220.986 402.78 221.531 402.099C222.076 401.418 224.573 398.739 225.618 397.695C226.617 396.605 224.846 396.196 223.983 395.969C223.166 395.787 222.621 395.651 221.713 395.651C220.895 395.651 220.578 396.242 220.578 396.242C220.578 396.242 219.079 397.785 218.67 398.33C218.307 398.875 214.22 403.371 212.949 404.733C211.632 406.095 209.861 407.412 209.362 407.593C208.817 407.775 207.773 408.048 206.864 406.912C205.956 405.777 206.683 405.096 207.863 403.461C209.089 401.872 212.177 398.285 213.676 396.514C215.219 394.788 220.941 390.066 222.076 389.249C223.166 388.431 222.53 388.159 222.53 388.159C222.53 388.159 221.531 387.478 220.941 387.296C220.396 387.024 219.442 386.842 218.443 386.842C217.49 386.842 217.127 387.387 217.127 387.387C217.127 387.387 213.948 390.021 213.312 390.656C212.722 391.201 205.775 398.012 204.503 399.329C203.232 400.646 199.599 403.915 198.373 404.96C197.102 406.004 195.967 406.504 195.285 406.05C194.604 405.595 194.831 404.824 195.285 404.188C195.649 403.507 198.419 400.101 199.418 398.966C200.417 397.831 203.413 394.652 204.458 393.562C205.502 392.473 209.68 388.84 210.86 387.796C212.132 386.797 210.588 386.161 210.588 386.161C210.588 386.161 209.725 385.616 208.227 385.344C206.728 385.026 206.456 385.389 205.638 385.934C204.776 386.479 199.236 392.246 198.691 392.881C198.146 393.426 191.426 400.192 190.427 401.282C189.382 402.281 185.977 405.368 185.25 405.777C184.66 406.277 182.662 407.639 182.163 406.776C181.572 405.959 182.753 405.187 182.753 405.187C182.753 405.187 185.704 402.326 186.749 401.1C187.793 399.874 187.203 398.149 187.021 397.695C186.794 397.195 185.977 395.878 184.524 394.652C183.025 393.426 181.572 393.381 180.528 393.381C179.665 393.426 178.394 394.198 177.395 394.698C177.213 394.743 177.077 394.879 176.895 394.925C176.033 395.56 173.081 397.831 173.081 397.831C173.081 397.831 170.72 399.965 169.267 401.418C167.95 402.871 166.86 404.052 168.313 406.958C169.812 409.864 172.536 410.545 173.717 410.681C174.761 410.863 176.214 409.682 176.668 409.228C177.032 408.865 177.213 408.91 177.486 409.41C177.531 409.455 177.577 409.591 177.667 409.682C178.031 410.409 179.302 410.908 180.483 411.135C181.572 411.317 182.072 411.044 184.07 410.454C186.068 409.864 189.746 407.593 190.381 407.094C191.108 406.549 191.153 407.366 191.744 408.456C192.334 409.546 193.832 409.955 195.104 410.091C196.421 410.182 197.011 409.864 197.919 409.501C198.736 409.137 201.007 408.002 201.733 407.503C202.414 407.049 202.505 407.003 202.778 407.73C203.05 408.411 203.096 409.001 205.139 410.363C207.137 411.816 210.542 410.954 211.269 410.727C212.086 410.454 213.539 409.682 213.903 409.455C214.266 409.228 214.584 409.818 215.401 410.681C216.173 411.453 217.717 411.408 218.716 410.772C219.715 410.091 219.215 410.817 219.215 410.817C219.215 410.817 217.717 412.906 217.217 413.451C216.763 413.996 216.718 414.405 216.218 414.268C215.764 414.178 214.175 414.041 211.768 413.905C209.362 413.723 203.731 413.451 199.645 413.406C195.558 413.36 184.751 413.95 180.71 414.178C179.847 414.223 178.712 414.359 177.44 414.45C172.809 414.949 166.452 415.948 164 416.266C160.912 416.766 151.104 418.809 149.106 419.445C148.606 419.626 148.379 419.763 148.334 419.99V420.081C148.425 420.625 149.878 421.216 150.922 421.715C152.421 422.442 153.874 422.033 153.874 422.033C153.874 422.033 156.825 421.488 158.369 421.216C159.868 420.898 170.902 419.218 173.671 418.718C174.443 418.627 175.76 418.446 177.395 418.219C181.618 417.719 187.612 417.174 189.655 416.993C192.516 416.811 200.462 416.811 202.687 416.766C204.912 416.72 212.586 417.129 212.994 417.22C213.358 417.311 214.584 417.174 213.812 417.81C213.085 418.582 211.314 422.215 210.86 423.032C210.406 423.895 210.588 423.849 211.405 424.303C212.177 424.758 214.22 424.848 214.72 424.848C215.174 424.848 215.31 424.303 215.31 424.303C215.31 424.303 217.808 420.489 218.625 419.263C219.442 417.946 219.942 418.264 219.942 418.264C219.942 418.264 223.847 418.991 225.572 419.309C227.298 419.626 233.655 421.307 235.017 421.897C236.379 422.487 237.015 422.442 237.378 422.351C237.742 422.169 238.604 420.262 238.604 420.262V419.944C238.559 419.808 237.742 419.581 237.469 419.354ZM178.893 403.87C178.575 404.142 178.031 404.46 177.44 404.869C175.987 405.868 174.262 407.003 173.717 407.185C172.945 407.412 172.445 407.684 171.991 407.003C171.492 406.322 172.945 405.005 172.945 405.005C172.945 405.005 175.579 402.644 176.578 401.736C176.805 401.554 177.122 401.282 177.44 401.055C178.757 400.01 180.573 398.557 181.073 398.285C181.663 397.967 182.163 397.695 182.708 398.239C183.252 398.784 182.798 399.329 182.617 399.602C182.526 399.92 180.074 403.007 178.893 403.87Z" fill="#3069B3"/>
<path d="M241.93 393.88C242.702 393.88 243.428 394.062 244.11 394.425C244.836 394.788 245.381 395.379 245.744 396.06C246.107 396.786 246.334 397.513 246.334 398.239C246.334 398.966 246.107 399.738 245.744 400.419C245.381 401.145 244.791 401.69 244.11 402.054C243.383 402.417 242.656 402.644 241.93 402.644C241.158 402.644 240.431 402.417 239.75 402.054C239.024 401.69 238.479 401.1 238.116 400.419C237.752 399.692 237.525 398.966 237.525 398.239C237.525 397.513 237.752 396.741 238.116 396.06C238.479 395.333 239.069 394.788 239.75 394.425C240.431 394.016 241.158 393.88 241.93 393.88ZM241.93 394.607C241.34 394.607 240.704 394.788 240.114 395.106C239.523 395.424 239.069 395.878 238.751 396.468C238.434 397.059 238.252 397.694 238.252 398.33C238.252 399.011 238.434 399.602 238.751 400.147C239.069 400.737 239.523 401.191 240.114 401.509C240.704 401.827 241.34 402.008 241.93 402.008C242.611 402.008 243.201 401.827 243.746 401.509C244.291 401.191 244.791 400.737 245.108 400.147C245.426 399.602 245.608 398.92 245.608 398.33C245.608 397.649 245.426 397.059 245.108 396.468C244.791 395.878 244.337 395.424 243.746 395.106C243.156 394.743 242.52 394.607 241.93 394.607ZM240.023 400.691V395.969H241.657C242.202 395.969 242.611 396.014 242.883 396.06C243.156 396.151 243.338 396.287 243.474 396.559C243.655 396.786 243.701 397.013 243.701 397.24C243.701 397.558 243.61 397.922 243.338 398.103C243.065 398.376 242.793 398.466 242.339 398.557C242.52 398.603 242.611 398.739 242.702 398.83C242.883 399.011 243.156 399.329 243.428 399.783L243.973 400.737H243.02L242.566 399.965C242.248 399.42 241.975 399.011 241.748 398.875C241.567 398.784 241.43 398.693 241.158 398.693H240.704V400.737H240.023V400.691ZM240.795 398.058H241.748C242.202 398.058 242.52 398.012 242.611 397.831C242.793 397.74 242.883 397.513 242.883 397.286C242.883 397.104 242.838 397.013 242.793 396.923C242.747 396.832 242.611 396.741 242.475 396.65C242.293 396.605 242.112 396.605 241.703 396.605H240.84V398.058H240.795Z" fill="#3069B3"/>
<rect x="474" y="6" width="80" height="80" rx="16" fill="#F2F2F3"/>
<rect x="492" y="24" width="44" height="44" fill="#D92727"/>
<path d="M515.347 58.9C514.204 58.9 513.061 58.7766 511.962 58.5297C508.138 57.7069 504.798 55.4853 502.732 52.3587C498.424 45.8584 500.534 37.3424 507.479 33.2694C508.05 32.9403 508.754 33.1049 509.105 33.6397C509.457 34.1334 509.281 34.8328 508.71 35.1619C502.908 38.5766 501.106 45.735 504.754 51.2067C506.512 53.8397 509.281 55.691 512.49 56.3904C515.699 57.0898 519.083 56.5961 521.896 54.9505C522.468 54.6214 523.171 54.7859 523.523 55.3208C523.874 55.8556 523.698 56.5138 523.127 56.843C520.797 58.2006 518.072 58.9 515.347 58.9Z" fill="white"/>
<path fill-rule="evenodd" clip-rule="evenodd" d="M507.63 33.5289C500.826 37.5196 498.775 45.8442 502.982 52.1929C505.002 55.2503 508.274 57.4292 512.026 58.2364L512.028 58.237C513.105 58.4789 514.226 58.6 515.347 58.6C518.022 58.6 520.695 57.9132 522.976 56.5838L522.977 56.583C523.411 56.3333 523.521 55.8651 523.272 55.4856C523.01 55.0872 522.484 54.9587 522.047 55.2099C519.166 56.8947 515.705 57.3982 512.426 56.6835C509.145 55.9684 506.308 54.0739 504.504 51.3733C500.755 45.7497 502.616 38.4001 508.558 34.9034L508.56 34.9019C508.997 34.65 509.097 34.1455 508.861 33.8138L508.858 33.8092L508.855 33.8045C508.593 33.4062 508.067 33.2776 507.63 33.5289ZM509.353 33.4703C508.911 32.803 508.033 32.6041 507.329 33.0095L507.327 33.0107C500.242 37.1659 498.074 45.873 502.482 52.5244C504.593 55.7198 508.003 57.9842 511.898 58.8227C513.019 59.0744 514.183 59.2 515.347 59.2C518.122 59.2 520.899 58.4881 523.277 57.1026C523.986 56.6939 524.227 55.8459 523.773 55.156C523.332 54.4849 522.452 54.2843 521.746 54.6905L521.745 54.6916C518.999 56.2976 515.692 56.7813 512.554 56.0973C509.418 55.4137 506.717 53.6056 505.004 51.0403C501.457 45.7209 503.199 38.754 508.861 35.4211C509.564 35.0154 509.815 34.125 509.353 33.4703Z" fill="white"/>
<path d="M526.269 54.7287C526.949 54.7287 527.5 54.2129 527.5 53.5767C527.5 52.9405 526.949 52.4248 526.269 52.4248C525.589 52.4248 525.038 52.9405 525.038 53.5767C525.038 54.2129 525.589 54.7287 526.269 54.7287Z" fill="white"/>
<path fill-rule="evenodd" clip-rule="evenodd" d="M526.269 52.7248C525.736 52.7248 525.338 53.1246 525.338 53.5767C525.338 54.0289 525.736 54.4287 526.269 54.4287C526.802 54.4287 527.2 54.0289 527.2 53.5767C527.2 53.1246 526.802 52.7248 526.269 52.7248ZM524.738 53.5767C524.738 52.7565 525.442 52.1248 526.269 52.1248C527.095 52.1248 527.8 52.7565 527.8 53.5767C527.8 54.397 527.095 55.0287 526.269 55.0287C525.442 55.0287 524.738 54.397 524.738 53.5767Z" fill="white"/>
<rect x="3" y="388" width="88" height="88" rx="16" fill="#E8F7E8"/>
<path fill-rule="evenodd" clip-rule="evenodd" d="M58.05 458.545L57.9252 410.561C57.602 410.238 56.9716 410.335 56.7252 410.407L55.0836 410.916C54.881 410.249 54.618 409.602 54.298 408.983C53.1332 406.759 51.4308 405.583 49.37 405.58H49.3636C49.226 405.58 49.09 405.593 48.9524 405.604L48.9364 405.606C48.8768 405.532 48.8149 405.461 48.7508 405.391C47.8548 404.431 46.7028 403.962 45.3236 404.002C42.6644 404.079 40.0164 406.002 37.8676 409.418C36.3556 411.823 35.2084 414.842 34.8804 417.18L29.6436 418.804C28.1028 419.289 28.0548 419.337 27.8516 420.791C27.6996 421.892 23.666 453.122 23.666 453.122L57.4708 458.975L58.05 458.543V458.545ZM46.9748 406.196C46.5252 405.9 45.9988 405.762 45.3748 405.775C41.2692 405.894 37.6884 412.314 36.7748 416.593L40.7076 415.374L41.41 415.156C41.9252 412.439 43.218 409.62 44.9092 407.806C45.5005 407.155 46.1986 406.611 46.9732 406.196H46.9748ZM43.354 414.553L48.9988 412.802C49.0164 411.33 48.8564 409.154 48.1204 407.618C47.3364 407.942 46.6772 408.508 46.2036 409.015C44.9348 410.38 43.8996 412.462 43.3556 414.553H43.354ZM50.7668 412.255L53.3908 411.441C52.9716 410.078 51.9764 407.793 49.9588 407.409C50.586 409.03 50.7476 410.906 50.7668 412.255Z" fill="#95BF47"/>
<path d="M65.6243 414.13C65.4227 414.114 61.5155 414.054 61.5155 414.054C61.5155 414.054 58.2467 410.876 57.9235 410.551C57.7984 410.436 57.6398 410.363 57.4707 410.343V458.967L72.1187 455.321C72.1187 455.321 66.1411 414.855 66.1027 414.578C66.0842 414.461 66.0269 414.353 65.9399 414.272C65.8529 414.19 65.7413 414.141 65.6227 414.13H65.6243Z" fill="#5E8E3E"/>
<path d="M49.3538 421.681L47.6514 428.055C47.6514 428.055 45.7538 427.19 43.5026 427.332C40.2034 427.54 40.1682 429.625 40.2018 430.148C40.381 432.996 47.8706 433.62 48.2914 440.297C48.6226 445.55 45.509 449.145 41.0226 449.426C35.6386 449.767 32.6738 446.586 32.6738 446.586L33.8146 441.726C33.8146 441.726 36.7986 443.98 39.1858 443.828C40.7474 443.73 41.3042 442.46 41.2482 441.561C41.013 437.844 34.9138 438.062 34.5282 431.953C34.205 426.809 37.5762 421.601 45.0178 421.13C47.885 420.948 49.3538 421.682 49.3538 421.682" fill="white"/>
<rect x="492" y="264" width="56" height="56" rx="16" fill="#E8F7E8"/>
<path d="M526 286H524C524 283.79 522.21 282 520 282C517.79 282 516 283.79 516 286H514C512.9 286 512 286.9 512 288V300C512 301.1 512.9 302 514 302H526C527.1 302 528 301.1 528 300V288C528 286.9 527.1 286 526 286ZM520 284C521.1 284 522 284.9 522 286H518C518 284.9 518.9 284 520 284ZM526 300H514V288H516V290C516 290.55 516.45 291 517 291C517.55 291 518 290.55 518 290V288H522V290C522 290.55 522.45 291 523 291C523.55 291 524 290.55 524 290V288H526V300Z" fill="#307368"/>
<g filter="url(#filter0_d_6539_17184)">
<rect x="174.5" y="188" width="228" height="68" rx="16" fill="#E8F7E8" shape-rendering="crispEdges"/>
<path d="M212.385 211.636V232H208.696V211.636H212.385ZM219.82 223.051V232H216.221V216.727H219.661V219.322H219.84C220.191 218.467 220.751 217.788 221.52 217.284C222.296 216.78 223.254 216.528 224.394 216.528C225.448 216.528 226.366 216.754 227.148 217.205C227.937 217.655 228.547 218.308 228.978 219.163C229.415 220.018 229.631 221.056 229.624 222.276V232H226.025V222.832C226.025 221.812 225.759 221.013 225.229 220.436C224.705 219.859 223.98 219.571 223.051 219.571C222.422 219.571 221.862 219.71 221.371 219.989C220.887 220.26 220.506 220.655 220.228 221.172C219.956 221.689 219.82 222.315 219.82 223.051ZM240.909 216.727V219.511H232.13V216.727H240.909ZM234.297 213.068H237.897V227.406C237.897 227.89 237.97 228.261 238.115 228.52C238.268 228.772 238.467 228.944 238.712 229.037C238.957 229.13 239.229 229.176 239.527 229.176C239.753 229.176 239.958 229.16 240.144 229.126C240.336 229.093 240.482 229.063 240.581 229.037L241.188 231.851C240.996 231.917 240.721 231.99 240.363 232.07C240.011 232.149 239.58 232.196 239.07 232.209C238.168 232.235 237.356 232.099 236.634 231.801C235.911 231.496 235.338 231.026 234.914 230.389C234.496 229.753 234.291 228.957 234.297 228.003V213.068ZM250.517 232.298C248.986 232.298 247.663 231.98 246.55 231.344C245.443 230.701 244.591 229.793 243.994 228.619C243.398 227.439 243.099 226.051 243.099 224.453C243.099 222.882 243.398 221.503 243.994 220.317C244.598 219.124 245.439 218.196 246.52 217.533C247.6 216.863 248.87 216.528 250.328 216.528C251.269 216.528 252.158 216.681 252.993 216.986C253.835 217.284 254.577 217.748 255.22 218.378C255.87 219.008 256.38 219.81 256.751 220.784C257.123 221.752 257.308 222.905 257.308 224.244V225.348H244.79V222.922H253.858C253.851 222.232 253.702 221.619 253.411 221.082C253.119 220.539 252.711 220.111 252.188 219.8C251.67 219.488 251.067 219.332 250.378 219.332C249.642 219.332 248.996 219.511 248.439 219.869C247.882 220.221 247.448 220.685 247.136 221.261C246.831 221.831 246.676 222.458 246.669 223.141V225.259C246.669 226.147 246.831 226.909 247.156 227.545C247.481 228.175 247.935 228.659 248.518 228.997C249.102 229.329 249.785 229.494 250.567 229.494C251.09 229.494 251.564 229.421 251.989 229.276C252.413 229.123 252.781 228.901 253.092 228.609C253.404 228.318 253.639 227.956 253.798 227.526L257.159 227.903C256.947 228.792 256.543 229.567 255.946 230.23C255.356 230.886 254.6 231.397 253.679 231.761C252.758 232.119 251.704 232.298 250.517 232.298ZM266.995 238.045C265.703 238.045 264.592 237.87 263.664 237.518C262.736 237.174 261.991 236.71 261.427 236.126C260.864 235.543 260.473 234.897 260.254 234.188L263.495 233.402C263.641 233.7 263.853 233.995 264.132 234.287C264.41 234.585 264.785 234.83 265.255 235.023C265.733 235.222 266.333 235.321 267.055 235.321C268.076 235.321 268.921 235.072 269.591 234.575C270.26 234.085 270.595 233.276 270.595 232.149V229.256H270.416C270.23 229.627 269.958 230.008 269.6 230.399C269.249 230.79 268.782 231.118 268.199 231.384C267.622 231.649 266.896 231.781 266.021 231.781C264.848 231.781 263.784 231.506 262.829 230.956C261.881 230.399 261.126 229.571 260.562 228.47C260.005 227.363 259.727 225.978 259.727 224.314C259.727 222.637 260.005 221.222 260.562 220.068C261.126 218.908 261.885 218.03 262.839 217.433C263.794 216.83 264.858 216.528 266.031 216.528C266.926 216.528 267.662 216.681 268.238 216.986C268.822 217.284 269.286 217.645 269.63 218.07C269.975 218.487 270.237 218.882 270.416 219.253H270.615V216.727H274.164V232.249C274.164 233.554 273.853 234.635 273.23 235.49C272.607 236.345 271.755 236.985 270.674 237.409C269.594 237.833 268.368 238.045 266.995 238.045ZM267.025 228.957C267.788 228.957 268.437 228.772 268.974 228.401C269.511 228.029 269.919 227.496 270.197 226.8C270.475 226.104 270.615 225.268 270.615 224.294C270.615 223.333 270.475 222.491 270.197 221.768C269.925 221.046 269.521 220.486 268.984 220.088C268.454 219.684 267.801 219.482 267.025 219.482C266.223 219.482 265.554 219.69 265.017 220.108C264.48 220.526 264.075 221.099 263.804 221.828C263.532 222.551 263.396 223.373 263.396 224.294C263.396 225.229 263.532 226.047 263.804 226.75C264.082 227.446 264.49 227.99 265.027 228.381C265.57 228.765 266.236 228.957 267.025 228.957ZM277.853 232V216.727H281.343V219.273H281.502C281.781 218.391 282.258 217.712 282.934 217.234C283.617 216.75 284.396 216.509 285.271 216.509C285.47 216.509 285.692 216.518 285.937 216.538C286.189 216.552 286.398 216.575 286.564 216.608V219.919C286.411 219.866 286.169 219.82 285.838 219.78C285.513 219.733 285.198 219.71 284.893 219.71C284.237 219.71 283.647 219.853 283.123 220.138C282.606 220.416 282.199 220.804 281.9 221.301C281.602 221.798 281.453 222.372 281.453 223.021V232H277.853ZM293.076 232.308C292.109 232.308 291.237 232.136 290.461 231.791C289.692 231.44 289.083 230.923 288.632 230.24C288.188 229.557 287.966 228.715 287.966 227.714C287.966 226.853 288.125 226.14 288.443 225.577C288.761 225.013 289.195 224.562 289.745 224.224C290.296 223.886 290.915 223.631 291.605 223.459C292.301 223.28 293.02 223.151 293.762 223.071C294.657 222.978 295.383 222.895 295.94 222.822C296.497 222.743 296.901 222.624 297.153 222.464C297.412 222.299 297.541 222.044 297.541 221.699V221.639C297.541 220.89 297.319 220.31 296.875 219.899C296.431 219.488 295.791 219.283 294.956 219.283C294.074 219.283 293.375 219.475 292.858 219.859C292.347 220.244 292.002 220.698 291.824 221.222L288.463 220.744C288.728 219.816 289.165 219.041 289.775 218.418C290.385 217.788 291.131 217.317 292.012 217.006C292.894 216.688 293.868 216.528 294.936 216.528C295.672 216.528 296.404 216.615 297.133 216.787C297.862 216.959 298.529 217.244 299.132 217.642C299.735 218.033 300.219 218.567 300.583 219.243C300.955 219.919 301.14 220.764 301.14 221.778V232H297.68V229.902H297.561C297.342 230.326 297.034 230.724 296.636 231.095C296.245 231.46 295.751 231.755 295.154 231.98C294.565 232.199 293.872 232.308 293.076 232.308ZM294.011 229.663C294.734 229.663 295.36 229.521 295.89 229.236C296.421 228.944 296.828 228.56 297.113 228.082C297.405 227.605 297.551 227.085 297.551 226.521V224.722C297.438 224.814 297.246 224.901 296.974 224.98C296.709 225.06 296.411 225.129 296.079 225.189C295.748 225.249 295.42 225.302 295.095 225.348C294.77 225.394 294.488 225.434 294.25 225.467C293.713 225.54 293.232 225.66 292.808 225.825C292.384 225.991 292.049 226.223 291.804 226.521C291.558 226.813 291.436 227.191 291.436 227.655C291.436 228.318 291.678 228.818 292.162 229.156C292.645 229.494 293.262 229.663 294.011 229.663ZM312.386 216.727V219.511H303.606V216.727H312.386ZM305.774 213.068H309.373V227.406C309.373 227.89 309.446 228.261 309.592 228.52C309.744 228.772 309.943 228.944 310.189 229.037C310.434 229.13 310.706 229.176 311.004 229.176C311.229 229.176 311.435 229.16 311.62 229.126C311.813 229.093 311.958 229.063 312.058 229.037L312.664 231.851C312.472 231.917 312.197 231.99 311.839 232.07C311.488 232.149 311.057 232.196 310.547 232.209C309.645 232.235 308.833 232.099 308.11 231.801C307.388 231.496 306.815 231.026 306.39 230.389C305.973 229.753 305.767 228.957 305.774 228.003V213.068ZM315.396 232V216.727H318.996V232H315.396ZM317.206 214.56C316.636 214.56 316.145 214.371 315.734 213.993C315.323 213.608 315.118 213.148 315.118 212.611C315.118 212.067 315.323 211.607 315.734 211.229C316.145 210.844 316.636 210.652 317.206 210.652C317.783 210.652 318.273 210.844 318.678 211.229C319.089 211.607 319.294 212.067 319.294 212.611C319.294 213.148 319.089 213.608 318.678 213.993C318.273 214.371 317.783 214.56 317.206 214.56ZM329.359 232.298C327.868 232.298 326.575 231.97 325.481 231.314C324.387 230.658 323.539 229.74 322.936 228.56C322.339 227.38 322.041 226.001 322.041 224.423C322.041 222.846 322.339 221.464 322.936 220.277C323.539 219.09 324.387 218.169 325.481 217.513C326.575 216.857 327.868 216.528 329.359 216.528C330.85 216.528 332.143 216.857 333.237 217.513C334.331 218.169 335.176 219.09 335.772 220.277C336.376 221.464 336.677 222.846 336.677 224.423C336.677 226.001 336.376 227.38 335.772 228.56C335.176 229.74 334.331 230.658 333.237 231.314C332.143 231.97 330.85 232.298 329.359 232.298ZM329.379 229.415C330.188 229.415 330.864 229.193 331.407 228.749C331.951 228.298 332.355 227.695 332.62 226.939C332.892 226.183 333.028 225.341 333.028 224.413C333.028 223.479 332.892 222.634 332.62 221.878C332.355 221.116 331.951 220.509 331.407 220.058C330.864 219.607 330.188 219.382 329.379 219.382C328.55 219.382 327.861 219.607 327.311 220.058C326.767 220.509 326.359 221.116 326.088 221.878C325.823 222.634 325.69 223.479 325.69 224.413C325.69 225.341 325.823 226.183 326.088 226.939C326.359 227.695 326.767 228.298 327.311 228.749C327.861 229.193 328.55 229.415 329.379 229.415ZM343.332 223.051V232H339.732V216.727H343.173V219.322H343.352C343.703 218.467 344.263 217.788 345.032 217.284C345.808 216.78 346.765 216.528 347.906 216.528C348.96 216.528 349.878 216.754 350.66 217.205C351.449 217.655 352.058 218.308 352.489 219.163C352.927 220.018 353.142 221.056 353.136 222.276V232H349.536V222.832C349.536 221.812 349.271 221.013 348.741 220.436C348.217 219.859 347.491 219.571 346.563 219.571C345.933 219.571 345.373 219.71 344.883 219.989C344.399 220.26 344.018 220.655 343.739 221.172C343.468 221.689 343.332 222.315 343.332 223.051ZM368.866 220.764L365.585 221.122C365.492 220.791 365.329 220.479 365.097 220.188C364.872 219.896 364.567 219.661 364.183 219.482C363.798 219.303 363.327 219.213 362.771 219.213C362.022 219.213 361.392 219.375 360.881 219.7C360.378 220.025 360.129 220.446 360.136 220.963C360.129 221.407 360.291 221.768 360.623 222.047C360.961 222.325 361.518 222.554 362.293 222.733L364.898 223.29C366.344 223.601 367.417 224.095 368.12 224.771C368.829 225.447 369.187 226.332 369.194 227.426C369.187 228.387 368.906 229.236 368.349 229.972C367.799 230.701 367.033 231.271 366.052 231.682C365.071 232.093 363.944 232.298 362.671 232.298C360.802 232.298 359.297 231.907 358.157 231.125C357.017 230.336 356.337 229.239 356.119 227.834L359.629 227.496C359.788 228.185 360.126 228.705 360.643 229.057C361.16 229.408 361.833 229.584 362.661 229.584C363.516 229.584 364.202 229.408 364.719 229.057C365.243 228.705 365.505 228.271 365.505 227.754C365.505 227.317 365.336 226.955 364.998 226.67C364.666 226.385 364.149 226.167 363.447 226.014L360.842 225.467C359.377 225.162 358.293 224.649 357.59 223.926C356.888 223.197 356.54 222.276 356.546 221.162C356.54 220.221 356.795 219.405 357.312 218.716C357.835 218.02 358.561 217.483 359.489 217.105C360.424 216.721 361.501 216.528 362.721 216.528C364.511 216.528 365.919 216.91 366.947 217.672C367.981 218.434 368.621 219.465 368.866 220.764Z" fill="#307368"/>
</g>
<path d="M406.5 221.25C406.086 221.25 405.75 221.586 405.75 222C405.75 222.414 406.086 222.75 406.5 222.75V221.25ZM519.302 80.6144C519.009 80.3216 518.534 80.3216 518.241 80.6144L513.468 85.3874C513.176 85.6803 513.176 86.1552 513.468 86.4481C513.761 86.741 514.236 86.741 514.529 86.4481L518.772 82.2054L523.014 86.4481C523.307 86.741 523.782 86.741 524.075 86.4481C524.368 86.1552 524.368 85.6803 524.075 85.3874L519.302 80.6144ZM406.5 222.75H494.772V221.25H406.5V222.75ZM519.522 198V81.1448H518.022V198H519.522ZM494.772 222.75C508.441 222.75 519.522 211.669 519.522 198H518.022C518.022 210.841 507.612 221.25 494.772 221.25V222.75Z" fill="#8F9396"/>
<path d="M170.5 222.75C170.914 222.75 171.25 222.414 171.25 222C171.25 221.586 170.914 221.25 170.5 221.25V222.75ZM46.4697 384.53C46.7626 384.823 47.2374 384.823 47.5303 384.53L52.3033 379.757C52.5962 379.464 52.5962 378.99 52.3033 378.697C52.0104 378.404 51.5355 378.404 51.2426 378.697L47 382.939L42.7574 378.697C42.4645 378.404 41.9896 378.404 41.6967 378.697C41.4038 378.99 41.4038 379.464 41.6967 379.757L46.4697 384.53ZM170.5 221.25H71V222.75H170.5V221.25ZM46.25 246V384H47.75V246H46.25ZM71 221.25C57.331 221.25 46.25 232.331 46.25 246H47.75C47.75 233.159 58.1594 222.75 71 222.75V221.25Z" fill="#8F9396"/>
<path d="M287.75 184C287.75 184.414 288.086 184.75 288.5 184.75C288.914 184.75 289.25 184.414 289.25 184H287.75ZM190.53 89.4697C190.237 89.1768 189.763 89.1768 189.47 89.4697L184.697 94.2426C184.404 94.5355 184.404 95.0104 184.697 95.3033C184.99 95.5962 185.464 95.5962 185.757 95.3033L190 91.0607L194.243 95.3033C194.536 95.5962 195.01 95.5962 195.303 95.3033C195.596 95.0104 195.596 94.5355 195.303 94.2426L190.53 89.4697ZM289.25 184V161H287.75V184H289.25ZM264.5 136.25H214V137.75H264.5V136.25ZM190.75 113V90H189.25V113H190.75ZM214 136.25C201.159 136.25 190.75 125.841 190.75 113H189.25C189.25 126.669 200.331 137.75 214 137.75V136.25ZM289.25 161C289.25 147.331 278.169 136.25 264.5 136.25V137.75C277.341 137.75 287.75 148.159 287.75 161H289.25Z" fill="#8F9396"/>
<path d="M289.25 260C289.25 259.586 288.914 259.25 288.5 259.25C288.086 259.25 287.75 259.586 287.75 260H289.25ZM386.47 354.53C386.763 354.823 387.237 354.823 387.53 354.53L392.303 349.757C392.596 349.464 392.596 348.99 392.303 348.697C392.01 348.404 391.536 348.404 391.243 348.697L387 352.939L382.757 348.697C382.464 348.404 381.99 348.404 381.697 348.697C381.404 348.99 381.404 349.464 381.697 349.757L386.47 354.53ZM287.75 260V283H289.25V260H287.75ZM312.5 307.75H363V306.25H312.5V307.75ZM386.25 331V354H387.75V331H386.25ZM363 307.75C375.841 307.75 386.25 318.159 386.25 331H387.75C387.75 317.331 376.669 306.25 363 306.25V307.75ZM287.75 283C287.75 296.669 298.831 307.75 312.5 307.75V306.25C299.659 306.25 289.25 295.841 289.25 283H287.75Z" fill="#8F9396"/>
<defs>
<filter id="filter0_d_6539_17184" x="166.5" y="184" width="244" height="84" filterUnits="userSpaceOnUse" color-interpolation-filters="sRGB">
<feFlood flood-opacity="0" result="BackgroundImageFix"/>
<feColorMatrix in="SourceAlpha" type="matrix" values="0 0 0 0 0 0 0 0 0 0 0 0 0 0 0 0 0 0 127 0" result="hardAlpha"/>
<feOffset dy="4"/>
<feGaussianBlur stdDeviation="4"/>
<feComposite in2="hardAlpha" operator="out"/>
<feColorMatrix type="matrix" values="0 0 0 0 0 0 0 0 0 0 0 0 0 0 0 0 0 0 0.2 0"/>
<feBlend mode="normal" in2="BackgroundImageFix" result="effect1_dropShadow_6539_17184"/>
<feBlend mode="normal" in="SourceGraphic" in2="effect1_dropShadow_6539_17184" result="shape"/>
</filter>
</defs>
</svg>
