<svg width="91" height="80" viewBox="0 0 91 80" fill="none" xmlns="http://www.w3.org/2000/svg">
<g clip-path="url(#clip0_9585_506)">
<path d="M78.0157 32.8539V62.5927C78.0157 64.4315 77.7112 66.2019 77.186 67.8582C74.9255 74.8864 68.3344 80 60.5787 80H13.3595V32.8539C13.3595 23.2651 21.1913 15.4468 30.7964 15.4468H60.5863C70.1838 15.4468 78.0157 23.2651 78.0157 32.8539Z" fill="#00A68B"/>
<path d="M60.9973 15.2645C60.9973 15.3405 60.9973 15.4164 60.9592 15.4925H56.4763C56.4383 15.4164 56.4383 15.3405 56.4383 15.2645C56.4383 9.36083 51.6204 4.51326 45.6686 4.51326C39.7168 4.51326 34.8989 9.32283 34.8989 15.2645C34.8989 15.3405 34.8989 15.4164 34.8989 15.4925H30.416C30.3779 15.4164 30.3779 15.3405 30.3779 15.2645C30.3779 6.84586 37.2279 0 45.6686 0C54.1093 0 60.9973 6.83827 60.9973 15.2645Z" fill="#00A68B"/>
<path d="M34.9369 15.4088C34.9369 16.6473 33.917 17.6655 32.6764 17.6655C31.4358 17.6655 30.4159 16.6473 30.4159 15.4088H34.9369Z" fill="#00A68B"/>
<path d="M60.9217 15.4088C60.9217 16.6473 59.9017 17.6655 58.6612 17.6655C57.4206 17.6655 56.4006 16.6473 56.4006 15.4088H60.9217Z" fill="#00A68B"/>
<path d="M63.144 50.7095C63.144 60.3742 55.2741 68.2306 45.5928 68.2306C35.9115 68.2306 28.0493 60.3742 28.0493 50.7095" fill="white"/>
</g>
<defs>
<clipPath id="clip0_9585_506">
<rect width="89.5949" height="80" fill="white" transform="translate(0.890137)"/>
</clipPath>
</defs>
</svg>
