<svg width="312" height="80" viewBox="0 0 312 80" fill="none" xmlns="http://www.w3.org/2000/svg">
<g clip-path="url(#clip0_9585_485)">
<g clip-path="url(#clip1_9585_485)">
<path d="M63.9284 32.4843V61.8883C63.9284 63.7065 63.6274 65.4569 63.1081 67.0945C60.873 74.0436 54.3561 79.0996 46.6877 79.0996H0V32.4843C0 23.0034 7.74365 15.2731 17.2407 15.2731H46.6952C56.1847 15.2731 63.9284 23.0034 63.9284 32.4843Z" fill="#00A68B"/>
<path d="M47.1016 15.0928C47.1016 15.1679 47.1017 15.243 47.064 15.3182H42.6316C42.594 15.243 42.594 15.1679 42.594 15.0928C42.594 9.25558 37.8303 4.46258 31.9455 4.46258C26.0607 4.46258 21.297 9.21801 21.297 15.0928C21.297 15.1679 21.297 15.243 21.297 15.3182H16.8646C16.827 15.243 16.827 15.1679 16.827 15.0928C16.827 6.76893 23.5998 0.00012207 31.9455 0.00012207C40.2912 0.00012207 47.1016 6.76142 47.1016 15.0928Z" fill="#00A68B"/>
<path d="M21.3345 15.2355C21.3345 16.46 20.326 17.4667 19.0994 17.4667C17.8728 17.4667 16.8643 16.46 16.8643 15.2355H21.3345Z" fill="#00A68B"/>
<path d="M47.0267 15.2355C47.0267 16.46 46.0183 17.4667 44.7917 17.4667C43.565 17.4667 42.5566 16.46 42.5566 15.2355H47.0267Z" fill="#00A68B"/>
<path d="M49.2241 50.1388C49.2241 59.6947 41.4428 67.4627 31.8705 67.4627C22.2982 67.4627 14.5245 59.6947 14.5245 50.1388" fill="white"/>
<path d="M85.3376 35.4216C84.111 35.4216 83.1026 35.016 82.2823 34.2347C81.4996 33.4159 81.0933 32.4166 81.0933 31.1846C81.0933 29.9601 81.4996 28.9534 82.2823 28.1345C83.065 27.3156 84.1034 26.9475 85.3376 26.9475C86.5718 26.9475 87.5727 27.3532 88.3929 28.1345C89.1756 28.9534 89.5819 29.9525 89.5819 31.1846C89.5819 32.4092 89.1756 33.4159 88.3929 34.2347C87.6103 35.016 86.5643 35.4216 85.3376 35.4216ZM81.8383 72.5186V39.5461H88.9122V72.5186H81.8383Z" fill="black"/>
<path d="M94.8726 72.5185V39.5459H101.126L101.645 45.3456C102.654 43.3021 104.174 41.702 106.153 40.515C108.125 39.3281 110.398 38.7646 112.963 38.7646C116.944 38.7646 120.113 39.9892 122.385 42.4834C124.658 44.9774 125.81 48.6512 125.81 53.5944V72.5485H118.811V54.3381C118.811 47.9449 116.207 44.7821 110.954 44.7821C108.351 44.7821 106.191 45.7137 104.475 47.5693C102.759 49.4249 101.909 52.1069 101.909 55.5626V72.5861H94.8726V72.5185Z" fill="black"/>
<path d="M144.946 72.5185C141.711 72.5185 139.137 71.7372 137.24 70.1745C135.344 68.612 134.374 65.7872 134.374 61.7755V45.4958H128.714V39.5459H134.374V31.1844H141.447V39.5459H150.756V45.4583H141.447V61.7379C141.447 63.556 141.816 64.8256 142.599 65.4942C143.381 66.1629 144.721 66.5385 146.618 66.5385H150.417V72.526L144.946 72.5185Z" fill="black"/>
<path d="M172.572 73.3377C169.336 73.3377 166.469 72.6315 163.932 71.1816C161.442 69.7317 159.463 67.7258 158.048 65.1565C156.633 62.5947 155.925 59.5822 155.925 56.2015C155.925 52.7458 156.633 49.6957 158.01 47.0964C159.424 44.497 161.358 42.4536 163.858 41.0037C166.348 39.5537 169.291 38.8101 172.61 38.8101C175.845 38.8101 178.674 39.5162 181.06 40.9661C183.446 42.416 185.304 44.3093 186.644 46.7282C187.984 49.1097 188.653 51.7466 188.653 54.6464C188.653 55.0897 188.653 55.5781 188.616 56.0588C188.578 56.5772 188.541 57.1332 188.504 57.7717H162.819C163.045 60.9645 164.083 63.3836 165.987 65.0589C167.884 66.7341 170.043 67.5455 172.541 67.5455C174.551 67.5455 176.229 67.1023 177.569 66.1707C178.908 65.2767 179.917 64.0522 180.586 62.4895H187.66C186.765 65.5772 185.019 68.1766 182.37 70.2575C179.759 72.2935 176.485 73.3377 172.572 73.3377ZM172.572 44.5271C170.224 44.5271 168.139 45.2332 166.318 46.608C164.497 48.0204 163.376 50.1014 163.007 52.8886H181.663C181.512 50.3268 180.617 48.2759 178.946 46.7959C177.192 45.3084 175.108 44.5271 172.572 44.5271Z" fill="black"/>
<path d="M195.992 72.5185V39.5459H202.32L202.914 45.7888C204.066 43.6328 205.669 41.8898 207.754 40.6203C209.801 39.3581 212.299 38.7271 215.234 38.7271V46.0894H213.3C211.366 46.0894 209.613 46.4274 208.085 47.0585C206.557 47.6895 205.33 48.7713 204.435 50.3264C203.539 51.8515 203.058 53.97 203.058 56.682V72.5185H195.992Z" fill="black"/>
<path d="M232.482 73.3376C229.69 73.3376 227.38 72.8568 225.559 71.9253C223.737 70.9937 222.39 69.7691 221.502 68.2441C220.606 66.7191 220.163 65.0513 220.163 63.2258C220.163 60.0329 221.39 57.5012 223.888 55.6456C226.378 53.7899 229.923 52.8584 234.536 52.8584H243.175V52.2649C243.175 49.7031 242.468 47.7649 241.09 46.4652C239.676 45.1655 237.892 44.5345 235.657 44.5345C233.723 44.5345 232.007 45.0153 230.555 45.9468C229.103 46.916 228.245 48.2907 227.914 50.184H220.84C221.066 47.8024 221.886 45.759 223.263 44.0537C224.677 42.3409 226.432 41.0411 228.591 40.1547C230.751 39.2607 233.099 38.7799 235.665 38.7799C240.286 38.7799 243.853 39.9669 246.389 42.3859C248.917 44.805 250.189 48.0729 250.189 52.2724V72.5263H243.559L243.446 66.8769C242.513 68.6949 241.174 70.2199 239.39 71.4519C237.697 72.6991 235.348 73.3376 232.482 73.3376ZM233.896 67.6131C235.793 67.6131 237.396 67.1698 238.736 66.2383C240.037 65.3443 241.083 64.1197 241.79 62.6323C242.536 61.1072 242.98 59.4694 243.168 57.6514H235.311C232.519 57.6514 230.548 58.1322 229.351 59.1013C228.162 60.0705 227.598 61.295 227.598 62.7449C227.598 64.2699 228.154 65.4194 229.314 66.3133C230.397 67.1623 231.925 67.6131 233.896 67.6131Z" fill="black"/>
<path d="M256.165 72.5185V24.6786H263.238V53.1887L275.897 39.5459H284.347L270.313 54.4884L286.432 72.5185H277.499L263.238 55.6453V72.5185H256.165Z" fill="black"/>
<path d="M305.681 72.5185C302.446 72.5185 299.872 71.7372 297.975 70.1745C296.079 68.612 295.108 65.7872 295.108 61.7755V45.4958H289.449V39.5459H295.108V31.1844H302.182V39.5459H311.491V45.4583H302.182V61.7379C302.182 63.556 302.551 64.8256 303.333 65.4942C304.116 66.1629 305.455 66.5385 307.352 66.5385H311.153V72.526L305.681 72.5185Z" fill="black"/>
</g>
</g>
<defs>
<clipPath id="clip0_9585_485">
<rect width="312" height="80" fill="white"/>
</clipPath>
<clipPath id="clip1_9585_485">
<rect width="312" height="80" fill="white"/>
</clipPath>
</defs>
</svg>
