<svg width="500" height="350" viewBox="0 0 500 350" fill="none" xmlns="http://www.w3.org/2000/svg">
<path d="M161.446 154.487L149.523 144.082L230.343 73.4211L264.516 103.28L313.458 60.4893L325.38 70.8942L264.516 124.127L230.343 94.2496L161.446 154.487Z" fill="#DBEAF6"/>
<path d="M300.218 56.5131L340.787 47L329.927 82.4697L300.218 56.5131Z" fill="#DBEAF6"/>
<g filter="url(#filter0_d_6423_12832)">
<g clip-path="url(#clip0_6423_12832)">
<rect x="14" y="56" width="220" height="248" rx="8" fill="white"/>
<rect width="220" height="48" transform="translate(14 56)" fill="white"/>
<path d="M32 74C32 72.3431 33.3431 71 35 71H49C50.6569 71 52 72.3431 52 74V83C52 84.6569 50.6569 86 49 86H35C33.3431 86 32 84.6569 32 83V74Z" fill="#F2CA55"/>
<path fill-rule="evenodd" clip-rule="evenodd" d="M39.8499 79C39.8499 80.1874 40.8125 81.15 41.9999 81.15C43.1873 81.15 44.1499 80.1874 44.1499 79H45.8499C45.8499 81.1263 44.1262 82.85 41.9999 82.85C39.8736 82.85 38.1499 81.1263 38.1499 79H39.8499Z" fill="#8C5D00"/>
<path fill-rule="evenodd" clip-rule="evenodd" d="M39.1499 77V74.5H40.8499V77H39.1499ZM43.1499 77V74.5H44.8499V77H43.1499Z" fill="#8C5D00"/>
<path d="M44 86V89L40 86H44Z" fill="#8C5D00"/>
<path d="M63.0114 86V74.3636H65.4716V79.1648H70.4659V74.3636H72.9205V86H70.4659V81.1932H65.4716V86H63.0114ZM78.8807 86.1705C77.983 86.1705 77.2102 85.9886 76.5625 85.625C75.9186 85.2576 75.4223 84.7386 75.0739 84.0682C74.7254 83.3939 74.5511 82.5966 74.5511 81.6761C74.5511 80.7784 74.7254 79.9905 75.0739 79.3125C75.4223 78.6345 75.9129 78.1061 76.5455 77.7273C77.1818 77.3485 77.928 77.1591 78.7841 77.1591C79.3598 77.1591 79.8958 77.2519 80.392 77.4375C80.892 77.6193 81.3277 77.8939 81.6989 78.2614C82.0739 78.6288 82.3655 79.0909 82.5739 79.6477C82.7822 80.2008 82.8864 80.8485 82.8864 81.5909V82.2557H75.517V80.7557H80.608C80.608 80.4072 80.5322 80.0985 80.3807 79.8295C80.2292 79.5606 80.0189 79.3504 79.75 79.1989C79.4848 79.0436 79.1761 78.9659 78.8239 78.9659C78.4564 78.9659 78.1307 79.0511 77.8466 79.2216C77.5663 79.3883 77.3466 79.6136 77.1875 79.8977C77.0284 80.178 76.947 80.4905 76.9432 80.8352V82.2614C76.9432 82.6932 77.0227 83.0663 77.1818 83.3807C77.3447 83.6951 77.5739 83.9375 77.8693 84.108C78.1648 84.2784 78.5152 84.3636 78.9205 84.3636C79.1894 84.3636 79.4356 84.3258 79.6591 84.25C79.8826 84.1742 80.0739 84.0606 80.233 83.9091C80.392 83.7576 80.5133 83.572 80.5966 83.3523L82.8352 83.5C82.7216 84.0379 82.4886 84.5076 82.1364 84.9091C81.7879 85.3068 81.3371 85.6174 80.7841 85.8409C80.2348 86.0606 79.6004 86.1705 78.8807 86.1705ZM86.8864 74.3636V86H84.4659V74.3636H86.8864ZM91.2457 74.3636V86H88.8253V74.3636H91.2457ZM97.1278 86.1705C96.2453 86.1705 95.482 85.983 94.8381 85.608C94.1979 85.2292 93.7036 84.7027 93.3551 84.0284C93.0066 83.3504 92.8324 82.5644 92.8324 81.6705C92.8324 80.7689 93.0066 79.9811 93.3551 79.3068C93.7036 78.6288 94.1979 78.1023 94.8381 77.7273C95.482 77.3485 96.2453 77.1591 97.1278 77.1591C98.0104 77.1591 98.7718 77.3485 99.4119 77.7273C100.056 78.1023 100.552 78.6288 100.901 79.3068C101.249 79.9811 101.423 80.7689 101.423 81.6705C101.423 82.5644 101.249 83.3504 100.901 84.0284C100.552 84.7027 100.056 85.2292 99.4119 85.608C98.7718 85.983 98.0104 86.1705 97.1278 86.1705ZM97.1392 84.2955C97.5407 84.2955 97.8759 84.1818 98.1449 83.9545C98.4138 83.7235 98.6165 83.4091 98.7528 83.0114C98.893 82.6136 98.9631 82.161 98.9631 81.6534C98.9631 81.1458 98.893 80.6932 98.7528 80.2955C98.6165 79.8977 98.4138 79.5833 98.1449 79.3523C97.8759 79.1212 97.5407 79.0057 97.1392 79.0057C96.7339 79.0057 96.393 79.1212 96.1165 79.3523C95.8438 79.5833 95.6373 79.8977 95.4972 80.2955C95.3608 80.6932 95.2926 81.1458 95.2926 81.6534C95.2926 82.161 95.3608 82.6136 95.4972 83.0114C95.6373 83.4091 95.8438 83.7235 96.1165 83.9545C96.393 84.1818 96.7339 84.2955 97.1392 84.2955Z" fill="#212528"/>
<path d="M117.175 76.9126L121 80.7293L124.825 76.9126L126 78.0876L121 83.0876L116 78.0876L117.175 76.9126Z" fill="#5D6164"/>
<rect width="220" height="40" transform="translate(14 104)" fill="white"/>
<path d="M45.8333 116.5H34.1667C33.25 116.5 32.5 117.25 32.5 118.167V129.833C32.5 130.75 33.2417 131.5 34.1667 131.5H45.8333C46.75 131.5 47.5 130.75 47.5 129.833V118.167C47.5 117.25 46.75 116.5 45.8333 116.5ZM45.8333 129.833H34.1667V127.333H37.1333C37.7083 128.325 38.775 129 40.0083 129C41.2417 129 42.3 128.325 42.8833 127.333H45.8333V129.833ZM45.8333 125.667H41.675C41.675 126.583 40.925 127.333 40.0083 127.333C39.0917 127.333 38.3417 126.583 38.3417 125.667H34.1667V118.167H45.8333V125.667Z" fill="#5D6164"/>
<rect x="66" y="116" width="100" height="16" rx="4" fill="#7B7F82" fill-opacity="0.1"/>
<rect width="220" height="40" transform="translate(14 144)" fill="#F2BE55" fill-opacity="0.17"/>
<path d="M45.8333 156.5H34.1667C33.25 156.5 32.5 157.25 32.5 158.167V169.833C32.5 170.75 33.25 171.5 34.1667 171.5H45.8333C46.75 171.5 47.5 170.75 47.5 169.833V158.167C47.5 157.25 46.75 156.5 45.8333 156.5ZM45.8333 169.833H34.1667V158.167H45.8333V169.833Z" fill="#5D6164"/>
<path d="M37.5 164H35.8333V168.167H37.5V164Z" fill="#5D6164"/>
<path d="M44.1667 159.833H42.5V168.167H44.1667V159.833Z" fill="#5D6164"/>
<path d="M40.8333 165.667H39.1667V168.167H40.8333V165.667Z" fill="#5D6164"/>
<path d="M40.8333 162.333H39.1667V164H40.8333V162.333Z" fill="#5D6164"/>
<path d="M67.6506 169H66.358L70.0966 158.818H71.3693L75.108 169H73.8153L70.7727 160.429H70.6932L67.6506 169ZM68.1278 165.023H73.3381V166.116H68.1278V165.023ZM77.7081 164.406V169H76.5348V161.364H77.6683V162.557H77.7678C77.9467 162.169 78.2185 161.857 78.5831 161.622C78.9477 161.384 79.4183 161.264 79.995 161.264C80.5121 161.264 80.9645 161.37 81.3523 161.582C81.7401 161.791 82.0417 162.109 82.2571 162.537C82.4725 162.961 82.5803 163.498 82.5803 164.148V169H81.407V164.227C81.407 163.627 81.2512 163.16 80.9396 162.825C80.6281 162.487 80.2005 162.318 79.657 162.318C79.2824 162.318 78.9477 162.399 78.6527 162.562C78.361 162.724 78.1307 162.961 77.9616 163.273C77.7926 163.584 77.7081 163.962 77.7081 164.406ZM86.9714 169.179C86.4875 169.179 86.0484 169.088 85.6539 168.906C85.2595 168.72 84.9463 168.453 84.7143 168.105C84.4823 167.754 84.3663 167.33 84.3663 166.832C84.3663 166.395 84.4525 166.04 84.6248 165.768C84.7972 165.493 85.0275 165.278 85.3159 165.122C85.6042 164.966 85.9224 164.85 86.2704 164.774C86.6217 164.695 86.9747 164.632 87.3294 164.585C87.7934 164.526 88.1696 164.481 88.4579 164.451C88.7496 164.418 88.9617 164.363 89.0943 164.287C89.2302 164.211 89.2981 164.078 89.2981 163.889V163.849C89.2981 163.359 89.1639 162.978 88.8954 162.706C88.6303 162.434 88.2276 162.298 87.6873 162.298C87.1272 162.298 86.688 162.421 86.3699 162.666C86.0517 162.911 85.8279 163.173 85.6987 163.452L84.585 163.054C84.7839 162.59 85.0491 162.229 85.3805 161.97C85.7153 161.708 86.0798 161.526 86.4743 161.423C86.872 161.317 87.2631 161.264 87.6475 161.264C87.8928 161.264 88.1745 161.294 88.4927 161.354C88.8142 161.41 89.1241 161.528 89.4224 161.707C89.724 161.886 89.9743 162.156 90.1731 162.517C90.372 162.878 90.4714 163.362 90.4714 163.969V169H89.2981V167.966H89.2385C89.1589 168.132 89.0263 168.309 88.8407 168.498C88.6551 168.687 88.4082 168.848 88.1 168.98C87.7917 169.113 87.4155 169.179 86.9714 169.179ZM87.1504 168.125C87.6144 168.125 88.0055 168.034 88.3237 167.852C88.6452 167.669 88.8871 167.434 89.0495 167.146C89.2153 166.857 89.2981 166.554 89.2981 166.236V165.162C89.2484 165.222 89.139 165.276 88.97 165.326C88.8043 165.372 88.612 165.414 88.3933 165.45C88.1779 165.483 87.9674 165.513 87.7619 165.54C87.5597 165.563 87.3957 165.583 87.2697 165.599C86.9648 165.639 86.6797 165.704 86.4146 165.793C86.1528 165.879 85.9406 166.01 85.7782 166.186C85.6191 166.358 85.5396 166.594 85.5396 166.892C85.5396 167.3 85.6904 167.608 85.992 167.817C86.2969 168.022 86.6831 168.125 87.1504 168.125ZM87.1902 160.33L88.4032 158.023H89.7754L88.2243 160.33H87.1902ZM93.7862 158.818V169H92.6129V158.818H93.7862ZM95.9352 169V161.364H97.1085V169H95.9352ZM96.5318 160.091C96.3031 160.091 96.1059 160.013 95.9402 159.857C95.7778 159.701 95.6966 159.514 95.6966 159.295C95.6966 159.077 95.7778 158.889 95.9402 158.734C96.1059 158.578 96.3031 158.5 96.5318 158.5C96.7605 158.5 96.956 158.578 97.1184 158.734C97.2842 158.889 97.367 159.077 97.367 159.295C97.367 159.514 97.2842 159.701 97.1184 159.857C96.956 160.013 96.7605 160.091 96.5318 160.091ZM104.667 163.074L103.613 163.372C103.546 163.196 103.449 163.026 103.319 162.86C103.193 162.691 103.021 162.552 102.802 162.442C102.583 162.333 102.303 162.278 101.962 162.278C101.495 162.278 101.105 162.386 100.794 162.602C100.485 162.814 100.331 163.084 100.331 163.412C100.331 163.704 100.437 163.934 100.65 164.103C100.862 164.272 101.193 164.413 101.644 164.526L102.777 164.804C103.46 164.97 103.969 165.223 104.304 165.565C104.638 165.903 104.806 166.339 104.806 166.872C104.806 167.31 104.68 167.701 104.428 168.045C104.179 168.39 103.831 168.662 103.384 168.861C102.936 169.06 102.416 169.159 101.823 169.159C101.044 169.159 100.399 168.99 99.8888 168.652C99.3784 168.314 99.0553 167.82 98.9194 167.17L100.033 166.892C100.139 167.303 100.34 167.611 100.635 167.817C100.933 168.022 101.322 168.125 101.803 168.125C102.35 168.125 102.784 168.009 103.105 167.777C103.43 167.542 103.593 167.26 103.593 166.932C103.593 166.667 103.5 166.445 103.314 166.266C103.129 166.083 102.844 165.947 102.459 165.858L101.186 165.56C100.487 165.394 99.9734 165.137 99.6452 164.789C99.3204 164.438 99.158 163.999 99.158 163.472C99.158 163.041 99.279 162.66 99.521 162.328C99.7662 161.997 100.099 161.737 100.52 161.548C100.944 161.359 101.425 161.264 101.962 161.264C102.718 161.264 103.311 161.43 103.742 161.761C104.176 162.093 104.484 162.53 104.667 163.074ZM109.774 169.159C109.038 169.159 108.403 168.997 107.869 168.672C107.339 168.344 106.93 167.886 106.642 167.3C106.356 166.71 106.214 166.024 106.214 165.241C106.214 164.459 106.356 163.77 106.642 163.173C106.93 162.573 107.331 162.106 107.845 161.771C108.362 161.433 108.965 161.264 109.654 161.264C110.052 161.264 110.445 161.33 110.833 161.463C111.22 161.596 111.573 161.811 111.892 162.109C112.21 162.404 112.463 162.795 112.652 163.283C112.841 163.77 112.936 164.37 112.936 165.082V165.58H107.049V164.565H111.742C111.742 164.134 111.656 163.75 111.484 163.412C111.315 163.074 111.073 162.807 110.758 162.612C110.446 162.416 110.079 162.318 109.654 162.318C109.187 162.318 108.783 162.434 108.441 162.666C108.103 162.895 107.843 163.193 107.661 163.561C107.478 163.929 107.387 164.323 107.387 164.744V165.42C107.387 165.997 107.487 166.486 107.686 166.887C107.888 167.285 108.168 167.588 108.526 167.797C108.884 168.002 109.3 168.105 109.774 168.105C110.082 168.105 110.36 168.062 110.609 167.976C110.861 167.886 111.078 167.754 111.26 167.578C111.442 167.399 111.583 167.177 111.683 166.912L112.816 167.23C112.697 167.615 112.496 167.953 112.215 168.244C111.933 168.533 111.585 168.758 111.171 168.92C110.756 169.08 110.291 169.159 109.774 169.159Z" fill="#3F4346"/>
<path d="M204.175 167.088L208 163.271L211.825 167.088L213 165.913L208 160.913L203 165.913L204.175 167.088Z" fill="#5D6164"/>
<rect width="220" height="40" transform="translate(14 184)" fill="#F2BE55" fill-opacity="0.17"/>
<path d="M78.4998 197.333V203.167H70.3082L69.8165 203.658L69.3332 204.142V197.333H78.4998ZM79.3332 195.667H68.4998C68.0415 195.667 67.6665 196.042 67.6665 196.5V208.167L70.9998 204.833H79.3332C79.7915 204.833 80.1665 204.458 80.1665 204V196.5C80.1665 196.042 79.7915 195.667 79.3332 195.667ZM83.4998 199H81.8332V206.5H70.9998V208.167C70.9998 208.625 71.3748 209 71.8332 209H80.9998L84.3332 212.333V199.833C84.3332 199.375 83.9582 199 83.4998 199Z" fill="#5D6164"/>
<path d="M103.233 209V198.818H106.793C107.502 198.818 108.087 198.941 108.548 199.186C109.008 199.428 109.351 199.754 109.577 200.165C109.802 200.573 109.915 201.026 109.915 201.523C109.915 201.96 109.837 202.321 109.681 202.607C109.529 202.892 109.326 203.117 109.075 203.283C108.826 203.448 108.556 203.571 108.264 203.651V203.75C108.576 203.77 108.889 203.879 109.204 204.078C109.519 204.277 109.782 204.562 109.994 204.933C110.206 205.304 110.312 205.759 110.312 206.295C110.312 206.806 110.196 207.265 109.964 207.673C109.732 208.08 109.366 208.403 108.866 208.642C108.365 208.881 107.714 209 106.912 209H103.233ZM104.466 207.906H106.912C107.717 207.906 108.289 207.75 108.627 207.439C108.969 207.124 109.139 206.743 109.139 206.295C109.139 205.951 109.051 205.633 108.876 205.341C108.7 205.046 108.45 204.811 108.125 204.635C107.8 204.456 107.416 204.366 106.972 204.366H104.466V207.906ZM104.466 203.293H106.753C107.124 203.293 107.459 203.22 107.757 203.074C108.059 202.928 108.297 202.723 108.473 202.457C108.652 202.192 108.741 201.881 108.741 201.523C108.741 201.075 108.586 200.696 108.274 200.384C107.963 200.069 107.469 199.912 106.793 199.912H104.466V203.293ZM114.426 209.179C113.943 209.179 113.503 209.088 113.109 208.906C112.715 208.72 112.401 208.453 112.169 208.105C111.937 207.754 111.821 207.33 111.821 206.832C111.821 206.395 111.908 206.04 112.08 205.768C112.252 205.493 112.483 205.278 112.771 205.122C113.059 204.966 113.377 204.85 113.725 204.774C114.077 204.695 114.43 204.632 114.784 204.585C115.248 204.526 115.625 204.481 115.913 204.451C116.205 204.418 116.417 204.363 116.549 204.287C116.685 204.211 116.753 204.078 116.753 203.889V203.849C116.753 203.359 116.619 202.978 116.35 202.706C116.085 202.434 115.683 202.298 115.142 202.298C114.582 202.298 114.143 202.421 113.825 202.666C113.507 202.911 113.283 203.173 113.154 203.452L112.04 203.054C112.239 202.59 112.504 202.229 112.836 201.97C113.17 201.708 113.535 201.526 113.929 201.423C114.327 201.317 114.718 201.264 115.103 201.264C115.348 201.264 115.63 201.294 115.948 201.354C116.269 201.41 116.579 201.528 116.877 201.707C117.179 201.886 117.429 202.156 117.628 202.517C117.827 202.878 117.926 203.362 117.926 203.969V209H116.753V207.966H116.694C116.614 208.132 116.481 208.309 116.296 208.498C116.11 208.687 115.863 208.848 115.555 208.98C115.247 209.113 114.871 209.179 114.426 209.179ZM114.605 208.125C115.069 208.125 115.461 208.034 115.779 207.852C116.1 207.669 116.342 207.434 116.505 207.146C116.67 206.857 116.753 206.554 116.753 206.236V205.162C116.703 205.222 116.594 205.276 116.425 205.326C116.259 205.372 116.067 205.414 115.848 205.45C115.633 205.483 115.422 205.513 115.217 205.54C115.015 205.563 114.851 205.583 114.725 205.599C114.42 205.639 114.135 205.704 113.87 205.793C113.608 205.879 113.396 206.01 113.233 206.186C113.074 206.358 112.995 206.594 112.995 206.892C112.995 207.3 113.145 207.608 113.447 207.817C113.752 208.022 114.138 208.125 114.605 208.125ZM123.389 201.364V202.358H119.432V201.364H123.389ZM120.585 199.534H121.758V206.812C121.758 207.144 121.806 207.393 121.903 207.558C122.002 207.721 122.128 207.83 122.28 207.886C122.436 207.939 122.6 207.966 122.773 207.966C122.902 207.966 123.008 207.959 123.091 207.946C123.174 207.929 123.24 207.916 123.29 207.906L123.528 208.96C123.449 208.99 123.338 209.02 123.195 209.05C123.053 209.083 122.872 209.099 122.653 209.099C122.322 209.099 121.997 209.028 121.679 208.886C121.364 208.743 121.102 208.526 120.893 208.234C120.688 207.943 120.585 207.575 120.585 207.131V199.534ZM128.274 209.159C127.538 209.159 126.903 208.997 126.369 208.672C125.839 208.344 125.43 207.886 125.142 207.3C124.856 206.71 124.714 206.024 124.714 205.241C124.714 204.459 124.856 203.77 125.142 203.173C125.43 202.573 125.831 202.106 126.345 201.771C126.862 201.433 127.465 201.264 128.154 201.264C128.552 201.264 128.945 201.33 129.333 201.463C129.72 201.596 130.073 201.811 130.392 202.109C130.71 202.404 130.963 202.795 131.152 203.283C131.341 203.77 131.436 204.37 131.436 205.082V205.58H125.549V204.565H130.242C130.242 204.134 130.156 203.75 129.984 203.412C129.815 203.074 129.573 202.807 129.258 202.612C128.946 202.416 128.579 202.318 128.154 202.318C127.687 202.318 127.283 202.434 126.941 202.666C126.603 202.895 126.343 203.193 126.161 203.561C125.978 203.929 125.887 204.323 125.887 204.744V205.42C125.887 205.997 125.987 206.486 126.186 206.887C126.388 207.285 126.668 207.588 127.026 207.797C127.384 208.002 127.8 208.105 128.274 208.105C128.582 208.105 128.86 208.062 129.109 207.976C129.361 207.886 129.578 207.754 129.76 207.578C129.942 207.399 130.083 207.177 130.183 206.912L131.316 207.23C131.197 207.615 130.996 207.953 130.715 208.244C130.433 208.533 130.085 208.758 129.671 208.92C129.256 209.08 128.791 209.159 128.274 209.159ZM133.22 209V201.364H134.354V202.517H134.433C134.573 202.139 134.825 201.833 135.189 201.597C135.554 201.362 135.965 201.244 136.422 201.244C136.508 201.244 136.616 201.246 136.745 201.249C136.874 201.253 136.972 201.258 137.039 201.264V202.457C136.999 202.447 136.908 202.433 136.765 202.413C136.626 202.389 136.478 202.378 136.323 202.378C135.951 202.378 135.62 202.456 135.328 202.612C135.04 202.764 134.811 202.976 134.642 203.248C134.477 203.516 134.394 203.823 134.394 204.168V209H133.22ZM142.367 211.864V201.364H143.5V202.577H143.64C143.726 202.444 143.845 202.275 143.998 202.07C144.153 201.861 144.375 201.675 144.664 201.513C144.955 201.347 145.35 201.264 145.847 201.264C146.49 201.264 147.057 201.425 147.547 201.746C148.038 202.068 148.421 202.524 148.696 203.114C148.971 203.704 149.108 204.4 149.108 205.202C149.108 206.01 148.971 206.711 148.696 207.305C148.421 207.895 148.039 208.352 147.552 208.677C147.065 208.998 146.503 209.159 145.867 209.159C145.376 209.159 144.984 209.078 144.689 208.915C144.394 208.75 144.167 208.562 144.007 208.354C143.848 208.142 143.726 207.966 143.64 207.827H143.54V211.864H142.367ZM143.52 205.182C143.52 205.759 143.605 206.267 143.774 206.708C143.943 207.146 144.19 207.489 144.515 207.737C144.839 207.982 145.237 208.105 145.708 208.105C146.198 208.105 146.608 207.976 146.936 207.717C147.267 207.455 147.516 207.104 147.681 206.663C147.85 206.219 147.935 205.725 147.935 205.182C147.935 204.645 147.852 204.161 147.686 203.73C147.524 203.296 147.277 202.953 146.946 202.701C146.618 202.446 146.205 202.318 145.708 202.318C145.23 202.318 144.829 202.439 144.505 202.681C144.18 202.92 143.935 203.254 143.769 203.685C143.603 204.113 143.52 204.612 143.52 205.182ZM153.145 209.179C152.661 209.179 152.222 209.088 151.828 208.906C151.433 208.72 151.12 208.453 150.888 208.105C150.656 207.754 150.54 207.33 150.54 206.832C150.54 206.395 150.626 206.04 150.799 205.768C150.971 205.493 151.201 205.278 151.49 205.122C151.778 204.966 152.096 204.85 152.444 204.774C152.796 204.695 153.149 204.632 153.503 204.585C153.967 204.526 154.343 204.481 154.632 204.451C154.923 204.418 155.136 204.363 155.268 204.287C155.404 204.211 155.472 204.078 155.472 203.889V203.849C155.472 203.359 155.338 202.978 155.069 202.706C154.804 202.434 154.401 202.298 153.861 202.298C153.301 202.298 152.862 202.421 152.544 202.666C152.225 202.911 152.002 203.173 151.873 203.452L150.759 203.054C150.958 202.59 151.223 202.229 151.554 201.97C151.889 201.708 152.254 201.526 152.648 201.423C153.046 201.317 153.437 201.264 153.821 201.264C154.067 201.264 154.348 201.294 154.667 201.354C154.988 201.41 155.298 201.528 155.596 201.707C155.898 201.886 156.148 202.156 156.347 202.517C156.546 202.878 156.645 203.362 156.645 203.969V209H155.472V207.966H155.412C155.333 208.132 155.2 208.309 155.015 208.498C154.829 208.687 154.582 208.848 154.274 208.98C153.966 209.113 153.589 209.179 153.145 209.179ZM153.324 208.125C153.788 208.125 154.179 208.034 154.498 207.852C154.819 207.669 155.061 207.434 155.223 207.146C155.389 206.857 155.472 206.554 155.472 206.236V205.162C155.422 205.222 155.313 205.276 155.144 205.326C154.978 205.372 154.786 205.414 154.567 205.45C154.352 205.483 154.141 205.513 153.936 205.54C153.734 205.563 153.569 205.583 153.444 205.599C153.139 205.639 152.854 205.704 152.588 205.793C152.327 205.879 152.114 206.01 151.952 206.186C151.793 206.358 151.713 206.594 151.713 206.892C151.713 207.3 151.864 207.608 152.166 207.817C152.471 208.022 152.857 208.125 153.324 208.125ZM158.787 211.864V201.364H159.92V202.577H160.059C160.146 202.444 160.265 202.275 160.417 202.07C160.573 201.861 160.795 201.675 161.084 201.513C161.375 201.347 161.77 201.264 162.267 201.264C162.91 201.264 163.477 201.425 163.967 201.746C164.458 202.068 164.84 202.524 165.116 203.114C165.391 203.704 165.528 204.4 165.528 205.202C165.528 206.01 165.391 206.711 165.116 207.305C164.84 207.895 164.459 208.352 163.972 208.677C163.485 208.998 162.923 209.159 162.287 209.159C161.796 209.159 161.403 209.078 161.108 208.915C160.814 208.75 160.586 208.562 160.427 208.354C160.268 208.142 160.146 207.966 160.059 207.827H159.96V211.864H158.787ZM159.94 205.182C159.94 205.759 160.025 206.267 160.194 206.708C160.363 207.146 160.61 207.489 160.934 207.737C161.259 207.982 161.657 208.105 162.128 208.105C162.618 208.105 163.028 207.976 163.356 207.717C163.687 207.455 163.936 207.104 164.101 206.663C164.27 206.219 164.355 205.725 164.355 205.182C164.355 204.645 164.272 204.161 164.106 203.73C163.944 203.296 163.697 202.953 163.366 202.701C163.037 202.446 162.625 202.318 162.128 202.318C161.65 202.318 161.249 202.439 160.925 202.681C160.6 202.92 160.354 203.254 160.189 203.685C160.023 204.113 159.94 204.612 159.94 205.182ZM170.42 209.159C169.731 209.159 169.126 208.995 168.606 208.667C168.089 208.339 167.684 207.88 167.393 207.29C167.104 206.7 166.96 206.01 166.96 205.222C166.96 204.426 167.104 203.732 167.393 203.138C167.684 202.545 168.089 202.085 168.606 201.756C169.126 201.428 169.731 201.264 170.42 201.264C171.11 201.264 171.713 201.428 172.23 201.756C172.75 202.085 173.155 202.545 173.443 203.138C173.735 203.732 173.881 204.426 173.881 205.222C173.881 206.01 173.735 206.7 173.443 207.29C173.155 207.88 172.75 208.339 172.23 208.667C171.713 208.995 171.11 209.159 170.42 209.159ZM170.42 208.105C170.944 208.105 171.375 207.971 171.713 207.702C172.051 207.434 172.301 207.081 172.464 206.643C172.626 206.206 172.707 205.732 172.707 205.222C172.707 204.711 172.626 204.236 172.464 203.795C172.301 203.354 172.051 202.998 171.713 202.726C171.375 202.454 170.944 202.318 170.42 202.318C169.897 202.318 169.466 202.454 169.128 202.726C168.79 202.998 168.539 203.354 168.377 203.795C168.215 204.236 168.133 204.711 168.133 205.222C168.133 205.732 168.215 206.206 168.377 206.643C168.539 207.081 168.79 207.434 169.128 207.702C169.466 207.971 169.897 208.105 170.42 208.105Z" fill="#3F4346"/>
<rect width="220" height="40" transform="translate(14 224)" fill="#F2BE55" fill-opacity="0.17"/>
<path d="M83.8415 243.65L76.3415 236.15C76.0415 235.85 75.6248 235.667 75.1665 235.667H69.3332C68.4165 235.667 67.6665 236.417 67.6665 237.333V243.167C67.6665 243.625 67.8498 244.042 68.1582 244.35L75.6582 251.85C75.9582 252.15 76.3748 252.333 76.8332 252.333C77.2915 252.333 77.7082 252.15 78.0082 251.842L83.8415 246.008C84.1498 245.708 84.3332 245.292 84.3332 244.833C84.3332 244.375 84.1415 243.95 83.8415 243.65ZM76.8332 250.675L69.3332 243.167V237.333H75.1665V237.325L82.6665 244.825L76.8332 250.675Z" fill="#5D6164"/>
<path d="M71.4165 240.667C72.1069 240.667 72.6665 240.107 72.6665 239.417C72.6665 238.726 72.1069 238.167 71.4165 238.167C70.7261 238.167 70.1665 238.726 70.1665 239.417C70.1665 240.107 70.7261 240.667 71.4165 240.667Z" fill="#5D6164"/>
<path d="M102.676 239.912V238.818H110.312V239.912H107.111V249H105.878V239.912H102.676ZM113.264 249.179C112.78 249.179 112.341 249.088 111.947 248.906C111.552 248.72 111.239 248.453 111.007 248.105C110.775 247.754 110.659 247.33 110.659 246.832C110.659 246.395 110.745 246.04 110.918 245.768C111.09 245.493 111.32 245.278 111.609 245.122C111.897 244.966 112.215 244.85 112.563 244.774C112.915 244.695 113.268 244.632 113.622 244.585C114.086 244.526 114.463 244.481 114.751 244.451C115.043 244.418 115.255 244.363 115.387 244.287C115.523 244.211 115.591 244.078 115.591 243.889V243.849C115.591 243.359 115.457 242.978 115.188 242.706C114.923 242.434 114.521 242.298 113.98 242.298C113.42 242.298 112.981 242.421 112.663 242.666C112.345 242.911 112.121 243.173 111.992 243.452L110.878 243.054C111.077 242.59 111.342 242.229 111.673 241.97C112.008 241.708 112.373 241.526 112.767 241.423C113.165 241.317 113.556 241.264 113.941 241.264C114.186 241.264 114.468 241.294 114.786 241.354C115.107 241.41 115.417 241.528 115.715 241.707C116.017 241.886 116.267 242.156 116.466 242.517C116.665 242.878 116.764 243.362 116.764 243.969V249H115.591V247.966H115.531C115.452 248.132 115.319 248.309 115.134 248.498C114.948 248.687 114.701 248.848 114.393 248.98C114.085 249.113 113.709 249.179 113.264 249.179ZM113.443 248.125C113.907 248.125 114.298 248.034 114.617 247.852C114.938 247.669 115.18 247.434 115.343 247.146C115.508 246.857 115.591 246.554 115.591 246.236V245.162C115.541 245.222 115.432 245.276 115.263 245.326C115.097 245.372 114.905 245.414 114.686 245.45C114.471 245.483 114.26 245.513 114.055 245.54C113.853 245.563 113.689 245.583 113.563 245.599C113.258 245.639 112.973 245.704 112.708 245.793C112.446 245.879 112.234 246.01 112.071 246.186C111.912 246.358 111.833 246.594 111.833 246.892C111.833 247.3 111.983 247.608 112.285 247.817C112.59 248.022 112.976 248.125 113.443 248.125ZM121.988 252.023C121.422 252.023 120.934 251.95 120.527 251.804C120.119 251.661 119.779 251.473 119.507 251.237C119.239 251.005 119.025 250.757 118.866 250.491L119.801 249.835C119.907 249.974 120.041 250.134 120.203 250.312C120.366 250.495 120.588 250.652 120.87 250.785C121.155 250.921 121.528 250.989 121.988 250.989C122.605 250.989 123.114 250.839 123.515 250.541C123.916 250.243 124.116 249.776 124.116 249.139V247.588H124.017C123.931 247.727 123.808 247.9 123.649 248.105C123.493 248.307 123.268 248.488 122.973 248.647C122.681 248.803 122.287 248.881 121.789 248.881C121.173 248.881 120.619 248.735 120.129 248.443C119.642 248.152 119.256 247.727 118.971 247.17C118.689 246.614 118.548 245.937 118.548 245.142C118.548 244.36 118.685 243.679 118.961 243.099C119.236 242.515 119.618 242.065 120.109 241.746C120.6 241.425 121.166 241.264 121.809 241.264C122.306 241.264 122.701 241.347 122.993 241.513C123.288 241.675 123.513 241.861 123.669 242.07C123.828 242.275 123.95 242.444 124.037 242.577H124.156V241.364H125.289V249.219C125.289 249.875 125.14 250.409 124.842 250.82C124.547 251.234 124.149 251.537 123.649 251.729C123.152 251.925 122.598 252.023 121.988 252.023ZM121.949 247.827C122.419 247.827 122.817 247.719 123.142 247.504C123.467 247.288 123.713 246.978 123.882 246.574C124.051 246.17 124.136 245.686 124.136 245.122C124.136 244.572 124.053 244.086 123.887 243.665C123.722 243.245 123.476 242.915 123.152 242.676C122.827 242.437 122.426 242.318 121.949 242.318C121.451 242.318 121.037 242.444 120.706 242.696C120.377 242.948 120.131 243.286 119.965 243.71C119.802 244.134 119.721 244.605 119.721 245.122C119.721 245.652 119.804 246.121 119.97 246.529C120.139 246.933 120.387 247.252 120.716 247.484C121.047 247.712 121.458 247.827 121.949 247.827Z" fill="#3F4346"/>
<rect width="220" height="40" transform="translate(14 264)" fill="#F2BE55" fill-opacity="0.17"/>
<path d="M72.6668 287.333H79.3335V289H72.6668V287.333ZM72.6668 284H79.3335V285.667H72.6668V284ZM77.6668 275.667H71.0002C70.0835 275.667 69.3335 276.417 69.3335 277.333V290.667C69.3335 291.583 70.0752 292.333 70.9918 292.333H81.0002C81.9168 292.333 82.6668 291.583 82.6668 290.667V280.667L77.6668 275.667ZM81.0002 290.667H71.0002V277.333H76.8335V281.5H81.0002V290.667Z" fill="#5D6164"/>
<path d="M103.233 289V278.818H106.673C107.469 278.818 108.122 278.954 108.632 279.226C109.143 279.494 109.52 279.864 109.766 280.335C110.011 280.805 110.134 281.34 110.134 281.94C110.134 282.54 110.011 283.072 109.766 283.536C109.52 284 109.144 284.365 108.637 284.63C108.13 284.892 107.482 285.023 106.693 285.023H103.909V283.909H106.653C107.197 283.909 107.634 283.83 107.966 283.67C108.301 283.511 108.543 283.286 108.692 282.994C108.844 282.699 108.92 282.348 108.92 281.94C108.92 281.533 108.844 281.176 108.692 280.871C108.539 280.567 108.296 280.331 107.961 280.165C107.626 279.996 107.184 279.912 106.634 279.912H104.466V289H103.233ZM108.026 284.426L110.531 289H109.099L106.634 284.426H108.026ZM115.149 289.159C114.413 289.159 113.778 288.997 113.244 288.672C112.714 288.344 112.305 287.886 112.017 287.3C111.731 286.71 111.589 286.024 111.589 285.241C111.589 284.459 111.731 283.77 112.017 283.173C112.305 282.573 112.706 282.106 113.22 281.771C113.737 281.433 114.34 281.264 115.029 281.264C115.427 281.264 115.82 281.33 116.208 281.463C116.595 281.596 116.948 281.811 117.267 282.109C117.585 282.404 117.838 282.795 118.027 283.283C118.216 283.77 118.311 284.37 118.311 285.082V285.58H112.424V284.565H117.117C117.117 284.134 117.031 283.75 116.859 283.412C116.69 283.074 116.448 282.807 116.133 282.612C115.821 282.416 115.454 282.318 115.029 282.318C114.562 282.318 114.158 282.434 113.816 282.666C113.478 282.895 113.218 283.193 113.036 283.561C112.853 283.929 112.762 284.323 112.762 284.744V285.42C112.762 285.997 112.862 286.486 113.061 286.887C113.263 287.285 113.543 287.588 113.901 287.797C114.259 288.002 114.675 288.105 115.149 288.105C115.457 288.105 115.735 288.062 115.984 287.976C116.236 287.886 116.453 287.754 116.635 287.578C116.817 287.399 116.958 287.177 117.058 286.912L118.191 287.23C118.072 287.615 117.871 287.953 117.59 288.244C117.308 288.533 116.96 288.758 116.546 288.92C116.131 289.08 115.666 289.159 115.149 289.159ZM123.178 292.023C122.611 292.023 122.124 291.95 121.716 291.804C121.308 291.661 120.969 291.473 120.697 291.237C120.428 291.005 120.215 290.757 120.056 290.491L120.99 289.835C121.096 289.974 121.231 290.134 121.393 290.312C121.555 290.495 121.777 290.652 122.059 290.785C122.344 290.921 122.717 290.989 123.178 290.989C123.794 290.989 124.303 290.839 124.704 290.541C125.105 290.243 125.306 289.776 125.306 289.139V287.588H125.206C125.12 287.727 124.997 287.9 124.838 288.105C124.682 288.307 124.457 288.488 124.162 288.647C123.87 288.803 123.476 288.881 122.979 288.881C122.362 288.881 121.809 288.735 121.318 288.443C120.831 288.152 120.445 287.727 120.16 287.17C119.878 286.614 119.737 285.937 119.737 285.142C119.737 284.36 119.875 283.679 120.15 283.099C120.425 282.515 120.808 282.065 121.298 281.746C121.789 281.425 122.356 281.264 122.999 281.264C123.496 281.264 123.89 281.347 124.182 281.513C124.477 281.675 124.702 281.861 124.858 282.07C125.017 282.275 125.14 282.444 125.226 282.577H125.345V281.364H126.479V289.219C126.479 289.875 126.33 290.409 126.031 290.82C125.736 291.234 125.339 291.537 124.838 291.729C124.341 291.925 123.788 292.023 123.178 292.023ZM123.138 287.827C123.609 287.827 124.006 287.719 124.331 287.504C124.656 287.288 124.903 286.978 125.072 286.574C125.241 286.17 125.325 285.686 125.325 285.122C125.325 284.572 125.243 284.086 125.077 283.665C124.911 283.245 124.666 282.915 124.341 282.676C124.016 282.437 123.615 282.318 123.138 282.318C122.641 282.318 122.227 282.444 121.895 282.696C121.567 282.948 121.32 283.286 121.154 283.71C120.992 284.134 120.911 284.605 120.911 285.122C120.911 285.652 120.994 286.121 121.159 286.529C121.328 286.933 121.577 287.252 121.905 287.484C122.236 287.712 122.647 287.827 123.138 287.827ZM128.627 289V281.364H129.8V289H128.627ZM129.223 280.091C128.994 280.091 128.797 280.013 128.632 279.857C128.469 279.701 128.388 279.514 128.388 279.295C128.388 279.077 128.469 278.889 128.632 278.734C128.797 278.578 128.994 278.5 129.223 278.5C129.452 278.5 129.647 278.578 129.81 278.734C129.976 278.889 130.058 279.077 130.058 279.295C130.058 279.514 129.976 279.701 129.81 279.857C129.647 280.013 129.452 280.091 129.223 280.091ZM137.358 283.074L136.304 283.372C136.238 283.196 136.14 283.026 136.011 282.86C135.885 282.691 135.712 282.552 135.494 282.442C135.275 282.333 134.995 282.278 134.653 282.278C134.186 282.278 133.797 282.386 133.485 282.602C133.177 282.814 133.023 283.084 133.023 283.412C133.023 283.704 133.129 283.934 133.341 284.103C133.553 284.272 133.884 284.413 134.335 284.526L135.469 284.804C136.152 284.97 136.66 285.223 136.995 285.565C137.33 285.903 137.497 286.339 137.497 286.872C137.497 287.31 137.371 287.701 137.119 288.045C136.871 288.39 136.523 288.662 136.075 288.861C135.628 289.06 135.107 289.159 134.514 289.159C133.735 289.159 133.091 288.99 132.58 288.652C132.07 288.314 131.747 287.82 131.611 287.17L132.724 286.892C132.83 287.303 133.031 287.611 133.326 287.817C133.624 288.022 134.014 288.125 134.494 288.125C135.041 288.125 135.475 288.009 135.797 287.777C136.122 287.542 136.284 287.26 136.284 286.932C136.284 286.667 136.191 286.445 136.006 286.266C135.82 286.083 135.535 285.947 135.151 285.858L133.878 285.56C133.179 285.394 132.665 285.137 132.337 284.789C132.012 284.438 131.849 283.999 131.849 283.472C131.849 283.041 131.97 282.66 132.212 282.328C132.458 281.997 132.791 281.737 133.212 281.548C133.636 281.359 134.116 281.264 134.653 281.264C135.409 281.264 136.002 281.43 136.433 281.761C136.867 282.093 137.176 282.53 137.358 283.074ZM142.584 281.364V282.358H138.627V281.364H142.584ZM139.78 279.534H140.954V286.812C140.954 287.144 141.002 287.393 141.098 287.558C141.197 287.721 141.323 287.83 141.476 287.886C141.631 287.939 141.796 287.966 141.968 287.966C142.097 287.966 142.203 287.959 142.286 287.946C142.369 287.929 142.435 287.916 142.485 287.906L142.724 288.96C142.644 288.99 142.533 289.02 142.39 289.05C142.248 289.083 142.067 289.099 141.849 289.099C141.517 289.099 141.192 289.028 140.874 288.886C140.559 288.743 140.297 288.526 140.089 288.234C139.883 287.943 139.78 287.575 139.78 287.131V279.534ZM144.349 289V281.364H145.483V282.517H145.562C145.702 282.139 145.953 281.833 146.318 281.597C146.683 281.362 147.094 281.244 147.551 281.244C147.637 281.244 147.745 281.246 147.874 281.249C148.003 281.253 148.101 281.258 148.167 281.264V282.457C148.128 282.447 148.037 282.433 147.894 282.413C147.755 282.389 147.607 282.378 147.452 282.378C147.08 282.378 146.749 282.456 146.457 282.612C146.169 282.764 145.94 282.976 145.771 283.248C145.605 283.516 145.523 283.823 145.523 284.168V289H144.349ZM152.428 289.159C151.739 289.159 151.134 288.995 150.613 288.667C150.096 288.339 149.692 287.88 149.4 287.29C149.112 286.7 148.968 286.01 148.968 285.222C148.968 284.426 149.112 283.732 149.4 283.138C149.692 282.545 150.096 282.085 150.613 281.756C151.134 281.428 151.739 281.264 152.428 281.264C153.117 281.264 153.721 281.428 154.238 281.756C154.758 282.085 155.162 282.545 155.451 283.138C155.742 283.732 155.888 284.426 155.888 285.222C155.888 286.01 155.742 286.7 155.451 287.29C155.162 287.88 154.758 288.339 154.238 288.667C153.721 288.995 153.117 289.159 152.428 289.159ZM152.428 288.105C152.952 288.105 153.383 287.971 153.721 287.702C154.059 287.434 154.309 287.081 154.471 286.643C154.634 286.206 154.715 285.732 154.715 285.222C154.715 284.711 154.634 284.236 154.471 283.795C154.309 283.354 154.059 282.998 153.721 282.726C153.383 282.454 152.952 282.318 152.428 282.318C151.904 282.318 151.474 282.454 151.135 282.726C150.797 282.998 150.547 283.354 150.385 283.795C150.222 284.236 150.141 284.711 150.141 285.222C150.141 285.732 150.222 286.206 150.385 286.643C150.547 287.081 150.797 287.434 151.135 287.702C151.474 287.971 151.904 288.105 152.428 288.105ZM164.5 289.159C163.864 289.159 163.302 288.998 162.815 288.677C162.328 288.352 161.947 287.895 161.672 287.305C161.396 286.711 161.259 286.01 161.259 285.202C161.259 284.4 161.396 283.704 161.672 283.114C161.947 282.524 162.329 282.068 162.82 281.746C163.31 281.425 163.877 281.264 164.52 281.264C165.017 281.264 165.41 281.347 165.699 281.513C165.99 281.675 166.212 281.861 166.365 282.07C166.52 282.275 166.641 282.444 166.728 282.577H166.827V278.818H168V289H166.867V287.827H166.728C166.641 287.966 166.519 288.142 166.36 288.354C166.201 288.562 165.974 288.75 165.679 288.915C165.384 289.078 164.991 289.159 164.5 289.159ZM164.659 288.105C165.13 288.105 165.528 287.982 165.853 287.737C166.177 287.489 166.424 287.146 166.593 286.708C166.762 286.267 166.847 285.759 166.847 285.182C166.847 284.612 166.764 284.113 166.598 283.685C166.433 283.254 166.187 282.92 165.863 282.681C165.538 282.439 165.137 282.318 164.659 282.318C164.162 282.318 163.748 282.446 163.417 282.701C163.088 282.953 162.842 283.296 162.676 283.73C162.513 284.161 162.432 284.645 162.432 285.182C162.432 285.725 162.515 286.219 162.681 286.663C162.85 287.104 163.098 287.455 163.426 287.717C163.758 287.976 164.169 288.105 164.659 288.105ZM173.514 289.159C172.778 289.159 172.143 288.997 171.61 288.672C171.079 288.344 170.67 287.886 170.382 287.3C170.097 286.71 169.954 286.024 169.954 285.241C169.954 284.459 170.097 283.77 170.382 283.173C170.67 282.573 171.071 282.106 171.585 281.771C172.102 281.433 172.705 281.264 173.395 281.264C173.792 281.264 174.185 281.33 174.573 281.463C174.961 281.596 175.314 281.811 175.632 282.109C175.95 282.404 176.203 282.795 176.392 283.283C176.581 283.77 176.676 284.37 176.676 285.082V285.58H170.789V284.565H175.483C175.483 284.134 175.396 283.75 175.224 283.412C175.055 283.074 174.813 282.807 174.498 282.612C174.187 282.416 173.819 282.318 173.395 282.318C172.927 282.318 172.523 282.434 172.181 282.666C171.843 282.895 171.583 283.193 171.401 283.561C171.219 283.929 171.127 284.323 171.127 284.744V285.42C171.127 285.997 171.227 286.486 171.426 286.887C171.628 287.285 171.908 287.588 172.266 287.797C172.624 288.002 173.04 288.105 173.514 288.105C173.822 288.105 174.1 288.062 174.349 287.976C174.601 287.886 174.818 287.754 175 287.578C175.183 287.399 175.324 287.177 175.423 286.912L176.556 287.23C176.437 287.615 176.237 287.953 175.955 288.244C175.673 288.533 175.325 288.758 174.911 288.92C174.497 289.08 174.031 289.159 173.514 289.159ZM185.5 289.159C184.784 289.159 184.168 288.99 183.651 288.652C183.134 288.314 182.736 287.848 182.458 287.255C182.179 286.662 182.04 285.984 182.04 285.222C182.04 284.446 182.183 283.762 182.468 283.168C182.756 282.572 183.157 282.106 183.671 281.771C184.188 281.433 184.791 281.264 185.48 281.264C186.017 281.264 186.501 281.364 186.932 281.562C187.363 281.761 187.716 282.04 187.991 282.398C188.266 282.756 188.437 283.173 188.503 283.651H187.33C187.24 283.303 187.042 282.994 186.733 282.726C186.428 282.454 186.017 282.318 185.5 282.318C185.043 282.318 184.642 282.437 184.297 282.676C183.956 282.911 183.689 283.245 183.497 283.675C183.308 284.103 183.213 284.605 183.213 285.182C183.213 285.772 183.306 286.286 183.492 286.723C183.681 287.161 183.946 287.5 184.287 287.742C184.632 287.984 185.036 288.105 185.5 288.105C185.805 288.105 186.082 288.052 186.331 287.946C186.579 287.84 186.79 287.688 186.962 287.489C187.134 287.29 187.257 287.051 187.33 286.773H188.503C188.437 287.223 188.273 287.629 188.011 287.991C187.752 288.349 187.409 288.634 186.982 288.846C186.558 289.055 186.064 289.159 185.5 289.159ZM191.392 284.406V289H190.218V278.818H191.392V282.557H191.491C191.67 282.162 191.939 281.849 192.297 281.617C192.658 281.382 193.138 281.264 193.738 281.264C194.259 281.264 194.714 281.369 195.105 281.577C195.497 281.783 195.8 282.099 196.015 282.527C196.234 282.951 196.343 283.491 196.343 284.148V289H195.17V284.227C195.17 283.621 195.013 283.152 194.698 282.82C194.386 282.486 193.954 282.318 193.4 282.318C193.016 282.318 192.671 282.399 192.366 282.562C192.065 282.724 191.826 282.961 191.65 283.273C191.478 283.584 191.392 283.962 191.392 284.406ZM200.737 289.179C200.253 289.179 199.814 289.088 199.42 288.906C199.025 288.72 198.712 288.453 198.48 288.105C198.248 287.754 198.132 287.33 198.132 286.832C198.132 286.395 198.218 286.04 198.39 285.768C198.563 285.493 198.793 285.278 199.081 285.122C199.37 284.966 199.688 284.85 200.036 284.774C200.387 284.695 200.74 284.632 201.095 284.585C201.559 284.526 201.935 284.481 202.224 284.451C202.515 284.418 202.727 284.363 202.86 284.287C202.996 284.211 203.064 284.078 203.064 283.889V283.849C203.064 283.359 202.93 282.978 202.661 282.706C202.396 282.434 201.993 282.298 201.453 282.298C200.893 282.298 200.454 282.421 200.135 282.666C199.817 282.911 199.594 283.173 199.464 283.452L198.351 283.054C198.55 282.59 198.815 282.229 199.146 281.97C199.481 281.708 199.845 281.526 200.24 281.423C200.638 281.317 201.029 281.264 201.413 281.264C201.658 281.264 201.94 281.294 202.258 281.354C202.58 281.41 202.89 281.528 203.188 281.707C203.49 281.886 203.74 282.156 203.939 282.517C204.138 282.878 204.237 283.362 204.237 283.969V289H203.064V287.966H203.004C202.925 288.132 202.792 288.309 202.606 288.498C202.421 288.687 202.174 288.848 201.866 288.98C201.557 289.113 201.181 289.179 200.737 289.179ZM200.916 288.125C201.38 288.125 201.771 288.034 202.089 287.852C202.411 287.669 202.653 287.434 202.815 287.146C202.981 286.857 203.064 286.554 203.064 286.236V285.162C203.014 285.222 202.905 285.276 202.736 285.326C202.57 285.372 202.378 285.414 202.159 285.45C201.943 285.483 201.733 285.513 201.528 285.54C201.325 285.563 201.161 285.583 201.035 285.599C200.73 285.639 200.445 285.704 200.18 285.793C199.918 285.879 199.706 286.01 199.544 286.186C199.385 286.358 199.305 286.594 199.305 286.892C199.305 287.3 199.456 287.608 199.758 287.817C200.063 288.022 200.449 288.125 200.916 288.125ZM207.234 289.08C206.988 289.08 206.778 288.992 206.602 288.816C206.427 288.64 206.339 288.43 206.339 288.185C206.339 287.939 206.427 287.729 206.602 287.553C206.778 287.378 206.988 287.29 207.234 287.29C207.479 287.29 207.689 287.378 207.865 287.553C208.041 287.729 208.129 287.939 208.129 288.185C208.129 288.347 208.087 288.496 208.004 288.632C207.925 288.768 207.817 288.877 207.681 288.96C207.549 289.04 207.399 289.08 207.234 289.08ZM211.052 289.08C210.807 289.08 210.596 288.992 210.42 288.816C210.245 288.64 210.157 288.43 210.157 288.185C210.157 287.939 210.245 287.729 210.42 287.553C210.596 287.378 210.807 287.29 211.052 287.29C211.297 287.29 211.508 287.378 211.683 287.553C211.859 287.729 211.947 287.939 211.947 288.185C211.947 288.347 211.905 288.496 211.822 288.632C211.743 288.768 211.635 288.877 211.499 288.96C211.367 289.04 211.218 289.08 211.052 289.08ZM214.87 289.08C214.625 289.08 214.414 288.992 214.239 288.816C214.063 288.64 213.975 288.43 213.975 288.185C213.975 287.939 214.063 287.729 214.239 287.553C214.414 287.378 214.625 287.29 214.87 287.29C215.115 287.29 215.326 287.378 215.501 287.553C215.677 287.729 215.765 287.939 215.765 288.185C215.765 288.347 215.723 288.496 215.641 288.632C215.561 288.768 215.453 288.877 215.317 288.96C215.185 289.04 215.036 289.08 214.87 289.08Z" fill="#3F4346"/>
</g>
</g>
<g filter="url(#filter1_d_6423_12832)">
<rect x="254" y="118" width="232" height="40" rx="20" fill="white" shape-rendering="crispEdges"/>
<path d="M275 135.2H278V145H275V135.2ZM280.6 131H283.4V145H280.6V131ZM286.2 139H289V145H286.2V139Z" fill="#5D6164"/>
<path d="M302.176 143L306.448 131.08H308.304L312.576 143H310.896L309.92 140.2H304.832L303.856 143H302.176ZM305.328 138.76H309.424L307.152 132.216H307.6L305.328 138.76ZM313.902 143V134.376H315.358V136.056L315.118 135.912C315.331 135.368 315.673 134.947 316.142 134.648C316.622 134.339 317.182 134.184 317.822 134.184C318.441 134.184 318.99 134.323 319.47 134.6C319.961 134.877 320.345 135.261 320.622 135.752C320.91 136.243 321.054 136.797 321.054 137.416V143H319.55V137.896C319.55 137.416 319.465 137.011 319.294 136.68C319.123 136.349 318.878 136.093 318.558 135.912C318.249 135.72 317.891 135.624 317.486 135.624C317.081 135.624 316.718 135.72 316.398 135.912C316.089 136.093 315.843 136.355 315.662 136.696C315.481 137.027 315.39 137.427 315.39 137.896V143H313.902ZM325.711 143.192C325.146 143.192 324.645 143.091 324.207 142.888C323.781 142.675 323.445 142.387 323.199 142.024C322.954 141.651 322.831 141.224 322.831 140.744C322.831 140.285 322.927 139.875 323.119 139.512C323.322 139.139 323.631 138.824 324.047 138.568C324.474 138.312 325.007 138.131 325.647 138.024L328.847 137.496V138.744L325.983 139.224C325.429 139.32 325.023 139.496 324.767 139.752C324.522 140.008 324.399 140.323 324.399 140.696C324.399 141.048 324.538 141.341 324.815 141.576C325.103 141.811 325.461 141.928 325.887 141.928C326.431 141.928 326.901 141.816 327.295 141.592C327.701 141.357 328.015 141.043 328.239 140.648C328.474 140.253 328.591 139.816 328.591 139.336V137.144C328.591 136.675 328.415 136.296 328.063 136.008C327.722 135.709 327.269 135.56 326.703 135.56C326.213 135.56 325.775 135.688 325.391 135.944C325.018 136.189 324.741 136.52 324.559 136.936L323.263 136.264C323.423 135.869 323.679 135.517 324.031 135.208C324.383 134.888 324.794 134.637 325.263 134.456C325.733 134.275 326.223 134.184 326.735 134.184C327.397 134.184 327.978 134.312 328.479 134.568C328.981 134.813 329.37 135.16 329.647 135.608C329.935 136.045 330.079 136.557 330.079 137.144V143H328.623V141.368L328.895 141.464C328.714 141.805 328.469 142.104 328.159 142.36C327.85 142.616 327.487 142.819 327.071 142.968C326.655 143.117 326.202 143.192 325.711 143.192ZM325.999 132.76L327.263 130.232H329.279L327.487 132.76H325.999ZM332.386 143V130.888H333.874V143H332.386ZM336.183 143V134.376H337.671V143H336.183ZM336.183 133V131.08H337.671V133H336.183ZM343.068 143.192C342.204 143.192 341.452 142.979 340.812 142.552C340.172 142.125 339.719 141.549 339.452 140.824L340.636 140.248C340.881 140.76 341.217 141.165 341.644 141.464C342.071 141.763 342.545 141.912 343.068 141.912C343.537 141.912 343.927 141.8 344.236 141.576C344.545 141.352 344.7 141.059 344.7 140.696C344.7 140.44 344.625 140.237 344.476 140.088C344.337 139.928 344.167 139.805 343.964 139.72C343.761 139.624 343.575 139.555 343.404 139.512L342.108 139.144C341.329 138.92 340.759 138.6 340.396 138.184C340.044 137.768 339.868 137.283 339.868 136.728C339.868 136.216 339.996 135.773 340.252 135.4C340.519 135.016 340.876 134.717 341.324 134.504C341.783 134.291 342.295 134.184 342.86 134.184C343.617 134.184 344.295 134.376 344.892 134.76C345.5 135.144 345.932 135.683 346.188 136.376L344.972 136.936C344.78 136.488 344.492 136.136 344.108 135.88C343.724 135.613 343.292 135.48 342.812 135.48C342.375 135.48 342.028 135.592 341.772 135.816C341.516 136.029 341.388 136.301 341.388 136.632C341.388 136.877 341.452 137.08 341.58 137.24C341.708 137.389 341.863 137.507 342.044 137.592C342.225 137.667 342.401 137.731 342.572 137.784L343.98 138.2C344.684 138.403 345.228 138.717 345.612 139.144C346.007 139.571 346.204 140.083 346.204 140.68C346.204 141.16 346.071 141.592 345.804 141.976C345.537 142.36 345.169 142.659 344.7 142.872C344.231 143.085 343.687 143.192 343.068 143.192ZM352.12 143.192C351.288 143.192 350.547 142.995 349.896 142.6C349.245 142.205 348.733 141.667 348.36 140.984C347.987 140.291 347.8 139.517 347.8 138.664C347.8 137.8 347.981 137.032 348.344 136.36C348.717 135.688 349.219 135.16 349.848 134.776C350.488 134.381 351.203 134.184 351.992 134.184C352.632 134.184 353.197 134.301 353.688 134.536C354.189 134.76 354.611 135.069 354.952 135.464C355.304 135.848 355.571 136.291 355.752 136.792C355.944 137.283 356.04 137.795 356.04 138.328C356.04 138.445 356.029 138.579 356.008 138.728C355.997 138.867 355.981 139 355.96 139.128H348.888V137.848H355.096L354.392 138.424C354.488 137.869 354.435 137.373 354.232 136.936C354.029 136.499 353.731 136.152 353.336 135.896C352.941 135.64 352.493 135.512 351.992 135.512C351.491 135.512 351.032 135.64 350.616 135.896C350.2 136.152 349.875 136.52 349.64 137C349.416 137.469 349.325 138.029 349.368 138.68C349.325 139.309 349.421 139.864 349.656 140.344C349.901 140.813 350.243 141.181 350.68 141.448C351.128 141.704 351.613 141.832 352.136 141.832C352.712 141.832 353.197 141.699 353.592 141.432C353.987 141.165 354.307 140.824 354.552 140.408L355.8 141.048C355.629 141.443 355.363 141.805 355 142.136C354.648 142.456 354.227 142.712 353.736 142.904C353.256 143.096 352.717 143.192 352.12 143.192ZM364.666 143.192C363.855 143.192 363.124 142.995 362.474 142.6C361.834 142.205 361.327 141.667 360.954 140.984C360.58 140.301 360.394 139.539 360.394 138.696C360.394 137.832 360.58 137.064 360.954 136.392C361.327 135.709 361.834 135.171 362.474 134.776C363.124 134.381 363.855 134.184 364.666 134.184C365.38 134.184 366.015 134.339 366.57 134.648C367.124 134.947 367.562 135.352 367.882 135.864L367.642 136.232V130.888H369.146V143H367.69V141.16L367.882 141.416C367.583 141.981 367.146 142.419 366.57 142.728C366.004 143.037 365.37 143.192 364.666 143.192ZM364.794 141.752C365.338 141.752 365.823 141.619 366.25 141.352C366.676 141.085 367.012 140.723 367.258 140.264C367.514 139.795 367.642 139.272 367.642 138.696C367.642 138.109 367.514 137.587 367.258 137.128C367.012 136.659 366.676 136.291 366.25 136.024C365.823 135.757 365.338 135.624 364.794 135.624C364.26 135.624 363.775 135.763 363.338 136.04C362.911 136.307 362.575 136.669 362.33 137.128C362.084 137.576 361.962 138.099 361.962 138.696C361.962 139.272 362.084 139.795 362.33 140.264C362.575 140.723 362.911 141.085 363.338 141.352C363.764 141.619 364.25 141.752 364.794 141.752ZM375.417 143.192C374.585 143.192 373.844 142.995 373.193 142.6C372.542 142.205 372.03 141.667 371.657 140.984C371.284 140.291 371.097 139.517 371.097 138.664C371.097 137.8 371.278 137.032 371.641 136.36C372.014 135.688 372.516 135.16 373.145 134.776C373.785 134.381 374.5 134.184 375.289 134.184C375.929 134.184 376.494 134.301 376.985 134.536C377.486 134.76 377.908 135.069 378.249 135.464C378.601 135.848 378.868 136.291 379.049 136.792C379.241 137.283 379.337 137.795 379.337 138.328C379.337 138.445 379.326 138.579 379.305 138.728C379.294 138.867 379.278 139 379.257 139.128H372.185V137.848H378.393L377.689 138.424C377.785 137.869 377.732 137.373 377.529 136.936C377.326 136.499 377.028 136.152 376.633 135.896C376.238 135.64 375.79 135.512 375.289 135.512C374.788 135.512 374.329 135.64 373.913 135.896C373.497 136.152 373.172 136.52 372.937 137C372.713 137.469 372.622 138.029 372.665 138.68C372.622 139.309 372.718 139.864 372.953 140.344C373.198 140.813 373.54 141.181 373.977 141.448C374.425 141.704 374.91 141.832 375.433 141.832C376.009 141.832 376.494 141.699 376.889 141.432C377.284 141.165 377.604 140.824 377.849 140.408L379.097 141.048C378.926 141.443 378.66 141.805 378.297 142.136C377.945 142.456 377.524 142.712 377.033 142.904C376.553 143.096 376.014 143.192 375.417 143.192ZM388.507 143.192C387.813 143.192 387.179 143.037 386.603 142.728C386.037 142.419 385.6 141.981 385.291 141.416L385.499 141.16V143H384.043V130.888H385.531V136.232L385.307 135.864C385.627 135.352 386.064 134.947 386.619 134.648C387.173 134.339 387.808 134.184 388.523 134.184C389.333 134.184 390.059 134.381 390.699 134.776C391.349 135.171 391.861 135.709 392.235 136.392C392.608 137.064 392.795 137.832 392.795 138.696C392.795 139.539 392.608 140.301 392.235 140.984C391.861 141.667 391.349 142.205 390.699 142.6C390.059 142.995 389.328 143.192 388.507 143.192ZM388.395 141.752C388.939 141.752 389.424 141.619 389.851 141.352C390.277 141.085 390.608 140.723 390.843 140.264C391.088 139.795 391.211 139.272 391.211 138.696C391.211 138.099 391.088 137.576 390.843 137.128C390.608 136.669 390.277 136.307 389.851 136.04C389.424 135.763 388.939 135.624 388.395 135.624C387.851 135.624 387.36 135.757 386.923 136.024C386.496 136.291 386.155 136.659 385.899 137.128C385.653 137.587 385.531 138.109 385.531 138.696C385.531 139.272 385.653 139.795 385.899 140.264C386.155 140.723 386.496 141.085 386.923 141.352C387.36 141.619 387.851 141.752 388.395 141.752ZM397.274 143.192C396.708 143.192 396.207 143.091 395.77 142.888C395.343 142.675 395.007 142.387 394.762 142.024C394.516 141.651 394.394 141.224 394.394 140.744C394.394 140.285 394.49 139.875 394.682 139.512C394.884 139.139 395.194 138.824 395.61 138.568C396.036 138.312 396.57 138.131 397.21 138.024L400.41 137.496V138.744L397.546 139.224C396.991 139.32 396.586 139.496 396.33 139.752C396.084 140.008 395.962 140.323 395.962 140.696C395.962 141.048 396.1 141.341 396.378 141.576C396.666 141.811 397.023 141.928 397.45 141.928C397.994 141.928 398.463 141.816 398.858 141.592C399.263 141.357 399.578 141.043 399.802 140.648C400.036 140.253 400.154 139.816 400.154 139.336V137.144C400.154 136.675 399.978 136.296 399.626 136.008C399.284 135.709 398.831 135.56 398.266 135.56C397.775 135.56 397.338 135.688 396.954 135.944C396.58 136.189 396.303 136.52 396.122 136.936L394.826 136.264C394.986 135.869 395.242 135.517 395.594 135.208C395.946 134.888 396.356 134.637 396.826 134.456C397.295 134.275 397.786 134.184 398.298 134.184C398.959 134.184 399.54 134.312 400.042 134.568C400.543 134.813 400.932 135.16 401.21 135.608C401.498 136.045 401.642 136.557 401.642 137.144V143H400.186V141.368L400.458 141.464C400.276 141.805 400.031 142.104 399.722 142.36C399.412 142.616 399.05 142.819 398.634 142.968C398.218 143.117 397.764 143.192 397.274 143.192ZM407.297 143.096C406.454 143.096 405.803 142.856 405.345 142.376C404.897 141.896 404.673 141.219 404.673 140.344V135.8H403.105V134.376H403.425C403.809 134.376 404.113 134.259 404.337 134.024C404.561 133.789 404.673 133.48 404.673 133.096V132.392H406.161V134.376H408.097V135.8H406.161V140.296C406.161 140.584 406.203 140.835 406.289 141.048C406.385 141.261 406.539 141.432 406.753 141.56C406.966 141.677 407.249 141.736 407.601 141.736C407.675 141.736 407.766 141.731 407.873 141.72C407.99 141.709 408.097 141.699 408.193 141.688V143C408.054 143.032 407.899 143.053 407.729 143.064C407.558 143.085 407.414 143.096 407.297 143.096ZM413.87 143.192C413.038 143.192 412.297 142.995 411.646 142.6C410.995 142.205 410.483 141.667 410.11 140.984C409.737 140.291 409.55 139.517 409.55 138.664C409.55 137.8 409.731 137.032 410.094 136.36C410.467 135.688 410.969 135.16 411.598 134.776C412.238 134.381 412.953 134.184 413.742 134.184C414.382 134.184 414.947 134.301 415.438 134.536C415.939 134.76 416.361 135.069 416.702 135.464C417.054 135.848 417.321 136.291 417.502 136.792C417.694 137.283 417.79 137.795 417.79 138.328C417.79 138.445 417.779 138.579 417.758 138.728C417.747 138.867 417.731 139 417.71 139.128H410.638V137.848H416.846L416.142 138.424C416.238 137.869 416.185 137.373 415.982 136.936C415.779 136.499 415.481 136.152 415.086 135.896C414.691 135.64 414.243 135.512 413.742 135.512C413.241 135.512 412.782 135.64 412.366 135.896C411.95 136.152 411.625 136.52 411.39 137C411.166 137.469 411.075 138.029 411.118 138.68C411.075 139.309 411.171 139.864 411.406 140.344C411.651 140.813 411.993 141.181 412.43 141.448C412.878 141.704 413.363 141.832 413.886 141.832C414.462 141.832 414.947 141.699 415.342 141.432C415.737 141.165 416.057 140.824 416.302 140.408L417.55 141.048C417.379 141.443 417.113 141.805 416.75 142.136C416.398 142.456 415.977 142.712 415.486 142.904C415.006 143.096 414.467 143.192 413.87 143.192ZM419.842 139.368V138.008H425.842V139.368H419.842ZM428.246 146.2V134.376H429.702V136.232L429.51 135.864C429.83 135.352 430.267 134.947 430.822 134.648C431.376 134.339 432.011 134.184 432.726 134.184C433.536 134.184 434.262 134.381 434.902 134.776C435.552 135.171 436.064 135.709 436.438 136.392C436.811 137.064 436.998 137.832 436.998 138.696C436.998 139.539 436.811 140.301 436.438 140.984C436.064 141.667 435.552 142.205 434.902 142.6C434.262 142.995 433.531 143.192 432.71 143.192C432.016 143.192 431.382 143.037 430.806 142.728C430.24 142.419 429.803 141.981 429.494 141.416L429.734 141.16V146.2H428.246ZM432.598 141.752C433.142 141.752 433.627 141.619 434.054 141.352C434.48 141.085 434.811 140.723 435.046 140.264C435.291 139.795 435.414 139.272 435.414 138.696C435.414 138.099 435.291 137.576 435.046 137.128C434.811 136.669 434.48 136.307 434.054 136.04C433.627 135.763 433.142 135.624 432.598 135.624C432.054 135.624 431.563 135.757 431.126 136.024C430.699 136.291 430.358 136.659 430.102 137.128C429.856 137.587 429.734 138.109 429.734 138.696C429.734 139.272 429.856 139.795 430.102 140.264C430.358 140.723 430.699 141.085 431.126 141.352C431.563 141.619 432.054 141.752 432.598 141.752ZM441.477 143.192C440.912 143.192 440.41 143.091 439.973 142.888C439.546 142.675 439.21 142.387 438.965 142.024C438.72 141.651 438.597 141.224 438.597 140.744C438.597 140.285 438.693 139.875 438.885 139.512C439.088 139.139 439.397 138.824 439.813 138.568C440.24 138.312 440.773 138.131 441.413 138.024L444.613 137.496V138.744L441.749 139.224C441.194 139.32 440.789 139.496 440.533 139.752C440.288 140.008 440.165 140.323 440.165 140.696C440.165 141.048 440.304 141.341 440.581 141.576C440.869 141.811 441.226 141.928 441.653 141.928C442.197 141.928 442.666 141.816 443.061 141.592C443.466 141.357 443.781 141.043 444.005 140.648C444.24 140.253 444.357 139.816 444.357 139.336V137.144C444.357 136.675 444.181 136.296 443.829 136.008C443.488 135.709 443.034 135.56 442.469 135.56C441.978 135.56 441.541 135.688 441.157 135.944C440.784 136.189 440.506 136.52 440.325 136.936L439.029 136.264C439.189 135.869 439.445 135.517 439.797 135.208C440.149 134.888 440.56 134.637 441.029 134.456C441.498 134.275 441.989 134.184 442.501 134.184C443.162 134.184 443.744 134.312 444.245 134.568C444.746 134.813 445.136 135.16 445.413 135.608C445.701 136.045 445.845 136.557 445.845 137.144V143H444.389V141.368L444.661 141.464C444.48 141.805 444.234 142.104 443.925 142.36C443.616 142.616 443.253 142.819 442.837 142.968C442.421 143.117 441.968 143.192 441.477 143.192ZM448.152 146.2V134.376H449.608V136.232L449.416 135.864C449.736 135.352 450.173 134.947 450.728 134.648C451.283 134.339 451.917 134.184 452.632 134.184C453.443 134.184 454.168 134.381 454.808 134.776C455.459 135.171 455.971 135.709 456.344 136.392C456.717 137.064 456.904 137.832 456.904 138.696C456.904 139.539 456.717 140.301 456.344 140.984C455.971 141.667 455.459 142.205 454.808 142.6C454.168 142.995 453.437 143.192 452.616 143.192C451.923 143.192 451.288 143.037 450.712 142.728C450.147 142.419 449.709 141.981 449.4 141.416L449.64 141.16V146.2H448.152ZM452.504 141.752C453.048 141.752 453.533 141.619 453.96 141.352C454.387 141.085 454.717 140.723 454.952 140.264C455.197 139.795 455.32 139.272 455.32 138.696C455.32 138.099 455.197 137.576 454.952 137.128C454.717 136.669 454.387 136.307 453.96 136.04C453.533 135.763 453.048 135.624 452.504 135.624C451.96 135.624 451.469 135.757 451.032 136.024C450.605 136.291 450.264 136.659 450.008 137.128C449.763 137.587 449.64 138.109 449.64 138.696C449.64 139.272 449.763 139.795 450.008 140.264C450.264 140.723 450.605 141.085 451.032 141.352C451.469 141.619 451.96 141.752 452.504 141.752ZM462.951 143.192C462.119 143.192 461.367 143 460.695 142.616C460.023 142.221 459.49 141.683 459.095 141C458.7 140.317 458.503 139.544 458.503 138.68C458.503 137.816 458.695 137.048 459.079 136.376C459.474 135.704 460.007 135.171 460.679 134.776C461.351 134.381 462.108 134.184 462.951 134.184C463.783 134.184 464.535 134.381 465.207 134.776C465.879 135.16 466.407 135.688 466.791 136.36C467.186 137.032 467.383 137.805 467.383 138.68C467.383 139.555 467.18 140.333 466.775 141.016C466.37 141.688 465.831 142.221 465.159 142.616C464.498 143 463.762 143.192 462.951 143.192ZM462.951 141.752C463.484 141.752 463.964 141.619 464.391 141.352C464.828 141.085 465.17 140.717 465.415 140.248C465.671 139.779 465.799 139.256 465.799 138.68C465.799 138.093 465.671 137.576 465.415 137.128C465.17 136.669 464.828 136.307 464.391 136.04C463.964 135.763 463.484 135.624 462.951 135.624C462.407 135.624 461.916 135.763 461.479 136.04C461.052 136.307 460.711 136.669 460.455 137.128C460.199 137.576 460.071 138.093 460.071 138.68C460.071 139.256 460.199 139.779 460.455 140.248C460.711 140.717 461.052 141.085 461.479 141.352C461.916 141.619 462.407 141.752 462.951 141.752Z" fill="#212528"/>
</g>
<g filter="url(#filter2_d_6423_12832)">
<rect x="294" y="182" width="192" height="40" rx="20" fill="white" shape-rendering="crispEdges"/>
<path d="M331 198.5C329.55 198.5 328.74 199.94 329.07 201.01L325.52 204.57C325.22 204.48 324.78 204.48 324.48 204.57L321.93 202.02C322.27 200.95 321.46 199.5 320 199.5C318.55 199.5 317.73 200.94 318.07 202.02L313.51 206.57C312.44 206.24 311 207.05 311 208.5C311 209.6 311.9 210.5 313 210.5C314.45 210.5 315.26 209.06 314.93 207.99L319.48 203.43C319.78 203.52 320.22 203.52 320.52 203.43L323.07 205.98C322.73 207.05 323.54 208.5 325 208.5C326.45 208.5 327.27 207.06 326.93 205.98L330.49 202.43C331.56 202.76 333 201.95 333 200.5C333 199.4 332.1 198.5 331 198.5Z" fill="#5D6164"/>
<path d="M325 199.5L325.94 197.43L328 196.5L325.94 195.57L325 193.5L324.08 195.57L322 196.5L324.08 197.43L325 199.5Z" fill="#5D6164"/>
<path d="M313.5 201.5L314 199.5L316 199L314 198.5L313.5 196.5L313 198.5L311 199L313 199.5L313.5 201.5Z" fill="#5D6164"/>
<path d="M342.176 207L346.448 195.08H348.304L352.576 207H350.896L349.92 204.2H344.832L343.856 207H342.176ZM345.328 202.76H349.424L347.152 196.216H347.6L345.328 202.76ZM353.902 207V198.376H355.358V200.056L355.118 199.912C355.331 199.368 355.673 198.947 356.142 198.648C356.622 198.339 357.182 198.184 357.822 198.184C358.441 198.184 358.99 198.323 359.47 198.6C359.961 198.877 360.345 199.261 360.622 199.752C360.91 200.243 361.054 200.797 361.054 201.416V207H359.55V201.896C359.55 201.416 359.465 201.011 359.294 200.68C359.123 200.349 358.878 200.093 358.558 199.912C358.249 199.72 357.891 199.624 357.486 199.624C357.081 199.624 356.718 199.72 356.398 199.912C356.089 200.093 355.843 200.355 355.662 200.696C355.481 201.027 355.39 201.427 355.39 201.896V207H353.902ZM365.711 207.192C365.146 207.192 364.645 207.091 364.207 206.888C363.781 206.675 363.445 206.387 363.199 206.024C362.954 205.651 362.831 205.224 362.831 204.744C362.831 204.285 362.927 203.875 363.119 203.512C363.322 203.139 363.631 202.824 364.047 202.568C364.474 202.312 365.007 202.131 365.647 202.024L368.847 201.496V202.744L365.983 203.224C365.429 203.32 365.023 203.496 364.767 203.752C364.522 204.008 364.399 204.323 364.399 204.696C364.399 205.048 364.538 205.341 364.815 205.576C365.103 205.811 365.461 205.928 365.887 205.928C366.431 205.928 366.901 205.816 367.295 205.592C367.701 205.357 368.015 205.043 368.239 204.648C368.474 204.253 368.591 203.816 368.591 203.336V201.144C368.591 200.675 368.415 200.296 368.063 200.008C367.722 199.709 367.269 199.56 366.703 199.56C366.213 199.56 365.775 199.688 365.391 199.944C365.018 200.189 364.741 200.52 364.559 200.936L363.263 200.264C363.423 199.869 363.679 199.517 364.031 199.208C364.383 198.888 364.794 198.637 365.263 198.456C365.733 198.275 366.223 198.184 366.735 198.184C367.397 198.184 367.978 198.312 368.479 198.568C368.981 198.813 369.37 199.16 369.647 199.608C369.935 200.045 370.079 200.557 370.079 201.144V207H368.623V205.368L368.895 205.464C368.714 205.805 368.469 206.104 368.159 206.36C367.85 206.616 367.487 206.819 367.071 206.968C366.655 207.117 366.202 207.192 365.711 207.192ZM365.999 196.76L367.263 194.232H369.279L367.487 196.76H365.999ZM372.386 207V194.888H373.874V207H372.386ZM376.183 207V198.376H377.671V207H376.183ZM376.183 197V195.08H377.671V197H376.183ZM383.068 207.192C382.204 207.192 381.452 206.979 380.812 206.552C380.172 206.125 379.719 205.549 379.452 204.824L380.636 204.248C380.881 204.76 381.217 205.165 381.644 205.464C382.071 205.763 382.545 205.912 383.068 205.912C383.537 205.912 383.927 205.8 384.236 205.576C384.545 205.352 384.7 205.059 384.7 204.696C384.7 204.44 384.625 204.237 384.476 204.088C384.337 203.928 384.167 203.805 383.964 203.72C383.761 203.624 383.575 203.555 383.404 203.512L382.108 203.144C381.329 202.92 380.759 202.6 380.396 202.184C380.044 201.768 379.868 201.283 379.868 200.728C379.868 200.216 379.996 199.773 380.252 199.4C380.519 199.016 380.876 198.717 381.324 198.504C381.783 198.291 382.295 198.184 382.86 198.184C383.617 198.184 384.295 198.376 384.892 198.76C385.5 199.144 385.932 199.683 386.188 200.376L384.972 200.936C384.78 200.488 384.492 200.136 384.108 199.88C383.724 199.613 383.292 199.48 382.812 199.48C382.375 199.48 382.028 199.592 381.772 199.816C381.516 200.029 381.388 200.301 381.388 200.632C381.388 200.877 381.452 201.08 381.58 201.24C381.708 201.389 381.863 201.507 382.044 201.592C382.225 201.667 382.401 201.731 382.572 201.784L383.98 202.2C384.684 202.403 385.228 202.717 385.612 203.144C386.007 203.571 386.204 204.083 386.204 204.68C386.204 205.16 386.071 205.592 385.804 205.976C385.537 206.36 385.169 206.659 384.7 206.872C384.231 207.085 383.687 207.192 383.068 207.192ZM392.12 207.192C391.288 207.192 390.547 206.995 389.896 206.6C389.245 206.205 388.733 205.667 388.36 204.984C387.987 204.291 387.8 203.517 387.8 202.664C387.8 201.8 387.981 201.032 388.344 200.36C388.717 199.688 389.219 199.16 389.848 198.776C390.488 198.381 391.203 198.184 391.992 198.184C392.632 198.184 393.197 198.301 393.688 198.536C394.189 198.76 394.611 199.069 394.952 199.464C395.304 199.848 395.571 200.291 395.752 200.792C395.944 201.283 396.04 201.795 396.04 202.328C396.04 202.445 396.029 202.579 396.008 202.728C395.997 202.867 395.981 203 395.96 203.128H388.888V201.848H395.096L394.392 202.424C394.488 201.869 394.435 201.373 394.232 200.936C394.029 200.499 393.731 200.152 393.336 199.896C392.941 199.64 392.493 199.512 391.992 199.512C391.491 199.512 391.032 199.64 390.616 199.896C390.2 200.152 389.875 200.52 389.64 201C389.416 201.469 389.325 202.029 389.368 202.68C389.325 203.309 389.421 203.864 389.656 204.344C389.901 204.813 390.243 205.181 390.68 205.448C391.128 205.704 391.613 205.832 392.136 205.832C392.712 205.832 393.197 205.699 393.592 205.432C393.987 205.165 394.307 204.824 394.552 204.408L395.8 205.048C395.629 205.443 395.363 205.805 395 206.136C394.648 206.456 394.227 206.712 393.736 206.904C393.256 207.096 392.717 207.192 392.12 207.192ZM404.666 207.192C403.855 207.192 403.124 206.995 402.474 206.6C401.834 206.205 401.327 205.667 400.954 204.984C400.58 204.301 400.394 203.539 400.394 202.696C400.394 201.832 400.58 201.064 400.954 200.392C401.327 199.709 401.834 199.171 402.474 198.776C403.124 198.381 403.855 198.184 404.666 198.184C405.38 198.184 406.015 198.339 406.57 198.648C407.124 198.947 407.562 199.352 407.882 199.864L407.642 200.232V194.888H409.146V207H407.69V205.16L407.882 205.416C407.583 205.981 407.146 206.419 406.57 206.728C406.004 207.037 405.37 207.192 404.666 207.192ZM404.794 205.752C405.338 205.752 405.823 205.619 406.25 205.352C406.676 205.085 407.012 204.723 407.258 204.264C407.514 203.795 407.642 203.272 407.642 202.696C407.642 202.109 407.514 201.587 407.258 201.128C407.012 200.659 406.676 200.291 406.25 200.024C405.823 199.757 405.338 199.624 404.794 199.624C404.26 199.624 403.775 199.763 403.338 200.04C402.911 200.307 402.575 200.669 402.33 201.128C402.084 201.576 401.962 202.099 401.962 202.696C401.962 203.272 402.084 203.795 402.33 204.264C402.575 204.723 402.911 205.085 403.338 205.352C403.764 205.619 404.25 205.752 404.794 205.752ZM415.417 207.192C414.585 207.192 413.844 206.995 413.193 206.6C412.542 206.205 412.03 205.667 411.657 204.984C411.284 204.291 411.097 203.517 411.097 202.664C411.097 201.8 411.278 201.032 411.641 200.36C412.014 199.688 412.516 199.16 413.145 198.776C413.785 198.381 414.5 198.184 415.289 198.184C415.929 198.184 416.494 198.301 416.985 198.536C417.486 198.76 417.908 199.069 418.249 199.464C418.601 199.848 418.868 200.291 419.049 200.792C419.241 201.283 419.337 201.795 419.337 202.328C419.337 202.445 419.326 202.579 419.305 202.728C419.294 202.867 419.278 203 419.257 203.128H412.185V201.848H418.393L417.689 202.424C417.785 201.869 417.732 201.373 417.529 200.936C417.326 200.499 417.028 200.152 416.633 199.896C416.238 199.64 415.79 199.512 415.289 199.512C414.788 199.512 414.329 199.64 413.913 199.896C413.497 200.152 413.172 200.52 412.937 201C412.713 201.469 412.622 202.029 412.665 202.68C412.622 203.309 412.718 203.864 412.953 204.344C413.198 204.813 413.54 205.181 413.977 205.448C414.425 205.704 414.91 205.832 415.433 205.832C416.009 205.832 416.494 205.699 416.889 205.432C417.284 205.165 417.604 204.824 417.849 204.408L419.097 205.048C418.926 205.443 418.66 205.805 418.297 206.136C417.945 206.456 417.524 206.712 417.033 206.904C416.553 207.096 416.014 207.192 415.417 207.192ZM427.547 207.096C426.704 207.096 426.053 206.856 425.595 206.376C425.147 205.896 424.923 205.219 424.923 204.344V199.8H423.355V198.376H423.675C424.059 198.376 424.363 198.259 424.587 198.024C424.811 197.789 424.923 197.48 424.923 197.096V196.392H426.411V198.376H428.347V199.8H426.411V204.296C426.411 204.584 426.453 204.835 426.539 205.048C426.635 205.261 426.789 205.432 427.003 205.56C427.216 205.677 427.499 205.736 427.851 205.736C427.925 205.736 428.016 205.731 428.123 205.72C428.24 205.709 428.347 205.699 428.443 205.688V207C428.304 207.032 428.149 207.053 427.979 207.064C427.808 207.085 427.664 207.096 427.547 207.096ZM432.805 207.192C432.24 207.192 431.738 207.091 431.301 206.888C430.874 206.675 430.538 206.387 430.293 206.024C430.048 205.651 429.925 205.224 429.925 204.744C429.925 204.285 430.021 203.875 430.213 203.512C430.416 203.139 430.725 202.824 431.141 202.568C431.568 202.312 432.101 202.131 432.741 202.024L435.941 201.496V202.744L433.077 203.224C432.522 203.32 432.117 203.496 431.861 203.752C431.616 204.008 431.493 204.323 431.493 204.696C431.493 205.048 431.632 205.341 431.909 205.576C432.197 205.811 432.554 205.928 432.981 205.928C433.525 205.928 433.994 205.816 434.389 205.592C434.794 205.357 435.109 205.043 435.333 204.648C435.568 204.253 435.685 203.816 435.685 203.336V201.144C435.685 200.675 435.509 200.296 435.157 200.008C434.816 199.709 434.362 199.56 433.797 199.56C433.306 199.56 432.869 199.688 432.485 199.944C432.112 200.189 431.834 200.52 431.653 200.936L430.357 200.264C430.517 199.869 430.773 199.517 431.125 199.208C431.477 198.888 431.888 198.637 432.357 198.456C432.826 198.275 433.317 198.184 433.829 198.184C434.49 198.184 435.072 198.312 435.573 198.568C436.074 198.813 436.464 199.16 436.741 199.608C437.029 200.045 437.173 200.557 437.173 201.144V207H435.717V205.368L435.989 205.464C435.808 205.805 435.562 206.104 435.253 206.36C434.944 206.616 434.581 206.819 434.165 206.968C433.749 207.117 433.296 207.192 432.805 207.192ZM443.592 210.52C442.984 210.52 442.419 210.424 441.896 210.232C441.384 210.04 440.941 209.773 440.568 209.432C440.205 209.101 439.928 208.712 439.736 208.264L441.128 207.624C441.277 208.029 441.56 208.371 441.976 208.648C442.403 208.936 442.936 209.08 443.576 209.08C444.067 209.08 444.509 208.984 444.904 208.792C445.309 208.611 445.629 208.333 445.864 207.96C446.099 207.597 446.216 207.155 446.216 206.632V204.696L446.488 204.984C446.189 205.571 445.757 206.019 445.192 206.328C444.637 206.637 444.024 206.792 443.352 206.792C442.541 206.792 441.816 206.605 441.176 206.232C440.536 205.848 440.035 205.331 439.672 204.68C439.309 204.019 439.128 203.288 439.128 202.488C439.128 201.677 439.309 200.947 439.672 200.296C440.035 199.645 440.531 199.133 441.16 198.76C441.8 198.376 442.525 198.184 443.336 198.184C444.008 198.184 444.616 198.339 445.16 198.648C445.715 198.947 446.157 199.363 446.488 199.896L446.264 200.296V198.376H447.72V206.632C447.72 207.379 447.544 208.045 447.192 208.632C446.84 209.219 446.349 209.677 445.72 210.008C445.101 210.349 444.392 210.52 443.592 210.52ZM443.48 205.352C443.992 205.352 444.451 205.224 444.856 204.968C445.272 204.712 445.603 204.371 445.848 203.944C446.093 203.507 446.216 203.021 446.216 202.488C446.216 201.965 446.093 201.485 445.848 201.048C445.603 200.611 445.272 200.264 444.856 200.008C444.451 199.752 443.992 199.624 443.48 199.624C442.957 199.624 442.483 199.752 442.056 200.008C441.629 200.264 441.293 200.611 441.048 201.048C440.813 201.475 440.696 201.955 440.696 202.488C440.696 203.021 440.813 203.507 441.048 203.944C441.293 204.371 441.624 204.712 442.04 204.968C442.467 205.224 442.947 205.352 443.48 205.352ZM453.115 207.192C452.251 207.192 451.499 206.979 450.859 206.552C450.219 206.125 449.766 205.549 449.499 204.824L450.683 204.248C450.928 204.76 451.264 205.165 451.691 205.464C452.118 205.763 452.592 205.912 453.115 205.912C453.584 205.912 453.974 205.8 454.283 205.576C454.592 205.352 454.747 205.059 454.747 204.696C454.747 204.44 454.672 204.237 454.523 204.088C454.384 203.928 454.214 203.805 454.011 203.72C453.808 203.624 453.622 203.555 453.451 203.512L452.155 203.144C451.376 202.92 450.806 202.6 450.443 202.184C450.091 201.768 449.915 201.283 449.915 200.728C449.915 200.216 450.043 199.773 450.299 199.4C450.566 199.016 450.923 198.717 451.371 198.504C451.83 198.291 452.342 198.184 452.907 198.184C453.664 198.184 454.342 198.376 454.939 198.76C455.547 199.144 455.979 199.683 456.235 200.376L455.019 200.936C454.827 200.488 454.539 200.136 454.155 199.88C453.771 199.613 453.339 199.48 452.859 199.48C452.422 199.48 452.075 199.592 451.819 199.816C451.563 200.029 451.435 200.301 451.435 200.632C451.435 200.877 451.499 201.08 451.627 201.24C451.755 201.389 451.91 201.507 452.091 201.592C452.272 201.667 452.448 201.731 452.619 201.784L454.027 202.2C454.731 202.403 455.275 202.717 455.659 203.144C456.054 203.571 456.251 204.083 456.251 204.68C456.251 205.16 456.118 205.592 455.851 205.976C455.584 206.36 455.216 206.659 454.747 206.872C454.278 207.085 453.734 207.192 453.115 207.192Z" fill="#212528"/>
</g>
<g filter="url(#filter3_d_6423_12832)">
<rect x="254" y="246" width="232" height="40" rx="20" fill="white" shape-rendering="crispEdges"/>
<path d="M289 259V273H275V259H289ZM289 257H275C273.9 257 273 257.9 273 259V273C273 274.1 273.9 275 275 275H289C290.1 275 291 274.1 291 273V259C291 257.9 290.1 257 289 257Z" fill="#5D6164"/>
<path d="M284 271H277V269H284V271ZM287 267H277V265H287V267ZM287 263H277V261H287V263Z" fill="#5D6164"/>
<path d="M303.328 271V259.08H307.536C308.325 259.08 309.019 259.229 309.616 259.528C310.213 259.827 310.677 260.253 311.008 260.808C311.349 261.363 311.52 262.013 311.52 262.76C311.52 263.603 311.307 264.317 310.88 264.904C310.453 265.491 309.877 265.912 309.152 266.168L311.92 271H310.096L307.184 265.832L308.224 266.44H304.896V271H303.328ZM304.896 265H307.584C308.053 265 308.464 264.909 308.816 264.728C309.168 264.547 309.44 264.285 309.632 263.944C309.835 263.603 309.936 263.208 309.936 262.76C309.936 262.301 309.835 261.907 309.632 261.576C309.44 261.235 309.168 260.973 308.816 260.792C308.464 260.611 308.053 260.52 307.584 260.52H304.896V265ZM317.011 271.192C316.179 271.192 315.437 270.995 314.787 270.6C314.136 270.205 313.624 269.667 313.251 268.984C312.877 268.291 312.691 267.517 312.691 266.664C312.691 265.8 312.872 265.032 313.235 264.36C313.608 263.688 314.109 263.16 314.739 262.776C315.379 262.381 316.093 262.184 316.883 262.184C317.523 262.184 318.088 262.301 318.579 262.536C319.08 262.76 319.501 263.069 319.843 263.464C320.195 263.848 320.461 264.291 320.643 264.792C320.835 265.283 320.931 265.795 320.931 266.328C320.931 266.445 320.92 266.579 320.899 266.728C320.888 266.867 320.872 267 320.851 267.128H313.779V265.848H319.987L319.283 266.424C319.379 265.869 319.325 265.373 319.123 264.936C318.92 264.499 318.621 264.152 318.227 263.896C317.832 263.64 317.384 263.512 316.883 263.512C316.381 263.512 315.923 263.64 315.507 263.896C315.091 264.152 314.765 264.52 314.531 265C314.307 265.469 314.216 266.029 314.259 266.68C314.216 267.309 314.312 267.864 314.547 268.344C314.792 268.813 315.133 269.181 315.571 269.448C316.019 269.704 316.504 269.832 317.027 269.832C317.603 269.832 318.088 269.699 318.483 269.432C318.877 269.165 319.197 268.824 319.443 268.408L320.691 269.048C320.52 269.443 320.253 269.805 319.891 270.136C319.539 270.456 319.117 270.712 318.627 270.904C318.147 271.096 317.608 271.192 317.011 271.192ZM326.983 274.52C326.375 274.52 325.809 274.424 325.287 274.232C324.775 274.04 324.332 273.773 323.959 273.432C323.596 273.101 323.319 272.712 323.127 272.264L324.519 271.624C324.668 272.029 324.951 272.371 325.367 272.648C325.793 272.936 326.327 273.08 326.967 273.08C327.457 273.08 327.9 272.984 328.295 272.792C328.7 272.611 329.02 272.333 329.255 271.96C329.489 271.597 329.607 271.155 329.607 270.632V268.696L329.879 268.984C329.58 269.571 329.148 270.019 328.583 270.328C328.028 270.637 327.415 270.792 326.743 270.792C325.932 270.792 325.207 270.605 324.567 270.232C323.927 269.848 323.425 269.331 323.063 268.68C322.7 268.019 322.519 267.288 322.519 266.488C322.519 265.677 322.7 264.947 323.063 264.296C323.425 263.645 323.921 263.133 324.551 262.76C325.191 262.376 325.916 262.184 326.727 262.184C327.399 262.184 328.007 262.339 328.551 262.648C329.105 262.947 329.548 263.363 329.879 263.896L329.655 264.296V262.376H331.111V270.632C331.111 271.379 330.935 272.045 330.583 272.632C330.231 273.219 329.74 273.677 329.111 274.008C328.492 274.349 327.783 274.52 326.983 274.52ZM326.871 269.352C327.383 269.352 327.841 269.224 328.247 268.968C328.663 268.712 328.993 268.371 329.239 267.944C329.484 267.507 329.607 267.021 329.607 266.488C329.607 265.965 329.484 265.485 329.239 265.048C328.993 264.611 328.663 264.264 328.247 264.008C327.841 263.752 327.383 263.624 326.871 263.624C326.348 263.624 325.873 263.752 325.447 264.008C325.02 264.264 324.684 264.611 324.439 265.048C324.204 265.475 324.087 265.955 324.087 266.488C324.087 267.021 324.204 267.507 324.439 267.944C324.684 268.371 325.015 268.712 325.431 268.968C325.857 269.224 326.337 269.352 326.871 269.352ZM333.418 271V262.376H334.906V271H333.418ZM333.418 261V259.08H334.906V261H333.418ZM340.303 271.192C339.439 271.192 338.687 270.979 338.047 270.552C337.407 270.125 336.953 269.549 336.687 268.824L337.871 268.248C338.116 268.76 338.452 269.165 338.879 269.464C339.305 269.763 339.78 269.912 340.303 269.912C340.772 269.912 341.161 269.8 341.471 269.576C341.78 269.352 341.935 269.059 341.935 268.696C341.935 268.44 341.86 268.237 341.711 268.088C341.572 267.928 341.401 267.805 341.199 267.72C340.996 267.624 340.809 267.555 340.639 267.512L339.343 267.144C338.564 266.92 337.993 266.6 337.631 266.184C337.279 265.768 337.103 265.283 337.103 264.728C337.103 264.216 337.231 263.773 337.487 263.4C337.753 263.016 338.111 262.717 338.559 262.504C339.017 262.291 339.529 262.184 340.095 262.184C340.852 262.184 341.529 262.376 342.127 262.76C342.735 263.144 343.167 263.683 343.423 264.376L342.207 264.936C342.015 264.488 341.727 264.136 341.343 263.88C340.959 263.613 340.527 263.48 340.047 263.48C339.609 263.48 339.263 263.592 339.007 263.816C338.751 264.029 338.623 264.301 338.623 264.632C338.623 264.877 338.687 265.08 338.815 265.24C338.943 265.389 339.097 265.507 339.279 265.592C339.46 265.667 339.636 265.731 339.807 265.784L341.215 266.2C341.919 266.403 342.463 266.717 342.847 267.144C343.241 267.571 343.439 268.083 343.439 268.68C343.439 269.16 343.305 269.592 343.039 269.976C342.772 270.36 342.404 270.659 341.935 270.872C341.465 271.085 340.921 271.192 340.303 271.192ZM348.89 271.096C348.048 271.096 347.397 270.856 346.938 270.376C346.49 269.896 346.266 269.219 346.266 268.344V263.8H344.698V262.376H345.018C345.402 262.376 345.706 262.259 345.93 262.024C346.154 261.789 346.266 261.48 346.266 261.096V260.392H347.754V262.376H349.69V263.8H347.754V268.296C347.754 268.584 347.797 268.835 347.882 269.048C347.978 269.261 348.133 269.432 348.346 269.56C348.56 269.677 348.842 269.736 349.194 269.736C349.269 269.736 349.36 269.731 349.466 269.72C349.584 269.709 349.69 269.699 349.786 269.688V271C349.648 271.032 349.493 271.053 349.322 271.064C349.152 271.085 349.008 271.096 348.89 271.096ZM351.73 271V262.376H353.186V263.96L353.026 263.736C353.229 263.245 353.538 262.883 353.954 262.648C354.37 262.403 354.877 262.28 355.474 262.28H356.002V263.688H355.25C354.642 263.688 354.151 263.88 353.778 264.264C353.405 264.637 353.218 265.171 353.218 265.864V271H351.73ZM361.42 271.192C360.588 271.192 359.836 271 359.164 270.616C358.492 270.221 357.959 269.683 357.564 269C357.169 268.317 356.972 267.544 356.972 266.68C356.972 265.816 357.164 265.048 357.548 264.376C357.943 263.704 358.476 263.171 359.148 262.776C359.82 262.381 360.577 262.184 361.42 262.184C362.252 262.184 363.004 262.381 363.676 262.776C364.348 263.16 364.876 263.688 365.26 264.36C365.655 265.032 365.852 265.805 365.852 266.68C365.852 267.555 365.649 268.333 365.244 269.016C364.839 269.688 364.3 270.221 363.628 270.616C362.967 271 362.231 271.192 361.42 271.192ZM361.42 269.752C361.953 269.752 362.433 269.619 362.86 269.352C363.297 269.085 363.639 268.717 363.884 268.248C364.14 267.779 364.268 267.256 364.268 266.68C364.268 266.093 364.14 265.576 363.884 265.128C363.639 264.669 363.297 264.307 362.86 264.04C362.433 263.763 361.953 263.624 361.42 263.624C360.876 263.624 360.385 263.763 359.948 264.04C359.521 264.307 359.18 264.669 358.924 265.128C358.668 265.576 358.54 266.093 358.54 266.68C358.54 267.256 358.668 267.779 358.924 268.248C359.18 268.717 359.521 269.085 359.948 269.352C360.385 269.619 360.876 269.752 361.42 269.752ZM374.478 271.192C373.668 271.192 372.937 270.995 372.286 270.6C371.646 270.205 371.14 269.667 370.766 268.984C370.393 268.301 370.206 267.539 370.206 266.696C370.206 265.832 370.393 265.064 370.766 264.392C371.14 263.709 371.646 263.171 372.286 262.776C372.937 262.381 373.668 262.184 374.478 262.184C375.193 262.184 375.828 262.339 376.382 262.648C376.937 262.947 377.374 263.352 377.694 263.864L377.454 264.232V258.888H378.958V271H377.502V269.16L377.694 269.416C377.396 269.981 376.958 270.419 376.382 270.728C375.817 271.037 375.182 271.192 374.478 271.192ZM374.606 269.752C375.15 269.752 375.636 269.619 376.062 269.352C376.489 269.085 376.825 268.723 377.07 268.264C377.326 267.795 377.454 267.272 377.454 266.696C377.454 266.109 377.326 265.587 377.07 265.128C376.825 264.659 376.489 264.291 376.062 264.024C375.636 263.757 375.15 263.624 374.606 263.624C374.073 263.624 373.588 263.763 373.15 264.04C372.724 264.307 372.388 264.669 372.142 265.128C371.897 265.576 371.774 266.099 371.774 266.696C371.774 267.272 371.897 267.795 372.142 268.264C372.388 268.723 372.724 269.085 373.15 269.352C373.577 269.619 374.062 269.752 374.606 269.752ZM385.229 271.192C384.397 271.192 383.656 270.995 383.005 270.6C382.355 270.205 381.843 269.667 381.469 268.984C381.096 268.291 380.909 267.517 380.909 266.664C380.909 265.8 381.091 265.032 381.453 264.36C381.827 263.688 382.328 263.16 382.957 262.776C383.597 262.381 384.312 262.184 385.101 262.184C385.741 262.184 386.307 262.301 386.797 262.536C387.299 262.76 387.72 263.069 388.061 263.464C388.413 263.848 388.68 264.291 388.861 264.792C389.053 265.283 389.149 265.795 389.149 266.328C389.149 266.445 389.139 266.579 389.117 266.728C389.107 266.867 389.091 267 389.069 267.128H381.997V265.848H388.205L387.501 266.424C387.597 265.869 387.544 265.373 387.341 264.936C387.139 264.499 386.84 264.152 386.445 263.896C386.051 263.64 385.603 263.512 385.101 263.512C384.6 263.512 384.141 263.64 383.725 263.896C383.309 264.152 382.984 264.52 382.749 265C382.525 265.469 382.435 266.029 382.477 266.68C382.435 267.309 382.531 267.864 382.765 268.344C383.011 268.813 383.352 269.181 383.789 269.448C384.237 269.704 384.723 269.832 385.245 269.832C385.821 269.832 386.307 269.699 386.701 269.432C387.096 269.165 387.416 268.824 387.661 268.408L388.909 269.048C388.739 269.443 388.472 269.805 388.109 270.136C387.757 270.456 387.336 270.712 386.845 270.904C386.365 271.096 385.827 271.192 385.229 271.192ZM397.855 271.192C397.012 271.192 396.26 270.995 395.599 270.6C394.948 270.205 394.436 269.667 394.063 268.984C393.69 268.301 393.503 267.533 393.503 266.68C393.503 265.816 393.69 265.048 394.063 264.376C394.436 263.704 394.948 263.171 395.599 262.776C396.26 262.381 397.012 262.184 397.855 262.184C398.42 262.184 398.948 262.285 399.439 262.488C399.93 262.691 400.362 262.963 400.735 263.304C401.108 263.645 401.38 264.045 401.551 264.504L400.223 265.144C400.02 264.696 399.711 264.333 399.295 264.056C398.879 263.768 398.399 263.624 397.855 263.624C397.332 263.624 396.858 263.757 396.431 264.024C396.015 264.291 395.684 264.653 395.439 265.112C395.194 265.571 395.071 266.099 395.071 266.696C395.071 267.272 395.194 267.795 395.439 268.264C395.684 268.723 396.015 269.085 396.431 269.352C396.858 269.619 397.332 269.752 397.855 269.752C398.399 269.752 398.879 269.613 399.295 269.336C399.711 269.048 400.02 268.669 400.223 268.2L401.551 268.872C401.38 269.32 401.108 269.72 400.735 270.072C400.362 270.413 399.93 270.685 399.439 270.888C398.948 271.091 398.42 271.192 397.855 271.192ZM403.496 271V258.888H404.984V264.056L404.712 263.912C404.925 263.368 405.266 262.947 405.736 262.648C406.216 262.339 406.776 262.184 407.416 262.184C408.034 262.184 408.584 262.323 409.064 262.6C409.554 262.877 409.938 263.261 410.216 263.752C410.504 264.243 410.648 264.797 410.648 265.416V271H409.144V265.896C409.144 265.416 409.053 265.011 408.872 264.68C408.701 264.349 408.461 264.093 408.152 263.912C407.842 263.72 407.485 263.624 407.08 263.624C406.685 263.624 406.328 263.72 406.008 263.912C405.688 264.093 405.437 264.355 405.256 264.696C405.074 265.027 404.984 265.427 404.984 265.896V271H403.496ZM415.305 271.192C414.74 271.192 414.238 271.091 413.801 270.888C413.374 270.675 413.038 270.387 412.793 270.024C412.548 269.651 412.425 269.224 412.425 268.744C412.425 268.285 412.521 267.875 412.713 267.512C412.916 267.139 413.225 266.824 413.641 266.568C414.068 266.312 414.601 266.131 415.241 266.024L418.441 265.496V266.744L415.577 267.224C415.022 267.32 414.617 267.496 414.361 267.752C414.116 268.008 413.993 268.323 413.993 268.696C413.993 269.048 414.132 269.341 414.409 269.576C414.697 269.811 415.054 269.928 415.481 269.928C416.025 269.928 416.494 269.816 416.889 269.592C417.294 269.357 417.609 269.043 417.833 268.648C418.068 268.253 418.185 267.816 418.185 267.336V265.144C418.185 264.675 418.009 264.296 417.657 264.008C417.316 263.709 416.862 263.56 416.297 263.56C415.806 263.56 415.369 263.688 414.985 263.944C414.612 264.189 414.334 264.52 414.153 264.936L412.857 264.264C413.017 263.869 413.273 263.517 413.625 263.208C413.977 262.888 414.388 262.637 414.857 262.456C415.326 262.275 415.817 262.184 416.329 262.184C416.99 262.184 417.572 262.312 418.073 262.568C418.574 262.813 418.964 263.16 419.241 263.608C419.529 264.045 419.673 264.557 419.673 265.144V271H418.217V269.368L418.489 269.464C418.308 269.805 418.062 270.104 417.753 270.36C417.444 270.616 417.081 270.819 416.665 270.968C416.249 271.117 415.796 271.192 415.305 271.192ZM421.98 271V262.376H423.436V264.136L423.228 263.864C423.441 263.32 423.783 262.904 424.252 262.616C424.721 262.328 425.249 262.184 425.836 262.184C426.508 262.184 427.111 262.371 427.644 262.744C428.188 263.117 428.561 263.608 428.764 264.216L428.348 264.232C428.572 263.56 428.951 263.053 429.484 262.712C430.017 262.36 430.609 262.184 431.26 262.184C431.857 262.184 432.396 262.323 432.876 262.6C433.367 262.877 433.756 263.261 434.044 263.752C434.332 264.243 434.476 264.797 434.476 265.416V271H432.972V265.896C432.972 265.416 432.887 265.011 432.716 264.68C432.545 264.349 432.311 264.093 432.012 263.912C431.724 263.72 431.383 263.624 430.988 263.624C430.604 263.624 430.257 263.72 429.948 263.912C429.649 264.093 429.409 264.355 429.228 264.696C429.057 265.027 428.972 265.427 428.972 265.896V271H427.468V265.896C427.468 265.416 427.383 265.011 427.212 264.68C427.041 264.349 426.807 264.093 426.508 263.912C426.22 263.72 425.879 263.624 425.484 263.624C425.1 263.624 424.753 263.72 424.444 263.912C424.145 264.093 423.905 264.355 423.724 264.696C423.553 265.027 423.468 265.427 423.468 265.896V271H421.98ZM439.118 271.192C438.552 271.192 438.051 271.091 437.614 270.888C437.187 270.675 436.851 270.387 436.606 270.024C436.36 269.651 436.238 269.224 436.238 268.744C436.238 268.285 436.334 267.875 436.526 267.512C436.728 267.139 437.038 266.824 437.454 266.568C437.88 266.312 438.414 266.131 439.054 266.024L442.254 265.496V266.744L439.39 267.224C438.835 267.32 438.43 267.496 438.174 267.752C437.928 268.008 437.806 268.323 437.806 268.696C437.806 269.048 437.944 269.341 438.222 269.576C438.51 269.811 438.867 269.928 439.294 269.928C439.838 269.928 440.307 269.816 440.702 269.592C441.107 269.357 441.422 269.043 441.646 268.648C441.88 268.253 441.998 267.816 441.998 267.336V265.144C441.998 264.675 441.822 264.296 441.47 264.008C441.128 263.709 440.675 263.56 440.11 263.56C439.619 263.56 439.182 263.688 438.798 263.944C438.424 264.189 438.147 264.52 437.966 264.936L436.67 264.264C436.83 263.869 437.086 263.517 437.438 263.208C437.79 262.888 438.2 262.637 438.67 262.456C439.139 262.275 439.63 262.184 440.141 262.184C440.803 262.184 441.384 262.312 441.886 262.568C442.387 262.813 442.776 263.16 443.054 263.608C443.342 264.045 443.486 264.557 443.486 265.144V271H442.03V269.368L442.302 269.464C442.12 269.805 441.875 270.104 441.566 270.36C441.256 270.616 440.894 270.819 440.478 270.968C440.062 271.117 439.608 271.192 439.118 271.192ZM449.713 271.192C448.902 271.192 448.171 270.995 447.521 270.6C446.881 270.205 446.374 269.667 446.001 268.984C445.627 268.301 445.441 267.539 445.441 266.696C445.441 265.832 445.627 265.064 446.001 264.392C446.374 263.709 446.881 263.171 447.521 262.776C448.171 262.381 448.902 262.184 449.713 262.184C450.427 262.184 451.062 262.339 451.617 262.648C452.171 262.947 452.609 263.352 452.929 263.864L452.689 264.232V258.888H454.193V271H452.737V269.16L452.929 269.416C452.63 269.981 452.193 270.419 451.617 270.728C451.051 271.037 450.417 271.192 449.713 271.192ZM449.841 269.752C450.385 269.752 450.87 269.619 451.297 269.352C451.723 269.085 452.059 268.723 452.305 268.264C452.561 267.795 452.689 267.272 452.689 266.696C452.689 266.109 452.561 265.587 452.305 265.128C452.059 264.659 451.723 264.291 451.297 264.024C450.87 263.757 450.385 263.624 449.841 263.624C449.307 263.624 448.822 263.763 448.385 264.04C447.958 264.307 447.622 264.669 447.377 265.128C447.131 265.576 447.009 266.099 447.009 266.696C447.009 267.272 447.131 267.795 447.377 268.264C447.622 268.723 447.958 269.085 448.385 269.352C448.811 269.619 449.297 269.752 449.841 269.752ZM459.024 271.192C458.458 271.192 457.957 271.091 457.52 270.888C457.093 270.675 456.757 270.387 456.512 270.024C456.266 269.651 456.144 269.224 456.144 268.744C456.144 268.285 456.24 267.875 456.432 267.512C456.634 267.139 456.944 266.824 457.36 266.568C457.786 266.312 458.32 266.131 458.96 266.024L462.16 265.496V266.744L459.296 267.224C458.741 267.32 458.336 267.496 458.08 267.752C457.834 268.008 457.712 268.323 457.712 268.696C457.712 269.048 457.85 269.341 458.128 269.576C458.416 269.811 458.773 269.928 459.2 269.928C459.744 269.928 460.213 269.816 460.608 269.592C461.013 269.357 461.328 269.043 461.552 268.648C461.786 268.253 461.904 267.816 461.904 267.336V265.144C461.904 264.675 461.728 264.296 461.376 264.008C461.034 263.709 460.581 263.56 460.016 263.56C459.525 263.56 459.088 263.688 458.704 263.944C458.33 264.189 458.053 264.52 457.872 264.936L456.576 264.264C456.736 263.869 456.992 263.517 457.344 263.208C457.696 262.888 458.106 262.637 458.576 262.456C459.045 262.275 459.536 262.184 460.048 262.184C460.709 262.184 461.29 262.312 461.792 262.568C462.293 262.813 462.682 263.16 462.96 263.608C463.248 264.045 463.392 264.557 463.392 265.144V271H461.936V269.368L462.208 269.464C462.026 269.805 461.781 270.104 461.472 270.36C461.162 270.616 460.8 270.819 460.384 270.968C459.968 271.117 459.514 271.192 459.024 271.192ZM468.787 271.192C467.923 271.192 467.171 270.979 466.531 270.552C465.891 270.125 465.438 269.549 465.171 268.824L466.355 268.248C466.6 268.76 466.936 269.165 467.363 269.464C467.79 269.763 468.264 269.912 468.787 269.912C469.256 269.912 469.646 269.8 469.955 269.576C470.264 269.352 470.419 269.059 470.419 268.696C470.419 268.44 470.344 268.237 470.195 268.088C470.056 267.928 469.886 267.805 469.683 267.72C469.48 267.624 469.294 267.555 469.123 267.512L467.827 267.144C467.048 266.92 466.478 266.6 466.115 266.184C465.763 265.768 465.587 265.283 465.587 264.728C465.587 264.216 465.715 263.773 465.971 263.4C466.238 263.016 466.595 262.717 467.043 262.504C467.502 262.291 468.014 262.184 468.579 262.184C469.336 262.184 470.014 262.376 470.611 262.76C471.219 263.144 471.651 263.683 471.907 264.376L470.691 264.936C470.499 264.488 470.211 264.136 469.827 263.88C469.443 263.613 469.011 263.48 468.531 263.48C468.094 263.48 467.747 263.592 467.491 263.816C467.235 264.029 467.107 264.301 467.107 264.632C467.107 264.877 467.171 265.08 467.299 265.24C467.427 265.389 467.582 265.507 467.763 265.592C467.944 265.667 468.12 265.731 468.291 265.784L469.699 266.2C470.403 266.403 470.947 266.717 471.331 267.144C471.726 267.571 471.923 268.083 471.923 268.68C471.923 269.16 471.79 269.592 471.523 269.976C471.256 270.36 470.888 270.659 470.419 270.872C469.95 271.085 469.406 271.192 468.787 271.192Z" fill="#212528"/>
</g>
<defs>
<filter id="filter0_d_6423_12832" x="6" y="52" width="236" height="264" filterUnits="userSpaceOnUse" color-interpolation-filters="sRGB">
<feFlood flood-opacity="0" result="BackgroundImageFix"/>
<feColorMatrix in="SourceAlpha" type="matrix" values="0 0 0 0 0 0 0 0 0 0 0 0 0 0 0 0 0 0 127 0" result="hardAlpha"/>
<feOffset dy="4"/>
<feGaussianBlur stdDeviation="4"/>
<feComposite in2="hardAlpha" operator="out"/>
<feColorMatrix type="matrix" values="0 0 0 0 0 0 0 0 0 0 0 0 0 0 0 0 0 0 0.25 0"/>
<feBlend mode="normal" in2="BackgroundImageFix" result="effect1_dropShadow_6423_12832"/>
<feBlend mode="normal" in="SourceGraphic" in2="effect1_dropShadow_6423_12832" result="shape"/>
</filter>
<filter id="filter1_d_6423_12832" x="250" y="118" width="240" height="48" filterUnits="userSpaceOnUse" color-interpolation-filters="sRGB">
<feFlood flood-opacity="0" result="BackgroundImageFix"/>
<feColorMatrix in="SourceAlpha" type="matrix" values="0 0 0 0 0 0 0 0 0 0 0 0 0 0 0 0 0 0 127 0" result="hardAlpha"/>
<feOffset dy="4"/>
<feGaussianBlur stdDeviation="2"/>
<feComposite in2="hardAlpha" operator="out"/>
<feColorMatrix type="matrix" values="0 0 0 0 0 0 0 0 0 0 0 0 0 0 0 0 0 0 0.25 0"/>
<feBlend mode="normal" in2="BackgroundImageFix" result="effect1_dropShadow_6423_12832"/>
<feBlend mode="normal" in="SourceGraphic" in2="effect1_dropShadow_6423_12832" result="shape"/>
</filter>
<filter id="filter2_d_6423_12832" x="290" y="182" width="200" height="48" filterUnits="userSpaceOnUse" color-interpolation-filters="sRGB">
<feFlood flood-opacity="0" result="BackgroundImageFix"/>
<feColorMatrix in="SourceAlpha" type="matrix" values="0 0 0 0 0 0 0 0 0 0 0 0 0 0 0 0 0 0 127 0" result="hardAlpha"/>
<feOffset dy="4"/>
<feGaussianBlur stdDeviation="2"/>
<feComposite in2="hardAlpha" operator="out"/>
<feColorMatrix type="matrix" values="0 0 0 0 0 0 0 0 0 0 0 0 0 0 0 0 0 0 0.25 0"/>
<feBlend mode="normal" in2="BackgroundImageFix" result="effect1_dropShadow_6423_12832"/>
<feBlend mode="normal" in="SourceGraphic" in2="effect1_dropShadow_6423_12832" result="shape"/>
</filter>
<filter id="filter3_d_6423_12832" x="250" y="246" width="240" height="48" filterUnits="userSpaceOnUse" color-interpolation-filters="sRGB">
<feFlood flood-opacity="0" result="BackgroundImageFix"/>
<feColorMatrix in="SourceAlpha" type="matrix" values="0 0 0 0 0 0 0 0 0 0 0 0 0 0 0 0 0 0 127 0" result="hardAlpha"/>
<feOffset dy="4"/>
<feGaussianBlur stdDeviation="2"/>
<feComposite in2="hardAlpha" operator="out"/>
<feColorMatrix type="matrix" values="0 0 0 0 0 0 0 0 0 0 0 0 0 0 0 0 0 0 0.25 0"/>
<feBlend mode="normal" in2="BackgroundImageFix" result="effect1_dropShadow_6423_12832"/>
<feBlend mode="normal" in="SourceGraphic" in2="effect1_dropShadow_6423_12832" result="shape"/>
</filter>
<clipPath id="clip0_6423_12832">
<rect x="14" y="56" width="220" height="248" rx="8" fill="white"/>
</clipPath>
</defs>
</svg>
