<svg width="21" height="24" viewBox="0 0 21 24" fill="none" xmlns="http://www.w3.org/2000/svg">
<path d="M3.5 8.98812V15.0191C3.50212 15.2083 3.46661 15.396 3.39554 15.5713C3.32446 15.7466 3.21924 15.906 3.08598 16.0403C2.95273 16.1746 2.79411 16.281 2.61935 16.3534C2.44459 16.4259 2.25717 16.4628 2.068 16.4621C1.67204 16.4665 1.28935 16.3196 0.997971 16.0514C0.706597 15.7833 0.528497 15.4141 0.5 15.0191V8.98812C0.530685 8.59487 0.709767 8.228 1.00094 7.96189C1.29211 7.69579 1.67358 7.55037 2.068 7.55512C2.44748 7.5567 2.81094 7.70822 3.07918 7.97665C3.34742 8.24507 3.49868 8.60864 3.5 8.98812ZM4.063 17.1651C4.06247 17.3678 4.102 17.5685 4.1793 17.7558C4.25661 17.9432 4.37017 18.1134 4.51346 18.2567C4.65676 18.4 4.82696 18.5135 5.01428 18.5908C5.2016 18.6681 5.40235 18.7077 5.605 18.7071H6.641L6.657 21.8891C6.66688 22.2638 6.82267 22.6198 7.09118 22.8813C7.35968 23.1429 7.71968 23.2892 8.0945 23.2892C8.46931 23.2892 8.82932 23.1429 9.09782 22.8813C9.36633 22.6198 9.52212 22.2638 9.532 21.8891V18.7071H11.47V21.8891C11.47 22.2725 11.6223 22.6402 11.8934 22.9112C12.1645 23.1823 12.5321 23.3346 12.9155 23.3346C13.2989 23.3346 13.6665 23.1823 13.9376 22.9112C14.2087 22.6402 14.361 22.2725 14.361 21.8891V18.7071H15.413C15.6148 18.7065 15.8145 18.6661 16.0007 18.5882C16.1868 18.5103 16.3558 18.3966 16.498 18.2534C16.6402 18.1102 16.7528 17.9403 16.8293 17.7536C16.9058 17.5669 16.9448 17.3669 16.944 17.1651V7.82112H4.063V17.1651ZM16.979 7.31612H4.005C4.02301 6.2309 4.34238 5.17205 4.92742 4.25785C5.51246 3.34365 6.34013 2.61009 7.318 2.13912L6.323 0.301122C6.30987 0.278207 6.30138 0.252929 6.29801 0.226732C6.29465 0.200535 6.29648 0.173933 6.3034 0.148443C6.31032 0.122953 6.32219 0.0990758 6.33833 0.0781738C6.35448 0.0572718 6.37458 0.0397547 6.3975 0.0266225C6.42042 0.0134903 6.44569 0.00500029 6.47189 0.00163718C6.49809 -0.00172593 6.52469 0.000103659 6.55018 0.00702162C6.57567 0.0139396 6.59955 0.0258103 6.62045 0.0419561C6.64135 0.058102 6.65887 0.0782067 6.672 0.101122L7.682 1.95512C8.57141 1.56602 9.5317 1.36515 10.5025 1.36515C11.4733 1.36515 12.4336 1.56602 13.323 1.95512L14.328 0.106122C14.3545 0.0598422 14.3983 0.025993 14.4498 0.0120215C14.5013 -0.00194996 14.5562 0.00510072 14.6025 0.0316224C14.6488 0.058144 14.6826 0.101964 14.6966 0.153443C14.7106 0.204922 14.7035 0.259842 14.677 0.306123L13.682 2.13912C14.6559 2.61352 15.4795 3.34833 16.0615 4.2621C16.6434 5.17587 16.961 6.23293 16.979 7.31612ZM8.089 4.42612C8.089 4.28105 8.03137 4.14192 7.92879 4.03933C7.8262 3.93675 7.68707 3.87912 7.542 3.87912C7.39693 3.87912 7.25779 3.93675 7.15521 4.03933C7.05263 4.14192 6.995 4.28105 6.995 4.42612C6.995 4.5712 7.05263 4.71033 7.15521 4.81291C7.25779 4.91549 7.39693 4.97312 7.542 4.97312C7.68707 4.97312 7.8262 4.91549 7.92879 4.81291C8.03137 4.71033 8.089 4.5712 8.089 4.42612ZM13.995 4.42612C13.9934 4.31954 13.9602 4.21581 13.8997 4.12807C13.8392 4.04033 13.754 3.97251 13.6549 3.93319C13.5558 3.89387 13.4473 3.88481 13.3431 3.90716C13.2388 3.92951 13.1436 3.98226 13.0693 4.05875C12.9951 4.13524 12.9452 4.23202 12.9259 4.33687C12.9067 4.44172 12.9189 4.54992 12.9612 4.64779C13.0034 4.74566 13.0738 4.8288 13.1633 4.88671C13.2528 4.94462 13.3574 4.97469 13.464 4.97312C13.6065 4.96972 13.742 4.91049 13.8413 4.80819C13.9406 4.70589 13.9958 4.56869 13.995 4.42612ZM18.932 7.55512C18.7438 7.55459 18.5574 7.59127 18.3834 7.66305C18.2094 7.73483 18.0513 7.84029 17.9182 7.97337C17.7852 8.10645 17.6797 8.26452 17.6079 8.4385C17.5362 8.61247 17.4995 8.79892 17.5 8.98712V15.0181C17.4992 15.2069 17.5356 15.394 17.6072 15.5687C17.6787 15.7434 17.784 15.9023 17.917 16.0363C18.05 16.1704 18.2081 16.2768 18.3822 16.3497C18.5564 16.4226 18.7432 16.4605 18.932 16.4611C19.3282 16.4664 19.7115 16.3199 20.003 16.0515C20.2946 15.7832 20.4724 15.4134 20.5 15.0181V8.98812C20.4721 8.59381 20.2939 8.22525 20.0021 7.95858C19.7103 7.6919 19.3272 7.54747 18.932 7.55512Z" fill="#D5D9DC"/>
</svg>
