<svg width="21" height="25" viewBox="0 0 21 25" fill="none" xmlns="http://www.w3.org/2000/svg">
<path d="M15.3515 5.61816C13.2515 5.61816 12.3645 6.64916 10.9015 6.64916C9.40154 6.64916 8.25754 5.62416 6.43954 5.62416C5.43812 5.68461 4.46735 5.99262 3.61426 6.52056C2.76116 7.04851 2.05241 7.7799 1.55154 8.64916C-0.142462 11.3362 0.145538 16.3972 2.88854 20.7112C3.86954 22.2552 5.18254 23.9862 6.90054 24.0052H6.93154C8.42554 24.0052 8.86854 22.9992 10.9245 22.9862H10.9555C12.9805 22.9862 13.3865 23.9982 14.8735 23.9982H14.9045C16.6235 23.9792 18.0045 22.0612 18.9855 20.5232C19.5817 19.6032 20.0881 18.6281 20.4975 17.6112C19.5762 17.2332 18.7787 16.6054 18.1949 15.7985C17.6111 14.9916 17.2643 14.0377 17.1935 13.0444C17.1227 12.051 17.3308 11.0576 17.7942 10.1761C18.2577 9.29455 18.9581 8.56 19.8165 8.05516C19.3024 7.34044 18.6342 6.75037 17.8614 6.32856C17.0885 5.90675 16.2308 5.66397 15.3515 5.61816Z" fill="#D5D9DC"/>
<path d="M14.8874 0C13.4899 0.174771 12.2139 0.88229 11.3254 1.975C10.8808 2.49443 10.5481 3.1 10.3481 3.75384C10.1482 4.40768 10.0853 5.09574 10.1634 5.775H10.2634C10.9473 5.73811 11.6146 5.55023 12.2174 5.22483C12.8201 4.89943 13.3433 4.4446 13.7494 3.893C14.6276 2.79637 15.0367 1.397 14.8874 0Z" fill="#D5D9DC"/>
</svg>
