<svg width="24" height="24" viewBox="0 0 24 24" fill="none" xmlns="http://www.w3.org/2000/svg">
<path d="M7.82522 9.53786C7.4886 9.87448 7.43869 10.4035 7.70822 10.7958C8.15246 11.4425 8.95663 12.4946 10.2305 13.7685C11.5043 15.0424 12.5564 15.8465 13.2031 16.2907C13.5954 16.5603 14.1244 16.5103 14.461 16.1737L15.4973 15.1374C15.9494 14.6853 16.6825 14.6853 17.1346 15.1374L19.3136 17.3164C20.0347 18.0375 20.0347 19.2063 19.3139 19.9271L17.9751 21.2659C17.9751 21.2659 14.6232 24.6178 7.00221 16.9968C-0.618771 9.37568 2.73312 6.02374 2.73312 6.02374L4.07193 4.68491C4.79275 3.96408 5.96143 3.96408 6.68221 4.68491L8.8615 6.86424C9.31361 7.31635 9.31361 8.0494 8.8615 8.50152L7.82522 9.53786Z" fill="#6161FF"/>
<path d="M18.1599 12.3825C18.0426 12.2652 17.9753 12.0994 17.9889 11.9213C17.9958 11.8213 18.1209 9.65519 16.2149 7.74914C14.4214 5.95569 12.0341 5.97629 12.0103 5.97672C11.6857 5.9824 11.4169 5.72447 11.4103 5.39992C11.4037 5.07542 11.66 4.80675 11.9844 4.79912C12.1019 4.79638 14.8881 4.75665 17.0477 6.91627C19.3557 9.22424 19.1721 11.8997 19.1632 12.0125C19.1375 12.3367 18.8538 12.5787 18.5296 12.553C18.3842 12.5414 18.2554 12.4781 18.1599 12.3825Z" fill="#6161FF"/>
<path d="M20.9574 12.4926C20.84 12.3752 20.7727 12.2092 20.7865 12.0307C20.788 12.0078 20.8421 11.1649 20.5464 9.98736C20.1497 8.40757 19.3442 7.0023 18.1525 5.81051C15.4823 3.14029 11.9353 3.17741 11.8998 3.17813C11.5751 3.18447 11.306 2.92673 11.299 2.6019C11.2921 2.27721 11.5487 2.0082 11.8734 2.00058C12.0384 1.99675 15.9487 1.94097 18.9853 4.97768C22.2298 8.22223 21.9732 11.9648 21.9607 12.1226C21.935 12.4468 21.6513 12.6888 21.3271 12.6631C21.1818 12.6515 21.053 12.5882 20.9574 12.4926Z" fill="#6161FF"/>
<path d="M12.0406 8.75147C11.9372 8.64805 11.872 8.50599 11.8683 8.34793C11.8607 8.02277 12.12 7.75296 12.4452 7.74533C12.5071 7.74391 13.976 7.72284 15.1081 8.85488L15.1258 8.87259C16.2578 10.0046 16.2368 11.4736 16.2353 11.5355C16.2277 11.8607 15.9579 12.1181 15.6327 12.1105C15.3087 12.1029 15.0518 11.835 15.0577 11.5112C15.0578 11.485 15.0536 10.4662 14.2929 9.70546L14.2752 9.68775C13.5084 8.92094 12.4793 8.92283 12.469 8.92297C12.3019 8.92686 12.15 8.86071 12.0406 8.75147Z" fill="#6161FF"/>
</svg>
