<svg width="479" height="377" viewBox="0 0 479 377" fill="none" xmlns="http://www.w3.org/2000/svg">
<path d="M419.787 0H59.193C26.499 0 0 26.499 0 59.193V317.618C0 350.312 26.499 376.811 59.193 376.811H419.788C452.482 376.811 478.981 350.312 478.981 317.618V59.193C478.98 26.499 452.482 0 419.787 0ZM412.551 308.919C416.61 312.912 416.657 319.445 412.654 323.495C410.639 325.548 407.977 326.57 405.315 326.57C402.7 326.57 400.085 325.586 398.079 323.599L275.671 202.887L260.917 217.435C255.012 223.265 247.251 226.171 239.489 226.171C231.728 226.171 223.976 223.265 218.061 217.435L203.307 202.887L80.901 323.598C78.895 325.585 76.28 326.569 73.665 326.569C71.003 326.569 68.341 325.547 66.326 323.494C62.324 319.445 62.37 312.912 66.429 308.918L188.63 188.405L66.429 67.892C62.37 63.899 62.323 57.366 66.326 53.316C70.319 49.257 76.852 49.21 80.902 53.213L232.545 202.756C236.379 206.533 242.603 206.533 246.436 202.756L398.079 53.213C402.128 49.211 408.662 49.257 412.655 53.316C416.657 57.365 416.611 63.898 412.552 67.892L290.35 188.405L412.551 308.919Z" fill="#CC5229"/>
</svg>
