<svg width="82" height="83" viewBox="0 0 82 83" fill="none" xmlns="http://www.w3.org/2000/svg">
<path d="M40.8208 7.48438C26.6575 7.48438 22.5152 7.49899 21.71 7.56579C18.8035 7.80746 16.9949 8.26524 15.0244 9.24651C13.5059 10.0008 12.3083 10.8751 11.1264 12.1006C8.97387 14.3357 7.6693 17.0854 7.19704 20.354C6.96745 21.9408 6.90065 22.2644 6.88708 30.3695C6.88187 33.0712 6.88708 36.6268 6.88708 41.3961C6.88708 55.5518 6.90272 59.691 6.97058 60.4949C7.2054 63.3239 7.64894 65.1038 8.58823 67.0508C10.3833 70.7776 13.8117 73.5753 17.8506 74.6193C19.2491 74.9794 20.7937 75.1778 22.7767 75.2717C23.6168 75.3083 32.1799 75.3344 40.7483 75.3344C49.3167 75.3344 57.885 75.3239 58.7043 75.2822C61.0003 75.1741 62.3336 74.9951 63.8078 74.6141C67.8728 73.5649 71.2386 70.8089 73.0701 67.0299C73.9912 65.1299 74.4582 63.2821 74.6696 60.6008C74.7155 60.0162 74.7348 50.6954 74.7348 41.3872C74.7348 32.0774 74.7139 22.7738 74.668 22.1892C74.454 19.4646 73.987 17.6325 73.0362 15.6959C72.2561 14.1107 71.3899 12.9269 70.1323 11.7165C67.8879 9.57224 65.1431 8.26732 61.8723 7.79546C60.2875 7.56631 59.9718 7.49845 51.8627 7.48438H40.8208Z" fill="url(#paint0_radial_8193_42369)"/>
<path d="M40.8208 7.48438C26.6575 7.48438 22.5152 7.49899 21.71 7.56579C18.8035 7.80746 16.9949 8.26524 15.0244 9.24651C13.5059 10.0008 12.3083 10.8751 11.1264 12.1006C8.97387 14.3357 7.6693 17.0854 7.19704 20.354C6.96745 21.9408 6.90065 22.2644 6.88708 30.3695C6.88187 33.0712 6.88708 36.6268 6.88708 41.3961C6.88708 55.5518 6.90272 59.691 6.97058 60.4949C7.2054 63.3239 7.64894 65.1038 8.58823 67.0508C10.3833 70.7776 13.8117 73.5753 17.8506 74.6193C19.2491 74.9794 20.7937 75.1778 22.7767 75.2717C23.6168 75.3083 32.1799 75.3344 40.7483 75.3344C49.3167 75.3344 57.885 75.3239 58.7043 75.2822C61.0003 75.1741 62.3336 74.9951 63.8078 74.6141C67.8728 73.5649 71.2386 70.8089 73.0701 67.0299C73.9912 65.1299 74.4582 63.2821 74.6696 60.6008C74.7155 60.0162 74.7348 50.6954 74.7348 41.3872C74.7348 32.0774 74.7139 22.7738 74.668 22.1892C74.454 19.4646 73.987 17.6325 73.0362 15.6959C72.2561 14.1107 71.3899 12.9269 70.1323 11.7165C67.8879 9.57224 65.1431 8.26732 61.8723 7.79546C60.2875 7.56631 59.9718 7.49845 51.8627 7.48438H40.8208Z" fill="url(#paint1_radial_8193_42369)"/>
<path d="M40.8208 7.48438C26.6575 7.48438 22.5152 7.49899 21.71 7.56579C18.8035 7.80746 16.9949 8.26524 15.0244 9.24651C13.5059 10.0008 12.3083 10.8751 11.1264 12.1006C8.97387 14.3357 7.6693 17.0854 7.19704 20.354C6.96745 21.9408 6.90065 22.2644 6.88708 30.3695C6.88187 33.0712 6.88708 36.6268 6.88708 41.3961C6.88708 55.5518 6.90272 59.691 6.97058 60.4949C7.2054 63.3239 7.64894 65.1038 8.58823 67.0508C10.3833 70.7776 13.8117 73.5753 17.8506 74.6193C19.2491 74.9794 20.7937 75.1778 22.7767 75.2717C23.6168 75.3083 32.1799 75.3344 40.7483 75.3344C49.3167 75.3344 57.885 75.3239 58.7043 75.2822C61.0003 75.1741 62.3336 74.9951 63.8078 74.6141C67.8728 73.5649 71.2386 70.8089 73.0701 67.0299C73.9912 65.1299 74.4582 63.2821 74.6696 60.6008C74.7155 60.0162 74.7348 50.6954 74.7348 41.3872C74.7348 32.0774 74.7139 22.7738 74.668 22.1892C74.454 19.4646 73.987 17.6325 73.0362 15.6959C72.2561 14.1107 71.3899 12.9269 70.1323 11.7165C67.8879 9.57224 65.1431 8.26732 61.8723 7.79546C60.2875 7.56631 59.9718 7.49845 51.8627 7.48438H40.8208Z" fill="url(#paint2_radial_8193_42369)"/>
<path d="M40.8208 7.48438C26.6575 7.48438 22.5152 7.49899 21.71 7.56579C18.8035 7.80746 16.9949 8.26524 15.0244 9.24651C13.5059 10.0008 12.3083 10.8751 11.1264 12.1006C8.97387 14.3357 7.6693 17.0854 7.19704 20.354C6.96745 21.9408 6.90065 22.2644 6.88708 30.3695C6.88187 33.0712 6.88708 36.6268 6.88708 41.3961C6.88708 55.5518 6.90272 59.691 6.97058 60.4949C7.2054 63.3239 7.64894 65.1038 8.58823 67.0508C10.3833 70.7776 13.8117 73.5753 17.8506 74.6193C19.2491 74.9794 20.7937 75.1778 22.7767 75.2717C23.6168 75.3083 32.1799 75.3344 40.7483 75.3344C49.3167 75.3344 57.885 75.3239 58.7043 75.2822C61.0003 75.1741 62.3336 74.9951 63.8078 74.6141C67.8728 73.5649 71.2386 70.8089 73.0701 67.0299C73.9912 65.1299 74.4582 63.2821 74.6696 60.6008C74.7155 60.0162 74.7348 50.6954 74.7348 41.3872C74.7348 32.0774 74.7139 22.7738 74.668 22.1892C74.454 19.4646 73.987 17.6325 73.0362 15.6959C72.2561 14.1107 71.3899 12.9269 70.1323 11.7165C67.8879 9.57224 65.1431 8.26732 61.8723 7.79546C60.2875 7.56631 59.9718 7.49845 51.8627 7.48438H40.8208Z" fill="url(#paint3_radial_8193_42369)"/>
<path d="M40.823 16.1953C33.9717 16.1953 33.1119 16.2252 30.421 16.3476C27.7354 16.4705 25.9022 16.8954 24.2982 17.5188C22.639 18.1626 21.2315 19.0239 19.8293 20.4256C18.426 21.8268 17.5641 23.2332 16.9177 24.8906C16.2922 26.494 15.8665 28.3263 15.7456 31.0089C15.6253 33.6978 15.5938 34.5575 15.5938 41.4037C15.5938 48.2499 15.6242 49.1065 15.7462 51.7953C15.8697 54.479 16.2949 56.3108 16.9182 57.9136C17.563 59.5716 18.425 60.978 19.8277 62.3792C21.2294 63.7814 22.6369 64.6448 24.295 65.2887C25.9001 65.9121 27.7338 66.3369 30.4189 66.4599C33.1098 66.5822 33.9691 66.6121 40.8198 66.6121C47.6716 66.6121 48.5288 66.5822 51.2197 66.4598C53.9054 66.3369 55.7406 65.9121 57.3457 65.2887C59.0044 64.6448 60.4098 63.7814 61.8115 62.3792C63.2147 60.978 64.0767 59.5716 64.7231 57.9142C65.3432 56.3108 65.769 54.4785 65.8951 51.7959C66.016 49.107 66.0475 48.2499 66.0475 41.4037C66.0475 34.5575 66.016 33.6984 65.8951 31.0094C65.769 28.3258 65.3432 26.494 64.7231 24.8912C64.0767 23.2332 63.2147 21.8268 61.8115 20.4256C60.4082 19.0234 59.0049 18.1621 57.3442 17.5188C55.7359 16.8954 53.9017 16.4705 51.2161 16.3476C48.5251 16.2252 47.6685 16.1953 40.8151 16.1953H40.823ZM38.5599 20.7381C39.2316 20.737 39.981 20.7381 40.823 20.7381C47.5586 20.7381 48.357 20.7622 51.0168 20.883C53.4765 20.9954 54.8114 21.4061 55.7007 21.7511C56.878 22.208 57.7173 22.7542 58.5997 23.6365C59.4827 24.5188 60.0292 25.3591 60.4876 26.5355C60.8329 27.423 61.2444 28.757 61.3563 31.2148C61.4772 33.8722 61.5035 34.6704 61.5035 41.3979C61.5035 48.1254 61.4772 48.9237 61.3563 51.5811C61.2438 54.0389 60.8329 55.3729 60.4876 56.2604C60.0303 57.4368 59.4827 58.2745 58.5997 59.1562C57.7168 60.0385 56.8785 60.5847 55.7007 61.0416C54.8125 61.3882 53.4765 61.7978 51.0168 61.9102C48.3575 62.031 47.5586 62.0573 40.823 62.0573C34.0868 62.0573 33.2885 62.031 30.6291 61.9102C28.1695 61.7968 26.8346 61.3861 25.9448 61.0411C24.7675 60.5842 23.9266 60.038 23.0436 59.1557C22.1607 58.2734 21.6141 57.4352 21.1558 56.2583C20.8105 55.3708 20.399 54.0368 20.2871 51.579C20.1662 48.9216 20.142 48.1233 20.142 41.3916C20.142 34.66 20.1662 33.8659 20.2871 31.2085C20.3995 28.7507 20.8105 27.4167 21.1558 26.5281C21.613 25.3517 22.1607 24.5115 23.0436 23.6292C23.9266 22.7469 24.7675 22.2007 25.9448 21.7427C26.834 21.3961 28.1695 20.9865 30.6291 20.8736C32.9563 20.7685 33.8582 20.737 38.5599 20.7318L38.5599 20.7381ZM54.289 24.9237C52.6177 24.9237 51.2618 26.2771 51.2618 27.9477C51.2618 29.6177 52.6177 30.9727 54.289 30.9727C55.9603 30.9727 57.3163 29.6177 57.3163 27.9477C57.3163 26.2776 55.9603 24.9227 54.289 24.9227L54.289 24.9237ZM40.823 28.4581C33.6685 28.4581 27.8678 34.2545 27.8678 41.4037C27.8678 48.5529 33.6685 54.3467 40.823 54.3467C47.9775 54.3467 53.7761 48.5529 53.7761 41.4037C53.7761 34.2545 47.977 28.4581 40.8225 28.4581H40.823ZM40.823 33.0009C45.4669 33.0009 49.232 36.7628 49.232 41.4037C49.232 46.0442 45.4669 49.8065 40.823 49.8065C36.1786 49.8065 32.4139 46.0442 32.4139 41.4037C32.4139 36.7628 36.1786 33.0009 40.823 33.0009Z" fill="white"/>
<defs>
<radialGradient id="paint0_radial_8193_42369" cx="0" cy="0" r="1" gradientUnits="userSpaceOnUse" gradientTransform="translate(72.5439 39.2865) rotate(164.25) scale(43.3523 31.2332)">
<stop stop-color="#FF005F"/>
<stop offset="1" stop-color="#FC01D8"/>
</radialGradient>
<radialGradient id="paint1_radial_8193_42369" cx="0" cy="0" r="1" gradientUnits="userSpaceOnUse" gradientTransform="translate(24.9069 80.5602) rotate(-90) scale(54.1591 57.4617)">
<stop stop-color="#FFCC00"/>
<stop offset="0.1242" stop-color="#FFCC00"/>
<stop offset="0.5672" stop-color="#FE4A05"/>
<stop offset="0.6942" stop-color="#FF0F3F"/>
<stop offset="1" stop-color="#FE0657" stop-opacity="0"/>
</radialGradient>
<radialGradient id="paint2_radial_8193_42369" cx="0" cy="0" r="1" gradientUnits="userSpaceOnUse" gradientTransform="translate(42.5243 74.3775) rotate(-59.8703) scale(22.3953 29.1561)">
<stop stop-color="#FFCC00"/>
<stop offset="1" stop-color="#FFCC00" stop-opacity="0"/>
</radialGradient>
<radialGradient id="paint3_radial_8193_42369" cx="0" cy="0" r="1" gradientUnits="userSpaceOnUse" gradientTransform="translate(16.0906 10.2472) rotate(164.274) scale(42.8714 14.6063)">
<stop stop-color="#780CFF"/>
<stop offset="1" stop-color="#820BFF" stop-opacity="0"/>
</radialGradient>
</defs>
</svg>
