<svg width="200" height="200" viewBox="0 0 200 200" fill="none" xmlns="http://www.w3.org/2000/svg">
<path d="M64 12C35.3299 12 12 35.3299 12 64V136C12 164.67 35.3299 188 64 188H136C164.67 188 188 164.67 188 136V64C188 35.3299 164.67 12 136 12H64ZM64 20H136C160.346 20 180 39.6541 180 64V136C180 160.346 160.346 180 136 180H64C39.6541 180 20 160.346 20 136V64C20 39.6541 39.6541 20 64 20ZM148 44C145.878 44 143.843 44.8429 142.343 46.3431C140.843 47.8434 140 49.8783 140 52C140 54.1217 140.843 56.1566 142.343 57.6569C143.843 59.1571 145.878 60 148 60C150.122 60 152.157 59.1571 153.657 57.6569C155.157 56.1566 156 54.1217 156 52C156 49.8783 155.157 47.8434 153.657 46.3431C152.157 44.8429 150.122 44 148 44ZM100 56C75.7468 56 56 75.7468 56 100C56 124.253 75.7468 144 100 144C124.253 144 144 124.253 144 100C144 75.7468 124.253 56 100 56ZM100 64C119.93 64 136 80.0704 136 100C136 119.93 119.93 136 100 136C80.0704 136 64 119.93 64 100C64 80.0704 80.0704 64 100 64Z" fill="black"/>
</svg>
