<svg width="168" height="168" viewBox="0 0 168 168" fill="none" xmlns="http://www.w3.org/2000/svg">
<path d="M20 0C9.00194 0 0 9.00194 0 20V148C0 158.998 9.00194 168 20 168H148C158.998 168 168 158.998 168 148V20C168 9.00194 158.998 0 148 0H20ZM20 8H148C154.674 8 160 13.3261 160 20V148C160 154.674 154.674 160 148 160H20C13.3261 160 8 154.674 8 148V20C8 13.3261 13.3261 8 20 8ZM40 28.0469C35.6191 28.0469 31.6769 29.3563 28.7578 31.8125C25.8387 34.2687 24.0469 37.938 24.0469 41.8672C24.0469 49.3359 30.5251 55.1584 38.7656 55.7344L38.7812 55.7422C39.1739 55.876 39.5852 55.9472 40 55.9531C49.092 55.9531 55.9531 49.5843 55.9531 41.8672C55.9524 41.7968 55.9498 41.7265 55.9453 41.6562C55.5383 34.0553 48.7618 28.0469 40 28.0469ZM40 35.9531C45.5689 35.9531 47.7679 38.4402 48.0078 41.9688C47.9592 45.3937 45.8404 48.0469 40 48.0469C34.4584 48.0469 31.9531 45.2089 31.9531 41.8672C31.9531 40.1963 32.5628 38.9372 33.8438 37.8594C35.1247 36.7816 37.1809 35.9531 40 35.9531ZM28 60C26.9392 60.0001 25.9218 60.4216 25.1717 61.1717C24.4216 61.9218 24.0001 62.9392 24 64V140C24.0001 141.061 24.4216 142.078 25.1717 142.828C25.9218 143.578 26.9392 144 28 144H52C53.0608 144 54.0782 143.578 54.8283 142.828C55.5784 142.078 55.9999 141.061 56 140V116.539V64C55.9999 62.9392 55.5784 61.9218 54.8283 61.1717C54.0782 60.4216 53.0608 60.0001 52 60H28ZM64 60C62.9392 60.0001 61.9218 60.4216 61.1717 61.1717C60.4216 61.9218 60.0001 62.9392 60 64V140C60.0001 141.061 60.4216 142.078 61.1717 142.828C61.9218 143.578 62.9392 144 64 144H88C89.0608 144 90.0782 143.578 90.8283 142.828C91.5784 142.078 91.9999 141.061 92 140V100C92 96.6813 92.9056 93.3801 94.5 91.2188C96.0944 89.0574 98.1059 87.7602 101.93 87.8281C105.873 87.8959 107.96 89.2467 109.539 91.3672C111.118 93.4877 112 96.6667 112 100V140C112 141.061 112.422 142.078 113.172 142.828C113.922 143.578 114.939 144 116 144H140C141.061 144 142.078 143.578 142.828 142.828C143.578 142.078 144 141.061 144 140V97.0469C144 85.2007 140.491 75.8173 134.477 69.4688C128.462 63.1202 120.097 60 111.25 60C102.842 60 96.4434 62.8196 92 65.6953V64C91.9999 62.9392 91.5784 61.9218 90.8283 61.1717C90.0782 60.4216 89.0608 60.0001 88 60H64ZM32 68H48V116.539V136H32V68ZM68 68H84V74.2422C84.0002 75.0809 84.2641 75.8984 84.7543 76.579C85.2445 77.2596 85.9362 77.7689 86.7317 78.0349C87.5271 78.3009 88.386 78.3102 89.187 78.0614C89.988 77.8126 90.6906 77.3183 91.1953 76.6484C91.1953 76.6484 97.4768 68 111.25 68C118.263 68 124.277 70.3303 128.672 74.9688C133.066 79.6072 136 86.753 136 97.0469V136H120V100C120 95.3333 118.882 90.5084 115.961 86.5859C113.04 82.6634 108.127 79.9323 102.07 79.8281C95.9821 79.72 90.9901 82.508 88.0625 86.4766C85.1349 90.4452 84 95.3187 84 100V136H68V68Z" fill="black"/>
</svg>
