<svg width="83" height="83" viewBox="0 0 83 83" fill="none" xmlns="http://www.w3.org/2000/svg">
<path fill-rule="evenodd" clip-rule="evenodd" d="M12.7217 59.7631L7.96289 77.1703L25.7066 72.4855C30.5973 75.1843 36.0936 76.5966 41.6798 76.5894C60.1026 76.5894 75.0895 61.5061 75.0895 42.9706C75.0895 33.9766 71.6239 25.5302 65.3016 19.1691C58.9794 12.808 50.5849 9.32031 41.6463 9.32031C23.2237 9.32031 8.23482 24.4016 8.27006 42.9706C8.26102 48.861 9.79596 54.6508 12.7217 59.7631ZM27.5087 67.0475L26.4892 66.4314L26.4856 66.4334L15.9151 69.2384L18.7368 58.9103L18.0911 57.8483C15.3028 53.4041 13.8411 48.2401 13.8411 42.9724C13.8411 27.5839 26.3153 15.0321 41.6445 15.0321C49.0547 15.0321 56.0561 17.9739 61.294 23.2377C66.5283 28.5054 69.4166 35.5493 69.4166 43.0058C69.4166 58.394 56.9424 70.9461 41.6484 70.9461C36.6702 70.9423 31.7853 69.5955 27.5087 67.0475Z" fill="#C1C5C8"/>
<path fill-rule="evenodd" clip-rule="evenodd" d="M12.7217 56.3725L7.96289 73.7797L25.7066 69.0949C30.5973 71.7937 36.0936 73.206 41.6798 73.1988C60.1026 73.1988 75.0895 58.1155 75.0895 39.5799C75.0895 30.586 71.6239 22.1396 65.3016 15.7785C58.9794 9.4174 50.5849 5.92969 41.6463 5.92969C23.2237 5.92969 8.23482 21.011 8.27006 39.5799C8.26102 45.4703 9.79596 51.2602 12.7217 56.3725ZM27.5087 63.6569L26.4892 63.0408L26.4856 63.0428L15.9151 65.8478L18.7368 55.5197L18.0911 54.4577C15.3028 50.0135 13.8411 44.8494 13.8411 39.5817C13.8411 24.1933 26.3153 11.6414 41.6445 11.6414C49.0547 11.6414 56.0561 14.5832 61.294 19.8471C66.5283 25.1148 69.4166 32.1587 69.4166 39.6152C69.4166 55.0034 56.9424 67.5555 41.6484 67.5555C36.6702 67.5516 31.7853 66.2048 27.5087 63.6569Z" fill="url(#paint0_linear_8193_42384)"/>
<path d="M26.4918 63.04L27.5114 63.6561C31.788 66.204 36.6729 67.5508 41.651 67.5547C56.945 67.5547 69.4192 55.0026 69.4192 39.6144C69.4192 32.1579 66.5309 25.114 61.2967 19.8463C56.0588 14.5824 49.0574 11.6406 41.6472 11.6406C26.3179 11.6406 13.8438 24.1925 13.8438 39.5809C13.8438 44.8486 15.3055 50.0127 18.0937 54.4569L18.7395 55.5189L15.9178 65.8469L26.4882 63.042L26.4918 63.04Z" fill="url(#paint1_linear_8193_42384)"/>
<path fill-rule="evenodd" clip-rule="evenodd" d="M33.3208 25.4905C32.7102 24.088 32.0293 24.0547 31.4521 24.0547C30.9414 24.0195 30.3974 24.0195 29.8202 24.0195C29.2762 24.0195 28.3585 24.2249 27.5777 25.0797C26.795 25.9345 24.6543 27.9531 24.6543 32.0921C24.6543 36.2292 27.6461 40.2313 28.0532 40.7771C28.4602 41.3248 33.8315 50.0801 42.3277 53.466C49.3975 56.2691 50.8259 55.7233 52.356 55.5512C53.8843 55.381 57.2832 53.5345 57.9974 51.5492C58.6764 49.6009 58.6764 47.8913 58.4729 47.549C58.2694 47.2067 57.6902 47.0013 56.8743 46.5572C56.025 46.1465 51.9471 44.0964 51.1645 43.8207C50.3837 43.5469 49.8397 43.41 49.2957 44.2315C48.7518 45.0863 47.155 46.968 46.6443 47.5138C46.1688 48.0615 45.66 48.1299 44.8441 47.7192C43.993 47.3103 41.3101 46.4203 38.1129 43.5469C35.6336 41.3248 33.9684 38.555 33.4577 37.7335C32.9822 36.8787 33.3893 36.4346 33.8315 36.0239C34.2052 35.6483 34.6826 35.0321 35.0896 34.5529C35.4967 34.0737 35.6317 33.6981 35.9389 33.1504C36.2109 32.6046 36.0739 32.0903 35.8704 31.6814C35.6669 31.3039 34.0683 27.1668 33.3208 25.4905Z" fill="white"/>
<defs>
<linearGradient id="paint0_linear_8193_42384" x1="41.5206" y1="73.787" x2="41.5206" y2="5.93894" gradientUnits="userSpaceOnUse">
<stop stop-color="#F9F9F9"/>
<stop offset="1" stop-color="white"/>
</linearGradient>
<linearGradient id="paint1_linear_8193_42384" x1="41.5216" y1="72.6116" x2="41.5216" y2="7.11331" gradientUnits="userSpaceOnUse">
<stop stop-color="#20B038"/>
<stop offset="1" stop-color="#60D66A"/>
</linearGradient>
</defs>
</svg>
