<svg width="168" height="168" viewBox="0 0 168 168" fill="none" xmlns="http://www.w3.org/2000/svg">
<path d="M28 0C12.5827 0 0 12.5827 0 28V140C0 155.417 12.5827 168 28 168H140C155.417 168 168 155.417 168 140V28C168 12.5827 155.417 0 140 0H28ZM28 8H140C151.095 8 160 16.9053 160 28V140C160 151.095 151.095 160 140 160H28C16.9053 160 8 151.095 8 140V28C8 16.9053 16.9053 8 28 8ZM36.3438 36L73.2344 88.4141L36 132H46L77.75 94.8281L103.906 132H135.656L95.1562 74.4531L128 36H118L90.6406 68.0391L68.0938 36H36.3438ZM51.6562 44H63.9141L120.344 124H108.086L51.6562 44Z" fill="black"/>
</svg>
