<svg width="331" height="212" viewBox="0 0 331 212" fill="none" xmlns="http://www.w3.org/2000/svg">
<g clip-path="url(#clip0_6421_6870)">
<g filter="url(#filter0_d_6421_6870)">
<rect x="22.8096" y="13" width="280" height="186.667" rx="5.91921" fill="white"/>
</g>
<ellipse cx="36.8097" cy="27.0002" rx="4.66667" ry="4.66667" fill="#DF434C"/>
<ellipse cx="48.4762" cy="27.0002" rx="4.66667" ry="4.66667" fill="#E7B44C"/>
<ellipse cx="60.1432" cy="27.0002" rx="4.66667" ry="4.66667" fill="#6BD280"/>
<rect x="74.1431" y="22.3335" width="219.333" height="9.33333" rx="4.66667" fill="#E1E3E8"/>
<rect x="32.1431" y="41.0001" width="32.6667" height="4.66667" rx="2.33333" fill="#E1E3E8"/>
<rect x="32.1431" y="50.3335" width="32.6667" height="4.66667" rx="2.33333" fill="#E1E3E8"/>
<rect x="32.1431" y="59.6667" width="32.6667" height="4.66667" rx="2.33333" fill="#E1E3E8"/>
<rect x="74.1431" y="141.333" width="140" height="4.66667" rx="2.33333" fill="#E1E3E8"/>
<rect x="74.1431" y="150.667" width="93.3333" height="4.66667" rx="2.33333" fill="#E1E3E8"/>
<path d="M107.806 52.1556L96.8478 41.1314C96.8041 42.6625 96.7166 46.0923 96.7166 48.6121C96.7166 51.132 98.6414 52.0244 99.6039 52.1556H107.806Z" fill="#696BEF"/>
<path d="M107.806 52.1556H99.6039C98.6414 52.0244 96.7166 51.132 96.7166 48.6121C96.7166 46.0923 96.8041 42.6625 96.8478 41.1314C91.1169 41.0876 79.1302 41.0001 77.0304 41.0001C74.9305 41.0001 74.2306 42.8375 74.1431 43.7562V79.8475C74.1431 82.0524 75.893 82.7786 76.7679 82.8661H104.591C107.216 82.8661 107.828 81.0287 107.806 80.11V52.1556Z" fill="#696BEF" fill-opacity="0.12"/>
<rect x="80.1812" y="55.6984" width="13.1241" height="1.83738" rx="0.918689" fill="#8A8C8E"/>
<rect x="80.1812" y="60.4238" width="18.1113" height="1.83738" rx="0.918689" fill="#8A8C8E"/>
<g filter="url(#filter1_f_6421_6870)">
<rect x="97.2432" y="52.5486" width="9.71186" height="1.5749" fill="#090909" fill-opacity="0.2"/>
</g>
<g filter="url(#filter2_f_6421_6870)">
<rect x="95.6421" y="51.2368" width="3.41898" height="1.5749" transform="rotate(40.6074 95.6421 51.2368)" fill="#090909" fill-opacity="0.2"/>
</g>
<g filter="url(#filter3_f_6421_6870)">
<rect x="95.9297" y="41.7867" width="8.39944" height="1.04993" transform="rotate(90 95.9297 41.7867)" fill="#090909" fill-opacity="0.2"/>
</g>
<path d="M148.639 52.1556L137.681 41.1314C137.638 42.6625 137.55 46.0923 137.55 48.6121C137.55 51.132 139.475 52.0244 140.437 52.1556H148.639Z" fill="#696BEF"/>
<path d="M148.639 52.1556H140.437C139.475 52.0244 137.55 51.132 137.55 48.6121C137.55 46.0923 137.638 42.6625 137.681 41.1314C131.95 41.0876 119.964 41.0001 117.864 41.0001C115.764 41.0001 115.064 42.8375 114.977 43.7562V79.8475C114.977 82.0524 116.726 82.7786 117.601 82.8661H145.425C148.049 82.8661 148.661 81.0287 148.639 80.11V52.1556Z" fill="#696BEF" fill-opacity="0.12"/>
<rect x="121.015" y="55.6984" width="13.1241" height="1.83738" rx="0.918689" fill="#8A8C8E"/>
<rect x="121.015" y="60.4238" width="18.1113" height="1.83738" rx="0.918689" fill="#8A8C8E"/>
<g filter="url(#filter4_f_6421_6870)">
<rect x="138.077" y="52.5486" width="9.71186" height="1.5749" fill="#090909" fill-opacity="0.2"/>
</g>
<g filter="url(#filter5_f_6421_6870)">
<rect x="136.476" y="51.2368" width="3.41898" height="1.5749" transform="rotate(40.6074 136.476 51.2368)" fill="#090909" fill-opacity="0.2"/>
</g>
<g filter="url(#filter6_f_6421_6870)">
<rect x="136.763" y="41.7871" width="8.39944" height="1.04993" transform="rotate(90 136.763 41.7871)" fill="#090909" fill-opacity="0.2"/>
</g>
<path d="M189.472 52.1556L178.514 41.1314C178.471 42.6625 178.383 46.0923 178.383 48.6121C178.383 51.132 180.308 52.0244 181.27 52.1556H189.472Z" fill="#696BEF"/>
<path d="M189.472 52.1556H181.27C180.308 52.0244 178.383 51.132 178.383 48.6121C178.383 46.0923 178.471 42.6625 178.514 41.1314C172.783 41.0876 160.797 41.0001 158.697 41.0001C156.597 41.0001 155.897 42.8375 155.81 43.7562V79.8475C155.81 82.0524 157.559 82.7786 158.434 82.8661H186.258C188.882 82.8661 189.494 81.0287 189.472 80.11V52.1556Z" fill="#696BEF" fill-opacity="0.12"/>
<rect x="161.848" y="55.6989" width="13.1241" height="1.83738" rx="0.918689" fill="#8A8C8E"/>
<rect x="161.848" y="60.4242" width="18.1113" height="1.83738" rx="0.918689" fill="#8A8C8E"/>
<g filter="url(#filter7_f_6421_6870)">
<rect x="178.91" y="52.5494" width="9.71186" height="1.5749" fill="#090909" fill-opacity="0.2"/>
</g>
<g filter="url(#filter8_f_6421_6870)">
<rect x="177.309" y="51.2368" width="3.41898" height="1.5749" transform="rotate(40.6074 177.309 51.2368)" fill="#090909" fill-opacity="0.2"/>
</g>
<g filter="url(#filter9_f_6421_6870)">
<rect x="177.596" y="41.7871" width="8.39944" height="1.04993" transform="rotate(90 177.596 41.7871)" fill="#090909" fill-opacity="0.2"/>
</g>
<path d="M230.306 52.1556L219.348 41.1314C219.304 42.6625 219.217 46.0923 219.217 48.6121C219.217 51.132 221.141 52.0244 222.104 52.1556H230.306Z" fill="#696BEF"/>
<path d="M230.306 52.1556H222.104C221.141 52.0244 219.217 51.132 219.217 48.6121C219.217 46.0923 219.304 42.6625 219.348 41.1314C213.617 41.0876 201.63 41.0001 199.53 41.0001C197.431 41.0001 196.731 42.8375 196.643 43.7562V79.8475C196.643 82.0524 198.393 82.7786 199.268 82.8661H227.091C229.716 82.8661 230.328 81.0287 230.306 80.11V52.1556Z" fill="#696BEF" fill-opacity="0.12"/>
<rect x="202.681" y="55.6984" width="13.1241" height="1.83738" rx="0.918689" fill="#8A8C8E"/>
<rect x="202.681" y="60.4238" width="18.1113" height="1.83738" rx="0.918689" fill="#8A8C8E"/>
<g filter="url(#filter10_f_6421_6870)">
<rect x="219.743" y="52.5486" width="9.71186" height="1.5749" fill="#090909" fill-opacity="0.2"/>
</g>
<g filter="url(#filter11_f_6421_6870)">
<rect x="218.142" y="51.2368" width="3.41898" height="1.5749" transform="rotate(40.6074 218.142 51.2368)" fill="#090909" fill-opacity="0.2"/>
</g>
<g filter="url(#filter12_f_6421_6870)">
<rect x="218.43" y="41.7871" width="8.39944" height="1.04993" transform="rotate(90 218.43 41.7871)" fill="#090909" fill-opacity="0.2"/>
</g>
<path d="M107.806 101.156L96.8478 90.1314C96.8041 91.6625 96.7166 95.0923 96.7166 97.6121C96.7166 100.132 98.6414 101.024 99.6039 101.156H107.806Z" fill="#696BEF"/>
<path d="M107.806 101.156H99.6039C98.6414 101.024 96.7166 100.132 96.7166 97.6121C96.7166 95.0923 96.8041 91.6625 96.8478 90.1314C91.1169 90.0876 79.1302 90.0001 77.0304 90.0001C74.9305 90.0001 74.2306 91.8375 74.1431 92.7562V128.848C74.1431 131.052 75.893 131.779 76.7679 131.866H104.591C107.216 131.866 107.828 130.029 107.806 129.11V101.156Z" fill="#696BEF" fill-opacity="0.12"/>
<rect x="80.1812" y="104.699" width="13.1241" height="1.83738" rx="0.918689" fill="#8A8C8E"/>
<rect x="80.1812" y="109.424" width="18.1113" height="1.83738" rx="0.918689" fill="#8A8C8E"/>
<g filter="url(#filter13_f_6421_6870)">
<rect x="97.2432" y="101.549" width="9.71186" height="1.5749" fill="#090909" fill-opacity="0.2"/>
</g>
<g filter="url(#filter14_f_6421_6870)">
<rect x="95.6421" y="100.237" width="3.41898" height="1.5749" transform="rotate(40.6074 95.6421 100.237)" fill="#090909" fill-opacity="0.2"/>
</g>
<g filter="url(#filter15_f_6421_6870)">
<rect x="95.9297" y="90.7871" width="8.39944" height="1.04993" transform="rotate(90 95.9297 90.7871)" fill="#090909" fill-opacity="0.2"/>
</g>
<path d="M148.639 101.156L137.681 90.1314C137.638 91.6625 137.55 95.0923 137.55 97.6121C137.55 100.132 139.475 101.024 140.437 101.156H148.639Z" fill="#696BEF"/>
<path d="M148.639 101.156H140.437C139.475 101.024 137.55 100.132 137.55 97.6121C137.55 95.0923 137.638 91.6625 137.681 90.1314C131.95 90.0876 119.964 90.0001 117.864 90.0001C115.764 90.0001 115.064 91.8375 114.977 92.7562V128.848C114.977 131.052 116.726 131.779 117.601 131.866H145.425C148.049 131.866 148.661 130.029 148.639 129.11V101.156Z" fill="#696BEF" fill-opacity="0.12"/>
<rect x="121.015" y="104.698" width="13.1241" height="1.83738" rx="0.918689" fill="#8A8C8E"/>
<rect x="121.015" y="109.424" width="18.1113" height="1.83738" rx="0.918689" fill="#8A8C8E"/>
<g filter="url(#filter16_f_6421_6870)">
<rect x="138.077" y="101.549" width="9.71186" height="1.5749" fill="#090909" fill-opacity="0.2"/>
</g>
<g filter="url(#filter17_f_6421_6870)">
<rect x="136.476" y="100.237" width="3.41898" height="1.5749" transform="rotate(40.6074 136.476 100.237)" fill="#090909" fill-opacity="0.2"/>
</g>
<g filter="url(#filter18_f_6421_6870)">
<rect x="136.763" y="90.7871" width="8.39944" height="1.04993" transform="rotate(90 136.763 90.7871)" fill="#090909" fill-opacity="0.2"/>
</g>
<path d="M189.472 101.156L178.514 90.1314C178.471 91.6625 178.383 95.0923 178.383 97.6121C178.383 100.132 180.308 101.024 181.27 101.156H189.472Z" fill="#696BEF"/>
<path d="M189.472 101.156H181.27C180.308 101.024 178.383 100.132 178.383 97.6121C178.383 95.0923 178.471 91.6625 178.514 90.1314C172.783 90.0876 160.797 90.0001 158.697 90.0001C156.597 90.0001 155.897 91.8375 155.81 92.7562V128.848C155.81 131.052 157.559 131.779 158.434 131.866H186.258C188.882 131.866 189.494 130.029 189.472 129.11V101.156Z" fill="#696BEF" fill-opacity="0.12"/>
<rect x="161.848" y="104.698" width="13.1241" height="1.83738" rx="0.918689" fill="#8A8C8E"/>
<rect x="161.848" y="109.424" width="18.1113" height="1.83738" rx="0.918689" fill="#8A8C8E"/>
<g filter="url(#filter19_f_6421_6870)">
<rect x="178.91" y="101.549" width="9.71186" height="1.5749" fill="#090909" fill-opacity="0.2"/>
</g>
<g filter="url(#filter20_f_6421_6870)">
<rect x="177.309" y="100.237" width="3.41898" height="1.5749" transform="rotate(40.6074 177.309 100.237)" fill="#090909" fill-opacity="0.2"/>
</g>
<g filter="url(#filter21_f_6421_6870)">
<rect x="177.596" y="90.7872" width="8.39944" height="1.04993" transform="rotate(90 177.596 90.7872)" fill="#090909" fill-opacity="0.2"/>
</g>
<g filter="url(#filter22_d_6421_6870)">
<path d="M21.6138 53.5657L5.41796 60.4436C4.89812 60.6639 4.45489 61.0315 4.14346 61.5007C3.83202 61.9699 3.66615 62.5199 3.6665 63.0822V69.7024C3.66733 75.8324 5.49464 81.8245 8.91731 86.9208C12.34 92.0171 17.2043 95.9887 22.895 98.3333C29.1852 96.4239 34.0748 91.3019 36.9439 86.9507C40.2693 81.9159 41.8386 76.0498 41.8202 70.0246V63.0822C41.8205 62.5199 41.6547 61.9699 41.3432 61.5007C41.0318 61.0315 40.5886 60.6639 40.0687 60.4436L23.89 53.5657C23.5303 53.4123 23.1431 53.3333 22.7519 53.3333C22.3606 53.3333 21.9734 53.4123 21.6138 53.5657Z" fill="#696BEF"/>
<path d="M28.1939 78.9487H26.6559V70.2724C26.6288 69.309 26.2406 68.3944 25.5737 67.7229C24.9068 67.0514 24.0137 66.6758 23.084 66.6758C22.1543 66.6758 21.2612 67.0514 20.5943 67.7229C19.9274 68.3944 19.5392 69.309 19.5121 70.2724V78.9487H17.9741V70.2724C18.0066 68.8898 18.5592 67.5751 19.514 66.6092C20.4687 65.6432 21.7499 65.1025 23.084 65.1025C24.4181 65.1025 25.6993 65.6432 26.654 66.6092C27.6088 67.5751 28.1614 68.8898 28.1939 70.2724V78.9487Z" fill="#F5F5F5"/>
<path d="M28.8243 73.0261H17.3137C16.2204 73.0261 15.334 73.8405 15.334 74.845V82.3459C15.334 83.3504 16.2204 84.1648 17.3137 84.1648H28.8243C29.9176 84.1648 30.804 83.3504 30.804 82.3459V74.845C30.804 73.8405 29.9176 73.0261 28.8243 73.0261Z" fill="white"/>
<path d="M24.2976 78.844C24.4536 78.7012 24.5772 78.5313 24.6615 78.3444C24.7457 78.1574 24.7888 77.9569 24.7883 77.7546C24.7903 77.4629 24.7036 77.1766 24.5379 76.9278C24.3722 76.679 24.1341 76.4777 23.8506 76.3466C23.567 76.2154 23.2492 76.1597 22.933 76.1857C22.6168 76.2116 22.3148 76.3182 22.061 76.4934C21.8072 76.6687 21.6118 76.9056 21.4967 77.1774C21.3816 77.4492 21.3515 77.7452 21.4098 78.0319C21.468 78.3186 21.6123 78.5847 21.8263 78.8001C22.0404 79.0155 22.3157 79.1717 22.6212 79.251L22.2566 80.7349H23.8751L23.5344 79.251C23.8172 79.1768 24.0743 79.0366 24.2806 78.844" fill="#696BEF" fill-opacity="0.12"/>
</g>
<rect x="212.81" y="153.333" width="114" height="30" rx="15" fill="#696BEF"/>
<g clip-path="url(#clip1_6421_6870)">
<path d="M243.322 166.863C242.812 164.276 240.54 162.333 237.81 162.333C235.642 162.333 233.76 163.563 232.822 165.363C230.565 165.603 228.81 167.516 228.81 169.833C228.81 172.316 230.827 174.333 233.31 174.333H243.06C245.13 174.333 246.81 172.653 246.81 170.583C246.81 168.603 245.272 166.998 243.322 166.863ZM243.06 172.833H233.31C231.652 172.833 230.31 171.491 230.31 169.833C230.31 168.296 231.457 167.013 232.98 166.856L233.782 166.773L234.157 166.061C234.87 164.688 236.265 163.833 237.81 163.833C239.775 163.833 241.47 165.228 241.852 167.156L242.077 168.281L243.225 168.363C244.395 168.438 245.31 169.421 245.31 170.583C245.31 171.821 244.297 172.833 243.06 172.833ZM234.81 169.083H236.722V171.333H238.897V169.083H240.81L237.81 166.083L234.81 169.083Z" fill="white"/>
</g>
<path d="M256.79 174.501C256.053 174.501 255.367 174.366 254.732 174.095C254.107 173.825 253.561 173.451 253.094 172.975C252.637 172.49 252.278 171.921 252.016 171.267C251.755 170.614 251.624 169.895 251.624 169.111C251.624 168.337 251.75 167.623 252.002 166.969C252.264 166.307 252.628 165.737 253.094 165.261C253.561 164.776 254.107 164.403 254.732 164.141C255.358 163.871 256.044 163.735 256.79 163.735C257.528 163.735 258.186 163.861 258.764 164.113C259.352 164.365 259.847 164.697 260.248 165.107C260.65 165.509 260.939 165.947 261.116 166.423L259.632 167.123C259.408 166.563 259.049 166.111 258.554 165.765C258.069 165.411 257.481 165.233 256.79 165.233C256.1 165.233 255.488 165.397 254.956 165.723C254.424 166.05 254.009 166.503 253.71 167.081C253.421 167.66 253.276 168.337 253.276 169.111C253.276 169.886 253.421 170.567 253.71 171.155C254.009 171.734 254.424 172.187 254.956 172.513C255.488 172.831 256.1 172.989 256.79 172.989C257.481 172.989 258.069 172.817 258.554 172.471C259.049 172.126 259.408 171.673 259.632 171.113L261.116 171.813C260.939 172.28 260.65 172.719 260.248 173.129C259.847 173.54 259.352 173.871 258.764 174.123C258.186 174.375 257.528 174.501 256.79 174.501ZM264.793 174.501C264.279 174.501 263.827 174.413 263.435 174.235C263.052 174.049 262.753 173.797 262.539 173.479C262.324 173.153 262.217 172.77 262.217 172.331C262.217 171.921 262.305 171.552 262.483 171.225C262.669 170.899 262.954 170.623 263.337 170.399C263.719 170.175 264.2 170.017 264.779 169.923L267.411 169.489V170.735L265.087 171.141C264.667 171.216 264.359 171.351 264.163 171.547C263.967 171.734 263.869 171.977 263.869 172.275C263.869 172.565 263.976 172.803 264.191 172.989C264.415 173.167 264.699 173.255 265.045 173.255C265.474 173.255 265.847 173.162 266.165 172.975C266.491 172.789 266.743 172.541 266.921 172.233C267.098 171.916 267.187 171.566 267.187 171.183V169.237C267.187 168.864 267.047 168.561 266.767 168.327C266.496 168.085 266.132 167.963 265.675 167.963C265.255 167.963 264.886 168.075 264.569 168.299C264.261 168.514 264.032 168.794 263.883 169.139L262.567 168.481C262.707 168.108 262.935 167.781 263.253 167.501C263.57 167.212 263.939 166.988 264.359 166.829C264.788 166.671 265.241 166.591 265.717 166.591C266.314 166.591 266.841 166.703 267.299 166.927C267.765 167.151 268.125 167.464 268.377 167.865C268.638 168.257 268.769 168.715 268.769 169.237V174.333H267.257V172.961L267.579 173.003C267.401 173.311 267.173 173.577 266.893 173.801C266.622 174.025 266.309 174.198 265.955 174.319C265.609 174.441 265.222 174.501 264.793 174.501ZM270.618 174.333V166.759H272.13V168.285L271.99 168.061C272.158 167.567 272.429 167.212 272.802 166.997C273.176 166.773 273.624 166.661 274.146 166.661H274.608V168.103H273.95C273.428 168.103 273.003 168.267 272.676 168.593C272.359 168.911 272.2 169.368 272.2 169.965V174.333H270.618ZM275.691 174.333V166.759H277.203V168.285L277.063 168.061C277.231 167.567 277.501 167.212 277.875 166.997C278.248 166.773 278.696 166.661 279.219 166.661H279.681V168.103H279.023C278.5 168.103 278.075 168.267 277.749 168.593C277.431 168.911 277.273 169.368 277.273 169.965V174.333H275.691ZM284.319 174.501C283.563 174.501 282.891 174.329 282.303 173.983C281.724 173.629 281.272 173.153 280.945 172.555C280.618 171.949 280.455 171.272 280.455 170.525C280.455 169.76 280.618 169.083 280.945 168.495C281.281 167.907 281.729 167.445 282.289 167.109C282.849 166.764 283.484 166.591 284.193 166.591C284.762 166.591 285.271 166.689 285.719 166.885C286.167 167.081 286.545 167.352 286.853 167.697C287.161 168.033 287.394 168.421 287.553 168.859C287.721 169.298 287.805 169.765 287.805 170.259C287.805 170.381 287.8 170.507 287.791 170.637C287.782 170.768 287.763 170.889 287.735 171.001H281.701V169.741H286.839L286.083 170.315C286.176 169.858 286.144 169.452 285.985 169.097C285.836 168.733 285.602 168.449 285.285 168.243C284.977 168.029 284.613 167.921 284.193 167.921C283.773 167.921 283.4 168.029 283.073 168.243C282.746 168.449 282.494 168.747 282.317 169.139C282.14 169.522 282.07 169.989 282.107 170.539C282.06 171.053 282.13 171.501 282.317 171.883C282.513 172.266 282.784 172.565 283.129 172.779C283.484 172.994 283.885 173.101 284.333 173.101C284.79 173.101 285.178 172.999 285.495 172.793C285.822 172.588 286.078 172.322 286.265 171.995L287.553 172.625C287.404 172.98 287.17 173.302 286.853 173.591C286.545 173.871 286.172 174.095 285.733 174.263C285.304 174.422 284.832 174.501 284.319 174.501ZM293.003 177.413C292.452 177.413 291.943 177.325 291.477 177.147C291.01 176.97 290.609 176.723 290.273 176.405C289.937 176.097 289.685 175.733 289.517 175.313L290.973 174.711C291.103 175.066 291.341 175.36 291.687 175.593C292.041 175.827 292.475 175.943 292.989 175.943C293.39 175.943 293.749 175.864 294.067 175.705C294.384 175.556 294.636 175.332 294.823 175.033C295.009 174.744 295.103 174.394 295.103 173.983V172.275L295.383 172.597C295.121 173.083 294.757 173.451 294.291 173.703C293.833 173.955 293.315 174.081 292.737 174.081C292.037 174.081 291.407 173.918 290.847 173.591C290.287 173.265 289.843 172.817 289.517 172.247C289.199 171.678 289.041 171.039 289.041 170.329C289.041 169.611 289.199 168.971 289.517 168.411C289.843 167.851 290.282 167.408 290.833 167.081C291.383 166.755 292.013 166.591 292.723 166.591C293.301 166.591 293.815 166.717 294.263 166.969C294.72 167.212 295.093 167.567 295.383 168.033L295.173 168.425V166.759H296.671V173.983C296.671 174.637 296.512 175.22 296.195 175.733C295.887 176.256 295.457 176.667 294.907 176.965C294.356 177.264 293.721 177.413 293.003 177.413ZM292.919 172.611C293.339 172.611 293.712 172.513 294.039 172.317C294.365 172.112 294.622 171.841 294.809 171.505C295.005 171.16 295.103 170.773 295.103 170.343C295.103 169.914 295.005 169.527 294.809 169.181C294.613 168.836 294.351 168.565 294.025 168.369C293.698 168.164 293.329 168.061 292.919 168.061C292.489 168.061 292.107 168.164 291.771 168.369C291.435 168.565 291.169 168.836 290.973 169.181C290.786 169.517 290.693 169.905 290.693 170.343C290.693 170.763 290.786 171.146 290.973 171.491C291.169 171.837 291.435 172.112 291.771 172.317C292.107 172.513 292.489 172.611 292.919 172.611ZM300.791 174.501C300.277 174.501 299.825 174.413 299.433 174.235C299.05 174.049 298.751 173.797 298.537 173.479C298.322 173.153 298.215 172.77 298.215 172.331C298.215 171.921 298.303 171.552 298.481 171.225C298.667 170.899 298.952 170.623 299.335 170.399C299.717 170.175 300.198 170.017 300.777 169.923L303.409 169.489V170.735L301.085 171.141C300.665 171.216 300.357 171.351 300.161 171.547C299.965 171.734 299.867 171.977 299.867 172.275C299.867 172.565 299.974 172.803 300.189 172.989C300.413 173.167 300.697 173.255 301.043 173.255C301.472 173.255 301.845 173.162 302.163 172.975C302.489 172.789 302.741 172.541 302.919 172.233C303.096 171.916 303.185 171.566 303.185 171.183V169.237C303.185 168.864 303.045 168.561 302.765 168.327C302.494 168.085 302.13 167.963 301.673 167.963C301.253 167.963 300.884 168.075 300.567 168.299C300.259 168.514 300.03 168.794 299.881 169.139L298.565 168.481C298.705 168.108 298.933 167.781 299.251 167.501C299.568 167.212 299.937 166.988 300.357 166.829C300.786 166.671 301.239 166.591 301.715 166.591C302.312 166.591 302.839 166.703 303.297 166.927C303.763 167.151 304.123 167.464 304.375 167.865C304.636 168.257 304.767 168.715 304.767 169.237V174.333H303.255V172.961L303.577 173.003C303.399 173.311 303.171 173.577 302.891 173.801C302.62 174.025 302.307 174.198 301.953 174.319C301.607 174.441 301.22 174.501 300.791 174.501ZM306.616 174.333V166.759H308.128V168.285L307.988 168.061C308.156 167.567 308.427 167.212 308.8 166.997C309.174 166.773 309.622 166.661 310.144 166.661H310.606V168.103H309.948C309.426 168.103 309.001 168.267 308.674 168.593C308.357 168.911 308.198 169.368 308.198 169.965V174.333H306.616Z" fill="white"/>
</g>
<defs>
<filter id="filter0_d_6421_6870" x="8.0442" y="1.92597" width="309.531" height="216.197" filterUnits="userSpaceOnUse" color-interpolation-filters="sRGB">
<feFlood flood-opacity="0" result="BackgroundImageFix"/>
<feColorMatrix in="SourceAlpha" type="matrix" values="0 0 0 0 0 0 0 0 0 0 0 0 0 0 0 0 0 0 127 0" result="hardAlpha"/>
<feOffset dy="3.69134"/>
<feGaussianBlur stdDeviation="7.38269"/>
<feComposite in2="hardAlpha" operator="out"/>
<feColorMatrix type="matrix" values="0 0 0 0 0 0 0 0 0 0 0 0 0 0 0 0 0 0 0.25 0"/>
<feBlend mode="normal" in2="BackgroundImageFix" result="effect1_dropShadow_6421_6870"/>
<feBlend mode="normal" in="SourceGraphic" in2="effect1_dropShadow_6421_6870" result="shape"/>
</filter>
<filter id="filter1_f_6421_6870" x="84.9115" y="40.2169" width="34.3753" height="26.2383" filterUnits="userSpaceOnUse" color-interpolation-filters="sRGB">
<feFlood flood-opacity="0" result="BackgroundImageFix"/>
<feBlend mode="normal" in="SourceGraphic" in2="BackgroundImageFix" result="shape"/>
<feGaussianBlur stdDeviation="6.16584" result="effect1_foregroundBlur_6421_6870"/>
</filter>
<filter id="filter2_f_6421_6870" x="82.2855" y="38.9051" width="28.284" height="28.0844" filterUnits="userSpaceOnUse" color-interpolation-filters="sRGB">
<feFlood flood-opacity="0" result="BackgroundImageFix"/>
<feBlend mode="normal" in="SourceGraphic" in2="BackgroundImageFix" result="shape"/>
<feGaussianBlur stdDeviation="6.16584" result="effect1_foregroundBlur_6421_6870"/>
</filter>
<filter id="filter3_f_6421_6870" x="82.5482" y="29.4551" width="25.7132" height="33.0628" filterUnits="userSpaceOnUse" color-interpolation-filters="sRGB">
<feFlood flood-opacity="0" result="BackgroundImageFix"/>
<feBlend mode="normal" in="SourceGraphic" in2="BackgroundImageFix" result="shape"/>
<feGaussianBlur stdDeviation="6.16584" result="effect1_foregroundBlur_6421_6870"/>
</filter>
<filter id="filter4_f_6421_6870" x="125.745" y="40.2169" width="34.3753" height="26.2383" filterUnits="userSpaceOnUse" color-interpolation-filters="sRGB">
<feFlood flood-opacity="0" result="BackgroundImageFix"/>
<feBlend mode="normal" in="SourceGraphic" in2="BackgroundImageFix" result="shape"/>
<feGaussianBlur stdDeviation="6.16584" result="effect1_foregroundBlur_6421_6870"/>
</filter>
<filter id="filter5_f_6421_6870" x="123.119" y="38.9051" width="28.284" height="28.0844" filterUnits="userSpaceOnUse" color-interpolation-filters="sRGB">
<feFlood flood-opacity="0" result="BackgroundImageFix"/>
<feBlend mode="normal" in="SourceGraphic" in2="BackgroundImageFix" result="shape"/>
<feGaussianBlur stdDeviation="6.16584" result="effect1_foregroundBlur_6421_6870"/>
</filter>
<filter id="filter6_f_6421_6870" x="123.382" y="29.4554" width="25.7132" height="33.0628" filterUnits="userSpaceOnUse" color-interpolation-filters="sRGB">
<feFlood flood-opacity="0" result="BackgroundImageFix"/>
<feBlend mode="normal" in="SourceGraphic" in2="BackgroundImageFix" result="shape"/>
<feGaussianBlur stdDeviation="6.16584" result="effect1_foregroundBlur_6421_6870"/>
</filter>
<filter id="filter7_f_6421_6870" x="166.578" y="40.2177" width="34.3753" height="26.2383" filterUnits="userSpaceOnUse" color-interpolation-filters="sRGB">
<feFlood flood-opacity="0" result="BackgroundImageFix"/>
<feBlend mode="normal" in="SourceGraphic" in2="BackgroundImageFix" result="shape"/>
<feGaussianBlur stdDeviation="6.16584" result="effect1_foregroundBlur_6421_6870"/>
</filter>
<filter id="filter8_f_6421_6870" x="163.952" y="38.9051" width="28.284" height="28.0844" filterUnits="userSpaceOnUse" color-interpolation-filters="sRGB">
<feFlood flood-opacity="0" result="BackgroundImageFix"/>
<feBlend mode="normal" in="SourceGraphic" in2="BackgroundImageFix" result="shape"/>
<feGaussianBlur stdDeviation="6.16584" result="effect1_foregroundBlur_6421_6870"/>
</filter>
<filter id="filter9_f_6421_6870" x="164.215" y="29.4554" width="25.7132" height="33.0628" filterUnits="userSpaceOnUse" color-interpolation-filters="sRGB">
<feFlood flood-opacity="0" result="BackgroundImageFix"/>
<feBlend mode="normal" in="SourceGraphic" in2="BackgroundImageFix" result="shape"/>
<feGaussianBlur stdDeviation="6.16584" result="effect1_foregroundBlur_6421_6870"/>
</filter>
<filter id="filter10_f_6421_6870" x="207.411" y="40.2169" width="34.3753" height="26.2383" filterUnits="userSpaceOnUse" color-interpolation-filters="sRGB">
<feFlood flood-opacity="0" result="BackgroundImageFix"/>
<feBlend mode="normal" in="SourceGraphic" in2="BackgroundImageFix" result="shape"/>
<feGaussianBlur stdDeviation="6.16584" result="effect1_foregroundBlur_6421_6870"/>
</filter>
<filter id="filter11_f_6421_6870" x="204.785" y="38.9051" width="28.284" height="28.0844" filterUnits="userSpaceOnUse" color-interpolation-filters="sRGB">
<feFlood flood-opacity="0" result="BackgroundImageFix"/>
<feBlend mode="normal" in="SourceGraphic" in2="BackgroundImageFix" result="shape"/>
<feGaussianBlur stdDeviation="6.16584" result="effect1_foregroundBlur_6421_6870"/>
</filter>
<filter id="filter12_f_6421_6870" x="205.048" y="29.4554" width="25.7132" height="33.0628" filterUnits="userSpaceOnUse" color-interpolation-filters="sRGB">
<feFlood flood-opacity="0" result="BackgroundImageFix"/>
<feBlend mode="normal" in="SourceGraphic" in2="BackgroundImageFix" result="shape"/>
<feGaussianBlur stdDeviation="6.16584" result="effect1_foregroundBlur_6421_6870"/>
</filter>
<filter id="filter13_f_6421_6870" x="84.9115" y="89.217" width="34.3753" height="26.2383" filterUnits="userSpaceOnUse" color-interpolation-filters="sRGB">
<feFlood flood-opacity="0" result="BackgroundImageFix"/>
<feBlend mode="normal" in="SourceGraphic" in2="BackgroundImageFix" result="shape"/>
<feGaussianBlur stdDeviation="6.16584" result="effect1_foregroundBlur_6421_6870"/>
</filter>
<filter id="filter14_f_6421_6870" x="82.2855" y="87.9055" width="28.284" height="28.0844" filterUnits="userSpaceOnUse" color-interpolation-filters="sRGB">
<feFlood flood-opacity="0" result="BackgroundImageFix"/>
<feBlend mode="normal" in="SourceGraphic" in2="BackgroundImageFix" result="shape"/>
<feGaussianBlur stdDeviation="6.16584" result="effect1_foregroundBlur_6421_6870"/>
</filter>
<filter id="filter15_f_6421_6870" x="82.5482" y="78.4554" width="25.7132" height="33.0628" filterUnits="userSpaceOnUse" color-interpolation-filters="sRGB">
<feFlood flood-opacity="0" result="BackgroundImageFix"/>
<feBlend mode="normal" in="SourceGraphic" in2="BackgroundImageFix" result="shape"/>
<feGaussianBlur stdDeviation="6.16584" result="effect1_foregroundBlur_6421_6870"/>
</filter>
<filter id="filter16_f_6421_6870" x="125.745" y="89.217" width="34.3753" height="26.2383" filterUnits="userSpaceOnUse" color-interpolation-filters="sRGB">
<feFlood flood-opacity="0" result="BackgroundImageFix"/>
<feBlend mode="normal" in="SourceGraphic" in2="BackgroundImageFix" result="shape"/>
<feGaussianBlur stdDeviation="6.16584" result="effect1_foregroundBlur_6421_6870"/>
</filter>
<filter id="filter17_f_6421_6870" x="123.119" y="87.9051" width="28.284" height="28.0844" filterUnits="userSpaceOnUse" color-interpolation-filters="sRGB">
<feFlood flood-opacity="0" result="BackgroundImageFix"/>
<feBlend mode="normal" in="SourceGraphic" in2="BackgroundImageFix" result="shape"/>
<feGaussianBlur stdDeviation="6.16584" result="effect1_foregroundBlur_6421_6870"/>
</filter>
<filter id="filter18_f_6421_6870" x="123.382" y="78.4554" width="25.7132" height="33.0628" filterUnits="userSpaceOnUse" color-interpolation-filters="sRGB">
<feFlood flood-opacity="0" result="BackgroundImageFix"/>
<feBlend mode="normal" in="SourceGraphic" in2="BackgroundImageFix" result="shape"/>
<feGaussianBlur stdDeviation="6.16584" result="effect1_foregroundBlur_6421_6870"/>
</filter>
<filter id="filter19_f_6421_6870" x="166.578" y="89.217" width="34.3753" height="26.2383" filterUnits="userSpaceOnUse" color-interpolation-filters="sRGB">
<feFlood flood-opacity="0" result="BackgroundImageFix"/>
<feBlend mode="normal" in="SourceGraphic" in2="BackgroundImageFix" result="shape"/>
<feGaussianBlur stdDeviation="6.16584" result="effect1_foregroundBlur_6421_6870"/>
</filter>
<filter id="filter20_f_6421_6870" x="163.952" y="87.9051" width="28.284" height="28.0844" filterUnits="userSpaceOnUse" color-interpolation-filters="sRGB">
<feFlood flood-opacity="0" result="BackgroundImageFix"/>
<feBlend mode="normal" in="SourceGraphic" in2="BackgroundImageFix" result="shape"/>
<feGaussianBlur stdDeviation="6.16584" result="effect1_foregroundBlur_6421_6870"/>
</filter>
<filter id="filter21_f_6421_6870" x="164.215" y="78.4555" width="25.7132" height="33.0628" filterUnits="userSpaceOnUse" color-interpolation-filters="sRGB">
<feFlood flood-opacity="0" result="BackgroundImageFix"/>
<feBlend mode="normal" in="SourceGraphic" in2="BackgroundImageFix" result="shape"/>
<feGaussianBlur stdDeviation="6.16584" result="effect1_foregroundBlur_6421_6870"/>
</filter>
<filter id="filter22_d_6421_6870" x="-1.90159" y="49.0501" width="51.8599" height="58.7061" filterUnits="userSpaceOnUse" color-interpolation-filters="sRGB">
<feFlood flood-opacity="0" result="BackgroundImageFix"/>
<feColorMatrix in="SourceAlpha" type="matrix" values="0 0 0 0 0 0 0 0 0 0 0 0 0 0 0 0 0 0 127 0" result="hardAlpha"/>
<feOffset dx="1.28494" dy="2.56989"/>
<feGaussianBlur stdDeviation="3.42652"/>
<feComposite in2="hardAlpha" operator="out"/>
<feColorMatrix type="matrix" values="0 0 0 0 0 0 0 0 0 0 0 0 0 0 0 0 0 0 0.25 0"/>
<feBlend mode="normal" in2="BackgroundImageFix" result="effect1_dropShadow_6421_6870"/>
<feBlend mode="normal" in="SourceGraphic" in2="effect1_dropShadow_6421_6870" result="shape"/>
</filter>
<clipPath id="clip0_6421_6870">
<rect width="330.667" height="212" fill="white"/>
</clipPath>
<clipPath id="clip1_6421_6870">
<rect width="18" height="18" fill="white" transform="translate(228.81 159.333)"/>
</clipPath>
</defs>
</svg>
