<svg width="600" height="451" viewBox="0 0 600 451" fill="none" xmlns="http://www.w3.org/2000/svg">
<g filter="url(#filter0_d_6449_57289)">
<rect x="41.1875" y="201.287" width="100" height="32" rx="16" fill="#EDEDFD" shape-rendering="crispEdges"/>
<path d="M76.6315 222.787L73.2575 212.707H74.5525L77.4855 221.464L80.4465 212.707H81.7415L78.3675 222.787H76.6315ZM85.1805 222.997C84.4291 222.997 83.7805 222.827 83.2345 222.486C82.6931 222.145 82.2755 221.674 81.9815 221.072C81.6875 220.47 81.5405 219.779 81.5405 219C81.5405 218.207 81.6898 217.511 81.9885 216.914C82.2871 216.317 82.7095 215.852 83.2555 215.521C83.8015 215.185 84.4431 215.017 85.1805 215.017C85.9365 215.017 86.5875 215.187 87.1335 215.528C87.6795 215.864 88.0971 216.333 88.3865 216.935C88.6805 217.532 88.8275 218.221 88.8275 219C88.8275 219.789 88.6805 220.484 88.3865 221.086C88.0925 221.683 87.6725 222.152 87.1265 222.493C86.5805 222.829 85.9318 222.997 85.1805 222.997ZM85.1805 221.814C85.9645 221.814 86.5478 221.553 86.9305 221.03C87.3131 220.507 87.5045 219.831 87.5045 219C87.5045 218.146 87.3108 217.467 86.9235 216.963C86.5361 216.454 85.9551 216.2 85.1805 216.2C84.6531 216.2 84.2191 216.319 83.8785 216.557C83.5378 216.795 83.2835 217.124 83.1155 217.544C82.9475 217.964 82.8635 218.449 82.8635 219C82.8635 219.849 83.0595 220.531 83.4515 221.044C83.8435 221.557 84.4198 221.814 85.1805 221.814ZM90.5087 213.89V212.602H91.7547V213.89H90.5087ZM90.5087 222.787V215.227H91.7547V222.787H90.5087ZM97.04 222.997C96.2747 222.997 95.6237 222.827 95.087 222.486C94.555 222.141 94.149 221.667 93.869 221.065C93.589 220.463 93.4443 219.777 93.435 219.007C93.4443 218.218 93.5913 217.525 93.876 216.928C94.1653 216.326 94.5783 215.857 95.115 215.521C95.6517 215.185 96.298 215.017 97.054 215.017C97.852 215.017 98.538 215.213 99.112 215.605C99.6907 215.997 100.078 216.534 100.274 217.215L99.042 217.586C98.8833 217.147 98.6243 216.807 98.265 216.564C97.9103 216.321 97.502 216.2 97.04 216.2C96.522 216.2 96.095 216.321 95.759 216.564C95.423 216.802 95.1733 217.133 95.01 217.558C94.8467 217.978 94.7627 218.461 94.758 219.007C94.7673 219.847 94.961 220.526 95.339 221.044C95.7217 221.557 96.2887 221.814 97.04 221.814C97.5347 221.814 97.9453 221.702 98.272 221.478C98.5987 221.249 98.846 220.92 99.014 220.491L100.274 220.82C100.013 221.525 99.6043 222.064 99.049 222.437C98.4937 222.81 97.824 222.997 97.04 222.997ZM104.774 222.997C104.032 222.997 103.383 222.834 102.828 222.507C102.277 222.176 101.848 221.716 101.54 221.128C101.232 220.535 101.078 219.845 101.078 219.056C101.078 218.23 101.229 217.516 101.533 216.914C101.836 216.307 102.258 215.841 102.8 215.514C103.346 215.183 103.985 215.017 104.718 215.017C105.478 215.017 106.125 215.192 106.657 215.542C107.193 215.892 107.595 216.391 107.861 217.04C108.131 217.689 108.248 218.461 108.211 219.357H106.951V218.909C106.937 217.98 106.748 217.287 106.384 216.83C106.02 216.368 105.478 216.137 104.76 216.137C103.99 216.137 103.404 216.384 103.003 216.879C102.601 217.374 102.401 218.083 102.401 219.007C102.401 219.898 102.601 220.589 103.003 221.079C103.404 221.569 103.976 221.814 104.718 221.814C105.217 221.814 105.651 221.7 106.02 221.471C106.388 221.242 106.678 220.913 106.888 220.484L108.085 220.897C107.791 221.564 107.347 222.082 106.755 222.451C106.167 222.815 105.506 222.997 104.774 222.997ZM101.981 219.357V218.356H107.567V219.357H101.981Z" fill="#212528"/>
</g>
<g filter="url(#filter1_d_6449_57289)">
<rect x="61.1875" y="241.287" width="60" height="60" rx="7.875" fill="#EDEDFD"/>
<path d="M104.313 271.288C104.313 278.536 98.4362 284.413 91.1875 284.413C83.9388 284.413 78.0625 278.536 78.0625 271.288C78.0625 264.039 83.9388 258.163 91.1875 258.163C98.4362 258.163 104.313 264.039 104.313 271.288Z" fill="#696BEF"/>
<path d="M104.313 271.288C104.313 278.536 98.4362 284.413 91.1875 284.413C83.9388 284.413 78.0625 278.536 78.0625 271.288C78.0625 264.039 83.9388 258.163 91.1875 258.163C98.4362 258.163 104.313 264.039 104.313 271.288Z" fill="#696BEF"/>
<path d="M100.376 273.913C100.376 274.602 100.24 275.285 99.9763 275.922C99.7125 276.559 99.3258 277.137 98.8383 277.625C98.3508 278.112 97.772 278.499 97.1351 278.763C96.4981 279.027 95.8154 279.163 95.126 279.163L95.126 273.913H100.376Z" fill="white"/>
<path d="M94.8168 268.93L93.5469 259.598L87.251 264.725L91.1885 271.164H92.866C94.0589 271.164 94.9777 270.112 94.8168 268.93Z" fill="#3A3BA6"/>
<path d="M93.2225 279.525L92.3677 282.92L91.1885 277.075H91.3133C92.5954 277.075 93.5355 278.281 93.2225 279.525Z" fill="#3A3BA6"/>
<path fill-rule="evenodd" clip-rule="evenodd" d="M91.1885 277.074C87.9265 277.074 85.2822 274.43 85.2822 271.168H92.3697C93.0221 271.168 93.551 270.644 93.551 269.991V259.592C92.7876 259.437 91.9976 259.355 91.1885 259.355C84.6646 259.355 79.376 264.644 79.376 271.168C79.376 277.692 84.6646 282.98 91.1885 282.98C91.5871 282.98 91.9812 282.961 92.3697 282.922V278.255C92.3697 277.603 91.8409 277.074 91.1885 277.074ZM91.1881 265.261C91.1881 265.914 90.6592 266.443 90.0068 266.443C89.3545 266.443 88.8256 265.914 88.8256 265.261C88.8256 264.609 89.3545 264.08 90.0068 264.08C90.6592 264.08 91.1881 264.609 91.1881 265.261Z" fill="white"/>
</g>
<g filter="url(#filter2_d_6449_57289)">
<rect x="165.281" y="77.2871" width="60" height="60" rx="7.875" fill="#F9EAE5"/>
<path d="M182.156 100.912C182.156 99.3583 183.332 98.0991 184.781 98.0991H205.781C207.231 98.0991 208.406 99.3583 208.406 100.912V114.974C208.406 116.527 207.231 117.787 205.781 117.787H184.781C183.332 117.787 182.156 116.527 182.156 114.974V100.912Z" fill="#8C2E0E"/>
<path d="M182.156 99.6079C182.156 98.0499 183.246 96.7869 184.59 96.7869H205.973C207.317 96.7869 208.406 98.0499 208.406 99.6079C208.406 100.676 207.885 101.653 207.061 102.131L196.455 108.278C195.716 108.707 194.846 108.707 194.107 108.278L183.501 102.131C182.677 101.653 182.156 100.676 182.156 99.6079Z" fill="#CC5229"/>
</g>
<g filter="url(#filter3_d_6449_57289)">
<rect x="145.281" y="145.287" width="100" height="32" rx="16" fill="#F9EAE5" shape-rendering="crispEdges"/>
<path d="M167.237 166.997C166.458 166.997 165.77 166.836 165.172 166.514C164.575 166.192 164.106 165.742 163.765 165.163C163.429 164.58 163.261 163.896 163.261 163.112V156.714L164.521 156.707V163.007C164.521 163.483 164.601 163.898 164.759 164.253C164.923 164.603 165.137 164.895 165.403 165.128C165.669 165.361 165.961 165.536 166.278 165.653C166.6 165.765 166.92 165.821 167.237 165.821C167.559 165.821 167.881 165.763 168.203 165.646C168.525 165.529 168.817 165.357 169.078 165.128C169.344 164.895 169.557 164.601 169.715 164.246C169.874 163.891 169.953 163.478 169.953 163.007V156.707H171.213V163.112C171.213 163.891 171.043 164.573 170.702 165.156C170.366 165.739 169.9 166.192 169.302 166.514C168.705 166.836 168.017 166.997 167.237 166.997ZM173.173 166.787V156.707H177.156C177.254 156.707 177.371 156.712 177.506 156.721C177.642 156.726 177.772 156.74 177.898 156.763C178.444 156.847 178.902 157.034 179.27 157.323C179.644 157.612 179.924 157.979 180.11 158.422C180.297 158.861 180.39 159.348 180.39 159.885C180.39 160.664 180.187 161.341 179.781 161.915C179.375 162.484 178.78 162.841 177.996 162.986L177.52 163.063H174.419V166.787H173.173ZM179.172 166.787L177.184 162.685L178.416 162.307L180.6 166.787H179.172ZM174.419 161.88H177.114C177.203 161.88 177.303 161.875 177.415 161.866C177.532 161.857 177.642 161.84 177.744 161.817C178.066 161.742 178.328 161.607 178.528 161.411C178.734 161.21 178.883 160.977 178.976 160.711C179.07 160.44 179.116 160.165 179.116 159.885C179.116 159.605 179.07 159.332 178.976 159.066C178.883 158.795 178.734 158.56 178.528 158.359C178.328 158.158 178.066 158.023 177.744 157.953C177.642 157.925 177.532 157.909 177.415 157.904C177.303 157.895 177.203 157.89 177.114 157.89H174.419V161.88ZM182.282 166.787V156.707H183.528V165.604H188.204V166.787H182.282ZM191.634 166.787V156.497H192.88V166.787H191.634ZM198.2 166.997C197.449 166.997 196.8 166.827 196.254 166.486C195.713 166.145 195.295 165.674 195.001 165.072C194.707 164.47 194.56 163.779 194.56 163C194.56 162.207 194.709 161.511 195.008 160.914C195.307 160.317 195.729 159.852 196.275 159.521C196.821 159.185 197.463 159.017 198.2 159.017C198.956 159.017 199.607 159.187 200.153 159.528C200.699 159.864 201.117 160.333 201.406 160.935C201.7 161.532 201.847 162.221 201.847 163C201.847 163.789 201.7 164.484 201.406 165.086C201.112 165.683 200.692 166.152 200.146 166.493C199.6 166.829 198.951 166.997 198.2 166.997ZM198.2 165.814C198.984 165.814 199.567 165.553 199.95 165.03C200.333 164.507 200.524 163.831 200.524 163C200.524 162.146 200.33 161.467 199.943 160.963C199.556 160.454 198.975 160.2 198.2 160.2C197.673 160.2 197.239 160.319 196.898 160.557C196.557 160.795 196.303 161.124 196.135 161.544C195.967 161.964 195.883 162.449 195.883 163C195.883 163.849 196.079 164.531 196.471 165.044C196.863 165.557 197.439 165.814 198.2 165.814ZM208.771 166.787V163C208.771 162.641 208.739 162.295 208.673 161.964C208.613 161.633 208.503 161.336 208.344 161.075C208.19 160.809 207.98 160.599 207.714 160.445C207.453 160.291 207.122 160.214 206.72 160.214C206.408 160.214 206.123 160.268 205.866 160.375C205.614 160.478 205.397 160.636 205.215 160.851C205.033 161.066 204.891 161.336 204.788 161.663C204.69 161.985 204.641 162.365 204.641 162.804L203.822 162.552C203.822 161.819 203.953 161.192 204.214 160.669C204.48 160.142 204.851 159.738 205.327 159.458C205.808 159.173 206.373 159.031 207.021 159.031C207.511 159.031 207.929 159.108 208.274 159.262C208.62 159.416 208.907 159.621 209.135 159.878C209.364 160.13 209.544 160.415 209.674 160.732C209.805 161.045 209.896 161.364 209.947 161.691C210.003 162.013 210.031 162.319 210.031 162.608V166.787H208.771ZM203.381 166.787V159.227H204.501V161.25H204.641V166.787H203.381ZM214.91 170.357C214.513 170.357 214.126 170.296 213.748 170.175C213.37 170.054 213.022 169.869 212.705 169.622C212.392 169.379 212.131 169.071 211.921 168.698L213.062 168.096C213.249 168.465 213.512 168.733 213.853 168.901C214.198 169.069 214.553 169.153 214.917 169.153C215.398 169.153 215.797 169.064 216.114 168.887C216.431 168.714 216.665 168.455 216.814 168.11C216.968 167.765 217.043 167.335 217.038 166.822V164.757H217.185V159.227H218.291V166.836C218.291 167.041 218.284 167.24 218.27 167.431C218.261 167.622 218.237 167.811 218.2 167.998C218.102 168.535 217.908 168.976 217.619 169.321C217.33 169.671 216.956 169.93 216.499 170.098C216.042 170.271 215.512 170.357 214.91 170.357ZM214.819 166.997C214.114 166.997 213.51 166.822 213.006 166.472C212.502 166.117 212.112 165.639 211.837 165.037C211.566 164.435 211.431 163.756 211.431 163C211.431 162.244 211.566 161.565 211.837 160.963C212.112 160.361 212.502 159.887 213.006 159.542C213.51 159.192 214.112 159.017 214.812 159.017C215.526 159.017 216.126 159.19 216.611 159.535C217.096 159.88 217.463 160.354 217.71 160.956C217.962 161.558 218.088 162.239 218.088 163C218.088 163.751 217.962 164.43 217.71 165.037C217.463 165.639 217.096 166.117 216.611 166.472C216.126 166.822 215.528 166.997 214.819 166.997ZM214.973 165.856C215.482 165.856 215.899 165.735 216.226 165.492C216.553 165.245 216.793 164.906 216.947 164.477C217.106 164.043 217.185 163.551 217.185 163C217.185 162.44 217.106 161.948 216.947 161.523C216.793 161.094 216.555 160.76 216.233 160.522C215.911 160.279 215.503 160.158 215.008 160.158C214.495 160.158 214.07 160.284 213.734 160.536C213.403 160.788 213.155 161.129 212.992 161.558C212.833 161.987 212.754 162.468 212.754 163C212.754 163.537 212.836 164.022 212.999 164.456C213.162 164.885 213.407 165.226 213.734 165.478C214.065 165.73 214.478 165.856 214.973 165.856ZM223.466 166.997C222.714 166.997 222.066 166.827 221.52 166.486C220.978 166.145 220.561 165.674 220.267 165.072C219.973 164.47 219.826 163.779 219.826 163C219.826 162.207 219.975 161.511 220.274 160.914C220.572 160.317 220.995 159.852 221.541 159.521C222.087 159.185 222.728 159.017 223.466 159.017C224.222 159.017 224.873 159.187 225.419 159.528C225.965 159.864 226.382 160.333 226.672 160.935C226.966 161.532 227.113 162.221 227.113 163C227.113 163.789 226.966 164.484 226.672 165.086C226.378 165.683 225.958 166.152 225.412 166.493C224.866 166.829 224.217 166.997 223.466 166.997ZM223.466 165.814C224.25 165.814 224.833 165.553 225.216 165.03C225.598 164.507 225.79 163.831 225.79 163C225.79 162.146 225.596 161.467 225.209 160.963C224.821 160.454 224.24 160.2 223.466 160.2C222.938 160.2 222.504 160.319 222.164 160.557C221.823 160.795 221.569 161.124 221.401 161.544C221.233 161.964 221.149 162.449 221.149 163C221.149 163.849 221.345 164.531 221.737 165.044C222.129 165.557 222.705 165.814 223.466 165.814Z" fill="#212528"/>
</g>
<g filter="url(#filter4_d_6449_57289)">
<rect x="249.688" y="201.287" width="100" height="32" rx="16" fill="#E8F7E8" shape-rendering="crispEdges"/>
<path d="M268.317 222.787L265.398 212.707H266.7L268.94 220.68L271.173 212.714L272.482 212.707L274.722 220.68L276.955 212.707H278.264L275.345 222.787H274.099L271.831 214.884L269.562 222.787H268.317ZM284.84 222.787V219C284.84 218.641 284.807 218.295 284.742 217.964C284.681 217.633 284.571 217.336 284.413 217.075C284.259 216.809 284.049 216.599 283.783 216.445C283.521 216.291 283.19 216.214 282.789 216.214C282.476 216.214 282.191 216.268 281.935 216.375C281.683 216.478 281.466 216.636 281.284 216.851C281.102 217.066 280.959 217.336 280.857 217.663C280.759 217.985 280.71 218.365 280.71 218.804L279.891 218.552C279.891 217.819 280.021 217.192 280.283 216.669C280.549 216.142 280.92 215.738 281.396 215.458C281.876 215.173 282.441 215.031 283.09 215.031C283.58 215.031 283.997 215.108 284.343 215.262C284.688 215.416 284.975 215.621 285.204 215.878C285.432 216.13 285.612 216.415 285.743 216.732C285.873 217.045 285.964 217.364 286.016 217.691C286.072 218.013 286.1 218.319 286.1 218.608V222.787H284.84ZM279.45 222.787V212.707H280.57V218.272H280.71V222.787H279.45ZM290.068 222.997C289.504 222.997 289.03 222.894 288.647 222.689C288.269 222.479 287.982 222.204 287.786 221.863C287.595 221.522 287.499 221.149 287.499 220.743C287.499 220.346 287.574 220.003 287.723 219.714C287.877 219.42 288.092 219.177 288.367 218.986C288.643 218.79 288.972 218.636 289.354 218.524C289.714 218.426 290.115 218.342 290.558 218.272C291.006 218.197 291.459 218.13 291.916 218.069C292.374 218.008 292.801 217.95 293.197 217.894L292.749 218.153C292.763 217.481 292.628 216.984 292.343 216.662C292.063 216.34 291.578 216.179 290.887 216.179C290.43 216.179 290.029 216.284 289.683 216.494C289.343 216.699 289.102 217.035 288.962 217.502L287.779 217.145C287.961 216.482 288.314 215.962 288.836 215.584C289.359 215.206 290.047 215.017 290.901 215.017C291.587 215.017 292.175 215.141 292.665 215.388C293.16 215.631 293.515 215.999 293.729 216.494C293.837 216.727 293.904 216.982 293.932 217.257C293.96 217.528 293.974 217.812 293.974 218.111V222.787H292.868V220.974L293.127 221.142C292.843 221.753 292.444 222.215 291.93 222.528C291.422 222.841 290.801 222.997 290.068 222.997ZM290.257 221.954C290.705 221.954 291.093 221.875 291.419 221.716C291.751 221.553 292.017 221.34 292.217 221.079C292.418 220.813 292.549 220.524 292.609 220.211C292.679 219.978 292.717 219.719 292.721 219.434C292.731 219.145 292.735 218.923 292.735 218.769L293.169 218.958C292.763 219.014 292.364 219.068 291.972 219.119C291.58 219.17 291.209 219.226 290.859 219.287C290.509 219.343 290.194 219.411 289.914 219.49C289.709 219.555 289.515 219.639 289.333 219.742C289.156 219.845 289.011 219.978 288.899 220.141C288.792 220.3 288.738 220.498 288.738 220.736C288.738 220.941 288.79 221.137 288.892 221.324C289 221.511 289.163 221.662 289.382 221.779C289.606 221.896 289.898 221.954 290.257 221.954ZM300.015 222.787C299.567 222.876 299.124 222.911 298.685 222.892C298.251 222.878 297.864 222.792 297.523 222.633C297.183 222.47 296.924 222.218 296.746 221.877C296.597 221.578 296.515 221.277 296.501 220.974C296.492 220.666 296.487 220.318 296.487 219.931V213.127H297.733V219.875C297.733 220.183 297.736 220.447 297.74 220.666C297.75 220.885 297.799 221.074 297.887 221.233C298.055 221.532 298.321 221.707 298.685 221.758C299.054 221.809 299.497 221.795 300.015 221.716V222.787ZM294.954 216.256V215.227H300.015V216.256H294.954ZM304.406 222.99C303.506 222.99 302.766 222.794 302.187 222.402C301.613 222.005 301.261 221.452 301.13 220.743L302.404 220.54C302.507 220.951 302.743 221.277 303.111 221.52C303.48 221.758 303.937 221.877 304.483 221.877C305.001 221.877 305.407 221.77 305.701 221.555C305.995 221.34 306.142 221.049 306.142 220.68C306.142 220.465 306.093 220.293 305.995 220.162C305.897 220.027 305.694 219.901 305.386 219.784C305.083 219.667 304.623 219.527 304.007 219.364C303.34 219.187 302.815 219.002 302.432 218.811C302.05 218.62 301.777 218.398 301.613 218.146C301.45 217.894 301.368 217.588 301.368 217.229C301.368 216.786 301.49 216.398 301.732 216.067C301.975 215.731 302.313 215.472 302.747 215.29C303.186 215.108 303.695 215.017 304.273 215.017C304.847 215.017 305.361 215.108 305.813 215.29C306.266 215.472 306.63 215.731 306.905 216.067C307.185 216.398 307.351 216.786 307.402 217.229L306.128 217.46C306.068 217.054 305.872 216.734 305.54 216.501C305.214 216.268 304.791 216.144 304.273 216.13C303.783 216.111 303.384 216.198 303.076 216.389C302.773 216.58 302.621 216.839 302.621 217.166C302.621 217.348 302.677 217.504 302.789 217.635C302.906 217.766 303.118 217.889 303.426 218.006C303.739 218.123 304.192 218.256 304.784 218.405C305.452 218.573 305.977 218.757 306.359 218.958C306.747 219.154 307.022 219.387 307.185 219.658C307.349 219.924 307.43 220.253 307.43 220.645C307.43 221.373 307.162 221.947 306.625 222.367C306.089 222.782 305.349 222.99 304.406 222.99ZM308.274 222.787L311.648 212.707H313.384L316.758 222.787H315.463L312.306 213.435H312.698L309.569 222.787H308.274ZM309.898 220.428V219.259H315.134V220.428H309.898ZM321.483 222.997C320.774 222.997 320.177 222.822 319.691 222.472C319.206 222.117 318.837 221.639 318.585 221.037C318.338 220.43 318.214 219.751 318.214 219C318.214 218.239 318.338 217.558 318.585 216.956C318.837 216.354 319.206 215.88 319.691 215.535C320.181 215.19 320.781 215.017 321.49 215.017C322.19 215.017 322.792 215.192 323.296 215.542C323.805 215.887 324.195 216.361 324.465 216.963C324.736 217.565 324.871 218.244 324.871 219C324.871 219.756 324.736 220.435 324.465 221.037C324.195 221.639 323.805 222.117 323.296 222.472C322.792 222.822 322.188 222.997 321.483 222.997ZM318.004 226.147V215.227H319.117V220.792H319.257V226.147H318.004ZM321.329 221.856C321.829 221.856 322.242 221.73 322.568 221.478C322.895 221.226 323.14 220.885 323.303 220.456C323.467 220.022 323.548 219.537 323.548 219C323.548 218.468 323.467 217.987 323.303 217.558C323.145 217.129 322.897 216.788 322.561 216.536C322.23 216.284 321.808 216.158 321.294 216.158C320.804 216.158 320.398 216.279 320.076 216.522C319.754 216.76 319.514 217.094 319.355 217.523C319.197 217.948 319.117 218.44 319.117 219C319.117 219.551 319.194 220.043 319.348 220.477C319.507 220.906 319.75 221.245 320.076 221.492C320.403 221.735 320.821 221.856 321.329 221.856ZM329.878 222.997C329.168 222.997 328.571 222.822 328.086 222.472C327.6 222.117 327.232 221.639 326.98 221.037C326.732 220.43 326.609 219.751 326.609 219C326.609 218.239 326.732 217.558 326.98 216.956C327.232 216.354 327.6 215.88 328.086 215.535C328.576 215.19 329.175 215.017 329.885 215.017C330.585 215.017 331.187 215.192 331.691 215.542C332.199 215.887 332.589 216.361 332.86 216.963C333.13 217.565 333.266 218.244 333.266 219C333.266 219.756 333.13 220.435 332.86 221.037C332.589 221.639 332.199 222.117 331.691 222.472C331.187 222.822 330.582 222.997 329.878 222.997ZM326.399 226.147V215.227H327.512V220.792H327.652V226.147H326.399ZM329.724 221.856C330.223 221.856 330.636 221.73 330.963 221.478C331.289 221.226 331.534 220.885 331.698 220.456C331.861 220.022 331.943 219.537 331.943 219C331.943 218.468 331.861 217.987 331.698 217.558C331.539 217.129 331.292 216.788 330.956 216.536C330.624 216.284 330.202 216.158 329.689 216.158C329.199 216.158 328.793 216.279 328.471 216.522C328.149 216.76 327.908 217.094 327.75 217.523C327.591 217.948 327.512 218.44 327.512 219C327.512 219.551 327.589 220.043 327.743 220.477C327.901 220.906 328.144 221.245 328.471 221.492C328.797 221.735 329.215 221.856 329.724 221.856Z" fill="#212528"/>
</g>
<g filter="url(#filter5_d_6449_57289)">
<rect x="269.688" y="241.287" width="60" height="60" rx="7.875" fill="#E8F7E8"/>
<path fill-rule="evenodd" clip-rule="evenodd" d="M296.53 266.002C296.293 265.477 296.045 265.466 295.82 265.457C295.636 265.449 295.425 265.449 295.215 265.449C295.004 265.449 294.662 265.528 294.373 265.844C294.084 266.16 293.269 266.923 293.269 268.476C293.269 270.029 294.4 271.53 294.557 271.74C294.715 271.951 296.741 275.24 299.949 276.505C302.615 277.556 303.157 277.347 303.736 277.294C304.315 277.242 305.604 276.531 305.866 275.794C306.13 275.057 306.13 274.425 306.051 274.293C305.972 274.162 305.761 274.083 305.446 273.925C305.13 273.767 303.578 273.004 303.289 272.898C303 272.793 302.789 272.741 302.579 273.056C302.368 273.372 301.764 274.083 301.58 274.293C301.396 274.504 301.211 274.53 300.896 274.373C300.58 274.214 299.563 273.882 298.358 272.806C297.419 271.97 296.786 270.937 296.602 270.621C296.418 270.305 296.582 270.134 296.74 269.977C296.882 269.835 297.056 269.608 297.214 269.424C297.371 269.24 297.424 269.108 297.529 268.898C297.634 268.687 297.582 268.503 297.503 268.345C297.424 268.187 296.811 266.626 296.53 266.002Z" fill="#29A653"/>
<path fill-rule="evenodd" clip-rule="evenodd" d="M289.976 281.145L291.052 277.261C289.877 275.565 289.188 273.507 289.188 271.288C289.188 265.489 293.889 260.788 299.688 260.788C305.487 260.788 310.188 265.489 310.188 271.288C310.188 277.087 305.487 281.788 299.688 281.788C297.577 281.788 295.611 281.165 293.965 280.092L289.976 281.145ZM293.582 282.908L286.226 284.848L288.215 277.667C287.163 275.777 286.563 273.6 286.563 271.288C286.563 264.039 292.439 258.163 299.688 258.163C306.937 258.163 312.813 264.039 312.813 271.288C312.813 278.536 306.937 284.413 299.688 284.413C297.487 284.413 295.408 283.869 293.582 282.908Z" fill="#29A653"/>
</g>
<g filter="url(#filter6_d_6449_57289)">
<rect x="374.094" y="77.2871" width="60" height="60" rx="7.875" fill="#E2F0FF"/>
<path d="M390.969 99.4118C390.969 97.2372 392.732 95.4743 394.906 95.4743H413.281C415.456 95.4743 417.219 97.2372 417.219 99.4118V109.912C417.219 112.086 415.456 113.849 413.281 113.849H390.969V99.4118Z" fill="#0D4680"/>
<path d="M390.969 99.4118C390.969 97.2372 392.732 95.4743 394.906 95.4743H413.419C413.762 95.4743 414.104 95.5297 414.43 95.6383L390.969 119.099V99.4118Z" fill="#66BDFF"/>
</g>
<g filter="url(#filter7_d_6449_57289)">
<rect x="354.094" y="145.287" width="100" height="32" rx="16" fill="#E2F0FF" shape-rendering="crispEdges"/>
<path d="M393.651 166.997C392.937 166.997 392.293 166.876 391.719 166.633C391.149 166.39 390.678 166.045 390.305 165.597C389.936 165.144 389.696 164.61 389.584 163.994L390.872 163.791C391.035 164.426 391.373 164.923 391.887 165.282C392.405 165.637 393.014 165.814 393.714 165.814C394.166 165.814 394.575 165.744 394.939 165.604C395.307 165.459 395.599 165.254 395.814 164.988C396.028 164.722 396.136 164.407 396.136 164.043C396.136 163.819 396.096 163.628 396.017 163.469C395.942 163.306 395.837 163.168 395.702 163.056C395.571 162.939 395.422 162.841 395.254 162.762C395.086 162.683 394.911 162.617 394.729 162.566L392.16 161.803C391.88 161.719 391.609 161.614 391.348 161.488C391.086 161.357 390.853 161.196 390.648 161.005C390.442 160.809 390.279 160.576 390.158 160.305C390.036 160.03 389.976 159.705 389.976 159.332C389.976 158.735 390.13 158.226 390.438 157.806C390.75 157.381 391.173 157.057 391.705 156.833C392.237 156.609 392.836 156.499 393.504 156.504C394.18 156.509 394.785 156.63 395.317 156.868C395.853 157.101 396.297 157.437 396.647 157.876C397.001 158.315 397.239 158.84 397.361 159.451L396.038 159.682C395.968 159.271 395.811 158.919 395.569 158.625C395.331 158.326 395.032 158.098 394.673 157.939C394.313 157.776 393.919 157.692 393.49 157.687C393.079 157.682 392.708 157.748 392.377 157.883C392.045 158.018 391.782 158.207 391.586 158.45C391.39 158.688 391.292 158.963 391.292 159.276C391.292 159.584 391.38 159.834 391.558 160.025C391.735 160.212 391.952 160.361 392.209 160.473C392.47 160.58 392.724 160.669 392.972 160.739L394.89 161.292C395.109 161.353 395.361 161.437 395.646 161.544C395.935 161.651 396.215 161.803 396.486 161.999C396.756 162.19 396.98 162.447 397.158 162.769C397.335 163.086 397.424 163.488 397.424 163.973C397.424 164.458 397.326 164.89 397.13 165.268C396.938 165.646 396.67 165.963 396.325 166.22C395.979 166.472 395.578 166.663 395.121 166.794C394.663 166.929 394.173 166.997 393.651 166.997ZM398.892 166.787V156.707H400.026L403.834 164.736L407.621 156.707H408.769V166.78H407.586V159.444L404.163 166.787H403.498L400.075 159.444V166.787H398.892ZM414.309 166.997C413.595 166.997 412.951 166.876 412.377 166.633C411.808 166.39 411.336 166.045 410.963 165.597C410.594 165.144 410.354 164.61 410.242 163.994L411.53 163.791C411.693 164.426 412.032 164.923 412.545 165.282C413.063 165.637 413.672 165.814 414.372 165.814C414.825 165.814 415.233 165.744 415.597 165.604C415.966 165.459 416.257 165.254 416.472 164.988C416.687 164.722 416.794 164.407 416.794 164.043C416.794 163.819 416.754 163.628 416.675 163.469C416.6 163.306 416.495 163.168 416.36 163.056C416.229 162.939 416.08 162.841 415.912 162.762C415.744 162.683 415.569 162.617 415.387 162.566L412.818 161.803C412.538 161.719 412.267 161.614 412.006 161.488C411.745 161.357 411.511 161.196 411.306 161.005C411.101 160.809 410.937 160.576 410.816 160.305C410.695 160.03 410.634 159.705 410.634 159.332C410.634 158.735 410.788 158.226 411.096 157.806C411.409 157.381 411.831 157.057 412.363 156.833C412.895 156.609 413.495 156.499 414.162 156.504C414.839 156.509 415.443 156.63 415.975 156.868C416.512 157.101 416.955 157.437 417.305 157.876C417.66 158.315 417.898 158.84 418.019 159.451L416.696 159.682C416.626 159.271 416.47 158.919 416.227 158.625C415.989 158.326 415.69 158.098 415.331 157.939C414.972 157.776 414.577 157.692 414.148 157.687C413.737 157.682 413.366 157.748 413.035 157.883C412.704 158.018 412.44 158.207 412.244 158.45C412.048 158.688 411.95 158.963 411.95 159.276C411.95 159.584 412.039 159.834 412.216 160.025C412.393 160.212 412.61 160.361 412.867 160.473C413.128 160.58 413.383 160.669 413.63 160.739L415.548 161.292C415.767 161.353 416.019 161.437 416.304 161.544C416.593 161.651 416.873 161.803 417.144 161.999C417.415 162.19 417.639 162.447 417.816 162.769C417.993 163.086 418.082 163.488 418.082 163.973C418.082 164.458 417.984 164.89 417.788 165.268C417.597 165.646 417.328 165.963 416.983 166.22C416.638 166.472 416.236 166.663 415.779 166.794C415.322 166.929 414.832 166.997 414.309 166.997Z" fill="#212528"/>
</g>
<g filter="url(#filter8_d_6449_57289)">
<rect x="458.5" y="201.287" width="100" height="32" rx="16" fill="#E8F7E8" shape-rendering="crispEdges"/>
<path d="M467.699 222.787V212.707H468.959L474.216 220.582V212.707H475.476V222.787H474.216L468.959 214.905V222.787H467.699ZM480.653 222.997C479.902 222.997 479.253 222.827 478.707 222.486C478.166 222.145 477.748 221.674 477.454 221.072C477.16 220.47 477.013 219.779 477.013 219C477.013 218.207 477.162 217.511 477.461 216.914C477.76 216.317 478.182 215.852 478.728 215.521C479.274 215.185 479.916 215.017 480.653 215.017C481.409 215.017 482.06 215.187 482.606 215.528C483.152 215.864 483.57 216.333 483.859 216.935C484.153 217.532 484.3 218.221 484.3 219C484.3 219.789 484.153 220.484 483.859 221.086C483.565 221.683 483.145 222.152 482.599 222.493C482.053 222.829 481.404 222.997 480.653 222.997ZM480.653 221.814C481.437 221.814 482.02 221.553 482.403 221.03C482.786 220.507 482.977 219.831 482.977 219C482.977 218.146 482.783 217.467 482.396 216.963C482.009 216.454 481.428 216.2 480.653 216.2C480.126 216.2 479.692 216.319 479.351 216.557C479.01 216.795 478.756 217.124 478.588 217.544C478.42 217.964 478.336 218.449 478.336 219C478.336 219.849 478.532 220.531 478.924 221.044C479.316 221.557 479.892 221.814 480.653 221.814ZM490.062 222.787C489.614 222.876 489.171 222.911 488.732 222.892C488.298 222.878 487.911 222.792 487.57 222.633C487.23 222.47 486.971 222.218 486.793 221.877C486.644 221.578 486.562 221.277 486.548 220.974C486.539 220.666 486.534 220.318 486.534 219.931V213.127H487.78V219.875C487.78 220.183 487.783 220.447 487.787 220.666C487.797 220.885 487.846 221.074 487.934 221.233C488.102 221.532 488.368 221.707 488.732 221.758C489.101 221.809 489.544 221.795 490.062 221.716V222.787ZM485.001 216.256V215.227H490.062V216.256H485.001ZM491.737 213.89V212.602H492.983V213.89H491.737ZM491.737 222.787V215.227H492.983V222.787H491.737ZM495.805 222.787V214.814C495.805 214.618 495.814 214.42 495.833 214.219C495.851 214.014 495.893 213.815 495.959 213.624C496.024 213.428 496.131 213.248 496.281 213.085C496.453 212.894 496.642 212.758 496.848 212.679C497.053 212.595 497.261 212.544 497.471 212.525C497.685 212.506 497.888 212.497 498.08 212.497H499.039V213.533H498.15C497.781 213.533 497.506 213.624 497.324 213.806C497.142 213.983 497.051 214.254 497.051 214.618V222.787H495.805ZM494.524 216.256V215.227H499.039V216.256H494.524ZM500.509 213.89V212.602H501.755V213.89H500.509ZM500.509 222.787V215.227H501.755V222.787H500.509ZM507.046 222.997C506.281 222.997 505.63 222.827 505.093 222.486C504.561 222.141 504.155 221.667 503.875 221.065C503.595 220.463 503.45 219.777 503.441 219.007C503.45 218.218 503.597 217.525 503.882 216.928C504.171 216.326 504.584 215.857 505.121 215.521C505.658 215.185 506.304 215.017 507.06 215.017C507.858 215.017 508.544 215.213 509.118 215.605C509.697 215.997 510.084 216.534 510.28 217.215L509.048 217.586C508.889 217.147 508.63 216.807 508.271 216.564C507.916 216.321 507.508 216.2 507.046 216.2C506.528 216.2 506.101 216.321 505.765 216.564C505.429 216.802 505.179 217.133 505.016 217.558C504.853 217.978 504.769 218.461 504.764 219.007C504.773 219.847 504.967 220.526 505.345 221.044C505.728 221.557 506.295 221.814 507.046 221.814C507.541 221.814 507.951 221.702 508.278 221.478C508.605 221.249 508.852 220.92 509.02 220.491L510.28 220.82C510.019 221.525 509.61 222.064 509.055 222.437C508.5 222.81 507.83 222.997 507.046 222.997ZM513.789 222.997C513.224 222.997 512.751 222.894 512.368 222.689C511.99 222.479 511.703 222.204 511.507 221.863C511.316 221.522 511.22 221.149 511.22 220.743C511.22 220.346 511.295 220.003 511.444 219.714C511.598 219.42 511.813 219.177 512.088 218.986C512.363 218.79 512.692 218.636 513.075 218.524C513.434 218.426 513.836 218.342 514.279 218.272C514.727 218.197 515.18 218.13 515.637 218.069C516.094 218.008 516.521 217.95 516.918 217.894L516.47 218.153C516.484 217.481 516.349 216.984 516.064 216.662C515.784 216.34 515.299 216.179 514.608 216.179C514.151 216.179 513.749 216.284 513.404 216.494C513.063 216.699 512.823 217.035 512.683 217.502L511.5 217.145C511.682 216.482 512.034 215.962 512.557 215.584C513.08 215.206 513.768 215.017 514.622 215.017C515.308 215.017 515.896 215.141 516.386 215.388C516.881 215.631 517.235 215.999 517.45 216.494C517.557 216.727 517.625 216.982 517.653 217.257C517.681 217.528 517.695 217.812 517.695 218.111V222.787H516.589V220.974L516.848 221.142C516.563 221.753 516.164 222.215 515.651 222.528C515.142 222.841 514.522 222.997 513.789 222.997ZM513.978 221.954C514.426 221.954 514.813 221.875 515.14 221.716C515.471 221.553 515.737 221.34 515.938 221.079C516.139 220.813 516.269 220.524 516.33 220.211C516.4 219.978 516.437 219.719 516.442 219.434C516.451 219.145 516.456 218.923 516.456 218.769L516.89 218.958C516.484 219.014 516.085 219.068 515.693 219.119C515.301 219.17 514.93 219.226 514.58 219.287C514.23 219.343 513.915 219.411 513.635 219.49C513.43 219.555 513.236 219.639 513.054 219.742C512.877 219.845 512.732 219.978 512.62 220.141C512.513 220.3 512.459 220.498 512.459 220.736C512.459 220.941 512.51 221.137 512.613 221.324C512.72 221.511 512.884 221.662 513.103 221.779C513.327 221.896 513.619 221.954 513.978 221.954ZM522.392 226.154C522.219 226.154 522.056 226.131 521.902 226.084C521.753 226.042 521.61 225.988 521.475 225.923L521.776 225.118C521.986 225.193 522.156 225.23 522.287 225.23C522.455 225.23 522.583 225.179 522.672 225.076C522.765 224.973 522.812 224.861 522.812 224.74C522.812 224.535 522.719 224.385 522.532 224.292C522.345 224.203 522.131 224.124 521.888 224.054L522.399 222.619L523.246 222.612L522.917 223.536C523.174 223.653 523.379 223.811 523.533 224.012C523.687 224.217 523.764 224.472 523.764 224.775C523.764 225.172 523.629 225.501 523.358 225.762C523.087 226.023 522.765 226.154 522.392 226.154ZM522.7 222.997C521.935 222.997 521.284 222.827 520.747 222.486C520.215 222.141 519.809 221.667 519.529 221.065C519.249 220.463 519.104 219.777 519.095 219.007C519.104 218.218 519.251 217.525 519.536 216.928C519.825 216.326 520.238 215.857 520.775 215.521C521.312 215.185 521.958 215.017 522.714 215.017C523.512 215.017 524.198 215.213 524.772 215.605C525.351 215.997 525.738 216.534 525.934 217.215L524.702 217.586C524.543 217.147 524.284 216.807 523.925 216.564C523.57 216.321 523.162 216.2 522.7 216.2C522.182 216.2 521.755 216.321 521.419 216.564C521.083 216.802 520.833 217.133 520.67 217.558C520.507 217.978 520.423 218.461 520.418 219.007C520.427 219.847 520.621 220.526 520.999 221.044C521.382 221.557 521.949 221.814 522.7 221.814C523.195 221.814 523.605 221.702 523.932 221.478C524.259 221.249 524.506 220.92 524.674 220.491L525.934 220.82C525.673 221.525 525.264 222.064 524.709 222.437C524.154 222.81 523.484 222.997 522.7 222.997ZM531.477 214.051C531.271 214.051 531.073 214.009 530.882 213.925C530.69 213.836 530.506 213.736 530.329 213.624C530.151 213.512 529.983 213.414 529.825 213.33C529.666 213.241 529.517 213.197 529.377 213.197C529.209 213.197 529.099 213.272 529.048 213.421C528.996 213.566 528.996 213.729 529.048 213.911H528.208C528.096 213.444 528.135 213.05 528.327 212.728C528.518 212.401 528.84 212.238 529.293 212.238C529.503 212.238 529.703 212.282 529.895 212.371C530.086 212.455 530.27 212.553 530.448 212.665C530.63 212.777 530.8 212.877 530.959 212.966C531.117 213.05 531.264 213.092 531.4 213.092C531.558 213.092 531.668 213.02 531.729 212.875C531.789 212.73 531.789 212.56 531.729 212.364H532.569C532.685 212.821 532.648 213.218 532.457 213.554C532.265 213.885 531.939 214.051 531.477 214.051ZM530.378 222.997C529.626 222.997 528.978 222.827 528.432 222.486C527.89 222.145 527.473 221.674 527.179 221.072C526.885 220.47 526.738 219.779 526.738 219C526.738 218.207 526.887 217.511 527.186 216.914C527.484 216.317 527.907 215.852 528.453 215.521C528.999 215.185 529.64 215.017 530.378 215.017C531.134 215.017 531.785 215.187 532.331 215.528C532.877 215.864 533.294 216.333 533.584 216.935C533.878 217.532 534.025 218.221 534.025 219C534.025 219.789 533.878 220.484 533.584 221.086C533.29 221.683 532.87 222.152 532.324 222.493C531.778 222.829 531.129 222.997 530.378 222.997ZM530.378 221.814C531.162 221.814 531.745 221.553 532.128 221.03C532.51 220.507 532.702 219.831 532.702 219C532.702 218.146 532.508 217.467 532.121 216.963C531.733 216.454 531.152 216.2 530.378 216.2C529.85 216.2 529.416 216.319 529.076 216.557C528.735 216.795 528.481 217.124 528.313 217.544C528.145 217.964 528.061 218.449 528.061 219C528.061 219.849 528.257 220.531 528.649 221.044C529.041 221.557 529.617 221.814 530.378 221.814ZM538.842 222.997C538.1 222.997 537.451 222.834 536.896 222.507C536.345 222.176 535.916 221.716 535.608 221.128C535.3 220.535 535.146 219.845 535.146 219.056C535.146 218.23 535.298 217.516 535.601 216.914C535.904 216.307 536.327 215.841 536.868 215.514C537.414 215.183 538.053 215.017 538.786 215.017C539.547 215.017 540.193 215.192 540.725 215.542C541.262 215.892 541.663 216.391 541.929 217.04C542.2 217.689 542.316 218.461 542.279 219.357H541.019V218.909C541.005 217.98 540.816 217.287 540.452 216.83C540.088 216.368 539.547 216.137 538.828 216.137C538.058 216.137 537.472 216.384 537.071 216.879C536.67 217.374 536.469 218.083 536.469 219.007C536.469 219.898 536.67 220.589 537.071 221.079C537.472 221.569 538.044 221.814 538.786 221.814C539.285 221.814 539.719 221.7 540.088 221.471C540.457 221.242 540.746 220.913 540.956 220.484L542.153 220.897C541.859 221.564 541.416 222.082 540.823 222.451C540.235 222.815 539.575 222.997 538.842 222.997ZM536.049 219.357V218.356H541.635V219.357H536.049ZM546.693 222.99C545.793 222.99 545.053 222.794 544.474 222.402C543.9 222.005 543.548 221.452 543.417 220.743L544.691 220.54C544.794 220.951 545.03 221.277 545.398 221.52C545.767 221.758 546.224 221.877 546.77 221.877C547.288 221.877 547.694 221.77 547.988 221.555C548.282 221.34 548.429 221.049 548.429 220.68C548.429 220.465 548.38 220.293 548.282 220.162C548.184 220.027 547.981 219.901 547.673 219.784C547.37 219.667 546.91 219.527 546.294 219.364C545.627 219.187 545.102 219.002 544.719 218.811C544.337 218.62 544.064 218.398 543.9 218.146C543.737 217.894 543.655 217.588 543.655 217.229C543.655 216.786 543.777 216.398 544.019 216.067C544.262 215.731 544.6 215.472 545.034 215.29C545.473 215.108 545.982 215.017 546.56 215.017C547.134 215.017 547.648 215.108 548.1 215.29C548.553 215.472 548.917 215.731 549.192 216.067C549.472 216.398 549.638 216.786 549.689 217.229L548.415 217.46C548.355 217.054 548.159 216.734 547.827 216.501C547.501 216.268 547.078 216.144 546.56 216.13C546.07 216.111 545.671 216.198 545.363 216.389C545.06 216.58 544.908 216.839 544.908 217.166C544.908 217.348 544.964 217.504 545.076 217.635C545.193 217.766 545.405 217.889 545.713 218.006C546.026 218.123 546.479 218.256 547.071 218.405C547.739 218.573 548.264 218.757 548.646 218.958C549.034 219.154 549.309 219.387 549.472 219.658C549.636 219.924 549.717 220.253 549.717 220.645C549.717 221.373 549.449 221.947 548.912 222.367C548.376 222.782 547.636 222.99 546.693 222.99Z" fill="#212528"/>
</g>
<g filter="url(#filter9_d_6449_57289)">
<rect x="478.5" y="241.287" width="60" height="60" rx="7.875" fill="#E8F7E8"/>
<path d="M502.699 260.564L500.823 258.687C497.673 261.089 495.599 264.79 495.415 268.99H498.04C498.237 265.512 500.022 262.467 502.699 260.564ZM518.961 268.99H521.586C521.389 264.79 519.316 261.089 516.179 258.687L514.315 260.564C516.966 262.467 518.764 265.512 518.961 268.99ZM516.376 269.647C516.376 265.617 514.223 262.244 510.469 261.352V260.459C510.469 259.37 509.59 258.49 508.501 258.49C507.411 258.49 506.532 259.37 506.532 260.459V261.352C502.765 262.244 500.626 265.604 500.626 269.647V276.209L498.001 278.834V280.147H519.001V278.834L516.376 276.209V269.647ZM508.501 284.084C508.684 284.084 508.855 284.071 509.026 284.032C509.879 283.848 510.574 283.27 510.916 282.483C511.047 282.168 511.113 281.827 511.113 281.459H505.863C505.876 282.903 507.044 284.084 508.501 284.084Z" fill="#29A653"/>
</g>
<g filter="url(#filter10_d_6449_57289)">
<rect x="174" y="325.287" width="219.767" height="47.3836" rx="23.6918" fill="white" shape-rendering="crispEdges"/>
<path d="M200.894 356.779C199.874 356.779 198.954 356.606 198.134 356.259C197.32 355.912 196.647 355.419 196.114 354.779C195.587 354.132 195.244 353.369 195.084 352.489L196.924 352.199C197.157 353.106 197.64 353.816 198.374 354.329C199.114 354.836 199.984 355.089 200.984 355.089C201.63 355.089 202.214 354.989 202.734 354.789C203.26 354.582 203.677 354.289 203.984 353.909C204.29 353.529 204.444 353.079 204.444 352.559C204.444 352.239 204.387 351.966 204.274 351.739C204.167 351.506 204.017 351.309 203.824 351.149C203.637 350.982 203.424 350.842 203.184 350.729C202.944 350.616 202.694 350.522 202.434 350.449L198.764 349.359C198.364 349.239 197.977 349.089 197.604 348.909C197.23 348.722 196.897 348.492 196.604 348.219C196.31 347.939 196.077 347.606 195.904 347.219C195.73 346.826 195.644 346.362 195.644 345.829C195.644 344.976 195.864 344.249 196.304 343.649C196.75 343.042 197.354 342.579 198.114 342.259C198.874 341.939 199.73 341.782 200.684 341.789C201.65 341.796 202.514 341.969 203.274 342.309C204.04 342.642 204.674 343.122 205.174 343.749C205.68 344.376 206.02 345.126 206.194 345.999L204.304 346.329C204.204 345.742 203.98 345.239 203.634 344.819C203.294 344.392 202.867 344.066 202.354 343.839C201.84 343.606 201.277 343.486 200.664 343.479C200.077 343.472 199.547 343.566 199.074 343.759C198.6 343.952 198.224 344.222 197.944 344.569C197.664 344.909 197.524 345.302 197.524 345.749C197.524 346.189 197.65 346.546 197.904 346.819C198.157 347.086 198.467 347.299 198.834 347.459C199.207 347.612 199.57 347.739 199.924 347.839L202.664 348.629C202.977 348.716 203.337 348.836 203.744 348.989C204.157 349.142 204.557 349.359 204.944 349.639C205.33 349.912 205.65 350.279 205.904 350.739C206.157 351.192 206.284 351.766 206.284 352.459C206.284 353.152 206.144 353.769 205.864 354.309C205.59 354.849 205.207 355.302 204.714 355.669C204.22 356.029 203.647 356.302 202.994 356.489C202.34 356.682 201.64 356.779 200.894 356.779ZM212.481 356.759C211.788 356.759 211.191 356.649 210.691 356.429C210.198 356.209 209.788 355.916 209.461 355.549C209.135 355.182 208.878 354.776 208.691 354.329C208.505 353.882 208.371 353.426 208.291 352.959C208.218 352.492 208.181 352.056 208.181 351.649V345.679H209.981V351.089C209.981 351.596 210.028 352.086 210.121 352.559C210.215 353.032 210.371 353.459 210.591 353.839C210.818 354.219 211.118 354.519 211.491 354.739C211.871 354.959 212.345 355.069 212.911 355.069C213.358 355.069 213.765 354.992 214.131 354.839C214.498 354.686 214.811 354.459 215.071 354.159C215.331 353.852 215.531 353.466 215.671 352.999C215.811 352.532 215.881 351.989 215.881 351.369L217.051 351.729C217.051 352.769 216.861 353.666 216.481 354.419C216.108 355.172 215.578 355.752 214.891 356.159C214.211 356.559 213.408 356.759 212.481 356.759ZM216.081 356.479V353.589H215.881V345.679H217.671V356.479H216.081ZM225.431 356.779C224.418 356.779 223.565 356.529 222.871 356.029C222.178 355.522 221.651 354.839 221.291 353.979C220.938 353.112 220.761 352.142 220.761 351.069C220.761 349.982 220.938 349.009 221.291 348.149C221.651 347.289 222.178 346.612 222.871 346.119C223.571 345.626 224.428 345.379 225.441 345.379C226.441 345.379 227.301 345.629 228.021 346.129C228.748 346.622 229.305 347.299 229.691 348.159C230.078 349.019 230.271 349.989 230.271 351.069C230.271 352.149 230.078 353.119 229.691 353.979C229.305 354.839 228.748 355.522 228.021 356.029C227.301 356.529 226.438 356.779 225.431 356.779ZM220.461 361.279V345.679H222.051V353.629H222.251V361.279H220.461ZM225.211 355.149C225.925 355.149 226.515 354.969 226.981 354.609C227.448 354.249 227.798 353.762 228.031 353.149C228.265 352.529 228.381 351.836 228.381 351.069C228.381 350.309 228.265 349.622 228.031 349.009C227.805 348.396 227.451 347.909 226.971 347.549C226.498 347.189 225.895 347.009 225.161 347.009C224.461 347.009 223.881 347.182 223.421 347.529C222.961 347.869 222.618 348.346 222.391 348.959C222.165 349.566 222.051 350.269 222.051 351.069C222.051 351.856 222.161 352.559 222.381 353.179C222.608 353.792 222.955 354.276 223.421 354.629C223.888 354.976 224.485 355.149 225.211 355.149ZM237.063 356.779C235.99 356.779 235.063 356.536 234.283 356.049C233.51 355.562 232.913 354.889 232.493 354.029C232.073 353.169 231.863 352.182 231.863 351.069C231.863 349.936 232.077 348.942 232.503 348.089C232.93 347.236 233.533 346.572 234.313 346.099C235.093 345.619 236.01 345.379 237.063 345.379C238.143 345.379 239.073 345.622 239.853 346.109C240.633 346.589 241.23 347.259 241.643 348.119C242.063 348.972 242.273 349.956 242.273 351.069C242.273 352.196 242.063 353.189 241.643 354.049C241.223 354.902 240.623 355.572 239.843 356.059C239.063 356.539 238.137 356.779 237.063 356.779ZM237.063 355.089C238.183 355.089 239.017 354.716 239.563 353.969C240.11 353.222 240.383 352.256 240.383 351.069C240.383 349.849 240.107 348.879 239.553 348.159C239 347.432 238.17 347.069 237.063 347.069C236.31 347.069 235.69 347.239 235.203 347.579C234.717 347.919 234.353 348.389 234.113 348.989C233.873 349.589 233.753 350.282 233.753 351.069C233.753 352.282 234.033 353.256 234.593 353.989C235.153 354.722 235.977 355.089 237.063 355.089ZM244.475 356.479V345.679H246.065V348.289L245.805 347.949C245.932 347.616 246.095 347.309 246.295 347.029C246.502 346.749 246.732 346.519 246.985 346.339C247.265 346.112 247.582 345.939 247.935 345.819C248.289 345.699 248.649 345.629 249.015 345.609C249.382 345.582 249.725 345.606 250.045 345.679V347.349C249.672 347.249 249.262 347.222 248.815 347.269C248.369 347.316 247.955 347.479 247.575 347.759C247.229 348.006 246.959 348.306 246.765 348.659C246.579 349.012 246.449 349.396 246.375 349.809C246.302 350.216 246.265 350.632 246.265 351.059V356.479H244.475ZM257.966 356.479C257.326 356.606 256.693 356.656 256.066 356.629C255.446 356.609 254.893 356.486 254.406 356.259C253.919 356.026 253.549 355.666 253.296 355.179C253.083 354.752 252.966 354.322 252.946 353.889C252.933 353.449 252.926 352.952 252.926 352.399V342.679H254.706V352.319C254.706 352.759 254.709 353.136 254.716 353.449C254.729 353.762 254.799 354.032 254.926 354.259C255.166 354.686 255.546 354.936 256.066 355.009C256.593 355.082 257.226 355.062 257.966 354.949V356.479ZM250.736 347.149V345.679H257.966V347.149H250.736ZM264.39 356.779C263.33 356.779 262.403 356.546 261.61 356.079C260.823 355.606 260.21 354.949 259.77 354.109C259.33 353.262 259.11 352.276 259.11 351.149C259.11 349.969 259.326 348.949 259.76 348.089C260.193 347.222 260.796 346.556 261.57 346.089C262.35 345.616 263.263 345.379 264.31 345.379C265.396 345.379 266.32 345.629 267.08 346.129C267.846 346.629 268.42 347.342 268.8 348.269C269.186 349.196 269.353 350.299 269.3 351.579H267.5V350.939C267.48 349.612 267.21 348.622 266.69 347.969C266.17 347.309 265.396 346.979 264.37 346.979C263.27 346.979 262.433 347.332 261.86 348.039C261.286 348.746 261 349.759 261 351.079C261 352.352 261.286 353.339 261.86 354.039C262.433 354.739 263.25 355.089 264.31 355.089C265.023 355.089 265.643 354.926 266.17 354.599C266.696 354.272 267.11 353.802 267.41 353.189L269.12 353.779C268.7 354.732 268.066 355.472 267.22 355.999C266.38 356.519 265.436 356.779 264.39 356.779ZM260.4 351.579V350.149H268.38V351.579H260.4ZM288.44 356.479L288.45 349.569C288.45 348.762 288.233 348.132 287.8 347.679C287.373 347.219 286.817 346.989 286.13 346.989C285.73 346.989 285.35 347.082 284.99 347.269C284.63 347.449 284.337 347.736 284.11 348.129C283.883 348.516 283.77 349.012 283.77 349.619L282.83 349.239C282.817 348.472 282.973 347.802 283.3 347.229C283.633 346.649 284.087 346.199 284.66 345.879C285.233 345.559 285.88 345.399 286.6 345.399C287.727 345.399 288.613 345.742 289.26 346.429C289.907 347.109 290.23 348.026 290.23 349.179L290.22 356.479H288.44ZM275.52 356.479V345.679H277.11V348.569H277.31V356.479H275.52ZM281.99 356.479L282 349.639C282 348.812 281.787 348.166 281.36 347.699C280.933 347.226 280.367 346.989 279.66 346.989C278.96 346.989 278.393 347.229 277.96 347.709C277.527 348.189 277.31 348.826 277.31 349.619L276.37 349.059C276.37 348.359 276.537 347.732 276.87 347.179C277.203 346.626 277.657 346.192 278.23 345.879C278.803 345.559 279.453 345.399 280.18 345.399C280.907 345.399 281.54 345.552 282.08 345.859C282.62 346.166 283.037 346.606 283.33 347.179C283.623 347.746 283.77 348.422 283.77 349.209L283.76 356.479H281.99ZM296.935 356.759C296.241 356.759 295.645 356.649 295.145 356.429C294.651 356.209 294.241 355.916 293.915 355.549C293.588 355.182 293.331 354.776 293.145 354.329C292.958 353.882 292.825 353.426 292.745 352.959C292.671 352.492 292.635 352.056 292.635 351.649V345.679H294.435V351.089C294.435 351.596 294.481 352.086 294.575 352.559C294.668 353.032 294.825 353.459 295.045 353.839C295.271 354.219 295.571 354.519 295.945 354.739C296.325 354.959 296.798 355.069 297.365 355.069C297.811 355.069 298.218 354.992 298.585 354.839C298.951 354.686 299.265 354.459 299.525 354.159C299.785 353.852 299.985 353.466 300.125 352.999C300.265 352.532 300.335 351.989 300.335 351.369L301.505 351.729C301.505 352.769 301.315 353.666 300.935 354.419C300.561 355.172 300.031 355.752 299.345 356.159C298.665 356.559 297.861 356.759 296.935 356.759ZM300.535 356.479V353.589H300.335V345.679H302.125V356.479H300.535ZM305.124 356.479V341.779H306.904V356.479H305.124ZM315.935 356.479C315.295 356.606 314.662 356.656 314.035 356.629C313.415 356.609 312.862 356.486 312.375 356.259C311.888 356.026 311.518 355.666 311.265 355.179C311.052 354.752 310.935 354.322 310.915 353.889C310.902 353.449 310.895 352.952 310.895 352.399V342.679H312.675V352.319C312.675 352.759 312.678 353.136 312.685 353.449C312.698 353.762 312.768 354.032 312.895 354.259C313.135 354.686 313.515 354.936 314.035 355.009C314.562 355.082 315.195 355.062 315.935 354.949V356.479ZM308.705 347.149V345.679H315.935V347.149H308.705ZM318.328 343.769V341.929H320.108V343.769H318.328ZM318.328 356.479V345.679H320.108V356.479H318.328ZM327.658 356.779C326.565 356.779 325.635 356.536 324.868 356.049C324.108 355.556 323.528 354.879 323.128 354.019C322.728 353.159 322.521 352.179 322.508 351.079C322.521 349.952 322.731 348.962 323.138 348.109C323.551 347.249 324.141 346.579 324.908 346.099C325.675 345.619 326.598 345.379 327.678 345.379C328.818 345.379 329.798 345.659 330.618 346.219C331.445 346.779 331.998 347.546 332.278 348.519L330.518 349.049C330.291 348.422 329.921 347.936 329.408 347.589C328.901 347.242 328.318 347.069 327.658 347.069C326.918 347.069 326.308 347.242 325.828 347.589C325.348 347.929 324.991 348.402 324.758 349.009C324.525 349.609 324.405 350.299 324.398 351.079C324.411 352.279 324.688 353.249 325.228 353.989C325.775 354.722 326.585 355.089 327.658 355.089C328.365 355.089 328.951 354.929 329.418 354.609C329.885 354.282 330.238 353.812 330.478 353.199L332.278 353.669C331.905 354.676 331.321 355.446 330.528 355.979C329.735 356.512 328.778 356.779 327.658 356.779ZM337.291 356.779C336.485 356.779 335.808 356.632 335.261 356.339C334.721 356.039 334.311 355.646 334.031 355.159C333.758 354.672 333.621 354.139 333.621 353.559C333.621 352.992 333.728 352.502 333.941 352.089C334.161 351.669 334.468 351.322 334.861 351.049C335.255 350.769 335.725 350.549 336.271 350.389C336.785 350.249 337.358 350.129 337.991 350.029C338.631 349.922 339.278 349.826 339.931 349.739C340.585 349.652 341.195 349.569 341.761 349.489L341.121 349.859C341.141 348.899 340.948 348.189 340.541 347.729C340.141 347.269 339.448 347.039 338.461 347.039C337.808 347.039 337.235 347.189 336.741 347.489C336.255 347.782 335.911 348.262 335.711 348.929L334.021 348.419C334.281 347.472 334.785 346.729 335.531 346.189C336.278 345.649 337.261 345.379 338.481 345.379C339.461 345.379 340.301 345.556 341.001 345.909C341.708 346.256 342.215 346.782 342.521 347.489C342.675 347.822 342.771 348.186 342.811 348.579C342.851 348.966 342.871 349.372 342.871 349.799V356.479H341.291V353.889L341.661 354.129C341.255 355.002 340.685 355.662 339.951 356.109C339.225 356.556 338.338 356.779 337.291 356.779ZM337.561 355.289C338.201 355.289 338.755 355.176 339.221 354.949C339.695 354.716 340.075 354.412 340.361 354.039C340.648 353.659 340.835 353.246 340.921 352.799C341.021 352.466 341.075 352.096 341.081 351.689C341.095 351.276 341.101 350.959 341.101 350.739L341.721 351.009C341.141 351.089 340.571 351.166 340.011 351.239C339.451 351.312 338.921 351.392 338.421 351.479C337.921 351.559 337.471 351.656 337.071 351.769C336.778 351.862 336.501 351.982 336.241 352.129C335.988 352.276 335.781 352.466 335.621 352.699C335.468 352.926 335.391 353.209 335.391 353.549C335.391 353.842 335.465 354.122 335.611 354.389C335.765 354.656 335.998 354.872 336.311 355.039C336.631 355.206 337.048 355.289 337.561 355.289ZM353.161 356.479V351.069C353.161 350.556 353.115 350.062 353.021 349.589C352.935 349.116 352.778 348.692 352.551 348.319C352.331 347.939 352.031 347.639 351.651 347.419C351.278 347.199 350.805 347.089 350.231 347.089C349.785 347.089 349.378 347.166 349.011 347.319C348.651 347.466 348.341 347.692 348.081 347.999C347.821 348.306 347.618 348.692 347.471 349.159C347.331 349.619 347.261 350.162 347.261 350.789L346.091 350.429C346.091 349.382 346.278 348.486 346.651 347.739C347.031 346.986 347.561 346.409 348.241 346.009C348.928 345.602 349.735 345.399 350.661 345.399C351.361 345.399 351.958 345.509 352.451 345.729C352.945 345.949 353.355 346.242 353.681 346.609C354.008 346.969 354.265 347.376 354.451 347.829C354.638 348.276 354.768 348.732 354.841 349.199C354.921 349.659 354.961 350.096 354.961 350.509V356.479H353.161ZM345.461 356.479V345.679H347.061V348.569H347.261V356.479H345.461ZM360.631 356.779C359.824 356.779 359.148 356.632 358.601 356.339C358.061 356.039 357.651 355.646 357.371 355.159C357.098 354.672 356.961 354.139 356.961 353.559C356.961 352.992 357.068 352.502 357.281 352.089C357.501 351.669 357.808 351.322 358.201 351.049C358.594 350.769 359.064 350.549 359.611 350.389C360.124 350.249 360.698 350.129 361.331 350.029C361.971 349.922 362.618 349.826 363.271 349.739C363.924 349.652 364.534 349.569 365.101 349.489L364.461 349.859C364.481 348.899 364.288 348.189 363.881 347.729C363.481 347.269 362.788 347.039 361.801 347.039C361.148 347.039 360.574 347.189 360.081 347.489C359.594 347.782 359.251 348.262 359.051 348.929L357.361 348.419C357.621 347.472 358.124 346.729 358.871 346.189C359.618 345.649 360.601 345.379 361.821 345.379C362.801 345.379 363.641 345.556 364.341 345.909C365.048 346.256 365.554 346.782 365.861 347.489C366.014 347.822 366.111 348.186 366.151 348.579C366.191 348.966 366.211 349.372 366.211 349.799V356.479H364.631V353.889L365.001 354.129C364.594 355.002 364.024 355.662 363.291 356.109C362.564 356.556 361.678 356.779 360.631 356.779ZM360.901 355.289C361.541 355.289 362.094 355.176 362.561 354.949C363.034 354.716 363.414 354.412 363.701 354.039C363.988 353.659 364.174 353.246 364.261 352.799C364.361 352.466 364.414 352.096 364.421 351.689C364.434 351.276 364.441 350.959 364.441 350.739L365.061 351.009C364.481 351.089 363.911 351.166 363.351 351.239C362.791 351.312 362.261 351.392 361.761 351.479C361.261 351.559 360.811 351.656 360.411 351.769C360.118 351.862 359.841 351.982 359.581 352.129C359.328 352.276 359.121 352.466 358.961 352.699C358.808 352.926 358.731 353.209 358.731 353.549C358.731 353.842 358.804 354.122 358.951 354.389C359.104 354.656 359.338 354.872 359.651 355.039C359.971 355.206 360.388 355.289 360.901 355.289ZM369.011 356.479V341.779H370.791V356.479H369.011Z" fill="#212528"/>
</g>
<defs>
<filter id="filter0_d_6449_57289" x="38.0375" y="201.287" width="106.3" height="38.3" filterUnits="userSpaceOnUse" color-interpolation-filters="sRGB">
<feFlood flood-opacity="0" result="BackgroundImageFix"/>
<feColorMatrix in="SourceAlpha" type="matrix" values="0 0 0 0 0 0 0 0 0 0 0 0 0 0 0 0 0 0 127 0" result="hardAlpha"/>
<feOffset dy="3.15"/>
<feGaussianBlur stdDeviation="1.575"/>
<feComposite in2="hardAlpha" operator="out"/>
<feColorMatrix type="matrix" values="0 0 0 0 0 0 0 0 0 0 0 0 0 0 0 0 0 0 0.25 0"/>
<feBlend mode="normal" in2="BackgroundImageFix" result="effect1_dropShadow_6449_57289"/>
<feBlend mode="normal" in="SourceGraphic" in2="effect1_dropShadow_6449_57289" result="shape"/>
</filter>
<filter id="filter1_d_6449_57289" x="58.0375" y="241.287" width="66.3" height="66.3" filterUnits="userSpaceOnUse" color-interpolation-filters="sRGB">
<feFlood flood-opacity="0" result="BackgroundImageFix"/>
<feColorMatrix in="SourceAlpha" type="matrix" values="0 0 0 0 0 0 0 0 0 0 0 0 0 0 0 0 0 0 127 0" result="hardAlpha"/>
<feOffset dy="3.15"/>
<feGaussianBlur stdDeviation="1.575"/>
<feComposite in2="hardAlpha" operator="out"/>
<feColorMatrix type="matrix" values="0 0 0 0 0 0 0 0 0 0 0 0 0 0 0 0 0 0 0.25 0"/>
<feBlend mode="normal" in2="BackgroundImageFix" result="effect1_dropShadow_6449_57289"/>
<feBlend mode="normal" in="SourceGraphic" in2="effect1_dropShadow_6449_57289" result="shape"/>
</filter>
<filter id="filter2_d_6449_57289" x="162.131" y="77.2871" width="66.3" height="66.3" filterUnits="userSpaceOnUse" color-interpolation-filters="sRGB">
<feFlood flood-opacity="0" result="BackgroundImageFix"/>
<feColorMatrix in="SourceAlpha" type="matrix" values="0 0 0 0 0 0 0 0 0 0 0 0 0 0 0 0 0 0 127 0" result="hardAlpha"/>
<feOffset dy="3.15"/>
<feGaussianBlur stdDeviation="1.575"/>
<feComposite in2="hardAlpha" operator="out"/>
<feColorMatrix type="matrix" values="0 0 0 0 0 0 0 0 0 0 0 0 0 0 0 0 0 0 0.25 0"/>
<feBlend mode="normal" in2="BackgroundImageFix" result="effect1_dropShadow_6449_57289"/>
<feBlend mode="normal" in="SourceGraphic" in2="effect1_dropShadow_6449_57289" result="shape"/>
</filter>
<filter id="filter3_d_6449_57289" x="142.131" y="145.287" width="106.3" height="38.3" filterUnits="userSpaceOnUse" color-interpolation-filters="sRGB">
<feFlood flood-opacity="0" result="BackgroundImageFix"/>
<feColorMatrix in="SourceAlpha" type="matrix" values="0 0 0 0 0 0 0 0 0 0 0 0 0 0 0 0 0 0 127 0" result="hardAlpha"/>
<feOffset dy="3.15"/>
<feGaussianBlur stdDeviation="1.575"/>
<feComposite in2="hardAlpha" operator="out"/>
<feColorMatrix type="matrix" values="0 0 0 0 0 0 0 0 0 0 0 0 0 0 0 0 0 0 0.25 0"/>
<feBlend mode="normal" in2="BackgroundImageFix" result="effect1_dropShadow_6449_57289"/>
<feBlend mode="normal" in="SourceGraphic" in2="effect1_dropShadow_6449_57289" result="shape"/>
</filter>
<filter id="filter4_d_6449_57289" x="246.537" y="201.287" width="106.3" height="38.3" filterUnits="userSpaceOnUse" color-interpolation-filters="sRGB">
<feFlood flood-opacity="0" result="BackgroundImageFix"/>
<feColorMatrix in="SourceAlpha" type="matrix" values="0 0 0 0 0 0 0 0 0 0 0 0 0 0 0 0 0 0 127 0" result="hardAlpha"/>
<feOffset dy="3.15"/>
<feGaussianBlur stdDeviation="1.575"/>
<feComposite in2="hardAlpha" operator="out"/>
<feColorMatrix type="matrix" values="0 0 0 0 0 0 0 0 0 0 0 0 0 0 0 0 0 0 0.25 0"/>
<feBlend mode="normal" in2="BackgroundImageFix" result="effect1_dropShadow_6449_57289"/>
<feBlend mode="normal" in="SourceGraphic" in2="effect1_dropShadow_6449_57289" result="shape"/>
</filter>
<filter id="filter5_d_6449_57289" x="266.537" y="241.287" width="66.3" height="66.3" filterUnits="userSpaceOnUse" color-interpolation-filters="sRGB">
<feFlood flood-opacity="0" result="BackgroundImageFix"/>
<feColorMatrix in="SourceAlpha" type="matrix" values="0 0 0 0 0 0 0 0 0 0 0 0 0 0 0 0 0 0 127 0" result="hardAlpha"/>
<feOffset dy="3.15"/>
<feGaussianBlur stdDeviation="1.575"/>
<feComposite in2="hardAlpha" operator="out"/>
<feColorMatrix type="matrix" values="0 0 0 0 0 0 0 0 0 0 0 0 0 0 0 0 0 0 0.25 0"/>
<feBlend mode="normal" in2="BackgroundImageFix" result="effect1_dropShadow_6449_57289"/>
<feBlend mode="normal" in="SourceGraphic" in2="effect1_dropShadow_6449_57289" result="shape"/>
</filter>
<filter id="filter6_d_6449_57289" x="370.944" y="77.2871" width="66.3" height="66.3" filterUnits="userSpaceOnUse" color-interpolation-filters="sRGB">
<feFlood flood-opacity="0" result="BackgroundImageFix"/>
<feColorMatrix in="SourceAlpha" type="matrix" values="0 0 0 0 0 0 0 0 0 0 0 0 0 0 0 0 0 0 127 0" result="hardAlpha"/>
<feOffset dy="3.15"/>
<feGaussianBlur stdDeviation="1.575"/>
<feComposite in2="hardAlpha" operator="out"/>
<feColorMatrix type="matrix" values="0 0 0 0 0 0 0 0 0 0 0 0 0 0 0 0 0 0 0.25 0"/>
<feBlend mode="normal" in2="BackgroundImageFix" result="effect1_dropShadow_6449_57289"/>
<feBlend mode="normal" in="SourceGraphic" in2="effect1_dropShadow_6449_57289" result="shape"/>
</filter>
<filter id="filter7_d_6449_57289" x="350.944" y="145.287" width="106.3" height="38.3" filterUnits="userSpaceOnUse" color-interpolation-filters="sRGB">
<feFlood flood-opacity="0" result="BackgroundImageFix"/>
<feColorMatrix in="SourceAlpha" type="matrix" values="0 0 0 0 0 0 0 0 0 0 0 0 0 0 0 0 0 0 127 0" result="hardAlpha"/>
<feOffset dy="3.15"/>
<feGaussianBlur stdDeviation="1.575"/>
<feComposite in2="hardAlpha" operator="out"/>
<feColorMatrix type="matrix" values="0 0 0 0 0 0 0 0 0 0 0 0 0 0 0 0 0 0 0.25 0"/>
<feBlend mode="normal" in2="BackgroundImageFix" result="effect1_dropShadow_6449_57289"/>
<feBlend mode="normal" in="SourceGraphic" in2="effect1_dropShadow_6449_57289" result="shape"/>
</filter>
<filter id="filter8_d_6449_57289" x="455.35" y="201.287" width="106.3" height="38.3" filterUnits="userSpaceOnUse" color-interpolation-filters="sRGB">
<feFlood flood-opacity="0" result="BackgroundImageFix"/>
<feColorMatrix in="SourceAlpha" type="matrix" values="0 0 0 0 0 0 0 0 0 0 0 0 0 0 0 0 0 0 127 0" result="hardAlpha"/>
<feOffset dy="3.15"/>
<feGaussianBlur stdDeviation="1.575"/>
<feComposite in2="hardAlpha" operator="out"/>
<feColorMatrix type="matrix" values="0 0 0 0 0 0 0 0 0 0 0 0 0 0 0 0 0 0 0.25 0"/>
<feBlend mode="normal" in2="BackgroundImageFix" result="effect1_dropShadow_6449_57289"/>
<feBlend mode="normal" in="SourceGraphic" in2="effect1_dropShadow_6449_57289" result="shape"/>
</filter>
<filter id="filter9_d_6449_57289" x="475.35" y="241.287" width="66.3" height="66.3" filterUnits="userSpaceOnUse" color-interpolation-filters="sRGB">
<feFlood flood-opacity="0" result="BackgroundImageFix"/>
<feColorMatrix in="SourceAlpha" type="matrix" values="0 0 0 0 0 0 0 0 0 0 0 0 0 0 0 0 0 0 127 0" result="hardAlpha"/>
<feOffset dy="3.15"/>
<feGaussianBlur stdDeviation="1.575"/>
<feComposite in2="hardAlpha" operator="out"/>
<feColorMatrix type="matrix" values="0 0 0 0 0 0 0 0 0 0 0 0 0 0 0 0 0 0 0.25 0"/>
<feBlend mode="normal" in2="BackgroundImageFix" result="effect1_dropShadow_6449_57289"/>
<feBlend mode="normal" in="SourceGraphic" in2="effect1_dropShadow_6449_57289" result="shape"/>
</filter>
<filter id="filter10_d_6449_57289" x="168.904" y="325.287" width="229.959" height="57.5755" filterUnits="userSpaceOnUse" color-interpolation-filters="sRGB">
<feFlood flood-opacity="0" result="BackgroundImageFix"/>
<feColorMatrix in="SourceAlpha" type="matrix" values="0 0 0 0 0 0 0 0 0 0 0 0 0 0 0 0 0 0 127 0" result="hardAlpha"/>
<feOffset dy="5.09591"/>
<feGaussianBlur stdDeviation="2.54796"/>
<feComposite in2="hardAlpha" operator="out"/>
<feColorMatrix type="matrix" values="0 0 0 0 0 0 0 0 0 0 0 0 0 0 0 0 0 0 0.25 0"/>
<feBlend mode="normal" in2="BackgroundImageFix" result="effect1_dropShadow_6449_57289"/>
<feBlend mode="normal" in="SourceGraphic" in2="effect1_dropShadow_6449_57289" result="shape"/>
</filter>
</defs>
</svg>
