<svg width="266" height="248" viewBox="0 0 266 248" fill="none" xmlns="http://www.w3.org/2000/svg">
<g filter="url(#filter0_d_6421_5922)">
<path d="M244.606 21H190.03C186.686 21.6182 185.283 24.1768 185.051 25.3789C184.973 28.5557 184.968 35.7852 185.153 39.2883C185.339 42.7914 188.482 44.354 190.03 44.6975H252.27C249.483 42.4307 249.186 39.4703 249.149 38.2579C249.071 35.768 249.065 30.1184 249.251 26.4092C249.437 22.7 246.232 21.2576 244.606 21Z" fill="#F2CA55"/>
<path d="M198.952 37.9204C198.295 37.9204 197.68 37.804 197.106 37.5712C196.533 37.33 196.03 36.9933 195.597 36.5609C195.173 36.1286 194.841 35.6214 194.6 35.0393C194.358 34.449 194.238 33.8088 194.238 33.1187C194.238 32.4202 194.358 31.78 194.6 31.198C194.841 30.6159 195.173 30.1087 195.597 29.6764C196.03 29.244 196.529 28.9114 197.094 28.6786C197.668 28.4458 198.287 28.3294 198.952 28.3294C199.617 28.3294 200.233 28.45 200.798 28.6911C201.372 28.9239 201.871 29.2565 202.295 29.6888C202.727 30.1129 203.064 30.6159 203.305 31.198C203.554 31.78 203.679 32.4202 203.679 33.1187C203.679 33.8088 203.554 34.449 203.305 35.0393C203.064 35.6214 202.727 36.1286 202.295 36.5609C201.871 36.9933 201.372 37.33 200.798 37.5712C200.233 37.804 199.617 37.9204 198.952 37.9204ZM198.952 36.7854C199.468 36.7854 199.938 36.694 200.362 36.511C200.786 36.3198 201.152 36.0579 201.459 35.7253C201.775 35.3844 202.016 34.9936 202.183 34.5529C202.357 34.1039 202.444 33.6258 202.444 33.1187C202.444 32.6115 202.357 32.1375 202.183 31.6968C202.016 31.2562 201.775 30.8695 201.459 30.5369C201.152 30.196 200.786 29.9341 200.362 29.7512C199.938 29.56 199.468 29.4643 198.952 29.4643C198.445 29.4643 197.979 29.56 197.555 29.7512C197.131 29.9341 196.761 30.196 196.445 30.5369C196.138 30.8695 195.897 31.2562 195.722 31.6968C195.547 32.1375 195.46 32.6115 195.46 33.1187C195.46 33.6258 195.547 34.1039 195.722 34.5529C195.897 34.9936 196.138 35.3844 196.445 35.7253C196.761 36.0579 197.131 36.3198 197.555 36.511C197.979 36.694 198.445 36.7854 198.952 36.7854ZM205.325 37.7707V28.3294H206.485V37.7707H205.325ZM210.255 37.9204C209.814 37.9204 209.423 37.8414 209.082 37.6834C208.75 37.5171 208.488 37.2926 208.297 37.0099C208.106 36.7189 208.01 36.3863 208.01 36.0122C208.01 35.6546 208.085 35.3345 208.234 35.0518C208.392 34.7608 208.633 34.5155 208.958 34.316C209.29 34.1164 209.706 33.9751 210.205 33.8919L212.699 33.4803V34.4532L210.467 34.8273C210.035 34.9022 209.719 35.0393 209.519 35.2389C209.328 35.4385 209.232 35.6837 209.232 35.9747C209.232 36.2491 209.34 36.4778 209.556 36.6607C209.781 36.8436 210.059 36.9351 210.392 36.9351C210.816 36.9351 211.182 36.8478 211.49 36.6732C211.806 36.4903 212.051 36.245 212.225 35.9373C212.408 35.6297 212.5 35.2888 212.5 34.9146V33.206C212.5 32.8401 212.363 32.5449 212.088 32.3204C211.822 32.0876 211.469 31.9712 211.028 31.9712C210.646 31.9712 210.305 32.071 210.005 32.2706C209.714 32.4618 209.498 32.7195 209.357 33.0438L208.347 32.52C208.471 32.2124 208.671 31.938 208.945 31.6968C209.22 31.4474 209.54 31.252 209.906 31.1107C210.271 30.9693 210.654 30.8986 211.053 30.8986C211.569 30.8986 212.022 30.9984 212.413 31.198C212.803 31.3892 213.107 31.6594 213.323 32.0086C213.547 32.3495 213.66 32.7486 213.66 33.206V37.7707H212.525V36.4986L212.737 36.5734C212.595 36.8395 212.404 37.0723 212.163 37.2718C211.922 37.4714 211.639 37.6294 211.315 37.7458C210.991 37.8622 210.637 37.9204 210.255 37.9204ZM210.479 29.7886L211.465 27.818H213.036L211.639 29.7886H210.479Z" fill="#3F4346"/>
</g>
<g filter="url(#filter1_d_6421_5922)">
<path d="M234.704 56H103.789C97.4524 56 96.6389 61.1945 96.1148 63.2742C95.9401 68.7706 95.9269 81.5804 96.3462 87.6413C96.7655 93.7022 100.295 96.4058 103.789 97H252C245.711 93.0783 245.731 87.8557 245.646 85.7581C245.472 81.4501 245.516 70.3182 244.978 63.9355C244.309 56 238.373 56.4457 234.704 56Z" fill="#F2CA55"/>
<path d="M105.001 73.3185V64.0268H108.282C108.897 64.0268 109.437 64.1432 109.903 64.376C110.369 64.6088 110.73 64.9414 110.988 65.3738C111.254 65.8062 111.387 66.3134 111.387 66.8954C111.387 67.4774 111.254 67.9846 110.988 68.417C110.73 68.841 110.369 69.1736 109.903 69.4147C109.446 69.6475 108.905 69.764 108.282 69.764H106.224V73.3185H105.001ZM106.224 68.6415H108.319C108.693 68.6415 109.017 68.5708 109.292 68.4294C109.566 68.2881 109.778 68.0844 109.928 67.8183C110.078 67.5522 110.152 67.2446 110.152 66.8954C110.152 66.5379 110.078 66.2302 109.928 65.9725C109.778 65.7064 109.566 65.5027 109.292 65.3613C109.017 65.22 108.693 65.1493 108.319 65.1493H106.224V68.6415ZM112.903 73.3185V66.5961H114.038V67.8308L113.913 67.6562C114.071 67.2737 114.312 66.991 114.637 66.8081C114.961 66.6168 115.356 66.5212 115.821 66.5212H116.233V67.6188H115.647C115.173 67.6188 114.79 67.7684 114.499 68.0678C114.208 68.3588 114.063 68.7745 114.063 69.315V73.3185H112.903ZM120.356 73.4681C119.708 73.4681 119.13 73.3143 118.623 73.0067C118.116 72.699 117.716 72.2791 117.425 71.747C117.134 71.2066 116.989 70.6037 116.989 69.9386C116.989 69.2651 117.13 68.6664 117.413 68.1426C117.704 67.6188 118.095 67.2072 118.585 66.9079C119.084 66.6002 119.641 66.4464 120.257 66.4464C120.755 66.4464 121.196 66.5379 121.579 66.7208C121.969 66.8954 122.298 67.1365 122.564 67.4442C122.838 67.7435 123.046 68.0885 123.187 68.4793C123.337 68.8618 123.412 69.2609 123.412 69.6766C123.412 69.7681 123.404 69.872 123.387 69.9884C123.379 70.0965 123.366 70.2005 123.35 70.3002H117.837V69.3025H122.676L122.127 69.7515C122.202 69.3191 122.161 68.9325 122.003 68.5916C121.845 68.2507 121.612 67.9805 121.304 67.7809C120.997 67.5813 120.647 67.4816 120.257 67.4816C119.866 67.4816 119.508 67.5813 119.184 67.7809C118.86 67.9805 118.606 68.2673 118.423 68.6415C118.249 69.0073 118.178 69.4438 118.211 69.951C118.178 70.4416 118.253 70.874 118.436 71.2481C118.627 71.614 118.893 71.9008 119.234 72.1087C119.583 72.3082 119.961 72.408 120.369 72.408C120.818 72.408 121.196 72.3041 121.504 72.0962C121.811 71.8884 122.061 71.6223 122.252 71.298L123.225 71.7969C123.092 72.1045 122.884 72.3872 122.601 72.645C122.327 72.8944 121.998 73.094 121.616 73.2436C121.242 73.3933 120.822 73.4681 120.356 73.4681ZM128.042 73.4681C127.385 73.4681 126.799 73.3143 126.284 73.0067C125.777 72.699 125.377 72.2791 125.086 71.747C124.795 71.2149 124.65 70.6162 124.65 69.951C124.65 69.2775 124.795 68.6789 125.086 68.1551C125.377 67.6312 125.777 67.2155 126.284 66.9079C126.799 66.6002 127.385 66.4464 128.042 66.4464C128.483 66.4464 128.895 66.5254 129.277 66.6834C129.66 66.8413 129.996 67.0534 130.287 67.3194C130.578 67.5855 130.79 67.8973 130.923 68.2548L129.888 68.7537C129.73 68.4045 129.489 68.1218 129.165 67.9056C128.841 67.6811 128.466 67.5689 128.042 67.5689C127.635 67.5689 127.265 67.6728 126.932 67.8807C126.608 68.0885 126.35 68.3712 126.159 68.7288C125.968 69.0863 125.872 69.4979 125.872 69.9635C125.872 70.4125 125.968 70.8199 126.159 71.1858C126.35 71.5433 126.608 71.826 126.932 72.0339C127.265 72.2417 127.635 72.3457 128.042 72.3457C128.466 72.3457 128.841 72.2376 129.165 72.0214C129.489 71.7969 129.73 71.5017 129.888 71.1359L130.923 71.6597C130.79 72.0089 130.578 72.3207 130.287 72.5951C129.996 72.8612 129.66 73.0732 129.277 73.2312C128.895 73.3892 128.483 73.4681 128.042 73.4681ZM132.439 73.3185V66.5961H133.599V73.3185H132.439ZM132.439 65.5235V64.0268H133.599V65.5235H132.439ZM137.806 73.4681C137.132 73.4681 136.546 73.3019 136.047 72.9693C135.549 72.6367 135.195 72.1877 134.987 71.6223L135.91 71.1733C136.101 71.5724 136.363 71.8884 136.696 72.1212C137.029 72.354 137.399 72.4704 137.806 72.4704C138.172 72.4704 138.475 72.3831 138.716 72.2085C138.958 72.0339 139.078 71.8052 139.078 71.5225C139.078 71.323 139.02 71.165 138.903 71.0486C138.795 70.9239 138.662 70.8282 138.504 70.7617C138.346 70.6869 138.201 70.6328 138.068 70.5996L137.058 70.3127C136.451 70.1381 136.006 69.8887 135.723 69.5644C135.449 69.2401 135.312 68.8618 135.312 68.4294C135.312 68.0303 135.411 67.6853 135.611 67.3943C135.819 67.0949 136.097 66.8621 136.447 66.6958C136.804 66.5295 137.203 66.4464 137.644 66.4464C138.234 66.4464 138.762 66.5961 139.228 66.8954C139.702 67.1947 140.038 67.6146 140.238 68.1551L139.29 68.5916C139.14 68.2424 138.916 67.968 138.617 67.7684C138.317 67.5606 137.981 67.4566 137.606 67.4566C137.266 67.4566 136.995 67.5439 136.796 67.7185C136.596 67.8848 136.496 68.0969 136.496 68.3546C136.496 68.5458 136.546 68.7038 136.646 68.8285C136.746 68.945 136.866 69.0364 137.008 69.1029C137.149 69.1611 137.286 69.211 137.419 69.2526L138.517 69.5769C139.066 69.7349 139.49 69.9801 139.789 70.3127C140.097 70.6453 140.25 71.0444 140.25 71.51C140.25 71.8842 140.147 72.2209 139.939 72.5203C139.731 72.8196 139.444 73.0524 139.078 73.2187C138.712 73.385 138.288 73.4681 137.806 73.4681ZM144.962 73.4681C144.313 73.4681 143.727 73.3185 143.203 73.0192C142.679 72.7115 142.264 72.2916 141.956 71.7595C141.648 71.2273 141.494 70.6245 141.494 69.951C141.494 69.2775 141.644 68.6789 141.943 68.1551C142.251 67.6312 142.667 67.2155 143.191 66.9079C143.714 66.6002 144.305 66.4464 144.962 66.4464C145.61 66.4464 146.196 66.6002 146.72 66.9079C147.244 67.2072 147.656 67.6188 147.955 68.1426C148.263 68.6664 148.416 69.2692 148.416 69.951C148.416 70.6328 148.258 71.2398 147.943 71.7719C147.627 72.2958 147.207 72.7115 146.683 73.0192C146.167 73.3185 145.594 73.4681 144.962 73.4681ZM144.962 72.3457C145.377 72.3457 145.752 72.2417 146.084 72.0339C146.425 71.826 146.691 71.5391 146.882 71.1733C147.082 70.8074 147.182 70.4 147.182 69.951C147.182 69.4937 147.082 69.0905 146.882 68.7412C146.691 68.3837 146.425 68.101 146.084 67.8931C145.752 67.677 145.377 67.5689 144.962 67.5689C144.538 67.5689 144.155 67.677 143.814 67.8931C143.482 68.101 143.216 68.3837 143.016 68.7412C142.816 69.0905 142.717 69.4937 142.717 69.951C142.717 70.4 142.816 70.8074 143.016 71.1733C143.216 71.5391 143.482 71.826 143.814 72.0339C144.155 72.2417 144.538 72.3457 144.962 72.3457ZM155.141 73.4681C154.509 73.4681 153.939 73.3143 153.432 73.0067C152.933 72.699 152.538 72.2791 152.247 71.747C151.956 71.2149 151.811 70.6204 151.811 69.9635C151.811 69.29 151.956 68.6914 152.247 68.1675C152.538 67.6354 152.933 67.2155 153.432 66.9079C153.939 66.6002 154.509 66.4464 155.141 66.4464C155.698 66.4464 156.193 66.567 156.625 66.8081C157.057 67.0409 157.398 67.3568 157.648 67.756L157.461 68.0428V63.8772H158.633V73.3185H157.498V71.8842L157.648 72.0838C157.415 72.5244 157.074 72.8653 156.625 73.1065C156.184 73.3476 155.689 73.4681 155.141 73.4681ZM155.24 72.3457C155.665 72.3457 156.043 72.2417 156.375 72.0339C156.708 71.826 156.97 71.5433 157.161 71.1858C157.361 70.8199 157.461 70.4125 157.461 69.9635C157.461 69.5062 157.361 69.0988 157.161 68.7412C156.97 68.3754 156.708 68.0885 156.375 67.8807C156.043 67.6728 155.665 67.5689 155.24 67.5689C154.825 67.5689 154.446 67.677 154.106 67.8931C153.773 68.101 153.511 68.3837 153.32 68.7412C153.129 69.0905 153.033 69.4979 153.033 69.9635C153.033 70.4125 153.129 70.8199 153.32 71.1858C153.511 71.5433 153.773 71.826 154.106 72.0339C154.438 72.2417 154.816 72.3457 155.24 72.3457ZM163.521 73.4681C162.873 73.4681 162.295 73.3143 161.788 73.0067C161.28 72.699 160.881 72.2791 160.59 71.747C160.299 71.2066 160.154 70.6037 160.154 69.9386C160.154 69.2651 160.295 68.6664 160.578 68.1426C160.869 67.6188 161.26 67.2072 161.75 66.9079C162.249 66.6002 162.806 66.4464 163.421 66.4464C163.92 66.4464 164.361 66.5379 164.744 66.7208C165.134 66.8954 165.463 67.1365 165.729 67.4442C166.003 67.7435 166.211 68.0885 166.352 68.4793C166.502 68.8618 166.577 69.2609 166.577 69.6766C166.577 69.7681 166.569 69.872 166.552 69.9884C166.544 70.0965 166.531 70.2005 166.515 70.3002H161.002V69.3025H165.841L165.292 69.7515C165.367 69.3191 165.326 68.9325 165.168 68.5916C165.01 68.2507 164.777 67.9805 164.469 67.7809C164.161 67.5813 163.812 67.4816 163.421 67.4816C163.031 67.4816 162.673 67.5813 162.349 67.7809C162.025 67.9805 161.771 68.2673 161.588 68.6415C161.413 69.0073 161.343 69.4438 161.376 69.951C161.343 70.4416 161.418 70.874 161.601 71.2481C161.792 71.614 162.058 71.9008 162.399 72.1087C162.748 72.3082 163.126 72.408 163.534 72.408C163.983 72.408 164.361 72.3041 164.669 72.0962C164.976 71.8884 165.226 71.6223 165.417 71.298L166.39 71.7969C166.257 72.1045 166.049 72.3872 165.766 72.645C165.492 72.8944 165.163 73.094 164.781 73.2436C164.407 73.3933 163.987 73.4681 163.521 73.4681ZM172.216 73.4681C171.775 73.4681 171.384 73.3892 171.043 73.2312C170.711 73.0649 170.449 72.8404 170.258 72.5577C170.066 72.2667 169.971 71.9341 169.971 71.5599C169.971 71.2024 170.045 70.8823 170.195 70.5996C170.353 70.3086 170.594 70.0633 170.919 69.8637C171.251 69.6642 171.667 69.5228 172.166 69.4397L174.66 69.0281V70.0009L172.428 70.3751C171.995 70.4499 171.679 70.5871 171.48 70.7867C171.289 70.9862 171.193 71.2315 171.193 71.5225C171.193 71.7969 171.301 72.0255 171.517 72.2085C171.742 72.3914 172.02 72.4829 172.353 72.4829C172.777 72.4829 173.143 72.3956 173.45 72.2209C173.766 72.038 174.012 71.7927 174.186 71.4851C174.369 71.1774 174.461 70.8365 174.461 70.4624V68.7537C174.461 68.3879 174.323 68.0927 174.049 67.8682C173.783 67.6354 173.43 67.519 172.989 67.519C172.606 67.519 172.266 67.6188 171.966 67.8183C171.675 68.0096 171.459 68.2673 171.318 68.5916L170.307 68.0678C170.432 67.7601 170.632 67.4857 170.906 67.2446C171.18 66.9952 171.501 66.7998 171.866 66.6584C172.232 66.5171 172.615 66.4464 173.014 66.4464C173.529 66.4464 173.982 66.5462 174.373 66.7457C174.764 66.937 175.068 67.2072 175.284 67.5564C175.508 67.8973 175.62 68.2964 175.62 68.7537V73.3185H174.486V72.0463L174.698 72.1212C174.556 72.3872 174.365 72.62 174.124 72.8196C173.883 73.0192 173.6 73.1771 173.276 73.2935C172.951 73.4099 172.598 73.4681 172.216 73.4681ZM176.271 76.0623C176.197 76.0623 176.105 76.0582 175.997 76.0499C175.889 76.0415 175.802 76.0291 175.735 76.0124V74.9648C175.901 74.9897 176.068 75.0022 176.234 75.0022C176.575 75.0022 176.858 74.9066 177.082 74.7153C177.307 74.5241 177.419 74.2331 177.419 73.8423V66.5961H178.579V73.8423C178.579 74.3246 178.479 74.7278 178.279 75.0521C178.08 75.3847 177.806 75.6341 177.456 75.8004C177.107 75.975 176.712 76.0623 176.271 76.0623ZM177.419 65.5235V64.0268H178.579V65.5235H177.419ZM182.761 73.4681C182.278 73.4681 181.842 73.3559 181.451 73.1314C181.069 72.9069 180.769 72.5951 180.553 72.196C180.345 71.7886 180.241 71.323 180.241 70.7991V66.5961H181.401V70.6744C181.401 71.007 181.468 71.298 181.601 71.5475C181.742 71.7969 181.933 71.9923 182.175 72.1336C182.424 72.275 182.707 72.3457 183.023 72.3457C183.339 72.3457 183.617 72.275 183.858 72.1336C184.108 71.9923 184.299 71.7886 184.432 71.5225C184.573 71.2564 184.644 70.9405 184.644 70.5746V66.5961H185.816V73.3185H184.681V72.0089L184.868 72.1212C184.711 72.5452 184.44 72.8778 184.058 73.1189C183.684 73.3517 183.251 73.4681 182.761 73.4681ZM190.669 73.4681C190.037 73.4681 189.467 73.3143 188.96 73.0067C188.461 72.699 188.066 72.2791 187.775 71.747C187.484 71.2149 187.339 70.6204 187.339 69.9635C187.339 69.29 187.484 68.6914 187.775 68.1675C188.066 67.6354 188.461 67.2155 188.96 66.9079C189.467 66.6002 190.037 66.4464 190.669 66.4464C191.226 66.4464 191.721 66.567 192.153 66.8081C192.585 67.0409 192.926 67.3568 193.176 67.756L192.989 68.0428V63.8772H194.161V73.3185H193.026V71.8842L193.176 72.0838C192.943 72.5244 192.602 72.8653 192.153 73.1065C191.712 73.3476 191.218 73.4681 190.669 73.4681ZM190.769 72.3457C191.193 72.3457 191.571 72.2417 191.904 72.0339C192.236 71.826 192.498 71.5433 192.689 71.1858C192.889 70.8199 192.989 70.4125 192.989 69.9635C192.989 69.5062 192.889 69.0988 192.689 68.7412C192.498 68.3754 192.236 68.0885 191.904 67.8807C191.571 67.6728 191.193 67.5689 190.769 67.5689C190.353 67.5689 189.975 67.677 189.634 67.8931C189.301 68.101 189.039 68.3837 188.848 68.7412C188.657 69.0905 188.561 69.4979 188.561 69.9635C188.561 70.4125 188.657 70.8199 188.848 71.1858C189.039 71.5433 189.301 71.826 189.634 72.0339C189.966 72.2417 190.345 72.3457 190.769 72.3457ZM197.927 73.4681C197.486 73.4681 197.096 73.3892 196.755 73.2312C196.422 73.0649 196.16 72.8404 195.969 72.5577C195.778 72.2667 195.682 71.9341 195.682 71.5599C195.682 71.2024 195.757 70.8823 195.907 70.5996C196.065 70.3086 196.306 70.0633 196.63 69.8637C196.962 69.6642 197.378 69.5228 197.877 69.4397L200.372 69.0281V70.0009L198.139 70.3751C197.707 70.4499 197.391 70.5871 197.191 70.7867C197 70.9862 196.904 71.2315 196.904 71.5225C196.904 71.7969 197.012 72.0255 197.229 72.2085C197.453 72.3914 197.732 72.4829 198.064 72.4829C198.488 72.4829 198.854 72.3956 199.162 72.2209C199.478 72.038 199.723 71.7927 199.898 71.4851C200.081 71.1774 200.172 70.8365 200.172 70.4624V68.7537C200.172 68.3879 200.035 68.0927 199.76 67.8682C199.494 67.6354 199.141 67.519 198.7 67.519C198.318 67.519 197.977 67.6188 197.678 67.8183C197.387 68.0096 197.17 68.2673 197.029 68.5916L196.019 68.0678C196.144 67.7601 196.343 67.4857 196.617 67.2446C196.892 66.9952 197.212 66.7998 197.578 66.6584C197.944 66.5171 198.326 66.4464 198.725 66.4464C199.241 66.4464 199.694 66.5462 200.085 66.7457C200.475 66.937 200.779 67.2072 200.995 67.5564C201.22 67.8973 201.332 68.2964 201.332 68.7537V73.3185H200.197V72.0463L200.409 72.1212C200.268 72.3872 200.076 72.62 199.835 72.8196C199.594 73.0192 199.311 73.1771 198.987 73.2935C198.663 73.4099 198.309 73.4681 197.927 73.4681ZM208.404 73.4681C207.747 73.4681 207.161 73.3143 206.646 73.0067C206.138 72.699 205.739 72.2791 205.448 71.747C205.157 71.2149 205.012 70.6162 205.012 69.951C205.012 69.2775 205.157 68.6789 205.448 68.1551C205.739 67.6312 206.138 67.2155 206.646 66.9079C207.161 66.6002 207.747 66.4464 208.404 66.4464C208.845 66.4464 209.256 66.5254 209.639 66.6834C210.021 66.8413 210.358 67.0534 210.649 67.3194C210.94 67.5855 211.152 67.8973 211.285 68.2548L210.25 68.7537C210.092 68.4045 209.851 68.1218 209.527 67.9056C209.202 67.6811 208.828 67.5689 208.404 67.5689C207.997 67.5689 207.627 67.6728 207.294 67.8807C206.97 68.0885 206.712 68.3712 206.521 68.7288C206.33 69.0863 206.234 69.4979 206.234 69.9635C206.234 70.4125 206.33 70.8199 206.521 71.1858C206.712 71.5433 206.97 71.826 207.294 72.0339C207.627 72.2417 207.997 72.3457 208.404 72.3457C208.828 72.3457 209.202 72.2376 209.527 72.0214C209.851 71.7969 210.092 71.5017 210.25 71.1359L211.285 71.6597C211.152 72.0089 210.94 72.3207 210.649 72.5951C210.358 72.8612 210.021 73.0732 209.639 73.2312C209.256 73.3892 208.845 73.4681 208.404 73.4681ZM215.994 73.4681C215.345 73.4681 214.759 73.3185 214.235 73.0192C213.711 72.7115 213.296 72.2916 212.988 71.7595C212.68 71.2273 212.527 70.6245 212.527 69.951C212.527 69.2775 212.676 68.6789 212.976 68.1551C213.283 67.6312 213.699 67.2155 214.223 66.9079C214.747 66.6002 215.337 66.4464 215.994 66.4464C216.642 66.4464 217.229 66.6002 217.752 66.9079C218.276 67.2072 218.688 67.6188 218.987 68.1426C219.295 68.6664 219.449 69.2692 219.449 69.951C219.449 70.6328 219.291 71.2398 218.975 71.7719C218.659 72.2958 218.239 72.7115 217.715 73.0192C217.199 73.3185 216.626 73.4681 215.994 73.4681ZM215.994 72.3457C216.41 72.3457 216.784 72.2417 217.116 72.0339C217.457 71.826 217.723 71.5391 217.915 71.1733C218.114 70.8074 218.214 70.4 218.214 69.951C218.214 69.4937 218.114 69.0905 217.915 68.7412C217.723 68.3837 217.457 68.101 217.116 67.8931C216.784 67.677 216.41 67.5689 215.994 67.5689C215.57 67.5689 215.187 67.677 214.846 67.8931C214.514 68.101 214.248 68.3837 214.048 68.7412C213.849 69.0905 213.749 69.4937 213.749 69.951C213.749 70.4 213.849 70.8074 214.048 71.1733C214.248 71.5391 214.514 71.826 214.846 72.0339C215.187 72.2417 215.57 72.3457 215.994 72.3457ZM220.961 73.3185V66.5961H222.096V67.968L221.934 67.756C222.1 67.3319 222.367 67.0076 222.732 66.7831C223.098 66.5586 223.51 66.4464 223.967 66.4464C224.491 66.4464 224.961 66.5919 225.376 66.8829C225.801 67.1739 226.092 67.5564 226.25 68.0303L225.925 68.0428C226.1 67.519 226.395 67.124 226.811 66.858C227.227 66.5836 227.688 66.4464 228.195 66.4464C228.661 66.4464 229.081 66.5545 229.455 66.7707C229.837 66.9868 230.141 67.2862 230.365 67.6687C230.59 68.0511 230.702 68.4835 230.702 68.9657V73.3185H229.53V69.3399C229.53 68.9657 229.463 68.6498 229.33 68.392C229.197 68.1343 229.014 67.9347 228.781 67.7934C228.557 67.6437 228.291 67.5689 227.983 67.5689C227.684 67.5689 227.414 67.6437 227.172 67.7934C226.94 67.9347 226.753 68.1384 226.611 68.4045C226.478 68.6623 226.412 68.9741 226.412 69.3399V73.3185H225.239V69.3399C225.239 68.9657 225.173 68.6498 225.04 68.392C224.907 68.1343 224.724 67.9347 224.491 67.7934C224.266 67.6437 224 67.5689 223.693 67.5689C223.393 67.5689 223.123 67.6437 222.882 67.7934C222.649 67.9347 222.462 68.1384 222.321 68.4045C222.188 68.6623 222.121 68.9741 222.121 69.3399V73.3185H220.961ZM108.057 92.4681C107.409 92.4681 106.822 92.3185 106.299 92.0192C105.775 91.7115 105.359 91.2916 105.051 90.7595C104.744 90.2273 104.59 89.6245 104.59 88.951C104.59 88.2775 104.74 87.6789 105.039 87.1551C105.347 86.6312 105.762 86.2155 106.286 85.9079C106.81 85.6002 107.4 85.4464 108.057 85.4464C108.706 85.4464 109.292 85.6002 109.816 85.9079C110.34 86.2072 110.751 86.6188 111.05 87.1426C111.358 87.6664 111.512 88.2692 111.512 88.951C111.512 89.6328 111.354 90.2398 111.038 90.7719C110.722 91.2958 110.302 91.7115 109.778 92.0192C109.263 92.3185 108.689 92.4681 108.057 92.4681ZM108.057 91.3457C108.473 91.3457 108.847 91.2417 109.18 91.0339C109.521 90.826 109.787 90.5391 109.978 90.1733C110.177 89.8074 110.277 89.4 110.277 88.951C110.277 88.4937 110.177 88.0905 109.978 87.7412C109.787 87.3837 109.521 87.101 109.18 86.8931C108.847 86.677 108.473 86.5689 108.057 86.5689C107.633 86.5689 107.251 86.677 106.91 86.8931C106.577 87.101 106.311 87.3837 106.111 87.7412C105.912 88.0905 105.812 88.4937 105.812 88.951C105.812 89.4 105.912 89.8074 106.111 90.1733C106.311 90.5391 106.577 90.826 106.91 91.0339C107.251 91.2417 107.633 91.3457 108.057 91.3457ZM115.891 92.3185V86.7061H114.607V85.5961H115.891V85.1221C115.891 84.6399 115.995 84.2324 116.203 83.8999C116.419 83.5673 116.702 83.3137 117.051 83.1391C117.409 82.9645 117.804 82.8772 118.236 82.8772C118.328 82.8772 118.427 82.8855 118.535 82.9021C118.652 82.9104 118.748 82.9229 118.822 82.9395V83.9747C118.756 83.9581 118.677 83.9497 118.585 83.9497C118.494 83.9414 118.423 83.9373 118.373 83.9373C117.991 83.9373 117.675 84.0287 117.425 84.2117C117.184 84.3946 117.064 84.6981 117.064 85.1221V85.5961H118.66V86.7061H117.064V92.3185H115.891ZM121.828 92.4681C121.387 92.4681 120.997 92.3892 120.656 92.2312C120.323 92.0649 120.061 91.8404 119.87 91.5577C119.679 91.2667 119.583 90.9341 119.583 90.5599C119.583 90.2024 119.658 89.8823 119.808 89.5996C119.966 89.3086 120.207 89.0633 120.531 88.8637C120.864 88.6642 121.279 88.5228 121.778 88.4397L124.273 88.0281V89.0009L122.04 89.3751C121.608 89.4499 121.292 89.5871 121.092 89.7867C120.901 89.9862 120.805 90.2315 120.805 90.5225C120.805 90.7969 120.913 91.0255 121.13 91.2085C121.354 91.3914 121.633 91.4829 121.965 91.4829C122.389 91.4829 122.755 91.3956 123.063 91.2209C123.379 91.038 123.624 90.7927 123.799 90.4851C123.982 90.1774 124.073 89.8365 124.073 89.4624V87.7537C124.073 87.3879 123.936 87.0927 123.662 86.8682C123.395 86.6354 123.042 86.519 122.601 86.519C122.219 86.519 121.878 86.6188 121.579 86.8183C121.288 87.0096 121.071 87.2673 120.93 87.5916L119.92 87.0678C120.045 86.7601 120.244 86.4857 120.519 86.2446C120.793 85.9952 121.113 85.7998 121.479 85.6584C121.845 85.5171 122.227 85.4464 122.626 85.4464C123.142 85.4464 123.595 85.5462 123.986 85.7457C124.377 85.937 124.68 86.2072 124.896 86.5564C125.121 86.8973 125.233 87.2964 125.233 87.7537V92.3185H124.098V91.0463L124.31 91.1212C124.169 91.3872 123.977 91.62 123.736 91.8196C123.495 92.0192 123.213 92.1771 122.888 92.2935C122.564 92.4099 122.211 92.4681 121.828 92.4681ZM129.641 92.3933C128.984 92.3933 128.477 92.2062 128.119 91.8321C127.77 91.4579 127.596 90.9299 127.596 90.2481V86.7061H126.373V85.5961H126.623C126.922 85.5961 127.159 85.5046 127.334 85.3217C127.508 85.1387 127.596 84.8976 127.596 84.5983V84.0495H128.755V85.5961H130.265V86.7061H128.755V90.2107C128.755 90.4352 128.789 90.6306 128.855 90.7969C128.93 90.9632 129.051 91.0962 129.217 91.196C129.383 91.2875 129.604 91.3332 129.878 91.3332C129.936 91.3332 130.007 91.329 130.09 91.3207C130.181 91.3124 130.265 91.3041 130.339 91.2958V92.3185C130.231 92.3434 130.111 92.3601 129.978 92.3684C129.845 92.385 129.732 92.3933 129.641 92.3933ZM134.237 92.4681C133.754 92.4681 133.318 92.3559 132.927 92.1314C132.545 91.9069 132.245 91.5951 132.029 91.196C131.821 90.7886 131.717 90.323 131.717 89.7991V85.5961H132.877V89.6744C132.877 90.007 132.944 90.298 133.077 90.5475C133.218 90.7969 133.409 90.9923 133.651 91.1336C133.9 91.275 134.183 91.3457 134.499 91.3457C134.815 91.3457 135.093 91.275 135.334 91.1336C135.584 90.9923 135.775 90.7886 135.908 90.5225C136.049 90.2564 136.12 89.9405 136.12 89.5746V85.5961H137.292V92.3185H136.157V91.0089L136.344 91.1212C136.187 91.5452 135.916 91.8778 135.534 92.1189C135.16 92.3517 134.727 92.4681 134.237 92.4681ZM139.089 92.3185V85.5961H140.224V86.8308L140.1 86.6562C140.258 86.2737 140.499 85.991 140.823 85.8081C141.147 85.6168 141.542 85.5212 142.008 85.5212H142.419V86.6188H141.833C141.359 86.6188 140.977 86.7684 140.686 87.0678C140.395 87.3588 140.249 87.7745 140.249 88.315V92.3185H139.089ZM145.42 92.4681C144.98 92.4681 144.589 92.3892 144.248 92.2312C143.915 92.0649 143.653 91.8404 143.462 91.5577C143.271 91.2667 143.175 90.9341 143.175 90.5599C143.175 90.2024 143.25 89.8823 143.4 89.5996C143.558 89.3086 143.799 89.0633 144.123 88.8637C144.456 88.6642 144.871 88.5228 145.37 88.4397L147.865 88.0281V89.0009L145.632 89.3751C145.2 89.4499 144.884 89.5871 144.684 89.7867C144.493 89.9862 144.398 90.2315 144.398 90.5225C144.398 90.7969 144.506 91.0255 144.722 91.2085C144.946 91.3914 145.225 91.4829 145.557 91.4829C145.981 91.4829 146.347 91.3956 146.655 91.2209C146.971 91.038 147.216 90.7927 147.391 90.4851C147.574 90.1774 147.665 89.8365 147.665 89.4624V87.7537C147.665 87.3879 147.528 87.0927 147.254 86.8682C146.988 86.6354 146.634 86.519 146.193 86.519C145.811 86.519 145.47 86.6188 145.171 86.8183C144.88 87.0096 144.664 87.2673 144.522 87.5916L143.512 87.0678C143.637 86.7601 143.836 86.4857 144.111 86.2446C144.385 85.9952 144.705 85.7998 145.071 85.6584C145.437 85.5171 145.819 85.4464 146.218 85.4464C146.734 85.4464 147.187 85.5462 147.578 85.7457C147.969 85.937 148.272 86.2072 148.488 86.5564C148.713 86.8973 148.825 87.2964 148.825 87.7537V92.3185H147.69V91.0463L147.902 91.1212C147.761 91.3872 147.57 91.62 147.328 91.8196C147.087 92.0192 146.805 92.1771 146.48 92.2935C146.156 92.4099 145.803 92.4681 145.42 92.4681ZM150.624 92.3185V85.5961H151.758V86.968L151.596 86.756C151.763 86.3319 152.029 86.0076 152.395 85.7831C152.76 85.5586 153.172 85.4464 153.629 85.4464C154.153 85.4464 154.623 85.5919 155.039 85.8829C155.463 86.1739 155.754 86.5564 155.912 87.0303L155.587 87.0428C155.762 86.519 156.057 86.124 156.473 85.858C156.889 85.5836 157.35 85.4464 157.857 85.4464C158.323 85.4464 158.743 85.5545 159.117 85.7707C159.499 85.9868 159.803 86.2862 160.027 86.6687C160.252 87.0511 160.364 87.4835 160.364 87.9657V92.3185H159.192V88.3399C159.192 87.9657 159.125 87.6498 158.992 87.392C158.859 87.1343 158.676 86.9347 158.443 86.7934C158.219 86.6437 157.953 86.5689 157.645 86.5689C157.346 86.5689 157.076 86.6437 156.835 86.7934C156.602 86.9347 156.415 87.1384 156.273 87.4045C156.14 87.6623 156.074 87.9741 156.074 88.3399V92.3185H154.901V88.3399C154.901 87.9657 154.835 87.6498 154.702 87.392C154.569 87.1343 154.386 86.9347 154.153 86.7934C153.929 86.6437 153.663 86.5689 153.355 86.5689C153.056 86.5689 152.785 86.6437 152.544 86.7934C152.311 86.9347 152.124 87.1384 151.983 87.4045C151.85 87.6623 151.783 87.9741 151.783 88.3399V92.3185H150.624ZM165.105 92.4681C164.456 92.4681 163.878 92.3143 163.371 92.0067C162.864 91.699 162.465 91.2791 162.174 90.747C161.883 90.2066 161.737 89.6037 161.737 88.9386C161.737 88.2651 161.879 87.6664 162.161 87.1426C162.452 86.6188 162.843 86.2072 163.334 85.9079C163.832 85.6002 164.39 85.4464 165.005 85.4464C165.504 85.4464 165.944 85.5379 166.327 85.7208C166.718 85.8954 167.046 86.1365 167.312 86.4442C167.587 86.7435 167.794 87.0885 167.936 87.4793C168.085 87.8618 168.16 88.2609 168.16 88.6766C168.16 88.7681 168.152 88.872 168.135 88.9884C168.127 89.0965 168.115 89.2005 168.098 89.3002H162.585V88.3025H167.424L166.876 88.7515C166.95 88.3191 166.909 87.9325 166.751 87.5916C166.593 87.2507 166.36 86.9805 166.052 86.7809C165.745 86.5813 165.396 86.4816 165.005 86.4816C164.614 86.4816 164.257 86.5813 163.932 86.7809C163.608 86.9805 163.354 87.2673 163.171 87.6415C162.997 88.0073 162.926 88.4438 162.959 88.951C162.926 89.4416 163.001 89.874 163.184 90.2481C163.375 90.614 163.641 90.9008 163.982 91.1087C164.331 91.3082 164.71 91.408 165.117 91.408C165.566 91.408 165.944 91.3041 166.252 91.0962C166.56 90.8884 166.809 90.6223 167 90.298L167.973 90.7969C167.84 91.1045 167.632 91.3872 167.35 91.645C167.075 91.8944 166.747 92.094 166.364 92.2436C165.99 92.3933 165.57 92.4681 165.105 92.4681ZM169.673 92.3185V85.5961H170.808V86.9056L170.62 86.7934C170.787 86.3693 171.053 86.0409 171.419 85.8081C171.793 85.567 172.229 85.4464 172.728 85.4464C173.21 85.4464 173.639 85.5545 174.013 85.7707C174.395 85.9868 174.695 86.2862 174.911 86.6687C175.135 87.0511 175.248 87.4835 175.248 87.9657V92.3185H174.075V88.3399C174.075 87.9657 174.009 87.6498 173.876 87.392C173.743 87.1343 173.551 86.9347 173.302 86.7934C173.061 86.6437 172.782 86.5689 172.466 86.5689C172.15 86.5689 171.868 86.6437 171.618 86.7934C171.377 86.9347 171.186 87.1384 171.045 87.4045C170.903 87.6623 170.832 87.9741 170.832 88.3399V92.3185H169.673ZM179.639 92.3933C178.982 92.3933 178.475 92.2062 178.117 91.8321C177.768 91.4579 177.593 90.9299 177.593 90.2481V86.7061H176.371V85.5961H176.62C176.92 85.5961 177.157 85.5046 177.331 85.3217C177.506 85.1387 177.593 84.8976 177.593 84.5983V84.0495H178.753V85.5961H180.262V86.7061H178.753V90.2107C178.753 90.4352 178.786 90.6306 178.853 90.7969C178.928 90.9632 179.048 91.0962 179.215 91.196C179.381 91.2875 179.601 91.3332 179.876 91.3332C179.934 91.3332 180.005 91.329 180.088 91.3207C180.179 91.3124 180.262 91.3041 180.337 91.2958V92.3185C180.229 92.3434 180.108 92.3601 179.975 92.3684C179.842 92.385 179.73 92.3933 179.639 92.3933ZM184.862 92.4681C184.214 92.4681 183.628 92.3185 183.104 92.0192C182.58 91.7115 182.164 91.2916 181.857 90.7595C181.549 90.2273 181.395 89.6245 181.395 88.951C181.395 88.2775 181.545 87.6789 181.844 87.1551C182.152 86.6312 182.568 86.2155 183.091 85.9079C183.615 85.6002 184.206 85.4464 184.862 85.4464C185.511 85.4464 186.097 85.6002 186.621 85.9079C187.145 86.2072 187.556 86.6188 187.856 87.1426C188.163 87.6664 188.317 88.2692 188.317 88.951C188.317 89.6328 188.159 90.2398 187.843 90.7719C187.527 91.2958 187.107 91.7115 186.584 92.0192C186.068 92.3185 185.494 92.4681 184.862 92.4681ZM184.862 91.3457C185.278 91.3457 185.652 91.2417 185.985 91.0339C186.326 90.826 186.592 90.5391 186.783 90.1733C186.983 89.8074 187.082 89.4 187.082 88.951C187.082 88.4937 186.983 88.0905 186.783 87.7412C186.592 87.3837 186.326 87.101 185.985 86.8931C185.652 86.677 185.278 86.5689 184.862 86.5689C184.438 86.5689 184.056 86.677 183.715 86.8931C183.382 87.101 183.116 87.3837 182.917 87.7412C182.717 88.0905 182.617 88.4937 182.617 88.951C182.617 89.4 182.717 89.8074 182.917 90.1733C183.116 90.5391 183.382 90.826 183.715 91.0339C184.056 91.2417 184.438 91.3457 184.862 91.3457ZM190.304 92.3185V90.8218H191.514V92.3185H190.304Z" fill="#3F4346"/>
</g>
<g filter="url(#filter2_d_6421_5922)">
<path d="M39.9996 110H239.391C249.649 110 250.966 115.714 251.814 118.002C252.097 124.048 252.118 138.139 251.44 144.807C250.761 151.474 245.047 154.448 239.391 155.102H12C22.1817 150.788 22.1478 145.042 22.2855 142.735C22.5683 137.996 22.4974 125.751 23.3682 118.729C24.4509 110 34.0603 110.49 39.9996 110Z" fill="white"/>
<path d="M32.4751 128.187V118.896H35.7553C36.3706 118.896 36.911 119.012 37.3766 119.245C37.8423 119.478 38.2039 119.81 38.4617 120.243C38.7278 120.675 38.8608 121.182 38.8608 121.764C38.8608 122.346 38.7278 122.853 38.4617 123.286C38.2039 123.71 37.8423 124.042 37.3766 124.284C36.9193 124.516 36.3789 124.633 35.7553 124.633H33.6974V128.187H32.4751ZM33.6974 123.51H35.7927C36.1668 123.51 36.4911 123.44 36.7655 123.298C37.0399 123.157 37.2519 122.953 37.4016 122.687C37.5512 122.421 37.6261 122.113 37.6261 121.764C37.6261 121.407 37.5512 121.099 37.4016 120.841C37.2519 120.575 37.0399 120.372 36.7655 120.23C36.4911 120.089 36.1668 120.018 35.7927 120.018H33.6974V123.51ZM41.8843 128.337C41.4436 128.337 41.0528 128.258 40.7119 128.1C40.3793 127.934 40.1174 127.709 39.9262 127.427C39.7349 127.136 39.6393 126.803 39.6393 126.429C39.6393 126.071 39.7142 125.751 39.8638 125.468C40.0218 125.177 40.2629 124.932 40.5872 124.733C40.9198 124.533 41.3355 124.392 41.8344 124.309L44.3288 123.897V124.87L42.0963 125.244C41.664 125.319 41.348 125.456 41.1484 125.655C40.9572 125.855 40.8616 126.1 40.8616 126.391C40.8616 126.666 40.9697 126.894 41.1859 127.077C41.4104 127.26 41.6889 127.352 42.0215 127.352C42.4455 127.352 42.8114 127.264 43.119 127.09C43.435 126.907 43.6803 126.662 43.8549 126.354C44.0378 126.046 44.1293 125.705 44.1293 125.331V123.623C44.1293 123.257 43.9921 122.962 43.7177 122.737C43.4516 122.504 43.0982 122.388 42.6576 122.388C42.2751 122.388 41.9342 122.488 41.6349 122.687C41.3438 122.878 41.1277 123.136 40.9863 123.46L39.9761 122.937C40.1008 122.629 40.3003 122.355 40.5747 122.113C40.8491 121.864 41.1692 121.669 41.5351 121.527C41.9009 121.386 42.2834 121.315 42.6825 121.315C43.198 121.315 43.6512 121.415 44.042 121.615C44.4327 121.806 44.7362 122.076 44.9524 122.425C45.1769 122.766 45.2892 123.165 45.2892 123.623V128.187H44.1542V126.915L44.3662 126.99C44.2249 127.256 44.0336 127.489 43.7925 127.688C43.5514 127.888 43.2687 128.046 42.9444 128.162C42.6201 128.279 42.2668 128.337 41.8843 128.337ZM47.0876 128.187V121.465H48.2225V122.7L48.0978 122.525C48.2558 122.143 48.4969 121.86 48.8212 121.677C49.1455 121.486 49.5404 121.39 50.006 121.39H50.4176V122.488H49.8314C49.3575 122.488 48.975 122.637 48.684 122.937C48.393 123.228 48.2475 123.643 48.2475 124.184V128.187H47.0876ZM53.4185 128.337C52.9778 128.337 52.587 128.258 52.2461 128.1C51.9135 127.934 51.6516 127.709 51.4604 127.427C51.2691 127.136 51.1735 126.803 51.1735 126.429C51.1735 126.071 51.2484 125.751 51.398 125.468C51.556 125.177 51.7971 124.932 52.1214 124.733C52.454 124.533 52.8697 124.392 53.3686 124.309L55.863 123.897V124.87L53.6305 125.244C53.1982 125.319 52.8822 125.456 52.6826 125.655C52.4914 125.855 52.3958 126.1 52.3958 126.391C52.3958 126.666 52.5039 126.894 52.7201 127.077C52.9446 127.26 53.2231 127.352 53.5557 127.352C53.9797 127.352 54.3456 127.264 54.6532 127.09C54.9692 126.907 55.2145 126.662 55.3891 126.354C55.572 126.046 55.6635 125.705 55.6635 125.331V123.623C55.6635 123.257 55.5263 122.962 55.2519 122.737C54.9858 122.504 54.6324 122.388 54.1918 122.388C53.8093 122.388 53.4684 122.488 53.1691 122.687C52.878 122.878 52.6619 123.136 52.5205 123.46L51.5103 122.937C51.635 122.629 51.8345 122.355 52.1089 122.113C52.3833 121.864 52.7034 121.669 53.0693 121.527C53.4351 121.386 53.8176 121.315 54.2167 121.315C54.7322 121.315 55.1854 121.415 55.5762 121.615C55.9669 121.806 56.2704 122.076 56.4866 122.425C56.7111 122.766 56.8234 123.165 56.8234 123.623V128.187H55.6884V126.915L55.9004 126.99C55.7591 127.256 55.5678 127.489 55.3267 127.688C55.0856 127.888 54.8029 128.046 54.4786 128.162C54.1543 128.279 53.801 128.337 53.4185 128.337ZM62.7482 128.337C62.3075 128.337 61.9167 128.258 61.5758 128.1C61.2432 127.934 60.9813 127.709 60.79 127.427C60.5988 127.136 60.5032 126.803 60.5032 126.429C60.5032 126.071 60.578 125.751 60.7277 125.468C60.8857 125.177 61.1268 124.932 61.4511 124.733C61.7837 124.533 62.1994 124.392 62.6983 124.309L65.1927 123.897V124.87L62.9602 125.244C62.5278 125.319 62.2119 125.456 62.0123 125.655C61.8211 125.855 61.7255 126.1 61.7255 126.391C61.7255 126.666 61.8335 126.894 62.0497 127.077C62.2742 127.26 62.5528 127.352 62.8853 127.352C63.3094 127.352 63.6752 127.264 63.9829 127.09C64.2988 126.907 64.5441 126.662 64.7187 126.354C64.9017 126.046 64.9931 125.705 64.9931 125.331V123.623C64.9931 123.257 64.8559 122.962 64.5815 122.737C64.3155 122.504 63.9621 122.388 63.5214 122.388C63.1389 122.388 62.798 122.488 62.4987 122.687C62.2077 122.878 61.9915 123.136 61.8502 123.46L60.8399 122.937C60.9647 122.629 61.1642 122.355 61.4386 122.113C61.713 121.864 62.0331 121.669 62.3989 121.527C62.7648 121.386 63.1473 121.315 63.5464 121.315C64.0619 121.315 64.515 121.415 64.9058 121.615C65.2966 121.806 65.6001 122.076 65.8163 122.425C66.0408 122.766 66.153 123.165 66.153 123.623V128.187H65.0181V126.915L65.2301 126.99C65.0887 127.256 64.8975 127.489 64.6564 127.688C64.4153 127.888 64.1326 128.046 63.8083 128.162C63.484 128.279 63.1306 128.337 62.7482 128.337ZM70.561 128.262C69.9041 128.262 69.397 128.075 69.0394 127.701C68.6902 127.327 68.5156 126.799 68.5156 126.117V122.575H67.2933V121.465H67.5428C67.8421 121.465 68.0791 121.373 68.2537 121.191C68.4283 121.008 68.5156 120.766 68.5156 120.467V119.918H69.6755V121.465H71.1846V122.575H69.6755V126.08C69.6755 126.304 69.7088 126.499 69.7753 126.666C69.8501 126.832 69.9707 126.965 70.137 127.065C70.3033 127.156 70.5236 127.202 70.798 127.202C70.8562 127.202 70.9269 127.198 71.01 127.19C71.1015 127.181 71.1846 127.173 71.2594 127.165V128.187C71.1514 128.212 71.0308 128.229 70.8978 128.237C70.7647 128.254 70.6525 128.262 70.561 128.262ZM75.1568 128.337C74.6745 128.337 74.238 128.225 73.8472 128C73.4647 127.776 73.1654 127.464 72.9492 127.065C72.7413 126.657 72.6374 126.192 72.6374 125.668V121.465H73.7973V125.543C73.7973 125.876 73.8638 126.167 73.9969 126.416C74.1382 126.666 74.3294 126.861 74.5706 127.002C74.82 127.144 75.1027 127.214 75.4187 127.214C75.7346 127.214 76.0132 127.144 76.2543 127.002C76.5037 126.861 76.695 126.657 76.828 126.391C76.9694 126.125 77.04 125.809 77.04 125.443V121.465H78.2124V128.187H77.0775V126.878L77.2645 126.99C77.1066 127.414 76.8363 127.747 76.4539 127.988C76.0797 128.221 75.6473 128.337 75.1568 128.337ZM81.9799 128.337C81.5393 128.337 81.1485 128.258 80.8076 128.1C80.475 127.934 80.2131 127.709 80.0218 127.427C79.8306 127.136 79.735 126.803 79.735 126.429C79.735 126.071 79.8098 125.751 79.9595 125.468C80.1174 125.177 80.3586 124.932 80.6828 124.733C81.0154 124.533 81.4312 124.392 81.93 124.309L84.4245 123.897V124.87L82.192 125.244C81.7596 125.319 81.4436 125.456 81.2441 125.655C81.0528 125.855 80.9572 126.1 80.9572 126.391C80.9572 126.666 81.0653 126.894 81.2815 127.077C81.506 127.26 81.7845 127.352 82.1171 127.352C82.5412 127.352 82.907 127.264 83.2147 127.09C83.5306 126.907 83.7759 126.662 83.9505 126.354C84.1334 126.046 84.2249 125.705 84.2249 125.331V123.623C84.2249 123.257 84.0877 122.962 83.8133 122.737C83.5473 122.504 83.1939 122.388 82.7532 122.388C82.3707 122.388 82.0298 122.488 81.7305 122.687C81.4395 122.878 81.2233 123.136 81.0819 123.46L80.0717 122.937C80.1964 122.629 80.396 122.355 80.6704 122.113C80.9448 121.864 81.2649 121.669 81.6307 121.527C81.9966 121.386 82.379 121.315 82.7781 121.315C83.2937 121.315 83.7468 121.415 84.1376 121.615C84.5284 121.806 84.8319 122.076 85.0481 122.425C85.2726 122.766 85.3848 123.165 85.3848 123.623V128.187H84.2498V126.915L84.4619 126.99C84.3205 127.256 84.1293 127.489 83.8882 127.688C83.647 127.888 83.3643 128.046 83.0401 128.162C82.7158 128.279 82.3624 128.337 81.9799 128.337ZM87.1832 128.187V118.746H88.3431V128.187H87.1832ZM90.1429 128.187V121.465H91.3028V128.187H90.1429ZM90.1429 120.392V118.896H91.3028V120.392H90.1429ZM92.4415 128.187V127.202L96.4451 122.151L96.6446 122.575H92.6411V121.465H97.6798V122.45L93.7137 127.514L93.5141 127.077H97.7047V128.187H92.4415ZM100.81 128.337C100.369 128.337 99.9783 128.258 99.6374 128.1C99.3048 127.934 99.0429 127.709 98.8517 127.427C98.6604 127.136 98.5648 126.803 98.5648 126.429C98.5648 126.071 98.6396 125.751 98.7893 125.468C98.9473 125.177 99.1884 124.932 99.5127 124.733C99.8453 124.533 100.261 124.392 100.76 124.309L103.254 123.897V124.87L101.022 125.244C100.589 125.319 100.273 125.456 100.074 125.655C99.8827 125.855 99.7871 126.1 99.7871 126.391C99.7871 126.666 99.8952 126.894 100.111 127.077C100.336 127.26 100.614 127.352 100.947 127.352C101.371 127.352 101.737 127.264 102.045 127.09C102.36 126.907 102.606 126.662 102.78 126.354C102.963 126.046 103.055 125.705 103.055 125.331V123.623C103.055 123.257 102.918 122.962 102.643 122.737C102.377 122.504 102.024 122.388 101.583 122.388C101.201 122.388 100.86 122.488 100.56 122.687C100.269 122.878 100.053 123.136 99.9118 123.46L98.9016 122.937C99.0263 122.629 99.2258 122.355 99.5002 122.113C99.7746 121.864 100.095 121.669 100.461 121.527C100.826 121.386 101.209 121.315 101.608 121.315C102.124 121.315 102.577 121.415 102.967 121.615C103.358 121.806 103.662 122.076 103.878 122.425C104.102 122.766 104.215 123.165 104.215 123.623V128.187H103.08V126.915L103.292 126.99C103.15 127.256 102.959 127.489 102.718 127.688C102.477 127.888 102.194 128.046 101.87 128.162C101.546 128.279 101.192 128.337 100.81 128.337ZM106.013 128.187V121.465H107.148V122.7L107.023 122.525C107.181 122.143 107.422 121.86 107.747 121.677C108.071 121.486 108.466 121.39 108.932 121.39H109.343V122.488H108.757C108.283 122.488 107.9 122.637 107.609 122.937C107.318 123.228 107.173 123.643 107.173 124.184V128.187H106.013ZM115.722 128.337C115.073 128.337 114.487 128.187 113.963 127.888C113.44 127.58 113.024 127.16 112.716 126.628C112.409 126.096 112.255 125.493 112.255 124.82C112.255 124.146 112.404 123.548 112.704 123.024C113.011 122.5 113.427 122.084 113.951 121.777C114.475 121.469 115.065 121.315 115.722 121.315C116.371 121.315 116.957 121.469 117.481 121.777C118.004 122.076 118.416 122.488 118.715 123.011C119.023 123.535 119.177 124.138 119.177 124.82C119.177 125.502 119.019 126.109 118.703 126.641C118.387 127.165 117.967 127.58 117.443 127.888C116.928 128.187 116.354 128.337 115.722 128.337ZM115.722 127.214C116.138 127.214 116.512 127.111 116.845 126.903C117.185 126.695 117.452 126.408 117.643 126.042C117.842 125.676 117.942 125.269 117.942 124.82C117.942 124.363 117.842 123.959 117.643 123.61C117.452 123.253 117.185 122.97 116.845 122.762C116.512 122.546 116.138 122.438 115.722 122.438C115.298 122.438 114.916 122.546 114.575 122.762C114.242 122.97 113.976 123.253 113.776 123.61C113.577 123.959 113.477 124.363 113.477 124.82C113.477 125.269 113.577 125.676 113.776 126.042C113.976 126.408 114.242 126.695 114.575 126.903C114.916 127.111 115.298 127.214 115.722 127.214ZM123.556 128.187V122.575H122.272V121.465H123.556V120.991C123.556 120.509 123.66 120.101 123.868 119.769C124.084 119.436 124.367 119.183 124.716 119.008C125.074 118.833 125.469 118.746 125.901 118.746C125.993 118.746 126.092 118.754 126.2 118.771C126.317 118.779 126.412 118.792 126.487 118.808V119.844C126.421 119.827 126.342 119.819 126.25 119.819C126.159 119.81 126.088 119.806 126.038 119.806C125.656 119.806 125.34 119.898 125.09 120.08C124.849 120.263 124.729 120.567 124.729 120.991V121.465H126.325V122.575H124.729V128.187H123.556ZM129.493 128.337C129.052 128.337 128.662 128.258 128.321 128.1C127.988 127.934 127.726 127.709 127.535 127.427C127.344 127.136 127.248 126.803 127.248 126.429C127.248 126.071 127.323 125.751 127.473 125.468C127.631 125.177 127.872 124.932 128.196 124.733C128.529 124.533 128.944 124.392 129.443 124.309L131.938 123.897V124.87L129.705 125.244C129.273 125.319 128.957 125.456 128.757 125.655C128.566 125.855 128.47 126.1 128.47 126.391C128.47 126.666 128.578 126.894 128.795 127.077C129.019 127.26 129.298 127.352 129.63 127.352C130.054 127.352 130.42 127.264 130.728 127.09C131.044 126.907 131.289 126.662 131.464 126.354C131.647 126.046 131.738 125.705 131.738 125.331V123.623C131.738 123.257 131.601 122.962 131.326 122.737C131.06 122.504 130.707 122.388 130.266 122.388C129.884 122.388 129.543 122.488 129.244 122.687C128.953 122.878 128.736 123.136 128.595 123.46L127.585 122.937C127.71 122.629 127.909 122.355 128.183 122.113C128.458 121.864 128.778 121.669 129.144 121.527C129.51 121.386 129.892 121.315 130.291 121.315C130.807 121.315 131.26 121.415 131.651 121.615C132.041 121.806 132.345 122.076 132.561 122.425C132.786 122.766 132.898 123.165 132.898 123.623V128.187H131.763V126.915L131.975 126.99C131.834 127.256 131.642 127.489 131.401 127.688C131.16 127.888 130.877 128.046 130.553 128.162C130.229 128.279 129.876 128.337 129.493 128.337ZM137.306 128.262C136.649 128.262 136.142 128.075 135.784 127.701C135.435 127.327 135.26 126.799 135.26 126.117V122.575H134.038V121.465H134.288C134.587 121.465 134.824 121.373 134.999 121.191C135.173 121.008 135.26 120.766 135.26 120.467V119.918H136.42V121.465H137.929V122.575H136.42V126.08C136.42 126.304 136.454 126.499 136.52 126.666C136.595 126.832 136.716 126.965 136.882 127.065C137.048 127.156 137.268 127.202 137.543 127.202C137.601 127.202 137.672 127.198 137.755 127.19C137.846 127.181 137.929 127.173 138.004 127.165V128.187C137.896 128.212 137.776 128.229 137.643 128.237C137.51 128.254 137.397 128.262 137.306 128.262ZM141.902 128.337C141.419 128.337 140.983 128.225 140.592 128C140.21 127.776 139.91 127.464 139.694 127.065C139.486 126.657 139.382 126.192 139.382 125.668V121.465H140.542V125.543C140.542 125.876 140.609 126.167 140.742 126.416C140.883 126.666 141.074 126.861 141.315 127.002C141.565 127.144 141.848 127.214 142.164 127.214C142.479 127.214 142.758 127.144 142.999 127.002C143.249 126.861 143.44 126.657 143.573 126.391C143.714 126.125 143.785 125.809 143.785 125.443V121.465H144.957V128.187H143.822V126.878L144.009 126.99C143.851 127.414 143.581 127.747 143.199 127.988C142.825 128.221 142.392 128.337 141.902 128.337ZM146.754 128.187V121.465H147.889V122.7L147.764 122.525C147.922 122.143 148.164 121.86 148.488 121.677C148.812 121.486 149.207 121.39 149.673 121.39H150.084V122.488H149.498C149.024 122.488 148.642 122.637 148.351 122.937C148.06 123.228 147.914 123.643 147.914 124.184V128.187H146.754ZM153.085 128.337C152.644 128.337 152.254 128.258 151.913 128.1C151.58 127.934 151.318 127.709 151.127 127.427C150.936 127.136 150.84 126.803 150.84 126.429C150.84 126.071 150.915 125.751 151.065 125.468C151.223 125.177 151.464 124.932 151.788 124.733C152.121 124.533 152.536 124.392 153.035 124.309L155.53 123.897V124.87L153.297 125.244C152.865 125.319 152.549 125.456 152.349 125.655C152.158 125.855 152.062 126.1 152.062 126.391C152.062 126.666 152.171 126.894 152.387 127.077C152.611 127.26 152.89 127.352 153.222 127.352C153.646 127.352 154.012 127.264 154.32 127.09C154.636 126.907 154.881 126.662 155.056 126.354C155.239 126.046 155.33 125.705 155.33 125.331V123.623C155.33 123.257 155.193 122.962 154.919 122.737C154.652 122.504 154.299 122.388 153.858 122.388C153.476 122.388 153.135 122.488 152.836 122.687C152.545 122.878 152.329 123.136 152.187 123.46L151.177 122.937C151.302 122.629 151.501 122.355 151.776 122.113C152.05 121.864 152.37 121.669 152.736 121.527C153.102 121.386 153.484 121.315 153.883 121.315C154.399 121.315 154.852 121.415 155.243 121.615C155.634 121.806 155.937 122.076 156.153 122.425C156.378 122.766 156.49 123.165 156.49 123.623V128.187H155.355V126.915L155.567 126.99C155.426 127.256 155.234 127.489 154.993 127.688C154.752 127.888 154.47 128.046 154.145 128.162C153.821 128.279 153.468 128.337 153.085 128.337ZM158.288 128.187V121.465H159.423V122.837L159.261 122.625C159.428 122.201 159.694 121.876 160.059 121.652C160.425 121.427 160.837 121.315 161.294 121.315C161.818 121.315 162.288 121.461 162.704 121.752C163.128 122.043 163.419 122.425 163.577 122.899L163.252 122.912C163.427 122.388 163.722 121.993 164.138 121.727C164.554 121.452 165.015 121.315 165.522 121.315C165.988 121.315 166.408 121.423 166.782 121.639C167.164 121.856 167.468 122.155 167.692 122.537C167.917 122.92 168.029 123.352 168.029 123.835V128.187H166.857V124.209C166.857 123.835 166.79 123.519 166.657 123.261C166.524 123.003 166.341 122.804 166.108 122.662C165.884 122.513 165.618 122.438 165.31 122.438C165.011 122.438 164.741 122.513 164.499 122.662C164.267 122.804 164.08 123.007 163.938 123.273C163.805 123.531 163.739 123.843 163.739 124.209V128.187H162.566V124.209C162.566 123.835 162.5 123.519 162.367 123.261C162.234 123.003 162.051 122.804 161.818 122.662C161.594 122.513 161.327 122.438 161.02 122.438C160.72 122.438 160.45 122.513 160.209 122.662C159.976 122.804 159.789 123.007 159.648 123.273C159.515 123.531 159.448 123.843 159.448 124.209V128.187H158.288ZM172.77 128.337C172.121 128.337 171.543 128.183 171.036 127.876C170.529 127.568 170.13 127.148 169.839 126.616C169.548 126.075 169.402 125.473 169.402 124.807C169.402 124.134 169.543 123.535 169.826 123.011C170.117 122.488 170.508 122.076 170.998 121.777C171.497 121.469 172.054 121.315 172.67 121.315C173.169 121.315 173.609 121.407 173.992 121.59C174.383 121.764 174.711 122.005 174.977 122.313C175.251 122.612 175.459 122.957 175.601 123.348C175.75 123.731 175.825 124.13 175.825 124.545C175.825 124.637 175.817 124.741 175.8 124.857C175.792 124.965 175.779 125.069 175.763 125.169H170.25V124.171H175.089L174.541 124.62C174.615 124.188 174.574 123.801 174.416 123.46C174.258 123.12 174.025 122.849 173.717 122.65C173.41 122.45 173.061 122.35 172.67 122.35C172.279 122.35 171.921 122.45 171.597 122.65C171.273 122.849 171.019 123.136 170.836 123.51C170.662 123.876 170.591 124.313 170.624 124.82C170.591 125.31 170.666 125.743 170.849 126.117C171.04 126.483 171.306 126.77 171.647 126.978C171.996 127.177 172.375 127.277 172.782 127.277C173.231 127.277 173.609 127.173 173.917 126.965C174.225 126.757 174.474 126.491 174.665 126.167L175.638 126.666C175.505 126.973 175.297 127.256 175.014 127.514C174.74 127.763 174.412 127.963 174.029 128.112C173.655 128.262 173.235 128.337 172.77 128.337ZM177.338 128.187V121.465H178.472V122.774L178.285 122.662C178.452 122.238 178.718 121.91 179.084 121.677C179.458 121.436 179.894 121.315 180.393 121.315C180.875 121.315 181.304 121.423 181.678 121.639C182.06 121.856 182.36 122.155 182.576 122.537C182.8 122.92 182.913 123.352 182.913 123.835V128.187H181.74V124.209C181.74 123.835 181.674 123.519 181.541 123.261C181.408 123.003 181.216 122.804 180.967 122.662C180.726 122.513 180.447 122.438 180.131 122.438C179.815 122.438 179.533 122.513 179.283 122.662C179.042 122.804 178.851 123.007 178.709 123.273C178.568 123.531 178.497 123.843 178.497 124.209V128.187H177.338ZM187.304 128.262C186.647 128.262 186.14 128.075 185.782 127.701C185.433 127.327 185.258 126.799 185.258 126.117V122.575H184.036V121.465H184.285C184.585 121.465 184.822 121.373 184.996 121.191C185.171 121.008 185.258 120.766 185.258 120.467V119.918H186.418V121.465H187.927V122.575H186.418V126.08C186.418 126.304 186.451 126.499 186.518 126.666C186.593 126.832 186.713 126.965 186.88 127.065C187.046 127.156 187.266 127.202 187.541 127.202C187.599 127.202 187.669 127.198 187.753 127.19C187.844 127.181 187.927 127.173 188.002 127.165V128.187C187.894 128.212 187.773 128.229 187.64 128.237C187.507 128.254 187.395 128.262 187.304 128.262ZM192.527 128.337C191.879 128.337 191.293 128.187 190.769 127.888C190.245 127.58 189.829 127.16 189.522 126.628C189.214 126.096 189.06 125.493 189.06 124.82C189.06 124.146 189.21 123.548 189.509 123.024C189.817 122.5 190.233 122.084 190.756 121.777C191.28 121.469 191.871 121.315 192.527 121.315C193.176 121.315 193.762 121.469 194.286 121.777C194.81 122.076 195.221 122.488 195.521 123.011C195.828 123.535 195.982 124.138 195.982 124.82C195.982 125.502 195.824 126.109 195.508 126.641C195.192 127.165 194.772 127.58 194.249 127.888C193.733 128.187 193.159 128.337 192.527 128.337ZM192.527 127.214C192.943 127.214 193.317 127.111 193.65 126.903C193.991 126.695 194.257 126.408 194.448 126.042C194.648 125.676 194.747 125.269 194.747 124.82C194.747 124.363 194.648 123.959 194.448 123.61C194.257 123.253 193.991 122.97 193.65 122.762C193.317 122.546 192.943 122.438 192.527 122.438C192.103 122.438 191.721 122.546 191.38 122.762C191.047 122.97 190.781 123.253 190.582 123.61C190.382 123.959 190.282 124.363 190.282 124.82C190.282 125.269 190.382 125.676 190.582 126.042C190.781 126.408 191.047 126.695 191.38 126.903C191.721 127.111 192.103 127.214 192.527 127.214ZM197.694 129.921V129.36C197.952 129.293 198.148 129.164 198.281 128.973C198.414 128.782 198.489 128.52 198.505 128.187H197.944V126.691H199.154V127.751C199.154 128.349 199.029 128.832 198.78 129.198C198.538 129.563 198.177 129.805 197.694 129.921ZM205.348 128.337C204.908 128.337 204.517 128.258 204.176 128.1C203.843 127.934 203.581 127.709 203.39 127.427C203.199 127.136 203.103 126.803 203.103 126.429C203.103 126.071 203.178 125.751 203.328 125.468C203.486 125.177 203.727 124.932 204.051 124.733C204.384 124.533 204.8 124.392 205.298 124.309L207.793 123.897V124.87L205.56 125.244C205.128 125.319 204.812 125.456 204.612 125.655C204.421 125.855 204.326 126.1 204.326 126.391C204.326 126.666 204.434 126.894 204.65 127.077C204.874 127.26 205.153 127.352 205.486 127.352C205.91 127.352 206.275 127.264 206.583 127.09C206.899 126.907 207.144 126.662 207.319 126.354C207.502 126.046 207.593 125.705 207.593 125.331V123.623C207.593 123.257 207.456 122.962 207.182 122.737C206.916 122.504 206.562 122.388 206.122 122.388C205.739 122.388 205.398 122.488 205.099 122.687C204.808 122.878 204.592 123.136 204.45 123.46L203.44 122.937C203.565 122.629 203.764 122.355 204.039 122.113C204.313 121.864 204.633 121.669 204.999 121.527C205.365 121.386 205.747 121.315 206.147 121.315C206.662 121.315 207.115 121.415 207.506 121.615C207.897 121.806 208.2 122.076 208.416 122.425C208.641 122.766 208.753 123.165 208.753 123.623V128.187H207.618V126.915L207.83 126.99C207.689 127.256 207.498 127.489 207.257 127.688C207.015 127.888 206.733 128.046 206.408 128.162C206.084 128.279 205.731 128.337 205.348 128.337ZM213.67 128.337C213.013 128.337 212.427 128.183 211.911 127.876C211.404 127.568 211.005 127.148 210.714 126.616C210.423 126.084 210.277 125.485 210.277 124.82C210.277 124.146 210.423 123.548 210.714 123.024C211.005 122.5 211.404 122.084 211.911 121.777C212.427 121.469 213.013 121.315 213.67 121.315C214.11 121.315 214.522 121.394 214.904 121.552C215.287 121.71 215.624 121.922 215.915 122.188C216.206 122.454 216.418 122.766 216.551 123.124L215.515 123.623C215.357 123.273 215.116 122.991 214.792 122.774C214.468 122.55 214.094 122.438 213.67 122.438C213.262 122.438 212.892 122.542 212.56 122.75C212.235 122.957 211.978 123.24 211.786 123.598C211.595 123.955 211.499 124.367 211.499 124.832C211.499 125.281 211.595 125.689 211.786 126.055C211.978 126.412 212.235 126.695 212.56 126.903C212.892 127.111 213.262 127.214 213.67 127.214C214.094 127.214 214.468 127.106 214.792 126.89C215.116 126.666 215.357 126.371 215.515 126.005L216.551 126.529C216.418 126.878 216.206 127.19 215.915 127.464C215.624 127.73 215.287 127.942 214.904 128.1C214.522 128.258 214.11 128.337 213.67 128.337ZM221.16 128.337C220.511 128.337 219.933 128.183 219.426 127.876C218.919 127.568 218.52 127.148 218.229 126.616C217.938 126.075 217.792 125.473 217.792 124.807C217.792 124.134 217.933 123.535 218.216 123.011C218.507 122.488 218.898 122.076 219.389 121.777C219.887 121.469 220.444 121.315 221.06 121.315C221.559 121.315 221.999 121.407 222.382 121.59C222.773 121.764 223.101 122.005 223.367 122.313C223.641 122.612 223.849 122.957 223.991 123.348C224.14 123.731 224.215 124.13 224.215 124.545C224.215 124.637 224.207 124.741 224.19 124.857C224.182 124.965 224.169 125.069 224.153 125.169H218.64V124.171H223.479L222.931 124.62C223.005 124.188 222.964 123.801 222.806 123.46C222.648 123.12 222.415 122.849 222.107 122.65C221.8 122.45 221.451 122.35 221.06 122.35C220.669 122.35 220.311 122.45 219.987 122.65C219.663 122.849 219.409 123.136 219.226 123.51C219.052 123.876 218.981 124.313 219.014 124.82C218.981 125.31 219.056 125.743 219.239 126.117C219.43 126.483 219.696 126.77 220.037 126.978C220.386 127.177 220.765 127.277 221.172 127.277C221.621 127.277 221.999 127.173 222.307 126.965C222.615 126.757 222.864 126.491 223.055 126.167L224.028 126.666C223.895 126.973 223.687 127.256 223.405 127.514C223.13 127.763 222.802 127.963 222.419 128.112C222.045 128.262 221.625 128.337 221.16 128.337ZM228.135 128.337C227.461 128.337 226.875 128.171 226.376 127.838C225.877 127.506 225.524 127.057 225.316 126.491L226.239 126.042C226.43 126.441 226.692 126.757 227.025 126.99C227.357 127.223 227.727 127.339 228.135 127.339C228.5 127.339 228.804 127.252 229.045 127.077C229.286 126.903 229.407 126.674 229.407 126.391C229.407 126.192 229.349 126.034 229.232 125.917C229.124 125.793 228.991 125.697 228.833 125.631C228.675 125.556 228.53 125.502 228.397 125.468L227.386 125.182C226.779 125.007 226.335 124.758 226.052 124.433C225.777 124.109 225.64 123.731 225.64 123.298C225.64 122.899 225.74 122.554 225.94 122.263C226.147 121.964 226.426 121.731 226.775 121.565C227.133 121.398 227.532 121.315 227.972 121.315C228.563 121.315 229.091 121.465 229.556 121.764C230.03 122.064 230.367 122.483 230.567 123.024L229.619 123.46C229.469 123.111 229.245 122.837 228.945 122.637C228.646 122.429 228.309 122.325 227.935 122.325C227.594 122.325 227.324 122.413 227.124 122.587C226.925 122.754 226.825 122.966 226.825 123.223C226.825 123.415 226.875 123.573 226.975 123.697C227.075 123.814 227.195 123.905 227.336 123.972C227.478 124.03 227.615 124.08 227.748 124.121L228.846 124.446C229.394 124.604 229.818 124.849 230.118 125.182C230.425 125.514 230.579 125.913 230.579 126.379C230.579 126.753 230.475 127.09 230.267 127.389C230.059 127.688 229.773 127.921 229.407 128.088C229.041 128.254 228.617 128.337 228.135 128.337ZM234.505 128.337C233.831 128.337 233.245 128.171 232.746 127.838C232.247 127.506 231.894 127.057 231.686 126.491L232.609 126.042C232.8 126.441 233.062 126.757 233.395 126.99C233.727 127.223 234.097 127.339 234.505 127.339C234.87 127.339 235.174 127.252 235.415 127.077C235.656 126.903 235.777 126.674 235.777 126.391C235.777 126.192 235.719 126.034 235.602 125.917C235.494 125.793 235.361 125.697 235.203 125.631C235.045 125.556 234.9 125.502 234.767 125.468L233.756 125.182C233.149 125.007 232.704 124.758 232.422 124.433C232.147 124.109 232.01 123.731 232.01 123.298C232.01 122.899 232.11 122.554 232.31 122.263C232.517 121.964 232.796 121.731 233.145 121.565C233.503 121.398 233.902 121.315 234.342 121.315C234.933 121.315 235.461 121.465 235.926 121.764C236.4 122.064 236.737 122.483 236.937 123.024L235.989 123.46C235.839 123.111 235.615 122.837 235.315 122.637C235.016 122.429 234.679 122.325 234.305 122.325C233.964 122.325 233.694 122.413 233.494 122.587C233.295 122.754 233.195 122.966 233.195 123.223C233.195 123.415 233.245 123.573 233.345 123.697C233.445 123.814 233.565 123.905 233.706 123.972C233.848 124.03 233.985 124.08 234.118 124.121L235.216 124.446C235.764 124.604 236.188 124.849 236.488 125.182C236.795 125.514 236.949 125.913 236.949 126.379C236.949 126.753 236.845 127.09 236.637 127.389C236.429 127.688 236.143 127.921 235.777 128.088C235.411 128.254 234.987 128.337 234.505 128.337ZM241.561 128.337C240.912 128.337 240.334 128.183 239.827 127.876C239.32 127.568 238.921 127.148 238.63 126.616C238.339 126.075 238.193 125.473 238.193 124.807C238.193 124.134 238.334 123.535 238.617 123.011C238.908 122.488 239.299 122.076 239.79 121.777C240.288 121.469 240.846 121.315 241.461 121.315C241.96 121.315 242.4 121.407 242.783 121.59C243.174 121.764 243.502 122.005 243.768 122.313C244.043 122.612 244.25 122.957 244.392 123.348C244.541 123.731 244.616 124.13 244.616 124.545C244.616 124.637 244.608 124.741 244.591 124.857C244.583 124.965 244.571 125.069 244.554 125.169H239.041V124.171H243.88L243.332 124.62C243.406 124.188 243.365 123.801 243.207 123.46C243.049 123.12 242.816 122.849 242.508 122.65C242.201 122.45 241.852 122.35 241.461 122.35C241.07 122.35 240.712 122.45 240.388 122.65C240.064 122.849 239.81 123.136 239.627 123.51C239.453 123.876 239.382 124.313 239.415 124.82C239.382 125.31 239.457 125.743 239.64 126.117C239.831 126.483 240.097 126.77 240.438 126.978C240.787 127.177 241.166 127.277 241.573 127.277C242.022 127.277 242.4 127.173 242.708 126.965C243.016 126.757 243.265 126.491 243.456 126.167L244.429 126.666C244.296 126.973 244.088 127.256 243.806 127.514C243.531 127.763 243.203 127.963 242.82 128.112C242.446 128.262 242.026 128.337 241.561 128.337ZM34.745 147.337C34.0715 147.337 33.4854 147.171 32.9865 146.838C32.4876 146.506 32.1342 146.057 31.9264 145.491L32.8493 145.042C33.0405 145.441 33.3024 145.757 33.635 145.99C33.9676 146.223 34.3376 146.339 34.745 146.339C35.1109 146.339 35.4144 146.252 35.6555 146.077C35.8966 145.903 36.0172 145.674 36.0172 145.391C36.0172 145.192 35.959 145.034 35.8426 144.917C35.7345 144.793 35.6014 144.697 35.4435 144.631C35.2855 144.556 35.14 144.502 35.0069 144.468L33.9967 144.182C33.3897 144.007 32.9449 143.758 32.6622 143.433C32.3878 143.109 32.2506 142.731 32.2506 142.298C32.2506 141.899 32.3504 141.554 32.55 141.263C32.7578 140.964 33.0364 140.731 33.3856 140.565C33.7431 140.398 34.1422 140.315 34.5829 140.315C35.1732 140.315 35.7012 140.465 36.1668 140.764C36.6408 141.064 36.9775 141.483 37.1771 142.024L36.2292 142.46C36.0795 142.111 35.855 141.837 35.5557 141.637C35.2564 141.429 34.9196 141.325 34.5455 141.325C34.2046 141.325 33.9343 141.413 33.7348 141.587C33.5352 141.754 33.4355 141.966 33.4355 142.223C33.4355 142.415 33.4854 142.573 33.5851 142.697C33.6849 142.814 33.8055 142.905 33.9468 142.972C34.0882 143.03 34.2254 143.08 34.3584 143.121L35.4559 143.446C36.0047 143.604 36.4288 143.849 36.7281 144.182C37.0357 144.514 37.1895 144.913 37.1895 145.379C37.1895 145.753 37.0856 146.09 36.8777 146.389C36.6699 146.688 36.383 146.921 36.0172 147.088C35.6513 147.254 35.2273 147.337 34.745 147.337ZM41.0901 147.337C40.6078 147.337 40.1713 147.225 39.7805 147C39.398 146.776 39.0987 146.464 38.8825 146.065C38.6747 145.657 38.5707 145.192 38.5707 144.668V140.465H39.7306V144.543C39.7306 144.876 39.7971 145.167 39.9302 145.416C40.0715 145.666 40.2628 145.861 40.5039 146.002C40.7533 146.144 41.036 146.214 41.352 146.214C41.668 146.214 41.9465 146.144 42.1876 146.002C42.4371 145.861 42.6283 145.657 42.7613 145.391C42.9027 145.125 42.9734 144.809 42.9734 144.443V140.465H44.1457V147.187H43.0108V145.878L43.1979 145.99C43.0399 146.414 42.7696 146.747 42.3872 146.988C42.013 147.221 41.5806 147.337 41.0901 147.337ZM47.9133 147.337C47.4726 147.337 47.0818 147.258 46.7409 147.1C46.4083 146.934 46.1464 146.709 45.9551 146.427C45.7639 146.136 45.6683 145.803 45.6683 145.429C45.6683 145.071 45.7431 144.751 45.8928 144.468C46.0508 144.177 46.2919 143.932 46.6162 143.733C46.9488 143.533 47.3645 143.392 47.8634 143.309L50.3578 142.897V143.87L48.1253 144.244C47.6929 144.319 47.377 144.456 47.1774 144.655C46.9862 144.855 46.8906 145.1 46.8906 145.391C46.8906 145.666 46.9986 145.894 47.2148 146.077C47.4393 146.26 47.7179 146.352 48.0504 146.352C48.4745 146.352 48.8403 146.264 49.148 146.09C49.4639 145.907 49.7092 145.662 49.8838 145.354C50.0668 145.046 50.1582 144.705 50.1582 144.331V142.623C50.1582 142.257 50.021 141.962 49.7466 141.737C49.4806 141.504 49.1272 141.388 48.6865 141.388C48.304 141.388 47.9631 141.488 47.6638 141.687C47.3728 141.878 47.1566 142.136 47.0153 142.46L46.005 141.937C46.1298 141.629 46.3293 141.355 46.6037 141.113C46.8781 140.864 47.1982 140.669 47.564 140.527C47.9299 140.386 48.3124 140.315 48.7115 140.315C49.227 140.315 49.6801 140.415 50.0709 140.615C50.4617 140.806 50.7652 141.076 50.9814 141.425C51.2059 141.766 51.3181 142.165 51.3181 142.623V147.187H50.1832V145.915L50.3952 145.99C50.2538 146.256 50.0626 146.489 49.8215 146.688C49.5804 146.888 49.2977 147.046 48.9734 147.162C48.6491 147.279 48.2957 147.337 47.9133 147.337ZM58.3904 147.337C57.7335 147.337 57.1473 147.183 56.6318 146.876C56.1246 146.568 55.7255 146.148 55.4345 145.616C55.1435 145.084 54.998 144.485 54.998 143.82C54.998 143.146 55.1435 142.548 55.4345 142.024C55.7255 141.5 56.1246 141.084 56.6318 140.777C57.1473 140.469 57.7335 140.315 58.3904 140.315C58.831 140.315 59.2426 140.394 59.6251 140.552C60.0076 140.71 60.3443 140.922 60.6353 141.188C60.9263 141.454 61.1384 141.766 61.2714 142.124L60.2362 142.623C60.0782 142.273 59.8371 141.991 59.5128 141.774C59.1886 141.55 58.8144 141.438 58.3904 141.438C57.9829 141.438 57.6129 141.542 57.2803 141.75C56.9561 141.957 56.6983 142.24 56.5071 142.598C56.3158 142.955 56.2202 143.367 56.2202 143.832C56.2202 144.281 56.3158 144.689 56.5071 145.055C56.6983 145.412 56.9561 145.695 57.2803 145.903C57.6129 146.111 57.9829 146.214 58.3904 146.214C58.8144 146.214 59.1886 146.106 59.5128 145.89C59.8371 145.666 60.0782 145.371 60.2362 145.005L61.2714 145.529C61.1384 145.878 60.9263 146.19 60.6353 146.464C60.3443 146.73 60.0076 146.942 59.6251 147.1C59.2426 147.258 58.831 147.337 58.3904 147.337ZM65.9801 147.337C65.3315 147.337 64.7453 147.187 64.2215 146.888C63.6977 146.58 63.282 146.16 62.9743 145.628C62.6667 145.096 62.5128 144.493 62.5128 143.82C62.5128 143.146 62.6625 142.548 62.9618 142.024C63.2695 141.5 63.6852 141.084 64.209 140.777C64.7329 140.469 65.3232 140.315 65.9801 140.315C66.6286 140.315 67.2148 140.469 67.7386 140.777C68.2625 141.076 68.674 141.488 68.9734 142.011C69.281 142.535 69.4348 143.138 69.4348 143.82C69.4348 144.502 69.2768 145.109 68.9609 145.641C68.6449 146.165 68.225 146.58 67.7012 146.888C67.1857 147.187 66.612 147.337 65.9801 147.337ZM65.9801 146.214C66.3958 146.214 66.77 146.111 67.1026 145.903C67.4435 145.695 67.7095 145.408 67.9008 145.042C68.1003 144.676 68.2001 144.269 68.2001 143.82C68.2001 143.363 68.1003 142.959 67.9008 142.61C67.7095 142.253 67.4435 141.97 67.1026 141.762C66.77 141.546 66.3958 141.438 65.9801 141.438C65.556 141.438 65.1735 141.546 64.8326 141.762C64.5001 141.97 64.234 142.253 64.0344 142.61C63.8349 142.959 63.7351 143.363 63.7351 143.82C63.7351 144.269 63.8349 144.676 64.0344 145.042C64.234 145.408 64.5001 145.695 64.8326 145.903C65.1735 146.111 65.556 146.214 65.9801 146.214ZM70.9476 147.187V140.465H72.0826V141.774L71.8955 141.662C72.0618 141.238 72.3279 140.91 72.6937 140.677C73.0679 140.436 73.5044 140.315 74.0033 140.315C74.4855 140.315 74.9137 140.423 75.2879 140.639C75.6704 140.856 75.9697 141.155 76.1859 141.537C76.4104 141.92 76.5226 142.352 76.5226 142.835V147.187H75.3503V143.209C75.3503 142.835 75.2838 142.519 75.1507 142.261C75.0177 142.003 74.8264 141.804 74.577 141.662C74.3359 141.513 74.0573 141.438 73.7414 141.438C73.4254 141.438 73.1427 141.513 72.8933 141.662C72.6522 141.804 72.4609 142.007 72.3196 142.273C72.1782 142.531 72.1075 142.843 72.1075 143.209V147.187H70.9476ZM80.9138 147.262C80.2569 147.262 79.7497 147.075 79.3922 146.701C79.043 146.327 78.8684 145.799 78.8684 145.117V141.575H77.6461V140.465H77.8955C78.1949 140.465 78.4318 140.373 78.6064 140.191C78.7811 140.008 78.8684 139.766 78.8684 139.467V138.918H80.0283V140.465H81.5374V141.575H80.0283V145.08C80.0283 145.304 80.0615 145.499 80.128 145.666C80.2029 145.832 80.3234 145.965 80.4897 146.065C80.656 146.156 80.8764 146.202 81.1507 146.202C81.2089 146.202 81.2796 146.198 81.3628 146.19C81.4542 146.181 81.5374 146.173 81.6122 146.165V147.187C81.5041 147.212 81.3836 147.229 81.2505 147.237C81.1175 147.254 81.0052 147.262 80.9138 147.262ZM85.0127 147.337C84.572 147.337 84.1812 147.258 83.8403 147.1C83.5077 146.934 83.2458 146.709 83.0546 146.427C82.8633 146.136 82.7677 145.803 82.7677 145.429C82.7677 145.071 82.8425 144.751 82.9922 144.468C83.1502 144.177 83.3913 143.932 83.7156 143.733C84.0482 143.533 84.4639 143.392 84.9628 143.309L87.4572 142.897V143.87L85.2247 144.244C84.7923 144.319 84.4764 144.456 84.2768 144.655C84.0856 144.855 83.99 145.1 83.99 145.391C83.99 145.666 84.0981 145.894 84.3142 146.077C84.5387 146.26 84.8173 146.352 85.1499 146.352C85.5739 146.352 85.9398 146.264 86.2474 146.09C86.5634 145.907 86.8087 145.662 86.9833 145.354C87.1662 145.046 87.2576 144.705 87.2576 144.331V142.623C87.2576 142.257 87.1205 141.962 86.8461 141.737C86.58 141.504 86.2266 141.388 85.7859 141.388C85.4035 141.388 85.0626 141.488 84.7632 141.687C84.4722 141.878 84.256 142.136 84.1147 142.46L83.1045 141.937C83.2292 141.629 83.4287 141.355 83.7031 141.113C83.9775 140.864 84.2976 140.669 84.6635 140.527C85.0293 140.386 85.4118 140.315 85.8109 140.315C86.3264 140.315 86.7796 140.415 87.1703 140.615C87.5611 140.806 87.8646 141.076 88.0808 141.425C88.3053 141.766 88.4175 142.165 88.4175 142.623V147.187H87.2826V145.915L87.4946 145.99C87.3533 146.256 87.162 146.489 86.9209 146.688C86.6798 146.888 86.3971 147.046 86.0728 147.162C85.7485 147.279 85.3952 147.337 85.0127 147.337ZM95.4648 147.337C94.8163 147.337 94.2384 147.183 93.7312 146.876C93.224 146.568 92.8249 146.148 92.5339 145.616C92.2429 145.075 92.0974 144.473 92.0974 143.807C92.0974 143.134 92.2387 142.535 92.5214 142.011C92.8124 141.488 93.2032 141.076 93.6938 140.777C94.1927 140.469 94.7498 140.315 95.3651 140.315C95.8639 140.315 96.3046 140.407 96.6871 140.59C97.0779 140.764 97.4063 141.005 97.6724 141.313C97.9468 141.612 98.1546 141.957 98.296 142.348C98.4456 142.731 98.5205 143.13 98.5205 143.545C98.5205 143.637 98.5122 143.741 98.4955 143.857C98.4872 143.965 98.4748 144.069 98.4581 144.169H92.9455V143.171H97.7846L97.2359 143.62C97.3107 143.188 97.2691 142.801 97.1111 142.46C96.9532 142.12 96.7204 141.849 96.4127 141.65C96.1051 141.45 95.7558 141.35 95.3651 141.35C94.9743 141.35 94.6167 141.45 94.2925 141.65C93.9682 141.849 93.7146 142.136 93.5317 142.51C93.3571 142.876 93.2864 143.313 93.3196 143.82C93.2864 144.31 93.3612 144.743 93.5441 145.117C93.7354 145.483 94.0014 145.77 94.3423 145.978C94.6916 146.177 95.0699 146.277 95.4773 146.277C95.9263 146.277 96.3046 146.173 96.6123 145.965C96.9199 145.757 97.1693 145.491 97.3606 145.167L98.3334 145.666C98.2004 145.973 97.9925 146.256 97.7098 146.514C97.4354 146.763 97.107 146.963 96.7245 147.112C96.3503 147.262 95.9305 147.337 95.4648 147.337ZM104.596 147.337C103.922 147.337 103.336 147.171 102.837 146.838C102.338 146.506 101.985 146.057 101.777 145.491L102.7 145.042C102.891 145.441 103.153 145.757 103.486 145.99C103.818 146.223 104.188 146.339 104.596 146.339C104.962 146.339 105.265 146.252 105.506 146.077C105.747 145.903 105.868 145.674 105.868 145.391C105.868 145.192 105.81 145.034 105.693 144.917C105.585 144.793 105.452 144.697 105.294 144.631C105.136 144.556 104.991 144.502 104.858 144.468L103.847 144.182C103.24 144.007 102.796 143.758 102.513 143.433C102.239 143.109 102.101 142.731 102.101 142.298C102.101 141.899 102.201 141.554 102.401 141.263C102.609 140.964 102.887 140.731 103.236 140.565C103.594 140.398 103.993 140.315 104.434 140.315C105.024 140.315 105.552 140.465 106.018 140.764C106.491 141.064 106.828 141.483 107.028 142.024L106.08 142.46C105.93 142.111 105.706 141.837 105.406 141.637C105.107 141.429 104.77 141.325 104.396 141.325C104.055 141.325 103.785 141.413 103.585 141.587C103.386 141.754 103.286 141.966 103.286 142.223C103.286 142.415 103.336 142.573 103.436 142.697C103.536 142.814 103.656 142.905 103.798 142.972C103.939 143.03 104.076 143.08 104.209 143.121L105.307 143.446C105.855 143.604 106.279 143.849 106.579 144.182C106.886 144.514 107.04 144.913 107.04 145.379C107.04 145.753 106.936 146.09 106.728 146.389C106.521 146.688 106.234 146.921 105.868 147.088C105.502 147.254 105.078 147.337 104.596 147.337ZM111.652 147.337C111.003 147.337 110.425 147.183 109.918 146.876C109.411 146.568 109.012 146.148 108.721 145.616C108.43 145.075 108.284 144.473 108.284 143.807C108.284 143.134 108.426 142.535 108.708 142.011C108.999 141.488 109.39 141.076 109.881 140.777C110.38 140.469 110.937 140.315 111.552 140.315C112.051 140.315 112.491 140.407 112.874 140.59C113.265 140.764 113.593 141.005 113.859 141.313C114.134 141.612 114.341 141.957 114.483 142.348C114.632 142.731 114.707 143.13 114.707 143.545C114.707 143.637 114.699 143.741 114.682 143.857C114.674 143.965 114.662 144.069 114.645 144.169H109.132V143.171H113.971L113.423 143.62C113.498 143.188 113.456 142.801 113.298 142.46C113.14 142.12 112.907 141.849 112.6 141.65C112.292 141.45 111.943 141.35 111.552 141.35C111.161 141.35 110.804 141.45 110.479 141.65C110.155 141.849 109.901 142.136 109.719 142.51C109.544 142.876 109.473 143.313 109.506 143.82C109.473 144.31 109.548 144.743 109.731 145.117C109.922 145.483 110.188 145.77 110.529 145.978C110.878 146.177 111.257 146.277 111.664 146.277C112.113 146.277 112.491 146.173 112.799 145.965C113.107 145.757 113.356 145.491 113.547 145.167L114.52 145.666C114.387 145.973 114.179 146.256 113.897 146.514C113.622 146.763 113.294 146.963 112.911 147.112C112.537 147.262 112.117 147.337 111.652 147.337ZM116.22 147.187V137.746H117.38V147.187H116.22ZM122.272 147.337C121.624 147.337 121.046 147.183 120.539 146.876C120.032 146.568 119.632 146.148 119.341 145.616C119.05 145.075 118.905 144.473 118.905 143.807C118.905 143.134 119.046 142.535 119.329 142.011C119.62 141.488 120.011 141.076 120.501 140.777C121 140.469 121.557 140.315 122.173 140.315C122.672 140.315 123.112 140.407 123.495 140.59C123.885 140.764 124.214 141.005 124.48 141.313C124.754 141.612 124.962 141.957 125.104 142.348C125.253 142.731 125.328 143.13 125.328 143.545C125.328 143.637 125.32 143.741 125.303 143.857C125.295 143.965 125.282 144.069 125.266 144.169H119.753V143.171H124.592L124.043 143.62C124.118 143.188 124.077 142.801 123.919 142.46C123.761 142.12 123.528 141.849 123.22 141.65C122.913 141.45 122.563 141.35 122.173 141.35C121.782 141.35 121.424 141.45 121.1 141.65C120.776 141.849 120.522 142.136 120.339 142.51C120.165 142.876 120.094 143.313 120.127 143.82C120.094 144.31 120.169 144.743 120.352 145.117C120.543 145.483 120.809 145.77 121.15 145.978C121.499 146.177 121.877 146.277 122.285 146.277C122.734 146.277 123.112 146.173 123.42 145.965C123.727 145.757 123.977 145.491 124.168 145.167L125.141 145.666C125.008 145.973 124.8 146.256 124.517 146.514C124.243 146.763 123.915 146.963 123.532 147.112C123.158 147.262 122.738 147.337 122.272 147.337ZM129.958 147.337C129.302 147.337 128.715 147.183 128.2 146.876C127.693 146.568 127.294 146.148 127.003 145.616C126.711 145.084 126.566 144.485 126.566 143.82C126.566 143.146 126.711 142.548 127.003 142.024C127.294 141.5 127.693 141.084 128.2 140.777C128.715 140.469 129.302 140.315 129.958 140.315C130.399 140.315 130.811 140.394 131.193 140.552C131.576 140.71 131.912 140.922 132.203 141.188C132.494 141.454 132.706 141.766 132.839 142.124L131.804 142.623C131.646 142.273 131.405 141.991 131.081 141.774C130.757 141.55 130.382 141.438 129.958 141.438C129.551 141.438 129.181 141.542 128.848 141.75C128.524 141.957 128.266 142.24 128.075 142.598C127.884 142.955 127.788 143.367 127.788 143.832C127.788 144.281 127.884 144.689 128.075 145.055C128.266 145.412 128.524 145.695 128.848 145.903C129.181 146.111 129.551 146.214 129.958 146.214C130.382 146.214 130.757 146.106 131.081 145.89C131.405 145.666 131.646 145.371 131.804 145.005L132.839 145.529C132.706 145.878 132.494 146.19 132.203 146.464C131.912 146.73 131.576 146.942 131.193 147.1C130.811 147.258 130.399 147.337 129.958 147.337ZM134.355 147.187V140.465H135.515V147.187H134.355ZM134.355 139.392V137.896H135.515V139.392H134.355ZM140.508 147.337C139.859 147.337 139.273 147.187 138.749 146.888C138.225 146.58 137.81 146.16 137.502 145.628C137.194 145.096 137.041 144.493 137.041 143.82C137.041 143.146 137.19 142.548 137.49 142.024C137.797 141.5 138.213 141.084 138.737 140.777C139.261 140.469 139.851 140.315 140.508 140.315C141.156 140.315 141.743 140.469 142.266 140.777C142.79 141.076 143.202 141.488 143.501 142.011C143.809 142.535 143.963 143.138 143.963 143.82C143.963 144.502 143.805 145.109 143.489 145.641C143.173 146.165 142.753 146.58 142.229 146.888C141.713 147.187 141.14 147.337 140.508 147.337ZM140.508 146.214C140.924 146.214 141.298 146.111 141.63 145.903C141.971 145.695 142.237 145.408 142.428 145.042C142.628 144.676 142.728 144.269 142.728 143.82C142.728 143.363 142.628 142.959 142.428 142.61C142.237 142.253 141.971 141.97 141.63 141.762C141.298 141.546 140.924 141.438 140.508 141.438C140.084 141.438 139.701 141.546 139.36 141.762C139.028 141.97 138.762 142.253 138.562 142.61C138.363 142.959 138.263 143.363 138.263 143.82C138.263 144.269 138.363 144.676 138.562 145.042C138.762 145.408 139.028 145.695 139.36 145.903C139.701 146.111 140.084 146.214 140.508 146.214ZM145.475 147.187V140.465H146.61V141.774L146.423 141.662C146.59 141.238 146.856 140.91 147.221 140.677C147.596 140.436 148.032 140.315 148.531 140.315C149.013 140.315 149.441 140.423 149.816 140.639C150.198 140.856 150.497 141.155 150.714 141.537C150.938 141.92 151.05 142.352 151.05 142.835V147.187H149.878V143.209C149.878 142.835 149.811 142.519 149.678 142.261C149.545 142.003 149.354 141.804 149.105 141.662C148.864 141.513 148.585 141.438 148.269 141.438C147.953 141.438 147.67 141.513 147.421 141.662C147.18 141.804 146.989 142.007 146.847 142.273C146.706 142.531 146.635 142.843 146.635 143.209V147.187H145.475ZM155.803 147.337C155.155 147.337 154.577 147.183 154.07 146.876C153.562 146.568 153.163 146.148 152.872 145.616C152.581 145.075 152.436 144.473 152.436 143.807C152.436 143.134 152.577 142.535 152.86 142.011C153.151 141.488 153.542 141.076 154.032 140.777C154.531 140.469 155.088 140.315 155.703 140.315C156.202 140.315 156.643 140.407 157.025 140.59C157.416 140.764 157.745 141.005 158.011 141.313C158.285 141.612 158.493 141.957 158.634 142.348C158.784 142.731 158.859 143.13 158.859 143.545C158.859 143.637 158.851 143.741 158.834 143.857C158.826 143.965 158.813 144.069 158.796 144.169H153.284V143.171H158.123L157.574 143.62C157.649 143.188 157.607 142.801 157.449 142.46C157.291 142.12 157.059 141.849 156.751 141.65C156.443 141.45 156.094 141.35 155.703 141.35C155.313 141.35 154.955 141.45 154.631 141.65C154.307 141.849 154.053 142.136 153.87 142.51C153.695 142.876 153.625 143.313 153.658 143.82C153.625 144.31 153.7 144.743 153.882 145.117C154.074 145.483 154.34 145.77 154.681 145.978C155.03 146.177 155.408 146.277 155.816 146.277C156.265 146.277 156.643 146.173 156.951 145.965C157.258 145.757 157.508 145.491 157.699 145.167L158.672 145.666C158.539 145.973 158.331 146.256 158.048 146.514C157.774 146.763 157.445 146.963 157.063 147.112C156.689 147.262 156.269 147.337 155.803 147.337ZM163.238 147.187V141.575H161.953V140.465H163.238V139.991C163.238 139.509 163.342 139.101 163.55 138.769C163.766 138.436 164.049 138.183 164.398 138.008C164.755 137.833 165.15 137.746 165.583 137.746C165.674 137.746 165.774 137.754 165.882 137.771C165.998 137.779 166.094 137.792 166.169 137.808V138.844C166.102 138.827 166.023 138.819 165.932 138.819C165.84 138.81 165.77 138.806 165.72 138.806C165.337 138.806 165.021 138.898 164.772 139.08C164.531 139.263 164.41 139.567 164.41 139.991V140.465H166.007V141.575H164.41V147.187H163.238ZM169.175 147.337C168.734 147.337 168.343 147.258 168.002 147.1C167.67 146.934 167.408 146.709 167.216 146.427C167.025 146.136 166.93 145.803 166.93 145.429C166.93 145.071 167.004 144.751 167.154 144.468C167.312 144.177 167.553 143.932 167.877 143.733C168.21 143.533 168.626 143.392 169.125 143.309L171.619 142.897V143.87L169.387 144.244C168.954 144.319 168.638 144.456 168.439 144.655C168.247 144.855 168.152 145.1 168.152 145.391C168.152 145.666 168.26 145.894 168.476 146.077C168.701 146.26 168.979 146.352 169.312 146.352C169.736 146.352 170.102 146.264 170.409 146.09C170.725 145.907 170.971 145.662 171.145 145.354C171.328 145.046 171.42 144.705 171.42 144.331V142.623C171.42 142.257 171.282 141.962 171.008 141.737C170.742 141.504 170.388 141.388 169.948 141.388C169.565 141.388 169.224 141.488 168.925 141.687C168.634 141.878 168.418 142.136 168.277 142.46L167.266 141.937C167.391 141.629 167.591 141.355 167.865 141.113C168.139 140.864 168.459 140.669 168.825 140.527C169.191 140.386 169.574 140.315 169.973 140.315C170.488 140.315 170.941 140.415 171.332 140.615C171.723 140.806 172.026 141.076 172.243 141.425C172.467 141.766 172.579 142.165 172.579 142.623V147.187H171.444V145.915L171.656 145.99C171.515 146.256 171.324 146.489 171.083 146.688C170.842 146.888 170.559 147.046 170.235 147.162C169.91 147.279 169.557 147.337 169.175 147.337ZM176.987 147.262C176.331 147.262 175.823 147.075 175.466 146.701C175.117 146.327 174.942 145.799 174.942 145.117V141.575H173.72V140.465H173.969C174.269 140.465 174.505 140.373 174.68 140.191C174.855 140.008 174.942 139.766 174.942 139.467V138.918H176.102V140.465H177.611V141.575H176.102V145.08C176.102 145.304 176.135 145.499 176.202 145.666C176.277 145.832 176.397 145.965 176.563 146.065C176.73 146.156 176.95 146.202 177.224 146.202C177.283 146.202 177.353 146.198 177.436 146.19C177.528 146.181 177.611 146.173 177.686 146.165V147.187C177.578 147.212 177.457 147.229 177.324 147.237C177.191 147.254 177.079 147.262 176.987 147.262ZM181.583 147.337C181.101 147.337 180.664 147.225 180.274 147C179.891 146.776 179.592 146.464 179.376 146.065C179.168 145.657 179.064 145.192 179.064 144.668V140.465H180.224V144.543C180.224 144.876 180.29 145.167 180.423 145.416C180.565 145.666 180.756 145.861 180.997 146.002C181.246 146.144 181.529 146.214 181.845 146.214C182.161 146.214 182.44 146.144 182.681 146.002C182.93 145.861 183.121 145.657 183.254 145.391C183.396 145.125 183.466 144.809 183.466 144.443V140.465H184.639V147.187H183.504V145.878L183.691 145.99C183.533 146.414 183.263 146.747 182.88 146.988C182.506 147.221 182.074 147.337 181.583 147.337ZM186.436 147.187V140.465H187.571V141.7L187.446 141.525C187.604 141.143 187.845 140.86 188.169 140.677C188.494 140.486 188.889 140.39 189.354 140.39H189.766V141.488H189.18C188.706 141.488 188.323 141.637 188.032 141.937C187.741 142.228 187.596 142.643 187.596 143.184V147.187H186.436ZM192.767 147.337C192.326 147.337 191.935 147.258 191.594 147.1C191.262 146.934 191 146.709 190.809 146.427C190.617 146.136 190.522 145.803 190.522 145.429C190.522 145.071 190.597 144.751 190.746 144.468C190.904 144.177 191.145 143.932 191.47 143.733C191.802 143.533 192.218 143.392 192.717 143.309L195.211 142.897V143.87L192.979 144.244C192.546 144.319 192.23 144.456 192.031 144.655C191.84 144.855 191.744 145.1 191.744 145.391C191.744 145.666 191.852 145.894 192.068 146.077C192.293 146.26 192.571 146.352 192.904 146.352C193.328 146.352 193.694 146.264 194.001 146.09C194.317 145.907 194.563 145.662 194.737 145.354C194.92 145.046 195.012 144.705 195.012 144.331V142.623C195.012 142.257 194.874 141.962 194.6 141.737C194.334 141.504 193.981 141.388 193.54 141.388C193.157 141.388 192.817 141.488 192.517 141.687C192.226 141.878 192.01 142.136 191.869 142.46L190.858 141.937C190.983 141.629 191.183 141.355 191.457 141.113C191.731 140.864 192.052 140.669 192.417 140.527C192.783 140.386 193.166 140.315 193.565 140.315C194.08 140.315 194.534 140.415 194.924 140.615C195.315 140.806 195.619 141.076 195.835 141.425C196.059 141.766 196.172 142.165 196.172 142.623V147.187H195.037V145.915L195.249 145.99C195.107 146.256 194.916 146.489 194.675 146.688C194.434 146.888 194.151 147.046 193.827 147.162C193.503 147.279 193.149 147.337 192.767 147.337ZM197.97 147.187V140.465H199.105V141.837L198.943 141.625C199.109 141.201 199.375 140.876 199.741 140.652C200.107 140.427 200.518 140.315 200.976 140.315C201.5 140.315 201.969 140.461 202.385 140.752C202.809 141.043 203.1 141.425 203.258 141.899L202.934 141.912C203.108 141.388 203.404 140.993 203.819 140.727C204.235 140.452 204.697 140.315 205.204 140.315C205.669 140.315 206.089 140.423 206.463 140.639C206.846 140.856 207.149 141.155 207.374 141.537C207.598 141.92 207.711 142.352 207.711 142.835V147.187H206.538V143.209C206.538 142.835 206.472 142.519 206.339 142.261C206.206 142.003 206.023 141.804 205.79 141.662C205.565 141.513 205.299 141.438 204.992 141.438C204.692 141.438 204.422 141.513 204.181 141.662C203.948 141.804 203.761 142.007 203.62 142.273C203.487 142.531 203.42 142.843 203.42 143.209V147.187H202.248V143.209C202.248 142.835 202.181 142.519 202.048 142.261C201.915 142.003 201.732 141.804 201.5 141.662C201.275 141.513 201.009 141.438 200.701 141.438C200.402 141.438 200.132 141.513 199.891 141.662C199.658 141.804 199.471 142.007 199.329 142.273C199.196 142.531 199.13 142.843 199.13 143.209V147.187H197.97ZM212.451 147.337C211.802 147.337 211.225 147.183 210.717 146.876C210.21 146.568 209.811 146.148 209.52 145.616C209.229 145.075 209.084 144.473 209.084 143.807C209.084 143.134 209.225 142.535 209.508 142.011C209.799 141.488 210.189 141.076 210.68 140.777C211.179 140.469 211.736 140.315 212.351 140.315C212.85 140.315 213.291 140.407 213.673 140.59C214.064 140.764 214.393 141.005 214.659 141.313C214.933 141.612 215.141 141.957 215.282 142.348C215.432 142.731 215.507 143.13 215.507 143.545C215.507 143.637 215.498 143.741 215.482 143.857C215.473 143.965 215.461 144.069 215.444 144.169H209.932V143.171H214.771L214.222 143.62C214.297 143.188 214.255 142.801 214.097 142.46C213.939 142.12 213.707 141.849 213.399 141.65C213.091 141.45 212.742 141.35 212.351 141.35C211.96 141.35 211.603 141.45 211.279 141.65C210.954 141.849 210.701 142.136 210.518 142.51C210.343 142.876 210.273 143.313 210.306 143.82C210.273 144.31 210.347 144.743 210.53 145.117C210.722 145.483 210.988 145.77 211.329 145.978C211.678 146.177 212.056 146.277 212.464 146.277C212.913 146.277 213.291 146.173 213.598 145.965C213.906 145.757 214.156 145.491 214.347 145.167L215.32 145.666C215.187 145.973 214.979 146.256 214.696 146.514C214.422 146.763 214.093 146.963 213.711 147.112C213.337 147.262 212.917 147.337 212.451 147.337ZM217.019 147.187V140.465H218.154V141.774L217.967 141.662C218.133 141.238 218.399 140.91 218.765 140.677C219.139 140.436 219.576 140.315 220.075 140.315C220.557 140.315 220.985 140.423 221.359 140.639C221.742 140.856 222.041 141.155 222.257 141.537C222.482 141.92 222.594 142.352 222.594 142.835V147.187H221.422V143.209C221.422 142.835 221.355 142.519 221.222 142.261C221.089 142.003 220.898 141.804 220.648 141.662C220.407 141.513 220.129 141.438 219.813 141.438C219.497 141.438 219.214 141.513 218.965 141.662C218.724 141.804 218.532 142.007 218.391 142.273C218.25 142.531 218.179 142.843 218.179 143.209V147.187H217.019ZM226.985 147.262C226.328 147.262 225.821 147.075 225.464 146.701C225.114 146.327 224.94 145.799 224.94 145.117V141.575H223.717V140.465H223.967C224.266 140.465 224.503 140.373 224.678 140.191C224.852 140.008 224.94 139.766 224.94 139.467V138.918H226.1V140.465H227.609V141.575H226.1V145.08C226.1 145.304 226.133 145.499 226.199 145.666C226.274 145.832 226.395 145.965 226.561 146.065C226.727 146.156 226.948 146.202 227.222 146.202C227.28 146.202 227.351 146.198 227.434 146.19C227.526 146.181 227.609 146.173 227.684 146.165V147.187C227.575 147.212 227.455 147.229 227.322 147.237C227.189 147.254 227.077 147.262 226.985 147.262ZM232.209 147.337C231.56 147.337 230.974 147.187 230.45 146.888C229.927 146.58 229.511 146.16 229.203 145.628C228.895 145.096 228.742 144.493 228.742 143.82C228.742 143.146 228.891 142.548 229.191 142.024C229.498 141.5 229.914 141.084 230.438 140.777C230.962 140.469 231.552 140.315 232.209 140.315C232.857 140.315 233.444 140.469 233.967 140.777C234.491 141.076 234.903 141.488 235.202 142.011C235.51 142.535 235.664 143.138 235.664 143.82C235.664 144.502 235.506 145.109 235.19 145.641C234.874 146.165 234.454 146.58 233.93 146.888C233.415 147.187 232.841 147.337 232.209 147.337ZM232.209 146.214C232.625 146.214 232.999 146.111 233.331 145.903C233.672 145.695 233.938 145.408 234.13 145.042C234.329 144.676 234.429 144.269 234.429 143.82C234.429 143.363 234.329 142.959 234.13 142.61C233.938 142.253 233.672 141.97 233.331 141.762C232.999 141.546 232.625 141.438 232.209 141.438C231.785 141.438 231.402 141.546 231.061 141.762C230.729 141.97 230.463 142.253 230.263 142.61C230.064 142.959 229.964 143.363 229.964 143.82C229.964 144.269 230.064 144.676 230.263 145.042C230.463 145.408 230.729 145.695 231.061 145.903C231.402 146.111 231.785 146.214 232.209 146.214Z" fill="#3F4346"/>
</g>
<g filter="url(#filter3_d_6421_5922)">
<path d="M244.751 167H175.03C171.686 167.618 170.283 170.177 170.051 171.379C169.973 174.556 169.968 181.785 170.153 185.288C170.339 188.791 173.482 190.354 175.03 190.697H252.415C249.628 188.431 249.331 185.47 249.293 184.258C249.216 181.768 249.21 176.118 249.396 172.409C249.582 168.7 246.377 167.258 244.751 167Z" fill="#F2CA55"/>
<path d="M183.954 183.922C183.297 183.922 182.682 183.806 182.108 183.573C181.534 183.332 181.031 182.995 180.599 182.563C180.175 182.13 179.842 181.623 179.601 181.041C179.36 180.451 179.239 179.811 179.239 179.121C179.239 178.422 179.36 177.782 179.601 177.2C179.842 176.618 180.175 176.111 180.599 175.678C181.031 175.246 181.53 174.913 182.095 174.681C182.669 174.448 183.289 174.331 183.954 174.331C184.619 174.331 185.234 174.452 185.8 174.693C186.373 174.926 186.872 175.258 187.296 175.691C187.729 176.115 188.065 176.618 188.306 177.2C188.556 177.782 188.681 178.422 188.681 179.121C188.681 179.811 188.556 180.451 188.306 181.041C188.065 181.623 187.729 182.13 187.296 182.563C186.872 182.995 186.373 183.332 185.8 183.573C185.234 183.806 184.619 183.922 183.954 183.922ZM183.954 182.787C184.469 182.787 184.939 182.696 185.363 182.513C185.787 182.322 186.153 182.06 186.461 181.727C186.777 181.386 187.018 180.996 187.184 180.555C187.359 180.106 187.446 179.628 187.446 179.121C187.446 178.613 187.359 178.139 187.184 177.699C187.018 177.258 186.777 176.871 186.461 176.539C186.153 176.198 185.787 175.936 185.363 175.753C184.939 175.562 184.469 175.466 183.954 175.466C183.447 175.466 182.981 175.562 182.557 175.753C182.133 175.936 181.763 176.198 181.447 176.539C181.139 176.871 180.898 177.258 180.723 177.699C180.549 178.139 180.462 178.613 180.462 179.121C180.462 179.628 180.549 180.106 180.723 180.555C180.898 180.996 181.139 181.386 181.447 181.727C181.763 182.06 182.133 182.322 182.557 182.513C182.981 182.696 183.447 182.787 183.954 182.787ZM193.806 183.922C193.265 183.922 192.771 183.802 192.322 183.561C191.881 183.319 191.54 182.979 191.299 182.538L191.461 182.338V183.773H190.326V174.331H191.486V178.497L191.311 178.21C191.561 177.811 191.902 177.495 192.334 177.262C192.766 177.021 193.261 176.901 193.818 176.901C194.45 176.901 195.016 177.054 195.514 177.362C196.022 177.67 196.421 178.09 196.712 178.622C197.003 179.146 197.148 179.744 197.148 180.418C197.148 181.075 197.003 181.669 196.712 182.201C196.421 182.733 196.022 183.153 195.514 183.461C195.016 183.768 194.446 183.922 193.806 183.922ZM193.718 182.8C194.143 182.8 194.521 182.696 194.853 182.488C195.186 182.28 195.444 181.997 195.627 181.64C195.818 181.274 195.914 180.867 195.914 180.418C195.914 179.952 195.818 179.545 195.627 179.195C195.444 178.838 195.186 178.555 194.853 178.347C194.521 178.131 194.143 178.023 193.718 178.023C193.294 178.023 192.912 178.127 192.571 178.335C192.238 178.543 191.972 178.83 191.773 179.195C191.582 179.553 191.486 179.96 191.486 180.418C191.486 180.867 191.582 181.274 191.773 181.64C191.972 181.997 192.238 182.28 192.571 182.488C192.912 182.696 193.294 182.8 193.718 182.8ZM198.669 183.773V177.05H199.804V178.285L199.679 178.11C199.837 177.728 200.079 177.445 200.403 177.262C200.727 177.071 201.122 176.975 201.588 176.975H201.999V178.073H201.413C200.939 178.073 200.557 178.223 200.266 178.522C199.975 178.813 199.829 179.229 199.829 179.769V183.773H198.669ZM203.03 183.773V177.05H204.189V183.773H203.03ZM203.03 175.978V174.481H204.189V175.978H203.03ZM209.195 186.516C208.721 186.516 208.28 186.442 207.872 186.292C207.473 186.142 207.128 185.934 206.837 185.668C206.555 185.411 206.338 185.107 206.189 184.758L207.274 184.259C207.39 184.575 207.611 184.841 207.935 185.057C208.267 185.282 208.683 185.394 209.182 185.394C209.565 185.394 209.91 185.319 210.217 185.17C210.533 185.028 210.783 184.812 210.966 184.521C211.148 184.238 211.24 183.893 211.24 183.486V181.977L211.452 182.201C211.219 182.658 210.882 183.008 210.442 183.249C210.009 183.49 209.531 183.611 209.007 183.611C208.376 183.611 207.81 183.465 207.311 183.174C206.812 182.875 206.422 182.471 206.139 181.964C205.856 181.449 205.715 180.879 205.715 180.256C205.715 179.624 205.856 179.054 206.139 178.547C206.422 178.04 206.808 177.641 207.299 177.35C207.798 177.05 208.363 176.901 208.995 176.901C209.519 176.901 209.993 177.021 210.417 177.262C210.849 177.495 211.194 177.819 211.452 178.235L211.277 178.547V177.05H212.412V183.486C212.412 184.068 212.275 184.587 212.001 185.045C211.726 185.502 211.344 185.86 210.853 186.117C210.371 186.383 209.818 186.516 209.195 186.516ZM209.107 182.488C209.506 182.488 209.864 182.388 210.18 182.189C210.504 181.989 210.762 181.723 210.953 181.39C211.144 181.05 211.24 180.671 211.24 180.256C211.24 179.848 211.144 179.474 210.953 179.133C210.762 178.792 210.504 178.522 210.18 178.322C209.864 178.123 209.506 178.023 209.107 178.023C208.7 178.023 208.33 178.123 207.997 178.322C207.665 178.522 207.403 178.792 207.211 179.133C207.029 179.466 206.937 179.84 206.937 180.256C206.937 180.671 207.029 181.05 207.211 181.39C207.403 181.723 207.66 181.989 207.985 182.189C208.317 182.388 208.691 182.488 209.107 182.488ZM216.181 183.922C215.74 183.922 215.35 183.843 215.009 183.685C214.676 183.519 214.414 183.295 214.223 183.012C214.032 182.721 213.936 182.388 213.936 182.014C213.936 181.657 214.011 181.336 214.161 181.054C214.319 180.763 214.56 180.517 214.884 180.318C215.217 180.118 215.632 179.977 216.131 179.894L218.626 179.482V180.455L216.393 180.829C215.961 180.904 215.645 181.041 215.445 181.241C215.254 181.44 215.158 181.686 215.158 181.977C215.158 182.251 215.266 182.48 215.483 182.663C215.707 182.846 215.986 182.937 216.318 182.937C216.742 182.937 217.108 182.85 217.416 182.675C217.732 182.492 217.977 182.247 218.152 181.939C218.335 181.632 218.426 181.291 218.426 180.917V179.208C218.426 178.842 218.289 178.547 218.014 178.322C217.748 178.09 217.395 177.973 216.954 177.973C216.572 177.973 216.231 178.073 215.932 178.272C215.641 178.464 215.424 178.721 215.283 179.046L214.273 178.522C214.398 178.214 214.597 177.94 214.872 177.699C215.146 177.449 215.466 177.254 215.832 177.113C216.198 176.971 216.58 176.901 216.979 176.901C217.495 176.901 217.948 177 218.339 177.2C218.73 177.391 219.033 177.661 219.249 178.011C219.474 178.351 219.586 178.751 219.586 179.208V183.773H218.451V182.5L218.663 182.575C218.522 182.841 218.33 183.074 218.089 183.274C217.848 183.473 217.565 183.631 217.241 183.748C216.917 183.864 216.564 183.922 216.181 183.922ZM224.44 183.922C223.808 183.922 223.239 183.768 222.731 183.461C222.232 183.153 221.838 182.733 221.546 182.201C221.255 181.669 221.11 181.075 221.11 180.418C221.11 179.744 221.255 179.146 221.546 178.622C221.838 178.09 222.232 177.67 222.731 177.362C223.239 177.054 223.808 176.901 224.44 176.901C224.997 176.901 225.492 177.021 225.924 177.262C226.357 177.495 226.697 177.811 226.947 178.21L226.76 178.497V174.331H227.932V183.773H226.797V182.338L226.947 182.538C226.714 182.979 226.373 183.319 225.924 183.561C225.483 183.802 224.989 183.922 224.44 183.922ZM224.54 182.8C224.964 182.8 225.342 182.696 225.675 182.488C226.007 182.28 226.269 181.997 226.46 181.64C226.66 181.274 226.76 180.867 226.76 180.418C226.76 179.96 226.66 179.553 226.46 179.195C226.269 178.83 226.007 178.543 225.675 178.335C225.342 178.127 224.964 178.023 224.54 178.023C224.124 178.023 223.746 178.131 223.405 178.347C223.072 178.555 222.81 178.838 222.619 179.195C222.428 179.545 222.332 179.952 222.332 180.418C222.332 180.867 222.428 181.274 222.619 181.64C222.81 181.997 223.072 182.28 223.405 182.488C223.737 182.696 224.116 182.8 224.54 182.8ZM232.92 183.922C232.272 183.922 231.686 183.773 231.162 183.473C230.638 183.166 230.222 182.746 229.915 182.214C229.607 181.681 229.453 181.079 229.453 180.405C229.453 179.732 229.603 179.133 229.902 178.609C230.21 178.085 230.625 177.67 231.149 177.362C231.673 177.054 232.263 176.901 232.92 176.901C233.569 176.901 234.155 177.054 234.679 177.362C235.203 177.661 235.614 178.073 235.914 178.597C236.221 179.121 236.375 179.723 236.375 180.405C236.375 181.087 236.217 181.694 235.901 182.226C235.585 182.75 235.165 183.166 234.641 183.473C234.126 183.773 233.552 183.922 232.92 183.922ZM232.92 182.8C233.336 182.8 233.71 182.696 234.043 182.488C234.384 182.28 234.65 181.993 234.841 181.627C235.041 181.262 235.14 180.854 235.14 180.405C235.14 179.948 235.041 179.545 234.841 179.195C234.65 178.838 234.384 178.555 234.043 178.347C233.71 178.131 233.336 178.023 232.92 178.023C232.496 178.023 232.114 178.131 231.773 178.347C231.44 178.555 231.174 178.838 230.975 179.195C230.775 179.545 230.675 179.948 230.675 180.405C230.675 180.854 230.775 181.262 230.975 181.627C231.174 181.993 231.44 182.28 231.773 182.488C232.114 182.696 232.496 182.8 232.92 182.8ZM238.399 181.054L238.324 174.481H239.547L239.459 181.054H238.399ZM238.324 183.773V182.276H239.547V183.773H238.324Z" fill="#3F4346"/>
</g>
<rect x="218" y="202" width="34" height="34" rx="17" fill="#F2CA55"/>
<path d="M241 211.5H229C228.175 211.5 227.5 212.175 227.5 213V226.5L230.5 223.5H241C241.825 223.5 242.5 222.825 242.5 222V213C242.5 212.175 241.825 211.5 241 211.5ZM241 222H230.5L229 223.5V213H241V222Z" fill="#212528"/>
<defs>
<filter id="filter0_d_6421_5922" x="174.31" y="14.764" width="88.6507" height="45.0781" filterUnits="userSpaceOnUse" color-interpolation-filters="sRGB">
<feFlood flood-opacity="0" result="BackgroundImageFix"/>
<feColorMatrix in="SourceAlpha" type="matrix" values="0 0 0 0 0 0 0 0 0 0 0 0 0 0 0 0 0 0 127 0" result="hardAlpha"/>
<feOffset dy="4.4543"/>
<feGaussianBlur stdDeviation="5.34516"/>
<feComposite in2="hardAlpha" operator="out"/>
<feColorMatrix type="matrix" values="0 0 0 0 0 0 0 0 0 0 0 0 0 0 0 0 0 0 0.16 0"/>
<feBlend mode="normal" in2="BackgroundImageFix" result="effect1_dropShadow_6421_5922"/>
<feBlend mode="normal" in="SourceGraphic" in2="effect1_dropShadow_6421_5922" result="shape"/>
</filter>
<filter id="filter1_d_6421_5922" x="85.3097" y="49.764" width="177.381" height="62.3806" filterUnits="userSpaceOnUse" color-interpolation-filters="sRGB">
<feFlood flood-opacity="0" result="BackgroundImageFix"/>
<feColorMatrix in="SourceAlpha" type="matrix" values="0 0 0 0 0 0 0 0 0 0 0 0 0 0 0 0 0 0 127 0" result="hardAlpha"/>
<feOffset dy="4.4543"/>
<feGaussianBlur stdDeviation="5.34516"/>
<feComposite in2="hardAlpha" operator="out"/>
<feColorMatrix type="matrix" values="0 0 0 0 0 0 0 0 0 0 0 0 0 0 0 0 0 0 0.16 0"/>
<feBlend mode="normal" in2="BackgroundImageFix" result="effect1_dropShadow_6421_5922"/>
<feBlend mode="normal" in="SourceGraphic" in2="effect1_dropShadow_6421_5922" result="shape"/>
</filter>
<filter id="filter2_d_6421_5922" x="1.30968" y="103.764" width="261.381" height="66.4823" filterUnits="userSpaceOnUse" color-interpolation-filters="sRGB">
<feFlood flood-opacity="0" result="BackgroundImageFix"/>
<feColorMatrix in="SourceAlpha" type="matrix" values="0 0 0 0 0 0 0 0 0 0 0 0 0 0 0 0 0 0 127 0" result="hardAlpha"/>
<feOffset dy="4.4543"/>
<feGaussianBlur stdDeviation="5.34516"/>
<feComposite in2="hardAlpha" operator="out"/>
<feColorMatrix type="matrix" values="0 0 0 0 0 0 0 0 0 0 0 0 0 0 0 0 0 0 0.16 0"/>
<feBlend mode="normal" in2="BackgroundImageFix" result="effect1_dropShadow_6421_5922"/>
<feBlend mode="normal" in="SourceGraphic" in2="effect1_dropShadow_6421_5922" result="shape"/>
</filter>
<filter id="filter3_d_6421_5922" x="159.31" y="160.764" width="103.796" height="45.0781" filterUnits="userSpaceOnUse" color-interpolation-filters="sRGB">
<feFlood flood-opacity="0" result="BackgroundImageFix"/>
<feColorMatrix in="SourceAlpha" type="matrix" values="0 0 0 0 0 0 0 0 0 0 0 0 0 0 0 0 0 0 127 0" result="hardAlpha"/>
<feOffset dy="4.4543"/>
<feGaussianBlur stdDeviation="5.34516"/>
<feComposite in2="hardAlpha" operator="out"/>
<feColorMatrix type="matrix" values="0 0 0 0 0 0 0 0 0 0 0 0 0 0 0 0 0 0 0.16 0"/>
<feBlend mode="normal" in2="BackgroundImageFix" result="effect1_dropShadow_6421_5922"/>
<feBlend mode="normal" in="SourceGraphic" in2="effect1_dropShadow_6421_5922" result="shape"/>
</filter>
</defs>
</svg>
