<svg width="355" height="80" viewBox="0 0 355 80" fill="none" xmlns="http://www.w3.org/2000/svg">
<g clip-path="url(#clip0_9585_412)">
<path d="M293.382 18.0803V36.6153C293.382 39.885 294.608 42.186 297.661 42.186C302.89 42.186 304.86 34.9845 304.86 27.0392V18.0803H315.05L315.009 50.3357H308.081L305.813 37.7781C304.521 45.4536 300.651 50.4113 294.062 50.4113C286.522 50.4113 283.195 45.1818 283.195 36.6235V18.0803H293.382Z" fill="black"/>
<path d="M129.154 18.019C129.455 17.4517 129.617 16.8216 129.629 16.1798C129.629 14.6165 128.678 13.7276 126.913 13.6663L129.978 8.84351C133.646 8.97838 135.955 11.0178 135.955 13.8706C135.955 15.9755 134.801 17.6062 132.015 19.2349C133.526 20.0128 134.794 21.1908 135.68 22.6403C136.567 24.0897 137.038 25.755 137.043 27.4541C137.043 33.0922 131.676 37.9824 122.1 37.9824C119.678 38.0295 117.266 37.6618 114.968 36.8953C114.515 37.0696 114.117 37.364 113.818 37.747C113.519 38.1301 113.329 38.5872 113.27 39.0696C113.27 40.8352 115.173 41.3768 117.549 41.3768H125.088C135.005 41.3768 139.963 44.9775 139.963 50.4787C139.963 57.4084 133.307 61.0071 121.489 61.0071C111.639 61.0071 103.694 58.8327 103.694 53.5359C103.694 49.8677 108.243 47.7628 114.018 47.6954C108.312 46.878 105.392 45.1819 105.392 41.3768C105.392 37.9824 109.4 36.2148 112.455 35.7407C110.889 34.9948 109.567 33.8205 108.641 32.3539C107.716 30.8873 107.225 29.1883 107.225 27.4541C107.225 21.2724 112.998 16.8583 122.1 16.8583C124.499 16.8581 126.882 17.2502 129.154 18.019ZM119.848 48.4474C115.706 48.4474 113.192 49.5346 113.192 51.9807C113.192 54.5597 116.452 55.9186 121.886 55.9186C127.456 55.9186 130.648 54.2838 130.648 51.6395C130.648 49.8003 128.883 48.4474 125.215 48.4474H119.848ZM122.096 22.0264C120.655 22.0264 119.273 22.5989 118.254 23.6179C117.235 24.637 116.662 26.0191 116.662 27.4602C116.662 28.9013 117.235 30.2835 118.254 31.3025C119.273 32.3215 120.655 32.894 122.096 32.894C122.82 32.9326 123.544 32.8185 124.22 32.559C124.897 32.2996 125.512 31.9007 126.024 31.3882C126.537 30.8757 126.935 30.2612 127.195 29.5844C127.454 28.9077 127.568 28.1839 127.53 27.4602C127.581 26.733 127.475 26.0033 127.22 25.3205C126.964 24.6377 126.565 24.0177 126.049 23.5025C125.534 22.9873 124.913 22.5889 124.23 22.3342C123.547 22.0796 122.817 21.9746 122.09 22.0264H122.096Z" fill="black"/>
<path d="M199.722 50.5544C194.288 50.5544 191.368 47.0211 189.67 43.0137V61.0133H179.481V18.2235H185.391L187.563 28.2757C188.855 23.2485 191.707 17.543 199.45 17.543C208.009 17.543 212.695 24.675 212.695 34.0487C212.695 43.4225 208.144 50.5544 199.722 50.5544ZM196.191 24.3357C192.59 24.3357 189.67 28.0141 189.67 34.0487C189.67 40.0833 192.59 43.7617 196.191 43.7617C200.333 43.7617 202.507 39.7543 202.507 34.0487C202.507 28.3431 200.333 24.3357 196.191 24.3357Z" fill="black"/>
<path d="M151.703 18.0803V36.6153C151.703 39.885 152.929 42.186 155.98 42.186C161.212 42.186 163.182 34.9845 163.182 27.0392V18.0803H173.369L173.33 50.3357H166.402L164.132 37.7781C162.84 45.4536 158.97 50.4113 152.382 50.4113C144.843 50.4113 141.514 45.1818 141.514 36.6235V18.0803H151.703Z" fill="black"/>
<path d="M228.769 50.4031C225.944 50.4981 223.135 49.9352 220.565 48.7588C217.994 47.5825 215.733 45.8249 213.958 43.6247L218.474 38.9756C219.616 40.5825 221.104 41.9125 222.829 42.8674C224.553 43.8224 226.47 44.378 228.438 44.4932C231.095 44.4932 231.957 43.2303 231.957 41.8366C231.957 40.2447 230.563 39.2474 226.91 38.0519C218.208 35.191 215.619 32.2728 215.619 27.0168C215.619 20.7737 220.932 18.1171 228.173 18.1171C233.203 18.0839 238.054 19.9862 241.721 23.4303L238.2 28.2143C235.567 25.7136 232.13 24.2303 228.504 24.0291C226.511 24.0291 225.383 24.8261 225.383 26.3547C225.383 28.5454 227.243 29.0113 231.824 30.8035C238.135 33.2557 241.721 35.52 241.721 40.7004C241.721 46.8167 236.739 50.4031 228.769 50.4031Z" fill="black"/>
<path d="M267.574 50.4032V31.8621C267.574 28.5924 266.348 26.2914 263.295 26.2914C258.066 26.2914 256.096 33.4908 256.096 41.4381V50.4032H245.907V5.16724H256.096V29.6203C257.385 22.284 261.46 18.0722 266.894 18.0722C274.434 18.0722 277.761 23.3037 277.761 31.8621V50.4032H267.574Z" fill="black"/>
<path d="M341.403 50.5544C335.97 50.5544 333.047 47.0211 331.349 43.0137V61.0133H321.162V18.2235H327.072L329.244 28.2757C330.536 23.2485 333.389 17.543 341.132 17.543C349.688 17.543 354.376 24.675 354.376 34.0487C354.376 43.4225 349.825 50.5544 341.403 50.5544ZM337.87 24.3357C334.271 24.3357 331.349 28.0141 331.349 34.0487C331.349 40.0833 334.271 43.7617 337.87 43.7617C342.014 43.7617 344.187 39.7543 344.187 34.0487C344.187 28.3431 342.014 24.3357 337.87 24.3357Z" fill="black"/>
<path d="M64.9671 43.4102C64.7774 44.9713 64.048 46.417 62.9052 47.4972C61.7808 48.6544 60.2992 49.3989 58.6996 49.6103C51.9635 50.2397 45.2048 50.5977 38.4399 50.6832C35.7864 50.7135 33.2508 51.7833 31.3774 53.6626L22.4961 62.5459V55.5284C22.4932 54.1378 21.9654 52.7995 21.0181 51.7814C20.0708 50.7633 18.7741 50.1404 17.3872 50.0374C15.6482 49.9127 13.8948 49.7656 12.1619 49.6042C10.5623 49.3927 9.08068 48.6483 7.95627 47.4911C6.81999 46.4144 6.0957 44.9745 5.90864 43.4204C5.11574 33.1614 5.11574 22.8565 5.90864 12.5976C6.09405 11.0365 6.82162 9.59 7.96445 8.51048C9.08875 7.3528 10.5703 6.6077 12.1701 6.39541C27.6466 4.94242 43.2251 4.94242 58.7016 6.39541C60.3014 6.6077 61.7829 7.3528 62.9072 8.51048C64.0501 9.59075 64.7794 11.0365 64.9692 12.5976C65.7547 22.8534 65.7541 33.1544 64.9671 43.4102Z" fill="#5E34F1" stroke="#5E34F1"/>
<path d="M67.1128 80.0001C66.6225 79.9998 66.1371 79.9027 65.6843 79.7144C65.2316 79.526 64.8205 79.2502 64.4746 78.9027L52.9102 67.3444C52.0167 66.4423 50.8039 65.9283 49.5343 65.9139C45.5064 65.8648 43.6407 65.8138 40.5283 65.6074C39.8471 65.5333 39.2209 65.1988 38.7804 64.6739C38.34 64.149 38.1194 63.4741 38.1648 62.7904C38.2101 62.1067 38.5179 61.4669 39.0239 61.0048C39.5298 60.5427 40.1948 60.2939 40.8798 60.3105C43.8695 60.5148 45.6801 60.5598 49.5976 60.6068C52.2522 60.6345 54.7895 61.7046 56.6621 63.5863L65.5414 72.4655V65.4643C65.5442 64.074 66.0718 62.736 67.0186 61.7179C67.9655 60.6999 69.2617 60.0768 70.6482 59.9733C72.3872 59.8466 74.1447 59.7015 75.8735 59.5401C77.4764 59.3284 78.9614 58.5834 80.0894 57.425C81.2315 56.3447 81.9596 54.8988 82.1472 53.3379C82.9401 43.0789 82.9401 32.7741 82.1472 22.5151C81.9305 21.1352 81.3308 19.8438 80.4165 18.7878C79.5021 17.7318 78.3097 16.9537 76.975 16.5418C76.3274 16.3174 75.7917 15.8515 75.4796 15.2413C75.1675 14.6312 75.1033 13.9241 75.3004 13.2677C75.4974 12.6113 75.9406 12.0565 76.5371 11.7191C77.1336 11.3818 77.8375 11.288 78.5015 11.4575C80.861 12.1754 82.9614 13.5628 84.5477 15.4513C86.134 17.3398 87.1381 19.6481 87.438 22.0962C88.2513 32.6334 88.2513 43.2176 87.438 53.7548C87.1004 56.5674 85.83 59.1858 83.8297 61.1917C81.8293 63.1976 79.2145 64.4753 76.4028 64.8206H76.3844C74.6167 64.9841 72.8184 65.1332 71.0405 65.262C70.9914 65.2689 70.9465 65.2935 70.9142 65.3311C70.8819 65.3687 70.8643 65.4168 70.8648 65.4664V76.2604C70.8645 76.7524 70.7672 77.2396 70.5784 77.694C70.3896 78.1484 70.113 78.5611 69.7645 78.9085C69.416 79.2558 69.0024 79.5311 68.5474 79.7184C68.0924 79.9057 67.6049 80.0014 67.1128 80.0001Z" fill="#FF3964"/>
<path d="M70.2556 12.1767C69.9172 9.3648 68.6464 6.74735 66.6462 4.74228C64.6459 2.73721 62.0315 1.46015 59.2205 1.11499H59.198C43.3899 -0.371665 27.4772 -0.371665 11.6692 1.11499H11.6467C8.83438 1.46053 6.21906 2.73877 4.21865 4.74547C2.21825 6.75217 0.948229 9.3715 0.611538 12.1849C-0.203846 22.722 -0.203846 33.3064 0.611538 43.8435C0.951211 46.6543 2.22255 49.2703 4.22269 51.2742C6.22284 53.278 8.83652 54.5542 11.6467 54.8991H11.6692C13.4368 55.0667 15.2352 55.2138 17.013 55.3385C17.0621 55.3454 17.107 55.3699 17.1394 55.4075C17.1717 55.4451 17.1893 55.4932 17.1888 55.5428V66.3409C17.1889 67.0786 17.4084 67.7996 17.8192 68.4124C18.2299 69.0251 18.8136 69.5019 19.496 69.7822C19.9497 69.9694 20.4356 70.0666 20.9264 70.0683C21.4158 70.0683 21.9004 69.9717 22.3524 69.784C22.8044 69.5964 23.215 69.3215 23.5606 68.975L35.1311 57.4086C36.0241 56.5057 37.2373 55.9917 38.5071 55.9781C45.3264 55.8963 52.2928 55.5306 59.2 54.8848H59.2225C62.0336 54.5396 64.648 53.2626 66.6482 51.2575C68.6485 49.2524 69.9193 46.635 70.2576 43.8231C71.07 33.2899 71.0693 22.7098 70.2556 12.1767ZM64.9669 43.4103C64.7772 44.9714 64.0478 46.4171 62.905 47.4974C61.7806 48.6545 60.2989 49.399 58.6994 49.6104C51.9633 50.2399 45.2045 50.5978 38.4396 50.6833C35.7862 50.7137 33.2505 51.7834 31.3771 53.6628L22.4959 62.546V55.5285C22.493 54.1379 21.9651 52.7996 21.0179 51.7815C20.0706 50.7634 18.7738 50.1405 17.387 50.0375C15.648 49.9128 13.8946 49.7657 12.1617 49.6043C10.5621 49.3928 9.08044 48.6484 7.95604 47.4912C6.81976 46.4146 6.09546 44.9746 5.90841 43.4205C5.11551 33.1615 5.11551 22.8567 5.90841 12.5977C6.09382 11.0366 6.82139 9.59011 7.96422 8.51059C9.08852 7.35291 10.5701 6.60781 12.1698 6.39552C27.6463 4.94252 43.2249 4.94252 58.7014 6.39552C60.3011 6.60781 61.7827 7.35291 62.907 8.51059C64.0498 9.59086 64.7792 11.0366 64.9689 12.5977C65.7545 22.8535 65.7538 33.1545 64.9669 43.4103Z" fill="#5E34F1"/>
<path d="M25.7307 38.8061C25.2601 38.8064 24.8005 38.6639 24.4127 38.3974L14.3707 31.5291C14.0571 31.3142 13.8006 31.0261 13.6234 30.6898C13.4461 30.3535 13.3535 29.9791 13.3535 29.5989C13.3535 29.2188 13.4461 28.8444 13.6234 28.5081C13.8006 28.1718 14.0571 27.8837 14.3707 27.6688L24.4127 20.7984C24.9246 20.4483 25.5546 20.3159 26.1641 20.4303C26.7737 20.5447 27.3128 20.8965 27.6629 21.4084C28.013 21.9203 28.1455 22.5503 28.0311 23.1599C27.9167 23.7694 27.5648 24.3086 27.0529 24.6587L19.8331 29.5979L27.0529 34.5372C27.4646 34.8198 27.775 35.2266 27.9389 35.6982C28.1028 36.1699 28.1116 36.6816 27.9638 37.1586C27.8161 37.6355 27.5197 38.0527 27.1179 38.3491C26.7161 38.6456 26.2301 38.8057 25.7307 38.8061Z" fill="white"/>
<path d="M80.0892 57.4249C81.2313 56.3447 81.9594 54.8987 82.147 53.3378C82.9399 43.0789 82.9399 32.774 82.147 22.515C81.9303 21.1351 81.3306 19.8437 80.4163 18.7877C79.5019 17.7318 78.3095 16.9536 76.9748 16.5417C76.4683 16.3909 76.019 16.0911 75.6853 15.6814C76.5624 27.5524 76.5473 39.4725 75.6404 51.3413C75.4131 53.1786 74.5533 54.8794 73.2085 56.1518C71.883 57.5162 70.1366 58.3944 68.2509 58.6449C60.2811 59.3888 52.2438 59.8118 44.37 59.9078C43.3523 59.9253 42.3408 60.0715 41.3599 60.3431C44.0798 60.5168 45.9006 60.5638 49.6117 60.6088C52.2663 60.6364 54.8036 61.7066 56.6762 63.5883L65.5555 72.4675V65.4642C65.558 64.0762 66.0836 62.7402 67.0275 61.7225C67.9713 60.7047 69.2641 60.0802 70.648 59.9732C72.387 59.8465 74.1445 59.7014 75.8733 59.54C77.4762 59.3284 78.9612 58.5833 80.0892 57.4249Z" fill="#FF3964"/>
<path d="M45.1447 38.8061C44.6453 38.8057 44.1593 38.6456 43.7575 38.3491C43.3557 38.0527 43.0593 37.6355 42.9116 37.1586C42.7638 36.6816 42.7726 36.1699 42.9365 35.6982C43.1004 35.2266 43.4108 34.8198 43.8225 34.5372L51.0423 29.5979L43.8225 24.6587C43.3106 24.3086 42.9587 23.7694 42.8443 23.1599C42.7299 22.5503 42.8624 21.9203 43.2125 21.4084C43.5626 20.8965 44.1017 20.5447 44.7113 20.4303C45.3208 20.3159 45.9508 20.4483 46.4627 20.7984L56.5047 27.6688C56.8183 27.8837 57.0748 28.1718 57.252 28.5081C57.4293 28.8444 57.5219 29.2188 57.5219 29.5989C57.5219 29.9791 57.4293 30.3535 57.252 30.6898C57.0748 31.0261 56.8183 31.3142 56.5047 31.5291L46.4627 38.3974C46.0747 38.6637 45.6152 38.8062 45.1447 38.8061Z" fill="white"/>
<path d="M32.0148 45.6683C31.6592 45.6687 31.3082 45.588 30.9885 45.4323C30.6688 45.2766 30.3888 45.05 30.1699 44.7698C29.951 44.4896 29.7989 44.1631 29.7251 43.8153C29.6514 43.4674 29.658 43.1073 29.7444 42.7624L36.6148 15.2828C36.7652 14.6812 37.1484 14.164 37.6802 13.8449C38.2119 13.5259 38.8486 13.4311 39.4502 13.5815C40.0518 13.7319 40.569 14.1152 40.8881 14.6469C41.2071 15.1786 41.3019 15.8154 41.1515 16.417L34.2831 43.9027C34.1553 44.4074 33.8629 44.8551 33.452 45.1749C33.0412 45.4946 32.5354 45.6683 32.0148 45.6683Z" fill="white"/>
</g>
<defs>
<clipPath id="clip0_9585_412">
<rect width="354.376" height="80" fill="white"/>
</clipPath>
</defs>
</svg>
