<svg width="89" height="80" viewBox="0 0 89 80" fill="none" xmlns="http://www.w3.org/2000/svg">
<g clip-path="url(#clip0_9585_400)">
<path d="M65.755 43.4102C65.5652 44.9713 64.8359 46.417 63.693 47.4972C62.5686 48.6544 61.087 49.3989 59.4874 49.6103C52.7513 50.2397 45.9926 50.5977 39.2277 50.6832C36.5743 50.7135 34.0386 51.7833 32.1652 53.6626L23.2839 62.5459V55.5284C23.2811 54.1378 22.7532 52.7995 21.8059 51.7814C20.8587 50.7633 19.5619 50.1404 18.1751 50.0374C16.436 49.9127 14.6827 49.7656 12.9497 49.6042C11.3502 49.3927 9.86852 48.6483 8.74411 47.4911C7.60783 46.4144 6.88354 44.9745 6.69648 43.4204C5.90358 33.1614 5.90358 22.8565 6.69648 12.5976C6.88189 11.0365 7.60947 9.59 8.75229 8.51048C9.87659 7.3528 11.3582 6.6077 12.9579 6.39541C28.4344 4.94242 44.013 4.94242 59.4895 6.39541C61.0892 6.6077 62.5708 7.3528 63.6951 8.51048C64.8379 9.59075 65.5673 11.0365 65.757 12.5976C66.5426 22.8534 66.5419 33.1544 65.755 43.4102Z" fill="#5E34F1" stroke="#5E34F1"/>
<path d="M67.9009 80.0001C67.4106 79.9998 66.9252 79.9027 66.4724 79.7144C66.0197 79.526 65.6086 79.2502 65.2627 78.9027L53.6983 67.3444C52.8048 66.4423 51.592 65.9283 50.3223 65.9139C46.2945 65.8648 44.4288 65.8138 41.3164 65.6074C40.6352 65.5333 40.009 65.1988 39.5685 64.6739C39.1281 64.149 38.9075 63.4741 38.9529 62.7904C38.9982 62.1067 39.306 61.4669 39.812 61.0048C40.3179 60.5427 40.9829 60.2939 41.6679 60.3105C44.6576 60.5148 46.4682 60.5598 50.3857 60.6068C53.0403 60.6345 55.5776 61.7046 57.4502 63.5863L66.3294 72.4655V65.4643C66.3323 64.074 66.8599 62.736 67.8067 61.7179C68.7535 60.6999 70.0498 60.0768 71.4363 59.9733C73.1753 59.8466 74.9328 59.7015 76.6616 59.5401C78.2645 59.3284 79.7495 58.5834 80.8774 57.425C82.0196 56.3447 82.7477 54.8988 82.9353 53.3379C83.7282 43.0789 83.7282 32.7741 82.9353 22.5151C82.7186 21.1352 82.1189 19.8438 81.2045 18.7878C80.2902 17.7318 79.0978 16.9537 77.7631 16.5418C77.1155 16.3174 76.5797 15.8515 76.2677 15.2413C75.9556 14.6312 75.8914 13.9241 76.0885 13.2677C76.2855 12.6113 76.7286 12.0565 77.3252 11.7191C77.9217 11.3818 78.6256 11.288 79.2896 11.4575C81.6491 12.1754 83.7495 13.5628 85.3358 15.4513C86.9221 17.3398 87.9261 19.6481 88.226 22.0962C89.0394 32.6334 89.0394 43.2176 88.226 53.7548C87.8885 56.5674 86.6181 59.1858 84.6178 61.1917C82.6174 63.1976 80.0026 64.4753 77.1909 64.8206H77.1725C75.4048 64.9841 73.6065 65.1332 71.8286 65.262C71.7795 65.2689 71.7346 65.2935 71.7023 65.3311C71.6699 65.3687 71.6524 65.4168 71.6529 65.4664V76.2604C71.6526 76.7524 71.5553 77.2396 71.3665 77.694C71.1777 78.1484 70.9011 78.5611 70.5526 78.9085C70.2041 79.2558 69.7905 79.5311 69.3355 79.7184C68.8805 79.9057 68.393 80.0014 67.9009 80.0001Z" fill="#FF3964"/>
<path d="M71.0434 12.1767C70.705 9.3648 69.4343 6.74735 67.434 4.74228C65.4338 2.73721 62.8194 1.46015 60.0083 1.11499H59.9858C44.1778 -0.371665 28.2651 -0.371665 12.457 1.11499H12.4345C9.62223 1.46053 7.0069 2.73877 5.00649 4.74547C3.00609 6.75217 1.73607 9.3715 1.39938 12.1849C0.583996 22.722 0.583996 33.3064 1.39938 43.8435C1.73905 46.6543 3.01039 49.2703 5.01053 51.2742C7.01068 53.278 9.62437 54.5542 12.4345 54.8991H12.457C14.2247 55.0667 16.023 55.2138 17.8009 55.3385C17.85 55.3454 17.8949 55.3699 17.9272 55.4075C17.9596 55.4451 17.9771 55.4932 17.9766 55.5428V66.3409C17.9768 67.0786 18.1962 67.7996 18.607 68.4124C19.0178 69.0251 19.6014 69.5019 20.2838 69.7822C20.7376 69.9694 21.2234 70.0666 21.7143 70.0683C22.2037 70.0683 22.6882 69.9717 23.1402 69.784C23.5922 69.5964 24.0028 69.3215 24.3484 68.975L35.919 57.4086C36.8119 56.5057 38.0251 55.9917 39.2949 55.9781C46.1142 55.8963 53.0807 55.5306 59.9879 54.8848H60.0103C62.8214 54.5396 65.4358 53.2626 67.4361 51.2575C69.4363 49.2524 70.7071 46.635 71.0455 43.8231C71.8578 33.2899 71.8571 22.7098 71.0434 12.1767ZM65.7547 43.4103C65.565 44.9714 64.8356 46.4171 63.6928 47.4974C62.5684 48.6545 61.0868 49.399 59.4872 49.6104C52.7511 50.2399 45.9924 50.5978 39.2275 50.6833C36.5741 50.7137 34.0384 51.7834 32.165 53.6628L23.2837 62.546V55.5285C23.2808 54.1379 22.753 52.7996 21.8057 51.7815C20.8584 50.7634 19.5617 50.1405 18.1749 50.0375C16.4358 49.9128 14.6824 49.7657 12.9495 49.6043C11.3499 49.3928 9.86829 48.6484 8.74388 47.4912C7.6076 46.4146 6.88331 44.9746 6.69625 43.4205C5.90335 33.1615 5.90335 22.8567 6.69625 12.5977C6.88166 11.0366 7.60923 9.59011 8.75206 8.51059C9.87636 7.35291 11.3579 6.60781 12.9577 6.39552C28.4342 4.94252 44.0127 4.94252 59.4892 6.39552C61.089 6.60781 62.5706 7.35291 63.6949 8.51059C64.8377 9.59086 65.567 11.0366 65.7568 12.5977C66.5424 22.8535 66.5417 33.1545 65.7547 43.4103Z" fill="#5E34F1"/>
<path d="M26.5186 38.8061C26.048 38.8064 25.5884 38.6639 25.2005 38.3974L15.1585 31.5291C14.8449 31.3142 14.5884 31.0261 14.4112 30.6898C14.234 30.3535 14.1414 29.9791 14.1414 29.5989C14.1414 29.2188 14.234 28.8444 14.4112 28.5081C14.5884 28.1718 14.8449 27.8837 15.1585 27.6688L25.2005 20.7984C25.7124 20.4483 26.3424 20.3159 26.952 20.4303C27.5615 20.5447 28.1006 20.8965 28.4508 21.4084C28.8009 21.9203 28.9333 22.5503 28.8189 23.1599C28.7045 23.7694 28.3527 24.3086 27.8408 24.6587L20.6209 29.5979L27.8408 34.5372C28.2524 34.8198 28.5629 35.2266 28.7268 35.6982C28.8907 36.1699 28.8994 36.6816 28.7517 37.1586C28.604 37.6355 28.3075 38.0527 27.9058 38.3491C27.504 38.6456 27.0179 38.8057 26.5186 38.8061Z" fill="white"/>
<path d="M80.877 57.4249C82.0192 56.3447 82.7472 54.8987 82.9349 53.3378C83.7278 43.0789 83.7278 32.774 82.9349 22.515C82.7181 21.1351 82.1185 19.8437 81.2041 18.7877C80.2897 17.7318 79.0974 16.9536 77.7626 16.5417C77.2562 16.3909 76.8069 16.0911 76.4732 15.6814C77.3502 27.5524 77.3352 39.4725 76.4282 51.3413C76.2009 53.1786 75.3411 54.8794 73.9964 56.1518C72.6708 57.5162 70.9244 58.3944 69.0387 58.6449C61.0689 59.3888 53.0316 59.8118 45.1578 59.9078C44.1401 59.9253 43.1287 60.0715 42.1477 60.3431C44.8677 60.5168 46.6885 60.5638 50.3995 60.6088C53.0541 60.6364 55.5914 61.7066 57.4641 63.5883L66.3433 72.4675V65.4642C66.3459 64.0762 66.8715 62.7402 67.8153 61.7225C68.7592 60.7047 70.0519 60.0802 71.4358 59.9732C73.1749 59.8465 74.9323 59.7014 76.6612 59.54C78.2641 59.3284 79.7491 58.5833 80.877 57.4249Z" fill="#FF3964"/>
<path d="M45.9325 38.8061C45.4332 38.8057 44.9471 38.6456 44.5453 38.3491C44.1435 38.0527 43.8471 37.6355 43.6994 37.1586C43.5517 36.6816 43.5604 36.1699 43.7243 35.6982C43.8882 35.2266 44.1987 34.8198 44.6103 34.5372L51.8302 29.5979L44.6103 24.6587C44.0984 24.3086 43.7466 23.7694 43.6322 23.1599C43.5178 22.5503 43.6502 21.9203 44.0003 21.4084C44.3504 20.8965 44.8896 20.5447 45.4991 20.4303C46.1087 20.3159 46.7387 20.4483 47.2506 20.7984L57.2926 27.6688C57.6061 27.8837 57.8626 28.1718 58.0399 28.5081C58.2171 28.8444 58.3097 29.2188 58.3097 29.5989C58.3097 29.9791 58.2171 30.3535 58.0399 30.6898C57.8626 31.0261 57.6061 31.3142 57.2926 31.5291L47.2506 38.3974C46.8626 38.6637 46.4031 38.8062 45.9325 38.8061Z" fill="white"/>
<path d="M32.8026 45.6683C32.447 45.6687 32.096 45.588 31.7763 45.4323C31.4566 45.2766 31.1767 45.05 30.9578 44.7698C30.7388 44.4896 30.5867 44.1631 30.513 43.8153C30.4392 43.4674 30.4458 43.1073 30.5322 42.7624L37.4026 15.2828C37.553 14.6812 37.9363 14.164 38.468 13.8449C38.9997 13.5259 39.6365 13.4311 40.2381 13.5815C40.8397 13.7319 41.3569 14.1152 41.6759 14.6469C41.995 15.1786 42.0897 15.8154 41.9393 16.417L35.071 43.9027C34.9432 44.4074 34.6507 44.8551 34.2399 45.1749C33.829 45.4946 33.3233 45.6683 32.8026 45.6683Z" fill="white"/>
</g>
<defs>
<clipPath id="clip0_9585_400">
<rect width="88.0482" height="80" fill="white" transform="translate(0.787842)"/>
</clipPath>
</defs>
</svg>
