<svg width="117" height="20" viewBox="0 0 117 20" fill="none" xmlns="http://www.w3.org/2000/svg">
<path d="M20.9287 10.0611C20.9287 4.50451 16.4516 0 10.9287 0C5.40586 0 0.928711 4.50451 0.928711 10.0611C0.928711 15.0829 4.58557 19.2452 9.36621 20V12.9694H6.82715V10.0611H9.36621V7.84452C9.36621 5.32296 10.8591 3.93012 13.1434 3.93012C14.2374 3.93012 15.3818 4.12663 15.3818 4.12663V6.6026H14.1209C12.8786 6.6026 12.4912 7.37816 12.4912 8.17381V10.0611H15.2646L14.8213 12.9694H12.4912V20C17.2719 19.2452 20.9287 15.0829 20.9287 10.0611Z" fill="#0866FF"/>
<path d="M105.689 17.7343H108.668V12.9139L112.826 17.7343H116.471L111.631 12.1788L115.766 7.36173H112.448L108.668 11.8015V2L105.689 2.39052V17.7343ZM98.8174 7.09603C95.5097 7.09603 93.2128 9.32079 93.2128 12.5464C93.2128 15.772 95.5097 17.9968 98.8174 17.9968C102.125 17.9968 104.422 15.772 104.422 12.5464C104.422 9.32079 102.125 7.09603 98.8174 7.09603ZM98.8174 15.457C97.2849 15.457 96.235 14.2724 96.235 12.5464C96.235 10.8204 97.2849 9.63581 98.8174 9.63581C100.35 9.63581 101.4 10.8204 101.4 12.5464C101.4 14.2724 100.35 15.457 98.8174 15.457ZM86.709 7.09603C83.4014 7.09603 81.1044 9.32079 81.1044 12.5464C81.1044 15.772 83.4014 17.9968 86.709 17.9968C90.0167 17.9968 92.3136 15.772 92.3136 12.5464C92.3136 9.32079 90.0167 7.09603 86.709 7.09603ZM86.709 15.457C85.1767 15.457 84.1266 14.2724 84.1266 12.5464C84.1266 10.8204 85.1767 9.63581 86.709 9.63581C88.2415 9.63581 89.2914 10.8204 89.2914 12.5464C89.2914 14.2724 88.2415 15.457 86.709 15.457ZM75.3062 7.09603C73.928 7.09603 72.7861 7.63744 72.0707 8.62839V2L69.088 2.38718V17.731H71.7328L71.7852 16.1297C72.4908 17.3241 73.7541 17.9968 75.3062 17.9968C78.1348 17.9968 80.2053 15.6997 80.2053 12.5464C80.2053 9.39295 78.1446 7.09603 75.3062 7.09603ZM74.6007 15.457C73.0683 15.457 72.0183 14.2724 72.0183 12.5464C72.0183 10.8204 73.0683 9.63581 74.6007 9.63581C76.1331 9.63581 77.1832 10.8204 77.1832 12.5464C77.1832 14.2724 76.1331 15.457 74.6007 15.457ZM63.1158 15.5915C61.5342 15.5915 60.3989 14.8565 60.0117 13.5899H67.3521C67.4244 13.2027 67.4736 12.7433 67.4736 12.4348C67.4736 9.09764 65.6064 7.09603 62.4694 7.09603C59.3029 7.09603 57.1109 9.32079 57.1109 12.5464C57.1109 15.8147 59.4079 17.9968 62.8173 17.9968C64.5826 17.9968 66.2988 17.4061 67.3718 16.425L66.2988 14.535C65.2586 15.2535 64.238 15.5915 63.1158 15.5915ZM62.4497 9.41266C63.8279 9.41266 64.7073 10.2494 64.7073 11.5455V11.5554H59.9493C60.2348 10.1806 61.124 9.41266 62.4497 9.41266ZM52.4448 18C53.987 18 55.4965 17.4094 56.5596 16.3856L55.3947 14.4266C54.5678 15.0698 53.6294 15.4176 52.7401 15.4176C51.0863 15.4176 49.9837 14.2625 49.9837 12.5496C49.9837 10.8368 51.0863 9.68169 52.7401 9.68169C53.5571 9.68169 54.4464 9.97701 55.1683 10.4988L56.3529 8.4971C55.3947 7.63087 53.9116 7.09927 52.4415 7.09927C49.206 7.09927 46.9189 9.35687 46.9189 12.5496C46.9221 15.7326 49.2093 18 52.4448 18ZM42.9714 7.36173L42.9189 8.97626C42.2134 7.77196 40.9501 7.09927 39.398 7.09927C36.5596 7.09927 34.4988 9.39628 34.4988 12.5496C34.4988 15.7031 36.5727 18 39.398 18C40.9501 18 42.2166 17.3273 42.9189 16.1329L42.9714 17.7342H45.6162V7.36173H42.9714ZM40.1034 15.457C38.5711 15.457 37.521 14.2724 37.521 12.5464C37.521 10.8204 38.5711 9.63581 40.1034 9.63581C41.6359 9.63581 42.6859 10.8204 42.6859 12.5464C42.6859 14.2724 41.6326 15.457 40.1034 15.457ZM34.2757 7.38124H31.5948V6.4952C31.5948 5.16952 32.1133 4.66096 33.4587 4.66096C33.8754 4.66096 34.2133 4.67076 34.407 4.69047V2.41649C34.0394 2.31472 33.1436 2.21305 32.6252 2.21305C29.8852 2.21305 28.6219 3.50588 28.6219 6.29832V7.3779H26.9287V9.88494H28.6219V17.7308H31.5981V9.88817H33.8163L34.2757 7.38124Z" fill="#0866FF"/>
</svg>
