<svg width="87" height="20" viewBox="0 0 87 20" fill="none" xmlns="http://www.w3.org/2000/svg">
<g clip-path="url(#clip0_5061_18468)">
<path d="M1.82143 20H6.07143V9.71431L0 5.14288V18.1786C0 19.1786 0.821429 20 1.82143 20Z" fill="#4285F4"/>
<path d="M20.6069 20H24.8569C25.8569 20 26.6784 19.1786 26.6784 18.1786V5.14288L20.6069 9.6786" fill="#34A853"/>
<path d="M20.6069 1.82146V9.71431L26.6784 5.1786V2.71431C26.6784 0.464315 24.1069 -0.8214 22.3212 0.535743" fill="#FBBC04"/>
<path d="M6.07129 9.71433V1.82147L13.357 7.28576L20.607 1.82147V9.71433L13.3213 15.1429" fill="#EA4335"/>
<path d="M0 2.71431V5.14288L6.07143 9.6786V1.82145L4.35714 0.53574C2.57143 -0.785688 0 0.500026 0 2.71431Z" fill="#C5221F"/>
<path d="M51.9645 10.9286C51.9645 12.8929 51.3931 14.5 50.2145 15.6786C48.8931 17.0714 47.1431 17.7857 45.0002 17.7857C42.9288 17.7857 41.2145 17.0714 39.7859 15.6429C38.3574 14.2143 37.6431 12.4643 37.6431 10.3572C37.6431 8.28573 38.3574 6.50002 39.7859 5.07145C41.2145 3.64287 42.9645 2.92859 45.0002 2.92859C46.0359 2.92859 47.0359 3.10716 47.9645 3.50002C48.8931 3.85716 49.6431 4.39287 50.2502 5.07145L48.9288 6.39287C48.5002 5.85716 47.9288 5.4643 47.2502 5.14287C46.5716 4.85716 45.8216 4.7143 45.0359 4.7143C43.5002 4.7143 42.1788 5.25002 41.1074 6.32145C40.0359 7.39288 39.5359 8.75002 39.5359 10.3929C39.5359 12.0357 40.0716 13.3572 41.1074 14.4643C42.1788 15.5357 43.5002 16.0714 45.0359 16.0714C46.4645 16.0714 47.6074 15.6786 48.5716 14.8929C49.5002 14.1072 50.0359 13 50.1788 11.6072H45.0002V9.89288H51.8574C51.9288 10.2143 51.9645 10.5714 51.9645 10.9286Z" fill="#444746"/>
<path d="M55.6788 17.4286H53.8574V7.7143H55.6074V9.07145H55.6788C55.9646 8.60716 56.3931 8.2143 56.9646 7.89288C57.536 7.57145 58.1074 7.42859 58.6789 7.42859C59.3931 7.42859 60.036 7.60716 60.5717 7.92859C61.1074 8.25002 61.5003 8.7143 61.7503 9.28573C62.5717 8.03573 63.6789 7.42859 65.1074 7.42859C66.2146 7.42859 67.1074 7.78573 67.7146 8.4643C68.3217 9.14288 68.6431 10.1429 68.6431 11.3929V17.4643H66.786V11.6429C66.786 10.7143 66.6074 10.0714 66.286 9.67859C65.9646 9.28573 65.3931 9.07145 64.6074 9.07145C63.8931 9.07145 63.3217 9.35716 62.8574 9.9643C62.3931 10.5714 62.1431 11.25 62.1431 12.0714V17.4286H60.3217V11.6429C60.3217 10.7143 60.1431 10.0714 59.8217 9.67859C59.5003 9.28573 58.9289 9.07145 58.1431 9.07145C57.4289 9.07145 56.8574 9.35716 56.3931 9.9643C55.9288 10.5714 55.6788 11.25 55.6788 12.0714V17.4286Z" fill="#444746"/>
<path d="M74.3217 7.39288C75.6789 7.39288 76.7146 7.75003 77.5003 8.46431C78.286 9.1786 78.6788 10.1786 78.6788 11.4286V17.4286H76.9288V16.0715H76.8574C76.1074 17.1786 75.1074 17.75 73.8574 17.75C72.786 17.75 71.8931 17.4286 71.1789 16.7857C70.4646 16.1429 70.1074 15.3572 70.1074 14.3929C70.1074 13.3929 70.5003 12.6072 71.2503 12C72.0003 11.3929 73.036 11.1072 74.286 11.1072C75.3574 11.1072 76.2503 11.3215 76.9646 11.7143V11.2857C76.9646 10.6429 76.7146 10.1072 76.2146 9.6786C75.7146 9.25003 75.1074 9.00003 74.4646 9.00003C73.4646 9.00003 72.6431 9.4286 72.036 10.2857L70.4288 9.28574C71.286 8.03574 72.6074 7.39288 74.3217 7.39288ZM71.9646 14.4643C71.9646 14.9286 72.1788 15.3215 72.5717 15.6429C72.9646 15.9643 73.4288 16.1072 74.0003 16.1072C74.7503 16.1072 75.4646 15.8215 76.036 15.25C76.6431 14.6786 76.9288 14 76.9288 13.25C76.3574 12.7857 75.5717 12.5715 74.536 12.5715C73.786 12.5715 73.1788 12.75 72.6788 13.1072C72.2146 13.5 71.9646 13.9286 71.9646 14.4643Z" fill="#444746"/>
<path d="M83.1072 4.3929C83.1072 4.75004 82.9644 5.03576 82.7144 5.32147C82.4644 5.57147 82.1429 5.71433 81.7858 5.71433C81.4286 5.71433 81.1429 5.57147 80.8572 5.32147C80.6072 5.07147 80.4644 4.75004 80.4644 4.3929C80.4644 4.03576 80.6072 3.75004 80.8572 3.46433C81.1072 3.21433 81.4286 3.07147 81.7858 3.07147C82.1429 3.07147 82.4286 3.21433 82.7144 3.46433C82.9644 3.71433 83.1072 4.03576 83.1072 4.3929ZM82.7144 7.71433V17.4286H80.8929V7.71433H82.7144Z" fill="#444746"/>
<path d="M86.9288 3.25V17.4286H85.1074V3.25H86.9288Z" fill="#444746"/>
</g>
<defs>
<clipPath id="clip0_5061_18468">
<rect width="86.9286" height="20" fill="white"/>
</clipPath>
</defs>
</svg>
