<svg width="196" height="21" viewBox="0 0 196 21" fill="none" xmlns="http://www.w3.org/2000/svg">
<path d="M12.4998 3.33335V9.16669H4.30817L3.33317 10.1417V3.33335H12.4998ZM13.3332 1.66669H2.49984C2.0415 1.66669 1.6665 2.04169 1.6665 2.50002V14.1667L4.99984 10.8334H13.3332C13.7915 10.8334 14.1665 10.4584 14.1665 10V2.50002C14.1665 2.04169 13.7915 1.66669 13.3332 1.66669ZM17.4998 5.00002H15.8332V12.5H4.99984V14.1667C4.99984 14.625 5.37484 15 5.83317 15H14.9998L18.3332 18.3334V5.83335C18.3332 5.37502 17.9582 5.00002 17.4998 5.00002Z" fill="#417CE8"/>
<path d="M32.816 17.192C31.9733 17.192 31.1893 17.0373 30.464 16.728C29.7493 16.4187 29.12 15.992 28.576 15.448C28.0427 14.8933 27.6267 14.2427 27.328 13.496C27.0293 12.7493 26.88 11.928 26.88 11.032C26.88 10.1467 27.024 9.33067 27.312 8.584C27.6107 7.82667 28.0267 7.176 28.56 6.632C29.0933 6.07733 29.7173 5.65067 30.432 5.352C31.1467 5.04267 31.9307 4.888 32.784 4.888C33.6267 4.888 34.3787 5.032 35.04 5.32C35.712 5.608 36.2773 5.98667 36.736 6.456C37.1947 6.91467 37.5253 7.416 37.728 7.96L36.048 8.776C35.8027 8.12533 35.3973 7.60267 34.832 7.208C34.2667 6.80267 33.584 6.6 32.784 6.6C31.9947 6.6 31.296 6.78667 30.688 7.16C30.08 7.53333 29.6053 8.05067 29.264 8.712C28.9333 9.37333 28.768 10.1467 28.768 11.032C28.768 11.9173 28.9387 12.696 29.28 13.368C29.632 14.0293 30.112 14.5467 30.72 14.92C31.328 15.2827 32.0267 15.464 32.816 15.464C33.4773 15.464 34.08 15.3307 34.624 15.064C35.1787 14.7867 35.6213 14.4027 35.952 13.912C36.2827 13.4107 36.448 12.8293 36.448 12.168V11.352L37.296 12.12H32.784V10.52H38.32V11.64C38.32 12.5147 38.1707 13.2987 37.872 13.992C37.5733 14.6747 37.168 15.256 36.656 15.736C36.144 16.216 35.5573 16.5787 34.896 16.824C34.2347 17.0693 33.5413 17.192 32.816 17.192ZM44.2476 17.192C43.4156 17.192 42.653 16.9947 41.9596 16.6C41.277 16.2053 40.733 15.6667 40.3276 14.984C39.9223 14.3013 39.7196 13.528 39.7196 12.664C39.7196 11.7893 39.9223 11.016 40.3276 10.344C40.733 9.66133 41.277 9.128 41.9596 8.744C42.6423 8.34933 43.405 8.152 44.2476 8.152C45.101 8.152 45.8636 8.34933 46.5356 8.744C47.2183 9.128 47.757 9.66133 48.1516 10.344C48.557 11.016 48.7596 11.7893 48.7596 12.664C48.7596 13.5387 48.557 14.3173 48.1516 15C47.7463 15.6827 47.2023 16.2213 46.5196 16.616C45.837 17 45.0796 17.192 44.2476 17.192ZM44.2476 15.512C44.7596 15.512 45.213 15.3893 45.6076 15.144C46.0023 14.8987 46.3116 14.5627 46.5356 14.136C46.7703 13.6987 46.8876 13.208 46.8876 12.664C46.8876 12.12 46.7703 11.6347 46.5356 11.208C46.3116 10.7813 46.0023 10.4453 45.6076 10.2C45.213 9.95467 44.7596 9.832 44.2476 9.832C43.7463 9.832 43.293 9.95467 42.8876 10.2C42.493 10.4453 42.1783 10.7813 41.9436 11.208C41.7196 11.6347 41.6076 12.12 41.6076 12.664C41.6076 13.208 41.7196 13.6987 41.9436 14.136C42.1783 14.5627 42.493 14.8987 42.8876 15.144C43.293 15.3893 43.7463 15.512 44.2476 15.512ZM54.7008 17.192C53.8688 17.192 53.1061 16.9947 52.4128 16.6C51.7301 16.2053 51.1861 15.6667 50.7808 14.984C50.3754 14.3013 50.1728 13.528 50.1728 12.664C50.1728 11.7893 50.3754 11.016 50.7808 10.344C51.1861 9.66133 51.7301 9.128 52.4128 8.744C53.0954 8.34933 53.8581 8.152 54.7008 8.152C55.5541 8.152 56.3168 8.34933 56.9888 8.744C57.6714 9.128 58.2101 9.66133 58.6048 10.344C59.0101 11.016 59.2128 11.7893 59.2128 12.664C59.2128 13.5387 59.0101 14.3173 58.6048 15C58.1994 15.6827 57.6554 16.2213 56.9728 16.616C56.2901 17 55.5328 17.192 54.7008 17.192ZM54.7008 15.512C55.2128 15.512 55.6661 15.3893 56.0608 15.144C56.4554 14.8987 56.7648 14.5627 56.9888 14.136C57.2234 13.6987 57.3408 13.208 57.3408 12.664C57.3408 12.12 57.2234 11.6347 56.9888 11.208C56.7648 10.7813 56.4554 10.4453 56.0608 10.2C55.6661 9.95467 55.2128 9.832 54.7008 9.832C54.1994 9.832 53.7461 9.95467 53.3408 10.2C52.9461 10.4453 52.6314 10.7813 52.3968 11.208C52.1728 11.6347 52.0608 12.12 52.0608 12.664C52.0608 13.208 52.1728 13.6987 52.3968 14.136C52.6314 14.5627 52.9461 14.8987 53.3408 15.144C53.7461 15.3893 54.1994 15.512 54.7008 15.512ZM65.1539 20.52C64.5245 20.52 63.9432 20.4187 63.4099 20.216C62.8765 20.0133 62.4179 19.7307 62.0339 19.368C61.6499 19.016 61.3619 18.6 61.1699 18.12L62.8339 17.432C62.9832 17.8373 63.2552 18.1733 63.6499 18.44C64.0552 18.7067 64.5512 18.84 65.1379 18.84C65.5965 18.84 66.0072 18.7493 66.3699 18.568C66.7325 18.3973 67.0205 18.1413 67.2339 17.8C67.4472 17.4693 67.5539 17.0693 67.5539 16.6V14.648L67.8739 15.016C67.5752 15.5707 67.1592 15.992 66.6259 16.28C66.1032 16.568 65.5112 16.712 64.8499 16.712C64.0499 16.712 63.3299 16.5253 62.6899 16.152C62.0499 15.7787 61.5432 15.2667 61.1699 14.616C60.8072 13.9653 60.6259 13.2347 60.6259 12.424C60.6259 11.6027 60.8072 10.872 61.1699 10.232C61.5432 9.592 62.0445 9.08533 62.6739 8.712C63.3032 8.33867 64.0232 8.152 64.8339 8.152C65.4952 8.152 66.0819 8.296 66.5939 8.584C67.1165 8.86133 67.5432 9.26667 67.8739 9.8L67.6339 10.248V8.344H69.3459V16.6C69.3459 17.3467 69.1645 18.0133 68.8019 18.6C68.4499 19.1973 67.9592 19.6667 67.3299 20.008C66.7005 20.3493 65.9752 20.52 65.1539 20.52ZM65.0579 15.032C65.5379 15.032 65.9645 14.92 66.3379 14.696C66.7112 14.4613 67.0045 14.152 67.2179 13.768C67.4419 13.3733 67.5539 12.9307 67.5539 12.44C67.5539 11.9493 67.4419 11.5067 67.2179 11.112C66.9939 10.7173 66.6952 10.408 66.3219 10.184C65.9485 9.94933 65.5272 9.832 65.0579 9.832C64.5672 9.832 64.1299 9.94933 63.7459 10.184C63.3619 10.408 63.0579 10.7173 62.8339 11.112C62.6205 11.496 62.5139 11.9387 62.5139 12.44C62.5139 12.92 62.6205 13.3573 62.8339 13.752C63.0579 14.1467 63.3619 14.4613 63.7459 14.696C64.1299 14.92 64.5672 15.032 65.0579 15.032ZM71.4622 17V4.888H73.2703V17H71.4622ZM79.4481 17.192C78.5841 17.192 77.8161 16.9947 77.1441 16.6C76.4828 16.1947 75.9655 15.6507 75.5921 14.968C75.2188 14.2747 75.0321 13.5013 75.0321 12.648C75.0321 11.7733 75.2188 11 75.5921 10.328C75.9761 9.656 76.4881 9.128 77.1281 8.744C77.7681 8.34933 78.4935 8.152 79.3041 8.152C79.9548 8.152 80.5361 8.264 81.0481 8.488C81.5601 8.712 81.9921 9.02133 82.3441 9.416C82.6961 9.8 82.9628 10.2427 83.1441 10.744C83.3361 11.2453 83.4321 11.7787 83.4321 12.344C83.4321 12.4827 83.4268 12.6267 83.4161 12.776C83.4055 12.9253 83.3841 13.064 83.3521 13.192H76.4561V11.752H82.3281L81.4641 12.408C81.5708 11.8853 81.5335 11.4213 81.3521 11.016C81.1815 10.6 80.9148 10.2747 80.5521 10.04C80.2001 9.79467 79.7841 9.672 79.3041 9.672C78.8241 9.672 78.3975 9.79467 78.0241 10.04C77.6508 10.2747 77.3628 10.616 77.1601 11.064C76.9575 11.5013 76.8775 12.0347 76.9201 12.664C76.8668 13.2507 76.9468 13.7627 77.1601 14.2C77.3841 14.6373 77.6935 14.9787 78.0881 15.224C78.4935 15.4693 78.9521 15.592 79.4641 15.592C79.9868 15.592 80.4295 15.4747 80.7921 15.24C81.1655 15.0053 81.4588 14.7013 81.6721 14.328L83.1441 15.048C82.9735 15.4533 82.7068 15.8213 82.3441 16.152C81.9921 16.472 81.5655 16.728 81.0641 16.92C80.5735 17.1013 80.0348 17.192 79.4481 17.192ZM88.1695 17V5.08H93.1935C93.9402 5.08 94.5855 5.21333 95.1295 5.48C95.6735 5.736 96.0895 6.10933 96.3775 6.6C96.6655 7.08 96.8095 7.65067 96.8095 8.312C96.8095 8.888 96.6602 9.416 96.3615 9.896C96.0735 10.3653 95.6202 10.7387 95.0015 11.016V10.216C95.5455 10.4293 95.9882 10.7013 96.3295 11.032C96.6708 11.352 96.9162 11.7147 97.0655 12.12C97.2255 12.5253 97.3055 12.952 97.3055 13.4C97.3055 14.52 96.9375 15.4 96.2015 16.04C95.4762 16.68 94.4788 17 93.2095 17H88.1695ZM90.0575 15.32H93.3535C93.9828 15.32 94.4842 15.1493 94.8575 14.808C95.2308 14.456 95.4175 13.992 95.4175 13.416C95.4175 12.8293 95.2308 12.3653 94.8575 12.024C94.4842 11.672 93.9828 11.496 93.3535 11.496H90.0575V15.32ZM90.0575 9.832H93.2415C93.7535 9.832 94.1642 9.688 94.4735 9.4C94.7828 9.10133 94.9375 8.712 94.9375 8.232C94.9375 7.752 94.7828 7.37867 94.4735 7.112C94.1642 6.84533 93.7535 6.712 93.2415 6.712H90.0575V9.832ZM102.16 17.192C101.509 17.192 100.938 17.048 100.448 16.76C99.957 16.4613 99.573 16.0507 99.2956 15.528C99.029 14.9947 98.8956 14.3813 98.8956 13.688V8.344H100.704V13.528C100.704 13.9227 100.784 14.2693 100.944 14.568C101.104 14.8667 101.328 15.1013 101.616 15.272C101.904 15.432 102.234 15.512 102.608 15.512C102.992 15.512 103.328 15.4267 103.616 15.256C103.904 15.0853 104.128 14.8453 104.288 14.536C104.458 14.2267 104.544 13.864 104.544 13.448V8.344H106.336V17H104.624V15.304L104.816 15.528C104.613 16.0613 104.277 16.472 103.808 16.76C103.338 17.048 102.789 17.192 102.16 17.192ZM111.647 17.192C110.761 17.192 109.983 16.9733 109.311 16.536C108.649 16.0987 108.185 15.512 107.919 14.776L109.311 14.12C109.545 14.6107 109.865 15 110.271 15.288C110.687 15.576 111.145 15.72 111.647 15.72C112.073 15.72 112.42 15.624 112.687 15.432C112.953 15.24 113.087 14.9787 113.087 14.648C113.087 14.4347 113.028 14.264 112.911 14.136C112.793 13.9973 112.644 13.8853 112.463 13.8C112.292 13.7147 112.116 13.6507 111.935 13.608L110.575 13.224C109.828 13.0107 109.268 12.6907 108.895 12.264C108.532 11.8267 108.351 11.32 108.351 10.744C108.351 10.2213 108.484 9.768 108.751 9.384C109.017 8.98933 109.385 8.68533 109.855 8.472C110.324 8.25867 110.852 8.152 111.439 8.152C112.228 8.152 112.932 8.34933 113.551 8.744C114.169 9.128 114.607 9.66667 114.863 10.36L113.471 11.016C113.3 10.6 113.028 10.2693 112.655 10.024C112.292 9.77867 111.881 9.656 111.423 9.656C111.028 9.656 110.713 9.752 110.479 9.944C110.244 10.1253 110.127 10.3653 110.127 10.664C110.127 10.8667 110.18 11.0373 110.287 11.176C110.393 11.304 110.532 11.4107 110.703 11.496C110.873 11.5707 111.049 11.6347 111.231 11.688L112.639 12.104C113.353 12.3067 113.903 12.6267 114.287 13.064C114.671 13.4907 114.863 14.0027 114.863 14.6C114.863 15.112 114.724 15.5653 114.447 15.96C114.18 16.344 113.807 16.648 113.327 16.872C112.847 17.0853 112.287 17.192 111.647 17.192ZM116.634 17V8.344H118.442V17H116.634ZM116.634 7.16V5.08H118.442V7.16H116.634ZM120.556 17V8.344H122.284V10.04L122.076 9.816C122.289 9.272 122.631 8.86133 123.1 8.584C123.569 8.296 124.113 8.152 124.732 8.152C125.372 8.152 125.937 8.29067 126.428 8.568C126.919 8.84533 127.303 9.22933 127.58 9.72C127.857 10.2107 127.996 10.776 127.996 11.416V17H126.204V11.896C126.204 11.4587 126.124 11.0907 125.964 10.792C125.804 10.4827 125.575 10.248 125.276 10.088C124.988 9.91733 124.657 9.832 124.284 9.832C123.911 9.832 123.575 9.91733 123.276 10.088C122.988 10.248 122.764 10.4827 122.604 10.792C122.444 11.1013 122.364 11.4693 122.364 11.896V17H120.556ZM133.995 17.192C133.131 17.192 132.363 16.9947 131.691 16.6C131.03 16.1947 130.512 15.6507 130.139 14.968C129.766 14.2747 129.579 13.5013 129.579 12.648C129.579 11.7733 129.766 11 130.139 10.328C130.523 9.656 131.035 9.128 131.675 8.744C132.315 8.34933 133.04 8.152 133.851 8.152C134.502 8.152 135.083 8.264 135.595 8.488C136.107 8.712 136.539 9.02133 136.891 9.416C137.243 9.8 137.51 10.2427 137.691 10.744C137.883 11.2453 137.979 11.7787 137.979 12.344C137.979 12.4827 137.974 12.6267 137.963 12.776C137.952 12.9253 137.931 13.064 137.899 13.192H131.003V11.752H136.875L136.011 12.408C136.118 11.8853 136.08 11.4213 135.899 11.016C135.728 10.6 135.462 10.2747 135.099 10.04C134.747 9.79467 134.331 9.672 133.851 9.672C133.371 9.672 132.944 9.79467 132.571 10.04C132.198 10.2747 131.91 10.616 131.707 11.064C131.504 11.5013 131.424 12.0347 131.467 12.664C131.414 13.2507 131.494 13.7627 131.707 14.2C131.931 14.6373 132.24 14.9787 132.635 15.224C133.04 15.4693 133.499 15.592 134.011 15.592C134.534 15.592 134.976 15.4747 135.339 15.24C135.712 15.0053 136.006 14.7013 136.219 14.328L137.691 15.048C137.52 15.4533 137.254 15.8213 136.891 16.152C136.539 16.472 136.112 16.728 135.611 16.92C135.12 17.1013 134.582 17.192 133.995 17.192ZM142.944 17.192C142.058 17.192 141.28 16.9733 140.608 16.536C139.946 16.0987 139.482 15.512 139.215 14.776L140.608 14.12C140.842 14.6107 141.162 15 141.568 15.288C141.984 15.576 142.442 15.72 142.944 15.72C143.37 15.72 143.717 15.624 143.984 15.432C144.25 15.24 144.384 14.9787 144.384 14.648C144.384 14.4347 144.325 14.264 144.208 14.136C144.09 13.9973 143.941 13.8853 143.76 13.8C143.589 13.7147 143.413 13.6507 143.232 13.608L141.872 13.224C141.125 13.0107 140.565 12.6907 140.192 12.264C139.829 11.8267 139.648 11.32 139.648 10.744C139.648 10.2213 139.781 9.768 140.048 9.384C140.314 8.98933 140.682 8.68533 141.152 8.472C141.621 8.25867 142.149 8.152 142.736 8.152C143.525 8.152 144.229 8.34933 144.848 8.744C145.466 9.128 145.904 9.66667 146.16 10.36L144.768 11.016C144.597 10.6 144.325 10.2693 143.952 10.024C143.589 9.77867 143.178 9.656 142.72 9.656C142.325 9.656 142.01 9.752 141.776 9.944C141.541 10.1253 141.424 10.3653 141.424 10.664C141.424 10.8667 141.477 11.0373 141.584 11.176C141.69 11.304 141.829 11.4107 142 11.496C142.17 11.5707 142.346 11.6347 142.528 11.688L143.936 12.104C144.65 12.3067 145.2 12.6267 145.584 13.064C145.968 13.4907 146.16 14.0027 146.16 14.6C146.16 15.112 146.021 15.5653 145.744 15.96C145.477 16.344 145.104 16.648 144.624 16.872C144.144 17.0853 143.584 17.192 142.944 17.192ZM151.131 17.192C150.246 17.192 149.467 16.9733 148.795 16.536C148.134 16.0987 147.67 15.512 147.403 14.776L148.795 14.12C149.03 14.6107 149.35 15 149.755 15.288C150.171 15.576 150.63 15.72 151.131 15.72C151.558 15.72 151.904 15.624 152.171 15.432C152.438 15.24 152.571 14.9787 152.571 14.648C152.571 14.4347 152.512 14.264 152.395 14.136C152.278 13.9973 152.128 13.8853 151.947 13.8C151.776 13.7147 151.6 13.6507 151.419 13.608L150.059 13.224C149.312 13.0107 148.752 12.6907 148.379 12.264C148.016 11.8267 147.835 11.32 147.835 10.744C147.835 10.2213 147.968 9.768 148.235 9.384C148.502 8.98933 148.87 8.68533 149.339 8.472C149.808 8.25867 150.336 8.152 150.923 8.152C151.712 8.152 152.416 8.34933 153.035 8.744C153.654 9.128 154.091 9.66667 154.347 10.36L152.955 11.016C152.784 10.6 152.512 10.2693 152.139 10.024C151.776 9.77867 151.366 9.656 150.907 9.656C150.512 9.656 150.198 9.752 149.963 9.944C149.728 10.1253 149.611 10.3653 149.611 10.664C149.611 10.8667 149.664 11.0373 149.771 11.176C149.878 11.304 150.016 11.4107 150.187 11.496C150.358 11.5707 150.534 11.6347 150.715 11.688L152.123 12.104C152.838 12.3067 153.387 12.6267 153.771 13.064C154.155 13.4907 154.347 14.0027 154.347 14.6C154.347 15.112 154.208 15.5653 153.931 15.96C153.664 16.344 153.291 16.648 152.811 16.872C152.331 17.0853 151.771 17.192 151.131 17.192ZM164.643 17.192C163.801 17.192 163.017 17.0373 162.291 16.728C161.577 16.4187 160.953 15.992 160.419 15.448C159.897 14.8933 159.486 14.2427 159.187 13.496C158.889 12.7493 158.739 11.928 158.739 11.032C158.739 10.1467 158.883 9.33067 159.171 8.584C159.47 7.82667 159.886 7.176 160.419 6.632C160.953 6.07733 161.577 5.65067 162.291 5.352C163.006 5.04267 163.79 4.888 164.643 4.888C165.486 4.888 166.238 5.032 166.899 5.32C167.571 5.608 168.137 5.98667 168.595 6.456C169.054 6.91467 169.385 7.416 169.587 7.96L167.891 8.76C167.635 8.12 167.225 7.60267 166.659 7.208C166.105 6.80267 165.433 6.6 164.643 6.6C163.854 6.6 163.155 6.78667 162.547 7.16C161.939 7.53333 161.465 8.05067 161.123 8.712C160.793 9.37333 160.627 10.1467 160.627 11.032C160.627 11.9173 160.793 12.696 161.123 13.368C161.465 14.0293 161.939 14.5467 162.547 14.92C163.155 15.2827 163.854 15.464 164.643 15.464C165.433 15.464 166.105 15.2667 166.659 14.872C167.225 14.4773 167.635 13.96 167.891 13.32L169.587 14.12C169.385 14.6533 169.054 15.1547 168.595 15.624C168.137 16.0933 167.571 16.472 166.899 16.76C166.238 17.048 165.486 17.192 164.643 17.192ZM171.353 17V4.888H173.161V10.04L172.873 9.816C173.086 9.272 173.428 8.86133 173.897 8.584C174.366 8.296 174.91 8.152 175.529 8.152C176.169 8.152 176.734 8.29067 177.225 8.568C177.716 8.84533 178.1 9.22933 178.377 9.72C178.654 10.2107 178.793 10.7707 178.793 11.4V17H177.001V11.896C177.001 11.4587 176.916 11.0907 176.745 10.792C176.585 10.4827 176.361 10.248 176.073 10.088C175.785 9.91733 175.454 9.832 175.081 9.832C174.718 9.832 174.388 9.91733 174.089 10.088C173.801 10.248 173.572 10.4827 173.401 10.792C173.241 11.1013 173.161 11.4693 173.161 11.896V17H171.353ZM183.32 17.192C182.733 17.192 182.216 17.0907 181.768 16.888C181.331 16.6747 180.989 16.3867 180.744 16.024C180.499 15.6507 180.376 15.2133 180.376 14.712C180.376 14.2427 180.477 13.8213 180.68 13.448C180.893 13.0747 181.219 12.76 181.656 12.504C182.093 12.248 182.643 12.0667 183.304 11.96L186.312 11.464V12.888L183.656 13.352C183.176 13.4373 182.824 13.592 182.6 13.816C182.376 14.0293 182.264 14.3067 182.264 14.648C182.264 14.9787 182.387 15.2507 182.632 15.464C182.888 15.6667 183.213 15.768 183.608 15.768C184.099 15.768 184.525 15.6613 184.888 15.448C185.261 15.2347 185.549 14.952 185.752 14.6C185.955 14.2373 186.056 13.8373 186.056 13.4V11.176C186.056 10.7493 185.896 10.4027 185.576 10.136C185.267 9.85867 184.851 9.72 184.328 9.72C183.848 9.72 183.427 9.848 183.064 10.104C182.712 10.3493 182.451 10.6693 182.28 11.064L180.776 10.312C180.936 9.88533 181.197 9.512 181.56 9.192C181.923 8.86133 182.344 8.60533 182.824 8.424C183.315 8.24267 183.832 8.152 184.376 8.152C185.059 8.152 185.661 8.28 186.184 8.536C186.717 8.792 187.128 9.14933 187.416 9.608C187.715 10.056 187.864 10.5787 187.864 11.176V17H186.136V15.432L186.504 15.48C186.301 15.832 186.04 16.136 185.72 16.392C185.411 16.648 185.053 16.8453 184.648 16.984C184.253 17.1227 183.811 17.192 183.32 17.192ZM193.566 17.096C192.659 17.096 191.955 16.84 191.454 16.328C190.952 15.816 190.702 15.096 190.702 14.168V9.976H189.182V8.344H189.422C189.827 8.344 190.142 8.22667 190.366 7.992C190.59 7.75733 190.702 7.43733 190.702 7.032V6.36H192.51V8.344H194.478V9.976H192.51V14.088C192.51 14.3867 192.558 14.6427 192.654 14.856C192.75 15.0587 192.904 15.2187 193.118 15.336C193.331 15.4427 193.608 15.496 193.95 15.496C194.035 15.496 194.131 15.4907 194.238 15.48C194.344 15.4693 194.446 15.4587 194.542 15.448V17C194.392 17.0213 194.227 17.0427 194.046 17.064C193.864 17.0853 193.704 17.096 193.566 17.096Z" fill="#212528"/>
</svg>
