<svg width="98" height="21" viewBox="0 0 98 21" fill="none" xmlns="http://www.w3.org/2000/svg">
<path d="M10 20C15.5228 20 20 15.5228 20 10C20 4.47715 15.5228 0 10 0C4.47715 0 0 4.47715 0 10C0 15.5228 4.47715 20 10 20Z" fill="url(#paint0_linear_5061_18406)"/>
<path d="M3.96276 9.79497C6.13856 8.87956 8.32027 7.97827 10.5078 7.09113C13.6241 5.8488 14.0578 5.66747 14.4791 5.66113C14.6601 5.66682 14.8343 5.73136 14.9753 5.84497C15.1516 5.99497 15.2053 6.08997 15.2203 6.17363C15.2341 6.25747 15.2328 6.51863 15.2178 6.66747C15.0489 8.36863 14.4078 12.2975 14.0364 14.205C13.8789 15.0111 13.5689 15.2811 13.2689 15.3075C12.6178 15.365 12.1228 14.895 11.4916 14.4975C10.5041 13.8761 10.1741 13.6475 9.21659 13.0413C8.10776 12.3413 8.56392 12.0975 9.19526 11.4686C9.36026 11.305 12.0978 8.8063 12.1389 8.57863C12.1739 8.37863 12.1866 8.35247 12.0966 8.26247C12.0053 8.17247 11.8966 8.18363 11.8266 8.19863C11.7266 8.21997 10.2191 9.17363 7.30159 11.0613C6.85409 11.3575 6.44909 11.5013 6.08526 11.4938C5.68526 11.485 4.91409 11.2763 4.34159 11.0975C3.63776 10.8775 3.07909 10.7625 3.12909 10.39C3.15409 10.1961 3.43142 9.99747 3.96276 9.79497Z" fill="white"/>
<path d="M29.344 17V6.76H26.176V5.08H34.336V6.76H31.216V17H29.344ZM38.5106 17.192C37.6466 17.192 36.8786 16.9947 36.2066 16.6C35.5453 16.1947 35.028 15.6507 34.6546 14.968C34.2813 14.2747 34.0946 13.5013 34.0946 12.648C34.0946 11.7733 34.2813 11 34.6546 10.328C35.0386 9.656 35.5506 9.128 36.1906 8.744C36.8306 8.34933 37.556 8.152 38.3666 8.152C39.0173 8.152 39.5986 8.264 40.1106 8.488C40.6226 8.712 41.0546 9.02133 41.4066 9.416C41.7586 9.8 42.0253 10.2427 42.2066 10.744C42.3986 11.2453 42.4946 11.7787 42.4946 12.344C42.4946 12.4827 42.4893 12.6267 42.4786 12.776C42.468 12.9253 42.4466 13.064 42.4146 13.192H35.5186V11.752H41.3906L40.5266 12.408C40.6333 11.8853 40.596 11.4213 40.4146 11.016C40.244 10.6 39.9773 10.2747 39.6146 10.04C39.2626 9.79467 38.8466 9.672 38.3666 9.672C37.8866 9.672 37.46 9.79467 37.0866 10.04C36.7133 10.2747 36.4253 10.616 36.2226 11.064C36.02 11.5013 35.94 12.0347 35.9826 12.664C35.9293 13.2507 36.0093 13.7627 36.2226 14.2C36.4466 14.6373 36.756 14.9787 37.1506 15.224C37.556 15.4693 38.0146 15.592 38.5266 15.592C39.0493 15.592 39.492 15.4747 39.8546 15.24C40.228 15.0053 40.5213 14.7013 40.7346 14.328L42.2066 15.048C42.036 15.4533 41.7693 15.8213 41.4066 16.152C41.0546 16.472 40.628 16.728 40.1266 16.92C39.636 17.1013 39.0973 17.192 38.5106 17.192ZM44.2591 17V4.888H46.0671V17H44.2591ZM52.245 17.192C51.381 17.192 50.613 16.9947 49.941 16.6C49.2797 16.1947 48.7623 15.6507 48.389 14.968C48.0157 14.2747 47.829 13.5013 47.829 12.648C47.829 11.7733 48.0157 11 48.389 10.328C48.773 9.656 49.285 9.128 49.925 8.744C50.565 8.34933 51.2903 8.152 52.101 8.152C52.7517 8.152 53.333 8.264 53.845 8.488C54.357 8.712 54.789 9.02133 55.141 9.416C55.493 9.8 55.7597 10.2427 55.941 10.744C56.133 11.2453 56.229 11.7787 56.229 12.344C56.229 12.4827 56.2237 12.6267 56.213 12.776C56.2023 12.9253 56.181 13.064 56.149 13.192H49.253V11.752H55.125L54.261 12.408C54.3677 11.8853 54.3303 11.4213 54.149 11.016C53.9783 10.6 53.7117 10.2747 53.349 10.04C52.997 9.79467 52.581 9.672 52.101 9.672C51.621 9.672 51.1943 9.79467 50.821 10.04C50.4477 10.2747 50.1597 10.616 49.957 11.064C49.7543 11.5013 49.6743 12.0347 49.717 12.664C49.6637 13.2507 49.7437 13.7627 49.957 14.2C50.181 14.6373 50.4903 14.9787 50.885 15.224C51.2903 15.4693 51.749 15.592 52.261 15.592C52.7837 15.592 53.2263 15.4747 53.589 15.24C53.9623 15.0053 54.2557 14.7013 54.469 14.328L55.941 15.048C55.7703 15.4533 55.5037 15.8213 55.141 16.152C54.789 16.472 54.3623 16.728 53.861 16.92C53.3703 17.1013 52.8317 17.192 52.245 17.192ZM62.1695 20.52C61.5402 20.52 60.9588 20.4187 60.4255 20.216C59.8922 20.0133 59.4335 19.7307 59.0495 19.368C58.6655 19.016 58.3775 18.6 58.1855 18.12L59.8495 17.432C59.9988 17.8373 60.2708 18.1733 60.6655 18.44C61.0708 18.7067 61.5668 18.84 62.1535 18.84C62.6122 18.84 63.0228 18.7493 63.3855 18.568C63.7482 18.3973 64.0362 18.1413 64.2495 17.8C64.4628 17.4693 64.5695 17.0693 64.5695 16.6V14.648L64.8895 15.016C64.5908 15.5707 64.1748 15.992 63.6415 16.28C63.1188 16.568 62.5268 16.712 61.8655 16.712C61.0655 16.712 60.3455 16.5253 59.7055 16.152C59.0655 15.7787 58.5588 15.2667 58.1855 14.616C57.8228 13.9653 57.6415 13.2347 57.6415 12.424C57.6415 11.6027 57.8228 10.872 58.1855 10.232C58.5588 9.592 59.0602 9.08533 59.6895 8.712C60.3188 8.33867 61.0388 8.152 61.8495 8.152C62.5108 8.152 63.0975 8.296 63.6095 8.584C64.1322 8.86133 64.5588 9.26667 64.8895 9.8L64.6495 10.248V8.344H66.3615V16.6C66.3615 17.3467 66.1802 18.0133 65.8175 18.6C65.4655 19.1973 64.9748 19.6667 64.3455 20.008C63.7162 20.3493 62.9908 20.52 62.1695 20.52ZM62.0735 15.032C62.5535 15.032 62.9802 14.92 63.3535 14.696C63.7268 14.4613 64.0202 14.152 64.2335 13.768C64.4575 13.3733 64.5695 12.9307 64.5695 12.44C64.5695 11.9493 64.4575 11.5067 64.2335 11.112C64.0095 10.7173 63.7108 10.408 63.3375 10.184C62.9642 9.94933 62.5428 9.832 62.0735 9.832C61.5828 9.832 61.1455 9.94933 60.7615 10.184C60.3775 10.408 60.0735 10.7173 59.8495 11.112C59.6362 11.496 59.5295 11.9387 59.5295 12.44C59.5295 12.92 59.6362 13.3573 59.8495 13.752C60.0735 14.1467 60.3775 14.4613 60.7615 14.696C61.1455 14.92 61.5828 15.032 62.0735 15.032ZM68.4779 17V8.344H70.2059V10.088L70.0459 9.832C70.2379 9.26667 70.5472 8.86133 70.9739 8.616C71.4005 8.36 71.9125 8.232 72.5099 8.232H73.0379V9.88H72.2859C71.6885 9.88 71.2032 10.0667 70.8299 10.44C70.4672 10.8027 70.2859 11.3253 70.2859 12.008V17H68.4779ZM76.8668 17.192C76.2801 17.192 75.7628 17.0907 75.3148 16.888C74.8774 16.6747 74.5361 16.3867 74.2908 16.024C74.0454 15.6507 73.9228 15.2133 73.9228 14.712C73.9228 14.2427 74.0241 13.8213 74.2268 13.448C74.4401 13.0747 74.7654 12.76 75.2028 12.504C75.6401 12.248 76.1894 12.0667 76.8508 11.96L79.8588 11.464V12.888L77.2028 13.352C76.7228 13.4373 76.3708 13.592 76.1468 13.816C75.9228 14.0293 75.8108 14.3067 75.8108 14.648C75.8108 14.9787 75.9334 15.2507 76.1788 15.464C76.4348 15.6667 76.7601 15.768 77.1548 15.768C77.6454 15.768 78.0721 15.6613 78.4348 15.448C78.8081 15.2347 79.0961 14.952 79.2988 14.6C79.5014 14.2373 79.6028 13.8373 79.6028 13.4V11.176C79.6028 10.7493 79.4428 10.4027 79.1228 10.136C78.8134 9.85867 78.3974 9.72 77.8748 9.72C77.3948 9.72 76.9734 9.848 76.6108 10.104C76.2588 10.3493 75.9974 10.6693 75.8268 11.064L74.3228 10.312C74.4828 9.88533 74.7441 9.512 75.1068 9.192C75.4694 8.86133 75.8908 8.60533 76.3708 8.424C76.8614 8.24267 77.3788 8.152 77.9227 8.152C78.6054 8.152 79.2081 8.28 79.7308 8.536C80.2641 8.792 80.6748 9.14933 80.9628 9.608C81.2614 10.056 81.4108 10.5787 81.4108 11.176V17H79.6828V15.432L80.0508 15.48C79.8481 15.832 79.5868 16.136 79.2668 16.392C78.9574 16.648 78.6001 16.8453 78.1948 16.984C77.8001 17.1227 77.3574 17.192 76.8668 17.192ZM83.5247 17V8.344H85.2528V10.216L85.0288 9.928C85.2101 9.34133 85.5408 8.89867 86.0208 8.6C86.5008 8.30133 87.0501 8.152 87.6688 8.152C88.3621 8.152 88.9754 8.33867 89.5088 8.712C90.0528 9.07467 90.4154 9.56 90.5968 10.168L90.0848 10.216C90.3408 9.52267 90.7301 9.00533 91.2528 8.664C91.7861 8.32267 92.3941 8.152 93.0768 8.152C93.6741 8.152 94.2128 8.29067 94.6928 8.568C95.1834 8.84533 95.5728 9.22933 95.8608 9.72C96.1488 10.2107 96.2928 10.7707 96.2928 11.4V17H94.4848V11.896C94.4848 11.4587 94.4048 11.0907 94.2448 10.792C94.0954 10.4827 93.8821 10.248 93.6048 10.088C93.3381 9.91733 93.0234 9.832 92.6608 9.832C92.2981 9.832 91.9781 9.91733 91.7008 10.088C91.4234 10.248 91.2048 10.4827 91.0448 10.792C90.8848 11.1013 90.8048 11.4693 90.8048 11.896V17H89.0128V11.896C89.0128 11.4587 88.9328 11.0907 88.7728 10.792C88.6234 10.4827 88.4101 10.248 88.1328 10.088C87.8661 9.91733 87.5461 9.832 87.1727 9.832C86.8101 9.832 86.4901 9.91733 86.2128 10.088C85.9354 10.248 85.7168 10.4827 85.5568 10.792C85.4074 11.1013 85.3328 11.4693 85.3328 11.896V17H83.5247Z" fill="#212528"/>
<defs>
<linearGradient id="paint0_linear_5061_18406" x1="1000" y1="0" x2="1000" y2="2000" gradientUnits="userSpaceOnUse">
<stop stop-color="#38AEEB"/>
<stop offset="1" stop-color="#279AD1"/>
</linearGradient>
</defs>
</svg>
