<svg width="80" height="20" viewBox="0 0 80 20" fill="none" xmlns="http://www.w3.org/2000/svg">
<path d="M15.2032 1.875H17.9599L11.9374 8.75833L19.0224 18.125H13.4749L9.1299 12.4442L4.15826 18.125H1.39992L7.84159 10.7625L1.04492 1.875H6.73326L10.6607 7.0675L15.2032 1.875ZM14.2357 16.475H15.7632L5.90325 3.43833H4.26409L14.2357 16.475Z" fill="black"/>
<path d="M29.344 17V6.76H26.176V5.08H34.336V6.76H31.216V17H29.344ZM37.027 17L34.051 8.344H35.971L38.243 15.24H37.571L39.891 8.344H41.539L43.843 15.24H43.171L45.459 8.344H47.379L44.387 17H42.755L40.419 9.944H41.011L38.675 17H37.027ZM48.6185 17V8.344H50.4265V17H48.6185ZM48.6185 7.16V5.08H50.4265V7.16H48.6185ZM56.2844 17.096C55.3777 17.096 54.6737 16.84 54.1724 16.328C53.671 15.816 53.4204 15.096 53.4204 14.168V9.976H51.9004V8.344H52.1404C52.5457 8.344 52.8604 8.22667 53.0844 7.992C53.3084 7.75733 53.4204 7.43733 53.4204 7.032V6.36H55.2284V8.344H57.1964V9.976H55.2284V14.088C55.2284 14.3867 55.2764 14.6427 55.3724 14.856C55.4684 15.0587 55.623 15.2187 55.8364 15.336C56.0497 15.4427 56.327 15.496 56.6684 15.496C56.7537 15.496 56.8497 15.4907 56.9564 15.48C57.063 15.4693 57.1644 15.4587 57.2604 15.448V17C57.111 17.0213 56.9457 17.0427 56.7644 17.064C56.583 17.0853 56.423 17.096 56.2844 17.096ZM62.7688 17.096C61.8621 17.096 61.1581 16.84 60.6568 16.328C60.1554 15.816 59.9048 15.096 59.9048 14.168V9.976H58.3848V8.344H58.6248C59.0301 8.344 59.3448 8.22667 59.5688 7.992C59.7928 7.75733 59.9048 7.43733 59.9048 7.032V6.36H61.7128V8.344H63.6808V9.976H61.7128V14.088C61.7128 14.3867 61.7608 14.6427 61.8568 14.856C61.9528 15.0587 62.1074 15.2187 62.3208 15.336C62.5341 15.4427 62.8114 15.496 63.1528 15.496C63.2381 15.496 63.3341 15.4907 63.4408 15.48C63.5474 15.4693 63.6488 15.4587 63.7448 15.448V17C63.5954 17.0213 63.4301 17.0427 63.2488 17.064C63.0674 17.0853 62.9074 17.096 62.7688 17.096ZM69.4169 17.192C68.5529 17.192 67.7849 16.9947 67.1129 16.6C66.4515 16.1947 65.9342 15.6507 65.5609 14.968C65.1875 14.2747 65.0009 13.5013 65.0009 12.648C65.0009 11.7733 65.1875 11 65.5609 10.328C65.9449 9.656 66.4569 9.128 67.0969 8.744C67.7369 8.34933 68.4622 8.152 69.2729 8.152C69.9235 8.152 70.5049 8.264 71.0169 8.488C71.5289 8.712 71.9609 9.02133 72.3129 9.416C72.6649 9.8 72.9315 10.2427 73.1129 10.744C73.3049 11.2453 73.4009 11.7787 73.4009 12.344C73.4009 12.4827 73.3955 12.6267 73.3849 12.776C73.3742 12.9253 73.3529 13.064 73.3209 13.192H66.4249V11.752H72.2969L71.4329 12.408C71.5395 11.8853 71.5022 11.4213 71.3209 11.016C71.1502 10.6 70.8835 10.2747 70.5209 10.04C70.1689 9.79467 69.7529 9.672 69.2729 9.672C68.7929 9.672 68.3662 9.79467 67.9929 10.04C67.6195 10.2747 67.3315 10.616 67.1289 11.064C66.9262 11.5013 66.8462 12.0347 66.8889 12.664C66.8355 13.2507 66.9155 13.7627 67.1289 14.2C67.3529 14.6373 67.6622 14.9787 68.0569 15.224C68.4622 15.4693 68.9209 15.592 69.4329 15.592C69.9555 15.592 70.3982 15.4747 70.7609 15.24C71.1342 15.0053 71.4275 14.7013 71.6409 14.328L73.1129 15.048C72.9422 15.4533 72.6755 15.8213 72.3129 16.152C71.9609 16.472 71.5342 16.728 71.0329 16.92C70.5422 17.1013 70.0035 17.192 69.4169 17.192ZM75.1654 17V8.344H76.8934V10.088L76.7334 9.832C76.9254 9.26667 77.2347 8.86133 77.6614 8.616C78.088 8.36 78.6 8.232 79.1974 8.232H79.7254V9.88H78.9734C78.376 9.88 77.8907 10.0667 77.5174 10.44C77.1547 10.8027 76.9734 11.3253 76.9734 12.008V17H75.1654Z" fill="#212528"/>
</svg>
