<svg width="71" height="20" viewBox="0 0 71 20" fill="none" xmlns="http://www.w3.org/2000/svg">
<path d="M18.8332 10C18.8332 14.6024 15.1022 18.3334 10.4998 18.3334C5.89746 18.3334 2.1665 14.6024 2.1665 10C2.1665 5.39765 5.89746 1.66669 10.4998 1.66669C15.1022 1.66669 18.8332 5.39765 18.8332 10Z" fill="#696BEF"/>
<path d="M18.8332 10C18.8332 14.6024 15.1022 18.3334 10.4998 18.3334C5.89746 18.3334 2.1665 14.6024 2.1665 10C2.1665 5.39765 5.89746 1.66669 10.4998 1.66669C15.1022 1.66669 18.8332 5.39765 18.8332 10Z" fill="#696BEF"/>
<path d="M16.3333 11.6667C16.3333 12.1044 16.2471 12.5379 16.0796 12.9423C15.9121 13.3467 15.6666 13.7142 15.357 14.0237C15.0475 14.3332 14.68 14.5788 14.2756 14.7463C13.8712 14.9138 13.4377 15 13 15L13 11.6667H16.3333Z" fill="white"/>
<path d="M12.8423 8.78704L11.9974 2.57812L8 5.83331L10.5 9.92188H11.8514C12.4573 9.92188 12.924 9.38738 12.8423 8.78704Z" fill="#3A3BA6"/>
<path d="M11.8697 14.9192L11.2487 17.386L10.5 13.6751H10.9C11.5512 13.6751 12.0287 14.2877 11.8697 14.9192Z" fill="#3A3BA6"/>
<path fill-rule="evenodd" clip-rule="evenodd" d="M10.5 13.6743C8.42893 13.6743 6.75 11.9954 6.75 9.92432H11.25C11.6642 9.92432 12 9.59159 12 9.17737V2.57434C11.5153 2.47596 11.0137 2.42432 10.5 2.42432C6.35786 2.42432 3 5.78218 3 9.92432C3 14.0665 6.35786 17.4243 10.5 17.4243C10.7531 17.4243 11.0033 17.4118 11.25 17.3873V14.4243C11.25 14.0101 10.9142 13.6743 10.5 13.6743ZM10.5002 6.17441C10.5002 6.58862 10.1644 6.92441 9.75018 6.92441C9.33597 6.92441 9.00018 6.58862 9.00018 6.17441C9.00018 5.76019 9.33597 5.42441 9.75018 5.42441C10.1644 5.42441 10.5002 5.76019 10.5002 6.17441Z" fill="white"/>
<path d="M30.9 17L26.676 5.08H28.708L32.164 15.256H31.764L35.204 5.08H37.236L33.012 17H30.9ZM41.8414 17.192C41.0094 17.192 40.2467 16.9947 39.5534 16.6C38.8707 16.2053 38.3267 15.6667 37.9214 14.984C37.516 14.3013 37.3134 13.528 37.3134 12.664C37.3134 11.7893 37.516 11.016 37.9214 10.344C38.3267 9.66133 38.8707 9.128 39.5534 8.744C40.236 8.34933 40.9987 8.152 41.8414 8.152C42.6947 8.152 43.4574 8.34933 44.1294 8.744C44.812 9.128 45.3507 9.66133 45.7454 10.344C46.1507 11.016 46.3534 11.7893 46.3534 12.664C46.3534 13.5387 46.1507 14.3173 45.7454 15C45.34 15.6827 44.796 16.2213 44.1134 16.616C43.4307 17 42.6734 17.192 41.8414 17.192ZM41.8414 15.512C42.3534 15.512 42.8067 15.3893 43.2014 15.144C43.596 14.8987 43.9054 14.5627 44.1294 14.136C44.364 13.6987 44.4814 13.208 44.4814 12.664C44.4814 12.12 44.364 11.6347 44.1294 11.208C43.9054 10.7813 43.596 10.4453 43.2014 10.2C42.8067 9.95467 42.3534 9.832 41.8414 9.832C41.34 9.832 40.8867 9.95467 40.4814 10.2C40.0867 10.4453 39.772 10.7813 39.5374 11.208C39.3134 11.6347 39.2014 12.12 39.2014 12.664C39.2014 13.208 39.3134 13.6987 39.5374 14.136C39.772 14.5627 40.0867 14.8987 40.4814 15.144C40.8867 15.3893 41.34 15.512 41.8414 15.512ZM48.1185 17V8.344H49.9265V17H48.1185ZM48.1185 7.16V5.08H49.9265V7.16H48.1185ZM56.1524 17.192C55.2884 17.192 54.5204 16.9947 53.8484 16.6C53.187 16.1947 52.659 15.6507 52.2644 14.968C51.8804 14.2853 51.6884 13.512 51.6884 12.648C51.6884 11.7947 51.8804 11.0267 52.2644 10.344C52.6484 9.66133 53.1764 9.128 53.8484 8.744C54.5204 8.34933 55.2884 8.152 56.1524 8.152C56.739 8.152 57.2884 8.25867 57.8004 8.472C58.3124 8.67467 58.755 8.95733 59.1284 9.32C59.5124 9.68267 59.795 10.104 59.9764 10.584L58.3924 11.32C58.211 10.872 57.9177 10.5147 57.5124 10.248C57.1177 9.97067 56.6644 9.832 56.1524 9.832C55.6617 9.832 55.219 9.95467 54.8244 10.2C54.4404 10.4347 54.1364 10.7707 53.9124 11.208C53.6884 11.6347 53.5764 12.12 53.5764 12.664C53.5764 13.208 53.6884 13.6987 53.9124 14.136C54.1364 14.5627 54.4404 14.8987 54.8244 15.144C55.219 15.3893 55.6617 15.512 56.1524 15.512C56.675 15.512 57.1284 15.3787 57.5124 15.112C57.907 14.8347 58.2004 14.4667 58.3924 14.008L59.9764 14.76C59.8057 15.2187 59.5284 15.6347 59.1444 16.008C58.771 16.3707 58.3284 16.6587 57.8164 16.872C57.3044 17.0853 56.7497 17.192 56.1524 17.192ZM65.8075 17.192C64.9435 17.192 64.1755 16.9947 63.5035 16.6C62.8422 16.1947 62.3248 15.6507 61.9515 14.968C61.5782 14.2747 61.3915 13.5013 61.3915 12.648C61.3915 11.7733 61.5782 11 61.9515 10.328C62.3355 9.656 62.8475 9.128 63.4875 8.744C64.1275 8.34933 64.8528 8.152 65.6635 8.152C66.3142 8.152 66.8955 8.264 67.4075 8.488C67.9195 8.712 68.3515 9.02133 68.7035 9.416C69.0555 9.8 69.3222 10.2427 69.5035 10.744C69.6955 11.2453 69.7915 11.7787 69.7915 12.344C69.7915 12.4827 69.7862 12.6267 69.7755 12.776C69.7648 12.9253 69.7435 13.064 69.7115 13.192H62.8155V11.752H68.6875L67.8235 12.408C67.9302 11.8853 67.8928 11.4213 67.7115 11.016C67.5408 10.6 67.2742 10.2747 66.9115 10.04C66.5595 9.79467 66.1435 9.672 65.6635 9.672C65.1835 9.672 64.7568 9.79467 64.3835 10.04C64.0102 10.2747 63.7222 10.616 63.5195 11.064C63.3168 11.5013 63.2368 12.0347 63.2795 12.664C63.2262 13.2507 63.3062 13.7627 63.5195 14.2C63.7435 14.6373 64.0528 14.9787 64.4475 15.224C64.8528 15.4693 65.3115 15.592 65.8235 15.592C66.3462 15.592 66.7888 15.4747 67.1515 15.24C67.5248 15.0053 67.8182 14.7013 68.0315 14.328L69.5035 15.048C69.3328 15.4533 69.0662 15.8213 68.7035 16.152C68.3515 16.472 67.9248 16.728 67.4235 16.92C66.9328 17.1013 66.3942 17.192 65.8075 17.192Z" fill="#212528"/>
</svg>
