<svg width="600" height="450" viewBox="0 0 600 450" fill="none" xmlns="http://www.w3.org/2000/svg">
<path d="M190.792 262.459C176.875 250.875 159.625 243.292 140.542 241.542V258.292C154.958 259.875 168.125 265.625 178.958 274.292L190.792 262.459Z" fill="#DBEAF6"/>
<path d="M123.875 258.292V241.542C104.792 243.209 87.5417 250.875 73.625 262.459L85.4583 274.292C96.2917 265.625 109.458 259.875 123.875 258.292Z" fill="#DBEAF6"/>
<path d="M73.7083 286.042L61.875 274.209C50.2917 288.125 42.7083 305.375 40.9583 324.459H57.7083C59.2917 310.042 65.0417 296.875 73.7083 286.042Z" fill="#DBEAF6"/>
<path d="M206.708 324.459H223.458C221.708 305.375 214.125 288.125 202.542 274.209L190.708 286.042C199.375 296.875 205.125 310.042 206.708 324.459Z" fill="#DBEAF6"/>
<path d="M90.5417 332.792L119.208 345.792L132.208 374.459L145.208 345.792L173.875 332.792L145.208 319.792L132.208 291.125L119.208 319.792L90.5417 332.792Z" fill="#DBEAF6"/>
<path d="M132.208 407.792C106.292 407.792 83.4583 394.542 70.0417 374.459H90.5417V357.792H40.5417V407.792H57.2083V385.292C73.7917 408.959 101.125 424.459 132.208 424.459C172.792 424.459 207.208 398.042 219.208 361.459L202.875 357.709C192.625 386.792 164.875 407.792 132.208 407.792Z" fill="#DBEAF6"/>
<path d="M510 37.5H460V54.1667H510V37.5ZM476.667 145.833H493.333V95.8333H476.667V145.833ZM543.583 90.75L555.417 78.9167C551.833 74.6667 547.917 70.6667 543.667 67.1667L531.833 79C518.917 68.6667 502.667 62.5 485 62.5C443.583 62.5 410 96.0833 410 137.5C410 178.917 443.5 212.5 485 212.5C526.5 212.5 560 178.917 560 137.5C560 119.833 553.833 103.583 543.583 90.75ZM485 195.833C452.75 195.833 426.667 169.75 426.667 137.5C426.667 105.25 452.75 79.1667 485 79.1667C517.25 79.1667 543.333 105.25 543.333 137.5C543.333 169.75 517.25 195.833 485 195.833Z" fill="#DBEAF6"/>
<rect x="40.5" y="133.5" width="99" height="39" rx="3.5" fill="white"/>
<rect x="40.5" y="133.5" width="99" height="39" rx="3.5" stroke="#1E75BA"/>
<path d="M56.375 158H53.233V147.818H56.5142C57.5019 147.818 58.3471 148.022 59.0497 148.43C59.7524 148.834 60.291 149.416 60.6655 150.175C61.04 150.93 61.2273 151.835 61.2273 152.889C61.2273 153.95 61.0384 154.863 60.6605 155.629C60.2827 156.391 59.7325 156.978 59.0099 157.388C58.2874 157.796 57.4091 158 56.375 158ZM54.4659 156.906H56.2955C57.1373 156.906 57.835 156.744 58.3885 156.419C58.942 156.094 59.3546 155.632 59.6264 155.032C59.8982 154.432 60.0341 153.718 60.0341 152.889C60.0341 152.067 59.8999 151.36 59.6314 150.766C59.3629 150.17 58.9619 149.712 58.4283 149.394C57.8946 149.073 57.2301 148.912 56.4347 148.912H54.4659V156.906ZM63.1364 158V150.364H64.3097V158H63.1364ZM63.733 149.091C63.5043 149.091 63.3071 149.013 63.1413 148.857C62.9789 148.701 62.8977 148.514 62.8977 148.295C62.8977 148.077 62.9789 147.889 63.1413 147.734C63.3071 147.578 63.5043 147.5 63.733 147.5C63.9616 147.5 64.1572 147.578 64.3196 147.734C64.4853 147.889 64.5682 148.077 64.5682 148.295C64.5682 148.514 64.4853 148.701 64.3196 148.857C64.1572 149.013 63.9616 149.091 63.733 149.091ZM68.7058 158.179C68.2219 158.179 67.7827 158.088 67.3883 157.906C66.9939 157.72 66.6807 157.453 66.4487 157.105C66.2167 156.754 66.1007 156.33 66.1007 155.832C66.1007 155.395 66.1868 155.04 66.3592 154.768C66.5315 154.493 66.7619 154.278 67.0502 154.122C67.3386 153.966 67.6568 153.85 68.0048 153.774C68.3561 153.695 68.7091 153.632 69.0637 153.585C69.5278 153.526 69.9039 153.481 70.1923 153.451C70.484 153.418 70.6961 153.363 70.8287 153.287C70.9645 153.211 71.0325 153.078 71.0325 152.889V152.849C71.0325 152.359 70.8983 151.978 70.6298 151.706C70.3646 151.434 69.9619 151.298 69.4217 151.298C68.8616 151.298 68.4224 151.421 68.1042 151.666C67.786 151.911 67.5623 152.173 67.4331 152.452L66.3194 152.054C66.5183 151.59 66.7834 151.229 67.1149 150.97C67.4496 150.708 67.8142 150.526 68.2086 150.423C68.6064 150.317 68.9975 150.264 69.3819 150.264C69.6272 150.264 69.9089 150.294 70.2271 150.354C70.5486 150.41 70.8585 150.528 71.1568 150.707C71.4584 150.886 71.7086 151.156 71.9075 151.517C72.1064 151.878 72.2058 152.362 72.2058 152.969V158H71.0325V156.966H70.9728C70.8933 157.132 70.7607 157.309 70.5751 157.498C70.3895 157.687 70.1426 157.848 69.8343 157.98C69.5261 158.113 69.1499 158.179 68.7058 158.179ZM68.8848 157.125C69.3488 157.125 69.7399 157.034 70.0581 156.852C70.3796 156.669 70.6215 156.434 70.7839 156.146C70.9496 155.857 71.0325 155.554 71.0325 155.236V154.162C70.9828 154.222 70.8734 154.276 70.7044 154.326C70.5386 154.372 70.3464 154.414 70.1277 154.45C69.9122 154.483 69.7018 154.513 69.4963 154.54C69.2941 154.563 69.13 154.583 69.0041 154.599C68.6992 154.639 68.4141 154.704 68.149 154.793C67.8871 154.879 67.675 155.01 67.5126 155.186C67.3535 155.358 67.274 155.594 67.274 155.892C67.274 156.3 67.4248 156.608 67.7264 156.817C68.0313 157.022 68.4174 157.125 68.8848 157.125Z" fill="#3F4346"/>
<path d="M117.833 150.917L122 155.084L126.167 150.917H117.833Z" fill="#5D6164"/>
<rect x="40.5" y="195.5" width="109" height="39" rx="3.5" fill="white"/>
<rect x="40.5" y="195.5" width="109" height="39" rx="3.5" stroke="#1E75BA"/>
<path d="M58.8011 212.364C58.7415 211.86 58.4995 211.469 58.0753 211.19C57.651 210.912 57.1307 210.773 56.5142 210.773C56.0634 210.773 55.669 210.846 55.331 210.991C54.9962 211.137 54.7344 211.338 54.5455 211.593C54.3598 211.848 54.267 212.138 54.267 212.463C54.267 212.735 54.3317 212.969 54.4609 213.164C54.5935 213.356 54.7625 213.517 54.968 213.646C55.1735 213.772 55.389 213.877 55.6143 213.96C55.8397 214.039 56.0469 214.104 56.2358 214.153L57.2699 214.432C57.535 214.501 57.83 214.598 58.1548 214.72C58.483 214.843 58.7962 215.01 59.0945 215.222C59.3961 215.431 59.6446 215.7 59.8402 216.028C60.0357 216.356 60.1335 216.759 60.1335 217.236C60.1335 217.786 59.9893 218.283 59.701 218.727C59.416 219.171 58.9983 219.524 58.4482 219.786C57.9013 220.048 57.2367 220.179 56.4545 220.179C55.7254 220.179 55.094 220.061 54.5604 219.826C54.0301 219.591 53.6125 219.263 53.3075 218.842C53.0059 218.421 52.8352 217.932 52.7955 217.375H54.0682C54.1013 217.759 54.2306 218.078 54.456 218.33C54.6847 218.578 54.973 218.764 55.321 218.886C55.6723 219.006 56.0502 219.065 56.4545 219.065C56.9252 219.065 57.3478 218.989 57.7223 218.837C58.0968 218.681 58.3935 218.465 58.6122 218.19C58.831 217.912 58.9403 217.587 58.9403 217.216C58.9403 216.878 58.8459 216.603 58.657 216.391C58.468 216.179 58.2195 216.006 57.9112 215.874C57.603 215.741 57.2699 215.625 56.9119 215.526L55.6591 215.168C54.8636 214.939 54.2339 214.612 53.7699 214.188C53.3059 213.764 53.0739 213.209 53.0739 212.523C53.0739 211.953 53.228 211.455 53.5362 211.031C53.8478 210.604 54.2654 210.272 54.7891 210.037C55.3161 209.798 55.9044 209.679 56.554 209.679C57.2102 209.679 57.7936 209.797 58.304 210.032C58.8144 210.264 59.2188 210.582 59.517 210.987C59.8187 211.391 59.9777 211.85 59.9943 212.364H58.8011ZM65.2033 220.159C64.4675 220.159 63.8328 219.997 63.2992 219.672C62.7689 219.344 62.3596 218.886 62.0712 218.3C61.7862 217.71 61.6436 217.024 61.6436 216.241C61.6436 215.459 61.7862 214.77 62.0712 214.173C62.3596 213.573 62.7606 213.106 63.2743 212.771C63.7914 212.433 64.3946 212.264 65.084 212.264C65.4817 212.264 65.8745 212.33 66.2623 212.463C66.65 212.596 67.003 212.811 67.3212 213.109C67.6394 213.404 67.8929 213.795 68.0819 214.283C68.2708 214.77 68.3652 215.37 68.3652 216.082V216.58H62.4789V215.565H67.1721C67.1721 215.134 67.0859 214.75 66.9135 214.412C66.7445 214.074 66.5025 213.807 66.1877 213.612C65.8761 213.416 65.5082 213.318 65.084 213.318C64.6167 213.318 64.2123 213.434 63.8709 213.666C63.5328 213.895 63.2727 214.193 63.0904 214.561C62.9081 214.929 62.8169 215.323 62.8169 215.744V216.42C62.8169 216.997 62.9164 217.486 63.1152 217.887C63.3174 218.285 63.5975 218.588 63.9554 218.797C64.3134 219.002 64.7293 219.105 65.2033 219.105C65.5115 219.105 65.79 219.062 66.0385 218.976C66.2904 218.886 66.5075 218.754 66.6898 218.578C66.8721 218.399 67.013 218.177 67.1124 217.912L68.2459 218.23C68.1266 218.615 67.9261 218.953 67.6444 219.244C67.3626 219.533 67.0146 219.758 66.6003 219.92C66.186 220.08 65.7203 220.159 65.2033 220.159ZM70.15 220V212.364H71.2836V213.557H71.383C71.5421 213.149 71.7989 212.833 72.1536 212.607C72.5082 212.379 72.9341 212.264 73.4313 212.264C73.9351 212.264 74.3543 212.379 74.6891 212.607C75.0272 212.833 75.2907 213.149 75.4796 213.557H75.5591C75.7547 213.162 76.048 212.849 76.4391 212.617C76.8302 212.382 77.2992 212.264 77.8461 212.264C78.5288 212.264 79.0873 212.478 79.5215 212.906C79.9557 213.33 80.1728 213.991 80.1728 214.889V220H78.9995V214.889C78.9995 214.326 78.8453 213.923 78.5371 213.681C78.2289 213.439 77.8659 213.318 77.4483 213.318C76.9114 213.318 76.4954 213.481 76.2005 213.805C75.9055 214.127 75.758 214.535 75.758 215.028V220H74.5648V214.77C74.5648 214.336 74.4239 213.986 74.1422 213.721C73.8605 213.452 73.4976 213.318 73.0534 213.318C72.7485 213.318 72.4635 213.399 72.1983 213.562C71.9365 213.724 71.7244 213.95 71.562 214.238C71.4029 214.523 71.3233 214.853 71.3233 215.227V220H70.15ZM84.5652 220.179C84.0813 220.179 83.6421 220.088 83.2477 219.906C82.8533 219.72 82.5401 219.453 82.3081 219.105C82.0761 218.754 81.96 218.33 81.96 217.832C81.96 217.395 82.0462 217.04 82.2186 216.768C82.3909 216.493 82.6213 216.278 82.9096 216.122C83.198 215.966 83.5162 215.85 83.8642 215.774C84.2155 215.695 84.5685 215.632 84.9231 215.585C85.3871 215.526 85.7633 215.481 86.0517 215.451C86.3433 215.418 86.5555 215.363 86.688 215.287C86.8239 215.211 86.8919 215.078 86.8919 214.889V214.849C86.8919 214.359 86.7576 213.978 86.4892 213.706C86.224 213.434 85.8213 213.298 85.2811 213.298C84.7209 213.298 84.2818 213.421 83.9636 213.666C83.6454 213.911 83.4217 214.173 83.2924 214.452L82.1788 214.054C82.3777 213.59 82.6428 213.229 82.9743 212.97C83.309 212.708 83.6736 212.526 84.068 212.423C84.4657 212.317 84.8568 212.264 85.2413 212.264C85.4866 212.264 85.7683 212.294 86.0865 212.354C86.408 212.41 86.7179 212.528 87.0162 212.707C87.3178 212.886 87.568 213.156 87.7669 213.517C87.9657 213.878 88.0652 214.362 88.0652 214.969V220H86.8919V218.966H86.8322C86.7527 219.132 86.6201 219.309 86.4345 219.498C86.2489 219.687 86.002 219.848 85.6937 219.98C85.3855 220.113 85.0093 220.179 84.5652 220.179ZM84.7441 219.125C85.2082 219.125 85.5993 219.034 85.9174 218.852C86.2389 218.669 86.4809 218.434 86.6433 218.146C86.809 217.857 86.8919 217.554 86.8919 217.236V216.162C86.8422 216.222 86.7328 216.276 86.5637 216.326C86.398 216.372 86.2058 216.414 85.987 216.45C85.7716 216.483 85.5611 216.513 85.3556 216.54C85.1535 216.563 84.9894 216.583 84.8635 216.599C84.5585 216.639 84.2735 216.704 84.0083 216.793C83.7465 216.879 83.5344 217.01 83.372 217.186C83.2129 217.358 83.1333 217.594 83.1333 217.892C83.1333 218.3 83.2842 218.608 83.5858 218.817C83.8907 219.022 84.2768 219.125 84.7441 219.125ZM91.38 215.406V220H90.2067V212.364H91.3402V213.557H91.4396C91.6186 213.169 91.8904 212.857 92.255 212.622C92.6196 212.384 93.0902 212.264 93.6669 212.264C94.1839 212.264 94.6364 212.37 95.0241 212.582C95.4119 212.791 95.7135 213.109 95.929 213.537C96.1444 213.961 96.2521 214.498 96.2521 215.148V220H95.0788V215.227C95.0788 214.627 94.9231 214.16 94.6115 213.825C94.3 213.487 93.8724 213.318 93.3288 213.318C92.9543 213.318 92.6196 213.399 92.3246 213.562C92.0329 213.724 91.8026 213.961 91.6335 214.273C91.4645 214.584 91.38 214.962 91.38 215.406ZM100.643 220.179C100.159 220.179 99.7202 220.088 99.3258 219.906C98.9314 219.72 98.6182 219.453 98.3862 219.105C98.1542 218.754 98.0382 218.33 98.0382 217.832C98.0382 217.395 98.1243 217.04 98.2967 216.768C98.469 216.493 98.6994 216.278 98.9877 216.122C99.2761 215.966 99.5943 215.85 99.9423 215.774C100.294 215.695 100.647 215.632 101.001 215.585C101.465 215.526 101.841 215.481 102.13 215.451C102.421 215.418 102.634 215.363 102.766 215.287C102.902 215.211 102.97 215.078 102.97 214.889V214.849C102.97 214.359 102.836 213.978 102.567 213.706C102.302 213.434 101.899 213.298 101.359 213.298C100.799 213.298 100.36 213.421 100.042 213.666C99.7235 213.911 99.4998 214.173 99.3706 214.452L98.2569 214.054C98.4558 213.59 98.7209 213.229 99.0524 212.97C99.3871 212.708 99.7517 212.526 100.146 212.423C100.544 212.317 100.935 212.264 101.319 212.264C101.565 212.264 101.846 212.294 102.165 212.354C102.486 212.41 102.796 212.528 103.094 212.707C103.396 212.886 103.646 213.156 103.845 213.517C104.044 213.878 104.143 214.362 104.143 214.969V220H102.97V218.966H102.91C102.831 219.132 102.698 219.309 102.513 219.498C102.327 219.687 102.08 219.848 101.772 219.98C101.464 220.113 101.087 220.179 100.643 220.179ZM100.822 219.125C101.286 219.125 101.677 219.034 101.996 218.852C102.317 218.669 102.559 218.434 102.721 218.146C102.887 217.857 102.97 217.554 102.97 217.236V216.162C102.92 216.222 102.811 216.276 102.642 216.326C102.476 216.372 102.284 216.414 102.065 216.45C101.85 216.483 101.639 216.513 101.434 216.54C101.232 216.563 101.068 216.583 100.942 216.599C100.637 216.639 100.352 216.704 100.086 216.793C99.8246 216.879 99.6125 217.01 99.4501 217.186C99.291 217.358 99.2115 217.594 99.2115 217.892C99.2115 218.3 99.3623 218.608 99.6639 218.817C99.9688 219.022 100.355 219.125 100.822 219.125Z" fill="#3F4346"/>
<path d="M127.833 212.917L132 217.084L136.167 212.917H127.833Z" fill="#5D6164"/>
<path d="M158.568 151.75V157H157.227V148.273H158.523V149.636H158.636C158.841 149.193 159.152 148.837 159.568 148.568C159.985 148.295 160.523 148.159 161.182 148.159C161.773 148.159 162.29 148.28 162.733 148.523C163.176 148.761 163.521 149.125 163.767 149.614C164.013 150.098 164.136 150.712 164.136 151.455V157H162.795V151.545C162.795 150.86 162.617 150.326 162.261 149.943C161.905 149.557 161.417 149.364 160.795 149.364C160.367 149.364 159.985 149.456 159.648 149.642C159.314 149.828 159.051 150.098 158.858 150.455C158.665 150.811 158.568 151.242 158.568 151.75ZM170.132 157.182C169.344 157.182 168.653 156.994 168.058 156.619C167.467 156.244 167.005 155.72 166.672 155.045C166.342 154.371 166.178 153.583 166.178 152.682C166.178 151.773 166.342 150.979 166.672 150.301C167.005 149.623 167.467 149.097 168.058 148.722C168.653 148.347 169.344 148.159 170.132 148.159C170.92 148.159 171.609 148.347 172.2 148.722C172.795 149.097 173.257 149.623 173.587 150.301C173.92 150.979 174.087 151.773 174.087 152.682C174.087 153.583 173.92 154.371 173.587 155.045C173.257 155.72 172.795 156.244 172.2 156.619C171.609 156.994 170.92 157.182 170.132 157.182ZM170.132 155.977C170.731 155.977 171.223 155.824 171.609 155.517C171.996 155.21 172.282 154.807 172.467 154.307C172.653 153.807 172.746 153.265 172.746 152.682C172.746 152.098 172.653 151.555 172.467 151.051C172.282 150.547 171.996 150.14 171.609 149.83C171.223 149.519 170.731 149.364 170.132 149.364C169.534 149.364 169.041 149.519 168.655 149.83C168.268 150.14 167.982 150.547 167.797 151.051C167.611 151.555 167.518 152.098 167.518 152.682C167.518 153.265 167.611 153.807 167.797 154.307C167.982 154.807 168.268 155.21 168.655 155.517C169.041 155.824 169.534 155.977 170.132 155.977Z" fill="#3F4346"/>
<path d="M389.568 213.75V219H388.227V210.273H389.523V211.636H389.636C389.841 211.193 390.152 210.837 390.568 210.568C390.985 210.295 391.523 210.159 392.182 210.159C392.773 210.159 393.29 210.28 393.733 210.523C394.176 210.761 394.521 211.125 394.767 211.614C395.013 212.098 395.136 212.712 395.136 213.455V219H393.795V213.545C393.795 212.86 393.617 212.326 393.261 211.943C392.905 211.557 392.417 211.364 391.795 211.364C391.367 211.364 390.985 211.456 390.648 211.642C390.314 211.828 390.051 212.098 389.858 212.455C389.665 212.811 389.568 213.242 389.568 213.75ZM401.132 219.182C400.344 219.182 399.653 218.994 399.058 218.619C398.467 218.244 398.005 217.72 397.672 217.045C397.342 216.371 397.178 215.583 397.178 214.682C397.178 213.773 397.342 212.979 397.672 212.301C398.005 211.623 398.467 211.097 399.058 210.722C399.653 210.347 400.344 210.159 401.132 210.159C401.92 210.159 402.609 210.347 403.2 210.722C403.795 211.097 404.257 211.623 404.587 212.301C404.92 212.979 405.087 213.773 405.087 214.682C405.087 215.583 404.92 216.371 404.587 217.045C404.257 217.72 403.795 218.244 403.2 218.619C402.609 218.994 401.92 219.182 401.132 219.182ZM401.132 217.977C401.731 217.977 402.223 217.824 402.609 217.517C402.996 217.21 403.282 216.807 403.467 216.307C403.653 215.807 403.746 215.265 403.746 214.682C403.746 214.098 403.653 213.555 403.467 213.051C403.282 212.547 402.996 212.14 402.609 211.83C402.223 211.519 401.731 211.364 401.132 211.364C400.534 211.364 400.041 211.519 399.655 211.83C399.268 212.14 398.982 212.547 398.797 213.051C398.611 213.555 398.518 214.098 398.518 214.682C398.518 215.265 398.611 215.807 398.797 216.307C398.982 216.807 399.268 217.21 399.655 217.517C400.041 217.824 400.534 217.977 401.132 217.977Z" fill="#3F4346"/>
<path d="M173.773 210.273C173.705 209.697 173.428 209.25 172.943 208.932C172.458 208.614 171.864 208.455 171.159 208.455C170.644 208.455 170.193 208.538 169.807 208.705C169.424 208.871 169.125 209.1 168.909 209.392C168.697 209.684 168.591 210.015 168.591 210.386C168.591 210.697 168.665 210.964 168.812 211.188C168.964 211.407 169.157 211.591 169.392 211.739C169.627 211.883 169.873 212.002 170.131 212.097C170.388 212.187 170.625 212.261 170.841 212.318L172.023 212.636C172.326 212.716 172.663 212.826 173.034 212.966C173.409 213.106 173.767 213.297 174.108 213.54C174.453 213.778 174.737 214.085 174.96 214.46C175.184 214.835 175.295 215.295 175.295 215.841C175.295 216.47 175.131 217.038 174.801 217.545C174.475 218.053 173.998 218.456 173.369 218.756C172.744 219.055 171.985 219.205 171.091 219.205C170.258 219.205 169.536 219.07 168.926 218.801C168.32 218.532 167.843 218.157 167.494 217.676C167.15 217.195 166.955 216.636 166.909 216H168.364C168.402 216.439 168.549 216.803 168.807 217.091C169.068 217.375 169.398 217.587 169.795 217.727C170.197 217.864 170.629 217.932 171.091 217.932C171.629 217.932 172.112 217.845 172.54 217.67C172.968 217.492 173.307 217.246 173.557 216.932C173.807 216.614 173.932 216.242 173.932 215.818C173.932 215.432 173.824 215.117 173.608 214.875C173.392 214.633 173.108 214.436 172.756 214.284C172.403 214.133 172.023 214 171.614 213.886L170.182 213.477C169.273 213.216 168.553 212.843 168.023 212.358C167.492 211.873 167.227 211.239 167.227 210.455C167.227 209.803 167.403 209.235 167.756 208.75C168.112 208.261 168.589 207.883 169.188 207.614C169.79 207.341 170.462 207.205 171.205 207.205C171.955 207.205 172.621 207.339 173.205 207.608C173.788 207.873 174.25 208.237 174.591 208.699C174.936 209.161 175.117 209.686 175.136 210.273H173.773ZM180.976 219.182C180.188 219.182 179.497 218.994 178.902 218.619C178.311 218.244 177.849 217.72 177.516 217.045C177.186 216.371 177.021 215.583 177.021 214.682C177.021 213.773 177.186 212.979 177.516 212.301C177.849 211.623 178.311 211.097 178.902 210.722C179.497 210.347 180.188 210.159 180.976 210.159C181.764 210.159 182.453 210.347 183.044 210.722C183.639 211.097 184.101 211.623 184.43 212.301C184.764 212.979 184.93 213.773 184.93 214.682C184.93 215.583 184.764 216.371 184.43 217.045C184.101 217.72 183.639 218.244 183.044 218.619C182.453 218.994 181.764 219.182 180.976 219.182ZM180.976 217.977C181.574 217.977 182.067 217.824 182.453 217.517C182.839 217.21 183.125 216.807 183.311 216.307C183.497 215.807 183.589 215.265 183.589 214.682C183.589 214.098 183.497 213.555 183.311 213.051C183.125 212.547 182.839 212.14 182.453 211.83C182.067 211.519 181.574 211.364 180.976 211.364C180.377 211.364 179.885 211.519 179.499 211.83C179.112 212.14 178.826 212.547 178.641 213.051C178.455 213.555 178.362 214.098 178.362 214.682C178.362 215.265 178.455 215.807 178.641 216.307C178.826 216.807 179.112 217.21 179.499 217.517C179.885 217.824 180.377 217.977 180.976 217.977ZM187.159 219V207.364H188.5V211.659H188.614C188.712 211.508 188.848 211.314 189.023 211.08C189.201 210.841 189.455 210.629 189.784 210.443C190.117 210.254 190.568 210.159 191.136 210.159C191.871 210.159 192.519 210.343 193.08 210.71C193.64 211.078 194.078 211.598 194.392 212.273C194.706 212.947 194.864 213.742 194.864 214.659C194.864 215.583 194.706 216.384 194.392 217.062C194.078 217.737 193.642 218.259 193.085 218.631C192.528 218.998 191.886 219.182 191.159 219.182C190.598 219.182 190.15 219.089 189.812 218.903C189.475 218.714 189.216 218.5 189.034 218.261C188.852 218.019 188.712 217.818 188.614 217.659H188.455V219H187.159ZM188.477 214.636C188.477 215.295 188.574 215.877 188.767 216.381C188.96 216.881 189.242 217.273 189.614 217.557C189.985 217.837 190.439 217.977 190.977 217.977C191.538 217.977 192.006 217.83 192.381 217.534C192.759 217.235 193.044 216.833 193.233 216.33C193.426 215.822 193.523 215.258 193.523 214.636C193.523 214.023 193.428 213.47 193.239 212.977C193.053 212.481 192.771 212.089 192.392 211.801C192.017 211.509 191.545 211.364 190.977 211.364C190.432 211.364 189.973 211.502 189.602 211.778C189.231 212.051 188.951 212.434 188.761 212.926C188.572 213.415 188.477 213.985 188.477 214.636ZM196.915 219V210.273H198.21V211.591H198.301C198.46 211.159 198.748 210.809 199.165 210.54C199.581 210.271 200.051 210.136 200.574 210.136C200.672 210.136 200.795 210.138 200.943 210.142C201.091 210.146 201.203 210.152 201.278 210.159V211.523C201.233 211.511 201.129 211.494 200.966 211.472C200.807 211.445 200.638 211.432 200.46 211.432C200.036 211.432 199.657 211.521 199.324 211.699C198.994 211.873 198.733 212.116 198.54 212.426C198.35 212.733 198.256 213.083 198.256 213.477V219H196.915ZM206.261 219.182C205.42 219.182 204.695 218.996 204.085 218.625C203.479 218.25 203.011 217.727 202.682 217.057C202.356 216.383 202.193 215.598 202.193 214.705C202.193 213.811 202.356 213.023 202.682 212.341C203.011 211.655 203.47 211.121 204.057 210.739C204.648 210.352 205.337 210.159 206.125 210.159C206.58 210.159 207.028 210.235 207.472 210.386C207.915 210.538 208.318 210.784 208.682 211.125C209.045 211.462 209.335 211.909 209.551 212.466C209.767 213.023 209.875 213.708 209.875 214.523V215.091H203.148V213.932H208.511C208.511 213.439 208.413 213 208.216 212.614C208.023 212.227 207.746 211.922 207.386 211.699C207.03 211.475 206.61 211.364 206.125 211.364C205.591 211.364 205.129 211.496 204.739 211.761C204.352 212.023 204.055 212.364 203.847 212.784C203.638 213.205 203.534 213.655 203.534 214.136V214.909C203.534 215.568 203.648 216.127 203.875 216.585C204.106 217.04 204.426 217.386 204.835 217.625C205.244 217.86 205.72 217.977 206.261 217.977C206.614 217.977 206.932 217.928 207.216 217.83C207.504 217.727 207.752 217.576 207.96 217.375C208.169 217.17 208.33 216.917 208.443 216.614L209.739 216.977C209.602 217.417 209.373 217.803 209.051 218.136C208.729 218.466 208.331 218.723 207.858 218.909C207.384 219.091 206.852 219.182 206.261 219.182Z" fill="#3F4346"/>
<rect x="188.5" y="133.5" width="182" height="39" rx="3.5" fill="white"/>
<rect x="188.5" y="133.5" width="182" height="39" rx="3.5" stroke="#1E75BA"/>
<path d="M206.801 150.364C206.741 149.86 206.5 149.469 206.075 149.19C205.651 148.912 205.131 148.773 204.514 148.773C204.063 148.773 203.669 148.846 203.331 148.991C202.996 149.137 202.734 149.338 202.545 149.593C202.36 149.848 202.267 150.138 202.267 150.463C202.267 150.735 202.332 150.969 202.461 151.164C202.594 151.356 202.763 151.517 202.968 151.646C203.174 151.772 203.389 151.877 203.614 151.96C203.84 152.039 204.047 152.104 204.236 152.153L205.27 152.432C205.535 152.501 205.83 152.598 206.155 152.72C206.483 152.843 206.796 153.01 207.094 153.222C207.396 153.431 207.645 153.7 207.84 154.028C208.036 154.356 208.134 154.759 208.134 155.236C208.134 155.786 207.989 156.283 207.701 156.727C207.416 157.171 206.998 157.524 206.448 157.786C205.901 158.048 205.237 158.179 204.455 158.179C203.725 158.179 203.094 158.061 202.56 157.826C202.03 157.591 201.612 157.263 201.308 156.842C201.006 156.421 200.835 155.932 200.795 155.375H202.068C202.101 155.759 202.231 156.078 202.456 156.33C202.685 156.578 202.973 156.764 203.321 156.886C203.672 157.006 204.05 157.065 204.455 157.065C204.925 157.065 205.348 156.989 205.722 156.837C206.097 156.681 206.393 156.465 206.612 156.19C206.831 155.912 206.94 155.587 206.94 155.216C206.94 154.878 206.846 154.603 206.657 154.391C206.468 154.179 206.219 154.006 205.911 153.874C205.603 153.741 205.27 153.625 204.912 153.526L203.659 153.168C202.864 152.939 202.234 152.612 201.77 152.188C201.306 151.764 201.074 151.209 201.074 150.523C201.074 149.953 201.228 149.455 201.536 149.031C201.848 148.604 202.265 148.272 202.789 148.037C203.316 147.798 203.904 147.679 204.554 147.679C205.21 147.679 205.794 147.797 206.304 148.032C206.814 148.264 207.219 148.582 207.517 148.987C207.819 149.391 207.978 149.85 207.994 150.364H206.801ZM213.203 158.159C212.468 158.159 211.833 157.997 211.299 157.672C210.769 157.344 210.36 156.886 210.071 156.3C209.786 155.71 209.644 155.024 209.644 154.241C209.644 153.459 209.786 152.77 210.071 152.173C210.36 151.573 210.761 151.106 211.274 150.771C211.791 150.433 212.395 150.264 213.084 150.264C213.482 150.264 213.874 150.33 214.262 150.463C214.65 150.596 215.003 150.811 215.321 151.109C215.639 151.404 215.893 151.795 216.082 152.283C216.271 152.77 216.365 153.37 216.365 154.082V154.58H210.479V153.565H215.172C215.172 153.134 215.086 152.75 214.914 152.412C214.744 152.074 214.503 151.807 214.188 151.612C213.876 151.416 213.508 151.318 213.084 151.318C212.617 151.318 212.212 151.434 211.871 151.666C211.533 151.895 211.273 152.193 211.09 152.561C210.908 152.929 210.817 153.323 210.817 153.744V154.42C210.817 154.997 210.916 155.486 211.115 155.887C211.317 156.285 211.597 156.588 211.955 156.797C212.313 157.002 212.729 157.105 213.203 157.105C213.512 157.105 213.79 157.062 214.039 156.976C214.29 156.886 214.508 156.754 214.69 156.578C214.872 156.399 215.013 156.177 215.112 155.912L216.246 156.23C216.127 156.615 215.926 156.953 215.644 157.244C215.363 157.533 215.015 157.758 214.6 157.92C214.186 158.08 213.72 158.159 213.203 158.159ZM219.323 147.818V158H218.15V147.818H219.323ZM224.674 158.159C223.938 158.159 223.304 157.997 222.77 157.672C222.24 157.344 221.83 156.886 221.542 156.3C221.257 155.71 221.114 155.024 221.114 154.241C221.114 153.459 221.257 152.77 221.542 152.173C221.83 151.573 222.231 151.106 222.745 150.771C223.262 150.433 223.865 150.264 224.555 150.264C224.952 150.264 225.345 150.33 225.733 150.463C226.121 150.596 226.474 150.811 226.792 151.109C227.11 151.404 227.364 151.795 227.553 152.283C227.741 152.77 227.836 153.37 227.836 154.082V154.58H221.95V153.565H226.643C226.643 153.134 226.557 152.75 226.384 152.412C226.215 152.074 225.973 151.807 225.658 151.612C225.347 151.416 224.979 151.318 224.555 151.318C224.087 151.318 223.683 151.434 223.342 151.666C223.004 151.895 222.743 152.193 222.561 152.561C222.379 152.929 222.288 153.323 222.288 153.744V154.42C222.288 154.997 222.387 155.486 222.586 155.887C222.788 156.285 223.068 156.588 223.426 156.797C223.784 157.002 224.2 157.105 224.674 157.105C224.982 157.105 225.261 157.062 225.509 156.976C225.761 156.886 225.978 156.754 226.161 156.578C226.343 156.399 226.484 156.177 226.583 155.912L227.717 156.23C227.597 156.615 227.397 156.953 227.115 157.244C226.833 157.533 226.485 157.758 226.071 157.92C225.657 158.08 225.191 158.159 224.674 158.159ZM232.723 158.159C232.007 158.159 231.391 157.99 230.874 157.652C230.357 157.314 229.959 156.848 229.68 156.255C229.402 155.662 229.263 154.984 229.263 154.222C229.263 153.446 229.405 152.762 229.69 152.168C229.979 151.572 230.38 151.106 230.893 150.771C231.411 150.433 232.014 150.264 232.703 150.264C233.24 150.264 233.724 150.364 234.155 150.562C234.586 150.761 234.939 151.04 235.214 151.398C235.489 151.756 235.66 152.173 235.726 152.651H234.553C234.463 152.303 234.264 151.994 233.956 151.726C233.651 151.454 233.24 151.318 232.723 151.318C232.266 151.318 231.865 151.437 231.52 151.676C231.179 151.911 230.912 152.245 230.719 152.675C230.531 153.103 230.436 153.605 230.436 154.182C230.436 154.772 230.529 155.286 230.714 155.723C230.903 156.161 231.169 156.5 231.51 156.742C231.855 156.984 232.259 157.105 232.723 157.105C233.028 157.105 233.305 157.052 233.553 156.946C233.802 156.84 234.012 156.688 234.185 156.489C234.357 156.29 234.48 156.051 234.553 155.773H235.726C235.66 156.223 235.496 156.629 235.234 156.991C234.975 157.349 234.632 157.634 234.205 157.846C233.78 158.055 233.286 158.159 232.723 158.159ZM237.441 158V150.364H238.614V158H237.441ZM238.038 149.091C237.809 149.091 237.612 149.013 237.446 148.857C237.284 148.701 237.202 148.514 237.202 148.295C237.202 148.077 237.284 147.889 237.446 147.734C237.612 147.578 237.809 147.5 238.038 147.5C238.266 147.5 238.462 147.578 238.624 147.734C238.79 147.889 238.873 148.077 238.873 148.295C238.873 148.514 238.79 148.701 238.624 148.857C238.462 149.013 238.266 149.091 238.038 149.091ZM243.866 158.159C243.176 158.159 242.571 157.995 242.051 157.667C241.534 157.339 241.13 156.88 240.838 156.29C240.55 155.7 240.405 155.01 240.405 154.222C240.405 153.426 240.55 152.732 240.838 152.138C241.13 151.545 241.534 151.085 242.051 150.756C242.571 150.428 243.176 150.264 243.866 150.264C244.555 150.264 245.158 150.428 245.675 150.756C246.196 151.085 246.6 151.545 246.888 152.138C247.18 152.732 247.326 153.426 247.326 154.222C247.326 155.01 247.18 155.7 246.888 156.29C246.6 156.88 246.196 157.339 245.675 157.667C245.158 157.995 244.555 158.159 243.866 158.159ZM243.866 157.105C244.389 157.105 244.82 156.971 245.158 156.702C245.496 156.434 245.747 156.081 245.909 155.643C246.071 155.206 246.153 154.732 246.153 154.222C246.153 153.711 246.071 153.236 245.909 152.795C245.747 152.354 245.496 151.998 245.158 151.726C244.82 151.454 244.389 151.318 243.866 151.318C243.342 151.318 242.911 151.454 242.573 151.726C242.235 151.998 241.985 152.354 241.822 152.795C241.66 153.236 241.579 153.711 241.579 154.222C241.579 154.732 241.66 155.206 241.822 155.643C241.985 156.081 242.235 156.434 242.573 156.702C242.911 156.971 243.342 157.105 243.866 157.105ZM250.29 153.406V158H249.117V150.364H250.25V151.557H250.35C250.529 151.169 250.801 150.857 251.165 150.622C251.53 150.384 252 150.264 252.577 150.264C253.094 150.264 253.547 150.37 253.934 150.582C254.322 150.791 254.624 151.109 254.839 151.537C255.055 151.961 255.162 152.498 255.162 153.148V158H253.989V153.227C253.989 152.627 253.833 152.16 253.522 151.825C253.21 151.487 252.783 151.318 252.239 151.318C251.864 151.318 251.53 151.399 251.235 151.562C250.943 151.724 250.713 151.961 250.544 152.273C250.375 152.584 250.29 152.962 250.29 153.406ZM260.508 158.159C259.772 158.159 259.137 157.997 258.604 157.672C258.074 157.344 257.664 156.886 257.376 156.3C257.091 155.71 256.948 155.024 256.948 154.241C256.948 153.459 257.091 152.77 257.376 152.173C257.664 151.573 258.065 151.106 258.579 150.771C259.096 150.433 259.699 150.264 260.389 150.264C260.786 150.264 261.179 150.33 261.567 150.463C261.955 150.596 262.308 150.811 262.626 151.109C262.944 151.404 263.198 151.795 263.387 152.283C263.575 152.77 263.67 153.37 263.67 154.082V154.58H257.784V153.565H262.477C262.477 153.134 262.391 152.75 262.218 152.412C262.049 152.074 261.807 151.807 261.492 151.612C261.181 151.416 260.813 151.318 260.389 151.318C259.921 151.318 259.517 151.434 259.176 151.666C258.838 151.895 258.577 152.193 258.395 152.561C258.213 152.929 258.122 153.323 258.122 153.744V154.42C258.122 154.997 258.221 155.486 258.42 155.887C258.622 156.285 258.902 156.588 259.26 156.797C259.618 157.002 260.034 157.105 260.508 157.105C260.816 157.105 261.095 157.062 261.343 156.976C261.595 156.886 261.812 156.754 261.994 156.578C262.177 156.399 262.318 156.177 262.417 155.912L263.551 156.23C263.431 156.615 263.231 156.953 262.949 157.244C262.667 157.533 262.319 157.758 261.905 157.92C261.491 158.08 261.025 158.159 260.508 158.159ZM272.494 158.159C271.805 158.159 271.2 157.995 270.68 157.667C270.163 157.339 269.758 156.88 269.467 156.29C269.178 155.7 269.034 155.01 269.034 154.222C269.034 153.426 269.178 152.732 269.467 152.138C269.758 151.545 270.163 151.085 270.68 150.756C271.2 150.428 271.805 150.264 272.494 150.264C273.184 150.264 273.787 150.428 274.304 150.756C274.825 151.085 275.229 151.545 275.517 152.138C275.809 152.732 275.955 153.426 275.955 154.222C275.955 155.01 275.809 155.7 275.517 156.29C275.229 156.88 274.825 157.339 274.304 157.667C273.787 157.995 273.184 158.159 272.494 158.159ZM272.494 157.105C273.018 157.105 273.449 156.971 273.787 156.702C274.125 156.434 274.375 156.081 274.538 155.643C274.7 155.206 274.781 154.732 274.781 154.222C274.781 153.711 274.7 153.236 274.538 152.795C274.375 152.354 274.125 151.998 273.787 151.726C273.449 151.454 273.018 151.318 272.494 151.318C271.971 151.318 271.54 151.454 271.202 151.726C270.864 151.998 270.614 152.354 270.451 152.795C270.289 153.236 270.208 153.711 270.208 154.222C270.208 154.732 270.289 155.206 270.451 155.643C270.614 156.081 270.864 156.434 271.202 156.702C271.54 156.971 271.971 157.105 272.494 157.105ZM282.857 153.406V158H281.683V147.818H282.857V151.557H282.956C283.135 151.162 283.403 150.849 283.761 150.617C284.123 150.382 284.603 150.264 285.203 150.264C285.723 150.264 286.179 150.369 286.57 150.577C286.961 150.783 287.265 151.099 287.48 151.527C287.699 151.951 287.808 152.491 287.808 153.148V158H286.635V153.227C286.635 152.621 286.478 152.152 286.163 151.82C285.851 151.486 285.419 151.318 284.865 151.318C284.481 151.318 284.136 151.399 283.831 151.562C283.529 151.724 283.291 151.961 283.115 152.273C282.943 152.584 282.857 152.962 282.857 153.406ZM293.057 158.159C292.368 158.159 291.763 157.995 291.242 157.667C290.725 157.339 290.321 156.88 290.029 156.29C289.741 155.7 289.597 155.01 289.597 154.222C289.597 153.426 289.741 152.732 290.029 152.138C290.321 151.545 290.725 151.085 291.242 150.756C291.763 150.428 292.368 150.264 293.057 150.264C293.746 150.264 294.35 150.428 294.867 150.756C295.387 151.085 295.791 151.545 296.08 152.138C296.371 152.732 296.517 153.426 296.517 154.222C296.517 155.01 296.371 155.7 296.08 156.29C295.791 156.88 295.387 157.339 294.867 157.667C294.35 157.995 293.746 158.159 293.057 158.159ZM293.057 157.105C293.581 157.105 294.012 156.971 294.35 156.702C294.688 156.434 294.938 156.081 295.1 155.643C295.263 155.206 295.344 154.732 295.344 154.222C295.344 153.711 295.263 153.236 295.1 152.795C294.938 152.354 294.688 151.998 294.35 151.726C294.012 151.454 293.581 151.318 293.057 151.318C292.533 151.318 292.102 151.454 291.764 151.726C291.426 151.998 291.176 152.354 291.014 152.795C290.851 153.236 290.77 153.711 290.77 154.222C290.77 154.732 290.851 155.206 291.014 155.643C291.176 156.081 291.426 156.434 291.764 156.702C292.102 156.971 292.533 157.105 293.057 157.105ZM298.308 158V150.364H299.442V151.517H299.521C299.661 151.139 299.912 150.833 300.277 150.597C300.642 150.362 301.053 150.244 301.51 150.244C301.596 150.244 301.704 150.246 301.833 150.249C301.962 150.253 302.06 150.258 302.126 150.264V151.457C302.087 151.447 301.996 151.433 301.853 151.413C301.714 151.389 301.566 151.378 301.411 151.378C301.039 151.378 300.708 151.456 300.416 151.612C300.128 151.764 299.899 151.976 299.73 152.248C299.564 152.516 299.482 152.823 299.482 153.168V158H298.308ZM305.764 158.179C305.28 158.179 304.841 158.088 304.447 157.906C304.052 157.72 303.739 157.453 303.507 157.105C303.275 156.754 303.159 156.33 303.159 155.832C303.159 155.395 303.245 155.04 303.418 154.768C303.59 154.493 303.82 154.278 304.109 154.122C304.397 153.966 304.715 153.85 305.063 153.774C305.415 153.695 305.768 153.632 306.122 153.585C306.586 153.526 306.963 153.481 307.251 153.451C307.543 153.418 307.755 153.363 307.887 153.287C308.023 153.211 308.091 153.078 308.091 152.889V152.849C308.091 152.359 307.957 151.978 307.688 151.706C307.423 151.434 307.021 151.298 306.48 151.298C305.92 151.298 305.481 151.421 305.163 151.666C304.845 151.911 304.621 152.173 304.492 152.452L303.378 152.054C303.577 151.59 303.842 151.229 304.173 150.97C304.508 150.708 304.873 150.526 305.267 150.423C305.665 150.317 306.056 150.264 306.441 150.264C306.686 150.264 306.968 150.294 307.286 150.354C307.607 150.41 307.917 150.528 308.215 150.707C308.517 150.886 308.767 151.156 308.966 151.517C309.165 151.878 309.264 152.362 309.264 152.969V158H308.091V156.966H308.031C307.952 157.132 307.819 157.309 307.634 157.498C307.448 157.687 307.201 157.848 306.893 157.98C306.585 158.113 306.209 158.179 305.764 158.179ZM305.943 157.125C306.407 157.125 306.798 157.034 307.117 156.852C307.438 156.669 307.68 156.434 307.843 156.146C308.008 155.857 308.091 155.554 308.091 155.236V154.162C308.041 154.222 307.932 154.276 307.763 154.326C307.597 154.372 307.405 154.414 307.186 154.45C306.971 154.483 306.76 154.513 306.555 154.54C306.353 154.563 306.189 154.583 306.063 154.599C305.758 154.639 305.473 154.704 305.208 154.793C304.946 154.879 304.734 155.01 304.571 155.186C304.412 155.358 304.333 155.594 304.333 155.892C304.333 156.3 304.483 156.608 304.785 156.817C305.09 157.022 305.476 157.125 305.943 157.125ZM305.983 149.33L307.196 147.023H308.568L307.017 149.33H305.983ZM311.406 158V150.364H312.539V151.517H312.619C312.758 151.139 313.01 150.833 313.375 150.597C313.739 150.362 314.15 150.244 314.608 150.244C314.694 150.244 314.801 150.246 314.931 150.249C315.06 150.253 315.158 150.258 315.224 150.264V151.457C315.184 151.447 315.093 151.433 314.951 151.413C314.811 151.389 314.664 151.378 314.508 151.378C314.137 151.378 313.806 151.456 313.514 151.612C313.225 151.764 312.997 151.976 312.828 152.248C312.662 152.516 312.579 152.823 312.579 153.168V158H311.406ZM316.615 158V150.364H317.788V158H316.615ZM317.211 149.091C316.983 149.091 316.786 149.013 316.62 148.857C316.457 148.701 316.376 148.514 316.376 148.295C316.376 148.077 316.457 147.889 316.62 147.734C316.786 147.578 316.983 147.5 317.211 147.5C317.44 147.5 317.636 147.578 317.798 147.734C317.964 147.889 318.047 148.077 318.047 148.295C318.047 148.514 317.964 148.701 317.798 148.857C317.636 149.013 317.44 149.091 317.211 149.091ZM323.039 158.159C322.35 158.159 321.745 157.995 321.225 157.667C320.708 157.339 320.303 156.88 320.012 156.29C319.723 155.7 319.579 155.01 319.579 154.222C319.579 153.426 319.723 152.732 320.012 152.138C320.303 151.545 320.708 151.085 321.225 150.756C321.745 150.428 322.35 150.264 323.039 150.264C323.729 150.264 324.332 150.428 324.849 150.756C325.369 151.085 325.774 151.545 326.062 152.138C326.354 152.732 326.5 153.426 326.5 154.222C326.5 155.01 326.354 155.7 326.062 156.29C325.774 156.88 325.369 157.339 324.849 157.667C324.332 157.995 323.729 158.159 323.039 158.159ZM323.039 157.105C323.563 157.105 323.994 156.971 324.332 156.702C324.67 156.434 324.92 156.081 325.083 155.643C325.245 155.206 325.326 154.732 325.326 154.222C325.326 153.711 325.245 153.236 325.083 152.795C324.92 152.354 324.67 151.998 324.332 151.726C323.994 151.454 323.563 151.318 323.039 151.318C322.516 151.318 322.085 151.454 321.747 151.726C321.409 151.998 321.158 152.354 320.996 152.795C320.834 153.236 320.752 153.711 320.752 154.222C320.752 154.732 320.834 155.206 320.996 155.643C321.158 156.081 321.409 156.434 321.747 156.702C322.085 156.971 322.516 157.105 323.039 157.105Z" fill="#8F9396"/>
<path d="M348.833 150.917L353 155.084L357.167 150.917H348.833Z" fill="#5D6164"/>
<rect x="218.5" y="127" width="41" height="12" rx="2" fill="white"/>
<path d="M222.94 130.672V129.727H228.569V130.672H226.3V137H225.206V130.672H222.94ZM231.287 137.11C230.75 137.11 230.287 136.995 229.899 136.766C229.513 136.534 229.215 136.208 229.004 135.789C228.796 135.368 228.691 134.874 228.691 134.308C228.691 133.75 228.796 133.257 229.004 132.831C229.215 132.405 229.508 132.072 229.885 131.833C230.263 131.594 230.706 131.474 231.213 131.474C231.52 131.474 231.819 131.525 232.108 131.627C232.396 131.729 232.656 131.889 232.885 132.107C233.115 132.324 233.296 132.607 233.429 132.955C233.561 133.301 233.627 133.721 233.627 134.216V134.592H229.292V133.797H232.587C232.587 133.518 232.53 133.27 232.417 133.055C232.303 132.837 232.143 132.665 231.937 132.54C231.734 132.414 231.494 132.352 231.22 132.352C230.922 132.352 230.661 132.425 230.439 132.572C230.218 132.716 230.048 132.906 229.927 133.14C229.809 133.372 229.75 133.624 229.75 133.896V134.518C229.75 134.882 229.814 135.192 229.941 135.448C230.072 135.704 230.253 135.899 230.485 136.034C230.717 136.167 230.988 136.233 231.298 136.233C231.499 136.233 231.683 136.205 231.848 136.148C232.014 136.089 232.157 136.001 232.278 135.885C232.399 135.769 232.491 135.626 232.555 135.455L233.56 135.636C233.48 135.932 233.335 136.192 233.127 136.414C232.921 136.634 232.662 136.806 232.349 136.929C232.039 137.05 231.685 137.11 231.287 137.11ZM234.806 137V131.545H235.825V132.433H235.892C236.006 132.133 236.192 131.898 236.45 131.73C236.708 131.56 237.017 131.474 237.377 131.474C237.741 131.474 238.047 131.56 238.293 131.73C238.541 131.901 238.725 132.135 238.843 132.433H238.9C239.03 132.142 239.237 131.91 239.521 131.737C239.806 131.562 240.144 131.474 240.537 131.474C241.032 131.474 241.436 131.629 241.748 131.94C242.063 132.25 242.22 132.717 242.22 133.342V137H241.159V133.442C241.159 133.072 241.058 132.805 240.857 132.639C240.655 132.473 240.415 132.391 240.136 132.391C239.79 132.391 239.521 132.497 239.33 132.71C239.138 132.921 239.042 133.192 239.042 133.523V137H237.984V133.374C237.984 133.078 237.892 132.84 237.707 132.661C237.522 132.481 237.282 132.391 236.986 132.391C236.785 132.391 236.599 132.444 236.428 132.55C236.26 132.655 236.124 132.8 236.02 132.987C235.918 133.174 235.867 133.391 235.867 133.637V137H234.806ZM243.643 139.045V131.545H244.68V132.43H244.769C244.831 132.316 244.92 132.185 245.036 132.036C245.152 131.886 245.313 131.756 245.518 131.645C245.724 131.531 245.997 131.474 246.335 131.474C246.776 131.474 247.169 131.586 247.514 131.808C247.86 132.031 248.131 132.352 248.327 132.771C248.526 133.19 248.626 133.694 248.626 134.283C248.626 134.873 248.527 135.378 248.331 135.8C248.134 136.219 247.865 136.542 247.521 136.769C247.178 136.994 246.786 137.107 246.346 137.107C246.014 137.107 245.743 137.051 245.533 136.94C245.324 136.828 245.161 136.698 245.043 136.549C244.924 136.4 244.833 136.267 244.769 136.151H244.705V139.045H243.643ZM244.684 134.273C244.684 134.656 244.74 134.992 244.851 135.281C244.962 135.57 245.123 135.796 245.334 135.96C245.545 136.121 245.803 136.201 246.108 136.201C246.425 136.201 246.69 136.117 246.903 135.949C247.116 135.778 247.277 135.548 247.386 135.256C247.498 134.965 247.553 134.637 247.553 134.273C247.553 133.913 247.499 133.59 247.39 133.303C247.283 133.017 247.122 132.791 246.907 132.625C246.694 132.459 246.428 132.376 246.108 132.376C245.8 132.376 245.54 132.456 245.327 132.614C245.116 132.773 244.956 132.994 244.847 133.278C244.738 133.562 244.684 133.894 244.684 134.273ZM252.113 137.11C251.602 137.11 251.155 136.993 250.774 136.759C250.393 136.524 250.097 136.196 249.886 135.775C249.676 135.353 249.57 134.861 249.57 134.298C249.57 133.732 249.676 133.237 249.886 132.813C250.097 132.389 250.393 132.06 250.774 131.826C251.155 131.592 251.602 131.474 252.113 131.474C252.624 131.474 253.071 131.592 253.452 131.826C253.833 132.06 254.129 132.389 254.339 132.813C254.55 133.237 254.656 133.732 254.656 134.298C254.656 134.861 254.55 135.353 254.339 135.775C254.129 136.196 253.833 136.524 253.452 136.759C253.071 136.993 252.624 137.11 252.113 137.11ZM252.116 136.219C252.448 136.219 252.723 136.131 252.94 135.956C253.158 135.781 253.319 135.548 253.423 135.256C253.53 134.965 253.583 134.644 253.583 134.294C253.583 133.946 253.53 133.626 253.423 133.335C253.319 133.042 253.158 132.806 252.94 132.629C252.723 132.451 252.448 132.362 252.116 132.362C251.783 132.362 251.506 132.451 251.286 132.629C251.068 132.806 250.906 133.042 250.799 133.335C250.695 133.626 250.643 133.946 250.643 134.294C250.643 134.644 250.695 134.965 250.799 135.256C250.906 135.548 251.068 135.781 251.286 135.956C251.506 136.131 251.783 136.219 252.116 136.219Z" fill="#1E75BA"/>
<rect x="422.5" y="195.5" width="129" height="39" rx="3.5" fill="white"/>
<rect x="422.5" y="195.5" width="129" height="39" rx="3.5" stroke="#1E75BA"/>
<path d="M438.634 209.818V220H437.401V211.111H437.341L434.855 212.761V211.509L437.401 209.818H438.634ZM441.562 220V219.105L444.923 215.426C445.317 214.995 445.642 214.621 445.897 214.303C446.152 213.981 446.341 213.679 446.464 213.398C446.59 213.113 446.653 212.814 446.653 212.503C446.653 212.145 446.567 211.835 446.394 211.573C446.225 211.311 445.993 211.109 445.698 210.967C445.403 210.824 445.072 210.753 444.704 210.753C444.313 210.753 443.971 210.834 443.68 210.996C443.391 211.156 443.168 211.379 443.009 211.668C442.853 211.956 442.775 212.294 442.775 212.682H441.602C441.602 212.085 441.739 211.562 442.014 211.111C442.289 210.66 442.664 210.309 443.138 210.057C443.615 209.805 444.15 209.679 444.744 209.679C445.34 209.679 445.869 209.805 446.33 210.057C446.79 210.309 447.152 210.648 447.413 211.076C447.675 211.504 447.806 211.979 447.806 212.503C447.806 212.877 447.738 213.244 447.602 213.602C447.47 213.956 447.238 214.352 446.906 214.79C446.578 215.224 446.122 215.754 445.539 216.381L443.252 218.827V218.906H447.985V220H441.562ZM450.913 218.697C450.668 218.697 450.458 218.61 450.282 218.434C450.106 218.258 450.018 218.048 450.018 217.803C450.018 217.557 450.106 217.347 450.282 217.171C450.458 216.996 450.668 216.908 450.913 216.908C451.159 216.908 451.369 216.996 451.545 217.171C451.72 217.347 451.808 217.557 451.808 217.803C451.808 217.965 451.767 218.114 451.684 218.25C451.604 218.386 451.497 218.495 451.361 218.578C451.228 218.658 451.079 218.697 450.913 218.697ZM450.913 213.547C450.668 213.547 450.458 213.459 450.282 213.283C450.106 213.108 450.018 212.897 450.018 212.652C450.018 212.407 450.106 212.196 450.282 212.021C450.458 211.845 450.668 211.757 450.913 211.757C451.159 211.757 451.369 211.845 451.545 212.021C451.72 212.196 451.808 212.407 451.808 212.652C451.808 212.814 451.767 212.964 451.684 213.099C451.604 213.235 451.497 213.345 451.361 213.428C451.228 213.507 451.079 213.547 450.913 213.547ZM457.215 220.139C456.466 220.139 455.828 219.935 455.301 219.528C454.774 219.117 454.371 218.522 454.093 217.743C453.814 216.961 453.675 216.016 453.675 214.909C453.675 213.809 453.814 212.869 454.093 212.09C454.374 211.308 454.779 210.711 455.306 210.3C455.836 209.886 456.472 209.679 457.215 209.679C457.957 209.679 458.592 209.886 459.119 210.3C459.649 210.711 460.054 211.308 460.332 212.09C460.614 212.869 460.755 213.809 460.755 214.909C460.755 216.016 460.615 216.961 460.337 217.743C460.059 218.522 459.656 219.117 459.129 219.528C458.602 219.935 457.964 220.139 457.215 220.139ZM457.215 219.045C457.957 219.045 458.534 218.687 458.945 217.972C459.356 217.256 459.561 216.235 459.561 214.909C459.561 214.027 459.467 213.277 459.278 212.657C459.092 212.037 458.824 211.565 458.473 211.24C458.125 210.915 457.705 210.753 457.215 210.753C456.479 210.753 455.904 211.116 455.49 211.842C455.075 212.564 454.868 213.587 454.868 214.909C454.868 215.791 454.961 216.54 455.147 217.156C455.332 217.773 455.599 218.242 455.947 218.563C456.298 218.885 456.721 219.045 457.215 219.045ZM465.965 220.139C465.216 220.139 464.578 219.935 464.051 219.528C463.524 219.117 463.121 218.522 462.843 217.743C462.564 216.961 462.425 216.016 462.425 214.909C462.425 213.809 462.564 212.869 462.843 212.09C463.124 211.308 463.529 210.711 464.056 210.3C464.586 209.886 465.222 209.679 465.965 209.679C466.707 209.679 467.342 209.886 467.869 210.3C468.399 210.711 468.804 211.308 469.082 212.09C469.364 212.869 469.505 213.809 469.505 214.909C469.505 216.016 469.365 216.961 469.087 217.743C468.809 218.522 468.406 219.117 467.879 219.528C467.352 219.935 466.714 220.139 465.965 220.139ZM465.965 219.045C466.707 219.045 467.284 218.687 467.695 217.972C468.106 217.256 468.311 216.235 468.311 214.909C468.311 214.027 468.217 213.277 468.028 212.657C467.842 212.037 467.574 211.565 467.223 211.24C466.875 210.915 466.455 210.753 465.965 210.753C465.229 210.753 464.654 211.116 464.24 211.842C463.825 212.564 463.618 213.587 463.618 214.909C463.618 215.791 463.711 216.54 463.897 217.156C464.082 217.773 464.349 218.242 464.697 218.563C465.048 218.885 465.471 219.045 465.965 219.045Z" fill="#3F4346"/>
<path d="M529.833 212.917L534 217.084L538.167 212.917H529.833Z" fill="#5D6164"/>
<rect x="425.5" y="189" width="41" height="12" rx="2" fill="white"/>
<path d="M429.94 192.672V191.727H435.569V192.672H433.3V199H432.206V192.672H429.94ZM438.287 199.11C437.75 199.11 437.287 198.995 436.899 198.766C436.513 198.534 436.215 198.208 436.004 197.789C435.796 197.368 435.691 196.874 435.691 196.308C435.691 195.75 435.796 195.257 436.004 194.831C436.215 194.405 436.508 194.072 436.885 193.833C437.263 193.594 437.706 193.474 438.213 193.474C438.52 193.474 438.819 193.525 439.108 193.627C439.396 193.729 439.656 193.889 439.885 194.107C440.115 194.324 440.296 194.607 440.429 194.955C440.561 195.301 440.627 195.721 440.627 196.216V196.592H436.292V195.797H439.587C439.587 195.518 439.53 195.27 439.417 195.055C439.303 194.837 439.143 194.665 438.937 194.54C438.734 194.414 438.494 194.352 438.22 194.352C437.922 194.352 437.661 194.425 437.439 194.572C437.218 194.716 437.048 194.906 436.927 195.14C436.809 195.372 436.75 195.624 436.75 195.896V196.518C436.75 196.882 436.814 197.192 436.941 197.448C437.072 197.704 437.253 197.899 437.485 198.034C437.717 198.167 437.988 198.233 438.298 198.233C438.499 198.233 438.683 198.205 438.848 198.148C439.014 198.089 439.157 198.001 439.278 197.885C439.399 197.769 439.491 197.626 439.555 197.455L440.56 197.636C440.48 197.932 440.335 198.192 440.127 198.414C439.921 198.634 439.662 198.806 439.349 198.929C439.039 199.05 438.685 199.11 438.287 199.11ZM441.806 199V193.545H442.825V194.433H442.892C443.006 194.133 443.192 193.898 443.45 193.73C443.708 193.56 444.017 193.474 444.377 193.474C444.741 193.474 445.047 193.56 445.293 193.73C445.541 193.901 445.725 194.135 445.843 194.433H445.9C446.03 194.142 446.237 193.91 446.521 193.737C446.806 193.562 447.144 193.474 447.537 193.474C448.032 193.474 448.436 193.629 448.748 193.94C449.063 194.25 449.22 194.717 449.22 195.342V199H448.159V195.442C448.159 195.072 448.058 194.805 447.857 194.639C447.655 194.473 447.415 194.391 447.136 194.391C446.79 194.391 446.521 194.497 446.33 194.71C446.138 194.921 446.042 195.192 446.042 195.523V199H444.984V195.374C444.984 195.078 444.892 194.84 444.707 194.661C444.522 194.481 444.282 194.391 443.986 194.391C443.785 194.391 443.599 194.444 443.428 194.55C443.26 194.655 443.124 194.8 443.02 194.987C442.918 195.174 442.867 195.391 442.867 195.637V199H441.806ZM450.643 201.045V193.545H451.68V194.43H451.769C451.831 194.316 451.92 194.185 452.036 194.036C452.152 193.886 452.313 193.756 452.518 193.645C452.724 193.531 452.997 193.474 453.335 193.474C453.776 193.474 454.169 193.586 454.514 193.808C454.86 194.031 455.131 194.352 455.327 194.771C455.526 195.19 455.626 195.694 455.626 196.283C455.626 196.873 455.527 197.378 455.331 197.8C455.134 198.219 454.865 198.542 454.521 198.769C454.178 198.994 453.786 199.107 453.346 199.107C453.014 199.107 452.743 199.051 452.533 198.94C452.324 198.828 452.161 198.698 452.043 198.549C451.924 198.4 451.833 198.267 451.769 198.151H451.705V201.045H450.643ZM451.684 196.273C451.684 196.656 451.74 196.992 451.851 197.281C451.962 197.57 452.123 197.796 452.334 197.96C452.545 198.121 452.803 198.201 453.108 198.201C453.425 198.201 453.69 198.117 453.903 197.949C454.116 197.778 454.277 197.548 454.386 197.256C454.498 196.965 454.553 196.637 454.553 196.273C454.553 195.913 454.499 195.59 454.39 195.303C454.283 195.017 454.122 194.791 453.907 194.625C453.694 194.459 453.428 194.376 453.108 194.376C452.8 194.376 452.54 194.456 452.327 194.614C452.116 194.773 451.956 194.994 451.847 195.278C451.738 195.562 451.684 195.894 451.684 196.273ZM459.113 199.11C458.602 199.11 458.155 198.993 457.774 198.759C457.393 198.524 457.097 198.196 456.886 197.775C456.676 197.353 456.57 196.861 456.57 196.298C456.57 195.732 456.676 195.237 456.886 194.813C457.097 194.389 457.393 194.06 457.774 193.826C458.155 193.592 458.602 193.474 459.113 193.474C459.624 193.474 460.071 193.592 460.452 193.826C460.833 194.06 461.129 194.389 461.339 194.813C461.55 195.237 461.656 195.732 461.656 196.298C461.656 196.861 461.55 197.353 461.339 197.775C461.129 198.196 460.833 198.524 460.452 198.759C460.071 198.993 459.624 199.11 459.113 199.11ZM459.116 198.219C459.448 198.219 459.723 198.131 459.94 197.956C460.158 197.781 460.319 197.548 460.423 197.256C460.53 196.965 460.583 196.644 460.583 196.294C460.583 195.946 460.53 195.626 460.423 195.335C460.319 195.042 460.158 194.806 459.94 194.629C459.723 194.451 459.448 194.362 459.116 194.362C458.783 194.362 458.506 194.451 458.286 194.629C458.068 194.806 457.906 195.042 457.799 195.335C457.695 195.626 457.643 195.946 457.643 196.294C457.643 196.644 457.695 196.965 457.799 197.256C457.906 197.548 458.068 197.781 458.286 197.956C458.506 198.131 458.783 198.219 459.116 198.219Z" fill="#1E75BA"/>
<rect x="227.5" y="195.5" width="143" height="39" rx="3.5" fill="white"/>
<rect x="227.5" y="195.5" width="143" height="39" rx="3.5" stroke="#1E75BA"/>
<path d="M245.801 212.364C245.741 211.86 245.5 211.469 245.075 211.19C244.651 210.912 244.131 210.773 243.514 210.773C243.063 210.773 242.669 210.846 242.331 210.991C241.996 211.137 241.734 211.338 241.545 211.593C241.36 211.848 241.267 212.138 241.267 212.463C241.267 212.735 241.332 212.969 241.461 213.164C241.594 213.356 241.763 213.517 241.968 213.646C242.174 213.772 242.389 213.877 242.614 213.96C242.84 214.039 243.047 214.104 243.236 214.153L244.27 214.432C244.535 214.501 244.83 214.598 245.155 214.72C245.483 214.843 245.796 215.01 246.094 215.222C246.396 215.431 246.645 215.7 246.84 216.028C247.036 216.356 247.134 216.759 247.134 217.236C247.134 217.786 246.989 218.283 246.701 218.727C246.416 219.171 245.998 219.524 245.448 219.786C244.901 220.048 244.237 220.179 243.455 220.179C242.725 220.179 242.094 220.061 241.56 219.826C241.03 219.591 240.612 219.263 240.308 218.842C240.006 218.421 239.835 217.932 239.795 217.375H241.068C241.101 217.759 241.231 218.078 241.456 218.33C241.685 218.578 241.973 218.764 242.321 218.886C242.672 219.006 243.05 219.065 243.455 219.065C243.925 219.065 244.348 218.989 244.722 218.837C245.097 218.681 245.393 218.465 245.612 218.19C245.831 217.912 245.94 217.587 245.94 217.216C245.94 216.878 245.846 216.603 245.657 216.391C245.468 216.179 245.219 216.006 244.911 215.874C244.603 215.741 244.27 215.625 243.912 215.526L242.659 215.168C241.864 214.939 241.234 214.612 240.77 214.188C240.306 213.764 240.074 213.209 240.074 212.523C240.074 211.953 240.228 211.455 240.536 211.031C240.848 210.604 241.265 210.272 241.789 210.037C242.316 209.798 242.904 209.679 243.554 209.679C244.21 209.679 244.794 209.797 245.304 210.032C245.814 210.264 246.219 210.582 246.517 210.987C246.819 211.391 246.978 211.85 246.994 212.364H245.801ZM252.203 220.159C251.468 220.159 250.833 219.997 250.299 219.672C249.769 219.344 249.36 218.886 249.071 218.3C248.786 217.71 248.644 217.024 248.644 216.241C248.644 215.459 248.786 214.77 249.071 214.173C249.36 213.573 249.761 213.106 250.274 212.771C250.791 212.433 251.395 212.264 252.084 212.264C252.482 212.264 252.874 212.33 253.262 212.463C253.65 212.596 254.003 212.811 254.321 213.109C254.639 213.404 254.893 213.795 255.082 214.283C255.271 214.77 255.365 215.37 255.365 216.082V216.58H249.479V215.565H254.172C254.172 215.134 254.086 214.75 253.914 214.412C253.744 214.074 253.503 213.807 253.188 213.612C252.876 213.416 252.508 213.318 252.084 213.318C251.617 213.318 251.212 213.434 250.871 213.666C250.533 213.895 250.273 214.193 250.09 214.561C249.908 214.929 249.817 215.323 249.817 215.744V216.42C249.817 216.997 249.916 217.486 250.115 217.887C250.317 218.285 250.597 218.588 250.955 218.797C251.313 219.002 251.729 219.105 252.203 219.105C252.512 219.105 252.79 219.062 253.039 218.976C253.29 218.886 253.508 218.754 253.69 218.578C253.872 218.399 254.013 218.177 254.112 217.912L255.246 218.23C255.127 218.615 254.926 218.953 254.644 219.244C254.363 219.533 254.015 219.758 253.6 219.92C253.186 220.08 252.72 220.159 252.203 220.159ZM260.232 223.023C259.666 223.023 259.178 222.95 258.771 222.804C258.363 222.661 258.023 222.473 257.752 222.237C257.483 222.005 257.269 221.757 257.11 221.491L258.045 220.835C258.151 220.974 258.285 221.134 258.448 221.312C258.61 221.495 258.832 221.652 259.114 221.785C259.399 221.921 259.772 221.989 260.232 221.989C260.849 221.989 261.358 221.839 261.759 221.541C262.16 221.243 262.36 220.776 262.36 220.139V218.588H262.261C262.175 218.727 262.052 218.9 261.893 219.105C261.737 219.307 261.512 219.488 261.217 219.647C260.925 219.803 260.531 219.881 260.034 219.881C259.417 219.881 258.864 219.735 258.373 219.443C257.886 219.152 257.5 218.727 257.215 218.17C256.933 217.614 256.792 216.937 256.792 216.142C256.792 215.36 256.93 214.679 257.205 214.099C257.48 213.515 257.863 213.065 258.353 212.746C258.844 212.425 259.41 212.264 260.053 212.264C260.551 212.264 260.945 212.347 261.237 212.513C261.532 212.675 261.757 212.861 261.913 213.07C262.072 213.275 262.195 213.444 262.281 213.577H262.4V212.364H263.534V220.219C263.534 220.875 263.384 221.409 263.086 221.82C262.791 222.234 262.393 222.537 261.893 222.729C261.396 222.925 260.842 223.023 260.232 223.023ZM260.193 218.827C260.663 218.827 261.061 218.719 261.386 218.504C261.711 218.288 261.958 217.978 262.127 217.574C262.296 217.17 262.38 216.686 262.38 216.122C262.38 215.572 262.297 215.086 262.132 214.665C261.966 214.245 261.721 213.915 261.396 213.676C261.071 213.437 260.67 213.318 260.193 213.318C259.695 213.318 259.281 213.444 258.95 213.696C258.622 213.948 258.375 214.286 258.209 214.71C258.047 215.134 257.965 215.605 257.965 216.122C257.965 216.652 258.048 217.121 258.214 217.529C258.383 217.933 258.632 218.252 258.96 218.484C259.291 218.712 259.702 218.827 260.193 218.827ZM270.494 216.878V212.364H271.667V220H270.494V218.707H270.414C270.235 219.095 269.957 219.425 269.579 219.697C269.201 219.965 268.724 220.099 268.147 220.099C267.67 220.099 267.246 219.995 266.874 219.786C266.503 219.574 266.212 219.256 265.999 218.832C265.787 218.404 265.681 217.866 265.681 217.216V212.364H266.855V217.136C266.855 217.693 267.01 218.137 267.322 218.469C267.637 218.8 268.038 218.966 268.525 218.966C268.817 218.966 269.113 218.891 269.415 218.742C269.72 218.593 269.975 218.364 270.181 218.056C270.389 217.748 270.494 217.355 270.494 216.878ZM274.989 215.406V220H273.816V212.364H274.95V213.557H275.049C275.228 213.169 275.5 212.857 275.864 212.622C276.229 212.384 276.7 212.264 277.276 212.264C277.793 212.264 278.246 212.37 278.634 212.582C279.021 212.791 279.323 213.109 279.538 213.537C279.754 213.961 279.862 214.498 279.862 215.148V220H278.688V215.227C278.688 214.627 278.532 214.16 278.221 213.825C277.909 213.487 277.482 213.318 276.938 213.318C276.564 213.318 276.229 213.399 275.934 213.562C275.642 213.724 275.412 213.961 275.243 214.273C275.074 214.584 274.989 214.962 274.989 215.406ZM284.889 220.159C284.253 220.159 283.691 219.998 283.204 219.677C282.716 219.352 282.335 218.895 282.06 218.305C281.785 217.711 281.648 217.01 281.648 216.202C281.648 215.4 281.785 214.704 282.06 214.114C282.335 213.524 282.718 213.068 283.209 212.746C283.699 212.425 284.266 212.264 284.909 212.264C285.406 212.264 285.799 212.347 286.087 212.513C286.379 212.675 286.601 212.861 286.753 213.07C286.909 213.275 287.03 213.444 287.116 213.577H287.216V209.818H288.389V220H287.256V218.827H287.116C287.03 218.966 286.907 219.142 286.748 219.354C286.589 219.562 286.362 219.75 286.067 219.915C285.772 220.078 285.38 220.159 284.889 220.159ZM285.048 219.105C285.519 219.105 285.916 218.982 286.241 218.737C286.566 218.489 286.813 218.146 286.982 217.708C287.151 217.267 287.236 216.759 287.236 216.182C287.236 215.612 287.153 215.113 286.987 214.685C286.821 214.254 286.576 213.92 286.251 213.681C285.926 213.439 285.525 213.318 285.048 213.318C284.551 213.318 284.137 213.446 283.805 213.701C283.477 213.953 283.23 214.296 283.064 214.73C282.902 215.161 282.821 215.645 282.821 216.182C282.821 216.725 282.904 217.219 283.069 217.663C283.238 218.104 283.487 218.455 283.815 218.717C284.147 218.976 284.558 219.105 285.048 219.105ZM292.948 220.179C292.464 220.179 292.025 220.088 291.631 219.906C291.236 219.72 290.923 219.453 290.691 219.105C290.459 218.754 290.343 218.33 290.343 217.832C290.343 217.395 290.429 217.04 290.601 216.768C290.774 216.493 291.004 216.278 291.292 216.122C291.581 215.966 291.899 215.85 292.247 215.774C292.598 215.695 292.951 215.632 293.306 215.585C293.77 215.526 294.146 215.481 294.434 215.451C294.726 215.418 294.938 215.363 295.071 215.287C295.207 215.211 295.275 215.078 295.275 214.889V214.849C295.275 214.359 295.14 213.978 294.872 213.706C294.607 213.434 294.204 213.298 293.664 213.298C293.104 213.298 292.665 213.421 292.346 213.666C292.028 213.911 291.805 214.173 291.675 214.452L290.562 214.054C290.76 213.59 291.026 213.229 291.357 212.97C291.692 212.708 292.056 212.526 292.451 212.423C292.849 212.317 293.24 212.264 293.624 212.264C293.869 212.264 294.151 212.294 294.469 212.354C294.791 212.41 295.101 212.528 295.399 212.707C295.701 212.886 295.951 213.156 296.15 213.517C296.349 213.878 296.448 214.362 296.448 214.969V220H295.275V218.966H295.215C295.135 219.132 295.003 219.309 294.817 219.498C294.632 219.687 294.385 219.848 294.077 219.98C293.768 220.113 293.392 220.179 292.948 220.179ZM293.127 219.125C293.591 219.125 293.982 219.034 294.3 218.852C294.622 218.669 294.864 218.434 295.026 218.146C295.192 217.857 295.275 217.554 295.275 217.236V216.162C295.225 216.222 295.116 216.276 294.947 216.326C294.781 216.372 294.589 216.414 294.37 216.45C294.154 216.483 293.944 216.513 293.738 216.54C293.536 216.563 293.372 216.583 293.246 216.599C292.941 216.639 292.656 216.704 292.391 216.793C292.129 216.879 291.917 217.01 291.755 217.186C291.596 217.358 291.516 217.594 291.516 217.892C291.516 218.3 291.667 218.608 291.969 218.817C292.273 219.022 292.66 219.125 293.127 219.125ZM302.964 215.088V216.182H298.51V215.088H302.964ZM308.43 212.364V213.358H304.313V212.364H308.43ZM305.546 220V211.31C305.546 210.872 305.649 210.508 305.854 210.216C306.06 209.924 306.327 209.705 306.655 209.56C306.983 209.414 307.329 209.341 307.694 209.341C307.982 209.341 308.217 209.364 308.4 209.411C308.582 209.457 308.718 209.5 308.807 209.54L308.469 210.554C308.41 210.534 308.327 210.509 308.221 210.479C308.118 210.45 307.982 210.435 307.813 210.435C307.425 210.435 307.145 210.532 306.973 210.728C306.804 210.924 306.719 211.21 306.719 211.588V220H305.546ZM312.961 220.159C312.225 220.159 311.591 219.997 311.057 219.672C310.527 219.344 310.117 218.886 309.829 218.3C309.544 217.71 309.401 217.024 309.401 216.241C309.401 215.459 309.544 214.77 309.829 214.173C310.117 213.573 310.518 213.106 311.032 212.771C311.549 212.433 312.152 212.264 312.842 212.264C313.24 212.264 313.632 212.33 314.02 212.463C314.408 212.596 314.761 212.811 315.079 213.109C315.397 213.404 315.651 213.795 315.84 214.283C316.029 214.77 316.123 215.37 316.123 216.082V216.58H310.237V215.565H314.93C314.93 215.134 314.844 214.75 314.671 214.412C314.502 214.074 314.26 213.807 313.945 213.612C313.634 213.416 313.266 213.318 312.842 213.318C312.374 213.318 311.97 213.434 311.629 213.666C311.291 213.895 311.03 214.193 310.848 214.561C310.666 214.929 310.575 215.323 310.575 215.744V216.42C310.575 216.997 310.674 217.486 310.873 217.887C311.075 218.285 311.355 218.588 311.713 218.797C312.071 219.002 312.487 219.105 312.961 219.105C313.269 219.105 313.548 219.062 313.796 218.976C314.048 218.886 314.265 218.754 314.448 218.578C314.63 218.399 314.771 218.177 314.87 217.912L316.004 218.23C315.884 218.615 315.684 218.953 315.402 219.244C315.12 219.533 314.772 219.758 314.358 219.92C313.944 220.08 313.478 220.159 312.961 220.159ZM317.908 220V212.364H319.081V220H317.908ZM318.504 211.091C318.276 211.091 318.079 211.013 317.913 210.857C317.75 210.701 317.669 210.514 317.669 210.295C317.669 210.077 317.75 209.889 317.913 209.734C318.079 209.578 318.276 209.5 318.504 209.5C318.733 209.5 318.929 209.578 319.091 209.734C319.257 209.889 319.34 210.077 319.34 210.295C319.34 210.514 319.257 210.701 319.091 210.857C318.929 211.013 318.733 211.091 318.504 211.091ZM321.23 220V212.364H322.364V213.517H322.443C322.582 213.139 322.834 212.833 323.199 212.597C323.563 212.362 323.974 212.244 324.432 212.244C324.518 212.244 324.626 212.246 324.755 212.249C324.884 212.253 324.982 212.258 325.048 212.264V213.457C325.009 213.447 324.917 213.433 324.775 213.413C324.636 213.389 324.488 213.378 324.332 213.378C323.961 213.378 323.63 213.456 323.338 213.612C323.05 213.764 322.821 213.976 322.652 214.248C322.486 214.516 322.403 214.823 322.403 215.168V220H321.23ZM328.686 220.179C328.202 220.179 327.763 220.088 327.369 219.906C326.974 219.72 326.661 219.453 326.429 219.105C326.197 218.754 326.081 218.33 326.081 217.832C326.081 217.395 326.167 217.04 326.34 216.768C326.512 216.493 326.742 216.278 327.031 216.122C327.319 215.966 327.637 215.85 327.985 215.774C328.337 215.695 328.69 215.632 329.044 215.585C329.508 215.526 329.884 215.481 330.173 215.451C330.464 215.418 330.677 215.363 330.809 215.287C330.945 215.211 331.013 215.078 331.013 214.889V214.849C331.013 214.359 330.879 213.978 330.61 213.706C330.345 213.434 329.942 213.298 329.402 213.298C328.842 213.298 328.403 213.421 328.085 213.666C327.767 213.911 327.543 214.173 327.414 214.452L326.3 214.054C326.499 213.59 326.764 213.229 327.095 212.97C327.43 212.708 327.795 212.526 328.189 212.423C328.587 212.317 328.978 212.264 329.362 212.264C329.608 212.264 329.889 212.294 330.208 212.354C330.529 212.41 330.839 212.528 331.137 212.707C331.439 212.886 331.689 213.156 331.888 213.517C332.087 213.878 332.186 214.362 332.186 214.969V220H331.013V218.966H330.953C330.874 219.132 330.741 219.309 330.556 219.498C330.37 219.687 330.123 219.848 329.815 219.98C329.507 220.113 329.13 220.179 328.686 220.179ZM328.865 219.125C329.329 219.125 329.72 219.034 330.039 218.852C330.36 218.669 330.602 218.434 330.764 218.146C330.93 217.857 331.013 217.554 331.013 217.236V216.162C330.963 216.222 330.854 216.276 330.685 216.326C330.519 216.372 330.327 216.414 330.108 216.45C329.893 216.483 329.682 216.513 329.477 216.54C329.275 216.563 329.11 216.583 328.985 216.599C328.68 216.639 328.395 216.704 328.129 216.793C327.868 216.879 327.655 217.01 327.493 217.186C327.334 217.358 327.254 217.594 327.254 217.892C327.254 218.3 327.405 218.608 327.707 218.817C328.012 219.022 328.398 219.125 328.865 219.125Z" fill="#3F4346"/>
<path d="M348.833 212.917L353 217.084L357.167 212.917H348.833Z" fill="#5D6164"/>
<rect x="243.5" y="189" width="29" height="12" rx="2" fill="white"/>
<path d="M250.653 199H248.299V191.727H250.728C251.441 191.727 252.053 191.873 252.564 192.164C253.075 192.453 253.467 192.868 253.739 193.411C254.014 193.95 254.151 194.598 254.151 195.353C254.151 196.111 254.013 196.762 253.736 197.306C253.461 197.851 253.063 198.27 252.543 198.563C252.022 198.854 251.392 199 250.653 199ZM249.396 198.041H250.593C251.147 198.041 251.607 197.937 251.974 197.729C252.341 197.518 252.616 197.214 252.798 196.816C252.981 196.416 253.072 195.928 253.072 195.353C253.072 194.782 252.981 194.298 252.798 193.901C252.618 193.503 252.35 193.201 251.992 192.995C251.635 192.789 251.191 192.686 250.661 192.686H249.396V198.041ZM255.431 199V193.545H256.492V199H255.431ZM255.967 192.704C255.782 192.704 255.624 192.642 255.491 192.519C255.361 192.394 255.296 192.245 255.296 192.072C255.296 191.897 255.361 191.747 255.491 191.624C255.624 191.499 255.782 191.436 255.967 191.436C256.151 191.436 256.309 191.499 256.439 191.624C256.572 191.747 256.638 191.897 256.638 192.072C256.638 192.245 256.572 192.394 256.439 192.519C256.309 192.642 256.151 192.704 255.967 192.704ZM259.508 199.121C259.163 199.121 258.85 199.057 258.571 198.929C258.291 198.799 258.07 198.611 257.907 198.364C257.746 198.118 257.665 197.816 257.665 197.459C257.665 197.151 257.724 196.898 257.843 196.699C257.961 196.5 258.121 196.343 258.322 196.227C258.523 196.111 258.748 196.023 258.997 195.964C259.245 195.905 259.499 195.86 259.757 195.829C260.083 195.791 260.349 195.76 260.552 195.737C260.756 195.71 260.904 195.669 260.996 195.612C261.088 195.555 261.135 195.463 261.135 195.335V195.31C261.135 195 261.047 194.76 260.872 194.589C260.699 194.419 260.441 194.334 260.098 194.334C259.74 194.334 259.458 194.413 259.252 194.572C259.049 194.728 258.908 194.902 258.83 195.094L257.832 194.866C257.95 194.535 258.123 194.268 258.35 194.064C258.58 193.858 258.844 193.709 259.142 193.616C259.441 193.522 259.754 193.474 260.083 193.474C260.301 193.474 260.532 193.5 260.776 193.553C261.022 193.602 261.252 193.695 261.465 193.83C261.68 193.964 261.857 194.157 261.994 194.408C262.131 194.657 262.2 194.98 262.2 195.378V199H261.163V198.254H261.12C261.052 198.392 260.949 198.527 260.811 198.659C260.674 198.792 260.498 198.902 260.282 198.989C260.067 199.077 259.809 199.121 259.508 199.121ZM259.739 198.268C260.033 198.268 260.283 198.21 260.492 198.094C260.703 197.978 260.862 197.827 260.971 197.64C261.083 197.451 261.138 197.248 261.138 197.033V196.33C261.1 196.367 261.027 196.403 260.918 196.436C260.811 196.467 260.69 196.494 260.552 196.518C260.415 196.539 260.281 196.559 260.151 196.578C260.021 196.595 259.912 196.609 259.824 196.621C259.618 196.647 259.43 196.691 259.26 196.752C259.092 196.814 258.957 196.902 258.855 197.018C258.755 197.132 258.706 197.284 258.706 197.473C258.706 197.736 258.803 197.935 258.997 198.07C259.191 198.202 259.438 198.268 259.739 198.268ZM267.702 194.877L266.739 195.048C266.699 194.924 266.635 194.807 266.547 194.696C266.462 194.585 266.346 194.494 266.199 194.423C266.053 194.352 265.869 194.316 265.649 194.316C265.348 194.316 265.097 194.384 264.896 194.518C264.695 194.651 264.594 194.823 264.594 195.033C264.594 195.216 264.662 195.362 264.797 195.474C264.932 195.585 265.149 195.676 265.45 195.747L266.317 195.946C266.818 196.062 267.193 196.241 267.439 196.482C267.685 196.724 267.808 197.037 267.808 197.423C267.808 197.75 267.713 198.041 267.524 198.297C267.337 198.55 267.075 198.749 266.739 198.893C266.405 199.038 266.018 199.11 265.578 199.11C264.967 199.11 264.469 198.98 264.083 198.719C263.697 198.457 263.46 198.084 263.373 197.601L264.399 197.445C264.463 197.712 264.594 197.915 264.793 198.052C264.992 198.187 265.251 198.254 265.571 198.254C265.919 198.254 266.197 198.182 266.405 198.038C266.614 197.891 266.718 197.712 266.718 197.501C266.718 197.331 266.654 197.188 266.526 197.072C266.401 196.956 266.208 196.868 265.947 196.809L265.024 196.607C264.515 196.491 264.139 196.306 263.895 196.053C263.653 195.799 263.532 195.478 263.532 195.09C263.532 194.768 263.622 194.487 263.802 194.245C263.982 194.004 264.231 193.815 264.548 193.68C264.865 193.543 265.229 193.474 265.638 193.474C266.228 193.474 266.692 193.602 267.03 193.858C267.369 194.111 267.593 194.451 267.702 194.877Z" fill="#1E75BA"/>
<path d="M42.598 99V84.4545H47.7827C48.9096 84.4545 49.8447 84.6487 50.5881 85.0369C51.3362 85.4252 51.8949 85.9626 52.2642 86.6491C52.6335 87.331 52.8182 88.1193 52.8182 89.0142C52.8182 89.9044 52.6312 90.688 52.2571 91.3651C51.8878 92.0374 51.3291 92.5606 50.581 92.9347C49.8376 93.3087 48.9025 93.4957 47.7756 93.4957H43.848V91.6065H47.5767C48.2869 91.6065 48.8646 91.5047 49.3097 91.3011C49.7595 91.0975 50.0885 90.8016 50.2969 90.4134C50.5052 90.0251 50.6094 89.5587 50.6094 89.0142C50.6094 88.465 50.5028 87.9891 50.2898 87.5866C50.0814 87.1842 49.7524 86.8764 49.3026 86.6634C48.8575 86.4455 48.2727 86.3366 47.5483 86.3366H44.7926V99H42.598ZM49.7784 92.4375L53.3722 99H50.8722L47.3494 92.4375H49.7784ZM59.8832 99.2202C58.8084 99.2202 57.8827 98.9905 57.1062 98.5312C56.3344 98.0672 55.7378 97.4162 55.3164 96.5781C54.8997 95.7353 54.6914 94.7481 54.6914 93.6165C54.6914 92.4991 54.8997 91.5142 55.3164 90.6619C55.7378 89.8097 56.3249 89.1444 57.0778 88.6662C57.8353 88.188 58.7208 87.9489 59.734 87.9489C60.3496 87.9489 60.9461 88.0507 61.5238 88.2543C62.1014 88.4579 62.6199 88.7775 63.0792 89.2131C63.5385 89.6487 63.9007 90.2145 64.1658 90.9105C64.431 91.6018 64.5636 92.4422 64.5636 93.4318V94.1847H55.8917V92.5938H62.4826C62.4826 92.035 62.369 91.5402 62.1417 91.1094C61.9144 90.6738 61.5948 90.3305 61.1829 90.0795C60.7757 89.8286 60.2975 89.7031 59.7482 89.7031C59.1516 89.7031 58.6308 89.8499 58.1857 90.1435C57.7454 90.4323 57.4045 90.8111 57.163 91.2798C56.9263 91.7438 56.8079 92.2481 56.8079 92.7926V94.0355C56.8079 94.7647 56.9357 95.3849 57.1914 95.8963C57.4518 96.4077 57.814 96.7983 58.2781 97.0682C58.7421 97.3333 59.2842 97.4659 59.9045 97.4659C60.3069 97.4659 60.6739 97.4091 61.0053 97.2955C61.3368 97.1771 61.6232 97.0019 61.8647 96.7699C62.1062 96.5379 62.2908 96.2514 62.4187 95.9105L64.4286 96.2727C64.2676 96.8646 63.9788 97.383 63.5621 97.8281C63.1502 98.2685 62.6317 98.6117 62.0067 98.858C61.3865 99.0994 60.6786 99.2202 59.8832 99.2202ZM66.9197 103.091V88.0909H68.9936V89.8594H69.1712C69.2943 89.6321 69.4718 89.3693 69.7038 89.071C69.9358 88.7727 70.2578 88.5123 70.6697 88.2898C71.0817 88.0625 71.6262 87.9489 72.3033 87.9489C73.1839 87.9489 73.9699 88.1714 74.6612 88.6165C75.3525 89.0616 75.8946 89.7031 76.2876 90.5412C76.6854 91.3793 76.8842 92.3878 76.8842 93.5668C76.8842 94.7457 76.6877 95.7566 76.2947 96.5994C75.9018 97.4375 75.362 98.0838 74.6754 98.5384C73.9889 98.9882 73.2053 99.2131 72.3246 99.2131C71.6617 99.2131 71.1196 99.1018 70.6982 98.8793C70.2815 98.6567 69.9548 98.3963 69.718 98.098C69.4813 97.7997 69.299 97.5346 69.1712 97.3026H69.0433V103.091H66.9197ZM69.0007 93.5455C69.0007 94.3125 69.112 94.9848 69.3345 95.5625C69.5571 96.1402 69.879 96.5923 70.3004 96.919C70.7218 97.241 71.2379 97.402 71.8487 97.402C72.4832 97.402 73.0135 97.2339 73.4396 96.8977C73.8658 96.5568 74.1877 96.0952 74.4055 95.5128C74.6281 94.9304 74.7393 94.2746 74.7393 93.5455C74.7393 92.8258 74.6304 92.1795 74.4126 91.6065C74.1996 91.0336 73.8776 90.5814 73.4467 90.25C73.0206 89.9186 72.4879 89.7528 71.8487 89.7528C71.2332 89.7528 70.7124 89.9115 70.2862 90.2287C69.8648 90.5459 69.5452 90.9886 69.3274 91.5568C69.1096 92.125 69.0007 92.7879 69.0007 93.5455ZM79.2635 99V88.0909H81.3871V99H79.2635ZM80.3359 86.4077C79.9666 86.4077 79.6494 86.2846 79.3842 86.0384C79.1238 85.7874 78.9936 85.4891 78.9936 85.1435C78.9936 84.7931 79.1238 84.4948 79.3842 84.2486C79.6494 83.9976 79.9666 83.8722 80.3359 83.8722C80.7053 83.8722 81.0201 83.9976 81.2805 84.2486C81.5457 84.4948 81.6783 84.7931 81.6783 85.1435C81.6783 85.4891 81.5457 85.7874 81.2805 86.0384C81.0201 86.2846 80.7053 86.4077 80.3359 86.4077ZM89.3363 88.0909V89.7955H83.3775V88.0909H89.3363ZM84.9755 85.4773H87.0991V95.7969C87.0991 96.2088 87.1606 96.5189 87.2837 96.7273C87.4068 96.9309 87.5655 97.0705 87.7596 97.1463C87.9585 97.2173 88.1739 97.2528 88.4059 97.2528C88.5763 97.2528 88.7255 97.241 88.8533 97.2173C88.9812 97.1937 89.0806 97.1747 89.1516 97.1605L89.5352 98.9148C89.4121 98.9621 89.2369 99.0095 89.0096 99.0568C88.7823 99.1089 88.4982 99.1373 88.1573 99.142C87.5986 99.1515 87.0778 99.0521 86.5948 98.8438C86.1119 98.6354 85.7212 98.3134 85.4229 97.8778C85.1246 97.4422 84.9755 96.8954 84.9755 96.2372V85.4773ZM94.8601 99.2415C94.1688 99.2415 93.5438 99.1136 92.9851 98.858C92.4264 98.5975 91.9837 98.2211 91.657 97.7287C91.335 97.2363 91.174 96.6326 91.174 95.9176C91.174 95.3021 91.2924 94.7955 91.5291 94.3977C91.7659 94 92.0855 93.6851 92.4879 93.4531C92.8904 93.2211 93.3402 93.0459 93.8374 92.9276C94.3345 92.8092 94.8411 92.7192 95.3572 92.6577C96.0107 92.5819 96.541 92.5204 96.9482 92.473C97.3554 92.4209 97.6513 92.3381 97.8359 92.2244C98.0206 92.1108 98.1129 91.9261 98.1129 91.6705V91.6207C98.1129 91.0005 97.9377 90.5199 97.5874 90.179C97.2417 89.8381 96.7256 89.6676 96.0391 89.6676C95.3241 89.6676 94.7607 89.8262 94.3487 90.1435C93.9415 90.456 93.6598 90.804 93.5036 91.1875L91.5078 90.733C91.7446 90.0701 92.0902 89.535 92.5447 89.1278C93.004 88.7159 93.532 88.4176 94.1286 88.233C94.7251 88.0436 95.3525 87.9489 96.0107 87.9489C96.4463 87.9489 96.9079 88.0009 97.3956 88.1051C97.888 88.2045 98.3473 88.3892 98.7734 88.6591C99.2043 88.929 99.5571 89.3149 99.8317 89.8168C100.106 90.3139 100.244 90.9602 100.244 91.7557V99H98.1697V97.5085H98.0845C97.9472 97.7831 97.7412 98.053 97.4666 98.3182C97.192 98.5833 96.8393 98.8035 96.4084 98.9787C95.9775 99.1539 95.4614 99.2415 94.8601 99.2415ZM95.3217 97.5369C95.9089 97.5369 96.4107 97.4209 96.8274 97.1889C97.2488 96.9569 97.5684 96.6539 97.7862 96.2798C98.0088 95.901 98.12 95.4962 98.12 95.0653V93.6591C98.0443 93.7348 97.8975 93.8059 97.6797 93.8722C97.4666 93.9337 97.2228 93.9882 96.9482 94.0355C96.6735 94.0781 96.406 94.1184 96.1456 94.1562C95.8852 94.1894 95.6674 94.2178 95.4922 94.2415C95.0803 94.2936 94.7038 94.3812 94.3629 94.5043C94.0268 94.6274 93.7569 94.8049 93.5533 95.0369C93.3544 95.2642 93.255 95.5672 93.255 95.946C93.255 96.4716 93.4491 96.8693 93.8374 97.1392C94.2256 97.4044 94.7204 97.5369 95.3217 97.5369ZM112.96 99.2202C111.904 99.2202 110.995 98.9811 110.233 98.5028C109.475 98.0199 108.893 97.3546 108.486 96.5071C108.079 95.6596 107.875 94.6889 107.875 93.5952C107.875 92.4872 108.083 91.5095 108.5 90.6619C108.917 89.8097 109.504 89.1444 110.261 88.6662C111.019 88.188 111.911 87.9489 112.939 87.9489C113.768 87.9489 114.506 88.1027 115.155 88.4105C115.804 88.7135 116.327 89.1397 116.724 89.6889C117.127 90.2382 117.366 90.8797 117.442 91.6136H115.375C115.261 91.1023 115.001 90.6619 114.594 90.2926C114.191 89.9233 113.652 89.7386 112.974 89.7386C112.383 89.7386 111.864 89.8949 111.419 90.2074C110.979 90.5152 110.635 90.9555 110.389 91.5284C110.143 92.0966 110.02 92.7689 110.02 93.5455C110.02 94.3409 110.141 95.0275 110.382 95.6051C110.624 96.1828 110.964 96.6302 111.405 96.9474C111.85 97.2647 112.373 97.4233 112.974 97.4233C113.377 97.4233 113.741 97.3499 114.068 97.2031C114.4 97.0516 114.677 96.8362 114.899 96.5568C115.126 96.2775 115.285 95.9413 115.375 95.5483H117.442C117.366 96.2538 117.136 96.8835 116.753 97.4375C116.369 97.9915 115.856 98.4271 115.212 98.7443C114.572 99.0616 113.822 99.2202 112.96 99.2202ZM122.887 99.2415C122.196 99.2415 121.571 99.1136 121.012 98.858C120.454 98.5975 120.011 98.2211 119.684 97.7287C119.362 97.2363 119.201 96.6326 119.201 95.9176C119.201 95.3021 119.32 94.7955 119.556 94.3977C119.793 94 120.113 93.6851 120.515 93.4531C120.918 93.2211 121.368 93.0459 121.865 92.9276C122.362 92.8092 122.868 92.7192 123.385 92.6577C124.038 92.5819 124.568 92.5204 124.975 92.473C125.383 92.4209 125.679 92.3381 125.863 92.2244C126.048 92.1108 126.14 91.9261 126.14 91.6705V91.6207C126.14 91.0005 125.965 90.5199 125.615 90.179C125.269 89.8381 124.753 89.6676 124.066 89.6676C123.351 89.6676 122.788 89.8262 122.376 90.1435C121.969 90.456 121.687 90.804 121.531 91.1875L119.535 90.733C119.772 90.0701 120.118 89.535 120.572 89.1278C121.031 88.7159 121.559 88.4176 122.156 88.233C122.752 88.0436 123.38 87.9489 124.038 87.9489C124.474 87.9489 124.935 88.0009 125.423 88.1051C125.915 88.2045 126.375 88.3892 126.801 88.6591C127.232 88.929 127.584 89.3149 127.859 89.8168C128.134 90.3139 128.271 90.9602 128.271 91.7557V99H126.197V97.5085H126.112C125.975 97.7831 125.769 98.053 125.494 98.3182C125.219 98.5833 124.867 98.8035 124.436 98.9787C124.005 99.1539 123.489 99.2415 122.887 99.2415ZM123.349 97.5369C123.936 97.5369 124.438 97.4209 124.855 97.1889C125.276 96.9569 125.596 96.6539 125.814 96.2798C126.036 95.901 126.147 95.4962 126.147 95.0653V93.6591C126.072 93.7348 125.925 93.8059 125.707 93.8722C125.494 93.9337 125.25 93.9882 124.975 94.0355C124.701 94.0781 124.433 94.1184 124.173 94.1562C123.913 94.1894 123.695 94.2178 123.52 94.2415C123.108 94.2936 122.731 94.3812 122.39 94.5043C122.054 94.6274 121.784 94.8049 121.581 95.0369C121.382 95.2642 121.282 95.5672 121.282 95.946C121.282 96.4716 121.476 96.8693 121.865 97.1392C122.253 97.4044 122.748 97.5369 123.349 97.5369ZM135.183 99.2131C134.303 99.2131 133.517 98.9882 132.825 98.5384C132.139 98.0838 131.599 97.4375 131.206 96.5994C130.818 95.7566 130.624 94.7457 130.624 93.5668C130.624 92.3878 130.82 91.3793 131.213 90.5412C131.611 89.7031 132.155 89.0616 132.847 88.6165C133.538 88.1714 134.321 87.9489 135.197 87.9489C135.875 87.9489 136.419 88.0625 136.831 88.2898C137.248 88.5123 137.57 88.7727 137.797 89.071C138.029 89.3693 138.209 89.6321 138.337 89.8594H138.464V84.4545H140.588V99H138.514V97.3026H138.337C138.209 97.5346 138.024 97.7997 137.783 98.098C137.546 98.3963 137.219 98.6567 136.803 98.8793C136.386 99.1018 135.846 99.2131 135.183 99.2131ZM135.652 97.402C136.263 97.402 136.779 97.241 137.2 96.919C137.626 96.5923 137.948 96.1402 138.166 95.5625C138.389 94.9848 138.5 94.3125 138.5 93.5455C138.5 92.7879 138.391 92.125 138.173 91.5568C137.955 90.9886 137.636 90.5459 137.214 90.2287C136.793 89.9115 136.272 89.7528 135.652 89.7528C135.013 89.7528 134.48 89.9186 134.054 90.25C133.628 90.5814 133.306 91.0336 133.088 91.6065C132.875 92.1795 132.768 92.8258 132.768 93.5455C132.768 94.2746 132.877 94.9304 133.095 95.5128C133.313 96.0952 133.635 96.5568 134.061 96.8977C134.492 97.2339 135.022 97.402 135.652 97.402ZM146.794 99.2415C146.102 99.2415 145.477 99.1136 144.919 98.858C144.36 98.5975 143.917 98.2211 143.591 97.7287C143.269 97.2363 143.108 96.6326 143.108 95.9176C143.108 95.3021 143.226 94.7955 143.463 94.3977C143.699 94 144.019 93.6851 144.422 93.4531C144.824 93.2211 145.274 93.0459 145.771 92.9276C146.268 92.8092 146.775 92.7192 147.291 92.6577C147.944 92.5819 148.475 92.5204 148.882 92.473C149.289 92.4209 149.585 92.3381 149.77 92.2244C149.954 92.1108 150.047 91.9261 150.047 91.6705V91.6207C150.047 91.0005 149.871 90.5199 149.521 90.179C149.175 89.8381 148.659 89.6676 147.973 89.6676C147.258 89.6676 146.694 89.8262 146.282 90.1435C145.875 90.456 145.593 90.804 145.437 91.1875L143.441 90.733C143.678 90.0701 144.024 89.535 144.478 89.1278C144.938 88.7159 145.466 88.4176 146.062 88.233C146.659 88.0436 147.286 87.9489 147.944 87.9489C148.38 87.9489 148.842 88.0009 149.329 88.1051C149.822 88.2045 150.281 88.3892 150.707 88.6591C151.138 88.929 151.491 89.3149 151.765 89.8168C152.04 90.3139 152.177 90.9602 152.177 91.7557V99H150.103V97.5085H150.018C149.881 97.7831 149.675 98.053 149.4 98.3182C149.126 98.5833 148.773 98.8035 148.342 98.9787C147.911 99.1539 147.395 99.2415 146.794 99.2415ZM147.255 97.5369C147.842 97.5369 148.344 97.4209 148.761 97.1889C149.182 96.9569 149.502 96.6539 149.72 96.2798C149.942 95.901 150.054 95.4962 150.054 95.0653V93.6591C149.978 93.7348 149.831 93.8059 149.613 93.8722C149.4 93.9337 149.156 93.9882 148.882 94.0355C148.607 94.0781 148.34 94.1184 148.079 94.1562C147.819 94.1894 147.601 94.2178 147.426 94.2415C147.014 94.2936 146.637 94.3812 146.297 94.5043C145.96 94.6274 145.69 94.8049 145.487 95.0369C145.288 95.2642 145.189 95.5672 145.189 95.946C145.189 96.4716 145.383 96.8693 145.771 97.1392C146.159 97.4044 146.654 97.5369 147.255 97.5369Z" fill="#3F4346"/>
<rect x="369" y="333" width="198" height="40" rx="4" fill="#1E75BA"/>
<path d="M395.25 353.75H390.75V358.25H389.25V353.75H384.75V352.25H389.25V347.75H390.75V352.25H395.25V353.75Z" fill="white"/>
<path d="M405.261 359H403.398L407.585 347.364H409.614L413.801 359H411.938L408.648 349.477H408.557L405.261 359ZM405.574 354.443H411.619V355.92H405.574V354.443ZM418.472 359.17C417.767 359.17 417.138 358.991 416.585 358.631C416.036 358.267 415.604 357.75 415.29 357.08C414.979 356.405 414.824 355.597 414.824 354.653C414.824 353.71 414.981 352.903 415.295 352.233C415.614 351.562 416.049 351.049 416.602 350.693C417.155 350.337 417.782 350.159 418.483 350.159C419.025 350.159 419.46 350.25 419.79 350.432C420.123 350.61 420.381 350.818 420.562 351.057C420.748 351.295 420.892 351.506 420.994 351.688H421.097V347.364H422.795V359H421.136V357.642H420.994C420.892 357.828 420.744 358.04 420.551 358.278C420.362 358.517 420.1 358.725 419.767 358.903C419.434 359.081 419.002 359.17 418.472 359.17ZM418.847 357.722C419.335 357.722 419.748 357.593 420.085 357.335C420.426 357.074 420.684 356.712 420.858 356.25C421.036 355.788 421.125 355.25 421.125 354.636C421.125 354.03 421.038 353.5 420.864 353.045C420.689 352.591 420.434 352.237 420.097 351.983C419.759 351.729 419.343 351.602 418.847 351.602C418.335 351.602 417.909 351.735 417.568 352C417.227 352.265 416.97 352.627 416.795 353.085C416.625 353.544 416.54 354.061 416.54 354.636C416.54 355.22 416.627 355.744 416.801 356.21C416.975 356.676 417.233 357.045 417.574 357.318C417.919 357.587 418.343 357.722 418.847 357.722ZM425.22 359V350.273H426.919V359H425.22ZM426.078 348.926C425.783 348.926 425.529 348.828 425.317 348.631C425.108 348.43 425.004 348.191 425.004 347.915C425.004 347.634 425.108 347.396 425.317 347.199C425.529 346.998 425.783 346.898 426.078 346.898C426.374 346.898 426.625 346.998 426.834 347.199C427.046 347.396 427.152 347.634 427.152 347.915C427.152 348.191 427.046 348.43 426.834 348.631C426.625 348.828 426.374 348.926 426.078 348.926ZM432.881 359.176C432.036 359.176 431.309 358.985 430.699 358.602C430.093 358.216 429.627 357.684 429.301 357.006C428.975 356.328 428.812 355.551 428.812 354.676C428.812 353.79 428.979 353.008 429.312 352.33C429.646 351.648 430.116 351.116 430.722 350.733C431.328 350.35 432.042 350.159 432.864 350.159C433.527 350.159 434.117 350.282 434.636 350.528C435.155 350.771 435.574 351.112 435.892 351.551C436.214 351.991 436.405 352.504 436.466 353.091H434.812C434.722 352.682 434.513 352.33 434.188 352.034C433.866 351.739 433.434 351.591 432.892 351.591C432.419 351.591 432.004 351.716 431.648 351.966C431.295 352.212 431.021 352.564 430.824 353.023C430.627 353.477 430.528 354.015 430.528 354.636C430.528 355.273 430.625 355.822 430.818 356.284C431.011 356.746 431.284 357.104 431.636 357.358C431.992 357.612 432.411 357.739 432.892 357.739C433.214 357.739 433.506 357.68 433.767 357.562C434.032 357.441 434.254 357.269 434.432 357.045C434.614 356.822 434.741 356.553 434.812 356.239H436.466C436.405 356.803 436.222 357.307 435.915 357.75C435.608 358.193 435.197 358.542 434.682 358.795C434.17 359.049 433.57 359.176 432.881 359.176ZM438.283 359V350.273H439.982V359H438.283ZM439.141 348.926C438.845 348.926 438.591 348.828 438.379 348.631C438.171 348.43 438.067 348.191 438.067 347.915C438.067 347.634 438.171 347.396 438.379 347.199C438.591 346.998 438.845 346.898 439.141 346.898C439.436 346.898 439.688 346.998 439.896 347.199C440.108 347.396 440.214 347.634 440.214 347.915C440.214 348.191 440.108 348.43 439.896 348.631C439.688 348.828 439.436 348.926 439.141 348.926ZM445.943 359.176C445.125 359.176 444.411 358.989 443.801 358.614C443.191 358.239 442.718 357.714 442.381 357.04C442.044 356.366 441.875 355.578 441.875 354.676C441.875 353.771 442.044 352.979 442.381 352.301C442.718 351.623 443.191 351.097 443.801 350.722C444.411 350.347 445.125 350.159 445.943 350.159C446.761 350.159 447.475 350.347 448.085 350.722C448.695 351.097 449.169 351.623 449.506 352.301C449.843 352.979 450.011 353.771 450.011 354.676C450.011 355.578 449.843 356.366 449.506 357.04C449.169 357.714 448.695 358.239 448.085 358.614C447.475 358.989 446.761 359.176 445.943 359.176ZM445.949 357.75C446.479 357.75 446.919 357.61 447.267 357.33C447.616 357.049 447.873 356.676 448.04 356.21C448.21 355.744 448.295 355.231 448.295 354.67C448.295 354.114 448.21 353.602 448.04 353.136C447.873 352.667 447.616 352.29 447.267 352.006C446.919 351.722 446.479 351.58 445.949 351.58C445.415 351.58 444.972 351.722 444.619 352.006C444.271 352.29 444.011 352.667 443.841 353.136C443.674 353.602 443.591 354.114 443.591 354.67C443.591 355.231 443.674 355.744 443.841 356.21C444.011 356.676 444.271 357.049 444.619 357.33C444.972 357.61 445.415 357.75 445.949 357.75ZM453.607 353.818V359H451.908V350.273H453.538V351.693H453.646C453.847 351.231 454.161 350.86 454.589 350.58C455.021 350.299 455.565 350.159 456.22 350.159C456.815 350.159 457.336 350.284 457.783 350.534C458.23 350.78 458.576 351.148 458.822 351.636C459.069 352.125 459.192 352.729 459.192 353.449V359H457.493V353.653C457.493 353.021 457.328 352.527 456.999 352.17C456.669 351.811 456.216 351.631 455.641 351.631C455.247 351.631 454.896 351.716 454.589 351.886C454.286 352.057 454.046 352.307 453.868 352.636C453.694 352.962 453.607 353.356 453.607 353.818ZM464.01 359.193C463.457 359.193 462.957 359.091 462.51 358.886C462.063 358.678 461.709 358.377 461.447 357.983C461.19 357.589 461.061 357.106 461.061 356.534C461.061 356.042 461.156 355.636 461.345 355.318C461.535 355 461.79 354.748 462.112 354.562C462.434 354.377 462.794 354.237 463.192 354.142C463.589 354.047 463.995 353.975 464.408 353.926C464.93 353.866 465.355 353.816 465.68 353.778C466.006 353.737 466.243 353.67 466.391 353.58C466.538 353.489 466.612 353.341 466.612 353.136V353.097C466.612 352.6 466.472 352.216 466.192 351.943C465.915 351.67 465.502 351.534 464.953 351.534C464.381 351.534 463.93 351.661 463.601 351.915C463.275 352.165 463.05 352.443 462.925 352.75L461.328 352.386C461.518 351.856 461.794 351.428 462.158 351.102C462.525 350.773 462.947 350.534 463.425 350.386C463.902 350.235 464.404 350.159 464.93 350.159C465.279 350.159 465.648 350.201 466.038 350.284C466.432 350.364 466.8 350.511 467.141 350.727C467.485 350.943 467.768 351.252 467.987 351.653C468.207 352.051 468.317 352.568 468.317 353.205V359H466.658V357.807H466.589C466.48 358.027 466.315 358.242 466.095 358.455C465.875 358.667 465.593 358.843 465.249 358.983C464.904 359.123 464.491 359.193 464.01 359.193ZM464.379 357.83C464.849 357.83 465.25 357.737 465.584 357.551C465.921 357.366 466.177 357.123 466.351 356.824C466.529 356.521 466.618 356.197 466.618 355.852V354.727C466.557 354.788 466.44 354.845 466.266 354.898C466.095 354.947 465.9 354.991 465.68 355.028C465.461 355.062 465.247 355.095 465.038 355.125C464.83 355.152 464.656 355.174 464.516 355.193C464.186 355.235 463.885 355.305 463.612 355.403C463.343 355.502 463.127 355.644 462.964 355.83C462.805 356.011 462.726 356.254 462.726 356.557C462.726 356.977 462.881 357.295 463.192 357.511C463.502 357.723 463.898 357.83 464.379 357.83ZM470.58 359V350.273H472.222V351.659H472.312C472.472 351.189 472.752 350.82 473.153 350.551C473.559 350.278 474.017 350.142 474.528 350.142C474.634 350.142 474.759 350.146 474.903 350.153C475.051 350.161 475.167 350.17 475.25 350.182V351.807C475.182 351.788 475.061 351.767 474.886 351.744C474.712 351.718 474.538 351.705 474.364 351.705C473.962 351.705 473.604 351.79 473.29 351.96C472.979 352.127 472.733 352.36 472.551 352.659C472.369 352.955 472.278 353.292 472.278 353.67V359H470.58ZM480.955 359V350.273H482.597V351.659H482.688C482.847 351.189 483.127 350.82 483.528 350.551C483.934 350.278 484.392 350.142 484.903 350.142C485.009 350.142 485.134 350.146 485.278 350.153C485.426 350.161 485.542 350.17 485.625 350.182V351.807C485.557 351.788 485.436 351.767 485.261 351.744C485.087 351.718 484.913 351.705 484.739 351.705C484.337 351.705 483.979 351.79 483.665 351.96C483.354 352.127 483.108 352.36 482.926 352.659C482.744 352.955 482.653 353.292 482.653 353.67V359H480.955ZM490.544 359.176C489.684 359.176 488.944 358.992 488.322 358.625C487.705 358.254 487.228 357.733 486.891 357.062C486.557 356.388 486.391 355.598 486.391 354.693C486.391 353.799 486.557 353.011 486.891 352.33C487.228 351.648 487.697 351.116 488.3 350.733C488.906 350.35 489.614 350.159 490.425 350.159C490.917 350.159 491.394 350.241 491.857 350.403C492.319 350.566 492.733 350.822 493.101 351.17C493.468 351.519 493.758 351.972 493.97 352.528C494.182 353.081 494.288 353.754 494.288 354.545V355.148H487.351V353.875H492.624C492.624 353.428 492.533 353.032 492.351 352.688C492.169 352.339 491.913 352.064 491.584 351.864C491.258 351.663 490.875 351.562 490.436 351.562C489.959 351.562 489.542 351.68 489.186 351.915C488.834 352.146 488.561 352.449 488.368 352.824C488.179 353.195 488.084 353.598 488.084 354.034V355.028C488.084 355.612 488.186 356.108 488.391 356.517C488.599 356.926 488.889 357.239 489.26 357.455C489.631 357.667 490.065 357.773 490.561 357.773C490.883 357.773 491.177 357.727 491.442 357.636C491.707 357.542 491.936 357.402 492.129 357.216C492.322 357.03 492.47 356.801 492.572 356.528L494.18 356.818C494.052 357.292 493.821 357.706 493.487 358.062C493.158 358.415 492.743 358.689 492.243 358.886C491.747 359.08 491.18 359.176 490.544 359.176ZM496.173 362.273V350.273H497.832V351.688H497.974C498.073 351.506 498.215 351.295 498.401 351.057C498.586 350.818 498.844 350.61 499.173 350.432C499.503 350.25 499.938 350.159 500.48 350.159C501.185 350.159 501.813 350.337 502.366 350.693C502.92 351.049 503.353 351.562 503.668 352.233C503.986 352.903 504.145 353.71 504.145 354.653C504.145 355.597 503.988 356.405 503.673 357.08C503.359 357.75 502.927 358.267 502.378 358.631C501.829 358.991 501.202 359.17 500.497 359.17C499.967 359.17 499.533 359.081 499.196 358.903C498.863 358.725 498.601 358.517 498.412 358.278C498.223 358.04 498.077 357.828 497.974 357.642H497.872V362.273H496.173ZM497.838 354.636C497.838 355.25 497.927 355.788 498.105 356.25C498.283 356.712 498.541 357.074 498.878 357.335C499.215 357.593 499.628 357.722 500.116 357.722C500.624 357.722 501.048 357.587 501.389 357.318C501.73 357.045 501.988 356.676 502.162 356.21C502.34 355.744 502.429 355.22 502.429 354.636C502.429 354.061 502.342 353.544 502.168 353.085C501.997 352.627 501.74 352.265 501.395 352C501.054 351.735 500.628 351.602 500.116 351.602C499.624 351.602 499.207 351.729 498.866 351.983C498.529 352.237 498.274 352.591 498.099 353.045C497.925 353.5 497.838 354.03 497.838 354.636ZM509.81 359.176C508.95 359.176 508.209 358.992 507.588 358.625C506.971 358.254 506.493 357.733 506.156 357.062C505.823 356.388 505.656 355.598 505.656 354.693C505.656 353.799 505.823 353.011 506.156 352.33C506.493 351.648 506.963 351.116 507.565 350.733C508.171 350.35 508.88 350.159 509.69 350.159C510.183 350.159 510.66 350.241 511.122 350.403C511.584 350.566 511.999 350.822 512.366 351.17C512.734 351.519 513.024 351.972 513.236 352.528C513.448 353.081 513.554 353.754 513.554 354.545V355.148H506.616V353.875H511.889C511.889 353.428 511.798 353.032 511.616 352.688C511.435 352.339 511.179 352.064 510.849 351.864C510.524 351.663 510.141 351.562 509.702 351.562C509.224 351.562 508.808 351.68 508.452 351.915C508.099 352.146 507.827 352.449 507.634 352.824C507.444 353.195 507.349 353.598 507.349 354.034V355.028C507.349 355.612 507.452 356.108 507.656 356.517C507.865 356.926 508.154 357.239 508.526 357.455C508.897 357.667 509.33 357.773 509.827 357.773C510.149 357.773 510.442 357.727 510.707 357.636C510.973 357.542 511.202 357.402 511.395 357.216C511.588 357.03 511.736 356.801 511.838 356.528L513.446 356.818C513.317 357.292 513.086 357.706 512.753 358.062C512.423 358.415 512.009 358.689 511.509 358.886C511.012 359.08 510.446 359.176 509.81 359.176ZM519.513 350.273V351.636H514.746V350.273H519.513ZM516.024 348.182H517.723V356.438C517.723 356.767 517.772 357.015 517.871 357.182C517.969 357.345 518.096 357.456 518.251 357.517C518.411 357.574 518.583 357.602 518.768 357.602C518.905 357.602 519.024 357.593 519.126 357.574C519.229 357.555 519.308 357.54 519.365 357.528L519.672 358.932C519.573 358.97 519.433 359.008 519.251 359.045C519.07 359.087 518.842 359.11 518.57 359.114C518.123 359.121 517.706 359.042 517.32 358.875C516.933 358.708 516.621 358.451 516.382 358.102C516.143 357.754 516.024 357.316 516.024 356.79V348.182ZM521.392 359V350.273H523.091V359H521.392ZM522.25 348.926C521.955 348.926 521.701 348.828 521.489 348.631C521.28 348.43 521.176 348.191 521.176 347.915C521.176 347.634 521.28 347.396 521.489 347.199C521.701 346.998 521.955 346.898 522.25 346.898C522.545 346.898 522.797 346.998 523.006 347.199C523.218 347.396 523.324 347.634 523.324 347.915C523.324 348.191 523.218 348.43 523.006 348.631C522.797 348.828 522.545 348.926 522.25 348.926ZM528.643 359.17C527.939 359.17 527.31 358.991 526.757 358.631C526.208 358.267 525.776 357.75 525.462 357.08C525.151 356.405 524.996 355.597 524.996 354.653C524.996 353.71 525.153 352.903 525.467 352.233C525.786 351.562 526.221 351.049 526.774 350.693C527.327 350.337 527.954 350.159 528.655 350.159C529.196 350.159 529.632 350.25 529.962 350.432C530.295 350.61 530.553 350.818 530.734 351.057C530.92 351.295 531.064 351.506 531.166 351.688H531.268V347.364H532.967V359H531.308V357.642H531.166C531.064 357.828 530.916 358.04 530.723 358.278C530.534 358.517 530.272 358.725 529.939 358.903C529.606 359.081 529.174 359.17 528.643 359.17ZM529.018 357.722C529.507 357.722 529.92 357.593 530.257 357.335C530.598 357.074 530.856 356.712 531.03 356.25C531.208 355.788 531.297 355.25 531.297 354.636C531.297 354.03 531.21 353.5 531.036 353.045C530.861 352.591 530.606 352.237 530.268 351.983C529.931 351.729 529.515 351.602 529.018 351.602C528.507 351.602 528.081 351.735 527.74 352C527.399 352.265 527.142 352.627 526.967 353.085C526.797 353.544 526.712 354.061 526.712 354.636C526.712 355.22 526.799 355.744 526.973 356.21C527.147 356.676 527.405 357.045 527.746 357.318C528.09 357.587 528.515 357.722 529.018 357.722ZM539.068 359.176C538.25 359.176 537.536 358.989 536.926 358.614C536.316 358.239 535.843 357.714 535.506 357.04C535.169 356.366 535 355.578 535 354.676C535 353.771 535.169 352.979 535.506 352.301C535.843 351.623 536.316 351.097 536.926 350.722C537.536 350.347 538.25 350.159 539.068 350.159C539.886 350.159 540.6 350.347 541.21 350.722C541.82 351.097 542.294 351.623 542.631 352.301C542.968 352.979 543.136 353.771 543.136 354.676C543.136 355.578 542.968 356.366 542.631 357.04C542.294 357.714 541.82 358.239 541.21 358.614C540.6 358.989 539.886 359.176 539.068 359.176ZM539.074 357.75C539.604 357.75 540.044 357.61 540.392 357.33C540.741 357.049 540.998 356.676 541.165 356.21C541.335 355.744 541.42 355.231 541.42 354.67C541.42 354.114 541.335 353.602 541.165 353.136C540.998 352.667 540.741 352.29 540.392 352.006C540.044 351.722 539.604 351.58 539.074 351.58C538.54 351.58 538.097 351.722 537.744 352.006C537.396 352.29 537.136 352.667 536.966 353.136C536.799 353.602 536.716 354.114 536.716 354.67C536.716 355.231 536.799 355.744 536.966 356.21C537.136 356.676 537.396 357.049 537.744 357.33C538.097 357.61 538.54 357.75 539.074 357.75ZM545.033 359V350.273H546.675V351.659H546.766C546.925 351.189 547.205 350.82 547.607 350.551C548.012 350.278 548.47 350.142 548.982 350.142C549.088 350.142 549.213 350.146 549.357 350.153C549.504 350.161 549.62 350.17 549.703 350.182V351.807C549.635 351.788 549.514 351.767 549.339 351.744C549.165 351.718 548.991 351.705 548.817 351.705C548.415 351.705 548.057 351.79 547.743 351.96C547.432 352.127 547.186 352.36 547.004 352.659C546.822 352.955 546.732 353.292 546.732 353.67V359H545.033Z" fill="white"/>
</svg>
