<svg xmlns="http://www.w3.org/2000/svg" width="1074" height="408" viewBox="0 0 1074 408">
<g>
<path d="M 552.00 259.87 L 552.00 309.00 L 525.00 309.00 L 525.00 164.00 L 535.89 164.00 C536.79,164.00 537.61,164.00 538.37,163.99 C543.11,163.97 545.33,163.96 546.51,165.06 C547.74,166.19 547.86,168.52 548.54,173.25 C548.92,175.86 549.51,177.99 549.86,177.99 C550.21,177.98 551.52,176.41 552.76,174.49 C558.36,165.84 568.63,161.57 582.35,162.18 C590.13,162.52 592.31,163.02 596.86,165.51 C605.23,170.08 610.41,177.36 614.25,189.94 C617.13,199.39 617.90,228.36 615.58,240.16 C613.39,251.27 608.22,261.76 602.40,266.88 C589.93,277.85 568.56,276.87 556.79,264.78 ZM 704.24 272.44 C689.93,277.35 675.40,273.80 665.74,263.06 C663.24,260.27 660.97,258.00 660.70,258.00 C660.43,258.00 659.89,261.15 659.50,265.00 L 658.80 272.00 L 637.00 272.00 L 637.00 199.58 C637.00,159.75 636.73,126.45 636.39,125.58 C635.86,124.19 637.40,124.00 649.39,124.00 L 663.00 124.00 L 663.00 150.00 C663.00,166.67 663.36,176.00 664.00,176.00 C664.55,176.00 665.00,175.64 665.00,175.20 C665.00,172.98 673.80,165.84 678.88,163.93 C686.51,161.05 701.36,161.50 707.69,164.80 C716.56,169.42 723.24,179.51 726.69,193.50 C729.11,203.31 729.09,232.58 726.66,242.40 C722.83,257.90 714.64,268.88 704.24,272.44 ZM 440.00 284.50 L 440.00 309.00 L 414.00 309.00 L 414.00 164.00 L 435.81 164.00 L 436.48 169.25 C437.69,178.81 437.70,178.81 442.72,173.07 C449.37,165.47 455.39,162.73 466.65,162.20 C478.24,161.66 484.04,163.43 490.94,169.64 C496.45,174.59 500.97,182.79 503.55,192.50 C505.95,201.52 506.60,226.42 504.72,237.00 C500.13,262.82 488.91,274.42 468.50,274.39 C459.40,274.38 450.57,270.59 445.07,264.34 C442.97,261.95 440.97,260.00 440.62,260.00 C440.28,260.00 440.00,271.02 440.00,284.50 ZM 304.96 259.14 L 300.91 272.00 L 285.96 272.00 C277.73,272.00 271.04,271.66 271.10,271.25 C271.15,270.84 281.62,239.23 294.35,201.00 L 317.50 131.50 L 336.02 131.23 L 354.54 130.96 L 377.33 200.06 C389.87,238.07 400.38,269.82 400.68,270.61 C401.15,271.84 398.85,272.01 385.41,271.78 L 369.58 271.50 L 361.34 244.50 L 335.17 244.23 C315.92,244.04 309.00,244.27 309.00,245.12 C309.00,245.75 307.18,252.06 304.96,259.14 ZM 974.20 254.00 L 970.49 271.50 L 956.29 271.78 L 942.09 272.05 L 940.95 267.78 C940.32,265.42 933.78,241.29 926.41,214.14 C919.03,186.99 913.00,164.60 913.00,164.39 C913.00,164.17 919.30,164.00 927.00,164.00 C934.70,164.00 941.00,164.20 941.00,164.45 C941.00,164.70 943.65,177.19 946.89,192.20 C950.13,207.22 953.56,223.89 954.51,229.25 C955.46,234.61 956.59,239.00 957.03,239.00 C957.46,239.00 958.35,235.74 959.00,231.75 C959.66,227.76 962.97,211.00 966.36,194.50 L 972.54 164.50 L 987.10 164.22 L 1001.66 163.95 L 1007.84 193.72 C1011.24,210.10 1014.57,226.99 1015.24,231.25 C1016.46,239.04 1017.56,240.93 1018.43,236.75 C1018.69,235.51 1020.97,224.38 1023.49,212.00 C1026.02,199.62 1029.31,183.88 1030.81,177.00 L 1033.53 164.50 L 1046.34 164.22 C1058.22,163.96 1059.12,164.07 1058.65,165.72 C1058.37,166.70 1056.34,174.25 1054.14,182.50 C1047.55,207.16 1033.01,261.11 1031.42,266.75 L 1029.94 272.00 L 1002.08 272.00 L 1001.12 268.25 C999.97,263.69 988.37,207.01 987.52,201.75 C986.88,197.80 985.00,196.54 985.00,200.07 C985.00,202.12 981.32,220.50 974.20,254.00 ZM 869.31 273.89 C861.30,275.13 858.04,275.14 850.00,273.93 C823.80,270.02 812.00,252.90 812.00,218.80 C812.00,190.49 818.70,174.81 834.06,167.13 C842.60,162.86 849.52,161.69 862.97,162.24 C877.60,162.83 884.27,165.17 891.25,172.16 C899.96,180.87 904.06,193.32 904.33,211.84 L 904.50 223.50 L 871.62 223.76 L 838.74 224.03 L 839.42 231.26 C840.38,241.58 844.08,248.79 849.96,251.75 C852.84,253.20 856.22,254.00 859.50,254.00 C869.74,254.00 878.00,246.54 878.00,237.29 L 878.00 234.00 L 905.12 234.00 L 904.48 238.75 C901.64,259.87 890.97,270.53 869.31,273.89 ZM 775.00 240.18 L 775.00 272.00 L 748.00 272.00 L 748.00 164.00 L 758.98 164.00 C759.95,164.00 760.84,163.99 761.66,163.99 C766.22,163.96 768.42,163.95 769.60,165.04 C770.90,166.25 770.93,168.82 771.52,174.25 C772.22,180.70 773.16,181.43 775.02,176.96 C779.11,167.08 786.19,162.00 795.88,162.00 C796.26,162.00 796.63,162.00 796.99,162.00 C800.42,161.99 802.39,161.98 803.51,162.95 C805.01,164.25 805.01,167.29 805.00,174.39 C805.00,174.94 805.00,175.51 805.00,176.11 L 805.00 189.00 L 798.75 189.01 C790.08,189.01 785.09,190.63 781.29,194.66 C775.54,200.76 775.00,204.63 775.00,240.18 ZM 455.36 251.08 C459.34,252.06 464.52,251.34 468.97,249.18 C476.12,245.71 479.63,232.87 478.73,213.50 C478.05,198.84 476.61,193.61 471.95,188.95 C469.01,186.01 467.16,185.07 463.24,184.53 C454.09,183.27 447.71,186.59 443.60,194.73 C440.96,199.97 439.48,217.40 440.78,227.96 C442.55,242.36 446.69,248.93 455.36,251.08 ZM 676.59 250.96 C684.99,253.47 693.98,250.29 697.68,243.50 C700.69,237.99 702.42,223.94 701.58,211.79 C700.70,198.98 698.93,193.29 694.47,188.97 C691.00,185.61 690.65,185.50 683.02,185.50 C676.60,185.50 674.62,185.89 672.32,187.59 C665.41,192.70 662.36,204.88 663.31,223.50 C663.62,229.55 664.60,236.57 665.48,239.09 C667.31,244.33 672.32,249.68 676.59,250.96 ZM 565.64 250.56 C570.13,252.19 576.11,251.60 580.50,249.10 C587.95,244.85 590.47,235.22 589.82,213.48 C589.35,197.74 587.79,192.53 582.15,187.78 C576.32,182.88 565.47,183.21 559.20,188.49 C553.74,193.08 552.50,198.46 552.50,217.50 C552.50,231.36 552.83,235.35 554.27,239.08 C556.40,244.60 560.43,248.67 565.64,250.56 ZM 317.00 219.48 C317.00,219.77 325.36,220.00 335.57,220.00 C352.80,220.00 354.09,219.87 353.58,218.25 C352.29,214.19 337.93,165.47 336.97,161.90 C336.40,159.75 335.59,158.00 335.18,158.00 C334.78,158.00 333.61,161.26 332.59,165.25 C331.58,169.24 327.65,182.95 323.87,195.73 C320.09,208.51 317.00,219.20 317.00,219.48 ZM 856.64 207.23 C866.46,207.38 875.06,207.34 875.75,207.14 C879.14,206.17 875.67,190.82 871.00,186.15 C865.07,180.22 852.69,181.08 845.88,187.88 C842.35,191.41 840.99,194.67 839.45,203.23 L 838.79 206.95 Z" fill="rgb(4,10,25)"/>
<path d="M 183.65 301.80 C179.28,303.13 169.90,303.40 121.50,303.59 C90.15,303.71 61.80,303.41 58.50,302.91 C45.79,301.01 37.53,296.58 28.51,286.84 C22.31,280.14 20.03,276.20 17.34,267.47 C15.64,261.95 15.50,256.97 15.50,202.00 C15.50,136.73 15.55,136.11 21.69,124.83 C25.20,118.37 34.43,109.17 40.96,105.62 C51.95,99.64 51.55,99.68 111.99,99.26 C148.36,99.01 170.41,99.25 175.99,99.96 C197.85,102.76 214.78,118.66 218.58,139.96 C220.53,150.88 220.51,252.23 218.56,263.18 C215.33,281.27 201.75,296.30 183.65,301.80 ZM 78.29 231.75 L 86.76 240.00 L 110.96 240.00 L 122.23 217.75 C130.18,202.06 134.05,195.40 135.38,195.15 C137.57,194.75 155.00,211.49 155.00,214.00 C155.00,214.84 150.49,220.03 144.97,225.52 C132.58,237.85 132.30,239.36 142.32,239.80 L 149.15 240.09 L 157.67 231.80 C167.53,222.19 169.00,219.81 169.00,213.41 C169.00,208.82 168.78,208.50 159.31,198.86 L 149.63 189.00 L 124.01 189.00 L 113.00 211.00 C105.04,226.92 101.51,233.00 100.27,233.00 C98.14,233.00 81.00,216.13 81.00,214.04 C81.00,213.21 85.56,207.95 91.14,202.36 C103.23,190.22 103.43,189.00 93.26,189.00 L 86.46 189.00 L 77.09 198.41 C68.22,207.31 67.70,208.08 67.25,212.74 C66.62,219.33 68.03,221.76 78.29,231.75 ZM 54.41 174.62 C55.14,176.52 178.91,176.69 180.80,174.80 C182.44,173.16 182.32,165.51 180.64,164.11 C179.65,163.30 162.14,163.06 116.89,163.24 L 54.50 163.50 L 54.19 168.37 C54.02,171.05 54.12,173.87 54.41,174.62 ZM 67.30 148.34 C67.88,149.86 72.31,150.00 117.97,150.00 L 168.00 150.00 L 168.00 146.95 C168.00,143.03 164.46,139.47 159.14,138.04 C156.39,137.30 141.92,137.03 115.09,137.22 C76.32,137.49 75.06,137.56 72.32,139.60 C68.74,142.26 66.48,146.20 67.30,148.34 ZM 90.09 265.08 C92.51,265.49 106.20,265.76 120.50,265.66 C149.33,265.47 151.37,265.06 154.56,258.89 C154.64,258.73 154.72,258.58 154.80,258.43 C155.54,257.00 156.09,255.95 155.83,255.18 C155.08,253.00 147.93,253.00 120.67,253.00 C119.65,253.00 118.60,253.00 117.53,253.00 L 80.00 253.00 L 80.00 255.48 C80.00,259.47 84.97,264.20 90.09,265.08 Z" fill="rgb(52,103,250)"/>
<path d="M 0.00 204.00 L 0.00 0.00 L 537.00 0.00 L 1074.00 0.00 L 1074.00 204.00 L 1074.00 408.00 L 537.00 408.00 L 0.00 408.00 L 0.00 204.00 ZM 440.00 284.50 C440.00,271.02 440.28,260.00 440.62,260.00 C440.97,260.00 442.97,261.95 445.07,264.34 C450.57,270.59 459.40,274.38 468.50,274.39 C488.91,274.42 500.13,262.82 504.72,237.00 C506.60,226.42 505.95,201.52 503.55,192.50 C500.97,182.79 496.45,174.59 490.94,169.64 C484.04,163.43 478.24,161.66 466.65,162.20 C455.39,162.73 449.37,165.47 442.72,173.07 C437.70,178.81 437.69,178.81 436.48,169.25 L 435.81 164.00 L 424.91 164.00 L 414.00 164.00 L 414.00 236.50 L 414.00 309.00 L 427.00 309.00 L 440.00 309.00 L 440.00 284.50 ZM 552.00 284.43 L 552.00 259.87 L 556.79 264.78 C568.56,276.87 589.93,277.85 602.40,266.88 C608.22,261.76 613.39,251.27 615.58,240.16 C617.90,228.36 617.13,199.39 614.25,189.94 C610.41,177.36 605.23,170.08 596.86,165.51 C592.31,163.02 590.13,162.52 582.35,162.18 C568.63,161.57 558.36,165.84 552.76,174.49 C551.52,176.41 550.21,177.98 549.86,177.99 C549.51,177.99 548.92,175.86 548.54,173.25 C547.09,163.22 548.17,164.00 535.89,164.00 L 525.00 164.00 L 525.00 236.50 L 525.00 309.00 L 538.50 309.00 L 552.00 309.00 L 552.00 284.43 ZM 183.65 301.80 C201.75,296.30 215.33,281.27 218.56,263.18 C220.51,252.23 220.53,150.88 218.58,139.96 C214.78,118.66 197.85,102.76 175.99,99.96 C170.41,99.25 148.36,99.01 111.99,99.26 C51.55,99.68 51.95,99.64 40.96,105.62 C34.43,109.17 25.20,118.37 21.69,124.83 C15.55,136.11 15.50,136.73 15.50,202.00 C15.50,256.97 15.64,261.95 17.34,267.47 C20.03,276.20 22.31,280.14 28.51,286.84 C37.53,296.58 45.79,301.01 58.50,302.91 C61.80,303.41 90.15,303.71 121.50,303.59 C169.90,303.40 179.28,303.13 183.65,301.80 ZM 704.24 272.44 C714.64,268.88 722.83,257.90 726.66,242.40 C729.09,232.58 729.11,203.31 726.69,193.50 C723.24,179.51 716.56,169.42 707.69,164.80 C701.36,161.50 686.51,161.05 678.88,163.93 C673.80,165.84 665.00,172.98 665.00,175.20 C665.00,175.64 664.55,176.00 664.00,176.00 C663.36,176.00 663.00,166.67 663.00,150.00 L 663.00 124.00 L 649.39 124.00 C637.40,124.00 635.86,124.19 636.39,125.58 C636.73,126.45 637.00,159.75 637.00,199.58 L 637.00 272.00 L 647.90 272.00 L 658.80 272.00 L 659.50 265.00 C659.89,261.15 660.43,258.00 660.70,258.00 C660.97,258.00 663.24,260.27 665.74,263.06 C675.40,273.80 689.93,277.35 704.24,272.44 ZM 869.31 273.89 C890.97,270.53 901.64,259.87 904.48,238.75 L 905.12 234.00 L 891.56 234.00 L 878.00 234.00 L 878.00 237.29 C878.00,246.54 869.74,254.00 859.50,254.00 C856.22,254.00 852.84,253.20 849.96,251.75 C844.08,248.79 840.38,241.58 839.42,231.26 L 838.74 224.03 L 871.62 223.76 L 904.50 223.50 L 904.33 211.84 C904.06,193.32 899.96,180.87 891.25,172.16 C884.27,165.17 877.60,162.83 862.97,162.24 C849.52,161.69 842.60,162.86 834.06,167.13 C818.70,174.81 812.00,190.49 812.00,218.80 C812.00,252.90 823.80,270.02 850.00,273.93 C858.04,275.14 861.30,275.13 869.31,273.89 ZM 304.96 259.14 C307.18,252.06 309.00,245.75 309.00,245.12 C309.00,244.27 315.92,244.04 335.17,244.23 L 361.34 244.50 L 365.46 258.00 L 369.58 271.50 L 385.41 271.78 C398.85,272.01 401.15,271.84 400.68,270.61 C400.38,269.82 389.87,238.07 377.33,200.06 L 354.54 130.96 L 336.02 131.23 L 317.50 131.50 L 294.35 201.00 C281.62,239.23 271.15,270.84 271.10,271.25 C271.04,271.66 277.73,272.00 285.96,272.00 L 300.91 272.00 L 304.96 259.14 ZM 775.00 240.18 C775.00,204.63 775.54,200.76 781.29,194.66 C785.09,190.63 790.08,189.01 798.75,189.01 L 805.00 189.00 L 805.00 176.11 C805.00,161.38 805.40,162.00 795.88,162.00 C786.19,162.00 779.11,167.08 775.02,176.96 C773.16,181.43 772.22,180.70 771.52,174.25 C770.30,163.06 771.45,164.00 758.98,164.00 L 748.00 164.00 L 748.00 218.00 L 748.00 272.00 L 761.50 272.00 L 775.00 272.00 L 775.00 240.18 ZM 974.20 254.00 C981.32,220.50 985.00,202.12 985.00,200.07 C985.00,196.54 986.88,197.80 987.52,201.75 C988.37,207.01 999.97,263.69 1001.12,268.25 L 1002.08 272.00 L 1016.01 272.00 L 1029.94 272.00 L 1031.42 266.75 C1033.01,261.11 1047.55,207.16 1054.14,182.50 C1056.34,174.25 1058.37,166.70 1058.65,165.72 C1059.12,164.07 1058.22,163.96 1046.34,164.22 L 1033.53 164.50 L 1030.81 177.00 C1029.31,183.88 1026.02,199.62 1023.49,212.00 C1020.97,224.38 1018.69,235.51 1018.43,236.75 C1017.56,240.93 1016.46,239.04 1015.24,231.25 C1014.57,226.99 1011.24,210.10 1007.84,193.72 L 1001.66 163.95 L 987.10 164.22 L 972.54 164.50 L 966.36 194.50 C962.97,211.00 959.66,227.76 959.00,231.75 C958.35,235.74 957.46,239.00 957.03,239.00 C956.59,239.00 955.46,234.61 954.51,229.25 C953.56,223.89 950.13,207.22 946.89,192.20 C943.65,177.19 941.00,164.70 941.00,164.45 C941.00,164.20 934.70,164.00 927.00,164.00 C919.30,164.00 913.00,164.17 913.00,164.39 C913.00,164.60 919.03,186.99 926.41,214.14 C933.78,241.29 940.32,265.42 940.95,267.78 L 942.09 272.05 L 956.29 271.78 L 970.49 271.50 L 974.20 254.00 ZM 455.36 251.08 C446.69,248.93 442.55,242.36 440.78,227.96 C439.48,217.40 440.96,199.97 443.60,194.73 C447.71,186.59 454.09,183.27 463.24,184.53 C467.16,185.07 469.01,186.01 471.95,188.95 C476.61,193.61 478.05,198.84 478.73,213.50 C479.63,232.87 476.12,245.71 468.97,249.18 C464.52,251.34 459.34,252.06 455.36,251.08 ZM 565.64 250.56 C560.43,248.67 556.40,244.60 554.27,239.08 C552.83,235.35 552.50,231.36 552.50,217.50 C552.50,198.46 553.74,193.08 559.20,188.49 C565.47,183.21 576.32,182.88 582.15,187.78 C587.79,192.53 589.35,197.74 589.82,213.48 C590.47,235.22 587.95,244.85 580.50,249.10 C576.11,251.60 570.13,252.19 565.64,250.56 ZM 90.09 265.08 C84.97,264.20 80.00,259.47 80.00,255.48 L 80.00 253.00 L 117.53 253.00 C158.70,253.00 157.69,252.84 154.56,258.89 C151.37,265.06 149.33,265.47 120.50,265.66 C106.20,265.76 92.51,265.49 90.09,265.08 ZM 78.29 231.75 C68.03,221.76 66.62,219.33 67.25,212.74 C67.70,208.08 68.22,207.31 77.09,198.41 L 86.46 189.00 L 93.26 189.00 C103.43,189.00 103.23,190.22 91.14,202.36 C85.56,207.95 81.00,213.21 81.00,214.04 C81.00,216.13 98.14,233.00 100.27,233.00 C101.51,233.00 105.04,226.92 113.00,211.00 L 124.01 189.00 L 136.82 189.00 L 149.63 189.00 L 159.31 198.86 C168.78,208.50 169.00,208.82 169.00,213.41 C169.00,219.81 167.53,222.19 157.67,231.80 L 149.15 240.09 L 142.32 239.80 C132.30,239.36 132.58,237.85 144.97,225.52 C150.49,220.03 155.00,214.84 155.00,214.00 C155.00,211.49 137.57,194.75 135.38,195.15 C134.05,195.40 130.18,202.06 122.23,217.75 L 110.96 240.00 L 98.86 240.00 L 86.76 240.00 L 78.29 231.75 ZM 54.41 174.62 C54.12,173.87 54.02,171.05 54.19,168.37 L 54.50 163.50 L 116.89 163.24 C162.14,163.06 179.65,163.30 180.64,164.11 C182.32,165.51 182.44,173.16 180.80,174.80 C178.91,176.69 55.14,176.52 54.41,174.62 ZM 67.30 148.34 C66.48,146.20 68.74,142.26 72.32,139.60 C75.06,137.56 76.32,137.49 115.09,137.22 C141.92,137.03 156.39,137.30 159.14,138.04 C164.46,139.47 168.00,143.03 168.00,146.95 L 168.00 150.00 L 117.97 150.00 C72.31,150.00 67.88,149.86 67.30,148.34 ZM 676.59 250.96 C672.32,249.68 667.31,244.33 665.48,239.09 C664.60,236.57 663.62,229.55 663.31,223.50 C662.36,204.88 665.41,192.70 672.32,187.59 C674.62,185.89 676.60,185.50 683.02,185.50 C690.65,185.50 691.00,185.61 694.47,188.97 C698.93,193.29 700.70,198.98 701.58,211.79 C702.42,223.94 700.69,237.99 697.68,243.50 C693.98,250.29 684.99,253.47 676.59,250.96 ZM 856.64 207.23 L 838.79 206.95 L 839.45 203.23 C840.99,194.67 842.35,191.41 845.88,187.88 C852.69,181.08 865.07,180.22 871.00,186.15 C875.67,190.82 879.14,206.17 875.75,207.14 C875.06,207.34 866.46,207.38 856.64,207.23 ZM 317.00 219.48 C317.00,219.20 320.09,208.51 323.87,195.73 C327.65,182.95 331.58,169.24 332.59,165.25 C333.61,161.26 334.78,158.00 335.18,158.00 C335.59,158.00 336.40,159.75 336.97,161.90 C337.93,165.47 352.29,214.19 353.58,218.25 C354.09,219.87 352.80,220.00 335.57,220.00 C325.36,220.00 317.00,219.77 317.00,219.48 Z" fill="rgb(254,254,254)"/>
</g>
</svg>