<svg xmlns="http://www.w3.org/2000/svg" width="1080" height="402" viewBox="0 0 1080 402">
<g>
<path d="M 288.03 297.95 C287.39,298.98 284.05,299.37 274.65,299.51 C267.76,299.61 261.53,299.33 260.81,298.88 C259.78,298.24 259.45,290.22 259.24,260.79 C259.10,240.28 258.75,222.46 258.46,221.19 C257.99,219.15 257.42,218.91 253.73,219.19 C249.73,219.49 249.48,219.34 248.32,216.00 C247.66,214.07 247.09,208.36 247.06,203.29 C247.01,195.06 247.23,193.86 249.19,192.04 C250.39,190.92 252.30,190.00 253.44,189.99 C254.57,189.99 256.79,189.32 258.36,188.49 C259.94,187.67 262.01,187.00 262.95,187.00 C263.90,187.00 268.24,186.08 272.59,184.97 C277.65,183.67 281.85,183.16 284.25,183.55 L 288.00 184.18 L 288.12 191.84 C288.76,233.28 288.71,296.86 288.03,297.95 ZM 282.00 171.83 C266.58,178.46 250.66,172.35 243.85,157.18 C241.26,151.38 241.00,149.80 241.00,139.44 C241.00,129.67 241.33,127.31 243.34,122.78 C246.38,115.94 250.09,111.62 255.86,108.23 C260.11,105.73 261.35,105.51 270.58,105.56 C279.57,105.61 281.03,105.88 284.08,108.03 C295.20,115.88 299.50,125.78 298.81,141.97 C298.15,157.28 292.50,167.32 282.00,171.83 ZM 263.61 155.91 C266.47,158.16 271.89,158.66 275.03,156.98 C276.08,156.42 278.08,154.02 279.47,151.64 C281.48,148.21 282.00,145.98 282.00,140.79 C282.00,131.43 281.18,128.47 277.49,124.56 C273.49,120.32 270.16,119.35 266.36,121.32 C259.95,124.63 257.87,129.27 257.90,140.19 C257.91,148.71 259.30,152.52 263.61,155.91 Z" fill="rgb(41,162,80)"/>
<path d="M 177.15 299.07 C160.91,300.52 124.81,299.31 119.12,297.13 C117.68,296.58 114.93,295.81 113.00,295.43 C106.00,294.04 94.58,284.75 91.31,277.80 C87.55,269.80 87.50,268.65 87.50,186.50 L 87.50 106.50 L 132.50 106.63 C170.54,106.73 178.71,107.01 185.33,108.43 C195.65,110.65 203.35,114.70 209.59,121.20 C219.65,131.68 222.47,139.71 222.49,158.00 C222.50,170.45 222.49,170.53 218.75,178.00 C214.77,185.96 210.85,190.81 204.75,195.33 C202.69,196.85 201.00,198.47 201.00,198.92 C201.00,199.37 202.76,200.90 204.91,202.32 C210.73,206.17 217.86,213.80 220.47,218.94 C225.84,229.59 227.59,247.55 224.50,260.49 C222.15,270.32 216.69,280.17 210.39,285.93 C201.66,293.91 191.95,297.74 177.15,299.07 ZM 728.74 299.18 C727.48,299.98 697.55,300.05 695.25,299.26 C693.58,298.69 693.43,143.51 695.09,134.43 C697.77,119.75 706.13,111.16 720.50,108.30 C729.85,106.45 775.05,106.15 783.50,107.89 C790.36,109.31 799.26,112.01 800.00,112.90 C800.28,113.23 801.85,114.25 803.50,115.16 C808.54,117.96 816.57,125.25 819.84,130.00 C823.75,135.67 827.99,144.02 828.00,146.05 C828.00,146.90 828.54,148.14 829.19,148.79 C829.95,149.55 830.53,155.13 830.81,164.39 C831.29,180.17 830.39,185.00 824.94,196.00 C821.43,203.09 811.09,213.78 803.75,217.91 C797.33,221.52 796.46,223.97 799.85,228.85 C800.86,230.31 803.28,234.43 805.22,238.00 C807.17,241.57 810.10,246.98 811.74,250.00 C813.39,253.02 815.69,257.08 816.86,259.00 C818.03,260.92 819.29,263.17 819.66,264.00 C820.03,264.83 823.18,270.50 826.67,276.60 C830.15,282.71 833.00,288.19 833.00,288.77 C833.00,289.36 833.34,289.98 833.75,290.17 C834.81,290.64 838.00,296.90 838.00,298.51 C838.00,300.43 799.25,300.67 796.80,298.77 C795.89,298.07 791.46,290.30 786.94,281.50 C782.43,272.70 777.38,263.02 775.73,260.00 C774.08,256.98 770.52,250.45 767.81,245.50 C765.10,240.55 762.03,234.58 760.98,232.22 L 759.09 227.94 L 744.79 228.22 L 730.50 228.50 L 730.24 263.45 C730.04,289.88 729.67,298.59 728.74,299.18 ZM 469.16 299.40 C463.58,302.25 456.30,302.03 449.00,298.79 C444.24,296.68 434.81,287.09 431.21,280.72 C429.59,277.85 425.17,270.77 421.38,265.00 C417.60,259.22 414.15,253.82 413.72,253.00 C413.28,252.18 410.27,247.45 407.02,242.50 C396.41,226.33 367.17,180.02 366.72,178.65 C366.53,178.10 365.61,177.93 364.67,178.29 C363.09,178.90 362.97,183.29 363.02,238.65 C363.05,286.12 362.80,298.51 361.78,299.16 C359.91,300.35 328.25,300.21 327.50,299.00 C327.08,298.32 326.61,124.31 326.98,106.69 C327.00,105.85 357.94,105.91 361.17,106.76 C362.18,107.02 363.00,107.71 363.00,108.29 C363.00,108.87 363.63,110.05 364.40,110.92 C365.67,112.36 394.01,156.98 399.69,166.50 C403.24,172.45 403.88,173.47 411.57,185.47 C415.47,191.53 420.85,200.07 423.54,204.43 C426.23,208.80 430.36,215.30 432.72,218.89 C435.07,222.47 437.00,225.92 437.00,226.55 C437.00,227.18 437.84,228.45 438.86,229.37 C440.34,230.71 440.92,230.79 441.76,229.78 C442.46,228.92 442.83,208.51 442.89,168.00 C442.94,134.73 442.98,107.25 442.99,106.94 C443.00,106.64 451.10,106.28 461.00,106.15 L 479.00 105.90 L 479.00 195.83 C479.00,199.08 479.00,202.21 479.00,205.23 C479.01,281.12 479.01,288.27 475.66,293.12 C475.18,293.82 474.63,294.47 474.00,295.27 C472.80,296.79 470.63,298.65 469.16,299.40 ZM 539.73 298.75 C538.29,300.59 503.14,300.54 502.44,298.69 C502.16,297.98 504.47,290.21 507.56,281.44 C515.28,259.56 525.35,230.84 528.04,223.00 C529.27,219.43 530.65,215.60 531.10,214.50 C531.55,213.40 533.03,209.12 534.38,205.00 C535.73,200.88 538.25,193.68 539.98,189.00 C541.71,184.32 544.40,176.68 545.96,172.00 C547.52,167.32 551.12,156.98 553.96,149.00 C556.80,141.02 560.03,131.80 561.13,128.50 C564.09,119.69 565.03,117.90 568.95,113.67 C575.63,106.48 585.96,104.61 594.09,109.12 C599.04,111.87 601.06,115.40 606.34,130.50 C608.26,136.00 611.04,143.88 612.52,148.00 C616.36,158.71 626.98,189.01 635.47,213.50 C639.48,225.05 643.51,236.52 644.43,239.00 C645.35,241.48 648.58,250.70 651.61,259.50 C654.64,268.30 658.93,280.63 661.14,286.89 C664.01,295.01 664.83,298.48 664.01,299.00 C663.37,299.39 655.05,299.80 645.51,299.90 C632.60,300.04 627.98,299.77 627.41,298.85 C626.76,297.80 621.37,281.92 618.12,271.50 C617.11,268.25 613.50,255.66 611.96,250.00 C611.44,248.07 608.72,238.85 605.93,229.50 C603.13,220.15 600.62,211.38 600.34,210.00 C600.07,208.62 599.47,206.60 599.00,205.50 C598.53,204.40 597.39,200.80 596.47,197.50 C592.56,183.60 591.84,181.10 589.36,173.00 C585.95,161.81 585.22,160.00 584.12,160.00 C583.24,160.00 579.16,172.07 569.94,202.00 C567.66,209.43 564.72,218.88 563.42,223.00 C562.12,227.12 559.22,236.57 556.98,244.00 C554.74,251.43 552.25,259.32 551.45,261.53 C550.65,263.75 550.00,266.30 550.00,267.20 C550.00,268.10 549.36,270.11 548.57,271.67 C547.30,274.19 545.08,281.34 541.79,293.50 C541.19,295.70 540.27,298.06 539.73,298.75 ZM 945.54 218.50 L 944.50 299.50 L 909.10 300.02 L 908.50 219.50 L 903.86 211.00 C901.31,206.32 891.34,186.98 881.71,168.00 C872.08,149.02 861.23,127.68 857.60,120.56 C853.97,113.44 851.00,107.35 851.00,107.03 C851.00,106.70 859.71,106.31 870.35,106.17 C872.19,106.14 873.85,106.11 875.37,106.09 C884.52,105.92 888.21,105.85 890.46,107.62 C892.34,109.11 893.21,111.89 895.44,117.00 C898.47,123.93 901.99,131.60 908.07,144.50 C910.15,148.90 913.07,155.20 914.57,158.50 C922.93,176.89 925.98,183.00 926.82,183.00 C928.26,183.00 929.24,181.28 933.96,170.50 C939.43,158.02 942.45,151.39 948.90,137.70 C951.71,131.76 954.00,126.74 954.00,126.55 C954.00,124.78 963.44,107.05 964.62,106.59 C966.64,105.82 1001.49,105.82 1002.26,106.60 C1002.59,106.93 998.00,116.71 992.07,128.35 C986.13,139.98 974.73,162.32 966.73,178.00 C958.74,193.68 950.70,209.20 948.87,212.50 ZM 732.63 197.18 C733.53,197.35 743.77,197.25 755.38,196.95 L 776.50 196.40 L 781.26 193.12 C790.07,187.06 793.98,179.86 794.63,168.51 C795.04,161.39 794.81,159.97 792.50,155.42 C789.59,149.66 785.38,145.27 779.50,141.87 C775.91,139.79 773.97,139.52 760.54,139.18 C741.08,138.70 737.59,139.73 732.47,147.50 C730.70,150.20 730.47,152.61 730.16,171.33 C729.80,193.63 730.09,196.67 732.63,197.18 ZM 140.50 266.39 C141.60,266.64 149.93,266.77 159.00,266.66 C173.58,266.50 175.86,266.25 178.60,264.49 C186.20,259.62 188.99,253.34 188.99,241.07 C189.00,232.81 187.82,228.42 184.02,222.52 C179.67,215.78 176.51,215.12 148.36,215.05 C127.23,215.01 124.14,215.20 123.61,216.58 C122.58,219.25 122.94,250.26 124.04,254.22 C126.05,261.46 129.24,263.82 140.50,266.39 ZM 123.96 181.56 C124.54,182.14 134.29,182.43 148.31,182.28 C174.52,181.99 176.77,181.53 181.83,175.39 C185.91,170.44 187.51,161.58 185.62,154.42 C183.72,147.25 181.58,144.47 175.72,141.55 C170.69,139.04 170.22,139.00 148.00,139.00 C131.76,139.00 125.06,139.34 124.20,140.20 C122.71,141.69 122.49,180.09 123.96,181.56 ZM 247.06 199.71 C247.05,200.73 247.05,201.91 247.06,203.29 C247.09,208.36 247.66,214.07 248.32,216.00 C249.48,219.34 249.73,219.49 253.73,219.19 C255.73,219.04 256.81,219.04 257.46,219.39 C256.72,219.06 255.34,219.19 252.46,219.55 L 247.00 220.23 L 247.00 207.15 C247.00,203.99 247.01,201.58 247.06,199.71 ZM 248.41 192.86 C248.63,192.58 248.89,192.32 249.19,192.04 C248.89,192.32 248.63,192.58 248.41,192.86 Z" fill="rgb(98,98,98)"/>
<path d="M 191.00 298.58 C187.29,299.96 181.69,300.30 159.00,300.55 C143.88,300.72 129.25,300.49 126.50,300.06 C117.50,298.63 108.63,295.97 104.24,293.40 C99.08,290.38 93.00,284.96 93.00,283.38 C93.00,282.76 92.38,281.73 91.63,281.11 C90.87,280.48 89.19,277.16 87.88,273.73 L 85.50 267.50 L 85.50 105.50 L 130.16 105.24 C170.85,105.00 175.71,105.15 184.79,106.91 C196.54,109.19 203.56,112.76 210.97,120.26 C216.79,126.13 218.20,128.60 221.71,139.00 C225.26,149.52 225.43,165.52 222.10,175.00 C220.84,178.57 219.51,181.72 219.15,182.00 C218.79,182.27 217.26,184.32 215.76,186.53 C214.26,188.75 210.77,192.29 208.01,194.39 C205.26,196.49 203.02,198.50 203.05,198.86 C203.08,199.21 205.22,200.88 207.80,202.58 C214.84,207.18 221.04,215.51 224.26,224.65 C226.71,231.63 227.02,233.89 227.01,245.08 C227.00,258.55 225.66,264.67 220.30,275.75 C215.75,285.17 205.38,293.25 191.00,298.58 ZM 177.15 299.07 C191.95,297.74 201.66,293.91 210.39,285.93 C216.69,280.17 222.15,270.32 224.50,260.49 C227.59,247.55 225.84,229.59 220.47,218.94 C217.86,213.80 210.73,206.17 204.91,202.32 C202.76,200.90 201.00,199.37 201.00,198.92 C201.00,198.47 202.69,196.85 204.75,195.33 C210.85,190.81 214.77,185.96 218.75,178.00 C222.49,170.53 222.50,170.45 222.49,158.00 C222.47,139.71 219.65,131.68 209.59,121.20 C203.35,114.70 195.65,110.65 185.33,108.43 C178.71,107.01 170.54,106.73 132.50,106.63 L 87.50 106.50 L 87.50 186.50 C87.50,268.65 87.55,269.80 91.31,277.80 C94.58,284.75 106.00,294.04 113.00,295.43 C114.93,295.81 117.68,296.58 119.12,297.13 C124.81,299.31 160.91,300.52 177.15,299.07 ZM 732.50 229.72 L 731.50 300.50 L 712.23 300.77 C696.65,300.99 692.85,300.78 692.43,299.67 C692.14,298.92 692.05,261.22 692.22,215.90 C692.52,139.40 692.30,129.72 696.60,122.86 C697.48,121.45 698.56,120.16 699.86,118.43 C708.44,107.11 719.28,104.61 757.09,105.25 C784.59,105.71 790.50,106.67 802.12,112.56 C809.77,116.43 821.16,127.87 825.26,135.77 C831.45,147.70 832.45,152.01 832.47,167.00 C832.51,184.49 829.97,192.93 821.23,204.47 C817.03,210.01 805.67,219.70 802.32,220.60 C801.12,220.92 799.89,221.83 799.59,222.63 C799.28,223.42 801.73,228.82 805.02,234.61 C808.31,240.41 811.00,245.38 811.00,245.66 C811.00,245.94 812.65,248.94 814.66,252.33 C816.68,255.72 819.32,260.30 820.53,262.50 C821.73,264.70 826.61,273.56 831.36,282.20 C836.11,290.83 840.00,298.60 840.00,299.45 C840.00,300.80 837.22,301.00 818.12,301.00 C801.81,301.00 796.00,300.68 795.26,299.75 C794.41,298.67 790.41,291.21 779.01,269.50 C777.57,266.75 775.85,263.49 775.19,262.25 C774.54,261.01 773.53,259.07 772.95,257.94 C771.76,255.59 766.15,245.12 761.74,237.00 C760.10,233.98 758.37,231.09 757.91,230.58 C757.44,230.08 751.54,229.67 744.78,229.69 ZM 468.32 301.88 C464.58,303.80 455.03,303.12 449.35,300.54 C441.50,296.97 435.28,290.02 424.42,272.65 C410.81,250.90 409.68,249.11 401.07,235.79 C396.91,229.36 390.97,220.13 387.87,215.29 C384.77,210.46 379.32,201.99 375.76,196.48 C372.20,190.97 368.48,184.89 367.48,182.98 C366.49,181.07 365.51,179.98 365.32,180.57 C365.12,181.16 364.85,208.38 364.73,241.07 L 364.50 300.50 L 344.75 300.77 L 324.99 301.04 L 325.25 203.27 L 325.50 105.50 L 344.14 105.23 L 362.77 104.96 L 370.24 116.73 C374.34,123.20 378.47,129.85 379.40,131.50 C380.33,133.15 383.28,137.88 385.95,142.00 C388.62,146.12 393.42,153.77 396.61,159.00 C399.80,164.23 403.44,169.89 404.71,171.59 C405.97,173.30 407.00,175.02 407.00,175.42 C407.00,175.82 408.80,178.67 411.00,181.74 C413.20,184.81 415.00,187.70 415.00,188.15 C415.00,188.60 417.99,193.59 421.64,199.24 C433.21,217.10 435.46,220.66 437.20,223.87 C438.14,225.59 439.37,227.00 439.95,227.00 C440.65,227.00 441.07,207.43 441.24,166.25 L 441.50 105.50 L 460.43 105.23 C474.90,105.02 479.54,105.25 480.16,106.23 C480.61,106.93 480.98,147.20 480.98,195.71 C481.00,281.46 480.94,284.07 479.00,289.26 C477.05,294.49 472.68,299.64 468.32,301.88 ZM 728.74 299.18 C729.67,298.59 730.04,289.88 730.24,263.45 L 730.50 228.50 L 744.79 228.22 L 759.09 227.94 L 760.98 232.22 C762.03,234.58 765.10,240.55 767.81,245.50 C770.52,250.45 774.08,256.98 775.73,260.00 C777.38,263.02 782.43,272.70 786.94,281.50 C791.46,290.30 795.89,298.07 796.80,298.77 C799.25,300.67 838.00,300.43 838.00,298.51 C838.00,296.90 834.81,290.64 833.75,290.17 C833.34,289.98 833.00,289.36 833.00,288.77 C833.00,288.19 830.15,282.71 826.67,276.60 C823.18,270.50 820.03,264.83 819.66,264.00 C819.29,263.17 818.03,260.92 816.86,259.00 C815.69,257.08 813.39,253.02 811.74,250.00 C810.10,246.98 807.17,241.57 805.22,238.00 C803.28,234.43 800.86,230.31 799.85,228.85 C796.46,223.97 797.33,221.52 803.75,217.91 C811.09,213.78 821.43,203.09 824.94,196.00 C830.39,185.00 831.29,180.17 830.81,164.39 C830.53,155.13 829.95,149.55 829.19,148.79 C828.54,148.14 828.00,146.90 828.00,146.05 C827.99,144.02 823.75,135.67 819.84,130.00 C816.57,125.25 808.54,117.96 803.50,115.16 C801.85,114.25 800.28,113.23 800.00,112.90 C799.26,112.01 790.36,109.31 783.50,107.89 C775.05,106.15 729.85,106.45 720.50,108.30 C706.13,111.16 697.77,119.75 695.09,134.43 C693.43,143.51 693.58,298.69 695.25,299.26 C697.55,300.05 727.48,299.98 728.74,299.18 ZM 469.16 299.40 C470.63,298.65 472.80,296.79 474.00,295.27 C474.63,294.47 475.18,293.82 475.66,293.12 C479.01,288.27 479.01,281.12 479.00,205.23 C479.00,202.21 479.00,199.08 479.00,195.83 L 479.00 105.90 L 461.00 106.15 C451.10,106.28 443.00,106.64 442.99,106.94 C442.98,107.25 442.94,134.73 442.89,168.00 C442.83,208.51 442.46,228.92 441.76,229.78 C440.92,230.79 440.34,230.71 438.86,229.37 C437.84,228.45 437.00,227.18 437.00,226.55 C437.00,225.92 435.07,222.47 432.72,218.89 C430.36,215.30 426.23,208.80 423.54,204.43 C420.85,200.07 415.47,191.53 411.57,185.47 C403.88,173.47 403.24,172.45 399.69,166.50 C394.01,156.98 365.67,112.36 364.40,110.92 C363.63,110.05 363.00,108.87 363.00,108.29 C363.00,107.71 362.18,107.02 361.17,106.76 C357.94,105.91 327.00,105.85 326.98,106.69 C326.61,124.31 327.08,298.32 327.50,299.00 C328.25,300.21 359.91,300.35 361.78,299.16 C362.80,298.51 363.05,286.12 363.02,238.65 C362.97,183.29 363.09,178.90 364.67,178.29 C365.61,177.93 366.53,178.10 366.72,178.65 C367.17,180.02 396.41,226.33 407.02,242.50 C410.27,247.45 413.28,252.18 413.72,253.00 C414.15,253.82 417.60,259.22 421.38,265.00 C425.17,270.77 429.59,277.85 431.21,280.72 C434.81,287.09 444.24,296.68 449.00,298.79 C456.30,302.03 463.58,302.25 469.16,299.40 ZM 540.72 299.75 C540.01,300.67 534.67,301.00 520.27,301.00 L 500.79 301.00 L 501.26 297.25 C501.64,294.24 512.54,261.67 516.74,251.00 C517.29,249.62 519.88,242.20 522.51,234.50 C525.15,226.80 528.62,216.90 530.23,212.50 C531.84,208.10 533.54,203.15 534.00,201.50 C534.46,199.85 536.27,194.68 538.01,190.00 C539.75,185.32 542.22,178.35 543.50,174.50 C546.35,165.94 555.36,140.44 556.76,137.00 C557.31,135.62 558.79,131.18 560.04,127.13 C562.12,120.34 566.94,112.43 570.92,109.23 C576.81,104.50 586.82,103.69 594.00,107.35 C599.01,109.91 602.05,113.79 604.55,120.81 C605.46,123.39 606.57,126.40 607.00,127.50 C607.43,128.60 608.91,132.88 610.30,137.00 C611.68,141.12 615.83,153.05 619.52,163.50 C629.42,191.52 636.89,212.78 639.02,219.00 C643.44,231.89 648.15,245.34 652.51,257.50 C661.53,282.64 666.95,299.27 666.42,300.13 C666.12,300.61 656.98,301.00 646.09,301.00 L 626.30 301.00 L 623.56 293.25 C622.06,288.99 620.46,284.15 620.00,282.50 C618.82,278.16 612.20,255.28 610.60,250.00 C609.85,247.52 608.74,243.70 608.13,241.50 C607.52,239.30 605.65,233.00 603.97,227.50 C602.30,222.00 600.45,215.70 599.87,213.50 C599.28,211.30 598.18,208.02 597.40,206.22 C596.63,204.41 596.00,202.25 596.00,201.42 C596.00,200.59 594.85,196.22 593.44,191.70 C590.82,183.30 588.82,176.57 586.87,169.50 C586.26,167.30 585.58,164.86 585.35,164.08 C584.68,161.80 583.05,164.17 581.54,169.60 C580.79,172.30 578.97,178.32 577.50,183.00 C576.02,187.68 574.44,192.85 573.97,194.50 C573.51,196.15 572.01,200.88 570.63,205.00 C569.25,209.12 566.71,217.23 564.98,223.00 C563.26,228.77 561.43,234.28 560.92,235.24 C560.41,236.19 560.00,237.58 560.00,238.31 C560.00,239.05 558.71,243.67 557.14,248.58 C555.56,253.48 553.71,259.52 553.02,262.00 C551.15,268.71 548.83,276.24 547.94,278.50 C547.50,279.60 545.92,284.55 544.42,289.50 C542.92,294.45 541.26,299.06 540.72,299.75 ZM 539.73 298.75 C540.27,298.06 541.19,295.70 541.79,293.50 C545.08,281.34 547.30,274.19 548.57,271.67 C549.36,270.11 550.00,268.10 550.00,267.20 C550.00,266.30 550.65,263.75 551.45,261.53 C552.25,259.32 554.74,251.43 556.98,244.00 C559.22,236.57 562.12,227.12 563.42,223.00 C564.72,218.88 567.66,209.43 569.94,202.00 C579.16,172.07 583.24,160.00 584.12,160.00 C585.22,160.00 585.95,161.81 589.36,173.00 C591.84,181.10 592.56,183.60 596.47,197.50 C597.39,200.80 598.53,204.40 599.00,205.50 C599.47,206.60 600.07,208.62 600.34,210.00 C600.62,211.38 603.13,220.15 605.93,229.50 C608.72,238.85 611.44,248.07 611.96,250.00 C613.50,255.66 617.11,268.25 618.12,271.50 C621.37,281.92 626.76,297.80 627.41,298.85 C627.98,299.77 632.60,300.04 645.51,299.90 C655.05,299.80 663.37,299.39 664.01,299.00 C664.83,298.48 664.01,295.01 661.14,286.89 C658.93,280.63 654.64,268.30 651.61,259.50 C648.58,250.70 645.35,241.48 644.43,239.00 C643.51,236.52 639.48,225.05 635.47,213.50 C626.98,189.01 616.36,158.71 612.52,148.00 C611.04,143.88 608.26,136.00 606.34,130.50 C601.06,115.40 599.04,111.87 594.09,109.12 C585.96,104.61 575.63,106.48 568.95,113.67 C565.03,117.90 564.09,119.69 561.13,128.50 C560.03,131.80 556.80,141.02 553.96,149.00 C551.12,156.98 547.52,167.32 545.96,172.00 C544.40,176.68 541.71,184.32 539.98,189.00 C538.25,193.68 535.73,200.88 534.38,205.00 C533.03,209.12 531.55,213.40 531.10,214.50 C530.65,215.60 529.27,219.43 528.04,223.00 C525.35,230.84 515.28,259.56 507.56,281.44 C504.47,290.21 502.16,297.98 502.44,298.69 C503.14,300.54 538.29,300.59 539.73,298.75 ZM 945.92 299.60 C945.00,300.71 940.93,301.00 926.54,301.00 C916.53,301.00 908.03,300.70 907.67,300.33 C907.30,299.97 907.00,281.90 907.00,260.19 L 907.00 220.71 L 902.65 212.10 C890.91,188.93 883.45,174.45 883.00,174.00 C882.72,173.73 877.78,164.11 872.00,152.64 C866.22,141.16 858.75,126.31 855.39,119.64 C852.02,112.96 849.48,106.94 849.74,106.25 C850.10,105.31 855.20,105.00 870.53,105.00 L 890.85 105.00 L 893.69 110.25 C895.25,113.14 898.64,120.22 901.21,126.00 C903.79,131.77 907.72,140.23 909.95,144.78 C912.18,149.34 914.00,153.28 914.00,153.54 C914.00,153.81 916.29,158.86 919.10,164.76 C921.90,170.67 924.59,176.51 925.07,177.75 C925.56,178.99 926.36,180.00 926.85,180.00 C927.76,180.00 935.70,164.36 938.99,156.06 C939.98,153.55 942.68,147.45 944.99,142.50 C947.30,137.55 951.23,129.00 953.72,123.50 C956.22,118.00 958.65,113.07 959.13,112.55 C959.61,112.03 960.00,110.86 960.00,109.95 C960.00,109.05 960.82,107.57 961.83,106.65 C963.40,105.23 966.46,105.00 983.83,105.00 C1001.26,105.00 1004.00,105.21 1004.00,106.53 C1004.00,107.37 997.76,120.31 990.13,135.28 C982.50,150.25 969.63,175.51 961.53,191.42 L 946.80 220.33 L 946.94 259.27 C947.04,287.55 946.76,298.58 945.92,299.60 ZM 945.54 218.50 L 948.87 212.50 C950.70,209.20 958.74,193.68 966.73,178.00 C974.73,162.32 986.13,139.98 992.07,128.35 C998.00,116.71 1002.59,106.93 1002.26,106.60 C1001.49,105.82 966.64,105.82 964.62,106.59 C963.44,107.05 954.00,124.78 954.00,126.55 C954.00,126.74 951.71,131.76 948.90,137.70 C942.45,151.39 939.43,158.02 933.96,170.50 C929.24,181.28 928.26,183.00 926.82,183.00 C925.98,183.00 922.93,176.89 914.57,158.50 C913.07,155.20 910.15,148.90 908.07,144.50 C901.99,131.60 898.47,123.93 895.44,117.00 C893.21,111.89 892.34,109.11 890.46,107.62 C888.21,105.85 884.52,105.92 875.37,106.09 C873.85,106.11 872.19,106.14 870.35,106.17 C859.71,106.31 851.00,106.70 851.00,107.03 C851.00,107.35 853.97,113.44 857.60,120.56 C861.23,127.68 872.08,149.02 881.71,168.00 C891.34,186.98 901.31,206.32 903.86,211.00 L 908.50 219.50 L 909.10 300.02 L 944.50 299.50 ZM 289.02 300.38 C287.99,301.41 264.70,302.22 261.50,301.34 C260.65,301.10 259.97,300.93 259.41,300.56 C257.00,298.97 257.00,293.73 256.99,264.09 L 256.99 262.63 C256.98,242.76 256.70,225.49 256.37,224.25 C255.88,222.42 255.06,222.00 251.97,222.00 C251.81,222.00 251.65,222.00 251.50,222.00 C249.10,222.00 247.58,222.00 246.63,221.28 C245.00,220.03 245.00,216.64 245.00,207.47 C245.00,207.12 245.00,206.77 245.00,206.42 C245.00,192.13 245.01,192.04 247.54,190.38 C248.94,189.47 251.75,188.37 253.79,187.95 C255.83,187.53 261.55,186.02 266.50,184.61 C278.58,181.15 287.14,180.26 288.83,182.29 C289.82,183.49 290.08,196.39 290.02,241.63 C289.98,276.02 289.58,299.82 289.02,300.38 ZM 280.68 174.67 C278.93,175.32 273.90,175.86 269.50,175.88 C262.54,175.92 260.80,175.54 256.12,173.03 C247.56,168.42 245.58,166.08 240.64,154.72 C238.70,150.24 238.35,131.77 240.10,126.07 C243.89,113.76 251.75,105.85 262.11,103.92 C270.76,102.32 271.37,102.27 274.00,103.04 C275.38,103.44 278.47,104.31 280.88,104.96 C285.94,106.34 294.24,113.57 296.97,118.98 C299.50,123.98 301.00,131.93 301.00,140.37 C301.00,156.92 293.23,170.05 280.68,174.67 ZM 288.03 297.95 C288.71,296.86 288.76,233.28 288.12,191.84 L 288.00 184.18 L 284.25 183.55 C281.85,183.16 277.65,183.67 272.59,184.97 C268.24,186.08 263.90,187.00 262.95,187.00 C262.01,187.00 259.94,187.67 258.36,188.49 C256.79,189.32 254.57,189.99 253.44,189.99 C252.30,190.00 250.39,190.92 249.19,192.04 C248.89,192.32 248.63,192.58 248.41,192.86 C247.41,194.09 247.12,195.57 247.06,199.71 C247.01,201.58 247.00,203.99 247.00,207.15 L 247.00 220.23 L 252.46 219.55 C255.34,219.19 256.72,219.06 257.46,219.39 C258.01,219.70 258.24,220.25 258.46,221.19 C258.75,222.46 259.10,240.28 259.24,260.79 C259.45,290.22 259.78,298.24 260.81,298.88 C261.53,299.33 267.76,299.61 274.65,299.51 C284.05,299.37 287.39,298.98 288.03,297.95 ZM 732.63 197.18 C730.09,196.67 729.80,193.63 730.16,171.33 C730.47,152.61 730.70,150.20 732.47,147.50 C737.59,139.73 741.08,138.70 760.54,139.18 C773.97,139.52 775.91,139.79 779.50,141.87 C785.38,145.27 789.59,149.66 792.50,155.42 C794.81,159.97 795.04,161.39 794.63,168.51 C793.98,179.86 790.07,187.06 781.26,193.12 L 776.50 196.40 L 755.38 196.95 C743.77,197.25 733.53,197.35 732.63,197.18 ZM 282.00 171.83 C292.50,167.32 298.15,157.28 298.81,141.97 C299.50,125.78 295.20,115.88 284.08,108.03 C281.03,105.88 279.57,105.61 270.58,105.56 C261.35,105.51 260.11,105.73 255.86,108.23 C250.09,111.62 246.38,115.94 243.34,122.78 C241.33,127.31 241.00,129.67 241.00,139.44 C241.00,149.80 241.26,151.38 243.85,157.18 C250.66,172.35 266.58,178.46 282.00,171.83 ZM 140.50 266.39 C129.24,263.82 126.05,261.46 124.04,254.22 C122.94,250.26 122.58,219.25 123.61,216.58 C124.14,215.20 127.23,215.01 148.36,215.05 C176.51,215.12 179.67,215.78 184.02,222.52 C187.82,228.42 189.00,232.81 188.99,241.07 C188.99,253.34 186.20,259.62 178.60,264.49 C175.86,266.25 173.58,266.50 159.00,266.66 C149.93,266.77 141.60,266.64 140.50,266.39 ZM 744.50 195.11 C770.95,196.47 778.70,194.97 785.75,187.12 C790.98,181.30 792.42,177.38 792.77,168.00 C793.06,160.06 792.88,159.16 790.06,154.31 C783.75,143.51 777.91,141.10 757.79,141.04 C740.90,140.99 737.55,142.00 734.04,148.17 C732.08,151.62 731.98,153.12 732.23,173.17 L 732.50 194.50 ZM 137.78 264.16 C145.13,265.77 170.77,265.52 175.50,263.79 C179.79,262.21 184.76,257.23 186.20,253.07 C186.88,251.11 187.38,245.55 187.32,240.73 C187.23,233.35 186.78,231.07 184.49,226.39 C180.14,217.51 178.22,217.00 148.92,217.00 L 125.00 217.00 L 125.00 235.78 C125.00,251.89 125.24,254.91 126.72,257.03 C130.03,261.81 131.56,262.79 137.78,264.16 ZM 123.96 181.56 C122.49,180.09 122.71,141.69 124.20,140.20 C125.06,139.34 131.76,139.00 148.00,139.00 C170.22,139.00 170.69,139.04 175.72,141.55 C181.58,144.47 183.72,147.25 185.62,154.42 C187.51,161.58 185.91,170.44 181.83,175.39 C176.77,181.53 174.52,181.99 148.31,182.28 C134.29,182.43 124.54,182.14 123.96,181.56 ZM 125.00 141.00 L 125.00 181.16 L 148.25 180.83 C174.58,180.46 176.68,179.96 181.55,172.93 C183.66,169.89 184.38,167.47 184.76,162.14 C185.08,157.64 184.86,155.03 184.12,154.58 C183.51,154.19 183.00,152.86 183.00,151.62 C183.00,149.13 180.38,146.34 175.00,143.11 C171.71,141.13 170.09,141.01 148.25,141.00 ZM 263.61 155.91 C259.30,152.52 257.91,148.71 257.90,140.19 C257.87,129.27 259.95,124.63 266.36,121.32 C270.16,119.35 273.49,120.32 277.49,124.56 C281.18,128.47 282.00,131.43 282.00,140.79 C282.00,145.98 281.48,148.21 279.47,151.64 C278.08,154.02 276.08,156.42 275.03,156.98 C271.89,158.66 266.47,158.16 263.61,155.91 ZM 265.79 155.32 C275.93,157.99 280.50,152.34 279.81,137.99 C279.43,129.94 279.18,129.08 276.29,125.99 C271.97,121.37 267.83,121.43 263.49,126.17 C259.82,130.17 258.47,136.18 259.56,143.75 C260.33,149.18 263.28,154.66 265.79,155.32 Z" fill="rgb(166,170,167)"/>
<path d="M 0.00 201.00 L 0.00 0.00 L 540.00 0.00 L 1080.00 0.00 L 1080.00 201.00 L 1080.00 402.00 L 540.00 402.00 L 0.00 402.00 L 0.00 201.00 ZM 468.32 301.88 C472.68,299.64 477.05,294.49 479.00,289.26 C480.94,284.07 481.00,281.46 480.98,195.71 C480.98,147.20 480.61,106.93 480.16,106.23 C479.54,105.25 474.90,105.02 460.43,105.23 L 441.50 105.50 L 441.24 166.25 C441.07,207.43 440.65,227.00 439.95,227.00 C439.37,227.00 438.14,225.59 437.20,223.87 C435.46,220.66 433.21,217.10 421.64,199.24 C417.99,193.59 415.00,188.60 415.00,188.15 C415.00,187.70 413.20,184.81 411.00,181.74 C408.80,178.67 407.00,175.82 407.00,175.42 C407.00,175.02 405.97,173.30 404.71,171.59 C403.44,169.89 399.80,164.23 396.61,159.00 C393.42,153.77 388.62,146.12 385.95,142.00 C383.28,137.88 380.33,133.15 379.40,131.50 C378.47,129.85 374.34,123.20 370.24,116.73 L 362.77 104.96 L 344.14 105.23 L 325.50 105.50 L 325.25 203.27 L 324.99 301.04 L 344.75 300.77 L 364.50 300.50 L 364.73 241.07 C364.85,208.38 365.12,181.16 365.32,180.57 C365.51,179.98 366.49,181.07 367.48,182.98 C368.48,184.89 372.20,190.97 375.76,196.48 C379.32,201.99 384.77,210.46 387.87,215.29 C390.97,220.13 396.91,229.36 401.07,235.79 C409.68,249.11 410.81,250.90 424.42,272.65 C435.28,290.02 441.50,296.97 449.35,300.54 C455.03,303.12 464.58,303.80 468.32,301.88 ZM 289.02 300.38 C289.58,299.82 289.98,276.02 290.02,241.63 C290.08,196.39 289.82,183.49 288.83,182.29 C287.14,180.26 278.58,181.15 266.50,184.61 C261.55,186.02 255.83,187.53 253.79,187.95 C251.75,188.37 248.94,189.47 247.54,190.38 C245.01,192.04 245.00,192.13 245.00,206.42 C245.00,222.37 244.84,222.00 251.97,222.00 C255.06,222.00 255.88,222.42 256.37,224.25 C256.70,225.49 256.98,242.76 256.99,262.63 C257.00,300.60 256.94,300.08 261.50,301.34 C264.70,302.22 287.99,301.41 289.02,300.38 ZM 191.00 298.58 C205.38,293.25 215.75,285.17 220.30,275.75 C225.66,264.67 227.00,258.55 227.01,245.08 C227.02,233.89 226.71,231.63 224.26,224.65 C221.04,215.51 214.84,207.18 207.80,202.58 C205.22,200.88 203.08,199.21 203.05,198.86 C203.02,198.50 205.26,196.49 208.01,194.39 C210.77,192.29 214.26,188.75 215.76,186.53 C217.26,184.32 218.79,182.27 219.15,182.00 C219.51,181.72 220.84,178.57 222.10,175.00 C225.43,165.52 225.26,149.52 221.71,139.00 C218.20,128.60 216.79,126.13 210.97,120.26 C203.56,112.76 196.54,109.19 184.79,106.91 C175.71,105.15 170.85,105.00 130.16,105.24 L 85.50 105.50 L 85.50 186.50 L 85.50 267.50 L 87.88 273.73 C89.19,277.16 90.87,280.48 91.63,281.11 C92.38,281.73 93.00,282.76 93.00,283.38 C93.00,284.96 99.08,290.38 104.24,293.40 C108.63,295.97 117.50,298.63 126.50,300.06 C129.25,300.49 143.88,300.72 159.00,300.55 C181.69,300.30 187.29,299.96 191.00,298.58 ZM 540.72 299.75 C541.26,299.06 542.92,294.45 544.42,289.50 C545.92,284.55 547.50,279.60 547.94,278.50 C548.83,276.24 551.15,268.71 553.02,262.00 C553.71,259.52 555.56,253.48 557.14,248.58 C558.71,243.67 560.00,239.05 560.00,238.31 C560.00,237.58 560.41,236.19 560.92,235.24 C561.43,234.28 563.26,228.77 564.98,223.00 C566.71,217.23 569.25,209.12 570.63,205.00 C572.01,200.88 573.51,196.15 573.97,194.50 C574.44,192.85 576.02,187.68 577.50,183.00 C578.97,178.32 580.79,172.30 581.54,169.60 C583.05,164.17 584.68,161.80 585.35,164.08 C585.58,164.86 586.26,167.30 586.87,169.50 C588.82,176.57 590.82,183.30 593.44,191.70 C594.85,196.22 596.00,200.59 596.00,201.42 C596.00,202.25 596.63,204.41 597.40,206.22 C598.18,208.02 599.28,211.30 599.87,213.50 C600.45,215.70 602.30,222.00 603.97,227.50 C605.65,233.00 607.52,239.30 608.13,241.50 C608.74,243.70 609.85,247.52 610.60,250.00 C612.20,255.28 618.82,278.16 620.00,282.50 C620.46,284.15 622.06,288.99 623.56,293.25 L 626.30 301.00 L 646.09 301.00 C656.98,301.00 666.12,300.61 666.42,300.13 C666.95,299.27 661.53,282.64 652.51,257.50 C648.15,245.34 643.44,231.89 639.02,219.00 C636.89,212.78 629.42,191.52 619.52,163.50 C615.83,153.05 611.68,141.12 610.30,137.00 C608.91,132.88 607.43,128.60 607.00,127.50 C606.57,126.40 605.46,123.39 604.55,120.81 C602.05,113.79 599.01,109.91 594.00,107.35 C586.82,103.69 576.81,104.50 570.92,109.23 C566.94,112.43 562.12,120.34 560.04,127.13 C558.79,131.18 557.31,135.62 556.76,137.00 C555.36,140.44 546.35,165.94 543.50,174.50 C542.22,178.35 539.75,185.32 538.01,190.00 C536.27,194.68 534.46,199.85 534.00,201.50 C533.54,203.15 531.84,208.10 530.23,212.50 C528.62,216.90 525.15,226.80 522.51,234.50 C519.88,242.20 517.29,249.62 516.74,251.00 C512.54,261.67 501.64,294.24 501.26,297.25 L 500.79 301.00 L 520.27 301.00 C534.67,301.00 540.01,300.67 540.72,299.75 ZM 732.00 265.11 L 732.50 229.72 L 744.78 229.69 C751.54,229.67 757.44,230.08 757.91,230.58 C758.37,231.09 760.10,233.98 761.74,237.00 C766.15,245.12 771.76,255.59 772.95,257.94 C773.53,259.07 774.54,261.01 775.19,262.25 C775.85,263.49 777.57,266.75 779.01,269.50 C790.41,291.21 794.41,298.67 795.26,299.75 C796.00,300.68 801.81,301.00 818.12,301.00 C837.22,301.00 840.00,300.80 840.00,299.45 C840.00,298.60 836.11,290.83 831.36,282.20 C826.61,273.56 821.73,264.70 820.53,262.50 C819.32,260.30 816.68,255.72 814.66,252.33 C812.65,248.94 811.00,245.94 811.00,245.66 C811.00,245.38 808.31,240.41 805.02,234.61 C801.73,228.82 799.28,223.42 799.59,222.63 C799.89,221.83 801.12,220.92 802.32,220.60 C805.67,219.70 817.03,210.01 821.23,204.47 C829.97,192.93 832.51,184.49 832.47,167.00 C832.45,152.01 831.45,147.70 825.26,135.77 C821.16,127.87 809.77,116.43 802.12,112.56 C790.50,106.67 784.59,105.71 757.09,105.25 C719.28,104.61 708.44,107.11 699.86,118.43 C692.19,128.56 692.58,123.66 692.22,215.90 C692.05,261.22 692.14,298.92 692.43,299.67 C692.85,300.78 696.65,300.99 712.23,300.77 L 731.50 300.50 L 732.00 265.11 ZM 945.92 299.60 C946.76,298.58 947.04,287.55 946.94,259.27 L 946.80 220.33 L 961.53 191.42 C969.63,175.51 982.50,150.25 990.13,135.28 C997.76,120.31 1004.00,107.37 1004.00,106.53 C1004.00,105.21 1001.26,105.00 983.83,105.00 C966.46,105.00 963.40,105.23 961.83,106.65 C960.82,107.57 960.00,109.05 960.00,109.95 C960.00,110.86 959.61,112.03 959.13,112.55 C958.65,113.07 956.22,118.00 953.72,123.50 C951.23,129.00 947.30,137.55 944.99,142.50 C942.68,147.45 939.98,153.55 938.99,156.06 C935.70,164.36 927.76,180.00 926.85,180.00 C926.36,180.00 925.56,178.99 925.07,177.75 C924.59,176.51 921.90,170.67 919.10,164.76 C916.29,158.86 914.00,153.81 914.00,153.54 C914.00,153.28 912.18,149.34 909.95,144.78 C907.72,140.23 903.79,131.77 901.21,126.00 C898.64,120.22 895.25,113.14 893.69,110.25 L 890.85 105.00 L 870.53 105.00 C855.20,105.00 850.10,105.31 849.74,106.25 C849.48,106.94 852.02,112.96 855.39,119.64 C858.75,126.31 866.22,141.16 872.00,152.64 C877.78,164.11 882.72,173.73 883.00,174.00 C883.45,174.45 890.91,188.93 902.65,212.10 L 907.00 220.71 L 907.00 260.19 C907.00,281.90 907.30,299.97 907.67,300.33 C908.03,300.70 916.53,301.00 926.54,301.00 C940.93,301.00 945.00,300.71 945.92,299.60 ZM 280.68 174.67 C293.23,170.05 301.00,156.92 301.00,140.37 C301.00,131.93 299.50,123.98 296.97,118.98 C294.24,113.57 285.94,106.34 280.88,104.96 C278.47,104.31 275.38,103.44 274.00,103.04 C271.37,102.27 270.76,102.32 262.11,103.92 C251.75,105.85 243.89,113.76 240.10,126.07 C238.35,131.77 238.70,150.24 240.64,154.72 C245.58,166.08 247.56,168.42 256.12,173.03 C260.80,175.54 262.54,175.92 269.50,175.88 C273.90,175.86 278.93,175.32 280.68,174.67 ZM 137.78 264.16 C131.56,262.79 130.03,261.81 126.72,257.03 C125.24,254.91 125.00,251.89 125.00,235.78 L 125.00 217.00 L 148.92 217.00 C178.22,217.00 180.14,217.51 184.49,226.39 C186.78,231.07 187.23,233.35 187.32,240.73 C187.38,245.55 186.88,251.11 186.20,253.07 C184.76,257.23 179.79,262.21 175.50,263.79 C170.77,265.52 145.13,265.77 137.78,264.16 ZM 125.00 161.08 L 125.00 141.00 L 148.25 141.00 C170.09,141.01 171.71,141.13 175.00,143.11 C180.38,146.34 183.00,149.13 183.00,151.62 C183.00,152.86 183.51,154.19 184.12,154.58 C184.86,155.03 185.08,157.64 184.76,162.14 C184.38,167.47 183.66,169.89 181.55,172.93 C176.68,179.96 174.58,180.46 148.25,180.83 L 125.00 181.16 L 125.00 161.08 ZM 744.50 195.11 L 732.50 194.50 L 732.23 173.17 C731.98,153.12 732.08,151.62 734.04,148.17 C737.55,142.00 740.90,140.99 757.79,141.04 C777.91,141.10 783.75,143.51 790.06,154.31 C792.88,159.16 793.06,160.06 792.77,168.00 C792.42,177.38 790.98,181.30 785.75,187.12 C778.70,194.97 770.95,196.47 744.50,195.11 ZM 265.79 155.32 C263.28,154.66 260.33,149.18 259.56,143.75 C258.47,136.18 259.82,130.17 263.49,126.17 C267.83,121.43 271.97,121.37 276.29,125.99 C279.18,129.08 279.43,129.94 279.81,137.99 C280.50,152.34 275.93,157.99 265.79,155.32 Z" fill="rgb(253,254,254)"/>
</g>
</svg>