<svg xmlns="http://www.w3.org/2000/svg" width="855" height="408" viewBox="0 0 855 408">
<g>
<path d="M 750.36 318.45 C741.66,321.29 724.62,322.57 715.50,321.06 C705.01,319.33 684.63,310.57 680.52,306.02 C678.91,304.25 679.07,303.74 683.66,296.11 C686.32,291.69 688.76,288.05 689.08,288.04 C689.40,288.02 693.22,290.04 697.58,292.53 C711.69,300.59 723.84,302.73 737.10,299.48 C743.40,297.93 745.04,297.02 749.57,292.60 C755.73,286.58 757.28,281.38 754.52,276.05 C752.34,271.83 748.50,269.67 736.56,265.96 C706.71,256.69 703.55,255.35 695.47,248.49 C692.70,246.14 689.11,241.81 687.50,238.86 C684.87,234.07 684.55,232.55 684.53,224.50 C684.50,217.02 684.90,214.70 686.85,210.76 C689.56,205.31 695.25,199.12 700.72,195.69 C714.69,186.91 739.09,184.94 758.04,191.06 C765.71,193.53 779.00,200.84 779.00,202.58 C779.00,203.59 771.10,217.24 769.71,218.63 C769.48,218.86 766.64,217.76 763.40,216.18 C751.21,210.27 744.23,208.63 733.76,209.20 C707.72,210.61 701.84,229.37 724.73,238.02 C727.91,239.22 735.45,241.67 741.50,243.46 C771.66,252.40 782.00,261.81 782.00,280.30 C782.00,298.12 770.63,311.83 750.36,318.45 ZM 302.77 294.27 L 302.50 317.50 L 290.25 317.78 L 278.00 318.06 L 278.00 191.00 L 380.00 191.00 L 380.00 200.30 C380.00,206.20 379.56,210.04 378.80,210.80 C377.91,211.69 367.97,212.00 340.28,212.00 L 302.96 212.00 L 303.50 249.50 L 329.78 249.77 L 356.07 250.03 L 355.78 260.27 L 355.50 270.50 L 329.27 270.77 L 303.04 271.03 ZM 625.76 264.77 L 625.50 317.50 L 613.45 317.78 C606.82,317.93 601.08,317.75 600.70,317.36 C600.31,316.98 600.00,293.13 600.00,264.35 L 600.00 212.04 L 578.75 211.77 L 557.50 211.50 L 556.93 191.00 L 669.07 191.00 L 668.50 211.50 L 647.26 211.77 L 626.02 212.04 ZM 494.78 307.86 L 494.50 317.50 L 446.25 317.76 L 398.00 318.02 L 398.00 191.00 L 423.00 191.00 L 423.00 243.92 C423.00,285.35 423.27,296.93 424.25,297.27 C424.94,297.51 434.05,297.49 444.50,297.22 C454.95,296.95 470.60,297.06 479.28,297.47 L 495.07 298.21 ZM 539.01 191.00 L 538.50 317.50 L 526.45 317.78 C519.82,317.93 514.08,317.75 513.70,317.36 C513.31,316.98 513.00,288.39 513.00,253.83 L 513.00 191.00 Z" fill="rgb(4,8,85)"/>
<path d="M 151.75 320.38 C147.76,320.69 130.48,321.13 113.34,321.36 C84.95,321.75 81.92,321.63 79.30,320.03 C78.20,319.37 77.29,318.95 76.54,318.34 C72.98,315.45 72.98,308.17 73.00,248.61 C73.00,244.34 73.00,239.81 73.00,234.99 L 73.00 156.91 L 75.25 154.55 C77.96,151.71 79.30,151.03 115.14,134.13 C118.80,132.41 122.28,131.00 122.89,131.00 C123.50,131.00 124.00,130.55 124.00,130.00 C124.00,129.45 124.50,129.00 125.10,129.00 C125.71,129.00 130.09,127.12 134.85,124.82 C139.61,122.52 143.84,120.72 144.25,120.82 C144.66,120.92 145.00,120.55 145.00,120.00 C145.00,119.45 145.79,118.98 146.75,118.97 C147.71,118.95 150.30,118.06 152.50,117.00 C157.93,114.38 159.39,114.40 157.96,117.08 C157.09,118.70 157.17,119.54 158.29,120.83 C159.08,121.75 160.02,124.36 160.36,126.64 C160.90,130.21 160.72,130.84 158.99,131.29 C157.65,131.64 157.00,132.66 157.00,134.41 C157.00,136.05 156.45,137.00 155.50,137.00 C154.68,137.00 154.00,137.35 154.00,137.78 C154.00,138.21 151.75,139.43 149.00,140.50 C146.25,141.57 144.00,142.74 144.00,143.11 C144.00,143.48 142.76,144.09 141.25,144.47 C139.74,144.85 137.67,145.91 136.65,146.83 C135.62,147.75 134.72,148.32 134.65,148.10 C134.38,147.38 130.00,149.12 130.00,149.96 C130.00,150.41 128.43,151.07 126.50,151.43 C124.57,151.80 123.00,152.52 123.00,153.05 C123.00,153.57 122.58,154.00 122.07,154.00 C119.99,154.00 98.56,164.29 96.28,166.39 C95.36,167.24 95.00,183.26 94.78,233.63 L 94.50 299.76 L 121.50 300.27 C137.62,300.57 150.85,301.28 154.33,302.04 C159.50,303.17 160.09,303.54 159.59,305.40 C159.28,306.56 159.02,310.27 159.01,313.66 L 159.00 319.83 Z" fill="rgb(80,175,180)"/>
<path d="M 151.75 320.38 L 159.00 319.83 L 159.01 313.66 C159.02,310.27 159.28,306.56 159.59,305.40 C160.09,303.54 159.50,303.17 154.33,302.04 C150.85,301.28 137.62,300.57 121.50,300.27 L 107.29 300.00 L 159.00 300.00 L 223.50 300.00 L 223.37 246.98 L 223.24 193.97 L 226.02 191.98 C227.89,190.65 230.42,190.00 233.72,190.00 C237.77,190.00 239.09,190.48 241.26,192.75 L 243.90 195.51 L 243.89 255.50 L 243.88 315.50 L 238.66 321.50 L 160.19 321.50 C156.08,321.50 152.18,321.50 148.48,321.50 C131.05,321.50 117.96,321.51 108.06,321.43 C109.72,321.41 111.47,321.39 113.34,321.36 C130.48,321.13 147.76,320.69 151.75,320.38 ZM 154.00 137.89 C154.00,138.26 151.75,139.43 149.00,140.50 C151.75,139.43 154.00,138.21 154.00,137.78 C154.00,137.35 154.68,137.00 155.50,137.00 C156.45,137.00 157.00,136.05 157.00,134.41 C157.00,132.66 157.65,131.64 158.99,131.29 C160.72,130.84 160.90,130.21 160.36,126.64 C160.02,124.36 159.08,121.75 158.29,120.83 C157.17,119.54 157.09,118.70 157.96,117.08 C159.39,114.40 157.93,114.38 152.50,117.00 C150.35,118.04 147.83,118.91 146.82,118.96 C147.21,118.84 147.63,118.72 148.08,118.63 C149.78,118.29 152.44,117.11 153.99,116.01 C155.54,114.90 157.30,114.00 157.90,114.00 C158.51,114.00 159.00,113.55 159.00,113.00 C159.00,112.45 159.67,112.00 160.49,112.00 C162.58,112.00 170.00,108.69 170.00,107.76 C170.00,107.34 170.81,107.00 171.81,107.00 C172.80,107.00 174.49,106.34 175.56,105.53 C176.63,104.72 178.29,104.05 179.25,104.03 C180.21,104.01 181.00,103.59 181.00,103.08 C181.00,102.57 182.35,101.86 184.00,101.50 C185.65,101.14 187.00,100.43 187.00,99.92 C187.00,99.41 187.90,99.00 189.00,99.00 C190.10,99.00 191.00,98.55 191.00,98.00 C191.00,97.45 191.54,97.00 192.20,97.00 C192.87,97.00 197.57,94.97 202.66,92.50 C207.75,90.03 212.32,88.00 212.83,88.00 C213.34,88.00 214.32,87.32 215.00,86.50 C217.02,84.06 220.62,84.77 224.43,88.37 C227.55,91.31 228.00,92.33 228.00,96.50 C228.00,101.53 225.54,105.06 221.03,106.49 C217.62,107.57 200.54,116.23 199.91,117.20 C199.58,117.70 198.91,118.03 198.41,117.94 C196.86,117.67 193.00,119.19 193.00,120.07 C193.00,120.53 191.43,121.20 189.50,121.57 C187.57,121.93 186.00,122.51 186.00,122.87 C186.00,123.22 184.54,124.14 182.75,124.90 C171.43,129.76 168.00,131.42 168.00,132.06 C168.00,132.45 166.43,133.07 164.50,133.43 C162.57,133.80 161.00,134.50 161.00,135.00 C161.00,135.50 159.43,136.20 157.50,136.57 C155.57,136.93 154.00,137.52 154.00,137.89 ZM 73.18 296.62 C73.40,308.17 73.88,313.32 74.91,315.99 C74.84,315.89 74.78,315.78 74.71,315.68 C73.82,314.32 73.39,311.69 73.18,296.62 ZM 78.47 319.55 C77.68,319.24 77.13,318.87 76.68,318.45 C77.20,318.85 77.79,319.17 78.47,319.55 ZM 94.50 299.76 L 94.50 299.76 L 94.78 233.63 C94.97,190.09 95.26,172.21 95.94,167.62 C95.26,172.22 94.97,190.12 94.78,233.75 Z" fill="rgb(166,242,93)"/>
<path d="M 0.00 204.00 L 0.00 0.00 L 427.50 0.00 L 855.00 0.00 L 855.00 204.00 L 855.00 408.00 L 427.50 408.00 L 0.00 408.00 L 0.00 204.00 ZM 241.27 318.50 L 243.88 315.50 L 243.89 255.50 L 243.90 195.51 L 241.26 192.75 C239.09,190.48 237.77,190.00 233.72,190.00 C230.42,190.00 227.89,190.65 226.02,191.98 L 223.24 193.97 L 223.37 246.98 L 223.50 300.00 L 159.00 300.00 L 94.50 300.00 L 94.78 233.75 C95.00,183.29 95.36,167.24 96.28,166.39 C98.56,164.29 119.99,154.00 122.07,154.00 C122.58,154.00 123.00,153.57 123.00,153.05 C123.00,152.52 124.57,151.80 126.50,151.43 C128.43,151.07 130.00,150.41 130.00,149.96 C130.00,149.12 134.38,147.38 134.65,148.10 C134.72,148.32 135.62,147.75 136.65,146.83 C137.67,145.91 139.74,144.85 141.25,144.47 C142.76,144.09 144.00,143.48 144.00,143.11 C144.00,142.74 146.25,141.57 149.00,140.50 C151.75,139.43 154.00,138.26 154.00,137.89 C154.00,137.52 155.57,136.93 157.50,136.57 C159.43,136.20 161.00,135.50 161.00,135.00 C161.00,134.50 162.57,133.80 164.50,133.43 C166.43,133.07 168.00,132.45 168.00,132.06 C168.00,131.42 171.43,129.76 182.75,124.90 C184.54,124.14 186.00,123.22 186.00,122.87 C186.00,122.51 187.57,121.93 189.50,121.57 C191.43,121.20 193.00,120.53 193.00,120.07 C193.00,119.19 196.86,117.67 198.41,117.94 C198.91,118.03 199.58,117.70 199.91,117.20 C200.54,116.23 217.62,107.57 221.03,106.49 C225.54,105.06 228.00,101.53 228.00,96.50 C228.00,92.33 227.55,91.31 224.43,88.37 C220.62,84.77 217.02,84.06 215.00,86.50 C214.32,87.32 213.34,88.00 212.83,88.00 C212.32,88.00 207.75,90.03 202.66,92.50 C197.57,94.97 192.87,97.00 192.20,97.00 C191.54,97.00 191.00,97.45 191.00,98.00 C191.00,98.55 190.10,99.00 189.00,99.00 C187.90,99.00 187.00,99.41 187.00,99.92 C187.00,100.43 185.65,101.14 184.00,101.50 C182.35,101.86 181.00,102.57 181.00,103.08 C181.00,103.59 180.21,104.01 179.25,104.03 C178.29,104.05 176.63,104.72 175.56,105.53 C174.49,106.34 172.80,107.00 171.81,107.00 C170.81,107.00 170.00,107.34 170.00,107.76 C170.00,108.69 162.58,112.00 160.49,112.00 C159.67,112.00 159.00,112.45 159.00,113.00 C159.00,113.55 158.51,114.00 157.90,114.00 C157.30,114.00 155.54,114.90 153.99,116.01 C152.44,117.11 149.78,118.29 148.08,118.63 C146.39,118.97 145.00,119.64 145.00,120.12 C145.00,120.61 144.66,120.92 144.25,120.82 C143.84,120.72 139.61,122.52 134.85,124.82 C130.09,127.12 125.71,129.00 125.10,129.00 C124.50,129.00 124.00,129.45 124.00,130.00 C124.00,130.55 123.50,131.00 122.89,131.00 C122.28,131.00 118.80,132.41 115.14,134.13 C79.30,151.03 77.96,151.71 75.25,154.55 L 73.00 156.91 L 73.00 234.99 C73.00,306.92 73.13,313.28 74.71,315.68 C78.72,321.81 74.22,321.50 160.19,321.50 L 238.66 321.50 L 241.27 318.50 ZM 750.36 318.45 C770.63,311.83 782.00,298.12 782.00,280.30 C782.00,261.81 771.66,252.40 741.50,243.46 C735.45,241.67 727.91,239.22 724.73,238.02 C701.84,229.37 707.72,210.61 733.76,209.20 C744.23,208.63 751.21,210.27 763.40,216.18 C766.64,217.76 769.48,218.86 769.71,218.63 C771.10,217.24 779.00,203.59 779.00,202.58 C779.00,200.84 765.71,193.53 758.04,191.06 C739.09,184.94 714.69,186.91 700.72,195.69 C695.25,199.12 689.56,205.31 686.85,210.76 C684.90,214.70 684.50,217.02 684.53,224.50 C684.55,232.55 684.87,234.07 687.50,238.86 C689.11,241.81 692.70,246.14 695.47,248.49 C703.55,255.35 706.71,256.69 736.56,265.96 C748.50,269.67 752.34,271.83 754.52,276.05 C757.28,281.38 755.73,286.58 749.57,292.60 C745.04,297.02 743.40,297.93 737.10,299.48 C723.84,302.73 711.69,300.59 697.58,292.53 C693.22,290.04 689.40,288.02 689.08,288.04 C688.76,288.05 686.32,291.69 683.66,296.11 C679.07,303.74 678.91,304.25 680.52,306.02 C684.63,310.57 705.01,319.33 715.50,321.06 C724.62,322.57 741.66,321.29 750.36,318.45 ZM 302.77 294.27 L 303.04 271.03 L 329.27 270.77 L 355.50 270.50 L 355.78 260.27 L 356.07 250.03 L 329.78 249.77 L 303.50 249.50 L 303.23 230.75 L 302.96 212.00 L 340.28 212.00 C367.97,212.00 377.91,211.69 378.80,210.80 C379.56,210.04 380.00,206.20 380.00,200.30 L 380.00 191.00 L 329.00 191.00 L 278.00 191.00 L 278.00 254.53 L 278.00 318.06 L 290.25 317.78 L 302.50 317.50 L 302.77 294.27 ZM 494.78 307.86 L 495.07 298.21 L 479.28 297.47 C470.60,297.06 454.95,296.95 444.50,297.22 C434.05,297.49 424.94,297.51 424.25,297.27 C423.27,296.93 423.00,285.35 423.00,243.92 L 423.00 191.00 L 410.50 191.00 L 398.00 191.00 L 398.00 254.51 L 398.00 318.02 L 446.25 317.76 L 494.50 317.50 L 494.78 307.86 ZM 538.76 254.25 L 539.01 191.00 L 526.01 191.00 L 513.00 191.00 L 513.00 253.83 C513.00,288.39 513.31,316.98 513.70,317.36 C514.08,317.75 519.82,317.93 526.45,317.78 L 538.50 317.50 L 538.76 254.25 ZM 625.76 264.77 L 626.02 212.04 L 647.26 211.77 L 668.50 211.50 L 668.78 201.25 L 669.07 191.00 L 613.00 191.00 L 556.93 191.00 L 557.22 201.25 L 557.50 211.50 L 578.75 211.77 L 600.00 212.04 L 600.00 264.35 C600.00,293.13 600.31,316.98 600.70,317.36 C601.08,317.75 606.82,317.93 613.45,317.78 L 625.50 317.50 L 625.76 264.77 Z" fill="rgb(254,254,254)"/>
</g>
</svg>