<svg version="1.1" id="Layer_1" xmlns="http://www.w3.org/2000/svg" xmlns:xlink="http://www.w3.org/1999/xlink" x="0px" y="0px" viewBox="0 0 47.9 47.9" style="enable-background:new 0 0 47.9 47.9;" xml:space="preserve">
 <style type="text/css">
  .st0{fill:#9B65C3;}
	.st1{fill:#BE63C5;}
	.st2{fill:#BF63C6;}
	.st3{fill:#3278B1;}
	.st4{fill:#3278B2;}
	.st5{fill:#45A4EC;}
	.st6{fill:#19BB7D;}
	.st7{fill:#08C7FB;}
	.st8{fill:#59F2F6;}
	.st9{fill:#DA3757;}
	.st10{fill:#D33C4E;}
	.st11{fill:#EE5A24;}
	.st12{fill:#8BDF55;}
	.st13{fill:#25C16F;}
	.st14{fill:#FFBB00;}
	.st15{fill:#FFA800;}
 </style>
 <g>
  <path class="st0" d="M0.3,27.5C1,32.6,3.4,37.2,7,40.9l8.1-8.1c0-8.6,4.5-16.4,11.9-20.8L0.3,27.5z">
  </path>
  <path class="st0" d="M15.2,32.7c-4.2,0-8.3-1.1-11.9-3.2c-1-0.6-2-1.3-3-2C1,32.6,3.4,37.2,7,40.9C7,40.9,15.2,32.7,15.2,32.7z">
  </path>
  <path class="st1" d="M15.2,32.7L7,40.9c3.7,3.7,8.3,6,13.3,6.7l15.5-26.8C31.6,28.1,23.7,32.7,15.2,32.7z">
  </path>
  <path class="st2" d="M18.4,44.7c-2.1-3.7-3.2-7.7-3.2-11.9L7,40.9c3.7,3.7,8.3,6,13.3,6.7C19.7,46.6,19,45.7,18.4,44.7z">
  </path>
  <path class="st3" d="M45.7,1.3L27.1,11.9c-7.4,4.2-16.4,4.2-23.9,0C1.1,15.6,0,19.8,0,24c0,1.1,0.1,2.4,0.3,3.5c1,0.7,2,1.4,3,2
		c3.7,2.1,7.7,3.2,11.9,3.2L46.1,1.8C45.9,1.7,45.8,1.5,45.7,1.3z">
  </path>
  <path class="st4" d="M3.2,29.5c3.7,2.1,7.7,3.2,11.9,3.2c0-8.6,4.5-16.4,11.9-20.8L0.3,27.4C1.3,28.2,2.2,28.9,3.2,29.5z">
  </path>
  <path class="st5" d="M3.2,11.9C1.1,15.6,0,19.8,0,24c0,1.1,0.1,2.4,0.3,3.5l26.8-15.6C19.8,16.3,10.7,16.3,3.2,11.9z">
  </path>
  <path class="st6" d="M46.1,1.8c-0.4-0.4-0.7-0.7-1.1-1C44.1,0.3,43,0,42,0H23.9C15.3,0,7.4,4.6,3.2,11.9c7.4,4.2,16.4,4.2,23.9,0
		c-7.4,4.2-11.9,12.2-11.9,20.8c8.6,0,16.4-4.5,20.8-11.9L46.6,2.2C46.4,2.1,46.2,2,46.1,1.8z">
  </path>
  <path class="st7" d="M27.1,11.9L45.7,1.3c-0.3-0.1-0.4-0.4-0.7-0.6L3.2,11.9C10.7,16.3,19.8,16.3,27.1,11.9z">
  </path>
  <path class="st8" d="M41.9,0h-18C15.3,0,7.4,4.6,3.2,11.9L45,0.7C44,0.3,43,0,41.9,0z">
  </path>
  <path class="st9" d="M36,20.8L46.6,2.2c-0.1-0.1-0.3-0.3-0.4-0.6L15.3,32.6c0,4.2,1.1,8.3,3.2,11.9c0.6,1,1.3,2,2,3
		c1.1,0.1,2.2,0.3,3.4,0.3c4.2,0,8.3-1.1,11.9-3.2C31.6,37.2,31.6,28.1,36,20.8z">
  </path>
  <path class="st10" d="M15.2,32.7c0,4.2,1.1,8.3,3.2,11.9c0.6,1,1.3,2,2,3l15.5-26.8C31.6,28.1,23.7,32.7,15.2,32.7z">
  </path>
  <path class="st11" d="M36,20.8L20.5,47.6c1.1,0.1,2.2,0.3,3.5,0.3c4.2,0,8.3-1.1,11.9-3.2C31.6,37.2,31.6,28.1,36,20.8z">
  </path>
  <path class="st12" d="M47.1,3c-0.4-0.7-0.8-1.3-1.4-1.7L27.1,11.9c-7.4,4.2-11.9,12.2-11.9,20.8c8.6,0,16.4-4.5,20.8-11.9
		c-4.2,7.4-4.2,16.4,0,23.9c7.3-4.2,11.9-12.1,11.9-20.5V6C47.9,4.9,47.6,3.9,47.1,3z">
  </path>
  <path class="st13" d="M45.7,1.3L27.1,11.9c-7.4,4.2-11.9,12.2-11.9,20.8L46.1,1.8C45.9,1.7,45.8,1.4,45.7,1.3z">
  </path>
  <path class="st12" d="M15.2,32.7c8.6,0,16.4-4.5,20.8-11.9L46.6,2.2c-0.1-0.1-0.3-0.3-0.4-0.6L15.2,32.7z">
  </path>
  <path class="st14" d="M46.6,2.2L36,20.8c-4.2,7.4-4.2,16.4,0,23.9L47.2,3C46.9,2.7,46.8,2.5,46.6,2.2z">
  </path>
  <path class="st15" d="M36,44.7c7.4-4.2,11.9-12.1,11.9-20.7V6c0-1.1-0.3-2.1-0.8-3.1L36,44.7z">
  </path>
 </g>
</svg>