<svg xmlns="http://www.w3.org/2000/svg" width="252" height="408" viewBox="0 0 252 408">
<g>
<path d="M 208.23 221.56 C201.18,224.96 199.66,225.32 191.00,225.55 C180.55,225.83 177.92,225.59 167.29,223.45 C163.33,222.65 159.84,222.00 159.54,222.00 C158.00,222.00 159.31,219.83 161.30,219.08 C165.35,217.53 173.34,211.85 178.83,206.60 C186.91,198.87 195.24,183.89 199.47,169.46 C205.23,149.87 205.48,124.24 200.02,114.04 C199.34,112.76 196.96,109.74 194.74,107.34 C192.52,104.93 190.97,102.70 191.29,102.37 C192.06,101.61 212.44,107.42 218.67,110.18 C224.83,112.90 234.90,122.93 238.60,130.03 C241.41,135.43 241.45,135.72 241.42,152.50 C241.40,167.95 241.15,170.30 238.75,178.27 C231.87,201.09 222.22,214.79 208.23,221.56 ZM 160.75 204.94 C157.03,207.29 143.44,207.40 137.32,205.12 C124.37,200.31 101.59,184.10 84.97,167.86 C75.64,158.75 69.00,151.11 69.00,149.49 C69.00,148.82 72.26,145.57 76.25,142.28 C103.52,119.73 131.50,108.00 157.98,108.00 C166.13,108.00 169.94,108.48 174.53,110.08 C180.66,112.22 185.62,115.80 184.26,117.11 C183.84,117.51 179.32,118.55 174.21,119.43 C159.39,121.96 145.73,127.32 132.50,135.79 C121.08,143.11 109.00,153.26 109.00,155.54 C109.00,157.87 123.35,173.06 132.76,180.68 C138.12,185.03 147.09,191.49 152.70,195.04 C158.30,198.59 162.91,201.95 162.95,202.51 C162.98,203.06 161.99,204.16 160.75,204.94 ZM 150.00 308.62 C145.38,311.04 119.34,312.05 118.49,309.83 C118.20,309.08 118.09,296.77 118.23,282.48 L 118.50 256.50 L 128.50 256.19 C138.61,255.88 148.52,257.18 152.39,259.33 C156.28,261.49 160.17,265.47 162.32,269.50 C165.38,275.22 165.36,290.66 162.28,296.50 C159.81,301.20 154.90,306.04 150.00,308.62 ZM 190.00 302.12 L 190.00 311.00 L 183.17 311.00 C179.41,311.00 176.03,310.70 175.67,310.33 C175.30,309.97 175.00,297.83 175.00,283.35 L 175.00 257.04 L 177.55 256.40 C178.96,256.05 185.37,255.96 191.80,256.20 C201.30,256.56 204.29,257.05 207.73,258.83 C217.07,263.67 218.40,275.91 210.47,284.03 L 206.88 287.71 L 213.94 298.27 C217.82,304.08 221.00,309.32 221.00,309.91 C221.00,310.60 218.16,311.00 213.25,311.00 L 205.50 310.99 L 200.73 302.66 C193.87,290.67 193.55,290.30 191.61,291.91 C190.35,292.95 190.00,295.19 190.00,302.12 ZM 47.60 216.17 C44.25,218.60 42.84,218.98 37.60,218.85 C27.94,218.61 14.98,216.46 15.01,215.09 C15.02,214.77 17.40,212.42 20.30,209.87 C23.43,207.13 29.93,198.93 36.21,189.81 C47.62,173.23 57.78,160.00 59.10,160.00 C59.99,160.00 78.30,178.62 78.83,180.07 C79.55,182.05 54.12,211.45 47.60,216.17 ZM 89.49 310.92 C83.58,312.01 80.17,312.12 76.50,311.35 C75.40,311.11 73.48,310.70 72.22,310.44 C70.97,310.17 68.16,308.33 65.97,306.35 C59.90,300.87 58.89,296.11 59.23,274.41 L 59.50 256.50 L 73.50 256.50 L 74.00 275.72 C74.46,293.24 74.68,295.13 76.50,296.94 C78.54,298.98 80.37,299.44 85.23,299.16 C90.42,298.86 91.25,295.89 91.91,275.19 L 92.50 256.50 L 99.22 256.20 C105.63,255.92 105.97,256.02 106.56,258.36 C106.89,259.71 107.01,268.40 106.82,277.66 C106.50,292.72 106.22,295.05 104.13,299.71 C101.16,306.31 96.95,309.54 89.49,310.92 ZM 15.70 196.45 C13.61,198.95 11.34,201.00 10.65,201.00 C5.37,201.00 6.20,172.18 11.98,155.00 C16.23,142.37 24.09,131.94 29.28,132.04 C34.93,132.16 43.00,136.70 43.00,139.77 C43.00,140.58 41.40,143.88 39.43,147.11 C34.89,154.58 30.00,167.93 30.00,172.85 C30.00,175.78 28.82,178.36 24.75,184.27 C21.86,188.47 17.79,193.96 15.70,196.45 ZM 32.64 309.49 C31.89,311.46 19.20,311.68 18.45,309.73 C18.18,309.04 18.09,296.77 18.23,282.48 L 18.50 256.50 L 34.22 256.22 L 49.95 255.95 L 50.55 258.34 C50.88,259.65 51.00,262.25 50.82,264.11 L 50.50 267.50 L 33.50 268.50 L 33.50 278.50 L 49.10 279.09 L 48.50 290.50 L 40.50 290.48 C36.10,290.47 32.22,290.86 31.88,291.34 C30.76,292.90 30.94,305.22 32.10,306.62 C32.72,307.36 32.96,308.66 32.64,309.49 ZM 133.44 297.70 C134.09,299.41 138.22,299.35 142.47,297.58 C147.24,295.58 149.00,291.59 149.00,282.76 C149.00,276.22 148.70,275.07 146.25,272.14 C143.87,269.30 142.82,268.83 138.50,268.68 L 133.50 268.50 L 133.22 282.45 C133.07,290.13 133.17,296.99 133.44,297.70 ZM 66.94 133.11 C63.95,135.77 61.28,137.92 61.00,137.90 C60.33,137.84 46.00,123.14 46.00,122.50 C46.00,120.63 65.76,123.96 69.61,126.48 L 72.37 128.29 ZM 190.41 278.61 C191.85,282.38 201.00,277.97 201.00,273.50 C201.00,269.91 198.32,267.85 194.13,268.20 C190.61,268.49 190.49,268.64 190.19,272.86 C190.01,275.26 190.11,277.85 190.41,278.61 Z" fill="rgb(88,123,165)"/>
<path d="M 32.64 309.49 C32.96,308.66 32.72,307.36 32.10,306.62 C30.94,305.22 30.76,292.90 31.88,291.34 C32.22,290.86 36.10,290.47 40.50,290.48 L 48.50 290.50 L 41.25 290.79 L 34.00 291.09 L 33.91 294.29 C33.60,305.31 33.33,308.66 32.65,309.76 C32.26,310.39 30.32,310.79 27.99,310.95 C30.38,310.73 32.36,310.23 32.64,309.49 ZM 171.57 212.73 C167.66,215.69 163.76,218.14 161.30,219.08 C159.31,219.83 158.00,222.00 159.54,222.00 C159.84,222.00 163.33,222.65 167.29,223.45 C168.71,223.74 169.98,223.99 171.15,224.21 C160.80,222.55 155.40,221.57 155.03,221.27 C154.16,220.57 157.47,219.03 159.90,219.02 C161.98,219.00 166.68,216.37 171.57,212.73 ZM 188.25 225.61 C189.11,225.60 190.02,225.57 191.00,225.55 C195.21,225.44 197.74,225.29 200.03,224.79 C197.73,225.30 195.20,225.45 191.00,225.57 C190.11,225.59 189.19,225.61 188.25,225.61 Z" fill="rgb(137,159,185)"/>
<path d="M 66.94 133.11 L 72.37 128.29 L 69.61 126.48 C68.64,125.84 66.64,125.15 64.21,124.51 C66.01,124.79 67.77,125.04 69.39,125.25 C70.43,125.39 71.78,126.31 72.39,127.31 C73.27,128.75 73.12,129.40 71.63,130.50 C70.61,131.27 68.35,133.15 66.61,134.70 C66.22,135.05 65.85,135.38 65.51,135.69 C63.07,137.88 61.80,139.02 60.55,139.00 C59.00,138.97 57.49,137.18 53.87,133.40 C50.37,129.75 45.81,125.69 43.75,124.37 C41.69,123.05 40.00,121.53 40.00,120.99 C40.00,119.75 43.45,119.70 45.76,120.90 C46.22,121.14 47.92,121.56 50.32,122.05 C47.75,121.85 46.00,121.94 46.00,122.50 C46.00,123.14 60.33,137.84 61.00,137.90 C61.28,137.92 63.95,135.77 66.94,133.11 ZM 191.36 102.00 C192.60,102.00 198.65,103.64 204.86,105.52 C198.15,103.54 191.72,101.95 191.29,102.37 C190.97,102.70 192.52,104.93 194.74,107.34 C196.96,109.74 199.34,112.76 200.02,114.04 C202.17,118.06 203.44,124.48 203.83,131.99 C203.43,125.13 202.39,119.95 201.09,119.00 C200.71,118.72 199.23,116.47 197.80,114.00 C195.18,109.46 191.51,105.69 186.58,102.46 C184.88,101.35 184.25,100.35 184.85,99.75 C185.95,98.65 190.00,99.69 190.00,101.07 C190.00,101.58 190.61,102.00 191.36,102.00 ZM 171.57 212.73 L 171.57 212.73 C166.68,216.37 161.98,219.00 159.90,219.02 C157.47,219.03 154.16,220.57 155.03,221.27 C155.40,221.57 160.80,222.55 171.15,224.21 C171.62,224.30 172.07,224.38 172.51,224.46 C169.21,224.02 164.87,223.51 161.31,223.14 C156.26,222.62 151.65,221.90 151.06,221.54 C148.93,220.22 150.10,219.26 154.60,218.64 C161.92,217.64 166.84,216.00 171.84,212.53 C171.75,212.59 171.66,212.66 171.57,212.73 ZM 159.19 205.77 C155.22,208.00 148.59,209.32 146.00,208.39 C145.18,208.10 143.60,207.48 142.50,207.02 C141.84,206.74 140.51,206.22 139.01,205.65 C145.14,207.23 155.56,207.12 159.82,205.41 C159.61,205.53 159.40,205.65 159.19,205.77 ZM 202.25 157.24 C201.54,161.44 200.62,165.57 199.47,169.46 C198.49,172.79 197.30,176.16 195.93,179.46 C198.72,172.47 200.87,164.94 202.25,157.24 ZM 121.06 196.53 C115.06,192.77 108.60,188.21 103.00,183.69 C101.94,182.83 100.87,181.95 99.80,181.05 C106.92,186.88 114.30,192.24 121.06,196.53 ZM 80.32 163.21 C73.67,156.55 69.00,151.07 69.00,149.49 C69.00,150.83 73.51,156.25 80.32,163.21 ZM 162.89 202.79 C162.92,202.71 162.94,202.63 162.94,202.56 L 162.95 202.57 C162.95,202.63 162.93,202.71 162.89,202.79 Z" fill="rgb(200,214,227)"/>
<path d="M 0.00 204.00 L 0.00 0.00 L 126.00 0.00 L 252.00 0.00 L 252.00 204.00 L 252.00 408.00 L 126.00 408.00 L 0.00 408.00 L 0.00 204.00 ZM 89.49 310.92 C96.95,309.54 101.16,306.31 104.13,299.71 C106.22,295.05 106.50,292.72 106.82,277.66 C107.01,268.40 106.89,259.71 106.56,258.36 C105.97,256.02 105.63,255.92 99.22,256.20 L 92.50 256.50 L 91.91 275.19 C91.25,295.89 90.42,298.86 85.23,299.16 C80.37,299.44 78.54,298.98 76.50,296.94 C74.68,295.13 74.46,293.24 74.00,275.72 L 73.50 256.50 L 66.50 256.50 L 59.50 256.50 L 59.23 274.41 C58.89,296.11 59.90,300.87 65.97,306.35 C68.16,308.33 70.97,310.17 72.22,310.44 C73.48,310.70 75.40,311.11 76.50,311.35 C80.17,312.12 83.58,312.01 89.49,310.92 ZM 32.65 309.76 C33.33,308.66 33.60,305.31 33.91,294.29 L 34.00 291.09 L 41.25 290.79 L 48.50 290.50 L 48.80 284.79 L 49.10 279.09 L 41.30 278.79 L 33.50 278.50 L 33.50 273.50 L 33.50 268.50 L 42.00 268.00 L 50.50 267.50 L 50.82 264.11 C51.00,262.25 50.88,259.65 50.55,258.34 L 49.95 255.95 L 34.22 256.22 L 18.50 256.50 L 18.23 282.48 C18.09,296.77 18.18,309.04 18.45,309.73 C19.11,311.45 31.59,311.47 32.65,309.76 ZM 150.00 308.62 C154.90,306.04 159.81,301.20 162.28,296.50 C165.36,290.66 165.38,275.22 162.32,269.50 C160.17,265.47 156.28,261.49 152.39,259.33 C148.52,257.18 138.61,255.88 128.50,256.19 L 118.50 256.50 L 118.23 282.48 C118.09,296.77 118.20,309.08 118.49,309.83 C119.34,312.05 145.38,311.04 150.00,308.62 ZM 190.00 302.12 C190.00,295.19 190.35,292.95 191.61,291.91 C193.55,290.30 193.87,290.67 200.73,302.66 L 205.50 310.99 L 213.25 311.00 C218.16,311.00 221.00,310.60 221.00,309.91 C221.00,309.32 217.82,304.08 213.94,298.27 L 206.88 287.71 L 210.47 284.03 C218.40,275.91 217.07,263.67 207.73,258.83 C204.29,257.05 201.30,256.56 191.80,256.20 C185.37,255.96 178.96,256.05 177.55,256.40 L 175.00 257.04 L 175.00 283.35 C175.00,297.83 175.30,309.97 175.67,310.33 C176.03,310.70 179.41,311.00 183.17,311.00 L 190.00 311.00 L 190.00 302.12 ZM 208.23 221.56 C222.22,214.79 231.87,201.09 238.75,178.27 C241.15,170.30 241.40,167.95 241.42,152.50 C241.45,135.72 241.41,135.43 238.60,130.03 C234.91,122.96 224.82,112.90 218.72,110.20 C213.74,108.00 193.73,102.00 191.36,102.00 C190.61,102.00 190.00,101.58 190.00,101.07 C190.00,99.69 185.95,98.65 184.85,99.75 C184.25,100.35 184.88,101.35 186.58,102.46 C191.51,105.69 195.18,109.46 197.80,114.00 C199.23,116.47 200.71,118.72 201.09,119.00 C202.75,120.21 203.99,128.31 203.99,138.00 C204.01,164.40 193.54,192.61 178.36,207.08 C170.57,214.51 165.00,217.22 154.60,218.64 C150.10,219.26 148.93,220.22 151.06,221.54 C151.65,221.90 156.26,222.62 161.31,223.14 C166.37,223.66 172.98,224.48 176.00,224.96 C179.02,225.44 185.77,225.72 191.00,225.57 C199.64,225.32 201.20,224.96 208.23,221.56 ZM 47.60 216.17 C54.12,211.45 79.55,182.05 78.83,180.07 C78.30,178.62 59.99,160.00 59.10,160.00 C57.78,160.00 47.62,173.23 36.21,189.81 C29.93,198.93 23.43,207.13 20.30,209.87 C17.40,212.42 15.02,214.77 15.01,215.09 C14.98,216.46 27.94,218.61 37.60,218.85 C42.84,218.98 44.25,218.60 47.60,216.17 ZM 159.19 205.77 C161.28,204.60 162.98,203.15 162.95,202.57 C162.91,201.98 158.30,198.59 152.70,195.04 C147.09,191.49 138.12,185.03 132.76,180.68 C123.35,173.06 109.00,157.87 109.00,155.54 C109.00,153.26 121.08,143.11 132.50,135.79 C145.73,127.32 159.39,121.96 174.21,119.43 C179.32,118.55 183.84,117.51 184.26,117.11 C185.62,115.80 180.66,112.22 174.53,110.08 C169.94,108.48 166.13,108.00 157.98,108.00 C131.50,108.00 103.52,119.73 76.25,142.28 C72.26,145.57 69.00,148.82 69.00,149.49 C69.00,152.61 87.33,171.05 103.00,183.69 C114.04,192.60 128.43,201.67 136.00,204.50 C138.48,205.43 141.40,206.56 142.50,207.02 C143.60,207.48 145.18,208.10 146.00,208.39 C148.59,209.32 155.22,208.00 159.19,205.77 ZM 15.70 196.45 C17.79,193.96 21.86,188.47 24.75,184.27 C28.82,178.36 30.00,175.78 30.00,172.85 C30.00,167.93 34.89,154.58 39.43,147.11 C41.40,143.88 43.00,140.58 43.00,139.77 C43.00,136.70 34.93,132.16 29.28,132.04 C24.09,131.94 16.23,142.37 11.98,155.00 C6.20,172.18 5.37,201.00 10.65,201.00 C11.34,201.00 13.61,198.95 15.70,196.45 ZM 66.61 134.70 C68.35,133.15 70.61,131.27 71.63,130.50 C73.12,129.40 73.27,128.75 72.39,127.31 C71.78,126.31 70.43,125.39 69.39,125.25 C60.42,124.07 47.17,121.64 45.76,120.90 C43.45,119.70 40.00,119.75 40.00,120.99 C40.00,121.53 41.69,123.05 43.75,124.37 C45.81,125.69 50.37,129.75 53.87,133.40 C60.85,140.68 59.99,140.59 66.61,134.70 ZM 133.44 297.70 C133.17,296.99 133.07,290.13 133.22,282.45 L 133.50 268.50 L 138.50 268.68 C142.82,268.83 143.87,269.30 146.25,272.14 C148.70,275.07 149.00,276.22 149.00,282.76 C149.00,291.59 147.24,295.58 142.47,297.58 C138.22,299.35 134.09,299.41 133.44,297.70 ZM 190.41 278.61 C190.11,277.85 190.01,275.26 190.19,272.86 C190.49,268.64 190.61,268.49 194.13,268.20 C198.32,267.85 201.00,269.91 201.00,273.50 C201.00,277.97 191.85,282.38 190.41,278.61 Z" fill="rgb(253,254,254)"/>
</g>
</svg>