<svg width="158" height="38" viewBox="0 0 158 38" fill="none" xmlns="http://www.w3.org/2000/svg">
<path d="M81.1232 21.8577C80.7151 22.0109 80.29 22.113 79.9329 22.113C79.0997 22.113 78.4366 21.9598 77.9605 21.6024C77.5013 21.2451 77.1783 20.7685 77.1273 20.258H83.9118C84.0648 18.9646 84.0138 17.8243 83.7588 16.8373C83.4527 15.8502 82.9256 15.0674 82.2114 14.5568C81.4802 14.0462 80.511 13.7229 79.3038 13.7229C78.2665 13.7229 77.3313 13.9782 76.5151 14.4547C75.6819 14.9142 75.0188 15.5949 74.5427 16.4799C74.0836 17.3648 73.8115 18.3519 73.8115 19.4922C73.8115 20.6324 74.0666 21.5684 74.5427 22.4023C75.0188 23.2362 75.6819 23.8489 76.5661 24.2743C77.4503 24.7338 78.4876 24.9551 79.6778 24.9551C80.7151 24.9551 81.5993 24.8019 82.3134 24.4445C82.9936 24.1382 83.5547 23.6617 84.0138 23.1001L82.1944 21.177C81.9053 21.4493 81.5483 21.6535 81.1232 21.8577ZM77.9264 16.5309C78.3345 16.1736 78.8106 16.0204 79.3718 16.0204C79.9329 16.0204 80.409 16.1736 80.7151 16.4799C81.0211 16.7862 81.1742 17.2627 81.1742 17.9265H77.1273C77.2973 17.3648 77.5524 16.8883 77.9264 16.5309Z" fill="#1655F2"/>
<path d="M102.361 24.6656C102.361 22.7935 102.463 21.2448 102.667 20.1046C102.871 18.9644 103.177 18.1305 103.602 17.6199C104.01 17.1094 104.64 16.8371 105.371 16.8371C105.83 16.8371 106.255 16.8881 106.51 16.9902L107.071 13.8759C106.867 13.8248 106.663 13.7737 106.442 13.7227C106.238 13.6716 106.034 13.6716 105.762 13.6716C105.031 13.6716 104.317 13.8759 103.687 14.3524C103.058 14.7608 102.548 15.5437 102.14 16.5818L102.293 13.8929H99.0283L99.0793 17.671V24.6656H102.361Z" fill="#1655F2"/>
<path d="M109.349 24.2061C110.03 24.6146 110.846 24.8869 111.832 24.8869C113.328 24.8869 114.519 24.2572 115.301 23.0659L115.199 24.6656H118.463V13.8929H116.134L115.879 15.1863C115.624 14.7268 115.199 14.3524 114.689 14.0972C114.178 13.8419 113.549 13.6887 112.869 13.6887C111.832 13.6887 110.897 13.944 110.081 14.4716C109.247 14.9821 108.584 15.6629 108.108 16.5989C107.598 17.4838 107.377 18.573 107.377 19.7643C107.377 20.7514 107.53 21.6874 107.887 22.4532C108.159 23.168 108.669 23.7807 109.349 24.2061ZM111.271 17.3647C111.73 16.8031 112.308 16.4797 113.09 16.4797C113.719 16.4797 114.229 16.684 114.587 17.1094C114.944 17.5349 115.148 18.0965 115.148 18.8113C115.148 19.7983 114.893 20.5812 114.366 21.1428C113.855 21.7044 113.226 22.0278 112.495 22.0278C111.934 22.0278 111.407 21.8235 111.101 21.3981C110.744 20.9896 110.591 20.36 110.591 19.5771C110.591 18.7092 110.846 17.9774 111.271 17.3647Z" fill="#1655F2"/>
<path d="M121.473 20.8365C121.473 22.0278 121.83 23.0149 122.612 23.7977C123.394 24.5295 124.432 24.8869 125.775 24.8869C127.22 24.8869 128.36 24.5806 129.04 24.002L128.104 21.5173C127.798 21.7215 127.475 21.8746 127.22 21.9768C126.914 22.0789 126.659 22.0789 126.336 22.0789C125.826 22.0789 125.401 21.9257 125.146 21.6704C124.891 21.4151 124.738 20.9897 124.738 20.4791L124.789 16.5989H128.207V13.893H124.84V11.6636H121.626V13.893H119.807V16.5309H121.575L121.473 20.8365Z" fill="#1655F2"/>
<path d="M131.981 24.2062C132.866 24.6657 133.903 24.8869 135.093 24.8869C136.13 24.8869 137.014 24.7338 137.729 24.3764C138.409 24.07 138.97 23.5935 139.429 23.0319L137.61 21.1088C137.304 21.4152 136.929 21.6704 136.521 21.8406C136.113 21.9938 135.688 22.0959 135.331 22.0959C134.498 22.0959 133.835 21.9427 133.359 21.5854C132.9 21.228 132.576 20.7514 132.525 20.2409H139.361C139.514 18.9475 139.463 17.8073 139.208 16.8202C138.902 15.8331 138.375 15.0503 137.661 14.5397C136.946 14.0292 135.96 13.7058 134.753 13.7058C133.716 13.7058 132.781 13.9611 131.964 14.4376C131.131 14.8971 130.468 15.5778 129.992 16.4628C129.533 17.3478 129.261 18.3348 129.261 19.4751C129.261 20.6153 129.516 21.5513 129.992 22.3852C130.417 23.117 131.097 23.7297 131.981 24.2062ZM133.376 16.5309C133.784 16.1735 134.26 16.0203 134.821 16.0203C135.382 16.0203 135.858 16.1735 136.164 16.4798C136.47 16.7862 136.623 17.2627 136.623 17.9264H132.576C132.696 17.3648 132.968 16.8883 133.376 16.5309Z" fill="#1655F2"/>
<path d="M144.768 24.8698C145.278 24.8698 145.704 24.8187 146.163 24.6656C146.571 24.5124 146.945 24.3592 147.149 24.155L146.367 21.8235C146.163 21.9766 145.857 22.0277 145.534 22.0277C144.904 22.0277 144.598 21.7214 144.598 21.0406V8.95752H141.351V21.347C141.351 22.4872 141.657 23.3721 142.235 23.9848C142.847 24.5634 143.68 24.8698 144.768 24.8698Z" fill="#1655F2"/>
<path d="M59.3238 13.6716C58.4906 13.6716 57.7254 13.8759 57.0452 14.3013C56.3651 14.7098 55.804 15.3394 55.3449 16.1223L55.4979 13.7908H52.2842V24.5634H55.4979C55.4979 23.0148 55.5999 21.7214 55.753 20.6832C55.906 19.6451 56.11 18.8112 56.3821 18.2496C56.6372 17.688 56.9432 17.2115 57.3173 17.0072C57.6744 16.752 58.0485 16.6499 58.5076 16.6499C59.0177 16.6499 59.3918 16.8541 59.5958 17.2115C59.8509 17.6199 59.9529 18.1475 59.9019 18.9133L59.8509 24.6145H63.1156L63.1666 18.7091C63.1666 17.1094 62.8605 15.867 62.2314 14.9821C61.5513 14.1481 60.633 13.6716 59.3238 13.6716Z" fill="#1655F2"/>
<path d="M71.8043 21.9768C71.4982 22.0789 71.2432 22.0789 70.9201 22.0789C70.41 22.0789 69.9849 21.9257 69.7298 21.6704C69.4748 21.4151 69.3217 20.9897 69.3217 20.4791L69.3727 16.5989H72.7905V13.893H69.4238V11.6636H66.21V13.893H64.3906V16.5309H66.159L66.057 20.7855C66.057 21.9768 66.4141 22.9638 67.1963 23.7467C67.9784 24.4785 69.0157 24.8359 70.359 24.8359C71.8043 24.8359 72.9435 24.5295 73.6237 23.9509L72.6885 21.4662C72.3824 21.7045 72.0763 21.8576 71.8043 21.9768Z" fill="#1655F2"/>
<path fill-rule="evenodd" clip-rule="evenodd" d="M147.922 19.7883V14.3428H150.685V19.7883C150.685 21.0452 151.704 22.064 152.961 22.064C154.218 22.064 155.237 21.0452 155.237 19.7883V14.3428H158V19.7883C158 22.5713 155.744 24.8274 152.961 24.8274C150.178 24.8274 147.922 22.5713 147.922 19.7883Z" fill="#1655F2"/>
<path d="M149.557 10.1708C149.557 9.49749 150.102 8.95166 150.776 8.95166V8.95166C151.449 8.95166 151.995 9.49749 151.995 10.1708V13.6657H149.557V10.1708Z" fill="#FD641F"/>
<path d="M154.108 10.2255C154.108 9.55218 154.654 9.00635 155.328 9.00635V9.00635C156.001 9.00635 156.547 9.55218 156.547 10.2255V13.7204H154.108V10.2255Z" fill="#FD641F"/>
<path d="M155.703 27.9278L157.054 27.638L156.474 24.9361L155.123 25.2259L155.703 27.9278ZM151.218 27.477L150.928 26.1261L151.218 27.477ZM153.712 31.4337L152.33 31.4337L153.712 31.4337ZM152.33 22.9694L152.33 31.4337L155.094 31.4337L155.094 22.9694L152.33 22.9694ZM150.253 31.6481L150.112 30.9723L147.407 31.5366L147.548 32.2124L150.253 31.6481ZM151.507 28.828L155.703 27.9278L155.123 25.2259L150.928 26.1261L151.507 28.828ZM150.112 30.9723C149.908 29.9954 150.532 29.0373 151.507 28.828L150.928 26.1261C148.466 26.6542 146.893 29.0717 147.407 31.5366L150.112 30.9723ZM151.389 32.4779C150.854 32.5337 150.363 32.1752 150.253 31.6481L147.548 32.2124C147.947 34.1271 149.73 35.4291 151.676 35.2264L151.389 32.4779ZM152.33 31.4337C152.33 31.9714 151.924 32.4221 151.389 32.4779L151.676 35.2264C153.618 35.0239 155.094 33.3866 155.094 31.4337L152.33 31.4337Z" fill="#1655F2"/>
<path d="M87.4041 24.2061C88.0842 24.6146 88.9004 24.8869 89.8866 24.8869C91.383 24.8869 92.7358 24.2572 93.518 23.0659L93.4159 24.6656H96.5181V13.8929H94.1886L93.9335 15.1863C93.6785 14.7268 93.2534 14.3524 92.7433 14.0972C92.2332 13.8419 91.604 13.6887 90.9239 13.6887C89.8866 13.6887 88.9514 13.944 88.1352 14.4716C87.3021 14.9821 86.6389 15.6629 86.1628 16.5989C85.6527 17.4838 85.4316 18.573 85.4316 19.7643C85.4316 20.7514 85.5847 21.6874 85.9418 22.4532C86.2138 23.168 86.7239 23.7807 87.4041 24.2061ZM89.3255 17.3647C89.7846 16.8031 90.3627 16.4797 91.1449 16.4797C91.7741 16.4797 92.2842 16.684 92.6413 17.1094C92.9983 17.5349 93.2024 18.0965 93.2024 18.8113C93.2024 19.7983 92.9473 20.5812 92.4202 21.1428C91.9101 21.7044 91.2809 22.0278 90.5498 22.0278C89.9887 22.0278 89.4615 21.8235 89.1555 21.3981C88.7984 20.9896 88.6454 20.36 88.6454 19.5771C88.6454 18.7092 88.9004 17.9774 89.3255 17.3647Z" fill="#1655F2"/>
<path d="M97.1365 26.76L98.5593 26.1598L97.3589 23.3141L95.9361 23.9143L97.1365 26.76ZM93.4534 22.8676L93.4534 31.1485L96.5419 31.1485L96.5419 22.8676L93.4534 22.8676ZM91.3459 31.5431L91.1711 31.0925L88.2917 32.2098L88.4666 32.6603L91.3459 31.5431ZM92.108 28.8812L97.1365 26.76L95.9361 23.9143L90.9076 26.0355L92.108 28.8812ZM91.1711 31.0925C90.8338 30.2233 91.2489 29.2435 92.108 28.8812L90.9076 26.0355C88.5091 27.0472 87.3501 29.7829 88.2917 32.2098L91.1711 31.0925ZM92.4758 32.2333C91.9866 32.2843 91.5238 32.0016 91.3459 31.5431L88.4666 32.6603C89.1483 34.4173 90.9216 35.5006 92.796 35.3052L92.4758 32.2333ZM93.4534 31.1485C93.4534 31.7071 93.0314 32.1754 92.4758 32.2333L92.796 35.3052C94.9248 35.0833 96.5419 33.2889 96.5419 31.1485L93.4534 31.1485Z" fill="#1655F2"/>
<path d="M19.4969 36.9219C9.87276 36.9219 2 29.0423 2 19.4609C2 9.82849 9.85576 2 19.4969 2C29.0701 2 36.9428 9.87954 36.9428 19.4609C36.9428 29.0593 29.0701 36.9219 19.4969 36.9219Z" stroke="#FD641F" stroke-width="2.11319" stroke-miterlimit="10"/>
<path d="M16.6592 16.9927C17.9005 17.0438 18.3086 16.8906 18.3596 16.1078C18.4106 14.7123 18.4106 13.3678 18.3596 11.9553C18.3596 11.4447 17.9515 11.0703 17.4754 11.0703C17.1693 11.0703 16.9143 11.0703 16.5912 11.0703C16.0301 11.0703 15.656 11.4788 15.605 12.0574C15.605 12.7381 15.605 13.3508 15.605 14.0315C15.605 14.7123 15.605 15.376 15.605 16.0567C15.673 16.6183 16.0471 16.9417 16.6592 16.9927Z" fill="#FD641F"/>
<path d="M23.1375 16.9925C24.3277 16.9925 24.7868 16.7883 24.7868 16.0565C24.7868 14.661 24.7868 13.3165 24.7868 11.904C24.7868 11.3934 24.3788 11.0701 23.8516 11.019C23.5966 11.019 23.2905 11.019 23.0184 11.019C22.3893 11.019 22.0322 11.3764 22.0322 12.0061C22.0322 12.6358 22.0322 13.2995 22.0322 13.9292C22.0322 14.6099 22.0322 15.2737 22.0322 16.0054C22.1002 16.6181 22.4573 16.9925 23.1375 16.9925Z" fill="#FD641F"/>
<path d="M10.8501 19.1616C10.7993 18.6319 11.2158 18.1736 11.748 18.1736H28.1048C28.6487 18.1736 29.0721 18.6459 29.0128 19.1866L28.6852 22.1762C28.1948 26.6513 24.4145 30.0399 19.9126 30.0399V30.0399C15.3649 30.0399 11.5619 26.5841 11.1278 22.0572L10.8501 19.1616Z" fill="#FD641F"/>
<path d="M49.7906 13.8665H46.5396V24.5949H49.7906V13.8665Z" fill="#1655F2"/>
<circle cx="48.165" cy="10.4528" r="1.95063" fill="#1655F2"/>
</svg>
