<svg xmlns="http://www.w3.org/2000/svg" width="206.557" height="162.289" viewBox="0 0 206.557 162.289">
  <g id="_-e-Vector-Smart-Object-9" data-name="-e-Vector-Smart-Object-9" transform="translate(-3501.995 -1611)">
    <path id="Path_3" data-name="Path 3" d="M3531.921,1842.175a10.722,10.722,0,0,1-4.808-14.352l50.132-101.128a17.937,17.937,0,0,1,32.1-.1l4.131,8.038,21.64-43.4a18.453,18.453,0,0,1,33.05,0l62.427,125.236a18.524,18.524,0,0,1-16.525,26.812h-22.8a10.7,10.7,0,0,1,0-21.4h18.2l-57.785-115.923-26.067,52.249,30.266,58.9c0,.035.036.073.06.113a18,18,0,0,1-16.065,26.064h-50.653a18.525,18.525,0,0,1-16.531-26.812l28.972-58.123-8.284-16.111-47.14,95.1a10.654,10.654,0,0,1-14.313,4.819Zm61.927-20.288H3634.3l-20.53-39.949Z" transform="translate(-23.999 -70)" fill="#006aff"/>
  </g>
</svg>
