<?xml version="1.0" encoding="utf-8"?>
<!-- Generator: Adobe Illustrator 25.2.1, SVG Export Plug-In . SVG Version: 6.00 Build 0)  -->
<svg version="1.1" id="Layer_1" xmlns="http://www.w3.org/2000/svg" xmlns:xlink="http://www.w3.org/1999/xlink" x="0px" y="0px"
	 viewBox="0 0 167 25" style="enable-background:new 0 0 167 25;" xml:space="preserve">
<style type="text/css">
	.st0{fill:#2A3373;}
	.st1{fill:#F3703A;}
	.st2{fill:#212121;}
	.st3{fill:#FFFFFF;}
	.st4{fill:none;stroke:#FFFFFF;stroke-width:24;stroke-linecap:round;stroke-linejoin:round;}
</style>
<g>
	<g>
		<g>
			<path class="st2" d="M20.5,10.5h-0.1l-4.6,13.2h-3.1L8.1,10.5H8L6.9,23.9H1.8L3.6,1.4h5.7l5,13l5-13h5.5l2,22.5h-5.1L20.5,10.5z"
				/>
			<path class="st2" d="M41.9,5.9h-7.7v4.5h7.4v4.5h-7.4v4.5h7.7v4.5H29.1V1.4h12.9V5.9z"/>
			<path class="st2" d="M57.7,5.9h-7.7v4.5h7.4v4.5h-7.4v4.5h7.7v4.5H44.8V1.4h12.9V5.9z"/>
			<path class="st2" d="M59.8,1.4h15.8v4.5h-5.3v18h-5.1v-18h-5.3V1.4z"/>
		</g>
		<g>
			<path class="st2" d="M102.9,23.9h-5.1V1.4h5.1l8.9,14h0.1v-14h5.1v22.5h-5.1l-8.9-14h-0.1V23.9z"/>
			<path class="st2" d="M134.7,3.1l-2,4c0,0-2.2-1.5-4.5-1.5c-1.7,0-2.6,0.8-2.6,2c0,1.2,2.1,2.1,4.6,3.2c2.5,1,5.2,3.1,5.2,6
				c0,5.3-4,7.1-8.3,7.1c-5.2,0-8.3-2.9-8.3-2.9l2.5-4.2c0,0,2.9,2.5,5.4,2.5c1.1,0,3.2-0.1,3.2-2.2c0-1.6-2.4-2.3-5-3.6
				c-2.7-1.3-4.2-3.4-4.2-5.7c0-4.1,3.6-6.8,7.2-6.8C131.9,1,134.7,3.1,134.7,3.1z"/>
			<path class="st2" d="M143.3,23.9h-5.1V1.4h5.1v9h7.3v-9h5.1v22.5h-5.1v-9h-7.3V23.9z"/>
			<path class="st2" d="M164.5,23.9h-5.1V1.4h5.1V23.9z"/>
		</g>
	</g>
	<g>
		<polygon class="st1" points="85,14.6 82.9,19 87,19 		"/>
		<path class="st2" d="M85,1.4L74.3,23.9h21.4L85,1.4z M84.9,11.5l4.1,8.7h-8.2L84.9,11.5z"/>
	</g>
</g>
</svg>
