<svg version="1.1" id="Layer_1" xmlns:x="ns_extend;" xmlns:i="ns_ai;" xmlns:graph="ns_graphs;" xmlns="http://www.w3.org/2000/svg" xmlns:xlink="http://www.w3.org/1999/xlink" x="0px" y="0px" viewBox="0 0 43 40" style="enable-background:new 0 0 43 40;" xml:space="preserve">
 <style type="text/css">
  .st0{fill:#185C37;}
	.st1{fill:#21A366;}
	.st2{fill:#107C41;}
	.st3{opacity:0.1;enable-background:new    ;}
	.st4{opacity:0.2;enable-background:new    ;}
	.st5{fill:url(#SVGID_1_);}
	.st6{fill:#FFFFFF;}
	.st7{fill:#33C481;}
 </style>
 <metadata>
  <sfw xmlns="ns_sfw;">
   <slices>
   </slices>
   <sliceSourceBounds bottomLeftOrigin="true" height="40" width="43" x="2" y="4">
   </sliceSourceBounds>
  </sfw>
 </metadata>
 <g>
  <path class="st0" d="M27,19l-17-3v22.2c0,1,0.8,1.8,1.8,1.8l0,0h29.3c1,0,1.8-0.8,1.8-1.8l0,0V30L27,19z">
  </path>
  <path class="st1" d="M27,0H11.8c-1,0-1.8,0.8-1.8,1.8c0,0,0,0,0,0V10l17,10l9,3l7-3V10L27,0z">
  </path>
  <path class="st2" d="M10,10h17v10H10V10z">
  </path>
  <path class="st3" d="M22.2,8H10v25h12.2c1,0,1.8-0.8,1.8-1.8V9.8C24,8.8,23.2,8,22.2,8z">
  </path>
  <path class="st4" d="M21.2,9H10v25h11.2c1,0,1.8-0.8,1.8-1.8V10.8C23,9.8,22.2,9,21.2,9z">
  </path>
  <path class="st4" d="M21.2,9H10v23h11.2c1,0,1.8-0.8,1.8-1.8V10.8C23,9.8,22.2,9,21.2,9z">
  </path>
  <path class="st4" d="M20.2,9H10v23h10.2c1,0,1.8-0.8,1.8-1.8V10.8C22,9.8,21.2,9,20.2,9z">
  </path>
  <linearGradient id="SVGID_1_" gradientUnits="userSpaceOnUse" x1="3.8218" y1="34.4323" x2="18.1782" y2="9.5677" gradientTransform="matrix(1 0 0 -1 0 42)">
   <stop offset="0" style="stop-color:#18884F">
   </stop>
   <stop offset="0.5" style="stop-color:#117E43">
   </stop>
   <stop offset="1" style="stop-color:#0B6631">
   </stop>
  </linearGradient>
  <path class="st5" d="M1.8,9h18.3c1,0,1.8,0.8,1.8,1.8v18.3c0,1-0.8,1.8-1.8,1.8H1.8c-1,0-1.8-0.8-1.8-1.8V10.8C0,9.8,0.8,9,1.8,9z">
  </path>
  <path class="st6" d="M5.7,26l3.9-6L6,14h2.8l1.9,3.8c0.2,0.4,0.3,0.6,0.4,0.8h0c0.1-0.3,0.3-0.6,0.4-0.8l2.1-3.8h2.6l-3.6,5.9
		l3.7,6h-2.8l-2.2-4.2c-0.1-0.2-0.2-0.4-0.3-0.6h0c-0.1,0.2-0.2,0.4-0.3,0.5L8.5,26H5.7z">
  </path>
  <path class="st7" d="M41.2,0H27v10h16V1.8C43,0.8,42.2,0,41.2,0L41.2,0z">
  </path>
  <path class="st2" d="M27,20h16v10H27V20z">
  </path>
 </g>
</svg>