<svg xmlns="http://www.w3.org/2000/svg" width="840" height="408" viewBox="0 0 840 408">
<g>
<path d="M 840.00 0.00 L 840.00 408.00 L 839.88 333.25 C839.82,292.14 839.59,259.40 839.36,260.50 C839.14,261.60 838.46,265.20 837.85,268.50 C835.21,282.68 825.77,295.44 813.82,300.96 C801.73,306.54 796.02,307.21 756.00,307.73 C717.66,308.24 706.73,307.60 689.50,303.87 C660.75,297.64 648.96,281.42 649.02,248.16 C649.05,228.86 653.54,215.53 663.53,205.05 C673.73,194.36 688.89,188.81 712.98,186.94 C719.32,186.45 742.64,186.04 764.81,186.02 L 805.12 186.00 L 804.49 176.25 C803.02,153.42 801.51,148.13 794.91,142.58 C787.72,136.53 771.32,135.00 713.48,135.00 C673.43,135.00 667.16,134.80 665.22,133.44 C663.10,131.96 663.00,131.24 663.02,117.69 C663.02,109.89 663.46,102.82 663.98,102.00 C664.81,100.70 672.03,100.50 719.22,100.54 C758.15,100.56 775.85,100.93 781.82,101.85 C817.60,107.35 835.89,124.76 838.93,156.23 C839.40,161.08 839.78,130.51 839.86,82.25 L 840.00 0.00 ZM 383.50 307.52 C376.33,308.69 363.08,308.99 318.36,309.00 C264.57,309.00 262.12,308.92 259.86,307.09 C257.61,305.26 257.50,304.59 257.42,292.08 C257.35,282.65 257.70,278.44 258.67,277.07 C259.95,275.24 262.32,275.14 316.25,274.71 C383.97,274.18 392.48,273.26 399.77,265.73 C404.43,260.92 406.00,256.21 406.00,247.10 C406.00,234.06 402.92,229.36 392.04,225.82 C386.04,223.87 382.42,223.63 348.00,222.98 C307.26,222.21 302.89,221.70 288.26,216.02 C272.44,209.87 262.11,200.86 256.05,187.92 C252.27,179.84 251.00,173.19 251.01,161.61 C251.07,126.14 273.91,104.46 316.00,99.93 C330.42,98.38 422.52,99.12 424.20,100.80 C426.05,102.65 426.05,131.35 424.20,133.20 C423.18,134.22 410.77,134.61 365.70,135.01 L 308.50 135.52 L 301.66 138.17 C293.92,141.17 290.68,143.79 287.81,149.39 C286.14,152.65 285.88,154.81 286.16,162.89 C286.58,174.72 288.10,177.31 297.20,181.74 C306.07,186.05 311.88,186.99 329.80,187.05 C363.84,187.16 389.99,188.64 399.00,190.95 C412.29,194.37 420.77,198.90 427.54,206.22 C437.17,216.62 441.00,227.71 441.00,245.23 C441.00,260.00 437.53,273.03 431.13,282.30 C421.27,296.57 408.25,303.46 383.50,307.52 ZM 0.00 0.00 L 0.12 53.25 C0.18,82.54 0.45,105.60 0.72,104.50 C1.77,100.22 2.64,100.00 18.15,100.00 L 33.05 100.00 L 34.02 102.57 C34.56,103.98 35.00,108.69 35.00,113.05 L 35.00 120.97 L 44.56 114.54 C49.82,111.00 56.67,107.14 59.80,105.98 C72.93,101.06 75.08,100.81 108.42,100.26 C138.47,99.77 140.42,99.85 141.67,101.56 C142.62,102.86 143.00,107.17 143.00,116.58 C143.00,118.09 143.02,119.46 143.04,120.72 C143.11,126.04 143.16,129.27 141.61,131.26 C138.86,134.82 131.06,134.46 109.40,135.04 C76.84,135.91 72.63,136.59 62.00,142.76 C52.15,148.47 42.98,159.07 38.15,170.33 L 35.50 176.50 L 35.00 241.33 C34.52,304.05 34.44,306.21 32.56,307.58 C31.12,308.63 27.28,309.00 17.76,309.00 C5.45,309.00 4.81,308.90 2.45,306.55 L 0.00 304.09 ZM 559.35 306.13 C557.43,307.73 536.76,308.50 533.47,307.09 C532.94,306.87 532.47,306.70 532.06,306.45 C528.92,304.50 528.99,297.35 528.76,218.40 L 528.50 133.50 L 499.50 132.95 C483.55,132.64 470.41,132.30 470.30,132.20 C468.04,130.02 467.15,106.97 469.14,102.59 C470.00,100.70 471.29,99.93 474.39,99.49 C476.65,99.16 509.92,99.03 548.33,99.20 C616.12,99.49 618.20,99.56 619.58,101.44 C620.63,102.88 621.00,106.71 621.00,116.19 C621.00,117.50 621.01,118.71 621.03,119.83 C621.09,125.11 621.12,128.29 619.58,130.20 C617.26,133.08 611.33,133.06 596.45,133.01 C594.37,133.01 592.11,133.00 589.66,133.00 L 562.33 133.00 L 561.66 173.66 C561.30,196.03 561.00,234.67 561.00,259.54 C561.00,300.34 560.84,304.89 559.35,306.13 ZM 214.78 307.44 C213.05,308.65 209.73,309.00 199.89,309.00 C188.91,309.00 186.91,308.75 184.86,307.09 L 182.50 305.18 L 182.50 204.24 C182.50,120.16 182.73,103.03 183.87,101.65 C185.04,100.25 187.50,100.00 200.09,100.00 C213.74,100.00 215.01,100.16 215.96,101.93 C216.66,103.23 217.00,137.16 217.00,204.88 L 217.00 305.89 ZM 705.50 271.55 C710.09,272.59 720.64,272.86 750.50,272.70 C787.83,272.51 789.69,272.41 794.00,270.40 C803.49,265.96 804.84,262.27 805.00,240.43 C805.07,231.12 805.10,222.94 805.06,222.25 C805.01,221.27 796.17,221.01 764.25,221.04 C716.15,221.08 706.46,221.73 698.31,225.46 C687.20,230.54 684.68,234.62 684.63,247.50 C684.60,257.33 685.67,260.46 690.66,265.19 C693.93,268.28 697.11,269.65 705.50,271.55 Z" fill="rgb(27,42,62)"/>
<path d="M 0.51 100.62 C0.74,102.78 1.06,102.90 1.51,102.28 C1.16,102.86 0.95,103.59 0.72,104.50 C0.65,104.79 0.58,103.39 0.51,100.62 ZM 1.86 101.81 C3.21,100.08 4.73,100.00 18.08,100.00 C6.89,100.00 3.36,100.12 1.86,101.81 Z" fill="rgb(95,103,115)"/>
<path d="M 0.00 356.05 L 0.00 304.09 L 2.45 306.55 C4.81,308.90 5.45,309.00 17.76,309.00 C27.28,309.00 31.12,308.63 32.56,307.58 C34.44,306.21 34.52,304.05 35.00,241.33 L 35.50 176.50 L 38.15 170.33 C42.98,159.07 52.15,148.47 62.00,142.76 C72.63,136.59 76.84,135.91 109.40,135.04 C146.10,134.06 143.00,135.76 143.00,116.58 C143.00,107.17 142.62,102.86 141.67,101.56 C140.42,99.85 138.47,99.77 108.42,100.26 C75.08,100.81 72.93,101.06 59.80,105.98 C56.67,107.14 49.82,111.00 44.56,114.54 L 35.00 120.97 L 35.00 113.05 C35.00,108.69 34.56,103.98 34.02,102.57 L 33.05 100.00 L 18.08 100.00 C3.75,100.00 3.05,100.09 1.56,102.22 C0.14,104.25 -0.00,99.77 -0.00,52.22 L 0.00 0.00 L 420.00 0.00 L 840.00 0.00 L 839.86 82.25 C839.78,130.51 839.40,161.08 838.93,156.23 C835.89,124.76 817.60,107.35 781.82,101.85 C775.85,100.93 758.15,100.56 719.22,100.54 C672.03,100.50 664.81,100.70 663.98,102.00 C663.46,102.82 663.02,109.89 663.02,117.69 C663.00,131.24 663.10,131.96 665.22,133.44 C667.16,134.80 673.43,135.00 713.48,135.00 C771.32,135.00 787.72,136.53 794.91,142.58 C801.51,148.13 803.02,153.42 804.49,176.25 L 805.12 186.00 L 764.81 186.02 C742.64,186.04 719.32,186.45 712.98,186.94 C688.89,188.81 673.73,194.36 663.53,205.05 C653.54,215.53 649.05,228.86 649.02,248.16 C648.96,281.42 660.75,297.64 689.50,303.87 C706.73,307.60 717.66,308.24 756.00,307.73 C796.02,307.21 801.73,306.54 813.82,300.96 C825.77,295.44 835.21,282.68 837.85,268.50 C838.46,265.20 839.14,261.60 839.36,260.50 C839.59,259.40 839.82,292.14 839.88,333.25 L 840.00 408.00 L 420.00 408.00 L 0.00 408.00 L 0.00 356.05 ZM 214.78 307.44 L 217.00 305.89 L 217.00 204.88 C217.00,137.16 216.66,103.23 215.96,101.93 C215.01,100.16 213.74,100.00 200.09,100.00 C187.50,100.00 185.04,100.25 183.87,101.65 C182.73,103.03 182.50,120.16 182.50,204.24 L 182.50 305.18 L 184.86 307.09 C186.91,308.75 188.91,309.00 199.89,309.00 C209.73,309.00 213.05,308.65 214.78,307.44 ZM 383.50 307.52 C408.25,303.46 421.27,296.57 431.13,282.30 C437.53,273.03 441.00,260.00 441.00,245.23 C441.00,227.71 437.17,216.62 427.54,206.22 C420.77,198.90 412.29,194.37 399.00,190.95 C389.99,188.64 363.84,187.16 329.80,187.05 C311.88,186.99 306.07,186.05 297.20,181.74 C288.10,177.31 286.58,174.72 286.16,162.89 C285.88,154.81 286.14,152.65 287.81,149.39 C290.68,143.79 293.92,141.17 301.66,138.17 L 308.50 135.52 L 365.70 135.01 C410.77,134.61 423.18,134.22 424.20,133.20 C426.05,131.35 426.05,102.65 424.20,100.80 C422.52,99.12 330.42,98.38 316.00,99.93 C273.91,104.46 251.07,126.14 251.01,161.61 C251.00,173.19 252.27,179.84 256.05,187.92 C262.11,200.86 272.44,209.87 288.26,216.02 C302.89,221.70 307.26,222.21 348.00,222.98 C382.42,223.63 386.04,223.87 392.04,225.82 C402.92,229.36 406.00,234.06 406.00,247.10 C406.00,256.21 404.43,260.92 399.77,265.73 C392.48,273.26 383.97,274.18 316.25,274.71 C262.32,275.14 259.95,275.24 258.67,277.07 C257.70,278.44 257.35,282.65 257.42,292.08 C257.50,304.59 257.61,305.26 259.86,307.09 C262.12,308.92 264.57,309.00 318.36,309.00 C363.08,308.99 376.33,308.69 383.50,307.52 ZM 559.35 306.13 C560.84,304.89 561.00,300.34 561.00,259.54 C561.00,234.67 561.30,196.03 561.66,173.66 L 562.33 133.00 L 589.66 133.00 C623.62,133.00 621.00,134.41 621.00,116.19 C621.00,106.71 620.63,102.88 619.58,101.44 C618.20,99.56 616.12,99.49 548.33,99.20 C509.92,99.03 476.65,99.16 474.39,99.49 C471.29,99.93 470.00,100.70 469.14,102.59 C467.15,106.97 468.04,130.02 470.30,132.20 C470.41,132.30 483.55,132.64 499.50,132.95 L 528.50 133.50 L 528.76 218.40 C529.02,307.68 528.89,305.14 533.47,307.09 C536.76,308.50 557.43,307.73 559.35,306.13 ZM 705.50 271.55 C697.11,269.65 693.93,268.28 690.66,265.19 C685.67,260.46 684.60,257.33 684.63,247.50 C684.68,234.62 687.20,230.54 698.31,225.46 C706.46,221.73 716.15,221.08 764.25,221.04 C796.17,221.01 805.01,221.27 805.06,222.25 C805.10,222.94 805.07,231.12 805.00,240.43 C804.84,262.27 803.49,265.96 794.00,270.40 C789.69,272.41 787.83,272.51 750.50,272.70 C720.64,272.86 710.09,272.59 705.50,271.55 Z" fill="rgb(254,254,254)"/>
</g>
</svg>