<svg xmlns="http://www.w3.org/2000/svg" width="1200" height="552" viewBox="0 0 1200 552">
<g>
<path d="M 744.56 363.13 C743.50,364.16 741.70,364.93 740.56,364.85 C731.19,364.17 722.40,362.17 718.40,359.81 C716.53,358.70 715.00,357.61 715.00,357.38 C715.00,355.42 731.27,326.15 735.16,321.12 C737.80,317.70 737.45,316.34 733.75,315.57 C730.41,314.88 701.13,313.40 669.84,312.33 C650.34,311.67 572.70,313.52 558.50,314.98 C553.55,315.48 544.10,316.39 537.50,316.98 C524.48,318.16 511.18,319.46 495.50,321.11 C490.00,321.69 474.48,323.76 461.00,325.72 C447.52,327.67 433.80,329.63 430.50,330.08 C424.66,330.86 403.60,334.08 391.50,336.05 C388.20,336.58 382.58,337.47 379.00,338.01 C370.47,339.32 364.05,340.42 349.50,343.07 C342.90,344.28 333.79,345.47 329.25,345.73 C321.45,346.18 320.53,346.00 312.17,342.46 C307.31,340.40 301.80,337.43 299.92,335.85 L 296.50 332.98 L 298.75 331.08 C303.77,326.84 373.20,312.60 423.50,305.49 C481.82,297.24 497.87,295.64 549.00,292.95 C621.82,289.11 671.69,289.28 731.88,293.60 C743.65,294.44 753.63,294.76 754.06,294.32 C754.50,293.87 758.72,288.58 763.44,282.56 C768.82,275.71 771.68,271.28 771.09,270.69 C770.49,270.09 769.16,270.51 767.52,271.81 C766.06,272.95 762.58,274.16 759.68,274.52 C752.93,275.36 747.26,273.16 742.65,267.91 C740.75,265.74 738.31,264.00 737.17,264.00 C736.04,264.00 731.91,265.61 728.00,267.57 C717.94,272.62 711.16,274.18 699.00,274.27 C689.19,274.34 688.07,274.14 682.00,271.21 C672.26,266.50 664.30,259.72 662.86,254.92 C660.77,247.95 660.64,247.97 642.16,257.27 C617.76,269.56 609.74,270.54 594.77,263.06 C590.32,260.84 589.11,259.60 586.88,254.95 C582.65,246.11 582.45,246.07 572.48,251.96 C549.65,265.44 527.99,273.93 516.30,273.98 C508.32,274.01 498.27,269.99 493.97,265.05 C492.03,262.82 489.74,261.00 488.89,261.00 C488.03,261.00 485.34,262.50 482.91,264.32 C480.49,266.15 476.55,268.49 474.17,269.51 C470.36,271.15 469.05,271.24 463.30,270.26 C449.45,267.89 436.26,258.44 430.32,246.64 C425.58,237.23 424.77,229.17 427.91,222.68 C430.03,218.30 446.85,201.11 459.01,190.89 C474.19,178.13 499.57,163.36 510.53,160.91 C517.32,159.39 526.78,160.84 534.04,164.52 C544.78,169.96 557.14,185.08 558.55,194.49 C559.92,203.65 558.45,206.00 539.96,224.11 C529.53,234.34 523.00,241.48 523.00,242.67 C523.00,246.53 525.37,248.36 529.48,247.70 C535.21,246.77 542.74,241.75 558.86,228.15 C576.66,213.13 580.42,209.56 634.05,156.81 C657.45,133.79 679.04,113.31 682.01,111.31 C686.84,108.06 688.09,107.67 693.51,107.75 C699.96,107.85 710.34,110.84 715.75,114.17 C719.90,116.71 720.09,120.27 716.25,123.48 C692.65,143.24 674.72,159.60 657.46,177.13 C645.89,188.88 634.64,200.75 632.47,203.50 C630.30,206.25 625.34,212.32 621.44,217.00 C608.38,232.67 606.74,236.53 611.31,240.83 C617.07,246.23 623.95,242.47 649.70,219.85 C657.43,213.06 673.84,197.82 686.16,186.00 C719.53,153.96 732.02,142.54 747.50,129.92 L 761.50 118.50 L 770.22 118.58 C778.19,118.66 779.58,118.98 786.53,122.42 C797.85,128.01 797.79,128.34 783.50,139.07 C770.75,148.63 737.56,176.48 734.99,179.75 C733.81,181.26 730.72,184.75 728.13,187.50 C720.11,196.03 696.67,223.21 692.35,229.00 C684.50,239.53 684.12,242.36 689.82,248.05 C696.35,254.59 701.57,254.54 712.01,247.83 C718.92,243.39 740.89,221.97 757.98,203.00 C763.68,196.68 771.89,187.79 776.21,183.25 L 784.08 175.00 L 790.10 175.00 C796.72,175.00 808.96,177.46 813.25,179.65 C818.07,182.11 816.84,184.40 803.25,198.39 C782.59,219.66 772.10,231.67 766.14,240.91 C761.45,248.16 761.09,250.25 764.15,252.39 C767.94,255.05 776.13,252.20 792.27,242.60 C805.22,234.91 813.93,228.05 835.90,208.25 L 855.04 191.00 L 860.27 191.02 C866.18,191.03 879.66,194.18 884.97,196.77 C892.04,200.23 890.78,201.89 860.97,228.36 C847.07,240.69 811.33,276.85 800.24,289.78 C793.52,297.62 792.74,299.69 796.25,300.45 C797.49,300.72 807.95,302.78 819.50,305.04 C845.21,310.07 852.14,311.79 870.10,317.60 C887.14,323.11 897.53,327.27 900.09,329.58 C902.77,332.01 902.44,334.60 898.58,341.50 C893.92,349.82 892.27,350.17 878.93,345.64 C861.37,339.67 837.36,333.40 815.00,328.94 C811.97,328.33 807.70,327.45 805.50,326.97 C803.30,326.49 798.35,325.59 794.50,324.96 C790.65,324.33 785.61,323.41 783.31,322.91 C773.56,320.79 773.16,321.14 757.00,345.46 C751.22,354.15 745.63,362.11 744.56,363.13 ZM 372.50 257.41 L 368.50 265.50 L 352.00 265.69 C330.62,265.95 328.18,264.85 331.85,256.66 C335.87,247.69 357.03,214.38 372.29,193.00 C381.12,180.62 396.48,159.77 406.42,146.66 C416.36,133.55 425.15,121.85 425.95,120.66 C426.75,119.47 429.33,116.18 431.70,113.34 C434.06,110.50 436.00,107.69 436.00,107.09 C436.00,105.69 412.89,105.62 402.79,106.99 C398.78,107.54 389.65,108.69 382.50,109.55 C370.11,111.05 359.03,113.01 352.50,114.86 C350.29,115.48 348.57,115.24 346.00,113.95 C342.36,112.12 326.00,96.00 326.00,94.24 C326.00,92.33 328.56,91.20 336.50,89.62 C352.46,86.44 380.77,82.12 392.50,81.08 C411.20,79.42 461.57,77.00 477.30,77.00 C501.54,77.01 549.72,80.59 562.00,83.29 C567.08,84.41 567.67,84.84 569.78,89.00 C571.63,92.65 572.01,94.83 571.78,100.50 L 571.50 107.50 L 558.00 107.38 C550.58,107.32 536.62,106.71 527.00,106.03 C517.38,105.36 502.52,104.58 494.00,104.31 L 478.50 103.83 L 462.87 124.16 C435.88,159.28 420.33,180.52 407.71,199.51 C392.99,221.66 377.95,246.39 372.50,257.41 ZM 706.00 455.00 L 706.00 476.00 L 697.00 476.00 L 697.00 419.00 L 712.58 419.00 L 716.90 435.20 C721.86,453.83 722.47,455.68 723.22,454.42 C723.52,453.91 725.36,447.65 727.32,440.50 C729.27,433.35 731.46,425.70 732.18,423.50 L 733.50 419.50 L 741.27 419.21 L 749.03 418.92 L 748.77 447.21 L 748.50 475.50 L 744.38 475.80 L 744.36 475.80 C742.89,475.91 741.83,475.99 741.05,475.55 C739.03,474.40 739.03,469.68 739.01,452.58 C739.01,442.18 738.80,433.87 738.56,434.11 C738.18,434.49 731.64,457.86 728.01,471.80 C726.90,476.09 726.88,476.11 722.70,475.80 L 718.50 475.50 L 713.00 454.76 C709.97,443.35 707.16,434.01 706.75,434.01 C706.34,434.00 706.00,443.45 706.00,455.00 ZM 239.46 473.75 C239.03,475.71 238.33,476.00 234.04,476.00 C231.33,476.00 228.89,475.63 228.61,475.18 C228.13,474.40 223.55,454.07 218.99,432.50 C217.83,427.00 216.65,421.71 216.37,420.75 C215.93,419.24 216.59,419.00 221.19,419.00 L 226.52 419.00 L 229.88 435.25 C231.73,444.19 233.58,452.40 233.99,453.50 C234.75,455.57 235.00,454.66 240.29,430.00 L 242.55 419.50 L 253.39 419.50 L 255.59 429.00 C256.80,434.23 258.56,441.99 259.49,446.25 C260.43,450.51 261.51,454.00 261.89,454.00 C262.27,454.00 264.09,446.69 265.94,437.75 C267.79,428.81 269.51,420.94 269.76,420.25 C270.27,418.85 280.00,418.46 280.00,419.84 C280.00,420.76 268.28,471.35 267.38,474.30 C266.93,475.78 265.93,476.05 261.68,475.80 L 256.53 475.50 L 252.59 457.25 C250.42,447.21 248.33,439.00 247.94,439.00 C247.54,439.00 246.91,440.69 246.53,442.75 C246.15,444.81 244.51,452.12 242.90,459.00 C241.28,465.88 239.73,472.51 239.46,473.75 ZM 187.29 473.26 C185.53,474.29 181.70,475.34 178.79,475.58 C169.07,476.41 161.12,471.51 159.09,463.46 C157.68,457.85 157.69,434.69 159.10,429.50 C161.29,421.46 166.92,418.00 177.82,418.00 C183.31,418.00 185.39,418.46 188.10,420.27 C194.21,424.35 195.00,427.34 194.98,446.50 C194.97,462.23 194.80,463.79 192.73,467.44 C191.50,469.61 189.06,472.23 187.29,473.26 ZM 483.29 473.26 C476.71,477.10 465.21,476.16 459.80,471.35 C455.71,467.71 455.00,463.98 455.00,446.28 C455.00,432.28 455.29,428.93 456.75,426.07 C459.68,420.33 463.08,418.56 471.95,418.15 C486.93,417.47 491.11,422.22 491.82,440.67 C492.62,461.53 490.68,468.95 483.29,473.26 ZM 369.07 453.00 L 368.50 475.50 L 363.25 475.80 L 358.00 476.10 L 358.00 418.73 L 370.25 419.21 C387.01,419.86 392.09,422.77 393.56,432.56 C394.59,439.41 393.30,443.98 389.28,447.77 C387.98,449.00 387.07,449.64 386.68,450.52 C385.95,452.14 387.01,454.56 390.67,462.92 C391.16,464.05 391.71,465.30 392.30,466.66 C394.25,471.15 395.58,475.09 395.26,475.41 C394.93,475.73 392.50,476.00 389.85,476.00 C384.39,476.00 384.31,475.90 378.03,460.75 C375.07,453.63 374.58,453.00 371.94,453.00 ZM 457.22 247.44 C458.44,248.30 460.00,249.00 460.68,249.00 C464.57,249.00 474.95,243.57 489.37,234.00 C502.50,225.29 507.22,221.49 513.37,214.74 C523.29,203.84 529.00,196.14 529.00,193.65 C529.00,191.09 526.21,188.00 523.89,188.00 C518.21,188.00 496.95,202.78 473.28,223.18 C460.11,234.54 460.04,234.61 457.25,238.36 C454.40,242.20 454.39,245.46 457.22,247.44 ZM 782.00 453.27 L 782.00 476.00 L 777.17 476.00 C774.51,476.00 772.03,475.70 771.67,475.33 C771.30,474.97 771.00,462.09 771.00,446.71 L 771.00 418.76 L 783.25 419.17 C801.25,419.78 806.90,423.25 807.73,434.21 C808.04,438.33 807.62,440.50 805.82,444.00 C802.90,449.66 798.18,452.11 788.87,452.78 ZM 110.54 468.46 L 109.83 476.00 L 100.00 476.00 L 100.00 418.79 L 111.75 419.16 C125.23,419.59 129.98,421.26 133.74,426.90 C136.89,431.64 136.90,440.37 133.75,445.05 C130.32,450.14 125.86,452.24 117.40,452.79 L 110.02 453.26 L 110.63 457.09 C110.97,459.20 110.92,464.31 110.54,468.46 ZM 631.81 473.26 C626.25,476.08 618.35,476.48 613.46,474.18 C607.42,471.35 600.45,462.09 602.71,459.92 C603.15,459.50 605.57,458.86 608.09,458.49 C612.55,457.84 612.72,457.91 614.00,461.00 C615.76,465.25 620.94,467.81 624.49,466.18 C627.94,464.61 629.40,460.60 627.76,457.20 C626.45,454.46 624.21,452.81 613.97,447.03 C605.95,442.50 602.47,437.05 603.44,430.55 C604.73,421.98 610.37,418.00 621.22,418.00 C629.40,418.00 633.77,420.19 636.86,425.83 C638.19,428.25 638.85,430.53 638.37,430.99 C636.87,432.41 629.53,434.05 629.18,433.04 C628.00,429.53 624.62,427.00 621.13,427.00 C616.73,427.00 615.00,428.42 615.00,432.05 C615.00,435.21 616.58,436.70 624.50,441.01 C627.80,442.81 631.79,445.19 633.37,446.29 C636.69,448.62 639.95,455.15 639.98,459.54 C640.01,464.40 636.01,471.13 631.81,473.26 ZM 333.80 470.75 L 333.50 475.50 L 318.23 475.78 C306.47,475.99 302.84,475.76 302.46,474.76 C302.19,474.05 302.09,461.33 302.23,446.49 L 302.50 419.50 L 317.81 419.22 L 333.11 418.95 L 332.81 423.72 L 332.50 428.50 L 322.70 428.79 L 312.91 429.07 L 313.20 435.29 L 313.50 441.50 L 320.75 441.79 L 328.00 442.09 L 328.00 450.91 L 320.75 451.21 L 313.50 451.50 L 313.21 458.75 L 312.91 466.00 L 334.11 466.00 ZM 937.19 473.32 C930.72,477.11 919.11,476.13 913.83,471.35 C909.15,467.11 908.59,464.47 908.54,446.50 C908.50,431.11 908.69,429.17 910.55,426.00 C914.10,419.97 918.15,418.00 927.00,418.00 C933.34,418.00 935.30,418.40 938.05,420.25 C942.26,423.09 944.75,427.37 945.17,432.50 L 945.50 436.50 L 940.37 436.80 L 935.24 437.10 L 934.58 433.58 C933.69,428.82 931.59,427.00 927.00,427.00 C924.00,427.00 922.67,427.60 921.00,429.72 C919.00,432.27 918.88,433.38 919.18,447.12 C919.55,464.08 920.35,466.00 927.08,466.00 C931.74,466.00 933.62,464.23 934.50,459.02 L 935.18 455.00 L 945.25 455.00 L 944.79 460.54 C944.28,466.72 942.04,470.47 937.19,473.32 ZM 1083.00 453.53 L 1083.00 476.00 L 1078.17 476.00 C1075.51,476.00 1073.03,475.70 1072.67,475.33 C1072.30,474.97 1072.00,469.62 1072.00,463.44 L 1072.00 452.22 L 1064.50 436.60 C1060.38,428.01 1057.00,420.51 1057.00,419.94 C1057.00,419.31 1059.19,419.02 1062.57,419.20 L 1068.15 419.50 L 1072.79 430.25 C1075.34,436.16 1077.67,440.99 1077.96,440.98 C1078.26,440.97 1080.53,436.14 1083.00,430.23 L 1087.50 419.50 L 1093.25 419.20 C1096.41,419.04 1099.00,419.20 1099.00,419.57 C1099.00,419.93 1095.40,427.72 1091.00,436.88 ZM 526.78 463.25 L 526.50 475.50 L 521.25 475.80 L 516.00 476.10 L 516.00 419.00 L 545.11 419.00 L 544.80 423.75 L 544.50 428.50 L 526.91 429.08 L 527.50 441.50 L 541.00 442.09 L 541.00 451.00 L 527.06 451.00 ZM 1026.00 429.00 L 1026.00 476.00 L 1021.17 476.00 C1018.51,476.00 1016.03,475.70 1015.67,475.33 C1015.30,474.97 1015.00,464.41 1015.00,451.88 L 1015.00 429.10 L 1008.75 428.80 L 1002.50 428.50 L 1002.50 419.50 L 1039.00 418.95 L 1039.00 429.00 ZM 855.80 470.75 L 855.50 475.50 L 841.25 475.78 L 827.00 476.05 L 827.00 419.00 L 838.00 419.00 L 838.00 466.00 L 856.11 466.00 ZM 674.03 419.00 L 673.50 475.50 L 668.25 475.80 L 663.00 476.10 L 663.00 419.00 ZM 981.00 418.90 L 981.00 476.00 L 975.97 476.00 C972.83,476.00 970.75,475.52 970.45,474.74 C970.18,474.04 970.09,461.33 970.23,446.49 L 970.50 419.50 L 975.75 419.20 ZM 887.03 419.00 L 886.50 475.50 L 881.96 475.80 C879.47,475.96 877.10,475.77 876.71,475.38 C876.32,474.99 876.00,462.14 876.00,446.83 L 876.00 419.00 ZM 467.40 463.89 C469.34,466.03 475.21,466.79 477.69,465.21 C480.12,463.67 481.00,458.52 481.00,445.87 C481.00,433.38 480.28,429.56 477.60,427.77 C475.52,426.38 470.22,427.00 467.86,428.91 C465.56,430.77 465.50,431.24 465.50,446.30 C465.50,460.13 465.70,462.01 467.40,463.89 ZM 171.44 464.58 C172.51,465.36 175.07,466.00 177.13,466.00 C183.32,466.00 184.00,464.08 184.00,446.50 C184.00,428.92 183.32,427.00 177.13,427.00 C169.77,427.00 169.50,427.70 169.50,446.50 C169.50,461.84 169.65,463.27 171.44,464.58 ZM 782.00 428.00 L 782.00 444.00 L 787.05 444.00 C791.13,444.00 792.58,443.51 794.67,441.42 C796.86,439.23 797.16,438.23 796.69,434.71 C795.98,429.46 793.95,428.00 787.31,428.00 ZM 110.48 442.75 C110.76,443.52 112.85,444.00 115.97,444.00 C122.40,444.00 125.00,441.70 125.00,436.00 C125.00,430.31 122.40,428.00 116.00,428.00 C112.72,428.00 110.97,428.43 110.90,429.25 C110.20,438.30 110.10,441.70 110.48,442.75 ZM 369.75 443.43 C370.16,443.85 372.51,443.97 374.96,443.69 C380.30,443.10 383.00,440.31 383.00,435.39 C383.00,430.36 380.13,428.00 374.00,428.00 L 369.00 428.00 L 369.00 435.33 C369.00,439.37 369.34,443.01 369.75,443.43 Z" fill="rgb(36,31,31)"/>
<path d="M 565.68 84.29 C566.65,84.60 567.33,84.90 567.69,85.19 C568.35,85.72 570.04,89.18 571.46,92.90 C573.54,98.33 573.88,100.42 573.22,103.58 L 572.39 107.50 L 571.50 107.49 L 571.78 100.50 C572.01,94.83 571.63,92.65 569.78,89.00 C568.34,86.17 567.61,85.06 565.68,84.29 ZM 763.32 282.73 C765.60,279.74 767.51,276.98 768.20,275.45 C769.55,272.50 768.83,271.48 766.34,272.82 C765.52,273.26 763.42,273.84 761.25,274.26 C763.74,273.74 766.32,272.75 767.52,271.81 C769.16,270.51 770.49,270.09 771.09,270.69 C771.68,271.28 768.82,275.71 763.44,282.56 ZM 752.99 294.48 C754.61,293.20 757.81,289.62 760.88,285.83 C757.28,290.38 754.42,293.95 754.06,294.32 C753.99,294.39 753.62,294.45 752.99,294.48 ZM 486.51 77.14 C493.62,77.27 500.58,77.57 508.29,78.03 C520.60,78.77 531.54,79.62 540.59,80.52 C524.19,78.96 502.69,77.57 486.51,77.14 ZM 419.72 79.26 C423.98,79.02 428.65,78.77 433.80,78.51 C446.52,77.85 456.81,77.43 465.90,77.22 C453.33,77.58 435.44,78.39 419.72,79.26 ZM 359.67 85.55 C360.59,85.40 361.53,85.24 362.50,85.08 C370.48,83.78 377.07,82.82 384.08,82.02 C377.12,82.89 368.33,84.17 359.67,85.55 ZM 661.60 290.38 C683.39,290.74 704.50,291.69 726.40,293.22 C704.08,291.69 683.06,290.75 661.60,290.38 ZM 759.90 274.49 C759.83,274.50 759.77,274.51 759.71,274.52 C757.32,274.88 754.97,274.77 752.72,274.23 C754.90,274.73 757.22,274.83 759.68,274.52 C759.75,274.51 759.83,274.50 759.90,274.49 ZM 542.31 106.89 C536.97,106.65 531.49,106.35 527.00,106.04 C518.73,105.45 506.60,104.80 497.94,104.46 C506.60,104.80 518.73,105.45 527.00,106.03 C531.52,106.35 537.00,106.65 542.31,106.89 ZM 326.41 93.06 C326.13,93.43 326.00,93.82 326.00,94.24 C326.00,93.82 326.11,93.43 326.41,93.06 Z" fill="rgb(107,54,56)"/>
<path d="M 721.91 343.50 C724.11,339.38 726.62,334.89 728.34,332.00 C730.80,327.88 732.52,324.20 732.16,323.84 C731.80,323.47 718.90,322.62 703.50,321.94 C672.54,320.57 585.15,321.22 567.00,322.94 C561.22,323.50 546.15,324.89 533.50,326.05 C501.89,328.94 473.13,332.34 450.00,335.93 C439.27,337.59 418.35,340.76 403.50,342.97 C388.65,345.18 366.60,348.84 354.50,351.10 C327.43,356.16 324.83,356.05 311.17,349.25 C300.90,344.14 298.78,342.12 300.65,339.25 C301.58,337.81 301.31,337.10 299.14,335.25 L 296.50 333.01 L 296.51 333.00 L 299.92 335.85 C301.80,337.43 307.31,340.40 312.17,342.46 C320.53,346.00 321.45,346.18 329.25,345.73 C333.79,345.47 342.90,344.28 349.50,343.07 C364.05,340.42 370.47,339.32 379.00,338.01 C382.58,337.47 388.20,336.58 391.50,336.05 C403.60,334.08 424.66,330.86 430.50,330.08 C433.80,329.63 447.52,327.67 461.00,325.72 C474.48,323.76 490.00,321.69 495.50,321.11 C511.18,319.46 524.48,318.16 537.50,316.98 C544.10,316.39 553.55,315.48 558.50,314.98 C572.70,313.52 650.34,311.67 669.84,312.33 C701.13,313.40 730.41,314.88 733.75,315.57 C737.45,316.34 737.80,317.70 735.16,321.12 C732.97,323.95 726.84,334.50 721.91,343.50 ZM 763.32 282.73 C762.48,283.79 761.66,284.83 760.88,285.83 C760.37,286.45 759.86,287.08 759.35,287.68 C760.33,286.25 761.00,284.99 761.00,284.34 C761.00,283.46 759.71,283.00 757.25,283.00 C752.67,282.99 748.14,280.35 744.50,275.59 C742.99,273.61 741.17,272.00 740.46,272.00 C739.74,272.00 735.47,273.78 730.97,275.95 C719.95,281.29 710.29,283.34 698.62,282.83 C691.13,282.50 688.34,281.91 683.82,279.70 C674.43,275.11 665.65,266.35 664.59,260.54 C664.32,259.01 663.87,257.54 663.60,257.27 C663.34,257.01 654.68,261.00 644.36,266.14 L 625.60 275.50 L 615.55 275.46 C607.32,275.43 604.60,275.02 600.54,273.17 C593.25,269.87 589.62,265.83 588.45,259.73 C587.56,255.12 584.04,254.94 577.45,259.17 C559.16,270.88 530.53,282.35 519.50,282.38 C509.69,282.41 502.57,279.71 496.93,273.83 L 492.09 268.78 L 486.07 272.80 C476.67,279.07 472.32,280.42 465.80,279.06 C458.07,277.46 448.86,272.83 443.44,267.84 C437.96,262.78 432.91,255.75 432.56,252.68 C432.44,251.66 431.44,249.03 430.21,246.42 C430.24,246.49 430.28,246.57 430.32,246.64 C436.26,258.44 449.45,267.89 463.30,270.26 C469.05,271.24 470.36,271.15 474.17,269.51 C476.55,268.49 480.49,266.15 482.91,264.32 C485.34,262.50 488.03,261.00 488.89,261.00 C489.74,261.00 492.03,262.82 493.97,265.05 C498.27,269.99 508.32,274.01 516.30,273.98 C527.99,273.93 549.65,265.44 572.48,251.96 C582.45,246.07 582.65,246.11 586.88,254.95 C589.11,259.60 590.32,260.84 594.77,263.06 C609.74,270.54 617.76,269.56 642.16,257.27 C660.64,247.97 660.77,247.95 662.86,254.92 C664.30,259.72 672.26,266.50 682.00,271.21 C688.07,274.14 689.19,274.34 699.00,274.27 C711.16,274.18 717.94,272.62 728.00,267.57 C731.91,265.61 736.04,264.00 737.17,264.00 C738.31,264.00 740.75,265.74 742.65,267.91 C745.58,271.24 748.93,273.35 752.72,274.23 L 752.72 274.23 C754.97,274.77 757.32,274.88 759.71,274.52 C759.77,274.51 759.83,274.50 759.90,274.49 C760.34,274.43 760.79,274.35 761.25,274.26 C763.42,273.84 765.52,273.26 766.34,272.82 C768.83,271.48 769.55,272.50 768.20,275.45 C767.51,276.98 765.60,279.74 763.32,282.73 ZM 372.50 257.41 C377.95,246.39 392.99,221.66 407.71,199.51 C420.33,180.52 435.88,159.28 462.87,124.16 L 478.50 103.83 L 494.00 104.31 L 494.00 104.31 L 494.28 104.32 C495.27,104.35 496.34,104.39 497.47,104.44 L 497.94 104.46 C506.60,104.80 518.73,105.45 527.00,106.04 C531.49,106.35 536.97,106.65 542.31,106.89 C548.30,107.16 554.06,107.35 558.00,107.38 L 571.50 107.50 L 571.50 107.49 L 572.39 107.50 L 573.22 103.58 C573.88,100.42 573.54,98.33 571.46,92.90 C570.49,90.36 569.39,87.93 568.58,86.48 L 568.59 86.50 C571.54,90.99 575.96,105.50 575.98,110.73 C576.00,115.33 575.73,116.03 573.75,116.52 C571.61,117.05 541.47,115.49 502.81,112.84 C489.83,111.95 484.47,111.92 482.69,112.73 C481.36,113.34 478.11,116.68 475.47,120.17 C472.83,123.65 467.21,131.00 462.99,136.50 C449.92,153.52 425.72,186.00 418.29,196.50 C406.28,213.46 379.79,256.87 374.36,268.49 C373.34,270.69 371.38,273.04 370.00,273.73 C368.62,274.41 365.48,274.88 363.00,274.77 C360.52,274.66 353.55,274.44 347.50,274.28 C337.86,274.01 336.29,273.72 334.80,271.93 C333.52,270.41 333.32,269.28 334.00,267.50 C334.62,265.86 334.59,265.20 333.64,264.74 C336.80,265.66 342.55,265.81 352.00,265.69 L 368.50 265.50 ZM 744.56 363.13 C745.63,362.11 751.22,354.15 757.00,345.46 C773.16,321.14 773.56,320.79 783.31,322.91 C785.61,323.41 790.65,324.33 794.50,324.96 C798.35,325.59 803.30,326.49 805.50,326.97 C807.70,327.45 811.97,328.33 815.00,328.94 C837.36,333.40 861.37,339.67 878.93,345.64 C892.27,350.17 893.92,349.82 898.58,341.50 C901.26,336.71 902.24,333.99 901.69,331.97 C901.90,332.49 902.00,333.02 902.00,333.57 C902.00,334.82 902.75,337.14 903.66,338.73 C905.72,342.31 905.08,345.17 900.76,351.61 C896.37,358.20 893.77,358.37 878.21,353.11 C854.70,345.17 791.77,331.00 779.99,331.00 C775.91,331.00 773.92,332.73 769.60,340.00 C768.13,342.48 764.87,347.42 762.37,351.00 C759.86,354.58 755.37,360.99 752.38,365.25 L 746.96 373.00 L 741.23 372.89 C733.83,372.75 728.15,371.60 722.52,369.11 C717.88,367.06 717.13,365.50 719.04,361.93 C719.37,361.31 719.54,360.76 719.52,360.40 C723.91,362.50 731.99,364.23 740.56,364.85 C741.70,364.93 743.50,364.16 744.56,363.13 ZM 794.43 127.53 C795.15,128.53 795.01,129.39 794.13,130.27 C792.47,131.93 792.72,132.55 795.50,133.82 C799.10,135.46 798.63,138.43 794.25,141.68 C786.40,147.49 759.09,169.72 749.72,177.93 C736.66,189.37 710.19,218.54 697.24,235.77 C690.98,244.09 689.19,246.48 689.86,248.10 L 689.82 248.05 C684.12,242.36 684.50,239.53 692.35,229.00 C696.67,223.21 720.11,196.03 728.13,187.50 C730.72,184.75 733.81,181.26 734.99,179.75 C737.56,176.48 770.75,148.63 783.50,139.07 C792.17,132.56 795.60,129.88 794.43,127.53 ZM 718.69 120.36 C718.73,121.70 719.23,122.80 720.17,123.66 C723.75,126.89 722.50,129.57 714.29,136.24 C695.14,151.79 674.18,171.02 658.87,187.07 C635.88,211.16 613.00,238.37 613.00,241.60 C613.00,241.84 613.07,242.05 613.20,242.22 C612.55,241.87 611.92,241.40 611.31,240.83 C606.74,236.53 608.38,232.67 621.44,217.00 C625.34,212.32 630.30,206.25 632.47,203.50 C634.64,200.75 645.89,188.88 657.46,177.13 C674.72,159.60 692.65,143.24 716.25,123.48 C717.47,122.46 718.28,121.41 718.69,120.36 ZM 888.48 200.82 C888.49,201.05 888.50,201.30 888.50,201.57 C888.50,203.26 889.29,205.43 890.25,206.39 C893.19,209.34 892.27,211.41 885.26,217.57 C864.83,235.54 841.39,257.85 825.37,274.57 C802.46,298.50 800.42,300.86 802.15,301.44 C802.89,301.69 811.83,303.53 822.00,305.52 C837.29,308.52 845.68,310.34 854.68,312.87 C845.41,310.27 836.62,308.39 819.50,305.04 C807.95,302.78 797.49,300.72 796.25,300.45 C792.74,299.69 793.52,297.62 800.24,289.78 C811.33,276.85 847.07,240.69 860.97,228.36 C880.46,211.05 887.74,204.35 888.48,200.82 ZM 326.88 95.74 C330.32,100.22 342.87,112.38 346.00,113.95 C348.57,115.24 350.29,115.48 352.50,114.86 C359.03,113.01 370.11,111.05 382.50,109.55 C389.65,108.69 398.78,107.54 402.79,106.99 C412.89,105.62 436.00,105.69 436.00,107.09 C436.00,107.69 434.06,110.50 431.70,113.34 C431.52,113.56 431.33,113.78 431.15,114.00 L 425.42 114.00 C413.11,114.00 362.90,120.56 356.46,123.02 C351.44,124.92 348.16,123.24 338.34,113.74 C329.97,105.64 326.96,101.00 330.09,101.00 C330.69,101.00 330.01,99.62 328.59,97.92 C327.84,97.04 327.28,96.33 326.88,95.74 ZM 457.22 247.44 C454.39,245.46 454.40,242.20 457.25,238.36 C460.04,234.61 460.11,234.54 473.28,223.18 C496.95,202.78 518.21,188.00 523.89,188.00 C526.21,188.00 529.00,191.09 529.00,193.65 C529.00,194.47 528.38,195.86 527.19,197.74 C527.39,197.10 526.95,197.00 526.01,197.00 C520.02,197.00 498.12,212.64 471.75,235.77 C465.29,241.44 460.00,246.73 460.00,247.54 C460.00,248.30 460.39,248.94 460.89,249.00 C460.82,249.00 460.75,249.00 460.68,249.00 C460.00,249.00 458.44,248.30 457.22,247.44 ZM 803.25 198.39 C816.72,184.53 818.04,182.15 813.38,179.71 C815.84,180.97 816.13,181.58 815.60,184.23 C815.13,186.62 815.44,187.62 816.99,188.71 C818.10,189.48 819.00,190.82 819.00,191.69 C819.00,192.55 813.26,199.32 806.25,206.73 C783.46,230.81 767.00,250.24 767.00,253.07 C767.00,253.16 767.02,253.25 767.07,253.32 C765.89,253.25 764.92,252.93 764.15,252.39 C761.09,250.25 761.45,248.16 766.14,240.91 C772.10,231.67 782.59,219.66 803.25,198.39 ZM 556.91 189.18 C558.91,193.52 560.38,198.18 561.30,203.15 C563.20,213.43 560.69,216.95 533.69,241.86 C530.50,244.81 528.11,247.45 528.39,247.73 C528.43,247.76 528.47,247.79 528.51,247.81 C525.00,248.05 523.00,246.21 523.00,242.67 C523.00,241.48 529.53,234.34 539.96,224.11 C558.45,206.00 559.92,203.65 558.55,194.49 C558.31,192.86 557.74,191.07 556.91,189.18 ZM 489.37 234.00 C498.83,227.72 505.46,222.65 511.42,216.83 C506.10,222.37 501.08,226.22 489.37,234.00 ZM 798.93 238.47 C807.72,232.58 817.19,224.93 830.82,212.80 C816.07,225.97 807.80,232.67 798.93,238.47 ZM 362.14 207.67 C355.72,217.18 349.15,227.33 343.72,236.07 C344.13,235.40 344.55,234.71 344.98,234.00 C349.55,226.49 355.33,217.63 362.14,207.67 ZM 542.07 170.06 C542.81,170.67 543.54,171.30 544.26,171.96 C548.73,176.04 552.41,180.71 555.25,185.91 C552.15,180.41 547.28,174.54 542.07,170.06 ZM 527.80 162.05 C521.88,160.27 515.50,159.79 510.53,160.91 C516.04,159.67 521.96,160.11 527.80,162.05 ZM 615.47 242.96 C617.05,242.98 619.22,242.52 621.47,241.58 C624.72,240.22 630.39,236.19 638.34,229.61 C626.09,239.81 619.83,243.51 615.47,242.96 ZM 428.76 116.95 C427.48,118.56 426.41,119.97 425.95,120.66 C425.15,121.85 416.36,133.55 406.42,146.66 C398.95,156.51 388.43,170.72 379.92,182.43 C387.98,171.26 396.87,159.26 406.42,146.66 C416.36,133.55 425.15,121.85 425.94,120.66 C426.59,119.68 427.76,118.15 428.76,116.95 ZM 894.92 326.65 C889.81,324.33 881.43,321.27 870.10,317.60 C882.25,321.53 890.07,324.32 894.92,326.65 ZM 773.26 252.20 C776.60,250.94 781.01,248.89 785.80,246.33 C780.67,249.15 776.55,251.09 773.26,252.20 ZM 429.71 245.40 C429.65,245.27 429.59,245.14 429.52,245.02 C427.82,241.67 426.74,238.14 426.30,234.72 C426.78,238.04 427.92,241.61 429.71,245.40 ZM 718.86 117.74 C718.51,116.46 717.50,115.26 715.84,114.22 C718.00,115.55 718.78,116.34 718.86,117.74 ZM 593.89 196.18 C603.97,186.34 618.97,171.64 634.05,156.81 C615.66,174.90 603.13,187.21 593.89,196.18 ZM 552.52 233.42 C558.98,228.13 566.73,221.50 573.47,215.49 C568.67,219.84 564.46,223.43 558.86,228.15 C556.58,230.07 554.47,231.83 552.52,233.42 ZM 367.38 84.30 C365.81,84.55 364.18,84.81 362.50,85.08 C361.53,85.24 360.59,85.40 359.67,85.55 L 359.67 85.55 C356.76,86.01 353.87,86.49 351.07,86.96 C356.27,86.06 361.87,85.14 367.38,84.30 ZM 328.90 91.55 C327.64,92.03 326.84,92.52 326.41,93.06 L 326.41 93.07 C326.40,93.08 326.40,93.09 326.39,93.10 C326.58,92.81 326.87,92.54 327.25,92.23 C327.48,92.04 328.04,91.81 328.90,91.55 ZM 392.50 81.08 C390.24,81.28 387.37,81.60 384.08,82.02 C382.76,82.17 381.45,82.32 380.15,82.49 C384.78,81.88 389.02,81.39 392.50,81.08 ZM 330.50 262.10 C330.69,263.04 331.28,263.74 332.38,264.28 C331.30,263.83 330.63,263.21 330.50,262.10 ZM 486.51 77.14 C483.19,77.05 480.08,77.01 477.30,77.00 C474.48,77.00 470.56,77.08 465.90,77.22 C465.60,77.22 465.30,77.23 464.99,77.24 C469.97,77.09 474.15,77.00 477.09,77.00 C480.03,77.00 483.32,77.05 486.86,77.15 ZM 699.52 252.91 C702.93,252.82 706.83,251.16 712.01,247.83 C706.82,251.16 702.93,252.85 699.52,252.91 ZM 470.49 245.39 C475.50,242.80 481.98,238.90 489.37,234.00 C481.87,238.98 475.46,242.83 470.49,245.39 ZM 563.35 83.60 C562.94,83.50 562.49,83.40 562.00,83.29 C557.99,82.41 550.16,81.44 540.59,80.52 C540.13,80.48 539.68,80.43 539.21,80.39 C548.74,81.28 556.72,82.24 561.26,83.13 C562.02,83.28 562.72,83.44 563.35,83.60 ZM 717.91 359.52 C717.49,359.29 717.02,359.00 716.59,358.69 C716.52,358.64 716.46,358.60 716.40,358.55 C716.84,358.85 717.36,359.18 717.91,359.52 Z" fill="rgb(226,38,45)"/>
<path d="M 0.00 276.00 L 0.00 0.00 L 600.00 0.00 L 1200.00 0.00 L 1200.00 276.00 L 1200.00 552.00 L 600.00 552.00 L 0.00 552.00 L 0.00 276.00 ZM 110.54 468.46 C110.92,464.31 110.97,459.20 110.63,457.09 L 110.02 453.26 L 117.40 452.79 C125.86,452.24 130.32,450.14 133.75,445.05 C136.90,440.37 136.89,431.64 133.74,426.90 C129.98,421.26 125.23,419.59 111.75,419.16 L 100.00 418.79 L 100.00 447.39 L 100.00 476.00 L 104.91 476.00 L 109.83 476.00 L 110.54 468.46 ZM 187.29 473.26 C189.06,472.23 191.50,469.61 192.73,467.44 C194.80,463.79 194.97,462.23 194.98,446.50 C195.00,427.34 194.21,424.35 188.10,420.27 C185.39,418.46 183.31,418.00 177.82,418.00 C166.92,418.00 161.29,421.46 159.10,429.50 C157.69,434.69 157.68,457.85 159.09,463.46 C161.12,471.51 169.07,476.41 178.79,475.58 C181.70,475.34 185.53,474.29 187.29,473.26 ZM 239.46 473.75 C239.73,472.51 241.28,465.88 242.90,459.00 C244.51,452.12 246.15,444.81 246.53,442.75 C246.91,440.69 247.54,439.00 247.94,439.00 C248.33,439.00 250.42,447.21 252.59,457.25 L 256.53 475.50 L 261.68 475.80 C265.93,476.05 266.93,475.78 267.38,474.30 C268.28,471.35 280.00,420.76 280.00,419.84 C280.00,418.46 270.27,418.85 269.76,420.25 C269.51,420.94 267.79,428.81 265.94,437.75 C264.09,446.69 262.27,454.00 261.89,454.00 C261.51,454.00 260.43,450.51 259.49,446.25 C258.56,441.99 256.80,434.23 255.59,429.00 L 253.39 419.50 L 247.97 419.50 L 242.55 419.50 L 240.29 430.00 C235.00,454.66 234.75,455.57 233.99,453.50 C233.58,452.40 231.73,444.19 229.88,435.25 L 226.52 419.00 L 221.19 419.00 C216.59,419.00 215.93,419.24 216.37,420.75 C216.65,421.71 217.83,427.00 218.99,432.50 C223.55,454.07 228.13,474.40 228.61,475.18 C228.89,475.63 231.33,476.00 234.04,476.00 C238.33,476.00 239.03,475.71 239.46,473.75 ZM 333.80 470.75 L 334.11 466.00 L 323.51 466.00 L 312.91 466.00 L 313.21 458.75 L 313.50 451.50 L 320.75 451.21 L 328.00 450.91 L 328.00 446.50 L 328.00 442.09 L 320.75 441.79 L 313.50 441.50 L 313.20 435.29 L 312.91 429.07 L 322.70 428.79 L 332.50 428.50 L 332.81 423.72 L 333.11 418.95 L 317.81 419.22 L 302.50 419.50 L 302.23 446.49 C302.09,461.33 302.19,474.05 302.46,474.76 C302.84,475.76 306.47,475.99 318.23,475.78 L 333.50 475.50 L 333.80 470.75 ZM 368.78 464.25 L 369.07 453.00 L 371.94 453.00 C374.58,453.00 375.07,453.63 378.03,460.75 C384.31,475.90 384.39,476.00 389.85,476.00 C392.50,476.00 394.93,475.73 395.26,475.41 C395.58,475.09 394.25,471.15 392.30,466.66 C384.96,449.77 385.24,451.58 389.28,447.77 C393.30,443.98 394.59,439.41 393.56,432.56 C392.09,422.77 387.01,419.86 370.25,419.21 L 358.00 418.73 L 358.00 447.42 L 358.00 476.10 L 363.25 475.80 L 368.50 475.50 L 368.78 464.25 ZM 483.29 473.26 C490.68,468.95 492.62,461.53 491.82,440.67 C491.11,422.22 486.93,417.47 471.95,418.15 C463.08,418.56 459.68,420.33 456.75,426.07 C455.29,428.93 455.00,432.28 455.00,446.28 C455.00,463.98 455.71,467.71 459.80,471.35 C465.21,476.16 476.71,477.10 483.29,473.26 ZM 526.78 463.25 L 527.06 451.00 L 534.03 451.00 L 541.00 451.00 L 541.00 446.55 L 541.00 442.09 L 534.25 441.80 L 527.50 441.50 L 527.20 435.29 L 526.91 429.08 L 535.70 428.79 L 544.50 428.50 L 544.80 423.75 L 545.11 419.00 L 530.55 419.00 L 516.00 419.00 L 516.00 447.55 L 516.00 476.10 L 521.25 475.80 L 526.50 475.50 L 526.78 463.25 ZM 631.81 473.26 C636.01,471.13 640.01,464.40 639.98,459.54 C639.95,455.15 636.69,448.62 633.37,446.29 C631.79,445.19 627.80,442.81 624.50,441.01 C616.58,436.70 615.00,435.21 615.00,432.05 C615.00,428.42 616.73,427.00 621.13,427.00 C624.62,427.00 628.00,429.53 629.18,433.04 C629.53,434.05 636.87,432.41 638.37,430.99 C638.85,430.53 638.19,428.25 636.86,425.83 C633.77,420.19 629.40,418.00 621.22,418.00 C610.37,418.00 604.73,421.98 603.44,430.55 C602.47,437.05 605.95,442.50 613.97,447.03 C624.21,452.81 626.45,454.46 627.76,457.20 C629.40,460.60 627.94,464.61 624.49,466.18 C620.94,467.81 615.76,465.25 614.00,461.00 C612.72,457.91 612.55,457.84 608.09,458.49 C605.57,458.86 603.15,459.50 602.71,459.92 C600.45,462.09 607.42,471.35 613.46,474.18 C618.35,476.48 626.25,476.08 631.81,473.26 ZM 673.77 447.25 L 674.03 419.00 L 668.52 419.00 L 663.00 419.00 L 663.00 447.55 L 663.00 476.10 L 668.25 475.80 L 673.50 475.50 L 673.77 447.25 ZM 706.00 455.00 C706.00,443.45 706.34,434.00 706.75,434.01 C707.16,434.01 709.97,443.35 713.00,454.76 L 718.50 475.50 L 722.70 475.80 C726.88,476.11 726.90,476.09 728.01,471.80 C731.64,457.86 738.18,434.49 738.56,434.11 C738.80,433.87 739.01,442.18 739.01,452.58 C739.03,476.22 739.03,476.19 744.38,475.80 L 748.50 475.50 L 748.77 447.21 L 749.03 418.92 L 741.27 419.21 L 733.50 419.50 L 732.18 423.50 C731.46,425.70 729.27,433.35 727.32,440.50 C725.36,447.65 723.52,453.91 723.22,454.42 C722.47,455.68 721.86,453.83 716.90,435.20 L 712.58 419.00 L 704.79 419.00 L 697.00 419.00 L 697.00 447.50 L 697.00 476.00 L 701.50 476.00 L 706.00 476.00 L 706.00 455.00 ZM 782.00 464.63 L 782.00 453.27 L 788.87 452.78 C798.18,452.11 802.90,449.66 805.82,444.00 C807.62,440.50 808.04,438.33 807.73,434.21 C806.90,423.25 801.25,419.78 783.25,419.17 L 771.00 418.76 L 771.00 446.71 C771.00,462.09 771.30,474.97 771.67,475.33 C772.03,475.70 774.51,476.00 777.17,476.00 L 782.00 476.00 L 782.00 464.63 ZM 855.80 470.75 L 856.11 466.00 L 847.05 466.00 L 838.00 466.00 L 838.00 442.50 L 838.00 419.00 L 832.50 419.00 L 827.00 419.00 L 827.00 447.53 L 827.00 476.05 L 841.25 475.78 L 855.50 475.50 L 855.80 470.75 ZM 886.77 447.25 L 887.03 419.00 L 881.52 419.00 L 876.00 419.00 L 876.00 446.83 C876.00,462.14 876.32,474.99 876.71,475.38 C877.10,475.77 879.47,475.96 881.96,475.80 L 886.50 475.50 L 886.77 447.25 ZM 937.19 473.32 C942.04,470.47 944.28,466.72 944.79,460.54 L 945.25 455.00 L 940.21 455.00 L 935.18 455.00 L 934.50 459.02 C933.62,464.23 931.74,466.00 927.08,466.00 C920.35,466.00 919.55,464.08 919.18,447.12 C918.88,433.38 919.00,432.27 921.00,429.72 C922.67,427.60 924.00,427.00 927.00,427.00 C931.59,427.00 933.69,428.82 934.58,433.58 L 935.24 437.10 L 940.37 436.80 L 945.50 436.50 L 945.17 432.50 C944.75,427.37 942.26,423.09 938.05,420.25 C935.30,418.40 933.34,418.00 927.00,418.00 C918.15,418.00 914.10,419.97 910.55,426.00 C908.69,429.17 908.50,431.11 908.54,446.50 C908.59,464.47 909.15,467.11 913.83,471.35 C919.11,476.13 930.72,477.11 937.19,473.32 ZM 981.00 447.45 L 981.00 418.90 L 975.75 419.20 L 970.50 419.50 L 970.23 446.49 C970.09,461.33 970.18,474.04 970.45,474.74 C970.75,475.52 972.83,476.00 975.97,476.00 L 981.00 476.00 L 981.00 447.45 ZM 1026.00 452.50 L 1026.00 429.00 L 1032.50 429.00 L 1039.00 429.00 L 1039.00 423.98 L 1039.00 418.95 L 1020.75 419.23 L 1002.50 419.50 L 1002.50 424.00 L 1002.50 428.50 L 1008.75 428.80 L 1015.00 429.10 L 1015.00 451.88 C1015.00,464.41 1015.30,474.97 1015.67,475.33 C1016.03,475.70 1018.51,476.00 1021.17,476.00 L 1026.00 476.00 L 1026.00 452.50 ZM 1083.00 464.76 L 1083.00 453.53 L 1091.00 436.88 C1095.40,427.72 1099.00,419.93 1099.00,419.57 C1099.00,419.20 1096.41,419.04 1093.25,419.20 L 1087.50 419.50 L 1083.00 430.23 C1080.53,436.14 1078.26,440.97 1077.96,440.98 C1077.67,440.99 1075.34,436.16 1072.79,430.25 L 1068.15 419.50 L 1062.57 419.20 C1059.19,419.02 1057.00,419.31 1057.00,419.94 C1057.00,420.51 1060.38,428.01 1064.50,436.60 L 1072.00 452.22 L 1072.00 463.44 C1072.00,469.62 1072.30,474.97 1072.67,475.33 C1073.03,475.70 1075.51,476.00 1078.17,476.00 L 1083.00 476.00 L 1083.00 464.76 ZM 752.38 365.25 C755.37,360.99 759.86,354.58 762.37,351.00 C764.87,347.42 768.13,342.48 769.60,340.00 C773.92,332.73 775.91,331.00 779.99,331.00 C791.77,331.00 854.70,345.17 878.21,353.11 C893.77,358.37 896.37,358.20 900.76,351.61 C905.08,345.17 905.72,342.31 903.66,338.73 C902.75,337.14 902.00,334.82 902.00,333.57 C902.00,329.06 895.57,325.84 870.10,317.60 C852.50,311.91 845.17,310.07 822.00,305.52 C811.83,303.53 802.89,301.69 802.15,301.44 C800.42,300.86 802.46,298.50 825.37,274.57 C841.39,257.85 864.83,235.54 885.26,217.57 C892.27,211.41 893.19,209.34 890.25,206.39 C889.29,205.43 888.50,203.26 888.50,201.57 C888.50,199.05 887.87,198.19 884.97,196.77 C879.66,194.18 866.18,191.03 860.27,191.02 L 855.04 191.00 L 835.91 208.25 C814.44,227.60 802.77,236.69 790.01,243.99 C777.96,250.89 767.00,255.21 767.00,253.07 C767.00,250.24 783.46,230.81 806.25,206.73 C813.26,199.32 819.00,192.55 819.00,191.69 C819.00,190.82 818.10,189.48 816.99,188.71 C815.44,187.62 815.13,186.62 815.60,184.23 C816.14,181.57 815.84,180.97 813.36,179.70 C808.97,177.46 796.79,175.00 790.10,175.00 L 784.08 175.00 L 776.21 183.25 C771.89,187.79 763.68,196.68 757.98,203.00 C740.89,221.97 718.92,243.39 712.01,247.83 C702.57,253.90 697.37,254.44 691.67,249.95 C688.48,247.45 688.51,247.36 697.24,235.77 C710.19,218.54 736.66,189.37 749.72,177.93 C759.09,169.72 786.40,147.49 794.25,141.68 C798.63,138.43 799.10,135.46 795.50,133.82 C792.72,132.55 792.47,131.93 794.13,130.27 C796.18,128.22 794.24,126.23 786.53,122.42 C779.58,118.98 778.19,118.66 770.22,118.58 L 761.50 118.50 L 747.50 129.92 C732.02,142.54 719.53,153.96 686.16,186.00 C651.60,219.18 629.36,238.28 621.47,241.58 C617.08,243.41 613.00,243.42 613.00,241.60 C613.00,238.37 635.88,211.16 658.87,187.07 C674.18,171.02 695.14,151.79 714.29,136.24 C722.50,129.57 723.75,126.89 720.17,123.66 C718.95,122.55 718.49,121.05 718.77,119.14 C719.12,116.76 718.63,115.93 715.84,114.22 C710.35,110.85 700.00,107.85 693.51,107.75 C688.09,107.67 686.84,108.06 682.01,111.31 C679.04,113.31 657.45,133.79 634.05,156.81 C610.65,179.83 587.45,202.52 582.50,207.23 C570.48,218.66 546.72,238.71 540.42,242.74 C535.08,246.16 529.24,248.58 528.39,247.73 C528.11,247.45 530.50,244.81 533.69,241.86 C560.69,216.95 563.20,213.43 561.30,203.15 C559.00,190.71 553.24,180.16 544.26,171.96 C534.00,162.57 521.45,158.46 510.53,160.91 C499.57,163.36 474.19,178.13 459.01,190.89 C446.85,201.11 430.03,218.30 427.91,222.68 C424.99,228.72 425.61,237.33 429.52,245.02 C431.06,248.03 432.42,251.48 432.56,252.68 C432.91,255.75 437.96,262.78 443.44,267.84 C448.86,272.83 458.07,277.46 465.80,279.06 C472.32,280.42 476.67,279.07 486.07,272.80 L 492.09 268.78 L 496.93 273.83 C502.57,279.71 509.69,282.41 519.50,282.38 C530.53,282.35 559.16,270.88 577.45,259.17 C584.04,254.94 587.56,255.12 588.45,259.73 C589.62,265.83 593.25,269.87 600.54,273.17 C604.60,275.02 607.32,275.43 615.55,275.46 L 625.60 275.50 L 644.36 266.14 C654.68,261.00 663.34,257.01 663.60,257.27 C663.87,257.54 664.32,259.01 664.59,260.54 C665.65,266.35 674.43,275.11 683.82,279.70 C688.34,281.91 691.13,282.50 698.62,282.83 C710.29,283.34 719.95,281.29 730.97,275.95 C735.47,273.78 739.74,272.00 740.46,272.00 C741.17,272.00 742.99,273.61 744.50,275.59 C748.14,280.35 752.67,282.99 757.25,283.00 C759.71,283.00 761.00,283.46 761.00,284.34 C761.00,286.48 753.89,295.00 752.12,294.99 C751.23,294.98 741.72,294.33 731.00,293.54 C673.06,289.30 621.32,289.13 549.00,292.95 C497.87,295.64 481.82,297.24 423.50,305.49 C373.09,312.61 303.74,326.85 298.75,331.10 L 296.50 333.01 L 299.14 335.25 C301.31,337.10 301.58,337.81 300.65,339.25 C298.78,342.12 300.90,344.14 311.17,349.25 C324.83,356.05 327.43,356.16 354.50,351.10 C366.60,348.84 388.65,345.18 403.50,342.97 C418.35,340.76 439.27,337.59 450.00,335.93 C473.13,332.34 501.89,328.94 533.50,326.05 C546.15,324.89 561.22,323.50 567.00,322.94 C585.15,321.22 672.54,320.57 703.50,321.94 C718.90,322.62 731.80,323.47 732.16,323.84 C732.52,324.20 730.80,327.88 728.34,332.00 C725.88,336.12 721.82,343.52 719.33,348.44 C715.07,356.84 714.90,357.45 716.59,358.69 C717.57,359.41 718.76,360.00 719.23,360.00 C719.69,360.00 719.60,360.87 719.04,361.93 C717.13,365.50 717.88,367.06 722.52,369.11 C728.15,371.60 733.83,372.75 741.23,372.89 L 746.96 373.00 L 752.38 365.25 ZM 370.00 273.73 C371.38,273.04 373.34,270.69 374.36,268.49 C379.79,256.87 406.28,213.46 418.29,196.50 C425.72,186.00 449.92,153.52 462.99,136.50 C467.21,131.00 472.83,123.65 475.47,120.17 C478.11,116.68 481.36,113.34 482.69,112.73 C484.47,111.92 489.83,111.95 502.81,112.84 C541.47,115.49 571.61,117.05 573.75,116.52 C575.73,116.03 576.00,115.33 575.98,110.73 C575.96,105.50 571.54,90.99 568.59,86.50 C567.57,84.94 565.40,83.95 561.26,83.13 C547.31,80.39 500.82,77.00 477.09,77.00 C461.51,77.00 411.04,79.44 392.50,81.08 C372.99,82.81 329.74,90.20 327.25,92.23 C325.48,93.67 325.66,94.44 328.59,97.92 C330.01,99.62 330.69,101.00 330.09,101.00 C326.96,101.00 329.97,105.64 338.34,113.74 C348.16,123.24 351.44,124.92 356.46,123.02 C362.90,120.56 413.11,114.00 425.42,114.00 L 431.35 114.00 L 429.36 116.25 C428.27,117.49 426.73,119.47 425.94,120.66 C425.15,121.85 416.36,133.55 406.42,146.66 C379.33,182.39 357.56,213.33 344.98,234.00 C329.42,259.57 328.10,262.94 333.05,264.52 C334.55,264.99 334.74,265.57 334.00,267.50 C333.32,269.28 333.52,270.41 334.80,271.93 C336.29,273.72 337.86,274.01 347.50,274.28 C353.55,274.44 360.52,274.66 363.00,274.77 C365.48,274.88 368.62,274.41 370.00,273.73 ZM 110.48 442.75 C110.10,441.70 110.20,438.30 110.90,429.25 C110.97,428.43 112.72,428.00 116.00,428.00 C122.40,428.00 125.00,430.31 125.00,436.00 C125.00,441.70 122.40,444.00 115.97,444.00 C112.85,444.00 110.76,443.52 110.48,442.75 ZM 171.44 464.58 C169.65,463.27 169.50,461.84 169.50,446.50 C169.50,427.70 169.77,427.00 177.13,427.00 C183.32,427.00 184.00,428.92 184.00,446.50 C184.00,464.08 183.32,466.00 177.13,466.00 C175.07,466.00 172.51,465.36 171.44,464.58 ZM 369.75 443.43 C369.34,443.01 369.00,439.37 369.00,435.33 L 369.00 428.00 L 374.00 428.00 C380.13,428.00 383.00,430.36 383.00,435.39 C383.00,440.31 380.30,443.10 374.96,443.69 C372.51,443.97 370.16,443.85 369.75,443.43 ZM 467.40 463.89 C465.70,462.01 465.50,460.13 465.50,446.30 C465.50,431.24 465.56,430.77 467.86,428.91 C470.22,427.00 475.52,426.38 477.60,427.77 C480.28,429.56 481.00,433.38 481.00,445.87 C481.00,458.52 480.12,463.67 477.69,465.21 C475.21,466.79 469.34,466.03 467.40,463.89 ZM 782.00 436.00 L 782.00 428.00 L 787.31 428.00 C793.95,428.00 795.98,429.46 796.69,434.71 C797.16,438.23 796.86,439.23 794.67,441.42 C792.58,443.51 791.13,444.00 787.05,444.00 L 782.00 444.00 L 782.00 436.00 ZM 460.00 247.54 C460.00,246.73 465.29,241.44 471.75,235.77 C498.12,212.64 520.02,197.00 526.01,197.00 C527.90,197.00 527.77,197.43 524.47,201.75 C513.78,215.78 505.87,223.04 489.37,234.00 C475.34,243.31 464.57,249.00 460.96,249.00 C460.43,249.00 460.00,248.34 460.00,247.54 Z" fill="rgb(254,254,254)"/>
</g>
</svg>