<svg xmlns="http://www.w3.org/2000/svg" width="711" height="408" viewBox="0 0 711 408">
<g>
<path d="M 650.66 271.02 C646.20,273.58 644.48,273.98 637.95,273.99 C631.33,274.00 629.83,273.64 625.85,271.12 C621.25,268.20 618.51,264.94 616.10,259.50 C615.37,257.85 614.37,255.72 613.88,254.76 C613.40,253.81 613.00,247.93 613.00,241.70 C613.00,231.71 613.29,229.77 615.47,225.26 C618.49,218.99 623.12,213.58 627.22,211.54 C631.69,209.31 643.69,209.50 649.17,211.89 C654.67,214.29 659.31,219.17 661.94,225.33 C663.59,229.21 664.00,232.29 664.00,240.85 C664.00,257.16 660.32,265.48 650.66,271.02 ZM 518.07 271.41 C514.73,272.39 508.86,273.00 502.82,273.00 L 493.00 273.00 L 493.00 210.00 L 503.46 210.00 C519.87,210.00 528.79,214.44 533.99,225.21 C536.61,230.64 536.84,247.57 534.38,255.08 C532.00,262.35 524.98,269.38 518.07,271.41 ZM 632.50 265.66 C636.06,267.27 642.11,266.64 646.17,264.24 C654.70,259.20 658.14,243.48 653.96,228.70 C651.15,218.78 637.14,213.77 629.07,219.80 C623.00,224.33 619.82,236.89 621.97,247.75 C623.91,257.51 627.34,263.33 632.50,265.66 ZM 321.37 272.72 C319.22,274.29 316.35,274.38 315.44,272.90 C315.06,272.29 314.80,258.23 314.86,241.65 C314.93,220.40 314.87,211.75 316.97,211.19 C318.39,210.82 320.77,214.09 324.82,219.65 C325.04,219.96 325.27,220.27 325.50,220.59 C329.35,225.87 335.93,234.92 340.13,240.69 C344.32,246.46 348.08,251.03 348.49,250.84 C348.90,250.65 349.15,241.63 349.06,230.78 L 348.89 211.06 L 351.44 210.42 C351.56,210.40 351.67,210.37 351.78,210.34 C353.10,210.01 354.07,209.76 354.81,210.08 C357.01,211.03 357.00,217.08 357.22,241.21 C357.37,257.87 357.34,272.06 357.14,272.75 C356.28,275.77 355.48,274.84 341.82,255.00 C338.98,250.88 336.39,247.27 336.05,247.00 C335.71,246.73 332.97,242.80 329.97,238.28 C326.96,233.76 324.05,230.05 323.50,230.03 C322.85,230.01 322.61,237.35 322.81,250.72 C323.09,269.51 322.96,271.56 321.37,272.72 ZM 290.95 272.03 C288.00,273.53 285.11,273.99 278.79,273.97 C274.23,273.95 269.60,273.44 268.50,272.84 C264.44,270.60 259.93,265.47 259.02,262.04 C258.32,259.39 257.53,221.98 257.95,211.19 C257.98,210.29 259.18,209.98 261.75,210.19 L 265.50 210.50 L 266.05 234.50 C266.35,247.70 266.68,258.60 266.80,258.72 C266.91,258.83 268.38,260.51 270.08,262.43 C275.41,268.51 285.62,268.15 290.20,261.73 C292.41,258.63 292.52,257.54 293.00,234.51 C293.46,212.29 293.63,210.50 295.33,210.17 C296.34,209.98 298.25,210.10 299.58,210.43 L 302.00 211.04 L 302.00 234.40 C302.00,259.10 301.66,261.35 297.00,267.28 C295.79,268.81 293.07,270.94 290.95,272.03 ZM 483.00 268.88 C483.00,270.46 482.44,272.15 481.75,272.63 C481.06,273.11 472.74,273.38 463.25,273.23 L 446.00 272.95 L 446.00 211.04 L 448.25 210.48 C449.49,210.18 457.70,210.06 466.50,210.21 L 482.50 210.50 L 482.50 217.50 L 454.50 218.50 L 454.50 235.50 L 464.81 235.79 L 475.12 236.07 L 474.81 239.29 L 474.50 242.50 L 454.50 243.50 L 454.21 253.35 C454.03,259.76 454.33,263.69 455.08,264.60 C455.97,265.67 459.39,266.00 469.62,266.00 L 483.00 266.00 ZM 502.20 264.74 C503.69,266.53 512.55,265.80 516.97,263.52 C523.27,260.26 526.56,253.90 527.69,242.77 C529.26,227.30 521.33,217.55 507.70,218.20 L 501.50 218.50 L 501.23 240.87 C501.03,257.50 501.28,263.63 502.20,264.74 ZM 596.21 271.74 C593.17,273.59 591.06,273.98 584.50,273.95 C574.08,273.91 570.51,272.20 571.41,267.69 C572.32,263.16 573.34,262.60 577.14,264.60 C579.12,265.65 582.71,266.39 585.86,266.40 C590.66,266.43 591.53,266.09 594.11,263.20 C599.72,256.93 597.09,250.15 587.27,245.55 C578.21,241.31 574.32,238.20 572.07,233.42 C569.47,227.88 569.46,224.14 572.03,218.66 C575.03,212.29 579.68,210.00 589.66,210.00 C599.18,210.00 602.37,211.58 601.38,215.81 C600.44,219.80 599.85,220.06 595.49,218.51 C586.01,215.13 579.00,218.05 579.00,225.38 C579.00,230.06 582.68,234.22 589.80,237.61 C601.92,243.39 605.00,247.27 605.00,256.76 C605.00,263.56 602.40,268.00 596.21,271.74 ZM 416.79 272.63 C414.79,273.86 411.31,273.91 410.12,272.72 C409.35,271.95 409.00,263.24 409.00,244.84 L 409.00 218.07 L 389.50 217.50 L 389.50 210.50 L 412.87 210.23 C438.02,209.94 439.35,210.18 438.80,214.91 C438.50,217.49 438.44,217.50 428.25,217.78 L 418.00 218.07 L 418.00 244.98 C418.00,264.92 417.69,272.08 416.79,272.63 ZM 711.00 266.06 L 711.00 272.93 L 693.38 273.05 C683.70,273.11 675.36,272.76 674.87,272.27 C674.36,271.76 674.09,258.29 674.23,241.54 C674.47,214.75 674.67,211.61 676.20,210.65 C677.33,209.93 678.77,209.90 680.54,210.54 L 683.18 211.50 L 683.34 238.50 L 683.50 265.50 L 697.25 265.78 L 711.00 266.06 ZM 379.75 272.70 C377.88,274.11 374.28,274.04 373.05,272.56 C372.32,271.68 372.05,261.56 372.24,240.88 L 372.50 210.50 L 375.31 210.18 C381.00,209.53 381.00,209.54 381.00,242.00 C381.00,264.63 380.70,271.98 379.75,272.70 Z" fill="rgb(9,86,139)"/>
<path d="M 83.50 278.79 C73.40,281.36 64.32,282.54 60.50,281.77 C58.30,281.33 54.59,280.69 52.25,280.35 C49.91,280.02 48.00,279.35 48.00,278.87 C48.00,278.39 47.10,278.00 46.00,278.00 C44.90,278.00 44.00,277.55 44.00,277.00 C44.00,276.45 43.39,276.00 42.65,276.00 C40.83,276.00 32.25,267.19 30.73,263.76 C30.06,262.24 29.17,261.00 28.76,261.00 C28.34,261.00 28.00,260.13 28.00,259.06 C28.00,257.99 27.55,256.84 27.00,256.50 C26.45,256.16 26.00,254.56 26.00,252.94 C26.00,251.32 25.55,250.00 25.00,250.00 C24.45,250.00 24.00,247.50 24.00,244.44 C24.00,240.99 23.62,239.12 23.00,239.50 C22.35,239.90 22.00,232.68 22.00,218.56 C22.00,205.65 22.38,197.00 22.95,197.00 C23.48,197.00 23.90,192.39 23.92,186.40 C23.93,180.57 24.43,173.26 25.03,170.15 C25.71,166.63 25.95,155.81 25.69,141.50 C25.26,118.72 24.61,111.50 22.89,110.43 C22.40,110.13 22.00,108.78 22.00,107.44 C22.00,106.10 21.55,105.00 21.00,105.00 C20.45,105.00 20.00,104.10 20.00,103.00 C20.00,101.90 19.55,101.00 19.00,101.00 C18.45,101.00 18.00,100.32 18.00,99.49 C18.00,97.86 5.53,85.00 3.95,85.00 C3.43,85.00 3.00,84.66 3.00,84.24 C3.00,83.05 10.04,80.82 15.50,80.30 C18.25,80.03 20.93,79.41 21.45,78.91 C22.72,77.69 26.73,77.75 27.50,79.00 C27.84,79.55 30.36,80.00 33.11,80.00 C36.05,80.00 39.79,80.82 42.24,82.00 C44.51,83.10 46.74,84.00 47.18,84.00 C48.17,84.00 51.03,86.31 56.43,91.50 C60.82,95.70 65.64,102.44 67.90,107.50 C68.63,109.15 69.58,111.20 70.01,112.06 C71.43,114.92 72.93,124.42 73.17,132.00 C73.52,143.22 69.68,175.76 65.86,194.00 C64.47,200.60 64.64,225.54 66.14,236.00 C67.29,244.04 72.71,256.97 75.87,259.21 C76.87,259.92 77.87,261.05 78.09,261.72 C78.68,263.48 90.17,273.00 91.71,273.00 C92.42,273.00 93.00,273.62 93.00,274.38 C93.00,275.81 90.34,277.04 83.50,278.79 ZM 184.84 281.35 C181.20,282.25 179.38,282.72 177.55,282.76 C175.63,282.81 173.69,282.37 169.61,281.44 C169.41,281.40 169.21,281.35 169.00,281.31 C155.81,278.33 148.00,275.96 148.00,274.96 C148.00,274.60 149.57,273.47 151.50,272.43 C153.43,271.39 155.00,270.20 155.00,269.77 C155.00,269.35 155.51,269.00 156.14,269.00 C157.64,269.00 167.95,258.84 167.98,257.33 C167.99,256.69 168.34,256.02 168.75,255.83 C169.83,255.35 174.00,247.07 174.00,245.39 C174.00,244.61 174.41,243.19 174.92,242.24 C176.91,238.47 178.20,226.23 177.64,216.50 C176.55,197.79 175.79,190.00 175.03,190.00 C174.62,190.00 173.95,187.41 173.54,184.25 C173.14,181.09 172.42,175.80 171.95,172.50 C167.92,144.48 168.54,115.12 173.27,110.40 C173.67,110.00 174.00,108.84 174.00,107.83 C174.00,106.82 174.34,105.99 174.75,105.99 C175.16,105.98 176.40,104.07 177.50,101.74 C178.60,99.41 182.45,94.57 186.05,91.00 C191.58,85.51 193.67,84.15 199.55,82.23 C203.37,80.99 207.71,79.98 209.19,79.99 C210.67,79.99 212.16,79.55 212.50,79.00 C212.84,78.45 214.64,78.00 216.50,78.00 C218.36,78.00 220.16,78.45 220.50,79.00 C220.84,79.55 223.31,80.00 226.00,80.00 C228.69,80.00 231.16,80.45 231.50,81.00 C231.84,81.55 232.88,82.01 233.81,82.02 C234.74,82.02 236.17,82.45 236.99,82.97 C238.25,83.77 238.15,84.22 236.28,85.96 C235.07,87.08 233.67,88.00 233.16,88.00 C232.65,88.00 230.61,89.91 228.62,92.25 C226.63,94.59 224.33,97.29 223.50,98.25 C222.68,99.21 222.00,100.68 222.00,101.50 C222.00,102.32 221.55,103.00 221.00,103.00 C220.45,103.00 220.00,103.87 220.00,104.94 C220.00,106.01 219.55,107.16 219.00,107.50 C218.45,107.84 218.00,109.00 218.00,110.07 C218.00,111.15 217.58,112.81 217.08,113.76 C214.58,118.45 213.67,135.94 214.91,155.26 C215.58,165.84 216.38,175.40 216.67,176.50 C217.58,179.92 219.22,208.93 219.19,221.00 C219.15,234.52 218.20,245.12 216.92,246.45 C216.41,246.97 216.00,248.67 216.00,250.21 C216.00,251.76 215.60,253.81 215.10,254.76 C214.61,255.72 213.14,258.72 211.85,261.44 C209.72,265.93 200.22,277.00 198.51,277.00 C198.12,277.00 196.38,277.61 194.65,278.35 C192.92,279.09 188.50,280.44 184.84,281.35 Z" fill="rgb(101,139,188)"/>
<path d="M 184.84 281.35 C188.50,280.44 192.92,279.09 194.65,278.35 C196.38,277.61 198.12,277.00 198.51,277.00 C200.22,277.00 209.72,265.93 211.85,261.44 C213.14,258.72 214.61,255.72 215.10,254.76 C215.60,253.81 216.00,251.76 216.00,250.21 C216.00,248.67 216.41,246.97 216.92,246.45 C218.20,245.12 219.15,234.52 219.19,221.00 C219.22,208.93 217.58,179.92 216.67,176.50 C216.38,175.40 215.58,165.84 214.91,155.26 C213.67,135.94 214.58,118.45 217.08,113.76 C217.58,112.81 218.00,111.15 218.00,110.07 C218.00,109.00 218.45,107.84 219.00,107.50 C219.55,107.16 220.00,106.01 220.00,104.94 C220.00,103.87 220.45,103.00 221.00,103.00 C221.55,103.00 222.00,102.32 222.00,101.50 C222.00,100.68 222.68,99.21 223.50,98.25 C224.33,97.29 226.63,94.59 228.62,92.25 C230.61,89.91 232.65,88.00 233.16,88.00 C233.67,88.00 235.07,87.08 236.28,85.96 C238.15,84.22 238.25,83.77 236.99,82.97 C236.17,82.45 234.74,82.02 233.81,82.02 C232.88,82.01 231.84,81.55 231.50,81.00 C231.16,80.45 228.69,80.00 226.00,80.00 C223.31,80.00 220.84,79.55 220.50,79.00 C220.24,78.58 219.15,78.23 217.83,78.08 C224.16,78.18 231.15,79.03 233.81,80.40 C235.55,81.30 237.21,82.03 237.49,82.02 C239.62,81.94 240.00,82.23 240.00,84.00 C240.00,85.10 239.56,86.00 239.02,86.00 C237.26,86.00 229.29,92.43 227.59,95.21 C226.68,96.71 225.38,98.51 224.71,99.21 C224.05,99.92 222.88,101.85 222.13,103.50 C221.38,105.15 220.37,107.28 219.88,108.24 C219.40,109.19 219.00,111.08 219.00,112.43 C219.00,113.78 218.62,115.12 218.15,115.41 C217.31,115.92 215.73,131.63 215.73,139.50 C215.72,144.72 217.70,172.24 219.17,187.50 C221.32,209.73 220.51,247.95 217.86,249.59 C217.39,249.88 217.00,251.22 217.00,252.56 C217.00,253.90 216.55,255.00 216.00,255.00 C215.45,255.00 215.00,256.12 215.00,257.50 C215.00,258.88 214.66,260.00 214.24,260.00 C213.83,260.00 212.85,261.46 212.07,263.25 C209.99,268.00 200.27,277.78 196.88,278.53 C195.30,278.87 194.00,279.57 194.00,280.08 C194.00,280.59 192.68,281.00 191.06,281.00 C189.44,281.00 187.84,281.45 187.50,282.00 C186.71,283.29 167.99,283.29 166.00,282.00 C165.18,281.47 163.06,281.02 161.31,281.02 C159.55,281.01 157.84,280.55 157.50,280.00 C157.16,279.45 155.56,279.00 153.94,279.00 C152.32,279.00 151.00,278.55 151.00,278.00 C151.00,277.45 149.88,277.00 148.50,277.00 C146.67,277.00 146.00,276.47 146.00,275.00 C146.00,273.82 146.67,273.00 147.63,273.00 C152.07,273.00 169.00,257.21 169.00,253.07 C169.00,252.48 169.45,252.00 170.00,252.00 C170.55,252.00 171.00,250.88 171.00,249.50 C171.00,248.12 171.45,247.00 172.00,247.00 C172.55,247.00 173.00,245.90 173.00,244.56 C173.00,243.22 173.39,241.88 173.87,241.58 C174.81,241.00 176.21,228.52 176.24,220.50 C176.25,217.75 175.75,210.77 175.14,205.00 C174.52,199.23 173.76,192.02 173.44,189.00 C173.12,185.98 172.46,182.60 171.98,181.50 C171.49,180.40 170.86,177.25 170.58,174.50 C170.29,171.75 169.53,165.68 168.89,161.00 C166.82,145.96 167.59,116.99 170.11,115.43 C170.60,115.13 171.00,113.78 171.00,112.44 C171.00,111.10 171.45,110.00 172.00,110.00 C172.55,110.00 173.00,109.41 173.00,108.70 C173.00,106.86 175.35,102.02 176.25,102.01 C176.66,102.00 177.00,101.40 177.00,100.67 C177.00,99.02 186.81,88.00 188.29,88.00 C188.68,88.00 189.42,87.65 190.20,87.12 C188.99,88.14 187.66,89.39 186.05,91.00 C182.45,94.57 178.60,99.41 177.50,101.74 C176.40,104.07 175.16,105.98 174.75,105.99 C174.34,105.99 174.00,106.82 174.00,107.83 C174.00,108.84 173.67,110.00 173.27,110.40 C168.54,115.12 167.92,144.48 171.95,172.50 C172.42,175.80 173.14,181.09 173.54,184.25 C173.95,187.41 174.62,190.00 175.03,190.00 C175.79,190.00 176.55,197.79 177.64,216.50 C178.20,226.23 176.91,238.47 174.92,242.24 C174.41,243.19 174.00,244.61 174.00,245.39 C174.00,247.07 169.83,255.35 168.75,255.83 C168.34,256.02 167.99,256.69 167.98,257.33 C167.95,258.84 157.64,269.00 156.14,269.00 C155.51,269.00 155.00,269.35 155.00,269.77 C155.00,270.20 153.43,271.39 151.50,272.43 C149.57,273.47 148.00,274.60 148.00,274.96 C148.00,275.96 155.81,278.33 169.00,281.31 C169.21,281.35 169.41,281.40 169.61,281.44 C173.69,282.37 175.63,282.81 177.55,282.76 C179.38,282.72 181.20,282.25 184.84,281.35 ZM 83.50 278.79 C90.34,277.04 93.00,275.81 93.00,274.38 C93.00,273.62 92.42,273.00 91.71,273.00 C90.69,273.00 85.31,268.83 81.62,265.50 C85.10,268.12 90.38,271.12 94.25,272.37 C95.21,272.68 96.00,273.85 96.00,274.97 C96.00,276.46 95.35,277.00 93.56,277.00 C92.22,277.00 90.84,277.45 90.50,278.00 C90.16,278.55 88.56,279.00 86.94,279.00 C85.32,279.00 84.00,279.40 84.00,279.89 C84.00,282.09 57.55,283.82 52.62,281.95 C40.21,277.23 31.93,270.47 28.29,262.07 C27.32,259.83 26.18,258.00 25.76,258.00 C25.34,258.00 25.00,256.90 25.00,255.56 C25.00,254.22 24.55,252.84 24.00,252.50 C23.45,252.16 23.00,250.42 23.00,248.64 C23.00,246.86 22.52,244.92 21.93,244.33 C21.25,243.65 20.88,236.03 20.90,222.88 C20.94,200.75 21.27,193.78 23.08,175.50 C24.44,161.86 24.79,123.78 23.62,117.00 C23.20,114.53 22.49,111.60 22.05,110.50 C20.12,105.65 16.43,98.31 14.89,96.24 C12.19,92.63 3.70,86.00 1.77,86.00 C0.08,86.00 0.00,93.70 0.00,247.00 L 0.00 42.12 C0.00,81.00 0.13,84.14 1.64,82.89 C2.54,82.14 3.77,81.50 4.39,81.46 C5.00,81.42 6.18,81.14 7.00,80.83 C12.02,78.97 18.21,78.03 24.14,78.04 C23.05,78.10 22.00,78.38 21.45,78.91 C20.93,79.41 18.25,80.03 15.50,80.30 C10.04,80.82 3.00,83.05 3.00,84.24 C3.00,84.66 3.43,85.00 3.95,85.00 C5.53,85.00 18.00,97.86 18.00,99.49 C18.00,100.32 18.45,101.00 19.00,101.00 C19.55,101.00 20.00,101.90 20.00,103.00 C20.00,104.10 20.45,105.00 21.00,105.00 C21.55,105.00 22.00,106.10 22.00,107.44 C22.00,108.78 22.40,110.13 22.89,110.43 C24.61,111.50 25.26,118.72 25.69,141.50 C25.95,155.81 25.71,166.63 25.03,170.15 C24.43,173.26 23.93,180.57 23.92,186.40 C23.90,192.39 23.48,197.00 22.95,197.00 C22.38,197.00 22.00,205.65 22.00,218.56 C22.00,232.68 22.35,239.90 23.00,239.50 C23.62,239.12 24.00,240.99 24.00,244.44 C24.00,247.50 24.45,250.00 25.00,250.00 C25.55,250.00 26.00,251.32 26.00,252.94 C26.00,254.56 26.45,256.16 27.00,256.50 C27.55,256.84 28.00,257.99 28.00,259.06 C28.00,260.13 28.34,261.00 28.76,261.00 C29.17,261.00 30.06,262.24 30.73,263.76 C32.25,267.19 40.83,276.00 42.65,276.00 C43.39,276.00 44.00,276.45 44.00,277.00 C44.00,277.55 44.90,278.00 46.00,278.00 C47.10,278.00 48.00,278.39 48.00,278.87 C48.00,279.35 49.91,280.02 52.25,280.35 C54.59,280.69 58.30,281.33 60.50,281.77 C64.32,282.54 73.40,281.36 83.50,278.79 ZM 706.78 328.18 C704.73,329.52 694.88,328.84 694.29,327.32 C694.01,326.60 693.22,326.00 692.52,326.00 C691.00,326.00 689.81,319.50 690.68,316.00 C691.34,313.37 696.57,308.00 698.48,308.00 C699.10,308.00 700.14,308.54 700.80,309.20 C702.08,310.48 702.20,310.18 702.38,305.50 C702.48,302.99 702.91,302.50 705.00,302.51 L 707.50 302.52 L 707.78 314.93 C707.99,324.18 707.74,327.56 706.78,328.18 ZM 402.80 323.74 C402.57,327.32 402.07,328.56 400.75,328.81 C398.19,329.30 397.90,327.67 398.22,314.44 L 398.50 302.50 L 404.20 302.20 C409.22,301.94 410.28,302.23 412.95,304.62 C415.00,306.44 416.00,308.27 416.00,310.17 C416.00,313.42 411.46,319.14 409.06,318.92 C403.67,318.41 403.12,318.84 402.80,323.74 ZM 603.00 321.20 C602.62,326.71 602.12,328.55 600.95,328.78 C598.35,329.27 598.00,328.02 598.00,318.31 L 598.00 308.96 L 600.58 309.61 C602.04,309.98 604.21,309.69 605.60,308.95 C607.47,307.94 608.31,307.91 609.22,308.82 C610.75,310.35 613.48,310.32 616.14,308.75 C617.84,307.75 618.35,307.75 618.71,308.75 C618.96,309.44 619.73,310.00 620.43,310.00 C621.12,310.00 622.46,310.85 623.39,311.88 C624.74,313.37 625.03,315.30 624.80,321.13 C624.53,327.73 624.29,328.50 622.50,328.50 C620.71,328.50 620.47,327.74 620.21,321.34 C619.87,313.01 618.25,310.56 615.02,313.48 C613.55,314.81 613.02,316.83 612.79,321.87 C612.57,326.97 612.15,328.50 611.00,328.50 C609.86,328.50 609.37,326.77 608.93,321.23 C608.33,313.45 607.40,311.52 604.99,313.00 C603.98,313.63 603.34,316.25 603.00,321.20 ZM 680.95 327.10 C680.09,328.69 679.02,329.02 675.38,328.79 C671.77,328.56 670.28,327.86 667.94,325.28 C663.70,320.63 663.97,316.79 668.88,311.88 C672.57,308.19 678.00,306.48 678.00,309.00 C678.00,309.55 678.58,310.00 679.28,310.00 C682.42,310.00 685.69,317.84 683.19,319.38 C682.75,319.66 679.82,319.99 676.69,320.11 C673.00,320.26 671.00,320.77 671.00,321.56 C671.00,323.20 673.33,324.00 678.08,324.00 C682.35,324.00 682.51,324.18 680.95,327.10 ZM 489.25 328.36 C482.67,329.44 480.19,328.84 477.79,325.56 C476.36,323.61 476.28,322.80 477.29,320.62 C477.96,319.19 479.06,318.01 479.75,318.01 C480.44,318.00 481.00,317.58 481.00,317.06 C481.00,316.54 482.66,315.98 484.69,315.81 C488.25,315.51 488.32,315.44 486.56,313.69 C485.47,312.61 484.09,312.15 483.12,312.56 C479.26,314.15 478.00,314.20 478.00,312.73 C478.00,310.85 482.24,308.00 485.04,308.00 C486.20,308.00 488.47,309.32 490.08,310.92 C492.75,313.59 493.00,314.45 493.00,320.79 L 493.00 327.74 ZM 533.75 326.84 C532.94,329.94 526.95,329.43 521.80,325.83 C519.29,324.07 519.14,323.57 519.70,318.72 C520.17,314.61 520.94,312.92 523.33,310.75 C526.28,308.07 531.00,306.99 531.00,309.00 C531.00,309.55 531.87,310.00 532.93,310.00 C534.64,310.00 538.00,314.72 538.00,317.13 C538.00,318.75 532.43,320.65 528.67,320.30 C525.45,320.01 524.90,320.23 525.18,321.73 C525.44,323.08 526.83,323.64 531.01,324.09 C534.03,324.41 535.99,324.75 535.37,324.84 C534.74,324.93 534.02,325.83 533.75,326.84 ZM 576.38 327.45 C575.92,328.64 574.22,329.00 569.06,329.00 C565.36,329.00 562.03,328.70 561.67,328.33 C561.30,327.97 561.00,321.86 561.00,314.76 C561.00,301.95 561.02,301.86 563.25,302.18 C565.40,302.49 565.51,302.96 565.78,313.25 L 566.07 324.00 L 571.00 324.00 C575.19,324.00 575.84,324.25 575.30,325.66 C574.87,326.78 575.04,327.09 575.82,326.61 C576.58,326.14 576.77,326.43 576.38,327.45 ZM 511.40 328.40 C510.54,328.73 509.76,328.93 509.67,328.85 C509.58,328.77 508.38,328.52 507.00,328.31 C503.84,327.81 502.00,324.02 502.00,318.00 C502.00,315.47 501.44,312.84 500.76,312.16 C499.88,311.28 499.84,310.71 500.60,310.21 C501.20,309.82 501.99,308.26 502.37,306.75 C502.83,304.87 503.68,304.00 505.08,304.00 C506.20,304.00 506.87,304.41 506.56,304.91 C505.75,306.21 507.03,309.10 508.11,308.43 C508.61,308.12 509.30,308.61 509.65,309.52 C510.15,310.84 510.45,310.90 511.12,309.83 C511.73,308.87 511.97,309.11 511.98,310.68 C512.00,312.31 511.32,312.95 509.32,313.18 C507.03,313.45 506.62,314.01 506.46,317.00 C506.24,321.11 507.49,324.00 509.50,324.00 C510.29,324.00 511.39,324.86 511.95,325.90 C512.73,327.36 512.60,327.94 511.40,328.40 ZM 659.82 326.72 C659.36,329.16 653.09,329.67 650.87,327.45 C649.59,326.16 649.35,324.48 649.75,319.56 C650.22,313.70 650.10,313.26 647.99,312.71 C645.91,312.16 645.86,312.00 647.37,310.49 C648.26,309.59 649.27,307.77 649.61,306.43 C650.24,303.91 653.00,303.00 653.00,305.32 C653.00,306.05 654.12,307.62 655.50,308.81 C658.70,311.60 658.67,313.00 655.41,313.00 C652.93,313.00 652.85,313.17 653.49,317.25 C654.68,324.93 655.32,325.79 659.33,325.09 C659.78,325.01 660.01,325.75 659.82,326.72 ZM 463.50 327.00 C463.84,327.55 463.53,327.99 462.81,327.97 C460.98,327.92 458.40,324.10 457.54,320.17 C457.14,318.35 456.21,315.71 455.48,314.31 C454.76,312.90 454.39,311.14 454.68,310.39 C455.45,308.39 459.00,310.56 459.00,313.04 C459.00,314.12 459.45,315.00 460.00,315.00 C460.55,315.00 461.00,316.12 461.00,317.50 C461.00,318.88 461.34,320.00 461.76,320.00 C463.12,320.00 464.98,316.12 464.38,314.54 C464.05,313.69 464.23,313.00 464.78,313.00 C465.32,313.00 466.00,312.10 466.29,311.00 C466.86,308.81 471.02,308.15 470.97,310.25 C470.95,310.94 469.60,314.19 467.97,317.47 C466.34,320.76 465.00,324.02 465.00,324.72 C465.00,325.43 464.52,326.00 463.94,326.00 C463.36,326.00 463.16,326.45 463.50,327.00 ZM 425.81 322.42 C425.64,325.68 425.05,328.45 424.50,328.59 C421.61,329.30 421.00,327.62 421.00,319.02 C421.00,311.89 421.30,310.10 422.59,309.60 C423.46,309.27 424.63,309.27 425.19,309.61 C425.74,309.96 427.26,309.66 428.56,308.97 C430.48,307.94 431.23,307.94 432.47,308.97 C434.53,310.68 434.40,312.00 432.17,312.00 C428.63,312.00 426.14,316.08 425.81,322.42 ZM 588.92 327.60 C587.32,329.52 585.24,329.36 584.62,327.25 C584.34,326.29 583.98,321.90 583.82,317.50 L 583.53 309.50 L 589.50 309.50 L 589.79 317.85 C589.98,323.14 589.66,326.71 588.92,327.60 ZM 445.42 328.39 L 445.27 328.45 C444.31,328.82 443.84,329.00 443.45,328.89 C443.05,328.79 442.73,328.39 442.07,327.59 C441.33,326.69 441.08,323.95 441.39,320.09 C441.76,315.39 441.51,313.65 440.27,312.41 C438.92,311.06 438.89,310.68 440.09,309.92 C442.13,308.63 443.94,308.80 445.57,310.43 C447.71,312.57 447.58,327.56 445.42,328.39 ZM 638.25 322.50 C638.20,326.79 637.79,328.58 636.79,328.78 C634.44,329.27 634.00,327.94 634.00,320.33 C634.00,316.11 633.58,313.00 633.00,313.00 C632.45,313.00 632.00,312.10 632.00,311.00 C632.00,309.44 632.67,309.00 635.00,309.00 C638.33,309.00 638.39,309.24 638.25,322.50 ZM 65.04 220.52 C64.72,209.90 64.97,198.22 65.86,194.00 C69.16,178.24 72.47,151.79 73.09,137.66 C73.10,139.29 73.10,141.01 73.10,142.83 C73.05,152.91 72.72,161.65 72.35,162.25 C71.73,163.24 71.16,167.28 69.38,183.00 C69.04,186.02 68.35,189.01 67.86,189.62 C67.37,190.24 67.04,192.72 67.14,195.12 C67.24,197.53 66.80,201.92 66.16,204.89 C65.39,208.46 65.02,214.37 65.04,220.52 ZM 696.88 323.99 C697.92,324.60 698.32,324.88 698.74,324.90 C699.06,324.92 699.39,324.80 700.01,324.55 C700.13,324.50 700.27,324.45 700.42,324.39 C701.58,323.95 702.00,322.40 702.00,318.50 C702.00,312.71 700.69,311.29 697.50,313.63 C694.97,315.47 694.55,322.63 696.88,323.99 ZM 404.05 313.65 C405.56,315.16 409.84,314.09 410.49,312.03 C411.50,308.85 410.00,307.00 406.39,307.00 C403.34,307.00 403.00,307.28 403.00,309.80 C403.00,311.34 403.47,313.07 404.05,313.65 ZM 481.42 323.86 C483.02,326.46 488.79,323.51 487.69,320.64 C486.89,318.56 486.08,318.60 483.11,320.89 C481.77,321.91 481.02,323.23 481.42,323.86 ZM 589.00 304.43 C589.00,307.05 588.87,307.12 585.69,306.30 C583.20,305.65 584.00,302.57 586.76,302.18 C588.58,301.92 589.00,302.34 589.00,304.43 ZM 525.76 314.01 L 523.62 316.00 L 527.78 316.00 C530.96,316.00 531.81,315.67 531.39,314.58 C530.47,312.17 528.00,311.92 525.76,314.01 ZM 446.44 306.09 C445.95,306.89 443.12,307.42 442.93,306.75 C441.93,303.39 442.21,302.00 443.90,302.00 C445.86,302.00 447.42,304.51 446.44,306.09 ZM 672.00 315.12 C672.00,315.61 673.67,316.00 675.72,316.00 L 679.44 316.00 L 677.28 313.83 C675.46,312.02 674.85,311.88 673.55,312.95 C672.70,313.66 672.00,314.64 672.00,315.12 ZM 638.50 304.42 C638.50,305.47 638.05,306.45 637.50,306.58 C635.59,307.06 634.00,305.82 634.00,303.85 C634.00,302.36 634.56,301.94 636.25,302.18 C637.69,302.38 638.50,303.19 638.50,304.42 ZM 43.98 82.81 C43.42,82.56 42.83,82.29 42.24,82.00 C39.79,80.82 36.05,80.00 33.11,80.00 C30.36,80.00 27.84,79.55 27.50,79.00 C27.16,78.45 26.20,78.13 25.12,78.05 C29.76,78.14 34.19,78.83 37.71,80.12 C40.36,81.09 42.90,82.19 43.98,82.81 ZM 198.44 82.60 C198.46,82.60 198.48,82.59 198.50,82.58 C201.25,81.62 204.90,80.13 206.61,79.27 C208.07,78.53 211.34,78.15 215.16,78.08 C213.84,78.23 212.76,78.59 212.50,79.00 C212.16,79.55 210.67,79.99 209.19,79.99 C207.71,79.98 203.37,80.99 199.55,82.23 C199.16,82.36 198.80,82.48 198.44,82.60 ZM 56.71 91.77 C56.62,91.68 56.53,91.59 56.43,91.50 C52.76,87.98 50.27,85.78 48.73,84.73 C50.84,85.95 53.75,88.58 56.71,91.77 ZM 77.99 261.49 C77.65,260.81 76.76,259.85 75.87,259.21 C73.94,257.85 71.18,252.51 69.05,246.73 C71.27,252.62 74.16,258.09 76.06,259.27 C77.08,259.91 77.92,260.88 77.99,261.49 ZM 72.50 123.66 C72.11,120.45 71.59,117.43 71.03,115.16 C71.69,117.44 72.17,120.18 72.50,123.66 ZM 67.62 106.89 C67.41,106.44 67.18,105.98 66.93,105.51 C67.18,105.99 67.41,106.45 67.62,106.89 Z" fill="rgb(166,183,199)"/>
<path d="M 0.00 247.00 C0.00,93.70 0.08,86.00 1.77,86.00 C3.70,86.00 12.19,92.63 14.89,96.24 C16.43,98.31 20.12,105.65 22.05,110.50 C22.49,111.60 23.20,114.53 23.62,117.00 C24.79,123.78 24.44,161.86 23.08,175.50 C21.27,193.78 20.94,200.75 20.90,222.88 C20.88,236.03 21.25,243.65 21.93,244.33 C22.52,244.92 23.00,246.86 23.00,248.64 C23.00,250.42 23.45,252.16 24.00,252.50 C24.55,252.84 25.00,254.22 25.00,255.56 C25.00,256.90 25.34,258.00 25.76,258.00 C26.18,258.00 27.32,259.83 28.29,262.07 C31.93,270.47 40.21,277.23 52.62,281.95 C57.55,283.82 84.00,282.09 84.00,279.89 C84.00,279.40 85.32,279.00 86.94,279.00 C88.56,279.00 90.16,278.55 90.50,278.00 C90.84,277.45 92.22,277.00 93.56,277.00 C95.35,277.00 96.00,276.46 96.00,274.97 C96.00,273.85 95.21,272.68 94.25,272.37 C87.98,270.35 78.00,263.71 78.00,261.57 C78.00,260.97 77.13,259.94 76.06,259.27 C73.00,257.36 67.35,244.30 66.11,236.31 C64.67,226.96 64.69,211.70 66.16,204.89 C66.80,201.92 67.24,197.53 67.14,195.12 C67.04,192.72 67.37,190.24 67.86,189.62 C68.35,189.01 69.04,186.02 69.38,183.00 C71.16,167.28 71.73,163.24 72.35,162.25 C72.72,161.65 73.05,152.91 73.10,142.83 C73.17,125.70 72.35,117.67 69.98,112.25 C69.44,111.01 68.45,108.76 67.78,107.25 C63.98,98.68 50.66,84.00 46.69,84.00 C45.98,84.00 44.97,83.61 44.45,83.12 C43.93,82.64 40.90,81.29 37.71,80.12 C29.46,77.09 16.25,77.40 7.00,80.83 C6.18,81.14 5.00,81.42 4.39,81.46 C3.77,81.50 2.54,82.14 1.64,82.89 C0.13,84.14 0.00,81.00 0.00,42.12 L 0.00 0.00 L 355.50 0.00 L 711.00 0.00 L 711.00 133.03 L 711.00 266.06 L 697.25 265.78 L 683.50 265.50 L 683.34 238.50 L 683.18 211.50 L 680.54 210.54 C678.77,209.90 677.33,209.93 676.20,210.65 C674.67,211.61 674.47,214.75 674.23,241.54 C674.09,258.29 674.36,271.76 674.87,272.27 C675.36,272.76 683.70,273.11 693.38,273.05 L 711.00 272.93 L 711.00 340.46 L 711.00 408.00 L 355.50 408.00 L 0.00 408.00 L 0.00 247.00 ZM 402.80 323.74 C403.12,318.84 403.67,318.41 409.06,318.92 C411.46,319.14 416.00,313.42 416.00,310.17 C416.00,308.27 415.00,306.44 412.95,304.62 C410.28,302.23 409.22,301.94 404.20,302.20 L 398.50 302.50 L 398.22 314.44 C397.90,327.67 398.19,329.30 400.75,328.81 C402.07,328.56 402.57,327.32 402.80,323.74 ZM 425.81 322.42 C426.14,316.08 428.63,312.00 432.17,312.00 C434.40,312.00 434.53,310.68 432.47,308.97 C431.23,307.94 430.48,307.94 428.56,308.97 C427.26,309.66 425.74,309.96 425.19,309.61 C424.63,309.27 423.46,309.27 422.59,309.60 C421.30,310.10 421.00,311.89 421.00,319.02 C421.00,327.62 421.61,329.30 424.50,328.59 C425.05,328.45 425.64,325.68 425.81,322.42 ZM 445.42 328.39 C447.58,327.56 447.71,312.57 445.57,310.43 C443.94,308.80 442.13,308.63 440.09,309.92 C438.89,310.68 438.92,311.06 440.27,312.41 C441.51,313.65 441.76,315.39 441.39,320.09 C441.08,323.95 441.33,326.69 442.07,327.59 C443.42,329.21 443.34,329.19 445.42,328.39 ZM 489.25 328.36 L 493.00 327.74 L 493.00 320.79 C493.00,314.45 492.75,313.59 490.08,310.92 C488.47,309.32 486.20,308.00 485.04,308.00 C482.24,308.00 478.00,310.85 478.00,312.73 C478.00,314.20 479.26,314.15 483.12,312.56 C484.09,312.15 485.47,312.61 486.56,313.69 C488.32,315.44 488.25,315.51 484.69,315.81 C482.66,315.98 481.00,316.54 481.00,317.06 C481.00,317.58 480.44,318.00 479.75,318.01 C479.06,318.01 477.96,319.19 477.29,320.62 C476.28,322.80 476.36,323.61 477.79,325.56 C480.19,328.84 482.67,329.44 489.25,328.36 ZM 511.40 328.40 C512.60,327.94 512.73,327.36 511.95,325.90 C511.39,324.86 510.29,324.00 509.50,324.00 C507.49,324.00 506.24,321.11 506.46,317.00 C506.62,314.01 507.03,313.45 509.32,313.18 C511.32,312.95 512.00,312.31 511.98,310.68 C511.97,309.11 511.73,308.87 511.12,309.83 C510.45,310.90 510.15,310.84 509.65,309.52 C509.30,308.61 508.61,308.12 508.11,308.43 C507.03,309.10 505.75,306.21 506.56,304.91 C506.87,304.41 506.20,304.00 505.08,304.00 C503.68,304.00 502.83,304.87 502.37,306.75 C501.99,308.26 501.20,309.82 500.60,310.21 C499.84,310.71 499.88,311.28 500.76,312.16 C501.44,312.84 502.00,315.47 502.00,318.00 C502.00,324.02 503.84,327.81 507.00,328.31 C508.38,328.52 509.58,328.77 509.67,328.85 C509.76,328.93 510.54,328.73 511.40,328.40 ZM 533.75 326.84 C534.02,325.83 534.74,324.93 535.37,324.84 C535.99,324.75 534.03,324.41 531.01,324.09 C526.83,323.64 525.44,323.08 525.18,321.73 C524.90,320.23 525.45,320.01 528.67,320.30 C532.43,320.65 538.00,318.75 538.00,317.13 C538.00,314.72 534.64,310.00 532.93,310.00 C531.87,310.00 531.00,309.55 531.00,309.00 C531.00,306.99 526.28,308.07 523.33,310.75 C520.94,312.92 520.17,314.61 519.70,318.72 C519.14,323.57 519.29,324.07 521.80,325.83 C526.95,329.43 532.94,329.94 533.75,326.84 ZM 576.38 327.45 C576.77,326.43 576.58,326.14 575.82,326.61 C575.04,327.09 574.87,326.78 575.30,325.66 C575.84,324.25 575.19,324.00 571.00,324.00 L 566.07 324.00 L 565.78 313.25 C565.51,302.96 565.40,302.49 563.25,302.18 C561.02,301.86 561.00,301.95 561.00,314.76 C561.00,321.86 561.30,327.97 561.67,328.33 C562.03,328.70 565.36,329.00 569.06,329.00 C574.22,329.00 575.92,328.64 576.38,327.45 ZM 588.92 327.60 C589.66,326.71 589.98,323.14 589.79,317.85 L 589.50 309.50 L 586.51 309.50 L 583.53 309.50 L 583.82 317.50 C583.98,321.90 584.34,326.29 584.62,327.25 C585.24,329.36 587.32,329.52 588.92,327.60 ZM 603.00 321.20 C603.34,316.25 603.98,313.63 604.99,313.00 C607.40,311.52 608.33,313.45 608.93,321.23 C609.37,326.77 609.86,328.50 611.00,328.50 C612.15,328.50 612.57,326.97 612.79,321.87 C613.02,316.83 613.55,314.81 615.02,313.48 C618.25,310.56 619.87,313.01 620.21,321.34 C620.47,327.74 620.71,328.50 622.50,328.50 C624.29,328.50 624.53,327.73 624.80,321.13 C625.03,315.30 624.74,313.37 623.39,311.88 C622.46,310.85 621.12,310.00 620.43,310.00 C619.73,310.00 618.96,309.44 618.71,308.75 C618.35,307.75 617.84,307.75 616.14,308.75 C613.48,310.32 610.75,310.35 609.22,308.82 C608.31,307.91 607.47,307.94 605.60,308.95 C604.21,309.69 602.04,309.98 600.58,309.61 L 598.00 308.96 L 598.00 318.31 C598.00,328.02 598.35,329.27 600.95,328.78 C602.12,328.55 602.62,326.71 603.00,321.20 ZM 638.25 322.50 C638.39,309.24 638.33,309.00 635.00,309.00 C632.67,309.00 632.00,309.44 632.00,311.00 C632.00,312.10 632.45,313.00 633.00,313.00 C633.58,313.00 634.00,316.11 634.00,320.33 C634.00,327.94 634.44,329.27 636.79,328.78 C637.79,328.58 638.20,326.79 638.25,322.50 ZM 659.82 326.72 C660.01,325.75 659.78,325.01 659.33,325.09 C655.32,325.79 654.68,324.93 653.49,317.25 C652.85,313.17 652.93,313.00 655.41,313.00 C658.67,313.00 658.70,311.60 655.50,308.81 C654.12,307.62 653.00,306.05 653.00,305.32 C653.00,303.00 650.24,303.91 649.61,306.43 C649.27,307.77 648.26,309.59 647.37,310.49 C645.86,312.00 645.91,312.16 647.99,312.71 C650.10,313.26 650.22,313.70 649.75,319.56 C649.35,324.48 649.59,326.16 650.87,327.45 C653.09,329.67 659.36,329.16 659.82,326.72 ZM 680.95 327.10 C682.51,324.18 682.35,324.00 678.08,324.00 C673.33,324.00 671.00,323.20 671.00,321.56 C671.00,320.77 673.00,320.26 676.69,320.11 C679.82,319.99 682.75,319.66 683.19,319.38 C685.69,317.84 682.42,310.00 679.28,310.00 C678.58,310.00 678.00,309.55 678.00,309.00 C678.00,306.48 672.57,308.19 668.88,311.88 C663.97,316.79 663.70,320.63 667.94,325.28 C670.28,327.86 671.77,328.56 675.38,328.79 C679.02,329.02 680.09,328.69 680.95,327.10 ZM 706.78 328.18 C707.74,327.56 707.99,324.18 707.78,314.93 L 707.50 302.52 L 705.00 302.51 C702.91,302.50 702.48,302.99 702.38,305.50 C702.20,310.18 702.08,310.48 700.80,309.20 C700.14,308.54 699.10,308.00 698.48,308.00 C696.57,308.00 691.34,313.37 690.68,316.00 C689.81,319.50 691.00,326.00 692.52,326.00 C693.22,326.00 694.01,326.60 694.29,327.32 C694.88,328.84 704.73,329.52 706.78,328.18 ZM 463.50 327.00 C463.16,326.45 463.36,326.00 463.94,326.00 C464.52,326.00 465.00,325.43 465.00,324.72 C465.00,324.02 466.34,320.76 467.97,317.47 C469.60,314.19 470.95,310.94 470.97,310.25 C471.02,308.15 466.86,308.81 466.29,311.00 C466.00,312.10 465.32,313.00 464.78,313.00 C464.23,313.00 464.05,313.69 464.38,314.54 C464.98,316.12 463.12,320.00 461.76,320.00 C461.34,320.00 461.00,318.88 461.00,317.50 C461.00,316.12 460.55,315.00 460.00,315.00 C459.45,315.00 459.00,314.12 459.00,313.04 C459.00,310.56 455.45,308.39 454.68,310.39 C454.39,311.14 454.76,312.90 455.48,314.31 C456.21,315.71 457.14,318.35 457.54,320.17 C458.40,324.10 460.98,327.92 462.81,327.97 C463.53,327.99 463.84,327.55 463.50,327.00 ZM 446.44 306.09 C447.42,304.51 445.86,302.00 443.90,302.00 C442.21,302.00 441.93,303.39 442.93,306.75 C443.12,307.42 445.95,306.89 446.44,306.09 ZM 589.00 304.43 C589.00,302.34 588.58,301.92 586.76,302.18 C584.00,302.57 583.20,305.65 585.69,306.30 C588.87,307.12 589.00,307.05 589.00,304.43 ZM 638.50 304.42 C638.50,303.19 637.69,302.38 636.25,302.18 C634.56,301.94 634.00,302.36 634.00,303.85 C634.00,305.82 635.59,307.06 637.50,306.58 C638.05,306.45 638.50,305.47 638.50,304.42 ZM 187.50 282.00 C187.84,281.45 189.44,281.00 191.06,281.00 C192.68,281.00 194.00,280.59 194.00,280.08 C194.00,279.57 195.30,278.87 196.88,278.53 C200.27,277.78 209.99,268.00 212.07,263.25 C212.85,261.46 213.83,260.00 214.24,260.00 C214.66,260.00 215.00,258.88 215.00,257.50 C215.00,256.12 215.45,255.00 216.00,255.00 C216.55,255.00 217.00,253.90 217.00,252.56 C217.00,251.22 217.39,249.88 217.86,249.59 C220.51,247.95 221.32,209.73 219.17,187.50 C217.70,172.24 215.72,144.72 215.73,139.50 C215.73,131.63 217.31,115.92 218.15,115.41 C218.62,115.12 219.00,113.78 219.00,112.43 C219.00,111.08 219.40,109.19 219.88,108.24 C220.37,107.28 221.38,105.15 222.13,103.50 C222.88,101.85 224.05,99.92 224.71,99.21 C225.38,98.51 226.68,96.71 227.59,95.21 C229.29,92.43 237.26,86.00 239.02,86.00 C239.56,86.00 240.00,85.10 240.00,84.00 C240.00,82.23 239.62,81.94 237.49,82.02 C237.21,82.03 235.55,81.30 233.81,80.40 C229.08,77.96 210.73,77.19 206.61,79.27 C204.90,80.13 201.25,81.62 198.50,82.58 C195.75,83.55 192.57,85.16 191.44,86.17 C190.30,87.18 188.88,88.00 188.29,88.00 C186.81,88.00 177.00,99.02 177.00,100.67 C177.00,101.40 176.66,102.00 176.25,102.01 C175.35,102.02 173.00,106.86 173.00,108.70 C173.00,109.41 172.55,110.00 172.00,110.00 C171.45,110.00 171.00,111.10 171.00,112.44 C171.00,113.78 170.60,115.13 170.11,115.43 C167.59,116.99 166.82,145.96 168.89,161.00 C169.53,165.68 170.29,171.75 170.58,174.50 C170.86,177.25 171.49,180.40 171.98,181.50 C172.46,182.60 173.12,185.98 173.44,189.00 C173.76,192.02 174.52,199.23 175.14,205.00 C175.75,210.77 176.25,217.75 176.24,220.50 C176.21,228.52 174.81,241.00 173.87,241.58 C173.39,241.88 173.00,243.22 173.00,244.56 C173.00,245.90 172.55,247.00 172.00,247.00 C171.45,247.00 171.00,248.12 171.00,249.50 C171.00,250.88 170.55,252.00 170.00,252.00 C169.45,252.00 169.00,252.48 169.00,253.07 C169.00,257.21 152.07,273.00 147.63,273.00 C146.67,273.00 146.00,273.82 146.00,275.00 C146.00,276.47 146.67,277.00 148.50,277.00 C149.88,277.00 151.00,277.45 151.00,278.00 C151.00,278.55 152.32,279.00 153.94,279.00 C155.56,279.00 157.16,279.45 157.50,280.00 C157.84,280.55 159.55,281.01 161.31,281.02 C163.06,281.02 165.18,281.47 166.00,282.00 C167.99,283.29 186.71,283.29 187.50,282.00 ZM 290.95 272.03 C293.07,270.94 295.79,268.81 297.00,267.28 C301.66,261.35 302.00,259.10 302.00,234.40 L 302.00 211.04 L 299.58 210.43 C298.25,210.10 296.34,209.98 295.33,210.17 C293.63,210.50 293.46,212.29 293.00,234.51 C292.52,257.54 292.41,258.63 290.20,261.73 C285.62,268.15 275.41,268.51 270.08,262.43 C268.38,260.51 266.91,258.83 266.80,258.72 C266.68,258.60 266.35,247.70 266.05,234.50 L 265.50 210.50 L 261.75 210.19 C259.18,209.98 257.98,210.29 257.95,211.19 C257.53,221.98 258.32,259.39 259.02,262.04 C259.93,265.47 264.44,270.60 268.50,272.84 C269.60,273.44 274.23,273.95 278.79,273.97 C285.11,273.99 288.00,273.53 290.95,272.03 ZM 321.37 272.72 C322.96,271.56 323.09,269.51 322.81,250.72 C322.61,237.35 322.85,230.01 323.50,230.03 C324.05,230.05 326.96,233.76 329.97,238.28 C332.97,242.80 335.71,246.73 336.05,247.00 C336.39,247.27 338.98,250.88 341.82,255.00 C355.48,274.84 356.28,275.77 357.14,272.75 C357.34,272.06 357.37,257.87 357.22,241.21 C356.92,208.36 357.04,209.02 351.44,210.42 L 348.89 211.06 L 349.06 230.78 C349.15,241.63 348.90,250.65 348.49,250.84 C348.08,251.03 344.32,246.46 340.13,240.69 C335.93,234.92 329.35,225.87 325.50,220.59 C314.74,205.82 314.98,205.35 314.86,241.65 C314.80,258.23 315.06,272.29 315.44,272.90 C316.35,274.38 319.22,274.29 321.37,272.72 ZM 379.75 272.70 C380.70,271.98 381.00,264.63 381.00,242.00 C381.00,209.54 381.00,209.53 375.31,210.18 L 372.50 210.50 L 372.24 240.88 C372.05,261.56 372.32,271.68 373.05,272.56 C374.28,274.04 377.88,274.11 379.75,272.70 ZM 416.79 272.63 C417.69,272.08 418.00,264.92 418.00,244.98 L 418.00 218.07 L 428.25 217.78 C438.44,217.50 438.50,217.49 438.80,214.91 C439.35,210.18 438.02,209.94 412.87,210.23 L 389.50 210.50 L 389.50 214.00 L 389.50 217.50 L 399.25 217.79 L 409.00 218.07 L 409.00 244.84 C409.00,263.24 409.35,271.95 410.12,272.72 C411.31,273.91 414.79,273.86 416.79,272.63 ZM 483.00 268.88 L 483.00 266.00 L 469.62 266.00 C459.39,266.00 455.97,265.67 455.08,264.60 C454.33,263.69 454.03,259.76 454.21,253.35 L 454.50 243.50 L 464.50 243.00 L 474.50 242.50 L 474.81 239.29 L 475.12 236.07 L 464.81 235.79 L 454.50 235.50 L 454.50 227.00 L 454.50 218.50 L 468.50 218.00 L 482.50 217.50 L 482.50 214.00 L 482.50 210.50 L 466.50 210.21 C457.70,210.06 449.49,210.18 448.25,210.48 L 446.00 211.04 L 446.00 242.00 L 446.00 272.95 L 463.25 273.23 C472.74,273.38 481.06,273.11 481.75,272.63 C482.44,272.15 483.00,270.46 483.00,268.88 ZM 596.21 271.74 C602.40,268.00 605.00,263.56 605.00,256.76 C605.00,247.27 601.92,243.39 589.80,237.61 C582.68,234.22 579.00,230.06 579.00,225.38 C579.00,218.05 586.01,215.13 595.49,218.51 C599.85,220.06 600.44,219.80 601.38,215.81 C602.37,211.58 599.18,210.00 589.66,210.00 C579.68,210.00 575.03,212.29 572.03,218.66 C569.46,224.14 569.47,227.88 572.07,233.42 C574.32,238.20 578.21,241.31 587.27,245.55 C597.09,250.15 599.72,256.93 594.11,263.20 C591.53,266.09 590.66,266.43 585.86,266.40 C582.71,266.39 579.12,265.65 577.14,264.60 C573.34,262.60 572.32,263.16 571.41,267.69 C570.51,272.20 574.08,273.91 584.50,273.95 C591.06,273.98 593.17,273.59 596.21,271.74 ZM 650.66 271.02 C660.32,265.48 664.00,257.16 664.00,240.85 C664.00,232.29 663.59,229.21 661.94,225.33 C659.31,219.17 654.67,214.29 649.17,211.89 C643.69,209.50 631.69,209.31 627.22,211.54 C623.12,213.58 618.49,218.99 615.47,225.26 C613.29,229.77 613.00,231.71 613.00,241.70 C613.00,247.93 613.40,253.81 613.88,254.76 C614.37,255.72 615.37,257.85 616.10,259.50 C618.51,264.94 621.25,268.20 625.85,271.12 C629.83,273.64 631.33,274.00 637.95,273.99 C644.48,273.98 646.20,273.58 650.66,271.02 ZM 518.07 271.41 C524.98,269.38 532.00,262.35 534.38,255.08 C536.84,247.57 536.61,230.64 533.99,225.21 C528.79,214.44 519.87,210.00 503.46,210.00 L 493.00 210.00 L 493.00 241.50 L 493.00 273.00 L 502.82 273.00 C508.86,273.00 514.73,272.39 518.07,271.41 ZM 404.05 313.65 C403.47,313.07 403.00,311.34 403.00,309.80 C403.00,307.28 403.34,307.00 406.39,307.00 C410.00,307.00 411.50,308.85 410.49,312.03 C409.84,314.09 405.56,315.16 404.05,313.65 ZM 481.42 323.86 C481.02,323.23 481.77,321.91 483.11,320.89 C486.08,318.60 486.89,318.56 487.69,320.64 C488.79,323.51 483.02,326.46 481.42,323.86 ZM 525.76 314.01 C528.00,311.92 530.47,312.17 531.39,314.58 C531.81,315.67 530.96,316.00 527.78,316.00 L 523.62 316.00 L 525.76 314.01 ZM 672.00 315.12 C672.00,314.64 672.70,313.66 673.55,312.95 C674.85,311.88 675.46,312.02 677.28,313.83 L 679.44 316.00 L 675.72 316.00 C673.67,316.00 672.00,315.61 672.00,315.12 ZM 696.88 323.99 C694.55,322.63 694.97,315.47 697.50,313.63 C700.69,311.29 702.00,312.71 702.00,318.50 C702.00,322.40 701.58,323.95 700.42,324.39 C698.53,325.12 698.87,325.15 696.88,323.99 ZM 632.50 265.66 C627.34,263.33 623.91,257.51 621.97,247.75 C619.82,236.89 623.00,224.33 629.07,219.80 C637.14,213.77 651.15,218.78 653.96,228.70 C658.14,243.48 654.70,259.20 646.17,264.24 C642.11,266.64 636.06,267.27 632.50,265.66 ZM 502.20 264.74 C501.28,263.63 501.03,257.50 501.23,240.87 L 501.50 218.50 L 507.70 218.20 C521.33,217.55 529.26,227.30 527.69,242.77 C526.56,253.90 523.27,260.26 516.97,263.52 C512.55,265.80 503.69,266.53 502.20,264.74 Z" fill="rgb(254,254,254)"/>
</g>
</svg>