<?xml version="1.0" standalone="no"?>
<!DOCTYPE svg PUBLIC "-//W3C//DTD SVG 20010904//EN"
 "http://www.w3.org/TR/2001/REC-SVG-20010904/DTD/svg10.dtd">
<svg version="1.0" xmlns="http://www.w3.org/2000/svg"
 width="290.000000pt" height="85.000000pt" viewBox="0 0 290.000000 85.000000"
 preserveAspectRatio="xMidYMid meet">

<g transform="translate(0.000000,85.000000) scale(0.100000,-0.100000)"
fill="#000000" stroke="none">
<path d="M0 425 l0 -425 1450 0 1450 0 0 425 0 425 -1450 0 -1450 0 0 -425z
m448 239 l132 -76 0 -153 0 -153 -131 -76 c-72 -42 -132 -76 -134 -76 -2 0
-62 34 -134 76 l-131 76 0 153 0 153 128 75 c70 42 130 76 133 76 3 1 65 -33
137 -75z m502 -19 c0 -22 -4 -25 -35 -25 l-35 0 0 -100 0 -100 -30 0 -30 0 0
100 0 100 -35 0 c-31 0 -35 3 -35 25 l0 25 100 0 100 0 0 -25z m90 -25 l0 -50
50 0 50 0 0 50 c0 49 1 50 30 50 l30 0 0 -125 0 -125 -30 0 c-30 0 -30 1 -30
55 l0 55 -50 0 -50 0 0 -55 c0 -54 0 -55 -30 -55 l-30 0 0 125 0 125 30 0 c29
0 30 -1 30 -50z m370 25 c0 -23 -3 -25 -50 -25 -47 0 -50 -2 -50 -25 0 -22 4
-25 40 -25 33 0 40 -3 40 -20 0 -17 -7 -20 -40 -20 -38 0 -40 -2 -40 -30 0
-29 1 -30 50 -30 47 0 50 -2 50 -25 0 -25 -1 -25 -80 -25 l-80 0 0 125 0 125
80 0 c79 0 80 0 80 -25z m186 -54 c11 -41 23 -70 26 -65 3 5 15 40 28 77 20
62 24 68 47 65 22 -3 28 -12 45 -68 11 -36 23 -68 27 -72 4 -4 15 24 25 63 18
71 28 83 64 77 19 -3 19 -8 -18 -123 -36 -114 -39 -120 -67 -123 -28 -3 -29 0
-54 80 l-26 83 -24 -80 c-24 -74 -27 -80 -55 -83 -29 -3 -29 -2 -63 105 -18
59 -36 116 -39 126 -4 16 0 18 29 15 33 -3 35 -5 55 -77z m472 57 c-3 -20 -10
-23 -55 -26 -49 -3 -53 -5 -53 -28 0 -21 4 -24 40 -24 33 0 40 -3 40 -20 0
-17 -7 -20 -40 -20 -38 0 -40 -2 -40 -29 0 -29 2 -30 53 -33 45 -3 52 -6 55
-25 3 -22 1 -23 -82 -23 l-86 0 0 125 0 125 86 0 c83 0 85 -1 82 -22z m200 0
c-3 -20 -10 -23 -55 -26 -49 -3 -53 -5 -53 -28 0 -21 4 -24 40 -24 33 0 40 -3
40 -20 0 -17 -7 -20 -40 -20 -38 0 -40 -2 -40 -29 0 -29 2 -30 53 -33 45 -3
52 -6 55 -25 3 -22 1 -23 -82 -23 l-86 0 0 125 0 125 86 0 c83 0 85 -1 82 -22z
m92 -28 c0 -27 4 -50 10 -50 5 0 27 23 47 50 l38 51 65 -3 65 -3 25 -47 c14
-27 28 -48 31 -48 3 0 16 23 29 50 21 46 26 50 58 50 l34 0 -28 -47 c-15 -27
-36 -61 -46 -78 -11 -18 -18 -49 -18 -77 0 -47 -1 -48 -30 -48 -29 0 -30 2
-30 45 0 35 -10 63 -42 120 -24 41 -45 75 -48 74 -3 0 -22 -22 -43 -50 l-38
-49 45 -70 46 -70 -35 0 c-31 0 -39 6 -71 55 -20 30 -43 55 -50 55 -10 0 -14
-15 -14 -55 0 -54 0 -55 -30 -55 l-30 0 0 125 0 125 30 0 c29 0 30 -1 30 -50z
m-1665 -412 l7 -31 16 34 15 34 10 -27 c13 -32 27 -37 27 -9 0 11 5 23 12 27
8 5 9 2 5 -10 -4 -10 -10 -29 -13 -42 -8 -31 -20 -31 -28 1 -8 33 -22 32 -30
-1 -4 -15 -11 -23 -15 -18 -14 15 -31 74 -21 74 5 0 12 -14 15 -32z m158 25
c-13 -2 -23 -9 -23 -14 0 -5 10 -10 23 -10 l22 -2 -22 -4 c-13 -2 -23 -11 -23
-18 0 -7 10 -16 23 -18 19 -4 18 -4 -5 -6 -26 -1 -28 2 -28 39 0 37 2 40 28
39 23 -2 24 -2 5 -6z m104 -13 c-3 -11 -1 -23 4 -26 14 -9 -10 -34 -32 -34
-15 0 -19 8 -19 40 0 36 2 40 26 40 21 0 25 -4 21 -20z m147 -2 c15 -25 -3
-52 -38 -56 -24 -3 -26 -1 -26 38 0 39 2 41 26 38 15 -2 32 -11 38 -20z m79
15 c-27 -5 -31 -22 -5 -24 16 -1 16 -2 0 -6 -26 -6 -22 -31 5 -36 19 -4 18 -4
-5 -6 -26 -1 -28 2 -28 39 0 37 2 40 28 39 23 -2 24 -2 5 -6z m63 -25 l16 -32
14 32 c7 18 16 32 19 32 3 0 -2 -16 -10 -36 -8 -20 -15 -38 -15 -40 0 -2 -4
-4 -8 -4 -5 0 -16 18 -25 40 -19 48 -14 52 9 8z m117 25 c-27 -5 -31 -22 -5
-24 16 -1 16 -2 0 -6 -26 -6 -22 -31 5 -36 19 -4 18 -4 -5 -6 -26 -1 -28 2
-28 39 0 37 2 40 28 39 23 -2 24 -2 5 -6z m80 -66 c18 -4 17 -5 -5 -6 -27 -1
-28 1 -26 42 l1 42 4 -37 c3 -28 9 -38 26 -41z m115 61 c30 -30 0 -75 -43 -64
-19 5 -25 13 -25 35 0 38 41 56 68 29z m100 -11 c3 -12 -4 -20 -17 -24 -12 -3
-21 -12 -21 -19 0 -8 -4 -14 -10 -14 -5 0 -10 18 -10 41 0 38 2 40 27 37 17
-2 29 -10 31 -21z m62 -2 c10 -19 16 -22 27 -14 8 7 13 8 13 1 0 -5 -6 -15
-13 -21 -11 -8 -17 -5 -27 17 l-14 27 -7 -35 -6 -35 -2 43 c-1 47 9 54 29 17z
m59 -17 l-1 -43 -8 35 c-8 32 -6 50 6 50 2 0 4 -19 3 -42z m74 35 c-13 -2 -23
-9 -23 -14 0 -5 10 -10 23 -10 l22 -2 -22 -4 c-13 -2 -23 -11 -23 -18 0 -7 10
-16 23 -18 19 -4 18 -4 -5 -6 -26 -1 -28 2 -28 39 0 37 2 40 28 39 23 -2 24
-2 5 -6z m118 -23 l6 35 2 -42 c0 -24 -2 -43 -5 -43 -3 0 -16 12 -28 27 l-21
27 -6 -29 c-6 -26 -7 -24 -8 15 l-1 45 28 -35 27 -35 6 35z m87 23 c-13 -3
-19 -16 -20 -41 l-1 -37 -4 37 c-3 24 -10 38 -21 41 -9 3 1 5 23 5 22 0 32 -2
23 -5z m122 -2 c-34 -9 -36 -56 -3 -55 12 0 20 -3 17 -8 -14 -23 -64 5 -64 36
0 13 34 36 53 35 20 -1 20 -2 -3 -8z m124 -7 c9 -8 16 -19 16 -24 0 -15 -31
-40 -49 -40 -21 0 -41 19 -41 40 0 38 46 53 74 24z m107 -11 c18 39 29 33 27
-15 -1 -40 -2 -40 -5 -9 l-5 34 -18 -28 -18 -27 -13 23 -13 24 -7 -30 c-6 -26
-7 -25 -8 15 l-1 45 24 -30 24 -30 13 28z m117 4 c2 -12 -4 -20 -17 -24 -11
-3 -22 -12 -24 -22 -3 -9 -5 3 -6 27 -1 39 1 43 21 40 13 -2 24 -11 26 -21z
m87 -14 c8 -20 13 -38 10 -41 -3 -3 -5 0 -5 6 0 16 -50 15 -51 0 0 -10 -2 -10
-5 -1 -5 11 22 73 31 73 3 0 12 -16 20 -37z m79 10 l21 -27 6 29 c6 26 7 23 8
-15 l0 -45 -28 35 -29 35 -5 -35 c-4 -33 -4 -33 -5 8 -1 23 1 42 4 42 3 0 16
-12 28 -27z m119 11 c19 21 19 21 3 -6 -9 -15 -17 -35 -17 -45 -1 -16 -2 -15
-6 2 -3 10 -12 31 -20 45 -15 25 -15 25 3 4 l19 -21 18 21z"/>
<path d="M183 643 l-113 -65 0 -143 0 -142 117 -68 c65 -38 122 -68 128 -68 6
0 63 30 128 68 l117 68 0 142 0 143 -116 66 c-64 36 -124 66 -133 65 -9 -1
-67 -30 -128 -66z m140 -165 c5 -21 13 -38 17 -38 4 0 12 17 17 38 13 54 42
51 62 -8 l15 -45 11 45 c8 34 16 46 32 48 l21 3 -22 -73 c-18 -57 -27 -74 -43
-76 -17 -3 -23 5 -33 45 -13 51 -14 50 -40 -20 -16 -45 -40 -30 -64 38 -19 55
-23 60 -48 57 -27 -3 -28 -5 -28 -63 0 -46 -3 -59 -15 -59 -12 0 -15 13 -15
60 0 57 -1 60 -25 60 -16 0 -25 6 -25 15 0 13 14 15 87 13 l87 -3 9 -37z"/>
<path d="M920 220 c0 -5 7 -10 15 -10 8 0 15 5 15 10 0 6 -7 10 -15 10 -8 0
-15 -4 -15 -10z"/>
<path d="M920 185 c0 -8 7 -15 15 -15 8 0 15 7 15 15 0 8 -7 15 -15 15 -8 0
-15 -7 -15 -15z"/>
<path d="M1050 200 c0 -27 3 -31 23 -28 16 2 22 10 22 28 0 18 -6 26 -22 28
-20 3 -23 -1 -23 -28z"/>
<path d="M1504 215 c-9 -23 3 -45 25 -45 10 0 21 7 25 15 8 23 -4 45 -25 45
-11 0 -22 -7 -25 -15z"/>
<path d="M1620 214 c0 -17 22 -14 28 4 2 7 -3 12 -12 12 -9 0 -16 -7 -16 -16z"/>
<path d="M2250 215 c-11 -13 -11 -19 3 -32 21 -21 49 -9 45 19 -4 28 -30 35
-48 13z"/>
<path d="M2490 215 c0 -8 7 -15 15 -15 8 0 15 7 15 15 0 8 -7 15 -15 15 -8 0
-15 -7 -15 -15z"/>
<path d="M2585 210 c-8 -13 -1 -24 14 -19 6 3 7 10 2 18 -6 10 -10 10 -16 1z"/>
</g>
</svg>
