<svg width="390" height="390" viewBox="0 0 390 390" fill="none" xmlns="http://www.w3.org/2000/svg">
<rect width="390" height="390" fill="white"/>
<g clip-path="url(#clip0_11003_269)">
<path fill-rule="evenodd" clip-rule="evenodd" d="M169.902 153.5C162.407 153.5 157.527 155.946 153.17 164.159L133.301 201.727V168.353C133.301 158.393 128.595 153.5 119.88 153.5C111.166 153.5 107.505 156.471 103.148 164.858L84.3246 201.727V168.702C84.3246 158.043 79.9673 153.5 69.3355 153.5H47.7233C39.5316 153.5 35 157.344 35 164.334C35 171.323 39.3573 175.517 47.3747 175.517H56.2636V217.628C56.2636 229.511 64.281 236.5 75.7843 236.5C87.2876 236.5 92.5163 231.957 98.268 221.298L110.817 197.708V217.628C110.817 229.336 118.486 236.5 130.163 236.5C141.841 236.5 146.198 232.481 152.821 221.298L181.754 172.372C188.028 161.713 183.671 153.5 169.728 153.5C169.728 153.5 169.728 153.5 169.902 153.5Z" fill="#873EFF"/>
<path fill-rule="evenodd" clip-rule="evenodd" d="M224.281 153.5C200.577 153.5 182.625 171.148 182.625 195.087C182.625 219.026 200.752 236.5 224.281 236.5C247.81 236.5 265.763 218.852 265.937 195.087C265.937 171.148 247.81 153.5 224.281 153.5ZM224.281 210.988C215.392 210.988 209.292 204.348 209.292 195.087C209.292 185.826 215.392 179.012 224.281 179.012C233.17 179.012 239.27 185.826 239.27 195.087C239.27 204.348 233.344 210.988 224.281 210.988Z" fill="#873EFF"/>
<path fill-rule="evenodd" clip-rule="evenodd" d="M313.344 153.5C289.815 153.5 271.688 171.148 271.688 195.087C271.688 219.026 289.815 236.5 313.344 236.5C336.874 236.5 355 218.852 355 195.087C355 171.323 336.874 153.5 313.344 153.5ZM313.344 210.988C304.281 210.988 298.529 204.348 298.529 195.087C298.529 185.826 304.455 179.012 313.344 179.012C322.233 179.012 328.333 185.826 328.333 195.087C328.333 204.348 322.407 210.988 313.344 210.988Z" fill="#873EFF"/>
</g>
<defs>
<clipPath id="clip0_11003_269">
<rect width="320" height="83" fill="white" transform="translate(35 153.5)"/>
</clipPath>
</defs>
</svg>
