<svg width="29" height="18" viewBox="0 0 29 18" fill="none" xmlns="http://www.w3.org/2000/svg">
<path d="M20.189 17.626C17.866 17.633 15.636 16.716 13.989 15.077L9.142 10.226C8.288 9.375 8.03199 8.093 8.49299 6.979C8.95399 5.865 10.042 5.14 11.248 5.142H11.255C11.6453 5.14188 12.0318 5.21895 12.3922 5.36877C12.7526 5.5186 13.0798 5.73822 13.355 6.015L17.8 10.462C18.136 10.817 18.639 10.961 19.112 10.839C19.585 10.717 19.955 10.347 20.077 9.874C20.199 9.401 20.055 8.898 19.7 8.562L14.849 3.716C13.511 2.384 11.698 1.638 9.80999 1.642H9.793C8.42089 1.64884 7.07956 2.04925 5.92824 2.7957C4.77691 3.54214 3.86394 4.60327 3.29771 5.85312C2.73148 7.10296 2.53578 8.48903 2.73382 9.84679C2.93187 11.2046 3.51534 12.477 4.41499 13.513C5.31565 14.5486 6.4946 15.3039 7.81183 15.6892C9.12905 16.0746 10.5292 16.0738 11.846 15.687C11.9843 15.6458 12.131 15.6418 12.2713 15.6754C12.4117 15.709 12.5407 15.779 12.6453 15.8785C12.7499 15.9779 12.8264 16.1032 12.867 16.2416C12.9077 16.3801 12.9112 16.5268 12.877 16.667C12.8433 16.8072 12.7732 16.936 12.6738 17.0405C12.5745 17.1449 12.4493 17.2213 12.311 17.262C9 18.25 5.418 17.212 3.147 14.608C0.876 12.004 0.336995 8.313 1.767 5.168C3.197 2.023 6.332 0.0030029 9.787 0.0010029H9.80999C12.1316 -0.0073558 14.3616 0.906213 16.01 2.541L20.856 7.387C21.2377 7.75437 21.5145 8.21683 21.658 8.72677C21.8016 9.23671 21.8065 9.77569 21.6725 10.2882C21.5384 10.8007 21.2701 11.2682 20.8953 11.6426C20.5205 12.0169 20.0527 12.2846 19.54 12.418C19.0277 12.5522 18.4888 12.5474 17.9789 12.4042C17.469 12.2609 17.0065 11.9844 16.639 11.603L12.2 7.167C11.675 6.642 10.825 6.642 10.3 7.167C9.775 7.692 9.775 8.542 10.3 9.067L15.145 13.912C17.61 16.344 21.462 16.666 24.296 14.676C27.13 12.686 28.136 8.954 26.685 5.809C25.234 2.664 21.742 1.007 18.389 1.872L18.135 1.943C17.9954 1.98985 17.8458 1.99826 17.7018 1.96733C17.5579 1.9364 17.4249 1.86729 17.3169 1.76724C17.2089 1.6672 17.1298 1.53991 17.0879 1.39875C17.0461 1.25759 17.043 1.10776 17.079 0.965003C17.1146 0.822183 17.1879 0.691575 17.2914 0.586884C17.3949 0.482193 17.5246 0.407279 17.667 0.370003L17.979 0.282003C21.824 -0.707997 25.857 0.996003 27.827 4.443C29.797 7.89 29.219 12.229 26.415 15.041C24.769 16.7 22.526 17.632 20.189 17.626Z" fill="#226DB4"/>
</svg>
