<svg width="600" height="450" viewBox="0 0 600 450" fill="none" xmlns="http://www.w3.org/2000/svg">
<rect x="40" y="86" width="172" height="89" rx="8" fill="#E2F0FF"/>
<path fill-rule="evenodd" clip-rule="evenodd" d="M61.3332 119.833C59.8604 119.833 58.6665 121.027 58.6665 122.5V134.5C58.6665 135.973 59.8604 137.167 61.3332 137.167H62.6665V138.5C62.6665 139.967 63.8665 141.167 65.3332 141.167H82.6665C84.1332 141.167 85.3332 139.967 85.3332 138.5V126.5C85.3332 125.033 84.1332 123.833 82.6665 123.833H81.3332V122.5C81.3332 121.027 80.1393 119.833 78.6665 119.833H61.3332ZM78.6665 123.833V122.5L61.3332 122.5V134.5H62.6665V126.5C62.6665 125.033 63.8665 123.833 65.3332 123.833H78.6665ZM73.9998 130.5L82.6665 126.5H65.3332L73.9998 130.5ZM65.3332 129.167V138.5H82.6665V129.167L73.9998 133.167L65.3332 129.167Z" fill="#1E75BA"/>
<path d="M96.6165 112.141V110.818H104.496V112.141H101.32V121H99.7884V112.141H96.6165ZM108.228 121.154C107.512 121.154 106.887 120.99 106.353 120.662C105.82 120.334 105.405 119.875 105.11 119.285C104.815 118.695 104.668 118.005 104.668 117.217C104.668 116.424 104.815 115.732 105.11 115.138C105.405 114.545 105.82 114.085 106.353 113.756C106.887 113.428 107.512 113.264 108.228 113.264C108.944 113.264 109.568 113.428 110.102 113.756C110.636 114.085 111.05 114.545 111.345 115.138C111.64 115.732 111.787 116.424 111.787 117.217C111.787 118.005 111.64 118.695 111.345 119.285C111.05 119.875 110.636 120.334 110.102 120.662C109.568 120.99 108.944 121.154 108.228 121.154ZM108.233 119.906C108.697 119.906 109.081 119.784 109.386 119.538C109.691 119.293 109.916 118.967 110.062 118.559C110.211 118.151 110.286 117.702 110.286 117.212C110.286 116.724 110.211 116.277 110.062 115.869C109.916 115.458 109.691 115.129 109.386 114.88C109.081 114.631 108.697 114.507 108.233 114.507C107.765 114.507 107.377 114.631 107.069 114.88C106.764 115.129 106.537 115.458 106.388 115.869C106.242 116.277 106.169 116.724 106.169 117.212C106.169 117.702 106.242 118.151 106.388 118.559C106.537 118.967 106.764 119.293 107.069 119.538C107.377 119.784 107.765 119.906 108.233 119.906ZM117.011 113.364V114.557H112.84V113.364H117.011ZM113.959 111.534H115.445V118.758C115.445 119.046 115.488 119.263 115.574 119.409C115.661 119.552 115.772 119.649 115.907 119.702C116.047 119.752 116.198 119.777 116.36 119.777C116.479 119.777 116.584 119.769 116.673 119.752C116.763 119.736 116.832 119.722 116.882 119.712L117.15 120.94C117.064 120.973 116.942 121.007 116.782 121.04C116.623 121.076 116.425 121.096 116.186 121.099C115.795 121.106 115.43 121.036 115.092 120.891C114.754 120.745 114.481 120.519 114.272 120.214C114.063 119.91 113.959 119.527 113.959 119.066V111.534ZM120.878 121.169C120.394 121.169 119.956 121.08 119.565 120.901C119.174 120.718 118.864 120.455 118.636 120.11C118.41 119.765 118.298 119.343 118.298 118.842C118.298 118.411 118.38 118.057 118.546 117.778C118.712 117.5 118.936 117.28 119.217 117.117C119.499 116.955 119.814 116.832 120.162 116.749C120.51 116.666 120.865 116.603 121.226 116.56C121.683 116.507 122.054 116.464 122.339 116.431C122.625 116.395 122.832 116.337 122.961 116.257C123.09 116.178 123.155 116.048 123.155 115.869V115.835C123.155 115.4 123.032 115.064 122.787 114.825C122.545 114.587 122.184 114.467 121.703 114.467C121.203 114.467 120.808 114.578 120.52 114.8C120.235 115.019 120.038 115.263 119.928 115.531L118.531 115.213C118.697 114.749 118.939 114.375 119.257 114.089C119.579 113.801 119.948 113.592 120.366 113.463C120.783 113.33 121.223 113.264 121.683 113.264C121.988 113.264 122.311 113.301 122.653 113.374C122.997 113.443 123.319 113.572 123.617 113.761C123.919 113.95 124.166 114.22 124.358 114.572C124.55 114.92 124.646 115.372 124.646 115.929V121H123.195V119.956H123.135C123.039 120.148 122.895 120.337 122.702 120.523C122.51 120.708 122.263 120.862 121.962 120.985C121.66 121.108 121.299 121.169 120.878 121.169ZM121.201 119.976C121.612 119.976 121.963 119.895 122.255 119.732C122.55 119.57 122.774 119.358 122.926 119.096C123.082 118.831 123.16 118.547 123.16 118.246V117.261C123.107 117.314 123.004 117.364 122.852 117.411C122.702 117.454 122.532 117.492 122.339 117.525C122.147 117.555 121.96 117.583 121.778 117.609C121.595 117.633 121.443 117.652 121.32 117.669C121.032 117.705 120.768 117.767 120.53 117.853C120.295 117.939 120.106 118.063 119.963 118.226C119.824 118.385 119.754 118.597 119.754 118.862C119.754 119.23 119.89 119.509 120.162 119.697C120.434 119.883 120.78 119.976 121.201 119.976ZM128.113 110.818V121H126.626V110.818H128.113ZM136.676 121.149C136.06 121.149 135.51 120.992 135.026 120.677C134.545 120.359 134.167 119.906 133.892 119.32C133.62 118.73 133.485 118.022 133.485 117.197C133.485 116.371 133.622 115.665 133.897 115.079C134.176 114.492 134.557 114.043 135.041 113.732C135.525 113.42 136.073 113.264 136.686 113.264C137.16 113.264 137.541 113.344 137.83 113.503C138.121 113.659 138.347 113.841 138.506 114.05C138.668 114.259 138.794 114.442 138.884 114.602H138.973V110.818H140.46V121H139.008V119.812H138.884C138.794 119.974 138.665 120.16 138.496 120.369C138.33 120.577 138.102 120.76 137.81 120.915C137.518 121.071 137.14 121.149 136.676 121.149ZM137.004 119.881C137.432 119.881 137.793 119.769 138.088 119.543C138.387 119.315 138.612 118.998 138.764 118.594C138.92 118.189 138.998 117.719 138.998 117.182C138.998 116.652 138.922 116.187 138.769 115.79C138.617 115.392 138.393 115.082 138.098 114.86C137.803 114.638 137.439 114.527 137.004 114.527C136.557 114.527 136.184 114.643 135.886 114.875C135.588 115.107 135.362 115.424 135.21 115.825C135.061 116.226 134.986 116.678 134.986 117.182C134.986 117.692 135.062 118.151 135.215 118.559C135.367 118.967 135.593 119.29 135.891 119.528C136.192 119.764 136.564 119.881 137.004 119.881ZM145.873 121.154C145.12 121.154 144.472 120.993 143.929 120.672C143.388 120.347 142.971 119.891 142.676 119.305C142.384 118.715 142.238 118.024 142.238 117.232C142.238 116.449 142.384 115.76 142.676 115.163C142.971 114.567 143.382 114.101 143.909 113.766C144.439 113.432 145.059 113.264 145.768 113.264C146.199 113.264 146.617 113.335 147.021 113.478C147.425 113.621 147.788 113.844 148.11 114.149C148.431 114.454 148.685 114.85 148.87 115.337C149.056 115.821 149.149 116.41 149.149 117.102V117.629H143.078V116.516H147.692C147.692 116.125 147.613 115.778 147.453 115.477C147.294 115.172 147.071 114.931 146.782 114.756C146.497 114.58 146.163 114.492 145.778 114.492C145.36 114.492 144.996 114.595 144.684 114.8C144.376 115.003 144.137 115.268 143.968 115.596C143.803 115.921 143.72 116.274 143.72 116.655V117.525C143.72 118.035 143.809 118.469 143.988 118.827C144.171 119.185 144.424 119.459 144.749 119.648C145.074 119.833 145.453 119.926 145.887 119.926C146.169 119.926 146.426 119.886 146.658 119.807C146.89 119.724 147.091 119.601 147.26 119.439C147.429 119.277 147.558 119.076 147.647 118.837L149.054 119.091C148.942 119.505 148.739 119.868 148.448 120.18C148.159 120.488 147.797 120.728 147.359 120.901C146.925 121.07 146.429 121.154 145.873 121.154ZM157.794 121.154C157.042 121.154 156.394 120.993 155.85 120.672C155.31 120.347 154.893 119.891 154.598 119.305C154.306 118.715 154.16 118.024 154.16 117.232C154.16 116.449 154.306 115.76 154.598 115.163C154.893 114.567 155.304 114.101 155.831 113.766C156.361 113.432 156.981 113.264 157.69 113.264C158.121 113.264 158.538 113.335 158.943 113.478C159.347 113.621 159.71 113.844 160.032 114.149C160.353 114.454 160.607 114.85 160.792 115.337C160.978 115.821 161.071 116.41 161.071 117.102V117.629H155V116.516H159.614C159.614 116.125 159.534 115.778 159.375 115.477C159.216 115.172 158.993 114.931 158.704 114.756C158.419 114.58 158.084 114.492 157.7 114.492C157.282 114.492 156.918 114.595 156.606 114.8C156.298 115.003 156.059 115.268 155.89 115.596C155.725 115.921 155.642 116.274 155.642 116.655V117.525C155.642 118.035 155.731 118.469 155.91 118.827C156.092 119.185 156.346 119.459 156.671 119.648C156.996 119.833 157.375 119.926 157.809 119.926C158.091 119.926 158.348 119.886 158.58 119.807C158.812 119.724 159.012 119.601 159.181 119.439C159.35 119.277 159.48 119.076 159.569 118.837L160.976 119.091C160.864 119.505 160.661 119.868 160.37 120.18C160.081 120.488 159.718 120.728 159.281 120.901C158.847 121.07 158.351 121.154 157.794 121.154ZM167.219 116.053V117.341H162.705V116.053H167.219ZM169.2 121V113.364H170.627V114.607H170.722C170.881 114.186 171.141 113.857 171.502 113.622C171.864 113.384 172.296 113.264 172.8 113.264C173.31 113.264 173.738 113.384 174.083 113.622C174.431 113.861 174.687 114.189 174.853 114.607H174.933C175.115 114.199 175.405 113.874 175.803 113.632C176.2 113.387 176.674 113.264 177.225 113.264C177.917 113.264 178.482 113.481 178.92 113.915C179.361 114.35 179.581 115.004 179.581 115.879V121H178.095V116.018C178.095 115.501 177.954 115.127 177.672 114.895C177.39 114.663 177.054 114.547 176.663 114.547C176.179 114.547 175.803 114.696 175.534 114.994C175.266 115.289 175.132 115.669 175.132 116.133V121H173.65V115.924C173.65 115.51 173.521 115.177 173.262 114.925C173.004 114.673 172.667 114.547 172.253 114.547C171.971 114.547 171.711 114.621 171.472 114.771C171.237 114.916 171.047 115.12 170.901 115.382C170.758 115.644 170.687 115.947 170.687 116.292V121H169.2ZM183.796 121.169C183.312 121.169 182.874 121.08 182.483 120.901C182.092 120.718 181.782 120.455 181.554 120.11C181.328 119.765 181.216 119.343 181.216 118.842C181.216 118.411 181.298 118.057 181.464 117.778C181.63 117.5 181.854 117.28 182.135 117.117C182.417 116.955 182.732 116.832 183.08 116.749C183.428 116.666 183.783 116.603 184.144 116.56C184.601 116.507 184.972 116.464 185.257 116.431C185.542 116.395 185.75 116.337 185.879 116.257C186.008 116.178 186.073 116.048 186.073 115.869V115.835C186.073 115.4 185.95 115.064 185.705 114.825C185.463 114.587 185.102 114.467 184.621 114.467C184.121 114.467 183.726 114.578 183.438 114.8C183.153 115.019 182.956 115.263 182.846 115.531L181.449 115.213C181.615 114.749 181.857 114.375 182.175 114.089C182.497 113.801 182.866 113.592 183.284 113.463C183.701 113.33 184.141 113.264 184.601 113.264C184.906 113.264 185.229 113.301 185.571 113.374C185.915 113.443 186.237 113.572 186.535 113.761C186.837 113.95 187.084 114.22 187.276 114.572C187.468 114.92 187.564 115.372 187.564 115.929V121H186.113V119.956H186.053C185.957 120.148 185.813 120.337 185.62 120.523C185.428 120.708 185.181 120.862 184.88 120.985C184.578 121.108 184.217 121.169 183.796 121.169ZM184.119 119.976C184.53 119.976 184.881 119.895 185.173 119.732C185.468 119.57 185.692 119.358 185.844 119.096C186 118.831 186.078 118.547 186.078 118.246V117.261C186.025 117.314 185.922 117.364 185.77 117.411C185.62 117.454 185.45 117.492 185.257 117.525C185.065 117.555 184.878 117.583 184.696 117.609C184.513 117.633 184.361 117.652 184.238 117.669C183.95 117.705 183.686 117.767 183.448 117.853C183.212 117.939 183.024 118.063 182.881 118.226C182.742 118.385 182.672 118.597 182.672 118.862C182.672 119.23 182.808 119.509 183.08 119.697C183.352 119.883 183.698 119.976 184.119 119.976ZM189.544 121V113.364H191.031V121H189.544ZM190.295 112.185C190.036 112.185 189.814 112.099 189.629 111.927C189.446 111.751 189.355 111.542 189.355 111.3C189.355 111.055 189.446 110.846 189.629 110.674C189.814 110.498 190.036 110.411 190.295 110.411C190.553 110.411 190.774 110.498 190.956 110.674C191.142 110.846 191.235 111.055 191.235 111.3C191.235 111.542 191.142 111.751 190.956 111.927C190.774 112.099 190.553 112.185 190.295 112.185ZM194.517 110.818V121H193.031V110.818H194.517ZM202.239 115.228L200.892 115.467C200.836 115.294 200.746 115.13 200.623 114.974C200.504 114.819 200.342 114.691 200.136 114.592C199.931 114.492 199.674 114.442 199.366 114.442C198.945 114.442 198.593 114.537 198.312 114.726C198.03 114.911 197.889 115.152 197.889 115.447C197.889 115.702 197.983 115.907 198.172 116.063C198.361 116.219 198.666 116.347 199.087 116.446L200.3 116.724C201.003 116.887 201.527 117.137 201.871 117.475C202.216 117.813 202.388 118.252 202.388 118.793C202.388 119.25 202.256 119.658 201.991 120.016C201.729 120.37 201.363 120.649 200.892 120.851C200.425 121.053 199.883 121.154 199.266 121.154C198.411 121.154 197.713 120.972 197.173 120.607C196.633 120.239 196.301 119.717 196.179 119.041L197.616 118.822C197.705 119.197 197.889 119.48 198.167 119.673C198.446 119.862 198.809 119.956 199.256 119.956C199.743 119.956 200.133 119.855 200.425 119.653C200.716 119.447 200.862 119.197 200.862 118.902C200.862 118.663 200.773 118.463 200.594 118.3C200.418 118.138 200.148 118.015 199.783 117.933L198.491 117.649C197.778 117.487 197.251 117.228 196.91 116.874C196.572 116.519 196.403 116.07 196.403 115.526C196.403 115.076 196.528 114.681 196.78 114.343C197.032 114.005 197.38 113.741 197.824 113.553C198.269 113.36 198.777 113.264 199.351 113.264C200.176 113.264 200.826 113.443 201.3 113.801C201.773 114.156 202.087 114.631 202.239 115.228Z" fill="#1E75BA"/>
<path d="M97.1506 145.932V143.026L104.438 131.545H106.943V135.568H105.46L100.866 142.838V142.974H111.222V145.932H97.1506ZM105.528 149V145.045L105.597 143.759V131.545H109.057V149H105.528ZM114.371 149L121.607 134.682V134.562H113.178V131.545H125.425V134.605L118.18 149H114.371ZM127.11 149.222C126.548 149.222 126.065 149.023 125.661 148.625C125.263 148.222 125.065 147.739 125.065 147.176C125.065 146.619 125.263 146.142 125.661 145.744C126.065 145.347 126.548 145.148 127.11 145.148C127.656 145.148 128.133 145.347 128.542 145.744C128.951 146.142 129.156 146.619 129.156 147.176C129.156 147.551 129.059 147.895 128.866 148.207C128.678 148.514 128.431 148.761 128.124 148.949C127.817 149.131 127.479 149.222 127.11 149.222ZM138.089 131.307C138.987 131.307 139.851 131.457 140.68 131.759C141.516 132.06 142.26 132.54 142.913 133.199C143.572 133.858 144.092 134.733 144.473 135.824C144.859 136.909 145.055 138.241 145.061 139.821C145.061 141.304 144.893 142.628 144.558 143.793C144.229 144.952 143.754 145.938 143.135 146.75C142.516 147.562 141.768 148.182 140.893 148.608C140.018 149.028 139.041 149.239 137.962 149.239C136.797 149.239 135.768 149.014 134.876 148.565C133.984 148.111 133.266 147.494 132.72 146.716C132.18 145.932 131.854 145.051 131.74 144.074H135.379C135.521 144.71 135.82 145.205 136.274 145.557C136.729 145.903 137.291 146.077 137.962 146.077C139.098 146.077 139.962 145.582 140.553 144.594C141.143 143.599 141.442 142.239 141.447 140.511H141.328C141.067 141.023 140.714 141.463 140.271 141.832C139.828 142.196 139.32 142.477 138.746 142.676C138.178 142.875 137.572 142.974 136.93 142.974C135.902 142.974 134.984 142.733 134.178 142.25C133.371 141.767 132.734 141.102 132.268 140.256C131.803 139.409 131.57 138.443 131.57 137.358C131.564 136.188 131.834 135.145 132.379 134.23C132.925 133.315 133.686 132.599 134.663 132.082C135.646 131.56 136.788 131.301 138.089 131.307ZM138.115 134.205C137.541 134.205 137.03 134.341 136.581 134.614C136.138 134.886 135.786 135.253 135.524 135.713C135.268 136.173 135.143 136.687 135.149 137.256C135.149 137.83 135.274 138.347 135.524 138.807C135.78 139.261 136.126 139.625 136.564 139.898C137.007 140.165 137.513 140.298 138.081 140.298C138.507 140.298 138.902 140.219 139.266 140.06C139.629 139.901 139.945 139.682 140.212 139.403C140.484 139.119 140.697 138.793 140.851 138.423C141.004 138.054 141.081 137.662 141.081 137.247C141.075 136.696 140.945 136.19 140.689 135.73C140.433 135.27 140.081 134.901 139.632 134.622C139.183 134.344 138.678 134.205 138.115 134.205ZM150.942 145.233L150.95 140.878H151.479L155.672 135.909H159.839L154.206 142.489H153.345L150.942 145.233ZM147.652 149V131.545H151.283V149H147.652ZM155.834 149L151.982 143.298L154.402 140.733L160.087 149H155.834Z" fill="#1E75BA"/>
<rect x="388" y="177" width="172" height="89" rx="8" fill="#F9EAE5"/>
<path d="M430.667 210.833H409.333C407.867 210.833 406.68 212.033 406.68 213.5L406.667 229.5C406.667 230.967 407.867 232.167 409.333 232.167H420V229.5H409.333V216.167L420 222.833L430.667 216.167V222.833H433.333V213.5C433.333 212.033 432.133 210.833 430.667 210.833ZM420 220.167L409.333 213.5H430.667L420 220.167Z" fill="#CC5229"/>
<path d="M428.148 227.76L424.848 224.46L422.962 226.345L426.262 229.645L422.962 232.945L424.848 234.831L428.148 231.531L431.448 234.831L433.333 232.945L430.033 229.645L433.333 226.346L431.448 224.46L428.148 227.76Z" fill="#CC5229"/>
<path d="M453.119 212V201.818H459.433V203.141H454.655V206.243H458.98V207.56H454.655V212H453.119ZM461.107 212V204.364H462.544V205.577H462.623C462.762 205.166 463.008 204.843 463.359 204.607C463.713 204.369 464.115 204.249 464.562 204.249C464.655 204.249 464.764 204.253 464.89 204.259C465.019 204.266 465.12 204.274 465.193 204.284V205.706C465.134 205.689 465.028 205.671 464.875 205.651C464.723 205.628 464.57 205.616 464.418 205.616C464.066 205.616 463.753 205.691 463.478 205.84C463.206 205.986 462.991 206.19 462.832 206.452C462.673 206.71 462.593 207.005 462.593 207.337V212H461.107ZM468.634 212.169C468.15 212.169 467.712 212.08 467.321 211.901C466.93 211.718 466.62 211.455 466.392 211.11C466.166 210.765 466.053 210.343 466.053 209.842C466.053 209.411 466.136 209.057 466.302 208.778C466.468 208.5 466.691 208.28 466.973 208.117C467.255 207.955 467.57 207.832 467.918 207.749C468.266 207.666 468.62 207.603 468.982 207.56C469.439 207.507 469.81 207.464 470.095 207.431C470.38 207.395 470.588 207.337 470.717 207.257C470.846 207.178 470.911 207.048 470.911 206.869V206.835C470.911 206.4 470.788 206.064 470.543 205.825C470.301 205.587 469.94 205.467 469.459 205.467C468.959 205.467 468.564 205.578 468.276 205.8C467.991 206.019 467.794 206.263 467.684 206.531L466.287 206.213C466.453 205.749 466.695 205.375 467.013 205.089C467.334 204.801 467.704 204.592 468.122 204.463C468.539 204.33 468.978 204.264 469.439 204.264C469.744 204.264 470.067 204.301 470.409 204.374C470.753 204.443 471.075 204.572 471.373 204.761C471.675 204.95 471.922 205.22 472.114 205.572C472.306 205.92 472.402 206.372 472.402 206.929V212H470.95V210.956H470.891C470.795 211.148 470.651 211.337 470.458 211.523C470.266 211.708 470.019 211.862 469.718 211.985C469.416 212.108 469.055 212.169 468.634 212.169ZM468.957 210.976C469.368 210.976 469.719 210.895 470.011 210.732C470.306 210.57 470.53 210.358 470.682 210.096C470.838 209.831 470.916 209.547 470.916 209.246V208.261C470.863 208.314 470.76 208.364 470.607 208.411C470.458 208.454 470.288 208.492 470.095 208.525C469.903 208.555 469.716 208.583 469.534 208.609C469.351 208.633 469.199 208.652 469.076 208.669C468.788 208.705 468.524 208.767 468.286 208.853C468.05 208.939 467.861 209.063 467.719 209.226C467.58 209.385 467.51 209.597 467.51 209.862C467.51 210.23 467.646 210.509 467.918 210.697C468.19 210.883 468.536 210.976 468.957 210.976ZM477.599 212.154C476.86 212.154 476.223 211.987 475.69 211.652C475.159 211.314 474.752 210.848 474.467 210.255C474.182 209.662 474.039 208.982 474.039 208.217C474.039 207.441 474.185 206.757 474.477 206.163C474.768 205.567 475.179 205.101 475.71 204.766C476.24 204.432 476.865 204.264 477.584 204.264C478.164 204.264 478.681 204.372 479.135 204.587C479.589 204.799 479.955 205.098 480.234 205.482C480.515 205.867 480.683 206.316 480.736 206.83H479.289C479.21 206.472 479.027 206.163 478.742 205.905C478.46 205.646 478.083 205.517 477.609 205.517C477.194 205.517 476.831 205.626 476.52 205.845C476.212 206.061 475.971 206.369 475.799 206.77C475.627 207.168 475.54 207.638 475.54 208.182C475.54 208.739 475.625 209.219 475.794 209.624C475.963 210.028 476.202 210.341 476.51 210.563C476.821 210.785 477.188 210.896 477.609 210.896C477.89 210.896 478.146 210.845 478.374 210.742C478.606 210.636 478.8 210.485 478.956 210.29C479.115 210.094 479.226 209.859 479.289 209.584H480.736C480.683 210.078 480.522 210.518 480.254 210.906C479.985 211.294 479.625 211.599 479.175 211.821C478.727 212.043 478.202 212.154 477.599 212.154ZM484.548 212.169C484.064 212.169 483.626 212.08 483.235 211.901C482.844 211.718 482.534 211.455 482.306 211.11C482.08 210.765 481.968 210.343 481.968 209.842C481.968 209.411 482.05 209.057 482.216 208.778C482.382 208.5 482.606 208.28 482.887 208.117C483.169 207.955 483.484 207.832 483.832 207.749C484.18 207.666 484.535 207.603 484.896 207.56C485.353 207.507 485.724 207.464 486.009 207.431C486.294 207.395 486.502 207.337 486.631 207.257C486.76 207.178 486.825 207.048 486.825 206.869V206.835C486.825 206.4 486.702 206.064 486.457 205.825C486.215 205.587 485.854 205.467 485.373 205.467C484.873 205.467 484.478 205.578 484.19 205.8C483.905 206.019 483.708 206.263 483.598 206.531L482.201 206.213C482.367 205.749 482.609 205.375 482.927 205.089C483.249 204.801 483.618 204.592 484.036 204.463C484.453 204.33 484.892 204.264 485.353 204.264C485.658 204.264 485.981 204.301 486.323 204.374C486.667 204.443 486.989 204.572 487.287 204.761C487.589 204.95 487.836 205.22 488.028 205.572C488.22 205.92 488.316 206.372 488.316 206.929V212H486.865V210.956H486.805C486.709 211.148 486.565 211.337 486.372 211.523C486.18 211.708 485.933 211.862 485.632 211.985C485.33 212.108 484.969 212.169 484.548 212.169ZM484.871 210.976C485.282 210.976 485.633 210.895 485.925 210.732C486.22 210.57 486.444 210.358 486.596 210.096C486.752 209.831 486.83 209.547 486.83 209.246V208.261C486.777 208.314 486.674 208.364 486.521 208.411C486.372 208.454 486.202 208.492 486.009 208.525C485.817 208.555 485.63 208.583 485.448 208.609C485.265 208.633 485.113 208.652 484.99 208.669C484.702 208.705 484.438 208.767 484.2 208.853C483.964 208.939 483.776 209.063 483.633 209.226C483.494 209.385 483.424 209.597 483.424 209.862C483.424 210.23 483.56 210.509 483.832 210.697C484.104 210.883 484.45 210.976 484.871 210.976ZM496.018 206.228L494.671 206.467C494.615 206.294 494.525 206.13 494.403 205.974C494.283 205.819 494.121 205.691 493.915 205.592C493.71 205.492 493.453 205.442 493.145 205.442C492.724 205.442 492.373 205.537 492.091 205.726C491.809 205.911 491.668 206.152 491.668 206.447C491.668 206.702 491.763 206.907 491.952 207.063C492.141 207.219 492.446 207.347 492.866 207.446L494.08 207.724C494.782 207.887 495.306 208.137 495.651 208.475C495.995 208.813 496.168 209.252 496.168 209.793C496.168 210.25 496.035 210.658 495.77 211.016C495.508 211.37 495.142 211.649 494.671 211.851C494.204 212.053 493.662 212.154 493.045 212.154C492.19 212.154 491.493 211.972 490.952 211.607C490.412 211.239 490.081 210.717 489.958 210.041L491.395 209.822C491.484 210.197 491.668 210.48 491.947 210.673C492.225 210.862 492.588 210.956 493.036 210.956C493.523 210.956 493.912 210.855 494.204 210.653C494.496 210.447 494.641 210.197 494.641 209.902C494.641 209.663 494.552 209.463 494.373 209.3C494.197 209.138 493.927 209.015 493.562 208.933L492.27 208.649C491.557 208.487 491.03 208.228 490.689 207.874C490.351 207.519 490.182 207.07 490.182 206.526C490.182 206.076 490.308 205.681 490.56 205.343C490.812 205.005 491.16 204.741 491.604 204.553C492.048 204.36 492.557 204.264 493.13 204.264C493.955 204.264 494.605 204.443 495.079 204.801C495.553 205.156 495.866 205.631 496.018 206.228ZM503.524 206.228L502.177 206.467C502.121 206.294 502.031 206.13 501.909 205.974C501.789 205.819 501.627 205.691 501.421 205.592C501.216 205.492 500.959 205.442 500.651 205.442C500.23 205.442 499.878 205.537 499.597 205.726C499.315 205.911 499.174 206.152 499.174 206.447C499.174 206.702 499.269 206.907 499.458 207.063C499.646 207.219 499.951 207.347 500.372 207.446L501.585 207.724C502.288 207.887 502.812 208.137 503.156 208.475C503.501 208.813 503.673 209.252 503.673 209.793C503.673 210.25 503.541 210.658 503.276 211.016C503.014 211.37 502.648 211.649 502.177 211.851C501.71 212.053 501.168 212.154 500.551 212.154C499.696 212.154 498.999 211.972 498.458 211.607C497.918 211.239 497.587 210.717 497.464 210.041L498.901 209.822C498.99 210.197 499.174 210.48 499.453 210.673C499.731 210.862 500.094 210.956 500.541 210.956C501.029 210.956 501.418 210.855 501.71 210.653C502.001 210.447 502.147 210.197 502.147 209.902C502.147 209.663 502.058 209.463 501.879 209.3C501.703 209.138 501.433 209.015 501.068 208.933L499.776 208.649C499.063 208.487 498.536 208.228 498.195 207.874C497.857 207.519 497.688 207.07 497.688 206.526C497.688 206.076 497.814 205.681 498.066 205.343C498.317 205.005 498.665 204.741 499.11 204.553C499.554 204.36 500.062 204.264 500.636 204.264C501.461 204.264 502.111 204.443 502.585 204.801C503.059 205.156 503.372 205.631 503.524 206.228ZM507.53 212.169C507.046 212.169 506.609 212.08 506.218 211.901C505.827 211.718 505.517 211.455 505.288 211.11C505.063 210.765 504.95 210.343 504.95 209.842C504.95 209.411 505.033 209.057 505.199 208.778C505.364 208.5 505.588 208.28 505.87 208.117C506.151 207.955 506.466 207.832 506.814 207.749C507.162 207.666 507.517 207.603 507.878 207.56C508.336 207.507 508.707 207.464 508.992 207.431C509.277 207.395 509.484 207.337 509.613 207.257C509.743 207.178 509.807 207.048 509.807 206.869V206.835C509.807 206.4 509.685 206.064 509.439 205.825C509.197 205.587 508.836 205.467 508.355 205.467C507.855 205.467 507.461 205.578 507.172 205.8C506.887 206.019 506.69 206.263 506.581 206.531L505.184 206.213C505.349 205.749 505.591 205.375 505.909 205.089C506.231 204.801 506.6 204.592 507.018 204.463C507.436 204.33 507.875 204.264 508.336 204.264C508.641 204.264 508.964 204.301 509.305 204.374C509.65 204.443 509.971 204.572 510.27 204.761C510.571 204.95 510.818 205.22 511.01 205.572C511.203 205.92 511.299 206.372 511.299 206.929V212H509.847V210.956H509.787C509.691 211.148 509.547 211.337 509.355 211.523C509.163 211.708 508.916 211.862 508.614 211.985C508.312 212.108 507.951 212.169 507.53 212.169ZM507.853 210.976C508.264 210.976 508.616 210.895 508.907 210.732C509.202 210.57 509.426 210.358 509.578 210.096C509.734 209.831 509.812 209.547 509.812 209.246V208.261C509.759 208.314 509.656 208.364 509.504 208.411C509.355 208.454 509.184 208.492 508.992 208.525C508.8 208.555 508.612 208.583 508.43 208.609C508.248 208.633 508.095 208.652 507.973 208.669C507.684 208.705 507.421 208.767 507.182 208.853C506.947 208.939 506.758 209.063 506.615 209.226C506.476 209.385 506.407 209.597 506.407 209.862C506.407 210.23 506.542 210.509 506.814 210.697C507.086 210.883 507.432 210.976 507.853 210.976ZM516.137 212.149C515.521 212.149 514.971 211.992 514.487 211.677C514.006 211.359 513.628 210.906 513.353 210.32C513.081 209.73 512.945 209.022 512.945 208.197C512.945 207.371 513.083 206.665 513.358 206.079C513.637 205.492 514.018 205.043 514.502 204.732C514.985 204.42 515.534 204.264 516.147 204.264C516.621 204.264 517.002 204.344 517.291 204.503C517.582 204.659 517.808 204.841 517.967 205.05C518.129 205.259 518.255 205.442 518.345 205.602H518.434V201.818H519.921V212H518.469V210.812H518.345C518.255 210.974 518.126 211.16 517.957 211.369C517.791 211.577 517.562 211.76 517.271 211.915C516.979 212.071 516.601 212.149 516.137 212.149ZM516.465 210.881C516.893 210.881 517.254 210.769 517.549 210.543C517.847 210.315 518.073 209.998 518.225 209.594C518.381 209.189 518.459 208.719 518.459 208.182C518.459 207.652 518.383 207.187 518.23 206.79C518.078 206.392 517.854 206.082 517.559 205.86C517.264 205.638 516.9 205.527 516.465 205.527C516.018 205.527 515.645 205.643 515.347 205.875C515.048 206.107 514.823 206.424 514.671 206.825C514.521 207.226 514.447 207.678 514.447 208.182C514.447 208.692 514.523 209.151 514.676 209.559C514.828 209.967 515.053 210.29 515.352 210.528C515.653 210.764 516.025 210.881 516.465 210.881ZM524.265 212.169C523.781 212.169 523.343 212.08 522.952 211.901C522.561 211.718 522.251 211.455 522.022 211.11C521.797 210.765 521.684 210.343 521.684 209.842C521.684 209.411 521.767 209.057 521.933 208.778C522.099 208.5 522.322 208.28 522.604 208.117C522.886 207.955 523.201 207.832 523.549 207.749C523.897 207.666 524.251 207.603 524.613 207.56C525.07 207.507 525.441 207.464 525.726 207.431C526.011 207.395 526.218 207.337 526.348 207.257C526.477 207.178 526.542 207.048 526.542 206.869V206.835C526.542 206.4 526.419 206.064 526.174 205.825C525.932 205.587 525.57 205.467 525.09 205.467C524.589 205.467 524.195 205.578 523.907 205.8C523.622 206.019 523.424 206.263 523.315 206.531L521.918 206.213C522.084 205.749 522.326 205.375 522.644 205.089C522.965 204.801 523.335 204.592 523.752 204.463C524.17 204.33 524.609 204.264 525.07 204.264C525.375 204.264 525.698 204.301 526.039 204.374C526.384 204.443 526.706 204.572 527.004 204.761C527.306 204.95 527.552 205.22 527.745 205.572C527.937 205.92 528.033 206.372 528.033 206.929V212H526.581V210.956H526.522C526.426 211.148 526.281 211.337 526.089 211.523C525.897 211.708 525.65 211.862 525.348 211.985C525.047 212.108 524.685 212.169 524.265 212.169ZM524.588 210.976C524.999 210.976 525.35 210.895 525.642 210.732C525.937 210.57 526.16 210.358 526.313 210.096C526.469 209.831 526.547 209.547 526.547 209.246V208.261C526.493 208.314 526.391 208.364 526.238 208.411C526.089 208.454 525.918 208.492 525.726 208.525C525.534 208.555 525.347 208.583 525.164 208.609C524.982 208.633 524.83 208.652 524.707 208.669C524.419 208.705 524.155 208.767 523.917 208.853C523.681 208.939 523.492 209.063 523.35 209.226C523.211 209.385 523.141 209.597 523.141 209.862C523.141 210.23 523.277 210.509 523.549 210.697C523.82 210.883 524.167 210.976 524.588 210.976Z" fill="#CC5229"/>
<path d="M453.415 240V237.341L459.628 231.588C460.156 231.077 460.599 230.616 460.957 230.207C461.321 229.798 461.597 229.398 461.784 229.006C461.972 228.608 462.065 228.179 462.065 227.719C462.065 227.207 461.949 226.767 461.716 226.398C461.483 226.023 461.165 225.736 460.761 225.537C460.358 225.332 459.901 225.23 459.389 225.23C458.855 225.23 458.389 225.338 457.991 225.554C457.594 225.77 457.287 226.08 457.071 226.483C456.855 226.886 456.747 227.366 456.747 227.923H453.244C453.244 226.781 453.503 225.79 454.02 224.949C454.537 224.108 455.261 223.457 456.193 222.997C457.125 222.537 458.199 222.307 459.415 222.307C460.665 222.307 461.753 222.528 462.679 222.972C463.611 223.409 464.335 224.017 464.852 224.795C465.369 225.574 465.628 226.466 465.628 227.472C465.628 228.131 465.497 228.781 465.236 229.423C464.98 230.065 464.523 230.778 463.864 231.562C463.205 232.341 462.276 233.276 461.077 234.366L458.528 236.864V236.983H465.858V240H453.415ZM470.688 240.222C470.126 240.222 469.643 240.023 469.239 239.625C468.842 239.222 468.643 238.739 468.643 238.176C468.643 237.619 468.842 237.142 469.239 236.744C469.643 236.347 470.126 236.148 470.688 236.148C471.234 236.148 471.711 236.347 472.12 236.744C472.529 237.142 472.734 237.619 472.734 238.176C472.734 238.551 472.637 238.895 472.444 239.207C472.256 239.514 472.009 239.761 471.702 239.949C471.396 240.131 471.058 240.222 470.688 240.222ZM481.57 240.239C480.297 240.239 479.163 240.02 478.169 239.582C477.18 239.139 476.399 238.531 475.825 237.759C475.257 236.98 474.964 236.082 474.947 235.065H478.663C478.686 235.491 478.825 235.866 479.081 236.19C479.342 236.509 479.689 236.756 480.121 236.932C480.553 237.108 481.038 237.196 481.578 237.196C482.141 237.196 482.638 237.097 483.07 236.898C483.501 236.699 483.839 236.423 484.084 236.071C484.328 235.719 484.45 235.312 484.45 234.852C484.45 234.386 484.32 233.974 484.058 233.616C483.803 233.253 483.433 232.969 482.95 232.764C482.473 232.56 481.905 232.457 481.246 232.457H479.618V229.747H481.246C481.803 229.747 482.294 229.651 482.72 229.457C483.152 229.264 483.487 228.997 483.726 228.656C483.964 228.31 484.084 227.906 484.084 227.446C484.084 227.009 483.979 226.625 483.768 226.295C483.564 225.96 483.274 225.699 482.899 225.511C482.53 225.324 482.098 225.23 481.604 225.23C481.104 225.23 480.646 225.321 480.232 225.503C479.817 225.679 479.484 225.932 479.234 226.261C478.984 226.591 478.851 226.977 478.834 227.42H475.297C475.314 226.415 475.601 225.528 476.158 224.761C476.714 223.994 477.464 223.395 478.408 222.963C479.357 222.526 480.428 222.307 481.621 222.307C482.825 222.307 483.879 222.526 484.783 222.963C485.686 223.401 486.388 223.991 486.888 224.736C487.393 225.474 487.643 226.304 487.638 227.224C487.643 228.202 487.339 229.017 486.726 229.67C486.118 230.324 485.325 230.739 484.348 230.915V231.051C485.632 231.216 486.609 231.662 487.28 232.389C487.956 233.111 488.291 234.014 488.286 235.099C488.291 236.094 488.004 236.977 487.425 237.75C486.851 238.523 486.058 239.131 485.047 239.574C484.036 240.017 482.876 240.239 481.57 240.239ZM494.262 236.233L494.271 231.878H494.799L498.992 226.909H503.16L497.526 233.489H496.665L494.262 236.233ZM490.972 240V222.545H494.603V240H490.972ZM499.154 240L495.302 234.298L497.722 231.733L503.407 240H499.154Z" fill="#CC5229"/>
<rect x="214" y="177" width="172" height="89" rx="8" fill="#EFEAE3"/>
<path d="M256.667 210.833H235.333C233.867 210.833 232.68 212.033 232.68 213.5L232.667 229.5C232.667 230.967 233.867 232.167 235.333 232.167H246V229.5H235.333V216.167L246 222.833L256.667 216.167V222.833H259.333V213.5C259.333 212.033 258.133 210.833 256.667 210.833ZM246 220.167L235.333 213.5H256.667L246 220.167Z" fill="#DE8644"/>
<path d="M260.667 229.5L255.333 224.167V228.167H248.667V230.833H255.333V234.833L260.667 229.5Z" fill="#DE8644"/>
<path d="M287.575 205.129H286.024C285.964 204.798 285.853 204.506 285.691 204.254C285.529 204.002 285.33 203.789 285.094 203.613C284.859 203.437 284.596 203.305 284.304 203.215C284.016 203.126 283.709 203.081 283.384 203.081C282.798 203.081 282.272 203.228 281.808 203.523C281.348 203.818 280.983 204.251 280.714 204.821C280.449 205.391 280.317 206.087 280.317 206.909C280.317 207.738 280.449 208.437 280.714 209.007C280.983 209.577 281.349 210.008 281.813 210.3C282.277 210.591 282.799 210.737 283.379 210.737C283.701 210.737 284.006 210.694 284.294 210.608C284.586 210.518 284.849 210.388 285.085 210.215C285.32 210.043 285.519 209.832 285.681 209.584C285.847 209.332 285.961 209.044 286.024 208.719L287.575 208.724C287.492 209.224 287.332 209.685 287.093 210.106C286.858 210.523 286.554 210.885 286.183 211.19C285.815 211.491 285.394 211.725 284.92 211.891C284.446 212.056 283.929 212.139 283.369 212.139C282.488 212.139 281.702 211.93 281.013 211.513C280.323 211.092 279.78 210.49 279.382 209.708C278.988 208.926 278.79 207.993 278.79 206.909C278.79 205.822 278.989 204.889 279.387 204.11C279.785 203.328 280.328 202.728 281.018 202.31C281.707 201.889 282.491 201.679 283.369 201.679C283.91 201.679 284.413 201.757 284.881 201.913C285.351 202.065 285.774 202.29 286.148 202.589C286.523 202.884 286.833 203.245 287.078 203.673C287.323 204.097 287.489 204.582 287.575 205.129ZM290.781 201.818V212H289.294V201.818H290.781ZM292.781 212V204.364H294.267V212H292.781ZM293.531 203.185C293.273 203.185 293.051 203.099 292.865 202.927C292.683 202.751 292.592 202.542 292.592 202.3C292.592 202.055 292.683 201.846 292.865 201.674C293.051 201.498 293.273 201.411 293.531 201.411C293.79 201.411 294.01 201.498 294.192 201.674C294.378 201.846 294.471 202.055 294.471 202.3C294.471 202.542 294.378 202.751 294.192 202.927C294.01 203.099 293.79 203.185 293.531 203.185ZM299.483 212.154C298.744 212.154 298.108 211.987 297.574 211.652C297.044 211.314 296.636 210.848 296.351 210.255C296.066 209.662 295.924 208.982 295.924 208.217C295.924 207.441 296.07 206.757 296.361 206.163C296.653 205.567 297.064 205.101 297.594 204.766C298.125 204.432 298.749 204.264 299.469 204.264C300.049 204.264 300.566 204.372 301.02 204.587C301.474 204.799 301.84 205.098 302.118 205.482C302.4 205.867 302.568 206.316 302.621 206.83H301.174C301.094 206.472 300.912 206.163 300.627 205.905C300.345 205.646 299.967 205.517 299.493 205.517C299.079 205.517 298.716 205.626 298.405 205.845C298.096 206.061 297.856 206.369 297.684 206.77C297.511 207.168 297.425 207.638 297.425 208.182C297.425 208.739 297.51 209.219 297.679 209.624C297.848 210.028 298.086 210.341 298.395 210.563C298.706 210.785 299.073 210.896 299.493 210.896C299.775 210.896 300.03 210.845 300.259 210.742C300.491 210.636 300.685 210.485 300.841 210.29C301 210.094 301.111 209.859 301.174 209.584H302.621C302.568 210.078 302.407 210.518 302.138 210.906C301.87 211.294 301.51 211.599 301.059 211.821C300.612 212.043 300.087 212.154 299.483 212.154ZM306.433 212.169C305.949 212.169 305.511 212.08 305.12 211.901C304.729 211.718 304.419 211.455 304.19 211.11C303.965 210.765 303.852 210.343 303.852 209.842C303.852 209.411 303.935 209.057 304.101 208.778C304.267 208.5 304.49 208.28 304.772 208.117C305.054 207.955 305.369 207.832 305.717 207.749C306.065 207.666 306.419 207.603 306.781 207.56C307.238 207.507 307.609 207.464 307.894 207.431C308.179 207.395 308.386 207.337 308.516 207.257C308.645 207.178 308.71 207.048 308.71 206.869V206.835C308.71 206.4 308.587 206.064 308.342 205.825C308.1 205.587 307.738 205.467 307.258 205.467C306.757 205.467 306.363 205.578 306.075 205.8C305.79 206.019 305.592 206.263 305.483 206.531L304.086 206.213C304.252 205.749 304.494 205.375 304.812 205.089C305.133 204.801 305.503 204.592 305.92 204.463C306.338 204.33 306.777 204.264 307.238 204.264C307.543 204.264 307.866 204.301 308.207 204.374C308.552 204.443 308.874 204.572 309.172 204.761C309.473 204.95 309.72 205.22 309.913 205.572C310.105 205.92 310.201 206.372 310.201 206.929V212H308.749V210.956H308.69C308.594 211.148 308.449 211.337 308.257 211.523C308.065 211.708 307.818 211.862 307.516 211.985C307.215 212.108 306.853 212.169 306.433 212.169ZM306.756 210.976C307.167 210.976 307.518 210.895 307.81 210.732C308.105 210.57 308.328 210.358 308.481 210.096C308.637 209.831 308.714 209.547 308.714 209.246V208.261C308.661 208.314 308.559 208.364 308.406 208.411C308.257 208.454 308.086 208.492 307.894 208.525C307.702 208.555 307.515 208.583 307.332 208.609C307.15 208.633 306.998 208.652 306.875 208.669C306.587 208.705 306.323 208.767 306.085 208.853C305.849 208.939 305.66 209.063 305.518 209.226C305.379 209.385 305.309 209.597 305.309 209.862C305.309 210.23 305.445 210.509 305.717 210.697C305.988 210.883 306.335 210.976 306.756 210.976ZM315.04 212.149C314.423 212.149 313.873 211.992 313.389 211.677C312.908 211.359 312.531 210.906 312.256 210.32C311.984 209.73 311.848 209.022 311.848 208.197C311.848 207.371 311.985 206.665 312.26 206.079C312.539 205.492 312.92 205.043 313.404 204.732C313.888 204.42 314.436 204.264 315.05 204.264C315.523 204.264 315.905 204.344 316.193 204.503C316.485 204.659 316.71 204.841 316.869 205.05C317.032 205.259 317.157 205.442 317.247 205.602H317.336V201.818H318.823V212H317.371V210.812H317.247C317.157 210.974 317.028 211.16 316.859 211.369C316.693 211.577 316.465 211.76 316.173 211.915C315.881 212.071 315.504 212.149 315.04 212.149ZM315.368 210.881C315.795 210.881 316.157 210.769 316.452 210.543C316.75 210.315 316.975 209.998 317.128 209.594C317.283 209.189 317.361 208.719 317.361 208.182C317.361 207.652 317.285 207.187 317.133 206.79C316.98 206.392 316.756 206.082 316.461 205.86C316.166 205.638 315.802 205.527 315.368 205.527C314.92 205.527 314.547 205.643 314.249 205.875C313.951 206.107 313.725 206.424 313.573 206.825C313.424 207.226 313.349 207.678 313.349 208.182C313.349 208.692 313.425 209.151 313.578 209.559C313.73 209.967 313.956 210.29 314.254 210.528C314.556 210.764 314.927 210.881 315.368 210.881ZM323.167 212.169C322.683 212.169 322.246 212.08 321.854 211.901C321.463 211.718 321.153 211.455 320.925 211.11C320.699 210.765 320.587 210.343 320.587 209.842C320.587 209.411 320.67 209.057 320.835 208.778C321.001 208.5 321.225 208.28 321.506 208.117C321.788 207.955 322.103 207.832 322.451 207.749C322.799 207.666 323.154 207.603 323.515 207.56C323.972 207.507 324.344 207.464 324.629 207.431C324.914 207.395 325.121 207.337 325.25 207.257C325.379 207.178 325.444 207.048 325.444 206.869V206.835C325.444 206.4 325.321 206.064 325.076 205.825C324.834 205.587 324.473 205.467 323.992 205.467C323.492 205.467 323.097 205.578 322.809 205.8C322.524 206.019 322.327 206.263 322.217 206.531L320.82 206.213C320.986 205.749 321.228 205.375 321.546 205.089C321.868 204.801 322.237 204.592 322.655 204.463C323.072 204.33 323.512 204.264 323.972 204.264C324.277 204.264 324.6 204.301 324.942 204.374C325.286 204.443 325.608 204.572 325.906 204.761C326.208 204.95 326.455 205.22 326.647 205.572C326.839 205.92 326.935 206.372 326.935 206.929V212H325.484V210.956H325.424C325.328 211.148 325.184 211.337 324.991 211.523C324.799 211.708 324.552 211.862 324.251 211.985C323.949 212.108 323.588 212.169 323.167 212.169ZM323.49 210.976C323.901 210.976 324.252 210.895 324.544 210.732C324.839 210.57 325.063 210.358 325.215 210.096C325.371 209.831 325.449 209.547 325.449 209.246V208.261C325.396 208.314 325.293 208.364 325.141 208.411C324.991 208.454 324.821 208.492 324.629 208.525C324.436 208.555 324.249 208.583 324.067 208.609C323.884 208.633 323.732 208.652 323.609 208.669C323.321 208.705 323.058 208.767 322.819 208.853C322.584 208.939 322.395 209.063 322.252 209.226C322.113 209.385 322.043 209.597 322.043 209.862C322.043 210.23 322.179 210.509 322.451 210.697C322.723 210.883 323.069 210.976 323.49 210.976Z" fill="#DE8644"/>
<path d="M285.926 240.239C284.614 240.239 283.446 240.026 282.423 239.599C281.406 239.168 280.608 238.58 280.028 237.835C279.449 237.091 279.159 236.247 279.159 235.304C279.159 234.577 279.324 233.909 279.653 233.301C279.989 232.688 280.443 232.179 281.017 231.776C281.591 231.366 282.233 231.105 282.943 230.991V230.872C282.011 230.685 281.256 230.233 280.676 229.517C280.097 228.795 279.807 227.957 279.807 227.003C279.807 226.099 280.071 225.295 280.599 224.591C281.128 223.881 281.852 223.324 282.773 222.92C283.699 222.511 284.75 222.307 285.926 222.307C287.102 222.307 288.151 222.511 289.071 222.92C289.997 223.33 290.724 223.889 291.253 224.599C291.781 225.304 292.048 226.105 292.054 227.003C292.048 227.963 291.753 228.801 291.168 229.517C290.582 230.233 289.832 230.685 288.918 230.872V230.991C289.616 231.105 290.25 231.366 290.818 231.776C291.392 232.179 291.847 232.688 292.182 233.301C292.523 233.909 292.696 234.577 292.702 235.304C292.696 236.247 292.403 237.091 291.824 237.835C291.244 238.58 290.443 239.168 289.42 239.599C288.403 240.026 287.239 240.239 285.926 240.239ZM285.926 237.528C286.511 237.528 287.023 237.423 287.46 237.213C287.898 236.997 288.239 236.702 288.483 236.327C288.733 235.946 288.858 235.509 288.858 235.014C288.858 234.509 288.73 234.062 288.474 233.676C288.219 233.284 287.872 232.977 287.435 232.756C286.997 232.528 286.494 232.415 285.926 232.415C285.364 232.415 284.861 232.528 284.418 232.756C283.974 232.977 283.625 233.284 283.369 233.676C283.119 234.062 282.994 234.509 282.994 235.014C282.994 235.509 283.116 235.946 283.361 236.327C283.605 236.702 283.949 236.997 284.392 237.213C284.835 237.423 285.347 237.528 285.926 237.528ZM285.926 229.73C286.415 229.73 286.849 229.631 287.23 229.432C287.611 229.233 287.909 228.957 288.125 228.605C288.341 228.253 288.449 227.847 288.449 227.386C288.449 226.932 288.341 226.534 288.125 226.193C287.909 225.847 287.614 225.577 287.239 225.384C286.864 225.185 286.426 225.085 285.926 225.085C285.432 225.085 284.994 225.185 284.614 225.384C284.233 225.577 283.935 225.847 283.719 226.193C283.509 226.534 283.403 226.932 283.403 227.386C283.403 227.847 283.511 228.253 283.727 228.605C283.943 228.957 284.241 229.233 284.622 229.432C285.003 229.631 285.438 229.73 285.926 229.73ZM296.946 240.222C296.384 240.222 295.901 240.023 295.497 239.625C295.099 239.222 294.901 238.739 294.901 238.176C294.901 237.619 295.099 237.142 295.497 236.744C295.901 236.347 296.384 236.148 296.946 236.148C297.491 236.148 297.969 236.347 298.378 236.744C298.787 237.142 298.991 237.619 298.991 238.176C298.991 238.551 298.895 238.895 298.702 239.207C298.514 239.514 298.267 239.761 297.96 239.949C297.653 240.131 297.315 240.222 296.946 240.222ZM301.938 240V237.341L308.151 231.588C308.68 231.077 309.123 230.616 309.481 230.207C309.844 229.798 310.12 229.398 310.308 229.006C310.495 228.608 310.589 228.179 310.589 227.719C310.589 227.207 310.472 226.767 310.239 226.398C310.006 226.023 309.688 225.736 309.285 225.537C308.881 225.332 308.424 225.23 307.913 225.23C307.379 225.23 306.913 225.338 306.515 225.554C306.117 225.77 305.81 226.08 305.594 226.483C305.379 226.886 305.271 227.366 305.271 227.923H301.768C301.768 226.781 302.026 225.79 302.543 224.949C303.06 224.108 303.785 223.457 304.717 222.997C305.648 222.537 306.722 222.307 307.938 222.307C309.188 222.307 310.276 222.528 311.202 222.972C312.134 223.409 312.859 224.017 313.376 224.795C313.893 225.574 314.151 226.466 314.151 227.472C314.151 228.131 314.021 228.781 313.759 229.423C313.504 230.065 313.046 230.778 312.387 231.562C311.728 232.341 310.799 233.276 309.6 234.366L307.052 236.864V236.983H314.381V240H301.938ZM320.379 236.233L320.388 231.878H320.916L325.109 226.909H329.277L323.643 233.489H322.783L320.379 236.233ZM317.089 240V222.545H320.72V240H317.089ZM325.271 240L321.419 234.298L323.839 231.733L329.524 240H325.271Z" fill="#DE8644"/>
<rect x="40" y="268" width="172" height="89" rx="8" fill="#E8F7E8"/>
<path d="M82.6665 301.833H61.3332C59.8665 301.833 58.6798 303.033 58.6798 304.5L58.6665 320.5C58.6665 321.967 59.8665 323.167 61.3332 323.167H71.9998V320.5H61.3332V307.167L71.9998 313.833L82.6665 307.167V313.833H85.3332V304.5C85.3332 303.033 84.1332 301.833 82.6665 301.833ZM71.9998 311.167L61.3332 304.5H82.6665L71.9998 311.167ZM79.1198 325.833L74.3998 321.113L76.2798 319.233L79.1065 322.06L84.7598 316.407L86.6665 318.287L79.1198 325.833Z" fill="#29A653"/>
<path d="M105.119 303V292.818H111.502V294.141H106.655V297.243H111.169V298.56H106.655V301.678H111.562V303H105.119ZM114.921 298.466V303H113.435V295.364H114.862V296.607H114.956C115.132 296.202 115.407 295.877 115.781 295.632C116.159 295.387 116.635 295.264 117.208 295.264C117.729 295.264 118.184 295.374 118.575 295.592C118.967 295.808 119.27 296.129 119.485 296.557C119.701 296.984 119.808 297.513 119.808 298.143V303H118.322V298.322C118.322 297.768 118.178 297.336 117.889 297.024C117.601 296.709 117.205 296.552 116.701 296.552C116.356 296.552 116.05 296.626 115.781 296.776C115.516 296.925 115.306 297.143 115.15 297.432C114.998 297.717 114.921 298.062 114.921 298.466ZM125.367 295.364V296.557H121.195V295.364H125.367ZM122.314 293.534H123.801V300.758C123.801 301.046 123.844 301.263 123.93 301.409C124.016 301.552 124.127 301.649 124.263 301.702C124.402 301.752 124.553 301.777 124.715 301.777C124.835 301.777 124.939 301.769 125.029 301.752C125.118 301.736 125.188 301.722 125.237 301.712L125.506 302.94C125.42 302.973 125.297 303.007 125.138 303.04C124.979 303.076 124.78 303.096 124.541 303.099C124.15 303.106 123.786 303.036 123.448 302.891C123.11 302.745 122.836 302.519 122.627 302.214C122.419 301.91 122.314 301.527 122.314 301.066V293.534ZM127.011 303V295.364H128.448V296.577H128.527C128.667 296.166 128.912 295.843 129.263 295.607C129.618 295.369 130.019 295.249 130.466 295.249C130.559 295.249 130.668 295.253 130.794 295.259C130.924 295.266 131.025 295.274 131.098 295.284V296.706C131.038 296.689 130.932 296.671 130.779 296.651C130.627 296.628 130.475 296.616 130.322 296.616C129.971 296.616 129.658 296.691 129.382 296.84C129.111 296.986 128.895 297.19 128.736 297.452C128.577 297.71 128.498 298.005 128.498 298.337V303H127.011ZM135.402 303.154C134.649 303.154 134.001 302.993 133.458 302.672C132.918 302.347 132.5 301.891 132.205 301.305C131.913 300.715 131.768 300.024 131.768 299.232C131.768 298.449 131.913 297.76 132.205 297.163C132.5 296.567 132.911 296.101 133.438 295.766C133.968 295.432 134.588 295.264 135.297 295.264C135.728 295.264 136.146 295.335 136.55 295.478C136.955 295.621 137.318 295.844 137.639 296.149C137.961 296.454 138.214 296.85 138.4 297.337C138.585 297.821 138.678 298.41 138.678 299.102V299.629H132.608V298.516H137.221C137.221 298.125 137.142 297.778 136.983 297.477C136.824 297.172 136.6 296.931 136.312 296.756C136.027 296.58 135.692 296.492 135.307 296.492C134.89 296.492 134.525 296.595 134.214 296.8C133.905 297.003 133.667 297.268 133.498 297.596C133.332 297.921 133.249 298.274 133.249 298.655V299.525C133.249 300.035 133.339 300.469 133.518 300.827C133.7 301.185 133.953 301.459 134.278 301.648C134.603 301.833 134.983 301.926 135.417 301.926C135.698 301.926 135.955 301.886 136.187 301.807C136.419 301.724 136.62 301.601 136.789 301.439C136.958 301.277 137.087 301.076 137.177 300.837L138.584 301.091C138.471 301.505 138.269 301.868 137.977 302.18C137.689 302.488 137.326 302.728 136.888 302.901C136.454 303.07 135.959 303.154 135.402 303.154ZM143.529 306.023C142.923 306.023 142.401 305.943 141.963 305.784C141.529 305.625 141.174 305.415 140.899 305.153C140.624 304.891 140.419 304.604 140.283 304.293L141.56 303.766C141.65 303.911 141.769 304.066 141.918 304.228C142.071 304.394 142.276 304.535 142.535 304.651C142.797 304.767 143.133 304.825 143.544 304.825C144.107 304.825 144.573 304.687 144.941 304.412C145.309 304.14 145.493 303.706 145.493 303.109V301.608H145.398C145.309 301.77 145.18 301.951 145.011 302.15C144.845 302.349 144.616 302.521 144.325 302.667C144.033 302.813 143.653 302.886 143.186 302.886C142.583 302.886 142.039 302.745 141.555 302.463C141.075 302.178 140.694 301.759 140.412 301.205C140.134 300.648 139.994 299.964 139.994 299.152C139.994 298.34 140.132 297.644 140.407 297.064C140.685 296.484 141.067 296.04 141.55 295.732C142.034 295.42 142.583 295.264 143.196 295.264C143.67 295.264 144.053 295.344 144.344 295.503C144.636 295.659 144.863 295.841 145.026 296.05C145.191 296.259 145.319 296.442 145.408 296.602H145.518V295.364H146.974V303.169C146.974 303.825 146.822 304.364 146.517 304.785C146.212 305.206 145.799 305.517 145.279 305.719C144.762 305.922 144.179 306.023 143.529 306.023ZM143.514 301.653C143.942 301.653 144.303 301.553 144.598 301.354C144.896 301.152 145.122 300.864 145.274 300.489C145.43 300.112 145.508 299.659 145.508 299.132C145.508 298.618 145.432 298.166 145.279 297.775C145.127 297.384 144.903 297.079 144.608 296.86C144.313 296.638 143.948 296.527 143.514 296.527C143.067 296.527 142.694 296.643 142.396 296.875C142.097 297.104 141.872 297.415 141.719 297.81C141.57 298.204 141.496 298.645 141.496 299.132C141.496 299.633 141.572 300.072 141.724 300.45C141.877 300.827 142.102 301.122 142.401 301.335C142.702 301.547 143.073 301.653 143.514 301.653ZM153.805 299.833V295.364H155.297V303H153.835V301.678H153.756C153.58 302.085 153.298 302.425 152.911 302.697C152.526 302.965 152.047 303.099 151.474 303.099C150.983 303.099 150.549 302.992 150.171 302.776C149.797 302.558 149.502 302.234 149.286 301.807C149.074 301.379 148.968 300.851 148.968 300.221V295.364H150.455V300.042C150.455 300.562 150.599 300.977 150.887 301.285C151.175 301.593 151.55 301.747 152.011 301.747C152.289 301.747 152.566 301.678 152.841 301.538C153.119 301.399 153.35 301.189 153.532 300.907C153.718 300.625 153.809 300.267 153.805 299.833ZM160.585 303.154C159.833 303.154 159.185 302.993 158.642 302.672C158.101 302.347 157.684 301.891 157.389 301.305C157.097 300.715 156.951 300.024 156.951 299.232C156.951 298.449 157.097 297.76 157.389 297.163C157.684 296.567 158.095 296.101 158.622 295.766C159.152 295.432 159.772 295.264 160.481 295.264C160.912 295.264 161.329 295.335 161.734 295.478C162.138 295.621 162.501 295.844 162.823 296.149C163.144 296.454 163.398 296.85 163.583 297.337C163.769 297.821 163.862 298.41 163.862 299.102V299.629H157.791V298.516H162.405C162.405 298.125 162.325 297.778 162.166 297.477C162.007 297.172 161.784 296.931 161.495 296.756C161.21 296.58 160.875 296.492 160.491 296.492C160.073 296.492 159.709 296.595 159.397 296.8C159.089 297.003 158.85 297.268 158.681 297.596C158.516 297.921 158.433 298.274 158.433 298.655V299.525C158.433 300.035 158.522 300.469 158.701 300.827C158.883 301.185 159.137 301.459 159.462 301.648C159.787 301.833 160.166 301.926 160.6 301.926C160.882 301.926 161.139 301.886 161.371 301.807C161.603 301.724 161.803 301.601 161.972 301.439C162.142 301.277 162.271 301.076 162.36 300.837L163.767 301.091C163.655 301.505 163.452 301.868 163.161 302.18C162.872 302.488 162.509 302.728 162.072 302.901C161.638 303.07 161.142 303.154 160.585 303.154Z" fill="#29A653"/>
<path d="M105.151 327.932V325.026L112.438 313.545H114.943V317.568H113.46L108.866 324.838V324.974H119.222V327.932H105.151ZM113.528 331V327.045L113.597 325.759V313.545H117.057V331H113.528ZM128.055 331.239C126.851 331.239 125.777 331.017 124.834 330.574C123.896 330.131 123.152 329.52 122.601 328.741C122.05 327.963 121.763 327.071 121.74 326.065H125.32C125.359 326.741 125.643 327.29 126.172 327.71C126.7 328.131 127.328 328.341 128.055 328.341C128.635 328.341 129.146 328.213 129.589 327.957C130.038 327.696 130.388 327.335 130.638 326.875C130.893 326.409 131.021 325.875 131.021 325.273C131.021 324.659 130.891 324.119 130.629 323.653C130.374 323.187 130.018 322.824 129.564 322.562C129.109 322.301 128.589 322.168 128.004 322.162C127.493 322.162 126.996 322.267 126.513 322.477C126.036 322.687 125.663 322.974 125.396 323.338L122.115 322.75L122.942 313.545H133.612V316.562H125.984L125.533 320.935H125.635C125.942 320.503 126.405 320.145 127.024 319.861C127.643 319.577 128.337 319.435 129.104 319.435C130.155 319.435 131.092 319.682 131.916 320.176C132.74 320.67 133.391 321.349 133.868 322.213C134.345 323.071 134.581 324.06 134.575 325.179C134.581 326.355 134.308 327.401 133.757 328.315C133.212 329.224 132.447 329.94 131.464 330.463C130.487 330.98 129.351 331.239 128.055 331.239ZM138.743 331.222C138.18 331.222 137.697 331.023 137.294 330.625C136.896 330.222 136.697 329.739 136.697 329.176C136.697 328.619 136.896 328.142 137.294 327.744C137.697 327.347 138.18 327.148 138.743 327.148C139.288 327.148 139.766 327.347 140.175 327.744C140.584 328.142 140.788 328.619 140.788 329.176C140.788 329.551 140.692 329.895 140.499 330.207C140.311 330.514 140.064 330.761 139.757 330.949C139.45 331.131 139.112 331.222 138.743 331.222ZM149.731 331.239C148.833 331.233 147.967 331.082 147.131 330.787C146.302 330.491 145.558 330.011 144.898 329.347C144.239 328.682 143.717 327.801 143.33 326.705C142.95 325.608 142.759 324.261 142.759 322.665C142.765 321.199 142.933 319.889 143.262 318.736C143.597 317.577 144.075 316.594 144.694 315.787C145.319 314.98 146.066 314.366 146.935 313.946C147.805 313.52 148.779 313.307 149.859 313.307C151.023 313.307 152.052 313.534 152.944 313.989C153.836 314.437 154.552 315.048 155.092 315.821C155.637 316.594 155.967 317.46 156.08 318.42H152.441C152.299 317.812 152.001 317.335 151.546 316.989C151.092 316.642 150.529 316.469 149.859 316.469C148.722 316.469 147.859 316.963 147.268 317.952C146.683 318.94 146.384 320.284 146.373 321.983H146.492C146.754 321.466 147.106 321.026 147.549 320.662C147.998 320.293 148.506 320.011 149.075 319.818C149.648 319.619 150.254 319.52 150.89 319.52C151.924 319.52 152.844 319.764 153.651 320.253C154.458 320.736 155.094 321.401 155.56 322.247C156.026 323.094 156.259 324.062 156.259 325.153C156.259 326.335 155.984 327.386 155.433 328.307C154.887 329.227 154.123 329.949 153.14 330.472C152.163 330.989 151.026 331.244 149.731 331.239ZM149.714 328.341C150.282 328.341 150.79 328.205 151.239 327.932C151.688 327.659 152.04 327.29 152.296 326.824C152.552 326.358 152.68 325.835 152.68 325.256C152.68 324.676 152.552 324.156 152.296 323.696C152.046 323.236 151.7 322.869 151.256 322.597C150.813 322.324 150.308 322.188 149.739 322.188C149.313 322.188 148.918 322.267 148.555 322.426C148.197 322.585 147.881 322.807 147.609 323.091C147.342 323.375 147.131 323.705 146.978 324.08C146.825 324.449 146.748 324.844 146.748 325.264C146.748 325.827 146.876 326.341 147.131 326.807C147.393 327.273 147.745 327.645 148.188 327.923C148.637 328.202 149.146 328.341 149.714 328.341ZM162.2 327.233L162.208 322.878H162.737L166.93 317.909H171.097L165.464 324.489H164.603L162.2 327.233ZM158.91 331V313.545H162.54V331H158.91ZM167.092 331L163.239 325.298L165.66 322.733L171.344 331H167.092Z" fill="#29A653"/>
<rect x="214" y="268" width="172" height="89" rx="8" fill="#DCEEFA"/>
<path d="M259.32 309.167C259.32 308.207 258.827 307.367 258.067 306.9L246 299.833L233.933 306.9C233.173 307.367 232.667 308.207 232.667 309.167V322.5C232.667 323.967 233.867 325.167 235.333 325.167H256.667C258.133 325.167 259.333 323.967 259.333 322.5L259.32 309.167ZM256.653 309.167V309.18L246 315.833L235.333 309.167L246 302.927L256.653 309.167ZM235.333 322.5V312.287L246 318.98L256.653 312.327L256.667 322.5H235.333Z" fill="#2188BA"/>
<path d="M279.979 303H278.348L282.012 292.818H283.787L287.451 303H285.82L282.942 294.668H282.862L279.979 303ZM280.252 299.013H285.542V300.305H280.252V299.013ZM288.921 303V292.818H290.408V296.602H290.497C290.584 296.442 290.708 296.259 290.87 296.05C291.033 295.841 291.258 295.659 291.546 295.503C291.835 295.344 292.216 295.264 292.69 295.264C293.306 295.264 293.856 295.42 294.34 295.732C294.824 296.043 295.204 296.492 295.479 297.079C295.757 297.665 295.896 298.371 295.896 299.197C295.896 300.022 295.759 300.73 295.484 301.32C295.209 301.906 294.831 302.359 294.35 302.677C293.87 302.992 293.321 303.149 292.705 303.149C292.241 303.149 291.861 303.071 291.566 302.915C291.275 302.76 291.046 302.577 290.88 302.369C290.714 302.16 290.587 301.974 290.497 301.812H290.373V303H288.921ZM290.378 299.182C290.378 299.719 290.456 300.189 290.612 300.594C290.767 300.998 290.993 301.315 291.288 301.543C291.583 301.769 291.944 301.881 292.372 301.881C292.816 301.881 293.187 301.764 293.485 301.528C293.784 301.29 294.009 300.967 294.161 300.559C294.317 300.151 294.395 299.692 294.395 299.182C294.395 298.678 294.319 298.226 294.166 297.825C294.017 297.424 293.792 297.107 293.49 296.875C293.192 296.643 292.819 296.527 292.372 296.527C291.941 296.527 291.576 296.638 291.278 296.86C290.983 297.082 290.759 297.392 290.607 297.79C290.454 298.187 290.378 298.652 290.378 299.182ZM300.857 303.154C300.105 303.154 299.457 302.993 298.913 302.672C298.373 302.347 297.955 301.891 297.66 301.305C297.368 300.715 297.223 300.024 297.223 299.232C297.223 298.449 297.368 297.76 297.66 297.163C297.955 296.567 298.366 296.101 298.893 295.766C299.423 295.432 300.043 295.264 300.752 295.264C301.183 295.264 301.601 295.335 302.005 295.478C302.41 295.621 302.773 295.844 303.094 296.149C303.416 296.454 303.669 296.85 303.855 297.337C304.04 297.821 304.133 298.41 304.133 299.102V299.629H298.063V298.516H302.676C302.676 298.125 302.597 297.778 302.438 297.477C302.279 297.172 302.055 296.931 301.767 296.756C301.482 296.58 301.147 296.492 300.762 296.492C300.345 296.492 299.98 296.595 299.669 296.8C299.36 297.003 299.122 297.268 298.953 297.596C298.787 297.921 298.704 298.274 298.704 298.655V299.525C298.704 300.035 298.794 300.469 298.973 300.827C299.155 301.185 299.408 301.459 299.733 301.648C300.058 301.833 300.438 301.926 300.872 301.926C301.154 301.926 301.41 301.886 301.642 301.807C301.874 301.724 302.075 301.601 302.244 301.439C302.413 301.277 302.542 301.076 302.632 300.837L304.039 301.091C303.926 301.505 303.724 301.868 303.432 302.18C303.144 302.488 302.781 302.728 302.343 302.901C301.909 303.07 301.414 303.154 300.857 303.154ZM305.782 303V295.364H307.219V296.577H307.299C307.438 296.166 307.683 295.843 308.035 295.607C308.389 295.369 308.79 295.249 309.238 295.249C309.331 295.249 309.44 295.253 309.566 295.259C309.695 295.266 309.796 295.274 309.869 295.284V296.706C309.809 296.689 309.703 296.671 309.551 296.651C309.398 296.628 309.246 296.616 309.094 296.616C308.742 296.616 308.429 296.691 308.154 296.84C307.882 296.986 307.667 297.19 307.508 297.452C307.349 297.71 307.269 298.005 307.269 298.337V303H305.782ZM315.171 295.364V296.557H311V295.364H315.171ZM312.119 293.534H313.605V300.758C313.605 301.046 313.648 301.263 313.735 301.409C313.821 301.552 313.932 301.649 314.068 301.702C314.207 301.752 314.358 301.777 314.52 301.777C314.639 301.777 314.744 301.769 314.833 301.752C314.923 301.736 314.992 301.722 315.042 301.712L315.311 302.94C315.224 302.973 315.102 303.007 314.943 303.04C314.784 303.076 314.585 303.096 314.346 303.099C313.955 303.106 313.59 303.036 313.252 302.891C312.914 302.745 312.641 302.519 312.432 302.214C312.223 301.91 312.119 301.527 312.119 301.066V293.534ZM319.95 303.154C319.234 303.154 318.61 302.99 318.076 302.662C317.542 302.334 317.128 301.875 316.833 301.285C316.538 300.695 316.391 300.005 316.391 299.217C316.391 298.424 316.538 297.732 316.833 297.138C317.128 296.545 317.542 296.085 318.076 295.756C318.61 295.428 319.234 295.264 319.95 295.264C320.666 295.264 321.291 295.428 321.825 295.756C322.358 296.085 322.772 296.545 323.067 297.138C323.362 297.732 323.51 298.424 323.51 299.217C323.51 300.005 323.362 300.695 323.067 301.285C322.772 301.875 322.358 302.334 321.825 302.662C321.291 302.99 320.666 303.154 319.95 303.154ZM319.955 301.906C320.419 301.906 320.804 301.784 321.109 301.538C321.414 301.293 321.639 300.967 321.785 300.559C321.934 300.151 322.009 299.702 322.009 299.212C322.009 298.724 321.934 298.277 321.785 297.869C321.639 297.458 321.414 297.129 321.109 296.88C320.804 296.631 320.419 296.507 319.955 296.507C319.488 296.507 319.1 296.631 318.792 296.88C318.487 297.129 318.26 297.458 318.111 297.869C317.965 298.277 317.892 298.724 317.892 299.212C317.892 299.702 317.965 300.151 318.111 300.559C318.26 300.967 318.487 301.293 318.792 301.538C319.1 301.784 319.488 301.906 319.955 301.906Z" fill="#2188BA"/>
<path d="M287.009 313.545V331H283.318V317.048H283.216L279.219 319.554V316.281L283.54 313.545H287.009ZM298.751 313.545V331H295.06V317.048H294.958L290.961 319.554V316.281L295.282 313.545H298.751ZM304.118 331.222C303.555 331.222 303.072 331.023 302.669 330.625C302.271 330.222 302.072 329.739 302.072 329.176C302.072 328.619 302.271 328.142 302.669 327.744C303.072 327.347 303.555 327.148 304.118 327.148C304.663 327.148 305.141 327.347 305.55 327.744C305.959 328.142 306.163 328.619 306.163 329.176C306.163 329.551 306.067 329.895 305.874 330.207C305.686 330.514 305.439 330.761 305.132 330.949C304.825 331.131 304.487 331.222 304.118 331.222ZM308.846 327.932V325.026L316.133 313.545H318.638V317.568H317.156L312.562 324.838V324.974H322.917V327.932H308.846ZM317.224 331V327.045L317.292 325.759V313.545H320.752V331H317.224ZM328.7 327.233L328.708 322.878H329.237L333.43 317.909H337.597L331.964 324.489H331.103L328.7 327.233ZM325.41 331V313.545H329.04V331H325.41ZM333.592 331L329.739 325.298L332.16 322.733L337.844 331H333.592Z" fill="#2188BA"/>
<path d="M509 300H439C433.5 300 429 304.5 429 310V380C429 385.5 433.5 390 439 390H509C514.5 390 519 385.5 519 380V310C519 304.5 514.5 300 509 300ZM509 380H439V310H509V380Z" fill="#F9EAE5"/>
<path d="M459 345H449V370H459V345Z" fill="#F9EAE5"/>
<path d="M499 320H489V370H499V320Z" fill="#F9EAE5"/>
<path d="M479 355H469V370H479V355Z" fill="#F9EAE5"/>
<path d="M479 335H469V345H479V335Z" fill="#F9EAE5"/>
<path d="M439 90H454V139H439V90ZM467 69H481V139H467V69ZM495 109H509V139H495V109Z" fill="#F9EAE5"/>
<path d="M231.373 139H227.998L234.143 121.545H238.047L244.2 139H240.825L236.163 125.125H236.027L231.373 139ZM231.484 132.156H240.689V134.696H231.484V132.156ZM249.448 131.33V139H246.363V125.909H249.311V128.134H249.465C249.766 127.401 250.246 126.818 250.905 126.386C251.57 125.955 252.391 125.739 253.368 125.739C254.272 125.739 255.059 125.932 255.729 126.318C256.405 126.705 256.928 127.264 257.297 127.997C257.672 128.73 257.857 129.619 257.851 130.665V139H254.766V131.142C254.766 130.267 254.539 129.582 254.084 129.088C253.635 128.594 253.013 128.347 252.218 128.347C251.678 128.347 251.198 128.466 250.777 128.705C250.363 128.937 250.036 129.276 249.797 129.719C249.564 130.162 249.448 130.699 249.448 131.33ZM264.755 139.264C263.925 139.264 263.178 139.116 262.513 138.821C261.854 138.52 261.331 138.077 260.945 137.491C260.564 136.906 260.374 136.185 260.374 135.327C260.374 134.588 260.51 133.977 260.783 133.494C261.056 133.011 261.428 132.625 261.9 132.335C262.371 132.045 262.902 131.827 263.493 131.679C264.09 131.526 264.706 131.415 265.343 131.347C266.11 131.267 266.732 131.196 267.209 131.134C267.686 131.065 268.033 130.963 268.249 130.827C268.471 130.685 268.581 130.466 268.581 130.17V130.119C268.581 129.477 268.391 128.98 268.01 128.628C267.63 128.276 267.081 128.099 266.365 128.099C265.61 128.099 265.01 128.264 264.567 128.594C264.13 128.923 263.834 129.312 263.681 129.761L260.8 129.352C261.027 128.557 261.402 127.892 261.925 127.358C262.448 126.818 263.087 126.415 263.843 126.148C264.598 125.875 265.434 125.739 266.348 125.739C266.979 125.739 267.607 125.812 268.232 125.96C268.857 126.108 269.428 126.352 269.945 126.693C270.462 127.028 270.877 127.486 271.189 128.065C271.507 128.645 271.667 129.369 271.667 130.239V139H268.701V137.202H268.598C268.411 137.565 268.147 137.906 267.806 138.224C267.471 138.537 267.047 138.79 266.536 138.983C266.03 139.17 265.436 139.264 264.755 139.264ZM265.556 136.997C266.175 136.997 266.712 136.875 267.167 136.631C267.621 136.381 267.971 136.051 268.215 135.642C268.465 135.233 268.59 134.787 268.59 134.304V132.761C268.493 132.841 268.328 132.915 268.096 132.983C267.868 133.051 267.613 133.111 267.328 133.162C267.044 133.213 266.763 133.259 266.485 133.298C266.206 133.338 265.965 133.372 265.76 133.401C265.3 133.463 264.888 133.565 264.525 133.707C264.161 133.849 263.874 134.048 263.664 134.304C263.453 134.554 263.348 134.878 263.348 135.276C263.348 135.844 263.556 136.273 263.971 136.562C264.385 136.852 264.914 136.997 265.556 136.997ZM265.3 124.188L267.209 120.293H270.226L267.61 124.188H265.3ZM277.854 121.545V139H274.769V121.545H277.854ZM281.027 139V125.909H284.112V139H281.027ZM282.578 124.051C282.089 124.051 281.669 123.889 281.316 123.565C280.964 123.236 280.788 122.841 280.788 122.381C280.788 121.915 280.964 121.52 281.316 121.196C281.669 120.866 282.089 120.702 282.578 120.702C283.072 120.702 283.493 120.866 283.839 121.196C284.191 121.52 284.368 121.915 284.368 122.381C284.368 122.841 284.191 123.236 283.839 123.565C283.493 123.889 283.072 124.051 282.578 124.051ZM297.631 129.369L294.819 129.676C294.739 129.392 294.6 129.125 294.401 128.875C294.208 128.625 293.946 128.423 293.617 128.27C293.287 128.116 292.884 128.04 292.407 128.04C291.765 128.04 291.225 128.179 290.787 128.457C290.355 128.736 290.142 129.097 290.148 129.54C290.142 129.92 290.282 130.23 290.566 130.469C290.855 130.707 291.333 130.903 291.998 131.057L294.23 131.534C295.469 131.801 296.39 132.224 296.992 132.804C297.6 133.384 297.907 134.142 297.912 135.08C297.907 135.903 297.665 136.631 297.188 137.261C296.716 137.886 296.06 138.375 295.219 138.727C294.378 139.08 293.412 139.256 292.321 139.256C290.719 139.256 289.429 138.92 288.452 138.25C287.475 137.574 286.892 136.634 286.705 135.429L289.713 135.139C289.85 135.73 290.14 136.176 290.583 136.477C291.026 136.778 291.603 136.929 292.313 136.929C293.046 136.929 293.634 136.778 294.077 136.477C294.526 136.176 294.75 135.804 294.75 135.361C294.75 134.986 294.605 134.676 294.316 134.432C294.032 134.187 293.588 134 292.986 133.869L290.753 133.401C289.498 133.139 288.569 132.699 287.966 132.08C287.364 131.455 287.066 130.665 287.071 129.71C287.066 128.903 287.284 128.205 287.728 127.614C288.176 127.017 288.799 126.557 289.594 126.233C290.395 125.903 291.319 125.739 292.364 125.739C293.898 125.739 295.105 126.065 295.986 126.719C296.873 127.372 297.421 128.256 297.631 129.369ZM306.252 139.256C304.939 139.256 303.806 138.983 302.851 138.438C301.902 137.886 301.172 137.108 300.661 136.102C300.15 135.091 299.894 133.901 299.894 132.531C299.894 131.185 300.15 130.003 300.661 128.986C301.178 127.963 301.9 127.168 302.826 126.599C303.752 126.026 304.84 125.739 306.09 125.739C306.897 125.739 307.658 125.869 308.374 126.131C309.096 126.386 309.732 126.784 310.283 127.324C310.84 127.864 311.277 128.551 311.596 129.386C311.914 130.216 312.073 131.205 312.073 132.352V133.298H301.343V131.219H309.115C309.11 130.628 308.982 130.102 308.732 129.642C308.482 129.176 308.132 128.81 307.684 128.543C307.24 128.276 306.723 128.142 306.132 128.142C305.502 128.142 304.948 128.295 304.471 128.602C303.993 128.903 303.621 129.301 303.354 129.795C303.093 130.284 302.959 130.821 302.953 131.406V133.222C302.953 133.983 303.093 134.636 303.371 135.182C303.65 135.722 304.039 136.136 304.539 136.426C305.039 136.71 305.624 136.852 306.294 136.852C306.743 136.852 307.15 136.79 307.513 136.665C307.877 136.534 308.192 136.344 308.459 136.094C308.726 135.844 308.928 135.534 309.064 135.165L311.945 135.489C311.763 136.25 311.417 136.915 310.905 137.483C310.4 138.045 309.752 138.483 308.962 138.795C308.172 139.102 307.269 139.256 306.252 139.256ZM325.494 139.23C324.466 139.23 323.545 138.966 322.733 138.438C321.92 137.909 321.278 137.142 320.806 136.136C320.335 135.131 320.099 133.909 320.099 132.472C320.099 131.017 320.338 129.79 320.815 128.79C321.298 127.784 321.949 127.026 322.767 126.514C323.585 125.997 324.497 125.739 325.502 125.739C326.27 125.739 326.9 125.869 327.395 126.131C327.889 126.386 328.281 126.696 328.571 127.06C328.86 127.418 329.085 127.756 329.244 128.074H329.372V121.545H332.466V139H329.431V136.938H329.244C329.085 137.256 328.855 137.594 328.554 137.952C328.252 138.304 327.855 138.605 327.36 138.855C326.866 139.105 326.244 139.23 325.494 139.23ZM326.355 136.699C327.008 136.699 327.565 136.523 328.025 136.17C328.485 135.812 328.835 135.315 329.074 134.679C329.312 134.043 329.431 133.301 329.431 132.455C329.431 131.608 329.312 130.872 329.074 130.247C328.841 129.622 328.494 129.136 328.034 128.79C327.579 128.443 327.02 128.27 326.355 128.27C325.667 128.27 325.093 128.449 324.633 128.807C324.173 129.165 323.826 129.659 323.593 130.29C323.36 130.92 323.244 131.642 323.244 132.455C323.244 133.273 323.36 134.003 323.593 134.645C323.832 135.281 324.181 135.784 324.642 136.153C325.108 136.517 325.679 136.699 326.355 136.699ZM341.549 139.256C340.236 139.256 339.103 138.983 338.148 138.438C337.199 137.886 336.469 137.108 335.958 136.102C335.446 135.091 335.191 133.901 335.191 132.531C335.191 131.185 335.446 130.003 335.958 128.986C336.475 127.963 337.196 127.168 338.123 126.599C339.049 126.026 340.137 125.739 341.387 125.739C342.194 125.739 342.955 125.869 343.671 126.131C344.392 126.386 345.029 126.784 345.58 127.324C346.137 127.864 346.574 128.551 346.892 129.386C347.211 130.216 347.37 131.205 347.37 132.352V133.298H336.64V131.219H344.412C344.407 130.628 344.279 130.102 344.029 129.642C343.779 129.176 343.429 128.81 342.98 128.543C342.537 128.276 342.02 128.142 341.429 128.142C340.799 128.142 340.245 128.295 339.767 128.602C339.29 128.903 338.918 129.301 338.651 129.795C338.39 130.284 338.256 130.821 338.25 131.406V133.222C338.25 133.983 338.39 134.636 338.668 135.182C338.946 135.722 339.336 136.136 339.836 136.426C340.336 136.71 340.921 136.852 341.591 136.852C342.04 136.852 342.446 136.79 342.81 136.665C343.174 136.534 343.489 136.344 343.756 136.094C344.023 135.844 344.225 135.534 344.361 135.165L347.242 135.489C347.06 136.25 346.713 136.915 346.202 137.483C345.696 138.045 345.049 138.483 344.259 138.795C343.469 139.102 342.566 139.256 341.549 139.256ZM361.728 139.256C360.416 139.256 359.282 138.983 358.328 138.438C357.379 137.886 356.649 137.108 356.137 136.102C355.626 135.091 355.37 133.901 355.37 132.531C355.37 131.185 355.626 130.003 356.137 128.986C356.654 127.963 357.376 127.168 358.302 126.599C359.228 126.026 360.316 125.739 361.566 125.739C362.373 125.739 363.135 125.869 363.85 126.131C364.572 126.386 365.208 126.784 365.76 127.324C366.316 127.864 366.754 128.551 367.072 129.386C367.39 130.216 367.549 131.205 367.549 132.352V133.298H356.819V131.219H364.592C364.586 130.628 364.458 130.102 364.208 129.642C363.958 129.176 363.609 128.81 363.16 128.543C362.717 128.276 362.2 128.142 361.609 128.142C360.978 128.142 360.424 128.295 359.947 128.602C359.47 128.903 359.098 129.301 358.831 129.795C358.569 130.284 358.436 130.821 358.43 131.406V133.222C358.43 133.983 358.569 134.636 358.848 135.182C359.126 135.722 359.515 136.136 360.015 136.426C360.515 136.71 361.1 136.852 361.771 136.852C362.22 136.852 362.626 136.79 362.99 136.665C363.353 136.534 363.669 136.344 363.936 136.094C364.203 135.844 364.404 135.534 364.541 135.165L367.422 135.489C367.24 136.25 366.893 136.915 366.382 137.483C365.876 138.045 365.228 138.483 364.439 138.795C363.649 139.102 362.745 139.256 361.728 139.256ZM378.094 130.46V133H370.236V130.46H378.094ZM381.339 139V125.909H384.288V128.134H384.441C384.714 127.384 385.166 126.798 385.797 126.378C386.427 125.952 387.18 125.739 388.055 125.739C388.941 125.739 389.689 125.955 390.297 126.386C390.91 126.812 391.342 127.395 391.592 128.134H391.728C392.018 127.406 392.507 126.827 393.194 126.395C393.887 125.957 394.708 125.739 395.657 125.739C396.862 125.739 397.845 126.119 398.606 126.881C399.368 127.642 399.748 128.753 399.748 130.213V139H396.654V130.69C396.654 129.878 396.439 129.284 396.007 128.909C395.575 128.528 395.047 128.338 394.422 128.338C393.677 128.338 393.095 128.571 392.674 129.037C392.26 129.497 392.052 130.097 392.052 130.835V139H389.027V130.562C389.027 129.886 388.822 129.347 388.413 128.943C388.01 128.54 387.481 128.338 386.828 128.338C386.385 128.338 385.981 128.452 385.618 128.679C385.254 128.901 384.964 129.216 384.748 129.625C384.532 130.028 384.424 130.5 384.424 131.04V139H381.339ZM406.645 139.264C405.816 139.264 405.069 139.116 404.404 138.821C403.745 138.52 403.222 138.077 402.836 137.491C402.455 136.906 402.265 136.185 402.265 135.327C402.265 134.588 402.401 133.977 402.674 133.494C402.946 133.011 403.319 132.625 403.79 132.335C404.262 132.045 404.793 131.827 405.384 131.679C405.98 131.526 406.597 131.415 407.233 131.347C408 131.267 408.623 131.196 409.1 131.134C409.577 131.065 409.924 130.963 410.14 130.827C410.361 130.685 410.472 130.466 410.472 130.17V130.119C410.472 129.477 410.282 128.98 409.901 128.628C409.52 128.276 408.972 128.099 408.256 128.099C407.5 128.099 406.901 128.264 406.458 128.594C406.02 128.923 405.725 129.312 405.571 129.761L402.691 129.352C402.918 128.557 403.293 127.892 403.816 127.358C404.338 126.818 404.978 126.415 405.733 126.148C406.489 125.875 407.324 125.739 408.239 125.739C408.87 125.739 409.498 125.812 410.123 125.96C410.748 126.108 411.319 126.352 411.836 126.693C412.353 127.028 412.767 127.486 413.08 128.065C413.398 128.645 413.557 129.369 413.557 130.239V139H410.591V137.202H410.489C410.301 137.565 410.037 137.906 409.696 138.224C409.361 138.537 408.938 138.79 408.426 138.983C407.921 139.17 407.327 139.264 406.645 139.264ZM407.446 136.997C408.066 136.997 408.603 136.875 409.057 136.631C409.512 136.381 409.861 136.051 410.105 135.642C410.355 135.233 410.48 134.787 410.48 134.304V132.761C410.384 132.841 410.219 132.915 409.986 132.983C409.759 133.051 409.503 133.111 409.219 133.162C408.935 133.213 408.654 133.259 408.375 133.298C408.097 133.338 407.855 133.372 407.651 133.401C407.191 133.463 406.779 133.565 406.415 133.707C406.051 133.849 405.765 134.048 405.554 134.304C405.344 134.554 405.239 134.878 405.239 135.276C405.239 135.844 405.446 136.273 405.861 136.562C406.276 136.852 406.804 136.997 407.446 136.997ZM416.659 139V125.909H419.745V139H416.659ZM418.211 124.051C417.722 124.051 417.301 123.889 416.949 123.565C416.597 123.236 416.421 122.841 416.421 122.381C416.421 121.915 416.597 121.52 416.949 121.196C417.301 120.866 417.722 120.702 418.211 120.702C418.705 120.702 419.125 120.866 419.472 121.196C419.824 121.52 420 121.915 420 122.381C420 122.841 419.824 123.236 419.472 123.565C419.125 123.889 418.705 124.051 418.211 124.051ZM426.002 121.545V139H422.917V121.545H426.002Z" fill="#3A74B5"/>
</svg>
