<svg width="600" height="450" viewBox="0 0 600 450" fill="none" xmlns="http://www.w3.org/2000/svg">
<rect x="40" y="86" width="172" height="89" rx="8" fill="#E2F0FF"/>
<path fill-rule="evenodd" clip-rule="evenodd" d="M61.3337 119.833C59.8609 119.833 58.667 121.027 58.667 122.5V134.5C58.667 135.973 59.8609 137.167 61.3337 137.167H62.667V138.5C62.667 139.967 63.867 141.167 65.3337 141.167H82.667C84.1337 141.167 85.3337 139.967 85.3337 138.5V126.5C85.3337 125.033 84.1337 123.833 82.667 123.833H81.3337V122.5C81.3337 121.027 80.1398 119.833 78.667 119.833H61.3337ZM78.667 123.833V122.5L61.3337 122.5V134.5H62.667V126.5C62.667 125.033 63.867 123.833 65.3337 123.833H78.667ZM74.0003 130.5L82.667 126.5H65.3337L74.0003 130.5ZM65.3337 129.167V138.5H82.667V129.167L74.0003 133.167L65.3337 129.167Z" fill="#1E75BA"/>
<path d="M96.6165 112.141V110.818H104.496V112.141H101.32V121H99.7884V112.141H96.6165ZM108.228 121.154C107.512 121.154 106.887 120.99 106.353 120.662C105.82 120.334 105.405 119.875 105.11 119.285C104.815 118.695 104.668 118.005 104.668 117.217C104.668 116.424 104.815 115.732 105.11 115.138C105.405 114.545 105.82 114.085 106.353 113.756C106.887 113.428 107.512 113.264 108.228 113.264C108.944 113.264 109.568 113.428 110.102 113.756C110.636 114.085 111.05 114.545 111.345 115.138C111.64 115.732 111.787 116.424 111.787 117.217C111.787 118.005 111.64 118.695 111.345 119.285C111.05 119.875 110.636 120.334 110.102 120.662C109.568 120.99 108.944 121.154 108.228 121.154ZM108.233 119.906C108.697 119.906 109.081 119.784 109.386 119.538C109.691 119.293 109.916 118.967 110.062 118.559C110.211 118.151 110.286 117.702 110.286 117.212C110.286 116.724 110.211 116.277 110.062 115.869C109.916 115.458 109.691 115.129 109.386 114.88C109.081 114.631 108.697 114.507 108.233 114.507C107.765 114.507 107.377 114.631 107.069 114.88C106.764 115.129 106.537 115.458 106.388 115.869C106.242 116.277 106.169 116.724 106.169 117.212C106.169 117.702 106.242 118.151 106.388 118.559C106.537 118.967 106.764 119.293 107.069 119.538C107.377 119.784 107.765 119.906 108.233 119.906ZM117.011 113.364V114.557H112.84V113.364H117.011ZM113.959 111.534H115.445V118.758C115.445 119.046 115.488 119.263 115.574 119.409C115.661 119.552 115.772 119.649 115.907 119.702C116.047 119.752 116.198 119.777 116.36 119.777C116.479 119.777 116.584 119.769 116.673 119.752C116.763 119.736 116.832 119.722 116.882 119.712L117.15 120.94C117.064 120.973 116.942 121.007 116.782 121.04C116.623 121.076 116.425 121.096 116.186 121.099C115.795 121.106 115.43 121.036 115.092 120.891C114.754 120.745 114.481 120.519 114.272 120.214C114.063 119.91 113.959 119.527 113.959 119.066V111.534ZM120.878 121.169C120.394 121.169 119.956 121.08 119.565 120.901C119.174 120.718 118.864 120.455 118.636 120.11C118.41 119.765 118.298 119.343 118.298 118.842C118.298 118.411 118.38 118.057 118.546 117.778C118.712 117.5 118.936 117.28 119.217 117.117C119.499 116.955 119.814 116.832 120.162 116.749C120.51 116.666 120.865 116.603 121.226 116.56C121.683 116.507 122.054 116.464 122.339 116.431C122.625 116.395 122.832 116.337 122.961 116.257C123.09 116.178 123.155 116.048 123.155 115.869V115.835C123.155 115.4 123.032 115.064 122.787 114.825C122.545 114.587 122.184 114.467 121.703 114.467C121.203 114.467 120.808 114.578 120.52 114.8C120.235 115.019 120.038 115.263 119.928 115.531L118.531 115.213C118.697 114.749 118.939 114.375 119.257 114.089C119.579 113.801 119.948 113.592 120.366 113.463C120.783 113.33 121.223 113.264 121.683 113.264C121.988 113.264 122.311 113.301 122.653 113.374C122.997 113.443 123.319 113.572 123.617 113.761C123.919 113.95 124.166 114.22 124.358 114.572C124.55 114.92 124.646 115.372 124.646 115.929V121H123.195V119.956H123.135C123.039 120.148 122.895 120.337 122.702 120.523C122.51 120.708 122.263 120.862 121.962 120.985C121.66 121.108 121.299 121.169 120.878 121.169ZM121.201 119.976C121.612 119.976 121.963 119.895 122.255 119.732C122.55 119.57 122.774 119.358 122.926 119.096C123.082 118.831 123.16 118.547 123.16 118.246V117.261C123.107 117.314 123.004 117.364 122.852 117.411C122.702 117.454 122.532 117.492 122.339 117.525C122.147 117.555 121.96 117.583 121.778 117.609C121.595 117.633 121.443 117.652 121.32 117.669C121.032 117.705 120.768 117.767 120.53 117.853C120.295 117.939 120.106 118.063 119.963 118.226C119.824 118.385 119.754 118.597 119.754 118.862C119.754 119.23 119.89 119.509 120.162 119.697C120.434 119.883 120.78 119.976 121.201 119.976ZM128.113 110.818V121H126.626V110.818H128.113ZM136.676 121.149C136.06 121.149 135.51 120.992 135.026 120.677C134.545 120.359 134.167 119.906 133.892 119.32C133.62 118.73 133.485 118.022 133.485 117.197C133.485 116.371 133.622 115.665 133.897 115.079C134.176 114.492 134.557 114.043 135.041 113.732C135.525 113.42 136.073 113.264 136.686 113.264C137.16 113.264 137.541 113.344 137.83 113.503C138.121 113.659 138.347 113.841 138.506 114.05C138.668 114.259 138.794 114.442 138.884 114.602H138.973V110.818H140.46V121H139.008V119.812H138.884C138.794 119.974 138.665 120.16 138.496 120.369C138.33 120.577 138.102 120.76 137.81 120.915C137.518 121.071 137.14 121.149 136.676 121.149ZM137.004 119.881C137.432 119.881 137.793 119.769 138.088 119.543C138.387 119.315 138.612 118.998 138.764 118.594C138.92 118.189 138.998 117.719 138.998 117.182C138.998 116.652 138.922 116.187 138.769 115.79C138.617 115.392 138.393 115.082 138.098 114.86C137.803 114.638 137.439 114.527 137.004 114.527C136.557 114.527 136.184 114.643 135.886 114.875C135.588 115.107 135.362 115.424 135.21 115.825C135.061 116.226 134.986 116.678 134.986 117.182C134.986 117.692 135.062 118.151 135.215 118.559C135.367 118.967 135.593 119.29 135.891 119.528C136.192 119.764 136.564 119.881 137.004 119.881ZM145.873 121.154C145.12 121.154 144.472 120.993 143.929 120.672C143.388 120.347 142.971 119.891 142.676 119.305C142.384 118.715 142.238 118.024 142.238 117.232C142.238 116.449 142.384 115.76 142.676 115.163C142.971 114.567 143.382 114.101 143.909 113.766C144.439 113.432 145.059 113.264 145.768 113.264C146.199 113.264 146.617 113.335 147.021 113.478C147.425 113.621 147.788 113.844 148.11 114.149C148.431 114.454 148.685 114.85 148.87 115.337C149.056 115.821 149.149 116.41 149.149 117.102V117.629H143.078V116.516H147.692C147.692 116.125 147.613 115.778 147.453 115.477C147.294 115.172 147.071 114.931 146.782 114.756C146.497 114.58 146.163 114.492 145.778 114.492C145.36 114.492 144.996 114.595 144.684 114.8C144.376 115.003 144.137 115.268 143.968 115.596C143.803 115.921 143.72 116.274 143.72 116.655V117.525C143.72 118.035 143.809 118.469 143.988 118.827C144.171 119.185 144.424 119.459 144.749 119.648C145.074 119.833 145.453 119.926 145.887 119.926C146.169 119.926 146.426 119.886 146.658 119.807C146.89 119.724 147.091 119.601 147.26 119.439C147.429 119.277 147.558 119.076 147.647 118.837L149.054 119.091C148.942 119.505 148.739 119.868 148.448 120.18C148.159 120.488 147.797 120.728 147.359 120.901C146.925 121.07 146.429 121.154 145.873 121.154ZM157.794 121.154C157.042 121.154 156.394 120.993 155.85 120.672C155.31 120.347 154.893 119.891 154.598 119.305C154.306 118.715 154.16 118.024 154.16 117.232C154.16 116.449 154.306 115.76 154.598 115.163C154.893 114.567 155.304 114.101 155.831 113.766C156.361 113.432 156.981 113.264 157.69 113.264C158.121 113.264 158.538 113.335 158.943 113.478C159.347 113.621 159.71 113.844 160.032 114.149C160.353 114.454 160.607 114.85 160.792 115.337C160.978 115.821 161.071 116.41 161.071 117.102V117.629H155V116.516H159.614C159.614 116.125 159.534 115.778 159.375 115.477C159.216 115.172 158.993 114.931 158.704 114.756C158.419 114.58 158.084 114.492 157.7 114.492C157.282 114.492 156.918 114.595 156.606 114.8C156.298 115.003 156.059 115.268 155.89 115.596C155.725 115.921 155.642 116.274 155.642 116.655V117.525C155.642 118.035 155.731 118.469 155.91 118.827C156.092 119.185 156.346 119.459 156.671 119.648C156.996 119.833 157.375 119.926 157.809 119.926C158.091 119.926 158.348 119.886 158.58 119.807C158.812 119.724 159.012 119.601 159.181 119.439C159.35 119.277 159.48 119.076 159.569 118.837L160.976 119.091C160.864 119.505 160.661 119.868 160.37 120.18C160.081 120.488 159.718 120.728 159.281 120.901C158.847 121.07 158.351 121.154 157.794 121.154ZM167.219 116.053V117.341H162.705V116.053H167.219ZM169.2 121V113.364H170.627V114.607H170.722C170.881 114.186 171.141 113.857 171.502 113.622C171.864 113.384 172.296 113.264 172.8 113.264C173.31 113.264 173.738 113.384 174.083 113.622C174.431 113.861 174.687 114.189 174.853 114.607H174.933C175.115 114.199 175.405 113.874 175.803 113.632C176.2 113.387 176.674 113.264 177.225 113.264C177.917 113.264 178.482 113.481 178.92 113.915C179.361 114.35 179.581 115.004 179.581 115.879V121H178.095V116.018C178.095 115.501 177.954 115.127 177.672 114.895C177.39 114.663 177.054 114.547 176.663 114.547C176.179 114.547 175.803 114.696 175.534 114.994C175.266 115.289 175.132 115.669 175.132 116.133V121H173.65V115.924C173.65 115.51 173.521 115.177 173.262 114.925C173.004 114.673 172.667 114.547 172.253 114.547C171.971 114.547 171.711 114.621 171.472 114.771C171.237 114.916 171.047 115.12 170.901 115.382C170.758 115.644 170.687 115.947 170.687 116.292V121H169.2ZM183.796 121.169C183.312 121.169 182.874 121.08 182.483 120.901C182.092 120.718 181.782 120.455 181.554 120.11C181.328 119.765 181.216 119.343 181.216 118.842C181.216 118.411 181.298 118.057 181.464 117.778C181.63 117.5 181.854 117.28 182.135 117.117C182.417 116.955 182.732 116.832 183.08 116.749C183.428 116.666 183.783 116.603 184.144 116.56C184.601 116.507 184.972 116.464 185.257 116.431C185.542 116.395 185.75 116.337 185.879 116.257C186.008 116.178 186.073 116.048 186.073 115.869V115.835C186.073 115.4 185.95 115.064 185.705 114.825C185.463 114.587 185.102 114.467 184.621 114.467C184.121 114.467 183.726 114.578 183.438 114.8C183.153 115.019 182.956 115.263 182.846 115.531L181.449 115.213C181.615 114.749 181.857 114.375 182.175 114.089C182.497 113.801 182.866 113.592 183.284 113.463C183.701 113.33 184.141 113.264 184.601 113.264C184.906 113.264 185.229 113.301 185.571 113.374C185.915 113.443 186.237 113.572 186.535 113.761C186.837 113.95 187.084 114.22 187.276 114.572C187.468 114.92 187.564 115.372 187.564 115.929V121H186.113V119.956H186.053C185.957 120.148 185.813 120.337 185.62 120.523C185.428 120.708 185.181 120.862 184.88 120.985C184.578 121.108 184.217 121.169 183.796 121.169ZM184.119 119.976C184.53 119.976 184.881 119.895 185.173 119.732C185.468 119.57 185.692 119.358 185.844 119.096C186 118.831 186.078 118.547 186.078 118.246V117.261C186.025 117.314 185.922 117.364 185.77 117.411C185.62 117.454 185.45 117.492 185.257 117.525C185.065 117.555 184.878 117.583 184.696 117.609C184.513 117.633 184.361 117.652 184.238 117.669C183.95 117.705 183.686 117.767 183.448 117.853C183.212 117.939 183.024 118.063 182.881 118.226C182.742 118.385 182.672 118.597 182.672 118.862C182.672 119.23 182.808 119.509 183.08 119.697C183.352 119.883 183.698 119.976 184.119 119.976ZM189.544 121V113.364H191.031V121H189.544ZM190.295 112.185C190.036 112.185 189.814 112.099 189.629 111.927C189.446 111.751 189.355 111.542 189.355 111.3C189.355 111.055 189.446 110.846 189.629 110.674C189.814 110.498 190.036 110.411 190.295 110.411C190.553 110.411 190.774 110.498 190.956 110.674C191.142 110.846 191.235 111.055 191.235 111.3C191.235 111.542 191.142 111.751 190.956 111.927C190.774 112.099 190.553 112.185 190.295 112.185ZM194.517 110.818V121H193.031V110.818H194.517ZM202.239 115.228L200.892 115.467C200.836 115.294 200.746 115.13 200.623 114.974C200.504 114.819 200.342 114.691 200.136 114.592C199.931 114.492 199.674 114.442 199.366 114.442C198.945 114.442 198.593 114.537 198.312 114.726C198.03 114.911 197.889 115.152 197.889 115.447C197.889 115.702 197.983 115.907 198.172 116.063C198.361 116.219 198.666 116.347 199.087 116.446L200.3 116.724C201.003 116.887 201.527 117.137 201.871 117.475C202.216 117.813 202.388 118.252 202.388 118.793C202.388 119.25 202.256 119.658 201.991 120.016C201.729 120.37 201.363 120.649 200.892 120.851C200.425 121.053 199.883 121.154 199.266 121.154C198.411 121.154 197.713 120.972 197.173 120.607C196.633 120.239 196.301 119.717 196.179 119.041L197.616 118.822C197.705 119.197 197.889 119.48 198.167 119.673C198.446 119.862 198.809 119.956 199.256 119.956C199.743 119.956 200.133 119.855 200.425 119.653C200.716 119.447 200.862 119.197 200.862 118.902C200.862 118.663 200.773 118.463 200.594 118.3C200.418 118.138 200.148 118.015 199.783 117.933L198.491 117.649C197.778 117.487 197.251 117.228 196.91 116.874C196.572 116.519 196.403 116.07 196.403 115.526C196.403 115.076 196.528 114.681 196.78 114.343C197.032 114.005 197.38 113.741 197.824 113.553C198.269 113.36 198.777 113.264 199.351 113.264C200.176 113.264 200.826 113.443 201.3 113.801C201.773 114.156 202.087 114.631 202.239 115.228Z" fill="#1E75BA"/>
<path d="M103.79 149.239C102.585 149.239 101.511 149.017 100.568 148.574C99.6307 148.131 98.8864 147.52 98.3352 146.741C97.7841 145.963 97.4972 145.071 97.4744 144.065H101.054C101.094 144.741 101.378 145.29 101.906 145.71C102.435 146.131 103.062 146.341 103.79 146.341C104.369 146.341 104.881 146.213 105.324 145.957C105.773 145.696 106.122 145.335 106.372 144.875C106.628 144.409 106.756 143.875 106.756 143.273C106.756 142.659 106.625 142.119 106.364 141.653C106.108 141.187 105.753 140.824 105.298 140.562C104.844 140.301 104.324 140.168 103.739 140.162C103.227 140.162 102.73 140.267 102.247 140.477C101.77 140.687 101.398 140.974 101.131 141.338L97.8494 140.75L98.6761 131.545H109.347V134.562H101.719L101.267 138.935H101.369C101.676 138.503 102.139 138.145 102.759 137.861C103.378 137.577 104.071 137.435 104.838 137.435C105.889 137.435 106.827 137.682 107.651 138.176C108.474 138.67 109.125 139.349 109.602 140.213C110.08 141.071 110.315 142.06 110.31 143.179C110.315 144.355 110.043 145.401 109.491 146.315C108.946 147.224 108.182 147.94 107.199 148.463C106.222 148.98 105.085 149.239 103.79 149.239ZM119.727 149.384C118.261 149.378 117 149.017 115.943 148.301C114.892 147.585 114.082 146.548 113.514 145.19C112.952 143.832 112.673 142.199 112.679 140.29C112.679 138.386 112.96 136.764 113.523 135.423C114.091 134.082 114.901 133.062 115.952 132.364C117.009 131.659 118.267 131.307 119.727 131.307C121.188 131.307 122.443 131.659 123.494 132.364C124.551 133.068 125.364 134.091 125.932 135.432C126.5 136.767 126.781 138.386 126.776 140.29C126.776 142.205 126.491 143.841 125.923 145.199C125.361 146.557 124.554 147.594 123.503 148.31C122.452 149.026 121.193 149.384 119.727 149.384ZM119.727 146.324C120.727 146.324 121.526 145.821 122.122 144.815C122.719 143.81 123.014 142.301 123.009 140.29C123.009 138.966 122.872 137.864 122.599 136.983C122.332 136.102 121.952 135.44 121.457 134.997C120.969 134.554 120.392 134.332 119.727 134.332C118.733 134.332 117.938 134.83 117.341 135.824C116.744 136.818 116.443 138.307 116.438 140.29C116.438 141.631 116.571 142.75 116.838 143.648C117.111 144.54 117.494 145.21 117.989 145.659C118.483 146.102 119.062 146.324 119.727 146.324ZM134.996 149V135.909H138.456V138.219H138.609C138.882 137.452 139.337 136.847 139.973 136.403C140.609 135.96 141.371 135.739 142.257 135.739C143.155 135.739 143.919 135.963 144.55 136.412C145.18 136.855 145.601 137.457 145.811 138.219H145.947C146.214 137.469 146.697 136.869 147.396 136.42C148.101 135.966 148.933 135.739 149.893 135.739C151.115 135.739 152.107 136.128 152.868 136.906C153.635 137.679 154.018 138.776 154.018 140.196V149H150.396V140.912C150.396 140.185 150.203 139.639 149.817 139.276C149.43 138.912 148.947 138.73 148.368 138.73C147.709 138.73 147.195 138.94 146.825 139.361C146.456 139.776 146.271 140.324 146.271 141.006V149H142.751V140.835C142.751 140.193 142.567 139.682 142.197 139.301C141.834 138.92 141.354 138.73 140.757 138.73C140.354 138.73 139.99 138.832 139.666 139.037C139.348 139.236 139.095 139.517 138.908 139.881C138.72 140.239 138.626 140.659 138.626 141.142V149H134.996ZM156.886 149V135.909H160.517V149H156.886ZM158.71 134.222C158.17 134.222 157.707 134.043 157.321 133.685C156.94 133.321 156.75 132.886 156.75 132.381C156.75 131.881 156.94 131.452 157.321 131.094C157.707 130.73 158.17 130.548 158.71 130.548C159.25 130.548 159.71 130.73 160.091 131.094C160.477 131.452 160.67 131.881 160.67 132.381C160.67 132.886 160.477 133.321 160.091 133.685C159.71 134.043 159.25 134.222 158.71 134.222ZM167.056 131.545V149H163.425V131.545H167.056Z" fill="#1E75BA"/>
<rect x="388" y="177" width="172" height="89" rx="8" fill="#F9EAE5"/>
<path d="M430.667 210.833H409.334C407.867 210.833 406.68 212.033 406.68 213.5L406.667 229.5C406.667 230.967 407.867 232.167 409.334 232.167H420V229.5H409.334V216.167L420 222.833L430.667 216.167V222.833H433.334V213.5C433.334 212.033 432.134 210.833 430.667 210.833ZM420 220.167L409.334 213.5H430.667L420 220.167Z" fill="#CC5229"/>
<path d="M428.148 227.76L424.848 224.46L422.963 226.346L426.263 229.645L422.963 232.945L424.848 234.831L428.148 231.531L431.448 234.831L433.334 232.945L430.034 229.645L433.334 226.346L431.448 224.46L428.148 227.76Z" fill="#CC5229"/>
<path d="M453.119 212V201.818H459.433V203.141H454.655V206.243H458.98V207.56H454.655V212H453.119ZM461.107 212V204.364H462.544V205.577H462.623C462.762 205.166 463.008 204.843 463.359 204.607C463.713 204.369 464.115 204.249 464.562 204.249C464.655 204.249 464.764 204.253 464.89 204.259C465.019 204.266 465.12 204.274 465.193 204.284V205.706C465.134 205.689 465.028 205.671 464.875 205.651C464.723 205.628 464.57 205.616 464.418 205.616C464.066 205.616 463.753 205.691 463.478 205.84C463.206 205.986 462.991 206.19 462.832 206.452C462.673 206.71 462.593 207.005 462.593 207.337V212H461.107ZM468.634 212.169C468.15 212.169 467.712 212.08 467.321 211.901C466.93 211.718 466.62 211.455 466.392 211.11C466.166 210.765 466.053 210.343 466.053 209.842C466.053 209.411 466.136 209.057 466.302 208.778C466.468 208.5 466.691 208.28 466.973 208.117C467.255 207.955 467.57 207.832 467.918 207.749C468.266 207.666 468.62 207.603 468.982 207.56C469.439 207.507 469.81 207.464 470.095 207.431C470.38 207.395 470.588 207.337 470.717 207.257C470.846 207.178 470.911 207.048 470.911 206.869V206.835C470.911 206.4 470.788 206.064 470.543 205.825C470.301 205.587 469.94 205.467 469.459 205.467C468.959 205.467 468.564 205.578 468.276 205.8C467.991 206.019 467.794 206.263 467.684 206.531L466.287 206.213C466.453 205.749 466.695 205.375 467.013 205.089C467.334 204.801 467.704 204.592 468.122 204.463C468.539 204.33 468.978 204.264 469.439 204.264C469.744 204.264 470.067 204.301 470.409 204.374C470.753 204.443 471.075 204.572 471.373 204.761C471.675 204.95 471.922 205.22 472.114 205.572C472.306 205.92 472.402 206.372 472.402 206.929V212H470.95V210.956H470.891C470.795 211.148 470.651 211.337 470.458 211.523C470.266 211.708 470.019 211.862 469.718 211.985C469.416 212.108 469.055 212.169 468.634 212.169ZM468.957 210.976C469.368 210.976 469.719 210.895 470.011 210.732C470.306 210.57 470.53 210.358 470.682 210.096C470.838 209.831 470.916 209.547 470.916 209.246V208.261C470.863 208.314 470.76 208.364 470.607 208.411C470.458 208.454 470.288 208.492 470.095 208.525C469.903 208.555 469.716 208.583 469.534 208.609C469.351 208.633 469.199 208.652 469.076 208.669C468.788 208.705 468.524 208.767 468.286 208.853C468.05 208.939 467.861 209.063 467.719 209.226C467.58 209.385 467.51 209.597 467.51 209.862C467.51 210.23 467.646 210.509 467.918 210.697C468.19 210.883 468.536 210.976 468.957 210.976ZM477.599 212.154C476.86 212.154 476.223 211.987 475.69 211.652C475.159 211.314 474.752 210.848 474.467 210.255C474.182 209.662 474.039 208.982 474.039 208.217C474.039 207.441 474.185 206.757 474.477 206.163C474.768 205.567 475.179 205.101 475.71 204.766C476.24 204.432 476.865 204.264 477.584 204.264C478.164 204.264 478.681 204.372 479.135 204.587C479.589 204.799 479.955 205.098 480.234 205.482C480.515 205.867 480.683 206.316 480.736 206.83H479.289C479.21 206.472 479.027 206.163 478.742 205.905C478.46 205.646 478.083 205.517 477.609 205.517C477.194 205.517 476.831 205.626 476.52 205.845C476.212 206.061 475.971 206.369 475.799 206.77C475.627 207.168 475.54 207.638 475.54 208.182C475.54 208.739 475.625 209.219 475.794 209.624C475.963 210.028 476.202 210.341 476.51 210.563C476.821 210.785 477.188 210.896 477.609 210.896C477.89 210.896 478.146 210.845 478.374 210.742C478.606 210.636 478.8 210.485 478.956 210.29C479.115 210.094 479.226 209.859 479.289 209.584H480.736C480.683 210.078 480.522 210.518 480.254 210.906C479.985 211.294 479.625 211.599 479.175 211.821C478.727 212.043 478.202 212.154 477.599 212.154ZM484.548 212.169C484.064 212.169 483.626 212.08 483.235 211.901C482.844 211.718 482.534 211.455 482.306 211.11C482.08 210.765 481.968 210.343 481.968 209.842C481.968 209.411 482.05 209.057 482.216 208.778C482.382 208.5 482.606 208.28 482.887 208.117C483.169 207.955 483.484 207.832 483.832 207.749C484.18 207.666 484.535 207.603 484.896 207.56C485.353 207.507 485.724 207.464 486.009 207.431C486.294 207.395 486.502 207.337 486.631 207.257C486.76 207.178 486.825 207.048 486.825 206.869V206.835C486.825 206.4 486.702 206.064 486.457 205.825C486.215 205.587 485.854 205.467 485.373 205.467C484.873 205.467 484.478 205.578 484.19 205.8C483.905 206.019 483.708 206.263 483.598 206.531L482.201 206.213C482.367 205.749 482.609 205.375 482.927 205.089C483.249 204.801 483.618 204.592 484.036 204.463C484.453 204.33 484.892 204.264 485.353 204.264C485.658 204.264 485.981 204.301 486.323 204.374C486.667 204.443 486.989 204.572 487.287 204.761C487.589 204.95 487.836 205.22 488.028 205.572C488.22 205.92 488.316 206.372 488.316 206.929V212H486.865V210.956H486.805C486.709 211.148 486.565 211.337 486.372 211.523C486.18 211.708 485.933 211.862 485.632 211.985C485.33 212.108 484.969 212.169 484.548 212.169ZM484.871 210.976C485.282 210.976 485.633 210.895 485.925 210.732C486.22 210.57 486.444 210.358 486.596 210.096C486.752 209.831 486.83 209.547 486.83 209.246V208.261C486.777 208.314 486.674 208.364 486.521 208.411C486.372 208.454 486.202 208.492 486.009 208.525C485.817 208.555 485.63 208.583 485.448 208.609C485.265 208.633 485.113 208.652 484.99 208.669C484.702 208.705 484.438 208.767 484.2 208.853C483.964 208.939 483.776 209.063 483.633 209.226C483.494 209.385 483.424 209.597 483.424 209.862C483.424 210.23 483.56 210.509 483.832 210.697C484.104 210.883 484.45 210.976 484.871 210.976ZM496.018 206.228L494.671 206.467C494.615 206.294 494.525 206.13 494.403 205.974C494.283 205.819 494.121 205.691 493.915 205.592C493.71 205.492 493.453 205.442 493.145 205.442C492.724 205.442 492.373 205.537 492.091 205.726C491.809 205.911 491.668 206.152 491.668 206.447C491.668 206.702 491.763 206.907 491.952 207.063C492.141 207.219 492.446 207.347 492.866 207.446L494.08 207.724C494.782 207.887 495.306 208.137 495.651 208.475C495.995 208.813 496.168 209.252 496.168 209.793C496.168 210.25 496.035 210.658 495.77 211.016C495.508 211.37 495.142 211.649 494.671 211.851C494.204 212.053 493.662 212.154 493.045 212.154C492.19 212.154 491.493 211.972 490.952 211.607C490.412 211.239 490.081 210.717 489.958 210.041L491.395 209.822C491.484 210.197 491.668 210.48 491.947 210.673C492.225 210.862 492.588 210.956 493.036 210.956C493.523 210.956 493.912 210.855 494.204 210.653C494.496 210.447 494.641 210.197 494.641 209.902C494.641 209.663 494.552 209.463 494.373 209.3C494.197 209.138 493.927 209.015 493.562 208.933L492.27 208.649C491.557 208.487 491.03 208.228 490.689 207.874C490.351 207.519 490.182 207.07 490.182 206.526C490.182 206.076 490.308 205.681 490.56 205.343C490.812 205.005 491.16 204.741 491.604 204.553C492.048 204.36 492.557 204.264 493.13 204.264C493.955 204.264 494.605 204.443 495.079 204.801C495.553 205.156 495.866 205.631 496.018 206.228ZM503.524 206.228L502.177 206.467C502.121 206.294 502.031 206.13 501.909 205.974C501.789 205.819 501.627 205.691 501.421 205.592C501.216 205.492 500.959 205.442 500.651 205.442C500.23 205.442 499.878 205.537 499.597 205.726C499.315 205.911 499.174 206.152 499.174 206.447C499.174 206.702 499.269 206.907 499.458 207.063C499.646 207.219 499.951 207.347 500.372 207.446L501.585 207.724C502.288 207.887 502.812 208.137 503.156 208.475C503.501 208.813 503.673 209.252 503.673 209.793C503.673 210.25 503.541 210.658 503.276 211.016C503.014 211.37 502.648 211.649 502.177 211.851C501.71 212.053 501.168 212.154 500.551 212.154C499.696 212.154 498.999 211.972 498.458 211.607C497.918 211.239 497.587 210.717 497.464 210.041L498.901 209.822C498.99 210.197 499.174 210.48 499.453 210.673C499.731 210.862 500.094 210.956 500.541 210.956C501.029 210.956 501.418 210.855 501.71 210.653C502.001 210.447 502.147 210.197 502.147 209.902C502.147 209.663 502.058 209.463 501.879 209.3C501.703 209.138 501.433 209.015 501.068 208.933L499.776 208.649C499.063 208.487 498.536 208.228 498.195 207.874C497.857 207.519 497.688 207.07 497.688 206.526C497.688 206.076 497.814 205.681 498.066 205.343C498.317 205.005 498.665 204.741 499.11 204.553C499.554 204.36 500.062 204.264 500.636 204.264C501.461 204.264 502.111 204.443 502.585 204.801C503.059 205.156 503.372 205.631 503.524 206.228ZM507.53 212.169C507.046 212.169 506.609 212.08 506.218 211.901C505.827 211.718 505.517 211.455 505.288 211.11C505.063 210.765 504.95 210.343 504.95 209.842C504.95 209.411 505.033 209.057 505.199 208.778C505.364 208.5 505.588 208.28 505.87 208.117C506.151 207.955 506.466 207.832 506.814 207.749C507.162 207.666 507.517 207.603 507.878 207.56C508.336 207.507 508.707 207.464 508.992 207.431C509.277 207.395 509.484 207.337 509.613 207.257C509.743 207.178 509.807 207.048 509.807 206.869V206.835C509.807 206.4 509.685 206.064 509.439 205.825C509.197 205.587 508.836 205.467 508.355 205.467C507.855 205.467 507.461 205.578 507.172 205.8C506.887 206.019 506.69 206.263 506.581 206.531L505.184 206.213C505.349 205.749 505.591 205.375 505.909 205.089C506.231 204.801 506.6 204.592 507.018 204.463C507.436 204.33 507.875 204.264 508.336 204.264C508.641 204.264 508.964 204.301 509.305 204.374C509.65 204.443 509.971 204.572 510.27 204.761C510.571 204.95 510.818 205.22 511.01 205.572C511.203 205.92 511.299 206.372 511.299 206.929V212H509.847V210.956H509.787C509.691 211.148 509.547 211.337 509.355 211.523C509.163 211.708 508.916 211.862 508.614 211.985C508.312 212.108 507.951 212.169 507.53 212.169ZM507.853 210.976C508.264 210.976 508.616 210.895 508.907 210.732C509.202 210.57 509.426 210.358 509.578 210.096C509.734 209.831 509.812 209.547 509.812 209.246V208.261C509.759 208.314 509.656 208.364 509.504 208.411C509.355 208.454 509.184 208.492 508.992 208.525C508.8 208.555 508.612 208.583 508.43 208.609C508.248 208.633 508.095 208.652 507.973 208.669C507.684 208.705 507.421 208.767 507.182 208.853C506.947 208.939 506.758 209.063 506.615 209.226C506.476 209.385 506.407 209.597 506.407 209.862C506.407 210.23 506.542 210.509 506.814 210.697C507.086 210.883 507.432 210.976 507.853 210.976ZM516.137 212.149C515.521 212.149 514.971 211.992 514.487 211.677C514.006 211.359 513.628 210.906 513.353 210.32C513.081 209.73 512.945 209.022 512.945 208.197C512.945 207.371 513.083 206.665 513.358 206.079C513.637 205.492 514.018 205.043 514.502 204.732C514.985 204.42 515.534 204.264 516.147 204.264C516.621 204.264 517.002 204.344 517.291 204.503C517.582 204.659 517.808 204.841 517.967 205.05C518.129 205.259 518.255 205.442 518.345 205.602H518.434V201.818H519.921V212H518.469V210.812H518.345C518.255 210.974 518.126 211.16 517.957 211.369C517.791 211.577 517.562 211.76 517.271 211.915C516.979 212.071 516.601 212.149 516.137 212.149ZM516.465 210.881C516.893 210.881 517.254 210.769 517.549 210.543C517.847 210.315 518.073 209.998 518.225 209.594C518.381 209.189 518.459 208.719 518.459 208.182C518.459 207.652 518.383 207.187 518.23 206.79C518.078 206.392 517.854 206.082 517.559 205.86C517.264 205.638 516.9 205.527 516.465 205.527C516.018 205.527 515.645 205.643 515.347 205.875C515.048 206.107 514.823 206.424 514.671 206.825C514.521 207.226 514.447 207.678 514.447 208.182C514.447 208.692 514.523 209.151 514.676 209.559C514.828 209.967 515.053 210.29 515.352 210.528C515.653 210.764 516.025 210.881 516.465 210.881ZM525.259 212.154C524.543 212.154 523.918 211.99 523.385 211.662C522.851 211.334 522.437 210.875 522.142 210.285C521.847 209.695 521.699 209.005 521.699 208.217C521.699 207.424 521.847 206.732 522.142 206.138C522.437 205.545 522.851 205.085 523.385 204.756C523.918 204.428 524.543 204.264 525.259 204.264C525.975 204.264 526.6 204.428 527.133 204.756C527.667 205.085 528.081 205.545 528.376 206.138C528.671 206.732 528.819 207.424 528.819 208.217C528.819 209.005 528.671 209.695 528.376 210.285C528.081 210.875 527.667 211.334 527.133 211.662C526.6 211.99 525.975 212.154 525.259 212.154ZM525.264 210.906C525.728 210.906 526.112 210.784 526.417 210.538C526.722 210.293 526.948 209.967 527.093 209.559C527.243 209.151 527.317 208.702 527.317 208.212C527.317 207.724 527.243 207.277 527.093 206.869C526.948 206.458 526.722 206.129 526.417 205.88C526.112 205.631 525.728 205.507 525.264 205.507C524.797 205.507 524.409 205.631 524.1 205.88C523.796 206.129 523.569 206.458 523.419 206.869C523.274 207.277 523.201 207.724 523.201 208.212C523.201 208.702 523.274 209.151 523.419 209.559C523.569 209.967 523.796 210.293 524.1 210.538C524.409 210.784 524.797 210.906 525.264 210.906Z" fill="#CC5229"/>
<path d="M453.415 240V237.341L459.628 231.588C460.156 231.077 460.599 230.616 460.957 230.207C461.321 229.798 461.597 229.398 461.784 229.006C461.972 228.608 462.065 228.179 462.065 227.719C462.065 227.207 461.949 226.767 461.716 226.398C461.483 226.023 461.165 225.736 460.761 225.537C460.358 225.332 459.901 225.23 459.389 225.23C458.855 225.23 458.389 225.338 457.991 225.554C457.594 225.77 457.287 226.08 457.071 226.483C456.855 226.886 456.747 227.366 456.747 227.923H453.244C453.244 226.781 453.503 225.79 454.02 224.949C454.537 224.108 455.261 223.457 456.193 222.997C457.125 222.537 458.199 222.307 459.415 222.307C460.665 222.307 461.753 222.528 462.679 222.972C463.611 223.409 464.335 224.017 464.852 224.795C465.369 225.574 465.628 226.466 465.628 227.472C465.628 228.131 465.497 228.781 465.236 229.423C464.98 230.065 464.523 230.778 463.864 231.562C463.205 232.341 462.276 233.276 461.077 234.366L458.528 236.864V236.983H465.858V240H453.415ZM474.121 240V226.909H477.581V229.219H477.734C478.007 228.452 478.462 227.847 479.098 227.403C479.734 226.96 480.496 226.739 481.382 226.739C482.28 226.739 483.044 226.963 483.675 227.412C484.305 227.855 484.726 228.457 484.936 229.219H485.072C485.339 228.469 485.822 227.869 486.521 227.42C487.226 226.966 488.058 226.739 489.018 226.739C490.24 226.739 491.232 227.128 491.993 227.906C492.76 228.679 493.143 229.776 493.143 231.196V240H489.521V231.912C489.521 231.185 489.328 230.639 488.942 230.276C488.555 229.912 488.072 229.73 487.493 229.73C486.834 229.73 486.32 229.94 485.95 230.361C485.581 230.776 485.396 231.324 485.396 232.006V240H481.876V231.835C481.876 231.193 481.692 230.682 481.322 230.301C480.959 229.92 480.479 229.73 479.882 229.73C479.479 229.73 479.115 229.832 478.791 230.037C478.473 230.236 478.22 230.517 478.033 230.881C477.845 231.239 477.751 231.659 477.751 232.142V240H474.121ZM496.011 240V226.909H499.642V240H496.011ZM497.835 225.222C497.295 225.222 496.832 225.043 496.446 224.685C496.065 224.321 495.875 223.886 495.875 223.381C495.875 222.881 496.065 222.452 496.446 222.094C496.832 221.73 497.295 221.548 497.835 221.548C498.375 221.548 498.835 221.73 499.216 222.094C499.602 222.452 499.795 222.881 499.795 223.381C499.795 223.886 499.602 224.321 499.216 224.685C498.835 225.043 498.375 225.222 497.835 225.222ZM506.181 222.545V240H502.55V222.545H506.181Z" fill="#CC5229"/>
<rect x="214" y="177" width="172" height="89" rx="8" fill="#EFEAE3"/>
<path d="M256.667 210.833H235.334C233.867 210.833 232.68 212.033 232.68 213.5L232.667 229.5C232.667 230.967 233.867 232.167 235.334 232.167H246V229.5H235.334V216.167L246 222.833L256.667 216.167V222.833H259.334V213.5C259.334 212.033 258.134 210.833 256.667 210.833ZM246 220.167L235.334 213.5H256.667L246 220.167Z" fill="#DE8644"/>
<path d="M260.667 229.5L255.334 224.167V228.167H248.667V230.833H255.334V234.833L260.667 229.5Z" fill="#DE8644"/>
<path d="M284.672 204.493C284.619 204.022 284.4 203.658 284.016 203.399C283.631 203.137 283.147 203.006 282.564 203.006C282.146 203.006 281.785 203.073 281.48 203.205C281.175 203.335 280.938 203.513 280.769 203.742C280.603 203.968 280.521 204.224 280.521 204.513C280.521 204.755 280.577 204.964 280.69 205.139C280.806 205.315 280.956 205.462 281.142 205.582C281.331 205.698 281.533 205.795 281.749 205.875C281.964 205.951 282.171 206.014 282.37 206.064L283.364 206.322C283.689 206.402 284.022 206.51 284.364 206.646C284.705 206.781 285.022 206.96 285.313 207.183C285.605 207.405 285.84 207.68 286.019 208.008C286.201 208.336 286.293 208.729 286.293 209.186C286.293 209.763 286.143 210.275 285.845 210.722C285.55 211.17 285.121 211.523 284.558 211.781C283.997 212.04 283.32 212.169 282.524 212.169C281.762 212.169 281.102 212.048 280.545 211.806C279.989 211.564 279.553 211.221 279.238 210.777C278.923 210.33 278.749 209.799 278.716 209.186H280.257C280.287 209.554 280.406 209.861 280.615 210.106C280.827 210.348 281.097 210.528 281.425 210.648C281.757 210.764 282.12 210.822 282.514 210.822C282.948 210.822 283.335 210.754 283.673 210.618C284.014 210.479 284.282 210.286 284.478 210.041C284.674 209.793 284.771 209.503 284.771 209.171C284.771 208.87 284.685 208.623 284.513 208.43C284.344 208.238 284.113 208.079 283.822 207.953C283.533 207.827 283.207 207.716 282.842 207.62L281.639 207.292C280.824 207.07 280.178 206.743 279.7 206.312C279.226 205.882 278.989 205.312 278.989 204.602C278.989 204.016 279.148 203.504 279.467 203.066C279.785 202.629 280.216 202.289 280.759 202.047C281.303 201.802 281.916 201.679 282.599 201.679C283.288 201.679 283.896 201.8 284.423 202.042C284.954 202.284 285.371 202.617 285.676 203.041C285.981 203.462 286.14 203.946 286.153 204.493H284.672ZM292.846 208.833V204.364H294.338V212H292.876V210.678H292.797C292.621 211.085 292.339 211.425 291.952 211.697C291.567 211.965 291.088 212.099 290.515 212.099C290.024 212.099 289.59 211.992 289.212 211.776C288.838 211.558 288.543 211.234 288.327 210.807C288.115 210.379 288.009 209.851 288.009 209.221V204.364H289.496V209.042C289.496 209.562 289.64 209.977 289.928 210.285C290.216 210.593 290.591 210.747 291.052 210.747C291.33 210.747 291.607 210.678 291.882 210.538C292.16 210.399 292.391 210.189 292.573 209.907C292.759 209.625 292.85 209.267 292.846 208.833ZM296.335 214.864V204.364H297.787V205.602H297.911C297.997 205.442 298.122 205.259 298.284 205.05C298.446 204.841 298.672 204.659 298.96 204.503C299.249 204.344 299.63 204.264 300.104 204.264C300.72 204.264 301.27 204.42 301.754 204.732C302.238 205.043 302.618 205.492 302.893 206.079C303.171 206.665 303.31 207.371 303.31 208.197C303.31 209.022 303.173 209.73 302.898 210.32C302.623 210.906 302.245 211.359 301.764 211.677C301.284 211.992 300.735 212.149 300.119 212.149C299.655 212.149 299.275 212.071 298.98 211.915C298.688 211.76 298.46 211.577 298.294 211.369C298.128 211.16 298.001 210.974 297.911 210.812H297.822V214.864H296.335ZM297.792 208.182C297.792 208.719 297.87 209.189 298.026 209.594C298.181 209.998 298.407 210.315 298.702 210.543C298.997 210.769 299.358 210.881 299.786 210.881C300.23 210.881 300.601 210.764 300.899 210.528C301.197 210.29 301.423 209.967 301.575 209.559C301.731 209.151 301.809 208.692 301.809 208.182C301.809 207.678 301.733 207.226 301.58 206.825C301.431 206.424 301.206 206.107 300.904 205.875C300.606 205.643 300.233 205.527 299.786 205.527C299.355 205.527 298.99 205.638 298.692 205.86C298.397 206.082 298.173 206.392 298.021 206.79C297.868 207.187 297.792 207.652 297.792 208.182ZM304.976 212V204.364H306.413V205.577H306.492C306.631 205.166 306.877 204.843 307.228 204.607C307.583 204.369 307.984 204.249 308.431 204.249C308.524 204.249 308.633 204.253 308.759 204.259C308.888 204.266 308.99 204.274 309.062 204.284V205.706C309.003 205.689 308.897 205.671 308.744 205.651C308.592 205.628 308.439 205.616 308.287 205.616C307.936 205.616 307.622 205.691 307.347 205.84C307.076 205.986 306.86 206.19 306.701 206.452C306.542 206.71 306.462 207.005 306.462 207.337V212H304.976ZM310.349 212V204.364H311.835V212H310.349ZM311.1 203.185C310.841 203.185 310.619 203.099 310.433 202.927C310.251 202.751 310.16 202.542 310.16 202.3C310.16 202.055 310.251 201.846 310.433 201.674C310.619 201.498 310.841 201.411 311.1 201.411C311.358 201.411 311.579 201.498 311.761 201.674C311.946 201.846 312.039 202.055 312.039 202.3C312.039 202.542 311.946 202.751 311.761 202.927C311.579 203.099 311.358 203.185 311.1 203.185ZM313.835 212V204.364H315.262V205.607H315.357C315.516 205.186 315.776 204.857 316.137 204.622C316.498 204.384 316.931 204.264 317.435 204.264C317.945 204.264 318.373 204.384 318.717 204.622C319.065 204.861 319.322 205.189 319.488 205.607H319.567C319.75 205.199 320.04 204.874 320.438 204.632C320.835 204.387 321.309 204.264 321.859 204.264C322.552 204.264 323.117 204.481 323.555 204.915C323.996 205.35 324.216 206.004 324.216 206.879V212H322.729V207.018C322.729 206.501 322.589 206.127 322.307 205.895C322.025 205.663 321.689 205.547 321.298 205.547C320.814 205.547 320.438 205.696 320.169 205.994C319.901 206.289 319.766 206.669 319.766 207.133V212H318.285V206.924C318.285 206.51 318.156 206.177 317.897 205.925C317.638 205.673 317.302 205.547 316.888 205.547C316.606 205.547 316.346 205.621 316.107 205.771C315.872 205.916 315.681 206.12 315.536 206.382C315.393 206.644 315.322 206.947 315.322 207.292V212H313.835ZM326.208 212V204.364H327.695V212H326.208ZM326.959 203.185C326.7 203.185 326.478 203.099 326.293 202.927C326.11 202.751 326.019 202.542 326.019 202.3C326.019 202.055 326.11 201.846 326.293 201.674C326.478 201.498 326.7 201.411 326.959 201.411C327.218 201.411 327.438 201.498 327.62 201.674C327.806 201.846 327.899 202.055 327.899 202.3C327.899 202.542 327.806 202.751 327.62 202.927C327.438 203.099 327.218 203.185 326.959 203.185ZM332.553 212.149C331.937 212.149 331.387 211.992 330.903 211.677C330.422 211.359 330.044 210.906 329.769 210.32C329.497 209.73 329.362 209.022 329.362 208.197C329.362 207.371 329.499 206.665 329.774 206.079C330.053 205.492 330.434 205.043 330.918 204.732C331.402 204.42 331.95 204.264 332.563 204.264C333.037 204.264 333.418 204.344 333.707 204.503C333.998 204.659 334.224 204.841 334.383 205.05C334.545 205.259 334.671 205.442 334.761 205.602H334.85V201.818H336.337V212H334.885V210.812H334.761C334.671 210.974 334.542 211.16 334.373 211.369C334.207 211.577 333.978 211.76 333.687 211.915C333.395 212.071 333.017 212.149 332.553 212.149ZM332.881 210.881C333.309 210.881 333.67 210.769 333.965 210.543C334.263 210.315 334.489 209.998 334.641 209.594C334.797 209.189 334.875 208.719 334.875 208.182C334.875 207.652 334.799 207.187 334.646 206.79C334.494 206.392 334.27 206.082 333.975 205.86C333.68 205.638 333.316 205.527 332.881 205.527C332.434 205.527 332.061 205.643 331.763 205.875C331.464 206.107 331.239 206.424 331.087 206.825C330.938 207.226 330.863 207.678 330.863 208.182C330.863 208.692 330.939 209.151 331.092 209.559C331.244 209.967 331.469 210.29 331.768 210.528C332.069 210.764 332.441 210.881 332.881 210.881ZM341.675 212.154C340.959 212.154 340.334 211.99 339.801 211.662C339.267 211.334 338.853 210.875 338.558 210.285C338.263 209.695 338.115 209.005 338.115 208.217C338.115 207.424 338.263 206.732 338.558 206.138C338.853 205.545 339.267 205.085 339.801 204.756C340.334 204.428 340.959 204.264 341.675 204.264C342.391 204.264 343.016 204.428 343.549 204.756C344.083 205.085 344.497 205.545 344.792 206.138C345.087 206.732 345.235 207.424 345.235 208.217C345.235 209.005 345.087 209.695 344.792 210.285C344.497 210.875 344.083 211.334 343.549 211.662C343.016 211.99 342.391 212.154 341.675 212.154ZM341.68 210.906C342.144 210.906 342.528 210.784 342.833 210.538C343.138 210.293 343.364 209.967 343.509 209.559C343.659 209.151 343.733 208.702 343.733 208.212C343.733 207.724 343.659 207.277 343.509 206.869C343.364 206.458 343.138 206.129 342.833 205.88C342.528 205.631 342.144 205.507 341.68 205.507C341.213 205.507 340.825 205.631 340.517 205.88C340.212 206.129 339.985 206.458 339.835 206.869C339.69 207.277 339.617 207.724 339.617 208.212C339.617 208.702 339.69 209.151 339.835 209.559C339.985 209.967 340.212 210.293 340.517 210.538C340.825 210.784 341.213 210.906 341.68 210.906Z" fill="#DE8644"/>
<path d="M280.105 240L287.341 225.682V225.562H278.912V222.545H291.159V225.605L283.915 240H280.105ZM294.668 237.614L294.575 238.551C294.501 239.301 294.359 240.048 294.148 240.793C293.944 241.543 293.728 242.222 293.501 242.83C293.279 243.438 293.1 243.915 292.964 244.261H290.612C290.697 243.926 290.813 243.457 290.961 242.855C291.109 242.259 291.248 241.588 291.379 240.844C291.509 240.099 291.592 239.341 291.626 238.568L291.668 237.614H294.668ZM304.188 240.239C302.984 240.239 301.91 240.017 300.967 239.574C300.029 239.131 299.285 238.52 298.734 237.741C298.183 236.963 297.896 236.071 297.873 235.065H301.452C301.492 235.741 301.776 236.29 302.305 236.71C302.833 237.131 303.461 237.341 304.188 237.341C304.768 237.341 305.279 237.213 305.722 236.957C306.171 236.696 306.521 236.335 306.771 235.875C307.026 235.409 307.154 234.875 307.154 234.273C307.154 233.659 307.023 233.119 306.762 232.653C306.506 232.187 306.151 231.824 305.697 231.562C305.242 231.301 304.722 231.168 304.137 231.162C303.626 231.162 303.129 231.267 302.646 231.477C302.168 231.687 301.796 231.974 301.529 232.338L298.248 231.75L299.075 222.545H309.745V225.562H302.117L301.665 229.935H301.768C302.075 229.503 302.538 229.145 303.157 228.861C303.776 228.577 304.469 228.435 305.237 228.435C306.288 228.435 307.225 228.682 308.049 229.176C308.873 229.67 309.523 230.349 310.001 231.213C310.478 232.071 310.714 233.06 310.708 234.179C310.714 235.355 310.441 236.401 309.89 237.315C309.344 238.224 308.58 238.94 307.597 239.463C306.62 239.98 305.484 240.239 304.188 240.239ZM318.871 240V226.909H322.331V229.219H322.484C322.757 228.452 323.212 227.847 323.848 227.403C324.484 226.96 325.246 226.739 326.132 226.739C327.03 226.739 327.794 226.963 328.425 227.412C329.055 227.855 329.476 228.457 329.686 229.219H329.822C330.089 228.469 330.572 227.869 331.271 227.42C331.976 226.966 332.808 226.739 333.768 226.739C334.99 226.739 335.982 227.128 336.743 227.906C337.51 228.679 337.893 229.776 337.893 231.196V240H334.271V231.912C334.271 231.185 334.078 230.639 333.692 230.276C333.305 229.912 332.822 229.73 332.243 229.73C331.584 229.73 331.07 229.94 330.7 230.361C330.331 230.776 330.146 231.324 330.146 232.006V240H326.626V231.835C326.626 231.193 326.442 230.682 326.072 230.301C325.709 229.92 325.229 229.73 324.632 229.73C324.229 229.73 323.865 229.832 323.541 230.037C323.223 230.236 322.97 230.517 322.783 230.881C322.595 231.239 322.501 231.659 322.501 232.142V240H318.871ZM340.761 240V226.909H344.392V240H340.761ZM342.585 225.222C342.045 225.222 341.582 225.043 341.196 224.685C340.815 224.321 340.625 223.886 340.625 223.381C340.625 222.881 340.815 222.452 341.196 222.094C341.582 221.73 342.045 221.548 342.585 221.548C343.125 221.548 343.585 221.73 343.966 222.094C344.352 222.452 344.545 222.881 344.545 223.381C344.545 223.886 344.352 224.321 343.966 224.685C343.585 225.043 343.125 225.222 342.585 225.222ZM350.931 222.545V240H347.3V222.545H350.931Z" fill="#DE8644"/>
<rect x="40" y="268" width="172" height="89" rx="8" fill="#E8F7E8"/>
<path d="M82.667 301.833H61.3337C59.867 301.833 58.6803 303.033 58.6803 304.5L58.667 320.5C58.667 321.967 59.867 323.167 61.3337 323.167H72.0003V320.5H61.3337V307.167L72.0003 313.833L82.667 307.167V313.833H85.3337V304.5C85.3337 303.033 84.1337 301.833 82.667 301.833ZM72.0003 311.167L61.3337 304.5H82.667L72.0003 311.167ZM79.1203 325.833L74.4003 321.113L76.2803 319.233L79.107 322.06L84.7603 316.407L86.667 318.287L79.1203 325.833Z" fill="#29A653"/>
<path d="M105.119 303V292.818H111.502V294.141H106.655V297.243H111.169V298.56H106.655V301.678H111.562V303H105.119ZM114.921 298.466V303H113.435V295.364H114.862V296.607H114.956C115.132 296.202 115.407 295.877 115.781 295.632C116.159 295.387 116.635 295.264 117.208 295.264C117.729 295.264 118.184 295.374 118.575 295.592C118.967 295.808 119.27 296.129 119.485 296.557C119.701 296.984 119.808 297.513 119.808 298.143V303H118.322V298.322C118.322 297.768 118.178 297.336 117.889 297.024C117.601 296.709 117.205 296.552 116.701 296.552C116.356 296.552 116.05 296.626 115.781 296.776C115.516 296.925 115.306 297.143 115.15 297.432C114.998 297.717 114.921 298.062 114.921 298.466ZM125.367 295.364V296.557H121.195V295.364H125.367ZM122.314 293.534H123.801V300.758C123.801 301.046 123.844 301.263 123.93 301.409C124.016 301.552 124.127 301.649 124.263 301.702C124.402 301.752 124.553 301.777 124.715 301.777C124.835 301.777 124.939 301.769 125.029 301.752C125.118 301.736 125.188 301.722 125.237 301.712L125.506 302.94C125.42 302.973 125.297 303.007 125.138 303.04C124.979 303.076 124.78 303.096 124.541 303.099C124.15 303.106 123.786 303.036 123.448 302.891C123.11 302.745 122.836 302.519 122.627 302.214C122.419 301.91 122.314 301.527 122.314 301.066V293.534ZM127.011 303V295.364H128.448V296.577H128.527C128.667 296.166 128.912 295.843 129.263 295.607C129.618 295.369 130.019 295.249 130.466 295.249C130.559 295.249 130.668 295.253 130.794 295.259C130.924 295.266 131.025 295.274 131.098 295.284V296.706C131.038 296.689 130.932 296.671 130.779 296.651C130.627 296.628 130.475 296.616 130.322 296.616C129.971 296.616 129.658 296.691 129.382 296.84C129.111 296.986 128.895 297.19 128.736 297.452C128.577 297.71 128.498 298.005 128.498 298.337V303H127.011ZM135.402 303.154C134.649 303.154 134.001 302.993 133.458 302.672C132.918 302.347 132.5 301.891 132.205 301.305C131.913 300.715 131.768 300.024 131.768 299.232C131.768 298.449 131.913 297.76 132.205 297.163C132.5 296.567 132.911 296.101 133.438 295.766C133.968 295.432 134.588 295.264 135.297 295.264C135.728 295.264 136.146 295.335 136.55 295.478C136.955 295.621 137.318 295.844 137.639 296.149C137.961 296.454 138.214 296.85 138.4 297.337C138.585 297.821 138.678 298.41 138.678 299.102V299.629H132.608V298.516H137.221C137.221 298.125 137.142 297.778 136.983 297.477C136.824 297.172 136.6 296.931 136.312 296.756C136.027 296.58 135.692 296.492 135.307 296.492C134.89 296.492 134.525 296.595 134.214 296.8C133.905 297.003 133.667 297.268 133.498 297.596C133.332 297.921 133.249 298.274 133.249 298.655V299.525C133.249 300.035 133.339 300.469 133.518 300.827C133.7 301.185 133.953 301.459 134.278 301.648C134.603 301.833 134.983 301.926 135.417 301.926C135.698 301.926 135.955 301.886 136.187 301.807C136.419 301.724 136.62 301.601 136.789 301.439C136.958 301.277 137.087 301.076 137.177 300.837L138.584 301.091C138.471 301.505 138.269 301.868 137.977 302.18C137.689 302.488 137.326 302.728 136.888 302.901C136.454 303.07 135.959 303.154 135.402 303.154ZM143.529 306.023C142.923 306.023 142.401 305.943 141.963 305.784C141.529 305.625 141.174 305.415 140.899 305.153C140.624 304.891 140.419 304.604 140.283 304.293L141.56 303.766C141.65 303.911 141.769 304.066 141.918 304.228C142.071 304.394 142.276 304.535 142.535 304.651C142.797 304.767 143.133 304.825 143.544 304.825C144.107 304.825 144.573 304.687 144.941 304.412C145.309 304.14 145.493 303.706 145.493 303.109V301.608H145.398C145.309 301.77 145.18 301.951 145.011 302.15C144.845 302.349 144.616 302.521 144.325 302.667C144.033 302.813 143.653 302.886 143.186 302.886C142.583 302.886 142.039 302.745 141.555 302.463C141.075 302.178 140.694 301.759 140.412 301.205C140.134 300.648 139.994 299.964 139.994 299.152C139.994 298.34 140.132 297.644 140.407 297.064C140.685 296.484 141.067 296.04 141.55 295.732C142.034 295.42 142.583 295.264 143.196 295.264C143.67 295.264 144.053 295.344 144.344 295.503C144.636 295.659 144.863 295.841 145.026 296.05C145.191 296.259 145.319 296.442 145.408 296.602H145.518V295.364H146.974V303.169C146.974 303.825 146.822 304.364 146.517 304.785C146.212 305.206 145.799 305.517 145.279 305.719C144.762 305.922 144.179 306.023 143.529 306.023ZM143.514 301.653C143.942 301.653 144.303 301.553 144.598 301.354C144.896 301.152 145.122 300.864 145.274 300.489C145.43 300.112 145.508 299.659 145.508 299.132C145.508 298.618 145.432 298.166 145.279 297.775C145.127 297.384 144.903 297.079 144.608 296.86C144.313 296.638 143.948 296.527 143.514 296.527C143.067 296.527 142.694 296.643 142.396 296.875C142.097 297.104 141.872 297.415 141.719 297.81C141.57 298.204 141.496 298.645 141.496 299.132C141.496 299.633 141.572 300.072 141.724 300.45C141.877 300.827 142.102 301.122 142.401 301.335C142.702 301.547 143.073 301.653 143.514 301.653ZM153.805 299.833V295.364H155.297V303H153.835V301.678H153.756C153.58 302.085 153.298 302.425 152.911 302.697C152.526 302.965 152.047 303.099 151.474 303.099C150.983 303.099 150.549 302.992 150.171 302.776C149.797 302.558 149.502 302.234 149.286 301.807C149.074 301.379 148.968 300.851 148.968 300.221V295.364H150.455V300.042C150.455 300.562 150.599 300.977 150.887 301.285C151.175 301.593 151.55 301.747 152.011 301.747C152.289 301.747 152.566 301.678 152.841 301.538C153.119 301.399 153.35 301.189 153.532 300.907C153.718 300.625 153.809 300.267 153.805 299.833ZM160.585 303.154C159.833 303.154 159.185 302.993 158.642 302.672C158.101 302.347 157.684 301.891 157.389 301.305C157.097 300.715 156.951 300.024 156.951 299.232C156.951 298.449 157.097 297.76 157.389 297.163C157.684 296.567 158.095 296.101 158.622 295.766C159.152 295.432 159.772 295.264 160.481 295.264C160.912 295.264 161.329 295.335 161.734 295.478C162.138 295.621 162.501 295.844 162.823 296.149C163.144 296.454 163.398 296.85 163.583 297.337C163.769 297.821 163.862 298.41 163.862 299.102V299.629H157.791V298.516H162.405C162.405 298.125 162.325 297.778 162.166 297.477C162.007 297.172 161.784 296.931 161.495 296.756C161.21 296.58 160.875 296.492 160.491 296.492C160.073 296.492 159.709 296.595 159.397 296.8C159.089 297.003 158.85 297.268 158.681 297.596C158.516 297.921 158.433 298.274 158.433 298.655V299.525C158.433 300.035 158.522 300.469 158.701 300.827C158.883 301.185 159.137 301.459 159.462 301.648C159.787 301.833 160.166 301.926 160.6 301.926C160.882 301.926 161.139 301.886 161.371 301.807C161.603 301.724 161.803 301.601 161.972 301.439C162.142 301.277 162.271 301.076 162.36 300.837L163.767 301.091C163.655 301.505 163.452 301.868 163.161 302.18C162.872 302.488 162.509 302.728 162.072 302.901C161.638 303.07 161.142 303.154 160.585 303.154Z" fill="#29A653"/>
<path d="M105.151 327.932V325.026L112.438 313.545H114.943V317.568H113.46L108.866 324.838V324.974H119.222V327.932H105.151ZM113.528 331V327.045L113.597 325.759V313.545H117.057V331H113.528ZM122.371 331L129.607 316.682V316.562H121.178V313.545H133.425V316.605L126.18 331H122.371ZM141.543 331V317.909H145.003V320.219H145.156C145.429 319.452 145.884 318.847 146.52 318.403C147.156 317.96 147.918 317.739 148.804 317.739C149.702 317.739 150.466 317.963 151.097 318.412C151.727 318.855 152.148 319.457 152.358 320.219H152.494C152.761 319.469 153.244 318.869 153.943 318.42C154.648 317.966 155.48 317.739 156.44 317.739C157.662 317.739 158.653 318.128 159.415 318.906C160.182 319.679 160.565 320.776 160.565 322.196V331H156.943V322.912C156.943 322.185 156.75 321.639 156.364 321.276C155.977 320.912 155.494 320.73 154.915 320.73C154.256 320.73 153.741 320.94 153.372 321.361C153.003 321.776 152.818 322.324 152.818 323.006V331H149.298V322.835C149.298 322.193 149.114 321.682 148.744 321.301C148.381 320.92 147.901 320.73 147.304 320.73C146.901 320.73 146.537 320.832 146.213 321.037C145.895 321.236 145.642 321.517 145.455 321.881C145.267 322.239 145.173 322.659 145.173 323.142V331H141.543ZM163.433 331V317.909H167.064V331H163.433ZM165.257 316.222C164.717 316.222 164.254 316.043 163.868 315.685C163.487 315.321 163.297 314.886 163.297 314.381C163.297 313.881 163.487 313.452 163.868 313.094C164.254 312.73 164.717 312.548 165.257 312.548C165.797 312.548 166.257 312.73 166.638 313.094C167.024 313.452 167.217 313.881 167.217 314.381C167.217 314.886 167.024 315.321 166.638 315.685C166.257 316.043 165.797 316.222 165.257 316.222ZM173.603 313.545V331H169.972V313.545H173.603Z" fill="#29A653"/>
<rect x="214" y="268" width="172" height="89" rx="8" fill="#DCEEFA"/>
<path d="M259.32 309.167C259.32 308.207 258.827 307.367 258.067 306.9L246 299.833L233.934 306.9C233.174 307.367 232.667 308.207 232.667 309.167V322.5C232.667 323.967 233.867 325.167 235.334 325.167H256.667C258.134 325.167 259.334 323.967 259.334 322.5L259.32 309.167ZM256.654 309.167V309.18L246 315.833L235.334 309.167L246 302.927L256.654 309.167ZM235.334 322.5V312.287L246 318.98L256.654 312.327L256.667 322.5H235.334Z" fill="#2188BA"/>
<path d="M279.979 303H278.348L282.012 292.818H283.787L287.451 303H285.82L282.942 294.668H282.862L279.979 303ZM280.252 299.013H285.542V300.305H280.252V299.013ZM288.921 303V292.818H290.408V296.602H290.497C290.584 296.442 290.708 296.259 290.87 296.05C291.033 295.841 291.258 295.659 291.546 295.503C291.835 295.344 292.216 295.264 292.69 295.264C293.306 295.264 293.856 295.42 294.34 295.732C294.824 296.043 295.204 296.492 295.479 297.079C295.757 297.665 295.896 298.371 295.896 299.197C295.896 300.022 295.759 300.73 295.484 301.32C295.209 301.906 294.831 302.359 294.35 302.677C293.87 302.992 293.321 303.149 292.705 303.149C292.241 303.149 291.861 303.071 291.566 302.915C291.275 302.76 291.046 302.577 290.88 302.369C290.714 302.16 290.587 301.974 290.497 301.812H290.373V303H288.921ZM290.378 299.182C290.378 299.719 290.456 300.189 290.612 300.594C290.767 300.998 290.993 301.315 291.288 301.543C291.583 301.769 291.944 301.881 292.372 301.881C292.816 301.881 293.187 301.764 293.485 301.528C293.784 301.29 294.009 300.967 294.161 300.559C294.317 300.151 294.395 299.692 294.395 299.182C294.395 298.678 294.319 298.226 294.166 297.825C294.017 297.424 293.792 297.107 293.49 296.875C293.192 296.643 292.819 296.527 292.372 296.527C291.941 296.527 291.576 296.638 291.278 296.86C290.983 297.082 290.759 297.392 290.607 297.79C290.454 298.187 290.378 298.652 290.378 299.182ZM300.857 303.154C300.105 303.154 299.457 302.993 298.913 302.672C298.373 302.347 297.955 301.891 297.66 301.305C297.368 300.715 297.223 300.024 297.223 299.232C297.223 298.449 297.368 297.76 297.66 297.163C297.955 296.567 298.366 296.101 298.893 295.766C299.423 295.432 300.043 295.264 300.752 295.264C301.183 295.264 301.601 295.335 302.005 295.478C302.41 295.621 302.773 295.844 303.094 296.149C303.416 296.454 303.669 296.85 303.855 297.337C304.04 297.821 304.133 298.41 304.133 299.102V299.629H298.063V298.516H302.676C302.676 298.125 302.597 297.778 302.438 297.477C302.279 297.172 302.055 296.931 301.767 296.756C301.482 296.58 301.147 296.492 300.762 296.492C300.345 296.492 299.98 296.595 299.669 296.8C299.36 297.003 299.122 297.268 298.953 297.596C298.787 297.921 298.704 298.274 298.704 298.655V299.525C298.704 300.035 298.794 300.469 298.973 300.827C299.155 301.185 299.408 301.459 299.733 301.648C300.058 301.833 300.438 301.926 300.872 301.926C301.154 301.926 301.41 301.886 301.642 301.807C301.874 301.724 302.075 301.601 302.244 301.439C302.413 301.277 302.542 301.076 302.632 300.837L304.039 301.091C303.926 301.505 303.724 301.868 303.432 302.18C303.144 302.488 302.781 302.728 302.343 302.901C301.909 303.07 301.414 303.154 300.857 303.154ZM305.782 303V295.364H307.219V296.577H307.299C307.438 296.166 307.683 295.843 308.035 295.607C308.389 295.369 308.79 295.249 309.238 295.249C309.331 295.249 309.44 295.253 309.566 295.259C309.695 295.266 309.796 295.274 309.869 295.284V296.706C309.809 296.689 309.703 296.671 309.551 296.651C309.398 296.628 309.246 296.616 309.094 296.616C308.742 296.616 308.429 296.691 308.154 296.84C307.882 296.986 307.667 297.19 307.508 297.452C307.349 297.71 307.269 298.005 307.269 298.337V303H305.782ZM315.171 295.364V296.557H311V295.364H315.171ZM312.119 293.534H313.605V300.758C313.605 301.046 313.648 301.263 313.735 301.409C313.821 301.552 313.932 301.649 314.068 301.702C314.207 301.752 314.358 301.777 314.52 301.777C314.639 301.777 314.744 301.769 314.833 301.752C314.923 301.736 314.992 301.722 315.042 301.712L315.311 302.94C315.224 302.973 315.102 303.007 314.943 303.04C314.784 303.076 314.585 303.096 314.346 303.099C313.955 303.106 313.59 303.036 313.252 302.891C312.914 302.745 312.641 302.519 312.432 302.214C312.223 301.91 312.119 301.527 312.119 301.066V293.534ZM319.95 303.154C319.234 303.154 318.61 302.99 318.076 302.662C317.542 302.334 317.128 301.875 316.833 301.285C316.538 300.695 316.391 300.005 316.391 299.217C316.391 298.424 316.538 297.732 316.833 297.138C317.128 296.545 317.542 296.085 318.076 295.756C318.61 295.428 319.234 295.264 319.95 295.264C320.666 295.264 321.291 295.428 321.825 295.756C322.358 296.085 322.772 296.545 323.067 297.138C323.362 297.732 323.51 298.424 323.51 299.217C323.51 300.005 323.362 300.695 323.067 301.285C322.772 301.875 322.358 302.334 321.825 302.662C321.291 302.99 320.666 303.154 319.95 303.154ZM319.955 301.906C320.419 301.906 320.804 301.784 321.109 301.538C321.414 301.293 321.639 300.967 321.785 300.559C321.934 300.151 322.009 299.702 322.009 299.212C322.009 298.724 321.934 298.277 321.785 297.869C321.639 297.458 321.414 297.129 321.109 296.88C320.804 296.631 320.419 296.507 319.955 296.507C319.488 296.507 319.1 296.631 318.792 296.88C318.487 297.129 318.26 297.458 318.111 297.869C317.965 298.277 317.892 298.724 317.892 299.212C317.892 299.702 317.965 300.151 318.111 300.559C318.26 300.967 318.487 301.293 318.792 301.538C319.1 301.784 319.488 301.906 319.955 301.906Z" fill="#2188BA"/>
<path d="M279.151 327.932V325.026L286.438 313.545H288.943V317.568H287.46L282.866 324.838V324.974H293.222V327.932H279.151ZM287.528 331V327.045L287.597 325.759V313.545H291.057V331H287.528ZM302.055 331.239C300.851 331.239 299.777 331.017 298.834 330.574C297.896 330.131 297.152 329.52 296.601 328.741C296.05 327.963 295.763 327.071 295.74 326.065H299.32C299.359 326.741 299.643 327.29 300.172 327.71C300.7 328.131 301.328 328.341 302.055 328.341C302.635 328.341 303.146 328.213 303.589 327.957C304.038 327.696 304.388 327.335 304.638 326.875C304.893 326.409 305.021 325.875 305.021 325.273C305.021 324.659 304.891 324.119 304.629 323.653C304.374 323.187 304.018 322.824 303.564 322.562C303.109 322.301 302.589 322.168 302.004 322.162C301.493 322.162 300.996 322.267 300.513 322.477C300.036 322.687 299.663 322.974 299.396 323.338L296.115 322.75L296.942 313.545H307.612V316.562H299.984L299.533 320.935H299.635C299.942 320.503 300.405 320.145 301.024 319.861C301.643 319.577 302.337 319.435 303.104 319.435C304.155 319.435 305.092 319.682 305.916 320.176C306.74 320.67 307.391 321.349 307.868 322.213C308.345 323.071 308.581 324.06 308.575 325.179C308.581 326.355 308.308 327.401 307.757 328.315C307.212 329.224 306.447 329.94 305.464 330.463C304.487 330.98 303.351 331.239 302.055 331.239ZM316.738 331V317.909H320.198V320.219H320.352C320.624 319.452 321.079 318.847 321.715 318.403C322.352 317.96 323.113 317.739 323.999 317.739C324.897 317.739 325.661 317.963 326.292 318.412C326.923 318.855 327.343 319.457 327.553 320.219H327.69C327.957 319.469 328.44 318.869 329.138 318.42C329.843 317.966 330.675 317.739 331.636 317.739C332.857 317.739 333.849 318.128 334.61 318.906C335.377 319.679 335.761 320.776 335.761 322.196V331H332.138V322.912C332.138 322.185 331.945 321.639 331.559 321.276C331.173 320.912 330.69 320.73 330.11 320.73C329.451 320.73 328.937 320.94 328.567 321.361C328.198 321.776 328.013 322.324 328.013 323.006V331H324.494V322.835C324.494 322.193 324.309 321.682 323.94 321.301C323.576 320.92 323.096 320.73 322.499 320.73C322.096 320.73 321.732 320.832 321.408 321.037C321.09 321.236 320.837 321.517 320.65 321.881C320.462 322.239 320.369 322.659 320.369 323.142V331H316.738ZM338.629 331V317.909H342.259V331H338.629ZM340.452 316.222C339.913 316.222 339.45 316.043 339.063 315.685C338.683 315.321 338.492 314.886 338.492 314.381C338.492 313.881 338.683 313.452 339.063 313.094C339.45 312.73 339.913 312.548 340.452 312.548C340.992 312.548 341.452 312.73 341.833 313.094C342.219 313.452 342.413 313.881 342.413 314.381C342.413 314.886 342.219 315.321 341.833 315.685C341.452 316.043 340.992 316.222 340.452 316.222ZM348.798 313.545V331H345.168V313.545H348.798Z" fill="#2188BA"/>
<path d="M509 300H439C433.5 300 429 304.5 429 310V380C429 385.5 433.5 390 439 390H509C514.5 390 519 385.5 519 380V310C519 304.5 514.5 300 509 300ZM509 380H439V310H509V380Z" fill="#F9EAE5"/>
<path d="M459 345H449V370H459V345Z" fill="#F9EAE5"/>
<path d="M499 320H489V370H499V320Z" fill="#F9EAE5"/>
<path d="M479 355H469V370H479V355Z" fill="#F9EAE5"/>
<path d="M479 335H469V345H479V335Z" fill="#F9EAE5"/>
<path d="M439 90H454V139H439V90ZM467 69H481V139H467V69ZM495 109H509V139H495V109Z" fill="#F9EAE5"/>
<path d="M231.373 139H227.998L234.143 121.545H238.047L244.2 139H240.825L236.163 125.125H236.027L231.373 139ZM231.484 132.156H240.689V134.696H231.484V132.156ZM249.448 131.33V139H246.363V125.909H249.311V128.134H249.465C249.766 127.401 250.246 126.818 250.905 126.386C251.57 125.955 252.391 125.739 253.368 125.739C254.272 125.739 255.059 125.932 255.729 126.318C256.405 126.705 256.928 127.264 257.297 127.997C257.672 128.73 257.857 129.619 257.851 130.665V139H254.766V131.142C254.766 130.267 254.539 129.582 254.084 129.088C253.635 128.594 253.013 128.347 252.218 128.347C251.678 128.347 251.198 128.466 250.777 128.705C250.363 128.937 250.036 129.276 249.797 129.719C249.564 130.162 249.448 130.699 249.448 131.33ZM264.755 139.264C263.925 139.264 263.178 139.116 262.513 138.821C261.854 138.52 261.331 138.077 260.945 137.491C260.564 136.906 260.374 136.185 260.374 135.327C260.374 134.588 260.51 133.977 260.783 133.494C261.056 133.011 261.428 132.625 261.9 132.335C262.371 132.045 262.902 131.827 263.493 131.679C264.09 131.526 264.706 131.415 265.343 131.347C266.11 131.267 266.732 131.196 267.209 131.134C267.686 131.065 268.033 130.963 268.249 130.827C268.471 130.685 268.581 130.466 268.581 130.17V130.119C268.581 129.477 268.391 128.98 268.01 128.628C267.63 128.276 267.081 128.099 266.365 128.099C265.61 128.099 265.01 128.264 264.567 128.594C264.13 128.923 263.834 129.312 263.681 129.761L260.8 129.352C261.027 128.557 261.402 127.892 261.925 127.358C262.448 126.818 263.087 126.415 263.843 126.148C264.598 125.875 265.434 125.739 266.348 125.739C266.979 125.739 267.607 125.812 268.232 125.96C268.857 126.108 269.428 126.352 269.945 126.693C270.462 127.028 270.877 127.486 271.189 128.065C271.507 128.645 271.667 129.369 271.667 130.239V139H268.701V137.202H268.598C268.411 137.565 268.147 137.906 267.806 138.224C267.471 138.537 267.047 138.79 266.536 138.983C266.03 139.17 265.436 139.264 264.755 139.264ZM265.556 136.997C266.175 136.997 266.712 136.875 267.167 136.631C267.621 136.381 267.971 136.051 268.215 135.642C268.465 135.233 268.59 134.787 268.59 134.304V132.761C268.493 132.841 268.328 132.915 268.096 132.983C267.868 133.051 267.613 133.111 267.328 133.162C267.044 133.213 266.763 133.259 266.485 133.298C266.206 133.338 265.965 133.372 265.76 133.401C265.3 133.463 264.888 133.565 264.525 133.707C264.161 133.849 263.874 134.048 263.664 134.304C263.453 134.554 263.348 134.878 263.348 135.276C263.348 135.844 263.556 136.273 263.971 136.562C264.385 136.852 264.914 136.997 265.556 136.997ZM265.3 124.188L267.209 120.293H270.226L267.61 124.188H265.3ZM277.854 121.545V139H274.769V121.545H277.854ZM281.027 139V125.909H284.112V139H281.027ZM282.578 124.051C282.089 124.051 281.669 123.889 281.316 123.565C280.964 123.236 280.788 122.841 280.788 122.381C280.788 121.915 280.964 121.52 281.316 121.196C281.669 120.866 282.089 120.702 282.578 120.702C283.072 120.702 283.493 120.866 283.839 121.196C284.191 121.52 284.368 121.915 284.368 122.381C284.368 122.841 284.191 123.236 283.839 123.565C283.493 123.889 283.072 124.051 282.578 124.051ZM297.631 129.369L294.819 129.676C294.739 129.392 294.6 129.125 294.401 128.875C294.208 128.625 293.946 128.423 293.617 128.27C293.287 128.116 292.884 128.04 292.407 128.04C291.765 128.04 291.225 128.179 290.787 128.457C290.355 128.736 290.142 129.097 290.148 129.54C290.142 129.92 290.282 130.23 290.566 130.469C290.855 130.707 291.333 130.903 291.998 131.057L294.23 131.534C295.469 131.801 296.39 132.224 296.992 132.804C297.6 133.384 297.907 134.142 297.912 135.08C297.907 135.903 297.665 136.631 297.188 137.261C296.716 137.886 296.06 138.375 295.219 138.727C294.378 139.08 293.412 139.256 292.321 139.256C290.719 139.256 289.429 138.92 288.452 138.25C287.475 137.574 286.892 136.634 286.705 135.429L289.713 135.139C289.85 135.73 290.14 136.176 290.583 136.477C291.026 136.778 291.603 136.929 292.313 136.929C293.046 136.929 293.634 136.778 294.077 136.477C294.526 136.176 294.75 135.804 294.75 135.361C294.75 134.986 294.605 134.676 294.316 134.432C294.032 134.187 293.588 134 292.986 133.869L290.753 133.401C289.498 133.139 288.569 132.699 287.966 132.08C287.364 131.455 287.066 130.665 287.071 129.71C287.066 128.903 287.284 128.205 287.728 127.614C288.176 127.017 288.799 126.557 289.594 126.233C290.395 125.903 291.319 125.739 292.364 125.739C293.898 125.739 295.105 126.065 295.986 126.719C296.873 127.372 297.421 128.256 297.631 129.369ZM306.252 139.256C304.939 139.256 303.806 138.983 302.851 138.438C301.902 137.886 301.172 137.108 300.661 136.102C300.15 135.091 299.894 133.901 299.894 132.531C299.894 131.185 300.15 130.003 300.661 128.986C301.178 127.963 301.9 127.168 302.826 126.599C303.752 126.026 304.84 125.739 306.09 125.739C306.897 125.739 307.658 125.869 308.374 126.131C309.096 126.386 309.732 126.784 310.283 127.324C310.84 127.864 311.277 128.551 311.596 129.386C311.914 130.216 312.073 131.205 312.073 132.352V133.298H301.343V131.219H309.115C309.11 130.628 308.982 130.102 308.732 129.642C308.482 129.176 308.132 128.81 307.684 128.543C307.24 128.276 306.723 128.142 306.132 128.142C305.502 128.142 304.948 128.295 304.471 128.602C303.993 128.903 303.621 129.301 303.354 129.795C303.093 130.284 302.959 130.821 302.953 131.406V133.222C302.953 133.983 303.093 134.636 303.371 135.182C303.65 135.722 304.039 136.136 304.539 136.426C305.039 136.71 305.624 136.852 306.294 136.852C306.743 136.852 307.15 136.79 307.513 136.665C307.877 136.534 308.192 136.344 308.459 136.094C308.726 135.844 308.928 135.534 309.064 135.165L311.945 135.489C311.763 136.25 311.417 136.915 310.905 137.483C310.4 138.045 309.752 138.483 308.962 138.795C308.172 139.102 307.269 139.256 306.252 139.256ZM325.494 139.23C324.466 139.23 323.545 138.966 322.733 138.438C321.92 137.909 321.278 137.142 320.806 136.136C320.335 135.131 320.099 133.909 320.099 132.472C320.099 131.017 320.338 129.79 320.815 128.79C321.298 127.784 321.949 127.026 322.767 126.514C323.585 125.997 324.497 125.739 325.502 125.739C326.27 125.739 326.9 125.869 327.395 126.131C327.889 126.386 328.281 126.696 328.571 127.06C328.86 127.418 329.085 127.756 329.244 128.074H329.372V121.545H332.466V139H329.431V136.938H329.244C329.085 137.256 328.855 137.594 328.554 137.952C328.252 138.304 327.855 138.605 327.36 138.855C326.866 139.105 326.244 139.23 325.494 139.23ZM326.355 136.699C327.008 136.699 327.565 136.523 328.025 136.17C328.485 135.812 328.835 135.315 329.074 134.679C329.312 134.043 329.431 133.301 329.431 132.455C329.431 131.608 329.312 130.872 329.074 130.247C328.841 129.622 328.494 129.136 328.034 128.79C327.579 128.443 327.02 128.27 326.355 128.27C325.667 128.27 325.093 128.449 324.633 128.807C324.173 129.165 323.826 129.659 323.593 130.29C323.36 130.92 323.244 131.642 323.244 132.455C323.244 133.273 323.36 134.003 323.593 134.645C323.832 135.281 324.181 135.784 324.642 136.153C325.108 136.517 325.679 136.699 326.355 136.699ZM341.549 139.256C340.236 139.256 339.103 138.983 338.148 138.438C337.199 137.886 336.469 137.108 335.958 136.102C335.446 135.091 335.191 133.901 335.191 132.531C335.191 131.185 335.446 130.003 335.958 128.986C336.475 127.963 337.196 127.168 338.123 126.599C339.049 126.026 340.137 125.739 341.387 125.739C342.194 125.739 342.955 125.869 343.671 126.131C344.392 126.386 345.029 126.784 345.58 127.324C346.137 127.864 346.574 128.551 346.892 129.386C347.211 130.216 347.37 131.205 347.37 132.352V133.298H336.64V131.219H344.412C344.407 130.628 344.279 130.102 344.029 129.642C343.779 129.176 343.429 128.81 342.98 128.543C342.537 128.276 342.02 128.142 341.429 128.142C340.799 128.142 340.245 128.295 339.767 128.602C339.29 128.903 338.918 129.301 338.651 129.795C338.39 130.284 338.256 130.821 338.25 131.406V133.222C338.25 133.983 338.39 134.636 338.668 135.182C338.946 135.722 339.336 136.136 339.836 136.426C340.336 136.71 340.921 136.852 341.591 136.852C342.04 136.852 342.446 136.79 342.81 136.665C343.174 136.534 343.489 136.344 343.756 136.094C344.023 135.844 344.225 135.534 344.361 135.165L347.242 135.489C347.06 136.25 346.713 136.915 346.202 137.483C345.696 138.045 345.049 138.483 344.259 138.795C343.469 139.102 342.566 139.256 341.549 139.256ZM361.728 139.256C360.416 139.256 359.282 138.983 358.328 138.438C357.379 137.886 356.649 137.108 356.137 136.102C355.626 135.091 355.37 133.901 355.37 132.531C355.37 131.185 355.626 130.003 356.137 128.986C356.654 127.963 357.376 127.168 358.302 126.599C359.228 126.026 360.316 125.739 361.566 125.739C362.373 125.739 363.135 125.869 363.85 126.131C364.572 126.386 365.208 126.784 365.76 127.324C366.316 127.864 366.754 128.551 367.072 129.386C367.39 130.216 367.549 131.205 367.549 132.352V133.298H356.819V131.219H364.592C364.586 130.628 364.458 130.102 364.208 129.642C363.958 129.176 363.609 128.81 363.16 128.543C362.717 128.276 362.2 128.142 361.609 128.142C360.978 128.142 360.424 128.295 359.947 128.602C359.47 128.903 359.098 129.301 358.831 129.795C358.569 130.284 358.436 130.821 358.43 131.406V133.222C358.43 133.983 358.569 134.636 358.848 135.182C359.126 135.722 359.515 136.136 360.015 136.426C360.515 136.71 361.1 136.852 361.771 136.852C362.22 136.852 362.626 136.79 362.99 136.665C363.353 136.534 363.669 136.344 363.936 136.094C364.203 135.844 364.404 135.534 364.541 135.165L367.422 135.489C367.24 136.25 366.893 136.915 366.382 137.483C365.876 138.045 365.228 138.483 364.439 138.795C363.649 139.102 362.745 139.256 361.728 139.256ZM378.094 130.46V133H370.236V130.46H378.094ZM381.339 139V125.909H384.288V128.134H384.441C384.714 127.384 385.166 126.798 385.797 126.378C386.427 125.952 387.18 125.739 388.055 125.739C388.941 125.739 389.689 125.955 390.297 126.386C390.91 126.812 391.342 127.395 391.592 128.134H391.728C392.018 127.406 392.507 126.827 393.194 126.395C393.887 125.957 394.708 125.739 395.657 125.739C396.862 125.739 397.845 126.119 398.606 126.881C399.368 127.642 399.748 128.753 399.748 130.213V139H396.654V130.69C396.654 129.878 396.439 129.284 396.007 128.909C395.575 128.528 395.047 128.338 394.422 128.338C393.677 128.338 393.095 128.571 392.674 129.037C392.26 129.497 392.052 130.097 392.052 130.835V139H389.027V130.562C389.027 129.886 388.822 129.347 388.413 128.943C388.01 128.54 387.481 128.338 386.828 128.338C386.385 128.338 385.981 128.452 385.618 128.679C385.254 128.901 384.964 129.216 384.748 129.625C384.532 130.028 384.424 130.5 384.424 131.04V139H381.339ZM406.645 139.264C405.816 139.264 405.069 139.116 404.404 138.821C403.745 138.52 403.222 138.077 402.836 137.491C402.455 136.906 402.265 136.185 402.265 135.327C402.265 134.588 402.401 133.977 402.674 133.494C402.946 133.011 403.319 132.625 403.79 132.335C404.262 132.045 404.793 131.827 405.384 131.679C405.98 131.526 406.597 131.415 407.233 131.347C408 131.267 408.623 131.196 409.1 131.134C409.577 131.065 409.924 130.963 410.14 130.827C410.361 130.685 410.472 130.466 410.472 130.17V130.119C410.472 129.477 410.282 128.98 409.901 128.628C409.52 128.276 408.972 128.099 408.256 128.099C407.5 128.099 406.901 128.264 406.458 128.594C406.02 128.923 405.725 129.312 405.571 129.761L402.691 129.352C402.918 128.557 403.293 127.892 403.816 127.358C404.338 126.818 404.978 126.415 405.733 126.148C406.489 125.875 407.324 125.739 408.239 125.739C408.87 125.739 409.498 125.812 410.123 125.96C410.748 126.108 411.319 126.352 411.836 126.693C412.353 127.028 412.767 127.486 413.08 128.065C413.398 128.645 413.557 129.369 413.557 130.239V139H410.591V137.202H410.489C410.301 137.565 410.037 137.906 409.696 138.224C409.361 138.537 408.938 138.79 408.426 138.983C407.921 139.17 407.327 139.264 406.645 139.264ZM407.446 136.997C408.066 136.997 408.603 136.875 409.057 136.631C409.512 136.381 409.861 136.051 410.105 135.642C410.355 135.233 410.48 134.787 410.48 134.304V132.761C410.384 132.841 410.219 132.915 409.986 132.983C409.759 133.051 409.503 133.111 409.219 133.162C408.935 133.213 408.654 133.259 408.375 133.298C408.097 133.338 407.855 133.372 407.651 133.401C407.191 133.463 406.779 133.565 406.415 133.707C406.051 133.849 405.765 134.048 405.554 134.304C405.344 134.554 405.239 134.878 405.239 135.276C405.239 135.844 405.446 136.273 405.861 136.562C406.276 136.852 406.804 136.997 407.446 136.997ZM416.659 139V125.909H419.745V139H416.659ZM418.211 124.051C417.722 124.051 417.301 123.889 416.949 123.565C416.597 123.236 416.421 122.841 416.421 122.381C416.421 121.915 416.597 121.52 416.949 121.196C417.301 120.866 417.722 120.702 418.211 120.702C418.705 120.702 419.125 120.866 419.472 121.196C419.824 121.52 420 121.915 420 122.381C420 122.841 419.824 123.236 419.472 123.565C419.125 123.889 418.705 124.051 418.211 124.051ZM426.002 121.545V139H422.917V121.545H426.002Z" fill="#3A74B5"/>
</svg>
