<svg width="1200" height="1200" viewBox="0 0 1200 1200" fill="none" xmlns="http://www.w3.org/2000/svg">
<g clip-path="url(#clip0_21_6795)">
<rect width="1200" height="1200" fill="#F1F0EC"/>
<path d="M1200 0H0V1200H1200V0Z" fill="#F1F0EC"/>
<path d="M229.844 95.3125C227.984 113.328 224.656 131.391 219.219 148.672C216.39 130.703 225.422 111.813 222.562 93.4219C219.515 53.7657 163.531 100.922 150.453 112.609L150.734 113.016C118.172 140.031 91.2967 174.719 53.703 194.75C22.2655 211.016 2.68736 195.328 17.1405 161.781C28.2499 136.625 46.578 115.328 65.0155 95.1875C97.9842 58.8282 135.297 26.5625 166.875 -11.0625C183.844 -29.6406 196.64 -62.5312 156.75 -45.3437C111.094 -20.4218 79.6561 23 46.9999 62.2344C14.703 101.328 -19.4689 140.672 -62.8595 167.625C-96.297 188.422 -102.141 158.109 -90.297 131.953C-75.5626 98.4219 -51.2345 70.1563 -26.797 43.2969C0.984232 13.4532 30.6561 -14.5468 59.2811 -43.5468C70.2498 -57.0625 109.672 -90.7968 93.7499 -107.922C93.3124 -108.437 92.1717 -108.453 91.8124 -109.094C89.6249 -112.766 84.9686 -113.25 81.203 -114.312C78.9842 -114.562 76.7499 -114.719 74.6249 -115.594C73.8592 -115.844 73.1249 -116.422 71.9217 -115.625L73.0467 -115.203L72.8436 -114.766C70.8905 -114.344 68.8905 -114.781 66.8905 -114.891L68.0311 -115.266L68.0624 -115.641C66.9686 -115.672 57.9999 -115.922 60.4999 -113.891L58.6561 -113.437C58.578 -113.906 58.5155 -114.297 58.4842 -114.531C55.828 -114.625 53.9842 -113.625 52.0936 -111.922L51.8436 -112.141L52.0624 -113.422C49.7186 -111.406 47.0155 -110.375 43.9217 -110.344C30.3905 -103.484 15.6092 -97.4375 3.89048 -87.6093L2.95298 -88.6718C0.687356 -85.4375 -4.17202 -84.8125 -6.59389 -81.4687C-8.54702 -80.5312 -9.15639 -78.7656 -10.2189 -77.1406L-10.8283 -78.375C-11.2814 -77.3125 -11.6564 -76.4531 -12.0314 -75.5937L-12.297 -75.7031C-12.2033 -76 -12.0939 -76.2968 -12.0001 -76.5937L-12.172 -76.7656C-13.1564 -76.1093 -13.4064 -74.8125 -14.8595 -75.0156C-16.1564 -74.875 -18.7189 -72.7968 -17.5626 -71.4218C-19.2658 -69.5156 -21.7345 -69.0937 -23.6095 -67.4218C-26.0626 -64.5312 -29.1408 -61.9062 -31.5939 -59.1562L-30.3283 -58.8906C-30.7345 -58.0468 -31.3126 -57.3906 -32.0939 -56.875C-34.7189 -55.1562 -36.3908 -52.4062 -38.422 -50.0781C-39.2189 -48.7343 -42.1408 -48.75 -41.0158 -46.7343C-43.7814 -47.7031 -45.1251 -44 -47.0783 -42.8125C-49.4533 -41.25 -49.6251 -37.1562 -52.2345 -36.2343C-53.1564 -36.5156 -53.3751 -35.9062 -53.422 -35.3437C-53.4845 -33.6718 -54.7501 -32.7343 -55.4533 -31.4218C-56.2033 -28.75 -58.4064 -26.5937 -60.4533 -24.9375C-61.1876 -24.5937 -61.8439 -24.2343 -61.5939 -23.2968C-61.2501 -21.8906 -62.1408 -20.8125 -62.9376 -20.1562C-65.7189 -17.8437 -67.172 -14.5156 -69.172 -11.7031C-68.9689 -9.81246 -70.672 -8.99996 -71.4376 -7.67184C-71.7189 -6.64058 -72.1095 -5.67184 -72.6095 -4.74996C-74.6251 -0.296837 -77.7033 3.8438 -79.3439 8.48442C-81.3908 10.7657 -80.8439 13.75 -82.6408 16.2188L-82.4064 16.3594L-83.422 17C-82.172 17.3907 -82.422 18.1719 -82.5314 19C-83.9845 25.4844 -82.547 31.8438 -81.6095 38.3125L-81.9064 38.3907C-103.016 -12.25 -8.70326 -97.5156 33.828 -115.891C59.703 -129.516 120.39 -135.453 98.8124 -88.7187C85.7186 -59.9687 62.1561 -37.6875 40.0624 -15.75C15.9999 8.03129 -7.90639 32.0157 -30.4376 57.25C-44.8595 73.9844 -59.2033 90.8594 -70.7033 109.797C-75.297 117.563 -103.469 161.219 -83.2814 159.75C-57.9533 154.219 -38.422 133.703 -19.3283 117.297C24.7811 76.4375 58.9217 26.3125 101.719 -15.7968C118.844 -32.2968 137.047 -48.7031 158.656 -59.0312C192.64 -74.7187 200.406 -52.0312 183.344 -24.75C152.562 22.3438 107.297 57.375 70.5624 99.5625C49.7811 123.047 28.1405 147.5 18.4061 177.891C17.9842 189.313 35.7811 185.188 42.6405 182.891C56.3124 178.219 67.7342 169.375 78.7655 160.328C105.375 137.656 128.5 111.094 155.937 89.3125C181 68.6094 235.703 35.5 229.844 95.3125Z" fill="#D8C0B8"/>
<mask id="mask0_21_6795" style="mask-type:luminance" maskUnits="userSpaceOnUse" x="816" y="0" width="384" height="148">
<path d="M816 0H1200V148H816V0Z" fill="white"/>
</mask>
<g mask="url(#mask0_21_6795)">
<mask id="mask1_21_6795" style="mask-type:luminance" maskUnits="userSpaceOnUse" x="792" y="-324" width="506" height="477">
<path d="M792.891 126.062L817.797 -323.25L1297.06 -296.688L1272.16 152.625L792.891 126.062Z" fill="white"/>
</mask>
<g mask="url(#mask1_21_6795)">
<mask id="mask2_21_6795" style="mask-type:luminance" maskUnits="userSpaceOnUse" x="792" y="-324" width="506" height="477">
<path d="M792.891 126.062L817.797 -323.25L1297.06 -296.688L1272.16 152.625L792.891 126.062Z" fill="white"/>
</mask>
<g mask="url(#mask2_21_6795)">
<path d="M1189.31 146.469C1174.92 146.891 1160.23 140.328 1150.3 130.141C1137.41 117.047 1135.08 101.203 1134.06 83.7813C1132.73 63.7969 1119.22 46.2344 1100.08 40.0938C1089.33 36.6251 1077.84 36.0938 1066.59 35.5782C1042.11 34.3282 1017.58 29.875 1004.59 6.81254C990.781 -17.5156 1005.64 -42.0156 997.938 -66.8906C992.313 -85.125 973.953 -97.0937 956.547 -102.375C912.375 -115.656 861.672 -111.062 832.969 -154.016C816.828 -178.141 811.422 -208.094 822.016 -235.719C831.578 -260.625 856.188 -275.516 881.922 -278.734C895.516 -280.422 909.719 -279.187 922.781 -275.375C937.469 -271.016 952.469 -264.437 967.844 -270.219C981.516 -275.437 992.219 -287 1005.31 -293.687C1020.69 -301.687 1037.25 -307.187 1054.72 -307C1086.22 -306.578 1105.69 -288.578 1121.08 -262.937C1129.59 -248.75 1138.53 -232.547 1155.78 -228.391C1170.84 -224.781 1186.05 -229.469 1201.17 -229.078C1213.11 -228.859 1225.09 -225.547 1235.88 -220.625C1257.8 -210.781 1275.23 -192.344 1280.89 -168.687C1288.3 -138.406 1273.19 -107.5 1260 -80.9062C1253.77 -68.2031 1248 -54.25 1248.2 -39.8593C1248.38 -24.9218 1253.59 -11.25 1256.2 3.39066C1262.64 38.9219 1261.06 73.5625 1243.67 105.797C1234.17 123.406 1218.08 140.438 1197.91 145.281C1195.09 146.016 1192.2 146.297 1189.31 146.469Z" fill="#F46D44"/>
</g>
</g>
</g>
<mask id="mask3_21_6795" style="mask-type:luminance" maskUnits="userSpaceOnUse" x="2" y="1027" width="64" height="53">
<path d="M2.89062 1027.45H65.8906V1080H2.89062V1027.45Z" fill="white"/>
</mask>
<g mask="url(#mask3_21_6795)">
<path d="M23.5157 1027.89C23.4532 1027.63 23.1876 1027.45 22.922 1027.53C22.7345 1027.56 22.5939 1027.72 22.547 1027.89C21.672 1031.19 19.5001 1037.27 14.7345 1040.97C11.422 1043.55 7.53135 1045.33 3.42198 1046.17C3.14073 1046.22 2.96886 1046.48 3.01573 1046.77C3.06261 1046.95 3.20323 1047.09 3.37511 1047.14C6.71886 1048.08 12.5314 1050.13 15.4845 1053.59C17.8126 1056.33 19.8907 1063.2 20.797 1066.56C20.8751 1066.83 21.1564 1066.98 21.4064 1066.91C21.5782 1066.86 21.7189 1066.72 21.7501 1066.56C22.6876 1063.14 25.0939 1056.08 29.6095 1053.08C33.6407 1050.39 38.1251 1049.05 40.6564 1048.45C40.9376 1048.38 41.0782 1048.11 41.0157 1047.83C40.9689 1047.67 40.8595 1047.53 40.6876 1047.48C37.6251 1046.58 31.9376 1044.55 29.6095 1041.48C25.9845 1036.73 24.2657 1031.02 23.5157 1027.89ZM48.8751 1056.08C48.8282 1055.91 48.672 1055.81 48.5001 1055.84C48.3907 1055.88 48.3126 1055.97 48.2814 1056.08C47.7501 1058.09 46.422 1061.8 43.5001 1064.06C41.4689 1065.64 39.0939 1066.72 36.5782 1067.23C36.4064 1067.27 36.297 1067.42 36.3439 1067.59C36.3751 1067.7 36.4532 1067.8 36.5626 1067.83C38.6095 1068.39 42.172 1069.63 43.9689 1071.75C45.3907 1073.42 46.6564 1077.64 47.2189 1079.69C47.2501 1079.86 47.4376 1079.95 47.5782 1079.92C47.6876 1079.89 47.7657 1079.81 47.797 1079.69C48.3751 1077.61 49.8439 1073.3 52.6095 1071.45C55.0782 1069.81 57.8126 1068.98 59.3595 1068.61C59.5314 1068.58 59.6251 1068.41 59.5782 1068.25C59.547 1068.14 59.4689 1068.05 59.3751 1068.03C57.5001 1067.47 54.0314 1066.23 52.6095 1064.36C50.3751 1061.48 49.3282 1057.98 48.8751 1056.08ZM58.8907 1033.14C58.8751 1033.03 58.7657 1032.97 58.6564 1033C58.5782 1033.02 58.5314 1033.06 58.5001 1033.14C58.1407 1034.48 57.2657 1036.94 55.3126 1038.45C53.9689 1039.5 52.3907 1040.22 50.7189 1040.56C50.6095 1040.59 50.547 1040.69 50.5626 1040.8C50.5782 1040.88 50.6251 1040.94 50.7032 1040.95C52.0626 1041.33 54.422 1042.16 55.6407 1043.56C56.5782 1044.67 57.422 1047.47 57.7814 1048.83C57.8126 1048.94 57.922 1049 58.0314 1048.97C58.0939 1048.95 58.1564 1048.91 58.172 1048.83C58.547 1047.45 59.5314 1044.58 61.3595 1043.36C63.0001 1042.27 64.8126 1041.73 65.8595 1041.48C65.9689 1041.45 66.047 1041.34 66.0157 1041.23C66.0001 1041.17 65.9376 1041.11 65.8751 1041.08C64.6251 1040.72 62.3282 1039.89 61.3751 1038.64C59.9064 1036.73 59.2032 1034.42 58.8907 1033.14Z" fill="#F46D44"/>
</g>
<mask id="mask4_21_6795" style="mask-type:luminance" maskUnits="userSpaceOnUse" x="-3" y="293" width="31" height="55">
<path d="M-3 293.328H27.2813V347.328H-3V293.328Z" fill="white"/>
</mask>
<g mask="url(#mask4_21_6795)">
<path d="M-15.0936 293.766C-15.1561 293.484 -15.4218 293.328 -15.6874 293.391C-15.8749 293.437 -16.0311 293.594 -16.0624 293.766C-16.9374 297.062 -19.1093 303.125 -23.8749 306.844C-27.203 309.422 -31.078 311.203 -35.1874 312.047C-35.4686 312.094 -35.6405 312.359 -35.5936 312.625C-35.5468 312.828 -35.4061 312.953 -35.2343 313.016C-31.8905 313.953 -26.078 315.984 -23.1249 319.453C-20.7968 322.203 -18.7186 329.078 -17.8124 332.437C-17.7343 332.687 -17.4686 332.859 -17.203 332.781C-17.0311 332.734 -16.9061 332.594 -16.8593 332.437C-15.9218 329.016 -13.5155 321.953 -8.99989 318.953C-4.96864 316.266 -0.484262 314.922 2.04699 314.312C2.32824 314.25 2.46887 313.969 2.40636 313.703C2.35949 313.531 2.23449 313.406 2.07824 313.359C-0.984264 312.453 -6.67176 310.406 -8.99989 307.359C-12.6249 302.609 -14.3436 296.891 -15.0936 293.766ZM10.2657 321.937C10.2189 321.781 10.047 321.687 9.89074 321.719C9.78136 321.75 9.70324 321.828 9.67199 321.937C9.14074 323.953 7.81261 327.672 4.89074 329.937C2.85949 331.516 0.484489 332.594 -2.03114 333.109C-2.20301 333.125 -2.31239 333.297 -2.26551 333.453C-2.24989 333.562 -2.15614 333.672 -2.04676 333.687C-0.015512 334.266 3.56261 335.5 5.35949 337.625C6.78136 339.297 8.04699 343.516 8.59387 345.562C8.64074 345.734 8.82824 345.828 8.96887 345.781C9.07824 345.766 9.15636 345.672 9.18761 345.562C9.76574 343.484 11.2345 339.156 13.9845 337.328C16.4532 335.687 19.2032 334.859 20.7501 334.484C20.9064 334.453 21.0157 334.281 20.9689 334.109C20.9376 334 20.8595 333.922 20.7657 333.891C18.8907 333.328 15.422 332.109 13.9845 330.219C11.7657 327.359 10.7189 323.859 10.2657 321.937ZM20.2814 299.016C20.2501 298.906 20.1407 298.844 20.0314 298.859C19.9689 298.875 19.9064 298.937 19.8907 299.016C19.5314 300.359 18.6564 302.812 16.7032 304.328C15.3595 305.359 13.7814 306.094 12.1095 306.437C12.0001 306.469 11.9376 306.562 11.9532 306.672C11.9532 306.75 12.0157 306.797 12.0939 306.812C13.4532 307.203 15.8126 308.031 17.0157 309.437C17.9689 310.547 18.797 313.344 19.172 314.703C19.2032 314.812 19.3126 314.859 19.422 314.844C19.4845 314.828 19.547 314.766 19.5626 314.703C19.9376 313.312 20.9064 310.453 22.7501 309.234C24.3907 308.141 26.2032 307.594 27.2501 307.359C27.3595 307.328 27.422 307.219 27.4064 307.109C27.3907 307.031 27.3282 306.984 27.2657 306.953C26.0157 306.578 23.7189 305.766 22.7657 304.516C21.297 302.609 20.5782 300.297 20.2814 299.016Z" fill="#F46D44"/>
</g>
</g>
<defs>
<clipPath id="clip0_21_6795">
<rect width="1200" height="1200" fill="white"/>
</clipPath>
</defs>
</svg>
