<svg width="600" height="450" viewBox="0 0 600 450" fill="none" xmlns="http://www.w3.org/2000/svg">
<g filter="url(#filter0_d_6427_153944)">
<rect x="41.1875" y="201" width="100" height="32" rx="16" fill="#EDEDFD" shape-rendering="crispEdges"/>
<path d="M76.6315 222.5L73.2575 212.42H74.5525L77.4855 221.177L80.4465 212.42H81.7415L78.3675 222.5H76.6315ZM85.1805 222.71C84.4291 222.71 83.7805 222.54 83.2345 222.199C82.6931 221.858 82.2755 221.387 81.9815 220.785C81.6875 220.183 81.5405 219.492 81.5405 218.713C81.5405 217.92 81.6898 217.224 81.9885 216.627C82.2871 216.03 82.7095 215.565 83.2555 215.234C83.8015 214.898 84.4431 214.73 85.1805 214.73C85.9365 214.73 86.5875 214.9 87.1335 215.241C87.6795 215.577 88.0971 216.046 88.3865 216.648C88.6805 217.245 88.8275 217.934 88.8275 218.713C88.8275 219.502 88.6805 220.197 88.3865 220.799C88.0925 221.396 87.6725 221.865 87.1265 222.206C86.5805 222.542 85.9318 222.71 85.1805 222.71ZM85.1805 221.527C85.9645 221.527 86.5478 221.266 86.9305 220.743C87.3131 220.22 87.5045 219.544 87.5045 218.713C87.5045 217.859 87.3108 217.18 86.9235 216.676C86.5361 216.167 85.9551 215.913 85.1805 215.913C84.6531 215.913 84.2191 216.032 83.8785 216.27C83.5378 216.508 83.2835 216.837 83.1155 217.257C82.9475 217.677 82.8635 218.162 82.8635 218.713C82.8635 219.562 83.0595 220.244 83.4515 220.757C83.8435 221.27 84.4198 221.527 85.1805 221.527ZM90.5087 213.603V212.315H91.7547V213.603H90.5087ZM90.5087 222.5V214.94H91.7547V222.5H90.5087ZM97.04 222.71C96.2747 222.71 95.6237 222.54 95.087 222.199C94.555 221.854 94.149 221.38 93.869 220.778C93.589 220.176 93.4443 219.49 93.435 218.72C93.4443 217.931 93.5913 217.238 93.876 216.641C94.1653 216.039 94.5783 215.57 95.115 215.234C95.6517 214.898 96.298 214.73 97.054 214.73C97.852 214.73 98.538 214.926 99.112 215.318C99.6907 215.71 100.078 216.247 100.274 216.928L99.042 217.299C98.8833 216.86 98.6243 216.52 98.265 216.277C97.9103 216.034 97.502 215.913 97.04 215.913C96.522 215.913 96.095 216.034 95.759 216.277C95.423 216.515 95.1733 216.846 95.01 217.271C94.8467 217.691 94.7627 218.174 94.758 218.72C94.7673 219.56 94.961 220.239 95.339 220.757C95.7217 221.27 96.2887 221.527 97.04 221.527C97.5347 221.527 97.9453 221.415 98.272 221.191C98.5987 220.962 98.846 220.633 99.014 220.204L100.274 220.533C100.013 221.238 99.6043 221.777 99.049 222.15C98.4937 222.523 97.824 222.71 97.04 222.71ZM104.774 222.71C104.032 222.71 103.383 222.547 102.828 222.22C102.277 221.889 101.848 221.429 101.54 220.841C101.232 220.248 101.078 219.558 101.078 218.769C101.078 217.943 101.229 217.229 101.533 216.627C101.836 216.02 102.258 215.554 102.8 215.227C103.346 214.896 103.985 214.73 104.718 214.73C105.478 214.73 106.125 214.905 106.657 215.255C107.193 215.605 107.595 216.104 107.861 216.753C108.131 217.402 108.248 218.174 108.211 219.07H106.951V218.622C106.937 217.693 106.748 217 106.384 216.543C106.02 216.081 105.478 215.85 104.76 215.85C103.99 215.85 103.404 216.097 103.003 216.592C102.601 217.087 102.401 217.796 102.401 218.72C102.401 219.611 102.601 220.302 103.003 220.792C103.404 221.282 103.976 221.527 104.718 221.527C105.217 221.527 105.651 221.413 106.02 221.184C106.388 220.955 106.678 220.626 106.888 220.197L108.085 220.61C107.791 221.277 107.347 221.795 106.755 222.164C106.167 222.528 105.506 222.71 104.774 222.71ZM101.981 219.07V218.069H107.567V219.07H101.981Z" fill="#212528"/>
</g>
<g filter="url(#filter1_d_6427_153944)">
<rect x="61.1875" y="241" width="60" height="60" rx="7.875" fill="#EDEDFD"/>
<path d="M104.313 271C104.313 278.249 98.4362 284.125 91.1875 284.125C83.9388 284.125 78.0625 278.249 78.0625 271C78.0625 263.751 83.9388 257.875 91.1875 257.875C98.4362 257.875 104.313 263.751 104.313 271Z" fill="#696BEF"/>
<path d="M104.313 271C104.313 278.249 98.4362 284.125 91.1875 284.125C83.9388 284.125 78.0625 278.249 78.0625 271C78.0625 263.751 83.9388 257.875 91.1875 257.875C98.4362 257.875 104.313 263.751 104.313 271Z" fill="#696BEF"/>
<path d="M100.375 273.625C100.375 274.314 100.239 274.997 99.9754 275.634C99.7115 276.271 99.3248 276.85 98.8373 277.337C98.3498 277.825 97.771 278.212 97.1341 278.475C96.4971 278.739 95.8144 278.875 95.125 278.875L95.125 273.625H100.375Z" fill="white"/>
<path d="M94.8158 268.644L93.5459 259.312L87.25 264.438L91.1875 270.878H92.8651C94.0579 270.878 94.9767 269.826 94.8158 268.644Z" fill="#3A3BA6"/>
<path d="M93.2215 279.239L92.3667 282.635L91.1875 276.79H91.3123C92.5945 276.79 93.5345 277.996 93.2215 279.239Z" fill="#3A3BA6"/>
<path fill-rule="evenodd" clip-rule="evenodd" d="M91.1875 276.788C87.9256 276.788 85.2812 274.144 85.2812 270.882H92.3687C93.0211 270.882 93.55 270.358 93.55 269.705V259.306C92.7867 259.151 91.9966 259.069 91.1875 259.069C84.6636 259.069 79.375 264.358 79.375 270.882C79.375 277.406 84.6636 282.694 91.1875 282.694C91.5862 282.694 91.9802 282.675 92.3687 282.636V277.969C92.3687 277.317 91.8399 276.788 91.1875 276.788ZM91.1881 264.976C91.1881 265.629 90.6592 266.158 90.0068 266.158C89.3544 266.158 88.8256 265.629 88.8256 264.976C88.8256 264.324 89.3544 263.795 90.0068 263.795C90.6592 263.795 91.1881 264.324 91.1881 264.976Z" fill="white"/>
</g>
<g filter="url(#filter2_d_6427_153944)">
<rect x="165.281" y="77" width="60" height="60" rx="7.875" fill="#F9EAE5"/>
<path d="M182.156 100.625C182.156 99.0717 183.332 97.8125 184.781 97.8125H205.781C207.231 97.8125 208.406 99.0717 208.406 100.625V114.688C208.406 116.241 207.231 117.5 205.781 117.5H184.781C183.332 117.5 182.156 116.241 182.156 114.688V100.625Z" fill="#8C2E0E"/>
<path d="M182.156 99.3229C182.156 97.7649 183.246 96.502 184.59 96.502H205.973C207.317 96.502 208.406 97.7649 208.406 99.3229C208.406 100.391 207.885 101.368 207.061 101.846L196.455 107.993C195.716 108.422 194.846 108.422 194.107 107.993L183.501 101.846C182.677 101.368 182.156 100.391 182.156 99.3229Z" fill="#CC5229"/>
</g>
<g filter="url(#filter3_d_6427_153944)">
<rect x="145.281" y="145" width="100" height="32" rx="16" fill="#F9EAE5" shape-rendering="crispEdges"/>
<path d="M175.761 166.5V156.42H182.131V157.603H177.007V160.76H181.291V161.943H177.007V165.317H182.131V166.5H175.761ZM183.674 162.601V161.572H187.874V162.601H183.674ZM198.73 166.5L198.737 161.663C198.737 161.098 198.585 160.657 198.282 160.34C197.983 160.018 197.594 159.857 197.113 159.857C196.833 159.857 196.567 159.922 196.315 160.053C196.063 160.179 195.858 160.38 195.699 160.655C195.54 160.926 195.461 161.273 195.461 161.698L194.803 161.432C194.794 160.895 194.903 160.426 195.132 160.025C195.365 159.619 195.683 159.304 196.084 159.08C196.485 158.856 196.938 158.744 197.442 158.744C198.231 158.744 198.851 158.984 199.304 159.465C199.757 159.941 199.983 160.583 199.983 161.39L199.976 166.5H198.73ZM189.686 166.5V158.94H190.799V160.963H190.939V166.5H189.686ZM194.215 166.5L194.222 161.712C194.222 161.133 194.073 160.681 193.774 160.354C193.475 160.023 193.079 159.857 192.584 159.857C192.094 159.857 191.697 160.025 191.394 160.361C191.091 160.697 190.939 161.143 190.939 161.698L190.281 161.306C190.281 160.816 190.398 160.377 190.631 159.99C190.864 159.603 191.182 159.299 191.583 159.08C191.984 158.856 192.439 158.744 192.948 158.744C193.457 158.744 193.9 158.851 194.278 159.066C194.656 159.281 194.948 159.589 195.153 159.99C195.358 160.387 195.461 160.86 195.461 161.411L195.454 166.5H194.215ZM203.955 166.71C203.391 166.71 202.917 166.607 202.534 166.402C202.156 166.192 201.869 165.917 201.673 165.576C201.482 165.235 201.386 164.862 201.386 164.456C201.386 164.059 201.461 163.716 201.61 163.427C201.764 163.133 201.979 162.89 202.254 162.699C202.53 162.503 202.859 162.349 203.241 162.237C203.601 162.139 204.002 162.055 204.445 161.985C204.893 161.91 205.346 161.843 205.803 161.782C206.261 161.721 206.688 161.663 207.084 161.607L206.636 161.866C206.65 161.194 206.515 160.697 206.23 160.375C205.95 160.053 205.465 159.892 204.774 159.892C204.317 159.892 203.916 159.997 203.57 160.207C203.23 160.412 202.989 160.748 202.849 161.215L201.666 160.858C201.848 160.195 202.201 159.675 202.723 159.297C203.246 158.919 203.934 158.73 204.788 158.73C205.474 158.73 206.062 158.854 206.552 159.101C207.047 159.344 207.402 159.712 207.616 160.207C207.724 160.44 207.791 160.695 207.819 160.97C207.847 161.241 207.861 161.525 207.861 161.824V166.5H206.755V164.687L207.014 164.855C206.73 165.466 206.331 165.928 205.817 166.241C205.309 166.554 204.688 166.71 203.955 166.71ZM204.144 165.667C204.592 165.667 204.98 165.588 205.306 165.429C205.638 165.266 205.904 165.053 206.104 164.792C206.305 164.526 206.436 164.237 206.496 163.924C206.566 163.691 206.604 163.432 206.608 163.147C206.618 162.858 206.622 162.636 206.622 162.482L207.056 162.671C206.65 162.727 206.251 162.781 205.859 162.832C205.467 162.883 205.096 162.939 204.746 163C204.396 163.056 204.081 163.124 203.801 163.203C203.596 163.268 203.402 163.352 203.22 163.455C203.043 163.558 202.898 163.691 202.786 163.854C202.679 164.013 202.625 164.211 202.625 164.449C202.625 164.654 202.677 164.85 202.779 165.037C202.887 165.224 203.05 165.375 203.269 165.492C203.493 165.609 203.785 165.667 204.144 165.667ZM209.821 157.603V156.315H211.067V157.603H209.821ZM209.821 166.5V158.94H211.067V166.5H209.821ZM213.308 166.5V156.21H214.554V166.5H213.308Z" fill="#212528"/>
</g>
<g filter="url(#filter4_d_6427_153944)">
<rect x="249.688" y="201" width="100" height="32" rx="16" fill="#E8F7E8" shape-rendering="crispEdges"/>
<path d="M268.317 222.5L265.398 212.42H266.7L268.94 220.393L271.173 212.427L272.482 212.42L274.722 220.393L276.955 212.42H278.264L275.345 222.5H274.099L271.831 214.597L269.562 222.5H268.317ZM284.84 222.5V218.713C284.84 218.354 284.807 218.008 284.742 217.677C284.681 217.346 284.571 217.049 284.413 216.788C284.259 216.522 284.049 216.312 283.783 216.158C283.521 216.004 283.19 215.927 282.789 215.927C282.476 215.927 282.191 215.981 281.935 216.088C281.683 216.191 281.466 216.349 281.284 216.564C281.102 216.779 280.959 217.049 280.857 217.376C280.759 217.698 280.71 218.078 280.71 218.517L279.891 218.265C279.891 217.532 280.021 216.905 280.283 216.382C280.549 215.855 280.92 215.451 281.396 215.171C281.876 214.886 282.441 214.744 283.09 214.744C283.58 214.744 283.997 214.821 284.343 214.975C284.688 215.129 284.975 215.334 285.204 215.591C285.432 215.843 285.612 216.128 285.743 216.445C285.873 216.758 285.964 217.077 286.016 217.404C286.072 217.726 286.1 218.032 286.1 218.321V222.5H284.84ZM279.45 222.5V212.42H280.57V217.985H280.71V222.5H279.45ZM290.068 222.71C289.504 222.71 289.03 222.607 288.647 222.402C288.269 222.192 287.982 221.917 287.786 221.576C287.595 221.235 287.499 220.862 287.499 220.456C287.499 220.059 287.574 219.716 287.723 219.427C287.877 219.133 288.092 218.89 288.367 218.699C288.643 218.503 288.972 218.349 289.354 218.237C289.714 218.139 290.115 218.055 290.558 217.985C291.006 217.91 291.459 217.843 291.916 217.782C292.374 217.721 292.801 217.663 293.197 217.607L292.749 217.866C292.763 217.194 292.628 216.697 292.343 216.375C292.063 216.053 291.578 215.892 290.887 215.892C290.43 215.892 290.029 215.997 289.683 216.207C289.343 216.412 289.102 216.748 288.962 217.215L287.779 216.858C287.961 216.195 288.314 215.675 288.836 215.297C289.359 214.919 290.047 214.73 290.901 214.73C291.587 214.73 292.175 214.854 292.665 215.101C293.16 215.344 293.515 215.712 293.729 216.207C293.837 216.44 293.904 216.695 293.932 216.97C293.96 217.241 293.974 217.525 293.974 217.824V222.5H292.868V220.687L293.127 220.855C292.843 221.466 292.444 221.928 291.93 222.241C291.422 222.554 290.801 222.71 290.068 222.71ZM290.257 221.667C290.705 221.667 291.093 221.588 291.419 221.429C291.751 221.266 292.017 221.053 292.217 220.792C292.418 220.526 292.549 220.237 292.609 219.924C292.679 219.691 292.717 219.432 292.721 219.147C292.731 218.858 292.735 218.636 292.735 218.482L293.169 218.671C292.763 218.727 292.364 218.781 291.972 218.832C291.58 218.883 291.209 218.939 290.859 219C290.509 219.056 290.194 219.124 289.914 219.203C289.709 219.268 289.515 219.352 289.333 219.455C289.156 219.558 289.011 219.691 288.899 219.854C288.792 220.013 288.738 220.211 288.738 220.449C288.738 220.654 288.79 220.85 288.892 221.037C289 221.224 289.163 221.375 289.382 221.492C289.606 221.609 289.898 221.667 290.257 221.667ZM300.015 222.5C299.567 222.589 299.124 222.624 298.685 222.605C298.251 222.591 297.864 222.505 297.523 222.346C297.183 222.183 296.924 221.931 296.746 221.59C296.597 221.291 296.515 220.99 296.501 220.687C296.492 220.379 296.487 220.031 296.487 219.644V212.84H297.733V219.588C297.733 219.896 297.736 220.16 297.74 220.379C297.75 220.598 297.799 220.787 297.887 220.946C298.055 221.245 298.321 221.42 298.685 221.471C299.054 221.522 299.497 221.508 300.015 221.429V222.5ZM294.954 215.969V214.94H300.015V215.969H294.954ZM304.406 222.703C303.506 222.703 302.766 222.507 302.187 222.115C301.613 221.718 301.261 221.165 301.13 220.456L302.404 220.253C302.507 220.664 302.743 220.99 303.111 221.233C303.48 221.471 303.937 221.59 304.483 221.59C305.001 221.59 305.407 221.483 305.701 221.268C305.995 221.053 306.142 220.762 306.142 220.393C306.142 220.178 306.093 220.006 305.995 219.875C305.897 219.74 305.694 219.614 305.386 219.497C305.083 219.38 304.623 219.24 304.007 219.077C303.34 218.9 302.815 218.715 302.432 218.524C302.05 218.333 301.777 218.111 301.613 217.859C301.45 217.607 301.368 217.301 301.368 216.942C301.368 216.499 301.49 216.111 301.732 215.78C301.975 215.444 302.313 215.185 302.747 215.003C303.186 214.821 303.695 214.73 304.273 214.73C304.847 214.73 305.361 214.821 305.813 215.003C306.266 215.185 306.63 215.444 306.905 215.78C307.185 216.111 307.351 216.499 307.402 216.942L306.128 217.173C306.068 216.767 305.872 216.447 305.54 216.214C305.214 215.981 304.791 215.857 304.273 215.843C303.783 215.824 303.384 215.911 303.076 216.102C302.773 216.293 302.621 216.552 302.621 216.879C302.621 217.061 302.677 217.217 302.789 217.348C302.906 217.479 303.118 217.602 303.426 217.719C303.739 217.836 304.192 217.969 304.784 218.118C305.452 218.286 305.977 218.47 306.359 218.671C306.747 218.867 307.022 219.1 307.185 219.371C307.349 219.637 307.43 219.966 307.43 220.358C307.43 221.086 307.162 221.66 306.625 222.08C306.089 222.495 305.349 222.703 304.406 222.703ZM308.274 222.5L311.648 212.42H313.384L316.758 222.5H315.463L312.306 213.148H312.698L309.569 222.5H308.274ZM309.898 220.141V218.972H315.134V220.141H309.898ZM321.483 222.71C320.774 222.71 320.177 222.535 319.691 222.185C319.206 221.83 318.837 221.352 318.585 220.75C318.338 220.143 318.214 219.464 318.214 218.713C318.214 217.952 318.338 217.271 318.585 216.669C318.837 216.067 319.206 215.593 319.691 215.248C320.181 214.903 320.781 214.73 321.49 214.73C322.19 214.73 322.792 214.905 323.296 215.255C323.805 215.6 324.195 216.074 324.465 216.676C324.736 217.278 324.871 217.957 324.871 218.713C324.871 219.469 324.736 220.148 324.465 220.75C324.195 221.352 323.805 221.83 323.296 222.185C322.792 222.535 322.188 222.71 321.483 222.71ZM318.004 225.86V214.94H319.117V220.505H319.257V225.86H318.004ZM321.329 221.569C321.829 221.569 322.242 221.443 322.568 221.191C322.895 220.939 323.14 220.598 323.303 220.169C323.467 219.735 323.548 219.25 323.548 218.713C323.548 218.181 323.467 217.7 323.303 217.271C323.145 216.842 322.897 216.501 322.561 216.249C322.23 215.997 321.808 215.871 321.294 215.871C320.804 215.871 320.398 215.992 320.076 216.235C319.754 216.473 319.514 216.807 319.355 217.236C319.197 217.661 319.117 218.153 319.117 218.713C319.117 219.264 319.194 219.756 319.348 220.19C319.507 220.619 319.75 220.958 320.076 221.205C320.403 221.448 320.821 221.569 321.329 221.569ZM329.878 222.71C329.168 222.71 328.571 222.535 328.086 222.185C327.6 221.83 327.232 221.352 326.98 220.75C326.732 220.143 326.609 219.464 326.609 218.713C326.609 217.952 326.732 217.271 326.98 216.669C327.232 216.067 327.6 215.593 328.086 215.248C328.576 214.903 329.175 214.73 329.885 214.73C330.585 214.73 331.187 214.905 331.691 215.255C332.199 215.6 332.589 216.074 332.86 216.676C333.13 217.278 333.266 217.957 333.266 218.713C333.266 219.469 333.13 220.148 332.86 220.75C332.589 221.352 332.199 221.83 331.691 222.185C331.187 222.535 330.582 222.71 329.878 222.71ZM326.399 225.86V214.94H327.512V220.505H327.652V225.86H326.399ZM329.724 221.569C330.223 221.569 330.636 221.443 330.963 221.191C331.289 220.939 331.534 220.598 331.698 220.169C331.861 219.735 331.943 219.25 331.943 218.713C331.943 218.181 331.861 217.7 331.698 217.271C331.539 216.842 331.292 216.501 330.956 216.249C330.624 215.997 330.202 215.871 329.689 215.871C329.199 215.871 328.793 215.992 328.471 216.235C328.149 216.473 327.908 216.807 327.75 217.236C327.591 217.661 327.512 218.153 327.512 218.713C327.512 219.264 327.589 219.756 327.743 220.19C327.901 220.619 328.144 220.958 328.471 221.205C328.797 221.448 329.215 221.569 329.724 221.569Z" fill="#212528"/>
</g>
<g filter="url(#filter5_d_6427_153944)">
<rect x="269.688" y="241" width="60" height="60" rx="7.875" fill="#E8F7E8"/>
<path fill-rule="evenodd" clip-rule="evenodd" d="M296.529 265.716C296.292 265.19 296.044 265.18 295.819 265.17C295.635 265.163 295.424 265.163 295.214 265.163C295.003 265.163 294.662 265.242 294.372 265.558C294.083 265.874 293.268 266.637 293.268 268.19C293.268 269.743 294.399 271.243 294.556 271.454C294.714 271.665 296.74 274.953 299.948 276.218C302.614 277.27 303.156 277.06 303.735 277.008C304.314 276.955 305.603 276.245 305.865 275.508C306.129 274.771 306.129 274.139 306.05 274.007C305.971 273.875 305.76 273.797 305.445 273.639C305.129 273.481 303.577 272.717 303.288 272.612C302.999 272.507 302.788 272.454 302.578 272.77C302.367 273.086 301.763 273.797 301.579 274.007C301.395 274.218 301.211 274.244 300.895 274.086C300.579 273.928 299.563 273.595 298.357 272.52C297.418 271.683 296.785 270.65 296.601 270.334C296.417 270.019 296.581 269.848 296.739 269.691C296.881 269.549 297.055 269.322 297.213 269.138C297.37 268.953 297.423 268.822 297.528 268.611C297.633 268.401 297.581 268.216 297.502 268.059C297.423 267.901 296.81 266.34 296.529 265.716Z" fill="#29A653"/>
<path fill-rule="evenodd" clip-rule="evenodd" d="M289.976 280.857L291.052 276.973C289.877 275.278 289.188 273.219 289.188 271C289.188 265.201 293.889 260.5 299.688 260.5C305.487 260.5 310.188 265.201 310.188 271C310.188 276.799 305.487 281.5 299.688 281.5C297.577 281.5 295.611 280.877 293.965 279.805L289.976 280.857ZM293.582 282.62L286.226 284.561L288.215 277.379C287.163 275.489 286.563 273.312 286.563 271C286.563 263.751 292.439 257.875 299.688 257.875C306.937 257.875 312.813 263.751 312.813 271C312.813 278.249 306.937 284.125 299.688 284.125C297.487 284.125 295.408 283.581 293.582 282.62Z" fill="#29A653"/>
</g>
<g filter="url(#filter6_d_6427_153944)">
<rect x="374.094" y="77" width="60" height="60" rx="7.875" fill="#E2F0FF"/>
<path d="M390.969 99.126C390.969 96.9514 392.732 95.1885 394.906 95.1885H413.281C415.456 95.1885 417.219 96.9514 417.219 99.126V109.626C417.219 111.801 415.456 113.563 413.281 113.563H390.969V99.126Z" fill="#0D4680"/>
<path d="M390.969 99.126C390.969 96.9514 392.732 95.1885 394.906 95.1885H413.419C413.762 95.1885 414.104 95.2439 414.43 95.3525L390.969 118.813V99.126Z" fill="#66BDFF"/>
</g>
<g filter="url(#filter7_d_6427_153944)">
<rect x="354.094" y="145" width="100" height="32" rx="16" fill="#E2F0FF" shape-rendering="crispEdges"/>
<path d="M393.651 166.71C392.937 166.71 392.293 166.589 391.719 166.346C391.149 166.103 390.678 165.758 390.305 165.31C389.936 164.857 389.696 164.323 389.584 163.707L390.872 163.504C391.035 164.139 391.373 164.636 391.887 164.995C392.405 165.35 393.014 165.527 393.714 165.527C394.166 165.527 394.575 165.457 394.939 165.317C395.307 165.172 395.599 164.967 395.814 164.701C396.028 164.435 396.136 164.12 396.136 163.756C396.136 163.532 396.096 163.341 396.017 163.182C395.942 163.019 395.837 162.881 395.702 162.769C395.571 162.652 395.422 162.554 395.254 162.475C395.086 162.396 394.911 162.33 394.729 162.279L392.16 161.516C391.88 161.432 391.609 161.327 391.348 161.201C391.086 161.07 390.853 160.909 390.648 160.718C390.442 160.522 390.279 160.289 390.158 160.018C390.036 159.743 389.976 159.418 389.976 159.045C389.976 158.448 390.13 157.939 390.438 157.519C390.75 157.094 391.173 156.77 391.705 156.546C392.237 156.322 392.836 156.212 393.504 156.217C394.18 156.222 394.785 156.343 395.317 156.581C395.853 156.814 396.297 157.15 396.647 157.589C397.001 158.028 397.239 158.553 397.361 159.164L396.038 159.395C395.968 158.984 395.811 158.632 395.569 158.338C395.331 158.039 395.032 157.811 394.673 157.652C394.313 157.489 393.919 157.405 393.49 157.4C393.079 157.395 392.708 157.461 392.377 157.596C392.045 157.731 391.782 157.92 391.586 158.163C391.39 158.401 391.292 158.676 391.292 158.989C391.292 159.297 391.38 159.547 391.558 159.738C391.735 159.925 391.952 160.074 392.209 160.186C392.47 160.293 392.724 160.382 392.972 160.452L394.89 161.005C395.109 161.066 395.361 161.15 395.646 161.257C395.935 161.364 396.215 161.516 396.486 161.712C396.756 161.903 396.98 162.16 397.158 162.482C397.335 162.799 397.424 163.201 397.424 163.686C397.424 164.171 397.326 164.603 397.13 164.981C396.938 165.359 396.67 165.676 396.325 165.933C395.979 166.185 395.578 166.376 395.121 166.507C394.663 166.642 394.173 166.71 393.651 166.71ZM398.892 166.5V156.42H400.026L403.834 164.449L407.621 156.42H408.769V166.493H407.586V159.157L404.163 166.5H403.498L400.075 159.157V166.5H398.892ZM414.309 166.71C413.595 166.71 412.951 166.589 412.377 166.346C411.808 166.103 411.336 165.758 410.963 165.31C410.594 164.857 410.354 164.323 410.242 163.707L411.53 163.504C411.693 164.139 412.032 164.636 412.545 164.995C413.063 165.35 413.672 165.527 414.372 165.527C414.825 165.527 415.233 165.457 415.597 165.317C415.966 165.172 416.257 164.967 416.472 164.701C416.687 164.435 416.794 164.12 416.794 163.756C416.794 163.532 416.754 163.341 416.675 163.182C416.6 163.019 416.495 162.881 416.36 162.769C416.229 162.652 416.08 162.554 415.912 162.475C415.744 162.396 415.569 162.33 415.387 162.279L412.818 161.516C412.538 161.432 412.267 161.327 412.006 161.201C411.745 161.07 411.511 160.909 411.306 160.718C411.101 160.522 410.937 160.289 410.816 160.018C410.695 159.743 410.634 159.418 410.634 159.045C410.634 158.448 410.788 157.939 411.096 157.519C411.409 157.094 411.831 156.77 412.363 156.546C412.895 156.322 413.495 156.212 414.162 156.217C414.839 156.222 415.443 156.343 415.975 156.581C416.512 156.814 416.955 157.15 417.305 157.589C417.66 158.028 417.898 158.553 418.019 159.164L416.696 159.395C416.626 158.984 416.47 158.632 416.227 158.338C415.989 158.039 415.69 157.811 415.331 157.652C414.972 157.489 414.577 157.405 414.148 157.4C413.737 157.395 413.366 157.461 413.035 157.596C412.704 157.731 412.44 157.92 412.244 158.163C412.048 158.401 411.95 158.676 411.95 158.989C411.95 159.297 412.039 159.547 412.216 159.738C412.393 159.925 412.61 160.074 412.867 160.186C413.128 160.293 413.383 160.382 413.63 160.452L415.548 161.005C415.767 161.066 416.019 161.15 416.304 161.257C416.593 161.364 416.873 161.516 417.144 161.712C417.415 161.903 417.639 162.16 417.816 162.482C417.993 162.799 418.082 163.201 418.082 163.686C418.082 164.171 417.984 164.603 417.788 164.981C417.597 165.359 417.328 165.676 416.983 165.933C416.638 166.185 416.236 166.376 415.779 166.507C415.322 166.642 414.832 166.71 414.309 166.71Z" fill="#212528"/>
</g>
<g filter="url(#filter8_d_6427_153944)">
<rect x="458.5" y="201" width="100" height="32" rx="16" fill="#E8F7E8" shape-rendering="crispEdges"/>
<path d="M467.699 222.5V212.42H468.959L474.216 220.295V212.42H475.476V222.5H474.216L468.959 214.618V222.5H467.699ZM480.653 222.71C479.902 222.71 479.253 222.54 478.707 222.199C478.166 221.858 477.748 221.387 477.454 220.785C477.16 220.183 477.013 219.492 477.013 218.713C477.013 217.92 477.162 217.224 477.461 216.627C477.76 216.03 478.182 215.565 478.728 215.234C479.274 214.898 479.916 214.73 480.653 214.73C481.409 214.73 482.06 214.9 482.606 215.241C483.152 215.577 483.57 216.046 483.859 216.648C484.153 217.245 484.3 217.934 484.3 218.713C484.3 219.502 484.153 220.197 483.859 220.799C483.565 221.396 483.145 221.865 482.599 222.206C482.053 222.542 481.404 222.71 480.653 222.71ZM480.653 221.527C481.437 221.527 482.02 221.266 482.403 220.743C482.786 220.22 482.977 219.544 482.977 218.713C482.977 217.859 482.783 217.18 482.396 216.676C482.009 216.167 481.428 215.913 480.653 215.913C480.126 215.913 479.692 216.032 479.351 216.27C479.01 216.508 478.756 216.837 478.588 217.257C478.42 217.677 478.336 218.162 478.336 218.713C478.336 219.562 478.532 220.244 478.924 220.757C479.316 221.27 479.892 221.527 480.653 221.527ZM490.062 222.5C489.614 222.589 489.171 222.624 488.732 222.605C488.298 222.591 487.911 222.505 487.57 222.346C487.23 222.183 486.971 221.931 486.793 221.59C486.644 221.291 486.562 220.99 486.548 220.687C486.539 220.379 486.534 220.031 486.534 219.644V212.84H487.78V219.588C487.78 219.896 487.783 220.16 487.787 220.379C487.797 220.598 487.846 220.787 487.934 220.946C488.102 221.245 488.368 221.42 488.732 221.471C489.101 221.522 489.544 221.508 490.062 221.429V222.5ZM485.001 215.969V214.94H490.062V215.969H485.001ZM491.737 213.603V212.315H492.983V213.603H491.737ZM491.737 222.5V214.94H492.983V222.5H491.737ZM495.805 222.5V214.527C495.805 214.331 495.814 214.133 495.833 213.932C495.851 213.727 495.893 213.528 495.959 213.337C496.024 213.141 496.131 212.961 496.281 212.798C496.453 212.607 496.642 212.471 496.848 212.392C497.053 212.308 497.261 212.257 497.471 212.238C497.685 212.219 497.888 212.21 498.08 212.21H499.039V213.246H498.15C497.781 213.246 497.506 213.337 497.324 213.519C497.142 213.696 497.051 213.967 497.051 214.331V222.5H495.805ZM494.524 215.969V214.94H499.039V215.969H494.524ZM500.509 213.603V212.315H501.755V213.603H500.509ZM500.509 222.5V214.94H501.755V222.5H500.509ZM507.046 222.71C506.281 222.71 505.63 222.54 505.093 222.199C504.561 221.854 504.155 221.38 503.875 220.778C503.595 220.176 503.45 219.49 503.441 218.72C503.45 217.931 503.597 217.238 503.882 216.641C504.171 216.039 504.584 215.57 505.121 215.234C505.658 214.898 506.304 214.73 507.06 214.73C507.858 214.73 508.544 214.926 509.118 215.318C509.697 215.71 510.084 216.247 510.28 216.928L509.048 217.299C508.889 216.86 508.63 216.52 508.271 216.277C507.916 216.034 507.508 215.913 507.046 215.913C506.528 215.913 506.101 216.034 505.765 216.277C505.429 216.515 505.179 216.846 505.016 217.271C504.853 217.691 504.769 218.174 504.764 218.72C504.773 219.56 504.967 220.239 505.345 220.757C505.728 221.27 506.295 221.527 507.046 221.527C507.541 221.527 507.951 221.415 508.278 221.191C508.605 220.962 508.852 220.633 509.02 220.204L510.28 220.533C510.019 221.238 509.61 221.777 509.055 222.15C508.5 222.523 507.83 222.71 507.046 222.71ZM513.789 222.71C513.224 222.71 512.751 222.607 512.368 222.402C511.99 222.192 511.703 221.917 511.507 221.576C511.316 221.235 511.22 220.862 511.22 220.456C511.22 220.059 511.295 219.716 511.444 219.427C511.598 219.133 511.813 218.89 512.088 218.699C512.363 218.503 512.692 218.349 513.075 218.237C513.434 218.139 513.836 218.055 514.279 217.985C514.727 217.91 515.18 217.843 515.637 217.782C516.094 217.721 516.521 217.663 516.918 217.607L516.47 217.866C516.484 217.194 516.349 216.697 516.064 216.375C515.784 216.053 515.299 215.892 514.608 215.892C514.151 215.892 513.749 215.997 513.404 216.207C513.063 216.412 512.823 216.748 512.683 217.215L511.5 216.858C511.682 216.195 512.034 215.675 512.557 215.297C513.08 214.919 513.768 214.73 514.622 214.73C515.308 214.73 515.896 214.854 516.386 215.101C516.881 215.344 517.235 215.712 517.45 216.207C517.557 216.44 517.625 216.695 517.653 216.97C517.681 217.241 517.695 217.525 517.695 217.824V222.5H516.589V220.687L516.848 220.855C516.563 221.466 516.164 221.928 515.651 222.241C515.142 222.554 514.522 222.71 513.789 222.71ZM513.978 221.667C514.426 221.667 514.813 221.588 515.14 221.429C515.471 221.266 515.737 221.053 515.938 220.792C516.139 220.526 516.269 220.237 516.33 219.924C516.4 219.691 516.437 219.432 516.442 219.147C516.451 218.858 516.456 218.636 516.456 218.482L516.89 218.671C516.484 218.727 516.085 218.781 515.693 218.832C515.301 218.883 514.93 218.939 514.58 219C514.23 219.056 513.915 219.124 513.635 219.203C513.43 219.268 513.236 219.352 513.054 219.455C512.877 219.558 512.732 219.691 512.62 219.854C512.513 220.013 512.459 220.211 512.459 220.449C512.459 220.654 512.51 220.85 512.613 221.037C512.72 221.224 512.884 221.375 513.103 221.492C513.327 221.609 513.619 221.667 513.978 221.667ZM522.392 225.867C522.219 225.867 522.056 225.844 521.902 225.797C521.753 225.755 521.61 225.701 521.475 225.636L521.776 224.831C521.986 224.906 522.156 224.943 522.287 224.943C522.455 224.943 522.583 224.892 522.672 224.789C522.765 224.686 522.812 224.574 522.812 224.453C522.812 224.248 522.719 224.098 522.532 224.005C522.345 223.916 522.131 223.837 521.888 223.767L522.399 222.332L523.246 222.325L522.917 223.249C523.174 223.366 523.379 223.524 523.533 223.725C523.687 223.93 523.764 224.185 523.764 224.488C523.764 224.885 523.629 225.214 523.358 225.475C523.087 225.736 522.765 225.867 522.392 225.867ZM522.7 222.71C521.935 222.71 521.284 222.54 520.747 222.199C520.215 221.854 519.809 221.38 519.529 220.778C519.249 220.176 519.104 219.49 519.095 218.72C519.104 217.931 519.251 217.238 519.536 216.641C519.825 216.039 520.238 215.57 520.775 215.234C521.312 214.898 521.958 214.73 522.714 214.73C523.512 214.73 524.198 214.926 524.772 215.318C525.351 215.71 525.738 216.247 525.934 216.928L524.702 217.299C524.543 216.86 524.284 216.52 523.925 216.277C523.57 216.034 523.162 215.913 522.7 215.913C522.182 215.913 521.755 216.034 521.419 216.277C521.083 216.515 520.833 216.846 520.67 217.271C520.507 217.691 520.423 218.174 520.418 218.72C520.427 219.56 520.621 220.239 520.999 220.757C521.382 221.27 521.949 221.527 522.7 221.527C523.195 221.527 523.605 221.415 523.932 221.191C524.259 220.962 524.506 220.633 524.674 220.204L525.934 220.533C525.673 221.238 525.264 221.777 524.709 222.15C524.154 222.523 523.484 222.71 522.7 222.71ZM531.477 213.764C531.271 213.764 531.073 213.722 530.882 213.638C530.69 213.549 530.506 213.449 530.329 213.337C530.151 213.225 529.983 213.127 529.825 213.043C529.666 212.954 529.517 212.91 529.377 212.91C529.209 212.91 529.099 212.985 529.048 213.134C528.996 213.279 528.996 213.442 529.048 213.624H528.208C528.096 213.157 528.135 212.763 528.327 212.441C528.518 212.114 528.84 211.951 529.293 211.951C529.503 211.951 529.703 211.995 529.895 212.084C530.086 212.168 530.27 212.266 530.448 212.378C530.63 212.49 530.8 212.59 530.959 212.679C531.117 212.763 531.264 212.805 531.4 212.805C531.558 212.805 531.668 212.733 531.729 212.588C531.789 212.443 531.789 212.273 531.729 212.077H532.569C532.685 212.534 532.648 212.931 532.457 213.267C532.265 213.598 531.939 213.764 531.477 213.764ZM530.378 222.71C529.626 222.71 528.978 222.54 528.432 222.199C527.89 221.858 527.473 221.387 527.179 220.785C526.885 220.183 526.738 219.492 526.738 218.713C526.738 217.92 526.887 217.224 527.186 216.627C527.484 216.03 527.907 215.565 528.453 215.234C528.999 214.898 529.64 214.73 530.378 214.73C531.134 214.73 531.785 214.9 532.331 215.241C532.877 215.577 533.294 216.046 533.584 216.648C533.878 217.245 534.025 217.934 534.025 218.713C534.025 219.502 533.878 220.197 533.584 220.799C533.29 221.396 532.87 221.865 532.324 222.206C531.778 222.542 531.129 222.71 530.378 222.71ZM530.378 221.527C531.162 221.527 531.745 221.266 532.128 220.743C532.51 220.22 532.702 219.544 532.702 218.713C532.702 217.859 532.508 217.18 532.121 216.676C531.733 216.167 531.152 215.913 530.378 215.913C529.85 215.913 529.416 216.032 529.076 216.27C528.735 216.508 528.481 216.837 528.313 217.257C528.145 217.677 528.061 218.162 528.061 218.713C528.061 219.562 528.257 220.244 528.649 220.757C529.041 221.27 529.617 221.527 530.378 221.527ZM538.842 222.71C538.1 222.71 537.451 222.547 536.896 222.22C536.345 221.889 535.916 221.429 535.608 220.841C535.3 220.248 535.146 219.558 535.146 218.769C535.146 217.943 535.298 217.229 535.601 216.627C535.904 216.02 536.327 215.554 536.868 215.227C537.414 214.896 538.053 214.73 538.786 214.73C539.547 214.73 540.193 214.905 540.725 215.255C541.262 215.605 541.663 216.104 541.929 216.753C542.2 217.402 542.316 218.174 542.279 219.07H541.019V218.622C541.005 217.693 540.816 217 540.452 216.543C540.088 216.081 539.547 215.85 538.828 215.85C538.058 215.85 537.472 216.097 537.071 216.592C536.67 217.087 536.469 217.796 536.469 218.72C536.469 219.611 536.67 220.302 537.071 220.792C537.472 221.282 538.044 221.527 538.786 221.527C539.285 221.527 539.719 221.413 540.088 221.184C540.457 220.955 540.746 220.626 540.956 220.197L542.153 220.61C541.859 221.277 541.416 221.795 540.823 222.164C540.235 222.528 539.575 222.71 538.842 222.71ZM536.049 219.07V218.069H541.635V219.07H536.049ZM546.693 222.703C545.793 222.703 545.053 222.507 544.474 222.115C543.9 221.718 543.548 221.165 543.417 220.456L544.691 220.253C544.794 220.664 545.03 220.99 545.398 221.233C545.767 221.471 546.224 221.59 546.77 221.59C547.288 221.59 547.694 221.483 547.988 221.268C548.282 221.053 548.429 220.762 548.429 220.393C548.429 220.178 548.38 220.006 548.282 219.875C548.184 219.74 547.981 219.614 547.673 219.497C547.37 219.38 546.91 219.24 546.294 219.077C545.627 218.9 545.102 218.715 544.719 218.524C544.337 218.333 544.064 218.111 543.9 217.859C543.737 217.607 543.655 217.301 543.655 216.942C543.655 216.499 543.777 216.111 544.019 215.78C544.262 215.444 544.6 215.185 545.034 215.003C545.473 214.821 545.982 214.73 546.56 214.73C547.134 214.73 547.648 214.821 548.1 215.003C548.553 215.185 548.917 215.444 549.192 215.78C549.472 216.111 549.638 216.499 549.689 216.942L548.415 217.173C548.355 216.767 548.159 216.447 547.827 216.214C547.501 215.981 547.078 215.857 546.56 215.843C546.07 215.824 545.671 215.911 545.363 216.102C545.06 216.293 544.908 216.552 544.908 216.879C544.908 217.061 544.964 217.217 545.076 217.348C545.193 217.479 545.405 217.602 545.713 217.719C546.026 217.836 546.479 217.969 547.071 218.118C547.739 218.286 548.264 218.47 548.646 218.671C549.034 218.867 549.309 219.1 549.472 219.371C549.636 219.637 549.717 219.966 549.717 220.358C549.717 221.086 549.449 221.66 548.912 222.08C548.376 222.495 547.636 222.703 546.693 222.703Z" fill="#212528"/>
</g>
<g filter="url(#filter9_d_6427_153944)">
<rect x="478.5" y="241" width="60" height="60" rx="7.875" fill="#E8F7E8"/>
<path d="M502.699 260.277L500.823 258.4C497.673 260.802 495.599 264.503 495.415 268.703H498.04C498.237 265.225 500.022 262.18 502.699 260.277ZM518.961 268.703H521.586C521.389 264.503 519.316 260.802 516.179 258.4L514.315 260.277C516.966 262.18 518.764 265.225 518.961 268.703ZM516.376 269.359C516.376 265.33 514.223 261.957 510.469 261.064V260.172C510.469 259.083 509.59 258.203 508.501 258.203C507.411 258.203 506.532 259.083 506.532 260.172V261.064C502.765 261.957 500.626 265.317 500.626 269.359V275.922L498.001 278.547V279.859H519.001V278.547L516.376 275.922V269.359ZM508.501 283.797C508.684 283.797 508.855 283.784 509.026 283.744C509.879 283.561 510.574 282.983 510.916 282.196C511.047 281.881 511.113 281.539 511.113 281.172H505.863C505.876 282.616 507.044 283.797 508.501 283.797Z" fill="#29A653"/>
</g>
<g filter="url(#filter10_d_6427_153944)">
<rect x="174" y="325" width="219.767" height="47.3836" rx="23.6918" fill="white" shape-rendering="crispEdges"/>
<path d="M200.894 356.491C199.874 356.491 198.954 356.318 198.134 355.971C197.32 355.625 196.647 355.131 196.114 354.491C195.587 353.845 195.244 353.081 195.084 352.201L196.924 351.911C197.157 352.818 197.64 353.528 198.374 354.041C199.114 354.548 199.984 354.801 200.984 354.801C201.63 354.801 202.214 354.701 202.734 354.501C203.26 354.295 203.677 354.001 203.984 353.621C204.29 353.241 204.444 352.791 204.444 352.271C204.444 351.951 204.387 351.678 204.274 351.451C204.167 351.218 204.017 351.021 203.824 350.861C203.637 350.695 203.424 350.555 203.184 350.441C202.944 350.328 202.694 350.235 202.434 350.161L198.764 349.071C198.364 348.951 197.977 348.801 197.604 348.621C197.23 348.435 196.897 348.205 196.604 347.931C196.31 347.651 196.077 347.318 195.904 346.931C195.73 346.538 195.644 346.075 195.644 345.541C195.644 344.688 195.864 343.961 196.304 343.361C196.75 342.755 197.354 342.291 198.114 341.971C198.874 341.651 199.73 341.495 200.684 341.501C201.65 341.508 202.514 341.681 203.274 342.021C204.04 342.355 204.674 342.835 205.174 343.461C205.68 344.088 206.02 344.838 206.194 345.711L204.304 346.041C204.204 345.455 203.98 344.951 203.634 344.531C203.294 344.105 202.867 343.778 202.354 343.551C201.84 343.318 201.277 343.198 200.664 343.191C200.077 343.185 199.547 343.278 199.074 343.471C198.6 343.665 198.224 343.935 197.944 344.281C197.664 344.621 197.524 345.015 197.524 345.461C197.524 345.901 197.65 346.258 197.904 346.531C198.157 346.798 198.467 347.011 198.834 347.171C199.207 347.325 199.57 347.451 199.924 347.551L202.664 348.341C202.977 348.428 203.337 348.548 203.744 348.701C204.157 348.855 204.557 349.071 204.944 349.351C205.33 349.625 205.65 349.991 205.904 350.451C206.157 350.905 206.284 351.478 206.284 352.171C206.284 352.865 206.144 353.481 205.864 354.021C205.59 354.561 205.207 355.015 204.714 355.381C204.22 355.741 203.647 356.015 202.994 356.201C202.34 356.395 201.64 356.491 200.894 356.491ZM212.481 356.471C211.788 356.471 211.191 356.361 210.691 356.141C210.198 355.921 209.788 355.628 209.461 355.261C209.135 354.895 208.878 354.488 208.691 354.041C208.505 353.595 208.371 353.138 208.291 352.671C208.218 352.205 208.181 351.768 208.181 351.361V345.391H209.981V350.801C209.981 351.308 210.028 351.798 210.121 352.271C210.215 352.745 210.371 353.171 210.591 353.551C210.818 353.931 211.118 354.231 211.491 354.451C211.871 354.671 212.345 354.781 212.911 354.781C213.358 354.781 213.765 354.705 214.131 354.551C214.498 354.398 214.811 354.171 215.071 353.871C215.331 353.565 215.531 353.178 215.671 352.711C215.811 352.245 215.881 351.701 215.881 351.081L217.051 351.441C217.051 352.481 216.861 353.378 216.481 354.131C216.108 354.885 215.578 355.465 214.891 355.871C214.211 356.271 213.408 356.471 212.481 356.471ZM216.081 356.191V353.301H215.881V345.391H217.671V356.191H216.081ZM225.431 356.491C224.418 356.491 223.565 356.241 222.871 355.741C222.178 355.235 221.651 354.551 221.291 353.691C220.938 352.825 220.761 351.855 220.761 350.781C220.761 349.695 220.938 348.721 221.291 347.861C221.651 347.001 222.178 346.325 222.871 345.831C223.571 345.338 224.428 345.091 225.441 345.091C226.441 345.091 227.301 345.341 228.021 345.841C228.748 346.335 229.305 347.011 229.691 347.871C230.078 348.731 230.271 349.701 230.271 350.781C230.271 351.861 230.078 352.831 229.691 353.691C229.305 354.551 228.748 355.235 228.021 355.741C227.301 356.241 226.438 356.491 225.431 356.491ZM220.461 360.991V345.391H222.051V353.341H222.251V360.991H220.461ZM225.211 354.861C225.925 354.861 226.515 354.681 226.981 354.321C227.448 353.961 227.798 353.475 228.031 352.861C228.265 352.241 228.381 351.548 228.381 350.781C228.381 350.021 228.265 349.335 228.031 348.721C227.805 348.108 227.451 347.621 226.971 347.261C226.498 346.901 225.895 346.721 225.161 346.721C224.461 346.721 223.881 346.895 223.421 347.241C222.961 347.581 222.618 348.058 222.391 348.671C222.165 349.278 222.051 349.981 222.051 350.781C222.051 351.568 222.161 352.271 222.381 352.891C222.608 353.505 222.955 353.988 223.421 354.341C223.888 354.688 224.485 354.861 225.211 354.861ZM237.063 356.491C235.99 356.491 235.063 356.248 234.283 355.761C233.51 355.275 232.913 354.601 232.493 353.741C232.073 352.881 231.863 351.895 231.863 350.781C231.863 349.648 232.077 348.655 232.503 347.801C232.93 346.948 233.533 346.285 234.313 345.811C235.093 345.331 236.01 345.091 237.063 345.091C238.143 345.091 239.073 345.335 239.853 345.821C240.633 346.301 241.23 346.971 241.643 347.831C242.063 348.685 242.273 349.668 242.273 350.781C242.273 351.908 242.063 352.901 241.643 353.761C241.223 354.615 240.623 355.285 239.843 355.771C239.063 356.251 238.137 356.491 237.063 356.491ZM237.063 354.801C238.183 354.801 239.017 354.428 239.563 353.681C240.11 352.935 240.383 351.968 240.383 350.781C240.383 349.561 240.107 348.591 239.553 347.871C239 347.145 238.17 346.781 237.063 346.781C236.31 346.781 235.69 346.951 235.203 347.291C234.717 347.631 234.353 348.101 234.113 348.701C233.873 349.301 233.753 349.995 233.753 350.781C233.753 351.995 234.033 352.968 234.593 353.701C235.153 354.435 235.977 354.801 237.063 354.801ZM244.475 356.191V345.391H246.065V348.001L245.805 347.661C245.932 347.328 246.095 347.021 246.295 346.741C246.502 346.461 246.732 346.231 246.985 346.051C247.265 345.825 247.582 345.651 247.935 345.531C248.289 345.411 248.649 345.341 249.015 345.321C249.382 345.295 249.725 345.318 250.045 345.391V347.061C249.672 346.961 249.262 346.935 248.815 346.981C248.369 347.028 247.955 347.191 247.575 347.471C247.229 347.718 246.959 348.018 246.765 348.371C246.579 348.725 246.449 349.108 246.375 349.521C246.302 349.928 246.265 350.345 246.265 350.771V356.191H244.475ZM257.966 356.191C257.326 356.318 256.693 356.368 256.066 356.341C255.446 356.321 254.893 356.198 254.406 355.971C253.919 355.738 253.549 355.378 253.296 354.891C253.083 354.465 252.966 354.035 252.946 353.601C252.933 353.161 252.926 352.665 252.926 352.111V342.391H254.706V352.031C254.706 352.471 254.709 352.848 254.716 353.161C254.729 353.475 254.799 353.745 254.926 353.971C255.166 354.398 255.546 354.648 256.066 354.721C256.593 354.795 257.226 354.775 257.966 354.661V356.191ZM250.736 346.861V345.391H257.966V346.861H250.736ZM264.39 356.491C263.33 356.491 262.403 356.258 261.61 355.791C260.823 355.318 260.21 354.661 259.77 353.821C259.33 352.975 259.11 351.988 259.11 350.861C259.11 349.681 259.326 348.661 259.76 347.801C260.193 346.935 260.796 346.268 261.57 345.801C262.35 345.328 263.263 345.091 264.31 345.091C265.396 345.091 266.32 345.341 267.08 345.841C267.846 346.341 268.42 347.055 268.8 347.981C269.186 348.908 269.353 350.011 269.3 351.291H267.5V350.651C267.48 349.325 267.21 348.335 266.69 347.681C266.17 347.021 265.396 346.691 264.37 346.691C263.27 346.691 262.433 347.045 261.86 347.751C261.286 348.458 261 349.471 261 350.791C261 352.065 261.286 353.051 261.86 353.751C262.433 354.451 263.25 354.801 264.31 354.801C265.023 354.801 265.643 354.638 266.17 354.311C266.696 353.985 267.11 353.515 267.41 352.901L269.12 353.491C268.7 354.445 268.066 355.185 267.22 355.711C266.38 356.231 265.436 356.491 264.39 356.491ZM260.4 351.291V349.861H268.38V351.291H260.4ZM288.44 356.191L288.45 349.281C288.45 348.475 288.233 347.845 287.8 347.391C287.373 346.931 286.817 346.701 286.13 346.701C285.73 346.701 285.35 346.795 284.99 346.981C284.63 347.161 284.337 347.448 284.11 347.841C283.883 348.228 283.77 348.725 283.77 349.331L282.83 348.951C282.817 348.185 282.973 347.515 283.3 346.941C283.633 346.361 284.087 345.911 284.66 345.591C285.233 345.271 285.88 345.111 286.6 345.111C287.727 345.111 288.613 345.455 289.26 346.141C289.907 346.821 290.23 347.738 290.23 348.891L290.22 356.191H288.44ZM275.52 356.191V345.391H277.11V348.281H277.31V356.191H275.52ZM281.99 356.191L282 349.351C282 348.525 281.787 347.878 281.36 347.411C280.933 346.938 280.367 346.701 279.66 346.701C278.96 346.701 278.393 346.941 277.96 347.421C277.527 347.901 277.31 348.538 277.31 349.331L276.37 348.771C276.37 348.071 276.537 347.445 276.87 346.891C277.203 346.338 277.657 345.905 278.23 345.591C278.803 345.271 279.453 345.111 280.18 345.111C280.907 345.111 281.54 345.265 282.08 345.571C282.62 345.878 283.037 346.318 283.33 346.891C283.623 347.458 283.77 348.135 283.77 348.921L283.76 356.191H281.99ZM296.935 356.471C296.241 356.471 295.645 356.361 295.145 356.141C294.651 355.921 294.241 355.628 293.915 355.261C293.588 354.895 293.331 354.488 293.145 354.041C292.958 353.595 292.825 353.138 292.745 352.671C292.671 352.205 292.635 351.768 292.635 351.361V345.391H294.435V350.801C294.435 351.308 294.481 351.798 294.575 352.271C294.668 352.745 294.825 353.171 295.045 353.551C295.271 353.931 295.571 354.231 295.945 354.451C296.325 354.671 296.798 354.781 297.365 354.781C297.811 354.781 298.218 354.705 298.585 354.551C298.951 354.398 299.265 354.171 299.525 353.871C299.785 353.565 299.985 353.178 300.125 352.711C300.265 352.245 300.335 351.701 300.335 351.081L301.505 351.441C301.505 352.481 301.315 353.378 300.935 354.131C300.561 354.885 300.031 355.465 299.345 355.871C298.665 356.271 297.861 356.471 296.935 356.471ZM300.535 356.191V353.301H300.335V345.391H302.125V356.191H300.535ZM305.124 356.191V341.491H306.904V356.191H305.124ZM315.935 356.191C315.295 356.318 314.662 356.368 314.035 356.341C313.415 356.321 312.862 356.198 312.375 355.971C311.888 355.738 311.518 355.378 311.265 354.891C311.052 354.465 310.935 354.035 310.915 353.601C310.902 353.161 310.895 352.665 310.895 352.111V342.391H312.675V352.031C312.675 352.471 312.678 352.848 312.685 353.161C312.698 353.475 312.768 353.745 312.895 353.971C313.135 354.398 313.515 354.648 314.035 354.721C314.562 354.795 315.195 354.775 315.935 354.661V356.191ZM308.705 346.861V345.391H315.935V346.861H308.705ZM318.328 343.481V341.641H320.108V343.481H318.328ZM318.328 356.191V345.391H320.108V356.191H318.328ZM327.658 356.491C326.565 356.491 325.635 356.248 324.868 355.761C324.108 355.268 323.528 354.591 323.128 353.731C322.728 352.871 322.521 351.891 322.508 350.791C322.521 349.665 322.731 348.675 323.138 347.821C323.551 346.961 324.141 346.291 324.908 345.811C325.675 345.331 326.598 345.091 327.678 345.091C328.818 345.091 329.798 345.371 330.618 345.931C331.445 346.491 331.998 347.258 332.278 348.231L330.518 348.761C330.291 348.135 329.921 347.648 329.408 347.301C328.901 346.955 328.318 346.781 327.658 346.781C326.918 346.781 326.308 346.955 325.828 347.301C325.348 347.641 324.991 348.115 324.758 348.721C324.525 349.321 324.405 350.011 324.398 350.791C324.411 351.991 324.688 352.961 325.228 353.701C325.775 354.435 326.585 354.801 327.658 354.801C328.365 354.801 328.951 354.641 329.418 354.321C329.885 353.995 330.238 353.525 330.478 352.911L332.278 353.381C331.905 354.388 331.321 355.158 330.528 355.691C329.735 356.225 328.778 356.491 327.658 356.491ZM337.291 356.491C336.485 356.491 335.808 356.345 335.261 356.051C334.721 355.751 334.311 355.358 334.031 354.871C333.758 354.385 333.621 353.851 333.621 353.271C333.621 352.705 333.728 352.215 333.941 351.801C334.161 351.381 334.468 351.035 334.861 350.761C335.255 350.481 335.725 350.261 336.271 350.101C336.785 349.961 337.358 349.841 337.991 349.741C338.631 349.635 339.278 349.538 339.931 349.451C340.585 349.365 341.195 349.281 341.761 349.201L341.121 349.571C341.141 348.611 340.948 347.901 340.541 347.441C340.141 346.981 339.448 346.751 338.461 346.751C337.808 346.751 337.235 346.901 336.741 347.201C336.255 347.495 335.911 347.975 335.711 348.641L334.021 348.131C334.281 347.185 334.785 346.441 335.531 345.901C336.278 345.361 337.261 345.091 338.481 345.091C339.461 345.091 340.301 345.268 341.001 345.621C341.708 345.968 342.215 346.495 342.521 347.201C342.675 347.535 342.771 347.898 342.811 348.291C342.851 348.678 342.871 349.085 342.871 349.511V356.191H341.291V353.601L341.661 353.841C341.255 354.715 340.685 355.375 339.951 355.821C339.225 356.268 338.338 356.491 337.291 356.491ZM337.561 355.001C338.201 355.001 338.755 354.888 339.221 354.661C339.695 354.428 340.075 354.125 340.361 353.751C340.648 353.371 340.835 352.958 340.921 352.511C341.021 352.178 341.075 351.808 341.081 351.401C341.095 350.988 341.101 350.671 341.101 350.451L341.721 350.721C341.141 350.801 340.571 350.878 340.011 350.951C339.451 351.025 338.921 351.105 338.421 351.191C337.921 351.271 337.471 351.368 337.071 351.481C336.778 351.575 336.501 351.695 336.241 351.841C335.988 351.988 335.781 352.178 335.621 352.411C335.468 352.638 335.391 352.921 335.391 353.261C335.391 353.555 335.465 353.835 335.611 354.101C335.765 354.368 335.998 354.585 336.311 354.751C336.631 354.918 337.048 355.001 337.561 355.001ZM353.161 356.191V350.781C353.161 350.268 353.115 349.775 353.021 349.301C352.935 348.828 352.778 348.405 352.551 348.031C352.331 347.651 352.031 347.351 351.651 347.131C351.278 346.911 350.805 346.801 350.231 346.801C349.785 346.801 349.378 346.878 349.011 347.031C348.651 347.178 348.341 347.405 348.081 347.711C347.821 348.018 347.618 348.405 347.471 348.871C347.331 349.331 347.261 349.875 347.261 350.501L346.091 350.141C346.091 349.095 346.278 348.198 346.651 347.451C347.031 346.698 347.561 346.121 348.241 345.721C348.928 345.315 349.735 345.111 350.661 345.111C351.361 345.111 351.958 345.221 352.451 345.441C352.945 345.661 353.355 345.955 353.681 346.321C354.008 346.681 354.265 347.088 354.451 347.541C354.638 347.988 354.768 348.445 354.841 348.911C354.921 349.371 354.961 349.808 354.961 350.221V356.191H353.161ZM345.461 356.191V345.391H347.061V348.281H347.261V356.191H345.461ZM360.631 356.491C359.824 356.491 359.148 356.345 358.601 356.051C358.061 355.751 357.651 355.358 357.371 354.871C357.098 354.385 356.961 353.851 356.961 353.271C356.961 352.705 357.068 352.215 357.281 351.801C357.501 351.381 357.808 351.035 358.201 350.761C358.594 350.481 359.064 350.261 359.611 350.101C360.124 349.961 360.698 349.841 361.331 349.741C361.971 349.635 362.618 349.538 363.271 349.451C363.924 349.365 364.534 349.281 365.101 349.201L364.461 349.571C364.481 348.611 364.288 347.901 363.881 347.441C363.481 346.981 362.788 346.751 361.801 346.751C361.148 346.751 360.574 346.901 360.081 347.201C359.594 347.495 359.251 347.975 359.051 348.641L357.361 348.131C357.621 347.185 358.124 346.441 358.871 345.901C359.618 345.361 360.601 345.091 361.821 345.091C362.801 345.091 363.641 345.268 364.341 345.621C365.048 345.968 365.554 346.495 365.861 347.201C366.014 347.535 366.111 347.898 366.151 348.291C366.191 348.678 366.211 349.085 366.211 349.511V356.191H364.631V353.601L365.001 353.841C364.594 354.715 364.024 355.375 363.291 355.821C362.564 356.268 361.678 356.491 360.631 356.491ZM360.901 355.001C361.541 355.001 362.094 354.888 362.561 354.661C363.034 354.428 363.414 354.125 363.701 353.751C363.988 353.371 364.174 352.958 364.261 352.511C364.361 352.178 364.414 351.808 364.421 351.401C364.434 350.988 364.441 350.671 364.441 350.451L365.061 350.721C364.481 350.801 363.911 350.878 363.351 350.951C362.791 351.025 362.261 351.105 361.761 351.191C361.261 351.271 360.811 351.368 360.411 351.481C360.118 351.575 359.841 351.695 359.581 351.841C359.328 351.988 359.121 352.178 358.961 352.411C358.808 352.638 358.731 352.921 358.731 353.261C358.731 353.555 358.804 353.835 358.951 354.101C359.104 354.368 359.338 354.585 359.651 354.751C359.971 354.918 360.388 355.001 360.901 355.001ZM369.011 356.191V341.491H370.791V356.191H369.011Z" fill="#212528"/>
</g>
<defs>
<filter id="filter0_d_6427_153944" x="38.0375" y="201" width="106.3" height="38.3" filterUnits="userSpaceOnUse" color-interpolation-filters="sRGB">
<feFlood flood-opacity="0" result="BackgroundImageFix"/>
<feColorMatrix in="SourceAlpha" type="matrix" values="0 0 0 0 0 0 0 0 0 0 0 0 0 0 0 0 0 0 127 0" result="hardAlpha"/>
<feOffset dy="3.15"/>
<feGaussianBlur stdDeviation="1.575"/>
<feComposite in2="hardAlpha" operator="out"/>
<feColorMatrix type="matrix" values="0 0 0 0 0 0 0 0 0 0 0 0 0 0 0 0 0 0 0.25 0"/>
<feBlend mode="normal" in2="BackgroundImageFix" result="effect1_dropShadow_6427_153944"/>
<feBlend mode="normal" in="SourceGraphic" in2="effect1_dropShadow_6427_153944" result="shape"/>
</filter>
<filter id="filter1_d_6427_153944" x="58.0375" y="241" width="66.3" height="66.3" filterUnits="userSpaceOnUse" color-interpolation-filters="sRGB">
<feFlood flood-opacity="0" result="BackgroundImageFix"/>
<feColorMatrix in="SourceAlpha" type="matrix" values="0 0 0 0 0 0 0 0 0 0 0 0 0 0 0 0 0 0 127 0" result="hardAlpha"/>
<feOffset dy="3.15"/>
<feGaussianBlur stdDeviation="1.575"/>
<feComposite in2="hardAlpha" operator="out"/>
<feColorMatrix type="matrix" values="0 0 0 0 0 0 0 0 0 0 0 0 0 0 0 0 0 0 0.25 0"/>
<feBlend mode="normal" in2="BackgroundImageFix" result="effect1_dropShadow_6427_153944"/>
<feBlend mode="normal" in="SourceGraphic" in2="effect1_dropShadow_6427_153944" result="shape"/>
</filter>
<filter id="filter2_d_6427_153944" x="162.131" y="77" width="66.3" height="66.3" filterUnits="userSpaceOnUse" color-interpolation-filters="sRGB">
<feFlood flood-opacity="0" result="BackgroundImageFix"/>
<feColorMatrix in="SourceAlpha" type="matrix" values="0 0 0 0 0 0 0 0 0 0 0 0 0 0 0 0 0 0 127 0" result="hardAlpha"/>
<feOffset dy="3.15"/>
<feGaussianBlur stdDeviation="1.575"/>
<feComposite in2="hardAlpha" operator="out"/>
<feColorMatrix type="matrix" values="0 0 0 0 0 0 0 0 0 0 0 0 0 0 0 0 0 0 0.25 0"/>
<feBlend mode="normal" in2="BackgroundImageFix" result="effect1_dropShadow_6427_153944"/>
<feBlend mode="normal" in="SourceGraphic" in2="effect1_dropShadow_6427_153944" result="shape"/>
</filter>
<filter id="filter3_d_6427_153944" x="142.131" y="145" width="106.3" height="38.3" filterUnits="userSpaceOnUse" color-interpolation-filters="sRGB">
<feFlood flood-opacity="0" result="BackgroundImageFix"/>
<feColorMatrix in="SourceAlpha" type="matrix" values="0 0 0 0 0 0 0 0 0 0 0 0 0 0 0 0 0 0 127 0" result="hardAlpha"/>
<feOffset dy="3.15"/>
<feGaussianBlur stdDeviation="1.575"/>
<feComposite in2="hardAlpha" operator="out"/>
<feColorMatrix type="matrix" values="0 0 0 0 0 0 0 0 0 0 0 0 0 0 0 0 0 0 0.25 0"/>
<feBlend mode="normal" in2="BackgroundImageFix" result="effect1_dropShadow_6427_153944"/>
<feBlend mode="normal" in="SourceGraphic" in2="effect1_dropShadow_6427_153944" result="shape"/>
</filter>
<filter id="filter4_d_6427_153944" x="246.537" y="201" width="106.3" height="38.3" filterUnits="userSpaceOnUse" color-interpolation-filters="sRGB">
<feFlood flood-opacity="0" result="BackgroundImageFix"/>
<feColorMatrix in="SourceAlpha" type="matrix" values="0 0 0 0 0 0 0 0 0 0 0 0 0 0 0 0 0 0 127 0" result="hardAlpha"/>
<feOffset dy="3.15"/>
<feGaussianBlur stdDeviation="1.575"/>
<feComposite in2="hardAlpha" operator="out"/>
<feColorMatrix type="matrix" values="0 0 0 0 0 0 0 0 0 0 0 0 0 0 0 0 0 0 0.25 0"/>
<feBlend mode="normal" in2="BackgroundImageFix" result="effect1_dropShadow_6427_153944"/>
<feBlend mode="normal" in="SourceGraphic" in2="effect1_dropShadow_6427_153944" result="shape"/>
</filter>
<filter id="filter5_d_6427_153944" x="266.537" y="241" width="66.3" height="66.3" filterUnits="userSpaceOnUse" color-interpolation-filters="sRGB">
<feFlood flood-opacity="0" result="BackgroundImageFix"/>
<feColorMatrix in="SourceAlpha" type="matrix" values="0 0 0 0 0 0 0 0 0 0 0 0 0 0 0 0 0 0 127 0" result="hardAlpha"/>
<feOffset dy="3.15"/>
<feGaussianBlur stdDeviation="1.575"/>
<feComposite in2="hardAlpha" operator="out"/>
<feColorMatrix type="matrix" values="0 0 0 0 0 0 0 0 0 0 0 0 0 0 0 0 0 0 0.25 0"/>
<feBlend mode="normal" in2="BackgroundImageFix" result="effect1_dropShadow_6427_153944"/>
<feBlend mode="normal" in="SourceGraphic" in2="effect1_dropShadow_6427_153944" result="shape"/>
</filter>
<filter id="filter6_d_6427_153944" x="370.944" y="77" width="66.3" height="66.3" filterUnits="userSpaceOnUse" color-interpolation-filters="sRGB">
<feFlood flood-opacity="0" result="BackgroundImageFix"/>
<feColorMatrix in="SourceAlpha" type="matrix" values="0 0 0 0 0 0 0 0 0 0 0 0 0 0 0 0 0 0 127 0" result="hardAlpha"/>
<feOffset dy="3.15"/>
<feGaussianBlur stdDeviation="1.575"/>
<feComposite in2="hardAlpha" operator="out"/>
<feColorMatrix type="matrix" values="0 0 0 0 0 0 0 0 0 0 0 0 0 0 0 0 0 0 0.25 0"/>
<feBlend mode="normal" in2="BackgroundImageFix" result="effect1_dropShadow_6427_153944"/>
<feBlend mode="normal" in="SourceGraphic" in2="effect1_dropShadow_6427_153944" result="shape"/>
</filter>
<filter id="filter7_d_6427_153944" x="350.944" y="145" width="106.3" height="38.3" filterUnits="userSpaceOnUse" color-interpolation-filters="sRGB">
<feFlood flood-opacity="0" result="BackgroundImageFix"/>
<feColorMatrix in="SourceAlpha" type="matrix" values="0 0 0 0 0 0 0 0 0 0 0 0 0 0 0 0 0 0 127 0" result="hardAlpha"/>
<feOffset dy="3.15"/>
<feGaussianBlur stdDeviation="1.575"/>
<feComposite in2="hardAlpha" operator="out"/>
<feColorMatrix type="matrix" values="0 0 0 0 0 0 0 0 0 0 0 0 0 0 0 0 0 0 0.25 0"/>
<feBlend mode="normal" in2="BackgroundImageFix" result="effect1_dropShadow_6427_153944"/>
<feBlend mode="normal" in="SourceGraphic" in2="effect1_dropShadow_6427_153944" result="shape"/>
</filter>
<filter id="filter8_d_6427_153944" x="455.35" y="201" width="106.3" height="38.3" filterUnits="userSpaceOnUse" color-interpolation-filters="sRGB">
<feFlood flood-opacity="0" result="BackgroundImageFix"/>
<feColorMatrix in="SourceAlpha" type="matrix" values="0 0 0 0 0 0 0 0 0 0 0 0 0 0 0 0 0 0 127 0" result="hardAlpha"/>
<feOffset dy="3.15"/>
<feGaussianBlur stdDeviation="1.575"/>
<feComposite in2="hardAlpha" operator="out"/>
<feColorMatrix type="matrix" values="0 0 0 0 0 0 0 0 0 0 0 0 0 0 0 0 0 0 0.25 0"/>
<feBlend mode="normal" in2="BackgroundImageFix" result="effect1_dropShadow_6427_153944"/>
<feBlend mode="normal" in="SourceGraphic" in2="effect1_dropShadow_6427_153944" result="shape"/>
</filter>
<filter id="filter9_d_6427_153944" x="475.35" y="241" width="66.3" height="66.3" filterUnits="userSpaceOnUse" color-interpolation-filters="sRGB">
<feFlood flood-opacity="0" result="BackgroundImageFix"/>
<feColorMatrix in="SourceAlpha" type="matrix" values="0 0 0 0 0 0 0 0 0 0 0 0 0 0 0 0 0 0 127 0" result="hardAlpha"/>
<feOffset dy="3.15"/>
<feGaussianBlur stdDeviation="1.575"/>
<feComposite in2="hardAlpha" operator="out"/>
<feColorMatrix type="matrix" values="0 0 0 0 0 0 0 0 0 0 0 0 0 0 0 0 0 0 0.25 0"/>
<feBlend mode="normal" in2="BackgroundImageFix" result="effect1_dropShadow_6427_153944"/>
<feBlend mode="normal" in="SourceGraphic" in2="effect1_dropShadow_6427_153944" result="shape"/>
</filter>
<filter id="filter10_d_6427_153944" x="168.904" y="325" width="229.959" height="57.5756" filterUnits="userSpaceOnUse" color-interpolation-filters="sRGB">
<feFlood flood-opacity="0" result="BackgroundImageFix"/>
<feColorMatrix in="SourceAlpha" type="matrix" values="0 0 0 0 0 0 0 0 0 0 0 0 0 0 0 0 0 0 127 0" result="hardAlpha"/>
<feOffset dy="5.09591"/>
<feGaussianBlur stdDeviation="2.54796"/>
<feComposite in2="hardAlpha" operator="out"/>
<feColorMatrix type="matrix" values="0 0 0 0 0 0 0 0 0 0 0 0 0 0 0 0 0 0 0.25 0"/>
<feBlend mode="normal" in2="BackgroundImageFix" result="effect1_dropShadow_6427_153944"/>
<feBlend mode="normal" in="SourceGraphic" in2="effect1_dropShadow_6427_153944" result="shape"/>
</filter>
</defs>
</svg>
