<svg width="600" height="450" viewBox="0 0 600 450" fill="none" xmlns="http://www.w3.org/2000/svg">
<g clip-path="url(#clip0_4392_7234)">
<rect x="278.5" y="97.5" width="360" height="302" rx="7.5" stroke="#D5D9DC"/>
<path d="M65.728 240V222.12H68.848L75.544 231.216H74.056L80.608 222.12H83.728V240H80.44V225.84L81.712 226.152L74.92 235.2H74.536L67.912 226.152L68.992 225.84V240H65.728ZM86.8859 240V226.944H90.0299V240H86.8859ZM86.8859 225.48V222.12H90.0299V225.48H86.8859ZM97.9008 240.288C96.5088 240.288 95.2928 239.96 94.2528 239.304C93.2288 238.632 92.5248 237.728 92.1408 236.592L94.4928 235.464C94.8288 236.2 95.2928 236.776 95.8848 237.192C96.4928 237.608 97.1648 237.816 97.9008 237.816C98.4768 237.816 98.9328 237.688 99.2688 237.432C99.6048 237.176 99.7728 236.84 99.7728 236.424C99.7728 236.168 99.7008 235.96 99.5568 235.8C99.4288 235.624 99.2448 235.48 99.0048 235.368C98.7808 235.24 98.5328 235.136 98.2608 235.056L96.1248 234.456C95.0208 234.136 94.1808 233.648 93.6048 232.992C93.0448 232.336 92.7648 231.56 92.7648 230.664C92.7648 229.864 92.9648 229.168 93.3648 228.576C93.7808 227.968 94.3488 227.496 95.0688 227.16C95.8048 226.824 96.6448 226.656 97.5888 226.656C98.8208 226.656 99.9088 226.952 100.853 227.544C101.797 228.136 102.469 228.968 102.869 230.04L100.469 231.168C100.245 230.576 99.8688 230.104 99.3408 229.752C98.8128 229.4 98.2208 229.224 97.5648 229.224C97.0368 229.224 96.6208 229.344 96.3168 229.584C96.0128 229.824 95.8608 230.136 95.8608 230.52C95.8608 230.76 95.9248 230.968 96.0528 231.144C96.1808 231.32 96.3568 231.464 96.5808 231.576C96.8208 231.688 97.0928 231.792 97.3968 231.888L99.4848 232.512C100.557 232.832 101.381 233.312 101.957 233.952C102.549 234.592 102.845 235.376 102.845 236.304C102.845 237.088 102.637 237.784 102.221 238.392C101.805 238.984 101.229 239.448 100.493 239.784C99.7568 240.12 98.8928 240.288 97.9008 240.288ZM110.229 240.288C108.837 240.288 107.621 239.96 106.581 239.304C105.557 238.632 104.853 237.728 104.469 236.592L106.821 235.464C107.157 236.2 107.621 236.776 108.213 237.192C108.821 237.608 109.493 237.816 110.229 237.816C110.805 237.816 111.261 237.688 111.597 237.432C111.933 237.176 112.101 236.84 112.101 236.424C112.101 236.168 112.029 235.96 111.885 235.8C111.757 235.624 111.573 235.48 111.333 235.368C111.109 235.24 110.861 235.136 110.589 235.056L108.453 234.456C107.349 234.136 106.509 233.648 105.933 232.992C105.373 232.336 105.093 231.56 105.093 230.664C105.093 229.864 105.293 229.168 105.693 228.576C106.109 227.968 106.677 227.496 107.397 227.16C108.133 226.824 108.973 226.656 109.917 226.656C111.149 226.656 112.237 226.952 113.181 227.544C114.125 228.136 114.797 228.968 115.197 230.04L112.797 231.168C112.573 230.576 112.197 230.104 111.669 229.752C111.141 229.4 110.549 229.224 109.893 229.224C109.365 229.224 108.949 229.344 108.645 229.584C108.341 229.824 108.189 230.136 108.189 230.52C108.189 230.76 108.253 230.968 108.381 231.144C108.509 231.32 108.685 231.464 108.909 231.576C109.149 231.688 109.421 231.792 109.725 231.888L111.813 232.512C112.885 232.832 113.709 233.312 114.285 233.952C114.877 234.592 115.173 235.376 115.173 236.304C115.173 237.088 114.965 237.784 114.549 238.392C114.133 238.984 113.557 239.448 112.821 239.784C112.085 240.12 111.221 240.288 110.229 240.288ZM123.781 240.288C122.437 240.288 121.261 239.984 120.253 239.376C119.245 238.768 118.461 237.944 117.901 236.904C117.341 235.864 117.061 234.712 117.061 233.448C117.061 232.136 117.341 230.976 117.901 229.968C118.477 228.944 119.253 228.136 120.229 227.544C121.221 226.952 122.325 226.656 123.541 226.656C124.565 226.656 125.461 226.824 126.229 227.16C127.013 227.496 127.677 227.96 128.221 228.552C128.765 229.144 129.181 229.824 129.469 230.592C129.757 231.344 129.901 232.16 129.901 233.04C129.901 233.264 129.885 233.496 129.853 233.736C129.837 233.976 129.797 234.184 129.733 234.36H119.653V231.96H127.957L126.469 233.088C126.613 232.352 126.573 231.696 126.349 231.12C126.141 230.544 125.789 230.088 125.293 229.752C124.813 229.416 124.229 229.248 123.541 229.248C122.885 229.248 122.301 229.416 121.789 229.752C121.277 230.072 120.885 230.552 120.613 231.192C120.357 231.816 120.261 232.576 120.325 233.472C120.261 234.272 120.365 234.984 120.637 235.608C120.925 236.216 121.341 236.688 121.885 237.024C122.445 237.36 123.085 237.528 123.805 237.528C124.525 237.528 125.133 237.376 125.629 237.072C126.141 236.768 126.541 236.36 126.829 235.848L129.373 237.096C129.117 237.72 128.717 238.272 128.173 238.752C127.629 239.232 126.981 239.608 126.229 239.88C125.493 240.152 124.677 240.288 123.781 240.288ZM138.356 240.288C137.092 240.288 135.964 239.992 134.972 239.4C133.98 238.792 133.196 237.968 132.62 236.928C132.044 235.888 131.756 234.736 131.756 233.472C131.756 232.192 132.044 231.04 132.62 230.016C133.196 228.992 133.98 228.176 134.972 227.568C135.98 226.96 137.1 226.656 138.332 226.656C139.324 226.656 140.204 226.856 140.972 227.256C141.756 227.64 142.372 228.184 142.82 228.888L142.34 229.536V221.832H145.484V240H142.508V237.48L142.844 238.104C142.396 238.808 141.772 239.352 140.972 239.736C140.172 240.104 139.3 240.288 138.356 240.288ZM138.692 237.408C139.412 237.408 140.044 237.24 140.588 236.904C141.132 236.568 141.556 236.104 141.86 235.512C142.18 234.92 142.34 234.24 142.34 233.472C142.34 232.72 142.18 232.048 141.86 231.456C141.556 230.848 141.132 230.376 140.588 230.04C140.044 229.704 139.412 229.536 138.692 229.536C137.988 229.536 137.356 229.712 136.796 230.064C136.236 230.4 135.796 230.864 135.476 231.456C135.172 232.032 135.02 232.704 135.02 233.472C135.02 234.24 135.172 234.92 135.476 235.512C135.796 236.104 136.236 236.568 136.796 236.904C137.356 237.24 137.988 237.408 138.692 237.408ZM158.963 240.288C157.667 240.288 156.499 239.992 155.459 239.4C154.435 238.792 153.627 237.976 153.035 236.952C152.443 235.912 152.147 234.744 152.147 233.448C152.147 232.152 152.443 230.992 153.035 229.968C153.627 228.944 154.435 228.136 155.459 227.544C156.499 226.952 157.667 226.656 158.963 226.656C159.891 226.656 160.755 226.824 161.555 227.16C162.355 227.48 163.043 227.928 163.619 228.504C164.211 229.064 164.635 229.736 164.891 230.52L162.131 231.72C161.891 231.064 161.483 230.536 160.907 230.136C160.347 229.736 159.699 229.536 158.963 229.536C158.275 229.536 157.659 229.704 157.115 230.04C156.587 230.376 156.171 230.84 155.867 231.432C155.563 232.024 155.411 232.704 155.411 233.472C155.411 234.24 155.563 234.92 155.867 235.512C156.171 236.104 156.587 236.568 157.115 236.904C157.659 237.24 158.275 237.408 158.963 237.408C159.715 237.408 160.371 237.208 160.931 236.808C161.491 236.408 161.891 235.872 162.131 235.2L164.891 236.448C164.635 237.184 164.219 237.848 163.643 238.44C163.067 239.016 162.379 239.472 161.579 239.808C160.779 240.128 159.907 240.288 158.963 240.288ZM171.19 240.288C170.278 240.288 169.486 240.136 168.814 239.832C168.142 239.528 167.622 239.096 167.254 238.536C166.886 237.96 166.702 237.296 166.702 236.544C166.702 235.824 166.862 235.184 167.182 234.624C167.502 234.048 167.998 233.568 168.67 233.184C169.342 232.8 170.19 232.528 171.214 232.368L175.486 231.672V234.072L171.814 234.696C171.19 234.808 170.726 235.008 170.422 235.296C170.118 235.584 169.966 235.96 169.966 236.424C169.966 236.872 170.134 237.232 170.47 237.504C170.822 237.76 171.254 237.888 171.766 237.888C172.422 237.888 172.998 237.752 173.494 237.48C174.006 237.192 174.398 236.8 174.67 236.304C174.958 235.808 175.102 235.264 175.102 234.672V231.312C175.102 230.752 174.878 230.288 174.43 229.92C173.998 229.536 173.422 229.344 172.702 229.344C172.03 229.344 171.43 229.528 170.902 229.896C170.39 230.248 170.014 230.72 169.774 231.312L167.206 230.064C167.462 229.376 167.862 228.784 168.406 228.288C168.966 227.776 169.622 227.376 170.374 227.088C171.126 226.8 171.942 226.656 172.822 226.656C173.894 226.656 174.838 226.856 175.654 227.256C176.47 227.64 177.102 228.184 177.55 228.888C178.014 229.576 178.246 230.384 178.246 231.312V240H175.27V237.768L175.942 237.72C175.606 238.28 175.206 238.752 174.742 239.136C174.278 239.504 173.75 239.792 173.158 240C172.566 240.192 171.91 240.288 171.19 240.288ZM181.152 240V221.832H184.296V240H181.152ZM187.198 240V221.832H190.342V240H187.198ZM201.471 240.288C200.559 240.288 199.767 240.136 199.095 239.832C198.423 239.528 197.903 239.096 197.535 238.536C197.167 237.96 196.983 237.296 196.983 236.544C196.983 235.824 197.143 235.184 197.463 234.624C197.783 234.048 198.279 233.568 198.951 233.184C199.623 232.8 200.471 232.528 201.495 232.368L205.767 231.672V234.072L202.095 234.696C201.471 234.808 201.007 235.008 200.703 235.296C200.399 235.584 200.247 235.96 200.247 236.424C200.247 236.872 200.415 237.232 200.751 237.504C201.103 237.76 201.535 237.888 202.047 237.888C202.703 237.888 203.279 237.752 203.775 237.48C204.287 237.192 204.679 236.8 204.951 236.304C205.239 235.808 205.383 235.264 205.383 234.672V231.312C205.383 230.752 205.159 230.288 204.711 229.92C204.279 229.536 203.703 229.344 202.983 229.344C202.311 229.344 201.711 229.528 201.183 229.896C200.671 230.248 200.295 230.72 200.055 231.312L197.487 230.064C197.743 229.376 198.143 228.784 198.687 228.288C199.247 227.776 199.903 227.376 200.655 227.088C201.407 226.8 202.223 226.656 203.103 226.656C204.175 226.656 205.119 226.856 205.935 227.256C206.751 227.64 207.383 228.184 207.831 228.888C208.295 229.576 208.527 230.384 208.527 231.312V240H205.551V237.768L206.223 237.72C205.887 238.28 205.487 238.752 205.023 239.136C204.559 239.504 204.031 239.792 203.439 240C202.847 240.192 202.191 240.288 201.471 240.288ZM211.433 240V221.832H214.577V240H211.433ZM223.672 240.288C222.328 240.288 221.152 239.984 220.144 239.376C219.136 238.768 218.352 237.944 217.792 236.904C217.232 235.864 216.952 234.712 216.952 233.448C216.952 232.136 217.232 230.976 217.792 229.968C218.368 228.944 219.144 228.136 220.12 227.544C221.112 226.952 222.216 226.656 223.432 226.656C224.456 226.656 225.352 226.824 226.12 227.16C226.904 227.496 227.568 227.96 228.112 228.552C228.656 229.144 229.072 229.824 229.36 230.592C229.648 231.344 229.792 232.16 229.792 233.04C229.792 233.264 229.776 233.496 229.744 233.736C229.728 233.976 229.688 234.184 229.624 234.36H219.544V231.96H227.848L226.36 233.088C226.504 232.352 226.464 231.696 226.24 231.12C226.032 230.544 225.68 230.088 225.184 229.752C224.704 229.416 224.12 229.248 223.432 229.248C222.776 229.248 222.192 229.416 221.68 229.752C221.168 230.072 220.776 230.552 220.504 231.192C220.248 231.816 220.152 232.576 220.216 233.472C220.152 234.272 220.256 234.984 220.528 235.608C220.816 236.216 221.232 236.688 221.776 237.024C222.336 237.36 222.976 237.528 223.696 237.528C224.416 237.528 225.024 237.376 225.52 237.072C226.032 236.768 226.432 236.36 226.72 235.848L229.264 237.096C229.008 237.72 228.608 238.272 228.064 238.752C227.52 239.232 226.872 239.608 226.12 239.88C225.384 240.152 224.568 240.288 223.672 240.288ZM232.175 240V226.944H235.127V229.848L234.887 229.416C235.191 228.44 235.663 227.76 236.303 227.376C236.959 226.992 237.743 226.8 238.655 226.8H239.423V229.584H238.295C237.399 229.584 236.679 229.864 236.135 230.424C235.591 230.968 235.319 231.736 235.319 232.728V240H232.175ZM247.455 240.144C245.983 240.144 244.839 239.744 244.023 238.944C243.223 238.128 242.823 236.984 242.823 235.512V229.752H240.567V226.944H240.807C241.447 226.944 241.943 226.776 242.295 226.44C242.647 226.104 242.823 225.616 242.823 224.976V223.968H245.967V226.944H248.967V229.752H245.967V235.344C245.967 235.776 246.039 236.144 246.183 236.448C246.343 236.752 246.583 236.984 246.903 237.144C247.239 237.304 247.663 237.384 248.175 237.384C248.287 237.384 248.415 237.376 248.559 237.36C248.719 237.344 248.871 237.328 249.015 237.312V240C248.791 240.032 248.535 240.064 248.247 240.096C247.959 240.128 247.695 240.144 247.455 240.144ZM256.385 240.288C254.993 240.288 253.777 239.96 252.737 239.304C251.713 238.632 251.009 237.728 250.625 236.592L252.977 235.464C253.313 236.2 253.777 236.776 254.369 237.192C254.977 237.608 255.649 237.816 256.385 237.816C256.961 237.816 257.417 237.688 257.753 237.432C258.089 237.176 258.257 236.84 258.257 236.424C258.257 236.168 258.185 235.96 258.041 235.8C257.913 235.624 257.729 235.48 257.489 235.368C257.265 235.24 257.017 235.136 256.745 235.056L254.609 234.456C253.505 234.136 252.665 233.648 252.089 232.992C251.529 232.336 251.249 231.56 251.249 230.664C251.249 229.864 251.449 229.168 251.849 228.576C252.265 227.968 252.833 227.496 253.553 227.16C254.289 226.824 255.129 226.656 256.073 226.656C257.305 226.656 258.393 226.952 259.337 227.544C260.281 228.136 260.953 228.968 261.353 230.04L258.953 231.168C258.729 230.576 258.353 230.104 257.825 229.752C257.297 229.4 256.705 229.224 256.049 229.224C255.521 229.224 255.105 229.344 254.801 229.584C254.497 229.824 254.345 230.136 254.345 230.52C254.345 230.76 254.409 230.968 254.537 231.144C254.665 231.32 254.841 231.464 255.065 231.576C255.305 231.688 255.577 231.792 255.881 231.888L257.969 232.512C259.041 232.832 259.865 233.312 260.441 233.952C261.033 234.592 261.329 235.376 261.329 236.304C261.329 237.088 261.121 237.784 260.705 238.392C260.289 238.984 259.713 239.448 258.977 239.784C258.241 240.12 257.377 240.288 256.385 240.288ZM69.424 270.288C68.512 270.288 67.72 270.136 67.048 269.832C66.376 269.528 65.856 269.096 65.488 268.536C65.12 267.96 64.936 267.296 64.936 266.544C64.936 265.824 65.096 265.184 65.416 264.624C65.736 264.048 66.232 263.568 66.904 263.184C67.576 262.8 68.424 262.528 69.448 262.368L73.72 261.672V264.072L70.048 264.696C69.424 264.808 68.96 265.008 68.656 265.296C68.352 265.584 68.2 265.96 68.2 266.424C68.2 266.872 68.368 267.232 68.704 267.504C69.056 267.76 69.488 267.888 70 267.888C70.656 267.888 71.232 267.752 71.728 267.48C72.24 267.192 72.632 266.8 72.904 266.304C73.192 265.808 73.336 265.264 73.336 264.672V261.312C73.336 260.752 73.112 260.288 72.664 259.92C72.232 259.536 71.656 259.344 70.936 259.344C70.264 259.344 69.664 259.528 69.136 259.896C68.624 260.248 68.248 260.72 68.008 261.312L65.44 260.064C65.696 259.376 66.096 258.784 66.64 258.288C67.2 257.776 67.856 257.376 68.608 257.088C69.36 256.8 70.176 256.656 71.056 256.656C72.128 256.656 73.072 256.856 73.888 257.256C74.704 257.64 75.336 258.184 75.784 258.888C76.248 259.576 76.48 260.384 76.48 261.312V270H73.504V267.768L74.176 267.72C73.84 268.28 73.44 268.752 72.976 269.136C72.512 269.504 71.984 269.792 71.392 270C70.8 270.192 70.144 270.288 69.424 270.288ZM79.3859 270V256.944H82.3379V259.512L82.0979 259.056C82.4019 258.272 82.8979 257.68 83.5859 257.28C84.2899 256.864 85.1059 256.656 86.0339 256.656C86.9939 256.656 87.8419 256.864 88.5779 257.28C89.3299 257.696 89.9139 258.28 90.3299 259.032C90.7459 259.768 90.9539 260.624 90.9539 261.6V270H87.8099V262.344C87.8099 261.768 87.6979 261.272 87.4739 260.856C87.2499 260.44 86.9379 260.12 86.5379 259.896C86.1539 259.656 85.6979 259.536 85.1699 259.536C84.6579 259.536 84.2019 259.656 83.8019 259.896C83.4019 260.12 83.0899 260.44 82.8659 260.856C82.6419 261.272 82.5299 261.768 82.5299 262.344V270H79.3859ZM99.6844 270.288C98.4204 270.288 97.2924 269.992 96.3004 269.4C95.3084 268.792 94.5244 267.968 93.9484 266.928C93.3724 265.888 93.0844 264.736 93.0844 263.472C93.0844 262.192 93.3724 261.04 93.9484 260.016C94.5244 258.992 95.3084 258.176 96.3004 257.568C97.3084 256.96 98.4284 256.656 99.6604 256.656C100.652 256.656 101.532 256.856 102.3 257.256C103.084 257.64 103.7 258.184 104.148 258.888L103.668 259.536V251.832H106.812V270H103.836V267.48L104.172 268.104C103.724 268.808 103.1 269.352 102.3 269.736C101.5 270.104 100.628 270.288 99.6844 270.288ZM100.02 267.408C100.74 267.408 101.372 267.24 101.916 266.904C102.46 266.568 102.884 266.104 103.188 265.512C103.508 264.92 103.668 264.24 103.668 263.472C103.668 262.72 103.508 262.048 103.188 261.456C102.884 260.848 102.46 260.376 101.916 260.04C101.372 259.704 100.74 259.536 100.02 259.536C99.3164 259.536 98.6844 259.712 98.1244 260.064C97.5644 260.4 97.1244 260.864 96.8044 261.456C96.5004 262.032 96.3484 262.704 96.3484 263.472C96.3484 264.24 96.5004 264.92 96.8044 265.512C97.1244 266.104 97.5644 266.568 98.1244 266.904C98.6844 267.24 99.3164 267.408 100.02 267.408ZM114.003 270V256.944H116.955V259.512L116.715 259.056C117.019 258.272 117.515 257.68 118.203 257.28C118.907 256.864 119.723 256.656 120.651 256.656C121.611 256.656 122.459 256.864 123.195 257.28C123.947 257.696 124.531 258.28 124.947 259.032C125.363 259.768 125.571 260.624 125.571 261.6V270H122.427V262.344C122.427 261.768 122.315 261.272 122.091 260.856C121.867 260.44 121.555 260.12 121.155 259.896C120.771 259.656 120.315 259.536 119.787 259.536C119.275 259.536 118.819 259.656 118.419 259.896C118.019 260.12 117.707 260.44 117.483 260.856C117.259 261.272 117.147 261.768 117.147 262.344V270H114.003ZM134.614 270.288C133.334 270.288 132.166 269.992 131.11 269.4C130.07 268.808 129.238 268 128.614 266.976C128.006 265.952 127.702 264.784 127.702 263.472C127.702 262.16 128.006 260.992 128.614 259.968C129.238 258.944 130.07 258.136 131.11 257.544C132.15 256.952 133.318 256.656 134.614 256.656C135.894 256.656 137.054 256.952 138.094 257.544C139.134 258.136 139.958 258.944 140.566 259.968C141.19 260.976 141.502 262.144 141.502 263.472C141.502 264.784 141.19 265.952 140.566 266.976C139.942 268 139.11 268.808 138.07 269.4C137.03 269.992 135.878 270.288 134.614 270.288ZM134.614 267.408C135.318 267.408 135.934 267.24 136.462 266.904C137.006 266.568 137.43 266.104 137.734 265.512C138.054 264.904 138.214 264.224 138.214 263.472C138.214 262.704 138.054 262.032 137.734 261.456C137.43 260.864 137.006 260.4 136.462 260.064C135.934 259.712 135.318 259.536 134.614 259.536C133.894 259.536 133.262 259.712 132.718 260.064C132.174 260.4 131.742 260.864 131.422 261.456C131.118 262.032 130.966 262.704 130.966 263.472C130.966 264.224 131.118 264.904 131.422 265.512C131.742 266.104 132.174 266.568 132.718 266.904C133.262 267.24 133.894 267.408 134.614 267.408ZM149.604 270.144C148.132 270.144 146.988 269.744 146.172 268.944C145.372 268.128 144.972 266.984 144.972 265.512V259.752H142.716V256.944H142.956C143.596 256.944 144.092 256.776 144.444 256.44C144.796 256.104 144.972 255.616 144.972 254.976V253.968H148.116V256.944H151.116V259.752H148.116V265.344C148.116 265.776 148.188 266.144 148.332 266.448C148.492 266.752 148.732 266.984 149.052 267.144C149.388 267.304 149.812 267.384 150.324 267.384C150.436 267.384 150.564 267.376 150.708 267.36C150.868 267.344 151.02 267.328 151.164 267.312V270C150.94 270.032 150.684 270.064 150.396 270.096C150.108 270.128 149.844 270.144 149.604 270.144ZM153.566 270V256.944H156.71V270H153.566ZM153.566 255.48V252.12H156.71V255.48H153.566ZM161.124 270V259.752H158.82V256.944H161.124V256.512C161.124 255.52 161.324 254.68 161.724 253.992C162.14 253.288 162.716 252.752 163.452 252.384C164.188 252.016 165.06 251.832 166.068 251.832C166.26 251.832 166.468 251.848 166.692 251.88C166.932 251.896 167.132 251.92 167.292 251.952V254.664C167.132 254.632 166.98 254.616 166.836 254.616C166.708 254.6 166.588 254.592 166.476 254.592C165.772 254.592 165.228 254.752 164.844 255.072C164.46 255.376 164.268 255.856 164.268 256.512V256.944H169.98V259.752H164.268V270H161.124ZM168.804 270V256.944H171.972V270H168.804ZM180.877 270.288C179.581 270.288 178.413 269.992 177.373 269.4C176.349 268.792 175.541 267.976 174.949 266.952C174.357 265.912 174.061 264.744 174.061 263.448C174.061 262.152 174.357 260.992 174.949 259.968C175.541 258.944 176.349 258.136 177.373 257.544C178.413 256.952 179.581 256.656 180.877 256.656C181.805 256.656 182.669 256.824 183.469 257.16C184.269 257.48 184.957 257.928 185.533 258.504C186.125 259.064 186.549 259.736 186.805 260.52L184.045 261.72C183.805 261.064 183.397 260.536 182.821 260.136C182.261 259.736 181.613 259.536 180.877 259.536C180.189 259.536 179.573 259.704 179.029 260.04C178.501 260.376 178.085 260.84 177.781 261.432C177.477 262.024 177.325 262.704 177.325 263.472C177.325 264.24 177.477 264.92 177.781 265.512C178.085 266.104 178.501 266.568 179.029 266.904C179.573 267.24 180.189 267.408 180.877 267.408C181.629 267.408 182.285 267.208 182.845 266.808C183.405 266.408 183.805 265.872 184.045 265.2L186.805 266.448C186.549 267.184 186.133 267.848 185.557 268.44C184.981 269.016 184.293 269.472 183.493 269.808C182.693 270.128 181.821 270.288 180.877 270.288ZM193.104 270.288C192.192 270.288 191.4 270.136 190.728 269.832C190.056 269.528 189.536 269.096 189.168 268.536C188.8 267.96 188.616 267.296 188.616 266.544C188.616 265.824 188.776 265.184 189.096 264.624C189.416 264.048 189.912 263.568 190.584 263.184C191.256 262.8 192.104 262.528 193.128 262.368L197.4 261.672V264.072L193.728 264.696C193.104 264.808 192.64 265.008 192.336 265.296C192.032 265.584 191.88 265.96 191.88 266.424C191.88 266.872 192.048 267.232 192.384 267.504C192.736 267.76 193.168 267.888 193.68 267.888C194.336 267.888 194.912 267.752 195.408 267.48C195.92 267.192 196.312 266.8 196.584 266.304C196.872 265.808 197.016 265.264 197.016 264.672V261.312C197.016 260.752 196.792 260.288 196.344 259.92C195.912 259.536 195.336 259.344 194.616 259.344C193.944 259.344 193.344 259.528 192.816 259.896C192.304 260.248 191.928 260.72 191.688 261.312L189.12 260.064C189.376 259.376 189.776 258.784 190.32 258.288C190.88 257.776 191.536 257.376 192.288 257.088C193.04 256.8 193.856 256.656 194.736 256.656C195.808 256.656 196.752 256.856 197.568 257.256C198.384 257.64 199.016 258.184 199.464 258.888C199.928 259.576 200.16 260.384 200.16 261.312V270H197.184V267.768L197.856 267.72C197.52 268.28 197.12 268.752 196.656 269.136C196.192 269.504 195.664 269.792 195.072 270C194.48 270.192 193.824 270.288 193.104 270.288ZM208.783 270.144C207.311 270.144 206.167 269.744 205.351 268.944C204.551 268.128 204.151 266.984 204.151 265.512V259.752H201.895V256.944H202.135C202.775 256.944 203.271 256.776 203.623 256.44C203.975 256.104 204.151 255.616 204.151 254.976V253.968H207.295V256.944H210.295V259.752H207.295V265.344C207.295 265.776 207.367 266.144 207.511 266.448C207.671 266.752 207.911 266.984 208.231 267.144C208.567 267.304 208.991 267.384 209.503 267.384C209.615 267.384 209.743 267.376 209.887 267.36C210.047 267.344 210.199 267.328 210.343 267.312V270C210.119 270.032 209.863 270.064 209.575 270.096C209.287 270.128 209.023 270.144 208.783 270.144ZM212.745 270V256.944H215.889V270H212.745ZM212.745 255.48V252.12H215.889V255.48H212.745ZM225.176 270.288C223.896 270.288 222.728 269.992 221.672 269.4C220.632 268.808 219.8 268 219.176 266.976C218.568 265.952 218.264 264.784 218.264 263.472C218.264 262.16 218.568 260.992 219.176 259.968C219.8 258.944 220.632 258.136 221.672 257.544C222.712 256.952 223.88 256.656 225.176 256.656C226.456 256.656 227.616 256.952 228.656 257.544C229.696 258.136 230.52 258.944 231.128 259.968C231.752 260.976 232.064 262.144 232.064 263.472C232.064 264.784 231.752 265.952 231.128 266.976C230.504 268 229.672 268.808 228.632 269.4C227.592 269.992 226.44 270.288 225.176 270.288ZM225.176 267.408C225.88 267.408 226.496 267.24 227.024 266.904C227.568 266.568 227.992 266.104 228.296 265.512C228.616 264.904 228.776 264.224 228.776 263.472C228.776 262.704 228.616 262.032 228.296 261.456C227.992 260.864 227.568 260.4 227.024 260.064C226.496 259.712 225.88 259.536 225.176 259.536C224.456 259.536 223.824 259.712 223.28 260.064C222.736 260.4 222.304 260.864 221.984 261.456C221.68 262.032 221.528 262.704 221.528 263.472C221.528 264.224 221.68 264.904 221.984 265.512C222.304 266.104 222.736 266.568 223.28 266.904C223.824 267.24 224.456 267.408 225.176 267.408ZM234.448 270V256.944H237.4V259.512L237.16 259.056C237.464 258.272 237.96 257.68 238.648 257.28C239.352 256.864 240.168 256.656 241.096 256.656C242.056 256.656 242.904 256.864 243.64 257.28C244.392 257.696 244.976 258.28 245.392 259.032C245.808 259.768 246.016 260.624 246.016 261.6V270H242.872V262.344C242.872 261.768 242.76 261.272 242.536 260.856C242.312 260.44 242 260.12 241.6 259.896C241.216 259.656 240.76 259.536 240.232 259.536C239.72 259.536 239.264 259.656 238.864 259.896C238.464 260.12 238.152 260.44 237.928 260.856C237.704 261.272 237.592 261.768 237.592 262.344V270H234.448ZM253.643 270.288C252.251 270.288 251.035 269.96 249.995 269.304C248.971 268.632 248.267 267.728 247.883 266.592L250.235 265.464C250.571 266.2 251.035 266.776 251.627 267.192C252.235 267.608 252.907 267.816 253.643 267.816C254.219 267.816 254.675 267.688 255.011 267.432C255.347 267.176 255.515 266.84 255.515 266.424C255.515 266.168 255.443 265.96 255.299 265.8C255.171 265.624 254.987 265.48 254.747 265.368C254.523 265.24 254.275 265.136 254.003 265.056L251.867 264.456C250.763 264.136 249.923 263.648 249.347 262.992C248.787 262.336 248.507 261.56 248.507 260.664C248.507 259.864 248.707 259.168 249.107 258.576C249.523 257.968 250.091 257.496 250.811 257.16C251.547 256.824 252.387 256.656 253.331 256.656C254.563 256.656 255.651 256.952 256.595 257.544C257.539 258.136 258.211 258.968 258.611 260.04L256.211 261.168C255.987 260.576 255.611 260.104 255.083 259.752C254.555 259.4 253.963 259.224 253.307 259.224C252.779 259.224 252.363 259.344 252.059 259.584C251.755 259.824 251.603 260.136 251.603 260.52C251.603 260.76 251.667 260.968 251.795 261.144C251.923 261.32 252.099 261.464 252.323 261.576C252.563 261.688 252.835 261.792 253.139 261.888L255.227 262.512C256.299 262.832 257.123 263.312 257.699 263.952C258.291 264.592 258.587 265.376 258.587 266.304C258.587 267.088 258.379 267.784 257.963 268.392C257.547 268.984 256.971 269.448 256.235 269.784C255.499 270.12 254.635 270.288 253.643 270.288Z" fill="#24B3B3"/>
<path d="M84 211.25C85.8333 211.25 87.3333 209.75 87.3333 207.917H80.6666C80.6666 209.75 82.1666 211.25 84 211.25ZM94 201.25V192.917C94 187.8 91.2833 183.517 86.5 182.383V181.25C86.5 179.867 85.3833 178.75 84 178.75C82.6166 178.75 81.5 179.867 81.5 181.25V182.383C76.7333 183.517 74 187.783 74 192.917V201.25L70.6666 204.583V206.25H97.3333V204.583L94 201.25ZM90.6666 202.917H77.3333V192.917C77.3333 188.783 79.85 185.417 84 185.417C88.15 185.417 90.6666 188.783 90.6666 192.917V202.917ZM76.6333 181.383L74.25 179C70.25 182.05 67.6166 186.75 67.3833 192.083H70.7166C70.9666 187.667 73.2333 183.8 76.6333 181.383ZM97.2833 192.083H100.617C100.367 186.75 97.7333 182.05 93.75 179L91.3833 181.383C94.75 183.8 97.0333 187.667 97.2833 192.083Z" fill="#24B3B3"/>
<line x1="421.5" y1="400" x2="421.5" y2="97" stroke="#D5D9DC"/>
<rect x="294" y="113" width="120" height="30" rx="4" fill="#7B7F82" fill-opacity="0.1"/>
<rect x="294" y="151" width="120" height="30" rx="4" fill="#7B7F82" fill-opacity="0.1"/>
<path d="M310 172.5C310.733 172.5 311.333 171.9 311.333 171.167H308.667C308.667 171.9 309.267 172.5 310 172.5ZM314 168.5V165.167C314 163.12 312.913 161.407 311 160.953V160.5C311 159.947 310.553 159.5 310 159.5C309.447 159.5 309 159.947 309 160.5V160.953C307.093 161.407 306 163.113 306 165.167V168.5L304.667 169.833V170.5H315.333V169.833L314 168.5ZM312.667 169.167H307.333V165.167C307.333 163.513 308.34 162.167 310 162.167C311.66 162.167 312.667 163.513 312.667 165.167V169.167ZM307.053 160.553L306.1 159.6C304.5 160.82 303.447 162.7 303.353 164.833H304.687C304.787 163.067 305.693 161.52 307.053 160.553ZM315.313 164.833H316.647C316.547 162.7 315.493 160.82 313.9 159.6L312.953 160.553C314.3 161.52 315.213 163.067 315.313 164.833Z" fill="#212528"/>
<path d="M322.132 170.5L325.336 161.56H326.728L329.932 170.5H328.672L327.94 168.4H324.124L323.392 170.5H322.132ZM324.496 167.32H327.568L325.864 162.412H326.2L324.496 167.32ZM330.927 170.5V161.416H332.043V170.5H330.927ZM336.75 170.644C336.126 170.644 335.57 170.496 335.082 170.2C334.594 169.904 334.21 169.5 333.93 168.988C333.65 168.468 333.51 167.888 333.51 167.248C333.51 166.6 333.646 166.024 333.918 165.52C334.198 165.016 334.574 164.62 335.046 164.332C335.526 164.036 336.062 163.888 336.654 163.888C337.134 163.888 337.558 163.976 337.926 164.152C338.302 164.32 338.618 164.552 338.874 164.848C339.138 165.136 339.338 165.468 339.474 165.844C339.618 166.212 339.69 166.596 339.69 166.996C339.69 167.084 339.682 167.184 339.666 167.296C339.658 167.4 339.646 167.5 339.63 167.596H334.326V166.636H338.982L338.454 167.068C338.526 166.652 338.486 166.28 338.334 165.952C338.182 165.624 337.958 165.364 337.662 165.172C337.366 164.98 337.03 164.884 336.654 164.884C336.278 164.884 335.934 164.98 335.622 165.172C335.31 165.364 335.066 165.64 334.89 166C334.722 166.352 334.654 166.772 334.686 167.26C334.654 167.732 334.726 168.148 334.902 168.508C335.086 168.86 335.342 169.136 335.67 169.336C336.006 169.528 336.37 169.624 336.762 169.624C337.194 169.624 337.558 169.524 337.854 169.324C338.15 169.124 338.39 168.868 338.574 168.556L339.51 169.036C339.382 169.332 339.182 169.604 338.91 169.852C338.646 170.092 338.33 170.284 337.962 170.428C337.602 170.572 337.198 170.644 336.75 170.644ZM341.145 170.5V164.032H342.237V165.22L342.117 165.052C342.269 164.684 342.501 164.412 342.813 164.236C343.125 164.052 343.505 163.96 343.953 163.96H344.349V165.016H343.785C343.329 165.016 342.961 165.16 342.681 165.448C342.401 165.728 342.261 166.128 342.261 166.648V170.5H341.145ZM348.027 170.572C347.395 170.572 346.907 170.392 346.563 170.032C346.227 169.672 346.059 169.164 346.059 168.508V165.1H344.883V164.032H345.123C345.411 164.032 345.639 163.944 345.807 163.768C345.975 163.592 346.059 163.36 346.059 163.072V162.544H347.175V164.032H348.627V165.1H347.175V168.472C347.175 168.688 347.207 168.876 347.271 169.036C347.343 169.196 347.459 169.324 347.619 169.42C347.779 169.508 347.991 169.552 348.255 169.552C348.311 169.552 348.379 169.548 348.459 169.54C348.547 169.532 348.627 169.524 348.699 169.516V170.5C348.595 170.524 348.479 170.54 348.351 170.548C348.223 170.564 348.115 170.572 348.027 170.572ZM352.473 170.644C351.825 170.644 351.261 170.484 350.781 170.164C350.301 169.844 349.961 169.412 349.761 168.868L350.649 168.436C350.833 168.82 351.085 169.124 351.405 169.348C351.725 169.572 352.081 169.684 352.473 169.684C352.825 169.684 353.117 169.6 353.349 169.432C353.581 169.264 353.697 169.044 353.697 168.772C353.697 168.58 353.641 168.428 353.529 168.316C353.425 168.196 353.297 168.104 353.145 168.04C352.993 167.968 352.853 167.916 352.725 167.884L351.753 167.608C351.169 167.44 350.741 167.2 350.469 166.888C350.205 166.576 350.073 166.212 350.073 165.796C350.073 165.412 350.169 165.08 350.361 164.8C350.561 164.512 350.829 164.288 351.165 164.128C351.509 163.968 351.893 163.888 352.317 163.888C352.885 163.888 353.393 164.032 353.841 164.32C354.297 164.608 354.621 165.012 354.813 165.532L353.901 165.952C353.757 165.616 353.541 165.352 353.253 165.16C352.965 164.96 352.641 164.86 352.281 164.86C351.953 164.86 351.693 164.944 351.501 165.112C351.309 165.272 351.213 165.476 351.213 165.724C351.213 165.908 351.261 166.06 351.357 166.18C351.453 166.292 351.569 166.38 351.705 166.444C351.841 166.5 351.973 166.548 352.101 166.588L353.157 166.9C353.685 167.052 354.093 167.288 354.381 167.608C354.677 167.928 354.825 168.312 354.825 168.76C354.825 169.12 354.725 169.444 354.525 169.732C354.325 170.02 354.049 170.244 353.697 170.404C353.345 170.564 352.937 170.644 352.473 170.644Z" fill="#212528"/>
<rect x="294" y="189" width="120" height="30" rx="4" fill="#7B7F82" fill-opacity="0.1"/>
<rect x="294" y="227" width="120" height="30" rx="4" fill="#7B7F82" fill-opacity="0.1"/>
<rect x="294" y="265" width="120" height="30" rx="4" fill="#7B7F82" fill-opacity="0.1"/>
<rect x="294" y="303" width="120" height="30" rx="4" fill="#7B7F82" fill-opacity="0.1"/>
<g clip-path="url(#clip1_4392_7234)">
<path d="M455.803 134.199C453.77 132.273 451.023 131.086 447.997 131.086C444.97 131.086 442.223 132.273 440.19 134.199C440.07 134.319 439.997 134.486 439.997 134.673C439.997 134.859 440.07 135.026 440.19 135.146L441.843 136.799C441.963 136.919 442.13 136.993 442.317 136.993C442.497 136.993 442.663 136.919 442.783 136.806C443.31 136.313 443.91 135.899 444.557 135.573C444.777 135.466 444.93 135.239 444.93 134.973V132.906C445.897 132.586 446.93 132.419 447.997 132.419C449.063 132.419 450.097 132.586 451.063 132.899V134.966C451.063 135.226 451.217 135.459 451.437 135.566C452.09 135.893 452.683 136.313 453.217 136.799C453.337 136.919 453.503 136.986 453.683 136.986C453.87 136.986 454.037 136.913 454.157 136.793L455.81 135.139C455.93 135.019 456.003 134.853 456.003 134.666C456.003 134.479 455.923 134.319 455.803 134.199ZM443.597 134.573C443.157 134.819 442.737 135.106 442.35 135.419L441.637 134.706C442.243 134.206 442.903 133.779 443.603 133.439V134.573H443.597ZM453.65 135.413C453.25 135.093 452.837 134.813 452.397 134.566V133.433C453.097 133.773 453.75 134.199 454.363 134.699L453.65 135.413ZM444.663 127.373L447.957 130.666L452.67 125.953L451.73 125.006L447.957 128.779L445.597 126.419H447.33V125.086H443.33V129.086H444.663V127.373Z" fill="#CC5229"/>
</g>
<path d="M464.924 135.5V126.56H466.244L469.604 131.216H468.944L472.244 126.56H473.564V135.5H472.16V128.228L472.688 128.372L469.316 132.98H469.172L465.872 128.372L466.34 128.228V135.5H464.924ZM475.28 135.5V129.008H476.636V135.5H475.28ZM475.28 128.12V126.56H476.636V128.12H475.28ZM480.622 135.644C479.958 135.644 479.374 135.48 478.87 135.152C478.374 134.824 478.026 134.384 477.826 133.832L478.87 133.34C479.046 133.708 479.286 134 479.59 134.216C479.902 134.432 480.246 134.54 480.622 134.54C480.942 134.54 481.202 134.468 481.402 134.324C481.602 134.18 481.702 133.984 481.702 133.736C481.702 133.576 481.658 133.448 481.57 133.352C481.482 133.248 481.37 133.164 481.234 133.1C481.106 133.036 480.974 132.988 480.838 132.956L479.818 132.668C479.258 132.508 478.838 132.268 478.558 131.948C478.286 131.62 478.15 131.24 478.15 130.808C478.15 130.416 478.25 130.076 478.45 129.788C478.65 129.492 478.926 129.264 479.278 129.104C479.63 128.944 480.026 128.864 480.466 128.864C481.058 128.864 481.586 129.012 482.05 129.308C482.514 129.596 482.842 130 483.034 130.52L481.99 131.012C481.862 130.7 481.658 130.452 481.378 130.268C481.106 130.084 480.798 129.992 480.454 129.992C480.158 129.992 479.922 130.064 479.746 130.208C479.57 130.344 479.482 130.524 479.482 130.748C479.482 130.9 479.522 131.028 479.602 131.132C479.682 131.228 479.786 131.308 479.914 131.372C480.042 131.428 480.174 131.476 480.31 131.516L481.366 131.828C481.902 131.98 482.314 132.22 482.602 132.548C482.89 132.868 483.034 133.252 483.034 133.7C483.034 134.084 482.93 134.424 482.722 134.72C482.522 135.008 482.242 135.236 481.882 135.404C481.522 135.564 481.102 135.644 480.622 135.644ZM486.762 135.644C486.098 135.644 485.514 135.48 485.01 135.152C484.514 134.824 484.166 134.384 483.966 133.832L485.01 133.34C485.186 133.708 485.426 134 485.73 134.216C486.042 134.432 486.386 134.54 486.762 134.54C487.082 134.54 487.342 134.468 487.542 134.324C487.742 134.18 487.842 133.984 487.842 133.736C487.842 133.576 487.798 133.448 487.71 133.352C487.622 133.248 487.51 133.164 487.374 133.1C487.246 133.036 487.114 132.988 486.978 132.956L485.958 132.668C485.398 132.508 484.978 132.268 484.698 131.948C484.426 131.62 484.29 131.24 484.29 130.808C484.29 130.416 484.39 130.076 484.59 129.788C484.79 129.492 485.066 129.264 485.418 129.104C485.77 128.944 486.166 128.864 486.606 128.864C487.198 128.864 487.726 129.012 488.19 129.308C488.654 129.596 488.982 130 489.174 130.52L488.13 131.012C488.002 130.7 487.798 130.452 487.518 130.268C487.246 130.084 486.938 129.992 486.594 129.992C486.298 129.992 486.062 130.064 485.886 130.208C485.71 130.344 485.622 130.524 485.622 130.748C485.622 130.9 485.662 131.028 485.742 131.132C485.822 131.228 485.926 131.308 486.054 131.372C486.182 131.428 486.314 131.476 486.45 131.516L487.506 131.828C488.042 131.98 488.454 132.22 488.742 132.548C489.03 132.868 489.174 133.252 489.174 133.7C489.174 134.084 489.07 134.424 488.862 134.72C488.662 135.008 488.382 135.236 488.022 135.404C487.662 135.564 487.242 135.644 486.762 135.644ZM493.551 135.644C492.903 135.644 492.327 135.496 491.823 135.2C491.327 134.896 490.939 134.488 490.659 133.976C490.379 133.456 490.239 132.876 490.239 132.236C490.239 131.58 490.379 131 490.659 130.496C490.947 129.992 491.331 129.596 491.811 129.308C492.291 129.012 492.835 128.864 493.443 128.864C493.931 128.864 494.367 128.948 494.751 129.116C495.135 129.284 495.459 129.516 495.723 129.812C495.987 130.1 496.187 130.432 496.323 130.808C496.467 131.184 496.539 131.584 496.539 132.008C496.539 132.112 496.535 132.22 496.527 132.332C496.519 132.444 496.503 132.548 496.479 132.644H491.307V131.564H495.711L495.063 132.056C495.143 131.664 495.115 131.316 494.979 131.012C494.851 130.7 494.651 130.456 494.379 130.28C494.115 130.096 493.803 130.004 493.443 130.004C493.083 130.004 492.763 130.096 492.483 130.28C492.203 130.456 491.987 130.712 491.835 131.048C491.683 131.376 491.623 131.776 491.655 132.248C491.615 132.688 491.675 133.072 491.835 133.4C492.003 133.728 492.235 133.984 492.531 134.168C492.835 134.352 493.179 134.444 493.563 134.444C493.955 134.444 494.287 134.356 494.559 134.18C494.839 134.004 495.059 133.776 495.219 133.496L496.323 134.036C496.195 134.34 495.995 134.616 495.723 134.864C495.459 135.104 495.139 135.296 494.763 135.44C494.395 135.576 493.991 135.644 493.551 135.644ZM500.862 135.644C500.238 135.644 499.678 135.496 499.182 135.2C498.694 134.896 498.306 134.488 498.018 133.976C497.738 133.464 497.598 132.888 497.598 132.248C497.598 131.608 497.742 131.032 498.03 130.52C498.318 130.008 498.706 129.604 499.194 129.308C499.682 129.012 500.234 128.864 500.85 128.864C501.37 128.864 501.83 128.968 502.23 129.176C502.63 129.384 502.946 129.672 503.178 130.04L502.974 130.352V126.416H504.318V135.5H503.034V134.18L503.19 134.432C502.966 134.824 502.646 135.124 502.23 135.332C501.814 135.54 501.358 135.644 500.862 135.644ZM500.994 134.384C501.37 134.384 501.706 134.292 502.002 134.108C502.306 133.924 502.542 133.672 502.71 133.352C502.886 133.024 502.974 132.656 502.974 132.248C502.974 131.84 502.886 131.476 502.71 131.156C502.542 130.836 502.306 130.584 502.002 130.4C501.706 130.216 501.37 130.124 500.994 130.124C500.618 130.124 500.278 130.216 499.974 130.4C499.67 130.584 499.434 130.836 499.266 131.156C499.098 131.476 499.014 131.84 499.014 132.248C499.014 132.656 499.098 133.024 499.266 133.352C499.434 133.672 499.666 133.924 499.962 134.108C500.266 134.292 500.61 134.384 500.994 134.384ZM511.083 135.644C510.435 135.644 509.859 135.496 509.355 135.2C508.859 134.896 508.463 134.488 508.167 133.976C507.879 133.464 507.735 132.884 507.735 132.236C507.735 131.596 507.879 131.02 508.167 130.508C508.455 129.996 508.851 129.596 509.355 129.308C509.859 129.012 510.435 128.864 511.083 128.864C511.523 128.864 511.935 128.944 512.319 129.104C512.703 129.256 513.035 129.468 513.315 129.74C513.603 130.012 513.815 130.328 513.951 130.688L512.763 131.24C512.627 130.904 512.407 130.636 512.103 130.436C511.807 130.228 511.467 130.124 511.083 130.124C510.715 130.124 510.383 130.216 510.087 130.4C509.799 130.576 509.571 130.828 509.403 131.156C509.235 131.476 509.151 131.84 509.151 132.248C509.151 132.656 509.235 133.024 509.403 133.352C509.571 133.672 509.799 133.924 510.087 134.108C510.383 134.292 510.715 134.384 511.083 134.384C511.475 134.384 511.815 134.284 512.103 134.084C512.399 133.876 512.619 133.6 512.763 133.256L513.951 133.82C513.823 134.164 513.615 134.476 513.327 134.756C513.047 135.028 512.715 135.244 512.331 135.404C511.947 135.564 511.531 135.644 511.083 135.644ZM517.162 135.644C516.722 135.644 516.334 135.568 515.998 135.416C515.67 135.256 515.414 135.04 515.23 134.768C515.046 134.488 514.954 134.16 514.954 133.784C514.954 133.432 515.03 133.116 515.182 132.836C515.342 132.556 515.586 132.32 515.914 132.128C516.242 131.936 516.654 131.8 517.15 131.72L519.406 131.348V132.416L517.414 132.764C517.054 132.828 516.79 132.944 516.622 133.112C516.454 133.272 516.37 133.48 516.37 133.736C516.37 133.984 516.462 134.188 516.646 134.348C516.838 134.5 517.082 134.576 517.378 134.576C517.746 134.576 518.066 134.496 518.338 134.336C518.618 134.176 518.834 133.964 518.986 133.7C519.138 133.428 519.214 133.128 519.214 132.8V131.132C519.214 130.812 519.094 130.552 518.854 130.352C518.622 130.144 518.31 130.04 517.918 130.04C517.558 130.04 517.242 130.136 516.97 130.328C516.706 130.512 516.51 130.752 516.382 131.048L515.254 130.484C515.374 130.164 515.57 129.884 515.842 129.644C516.114 129.396 516.43 129.204 516.79 129.068C517.158 128.932 517.546 128.864 517.954 128.864C518.466 128.864 518.918 128.96 519.31 129.152C519.71 129.344 520.018 129.612 520.234 129.956C520.458 130.292 520.57 130.684 520.57 131.132V135.5H519.274V134.324L519.55 134.36C519.398 134.624 519.202 134.852 518.962 135.044C518.73 135.236 518.462 135.384 518.158 135.488C517.862 135.592 517.53 135.644 517.162 135.644ZM522.155 135.5V126.416H523.511V135.5H522.155ZM525.097 135.5V126.416H526.453V135.5H525.097Z" fill="#CC5229"/>
<path d="M538.128 134V132.296H536.424V131.696H538.128V130H538.728V131.696H540.424V132.296H538.728V134H538.128ZM542.012 134L544.084 131.288L544.204 131.216C544.124 131.344 544.03 131.445 543.924 131.52C543.817 131.595 543.7 131.648 543.572 131.68C543.444 131.712 543.302 131.728 543.148 131.728C542.801 131.728 542.489 131.648 542.212 131.488C541.934 131.323 541.713 131.099 541.548 130.816C541.388 130.528 541.308 130.2 541.308 129.832C541.308 129.469 541.39 129.147 541.556 128.864C541.726 128.581 541.956 128.357 542.244 128.192C542.537 128.027 542.865 127.944 543.228 127.944C543.601 127.944 543.932 128.029 544.22 128.2C544.508 128.365 544.734 128.597 544.9 128.896C545.065 129.189 545.148 129.528 545.148 129.912C545.148 130.125 545.121 130.336 545.068 130.544C545.02 130.752 544.945 130.957 544.844 131.16C544.742 131.363 544.614 131.565 544.46 131.768L542.78 134H542.012ZM543.228 131.152C543.478 131.152 543.7 131.096 543.892 130.984C544.084 130.867 544.233 130.709 544.34 130.512C544.452 130.309 544.508 130.083 544.508 129.832C544.508 129.576 544.452 129.349 544.34 129.152C544.228 128.949 544.076 128.792 543.884 128.68C543.692 128.563 543.473 128.504 543.228 128.504C542.982 128.504 542.764 128.563 542.572 128.68C542.38 128.792 542.228 128.949 542.116 129.152C542.004 129.349 541.948 129.576 541.948 129.832C541.948 130.083 542.001 130.309 542.108 130.512C542.22 130.709 542.372 130.867 542.564 130.984C542.761 131.096 542.982 131.152 543.228 131.152ZM547.073 134V128.6H545.953V128.04H547.713V134H547.073ZM551.113 134L553.185 131.288L553.305 131.216C553.225 131.344 553.132 131.445 553.025 131.52C552.918 131.595 552.801 131.648 552.673 131.68C552.545 131.712 552.404 131.728 552.249 131.728C551.902 131.728 551.59 131.648 551.313 131.488C551.036 131.323 550.814 131.099 550.649 130.816C550.489 130.528 550.409 130.2 550.409 129.832C550.409 129.469 550.492 129.147 550.657 128.864C550.828 128.581 551.057 128.357 551.345 128.192C551.638 128.027 551.966 127.944 552.329 127.944C552.702 127.944 553.033 128.029 553.321 128.2C553.609 128.365 553.836 128.597 554.001 128.896C554.166 129.189 554.249 129.528 554.249 129.912C554.249 130.125 554.222 130.336 554.169 130.544C554.121 130.752 554.046 130.957 553.945 131.16C553.844 131.363 553.716 131.565 553.561 131.768L551.881 134H551.113ZM552.329 131.152C552.58 131.152 552.801 131.096 552.993 130.984C553.185 130.867 553.334 130.709 553.441 130.512C553.553 130.309 553.609 130.083 553.609 129.832C553.609 129.576 553.553 129.349 553.441 129.152C553.329 128.949 553.177 128.792 552.985 128.68C552.793 128.563 552.574 128.504 552.329 128.504C552.084 128.504 551.865 128.563 551.673 128.68C551.481 128.792 551.329 128.949 551.217 129.152C551.105 129.349 551.049 129.576 551.049 129.832C551.049 130.083 551.102 130.309 551.209 130.512C551.321 130.709 551.473 130.867 551.665 130.984C551.862 131.096 552.084 131.152 552.329 131.152ZM557.239 134.096C556.855 134.096 556.511 134.019 556.207 133.864C555.908 133.704 555.671 133.488 555.495 133.216C555.324 132.939 555.239 132.627 555.239 132.28C555.239 131.901 555.345 131.563 555.559 131.264C555.777 130.965 556.071 130.757 556.439 130.64V130.808C556.156 130.685 555.937 130.504 555.783 130.264C555.628 130.019 555.551 129.757 555.551 129.48C555.551 129.187 555.625 128.925 555.775 128.696C555.924 128.467 556.124 128.285 556.375 128.152C556.631 128.013 556.919 127.944 557.239 127.944C557.564 127.944 557.852 128.011 558.103 128.144C558.353 128.272 558.551 128.453 558.695 128.688C558.844 128.917 558.919 129.181 558.919 129.48C558.919 129.779 558.839 130.045 558.679 130.28C558.519 130.509 558.308 130.685 558.047 130.808L558.039 130.64C558.407 130.757 558.697 130.965 558.911 131.264C559.129 131.563 559.239 131.901 559.239 132.28C559.239 132.627 559.151 132.939 558.975 133.216C558.804 133.488 558.567 133.704 558.263 133.864C557.964 134.019 557.623 134.096 557.239 134.096ZM557.239 133.536C557.511 133.536 557.748 133.485 557.951 133.384C558.153 133.277 558.311 133.131 558.423 132.944C558.54 132.752 558.599 132.531 558.599 132.28C558.599 132.029 558.54 131.811 558.423 131.624C558.311 131.432 558.153 131.285 557.951 131.184C557.748 131.077 557.511 131.024 557.239 131.024C556.967 131.024 556.727 131.077 556.519 131.184C556.316 131.285 556.159 131.432 556.047 131.624C555.935 131.811 555.879 132.029 555.879 132.28C555.879 132.531 555.935 132.752 556.047 132.944C556.159 133.131 556.316 133.277 556.519 133.384C556.727 133.485 556.967 133.536 557.239 133.536ZM557.239 130.464C557.436 130.464 557.612 130.424 557.767 130.344C557.921 130.259 558.044 130.144 558.135 130C558.231 129.851 558.279 129.677 558.279 129.48C558.279 129.283 558.231 129.112 558.135 128.968C558.044 128.824 557.921 128.712 557.767 128.632C557.612 128.547 557.436 128.504 557.239 128.504C557.041 128.504 556.863 128.547 556.703 128.632C556.548 128.712 556.423 128.824 556.327 128.968C556.236 129.112 556.191 129.283 556.191 129.48C556.191 129.677 556.236 129.851 556.327 130C556.423 130.144 556.548 130.259 556.703 130.344C556.863 130.424 557.041 130.464 557.239 130.464ZM560.966 130.936L560.502 130.6L561.19 129.688L560.174 129.344L560.35 128.8L561.374 129.136V128.04H561.95V129.136L562.974 128.8L563.15 129.344L562.134 129.688L562.822 130.6L562.358 130.936L561.662 130.024L560.966 130.936ZM564.794 130.936L564.33 130.6L565.018 129.688L564.002 129.344L564.178 128.8L565.202 129.136V128.04H565.778V129.136L566.802 128.8L566.978 129.344L565.962 129.688L566.65 130.6L566.186 130.936L565.49 130.024L564.794 130.936ZM568.622 130.936L568.158 130.6L568.846 129.688L567.83 129.344L568.006 128.8L569.03 129.136V128.04H569.606V129.136L570.63 128.8L570.806 129.344L569.79 129.688L570.478 130.6L570.014 130.936L569.318 130.024L568.622 130.936ZM572.45 130.936L571.986 130.6L572.674 129.688L571.658 129.344L571.834 128.8L572.858 129.136V128.04H573.434V129.136L574.458 128.8L574.634 129.344L573.618 129.688L574.306 130.6L573.842 130.936L573.146 130.024L572.45 130.936ZM576.279 130.936L575.815 130.6L576.503 129.688L575.487 129.344L575.663 128.8L576.687 129.136V128.04H577.263V129.136L578.287 128.8L578.463 129.344L577.447 129.688L578.135 130.6L577.671 130.936L576.975 130.024L576.279 130.936ZM580.107 130.936L579.643 130.6L580.331 129.688L579.315 129.344L579.491 128.8L580.515 129.136V128.04H581.091V129.136L582.115 128.8L582.291 129.344L581.275 129.688L581.963 130.6L581.499 130.936L580.803 130.024L580.107 130.936ZM585.231 134.096C584.847 134.096 584.503 134.019 584.199 133.864C583.9 133.704 583.663 133.488 583.487 133.216C583.316 132.939 583.231 132.627 583.231 132.28C583.231 131.901 583.337 131.563 583.551 131.264C583.769 130.965 584.063 130.757 584.431 130.64V130.808C584.148 130.685 583.929 130.504 583.775 130.264C583.62 130.019 583.543 129.757 583.543 129.48C583.543 129.187 583.617 128.925 583.767 128.696C583.916 128.467 584.116 128.285 584.367 128.152C584.623 128.013 584.911 127.944 585.231 127.944C585.556 127.944 585.844 128.011 586.095 128.144C586.345 128.272 586.543 128.453 586.687 128.688C586.836 128.917 586.911 129.181 586.911 129.48C586.911 129.779 586.831 130.045 586.671 130.28C586.511 130.509 586.3 130.685 586.039 130.808L586.031 130.64C586.399 130.757 586.689 130.965 586.903 131.264C587.121 131.563 587.231 131.901 587.231 132.28C587.231 132.627 587.143 132.939 586.967 133.216C586.796 133.488 586.559 133.704 586.255 133.864C585.956 134.019 585.615 134.096 585.231 134.096ZM585.231 133.536C585.503 133.536 585.74 133.485 585.943 133.384C586.145 133.277 586.303 133.131 586.415 132.944C586.532 132.752 586.591 132.531 586.591 132.28C586.591 132.029 586.532 131.811 586.415 131.624C586.303 131.432 586.145 131.285 585.943 131.184C585.74 131.077 585.503 131.024 585.231 131.024C584.959 131.024 584.719 131.077 584.511 131.184C584.308 131.285 584.151 131.432 584.039 131.624C583.927 131.811 583.871 132.029 583.871 132.28C583.871 132.531 583.927 132.752 584.039 132.944C584.151 133.131 584.308 133.277 584.511 133.384C584.719 133.485 584.959 133.536 585.231 133.536ZM585.231 130.464C585.428 130.464 585.604 130.424 585.759 130.344C585.913 130.259 586.036 130.144 586.127 130C586.223 129.851 586.271 129.677 586.271 129.48C586.271 129.283 586.223 129.112 586.127 128.968C586.036 128.824 585.913 128.712 585.759 128.632C585.604 128.547 585.428 128.504 585.231 128.504C585.033 128.504 584.855 128.547 584.695 128.632C584.54 128.712 584.415 128.824 584.319 128.968C584.228 129.112 584.183 129.283 584.183 129.48C584.183 129.677 584.228 129.851 584.319 130C584.415 130.144 584.54 130.259 584.695 130.344C584.855 130.424 585.033 130.464 585.231 130.464ZM588.902 134L590.974 131.288L591.094 131.216C591.014 131.344 590.921 131.445 590.814 131.52C590.708 131.595 590.59 131.648 590.462 131.68C590.334 131.712 590.193 131.728 590.038 131.728C589.692 131.728 589.38 131.648 589.102 131.488C588.825 131.323 588.604 131.099 588.438 130.816C588.278 130.528 588.198 130.2 588.198 129.832C588.198 129.469 588.281 129.147 588.446 128.864C588.617 128.581 588.846 128.357 589.134 128.192C589.428 128.027 589.756 127.944 590.118 127.944C590.492 127.944 590.822 128.029 591.11 128.2C591.398 128.365 591.625 128.597 591.79 128.896C591.956 129.189 592.038 129.528 592.038 129.912C592.038 130.125 592.012 130.336 591.958 130.544C591.91 130.752 591.836 130.957 591.734 131.16C591.633 131.363 591.505 131.565 591.35 131.768L589.67 134H588.902ZM590.118 131.152C590.369 131.152 590.59 131.096 590.782 130.984C590.974 130.867 591.124 130.709 591.23 130.512C591.342 130.309 591.398 130.083 591.398 129.832C591.398 129.576 591.342 129.349 591.23 129.152C591.118 128.949 590.966 128.792 590.774 128.68C590.582 128.563 590.364 128.504 590.118 128.504C589.873 128.504 589.654 128.563 589.462 128.68C589.27 128.792 589.118 128.949 589.006 129.152C588.894 129.349 588.838 129.576 588.838 129.832C588.838 130.083 588.892 130.309 588.998 130.512C589.11 130.709 589.262 130.867 589.454 130.984C589.652 131.096 589.873 131.152 590.118 131.152Z" fill="black"/>
<rect x="430.334" y="113.334" width="242.332" height="35.3325" rx="3.66623" stroke="#D5D9DC" stroke-width="0.667548"/>
<g clip-path="url(#clip2_4392_7234)">
<path d="M455.803 178.199C453.77 176.273 451.023 175.086 447.997 175.086C444.97 175.086 442.223 176.273 440.19 178.199C440.07 178.319 439.997 178.486 439.997 178.673C439.997 178.859 440.07 179.026 440.19 179.146L441.843 180.799C441.963 180.919 442.13 180.993 442.317 180.993C442.497 180.993 442.663 180.919 442.783 180.806C443.31 180.313 443.91 179.899 444.557 179.573C444.777 179.466 444.93 179.239 444.93 178.973V176.906C445.897 176.586 446.93 176.419 447.997 176.419C449.063 176.419 450.097 176.586 451.063 176.899V178.966C451.063 179.226 451.217 179.459 451.437 179.566C452.09 179.893 452.683 180.313 453.217 180.799C453.337 180.919 453.503 180.986 453.683 180.986C453.87 180.986 454.037 180.913 454.157 180.793L455.81 179.139C455.93 179.019 456.003 178.853 456.003 178.666C456.003 178.479 455.923 178.319 455.803 178.199ZM443.597 178.573C443.157 178.819 442.737 179.106 442.35 179.419L441.637 178.706C442.243 178.206 442.903 177.779 443.603 177.439V178.573H443.597ZM453.65 179.413C453.25 179.093 452.837 178.813 452.397 178.566V177.433C453.097 177.773 453.75 178.199 454.363 178.699L453.65 179.413ZM444.663 171.373L447.957 174.666L452.67 169.953L451.73 169.006L447.957 172.779L445.597 170.419H447.33V169.086H443.33V173.086H444.663V171.373Z" fill="#CC5229"/>
</g>
<path d="M464.924 179.5V170.56H466.244L469.604 175.216H468.944L472.244 170.56H473.564V179.5H472.16V172.228L472.688 172.372L469.316 176.98H469.172L465.872 172.372L466.34 172.228V179.5H464.924ZM475.28 179.5V173.008H476.636V179.5H475.28ZM475.28 172.12V170.56H476.636V172.12H475.28ZM480.622 179.644C479.958 179.644 479.374 179.48 478.87 179.152C478.374 178.824 478.026 178.384 477.826 177.832L478.87 177.34C479.046 177.708 479.286 178 479.59 178.216C479.902 178.432 480.246 178.54 480.622 178.54C480.942 178.54 481.202 178.468 481.402 178.324C481.602 178.18 481.702 177.984 481.702 177.736C481.702 177.576 481.658 177.448 481.57 177.352C481.482 177.248 481.37 177.164 481.234 177.1C481.106 177.036 480.974 176.988 480.838 176.956L479.818 176.668C479.258 176.508 478.838 176.268 478.558 175.948C478.286 175.62 478.15 175.24 478.15 174.808C478.15 174.416 478.25 174.076 478.45 173.788C478.65 173.492 478.926 173.264 479.278 173.104C479.63 172.944 480.026 172.864 480.466 172.864C481.058 172.864 481.586 173.012 482.05 173.308C482.514 173.596 482.842 174 483.034 174.52L481.99 175.012C481.862 174.7 481.658 174.452 481.378 174.268C481.106 174.084 480.798 173.992 480.454 173.992C480.158 173.992 479.922 174.064 479.746 174.208C479.57 174.344 479.482 174.524 479.482 174.748C479.482 174.9 479.522 175.028 479.602 175.132C479.682 175.228 479.786 175.308 479.914 175.372C480.042 175.428 480.174 175.476 480.31 175.516L481.366 175.828C481.902 175.98 482.314 176.22 482.602 176.548C482.89 176.868 483.034 177.252 483.034 177.7C483.034 178.084 482.93 178.424 482.722 178.72C482.522 179.008 482.242 179.236 481.882 179.404C481.522 179.564 481.102 179.644 480.622 179.644ZM486.762 179.644C486.098 179.644 485.514 179.48 485.01 179.152C484.514 178.824 484.166 178.384 483.966 177.832L485.01 177.34C485.186 177.708 485.426 178 485.73 178.216C486.042 178.432 486.386 178.54 486.762 178.54C487.082 178.54 487.342 178.468 487.542 178.324C487.742 178.18 487.842 177.984 487.842 177.736C487.842 177.576 487.798 177.448 487.71 177.352C487.622 177.248 487.51 177.164 487.374 177.1C487.246 177.036 487.114 176.988 486.978 176.956L485.958 176.668C485.398 176.508 484.978 176.268 484.698 175.948C484.426 175.62 484.29 175.24 484.29 174.808C484.29 174.416 484.39 174.076 484.59 173.788C484.79 173.492 485.066 173.264 485.418 173.104C485.77 172.944 486.166 172.864 486.606 172.864C487.198 172.864 487.726 173.012 488.19 173.308C488.654 173.596 488.982 174 489.174 174.52L488.13 175.012C488.002 174.7 487.798 174.452 487.518 174.268C487.246 174.084 486.938 173.992 486.594 173.992C486.298 173.992 486.062 174.064 485.886 174.208C485.71 174.344 485.622 174.524 485.622 174.748C485.622 174.9 485.662 175.028 485.742 175.132C485.822 175.228 485.926 175.308 486.054 175.372C486.182 175.428 486.314 175.476 486.45 175.516L487.506 175.828C488.042 175.98 488.454 176.22 488.742 176.548C489.03 176.868 489.174 177.252 489.174 177.7C489.174 178.084 489.07 178.424 488.862 178.72C488.662 179.008 488.382 179.236 488.022 179.404C487.662 179.564 487.242 179.644 486.762 179.644ZM493.551 179.644C492.903 179.644 492.327 179.496 491.823 179.2C491.327 178.896 490.939 178.488 490.659 177.976C490.379 177.456 490.239 176.876 490.239 176.236C490.239 175.58 490.379 175 490.659 174.496C490.947 173.992 491.331 173.596 491.811 173.308C492.291 173.012 492.835 172.864 493.443 172.864C493.931 172.864 494.367 172.948 494.751 173.116C495.135 173.284 495.459 173.516 495.723 173.812C495.987 174.1 496.187 174.432 496.323 174.808C496.467 175.184 496.539 175.584 496.539 176.008C496.539 176.112 496.535 176.22 496.527 176.332C496.519 176.444 496.503 176.548 496.479 176.644H491.307V175.564H495.711L495.063 176.056C495.143 175.664 495.115 175.316 494.979 175.012C494.851 174.7 494.651 174.456 494.379 174.28C494.115 174.096 493.803 174.004 493.443 174.004C493.083 174.004 492.763 174.096 492.483 174.28C492.203 174.456 491.987 174.712 491.835 175.048C491.683 175.376 491.623 175.776 491.655 176.248C491.615 176.688 491.675 177.072 491.835 177.4C492.003 177.728 492.235 177.984 492.531 178.168C492.835 178.352 493.179 178.444 493.563 178.444C493.955 178.444 494.287 178.356 494.559 178.18C494.839 178.004 495.059 177.776 495.219 177.496L496.323 178.036C496.195 178.34 495.995 178.616 495.723 178.864C495.459 179.104 495.139 179.296 494.763 179.44C494.395 179.576 493.991 179.644 493.551 179.644ZM500.862 179.644C500.238 179.644 499.678 179.496 499.182 179.2C498.694 178.896 498.306 178.488 498.018 177.976C497.738 177.464 497.598 176.888 497.598 176.248C497.598 175.608 497.742 175.032 498.03 174.52C498.318 174.008 498.706 173.604 499.194 173.308C499.682 173.012 500.234 172.864 500.85 172.864C501.37 172.864 501.83 172.968 502.23 173.176C502.63 173.384 502.946 173.672 503.178 174.04L502.974 174.352V170.416H504.318V179.5H503.034V178.18L503.19 178.432C502.966 178.824 502.646 179.124 502.23 179.332C501.814 179.54 501.358 179.644 500.862 179.644ZM500.994 178.384C501.37 178.384 501.706 178.292 502.002 178.108C502.306 177.924 502.542 177.672 502.71 177.352C502.886 177.024 502.974 176.656 502.974 176.248C502.974 175.84 502.886 175.476 502.71 175.156C502.542 174.836 502.306 174.584 502.002 174.4C501.706 174.216 501.37 174.124 500.994 174.124C500.618 174.124 500.278 174.216 499.974 174.4C499.67 174.584 499.434 174.836 499.266 175.156C499.098 175.476 499.014 175.84 499.014 176.248C499.014 176.656 499.098 177.024 499.266 177.352C499.434 177.672 499.666 177.924 499.962 178.108C500.266 178.292 500.61 178.384 500.994 178.384ZM511.083 179.644C510.435 179.644 509.859 179.496 509.355 179.2C508.859 178.896 508.463 178.488 508.167 177.976C507.879 177.464 507.735 176.884 507.735 176.236C507.735 175.596 507.879 175.02 508.167 174.508C508.455 173.996 508.851 173.596 509.355 173.308C509.859 173.012 510.435 172.864 511.083 172.864C511.523 172.864 511.935 172.944 512.319 173.104C512.703 173.256 513.035 173.468 513.315 173.74C513.603 174.012 513.815 174.328 513.951 174.688L512.763 175.24C512.627 174.904 512.407 174.636 512.103 174.436C511.807 174.228 511.467 174.124 511.083 174.124C510.715 174.124 510.383 174.216 510.087 174.4C509.799 174.576 509.571 174.828 509.403 175.156C509.235 175.476 509.151 175.84 509.151 176.248C509.151 176.656 509.235 177.024 509.403 177.352C509.571 177.672 509.799 177.924 510.087 178.108C510.383 178.292 510.715 178.384 511.083 178.384C511.475 178.384 511.815 178.284 512.103 178.084C512.399 177.876 512.619 177.6 512.763 177.256L513.951 177.82C513.823 178.164 513.615 178.476 513.327 178.756C513.047 179.028 512.715 179.244 512.331 179.404C511.947 179.564 511.531 179.644 511.083 179.644ZM517.162 179.644C516.722 179.644 516.334 179.568 515.998 179.416C515.67 179.256 515.414 179.04 515.23 178.768C515.046 178.488 514.954 178.16 514.954 177.784C514.954 177.432 515.03 177.116 515.182 176.836C515.342 176.556 515.586 176.32 515.914 176.128C516.242 175.936 516.654 175.8 517.15 175.72L519.406 175.348V176.416L517.414 176.764C517.054 176.828 516.79 176.944 516.622 177.112C516.454 177.272 516.37 177.48 516.37 177.736C516.37 177.984 516.462 178.188 516.646 178.348C516.838 178.5 517.082 178.576 517.378 178.576C517.746 178.576 518.066 178.496 518.338 178.336C518.618 178.176 518.834 177.964 518.986 177.7C519.138 177.428 519.214 177.128 519.214 176.8V175.132C519.214 174.812 519.094 174.552 518.854 174.352C518.622 174.144 518.31 174.04 517.918 174.04C517.558 174.04 517.242 174.136 516.97 174.328C516.706 174.512 516.51 174.752 516.382 175.048L515.254 174.484C515.374 174.164 515.57 173.884 515.842 173.644C516.114 173.396 516.43 173.204 516.79 173.068C517.158 172.932 517.546 172.864 517.954 172.864C518.466 172.864 518.918 172.96 519.31 173.152C519.71 173.344 520.018 173.612 520.234 173.956C520.458 174.292 520.57 174.684 520.57 175.132V179.5H519.274V178.324L519.55 178.36C519.398 178.624 519.202 178.852 518.962 179.044C518.73 179.236 518.462 179.384 518.158 179.488C517.862 179.592 517.53 179.644 517.162 179.644ZM522.155 179.5V170.416H523.511V179.5H522.155ZM525.097 179.5V170.416H526.453V179.5H525.097Z" fill="#CC5229"/>
<path d="M538.128 178V176.296H536.424V175.696H538.128V174H538.728V175.696H540.424V176.296H538.728V178H538.128ZM542.012 178L544.084 175.288L544.204 175.216C544.124 175.344 544.03 175.445 543.924 175.52C543.817 175.595 543.7 175.648 543.572 175.68C543.444 175.712 543.302 175.728 543.148 175.728C542.801 175.728 542.489 175.648 542.212 175.488C541.934 175.323 541.713 175.099 541.548 174.816C541.388 174.528 541.308 174.2 541.308 173.832C541.308 173.469 541.39 173.147 541.556 172.864C541.726 172.581 541.956 172.357 542.244 172.192C542.537 172.027 542.865 171.944 543.228 171.944C543.601 171.944 543.932 172.029 544.22 172.2C544.508 172.365 544.734 172.597 544.9 172.896C545.065 173.189 545.148 173.528 545.148 173.912C545.148 174.125 545.121 174.336 545.068 174.544C545.02 174.752 544.945 174.957 544.844 175.16C544.742 175.363 544.614 175.565 544.46 175.768L542.78 178H542.012ZM543.228 175.152C543.478 175.152 543.7 175.096 543.892 174.984C544.084 174.867 544.233 174.709 544.34 174.512C544.452 174.309 544.508 174.083 544.508 173.832C544.508 173.576 544.452 173.349 544.34 173.152C544.228 172.949 544.076 172.792 543.884 172.68C543.692 172.563 543.473 172.504 543.228 172.504C542.982 172.504 542.764 172.563 542.572 172.68C542.38 172.792 542.228 172.949 542.116 173.152C542.004 173.349 541.948 173.576 541.948 173.832C541.948 174.083 542.001 174.309 542.108 174.512C542.22 174.709 542.372 174.867 542.564 174.984C542.761 175.096 542.982 175.152 543.228 175.152ZM547.073 178V172.6H545.953V172.04H547.713V178H547.073ZM551.113 178L553.185 175.288L553.305 175.216C553.225 175.344 553.132 175.445 553.025 175.52C552.918 175.595 552.801 175.648 552.673 175.68C552.545 175.712 552.404 175.728 552.249 175.728C551.902 175.728 551.59 175.648 551.313 175.488C551.036 175.323 550.814 175.099 550.649 174.816C550.489 174.528 550.409 174.2 550.409 173.832C550.409 173.469 550.492 173.147 550.657 172.864C550.828 172.581 551.057 172.357 551.345 172.192C551.638 172.027 551.966 171.944 552.329 171.944C552.702 171.944 553.033 172.029 553.321 172.2C553.609 172.365 553.836 172.597 554.001 172.896C554.166 173.189 554.249 173.528 554.249 173.912C554.249 174.125 554.222 174.336 554.169 174.544C554.121 174.752 554.046 174.957 553.945 175.16C553.844 175.363 553.716 175.565 553.561 175.768L551.881 178H551.113ZM552.329 175.152C552.58 175.152 552.801 175.096 552.993 174.984C553.185 174.867 553.334 174.709 553.441 174.512C553.553 174.309 553.609 174.083 553.609 173.832C553.609 173.576 553.553 173.349 553.441 173.152C553.329 172.949 553.177 172.792 552.985 172.68C552.793 172.563 552.574 172.504 552.329 172.504C552.084 172.504 551.865 172.563 551.673 172.68C551.481 172.792 551.329 172.949 551.217 173.152C551.105 173.349 551.049 173.576 551.049 173.832C551.049 174.083 551.102 174.309 551.209 174.512C551.321 174.709 551.473 174.867 551.665 174.984C551.862 175.096 552.084 175.152 552.329 175.152ZM557.143 178.096C556.833 178.096 556.545 178.043 556.279 177.936C556.017 177.829 555.788 177.677 555.591 177.48C555.393 177.283 555.244 177.048 555.143 176.776L555.631 176.536C555.753 176.845 555.953 177.091 556.231 177.272C556.513 177.448 556.817 177.536 557.143 177.536C557.404 177.536 557.636 177.475 557.839 177.352C558.047 177.229 558.209 177.064 558.327 176.856C558.444 176.643 558.503 176.405 558.503 176.144C558.503 175.872 558.441 175.632 558.319 175.424C558.201 175.216 558.041 175.053 557.839 174.936C557.636 174.813 557.407 174.752 557.151 174.752C556.889 174.752 556.647 174.813 556.423 174.936C556.204 175.053 556.044 175.197 555.943 175.368L555.439 175.272L555.887 172.04H558.903V172.6H556.119L556.367 172.384L556.007 174.928L555.759 174.816C555.945 174.587 556.164 174.424 556.415 174.328C556.665 174.227 556.921 174.176 557.183 174.176C557.567 174.176 557.905 174.267 558.199 174.448C558.492 174.624 558.721 174.861 558.887 175.16C559.057 175.453 559.143 175.781 559.143 176.144C559.143 176.512 559.055 176.845 558.879 177.144C558.708 177.437 558.471 177.669 558.167 177.84C557.868 178.011 557.527 178.096 557.143 178.096ZM560.872 174.936L560.408 174.6L561.096 173.688L560.08 173.344L560.256 172.8L561.28 173.136V172.04H561.856V173.136L562.88 172.8L563.056 173.344L562.04 173.688L562.728 174.6L562.264 174.936L561.568 174.024L560.872 174.936ZM564.7 174.936L564.236 174.6L564.924 173.688L563.908 173.344L564.084 172.8L565.108 173.136V172.04H565.684V173.136L566.708 172.8L566.884 173.344L565.868 173.688L566.556 174.6L566.092 174.936L565.396 174.024L564.7 174.936ZM568.529 174.936L568.065 174.6L568.753 173.688L567.737 173.344L567.913 172.8L568.937 173.136V172.04H569.513V173.136L570.537 172.8L570.713 173.344L569.697 173.688L570.385 174.6L569.921 174.936L569.225 174.024L568.529 174.936ZM572.357 174.936L571.893 174.6L572.581 173.688L571.565 173.344L571.741 172.8L572.765 173.136V172.04H573.341V173.136L574.365 172.8L574.541 173.344L573.525 173.688L574.213 174.6L573.749 174.936L573.053 174.024L572.357 174.936ZM576.185 174.936L575.721 174.6L576.409 173.688L575.393 173.344L575.569 172.8L576.593 173.136V172.04H577.169V173.136L578.193 172.8L578.369 173.344L577.353 173.688L578.041 174.6L577.577 174.936L576.881 174.024L576.185 174.936ZM580.013 174.936L579.549 174.6L580.237 173.688L579.221 173.344L579.397 172.8L580.421 173.136V172.04H580.997V173.136L582.021 172.8L582.197 173.344L581.181 173.688L581.869 174.6L581.405 174.936L580.709 174.024L580.013 174.936ZM585.561 178.096C585.092 178.096 584.678 177.968 584.321 177.712C583.969 177.451 583.694 177.091 583.497 176.632C583.3 176.168 583.201 175.629 583.201 175.016C583.201 174.403 583.3 173.867 583.497 173.408C583.694 172.944 583.969 172.584 584.321 172.328C584.673 172.072 585.084 171.944 585.553 171.944C586.022 171.944 586.433 172.072 586.785 172.328C587.137 172.584 587.412 172.944 587.609 173.408C587.806 173.867 587.905 174.403 587.905 175.016C587.905 175.629 587.806 176.168 587.609 176.632C587.417 177.096 587.145 177.456 586.793 177.712C586.441 177.968 586.03 178.096 585.561 178.096ZM585.561 177.496C585.902 177.496 586.201 177.392 586.457 177.184C586.713 176.976 586.913 176.688 587.057 176.32C587.201 175.947 587.273 175.512 587.273 175.016C587.273 174.52 587.201 174.088 587.057 173.72C586.913 173.347 586.713 173.059 586.457 172.856C586.201 172.648 585.9 172.544 585.553 172.544C585.212 172.544 584.913 172.648 584.657 172.856C584.401 173.059 584.201 173.347 584.057 173.72C583.913 174.088 583.841 174.52 583.841 175.016C583.841 175.507 583.913 175.939 584.057 176.312C584.201 176.685 584.401 176.976 584.657 177.184C584.918 177.392 585.22 177.496 585.561 177.496ZM588.948 178V177.6L590.612 175.768C590.938 175.411 591.202 175.115 591.404 174.88C591.612 174.645 591.767 174.432 591.868 174.24C591.97 174.048 592.02 173.84 592.02 173.616C592.02 173.259 591.916 172.984 591.708 172.792C591.5 172.6 591.223 172.504 590.876 172.504C590.519 172.504 590.218 172.605 589.972 172.808C589.732 173.011 589.57 173.293 589.484 173.656L588.9 173.528C588.97 173.203 589.095 172.923 589.276 172.688C589.458 172.453 589.684 172.272 589.956 172.144C590.228 172.011 590.532 171.944 590.868 171.944C591.226 171.944 591.538 172.016 591.804 172.16C592.071 172.304 592.279 172.501 592.428 172.752C592.583 173.003 592.66 173.291 592.66 173.616C592.66 173.84 592.612 174.056 592.516 174.264C592.426 174.472 592.287 174.696 592.1 174.936C591.914 175.176 591.674 175.456 591.38 175.776L589.868 177.44H592.82V178H588.948Z" fill="black"/>
<rect x="430.334" y="157.334" width="242.332" height="35.3325" rx="3.66623" stroke="#D5D9DC" stroke-width="0.667548"/>
</g>
<defs>
<clipPath id="clip0_4392_7234">
<rect width="600" height="450" fill="white"/>
</clipPath>
<clipPath id="clip1_4392_7234">
<rect width="16" height="16" fill="white" transform="translate(440 123)"/>
</clipPath>
<clipPath id="clip2_4392_7234">
<rect width="16" height="16" fill="white" transform="translate(440 167)"/>
</clipPath>
</defs>
</svg>
