<svg width="600" height="450" viewBox="0 0 600 450" fill="none" xmlns="http://www.w3.org/2000/svg">
<rect x="205" y="25" width="190" height="400" rx="24" fill="#CCCCCC"/>
<rect x="210" y="30" width="180" height="390" rx="20" fill="white"/>
<rect x="330" y="343" width="36" height="36" rx="18" fill="#CC5229"/>
<path d="M353.492 360.242C354.367 360.667 355.192 361.2 355.958 361.834L355.067 362.725C354.583 362.334 354.058 361.984 353.5 361.667V360.242H353.492ZM342.5 360.242V361.659C341.958 361.967 341.433 362.317 340.942 362.717L340.05 361.825C340.808 361.2 341.633 360.675 342.5 360.242ZM348 357.309C344.217 357.309 340.783 358.792 338.242 361.2C338.092 361.35 338 361.559 338 361.792C338 362.025 338.092 362.234 338.242 362.375L340.308 364.442C340.458 364.592 340.667 364.684 340.9 364.684C341.125 364.684 341.333 364.6 341.483 364.45C342.142 363.842 342.883 363.317 343.7 362.909C343.975 362.775 344.167 362.484 344.167 362.159V359.575C345.375 359.184 346.667 358.975 348 358.975C349.333 358.975 350.625 359.184 351.825 359.584V362.167C351.825 362.5 352.017 362.784 352.292 362.917C353.108 363.325 353.858 363.842 354.517 364.459C354.667 364.6 354.875 364.692 355.1 364.692C355.333 364.692 355.542 364.6 355.692 364.45L357.758 362.384C357.908 362.234 358 362.025 358 361.792C358 361.559 357.908 361.35 357.758 361.2C355.217 358.792 351.783 357.309 348 357.309Z" fill="white"/>
<rect x="234" y="343" width="36" height="36" rx="18" fill="#29A653"/>
<path d="M247.45 355.167C247.5 355.908 247.625 356.633 247.825 357.325L246.825 358.325C246.483 357.325 246.267 356.267 246.192 355.167H247.45ZM255.667 365.183C256.375 365.383 257.1 365.508 257.833 365.558V366.8C256.733 366.725 255.675 366.508 254.667 366.175L255.667 365.183ZM248.25 353.5H245.333C244.875 353.5 244.5 353.875 244.5 354.333C244.5 362.158 250.842 368.5 258.667 368.5C259.125 368.5 259.5 368.125 259.5 367.667V364.758C259.5 364.3 259.125 363.925 258.667 363.925C257.633 363.925 256.625 363.758 255.692 363.45C255.608 363.417 255.517 363.408 255.433 363.408C255.217 363.408 255.008 363.492 254.842 363.65L253.008 365.483C250.65 364.275 248.717 362.35 247.517 359.992L249.35 358.158C249.583 357.925 249.65 357.6 249.558 357.308C249.25 356.375 249.083 355.375 249.083 354.333C249.083 353.875 248.708 353.5 248.25 353.5Z" fill="white"/>
<path d="M299.5 83.9993C300.233 83.9993 300.833 84.5993 300.833 85.3327C300.833 86.066 300.233 86.666 299.5 86.666C298.767 86.666 298.167 86.066 298.167 85.3327C298.167 84.5993 298.767 83.9993 299.5 83.9993ZM299.5 90.666C301.3 90.666 303.367 91.526 303.5 91.9993H295.5C295.653 91.5193 297.707 90.666 299.5 90.666ZM299.5 82.666C298.027 82.666 296.833 83.8593 296.833 85.3327C296.833 86.806 298.027 87.9993 299.5 87.9993C300.973 87.9993 302.167 86.806 302.167 85.3327C302.167 83.8593 300.973 82.666 299.5 82.666ZM299.5 89.3327C297.72 89.3327 294.167 90.226 294.167 91.9993V93.3327H304.833V91.9993C304.833 90.226 301.28 89.3327 299.5 89.3327Z" fill="#3F4346"/>
<rect x="284" y="72.5" width="31" height="31" rx="15.5" stroke="#D5D9DC"/>
<path d="M270.308 117V115.152H268.46V114.501H270.308V112.661H270.959V114.501H272.799V115.152H270.959V117H270.308ZM274.521 117L276.769 114.058L276.899 113.98C276.812 114.119 276.711 114.229 276.595 114.31C276.48 114.391 276.352 114.449 276.213 114.483C276.075 114.518 275.921 114.535 275.753 114.535C275.377 114.535 275.039 114.449 274.738 114.275C274.437 114.096 274.197 113.853 274.018 113.546C273.844 113.234 273.757 112.878 273.757 112.479C273.757 112.085 273.847 111.735 274.026 111.429C274.212 111.122 274.46 110.879 274.773 110.7C275.091 110.52 275.447 110.431 275.84 110.431C276.245 110.431 276.604 110.523 276.916 110.708C277.229 110.888 277.475 111.139 277.654 111.463C277.833 111.782 277.923 112.149 277.923 112.565C277.923 112.797 277.894 113.025 277.836 113.251C277.784 113.477 277.703 113.699 277.593 113.919C277.483 114.139 277.344 114.359 277.177 114.579L275.354 117H274.521ZM275.84 113.911C276.112 113.911 276.352 113.85 276.561 113.728C276.769 113.601 276.931 113.43 277.046 113.216C277.168 112.996 277.229 112.751 277.229 112.479C277.229 112.201 277.168 111.955 277.046 111.741C276.925 111.521 276.76 111.351 276.552 111.229C276.344 111.102 276.106 111.038 275.84 111.038C275.574 111.038 275.337 111.102 275.129 111.229C274.92 111.351 274.755 111.521 274.634 111.741C274.512 111.955 274.452 112.201 274.452 112.479C274.452 112.751 274.51 112.996 274.625 113.216C274.747 113.43 274.912 113.601 275.12 113.728C275.334 113.85 275.574 113.911 275.84 113.911ZM280.012 117V111.142H278.797V110.535H280.706V117H280.012ZM284.394 117L286.642 114.058L286.772 113.98C286.685 114.119 286.584 114.229 286.468 114.31C286.353 114.391 286.225 114.449 286.086 114.483C285.948 114.518 285.794 114.535 285.627 114.535C285.25 114.535 284.912 114.449 284.611 114.275C284.31 114.096 284.07 113.853 283.891 113.546C283.717 113.234 283.631 112.878 283.631 112.479C283.631 112.085 283.72 111.735 283.9 111.429C284.085 111.122 284.333 110.879 284.646 110.7C284.964 110.52 285.32 110.431 285.713 110.431C286.118 110.431 286.477 110.523 286.789 110.708C287.102 110.888 287.348 111.139 287.527 111.463C287.706 111.782 287.796 112.149 287.796 112.565C287.796 112.797 287.767 113.025 287.709 113.251C287.657 113.477 287.576 113.699 287.466 113.919C287.356 114.139 287.217 114.359 287.05 114.579L285.227 117H284.394ZM285.713 113.911C285.985 113.911 286.225 113.85 286.434 113.728C286.642 113.601 286.804 113.43 286.92 113.216C287.041 112.996 287.102 112.751 287.102 112.479C287.102 112.201 287.041 111.955 286.92 111.741C286.798 111.521 286.633 111.351 286.425 111.229C286.217 111.102 285.979 111.038 285.713 111.038C285.447 111.038 285.21 111.102 285.002 111.229C284.793 111.351 284.629 111.521 284.507 111.741C284.386 111.955 284.325 112.201 284.325 112.479C284.325 112.751 284.383 112.996 284.498 113.216C284.62 113.43 284.785 113.601 284.993 113.728C285.207 113.85 285.447 113.911 285.713 113.911ZM290.935 117.104C290.599 117.104 290.287 117.046 289.997 116.931C289.714 116.815 289.465 116.65 289.251 116.436C289.037 116.222 288.875 115.967 288.765 115.672L289.295 115.412C289.428 115.747 289.645 116.014 289.945 116.21C290.252 116.401 290.582 116.497 290.935 116.497C291.218 116.497 291.47 116.43 291.69 116.297C291.915 116.164 292.092 115.985 292.219 115.759C292.346 115.528 292.41 115.27 292.41 114.987C292.41 114.692 292.343 114.431 292.21 114.206C292.083 113.98 291.91 113.804 291.69 113.676C291.47 113.543 291.221 113.477 290.943 113.477C290.66 113.477 290.397 113.543 290.154 113.676C289.917 113.804 289.743 113.96 289.633 114.145L289.086 114.041L289.572 110.535H292.844V111.142H289.824L290.093 110.908L289.702 113.668L289.433 113.546C289.636 113.297 289.873 113.121 290.145 113.017C290.417 112.907 290.695 112.852 290.978 112.852C291.395 112.852 291.762 112.95 292.08 113.147C292.398 113.338 292.647 113.595 292.827 113.919C293.012 114.237 293.104 114.593 293.104 114.987C293.104 115.386 293.009 115.747 292.818 116.071C292.633 116.39 292.375 116.641 292.046 116.826C291.722 117.012 291.351 117.104 290.935 117.104ZM294.981 113.676L294.477 113.312L295.224 112.322L294.121 111.949L294.312 111.359L295.423 111.724V110.535H296.048V111.724L297.159 111.359L297.35 111.949L296.248 112.322L296.994 113.312L296.491 113.676L295.736 112.687L294.981 113.676ZM299.133 113.676L298.63 113.312L299.376 112.322L298.274 111.949L298.465 111.359L299.576 111.724V110.535H300.201V111.724L301.311 111.359L301.502 111.949L300.4 112.322L301.147 113.312L300.643 113.676L299.888 112.687L299.133 113.676ZM303.286 113.676L302.782 113.312L303.529 112.322L302.427 111.949L302.618 111.359L303.728 111.724V110.535H304.353V111.724L305.464 111.359L305.655 111.949L304.553 112.322L305.299 113.312L304.796 113.676L304.041 112.687L303.286 113.676ZM307.438 113.676L306.935 113.312L307.681 112.322L306.579 111.949L306.77 111.359L307.881 111.724V110.535H308.506V111.724L309.617 111.359L309.808 111.949L308.705 112.322L309.452 113.312L308.948 113.676L308.193 112.687L307.438 113.676ZM311.591 113.676L311.088 113.312L311.834 112.322L310.732 111.949L310.923 111.359L312.034 111.724V110.535H312.658V111.724L313.769 111.359L313.96 111.949L312.858 112.322L313.604 113.312L313.101 113.676L312.346 112.687L311.591 113.676ZM315.744 113.676L315.24 113.312L315.987 112.322L314.885 111.949L315.075 111.359L316.186 111.724V110.535H316.811V111.724L317.922 111.359L318.113 111.949L317.011 112.322L317.757 113.312L317.254 113.676L316.499 112.687L315.744 113.676ZM321.762 117.104C321.253 117.104 320.805 116.965 320.417 116.688C320.035 116.404 319.737 116.014 319.523 115.516C319.309 115.013 319.202 114.428 319.202 113.763C319.202 113.098 319.309 112.516 319.523 112.019C319.737 111.515 320.035 111.125 320.417 110.847C320.799 110.57 321.244 110.431 321.753 110.431C322.263 110.431 322.708 110.57 323.09 110.847C323.472 111.125 323.77 111.515 323.984 112.019C324.198 112.516 324.305 113.098 324.305 113.763C324.305 114.428 324.198 115.013 323.984 115.516C323.775 116.019 323.48 116.41 323.099 116.688C322.717 116.965 322.271 117.104 321.762 117.104ZM321.762 116.453C322.132 116.453 322.456 116.34 322.734 116.115C323.012 115.889 323.229 115.577 323.385 115.178C323.541 114.773 323.619 114.301 323.619 113.763C323.619 113.225 323.541 112.756 323.385 112.357C323.229 111.952 323.012 111.64 322.734 111.42C322.456 111.194 322.129 111.082 321.753 111.082C321.383 111.082 321.059 111.194 320.781 111.42C320.504 111.64 320.287 111.952 320.131 112.357C319.974 112.756 319.896 113.225 319.896 113.763C319.896 114.295 319.974 114.764 320.131 115.169C320.287 115.574 320.504 115.889 320.781 116.115C321.065 116.34 321.392 116.453 321.762 116.453ZM325.437 117V116.566L327.242 114.579C327.595 114.191 327.881 113.87 328.101 113.616C328.326 113.361 328.494 113.13 328.604 112.921C328.714 112.713 328.769 112.487 328.769 112.244C328.769 111.857 328.656 111.559 328.431 111.351C328.205 111.142 327.904 111.038 327.528 111.038C327.14 111.038 326.814 111.148 326.547 111.368C326.287 111.588 326.111 111.894 326.018 112.288L325.385 112.149C325.46 111.796 325.596 111.492 325.792 111.238C325.989 110.983 326.235 110.786 326.53 110.648C326.825 110.503 327.155 110.431 327.519 110.431C327.907 110.431 328.245 110.509 328.535 110.665C328.824 110.821 329.05 111.035 329.212 111.307C329.379 111.579 329.463 111.891 329.463 112.244C329.463 112.487 329.411 112.722 329.307 112.947C329.209 113.173 329.058 113.416 328.856 113.676C328.653 113.937 328.393 114.24 328.075 114.587L326.435 116.393H329.637V117H325.437Z" fill="black"/>
<path d="M261.496 135V126.06H262.672V135H261.496ZM264.528 135V128.532H265.62V129.792L265.44 129.684C265.6 129.276 265.856 128.96 266.208 128.736C266.568 128.504 266.988 128.388 267.468 128.388C267.932 128.388 268.344 128.492 268.704 128.7C269.072 128.908 269.36 129.196 269.568 129.564C269.784 129.932 269.892 130.348 269.892 130.812V135H268.764V131.172C268.764 130.812 268.7 130.508 268.572 130.26C268.444 130.012 268.26 129.82 268.02 129.684C267.788 129.54 267.52 129.468 267.216 129.468C266.912 129.468 266.64 129.54 266.4 129.684C266.168 129.82 265.984 130.016 265.848 130.272C265.712 130.52 265.644 130.82 265.644 131.172V135H264.528ZM274.489 135.144C273.857 135.144 273.293 134.996 272.797 134.7C272.309 134.404 271.925 134 271.645 133.488C271.365 132.976 271.225 132.4 271.225 131.76C271.225 131.112 271.365 130.536 271.645 130.032C271.925 129.528 272.309 129.128 272.797 128.832C273.293 128.536 273.857 128.388 274.489 128.388C274.913 128.388 275.309 128.464 275.677 128.616C276.045 128.768 276.369 128.972 276.649 129.228C276.929 129.484 277.133 129.784 277.261 130.128L276.265 130.608C276.113 130.272 275.881 130 275.569 129.792C275.257 129.576 274.897 129.468 274.489 129.468C274.097 129.468 273.741 129.568 273.421 129.768C273.109 129.968 272.861 130.24 272.677 130.584C272.493 130.928 272.401 131.324 272.401 131.772C272.401 132.204 272.493 132.596 272.677 132.948C272.861 133.292 273.109 133.564 273.421 133.764C273.741 133.964 274.097 134.064 274.489 134.064C274.897 134.064 275.257 133.96 275.569 133.752C275.881 133.536 276.113 133.252 276.265 132.9L277.261 133.404C277.133 133.74 276.929 134.04 276.649 134.304C276.369 134.56 276.045 134.764 275.677 134.916C275.309 135.068 274.913 135.144 274.489 135.144ZM281.791 135.144C281.167 135.144 280.603 135 280.099 134.712C279.595 134.416 279.195 134.012 278.899 133.5C278.603 132.988 278.455 132.408 278.455 131.76C278.455 131.112 278.599 130.536 278.887 130.032C279.183 129.528 279.583 129.128 280.087 128.832C280.591 128.536 281.159 128.388 281.791 128.388C282.415 128.388 282.979 128.536 283.483 128.832C283.987 129.12 284.383 129.516 284.671 130.02C284.967 130.524 285.115 131.104 285.115 131.76C285.115 132.416 284.963 133 284.659 133.512C284.355 134.016 283.951 134.416 283.447 134.712C282.951 135 282.399 135.144 281.791 135.144ZM281.791 134.064C282.191 134.064 282.551 133.964 282.871 133.764C283.199 133.564 283.455 133.288 283.639 132.936C283.831 132.584 283.927 132.192 283.927 131.76C283.927 131.32 283.831 130.932 283.639 130.596C283.455 130.252 283.199 129.98 282.871 129.78C282.551 129.572 282.191 129.468 281.791 129.468C281.383 129.468 281.015 129.572 280.687 129.78C280.367 129.98 280.111 130.252 279.919 130.596C279.727 130.932 279.631 131.32 279.631 131.76C279.631 132.192 279.727 132.584 279.919 132.936C280.111 133.288 280.367 133.564 280.687 133.764C281.015 133.964 281.383 134.064 281.791 134.064ZM286.571 135V128.532H287.663V129.852L287.507 129.648C287.667 129.24 287.923 128.928 288.275 128.712C288.627 128.496 289.023 128.388 289.463 128.388C289.967 128.388 290.419 128.528 290.819 128.808C291.227 129.088 291.507 129.456 291.659 129.912L291.347 129.924C291.515 129.42 291.799 129.04 292.199 128.784C292.599 128.52 293.043 128.388 293.531 128.388C293.979 128.388 294.383 128.492 294.743 128.7C295.111 128.908 295.403 129.196 295.619 129.564C295.835 129.932 295.943 130.348 295.943 130.812V135H294.815V131.172C294.815 130.812 294.751 130.508 294.623 130.26C294.495 130.012 294.319 129.82 294.095 129.684C293.879 129.54 293.623 129.468 293.327 129.468C293.039 129.468 292.779 129.54 292.547 129.684C292.323 129.82 292.143 130.016 292.007 130.272C291.879 130.52 291.815 130.82 291.815 131.172V135H290.687V131.172C290.687 130.812 290.623 130.508 290.495 130.26C290.367 130.012 290.191 129.82 289.967 129.684C289.751 129.54 289.495 129.468 289.199 129.468C288.911 129.468 288.651 129.54 288.419 129.684C288.195 129.82 288.015 130.016 287.879 130.272C287.751 130.52 287.687 130.82 287.687 131.172V135H286.571ZM297.528 135V128.532H298.644V135H297.528ZM297.528 127.5V126.06H298.644V127.5H297.528ZM300.376 135V128.532H301.468V129.792L301.288 129.684C301.448 129.276 301.704 128.96 302.056 128.736C302.416 128.504 302.836 128.388 303.316 128.388C303.78 128.388 304.192 128.492 304.552 128.7C304.92 128.908 305.208 129.196 305.416 129.564C305.632 129.932 305.74 130.348 305.74 130.812V135H304.612V131.172C304.612 130.812 304.548 130.508 304.42 130.26C304.292 130.012 304.108 129.82 303.868 129.684C303.636 129.54 303.368 129.468 303.064 129.468C302.76 129.468 302.488 129.54 302.248 129.684C302.016 129.82 301.832 130.016 301.696 130.272C301.56 130.52 301.492 130.82 301.492 131.172V135H300.376ZM310.421 137.64C309.965 137.64 309.541 137.568 309.149 137.424C308.765 137.28 308.433 137.08 308.153 136.824C307.881 136.576 307.673 136.284 307.529 135.948L308.573 135.468C308.685 135.772 308.897 136.028 309.209 136.236C309.529 136.452 309.929 136.56 310.409 136.56C310.777 136.56 311.109 136.488 311.405 136.344C311.709 136.208 311.949 136 312.125 135.72C312.301 135.448 312.389 135.116 312.389 134.724V133.272L312.593 133.488C312.369 133.928 312.045 134.264 311.621 134.496C311.205 134.728 310.745 134.844 310.241 134.844C309.633 134.844 309.089 134.704 308.609 134.424C308.129 134.136 307.753 133.748 307.481 133.26C307.209 132.764 307.073 132.216 307.073 131.616C307.073 131.008 307.209 130.46 307.481 129.972C307.753 129.484 308.125 129.1 308.597 128.82C309.077 128.532 309.621 128.388 310.229 128.388C310.733 128.388 311.189 128.504 311.597 128.736C312.013 128.96 312.345 129.272 312.593 129.672L312.425 129.972V128.532H313.517V134.724C313.517 135.284 313.385 135.784 313.121 136.224C312.857 136.664 312.489 137.008 312.017 137.256C311.553 137.512 311.021 137.64 310.421 137.64ZM310.337 133.764C310.721 133.764 311.065 133.668 311.369 133.476C311.681 133.284 311.929 133.028 312.113 132.708C312.297 132.38 312.389 132.016 312.389 131.616C312.389 131.224 312.297 130.864 312.113 130.536C311.929 130.208 311.681 129.948 311.369 129.756C311.065 129.564 310.721 129.468 310.337 129.468C309.945 129.468 309.589 129.564 309.269 129.756C308.949 129.948 308.697 130.208 308.513 130.536C308.337 130.856 308.249 131.216 308.249 131.616C308.249 132.016 308.337 132.38 308.513 132.708C308.697 133.028 308.945 133.284 309.257 133.476C309.577 133.668 309.937 133.764 310.337 133.764ZM321.569 135.144C320.937 135.144 320.353 135.032 319.817 134.808C319.289 134.576 318.825 134.252 318.425 133.836C318.033 133.42 317.729 132.932 317.513 132.372C317.297 131.812 317.189 131.2 317.189 130.536C317.189 129.864 317.297 129.248 317.513 128.688C317.729 128.128 318.033 127.64 318.425 127.224C318.817 126.808 319.281 126.488 319.817 126.264C320.353 126.032 320.937 125.916 321.569 125.916C322.185 125.916 322.737 126.024 323.225 126.24C323.721 126.456 324.137 126.736 324.473 127.08C324.817 127.424 325.061 127.792 325.205 128.184L324.125 128.676C323.917 128.18 323.593 127.78 323.153 127.476C322.713 127.164 322.185 127.008 321.569 127.008C320.945 127.008 320.389 127.156 319.901 127.452C319.421 127.748 319.045 128.16 318.773 128.688C318.501 129.216 318.365 129.832 318.365 130.536C318.365 131.232 318.501 131.844 318.773 132.372C319.045 132.9 319.421 133.312 319.901 133.608C320.389 133.904 320.945 134.052 321.569 134.052C322.185 134.052 322.713 133.9 323.153 133.596C323.593 133.284 323.917 132.88 324.125 132.384L325.205 132.876C325.061 133.268 324.817 133.636 324.473 133.98C324.137 134.324 323.721 134.604 323.225 134.82C322.737 135.036 322.185 135.144 321.569 135.144ZM328.451 135.144C328.027 135.144 327.651 135.068 327.323 134.916C327.003 134.756 326.751 134.54 326.567 134.268C326.383 133.988 326.291 133.668 326.291 133.308C326.291 132.964 326.363 132.656 326.507 132.384C326.659 132.104 326.891 131.868 327.203 131.676C327.523 131.484 327.923 131.348 328.403 131.268L330.803 130.872V131.808L328.655 132.168C328.239 132.24 327.935 132.372 327.743 132.564C327.559 132.756 327.467 132.992 327.467 133.272C327.467 133.536 327.571 133.756 327.779 133.932C327.995 134.108 328.263 134.196 328.583 134.196C328.991 134.196 329.343 134.112 329.639 133.944C329.943 133.768 330.179 133.532 330.347 133.236C330.523 132.94 330.611 132.612 330.611 132.252V130.608C330.611 130.256 330.479 129.972 330.215 129.756C329.959 129.532 329.619 129.42 329.195 129.42C328.827 129.42 328.499 129.516 328.211 129.708C327.931 129.892 327.723 130.14 327.587 130.452L326.615 129.948C326.735 129.652 326.927 129.388 327.191 129.156C327.455 128.916 327.763 128.728 328.115 128.592C328.467 128.456 328.835 128.388 329.219 128.388C329.715 128.388 330.151 128.484 330.527 128.676C330.903 128.86 331.195 129.12 331.403 129.456C331.619 129.784 331.727 130.168 331.727 130.608V135H330.635V133.776L330.839 133.848C330.703 134.104 330.519 134.328 330.287 134.52C330.055 134.712 329.783 134.864 329.471 134.976C329.159 135.088 328.819 135.144 328.451 135.144ZM333.458 135V125.916H334.574V135H333.458ZM336.305 135V125.916H337.421V135H336.305Z" fill="black"/>
<path d="M218.888 46L220.928 43.36L221.088 43.464C221.013 43.544 220.931 43.608 220.84 43.656C220.755 43.704 220.661 43.7387 220.56 43.76C220.464 43.7813 220.36 43.792 220.248 43.792C219.891 43.792 219.571 43.712 219.288 43.552C219.005 43.3867 218.781 43.1627 218.616 42.88C218.456 42.592 218.376 42.2667 218.376 41.904C218.376 41.5253 218.464 41.1893 218.64 40.896C218.816 40.6027 219.056 40.3707 219.36 40.2C219.664 40.0293 220.011 39.944 220.4 39.944C220.795 39.944 221.141 40.0293 221.44 40.2C221.744 40.3707 221.981 40.6053 222.152 40.904C222.328 41.1973 222.416 41.5333 222.416 41.912C222.416 42.1147 222.395 42.3147 222.352 42.512C222.309 42.7093 222.235 42.9147 222.128 43.128C222.021 43.336 221.872 43.5653 221.68 43.816L220.016 46H218.888ZM220.4 43C220.608 43 220.792 42.952 220.952 42.856C221.112 42.76 221.24 42.6293 221.336 42.464C221.432 42.2987 221.48 42.1093 221.48 41.896C221.48 41.6773 221.432 41.4853 221.336 41.32C221.24 41.1493 221.109 41.0187 220.944 40.928C220.784 40.832 220.603 40.784 220.4 40.784C220.197 40.784 220.013 40.832 219.848 40.928C219.688 41.0187 219.56 41.1493 219.464 41.32C219.368 41.4853 219.32 41.6773 219.32 41.896C219.32 42.1093 219.365 42.2987 219.456 42.464C219.552 42.6293 219.683 42.76 219.848 42.856C220.013 42.952 220.197 43 220.4 43ZM223.733 46V44.96H224.653V46H223.733ZM223.733 42.712V41.672H224.653V42.712H223.733ZM228.73 46V44.656H225.89V43.872L228.69 40.04H229.626V43.872H230.45V44.656H229.626V46H228.73ZM226.586 44.216L226.434 43.872H228.73V40.792L228.986 40.872L226.586 44.216ZM232.158 46V40.84H231.014V40.04H233.094V46H232.158Z" fill="#212528"/>
<path d="M340.924 47H340.174C339.975 47 339.784 46.921 339.643 46.7803C339.503 46.6397 339.424 46.4489 339.424 46.25V39.75C339.424 39.5511 339.503 39.3603 339.643 39.2197C339.784 39.079 339.975 39 340.174 39H340.924C341.123 39 341.313 39.079 341.454 39.2197C341.595 39.3603 341.674 39.5511 341.674 39.75V46.25C341.674 46.4489 341.595 46.6397 341.454 46.7803C341.313 46.921 341.123 47 340.924 47ZM337.424 47H336.674C336.475 47 336.284 46.921 336.143 46.7803C336.003 46.6397 335.924 46.4489 335.924 46.25V41.5004C335.924 41.3015 336.003 41.1108 336.143 40.9701C336.284 40.8295 336.475 40.7504 336.674 40.7504H337.424C337.623 40.7504 337.813 40.8295 337.954 40.9701C338.095 41.1108 338.174 41.3015 338.174 41.5004V46.25C338.174 46.4488 338.095 46.6394 337.954 46.7801C337.814 46.9207 337.623 46.9998 337.424 47H337.424ZM333.923 47H333.174C332.975 47 332.784 46.921 332.643 46.7803C332.503 46.6397 332.424 46.4489 332.424 46.25V43.2501C332.424 43.0512 332.503 42.8605 332.643 42.7198C332.784 42.5792 332.975 42.5001 333.174 42.5001H333.923C334.122 42.5001 334.313 42.5792 334.454 42.7198C334.594 42.8605 334.673 43.0512 334.673 43.2501V46.25C334.673 46.4489 334.594 46.6397 334.454 46.7803C334.313 46.921 334.122 47 333.923 47ZM330.424 47H329.674C329.475 47 329.284 46.921 329.144 46.7803C329.003 46.6397 328.924 46.4489 328.924 46.25V44.7501C328.924 44.5512 329.003 44.3604 329.144 44.2198C329.284 44.0791 329.475 44.0001 329.674 44.0001H330.424C330.623 44.0001 330.814 44.0791 330.954 44.2198C331.095 44.3604 331.174 44.5512 331.174 44.7501V46.25C331.174 46.4489 331.095 46.6397 330.954 46.7803C330.814 46.921 330.623 47 330.424 47Z" fill="#212528"/>
<path d="M353.252 47C353.222 46.9999 353.192 46.9939 353.165 46.9823C353.137 46.9706 353.112 46.9537 353.091 46.9323L351.631 45.4613C351.609 45.4396 351.591 45.4134 351.579 45.3845C351.568 45.3555 351.562 45.3245 351.563 45.2933C351.563 45.2622 351.57 45.2316 351.582 45.2032C351.595 45.1749 351.613 45.1493 351.636 45.1281C352.087 44.7467 352.659 44.5375 353.25 44.5375C353.84 44.5375 354.412 44.7467 354.864 45.1281C354.887 45.1491 354.905 45.1746 354.918 45.203C354.931 45.2314 354.938 45.2621 354.939 45.2933C354.939 45.3245 354.933 45.3555 354.922 45.3844C354.91 45.4133 354.892 45.4394 354.87 45.4613L353.414 46.9323C353.392 46.9537 353.367 46.9706 353.34 46.9823C353.312 46.9939 353.282 46.9999 353.252 47ZM355.815 44.4181C355.757 44.418 355.701 44.3956 355.659 44.3555C355 43.7592 354.142 43.429 353.254 43.429C352.365 43.429 351.508 43.7592 350.848 44.3555C350.806 44.3956 350.75 44.418 350.692 44.4181C350.662 44.4182 350.633 44.4124 350.605 44.401C350.578 44.3897 350.553 44.373 350.532 44.3519L349.688 43.4999C349.666 43.4781 349.648 43.4521 349.636 43.4234C349.624 43.3946 349.618 43.3638 349.618 43.3326C349.618 43.3014 349.624 43.2706 349.636 43.2419C349.648 43.2131 349.666 43.1871 349.688 43.1653C350.656 42.2659 351.928 41.766 353.25 41.766C354.571 41.766 355.843 42.2659 356.811 43.1653C356.834 43.1869 356.852 43.2129 356.864 43.2416C356.877 43.2703 356.883 43.3013 356.884 43.3326C356.884 43.3637 356.878 43.3945 356.866 43.4233C356.854 43.452 356.837 43.4781 356.815 43.4999L355.974 44.3519C355.954 44.3728 355.929 44.3895 355.901 44.4009C355.874 44.4122 355.845 44.4181 355.815 44.4181ZM357.757 42.4589C357.728 42.4591 357.699 42.4536 357.672 42.4426C357.645 42.4316 357.621 42.4154 357.6 42.3948C356.427 41.2803 354.87 40.6589 353.252 40.6589C351.633 40.6589 350.077 41.2803 348.903 42.3948C348.882 42.4157 348.858 42.4322 348.83 42.4435C348.803 42.4548 348.774 42.4606 348.745 42.4606C348.715 42.4606 348.686 42.4548 348.659 42.4435C348.632 42.4322 348.607 42.4157 348.587 42.3948L347.743 41.5437C347.721 41.5218 347.703 41.4959 347.692 41.4674C347.68 41.4389 347.674 41.4083 347.674 41.3774C347.674 41.3465 347.68 41.316 347.692 41.2874C347.703 41.2589 347.721 41.233 347.743 41.2112C349.225 39.7921 351.198 39 353.25 39C355.302 39 357.275 39.7921 358.758 41.2112C358.78 41.233 358.797 41.2589 358.809 41.2874C358.821 41.316 358.827 41.3465 358.827 41.3774C358.827 41.4083 358.821 41.4389 358.809 41.4674C358.797 41.4959 358.78 41.5218 358.758 41.5437L357.913 42.3948C357.872 42.4359 357.815 42.4589 357.757 42.4589Z" fill="#212528"/>
<g opacity="0.35">
<path opacity="0.35" d="M378.474 39.3535H366.709C365.865 39.3535 365.18 40.0384 365.18 40.8832V45.1179C365.18 45.9627 365.865 46.6476 366.709 46.6476H378.474C379.319 46.6476 380.004 45.9627 380.004 45.1179V40.8832C380.004 40.0384 379.319 39.3535 378.474 39.3535Z" stroke="#212528" stroke-miterlimit="10"/>
</g>
<path opacity="0.4" d="M381.063 41.5898V44.4135C381.34 44.2965 381.578 44.1001 381.744 43.849C381.911 43.5979 382 43.3031 382 43.0016C382 42.7002 381.911 42.4054 381.744 42.1543C381.578 41.9032 381.34 41.7068 381.063 41.5898" fill="#212528"/>
<path d="M378.004 40.4121H367.18C366.66 40.4121 366.239 40.8334 366.239 41.3531V44.6475C366.239 45.1672 366.66 45.5885 367.18 45.5885H378.004C378.524 45.5885 378.945 45.1672 378.945 44.6475V41.3531C378.945 40.8334 378.524 40.4121 378.004 40.4121Z" fill="#212528"/>
<path d="M146.367 115L141.667 119.7L156.933 135L141.667 150.3L146.367 155L166.367 135L146.367 115Z" fill="#4CD9D9" fill-opacity="0.16"/>
<path d="M168.333 115L163.633 119.7L178.9 135L163.633 150.3L168.333 155L188.333 135L168.333 115Z" fill="#4CD9D9" fill-opacity="0.16"/>
<path d="M42.304 103V79.16H46.656V103H42.304ZM50.8895 103V85.592H54.8255V89.016L54.5055 88.408C54.9108 87.3627 55.5722 86.5733 56.4895 86.04C57.4282 85.4853 58.5162 85.208 59.7535 85.208C61.0335 85.208 62.1642 85.4853 63.1455 86.04C64.1482 86.5947 64.9268 87.3733 65.4815 88.376C66.0362 89.3573 66.3135 90.4987 66.3135 91.8V103H62.1215V92.792C62.1215 92.024 61.9722 91.3627 61.6735 90.808C61.3748 90.2533 60.9588 89.8267 60.4255 89.528C59.9135 89.208 59.3055 89.048 58.6015 89.048C57.9188 89.048 57.3108 89.208 56.7775 89.528C56.2442 89.8267 55.8282 90.2533 55.5295 90.808C55.2308 91.3627 55.0815 92.024 55.0815 92.792V103H50.8895ZM78.2423 103.384C76.5143 103.384 74.9569 102.989 73.5703 102.2C72.2049 101.389 71.1276 100.301 70.3383 98.936C69.5489 97.5493 69.1543 95.992 69.1543 94.264C69.1543 92.536 69.5489 90.9893 70.3383 89.624C71.1276 88.2587 72.2049 87.1813 73.5703 86.392C74.9569 85.6027 76.5143 85.208 78.2423 85.208C79.4796 85.208 80.6316 85.432 81.6983 85.88C82.7649 86.3067 83.6823 86.904 84.4503 87.672C85.2396 88.4187 85.8049 89.3147 86.1463 90.36L82.4663 91.96C82.1463 91.0853 81.6023 90.3813 80.8343 89.848C80.0876 89.3147 79.2236 89.048 78.2423 89.048C77.3249 89.048 76.5036 89.272 75.7783 89.72C75.0743 90.168 74.5196 90.7867 74.1143 91.576C73.7089 92.3653 73.5063 93.272 73.5063 94.296C73.5063 95.32 73.7089 96.2267 74.1143 97.016C74.5196 97.8053 75.0743 98.424 75.7783 98.872C76.5036 99.32 77.3249 99.544 78.2423 99.544C79.2449 99.544 80.1196 99.2773 80.8663 98.744C81.6129 98.2107 82.1463 97.496 82.4663 96.6L86.1463 98.264C85.8049 99.2453 85.2503 100.131 84.4823 100.92C83.7143 101.688 82.7969 102.296 81.7303 102.744C80.6636 103.171 79.5009 103.384 78.2423 103.384ZM97.839 103.384C96.1323 103.384 94.575 102.989 93.167 102.2C91.7803 101.411 90.671 100.333 89.839 98.968C89.0283 97.6027 88.623 96.0453 88.623 94.296C88.623 92.5467 89.0283 90.9893 89.839 89.624C90.671 88.2587 91.7803 87.1813 93.167 86.392C94.5537 85.6027 96.111 85.208 97.839 85.208C99.5457 85.208 101.092 85.6027 102.479 86.392C103.866 87.1813 104.964 88.2587 105.775 89.624C106.607 90.968 107.023 92.5253 107.023 94.296C107.023 96.0453 106.607 97.6027 105.775 98.968C104.943 100.333 103.834 101.411 102.447 102.2C101.06 102.989 99.5243 103.384 97.839 103.384ZM97.839 99.544C98.7777 99.544 99.599 99.32 100.303 98.872C101.028 98.424 101.594 97.8053 101.999 97.016C102.426 96.2053 102.639 95.2987 102.639 94.296C102.639 93.272 102.426 92.376 101.999 91.608C101.594 90.8187 101.028 90.2 100.303 89.752C99.599 89.2827 98.7777 89.048 97.839 89.048C96.879 89.048 96.0363 89.2827 95.311 89.752C94.5857 90.2 94.0097 90.8187 93.583 91.608C93.1777 92.376 92.975 93.272 92.975 94.296C92.975 95.2987 93.1777 96.2053 93.583 97.016C94.0097 97.8053 94.5857 98.424 95.311 98.872C96.0363 99.32 96.879 99.544 97.839 99.544ZM110.202 103V85.592H114.138V89.624L113.69 88.952C114.01 87.6933 114.65 86.7547 115.61 86.136C116.57 85.5173 117.701 85.208 119.002 85.208C120.431 85.208 121.69 85.5813 122.778 86.328C123.866 87.0747 124.57 88.056 124.89 89.272L123.706 89.368C124.239 87.9813 125.039 86.9467 126.106 86.264C127.173 85.56 128.399 85.208 129.786 85.208C131.023 85.208 132.122 85.4853 133.082 86.04C134.063 86.5947 134.831 87.3733 135.386 88.376C135.941 89.3573 136.218 90.4987 136.218 91.8V103H132.026V92.792C132.026 92.024 131.887 91.3627 131.61 90.808C131.333 90.2533 130.949 89.8267 130.458 89.528C129.967 89.208 129.37 89.048 128.666 89.048C128.005 89.048 127.418 89.208 126.906 89.528C126.394 89.8267 125.999 90.2533 125.722 90.808C125.445 91.3627 125.306 92.024 125.306 92.792V103H121.114V92.792C121.114 92.024 120.975 91.3627 120.698 90.808C120.421 90.2533 120.026 89.8267 119.514 89.528C119.023 89.208 118.437 89.048 117.754 89.048C117.093 89.048 116.506 89.208 115.994 89.528C115.482 89.8267 115.087 90.2533 114.81 90.808C114.533 91.3627 114.394 92.024 114.394 92.792V103H110.202ZM139.765 103V85.592H143.957V103H139.765ZM139.765 83.64V79.16H143.957V83.64H139.765ZM147.827 103V85.592H151.763V89.016L151.443 88.408C151.848 87.3627 152.51 86.5733 153.427 86.04C154.366 85.4853 155.454 85.208 156.691 85.208C157.971 85.208 159.102 85.4853 160.083 86.04C161.086 86.5947 161.864 87.3733 162.419 88.376C162.974 89.3573 163.251 90.4987 163.251 91.8V103H159.059V92.792C159.059 92.024 158.91 91.3627 158.611 90.808C158.312 90.2533 157.896 89.8267 157.363 89.528C156.851 89.208 156.243 89.048 155.539 89.048C154.856 89.048 154.248 89.208 153.715 89.528C153.182 89.8267 152.766 90.2533 152.467 90.808C152.168 91.3627 152.019 92.024 152.019 92.792V103H147.827ZM175.244 110.04C173.942 110.04 172.737 109.827 171.628 109.4C170.518 108.973 169.558 108.376 168.748 107.608C167.958 106.861 167.382 105.976 167.02 104.952L170.924 103.48C171.18 104.291 171.681 104.941 172.428 105.432C173.196 105.944 174.134 106.2 175.244 106.2C176.097 106.2 176.844 106.04 177.484 105.72C178.145 105.4 178.657 104.931 179.02 104.312C179.382 103.715 179.564 102.989 179.564 102.136V98.168L180.364 99.128C179.766 100.173 178.966 100.963 177.964 101.496C176.961 102.029 175.82 102.296 174.54 102.296C172.918 102.296 171.468 101.923 170.188 101.176C168.908 100.429 167.905 99.4053 167.18 98.104C166.454 96.8027 166.092 95.3413 166.092 93.72C166.092 92.0773 166.454 90.616 167.18 89.336C167.905 88.056 168.897 87.0533 170.156 86.328C171.414 85.5813 172.844 85.208 174.444 85.208C175.745 85.208 176.886 85.4853 177.868 86.04C178.87 86.5733 179.702 87.352 180.364 88.376L179.788 89.432V85.592H183.756V102.136C183.756 103.651 183.382 105.005 182.636 106.2C181.91 107.395 180.908 108.333 179.628 109.016C178.369 109.699 176.908 110.04 175.244 110.04ZM175.052 98.424C175.948 98.424 176.726 98.232 177.388 97.848C178.07 97.4427 178.604 96.888 178.988 96.184C179.372 95.48 179.564 94.6693 179.564 93.752C179.564 92.856 179.361 92.056 178.956 91.352C178.572 90.6267 178.038 90.0613 177.356 89.656C176.694 89.2507 175.926 89.048 175.052 89.048C174.177 89.048 173.388 89.2507 172.684 89.656C171.98 90.0613 171.425 90.6267 171.02 91.352C170.636 92.056 170.444 92.856 170.444 93.752C170.444 94.648 170.636 95.448 171.02 96.152C171.425 96.856 171.969 97.4107 172.652 97.816C173.356 98.2213 174.156 98.424 175.052 98.424ZM53.504 143.384C51.7973 143.384 50.2187 143.075 48.768 142.456C47.3387 141.837 46.08 140.973 44.992 139.864C43.9253 138.755 43.0933 137.453 42.496 135.96C41.8987 134.467 41.6 132.835 41.6 131.064C41.6 129.293 41.888 127.661 42.464 126.168C43.0613 124.653 43.8933 123.352 44.96 122.264C46.048 121.155 47.3173 120.301 48.768 119.704C50.2187 119.085 51.7973 118.776 53.504 118.776C55.2107 118.776 56.736 119.064 58.08 119.64C59.4453 120.216 60.5973 120.984 61.536 121.944C62.4747 122.883 63.1467 123.917 63.552 125.048L59.648 126.872C59.2 125.677 58.4427 124.696 57.376 123.928C56.3093 123.139 55.0187 122.744 53.504 122.744C52.0107 122.744 50.688 123.096 49.536 123.8C48.4053 124.504 47.52 125.475 46.88 126.712C46.2613 127.949 45.952 129.4 45.952 131.064C45.952 132.728 46.2613 134.189 46.88 135.448C47.52 136.685 48.4053 137.656 49.536 138.36C50.688 139.064 52.0107 139.416 53.504 139.416C55.0187 139.416 56.3093 139.032 57.376 138.264C58.4427 137.475 59.2 136.483 59.648 135.288L63.552 137.112C63.1467 138.243 62.4747 139.288 61.536 140.248C60.5973 141.187 59.4453 141.944 58.08 142.52C56.736 143.096 55.2107 143.384 53.504 143.384ZM71.7008 143.384C70.4848 143.384 69.4288 143.181 68.5328 142.776C67.6368 142.371 66.9434 141.795 66.4528 141.048C65.9621 140.28 65.7168 139.395 65.7168 138.392C65.7168 137.432 65.9301 136.579 66.3568 135.832C66.7834 135.064 67.4448 134.424 68.3408 133.912C69.2368 133.4 70.3674 133.037 71.7328 132.824L77.4288 131.896V135.096L72.5328 135.928C71.7008 136.077 71.0821 136.344 70.6768 136.728C70.2714 137.112 70.0688 137.613 70.0688 138.232C70.0688 138.829 70.2928 139.309 70.7408 139.672C71.2101 140.013 71.7861 140.184 72.4688 140.184C73.3434 140.184 74.1114 140.003 74.7728 139.64C75.4554 139.256 75.9781 138.733 76.3408 138.072C76.7248 137.411 76.9168 136.685 76.9168 135.896V131.416C76.9168 130.669 76.6181 130.051 76.0208 129.56C75.4448 129.048 74.6768 128.792 73.7168 128.792C72.8208 128.792 72.0208 129.037 71.3168 129.528C70.6341 129.997 70.1328 130.627 69.8128 131.416L66.3888 129.752C66.7301 128.835 67.2634 128.045 67.9888 127.384C68.7354 126.701 69.6101 126.168 70.6128 125.784C71.6154 125.4 72.7034 125.208 73.8767 125.208C75.3061 125.208 76.5648 125.475 77.6528 126.008C78.7408 126.52 79.5834 127.245 80.1808 128.184C80.7994 129.101 81.1088 130.179 81.1088 131.416V143H77.1408V140.024L78.0368 139.96C77.5888 140.707 77.0554 141.336 76.4368 141.848C75.8181 142.339 75.1141 142.723 74.3248 143C73.5354 143.256 72.6608 143.384 71.7008 143.384ZM84.9833 143V118.776H89.1753V143H84.9833ZM93.0458 143V118.776H97.2378V143H93.0458ZM107.732 143.384C105.876 143.384 104.255 142.947 102.868 142.072C101.503 141.176 100.564 139.971 100.052 138.456L103.188 136.952C103.636 137.933 104.255 138.701 105.044 139.256C105.855 139.811 106.751 140.088 107.732 140.088C108.5 140.088 109.108 139.917 109.556 139.576C110.004 139.235 110.228 138.787 110.228 138.232C110.228 137.891 110.132 137.613 109.94 137.4C109.77 137.165 109.524 136.973 109.204 136.824C108.906 136.653 108.575 136.515 108.212 136.408L105.364 135.608C103.892 135.181 102.772 134.531 102.004 133.656C101.258 132.781 100.884 131.747 100.884 130.552C100.884 129.485 101.151 128.557 101.684 127.768C102.239 126.957 102.996 126.328 103.956 125.88C104.938 125.432 106.058 125.208 107.316 125.208C108.959 125.208 110.41 125.603 111.668 126.392C112.927 127.181 113.823 128.291 114.356 129.72L111.156 131.224C110.858 130.435 110.356 129.805 109.652 129.336C108.948 128.867 108.159 128.632 107.284 128.632C106.58 128.632 106.026 128.792 105.62 129.112C105.215 129.432 105.012 129.848 105.012 130.36C105.012 130.68 105.098 130.957 105.268 131.192C105.439 131.427 105.674 131.619 105.972 131.768C106.292 131.917 106.655 132.056 107.06 132.184L109.844 133.016C111.274 133.443 112.372 134.083 113.14 134.936C113.93 135.789 114.324 136.835 114.324 138.072C114.324 139.117 114.047 140.045 113.492 140.856C112.938 141.645 112.17 142.264 111.188 142.712C110.207 143.16 109.055 143.384 107.732 143.384Z" fill="#24B3B3"/>
<path d="M405.304 296V272.16H409.656V296H405.304ZM413.89 296V278.592H417.826V282.016L417.506 281.408C417.911 280.363 418.572 279.573 419.49 279.04C420.428 278.485 421.516 278.208 422.754 278.208C424.034 278.208 425.164 278.485 426.146 279.04C427.148 279.595 427.927 280.373 428.482 281.376C429.036 282.357 429.314 283.499 429.314 284.8V296H425.122V285.792C425.122 285.024 424.972 284.363 424.674 283.808C424.375 283.253 423.959 282.827 423.426 282.528C422.914 282.208 422.306 282.048 421.602 282.048C420.919 282.048 420.311 282.208 419.778 282.528C419.244 282.827 418.828 283.253 418.53 283.808C418.231 284.363 418.082 285.024 418.082 285.792V296H413.89ZM441.242 296.384C439.514 296.384 437.957 295.989 436.57 295.2C435.205 294.389 434.128 293.301 433.338 291.936C432.549 290.549 432.154 288.992 432.154 287.264C432.154 285.536 432.549 283.989 433.338 282.624C434.128 281.259 435.205 280.181 436.57 279.392C437.957 278.603 439.514 278.208 441.242 278.208C442.48 278.208 443.632 278.432 444.698 278.88C445.765 279.307 446.682 279.904 447.45 280.672C448.24 281.419 448.805 282.315 449.146 283.36L445.466 284.96C445.146 284.085 444.602 283.381 443.834 282.848C443.088 282.315 442.224 282.048 441.242 282.048C440.325 282.048 439.504 282.272 438.778 282.72C438.074 283.168 437.52 283.787 437.114 284.576C436.709 285.365 436.506 286.272 436.506 287.296C436.506 288.32 436.709 289.227 437.114 290.016C437.52 290.805 438.074 291.424 438.778 291.872C439.504 292.32 440.325 292.544 441.242 292.544C442.245 292.544 443.12 292.277 443.866 291.744C444.613 291.211 445.146 290.496 445.466 289.6L449.146 291.264C448.805 292.245 448.25 293.131 447.482 293.92C446.714 294.688 445.797 295.296 444.73 295.744C443.664 296.171 442.501 296.384 441.242 296.384ZM460.839 296.384C459.132 296.384 457.575 295.989 456.167 295.2C454.78 294.411 453.671 293.333 452.839 291.968C452.028 290.603 451.623 289.045 451.623 287.296C451.623 285.547 452.028 283.989 452.839 282.624C453.671 281.259 454.78 280.181 456.167 279.392C457.554 278.603 459.111 278.208 460.839 278.208C462.546 278.208 464.092 278.603 465.479 279.392C466.866 280.181 467.964 281.259 468.775 282.624C469.607 283.968 470.023 285.525 470.023 287.296C470.023 289.045 469.607 290.603 468.775 291.968C467.943 293.333 466.834 294.411 465.447 295.2C464.06 295.989 462.524 296.384 460.839 296.384ZM460.839 292.544C461.778 292.544 462.599 292.32 463.303 291.872C464.028 291.424 464.594 290.805 464.999 290.016C465.426 289.205 465.639 288.299 465.639 287.296C465.639 286.272 465.426 285.376 464.999 284.608C464.594 283.819 464.028 283.2 463.303 282.752C462.599 282.283 461.778 282.048 460.839 282.048C459.879 282.048 459.036 282.283 458.311 282.752C457.586 283.2 457.01 283.819 456.583 284.608C456.178 285.376 455.975 286.272 455.975 287.296C455.975 288.299 456.178 289.205 456.583 290.016C457.01 290.805 457.586 291.424 458.311 291.872C459.036 292.32 459.879 292.544 460.839 292.544ZM473.202 296V278.592H477.138V282.624L476.69 281.952C477.01 280.693 477.65 279.755 478.61 279.136C479.57 278.517 480.701 278.208 482.002 278.208C483.431 278.208 484.69 278.581 485.778 279.328C486.866 280.075 487.57 281.056 487.89 282.272L486.706 282.368C487.239 280.981 488.039 279.947 489.106 279.264C490.173 278.56 491.399 278.208 492.786 278.208C494.023 278.208 495.122 278.485 496.082 279.04C497.063 279.595 497.831 280.373 498.386 281.376C498.941 282.357 499.218 283.499 499.218 284.8V296H495.026V285.792C495.026 285.024 494.887 284.363 494.61 283.808C494.333 283.253 493.949 282.827 493.458 282.528C492.967 282.208 492.37 282.048 491.666 282.048C491.005 282.048 490.418 282.208 489.906 282.528C489.394 282.827 488.999 283.253 488.722 283.808C488.445 284.363 488.306 285.024 488.306 285.792V296H484.114V285.792C484.114 285.024 483.975 284.363 483.698 283.808C483.421 283.253 483.026 282.827 482.514 282.528C482.023 282.208 481.437 282.048 480.754 282.048C480.093 282.048 479.506 282.208 478.994 282.528C478.482 282.827 478.087 283.253 477.81 283.808C477.533 284.363 477.394 285.024 477.394 285.792V296H473.202ZM502.765 296V278.592H506.957V296H502.765ZM502.765 276.64V272.16H506.957V276.64H502.765ZM510.827 296V278.592H514.763V282.016L514.443 281.408C514.848 280.363 515.51 279.573 516.427 279.04C517.366 278.485 518.454 278.208 519.691 278.208C520.971 278.208 522.102 278.485 523.083 279.04C524.086 279.595 524.864 280.373 525.419 281.376C525.974 282.357 526.251 283.499 526.251 284.8V296H522.059V285.792C522.059 285.024 521.91 284.363 521.611 283.808C521.312 283.253 520.896 282.827 520.363 282.528C519.851 282.208 519.243 282.048 518.539 282.048C517.856 282.048 517.248 282.208 516.715 282.528C516.182 282.827 515.766 283.253 515.467 283.808C515.168 284.363 515.019 285.024 515.019 285.792V296H510.827ZM538.244 303.04C536.942 303.04 535.737 302.827 534.628 302.4C533.518 301.973 532.558 301.376 531.748 300.608C530.958 299.861 530.382 298.976 530.02 297.952L533.924 296.48C534.18 297.291 534.681 297.941 535.428 298.432C536.196 298.944 537.134 299.2 538.244 299.2C539.097 299.2 539.844 299.04 540.484 298.72C541.145 298.4 541.657 297.931 542.02 297.312C542.382 296.715 542.564 295.989 542.564 295.136V291.168L543.364 292.128C542.766 293.173 541.966 293.963 540.964 294.496C539.961 295.029 538.82 295.296 537.54 295.296C535.918 295.296 534.468 294.923 533.188 294.176C531.908 293.429 530.905 292.405 530.18 291.104C529.454 289.803 529.092 288.341 529.092 286.72C529.092 285.077 529.454 283.616 530.18 282.336C530.905 281.056 531.897 280.053 533.156 279.328C534.414 278.581 535.844 278.208 537.444 278.208C538.745 278.208 539.886 278.485 540.868 279.04C541.87 279.573 542.702 280.352 543.364 281.376L542.788 282.432V278.592H546.756V295.136C546.756 296.651 546.382 298.005 545.636 299.2C544.91 300.395 543.908 301.333 542.628 302.016C541.369 302.699 539.908 303.04 538.244 303.04ZM538.052 291.424C538.948 291.424 539.726 291.232 540.388 290.848C541.07 290.443 541.604 289.888 541.988 289.184C542.372 288.48 542.564 287.669 542.564 286.752C542.564 285.856 542.361 285.056 541.956 284.352C541.572 283.627 541.038 283.061 540.356 282.656C539.694 282.251 538.926 282.048 538.052 282.048C537.177 282.048 536.388 282.251 535.684 282.656C534.98 283.061 534.425 283.627 534.02 284.352C533.636 285.056 533.444 285.856 533.444 286.752C533.444 287.648 533.636 288.448 534.02 289.152C534.425 289.856 534.969 290.411 535.652 290.816C536.356 291.221 537.156 291.424 538.052 291.424ZM413.816 336.384C412.301 336.384 410.893 336.107 409.592 335.552C408.312 334.997 407.203 334.229 406.264 333.248C405.347 332.245 404.675 331.083 404.248 329.76L407.864 328.192C408.44 329.557 409.272 330.635 410.36 331.424C411.448 332.192 412.675 332.576 414.04 332.576C414.808 332.576 415.469 332.459 416.024 332.224C416.6 331.968 417.037 331.627 417.336 331.2C417.656 330.773 417.816 330.261 417.816 329.664C417.816 328.96 417.603 328.384 417.176 327.936C416.771 327.467 416.152 327.104 415.32 326.848L410.744 325.376C408.888 324.8 407.491 323.936 406.552 322.784C405.613 321.632 405.144 320.277 405.144 318.72C405.144 317.355 405.475 316.149 406.136 315.104C406.819 314.059 407.757 313.248 408.952 312.672C410.168 312.075 411.555 311.776 413.112 311.776C414.541 311.776 415.853 312.032 417.048 312.544C418.243 313.035 419.267 313.728 420.12 314.624C420.995 315.499 421.645 316.533 422.072 317.728L418.488 319.328C418.019 318.133 417.315 317.216 416.376 316.576C415.437 315.915 414.349 315.584 413.112 315.584C412.387 315.584 411.747 315.712 411.192 315.968C410.637 316.203 410.2 316.544 409.88 316.992C409.581 317.419 409.432 317.931 409.432 318.528C409.432 319.189 409.645 319.776 410.072 320.288C410.499 320.779 411.149 321.163 412.024 321.44L416.408 322.816C418.307 323.435 419.725 324.288 420.664 325.376C421.624 326.464 422.104 327.808 422.104 329.408C422.104 330.773 421.752 331.979 421.048 333.024C420.344 334.069 419.373 334.891 418.136 335.488C416.899 336.085 415.459 336.384 413.816 336.384ZM426.023 336V312.16H430.183L439.111 324.288H437.127L445.863 312.16H450.023V336H445.639V317.12L447.335 317.536L438.279 329.6H437.767L428.935 317.536L430.375 317.12V336H426.023ZM463.097 336.384C461.583 336.384 460.175 336.107 458.873 335.552C457.593 334.997 456.484 334.229 455.545 333.248C454.628 332.245 453.956 331.083 453.529 329.76L457.145 328.192C457.721 329.557 458.553 330.635 459.641 331.424C460.729 332.192 461.956 332.576 463.321 332.576C464.089 332.576 464.751 332.459 465.305 332.224C465.881 331.968 466.319 331.627 466.617 331.2C466.937 330.773 467.097 330.261 467.097 329.664C467.097 328.96 466.884 328.384 466.457 327.936C466.052 327.467 465.433 327.104 464.601 326.848L460.025 325.376C458.169 324.8 456.772 323.936 455.833 322.784C454.895 321.632 454.425 320.277 454.425 318.72C454.425 317.355 454.756 316.149 455.417 315.104C456.1 314.059 457.039 313.248 458.233 312.672C459.449 312.075 460.836 311.776 462.393 311.776C463.823 311.776 465.135 312.032 466.329 312.544C467.524 313.035 468.548 313.728 469.401 314.624C470.276 315.499 470.927 316.533 471.353 317.728L467.769 319.328C467.3 318.133 466.596 317.216 465.657 316.576C464.719 315.915 463.631 315.584 462.393 315.584C461.668 315.584 461.028 315.712 460.473 315.968C459.919 316.203 459.481 316.544 459.161 316.992C458.863 317.419 458.713 317.931 458.713 318.528C458.713 319.189 458.927 319.776 459.353 320.288C459.78 320.779 460.431 321.163 461.305 321.44L465.689 322.816C467.588 323.435 469.007 324.288 469.945 325.376C470.905 326.464 471.385 327.808 471.385 329.408C471.385 330.773 471.033 331.979 470.329 333.024C469.625 334.069 468.655 334.891 467.417 335.488C466.18 336.085 464.74 336.384 463.097 336.384Z" fill="#24B3B3"/>
</svg>
