<svg width="600" height="450" viewBox="0 0 600 450" fill="none" xmlns="http://www.w3.org/2000/svg">
<path d="M223.667 266.666H90.3333C81.1667 266.666 73.6667 274.166 73.6667 283.333V433.333L107 399.999H223.667C232.833 399.999 240.333 392.499 240.333 383.333V283.333C240.333 274.166 232.833 266.666 223.667 266.666ZM223.667 383.333H107L90.3333 399.999V283.333H223.667V383.333ZM115.333 324.999H132V341.666H115.333V324.999ZM148.667 324.999H165.333V341.666H148.667V324.999ZM182 324.999H198.667V341.666H182V324.999Z" fill="#4CD9D9" fill-opacity="0.16"/>
<path d="M442.333 99.666H495.667C499.333 99.666 502.333 102.666 502.333 106.333V166.333L489 152.999H442.333C438.667 152.999 435.667 149.999 435.667 146.333V106.333C435.667 102.666 438.667 99.666 442.333 99.666ZM442.333 146.333H489L495.667 152.999V106.333H442.333V146.333ZM485.667 122.999H479V129.666H485.667V122.999ZM472.333 122.999H465.667V129.666H472.333V122.999ZM459 122.999H452.333V129.666H459V122.999Z" fill="#4CD9D9" fill-opacity="0.16"/>
<rect x="205" y="25" width="190" height="400" rx="24" fill="#CCCCCC"/>
<rect x="210" y="30" width="180" height="390" rx="20" fill="white"/>
<circle cx="300" cy="82" r="18" fill="#ECDFC5"/>
<path d="M286.264 111V104.535H286.958V107.442H290.429V104.535H291.123V111H290.429V108.093H286.958V111H286.264ZM293.903 111.104C293.608 111.104 293.345 111.049 293.114 110.939C292.882 110.824 292.7 110.667 292.567 110.471C292.434 110.274 292.367 110.048 292.367 109.794C292.367 109.551 292.419 109.331 292.523 109.134C292.628 108.932 292.79 108.761 293.009 108.622C293.229 108.483 293.51 108.385 293.851 108.327L295.674 108.023V108.614L294.007 108.891C293.672 108.949 293.429 109.056 293.278 109.212C293.134 109.369 293.061 109.554 293.061 109.768C293.061 109.976 293.142 110.152 293.304 110.297C293.472 110.442 293.686 110.514 293.947 110.514C294.265 110.514 294.543 110.447 294.78 110.314C295.017 110.176 295.202 109.99 295.335 109.759C295.468 109.528 295.535 109.27 295.535 108.987V107.806C295.535 107.529 295.434 107.303 295.231 107.13C295.029 106.956 294.765 106.869 294.441 106.869C294.158 106.869 293.909 106.942 293.695 107.086C293.481 107.225 293.322 107.407 293.218 107.633L292.628 107.312C292.714 107.115 292.85 106.936 293.035 106.774C293.226 106.612 293.443 106.484 293.686 106.392C293.929 106.294 294.181 106.244 294.441 106.244C294.783 106.244 295.084 106.311 295.344 106.444C295.61 106.577 295.815 106.762 295.96 106.999C296.11 107.231 296.186 107.5 296.186 107.806V111H295.535V110.071L295.63 110.167C295.549 110.34 295.422 110.5 295.248 110.644C295.081 110.783 294.881 110.896 294.65 110.983C294.424 111.064 294.175 111.104 293.903 111.104ZM297.524 111V104.431H298.175V111H297.524ZM299.985 111V106.999H299.056V106.349H299.985V105.932C299.985 105.608 300.057 105.336 300.202 105.116C300.346 104.891 300.537 104.72 300.774 104.604C301.012 104.489 301.266 104.431 301.538 104.431C301.596 104.431 301.663 104.436 301.738 104.448C301.813 104.454 301.874 104.462 301.92 104.474V105.064C301.879 105.053 301.825 105.047 301.755 105.047C301.686 105.041 301.636 105.038 301.608 105.038C301.33 105.038 301.098 105.105 300.913 105.238C300.728 105.371 300.636 105.602 300.636 105.932V106.349H301.772V106.999H300.636V111H299.985ZM304.389 111V104.431H305.04V109.03L304.762 108.987L307.374 106.349H308.216L306.394 108.214L308.381 111H307.6L305.734 108.423L306.151 108.457L304.823 109.828L305.04 109.29V111H304.389ZM311.263 112.909C310.945 112.909 310.649 112.86 310.378 112.762C310.111 112.663 309.88 112.527 309.683 112.354C309.492 112.186 309.345 111.989 309.241 111.764L309.84 111.443C309.932 111.662 310.097 111.853 310.334 112.015C310.571 112.177 310.875 112.258 311.245 112.258C311.529 112.258 311.789 112.203 312.026 112.093C312.264 111.984 312.455 111.822 312.599 111.607C312.744 111.393 312.816 111.13 312.816 110.818V109.785L312.92 109.881C312.758 110.216 312.518 110.476 312.2 110.662C311.882 110.841 311.535 110.931 311.159 110.931C310.725 110.931 310.334 110.826 309.987 110.618C309.64 110.41 309.365 110.129 309.163 109.776C308.966 109.418 308.868 109.021 308.868 108.587C308.868 108.148 308.966 107.751 309.163 107.399C309.365 107.046 309.637 106.765 309.978 106.557C310.325 106.349 310.719 106.244 311.159 106.244C311.535 106.244 311.876 106.331 312.183 106.505C312.495 106.678 312.741 106.913 312.92 107.208L312.816 107.39V106.349H313.467V110.818C313.467 111.217 313.372 111.573 313.181 111.885C312.995 112.203 312.735 112.452 312.4 112.631C312.07 112.817 311.691 112.909 311.263 112.909ZM311.193 110.28C311.494 110.28 311.766 110.205 312.009 110.054C312.252 109.898 312.446 109.692 312.59 109.438C312.741 109.178 312.816 108.894 312.816 108.587C312.816 108.281 312.741 108 312.59 107.746C312.446 107.485 312.252 107.28 312.009 107.13C311.766 106.973 311.494 106.895 311.193 106.895C310.887 106.895 310.609 106.973 310.36 107.13C310.111 107.28 309.915 107.482 309.77 107.737C309.631 107.992 309.562 108.275 309.562 108.587C309.562 108.894 309.631 109.178 309.77 109.438C309.915 109.692 310.109 109.898 310.352 110.054C310.6 110.205 310.881 110.28 311.193 110.28Z" fill="#212528"/>
<path d="M303.365 82.0703C301.16 86.0583 300.095 86.6403 300.783 90.4586C302.519 87.9394 304.175 86.5404 303.365 82.0703Z" fill="#283135"/>
<path d="M303.393 87.6113C301.187 91.5993 300.123 92.1813 300.811 95.9996C302.547 93.4803 304.202 92.0813 303.393 87.6113Z" fill="#283135"/>
<path d="M303.338 76.5273C301.132 80.5145 300.068 81.0965 300.756 84.9148C302.492 82.3956 304.147 80.9974 303.338 76.5273Z" fill="#283135"/>
<path d="M297.28 79.082C299.54 83.039 300.613 83.6066 299.977 87.4343C298.207 84.9385 296.532 83.563 297.28 79.082Z" fill="#283135"/>
<path d="M297.329 84.627C299.589 88.5838 300.661 89.1515 300.025 92.9783C298.255 90.4834 296.58 89.1078 297.329 84.627Z" fill="#283135"/>
<path d="M297.232 73.5449C299.492 77.5018 300.564 78.0695 299.928 81.8963C298.158 79.4014 296.483 78.025 297.232 73.5449Z" fill="#283135"/>
<path d="M303.289 70.9824C301.083 74.9704 300.019 75.5524 300.707 79.3707C302.443 76.8515 304.098 75.4524 303.289 70.9824Z" fill="#283135"/>
<path d="M297.183 68C299.443 71.9569 300.515 72.5246 299.88 76.3514C298.11 73.8564 296.435 72.4809 297.183 68Z" fill="#283135"/>
<path d="M218.888 46L220.928 43.36L221.088 43.464C221.013 43.544 220.931 43.608 220.84 43.656C220.755 43.704 220.661 43.7387 220.56 43.76C220.464 43.7813 220.36 43.792 220.248 43.792C219.891 43.792 219.571 43.712 219.288 43.552C219.005 43.3867 218.781 43.1627 218.616 42.88C218.456 42.592 218.376 42.2667 218.376 41.904C218.376 41.5253 218.464 41.1893 218.64 40.896C218.816 40.6027 219.056 40.3707 219.36 40.2C219.664 40.0293 220.011 39.944 220.4 39.944C220.795 39.944 221.141 40.0293 221.44 40.2C221.744 40.3707 221.981 40.6053 222.152 40.904C222.328 41.1973 222.416 41.5333 222.416 41.912C222.416 42.1147 222.395 42.3147 222.352 42.512C222.309 42.7093 222.235 42.9147 222.128 43.128C222.021 43.336 221.872 43.5653 221.68 43.816L220.016 46H218.888ZM220.4 43C220.608 43 220.792 42.952 220.952 42.856C221.112 42.76 221.24 42.6293 221.336 42.464C221.432 42.2987 221.48 42.1093 221.48 41.896C221.48 41.6773 221.432 41.4853 221.336 41.32C221.24 41.1493 221.109 41.0187 220.944 40.928C220.784 40.832 220.603 40.784 220.4 40.784C220.197 40.784 220.013 40.832 219.848 40.928C219.688 41.0187 219.56 41.1493 219.464 41.32C219.368 41.4853 219.32 41.6773 219.32 41.896C219.32 42.1093 219.365 42.2987 219.456 42.464C219.552 42.6293 219.683 42.76 219.848 42.856C220.013 42.952 220.197 43 220.4 43ZM223.733 46V44.96H224.653V46H223.733ZM223.733 42.712V41.672H224.653V42.712H223.733ZM228.73 46V44.656H225.89V43.872L228.69 40.04H229.626V43.872H230.45V44.656H229.626V46H228.73ZM226.586 44.216L226.434 43.872H228.73V40.792L228.986 40.872L226.586 44.216ZM232.158 46V40.84H231.014V40.04H233.094V46H232.158Z" fill="#212528"/>
<path d="M340.924 47H340.174C339.975 47 339.784 46.921 339.643 46.7803C339.503 46.6397 339.424 46.4489 339.424 46.25V39.75C339.424 39.5511 339.503 39.3603 339.643 39.2197C339.784 39.079 339.975 39 340.174 39H340.924C341.123 39 341.313 39.079 341.454 39.2197C341.595 39.3603 341.674 39.5511 341.674 39.75V46.25C341.674 46.4489 341.595 46.6397 341.454 46.7803C341.313 46.921 341.123 47 340.924 47ZM337.424 47H336.674C336.475 47 336.284 46.921 336.143 46.7803C336.003 46.6397 335.924 46.4489 335.924 46.25V41.5004C335.924 41.3015 336.003 41.1108 336.143 40.9701C336.284 40.8295 336.475 40.7504 336.674 40.7504H337.424C337.623 40.7504 337.813 40.8295 337.954 40.9701C338.095 41.1108 338.174 41.3015 338.174 41.5004V46.25C338.174 46.4488 338.095 46.6394 337.954 46.7801C337.814 46.9207 337.623 46.9998 337.424 47H337.424ZM333.923 47H333.173C332.975 47 332.784 46.921 332.643 46.7803C332.503 46.6397 332.424 46.4489 332.424 46.25V43.2501C332.424 43.0512 332.503 42.8605 332.643 42.7198C332.784 42.5792 332.975 42.5001 333.173 42.5001H333.923C334.122 42.5001 334.313 42.5792 334.454 42.7198C334.594 42.8605 334.673 43.0512 334.673 43.2501V46.25C334.673 46.4489 334.594 46.6397 334.454 46.7803C334.313 46.921 334.122 47 333.923 47ZM330.424 47H329.674C329.475 47 329.284 46.921 329.144 46.7803C329.003 46.6397 328.924 46.4489 328.924 46.25V44.7501C328.924 44.5512 329.003 44.3604 329.144 44.2198C329.284 44.0791 329.475 44.0001 329.674 44.0001H330.424C330.623 44.0001 330.814 44.0791 330.954 44.2198C331.095 44.3604 331.174 44.5512 331.174 44.7501V46.25C331.174 46.4489 331.095 46.6397 330.954 46.7803C330.814 46.921 330.623 47 330.424 47Z" fill="#212528"/>
<path d="M353.252 47C353.222 46.9999 353.192 46.9939 353.165 46.9823C353.137 46.9706 353.112 46.9537 353.091 46.9323L351.631 45.4613C351.609 45.4396 351.591 45.4134 351.579 45.3845C351.568 45.3555 351.562 45.3245 351.563 45.2933C351.563 45.2622 351.57 45.2316 351.582 45.2032C351.595 45.1749 351.613 45.1493 351.636 45.1281C352.087 44.7467 352.659 44.5375 353.25 44.5375C353.84 44.5375 354.412 44.7467 354.864 45.1281C354.887 45.1491 354.905 45.1746 354.918 45.203C354.931 45.2314 354.938 45.2621 354.939 45.2933C354.939 45.3245 354.933 45.3555 354.922 45.3844C354.91 45.4133 354.892 45.4394 354.87 45.4613L353.414 46.9323C353.392 46.9537 353.367 46.9706 353.34 46.9823C353.312 46.9939 353.282 46.9999 353.252 47ZM355.815 44.4181C355.757 44.418 355.701 44.3956 355.659 44.3555C355 43.7592 354.142 43.429 353.254 43.429C352.365 43.429 351.508 43.7592 350.848 44.3555C350.806 44.3956 350.75 44.418 350.692 44.4181C350.662 44.4182 350.633 44.4124 350.605 44.401C350.578 44.3897 350.553 44.373 350.532 44.3519L349.688 43.4999C349.666 43.4781 349.648 43.4521 349.636 43.4234C349.624 43.3946 349.618 43.3638 349.618 43.3326C349.618 43.3014 349.624 43.2706 349.636 43.2419C349.648 43.2131 349.666 43.1871 349.688 43.1653C350.656 42.2659 351.928 41.766 353.25 41.766C354.571 41.766 355.843 42.2659 356.811 43.1653C356.834 43.1869 356.852 43.2129 356.864 43.2416C356.877 43.2703 356.883 43.3013 356.884 43.3326C356.884 43.3637 356.878 43.3945 356.866 43.4233C356.854 43.452 356.837 43.4781 356.815 43.4999L355.974 44.3519C355.954 44.3728 355.929 44.3895 355.901 44.4009C355.874 44.4122 355.845 44.4181 355.815 44.4181ZM357.757 42.4589C357.728 42.4591 357.699 42.4536 357.672 42.4426C357.645 42.4316 357.621 42.4154 357.6 42.3948C356.427 41.2803 354.87 40.6589 353.252 40.6589C351.633 40.6589 350.077 41.2803 348.903 42.3948C348.882 42.4157 348.858 42.4322 348.83 42.4435C348.803 42.4548 348.774 42.4606 348.745 42.4606C348.715 42.4606 348.686 42.4548 348.659 42.4435C348.632 42.4322 348.607 42.4157 348.587 42.3948L347.743 41.5437C347.721 41.5218 347.703 41.4959 347.692 41.4674C347.68 41.4389 347.674 41.4083 347.674 41.3774C347.674 41.3465 347.68 41.316 347.692 41.2874C347.703 41.2589 347.721 41.233 347.743 41.2112C349.225 39.7921 351.198 39 353.25 39C355.302 39 357.275 39.7921 358.758 41.2112C358.78 41.233 358.797 41.2589 358.809 41.2874C358.821 41.316 358.827 41.3465 358.827 41.3774C358.827 41.4083 358.821 41.4389 358.809 41.4674C358.797 41.4959 358.78 41.5218 358.758 41.5437L357.913 42.3948C357.872 42.4359 357.815 42.4589 357.757 42.4589Z" fill="#212528"/>
<g opacity="0.35">
<path opacity="0.35" d="M378.474 39.3535H366.709C365.865 39.3535 365.18 40.0384 365.18 40.8832V45.1179C365.18 45.9627 365.865 46.6476 366.709 46.6476H378.474C379.319 46.6476 380.004 45.9627 380.004 45.1179V40.8832C380.004 40.0384 379.319 39.3535 378.474 39.3535Z" stroke="#212528" stroke-miterlimit="10"/>
</g>
<path opacity="0.4" d="M381.063 41.5898V44.4135C381.34 44.2965 381.578 44.1001 381.744 43.849C381.911 43.5979 382 43.3031 382 43.0016C382 42.7002 381.911 42.4054 381.744 42.1543C381.578 41.9032 381.34 41.7068 381.063 41.5898" fill="#212528"/>
<path d="M378.004 40.4121H367.18C366.66 40.4121 366.239 40.8334 366.239 41.3531V44.6475C366.239 45.1672 366.66 45.5885 367.18 45.5885H378.004C378.524 45.5885 378.945 45.1672 378.945 44.6475V41.3531C378.945 40.8334 378.524 40.4121 378.004 40.4121Z" fill="#212528"/>
<g filter="url(#filter0_ddd_4354_20135)">
<rect x="145" y="154" width="200" height="80" rx="8" fill="white"/>
<path d="M159.509 168.679C160.033 168.679 160.537 168.767 161.021 168.942C161.508 169.118 161.942 169.398 162.323 169.783C162.708 170.167 163.011 170.678 163.233 171.314C163.458 171.947 163.573 172.724 163.576 173.646C163.576 174.511 163.478 175.283 163.283 175.962C163.09 176.638 162.814 177.214 162.452 177.688C162.091 178.161 161.655 178.523 161.145 178.771C160.634 179.017 160.064 179.139 159.435 179.139C158.755 179.139 158.155 179.008 157.635 178.746C157.115 178.481 156.695 178.122 156.377 177.668C156.062 177.21 155.872 176.696 155.805 176.126H157.928C158.011 176.498 158.185 176.786 158.45 176.991C158.715 177.194 159.044 177.295 159.435 177.295C160.098 177.295 160.601 177.006 160.946 176.43C161.291 175.85 161.465 175.056 161.468 174.048H161.398C161.246 174.347 161.04 174.603 160.782 174.819C160.523 175.031 160.227 175.195 159.892 175.311C159.561 175.427 159.208 175.485 158.833 175.485C158.233 175.485 157.698 175.344 157.227 175.062C156.757 174.781 156.385 174.393 156.114 173.899C155.842 173.405 155.706 172.842 155.706 172.209C155.703 171.526 155.86 170.918 156.178 170.384C156.496 169.851 156.941 169.433 157.511 169.131C158.084 168.826 158.75 168.676 159.509 168.679ZM159.524 170.369C159.189 170.369 158.891 170.449 158.629 170.608C158.371 170.767 158.165 170.981 158.013 171.249C157.864 171.518 157.791 171.818 157.794 172.149C157.794 172.484 157.867 172.786 158.013 173.054C158.162 173.319 158.364 173.531 158.619 173.69C158.878 173.846 159.173 173.924 159.504 173.924C159.753 173.924 159.983 173.878 160.195 173.785C160.407 173.692 160.591 173.564 160.747 173.402C160.906 173.236 161.031 173.046 161.12 172.83C161.21 172.615 161.254 172.386 161.254 172.144C161.251 171.823 161.175 171.528 161.026 171.259C160.876 170.991 160.671 170.775 160.409 170.613C160.147 170.451 159.852 170.369 159.524 170.369ZM169.146 179.139C168.38 179.139 167.699 179.015 167.102 178.766C166.509 178.514 166.043 178.171 165.705 177.737C165.367 177.303 165.198 176.811 165.198 176.261C165.198 175.836 165.294 175.447 165.487 175.092C165.682 174.734 165.947 174.438 166.282 174.202C166.617 173.964 166.991 173.811 167.406 173.745V173.675C166.862 173.566 166.421 173.303 166.083 172.885C165.745 172.464 165.576 171.975 165.576 171.418C165.576 170.891 165.73 170.422 166.039 170.011C166.347 169.597 166.769 169.272 167.306 169.037C167.847 168.798 168.46 168.679 169.146 168.679C169.832 168.679 170.443 168.798 170.98 169.037C171.521 169.276 171.945 169.602 172.253 170.016C172.561 170.427 172.717 170.895 172.72 171.418C172.717 171.978 172.545 172.467 172.203 172.885C171.862 173.303 171.424 173.566 170.891 173.675V173.745C171.298 173.811 171.668 173.964 171.999 174.202C172.334 174.438 172.599 174.734 172.795 175.092C172.994 175.447 173.095 175.836 173.098 176.261C173.095 176.811 172.924 177.303 172.586 177.737C172.248 178.171 171.781 178.514 171.184 178.766C170.591 179.015 169.911 179.139 169.146 179.139ZM169.146 177.558C169.487 177.558 169.785 177.497 170.041 177.374C170.296 177.248 170.495 177.076 170.637 176.857C170.783 176.635 170.856 176.38 170.856 176.092C170.856 175.797 170.781 175.536 170.632 175.311C170.483 175.082 170.281 174.903 170.026 174.774C169.771 174.642 169.477 174.575 169.146 174.575C168.818 174.575 168.524 174.642 168.266 174.774C168.007 174.903 167.803 175.082 167.654 175.311C167.508 175.536 167.436 175.797 167.436 176.092C167.436 176.38 167.507 176.635 167.649 176.857C167.792 177.076 167.992 177.248 168.251 177.374C168.509 177.497 168.808 177.558 169.146 177.558ZM169.146 173.009C169.431 173.009 169.684 172.951 169.906 172.835C170.128 172.719 170.302 172.558 170.428 172.353C170.554 172.147 170.617 171.911 170.617 171.642C170.617 171.377 170.554 171.145 170.428 170.946C170.302 170.744 170.13 170.586 169.911 170.474C169.693 170.358 169.437 170.3 169.146 170.3C168.857 170.3 168.602 170.358 168.38 170.474C168.158 170.586 167.984 170.744 167.858 170.946C167.735 171.145 167.674 171.377 167.674 171.642C167.674 171.911 167.737 172.147 167.863 172.353C167.989 172.558 168.163 172.719 168.385 172.835C168.607 172.951 168.861 173.009 169.146 173.009ZM178.567 168.679C179.091 168.679 179.595 168.767 180.079 168.942C180.566 169.118 181 169.398 181.381 169.783C181.766 170.167 182.069 170.678 182.291 171.314C182.516 171.947 182.631 172.724 182.634 173.646C182.634 174.511 182.536 175.283 182.341 175.962C182.148 176.638 181.872 177.214 181.51 177.688C181.149 178.161 180.713 178.523 180.203 178.771C179.693 179.017 179.122 179.139 178.493 179.139C177.813 179.139 177.213 179.008 176.693 178.746C176.173 178.481 175.753 178.122 175.435 177.668C175.12 177.21 174.93 176.696 174.863 176.126H176.986C177.069 176.498 177.243 176.786 177.508 176.991C177.773 177.194 178.102 177.295 178.493 177.295C179.156 177.295 179.659 177.006 180.004 176.43C180.349 175.85 180.523 175.056 180.526 174.048H180.456C180.304 174.347 180.099 174.603 179.84 174.819C179.581 175.031 179.285 175.195 178.95 175.311C178.619 175.427 178.266 175.485 177.891 175.485C177.291 175.485 176.756 175.344 176.285 175.062C175.815 174.781 175.443 174.393 175.172 173.899C174.9 173.405 174.764 172.842 174.764 172.209C174.761 171.526 174.918 170.918 175.236 170.384C175.554 169.851 175.999 169.433 176.569 169.131C177.142 168.826 177.808 168.676 178.567 168.679ZM178.582 170.369C178.247 170.369 177.949 170.449 177.687 170.608C177.429 170.767 177.223 170.981 177.071 171.249C176.922 171.518 176.849 171.818 176.852 172.149C176.852 172.484 176.925 172.786 177.071 173.054C177.22 173.319 177.422 173.531 177.677 173.69C177.936 173.846 178.231 173.924 178.562 173.924C178.811 173.924 179.041 173.878 179.253 173.785C179.465 173.692 179.649 173.564 179.805 173.402C179.964 173.236 180.089 173.046 180.178 172.83C180.268 172.615 180.312 172.386 180.312 172.144C180.309 171.823 180.233 171.528 180.084 171.259C179.934 170.991 179.729 170.775 179.467 170.613C179.205 170.451 178.91 170.369 178.582 170.369ZM186.866 174.545L186.991 172.621L185.38 173.7L184.714 172.527L186.449 171.682L184.714 170.837L185.38 169.663L186.991 170.742L186.866 168.818H188.204L188.075 170.742L189.685 169.663L190.352 170.837L188.621 171.682L190.352 172.527L189.685 173.7L188.075 172.621L188.204 174.545H186.866ZM195.049 174.545L195.173 172.621L193.562 173.7L192.896 172.527L194.631 171.682L192.896 170.837L193.562 169.663L195.173 170.742L195.049 168.818H196.386L196.257 170.742L197.868 169.663L198.534 170.837L196.804 171.682L198.534 172.527L197.868 173.7L196.257 172.621L196.386 174.545H195.049ZM203.231 174.545L203.355 172.621L201.745 173.7L201.078 172.527L202.814 171.682L201.078 170.837L201.745 169.663L203.355 170.742L203.231 168.818H204.569L204.439 170.742L206.05 169.663L206.716 170.837L204.986 171.682L206.716 172.527L206.05 173.7L204.439 172.621L204.569 174.545H203.231ZM211.413 174.545L211.538 172.621L209.927 173.7L209.261 172.527L210.996 171.682L209.261 170.837L209.927 169.663L211.538 170.742L211.413 168.818H212.751L212.622 170.742L214.232 169.663L214.899 170.837L213.168 171.682L214.899 172.527L214.232 173.7L212.622 172.621L212.751 174.545H211.413ZM217.135 179V177.449L220.759 174.093C221.067 173.795 221.326 173.526 221.535 173.288C221.747 173.049 221.908 172.815 222.017 172.587C222.126 172.355 222.181 172.104 222.181 171.836C222.181 171.538 222.113 171.281 221.977 171.065C221.841 170.847 221.656 170.679 221.42 170.563C221.185 170.444 220.918 170.384 220.62 170.384C220.308 170.384 220.037 170.447 219.805 170.573C219.573 170.699 219.394 170.88 219.268 171.115C219.142 171.35 219.079 171.63 219.079 171.955H217.035C217.035 171.289 217.186 170.711 217.488 170.22C217.789 169.73 218.212 169.35 218.756 169.082C219.299 168.813 219.926 168.679 220.635 168.679C221.364 168.679 221.999 168.808 222.539 169.067C223.083 169.322 223.505 169.677 223.807 170.131C224.108 170.585 224.259 171.105 224.259 171.692C224.259 172.076 224.183 172.456 224.03 172.83C223.881 173.205 223.615 173.621 223.23 174.078C222.846 174.532 222.304 175.077 221.604 175.714L220.118 177.17V177.24H224.393V179H217.135ZM229.997 179.139C229.254 179.139 228.593 179.012 228.013 178.756C227.436 178.498 226.981 178.143 226.646 177.692C226.314 177.238 226.144 176.715 226.134 176.121H228.301C228.315 176.37 228.396 176.589 228.545 176.778C228.698 176.963 228.9 177.107 229.152 177.21C229.403 177.313 229.687 177.364 230.002 177.364C230.33 177.364 230.62 177.306 230.872 177.19C231.124 177.074 231.321 176.914 231.463 176.708C231.606 176.503 231.677 176.266 231.677 175.997C231.677 175.725 231.601 175.485 231.448 175.276C231.299 175.064 231.084 174.898 230.802 174.779C230.524 174.66 230.192 174.6 229.808 174.6H228.858V173.019H229.808C230.133 173.019 230.419 172.963 230.668 172.85C230.92 172.737 231.115 172.582 231.255 172.383C231.394 172.181 231.463 171.945 231.463 171.677C231.463 171.422 231.402 171.198 231.279 171.006C231.16 170.81 230.991 170.658 230.772 170.548C230.557 170.439 230.305 170.384 230.017 170.384C229.725 170.384 229.458 170.437 229.216 170.543C228.974 170.646 228.78 170.794 228.635 170.986C228.489 171.178 228.411 171.403 228.401 171.662H226.338C226.348 171.075 226.515 170.558 226.84 170.111C227.165 169.663 227.602 169.314 228.152 169.062C228.706 168.807 229.331 168.679 230.027 168.679C230.729 168.679 231.344 168.807 231.871 169.062C232.398 169.317 232.807 169.662 233.099 170.096C233.394 170.527 233.54 171.011 233.537 171.548C233.54 172.118 233.363 172.593 233.005 172.974C232.65 173.356 232.188 173.598 231.617 173.7V173.78C232.367 173.876 232.937 174.136 233.328 174.56C233.722 174.981 233.918 175.508 233.914 176.141C233.918 176.721 233.75 177.237 233.412 177.688C233.077 178.138 232.615 178.493 232.025 178.751C231.435 179.01 230.759 179.139 229.997 179.139ZM235.742 179V177.449L239.366 174.093C239.674 173.795 239.933 173.526 240.142 173.288C240.354 173.049 240.514 172.815 240.624 172.587C240.733 172.355 240.788 172.104 240.788 171.836C240.788 171.538 240.72 171.281 240.584 171.065C240.448 170.847 240.263 170.679 240.027 170.563C239.792 170.444 239.525 170.384 239.227 170.384C238.915 170.384 238.644 170.447 238.412 170.573C238.18 170.699 238.001 170.88 237.875 171.115C237.749 171.35 237.686 171.63 237.686 171.955H235.642C235.642 171.289 235.793 170.711 236.095 170.22C236.396 169.73 236.819 169.35 237.363 169.082C237.906 168.813 238.532 168.679 239.242 168.679C239.971 168.679 240.606 168.808 241.146 169.067C241.689 169.322 242.112 169.677 242.414 170.131C242.715 170.585 242.866 171.105 242.866 171.692C242.866 172.076 242.79 172.456 242.637 172.83C242.488 173.205 242.221 173.621 241.837 174.078C241.452 174.532 240.911 175.077 240.211 175.714L238.725 177.17V177.24H243V179H235.742ZM157.466 188.818V199H156.233V188.818H157.466ZM165.468 193.074L164.414 193.372C164.348 193.196 164.25 193.026 164.121 192.86C163.995 192.691 163.822 192.552 163.604 192.442C163.385 192.333 163.105 192.278 162.763 192.278C162.296 192.278 161.907 192.386 161.595 192.602C161.287 192.814 161.133 193.084 161.133 193.412C161.133 193.704 161.239 193.934 161.451 194.103C161.663 194.272 161.995 194.413 162.445 194.526L163.579 194.804C164.262 194.97 164.77 195.223 165.105 195.565C165.44 195.903 165.607 196.339 165.607 196.872C165.607 197.31 165.481 197.701 165.229 198.045C164.981 198.39 164.633 198.662 164.185 198.861C163.738 199.06 163.218 199.159 162.624 199.159C161.845 199.159 161.201 198.99 160.69 198.652C160.18 198.314 159.857 197.82 159.721 197.17L160.835 196.892C160.941 197.303 161.141 197.611 161.436 197.817C161.734 198.022 162.124 198.125 162.604 198.125C163.151 198.125 163.585 198.009 163.907 197.777C164.232 197.542 164.394 197.26 164.394 196.932C164.394 196.667 164.301 196.445 164.116 196.266C163.93 196.083 163.645 195.947 163.261 195.858L161.988 195.56C161.289 195.394 160.775 195.137 160.447 194.789C160.122 194.438 159.96 193.999 159.96 193.472C159.96 193.041 160.08 192.66 160.322 192.328C160.568 191.997 160.901 191.737 161.322 191.548C161.746 191.359 162.227 191.264 162.763 191.264C163.519 191.264 164.112 191.43 164.543 191.761C164.978 192.093 165.286 192.53 165.468 193.074ZM173.044 194.406V199H171.871V188.818H173.044V192.557H173.144C173.323 192.162 173.591 191.849 173.949 191.617C174.31 191.382 174.791 191.264 175.391 191.264C175.911 191.264 176.367 191.369 176.758 191.577C177.149 191.783 177.452 192.099 177.668 192.527C177.887 192.951 177.996 193.491 177.996 194.148V199H176.823V194.227C176.823 193.621 176.665 193.152 176.35 192.82C176.039 192.486 175.606 192.318 175.053 192.318C174.668 192.318 174.324 192.399 174.019 192.562C173.717 192.724 173.478 192.961 173.303 193.273C173.13 193.584 173.044 193.962 173.044 194.406ZM183.525 199.159C182.835 199.159 182.23 198.995 181.71 198.667C181.193 198.339 180.789 197.88 180.497 197.29C180.209 196.7 180.064 196.01 180.064 195.222C180.064 194.426 180.209 193.732 180.497 193.138C180.789 192.545 181.193 192.085 181.71 191.756C182.23 191.428 182.835 191.264 183.525 191.264C184.214 191.264 184.817 191.428 185.334 191.756C185.855 192.085 186.259 192.545 186.547 193.138C186.839 193.732 186.985 194.426 186.985 195.222C186.985 196.01 186.839 196.7 186.547 197.29C186.259 197.88 185.855 198.339 185.334 198.667C184.817 198.995 184.214 199.159 183.525 199.159ZM183.525 198.105C184.048 198.105 184.479 197.971 184.817 197.702C185.155 197.434 185.406 197.081 185.568 196.643C185.73 196.206 185.812 195.732 185.812 195.222C185.812 194.711 185.73 194.236 185.568 193.795C185.406 193.354 185.155 192.998 184.817 192.726C184.479 192.454 184.048 192.318 183.525 192.318C183.001 192.318 182.57 192.454 182.232 192.726C181.894 192.998 181.644 193.354 181.481 193.795C181.319 194.236 181.238 194.711 181.238 195.222C181.238 195.732 181.319 196.206 181.481 196.643C181.644 197.081 181.894 197.434 182.232 197.702C182.57 197.971 183.001 198.105 183.525 198.105ZM190.229 194.406V199H189.056V191.364H190.189V192.557H190.289C190.468 192.169 190.74 191.857 191.104 191.622C191.469 191.384 191.939 191.264 192.516 191.264C193.033 191.264 193.486 191.37 193.873 191.582C194.261 191.791 194.563 192.109 194.778 192.537C194.994 192.961 195.101 193.498 195.101 194.148V199H193.928V194.227C193.928 193.627 193.772 193.16 193.461 192.825C193.149 192.487 192.722 192.318 192.178 192.318C191.804 192.318 191.469 192.399 191.174 192.562C190.882 192.724 190.652 192.961 190.483 193.273C190.314 193.584 190.229 193.962 190.229 194.406ZM200.727 199.159C199.991 199.159 199.357 198.997 198.823 198.672C198.293 198.344 197.883 197.886 197.595 197.3C197.31 196.71 197.167 196.024 197.167 195.241C197.167 194.459 197.31 193.77 197.595 193.173C197.883 192.573 198.284 192.106 198.798 191.771C199.315 191.433 199.918 191.264 200.608 191.264C201.005 191.264 201.398 191.33 201.786 191.463C202.174 191.596 202.527 191.811 202.845 192.109C203.163 192.404 203.417 192.795 203.606 193.283C203.795 193.77 203.889 194.37 203.889 195.082V195.58H198.003V194.565H202.696C202.696 194.134 202.61 193.75 202.437 193.412C202.268 193.074 202.026 192.807 201.711 192.612C201.4 192.416 201.032 192.318 200.608 192.318C200.14 192.318 199.736 192.434 199.395 192.666C199.057 192.895 198.796 193.193 198.614 193.561C198.432 193.929 198.341 194.323 198.341 194.744V195.42C198.341 195.997 198.44 196.486 198.639 196.887C198.841 197.285 199.121 197.588 199.479 197.797C199.837 198.002 200.253 198.105 200.727 198.105C201.035 198.105 201.314 198.062 201.562 197.976C201.814 197.886 202.031 197.754 202.214 197.578C202.396 197.399 202.537 197.177 202.636 196.912L203.77 197.23C203.65 197.615 203.45 197.953 203.168 198.244C202.886 198.533 202.538 198.758 202.124 198.92C201.71 199.08 201.244 199.159 200.727 199.159ZM206.477 201.864C206.278 201.864 206.101 201.847 205.945 201.814C205.789 201.784 205.682 201.754 205.622 201.724L205.92 200.69C206.205 200.763 206.457 200.79 206.676 200.77C206.895 200.75 207.089 200.652 207.258 200.477C207.43 200.304 207.587 200.024 207.73 199.636L207.949 199.04L205.125 191.364H206.397L208.505 197.449H208.585L210.693 191.364H211.966L208.724 200.114C208.578 200.508 208.398 200.835 208.182 201.093C207.967 201.355 207.717 201.549 207.432 201.675C207.15 201.801 206.832 201.864 206.477 201.864ZM221.114 199.159C220.398 199.159 219.782 198.99 219.265 198.652C218.748 198.314 218.35 197.848 218.071 197.255C217.793 196.662 217.654 195.984 217.654 195.222C217.654 194.446 217.796 193.762 218.081 193.168C218.37 192.572 218.771 192.106 219.285 191.771C219.802 191.433 220.405 191.264 221.094 191.264C221.631 191.264 222.115 191.364 222.546 191.562C222.977 191.761 223.33 192.04 223.605 192.398C223.88 192.756 224.051 193.173 224.117 193.651H222.944C222.854 193.303 222.655 192.994 222.347 192.726C222.042 192.454 221.631 192.318 221.114 192.318C220.657 192.318 220.256 192.437 219.911 192.676C219.57 192.911 219.303 193.245 219.111 193.675C218.922 194.103 218.827 194.605 218.827 195.182C218.827 195.772 218.92 196.286 219.106 196.723C219.295 197.161 219.56 197.5 219.901 197.742C220.246 197.984 220.65 198.105 221.114 198.105C221.419 198.105 221.696 198.052 221.944 197.946C222.193 197.84 222.403 197.688 222.576 197.489C222.748 197.29 222.871 197.051 222.944 196.773H224.117C224.051 197.223 223.887 197.629 223.625 197.991C223.366 198.349 223.023 198.634 222.596 198.846C222.171 199.055 221.678 199.159 221.114 199.159ZM230.925 195.878V191.364H232.098V199H230.925V197.707H230.845C230.666 198.095 230.388 198.425 230.01 198.697C229.632 198.965 229.155 199.099 228.578 199.099C228.101 199.099 227.677 198.995 227.305 198.786C226.934 198.574 226.642 198.256 226.43 197.832C226.218 197.404 226.112 196.866 226.112 196.216V191.364H227.285V196.136C227.285 196.693 227.441 197.137 227.753 197.469C228.068 197.8 228.469 197.966 228.956 197.966C229.248 197.966 229.544 197.891 229.846 197.742C230.151 197.593 230.406 197.364 230.611 197.056C230.82 196.748 230.925 196.355 230.925 195.878ZM234.527 199V191.364H235.66V192.517H235.74C235.879 192.139 236.131 191.833 236.496 191.597C236.86 191.362 237.271 191.244 237.729 191.244C237.815 191.244 237.923 191.246 238.052 191.249C238.181 191.253 238.279 191.258 238.345 191.264V192.457C238.305 192.447 238.214 192.433 238.072 192.413C237.932 192.389 237.785 192.378 237.629 192.378C237.258 192.378 236.927 192.456 236.635 192.612C236.347 192.764 236.118 192.976 235.949 193.248C235.783 193.516 235.7 193.823 235.7 194.168V199H234.527ZM240.016 199V191.364H241.149V192.517H241.229C241.368 192.139 241.62 191.833 241.985 191.597C242.349 191.362 242.76 191.244 243.218 191.244C243.304 191.244 243.411 191.246 243.541 191.249C243.67 191.253 243.768 191.258 243.834 191.264V192.457C243.794 192.447 243.703 192.433 243.561 192.413C243.421 192.389 243.274 192.378 243.118 192.378C242.747 192.378 242.416 192.456 242.124 192.612C241.835 192.764 241.607 192.976 241.438 193.248C241.272 193.516 241.189 193.823 241.189 194.168V199H240.016ZM248.474 199.159C247.738 199.159 247.104 198.997 246.57 198.672C246.04 198.344 245.63 197.886 245.342 197.3C245.057 196.71 244.915 196.024 244.915 195.241C244.915 194.459 245.057 193.77 245.342 193.173C245.63 192.573 246.031 192.106 246.545 191.771C247.062 191.433 247.665 191.264 248.355 191.264C248.753 191.264 249.145 191.33 249.533 191.463C249.921 191.596 250.274 191.811 250.592 192.109C250.91 192.404 251.164 192.795 251.353 193.283C251.542 193.77 251.636 194.37 251.636 195.082V195.58H245.75V194.565H250.443C250.443 194.134 250.357 193.75 250.184 193.412C250.015 193.074 249.773 192.807 249.459 192.612C249.147 192.416 248.779 192.318 248.355 192.318C247.888 192.318 247.483 192.434 247.142 192.666C246.804 192.895 246.544 193.193 246.361 193.561C246.179 193.929 246.088 194.323 246.088 194.744V195.42C246.088 195.997 246.187 196.486 246.386 196.887C246.588 197.285 246.868 197.588 247.226 197.797C247.584 198.002 248 198.105 248.474 198.105C248.782 198.105 249.061 198.062 249.309 197.976C249.561 197.886 249.778 197.754 249.961 197.578C250.143 197.399 250.284 197.177 250.383 196.912L251.517 197.23C251.397 197.615 251.197 197.953 250.915 198.244C250.633 198.533 250.285 198.758 249.871 198.92C249.457 199.08 248.991 199.159 248.474 199.159ZM254.874 194.406V199H253.701V191.364H254.834V192.557H254.934C255.113 192.169 255.385 191.857 255.749 191.622C256.114 191.384 256.584 191.264 257.161 191.264C257.678 191.264 258.131 191.37 258.518 191.582C258.906 191.791 259.208 192.109 259.423 192.537C259.639 192.961 259.746 193.498 259.746 194.148V199H258.573V194.227C258.573 193.627 258.417 193.16 258.106 192.825C257.794 192.487 257.367 192.318 256.823 192.318C256.449 192.318 256.114 192.399 255.819 192.562C255.527 192.724 255.297 192.961 255.128 193.273C254.959 193.584 254.874 193.962 254.874 194.406ZM265.491 191.364V192.358H261.534V191.364H265.491ZM262.687 189.534H263.861V196.812C263.861 197.144 263.909 197.393 264.005 197.558C264.104 197.721 264.23 197.83 264.383 197.886C264.538 197.939 264.703 197.966 264.875 197.966C265.004 197.966 265.11 197.959 265.193 197.946C265.276 197.929 265.342 197.916 265.392 197.906L265.631 198.96C265.551 198.99 265.44 199.02 265.297 199.05C265.155 199.083 264.974 199.099 264.756 199.099C264.424 199.099 264.099 199.028 263.781 198.886C263.466 198.743 263.204 198.526 262.996 198.234C262.79 197.943 262.687 197.575 262.687 197.131V189.534ZM268.874 188.818V199H267.7V188.818H268.874ZM272.058 201.864C271.859 201.864 271.682 201.847 271.526 201.814C271.371 201.784 271.263 201.754 271.203 201.724L271.501 200.69C271.787 200.763 272.038 200.79 272.257 200.77C272.476 200.75 272.67 200.652 272.839 200.477C273.011 200.304 273.169 200.024 273.311 199.636L273.53 199.04L270.706 191.364H271.979L274.087 197.449H274.166L276.274 191.364H277.547L274.305 200.114C274.16 200.508 273.979 200.835 273.764 201.093C273.548 201.355 273.298 201.549 273.013 201.675C272.731 201.801 272.413 201.864 272.058 201.864ZM158.321 219.179C157.837 219.179 157.398 219.088 157.004 218.906C156.609 218.72 156.296 218.453 156.064 218.105C155.832 217.754 155.716 217.33 155.716 216.832C155.716 216.395 155.802 216.04 155.974 215.768C156.147 215.493 156.377 215.278 156.665 215.122C156.954 214.966 157.272 214.85 157.62 214.774C157.971 214.695 158.324 214.632 158.679 214.585C159.143 214.526 159.519 214.481 159.808 214.451C160.099 214.418 160.311 214.363 160.444 214.287C160.58 214.211 160.648 214.078 160.648 213.889V213.849C160.648 213.359 160.513 212.978 160.245 212.706C159.98 212.434 159.577 212.298 159.037 212.298C158.477 212.298 158.038 212.421 157.719 212.666C157.401 212.911 157.178 213.173 157.048 213.452L155.935 213.054C156.134 212.59 156.399 212.229 156.73 211.97C157.065 211.708 157.429 211.526 157.824 211.423C158.222 211.317 158.613 211.264 158.997 211.264C159.242 211.264 159.524 211.294 159.842 211.354C160.164 211.41 160.474 211.528 160.772 211.707C161.074 211.886 161.324 212.156 161.523 212.517C161.722 212.878 161.821 213.362 161.821 213.969V219H160.648V217.966H160.588C160.509 218.132 160.376 218.309 160.19 218.498C160.005 218.687 159.758 218.848 159.45 218.98C159.141 219.113 158.765 219.179 158.321 219.179ZM158.5 218.125C158.964 218.125 159.355 218.034 159.673 217.852C159.995 217.669 160.237 217.434 160.399 217.146C160.565 216.857 160.648 216.554 160.648 216.236V215.162C160.598 215.222 160.489 215.276 160.32 215.326C160.154 215.372 159.962 215.414 159.743 215.45C159.527 215.483 159.317 215.513 159.112 215.54C158.909 215.563 158.745 215.583 158.619 215.599C158.314 215.639 158.029 215.704 157.764 215.793C157.502 215.879 157.29 216.01 157.128 216.186C156.969 216.358 156.889 216.594 156.889 216.892C156.889 217.3 157.04 217.608 157.342 217.817C157.647 218.022 158.033 218.125 158.5 218.125ZM170.213 211.364L167.39 219H166.196L163.373 211.364H164.645L166.753 217.449H166.833L168.941 211.364H170.213ZM174.057 219.179C173.573 219.179 173.134 219.088 172.739 218.906C172.345 218.72 172.032 218.453 171.8 218.105C171.568 217.754 171.452 217.33 171.452 216.832C171.452 216.395 171.538 216.04 171.71 215.768C171.883 215.493 172.113 215.278 172.401 215.122C172.69 214.966 173.008 214.85 173.356 214.774C173.707 214.695 174.06 214.632 174.415 214.585C174.879 214.526 175.255 214.481 175.543 214.451C175.835 214.418 176.047 214.363 176.18 214.287C176.316 214.211 176.384 214.078 176.384 213.889V213.849C176.384 213.359 176.249 212.978 175.981 212.706C175.716 212.434 175.313 212.298 174.773 212.298C174.213 212.298 173.773 212.421 173.455 212.666C173.137 212.911 172.913 213.173 172.784 213.452L171.67 213.054C171.869 212.59 172.134 212.229 172.466 211.97C172.801 211.708 173.165 211.526 173.56 211.423C173.957 211.317 174.348 211.264 174.733 211.264C174.978 211.264 175.26 211.294 175.578 211.354C175.9 211.41 176.21 211.528 176.508 211.707C176.809 211.886 177.06 212.156 177.259 212.517C177.457 212.878 177.557 213.362 177.557 213.969V219H176.384V217.966H176.324C176.244 218.132 176.112 218.309 175.926 218.498C175.741 218.687 175.494 218.848 175.185 218.98C174.877 219.113 174.501 219.179 174.057 219.179ZM174.236 218.125C174.7 218.125 175.091 218.034 175.409 217.852C175.731 217.669 175.973 217.434 176.135 217.146C176.301 216.857 176.384 216.554 176.384 216.236V215.162C176.334 215.222 176.224 215.276 176.055 215.326C175.89 215.372 175.697 215.414 175.479 215.45C175.263 215.483 175.053 215.513 174.847 215.54C174.645 215.563 174.481 215.583 174.355 215.599C174.05 215.639 173.765 215.704 173.5 215.793C173.238 215.879 173.026 216.01 172.864 216.186C172.705 216.358 172.625 216.594 172.625 216.892C172.625 217.3 172.776 217.608 173.077 217.817C173.382 218.022 173.768 218.125 174.236 218.125ZM179.978 219V211.364H181.152V219H179.978ZM180.575 210.091C180.346 210.091 180.149 210.013 179.983 209.857C179.821 209.701 179.74 209.514 179.74 209.295C179.74 209.077 179.821 208.889 179.983 208.734C180.149 208.578 180.346 208.5 180.575 208.5C180.804 208.5 180.999 208.578 181.162 208.734C181.327 208.889 181.41 209.077 181.41 209.295C181.41 209.514 181.327 209.701 181.162 209.857C180.999 210.013 180.804 210.091 180.575 210.091ZM184.754 208.818V219H183.581V208.818H184.754ZM189.43 219.179C188.946 219.179 188.507 219.088 188.113 218.906C187.718 218.72 187.405 218.453 187.173 218.105C186.941 217.754 186.825 217.33 186.825 216.832C186.825 216.395 186.911 216.04 187.083 215.768C187.256 215.493 187.486 215.278 187.774 215.122C188.063 214.966 188.381 214.85 188.729 214.774C189.08 214.695 189.433 214.632 189.788 214.585C190.252 214.526 190.628 214.481 190.917 214.451C191.208 214.418 191.42 214.363 191.553 214.287C191.689 214.211 191.757 214.078 191.757 213.889V213.849C191.757 213.359 191.622 212.978 191.354 212.706C191.089 212.434 190.686 212.298 190.146 212.298C189.586 212.298 189.147 212.421 188.828 212.666C188.51 212.911 188.287 213.173 188.157 213.452L187.044 213.054C187.243 212.59 187.508 212.229 187.839 211.97C188.174 211.708 188.538 211.526 188.933 211.423C189.331 211.317 189.722 211.264 190.106 211.264C190.351 211.264 190.633 211.294 190.951 211.354C191.273 211.41 191.583 211.528 191.881 211.707C192.183 211.886 192.433 212.156 192.632 212.517C192.831 212.878 192.93 213.362 192.93 213.969V219H191.757V217.966H191.697C191.618 218.132 191.485 218.309 191.299 218.498C191.114 218.687 190.867 218.848 190.559 218.98C190.25 219.113 189.874 219.179 189.43 219.179ZM189.609 218.125C190.073 218.125 190.464 218.034 190.782 217.852C191.104 217.669 191.346 217.434 191.508 217.146C191.674 216.857 191.757 216.554 191.757 216.236V215.162C191.707 215.222 191.598 215.276 191.429 215.326C191.263 215.372 191.071 215.414 190.852 215.45C190.636 215.483 190.426 215.513 190.22 215.54C190.018 215.563 189.854 215.583 189.728 215.599C189.423 215.639 189.138 215.704 188.873 215.793C188.611 215.879 188.399 216.01 188.237 216.186C188.078 216.358 187.998 216.594 187.998 216.892C187.998 217.3 188.149 217.608 188.451 217.817C188.756 218.022 189.142 218.125 189.609 218.125ZM195.511 219V208.818H196.684V212.577H196.783C196.87 212.444 196.989 212.275 197.141 212.07C197.297 211.861 197.519 211.675 197.807 211.513C198.099 211.347 198.494 211.264 198.991 211.264C199.634 211.264 200.2 211.425 200.691 211.746C201.182 212.068 201.564 212.524 201.839 213.114C202.115 213.704 202.252 214.4 202.252 215.202C202.252 216.01 202.115 216.711 201.839 217.305C201.564 217.895 201.183 218.352 200.696 218.677C200.209 218.998 199.647 219.159 199.011 219.159C198.52 219.159 198.127 219.078 197.832 218.915C197.537 218.75 197.31 218.562 197.151 218.354C196.992 218.142 196.87 217.966 196.783 217.827H196.644V219H195.511ZM196.664 215.182C196.664 215.759 196.749 216.267 196.918 216.708C197.087 217.146 197.334 217.489 197.658 217.737C197.983 217.982 198.381 218.105 198.852 218.105C199.342 218.105 199.751 217.976 200.08 217.717C200.411 217.455 200.66 217.104 200.825 216.663C200.994 216.219 201.079 215.725 201.079 215.182C201.079 214.645 200.996 214.161 200.83 213.73C200.668 213.296 200.421 212.953 200.089 212.701C199.761 212.446 199.349 212.318 198.852 212.318C198.374 212.318 197.973 212.439 197.648 212.681C197.324 212.92 197.078 213.254 196.913 213.685C196.747 214.113 196.664 214.612 196.664 215.182ZM205.5 208.818V219H204.327V208.818H205.5ZM211.131 219.159C210.395 219.159 209.76 218.997 209.227 218.672C208.696 218.344 208.287 217.886 207.999 217.3C207.714 216.71 207.571 216.024 207.571 215.241C207.571 214.459 207.714 213.77 207.999 213.173C208.287 212.573 208.688 212.106 209.202 211.771C209.719 211.433 210.322 211.264 211.011 211.264C211.409 211.264 211.802 211.33 212.19 211.463C212.578 211.596 212.931 211.811 213.249 212.109C213.567 212.404 213.82 212.795 214.009 213.283C214.198 213.77 214.293 214.37 214.293 215.082V215.58H208.406V214.565H213.1C213.1 214.134 213.013 213.75 212.841 213.412C212.672 213.074 212.43 212.807 212.115 212.612C211.804 212.416 211.436 212.318 211.011 212.318C210.544 212.318 210.14 212.434 209.798 212.666C209.46 212.895 209.2 213.193 209.018 213.561C208.836 213.929 208.744 214.323 208.744 214.744V215.42C208.744 215.997 208.844 216.486 209.043 216.887C209.245 217.285 209.525 217.588 209.883 217.797C210.241 218.002 210.657 218.105 211.131 218.105C211.439 218.105 211.717 218.062 211.966 217.976C212.218 217.886 212.435 217.754 212.617 217.578C212.8 217.399 212.94 217.177 213.04 216.912L214.173 217.23C214.054 217.615 213.854 217.953 213.572 218.244C213.29 218.533 212.942 218.758 212.528 218.92C212.114 219.08 211.648 219.159 211.131 219.159ZM220.575 219V211.364H221.748V219H220.575ZM221.172 210.091C220.943 210.091 220.746 210.013 220.58 209.857C220.418 209.701 220.336 209.514 220.336 209.295C220.336 209.077 220.418 208.889 220.58 208.734C220.746 208.578 220.943 208.5 221.172 208.5C221.4 208.5 221.596 208.578 221.758 208.734C221.924 208.889 222.007 209.077 222.007 209.295C222.007 209.514 221.924 209.701 221.758 209.857C221.596 210.013 221.4 210.091 221.172 210.091ZM225.351 214.406V219H224.177V211.364H225.311V212.557H225.41C225.589 212.169 225.861 211.857 226.226 211.622C226.59 211.384 227.061 211.264 227.638 211.264C228.155 211.264 228.607 211.37 228.995 211.582C229.383 211.791 229.684 212.109 229.9 212.537C230.115 212.961 230.223 213.498 230.223 214.148V219H229.049V214.227C229.049 213.627 228.894 213.16 228.582 212.825C228.271 212.487 227.843 212.318 227.299 212.318C226.925 212.318 226.59 212.399 226.295 212.562C226.004 212.724 225.773 212.961 225.604 213.273C225.435 213.584 225.351 213.962 225.351 214.406ZM237.62 221.864C237.421 221.864 237.244 221.847 237.088 221.814C236.932 221.784 236.824 221.754 236.765 221.724L237.063 220.69C237.348 220.763 237.6 220.79 237.819 220.77C238.038 220.75 238.231 220.652 238.4 220.477C238.573 220.304 238.73 220.024 238.873 219.636L239.092 219.04L236.268 211.364H237.54L239.648 217.449H239.728L241.836 211.364H243.109L239.867 220.114C239.721 220.508 239.541 220.835 239.325 221.093C239.11 221.355 238.86 221.549 238.574 221.675C238.293 221.801 237.975 221.864 237.62 221.864ZM247.766 219.159C247.077 219.159 246.472 218.995 245.951 218.667C245.434 218.339 245.03 217.88 244.738 217.29C244.45 216.7 244.306 216.01 244.306 215.222C244.306 214.426 244.45 213.732 244.738 213.138C245.03 212.545 245.434 212.085 245.951 211.756C246.472 211.428 247.077 211.264 247.766 211.264C248.455 211.264 249.059 211.428 249.576 211.756C250.096 212.085 250.5 212.545 250.789 213.138C251.08 213.732 251.226 214.426 251.226 215.222C251.226 216.01 251.08 216.7 250.789 217.29C250.5 217.88 250.096 218.339 249.576 218.667C249.059 218.995 248.455 219.159 247.766 219.159ZM247.766 218.105C248.29 218.105 248.721 217.971 249.059 217.702C249.397 217.434 249.647 217.081 249.809 216.643C249.972 216.206 250.053 215.732 250.053 215.222C250.053 214.711 249.972 214.236 249.809 213.795C249.647 213.354 249.397 212.998 249.059 212.726C248.721 212.454 248.29 212.318 247.766 212.318C247.242 212.318 246.812 212.454 246.473 212.726C246.135 212.998 245.885 213.354 245.723 213.795C245.56 214.236 245.479 214.711 245.479 215.222C245.479 215.732 245.56 216.206 245.723 216.643C245.885 217.081 246.135 217.434 246.473 217.702C246.812 217.971 247.242 218.105 247.766 218.105ZM258.11 215.878V211.364H259.283V219H258.11V217.707H258.03C257.851 218.095 257.573 218.425 257.195 218.697C256.817 218.965 256.34 219.099 255.763 219.099C255.286 219.099 254.862 218.995 254.49 218.786C254.119 218.574 253.828 218.256 253.615 217.832C253.403 217.404 253.297 216.866 253.297 216.216V211.364H254.471V216.136C254.471 216.693 254.626 217.137 254.938 217.469C255.253 217.8 255.654 217.966 256.141 217.966C256.433 217.966 256.729 217.891 257.031 217.742C257.336 217.593 257.591 217.364 257.797 217.056C258.005 216.748 258.11 216.355 258.11 215.878ZM261.712 219V211.364H262.846V212.517H262.925C263.064 212.139 263.316 211.833 263.681 211.597C264.045 211.362 264.456 211.244 264.914 211.244C265 211.244 265.108 211.246 265.237 211.249C265.366 211.253 265.464 211.258 265.53 211.264V212.457C265.49 212.447 265.399 212.433 265.257 212.413C265.118 212.389 264.97 212.378 264.814 212.378C264.443 212.378 264.112 212.456 263.82 212.612C263.532 212.764 263.303 212.976 263.134 213.248C262.968 213.516 262.885 213.823 262.885 214.168V219H261.712ZM276.828 213.074L275.774 213.372C275.707 213.196 275.61 213.026 275.48 212.86C275.354 212.691 275.182 212.552 274.963 212.442C274.745 212.333 274.464 212.278 274.123 212.278C273.656 212.278 273.266 212.386 272.955 212.602C272.647 212.814 272.492 213.084 272.492 213.412C272.492 213.704 272.598 213.934 272.811 214.103C273.023 214.272 273.354 214.413 273.805 214.526L274.938 214.804C275.621 214.97 276.13 215.223 276.465 215.565C276.799 215.903 276.967 216.339 276.967 216.872C276.967 217.31 276.841 217.701 276.589 218.045C276.34 218.39 275.992 218.662 275.545 218.861C275.098 219.06 274.577 219.159 273.984 219.159C273.205 219.159 272.56 218.99 272.05 218.652C271.54 218.314 271.216 217.82 271.08 217.17L272.194 216.892C272.3 217.303 272.501 217.611 272.796 217.817C273.094 218.022 273.483 218.125 273.964 218.125C274.511 218.125 274.945 218.009 275.267 217.777C275.591 217.542 275.754 217.26 275.754 216.932C275.754 216.667 275.661 216.445 275.475 216.266C275.29 216.083 275.005 215.947 274.62 215.858L273.348 215.56C272.648 215.394 272.134 215.137 271.806 214.789C271.482 214.438 271.319 213.999 271.319 213.472C271.319 213.041 271.44 212.66 271.682 212.328C271.927 211.997 272.26 211.737 272.681 211.548C273.106 211.359 273.586 211.264 274.123 211.264C274.879 211.264 275.472 211.43 275.903 211.761C276.337 212.093 276.645 212.53 276.828 213.074ZM282.334 211.364V212.358H278.377V211.364H282.334ZM279.53 209.534H280.703V216.812C280.703 217.144 280.751 217.393 280.848 217.558C280.947 217.721 281.073 217.83 281.225 217.886C281.381 217.939 281.545 217.966 281.718 217.966C281.847 217.966 281.953 217.959 282.036 217.946C282.119 217.929 282.185 217.916 282.235 217.906L282.473 218.96C282.394 218.99 282.283 219.02 282.14 219.05C281.998 219.083 281.817 219.099 281.598 219.099C281.267 219.099 280.942 219.028 280.624 218.886C280.309 218.743 280.047 218.526 279.838 218.234C279.633 217.943 279.53 217.575 279.53 217.131V209.534ZM287.399 219.159C286.71 219.159 286.105 218.995 285.585 218.667C285.068 218.339 284.663 217.88 284.371 217.29C284.083 216.7 283.939 216.01 283.939 215.222C283.939 214.426 284.083 213.732 284.371 213.138C284.663 212.545 285.068 212.085 285.585 211.756C286.105 211.428 286.71 211.264 287.399 211.264C288.089 211.264 288.692 211.428 289.209 211.756C289.729 212.085 290.134 212.545 290.422 213.138C290.714 213.732 290.859 214.426 290.859 215.222C290.859 216.01 290.714 216.7 290.422 217.29C290.134 217.88 289.729 218.339 289.209 218.667C288.692 218.995 288.089 219.159 287.399 219.159ZM287.399 218.105C287.923 218.105 288.354 217.971 288.692 217.702C289.03 217.434 289.28 217.081 289.443 216.643C289.605 216.206 289.686 215.732 289.686 215.222C289.686 214.711 289.605 214.236 289.443 213.795C289.28 213.354 289.03 212.998 288.692 212.726C288.354 212.454 287.923 212.318 287.399 212.318C286.876 212.318 286.445 212.454 286.107 212.726C285.769 212.998 285.518 213.354 285.356 213.795C285.193 214.236 285.112 214.711 285.112 215.222C285.112 215.732 285.193 216.206 285.356 216.643C285.518 217.081 285.769 217.434 286.107 217.702C286.445 217.971 286.876 218.105 287.399 218.105ZM296.033 219.159C295.317 219.159 294.7 218.99 294.183 218.652C293.666 218.314 293.268 217.848 292.99 217.255C292.712 216.662 292.572 215.984 292.572 215.222C292.572 214.446 292.715 213.762 293 213.168C293.288 212.572 293.689 212.106 294.203 211.771C294.72 211.433 295.323 211.264 296.013 211.264C296.55 211.264 297.034 211.364 297.465 211.562C297.895 211.761 298.248 212.04 298.523 212.398C298.799 212.756 298.969 213.173 299.036 213.651H297.862C297.773 213.303 297.574 212.994 297.266 212.726C296.961 212.454 296.55 212.318 296.033 212.318C295.575 212.318 295.174 212.437 294.83 212.676C294.488 212.911 294.221 213.245 294.029 213.675C293.84 214.103 293.746 214.605 293.746 215.182C293.746 215.772 293.839 216.286 294.024 216.723C294.213 217.161 294.478 217.5 294.82 217.742C295.164 217.984 295.569 218.105 296.033 218.105C296.338 218.105 296.614 218.052 296.863 217.946C297.112 217.84 297.322 217.688 297.494 217.489C297.667 217.29 297.789 217.051 297.862 216.773H299.036C298.969 217.223 298.805 217.629 298.543 217.991C298.285 218.349 297.942 218.634 297.514 218.846C297.09 219.055 296.596 219.159 296.033 219.159ZM302.124 216.216L302.105 214.764H302.343L305.684 211.364H307.136L303.576 214.963H303.477L302.124 216.216ZM301.031 219V208.818H302.204V219H301.031ZM305.883 219L302.9 215.222L303.735 214.406L307.374 219H305.883ZM310.457 216.136V216.077C310.464 215.444 310.53 214.94 310.656 214.565C310.782 214.191 310.961 213.888 311.193 213.656C311.425 213.424 311.703 213.21 312.028 213.014C312.224 212.895 312.399 212.754 312.555 212.592C312.711 212.426 312.834 212.235 312.923 212.02C313.016 211.804 313.062 211.566 313.062 211.304C313.062 210.979 312.986 210.697 312.834 210.459C312.681 210.22 312.477 210.036 312.222 209.907C311.967 209.778 311.684 209.713 311.372 209.713C311.1 209.713 310.838 209.769 310.586 209.882C310.335 209.995 310.124 210.172 309.955 210.414C309.786 210.656 309.688 210.973 309.662 211.364H308.409C308.435 210.8 308.581 210.318 308.846 209.917C309.115 209.516 309.468 209.209 309.905 208.997C310.346 208.785 310.835 208.679 311.372 208.679C311.955 208.679 312.462 208.795 312.893 209.027C313.327 209.259 313.662 209.577 313.898 209.982C314.136 210.386 314.256 210.847 314.256 211.364C314.256 211.728 314.199 212.058 314.086 212.353C313.977 212.648 313.818 212.911 313.609 213.143C313.404 213.375 313.155 213.581 312.863 213.76C312.572 213.942 312.338 214.134 312.162 214.337C311.987 214.536 311.859 214.772 311.78 215.048C311.7 215.323 311.657 215.666 311.65 216.077V216.136H310.457ZM311.094 219.08C310.848 219.08 310.638 218.992 310.462 218.816C310.287 218.64 310.199 218.43 310.199 218.185C310.199 217.939 310.287 217.729 310.462 217.553C310.638 217.378 310.848 217.29 311.094 217.29C311.339 217.29 311.549 217.378 311.725 217.553C311.901 217.729 311.988 217.939 311.988 218.185C311.988 218.347 311.947 218.496 311.864 218.632C311.785 218.768 311.677 218.877 311.541 218.96C311.408 219.04 311.259 219.08 311.094 219.08Z" fill="#212528"/>
</g>
<g filter="url(#filter1_ddd_4354_20135)">
<rect x="255" y="258" width="200" height="80" rx="8" fill="white"/>
<path d="M269.509 272.679C270.033 272.679 270.537 272.767 271.021 272.942C271.508 273.118 271.942 273.398 272.323 273.783C272.708 274.167 273.011 274.678 273.233 275.314C273.458 275.947 273.573 276.724 273.576 277.646C273.576 278.511 273.478 279.283 273.283 279.962C273.09 280.638 272.814 281.214 272.452 281.688C272.091 282.161 271.655 282.523 271.145 282.771C270.634 283.017 270.064 283.139 269.435 283.139C268.755 283.139 268.155 283.008 267.635 282.746C267.115 282.481 266.695 282.122 266.377 281.668C266.062 281.21 265.872 280.696 265.805 280.126H267.928C268.011 280.498 268.185 280.786 268.45 280.991C268.715 281.194 269.044 281.295 269.435 281.295C270.098 281.295 270.601 281.006 270.946 280.43C271.291 279.85 271.465 279.056 271.468 278.048H271.398C271.246 278.347 271.04 278.603 270.782 278.819C270.523 279.031 270.227 279.195 269.892 279.311C269.561 279.427 269.208 279.485 268.833 279.485C268.233 279.485 267.698 279.344 267.227 279.062C266.757 278.781 266.385 278.393 266.114 277.899C265.842 277.405 265.706 276.842 265.706 276.209C265.703 275.526 265.86 274.918 266.178 274.384C266.496 273.851 266.941 273.433 267.511 273.131C268.084 272.826 268.75 272.676 269.509 272.679ZM269.524 274.369C269.189 274.369 268.891 274.449 268.629 274.608C268.371 274.767 268.165 274.981 268.013 275.249C267.864 275.518 267.791 275.818 267.794 276.149C267.794 276.484 267.867 276.786 268.013 277.054C268.162 277.319 268.364 277.531 268.619 277.69C268.878 277.846 269.173 277.924 269.504 277.924C269.753 277.924 269.983 277.878 270.195 277.785C270.407 277.692 270.591 277.564 270.747 277.402C270.906 277.236 271.031 277.046 271.12 276.83C271.21 276.615 271.254 276.386 271.254 276.144C271.251 275.823 271.175 275.528 271.026 275.259C270.876 274.991 270.671 274.775 270.409 274.613C270.147 274.451 269.852 274.369 269.524 274.369ZM279.031 272.679C279.555 272.679 280.059 272.767 280.543 272.942C281.03 273.118 281.464 273.398 281.845 273.783C282.23 274.167 282.533 274.678 282.755 275.314C282.981 275.947 283.095 276.724 283.098 277.646C283.098 278.511 283 279.283 282.805 279.962C282.613 280.638 282.336 281.214 281.975 281.688C281.613 282.161 281.177 282.523 280.667 282.771C280.157 283.017 279.587 283.139 278.957 283.139C278.277 283.139 277.677 283.008 277.157 282.746C276.637 282.481 276.217 282.122 275.899 281.668C275.584 281.21 275.394 280.696 275.328 280.126H277.45C277.533 280.498 277.707 280.786 277.972 280.991C278.238 281.194 278.566 281.295 278.957 281.295C279.62 281.295 280.124 281.006 280.468 280.43C280.813 279.85 280.987 279.056 280.99 278.048H280.921C280.768 278.347 280.563 278.603 280.304 278.819C280.046 279.031 279.749 279.195 279.414 279.311C279.083 279.427 278.73 279.485 278.355 279.485C277.755 279.485 277.22 279.344 276.749 279.062C276.279 278.781 275.908 278.393 275.636 277.899C275.364 277.405 275.228 276.842 275.228 276.209C275.225 275.526 275.382 274.918 275.7 274.384C276.019 273.851 276.463 273.433 277.033 273.131C277.606 272.826 278.272 272.676 279.031 272.679ZM279.046 274.369C278.712 274.369 278.413 274.449 278.151 274.608C277.893 274.767 277.687 274.981 277.535 275.249C277.386 275.518 277.313 275.818 277.316 276.149C277.316 276.484 277.389 276.786 277.535 277.054C277.684 277.319 277.886 277.531 278.142 277.69C278.4 277.846 278.695 277.924 279.026 277.924C279.275 277.924 279.505 277.878 279.717 277.785C279.93 277.692 280.114 277.564 280.269 277.402C280.428 277.236 280.553 277.046 280.642 276.83C280.732 276.615 280.776 276.386 280.776 276.144C280.773 275.823 280.697 275.528 280.548 275.259C280.399 274.991 280.193 274.775 279.931 274.613C279.669 274.451 279.374 274.369 279.046 274.369ZM288.554 272.679C289.077 272.679 289.581 272.767 290.065 272.942C290.552 273.118 290.986 273.398 291.368 273.783C291.752 274.167 292.055 274.678 292.277 275.314C292.503 275.947 292.617 276.724 292.62 277.646C292.62 278.511 292.523 279.283 292.327 279.962C292.135 280.638 291.858 281.214 291.497 281.688C291.136 282.161 290.7 282.523 290.189 282.771C289.679 283.017 289.109 283.139 288.479 283.139C287.8 283.139 287.2 283.008 286.679 282.746C286.159 282.481 285.74 282.122 285.422 281.668C285.107 281.21 284.916 280.696 284.85 280.126H286.973C287.056 280.498 287.23 280.786 287.495 280.991C287.76 281.194 288.088 281.295 288.479 281.295C289.142 281.295 289.646 281.006 289.99 280.43C290.335 279.85 290.509 279.056 290.512 278.048H290.443C290.29 278.347 290.085 278.603 289.826 278.819C289.568 279.031 289.271 279.195 288.936 279.311C288.605 279.427 288.252 279.485 287.877 279.485C287.278 279.485 286.742 279.344 286.272 279.062C285.801 278.781 285.43 278.393 285.158 277.899C284.886 277.405 284.75 276.842 284.75 276.209C284.747 275.526 284.904 274.918 285.223 274.384C285.541 273.851 285.985 273.433 286.555 273.131C287.128 272.826 287.795 272.676 288.554 272.679ZM288.569 274.369C288.234 274.369 287.935 274.449 287.674 274.608C287.415 274.767 287.21 274.981 287.057 275.249C286.908 275.518 286.835 275.818 286.838 276.149C286.838 276.484 286.911 276.786 287.057 277.054C287.206 277.319 287.408 277.531 287.664 277.69C287.922 277.846 288.217 277.924 288.549 277.924C288.797 277.924 289.028 277.878 289.24 277.785C289.452 277.692 289.636 277.564 289.792 277.402C289.951 277.236 290.075 277.046 290.164 276.83C290.254 276.615 290.299 276.386 290.299 276.144C290.295 275.823 290.219 275.528 290.07 275.259C289.921 274.991 289.715 274.775 289.453 274.613C289.192 274.451 288.897 274.369 288.569 274.369ZM296.853 278.545L296.977 276.621L295.366 277.7L294.7 276.527L296.435 275.682L294.7 274.837L295.366 273.663L296.977 274.742L296.853 272.818H298.19L298.061 274.742L299.672 273.663L300.338 274.837L298.608 275.682L300.338 276.527L299.672 277.7L298.061 276.621L298.19 278.545H296.853ZM305.035 278.545L305.159 276.621L303.549 277.7L302.882 276.527L304.618 275.682L302.882 274.837L303.549 273.663L305.159 274.742L305.035 272.818H306.372L306.243 274.742L307.854 273.663L308.52 274.837L306.79 275.682L308.52 276.527L307.854 277.7L306.243 276.621L306.372 278.545H305.035ZM313.217 278.545L313.342 276.621L311.731 277.7L311.065 276.527L312.8 275.682L311.065 274.837L311.731 273.663L313.342 274.742L313.217 272.818H314.555L314.426 274.742L316.036 273.663L316.703 274.837L314.972 275.682L316.703 276.527L316.036 277.7L314.426 276.621L314.555 278.545H313.217ZM321.4 278.545L321.524 276.621L319.913 277.7L319.247 276.527L320.982 275.682L319.247 274.837L319.913 273.663L321.524 274.742L321.4 272.818H322.737L322.608 274.742L324.219 273.663L324.885 274.837L323.155 275.682L324.885 276.527L324.219 277.7L322.608 276.621L322.737 278.545H321.4ZM330.92 283.139C330.154 283.139 329.473 283.015 328.876 282.766C328.283 282.514 327.817 282.171 327.479 281.737C327.141 281.303 326.972 280.811 326.972 280.261C326.972 279.836 327.068 279.447 327.26 279.092C327.456 278.734 327.721 278.438 328.056 278.202C328.391 277.964 328.765 277.811 329.179 277.745V277.675C328.636 277.566 328.195 277.303 327.857 276.885C327.519 276.464 327.35 275.975 327.35 275.418C327.35 274.891 327.504 274.422 327.812 274.011C328.121 273.597 328.543 273.272 329.08 273.037C329.62 272.798 330.233 272.679 330.92 272.679C331.606 272.679 332.217 272.798 332.754 273.037C333.294 273.276 333.719 273.602 334.027 274.016C334.335 274.427 334.491 274.895 334.494 275.418C334.491 275.978 334.318 276.467 333.977 276.885C333.636 277.303 333.198 277.566 332.665 277.675V277.745C333.072 277.811 333.442 277.964 333.773 278.202C334.108 278.438 334.373 278.734 334.569 279.092C334.768 279.447 334.869 279.836 334.872 280.261C334.869 280.811 334.698 281.303 334.36 281.737C334.022 282.171 333.554 282.514 332.958 282.766C332.365 283.015 331.685 283.139 330.92 283.139ZM330.92 281.558C331.261 281.558 331.559 281.497 331.814 281.374C332.07 281.248 332.268 281.076 332.411 280.857C332.557 280.635 332.63 280.38 332.63 280.092C332.63 279.797 332.555 279.536 332.406 279.311C332.257 279.082 332.055 278.903 331.799 278.774C331.544 278.642 331.251 278.575 330.92 278.575C330.591 278.575 330.298 278.642 330.04 278.774C329.781 278.903 329.577 279.082 329.428 279.311C329.282 279.536 329.209 279.797 329.209 280.092C329.209 280.38 329.281 280.635 329.423 280.857C329.566 281.076 329.766 281.248 330.025 281.374C330.283 281.497 330.581 281.558 330.92 281.558ZM330.92 277.009C331.205 277.009 331.458 276.951 331.68 276.835C331.902 276.719 332.076 276.558 332.202 276.353C332.328 276.147 332.391 275.911 332.391 275.642C332.391 275.377 332.328 275.145 332.202 274.946C332.076 274.744 331.904 274.586 331.685 274.474C331.466 274.358 331.211 274.3 330.92 274.3C330.631 274.3 330.376 274.358 330.154 274.474C329.932 274.586 329.758 274.744 329.632 274.946C329.509 275.145 329.448 275.377 329.448 275.642C329.448 275.911 329.511 276.147 329.637 276.353C329.763 276.558 329.937 276.719 330.159 276.835C330.381 276.951 330.634 277.009 330.92 277.009ZM340.341 272.679C340.865 272.679 341.368 272.767 341.852 272.942C342.34 273.118 342.774 273.398 343.155 273.783C343.539 274.167 343.843 274.678 344.065 275.314C344.29 275.947 344.404 276.724 344.408 277.646C344.408 278.511 344.31 279.283 344.114 279.962C343.922 280.638 343.645 281.214 343.284 281.688C342.923 282.161 342.487 282.523 341.977 282.771C341.466 283.017 340.896 283.139 340.266 283.139C339.587 283.139 338.987 283.008 338.467 282.746C337.946 282.481 337.527 282.122 337.209 281.668C336.894 281.21 336.703 280.696 336.637 280.126H338.76C338.843 280.498 339.017 280.786 339.282 280.991C339.547 281.194 339.875 281.295 340.266 281.295C340.929 281.295 341.433 281.006 341.778 280.43C342.123 279.85 342.297 279.056 342.3 278.048H342.23C342.078 278.347 341.872 278.603 341.614 278.819C341.355 279.031 341.059 279.195 340.724 279.311C340.392 279.427 340.039 279.485 339.665 279.485C339.065 279.485 338.53 279.344 338.059 279.062C337.588 278.781 337.217 278.393 336.945 277.899C336.674 277.405 336.538 276.842 336.538 276.209C336.534 275.526 336.692 274.918 337.01 274.384C337.328 273.851 337.772 273.433 338.342 273.131C338.916 272.826 339.582 272.676 340.341 272.679ZM340.356 274.369C340.021 274.369 339.723 274.449 339.461 274.608C339.203 274.767 338.997 274.981 338.845 275.249C338.695 275.518 338.623 275.818 338.626 276.149C338.626 276.484 338.699 276.786 338.845 277.054C338.994 277.319 339.196 277.531 339.451 277.69C339.71 277.846 340.005 277.924 340.336 277.924C340.585 277.924 340.815 277.878 341.027 277.785C341.239 277.692 341.423 277.564 341.579 277.402C341.738 277.236 341.862 277.046 341.952 276.83C342.041 276.615 342.086 276.386 342.086 276.144C342.083 275.823 342.007 275.528 341.857 275.259C341.708 274.991 341.503 274.775 341.241 274.613C340.979 274.451 340.684 274.369 340.356 274.369ZM349.978 283.139C349.212 283.139 348.531 283.015 347.934 282.766C347.341 282.514 346.875 282.171 346.537 281.737C346.199 281.303 346.03 280.811 346.03 280.261C346.03 279.836 346.126 279.447 346.318 279.092C346.514 278.734 346.779 278.438 347.114 278.202C347.449 277.964 347.823 277.811 348.238 277.745V277.675C347.694 277.566 347.253 277.303 346.915 276.885C346.577 276.464 346.408 275.975 346.408 275.418C346.408 274.891 346.562 274.422 346.87 274.011C347.179 273.597 347.601 273.272 348.138 273.037C348.678 272.798 349.291 272.679 349.978 272.679C350.664 272.679 351.275 272.798 351.812 273.037C352.352 273.276 352.777 273.602 353.085 274.016C353.393 274.427 353.549 274.895 353.552 275.418C353.549 275.978 353.376 276.467 353.035 276.885C352.694 277.303 352.256 277.566 351.723 277.675V277.745C352.13 277.811 352.5 277.964 352.831 278.202C353.166 278.438 353.431 278.734 353.627 279.092C353.826 279.447 353.927 279.836 353.93 280.261C353.927 280.811 353.756 281.303 353.418 281.737C353.08 282.171 352.613 282.514 352.016 282.766C351.423 283.015 350.743 283.139 349.978 283.139ZM349.978 281.558C350.319 281.558 350.617 281.497 350.872 281.374C351.128 281.248 351.327 281.076 351.469 280.857C351.615 280.635 351.688 280.38 351.688 280.092C351.688 279.797 351.613 279.536 351.464 279.311C351.315 279.082 351.113 278.903 350.858 278.774C350.602 278.642 350.309 278.575 349.978 278.575C349.649 278.575 349.356 278.642 349.098 278.774C348.839 278.903 348.635 279.082 348.486 279.311C348.34 279.536 348.267 279.797 348.267 280.092C348.267 280.38 348.339 280.635 348.481 280.857C348.624 281.076 348.824 281.248 349.083 281.374C349.341 281.497 349.639 281.558 349.978 281.558ZM349.978 277.009C350.263 277.009 350.516 276.951 350.738 276.835C350.96 276.719 351.134 276.558 351.26 276.353C351.386 276.147 351.449 275.911 351.449 275.642C351.449 275.377 351.386 275.145 351.26 274.946C351.134 274.744 350.962 274.586 350.743 274.474C350.524 274.358 350.269 274.3 349.978 274.3C349.689 274.3 349.434 274.358 349.212 274.474C348.99 274.586 348.816 274.744 348.69 274.946C348.567 275.145 348.506 275.377 348.506 275.642C348.506 275.911 348.569 276.147 348.695 276.353C348.821 276.558 348.995 276.719 349.217 276.835C349.439 276.951 349.693 277.009 349.978 277.009ZM273.193 296C273.084 295.665 272.94 295.365 272.761 295.1C272.585 294.832 272.375 294.603 272.129 294.414C271.887 294.225 271.612 294.081 271.304 293.982C270.996 293.882 270.658 293.832 270.29 293.832C269.687 293.832 269.138 293.988 268.644 294.3C268.15 294.611 267.758 295.07 267.466 295.677C267.174 296.283 267.028 297.027 267.028 297.909C267.028 298.791 267.176 299.535 267.471 300.141C267.766 300.748 268.165 301.207 268.669 301.518C269.173 301.83 269.74 301.986 270.369 301.986C270.953 301.986 271.466 301.862 271.911 301.613C272.358 301.361 272.706 301.006 272.955 300.549C273.206 300.088 273.332 299.546 273.332 298.923L273.71 299.003H270.648V297.909H274.526V299.003C274.526 299.841 274.347 300.571 273.989 301.19C273.634 301.81 273.143 302.291 272.517 302.632C271.894 302.97 271.178 303.139 270.369 303.139C269.468 303.139 268.676 302.927 267.993 302.503C267.313 302.079 266.783 301.475 266.402 300.693C266.024 299.911 265.835 298.983 265.835 297.909C265.835 297.104 265.943 296.379 266.158 295.737C266.377 295.09 266.685 294.54 267.083 294.086C267.481 293.632 267.951 293.284 268.495 293.042C269.039 292.8 269.637 292.679 270.29 292.679C270.827 292.679 271.327 292.76 271.791 292.923C272.259 293.082 272.674 293.309 273.039 293.604C273.407 293.895 273.714 294.245 273.959 294.653C274.204 295.057 274.373 295.506 274.466 296H273.193ZM276.758 303V295.364H277.892V296.517H277.971C278.11 296.139 278.362 295.833 278.727 295.597C279.091 295.362 279.502 295.244 279.96 295.244C280.046 295.244 280.154 295.246 280.283 295.249C280.412 295.253 280.51 295.258 280.576 295.264V296.457C280.537 296.447 280.445 296.433 280.303 296.413C280.164 296.389 280.016 296.378 279.86 296.378C279.489 296.378 279.158 296.456 278.866 296.612C278.578 296.764 278.349 296.976 278.18 297.248C278.014 297.516 277.931 297.823 277.931 298.168V303H276.758ZM285.216 303.159C284.481 303.159 283.846 302.997 283.312 302.672C282.782 302.344 282.373 301.886 282.084 301.3C281.799 300.71 281.657 300.024 281.657 299.241C281.657 298.459 281.799 297.77 282.084 297.173C282.373 296.573 282.774 296.106 283.287 295.771C283.804 295.433 284.408 295.264 285.097 295.264C285.495 295.264 285.888 295.33 286.275 295.463C286.663 295.596 287.016 295.811 287.334 296.109C287.653 296.404 287.906 296.795 288.095 297.283C288.284 297.77 288.378 298.37 288.378 299.082V299.58H282.492V298.565H287.185C287.185 298.134 287.099 297.75 286.927 297.412C286.758 297.074 286.516 296.807 286.201 296.612C285.889 296.416 285.521 296.318 285.097 296.318C284.63 296.318 284.225 296.434 283.884 296.666C283.546 296.895 283.286 297.193 283.104 297.561C282.921 297.929 282.83 298.323 282.83 298.744V299.42C282.83 299.997 282.929 300.486 283.128 300.887C283.331 301.285 283.611 301.588 283.969 301.797C284.327 302.002 284.742 302.105 285.216 302.105C285.525 302.105 285.803 302.062 286.052 301.976C286.304 301.886 286.521 301.754 286.703 301.578C286.885 301.399 287.026 301.177 287.126 300.912L288.259 301.23C288.14 301.615 287.939 301.953 287.657 302.244C287.376 302.533 287.028 302.758 286.613 302.92C286.199 303.08 285.733 303.159 285.216 303.159ZM292.69 303.179C292.206 303.179 291.767 303.088 291.373 302.906C290.978 302.72 290.665 302.453 290.433 302.105C290.201 301.754 290.085 301.33 290.085 300.832C290.085 300.395 290.171 300.04 290.344 299.768C290.516 299.493 290.746 299.278 291.035 299.122C291.323 298.966 291.641 298.85 291.989 298.774C292.341 298.695 292.694 298.632 293.048 298.585C293.512 298.526 293.888 298.481 294.177 298.451C294.468 298.418 294.681 298.363 294.813 298.287C294.949 298.211 295.017 298.078 295.017 297.889V297.849C295.017 297.359 294.883 296.978 294.614 296.706C294.349 296.434 293.946 296.298 293.406 296.298C292.846 296.298 292.407 296.421 292.089 296.666C291.771 296.911 291.547 297.173 291.418 297.452L290.304 297.054C290.503 296.59 290.768 296.229 291.099 295.97C291.434 295.708 291.799 295.526 292.193 295.423C292.591 295.317 292.982 295.264 293.366 295.264C293.612 295.264 293.893 295.294 294.212 295.354C294.533 295.41 294.843 295.528 295.141 295.707C295.443 295.886 295.693 296.156 295.892 296.517C296.091 296.878 296.19 297.362 296.19 297.969V303H295.017V301.966H294.957C294.878 302.132 294.745 302.309 294.56 302.498C294.374 302.687 294.127 302.848 293.819 302.98C293.511 303.113 293.134 303.179 292.69 303.179ZM292.869 302.125C293.333 302.125 293.724 302.034 294.043 301.852C294.364 301.669 294.606 301.434 294.768 301.146C294.934 300.857 295.017 300.554 295.017 300.236V299.162C294.967 299.222 294.858 299.276 294.689 299.326C294.523 299.372 294.331 299.414 294.112 299.45C293.897 299.483 293.686 299.513 293.481 299.54C293.279 299.563 293.115 299.583 292.989 299.599C292.684 299.639 292.399 299.704 292.134 299.793C291.872 299.879 291.66 300.01 291.497 300.186C291.338 300.358 291.259 300.594 291.259 300.892C291.259 301.3 291.409 301.608 291.711 301.817C292.016 302.022 292.402 302.125 292.869 302.125ZM301.933 295.364V296.358H297.975V295.364H301.933ZM299.129 293.534H300.302V300.812C300.302 301.144 300.35 301.393 300.446 301.558C300.546 301.721 300.672 301.83 300.824 301.886C300.98 301.939 301.144 301.966 301.316 301.966C301.446 301.966 301.552 301.959 301.635 301.946C301.717 301.929 301.784 301.916 301.833 301.906L302.072 302.96C301.993 302.99 301.881 303.02 301.739 303.05C301.596 303.083 301.416 303.099 301.197 303.099C300.866 303.099 300.541 303.028 300.223 302.886C299.908 302.743 299.646 302.526 299.437 302.234C299.232 301.943 299.129 301.575 299.129 301.131V293.534ZM309.369 298.406V303H308.195V295.364H309.329V296.557H309.428C309.607 296.169 309.879 295.857 310.244 295.622C310.608 295.384 311.079 295.264 311.655 295.264C312.173 295.264 312.625 295.37 313.013 295.582C313.401 295.791 313.702 296.109 313.918 296.537C314.133 296.961 314.241 297.498 314.241 298.148V303H313.067V298.227C313.067 297.627 312.912 297.16 312.6 296.825C312.289 296.487 311.861 296.318 311.317 296.318C310.943 296.318 310.608 296.399 310.313 296.562C310.022 296.724 309.791 296.961 309.622 297.273C309.453 297.584 309.369 297.962 309.369 298.406ZM319.866 303.159C319.131 303.159 318.496 302.997 317.962 302.672C317.432 302.344 317.023 301.886 316.734 301.3C316.449 300.71 316.307 300.024 316.307 299.241C316.307 298.459 316.449 297.77 316.734 297.173C317.023 296.573 317.424 296.106 317.937 295.771C318.454 295.433 319.058 295.264 319.747 295.264C320.145 295.264 320.538 295.33 320.925 295.463C321.313 295.596 321.666 295.811 321.984 296.109C322.303 296.404 322.556 296.795 322.745 297.283C322.934 297.77 323.028 298.37 323.028 299.082V299.58H317.142V298.565H321.835C321.835 298.134 321.749 297.75 321.577 297.412C321.408 297.074 321.166 296.807 320.851 296.612C320.539 296.416 320.171 296.318 319.747 296.318C319.28 296.318 318.875 296.434 318.534 296.666C318.196 296.895 317.936 297.193 317.754 297.561C317.571 297.929 317.48 298.323 317.48 298.744V299.42C317.48 299.997 317.579 300.486 317.778 300.887C317.981 301.285 318.261 301.588 318.619 301.797C318.977 302.002 319.392 302.105 319.866 302.105C320.175 302.105 320.453 302.062 320.702 301.976C320.954 301.886 321.171 301.754 321.353 301.578C321.535 301.399 321.676 301.177 321.776 300.912L322.909 301.23C322.79 301.615 322.589 301.953 322.307 302.244C322.026 302.533 321.678 302.758 321.263 302.92C320.849 303.08 320.383 303.159 319.866 303.159ZM326.823 303L324.497 295.364H325.73L327.38 301.21H327.46L329.09 295.364H330.343L331.954 301.19H332.034L333.684 295.364H334.917L332.59 303H331.437L329.766 297.134H329.647L327.977 303H326.823ZM342.157 297.074L341.103 297.372C341.037 297.196 340.939 297.026 340.81 296.86C340.684 296.691 340.512 296.552 340.293 296.442C340.074 296.333 339.794 296.278 339.453 296.278C338.985 296.278 338.596 296.386 338.284 296.602C337.976 296.814 337.822 297.084 337.822 297.412C337.822 297.704 337.928 297.934 338.14 298.103C338.352 298.272 338.684 298.413 339.135 298.526L340.268 298.804C340.951 298.97 341.46 299.223 341.794 299.565C342.129 299.903 342.296 300.339 342.296 300.872C342.296 301.31 342.171 301.701 341.919 302.045C341.67 302.39 341.322 302.662 340.875 302.861C340.427 303.06 339.907 303.159 339.313 303.159C338.535 303.159 337.89 302.99 337.38 302.652C336.869 302.314 336.546 301.82 336.41 301.17L337.524 300.892C337.63 301.303 337.83 301.611 338.125 301.817C338.424 302.022 338.813 302.125 339.294 302.125C339.84 302.125 340.275 302.009 340.596 301.777C340.921 301.542 341.083 301.26 341.083 300.932C341.083 300.667 340.991 300.445 340.805 300.266C340.619 300.083 340.334 299.947 339.95 299.858L338.677 299.56C337.978 299.394 337.464 299.137 337.136 298.789C336.811 298.438 336.649 297.999 336.649 297.472C336.649 297.041 336.77 296.66 337.012 296.328C337.257 295.997 337.59 295.737 338.011 295.548C338.435 295.359 338.916 295.264 339.453 295.264C340.208 295.264 340.802 295.43 341.233 295.761C341.667 296.093 341.975 296.53 342.157 297.074ZM345.894 292.818L345.794 300.136H344.641L344.541 292.818H345.894ZM345.218 303.08C344.972 303.08 344.762 302.992 344.586 302.816C344.411 302.64 344.323 302.43 344.323 302.185C344.323 301.939 344.411 301.729 344.586 301.553C344.762 301.378 344.972 301.29 345.218 301.29C345.463 301.29 345.673 301.378 345.849 301.553C346.025 301.729 346.113 301.939 346.113 302.185C346.113 302.347 346.071 302.496 345.988 302.632C345.909 302.768 345.801 302.877 345.665 302.96C345.532 303.04 345.383 303.08 345.218 303.08ZM354.745 303L351.961 292.818H353.214L355.342 301.111H355.441L357.609 292.818H359.001L361.168 301.111H361.268L363.396 292.818H364.649L361.864 303H360.592L358.345 294.886H358.265L356.018 303H354.745ZM368.796 303.159C368.061 303.159 367.426 302.997 366.892 302.672C366.362 302.344 365.953 301.886 365.664 301.3C365.379 300.71 365.237 300.024 365.237 299.241C365.237 298.459 365.379 297.77 365.664 297.173C365.953 296.573 366.354 296.106 366.867 295.771C367.384 295.433 367.988 295.264 368.677 295.264C369.075 295.264 369.468 295.33 369.855 295.463C370.243 295.596 370.596 295.811 370.914 296.109C371.233 296.404 371.486 296.795 371.675 297.283C371.864 297.77 371.958 298.37 371.958 299.082V299.58H366.072V298.565H370.765C370.765 298.134 370.679 297.75 370.507 297.412C370.338 297.074 370.096 296.807 369.781 296.612C369.469 296.416 369.101 296.318 368.677 296.318C368.21 296.318 367.805 296.434 367.464 296.666C367.126 296.895 366.866 297.193 366.684 297.561C366.501 297.929 366.41 298.323 366.41 298.744V299.42C366.41 299.997 366.509 300.486 366.708 300.887C366.911 301.285 367.191 301.588 367.549 301.797C367.907 302.002 368.322 302.105 368.796 302.105C369.105 302.105 369.383 302.062 369.632 301.976C369.884 301.886 370.101 301.754 370.283 301.578C370.465 301.399 370.606 301.177 370.706 300.912L371.839 301.23C371.72 301.615 371.519 301.953 371.237 302.244C370.956 302.533 370.608 302.758 370.193 302.92C369.779 303.08 369.313 303.159 368.796 303.159ZM381.343 303.159C380.627 303.159 380.011 302.99 379.493 302.652C378.976 302.314 378.579 301.848 378.3 301.255C378.022 300.662 377.883 299.984 377.883 299.222C377.883 298.446 378.025 297.762 378.31 297.168C378.599 296.572 379 296.106 379.513 295.771C380.03 295.433 380.634 295.264 381.323 295.264C381.86 295.264 382.344 295.364 382.775 295.562C383.206 295.761 383.559 296.04 383.834 296.398C384.109 296.756 384.279 297.173 384.346 297.651H383.172C383.083 297.303 382.884 296.994 382.576 296.726C382.271 296.454 381.86 296.318 381.343 296.318C380.886 296.318 380.485 296.437 380.14 296.676C379.798 296.911 379.532 297.245 379.339 297.675C379.15 298.103 379.056 298.605 379.056 299.182C379.056 299.772 379.149 300.286 379.334 300.723C379.523 301.161 379.788 301.5 380.13 301.742C380.475 301.984 380.879 302.105 381.343 302.105C381.648 302.105 381.925 302.052 382.173 301.946C382.422 301.84 382.632 301.688 382.805 301.489C382.977 301.29 383.1 301.051 383.172 300.773H384.346C384.279 301.223 384.115 301.629 383.854 301.991C383.595 302.349 383.252 302.634 382.824 302.846C382.4 303.055 381.906 303.159 381.343 303.159ZM391.153 299.878V295.364H392.327V303H391.153V301.707H391.074C390.895 302.095 390.617 302.425 390.239 302.697C389.861 302.965 389.384 303.099 388.807 303.099C388.33 303.099 387.905 302.995 387.534 302.786C387.163 302.574 386.871 302.256 386.659 301.832C386.447 301.404 386.341 300.866 386.341 300.216V295.364H387.514V300.136C387.514 300.693 387.67 301.137 387.982 301.469C388.296 301.8 388.698 301.966 389.185 301.966C389.476 301.966 389.773 301.891 390.075 301.742C390.38 301.593 390.635 301.364 390.84 301.056C391.049 300.748 391.153 300.355 391.153 299.878ZM394.756 303V295.364H395.889V296.517H395.969C396.108 296.139 396.36 295.833 396.724 295.597C397.089 295.362 397.5 295.244 397.957 295.244C398.044 295.244 398.151 295.246 398.281 295.249C398.41 295.253 398.508 295.258 398.574 295.264V296.457C398.534 296.447 398.443 296.433 398.3 296.413C398.161 296.389 398.014 296.378 397.858 296.378C397.487 296.378 397.155 296.456 396.864 296.612C396.575 296.764 396.347 296.976 396.178 297.248C396.012 297.516 395.929 297.823 395.929 298.168V303H394.756ZM400.245 303V295.364H401.378V296.517H401.458C401.597 296.139 401.849 295.833 402.213 295.597C402.578 295.362 402.989 295.244 403.446 295.244C403.533 295.244 403.64 295.246 403.77 295.249C403.899 295.253 403.997 295.258 404.063 295.264V296.457C404.023 296.447 403.932 296.433 403.789 296.413C403.65 296.389 403.503 296.378 403.347 296.378C402.976 296.378 402.644 296.456 402.353 296.612C402.064 296.764 401.836 296.976 401.667 297.248C401.501 297.516 401.418 297.823 401.418 298.168V303H400.245ZM408.703 303.159C407.967 303.159 407.332 302.997 406.799 302.672C406.269 302.344 405.859 301.886 405.571 301.3C405.286 300.71 405.143 300.024 405.143 299.241C405.143 298.459 405.286 297.77 405.571 297.173C405.859 296.573 406.26 296.106 406.774 295.771C407.291 295.433 407.894 295.264 408.584 295.264C408.981 295.264 409.374 295.33 409.762 295.463C410.15 295.596 410.503 295.811 410.821 296.109C411.139 296.404 411.393 296.795 411.582 297.283C411.77 297.77 411.865 298.37 411.865 299.082V299.58H405.979V298.565H410.672C410.672 298.134 410.586 297.75 410.413 297.412C410.244 297.074 410.002 296.807 409.687 296.612C409.376 296.416 409.008 296.318 408.584 296.318C408.116 296.318 407.712 296.434 407.371 296.666C407.033 296.895 406.772 297.193 406.59 297.561C406.408 297.929 406.317 298.323 406.317 298.744V299.42C406.317 299.997 406.416 300.486 406.615 300.887C406.817 301.285 407.097 301.588 407.455 301.797C407.813 302.002 408.229 302.105 408.703 302.105C409.011 302.105 409.29 302.062 409.538 301.976C409.79 301.886 410.007 301.754 410.19 301.578C410.372 301.399 410.513 301.177 410.612 300.912L411.746 301.23C411.626 301.615 411.426 301.953 411.144 302.244C410.862 302.533 410.514 302.758 410.1 302.92C409.686 303.08 409.22 303.159 408.703 303.159ZM415.103 298.406V303H413.93V295.364H415.063V296.557H415.163C415.342 296.169 415.613 295.857 415.978 295.622C416.343 295.384 416.813 295.264 417.39 295.264C417.907 295.264 418.359 295.37 418.747 295.582C419.135 295.791 419.437 296.109 419.652 296.537C419.867 296.961 419.975 297.498 419.975 298.148V303H418.802V298.227C418.802 297.627 418.646 297.16 418.335 296.825C418.023 296.487 417.595 296.318 417.052 296.318C416.677 296.318 416.343 296.399 416.048 296.562C415.756 296.724 415.526 296.961 415.357 297.273C415.188 297.584 415.103 297.962 415.103 298.406ZM425.72 295.364V296.358H421.763V295.364H425.72ZM422.916 293.534H424.09V300.812C424.09 301.144 424.138 301.393 424.234 301.558C424.333 301.721 424.459 301.83 424.612 301.886C424.767 301.939 424.931 301.966 425.104 301.966C425.233 301.966 425.339 301.959 425.422 301.946C425.505 301.929 425.571 301.916 425.621 301.906L425.859 302.96C425.78 302.99 425.669 303.02 425.526 303.05C425.384 303.083 425.203 303.099 424.984 303.099C424.653 303.099 424.328 303.028 424.01 302.886C423.695 302.743 423.433 302.526 423.224 302.234C423.019 301.943 422.916 301.575 422.916 301.131V293.534ZM429.102 292.818V303H427.929V292.818H429.102ZM432.287 305.864C432.088 305.864 431.911 305.847 431.755 305.814C431.599 305.784 431.492 305.754 431.432 305.724L431.73 304.69C432.015 304.763 432.267 304.79 432.486 304.77C432.705 304.75 432.899 304.652 433.068 304.477C433.24 304.304 433.397 304.024 433.54 303.636L433.759 303.04L430.935 295.364H432.208L434.316 301.449H434.395L436.503 295.364H437.776L434.534 304.114C434.388 304.508 434.208 304.835 433.992 305.093C433.777 305.355 433.527 305.549 433.242 305.675C432.96 305.801 432.642 305.864 432.287 305.864ZM267.247 318.406V323H266.074V312.818H267.247V316.557H267.347C267.526 316.162 267.794 315.849 268.152 315.617C268.513 315.382 268.994 315.264 269.594 315.264C270.114 315.264 270.57 315.369 270.961 315.577C271.352 315.783 271.655 316.099 271.871 316.527C272.089 316.951 272.199 317.491 272.199 318.148V323H271.026V318.227C271.026 317.621 270.868 317.152 270.553 316.82C270.242 316.486 269.809 316.318 269.256 316.318C268.871 316.318 268.527 316.399 268.222 316.562C267.92 316.724 267.681 316.961 267.506 317.273C267.333 317.584 267.247 317.962 267.247 318.406ZM276.873 323.179C276.389 323.179 275.949 323.088 275.555 322.906C275.161 322.72 274.847 322.453 274.615 322.105C274.383 321.754 274.267 321.33 274.267 320.832C274.267 320.395 274.354 320.04 274.526 319.768C274.698 319.493 274.929 319.278 275.217 319.122C275.505 318.966 275.824 318.85 276.172 318.774C276.523 318.695 276.876 318.632 277.23 318.585C277.694 318.526 278.071 318.481 278.359 318.451C278.651 318.418 278.863 318.363 278.995 318.287C279.131 318.211 279.199 318.078 279.199 317.889V317.849C279.199 317.359 279.065 316.978 278.797 316.706C278.531 316.434 278.129 316.298 277.588 316.298C277.028 316.298 276.589 316.421 276.271 316.666C275.953 316.911 275.729 317.173 275.6 317.452L274.486 317.054C274.685 316.59 274.95 316.229 275.282 315.97C275.616 315.708 275.981 315.526 276.375 315.423C276.773 315.317 277.164 315.264 277.549 315.264C277.794 315.264 278.076 315.294 278.394 315.354C278.715 315.41 279.025 315.528 279.324 315.707C279.625 315.886 279.875 316.156 280.074 316.517C280.273 316.878 280.373 317.362 280.373 317.969V323H279.199V321.966H279.14C279.06 322.132 278.927 322.309 278.742 322.498C278.556 322.687 278.309 322.848 278.001 322.98C277.693 323.113 277.317 323.179 276.873 323.179ZM277.051 322.125C277.515 322.125 277.907 322.034 278.225 321.852C278.546 321.669 278.788 321.434 278.951 321.146C279.116 320.857 279.199 320.554 279.199 320.236V319.162C279.149 319.222 279.04 319.276 278.871 319.326C278.705 319.372 278.513 319.414 278.294 319.45C278.079 319.483 277.868 319.513 277.663 319.54C277.461 319.563 277.297 319.583 277.171 319.599C276.866 319.639 276.581 319.704 276.316 319.793C276.054 319.879 275.842 320.01 275.679 320.186C275.52 320.358 275.441 320.594 275.441 320.892C275.441 321.3 275.591 321.608 275.893 321.817C276.198 322.022 276.584 322.125 277.051 322.125ZM288.765 315.364L285.941 323H284.748L281.924 315.364H283.197L285.305 321.449H285.384L287.492 315.364H288.765ZM293.522 323.159C292.786 323.159 292.151 322.997 291.618 322.672C291.087 322.344 290.678 321.886 290.39 321.3C290.105 320.71 289.962 320.024 289.962 319.241C289.962 318.459 290.105 317.77 290.39 317.173C290.678 316.573 291.079 316.106 291.593 315.771C292.11 315.433 292.713 315.264 293.403 315.264C293.8 315.264 294.193 315.33 294.581 315.463C294.969 315.596 295.322 315.811 295.64 316.109C295.958 316.404 296.211 316.795 296.4 317.283C296.589 317.77 296.684 318.37 296.684 319.082V319.58H290.797V318.565H295.491C295.491 318.134 295.404 317.75 295.232 317.412C295.063 317.074 294.821 316.807 294.506 316.612C294.195 316.416 293.827 316.318 293.403 316.318C292.935 316.318 292.531 316.434 292.189 316.666C291.851 316.895 291.591 317.193 291.409 317.561C291.227 317.929 291.135 318.323 291.135 318.744V319.42C291.135 319.997 291.235 320.486 291.434 320.887C291.636 321.285 291.916 321.588 292.274 321.797C292.632 322.002 293.048 322.105 293.522 322.105C293.83 322.105 294.108 322.062 294.357 321.976C294.609 321.886 294.826 321.754 295.008 321.578C295.191 321.399 295.331 321.177 295.431 320.912L296.564 321.23C296.445 321.615 296.245 321.953 295.963 322.244C295.681 322.533 295.333 322.758 294.919 322.92C294.505 323.08 294.039 323.159 293.522 323.159ZM304.139 318.406V323H302.966V312.818H304.139V316.557H304.239C304.418 316.162 304.686 315.849 305.044 315.617C305.405 315.382 305.886 315.264 306.486 315.264C307.006 315.264 307.462 315.369 307.853 315.577C308.244 315.783 308.547 316.099 308.763 316.527C308.982 316.951 309.091 317.491 309.091 318.148V323H307.918V318.227C307.918 317.621 307.76 317.152 307.445 316.82C307.134 316.486 306.701 316.318 306.148 316.318C305.763 316.318 305.419 316.399 305.114 316.562C304.812 316.724 304.574 316.961 304.398 317.273C304.226 317.584 304.139 317.962 304.139 318.406ZM314.62 323.159C313.93 323.159 313.326 322.995 312.805 322.667C312.288 322.339 311.884 321.88 311.592 321.29C311.304 320.7 311.16 320.01 311.16 319.222C311.16 318.426 311.304 317.732 311.592 317.138C311.884 316.545 312.288 316.085 312.805 315.756C313.326 315.428 313.93 315.264 314.62 315.264C315.309 315.264 315.912 315.428 316.429 315.756C316.95 316.085 317.354 316.545 317.643 317.138C317.934 317.732 318.08 318.426 318.08 319.222C318.08 320.01 317.934 320.7 317.643 321.29C317.354 321.88 316.95 322.339 316.429 322.667C315.912 322.995 315.309 323.159 314.62 323.159ZM314.62 322.105C315.143 322.105 315.574 321.971 315.912 321.702C316.25 321.434 316.501 321.081 316.663 320.643C316.826 320.206 316.907 319.732 316.907 319.222C316.907 318.711 316.826 318.236 316.663 317.795C316.501 317.354 316.25 316.998 315.912 316.726C315.574 316.454 315.143 316.318 314.62 316.318C314.096 316.318 313.665 316.454 313.327 316.726C312.989 316.998 312.739 317.354 312.576 317.795C312.414 318.236 312.333 318.711 312.333 319.222C312.333 319.732 312.414 320.206 312.576 320.643C312.739 321.081 312.989 321.434 313.327 321.702C313.665 321.971 314.096 322.105 314.62 322.105ZM321.324 318.406V323H320.151V315.364H321.285V316.557H321.384C321.563 316.169 321.835 315.857 322.199 315.622C322.564 315.384 323.035 315.264 323.611 315.264C324.128 315.264 324.581 315.37 324.969 315.582C325.356 315.791 325.658 316.109 325.873 316.537C326.089 316.961 326.197 317.498 326.197 318.148V323H325.023V318.227C325.023 317.627 324.867 317.16 324.556 316.825C324.244 316.487 323.817 316.318 323.273 316.318C322.899 316.318 322.564 316.399 322.269 316.562C321.977 316.724 321.747 316.961 321.578 317.273C321.409 317.584 321.324 317.962 321.324 318.406ZM331.822 323.159C331.086 323.159 330.452 322.997 329.918 322.672C329.388 322.344 328.978 321.886 328.69 321.3C328.405 320.71 328.263 320.024 328.263 319.241C328.263 318.459 328.405 317.77 328.69 317.173C328.978 316.573 329.38 316.106 329.893 315.771C330.41 315.433 331.013 315.264 331.703 315.264C332.101 315.264 332.493 315.33 332.881 315.463C333.269 315.596 333.622 315.811 333.94 316.109C334.258 316.404 334.512 316.795 334.701 317.283C334.89 317.77 334.984 318.37 334.984 319.082V319.58H329.098V318.565H333.791C333.791 318.134 333.705 317.75 333.532 317.412C333.363 317.074 333.121 316.807 332.807 316.612C332.495 316.416 332.127 316.318 331.703 316.318C331.236 316.318 330.831 316.434 330.49 316.666C330.152 316.895 329.892 317.193 329.709 317.561C329.527 317.929 329.436 318.323 329.436 318.744V319.42C329.436 319.997 329.535 320.486 329.734 320.887C329.936 321.285 330.216 321.588 330.574 321.797C330.932 322.002 331.348 322.105 331.822 322.105C332.13 322.105 332.409 322.062 332.657 321.976C332.909 321.886 333.126 321.754 333.309 321.578C333.491 321.399 333.632 321.177 333.731 320.912L334.865 321.23C334.746 321.615 334.545 321.953 334.263 322.244C333.982 322.533 333.634 322.758 333.219 322.92C332.805 323.08 332.339 323.159 331.822 323.159ZM337.572 325.864C337.373 325.864 337.196 325.847 337.04 325.814C336.884 325.784 336.777 325.754 336.717 325.724L337.015 324.69C337.3 324.763 337.552 324.79 337.771 324.77C337.99 324.75 338.184 324.652 338.353 324.477C338.525 324.304 338.683 324.024 338.825 323.636L339.044 323.04L336.22 315.364H337.493L339.601 321.449H339.68L341.788 315.364H343.061L339.819 324.114C339.674 324.508 339.493 324.835 339.277 325.093C339.062 325.355 338.812 325.549 338.527 325.675C338.245 325.801 337.927 325.864 337.572 325.864ZM349.107 323V315.364H350.28V323H349.107ZM349.704 314.091C349.475 314.091 349.278 314.013 349.112 313.857C348.95 313.701 348.868 313.514 348.868 313.295C348.868 313.077 348.95 312.889 349.112 312.734C349.278 312.578 349.475 312.5 349.704 312.5C349.932 312.5 350.128 312.578 350.29 312.734C350.456 312.889 350.539 313.077 350.539 313.295C350.539 313.514 350.456 313.701 350.29 313.857C350.128 314.013 349.932 314.091 349.704 314.091ZM353.883 318.406V323H352.709V315.364H353.843V316.557H353.942C354.121 316.169 354.393 315.857 354.758 315.622C355.122 315.384 355.593 315.264 356.169 315.264C356.687 315.264 357.139 315.37 357.527 315.582C357.915 315.791 358.216 316.109 358.432 316.537C358.647 316.961 358.755 317.498 358.755 318.148V323H357.581V318.227C357.581 317.627 357.426 317.16 357.114 316.825C356.803 316.487 356.375 316.318 355.831 316.318C355.457 316.318 355.122 316.399 354.827 316.562C354.535 316.724 354.305 316.961 354.136 317.273C353.967 317.584 353.883 317.962 353.883 318.406ZM370.805 317.074L369.751 317.372C369.685 317.196 369.587 317.026 369.458 316.86C369.332 316.691 369.16 316.552 368.941 316.442C368.722 316.333 368.442 316.278 368.101 316.278C367.633 316.278 367.244 316.386 366.932 316.602C366.624 316.814 366.47 317.084 366.47 317.412C366.47 317.704 366.576 317.934 366.788 318.103C367 318.272 367.332 318.413 367.783 318.526L368.916 318.804C369.599 318.97 370.108 319.223 370.442 319.565C370.777 319.903 370.945 320.339 370.945 320.872C370.945 321.31 370.819 321.701 370.567 322.045C370.318 322.39 369.97 322.662 369.523 322.861C369.075 323.06 368.555 323.159 367.962 323.159C367.183 323.159 366.538 322.99 366.028 322.652C365.517 322.314 365.194 321.82 365.058 321.17L366.172 320.892C366.278 321.303 366.478 321.611 366.773 321.817C367.072 322.022 367.461 322.125 367.942 322.125C368.489 322.125 368.923 322.009 369.244 321.777C369.569 321.542 369.731 321.26 369.731 320.932C369.731 320.667 369.639 320.445 369.453 320.266C369.267 320.083 368.982 319.947 368.598 319.858L367.325 319.56C366.626 319.394 366.112 319.137 365.784 318.789C365.459 318.438 365.297 317.999 365.297 317.472C365.297 317.041 365.418 316.66 365.66 316.328C365.905 315.997 366.238 315.737 366.659 315.548C367.083 315.359 367.564 315.264 368.101 315.264C368.856 315.264 369.45 315.43 369.881 315.761C370.315 316.093 370.623 316.53 370.805 317.074ZM376.312 315.364V316.358H372.354V315.364H376.312ZM373.508 313.534H374.681V320.812C374.681 321.144 374.729 321.393 374.825 321.558C374.925 321.721 375.051 321.83 375.203 321.886C375.359 321.939 375.523 321.966 375.695 321.966C375.824 321.966 375.931 321.959 376.013 321.946C376.096 321.929 376.163 321.916 376.212 321.906L376.451 322.96C376.371 322.99 376.26 323.02 376.118 323.05C375.975 323.083 375.795 323.099 375.576 323.099C375.244 323.099 374.92 323.028 374.601 322.886C374.287 322.743 374.025 322.526 373.816 322.234C373.61 321.943 373.508 321.575 373.508 321.131V313.534ZM381.377 323.159C380.687 323.159 380.083 322.995 379.562 322.667C379.045 322.339 378.641 321.88 378.349 321.29C378.061 320.7 377.917 320.01 377.917 319.222C377.917 318.426 378.061 317.732 378.349 317.138C378.641 316.545 379.045 316.085 379.562 315.756C380.083 315.428 380.687 315.264 381.377 315.264C382.066 315.264 382.669 315.428 383.187 315.756C383.707 316.085 384.111 316.545 384.4 317.138C384.691 317.732 384.837 318.426 384.837 319.222C384.837 320.01 384.691 320.7 384.4 321.29C384.111 321.88 383.707 322.339 383.187 322.667C382.669 322.995 382.066 323.159 381.377 323.159ZM381.377 322.105C381.901 322.105 382.331 321.971 382.669 321.702C383.008 321.434 383.258 321.081 383.42 320.643C383.583 320.206 383.664 319.732 383.664 319.222C383.664 318.711 383.583 318.236 383.42 317.795C383.258 317.354 383.008 316.998 382.669 316.726C382.331 316.454 381.901 316.318 381.377 316.318C380.853 316.318 380.422 316.454 380.084 316.726C379.746 316.998 379.496 317.354 379.334 317.795C379.171 318.236 379.09 318.711 379.09 319.222C379.09 319.732 379.171 320.206 379.334 320.643C379.496 321.081 379.746 321.434 380.084 321.702C380.422 321.971 380.853 322.105 381.377 322.105ZM390.01 323.159C389.294 323.159 388.678 322.99 388.161 322.652C387.644 322.314 387.246 321.848 386.968 321.255C386.689 320.662 386.55 319.984 386.55 319.222C386.55 318.446 386.693 317.762 386.978 317.168C387.266 316.572 387.667 316.106 388.181 315.771C388.698 315.433 389.301 315.264 389.99 315.264C390.527 315.264 391.011 315.364 391.442 315.562C391.873 315.761 392.226 316.04 392.501 316.398C392.776 316.756 392.947 317.173 393.013 317.651H391.84C391.75 317.303 391.552 316.994 391.243 316.726C390.938 316.454 390.527 316.318 390.01 316.318C389.553 316.318 389.152 316.437 388.807 316.676C388.466 316.911 388.199 317.245 388.007 317.675C387.818 318.103 387.723 318.605 387.723 319.182C387.723 319.772 387.816 320.286 388.002 320.723C388.191 321.161 388.456 321.5 388.797 321.742C389.142 321.984 389.546 322.105 390.01 322.105C390.315 322.105 390.592 322.052 390.841 321.946C391.089 321.84 391.3 321.688 391.472 321.489C391.644 321.29 391.767 321.051 391.84 320.773H393.013C392.947 321.223 392.783 321.629 392.521 321.991C392.262 322.349 391.919 322.634 391.492 322.846C391.068 323.055 390.574 323.159 390.01 323.159ZM396.102 320.216L396.082 318.764H396.321L399.662 315.364H401.114L397.554 318.963H397.454L396.102 320.216ZM395.008 323V312.818H396.182V323H395.008ZM399.861 323L396.878 319.222L397.713 318.406L401.352 323H399.861ZM403.759 323.08C403.513 323.08 403.303 322.992 403.127 322.816C402.952 322.64 402.864 322.43 402.864 322.185C402.864 321.939 402.952 321.729 403.127 321.553C403.303 321.378 403.513 321.29 403.759 321.29C404.004 321.29 404.214 321.378 404.39 321.553C404.566 321.729 404.654 321.939 404.654 322.185C404.654 322.347 404.612 322.496 404.529 322.632C404.45 322.768 404.342 322.877 404.206 322.96C404.074 323.04 403.924 323.08 403.759 323.08Z" fill="#212528"/>
</g>
<defs>
<filter id="filter0_ddd_4354_20135" x="140" y="150" width="210" height="90" filterUnits="userSpaceOnUse" color-interpolation-filters="sRGB">
<feFlood flood-opacity="0" result="BackgroundImageFix"/>
<feColorMatrix in="SourceAlpha" type="matrix" values="0 0 0 0 0 0 0 0 0 0 0 0 0 0 0 0 0 0 127 0" result="hardAlpha"/>
<feOffset dy="1"/>
<feGaussianBlur stdDeviation="2.5"/>
<feColorMatrix type="matrix" values="0 0 0 0 0 0 0 0 0 0 0 0 0 0 0 0 0 0 0.2 0"/>
<feBlend mode="normal" in2="BackgroundImageFix" result="effect1_dropShadow_4354_20135"/>
<feColorMatrix in="SourceAlpha" type="matrix" values="0 0 0 0 0 0 0 0 0 0 0 0 0 0 0 0 0 0 127 0" result="hardAlpha"/>
<feOffset dy="3"/>
<feGaussianBlur stdDeviation="0.5"/>
<feColorMatrix type="matrix" values="0 0 0 0 0 0 0 0 0 0 0 0 0 0 0 0 0 0 0.12 0"/>
<feBlend mode="normal" in2="effect1_dropShadow_4354_20135" result="effect2_dropShadow_4354_20135"/>
<feColorMatrix in="SourceAlpha" type="matrix" values="0 0 0 0 0 0 0 0 0 0 0 0 0 0 0 0 0 0 127 0" result="hardAlpha"/>
<feOffset dy="2"/>
<feGaussianBlur stdDeviation="1"/>
<feColorMatrix type="matrix" values="0 0 0 0 0 0 0 0 0 0 0 0 0 0 0 0 0 0 0.14 0"/>
<feBlend mode="normal" in2="effect2_dropShadow_4354_20135" result="effect3_dropShadow_4354_20135"/>
<feBlend mode="normal" in="SourceGraphic" in2="effect3_dropShadow_4354_20135" result="shape"/>
</filter>
<filter id="filter1_ddd_4354_20135" x="250" y="254" width="210" height="90" filterUnits="userSpaceOnUse" color-interpolation-filters="sRGB">
<feFlood flood-opacity="0" result="BackgroundImageFix"/>
<feColorMatrix in="SourceAlpha" type="matrix" values="0 0 0 0 0 0 0 0 0 0 0 0 0 0 0 0 0 0 127 0" result="hardAlpha"/>
<feOffset dy="1"/>
<feGaussianBlur stdDeviation="2.5"/>
<feColorMatrix type="matrix" values="0 0 0 0 0 0 0 0 0 0 0 0 0 0 0 0 0 0 0.2 0"/>
<feBlend mode="normal" in2="BackgroundImageFix" result="effect1_dropShadow_4354_20135"/>
<feColorMatrix in="SourceAlpha" type="matrix" values="0 0 0 0 0 0 0 0 0 0 0 0 0 0 0 0 0 0 127 0" result="hardAlpha"/>
<feOffset dy="3"/>
<feGaussianBlur stdDeviation="0.5"/>
<feColorMatrix type="matrix" values="0 0 0 0 0 0 0 0 0 0 0 0 0 0 0 0 0 0 0.12 0"/>
<feBlend mode="normal" in2="effect1_dropShadow_4354_20135" result="effect2_dropShadow_4354_20135"/>
<feColorMatrix in="SourceAlpha" type="matrix" values="0 0 0 0 0 0 0 0 0 0 0 0 0 0 0 0 0 0 127 0" result="hardAlpha"/>
<feOffset dy="2"/>
<feGaussianBlur stdDeviation="1"/>
<feColorMatrix type="matrix" values="0 0 0 0 0 0 0 0 0 0 0 0 0 0 0 0 0 0 0.14 0"/>
<feBlend mode="normal" in2="effect2_dropShadow_4354_20135" result="effect3_dropShadow_4354_20135"/>
<feBlend mode="normal" in="SourceGraphic" in2="effect3_dropShadow_4354_20135" result="shape"/>
</filter>
</defs>
</svg>
