<svg width="600" height="450" viewBox="0 0 600 450" fill="none" xmlns="http://www.w3.org/2000/svg">
<path d="M105.478 165C104.422 165 103.566 165.84 103.566 166.875C103.566 167.91 104.422 168.75 105.478 168.75H189.881C191.611 168.75 193.184 169.445 194.326 170.566C195.468 171.686 196.177 173.23 196.177 174.927V275.073C196.177 276.77 195.468 278.314 194.326 279.434C193.184 280.554 191.611 281.25 189.881 281.25H105.478C104.422 281.25 103.566 282.089 103.566 283.125C103.566 284.16 104.422 285 105.478 285H189.881C192.666 285 195.196 283.884 197.029 282.085C198.862 280.287 200 277.805 200 275.073V174.927C200 172.195 198.862 169.713 197.029 167.914C195.196 166.116 192.666 165 189.881 165L105.478 165Z" fill="#5D6164" stroke="#3F4346"/>
<path d="M116.161 242.219C120.367 244.516 120.314 248.61 120.251 253.435C120.247 253.704 120.243 253.985 120.243 255.093V270.514C120.243 274.5 118.583 278.122 115.908 280.746C113.232 283.371 109.54 285 105.478 285H94.7656C90.703 285 87.0111 283.371 84.3358 280.746C81.6607 278.122 80 274.5 80 270.514V255.093C80 252.9 80.0071 254.692 80.0048 254.087C79.9838 248.753 79.9661 244.214 84.6771 241.936V208.064C79.9661 205.786 79.9838 201.247 80.0048 195.913C80.0071 195.308 80 197.099 80 194.907V179.486C80 175.5 81.6607 171.878 84.3358 169.254C87.0111 166.629 90.703 165 94.7656 165H105.478C109.54 165 113.232 166.629 115.908 169.254C118.583 171.878 120.243 175.5 120.243 179.486V187.309V194.907C120.243 196.015 120.247 196.296 120.251 196.565C120.314 201.39 120.367 205.484 116.161 207.781V222.428V242.219ZM116.443 253.391C116.493 249.572 116.535 246.377 113.603 245.162C112.866 244.902 112.339 244.21 112.339 243.397V222.428V206.637C112.325 205.884 112.778 205.165 113.533 204.865C116.535 203.672 116.494 200.458 116.443 196.609C116.432 195.779 116.421 194.937 116.421 194.906V187.309V179.486C116.421 176.535 115.189 173.852 113.205 171.905C111.221 169.958 108.485 168.75 105.478 168.75H94.7656C91.7582 168.75 89.0228 169.958 87.0385 171.905C85.0543 173.852 83.8225 176.535 83.8225 179.486V194.906C83.8225 196.422 83.8174 194.644 83.8124 195.913C83.7956 200.198 83.7819 203.798 87.095 205.014C87.9047 205.232 88.4996 205.959 88.4996 206.823V243.143C88.5144 243.932 88.0171 244.675 87.2165 244.948C83.783 246.121 83.7954 249.751 83.8124 254.087C83.8174 255.356 83.8225 253.577 83.8225 255.093V270.514C83.8225 273.465 85.0543 276.148 87.0385 278.095C89.0228 280.041 91.7583 281.25 94.7656 281.25H105.478C108.485 281.25 111.221 280.041 113.205 278.095C115.189 276.148 116.421 273.465 116.421 270.514V255.093C116.421 255.063 116.432 254.221 116.443 253.391Z" fill="#5D6164" stroke="#3F4346"/>
<path d="M136.255 178.184H180.166C181.822 178.184 183.326 178.847 184.415 179.915C185.505 180.984 186.181 182.46 186.181 184.084V195.357C186.181 196.982 185.505 198.458 184.415 199.526C183.326 200.595 181.822 201.258 180.166 201.258H136.255C134.599 201.258 133.095 200.595 132.006 199.526C130.917 198.458 130.24 196.982 130.24 195.357V184.084C130.24 182.46 130.917 180.984 132.006 179.915C133.095 178.847 134.599 178.184 136.255 178.184ZM180.166 181.934H136.255C135.654 181.934 135.107 182.176 134.708 182.567C134.31 182.958 134.063 183.495 134.063 184.084V195.357C134.063 195.947 134.31 196.484 134.708 196.875C135.107 197.266 135.654 197.508 136.255 197.508H180.166C180.767 197.508 181.314 197.266 181.713 196.875C182.111 196.484 182.358 195.947 182.358 195.357V184.084C182.358 183.495 182.111 182.958 181.713 182.567C181.314 182.176 180.767 181.934 180.166 181.934Z" fill="#5D6164" stroke="#3F4346"/>
<path fill-rule="evenodd" clip-rule="evenodd" d="M176.481 213.473H179.439C180.795 213.473 181.905 214.561 181.905 215.891V218.794C181.905 220.124 180.795 221.212 179.439 221.212H176.481C175.125 221.212 174.015 220.124 174.015 218.794V215.891C174.015 214.561 175.125 213.473 176.481 213.473Z" fill="#5D6164" stroke="#3F4346"/>
<path fill-rule="evenodd" clip-rule="evenodd" d="M156.731 213.473H159.69C161.046 213.473 162.155 214.561 162.155 215.891V218.794C162.155 220.124 161.046 221.212 159.69 221.212H156.731C155.375 221.212 154.266 220.124 154.266 218.794V215.891C154.266 214.561 155.375 213.473 156.731 213.473Z" fill="#5D6164" stroke="#3F4346"/>
<path fill-rule="evenodd" clip-rule="evenodd" d="M136.982 213.473H139.94C141.296 213.473 142.406 214.561 142.406 215.891V218.794C142.406 220.124 141.296 221.212 139.94 221.212H136.982C135.626 221.212 134.516 220.124 134.516 218.794V215.891C134.516 214.561 135.626 213.473 136.982 213.473Z" fill="#5D6164" stroke="#3F4346"/>
<path fill-rule="evenodd" clip-rule="evenodd" d="M176.481 229.406H179.439C180.795 229.406 181.905 230.495 181.905 231.825V234.727C181.905 236.058 180.795 237.146 179.439 237.146H176.481C175.125 237.146 174.015 236.058 174.015 234.727V231.825C174.015 230.495 175.125 229.406 176.481 229.406Z" fill="#5D6164" stroke="#3F4346"/>
<path fill-rule="evenodd" clip-rule="evenodd" d="M156.731 229.406H159.69C161.046 229.406 162.155 230.495 162.155 231.825V234.727C162.155 236.058 161.046 237.146 159.69 237.146H156.731C155.375 237.146 154.266 236.058 154.266 234.727V231.825C154.266 230.495 155.375 229.406 156.731 229.406Z" fill="#5D6164" stroke="#3F4346"/>
<path fill-rule="evenodd" clip-rule="evenodd" d="M136.982 229.406H139.94C141.296 229.406 142.406 230.495 142.406 231.825V234.727C142.406 236.058 141.296 237.146 139.94 237.146H136.982C135.626 237.146 134.516 236.058 134.516 234.727V231.825C134.516 230.495 135.626 229.406 136.982 229.406Z" fill="#5D6164" stroke="#3F4346"/>
<path fill-rule="evenodd" clip-rule="evenodd" d="M176.481 245.379H179.439C180.795 245.379 181.905 246.467 181.905 247.798V250.7C181.905 252.03 180.795 253.119 179.439 253.119H176.481C175.125 253.119 174.015 252.03 174.015 250.7V247.798C174.015 246.467 175.125 245.379 176.481 245.379Z" fill="#5D6164" stroke="#3F4346"/>
<path fill-rule="evenodd" clip-rule="evenodd" d="M156.731 245.379H159.69C161.046 245.379 162.155 246.467 162.155 247.798V250.7C162.155 252.03 161.046 253.119 159.69 253.119H156.731C155.375 253.119 154.266 252.03 154.266 250.7V247.798C154.266 246.467 155.375 245.379 156.731 245.379Z" fill="#5D6164" stroke="#3F4346"/>
<path fill-rule="evenodd" clip-rule="evenodd" d="M136.982 245.379H139.94C141.296 245.379 142.406 246.467 142.406 247.798V250.7C142.406 252.03 141.296 253.119 139.94 253.119H136.982C135.626 253.119 134.516 252.03 134.516 250.7V247.798C134.516 246.467 135.626 245.379 136.982 245.379Z" fill="#5D6164" stroke="#3F4346"/>
<path fill-rule="evenodd" clip-rule="evenodd" d="M176.481 261.316H179.439C180.795 261.316 181.905 262.405 181.905 263.735V266.637C181.905 267.968 180.795 269.056 179.439 269.056H176.481C175.125 269.056 174.015 267.968 174.015 266.637V263.735C174.015 262.405 175.125 261.316 176.481 261.316Z" fill="#5D6164" stroke="#3F4346"/>
<path fill-rule="evenodd" clip-rule="evenodd" d="M156.731 261.316H159.69C161.046 261.316 162.155 262.405 162.155 263.735V266.637C162.155 267.968 161.046 269.056 159.69 269.056H156.731C155.375 269.056 154.266 267.968 154.266 266.637V263.735C154.266 262.405 155.375 261.316 156.731 261.316Z" fill="#5D6164" stroke="#3F4346"/>
<path fill-rule="evenodd" clip-rule="evenodd" d="M136.982 261.316H139.94C141.296 261.316 142.406 262.405 142.406 263.735V266.637C142.406 267.968 141.296 269.056 139.94 269.056H136.982C135.626 269.056 134.516 267.968 134.516 266.637V263.735C134.516 262.405 135.626 261.316 136.982 261.316Z" fill="#5D6164" stroke="#3F4346"/>
<path d="M241.728 225V207.12H244.848L251.544 216.216H250.056L256.608 207.12H259.728V225H256.44V210.84L257.712 211.152L250.92 220.2H250.536L243.912 211.152L244.992 210.84V225H241.728ZM269.27 225.288C267.99 225.288 266.822 224.992 265.766 224.4C264.726 223.808 263.894 223 263.27 221.976C262.662 220.952 262.358 219.784 262.358 218.472C262.358 217.16 262.662 215.992 263.27 214.968C263.894 213.944 264.726 213.136 265.766 212.544C266.806 211.952 267.974 211.656 269.27 211.656C270.55 211.656 271.71 211.952 272.75 212.544C273.79 213.136 274.614 213.944 275.222 214.968C275.846 215.976 276.158 217.144 276.158 218.472C276.158 219.784 275.846 220.952 275.222 221.976C274.598 223 273.766 223.808 272.726 224.4C271.686 224.992 270.534 225.288 269.27 225.288ZM269.27 222.408C269.974 222.408 270.59 222.24 271.118 221.904C271.662 221.568 272.086 221.104 272.39 220.512C272.71 219.904 272.87 219.224 272.87 218.472C272.87 217.704 272.71 217.032 272.39 216.456C272.086 215.864 271.662 215.4 271.118 215.064C270.59 214.712 269.974 214.536 269.27 214.536C268.55 214.536 267.918 214.712 267.374 215.064C266.83 215.4 266.398 215.864 266.078 216.456C265.774 217.032 265.622 217.704 265.622 218.472C265.622 219.224 265.774 219.904 266.078 220.512C266.398 221.104 266.83 221.568 267.374 221.904C267.918 222.24 268.55 222.408 269.27 222.408ZM278.542 225V211.944H281.494V214.848L281.254 214.416C281.558 213.44 282.03 212.76 282.67 212.376C283.326 211.992 284.11 211.8 285.022 211.8H285.79V214.584H284.662C283.766 214.584 283.046 214.864 282.502 215.424C281.958 215.968 281.686 216.736 281.686 217.728V225H278.542ZM293.711 225.288C292.367 225.288 291.191 224.984 290.183 224.376C289.175 223.768 288.391 222.944 287.831 221.904C287.271 220.864 286.991 219.712 286.991 218.448C286.991 217.136 287.271 215.976 287.831 214.968C288.407 213.944 289.183 213.136 290.159 212.544C291.151 211.952 292.255 211.656 293.471 211.656C294.495 211.656 295.391 211.824 296.159 212.16C296.943 212.496 297.607 212.96 298.151 213.552C298.695 214.144 299.111 214.824 299.399 215.592C299.687 216.344 299.831 217.16 299.831 218.04C299.831 218.264 299.815 218.496 299.783 218.736C299.767 218.976 299.727 219.184 299.663 219.36H289.583V216.96H297.887L296.399 218.088C296.543 217.352 296.503 216.696 296.279 216.12C296.071 215.544 295.719 215.088 295.223 214.752C294.743 214.416 294.159 214.248 293.471 214.248C292.815 214.248 292.231 214.416 291.719 214.752C291.207 215.072 290.815 215.552 290.543 216.192C290.287 216.816 290.191 217.576 290.255 218.472C290.191 219.272 290.295 219.984 290.567 220.608C290.855 221.216 291.271 221.688 291.815 222.024C292.375 222.36 293.015 222.528 293.735 222.528C294.455 222.528 295.063 222.376 295.559 222.072C296.071 221.768 296.471 221.36 296.759 220.848L299.303 222.096C299.047 222.72 298.647 223.272 298.103 223.752C297.559 224.232 296.911 224.608 296.159 224.88C295.423 225.152 294.607 225.288 293.711 225.288ZM312.768 225.288C311.472 225.288 310.304 224.992 309.264 224.4C308.24 223.792 307.432 222.976 306.84 221.952C306.248 220.912 305.952 219.744 305.952 218.448C305.952 217.152 306.248 215.992 306.84 214.968C307.432 213.944 308.24 213.136 309.264 212.544C310.304 211.952 311.472 211.656 312.768 211.656C313.696 211.656 314.56 211.824 315.36 212.16C316.16 212.48 316.848 212.928 317.424 213.504C318.016 214.064 318.44 214.736 318.696 215.52L315.936 216.72C315.696 216.064 315.288 215.536 314.712 215.136C314.152 214.736 313.504 214.536 312.768 214.536C312.08 214.536 311.464 214.704 310.92 215.04C310.392 215.376 309.976 215.84 309.672 216.432C309.368 217.024 309.216 217.704 309.216 218.472C309.216 219.24 309.368 219.92 309.672 220.512C309.976 221.104 310.392 221.568 310.92 221.904C311.464 222.24 312.08 222.408 312.768 222.408C313.52 222.408 314.176 222.208 314.736 221.808C315.296 221.408 315.696 220.872 315.936 220.2L318.696 221.448C318.44 222.184 318.024 222.848 317.448 223.44C316.872 224.016 316.184 224.472 315.384 224.808C314.584 225.128 313.712 225.288 312.768 225.288ZM327.465 225.288C326.185 225.288 325.017 224.992 323.961 224.4C322.921 223.808 322.089 223 321.465 221.976C320.857 220.952 320.553 219.784 320.553 218.472C320.553 217.16 320.857 215.992 321.465 214.968C322.089 213.944 322.921 213.136 323.961 212.544C325.001 211.952 326.169 211.656 327.465 211.656C328.745 211.656 329.905 211.952 330.945 212.544C331.985 213.136 332.809 213.944 333.417 214.968C334.041 215.976 334.353 217.144 334.353 218.472C334.353 219.784 334.041 220.952 333.417 221.976C332.793 223 331.961 223.808 330.921 224.4C329.881 224.992 328.729 225.288 327.465 225.288ZM327.465 222.408C328.169 222.408 328.785 222.24 329.313 221.904C329.857 221.568 330.281 221.104 330.585 220.512C330.905 219.904 331.065 219.224 331.065 218.472C331.065 217.704 330.905 217.032 330.585 216.456C330.281 215.864 329.857 215.4 329.313 215.064C328.785 214.712 328.169 214.536 327.465 214.536C326.745 214.536 326.113 214.712 325.569 215.064C325.025 215.4 324.593 215.864 324.273 216.456C323.969 217.032 323.817 217.704 323.817 218.472C323.817 219.224 323.969 219.904 324.273 220.512C324.593 221.104 325.025 221.568 325.569 221.904C326.113 222.24 326.745 222.408 327.465 222.408ZM341.705 225.288C340.313 225.288 339.097 224.96 338.057 224.304C337.033 223.632 336.329 222.728 335.945 221.592L338.297 220.464C338.633 221.2 339.097 221.776 339.689 222.192C340.297 222.608 340.969 222.816 341.705 222.816C342.281 222.816 342.737 222.688 343.073 222.432C343.409 222.176 343.577 221.84 343.577 221.424C343.577 221.168 343.505 220.96 343.361 220.8C343.233 220.624 343.049 220.48 342.809 220.368C342.585 220.24 342.337 220.136 342.065 220.056L339.929 219.456C338.825 219.136 337.985 218.648 337.409 217.992C336.849 217.336 336.569 216.56 336.569 215.664C336.569 214.864 336.769 214.168 337.169 213.576C337.585 212.968 338.153 212.496 338.873 212.16C339.609 211.824 340.449 211.656 341.393 211.656C342.625 211.656 343.713 211.952 344.657 212.544C345.601 213.136 346.273 213.968 346.673 215.04L344.273 216.168C344.049 215.576 343.673 215.104 343.145 214.752C342.617 214.4 342.025 214.224 341.369 214.224C340.841 214.224 340.425 214.344 340.121 214.584C339.817 214.824 339.665 215.136 339.665 215.52C339.665 215.76 339.729 215.968 339.857 216.144C339.985 216.32 340.161 216.464 340.385 216.576C340.625 216.688 340.897 216.792 341.201 216.888L343.289 217.512C344.361 217.832 345.185 218.312 345.761 218.952C346.353 219.592 346.649 220.376 346.649 221.304C346.649 222.088 346.441 222.784 346.025 223.392C345.609 223.984 345.033 224.448 344.297 224.784C343.561 225.12 342.697 225.288 341.705 225.288ZM355.018 225.144C353.546 225.144 352.402 224.744 351.586 223.944C350.786 223.128 350.386 221.984 350.386 220.512V214.752H348.13V211.944H348.37C349.01 211.944 349.506 211.776 349.858 211.44C350.21 211.104 350.386 210.616 350.386 209.976V208.968H353.53V211.944H356.53V214.752H353.53V220.344C353.53 220.776 353.602 221.144 353.746 221.448C353.906 221.752 354.146 221.984 354.466 222.144C354.802 222.304 355.226 222.384 355.738 222.384C355.85 222.384 355.978 222.376 356.122 222.36C356.282 222.344 356.434 222.328 356.578 222.312V225C356.354 225.032 356.098 225.064 355.81 225.096C355.522 225.128 355.258 225.144 355.018 225.144ZM369.437 225.288C368.093 225.288 366.917 224.984 365.909 224.376C364.901 223.768 364.117 222.944 363.557 221.904C362.997 220.864 362.717 219.712 362.717 218.448C362.717 217.136 362.997 215.976 363.557 214.968C364.133 213.944 364.909 213.136 365.885 212.544C366.877 211.952 367.981 211.656 369.197 211.656C370.221 211.656 371.117 211.824 371.885 212.16C372.669 212.496 373.333 212.96 373.877 213.552C374.421 214.144 374.837 214.824 375.125 215.592C375.413 216.344 375.557 217.16 375.557 218.04C375.557 218.264 375.541 218.496 375.509 218.736C375.493 218.976 375.453 219.184 375.389 219.36H365.309V216.96H373.613L372.125 218.088C372.269 217.352 372.229 216.696 372.005 216.12C371.797 215.544 371.445 215.088 370.949 214.752C370.469 214.416 369.885 214.248 369.197 214.248C368.541 214.248 367.957 214.416 367.445 214.752C366.933 215.072 366.541 215.552 366.269 216.192C366.013 216.816 365.917 217.576 365.981 218.472C365.917 219.272 366.021 219.984 366.293 220.608C366.581 221.216 366.997 221.688 367.541 222.024C368.101 222.36 368.741 222.528 369.461 222.528C370.181 222.528 370.789 222.376 371.285 222.072C371.797 221.768 372.197 221.36 372.485 220.848L375.029 222.096C374.773 222.72 374.373 223.272 373.829 223.752C373.285 224.232 372.637 224.608 371.885 224.88C371.149 225.152 370.333 225.288 369.437 225.288ZM379.453 225V214.752H377.149V211.944H379.453V211.512C379.453 210.52 379.653 209.68 380.053 208.992C380.469 208.288 381.045 207.752 381.781 207.384C382.517 207.016 383.389 206.832 384.397 206.832C384.589 206.832 384.797 206.848 385.021 206.88C385.261 206.896 385.461 206.92 385.621 206.952V209.664C385.461 209.632 385.309 209.616 385.165 209.616C385.037 209.6 384.917 209.592 384.805 209.592C384.101 209.592 383.557 209.752 383.173 210.072C382.789 210.376 382.597 210.856 382.597 211.512V211.944H388.309V214.752H382.597V225H379.453ZM388.957 225V214.752H386.653V211.944H388.957V211.512C388.957 210.52 389.157 209.68 389.557 208.992C389.957 208.288 390.525 207.752 391.261 207.384C392.013 207.016 392.893 206.832 393.901 206.832C394.093 206.832 394.301 206.848 394.525 206.88C394.765 206.896 394.957 206.92 395.101 206.952V209.664C394.957 209.632 394.813 209.616 394.669 209.616C394.541 209.6 394.421 209.592 394.309 209.592C393.605 209.592 393.061 209.752 392.677 210.072C392.293 210.376 392.101 210.856 392.101 211.512V211.944H394.981V214.752H392.101V225H388.957ZM403 225.288C401.656 225.288 400.48 224.984 399.472 224.376C398.464 223.768 397.68 222.944 397.12 221.904C396.56 220.864 396.28 219.712 396.28 218.448C396.28 217.136 396.56 215.976 397.12 214.968C397.696 213.944 398.472 213.136 399.448 212.544C400.44 211.952 401.544 211.656 402.76 211.656C403.784 211.656 404.68 211.824 405.448 212.16C406.232 212.496 406.896 212.96 407.44 213.552C407.984 214.144 408.4 214.824 408.688 215.592C408.976 216.344 409.12 217.16 409.12 218.04C409.12 218.264 409.104 218.496 409.072 218.736C409.056 218.976 409.016 219.184 408.952 219.36H398.872V216.96H407.176L405.688 218.088C405.832 217.352 405.792 216.696 405.568 216.12C405.36 215.544 405.008 215.088 404.512 214.752C404.032 214.416 403.448 214.248 402.76 214.248C402.104 214.248 401.52 214.416 401.008 214.752C400.496 215.072 400.104 215.552 399.832 216.192C399.576 216.816 399.48 217.576 399.544 218.472C399.48 219.272 399.584 219.984 399.856 220.608C400.144 221.216 400.56 221.688 401.104 222.024C401.664 222.36 402.304 222.528 403.024 222.528C403.744 222.528 404.352 222.376 404.848 222.072C405.36 221.768 405.76 221.36 406.048 220.848L408.592 222.096C408.336 222.72 407.936 223.272 407.392 223.752C406.848 224.232 406.2 224.608 405.448 224.88C404.712 225.152 403.896 225.288 403 225.288ZM417.791 225.288C416.495 225.288 415.327 224.992 414.287 224.4C413.263 223.792 412.455 222.976 411.863 221.952C411.271 220.912 410.975 219.744 410.975 218.448C410.975 217.152 411.271 215.992 411.863 214.968C412.455 213.944 413.263 213.136 414.287 212.544C415.327 211.952 416.495 211.656 417.791 211.656C418.719 211.656 419.583 211.824 420.383 212.16C421.183 212.48 421.871 212.928 422.447 213.504C423.039 214.064 423.463 214.736 423.719 215.52L420.959 216.72C420.719 216.064 420.311 215.536 419.735 215.136C419.175 214.736 418.527 214.536 417.791 214.536C417.103 214.536 416.487 214.704 415.943 215.04C415.415 215.376 414.999 215.84 414.695 216.432C414.391 217.024 414.239 217.704 414.239 218.472C414.239 219.24 414.391 219.92 414.695 220.512C414.999 221.104 415.415 221.568 415.943 221.904C416.487 222.24 417.103 222.408 417.791 222.408C418.543 222.408 419.199 222.208 419.759 221.808C420.319 221.408 420.719 220.872 420.959 220.2L423.719 221.448C423.463 222.184 423.047 222.848 422.471 223.44C421.895 224.016 421.207 224.472 420.407 224.808C419.607 225.128 418.735 225.288 417.791 225.288ZM432.057 225.144C430.585 225.144 429.441 224.744 428.625 223.944C427.825 223.128 427.425 221.984 427.425 220.512V214.752H425.169V211.944H425.409C426.049 211.944 426.545 211.776 426.897 211.44C427.249 211.104 427.425 210.616 427.425 209.976V208.968H430.569V211.944H433.569V214.752H430.569V220.344C430.569 220.776 430.641 221.144 430.785 221.448C430.945 221.752 431.185 221.984 431.505 222.144C431.841 222.304 432.265 222.384 432.777 222.384C432.889 222.384 433.017 222.376 433.161 222.36C433.321 222.344 433.473 222.328 433.617 222.312V225C433.393 225.032 433.137 225.064 432.849 225.096C432.561 225.128 432.297 225.144 432.057 225.144ZM436.019 225V211.944H439.163V225H436.019ZM436.019 210.48V207.12H439.163V210.48H436.019ZM446.002 225L440.866 211.944H444.298L448.018 222.216H446.746L450.49 211.944H453.922L448.786 225H446.002ZM461.617 225.288C460.273 225.288 459.097 224.984 458.089 224.376C457.081 223.768 456.297 222.944 455.737 221.904C455.177 220.864 454.897 219.712 454.897 218.448C454.897 217.136 455.177 215.976 455.737 214.968C456.313 213.944 457.089 213.136 458.065 212.544C459.057 211.952 460.161 211.656 461.377 211.656C462.401 211.656 463.297 211.824 464.065 212.16C464.849 212.496 465.513 212.96 466.057 213.552C466.601 214.144 467.017 214.824 467.305 215.592C467.593 216.344 467.737 217.16 467.737 218.04C467.737 218.264 467.721 218.496 467.689 218.736C467.673 218.976 467.633 219.184 467.569 219.36H457.489V216.96H465.793L464.305 218.088C464.449 217.352 464.409 216.696 464.185 216.12C463.977 215.544 463.625 215.088 463.129 214.752C462.649 214.416 462.065 214.248 461.377 214.248C460.721 214.248 460.137 214.416 459.625 214.752C459.113 215.072 458.721 215.552 458.449 216.192C458.193 216.816 458.097 217.576 458.161 218.472C458.097 219.272 458.201 219.984 458.473 220.608C458.761 221.216 459.177 221.688 459.721 222.024C460.281 222.36 460.921 222.528 461.641 222.528C462.361 222.528 462.969 222.376 463.465 222.072C463.977 221.768 464.377 221.36 464.665 220.848L467.209 222.096C466.953 222.72 466.553 223.272 466.009 223.752C465.465 224.232 464.817 224.608 464.065 224.88C463.329 225.152 462.513 225.288 461.617 225.288ZM480.338 225.144C478.866 225.144 477.722 224.744 476.906 223.944C476.106 223.128 475.706 221.984 475.706 220.512V214.752H473.45V211.944H473.69C474.33 211.944 474.826 211.776 475.178 211.44C475.53 211.104 475.706 210.616 475.706 209.976V208.968H478.85V211.944H481.85V214.752H478.85V220.344C478.85 220.776 478.922 221.144 479.066 221.448C479.226 221.752 479.466 221.984 479.786 222.144C480.122 222.304 480.546 222.384 481.058 222.384C481.17 222.384 481.298 222.376 481.442 222.36C481.602 222.344 481.754 222.328 481.898 222.312V225C481.674 225.032 481.418 225.064 481.13 225.096C480.842 225.128 480.578 225.144 480.338 225.144ZM484.3 225V206.832H487.444V214.512L487.012 214.056C487.316 213.272 487.812 212.68 488.5 212.28C489.204 211.864 490.02 211.656 490.948 211.656C491.908 211.656 492.756 211.864 493.492 212.28C494.244 212.696 494.828 213.28 495.244 214.032C495.66 214.768 495.868 215.624 495.868 216.6V225H492.724V217.344C492.724 216.768 492.612 216.272 492.388 215.856C492.164 215.44 491.852 215.12 491.452 214.896C491.068 214.656 490.612 214.536 490.084 214.536C489.572 214.536 489.116 214.656 488.716 214.896C488.316 215.12 488.004 215.44 487.78 215.856C487.556 216.272 487.444 216.768 487.444 217.344V225H484.3ZM502.487 225.288C501.575 225.288 500.783 225.136 500.111 224.832C499.439 224.528 498.919 224.096 498.551 223.536C498.183 222.96 497.999 222.296 497.999 221.544C497.999 220.824 498.159 220.184 498.479 219.624C498.799 219.048 499.295 218.568 499.967 218.184C500.639 217.8 501.487 217.528 502.511 217.368L506.783 216.672V219.072L503.111 219.696C502.487 219.808 502.023 220.008 501.719 220.296C501.415 220.584 501.263 220.96 501.263 221.424C501.263 221.872 501.431 222.232 501.767 222.504C502.119 222.76 502.551 222.888 503.062 222.888C503.719 222.888 504.295 222.752 504.791 222.48C505.303 222.192 505.695 221.8 505.967 221.304C506.255 220.808 506.399 220.264 506.399 219.672V216.312C506.399 215.752 506.175 215.288 505.727 214.92C505.295 214.536 504.719 214.344 503.999 214.344C503.327 214.344 502.727 214.528 502.199 214.896C501.687 215.248 501.311 215.72 501.071 216.312L498.503 215.064C498.759 214.376 499.159 213.784 499.703 213.288C500.263 212.776 500.919 212.376 501.671 212.088C502.423 211.8 503.239 211.656 504.118 211.656C505.191 211.656 506.135 211.856 506.951 212.256C507.767 212.64 508.399 213.184 508.847 213.888C509.311 214.576 509.543 215.384 509.543 216.312V225H506.567V222.768L507.239 222.72C506.903 223.28 506.503 223.752 506.039 224.136C505.575 224.504 505.047 224.792 504.455 225C503.863 225.192 503.207 225.288 502.487 225.288ZM512.448 225V211.944H515.4V214.512L515.16 214.056C515.464 213.272 515.96 212.68 516.648 212.28C517.352 211.864 518.168 211.656 519.096 211.656C520.056 211.656 520.904 211.864 521.64 212.28C522.392 212.696 522.976 213.28 523.392 214.032C523.808 214.768 524.016 215.624 524.016 216.6V225H520.872V217.344C520.872 216.768 520.76 216.272 520.536 215.856C520.312 215.44 520 215.12 519.6 214.896C519.216 214.656 518.76 214.536 518.232 214.536C517.72 214.536 517.264 214.656 516.864 214.896C516.464 215.12 516.152 215.44 515.928 215.856C515.704 216.272 515.592 216.768 515.592 217.344V225H512.448ZM247.416 255.144C245.944 255.144 244.8 254.744 243.984 253.944C243.184 253.128 242.784 251.984 242.784 250.512V244.752H240.528V241.944H240.768C241.408 241.944 241.904 241.776 242.256 241.44C242.608 241.104 242.784 240.616 242.784 239.976V238.968H245.928V241.944H248.928V244.752H245.928V250.344C245.928 250.776 246 251.144 246.144 251.448C246.304 251.752 246.544 251.984 246.864 252.144C247.2 252.304 247.624 252.384 248.136 252.384C248.248 252.384 248.376 252.376 248.52 252.36C248.68 252.344 248.832 252.328 248.976 252.312V255C248.752 255.032 248.496 255.064 248.208 255.096C247.92 255.128 247.656 255.144 247.416 255.144ZM251.378 255V241.944H254.33V244.848L254.09 244.416C254.394 243.44 254.866 242.76 255.506 242.376C256.162 241.992 256.946 241.8 257.858 241.8H258.626V244.584H257.498C256.602 244.584 255.882 244.864 255.338 245.424C254.794 245.968 254.522 246.736 254.522 247.728V255H251.378ZM264.315 255.288C263.403 255.288 262.611 255.136 261.939 254.832C261.267 254.528 260.747 254.096 260.379 253.536C260.011 252.96 259.827 252.296 259.827 251.544C259.827 250.824 259.987 250.184 260.307 249.624C260.627 249.048 261.123 248.568 261.795 248.184C262.467 247.8 263.315 247.528 264.339 247.368L268.611 246.672V249.072L264.939 249.696C264.315 249.808 263.851 250.008 263.547 250.296C263.243 250.584 263.091 250.96 263.091 251.424C263.091 251.872 263.259 252.232 263.595 252.504C263.947 252.76 264.379 252.888 264.891 252.888C265.547 252.888 266.123 252.752 266.619 252.48C267.131 252.192 267.523 251.8 267.795 251.304C268.083 250.808 268.227 250.264 268.227 249.672V246.312C268.227 245.752 268.003 245.288 267.555 244.92C267.123 244.536 266.547 244.344 265.827 244.344C265.155 244.344 264.555 244.528 264.027 244.896C263.515 245.248 263.139 245.72 262.899 246.312L260.331 245.064C260.587 244.376 260.987 243.784 261.531 243.288C262.091 242.776 262.747 242.376 263.499 242.088C264.251 241.8 265.067 241.656 265.947 241.656C267.019 241.656 267.963 241.856 268.779 242.256C269.595 242.64 270.227 243.184 270.675 243.888C271.139 244.576 271.371 245.384 271.371 246.312V255H268.395V252.768L269.067 252.72C268.731 253.28 268.331 253.752 267.867 254.136C267.403 254.504 266.875 254.792 266.283 255C265.691 255.192 265.035 255.288 264.315 255.288ZM280.349 255.288C279.085 255.288 277.957 254.992 276.965 254.4C275.973 253.792 275.189 252.968 274.613 251.928C274.037 250.888 273.749 249.736 273.749 248.472C273.749 247.192 274.037 246.04 274.613 245.016C275.189 243.992 275.973 243.176 276.965 242.568C277.973 241.96 279.093 241.656 280.325 241.656C281.317 241.656 282.197 241.856 282.965 242.256C283.749 242.64 284.365 243.184 284.812 243.888L284.333 244.536V236.832H287.477V255H284.501V252.48L284.837 253.104C284.389 253.808 283.765 254.352 282.965 254.736C282.165 255.104 281.293 255.288 280.349 255.288ZM280.685 252.408C281.405 252.408 282.037 252.24 282.581 251.904C283.125 251.568 283.549 251.104 283.853 250.512C284.173 249.92 284.333 249.24 284.333 248.472C284.333 247.72 284.173 247.048 283.853 246.456C283.549 245.848 283.125 245.376 282.581 245.04C282.037 244.704 281.405 244.536 280.685 244.536C279.981 244.536 279.349 244.712 278.789 245.064C278.229 245.4 277.789 245.864 277.469 246.456C277.165 247.032 277.013 247.704 277.013 248.472C277.013 249.24 277.165 249.92 277.469 250.512C277.789 251.104 278.229 251.568 278.789 251.904C279.349 252.24 279.981 252.408 280.685 252.408ZM290.402 255V241.944H293.546V255H290.402ZM290.402 240.48V237.12H293.546V240.48H290.402ZM302.4 255.144C300.928 255.144 299.784 254.744 298.968 253.944C298.168 253.128 297.768 251.984 297.768 250.512V244.752H295.512V241.944H295.752C296.392 241.944 296.888 241.776 297.24 241.44C297.592 241.104 297.768 240.616 297.768 239.976V238.968H300.912V241.944H303.912V244.752H300.912V250.344C300.912 250.776 300.984 251.144 301.128 251.448C301.288 251.752 301.528 251.984 301.848 252.144C302.184 252.304 302.608 252.384 303.12 252.384C303.232 252.384 303.36 252.376 303.504 252.36C303.664 252.344 303.816 252.328 303.96 252.312V255C303.736 255.032 303.48 255.064 303.192 255.096C302.904 255.128 302.64 255.144 302.4 255.144ZM306.362 255V241.944H309.506V255H306.362ZM306.362 240.48V237.12H309.506V240.48H306.362ZM318.793 255.288C317.513 255.288 316.345 254.992 315.289 254.4C314.249 253.808 313.417 253 312.793 251.976C312.185 250.952 311.881 249.784 311.881 248.472C311.881 247.16 312.185 245.992 312.793 244.968C313.417 243.944 314.249 243.136 315.289 242.544C316.329 241.952 317.497 241.656 318.793 241.656C320.073 241.656 321.233 241.952 322.273 242.544C323.313 243.136 324.137 243.944 324.745 244.968C325.369 245.976 325.681 247.144 325.681 248.472C325.681 249.784 325.369 250.952 324.745 251.976C324.121 253 323.289 253.808 322.249 254.4C321.209 254.992 320.057 255.288 318.793 255.288ZM318.793 252.408C319.497 252.408 320.113 252.24 320.641 251.904C321.185 251.568 321.609 251.104 321.913 250.512C322.233 249.904 322.393 249.224 322.393 248.472C322.393 247.704 322.233 247.032 321.913 246.456C321.609 245.864 321.185 245.4 320.641 245.064C320.113 244.712 319.497 244.536 318.793 244.536C318.073 244.536 317.441 244.712 316.897 245.064C316.353 245.4 315.921 245.864 315.601 246.456C315.297 247.032 315.145 247.704 315.145 248.472C315.145 249.224 315.297 249.904 315.601 250.512C315.921 251.104 316.353 251.568 316.897 251.904C317.441 252.24 318.073 252.408 318.793 252.408ZM328.066 255V241.944H331.018V244.512L330.778 244.056C331.082 243.272 331.578 242.68 332.266 242.28C332.97 241.864 333.786 241.656 334.714 241.656C335.674 241.656 336.522 241.864 337.258 242.28C338.01 242.696 338.594 243.28 339.01 244.032C339.426 244.768 339.634 245.624 339.634 246.6V255H336.49V247.344C336.49 246.768 336.378 246.272 336.154 245.856C335.93 245.44 335.618 245.12 335.218 244.896C334.834 244.656 334.378 244.536 333.85 244.536C333.338 244.536 332.882 244.656 332.482 244.896C332.082 245.12 331.77 245.44 331.546 245.856C331.322 246.272 331.21 246.768 331.21 247.344V255H328.066ZM346.252 255.288C345.34 255.288 344.548 255.136 343.876 254.832C343.204 254.528 342.684 254.096 342.316 253.536C341.948 252.96 341.764 252.296 341.764 251.544C341.764 250.824 341.924 250.184 342.244 249.624C342.564 249.048 343.06 248.568 343.732 248.184C344.404 247.8 345.252 247.528 346.276 247.368L350.548 246.672V249.072L346.876 249.696C346.252 249.808 345.788 250.008 345.484 250.296C345.18 250.584 345.028 250.96 345.028 251.424C345.028 251.872 345.196 252.232 345.532 252.504C345.884 252.76 346.316 252.888 346.828 252.888C347.484 252.888 348.06 252.752 348.556 252.48C349.068 252.192 349.46 251.8 349.732 251.304C350.02 250.808 350.164 250.264 350.164 249.672V246.312C350.164 245.752 349.94 245.288 349.492 244.92C349.06 244.536 348.484 244.344 347.764 244.344C347.092 244.344 346.492 244.528 345.964 244.896C345.452 245.248 345.076 245.72 344.836 246.312L342.268 245.064C342.524 244.376 342.924 243.784 343.468 243.288C344.028 242.776 344.684 242.376 345.436 242.088C346.188 241.8 347.004 241.656 347.884 241.656C348.956 241.656 349.9 241.856 350.716 242.256C351.532 242.64 352.164 243.184 352.612 243.888C353.076 244.576 353.308 245.384 353.308 246.312V255H350.332V252.768L351.004 252.72C350.668 253.28 350.268 253.752 349.804 254.136C349.34 254.504 348.812 254.792 348.22 255C347.628 255.192 346.972 255.288 346.252 255.288ZM356.214 255V236.832H359.358V255H356.214ZM366.527 255V236.832H369.671V255H366.527ZM376.533 255.288C375.621 255.288 374.829 255.136 374.157 254.832C373.485 254.528 372.965 254.096 372.597 253.536C372.229 252.96 372.045 252.296 372.045 251.544C372.045 250.824 372.205 250.184 372.525 249.624C372.845 249.048 373.341 248.568 374.013 248.184C374.685 247.8 375.533 247.528 376.557 247.368L380.829 246.672V249.072L377.157 249.696C376.533 249.808 376.069 250.008 375.765 250.296C375.461 250.584 375.309 250.96 375.309 251.424C375.309 251.872 375.477 252.232 375.813 252.504C376.165 252.76 376.597 252.888 377.109 252.888C377.765 252.888 378.341 252.752 378.837 252.48C379.349 252.192 379.741 251.8 380.013 251.304C380.301 250.808 380.445 250.264 380.445 249.672V246.312C380.445 245.752 380.221 245.288 379.773 244.92C379.341 244.536 378.765 244.344 378.045 244.344C377.373 244.344 376.773 244.528 376.245 244.896C375.733 245.248 375.357 245.72 375.117 246.312L372.549 245.064C372.805 244.376 373.205 243.784 373.749 243.288C374.309 242.776 374.965 242.376 375.717 242.088C376.469 241.8 377.285 241.656 378.165 241.656C379.237 241.656 380.181 241.856 380.997 242.256C381.813 242.64 382.445 243.184 382.893 243.888C383.357 244.576 383.589 245.384 383.589 246.312V255H380.613V252.768L381.285 252.72C380.949 253.28 380.549 253.752 380.085 254.136C379.621 254.504 379.093 254.792 378.501 255C377.909 255.192 377.253 255.288 376.533 255.288ZM386.495 255V241.944H389.447V244.512L389.207 244.056C389.511 243.272 390.007 242.68 390.695 242.28C391.399 241.864 392.215 241.656 393.143 241.656C394.103 241.656 394.951 241.864 395.687 242.28C396.439 242.696 397.023 243.28 397.439 244.032C397.855 244.768 398.063 245.624 398.063 246.6V255H394.919V247.344C394.919 246.768 394.807 246.272 394.583 245.856C394.359 245.44 394.047 245.12 393.647 244.896C393.263 244.656 392.807 244.536 392.279 244.536C391.767 244.536 391.311 244.656 390.911 244.896C390.511 245.12 390.199 245.44 389.975 245.856C389.751 246.272 389.639 246.768 389.639 247.344V255H386.495ZM406.794 255.288C405.53 255.288 404.402 254.992 403.41 254.4C402.418 253.792 401.634 252.968 401.058 251.928C400.482 250.888 400.194 249.736 400.194 248.472C400.194 247.192 400.482 246.04 401.058 245.016C401.634 243.992 402.418 243.176 403.41 242.568C404.418 241.96 405.538 241.656 406.77 241.656C407.762 241.656 408.642 241.856 409.41 242.256C410.194 242.64 410.81 243.184 411.258 243.888L410.778 244.536V236.832H413.922V255H410.946V252.48L411.282 253.104C410.834 253.808 410.21 254.352 409.41 254.736C408.61 255.104 407.738 255.288 406.794 255.288ZM407.13 252.408C407.85 252.408 408.482 252.24 409.026 251.904C409.57 251.568 409.994 251.104 410.298 250.512C410.618 249.92 410.778 249.24 410.778 248.472C410.778 247.72 410.618 247.048 410.298 246.456C409.994 245.848 409.57 245.376 409.026 245.04C408.482 244.704 407.85 244.536 407.13 244.536C406.426 244.536 405.794 244.712 405.234 245.064C404.674 245.4 404.234 245.864 403.914 246.456C403.61 247.032 403.458 247.704 403.458 248.472C403.458 249.24 403.61 249.92 403.914 250.512C404.234 251.104 404.674 251.568 405.234 251.904C405.794 252.24 406.426 252.408 407.13 252.408ZM416.847 255V236.832H419.991V255H416.847ZM422.894 255V241.944H426.038V255H422.894ZM422.894 240.48V237.12H426.038V240.48H422.894ZM428.941 255V241.944H431.893V244.512L431.653 244.056C431.957 243.272 432.453 242.68 433.141 242.28C433.845 241.864 434.661 241.656 435.589 241.656C436.549 241.656 437.397 241.864 438.133 242.28C438.885 242.696 439.469 243.28 439.885 244.032C440.301 244.768 440.509 245.624 440.509 246.6V255H437.365V247.344C437.365 246.768 437.253 246.272 437.029 245.856C436.805 245.44 436.493 245.12 436.093 244.896C435.709 244.656 435.253 244.536 434.725 244.536C434.213 244.536 433.757 244.656 433.357 244.896C432.957 245.12 432.645 245.44 432.421 245.856C432.197 246.272 432.085 246.768 432.085 247.344V255H428.941ZM449.359 255.288C448.015 255.288 446.839 254.984 445.831 254.376C444.823 253.768 444.039 252.944 443.479 251.904C442.919 250.864 442.639 249.712 442.639 248.448C442.639 247.136 442.919 245.976 443.479 244.968C444.055 243.944 444.831 243.136 445.807 242.544C446.799 241.952 447.903 241.656 449.119 241.656C450.143 241.656 451.039 241.824 451.807 242.16C452.591 242.496 453.255 242.96 453.799 243.552C454.343 244.144 454.759 244.824 455.047 245.592C455.335 246.344 455.479 247.16 455.479 248.04C455.479 248.264 455.463 248.496 455.431 248.736C455.415 248.976 455.375 249.184 455.311 249.36H445.231V246.96H453.535L452.047 248.088C452.191 247.352 452.151 246.696 451.927 246.12C451.719 245.544 451.367 245.088 450.871 244.752C450.391 244.416 449.807 244.248 449.119 244.248C448.463 244.248 447.879 244.416 447.367 244.752C446.855 245.072 446.463 245.552 446.191 246.192C445.935 246.816 445.839 247.576 445.903 248.472C445.839 249.272 445.943 249.984 446.215 250.608C446.503 251.216 446.919 251.688 447.463 252.024C448.023 252.36 448.663 252.528 449.383 252.528C450.103 252.528 450.711 252.376 451.207 252.072C451.719 251.768 452.119 251.36 452.407 250.848L454.951 252.096C454.695 252.72 454.295 253.272 453.751 253.752C453.207 254.232 452.559 254.608 451.807 254.88C451.071 255.152 450.255 255.288 449.359 255.288ZM462.83 255.288C461.438 255.288 460.222 254.96 459.182 254.304C458.158 253.632 457.454 252.728 457.07 251.592L459.422 250.464C459.758 251.2 460.222 251.776 460.814 252.192C461.422 252.608 462.094 252.816 462.83 252.816C463.406 252.816 463.862 252.688 464.198 252.432C464.534 252.176 464.702 251.84 464.702 251.424C464.702 251.168 464.63 250.96 464.486 250.8C464.358 250.624 464.174 250.48 463.934 250.368C463.71 250.24 463.462 250.136 463.19 250.056L461.054 249.456C459.95 249.136 459.11 248.648 458.534 247.992C457.974 247.336 457.694 246.56 457.694 245.664C457.694 244.864 457.894 244.168 458.294 243.576C458.71 242.968 459.278 242.496 459.998 242.16C460.734 241.824 461.574 241.656 462.518 241.656C463.75 241.656 464.838 241.952 465.782 242.544C466.726 243.136 467.398 243.968 467.798 245.04L465.398 246.168C465.174 245.576 464.798 245.104 464.27 244.752C463.742 244.4 463.15 244.224 462.494 244.224C461.966 244.224 461.55 244.344 461.246 244.584C460.942 244.824 460.79 245.136 460.79 245.52C460.79 245.76 460.854 245.968 460.982 246.144C461.11 246.32 461.286 246.464 461.51 246.576C461.75 246.688 462.022 246.792 462.326 246.888L464.414 247.512C465.486 247.832 466.31 248.312 466.886 248.952C467.478 249.592 467.774 250.376 467.774 251.304C467.774 252.088 467.566 252.784 467.15 253.392C466.734 253.984 466.158 254.448 465.422 254.784C464.686 255.12 463.822 255.288 462.83 255.288ZM480.408 255.144C478.936 255.144 477.792 254.744 476.976 253.944C476.176 253.128 475.776 251.984 475.776 250.512V244.752H473.52V241.944H473.76C474.4 241.944 474.896 241.776 475.248 241.44C475.6 241.104 475.776 240.616 475.776 239.976V238.968H478.92V241.944H481.92V244.752H478.92V250.344C478.92 250.776 478.992 251.144 479.136 251.448C479.296 251.752 479.536 251.984 479.856 252.144C480.192 252.304 480.616 252.384 481.128 252.384C481.24 252.384 481.368 252.376 481.512 252.36C481.672 252.344 481.824 252.328 481.968 252.312V255C481.744 255.032 481.488 255.064 481.2 255.096C480.912 255.128 480.648 255.144 480.408 255.144ZM490.637 255.288C489.357 255.288 488.189 254.992 487.133 254.4C486.093 253.808 485.261 253 484.637 251.976C484.029 250.952 483.725 249.784 483.725 248.472C483.725 247.16 484.029 245.992 484.637 244.968C485.261 243.944 486.093 243.136 487.133 242.544C488.173 241.952 489.341 241.656 490.637 241.656C491.917 241.656 493.077 241.952 494.117 242.544C495.157 243.136 495.981 243.944 496.589 244.968C497.213 245.976 497.525 247.144 497.525 248.472C497.525 249.784 497.213 250.952 496.589 251.976C495.965 253 495.133 253.808 494.093 254.4C493.053 254.992 491.901 255.288 490.637 255.288ZM490.637 252.408C491.341 252.408 491.957 252.24 492.485 251.904C493.029 251.568 493.453 251.104 493.757 250.512C494.077 249.904 494.237 249.224 494.237 248.472C494.237 247.704 494.077 247.032 493.757 246.456C493.453 245.864 493.029 245.4 492.485 245.064C491.957 244.712 491.341 244.536 490.637 244.536C489.917 244.536 489.285 244.712 488.741 245.064C488.197 245.4 487.765 245.864 487.445 246.456C487.141 247.032 486.989 247.704 486.989 248.472C486.989 249.224 487.141 249.904 487.445 250.512C487.765 251.104 488.197 251.568 488.741 251.904C489.285 252.24 489.917 252.408 490.637 252.408ZM241.464 285V271.944H244.416V274.848L244.176 274.416C244.48 273.44 244.952 272.76 245.592 272.376C246.248 271.992 247.032 271.8 247.944 271.8H248.712V274.584H247.584C246.688 274.584 245.968 274.864 245.424 275.424C244.88 275.968 244.608 276.736 244.608 277.728V285H241.464ZM256.633 285.288C255.289 285.288 254.113 284.984 253.105 284.376C252.097 283.768 251.313 282.944 250.753 281.904C250.193 280.864 249.913 279.712 249.913 278.448C249.913 277.136 250.193 275.976 250.753 274.968C251.329 273.944 252.105 273.136 253.081 272.544C254.073 271.952 255.177 271.656 256.393 271.656C257.417 271.656 258.313 271.824 259.081 272.16C259.865 272.496 260.529 272.96 261.073 273.552C261.617 274.144 262.033 274.824 262.321 275.592C262.609 276.344 262.753 277.16 262.753 278.04C262.753 278.264 262.737 278.496 262.705 278.736C262.689 278.976 262.649 279.184 262.585 279.36H252.505V276.96H260.809L259.321 278.088C259.465 277.352 259.425 276.696 259.201 276.12C258.993 275.544 258.641 275.088 258.145 274.752C257.665 274.416 257.081 274.248 256.393 274.248C255.737 274.248 255.153 274.416 254.641 274.752C254.129 275.072 253.737 275.552 253.465 276.192C253.209 276.816 253.113 277.576 253.177 278.472C253.113 279.272 253.217 279.984 253.489 280.608C253.777 281.216 254.193 281.688 254.737 282.024C255.297 282.36 255.937 282.528 256.657 282.528C257.377 282.528 257.985 282.376 258.481 282.072C258.993 281.768 259.393 281.36 259.681 280.848L262.225 282.096C261.969 282.72 261.569 283.272 261.025 283.752C260.481 284.232 259.833 284.608 259.081 284.88C258.345 285.152 257.529 285.288 256.633 285.288ZM271.424 285.288C270.128 285.288 268.96 284.992 267.92 284.4C266.896 283.792 266.088 282.976 265.496 281.952C264.904 280.912 264.608 279.744 264.608 278.448C264.608 277.152 264.904 275.992 265.496 274.968C266.088 273.944 266.896 273.136 267.92 272.544C268.96 271.952 270.128 271.656 271.424 271.656C272.352 271.656 273.216 271.824 274.016 272.16C274.816 272.48 275.504 272.928 276.08 273.504C276.672 274.064 277.096 274.736 277.352 275.52L274.592 276.72C274.352 276.064 273.944 275.536 273.368 275.136C272.808 274.736 272.16 274.536 271.424 274.536C270.736 274.536 270.12 274.704 269.576 275.04C269.048 275.376 268.632 275.84 268.328 276.432C268.024 277.024 267.872 277.704 267.872 278.472C267.872 279.24 268.024 279.92 268.328 280.512C268.632 281.104 269.048 281.568 269.576 281.904C270.12 282.24 270.736 282.408 271.424 282.408C272.176 282.408 272.832 282.208 273.392 281.808C273.952 281.408 274.352 280.872 274.592 280.2L277.352 281.448C277.096 282.184 276.68 282.848 276.104 283.44C275.528 284.016 274.84 284.472 274.04 284.808C273.24 285.128 272.368 285.288 271.424 285.288ZM285.929 285.288C284.585 285.288 283.409 284.984 282.401 284.376C281.393 283.768 280.609 282.944 280.049 281.904C279.489 280.864 279.209 279.712 279.209 278.448C279.209 277.136 279.489 275.976 280.049 274.968C280.625 273.944 281.401 273.136 282.377 272.544C283.369 271.952 284.473 271.656 285.689 271.656C286.713 271.656 287.609 271.824 288.377 272.16C289.161 272.496 289.825 272.96 290.369 273.552C290.913 274.144 291.329 274.824 291.617 275.592C291.905 276.344 292.049 277.16 292.049 278.04C292.049 278.264 292.033 278.496 292.001 278.736C291.985 278.976 291.945 279.184 291.881 279.36H281.801V276.96H290.105L288.617 278.088C288.761 277.352 288.721 276.696 288.497 276.12C288.289 275.544 287.937 275.088 287.441 274.752C286.961 274.416 286.377 274.248 285.689 274.248C285.033 274.248 284.449 274.416 283.937 274.752C283.425 275.072 283.033 275.552 282.761 276.192C282.505 276.816 282.409 277.576 282.473 278.472C282.409 279.272 282.513 279.984 282.785 280.608C283.073 281.216 283.489 281.688 284.033 282.024C284.593 282.36 285.233 282.528 285.953 282.528C286.673 282.528 287.281 282.376 287.777 282.072C288.289 281.768 288.689 281.36 288.977 280.848L291.521 282.096C291.265 282.72 290.865 283.272 290.321 283.752C289.777 284.232 289.129 284.608 288.377 284.88C287.641 285.152 286.825 285.288 285.929 285.288ZM294.433 285V271.944H297.577V285H294.433ZM294.433 270.48V267.12H297.577V270.48H294.433ZM304.416 285L299.28 271.944H302.712L306.432 282.216H305.16L308.904 271.944H312.336L307.2 285H304.416ZM320.031 285.288C318.687 285.288 317.511 284.984 316.503 284.376C315.495 283.768 314.711 282.944 314.151 281.904C313.591 280.864 313.311 279.712 313.311 278.448C313.311 277.136 313.591 275.976 314.151 274.968C314.727 273.944 315.503 273.136 316.479 272.544C317.471 271.952 318.575 271.656 319.791 271.656C320.815 271.656 321.711 271.824 322.479 272.16C323.263 272.496 323.927 272.96 324.471 273.552C325.015 274.144 325.431 274.824 325.719 275.592C326.007 276.344 326.151 277.16 326.151 278.04C326.151 278.264 326.135 278.496 326.103 278.736C326.087 278.976 326.047 279.184 325.983 279.36H315.903V276.96H324.207L322.719 278.088C322.863 277.352 322.823 276.696 322.599 276.12C322.391 275.544 322.039 275.088 321.543 274.752C321.063 274.416 320.479 274.248 319.791 274.248C319.135 274.248 318.551 274.416 318.039 274.752C317.527 275.072 317.135 275.552 316.863 276.192C316.607 276.816 316.511 277.576 316.575 278.472C316.511 279.272 316.615 279.984 316.887 280.608C317.175 281.216 317.591 281.688 318.135 282.024C318.695 282.36 319.335 282.528 320.055 282.528C320.775 282.528 321.383 282.376 321.879 282.072C322.391 281.768 322.791 281.36 323.079 280.848L325.623 282.096C325.367 282.72 324.967 283.272 324.423 283.752C323.879 284.232 323.231 284.608 322.479 284.88C321.743 285.152 320.927 285.288 320.031 285.288ZM339.088 285.288C337.792 285.288 336.624 284.992 335.584 284.4C334.56 283.792 333.752 282.976 333.16 281.952C332.568 280.912 332.272 279.744 332.272 278.448C332.272 277.152 332.568 275.992 333.16 274.968C333.752 273.944 334.56 273.136 335.584 272.544C336.624 271.952 337.792 271.656 339.088 271.656C340.016 271.656 340.88 271.824 341.68 272.16C342.48 272.48 343.168 272.928 343.744 273.504C344.336 274.064 344.76 274.736 345.016 275.52L342.256 276.72C342.016 276.064 341.608 275.536 341.032 275.136C340.472 274.736 339.824 274.536 339.088 274.536C338.4 274.536 337.784 274.704 337.24 275.04C336.712 275.376 336.296 275.84 335.992 276.432C335.688 277.024 335.536 277.704 335.536 278.472C335.536 279.24 335.688 279.92 335.992 280.512C336.296 281.104 336.712 281.568 337.24 281.904C337.784 282.24 338.4 282.408 339.088 282.408C339.84 282.408 340.496 282.208 341.056 281.808C341.616 281.408 342.016 280.872 342.256 280.2L345.016 281.448C344.76 282.184 344.344 282.848 343.768 283.44C343.192 284.016 342.504 284.472 341.704 284.808C340.904 285.128 340.032 285.288 339.088 285.288ZM351.315 285.288C350.403 285.288 349.611 285.136 348.939 284.832C348.267 284.528 347.747 284.096 347.379 283.536C347.011 282.96 346.827 282.296 346.827 281.544C346.827 280.824 346.987 280.184 347.307 279.624C347.627 279.048 348.123 278.568 348.795 278.184C349.467 277.8 350.315 277.528 351.339 277.368L355.611 276.672V279.072L351.939 279.696C351.315 279.808 350.851 280.008 350.547 280.296C350.243 280.584 350.091 280.96 350.091 281.424C350.091 281.872 350.259 282.232 350.595 282.504C350.947 282.76 351.379 282.888 351.891 282.888C352.547 282.888 353.123 282.752 353.619 282.48C354.131 282.192 354.523 281.8 354.795 281.304C355.083 280.808 355.227 280.264 355.227 279.672V276.312C355.227 275.752 355.003 275.288 354.555 274.92C354.123 274.536 353.547 274.344 352.827 274.344C352.155 274.344 351.555 274.528 351.027 274.896C350.515 275.248 350.139 275.72 349.899 276.312L347.331 275.064C347.587 274.376 347.987 273.784 348.531 273.288C349.091 272.776 349.747 272.376 350.499 272.088C351.251 271.8 352.067 271.656 352.947 271.656C354.019 271.656 354.963 271.856 355.779 272.256C356.595 272.64 357.227 273.184 357.675 273.888C358.139 274.576 358.371 275.384 358.371 276.312V285H355.395V282.768L356.067 282.72C355.731 283.28 355.331 283.752 354.867 284.136C354.403 284.504 353.875 284.792 353.283 285C352.691 285.192 352.035 285.288 351.315 285.288ZM361.277 285V266.832H364.421V285H361.277ZM367.323 285V266.832H370.467V285H367.323ZM378.338 285.288C376.946 285.288 375.73 284.96 374.69 284.304C373.666 283.632 372.962 282.728 372.578 281.592L374.93 280.464C375.266 281.2 375.73 281.776 376.322 282.192C376.93 282.608 377.602 282.816 378.338 282.816C378.914 282.816 379.37 282.688 379.706 282.432C380.042 282.176 380.21 281.84 380.21 281.424C380.21 281.168 380.138 280.96 379.994 280.8C379.866 280.624 379.682 280.48 379.442 280.368C379.218 280.24 378.97 280.136 378.698 280.056L376.562 279.456C375.458 279.136 374.618 278.648 374.042 277.992C373.482 277.336 373.202 276.56 373.202 275.664C373.202 274.864 373.402 274.168 373.802 273.576C374.218 272.968 374.786 272.496 375.506 272.16C376.242 271.824 377.082 271.656 378.026 271.656C379.258 271.656 380.346 271.952 381.29 272.544C382.234 273.136 382.906 273.968 383.306 275.04L380.906 276.168C380.682 275.576 380.306 275.104 379.778 274.752C379.25 274.4 378.658 274.224 378.002 274.224C377.474 274.224 377.058 274.344 376.754 274.584C376.45 274.824 376.298 275.136 376.298 275.52C376.298 275.76 376.362 275.968 376.49 276.144C376.618 276.32 376.794 276.464 377.018 276.576C377.258 276.688 377.53 276.792 377.834 276.888L379.922 277.512C380.994 277.832 381.818 278.312 382.394 278.952C382.986 279.592 383.282 280.376 383.282 281.304C383.282 282.088 383.074 282.784 382.658 283.392C382.242 283.984 381.666 284.448 380.93 284.784C380.194 285.12 379.33 285.288 378.338 285.288Z" fill="#24B3B3"/>
<path d="M260 163.334C250.8 163.334 243.333 170.801 243.333 180.001C243.333 189.201 250.8 196.667 260 196.667C269.2 196.667 276.667 189.201 276.667 180.001C276.667 170.801 269.2 163.334 260 163.334ZM260 193.334C252.65 193.334 246.667 187.351 246.667 180.001C246.667 172.651 252.65 166.667 260 166.667C267.35 166.667 273.333 172.651 273.333 180.001C273.333 187.351 267.35 193.334 260 193.334ZM260.517 178.567C257.567 177.817 256.617 177.001 256.617 175.784C256.617 174.384 257.933 173.401 260.117 173.401C262.417 173.401 263.283 174.501 263.35 176.134H266.2C266.117 173.901 264.75 171.851 262.05 171.184V168.334H258.167V171.151C255.65 171.684 253.633 173.317 253.633 175.834C253.633 178.817 256.117 180.317 259.733 181.184C262.983 181.951 263.633 183.101 263.633 184.301C263.633 185.184 262.983 186.617 260.133 186.617C257.467 186.617 256.417 185.417 256.267 183.884H253.4C253.567 186.717 255.667 188.317 258.167 188.834V191.667H262.067V188.884C264.6 188.401 266.6 186.951 266.617 184.267C266.6 180.601 263.45 179.334 260.517 178.567Z" fill="#24B3B3"/>
</svg>
