<svg width="394" height="378" viewBox="0 0 394 378" fill="none" xmlns="http://www.w3.org/2000/svg">
<path opacity="0.5" d="M206.408 3.22949C255.142 3.22949 294.805 42.1291 296.114 90.6162L296.209 94.0967L299.672 93.7422C302.474 93.4554 305.316 93.3066 308.191 93.3066C353.795 93.3067 390.77 130.327 390.771 176C390.771 221.673 353.795 258.69 308.191 258.69H72.7949C34.3781 258.69 3.22949 227.507 3.22949 189.03C3.22969 157.335 24.3701 130.579 53.3047 122.143L56.5293 121.202L55.4629 118.017C53.8068 113.069 52.9092 107.769 52.9092 102.252C52.9094 74.8654 75.0792 52.6709 102.42 52.6709C109.034 52.6709 115.339 53.9688 121.103 56.3203L123.936 57.4756L125.243 54.709C139.624 24.2705 170.568 3.22967 206.408 3.22949Z" stroke="#1E75BA" stroke-width="6.45902"/>
<g filter="url(#filter0_d_9818_17165)">
<circle cx="83.9672" cy="342.328" r="29.0656" fill="white"/>
</g>
<g filter="url(#filter1_d_9818_17165)">
<circle cx="292.271" cy="342.328" r="29.0656" fill="white"/>
</g>
<g filter="url(#filter2_d_9818_17165)">
<circle cx="341.066" cy="296.066" r="29.0656" fill="white"/>
</g>
<g filter="url(#filter3_d_9818_17165)">
<circle cx="36.0656" cy="300.066" r="29.0656" fill="white"/>
</g>
<rect x="274.508" y="324.566" width="35.5246" height="35.5246" rx="1.61475" fill="#7F54B3"/>
<path d="M278.223 331.476C278.617 330.941 279.209 330.659 279.998 330.603C281.435 330.49 282.252 331.166 282.45 332.632C283.323 338.522 284.281 343.51 285.296 347.596L291.468 335.845C292.031 334.774 292.736 334.21 293.581 334.154C294.821 334.069 295.582 334.858 295.892 336.521C296.596 340.269 297.498 343.453 298.569 346.159C299.302 339.001 300.542 333.844 302.289 330.659C302.712 329.87 303.332 329.476 304.149 329.419C304.797 329.363 305.389 329.56 305.924 329.983C306.46 330.406 306.742 330.941 306.798 331.589C306.826 332.096 306.742 332.519 306.516 332.942C305.417 334.971 304.515 338.381 303.783 343.115C303.078 347.709 302.825 351.287 302.994 353.852C303.05 354.556 302.937 355.176 302.656 355.712C302.317 356.332 301.81 356.67 301.162 356.726C300.429 356.783 299.668 356.445 298.936 355.684C296.315 353.007 294.229 349.005 292.708 343.679C290.876 347.286 289.523 349.991 288.65 351.795C286.987 354.979 285.578 356.614 284.395 356.698C283.634 356.754 282.985 356.106 282.422 354.754C280.985 351.062 279.435 343.932 277.772 333.365C277.659 332.632 277.828 331.984 278.223 331.476L278.223 331.476Z" fill="white"/>
<path d="M341.418 314.135H329.859C326.419 314.135 323.615 311.331 323.615 307.889V296.375C323.615 295.799 324.08 295.334 324.655 295.334C325.231 295.334 325.696 295.799 325.696 296.375V307.889C325.696 310.179 327.557 312.053 329.859 312.053H341.418C341.993 312.053 342.459 312.519 342.459 313.094C342.459 313.67 341.993 314.135 341.418 314.135Z" fill="#F9B21D"/>
<path d="M352.891 314.135H341.418C340.842 314.135 340.377 313.67 340.377 313.094C340.377 312.519 340.842 312.053 341.418 312.053H352.891C355.18 312.053 357.054 310.191 357.054 307.889V296.375C357.054 295.799 357.519 295.334 358.095 295.334C358.67 295.334 359.135 295.799 359.135 296.375V307.889C359.123 311.331 356.331 314.135 352.891 314.135Z" fill="#226DB4"/>
<path d="M358.095 297.416C357.519 297.416 357.054 296.951 357.054 296.375V284.861C357.054 282.571 355.193 280.697 352.891 280.697H341.418C340.842 280.697 340.377 280.231 340.377 279.656C340.377 279.08 340.842 278.615 341.418 278.615H352.891C356.331 278.615 359.135 281.42 359.135 284.861V296.375C359.123 296.951 358.658 297.416 358.095 297.416Z" fill="#089949"/>
<path d="M324.655 297.416C324.08 297.416 323.615 296.951 323.615 296.375V284.861C323.615 281.42 326.419 278.615 329.859 278.615H341.418C341.993 278.615 342.459 279.08 342.459 279.656C342.459 280.231 341.993 280.697 341.418 280.697H329.859C327.57 280.697 325.696 282.559 325.696 284.861V296.375C325.696 296.951 325.231 297.416 324.655 297.416Z" fill="#E42527"/>
<path d="M346.524 305.434C344.12 305.434 341.863 304.499 340.153 302.816L335.344 298.005C334.73 297.377 334.382 296.562 334.382 295.68C334.382 294.798 334.73 293.983 335.357 293.355C336.64 292.099 338.71 292.099 339.979 293.369L344.387 297.778C344.774 298.166 345.416 298.166 345.816 297.778C346.003 297.591 346.11 297.337 346.11 297.056C346.11 296.789 346.003 296.535 345.816 296.335L341.008 291.525C339.725 290.255 338.029 289.56 336.212 289.56C334.369 289.56 332.646 290.282 331.377 291.591C330.095 292.901 329.413 294.638 329.44 296.482C329.48 298.272 330.201 299.943 331.47 301.199C332.753 302.455 334.436 303.15 336.226 303.15C336.493 303.15 336.747 303.136 337.014 303.109C337.642 303.043 338.203 303.484 338.269 304.112C338.336 304.74 337.895 305.301 337.268 305.368C336.92 305.408 336.573 305.421 336.226 305.421C333.835 305.421 331.577 304.499 329.881 302.829C328.184 301.159 327.209 298.927 327.169 296.549C327.116 294.09 328.038 291.778 329.747 290.028C331.457 288.278 333.755 287.316 336.212 287.302C336.226 287.302 336.226 287.302 336.239 287.302C338.643 287.302 340.901 288.237 342.611 289.921L347.419 294.731C348.047 295.359 348.381 296.175 348.381 297.056C348.381 297.938 348.034 298.767 347.406 299.381C346.124 300.651 344.053 300.637 342.784 299.368L338.376 294.959C337.989 294.571 337.348 294.571 336.96 294.959C336.773 295.146 336.666 295.4 336.666 295.667C336.666 295.934 336.773 296.188 336.96 296.375L341.769 301.185C343.051 302.455 344.748 303.15 346.538 303.15C350.278 303.15 353.323 300.103 353.323 296.362C353.323 294.544 352.615 292.847 351.333 291.551C350.051 290.269 348.341 289.56 346.538 289.56C346.284 289.56 346.03 289.574 345.776 289.6C345.148 289.667 344.587 289.226 344.521 288.598C344.454 287.97 344.895 287.409 345.522 287.342C345.856 287.302 346.204 287.289 346.538 287.289C348.955 287.289 351.226 288.237 352.949 289.948C354.659 291.658 355.607 293.943 355.607 296.362C355.607 298.78 354.659 301.052 352.949 302.762C351.213 304.499 348.942 305.434 346.524 305.434Z" fill="#226DB4"/>
<g clip-path="url(#clip0_9818_17165)">
<path fill-rule="evenodd" clip-rule="evenodd" d="M43.713 318.436L43.6266 285.229C43.403 285.005 42.9667 285.073 42.7962 285.123L41.6601 285.475C41.5199 285.013 41.3379 284.565 41.1165 284.137C40.3104 282.598 39.1322 281.784 37.7061 281.782H37.7017C37.6064 281.782 37.5123 281.791 37.4171 281.799L37.406 281.8C37.3648 281.749 37.322 281.699 37.2776 281.651C36.6575 280.987 35.8603 280.662 34.9058 280.69C33.0656 280.743 31.2331 282.074 29.746 284.438C28.6996 286.102 27.9057 288.192 27.6788 289.81L24.0547 290.933C22.9884 291.269 22.9552 291.302 22.8146 292.309C22.7094 293.07 19.918 314.683 19.918 314.683L43.3122 318.733L43.713 318.434V318.436ZM36.0485 282.208C35.7374 282.003 35.3731 281.908 34.9413 281.917C32.1 281.999 29.622 286.442 28.9897 289.403L31.7114 288.559L32.1975 288.409C32.554 286.529 33.4487 284.578 34.6191 283.322C35.0283 282.872 35.5113 282.495 36.0474 282.208H36.0485ZM33.5428 287.991L37.4492 286.78C37.4614 285.761 37.3507 284.256 36.8413 283.193C36.2988 283.416 35.8426 283.808 35.5148 284.159C34.6368 285.104 33.9204 286.544 33.5439 287.991H33.5428ZM38.6727 286.401L40.4886 285.838C40.1985 284.894 39.5098 283.313 38.1136 283.047C38.5476 284.169 38.6594 285.468 38.6727 286.401Z" fill="#95BF47"/>
<path d="M48.9548 287.699C48.8153 287.688 46.1113 287.646 46.1113 287.646C46.1113 287.646 43.8492 285.447 43.6256 285.222C43.539 285.142 43.4292 285.092 43.3122 285.078V318.728L53.4492 316.204C53.4492 316.204 49.3124 288.201 49.2859 288.009C49.2731 287.928 49.2334 287.853 49.1732 287.797C49.113 287.741 49.0357 287.706 48.9537 287.699H48.9548Z" fill="#5E8E3E"/>
<path d="M37.6939 292.924L36.5158 297.336C36.5158 297.336 35.2025 296.737 33.6446 296.835C31.3615 296.979 31.3371 298.422 31.3604 298.784C31.4844 300.755 36.6675 301.187 36.9587 305.807C37.1879 309.442 35.0331 311.93 31.9284 312.125C28.2024 312.361 26.1507 310.16 26.1507 310.16L26.9402 306.796C26.9402 306.796 29.0052 308.356 30.6572 308.251C31.7379 308.183 32.1233 307.304 32.0845 306.682C31.9217 304.11 27.7009 304.26 27.434 300.033C27.2103 296.473 29.5433 292.869 34.6932 292.543C36.6774 292.417 37.6939 292.925 37.6939 292.925" fill="white"/>
</g>
<path d="M83.2148 324.566L67.8196 333.452V351.211L72.2162 353.747L72.1875 335.995L83.1861 329.637L94.1847 335.995V353.74L98.5813 351.211V333.438L83.2148 324.566Z" fill="#F26322"/>
<path d="M85.3987 353.747L83.2004 355.018L80.995 353.754V335.995L76.5984 338.531L76.6056 356.283L83.2004 360.09L89.7953 356.283V338.531L85.3987 335.995V353.747Z" fill="#F26322"/>
<path fill-rule="evenodd" clip-rule="evenodd" d="M97.2048 176.613L168.272 151.807C168.371 151.774 168.48 151.782 168.574 151.828C168.668 151.873 168.74 151.954 168.775 152.053C168.79 152.095 168.798 152.14 168.798 152.185V215.976C168.798 216.083 168.755 216.185 168.68 216.26C168.605 216.335 168.503 216.377 168.397 216.377H168.344L97.2655 212.914C97.1628 212.909 97.066 212.864 96.9953 212.79C96.9245 212.715 96.8851 212.616 96.8853 212.514V177.004C96.8853 176.912 96.9172 176.823 96.9754 176.752C97.0336 176.681 97.1147 176.631 97.2048 176.613ZM297.113 214.381V183.104H294.145L287.664 186.736L288.501 189.324L293.726 186.361V214.382H297.115L297.113 214.381ZM280.019 199.598C279.141 205.478 275.851 210.891 269.736 211.751L266.517 211.958V214.831C274.406 215.182 280.393 210.391 282.585 202.818C284.622 195.784 283.898 182.552 273.958 182.552C261.657 182.552 260.35 203.051 272.704 203.054C274.09 203.081 275.464 202.781 276.712 202.179C277.961 201.577 279.051 200.69 279.893 199.59H280.016L280.019 199.598ZM273.664 185.236C278.762 185.263 280.035 191.14 280.019 195.328C279.994 200.956 267.587 203.847 267.558 193.357C267.549 189.62 269.437 185.265 273.664 185.236ZM104.964 183.444C104.612 183.377 104.248 183.443 103.943 183.63C103.637 183.817 103.413 184.11 103.313 184.454C103.213 184.797 103.245 185.166 103.403 185.487C103.56 185.808 103.832 186.059 104.165 186.19L130.13 193.69L130.71 193.212L156.567 171.904C156.734 171.792 156.876 171.647 156.983 171.478C157.091 171.308 157.161 171.118 157.191 170.919C157.22 170.721 157.208 170.518 157.154 170.325C157.1 170.132 157.006 169.952 156.879 169.797C156.751 169.642 156.592 169.515 156.413 169.425C156.233 169.335 156.037 169.284 155.836 169.275C155.635 169.265 155.435 169.298 155.248 169.371C155.06 169.443 154.89 169.555 154.749 169.697L129.475 190.531L104.964 183.444Z" fill="#1E75BA"/>
<path fill-rule="evenodd" clip-rule="evenodd" d="M260.547 197.969H250.679V200.766H257.117V210.956C254.583 212.375 249.413 212.033 246.77 210.99C238.302 207.647 237.63 194.295 243.111 188.662C246.881 184.791 254.019 184.189 258.748 186.482L259.67 183.61C255.142 181.826 250.114 181.776 245.552 183.47C233.476 188.231 233.427 205.927 241.908 212.043C246.885 215.635 254.983 215.303 260.547 213.08V197.969ZM232.125 183.607C227.359 180.554 215.838 181.689 215.863 190.491C215.881 197.817 223.869 198.722 227.291 201.259C232.261 204.945 229.965 213.572 220.461 211.657C218.928 211.365 217.465 210.786 216.148 209.951L215.189 212.823C220.32 216.435 233.334 215.828 233.334 205.891C233.334 195.257 219.371 197.956 219.371 190.023C219.371 184.263 227.42 184.09 231.078 186.47L232.123 183.597L232.125 183.607ZM209.679 182.559H205.332C202.736 189.779 198.121 201.679 196.226 209.367H196.1C193.889 200.699 190.218 191.061 187.272 182.56H183.01L180.792 214.382H184.096L185.599 186.352H185.725C187.833 195.128 191.74 205.619 194.672 214.247H197.228C200.485 205.1 204.094 195.607 206.797 186.352H206.922C206.874 193.591 207.88 207.479 208.26 214.373H211.684L209.679 182.559Z" fill="#4B4B4D"/>
<defs>
<filter id="filter0_d_9818_17165" x="51.6721" y="313.262" width="64.5901" height="64.5902" filterUnits="userSpaceOnUse" color-interpolation-filters="sRGB">
<feFlood flood-opacity="0" result="BackgroundImageFix"/>
<feColorMatrix in="SourceAlpha" type="matrix" values="0 0 0 0 0 0 0 0 0 0 0 0 0 0 0 0 0 0 127 0" result="hardAlpha"/>
<feOffset dy="3.22951"/>
<feGaussianBlur stdDeviation="1.61475"/>
<feComposite in2="hardAlpha" operator="out"/>
<feColorMatrix type="matrix" values="0 0 0 0 0 0 0 0 0 0 0 0 0 0 0 0 0 0 0.12 0"/>
<feBlend mode="normal" in2="BackgroundImageFix" result="effect1_dropShadow_9818_17165"/>
<feBlend mode="normal" in="SourceGraphic" in2="effect1_dropShadow_9818_17165" result="shape"/>
</filter>
<filter id="filter1_d_9818_17165" x="259.975" y="313.262" width="64.5901" height="64.5902" filterUnits="userSpaceOnUse" color-interpolation-filters="sRGB">
<feFlood flood-opacity="0" result="BackgroundImageFix"/>
<feColorMatrix in="SourceAlpha" type="matrix" values="0 0 0 0 0 0 0 0 0 0 0 0 0 0 0 0 0 0 127 0" result="hardAlpha"/>
<feOffset dy="3.22951"/>
<feGaussianBlur stdDeviation="1.61475"/>
<feComposite in2="hardAlpha" operator="out"/>
<feColorMatrix type="matrix" values="0 0 0 0 0 0 0 0 0 0 0 0 0 0 0 0 0 0 0.12 0"/>
<feBlend mode="normal" in2="BackgroundImageFix" result="effect1_dropShadow_9818_17165"/>
<feBlend mode="normal" in="SourceGraphic" in2="effect1_dropShadow_9818_17165" result="shape"/>
</filter>
<filter id="filter2_d_9818_17165" x="308.77" y="267" width="64.5901" height="64.5902" filterUnits="userSpaceOnUse" color-interpolation-filters="sRGB">
<feFlood flood-opacity="0" result="BackgroundImageFix"/>
<feColorMatrix in="SourceAlpha" type="matrix" values="0 0 0 0 0 0 0 0 0 0 0 0 0 0 0 0 0 0 127 0" result="hardAlpha"/>
<feOffset dy="3.22951"/>
<feGaussianBlur stdDeviation="1.61475"/>
<feComposite in2="hardAlpha" operator="out"/>
<feColorMatrix type="matrix" values="0 0 0 0 0 0 0 0 0 0 0 0 0 0 0 0 0 0 0.12 0"/>
<feBlend mode="normal" in2="BackgroundImageFix" result="effect1_dropShadow_9818_17165"/>
<feBlend mode="normal" in="SourceGraphic" in2="effect1_dropShadow_9818_17165" result="shape"/>
</filter>
<filter id="filter3_d_9818_17165" x="3.77049" y="271" width="64.5902" height="64.5902" filterUnits="userSpaceOnUse" color-interpolation-filters="sRGB">
<feFlood flood-opacity="0" result="BackgroundImageFix"/>
<feColorMatrix in="SourceAlpha" type="matrix" values="0 0 0 0 0 0 0 0 0 0 0 0 0 0 0 0 0 0 127 0" result="hardAlpha"/>
<feOffset dy="3.22951"/>
<feGaussianBlur stdDeviation="1.61475"/>
<feComposite in2="hardAlpha" operator="out"/>
<feColorMatrix type="matrix" values="0 0 0 0 0 0 0 0 0 0 0 0 0 0 0 0 0 0 0.12 0"/>
<feBlend mode="normal" in2="BackgroundImageFix" result="effect1_dropShadow_9818_17165"/>
<feBlend mode="normal" in="SourceGraphic" in2="effect1_dropShadow_9818_17165" result="shape"/>
</filter>
<clipPath id="clip0_9818_17165">
<rect width="38.7541" height="38.7541" fill="white" transform="translate(16.6885 280.689)"/>
</clipPath>
</defs>
</svg>
