<svg width="150" height="33" viewBox="0 0 150 33" fill="none" xmlns="http://www.w3.org/2000/svg">
<g clip-path="url(#clip0_9830_17529)">
<path d="M13.7851 12.3093V18.2906H10.2804V1.328H16.8925C18.1776 1.328 19.2757 1.56165 20.257 2.02894C21.215 2.49623 21.9626 3.15043 22.4767 4.01492C22.9907 4.8794 23.2477 5.86071 23.2477 6.93548C23.2477 8.59436 22.6869 9.90277 21.5421 10.8607C20.3972 11.8187 18.8318 12.3093 16.8225 12.3093H13.7851ZM13.7851 9.48221H16.9159C17.8505 9.48221 18.5514 9.27193 19.0421 8.828C19.5327 8.38408 19.7664 7.7766 19.7664 6.95884C19.7664 6.11772 19.5327 5.46352 19.0421 4.9495C18.5514 4.43548 17.8739 4.17847 17.0094 4.15511H13.7851V9.48221Z" fill="black"/>
<path d="M32.4299 8.82796C31.9626 8.75787 31.5654 8.7345 31.215 8.7345C29.9299 8.7345 29.1121 9.15507 28.715 10.0196V18.2672H25.3505V5.65039H28.528L28.6215 7.14572C29.2991 5.9775 30.2336 5.41675 31.4252 5.41675C31.7991 5.41675 32.1495 5.46348 32.4766 5.55694L32.4299 8.82796Z" fill="black"/>
<path d="M33.9023 2.40256C33.9023 1.88854 34.0659 1.49134 34.4164 1.16424C34.7435 0.837135 35.2108 0.673584 35.7949 0.673584C36.379 0.673584 36.8229 0.837135 37.1734 1.16424C37.5238 1.49134 37.6874 1.9119 37.6874 2.40256C37.6874 2.91657 37.5238 3.33713 37.1734 3.66423C36.8229 3.99134 36.379 4.15489 35.7949 4.15489C35.2341 4.15489 34.7668 3.99134 34.4164 3.66423C34.0893 3.33713 33.9023 2.91657 33.9023 2.40256Z" fill="#1DAAA3"/>
<path d="M37.5 5.67371H34.1121V18.2905H37.5V5.67371Z" fill="black"/>
<path d="M43.2481 5.67371L43.3416 7.12231C44.2528 6.00081 45.4444 5.44006 46.9631 5.44006C48.2949 5.44006 49.2995 5.83726 49.9537 6.60829C50.608 7.40268 50.9351 8.5709 50.9584 10.1363V18.2905H47.5939V10.2298C47.5939 9.50548 47.4304 8.99147 47.1266 8.66436C46.8229 8.33726 46.3089 8.17371 45.5846 8.17371C44.6266 8.17371 43.9257 8.5709 43.4584 9.38866V18.2672H40.0939V5.65034L43.2481 5.67371Z" fill="black"/>
<path d="M57.4068 2.56653V5.67401H59.5563V8.15064H57.4068V14.4357C57.4068 14.903 57.5003 15.2301 57.6638 15.4404C57.8507 15.6506 58.1778 15.7441 58.6919 15.7441C59.0657 15.7441 59.3928 15.7207 59.6732 15.674V18.2207C59.019 18.431 58.3414 18.5245 57.6404 18.5245C55.2806 18.5245 54.0657 17.3329 54.019 14.9497V8.15064H52.1732V5.67401H54.019V2.56653H57.4068Z" fill="black"/>
<path d="M70.3505 13.8281C70.3505 13.1739 70.1168 12.6598 69.6495 12.3094C69.1823 11.9589 68.3411 11.5851 67.1262 11.1879C65.9112 10.7907 64.9533 10.4168 64.2524 10.0196C62.3365 8.96824 61.3552 7.56637 61.3552 5.81404C61.3552 4.90282 61.6122 4.08507 62.1262 3.36077C62.6402 2.63647 63.3879 2.07572 64.3458 1.67852C65.3038 1.28133 66.4019 1.07104 67.5935 1.07104C68.8084 1.07104 69.8832 1.28133 70.8411 1.72525C71.7991 2.16918 72.5234 2.77665 73.0608 3.59441C73.5748 4.3888 73.8552 5.30002 73.8552 6.32806H70.3505C70.3505 5.55703 70.1168 4.94955 69.6262 4.50563C69.1355 4.08507 68.458 3.85142 67.5701 3.85142C66.7056 3.85142 66.0514 4.03834 65.5841 4.3888C65.1168 4.73927 64.8832 5.22993 64.8832 5.81404C64.8832 6.37478 65.1636 6.81871 65.7243 7.19254C66.2851 7.56637 67.1028 7.91684 68.1776 8.24394C70.1636 8.85142 71.6122 9.57572 72.5234 10.4636C73.4346 11.3514 73.8785 12.4496 73.8785 13.7813C73.8785 15.2533 73.3178 16.3981 72.2196 17.2393C71.0981 18.0804 69.6028 18.501 67.7337 18.501C66.4252 18.501 65.2337 18.2673 64.1589 17.7767C63.0841 17.3094 62.2664 16.6552 61.7056 15.814C61.1449 14.9729 60.8645 14.015 60.8645 12.9168H64.3692C64.3692 14.786 65.4907 15.7206 67.7337 15.7206C68.5748 15.7206 69.2056 15.557 69.6729 15.2066C70.1402 14.8561 70.3505 14.4355 70.3505 13.8281Z" fill="black"/>
<path d="M79.1584 7.05231C80.0463 5.97754 81.1678 5.44016 82.5229 5.44016C85.2566 5.44016 86.6351 7.02895 86.6818 10.2065V18.2906H83.3173V10.3C83.3173 9.57568 83.1538 9.03829 82.85 8.68782C82.5463 8.33736 82.0323 8.17381 81.308 8.17381C80.3267 8.17381 79.6024 8.54764 79.1584 9.31867V18.2673H75.7939V0.393433H79.1584V7.05231Z" fill="black"/>
<path d="M88.5752 11.8652C88.5752 10.6036 88.8088 9.50543 89.2995 8.52413C89.7901 7.54282 90.4677 6.79515 91.3789 6.25777C92.2901 5.72039 93.3416 5.46338 94.5331 5.46338C96.2387 5.46338 97.6173 5.9774 98.692 7.0288C99.7668 8.0802 100.374 9.48207 100.491 11.2811L100.514 12.1456C100.514 14.0849 99.9771 15.6269 98.9023 16.7952C97.8275 17.9634 96.3789 18.5475 94.5565 18.5475C92.7341 18.5475 91.2855 17.9634 90.2107 16.7952C89.1359 15.6269 88.5752 14.0381 88.5752 12.0522V11.8652ZM91.9397 12.0989C91.9397 13.2905 92.1733 14.2017 92.6173 14.8559C93.0612 15.5101 93.7154 15.8138 94.5565 15.8138C95.3743 15.8138 96.0051 15.5101 96.4724 14.8793C96.9397 14.2484 97.15 13.2438 97.15 11.8652C97.15 10.697 96.9163 9.78581 96.4724 9.1316C96.0051 8.4774 95.3743 8.17366 94.5331 8.17366C93.7154 8.17366 93.0612 8.50076 92.6173 9.1316C92.1733 9.76244 91.9397 10.7671 91.9397 12.0989Z" fill="black"/>
<path d="M113.832 12.0989C113.832 14.0382 113.388 15.6036 112.5 16.7718C111.613 17.9401 110.421 18.5242 108.926 18.5242C107.641 18.5242 106.613 18.0802 105.842 17.1924V23.127H102.477V5.67371H105.608L105.725 6.91203C106.542 5.93072 107.594 5.44006 108.926 5.44006C110.468 5.44006 111.683 6.02418 112.547 7.16904C113.412 8.31389 113.832 9.90268 113.832 11.912V12.0989ZM110.468 11.8419C110.468 10.6737 110.257 9.76249 109.837 9.13165C109.416 8.50081 108.809 8.17371 108.014 8.17371C106.963 8.17371 106.239 8.5709 105.842 9.38866V14.5522C106.262 15.3933 106.986 15.7905 108.038 15.7905C109.65 15.7905 110.468 14.4821 110.468 11.8419Z" fill="black"/>
<path d="M127.15 12.0989C127.15 14.0382 126.706 15.6036 125.818 16.7718C124.93 17.9401 123.739 18.5242 122.244 18.5242C120.958 18.5242 119.93 18.0802 119.159 17.1924V23.127H115.795V5.67371H118.926L119.043 6.91203C119.86 5.93072 120.912 5.44006 122.244 5.44006C123.786 5.44006 125.001 6.02418 125.865 7.16904C126.73 8.31389 127.15 9.90268 127.15 11.912V12.0989ZM123.786 11.8419C123.786 10.6737 123.575 9.76249 123.155 9.13165C122.734 8.50081 122.127 8.17371 121.332 8.17371C120.281 8.17371 119.557 8.5709 119.159 9.38866V14.5522C119.58 15.3933 120.304 15.7905 121.356 15.7905C122.968 15.7905 123.786 14.4821 123.786 11.8419Z" fill="black"/>
<path d="M133.762 13.5242L136.098 5.67371H139.72L134.65 20.2298L134.369 20.884C133.621 22.5195 132.383 23.3606 130.631 23.3606C130.14 23.3606 129.65 23.2905 129.135 23.1503V20.6036H129.65C130.28 20.6036 130.771 20.5102 131.075 20.3232C131.378 20.1363 131.635 19.8092 131.822 19.3653L132.22 18.3373L127.804 5.69707H131.425L133.762 13.5242Z" fill="black"/>
<path d="M54.239 32.5322C52.9682 32.5322 51.9622 31.8706 51.9622 30.7056H53.286C53.3124 31.2086 53.6566 31.5264 54.2124 31.5264C54.7949 31.5264 55.139 31.2086 55.139 30.785C55.139 29.4615 51.9622 30.2556 51.9622 28.032C51.9622 26.9201 52.8624 26.2582 54.133 26.2582C55.4037 26.2582 56.2509 26.8935 56.3304 28.0054H54.9802C54.9537 27.6084 54.636 27.2907 54.1066 27.2643C53.6302 27.2376 53.2594 27.4759 53.2594 27.979C53.2594 29.2231 56.4098 28.5348 56.4098 30.7056C56.4362 31.6586 55.6421 32.5322 54.239 32.5322Z" fill="black"/>
<path d="M57.442 26.3385H58.6862V32.4803H57.442V26.3385Z" fill="black"/>
<path d="M65.1196 26.3121V32.4804H63.8752L61.0691 28.2446V32.4804H59.825V26.3121H61.0691L63.8752 30.5476V26.3121H65.1196Z" fill="black"/>
<path d="M69.1166 26.2582C70.4933 26.2582 71.6052 26.9995 72.0021 28.2437H70.5727C70.2816 27.6612 69.7519 27.3701 69.0902 27.3701C68.0047 27.3701 67.2372 28.1643 67.2372 29.4084C67.2372 30.6528 68.0047 31.447 69.0902 31.447C69.7519 31.447 70.2816 31.1558 70.5727 30.547H72.0021C71.5785 31.8175 70.4669 32.5322 69.1166 32.5322C67.343 32.5322 65.9928 31.235 65.9928 29.382C65.9928 27.529 67.343 26.2582 69.1166 26.2582Z" fill="black"/>
<path d="M76.5825 27.318H74.2528V28.8535H76.3178V29.8329H74.2528V31.4743H76.5825V32.4804H73.0087V26.3121H76.5825V27.318Z" fill="black"/>
<path d="M79.5215 31.4738C80.9773 30.2296 82.5128 29.0913 82.5128 27.9266C82.5128 27.3441 82.2481 26.9735 81.6392 26.9735C81.0568 26.9735 80.7126 27.3971 80.7126 28.0852H79.5215C79.5743 26.6027 80.5009 25.941 81.6656 25.941C83.0423 25.941 83.757 26.7616 83.757 27.8735C83.757 29.356 82.3276 30.5207 81.2951 31.3945H83.8895V32.4268H79.5215V31.4738Z" fill="black"/>
<path d="M86.9858 25.941C88.8124 25.941 89.3682 27.3441 89.3682 29.1971C89.3682 31.0768 88.8124 32.4798 86.9858 32.4798C85.1591 32.4798 84.6033 31.0768 84.6033 29.1971C84.6033 27.3177 85.1591 25.941 86.9858 25.941ZM86.9858 27.0794C85.9533 27.0794 85.821 28.0852 85.821 29.1971C85.821 30.3354 85.9533 31.3415 86.9858 31.3415C88.0182 31.3415 88.1505 30.3621 88.1505 29.1971C88.1505 28.0852 88.0182 27.0794 86.9858 27.0794Z" fill="black"/>
<path d="M90.9574 27.1852H90.1102V26.0469H92.228V32.4798H90.9574V27.1852Z" fill="black"/>
<path d="M97.7063 26.0469V27.1322H94.8472V28.6413C95.0855 28.3499 95.5621 28.1118 96.1179 28.1118C97.6268 28.1118 98.1299 29.2501 98.1299 30.2296C98.1299 31.5532 97.3621 32.4798 95.9063 32.4798C94.5296 32.4798 93.7355 31.7121 93.6294 30.6532H94.8207C94.9266 31.1032 95.2974 31.4209 95.8796 31.4209C96.5943 31.4209 96.9385 30.9179 96.9385 30.2296C96.9385 29.5149 96.5679 29.1177 95.8796 29.1177C95.3766 29.1177 95.0327 29.409 94.9002 29.806H93.7088V26.0469H97.7063Z" fill="black"/>
<path d="M145.443 0.486938C144.556 0.486938 143.691 0.743948 142.943 1.25797C142.196 1.74862 141.635 2.44956 141.285 3.29068C140.934 4.10844 140.864 5.01965 141.028 5.9075C141.191 6.79535 141.635 7.58974 142.266 8.22059C142.897 8.85143 143.691 9.27199 144.579 9.4589C145.443 9.62245 146.355 9.55236 147.196 9.20189C148.014 8.85143 148.714 8.29068 149.228 7.54302C149.719 6.79535 150 5.93087 150 5.04302C150 3.85143 149.532 2.70656 148.668 1.86544C147.78 0.954228 146.635 0.486938 145.443 0.486938ZM145.443 8.61778C144.719 8.61778 144.042 8.4075 143.434 8.0103C142.85 7.61311 142.383 7.05236 142.102 6.39816C141.822 5.74395 141.752 5.01965 141.892 4.31872C142.032 3.61778 142.383 2.98694 142.873 2.47292C143.387 1.9589 144.018 1.6318 144.719 1.49161C145.42 1.35142 146.144 1.42152 146.799 1.70189C147.453 1.98227 148.014 2.42619 148.411 3.03367C148.808 3.61778 149.018 4.31872 149.018 5.04302C149.018 6.00096 148.644 6.91217 147.967 7.58974C147.313 8.22059 146.401 8.61778 145.443 8.61778Z" fill="black"/>
<path d="M147.243 4.10831C147.243 3.75785 147.103 3.40738 146.846 3.15037C146.589 2.89336 146.238 2.75317 145.888 2.75317H143.621V7.26252H144.532V5.46345H145.187L146.402 7.26252H147.476L146.238 5.39336C146.518 5.32327 146.775 5.13635 146.962 4.90271C147.149 4.69243 147.243 4.38869 147.243 4.10831ZM145.888 4.55224H144.532V3.64102H145.888C146.004 3.64102 146.121 3.68775 146.215 3.78121C146.308 3.87467 146.355 3.99149 146.355 4.10831C146.355 4.22514 146.308 4.34196 146.215 4.43542C146.121 4.52887 146.004 4.55224 145.888 4.55224Z" fill="black"/>
<path d="M10.2804 29.1317H48.5982" stroke="black" stroke-width="2" stroke-miterlimit="10" stroke-linecap="round"/>
<path d="M101.402 29.1317H139.72" stroke="black" stroke-width="2" stroke-miterlimit="10" stroke-linecap="round"/>
</g>
<defs>
<clipPath id="clip0_9830_17529">
<rect width="150" height="32.243" fill="white" transform="translate(0 0.393433)"/>
</clipPath>
</defs>
</svg>
