<svg width="600" height="450" viewBox="0 0 600 450" fill="none" xmlns="http://www.w3.org/2000/svg">
<g filter="url(#filter0_d_4212_16259)">
<rect x="182" y="20" width="233" height="64" rx="32" fill="#1E75BA" shape-rendering="crispEdges"/>
<path d="M220.333 47H223.667V50.3333H220.333V47ZM227 47H230.333V50.3333H227V47ZM235.333 57.8333C233.25 57.8333 231.25 57.5 229.383 56.8833C229.217 56.8333 229.033 56.8 228.867 56.8C228.433 56.8 228.017 56.9667 227.683 57.2833L224.017 60.95C219.3 58.55 215.433 54.7 213.033 49.9833L216.7 46.3C217.167 45.85 217.3 45.2 217.117 44.6167C216.5 42.75 216.167 40.75 216.167 38.6667C216.167 37.75 215.417 37 214.5 37H208.667C207.75 37 207 37.75 207 38.6667C207 54.3167 219.683 67 235.333 67C236.25 67 237 66.25 237 65.3333V59.5C237 58.5833 236.25 57.8333 235.333 57.8333ZM210.383 40.3333H212.883C213 41.8 213.25 43.25 213.65 44.65L211.65 46.6667C210.967 44.65 210.533 42.5333 210.383 40.3333ZM233.667 63.6167C231.467 63.4667 229.333 63.0333 227.333 62.35L229.333 60.35C230.75 60.75 232.2 61 233.667 61.1V63.6167ZM233.667 47H237V50.3333H233.667V47Z" fill="white"/>
<path d="M263.679 49.1847H261.463C261.378 48.7112 261.219 48.2945 260.987 47.9347C260.755 47.5748 260.471 47.2694 260.135 47.0185C259.799 46.7675 259.422 46.5781 259.006 46.4503C258.594 46.3224 258.156 46.2585 257.692 46.2585C256.854 46.2585 256.103 46.4692 255.44 46.8906C254.782 47.312 254.261 47.9299 253.878 48.7443C253.499 49.5587 253.31 50.553 253.31 51.7273C253.31 52.911 253.499 53.91 253.878 54.7244C254.261 55.5388 254.785 56.1544 255.447 56.571C256.11 56.9877 256.856 57.196 257.685 57.196C258.144 57.196 258.58 57.1345 258.991 57.0114C259.408 56.8835 259.785 56.6965 260.121 56.4503C260.457 56.2041 260.741 55.9034 260.973 55.5483C261.21 55.1884 261.373 54.7765 261.463 54.3125L263.679 54.3196C263.561 55.0346 263.331 55.6927 262.99 56.294C262.654 56.8906 262.221 57.4067 261.69 57.8423C261.165 58.2732 260.563 58.607 259.886 58.8438C259.209 59.0805 258.471 59.1989 257.67 59.1989C256.411 59.1989 255.289 58.9006 254.304 58.304C253.319 57.7027 252.543 56.8433 251.974 55.7259C251.411 54.6084 251.129 53.2756 251.129 51.7273C251.129 50.1742 251.413 48.8414 251.982 47.7287C252.55 46.6113 253.326 45.7543 254.311 45.1577C255.296 44.5563 256.416 44.2557 257.67 44.2557C258.442 44.2557 259.162 44.367 259.83 44.5895C260.502 44.8073 261.106 45.1293 261.641 45.5554C262.176 45.9768 262.618 46.4929 262.969 47.1037C263.319 47.7098 263.556 48.4034 263.679 49.1847ZM269.309 59.2415C268.618 59.2415 267.993 59.1136 267.434 58.858C266.876 58.5975 266.433 58.2211 266.106 57.7287C265.784 57.2363 265.623 56.6326 265.623 55.9176C265.623 55.3021 265.742 54.7955 265.978 54.3977C266.215 54 266.535 53.6851 266.937 53.4531C267.34 53.2211 267.789 53.0459 268.287 52.9276C268.784 52.8092 269.29 52.7192 269.806 52.6577C270.46 52.5819 270.99 52.5204 271.397 52.473C271.805 52.4209 272.1 52.3381 272.285 52.2244C272.47 52.1108 272.562 51.9261 272.562 51.6705V51.6207C272.562 51.0005 272.387 50.5199 272.037 50.179C271.691 49.8381 271.175 49.6676 270.488 49.6676C269.773 49.6676 269.21 49.8262 268.798 50.1435C268.391 50.456 268.109 50.804 267.953 51.1875L265.957 50.733C266.194 50.0701 266.539 49.535 266.994 49.1278C267.453 48.7159 267.981 48.4176 268.578 48.233C269.174 48.0436 269.802 47.9489 270.46 47.9489C270.895 47.9489 271.357 48.0009 271.845 48.1051C272.337 48.2045 272.797 48.3892 273.223 48.6591C273.654 48.929 274.006 49.3149 274.281 49.8168C274.556 50.3139 274.693 50.9602 274.693 51.7557V59H272.619V57.5085H272.534C272.396 57.7831 272.19 58.053 271.916 58.3182C271.641 58.5833 271.288 58.8035 270.858 58.9787C270.427 59.1539 269.911 59.2415 269.309 59.2415ZM269.771 57.5369C270.358 57.5369 270.86 57.4209 271.277 57.1889C271.698 56.9569 272.018 56.6539 272.235 56.2798C272.458 55.901 272.569 55.4962 272.569 55.0653V53.6591C272.493 53.7348 272.347 53.8059 272.129 53.8722C271.916 53.9337 271.672 53.9882 271.397 54.0355C271.123 54.0781 270.855 54.1184 270.595 54.1562C270.334 54.1894 270.117 54.2178 269.941 54.2415C269.529 54.2936 269.153 54.3812 268.812 54.5043C268.476 54.6274 268.206 54.8049 268.002 55.0369C267.804 55.2642 267.704 55.5672 267.704 55.946C267.704 56.4716 267.898 56.8693 268.287 57.1392C268.675 57.4044 269.17 57.5369 269.771 57.5369ZM279.645 44.4545V59H277.521V44.4545H279.645ZM284.625 44.4545V59H282.502V44.4545H284.625ZM292.775 59V48.0909H294.814V49.8665H294.949C295.176 49.2652 295.547 48.7964 296.064 48.4602C296.58 48.1193 297.198 47.9489 297.917 47.9489C298.646 47.9489 299.257 48.1193 299.75 48.4602C300.247 48.8011 300.614 49.2699 300.85 49.8665H300.964C301.225 49.2841 301.639 48.8201 302.207 48.4744C302.775 48.1241 303.452 47.9489 304.238 47.9489C305.228 47.9489 306.035 48.259 306.66 48.8793C307.29 49.4995 307.605 50.4347 307.605 51.6847V59H305.481V51.8835C305.481 51.1449 305.28 50.6098 304.877 50.2784C304.475 49.947 303.994 49.7812 303.436 49.7812C302.744 49.7812 302.207 49.9943 301.824 50.4205C301.44 50.8419 301.248 51.384 301.248 52.0469V59H299.132V51.7486C299.132 51.1567 298.947 50.6809 298.578 50.321C298.208 49.9612 297.728 49.7812 297.136 49.7812C296.734 49.7812 296.362 49.8878 296.021 50.1009C295.685 50.3092 295.413 50.6004 295.204 50.9744C295.001 51.3485 294.899 51.7817 294.899 52.2741V59H292.775ZM315.046 59.2202C314.023 59.2202 313.131 58.9858 312.369 58.517C311.606 58.0483 311.014 57.3925 310.593 56.5497C310.172 55.7069 309.961 54.7221 309.961 53.5952C309.961 52.4635 310.172 51.474 310.593 50.6264C311.014 49.7789 311.606 49.1207 312.369 48.652C313.131 48.1832 314.023 47.9489 315.046 47.9489C316.069 47.9489 316.961 48.1832 317.724 48.652C318.486 49.1207 319.078 49.7789 319.499 50.6264C319.921 51.474 320.131 52.4635 320.131 53.5952C320.131 54.7221 319.921 55.7069 319.499 56.5497C319.078 57.3925 318.486 58.0483 317.724 58.517C316.961 58.9858 316.069 59.2202 315.046 59.2202ZM315.053 57.4375C315.716 57.4375 316.265 57.2623 316.701 56.9119C317.137 56.5616 317.459 56.0952 317.667 55.5128C317.88 54.9304 317.987 54.2888 317.987 53.5881C317.987 52.892 317.88 52.2528 317.667 51.6705C317.459 51.0833 317.137 50.6122 316.701 50.2571C316.265 49.902 315.716 49.7244 315.053 49.7244C314.386 49.7244 313.832 49.902 313.391 50.2571C312.956 50.6122 312.631 51.0833 312.418 51.6705C312.21 52.2528 312.106 52.892 312.106 53.5881C312.106 54.2888 312.21 54.9304 312.418 55.5128C312.631 56.0952 312.956 56.5616 313.391 56.9119C313.832 57.2623 314.386 57.4375 315.053 57.4375ZM324.625 52.5227V59H322.502V48.0909H324.54V49.8665H324.675C324.926 49.2888 325.319 48.8248 325.854 48.4744C326.394 48.1241 327.073 47.9489 327.892 47.9489C328.636 47.9489 329.287 48.1051 329.846 48.4176C330.404 48.7254 330.837 49.1847 331.145 49.7955C331.453 50.4062 331.607 51.1615 331.607 52.0611V59H329.483V52.3168C329.483 51.526 329.277 50.9081 328.865 50.4631C328.453 50.0133 327.888 49.7884 327.168 49.7884C326.676 49.7884 326.238 49.8949 325.854 50.108C325.475 50.321 325.175 50.6335 324.952 51.0455C324.734 51.4527 324.625 51.9451 324.625 52.5227ZM334.455 59V48.0909H336.578V59H334.455ZM335.527 46.4077C335.158 46.4077 334.841 46.2846 334.576 46.0384C334.315 45.7874 334.185 45.4891 334.185 45.1435C334.185 44.7931 334.315 44.4948 334.576 44.2486C334.841 43.9976 335.158 43.8722 335.527 43.8722C335.897 43.8722 336.212 43.9976 336.472 44.2486C336.737 44.4948 336.87 44.7931 336.87 45.1435C336.87 45.4891 336.737 45.7874 336.472 46.0384C336.212 46.2846 335.897 46.4077 335.527 46.4077ZM344.528 48.0909V49.7955H338.569V48.0909H344.528ZM340.167 45.4773H342.29V55.7969C342.29 56.2088 342.352 56.5189 342.475 56.7273C342.598 56.9309 342.757 57.0705 342.951 57.1463C343.15 57.2173 343.365 57.2528 343.597 57.2528C343.768 57.2528 343.917 57.241 344.045 57.2173C344.173 57.1937 344.272 57.1747 344.343 57.1605L344.727 58.9148C344.603 58.9621 344.428 59.0095 344.201 59.0568C343.974 59.1089 343.69 59.1373 343.349 59.142C342.79 59.1515 342.269 59.0521 341.786 58.8438C341.303 58.6354 340.913 58.3134 340.614 57.8778C340.316 57.4422 340.167 56.8954 340.167 56.2372V45.4773ZM351.355 59.2202C350.332 59.2202 349.44 58.9858 348.677 58.517C347.915 58.0483 347.323 57.3925 346.902 56.5497C346.48 55.7069 346.27 54.7221 346.27 53.5952C346.27 52.4635 346.48 51.474 346.902 50.6264C347.323 49.7789 347.915 49.1207 348.677 48.652C349.44 48.1832 350.332 47.9489 351.355 47.9489C352.377 47.9489 353.27 48.1832 354.032 48.652C354.795 49.1207 355.386 49.7789 355.808 50.6264C356.229 51.474 356.44 52.4635 356.44 53.5952C356.44 54.7221 356.229 55.7069 355.808 56.5497C355.386 57.3925 354.795 58.0483 354.032 58.517C353.27 58.9858 352.377 59.2202 351.355 59.2202ZM351.362 57.4375C352.025 57.4375 352.574 57.2623 353.01 56.9119C353.445 56.5616 353.767 56.0952 353.975 55.5128C354.189 54.9304 354.295 54.2888 354.295 53.5881C354.295 52.892 354.189 52.2528 353.975 51.6705C353.767 51.0833 353.445 50.6122 353.01 50.2571C352.574 49.902 352.025 49.7244 351.362 49.7244C350.694 49.7244 350.14 49.902 349.7 50.2571C349.264 50.6122 348.94 51.0833 348.727 51.6705C348.519 52.2528 348.414 52.892 348.414 53.5881C348.414 54.2888 348.519 54.9304 348.727 55.5128C348.94 56.0952 349.264 56.5616 349.7 56.9119C350.14 57.2623 350.694 57.4375 351.362 57.4375ZM358.81 59V48.0909H360.863V49.8239H360.977C361.175 49.2367 361.526 48.7751 362.028 48.4389C362.534 48.098 363.107 47.9276 363.746 47.9276C363.879 47.9276 364.035 47.9323 364.215 47.9418C364.4 47.9512 364.544 47.9631 364.648 47.9773V50.0085C364.563 49.9848 364.412 49.9588 364.194 49.9304C363.976 49.8973 363.758 49.8807 363.54 49.8807C363.039 49.8807 362.591 49.9872 362.198 50.2003C361.81 50.4086 361.502 50.6998 361.275 51.0739C361.048 51.4432 360.934 51.8646 360.934 52.3381V59H358.81ZM366.486 59V48.0909H368.61V59H366.486ZM367.559 46.4077C367.189 46.4077 366.872 46.2846 366.607 46.0384C366.346 45.7874 366.216 45.4891 366.216 45.1435C366.216 44.7931 366.346 44.4948 366.607 44.2486C366.872 43.9976 367.189 43.8722 367.559 43.8722C367.928 43.8722 368.243 43.9976 368.503 44.2486C368.768 44.4948 368.901 44.7931 368.901 45.1435C368.901 45.4891 368.768 45.7874 368.503 46.0384C368.243 46.2846 367.928 46.4077 367.559 46.4077ZM373.59 52.5227V59H371.467V48.0909H373.505V49.8665H373.64C373.891 49.2888 374.284 48.8248 374.819 48.4744C375.359 48.1241 376.038 47.9489 376.857 47.9489C377.601 47.9489 378.252 48.1051 378.81 48.4176C379.369 48.7254 379.802 49.1847 380.11 49.7955C380.418 50.4062 380.572 51.1615 380.572 52.0611V59H378.448V52.3168C378.448 51.526 378.242 50.9081 377.83 50.4631C377.418 50.0133 376.853 49.7884 376.133 49.7884C375.64 49.7884 375.202 49.8949 374.819 50.108C374.44 50.321 374.139 50.6335 373.917 51.0455C373.699 51.4527 373.59 51.9451 373.59 52.5227ZM387.994 63.3182C387.127 63.3182 386.381 63.2045 385.756 62.9773C385.136 62.75 384.629 62.4493 384.237 62.0753C383.844 61.7012 383.55 61.2917 383.356 60.8466L385.181 60.0938C385.309 60.3021 385.479 60.5223 385.692 60.7543C385.91 60.991 386.204 61.1922 386.573 61.358C386.947 61.5237 387.428 61.6065 388.015 61.6065C388.82 61.6065 389.485 61.41 390.011 61.017C390.536 60.6288 390.799 60.0085 390.799 59.1562V57.0114H390.664C390.536 57.2434 390.352 57.5014 390.11 57.7855C389.873 58.0696 389.547 58.3158 389.13 58.5241C388.713 58.7325 388.171 58.8366 387.504 58.8366C386.642 58.8366 385.865 58.6354 385.174 58.233C384.487 57.8258 383.943 57.2268 383.54 56.4361C383.143 55.6406 382.944 54.6629 382.944 53.5028C382.944 52.3428 383.14 51.3485 383.533 50.5199C383.931 49.6913 384.476 49.0568 385.167 48.6165C385.858 48.1714 386.642 47.9489 387.518 47.9489C388.195 47.9489 388.742 48.0625 389.158 48.2898C389.575 48.5123 389.899 48.7727 390.131 49.071C390.368 49.3693 390.55 49.6321 390.678 49.8594H390.835V48.0909H392.915V59.2415C392.915 60.179 392.698 60.9484 392.262 61.5497C391.826 62.151 391.237 62.5961 390.494 62.8849C389.755 63.1738 388.922 63.3182 387.994 63.3182ZM387.972 57.0753C388.583 57.0753 389.099 56.9332 389.521 56.6491C389.947 56.3603 390.269 55.9484 390.487 55.4134C390.709 54.8736 390.82 54.2273 390.82 53.4744C390.82 52.7405 390.711 52.0942 390.494 51.5355C390.276 50.9768 389.956 50.5412 389.535 50.2287C389.113 49.9115 388.593 49.7528 387.972 49.7528C387.333 49.7528 386.8 49.9186 386.374 50.25C385.948 50.5767 385.626 51.0218 385.408 51.5852C385.195 52.1487 385.089 52.7784 385.089 53.4744C385.089 54.1894 385.198 54.8168 385.415 55.3565C385.633 55.8963 385.955 56.3177 386.381 56.6207C386.812 56.9238 387.343 57.0753 387.972 57.0753Z" fill="white"/>
</g>
<g filter="url(#filter1_d_4212_16259)">
<rect x="22" y="291" width="166" height="56" rx="28" fill="white" shape-rendering="crispEdges"/>
<path d="M64.6667 330.186C64.28 330.186 63.92 330.106 63.6533 329.986C62.7067 329.493 62.04 328.813 61.3733 326.813C60.6933 324.733 59.4133 323.76 58.1867 322.813C57.1333 322 56.04 321.16 55.0933 319.44C54.3867 318.16 54 316.76 54 315.52C54 311.786 56.9333 308.853 60.6667 308.853C64.4 308.853 67.3333 311.786 67.3333 315.52H70C70 310.28 65.9067 306.186 60.6667 306.186C55.4267 306.186 51.3333 310.28 51.3333 315.52C51.3333 317.2 51.84 319.053 52.76 320.72C53.9733 322.92 55.4 324.026 56.56 324.92C57.64 325.746 58.4133 326.346 58.84 327.653C59.64 330.08 60.6667 331.44 62.48 332.386C63.16 332.693 63.9067 332.853 64.6667 332.853C67.6133 332.853 70 330.466 70 327.52H67.3333C67.3333 328.986 66.1333 330.186 64.6667 330.186ZM52.1867 307.04L50.2933 305.146C47.64 307.8 46 311.466 46 315.52C46 319.573 47.64 323.24 50.2933 325.893L52.1733 324.013C50.0133 321.84 48.6667 318.84 48.6667 315.52C48.6667 312.2 50.0133 309.2 52.1867 307.04ZM57.3333 315.52C57.3333 317.36 58.8267 318.853 60.6667 318.853C62.5067 318.853 64 317.36 64 315.52C64 313.68 62.5067 312.186 60.6667 312.186C58.8267 312.186 57.3333 313.68 57.3333 315.52Z" fill="#1E75BA"/>
<path d="M92.9432 317.148H91.1705C91.1023 316.769 90.9754 316.436 90.7898 316.148C90.6042 315.86 90.3769 315.616 90.108 315.415C89.839 315.214 89.5379 315.062 89.2045 314.96C88.875 314.858 88.5246 314.807 88.1534 314.807C87.483 314.807 86.8826 314.975 86.3523 315.312C85.8258 315.65 85.4091 316.144 85.1023 316.795C84.7992 317.447 84.6477 318.242 84.6477 319.182C84.6477 320.129 84.7992 320.928 85.1023 321.58C85.4091 322.231 85.8277 322.723 86.358 323.057C86.8883 323.39 87.4848 323.557 88.1477 323.557C88.5152 323.557 88.8636 323.508 89.1932 323.409C89.5265 323.307 89.8277 323.157 90.0966 322.96C90.3655 322.763 90.5928 322.523 90.7784 322.239C90.9678 321.951 91.0985 321.621 91.1705 321.25L92.9432 321.256C92.8485 321.828 92.6648 322.354 92.392 322.835C92.1231 323.312 91.7765 323.725 91.3523 324.074C90.9318 324.419 90.4508 324.686 89.9091 324.875C89.3674 325.064 88.7765 325.159 88.1364 325.159C87.1288 325.159 86.2311 324.92 85.4432 324.443C84.6553 323.962 84.0341 323.275 83.5795 322.381C83.1288 321.487 82.9034 320.42 82.9034 319.182C82.9034 317.939 83.1307 316.873 83.5852 315.983C84.0398 315.089 84.661 314.403 85.4489 313.926C86.2367 313.445 87.1326 313.205 88.1364 313.205C88.7538 313.205 89.3295 313.294 89.8636 313.472C90.4015 313.646 90.8845 313.903 91.3125 314.244C91.7405 314.581 92.0947 314.994 92.375 315.483C92.6553 315.968 92.8447 316.523 92.9432 317.148ZM97.4474 325.193C96.8944 325.193 96.3944 325.091 95.9474 324.886C95.5005 324.678 95.1463 324.377 94.8849 323.983C94.6274 323.589 94.4986 323.106 94.4986 322.534C94.4986 322.042 94.5933 321.636 94.7827 321.318C94.9721 321 95.2277 320.748 95.5497 320.562C95.8717 320.377 96.2315 320.237 96.6293 320.142C97.027 320.047 97.4323 319.975 97.8452 319.926C98.3679 319.866 98.7921 319.816 99.1179 319.778C99.4437 319.737 99.6804 319.67 99.8281 319.58C99.9759 319.489 100.05 319.341 100.05 319.136V319.097C100.05 318.6 99.9096 318.216 99.6293 317.943C99.3527 317.67 98.9399 317.534 98.3906 317.534C97.8187 317.534 97.3679 317.661 97.0384 317.915C96.7126 318.165 96.4872 318.443 96.3622 318.75L94.7656 318.386C94.955 317.856 95.2315 317.428 95.5952 317.102C95.9626 316.773 96.3849 316.534 96.8622 316.386C97.3395 316.235 97.8414 316.159 98.3679 316.159C98.7164 316.159 99.0857 316.201 99.4759 316.284C99.8698 316.364 100.237 316.511 100.578 316.727C100.923 316.943 101.205 317.252 101.425 317.653C101.644 318.051 101.754 318.568 101.754 319.205V325H100.095V323.807H100.027C99.9171 324.027 99.7524 324.242 99.5327 324.455C99.313 324.667 99.0308 324.843 98.6861 324.983C98.3414 325.123 97.9285 325.193 97.4474 325.193ZM97.8168 323.83C98.2865 323.83 98.688 323.737 99.0213 323.551C99.3584 323.366 99.6141 323.123 99.7884 322.824C99.9664 322.521 100.055 322.197 100.055 321.852V320.727C99.9948 320.788 99.8774 320.845 99.7031 320.898C99.5327 320.947 99.3376 320.991 99.1179 321.028C98.8982 321.062 98.6842 321.095 98.4759 321.125C98.2675 321.152 98.0933 321.174 97.9531 321.193C97.6236 321.235 97.3224 321.305 97.0497 321.403C96.7808 321.502 96.5649 321.644 96.402 321.83C96.2429 322.011 96.1634 322.254 96.1634 322.557C96.1634 322.977 96.3187 323.295 96.6293 323.511C96.9399 323.723 97.3357 323.83 97.8168 323.83ZM105.716 313.364V325H104.017V313.364H105.716ZM109.7 313.364V325H108.001V313.364H109.7ZM122.703 316.42C122.643 315.883 122.393 315.466 121.953 315.17C121.514 314.871 120.961 314.722 120.294 314.722C119.817 314.722 119.404 314.797 119.055 314.949C118.707 315.097 118.436 315.301 118.243 315.562C118.054 315.82 117.959 316.114 117.959 316.443C117.959 316.72 118.023 316.958 118.152 317.159C118.285 317.36 118.457 317.528 118.669 317.665C118.885 317.797 119.116 317.909 119.362 318C119.608 318.087 119.845 318.159 120.072 318.216L121.209 318.511C121.58 318.602 121.961 318.725 122.351 318.881C122.741 319.036 123.103 319.241 123.436 319.494C123.769 319.748 124.038 320.062 124.243 320.438C124.451 320.812 124.555 321.261 124.555 321.784C124.555 322.443 124.385 323.028 124.044 323.54C123.707 324.051 123.216 324.455 122.572 324.75C121.932 325.045 121.158 325.193 120.249 325.193C119.377 325.193 118.624 325.055 117.987 324.778C117.351 324.502 116.853 324.11 116.493 323.602C116.133 323.091 115.934 322.485 115.896 321.784H117.658C117.692 322.205 117.828 322.555 118.067 322.835C118.309 323.112 118.618 323.318 118.993 323.455C119.372 323.587 119.786 323.653 120.237 323.653C120.733 323.653 121.175 323.576 121.561 323.42C121.951 323.261 122.258 323.042 122.482 322.761C122.705 322.477 122.817 322.146 122.817 321.767C122.817 321.422 122.718 321.14 122.521 320.92C122.328 320.701 122.065 320.519 121.732 320.375C121.402 320.231 121.029 320.104 120.612 319.994L119.237 319.619C118.305 319.366 117.567 318.992 117.021 318.5C116.48 318.008 116.209 317.356 116.209 316.545C116.209 315.875 116.391 315.29 116.754 314.79C117.118 314.29 117.61 313.902 118.232 313.625C118.853 313.345 119.554 313.205 120.334 313.205C121.122 313.205 121.817 313.343 122.419 313.619C123.025 313.896 123.502 314.277 123.851 314.761C124.199 315.242 124.381 315.795 124.396 316.42H122.703ZM126.517 328.273V316.273H128.176V317.688H128.318C128.417 317.506 128.559 317.295 128.744 317.057C128.93 316.818 129.188 316.61 129.517 316.432C129.847 316.25 130.282 316.159 130.824 316.159C131.528 316.159 132.157 316.337 132.71 316.693C133.263 317.049 133.697 317.562 134.011 318.233C134.33 318.903 134.489 319.71 134.489 320.653C134.489 321.597 134.331 322.405 134.017 323.08C133.703 323.75 133.271 324.267 132.722 324.631C132.172 324.991 131.545 325.17 130.841 325.17C130.311 325.17 129.877 325.081 129.54 324.903C129.206 324.725 128.945 324.517 128.756 324.278C128.566 324.04 128.42 323.828 128.318 323.642H128.216V328.273H126.517ZM128.182 320.636C128.182 321.25 128.271 321.788 128.449 322.25C128.627 322.712 128.884 323.074 129.222 323.335C129.559 323.593 129.972 323.722 130.46 323.722C130.968 323.722 131.392 323.587 131.733 323.318C132.074 323.045 132.331 322.676 132.506 322.21C132.684 321.744 132.773 321.22 132.773 320.636C132.773 320.061 132.686 319.544 132.511 319.085C132.341 318.627 132.083 318.265 131.739 318C131.398 317.735 130.972 317.602 130.46 317.602C129.968 317.602 129.551 317.729 129.21 317.983C128.873 318.237 128.617 318.591 128.443 319.045C128.269 319.5 128.182 320.03 128.182 320.636ZM137.169 328.273C136.915 328.273 136.684 328.252 136.476 328.21C136.268 328.172 136.112 328.131 136.01 328.085L136.419 326.693C136.73 326.777 137.006 326.813 137.249 326.801C137.491 326.79 137.705 326.699 137.891 326.528C138.08 326.358 138.247 326.08 138.391 325.693L138.601 325.114L135.408 316.273H137.226L139.436 323.045H139.527L141.737 316.273H143.561L139.964 326.165C139.798 326.619 139.586 327.004 139.328 327.318C139.071 327.636 138.764 327.875 138.408 328.034C138.052 328.193 137.639 328.273 137.169 328.273ZM145.158 325V316.273H146.857V325H145.158ZM146.016 314.926C145.72 314.926 145.466 314.828 145.254 314.631C145.046 314.43 144.942 314.191 144.942 313.915C144.942 313.634 145.046 313.396 145.254 313.199C145.466 312.998 145.72 312.898 146.016 312.898C146.311 312.898 146.563 312.998 146.771 313.199C146.983 313.396 147.089 313.634 147.089 313.915C147.089 314.191 146.983 314.43 146.771 314.631C146.563 314.828 146.311 314.926 146.016 314.926ZM150.841 319.818V325H149.142V316.273H150.773V317.693H150.881C151.081 317.231 151.396 316.86 151.824 316.58C152.256 316.299 152.799 316.159 153.455 316.159C154.049 316.159 154.57 316.284 155.017 316.534C155.464 316.78 155.811 317.148 156.057 317.636C156.303 318.125 156.426 318.729 156.426 319.449V325H154.727V319.653C154.727 319.021 154.563 318.527 154.233 318.17C153.903 317.811 153.451 317.631 152.875 317.631C152.481 317.631 152.131 317.716 151.824 317.886C151.521 318.057 151.28 318.307 151.102 318.636C150.928 318.962 150.841 319.356 150.841 319.818ZM162.364 328.455C161.67 328.455 161.074 328.364 160.574 328.182C160.078 328 159.672 327.759 159.358 327.46C159.044 327.161 158.809 326.833 158.653 326.477L160.114 325.875C160.216 326.042 160.352 326.218 160.523 326.403C160.697 326.593 160.932 326.754 161.227 326.886C161.527 327.019 161.911 327.085 162.381 327.085C163.025 327.085 163.557 326.928 163.977 326.614C164.398 326.303 164.608 325.807 164.608 325.125V323.409H164.5C164.398 323.595 164.25 323.801 164.057 324.028C163.867 324.256 163.606 324.453 163.273 324.619C162.939 324.786 162.506 324.869 161.972 324.869C161.282 324.869 160.661 324.708 160.108 324.386C159.559 324.061 159.123 323.581 158.801 322.949C158.483 322.312 158.324 321.53 158.324 320.602C158.324 319.674 158.481 318.879 158.795 318.216C159.114 317.553 159.549 317.045 160.102 316.693C160.655 316.337 161.282 316.159 161.983 316.159C162.525 316.159 162.962 316.25 163.295 316.432C163.629 316.61 163.888 316.818 164.074 317.057C164.263 317.295 164.409 317.506 164.511 317.688H164.636V316.273H166.301V325.193C166.301 325.943 166.127 326.559 165.778 327.04C165.43 327.521 164.958 327.877 164.364 328.108C163.773 328.339 163.106 328.455 162.364 328.455ZM162.347 323.46C162.835 323.46 163.248 323.347 163.585 323.119C163.926 322.888 164.184 322.559 164.358 322.131C164.536 321.699 164.625 321.182 164.625 320.58C164.625 319.992 164.538 319.475 164.364 319.028C164.189 318.581 163.934 318.233 163.597 317.983C163.259 317.729 162.843 317.602 162.347 317.602C161.835 317.602 161.409 317.735 161.068 318C160.727 318.261 160.47 318.617 160.295 319.068C160.125 319.519 160.04 320.023 160.04 320.58C160.04 321.152 160.127 321.653 160.301 322.085C160.475 322.517 160.733 322.854 161.074 323.097C161.419 323.339 161.843 323.46 162.347 323.46Z" fill="#3F4346"/>
</g>
<g filter="url(#filter2_d_4212_16259)">
<rect x="406" y="291" width="172" height="56" rx="28" fill="white" shape-rendering="crispEdges"/>
<path d="M454 319.293C454 311.973 448.32 307 442 307C435.747 307 430 311.867 430 319.373C429.2 319.827 428.667 320.68 428.667 321.667V324.333C428.667 325.8 429.867 327 431.333 327H432.667V318.867C432.667 313.707 436.84 309.533 442 309.533C447.16 309.533 451.333 313.707 451.333 318.867V328.333H440.667V331H451.333C452.8 331 454 329.8 454 328.333V326.707C454.787 326.293 455.333 325.48 455.333 324.52V321.453C455.333 320.52 454.787 319.707 454 319.293Z" fill="#1E75BA"/>
<path d="M438 321.667C438.736 321.667 439.333 321.07 439.333 320.333C439.333 319.597 438.736 319 438 319C437.264 319 436.667 319.597 436.667 320.333C436.667 321.07 437.264 321.667 438 321.667Z" fill="#1E75BA"/>
<path d="M446 321.667C446.736 321.667 447.333 321.07 447.333 320.333C447.333 319.597 446.736 319 446 319C445.264 319 444.667 319.597 444.667 320.333C444.667 321.07 445.264 321.667 446 321.667Z" fill="#1E75BA"/>
<path d="M450 317.707C449.36 313.907 446.053 311 442.067 311C438.027 311 433.68 314.347 434.027 319.6C437.32 318.253 439.8 315.32 440.507 311.747C442.253 315.253 445.84 317.667 450 317.707Z" fill="#1E75BA"/>
<path d="M476.943 317.148H475.17C475.102 316.769 474.975 316.436 474.79 316.148C474.604 315.86 474.377 315.616 474.108 315.415C473.839 315.214 473.538 315.062 473.205 314.96C472.875 314.858 472.525 314.807 472.153 314.807C471.483 314.807 470.883 314.975 470.352 315.312C469.826 315.65 469.409 316.144 469.102 316.795C468.799 317.447 468.648 318.242 468.648 319.182C468.648 320.129 468.799 320.928 469.102 321.58C469.409 322.231 469.828 322.723 470.358 323.057C470.888 323.39 471.485 323.557 472.148 323.557C472.515 323.557 472.864 323.508 473.193 323.409C473.527 323.307 473.828 323.157 474.097 322.96C474.366 322.763 474.593 322.523 474.778 322.239C474.968 321.951 475.098 321.621 475.17 321.25L476.943 321.256C476.848 321.828 476.665 322.354 476.392 322.835C476.123 323.312 475.777 323.725 475.352 324.074C474.932 324.419 474.451 324.686 473.909 324.875C473.367 325.064 472.777 325.159 472.136 325.159C471.129 325.159 470.231 324.92 469.443 324.443C468.655 323.962 468.034 323.275 467.58 322.381C467.129 321.487 466.903 320.42 466.903 319.182C466.903 317.939 467.131 316.873 467.585 315.983C468.04 315.089 468.661 314.403 469.449 313.926C470.237 313.445 471.133 313.205 472.136 313.205C472.754 313.205 473.33 313.294 473.864 313.472C474.402 313.646 474.884 313.903 475.312 314.244C475.741 314.581 476.095 314.994 476.375 315.483C476.655 315.968 476.845 316.523 476.943 317.148ZM481.447 325.193C480.894 325.193 480.394 325.091 479.947 324.886C479.5 324.678 479.146 324.377 478.885 323.983C478.627 323.589 478.499 323.106 478.499 322.534C478.499 322.042 478.593 321.636 478.783 321.318C478.972 321 479.228 320.748 479.55 320.562C479.872 320.377 480.232 320.237 480.629 320.142C481.027 320.047 481.432 319.975 481.845 319.926C482.368 319.866 482.792 319.816 483.118 319.778C483.444 319.737 483.68 319.67 483.828 319.58C483.976 319.489 484.05 319.341 484.05 319.136V319.097C484.05 318.6 483.91 318.216 483.629 317.943C483.353 317.67 482.94 317.534 482.391 317.534C481.819 317.534 481.368 317.661 481.038 317.915C480.713 318.165 480.487 318.443 480.362 318.75L478.766 318.386C478.955 317.856 479.232 317.428 479.595 317.102C479.963 316.773 480.385 316.534 480.862 316.386C481.339 316.235 481.841 316.159 482.368 316.159C482.716 316.159 483.086 316.201 483.476 316.284C483.87 316.364 484.237 316.511 484.578 316.727C484.923 316.943 485.205 317.252 485.425 317.653C485.644 318.051 485.754 318.568 485.754 319.205V325H484.095V323.807H484.027C483.917 324.027 483.752 324.242 483.533 324.455C483.313 324.667 483.031 324.843 482.686 324.983C482.341 325.123 481.929 325.193 481.447 325.193ZM481.817 323.83C482.286 323.83 482.688 323.737 483.021 323.551C483.358 323.366 483.614 323.123 483.788 322.824C483.966 322.521 484.055 322.197 484.055 321.852V320.727C483.995 320.788 483.877 320.845 483.703 320.898C483.533 320.947 483.338 320.991 483.118 321.028C482.898 321.062 482.684 321.095 482.476 321.125C482.268 321.152 482.093 321.174 481.953 321.193C481.624 321.235 481.322 321.305 481.05 321.403C480.781 321.502 480.565 321.644 480.402 321.83C480.243 322.011 480.163 322.254 480.163 322.557C480.163 322.977 480.319 323.295 480.629 323.511C480.94 323.723 481.336 323.83 481.817 323.83ZM489.716 313.364V325H488.017V313.364H489.716ZM493.7 313.364V325H492.001V313.364H493.7ZM500.357 325V313.364H504.618C505.444 313.364 506.127 313.5 506.669 313.773C507.211 314.042 507.616 314.407 507.885 314.869C508.154 315.328 508.288 315.845 508.288 316.42C508.288 316.905 508.199 317.314 508.021 317.648C507.843 317.977 507.605 318.242 507.305 318.443C507.01 318.64 506.684 318.784 506.328 318.875V318.989C506.714 319.008 507.091 319.133 507.459 319.364C507.83 319.591 508.137 319.915 508.379 320.335C508.622 320.756 508.743 321.267 508.743 321.869C508.743 322.464 508.603 322.998 508.322 323.472C508.046 323.941 507.618 324.314 507.038 324.591C506.459 324.864 505.718 325 504.817 325H500.357ZM502.112 323.494H504.646C505.487 323.494 506.089 323.331 506.453 323.006C506.817 322.68 506.999 322.273 506.999 321.784C506.999 321.417 506.906 321.08 506.72 320.773C506.535 320.466 506.269 320.222 505.925 320.04C505.584 319.858 505.179 319.767 504.709 319.767H502.112V323.494ZM502.112 318.398H504.464C504.858 318.398 505.213 318.322 505.527 318.17C505.845 318.019 506.097 317.807 506.283 317.534C506.472 317.258 506.567 316.932 506.567 316.557C506.567 316.076 506.398 315.672 506.061 315.347C505.724 315.021 505.207 314.858 504.51 314.858H502.112V318.398ZM513.229 325.193C512.676 325.193 512.176 325.091 511.729 324.886C511.282 324.678 510.928 324.377 510.666 323.983C510.409 323.589 510.28 323.106 510.28 322.534C510.28 322.042 510.375 321.636 510.564 321.318C510.753 321 511.009 320.748 511.331 320.562C511.653 320.377 512.013 320.237 512.411 320.142C512.808 320.047 513.214 319.975 513.626 319.926C514.149 319.866 514.573 319.816 514.899 319.778C515.225 319.737 515.462 319.67 515.609 319.58C515.757 319.489 515.831 319.341 515.831 319.136V319.097C515.831 318.6 515.691 318.216 515.411 317.943C515.134 317.67 514.721 317.534 514.172 317.534C513.6 317.534 513.149 317.661 512.82 317.915C512.494 318.165 512.268 318.443 512.143 318.75L510.547 318.386C510.736 317.856 511.013 317.428 511.376 317.102C511.744 316.773 512.166 316.534 512.643 316.386C513.121 316.235 513.623 316.159 514.149 316.159C514.498 316.159 514.867 316.201 515.257 316.284C515.651 316.364 516.018 316.511 516.359 316.727C516.704 316.943 516.986 317.252 517.206 317.653C517.426 318.051 517.536 318.568 517.536 319.205V325H515.876V323.807H515.808C515.698 324.027 515.534 324.242 515.314 324.455C515.094 324.667 514.812 324.843 514.467 324.983C514.123 325.123 513.71 325.193 513.229 325.193ZM513.598 323.83C514.068 323.83 514.469 323.737 514.803 323.551C515.14 323.366 515.395 323.123 515.57 322.824C515.748 322.521 515.837 322.197 515.837 321.852V320.727C515.776 320.788 515.659 320.845 515.484 320.898C515.314 320.947 515.119 320.991 514.899 321.028C514.679 321.062 514.465 321.095 514.257 321.125C514.049 321.152 513.875 321.174 513.734 321.193C513.405 321.235 513.104 321.305 512.831 321.403C512.562 321.502 512.346 321.644 512.183 321.83C512.024 322.011 511.945 322.254 511.945 322.557C511.945 322.977 512.1 323.295 512.411 323.511C512.721 323.723 513.117 323.83 513.598 323.83ZM519.798 325V316.273H521.44V317.659H521.531C521.69 317.189 521.971 316.82 522.372 316.551C522.777 316.278 523.236 316.142 523.747 316.142C523.853 316.142 523.978 316.146 524.122 316.153C524.27 316.161 524.385 316.17 524.469 316.182V317.807C524.401 317.788 524.279 317.767 524.105 317.744C523.931 317.718 523.757 317.705 523.582 317.705C523.181 317.705 522.823 317.79 522.509 317.96C522.198 318.127 521.952 318.36 521.77 318.659C521.588 318.955 521.497 319.292 521.497 319.67V325H519.798ZM529.286 328.455C528.592 328.455 527.996 328.364 527.496 328.182C527 328 526.594 327.759 526.28 327.46C525.965 327.161 525.731 326.833 525.575 326.477L527.036 325.875C527.138 326.042 527.274 326.218 527.445 326.403C527.619 326.593 527.854 326.754 528.149 326.886C528.448 327.019 528.833 327.085 529.303 327.085C529.946 327.085 530.479 326.928 530.899 326.614C531.32 326.303 531.53 325.807 531.53 325.125V323.409H531.422C531.32 323.595 531.172 323.801 530.979 324.028C530.789 324.256 530.528 324.453 530.195 324.619C529.861 324.786 529.428 324.869 528.893 324.869C528.204 324.869 527.583 324.708 527.03 324.386C526.481 324.061 526.045 323.581 525.723 322.949C525.405 322.312 525.246 321.53 525.246 320.602C525.246 319.674 525.403 318.879 525.717 318.216C526.036 317.553 526.471 317.045 527.024 316.693C527.577 316.337 528.204 316.159 528.905 316.159C529.446 316.159 529.884 316.25 530.217 316.432C530.551 316.61 530.81 316.818 530.996 317.057C531.185 317.295 531.331 317.506 531.433 317.688H531.558V316.273H533.223V325.193C533.223 325.943 533.049 326.559 532.7 327.04C532.352 327.521 531.88 327.877 531.286 328.108C530.695 328.339 530.028 328.455 529.286 328.455ZM529.268 323.46C529.757 323.46 530.17 323.347 530.507 323.119C530.848 322.888 531.106 322.559 531.28 322.131C531.458 321.699 531.547 321.182 531.547 320.58C531.547 319.992 531.46 319.475 531.286 319.028C531.111 318.581 530.856 318.233 530.518 317.983C530.181 317.729 529.765 317.602 529.268 317.602C528.757 317.602 528.331 317.735 527.99 318C527.649 318.261 527.392 318.617 527.217 319.068C527.047 319.519 526.962 320.023 526.962 320.58C526.962 321.152 527.049 321.653 527.223 322.085C527.397 322.517 527.655 322.854 527.996 323.097C528.34 323.339 528.765 323.46 529.268 323.46ZM535.501 325V316.273H537.2V325H535.501ZM536.359 314.926C536.064 314.926 535.81 314.828 535.598 314.631C535.39 314.43 535.286 314.191 535.286 313.915C535.286 313.634 535.39 313.396 535.598 313.199C535.81 312.998 536.064 312.898 536.359 312.898C536.655 312.898 536.907 312.998 537.115 313.199C537.327 313.396 537.433 313.634 537.433 313.915C537.433 314.191 537.327 314.43 537.115 314.631C536.907 314.828 536.655 314.926 536.359 314.926ZM541.185 319.818V325H539.486V316.273H541.116V317.693H541.224C541.425 317.231 541.74 316.86 542.168 316.58C542.599 316.299 543.143 316.159 543.798 316.159C544.393 316.159 544.914 316.284 545.361 316.534C545.808 316.78 546.154 317.148 546.401 317.636C546.647 318.125 546.77 318.729 546.77 319.449V325H545.071V319.653C545.071 319.021 544.906 318.527 544.577 318.17C544.247 317.811 543.795 317.631 543.219 317.631C542.825 317.631 542.474 317.716 542.168 317.886C541.865 318.057 541.624 318.307 541.446 318.636C541.272 318.962 541.185 319.356 541.185 319.818ZM552.707 328.455C552.014 328.455 551.418 328.364 550.918 328.182C550.421 328 550.016 327.759 549.702 327.46C549.387 327.161 549.152 326.833 548.997 326.477L550.457 325.875C550.56 326.042 550.696 326.218 550.866 326.403C551.041 326.593 551.276 326.754 551.571 326.886C551.87 327.019 552.255 327.085 552.724 327.085C553.368 327.085 553.901 326.928 554.321 326.614C554.741 326.303 554.952 325.807 554.952 325.125V323.409H554.844C554.741 323.595 554.594 323.801 554.401 324.028C554.211 324.256 553.95 324.453 553.616 324.619C553.283 324.786 552.849 324.869 552.315 324.869C551.626 324.869 551.005 324.708 550.452 324.386C549.902 324.061 549.467 323.581 549.145 322.949C548.827 322.312 548.668 321.53 548.668 320.602C548.668 319.674 548.825 318.879 549.139 318.216C549.457 317.553 549.893 317.045 550.446 316.693C550.999 316.337 551.626 316.159 552.327 316.159C552.868 316.159 553.306 316.25 553.639 316.432C553.973 316.61 554.232 316.818 554.418 317.057C554.607 317.295 554.753 317.506 554.855 317.688H554.98V316.273H556.645V325.193C556.645 325.943 556.471 326.559 556.122 327.04C555.774 327.521 555.302 327.877 554.707 328.108C554.116 328.339 553.45 328.455 552.707 328.455ZM552.69 323.46C553.179 323.46 553.592 323.347 553.929 323.119C554.27 322.888 554.527 322.559 554.702 322.131C554.88 321.699 554.969 321.182 554.969 320.58C554.969 319.992 554.882 319.475 554.707 319.028C554.533 318.581 554.277 318.233 553.94 317.983C553.603 317.729 553.187 317.602 552.69 317.602C552.179 317.602 551.753 317.735 551.412 318C551.071 318.261 550.813 318.617 550.639 319.068C550.469 319.519 550.384 320.023 550.384 320.58C550.384 321.152 550.471 321.653 550.645 322.085C550.819 322.517 551.077 322.854 551.418 323.097C551.762 323.339 552.187 323.46 552.69 323.46Z" fill="#3F4346"/>
</g>
<g filter="url(#filter3_d_4212_16259)">
<rect x="199" y="374" width="200" height="56" rx="28" fill="white" shape-rendering="crispEdges"/>
<path d="M231.001 404.001C233.947 404.001 236.334 401.614 236.334 398.667C236.334 395.721 233.947 393.334 231.001 393.334C228.054 393.334 225.667 395.721 225.667 398.667C225.667 401.614 228.054 404.001 231.001 404.001ZM231.001 396.001C232.467 396.001 233.667 397.201 233.667 398.667C233.667 400.134 232.467 401.334 231.001 401.334C229.534 401.334 228.334 400.134 228.334 398.667C228.334 397.201 229.534 396.001 231.001 396.001ZM231.001 406.667C227.441 406.667 220.334 408.454 220.334 412.001V414.667H241.667V412.001C241.667 408.454 234.561 406.667 231.001 406.667ZM223.001 412.001C223.294 411.041 227.414 409.334 231.001 409.334C234.601 409.334 238.734 411.054 239.001 412.001H223.001ZM239.107 396.067C240.227 397.641 240.227 399.681 239.107 401.254L241.347 403.507C244.041 400.814 244.041 396.747 241.347 393.814L239.107 396.067ZM245.761 389.334L243.587 391.507C247.281 395.534 247.281 401.587 243.587 405.827L245.761 408.001C250.961 402.814 250.974 394.734 245.761 389.334Z" fill="#1E75BA"/>
<path d="M269.943 400.148H268.17C268.102 399.769 267.975 399.436 267.79 399.148C267.604 398.86 267.377 398.616 267.108 398.415C266.839 398.214 266.538 398.062 266.205 397.96C265.875 397.858 265.525 397.807 265.153 397.807C264.483 397.807 263.883 397.975 263.352 398.312C262.826 398.65 262.409 399.144 262.102 399.795C261.799 400.447 261.648 401.242 261.648 402.182C261.648 403.129 261.799 403.928 262.102 404.58C262.409 405.231 262.828 405.723 263.358 406.057C263.888 406.39 264.485 406.557 265.148 406.557C265.515 406.557 265.864 406.508 266.193 406.409C266.527 406.307 266.828 406.157 267.097 405.96C267.366 405.763 267.593 405.523 267.778 405.239C267.968 404.951 268.098 404.621 268.17 404.25L269.943 404.256C269.848 404.828 269.665 405.354 269.392 405.835C269.123 406.312 268.777 406.725 268.352 407.074C267.932 407.419 267.451 407.686 266.909 407.875C266.367 408.064 265.777 408.159 265.136 408.159C264.129 408.159 263.231 407.92 262.443 407.443C261.655 406.962 261.034 406.275 260.58 405.381C260.129 404.487 259.903 403.42 259.903 402.182C259.903 400.939 260.131 399.873 260.585 398.983C261.04 398.089 261.661 397.403 262.449 396.926C263.237 396.445 264.133 396.205 265.136 396.205C265.754 396.205 266.33 396.294 266.864 396.472C267.402 396.646 267.884 396.903 268.312 397.244C268.741 397.581 269.095 397.994 269.375 398.483C269.655 398.968 269.845 399.523 269.943 400.148ZM274.447 408.193C273.894 408.193 273.394 408.091 272.947 407.886C272.5 407.678 272.146 407.377 271.885 406.983C271.627 406.589 271.499 406.106 271.499 405.534C271.499 405.042 271.593 404.636 271.783 404.318C271.972 404 272.228 403.748 272.55 403.562C272.872 403.377 273.232 403.237 273.629 403.142C274.027 403.047 274.432 402.975 274.845 402.926C275.368 402.866 275.792 402.816 276.118 402.778C276.444 402.737 276.68 402.67 276.828 402.58C276.976 402.489 277.05 402.341 277.05 402.136V402.097C277.05 401.6 276.91 401.216 276.629 400.943C276.353 400.67 275.94 400.534 275.391 400.534C274.819 400.534 274.368 400.661 274.038 400.915C273.713 401.165 273.487 401.443 273.362 401.75L271.766 401.386C271.955 400.856 272.232 400.428 272.595 400.102C272.963 399.773 273.385 399.534 273.862 399.386C274.339 399.235 274.841 399.159 275.368 399.159C275.716 399.159 276.086 399.201 276.476 399.284C276.87 399.364 277.237 399.511 277.578 399.727C277.923 399.943 278.205 400.252 278.425 400.653C278.644 401.051 278.754 401.568 278.754 402.205V408H277.095V406.807H277.027C276.917 407.027 276.752 407.242 276.533 407.455C276.313 407.667 276.031 407.843 275.686 407.983C275.341 408.123 274.929 408.193 274.447 408.193ZM274.817 406.83C275.286 406.83 275.688 406.737 276.021 406.551C276.358 406.366 276.614 406.123 276.788 405.824C276.966 405.521 277.055 405.197 277.055 404.852V403.727C276.995 403.788 276.877 403.845 276.703 403.898C276.533 403.947 276.338 403.991 276.118 404.028C275.898 404.062 275.684 404.095 275.476 404.125C275.268 404.152 275.093 404.174 274.953 404.193C274.624 404.235 274.322 404.305 274.05 404.403C273.781 404.502 273.565 404.644 273.402 404.83C273.243 405.011 273.163 405.254 273.163 405.557C273.163 405.977 273.319 406.295 273.629 406.511C273.94 406.723 274.336 406.83 274.817 406.83ZM282.716 396.364V408H281.017V396.364H282.716ZM286.7 396.364V408H285.001V396.364H286.7ZM295.635 408L292.408 396.364H294.254L296.521 405.375H296.629L298.987 396.364H300.817L303.175 405.381H303.283L305.544 396.364H307.396L304.163 408H302.396L299.947 399.284H299.857L297.408 408H295.635ZM310.56 402.818V408H308.861V396.364H310.537V400.693H310.645C310.849 400.223 311.162 399.85 311.582 399.574C312.003 399.297 312.552 399.159 313.23 399.159C313.829 399.159 314.351 399.282 314.798 399.528C315.249 399.775 315.598 400.142 315.844 400.631C316.094 401.116 316.219 401.722 316.219 402.449V408H314.52V402.653C314.52 402.013 314.355 401.517 314.026 401.165C313.696 400.809 313.238 400.631 312.651 400.631C312.249 400.631 311.889 400.716 311.571 400.886C311.257 401.057 311.009 401.307 310.827 401.636C310.649 401.962 310.56 402.356 310.56 402.818ZM318.486 408V399.273H320.185V408H318.486ZM319.344 397.926C319.048 397.926 318.795 397.828 318.582 397.631C318.374 397.43 318.27 397.191 318.27 396.915C318.27 396.634 318.374 396.396 318.582 396.199C318.795 395.998 319.048 395.898 319.344 395.898C319.639 395.898 319.891 395.998 320.099 396.199C320.312 396.396 320.418 396.634 320.418 396.915C320.418 397.191 320.312 397.43 320.099 397.631C319.891 397.828 319.639 397.926 319.344 397.926ZM329.01 401.403L327.47 401.676C327.406 401.479 327.304 401.292 327.163 401.114C327.027 400.936 326.841 400.79 326.607 400.676C326.372 400.562 326.078 400.506 325.726 400.506C325.245 400.506 324.843 400.614 324.521 400.83C324.199 401.042 324.038 401.316 324.038 401.653C324.038 401.945 324.146 402.18 324.362 402.358C324.578 402.536 324.927 402.682 325.408 402.795L326.794 403.114C327.597 403.299 328.196 403.585 328.589 403.972C328.983 404.358 329.18 404.86 329.18 405.477C329.18 406 329.029 406.466 328.726 406.875C328.427 407.28 328.008 407.598 327.47 407.83C326.936 408.061 326.317 408.176 325.612 408.176C324.635 408.176 323.838 407.968 323.22 407.551C322.603 407.131 322.224 406.534 322.084 405.761L323.726 405.511C323.828 405.939 324.038 406.263 324.357 406.483C324.675 406.699 325.089 406.807 325.601 406.807C326.158 406.807 326.603 406.691 326.936 406.46C327.269 406.225 327.436 405.939 327.436 405.602C327.436 405.33 327.334 405.1 327.129 404.915C326.929 404.729 326.62 404.589 326.203 404.494L324.726 404.17C323.911 403.985 323.309 403.689 322.919 403.284C322.533 402.879 322.339 402.366 322.339 401.744C322.339 401.229 322.483 400.778 322.771 400.392C323.059 400.006 323.457 399.705 323.964 399.489C324.472 399.269 325.054 399.159 325.709 399.159C326.652 399.159 327.394 399.364 327.936 399.773C328.478 400.178 328.836 400.722 329.01 401.403ZM331.048 411.273V399.273H332.707V400.688H332.849C332.948 400.506 333.09 400.295 333.276 400.057C333.461 399.818 333.719 399.61 334.048 399.432C334.378 399.25 334.813 399.159 335.355 399.159C336.06 399.159 336.688 399.337 337.241 399.693C337.795 400.049 338.228 400.562 338.543 401.233C338.861 401.903 339.02 402.71 339.02 403.653C339.02 404.597 338.863 405.405 338.548 406.08C338.234 406.75 337.802 407.267 337.253 407.631C336.704 407.991 336.077 408.17 335.372 408.17C334.842 408.17 334.408 408.081 334.071 407.903C333.738 407.725 333.476 407.517 333.287 407.278C333.098 407.04 332.952 406.828 332.849 406.642H332.747V411.273H331.048ZM332.713 403.636C332.713 404.25 332.802 404.788 332.98 405.25C333.158 405.712 333.416 406.074 333.753 406.335C334.09 406.593 334.503 406.722 334.991 406.722C335.499 406.722 335.923 406.587 336.264 406.318C336.605 406.045 336.863 405.676 337.037 405.21C337.215 404.744 337.304 404.22 337.304 403.636C337.304 403.061 337.217 402.544 337.043 402.085C336.872 401.627 336.615 401.265 336.27 401C335.929 400.735 335.503 400.602 334.991 400.602C334.499 400.602 334.082 400.729 333.741 400.983C333.404 401.237 333.149 401.591 332.974 402.045C332.8 402.5 332.713 403.03 332.713 403.636ZM344.685 408.176C343.825 408.176 343.084 407.992 342.463 407.625C341.846 407.254 341.368 406.733 341.031 406.062C340.698 405.388 340.531 404.598 340.531 403.693C340.531 402.799 340.698 402.011 341.031 401.33C341.368 400.648 341.838 400.116 342.44 399.733C343.046 399.35 343.755 399.159 344.565 399.159C345.058 399.159 345.535 399.241 345.997 399.403C346.459 399.566 346.874 399.822 347.241 400.17C347.609 400.519 347.899 400.972 348.111 401.528C348.323 402.081 348.429 402.754 348.429 403.545V404.148H341.491V402.875H346.764C346.764 402.428 346.673 402.032 346.491 401.688C346.31 401.339 346.054 401.064 345.724 400.864C345.399 400.663 345.016 400.562 344.577 400.562C344.099 400.562 343.683 400.68 343.327 400.915C342.974 401.146 342.702 401.449 342.509 401.824C342.319 402.195 342.224 402.598 342.224 403.034V404.028C342.224 404.612 342.327 405.108 342.531 405.517C342.74 405.926 343.029 406.239 343.401 406.455C343.772 406.667 344.205 406.773 344.702 406.773C345.024 406.773 345.317 406.727 345.582 406.636C345.848 406.542 346.077 406.402 346.27 406.216C346.463 406.03 346.611 405.801 346.713 405.528L348.321 405.818C348.192 406.292 347.961 406.706 347.628 407.062C347.298 407.415 346.884 407.689 346.384 407.886C345.887 408.08 345.321 408.176 344.685 408.176ZM350.314 408V399.273H351.956V400.659H352.047C352.206 400.189 352.486 399.82 352.888 399.551C353.293 399.278 353.751 399.142 354.263 399.142C354.369 399.142 354.494 399.146 354.638 399.153C354.786 399.161 354.901 399.17 354.984 399.182V400.807C354.916 400.788 354.795 400.767 354.621 400.744C354.446 400.718 354.272 400.705 354.098 400.705C353.696 400.705 353.339 400.79 353.024 400.96C352.714 401.127 352.467 401.36 352.286 401.659C352.104 401.955 352.013 402.292 352.013 402.67V408H350.314ZM356.455 408V399.273H358.153V408H356.455ZM357.312 397.926C357.017 397.926 356.763 397.828 356.551 397.631C356.343 397.43 356.239 397.191 356.239 396.915C356.239 396.634 356.343 396.396 356.551 396.199C356.763 395.998 357.017 395.898 357.312 395.898C357.608 395.898 357.86 395.998 358.068 396.199C358.28 396.396 358.386 396.634 358.386 396.915C358.386 397.191 358.28 397.43 358.068 397.631C357.86 397.828 357.608 397.926 357.312 397.926ZM362.138 402.818V408H360.439V399.273H362.07V400.693H362.178C362.378 400.231 362.693 399.86 363.121 399.58C363.553 399.299 364.096 399.159 364.751 399.159C365.346 399.159 365.867 399.284 366.314 399.534C366.761 399.78 367.107 400.148 367.354 400.636C367.6 401.125 367.723 401.729 367.723 402.449V408H366.024V402.653C366.024 402.021 365.859 401.527 365.53 401.17C365.2 400.811 364.748 400.631 364.172 400.631C363.778 400.631 363.428 400.716 363.121 400.886C362.818 401.057 362.577 401.307 362.399 401.636C362.225 401.962 362.138 402.356 362.138 402.818ZM373.661 411.455C372.967 411.455 372.371 411.364 371.871 411.182C371.375 411 370.969 410.759 370.655 410.46C370.34 410.161 370.106 409.833 369.95 409.477L371.411 408.875C371.513 409.042 371.649 409.218 371.82 409.403C371.994 409.593 372.229 409.754 372.524 409.886C372.823 410.019 373.208 410.085 373.678 410.085C374.321 410.085 374.854 409.928 375.274 409.614C375.695 409.303 375.905 408.807 375.905 408.125V406.409H375.797C375.695 406.595 375.547 406.801 375.354 407.028C375.164 407.256 374.903 407.453 374.57 407.619C374.236 407.786 373.803 407.869 373.268 407.869C372.579 407.869 371.958 407.708 371.405 407.386C370.856 407.061 370.42 406.581 370.098 405.949C369.78 405.312 369.621 404.53 369.621 403.602C369.621 402.674 369.778 401.879 370.092 401.216C370.411 400.553 370.846 400.045 371.399 399.693C371.952 399.337 372.579 399.159 373.28 399.159C373.821 399.159 374.259 399.25 374.592 399.432C374.926 399.61 375.185 399.818 375.371 400.057C375.56 400.295 375.706 400.506 375.808 400.688H375.933V399.273H377.598V408.193C377.598 408.943 377.424 409.559 377.075 410.04C376.727 410.521 376.255 410.877 375.661 411.108C375.07 411.339 374.403 411.455 373.661 411.455ZM373.643 406.46C374.132 406.46 374.545 406.347 374.882 406.119C375.223 405.888 375.481 405.559 375.655 405.131C375.833 404.699 375.922 404.182 375.922 403.58C375.922 402.992 375.835 402.475 375.661 402.028C375.486 401.581 375.231 401.233 374.893 400.983C374.556 400.729 374.14 400.602 373.643 400.602C373.132 400.602 372.706 400.735 372.365 401C372.024 401.261 371.767 401.617 371.592 402.068C371.422 402.519 371.337 403.023 371.337 403.58C371.337 404.152 371.424 404.653 371.598 405.085C371.772 405.517 372.03 405.854 372.371 406.097C372.715 406.339 373.14 406.46 373.643 406.46Z" fill="#3F4346"/>
</g>
<path d="M297.793 370.707C298.183 371.098 298.817 371.098 299.207 370.707L305.571 364.343C305.962 363.953 305.962 363.319 305.571 362.929C305.181 362.538 304.547 362.538 304.157 362.929L298.5 368.586L292.843 362.929C292.453 362.538 291.819 362.538 291.429 362.929C291.038 363.319 291.038 363.953 291.429 364.343L297.793 370.707ZM299.5 88C299.5 87.4477 299.052 87 298.5 87C297.948 87 297.5 87.4477 297.5 88H299.5ZM299.5 370V88H297.5V370H299.5Z" fill="#8F9396"/>
<path d="M491.293 287.707C491.683 288.098 492.317 288.098 492.707 287.707L499.071 281.343C499.462 280.953 499.462 280.319 499.071 279.929C498.681 279.538 498.047 279.538 497.657 279.929L492 285.586L486.343 279.929C485.953 279.538 485.319 279.538 484.929 279.929C484.538 280.319 484.538 280.953 484.929 281.343L491.293 287.707ZM299.5 88C299.5 87.4477 299.052 87 298.5 87C297.948 87 297.5 87.4477 297.5 88H299.5ZM493 287V211.5H491V287H493ZM468 186.5H322.5V188.5H468V186.5ZM299.5 163.5V88H297.5V163.5H299.5ZM322.5 186.5C309.797 186.5 299.5 176.203 299.5 163.5H297.5C297.5 177.307 308.693 188.5 322.5 188.5V186.5ZM493 211.5C493 197.693 481.807 186.5 468 186.5V188.5C480.703 188.5 491 198.797 491 211.5H493Z" fill="#8F9396"/>
<path d="M104.293 287.707C104.683 288.098 105.317 288.098 105.707 287.707L112.071 281.343C112.462 280.953 112.462 280.319 112.071 279.929C111.681 279.538 111.047 279.538 110.657 279.929L105 285.586L99.3431 279.929C98.9526 279.538 98.3195 279.538 97.9289 279.929C97.5384 280.319 97.5384 280.953 97.9289 281.343L104.293 287.707ZM299.5 88C299.5 87.4477 299.052 87 298.5 87C297.948 87 297.5 87.4477 297.5 88H299.5ZM106 287V211.5H104V287H106ZM129 188.5H274.5V186.5H129V188.5ZM299.5 163.5V88H297.5V163.5H299.5ZM274.5 188.5C288.307 188.5 299.5 177.307 299.5 163.5H297.5C297.5 176.203 287.203 186.5 274.5 186.5V188.5ZM106 211.5C106 198.797 116.297 188.5 129 188.5V186.5C115.193 186.5 104 197.693 104 211.5H106Z" fill="#8F9396"/>
<g filter="url(#filter4_d_4212_16259)">
<rect x="230" y="118" width="140" height="140" rx="70" fill="#E2F0FF" shape-rendering="crispEdges"/>
<path d="M312 152.293C312 144.973 306.32 140 300 140C293.747 140 288 144.867 288 152.373C287.2 152.827 286.667 153.68 286.667 154.667V157.333C286.667 158.8 287.867 160 289.333 160H290.667V151.867C290.667 146.707 294.84 142.533 300 142.533C305.16 142.533 309.333 146.707 309.333 151.867V161.333H298.667V164H309.333C310.8 164 312 162.8 312 161.333V159.707C312.787 159.293 313.333 158.48 313.333 157.52V154.453C313.333 153.52 312.787 152.707 312 152.293Z" fill="#5D6164"/>
<path d="M296 154.667C296.736 154.667 297.333 154.07 297.333 153.333C297.333 152.597 296.736 152 296 152C295.264 152 294.667 152.597 294.667 153.333C294.667 154.07 295.264 154.667 296 154.667Z" fill="#5D6164"/>
<path d="M304 154.667C304.736 154.667 305.333 154.07 305.333 153.333C305.333 152.597 304.736 152 304 152C303.264 152 302.667 152.597 302.667 153.333C302.667 154.07 303.264 154.667 304 154.667Z" fill="#5D6164"/>
<path d="M308 150.707C307.36 146.907 304.053 144 300.067 144C296.027 144 291.68 147.347 292.027 152.6C295.32 151.253 297.8 148.32 298.507 144.747C300.253 148.253 303.84 150.667 308 150.707Z" fill="#5D6164"/>
<path d="M300.75 168C300.75 167.586 300.414 167.25 300 167.25C299.586 167.25 299.25 167.586 299.25 168H300.75ZM300.75 213V168H299.25V213H300.75Z" fill="#5D6164"/>
<path d="M258.667 209H261.333V211.667H258.667V209ZM264 209H266.667V211.667H264V209ZM270.667 217.667C269 217.667 267.4 217.4 265.907 216.907C265.773 216.867 265.627 216.84 265.493 216.84C265.147 216.84 264.813 216.973 264.547 217.227L261.613 220.16C257.84 218.24 254.747 215.16 252.827 211.387L255.76 208.44C256.133 208.08 256.24 207.56 256.093 207.093C255.6 205.6 255.333 204 255.333 202.333C255.333 201.6 254.733 201 254 201H249.333C248.6 201 248 201.6 248 202.333C248 214.853 258.147 225 270.667 225C271.4 225 272 224.4 272 223.667V219C272 218.267 271.4 217.667 270.667 217.667ZM250.707 203.667H252.707C252.8 204.84 253 206 253.32 207.12L251.72 208.733C251.173 207.12 250.827 205.427 250.707 203.667ZM269.333 222.293C267.573 222.173 265.867 221.827 264.267 221.28L265.867 219.68C267 220 268.16 220.2 269.333 220.28V222.293ZM269.333 209H272V211.667H269.333V209Z" fill="#5D6164"/>
<path d="M279.47 212.47C279.177 212.763 279.177 213.237 279.47 213.53L284.243 218.303C284.536 218.596 285.01 218.596 285.303 218.303C285.596 218.01 285.596 217.536 285.303 217.243L281.061 213L285.303 208.757C285.596 208.464 285.596 207.99 285.303 207.697C285.01 207.404 284.536 207.404 284.243 207.697L279.47 212.47ZM320.53 213.53C320.823 213.237 320.823 212.763 320.53 212.47L315.757 207.697C315.464 207.404 314.99 207.404 314.697 207.697C314.404 207.99 314.404 208.464 314.697 208.757L318.939 213L314.697 217.243C314.404 217.536 314.404 218.01 314.697 218.303C314.99 218.596 315.464 218.596 315.757 218.303L320.53 213.53ZM280 213.75H320V212.25H280V213.75Z" fill="#5D6164"/>
<path d="M341.333 209H338.667V211.667H341.333V209ZM336 209H333.333V211.667H336V209ZM329.333 217.667C331 217.667 332.6 217.4 334.093 216.907C334.227 216.867 334.373 216.84 334.507 216.84C334.853 216.84 335.187 216.973 335.453 217.227L338.387 220.16C342.16 218.24 345.253 215.16 347.173 211.387L344.24 208.44C343.867 208.08 343.76 207.56 343.907 207.093C344.4 205.6 344.667 204 344.667 202.333C344.667 201.6 345.267 201 346 201H350.667C351.4 201 352 201.6 352 202.333C352 214.853 341.853 225 329.333 225C328.6 225 328 224.4 328 223.667V219C328 218.267 328.6 217.667 329.333 217.667ZM349.293 203.667H347.293C347.2 204.84 347 206 346.68 207.12L348.28 208.733C348.827 207.12 349.173 205.427 349.293 203.667ZM330.667 222.293C332.427 222.173 334.133 221.827 335.733 221.28L334.133 219.68C333 220 331.84 220.2 330.667 220.28V222.293ZM330.667 209H328V211.667H330.667V209Z" fill="#5D6164"/>
</g>
<defs>
<filter id="filter0_d_4212_16259" x="178" y="20" width="241" height="72" filterUnits="userSpaceOnUse" color-interpolation-filters="sRGB">
<feFlood flood-opacity="0" result="BackgroundImageFix"/>
<feColorMatrix in="SourceAlpha" type="matrix" values="0 0 0 0 0 0 0 0 0 0 0 0 0 0 0 0 0 0 127 0" result="hardAlpha"/>
<feOffset dy="4"/>
<feGaussianBlur stdDeviation="2"/>
<feComposite in2="hardAlpha" operator="out"/>
<feColorMatrix type="matrix" values="0 0 0 0 0 0 0 0 0 0 0 0 0 0 0 0 0 0 0.25 0"/>
<feBlend mode="normal" in2="BackgroundImageFix" result="effect1_dropShadow_4212_16259"/>
<feBlend mode="normal" in="SourceGraphic" in2="effect1_dropShadow_4212_16259" result="shape"/>
</filter>
<filter id="filter1_d_4212_16259" x="18" y="291" width="174" height="64" filterUnits="userSpaceOnUse" color-interpolation-filters="sRGB">
<feFlood flood-opacity="0" result="BackgroundImageFix"/>
<feColorMatrix in="SourceAlpha" type="matrix" values="0 0 0 0 0 0 0 0 0 0 0 0 0 0 0 0 0 0 127 0" result="hardAlpha"/>
<feOffset dy="4"/>
<feGaussianBlur stdDeviation="2"/>
<feComposite in2="hardAlpha" operator="out"/>
<feColorMatrix type="matrix" values="0 0 0 0 0 0 0 0 0 0 0 0 0 0 0 0 0 0 0.25 0"/>
<feBlend mode="normal" in2="BackgroundImageFix" result="effect1_dropShadow_4212_16259"/>
<feBlend mode="normal" in="SourceGraphic" in2="effect1_dropShadow_4212_16259" result="shape"/>
</filter>
<filter id="filter2_d_4212_16259" x="402" y="291" width="180" height="64" filterUnits="userSpaceOnUse" color-interpolation-filters="sRGB">
<feFlood flood-opacity="0" result="BackgroundImageFix"/>
<feColorMatrix in="SourceAlpha" type="matrix" values="0 0 0 0 0 0 0 0 0 0 0 0 0 0 0 0 0 0 127 0" result="hardAlpha"/>
<feOffset dy="4"/>
<feGaussianBlur stdDeviation="2"/>
<feComposite in2="hardAlpha" operator="out"/>
<feColorMatrix type="matrix" values="0 0 0 0 0 0 0 0 0 0 0 0 0 0 0 0 0 0 0.25 0"/>
<feBlend mode="normal" in2="BackgroundImageFix" result="effect1_dropShadow_4212_16259"/>
<feBlend mode="normal" in="SourceGraphic" in2="effect1_dropShadow_4212_16259" result="shape"/>
</filter>
<filter id="filter3_d_4212_16259" x="195" y="374" width="208" height="64" filterUnits="userSpaceOnUse" color-interpolation-filters="sRGB">
<feFlood flood-opacity="0" result="BackgroundImageFix"/>
<feColorMatrix in="SourceAlpha" type="matrix" values="0 0 0 0 0 0 0 0 0 0 0 0 0 0 0 0 0 0 127 0" result="hardAlpha"/>
<feOffset dy="4"/>
<feGaussianBlur stdDeviation="2"/>
<feComposite in2="hardAlpha" operator="out"/>
<feColorMatrix type="matrix" values="0 0 0 0 0 0 0 0 0 0 0 0 0 0 0 0 0 0 0.25 0"/>
<feBlend mode="normal" in2="BackgroundImageFix" result="effect1_dropShadow_4212_16259"/>
<feBlend mode="normal" in="SourceGraphic" in2="effect1_dropShadow_4212_16259" result="shape"/>
</filter>
<filter id="filter4_d_4212_16259" x="222" y="114" width="156" height="156" filterUnits="userSpaceOnUse" color-interpolation-filters="sRGB">
<feFlood flood-opacity="0" result="BackgroundImageFix"/>
<feColorMatrix in="SourceAlpha" type="matrix" values="0 0 0 0 0 0 0 0 0 0 0 0 0 0 0 0 0 0 127 0" result="hardAlpha"/>
<feOffset dy="4"/>
<feGaussianBlur stdDeviation="4"/>
<feComposite in2="hardAlpha" operator="out"/>
<feColorMatrix type="matrix" values="0 0 0 0 0 0 0 0 0 0 0 0 0 0 0 0 0 0 0.2 0"/>
<feBlend mode="normal" in2="BackgroundImageFix" result="effect1_dropShadow_4212_16259"/>
<feBlend mode="normal" in="SourceGraphic" in2="effect1_dropShadow_4212_16259" result="shape"/>
</filter>
</defs>
</svg>
