<svg width="600" height="450" viewBox="0 0 600 450" fill="none" xmlns="http://www.w3.org/2000/svg">
<path fill-rule="evenodd" clip-rule="evenodd" d="M146.719 190.39C158.224 149.24 180.296 110.872 215.77 88.7753C254.023 64.9473 302.134 50.3453 341.599 68.9976C379.229 86.783 384.296 137.135 401.272 176.449C417.789 214.7 446.708 249.936 437.765 291.706C427.999 337.316 396.389 380.121 354.201 396.29C314.485 411.511 275.048 386.134 237.33 368.525C204.754 353.316 172.415 336.475 155.702 303.618C138.21 269.231 136.024 228.642 146.719 190.39Z" fill="#E2F0FF"/>
<g filter="url(#filter0_d_6449_35254)">
<path d="M128 168.305C128 163.886 131.582 160.305 136 160.305H449C453.418 160.305 457 163.886 457 168.305V216.305C457 220.723 453.418 224.305 449 224.305H136C131.582 224.305 128 220.723 128 216.305V168.305Z" fill="white"/>
<rect x="144" y="172.305" width="40" height="40" rx="20" fill="white"/>
<rect x="145.25" y="173.555" width="37.5" height="37.5" rx="18.75" fill="#4CD9D9" fill-opacity="0.16"/>
<rect x="145.25" y="173.555" width="37.5" height="37.5" rx="18.75" stroke="white" stroke-width="2.5"/>
<path d="M154.644 197.805V186.168H159.008C159.902 186.168 160.652 186.335 161.258 186.668C161.867 187.002 162.328 187.46 162.638 188.043C162.953 188.623 163.11 189.282 163.11 190.021C163.11 190.767 162.953 191.43 162.638 192.009C162.324 192.589 161.86 193.045 161.246 193.379C160.633 193.708 159.877 193.873 158.979 193.873H156.087V192.14H158.695C159.218 192.14 159.646 192.049 159.979 191.867C160.313 191.685 160.559 191.435 160.718 191.117C160.881 190.799 160.962 190.433 160.962 190.021C160.962 189.608 160.881 189.244 160.718 188.93C160.559 188.615 160.311 188.371 159.974 188.197C159.64 188.019 159.21 187.93 158.684 187.93H156.752V197.805H154.644ZM171.585 189.367C171.532 188.871 171.308 188.485 170.914 188.208C170.524 187.932 170.017 187.793 169.392 187.793C168.952 187.793 168.575 187.86 168.261 187.992C167.946 188.125 167.706 188.305 167.539 188.532C167.373 188.759 167.287 189.019 167.284 189.31C167.284 189.553 167.339 189.763 167.448 189.941C167.562 190.119 167.715 190.271 167.909 190.396C168.102 190.517 168.316 190.619 168.551 190.702C168.785 190.786 169.022 190.856 169.261 190.913L170.352 191.185C170.791 191.288 171.214 191.426 171.619 191.6C172.028 191.774 172.393 191.994 172.715 192.259C173.041 192.524 173.299 192.844 173.488 193.219C173.678 193.594 173.772 194.034 173.772 194.538C173.772 195.219 173.598 195.82 173.249 196.339C172.901 196.854 172.397 197.257 171.738 197.549C171.083 197.837 170.289 197.981 169.357 197.981C168.452 197.981 167.666 197.841 166.999 197.56C166.337 197.28 165.818 196.871 165.443 196.333C165.071 195.795 164.871 195.14 164.84 194.367H166.914C166.945 194.772 167.07 195.11 167.289 195.379C167.509 195.647 167.795 195.848 168.147 195.981C168.503 196.113 168.901 196.18 169.34 196.18C169.799 196.18 170.2 196.112 170.545 195.975C170.893 195.835 171.166 195.642 171.363 195.396C171.56 195.146 171.66 194.854 171.664 194.521C171.66 194.218 171.571 193.968 171.397 193.771C171.223 193.57 170.979 193.403 170.664 193.271C170.354 193.134 169.99 193.013 169.573 192.907L168.249 192.566C167.291 192.32 166.534 191.947 165.977 191.447C165.424 190.943 165.147 190.274 165.147 189.441C165.147 188.755 165.333 188.155 165.704 187.64C166.079 187.125 166.589 186.725 167.232 186.441C167.876 186.153 168.606 186.009 169.42 186.009C170.246 186.009 170.969 186.153 171.59 186.441C172.215 186.725 172.706 187.121 173.062 187.629C173.418 188.132 173.602 188.712 173.613 189.367H171.585Z" fill="#212528"/>
<circle cx="177.5" cy="205.305" r="4" fill="#29A653"/>
<circle cx="177.5" cy="205.305" r="4" stroke="white"/>
<path d="M195.75 207.924C195.108 207.924 194.561 207.749 194.109 207.4C193.658 207.048 193.313 206.538 193.074 205.87C192.835 205.2 192.716 204.39 192.716 203.441C192.716 202.498 192.835 201.692 193.074 201.025C193.315 200.354 193.662 199.843 194.114 199.491C194.568 199.136 195.114 198.958 195.75 198.958C196.386 198.958 196.93 199.136 197.382 199.491C197.837 199.843 198.183 200.354 198.422 201.025C198.663 201.692 198.784 202.498 198.784 203.441C198.784 204.39 198.665 205.2 198.426 205.87C198.188 206.538 197.842 207.048 197.391 207.4C196.939 207.749 196.392 207.924 195.75 207.924ZM195.75 206.987C196.386 206.987 196.881 206.68 197.233 206.066C197.585 205.452 197.761 204.577 197.761 203.441C197.761 202.685 197.68 202.042 197.518 201.511C197.359 200.979 197.129 200.575 196.828 200.296C196.53 200.018 196.17 199.879 195.75 199.879C195.119 199.879 194.626 200.19 194.271 200.812C193.916 201.431 193.739 202.308 193.739 203.441C193.739 204.197 193.818 204.839 193.977 205.367C194.136 205.896 194.365 206.298 194.663 206.573C194.964 206.849 195.327 206.987 195.75 206.987ZM203.25 207.924C202.608 207.924 202.061 207.749 201.609 207.4C201.158 207.048 200.813 206.538 200.574 205.87C200.335 205.2 200.216 204.39 200.216 203.441C200.216 202.498 200.335 201.692 200.574 201.025C200.815 200.354 201.162 199.843 201.614 199.491C202.068 199.136 202.614 198.958 203.25 198.958C203.886 198.958 204.43 199.136 204.882 199.491C205.337 199.843 205.683 200.354 205.922 201.025C206.163 201.692 206.284 202.498 206.284 203.441C206.284 204.39 206.165 205.2 205.926 205.87C205.688 206.538 205.342 207.048 204.891 207.4C204.439 207.749 203.892 207.924 203.25 207.924ZM203.25 206.987C203.886 206.987 204.381 206.68 204.733 206.066C205.085 205.452 205.261 204.577 205.261 203.441C205.261 202.685 205.18 202.042 205.018 201.511C204.859 200.979 204.629 200.575 204.328 200.296C204.03 200.018 203.67 199.879 203.25 199.879C202.619 199.879 202.126 200.19 201.771 200.812C201.416 201.431 201.239 202.308 201.239 203.441C201.239 204.197 201.318 204.839 201.477 205.367C201.636 205.896 201.865 206.298 202.163 206.573C202.464 206.849 202.827 206.987 203.25 206.987ZM210.699 207.924C210.114 207.924 209.597 207.82 209.148 207.613C208.702 207.403 208.354 207.114 208.104 206.748C207.854 206.379 207.73 205.958 207.733 205.487C207.73 205.117 207.803 204.776 207.95 204.464C208.098 204.148 208.3 203.886 208.555 203.675C208.814 203.462 209.102 203.327 209.42 203.271V203.219C209.003 203.112 208.67 202.877 208.423 202.516C208.176 202.153 208.054 201.739 208.057 201.276C208.054 200.833 208.166 200.437 208.393 200.087C208.621 199.738 208.933 199.462 209.331 199.261C209.732 199.059 210.188 198.958 210.699 198.958C211.205 198.958 211.656 199.059 212.054 199.261C212.452 199.462 212.764 199.738 212.991 200.087C213.222 200.437 213.338 200.833 213.341 201.276C213.338 201.739 213.212 202.153 212.962 202.516C212.714 202.877 212.386 203.112 211.977 203.219V203.271C212.293 203.327 212.577 203.462 212.83 203.675C213.082 203.886 213.284 204.148 213.435 204.464C213.585 204.776 213.662 205.117 213.665 205.487C213.662 205.958 213.534 206.379 213.281 206.748C213.031 207.114 212.683 207.403 212.237 207.613C211.794 207.82 211.281 207.924 210.699 207.924ZM210.699 206.987C211.094 206.987 211.435 206.923 211.722 206.795C212.009 206.667 212.23 206.487 212.386 206.254C212.543 206.021 212.622 205.748 212.625 205.435C212.622 205.106 212.537 204.815 212.369 204.562C212.202 204.309 211.973 204.11 211.683 203.965C211.396 203.82 211.068 203.748 210.699 203.748C210.327 203.748 209.994 203.82 209.702 203.965C209.412 204.11 209.183 204.309 209.016 204.562C208.851 204.815 208.77 205.106 208.773 205.435C208.77 205.748 208.845 206.021 208.999 206.254C209.155 206.487 209.378 206.667 209.668 206.795C209.957 206.923 210.301 206.987 210.699 206.987ZM210.699 202.844C211.011 202.844 211.288 202.782 211.53 202.657C211.774 202.532 211.966 202.357 212.105 202.133C212.244 201.908 212.315 201.646 212.318 201.344C212.315 201.049 212.246 200.792 212.109 200.573C211.973 200.352 211.784 200.181 211.543 200.062C211.301 199.94 211.02 199.879 210.699 199.879C210.372 199.879 210.087 199.94 209.842 200.062C209.598 200.181 209.409 200.352 209.276 200.573C209.142 200.792 209.077 201.049 209.08 201.344C209.077 201.646 209.143 201.908 209.28 202.133C209.419 202.357 209.611 202.532 209.855 202.657C210.099 202.782 210.381 202.844 210.699 202.844Z" fill="#5D6164"/>
<path d="M193.148 189.805V178.168H197.511C198.405 178.168 199.155 178.335 199.761 178.668C200.371 179.002 200.831 179.46 201.142 180.043C201.456 180.623 201.614 181.282 201.614 182.021C201.614 182.767 201.456 183.43 201.142 184.009C200.828 184.589 200.364 185.045 199.75 185.379C199.136 185.708 198.381 185.873 197.483 185.873H194.591V184.14H197.199C197.722 184.14 198.15 184.049 198.483 183.867C198.816 183.685 199.063 183.435 199.222 183.117C199.384 182.799 199.466 182.433 199.466 182.021C199.466 181.608 199.384 181.244 199.222 180.93C199.063 180.615 198.814 180.371 198.477 180.197C198.144 180.019 197.714 179.93 197.188 179.93H195.256V189.805H193.148ZM203.354 189.805V181.077H205.411V189.805H203.354ZM204.388 179.839C204.062 179.839 203.782 179.731 203.547 179.515C203.312 179.295 203.195 179.032 203.195 178.725C203.195 178.415 203.312 178.151 203.547 177.935C203.782 177.716 204.062 177.606 204.388 177.606C204.717 177.606 204.998 177.716 205.229 177.935C205.464 178.151 205.581 178.415 205.581 178.725C205.581 179.032 205.464 179.295 205.229 179.515C204.998 179.731 204.717 179.839 204.388 179.839ZM208.804 193.077C208.524 193.077 208.264 193.055 208.026 193.009C207.791 192.968 207.603 192.918 207.463 192.862L207.94 191.259C208.24 191.346 208.507 191.388 208.741 191.384C208.976 191.38 209.183 191.307 209.361 191.163C209.543 191.022 209.696 190.788 209.821 190.458L209.997 189.987L206.832 181.077H209.014L211.026 187.668H211.116L213.134 181.077H215.321L211.827 190.862C211.664 191.324 211.448 191.719 211.179 192.049C210.91 192.382 210.58 192.636 210.19 192.81C209.804 192.988 209.342 193.077 208.804 193.077ZM222.307 186.134V181.077H224.364V189.805H222.369V188.254H222.278C222.081 188.742 221.758 189.142 221.307 189.452C220.86 189.763 220.309 189.918 219.653 189.918C219.081 189.918 218.576 189.791 218.136 189.538C217.701 189.28 217.36 188.907 217.114 188.418C216.867 187.926 216.744 187.331 216.744 186.634V181.077H218.801V186.316C218.801 186.869 218.953 187.308 219.256 187.634C219.559 187.96 219.956 188.123 220.449 188.123C220.752 188.123 221.045 188.049 221.33 187.901C221.614 187.754 221.847 187.534 222.028 187.242C222.214 186.947 222.307 186.577 222.307 186.134ZM233.376 183.384L231.501 183.589C231.448 183.399 231.356 183.221 231.223 183.055C231.094 182.888 230.92 182.754 230.7 182.651C230.481 182.549 230.212 182.498 229.893 182.498C229.465 182.498 229.106 182.591 228.814 182.776C228.526 182.962 228.384 183.202 228.388 183.498C228.384 183.752 228.477 183.958 228.666 184.117C228.859 184.276 229.178 184.407 229.621 184.509L231.109 184.827C231.935 185.005 232.549 185.288 232.95 185.674C233.356 186.06 233.56 186.566 233.564 187.191C233.56 187.74 233.399 188.225 233.081 188.646C232.767 189.062 232.329 189.388 231.768 189.623C231.208 189.858 230.564 189.975 229.837 189.975C228.768 189.975 227.909 189.752 227.257 189.305C226.606 188.854 226.217 188.227 226.092 187.424L228.098 187.231C228.189 187.625 228.382 187.922 228.678 188.123C228.973 188.324 229.357 188.424 229.831 188.424C230.32 188.424 230.712 188.324 231.007 188.123C231.306 187.922 231.456 187.674 231.456 187.379C231.456 187.129 231.359 186.922 231.166 186.759C230.977 186.596 230.681 186.471 230.28 186.384L228.791 186.072C227.954 185.897 227.335 185.604 226.933 185.191C226.532 184.774 226.333 184.248 226.337 183.612C226.333 183.074 226.479 182.608 226.774 182.214C227.073 181.816 227.488 181.509 228.018 181.293C228.553 181.074 229.168 180.964 229.865 180.964C230.888 180.964 231.693 181.182 232.28 181.617C232.871 182.053 233.236 182.642 233.376 183.384ZM237.317 184.691V189.805H235.26V178.168H237.271V182.56H237.374C237.578 182.068 237.894 181.68 238.322 181.396C238.754 181.108 239.304 180.964 239.97 180.964C240.576 180.964 241.105 181.091 241.555 181.344C242.006 181.598 242.355 181.969 242.601 182.458C242.851 182.947 242.976 183.543 242.976 184.248V189.805H240.919V184.566C240.919 183.979 240.768 183.522 240.464 183.197C240.165 182.867 239.745 182.702 239.203 182.702C238.839 182.702 238.514 182.782 238.226 182.941C237.942 183.096 237.718 183.322 237.555 183.617C237.396 183.913 237.317 184.271 237.317 184.691ZM255.456 181.367C255.403 180.871 255.179 180.485 254.786 180.208C254.395 179.932 253.888 179.793 253.263 179.793C252.823 179.793 252.446 179.86 252.132 179.992C251.818 180.125 251.577 180.305 251.411 180.532C251.244 180.759 251.159 181.019 251.155 181.31C251.155 181.553 251.21 181.763 251.32 181.941C251.433 182.119 251.587 182.271 251.78 182.396C251.973 182.517 252.187 182.619 252.422 182.702C252.657 182.786 252.893 182.856 253.132 182.913L254.223 183.185C254.662 183.288 255.085 183.426 255.49 183.6C255.899 183.774 256.265 183.994 256.587 184.259C256.912 184.524 257.17 184.844 257.359 185.219C257.549 185.594 257.643 186.034 257.643 186.538C257.643 187.219 257.469 187.82 257.121 188.339C256.772 188.854 256.268 189.257 255.609 189.549C254.954 189.837 254.161 189.981 253.229 189.981C252.323 189.981 251.537 189.841 250.871 189.56C250.208 189.28 249.689 188.871 249.314 188.333C248.943 187.795 248.742 187.14 248.712 186.367H250.786C250.816 186.772 250.941 187.11 251.161 187.379C251.38 187.647 251.666 187.848 252.018 187.981C252.375 188.113 252.772 188.18 253.212 188.18C253.67 188.18 254.071 188.112 254.416 187.975C254.765 187.835 255.037 187.642 255.234 187.396C255.431 187.146 255.532 186.854 255.536 186.521C255.532 186.218 255.443 185.968 255.268 185.771C255.094 185.57 254.85 185.403 254.536 185.271C254.225 185.134 253.861 185.013 253.445 184.907L252.121 184.566C251.162 184.32 250.405 183.947 249.848 183.447C249.295 182.943 249.018 182.274 249.018 181.441C249.018 180.755 249.204 180.155 249.575 179.64C249.95 179.125 250.46 178.725 251.104 178.441C251.748 178.153 252.477 178.009 253.291 178.009C254.117 178.009 254.84 178.153 255.462 178.441C256.087 178.725 256.577 179.121 256.933 179.629C257.289 180.132 257.473 180.712 257.484 181.367H255.456ZM261.943 189.981C261.39 189.981 260.892 189.882 260.449 189.685C260.009 189.485 259.661 189.189 259.403 188.799C259.15 188.409 259.023 187.928 259.023 187.356C259.023 186.863 259.114 186.456 259.295 186.134C259.477 185.812 259.725 185.555 260.04 185.362C260.354 185.168 260.708 185.022 261.102 184.924C261.5 184.822 261.911 184.748 262.335 184.702C262.847 184.649 263.261 184.602 263.58 184.56C263.898 184.515 264.129 184.447 264.273 184.356C264.42 184.261 264.494 184.115 264.494 183.918V183.884C264.494 183.456 264.367 183.125 264.114 182.89C263.86 182.655 263.494 182.538 263.017 182.538C262.513 182.538 262.114 182.647 261.818 182.867C261.527 183.087 261.33 183.346 261.227 183.646L259.307 183.373C259.458 182.843 259.708 182.399 260.057 182.043C260.405 181.683 260.831 181.415 261.335 181.237C261.839 181.055 262.396 180.964 263.006 180.964C263.426 180.964 263.845 181.013 264.261 181.112C264.678 181.21 265.059 181.373 265.403 181.6C265.748 181.824 266.025 182.129 266.233 182.515C266.445 182.901 266.551 183.384 266.551 183.964V189.805H264.574V188.606H264.506C264.381 188.848 264.205 189.076 263.977 189.288C263.754 189.496 263.472 189.665 263.131 189.793C262.794 189.918 262.398 189.981 261.943 189.981ZM262.477 188.469C262.89 188.469 263.248 188.388 263.551 188.225C263.854 188.058 264.087 187.839 264.25 187.566C264.417 187.293 264.5 186.996 264.5 186.674V185.646C264.436 185.699 264.326 185.748 264.17 185.793C264.019 185.839 263.848 185.879 263.659 185.913C263.47 185.947 263.282 185.977 263.097 186.004C262.911 186.03 262.75 186.053 262.614 186.072C262.307 186.113 262.032 186.182 261.79 186.276C261.547 186.371 261.356 186.504 261.216 186.674C261.076 186.841 261.006 187.057 261.006 187.322C261.006 187.701 261.144 187.987 261.42 188.18C261.697 188.373 262.049 188.469 262.477 188.469ZM270.42 189.805L267.955 181.077H270.051L271.585 187.214H271.665L273.233 181.077H275.307L276.875 187.18H276.96L278.472 181.077H280.574L278.102 189.805H275.96L274.324 183.907H274.205L272.568 189.805H270.42ZM284.521 189.981C283.968 189.981 283.47 189.882 283.027 189.685C282.588 189.485 282.239 189.189 281.982 188.799C281.728 188.409 281.601 187.928 281.601 187.356C281.601 186.863 281.692 186.456 281.874 186.134C282.055 185.812 282.304 185.555 282.618 185.362C282.932 185.168 283.286 185.022 283.68 184.924C284.078 184.822 284.489 184.748 284.913 184.702C285.425 184.649 285.839 184.602 286.158 184.56C286.476 184.515 286.707 184.447 286.851 184.356C286.999 184.261 287.072 184.115 287.072 183.918V183.884C287.072 183.456 286.946 183.125 286.692 182.89C286.438 182.655 286.072 182.538 285.595 182.538C285.091 182.538 284.692 182.647 284.396 182.867C284.105 183.087 283.908 183.346 283.805 183.646L281.885 183.373C282.036 182.843 282.286 182.399 282.635 182.043C282.983 181.683 283.41 181.415 283.913 181.237C284.417 181.055 284.974 180.964 285.584 180.964C286.004 180.964 286.423 181.013 286.839 181.112C287.256 181.21 287.637 181.373 287.982 181.6C288.326 181.824 288.603 182.129 288.811 182.515C289.023 182.901 289.129 183.384 289.129 183.964V189.805H287.152V188.606H287.084C286.959 188.848 286.783 189.076 286.555 189.288C286.332 189.496 286.05 189.665 285.709 189.793C285.372 189.918 284.976 189.981 284.521 189.981ZM285.055 188.469C285.468 188.469 285.826 188.388 286.129 188.225C286.432 188.058 286.665 187.839 286.828 187.566C286.995 187.293 287.078 186.996 287.078 186.674V185.646C287.014 185.699 286.904 185.748 286.749 185.793C286.597 185.839 286.427 185.879 286.237 185.913C286.048 185.947 285.86 185.977 285.675 186.004C285.489 186.03 285.328 186.053 285.192 186.072C284.885 186.113 284.61 186.182 284.368 186.276C284.125 186.371 283.934 186.504 283.794 186.674C283.654 186.841 283.584 187.057 283.584 187.322C283.584 187.701 283.722 187.987 283.999 188.18C284.275 188.373 284.627 188.469 285.055 188.469ZM292.163 193.077C291.883 193.077 291.624 193.055 291.385 193.009C291.15 192.968 290.963 192.918 290.822 192.862L291.3 191.259C291.599 191.346 291.866 191.388 292.101 191.384C292.336 191.38 292.542 191.307 292.72 191.163C292.902 191.022 293.055 190.788 293.18 190.458L293.357 189.987L290.192 181.077H292.374L294.385 187.668H294.476L296.493 181.077H298.68L295.186 190.862C295.023 191.324 294.807 191.719 294.538 192.049C294.269 192.382 293.94 192.636 293.55 192.81C293.163 192.988 292.701 193.077 292.163 193.077ZM303.67 189.975C302.795 189.975 302.04 189.793 301.403 189.43C300.771 189.062 300.284 188.543 299.943 187.873C299.602 187.199 299.432 186.405 299.432 185.492C299.432 184.594 299.602 183.807 299.943 183.129C300.288 182.447 300.769 181.916 301.386 181.538C302.004 181.155 302.729 180.964 303.562 180.964C304.1 180.964 304.608 181.051 305.085 181.225C305.566 181.396 305.991 181.661 306.358 182.021C306.729 182.38 307.021 182.839 307.233 183.396C307.445 183.949 307.551 184.608 307.551 185.373V186.004H300.398V184.617H305.58C305.576 184.223 305.491 183.873 305.324 183.566C305.157 183.255 304.924 183.011 304.625 182.833C304.33 182.655 303.985 182.566 303.591 182.566C303.17 182.566 302.801 182.668 302.483 182.873C302.165 183.074 301.917 183.339 301.739 183.668C301.564 183.994 301.475 184.352 301.472 184.742V185.952C301.472 186.46 301.564 186.896 301.75 187.259C301.936 187.619 302.195 187.896 302.528 188.089C302.862 188.278 303.252 188.373 303.699 188.373C303.998 188.373 304.269 188.331 304.511 188.248C304.754 188.161 304.964 188.034 305.142 187.867C305.32 187.701 305.455 187.494 305.545 187.248L307.466 187.464C307.345 187.971 307.114 188.415 306.773 188.793C306.436 189.168 306.004 189.46 305.477 189.668C304.951 189.873 304.348 189.975 303.67 189.975Z" fill="#3F4346"/>
<line x1="316.5" y1="207.305" x2="316.5" y2="177.305" stroke="#D5D9DC"/>
<rect x="325" y="174.305" width="36" height="36" rx="18" fill="#4DA0FF" fill-opacity="0.16"/>
<path d="M338.45 186.471C338.5 187.213 338.625 187.938 338.825 188.63L337.825 189.63C337.483 188.63 337.267 187.571 337.192 186.471H338.45ZM346.667 196.488C347.375 196.688 348.1 196.813 348.833 196.863V198.105C347.733 198.03 346.675 197.813 345.667 197.48L346.667 196.488ZM339.25 184.805H336.333C335.875 184.805 335.5 185.18 335.5 185.638C335.5 193.463 341.842 199.805 349.667 199.805C350.125 199.805 350.5 199.43 350.5 198.971V196.063C350.5 195.605 350.125 195.23 349.667 195.23C348.633 195.23 347.625 195.063 346.692 194.755C346.608 194.721 346.517 194.713 346.433 194.713C346.217 194.713 346.008 194.796 345.842 194.955L344.008 196.788C341.65 195.58 339.717 193.655 338.517 191.296L340.35 189.463C340.583 189.23 340.65 188.905 340.558 188.613C340.25 187.68 340.083 186.68 340.083 185.638C340.083 185.18 339.708 184.805 339.25 184.805Z" fill="#1E75BA"/>
<rect x="365" y="174.305" width="36" height="36" rx="18" fill="white"/>
<path d="M387.167 191.055V188.138C387.167 187.68 386.792 187.305 386.333 187.305H376.333C375.875 187.305 375.5 187.68 375.5 188.138V196.471C375.5 196.93 375.875 197.305 376.333 197.305H386.333C386.792 197.305 387.167 196.93 387.167 196.471V193.555L390.5 196.888V187.721L387.167 191.055ZM385.5 195.638H377.167V188.971H385.5V195.638ZM380.5 194.805H382.167V193.138H383.833V191.471H382.167V189.805H380.5V191.471H378.833V193.138H380.5V194.805Z" fill="#5D6164"/>
<rect x="405" y="174.305" width="36" height="36" rx="18" fill="white"/>
<path d="M429.667 197.305C430.583 197.305 431.325 196.555 431.325 195.638L431.333 187.305C431.333 186.38 430.583 185.638 429.667 185.638H416.333C415.408 185.638 414.667 186.38 414.667 187.305V195.638C414.667 196.555 415.408 197.305 416.333 197.305H413V198.971H433V197.305H429.667ZM416.333 195.638V187.305H429.667V195.646L416.333 195.638ZM423.833 189.913C420.592 190.363 419.3 192.58 418.833 194.805C419.992 193.246 421.517 192.538 423.833 192.538V194.363L427.167 191.246L423.833 188.138V189.913Z" fill="#5D6164"/>
</g>
<g filter="url(#filter1_d_6449_35254)">
<rect x="298" y="263.305" width="125" height="38" rx="19" fill="white" shape-rendering="crispEdges"/>
<path d="M317.936 288.305L314.08 276.785H315.56L318.912 286.793L322.296 276.785H323.776L319.92 288.305H317.936ZM327.706 288.545C326.848 288.545 326.106 288.35 325.482 287.961C324.864 287.571 324.386 287.033 324.05 286.345C323.714 285.657 323.546 284.867 323.546 283.977C323.546 283.07 323.717 282.275 324.058 281.593C324.4 280.91 324.882 280.379 325.506 280.001C326.13 279.617 326.864 279.425 327.706 279.425C328.57 279.425 329.314 279.619 329.938 280.009C330.562 280.393 331.04 280.929 331.37 281.617C331.706 282.299 331.874 283.086 331.874 283.977C331.874 284.878 331.706 285.673 331.37 286.361C331.034 287.043 330.554 287.579 329.93 287.969C329.306 288.353 328.565 288.545 327.706 288.545ZM327.706 287.193C328.602 287.193 329.269 286.894 329.706 286.297C330.144 285.699 330.362 284.926 330.362 283.977C330.362 283.001 330.141 282.225 329.698 281.649C329.256 281.067 328.592 280.777 327.706 280.777C327.104 280.777 326.608 280.913 326.218 281.185C325.829 281.457 325.538 281.833 325.346 282.313C325.154 282.793 325.058 283.347 325.058 283.977C325.058 284.947 325.282 285.726 325.73 286.313C326.178 286.899 326.837 287.193 327.706 287.193ZM333.796 278.137V276.665H335.22V278.137H333.796ZM333.796 288.305V279.665H335.22V288.305H333.796ZM341.26 288.545C340.385 288.545 339.641 288.35 339.028 287.961C338.42 287.566 337.956 287.025 337.636 286.337C337.316 285.649 337.151 284.865 337.14 283.985C337.151 283.083 337.319 282.291 337.644 281.609C337.975 280.921 338.447 280.385 339.06 280.001C339.673 279.617 340.412 279.425 341.276 279.425C342.188 279.425 342.972 279.649 343.628 280.097C344.289 280.545 344.732 281.158 344.956 281.937L343.548 282.361C343.367 281.859 343.071 281.47 342.66 281.193C342.255 280.915 341.788 280.777 341.26 280.777C340.668 280.777 340.18 280.915 339.796 281.193C339.412 281.465 339.127 281.843 338.94 282.329C338.753 282.809 338.657 283.361 338.652 283.985C338.663 284.945 338.884 285.721 339.316 286.313C339.753 286.899 340.401 287.193 341.26 287.193C341.825 287.193 342.295 287.065 342.668 286.809C343.041 286.547 343.324 286.171 343.516 285.681L344.956 286.057C344.657 286.862 344.191 287.478 343.556 287.905C342.921 288.331 342.156 288.545 341.26 288.545ZM350.098 288.545C349.25 288.545 348.509 288.358 347.874 287.985C347.245 287.606 346.754 287.081 346.402 286.409C346.05 285.731 345.874 284.942 345.874 284.041C345.874 283.097 346.048 282.281 346.394 281.593C346.741 280.899 347.224 280.366 347.842 279.993C348.466 279.614 349.197 279.425 350.034 279.425C350.904 279.425 351.642 279.625 352.25 280.025C352.864 280.425 353.322 280.995 353.626 281.737C353.936 282.478 354.069 283.361 354.026 284.385H352.586V283.873C352.57 282.811 352.354 282.019 351.938 281.497C351.522 280.969 350.904 280.705 350.082 280.705C349.202 280.705 348.533 280.987 348.074 281.553C347.616 282.118 347.386 282.929 347.386 283.985C347.386 285.003 347.616 285.793 348.074 286.353C348.533 286.913 349.186 287.193 350.034 287.193C350.605 287.193 351.101 287.062 351.522 286.801C351.944 286.539 352.274 286.163 352.514 285.673L353.882 286.145C353.546 286.907 353.04 287.499 352.362 287.921C351.69 288.337 350.936 288.545 350.098 288.545ZM346.906 284.385V283.241H353.29V284.385H346.906ZM362.651 288.545C361.776 288.545 361.032 288.35 360.419 287.961C359.811 287.566 359.347 287.025 359.027 286.337C358.707 285.649 358.541 284.865 358.531 283.985C358.541 283.083 358.709 282.291 359.035 281.609C359.365 280.921 359.837 280.385 360.451 280.001C361.064 279.617 361.803 279.425 362.667 279.425C363.579 279.425 364.363 279.649 365.019 280.097C365.68 280.545 366.123 281.158 366.347 281.937L364.939 282.361C364.757 281.859 364.461 281.47 364.051 281.193C363.645 280.915 363.179 280.777 362.651 280.777C362.059 280.777 361.571 280.915 361.187 281.193C360.803 281.465 360.517 281.843 360.331 282.329C360.144 282.809 360.048 283.361 360.043 283.985C360.053 284.945 360.275 285.721 360.707 286.313C361.144 286.899 361.792 287.193 362.651 287.193C363.216 287.193 363.685 287.065 364.059 286.809C364.432 286.547 364.715 286.171 364.907 285.681L366.347 286.057C366.048 286.862 365.581 287.478 364.947 287.905C364.312 288.331 363.547 288.545 362.651 288.545ZM370.357 288.545C369.712 288.545 369.171 288.427 368.733 288.193C368.301 287.953 367.973 287.638 367.749 287.249C367.531 286.859 367.421 286.433 367.421 285.969C367.421 285.515 367.507 285.123 367.677 284.793C367.853 284.457 368.099 284.179 368.413 283.961C368.728 283.737 369.104 283.561 369.541 283.433C369.952 283.321 370.411 283.225 370.917 283.145C371.429 283.059 371.947 282.982 372.469 282.913C372.992 282.843 373.48 282.777 373.933 282.713L373.421 283.009C373.437 282.241 373.283 281.673 372.957 281.305C372.637 280.937 372.083 280.753 371.293 280.753C370.771 280.753 370.312 280.873 369.917 281.113C369.528 281.347 369.253 281.731 369.093 282.265L367.741 281.857C367.949 281.099 368.352 280.505 368.949 280.073C369.547 279.641 370.333 279.425 371.309 279.425C372.093 279.425 372.765 279.566 373.325 279.849C373.891 280.126 374.296 280.547 374.541 281.113C374.664 281.379 374.741 281.67 374.773 281.985C374.805 282.294 374.821 282.619 374.821 282.961V288.305H373.557V286.233L373.853 286.425C373.528 287.123 373.072 287.651 372.485 288.009C371.904 288.366 371.195 288.545 370.357 288.545ZM370.573 287.353C371.085 287.353 371.528 287.262 371.901 287.081C372.28 286.894 372.584 286.651 372.813 286.353C373.043 286.049 373.192 285.718 373.261 285.361C373.341 285.094 373.384 284.798 373.389 284.473C373.4 284.142 373.405 283.889 373.405 283.713L373.901 283.929C373.437 283.993 372.981 284.054 372.533 284.113C372.085 284.171 371.661 284.235 371.261 284.305C370.861 284.369 370.501 284.446 370.181 284.537C369.947 284.611 369.725 284.707 369.517 284.825C369.315 284.942 369.149 285.094 369.021 285.281C368.899 285.462 368.837 285.689 368.837 285.961C368.837 286.195 368.896 286.419 369.013 286.633C369.136 286.846 369.323 287.019 369.573 287.153C369.829 287.286 370.163 287.353 370.573 287.353ZM377.061 288.305V276.545H378.485V288.305H377.061ZM381.046 288.305V276.545H382.47V288.305H381.046ZM385.03 278.137V276.665H386.454V278.137H385.03ZM385.03 288.305V279.665H386.454V288.305H385.03ZM395.006 288.305V283.977C395.006 283.566 394.969 283.171 394.894 282.793C394.825 282.414 394.7 282.075 394.518 281.777C394.342 281.473 394.102 281.233 393.798 281.057C393.5 280.881 393.121 280.793 392.662 280.793C392.305 280.793 391.98 280.854 391.686 280.977C391.398 281.094 391.15 281.275 390.942 281.521C390.734 281.766 390.572 282.075 390.454 282.449C390.342 282.817 390.286 283.251 390.286 283.753L389.35 283.465C389.35 282.627 389.5 281.91 389.798 281.313C390.102 280.71 390.526 280.249 391.07 279.929C391.62 279.603 392.265 279.441 393.006 279.441C393.566 279.441 394.044 279.529 394.438 279.705C394.833 279.881 395.161 280.115 395.422 280.409C395.684 280.697 395.889 281.022 396.038 281.385C396.188 281.742 396.292 282.107 396.35 282.481C396.414 282.849 396.446 283.198 396.446 283.529V288.305H395.006ZM388.846 288.305V279.665H390.126V281.977H390.286V288.305H388.846ZM402.022 292.385C401.569 292.385 401.126 292.315 400.694 292.177C400.262 292.038 399.865 291.827 399.502 291.545C399.145 291.267 398.846 290.915 398.606 290.489L399.91 289.801C400.124 290.222 400.425 290.529 400.814 290.721C401.209 290.913 401.614 291.009 402.03 291.009C402.58 291.009 403.036 290.907 403.398 290.705C403.761 290.507 404.028 290.211 404.198 289.817C404.374 289.422 404.46 288.931 404.454 288.345V285.985H404.622V279.665H405.886V288.361C405.886 288.595 405.878 288.822 405.862 289.041C405.852 289.259 405.825 289.475 405.782 289.689C405.67 290.302 405.449 290.806 405.118 291.201C404.788 291.601 404.361 291.897 403.838 292.089C403.316 292.286 402.71 292.385 402.022 292.385ZM401.918 288.545C401.113 288.545 400.422 288.345 399.846 287.945C399.27 287.539 398.825 286.993 398.51 286.305C398.201 285.617 398.046 284.841 398.046 283.977C398.046 283.113 398.201 282.337 398.51 281.649C398.825 280.961 399.27 280.419 399.846 280.025C400.422 279.625 401.11 279.425 401.91 279.425C402.726 279.425 403.412 279.622 403.966 280.017C404.521 280.411 404.94 280.953 405.222 281.641C405.51 282.329 405.654 283.107 405.654 283.977C405.654 284.835 405.51 285.611 405.222 286.305C404.94 286.993 404.521 287.539 403.966 287.945C403.412 288.345 402.729 288.545 401.918 288.545ZM402.094 287.241C402.676 287.241 403.153 287.102 403.526 286.825C403.9 286.542 404.174 286.155 404.35 285.665C404.532 285.169 404.622 284.606 404.622 283.977C404.622 283.337 404.532 282.774 404.35 282.289C404.174 281.798 403.902 281.417 403.534 281.145C403.166 280.867 402.7 280.729 402.134 280.729C401.548 280.729 401.062 280.873 400.678 281.161C400.3 281.449 400.017 281.838 399.83 282.329C399.649 282.819 399.558 283.369 399.558 283.977C399.558 284.59 399.652 285.145 399.838 285.641C400.025 286.131 400.305 286.521 400.678 286.809C401.057 287.097 401.529 287.241 402.094 287.241Z" fill="#212528"/>
</g>
<path d="M344 213.805C344 213.252 343.552 212.805 343 212.805C342.448 212.805 342 213.252 342 213.805H344ZM359.793 260.512C360.183 260.902 360.817 260.902 361.207 260.512L367.571 254.148C367.962 253.757 367.962 253.124 367.571 252.734C367.181 252.343 366.547 252.343 366.157 252.734L360.5 258.39L354.843 252.734C354.453 252.343 353.819 252.343 353.429 252.734C353.038 253.124 353.038 253.757 353.429 254.148L359.793 260.512ZM342 213.805V228.055H344V213.805H342ZM359.5 245.555V259.805H361.5V245.555H359.5ZM351.75 237.805C356.03 237.805 359.5 241.274 359.5 245.555H361.5C361.5 240.17 357.135 235.805 351.75 235.805V237.805ZM342 228.055C342 233.439 346.365 237.805 351.75 237.805V235.805C347.47 235.805 344 232.335 344 228.055H342Z" fill="#8F9396"/>
<rect x="176" y="341" width="384" height="36" rx="4" fill="#1E75BA"/>
<mask id="mask0_6449_35254" style="mask-type:alpha" maskUnits="userSpaceOnUse" x="192" y="348" width="18" height="18">
<rect x="192" y="348" width="18" height="18" fill="#D9D9D9"/>
</mask>
<g mask="url(#mask0_6449_35254)">
<path d="M196.05 363L195 361.95L203.7 353.25H198.75V351.75H206.25V359.25H204.75V354.3L196.05 363Z" fill="white"/>
</g>
<path d="M222.636 362.955V355.455H223.909V362.955H222.636ZM219.523 359.841V358.568H227.023V359.841H219.523ZM233.456 353.205C233.933 353.208 234.411 353.299 234.888 353.477C235.365 353.655 235.801 353.951 236.195 354.364C236.589 354.773 236.905 355.331 237.143 356.04C237.382 356.748 237.501 357.636 237.501 358.705C237.501 359.739 237.403 360.657 237.206 361.46C237.013 362.259 236.732 362.934 236.365 363.483C236.001 364.032 235.558 364.449 235.036 364.733C234.517 365.017 233.929 365.159 233.274 365.159C232.623 365.159 232.041 365.03 231.53 364.773C231.022 364.511 230.606 364.15 230.28 363.688C229.958 363.222 229.751 362.682 229.661 362.068H231.047C231.172 362.602 231.42 363.044 231.791 363.392C232.166 363.737 232.661 363.909 233.274 363.909C234.172 363.909 234.88 363.517 235.399 362.733C235.922 361.949 236.183 360.841 236.183 359.409H236.092C235.88 359.727 235.628 360.002 235.337 360.233C235.045 360.464 234.721 360.642 234.365 360.767C234.009 360.892 233.63 360.955 233.229 360.955C232.562 360.955 231.95 360.79 231.393 360.46C230.84 360.127 230.397 359.67 230.064 359.091C229.734 358.508 229.57 357.841 229.57 357.091C229.57 356.379 229.729 355.727 230.047 355.136C230.369 354.542 230.82 354.068 231.399 353.716C231.982 353.364 232.668 353.193 233.456 353.205ZM233.456 354.455C232.979 354.455 232.549 354.574 232.166 354.812C231.787 355.047 231.486 355.366 231.263 355.767C231.043 356.165 230.933 356.606 230.933 357.091C230.933 357.576 231.039 358.017 231.251 358.415C231.467 358.809 231.761 359.123 232.132 359.358C232.507 359.589 232.933 359.705 233.411 359.705C233.77 359.705 234.106 359.634 234.416 359.494C234.727 359.35 234.998 359.155 235.229 358.909C235.464 358.659 235.647 358.377 235.78 358.062C235.912 357.744 235.979 357.413 235.979 357.068C235.979 356.614 235.869 356.187 235.649 355.79C235.433 355.392 235.134 355.07 234.751 354.824C234.373 354.578 233.941 354.455 233.456 354.455ZM243.827 353.364V365H242.418V354.841H242.349L239.509 356.727V355.295L242.418 353.364H243.827ZM250.878 353.205C251.355 353.208 251.832 353.299 252.31 353.477C252.787 353.655 253.223 353.951 253.616 354.364C254.01 354.773 254.327 355.331 254.565 356.04C254.804 356.748 254.923 357.636 254.923 358.705C254.923 359.739 254.825 360.657 254.628 361.46C254.435 362.259 254.154 362.934 253.787 363.483C253.423 364.032 252.98 364.449 252.457 364.733C251.938 365.017 251.351 365.159 250.696 365.159C250.045 365.159 249.463 365.03 248.952 364.773C248.444 364.511 248.027 364.15 247.702 363.688C247.38 363.222 247.173 362.682 247.082 362.068H248.469C248.594 362.602 248.842 363.044 249.213 363.392C249.588 363.737 250.082 363.909 250.696 363.909C251.594 363.909 252.302 363.517 252.821 362.733C253.344 361.949 253.605 360.841 253.605 359.409H253.514C253.302 359.727 253.05 360.002 252.759 360.233C252.467 360.464 252.143 360.642 251.787 360.767C251.431 360.892 251.052 360.955 250.651 360.955C249.984 360.955 249.372 360.79 248.815 360.46C248.262 360.127 247.819 359.67 247.486 359.091C247.156 358.508 246.991 357.841 246.991 357.091C246.991 356.379 247.151 355.727 247.469 355.136C247.791 354.542 248.241 354.068 248.821 353.716C249.404 353.364 250.09 353.193 250.878 353.205ZM250.878 354.455C250.401 354.455 249.971 354.574 249.588 354.812C249.209 355.047 248.908 355.366 248.685 355.767C248.465 356.165 248.355 356.606 248.355 357.091C248.355 357.576 248.461 358.017 248.673 358.415C248.889 358.809 249.183 359.123 249.554 359.358C249.929 359.589 250.355 359.705 250.832 359.705C251.192 359.705 251.527 359.634 251.838 359.494C252.149 359.35 252.42 359.155 252.651 358.909C252.885 358.659 253.069 358.377 253.202 358.062C253.334 357.744 253.401 357.413 253.401 357.068C253.401 356.614 253.291 356.187 253.071 355.79C252.855 355.392 252.556 355.07 252.173 354.824C251.795 354.578 251.363 354.455 250.878 354.455ZM260.794 365.159C260.127 365.159 259.527 365.027 258.993 364.761C258.459 364.496 258.031 364.133 257.709 363.67C257.387 363.208 257.211 362.682 257.18 362.091H258.544C258.597 362.617 258.836 363.053 259.26 363.398C259.688 363.739 260.199 363.909 260.794 363.909C261.271 363.909 261.696 363.797 262.067 363.574C262.442 363.35 262.735 363.044 262.947 362.653C263.163 362.259 263.271 361.814 263.271 361.318C263.271 360.811 263.16 360.358 262.936 359.96C262.716 359.559 262.413 359.242 262.027 359.011C261.641 358.78 261.199 358.663 260.703 358.659C260.347 358.655 259.982 358.71 259.607 358.824C259.232 358.934 258.923 359.076 258.68 359.25L257.362 359.091L258.067 353.364H264.112V354.614H259.249L258.839 358.045H258.908C259.146 357.856 259.446 357.699 259.805 357.574C260.165 357.449 260.54 357.386 260.93 357.386C261.643 357.386 262.277 357.557 262.834 357.898C263.394 358.235 263.834 358.697 264.152 359.284C264.474 359.871 264.635 360.542 264.635 361.295C264.635 362.038 264.468 362.701 264.135 363.284C263.805 363.864 263.351 364.322 262.771 364.659C262.192 364.992 261.533 365.159 260.794 365.159ZM266.892 365V363.977L270.733 359.773C271.184 359.28 271.555 358.852 271.847 358.489C272.138 358.121 272.354 357.777 272.494 357.455C272.638 357.129 272.71 356.788 272.71 356.432C272.71 356.023 272.612 355.669 272.415 355.369C272.222 355.07 271.956 354.839 271.619 354.676C271.282 354.513 270.903 354.432 270.483 354.432C270.036 354.432 269.646 354.525 269.312 354.71C268.983 354.892 268.727 355.148 268.545 355.477C268.367 355.807 268.278 356.193 268.278 356.636H266.938C266.938 355.955 267.095 355.356 267.409 354.841C267.723 354.326 268.152 353.924 268.693 353.636C269.239 353.348 269.85 353.205 270.528 353.205C271.21 353.205 271.814 353.348 272.341 353.636C272.867 353.924 273.28 354.312 273.58 354.801C273.879 355.29 274.028 355.833 274.028 356.432C274.028 356.86 273.951 357.278 273.795 357.688C273.644 358.093 273.379 358.545 273 359.045C272.625 359.542 272.104 360.148 271.438 360.864L268.824 363.659V363.75H274.233V365H266.892ZM277.602 356.273L279.693 359.841L281.784 356.273H283.33L280.511 360.636L283.33 365H281.784L279.693 361.614L277.602 365H276.057L278.83 360.636L276.057 356.273H277.602ZM286.243 356.273L288.334 359.841L290.425 356.273H291.97L289.152 360.636L291.97 365H290.425L288.334 361.614L286.243 365H284.697L287.47 360.636L284.697 356.273H286.243ZM294.884 356.273L296.974 359.841L299.065 356.273H300.611L297.793 360.636L300.611 365H299.065L296.974 361.614L294.884 365H293.338L296.111 360.636L293.338 356.273H294.884ZM303.524 356.273L305.615 359.841L307.706 356.273H309.251L306.433 360.636L309.251 365H307.706L305.615 361.614L303.524 365H301.979L304.751 360.636L301.979 356.273H303.524ZM312.165 356.273L314.256 359.841L316.347 356.273H317.892L315.074 360.636L317.892 365H316.347L314.256 361.614L312.165 365H310.619L313.392 360.636L310.619 356.273H312.165ZM323.578 365.159C322.722 365.159 321.993 364.926 321.391 364.46C320.788 363.991 320.328 363.311 320.01 362.42C319.692 361.527 319.533 360.447 319.533 359.182C319.533 357.924 319.692 356.85 320.01 355.96C320.332 355.066 320.794 354.384 321.396 353.915C322.002 353.441 322.73 353.205 323.578 353.205C324.427 353.205 325.152 353.441 325.754 353.915C326.36 354.384 326.822 355.066 327.141 355.96C327.463 356.85 327.624 357.924 327.624 359.182C327.624 360.447 327.464 361.527 327.146 362.42C326.828 363.311 326.368 363.991 325.766 364.46C325.163 364.926 324.434 365.159 323.578 365.159ZM323.578 363.909C324.427 363.909 325.086 363.5 325.555 362.682C326.025 361.864 326.26 360.697 326.26 359.182C326.26 358.174 326.152 357.316 325.936 356.608C325.724 355.9 325.417 355.36 325.016 354.989C324.618 354.617 324.139 354.432 323.578 354.432C322.737 354.432 322.08 354.847 321.607 355.676C321.133 356.502 320.896 357.67 320.896 359.182C320.896 360.189 321.002 361.045 321.214 361.75C321.427 362.455 321.732 362.991 322.129 363.358C322.531 363.725 323.014 363.909 323.578 363.909ZM329.783 365V363.977L333.624 359.773C334.074 359.28 334.446 358.852 334.737 358.489C335.029 358.121 335.245 357.777 335.385 357.455C335.529 357.129 335.601 356.788 335.601 356.432C335.601 356.023 335.502 355.669 335.305 355.369C335.112 355.07 334.847 354.839 334.51 354.676C334.173 354.513 333.794 354.432 333.374 354.432C332.927 354.432 332.536 354.525 332.203 354.71C331.874 354.892 331.618 355.148 331.436 355.477C331.258 355.807 331.169 356.193 331.169 356.636H329.828C329.828 355.955 329.985 355.356 330.3 354.841C330.614 354.326 331.042 353.924 331.584 353.636C332.129 353.348 332.741 353.205 333.419 353.205C334.101 353.205 334.705 353.348 335.232 353.636C335.758 353.924 336.171 354.312 336.47 354.801C336.769 355.29 336.919 355.833 336.919 356.432C336.919 356.86 336.841 357.278 336.686 357.688C336.535 358.093 336.269 358.545 335.891 359.045C335.516 359.542 334.995 360.148 334.328 360.864L331.714 363.659V363.75H337.124V365H329.783Z" fill="white"/>
<path d="M360 365.159C359.144 365.159 358.415 364.926 357.812 364.46C357.21 363.991 356.75 363.311 356.432 362.42C356.114 361.527 355.955 360.447 355.955 359.182C355.955 357.924 356.114 356.85 356.432 355.96C356.754 355.066 357.216 354.384 357.818 353.915C358.424 353.441 359.152 353.205 360 353.205C360.848 353.205 361.574 353.441 362.176 353.915C362.782 354.384 363.244 355.066 363.562 355.96C363.884 356.85 364.045 357.924 364.045 359.182C364.045 360.447 363.886 361.527 363.568 362.42C363.25 363.311 362.79 363.991 362.188 364.46C361.585 364.926 360.856 365.159 360 365.159ZM360 363.909C360.848 363.909 361.508 363.5 361.977 362.682C362.447 361.864 362.682 360.697 362.682 359.182C362.682 358.174 362.574 357.316 362.358 356.608C362.146 355.9 361.839 355.36 361.438 354.989C361.04 354.617 360.561 354.432 360 354.432C359.159 354.432 358.502 354.847 358.028 355.676C357.555 356.502 357.318 357.67 357.318 359.182C357.318 360.189 357.424 361.045 357.636 361.75C357.848 362.455 358.153 362.991 358.551 363.358C358.953 363.725 359.436 363.909 360 363.909ZM365.932 362.614V361.455L371.045 353.364H371.886V355.159H371.318L367.455 361.273V361.364H374.341V362.614H365.932ZM371.409 365V362.261V361.722V353.364H372.75V365H371.409ZM377.47 363.511C377.19 363.511 376.949 363.411 376.749 363.21C376.548 363.009 376.447 362.769 376.447 362.489C376.447 362.208 376.548 361.968 376.749 361.767C376.949 361.566 377.19 361.466 377.47 361.466C377.75 361.466 377.991 361.566 378.192 361.767C378.393 361.968 378.493 362.208 378.493 362.489C378.493 362.674 378.446 362.845 378.351 363C378.26 363.155 378.137 363.28 377.982 363.375C377.83 363.466 377.66 363.511 377.47 363.511ZM377.47 357.625C377.19 357.625 376.949 357.525 376.749 357.324C376.548 357.123 376.447 356.883 376.447 356.602C376.447 356.322 376.548 356.081 376.749 355.881C376.949 355.68 377.19 355.58 377.47 355.58C377.75 355.58 377.991 355.68 378.192 355.881C378.393 356.081 378.493 356.322 378.493 356.602C378.493 356.788 378.446 356.958 378.351 357.114C378.26 357.269 378.137 357.394 377.982 357.489C377.83 357.58 377.66 357.625 377.47 357.625ZM380.876 365V363.977L384.717 359.773C385.168 359.28 385.539 358.852 385.831 358.489C386.123 358.121 386.339 357.777 386.479 357.455C386.623 357.129 386.695 356.788 386.695 356.432C386.695 356.023 386.596 355.669 386.399 355.369C386.206 355.07 385.941 354.839 385.604 354.676C385.267 354.513 384.888 354.432 384.467 354.432C384.02 354.432 383.63 354.525 383.297 354.71C382.967 354.892 382.712 355.148 382.53 355.477C382.352 355.807 382.263 356.193 382.263 356.636H380.922C380.922 355.955 381.079 355.356 381.393 354.841C381.708 354.326 382.136 353.924 382.678 353.636C383.223 353.348 383.835 353.205 384.513 353.205C385.195 353.205 385.799 353.348 386.325 353.636C386.852 353.924 387.265 354.312 387.564 354.801C387.863 355.29 388.013 355.833 388.013 356.432C388.013 356.86 387.935 357.278 387.78 357.688C387.628 358.093 387.363 358.545 386.984 359.045C386.609 359.542 386.089 360.148 385.422 360.864L382.808 363.659V363.75H388.217V365H380.876ZM394.2 365.159C393.534 365.159 392.933 365.027 392.399 364.761C391.865 364.496 391.437 364.133 391.115 363.67C390.793 363.208 390.617 362.682 390.587 362.091H391.95C392.003 362.617 392.242 363.053 392.666 363.398C393.094 363.739 393.606 363.909 394.2 363.909C394.678 363.909 395.102 363.797 395.473 363.574C395.848 363.35 396.142 363.044 396.354 362.653C396.57 362.259 396.678 361.814 396.678 361.318C396.678 360.811 396.566 360.358 396.342 359.96C396.123 359.559 395.82 359.242 395.433 359.011C395.047 358.78 394.606 358.663 394.109 358.659C393.753 358.655 393.388 358.71 393.013 358.824C392.638 358.934 392.329 359.076 392.087 359.25L390.768 359.091L391.473 353.364H397.518V354.614H392.655L392.246 358.045H392.314C392.553 357.856 392.852 357.699 393.212 357.574C393.571 357.449 393.946 357.386 394.337 357.386C395.049 357.386 395.683 357.557 396.24 357.898C396.801 358.235 397.24 358.697 397.558 359.284C397.88 359.871 398.041 360.542 398.041 361.295C398.041 362.038 397.875 362.701 397.541 363.284C397.212 363.864 396.757 364.322 396.178 364.659C395.598 364.992 394.939 365.159 394.2 365.159Z" fill="white"/>
<rect x="416" y="346" width="26" height="26" rx="13" fill="#E2F0FF"/>
<mask id="mask1_6449_35254" style="mask-type:alpha" maskUnits="userSpaceOnUse" x="420" y="350" width="18" height="18">
<rect x="420" y="350" width="18" height="18" fill="#D9D9D9"/>
</mask>
<g mask="url(#mask1_6449_35254)">
<path d="M433.763 361.212L432.675 360.125C432.85 359.837 432.981 359.538 433.069 359.225C433.156 358.913 433.2 358.588 433.2 358.25H434.7C434.7 358.8 434.619 359.322 434.456 359.815C434.294 360.309 434.062 360.775 433.763 361.212ZM431.55 358.962L430.2 357.612V353.75C430.2 353.537 430.128 353.359 429.985 353.215C429.841 353.072 429.663 353 429.45 353C429.238 353 429.06 353.072 428.916 353.215C428.772 353.359 428.7 353.537 428.7 353.75V356.112L427.2 354.613V353.75C427.2 353.125 427.419 352.594 427.856 352.156C428.294 351.719 428.825 351.5 429.45 351.5C430.075 351.5 430.606 351.719 431.044 352.156C431.481 352.594 431.7 353.125 431.7 353.75V358.25C431.7 358.387 431.684 358.512 431.653 358.625C431.622 358.738 431.588 358.85 431.55 358.962ZM428.7 365.75V363.444C427.4 363.269 426.325 362.688 425.475 361.7C424.625 360.713 424.2 359.562 424.2 358.25H425.7C425.7 359.287 426.059 360.172 426.778 360.903C427.497 361.634 428.388 362 429.45 362C429.875 362 430.278 361.934 430.66 361.804C431.041 361.672 430.347 362.378 430.66 362.14L432.769 362.319C432.406 362.606 432.01 362.85 431.579 363.05C431.147 363.25 430.688 363.381 430.2 363.444V365.75H428.7ZM435.3 366.95L421.5 353.15L422.55 352.1L436.35 365.9L435.3 366.95Z" fill="#1E75BA"/>
</g>
<rect x="450" y="346" width="26" height="26" rx="13" fill="#1258A3"/>
<mask id="mask2_6449_35254" style="mask-type:alpha" maskUnits="userSpaceOnUse" x="454" y="350" width="18" height="18">
<rect x="454" y="350" width="18" height="18" fill="#D9D9D9"/>
</mask>
<g mask="url(#mask2_6449_35254)">
<path d="M464.5 364.25V353.75H467.5V364.25H464.5ZM458.5 364.25V353.75H461.5V364.25H458.5Z" fill="white"/>
</g>
<rect x="484" y="346" width="26" height="26" rx="13" fill="#1E75BA"/>
<g clip-path="url(#clip0_6449_35254)">
<path d="M491 356H494V353H491V356ZM495.5 365H498.5V362H495.5V365ZM491 365H494V362H491V365ZM491 360.5H494V357.5H491V360.5ZM495.5 360.5H498.5V357.5H495.5V360.5ZM500 353V356H503V353H500ZM495.5 356H498.5V353H495.5V356ZM500 360.5H503V357.5H500V360.5ZM500 365H503V362H500V365Z" fill="white"/>
</g>
<rect x="518" y="346" width="26" height="26" rx="13" fill="#CC5229"/>
<mask id="mask3_6449_35254" style="mask-type:alpha" maskUnits="userSpaceOnUse" x="522" y="350" width="18" height="18">
<rect x="522" y="350" width="18" height="18" fill="#D9D9D9"/>
</mask>
<g mask="url(#mask3_6449_35254)">
<path d="M531 356C532.475 356 533.928 356.297 535.359 356.891C536.79 357.484 538.062 358.375 539.175 359.562C539.325 359.713 539.4 359.887 539.4 360.087C539.4 360.287 539.325 360.462 539.175 360.612L537.45 362.3C537.312 362.437 537.153 362.513 536.972 362.525C536.79 362.538 536.625 362.488 536.475 362.375L534 360.5V357.987C533.525 357.837 533.037 357.719 532.537 357.631C532.037 357.544 531.525 357.5 531 357.5C530.475 357.5 529.962 357.544 529.462 357.631C528.962 357.719 528.475 357.837 528 357.987V360.5L525.525 362.375C525.375 362.488 525.209 362.538 525.028 362.525C524.847 362.513 524.687 362.437 524.55 362.3L522.825 360.612C522.675 360.462 522.6 360.287 522.6 360.087C522.6 359.887 522.675 359.713 522.825 359.562C523.925 358.375 525.193 357.484 526.631 356.891C528.068 356.297 529.525 356 531 356ZM525.15 360.8L526.5 359.75V358.587C526.137 358.775 525.787 358.991 525.45 359.234C525.112 359.478 524.762 359.75 524.4 360.05L525.15 360.8ZM536.85 360.8L537.6 360.087C537.237 359.762 536.887 359.481 536.55 359.244C536.212 359.006 535.862 358.8 535.5 358.625V359.75L536.85 360.8Z" fill="white"/>
</g>
<rect x="40" y="84.3047" width="324" height="36" rx="4" fill="#1E75BA"/>
<mask id="mask4_6449_35254" style="mask-type:alpha" maskUnits="userSpaceOnUse" x="56" y="93" width="18" height="19">
<rect x="56" y="93.3047" width="18" height="18" fill="#D9D9D9"/>
</mask>
<g mask="url(#mask4_6449_35254)">
<path d="M60.05 108.305L59 107.255L67.7 98.5547H62.75V97.0547H70.25V104.555H68.75V99.6047L60.05 108.305Z" fill="white"/>
</g>
<path d="M86.6364 106.259V98.7592H87.9091V106.259H86.6364ZM83.5227 103.146V101.873H91.0227V103.146H83.5227ZM97.456 96.5092C97.9332 96.513 98.4105 96.6039 98.8878 96.782C99.3651 96.96 99.8007 97.2554 100.195 97.6683C100.589 98.0774 100.905 98.6361 101.143 99.3445C101.382 100.053 101.501 100.941 101.501 102.009C101.501 103.043 101.403 103.962 101.206 104.765C101.013 105.564 100.732 106.238 100.365 106.788C100.001 107.337 99.5582 107.754 99.0355 108.038C98.5166 108.322 97.9295 108.464 97.2741 108.464C96.6226 108.464 96.0412 108.335 95.5298 108.077C95.0223 107.816 94.6056 107.454 94.2798 106.992C93.9579 106.526 93.7514 105.987 93.6605 105.373H95.0469C95.1719 105.907 95.42 106.348 95.7912 106.697C96.1662 107.041 96.6605 107.214 97.2741 107.214C98.1719 107.214 98.8802 106.822 99.3991 106.038C99.9219 105.254 100.183 104.146 100.183 102.714H100.092C99.8802 103.032 99.6283 103.307 99.3366 103.538C99.045 103.769 98.7211 103.947 98.3651 104.072C98.009 104.197 97.6302 104.259 97.2287 104.259C96.562 104.259 95.9503 104.094 95.3935 103.765C94.8404 103.432 94.3973 102.975 94.0639 102.396C93.7344 101.812 93.5696 101.146 93.5696 100.396C93.5696 99.6835 93.7287 99.032 94.0469 98.4411C94.3688 97.8464 94.8196 97.3729 95.3991 97.0206C95.9825 96.6683 96.6681 96.4979 97.456 96.5092ZM97.456 97.7592C96.9787 97.7592 96.5488 97.8786 96.1662 98.1172C95.7874 98.352 95.4863 98.6702 95.2628 99.0717C95.0431 99.4695 94.9332 99.9107 94.9332 100.396C94.9332 100.88 95.0393 101.322 95.2514 101.719C95.4673 102.113 95.7609 102.428 96.1321 102.663C96.5071 102.894 96.9332 103.009 97.4105 103.009C97.7704 103.009 98.1056 102.939 98.4162 102.799C98.7268 102.655 98.9976 102.46 99.2287 102.214C99.4635 101.964 99.6473 101.682 99.7798 101.367C99.9124 101.049 99.9787 100.718 99.9787 100.373C99.9787 99.9183 99.8688 99.4922 99.6491 99.0945C99.4332 98.6967 99.134 98.3748 98.7514 98.1286C98.3726 97.8823 97.9408 97.7592 97.456 97.7592ZM107.827 96.6683V108.305H106.418V98.1456H106.349L103.509 100.032V98.6001L106.418 96.6683H107.827ZM114.878 96.5092C115.355 96.513 115.832 96.6039 116.31 96.782C116.787 96.96 117.223 97.2554 117.616 97.6683C118.01 98.0774 118.327 98.6361 118.565 99.3445C118.804 100.053 118.923 100.941 118.923 102.009C118.923 103.043 118.825 103.962 118.628 104.765C118.435 105.564 118.154 106.238 117.787 106.788C117.423 107.337 116.98 107.754 116.457 108.038C115.938 108.322 115.351 108.464 114.696 108.464C114.045 108.464 113.463 108.335 112.952 108.077C112.444 107.816 112.027 107.454 111.702 106.992C111.38 106.526 111.173 105.987 111.082 105.373H112.469C112.594 105.907 112.842 106.348 113.213 106.697C113.588 107.041 114.082 107.214 114.696 107.214C115.594 107.214 116.302 106.822 116.821 106.038C117.344 105.254 117.605 104.146 117.605 102.714H117.514C117.302 103.032 117.05 103.307 116.759 103.538C116.467 103.769 116.143 103.947 115.787 104.072C115.431 104.197 115.052 104.259 114.651 104.259C113.984 104.259 113.372 104.094 112.815 103.765C112.262 103.432 111.819 102.975 111.486 102.396C111.156 101.812 110.991 101.146 110.991 100.396C110.991 99.6835 111.151 99.032 111.469 98.4411C111.791 97.8464 112.241 97.3729 112.821 97.0206C113.404 96.6683 114.09 96.4979 114.878 96.5092ZM114.878 97.7592C114.401 97.7592 113.971 97.8786 113.588 98.1172C113.209 98.352 112.908 98.6702 112.685 99.0717C112.465 99.4695 112.355 99.9107 112.355 100.396C112.355 100.88 112.461 101.322 112.673 101.719C112.889 102.113 113.183 102.428 113.554 102.663C113.929 102.894 114.355 103.009 114.832 103.009C115.192 103.009 115.527 102.939 115.838 102.799C116.149 102.655 116.42 102.46 116.651 102.214C116.885 101.964 117.069 101.682 117.202 101.367C117.334 101.049 117.401 100.718 117.401 100.373C117.401 99.9183 117.291 99.4922 117.071 99.0945C116.855 98.6967 116.556 98.3748 116.173 98.1286C115.795 97.8823 115.363 97.7592 114.878 97.7592ZM124.794 108.464C124.127 108.464 123.527 108.331 122.993 108.066C122.459 107.801 122.031 107.437 121.709 106.975C121.387 106.513 121.211 105.987 121.18 105.396H122.544C122.597 105.922 122.836 106.358 123.26 106.702C123.688 107.043 124.199 107.214 124.794 107.214C125.271 107.214 125.696 107.102 126.067 106.879C126.442 106.655 126.735 106.348 126.947 105.958C127.163 105.564 127.271 105.119 127.271 104.623C127.271 104.115 127.16 103.663 126.936 103.265C126.716 102.863 126.413 102.547 126.027 102.316C125.641 102.085 125.199 101.968 124.703 101.964C124.347 101.96 123.982 102.015 123.607 102.129C123.232 102.238 122.923 102.38 122.68 102.555L121.362 102.396L122.067 96.6683H128.112V97.9183H123.249L122.839 101.35H122.908C123.146 101.161 123.446 101.004 123.805 100.879C124.165 100.754 124.54 100.691 124.93 100.691C125.643 100.691 126.277 100.862 126.834 101.202C127.394 101.54 127.834 102.002 128.152 102.589C128.474 103.176 128.635 103.846 128.635 104.6C128.635 105.343 128.468 106.005 128.135 106.589C127.805 107.168 127.351 107.627 126.771 107.964C126.192 108.297 125.533 108.464 124.794 108.464ZM130.892 108.305V107.282L134.733 103.077C135.184 102.585 135.555 102.157 135.847 101.793C136.138 101.426 136.354 101.081 136.494 100.759C136.638 100.433 136.71 100.093 136.71 99.7365C136.71 99.3274 136.612 98.9732 136.415 98.674C136.222 98.3748 135.956 98.1437 135.619 97.9808C135.282 97.8179 134.903 97.7365 134.483 97.7365C134.036 97.7365 133.646 97.8293 133.312 98.0149C132.983 98.1967 132.727 98.4524 132.545 98.782C132.367 99.1115 132.278 99.4979 132.278 99.9411H130.938C130.938 99.2592 131.095 98.6607 131.409 98.1456C131.723 97.6304 132.152 97.2289 132.693 96.9411C133.239 96.6532 133.85 96.5092 134.528 96.5092C135.21 96.5092 135.814 96.6532 136.341 96.9411C136.867 97.2289 137.28 97.6172 137.58 98.1058C137.879 98.5945 138.028 99.138 138.028 99.7365C138.028 100.165 137.951 100.583 137.795 100.992C137.644 101.397 137.379 101.85 137 102.35C136.625 102.846 136.104 103.452 135.438 104.168L132.824 106.964V107.055H138.233V108.305H130.892ZM141.602 99.5774L143.693 103.146L145.784 99.5774H147.33L144.511 103.941L147.33 108.305H145.784L143.693 104.918L141.602 108.305H140.057L142.83 103.941L140.057 99.5774H141.602ZM150.243 99.5774L152.334 103.146L154.425 99.5774H155.97L153.152 103.941L155.97 108.305H154.425L152.334 104.918L150.243 108.305H148.697L151.47 103.941L148.697 99.5774H150.243ZM158.884 99.5774L160.974 103.146L163.065 99.5774H164.611L161.793 103.941L164.611 108.305H163.065L160.974 104.918L158.884 108.305H157.338L160.111 103.941L157.338 99.5774H158.884ZM167.524 99.5774L169.615 103.146L171.706 99.5774H173.251L170.433 103.941L173.251 108.305H171.706L169.615 104.918L167.524 108.305H165.979L168.751 103.941L165.979 99.5774H167.524ZM176.165 99.5774L178.256 103.146L180.347 99.5774H181.892L179.074 103.941L181.892 108.305H180.347L178.256 104.918L176.165 108.305H174.619L177.392 103.941L174.619 99.5774H176.165ZM187.578 108.464C186.722 108.464 185.993 108.231 185.391 107.765C184.788 107.295 184.328 106.615 184.01 105.725C183.692 104.831 183.533 103.752 183.533 102.487C183.533 101.229 183.692 100.155 184.01 99.2649C184.332 98.371 184.794 97.6892 185.396 97.2195C186.002 96.746 186.73 96.5092 187.578 96.5092C188.427 96.5092 189.152 96.746 189.754 97.2195C190.36 97.6892 190.822 98.371 191.141 99.2649C191.463 100.155 191.624 101.229 191.624 102.487C191.624 103.752 191.464 104.831 191.146 105.725C190.828 106.615 190.368 107.295 189.766 107.765C189.163 108.231 188.434 108.464 187.578 108.464ZM187.578 107.214C188.427 107.214 189.086 106.805 189.555 105.987C190.025 105.168 190.26 104.002 190.26 102.487C190.26 101.479 190.152 100.621 189.936 99.9126C189.724 99.2043 189.417 98.6645 189.016 98.2933C188.618 97.9221 188.139 97.7365 187.578 97.7365C186.737 97.7365 186.08 98.1513 185.607 98.9808C185.133 99.8066 184.896 100.975 184.896 102.487C184.896 103.494 185.002 104.35 185.214 105.055C185.427 105.759 185.732 106.295 186.129 106.663C186.531 107.03 187.014 107.214 187.578 107.214ZM193.783 108.305V107.282L197.624 103.077C198.074 102.585 198.446 102.157 198.737 101.793C199.029 101.426 199.245 101.081 199.385 100.759C199.529 100.433 199.601 100.093 199.601 99.7365C199.601 99.3274 199.502 98.9732 199.305 98.674C199.112 98.3748 198.847 98.1437 198.51 97.9808C198.173 97.8179 197.794 97.7365 197.374 97.7365C196.927 97.7365 196.536 97.8293 196.203 98.0149C195.874 98.1967 195.618 98.4524 195.436 98.782C195.258 99.1115 195.169 99.4979 195.169 99.9411H193.828C193.828 99.2592 193.985 98.6607 194.3 98.1456C194.614 97.6304 195.042 97.2289 195.584 96.9411C196.129 96.6532 196.741 96.5092 197.419 96.5092C198.101 96.5092 198.705 96.6532 199.232 96.9411C199.758 97.2289 200.171 97.6172 200.47 98.1058C200.769 98.5945 200.919 99.138 200.919 99.7365C200.919 100.165 200.841 100.583 200.686 100.992C200.535 101.397 200.269 101.85 199.891 102.35C199.516 102.846 198.995 103.452 198.328 104.168L195.714 106.964V107.055H201.124V108.305H193.783Z" fill="white"/>
<path d="M220.824 102.214C220.824 103.288 220.63 104.216 220.242 104.998C219.854 105.78 219.322 106.383 218.646 106.808C217.97 107.232 217.198 107.444 216.33 107.444C215.461 107.444 214.689 107.232 214.013 106.808C213.337 106.383 212.805 105.78 212.417 104.998C212.029 104.216 211.835 103.288 211.835 102.214C211.835 101.14 212.029 100.212 212.417 99.4297C212.805 98.6475 213.337 98.0443 214.013 97.62C214.689 97.1958 215.461 96.9837 216.33 96.9837C217.198 96.9837 217.97 97.1958 218.646 97.62C219.322 98.0443 219.854 98.6475 220.242 99.4297C220.63 100.212 220.824 101.14 220.824 102.214ZM219.631 102.214C219.631 101.332 219.483 100.588 219.188 99.9815C218.897 99.375 218.5 98.916 218 98.6044C217.503 98.2929 216.946 98.1371 216.33 98.1371C215.713 98.1371 215.155 98.2929 214.654 98.6044C214.157 98.916 213.761 99.375 213.466 99.9815C213.174 100.588 213.028 101.332 213.028 102.214C213.028 103.095 213.174 103.839 213.466 104.446C213.761 105.053 214.157 105.512 214.654 105.823C215.155 106.135 215.713 106.29 216.33 106.29C216.946 106.29 217.503 106.135 218 105.823C218.5 105.512 218.897 105.053 219.188 104.446C219.483 103.839 219.631 103.095 219.631 102.214ZM227.55 104.183V99.6683H228.724V107.305H227.55V106.012H227.471C227.292 106.4 227.013 106.73 226.636 107.001C226.258 107.27 225.781 107.404 225.204 107.404C224.727 107.404 224.302 107.3 223.931 107.091C223.56 106.879 223.268 106.561 223.056 106.136C222.844 105.709 222.738 105.17 222.738 104.521V99.6683H223.911V104.441C223.911 104.998 224.067 105.442 224.379 105.773C224.693 106.105 225.094 106.271 225.582 106.271C225.873 106.271 226.17 106.196 226.472 106.047C226.777 105.898 227.032 105.669 227.237 105.361C227.446 105.053 227.55 104.66 227.55 104.183ZM234.194 99.6683V100.663H230.236V99.6683H234.194ZM231.39 97.8388H232.563V105.117C232.563 105.449 232.611 105.697 232.707 105.863C232.807 106.025 232.933 106.135 233.085 106.191C233.241 106.244 233.405 106.271 233.577 106.271C233.706 106.271 233.813 106.264 233.895 106.251C233.978 106.234 234.045 106.221 234.094 106.211L234.333 107.265C234.253 107.295 234.142 107.325 234 107.354C233.857 107.388 233.677 107.404 233.458 107.404C233.126 107.404 232.802 107.333 232.483 107.19C232.169 107.048 231.907 106.831 231.698 106.539C231.492 106.247 231.39 105.879 231.39 105.435V97.8388ZM238.959 110.327C238.392 110.327 237.905 110.254 237.497 110.109C237.09 109.966 236.75 109.777 236.478 109.542C236.21 109.31 235.996 109.061 235.837 108.796L236.771 108.14C236.878 108.279 237.012 108.438 237.174 108.617C237.337 108.799 237.559 108.957 237.84 109.089C238.125 109.225 238.498 109.293 238.959 109.293C239.575 109.293 240.084 109.144 240.485 108.846C240.886 108.548 241.087 108.08 241.087 107.444V105.893H240.987C240.901 106.032 240.779 106.204 240.619 106.41C240.464 106.612 240.238 106.793 239.943 106.952C239.652 107.107 239.257 107.185 238.76 107.185C238.144 107.185 237.59 107.04 237.1 106.748C236.612 106.456 236.226 106.032 235.941 105.475C235.66 104.918 235.519 104.242 235.519 103.447C235.519 102.665 235.656 101.983 235.931 101.403C236.206 100.82 236.589 100.369 237.08 100.051C237.57 99.7296 238.137 99.5689 238.78 99.5689C239.277 99.5689 239.672 99.6518 239.963 99.8175C240.258 99.9799 240.484 100.165 240.639 100.374C240.798 100.58 240.921 100.749 241.007 100.881H241.127V99.6683H242.26V107.523C242.26 108.18 242.111 108.713 241.813 109.124C241.518 109.539 241.12 109.842 240.619 110.034C240.122 110.23 239.569 110.327 238.959 110.327ZM238.919 106.131C239.39 106.131 239.788 106.024 240.112 105.808C240.437 105.593 240.684 105.283 240.853 104.879C241.022 104.474 241.107 103.99 241.107 103.427C241.107 102.877 241.024 102.391 240.858 101.97C240.692 101.549 240.447 101.219 240.122 100.981C239.798 100.742 239.396 100.623 238.919 100.623C238.422 100.623 238.008 100.749 237.676 101.001C237.348 101.253 237.101 101.591 236.936 102.015C236.773 102.439 236.692 102.91 236.692 103.427C236.692 103.957 236.775 104.426 236.941 104.834C237.11 105.238 237.358 105.556 237.686 105.788C238.018 106.017 238.429 106.131 238.919 106.131ZM247.51 107.464C246.821 107.464 246.216 107.3 245.695 106.972C245.178 106.643 244.774 106.184 244.482 105.594C244.194 105.004 244.05 104.315 244.05 103.526C244.05 102.731 244.194 102.036 244.482 101.443C244.774 100.85 245.178 100.389 245.695 100.061C246.216 99.733 246.821 99.5689 247.51 99.5689C248.2 99.5689 248.803 99.733 249.32 100.061C249.84 100.389 250.244 100.85 250.533 101.443C250.825 102.036 250.97 102.731 250.97 103.526C250.97 104.315 250.825 105.004 250.533 105.594C250.244 106.184 249.84 106.643 249.32 106.972C248.803 107.3 248.2 107.464 247.51 107.464ZM247.51 106.41C248.034 106.41 248.465 106.276 248.803 106.007C249.141 105.739 249.391 105.386 249.553 104.948C249.716 104.511 249.797 104.037 249.797 103.526C249.797 103.016 249.716 102.54 249.553 102.099C249.391 101.659 249.141 101.302 248.803 101.031C248.465 100.759 248.034 100.623 247.51 100.623C246.986 100.623 246.556 100.759 246.218 101.031C245.879 101.302 245.629 101.659 245.467 102.099C245.304 102.54 245.223 103.016 245.223 103.526C245.223 104.037 245.304 104.511 245.467 104.948C245.629 105.386 245.879 105.739 246.218 106.007C246.556 106.276 246.986 106.41 247.51 106.41ZM252.761 107.305V99.6683H253.935V107.305H252.761ZM253.358 98.3956C253.129 98.3956 252.932 98.3177 252.766 98.1619C252.604 98.0062 252.523 97.8189 252.523 97.6001C252.523 97.3814 252.604 97.1941 252.766 97.0384C252.932 96.8826 253.129 96.8047 253.358 96.8047C253.587 96.8047 253.782 96.8826 253.945 97.0384C254.11 97.1941 254.193 97.3814 254.193 97.6001C254.193 97.8189 254.11 98.0062 253.945 98.1619C253.782 98.3177 253.587 98.3956 253.358 98.3956ZM257.257 102.711V107.305H256.084V99.6683H257.217V100.862H257.317C257.496 100.474 257.767 100.162 258.132 99.9268C258.497 99.6882 258.967 99.5689 259.544 99.5689C260.061 99.5689 260.513 99.675 260.901 99.8871C261.289 100.096 261.59 100.414 261.806 100.842C262.021 101.266 262.129 101.803 262.129 102.452V107.305H260.956V102.532C260.956 101.932 260.8 101.465 260.488 101.13C260.177 100.792 259.749 100.623 259.206 100.623C258.831 100.623 258.497 100.704 258.202 100.866C257.91 101.029 257.68 101.266 257.51 101.577C257.341 101.889 257.257 102.267 257.257 102.711ZM267.355 110.327C266.789 110.327 266.301 110.254 265.894 110.109C265.486 109.966 265.146 109.777 264.875 109.542C264.606 109.31 264.392 109.061 264.233 108.796L265.168 108.14C265.274 108.279 265.408 108.438 265.571 108.617C265.733 108.799 265.955 108.957 266.237 109.089C266.522 109.225 266.895 109.293 267.355 109.293C267.972 109.293 268.481 109.144 268.882 108.846C269.283 108.548 269.483 108.08 269.483 107.444V105.893H269.384C269.298 106.032 269.175 106.204 269.016 106.41C268.86 106.612 268.635 106.793 268.34 106.952C268.048 107.107 267.654 107.185 267.157 107.185C266.54 107.185 265.987 107.04 265.496 106.748C265.009 106.456 264.623 106.032 264.338 105.475C264.056 104.918 263.915 104.242 263.915 103.447C263.915 102.665 264.053 101.983 264.328 101.403C264.603 100.82 264.986 100.369 265.476 100.051C265.967 99.7296 266.533 99.5689 267.176 99.5689C267.674 99.5689 268.068 99.6518 268.36 99.8175C268.655 99.9799 268.88 100.165 269.036 100.374C269.195 100.58 269.318 100.749 269.404 100.881H269.523V99.6683H270.657V107.523C270.657 108.18 270.507 108.713 270.209 109.124C269.914 109.539 269.516 109.842 269.016 110.034C268.519 110.23 267.965 110.327 267.355 110.327ZM267.316 106.131C267.786 106.131 268.184 106.024 268.509 105.808C268.834 105.593 269.081 105.283 269.25 104.879C269.419 104.474 269.503 103.99 269.503 103.427C269.503 102.877 269.42 102.391 269.255 101.97C269.089 101.549 268.844 101.219 268.519 100.981C268.194 100.742 267.793 100.623 267.316 100.623C266.819 100.623 266.404 100.749 266.073 101.001C265.745 101.253 265.498 101.591 265.332 102.015C265.17 102.439 265.088 102.91 265.088 103.427C265.088 103.957 265.171 104.426 265.337 104.834C265.506 105.238 265.755 105.556 266.083 105.788C266.414 106.017 266.825 106.131 267.316 106.131Z" fill="white"/>
<rect x="288" y="89.3047" width="26" height="26" rx="13" fill="#29A653"/>
<g clip-path="url(#clip1_6449_35254)">
<path d="M296.905 97.0547C296.95 97.7222 297.062 98.3747 297.242 98.9972L296.342 99.8972C296.035 98.9972 295.84 98.0447 295.773 97.0547H296.905ZM304.3 106.07C304.938 106.25 305.59 106.362 306.25 106.407V107.525C305.26 107.457 304.307 107.262 303.4 106.962L304.3 106.07ZM297.625 95.5547H295C294.587 95.5547 294.25 95.8922 294.25 96.3047C294.25 103.347 299.957 109.055 307 109.055C307.413 109.055 307.75 108.717 307.75 108.305V105.687C307.75 105.275 307.413 104.937 307 104.937C306.07 104.937 305.163 104.787 304.323 104.51C304.248 104.48 304.165 104.472 304.09 104.472C303.895 104.472 303.707 104.547 303.557 104.69L301.908 106.34C299.785 105.252 298.045 103.52 296.965 101.397L298.615 99.7472C298.825 99.5372 298.885 99.2447 298.802 98.9822C298.525 98.1422 298.375 97.2422 298.375 96.3047C298.375 95.8922 298.037 95.5547 297.625 95.5547Z" fill="white"/>
</g>
<rect x="322" y="89.3047" width="26" height="26" rx="13" fill="#CC5229"/>
<mask id="mask5_6449_35254" style="mask-type:alpha" maskUnits="userSpaceOnUse" x="326" y="93" width="18" height="19">
<rect x="326" y="93.3047" width="18" height="18" fill="#D9D9D9"/>
</mask>
<g mask="url(#mask5_6449_35254)">
<path d="M335 99.3047C336.475 99.3047 337.928 99.6017 339.359 100.196C340.79 100.789 342.062 101.68 343.175 102.867C343.325 103.017 343.4 103.192 343.4 103.392C343.4 103.592 343.325 103.767 343.175 103.917L341.45 105.605C341.312 105.742 341.153 105.817 340.972 105.83C340.79 105.842 340.625 105.792 340.475 105.68L338 103.805V101.292C337.525 101.142 337.037 101.023 336.537 100.936C336.037 100.848 335.525 100.805 335 100.805C334.475 100.805 333.962 100.848 333.462 100.936C332.962 101.023 332.475 101.142 332 101.292V103.805L329.525 105.68C329.375 105.792 329.209 105.842 329.028 105.83C328.847 105.817 328.687 105.742 328.55 105.605L326.825 103.917C326.675 103.767 326.6 103.592 326.6 103.392C326.6 103.192 326.675 103.017 326.825 102.867C327.925 101.68 329.193 100.789 330.631 100.196C332.068 99.6017 333.525 99.3047 335 99.3047ZM329.15 104.105L330.5 103.055V101.892C330.137 102.08 329.787 102.295 329.45 102.539C329.112 102.783 328.762 103.055 328.4 103.355L329.15 104.105ZM340.85 104.105L341.6 103.392C341.237 103.067 340.887 102.786 340.55 102.548C340.212 102.311 339.862 102.105 339.5 101.93V103.055L340.85 104.105Z" fill="white"/>
</g>
<g clip-path="url(#clip2_6449_35254)">
<path d="M128.333 355.139C127.697 351.883 126.105 348.891 123.76 346.545C121.414 344.199 118.422 342.607 115.166 341.972M141.666 355.139C140.915 348.374 137.885 342.067 133.076 337.251C128.267 332.436 121.963 329.399 115.199 328.639M88.5993 331.972H78.5993C77.671 331.968 76.7521 332.158 75.9015 332.53C75.0509 332.902 74.2874 333.448 73.6598 334.132C73.0322 334.816 72.5544 335.623 72.257 336.503C71.9596 337.382 71.8491 338.314 71.9327 339.239C73.0472 349.496 76.5522 359.349 82.166 368.005C87.2838 376.059 94.1121 382.887 102.166 388.005C110.862 393.639 120.763 397.144 131.066 398.239C131.988 398.322 132.917 398.212 133.794 397.917C134.671 397.621 135.477 397.147 136.161 396.523C136.844 395.899 137.39 395.139 137.764 394.293C138.138 393.446 138.332 392.531 138.333 391.605V381.605C138.349 379.988 137.776 378.419 136.721 377.193C135.666 375.966 134.201 375.165 132.599 374.939C129.399 374.516 126.257 373.734 123.233 372.605C122.04 372.157 120.743 372.06 119.496 372.326C118.25 372.591 117.106 373.209 116.199 374.105L111.966 378.339C103.621 373.593 96.7112 366.684 91.966 358.339L96.1993 354.105C97.0956 353.199 97.7132 352.055 97.979 350.808C98.2449 349.562 98.1478 348.265 97.6994 347.072C96.5709 344.048 95.7881 340.905 95.366 337.705C95.1376 336.086 94.322 334.607 93.0744 333.55C91.8267 332.493 90.2341 331.931 88.5993 331.972Z" stroke="#E2F0FF" stroke-width="8.83333" stroke-linecap="round" stroke-linejoin="round"/>
</g>
<path d="M510 119.75C504.063 119.75 499.25 114.937 499.25 109H490.75C490.75 119.631 499.369 128.25 510 128.25C520.631 128.25 529.25 119.631 529.25 109H520.75C520.75 114.937 515.937 119.75 510 119.75Z" fill="#E2F0FF"/>
<path d="M495.75 99V86.5H504.25V99H495.75Z" fill="#E2F0FF"/>
<path d="M515.75 99V86.5H524.25V99H515.75Z" fill="#E2F0FF"/>
<path fill-rule="evenodd" clip-rule="evenodd" d="M460 84C460 75.7157 466.716 69 475 69H545C553.284 69 560 75.7157 560 84V129C560 137.284 553.284 144 545 144H520V159L500 144H475C466.716 144 460 137.284 460 129V84ZM475 79H545C547.761 79 550 81.2386 550 84V129C550 131.761 547.761 134 545 134H475C472.239 134 470 131.761 470 129V84C470 81.2386 472.239 79 475 79Z" fill="#E2F0FF"/>
<defs>
<filter id="filter0_d_6449_35254" x="124" y="160.305" width="337" height="72" filterUnits="userSpaceOnUse" color-interpolation-filters="sRGB">
<feFlood flood-opacity="0" result="BackgroundImageFix"/>
<feColorMatrix in="SourceAlpha" type="matrix" values="0 0 0 0 0 0 0 0 0 0 0 0 0 0 0 0 0 0 127 0" result="hardAlpha"/>
<feOffset dy="4"/>
<feGaussianBlur stdDeviation="2"/>
<feComposite in2="hardAlpha" operator="out"/>
<feColorMatrix type="matrix" values="0 0 0 0 0 0 0 0 0 0 0 0 0 0 0 0 0 0 0.25 0"/>
<feBlend mode="normal" in2="BackgroundImageFix" result="effect1_dropShadow_6449_35254"/>
<feBlend mode="normal" in="SourceGraphic" in2="effect1_dropShadow_6449_35254" result="shape"/>
</filter>
<filter id="filter1_d_6449_35254" x="294" y="263.305" width="133" height="46" filterUnits="userSpaceOnUse" color-interpolation-filters="sRGB">
<feFlood flood-opacity="0" result="BackgroundImageFix"/>
<feColorMatrix in="SourceAlpha" type="matrix" values="0 0 0 0 0 0 0 0 0 0 0 0 0 0 0 0 0 0 127 0" result="hardAlpha"/>
<feOffset dy="4"/>
<feGaussianBlur stdDeviation="2"/>
<feComposite in2="hardAlpha" operator="out"/>
<feColorMatrix type="matrix" values="0 0 0 0 0 0 0 0 0 0 0 0 0 0 0 0 0 0 0.25 0"/>
<feBlend mode="normal" in2="BackgroundImageFix" result="effect1_dropShadow_6449_35254"/>
<feBlend mode="normal" in="SourceGraphic" in2="effect1_dropShadow_6449_35254" result="shape"/>
</filter>
<clipPath id="clip0_6449_35254">
<rect width="18" height="18" fill="white" transform="translate(488 350)"/>
</clipPath>
<clipPath id="clip1_6449_35254">
<rect width="18" height="18" fill="white" transform="translate(292 93.3047)"/>
</clipPath>
<clipPath id="clip2_6449_35254">
<rect width="80" height="80" fill="white" transform="matrix(0 -1 -1 0 145 405.305)"/>
</clipPath>
</defs>
</svg>
