<svg width="600" height="450" viewBox="0 0 600 450" fill="none" xmlns="http://www.w3.org/2000/svg">
<path fill-rule="evenodd" clip-rule="evenodd" d="M146.72 190.39C158.225 149.24 180.297 110.872 215.771 88.7753C254.023 64.9473 302.135 50.3453 341.6 68.9976C379.23 86.783 384.297 137.135 401.273 176.449C417.79 214.7 446.709 249.936 437.766 291.706C428 337.316 396.39 380.121 354.202 396.29C314.486 411.511 275.048 386.134 237.331 368.525C204.754 353.316 172.416 336.475 155.703 303.618C138.211 269.231 136.025 228.642 146.72 190.39Z" fill="#DBEAF6"/>
<g filter="url(#filter0_d_2077_29071)">
<path d="M128 168.305C128 163.887 131.582 160.305 136 160.305H466C470.418 160.305 474 163.887 474 168.305V216.305C474 220.723 470.418 224.305 466 224.305H136C131.582 224.305 128 220.723 128 216.305V168.305Z" fill="white"/>
<rect x="144" y="172.305" width="40" height="40" rx="20" fill="white"/>
<rect x="145.25" y="173.555" width="37.5" height="37.5" rx="18.75" fill="#4CD9D9" fill-opacity="0.16"/>
<path d="M157.986 197.805H154.042V186.169H158.065C159.22 186.169 160.213 186.402 161.042 186.868C161.876 187.33 162.516 187.995 162.963 188.862C163.41 189.729 163.633 190.767 163.633 191.976C163.633 193.188 163.408 194.229 162.957 195.101C162.51 195.972 161.864 196.64 161.02 197.106C160.179 197.572 159.167 197.805 157.986 197.805ZM156.15 195.981H157.883C158.694 195.981 159.37 195.834 159.912 195.538C160.453 195.239 160.861 194.794 161.133 194.203C161.406 193.608 161.542 192.866 161.542 191.976C161.542 191.085 161.406 190.347 161.133 189.76C160.861 189.169 160.457 188.727 159.923 188.436C159.393 188.14 158.734 187.993 157.946 187.993H156.15V195.981ZM165.956 197.805V186.169H170.32C171.214 186.169 171.964 186.335 172.57 186.669C173.18 187.002 173.64 187.46 173.95 188.044C174.265 188.623 174.422 189.282 174.422 190.021C174.422 190.767 174.265 191.43 173.95 192.01C173.636 192.589 173.172 193.046 172.558 193.379C171.945 193.709 171.189 193.873 170.291 193.873H167.399V192.14H170.007C170.53 192.14 170.958 192.049 171.291 191.868C171.625 191.686 171.871 191.436 172.03 191.118C172.193 190.799 172.274 190.434 172.274 190.021C172.274 189.608 172.193 189.245 172.03 188.93C171.871 188.616 171.623 188.371 171.286 188.197C170.952 188.019 170.522 187.93 169.996 187.93H168.064V197.805H165.956Z" fill="#212528"/>
<circle cx="177.5" cy="205.305" r="4" fill="#29A653"/>
<circle cx="177.5" cy="205.305" r="4" stroke="white"/>
<rect x="145.25" y="173.555" width="37.5" height="37.5" rx="18.75" stroke="white" stroke-width="2.5"/>
<path d="M195.75 208.424C195.108 208.424 194.561 208.25 194.109 207.9C193.658 207.548 193.313 207.038 193.074 206.37C192.835 205.7 192.716 204.89 192.716 203.941C192.716 202.998 192.835 202.193 193.074 201.525C193.315 200.855 193.662 200.343 194.114 199.991C194.568 199.636 195.114 199.459 195.75 199.459C196.386 199.459 196.93 199.636 197.382 199.991C197.837 200.343 198.183 200.855 198.422 201.525C198.663 202.193 198.784 202.998 198.784 203.941C198.784 204.89 198.665 205.7 198.426 206.37C198.188 207.038 197.842 207.548 197.391 207.9C196.939 208.25 196.392 208.424 195.75 208.424ZM195.75 207.487C196.386 207.487 196.881 207.18 197.233 206.566C197.585 205.953 197.761 205.078 197.761 203.941C197.761 203.186 197.68 202.542 197.518 202.011C197.359 201.48 197.129 201.075 196.828 200.797C196.53 200.518 196.17 200.379 195.75 200.379C195.119 200.379 194.626 200.69 194.271 201.312C193.916 201.932 193.739 202.808 193.739 203.941C193.739 204.697 193.818 205.339 193.977 205.868C194.136 206.396 194.365 206.798 194.663 207.074C194.964 207.349 195.327 207.487 195.75 207.487ZM203.25 208.424C202.608 208.424 202.061 208.25 201.609 207.9C201.158 207.548 200.813 207.038 200.574 206.37C200.335 205.7 200.216 204.89 200.216 203.941C200.216 202.998 200.335 202.193 200.574 201.525C200.815 200.855 201.162 200.343 201.614 199.991C202.068 199.636 202.614 199.459 203.25 199.459C203.886 199.459 204.43 199.636 204.882 199.991C205.337 200.343 205.683 200.855 205.922 201.525C206.163 202.193 206.284 202.998 206.284 203.941C206.284 204.89 206.165 205.7 205.926 206.37C205.688 207.038 205.342 207.548 204.891 207.9C204.439 208.25 203.892 208.424 203.25 208.424ZM203.25 207.487C203.886 207.487 204.381 207.18 204.733 206.566C205.085 205.953 205.261 205.078 205.261 203.941C205.261 203.186 205.18 202.542 205.018 202.011C204.859 201.48 204.629 201.075 204.328 200.797C204.03 200.518 203.67 200.379 203.25 200.379C202.619 200.379 202.126 200.69 201.771 201.312C201.416 201.932 201.239 202.808 201.239 203.941C201.239 204.697 201.318 205.339 201.477 205.868C201.636 206.396 201.865 206.798 202.163 207.074C202.464 207.349 202.827 207.487 203.25 207.487ZM210.699 208.424C210.114 208.424 209.597 208.321 209.148 208.113C208.702 207.903 208.354 207.615 208.104 207.248C207.854 206.879 207.73 206.459 207.733 205.987C207.73 205.618 207.803 205.277 207.95 204.964C208.098 204.649 208.3 204.386 208.555 204.176C208.814 203.963 209.102 203.828 209.42 203.771V203.72C209.003 203.612 208.67 203.378 208.423 203.017C208.176 202.653 208.054 202.24 208.057 201.777C208.054 201.334 208.166 200.937 208.393 200.588C208.621 200.238 208.933 199.963 209.331 199.761C209.732 199.559 210.188 199.459 210.699 199.459C211.205 199.459 211.656 199.559 212.054 199.761C212.452 199.963 212.764 200.238 212.991 200.588C213.222 200.937 213.338 201.334 213.341 201.777C213.338 202.24 213.212 202.653 212.962 203.017C212.714 203.378 212.386 203.612 211.977 203.72V203.771C212.293 203.828 212.577 203.963 212.83 204.176C213.082 204.386 213.284 204.649 213.435 204.964C213.585 205.277 213.662 205.618 213.665 205.987C213.662 206.459 213.534 206.879 213.281 207.248C213.031 207.615 212.683 207.903 212.237 208.113C211.794 208.321 211.281 208.424 210.699 208.424ZM210.699 207.487C211.094 207.487 211.435 207.423 211.722 207.295C212.009 207.167 212.23 206.987 212.386 206.754C212.543 206.521 212.622 206.248 212.625 205.936C212.622 205.606 212.537 205.315 212.369 205.062C212.202 204.809 211.973 204.611 211.683 204.466C211.396 204.321 211.068 204.248 210.699 204.248C210.327 204.248 209.994 204.321 209.702 204.466C209.412 204.611 209.183 204.809 209.016 205.062C208.851 205.315 208.77 205.606 208.773 205.936C208.77 206.248 208.845 206.521 208.999 206.754C209.155 206.987 209.378 207.167 209.668 207.295C209.957 207.423 210.301 207.487 210.699 207.487ZM210.699 203.345C211.011 203.345 211.288 203.282 211.53 203.157C211.774 203.032 211.966 202.858 212.105 202.633C212.244 202.409 212.315 202.146 212.318 201.845C212.315 201.549 212.246 201.292 212.109 201.074C211.973 200.852 211.784 200.682 211.543 200.562C211.301 200.44 211.02 200.379 210.699 200.379C210.372 200.379 210.087 200.44 209.842 200.562C209.598 200.682 209.409 200.852 209.276 201.074C209.142 201.292 209.077 201.549 209.08 201.845C209.077 202.146 209.143 202.409 209.28 202.633C209.419 202.858 209.611 203.032 209.855 203.157C210.099 203.282 210.381 203.345 210.699 203.345Z" fill="#5D6164"/>
<path d="M197.091 188.305H193.148V176.669H197.17C198.326 176.669 199.318 176.902 200.148 177.368C200.981 177.83 201.621 178.495 202.068 179.362C202.515 180.229 202.739 181.267 202.739 182.476C202.739 183.688 202.513 184.729 202.062 185.601C201.616 186.472 200.97 187.14 200.125 187.606C199.284 188.072 198.273 188.305 197.091 188.305ZM195.256 186.481H196.989C197.799 186.481 198.475 186.334 199.017 186.038C199.559 185.739 199.966 185.294 200.239 184.703C200.511 184.108 200.648 183.366 200.648 182.476C200.648 181.585 200.511 180.847 200.239 180.26C199.966 179.669 199.563 179.227 199.028 178.936C198.498 178.64 197.839 178.493 197.051 178.493H195.256V186.481ZM208.514 188.476C207.639 188.476 206.884 188.294 206.247 187.93C205.615 187.563 205.128 187.044 204.787 186.373C204.446 185.699 204.276 184.905 204.276 183.993C204.276 183.095 204.446 182.307 204.787 181.629C205.132 180.947 205.613 180.417 206.23 180.038C206.848 179.655 207.573 179.464 208.406 179.464C208.944 179.464 209.452 179.551 209.929 179.726C210.41 179.896 210.834 180.161 211.202 180.521C211.573 180.881 211.865 181.339 212.077 181.896C212.289 182.449 212.395 183.108 212.395 183.873V184.504H205.241V183.118H210.423C210.42 182.724 210.334 182.373 210.168 182.066C210.001 181.756 209.768 181.512 209.469 181.334C209.173 181.155 208.829 181.066 208.435 181.066C208.014 181.066 207.645 181.169 207.327 181.373C207.009 181.574 206.76 181.839 206.582 182.169C206.408 182.495 206.319 182.852 206.315 183.243V184.453C206.315 184.96 206.408 185.396 206.594 185.76C206.779 186.12 207.039 186.396 207.372 186.589C207.705 186.779 208.096 186.873 208.543 186.873C208.842 186.873 209.113 186.832 209.355 186.748C209.598 186.661 209.808 186.534 209.986 186.368C210.164 186.201 210.298 185.995 210.389 185.748L212.31 185.964C212.188 186.472 211.957 186.915 211.616 187.294C211.279 187.669 210.848 187.96 210.321 188.169C209.795 188.373 209.192 188.476 208.514 188.476ZM221.68 179.578L218.572 188.305H216.3L213.192 179.578H215.385L217.391 186.061H217.482L219.493 179.578H221.68ZM226.67 188.476C225.795 188.476 225.04 188.294 224.403 187.93C223.771 187.563 223.284 187.044 222.943 186.373C222.602 185.699 222.432 184.905 222.432 183.993C222.432 183.095 222.602 182.307 222.943 181.629C223.288 180.947 223.769 180.417 224.386 180.038C225.004 179.655 225.729 179.464 226.562 179.464C227.1 179.464 227.608 179.551 228.085 179.726C228.566 179.896 228.991 180.161 229.358 180.521C229.729 180.881 230.021 181.339 230.233 181.896C230.445 182.449 230.551 183.108 230.551 183.873V184.504H223.398V183.118H228.58C228.576 182.724 228.491 182.373 228.324 182.066C228.157 181.756 227.924 181.512 227.625 181.334C227.33 181.155 226.985 181.066 226.591 181.066C226.17 181.066 225.801 181.169 225.483 181.373C225.165 181.574 224.917 181.839 224.739 182.169C224.564 182.495 224.475 182.852 224.472 183.243V184.453C224.472 184.96 224.564 185.396 224.75 185.76C224.936 186.12 225.195 186.396 225.528 186.589C225.862 186.779 226.252 186.873 226.699 186.873C226.998 186.873 227.269 186.832 227.511 186.748C227.754 186.661 227.964 186.534 228.142 186.368C228.32 186.201 228.455 185.995 228.545 185.748L230.466 185.964C230.345 186.472 230.114 186.915 229.773 187.294C229.436 187.669 229.004 187.96 228.477 188.169C227.951 188.373 227.348 188.476 226.67 188.476ZM234.348 183.191V188.305H232.291V179.578H234.257V181.061H234.359C234.56 180.572 234.88 180.184 235.32 179.896C235.763 179.608 236.31 179.464 236.962 179.464C237.564 179.464 238.089 179.593 238.536 179.851C238.986 180.108 239.335 180.481 239.581 180.97C239.831 181.459 239.954 182.051 239.95 182.748V188.305H237.893V183.066C237.893 182.483 237.742 182.027 237.439 181.697C237.14 181.368 236.725 181.203 236.195 181.203C235.835 181.203 235.515 181.282 235.234 181.441C234.958 181.597 234.74 181.822 234.581 182.118C234.426 182.413 234.348 182.771 234.348 183.191ZM245.28 188.459C244.594 188.459 243.981 188.282 243.439 187.93C242.897 187.578 242.469 187.066 242.155 186.396C241.84 185.726 241.683 184.911 241.683 183.953C241.683 182.983 241.842 182.165 242.161 181.498C242.482 180.828 242.916 180.322 243.462 179.981C244.007 179.637 244.615 179.464 245.286 179.464C245.797 179.464 246.217 179.551 246.547 179.726C246.876 179.896 247.138 180.102 247.331 180.345C247.524 180.584 247.674 180.809 247.78 181.021H247.865V176.669H249.928V188.305H247.905V186.93H247.78C247.674 187.142 247.52 187.368 247.32 187.606C247.119 187.841 246.854 188.042 246.524 188.209C246.195 188.375 245.78 188.459 245.28 188.459ZM245.854 186.771C246.289 186.771 246.661 186.654 246.967 186.419C247.274 186.18 247.507 185.849 247.666 185.424C247.825 185 247.905 184.506 247.905 183.941C247.905 183.377 247.825 182.887 247.666 182.47C247.511 182.053 247.28 181.729 246.973 181.498C246.67 181.267 246.297 181.152 245.854 181.152C245.395 181.152 245.013 181.271 244.706 181.51C244.399 181.748 244.168 182.078 244.013 182.498C243.857 182.919 243.78 183.4 243.78 183.941C243.78 184.487 243.857 184.974 244.013 185.402C244.172 185.826 244.405 186.161 244.712 186.407C245.022 186.65 245.403 186.771 245.854 186.771ZM252.119 188.305V179.578H254.114V181.032H254.205C254.364 180.529 254.636 180.14 255.023 179.868C255.413 179.591 255.858 179.453 256.358 179.453C256.472 179.453 256.598 179.459 256.739 179.47C256.883 179.477 257.002 179.491 257.097 179.51V181.402C257.009 181.371 256.871 181.345 256.682 181.322C256.496 181.296 256.316 181.282 256.142 181.282C255.767 181.282 255.43 181.364 255.131 181.527C254.835 181.686 254.602 181.907 254.432 182.191C254.261 182.476 254.176 182.803 254.176 183.174V188.305H252.119ZM260.818 188.481C260.265 188.481 259.767 188.383 259.324 188.186C258.884 187.985 258.536 187.69 258.278 187.299C258.025 186.909 257.898 186.428 257.898 185.856C257.898 185.364 257.989 184.957 258.17 184.635C258.352 184.313 258.6 184.055 258.915 183.862C259.229 183.669 259.583 183.523 259.977 183.424C260.375 183.322 260.786 183.248 261.21 183.203C261.722 183.15 262.136 183.102 262.455 183.061C262.773 183.015 263.004 182.947 263.148 182.856C263.295 182.762 263.369 182.616 263.369 182.419V182.385C263.369 181.957 263.242 181.625 262.989 181.39C262.735 181.155 262.369 181.038 261.892 181.038C261.388 181.038 260.989 181.148 260.693 181.368C260.402 181.587 260.205 181.847 260.102 182.146L258.182 181.873C258.333 181.343 258.583 180.9 258.932 180.544C259.28 180.184 259.706 179.915 260.21 179.737C260.714 179.555 261.271 179.464 261.881 179.464C262.301 179.464 262.72 179.513 263.136 179.612C263.553 179.71 263.934 179.873 264.278 180.101C264.623 180.324 264.9 180.629 265.108 181.015C265.32 181.402 265.426 181.885 265.426 182.464V188.305H263.449V187.106H263.381C263.256 187.349 263.08 187.576 262.852 187.788C262.629 187.996 262.347 188.165 262.006 188.294C261.669 188.419 261.273 188.481 260.818 188.481ZM261.352 186.97C261.765 186.97 262.123 186.888 262.426 186.726C262.729 186.559 262.962 186.339 263.125 186.066C263.292 185.794 263.375 185.496 263.375 185.174V184.146C263.311 184.199 263.201 184.248 263.045 184.294C262.894 184.339 262.723 184.379 262.534 184.413C262.345 184.447 262.157 184.477 261.972 184.504C261.786 184.53 261.625 184.553 261.489 184.572C261.182 184.614 260.907 184.682 260.665 184.777C260.422 184.871 260.231 185.004 260.091 185.174C259.951 185.341 259.881 185.557 259.881 185.822C259.881 186.201 260.019 186.487 260.295 186.68C260.572 186.873 260.924 186.97 261.352 186.97ZM271.554 188.305V176.669H275.918C276.812 176.669 277.562 176.835 278.168 177.169C278.777 177.502 279.238 177.96 279.548 178.544C279.863 179.123 280.02 179.782 280.02 180.521C280.02 181.267 279.863 181.93 279.548 182.51C279.234 183.089 278.77 183.546 278.156 183.879C277.543 184.209 276.787 184.373 275.889 184.373H272.997V182.64H275.605C276.128 182.64 276.556 182.549 276.889 182.368C277.223 182.186 277.469 181.936 277.628 181.618C277.791 181.299 277.872 180.934 277.872 180.521C277.872 180.108 277.791 179.745 277.628 179.43C277.469 179.116 277.221 178.871 276.884 178.697C276.55 178.519 276.12 178.43 275.594 178.43H273.662V188.305H271.554ZM284.115 188.481C283.562 188.481 283.064 188.383 282.621 188.186C282.181 187.985 281.833 187.69 281.575 187.299C281.321 186.909 281.195 186.428 281.195 185.856C281.195 185.364 281.286 184.957 281.467 184.635C281.649 184.313 281.897 184.055 282.212 183.862C282.526 183.669 282.88 183.523 283.274 183.424C283.672 183.322 284.083 183.248 284.507 183.203C285.018 183.15 285.433 183.102 285.751 183.061C286.07 183.015 286.301 182.947 286.445 182.856C286.592 182.762 286.666 182.616 286.666 182.419V182.385C286.666 181.957 286.539 181.625 286.286 181.39C286.032 181.155 285.666 181.038 285.189 181.038C284.685 181.038 284.286 181.148 283.99 181.368C283.698 181.587 283.501 181.847 283.399 182.146L281.479 181.873C281.63 181.343 281.88 180.9 282.229 180.544C282.577 180.184 283.003 179.915 283.507 179.737C284.011 179.555 284.568 179.464 285.178 179.464C285.598 179.464 286.017 179.513 286.433 179.612C286.85 179.71 287.231 179.873 287.575 180.101C287.92 180.324 288.196 180.629 288.405 181.015C288.617 181.402 288.723 181.885 288.723 182.464V188.305H286.746V187.106H286.678C286.553 187.349 286.376 187.576 286.149 187.788C285.926 187.996 285.643 188.165 285.303 188.294C284.965 188.419 284.57 188.481 284.115 188.481ZM284.649 186.97C285.062 186.97 285.42 186.888 285.723 186.726C286.026 186.559 286.259 186.339 286.422 186.066C286.589 185.794 286.672 185.496 286.672 185.174V184.146C286.607 184.199 286.498 184.248 286.342 184.294C286.191 184.339 286.02 184.379 285.831 184.413C285.642 184.447 285.454 184.477 285.268 184.504C285.083 184.53 284.922 184.553 284.786 184.572C284.479 184.614 284.204 184.682 283.962 184.777C283.719 184.871 283.528 185.004 283.388 185.174C283.248 185.341 283.178 185.557 283.178 185.822C283.178 186.201 283.316 186.487 283.592 186.68C283.869 186.873 284.221 186.97 284.649 186.97ZM295.149 179.578V181.169H290.132V179.578H295.149ZM291.371 177.487H293.428V185.68C293.428 185.957 293.469 186.169 293.553 186.316C293.64 186.46 293.753 186.559 293.893 186.612C294.034 186.665 294.189 186.691 294.359 186.691C294.488 186.691 294.606 186.682 294.712 186.663C294.821 186.644 294.905 186.627 294.962 186.612L295.308 188.22C295.198 188.258 295.041 188.299 294.837 188.345C294.636 188.39 294.39 188.417 294.098 188.424C293.583 188.44 293.119 188.362 292.706 188.191C292.293 188.017 291.965 187.748 291.723 187.385C291.484 187.021 291.367 186.566 291.371 186.021V177.487ZM296.869 188.305V179.578H298.926V188.305H296.869ZM297.903 178.339C297.578 178.339 297.297 178.231 297.062 178.015C296.828 177.796 296.71 177.532 296.71 177.226C296.71 176.915 296.828 176.652 297.062 176.436C297.297 176.216 297.578 176.106 297.903 176.106C298.233 176.106 298.513 176.216 298.744 176.436C298.979 176.652 299.097 176.915 299.097 177.226C299.097 177.532 298.979 177.796 298.744 178.015C298.513 178.231 298.233 178.339 297.903 178.339ZM304.28 188.459C303.594 188.459 302.981 188.282 302.439 187.93C301.897 187.578 301.469 187.066 301.155 186.396C300.84 185.726 300.683 184.911 300.683 183.953C300.683 182.983 300.842 182.165 301.161 181.498C301.482 180.828 301.916 180.322 302.462 179.981C303.007 179.637 303.615 179.464 304.286 179.464C304.797 179.464 305.217 179.551 305.547 179.726C305.876 179.896 306.138 180.102 306.331 180.345C306.524 180.584 306.674 180.809 306.78 181.021H306.865V176.669H308.928V188.305H306.905V186.93H306.78C306.674 187.142 306.52 187.368 306.32 187.606C306.119 187.841 305.854 188.042 305.524 188.209C305.195 188.375 304.78 188.459 304.28 188.459ZM304.854 186.771C305.289 186.771 305.661 186.654 305.967 186.419C306.274 186.18 306.507 185.849 306.666 185.424C306.825 185 306.905 184.506 306.905 183.941C306.905 183.377 306.825 182.887 306.666 182.47C306.511 182.053 306.28 181.729 305.973 181.498C305.67 181.267 305.297 181.152 304.854 181.152C304.395 181.152 304.013 181.271 303.706 181.51C303.399 181.748 303.168 182.078 303.013 182.498C302.857 182.919 302.78 183.4 302.78 183.941C302.78 184.487 302.857 184.974 303.013 185.402C303.172 185.826 303.405 186.161 303.712 186.407C304.022 186.65 304.403 186.771 304.854 186.771ZM313.631 188.481C313.078 188.481 312.58 188.383 312.136 188.186C311.697 187.985 311.348 187.69 311.091 187.299C310.837 186.909 310.71 186.428 310.71 185.856C310.71 185.364 310.801 184.957 310.983 184.635C311.165 184.313 311.413 184.055 311.727 183.862C312.042 183.669 312.396 183.523 312.79 183.424C313.188 183.322 313.598 183.248 314.023 183.203C314.534 183.15 314.949 183.102 315.267 183.061C315.585 183.015 315.816 182.947 315.96 182.856C316.108 182.762 316.182 182.616 316.182 182.419V182.385C316.182 181.957 316.055 181.625 315.801 181.39C315.547 181.155 315.182 181.038 314.705 181.038C314.201 181.038 313.801 181.148 313.506 181.368C313.214 181.587 313.017 181.847 312.915 182.146L310.994 181.873C311.146 181.343 311.396 180.9 311.744 180.544C312.093 180.184 312.519 179.915 313.023 179.737C313.527 179.555 314.083 179.464 314.693 179.464C315.114 179.464 315.532 179.513 315.949 179.612C316.366 179.71 316.746 179.873 317.091 180.101C317.436 180.324 317.712 180.629 317.92 181.015C318.133 181.402 318.239 181.885 318.239 182.464V188.305H316.261V187.106H316.193C316.068 187.349 315.892 187.576 315.665 187.788C315.441 187.996 315.159 188.165 314.818 188.294C314.481 188.419 314.085 188.481 313.631 188.481ZM314.165 186.97C314.578 186.97 314.936 186.888 315.239 186.726C315.542 186.559 315.775 186.339 315.938 186.066C316.104 185.794 316.188 185.496 316.188 185.174V184.146C316.123 184.199 316.013 184.248 315.858 184.294C315.706 184.339 315.536 184.379 315.347 184.413C315.157 184.447 314.97 184.477 314.784 184.504C314.598 184.53 314.438 184.553 314.301 184.572C313.994 184.614 313.72 184.682 313.477 184.777C313.235 184.871 313.044 185.004 312.903 185.174C312.763 185.341 312.693 185.557 312.693 185.822C312.693 186.201 312.831 186.487 313.108 186.68C313.384 186.873 313.737 186.97 314.165 186.97ZM320.307 188.305V179.578H322.301V181.032H322.392C322.551 180.529 322.824 180.14 323.21 179.868C323.6 179.591 324.045 179.453 324.545 179.453C324.659 179.453 324.786 179.459 324.926 179.47C325.07 179.477 325.189 179.491 325.284 179.51V181.402C325.197 181.371 325.059 181.345 324.869 181.322C324.684 181.296 324.504 181.282 324.33 181.282C323.955 181.282 323.617 181.364 323.318 181.527C323.023 181.686 322.79 181.907 322.619 182.191C322.449 182.476 322.364 182.803 322.364 183.174V188.305H320.307Z" fill="#3F4346"/>
<line x1="333.5" y1="207.305" x2="333.5" y2="177.305" stroke="#D5D9DC"/>
<rect x="342" y="174.305" width="36" height="36" rx="18" fill="#4DA0FF" fill-opacity="0.16"/>
<path d="M355.45 186.472C355.5 187.213 355.625 187.938 355.825 188.63L354.825 189.63C354.483 188.63 354.267 187.572 354.192 186.472H355.45ZM363.667 196.488C364.375 196.688 365.1 196.813 365.833 196.863V198.105C364.733 198.03 363.675 197.813 362.667 197.48L363.667 196.488ZM356.25 184.805H353.333C352.875 184.805 352.5 185.18 352.5 185.638C352.5 193.463 358.842 199.805 366.667 199.805C367.125 199.805 367.5 199.43 367.5 198.972V196.063C367.5 195.605 367.125 195.23 366.667 195.23C365.633 195.23 364.625 195.063 363.692 194.755C363.608 194.722 363.517 194.713 363.433 194.713C363.217 194.713 363.008 194.797 362.842 194.955L361.008 196.788C358.65 195.58 356.717 193.655 355.517 191.297L357.35 189.463C357.583 189.23 357.65 188.905 357.558 188.613C357.25 187.68 357.083 186.68 357.083 185.638C357.083 185.18 356.708 184.805 356.25 184.805Z" fill="#1E75BA"/>
<rect x="382" y="174.305" width="36" height="36" rx="18" fill="white"/>
<path d="M404.167 191.055V188.138C404.167 187.68 403.792 187.305 403.333 187.305H393.333C392.875 187.305 392.5 187.68 392.5 188.138V196.472C392.5 196.93 392.875 197.305 393.333 197.305H403.333C403.792 197.305 404.167 196.93 404.167 196.472V193.555L407.5 196.888V187.722L404.167 191.055ZM402.5 195.638H394.167V188.972H402.5V195.638ZM397.5 194.805H399.167V193.138H400.833V191.472H399.167V189.805H397.5V191.472H395.833V193.138H397.5V194.805Z" fill="#5D6164"/>
<rect x="422" y="174.305" width="36" height="36" rx="18" fill="white"/>
<path d="M446.667 197.305C447.583 197.305 448.325 196.555 448.325 195.638L448.333 187.305C448.333 186.38 447.583 185.638 446.667 185.638H433.333C432.408 185.638 431.667 186.38 431.667 187.305V195.638C431.667 196.555 432.408 197.305 433.333 197.305H430V198.972H450V197.305H446.667ZM433.333 195.638V187.305H446.667V195.647L433.333 195.638ZM440.833 189.913C437.592 190.363 436.3 192.58 435.833 194.805C436.992 193.247 438.517 192.538 440.833 192.538V194.363L444.167 191.247L440.833 188.138V189.913Z" fill="#5D6164"/>
</g>
<g filter="url(#filter1_d_2077_29071)">
<rect x="298" y="263.305" width="125" height="38" rx="19" fill="white" shape-rendering="crispEdges"/>
<path d="M317.936 288.305L314.08 276.785H315.56L318.912 286.793L322.296 276.785H323.776L319.92 288.305H317.936ZM327.706 288.545C326.848 288.545 326.106 288.351 325.482 287.961C324.864 287.572 324.386 287.033 324.05 286.345C323.714 285.657 323.546 284.868 323.546 283.977C323.546 283.071 323.717 282.276 324.058 281.593C324.4 280.911 324.882 280.38 325.506 280.001C326.13 279.617 326.864 279.425 327.706 279.425C328.57 279.425 329.314 279.62 329.938 280.009C330.562 280.393 331.04 280.929 331.37 281.617C331.706 282.3 331.874 283.087 331.874 283.977C331.874 284.879 331.706 285.673 331.37 286.361C331.034 287.044 330.554 287.58 329.93 287.969C329.306 288.353 328.565 288.545 327.706 288.545ZM327.706 287.193C328.602 287.193 329.269 286.895 329.706 286.297C330.144 285.7 330.362 284.927 330.362 283.977C330.362 283.001 330.141 282.225 329.698 281.649C329.256 281.068 328.592 280.777 327.706 280.777C327.104 280.777 326.608 280.913 326.218 281.185C325.829 281.457 325.538 281.833 325.346 282.313C325.154 282.793 325.058 283.348 325.058 283.977C325.058 284.948 325.282 285.727 325.73 286.313C326.178 286.9 326.837 287.193 327.706 287.193ZM333.796 278.137V276.665H335.22V278.137H333.796ZM333.796 288.305V279.665H335.22V288.305H333.796ZM341.26 288.545C340.385 288.545 339.641 288.351 339.028 287.961C338.42 287.567 337.956 287.025 337.636 286.337C337.316 285.649 337.151 284.865 337.14 283.985C337.151 283.084 337.319 282.292 337.644 281.609C337.975 280.921 338.447 280.385 339.06 280.001C339.673 279.617 340.412 279.425 341.276 279.425C342.188 279.425 342.972 279.649 343.628 280.097C344.289 280.545 344.732 281.159 344.956 281.937L343.548 282.361C343.367 281.86 343.071 281.471 342.66 281.193C342.255 280.916 341.788 280.777 341.26 280.777C340.668 280.777 340.18 280.916 339.796 281.193C339.412 281.465 339.127 281.844 338.94 282.329C338.753 282.809 338.657 283.361 338.652 283.985C338.663 284.945 338.884 285.721 339.316 286.313C339.753 286.9 340.401 287.193 341.26 287.193C341.825 287.193 342.295 287.065 342.668 286.809C343.041 286.548 343.324 286.172 343.516 285.681L344.956 286.057C344.657 286.863 344.191 287.479 343.556 287.905C342.921 288.332 342.156 288.545 341.26 288.545ZM350.098 288.545C349.25 288.545 348.509 288.359 347.874 287.985C347.245 287.607 346.754 287.081 346.402 286.409C346.05 285.732 345.874 284.943 345.874 284.041C345.874 283.097 346.048 282.281 346.394 281.593C346.741 280.9 347.224 280.367 347.842 279.993C348.466 279.615 349.197 279.425 350.034 279.425C350.904 279.425 351.642 279.625 352.25 280.025C352.864 280.425 353.322 280.996 353.626 281.737C353.936 282.479 354.069 283.361 354.026 284.385H352.586V283.873C352.57 282.812 352.354 282.02 351.938 281.497C351.522 280.969 350.904 280.705 350.082 280.705C349.202 280.705 348.533 280.988 348.074 281.553C347.616 282.119 347.386 282.929 347.386 283.985C347.386 285.004 347.616 285.793 348.074 286.353C348.533 286.913 349.186 287.193 350.034 287.193C350.605 287.193 351.101 287.063 351.522 286.801C351.944 286.54 352.274 286.164 352.514 285.673L353.882 286.145C353.546 286.908 353.04 287.5 352.362 287.921C351.69 288.337 350.936 288.545 350.098 288.545ZM346.906 284.385V283.241H353.29V284.385H346.906ZM362.651 288.545C361.776 288.545 361.032 288.351 360.419 287.961C359.811 287.567 359.347 287.025 359.027 286.337C358.707 285.649 358.541 284.865 358.531 283.985C358.541 283.084 358.709 282.292 359.035 281.609C359.365 280.921 359.837 280.385 360.451 280.001C361.064 279.617 361.803 279.425 362.667 279.425C363.579 279.425 364.363 279.649 365.019 280.097C365.68 280.545 366.123 281.159 366.347 281.937L364.939 282.361C364.757 281.86 364.461 281.471 364.051 281.193C363.645 280.916 363.179 280.777 362.651 280.777C362.059 280.777 361.571 280.916 361.187 281.193C360.803 281.465 360.517 281.844 360.331 282.329C360.144 282.809 360.048 283.361 360.043 283.985C360.053 284.945 360.275 285.721 360.707 286.313C361.144 286.9 361.792 287.193 362.651 287.193C363.216 287.193 363.685 287.065 364.059 286.809C364.432 286.548 364.715 286.172 364.907 285.681L366.347 286.057C366.048 286.863 365.581 287.479 364.947 287.905C364.312 288.332 363.547 288.545 362.651 288.545ZM370.357 288.545C369.712 288.545 369.171 288.428 368.733 288.193C368.301 287.953 367.973 287.639 367.749 287.249C367.531 286.86 367.421 286.433 367.421 285.969C367.421 285.516 367.507 285.124 367.677 284.793C367.853 284.457 368.099 284.18 368.413 283.961C368.728 283.737 369.104 283.561 369.541 283.433C369.952 283.321 370.411 283.225 370.917 283.145C371.429 283.06 371.947 282.983 372.469 282.913C372.992 282.844 373.48 282.777 373.933 282.713L373.421 283.009C373.437 282.241 373.283 281.673 372.957 281.305C372.637 280.937 372.083 280.753 371.293 280.753C370.771 280.753 370.312 280.873 369.917 281.113C369.528 281.348 369.253 281.732 369.093 282.265L367.741 281.857C367.949 281.1 368.352 280.505 368.949 280.073C369.547 279.641 370.333 279.425 371.309 279.425C372.093 279.425 372.765 279.567 373.325 279.849C373.891 280.127 374.296 280.548 374.541 281.113C374.664 281.38 374.741 281.671 374.773 281.985C374.805 282.295 374.821 282.62 374.821 282.961V288.305H373.557V286.233L373.853 286.425C373.528 287.124 373.072 287.652 372.485 288.009C371.904 288.367 371.195 288.545 370.357 288.545ZM370.573 287.353C371.085 287.353 371.528 287.263 371.901 287.081C372.28 286.895 372.584 286.652 372.813 286.353C373.043 286.049 373.192 285.719 373.261 285.361C373.341 285.095 373.384 284.799 373.389 284.473C373.4 284.143 373.405 283.889 373.405 283.713L373.901 283.929C373.437 283.993 372.981 284.055 372.533 284.113C372.085 284.172 371.661 284.236 371.261 284.305C370.861 284.369 370.501 284.447 370.181 284.537C369.947 284.612 369.725 284.708 369.517 284.825C369.315 284.943 369.149 285.095 369.021 285.281C368.899 285.463 368.837 285.689 368.837 285.961C368.837 286.196 368.896 286.42 369.013 286.633C369.136 286.847 369.323 287.02 369.573 287.153C369.829 287.287 370.163 287.353 370.573 287.353ZM377.061 288.305V276.545H378.485V288.305H377.061ZM381.046 288.305V276.545H382.47V288.305H381.046ZM385.03 278.137V276.665H386.454V278.137H385.03ZM385.03 288.305V279.665H386.454V288.305H385.03ZM395.006 288.305V283.977C395.006 283.567 394.969 283.172 394.894 282.793C394.825 282.415 394.7 282.076 394.518 281.777C394.342 281.473 394.102 281.233 393.798 281.057C393.5 280.881 393.121 280.793 392.662 280.793C392.305 280.793 391.98 280.855 391.686 280.977C391.398 281.095 391.15 281.276 390.942 281.521C390.734 281.767 390.572 282.076 390.454 282.449C390.342 282.817 390.286 283.252 390.286 283.753L389.35 283.465C389.35 282.628 389.5 281.911 389.798 281.313C390.102 280.711 390.526 280.249 391.07 279.929C391.62 279.604 392.265 279.441 393.006 279.441C393.566 279.441 394.044 279.529 394.438 279.705C394.833 279.881 395.161 280.116 395.422 280.409C395.684 280.697 395.889 281.023 396.038 281.385C396.188 281.743 396.292 282.108 396.35 282.481C396.414 282.849 396.446 283.199 396.446 283.529V288.305H395.006ZM388.846 288.305V279.665H390.126V281.977H390.286V288.305H388.846ZM402.022 292.385C401.569 292.385 401.126 292.316 400.694 292.177C400.262 292.039 399.865 291.828 399.502 291.545C399.145 291.268 398.846 290.916 398.606 290.489L399.91 289.801C400.124 290.223 400.425 290.529 400.814 290.721C401.209 290.913 401.614 291.009 402.03 291.009C402.58 291.009 403.036 290.908 403.398 290.705C403.761 290.508 404.028 290.212 404.198 289.817C404.374 289.423 404.46 288.932 404.454 288.345V285.985H404.622V279.665H405.886V288.361C405.886 288.596 405.878 288.823 405.862 289.041C405.852 289.26 405.825 289.476 405.782 289.689C405.67 290.303 405.449 290.807 405.118 291.201C404.788 291.601 404.361 291.897 403.838 292.089C403.316 292.287 402.71 292.385 402.022 292.385ZM401.918 288.545C401.113 288.545 400.422 288.345 399.846 287.945C399.27 287.54 398.825 286.993 398.51 286.305C398.201 285.617 398.046 284.841 398.046 283.977C398.046 283.113 398.201 282.337 398.51 281.649C398.825 280.961 399.27 280.42 399.846 280.025C400.422 279.625 401.11 279.425 401.91 279.425C402.726 279.425 403.412 279.623 403.966 280.017C404.521 280.412 404.94 280.953 405.222 281.641C405.51 282.329 405.654 283.108 405.654 283.977C405.654 284.836 405.51 285.612 405.222 286.305C404.94 286.993 404.521 287.54 403.966 287.945C403.412 288.345 402.729 288.545 401.918 288.545ZM402.094 287.241C402.676 287.241 403.153 287.103 403.526 286.825C403.9 286.543 404.174 286.156 404.35 285.665C404.532 285.169 404.622 284.607 404.622 283.977C404.622 283.337 404.532 282.775 404.35 282.289C404.174 281.799 403.902 281.417 403.534 281.145C403.166 280.868 402.7 280.729 402.134 280.729C401.548 280.729 401.062 280.873 400.678 281.161C400.3 281.449 400.017 281.839 399.83 282.329C399.649 282.82 399.558 283.369 399.558 283.977C399.558 284.591 399.652 285.145 399.838 285.641C400.025 286.132 400.305 286.521 400.678 286.809C401.057 287.097 401.529 287.241 402.094 287.241Z" fill="#212528"/>
</g>
<path d="M361.5 214.305C361.5 213.753 361.052 213.305 360.5 213.305C359.948 213.305 359.5 213.753 359.5 214.305H361.5ZM359.793 260.012C360.183 260.403 360.817 260.403 361.207 260.012L367.571 253.648C367.962 253.258 367.962 252.625 367.571 252.234C367.181 251.844 366.547 251.844 366.157 252.234L360.5 257.891L354.843 252.234C354.453 251.844 353.819 251.844 353.429 252.234C353.038 252.625 353.038 253.258 353.429 253.648L359.793 260.012ZM359.5 214.305V259.305H361.5V214.305H359.5Z" fill="#8F9396"/>
<rect x="176" y="341" width="384" height="36" rx="4" fill="#1E75BA"/>
<mask id="mask0_2077_29071" style="mask-type:alpha" maskUnits="userSpaceOnUse" x="192" y="349" width="18" height="19">
<rect x="192" y="349.5" width="18" height="18" fill="#D9D9D9"/>
</mask>
<g mask="url(#mask0_2077_29071)">
<path d="M196.05 364.5L195 363.45L203.7 354.75H198.75V353.25H206.25V360.75H204.75V355.8L196.05 364.5Z" fill="white"/>
</g>
<path d="M222.636 362.455V354.955H223.909V362.455H222.636ZM219.523 359.341V358.068H227.023V359.341H219.523ZM233.456 352.705C233.933 352.708 234.411 352.799 234.888 352.977C235.365 353.155 235.801 353.451 236.195 353.864C236.589 354.273 236.905 354.831 237.143 355.54C237.382 356.248 237.501 357.136 237.501 358.205C237.501 359.239 237.403 360.157 237.206 360.96C237.013 361.759 236.732 362.434 236.365 362.983C236.001 363.532 235.558 363.949 235.036 364.233C234.517 364.517 233.929 364.659 233.274 364.659C232.623 364.659 232.041 364.53 231.53 364.273C231.022 364.011 230.606 363.65 230.28 363.188C229.958 362.722 229.751 362.182 229.661 361.568H231.047C231.172 362.102 231.42 362.544 231.791 362.892C232.166 363.237 232.661 363.409 233.274 363.409C234.172 363.409 234.88 363.017 235.399 362.233C235.922 361.449 236.183 360.341 236.183 358.909H236.092C235.88 359.227 235.628 359.502 235.337 359.733C235.045 359.964 234.721 360.142 234.365 360.267C234.009 360.392 233.63 360.455 233.229 360.455C232.562 360.455 231.95 360.29 231.393 359.96C230.84 359.627 230.397 359.17 230.064 358.591C229.734 358.008 229.57 357.341 229.57 356.591C229.57 355.879 229.729 355.227 230.047 354.636C230.369 354.042 230.82 353.568 231.399 353.216C231.982 352.864 232.668 352.693 233.456 352.705ZM233.456 353.955C232.979 353.955 232.549 354.074 232.166 354.312C231.787 354.547 231.486 354.866 231.263 355.267C231.043 355.665 230.933 356.106 230.933 356.591C230.933 357.076 231.039 357.517 231.251 357.915C231.467 358.309 231.761 358.623 232.132 358.858C232.507 359.089 232.933 359.205 233.411 359.205C233.77 359.205 234.106 359.134 234.416 358.994C234.727 358.85 234.998 358.655 235.229 358.409C235.464 358.159 235.647 357.877 235.78 357.562C235.912 357.244 235.979 356.913 235.979 356.568C235.979 356.114 235.869 355.687 235.649 355.29C235.433 354.892 235.134 354.57 234.751 354.324C234.373 354.078 233.941 353.955 233.456 353.955ZM243.827 352.864V364.5H242.418V354.341H242.349L239.509 356.227V354.795L242.418 352.864H243.827ZM250.878 352.705C251.355 352.708 251.832 352.799 252.31 352.977C252.787 353.155 253.223 353.451 253.616 353.864C254.01 354.273 254.327 354.831 254.565 355.54C254.804 356.248 254.923 357.136 254.923 358.205C254.923 359.239 254.825 360.157 254.628 360.96C254.435 361.759 254.154 362.434 253.787 362.983C253.423 363.532 252.98 363.949 252.457 364.233C251.938 364.517 251.351 364.659 250.696 364.659C250.045 364.659 249.463 364.53 248.952 364.273C248.444 364.011 248.027 363.65 247.702 363.188C247.38 362.722 247.173 362.182 247.082 361.568H248.469C248.594 362.102 248.842 362.544 249.213 362.892C249.588 363.237 250.082 363.409 250.696 363.409C251.594 363.409 252.302 363.017 252.821 362.233C253.344 361.449 253.605 360.341 253.605 358.909H253.514C253.302 359.227 253.05 359.502 252.759 359.733C252.467 359.964 252.143 360.142 251.787 360.267C251.431 360.392 251.052 360.455 250.651 360.455C249.984 360.455 249.372 360.29 248.815 359.96C248.262 359.627 247.819 359.17 247.486 358.591C247.156 358.008 246.991 357.341 246.991 356.591C246.991 355.879 247.151 355.227 247.469 354.636C247.791 354.042 248.241 353.568 248.821 353.216C249.404 352.864 250.09 352.693 250.878 352.705ZM250.878 353.955C250.401 353.955 249.971 354.074 249.588 354.312C249.209 354.547 248.908 354.866 248.685 355.267C248.465 355.665 248.355 356.106 248.355 356.591C248.355 357.076 248.461 357.517 248.673 357.915C248.889 358.309 249.183 358.623 249.554 358.858C249.929 359.089 250.355 359.205 250.832 359.205C251.192 359.205 251.527 359.134 251.838 358.994C252.149 358.85 252.42 358.655 252.651 358.409C252.885 358.159 253.069 357.877 253.202 357.562C253.334 357.244 253.401 356.913 253.401 356.568C253.401 356.114 253.291 355.687 253.071 355.29C252.855 354.892 252.556 354.57 252.173 354.324C251.795 354.078 251.363 353.955 250.878 353.955ZM260.794 364.659C260.127 364.659 259.527 364.527 258.993 364.261C258.459 363.996 258.031 363.633 257.709 363.17C257.387 362.708 257.211 362.182 257.18 361.591H258.544C258.597 362.117 258.836 362.553 259.26 362.898C259.688 363.239 260.199 363.409 260.794 363.409C261.271 363.409 261.696 363.297 262.067 363.074C262.442 362.85 262.735 362.544 262.947 362.153C263.163 361.759 263.271 361.314 263.271 360.818C263.271 360.311 263.16 359.858 262.936 359.46C262.716 359.059 262.413 358.742 262.027 358.511C261.641 358.28 261.199 358.163 260.703 358.159C260.347 358.155 259.982 358.21 259.607 358.324C259.232 358.434 258.923 358.576 258.68 358.75L257.362 358.591L258.067 352.864H264.112V354.114H259.249L258.839 357.545H258.908C259.146 357.356 259.446 357.199 259.805 357.074C260.165 356.949 260.54 356.886 260.93 356.886C261.643 356.886 262.277 357.057 262.834 357.398C263.394 357.735 263.834 358.197 264.152 358.784C264.474 359.371 264.635 360.042 264.635 360.795C264.635 361.538 264.468 362.201 264.135 362.784C263.805 363.364 263.351 363.822 262.771 364.159C262.192 364.492 261.533 364.659 260.794 364.659ZM266.892 364.5V363.477L270.733 359.273C271.184 358.78 271.555 358.352 271.847 357.989C272.138 357.621 272.354 357.277 272.494 356.955C272.638 356.629 272.71 356.288 272.71 355.932C272.71 355.523 272.612 355.169 272.415 354.869C272.222 354.57 271.956 354.339 271.619 354.176C271.282 354.013 270.903 353.932 270.483 353.932C270.036 353.932 269.646 354.025 269.312 354.21C268.983 354.392 268.727 354.648 268.545 354.977C268.367 355.307 268.278 355.693 268.278 356.136H266.938C266.938 355.455 267.095 354.856 267.409 354.341C267.723 353.826 268.152 353.424 268.693 353.136C269.239 352.848 269.85 352.705 270.528 352.705C271.21 352.705 271.814 352.848 272.341 353.136C272.867 353.424 273.28 353.812 273.58 354.301C273.879 354.79 274.028 355.333 274.028 355.932C274.028 356.36 273.951 356.778 273.795 357.188C273.644 357.593 273.379 358.045 273 358.545C272.625 359.042 272.104 359.648 271.438 360.364L268.824 363.159V363.25H274.233V364.5H266.892ZM277.602 355.773L279.693 359.341L281.784 355.773H283.33L280.511 360.136L283.33 364.5H281.784L279.693 361.114L277.602 364.5H276.057L278.83 360.136L276.057 355.773H277.602ZM286.243 355.773L288.334 359.341L290.425 355.773H291.97L289.152 360.136L291.97 364.5H290.425L288.334 361.114L286.243 364.5H284.697L287.47 360.136L284.697 355.773H286.243ZM294.884 355.773L296.974 359.341L299.065 355.773H300.611L297.793 360.136L300.611 364.5H299.065L296.974 361.114L294.884 364.5H293.338L296.111 360.136L293.338 355.773H294.884ZM303.524 355.773L305.615 359.341L307.706 355.773H309.251L306.433 360.136L309.251 364.5H307.706L305.615 361.114L303.524 364.5H301.979L304.751 360.136L301.979 355.773H303.524ZM312.165 355.773L314.256 359.341L316.347 355.773H317.892L315.074 360.136L317.892 364.5H316.347L314.256 361.114L312.165 364.5H310.619L313.392 360.136L310.619 355.773H312.165ZM323.578 364.659C322.722 364.659 321.993 364.426 321.391 363.96C320.788 363.491 320.328 362.811 320.01 361.92C319.692 361.027 319.533 359.947 319.533 358.682C319.533 357.424 319.692 356.35 320.01 355.46C320.332 354.566 320.794 353.884 321.396 353.415C322.002 352.941 322.73 352.705 323.578 352.705C324.427 352.705 325.152 352.941 325.754 353.415C326.36 353.884 326.822 354.566 327.141 355.46C327.463 356.35 327.624 357.424 327.624 358.682C327.624 359.947 327.464 361.027 327.146 361.92C326.828 362.811 326.368 363.491 325.766 363.96C325.163 364.426 324.434 364.659 323.578 364.659ZM323.578 363.409C324.427 363.409 325.086 363 325.555 362.182C326.025 361.364 326.26 360.197 326.26 358.682C326.26 357.674 326.152 356.816 325.936 356.108C325.724 355.4 325.417 354.86 325.016 354.489C324.618 354.117 324.139 353.932 323.578 353.932C322.737 353.932 322.08 354.347 321.607 355.176C321.133 356.002 320.896 357.17 320.896 358.682C320.896 359.689 321.002 360.545 321.214 361.25C321.427 361.955 321.732 362.491 322.129 362.858C322.531 363.225 323.014 363.409 323.578 363.409ZM329.783 364.5V363.477L333.624 359.273C334.074 358.78 334.446 358.352 334.737 357.989C335.029 357.621 335.245 357.277 335.385 356.955C335.529 356.629 335.601 356.288 335.601 355.932C335.601 355.523 335.502 355.169 335.305 354.869C335.112 354.57 334.847 354.339 334.51 354.176C334.173 354.013 333.794 353.932 333.374 353.932C332.927 353.932 332.536 354.025 332.203 354.21C331.874 354.392 331.618 354.648 331.436 354.977C331.258 355.307 331.169 355.693 331.169 356.136H329.828C329.828 355.455 329.985 354.856 330.3 354.341C330.614 353.826 331.042 353.424 331.584 353.136C332.129 352.848 332.741 352.705 333.419 352.705C334.101 352.705 334.705 352.848 335.232 353.136C335.758 353.424 336.171 353.812 336.47 354.301C336.769 354.79 336.919 355.333 336.919 355.932C336.919 356.36 336.841 356.778 336.686 357.188C336.535 357.593 336.269 358.045 335.891 358.545C335.516 359.042 334.995 359.648 334.328 360.364L331.714 363.159V363.25H337.124V364.5H329.783Z" fill="white"/>
<path d="M360 364.659C359.144 364.659 358.415 364.426 357.812 363.96C357.21 363.491 356.75 362.811 356.432 361.92C356.114 361.027 355.955 359.947 355.955 358.682C355.955 357.424 356.114 356.35 356.432 355.46C356.754 354.566 357.216 353.884 357.818 353.415C358.424 352.941 359.152 352.705 360 352.705C360.848 352.705 361.574 352.941 362.176 353.415C362.782 353.884 363.244 354.566 363.562 355.46C363.884 356.35 364.045 357.424 364.045 358.682C364.045 359.947 363.886 361.027 363.568 361.92C363.25 362.811 362.79 363.491 362.188 363.96C361.585 364.426 360.856 364.659 360 364.659ZM360 363.409C360.848 363.409 361.508 363 361.977 362.182C362.447 361.364 362.682 360.197 362.682 358.682C362.682 357.674 362.574 356.816 362.358 356.108C362.146 355.4 361.839 354.86 361.438 354.489C361.04 354.117 360.561 353.932 360 353.932C359.159 353.932 358.502 354.347 358.028 355.176C357.555 356.002 357.318 357.17 357.318 358.682C357.318 359.689 357.424 360.545 357.636 361.25C357.848 361.955 358.153 362.491 358.551 362.858C358.953 363.225 359.436 363.409 360 363.409ZM365.932 362.114V360.955L371.045 352.864H371.886V354.659H371.318L367.455 360.773V360.864H374.341V362.114H365.932ZM371.409 364.5V361.761V361.222V352.864H372.75V364.5H371.409ZM377.47 363.011C377.19 363.011 376.949 362.911 376.749 362.71C376.548 362.509 376.447 362.269 376.447 361.989C376.447 361.708 376.548 361.468 376.749 361.267C376.949 361.066 377.19 360.966 377.47 360.966C377.75 360.966 377.991 361.066 378.192 361.267C378.393 361.468 378.493 361.708 378.493 361.989C378.493 362.174 378.446 362.345 378.351 362.5C378.26 362.655 378.137 362.78 377.982 362.875C377.83 362.966 377.66 363.011 377.47 363.011ZM377.47 357.125C377.19 357.125 376.949 357.025 376.749 356.824C376.548 356.623 376.447 356.383 376.447 356.102C376.447 355.822 376.548 355.581 376.749 355.381C376.949 355.18 377.19 355.08 377.47 355.08C377.75 355.08 377.991 355.18 378.192 355.381C378.393 355.581 378.493 355.822 378.493 356.102C378.493 356.288 378.446 356.458 378.351 356.614C378.26 356.769 378.137 356.894 377.982 356.989C377.83 357.08 377.66 357.125 377.47 357.125ZM380.876 364.5V363.477L384.717 359.273C385.168 358.78 385.539 358.352 385.831 357.989C386.123 357.621 386.339 357.277 386.479 356.955C386.623 356.629 386.695 356.288 386.695 355.932C386.695 355.523 386.596 355.169 386.399 354.869C386.206 354.57 385.941 354.339 385.604 354.176C385.267 354.013 384.888 353.932 384.467 353.932C384.02 353.932 383.63 354.025 383.297 354.21C382.967 354.392 382.712 354.648 382.53 354.977C382.352 355.307 382.263 355.693 382.263 356.136H380.922C380.922 355.455 381.079 354.856 381.393 354.341C381.708 353.826 382.136 353.424 382.678 353.136C383.223 352.848 383.835 352.705 384.513 352.705C385.195 352.705 385.799 352.848 386.325 353.136C386.852 353.424 387.265 353.812 387.564 354.301C387.863 354.79 388.013 355.333 388.013 355.932C388.013 356.36 387.935 356.778 387.78 357.188C387.628 357.593 387.363 358.045 386.984 358.545C386.609 359.042 386.089 359.648 385.422 360.364L382.808 363.159V363.25H388.217V364.5H380.876ZM394.2 364.659C393.534 364.659 392.933 364.527 392.399 364.261C391.865 363.996 391.437 363.633 391.115 363.17C390.793 362.708 390.617 362.182 390.587 361.591H391.95C392.003 362.117 392.242 362.553 392.666 362.898C393.094 363.239 393.606 363.409 394.2 363.409C394.678 363.409 395.102 363.297 395.473 363.074C395.848 362.85 396.142 362.544 396.354 362.153C396.57 361.759 396.678 361.314 396.678 360.818C396.678 360.311 396.566 359.858 396.342 359.46C396.123 359.059 395.82 358.742 395.433 358.511C395.047 358.28 394.606 358.163 394.109 358.159C393.753 358.155 393.388 358.21 393.013 358.324C392.638 358.434 392.329 358.576 392.087 358.75L390.768 358.591L391.473 352.864H397.518V354.114H392.655L392.246 357.545H392.314C392.553 357.356 392.852 357.199 393.212 357.074C393.571 356.949 393.946 356.886 394.337 356.886C395.049 356.886 395.683 357.057 396.24 357.398C396.801 357.735 397.24 358.197 397.558 358.784C397.88 359.371 398.041 360.042 398.041 360.795C398.041 361.538 397.875 362.201 397.541 362.784C397.212 363.364 396.757 363.822 396.178 364.159C395.598 364.492 394.939 364.659 394.2 364.659Z" fill="white"/>
<rect x="416" y="346" width="26" height="26" rx="13" fill="#E2F0FF"/>
<mask id="mask1_2077_29071" style="mask-type:alpha" maskUnits="userSpaceOnUse" x="420" y="350" width="18" height="18">
<rect x="420" y="350" width="18" height="18" fill="#D9D9D9"/>
</mask>
<g mask="url(#mask1_2077_29071)">
<path d="M433.763 361.212L432.675 360.125C432.85 359.837 432.981 359.538 433.069 359.225C433.156 358.913 433.2 358.588 433.2 358.25H434.7C434.7 358.8 434.619 359.322 434.456 359.815C434.294 360.309 434.062 360.775 433.763 361.212ZM431.55 358.962L430.2 357.612V353.75C430.2 353.537 430.128 353.359 429.985 353.215C429.841 353.072 429.663 353 429.45 353C429.238 353 429.06 353.072 428.916 353.215C428.772 353.359 428.7 353.537 428.7 353.75V356.112L427.2 354.613V353.75C427.2 353.125 427.419 352.594 427.856 352.156C428.294 351.719 428.825 351.5 429.45 351.5C430.075 351.5 430.606 351.719 431.044 352.156C431.481 352.594 431.7 353.125 431.7 353.75V358.25C431.7 358.387 431.684 358.512 431.653 358.625C431.622 358.738 431.588 358.85 431.55 358.962ZM428.7 365.75V363.444C427.4 363.269 426.325 362.688 425.475 361.7C424.625 360.713 424.2 359.562 424.2 358.25H425.7C425.7 359.287 426.059 360.172 426.778 360.903C427.497 361.634 428.388 362 429.45 362C429.875 362 430.278 361.934 430.66 361.804C431.041 361.672 430.347 362.378 430.66 362.14L432.769 362.319C432.406 362.606 432.01 362.85 431.579 363.05C431.147 363.25 430.688 363.381 430.2 363.444V365.75H428.7ZM435.3 366.95L421.5 353.15L422.55 352.1L436.35 365.9L435.3 366.95Z" fill="#1E75BA"/>
</g>
<rect x="450" y="346" width="26" height="26" rx="13" fill="#1258A3"/>
<mask id="mask2_2077_29071" style="mask-type:alpha" maskUnits="userSpaceOnUse" x="454" y="350" width="18" height="18">
<rect x="454" y="350" width="18" height="18" fill="#D9D9D9"/>
</mask>
<g mask="url(#mask2_2077_29071)">
<path d="M464.5 364.25V353.75H467.5V364.25H464.5ZM458.5 364.25V353.75H461.5V364.25H458.5Z" fill="white"/>
</g>
<rect x="484" y="346" width="26" height="26" rx="13" fill="#1E75BA"/>
<g clip-path="url(#clip0_2077_29071)">
<path d="M491 356H494V353H491V356ZM495.5 365H498.5V362H495.5V365ZM491 365H494V362H491V365ZM491 360.5H494V357.5H491V360.5ZM495.5 360.5H498.5V357.5H495.5V360.5ZM500 353V356H503V353H500ZM495.5 356H498.5V353H495.5V356ZM500 360.5H503V357.5H500V360.5ZM500 365H503V362H500V365Z" fill="white"/>
</g>
<rect x="518" y="346" width="26" height="26" rx="13" fill="#CC5229"/>
<mask id="mask3_2077_29071" style="mask-type:alpha" maskUnits="userSpaceOnUse" x="522" y="350" width="18" height="18">
<rect x="522" y="350" width="18" height="18" fill="#D9D9D9"/>
</mask>
<g mask="url(#mask3_2077_29071)">
<path d="M531 356C532.475 356 533.928 356.297 535.359 356.891C536.79 357.484 538.062 358.375 539.175 359.562C539.325 359.713 539.4 359.887 539.4 360.087C539.4 360.287 539.325 360.462 539.175 360.612L537.45 362.3C537.312 362.437 537.153 362.513 536.972 362.525C536.791 362.538 536.625 362.488 536.475 362.375L534 360.5V357.987C533.525 357.837 533.037 357.719 532.537 357.631C532.037 357.544 531.525 357.5 531 357.5C530.475 357.5 529.962 357.544 529.462 357.631C528.962 357.719 528.475 357.837 528 357.987V360.5L525.525 362.375C525.375 362.488 525.209 362.538 525.028 362.525C524.847 362.513 524.687 362.437 524.55 362.3L522.825 360.612C522.675 360.462 522.6 360.287 522.6 360.087C522.6 359.887 522.675 359.713 522.825 359.562C523.925 358.375 525.194 357.484 526.631 356.891C528.069 356.297 529.525 356 531 356ZM525.15 360.8L526.5 359.75V358.587C526.137 358.775 525.787 358.991 525.45 359.234C525.112 359.478 524.762 359.75 524.4 360.05L525.15 360.8ZM536.85 360.8L537.6 360.087C537.237 359.762 536.887 359.481 536.55 359.244C536.212 359.006 535.862 358.8 535.5 358.625V359.75L536.85 360.8Z" fill="white"/>
</g>
<rect x="40" y="84.3051" width="324" height="36" rx="4" fill="#1E75BA"/>
<mask id="mask4_2077_29071" style="mask-type:alpha" maskUnits="userSpaceOnUse" x="56" y="93" width="18" height="19">
<rect x="56" y="93.3051" width="18" height="18" fill="#D9D9D9"/>
</mask>
<g mask="url(#mask4_2077_29071)">
<path d="M60.05 108.305L59 107.255L67.7 98.5551H62.75V97.0551H70.25V104.555H68.75V99.6051L60.05 108.305Z" fill="white"/>
</g>
<path d="M86.6364 105.76V98.2597H87.9091V105.76H86.6364ZM83.5227 102.646V101.373H91.0227V102.646H83.5227ZM97.456 96.0097C97.9332 96.0134 98.4105 96.1044 98.8878 96.2824C99.3651 96.4604 99.8007 96.7559 100.195 97.1688C100.589 97.5778 100.905 98.1366 101.143 98.8449C101.382 99.5532 101.501 100.441 101.501 101.51C101.501 102.544 101.403 103.462 101.206 104.265C101.013 105.065 100.732 105.739 100.365 106.288C100.001 106.837 99.5582 107.254 99.0355 107.538C98.5166 107.822 97.9295 107.964 97.2741 107.964C96.6226 107.964 96.0412 107.835 95.5298 107.578C95.0223 107.316 94.6056 106.955 94.2798 106.493C93.9579 106.027 93.7514 105.487 93.6605 104.873H95.0469C95.1719 105.407 95.42 105.849 95.7912 106.197C96.1662 106.542 96.6605 106.714 97.2741 106.714C98.1719 106.714 98.8802 106.322 99.3991 105.538C99.9219 104.754 100.183 103.646 100.183 102.214H100.092C99.8802 102.532 99.6283 102.807 99.3366 103.038C99.045 103.269 98.7211 103.447 98.3651 103.572C98.009 103.697 97.6302 103.76 97.2287 103.76C96.562 103.76 95.9503 103.595 95.3935 103.265C94.8404 102.932 94.3973 102.476 94.0639 101.896C93.7344 101.313 93.5696 100.646 93.5696 99.896C93.5696 99.1839 93.7287 98.5324 94.0469 97.9415C94.3688 97.3468 94.8196 96.8733 95.3991 96.521C95.9825 96.1688 96.6681 95.9983 97.456 96.0097ZM97.456 97.2597C96.9787 97.2597 96.5488 97.379 96.1662 97.6176C95.7874 97.8525 95.4863 98.1706 95.2628 98.5722C95.0431 98.9699 94.9332 99.4112 94.9332 99.896C94.9332 100.381 95.0393 100.822 95.2514 101.22C95.4673 101.614 95.7609 101.928 96.1321 102.163C96.5071 102.394 96.9332 102.51 97.4105 102.51C97.7704 102.51 98.1056 102.44 98.4162 102.299C98.7268 102.155 98.9976 101.96 99.2287 101.714C99.4635 101.464 99.6473 101.182 99.7798 100.868C99.9124 100.549 99.9787 100.218 99.9787 99.8733C99.9787 99.4188 99.8688 98.9926 99.6491 98.5949C99.4332 98.1972 99.134 97.8752 98.7514 97.629C98.3726 97.3828 97.9408 97.2597 97.456 97.2597ZM107.827 96.1688V107.805H106.418V97.646H106.349L103.509 99.5324V98.1006L106.418 96.1688H107.827ZM114.878 96.0097C115.355 96.0134 115.832 96.1044 116.31 96.2824C116.787 96.4604 117.223 96.7559 117.616 97.1688C118.01 97.5778 118.327 98.1366 118.565 98.8449C118.804 99.5532 118.923 100.441 118.923 101.51C118.923 102.544 118.825 103.462 118.628 104.265C118.435 105.065 118.154 105.739 117.787 106.288C117.423 106.837 116.98 107.254 116.457 107.538C115.938 107.822 115.351 107.964 114.696 107.964C114.045 107.964 113.463 107.835 112.952 107.578C112.444 107.316 112.027 106.955 111.702 106.493C111.38 106.027 111.173 105.487 111.082 104.873H112.469C112.594 105.407 112.842 105.849 113.213 106.197C113.588 106.542 114.082 106.714 114.696 106.714C115.594 106.714 116.302 106.322 116.821 105.538C117.344 104.754 117.605 103.646 117.605 102.214H117.514C117.302 102.532 117.05 102.807 116.759 103.038C116.467 103.269 116.143 103.447 115.787 103.572C115.431 103.697 115.052 103.76 114.651 103.76C113.984 103.76 113.372 103.595 112.815 103.265C112.262 102.932 111.819 102.476 111.486 101.896C111.156 101.313 110.991 100.646 110.991 99.896C110.991 99.1839 111.151 98.5324 111.469 97.9415C111.791 97.3468 112.241 96.8733 112.821 96.521C113.404 96.1688 114.09 95.9983 114.878 96.0097ZM114.878 97.2597C114.401 97.2597 113.971 97.379 113.588 97.6176C113.209 97.8525 112.908 98.1706 112.685 98.5722C112.465 98.9699 112.355 99.4112 112.355 99.896C112.355 100.381 112.461 100.822 112.673 101.22C112.889 101.614 113.183 101.928 113.554 102.163C113.929 102.394 114.355 102.51 114.832 102.51C115.192 102.51 115.527 102.44 115.838 102.299C116.149 102.155 116.42 101.96 116.651 101.714C116.885 101.464 117.069 101.182 117.202 100.868C117.334 100.549 117.401 100.218 117.401 99.8733C117.401 99.4188 117.291 98.9926 117.071 98.5949C116.855 98.1972 116.556 97.8752 116.173 97.629C115.795 97.3828 115.363 97.2597 114.878 97.2597ZM124.794 107.964C124.127 107.964 123.527 107.832 122.993 107.566C122.459 107.301 122.031 106.938 121.709 106.476C121.387 106.013 121.211 105.487 121.18 104.896H122.544C122.597 105.423 122.836 105.858 123.26 106.203C123.688 106.544 124.199 106.714 124.794 106.714C125.271 106.714 125.696 106.602 126.067 106.379C126.442 106.155 126.735 105.849 126.947 105.459C127.163 105.065 127.271 104.62 127.271 104.123C127.271 103.616 127.16 103.163 126.936 102.765C126.716 102.364 126.413 102.048 126.027 101.816C125.641 101.585 125.199 101.468 124.703 101.464C124.347 101.46 123.982 101.515 123.607 101.629C123.232 101.739 122.923 101.881 122.68 102.055L121.362 101.896L122.067 96.1688H128.112V97.4188H123.249L122.839 100.851H122.908C123.146 100.661 123.446 100.504 123.805 100.379C124.165 100.254 124.54 100.191 124.93 100.191C125.643 100.191 126.277 100.362 126.834 100.703C127.394 101.04 127.834 101.502 128.152 102.089C128.474 102.676 128.635 103.347 128.635 104.101C128.635 104.843 128.468 105.506 128.135 106.089C127.805 106.669 127.351 107.127 126.771 107.464C126.192 107.798 125.533 107.964 124.794 107.964ZM130.892 107.805V106.782L134.733 102.578C135.184 102.085 135.555 101.657 135.847 101.294C136.138 100.926 136.354 100.582 136.494 100.26C136.638 99.9339 136.71 99.593 136.71 99.2369C136.71 98.8278 136.612 98.4737 136.415 98.1744C136.222 97.8752 135.956 97.6441 135.619 97.4813C135.282 97.3184 134.903 97.2369 134.483 97.2369C134.036 97.2369 133.646 97.3297 133.312 97.5153C132.983 97.6972 132.727 97.9528 132.545 98.2824C132.367 98.6119 132.278 98.9983 132.278 99.4415H130.938C130.938 98.7597 131.095 98.1612 131.409 97.646C131.723 97.1309 132.152 96.7294 132.693 96.4415C133.239 96.1536 133.85 96.0097 134.528 96.0097C135.21 96.0097 135.814 96.1536 136.341 96.4415C136.867 96.7294 137.28 97.1176 137.58 97.6063C137.879 98.0949 138.028 98.6384 138.028 99.2369C138.028 99.665 137.951 100.084 137.795 100.493C137.644 100.898 137.379 101.351 137 101.851C136.625 102.347 136.104 102.953 135.438 103.669L132.824 106.464V106.555H138.233V107.805H130.892ZM141.602 99.0778L143.693 102.646L145.784 99.0778H147.33L144.511 103.441L147.33 107.805H145.784L143.693 104.419L141.602 107.805H140.057L142.83 103.441L140.057 99.0778H141.602ZM150.243 99.0778L152.334 102.646L154.425 99.0778H155.97L153.152 103.441L155.97 107.805H154.425L152.334 104.419L150.243 107.805H148.697L151.47 103.441L148.697 99.0778H150.243ZM158.884 99.0778L160.974 102.646L163.065 99.0778H164.611L161.793 103.441L164.611 107.805H163.065L160.974 104.419L158.884 107.805H157.338L160.111 103.441L157.338 99.0778H158.884ZM167.524 99.0778L169.615 102.646L171.706 99.0778H173.251L170.433 103.441L173.251 107.805H171.706L169.615 104.419L167.524 107.805H165.979L168.751 103.441L165.979 99.0778H167.524ZM176.165 99.0778L178.256 102.646L180.347 99.0778H181.892L179.074 103.441L181.892 107.805H180.347L178.256 104.419L176.165 107.805H174.619L177.392 103.441L174.619 99.0778H176.165ZM187.578 107.964C186.722 107.964 185.993 107.731 185.391 107.265C184.788 106.796 184.328 106.116 184.01 105.226C183.692 104.332 183.533 103.252 183.533 101.987C183.533 100.729 183.692 99.6555 184.01 98.7653C184.332 97.8714 184.794 97.1896 185.396 96.7199C186.002 96.2464 186.73 96.0097 187.578 96.0097C188.427 96.0097 189.152 96.2464 189.754 96.7199C190.36 97.1896 190.822 97.8714 191.141 98.7653C191.463 99.6555 191.624 100.729 191.624 101.987C191.624 103.252 191.464 104.332 191.146 105.226C190.828 106.116 190.368 106.796 189.766 107.265C189.163 107.731 188.434 107.964 187.578 107.964ZM187.578 106.714C188.427 106.714 189.086 106.305 189.555 105.487C190.025 104.669 190.26 103.502 190.26 101.987C190.26 100.979 190.152 100.121 189.936 99.4131C189.724 98.7047 189.417 98.165 189.016 97.7938C188.618 97.4225 188.139 97.2369 187.578 97.2369C186.737 97.2369 186.08 97.6517 185.607 98.4813C185.133 99.307 184.896 100.476 184.896 101.987C184.896 102.995 185.002 103.851 185.214 104.555C185.427 105.26 185.732 105.796 186.129 106.163C186.531 106.53 187.014 106.714 187.578 106.714ZM193.783 107.805V106.782L197.624 102.578C198.074 102.085 198.446 101.657 198.737 101.294C199.029 100.926 199.245 100.582 199.385 100.26C199.529 99.9339 199.601 99.593 199.601 99.2369C199.601 98.8278 199.502 98.4737 199.305 98.1744C199.112 97.8752 198.847 97.6441 198.51 97.4813C198.173 97.3184 197.794 97.2369 197.374 97.2369C196.927 97.2369 196.536 97.3297 196.203 97.5153C195.874 97.6972 195.618 97.9528 195.436 98.2824C195.258 98.6119 195.169 98.9983 195.169 99.4415H193.828C193.828 98.7597 193.985 98.1612 194.3 97.646C194.614 97.1309 195.042 96.7294 195.584 96.4415C196.129 96.1536 196.741 96.0097 197.419 96.0097C198.101 96.0097 198.705 96.1536 199.232 96.4415C199.758 96.7294 200.171 97.1176 200.47 97.6063C200.769 98.0949 200.919 98.6384 200.919 99.2369C200.919 99.665 200.841 100.084 200.686 100.493C200.535 100.898 200.269 101.351 199.891 101.851C199.516 102.347 198.995 102.953 198.328 103.669L195.714 106.464V106.555H201.124V107.805H193.783Z" fill="white"/>
<path d="M220.824 102.214C220.824 103.288 220.63 104.216 220.242 104.998C219.854 105.78 219.322 106.384 218.646 106.808C217.97 107.232 217.198 107.444 216.33 107.444C215.461 107.444 214.689 107.232 214.013 106.808C213.337 106.384 212.805 105.78 212.417 104.998C212.029 104.216 211.835 103.288 211.835 102.214C211.835 101.14 212.029 100.212 212.417 99.4301C212.805 98.6479 213.337 98.0447 214.013 97.6205C214.689 97.1962 215.461 96.9841 216.33 96.9841C217.198 96.9841 217.97 97.1962 218.646 97.6205C219.322 98.0447 219.854 98.6479 220.242 99.4301C220.63 100.212 220.824 101.14 220.824 102.214ZM219.631 102.214C219.631 101.333 219.483 100.588 219.188 99.982C218.897 99.3754 218.5 98.9164 218 98.6048C217.503 98.2933 216.946 98.1375 216.33 98.1375C215.713 98.1375 215.155 98.2933 214.654 98.6048C214.157 98.9164 213.761 99.3754 213.466 99.982C213.174 100.588 213.028 101.333 213.028 102.214C213.028 103.096 213.174 103.84 213.466 104.446C213.761 105.053 214.157 105.512 214.654 105.824C215.155 106.135 215.713 106.291 216.33 106.291C216.946 106.291 217.503 106.135 218 105.824C218.5 105.512 218.897 105.053 219.188 104.446C219.483 103.84 219.631 103.096 219.631 102.214ZM227.55 104.183V99.6688H228.724V107.305H227.55V106.013H227.471C227.292 106.4 227.013 106.73 226.636 107.002C226.258 107.27 225.781 107.405 225.204 107.405C224.727 107.405 224.302 107.3 223.931 107.091C223.56 106.879 223.268 106.561 223.056 106.137C222.844 105.709 222.738 105.171 222.738 104.521V99.6688H223.911V104.441C223.911 104.998 224.067 105.442 224.379 105.774C224.693 106.105 225.094 106.271 225.582 106.271C225.873 106.271 226.17 106.196 226.472 106.047C226.777 105.898 227.032 105.669 227.237 105.361C227.446 105.053 227.55 104.66 227.55 104.183ZM234.194 99.6688V100.663H230.236V99.6688H234.194ZM231.39 97.8392H232.563V105.118C232.563 105.449 232.611 105.698 232.707 105.863C232.807 106.026 232.933 106.135 233.085 106.191C233.241 106.245 233.405 106.271 233.577 106.271C233.706 106.271 233.813 106.264 233.895 106.251C233.978 106.235 234.045 106.221 234.094 106.211L234.333 107.265C234.253 107.295 234.142 107.325 234 107.355C233.857 107.388 233.677 107.405 233.458 107.405C233.126 107.405 232.802 107.333 232.483 107.191C232.169 107.048 231.907 106.831 231.698 106.539C231.492 106.248 231.39 105.88 231.39 105.436V97.8392ZM238.959 110.328C238.392 110.328 237.905 110.255 237.497 110.109C237.09 109.967 236.75 109.778 236.478 109.542C236.21 109.31 235.996 109.062 235.837 108.797L236.771 108.14C236.878 108.28 237.012 108.439 237.174 108.618C237.337 108.8 237.559 108.957 237.84 109.09C238.125 109.226 238.498 109.294 238.959 109.294C239.575 109.294 240.084 109.145 240.485 108.846C240.886 108.548 241.087 108.081 241.087 107.444V105.893H240.987C240.901 106.032 240.779 106.205 240.619 106.41C240.464 106.612 240.238 106.793 239.943 106.952C239.652 107.108 239.257 107.186 238.76 107.186C238.144 107.186 237.59 107.04 237.1 106.748C236.612 106.457 236.226 106.032 235.941 105.476C235.66 104.919 235.519 104.243 235.519 103.447C235.519 102.665 235.656 101.984 235.931 101.404C236.206 100.821 236.589 100.37 237.08 100.052C237.57 99.7301 238.137 99.5693 238.78 99.5693C239.277 99.5693 239.672 99.6522 239.963 99.8179C240.258 99.9803 240.484 100.166 240.639 100.375C240.798 100.58 240.921 100.749 241.007 100.882H241.127V99.6688H242.26V107.524C242.26 108.18 242.111 108.714 241.813 109.125C241.518 109.539 241.12 109.842 240.619 110.035C240.122 110.23 239.569 110.328 238.959 110.328ZM238.919 106.132C239.39 106.132 239.788 106.024 240.112 105.809C240.437 105.593 240.684 105.283 240.853 104.879C241.022 104.475 241.107 103.991 241.107 103.427C241.107 102.877 241.024 102.392 240.858 101.971C240.692 101.55 240.447 101.22 240.122 100.981C239.798 100.743 239.396 100.623 238.919 100.623C238.422 100.623 238.008 100.749 237.676 101.001C237.348 101.253 237.101 101.591 236.936 102.015C236.773 102.44 236.692 102.91 236.692 103.427C236.692 103.958 236.775 104.427 236.941 104.834C237.11 105.239 237.358 105.557 237.686 105.789C238.018 106.017 238.429 106.132 238.919 106.132ZM247.51 107.464C246.821 107.464 246.216 107.3 245.695 106.972C245.178 106.644 244.774 106.185 244.482 105.595C244.194 105.005 244.05 104.316 244.05 103.527C244.05 102.731 244.194 102.037 244.482 101.444C244.774 100.85 245.178 100.39 245.695 100.062C246.216 99.7334 246.821 99.5693 247.51 99.5693C248.2 99.5693 248.803 99.7334 249.32 100.062C249.84 100.39 250.244 100.85 250.533 101.444C250.825 102.037 250.97 102.731 250.97 103.527C250.97 104.316 250.825 105.005 250.533 105.595C250.244 106.185 249.84 106.644 249.32 106.972C248.803 107.3 248.2 107.464 247.51 107.464ZM247.51 106.41C248.034 106.41 248.465 106.276 248.803 106.008C249.141 105.739 249.391 105.386 249.553 104.949C249.716 104.511 249.797 104.037 249.797 103.527C249.797 103.016 249.716 102.541 249.553 102.1C249.391 101.659 249.141 101.303 248.803 101.031C248.465 100.759 248.034 100.623 247.51 100.623C246.986 100.623 246.556 100.759 246.218 101.031C245.879 101.303 245.629 101.659 245.467 102.1C245.304 102.541 245.223 103.016 245.223 103.527C245.223 104.037 245.304 104.511 245.467 104.949C245.629 105.386 245.879 105.739 246.218 106.008C246.556 106.276 246.986 106.41 247.51 106.41ZM252.761 107.305V99.6688H253.935V107.305H252.761ZM253.358 98.396C253.129 98.396 252.932 98.3181 252.766 98.1624C252.604 98.0066 252.523 97.8193 252.523 97.6006C252.523 97.3818 252.604 97.1946 252.766 97.0388C252.932 96.883 253.129 96.8051 253.358 96.8051C253.587 96.8051 253.782 96.883 253.945 97.0388C254.11 97.1946 254.193 97.3818 254.193 97.6006C254.193 97.8193 254.11 98.0066 253.945 98.1624C253.782 98.3181 253.587 98.396 253.358 98.396ZM257.257 102.711V107.305H256.084V99.6688H257.217V100.862H257.317C257.496 100.474 257.767 100.163 258.132 99.9273C258.497 99.6886 258.967 99.5693 259.544 99.5693C260.061 99.5693 260.513 99.6754 260.901 99.8875C261.289 100.096 261.59 100.414 261.806 100.842C262.021 101.266 262.129 101.803 262.129 102.453V107.305H260.956V102.532C260.956 101.932 260.8 101.465 260.488 101.13C260.177 100.792 259.749 100.623 259.206 100.623C258.831 100.623 258.497 100.704 258.202 100.867C257.91 101.029 257.68 101.266 257.51 101.578C257.341 101.889 257.257 102.267 257.257 102.711ZM267.355 110.328C266.789 110.328 266.301 110.255 265.894 110.109C265.486 109.967 265.146 109.778 264.875 109.542C264.606 109.31 264.392 109.062 264.233 108.797L265.168 108.14C265.274 108.28 265.408 108.439 265.571 108.618C265.733 108.8 265.955 108.957 266.237 109.09C266.522 109.226 266.895 109.294 267.355 109.294C267.972 109.294 268.481 109.145 268.882 108.846C269.283 108.548 269.483 108.081 269.483 107.444V105.893H269.384C269.298 106.032 269.175 106.205 269.016 106.41C268.86 106.612 268.635 106.793 268.34 106.952C268.048 107.108 267.654 107.186 267.157 107.186C266.54 107.186 265.987 107.04 265.496 106.748C265.009 106.457 264.623 106.032 264.338 105.476C264.056 104.919 263.915 104.243 263.915 103.447C263.915 102.665 264.053 101.984 264.328 101.404C264.603 100.821 264.986 100.37 265.476 100.052C265.967 99.7301 266.533 99.5693 267.176 99.5693C267.674 99.5693 268.068 99.6522 268.36 99.8179C268.655 99.9803 268.88 100.166 269.036 100.375C269.195 100.58 269.318 100.749 269.404 100.882H269.523V99.6688H270.657V107.524C270.657 108.18 270.507 108.714 270.209 109.125C269.914 109.539 269.516 109.842 269.016 110.035C268.519 110.23 267.965 110.328 267.355 110.328ZM267.316 106.132C267.786 106.132 268.184 106.024 268.509 105.809C268.834 105.593 269.081 105.283 269.25 104.879C269.419 104.475 269.503 103.991 269.503 103.427C269.503 102.877 269.42 102.392 269.255 101.971C269.089 101.55 268.844 101.22 268.519 100.981C268.194 100.743 267.793 100.623 267.316 100.623C266.819 100.623 266.404 100.749 266.073 101.001C265.745 101.253 265.498 101.591 265.332 102.015C265.17 102.44 265.088 102.91 265.088 103.427C265.088 103.958 265.171 104.427 265.337 104.834C265.506 105.239 265.755 105.557 266.083 105.789C266.414 106.017 266.825 106.132 267.316 106.132Z" fill="white"/>
<rect x="288" y="89.3051" width="26" height="26" rx="13" fill="#29A653"/>
<g clip-path="url(#clip1_2077_29071)">
<path d="M296.905 97.0551C296.95 97.7226 297.062 98.3751 297.242 98.9976L296.342 99.8976C296.035 98.9976 295.84 98.0451 295.773 97.0551H296.905ZM304.3 106.07C304.938 106.25 305.59 106.363 306.25 106.408V107.525C305.26 107.458 304.307 107.263 303.4 106.963L304.3 106.07ZM297.625 95.5551H295C294.587 95.5551 294.25 95.8926 294.25 96.3051C294.25 103.348 299.957 109.055 307 109.055C307.413 109.055 307.75 108.718 307.75 108.305V105.688C307.75 105.275 307.413 104.938 307 104.938C306.07 104.938 305.163 104.788 304.323 104.51C304.248 104.48 304.165 104.473 304.09 104.473C303.895 104.473 303.707 104.548 303.557 104.69L301.908 106.34C299.785 105.253 298.045 103.52 296.965 101.398L298.615 99.7476C298.825 99.5376 298.885 99.2451 298.802 98.9826C298.525 98.1426 298.375 97.2426 298.375 96.3051C298.375 95.8926 298.037 95.5551 297.625 95.5551Z" fill="white"/>
</g>
<rect x="322" y="89.3051" width="26" height="26" rx="13" fill="#CC5229"/>
<mask id="mask5_2077_29071" style="mask-type:alpha" maskUnits="userSpaceOnUse" x="326" y="93" width="18" height="19">
<rect x="326" y="93.3051" width="18" height="18" fill="#D9D9D9"/>
</mask>
<g mask="url(#mask5_2077_29071)">
<path d="M335 99.3051C336.475 99.3051 337.928 99.6021 339.359 100.196C340.791 100.79 342.063 101.68 343.175 102.868C343.325 103.018 343.4 103.193 343.4 103.393C343.4 103.593 343.325 103.768 343.175 103.918L341.45 105.605C341.313 105.743 341.153 105.818 340.972 105.83C340.791 105.843 340.625 105.793 340.475 105.68L338 103.805V101.293C337.525 101.143 337.038 101.024 336.538 100.936C336.038 100.849 335.525 100.805 335 100.805C334.475 100.805 333.963 100.849 333.463 100.936C332.963 101.024 332.475 101.143 332 101.293V103.805L329.525 105.68C329.375 105.793 329.21 105.843 329.029 105.83C328.847 105.818 328.688 105.743 328.55 105.605L326.825 103.918C326.675 103.768 326.6 103.593 326.6 103.393C326.6 103.193 326.675 103.018 326.825 102.868C327.925 101.68 329.194 100.79 330.631 100.196C332.069 99.6021 333.525 99.3051 335 99.3051ZM329.15 104.105L330.5 103.055V101.893C330.138 102.08 329.788 102.296 329.45 102.539C329.113 102.783 328.763 103.055 328.4 103.355L329.15 104.105ZM340.85 104.105L341.6 103.393C341.238 103.068 340.888 102.786 340.55 102.549C340.213 102.311 339.863 102.105 339.5 101.93V103.055L340.85 104.105Z" fill="white"/>
</g>
<g clip-path="url(#clip2_2077_29071)">
<path d="M128.333 355.138C127.698 351.883 126.106 348.89 123.76 346.545C121.415 344.199 118.422 342.607 115.167 341.972M141.667 355.138C140.915 348.374 137.886 342.066 133.077 337.251C128.267 332.435 121.963 329.398 115.2 328.638M88.6 331.972H78.6C77.6717 331.968 76.7528 332.158 75.9022 332.53C75.0516 332.902 74.2881 333.447 73.6605 334.131C73.0329 334.815 72.5551 335.623 72.2577 336.502C71.9603 337.382 71.8498 338.314 71.9334 339.238C73.0479 349.496 76.5529 359.348 82.1667 368.005C87.2845 376.059 94.1128 382.887 102.167 388.005C110.863 393.638 120.763 397.144 131.067 398.238C131.988 398.322 132.917 398.212 133.795 397.917C134.672 397.621 135.478 397.146 136.161 396.522C136.845 395.898 137.391 395.139 137.765 394.292C138.139 393.446 138.332 392.531 138.333 391.605V381.605C138.349 379.987 137.776 378.419 136.722 377.192C135.667 375.966 134.202 375.165 132.6 374.938C129.4 374.516 126.258 373.733 123.233 372.605C122.04 372.157 120.744 372.059 119.497 372.325C118.251 372.591 117.106 373.209 116.2 374.105L111.967 378.338C103.622 373.593 96.7119 366.683 91.9667 358.338L96.2 354.105C97.0962 353.199 97.7139 352.054 97.9797 350.808C98.2456 349.561 98.1485 348.265 97.7 347.072C96.5715 344.047 95.7888 340.905 95.3667 337.705C95.1383 336.086 94.3227 334.607 93.075 333.55C91.8274 332.493 90.2348 331.931 88.6 331.972Z" stroke="#DBEAF6" stroke-width="8.83333" stroke-linecap="round" stroke-linejoin="round"/>
</g>
<path d="M510 119.75C504.063 119.75 499.25 114.937 499.25 109H490.75C490.75 119.631 499.369 128.25 510 128.25C520.631 128.25 529.25 119.631 529.25 109H520.75C520.75 114.937 515.937 119.75 510 119.75Z" fill="#DBEAF6"/>
<path d="M495.75 99V86.5H504.25V99H495.75Z" fill="#DBEAF6"/>
<path d="M515.75 99V86.5H524.25V99H515.75Z" fill="#DBEAF6"/>
<path fill-rule="evenodd" clip-rule="evenodd" d="M460 84C460 75.7157 466.716 69 475 69H545C553.284 69 560 75.7157 560 84V129C560 137.284 553.284 144 545 144H520V159L500 144H475C466.716 144 460 137.284 460 129V84ZM475 79H545C547.761 79 550 81.2386 550 84V129C550 131.761 547.761 134 545 134H475C472.239 134 470 131.761 470 129V84C470 81.2386 472.239 79 475 79Z" fill="#DBEAF6"/>
<defs>
<filter id="filter0_d_2077_29071" x="124" y="160.305" width="354" height="72.0001" filterUnits="userSpaceOnUse" color-interpolation-filters="sRGB">
<feFlood flood-opacity="0" result="BackgroundImageFix"/>
<feColorMatrix in="SourceAlpha" type="matrix" values="0 0 0 0 0 0 0 0 0 0 0 0 0 0 0 0 0 0 127 0" result="hardAlpha"/>
<feOffset dy="4"/>
<feGaussianBlur stdDeviation="2"/>
<feComposite in2="hardAlpha" operator="out"/>
<feColorMatrix type="matrix" values="0 0 0 0 0 0 0 0 0 0 0 0 0 0 0 0 0 0 0.25 0"/>
<feBlend mode="normal" in2="BackgroundImageFix" result="effect1_dropShadow_2077_29071"/>
<feBlend mode="normal" in="SourceGraphic" in2="effect1_dropShadow_2077_29071" result="shape"/>
</filter>
<filter id="filter1_d_2077_29071" x="294" y="263.305" width="133" height="46" filterUnits="userSpaceOnUse" color-interpolation-filters="sRGB">
<feFlood flood-opacity="0" result="BackgroundImageFix"/>
<feColorMatrix in="SourceAlpha" type="matrix" values="0 0 0 0 0 0 0 0 0 0 0 0 0 0 0 0 0 0 127 0" result="hardAlpha"/>
<feOffset dy="4"/>
<feGaussianBlur stdDeviation="2"/>
<feComposite in2="hardAlpha" operator="out"/>
<feColorMatrix type="matrix" values="0 0 0 0 0 0 0 0 0 0 0 0 0 0 0 0 0 0 0.25 0"/>
<feBlend mode="normal" in2="BackgroundImageFix" result="effect1_dropShadow_2077_29071"/>
<feBlend mode="normal" in="SourceGraphic" in2="effect1_dropShadow_2077_29071" result="shape"/>
</filter>
<clipPath id="clip0_2077_29071">
<rect width="18" height="18" fill="white" transform="translate(488 350)"/>
</clipPath>
<clipPath id="clip1_2077_29071">
<rect width="18" height="18" fill="white" transform="translate(292 93.3051)"/>
</clipPath>
<clipPath id="clip2_2077_29071">
<rect width="80" height="80" fill="white" transform="matrix(0 -1 -1 0 145 405.305)"/>
</clipPath>
</defs>
</svg>
