<svg width="171" height="20" viewBox="0 0 171 20" fill="none" xmlns="http://www.w3.org/2000/svg">
<g clip-path="url(#clip0_5172_15190)">
<path d="M21.5001 10.5C21.5012 10.3319 21.4144 10.1754 21.2711 10.0875H21.2686L21.2595 10.0825L13.8096 5.67251C13.7774 5.65077 13.744 5.63091 13.7095 5.61301C13.4219 5.46461 13.0802 5.46461 12.7925 5.61301C12.7581 5.63092 12.7247 5.65077 12.6925 5.67251L5.24257 10.0825L5.23358 10.0875C5.00588 10.2291 4.93608 10.5285 5.07767 10.7562C5.11939 10.8233 5.17685 10.8792 5.24507 10.919L12.6951 15.329C12.7273 15.3505 12.7607 15.3704 12.7951 15.3885C13.0827 15.5369 13.4244 15.5369 13.7121 15.3885C13.7464 15.3704 13.7798 15.3506 13.8121 15.329L21.2621 10.919C21.4109 10.8322 21.5018 10.6723 21.5001 10.5Z" fill="#0A2767"/>
<path d="M6.11075 7.5555H10.9998V12.037H6.11075V7.5555ZM20.4997 3V0.949995C20.5115 0.437448 20.1058 0.0122818 19.5933 0H6.90626C6.39372 0.0122818 5.98802 0.437448 5.99976 0.949995V3L13.4998 4.99999L20.4997 3Z" fill="#0364B8"/>
<path d="M6 3H11V7.5H6V3Z" fill="#0078D4"/>
<path d="M16 3H11V7.5L16 12H20.5V7.5L16 3Z" fill="#28A8EA"/>
<path d="M11 7.5H16V12H11V7.5Z" fill="#0078D4"/>
<path d="M11 12H16V16.5H11V12Z" fill="#0364B8"/>
<path d="M6.11084 12.037H10.9998V16.111H6.11084V12.037Z" fill="#14447D"/>
<path d="M16 12H20.5V16.5H16V12Z" fill="#0078D4"/>
<path d="M21.271 10.8915L21.2615 10.8965L13.8115 15.0865C13.779 15.1065 13.746 15.1255 13.7115 15.1425C13.5849 15.2028 13.4475 15.2368 13.3075 15.2425L12.9005 15.0045C12.8661 14.9872 12.8327 14.968 12.8005 14.947L5.2505 10.638H5.247L5 10.5V18.982C5.00385 19.5479 5.46559 20.0036 6.03149 20H20.4845C20.493 20 20.5005 19.996 20.5095 19.996C20.629 19.9884 20.7468 19.9638 20.8595 19.923C20.9081 19.9024 20.9551 19.878 21 19.85C21.0335 19.831 21.091 19.7895 21.091 19.7895C21.3471 19.6 21.4987 19.3006 21.5 18.982V10.5C21.4998 10.6622 21.4123 10.8118 21.271 10.8915Z" fill="url(#paint0_linear_5172_15190)"/>
<path opacity="0.5" d="M21.1 10.4665V10.9865L13.31 16.35L5.245 10.6415C5.245 10.6387 5.24275 10.6365 5.24 10.6365L4.5 10.1915V9.81646L4.805 9.81146L5.44999 10.1815L5.46499 10.1865L5.51999 10.2215C5.51999 10.2215 13.1 14.5465 13.12 14.5565L13.41 14.7265C13.435 14.7165 13.46 14.7065 13.49 14.6965C13.505 14.6865 21.015 10.4615 21.015 10.4615L21.1 10.4665Z" fill="#0A2767"/>
<path d="M21.271 10.8915L21.2615 10.897L13.8115 15.087C13.779 15.107 13.746 15.126 13.7115 15.143C13.4221 15.2843 13.0838 15.2843 12.7945 15.143C12.7602 15.126 12.7268 15.1073 12.6945 15.087L5.2445 10.897L5.2355 10.8915C5.09167 10.8135 5.00149 10.6636 5 10.5V18.982C5.00358 19.5478 5.46516 20.0036 6.03095 20C6.03095 20 6.03098 20 6.031 20H20.469C21.0348 20.0036 21.4964 19.5478 21.5 18.982C21.5 18.982 21.5 18.982 21.5 18.982V10.5C21.4998 10.6622 21.4123 10.8118 21.271 10.8915Z" fill="#1490DF"/>
<path opacity="0.1" d="M13.9199 15.025L13.8084 15.0875C13.7761 15.108 13.7427 15.1269 13.7084 15.144C13.5856 15.2043 13.452 15.2396 13.3154 15.248L16.1499 18.6L21.0944 19.7915C21.2299 19.6891 21.3377 19.5545 21.4079 19.4L13.9199 15.025Z" fill="black"/>
<path opacity="0.05" d="M14.4249 14.741L13.8084 15.0875C13.7761 15.108 13.7427 15.1269 13.7084 15.144C13.5856 15.2043 13.452 15.2396 13.3154 15.248L14.6434 18.9095L21.0959 19.79C21.3501 19.5991 21.4998 19.2998 21.4999 18.982V18.8725L14.4249 14.741Z" fill="black"/>
<path d="M6.045 20H20.4675C20.6894 20.0011 20.9059 19.931 21.085 19.8L12.9 15.0055C12.8656 14.9882 12.8322 14.969 12.8 14.948L5.24999 10.639H5.24649L5 10.5V18.953C4.99944 19.5307 5.4673 19.9994 6.045 20Z" fill="#28A8EA"/>
<path opacity="0.1" d="M12 4.9165V15.5815C11.9991 15.9554 11.7717 16.2915 11.425 16.4315C11.3176 16.4777 11.2019 16.5015 11.085 16.5015H5V4.5H6V4H11.085C11.5901 4.00191 11.9989 4.41137 12 4.9165Z" fill="black"/>
<path opacity="0.2" d="M11.5 5.41648V16.0815C11.5013 16.2022 11.4756 16.3218 11.425 16.4315C11.2861 16.7737 10.9544 16.9983 10.585 17H5V4.49998H10.585C10.7301 4.49853 10.8731 4.53471 11 4.60499C11.3065 4.7594 11.4999 5.07328 11.5 5.41648Z" fill="black"/>
<path opacity="0.2" d="M11.5 5.41648V15.0815C11.4976 15.5864 11.0899 15.9956 10.585 16H5V4.49998H10.585C10.7301 4.49853 10.8731 4.53471 11 4.60499C11.3065 4.7594 11.4999 5.07328 11.5 5.41648Z" fill="black"/>
<path opacity="0.2" d="M11 5.4165V15.0815C10.9995 15.5872 10.5907 15.9975 10.085 16H5V4.5H10.085C10.5906 4.50027 11.0003 4.91038 11 5.416C11 5.41617 11 5.41633 11 5.4165Z" fill="black"/>
<path d="M0.916496 4.5H10.0835C10.5897 4.5 11 4.91034 11 5.4165V14.5835C11 15.0897 10.5897 15.5 10.0835 15.5H0.916496C0.410324 15.5 0 15.0896 0 14.5835V5.4165C0 4.91034 0.410336 4.5 0.916496 4.5Z" fill="url(#paint1_linear_5172_15190)"/>
<path d="M2.86439 8.34397C3.09028 7.86271 3.45488 7.45995 3.9114 7.18748C4.41696 6.89803 4.99258 6.75374 5.5749 6.77047C6.11461 6.75876 6.64716 6.89558 7.1144 7.16597C7.5537 7.42795 7.90751 7.81181 8.13289 8.27096C8.37834 8.77691 8.50067 9.33373 8.4899 9.89596C8.50179 10.4836 8.37593 11.0658 8.1224 11.596C7.89165 12.0715 7.52661 12.4691 7.0724 12.7395C6.58715 13.0181 6.03482 13.1585 5.4754 13.1455C4.92416 13.1588 4.37987 13.0204 3.9019 12.7455C3.45879 12.4831 3.10054 12.0988 2.8699 11.6385C2.623 11.1398 2.49922 10.5893 2.5089 10.033C2.49862 9.45037 2.62014 8.87299 2.86439 8.34397ZM3.98039 11.059C4.10083 11.3632 4.30506 11.6271 4.56939 11.82C4.83863 12.0081 5.16102 12.1052 5.48939 12.097C5.83909 12.1108 6.18379 12.0104 6.47139 11.811C6.73237 11.6187 6.93124 11.3541 7.04338 11.05C7.16875 10.7103 7.23062 10.3505 7.22588 9.98846C7.22976 9.62298 7.1716 9.25949 7.05388 8.91347C6.94991 8.60106 6.75745 8.32557 6.49989 8.12047C6.21949 7.91159 5.87572 7.80564 5.52638 7.82047C5.1909 7.81178 4.86129 7.90962 4.58489 8.09997C4.31609 8.29366 4.10798 8.55987 3.98489 8.86746C3.71184 9.57254 3.71042 10.3539 3.98089 11.06L3.98039 11.059Z" fill="white"/>
<path d="M16 3H20.5V7.5H16V3Z" fill="#50D9FF"/>
</g>
<path d="M28.732 17V5.08H30.492L34.972 11.288H34.092L38.492 5.08H40.252V17H38.38V7.304L39.084 7.496L34.588 13.64H34.396L29.996 7.496L30.62 7.304V17H28.732ZM42.5404 17V8.344H44.3484V17H42.5404ZM42.5404 7.16V5.08H44.3484V7.16H42.5404ZM50.5743 17.192C49.7103 17.192 48.9423 16.9947 48.2703 16.6C47.6089 16.1947 47.0809 15.6507 46.6863 14.968C46.3023 14.2853 46.1103 13.512 46.1103 12.648C46.1103 11.7947 46.3023 11.0267 46.6863 10.344C47.0703 9.66133 47.5983 9.128 48.2703 8.744C48.9423 8.34933 49.7103 8.152 50.5743 8.152C51.1609 8.152 51.7103 8.25867 52.2223 8.472C52.7343 8.67467 53.1769 8.95733 53.5503 9.32C53.9343 9.68267 54.2169 10.104 54.3983 10.584L52.8143 11.32C52.6329 10.872 52.3396 10.5147 51.9343 10.248C51.5396 9.97067 51.0863 9.832 50.5743 9.832C50.0836 9.832 49.6409 9.95467 49.2463 10.2C48.8623 10.4347 48.5583 10.7707 48.3343 11.208C48.1103 11.6347 47.9983 12.12 47.9983 12.664C47.9983 13.208 48.1103 13.6987 48.3343 14.136C48.5583 14.5627 48.8623 14.8987 49.2463 15.144C49.6409 15.3893 50.0836 15.512 50.5743 15.512C51.0969 15.512 51.5503 15.3787 51.9343 15.112C52.3289 14.8347 52.6223 14.4667 52.8143 14.008L54.3983 14.76C54.2276 15.2187 53.9503 15.6347 53.5663 16.008C53.1929 16.3707 52.7503 16.6587 52.2383 16.872C51.7263 17.0853 51.1716 17.192 50.5743 17.192ZM56.1654 17V8.344H57.8934V10.088L57.7334 9.832C57.9254 9.26667 58.2347 8.86133 58.6614 8.616C59.088 8.36 59.6 8.232 60.1974 8.232H60.7254V9.88H59.9734C59.376 9.88 58.8907 10.0667 58.5174 10.44C58.1547 10.8027 57.9734 11.3253 57.9734 12.008V17H56.1654ZM66.1383 17.192C65.3063 17.192 64.5436 16.9947 63.8503 16.6C63.1676 16.2053 62.6236 15.6667 62.2183 14.984C61.8129 14.3013 61.6103 13.528 61.6103 12.664C61.6103 11.7893 61.8129 11.016 62.2183 10.344C62.6236 9.66133 63.1676 9.128 63.8503 8.744C64.5329 8.34933 65.2956 8.152 66.1383 8.152C66.9916 8.152 67.7543 8.34933 68.4263 8.744C69.1089 9.128 69.6476 9.66133 70.0423 10.344C70.4476 11.016 70.6503 11.7893 70.6503 12.664C70.6503 13.5387 70.4476 14.3173 70.0423 15C69.6369 15.6827 69.0929 16.2213 68.4103 16.616C67.7276 17 66.9703 17.192 66.1383 17.192ZM66.1383 15.512C66.6503 15.512 67.1036 15.3893 67.4983 15.144C67.8929 14.8987 68.2023 14.5627 68.4263 14.136C68.6609 13.6987 68.7783 13.208 68.7783 12.664C68.7783 12.12 68.6609 11.6347 68.4263 11.208C68.2023 10.7813 67.8929 10.4453 67.4983 10.2C67.1036 9.95467 66.6503 9.832 66.1383 9.832C65.6369 9.832 65.1836 9.95467 64.7783 10.2C64.3836 10.4453 64.0689 10.7813 63.8343 11.208C63.6103 11.6347 63.4983 12.12 63.4983 12.664C63.4983 13.208 63.6103 13.6987 63.8343 14.136C64.0689 14.5627 64.3836 14.8987 64.7783 15.144C65.1836 15.3893 65.6369 15.512 66.1383 15.512ZM75.6154 17.192C74.73 17.192 73.9514 16.9733 73.2794 16.536C72.618 16.0987 72.154 15.512 71.8874 14.776L73.2794 14.12C73.514 14.6107 73.834 15 74.2394 15.288C74.6554 15.576 75.114 15.72 75.6154 15.72C76.042 15.72 76.3887 15.624 76.6554 15.432C76.922 15.24 77.0554 14.9787 77.0554 14.648C77.0554 14.4347 76.9967 14.264 76.8794 14.136C76.762 13.9973 76.6127 13.8853 76.4314 13.8C76.2607 13.7147 76.0847 13.6507 75.9034 13.608L74.5434 13.224C73.7967 13.0107 73.2367 12.6907 72.8634 12.264C72.5007 11.8267 72.3194 11.32 72.3194 10.744C72.3194 10.2213 72.4527 9.768 72.7194 9.384C72.986 8.98933 73.354 8.68533 73.8234 8.472C74.2927 8.25867 74.8207 8.152 75.4074 8.152C76.1967 8.152 76.9007 8.34933 77.5194 8.744C78.138 9.128 78.5754 9.66667 78.8314 10.36L77.4394 11.016C77.2687 10.6 76.9967 10.2693 76.6234 10.024C76.2607 9.77867 75.85 9.656 75.3914 9.656C74.9967 9.656 74.682 9.752 74.4474 9.944C74.2127 10.1253 74.0954 10.3653 74.0954 10.664C74.0954 10.8667 74.1487 11.0373 74.2554 11.176C74.362 11.304 74.5007 11.4107 74.6714 11.496C74.842 11.5707 75.018 11.6347 75.1994 11.688L76.6074 12.104C77.322 12.3067 77.8714 12.6267 78.2554 13.064C78.6394 13.4907 78.8314 14.0027 78.8314 14.6C78.8314 15.112 78.6927 15.5653 78.4154 15.96C78.1487 16.344 77.7754 16.648 77.2954 16.872C76.8154 17.0853 76.2554 17.192 75.6154 17.192ZM84.7789 17.192C83.9469 17.192 83.1842 16.9947 82.4909 16.6C81.8082 16.2053 81.2642 15.6667 80.8589 14.984C80.4535 14.3013 80.2509 13.528 80.2509 12.664C80.2509 11.7893 80.4535 11.016 80.8589 10.344C81.2642 9.66133 81.8082 9.128 82.4909 8.744C83.1735 8.34933 83.9362 8.152 84.7789 8.152C85.6322 8.152 86.3949 8.34933 87.0669 8.744C87.7495 9.128 88.2882 9.66133 88.6829 10.344C89.0882 11.016 89.2909 11.7893 89.2909 12.664C89.2909 13.5387 89.0882 14.3173 88.6829 15C88.2775 15.6827 87.7335 16.2213 87.0509 16.616C86.3682 17 85.6109 17.192 84.7789 17.192ZM84.7789 15.512C85.2909 15.512 85.7442 15.3893 86.1389 15.144C86.5335 14.8987 86.8429 14.5627 87.0669 14.136C87.3015 13.6987 87.4189 13.208 87.4189 12.664C87.4189 12.12 87.3015 11.6347 87.0669 11.208C86.8429 10.7813 86.5335 10.4453 86.1389 10.2C85.7442 9.95467 85.2909 9.832 84.7789 9.832C84.2775 9.832 83.8242 9.95467 83.4189 10.2C83.0242 10.4453 82.7095 10.7813 82.4749 11.208C82.2509 11.6347 82.1389 12.12 82.1389 12.664C82.1389 13.208 82.2509 13.6987 82.4749 14.136C82.7095 14.5627 83.0242 14.8987 83.4189 15.144C83.8242 15.3893 84.2775 15.512 84.7789 15.512ZM91.7976 17V9.976H90.1976V8.344H91.7976V7.896C91.7976 7.24533 91.931 6.70133 92.1976 6.264C92.4643 5.816 92.8323 5.47467 93.3016 5.24C93.7816 5.00533 94.331 4.888 94.9496 4.888C95.067 4.888 95.2003 4.89867 95.3496 4.92C95.499 4.93067 95.6216 4.94667 95.7176 4.968V6.536C95.6323 6.51467 95.5363 6.504 95.4296 6.504C95.323 6.49333 95.2376 6.488 95.1736 6.488C94.6936 6.488 94.3096 6.6 94.0216 6.824C93.7336 7.03733 93.5896 7.39467 93.5896 7.896V8.344H95.5736V9.976H93.5896V17H91.7976ZM101.316 17.096C100.409 17.096 99.705 16.84 99.2036 16.328C98.7023 15.816 98.4516 15.096 98.4516 14.168V9.976H96.9316V8.344H97.1716C97.577 8.344 97.8916 8.22667 98.1156 7.992C98.3396 7.75733 98.4516 7.43733 98.4516 7.032V6.36H100.26V8.344H102.228V9.976H100.26V14.088C100.26 14.3867 100.308 14.6427 100.404 14.856C100.5 15.0587 100.654 15.2187 100.868 15.336C101.081 15.4427 101.358 15.496 101.7 15.496C101.785 15.496 101.881 15.4907 101.988 15.48C102.094 15.4693 102.196 15.4587 102.292 15.448V17C102.142 17.0213 101.977 17.0427 101.796 17.064C101.614 17.0853 101.454 17.096 101.316 17.096ZM112.821 17.192C111.957 17.192 111.152 17.0373 110.405 16.728C109.669 16.4187 109.018 15.9867 108.453 15.432C107.898 14.8773 107.461 14.2267 107.141 13.48C106.832 12.7333 106.677 11.9173 106.677 11.032C106.677 10.1467 106.832 9.33067 107.141 8.584C107.461 7.82667 107.898 7.176 108.453 6.632C109.008 6.07733 109.658 5.65067 110.405 5.352C111.152 5.04267 111.957 4.888 112.821 4.888C113.696 4.888 114.501 5.04267 115.237 5.352C115.984 5.65067 116.634 6.07733 117.189 6.632C117.754 7.18667 118.192 7.83733 118.501 8.584C118.81 9.33067 118.965 10.1467 118.965 11.032C118.965 11.9173 118.805 12.7333 118.485 13.48C118.176 14.2267 117.744 14.8773 117.189 15.432C116.634 15.9867 115.984 16.4187 115.237 16.728C114.49 17.0373 113.685 17.192 112.821 17.192ZM112.821 15.464C113.44 15.464 114.005 15.352 114.517 15.128C115.04 14.904 115.493 14.5947 115.877 14.2C116.261 13.7947 116.56 13.3253 116.773 12.792C116.986 12.248 117.093 11.6613 117.093 11.032C117.093 10.4027 116.986 9.82133 116.773 9.288C116.56 8.75467 116.261 8.28533 115.877 7.88C115.493 7.47467 115.04 7.16 114.517 6.936C114.005 6.712 113.44 6.6 112.821 6.6C112.202 6.6 111.632 6.712 111.109 6.936C110.597 7.16 110.149 7.47467 109.765 7.88C109.381 8.28533 109.082 8.75467 108.869 9.288C108.666 9.82133 108.565 10.4027 108.565 11.032C108.565 11.6613 108.666 12.248 108.869 12.792C109.082 13.3253 109.381 13.7947 109.765 14.2C110.149 14.5947 110.602 14.904 111.125 15.128C111.648 15.352 112.213 15.464 112.821 15.464ZM123.988 17.192C123.337 17.192 122.766 17.048 122.276 16.76C121.785 16.4613 121.401 16.0507 121.124 15.528C120.857 14.9947 120.724 14.3813 120.724 13.688V8.344H122.532V13.528C122.532 13.9227 122.612 14.2693 122.772 14.568C122.932 14.8667 123.156 15.1013 123.444 15.272C123.732 15.432 124.062 15.512 124.436 15.512C124.82 15.512 125.156 15.4267 125.444 15.256C125.732 15.0853 125.956 14.8453 126.116 14.536C126.286 14.2267 126.372 13.864 126.372 13.448V8.344H128.164V17H126.452V15.304L126.644 15.528C126.441 16.0613 126.105 16.472 125.636 16.76C125.166 17.048 124.617 17.192 123.988 17.192ZM134.019 17.096C133.112 17.096 132.408 16.84 131.907 16.328C131.405 15.816 131.155 15.096 131.155 14.168V9.976H129.635V8.344H129.875C130.28 8.344 130.595 8.22667 130.819 7.992C131.043 7.75733 131.155 7.43733 131.155 7.032V6.36H132.963V8.344H134.931V9.976H132.963V14.088C132.963 14.3867 133.011 14.6427 133.107 14.856C133.203 15.0587 133.357 15.2187 133.571 15.336C133.784 15.4427 134.061 15.496 134.403 15.496C134.488 15.496 134.584 15.4907 134.691 15.48C134.797 15.4693 134.899 15.4587 134.995 15.448V17C134.845 17.0213 134.68 17.0427 134.499 17.064C134.317 17.0853 134.157 17.096 134.019 17.096ZM136.759 17V4.888H138.567V17H136.759ZM144.857 17.192C144.025 17.192 143.262 16.9947 142.569 16.6C141.886 16.2053 141.342 15.6667 140.937 14.984C140.532 14.3013 140.329 13.528 140.329 12.664C140.329 11.7893 140.532 11.016 140.937 10.344C141.342 9.66133 141.886 9.128 142.569 8.744C143.252 8.34933 144.014 8.152 144.857 8.152C145.71 8.152 146.473 8.34933 147.145 8.744C147.828 9.128 148.366 9.66133 148.761 10.344C149.166 11.016 149.369 11.7893 149.369 12.664C149.369 13.5387 149.166 14.3173 148.761 15C148.356 15.6827 147.812 16.2213 147.129 16.616C146.446 17 145.689 17.192 144.857 17.192ZM144.857 15.512C145.369 15.512 145.822 15.3893 146.217 15.144C146.612 14.8987 146.921 14.5627 147.145 14.136C147.38 13.6987 147.497 13.208 147.497 12.664C147.497 12.12 147.38 11.6347 147.145 11.208C146.921 10.7813 146.612 10.4453 146.217 10.2C145.822 9.95467 145.369 9.832 144.857 9.832C144.356 9.832 143.902 9.95467 143.497 10.2C143.102 10.4453 142.788 10.7813 142.553 11.208C142.329 11.6347 142.217 12.12 142.217 12.664C142.217 13.208 142.329 13.6987 142.553 14.136C142.788 14.5627 143.102 14.8987 143.497 15.144C143.902 15.3893 144.356 15.512 144.857 15.512ZM155.31 17.192C154.478 17.192 153.715 16.9947 153.022 16.6C152.339 16.2053 151.795 15.6667 151.39 14.984C150.985 14.3013 150.782 13.528 150.782 12.664C150.782 11.7893 150.985 11.016 151.39 10.344C151.795 9.66133 152.339 9.128 153.022 8.744C153.705 8.34933 154.467 8.152 155.31 8.152C156.163 8.152 156.926 8.34933 157.598 8.744C158.281 9.128 158.819 9.66133 159.214 10.344C159.619 11.016 159.822 11.7893 159.822 12.664C159.822 13.5387 159.619 14.3173 159.214 15C158.809 15.6827 158.265 16.2213 157.582 16.616C156.899 17 156.142 17.192 155.31 17.192ZM155.31 15.512C155.822 15.512 156.275 15.3893 156.67 15.144C157.065 14.8987 157.374 14.5627 157.598 14.136C157.833 13.6987 157.95 13.208 157.95 12.664C157.95 12.12 157.833 11.6347 157.598 11.208C157.374 10.7813 157.065 10.4453 156.67 10.2C156.275 9.95467 155.822 9.832 155.31 9.832C154.809 9.832 154.355 9.95467 153.95 10.2C153.555 10.4453 153.241 10.7813 153.006 11.208C152.782 11.6347 152.67 12.12 152.67 12.664C152.67 13.208 152.782 13.6987 153.006 14.136C153.241 14.5627 153.555 14.8987 153.95 15.144C154.355 15.3893 154.809 15.512 155.31 15.512ZM161.587 17V4.888H163.395V13L162.691 12.824L167.027 8.344H169.283L166.019 11.816L169.427 17H167.347L164.307 12.408L165.379 12.264L162.819 14.984L163.395 13.784V17H161.587Z" fill="#212528"/>
<defs>
<linearGradient id="paint0_linear_5172_15190" x1="13.25" y1="10.5" x2="13.25" y2="20" gradientUnits="userSpaceOnUse">
<stop stop-color="#35B8F1"/>
<stop offset="1" stop-color="#28A8EA"/>
</linearGradient>
<linearGradient id="paint1_linear_5172_15190" x1="1.91092" y1="3.78387" x2="9.08907" y2="16.2161" gradientUnits="userSpaceOnUse">
<stop stop-color="#1784D9"/>
<stop offset="0.5" stop-color="#107AD5"/>
<stop offset="1" stop-color="#0A63C9"/>
</linearGradient>
<clipPath id="clip0_5172_15190">
<rect width="21.5" height="20" fill="white"/>
</clipPath>
</defs>
</svg>
