<svg width="62" height="20" viewBox="0 0 62 20" fill="none" xmlns="http://www.w3.org/2000/svg">
<path d="M2.1665 5C2.1665 3.61929 3.28579 2.5 4.6665 2.5H16.3332C17.7139 2.5 18.8332 3.61929 18.8332 5V11.6667C18.8332 13.0474 17.7139 14.1667 16.3332 14.1667H2.1665V5Z" fill="#0D4680"/>
<path d="M2.1665 5C2.1665 3.61929 3.28579 2.5 4.6665 2.5H16.4204C16.6386 2.5 16.8554 2.53517 17.0623 2.60417L2.1665 17.5V5Z" fill="#66BDFF"/>
<path d="M31.908 17.192C31.1613 17.192 30.468 17.0533 29.828 16.776C29.188 16.488 28.644 16.0987 28.196 15.608C27.748 15.1173 27.4173 14.552 27.204 13.912L28.804 13.24C29.092 13.976 29.5133 14.5413 30.068 14.936C30.6227 15.3307 31.2627 15.528 31.988 15.528C32.4147 15.528 32.788 15.464 33.108 15.336C33.428 15.1973 33.6733 15.0053 33.844 14.76C34.0253 14.5147 34.116 14.232 34.116 13.912C34.116 13.4747 33.9933 13.128 33.748 12.872C33.5027 12.616 33.14 12.4133 32.66 12.264L30.42 11.56C29.524 11.2827 28.8413 10.8613 28.372 10.296C27.9027 9.72 27.668 9.048 27.668 8.28C27.668 7.608 27.8333 7.02133 28.164 6.52C28.4947 6.008 28.948 5.608 29.524 5.32C30.1107 5.032 30.7773 4.888 31.524 4.888C32.2387 4.888 32.8893 5.016 33.476 5.272C34.0627 5.51733 34.564 5.85867 34.98 6.296C35.4067 6.73333 35.716 7.24 35.908 7.816L34.34 8.504C34.1053 7.87467 33.7373 7.38933 33.236 7.048C32.7453 6.70667 32.1747 6.536 31.524 6.536C31.1293 6.536 30.7827 6.60533 30.484 6.744C30.1853 6.872 29.9507 7.064 29.78 7.32C29.62 7.56533 29.54 7.85333 29.54 8.184C29.54 8.568 29.6627 8.90933 29.908 9.208C30.1533 9.50667 30.5267 9.73067 31.028 9.88L33.108 10.536C34.0573 10.824 34.772 11.24 35.252 11.784C35.732 12.3173 35.972 12.984 35.972 13.784C35.972 14.4453 35.796 15.032 35.444 15.544C35.1027 16.056 34.628 16.4613 34.02 16.76C33.412 17.048 32.708 17.192 31.908 17.192ZM38.0914 17V5.08H39.8514L44.3314 11.288H43.4514L47.8514 5.08H49.6114V17H47.7394V7.304L48.4434 7.496L43.9474 13.64H43.7554L39.3554 7.496L39.9794 7.304V17H38.0914ZM56.2518 17.192C55.5051 17.192 54.8118 17.0533 54.1718 16.776C53.5318 16.488 52.9878 16.0987 52.5398 15.608C52.0918 15.1173 51.7611 14.552 51.5478 13.912L53.1478 13.24C53.4358 13.976 53.8571 14.5413 54.4118 14.936C54.9664 15.3307 55.6064 15.528 56.3318 15.528C56.7584 15.528 57.1318 15.464 57.4518 15.336C57.7718 15.1973 58.0171 15.0053 58.1878 14.76C58.3691 14.5147 58.4598 14.232 58.4598 13.912C58.4598 13.4747 58.3371 13.128 58.0918 12.872C57.8464 12.616 57.4838 12.4133 57.0038 12.264L54.7638 11.56C53.8678 11.2827 53.1851 10.8613 52.7158 10.296C52.2464 9.72 52.0118 9.048 52.0118 8.28C52.0118 7.608 52.1771 7.02133 52.5078 6.52C52.8384 6.008 53.2918 5.608 53.8678 5.32C54.4544 5.032 55.1211 4.888 55.8678 4.888C56.5824 4.888 57.2331 5.016 57.8198 5.272C58.4064 5.51733 58.9078 5.85867 59.3238 6.296C59.7504 6.73333 60.0598 7.24 60.2517 7.816L58.6838 8.504C58.4491 7.87467 58.0811 7.38933 57.5798 7.048C57.0891 6.70667 56.5184 6.536 55.8678 6.536C55.4731 6.536 55.1264 6.60533 54.8278 6.744C54.5291 6.872 54.2944 7.064 54.1238 7.32C53.9638 7.56533 53.8838 7.85333 53.8838 8.184C53.8838 8.568 54.0064 8.90933 54.2518 9.208C54.4971 9.50667 54.8704 9.73067 55.3718 9.88L57.4518 10.536C58.4011 10.824 59.1158 11.24 59.5958 11.784C60.0758 12.3173 60.3158 12.984 60.3158 13.784C60.3158 14.4453 60.1398 15.032 59.7878 15.544C59.4464 16.056 58.9718 16.4613 58.3638 16.76C57.7558 17.048 57.0518 17.192 56.2518 17.192Z" fill="#212528"/>
</svg>
