<svg width="500" height="350" viewBox="0 0 500 350" fill="none" xmlns="http://www.w3.org/2000/svg">
<path d="M167.446 154.487L155.523 144.082L236.343 73.4211L270.516 103.28L319.458 60.4893L331.38 70.8942L270.516 124.127L236.343 94.2496L167.446 154.487Z" fill="#DBEAF6"/>
<path d="M306.218 56.5131L346.787 47L335.928 82.4697L306.218 56.5131Z" fill="#DBEAF6"/>
<g filter="url(#filter0_d_5045_40884)">
<g clip-path="url(#clip0_5045_40884)">
<rect x="20" y="56" width="220" height="248" rx="8" fill="white"/>
<rect width="220" height="48" transform="translate(20 56)" fill="white"/>
<path d="M38 74C38 72.3431 39.3431 71 41 71H55C56.6569 71 58 72.3431 58 74V83C58 84.6569 56.6569 86 55 86H41C39.3431 86 38 84.6569 38 83V74Z" fill="#F2CA55"/>
<path fill-rule="evenodd" clip-rule="evenodd" d="M45.8499 79C45.8499 80.1874 46.8125 81.15 47.9999 81.15C49.1873 81.15 50.1499 80.1874 50.1499 79H51.8499C51.8499 81.1263 50.1262 82.85 47.9999 82.85C45.8736 82.85 44.1499 81.1263 44.1499 79H45.8499Z" fill="#8C5D00"/>
<path fill-rule="evenodd" clip-rule="evenodd" d="M45.1499 77V74.5H46.8499V77H45.1499ZM49.1499 77V74.5H50.8499V77H49.1499Z" fill="#8C5D00"/>
<path d="M50 86V89L46 86H50Z" fill="#8C5D00"/>
<path d="M69.0114 86V74.3636H71.4716V79.1648H76.4659V74.3636H78.9205V86H76.4659V81.1932H71.4716V86H69.0114ZM84.8807 86.1705C83.983 86.1705 83.2102 85.9886 82.5625 85.625C81.9186 85.2576 81.4223 84.7386 81.0739 84.0682C80.7254 83.3939 80.5511 82.5966 80.5511 81.6761C80.5511 80.7784 80.7254 79.9905 81.0739 79.3125C81.4223 78.6345 81.9129 78.1061 82.5455 77.7273C83.1818 77.3485 83.928 77.1591 84.7841 77.1591C85.3598 77.1591 85.8958 77.2519 86.392 77.4375C86.892 77.6193 87.3277 77.8939 87.6989 78.2614C88.0739 78.6288 88.3655 79.0909 88.5739 79.6477C88.7822 80.2008 88.8864 80.8485 88.8864 81.5909V82.2557H81.517V80.7557H86.608C86.608 80.4072 86.5322 80.0985 86.3807 79.8295C86.2292 79.5606 86.0189 79.3504 85.75 79.1989C85.4848 79.0436 85.1761 78.9659 84.8239 78.9659C84.4564 78.9659 84.1307 79.0511 83.8466 79.2216C83.5663 79.3883 83.3466 79.6136 83.1875 79.8977C83.0284 80.178 82.947 80.4905 82.9432 80.8352V82.2614C82.9432 82.6932 83.0227 83.0663 83.1818 83.3807C83.3447 83.6951 83.5739 83.9375 83.8693 84.108C84.1648 84.2784 84.5152 84.3636 84.9205 84.3636C85.1894 84.3636 85.4356 84.3258 85.6591 84.25C85.8826 84.1742 86.0739 84.0606 86.233 83.9091C86.392 83.7576 86.5133 83.572 86.5966 83.3523L88.8352 83.5C88.7216 84.0379 88.4886 84.5076 88.1364 84.9091C87.7879 85.3068 87.3371 85.6174 86.7841 85.8409C86.2348 86.0606 85.6004 86.1705 84.8807 86.1705ZM92.8864 74.3636V86H90.4659V74.3636H92.8864ZM97.2457 74.3636V86H94.8253V74.3636H97.2457ZM103.128 86.1705C102.245 86.1705 101.482 85.983 100.838 85.608C100.198 85.2292 99.7036 84.7027 99.3551 84.0284C99.0066 83.3504 98.8324 82.5644 98.8324 81.6705C98.8324 80.7689 99.0066 79.9811 99.3551 79.3068C99.7036 78.6288 100.198 78.1023 100.838 77.7273C101.482 77.3485 102.245 77.1591 103.128 77.1591C104.01 77.1591 104.772 77.3485 105.412 77.7273C106.056 78.1023 106.552 78.6288 106.901 79.3068C107.249 79.9811 107.423 80.7689 107.423 81.6705C107.423 82.5644 107.249 83.3504 106.901 84.0284C106.552 84.7027 106.056 85.2292 105.412 85.608C104.772 85.983 104.01 86.1705 103.128 86.1705ZM103.139 84.2955C103.541 84.2955 103.876 84.1818 104.145 83.9545C104.414 83.7235 104.616 83.4091 104.753 83.0114C104.893 82.6136 104.963 82.161 104.963 81.6534C104.963 81.1458 104.893 80.6932 104.753 80.2955C104.616 79.8977 104.414 79.5833 104.145 79.3523C103.876 79.1212 103.541 79.0057 103.139 79.0057C102.734 79.0057 102.393 79.1212 102.116 79.3523C101.844 79.5833 101.637 79.8977 101.497 80.2955C101.361 80.6932 101.293 81.1458 101.293 81.6534C101.293 82.161 101.361 82.6136 101.497 83.0114C101.637 83.4091 101.844 83.7235 102.116 83.9545C102.393 84.1818 102.734 84.2955 103.139 84.2955Z" fill="#212528"/>
<path d="M123.175 76.9126L127 80.7293L130.825 76.9126L132 78.0876L127 83.0876L122 78.0876L123.175 76.9126Z" fill="#5D6164"/>
<rect width="220" height="40" transform="translate(20 104)" fill="white"/>
<path d="M51.8333 116.5H40.1667C39.25 116.5 38.5 117.25 38.5 118.167V129.833C38.5 130.75 39.2417 131.5 40.1667 131.5H51.8333C52.75 131.5 53.5 130.75 53.5 129.833V118.167C53.5 117.25 52.75 116.5 51.8333 116.5ZM51.8333 129.833H40.1667V127.333H43.1333C43.7083 128.325 44.775 129 46.0083 129C47.2417 129 48.3 128.325 48.8833 127.333H51.8333V129.833ZM51.8333 125.667H47.675C47.675 126.583 46.925 127.333 46.0083 127.333C45.0917 127.333 44.3417 126.583 44.3417 125.667H40.1667V118.167H51.8333V125.667Z" fill="#5D6164"/>
<rect x="72" y="116" width="100" height="16" rx="4" fill="#7B7F82" fill-opacity="0.1"/>
<rect width="220" height="40" transform="translate(20 144)" fill="#F2BE55" fill-opacity="0.17"/>
<path d="M51.8333 156.5H40.1667C39.25 156.5 38.5 157.25 38.5 158.167V169.833C38.5 170.75 39.25 171.5 40.1667 171.5H51.8333C52.75 171.5 53.5 170.75 53.5 169.833V158.167C53.5 157.25 52.75 156.5 51.8333 156.5ZM51.8333 169.833H40.1667V158.167H51.8333V169.833Z" fill="#5D6164"/>
<path d="M43.5 164H41.8333V168.167H43.5V164Z" fill="#5D6164"/>
<path d="M50.1667 159.833H48.5V168.167H50.1667V159.833Z" fill="#5D6164"/>
<path d="M46.8333 165.667H45.1667V168.167H46.8333V165.667Z" fill="#5D6164"/>
<path d="M46.8333 162.333H45.1667V164H46.8333V162.333Z" fill="#5D6164"/>
<path d="M73.6506 169H72.358L76.0966 158.818H77.3693L81.108 169H79.8153L76.7727 160.429H76.6932L73.6506 169ZM74.1278 165.023H79.3381V166.116H74.1278V165.023ZM83.7081 164.406V169H82.5348V161.364H83.6683V162.557H83.7678C83.9467 162.169 84.2185 161.857 84.5831 161.622C84.9477 161.384 85.4183 161.264 85.995 161.264C86.5121 161.264 86.9645 161.37 87.3523 161.582C87.7401 161.791 88.0417 162.109 88.2571 162.537C88.4725 162.961 88.5803 163.498 88.5803 164.148V169H87.407V164.227C87.407 163.627 87.2512 163.16 86.9396 162.825C86.6281 162.487 86.2005 162.318 85.657 162.318C85.2824 162.318 84.9477 162.399 84.6527 162.562C84.361 162.724 84.1307 162.961 83.9616 163.273C83.7926 163.584 83.7081 163.962 83.7081 164.406ZM92.9714 169.179C92.4875 169.179 92.0484 169.088 91.6539 168.906C91.2595 168.72 90.9463 168.453 90.7143 168.105C90.4823 167.754 90.3663 167.33 90.3663 166.832C90.3663 166.395 90.4525 166.04 90.6248 165.768C90.7972 165.493 91.0275 165.278 91.3159 165.122C91.6042 164.966 91.9224 164.85 92.2704 164.774C92.6217 164.695 92.9747 164.632 93.3294 164.585C93.7934 164.526 94.1696 164.481 94.4579 164.451C94.7496 164.418 94.9617 164.363 95.0943 164.287C95.2302 164.211 95.2981 164.078 95.2981 163.889V163.849C95.2981 163.359 95.1639 162.978 94.8954 162.706C94.6303 162.434 94.2276 162.298 93.6873 162.298C93.1272 162.298 92.688 162.421 92.3699 162.666C92.0517 162.911 91.8279 163.173 91.6987 163.452L90.585 163.054C90.7839 162.59 91.0491 162.229 91.3805 161.97C91.7153 161.708 92.0798 161.526 92.4743 161.423C92.872 161.317 93.2631 161.264 93.6475 161.264C93.8928 161.264 94.1745 161.294 94.4927 161.354C94.8142 161.41 95.1241 161.528 95.4224 161.707C95.724 161.886 95.9743 162.156 96.1731 162.517C96.372 162.878 96.4714 163.362 96.4714 163.969V169H95.2981V167.966H95.2385C95.1589 168.132 95.0263 168.309 94.8407 168.498C94.6551 168.687 94.4082 168.848 94.1 168.98C93.7917 169.113 93.4155 169.179 92.9714 169.179ZM93.1504 168.125C93.6144 168.125 94.0055 168.034 94.3237 167.852C94.6452 167.669 94.8871 167.434 95.0495 167.146C95.2153 166.857 95.2981 166.554 95.2981 166.236V165.162C95.2484 165.222 95.139 165.276 94.97 165.326C94.8043 165.372 94.612 165.414 94.3933 165.45C94.1779 165.483 93.9674 165.513 93.7619 165.54C93.5597 165.563 93.3957 165.583 93.2697 165.599C92.9648 165.639 92.6797 165.704 92.4146 165.793C92.1528 165.879 91.9406 166.01 91.7782 166.186C91.6191 166.358 91.5396 166.594 91.5396 166.892C91.5396 167.3 91.6904 167.608 91.992 167.817C92.2969 168.022 92.6831 168.125 93.1504 168.125ZM99.7862 158.818V169H98.6129V158.818H99.7862ZM102.691 171.864C102.492 171.864 102.315 171.847 102.159 171.814C102.003 171.784 101.895 171.754 101.836 171.724L102.134 170.69C102.419 170.763 102.671 170.79 102.89 170.77C103.108 170.75 103.302 170.652 103.471 170.477C103.644 170.304 103.801 170.024 103.944 169.636L104.162 169.04L101.339 161.364H102.611L104.719 167.449H104.799L106.907 161.364H108.18L104.938 170.114C104.792 170.508 104.612 170.835 104.396 171.093C104.181 171.355 103.93 171.549 103.645 171.675C103.364 171.801 103.046 171.864 102.691 171.864ZM113.049 161.364V162.358H109.092V161.364H113.049ZM110.245 159.534H111.419V166.812C111.419 167.144 111.467 167.393 111.563 167.558C111.662 167.721 111.788 167.83 111.941 167.886C112.096 167.939 112.26 167.966 112.433 167.966C112.562 167.966 112.668 167.959 112.751 167.946C112.834 167.929 112.9 167.916 112.95 167.906L113.188 168.96C113.109 168.99 112.998 169.02 112.855 169.05C112.713 169.083 112.532 169.099 112.313 169.099C111.982 169.099 111.657 169.028 111.339 168.886C111.024 168.743 110.762 168.526 110.553 168.234C110.348 167.943 110.245 167.575 110.245 167.131V159.534ZM114.814 169V161.364H115.987V169H114.814ZM115.411 160.091C115.182 160.091 114.985 160.013 114.819 159.857C114.657 159.701 114.575 159.514 114.575 159.295C114.575 159.077 114.657 158.889 114.819 158.734C114.985 158.578 115.182 158.5 115.411 158.5C115.639 158.5 115.835 158.578 115.997 158.734C116.163 158.889 116.246 159.077 116.246 159.295C116.246 159.514 116.163 159.701 115.997 159.857C115.835 160.013 115.639 160.091 115.411 160.091ZM121.239 169.159C120.523 169.159 119.906 168.99 119.389 168.652C118.872 168.314 118.474 167.848 118.196 167.255C117.918 166.662 117.778 165.984 117.778 165.222C117.778 164.446 117.921 163.762 118.206 163.168C118.494 162.572 118.895 162.106 119.409 161.771C119.926 161.433 120.529 161.264 121.219 161.264C121.756 161.264 122.24 161.364 122.67 161.562C123.101 161.761 123.454 162.04 123.729 162.398C124.004 162.756 124.175 163.173 124.241 163.651H123.068C122.979 163.303 122.78 162.994 122.472 162.726C122.167 162.454 121.756 162.318 121.239 162.318C120.781 162.318 120.38 162.437 120.036 162.676C119.694 162.911 119.427 163.245 119.235 163.675C119.046 164.103 118.952 164.605 118.952 165.182C118.952 165.772 119.045 166.286 119.23 166.723C119.419 167.161 119.684 167.5 120.026 167.742C120.37 167.984 120.775 168.105 121.239 168.105C121.544 168.105 121.82 168.052 122.069 167.946C122.317 167.84 122.528 167.688 122.7 167.489C122.873 167.29 122.995 167.051 123.068 166.773H124.241C124.175 167.223 124.011 167.629 123.749 167.991C123.491 168.349 123.148 168.634 122.72 168.846C122.296 169.055 121.802 169.159 121.239 169.159ZM131.366 163.074L130.312 163.372C130.246 163.196 130.148 163.026 130.018 162.86C129.893 162.691 129.72 162.552 129.501 162.442C129.283 162.333 129.003 162.278 128.661 162.278C128.194 162.278 127.804 162.386 127.493 162.602C127.185 162.814 127.031 163.084 127.031 163.412C127.031 163.704 127.137 163.934 127.349 164.103C127.561 164.272 127.892 164.413 128.343 164.526L129.477 164.804C130.159 164.97 130.668 165.223 131.003 165.565C131.338 165.903 131.505 166.339 131.505 166.872C131.505 167.31 131.379 167.701 131.127 168.045C130.879 168.39 130.531 168.662 130.083 168.861C129.636 169.06 129.115 169.159 128.522 169.159C127.743 169.159 127.098 168.99 126.588 168.652C126.078 168.314 125.754 167.82 125.619 167.17L126.732 166.892C126.838 167.303 127.039 167.611 127.334 167.817C127.632 168.022 128.022 168.125 128.502 168.125C129.049 168.125 129.483 168.009 129.805 167.777C130.129 167.542 130.292 167.26 130.292 166.932C130.292 166.667 130.199 166.445 130.013 166.266C129.828 166.083 129.543 165.947 129.158 165.858L127.886 165.56C127.186 165.394 126.673 165.137 126.344 164.789C126.02 164.438 125.857 163.999 125.857 163.472C125.857 163.041 125.978 162.66 126.22 162.328C126.465 161.997 126.799 161.737 127.219 161.548C127.644 161.359 128.124 161.264 128.661 161.264C129.417 161.264 130.01 161.43 130.441 161.761C130.875 162.093 131.183 162.53 131.366 163.074Z" fill="#3F4346"/>
<path d="M210.175 167.088L214 163.271L217.825 167.088L219 165.913L214 160.913L209 165.913L210.175 167.088Z" fill="#5D6164"/>
<rect width="220" height="40" transform="translate(20 184)" fill="#F2BE55" fill-opacity="0.17"/>
<path d="M84.5001 197.333V203.167H76.3084L75.8167 203.658L75.3334 204.142V197.333H84.5001ZM85.3334 195.667H74.5001C74.0417 195.667 73.6667 196.042 73.6667 196.5V208.167L77.0001 204.833H85.3334C85.7917 204.833 86.1667 204.458 86.1667 204V196.5C86.1667 196.042 85.7917 195.667 85.3334 195.667ZM89.5001 199H87.8334V206.5H77.0001V208.167C77.0001 208.625 77.3751 209 77.8334 209H87.0001L90.3334 212.333V199.833C90.3334 199.375 89.9584 199 89.5001 199Z" fill="#5D6164"/>
<path d="M117.426 202H116.193C116.12 201.645 115.993 201.334 115.81 201.065C115.631 200.797 115.413 200.571 115.154 200.389C114.899 200.204 114.616 200.064 114.304 199.972C113.992 199.879 113.668 199.832 113.33 199.832C112.713 199.832 112.155 199.988 111.654 200.3C111.157 200.611 110.761 201.07 110.466 201.677C110.174 202.283 110.028 203.027 110.028 203.909C110.028 204.791 110.174 205.535 110.466 206.141C110.761 206.748 111.157 207.207 111.654 207.518C112.155 207.83 112.713 207.986 113.33 207.986C113.668 207.986 113.992 207.939 114.304 207.847C114.616 207.754 114.899 207.616 115.154 207.434C115.413 207.248 115.631 207.021 115.81 206.753C115.993 206.481 116.12 206.17 116.193 205.818H117.426C117.333 206.339 117.164 206.804 116.919 207.215C116.674 207.626 116.369 207.976 116.004 208.264C115.64 208.549 115.23 208.766 114.776 208.915C114.326 209.065 113.843 209.139 113.33 209.139C112.461 209.139 111.689 208.927 111.013 208.503C110.337 208.079 109.805 207.475 109.417 206.693C109.029 205.911 108.835 204.983 108.835 203.909C108.835 202.835 109.029 201.907 109.417 201.125C109.805 200.343 110.337 199.74 111.013 199.315C111.689 198.891 112.461 198.679 113.33 198.679C113.843 198.679 114.326 198.754 114.776 198.903C115.23 199.052 115.64 199.271 116.004 199.559C116.369 199.844 116.674 200.192 116.919 200.603C117.164 201.011 117.333 201.476 117.426 202ZM120.433 204.406V209H119.259V198.818H120.433V202.557H120.532C120.711 202.162 120.98 201.849 121.338 201.617C121.699 201.382 122.179 201.264 122.779 201.264C123.3 201.264 123.755 201.369 124.146 201.577C124.538 201.783 124.841 202.099 125.056 202.527C125.275 202.951 125.384 203.491 125.384 204.148V209H124.211V204.227C124.211 203.621 124.054 203.152 123.739 202.82C123.427 202.486 122.995 202.318 122.441 202.318C122.057 202.318 121.712 202.399 121.407 202.562C121.106 202.724 120.867 202.961 120.691 203.273C120.519 203.584 120.433 203.962 120.433 204.406ZM129.778 209.179C129.294 209.179 128.855 209.088 128.461 208.906C128.066 208.72 127.753 208.453 127.521 208.105C127.289 207.754 127.173 207.33 127.173 206.832C127.173 206.395 127.259 206.04 127.431 205.768C127.604 205.493 127.834 205.278 128.123 205.122C128.411 204.966 128.729 204.85 129.077 204.774C129.428 204.695 129.781 204.632 130.136 204.585C130.6 204.526 130.976 204.481 131.265 204.451C131.556 204.418 131.768 204.363 131.901 204.287C132.037 204.211 132.105 204.078 132.105 203.889V203.849C132.105 203.359 131.971 202.978 131.702 202.706C131.437 202.434 131.034 202.298 130.494 202.298C129.934 202.298 129.495 202.421 129.176 202.666C128.858 202.911 128.635 203.173 128.505 203.452L127.392 203.054C127.591 202.59 127.856 202.229 128.187 201.97C128.522 201.708 128.886 201.526 129.281 201.423C129.679 201.317 130.07 201.264 130.454 201.264C130.699 201.264 130.981 201.294 131.299 201.354C131.621 201.41 131.931 201.528 132.229 201.707C132.531 201.886 132.781 202.156 132.98 202.517C133.179 202.878 133.278 203.362 133.278 203.969V209H132.105V207.966H132.045C131.966 208.132 131.833 208.309 131.647 208.498C131.462 208.687 131.215 208.848 130.907 208.98C130.598 209.113 130.222 209.179 129.778 209.179ZM129.957 208.125C130.421 208.125 130.812 208.034 131.13 207.852C131.452 207.669 131.694 207.434 131.856 207.146C132.022 206.857 132.105 206.554 132.105 206.236V205.162C132.055 205.222 131.946 205.276 131.777 205.326C131.611 205.372 131.419 205.414 131.2 205.45C130.984 205.483 130.774 205.513 130.569 205.54C130.366 205.563 130.202 205.583 130.076 205.599C129.771 205.639 129.486 205.704 129.221 205.793C128.959 205.879 128.747 206.01 128.585 206.186C128.426 206.358 128.346 206.594 128.346 206.892C128.346 207.3 128.497 207.608 128.799 207.817C129.104 208.022 129.49 208.125 129.957 208.125ZM138.741 201.364V202.358H134.783V201.364H138.741ZM135.937 199.534H137.11V206.812C137.11 207.144 137.158 207.393 137.254 207.558C137.354 207.721 137.479 207.83 137.632 207.886C137.788 207.939 137.952 207.966 138.124 207.966C138.253 207.966 138.359 207.959 138.442 207.946C138.525 207.929 138.591 207.916 138.641 207.906L138.88 208.96C138.8 208.99 138.689 209.02 138.547 209.05C138.404 209.083 138.224 209.099 138.005 209.099C137.673 209.099 137.349 209.028 137.03 208.886C136.715 208.743 136.454 208.526 136.245 208.234C136.039 207.943 135.937 207.575 135.937 207.131V199.534Z" fill="#3F4346"/>
<rect width="220" height="40" transform="translate(20 224)" fill="#F2BE55" fill-opacity="0.17"/>
<path d="M89.8417 243.65L82.3417 236.15C82.0417 235.85 81.6251 235.667 81.1667 235.667H75.3334C74.4167 235.667 73.6667 236.417 73.6667 237.333V243.167C73.6667 243.625 73.8501 244.042 74.1584 244.35L81.6584 251.85C81.9584 252.15 82.3751 252.333 82.8334 252.333C83.2917 252.333 83.7084 252.15 84.0084 251.842L89.8417 246.008C90.1501 245.708 90.3334 245.292 90.3334 244.833C90.3334 244.375 90.1417 243.95 89.8417 243.65ZM82.8334 250.675L75.3334 243.167V237.333H81.1667V237.325L88.6667 244.825L82.8334 250.675Z" fill="#5D6164"/>
<path d="M77.4167 240.667C78.1071 240.667 78.6667 240.107 78.6667 239.417C78.6667 238.726 78.1071 238.167 77.4167 238.167C76.7264 238.167 76.1667 238.726 76.1667 239.417C76.1667 240.107 76.7264 240.667 77.4167 240.667Z" fill="#5D6164"/>
<path d="M108.676 239.912V238.818H116.312V239.912H113.111V249H111.878V239.912H108.676ZM119.264 249.179C118.78 249.179 118.341 249.088 117.947 248.906C117.552 248.72 117.239 248.453 117.007 248.105C116.775 247.754 116.659 247.33 116.659 246.832C116.659 246.395 116.745 246.04 116.918 245.768C117.09 245.493 117.32 245.278 117.609 245.122C117.897 244.966 118.215 244.85 118.563 244.774C118.915 244.695 119.268 244.632 119.622 244.585C120.086 244.526 120.463 244.481 120.751 244.451C121.043 244.418 121.255 244.363 121.387 244.287C121.523 244.211 121.591 244.078 121.591 243.889V243.849C121.591 243.359 121.457 242.978 121.188 242.706C120.923 242.434 120.521 242.298 119.98 242.298C119.42 242.298 118.981 242.421 118.663 242.666C118.345 242.911 118.121 243.173 117.992 243.452L116.878 243.054C117.077 242.59 117.342 242.229 117.673 241.97C118.008 241.708 118.373 241.526 118.767 241.423C119.165 241.317 119.556 241.264 119.941 241.264C120.186 241.264 120.468 241.294 120.786 241.354C121.107 241.41 121.417 241.528 121.715 241.707C122.017 241.886 122.267 242.156 122.466 242.517C122.665 242.878 122.764 243.362 122.764 243.969V249H121.591V247.966H121.531C121.452 248.132 121.319 248.309 121.134 248.498C120.948 248.687 120.701 248.848 120.393 248.98C120.085 249.113 119.709 249.179 119.264 249.179ZM119.443 248.125C119.907 248.125 120.298 248.034 120.617 247.852C120.938 247.669 121.18 247.434 121.343 247.146C121.508 246.857 121.591 246.554 121.591 246.236V245.162C121.541 245.222 121.432 245.276 121.263 245.326C121.097 245.372 120.905 245.414 120.686 245.45C120.471 245.483 120.26 245.513 120.055 245.54C119.853 245.563 119.689 245.583 119.563 245.599C119.258 245.639 118.973 245.704 118.708 245.793C118.446 245.879 118.234 246.01 118.071 246.186C117.912 246.358 117.833 246.594 117.833 246.892C117.833 247.3 117.983 247.608 118.285 247.817C118.59 248.022 118.976 248.125 119.443 248.125ZM127.988 252.023C127.422 252.023 126.934 251.95 126.527 251.804C126.119 251.661 125.779 251.473 125.507 251.237C125.239 251.005 125.025 250.757 124.866 250.491L125.801 249.835C125.907 249.974 126.041 250.134 126.203 250.312C126.366 250.495 126.588 250.652 126.87 250.785C127.155 250.921 127.528 250.989 127.988 250.989C128.605 250.989 129.114 250.839 129.515 250.541C129.916 250.243 130.116 249.776 130.116 249.139V247.588H130.017C129.931 247.727 129.808 247.9 129.649 248.105C129.493 248.307 129.268 248.488 128.973 248.647C128.681 248.803 128.287 248.881 127.789 248.881C127.173 248.881 126.619 248.735 126.129 248.443C125.642 248.152 125.256 247.727 124.971 247.17C124.689 246.614 124.548 245.937 124.548 245.142C124.548 244.36 124.685 243.679 124.961 243.099C125.236 242.515 125.618 242.065 126.109 241.746C126.6 241.425 127.166 241.264 127.809 241.264C128.306 241.264 128.701 241.347 128.993 241.513C129.288 241.675 129.513 241.861 129.669 242.07C129.828 242.275 129.95 242.444 130.037 242.577H130.156V241.364H131.289V249.219C131.289 249.875 131.14 250.409 130.842 250.82C130.547 251.234 130.149 251.537 129.649 251.729C129.152 251.925 128.598 252.023 127.988 252.023ZM127.949 247.827C128.419 247.827 128.817 247.719 129.142 247.504C129.467 247.288 129.713 246.978 129.882 246.574C130.051 246.17 130.136 245.686 130.136 245.122C130.136 244.572 130.053 244.086 129.887 243.665C129.722 243.245 129.476 242.915 129.152 242.676C128.827 242.437 128.426 242.318 127.949 242.318C127.451 242.318 127.037 242.444 126.706 242.696C126.377 242.948 126.131 243.286 125.965 243.71C125.802 244.134 125.721 244.605 125.721 245.122C125.721 245.652 125.804 246.121 125.97 246.529C126.139 246.933 126.387 247.252 126.716 247.484C127.047 247.712 127.458 247.827 127.949 247.827ZM138.846 243.074L137.792 243.372C137.726 243.196 137.628 243.026 137.499 242.86C137.373 242.691 137.201 242.552 136.982 242.442C136.763 242.333 136.483 242.278 136.142 242.278C135.674 242.278 135.285 242.386 134.973 242.602C134.665 242.814 134.511 243.084 134.511 243.412C134.511 243.704 134.617 243.934 134.829 244.103C135.041 244.272 135.373 244.413 135.824 244.526L136.957 244.804C137.64 244.97 138.149 245.223 138.483 245.565C138.818 245.903 138.985 246.339 138.985 246.872C138.985 247.31 138.859 247.701 138.608 248.045C138.359 248.39 138.011 248.662 137.564 248.861C137.116 249.06 136.596 249.159 136.002 249.159C135.224 249.159 134.579 248.99 134.069 248.652C133.558 248.314 133.235 247.82 133.099 247.17L134.213 246.892C134.319 247.303 134.519 247.611 134.814 247.817C135.113 248.022 135.502 248.125 135.983 248.125C136.529 248.125 136.964 248.009 137.285 247.777C137.61 247.542 137.772 247.26 137.772 246.932C137.772 246.667 137.68 246.445 137.494 246.266C137.308 246.083 137.023 245.947 136.639 245.858L135.366 245.56C134.667 245.394 134.153 245.137 133.825 244.789C133.5 244.438 133.338 243.999 133.338 243.472C133.338 243.041 133.459 242.66 133.701 242.328C133.946 241.997 134.279 241.737 134.7 241.548C135.124 241.359 135.605 241.264 136.142 241.264C136.897 241.264 137.491 241.43 137.922 241.761C138.356 242.093 138.664 242.53 138.846 243.074Z" fill="#3F4346"/>
<rect width="220" height="40" transform="translate(20 264)" fill="#F2BE55" fill-opacity="0.17"/>
<path d="M78.6666 287.333H85.3333V289H78.6666V287.333ZM78.6666 284H85.3333V285.667H78.6666V284ZM83.6666 275.667H76.9999C76.0833 275.667 75.3333 276.417 75.3333 277.333V290.667C75.3333 291.583 76.0749 292.333 76.9916 292.333H86.9999C87.9166 292.333 88.6666 291.583 88.6666 290.667V280.667L83.6666 275.667ZM86.9999 290.667H76.9999V277.333H82.8333V281.5H86.9999V290.667Z" fill="#5D6164"/>
<path d="M117.426 282H116.193C116.12 281.645 115.993 281.334 115.81 281.065C115.631 280.797 115.413 280.571 115.154 280.389C114.899 280.204 114.616 280.064 114.304 279.972C113.992 279.879 113.668 279.832 113.33 279.832C112.713 279.832 112.155 279.988 111.654 280.3C111.157 280.611 110.761 281.07 110.466 281.677C110.174 282.283 110.028 283.027 110.028 283.909C110.028 284.791 110.174 285.535 110.466 286.141C110.761 286.748 111.157 287.207 111.654 287.518C112.155 287.83 112.713 287.986 113.33 287.986C113.668 287.986 113.992 287.939 114.304 287.847C114.616 287.754 114.899 287.616 115.154 287.434C115.413 287.248 115.631 287.021 115.81 286.753C115.993 286.481 116.12 286.17 116.193 285.818H117.426C117.333 286.339 117.164 286.804 116.919 287.215C116.674 287.626 116.369 287.976 116.004 288.264C115.64 288.549 115.23 288.766 114.776 288.915C114.326 289.065 113.843 289.139 113.33 289.139C112.461 289.139 111.689 288.927 111.013 288.503C110.337 288.079 109.805 287.475 109.417 286.693C109.029 285.911 108.835 284.983 108.835 283.909C108.835 282.835 109.029 281.907 109.417 281.125C109.805 280.343 110.337 279.74 111.013 279.315C111.689 278.891 112.461 278.679 113.33 278.679C113.843 278.679 114.326 278.754 114.776 278.903C115.23 279.052 115.64 279.271 116.004 279.559C116.369 279.844 116.674 280.192 116.919 280.603C117.164 281.011 117.333 281.476 117.426 282ZM121.507 289.179C121.023 289.179 120.584 289.088 120.189 288.906C119.795 288.72 119.481 288.453 119.249 288.105C119.017 287.754 118.901 287.33 118.901 286.832C118.901 286.395 118.988 286.04 119.16 285.768C119.332 285.493 119.563 285.278 119.851 285.122C120.139 284.966 120.458 284.85 120.806 284.774C121.157 284.695 121.51 284.632 121.865 284.585C122.329 284.526 122.705 284.481 122.993 284.451C123.285 284.418 123.497 284.363 123.629 284.287C123.765 284.211 123.833 284.078 123.833 283.889V283.849C123.833 283.359 123.699 282.978 123.431 282.706C123.165 282.434 122.763 282.298 122.222 282.298C121.662 282.298 121.223 282.421 120.905 282.666C120.587 282.911 120.363 283.173 120.234 283.452L119.12 283.054C119.319 282.59 119.584 282.229 119.916 281.97C120.25 281.708 120.615 281.526 121.009 281.423C121.407 281.317 121.798 281.264 122.183 281.264C122.428 281.264 122.71 281.294 123.028 281.354C123.349 281.41 123.659 281.528 123.958 281.707C124.259 281.886 124.509 282.156 124.708 282.517C124.907 282.878 125.007 283.362 125.007 283.969V289H123.833V287.966H123.774C123.694 288.132 123.561 288.309 123.376 288.498C123.19 288.687 122.943 288.848 122.635 288.98C122.327 289.113 121.951 289.179 121.507 289.179ZM121.686 288.125C122.15 288.125 122.541 288.034 122.859 287.852C123.18 287.669 123.422 287.434 123.585 287.146C123.75 286.857 123.833 286.554 123.833 286.236V285.162C123.784 285.222 123.674 285.276 123.505 285.326C123.339 285.372 123.147 285.414 122.928 285.45C122.713 285.483 122.503 285.513 122.297 285.54C122.095 285.563 121.931 285.583 121.805 285.599C121.5 285.639 121.215 285.704 120.95 285.793C120.688 285.879 120.476 286.01 120.313 286.186C120.154 286.358 120.075 286.594 120.075 286.892C120.075 287.3 120.226 287.608 120.527 287.817C120.832 288.022 121.218 288.125 121.686 288.125ZM128.321 278.818V289H127.148V278.818H128.321ZM131.644 278.818V289H130.47V278.818H131.644ZM138.903 278.818V289H137.73V278.818H138.903ZM144.155 289.159C143.465 289.159 142.86 288.995 142.34 288.667C141.823 288.339 141.419 287.88 141.127 287.29C140.839 286.7 140.694 286.01 140.694 285.222C140.694 284.426 140.839 283.732 141.127 283.138C141.419 282.545 141.823 282.085 142.34 281.756C142.86 281.428 143.465 281.264 144.155 281.264C144.844 281.264 145.447 281.428 145.964 281.756C146.485 282.085 146.889 282.545 147.177 283.138C147.469 283.732 147.615 284.426 147.615 285.222C147.615 286.01 147.469 286.7 147.177 287.29C146.889 287.88 146.485 288.339 145.964 288.667C145.447 288.995 144.844 289.159 144.155 289.159ZM144.155 288.105C144.678 288.105 145.109 287.971 145.447 287.702C145.785 287.434 146.036 287.081 146.198 286.643C146.36 286.206 146.442 285.732 146.442 285.222C146.442 284.711 146.36 284.236 146.198 283.795C146.036 283.354 145.785 282.998 145.447 282.726C145.109 282.454 144.678 282.318 144.155 282.318C143.631 282.318 143.2 282.454 142.862 282.726C142.524 282.998 142.274 283.354 142.111 283.795C141.949 284.236 141.868 284.711 141.868 285.222C141.868 285.732 141.949 286.206 142.111 286.643C142.274 287.081 142.524 287.434 142.862 287.702C143.2 287.971 143.631 288.105 144.155 288.105ZM152.488 292.023C151.922 292.023 151.434 291.95 151.027 291.804C150.619 291.661 150.279 291.473 150.007 291.237C149.739 291.005 149.525 290.757 149.366 290.491L150.301 289.835C150.407 289.974 150.541 290.134 150.703 290.312C150.866 290.495 151.088 290.652 151.37 290.785C151.655 290.921 152.028 290.989 152.488 290.989C153.105 290.989 153.614 290.839 154.015 290.541C154.416 290.243 154.616 289.776 154.616 289.139V287.588H154.517C154.431 287.727 154.308 287.9 154.149 288.105C153.993 288.307 153.768 288.488 153.473 288.647C153.181 288.803 152.787 288.881 152.289 288.881C151.673 288.881 151.119 288.735 150.629 288.443C150.142 288.152 149.756 287.727 149.471 287.17C149.189 286.614 149.048 285.937 149.048 285.142C149.048 284.36 149.185 283.679 149.461 283.099C149.736 282.515 150.118 282.065 150.609 281.746C151.1 281.425 151.666 281.264 152.309 281.264C152.806 281.264 153.201 281.347 153.493 281.513C153.788 281.675 154.013 281.861 154.169 282.07C154.328 282.275 154.45 282.444 154.537 282.577H154.656V281.364H155.789V289.219C155.789 289.875 155.64 290.409 155.342 290.82C155.047 291.234 154.649 291.537 154.149 291.729C153.652 291.925 153.098 292.023 152.488 292.023ZM152.449 287.827C152.919 287.827 153.317 287.719 153.642 287.504C153.967 287.288 154.213 286.978 154.382 286.574C154.551 286.17 154.636 285.686 154.636 285.122C154.636 284.572 154.553 284.086 154.387 283.665C154.222 283.245 153.976 282.915 153.652 282.676C153.327 282.437 152.926 282.318 152.449 282.318C151.951 282.318 151.537 282.444 151.206 282.696C150.877 282.948 150.631 283.286 150.465 283.71C150.302 284.134 150.221 284.605 150.221 285.122C150.221 285.652 150.304 286.121 150.47 286.529C150.639 286.933 150.887 287.252 151.216 287.484C151.547 287.712 151.958 287.827 152.449 287.827ZM163.346 283.074L162.292 283.372C162.226 283.196 162.128 283.026 161.999 282.86C161.873 282.691 161.701 282.552 161.482 282.442C161.263 282.333 160.983 282.278 160.642 282.278C160.174 282.278 159.785 282.386 159.473 282.602C159.165 282.814 159.011 283.084 159.011 283.412C159.011 283.704 159.117 283.934 159.329 284.103C159.541 284.272 159.873 284.413 160.324 284.526L161.457 284.804C162.14 284.97 162.649 285.223 162.983 285.565C163.318 285.903 163.485 286.339 163.485 286.872C163.485 287.31 163.359 287.701 163.108 288.045C162.859 288.39 162.511 288.662 162.064 288.861C161.616 289.06 161.096 289.159 160.502 289.159C159.724 289.159 159.079 288.99 158.569 288.652C158.058 288.314 157.735 287.82 157.599 287.17L158.713 286.892C158.819 287.303 159.019 287.611 159.314 287.817C159.613 288.022 160.002 288.125 160.483 288.125C161.029 288.125 161.464 288.009 161.785 287.777C162.11 287.542 162.272 287.26 162.272 286.932C162.272 286.667 162.18 286.445 161.994 286.266C161.808 286.083 161.523 285.947 161.139 285.858L159.866 285.56C159.167 285.394 158.653 285.137 158.325 284.789C158 284.438 157.838 283.999 157.838 283.472C157.838 283.041 157.959 282.66 158.201 282.328C158.446 281.997 158.779 281.737 159.2 281.548C159.624 281.359 160.105 281.264 160.642 281.264C161.397 281.264 161.991 281.43 162.422 281.761C162.856 282.093 163.164 282.53 163.346 283.074Z" fill="#3F4346"/>
</g>
</g>
<g filter="url(#filter1_d_5045_40884)">
<rect x="260" y="118" width="180" height="40" rx="20" fill="white" shape-rendering="crispEdges"/>
<path d="M281 135.2H284V145H281V135.2ZM286.6 131H289.4V145H286.6V131ZM292.2 139H295V145H292.2V139Z" fill="#5D6164"/>
<path d="M314.816 143.192C313.973 143.192 313.195 143.043 312.48 142.744C311.776 142.435 311.157 142.003 310.624 141.448C310.101 140.893 309.696 140.243 309.408 139.496C309.12 138.749 308.976 137.933 308.976 137.048C308.976 136.152 309.12 135.331 309.408 134.584C309.696 133.837 310.101 133.187 310.624 132.632C311.147 132.077 311.765 131.651 312.48 131.352C313.195 131.043 313.973 130.888 314.816 130.888C315.637 130.888 316.373 131.032 317.024 131.32C317.685 131.608 318.24 131.981 318.688 132.44C319.147 132.899 319.472 133.389 319.664 133.912L318.224 134.568C317.947 133.907 317.515 133.373 316.928 132.968C316.341 132.552 315.637 132.344 314.816 132.344C313.984 132.344 313.243 132.541 312.592 132.936C311.952 133.331 311.451 133.88 311.088 134.584C310.725 135.288 310.544 136.109 310.544 137.048C310.544 137.976 310.725 138.792 311.088 139.496C311.451 140.2 311.952 140.749 312.592 141.144C313.243 141.539 313.984 141.736 314.816 141.736C315.637 141.736 316.341 141.533 316.928 141.128C317.515 140.712 317.947 140.173 318.224 139.512L319.664 140.168C319.472 140.691 319.147 141.181 318.688 141.64C318.24 142.099 317.685 142.472 317.024 142.76C316.373 143.048 315.637 143.192 314.816 143.192ZM321.621 143V130.888H323.109V136.056L322.837 135.912C323.05 135.368 323.391 134.947 323.861 134.648C324.341 134.339 324.901 134.184 325.541 134.184C326.159 134.184 326.709 134.323 327.189 134.6C327.679 134.877 328.063 135.261 328.341 135.752C328.629 136.243 328.773 136.797 328.773 137.416V143H327.269V137.896C327.269 137.416 327.178 137.011 326.997 136.68C326.826 136.349 326.586 136.093 326.277 135.912C325.967 135.72 325.61 135.624 325.205 135.624C324.81 135.624 324.453 135.72 324.133 135.912C323.813 136.093 323.562 136.355 323.381 136.696C323.199 137.027 323.109 137.427 323.109 137.896V143H321.621ZM333.43 143.192C332.865 143.192 332.363 143.091 331.926 142.888C331.499 142.675 331.163 142.387 330.918 142.024C330.673 141.651 330.55 141.224 330.55 140.744C330.55 140.285 330.646 139.875 330.838 139.512C331.041 139.139 331.35 138.824 331.766 138.568C332.193 138.312 332.726 138.131 333.366 138.024L336.566 137.496V138.744L333.702 139.224C333.147 139.32 332.742 139.496 332.486 139.752C332.241 140.008 332.118 140.323 332.118 140.696C332.118 141.048 332.257 141.341 332.534 141.576C332.822 141.811 333.179 141.928 333.606 141.928C334.15 141.928 334.619 141.816 335.014 141.592C335.419 141.357 335.734 141.043 335.958 140.648C336.193 140.253 336.31 139.816 336.31 139.336V137.144C336.31 136.675 336.134 136.296 335.782 136.008C335.441 135.709 334.987 135.56 334.422 135.56C333.931 135.56 333.494 135.688 333.11 135.944C332.737 136.189 332.459 136.52 332.278 136.936L330.982 136.264C331.142 135.869 331.398 135.517 331.75 135.208C332.102 134.888 332.513 134.637 332.982 134.456C333.451 134.275 333.942 134.184 334.454 134.184C335.115 134.184 335.697 134.312 336.198 134.568C336.699 134.813 337.089 135.16 337.366 135.608C337.654 136.045 337.798 136.557 337.798 137.144V143H336.342V141.368L336.614 141.464C336.433 141.805 336.187 142.104 335.878 142.36C335.569 142.616 335.206 142.819 334.79 142.968C334.374 143.117 333.921 143.192 333.43 143.192ZM343.453 143.096C342.61 143.096 341.96 142.856 341.501 142.376C341.053 141.896 340.829 141.219 340.829 140.344V135.8H339.261V134.376H339.581C339.965 134.376 340.269 134.259 340.493 134.024C340.717 133.789 340.829 133.48 340.829 133.096V132.392H342.317V134.376H344.253V135.8H342.317V140.296C342.317 140.584 342.36 140.835 342.445 141.048C342.541 141.261 342.696 141.432 342.909 141.56C343.122 141.677 343.405 141.736 343.757 141.736C343.832 141.736 343.922 141.731 344.029 141.72C344.146 141.709 344.253 141.699 344.349 141.688V143C344.21 143.032 344.056 143.053 343.885 143.064C343.714 143.085 343.57 143.096 343.453 143.096ZM351.586 143.192C351.021 143.192 350.52 143.091 350.082 142.888C349.656 142.675 349.32 142.387 349.074 142.024C348.829 141.651 348.706 141.224 348.706 140.744C348.706 140.285 348.802 139.875 348.994 139.512C349.197 139.139 349.506 138.824 349.922 138.568C350.349 138.312 350.882 138.131 351.522 138.024L354.722 137.496V138.744L351.858 139.224C351.304 139.32 350.898 139.496 350.642 139.752C350.397 140.008 350.274 140.323 350.274 140.696C350.274 141.048 350.413 141.341 350.69 141.576C350.978 141.811 351.336 141.928 351.762 141.928C352.306 141.928 352.776 141.816 353.17 141.592C353.576 141.357 353.89 141.043 354.114 140.648C354.349 140.253 354.466 139.816 354.466 139.336V137.144C354.466 136.675 354.29 136.296 353.938 136.008C353.597 135.709 353.144 135.56 352.578 135.56C352.088 135.56 351.65 135.688 351.266 135.944C350.893 136.189 350.616 136.52 350.434 136.936L349.138 136.264C349.298 135.869 349.554 135.517 349.906 135.208C350.258 134.888 350.669 134.637 351.138 134.456C351.608 134.275 352.098 134.184 352.61 134.184C353.272 134.184 353.853 134.312 354.354 134.568C354.856 134.813 355.245 135.16 355.522 135.608C355.81 136.045 355.954 136.557 355.954 137.144V143H354.498V141.368L354.77 141.464C354.589 141.805 354.344 142.104 354.034 142.36C353.725 142.616 353.362 142.819 352.946 142.968C352.53 143.117 352.077 143.192 351.586 143.192ZM358.261 143V134.376H359.717V136.056L359.477 135.912C359.691 135.368 360.032 134.947 360.501 134.648C360.981 134.339 361.541 134.184 362.181 134.184C362.8 134.184 363.349 134.323 363.829 134.6C364.32 134.877 364.704 135.261 364.981 135.752C365.269 136.243 365.413 136.797 365.413 137.416V143H363.909V137.896C363.909 137.416 363.824 137.011 363.653 136.68C363.483 136.349 363.237 136.093 362.917 135.912C362.608 135.72 362.251 135.624 361.845 135.624C361.44 135.624 361.077 135.72 360.757 135.912C360.448 136.093 360.203 136.355 360.021 136.696C359.84 137.027 359.749 137.427 359.749 137.896V143H358.261ZM370.071 143.192C369.505 143.192 369.004 143.091 368.567 142.888C368.14 142.675 367.804 142.387 367.559 142.024C367.313 141.651 367.191 141.224 367.191 140.744C367.191 140.285 367.287 139.875 367.479 139.512C367.681 139.139 367.991 138.824 368.407 138.568C368.833 138.312 369.367 138.131 370.007 138.024L373.207 137.496V138.744L370.343 139.224C369.788 139.32 369.383 139.496 369.127 139.752C368.881 140.008 368.759 140.323 368.759 140.696C368.759 141.048 368.897 141.341 369.175 141.576C369.463 141.811 369.82 141.928 370.247 141.928C370.791 141.928 371.26 141.816 371.655 141.592C372.06 141.357 372.375 141.043 372.599 140.648C372.833 140.253 372.951 139.816 372.951 139.336V137.144C372.951 136.675 372.775 136.296 372.423 136.008C372.081 135.709 371.628 135.56 371.063 135.56C370.572 135.56 370.135 135.688 369.751 135.944C369.377 136.189 369.1 136.52 368.919 136.936L367.623 136.264C367.783 135.869 368.039 135.517 368.391 135.208C368.743 134.888 369.153 134.637 369.623 134.456C370.092 134.275 370.583 134.184 371.095 134.184C371.756 134.184 372.337 134.312 372.839 134.568C373.34 134.813 373.729 135.16 374.007 135.608C374.295 136.045 374.439 136.557 374.439 137.144V143H372.983V141.368L373.255 141.464C373.073 141.805 372.828 142.104 372.519 142.36C372.209 142.616 371.847 142.819 371.431 142.968C371.015 143.117 370.561 143.192 370.071 143.192ZM376.746 143V130.888H378.234V143H376.746ZM381.007 146.52C380.815 146.52 380.623 146.504 380.431 146.472C380.239 146.451 380.057 146.403 379.887 146.328V145C380.004 145.011 380.148 145.032 380.319 145.064C380.5 145.096 380.676 145.112 380.847 145.112C381.348 145.112 381.727 145 381.983 144.776C382.249 144.552 382.5 144.173 382.735 143.64L383.279 142.344L383.247 143.64L379.567 134.376H381.183L384.047 141.736H383.567L386.415 134.376H388.063L384.175 144.024C383.993 144.483 383.759 144.904 383.471 145.288C383.193 145.672 382.852 145.971 382.447 146.184C382.041 146.408 381.561 146.52 381.007 146.52ZM392.89 143.096C392.048 143.096 391.397 142.856 390.938 142.376C390.49 141.896 390.266 141.219 390.266 140.344V135.8H388.698V134.376H389.018C389.402 134.376 389.706 134.259 389.93 134.024C390.154 133.789 390.266 133.48 390.266 133.096V132.392H391.754V134.376H393.69V135.8H391.754V140.296C391.754 140.584 391.797 140.835 391.882 141.048C391.978 141.261 392.133 141.432 392.346 141.56C392.56 141.677 392.842 141.736 393.194 141.736C393.269 141.736 393.36 141.731 393.466 141.72C393.584 141.709 393.69 141.699 393.786 141.688V143C393.648 143.032 393.493 143.053 393.322 143.064C393.152 143.085 393.008 143.096 392.89 143.096ZM395.73 143V134.376H397.218V143H395.73ZM395.73 133V131.08H397.218V133H395.73ZM403.527 143.192C402.684 143.192 401.932 142.995 401.271 142.6C400.62 142.205 400.108 141.667 399.735 140.984C399.362 140.301 399.175 139.533 399.175 138.68C399.175 137.816 399.362 137.048 399.735 136.376C400.108 135.704 400.62 135.171 401.271 134.776C401.932 134.381 402.684 134.184 403.527 134.184C404.092 134.184 404.62 134.285 405.111 134.488C405.602 134.691 406.034 134.963 406.407 135.304C406.78 135.645 407.052 136.045 407.223 136.504L405.895 137.144C405.692 136.696 405.383 136.333 404.967 136.056C404.551 135.768 404.071 135.624 403.527 135.624C403.004 135.624 402.53 135.757 402.103 136.024C401.687 136.291 401.356 136.653 401.111 137.112C400.866 137.571 400.743 138.099 400.743 138.696C400.743 139.272 400.866 139.795 401.111 140.264C401.356 140.723 401.687 141.085 402.103 141.352C402.53 141.619 403.004 141.752 403.527 141.752C404.071 141.752 404.551 141.613 404.967 141.336C405.383 141.048 405.692 140.669 405.895 140.2L407.223 140.872C407.052 141.32 406.78 141.72 406.407 142.072C406.034 142.413 405.602 142.685 405.111 142.888C404.62 143.091 404.092 143.192 403.527 143.192ZM412.256 143.192C411.392 143.192 410.64 142.979 410 142.552C409.36 142.125 408.906 141.549 408.64 140.824L409.824 140.248C410.069 140.76 410.405 141.165 410.832 141.464C411.258 141.763 411.733 141.912 412.256 141.912C412.725 141.912 413.114 141.8 413.424 141.576C413.733 141.352 413.888 141.059 413.888 140.696C413.888 140.44 413.813 140.237 413.664 140.088C413.525 139.928 413.354 139.805 413.152 139.72C412.949 139.624 412.762 139.555 412.592 139.512L411.296 139.144C410.517 138.92 409.946 138.6 409.584 138.184C409.232 137.768 409.056 137.283 409.056 136.728C409.056 136.216 409.184 135.773 409.44 135.4C409.706 135.016 410.064 134.717 410.512 134.504C410.97 134.291 411.482 134.184 412.048 134.184C412.805 134.184 413.482 134.376 414.08 134.76C414.688 135.144 415.12 135.683 415.376 136.376L414.16 136.936C413.968 136.488 413.68 136.136 413.296 135.88C412.912 135.613 412.48 135.48 412 135.48C411.562 135.48 411.216 135.592 410.96 135.816C410.704 136.029 410.576 136.301 410.576 136.632C410.576 136.877 410.64 137.08 410.768 137.24C410.896 137.389 411.05 137.507 411.232 137.592C411.413 137.667 411.589 137.731 411.76 137.784L413.168 138.2C413.872 138.403 414.416 138.717 414.8 139.144C415.194 139.571 415.392 140.083 415.392 140.68C415.392 141.16 415.258 141.592 414.992 141.976C414.725 142.36 414.357 142.659 413.888 142.872C413.418 143.085 412.874 143.192 412.256 143.192Z" fill="#212528"/>
</g>
<g filter="url(#filter2_d_5045_40884)">
<rect x="300" y="182" width="180" height="40" rx="20" fill="white" shape-rendering="crispEdges"/>
<path d="M337 198.5C335.55 198.5 334.74 199.94 335.07 201.01L331.52 204.57C331.22 204.48 330.78 204.48 330.48 204.57L327.93 202.02C328.27 200.95 327.46 199.5 326 199.5C324.55 199.5 323.73 200.94 324.07 202.02L319.51 206.57C318.44 206.24 317 207.05 317 208.5C317 209.6 317.9 210.5 319 210.5C320.45 210.5 321.26 209.06 320.93 207.99L325.48 203.43C325.78 203.52 326.22 203.52 326.52 203.43L329.07 205.98C328.73 207.05 329.54 208.5 331 208.5C332.45 208.5 333.27 207.06 332.93 205.98L336.49 202.43C337.56 202.76 339 201.95 339 200.5C339 199.4 338.1 198.5 337 198.5Z" fill="#5D6164"/>
<path d="M331 199.5L331.94 197.43L334 196.5L331.94 195.57L331 193.5L330.08 195.57L328 196.5L330.08 197.43L331 199.5Z" fill="#5D6164"/>
<path d="M319.5 201.5L320 199.5L322 199L320 198.5L319.5 196.5L319 198.5L317 199L319 199.5L319.5 201.5Z" fill="#5D6164"/>
<path d="M351.408 207V196.52H348.176V195.08H356.176V196.52H352.992V207H351.408ZM359.086 207.192C358.521 207.192 358.02 207.091 357.582 206.888C357.156 206.675 356.82 206.387 356.574 206.024C356.329 205.651 356.206 205.224 356.206 204.744C356.206 204.285 356.302 203.875 356.494 203.512C356.697 203.139 357.006 202.824 357.422 202.568C357.849 202.312 358.382 202.131 359.022 202.024L362.222 201.496V202.744L359.358 203.224C358.804 203.32 358.398 203.496 358.142 203.752C357.897 204.008 357.774 204.323 357.774 204.696C357.774 205.048 357.913 205.341 358.19 205.576C358.478 205.811 358.836 205.928 359.262 205.928C359.806 205.928 360.276 205.816 360.67 205.592C361.076 205.357 361.39 205.043 361.614 204.648C361.849 204.253 361.966 203.816 361.966 203.336V201.144C361.966 200.675 361.79 200.296 361.438 200.008C361.097 199.709 360.644 199.56 360.078 199.56C359.588 199.56 359.15 199.688 358.766 199.944C358.393 200.189 358.116 200.52 357.934 200.936L356.638 200.264C356.798 199.869 357.054 199.517 357.406 199.208C357.758 198.888 358.169 198.637 358.638 198.456C359.108 198.275 359.598 198.184 360.11 198.184C360.772 198.184 361.353 198.312 361.854 198.568C362.356 198.813 362.745 199.16 363.022 199.608C363.31 200.045 363.454 200.557 363.454 201.144V207H361.998V205.368L362.27 205.464C362.089 205.805 361.844 206.104 361.534 206.36C361.225 206.616 360.862 206.819 360.446 206.968C360.03 207.117 359.577 207.192 359.086 207.192ZM369.873 210.52C369.265 210.52 368.7 210.424 368.177 210.232C367.665 210.04 367.223 209.773 366.849 209.432C366.487 209.101 366.209 208.712 366.017 208.264L367.409 207.624C367.559 208.029 367.841 208.371 368.257 208.648C368.684 208.936 369.217 209.08 369.857 209.08C370.348 209.08 370.791 208.984 371.185 208.792C371.591 208.611 371.911 208.333 372.145 207.96C372.38 207.597 372.497 207.155 372.497 206.632V204.696L372.769 204.984C372.471 205.571 372.039 206.019 371.473 206.328C370.919 206.637 370.305 206.792 369.633 206.792C368.823 206.792 368.097 206.605 367.457 206.232C366.817 205.848 366.316 205.331 365.953 204.68C365.591 204.019 365.409 203.288 365.409 202.488C365.409 201.677 365.591 200.947 365.953 200.296C366.316 199.645 366.812 199.133 367.441 198.76C368.081 198.376 368.807 198.184 369.617 198.184C370.289 198.184 370.897 198.339 371.441 198.648C371.996 198.947 372.439 199.363 372.769 199.896L372.545 200.296V198.376H374.001V206.632C374.001 207.379 373.825 208.045 373.473 208.632C373.121 209.219 372.631 209.677 372.001 210.008C371.383 210.349 370.673 210.52 369.873 210.52ZM369.761 205.352C370.273 205.352 370.732 205.224 371.137 204.968C371.553 204.712 371.884 204.371 372.129 203.944C372.375 203.507 372.497 203.021 372.497 202.488C372.497 201.965 372.375 201.485 372.129 201.048C371.884 200.611 371.553 200.264 371.137 200.008C370.732 199.752 370.273 199.624 369.761 199.624C369.239 199.624 368.764 199.752 368.337 200.008C367.911 200.264 367.575 200.611 367.329 201.048C367.095 201.475 366.977 201.955 366.977 202.488C366.977 203.021 367.095 203.507 367.329 203.944C367.575 204.371 367.905 204.712 368.321 204.968C368.748 205.224 369.228 205.352 369.761 205.352ZM381.602 207.192C381.037 207.192 380.535 207.091 380.098 206.888C379.671 206.675 379.335 206.387 379.09 206.024C378.845 205.651 378.722 205.224 378.722 204.744C378.722 204.285 378.818 203.875 379.01 203.512C379.213 203.139 379.522 202.824 379.938 202.568C380.365 202.312 380.898 202.131 381.538 202.024L384.738 201.496V202.744L381.874 203.224C381.319 203.32 380.914 203.496 380.658 203.752C380.413 204.008 380.29 204.323 380.29 204.696C380.29 205.048 380.429 205.341 380.706 205.576C380.994 205.811 381.351 205.928 381.778 205.928C382.322 205.928 382.791 205.816 383.186 205.592C383.591 205.357 383.906 205.043 384.13 204.648C384.365 204.253 384.482 203.816 384.482 203.336V201.144C384.482 200.675 384.306 200.296 383.954 200.008C383.613 199.709 383.159 199.56 382.594 199.56C382.103 199.56 381.666 199.688 381.282 199.944C380.909 200.189 380.631 200.52 380.45 200.936L379.154 200.264C379.314 199.869 379.57 199.517 379.922 199.208C380.274 198.888 380.685 198.637 381.154 198.456C381.623 198.275 382.114 198.184 382.626 198.184C383.287 198.184 383.869 198.312 384.37 198.568C384.871 198.813 385.261 199.16 385.538 199.608C385.826 200.045 385.97 200.557 385.97 201.144V207H384.514V205.368L384.786 205.464C384.605 205.805 384.359 206.104 384.05 206.36C383.741 206.616 383.378 206.819 382.962 206.968C382.546 207.117 382.093 207.192 381.602 207.192ZM388.277 207V198.376H389.733V200.056L389.493 199.912C389.706 199.368 390.048 198.947 390.517 198.648C390.997 198.339 391.557 198.184 392.197 198.184C392.816 198.184 393.365 198.323 393.845 198.6C394.336 198.877 394.72 199.261 394.997 199.752C395.285 200.243 395.429 200.797 395.429 201.416V207H393.925V201.896C393.925 201.416 393.84 201.011 393.669 200.68C393.498 200.349 393.253 200.093 392.933 199.912C392.624 199.72 392.266 199.624 391.861 199.624C391.456 199.624 391.093 199.72 390.773 199.912C390.464 200.093 390.218 200.355 390.037 200.696C389.856 201.027 389.765 201.427 389.765 201.896V207H388.277ZM400.086 207.192C399.521 207.192 399.02 207.091 398.582 206.888C398.156 206.675 397.82 206.387 397.574 206.024C397.329 205.651 397.206 205.224 397.206 204.744C397.206 204.285 397.302 203.875 397.494 203.512C397.697 203.139 398.006 202.824 398.422 202.568C398.849 202.312 399.382 202.131 400.022 202.024L403.222 201.496V202.744L400.358 203.224C399.804 203.32 399.398 203.496 399.142 203.752C398.897 204.008 398.774 204.323 398.774 204.696C398.774 205.048 398.913 205.341 399.19 205.576C399.478 205.811 399.836 205.928 400.262 205.928C400.806 205.928 401.276 205.816 401.67 205.592C402.076 205.357 402.39 205.043 402.614 204.648C402.849 204.253 402.966 203.816 402.966 203.336V201.144C402.966 200.675 402.79 200.296 402.438 200.008C402.097 199.709 401.644 199.56 401.078 199.56C400.588 199.56 400.15 199.688 399.766 199.944C399.393 200.189 399.116 200.52 398.934 200.936L397.638 200.264C397.798 199.869 398.054 199.517 398.406 199.208C398.758 198.888 399.169 198.637 399.638 198.456C400.108 198.275 400.598 198.184 401.11 198.184C401.772 198.184 402.353 198.312 402.854 198.568C403.356 198.813 403.745 199.16 404.022 199.608C404.31 200.045 404.454 200.557 404.454 201.144V207H402.998V205.368L403.27 205.464C403.089 205.805 402.844 206.104 402.534 206.36C402.225 206.616 401.862 206.819 401.446 206.968C401.03 207.117 400.577 207.192 400.086 207.192ZM406.761 207V194.888H408.249V207H406.761ZM411.022 210.52C410.83 210.52 410.638 210.504 410.446 210.472C410.254 210.451 410.073 210.403 409.902 210.328V209C410.02 209.011 410.164 209.032 410.334 209.064C410.516 209.096 410.692 209.112 410.862 209.112C411.364 209.112 411.742 209 411.998 208.776C412.265 208.552 412.516 208.173 412.75 207.64L413.294 206.344L413.262 207.64L409.582 198.376H411.198L414.062 205.736H413.582L416.43 198.376H418.078L414.19 208.024C414.009 208.483 413.774 208.904 413.486 209.288C413.209 209.672 412.868 209.971 412.462 210.184C412.057 210.408 411.577 210.52 411.022 210.52ZM422.906 207.096C422.063 207.096 421.413 206.856 420.954 206.376C420.506 205.896 420.282 205.219 420.282 204.344V199.8H418.714V198.376H419.034C419.418 198.376 419.722 198.259 419.946 198.024C420.17 197.789 420.282 197.48 420.282 197.096V196.392H421.77V198.376H423.706V199.8H421.77V204.296C421.77 204.584 421.813 204.835 421.898 205.048C421.994 205.261 422.149 205.432 422.362 205.56C422.575 205.677 422.858 205.736 423.21 205.736C423.285 205.736 423.375 205.731 423.482 205.72C423.599 205.709 423.706 205.699 423.802 205.688V207C423.663 207.032 423.509 207.053 423.338 207.064C423.167 207.085 423.023 207.096 422.906 207.096ZM425.746 207V198.376H427.234V207H425.746ZM425.746 197V195.08H427.234V197H425.746ZM433.543 207.192C432.7 207.192 431.948 206.995 431.287 206.6C430.636 206.205 430.124 205.667 429.751 204.984C429.377 204.301 429.191 203.533 429.191 202.68C429.191 201.816 429.377 201.048 429.751 200.376C430.124 199.704 430.636 199.171 431.287 198.776C431.948 198.381 432.7 198.184 433.543 198.184C434.108 198.184 434.636 198.285 435.127 198.488C435.617 198.691 436.049 198.963 436.423 199.304C436.796 199.645 437.068 200.045 437.239 200.504L435.911 201.144C435.708 200.696 435.399 200.333 434.983 200.056C434.567 199.768 434.087 199.624 433.543 199.624C433.02 199.624 432.545 199.757 432.119 200.024C431.703 200.291 431.372 200.653 431.127 201.112C430.881 201.571 430.759 202.099 430.759 202.696C430.759 203.272 430.881 203.795 431.127 204.264C431.372 204.723 431.703 205.085 432.119 205.352C432.545 205.619 433.02 205.752 433.543 205.752C434.087 205.752 434.567 205.613 434.983 205.336C435.399 205.048 435.708 204.669 435.911 204.2L437.239 204.872C437.068 205.32 436.796 205.72 436.423 206.072C436.049 206.413 435.617 206.685 435.127 206.888C434.636 207.091 434.108 207.192 433.543 207.192ZM442.271 207.192C441.407 207.192 440.655 206.979 440.015 206.552C439.375 206.125 438.922 205.549 438.655 204.824L439.839 204.248C440.085 204.76 440.421 205.165 440.847 205.464C441.274 205.763 441.749 205.912 442.271 205.912C442.741 205.912 443.13 205.8 443.439 205.576C443.749 205.352 443.903 205.059 443.903 204.696C443.903 204.44 443.829 204.237 443.679 204.088C443.541 203.928 443.37 203.805 443.167 203.72C442.965 203.624 442.778 203.555 442.607 203.512L441.311 203.144C440.533 202.92 439.962 202.6 439.599 202.184C439.247 201.768 439.071 201.283 439.071 200.728C439.071 200.216 439.199 199.773 439.455 199.4C439.722 199.016 440.079 198.717 440.527 198.504C440.986 198.291 441.498 198.184 442.063 198.184C442.821 198.184 443.498 198.376 444.095 198.76C444.703 199.144 445.135 199.683 445.391 200.376L444.175 200.936C443.983 200.488 443.695 200.136 443.311 199.88C442.927 199.613 442.495 199.48 442.015 199.48C441.578 199.48 441.231 199.592 440.975 199.816C440.719 200.029 440.591 200.301 440.591 200.632C440.591 200.877 440.655 201.08 440.783 201.24C440.911 201.389 441.066 201.507 441.247 201.592C441.429 201.667 441.605 201.731 441.775 201.784L443.183 202.2C443.887 202.403 444.431 202.717 444.815 203.144C445.21 203.571 445.407 204.083 445.407 204.68C445.407 205.16 445.274 205.592 445.007 205.976C444.741 206.36 444.373 206.659 443.903 206.872C443.434 207.085 442.89 207.192 442.271 207.192Z" fill="#212528"/>
</g>
<g filter="url(#filter3_d_5045_40884)">
<rect x="260" y="246" width="180" height="40" rx="20" fill="white" shape-rendering="crispEdges"/>
<path d="M295 259V273H281V259H295ZM295 257H281C279.9 257 279 257.9 279 259V273C279 274.1 279.9 275 281 275H295C296.1 275 297 274.1 297 273V259C297 257.9 296.1 257 295 257Z" fill="#5D6164"/>
<path d="M290 271H283V269H290V271ZM293 267H283V265H293V267ZM293 263H283V261H293V263Z" fill="#5D6164"/>
<path d="M314.816 271.192C313.973 271.192 313.195 271.043 312.48 270.744C311.776 270.435 311.157 270.003 310.624 269.448C310.101 268.893 309.696 268.243 309.408 267.496C309.12 266.749 308.976 265.933 308.976 265.048C308.976 264.152 309.12 263.331 309.408 262.584C309.696 261.837 310.101 261.187 310.624 260.632C311.147 260.077 311.765 259.651 312.48 259.352C313.195 259.043 313.973 258.888 314.816 258.888C315.637 258.888 316.373 259.032 317.024 259.32C317.685 259.608 318.24 259.981 318.688 260.44C319.147 260.899 319.472 261.389 319.664 261.912L318.224 262.568C317.947 261.907 317.515 261.373 316.928 260.968C316.341 260.552 315.637 260.344 314.816 260.344C313.984 260.344 313.243 260.541 312.592 260.936C311.952 261.331 311.451 261.88 311.088 262.584C310.725 263.288 310.544 264.109 310.544 265.048C310.544 265.976 310.725 266.792 311.088 267.496C311.451 268.2 311.952 268.749 312.592 269.144C313.243 269.539 313.984 269.736 314.816 269.736C315.637 269.736 316.341 269.533 316.928 269.128C317.515 268.712 317.947 268.173 318.224 267.512L319.664 268.168C319.472 268.691 319.147 269.181 318.688 269.64C318.24 270.099 317.685 270.472 317.024 270.76C316.373 271.048 315.637 271.192 314.816 271.192ZM323.993 271.192C323.427 271.192 322.926 271.091 322.489 270.888C322.062 270.675 321.726 270.387 321.481 270.024C321.235 269.651 321.113 269.224 321.113 268.744C321.113 268.285 321.209 267.875 321.401 267.512C321.603 267.139 321.913 266.824 322.329 266.568C322.755 266.312 323.289 266.131 323.929 266.024L327.129 265.496V266.744L324.265 267.224C323.71 267.32 323.305 267.496 323.049 267.752C322.803 268.008 322.681 268.323 322.681 268.696C322.681 269.048 322.819 269.341 323.097 269.576C323.385 269.811 323.742 269.928 324.169 269.928C324.713 269.928 325.182 269.816 325.577 269.592C325.982 269.357 326.297 269.043 326.521 268.648C326.755 268.253 326.873 267.816 326.873 267.336V265.144C326.873 264.675 326.697 264.296 326.345 264.008C326.003 263.709 325.55 263.56 324.985 263.56C324.494 263.56 324.057 263.688 323.673 263.944C323.299 264.189 323.022 264.52 322.841 264.936L321.545 264.264C321.705 263.869 321.961 263.517 322.312 263.208C322.665 262.888 323.075 262.637 323.545 262.456C324.014 262.275 324.505 262.184 325.016 262.184C325.678 262.184 326.259 262.312 326.761 262.568C327.262 262.813 327.651 263.16 327.929 263.608C328.217 264.045 328.361 264.557 328.361 265.144V271H326.905V269.368L327.177 269.464C326.995 269.805 326.75 270.104 326.441 270.36C326.131 270.616 325.769 270.819 325.353 270.968C324.937 271.117 324.483 271.192 323.993 271.192ZM330.668 271V258.888H332.156V271H330.668ZM334.465 271V258.888H335.953V271H334.465ZM341.027 271V258.888H342.515V271H341.027ZM348.92 271.192C348.088 271.192 347.336 271 346.664 270.616C345.992 270.221 345.459 269.683 345.064 269C344.669 268.317 344.472 267.544 344.472 266.68C344.472 265.816 344.664 265.048 345.048 264.376C345.443 263.704 345.976 263.171 346.648 262.776C347.32 262.381 348.077 262.184 348.92 262.184C349.752 262.184 350.504 262.381 351.176 262.776C351.848 263.16 352.376 263.688 352.76 264.36C353.155 265.032 353.352 265.805 353.352 266.68C353.352 267.555 353.149 268.333 352.744 269.016C352.339 269.688 351.8 270.221 351.128 270.616C350.467 271 349.731 271.192 348.92 271.192ZM348.92 269.752C349.453 269.752 349.933 269.619 350.36 269.352C350.797 269.085 351.139 268.717 351.384 268.248C351.64 267.779 351.768 267.256 351.768 266.68C351.768 266.093 351.64 265.576 351.384 265.128C351.139 264.669 350.797 264.307 350.36 264.04C349.933 263.763 349.453 263.624 348.92 263.624C348.376 263.624 347.885 263.763 347.448 264.04C347.021 264.307 346.68 264.669 346.424 265.128C346.168 265.576 346.04 266.093 346.04 266.68C346.04 267.256 346.168 267.779 346.424 268.248C346.68 268.717 347.021 269.085 347.448 269.352C347.885 269.619 348.376 269.752 348.92 269.752ZM359.405 274.52C358.797 274.52 358.231 274.424 357.709 274.232C357.197 274.04 356.754 273.773 356.381 273.432C356.018 273.101 355.741 272.712 355.549 272.264L356.941 271.624C357.09 272.029 357.373 272.371 357.789 272.648C358.215 272.936 358.749 273.08 359.389 273.08C359.879 273.08 360.322 272.984 360.717 272.792C361.122 272.611 361.442 272.333 361.677 271.96C361.911 271.597 362.029 271.155 362.029 270.632V268.696L362.301 268.984C362.002 269.571 361.57 270.019 361.005 270.328C360.45 270.637 359.837 270.792 359.165 270.792C358.354 270.792 357.629 270.605 356.989 270.232C356.349 269.848 355.847 269.331 355.485 268.68C355.122 268.019 354.941 267.288 354.941 266.488C354.941 265.677 355.122 264.947 355.485 264.296C355.847 263.645 356.343 263.133 356.973 262.76C357.613 262.376 358.338 262.184 359.149 262.184C359.821 262.184 360.429 262.339 360.973 262.648C361.527 262.947 361.97 263.363 362.301 263.896L362.077 264.296V262.376H363.533V270.632C363.533 271.379 363.357 272.045 363.005 272.632C362.653 273.219 362.162 273.677 361.533 274.008C360.914 274.349 360.205 274.52 359.405 274.52ZM359.293 269.352C359.805 269.352 360.263 269.224 360.669 268.968C361.085 268.712 361.415 268.371 361.661 267.944C361.906 267.507 362.029 267.021 362.029 266.488C362.029 265.965 361.906 265.485 361.661 265.048C361.415 264.611 361.085 264.264 360.669 264.008C360.263 263.752 359.805 263.624 359.293 263.624C358.77 263.624 358.295 263.752 357.869 264.008C357.442 264.264 357.106 264.611 356.861 265.048C356.626 265.475 356.509 265.955 356.509 266.488C356.509 267.021 356.626 267.507 356.861 267.944C357.106 268.371 357.437 268.712 357.853 268.968C358.279 269.224 358.759 269.352 359.293 269.352ZM368.928 271.192C368.064 271.192 367.312 270.979 366.672 270.552C366.032 270.125 365.578 269.549 365.312 268.824L366.496 268.248C366.741 268.76 367.077 269.165 367.504 269.464C367.93 269.763 368.405 269.912 368.928 269.912C369.397 269.912 369.786 269.8 370.096 269.576C370.405 269.352 370.56 269.059 370.56 268.696C370.56 268.44 370.485 268.237 370.336 268.088C370.197 267.928 370.026 267.805 369.824 267.72C369.621 267.624 369.434 267.555 369.264 267.512L367.968 267.144C367.189 266.92 366.618 266.6 366.256 266.184C365.904 265.768 365.728 265.283 365.728 264.728C365.728 264.216 365.856 263.773 366.112 263.4C366.378 263.016 366.736 262.717 367.184 262.504C367.642 262.291 368.154 262.184 368.72 262.184C369.477 262.184 370.154 262.376 370.752 262.76C371.36 263.144 371.792 263.683 372.048 264.376L370.832 264.936C370.64 264.488 370.352 264.136 369.968 263.88C369.584 263.613 369.152 263.48 368.672 263.48C368.234 263.48 367.888 263.592 367.632 263.816C367.376 264.029 367.248 264.301 367.248 264.632C367.248 264.877 367.312 265.08 367.44 265.24C367.568 265.389 367.722 265.507 367.904 265.592C368.085 265.667 368.261 265.731 368.432 265.784L369.84 266.2C370.544 266.403 371.088 266.717 371.472 267.144C371.866 267.571 372.064 268.083 372.064 268.68C372.064 269.16 371.93 269.592 371.664 269.976C371.397 270.36 371.029 270.659 370.56 270.872C370.09 271.085 369.546 271.192 368.928 271.192Z" fill="#212528"/>
</g>
<defs>
<filter id="filter0_d_5045_40884" x="12" y="52" width="236" height="264" filterUnits="userSpaceOnUse" color-interpolation-filters="sRGB">
<feFlood flood-opacity="0" result="BackgroundImageFix"/>
<feColorMatrix in="SourceAlpha" type="matrix" values="0 0 0 0 0 0 0 0 0 0 0 0 0 0 0 0 0 0 127 0" result="hardAlpha"/>
<feOffset dy="4"/>
<feGaussianBlur stdDeviation="4"/>
<feComposite in2="hardAlpha" operator="out"/>
<feColorMatrix type="matrix" values="0 0 0 0 0 0 0 0 0 0 0 0 0 0 0 0 0 0 0.25 0"/>
<feBlend mode="normal" in2="BackgroundImageFix" result="effect1_dropShadow_5045_40884"/>
<feBlend mode="normal" in="SourceGraphic" in2="effect1_dropShadow_5045_40884" result="shape"/>
</filter>
<filter id="filter1_d_5045_40884" x="256" y="118" width="188" height="48" filterUnits="userSpaceOnUse" color-interpolation-filters="sRGB">
<feFlood flood-opacity="0" result="BackgroundImageFix"/>
<feColorMatrix in="SourceAlpha" type="matrix" values="0 0 0 0 0 0 0 0 0 0 0 0 0 0 0 0 0 0 127 0" result="hardAlpha"/>
<feOffset dy="4"/>
<feGaussianBlur stdDeviation="2"/>
<feComposite in2="hardAlpha" operator="out"/>
<feColorMatrix type="matrix" values="0 0 0 0 0 0 0 0 0 0 0 0 0 0 0 0 0 0 0.25 0"/>
<feBlend mode="normal" in2="BackgroundImageFix" result="effect1_dropShadow_5045_40884"/>
<feBlend mode="normal" in="SourceGraphic" in2="effect1_dropShadow_5045_40884" result="shape"/>
</filter>
<filter id="filter2_d_5045_40884" x="296" y="182" width="188" height="48" filterUnits="userSpaceOnUse" color-interpolation-filters="sRGB">
<feFlood flood-opacity="0" result="BackgroundImageFix"/>
<feColorMatrix in="SourceAlpha" type="matrix" values="0 0 0 0 0 0 0 0 0 0 0 0 0 0 0 0 0 0 127 0" result="hardAlpha"/>
<feOffset dy="4"/>
<feGaussianBlur stdDeviation="2"/>
<feComposite in2="hardAlpha" operator="out"/>
<feColorMatrix type="matrix" values="0 0 0 0 0 0 0 0 0 0 0 0 0 0 0 0 0 0 0.25 0"/>
<feBlend mode="normal" in2="BackgroundImageFix" result="effect1_dropShadow_5045_40884"/>
<feBlend mode="normal" in="SourceGraphic" in2="effect1_dropShadow_5045_40884" result="shape"/>
</filter>
<filter id="filter3_d_5045_40884" x="256" y="246" width="188" height="48" filterUnits="userSpaceOnUse" color-interpolation-filters="sRGB">
<feFlood flood-opacity="0" result="BackgroundImageFix"/>
<feColorMatrix in="SourceAlpha" type="matrix" values="0 0 0 0 0 0 0 0 0 0 0 0 0 0 0 0 0 0 127 0" result="hardAlpha"/>
<feOffset dy="4"/>
<feGaussianBlur stdDeviation="2"/>
<feComposite in2="hardAlpha" operator="out"/>
<feColorMatrix type="matrix" values="0 0 0 0 0 0 0 0 0 0 0 0 0 0 0 0 0 0 0.25 0"/>
<feBlend mode="normal" in2="BackgroundImageFix" result="effect1_dropShadow_5045_40884"/>
<feBlend mode="normal" in="SourceGraphic" in2="effect1_dropShadow_5045_40884" result="shape"/>
</filter>
<clipPath id="clip0_5045_40884">
<rect x="20" y="56" width="220" height="248" rx="8" fill="white"/>
</clipPath>
</defs>
</svg>
