<svg width="500" height="350" viewBox="0 0 500 350" fill="none" xmlns="http://www.w3.org/2000/svg">
<g opacity="0.4" filter="url(#filter0_f_5045_40995)">
<ellipse cx="223.71" cy="284.911" rx="189.888" ry="2.09821" fill="black"/>
</g>
<path d="M53.5446 50.75C53.5446 44.4924 58.6174 39.4196 64.875 39.4196H383.804C390.061 39.4196 395.134 44.4924 395.134 50.75V269.804C395.134 270.499 394.57 271.062 393.875 271.062H54.8036C54.1083 271.062 53.5446 270.499 53.5446 269.804V50.75Z" fill="#E2E8F0" stroke="#CBD5E0" stroke-width="0.839286"/>
<path d="M55.2231 50.3303C55.2231 45.2315 59.3565 41.0981 64.4553 41.0981H384.223C389.322 41.0981 393.455 45.2315 393.455 50.3303V262.67H55.2231V50.3303Z" fill="#C5D8F1"/>
<path d="M12 270.643C12 270.179 12.3758 269.803 12.8393 269.803H434.161C434.624 269.803 435 270.179 435 270.643V277.357H12V270.643Z" fill="#C3D2E7"/>
<path d="M12 270.643C12 270.179 12.3758 269.803 12.8393 269.803H434.161C434.624 269.803 435 270.179 435 270.643V277.357H12V270.643Z" fill="url(#paint0_linear_5045_40995)"/>
<path d="M12 277.357H435C418.497 283.737 400.956 287.009 383.262 287.009H59.2913C43.0385 287.009 26.953 283.726 12 277.357Z" fill="#C3D2E7"/>
<path d="M12 277.357H435C418.497 283.737 400.956 287.009 383.262 287.009H59.2913C43.0385 287.009 26.953 283.726 12 277.357Z" fill="url(#paint1_linear_5045_40995)"/>
<path fill-rule="evenodd" clip-rule="evenodd" d="M188.683 269.804C188.899 273.084 191.629 275.679 194.964 275.679H252.455C255.791 275.679 258.52 273.084 258.736 269.804H188.683Z" fill="#C3D2E7"/>
<path fill-rule="evenodd" clip-rule="evenodd" d="M188.683 269.804C188.899 273.084 191.629 275.679 194.964 275.679H252.455C255.791 275.679 258.52 273.084 258.736 269.804H188.683Z" fill="url(#paint2_linear_5045_40995)"/>
<rect x="62.2075" y="53.4829" width="322.737" height="202.523" fill="white"/>
<path d="M191.382 237.478V216.106C191.382 208.22 197.597 201.82 205.256 201.82C212.915 201.82 219.131 208.22 219.131 216.106V237.478C225.846 232.849 230.23 225.02 230.23 216.106C230.23 201.878 219.075 190.392 205.256 190.392C191.437 190.392 180.282 201.878 180.282 216.106C180.282 225.02 184.666 232.849 191.382 237.478ZM221.906 251.592C220.352 250.792 218.687 250.392 216.966 250.392H213.581V216.106C213.581 211.363 209.863 207.535 205.256 207.535C200.65 207.535 196.931 211.363 196.931 216.106V277.478L177.84 273.363C175.786 272.906 173.622 273.592 172.124 275.135C169.737 277.649 169.737 281.649 172.124 284.163L194.378 307.078C196.487 309.192 199.318 310.392 202.259 310.392H236.113C241.663 310.392 246.325 306.22 247.102 300.563L250.598 275.02C251.264 270.163 248.822 265.363 244.549 263.192L221.906 251.592Z" fill="#1E75BA"/>
<g filter="url(#filter1_d_5045_40995)">
<rect x="79" y="92" width="60" height="60" rx="30" fill="#FDF4E2" shape-rendering="crispEdges"/>
<path d="M117.671 120.674C117.671 120.573 117.577 120.491 117.461 120.491H115.884C115.769 120.491 115.674 120.573 115.674 120.674C115.674 123.882 112.687 126.482 109 126.482C105.314 126.482 102.326 123.882 102.326 120.674C102.326 120.573 102.231 120.491 102.116 120.491H100.539C100.424 120.491 100.329 120.573 100.329 120.674C100.329 124.531 103.656 127.715 107.949 128.165V130.507H104.131C103.771 130.507 103.482 130.834 103.482 131.239V132.062C103.482 132.162 103.556 132.245 103.645 132.245H114.355C114.444 132.245 114.518 132.162 114.518 132.062V131.239C114.518 130.834 114.229 130.507 113.869 130.507H109.946V128.177C114.289 127.765 117.671 124.563 117.671 120.674ZM109 124.561C111.467 124.561 113.467 122.842 113.467 120.719V115.597C113.467 113.475 111.467 111.755 109 111.755C106.533 111.755 104.533 113.475 104.533 115.597V120.719C104.533 122.842 106.533 124.561 109 124.561ZM106.53 115.597C106.53 114.44 107.631 113.493 109 113.493C110.369 113.493 111.47 114.44 111.47 115.597V120.719C111.47 121.877 110.369 122.823 109 122.823C107.631 122.823 106.53 121.877 106.53 120.719V115.597Z" fill="#373F46"/>
</g>
<g filter="url(#filter2_d_5045_40995)">
<rect x="231" y="92" width="60" height="60" rx="30" fill="#FDF4E2" shape-rendering="crispEdges"/>
<path d="M252.61 113.998C251.599 113.998 250.629 114.349 249.913 114.974C249.198 115.6 248.796 116.448 248.796 117.332L248.796 130.002C249.278 129.581 249.783 128.737 250.322 128.669V117.332C250.322 116.801 250.563 116.293 250.992 115.917C251.421 115.542 252.003 115.332 252.61 115.332H263.288C263.895 115.332 264.477 115.542 264.906 115.917C265.335 116.293 265.576 116.801 265.576 117.332V126.668C265.576 127.199 265.335 127.707 264.906 128.083C264.477 128.458 263.895 128.669 263.288 128.669H262.525V130.002H263.288C264.3 130.002 265.27 129.651 265.985 129.026C266.7 128.4 267.102 127.552 267.102 126.668V125.334L270.763 127.735C270.99 127.884 271.259 127.974 271.541 127.996C271.823 128.019 272.107 127.972 272.36 127.861C272.614 127.75 272.827 127.58 272.976 127.369C273.125 127.158 273.204 126.916 273.204 126.668V117.332C273.204 117.084 273.125 116.842 272.976 116.631C272.827 116.42 272.614 116.25 272.36 116.139C272.107 116.028 271.823 115.982 271.541 116.004C271.259 116.026 270.99 116.116 270.763 116.265L267.102 118.666V117.332C267.102 116.448 266.7 115.6 265.985 114.974C265.27 114.349 264.3 113.998 263.288 113.998H252.61ZM267.102 120.333L271.678 117.332V126.668L267.102 123.667V120.333Z" fill="#373F46"/>
<path d="M250.322 128.669C249.783 128.737 249.278 129.581 248.796 130.002H262.525V128.669H250.322Z" fill="#373F46"/>
</g>
<g filter="url(#filter3_d_5045_40995)">
<rect x="155" y="92" width="60" height="60" rx="30" fill="#373F46" shape-rendering="crispEdges"/>
<path d="M185.963 114.419H177.292C176.781 114.419 176.291 114.596 175.93 114.912C175.568 115.228 175.365 115.657 175.365 116.104V124.527C175.365 124.974 175.568 125.402 175.93 125.718C176.291 126.034 176.781 126.212 177.292 126.212H192.707C193.219 126.212 193.709 126.034 194.07 125.718C194.431 125.402 194.634 124.974 194.634 124.527V122M181.146 129.581H188.854M185 126.212V129.581M194.634 114.419L189.817 118.631M189.817 114.419L194.634 118.631" stroke="white" stroke-width="2.16602" stroke-linecap="round" stroke-linejoin="round"/>
</g>
<g filter="url(#filter4_d_5045_40995)">
<rect x="307" y="92" width="60" height="60" rx="30" fill="#DE6863" shape-rendering="crispEdges"/>
<path d="M350.556 122.112L346.791 125.403L342.544 123.812L343.194 120.971C343.232 120.804 343.222 120.631 343.166 120.468C343.109 120.304 343.007 120.156 342.869 120.035C342.788 119.968 342.868 120.034 342.868 120.034L342.851 120.019C342.813 119.987 342.774 119.955 342.733 119.925C342.66 119.869 342.558 119.795 342.427 119.709C342.168 119.539 341.793 119.322 341.304 119.108C340.319 118.678 338.881 118.265 337 118.265C335.118 118.265 333.68 118.678 332.697 119.107C332.206 119.322 331.833 119.539 331.571 119.709C331.425 119.806 331.284 119.91 331.15 120.02L331.138 120.028L331.131 120.034C331.131 120.034 331.042 120.121 331.13 120.035C330.975 120.171 330.866 120.343 330.815 120.53C330.765 120.717 330.775 120.913 330.844 121.096L331.406 122.569L327.066 125.279L323.444 122.112C324.958 120.341 329.487 115.94 337 115.94C344.513 115.94 349.043 120.341 350.556 122.112ZM340.724 121.198L340.218 123.406C340.111 123.872 340.191 124.357 340.445 124.778C340.698 125.199 341.11 125.531 341.61 125.718L345.857 127.309C346.292 127.473 346.774 127.518 347.239 127.44C347.705 127.361 348.133 127.163 348.468 126.87L352.276 123.54C353.038 122.874 353.226 121.784 352.524 120.952C350.93 119.059 345.764 113.867 337 113.867C328.236 113.867 323.071 119.06 321.475 120.952C320.774 121.785 320.961 122.874 321.723 123.54L325.389 126.745C325.786 127.092 326.311 127.305 326.871 127.345C327.43 127.386 327.988 127.252 328.445 126.966L332.784 124.256C333.197 123.998 333.504 123.632 333.661 123.21C333.818 122.788 333.816 122.334 333.656 121.913L333.365 121.151C333.493 121.084 333.624 121.021 333.757 120.962C334.45 120.659 335.527 120.338 337 120.338C338.472 120.338 339.55 120.659 340.243 120.963C340.407 121.035 340.567 121.113 340.723 121.199L340.724 121.198Z" fill="white"/>
</g>
<g filter="url(#filter5_d_5045_40995)">
<rect x="296" y="180" width="192.443" height="48.2213" rx="24.1106" fill="white" shape-rendering="crispEdges"/>
<path d="M324.415 212.865C323.411 212.865 322.491 212.681 321.656 212.313C320.822 211.932 320.114 211.415 319.534 210.764C318.954 210.114 318.537 209.385 318.282 208.579L320.086 207.836C320.468 208.854 321.034 209.64 321.784 210.191C322.548 210.729 323.439 210.998 324.458 210.998C325.08 210.998 325.625 210.899 326.092 210.701C326.559 210.503 326.919 210.227 327.174 209.873C327.443 209.505 327.577 209.081 327.577 208.6C327.577 207.935 327.386 207.411 327.004 207.029C326.636 206.633 326.092 206.336 325.37 206.138L322.463 205.247C321.317 204.893 320.44 204.334 319.831 203.57C319.223 202.806 318.919 201.929 318.919 200.939C318.919 200.076 319.124 199.319 319.534 198.668C319.959 198.003 320.539 197.487 321.274 197.119C322.024 196.737 322.873 196.546 323.821 196.546C324.769 196.546 325.625 196.716 326.389 197.055C327.167 197.395 327.825 197.855 328.362 198.435C328.9 199.001 329.296 199.651 329.551 200.387L327.768 201.13C327.429 200.239 326.919 199.567 326.24 199.114C325.561 198.647 324.762 198.414 323.842 198.414C323.276 198.414 322.774 198.513 322.336 198.711C321.911 198.895 321.579 199.17 321.338 199.538C321.112 199.892 320.999 200.316 320.999 200.812C320.999 201.392 321.182 201.908 321.55 202.361C321.918 202.813 322.477 203.16 323.227 203.401L325.879 204.186C327.124 204.568 328.065 205.112 328.702 205.82C329.339 206.527 329.657 207.404 329.657 208.451C329.657 209.314 329.43 210.078 328.978 210.743C328.539 211.408 327.924 211.932 327.132 212.313C326.353 212.681 325.448 212.865 324.415 212.865ZM337.774 212.865C336.656 212.865 335.659 212.604 334.781 212.08C333.918 211.557 333.239 210.842 332.744 209.937C332.249 209.031 332.001 208.013 332.001 206.881C332.001 205.735 332.249 204.716 332.744 203.825C333.239 202.934 333.918 202.226 334.781 201.703C335.659 201.179 336.656 200.918 337.774 200.918C338.523 200.918 339.224 201.052 339.875 201.321C340.525 201.59 341.098 201.95 341.593 202.403C342.089 202.856 342.449 203.386 342.676 203.995L340.914 204.844C340.646 204.249 340.235 203.768 339.684 203.401C339.132 203.019 338.495 202.828 337.774 202.828C337.08 202.828 336.451 203.004 335.885 203.358C335.333 203.712 334.895 204.193 334.569 204.801C334.244 205.41 334.081 206.11 334.081 206.902C334.081 207.666 334.244 208.359 334.569 208.982C334.895 209.59 335.333 210.071 335.885 210.425C336.451 210.778 337.08 210.955 337.774 210.955C338.495 210.955 339.132 210.771 339.684 210.404C340.235 210.022 340.646 209.519 340.914 208.897L342.676 209.788C342.449 210.382 342.089 210.913 341.593 211.38C341.098 211.832 340.525 212.193 339.875 212.462C339.224 212.731 338.523 212.865 337.774 212.865ZM345.255 212.611V201.172H347.186V203.273L346.974 202.976C347.243 202.325 347.653 201.844 348.205 201.533C348.756 201.208 349.428 201.045 350.221 201.045H350.921V202.912H349.924C349.117 202.912 348.466 203.167 347.971 203.676C347.476 204.172 347.229 204.879 347.229 205.799V212.611H345.255ZM357.937 212.865C356.833 212.865 355.85 212.604 354.987 212.08C354.124 211.557 353.445 210.842 352.95 209.937C352.455 209.017 352.207 207.991 352.207 206.86C352.207 205.714 352.448 204.695 352.929 203.804C353.424 202.912 354.089 202.212 354.924 201.703C355.772 201.179 356.72 200.918 357.767 200.918C358.616 200.918 359.366 201.073 360.017 201.385C360.682 201.682 361.24 202.092 361.693 202.615C362.16 203.125 362.514 203.712 362.754 204.377C363.009 205.028 363.136 205.707 363.136 206.414C363.136 206.57 363.122 206.746 363.094 206.945C363.08 207.128 363.058 207.305 363.03 207.475H353.65V205.777H361.884L360.95 206.541C361.078 205.806 361.007 205.148 360.738 204.568C360.469 203.988 360.073 203.528 359.55 203.188C359.026 202.849 358.432 202.679 357.767 202.679C357.102 202.679 356.494 202.849 355.942 203.188C355.39 203.528 354.959 204.016 354.648 204.653C354.351 205.275 354.23 206.018 354.287 206.881C354.23 207.716 354.358 208.451 354.669 209.088C354.994 209.71 355.447 210.198 356.027 210.552C356.621 210.892 357.265 211.061 357.958 211.061C358.722 211.061 359.366 210.885 359.889 210.531C360.413 210.177 360.837 209.725 361.163 209.173L362.818 210.022C362.592 210.545 362.238 211.026 361.757 211.465C361.29 211.889 360.731 212.229 360.08 212.483C359.444 212.738 358.729 212.865 357.937 212.865ZM370.972 212.865C369.869 212.865 368.886 212.604 368.023 212.08C367.16 211.557 366.48 210.842 365.985 209.937C365.49 209.017 365.243 207.991 365.243 206.86C365.243 205.714 365.483 204.695 365.964 203.804C366.459 202.912 367.124 202.212 367.959 201.703C368.808 201.179 369.756 200.918 370.803 200.918C371.651 200.918 372.401 201.073 373.052 201.385C373.717 201.682 374.276 202.092 374.728 202.615C375.195 203.125 375.549 203.712 375.79 204.377C376.044 205.028 376.172 205.707 376.172 206.414C376.172 206.57 376.157 206.746 376.129 206.945C376.115 207.128 376.094 207.305 376.065 207.475H366.686V205.777H374.919L373.986 206.541C374.113 205.806 374.042 205.148 373.774 204.568C373.505 203.988 373.109 203.528 372.585 203.188C372.062 202.849 371.467 202.679 370.803 202.679C370.138 202.679 369.529 202.849 368.978 203.188C368.426 203.528 367.994 204.016 367.683 204.653C367.386 205.275 367.266 206.018 367.322 206.881C367.266 207.716 367.393 208.451 367.704 209.088C368.03 209.71 368.482 210.198 369.062 210.552C369.657 210.892 370.3 211.061 370.994 211.061C371.758 211.061 372.401 210.885 372.925 210.531C373.448 210.177 373.873 209.725 374.198 209.173L375.853 210.022C375.627 210.545 375.273 211.026 374.792 211.465C374.325 211.889 373.766 212.229 373.116 212.483C372.479 212.738 371.765 212.865 370.972 212.865ZM378.745 212.611V201.172H380.676V203.401L380.358 203.21C380.641 202.488 381.093 201.929 381.716 201.533C382.352 201.123 383.095 200.918 383.944 200.918C384.765 200.918 385.493 201.102 386.13 201.469C386.781 201.837 387.29 202.347 387.658 202.997C388.04 203.648 388.231 204.384 388.231 205.204V212.611H386.236V205.841C386.236 205.204 386.123 204.667 385.896 204.228C385.67 203.79 385.345 203.45 384.92 203.21C384.51 202.955 384.036 202.828 383.498 202.828C382.961 202.828 382.48 202.955 382.055 203.21C381.645 203.45 381.32 203.797 381.079 204.249C380.839 204.688 380.718 205.219 380.718 205.841V212.611H378.745ZM400.028 212.865C398.911 212.865 397.913 212.604 397.036 212.08C396.173 211.557 395.494 210.842 394.999 209.937C394.504 209.031 394.256 208.013 394.256 206.881C394.256 205.735 394.504 204.716 394.999 203.825C395.494 202.934 396.173 202.226 397.036 201.703C397.913 201.179 398.911 200.918 400.028 200.918C400.778 200.918 401.478 201.052 402.129 201.321C402.78 201.59 403.353 201.95 403.848 202.403C404.343 202.856 404.704 203.386 404.93 203.995L403.169 204.844C402.9 204.249 402.49 203.768 401.938 203.401C401.386 203.019 400.75 202.828 400.028 202.828C399.335 202.828 398.705 203.004 398.14 203.358C397.588 203.712 397.149 204.193 396.824 204.801C396.498 205.41 396.336 206.11 396.336 206.902C396.336 207.666 396.498 208.359 396.824 208.982C397.149 209.59 397.588 210.071 398.14 210.425C398.705 210.778 399.335 210.955 400.028 210.955C400.75 210.955 401.386 210.771 401.938 210.404C402.49 210.022 402.9 209.519 403.169 208.897L404.93 209.788C404.704 210.382 404.343 210.913 403.848 211.38C403.353 211.832 402.78 212.193 402.129 212.462C401.478 212.731 400.778 212.865 400.028 212.865ZM412.942 212.865C411.839 212.865 410.841 212.611 409.95 212.101C409.059 211.578 408.351 210.863 407.828 209.958C407.304 209.052 407.043 208.027 407.043 206.881C407.043 205.735 407.297 204.716 407.807 203.825C408.33 202.934 409.037 202.226 409.929 201.703C410.82 201.179 411.825 200.918 412.942 200.918C414.046 200.918 415.043 201.179 415.934 201.703C416.826 202.212 417.526 202.912 418.035 203.804C418.559 204.695 418.82 205.721 418.82 206.881C418.82 208.041 418.552 209.074 418.014 209.979C417.476 210.87 416.762 211.578 415.871 212.101C414.994 212.611 414.017 212.865 412.942 212.865ZM412.942 210.955C413.65 210.955 414.286 210.778 414.852 210.425C415.432 210.071 415.885 209.583 416.21 208.961C416.55 208.338 416.72 207.645 416.72 206.881C416.72 206.103 416.55 205.417 416.21 204.822C415.885 204.214 415.432 203.733 414.852 203.379C414.286 203.012 413.65 202.828 412.942 202.828C412.221 202.828 411.57 203.012 410.99 203.379C410.424 203.733 409.971 204.214 409.632 204.822C409.292 205.417 409.122 206.103 409.122 206.881C409.122 207.645 409.292 208.338 409.632 208.961C409.971 209.583 410.424 210.071 410.99 210.425C411.57 210.778 412.221 210.955 412.942 210.955ZM421.395 212.611V201.172H423.326V203.401L423.007 203.21C423.29 202.488 423.743 201.929 424.365 201.533C425.002 201.123 425.745 200.918 426.594 200.918C427.414 200.918 428.143 201.102 428.78 201.469C429.43 201.837 429.94 202.347 430.307 202.997C430.689 203.648 430.88 204.384 430.88 205.204V212.611H428.886V205.841C428.886 205.204 428.772 204.667 428.546 204.228C428.32 203.79 427.994 203.45 427.57 203.21C427.16 202.955 426.686 202.828 426.148 202.828C425.61 202.828 425.129 202.955 424.705 203.21C424.295 203.45 423.969 203.797 423.729 204.249C423.488 204.688 423.368 205.219 423.368 205.841V212.611H421.395ZM438.352 212.738C437.234 212.738 436.371 212.42 435.763 211.783C435.169 211.146 434.872 210.248 434.872 209.088V203.061H432.792V201.172H433.216C433.726 201.172 434.129 201.017 434.426 200.705C434.723 200.394 434.872 199.984 434.872 199.475V198.541H436.845V201.172H439.413V203.061H436.845V209.024C436.845 209.406 436.902 209.739 437.015 210.022C437.142 210.305 437.347 210.531 437.63 210.701C437.913 210.856 438.288 210.934 438.755 210.934C438.854 210.934 438.974 210.927 439.116 210.913C439.272 210.899 439.413 210.885 439.54 210.87V212.611C439.356 212.653 439.151 212.681 438.925 212.695C438.699 212.724 438.508 212.738 438.352 212.738ZM442.118 212.611V201.172H444.05V203.273L443.837 202.976C444.106 202.325 444.516 201.844 445.068 201.533C445.62 201.208 446.292 201.045 447.084 201.045H447.784V202.912H446.787C445.981 202.912 445.33 203.167 444.835 203.676C444.34 204.172 444.092 204.879 444.092 205.799V212.611H442.118ZM454.97 212.865C453.867 212.865 452.869 212.611 451.978 212.101C451.087 211.578 450.379 210.863 449.856 209.958C449.332 209.052 449.071 208.027 449.071 206.881C449.071 205.735 449.325 204.716 449.835 203.825C450.358 202.934 451.065 202.226 451.957 201.703C452.848 201.179 453.853 200.918 454.97 200.918C456.074 200.918 457.071 201.179 457.962 201.703C458.854 202.212 459.554 202.912 460.063 203.804C460.587 204.695 460.848 205.721 460.848 206.881C460.848 208.041 460.58 209.074 460.042 209.979C459.504 210.87 458.79 211.578 457.899 212.101C457.022 212.611 456.045 212.865 454.97 212.865ZM454.97 210.955C455.678 210.955 456.314 210.778 456.88 210.425C457.46 210.071 457.913 209.583 458.238 208.961C458.578 208.338 458.748 207.645 458.748 206.881C458.748 206.103 458.578 205.417 458.238 204.822C457.913 204.214 457.46 203.733 456.88 203.379C456.314 203.012 455.678 202.828 454.97 202.828C454.249 202.828 453.598 203.012 453.018 203.379C452.452 203.733 451.999 204.214 451.66 204.822C451.32 205.417 451.15 206.103 451.15 206.881C451.15 207.645 451.32 208.338 451.66 208.961C451.999 209.583 452.452 210.071 453.018 210.425C453.598 210.778 454.249 210.955 454.97 210.955ZM463.423 212.611V196.546H465.396V212.611H463.423Z" fill="#212528"/>
</g>
<defs>
<filter id="filter0_f_5045_40995" x="15.3572" y="264.348" width="416.705" height="41.125" filterUnits="userSpaceOnUse" color-interpolation-filters="sRGB">
<feFlood flood-opacity="0" result="BackgroundImageFix"/>
<feBlend mode="normal" in="SourceGraphic" in2="BackgroundImageFix" result="shape"/>
<feGaussianBlur stdDeviation="9.23214" result="effect1_foregroundBlur_5045_40995"/>
</filter>
<filter id="filter1_d_5045_40995" x="75" y="88" width="68" height="68" filterUnits="userSpaceOnUse" color-interpolation-filters="sRGB">
<feFlood flood-opacity="0" result="BackgroundImageFix"/>
<feColorMatrix in="SourceAlpha" type="matrix" values="0 0 0 0 0 0 0 0 0 0 0 0 0 0 0 0 0 0 127 0" result="hardAlpha"/>
<feOffset/>
<feGaussianBlur stdDeviation="2"/>
<feComposite in2="hardAlpha" operator="out"/>
<feColorMatrix type="matrix" values="0 0 0 0 0 0 0 0 0 0 0 0 0 0 0 0 0 0 0.1 0"/>
<feBlend mode="normal" in2="BackgroundImageFix" result="effect1_dropShadow_5045_40995"/>
<feBlend mode="normal" in="SourceGraphic" in2="effect1_dropShadow_5045_40995" result="shape"/>
</filter>
<filter id="filter2_d_5045_40995" x="227" y="88" width="68" height="68" filterUnits="userSpaceOnUse" color-interpolation-filters="sRGB">
<feFlood flood-opacity="0" result="BackgroundImageFix"/>
<feColorMatrix in="SourceAlpha" type="matrix" values="0 0 0 0 0 0 0 0 0 0 0 0 0 0 0 0 0 0 127 0" result="hardAlpha"/>
<feOffset/>
<feGaussianBlur stdDeviation="2"/>
<feComposite in2="hardAlpha" operator="out"/>
<feColorMatrix type="matrix" values="0 0 0 0 0 0 0 0 0 0 0 0 0 0 0 0 0 0 0.1 0"/>
<feBlend mode="normal" in2="BackgroundImageFix" result="effect1_dropShadow_5045_40995"/>
<feBlend mode="normal" in="SourceGraphic" in2="effect1_dropShadow_5045_40995" result="shape"/>
</filter>
<filter id="filter3_d_5045_40995" x="151" y="88" width="68" height="68" filterUnits="userSpaceOnUse" color-interpolation-filters="sRGB">
<feFlood flood-opacity="0" result="BackgroundImageFix"/>
<feColorMatrix in="SourceAlpha" type="matrix" values="0 0 0 0 0 0 0 0 0 0 0 0 0 0 0 0 0 0 127 0" result="hardAlpha"/>
<feOffset/>
<feGaussianBlur stdDeviation="2"/>
<feComposite in2="hardAlpha" operator="out"/>
<feColorMatrix type="matrix" values="0 0 0 0 0 0 0 0 0 0 0 0 0 0 0 0 0 0 0.1 0"/>
<feBlend mode="normal" in2="BackgroundImageFix" result="effect1_dropShadow_5045_40995"/>
<feBlend mode="normal" in="SourceGraphic" in2="effect1_dropShadow_5045_40995" result="shape"/>
</filter>
<filter id="filter4_d_5045_40995" x="303" y="88" width="68" height="68" filterUnits="userSpaceOnUse" color-interpolation-filters="sRGB">
<feFlood flood-opacity="0" result="BackgroundImageFix"/>
<feColorMatrix in="SourceAlpha" type="matrix" values="0 0 0 0 0 0 0 0 0 0 0 0 0 0 0 0 0 0 127 0" result="hardAlpha"/>
<feOffset/>
<feGaussianBlur stdDeviation="2"/>
<feComposite in2="hardAlpha" operator="out"/>
<feColorMatrix type="matrix" values="0 0 0 0 0 0 0 0 0 0 0 0 0 0 0 0 0 0 0.1 0"/>
<feBlend mode="normal" in2="BackgroundImageFix" result="effect1_dropShadow_5045_40995"/>
<feBlend mode="normal" in="SourceGraphic" in2="effect1_dropShadow_5045_40995" result="shape"/>
</filter>
<filter id="filter5_d_5045_40995" x="290.695" y="180" width="203.053" height="58.8319" filterUnits="userSpaceOnUse" color-interpolation-filters="sRGB">
<feFlood flood-opacity="0" result="BackgroundImageFix"/>
<feColorMatrix in="SourceAlpha" type="matrix" values="0 0 0 0 0 0 0 0 0 0 0 0 0 0 0 0 0 0 127 0" result="hardAlpha"/>
<feOffset dy="5.30531"/>
<feGaussianBlur stdDeviation="2.65266"/>
<feComposite in2="hardAlpha" operator="out"/>
<feColorMatrix type="matrix" values="0 0 0 0 0 0 0 0 0 0 0 0 0 0 0 0 0 0 0.25 0"/>
<feBlend mode="normal" in2="BackgroundImageFix" result="effect1_dropShadow_5045_40995"/>
<feBlend mode="normal" in="SourceGraphic" in2="effect1_dropShadow_5045_40995" result="shape"/>
</filter>
<linearGradient id="paint0_linear_5045_40995" x1="12" y1="273.58" x2="435" y2="273.58" gradientUnits="userSpaceOnUse">
<stop stop-color="#97AAC4"/>
<stop offset="0.0295345" stop-color="#CAD4DB"/>
<stop offset="0.0625" stop-color="#BECCDE"/>
<stop offset="0.133609" stop-color="#B7C2D0" stop-opacity="0.3"/>
<stop offset="0.865967" stop-color="#B7C2D0" stop-opacity="0.3"/>
<stop offset="0.941937" stop-color="#BECCDE"/>
<stop offset="0.971275" stop-color="#CAD4DB"/>
<stop offset="0.996436" stop-color="#B7C2D0"/>
</linearGradient>
<linearGradient id="paint1_linear_5045_40995" x1="223.5" y1="277.357" x2="223.5" y2="287.009" gradientUnits="userSpaceOnUse">
<stop stop-color="#B4C9E7" stop-opacity="0.6"/>
<stop offset="1" stop-color="#AAB5C6" stop-opacity="0.6"/>
</linearGradient>
<linearGradient id="paint2_linear_5045_40995" x1="195.594" y1="273.371" x2="253.085" y2="273.371" gradientUnits="userSpaceOnUse">
<stop stop-color="#B5C2D3"/>
<stop offset="0.317518" stop-color="#CFD9E7" stop-opacity="0"/>
<stop offset="0.660584" stop-color="#CFD9E7" stop-opacity="0"/>
<stop offset="1" stop-color="#CFD9E7"/>
</linearGradient>
</defs>
</svg>
