<svg width="500" height="350" viewBox="0 0 500 350" fill="none" xmlns="http://www.w3.org/2000/svg">
<path fill-rule="evenodd" clip-rule="evenodd" d="M305.667 117.778C319.912 150.028 325.966 186.047 314.95 218.726C303.071 253.964 280.073 288.493 245.148 297.301C211.847 305.699 182.218 276.274 150.789 260.126C120.21 244.415 83.3092 237.127 67.1069 205.825C49.4151 171.644 47.1122 127.797 65.5142 95.3759C82.8381 64.8539 121.271 60.3452 154.536 51.7887C183.266 44.3985 212.7 38.1733 240.576 50.345C269.751 63.0836 292.425 87.7986 305.667 117.778Z" fill="#F2BE55" fill-opacity="0.17"/>
<g filter="url(#filter0_d_5053_17740)">
<path d="M12 140C12 135.582 15.5817 132 20 132H313C317.418 132 321 135.582 321 140V188C321 192.418 317.418 196 313 196H20C15.5817 196 12 192.418 12 188V140Z" fill="white"/>
<rect x="24.5" y="144" width="40" height="40" rx="20" fill="white"/>
<rect x="25.75" y="145.25" width="37.5" height="37.5" rx="18.75" fill="#4CD9D9" fill-opacity="0.16"/>
<rect x="25.75" y="145.25" width="37.5" height="37.5" rx="18.75" stroke="white" stroke-width="2.5"/>
<path d="M36.1539 169.5H33.9039L38.0005 157.864H40.6028L44.7051 169.5H42.4551L39.3471 160.25H39.2562L36.1539 169.5ZM36.2278 164.938H42.3641V166.631H36.2278V164.938ZM44.5748 157.864H46.9555L49.802 163.011H49.9157L52.7623 157.864H55.143L50.91 165.159V169.5H48.8077V165.159L44.5748 157.864Z" fill="#212528"/>
<circle cx="58" cy="177" r="4" fill="#29A653"/>
<circle cx="58" cy="177" r="4" stroke="white"/>
<path d="M76.25 179.619C75.608 179.619 75.0611 179.445 74.6094 179.095C74.1577 178.743 73.8125 178.233 73.5739 177.565C73.3352 176.895 73.2159 176.085 73.2159 175.136C73.2159 174.193 73.3352 173.388 73.5739 172.72C73.8153 172.05 74.1619 171.538 74.6136 171.186C75.0682 170.831 75.6136 170.653 76.25 170.653C76.8864 170.653 77.4304 170.831 77.8821 171.186C78.3366 171.538 78.6832 172.05 78.9219 172.72C79.1634 173.388 79.2841 174.193 79.2841 175.136C79.2841 176.085 79.1648 176.895 78.9261 177.565C78.6875 178.233 78.3423 178.743 77.8906 179.095C77.4389 179.445 76.892 179.619 76.25 179.619ZM76.25 178.682C76.8864 178.682 77.3807 178.375 77.733 177.761C78.0852 177.148 78.2614 176.273 78.2614 175.136C78.2614 174.381 78.1804 173.737 78.0185 173.206C77.8594 172.675 77.6293 172.27 77.3281 171.991C77.0298 171.713 76.6705 171.574 76.25 171.574C75.6193 171.574 75.1264 171.885 74.7713 172.507C74.4162 173.126 74.2386 174.003 74.2386 175.136C74.2386 175.892 74.3182 176.534 74.4773 177.062C74.6364 177.591 74.8651 177.993 75.1634 178.268C75.4645 178.544 75.8267 178.682 76.25 178.682ZM83.75 179.619C83.108 179.619 82.5611 179.445 82.1094 179.095C81.6577 178.743 81.3125 178.233 81.0739 177.565C80.8352 176.895 80.7159 176.085 80.7159 175.136C80.7159 174.193 80.8352 173.388 81.0739 172.72C81.3153 172.05 81.6619 171.538 82.1136 171.186C82.5682 170.831 83.1136 170.653 83.75 170.653C84.3864 170.653 84.9304 170.831 85.3821 171.186C85.8366 171.538 86.1832 172.05 86.4219 172.72C86.6634 173.388 86.7841 174.193 86.7841 175.136C86.7841 176.085 86.6648 176.895 86.4261 177.565C86.1875 178.233 85.8423 178.743 85.3906 179.095C84.9389 179.445 84.392 179.619 83.75 179.619ZM83.75 178.682C84.3864 178.682 84.8807 178.375 85.233 177.761C85.5852 177.148 85.7614 176.273 85.7614 175.136C85.7614 174.381 85.6804 173.737 85.5185 173.206C85.3594 172.675 85.1293 172.27 84.8281 171.991C84.5298 171.713 84.1705 171.574 83.75 171.574C83.1193 171.574 82.6264 171.885 82.2713 172.507C81.9162 173.126 81.7386 174.003 81.7386 175.136C81.7386 175.892 81.8182 176.534 81.9773 177.062C82.1364 177.591 82.3651 177.993 82.6634 178.268C82.9645 178.544 83.3267 178.682 83.75 178.682ZM88.4418 179.5L92.3452 171.778V171.71H87.8452V170.773H93.4361V171.761L89.5497 179.5H88.4418Z" fill="#5D6164"/>
<path d="M75.142 161.5H72.892L76.9886 149.864H79.5909L83.6932 161.5H81.4432L78.3352 152.25H78.2443L75.142 161.5ZM75.2159 156.938H81.3523V158.631H75.2159V156.938ZM91.892 155.08L90.017 155.284C89.964 155.095 89.8712 154.917 89.7386 154.75C89.6098 154.583 89.4356 154.449 89.2159 154.347C88.9962 154.244 88.7273 154.193 88.4091 154.193C87.9811 154.193 87.6212 154.286 87.3295 154.472C87.0417 154.657 86.8996 154.898 86.9034 155.193C86.8996 155.447 86.9924 155.653 87.1818 155.812C87.375 155.972 87.6932 156.102 88.1364 156.205L89.625 156.523C90.4508 156.701 91.0644 156.983 91.4659 157.369C91.8712 157.756 92.0758 158.261 92.0795 158.886C92.0758 159.436 91.9148 159.92 91.5966 160.341C91.2822 160.758 90.8447 161.083 90.2841 161.318C89.7235 161.553 89.0795 161.67 88.3523 161.67C87.2841 161.67 86.4242 161.447 85.7727 161C85.1212 160.549 84.733 159.922 84.608 159.119L86.6136 158.926C86.7045 159.32 86.8977 159.617 87.1932 159.818C87.4886 160.019 87.8731 160.119 88.3466 160.119C88.8352 160.119 89.2273 160.019 89.5227 159.818C89.822 159.617 89.9716 159.369 89.9716 159.074C89.9716 158.824 89.875 158.617 89.6818 158.455C89.4924 158.292 89.197 158.167 88.7955 158.08L87.3068 157.767C86.4697 157.593 85.8504 157.299 85.4489 156.886C85.0473 156.47 84.8485 155.943 84.8523 155.307C84.8485 154.769 84.9943 154.303 85.2898 153.909C85.589 153.511 86.0038 153.205 86.5341 152.989C87.0682 152.769 87.6837 152.659 88.3807 152.659C89.4034 152.659 90.2083 152.877 90.7955 153.312C91.3864 153.748 91.7519 154.337 91.892 155.08ZM95.8324 156.386V161.5H93.7756V149.864H95.7869V154.256H95.8892C96.0938 153.763 96.41 153.375 96.8381 153.091C97.2699 152.803 97.8191 152.659 98.4858 152.659C99.0919 152.659 99.6203 152.786 100.071 153.04C100.522 153.294 100.87 153.665 101.116 154.153C101.366 154.642 101.491 155.239 101.491 155.943V161.5H99.4347V156.261C99.4347 155.674 99.2831 155.218 98.9801 154.892C98.6809 154.562 98.2604 154.398 97.7188 154.398C97.3551 154.398 97.0294 154.477 96.7415 154.636C96.4574 154.792 96.2339 155.017 96.071 155.312C95.9119 155.608 95.8324 155.966 95.8324 156.386ZM103.588 161.5V152.773H105.645V161.5H103.588ZM104.622 151.534C104.296 151.534 104.016 151.426 103.781 151.21C103.546 150.991 103.429 150.727 103.429 150.42C103.429 150.11 103.546 149.847 103.781 149.631C104.016 149.411 104.296 149.301 104.622 149.301C104.952 149.301 105.232 149.411 105.463 149.631C105.698 149.847 105.815 150.11 105.815 150.42C105.815 150.727 105.698 150.991 105.463 151.21C105.232 151.426 104.952 151.534 104.622 151.534ZM114.658 155.08L112.783 155.284C112.73 155.095 112.637 154.917 112.504 154.75C112.375 154.583 112.201 154.449 111.982 154.347C111.762 154.244 111.493 154.193 111.175 154.193C110.747 154.193 110.387 154.286 110.095 154.472C109.807 154.657 109.665 154.898 109.669 155.193C109.665 155.447 109.758 155.653 109.947 155.812C110.141 155.972 110.459 156.102 110.902 156.205L112.391 156.523C113.216 156.701 113.83 156.983 114.232 157.369C114.637 157.756 114.841 158.261 114.845 158.886C114.841 159.436 114.68 159.92 114.362 160.341C114.048 160.758 113.61 161.083 113.05 161.318C112.489 161.553 111.845 161.67 111.118 161.67C110.05 161.67 109.19 161.447 108.538 161C107.887 160.549 107.499 159.922 107.374 159.119L109.379 158.926C109.47 159.32 109.663 159.617 109.959 159.818C110.254 160.019 110.639 160.119 111.112 160.119C111.601 160.119 111.993 160.019 112.288 159.818C112.588 159.617 112.737 159.369 112.737 159.074C112.737 158.824 112.641 158.617 112.447 158.455C112.258 158.292 111.963 158.167 111.561 158.08L110.072 157.767C109.235 157.593 108.616 157.299 108.214 156.886C107.813 156.47 107.614 155.943 107.618 155.307C107.614 154.769 107.76 154.303 108.055 153.909C108.355 153.511 108.769 153.205 109.3 152.989C109.834 152.769 110.449 152.659 111.146 152.659C112.169 152.659 112.974 152.877 113.561 153.312C114.152 153.748 114.518 154.337 114.658 155.08ZM118.598 156.386V161.5H116.541V149.864H118.553V154.256H118.655C118.859 153.763 119.176 153.375 119.604 153.091C120.036 152.803 120.585 152.659 121.251 152.659C121.857 152.659 122.386 152.786 122.837 153.04C123.287 153.294 123.636 153.665 123.882 154.153C124.132 154.642 124.257 155.239 124.257 155.943V161.5H122.2V156.261C122.2 155.674 122.049 155.218 121.746 154.892C121.446 154.562 121.026 154.398 120.484 154.398C120.121 154.398 119.795 154.477 119.507 154.636C119.223 154.792 119 155.017 118.837 155.312C118.678 155.608 118.598 155.966 118.598 156.386ZM129.618 149.864H131.999L134.845 155.011H134.959L137.805 149.864H140.186L135.953 157.159V161.5H133.851V157.159L129.618 149.864ZM142.599 161.676C142.046 161.676 141.548 161.578 141.105 161.381C140.666 161.18 140.317 160.884 140.06 160.494C139.806 160.104 139.679 159.623 139.679 159.051C139.679 158.559 139.77 158.152 139.952 157.83C140.134 157.508 140.382 157.25 140.696 157.057C141.01 156.864 141.365 156.718 141.759 156.619C142.156 156.517 142.567 156.443 142.991 156.398C143.503 156.345 143.918 156.297 144.236 156.256C144.554 156.21 144.785 156.142 144.929 156.051C145.077 155.956 145.151 155.811 145.151 155.614V155.58C145.151 155.152 145.024 154.82 144.77 154.585C144.516 154.35 144.151 154.233 143.673 154.233C143.17 154.233 142.77 154.343 142.474 154.562C142.183 154.782 141.986 155.042 141.884 155.341L139.963 155.068C140.115 154.538 140.365 154.095 140.713 153.739C141.062 153.379 141.488 153.11 141.991 152.932C142.495 152.75 143.052 152.659 143.662 152.659C144.082 152.659 144.501 152.708 144.918 152.807C145.334 152.905 145.715 153.068 146.06 153.295C146.404 153.519 146.681 153.824 146.889 154.21C147.101 154.597 147.207 155.08 147.207 155.659V161.5H145.23V160.301H145.162C145.037 160.544 144.861 160.771 144.634 160.983C144.41 161.191 144.128 161.36 143.787 161.489C143.45 161.614 143.054 161.676 142.599 161.676ZM143.134 160.165C143.546 160.165 143.904 160.083 144.207 159.92C144.51 159.754 144.743 159.534 144.906 159.261C145.073 158.989 145.156 158.691 145.156 158.369V157.341C145.092 157.394 144.982 157.443 144.827 157.489C144.675 157.534 144.505 157.574 144.315 157.608C144.126 157.642 143.938 157.672 143.753 157.699C143.567 157.725 143.406 157.748 143.27 157.767C142.963 157.809 142.688 157.877 142.446 157.972C142.204 158.066 142.012 158.199 141.872 158.369C141.732 158.536 141.662 158.752 141.662 159.017C141.662 159.396 141.8 159.682 142.077 159.875C142.353 160.068 142.705 160.165 143.134 160.165ZM152.514 161.653C151.829 161.653 151.215 161.477 150.673 161.125C150.132 160.773 149.704 160.261 149.389 159.591C149.075 158.92 148.918 158.106 148.918 157.148C148.918 156.178 149.077 155.36 149.395 154.693C149.717 154.023 150.151 153.517 150.696 153.176C151.241 152.831 151.849 152.659 152.52 152.659C153.031 152.659 153.452 152.746 153.781 152.92C154.111 153.091 154.372 153.297 154.565 153.54C154.759 153.778 154.908 154.004 155.014 154.216H155.099V149.864H157.162V161.5H155.139V160.125H155.014C154.908 160.337 154.755 160.562 154.554 160.801C154.353 161.036 154.088 161.237 153.759 161.403C153.429 161.57 153.014 161.653 152.514 161.653ZM153.088 159.966C153.524 159.966 153.895 159.848 154.202 159.614C154.509 159.375 154.741 159.044 154.901 158.619C155.06 158.195 155.139 157.701 155.139 157.136C155.139 156.572 155.06 156.081 154.901 155.665C154.745 155.248 154.514 154.924 154.207 154.693C153.904 154.462 153.531 154.347 153.088 154.347C152.63 154.347 152.247 154.466 151.94 154.705C151.634 154.943 151.402 155.273 151.247 155.693C151.092 156.114 151.014 156.595 151.014 157.136C151.014 157.682 151.092 158.169 151.247 158.597C151.406 159.021 151.639 159.356 151.946 159.602C152.257 159.845 152.637 159.966 153.088 159.966ZM161.865 161.676C161.312 161.676 160.814 161.578 160.371 161.381C159.931 161.18 159.583 160.884 159.325 160.494C159.071 160.104 158.945 159.623 158.945 159.051C158.945 158.559 159.036 158.152 159.217 157.83C159.399 157.508 159.647 157.25 159.962 157.057C160.276 156.864 160.63 156.718 161.024 156.619C161.422 156.517 161.833 156.443 162.257 156.398C162.768 156.345 163.183 156.297 163.501 156.256C163.82 156.21 164.051 156.142 164.195 156.051C164.342 155.956 164.416 155.811 164.416 155.614V155.58C164.416 155.152 164.289 154.82 164.036 154.585C163.782 154.35 163.416 154.233 162.939 154.233C162.435 154.233 162.036 154.343 161.74 154.562C161.448 154.782 161.251 155.042 161.149 155.341L159.229 155.068C159.38 154.538 159.63 154.095 159.979 153.739C160.327 153.379 160.753 153.11 161.257 152.932C161.761 152.75 162.318 152.659 162.928 152.659C163.348 152.659 163.767 152.708 164.183 152.807C164.6 152.905 164.981 153.068 165.325 153.295C165.67 153.519 165.946 153.824 166.155 154.21C166.367 154.597 166.473 155.08 166.473 155.659V161.5H164.496V160.301H164.428C164.303 160.544 164.126 160.771 163.899 160.983C163.676 161.191 163.393 161.36 163.053 161.489C162.715 161.614 162.32 161.676 161.865 161.676ZM162.399 160.165C162.812 160.165 163.17 160.083 163.473 159.92C163.776 159.754 164.009 159.534 164.172 159.261C164.339 158.989 164.422 158.691 164.422 158.369V157.341C164.357 157.394 164.248 157.443 164.092 157.489C163.941 157.534 163.77 157.574 163.581 157.608C163.392 157.642 163.204 157.672 163.018 157.699C162.833 157.725 162.672 157.748 162.536 157.767C162.229 157.809 161.954 157.877 161.712 157.972C161.469 158.066 161.278 158.199 161.138 158.369C160.998 158.536 160.928 158.752 160.928 159.017C160.928 159.396 161.066 159.682 161.342 159.875C161.619 160.068 161.971 160.165 162.399 160.165ZM176.024 152.773L172.916 161.5H170.643L167.536 152.773H169.729L171.734 159.256H171.825L173.837 152.773H176.024Z" fill="#3F4346"/>
<line x1="184" y1="179" x2="184" y2="149" stroke="#D5D9DC"/>
<rect x="192.5" y="146" width="36" height="36" rx="18" fill="white"/>
<path d="M205.95 158.167C206 158.908 206.125 159.633 206.325 160.325L205.325 161.325C204.983 160.325 204.767 159.267 204.692 158.167H205.95ZM214.167 168.183C214.875 168.383 215.6 168.508 216.333 168.558V169.8C215.233 169.725 214.175 169.508 213.167 169.175L214.167 168.183ZM206.75 156.5H203.833C203.375 156.5 203 156.875 203 157.333C203 165.158 209.342 171.5 217.167 171.5C217.625 171.5 218 171.125 218 170.667V167.758C218 167.3 217.625 166.925 217.167 166.925C216.133 166.925 215.125 166.758 214.192 166.45C214.108 166.417 214.017 166.408 213.933 166.408C213.717 166.408 213.508 166.492 213.342 166.65L211.508 168.483C209.15 167.275 207.217 165.35 206.017 162.992L207.85 161.158C208.083 160.925 208.15 160.6 208.058 160.308C207.75 159.375 207.583 158.375 207.583 157.333C207.583 156.875 207.208 156.5 206.75 156.5Z" fill="#5D6164"/>
<rect x="232.5" y="146" width="36" height="36" rx="18" fill="white"/>
<path d="M254.667 162.75V159.833C254.667 159.375 254.292 159 253.833 159H243.833C243.375 159 243 159.375 243 159.833V168.167C243 168.625 243.375 169 243.833 169H253.833C254.292 169 254.667 168.625 254.667 168.167V165.25L258 168.583V159.417L254.667 162.75ZM253 167.333H244.667V160.667H253V167.333ZM248 166.5H249.667V164.833H251.333V163.167H249.667V161.5H248V163.167H246.333V164.833H248V166.5Z" fill="#5D6164"/>
<rect x="272.5" y="146" width="36" height="36" rx="18" fill="white"/>
<g clip-path="url(#clip0_5053_17740)">
<path d="M297.167 169C298.083 169 298.825 168.25 298.825 167.333L298.833 159C298.833 158.075 298.083 157.333 297.167 157.333H283.833C282.908 157.333 282.167 158.075 282.167 159V167.333C282.167 168.25 282.908 169 283.833 169H280.5V170.667H300.5V169H297.167ZM283.833 167.333V159H297.167V167.342L283.833 167.333ZM291.333 161.608C288.092 162.058 286.8 164.275 286.333 166.5C287.492 164.942 289.017 164.233 291.333 164.233V166.058L294.667 162.942L291.333 159.833V161.608Z" fill="#5D6164"/>
</g>
</g>
<g filter="url(#filter1_d_5053_17740)">
<rect x="185" y="264" width="131" height="36" rx="18" fill="white" shape-rendering="crispEdges"/>
<path d="M205.48 289L201.176 277.08H202.856L206.504 287.56H206.168L209.816 277.08H211.496L207.208 289H205.48ZM212.824 289V280.376H214.312V289H212.824ZM212.824 279V277.08H214.312V279H212.824ZM220.541 289.192C219.73 289.192 218.999 288.995 218.349 288.6C217.709 288.205 217.202 287.667 216.829 286.984C216.455 286.301 216.269 285.539 216.269 284.696C216.269 283.832 216.455 283.064 216.829 282.392C217.202 281.709 217.709 281.171 218.349 280.776C218.999 280.381 219.73 280.184 220.541 280.184C221.255 280.184 221.89 280.339 222.445 280.648C222.999 280.947 223.437 281.352 223.757 281.864L223.517 282.232V276.888H225.021V289H223.565V287.16L223.757 287.416C223.458 287.981 223.021 288.419 222.445 288.728C221.879 289.037 221.245 289.192 220.541 289.192ZM220.669 287.752C221.213 287.752 221.698 287.619 222.125 287.352C222.551 287.085 222.887 286.723 223.133 286.264C223.389 285.795 223.517 285.272 223.517 284.696C223.517 284.109 223.389 283.587 223.133 283.128C222.887 282.659 222.551 282.291 222.125 282.024C221.698 281.757 221.213 281.624 220.669 281.624C220.135 281.624 219.65 281.763 219.213 282.04C218.786 282.307 218.45 282.669 218.205 283.128C217.959 283.576 217.837 284.099 217.837 284.696C217.837 285.272 217.959 285.795 218.205 286.264C218.45 286.723 218.786 287.085 219.213 287.352C219.639 287.619 220.125 287.752 220.669 287.752ZM231.292 289.192C230.46 289.192 229.719 288.995 229.068 288.6C228.417 288.205 227.905 287.667 227.532 286.984C227.159 286.291 226.972 285.517 226.972 284.664C226.972 283.8 227.153 283.032 227.516 282.36C227.889 281.688 228.391 281.16 229.02 280.776C229.66 280.381 230.375 280.184 231.164 280.184C231.804 280.184 232.369 280.301 232.86 280.536C233.361 280.76 233.783 281.069 234.124 281.464C234.476 281.848 234.743 282.291 234.924 282.792C235.116 283.283 235.212 283.795 235.212 284.328C235.212 284.445 235.201 284.579 235.18 284.728C235.169 284.867 235.153 285 235.132 285.128H228.06V283.848H234.268L233.564 284.424C233.66 283.869 233.607 283.373 233.404 282.936C233.201 282.499 232.903 282.152 232.508 281.896C232.113 281.64 231.665 281.512 231.164 281.512C230.663 281.512 230.204 281.64 229.788 281.896C229.372 282.152 229.047 282.52 228.812 283C228.588 283.469 228.497 284.029 228.54 284.68C228.497 285.309 228.593 285.864 228.828 286.344C229.073 286.813 229.415 287.181 229.852 287.448C230.3 287.704 230.785 287.832 231.308 287.832C231.884 287.832 232.369 287.699 232.764 287.432C233.159 287.165 233.479 286.824 233.724 286.408L234.972 287.048C234.801 287.443 234.535 287.805 234.172 288.136C233.82 288.456 233.399 288.712 232.908 288.904C232.428 289.096 231.889 289.192 231.292 289.192ZM241.248 289.192C240.416 289.192 239.664 289 238.992 288.616C238.32 288.221 237.787 287.683 237.392 287C236.997 286.317 236.8 285.544 236.8 284.68C236.8 283.816 236.992 283.048 237.376 282.376C237.771 281.704 238.304 281.171 238.976 280.776C239.648 280.381 240.405 280.184 241.248 280.184C242.08 280.184 242.832 280.381 243.504 280.776C244.176 281.16 244.704 281.688 245.088 282.36C245.483 283.032 245.68 283.805 245.68 284.68C245.68 285.555 245.477 286.333 245.072 287.016C244.667 287.688 244.128 288.221 243.456 288.616C242.795 289 242.059 289.192 241.248 289.192ZM241.248 287.752C241.781 287.752 242.261 287.619 242.688 287.352C243.125 287.085 243.467 286.717 243.712 286.248C243.968 285.779 244.096 285.256 244.096 284.68C244.096 284.093 243.968 283.576 243.712 283.128C243.467 282.669 243.125 282.307 242.688 282.04C242.261 281.763 241.781 281.624 241.248 281.624C240.704 281.624 240.213 281.763 239.776 282.04C239.349 282.307 239.008 282.669 238.752 283.128C238.496 283.576 238.368 284.093 238.368 284.68C238.368 285.256 238.496 285.779 238.752 286.248C239.008 286.717 239.349 287.085 239.776 287.352C240.213 287.619 240.704 287.752 241.248 287.752ZM254.386 289.192C253.544 289.192 252.792 288.995 252.13 288.6C251.48 288.205 250.968 287.667 250.594 286.984C250.221 286.301 250.034 285.533 250.034 284.68C250.034 283.816 250.221 283.048 250.594 282.376C250.968 281.704 251.48 281.171 252.13 280.776C252.792 280.381 253.544 280.184 254.386 280.184C254.952 280.184 255.48 280.285 255.97 280.488C256.461 280.691 256.893 280.963 257.266 281.304C257.64 281.645 257.912 282.045 258.082 282.504L256.754 283.144C256.552 282.696 256.242 282.333 255.826 282.056C255.41 281.768 254.93 281.624 254.386 281.624C253.864 281.624 253.389 281.757 252.962 282.024C252.546 282.291 252.216 282.653 251.97 283.112C251.725 283.571 251.602 284.099 251.602 284.696C251.602 285.272 251.725 285.795 251.97 286.264C252.216 286.723 252.546 287.085 252.962 287.352C253.389 287.619 253.864 287.752 254.386 287.752C254.93 287.752 255.41 287.613 255.826 287.336C256.242 287.048 256.552 286.669 256.754 286.2L258.082 286.872C257.912 287.32 257.64 287.72 257.266 288.072C256.893 288.413 256.461 288.685 255.97 288.888C255.48 289.091 254.952 289.192 254.386 289.192ZM262.446 289.192C261.88 289.192 261.379 289.091 260.942 288.888C260.515 288.675 260.179 288.387 259.934 288.024C259.688 287.651 259.566 287.224 259.566 286.744C259.566 286.285 259.662 285.875 259.854 285.512C260.056 285.139 260.366 284.824 260.782 284.568C261.208 284.312 261.742 284.131 262.382 284.024L265.582 283.496V284.744L262.718 285.224C262.163 285.32 261.758 285.496 261.502 285.752C261.256 286.008 261.134 286.323 261.134 286.696C261.134 287.048 261.272 287.341 261.55 287.576C261.838 287.811 262.195 287.928 262.622 287.928C263.166 287.928 263.635 287.816 264.03 287.592C264.435 287.357 264.75 287.043 264.974 286.648C265.208 286.253 265.326 285.816 265.326 285.336V283.144C265.326 282.675 265.15 282.296 264.798 282.008C264.456 281.709 264.003 281.56 263.438 281.56C262.947 281.56 262.51 281.688 262.126 281.944C261.752 282.189 261.475 282.52 261.294 282.936L259.998 282.264C260.158 281.869 260.414 281.517 260.766 281.208C261.118 280.888 261.528 280.637 261.998 280.456C262.467 280.275 262.958 280.184 263.47 280.184C264.131 280.184 264.712 280.312 265.214 280.568C265.715 280.813 266.104 281.16 266.382 281.608C266.67 282.045 266.814 282.557 266.814 283.144V289H265.358V287.368L265.63 287.464C265.448 287.805 265.203 288.104 264.894 288.36C264.584 288.616 264.222 288.819 263.806 288.968C263.39 289.117 262.936 289.192 262.446 289.192ZM269.121 289V276.888H270.609V289H269.121ZM272.918 289V276.888H274.406V289H272.918ZM276.715 289V280.376H278.203V289H276.715ZM276.715 279V277.08H278.203V279H276.715ZM280.511 289V280.376H281.967V282.056L281.727 281.912C281.941 281.368 282.282 280.947 282.751 280.648C283.231 280.339 283.791 280.184 284.431 280.184C285.05 280.184 285.599 280.323 286.079 280.6C286.57 280.877 286.954 281.261 287.231 281.752C287.519 282.243 287.663 282.797 287.663 283.416V289H286.159V283.896C286.159 283.416 286.074 283.011 285.903 282.68C285.733 282.349 285.487 282.093 285.167 281.912C284.858 281.72 284.501 281.624 284.095 281.624C283.69 281.624 283.327 281.72 283.007 281.912C282.698 282.093 282.453 282.355 282.271 282.696C282.09 283.027 281.999 283.427 281.999 283.896V289H280.511ZM293.905 292.52C293.297 292.52 292.731 292.424 292.209 292.232C291.697 292.04 291.254 291.773 290.881 291.432C290.518 291.101 290.241 290.712 290.049 290.264L291.441 289.624C291.59 290.029 291.873 290.371 292.289 290.648C292.715 290.936 293.249 291.08 293.889 291.08C294.379 291.08 294.822 290.984 295.217 290.792C295.622 290.611 295.942 290.333 296.177 289.96C296.411 289.597 296.529 289.155 296.529 288.632V286.696L296.801 286.984C296.502 287.571 296.07 288.019 295.505 288.328C294.95 288.637 294.337 288.792 293.665 288.792C292.854 288.792 292.129 288.605 291.489 288.232C290.849 287.848 290.347 287.331 289.985 286.68C289.622 286.019 289.441 285.288 289.441 284.488C289.441 283.677 289.622 282.947 289.985 282.296C290.347 281.645 290.843 281.133 291.473 280.76C292.113 280.376 292.838 280.184 293.649 280.184C294.321 280.184 294.929 280.339 295.473 280.648C296.027 280.947 296.47 281.363 296.801 281.896L296.577 282.296V280.376H298.033V288.632C298.033 289.379 297.857 290.045 297.505 290.632C297.153 291.219 296.662 291.677 296.033 292.008C295.414 292.349 294.705 292.52 293.905 292.52ZM293.793 287.352C294.305 287.352 294.763 287.224 295.169 286.968C295.585 286.712 295.915 286.371 296.161 285.944C296.406 285.507 296.529 285.021 296.529 284.488C296.529 283.965 296.406 283.485 296.161 283.048C295.915 282.611 295.585 282.264 295.169 282.008C294.763 281.752 294.305 281.624 293.793 281.624C293.27 281.624 292.795 281.752 292.369 282.008C291.942 282.264 291.606 282.611 291.361 283.048C291.126 283.475 291.009 283.955 291.009 284.488C291.009 285.021 291.126 285.507 291.361 285.944C291.606 286.371 291.937 286.712 292.353 286.968C292.779 287.224 293.259 287.352 293.793 287.352Z" fill="#212528"/>
</g>
<path d="M251.5 186C251.5 185.448 251.052 185 250.5 185C249.948 185 249.5 185.448 249.5 186H251.5ZM249.793 260.707C250.183 261.098 250.817 261.098 251.207 260.707L257.571 254.343C257.962 253.953 257.962 253.319 257.571 252.929C257.181 252.538 256.547 252.538 256.157 252.929L250.5 258.586L244.843 252.929C244.453 252.538 243.819 252.538 243.429 252.929C243.038 253.319 243.038 253.953 243.429 254.343L249.793 260.707ZM249.5 186V260H251.5V186H249.5Z" fill="#B3B3B3"/>
<g filter="url(#filter2_d_5053_17740)">
<rect x="146" y="40" width="129" height="36" rx="18" fill="white" shape-rendering="crispEdges"/>
<path d="M166.48 65L162.176 53.08H163.856L167.504 63.56H167.168L170.816 53.08H172.496L168.208 65H166.48ZM177.123 65.192C176.291 65.192 175.539 65 174.867 64.616C174.195 64.2213 173.662 63.6827 173.267 63C172.872 62.3173 172.675 61.544 172.675 60.68C172.675 59.816 172.867 59.048 173.251 58.376C173.646 57.704 174.179 57.1707 174.851 56.776C175.523 56.3813 176.28 56.184 177.123 56.184C177.955 56.184 178.707 56.3813 179.379 56.776C180.051 57.16 180.579 57.688 180.963 58.36C181.358 59.032 181.555 59.8053 181.555 60.68C181.555 61.5547 181.352 62.3333 180.947 63.016C180.542 63.688 180.003 64.2213 179.331 64.616C178.67 65 177.934 65.192 177.123 65.192ZM177.123 63.752C177.656 63.752 178.136 63.6187 178.563 63.352C179 63.0853 179.342 62.7173 179.587 62.248C179.843 61.7787 179.971 61.256 179.971 60.68C179.971 60.0933 179.843 59.576 179.587 59.128C179.342 58.6693 179 58.3067 178.563 58.04C178.136 57.7627 177.656 57.624 177.123 57.624C176.579 57.624 176.088 57.7627 175.651 58.04C175.224 58.3067 174.883 58.6693 174.627 59.128C174.371 59.576 174.243 60.0933 174.243 60.68C174.243 61.256 174.371 61.7787 174.627 62.248C174.883 62.7173 175.224 63.0853 175.651 63.352C176.088 63.6187 176.579 63.752 177.123 63.752ZM183.496 65V56.376H184.984V65H183.496ZM183.496 55V53.08H184.984V55H183.496ZM191.293 65.192C190.45 65.192 189.698 64.9947 189.037 64.6C188.386 64.2053 187.874 63.6667 187.501 62.984C187.127 62.3013 186.941 61.5333 186.941 60.68C186.941 59.816 187.127 59.048 187.501 58.376C187.874 57.704 188.386 57.1707 189.037 56.776C189.698 56.3813 190.45 56.184 191.293 56.184C191.858 56.184 192.386 56.2853 192.877 56.488C193.367 56.6907 193.799 56.9627 194.173 57.304C194.546 57.6453 194.818 58.0453 194.989 58.504L193.661 59.144C193.458 58.696 193.149 58.3333 192.733 58.056C192.317 57.768 191.837 57.624 191.293 57.624C190.77 57.624 190.295 57.7573 189.869 58.024C189.453 58.2907 189.122 58.6533 188.877 59.112C188.631 59.5707 188.509 60.0987 188.509 60.696C188.509 61.272 188.631 61.7947 188.877 62.264C189.122 62.7227 189.453 63.0853 189.869 63.352C190.295 63.6187 190.77 63.752 191.293 63.752C191.837 63.752 192.317 63.6133 192.733 63.336C193.149 63.048 193.458 62.6693 193.661 62.2L194.989 62.872C194.818 63.32 194.546 63.72 194.173 64.072C193.799 64.4133 193.367 64.6853 192.877 64.888C192.386 65.0907 191.858 65.192 191.293 65.192ZM200.901 65.192C200.069 65.192 199.328 64.9947 198.677 64.6C198.027 64.2053 197.515 63.6667 197.141 62.984C196.768 62.2907 196.581 61.5173 196.581 60.664C196.581 59.8 196.763 59.032 197.125 58.36C197.499 57.688 198 57.16 198.629 56.776C199.269 56.3813 199.984 56.184 200.773 56.184C201.413 56.184 201.979 56.3013 202.469 56.536C202.971 56.76 203.392 57.0693 203.733 57.464C204.085 57.848 204.352 58.2907 204.533 58.792C204.725 59.2827 204.821 59.7947 204.821 60.328C204.821 60.4453 204.811 60.5787 204.789 60.728C204.779 60.8667 204.763 61 204.741 61.128H197.669V59.848H203.877L203.173 60.424C203.269 59.8693 203.216 59.3733 203.013 58.936C202.811 58.4987 202.512 58.152 202.117 57.896C201.723 57.64 201.275 57.512 200.773 57.512C200.272 57.512 199.813 57.64 199.397 57.896C198.981 58.152 198.656 58.52 198.421 59C198.197 59.4693 198.107 60.0293 198.149 60.68C198.107 61.3093 198.203 61.864 198.437 62.344C198.683 62.8133 199.024 63.1813 199.461 63.448C199.909 63.704 200.395 63.832 200.917 63.832C201.493 63.832 201.979 63.6987 202.373 63.432C202.768 63.1653 203.088 62.824 203.333 62.408L204.581 63.048C204.411 63.4427 204.144 63.8053 203.781 64.136C203.429 64.456 203.008 64.712 202.517 64.904C202.037 65.096 201.499 65.192 200.901 65.192ZM213.527 65.192C212.684 65.192 211.932 64.9947 211.271 64.6C210.62 64.2053 210.108 63.6667 209.735 62.984C209.362 62.3013 209.175 61.5333 209.175 60.68C209.175 59.816 209.362 59.048 209.735 58.376C210.108 57.704 210.62 57.1707 211.271 56.776C211.932 56.3813 212.684 56.184 213.527 56.184C214.092 56.184 214.62 56.2853 215.111 56.488C215.602 56.6907 216.034 56.9627 216.407 57.304C216.78 57.6453 217.052 58.0453 217.223 58.504L215.895 59.144C215.692 58.696 215.383 58.3333 214.967 58.056C214.551 57.768 214.071 57.624 213.527 57.624C213.004 57.624 212.53 57.7573 212.103 58.024C211.687 58.2907 211.356 58.6533 211.111 59.112C210.866 59.5707 210.743 60.0987 210.743 60.696C210.743 61.272 210.866 61.7947 211.111 62.264C211.356 62.7227 211.687 63.0853 212.103 63.352C212.53 63.6187 213.004 63.752 213.527 63.752C214.071 63.752 214.551 63.6133 214.967 63.336C215.383 63.048 215.692 62.6693 215.895 62.2L217.223 62.872C217.052 63.32 216.78 63.72 216.407 64.072C216.034 64.4133 215.602 64.6853 215.111 64.888C214.62 65.0907 214.092 65.192 213.527 65.192ZM221.586 65.192C221.021 65.192 220.52 65.0907 220.082 64.888C219.656 64.6747 219.32 64.3867 219.074 64.024C218.829 63.6507 218.706 63.224 218.706 62.744C218.706 62.2853 218.802 61.8747 218.994 61.512C219.197 61.1387 219.506 60.824 219.922 60.568C220.349 60.312 220.882 60.1307 221.522 60.024L224.722 59.496V60.744L221.858 61.224C221.304 61.32 220.898 61.496 220.642 61.752C220.397 62.008 220.274 62.3227 220.274 62.696C220.274 63.048 220.413 63.3413 220.69 63.576C220.978 63.8107 221.336 63.928 221.762 63.928C222.306 63.928 222.776 63.816 223.17 63.592C223.576 63.3573 223.89 63.0427 224.114 62.648C224.349 62.2533 224.466 61.816 224.466 61.336V59.144C224.466 58.6747 224.29 58.296 223.938 58.008C223.597 57.7093 223.144 57.56 222.578 57.56C222.088 57.56 221.65 57.688 221.266 57.944C220.893 58.1893 220.616 58.52 220.434 58.936L219.138 58.264C219.298 57.8693 219.554 57.5173 219.906 57.208C220.258 56.888 220.669 56.6373 221.138 56.456C221.608 56.2747 222.098 56.184 222.61 56.184C223.272 56.184 223.853 56.312 224.354 56.568C224.856 56.8133 225.245 57.16 225.522 57.608C225.81 58.0453 225.954 58.5573 225.954 59.144V65H224.498V63.368L224.77 63.464C224.589 63.8053 224.344 64.104 224.034 64.36C223.725 64.616 223.362 64.8187 222.946 64.968C222.53 65.1173 222.077 65.192 221.586 65.192ZM228.261 65V52.888H229.749V65H228.261ZM232.058 65V52.888H233.546V65H232.058ZM235.855 65V56.376H237.343V65H235.855ZM235.855 55V53.08H237.343V55H235.855ZM239.652 65V56.376H241.108V58.056L240.868 57.912C241.081 57.368 241.423 56.9467 241.892 56.648C242.372 56.3387 242.932 56.184 243.572 56.184C244.191 56.184 244.74 56.3227 245.22 56.6C245.711 56.8773 246.095 57.2613 246.372 57.752C246.66 58.2427 246.804 58.7973 246.804 59.416V65H245.3V59.896C245.3 59.416 245.215 59.0107 245.044 58.68C244.873 58.3493 244.628 58.0933 244.308 57.912C243.999 57.72 243.641 57.624 243.236 57.624C242.831 57.624 242.468 57.72 242.148 57.912C241.839 58.0933 241.593 58.3547 241.412 58.696C241.231 59.0267 241.14 59.4267 241.14 59.896V65H239.652ZM253.045 68.52C252.437 68.52 251.872 68.424 251.349 68.232C250.837 68.04 250.395 67.7733 250.021 67.432C249.659 67.1013 249.381 66.712 249.189 66.264L250.581 65.624C250.731 66.0293 251.013 66.3707 251.429 66.648C251.856 66.936 252.389 67.08 253.029 67.08C253.52 67.08 253.963 66.984 254.357 66.792C254.763 66.6107 255.083 66.3333 255.317 65.96C255.552 65.5973 255.669 65.1547 255.669 64.632V62.696L255.941 62.984C255.643 63.5707 255.211 64.0187 254.645 64.328C254.091 64.6373 253.477 64.792 252.805 64.792C251.995 64.792 251.269 64.6053 250.629 64.232C249.989 63.848 249.488 63.3307 249.125 62.68C248.763 62.0187 248.581 61.288 248.581 60.488C248.581 59.6773 248.763 58.9467 249.125 58.296C249.488 57.6453 249.984 57.1333 250.613 56.76C251.253 56.376 251.979 56.184 252.789 56.184C253.461 56.184 254.069 56.3387 254.613 56.648C255.168 56.9467 255.611 57.3627 255.941 57.896L255.717 58.296V56.376H257.173V64.632C257.173 65.3787 256.997 66.0453 256.645 66.632C256.293 67.2187 255.803 67.6773 255.173 68.008C254.555 68.3493 253.845 68.52 253.045 68.52ZM252.933 63.352C253.445 63.352 253.904 63.224 254.309 62.968C254.725 62.712 255.056 62.3707 255.301 61.944C255.547 61.5067 255.669 61.0213 255.669 60.488C255.669 59.9653 255.547 59.4853 255.301 59.048C255.056 58.6107 254.725 58.264 254.309 58.008C253.904 57.752 253.445 57.624 252.933 57.624C252.411 57.624 251.936 57.752 251.509 58.008C251.083 58.264 250.747 58.6107 250.501 59.048C250.267 59.4747 250.149 59.9547 250.149 60.488C250.149 61.0213 250.267 61.5067 250.501 61.944C250.747 62.3707 251.077 62.712 251.493 62.968C251.92 63.224 252.4 63.352 252.933 63.352Z" fill="#212528"/>
</g>
<path d="M209.5 142C209.5 142.552 209.948 143 210.5 143C211.052 143 211.5 142.552 211.5 142H209.5ZM211.207 79.2929C210.817 78.9024 210.183 78.9024 209.793 79.2929L203.429 85.6569C203.038 86.0474 203.038 86.6805 203.429 87.0711C203.819 87.4616 204.453 87.4616 204.843 87.0711L210.5 81.4142L216.157 87.0711C216.547 87.4616 217.181 87.4616 217.571 87.0711C217.962 86.6805 217.962 86.0474 217.571 85.6569L211.207 79.2929ZM211.5 142V80H209.5V142H211.5Z" fill="#B3B3B3"/>
<g filter="url(#filter3_d_5053_17740)">
<rect x="343" y="146" width="146" height="36" rx="18" fill="white" shape-rendering="crispEdges"/>
<path d="M364.846 171.192C364.089 171.192 363.395 171.053 362.766 170.776C362.137 170.488 361.603 170.099 361.166 169.608C360.729 169.117 360.414 168.568 360.222 167.96L361.582 167.4C361.87 168.168 362.297 168.76 362.862 169.176C363.438 169.581 364.11 169.784 364.878 169.784C365.347 169.784 365.758 169.709 366.11 169.56C366.462 169.411 366.734 169.203 366.926 168.936C367.129 168.659 367.23 168.339 367.23 167.976C367.23 167.475 367.086 167.08 366.798 166.792C366.521 166.493 366.11 166.269 365.566 166.12L363.374 165.448C362.51 165.181 361.849 164.76 361.39 164.184C360.931 163.608 360.702 162.947 360.702 162.2C360.702 161.549 360.857 160.979 361.166 160.488C361.486 159.987 361.923 159.597 362.478 159.32C363.043 159.032 363.683 158.888 364.398 158.888C365.113 158.888 365.758 159.016 366.334 159.272C366.921 159.528 367.417 159.875 367.822 160.312C368.227 160.739 368.526 161.229 368.718 161.784L367.374 162.344C367.118 161.672 366.734 161.165 366.222 160.824C365.71 160.472 365.107 160.296 364.414 160.296C363.987 160.296 363.609 160.371 363.278 160.52C362.958 160.659 362.707 160.867 362.526 161.144C362.355 161.411 362.27 161.731 362.27 162.104C362.27 162.541 362.409 162.931 362.686 163.272C362.963 163.613 363.385 163.875 363.95 164.056L365.95 164.648C366.889 164.936 367.598 165.347 368.078 165.88C368.558 166.413 368.798 167.075 368.798 167.864C368.798 168.515 368.627 169.091 368.286 169.592C367.955 170.093 367.491 170.488 366.894 170.776C366.307 171.053 365.625 171.192 364.846 171.192ZM374.918 171.192C374.075 171.192 373.323 170.995 372.662 170.6C372.011 170.205 371.499 169.667 371.126 168.984C370.752 168.301 370.566 167.533 370.566 166.68C370.566 165.816 370.752 165.048 371.126 164.376C371.499 163.704 372.011 163.171 372.662 162.776C373.323 162.381 374.075 162.184 374.918 162.184C375.483 162.184 376.011 162.285 376.502 162.488C376.992 162.691 377.424 162.963 377.798 163.304C378.171 163.645 378.443 164.045 378.614 164.504L377.286 165.144C377.083 164.696 376.774 164.333 376.358 164.056C375.942 163.768 375.462 163.624 374.918 163.624C374.395 163.624 373.92 163.757 373.494 164.024C373.078 164.291 372.747 164.653 372.502 165.112C372.256 165.571 372.134 166.099 372.134 166.696C372.134 167.272 372.256 167.795 372.502 168.264C372.747 168.723 373.078 169.085 373.494 169.352C373.92 169.619 374.395 169.752 374.918 169.752C375.462 169.752 375.942 169.613 376.358 169.336C376.774 169.048 377.083 168.669 377.286 168.2L378.614 168.872C378.443 169.32 378.171 169.72 377.798 170.072C377.424 170.413 376.992 170.685 376.502 170.888C376.011 171.091 375.483 171.192 374.918 171.192ZM380.558 171V162.376H382.014V163.96L381.854 163.736C382.057 163.245 382.366 162.883 382.782 162.648C383.198 162.403 383.705 162.28 384.302 162.28H384.83V163.688H384.078C383.47 163.688 382.98 163.88 382.606 164.264C382.233 164.637 382.046 165.171 382.046 165.864V171H380.558ZM390.12 171.192C389.288 171.192 388.547 170.995 387.896 170.6C387.245 170.205 386.733 169.667 386.36 168.984C385.987 168.291 385.8 167.517 385.8 166.664C385.8 165.8 385.981 165.032 386.344 164.36C386.717 163.688 387.219 163.16 387.848 162.776C388.488 162.381 389.203 162.184 389.992 162.184C390.632 162.184 391.197 162.301 391.688 162.536C392.189 162.76 392.611 163.069 392.952 163.464C393.304 163.848 393.571 164.291 393.752 164.792C393.944 165.283 394.04 165.795 394.04 166.328C394.04 166.445 394.029 166.579 394.008 166.728C393.997 166.867 393.981 167 393.96 167.128H386.888V165.848H393.096L392.392 166.424C392.488 165.869 392.435 165.373 392.232 164.936C392.029 164.499 391.731 164.152 391.336 163.896C390.941 163.64 390.493 163.512 389.992 163.512C389.491 163.512 389.032 163.64 388.616 163.896C388.2 164.152 387.875 164.52 387.64 165C387.416 165.469 387.325 166.029 387.368 166.68C387.325 167.309 387.421 167.864 387.656 168.344C387.901 168.813 388.243 169.181 388.68 169.448C389.128 169.704 389.613 169.832 390.136 169.832C390.712 169.832 391.197 169.699 391.592 169.432C391.987 169.165 392.307 168.824 392.552 168.408L393.8 169.048C393.629 169.443 393.363 169.805 393 170.136C392.648 170.456 392.227 170.712 391.736 170.904C391.256 171.096 390.717 171.192 390.12 171.192ZM399.948 171.192C399.116 171.192 398.375 170.995 397.724 170.6C397.073 170.205 396.561 169.667 396.188 168.984C395.815 168.291 395.628 167.517 395.628 166.664C395.628 165.8 395.809 165.032 396.172 164.36C396.545 163.688 397.047 163.16 397.676 162.776C398.316 162.381 399.031 162.184 399.82 162.184C400.46 162.184 401.025 162.301 401.516 162.536C402.017 162.76 402.439 163.069 402.78 163.464C403.132 163.848 403.399 164.291 403.58 164.792C403.772 165.283 403.868 165.795 403.868 166.328C403.868 166.445 403.857 166.579 403.836 166.728C403.825 166.867 403.809 167 403.788 167.128H396.716V165.848H402.924L402.22 166.424C402.316 165.869 402.263 165.373 402.06 164.936C401.857 164.499 401.559 164.152 401.164 163.896C400.769 163.64 400.321 163.512 399.82 163.512C399.319 163.512 398.86 163.64 398.444 163.896C398.028 164.152 397.703 164.52 397.468 165C397.244 165.469 397.153 166.029 397.196 166.68C397.153 167.309 397.249 167.864 397.484 168.344C397.729 168.813 398.071 169.181 398.508 169.448C398.956 169.704 399.441 169.832 399.964 169.832C400.54 169.832 401.025 169.699 401.42 169.432C401.815 169.165 402.135 168.824 402.38 168.408L403.628 169.048C403.457 169.443 403.191 169.805 402.828 170.136C402.476 170.456 402.055 170.712 401.564 170.904C401.084 171.096 400.545 171.192 399.948 171.192ZM405.808 171V162.376H407.264V164.056L407.024 163.912C407.238 163.368 407.579 162.947 408.048 162.648C408.528 162.339 409.088 162.184 409.728 162.184C410.347 162.184 410.896 162.323 411.376 162.6C411.867 162.877 412.251 163.261 412.528 163.752C412.816 164.243 412.96 164.797 412.96 165.416V171H411.456V165.896C411.456 165.416 411.371 165.011 411.2 164.68C411.03 164.349 410.784 164.093 410.464 163.912C410.155 163.72 409.798 163.624 409.392 163.624C408.987 163.624 408.624 163.72 408.304 163.912C407.995 164.093 407.75 164.355 407.568 164.696C407.387 165.027 407.296 165.427 407.296 165.896V171H405.808ZM420.943 171.192C420.079 171.192 419.327 170.979 418.687 170.552C418.047 170.125 417.594 169.549 417.327 168.824L418.511 168.248C418.756 168.76 419.092 169.165 419.519 169.464C419.946 169.763 420.42 169.912 420.943 169.912C421.412 169.912 421.802 169.8 422.111 169.576C422.42 169.352 422.575 169.059 422.575 168.696C422.575 168.44 422.5 168.237 422.351 168.088C422.212 167.928 422.042 167.805 421.839 167.72C421.636 167.624 421.45 167.555 421.279 167.512L419.983 167.144C419.204 166.92 418.634 166.6 418.271 166.184C417.919 165.768 417.743 165.283 417.743 164.728C417.743 164.216 417.871 163.773 418.127 163.4C418.394 163.016 418.751 162.717 419.199 162.504C419.658 162.291 420.17 162.184 420.735 162.184C421.492 162.184 422.17 162.376 422.767 162.76C423.375 163.144 423.807 163.683 424.063 164.376L422.847 164.936C422.655 164.488 422.367 164.136 421.983 163.88C421.599 163.613 421.167 163.48 420.687 163.48C420.25 163.48 419.903 163.592 419.647 163.816C419.391 164.029 419.263 164.301 419.263 164.632C419.263 164.877 419.327 165.08 419.455 165.24C419.583 165.389 419.738 165.507 419.919 165.592C420.1 165.667 420.276 165.731 420.447 165.784L421.855 166.2C422.559 166.403 423.103 166.717 423.487 167.144C423.882 167.571 424.079 168.083 424.079 168.68C424.079 169.16 423.946 169.592 423.679 169.976C423.412 170.36 423.044 170.659 422.575 170.872C422.106 171.085 421.562 171.192 420.943 171.192ZM426.027 171V158.888H427.515V164.056L427.243 163.912C427.456 163.368 427.798 162.947 428.267 162.648C428.747 162.339 429.307 162.184 429.947 162.184C430.566 162.184 431.115 162.323 431.595 162.6C432.086 162.877 432.47 163.261 432.747 163.752C433.035 164.243 433.179 164.797 433.179 165.416V171H431.675V165.896C431.675 165.416 431.584 165.011 431.403 164.68C431.232 164.349 430.992 164.093 430.683 163.912C430.374 163.72 430.016 163.624 429.611 163.624C429.216 163.624 428.859 163.72 428.539 163.912C428.219 164.093 427.968 164.355 427.787 164.696C427.606 165.027 427.515 165.427 427.515 165.896V171H426.027ZM437.836 171.192C437.271 171.192 436.77 171.091 436.332 170.888C435.906 170.675 435.57 170.387 435.324 170.024C435.079 169.651 434.956 169.224 434.956 168.744C434.956 168.285 435.052 167.875 435.244 167.512C435.447 167.139 435.756 166.824 436.172 166.568C436.599 166.312 437.132 166.131 437.772 166.024L440.972 165.496V166.744L438.108 167.224C437.554 167.32 437.148 167.496 436.892 167.752C436.647 168.008 436.524 168.323 436.524 168.696C436.524 169.048 436.663 169.341 436.94 169.576C437.228 169.811 437.586 169.928 438.012 169.928C438.556 169.928 439.026 169.816 439.42 169.592C439.826 169.357 440.14 169.043 440.364 168.648C440.599 168.253 440.716 167.816 440.716 167.336V165.144C440.716 164.675 440.54 164.296 440.188 164.008C439.847 163.709 439.394 163.56 438.828 163.56C438.338 163.56 437.9 163.688 437.516 163.944C437.143 164.189 436.866 164.52 436.684 164.936L435.388 164.264C435.548 163.869 435.804 163.517 436.156 163.208C436.508 162.888 436.919 162.637 437.388 162.456C437.858 162.275 438.348 162.184 438.86 162.184C439.522 162.184 440.103 162.312 440.604 162.568C441.106 162.813 441.495 163.16 441.772 163.608C442.06 164.045 442.204 164.557 442.204 165.144V171H440.748V169.368L441.02 169.464C440.839 169.805 440.594 170.104 440.284 170.36C439.975 170.616 439.612 170.819 439.196 170.968C438.78 171.117 438.327 171.192 437.836 171.192ZM444.511 171V162.376H445.967V163.96L445.807 163.736C446.01 163.245 446.319 162.883 446.735 162.648C447.151 162.403 447.658 162.28 448.255 162.28H448.783V163.688H448.031C447.423 163.688 446.933 163.88 446.559 164.264C446.186 164.637 445.999 165.171 445.999 165.864V171H444.511ZM450.105 171V162.376H451.593V171H450.105ZM450.105 161V159.08H451.593V161H450.105ZM453.902 171V162.376H455.358V164.056L455.118 163.912C455.331 163.368 455.673 162.947 456.142 162.648C456.622 162.339 457.182 162.184 457.822 162.184C458.441 162.184 458.99 162.323 459.47 162.6C459.961 162.877 460.345 163.261 460.622 163.752C460.91 164.243 461.054 164.797 461.054 165.416V171H459.55V165.896C459.55 165.416 459.465 165.011 459.294 164.68C459.123 164.349 458.878 164.093 458.558 163.912C458.249 163.72 457.891 163.624 457.486 163.624C457.081 163.624 456.718 163.72 456.398 163.912C456.089 164.093 455.843 164.355 455.662 164.696C455.481 165.027 455.39 165.427 455.39 165.896V171H453.902ZM467.295 174.52C466.687 174.52 466.122 174.424 465.599 174.232C465.087 174.04 464.645 173.773 464.271 173.432C463.909 173.101 463.631 172.712 463.439 172.264L464.831 171.624C464.981 172.029 465.263 172.371 465.679 172.648C466.106 172.936 466.639 173.08 467.279 173.08C467.77 173.08 468.213 172.984 468.607 172.792C469.013 172.611 469.333 172.333 469.567 171.96C469.802 171.597 469.919 171.155 469.919 170.632V168.696L470.191 168.984C469.893 169.571 469.461 170.019 468.895 170.328C468.341 170.637 467.727 170.792 467.055 170.792C466.245 170.792 465.519 170.605 464.879 170.232C464.239 169.848 463.738 169.331 463.375 168.68C463.013 168.019 462.831 167.288 462.831 166.488C462.831 165.677 463.013 164.947 463.375 164.296C463.738 163.645 464.234 163.133 464.863 162.76C465.503 162.376 466.229 162.184 467.039 162.184C467.711 162.184 468.319 162.339 468.863 162.648C469.418 162.947 469.861 163.363 470.191 163.896L469.967 164.296V162.376H471.423V170.632C471.423 171.379 471.247 172.045 470.895 172.632C470.543 173.219 470.053 173.677 469.423 174.008C468.805 174.349 468.095 174.52 467.295 174.52ZM467.183 169.352C467.695 169.352 468.154 169.224 468.559 168.968C468.975 168.712 469.306 168.371 469.551 167.944C469.797 167.507 469.919 167.021 469.919 166.488C469.919 165.965 469.797 165.485 469.551 165.048C469.306 164.611 468.975 164.264 468.559 164.008C468.154 163.752 467.695 163.624 467.183 163.624C466.661 163.624 466.186 163.752 465.759 164.008C465.333 164.264 464.997 164.611 464.751 165.048C464.517 165.475 464.399 165.955 464.399 166.488C464.399 167.021 464.517 167.507 464.751 167.944C464.997 168.371 465.327 168.712 465.743 168.968C466.17 169.224 466.65 169.352 467.183 169.352Z" fill="#212528"/>
</g>
<path d="M421.222 257V241.444C421.222 239 419.222 237 416.778 237H363.444C361 237 359 239 359 241.444V285.889C359 288.333 361 290.333 363.444 290.333H416.778C419.222 290.333 421.222 288.333 421.222 285.889V270.333L439 288.111V239.222L421.222 257ZM412.333 281.444H367.889V245.889H412.333V281.444ZM385.667 277H394.556V268.111H403.444V259.222H394.556V250.333H385.667V259.222H376.778V268.111H385.667V277Z" fill="#DBEAF6"/>
<path d="M312.5 163C311.948 163 311.5 163.448 311.5 164C311.5 164.552 311.948 165 312.5 165V163ZM339.707 164.707C340.098 164.317 340.098 163.683 339.707 163.293L333.343 156.929C332.953 156.538 332.319 156.538 331.929 156.929C331.538 157.319 331.538 157.953 331.929 158.343L337.586 164L331.929 169.657C331.538 170.047 331.538 170.681 331.929 171.071C332.319 171.462 332.953 171.462 333.343 171.071L339.707 164.707ZM312.5 165H339V163H312.5V165Z" fill="#B3B3B3"/>
<defs>
<filter id="filter0_d_5053_17740" x="8" y="132" width="317" height="72" filterUnits="userSpaceOnUse" color-interpolation-filters="sRGB">
<feFlood flood-opacity="0" result="BackgroundImageFix"/>
<feColorMatrix in="SourceAlpha" type="matrix" values="0 0 0 0 0 0 0 0 0 0 0 0 0 0 0 0 0 0 127 0" result="hardAlpha"/>
<feOffset dy="4"/>
<feGaussianBlur stdDeviation="2"/>
<feComposite in2="hardAlpha" operator="out"/>
<feColorMatrix type="matrix" values="0 0 0 0 0 0 0 0 0 0 0 0 0 0 0 0 0 0 0.25 0"/>
<feBlend mode="normal" in2="BackgroundImageFix" result="effect1_dropShadow_5053_17740"/>
<feBlend mode="normal" in="SourceGraphic" in2="effect1_dropShadow_5053_17740" result="shape"/>
</filter>
<filter id="filter1_d_5053_17740" x="181" y="264" width="139" height="44" filterUnits="userSpaceOnUse" color-interpolation-filters="sRGB">
<feFlood flood-opacity="0" result="BackgroundImageFix"/>
<feColorMatrix in="SourceAlpha" type="matrix" values="0 0 0 0 0 0 0 0 0 0 0 0 0 0 0 0 0 0 127 0" result="hardAlpha"/>
<feOffset dy="4"/>
<feGaussianBlur stdDeviation="2"/>
<feComposite in2="hardAlpha" operator="out"/>
<feColorMatrix type="matrix" values="0 0 0 0 0 0 0 0 0 0 0 0 0 0 0 0 0 0 0.25 0"/>
<feBlend mode="normal" in2="BackgroundImageFix" result="effect1_dropShadow_5053_17740"/>
<feBlend mode="normal" in="SourceGraphic" in2="effect1_dropShadow_5053_17740" result="shape"/>
</filter>
<filter id="filter2_d_5053_17740" x="142" y="40" width="137" height="44" filterUnits="userSpaceOnUse" color-interpolation-filters="sRGB">
<feFlood flood-opacity="0" result="BackgroundImageFix"/>
<feColorMatrix in="SourceAlpha" type="matrix" values="0 0 0 0 0 0 0 0 0 0 0 0 0 0 0 0 0 0 127 0" result="hardAlpha"/>
<feOffset dy="4"/>
<feGaussianBlur stdDeviation="2"/>
<feComposite in2="hardAlpha" operator="out"/>
<feColorMatrix type="matrix" values="0 0 0 0 0 0 0 0 0 0 0 0 0 0 0 0 0 0 0.25 0"/>
<feBlend mode="normal" in2="BackgroundImageFix" result="effect1_dropShadow_5053_17740"/>
<feBlend mode="normal" in="SourceGraphic" in2="effect1_dropShadow_5053_17740" result="shape"/>
</filter>
<filter id="filter3_d_5053_17740" x="339" y="146" width="154" height="44" filterUnits="userSpaceOnUse" color-interpolation-filters="sRGB">
<feFlood flood-opacity="0" result="BackgroundImageFix"/>
<feColorMatrix in="SourceAlpha" type="matrix" values="0 0 0 0 0 0 0 0 0 0 0 0 0 0 0 0 0 0 127 0" result="hardAlpha"/>
<feOffset dy="4"/>
<feGaussianBlur stdDeviation="2"/>
<feComposite in2="hardAlpha" operator="out"/>
<feColorMatrix type="matrix" values="0 0 0 0 0 0 0 0 0 0 0 0 0 0 0 0 0 0 0.25 0"/>
<feBlend mode="normal" in2="BackgroundImageFix" result="effect1_dropShadow_5053_17740"/>
<feBlend mode="normal" in="SourceGraphic" in2="effect1_dropShadow_5053_17740" result="shape"/>
</filter>
<clipPath id="clip0_5053_17740">
<rect width="20" height="20" fill="white" transform="translate(280.5 154)"/>
</clipPath>
</defs>
</svg>
