<svg width="504" height="350" viewBox="0 0 504 350" fill="none" xmlns="http://www.w3.org/2000/svg">
<path d="M99.5 71V39H71.5V51H47.5V39H19.5V71H47.5V59H55.5V99H71.5V111H99.5V79H71.5V91H63.5V59H71.5V71H99.5ZM39.5 63H27.5V47H39.5V63ZM79.5 87H91.5V103H79.5V87ZM79.5 47H91.5V63H79.5V47Z" fill="#DBEAF6"/>
<path fill-rule="evenodd" clip-rule="evenodd" d="M234.181 81.5896C263.516 84.0295 292.341 93.9837 311.896 115.124C332.983 137.92 349.108 168.588 341.611 197.725C334.462 225.509 301.052 235.482 276.655 252.082C252.919 268.232 232.832 292.387 203.41 291.762C171.283 291.079 138.218 275.245 121.802 248.79C106.348 223.885 118.399 193.892 125.417 166.073C131.479 142.046 138.676 117.968 158.737 102.385C179.733 86.076 206.912 79.3215 234.181 81.5896Z" fill="#F2BE55" fill-opacity="0.17"/>
<g filter="url(#filter0_d_5053_17783)">
<rect x="310" y="251.75" width="169.722" height="46.1772" rx="4.61772" fill="#1E75BA" shape-rendering="crispEdges"/>
<path d="M340.304 275.704H335.109V280.899H333.378V275.704H328.183V273.973H333.378V268.778H335.109V273.973H340.304V275.704Z" fill="white"/>
<path d="M351.535 279.839H349.652L353.882 268.084H355.931L360.161 279.839H358.279L354.956 270.219H354.864L351.535 279.839ZM351.851 275.236H357.957V276.728H351.851V275.236ZM364.879 280.011C364.167 280.011 363.532 279.829 362.974 279.466C362.419 279.098 361.983 278.576 361.665 277.899C361.351 277.218 361.194 276.401 361.194 275.448C361.194 274.495 361.353 273.68 361.671 273.003C361.992 272.326 362.432 271.807 362.991 271.448C363.549 271.088 364.183 270.908 364.89 270.908C365.438 270.908 365.878 271 366.211 271.184C366.547 271.364 366.807 271.574 366.991 271.815C367.179 272.056 367.324 272.268 367.427 272.452H367.531V268.084H369.247V279.839H367.571V278.467H367.427C367.324 278.654 367.175 278.869 366.98 279.11C366.788 279.351 366.524 279.561 366.188 279.741C365.851 279.921 365.415 280.011 364.879 280.011ZM365.258 278.547C365.751 278.547 366.168 278.417 366.509 278.157C366.853 277.893 367.114 277.528 367.29 277.061C367.469 276.594 367.559 276.051 367.559 275.431C367.559 274.819 367.471 274.283 367.295 273.824C367.119 273.365 366.861 273.007 366.52 272.751C366.18 272.494 365.759 272.366 365.258 272.366C364.741 272.366 364.311 272.5 363.966 272.768C363.622 273.036 363.362 273.401 363.186 273.864C363.014 274.327 362.928 274.849 362.928 275.431C362.928 276.02 363.016 276.55 363.192 277.021C363.368 277.491 363.628 277.864 363.972 278.14C364.32 278.411 364.749 278.547 365.258 278.547ZM374.996 280.011C374.284 280.011 373.649 279.829 373.091 279.466C372.536 279.098 372.1 278.576 371.782 277.899C371.468 277.218 371.311 276.401 371.311 275.448C371.311 274.495 371.47 273.68 371.788 273.003C372.109 272.326 372.549 271.807 373.108 271.448C373.666 271.088 374.3 270.908 375.008 270.908C375.555 270.908 375.995 271 376.328 271.184C376.664 271.364 376.924 271.574 377.108 271.815C377.296 272.056 377.441 272.268 377.544 272.452H377.648V268.084H379.364V279.839H377.688V278.467H377.544C377.441 278.654 377.292 278.869 377.097 279.11C376.905 279.351 376.641 279.561 376.305 279.741C375.968 279.921 375.532 280.011 374.996 280.011ZM375.375 278.547C375.868 278.547 376.285 278.417 376.626 278.157C376.97 277.893 377.231 277.528 377.407 277.061C377.586 276.594 377.676 276.051 377.676 275.431C377.676 274.819 377.588 274.283 377.412 273.824C377.236 273.365 376.978 273.007 376.638 272.751C376.297 272.494 375.876 272.366 375.375 272.366C374.858 272.366 374.428 272.5 374.083 272.768C373.739 273.036 373.479 273.401 373.303 273.864C373.131 274.327 373.045 274.849 373.045 275.431C373.045 276.02 373.133 276.55 373.309 277.021C373.485 277.491 373.745 277.864 374.089 278.14C374.437 278.411 374.866 278.547 375.375 278.547ZM395.715 268.084V279.839H394.085L388.11 271.218H388.001V279.839H386.228V268.084H387.869L393.85 276.716H393.959V268.084H395.715ZM401.964 280.017C401.095 280.017 400.347 279.831 399.72 279.46C399.096 279.085 398.614 278.559 398.273 277.882C397.937 277.2 397.768 276.403 397.768 275.488C397.768 274.585 397.937 273.789 398.273 273.101C398.614 272.412 399.088 271.874 399.697 271.488C400.309 271.101 401.025 270.908 401.843 270.908C402.341 270.908 402.823 270.99 403.29 271.155C403.756 271.32 404.175 271.578 404.547 271.93C404.918 272.282 405.21 272.739 405.425 273.301C405.639 273.86 405.746 274.539 405.746 275.339V275.947H398.738V274.662H404.064C404.064 274.21 403.973 273.81 403.789 273.462C403.605 273.11 403.347 272.833 403.014 272.63C402.685 272.427 402.299 272.326 401.855 272.326C401.373 272.326 400.952 272.444 400.592 272.682C400.236 272.915 399.961 273.221 399.766 273.6C399.574 273.975 399.479 274.382 399.479 274.822V275.827C399.479 276.416 399.582 276.917 399.789 277.331C399.999 277.744 400.292 278.059 400.667 278.278C401.042 278.492 401.48 278.599 401.981 278.599C402.306 278.599 402.603 278.553 402.871 278.461C403.139 278.366 403.37 278.224 403.565 278.036C403.76 277.849 403.91 277.617 404.013 277.342L405.637 277.635C405.507 278.113 405.274 278.532 404.937 278.892C404.604 279.247 404.185 279.525 403.68 279.724C403.179 279.919 402.607 280.017 401.964 280.017ZM409.546 279.839L406.951 271.023H408.725L410.452 277.497H410.538L412.272 271.023H414.045L415.767 277.468H415.853L417.569 271.023H419.343L416.754 279.839H415.004L413.213 273.474H413.081L411.29 279.839H409.546ZM425.386 279.839V268.084H432.675V269.611H427.16V273.192H432.153V274.713H427.16V279.839H425.386ZM436.434 268.084V279.839H434.718V268.084H436.434ZM442.456 280.017C441.63 280.017 440.909 279.827 440.293 279.448C439.677 279.07 439.198 278.54 438.858 277.859C438.517 277.177 438.347 276.382 438.347 275.471C438.347 274.557 438.517 273.757 438.858 273.072C439.198 272.387 439.677 271.855 440.293 271.476C440.909 271.098 441.63 270.908 442.456 270.908C443.283 270.908 444.004 271.098 444.62 271.476C445.236 271.855 445.715 272.387 446.055 273.072C446.396 273.757 446.566 274.557 446.566 275.471C446.566 276.382 446.396 277.177 446.055 277.859C445.715 278.54 445.236 279.07 444.62 279.448C444.004 279.827 443.283 280.017 442.456 280.017ZM442.462 278.576C442.998 278.576 443.442 278.434 443.794 278.151C444.146 277.868 444.406 277.491 444.574 277.021C444.746 276.55 444.833 276.032 444.833 275.465C444.833 274.903 444.746 274.386 444.574 273.916C444.406 273.441 444.146 273.06 443.794 272.773C443.442 272.487 442.998 272.343 442.462 272.343C441.923 272.343 441.475 272.487 441.119 272.773C440.767 273.06 440.505 273.441 440.333 273.916C440.165 274.386 440.08 274.903 440.08 275.465C440.08 276.032 440.165 276.55 440.333 277.021C440.505 277.491 440.767 277.868 441.119 278.151C441.475 278.434 441.923 278.576 442.462 278.576ZM450.124 279.839L447.53 271.023H449.304L451.031 277.497H451.117L452.85 271.023H454.624L456.346 277.468H456.432L458.148 271.023H459.921L457.333 279.839H455.582L453.792 273.474H453.66L451.869 279.839H450.124Z" fill="white"/>
</g>
<g filter="url(#filter1_d_5053_17783)">
<rect x="6" y="134.75" width="140" height="79" rx="39.5" fill="white" shape-rendering="crispEdges"/>
<path d="M48.364 172.75L43.36 155.47H45.592L49.432 169.138L53.26 155.482L55.504 155.47L59.344 169.138L63.172 155.47H65.416L60.412 172.75H58.276L54.388 159.202L50.5 172.75H48.364ZM76.6893 172.75V166.258C76.6893 165.642 76.6333 165.05 76.5213 164.482C76.4173 163.914 76.2293 163.406 75.9573 162.958C75.6933 162.502 75.3333 162.142 74.8773 161.878C74.4293 161.614 73.8613 161.482 73.1733 161.482C72.6373 161.482 72.1493 161.574 71.7093 161.758C71.2773 161.934 70.9053 162.206 70.5933 162.574C70.2813 162.942 70.0373 163.406 69.8613 163.966C69.6933 164.518 69.6093 165.17 69.6093 165.922L68.2053 165.49C68.2053 164.234 68.4293 163.158 68.8773 162.262C69.3333 161.358 69.9693 160.666 70.7853 160.186C71.6093 159.698 72.5773 159.454 73.6893 159.454C74.5293 159.454 75.2453 159.586 75.8373 159.85C76.4293 160.114 76.9213 160.466 77.3133 160.906C77.7053 161.338 78.0133 161.826 78.2373 162.37C78.4613 162.906 78.6173 163.454 78.7053 164.014C78.8013 164.566 78.8493 165.09 78.8493 165.586V172.75H76.6893ZM67.4493 172.75V155.47H69.3693V165.01H69.6093V172.75H67.4493ZM87.5851 173.11C86.3131 173.11 85.2011 172.83 84.2491 172.27C83.3051 171.702 82.5691 170.914 82.0411 169.906C81.5131 168.89 81.2491 167.706 81.2491 166.354C81.2491 164.938 81.5091 163.714 82.0291 162.682C82.5491 161.642 83.2731 160.842 84.2011 160.282C85.1371 159.714 86.2331 159.43 87.4891 159.43C88.7931 159.43 89.9011 159.73 90.8131 160.33C91.7331 160.93 92.4211 161.786 92.8771 162.898C93.3411 164.01 93.5411 165.334 93.4771 166.87H91.3171V166.102C91.2931 164.51 90.9691 163.322 90.3451 162.538C89.7211 161.746 88.7931 161.35 87.5611 161.35C86.2411 161.35 85.2371 161.774 84.5491 162.622C83.8611 163.47 83.5171 164.686 83.5171 166.27C83.5171 167.798 83.8611 168.982 84.5491 169.822C85.2371 170.662 86.2171 171.082 87.4891 171.082C88.3451 171.082 89.0891 170.886 89.7211 170.494C90.3531 170.102 90.8491 169.538 91.2091 168.802L93.2611 169.51C92.7571 170.654 91.9971 171.542 90.9811 172.174C89.9731 172.798 88.8411 173.11 87.5851 173.11ZM82.7971 166.87V165.154H92.3731V166.87H82.7971ZM105.025 172.75V166.258C105.025 165.642 104.969 165.05 104.857 164.482C104.753 163.914 104.565 163.406 104.293 162.958C104.029 162.502 103.669 162.142 103.213 161.878C102.765 161.614 102.197 161.482 101.509 161.482C100.973 161.482 100.485 161.574 100.045 161.758C99.6132 161.934 99.2412 162.206 98.9292 162.574C98.6172 162.942 98.3732 163.406 98.1972 163.966C98.0292 164.518 97.9452 165.17 97.9452 165.922L96.5412 165.49C96.5412 164.234 96.7652 163.158 97.2132 162.262C97.6692 161.358 98.3052 160.666 99.1212 160.186C99.9452 159.698 100.913 159.454 102.025 159.454C102.865 159.454 103.581 159.586 104.173 159.85C104.765 160.114 105.257 160.466 105.649 160.906C106.041 161.338 106.349 161.826 106.573 162.37C106.797 162.906 106.953 163.454 107.041 164.014C107.137 164.566 107.185 165.09 107.185 165.586V172.75H105.025ZM95.7852 172.75V159.79H97.7052V163.258H97.9452V172.75H95.7852Z" fill="#212528"/>
<path d="M47.724 199.678C47.1 198.958 46.564 198.15 46.116 197.254C45.668 196.358 45.324 195.417 45.084 194.43C44.844 193.443 44.7293 192.457 44.74 191.47C44.7293 190.478 44.844 189.489 45.084 188.502C45.324 187.515 45.668 186.577 46.116 185.686C46.564 184.79 47.1 183.982 47.724 183.262L48.78 184.062C48.1507 184.809 47.6333 185.585 47.228 186.39C46.828 187.195 46.532 188.025 46.34 188.878C46.148 189.726 46.0493 190.59 46.044 191.47C46.0493 192.339 46.148 193.203 46.34 194.062C46.5373 194.915 46.836 195.747 47.236 196.558C47.6413 197.363 48.156 198.134 48.78 198.87L47.724 199.678ZM53.5411 196.75V186.582H49.6131V185.23H58.8931V186.582H54.9651V196.75H53.5411ZM59.37 196.75V188.11H60.642V190.198L60.434 189.926C60.5353 189.659 60.666 189.414 60.826 189.19C60.9913 188.966 61.1753 188.782 61.378 188.638C61.602 188.457 61.8553 188.318 62.138 188.222C62.4207 188.126 62.7087 188.07 63.002 188.054C63.2953 188.033 63.57 188.051 63.826 188.11V189.446C63.5273 189.366 63.1993 189.345 62.842 189.382C62.4847 189.419 62.154 189.55 61.85 189.774C61.5727 189.971 61.3567 190.211 61.202 190.494C61.0527 190.777 60.9487 191.083 60.89 191.414C60.8313 191.739 60.802 192.073 60.802 192.414V196.75H59.37ZM65.4988 186.582V185.11H66.9228V186.582H65.4988ZM65.4988 196.75V188.11H66.9228V196.75H65.4988ZM72.8191 200.83C72.3658 200.83 71.9231 200.761 71.4911 200.622C71.0591 200.483 70.6618 200.273 70.2991 199.99C69.9418 199.713 69.6431 199.361 69.4031 198.934L70.7071 198.246C70.9205 198.667 71.2218 198.974 71.6111 199.166C72.0058 199.358 72.4111 199.454 72.8271 199.454C73.3765 199.454 73.8325 199.353 74.1951 199.15C74.5578 198.953 74.8245 198.657 74.9951 198.262C75.1711 197.867 75.2565 197.377 75.2511 196.79V194.43H75.4191V188.11H76.6831V196.806C76.6831 197.041 76.6751 197.267 76.6591 197.486C76.6485 197.705 76.6218 197.921 76.5791 198.134C76.4671 198.747 76.2458 199.251 75.9151 199.646C75.5845 200.046 75.1578 200.342 74.6351 200.534C74.1125 200.731 73.5071 200.83 72.8191 200.83ZM72.7151 196.99C71.9098 196.99 71.2191 196.79 70.6431 196.39C70.0671 195.985 69.6218 195.438 69.3071 194.75C68.9978 194.062 68.8431 193.286 68.8431 192.422C68.8431 191.558 68.9978 190.782 69.3071 190.094C69.6218 189.406 70.0671 188.865 70.6431 188.47C71.2191 188.07 71.9071 187.87 72.7071 187.87C73.5231 187.87 74.2085 188.067 74.7631 188.462C75.3178 188.857 75.7365 189.398 76.0191 190.086C76.3071 190.774 76.4511 191.553 76.4511 192.422C76.4511 193.281 76.3071 194.057 76.0191 194.75C75.7365 195.438 75.3178 195.985 74.7631 196.39C74.2085 196.79 73.5258 196.99 72.7151 196.99ZM72.8911 195.686C73.4725 195.686 73.9498 195.547 74.3231 195.27C74.6965 194.987 74.9711 194.601 75.1471 194.11C75.3285 193.614 75.4191 193.051 75.4191 192.422C75.4191 191.782 75.3285 191.219 75.1471 190.734C74.9711 190.243 74.6991 189.862 74.3311 189.59C73.9631 189.313 73.4965 189.174 72.9311 189.174C72.3445 189.174 71.8591 189.318 71.4751 189.606C71.0965 189.894 70.8138 190.283 70.6271 190.774C70.4458 191.265 70.3551 191.814 70.3551 192.422C70.3551 193.035 70.4485 193.59 70.6351 194.086C70.8218 194.577 71.1018 194.966 71.4751 195.254C71.8538 195.542 72.3258 195.686 72.8911 195.686ZM82.4129 200.83C81.9595 200.83 81.5169 200.761 81.0849 200.622C80.6529 200.483 80.2555 200.273 79.8929 199.99C79.5355 199.713 79.2369 199.361 78.9969 198.934L80.3009 198.246C80.5142 198.667 80.8155 198.974 81.2049 199.166C81.5995 199.358 82.0049 199.454 82.4209 199.454C82.9702 199.454 83.4262 199.353 83.7889 199.15C84.1515 198.953 84.4182 198.657 84.5889 198.262C84.7649 197.867 84.8502 197.377 84.8449 196.79V194.43H85.0129V188.11H86.2769V196.806C86.2769 197.041 86.2689 197.267 86.2529 197.486C86.2422 197.705 86.2155 197.921 86.1729 198.134C86.0609 198.747 85.8395 199.251 85.5089 199.646C85.1782 200.046 84.7515 200.342 84.2289 200.534C83.7062 200.731 83.1009 200.83 82.4129 200.83ZM82.3089 196.99C81.5035 196.99 80.8129 196.79 80.2369 196.39C79.6609 195.985 79.2155 195.438 78.9009 194.75C78.5915 194.062 78.4369 193.286 78.4369 192.422C78.4369 191.558 78.5915 190.782 78.9009 190.094C79.2155 189.406 79.6609 188.865 80.2369 188.47C80.8129 188.07 81.5009 187.87 82.3009 187.87C83.1169 187.87 83.8022 188.067 84.3569 188.462C84.9115 188.857 85.3302 189.398 85.6129 190.086C85.9009 190.774 86.0449 191.553 86.0449 192.422C86.0449 193.281 85.9009 194.057 85.6129 194.75C85.3302 195.438 84.9115 195.985 84.3569 196.39C83.8022 196.79 83.1195 196.99 82.3089 196.99ZM82.4849 195.686C83.0662 195.686 83.5435 195.547 83.9169 195.27C84.2902 194.987 84.5649 194.601 84.7409 194.11C84.9222 193.614 85.0129 193.051 85.0129 192.422C85.0129 191.782 84.9222 191.219 84.7409 190.734C84.5649 190.243 84.2929 189.862 83.9249 189.59C83.5569 189.313 83.0902 189.174 82.5249 189.174C81.9382 189.174 81.4529 189.318 81.0689 189.606C80.6902 189.894 80.4075 190.283 80.2209 190.774C80.0395 191.265 79.9489 191.814 79.9489 192.422C79.9489 193.035 80.0422 193.59 80.2289 194.086C80.4155 194.577 80.6955 194.966 81.0689 195.254C81.4475 195.542 81.9195 195.686 82.4849 195.686ZM92.2546 196.99C91.4066 196.99 90.6653 196.803 90.0306 196.43C89.4013 196.051 88.9106 195.526 88.5586 194.854C88.2066 194.177 88.0306 193.387 88.0306 192.486C88.0306 191.542 88.204 190.726 88.5506 190.038C88.8973 189.345 89.38 188.811 89.9986 188.438C90.6226 188.059 91.3533 187.87 92.1906 187.87C93.06 187.87 93.7986 188.07 94.4066 188.47C95.02 188.87 95.4786 189.441 95.7826 190.182C96.092 190.923 96.2253 191.806 96.1826 192.83H94.7426V192.318C94.7266 191.257 94.5106 190.465 94.0946 189.942C93.6786 189.414 93.06 189.15 92.2386 189.15C91.3586 189.15 90.6893 189.433 90.2306 189.998C89.772 190.563 89.5426 191.374 89.5426 192.43C89.5426 193.449 89.772 194.238 90.2306 194.798C90.6893 195.358 91.3426 195.638 92.1906 195.638C92.7613 195.638 93.2573 195.507 93.6786 195.246C94.1 194.985 94.4306 194.609 94.6706 194.118L96.0386 194.59C95.7026 195.353 95.196 195.945 94.5186 196.366C93.8466 196.782 93.092 196.99 92.2546 196.99ZM89.0626 192.83V191.686H95.4466V192.83H89.0626ZM97.9638 196.75V188.11H99.2358V190.198L99.0278 189.926C99.1291 189.659 99.2598 189.414 99.4198 189.19C99.5851 188.966 99.7691 188.782 99.9718 188.638C100.196 188.457 100.449 188.318 100.732 188.222C101.014 188.126 101.302 188.07 101.596 188.054C101.889 188.033 102.164 188.051 102.42 188.11V189.446C102.121 189.366 101.793 189.345 101.436 189.382C101.078 189.419 100.748 189.55 100.444 189.774C100.166 189.971 99.9504 190.211 99.7958 190.494C99.6464 190.777 99.5424 191.083 99.4838 191.414C99.4251 191.739 99.3958 192.073 99.3958 192.414V196.75H97.9638ZM104.236 199.678L103.18 198.87C103.804 198.134 104.316 197.363 104.716 196.558C105.121 195.747 105.423 194.915 105.62 194.062C105.817 193.203 105.916 192.339 105.916 191.47C105.916 190.59 105.817 189.726 105.62 188.878C105.428 188.025 105.129 187.195 104.724 186.39C104.324 185.585 103.809 184.809 103.18 184.062L104.236 183.262C104.86 183.982 105.396 184.79 105.844 185.686C106.297 186.577 106.641 187.515 106.876 188.502C107.116 189.489 107.231 190.478 107.22 191.47C107.231 192.457 107.116 193.443 106.876 194.43C106.641 195.417 106.297 196.358 105.844 197.254C105.396 198.15 104.86 198.958 104.236 199.678Z" fill="#8F9396"/>
</g>
<g filter="url(#filter2_d_5053_17783)">
<rect x="182" y="134.75" width="140" height="79" rx="39.5" fill="white" shape-rendering="crispEdges"/>
<path d="M246.42 172.75V155.47H248.556V172.75H246.42ZM253.393 172.75V159.082C253.393 158.746 253.409 158.406 253.441 158.062C253.473 157.71 253.545 157.37 253.657 157.042C253.769 156.706 253.953 156.398 254.209 156.118C254.505 155.79 254.829 155.558 255.181 155.422C255.533 155.278 255.889 155.19 256.249 155.158C256.617 155.126 256.965 155.11 257.293 155.11H258.937V156.886H257.413C256.781 156.886 256.309 157.042 255.997 157.354C255.685 157.658 255.529 158.122 255.529 158.746V172.75H253.393ZM251.197 161.554V159.79H258.937V161.554H251.197Z" fill="#212528"/>
<path d="M213.224 199.678C212.6 198.958 212.064 198.15 211.616 197.254C211.168 196.358 210.824 195.417 210.584 194.43C210.344 193.443 210.229 192.457 210.24 191.47C210.229 190.478 210.344 189.489 210.584 188.502C210.824 187.515 211.168 186.577 211.616 185.686C212.064 184.79 212.6 183.982 213.224 183.262L214.28 184.062C213.651 184.809 213.133 185.585 212.728 186.39C212.328 187.195 212.032 188.025 211.84 188.878C211.648 189.726 211.549 190.59 211.544 191.47C211.549 192.339 211.648 193.203 211.84 194.062C212.037 194.915 212.336 195.747 212.736 196.558C213.141 197.363 213.656 198.134 214.28 198.87L213.224 199.678ZM220.34 196.99C219.194 196.99 218.22 196.737 217.42 196.23C216.62 195.723 216.01 195.019 215.588 194.118C215.172 193.217 214.964 192.174 214.964 190.99C214.964 189.806 215.172 188.763 215.588 187.862C216.01 186.961 216.62 186.257 217.42 185.75C218.22 185.243 219.194 184.99 220.34 184.99C221.674 184.99 222.77 185.329 223.628 186.006C224.492 186.683 225.087 187.595 225.412 188.742L223.964 189.126C223.73 188.267 223.311 187.59 222.708 187.094C222.106 186.598 221.316 186.35 220.34 186.35C219.482 186.35 218.767 186.545 218.196 186.934C217.626 187.323 217.196 187.867 216.908 188.566C216.62 189.259 216.474 190.067 216.468 190.99C216.463 191.907 216.604 192.715 216.892 193.414C217.18 194.107 217.612 194.651 218.188 195.046C218.764 195.435 219.482 195.63 220.34 195.63C221.316 195.63 222.106 195.382 222.708 194.886C223.311 194.385 223.73 193.707 223.964 192.854L225.412 193.238C225.087 194.379 224.492 195.291 223.628 195.974C222.77 196.651 221.674 196.99 220.34 196.99ZM230.847 196.99C229.988 196.99 229.247 196.795 228.623 196.406C228.004 196.017 227.527 195.478 227.191 194.79C226.855 194.102 226.687 193.313 226.687 192.422C226.687 191.515 226.858 190.721 227.199 190.038C227.54 189.355 228.023 188.825 228.647 188.446C229.271 188.062 230.004 187.87 230.847 187.87C231.711 187.87 232.455 188.065 233.079 188.454C233.703 188.838 234.18 189.374 234.511 190.062C234.847 190.745 235.015 191.531 235.015 192.422C235.015 193.323 234.847 194.118 234.511 194.806C234.175 195.489 233.695 196.025 233.071 196.414C232.447 196.798 231.706 196.99 230.847 196.99ZM230.847 195.638C231.743 195.638 232.41 195.339 232.847 194.742C233.284 194.145 233.503 193.371 233.503 192.422C233.503 191.446 233.282 190.67 232.839 190.094C232.396 189.513 231.732 189.222 230.847 189.222C230.244 189.222 229.748 189.358 229.359 189.63C228.97 189.902 228.679 190.278 228.487 190.758C228.295 191.238 228.199 191.793 228.199 192.422C228.199 193.393 228.423 194.171 228.871 194.758C229.319 195.345 229.978 195.638 230.847 195.638ZM242.928 196.75V192.422C242.928 192.011 242.891 191.617 242.816 191.238C242.747 190.859 242.622 190.521 242.44 190.222C242.264 189.918 242.024 189.678 241.72 189.502C241.422 189.326 241.043 189.238 240.584 189.238C240.227 189.238 239.902 189.299 239.608 189.422C239.32 189.539 239.072 189.721 238.864 189.966C238.656 190.211 238.494 190.521 238.376 190.894C238.264 191.262 238.208 191.697 238.208 192.198L237.272 191.91C237.272 191.073 237.422 190.355 237.72 189.758C238.024 189.155 238.448 188.694 238.992 188.374C239.542 188.049 240.187 187.886 240.928 187.886C241.488 187.886 241.966 187.974 242.36 188.15C242.755 188.326 243.083 188.561 243.344 188.854C243.606 189.142 243.811 189.467 243.96 189.83C244.11 190.187 244.214 190.553 244.272 190.926C244.336 191.294 244.368 191.643 244.368 191.974V196.75H242.928ZM236.768 196.75V188.11H238.048V190.422H238.208V196.75H236.768ZM249.762 196.99C248.957 196.99 248.266 196.79 247.69 196.39C247.114 195.985 246.669 195.438 246.354 194.75C246.045 194.062 245.89 193.286 245.89 192.422C245.89 191.558 246.045 190.782 246.354 190.094C246.669 189.406 247.114 188.865 247.69 188.47C248.266 188.07 248.954 187.87 249.754 187.87C250.57 187.87 251.255 188.067 251.81 188.462C252.365 188.857 252.783 189.398 253.066 190.086C253.354 190.774 253.498 191.553 253.498 192.422C253.498 193.281 253.354 194.057 253.066 194.75C252.783 195.438 252.365 195.985 251.81 196.39C251.255 196.79 250.573 196.99 249.762 196.99ZM249.938 195.686C250.519 195.686 250.997 195.547 251.37 195.27C251.743 194.987 252.018 194.601 252.194 194.11C252.375 193.614 252.466 193.051 252.466 192.422C252.466 191.782 252.375 191.219 252.194 190.734C252.018 190.243 251.746 189.862 251.378 189.59C251.01 189.313 250.543 189.174 249.978 189.174C249.391 189.174 248.906 189.318 248.522 189.606C248.143 189.894 247.861 190.283 247.674 190.774C247.493 191.265 247.402 191.814 247.402 192.422C247.402 193.035 247.495 193.59 247.682 194.086C247.869 194.577 248.149 194.966 248.522 195.254C248.901 195.542 249.373 195.686 249.938 195.686ZM252.466 196.75V190.39H252.306V185.23H253.738V196.75H252.466ZM256.139 186.582V185.11H257.563V186.582H256.139ZM256.139 196.75V188.11H257.563V196.75H256.139ZM264.788 196.75C264.276 196.851 263.769 196.891 263.268 196.87C262.772 196.854 262.329 196.755 261.94 196.574C261.55 196.387 261.254 196.099 261.052 195.71C260.881 195.369 260.788 195.025 260.772 194.678C260.761 194.326 260.756 193.929 260.756 193.486V185.71H262.18V193.422C262.18 193.774 262.182 194.075 262.188 194.326C262.198 194.577 262.254 194.793 262.356 194.974C262.548 195.315 262.852 195.515 263.268 195.574C263.689 195.633 264.196 195.617 264.788 195.526V196.75ZM259.004 189.286V188.11H264.788V189.286H259.004ZM266.702 186.582V185.11H268.126V186.582H266.702ZM266.702 196.75V188.11H268.126V196.75H266.702ZM274.206 196.99C273.348 196.99 272.606 196.795 271.982 196.406C271.364 196.017 270.886 195.478 270.55 194.79C270.214 194.102 270.046 193.313 270.046 192.422C270.046 191.515 270.217 190.721 270.558 190.038C270.9 189.355 271.382 188.825 272.006 188.446C272.63 188.062 273.364 187.87 274.206 187.87C275.07 187.87 275.814 188.065 276.438 188.454C277.062 188.838 277.54 189.374 277.87 190.062C278.206 190.745 278.374 191.531 278.374 192.422C278.374 193.323 278.206 194.118 277.87 194.806C277.534 195.489 277.054 196.025 276.43 196.414C275.806 196.798 275.065 196.99 274.206 196.99ZM274.206 195.638C275.102 195.638 275.769 195.339 276.206 194.742C276.644 194.145 276.862 193.371 276.862 192.422C276.862 191.446 276.641 190.67 276.198 190.094C275.756 189.513 275.092 189.222 274.206 189.222C273.604 189.222 273.108 189.358 272.718 189.63C272.329 189.902 272.038 190.278 271.846 190.758C271.654 191.238 271.558 191.793 271.558 192.422C271.558 193.393 271.782 194.171 272.23 194.758C272.678 195.345 273.337 195.638 274.206 195.638ZM286.288 196.75V192.422C286.288 192.011 286.25 191.617 286.176 191.238C286.106 190.859 285.981 190.521 285.8 190.222C285.624 189.918 285.384 189.678 285.08 189.502C284.781 189.326 284.402 189.238 283.944 189.238C283.586 189.238 283.261 189.299 282.968 189.422C282.68 189.539 282.432 189.721 282.224 189.966C282.016 190.211 281.853 190.521 281.736 190.894C281.624 191.262 281.568 191.697 281.568 192.198L280.632 191.91C280.632 191.073 280.781 190.355 281.08 189.758C281.384 189.155 281.808 188.694 282.352 188.374C282.901 188.049 283.546 187.886 284.288 187.886C284.848 187.886 285.325 187.974 285.72 188.15C286.114 188.326 286.442 188.561 286.704 188.854C286.965 189.142 287.17 189.467 287.32 189.83C287.469 190.187 287.573 190.553 287.632 190.926C287.696 191.294 287.728 191.643 287.728 191.974V196.75H286.288ZM280.128 196.75V188.11H281.408V190.422H281.568V196.75H280.128ZM290.111 199.678L289.055 198.87C289.679 198.134 290.191 197.363 290.591 196.558C290.996 195.747 291.298 194.915 291.495 194.062C291.692 193.203 291.791 192.339 291.791 191.47C291.791 190.59 291.692 189.726 291.495 188.878C291.303 188.025 291.004 187.195 290.599 186.39C290.199 185.585 289.684 184.809 289.055 184.062L290.111 183.262C290.735 183.982 291.271 184.79 291.719 185.686C292.172 186.577 292.516 187.515 292.751 188.502C292.991 189.489 293.106 190.478 293.095 191.47C293.106 192.457 292.991 193.443 292.751 194.43C292.516 195.417 292.172 196.358 291.719 197.254C291.271 198.15 290.735 198.958 290.111 199.678Z" fill="#8F9396"/>
</g>
<path d="M150 173.25C149.448 173.25 149 173.698 149 174.25C149 174.802 149.448 175.25 150 175.25V173.25ZM178.707 174.957C179.098 174.567 179.098 173.933 178.707 173.543L172.343 167.179C171.953 166.788 171.319 166.788 170.929 167.179C170.538 167.569 170.538 168.203 170.929 168.593L176.586 174.25L170.929 179.907C170.538 180.297 170.538 180.931 170.929 181.321C171.319 181.712 171.953 181.712 172.343 181.321L178.707 174.957ZM150 175.25H178V173.25H150V175.25Z" fill="#B3B3B3"/>
<g filter="url(#filter3_d_5053_17783)">
<rect x="358" y="134.75" width="140" height="79" rx="39.5" fill="white" shape-rendering="crispEdges"/>
<path d="M405.132 172.75V157.498H399.24V155.47H413.16V157.498H407.268V172.75H405.132ZM424.299 172.75V166.258C424.299 165.642 424.243 165.05 424.131 164.482C424.027 163.914 423.839 163.406 423.567 162.958C423.303 162.502 422.943 162.142 422.487 161.878C422.039 161.614 421.471 161.482 420.783 161.482C420.247 161.482 419.759 161.574 419.319 161.758C418.887 161.934 418.515 162.206 418.203 162.574C417.891 162.942 417.647 163.406 417.471 163.966C417.303 164.518 417.219 165.17 417.219 165.922L415.815 165.49C415.815 164.234 416.039 163.158 416.487 162.262C416.943 161.358 417.579 160.666 418.395 160.186C419.219 159.698 420.187 159.454 421.299 159.454C422.139 159.454 422.855 159.586 423.447 159.85C424.039 160.114 424.531 160.466 424.923 160.906C425.315 161.338 425.623 161.826 425.847 162.37C426.071 162.906 426.227 163.454 426.315 164.014C426.411 164.566 426.459 165.09 426.459 165.586V172.75H424.299ZM415.059 172.75V155.47H416.979V165.01H417.219V172.75H415.059ZM435.194 173.11C433.922 173.11 432.81 172.83 431.858 172.27C430.914 171.702 430.178 170.914 429.65 169.906C429.122 168.89 428.858 167.706 428.858 166.354C428.858 164.938 429.118 163.714 429.638 162.682C430.158 161.642 430.882 160.842 431.81 160.282C432.746 159.714 433.842 159.43 435.098 159.43C436.402 159.43 437.51 159.73 438.422 160.33C439.342 160.93 440.03 161.786 440.486 162.898C440.95 164.01 441.15 165.334 441.086 166.87H438.926V166.102C438.902 164.51 438.578 163.322 437.954 162.538C437.33 161.746 436.402 161.35 435.17 161.35C433.85 161.35 432.846 161.774 432.158 162.622C431.47 163.47 431.126 164.686 431.126 166.27C431.126 167.798 431.47 168.982 432.158 169.822C432.846 170.662 433.826 171.082 435.098 171.082C435.954 171.082 436.698 170.886 437.33 170.494C437.962 170.102 438.458 169.538 438.818 168.802L440.87 169.51C440.366 170.654 439.606 171.542 438.59 172.174C437.582 172.798 436.45 173.11 435.194 173.11ZM430.406 166.87V165.154H439.982V166.87H430.406ZM452.635 172.75V166.258C452.635 165.642 452.579 165.05 452.467 164.482C452.363 163.914 452.175 163.406 451.903 162.958C451.639 162.502 451.279 162.142 450.823 161.878C450.375 161.614 449.807 161.482 449.119 161.482C448.583 161.482 448.095 161.574 447.655 161.758C447.223 161.934 446.851 162.206 446.539 162.574C446.227 162.942 445.983 163.406 445.807 163.966C445.639 164.518 445.555 165.17 445.555 165.922L444.151 165.49C444.151 164.234 444.375 163.158 444.823 162.262C445.279 161.358 445.915 160.666 446.731 160.186C447.555 159.698 448.523 159.454 449.635 159.454C450.475 159.454 451.191 159.586 451.783 159.85C452.375 160.114 452.867 160.466 453.259 160.906C453.651 161.338 453.959 161.826 454.183 162.37C454.407 162.906 454.563 163.454 454.651 164.014C454.747 164.566 454.795 165.09 454.795 165.586V172.75H452.635ZM443.395 172.75V159.79H445.315V163.258H445.555V172.75H443.395Z" fill="#212528"/>
<path d="M401.724 199.678C401.1 198.958 400.564 198.15 400.116 197.254C399.668 196.358 399.324 195.417 399.084 194.43C398.844 193.443 398.729 192.457 398.74 191.47C398.729 190.478 398.844 189.489 399.084 188.502C399.324 187.515 399.668 186.577 400.116 185.686C400.564 184.79 401.1 183.982 401.724 183.262L402.78 184.062C402.151 184.809 401.633 185.585 401.228 186.39C400.828 187.195 400.532 188.025 400.34 188.878C400.148 189.726 400.049 190.59 400.044 191.47C400.049 192.339 400.148 193.203 400.34 194.062C400.537 194.915 400.836 195.747 401.236 196.558C401.641 197.363 402.156 198.134 402.78 198.87L401.724 199.678ZM403.773 196.75L407.629 185.23H409.613L413.469 196.75H411.989L408.381 186.062H408.829L405.253 196.75H403.773ZM405.629 194.054V192.718H411.613V194.054H405.629ZM418.541 196.99C417.667 196.99 416.923 196.795 416.309 196.406C415.701 196.011 415.237 195.47 414.917 194.782C414.597 194.094 414.432 193.31 414.421 192.43C414.432 191.529 414.6 190.737 414.925 190.054C415.256 189.366 415.728 188.83 416.341 188.446C416.955 188.062 417.693 187.87 418.557 187.87C419.469 187.87 420.253 188.094 420.909 188.542C421.571 188.99 422.013 189.603 422.237 190.382L420.829 190.806C420.648 190.305 420.352 189.915 419.941 189.638C419.536 189.361 419.069 189.222 418.541 189.222C417.949 189.222 417.461 189.361 417.077 189.638C416.693 189.91 416.408 190.289 416.221 190.774C416.035 191.254 415.939 191.806 415.933 192.43C415.944 193.39 416.165 194.166 416.597 194.758C417.035 195.345 417.683 195.638 418.541 195.638C419.107 195.638 419.576 195.51 419.949 195.254C420.323 194.993 420.605 194.617 420.797 194.126L422.237 194.502C421.939 195.307 421.472 195.923 420.837 196.35C420.203 196.777 419.437 196.99 418.541 196.99ZM428.694 196.75C428.182 196.851 427.675 196.891 427.174 196.87C426.678 196.854 426.235 196.755 425.846 196.574C425.457 196.387 425.161 196.099 424.958 195.71C424.787 195.369 424.694 195.025 424.678 194.678C424.667 194.326 424.662 193.929 424.662 193.486V185.71H426.086V193.422C426.086 193.774 426.089 194.075 426.094 194.326C426.105 194.577 426.161 194.793 426.262 194.974C426.454 195.315 426.758 195.515 427.174 195.574C427.595 195.633 428.102 195.617 428.694 195.526V196.75ZM422.91 189.286V188.11H428.694V189.286H422.91ZM430.608 186.582V185.11H432.032V186.582H430.608ZM430.608 196.75V188.11H432.032V196.75H430.608ZM438.113 196.99C437.254 196.99 436.513 196.795 435.889 196.406C435.27 196.017 434.793 195.478 434.457 194.79C434.121 194.102 433.953 193.313 433.953 192.422C433.953 191.515 434.123 190.721 434.465 190.038C434.806 189.355 435.289 188.825 435.913 188.446C436.537 188.062 437.27 187.87 438.113 187.87C438.977 187.87 439.721 188.065 440.345 188.454C440.969 188.838 441.446 189.374 441.777 190.062C442.113 190.745 442.281 191.531 442.281 192.422C442.281 193.323 442.113 194.118 441.777 194.806C441.441 195.489 440.961 196.025 440.337 196.414C439.713 196.798 438.971 196.99 438.113 196.99ZM438.113 195.638C439.009 195.638 439.675 195.339 440.113 194.742C440.55 194.145 440.769 193.371 440.769 192.422C440.769 191.446 440.547 190.67 440.105 190.094C439.662 189.513 438.998 189.222 438.113 189.222C437.51 189.222 437.014 189.358 436.625 189.63C436.235 189.902 435.945 190.278 435.753 190.758C435.561 191.238 435.465 191.793 435.465 192.422C435.465 193.393 435.689 194.171 436.137 194.758C436.585 195.345 437.243 195.638 438.113 195.638ZM450.194 196.75V192.422C450.194 192.011 450.157 191.617 450.082 191.238C450.013 190.859 449.887 190.521 449.706 190.222C449.53 189.918 449.29 189.678 448.986 189.502C448.687 189.326 448.309 189.238 447.85 189.238C447.493 189.238 447.167 189.299 446.874 189.422C446.586 189.539 446.338 189.721 446.13 189.966C445.922 190.211 445.759 190.521 445.642 190.894C445.53 191.262 445.474 191.697 445.474 192.198L444.538 191.91C444.538 191.073 444.687 190.355 444.986 189.758C445.29 189.155 445.714 188.694 446.258 188.374C446.807 188.049 447.453 187.886 448.194 187.886C448.754 187.886 449.231 187.974 449.626 188.15C450.021 188.326 450.349 188.561 450.61 188.854C450.871 189.142 451.077 189.467 451.226 189.83C451.375 190.187 451.479 190.553 451.538 190.926C451.602 191.294 451.634 191.643 451.634 191.974V196.75H450.194ZM444.034 196.75V188.11H445.314V190.422H445.474V196.75H444.034ZM454.017 199.678L452.961 198.87C453.585 198.134 454.097 197.363 454.497 196.558C454.903 195.747 455.204 194.915 455.401 194.062C455.599 193.203 455.697 192.339 455.697 191.47C455.697 190.59 455.599 189.726 455.401 188.878C455.209 188.025 454.911 187.195 454.505 186.39C454.105 185.585 453.591 184.809 452.961 184.062L454.017 183.262C454.641 183.982 455.177 184.79 455.625 185.686C456.079 186.577 456.423 187.515 456.657 188.502C456.897 189.489 457.012 190.478 457.001 191.47C457.012 192.457 456.897 193.443 456.657 194.43C456.423 195.417 456.079 196.358 455.625 197.254C455.177 198.15 454.641 198.958 454.017 199.678Z" fill="#8F9396"/>
</g>
<path d="M326 173.25C325.448 173.25 325 173.698 325 174.25C325 174.802 325.448 175.25 326 175.25V173.25ZM354.707 174.957C355.098 174.567 355.098 173.933 354.707 173.543L348.343 167.179C347.953 166.788 347.319 166.788 346.929 167.179C346.538 167.569 346.538 168.203 346.929 168.593L352.586 174.25L346.929 179.907C346.538 180.297 346.538 180.931 346.929 181.321C347.319 181.712 347.953 181.712 348.343 181.321L354.707 174.957ZM326 175.25H354V173.25H326V175.25Z" fill="#B3B3B3"/>
<defs>
<filter id="filter0_d_5053_17783" x="306" y="251.75" width="177.721" height="54.1772" filterUnits="userSpaceOnUse" color-interpolation-filters="sRGB">
<feFlood flood-opacity="0" result="BackgroundImageFix"/>
<feColorMatrix in="SourceAlpha" type="matrix" values="0 0 0 0 0 0 0 0 0 0 0 0 0 0 0 0 0 0 127 0" result="hardAlpha"/>
<feOffset dy="4"/>
<feGaussianBlur stdDeviation="2"/>
<feComposite in2="hardAlpha" operator="out"/>
<feColorMatrix type="matrix" values="0 0 0 0 0 0 0 0 0 0 0 0 0 0 0 0 0 0 0.25 0"/>
<feBlend mode="normal" in2="BackgroundImageFix" result="effect1_dropShadow_5053_17783"/>
<feBlend mode="normal" in="SourceGraphic" in2="effect1_dropShadow_5053_17783" result="shape"/>
</filter>
<filter id="filter1_d_5053_17783" x="0" y="134.75" width="152" height="91" filterUnits="userSpaceOnUse" color-interpolation-filters="sRGB">
<feFlood flood-opacity="0" result="BackgroundImageFix"/>
<feColorMatrix in="SourceAlpha" type="matrix" values="0 0 0 0 0 0 0 0 0 0 0 0 0 0 0 0 0 0 127 0" result="hardAlpha"/>
<feOffset dy="6"/>
<feGaussianBlur stdDeviation="3"/>
<feComposite in2="hardAlpha" operator="out"/>
<feColorMatrix type="matrix" values="0 0 0 0 0 0 0 0 0 0 0 0 0 0 0 0 0 0 0.25 0"/>
<feBlend mode="normal" in2="BackgroundImageFix" result="effect1_dropShadow_5053_17783"/>
<feBlend mode="normal" in="SourceGraphic" in2="effect1_dropShadow_5053_17783" result="shape"/>
</filter>
<filter id="filter2_d_5053_17783" x="176" y="134.75" width="152" height="91" filterUnits="userSpaceOnUse" color-interpolation-filters="sRGB">
<feFlood flood-opacity="0" result="BackgroundImageFix"/>
<feColorMatrix in="SourceAlpha" type="matrix" values="0 0 0 0 0 0 0 0 0 0 0 0 0 0 0 0 0 0 127 0" result="hardAlpha"/>
<feOffset dy="6"/>
<feGaussianBlur stdDeviation="3"/>
<feComposite in2="hardAlpha" operator="out"/>
<feColorMatrix type="matrix" values="0 0 0 0 0 0 0 0 0 0 0 0 0 0 0 0 0 0 0.25 0"/>
<feBlend mode="normal" in2="BackgroundImageFix" result="effect1_dropShadow_5053_17783"/>
<feBlend mode="normal" in="SourceGraphic" in2="effect1_dropShadow_5053_17783" result="shape"/>
</filter>
<filter id="filter3_d_5053_17783" x="352" y="134.75" width="152" height="91" filterUnits="userSpaceOnUse" color-interpolation-filters="sRGB">
<feFlood flood-opacity="0" result="BackgroundImageFix"/>
<feColorMatrix in="SourceAlpha" type="matrix" values="0 0 0 0 0 0 0 0 0 0 0 0 0 0 0 0 0 0 127 0" result="hardAlpha"/>
<feOffset dy="6"/>
<feGaussianBlur stdDeviation="3"/>
<feComposite in2="hardAlpha" operator="out"/>
<feColorMatrix type="matrix" values="0 0 0 0 0 0 0 0 0 0 0 0 0 0 0 0 0 0 0.25 0"/>
<feBlend mode="normal" in2="BackgroundImageFix" result="effect1_dropShadow_5053_17783"/>
<feBlend mode="normal" in="SourceGraphic" in2="effect1_dropShadow_5053_17783" result="shape"/>
</filter>
</defs>
</svg>
