<svg width="203" height="162" xmlns="http://www.w3.org/2000/svg">
  <g fill-rule="nonzero" fill="none">
    <path d="M202.299709 74.2608c0-46.1729455-41.742982-71.62756364-104.8287272-62.9325818C2.27978182 24.2941091-2.62145455 9.5904 11.7700364 80.5876364c5.8496727 28.7770906 16.6005818 56.7647996 38.1082909 70.3610186-2.5330909 3.793745-6.804 8.694981-12.0233455 8.694981 0 0 15.3399273 0 24.9833455-2.686254 9.8024727 3.004363 21.3486545 3.634691 35.1039272.948436C154.548 146.8368 202.299709 120.427855 202.299709 74.2608" fill="#FFF" opacity=".5"/>
    <path d="M181.110109 56.8649455c-1.896873-40.4764364-22.768364-71.4685091-73.995709-48.38203641C55.2508364 32.0406545-8.78923636 47.0624727 1.4904 88.1751273c10.2796364 41.2658177 84.2753455 69.4125817 140.091709 58.5026177 7.9056-1.578763 14.862764-3.163418 20.712436-4.901236 6.48 7.116218 19.133673 19.764 26.090837 19.923055h.477163c-.159054-.159055-9.802472-15.180873-12.647781-25.1424 39.209891-17.549019 6.48-44.4292367 4.895345-79.6922185z" fill="#06038D"/>
    <path d="M202.299709 74.2608c0-46.1729455-41.742982-71.62756364-104.8287272-62.9325818C2.27978182 24.2941091-2.62145455 9.5904 11.7700364 80.5876364c5.8496727 28.7770906 16.6005818 56.7647996 38.1082909 70.3610186-2.5330909 3.793745-6.804 8.694981-12.0233455 8.694981 0 0 15.3399273 0 24.9833455-2.686254 9.8024727 3.004363 21.3486545 3.634691 35.1039272.948436C154.548 146.8368 202.299709 120.427855 202.299709 74.2608" fill="#00A3E0" opacity=".5"/>
    <path d="M44.8121455 119.008145V85.1707636c0-.4771636.1590545-.9484363.4771636-1.1074909.3181091-.3181091.6303273-.4771636 1.1074909-.4771636h5.6906182c.4771636 0 .9484363.1590545 1.1074909.4771636.3181091.3181091.4771636.6303273.4771636 1.1074909v33.8373814c0 .477164-.1590545.948437-.4771636 1.107491-.3181091.318109-.6303273.477164-1.1074909.477164H46.3968c-.4771636 0-.9484364-.159055-1.1074909-.477164-.3181091-.159054-.4771636-.636218-.4771636-1.107491zm17.554909-1.584654c-2.6862545-2.5272-3.9528-6.167782-3.9528-10.909964 0-4.742182 1.2665455-8.535927 3.9528-10.9099634 2.6862546-2.5272 6.48-3.7937454 11.540291-3.7937454 5.0602909 0 8.8540363 1.2665454 11.5402909 3.7937454 2.6862545 2.5272 3.9528 6.1677814 3.9528 10.9099634 0 4.742182-1.2665455 8.535928-3.9528 10.909964-2.6862546 2.5272-6.48 3.793745-11.5402909 3.793745-5.060291 0-8.6949819-1.419709-11.540291-3.793745zm6.6390546-17.7080728c-1.1074909 1.4255998-1.5787636 3.6346908-1.5787636 6.6390548 0 3.163418.4771636 5.3784 1.5787636 6.798109 1.1074909 1.4256 2.6862545 2.055927 5.0602909 2.055927s3.9528-.630327 5.0602909-2.055927c1.1074909-1.4256 1.5787636-3.634691 1.5787636-6.798109s-.4771636-5.3784-1.5787636-6.6390548c-1.1074909-1.4256-2.6862545-2.0559273-5.0602909-2.0559273s-3.9528.6362182-5.0602909 2.0559273zm23.7168 6.7981088c0-4.901236 1.2665454-8.535927 3.9528-10.9099634 2.6862545-2.5272 6.4799999-3.7937454 11.3871269-3.7937454 4.583128 0 8.223709.7893818 10.750909 2.3740363 2.5272 1.5787637 3.793746 3.7937455 3.793746 6.7981095 0 .477163-.159055.948436-.477164 1.107491-.318109.318109-.630327.477163-1.107491.477163h-3.9528c-1.107491 0-2.214981-.630327-3.004363-1.896873-1.107491-1.5787632-2.845309-2.3740359-5.531564-2.3740359-2.5272 0-4.270909.6303273-5.3784 1.8968729-1.107491 1.266545-1.578764 3.475636-1.578764 6.48 0 2.845309.477164 5.060291 1.578764 6.326836 1.107491 1.266546 2.845309 1.896873 5.531564 1.896873 2.686254 0 4.583127-.789382 5.531563-2.374036.789382-1.266546 1.896873-1.896873 3.004364-1.896873h3.9528c.477164 0 .948436.159054 1.107491.477163.318109.31811.477164.630328.477164 1.107491 0 2.845309-1.266546 5.219346-3.793746 6.798109-2.5272 1.578764-6.167782 2.374037-10.750909 2.374037-5.060291 0-8.8540364-1.266546-11.5402909-3.793746-2.6862546-2.692145-3.9528-6.326836-3.9528-11.074909zm36.2114179 12.176509c-2.374036-1.578763-3.475636-3.793745-3.475636-6.798109 0-2.845309 1.107491-5.060291 3.475636-6.639054 2.374037-1.578764 5.219346-2.374037 8.694982-2.374037h8.535927c0-2.055927-.477163-3.475636-1.266545-4.1118542-.948436-.7893818-2.214982-1.1074909-3.9528-1.1074909-2.374036 0-4.111855.6303273-5.060291 1.7378182-.630327.9484359-1.737818 1.2665459-2.845309 1.2665459h-3.793746c-.477163 0-.948436-.159055-1.10749-.477164-.31811-.3181092-.477164-.6303274-.477164-1.107491 0-4.9012364 4.742182-7.4343273 14.073382-7.4343273 4.111854 0 7.275272.9484364 9.802472 2.6862546 2.5272 1.7378182 3.793746 4.7421818 3.793746 8.5359277v15.970254c0 .477164-.159055.948436-.477164 1.107491-.318109.318109-.630327.477164-1.107491.477164H148.8456c-.477164 0-.948436-.159055-1.107491-.477164-.318109-.318109-.477164-.630327-.477164-1.107491v-.789382c-2.686254 1.896873-5.849672 2.845309-9.3312 2.845309-3.776072.170837-6.780436-.618545-8.995418-2.2032zm5.531564-6.639054c0 .948436.318109 1.737818 1.107491 2.374036.630327.630327 1.737818.948437 3.163418.948437 2.686255 0 5.219345-.789382 7.746545-2.374037v-3.9528h-7.9056c-1.266545 0-2.055927.318109-2.845309.948437-.948436.318109-1.266545 1.10749-1.266545 2.055927zm27.039273 6.957163V85.1707636c0-.4771636.159054-.9484363.477163-1.1074909.318109-.3181091.630328-.4771636 1.107491-.4771636h5.690618c.477164 0 .948437.1590545 1.107491.4771636.318109.3181091.477164.6303273.477164 1.1074909v33.8373814c0 .477164-.159055.948437-.477164 1.107491-.318109.318109-.630327.477164-1.107491.477164h-5.690618c-.477163 0-.948436-.159055-1.107491-.477164-.318109-.318109-.477163-.636218-.477163-1.107491zM54.9327273 60.8177455V36.6296727c0-.4771636.1590545-.9484363.4771636-1.1074909.3181091-.3181091.6303273-.4771636 1.1074909-.4771636H62.208c.4771636 0 .9484364.1590545 1.1074909.4771636.3181091.3181091.4771636.6303273.4771636 1.1074909V45.1656h7.1162182c.4771637 0 .9484364.1590545 1.1074909.4771636.1590546.3181091.4771637.6303273.4771637 1.1074909v3.1634182c0 .4771637-.1590546.9484364-.4771637 1.1074909-.3181091.3181091-.6303272.4771637-1.1074909.4771637h-7.1162182v9.4843636c0 1.7378182.4771637 3.1634182 1.2665455 4.1118546.7893818.9484363 1.8968727 1.4256 3.3224727 1.4256.4771637 0 1.1074909-.1590546 1.8968728-.1590546.7893818-.1590545 1.2665454-.1590545 1.7378181-.1590545H72.9648c.4771636 0 .9484364.1590545 1.1074909.4771636.3181091.3181091.4771636.6303273.4771636 1.1074909v2.6862546c0 .318109-.1590545.6303272-.4771636.9484363-.3181091.3181091-.6303273.4771637-1.1074909.4771637-1.7378182.318109-4.1118545.4771636-6.7981091.4771636-7.4402182.1472727-11.2339636-3.6464727-11.2339636-11.5579636zm25.7727272 7.9114909c-2.6862545-2.5272-3.9528-6.1677819-3.9528-10.7509091 0-4.5831273 1.2665455-8.3827637 3.9528-10.9099637 2.6862546-2.5272 6.3268364-3.7937454 11.0690182-3.7937454s8.3827633 1.2665454 11.0690183 3.7937454c2.686254 2.5272 3.9528 6.1677819 3.9528 10.9099637v1.5787636c0 .4771636-.159055.9484364-.477164 1.1074909-.318109.3181091-.630327.4771637-1.107491.4771637H85.7657455c.1590545 1.8968727.7893818 3.3224727 1.8968727 4.270909C88.7701091 66.3610909 90.3488727 66.6792 92.4048 66.6792c2.3740364 0 4.1118545-.6303273 5.0602909-1.7378182.6303273-.9484363 1.7378182-1.4256 2.8453091-1.4256h3.793745c.477164 0 .948437.1590546 1.107491.4771637.318109.318109.477164.6303272.477164 1.2665454 0 4.9012364-4.742182 7.2752727-14.0733818 7.2752727-4.7421818-.0117818-8.2178182-1.2783272-10.9099637-3.8055272zm5.060291-13.6021091H97.7832c-.1590545-4.1118546-2.0559273-6.1677818-5.8496727-6.1677818-3.9528.1590545-6.0087273 2.2149818-6.1677818 6.1677818zm22.4561455 16.1293091c-.159055-.1590546-.159055-.3181091-.159055-.4771637 0-.3181091.159055-.6303272.477164-1.1074909l9.013091-11.8584-8.382764-11.8584c-.318109-.3181091-.318109-.6303273-.477163-1.1074909-.159055-.4771636.159054-.6303273.318109-.9484364.159054-.318109.477163-.318109.948436-.318109h5.531564c1.737818 0 3.004363.7893818 3.9528 2.3740363l4.270909 6.48 4.270909-6.48c.948436-1.5787636 2.374036-2.3740363 3.9528-2.3740363h5.531564c.318109 0 .630327.1590545.948436.318109.159054.3181091.318109.4771637.318109.9484364 0 .4771636-.159055.6303273-.477164 1.1074909l-8.382763 11.8584 9.013091 11.8584c.318109.3181091.477163.6303273.477163 1.1074909 0 .1590546 0 .3181091-.159054.4771637-.159055.4771636-.477164.7893818-1.107491.7893818h-5.531564c-1.578763 0-2.845309-.7893818-3.9528-2.3740364l-4.901236-6.7981091-4.901237 6.7981091c-1.10749 1.5787637-2.374036 2.3740364-3.9528 2.3740364h-5.531563c-.636218 0-.954327-.3181091-1.107491-.7893818zm34.785818-10.4386909V36.6296727c0-.4771636.159055-.9484363.477164-1.1074909.318109-.3181091.630327-.4771636 1.107491-.4771636h5.690618c.477163 0 .948436.1590545 1.107491.4771636.318109.3181091.477163.6303273.477163 1.1074909V45.1656h7.116219c.477163 0 .948436.1590545 1.10749.4771636.31811.3181091.477164.6303273.477164 1.1074909v3.1634182c0 .4771637-.159054.9484364-.477164 1.1074909-.318109.3181091-.630327.4771637-1.10749.4771637h-7.116219v9.4843636c0 1.7378182.477164 3.1634182 1.266546 4.1118546.789382.9484363 1.896873 1.4256 3.322473 1.4256.477163 0 1.10749-.1590546 1.896872-.1590546.789382-.1590545 1.266546-.1590545 1.737818-.1590545h.948437c.477163 0 .948436.1590545 1.107491.4771636.318109.3181091.477163.6303273.477163 1.1074909v2.6862546c0 .318109-.159054.6303272-.477163.9484363-.318109.3181091-.630328.4771637-1.107491.4771637-1.737818.318109-4.111855.4771636-6.798109.4771636-7.599273.1472727-11.233964-3.6464727-11.233964-11.5579636z" fill="#FFF"/>
  </g>
</svg>