<svg width="600" height="450" viewBox="0 0 600 450" fill="none" xmlns="http://www.w3.org/2000/svg">
<path d="M122.297 98.4541L108.755 84.9063C112.815 79.6151 114.711 72.9776 114.057 66.3402C113.404 59.7027 110.25 53.5624 105.236 49.1648C100.221 44.7671 93.7218 42.4415 87.0558 42.6597C80.3899 42.8779 74.0565 45.6235 69.3404 50.3395C64.6243 55.0556 61.8787 61.389 61.6606 68.055C61.4424 74.721 63.768 81.2203 68.1656 86.2347C72.5632 91.249 78.7036 94.4029 85.341 95.0564C91.9785 95.71 98.616 93.8143 103.907 89.7539L117.461 103.31C117.779 103.629 118.157 103.881 118.573 104.053C118.989 104.226 119.434 104.314 119.884 104.314C120.335 104.314 120.78 104.226 121.196 104.053C121.612 103.881 121.99 103.629 122.308 103.31C122.627 102.992 122.879 102.614 123.051 102.198C123.224 101.782 123.312 101.337 123.312 100.886C123.312 100.436 123.224 99.9906 123.051 99.5747C122.879 99.1588 122.627 98.7809 122.308 98.4626L122.297 98.4541ZM68.5478 68.9375C68.5478 65.1024 69.685 61.3535 71.8157 58.1647C73.9463 54.9759 76.9747 52.4906 80.5179 51.0229C84.0611 49.5553 87.9599 49.1713 91.7213 49.9195C95.4827 50.6677 98.9378 52.5145 101.65 55.2263C104.361 57.9381 106.208 61.3932 106.956 65.1546C107.705 68.916 107.321 72.8148 105.853 76.358C104.385 79.9012 101.9 82.9296 98.7112 85.0602C95.5225 87.1909 91.7735 88.3282 87.9384 88.3282C82.7973 88.3229 77.8683 86.2782 74.233 82.6429C70.5977 79.0076 68.5531 74.0786 68.5478 68.9375Z" fill="#F2CA55" fill-opacity="0.2"/>
<g filter="url(#filter0_d_6449_44205)">
<rect x="43.3965" y="109.091" width="418.906" height="242.059" rx="8.84233" fill="white"/>
<ellipse cx="71.2444" cy="135.786" rx="7.95343" ry="8.61622" fill="#DF434C"/>
<circle cx="93.1143" cy="135.786" r="8.61622" fill="#E7B44C"/>
<circle cx="114.325" cy="135.786" r="8.61622" fill="#6BD280"/>
<rect x="137.156" y="127.881" width="280.744" height="15.4741" rx="7.73704" stroke="#CDD4DF" stroke-width="2.21058"/>
<rect x="84" y="176" width="326.061" height="6.63175" rx="3.31588" fill="#71A5EE"/>
<rect x="84" y="189.433" width="162.478" height="5.52646" rx="2.76323" fill="#CDD4DF"/>
<rect x="249.793" y="189.433" width="158.057" height="5.52646" rx="2.76323" fill="#CDD4DF"/>
<rect x="84" y="200.486" width="267.481" height="5.52646" rx="2.76323" fill="#CDD4DF"/>
<rect x="84" y="232.37" width="326.061" height="6.63175" rx="3.31588" fill="#71A5EE"/>
<rect x="84" y="245.803" width="162.478" height="5.52646" rx="2.76323" fill="#CDD4DF"/>
<rect x="249.793" y="245.803" width="158.057" height="5.52646" rx="2.76323" fill="#CDD4DF"/>
<rect x="84" y="256.856" width="267.481" height="5.52646" rx="2.76323" fill="#CDD4DF"/>
<rect x="84" y="288.739" width="326.061" height="6.63175" rx="3.31588" fill="#71A5EE"/>
<rect x="84" y="302.173" width="162.478" height="5.52646" rx="2.76323" fill="#CDD4DF"/>
<rect x="249.793" y="302.173" width="158.057" height="5.52646" rx="2.76323" fill="#CDD4DF"/>
<rect x="84" y="313.226" width="267.481" height="5.52646" rx="2.76323" fill="#CDD4DF"/>
</g>
<g filter="url(#filter1_d_6449_44205)">
<rect x="379.361" y="92.2422" width="160.475" height="53.5357" rx="5.35357" fill="#F2CA55" shape-rendering="crispEdges"/>
<path d="M404.351 115.463C404.28 114.833 403.988 114.345 403.473 113.999C402.959 113.648 402.311 113.473 401.53 113.473C400.971 113.473 400.488 113.562 400.08 113.739C399.672 113.912 399.354 114.152 399.128 114.458C398.906 114.759 398.795 115.103 398.795 115.489C398.795 115.813 398.871 116.092 399.022 116.328C399.177 116.563 399.379 116.76 399.627 116.92C399.88 117.075 400.151 117.206 400.439 117.312C400.727 117.414 401.005 117.499 401.271 117.565L402.601 117.911C403.036 118.018 403.482 118.162 403.939 118.344C404.396 118.526 404.819 118.765 405.21 119.062C405.6 119.36 405.915 119.728 406.155 120.167C406.399 120.606 406.521 121.132 406.521 121.744C406.521 122.516 406.321 123.201 405.922 123.8C405.527 124.399 404.953 124.871 404.198 125.217C403.449 125.563 402.542 125.736 401.477 125.736C400.457 125.736 399.574 125.574 398.829 125.251C398.083 124.927 397.5 124.468 397.079 123.873C396.657 123.274 396.424 122.565 396.38 121.744H398.443C398.483 122.236 398.642 122.647 398.922 122.975C399.206 123.299 399.567 123.54 400.006 123.7C400.45 123.855 400.936 123.933 401.464 123.933C402.045 123.933 402.562 123.842 403.014 123.66C403.471 123.474 403.83 123.217 404.092 122.888C404.354 122.556 404.485 122.168 404.485 121.724C404.485 121.32 404.369 120.99 404.139 120.732C403.912 120.475 403.604 120.262 403.214 120.094C402.828 119.925 402.391 119.777 401.903 119.648L400.293 119.209C399.201 118.912 398.336 118.475 397.698 117.898C397.063 117.321 396.746 116.558 396.746 115.609C396.746 114.824 396.959 114.138 397.385 113.553C397.811 112.967 398.387 112.513 399.115 112.189C399.842 111.861 400.663 111.696 401.577 111.696C402.499 111.696 403.313 111.858 404.019 112.182C404.729 112.506 405.287 112.952 405.696 113.52C406.104 114.083 406.317 114.731 406.334 115.463H404.351ZM408.978 125.51V111.883H417.521V113.653H411.034V117.805H417.075V119.568H411.034V123.74H417.601V125.51H408.978ZM432.105 118.696C432.105 120.151 431.839 121.402 431.307 122.449C430.774 123.492 430.045 124.295 429.117 124.858C428.195 125.417 427.146 125.696 425.97 125.696C424.79 125.696 423.737 125.417 422.809 124.858C421.887 124.295 421.159 123.489 420.627 122.443C420.095 121.396 419.829 120.147 419.829 118.696C419.829 117.241 420.095 115.993 420.627 114.95C421.159 113.903 421.887 113.1 422.809 112.541C423.737 111.978 424.79 111.696 425.97 111.696C427.146 111.696 428.195 111.978 429.117 112.541C430.045 113.1 430.774 113.903 431.307 114.95C431.839 115.993 432.105 117.241 432.105 118.696ZM430.069 118.696C430.069 117.587 429.889 116.654 429.53 115.895C429.175 115.132 428.687 114.555 428.066 114.165C427.449 113.77 426.751 113.573 425.97 113.573C425.185 113.573 424.484 113.77 423.867 114.165C423.251 114.555 422.763 115.132 422.404 115.895C422.049 116.654 421.871 117.587 421.871 118.696C421.871 119.805 422.049 120.741 422.404 121.504C422.763 122.263 423.251 122.84 423.867 123.234C424.484 123.625 425.185 123.82 425.97 123.82C426.751 123.82 427.449 123.625 428.066 123.234C428.687 122.84 429.175 122.263 429.53 121.504C429.889 120.741 430.069 119.805 430.069 118.696ZM442.442 125.736C441.794 125.736 441.209 125.616 440.685 125.377C440.162 125.133 439.747 124.78 439.441 124.319C439.139 123.858 438.989 123.292 438.989 122.622C438.989 122.046 439.099 121.571 439.321 121.198C439.543 120.826 439.842 120.531 440.22 120.313C440.597 120.096 441.018 119.932 441.484 119.821C441.95 119.71 442.424 119.626 442.908 119.568C443.52 119.497 444.017 119.439 444.398 119.395C444.78 119.346 445.057 119.269 445.23 119.162C445.403 119.056 445.489 118.883 445.489 118.643V118.597C445.489 118.015 445.325 117.565 444.997 117.246C444.673 116.926 444.19 116.767 443.546 116.767C442.877 116.767 442.349 116.915 441.963 117.213C441.581 117.505 441.317 117.831 441.171 118.191L439.301 117.765C439.523 117.144 439.847 116.643 440.273 116.261C440.703 115.875 441.198 115.596 441.757 115.423C442.315 115.245 442.903 115.156 443.52 115.156C443.928 115.156 444.36 115.205 444.817 115.303C445.279 115.396 445.709 115.569 446.108 115.822C446.512 116.075 446.842 116.436 447.1 116.906C447.357 117.372 447.486 117.978 447.486 118.723V125.51H445.543V124.113H445.463C445.334 124.37 445.141 124.623 444.884 124.871C444.627 125.12 444.296 125.326 443.892 125.49C443.489 125.654 443.005 125.736 442.442 125.736ZM442.874 124.139C443.424 124.139 443.895 124.031 444.285 123.813C444.68 123.596 444.979 123.312 445.183 122.962C445.392 122.607 445.496 122.227 445.496 121.824V120.506C445.425 120.577 445.288 120.644 445.084 120.706C444.884 120.764 444.655 120.815 444.398 120.859C444.141 120.899 443.89 120.937 443.646 120.972C443.402 121.003 443.198 121.03 443.034 121.052C442.648 121.101 442.296 121.183 441.976 121.298C441.661 121.413 441.408 121.58 441.218 121.797C441.031 122.01 440.938 122.294 440.938 122.649C440.938 123.141 441.12 123.514 441.484 123.767C441.847 124.015 442.311 124.139 442.874 124.139ZM450.136 125.51V115.29H452.045V116.953H452.172C452.385 116.39 452.733 115.951 453.216 115.636C453.7 115.316 454.279 115.156 454.953 115.156C455.636 115.156 456.208 115.316 456.67 115.636C457.135 115.955 457.479 116.394 457.701 116.953H457.808C458.051 116.407 458.44 115.973 458.972 115.649C459.504 115.321 460.139 115.156 460.875 115.156C461.802 115.156 462.558 115.447 463.144 116.028C463.734 116.609 464.029 117.485 464.029 118.656V125.51H462.039V118.843C462.039 118.151 461.851 117.649 461.474 117.339C461.097 117.028 460.647 116.873 460.123 116.873C459.475 116.873 458.972 117.073 458.613 117.472C458.253 117.867 458.074 118.375 458.074 118.996V125.51H456.091V118.716C456.091 118.162 455.918 117.716 455.572 117.379C455.226 117.042 454.776 116.873 454.221 116.873C453.844 116.873 453.496 116.973 453.176 117.173C452.861 117.368 452.606 117.641 452.411 117.991C452.22 118.342 452.125 118.747 452.125 119.209V125.51H450.136ZM466.696 125.51V115.29H468.685V125.51H466.696ZM467.7 113.713C467.354 113.713 467.057 113.597 466.809 113.367C466.565 113.131 466.443 112.852 466.443 112.528C466.443 112.2 466.565 111.92 466.809 111.69C467.057 111.455 467.354 111.337 467.7 111.337C468.046 111.337 468.341 111.455 468.585 111.69C468.834 111.92 468.958 112.2 468.958 112.528C468.958 112.852 468.834 113.131 468.585 113.367C468.341 113.597 468.046 113.713 467.7 113.713ZM475.647 129.556C474.835 129.556 474.136 129.449 473.551 129.236C472.97 129.023 472.495 128.742 472.127 128.391C471.759 128.041 471.484 127.657 471.302 127.24L473.012 126.535C473.132 126.73 473.291 126.936 473.491 127.154C473.695 127.375 473.97 127.564 474.316 127.719C474.666 127.874 475.117 127.952 475.667 127.952C476.421 127.952 477.044 127.768 477.536 127.4C478.029 127.036 478.275 126.455 478.275 125.656V123.647H478.149C478.029 123.864 477.856 124.106 477.63 124.372C477.408 124.638 477.102 124.869 476.711 125.064C476.321 125.259 475.813 125.357 475.188 125.357C474.38 125.357 473.653 125.168 473.005 124.791C472.362 124.41 471.852 123.849 471.475 123.108C471.102 122.363 470.916 121.447 470.916 120.36C470.916 119.273 471.1 118.342 471.468 117.565C471.841 116.789 472.351 116.194 472.998 115.782C473.646 115.365 474.38 115.156 475.201 115.156C475.835 115.156 476.348 115.263 476.738 115.476C477.128 115.684 477.432 115.928 477.65 116.208C477.871 116.487 478.042 116.733 478.162 116.946H478.308V115.29H480.258V125.736C480.258 126.615 480.054 127.335 479.646 127.899C479.238 128.462 478.685 128.879 477.989 129.15C477.297 129.42 476.516 129.556 475.647 129.556ZM475.627 123.707C476.199 123.707 476.683 123.574 477.077 123.308C477.477 123.037 477.778 122.651 477.982 122.15C478.191 121.644 478.295 121.039 478.295 120.333C478.295 119.646 478.193 119.04 477.989 118.517C477.785 117.993 477.485 117.585 477.091 117.292C476.696 116.995 476.208 116.847 475.627 116.847C475.028 116.847 474.529 117.002 474.13 117.312C473.73 117.618 473.429 118.035 473.225 118.563C473.025 119.091 472.925 119.681 472.925 120.333C472.925 121.003 473.027 121.591 473.231 122.097C473.435 122.602 473.737 122.997 474.136 123.281C474.54 123.565 475.037 123.707 475.627 123.707ZM485.9 125.736C485.253 125.736 484.667 125.616 484.144 125.377C483.62 125.133 483.206 124.78 482.9 124.319C482.598 123.858 482.447 123.292 482.447 122.622C482.447 122.046 482.558 121.571 482.78 121.198C483.002 120.826 483.301 120.531 483.678 120.313C484.055 120.096 484.476 119.932 484.942 119.821C485.408 119.71 485.883 119.626 486.366 119.568C486.978 119.497 487.475 119.439 487.857 119.395C488.238 119.346 488.515 119.269 488.688 119.162C488.861 119.056 488.948 118.883 488.948 118.643V118.597C488.948 118.015 488.784 117.565 488.456 117.246C488.132 116.926 487.648 116.767 487.005 116.767C486.335 116.767 485.807 116.915 485.421 117.213C485.04 117.505 484.776 117.831 484.63 118.191L482.76 117.765C482.982 117.144 483.305 116.643 483.731 116.261C484.162 115.875 484.656 115.596 485.215 115.423C485.774 115.245 486.362 115.156 486.978 115.156C487.386 115.156 487.819 115.205 488.276 115.303C488.737 115.396 489.168 115.569 489.567 115.822C489.97 116.075 490.301 116.436 490.558 116.906C490.815 117.372 490.944 117.978 490.944 118.723V125.51H489.001V124.113H488.921C488.793 124.37 488.6 124.623 488.342 124.871C488.085 125.12 487.755 125.326 487.351 125.49C486.947 125.654 486.464 125.736 485.9 125.736ZM486.333 124.139C486.883 124.139 487.353 124.031 487.744 123.813C488.138 123.596 488.438 123.312 488.642 122.962C488.85 122.607 488.955 122.227 488.955 121.824V120.506C488.884 120.577 488.746 120.644 488.542 120.706C488.342 120.764 488.114 120.815 487.857 120.859C487.599 120.899 487.349 120.937 487.105 120.972C486.861 121.003 486.657 121.03 486.493 121.052C486.107 121.101 485.754 121.183 485.435 121.298C485.12 121.413 484.867 121.58 484.676 121.797C484.49 122.01 484.397 122.294 484.397 122.649C484.397 123.141 484.579 123.514 484.942 123.767C485.306 124.015 485.77 124.139 486.333 124.139ZM486.26 113.926L487.817 110.858H489.913L487.85 113.926H486.26ZM501.971 115.29L498.265 125.51H496.136L492.423 115.29H494.559L497.147 123.155H497.254L499.835 115.29H501.971ZM507.898 125.716C506.891 125.716 506.024 125.501 505.297 125.071C504.574 124.636 504.015 124.026 503.62 123.241C503.229 122.451 503.034 121.527 503.034 120.466C503.034 119.419 503.229 118.497 503.62 117.698C504.015 116.9 504.565 116.277 505.27 115.829C505.98 115.381 506.809 115.156 507.759 115.156C508.335 115.156 508.894 115.252 509.435 115.443C509.977 115.633 510.462 115.933 510.893 116.341C511.323 116.749 511.662 117.279 511.911 117.931C512.159 118.579 512.283 119.366 512.283 120.293V120.999H504.159V119.508H510.334C510.334 118.985 510.227 118.521 510.014 118.117C509.801 117.709 509.502 117.388 509.116 117.153C508.735 116.918 508.286 116.8 507.772 116.8C507.213 116.8 506.725 116.938 506.308 117.213C505.896 117.483 505.576 117.838 505.35 118.277C505.128 118.712 505.017 119.184 505.017 119.694V120.859C505.017 121.542 505.137 122.123 505.377 122.602C505.62 123.081 505.96 123.447 506.395 123.7C506.829 123.949 507.337 124.073 507.918 124.073C508.295 124.073 508.639 124.02 508.95 123.913C509.26 123.802 509.529 123.638 509.755 123.421C509.981 123.203 510.154 122.935 510.274 122.616L512.157 122.955C512.006 123.509 511.735 123.995 511.345 124.412C510.959 124.825 510.473 125.146 509.888 125.377C509.307 125.603 508.644 125.716 507.898 125.716ZM516.48 111.883V125.51H514.491V111.883H516.48Z" fill="black"/>
</g>
<path d="M512.452 300.879C512.452 298.524 513.387 296.266 515.053 294.601C516.718 292.935 518.976 292 521.331 292H550.929C553.284 292 555.543 292.935 557.208 294.601C558.873 296.266 559.809 298.524 559.809 300.879V330.477C559.809 332.832 558.873 335.091 557.208 336.756C555.543 338.421 553.284 339.357 550.929 339.357C548.574 339.357 546.316 338.421 544.651 336.756C542.985 335.091 542.05 332.832 542.05 330.477V322.308L489.129 375.229C487.464 376.892 485.207 377.826 482.854 377.826C480.501 377.826 478.244 376.892 476.579 375.229L447.337 345.986L397.376 395.948C396.563 396.82 395.582 397.52 394.493 398.005C393.404 398.49 392.228 398.751 391.036 398.772C389.844 398.793 388.66 398.574 387.554 398.127C386.448 397.681 385.444 397.016 384.601 396.173C383.758 395.33 383.093 394.325 382.646 393.22C382.2 392.114 381.98 390.93 382.001 389.738C382.022 388.546 382.283 387.37 382.769 386.281C383.254 385.191 383.954 384.211 384.826 383.398L441.062 327.162C442.727 325.499 444.984 324.565 447.337 324.565C449.69 324.565 451.947 325.499 453.611 327.162L482.854 356.405L529.5 309.759H521.331C518.976 309.759 516.718 308.823 515.053 307.158C513.387 305.493 512.452 303.234 512.452 300.879Z" fill="#FCF4DD"/>
<defs>
<filter id="filter0_d_6449_44205" x="22.3965" y="87.0908" width="462.906" height="286.059" filterUnits="userSpaceOnUse" color-interpolation-filters="sRGB">
<feFlood flood-opacity="0" result="BackgroundImageFix"/>
<feColorMatrix in="SourceAlpha" type="matrix" values="0 0 0 0 0 0 0 0 0 0 0 0 0 0 0 0 0 0 127 0" result="hardAlpha"/>
<feOffset dx="1"/>
<feGaussianBlur stdDeviation="11"/>
<feComposite in2="hardAlpha" operator="out"/>
<feColorMatrix type="matrix" values="0 0 0 0 0 0 0 0 0 0 0 0 0 0 0 0 0 0 0.12 0"/>
<feBlend mode="normal" in2="BackgroundImageFix" result="effect1_dropShadow_6449_44205"/>
<feBlend mode="normal" in="SourceGraphic" in2="effect1_dropShadow_6449_44205" result="shape"/>
</filter>
<filter id="filter1_d_6449_44205" x="367.768" y="85.2861" width="183.662" height="76.7227" filterUnits="userSpaceOnUse" color-interpolation-filters="sRGB">
<feFlood flood-opacity="0" result="BackgroundImageFix"/>
<feColorMatrix in="SourceAlpha" type="matrix" values="0 0 0 0 0 0 0 0 0 0 0 0 0 0 0 0 0 0 127 0" result="hardAlpha"/>
<feOffset dy="4.63741"/>
<feGaussianBlur stdDeviation="5.79676"/>
<feComposite in2="hardAlpha" operator="out"/>
<feColorMatrix type="matrix" values="0 0 0 0 0 0 0 0 0 0 0 0 0 0 0 0 0 0 0.25 0"/>
<feBlend mode="normal" in2="BackgroundImageFix" result="effect1_dropShadow_6449_44205"/>
<feBlend mode="normal" in="SourceGraphic" in2="effect1_dropShadow_6449_44205" result="shape"/>
</filter>
</defs>
</svg>
