<svg width="540" height="400" viewBox="0 0 540 400" fill="none" xmlns="http://www.w3.org/2000/svg">
<g filter="url(#filter0_d_4255_23019)">
<rect x="29" y="44" width="200" height="40" rx="20" fill="white" shape-rendering="crispEdges"/>
<path d="M64 55H50C48.9 55 48 55.9 48 57V71C48 72.1 48.9 73 50 73H64C65.1 73 66 72.1 66 71V57C66 55.9 65.1 55 64 55ZM64 71H50V57H64V71Z" fill="#5D6164"/>
<path d="M54 64H52V69H54V64Z" fill="#5D6164"/>
<path d="M62 59H60V69H62V59Z" fill="#5D6164"/>
<path d="M58 66H56V69H58V66Z" fill="#5D6164"/>
<path d="M58 62H56V64H58V62Z" fill="#5D6164"/>
<path d="M78.328 69V57.08H79.768L84.232 63.432H83.496L87.928 57.08H89.368V69H87.784V59.064L88.344 59.24L83.912 65.48H83.784L79.4 59.24L79.896 59.064V69H78.328ZM95.8075 69.192C94.9755 69.192 94.2342 68.9947 93.5835 68.6C92.9328 68.2053 92.4208 67.6667 92.0475 66.984C91.6742 66.2907 91.4875 65.5173 91.4875 64.664C91.4875 63.8 91.6688 63.032 92.0315 62.36C92.4048 61.688 92.9062 61.16 93.5355 60.776C94.1755 60.3813 94.8902 60.184 95.6795 60.184C96.3195 60.184 96.8848 60.3013 97.3755 60.536C97.8768 60.76 98.2982 61.0693 98.6395 61.464C98.9915 61.848 99.2582 62.2907 99.4395 62.792C99.6315 63.2827 99.7275 63.7947 99.7275 64.328C99.7275 64.4453 99.7168 64.5787 99.6955 64.728C99.6848 64.8667 99.6688 65 99.6475 65.128H92.5755V63.848H98.7835L98.0795 64.424C98.1755 63.8693 98.1222 63.3733 97.9195 62.936C97.7168 62.4987 97.4182 62.152 97.0235 61.896C96.6288 61.64 96.1808 61.512 95.6795 61.512C95.1782 61.512 94.7195 61.64 94.3035 61.896C93.8875 62.152 93.5622 62.52 93.3275 63C93.1035 63.4693 93.0128 64.0293 93.0555 64.68C93.0128 65.3093 93.1088 65.864 93.3435 66.344C93.5888 66.8133 93.9302 67.1813 94.3675 67.448C94.8155 67.704 95.3008 67.832 95.8235 67.832C96.3995 67.832 96.8848 67.6987 97.2795 67.432C97.6742 67.1653 97.9942 66.824 98.2395 66.408L99.4875 67.048C99.3168 67.4427 99.0502 67.8053 98.6875 68.136C98.3355 68.456 97.9142 68.712 97.4235 68.904C96.9435 69.096 96.4048 69.192 95.8075 69.192ZM104.756 69.192C103.892 69.192 103.14 68.9787 102.5 68.552C101.86 68.1253 101.406 67.5493 101.14 66.824L102.324 66.248C102.569 66.76 102.905 67.1653 103.332 67.464C103.758 67.7627 104.233 67.912 104.756 67.912C105.225 67.912 105.614 67.8 105.924 67.576C106.233 67.352 106.388 67.0587 106.388 66.696C106.388 66.44 106.313 66.2373 106.164 66.088C106.025 65.928 105.854 65.8053 105.652 65.72C105.449 65.624 105.262 65.5547 105.092 65.512L103.796 65.144C103.017 64.92 102.446 64.6 102.084 64.184C101.732 63.768 101.556 63.2827 101.556 62.728C101.556 62.216 101.684 61.7733 101.94 61.4C102.206 61.016 102.564 60.7173 103.012 60.504C103.47 60.2907 103.982 60.184 104.548 60.184C105.305 60.184 105.982 60.376 106.58 60.76C107.188 61.144 107.62 61.6827 107.876 62.376L106.66 62.936C106.468 62.488 106.18 62.136 105.796 61.88C105.412 61.6133 104.98 61.48 104.5 61.48C104.062 61.48 103.716 61.592 103.46 61.816C103.204 62.0293 103.076 62.3013 103.076 62.632C103.076 62.8773 103.14 63.08 103.268 63.24C103.396 63.3893 103.55 63.5067 103.732 63.592C103.913 63.6667 104.089 63.7307 104.26 63.784L105.668 64.2C106.372 64.4027 106.916 64.7173 107.3 65.144C107.694 65.5707 107.892 66.0827 107.892 66.68C107.892 67.16 107.758 67.592 107.492 67.976C107.225 68.36 106.857 68.6587 106.388 68.872C105.918 69.0853 105.374 69.192 104.756 69.192ZM112.928 69.192C112.064 69.192 111.312 68.9787 110.672 68.552C110.032 68.1253 109.578 67.5493 109.312 66.824L110.496 66.248C110.741 66.76 111.077 67.1653 111.504 67.464C111.93 67.7627 112.405 67.912 112.928 67.912C113.397 67.912 113.786 67.8 114.096 67.576C114.405 67.352 114.56 67.0587 114.56 66.696C114.56 66.44 114.485 66.2373 114.336 66.088C114.197 65.928 114.026 65.8053 113.824 65.72C113.621 65.624 113.434 65.5547 113.264 65.512L111.968 65.144C111.189 64.92 110.618 64.6 110.256 64.184C109.904 63.768 109.728 63.2827 109.728 62.728C109.728 62.216 109.856 61.7733 110.112 61.4C110.378 61.016 110.736 60.7173 111.184 60.504C111.642 60.2907 112.154 60.184 112.72 60.184C113.477 60.184 114.154 60.376 114.752 60.76C115.36 61.144 115.792 61.6827 116.048 62.376L114.832 62.936C114.64 62.488 114.352 62.136 113.968 61.88C113.584 61.6133 113.152 61.48 112.672 61.48C112.234 61.48 111.888 61.592 111.632 61.816C111.376 62.0293 111.248 62.3013 111.248 62.632C111.248 62.8773 111.312 63.08 111.44 63.24C111.568 63.3893 111.722 63.5067 111.904 63.592C112.085 63.6667 112.261 63.7307 112.432 63.784L113.84 64.2C114.544 64.4027 115.088 64.7173 115.472 65.144C115.866 65.5707 116.064 66.0827 116.064 66.68C116.064 67.16 115.93 67.592 115.664 67.976C115.397 68.36 115.029 68.6587 114.56 68.872C114.09 69.0853 113.546 69.192 112.928 69.192ZM120.539 69.192C119.974 69.192 119.473 69.0907 119.035 68.888C118.609 68.6747 118.273 68.3867 118.027 68.024C117.782 67.6507 117.659 67.224 117.659 66.744C117.659 66.2853 117.755 65.8747 117.947 65.512C118.15 65.1387 118.459 64.824 118.875 64.568C119.302 64.312 119.835 64.1307 120.475 64.024L123.675 63.496V64.744L120.811 65.224C120.257 65.32 119.851 65.496 119.595 65.752C119.35 66.008 119.227 66.3227 119.227 66.696C119.227 67.048 119.366 67.3413 119.643 67.576C119.931 67.8107 120.289 67.928 120.715 67.928C121.259 67.928 121.729 67.816 122.123 67.592C122.529 67.3573 122.843 67.0427 123.067 66.648C123.302 66.2533 123.419 65.816 123.419 65.336V63.144C123.419 62.6747 123.243 62.296 122.891 62.008C122.55 61.7093 122.097 61.56 121.531 61.56C121.041 61.56 120.603 61.688 120.219 61.944C119.846 62.1893 119.569 62.52 119.387 62.936L118.091 62.264C118.251 61.8693 118.507 61.5173 118.859 61.208C119.211 60.888 119.622 60.6373 120.091 60.456C120.561 60.2747 121.051 60.184 121.563 60.184C122.225 60.184 122.806 60.312 123.307 60.568C123.809 60.8133 124.198 61.16 124.475 61.608C124.763 62.0453 124.907 62.5573 124.907 63.144V69H123.451V67.368L123.723 67.464C123.542 67.8053 123.297 68.104 122.987 68.36C122.678 68.616 122.315 68.8187 121.899 68.968C121.483 69.1173 121.03 69.192 120.539 69.192ZM131.327 72.52C130.719 72.52 130.153 72.424 129.631 72.232C129.119 72.04 128.676 71.7733 128.303 71.432C127.94 71.1013 127.663 70.712 127.471 70.264L128.863 69.624C129.012 70.0293 129.295 70.3707 129.711 70.648C130.137 70.936 130.671 71.08 131.311 71.08C131.801 71.08 132.244 70.984 132.639 70.792C133.044 70.6107 133.364 70.3333 133.599 69.96C133.833 69.5973 133.951 69.1547 133.951 68.632V66.696L134.223 66.984C133.924 67.5707 133.492 68.0187 132.927 68.328C132.372 68.6373 131.759 68.792 131.087 68.792C130.276 68.792 129.551 68.6053 128.911 68.232C128.271 67.848 127.769 67.3307 127.407 66.68C127.044 66.0187 126.863 65.288 126.863 64.488C126.863 63.6773 127.044 62.9467 127.407 62.296C127.769 61.6453 128.265 61.1333 128.895 60.76C129.535 60.376 130.26 60.184 131.071 60.184C131.743 60.184 132.351 60.3387 132.895 60.648C133.449 60.9467 133.892 61.3627 134.223 61.896L133.999 62.296V60.376H135.455V68.632C135.455 69.3787 135.279 70.0453 134.927 70.632C134.575 71.2187 134.084 71.6773 133.455 72.008C132.836 72.3493 132.127 72.52 131.327 72.52ZM131.215 67.352C131.727 67.352 132.185 67.224 132.591 66.968C133.007 66.712 133.337 66.3707 133.583 65.944C133.828 65.5067 133.951 65.0213 133.951 64.488C133.951 63.9653 133.828 63.4853 133.583 63.048C133.337 62.6107 133.007 62.264 132.591 62.008C132.185 61.752 131.727 61.624 131.215 61.624C130.692 61.624 130.217 61.752 129.791 62.008C129.364 62.264 129.028 62.6107 128.783 63.048C128.548 63.4747 128.431 63.9547 128.431 64.488C128.431 65.0213 128.548 65.5067 128.783 65.944C129.028 66.3707 129.359 66.712 129.775 66.968C130.201 67.224 130.681 67.352 131.215 67.352ZM141.729 69.192C140.897 69.192 140.156 68.9947 139.505 68.6C138.855 68.2053 138.343 67.6667 137.969 66.984C137.596 66.2907 137.409 65.5173 137.409 64.664C137.409 63.8 137.591 63.032 137.953 62.36C138.327 61.688 138.828 61.16 139.457 60.776C140.097 60.3813 140.812 60.184 141.601 60.184C142.241 60.184 142.807 60.3013 143.297 60.536C143.799 60.76 144.22 61.0693 144.561 61.464C144.913 61.848 145.18 62.2907 145.361 62.792C145.553 63.2827 145.649 63.7947 145.649 64.328C145.649 64.4453 145.639 64.5787 145.617 64.728C145.607 64.8667 145.591 65 145.569 65.128H138.497V63.848H144.705L144.001 64.424C144.097 63.8693 144.044 63.3733 143.841 62.936C143.639 62.4987 143.34 62.152 142.945 61.896C142.551 61.64 142.103 61.512 141.601 61.512C141.1 61.512 140.641 61.64 140.225 61.896C139.809 62.152 139.484 62.52 139.249 63C139.025 63.4693 138.935 64.0293 138.977 64.68C138.935 65.3093 139.031 65.864 139.265 66.344C139.511 66.8133 139.852 67.1813 140.289 67.448C140.737 67.704 141.223 67.832 141.745 67.832C142.321 67.832 142.807 67.6987 143.201 67.432C143.596 67.1653 143.916 66.824 144.161 66.408L145.409 67.048C145.239 67.4427 144.972 67.8053 144.609 68.136C144.257 68.456 143.836 68.712 143.345 68.904C142.865 69.096 142.327 69.192 141.729 69.192ZM150.355 69V60.376H151.811V61.96L151.651 61.736C151.854 61.2453 152.163 60.8827 152.579 60.648C152.995 60.4027 153.502 60.28 154.099 60.28H154.627V61.688H153.875C153.267 61.688 152.776 61.88 152.403 62.264C152.03 62.6373 151.843 63.1707 151.843 63.864V69H150.355ZM159.917 69.192C159.085 69.192 158.344 68.9947 157.693 68.6C157.042 68.2053 156.53 67.6667 156.157 66.984C155.784 66.2907 155.597 65.5173 155.597 64.664C155.597 63.8 155.778 63.032 156.141 62.36C156.514 61.688 157.016 61.16 157.645 60.776C158.285 60.3813 159 60.184 159.789 60.184C160.429 60.184 160.994 60.3013 161.485 60.536C161.986 60.76 162.408 61.0693 162.749 61.464C163.101 61.848 163.368 62.2907 163.549 62.792C163.741 63.2827 163.837 63.7947 163.837 64.328C163.837 64.4453 163.826 64.5787 163.805 64.728C163.794 64.8667 163.778 65 163.757 65.128H156.685V63.848H162.893L162.189 64.424C162.285 63.8693 162.232 63.3733 162.029 62.936C161.826 62.4987 161.528 62.152 161.133 61.896C160.738 61.64 160.29 61.512 159.789 61.512C159.288 61.512 158.829 61.64 158.413 61.896C157.997 62.152 157.672 62.52 157.437 63C157.213 63.4693 157.122 64.0293 157.165 64.68C157.122 65.3093 157.218 65.864 157.453 66.344C157.698 66.8133 158.04 67.1813 158.477 67.448C158.925 67.704 159.41 67.832 159.933 67.832C160.509 67.832 160.994 67.6987 161.389 67.432C161.784 67.1653 162.104 66.824 162.349 66.408L163.597 67.048C163.426 67.4427 163.16 67.8053 162.797 68.136C162.445 68.456 162.024 68.712 161.533 68.904C161.053 69.096 160.514 69.192 159.917 69.192ZM165.777 72.2V60.376H167.233V62.232L167.041 61.864C167.361 61.352 167.798 60.9467 168.353 60.648C168.908 60.3387 169.542 60.184 170.257 60.184C171.068 60.184 171.793 60.3813 172.433 60.776C173.084 61.1707 173.596 61.7093 173.969 62.392C174.342 63.064 174.529 63.832 174.529 64.696C174.529 65.5387 174.342 66.3013 173.969 66.984C173.596 67.6667 173.084 68.2053 172.433 68.6C171.793 68.9947 171.062 69.192 170.241 69.192C169.548 69.192 168.913 69.0373 168.337 68.728C167.772 68.4187 167.334 67.9813 167.025 67.416L167.265 67.16V72.2H165.777ZM170.129 67.752C170.673 67.752 171.158 67.6187 171.585 67.352C172.012 67.0853 172.342 66.7227 172.577 66.264C172.822 65.7947 172.945 65.272 172.945 64.696C172.945 64.0987 172.822 63.576 172.577 63.128C172.342 62.6693 172.012 62.3067 171.585 62.04C171.158 61.7627 170.673 61.624 170.129 61.624C169.585 61.624 169.094 61.7573 168.657 62.024C168.23 62.2907 167.889 62.6587 167.633 63.128C167.388 63.5867 167.265 64.1093 167.265 64.696C167.265 65.272 167.388 65.7947 167.633 66.264C167.889 66.7227 168.23 67.0853 168.657 67.352C169.094 67.6187 169.585 67.752 170.129 67.752ZM180.576 69.192C179.744 69.192 178.992 69 178.32 68.616C177.648 68.2213 177.115 67.6827 176.72 67C176.325 66.3173 176.128 65.544 176.128 64.68C176.128 63.816 176.32 63.048 176.704 62.376C177.099 61.704 177.632 61.1707 178.304 60.776C178.976 60.3813 179.733 60.184 180.576 60.184C181.408 60.184 182.16 60.3813 182.832 60.776C183.504 61.16 184.032 61.688 184.416 62.36C184.811 63.032 185.008 63.8053 185.008 64.68C185.008 65.5547 184.805 66.3333 184.4 67.016C183.995 67.688 183.456 68.2213 182.784 68.616C182.123 69 181.387 69.192 180.576 69.192ZM180.576 67.752C181.109 67.752 181.589 67.6187 182.016 67.352C182.453 67.0853 182.795 66.7173 183.04 66.248C183.296 65.7787 183.424 65.256 183.424 64.68C183.424 64.0933 183.296 63.576 183.04 63.128C182.795 62.6693 182.453 62.3067 182.016 62.04C181.589 61.7627 181.109 61.624 180.576 61.624C180.032 61.624 179.541 61.7627 179.104 62.04C178.677 62.3067 178.336 62.6693 178.08 63.128C177.824 63.576 177.696 64.0933 177.696 64.68C177.696 65.256 177.824 65.7787 178.08 66.248C178.336 66.7173 178.677 67.0853 179.104 67.352C179.541 67.6187 180.032 67.752 180.576 67.752ZM186.949 69V60.376H188.405V61.96L188.245 61.736C188.448 61.2453 188.757 60.8827 189.173 60.648C189.589 60.4027 190.096 60.28 190.693 60.28H191.221V61.688H190.469C189.861 61.688 189.37 61.88 188.997 62.264C188.624 62.6373 188.437 63.1707 188.437 63.864V69H186.949ZM196.125 69.096C195.282 69.096 194.631 68.856 194.173 68.376C193.725 67.896 193.501 67.2187 193.501 66.344V61.8H191.933V60.376H192.253C192.637 60.376 192.941 60.2587 193.165 60.024C193.389 59.7893 193.501 59.48 193.501 59.096V58.392H194.989V60.376H196.925V61.8H194.989V66.296C194.989 66.584 195.031 66.8347 195.117 67.048C195.213 67.2613 195.367 67.432 195.581 67.56C195.794 67.6773 196.077 67.736 196.429 67.736C196.503 67.736 196.594 67.7307 196.701 67.72C196.818 67.7093 196.925 67.6987 197.021 67.688V69C196.882 69.032 196.727 69.0533 196.557 69.064C196.386 69.0853 196.242 69.096 196.125 69.096ZM202.053 69.192C201.189 69.192 200.437 68.9787 199.797 68.552C199.157 68.1253 198.703 67.5493 198.437 66.824L199.621 66.248C199.866 66.76 200.202 67.1653 200.629 67.464C201.055 67.7627 201.53 67.912 202.053 67.912C202.522 67.912 202.911 67.8 203.221 67.576C203.53 67.352 203.685 67.0587 203.685 66.696C203.685 66.44 203.61 66.2373 203.461 66.088C203.322 65.928 203.151 65.8053 202.949 65.72C202.746 65.624 202.559 65.5547 202.389 65.512L201.093 65.144C200.314 64.92 199.743 64.6 199.381 64.184C199.029 63.768 198.853 63.2827 198.853 62.728C198.853 62.216 198.981 61.7733 199.237 61.4C199.503 61.016 199.861 60.7173 200.309 60.504C200.767 60.2907 201.279 60.184 201.845 60.184C202.602 60.184 203.279 60.376 203.877 60.76C204.485 61.144 204.917 61.6827 205.173 62.376L203.957 62.936C203.765 62.488 203.477 62.136 203.093 61.88C202.709 61.6133 202.277 61.48 201.797 61.48C201.359 61.48 201.013 61.592 200.757 61.816C200.501 62.0293 200.373 62.3013 200.373 62.632C200.373 62.8773 200.437 63.08 200.565 63.24C200.693 63.3893 200.847 63.5067 201.029 63.592C201.21 63.6667 201.386 63.7307 201.557 63.784L202.965 64.2C203.669 64.4027 204.213 64.7173 204.597 65.144C204.991 65.5707 205.189 66.0827 205.189 66.68C205.189 67.16 205.055 67.592 204.789 67.976C204.522 68.36 204.154 68.6587 203.685 68.872C203.215 69.0853 202.671 69.192 202.053 69.192Z" fill="#212528"/>
<rect x="29.5" y="44.5" width="199" height="39" rx="19.5" stroke="#F699FF" shape-rendering="crispEdges"/>
</g>
<g filter="url(#filter1_d_4255_23019)">
<rect x="309" y="44" width="180" height="40" rx="20" fill="white" shape-rendering="crispEdges"/>
<path d="M330 61.2H333V71H330V61.2ZM335.6 57H338.4V71H335.6V57ZM341.2 65H344V71H341.2V65Z" fill="#5D6164"/>
<path d="M358.328 69V57.08H362.536C363.325 57.08 364.019 57.2293 364.616 57.528C365.213 57.8267 365.677 58.2533 366.008 58.808C366.349 59.3627 366.52 60.0133 366.52 60.76C366.52 61.5067 366.349 62.1573 366.008 62.712C365.677 63.256 365.213 63.6827 364.616 63.992C364.029 64.2907 363.336 64.44 362.536 64.44H359.896V69H358.328ZM359.896 63H362.584C363.064 63 363.48 62.9093 363.832 62.728C364.184 62.5467 364.456 62.2853 364.648 61.944C364.84 61.6027 364.936 61.208 364.936 60.76C364.936 60.3013 364.84 59.9067 364.648 59.576C364.456 59.2347 364.184 58.9733 363.832 58.792C363.48 58.6107 363.064 58.52 362.584 58.52H359.896V63ZM372.12 69.192C371.288 69.192 370.547 68.9947 369.896 68.6C369.245 68.2053 368.733 67.6667 368.36 66.984C367.987 66.2907 367.8 65.5173 367.8 64.664C367.8 63.8 367.981 63.032 368.344 62.36C368.717 61.688 369.219 61.16 369.848 60.776C370.488 60.3813 371.203 60.184 371.992 60.184C372.632 60.184 373.197 60.3013 373.688 60.536C374.189 60.76 374.611 61.0693 374.952 61.464C375.304 61.848 375.571 62.2907 375.752 62.792C375.944 63.2827 376.04 63.7947 376.04 64.328C376.04 64.4453 376.029 64.5787 376.008 64.728C375.997 64.8667 375.981 65 375.96 65.128H368.888V63.848H375.096L374.392 64.424C374.488 63.8693 374.435 63.3733 374.232 62.936C374.029 62.4987 373.731 62.152 373.336 61.896C372.941 61.64 372.493 61.512 371.992 61.512C371.491 61.512 371.032 61.64 370.616 61.896C370.2 62.152 369.875 62.52 369.64 63C369.416 63.4693 369.325 64.0293 369.368 64.68C369.325 65.3093 369.421 65.864 369.656 66.344C369.901 66.8133 370.243 67.1813 370.68 67.448C371.128 67.704 371.613 67.832 372.136 67.832C372.712 67.832 373.197 67.6987 373.592 67.432C373.987 67.1653 374.307 66.824 374.552 66.408L375.8 67.048C375.629 67.4427 375.363 67.8053 375 68.136C374.648 68.456 374.227 68.712 373.736 68.904C373.256 69.096 372.717 69.192 372.12 69.192ZM377.98 69V60.376H379.436V61.96L379.276 61.736C379.479 61.2453 379.788 60.8827 380.204 60.648C380.62 60.4027 381.127 60.28 381.724 60.28H382.252V61.688H381.5C380.892 61.688 380.401 61.88 380.028 62.264C379.655 62.6373 379.468 63.1707 379.468 63.864V69H377.98ZM384.486 69V61.8H382.838V60.376H384.486V59.768C384.486 59.1493 384.619 58.6267 384.886 58.2C385.163 57.7733 385.526 57.448 385.974 57.224C386.433 57 386.939 56.888 387.494 56.888C387.611 56.888 387.739 56.8987 387.878 56.92C388.027 56.9307 388.15 56.9467 388.246 56.968V58.296C388.161 58.2747 388.059 58.264 387.942 58.264C387.825 58.2533 387.734 58.248 387.67 58.248C387.179 58.248 386.774 58.3653 386.454 58.6C386.145 58.8347 385.99 59.224 385.99 59.768V60.376H388.038V61.8H385.99V69H384.486ZM393.623 69.192C392.791 69.192 392.039 69 391.367 68.616C390.695 68.2213 390.162 67.6827 389.767 67C389.372 66.3173 389.175 65.544 389.175 64.68C389.175 63.816 389.367 63.048 389.751 62.376C390.146 61.704 390.679 61.1707 391.351 60.776C392.023 60.3813 392.78 60.184 393.623 60.184C394.455 60.184 395.207 60.3813 395.879 60.776C396.551 61.16 397.079 61.688 397.463 62.36C397.858 63.032 398.055 63.8053 398.055 64.68C398.055 65.5547 397.852 66.3333 397.447 67.016C397.042 67.688 396.503 68.2213 395.831 68.616C395.17 69 394.434 69.192 393.623 69.192ZM393.623 67.752C394.156 67.752 394.636 67.6187 395.063 67.352C395.5 67.0853 395.842 66.7173 396.087 66.248C396.343 65.7787 396.471 65.256 396.471 64.68C396.471 64.0933 396.343 63.576 396.087 63.128C395.842 62.6693 395.5 62.3067 395.063 62.04C394.636 61.7627 394.156 61.624 393.623 61.624C393.079 61.624 392.588 61.7627 392.151 62.04C391.724 62.3067 391.383 62.6693 391.127 63.128C390.871 63.576 390.743 64.0933 390.743 64.68C390.743 65.256 390.871 65.7787 391.127 66.248C391.383 66.7173 391.724 67.0853 392.151 67.352C392.588 67.6187 393.079 67.752 393.623 67.752ZM399.996 69V60.376H401.452V61.96L401.292 61.736C401.494 61.2453 401.804 60.8827 402.22 60.648C402.636 60.4027 403.142 60.28 403.74 60.28H404.268V61.688H403.516C402.908 61.688 402.417 61.88 402.044 62.264C401.67 62.6373 401.484 63.1707 401.484 63.864V69H399.996ZM405.59 69V60.376H407.046V62.136L406.838 61.864C407.051 61.32 407.392 60.904 407.862 60.616C408.331 60.328 408.859 60.184 409.446 60.184C410.118 60.184 410.72 60.3707 411.254 60.744C411.798 61.1173 412.171 61.608 412.374 62.216L411.958 62.232C412.182 61.56 412.56 61.0533 413.094 60.712C413.627 60.36 414.219 60.184 414.87 60.184C415.467 60.184 416.006 60.3227 416.486 60.6C416.976 60.8773 417.366 61.2613 417.654 61.752C417.942 62.2427 418.086 62.7973 418.086 63.416V69H416.582V63.896C416.582 63.416 416.496 63.0107 416.326 62.68C416.155 62.3493 415.92 62.0933 415.622 61.912C415.334 61.72 414.992 61.624 414.598 61.624C414.214 61.624 413.867 61.72 413.558 61.912C413.259 62.0933 413.019 62.3547 412.838 62.696C412.667 63.0267 412.582 63.4267 412.582 63.896V69H411.078V63.896C411.078 63.416 410.992 63.0107 410.822 62.68C410.651 62.3493 410.416 62.0933 410.118 61.912C409.83 61.72 409.488 61.624 409.094 61.624C408.71 61.624 408.363 61.72 408.054 61.912C407.755 62.0933 407.515 62.3547 407.334 62.696C407.163 63.0267 407.078 63.4267 407.078 63.896V69H405.59ZM422.727 69.192C422.162 69.192 421.66 69.0907 421.223 68.888C420.796 68.6747 420.46 68.3867 420.215 68.024C419.97 67.6507 419.847 67.224 419.847 66.744C419.847 66.2853 419.943 65.8747 420.135 65.512C420.338 65.1387 420.647 64.824 421.063 64.568C421.49 64.312 422.023 64.1307 422.663 64.024L425.863 63.496V64.744L422.999 65.224C422.444 65.32 422.039 65.496 421.783 65.752C421.538 66.008 421.415 66.3227 421.415 66.696C421.415 67.048 421.554 67.3413 421.831 67.576C422.119 67.8107 422.476 67.928 422.903 67.928C423.447 67.928 423.916 67.816 424.311 67.592C424.716 67.3573 425.031 67.0427 425.255 66.648C425.49 66.2533 425.607 65.816 425.607 65.336V63.144C425.607 62.6747 425.431 62.296 425.079 62.008C424.738 61.7093 424.284 61.56 423.719 61.56C423.228 61.56 422.791 61.688 422.407 61.944C422.034 62.1893 421.756 62.52 421.575 62.936L420.279 62.264C420.439 61.8693 420.695 61.5173 421.047 61.208C421.399 60.888 421.81 60.6373 422.279 60.456C422.748 60.2747 423.239 60.184 423.751 60.184C424.412 60.184 424.994 60.312 425.495 60.568C425.996 60.8133 426.386 61.16 426.663 61.608C426.951 62.0453 427.095 62.5573 427.095 63.144V69H425.639V67.368L425.911 67.464C425.73 67.8053 425.484 68.104 425.175 68.36C424.866 68.616 424.503 68.8187 424.087 68.968C423.671 69.1173 423.218 69.192 422.727 69.192ZM429.402 69V60.376H430.858V62.056L430.618 61.912C430.831 61.368 431.173 60.9467 431.642 60.648C432.122 60.3387 432.682 60.184 433.322 60.184C433.941 60.184 434.49 60.3227 434.97 60.6C435.461 60.8773 435.845 61.2613 436.122 61.752C436.41 62.2427 436.554 62.7973 436.554 63.416V69H435.05V63.896C435.05 63.416 434.965 63.0107 434.794 62.68C434.623 62.3493 434.378 62.0933 434.058 61.912C433.749 61.72 433.391 61.624 432.986 61.624C432.581 61.624 432.218 61.72 431.898 61.912C431.589 62.0933 431.343 62.3547 431.162 62.696C430.981 63.0267 430.89 63.4267 430.89 63.896V69H429.402ZM442.683 69.192C441.841 69.192 441.089 68.9947 440.427 68.6C439.777 68.2053 439.265 67.6667 438.891 66.984C438.518 66.3013 438.331 65.5333 438.331 64.68C438.331 63.816 438.518 63.048 438.891 62.376C439.265 61.704 439.777 61.1707 440.427 60.776C441.089 60.3813 441.841 60.184 442.683 60.184C443.249 60.184 443.777 60.2853 444.267 60.488C444.758 60.6907 445.19 60.9627 445.563 61.304C445.937 61.6453 446.209 62.0453 446.379 62.504L445.051 63.144C444.849 62.696 444.539 62.3333 444.123 62.056C443.707 61.768 443.227 61.624 442.683 61.624C442.161 61.624 441.686 61.7573 441.259 62.024C440.843 62.2907 440.513 62.6533 440.267 63.112C440.022 63.5707 439.899 64.0987 439.899 64.696C439.899 65.272 440.022 65.7947 440.267 66.264C440.513 66.7227 440.843 67.0853 441.259 67.352C441.686 67.6187 442.161 67.752 442.683 67.752C443.227 67.752 443.707 67.6133 444.123 67.336C444.539 67.048 444.849 66.6693 445.051 66.2L446.379 66.872C446.209 67.32 445.937 67.72 445.563 68.072C445.19 68.4133 444.758 68.6853 444.267 68.888C443.777 69.0907 443.249 69.192 442.683 69.192ZM452.292 69.192C451.46 69.192 450.719 68.9947 450.068 68.6C449.417 68.2053 448.905 67.6667 448.532 66.984C448.159 66.2907 447.972 65.5173 447.972 64.664C447.972 63.8 448.153 63.032 448.516 62.36C448.889 61.688 449.391 61.16 450.02 60.776C450.66 60.3813 451.375 60.184 452.164 60.184C452.804 60.184 453.369 60.3013 453.86 60.536C454.361 60.76 454.783 61.0693 455.124 61.464C455.476 61.848 455.743 62.2907 455.924 62.792C456.116 63.2827 456.212 63.7947 456.212 64.328C456.212 64.4453 456.201 64.5787 456.18 64.728C456.169 64.8667 456.153 65 456.132 65.128H449.06V63.848H455.268L454.564 64.424C454.66 63.8693 454.607 63.3733 454.404 62.936C454.201 62.4987 453.903 62.152 453.508 61.896C453.113 61.64 452.665 61.512 452.164 61.512C451.663 61.512 451.204 61.64 450.788 61.896C450.372 62.152 450.047 62.52 449.812 63C449.588 63.4693 449.497 64.0293 449.54 64.68C449.497 65.3093 449.593 65.864 449.828 66.344C450.073 66.8133 450.415 67.1813 450.852 67.448C451.3 67.704 451.785 67.832 452.308 67.832C452.884 67.832 453.369 67.6987 453.764 67.432C454.159 67.1653 454.479 66.824 454.724 66.408L455.972 67.048C455.801 67.4427 455.535 67.8053 455.172 68.136C454.82 68.456 454.399 68.712 453.908 68.904C453.428 69.096 452.889 69.192 452.292 69.192Z" fill="#212528"/>
<rect x="309.5" y="44.5" width="179" height="39" rx="19.5" stroke="#F699FF" shape-rendering="crispEdges"/>
</g>
<g filter="url(#filter2_d_4255_23019)">
<rect x="344" y="180" width="180" height="40" rx="20" fill="white" shape-rendering="crispEdges"/>
<path d="M371 205C371 205.55 371.45 206 372 206C372.55 206 373 205.55 373 205C373 204.45 372.55 204 372 204C371.45 204 371 204.45 371 205ZM371 191V195H373V193.08C376.39 193.57 379 196.47 379 200C379 203.87 375.87 207 372 207C368.13 207 365 203.87 365 200C365 198.32 365.59 196.78 366.58 195.58L372 201L373.41 199.59L366.61 192.79V192.81C364.42 194.45 363 197.05 363 200C363 204.97 367.02 209 372 209C376.97 209 381 204.97 381 200C381 195.03 376.97 191 372 191H371ZM378 200C378 199.45 377.55 199 377 199C376.45 199 376 199.45 376 200C376 200.55 376.45 201 377 201C377.55 201 378 200.55 378 200ZM366 200C366 200.55 366.45 201 367 201C367.55 201 368 200.55 368 200C368 199.45 367.55 199 367 199C366.45 199 366 199.45 366 200Z" fill="#5D6164"/>
<path d="M395.52 205L392.176 193.08H393.824L396.624 203.576H396.24L399.152 193.08H400.8L403.696 203.576H403.296L406.112 193.08H407.76L404.416 205H402.672L399.76 194.552H400.176L397.264 205H395.52ZM412.592 205.192C411.76 205.192 411.008 205 410.336 204.616C409.664 204.221 409.13 203.683 408.736 203C408.341 202.317 408.144 201.544 408.144 200.68C408.144 199.816 408.336 199.048 408.72 198.376C409.114 197.704 409.648 197.171 410.32 196.776C410.992 196.381 411.749 196.184 412.592 196.184C413.424 196.184 414.176 196.381 414.848 196.776C415.52 197.16 416.048 197.688 416.432 198.36C416.826 199.032 417.024 199.805 417.024 200.68C417.024 201.555 416.821 202.333 416.416 203.016C416.01 203.688 415.472 204.221 414.8 204.616C414.138 205 413.402 205.192 412.592 205.192ZM412.592 203.752C413.125 203.752 413.605 203.619 414.032 203.352C414.469 203.085 414.81 202.717 415.056 202.248C415.312 201.779 415.44 201.256 415.44 200.68C415.44 200.093 415.312 199.576 415.056 199.128C414.81 198.669 414.469 198.307 414.032 198.04C413.605 197.763 413.125 197.624 412.592 197.624C412.048 197.624 411.557 197.763 411.12 198.04C410.693 198.307 410.352 198.669 410.096 199.128C409.84 199.576 409.712 200.093 409.712 200.68C409.712 201.256 409.84 201.779 410.096 202.248C410.352 202.717 410.693 203.085 411.12 203.352C411.557 203.619 412.048 203.752 412.592 203.752ZM418.965 205V196.376H420.421V197.96L420.261 197.736C420.463 197.245 420.773 196.883 421.189 196.648C421.605 196.403 422.111 196.28 422.709 196.28H423.237V197.688H422.485C421.877 197.688 421.386 197.88 421.013 198.264C420.639 198.637 420.453 199.171 420.453 199.864V205H418.965ZM424.558 205V192.888H426.046V201.192L425.438 201.048L430.014 196.376H431.918L428.606 199.848L432.142 205H430.382L427.15 200.328L428.078 200.28L425.566 202.904L426.046 201.816V205H424.558ZM433.48 205V196.376H434.968V205H433.48ZM433.48 195V193.08H434.968V195H433.48ZM437.277 205V196.376H438.733V198.056L438.493 197.912C438.706 197.368 439.048 196.947 439.517 196.648C439.997 196.339 440.557 196.184 441.197 196.184C441.816 196.184 442.365 196.323 442.845 196.6C443.336 196.877 443.72 197.261 443.997 197.752C444.285 198.243 444.429 198.797 444.429 199.416V205H442.925V199.896C442.925 199.416 442.84 199.011 442.669 198.68C442.498 198.349 442.253 198.093 441.933 197.912C441.624 197.72 441.266 197.624 440.861 197.624C440.456 197.624 440.093 197.72 439.773 197.912C439.464 198.093 439.218 198.355 439.037 198.696C438.856 199.027 438.765 199.427 438.765 199.896V205H437.277ZM450.67 208.52C450.062 208.52 449.497 208.424 448.974 208.232C448.462 208.04 448.02 207.773 447.646 207.432C447.284 207.101 447.006 206.712 446.814 206.264L448.206 205.624C448.356 206.029 448.638 206.371 449.054 206.648C449.481 206.936 450.014 207.08 450.654 207.08C451.145 207.08 451.588 206.984 451.982 206.792C452.388 206.611 452.708 206.333 452.942 205.96C453.177 205.597 453.294 205.155 453.294 204.632V202.696L453.566 202.984C453.268 203.571 452.836 204.019 452.27 204.328C451.716 204.637 451.102 204.792 450.43 204.792C449.62 204.792 448.894 204.605 448.254 204.232C447.614 203.848 447.113 203.331 446.75 202.68C446.388 202.019 446.206 201.288 446.206 200.488C446.206 199.677 446.388 198.947 446.75 198.296C447.113 197.645 447.609 197.133 448.238 196.76C448.878 196.376 449.604 196.184 450.414 196.184C451.086 196.184 451.694 196.339 452.238 196.648C452.793 196.947 453.236 197.363 453.566 197.896L453.342 198.296V196.376H454.798V204.632C454.798 205.379 454.622 206.045 454.27 206.632C453.918 207.219 453.428 207.677 452.798 208.008C452.18 208.349 451.47 208.52 450.67 208.52ZM450.558 203.352C451.07 203.352 451.529 203.224 451.934 202.968C452.35 202.712 452.681 202.371 452.926 201.944C453.172 201.507 453.294 201.021 453.294 200.488C453.294 199.965 453.172 199.485 452.926 199.048C452.681 198.611 452.35 198.264 451.934 198.008C451.529 197.752 451.07 197.624 450.558 197.624C450.036 197.624 449.561 197.752 449.134 198.008C448.708 198.264 448.372 198.611 448.126 199.048C447.892 199.475 447.774 199.955 447.774 200.488C447.774 201.021 447.892 201.507 448.126 201.944C448.372 202.371 448.702 202.712 449.118 202.968C449.545 203.224 450.025 203.352 450.558 203.352ZM460.047 205V193.08H461.615V198.392H467.583V193.08H469.167V205H467.583V199.832H461.615V205H460.047ZM475.732 205.192C474.9 205.192 474.148 205 473.476 204.616C472.804 204.221 472.271 203.683 471.876 203C471.482 202.317 471.284 201.544 471.284 200.68C471.284 199.816 471.476 199.048 471.86 198.376C472.255 197.704 472.788 197.171 473.46 196.776C474.132 196.381 474.89 196.184 475.732 196.184C476.564 196.184 477.316 196.381 477.988 196.776C478.66 197.16 479.188 197.688 479.572 198.36C479.967 199.032 480.164 199.805 480.164 200.68C480.164 201.555 479.962 202.333 479.556 203.016C479.151 203.688 478.612 204.221 477.94 204.616C477.279 205 476.543 205.192 475.732 205.192ZM475.732 203.752C476.266 203.752 476.746 203.619 477.172 203.352C477.61 203.085 477.951 202.717 478.196 202.248C478.452 201.779 478.58 201.256 478.58 200.68C478.58 200.093 478.452 199.576 478.196 199.128C477.951 198.669 477.61 198.307 477.172 198.04C476.746 197.763 476.266 197.624 475.732 197.624C475.188 197.624 474.698 197.763 474.26 198.04C473.834 198.307 473.492 198.669 473.236 199.128C472.98 199.576 472.852 200.093 472.852 200.68C472.852 201.256 472.98 201.779 473.236 202.248C473.492 202.717 473.834 203.085 474.26 203.352C474.698 203.619 475.188 203.752 475.732 203.752ZM485.161 205.192C484.542 205.192 483.982 205.048 483.481 204.76C482.99 204.472 482.606 204.072 482.329 203.56C482.062 203.037 481.929 202.44 481.929 201.768V196.376H483.417V201.608C483.417 202.035 483.502 202.408 483.673 202.728C483.854 203.048 484.1 203.299 484.409 203.48C484.729 203.661 485.092 203.752 485.497 203.752C485.902 203.752 486.26 203.661 486.569 203.48C486.889 203.299 487.134 203.037 487.305 202.696C487.486 202.355 487.577 201.949 487.577 201.48V196.376H489.081V205H487.625V203.32L487.865 203.464C487.662 204.008 487.316 204.435 486.825 204.744C486.345 205.043 485.79 205.192 485.161 205.192ZM491.386 205V196.376H492.842V197.96L492.682 197.736C492.885 197.245 493.194 196.883 493.61 196.648C494.026 196.403 494.533 196.28 495.13 196.28H495.658V197.688H494.906C494.298 197.688 493.808 197.88 493.434 198.264C493.061 198.637 492.874 199.171 492.874 199.864V205H491.386ZM500.068 205.192C499.204 205.192 498.452 204.979 497.812 204.552C497.172 204.125 496.719 203.549 496.452 202.824L497.636 202.248C497.881 202.76 498.217 203.165 498.644 203.464C499.071 203.763 499.545 203.912 500.068 203.912C500.537 203.912 500.927 203.8 501.236 203.576C501.545 203.352 501.7 203.059 501.7 202.696C501.7 202.44 501.625 202.237 501.476 202.088C501.337 201.928 501.167 201.805 500.964 201.72C500.761 201.624 500.575 201.555 500.404 201.512L499.108 201.144C498.329 200.92 497.759 200.6 497.396 200.184C497.044 199.768 496.868 199.283 496.868 198.728C496.868 198.216 496.996 197.773 497.252 197.4C497.519 197.016 497.876 196.717 498.324 196.504C498.783 196.291 499.295 196.184 499.86 196.184C500.617 196.184 501.295 196.376 501.892 196.76C502.5 197.144 502.932 197.683 503.188 198.376L501.972 198.936C501.78 198.488 501.492 198.136 501.108 197.88C500.724 197.613 500.292 197.48 499.812 197.48C499.375 197.48 499.028 197.592 498.772 197.816C498.516 198.029 498.388 198.301 498.388 198.632C498.388 198.877 498.452 199.08 498.58 199.24C498.708 199.389 498.863 199.507 499.044 199.592C499.225 199.667 499.401 199.731 499.572 199.784L500.98 200.2C501.684 200.403 502.228 200.717 502.612 201.144C503.007 201.571 503.204 202.083 503.204 202.68C503.204 203.16 503.071 203.592 502.804 203.976C502.537 204.36 502.169 204.659 501.7 204.872C501.231 205.085 500.687 205.192 500.068 205.192Z" fill="#212528"/>
<rect x="344.5" y="180.5" width="179" height="39" rx="19.5" stroke="#F699FF" shape-rendering="crispEdges"/>
</g>
<g filter="url(#filter3_d_4255_23019)">
<rect x="16" y="180" width="180" height="40" rx="20" fill="white" shape-rendering="crispEdges"/>
<g clip-path="url(#clip0_4255_23019)">
<path d="M53.41 199.58L44.41 190.58C44.05 190.22 43.55 190 43 190H36C34.9 190 34 190.9 34 192V199C34 199.55 34.22 200.05 34.59 200.42L43.59 209.42C43.95 209.78 44.45 210 45 210C45.55 210 46.05 209.78 46.41 209.41L53.41 202.41C53.78 202.05 54 201.55 54 201C54 200.45 53.77 199.94 53.41 199.58ZM45 208.01L36 199V192H43V191.99L52 200.99L45 208.01Z" fill="#5D6164"/>
<path d="M38.5 196C39.3284 196 40 195.328 40 194.5C40 193.672 39.3284 193 38.5 193C37.6716 193 37 193.672 37 194.5C37 195.328 37.6716 196 38.5 196Z" fill="#5D6164"/>
</g>
<path d="M67.408 205V194.52H64.176V193.08H72.176V194.52H68.992V205H67.408ZM75.0863 205.192C74.5209 205.192 74.0196 205.091 73.5823 204.888C73.1556 204.675 72.8196 204.387 72.5743 204.024C72.3289 203.651 72.2063 203.224 72.2063 202.744C72.2063 202.285 72.3023 201.875 72.4943 201.512C72.6969 201.139 73.0063 200.824 73.4223 200.568C73.8489 200.312 74.3823 200.131 75.0223 200.024L78.2223 199.496V200.744L75.3583 201.224C74.8036 201.32 74.3983 201.496 74.1423 201.752C73.8969 202.008 73.7743 202.323 73.7743 202.696C73.7743 203.048 73.9129 203.341 74.1903 203.576C74.4783 203.811 74.8356 203.928 75.2623 203.928C75.8063 203.928 76.2756 203.816 76.6703 203.592C77.0756 203.357 77.3903 203.043 77.6143 202.648C77.8489 202.253 77.9663 201.816 77.9663 201.336V199.144C77.9663 198.675 77.7903 198.296 77.4383 198.008C77.0969 197.709 76.6436 197.56 76.0783 197.56C75.5876 197.56 75.1503 197.688 74.7663 197.944C74.3929 198.189 74.1156 198.52 73.9343 198.936L72.6383 198.264C72.7983 197.869 73.0543 197.517 73.4062 197.208C73.7583 196.888 74.1689 196.637 74.6383 196.456C75.1076 196.275 75.5983 196.184 76.1102 196.184C76.7716 196.184 77.3529 196.312 77.8543 196.568C78.3556 196.813 78.7449 197.16 79.0223 197.608C79.3103 198.045 79.4543 198.557 79.4543 199.144V205H77.9983V203.368L78.2703 203.464C78.0889 203.805 77.8436 204.104 77.5343 204.36C77.2249 204.616 76.8623 204.819 76.4463 204.968C76.0303 205.117 75.5769 205.192 75.0863 205.192ZM85.8734 208.52C85.2654 208.52 84.7 208.424 84.1774 208.232C83.6654 208.04 83.2227 207.773 82.8494 207.432C82.4867 207.101 82.2094 206.712 82.0174 206.264L83.4094 205.624C83.5587 206.029 83.8414 206.371 84.2574 206.648C84.684 206.936 85.2174 207.08 85.8574 207.08C86.348 207.08 86.7907 206.984 87.1854 206.792C87.5907 206.611 87.9107 206.333 88.1454 205.96C88.38 205.597 88.4974 205.155 88.4974 204.632V202.696L88.7694 202.984C88.4707 203.571 88.0387 204.019 87.4734 204.328C86.9187 204.637 86.3054 204.792 85.6334 204.792C84.8227 204.792 84.0974 204.605 83.4574 204.232C82.8174 203.848 82.316 203.331 81.9534 202.68C81.5907 202.019 81.4094 201.288 81.4094 200.488C81.4094 199.677 81.5907 198.947 81.9534 198.296C82.316 197.645 82.812 197.133 83.4414 196.76C84.0814 196.376 84.8067 196.184 85.6174 196.184C86.2894 196.184 86.8974 196.339 87.4414 196.648C87.996 196.947 88.4387 197.363 88.7694 197.896L88.5454 198.296V196.376H90.0014V204.632C90.0014 205.379 89.8254 206.045 89.4734 206.632C89.1214 207.219 88.6307 207.677 88.0014 208.008C87.3827 208.349 86.6734 208.52 85.8734 208.52ZM85.7614 203.352C86.2734 203.352 86.732 203.224 87.1374 202.968C87.5534 202.712 87.884 202.371 88.1294 201.944C88.3747 201.507 88.4974 201.021 88.4974 200.488C88.4974 199.965 88.3747 199.485 88.1294 199.048C87.884 198.611 87.5534 198.264 87.1374 198.008C86.732 197.752 86.2734 197.624 85.7614 197.624C85.2387 197.624 84.764 197.752 84.3374 198.008C83.9107 198.264 83.5747 198.611 83.3294 199.048C83.0947 199.475 82.9774 199.955 82.9774 200.488C82.9774 201.021 83.0947 201.507 83.3294 201.944C83.5747 202.371 83.9054 202.712 84.3214 202.968C84.748 203.224 85.228 203.352 85.7614 203.352ZM97.6019 205.192C97.0365 205.192 96.5352 205.091 96.0979 204.888C95.6712 204.675 95.3352 204.387 95.0899 204.024C94.8445 203.651 94.7219 203.224 94.7219 202.744C94.7219 202.285 94.8179 201.875 95.0099 201.512C95.2125 201.139 95.5219 200.824 95.9379 200.568C96.3645 200.312 96.8979 200.131 97.5379 200.024L100.738 199.496V200.744L97.8739 201.224C97.3192 201.32 96.9139 201.496 96.6579 201.752C96.4125 202.008 96.2899 202.323 96.2899 202.696C96.2899 203.048 96.4285 203.341 96.7059 203.576C96.9939 203.811 97.3512 203.928 97.7779 203.928C98.3219 203.928 98.7912 203.816 99.1859 203.592C99.5912 203.357 99.9059 203.043 100.13 202.648C100.365 202.253 100.482 201.816 100.482 201.336V199.144C100.482 198.675 100.306 198.296 99.9539 198.008C99.6125 197.709 99.1592 197.56 98.5939 197.56C98.1032 197.56 97.6659 197.688 97.2819 197.944C96.9085 198.189 96.6312 198.52 96.4499 198.936L95.1539 198.264C95.3139 197.869 95.5699 197.517 95.9219 197.208C96.2739 196.888 96.6845 196.637 97.1539 196.456C97.6232 196.275 98.1139 196.184 98.6259 196.184C99.2872 196.184 99.8685 196.312 100.37 196.568C100.871 196.813 101.261 197.16 101.538 197.608C101.826 198.045 101.97 198.557 101.97 199.144V205H100.514V203.368L100.786 203.464C100.605 203.805 100.359 204.104 100.05 204.36C99.7405 204.616 99.3779 204.819 98.9619 204.968C98.5459 205.117 98.0925 205.192 97.6019 205.192ZM104.277 205V196.376H105.733V198.056L105.493 197.912C105.706 197.368 106.048 196.947 106.517 196.648C106.997 196.339 107.557 196.184 108.197 196.184C108.816 196.184 109.365 196.323 109.845 196.6C110.336 196.877 110.72 197.261 110.997 197.752C111.285 198.243 111.429 198.797 111.429 199.416V205H109.925V199.896C109.925 199.416 109.84 199.011 109.669 198.68C109.498 198.349 109.253 198.093 108.933 197.912C108.624 197.72 108.266 197.624 107.861 197.624C107.456 197.624 107.093 197.72 106.773 197.912C106.464 198.093 106.218 198.355 106.037 198.696C105.856 199.027 105.765 199.427 105.765 199.896V205H104.277ZM116.086 205.192C115.521 205.192 115.02 205.091 114.582 204.888C114.156 204.675 113.82 204.387 113.574 204.024C113.329 203.651 113.206 203.224 113.206 202.744C113.206 202.285 113.302 201.875 113.494 201.512C113.697 201.139 114.006 200.824 114.422 200.568C114.849 200.312 115.382 200.131 116.022 200.024L119.222 199.496V200.744L116.358 201.224C115.804 201.32 115.398 201.496 115.142 201.752C114.897 202.008 114.774 202.323 114.774 202.696C114.774 203.048 114.913 203.341 115.19 203.576C115.478 203.811 115.836 203.928 116.262 203.928C116.806 203.928 117.276 203.816 117.67 203.592C118.076 203.357 118.39 203.043 118.614 202.648C118.849 202.253 118.966 201.816 118.966 201.336V199.144C118.966 198.675 118.79 198.296 118.438 198.008C118.097 197.709 117.644 197.56 117.078 197.56C116.588 197.56 116.15 197.688 115.766 197.944C115.393 198.189 115.116 198.52 114.934 198.936L113.638 198.264C113.798 197.869 114.054 197.517 114.406 197.208C114.758 196.888 115.169 196.637 115.638 196.456C116.108 196.275 116.598 196.184 117.11 196.184C117.772 196.184 118.353 196.312 118.854 196.568C119.356 196.813 119.745 197.16 120.022 197.608C120.31 198.045 120.454 198.557 120.454 199.144V205H118.998V203.368L119.27 203.464C119.089 203.805 118.844 204.104 118.534 204.36C118.225 204.616 117.862 204.819 117.446 204.968C117.03 205.117 116.577 205.192 116.086 205.192ZM122.761 205V192.888H124.249V205H122.761ZM127.022 208.52C126.83 208.52 126.638 208.504 126.446 208.472C126.254 208.451 126.073 208.403 125.902 208.328V207C126.02 207.011 126.164 207.032 126.334 207.064C126.516 207.096 126.692 207.112 126.862 207.112C127.364 207.112 127.742 207 127.998 206.776C128.265 206.552 128.516 206.173 128.75 205.64L129.294 204.344L129.262 205.64L125.582 196.376H127.198L130.062 203.736H129.582L132.43 196.376H134.078L130.19 206.024C130.009 206.483 129.774 206.904 129.486 207.288C129.209 207.672 128.868 207.971 128.462 208.184C128.057 208.408 127.577 208.52 127.022 208.52ZM138.906 205.096C138.063 205.096 137.413 204.856 136.954 204.376C136.506 203.896 136.282 203.219 136.282 202.344V197.8H134.714V196.376H135.034C135.418 196.376 135.722 196.259 135.946 196.024C136.17 195.789 136.282 195.48 136.282 195.096V194.392H137.77V196.376H139.706V197.8H137.77V202.296C137.77 202.584 137.813 202.835 137.898 203.048C137.994 203.261 138.149 203.432 138.362 203.56C138.575 203.677 138.858 203.736 139.21 203.736C139.285 203.736 139.375 203.731 139.482 203.72C139.599 203.709 139.706 203.699 139.802 203.688V205C139.663 205.032 139.509 205.053 139.338 205.064C139.167 205.085 139.023 205.096 138.906 205.096ZM141.746 205V196.376H143.234V205H141.746ZM141.746 195V193.08H143.234V195H141.746ZM149.543 205.192C148.7 205.192 147.948 204.995 147.287 204.6C146.636 204.205 146.124 203.667 145.751 202.984C145.377 202.301 145.191 201.533 145.191 200.68C145.191 199.816 145.377 199.048 145.751 198.376C146.124 197.704 146.636 197.171 147.287 196.776C147.948 196.381 148.7 196.184 149.543 196.184C150.108 196.184 150.636 196.285 151.127 196.488C151.617 196.691 152.049 196.963 152.423 197.304C152.796 197.645 153.068 198.045 153.239 198.504L151.911 199.144C151.708 198.696 151.399 198.333 150.983 198.056C150.567 197.768 150.087 197.624 149.543 197.624C149.02 197.624 148.545 197.757 148.119 198.024C147.703 198.291 147.372 198.653 147.127 199.112C146.881 199.571 146.759 200.099 146.759 200.696C146.759 201.272 146.881 201.795 147.127 202.264C147.372 202.723 147.703 203.085 148.119 203.352C148.545 203.619 149.02 203.752 149.543 203.752C150.087 203.752 150.567 203.613 150.983 203.336C151.399 203.048 151.708 202.669 151.911 202.2L153.239 202.872C153.068 203.32 152.796 203.72 152.423 204.072C152.049 204.413 151.617 204.685 151.127 204.888C150.636 205.091 150.108 205.192 149.543 205.192ZM158.271 205.192C157.407 205.192 156.655 204.979 156.015 204.552C155.375 204.125 154.922 203.549 154.655 202.824L155.839 202.248C156.085 202.76 156.421 203.165 156.847 203.464C157.274 203.763 157.749 203.912 158.271 203.912C158.741 203.912 159.13 203.8 159.439 203.576C159.749 203.352 159.903 203.059 159.903 202.696C159.903 202.44 159.829 202.237 159.679 202.088C159.541 201.928 159.37 201.805 159.167 201.72C158.965 201.624 158.778 201.555 158.607 201.512L157.311 201.144C156.533 200.92 155.962 200.6 155.599 200.184C155.247 199.768 155.071 199.283 155.071 198.728C155.071 198.216 155.199 197.773 155.455 197.4C155.722 197.016 156.079 196.717 156.527 196.504C156.986 196.291 157.498 196.184 158.063 196.184C158.821 196.184 159.498 196.376 160.095 196.76C160.703 197.144 161.135 197.683 161.391 198.376L160.175 198.936C159.983 198.488 159.695 198.136 159.311 197.88C158.927 197.613 158.495 197.48 158.015 197.48C157.578 197.48 157.231 197.592 156.975 197.816C156.719 198.029 156.591 198.301 156.591 198.632C156.591 198.877 156.655 199.08 156.783 199.24C156.911 199.389 157.066 199.507 157.247 199.592C157.429 199.667 157.605 199.731 157.775 199.784L159.183 200.2C159.887 200.403 160.431 200.717 160.815 201.144C161.21 201.571 161.407 202.083 161.407 202.68C161.407 203.16 161.274 203.592 161.007 203.976C160.741 204.36 160.373 204.659 159.903 204.872C159.434 205.085 158.89 205.192 158.271 205.192Z" fill="#212528"/>
<rect x="16.5" y="180.5" width="179" height="39" rx="19.5" stroke="#F699FF" shape-rendering="crispEdges"/>
</g>
<g filter="url(#filter4_d_4255_23019)">
<rect x="49" y="316" width="180" height="40" rx="20" fill="white" shape-rendering="crispEdges"/>
<path d="M84 329V343H70V329H84ZM84 327H70C68.9 327 68 327.9 68 329V343C68 344.1 68.9 345 70 345H84C85.1 345 86 344.1 86 343V329C86 327.9 85.1 327 84 327Z" fill="#5D6164"/>
<path d="M79 341H72V339H79V341ZM82 337H72V335H82V337ZM82 333H72V331H82V333Z" fill="#5D6164"/>
<path d="M103.816 341.192C102.973 341.192 102.195 341.043 101.48 340.744C100.776 340.435 100.157 340.003 99.624 339.448C99.1013 338.893 98.696 338.243 98.408 337.496C98.12 336.749 97.976 335.933 97.976 335.048C97.976 334.152 98.12 333.331 98.408 332.584C98.696 331.837 99.1013 331.187 99.624 330.632C100.147 330.077 100.765 329.651 101.48 329.352C102.195 329.043 102.973 328.888 103.816 328.888C104.637 328.888 105.373 329.032 106.024 329.32C106.685 329.608 107.24 329.981 107.688 330.44C108.147 330.899 108.472 331.389 108.664 331.912L107.224 332.568C106.947 331.907 106.515 331.373 105.928 330.968C105.341 330.552 104.637 330.344 103.816 330.344C102.984 330.344 102.243 330.541 101.592 330.936C100.952 331.331 100.451 331.88 100.088 332.584C99.7253 333.288 99.544 334.109 99.544 335.048C99.544 335.976 99.7253 336.792 100.088 337.496C100.451 338.2 100.952 338.749 101.592 339.144C102.243 339.539 102.984 339.736 103.816 339.736C104.637 339.736 105.341 339.533 105.928 339.128C106.515 338.712 106.947 338.173 107.224 337.512L108.664 338.168C108.472 338.691 108.147 339.181 107.688 339.64C107.24 340.099 106.685 340.472 106.024 340.76C105.373 341.048 104.637 341.192 103.816 341.192ZM112.993 341.192C112.427 341.192 111.926 341.091 111.489 340.888C111.062 340.675 110.726 340.387 110.481 340.024C110.235 339.651 110.113 339.224 110.113 338.744C110.113 338.285 110.209 337.875 110.401 337.512C110.603 337.139 110.913 336.824 111.329 336.568C111.755 336.312 112.289 336.131 112.929 336.024L116.129 335.496V336.744L113.265 337.224C112.71 337.32 112.305 337.496 112.049 337.752C111.803 338.008 111.681 338.323 111.681 338.696C111.681 339.048 111.819 339.341 112.097 339.576C112.385 339.811 112.742 339.928 113.169 339.928C113.713 339.928 114.182 339.816 114.577 339.592C114.982 339.357 115.297 339.043 115.521 338.648C115.755 338.253 115.873 337.816 115.873 337.336V335.144C115.873 334.675 115.697 334.296 115.345 334.008C115.003 333.709 114.55 333.56 113.985 333.56C113.494 333.56 113.057 333.688 112.673 333.944C112.299 334.189 112.022 334.52 111.841 334.936L110.545 334.264C110.705 333.869 110.961 333.517 111.312 333.208C111.665 332.888 112.075 332.637 112.545 332.456C113.014 332.275 113.505 332.184 114.016 332.184C114.678 332.184 115.259 332.312 115.761 332.568C116.262 332.813 116.651 333.16 116.929 333.608C117.217 334.045 117.361 334.557 117.361 335.144V341H115.905V339.368L116.177 339.464C115.995 339.805 115.75 340.104 115.441 340.36C115.131 340.616 114.769 340.819 114.353 340.968C113.937 341.117 113.483 341.192 112.993 341.192ZM119.668 341V328.888H121.156V341H119.668ZM123.465 341V328.888H124.953V341H123.465ZM130.027 341V328.888H131.515V341H130.027ZM137.92 341.192C137.088 341.192 136.336 341 135.664 340.616C134.992 340.221 134.459 339.683 134.064 339C133.669 338.317 133.472 337.544 133.472 336.68C133.472 335.816 133.664 335.048 134.048 334.376C134.443 333.704 134.976 333.171 135.648 332.776C136.32 332.381 137.077 332.184 137.92 332.184C138.752 332.184 139.504 332.381 140.176 332.776C140.848 333.16 141.376 333.688 141.76 334.36C142.155 335.032 142.352 335.805 142.352 336.68C142.352 337.555 142.149 338.333 141.744 339.016C141.339 339.688 140.8 340.221 140.128 340.616C139.467 341 138.731 341.192 137.92 341.192ZM137.92 339.752C138.453 339.752 138.933 339.619 139.36 339.352C139.797 339.085 140.139 338.717 140.384 338.248C140.64 337.779 140.768 337.256 140.768 336.68C140.768 336.093 140.64 335.576 140.384 335.128C140.139 334.669 139.797 334.307 139.36 334.04C138.933 333.763 138.453 333.624 137.92 333.624C137.376 333.624 136.885 333.763 136.448 334.04C136.021 334.307 135.68 334.669 135.424 335.128C135.168 335.576 135.04 336.093 135.04 336.68C135.04 337.256 135.168 337.779 135.424 338.248C135.68 338.717 136.021 339.085 136.448 339.352C136.885 339.619 137.376 339.752 137.92 339.752ZM148.405 344.52C147.797 344.52 147.231 344.424 146.709 344.232C146.197 344.04 145.754 343.773 145.381 343.432C145.018 343.101 144.741 342.712 144.549 342.264L145.941 341.624C146.09 342.029 146.373 342.371 146.789 342.648C147.215 342.936 147.749 343.08 148.389 343.08C148.879 343.08 149.322 342.984 149.717 342.792C150.122 342.611 150.442 342.333 150.677 341.96C150.911 341.597 151.029 341.155 151.029 340.632V338.696L151.301 338.984C151.002 339.571 150.57 340.019 150.005 340.328C149.45 340.637 148.837 340.792 148.165 340.792C147.354 340.792 146.629 340.605 145.989 340.232C145.349 339.848 144.847 339.331 144.485 338.68C144.122 338.019 143.941 337.288 143.941 336.488C143.941 335.677 144.122 334.947 144.485 334.296C144.847 333.645 145.343 333.133 145.973 332.76C146.613 332.376 147.338 332.184 148.149 332.184C148.821 332.184 149.429 332.339 149.973 332.648C150.527 332.947 150.97 333.363 151.301 333.896L151.077 334.296V332.376H152.533V340.632C152.533 341.379 152.357 342.045 152.005 342.632C151.653 343.219 151.162 343.677 150.533 344.008C149.914 344.349 149.205 344.52 148.405 344.52ZM148.293 339.352C148.805 339.352 149.263 339.224 149.669 338.968C150.085 338.712 150.415 338.371 150.661 337.944C150.906 337.507 151.029 337.021 151.029 336.488C151.029 335.965 150.906 335.485 150.661 335.048C150.415 334.611 150.085 334.264 149.669 334.008C149.263 333.752 148.805 333.624 148.293 333.624C147.77 333.624 147.295 333.752 146.869 334.008C146.442 334.264 146.106 334.611 145.861 335.048C145.626 335.475 145.509 335.955 145.509 336.488C145.509 337.021 145.626 337.507 145.861 337.944C146.106 338.371 146.437 338.712 146.853 338.968C147.279 339.224 147.759 339.352 148.293 339.352ZM157.928 341.192C157.064 341.192 156.312 340.979 155.672 340.552C155.032 340.125 154.578 339.549 154.312 338.824L155.496 338.248C155.741 338.76 156.077 339.165 156.504 339.464C156.93 339.763 157.405 339.912 157.928 339.912C158.397 339.912 158.786 339.8 159.096 339.576C159.405 339.352 159.56 339.059 159.56 338.696C159.56 338.44 159.485 338.237 159.336 338.088C159.197 337.928 159.026 337.805 158.824 337.72C158.621 337.624 158.434 337.555 158.264 337.512L156.968 337.144C156.189 336.92 155.618 336.6 155.256 336.184C154.904 335.768 154.728 335.283 154.728 334.728C154.728 334.216 154.856 333.773 155.112 333.4C155.378 333.016 155.736 332.717 156.184 332.504C156.642 332.291 157.154 332.184 157.72 332.184C158.477 332.184 159.154 332.376 159.752 332.76C160.36 333.144 160.792 333.683 161.048 334.376L159.832 334.936C159.64 334.488 159.352 334.136 158.968 333.88C158.584 333.613 158.152 333.48 157.672 333.48C157.234 333.48 156.888 333.592 156.632 333.816C156.376 334.029 156.248 334.301 156.248 334.632C156.248 334.877 156.312 335.08 156.44 335.24C156.568 335.389 156.722 335.507 156.904 335.592C157.085 335.667 157.261 335.731 157.432 335.784L158.84 336.2C159.544 336.403 160.088 336.717 160.472 337.144C160.866 337.571 161.064 338.083 161.064 338.68C161.064 339.16 160.93 339.592 160.664 339.976C160.397 340.36 160.029 340.659 159.56 340.872C159.09 341.085 158.546 341.192 157.928 341.192Z" fill="#212528"/>
<rect x="49.5" y="316.5" width="179" height="39" rx="19.5" stroke="#F699FF" shape-rendering="crispEdges"/>
</g>
<g filter="url(#filter5_d_4255_23019)">
<rect x="309" y="316" width="180" height="40" rx="20" fill="white" shape-rendering="crispEdges"/>
<path d="M340 328V335H330.17L329 336.17V328H340ZM341 326H328C327.45 326 327 326.45 327 327V341L331 337H341C341.55 337 342 336.55 342 336V327C342 326.45 341.55 326 341 326ZM346 330H344V339H331V341C331 341.55 331.45 342 332 342H343L347 346V331C347 330.45 346.55 330 346 330Z" fill="#5D6164"/>
<path d="M358.328 341V329.08H365.88V330.52H359.896V334.376H365.32V335.816H359.896V341H358.328ZM371.183 341.192C370.351 341.192 369.609 340.995 368.959 340.6C368.308 340.205 367.796 339.667 367.423 338.984C367.049 338.291 366.863 337.517 366.863 336.664C366.863 335.8 367.044 335.032 367.407 334.36C367.78 333.688 368.281 333.16 368.911 332.776C369.551 332.381 370.265 332.184 371.055 332.184C371.695 332.184 372.26 332.301 372.751 332.536C373.252 332.76 373.673 333.069 374.015 333.464C374.367 333.848 374.633 334.291 374.815 334.792C375.007 335.283 375.102 335.795 375.102 336.328C375.102 336.445 375.092 336.579 375.071 336.728C375.06 336.867 375.044 337 375.023 337.128H367.951V335.848H374.159L373.455 336.424C373.551 335.869 373.497 335.373 373.295 334.936C373.092 334.499 372.793 334.152 372.399 333.896C372.004 333.64 371.556 333.512 371.055 333.512C370.553 333.512 370.095 333.64 369.679 333.896C369.263 334.152 368.937 334.52 368.703 335C368.479 335.469 368.388 336.029 368.431 336.68C368.388 337.309 368.484 337.864 368.719 338.344C368.964 338.813 369.305 339.181 369.743 339.448C370.191 339.704 370.676 339.832 371.199 339.832C371.775 339.832 372.26 339.699 372.655 339.432C373.049 339.165 373.369 338.824 373.615 338.408L374.863 339.048C374.692 339.443 374.425 339.805 374.062 340.136C373.711 340.456 373.289 340.712 372.799 340.904C372.319 341.096 371.78 341.192 371.183 341.192ZM381.011 341.192C380.179 341.192 379.437 340.995 378.787 340.6C378.136 340.205 377.624 339.667 377.251 338.984C376.877 338.291 376.691 337.517 376.691 336.664C376.691 335.8 376.872 335.032 377.235 334.36C377.608 333.688 378.109 333.16 378.739 332.776C379.379 332.381 380.093 332.184 380.883 332.184C381.523 332.184 382.088 332.301 382.579 332.536C383.08 332.76 383.501 333.069 383.843 333.464C384.195 333.848 384.461 334.291 384.643 334.792C384.835 335.283 384.931 335.795 384.931 336.328C384.931 336.445 384.92 336.579 384.899 336.728C384.888 336.867 384.872 337 384.851 337.128H377.779V335.848H383.987L383.283 336.424C383.379 335.869 383.325 335.373 383.123 334.936C382.92 334.499 382.621 334.152 382.227 333.896C381.832 333.64 381.384 333.512 380.883 333.512C380.381 333.512 379.923 333.64 379.507 333.896C379.091 334.152 378.765 334.52 378.531 335C378.307 335.469 378.216 336.029 378.259 336.68C378.216 337.309 378.312 337.864 378.547 338.344C378.792 338.813 379.133 339.181 379.571 339.448C380.019 339.704 380.504 339.832 381.027 339.832C381.603 339.832 382.088 339.699 382.483 339.432C382.877 339.165 383.197 338.824 383.443 338.408L384.691 339.048C384.52 339.443 384.253 339.805 383.891 340.136C383.539 340.456 383.117 340.712 382.627 340.904C382.147 341.096 381.608 341.192 381.011 341.192ZM390.791 341.192C389.98 341.192 389.249 340.995 388.599 340.6C387.959 340.205 387.452 339.667 387.079 338.984C386.705 338.301 386.519 337.539 386.519 336.696C386.519 335.832 386.705 335.064 387.079 334.392C387.452 333.709 387.959 333.171 388.599 332.776C389.249 332.381 389.98 332.184 390.791 332.184C391.505 332.184 392.14 332.339 392.695 332.648C393.249 332.947 393.687 333.352 394.007 333.864L393.767 334.232V328.888H395.271V341H393.815V339.16L394.007 339.416C393.708 339.981 393.271 340.419 392.695 340.728C392.129 341.037 391.495 341.192 390.791 341.192ZM390.919 339.752C391.463 339.752 391.948 339.619 392.375 339.352C392.801 339.085 393.137 338.723 393.383 338.264C393.639 337.795 393.767 337.272 393.767 336.696C393.767 336.109 393.639 335.587 393.383 335.128C393.137 334.659 392.801 334.291 392.375 334.024C391.948 333.757 391.463 333.624 390.919 333.624C390.385 333.624 389.9 333.763 389.463 334.04C389.036 334.307 388.7 334.669 388.455 335.128C388.209 335.576 388.087 336.099 388.087 336.696C388.087 337.272 388.209 337.795 388.455 338.264C388.7 338.723 389.036 339.085 389.463 339.352C389.889 339.619 390.375 339.752 390.919 339.752ZM402.038 341.192C401.345 341.192 400.71 341.037 400.134 340.728C399.569 340.419 399.131 339.981 398.822 339.416L399.03 339.16V341H397.574V328.888H399.062V334.232L398.838 333.864C399.158 333.352 399.595 332.947 400.15 332.648C400.705 332.339 401.339 332.184 402.054 332.184C402.865 332.184 403.59 332.381 404.23 332.776C404.881 333.171 405.393 333.709 405.766 334.392C406.139 335.064 406.326 335.832 406.326 336.696C406.326 337.539 406.139 338.301 405.766 338.984C405.393 339.667 404.881 340.205 404.23 340.6C403.59 340.995 402.859 341.192 402.038 341.192ZM401.926 339.752C402.47 339.752 402.955 339.619 403.382 339.352C403.809 339.085 404.139 338.723 404.374 338.264C404.619 337.795 404.742 337.272 404.742 336.696C404.742 336.099 404.619 335.576 404.374 335.128C404.139 334.669 403.809 334.307 403.382 334.04C402.955 333.763 402.47 333.624 401.926 333.624C401.382 333.624 400.891 333.757 400.454 334.024C400.027 334.291 399.686 334.659 399.43 335.128C399.185 335.587 399.062 336.109 399.062 336.696C399.062 337.272 399.185 337.795 399.43 338.264C399.686 338.723 400.027 339.085 400.454 339.352C400.891 339.619 401.382 339.752 401.926 339.752ZM410.805 341.192C410.24 341.192 409.738 341.091 409.301 340.888C408.874 340.675 408.538 340.387 408.293 340.024C408.048 339.651 407.925 339.224 407.925 338.744C407.925 338.285 408.021 337.875 408.213 337.512C408.416 337.139 408.725 336.824 409.141 336.568C409.568 336.312 410.101 336.131 410.741 336.024L413.941 335.496V336.744L411.077 337.224C410.522 337.32 410.117 337.496 409.861 337.752C409.616 338.008 409.493 338.323 409.493 338.696C409.493 339.048 409.632 339.341 409.909 339.576C410.197 339.811 410.554 339.928 410.981 339.928C411.525 339.928 411.994 339.816 412.389 339.592C412.794 339.357 413.109 339.043 413.333 338.648C413.568 338.253 413.685 337.816 413.685 337.336V335.144C413.685 334.675 413.509 334.296 413.157 334.008C412.816 333.709 412.362 333.56 411.797 333.56C411.306 333.56 410.869 333.688 410.485 333.944C410.112 334.189 409.834 334.52 409.653 334.936L408.357 334.264C408.517 333.869 408.773 333.517 409.125 333.208C409.477 332.888 409.888 332.637 410.357 332.456C410.826 332.275 411.317 332.184 411.829 332.184C412.49 332.184 413.072 332.312 413.573 332.568C414.074 332.813 414.464 333.16 414.741 333.608C415.029 334.045 415.173 334.557 415.173 335.144V341H413.717V339.368L413.989 339.464C413.808 339.805 413.562 340.104 413.253 340.36C412.944 340.616 412.581 340.819 412.165 340.968C411.749 341.117 411.296 341.192 410.805 341.192ZM421.48 341.192C420.637 341.192 419.885 340.995 419.224 340.6C418.573 340.205 418.061 339.667 417.688 338.984C417.315 338.301 417.128 337.533 417.128 336.68C417.128 335.816 417.315 335.048 417.688 334.376C418.061 333.704 418.573 333.171 419.224 332.776C419.885 332.381 420.637 332.184 421.48 332.184C422.045 332.184 422.573 332.285 423.064 332.488C423.555 332.691 423.987 332.963 424.36 333.304C424.733 333.645 425.005 334.045 425.176 334.504L423.848 335.144C423.645 334.696 423.336 334.333 422.92 334.056C422.504 333.768 422.024 333.624 421.48 333.624C420.957 333.624 420.483 333.757 420.056 334.024C419.64 334.291 419.309 334.653 419.064 335.112C418.819 335.571 418.696 336.099 418.696 336.696C418.696 337.272 418.819 337.795 419.064 338.264C419.309 338.723 419.64 339.085 420.056 339.352C420.483 339.619 420.957 339.752 421.48 339.752C422.024 339.752 422.504 339.613 422.92 339.336C423.336 339.048 423.645 338.669 423.848 338.2L425.176 338.872C425.005 339.32 424.733 339.72 424.36 340.072C423.987 340.413 423.555 340.685 423.064 340.888C422.573 341.091 422.045 341.192 421.48 341.192ZM427.121 341V328.888H428.609V337.192L428.001 337.048L432.577 332.376H434.481L431.169 335.848L434.705 341H432.945L429.713 336.328L430.641 336.28L428.129 338.904L428.609 337.816V341H427.121ZM439.131 341.192C438.267 341.192 437.515 340.979 436.875 340.552C436.235 340.125 435.781 339.549 435.515 338.824L436.699 338.248C436.944 338.76 437.28 339.165 437.707 339.464C438.133 339.763 438.608 339.912 439.131 339.912C439.6 339.912 439.989 339.8 440.299 339.576C440.608 339.352 440.763 339.059 440.763 338.696C440.763 338.44 440.688 338.237 440.539 338.088C440.4 337.928 440.229 337.805 440.027 337.72C439.824 337.624 439.637 337.555 439.467 337.512L438.171 337.144C437.392 336.92 436.821 336.6 436.459 336.184C436.107 335.768 435.931 335.283 435.931 334.728C435.931 334.216 436.059 333.773 436.315 333.4C436.581 333.016 436.939 332.717 437.387 332.504C437.845 332.291 438.357 332.184 438.923 332.184C439.68 332.184 440.357 332.376 440.955 332.76C441.563 333.144 441.995 333.683 442.251 334.376L441.035 334.936C440.843 334.488 440.555 334.136 440.171 333.88C439.787 333.613 439.355 333.48 438.875 333.48C438.437 333.48 438.091 333.592 437.835 333.816C437.579 334.029 437.451 334.301 437.451 334.632C437.451 334.877 437.515 335.08 437.643 335.24C437.771 335.389 437.925 335.507 438.107 335.592C438.288 335.667 438.464 335.731 438.635 335.784L440.043 336.2C440.747 336.403 441.291 336.717 441.675 337.144C442.069 337.571 442.267 338.083 442.267 338.68C442.267 339.16 442.133 339.592 441.867 339.976C441.6 340.36 441.232 340.659 440.763 340.872C440.293 341.085 439.749 341.192 439.131 341.192Z" fill="#212528"/>
<rect x="309.5" y="316.5" width="179" height="39" rx="19.5" stroke="#F699FF" shape-rendering="crispEdges"/>
</g>
<rect x="233" y="164" width="72" height="72" rx="36" fill="#F699FF"/>
<path d="M284 200.367C284 191.217 276.9 185 269 185C261.183 185 254 191.083 254 200.467C253 201.033 252.333 202.1 252.333 203.333V206.667C252.333 208.5 253.833 210 255.666 210H257.333V199.833C257.333 193.383 262.55 188.167 269 188.167C275.45 188.167 280.666 193.383 280.666 199.833V211.667H267.333V215H280.666C282.5 215 284 213.5 284 211.667V209.633C284.983 209.117 285.666 208.1 285.666 206.9V203.067C285.666 201.9 284.983 200.883 284 200.367Z" fill="black"/>
<path d="M264 203.333C264.92 203.333 265.666 202.587 265.666 201.667C265.666 200.746 264.92 200 264 200C263.079 200 262.333 200.746 262.333 201.667C262.333 202.587 263.079 203.333 264 203.333Z" fill="black"/>
<path d="M274 203.333C274.92 203.333 275.666 202.587 275.666 201.667C275.666 200.746 274.92 200 274 200C273.079 200 272.333 200.746 272.333 201.667C272.333 202.587 273.079 203.333 274 203.333Z" fill="black"/>
<path d="M279 198.383C278.2 193.633 274.066 190 269.083 190C264.033 190 258.6 194.183 259.033 200.75C263.15 199.067 266.25 195.4 267.133 190.933C269.316 195.317 273.8 198.333 279 198.383Z" fill="black"/>
<path d="M268 160C268 160.552 268.448 161 269 161C269.552 161 270 160.552 270 160H268ZM129.707 87.2929C129.317 86.9024 128.683 86.9024 128.293 87.2929L121.929 93.6569C121.538 94.0474 121.538 94.6805 121.929 95.0711C122.319 95.4616 122.953 95.4616 123.343 95.0711L129 89.4142L134.657 95.0711C135.047 95.4616 135.681 95.4616 136.071 95.0711C136.462 94.6805 136.462 94.0474 136.071 93.6569L129.707 87.2929ZM270 160V148H268V160H270ZM245 123H153V125H245V123ZM130 100V88H128V100H130ZM153 123C140.297 123 130 112.703 130 100H128C128 113.807 139.193 125 153 125V123ZM270 148C270 134.193 258.807 123 245 123V125C257.703 125 268 135.297 268 148H270Z" fill="#B3B3B3"/>
<path d="M268 160C268 160.552 268.448 161 269 161C269.552 161 270 160.552 270 160H268ZM399.707 87.2929C399.317 86.9024 398.683 86.9024 398.293 87.2929L391.929 93.6569C391.538 94.0474 391.538 94.6805 391.929 95.0711C392.319 95.4616 392.953 95.4616 393.343 95.0711L399 89.4142L404.657 95.0711C405.047 95.4616 405.681 95.4616 406.071 95.0711C406.462 94.6805 406.462 94.0474 406.071 93.6569L399.707 87.2929ZM270 160V148H268V160H270ZM293 125H375V123H293V125ZM400 100V88H398V100H400ZM375 125C388.807 125 400 113.807 400 100H398C398 112.703 387.703 123 375 123V125ZM270 148C270 135.297 280.297 125 293 125V123C279.193 123 268 134.193 268 148H270Z" fill="#B3B3B3"/>
<path d="M229 201C229.552 201 230 200.552 230 200C230 199.448 229.552 199 229 199V201ZM199.293 199.293C198.902 199.683 198.902 200.317 199.293 200.707L205.657 207.071C206.047 207.462 206.681 207.462 207.071 207.071C207.462 206.681 207.462 206.047 207.071 205.657L201.414 200L207.071 194.343C207.462 193.953 207.462 193.319 207.071 192.929C206.681 192.538 206.047 192.538 205.657 192.929L199.293 199.293ZM229 199H200V201H229V199Z" fill="#B3B3B3"/>
<path d="M309 199C308.448 199 308 199.448 308 200C308 200.552 308.448 201 309 201V199ZM340.707 200.707C341.098 200.317 341.098 199.683 340.707 199.293L334.343 192.929C333.953 192.538 333.319 192.538 332.929 192.929C332.538 193.319 332.538 193.953 332.929 194.343L338.586 200L332.929 205.657C332.538 206.047 332.538 206.681 332.929 207.071C333.319 207.462 333.953 207.462 334.343 207.071L340.707 200.707ZM309 201H340V199H309V201Z" fill="#B3B3B3"/>
<path d="M270 240C270 239.448 269.552 239 269 239C268.448 239 268 239.448 268 240H270ZM138.293 312.707C138.683 313.098 139.317 313.098 139.707 312.707L146.071 306.343C146.462 305.953 146.462 305.319 146.071 304.929C145.681 304.538 145.047 304.538 144.657 304.929L139 310.586L133.343 304.929C132.953 304.538 132.319 304.538 131.929 304.929C131.538 305.319 131.538 305.953 131.929 306.343L138.293 312.707ZM268 240V252H270V240H268ZM245 275H163V277H245V275ZM138 300V312H140V300H138ZM163 275C149.193 275 138 286.193 138 300H140C140 287.297 150.297 277 163 277V275ZM268 252C268 264.703 257.703 275 245 275V277C258.807 277 270 265.807 270 252H268Z" fill="#B3B3B3"/>
<path d="M270 240C270 239.448 269.552 239 269 239C268.448 239 268 239.448 268 240H270ZM398.293 312.707C398.683 313.098 399.317 313.098 399.707 312.707L406.071 306.343C406.462 305.953 406.462 305.319 406.071 304.929C405.681 304.538 405.047 304.538 404.657 304.929L399 310.586L393.343 304.929C392.953 304.538 392.319 304.538 391.929 304.929C391.538 305.319 391.538 305.953 391.929 306.343L398.293 312.707ZM268 240V252H270V240H268ZM293 277H375V275H293V277ZM398 300V312H400V300H398ZM375 277C387.703 277 398 287.297 398 300H400C400 286.193 388.807 275 375 275V277ZM268 252C268 265.807 279.193 277 293 277V275C280.297 275 270 264.703 270 252H268Z" fill="#B3B3B3"/>
<defs>
<filter id="filter0_d_4255_23019" x="29" y="44" width="202" height="44" filterUnits="userSpaceOnUse" color-interpolation-filters="sRGB">
<feFlood flood-opacity="0" result="BackgroundImageFix"/>
<feColorMatrix in="SourceAlpha" type="matrix" values="0 0 0 0 0 0 0 0 0 0 0 0 0 0 0 0 0 0 127 0" result="hardAlpha"/>
<feOffset dx="2" dy="4"/>
<feComposite in2="hardAlpha" operator="out"/>
<feColorMatrix type="matrix" values="0 0 0 0 0.964706 0 0 0 0 0.6 0 0 0 0 1 0 0 0 1 0"/>
<feBlend mode="normal" in2="BackgroundImageFix" result="effect1_dropShadow_4255_23019"/>
<feBlend mode="normal" in="SourceGraphic" in2="effect1_dropShadow_4255_23019" result="shape"/>
</filter>
<filter id="filter1_d_4255_23019" x="309" y="44" width="182" height="44" filterUnits="userSpaceOnUse" color-interpolation-filters="sRGB">
<feFlood flood-opacity="0" result="BackgroundImageFix"/>
<feColorMatrix in="SourceAlpha" type="matrix" values="0 0 0 0 0 0 0 0 0 0 0 0 0 0 0 0 0 0 127 0" result="hardAlpha"/>
<feOffset dx="2" dy="4"/>
<feComposite in2="hardAlpha" operator="out"/>
<feColorMatrix type="matrix" values="0 0 0 0 0.964706 0 0 0 0 0.6 0 0 0 0 1 0 0 0 1 0"/>
<feBlend mode="normal" in2="BackgroundImageFix" result="effect1_dropShadow_4255_23019"/>
<feBlend mode="normal" in="SourceGraphic" in2="effect1_dropShadow_4255_23019" result="shape"/>
</filter>
<filter id="filter2_d_4255_23019" x="344" y="180" width="182" height="44" filterUnits="userSpaceOnUse" color-interpolation-filters="sRGB">
<feFlood flood-opacity="0" result="BackgroundImageFix"/>
<feColorMatrix in="SourceAlpha" type="matrix" values="0 0 0 0 0 0 0 0 0 0 0 0 0 0 0 0 0 0 127 0" result="hardAlpha"/>
<feOffset dx="2" dy="4"/>
<feComposite in2="hardAlpha" operator="out"/>
<feColorMatrix type="matrix" values="0 0 0 0 0.964706 0 0 0 0 0.6 0 0 0 0 1 0 0 0 1 0"/>
<feBlend mode="normal" in2="BackgroundImageFix" result="effect1_dropShadow_4255_23019"/>
<feBlend mode="normal" in="SourceGraphic" in2="effect1_dropShadow_4255_23019" result="shape"/>
</filter>
<filter id="filter3_d_4255_23019" x="16" y="180" width="182" height="44" filterUnits="userSpaceOnUse" color-interpolation-filters="sRGB">
<feFlood flood-opacity="0" result="BackgroundImageFix"/>
<feColorMatrix in="SourceAlpha" type="matrix" values="0 0 0 0 0 0 0 0 0 0 0 0 0 0 0 0 0 0 127 0" result="hardAlpha"/>
<feOffset dx="2" dy="4"/>
<feComposite in2="hardAlpha" operator="out"/>
<feColorMatrix type="matrix" values="0 0 0 0 0.964706 0 0 0 0 0.6 0 0 0 0 1 0 0 0 1 0"/>
<feBlend mode="normal" in2="BackgroundImageFix" result="effect1_dropShadow_4255_23019"/>
<feBlend mode="normal" in="SourceGraphic" in2="effect1_dropShadow_4255_23019" result="shape"/>
</filter>
<filter id="filter4_d_4255_23019" x="49" y="316" width="182" height="44" filterUnits="userSpaceOnUse" color-interpolation-filters="sRGB">
<feFlood flood-opacity="0" result="BackgroundImageFix"/>
<feColorMatrix in="SourceAlpha" type="matrix" values="0 0 0 0 0 0 0 0 0 0 0 0 0 0 0 0 0 0 127 0" result="hardAlpha"/>
<feOffset dx="2" dy="4"/>
<feComposite in2="hardAlpha" operator="out"/>
<feColorMatrix type="matrix" values="0 0 0 0 0.964706 0 0 0 0 0.6 0 0 0 0 1 0 0 0 1 0"/>
<feBlend mode="normal" in2="BackgroundImageFix" result="effect1_dropShadow_4255_23019"/>
<feBlend mode="normal" in="SourceGraphic" in2="effect1_dropShadow_4255_23019" result="shape"/>
</filter>
<filter id="filter5_d_4255_23019" x="309" y="316" width="182" height="44" filterUnits="userSpaceOnUse" color-interpolation-filters="sRGB">
<feFlood flood-opacity="0" result="BackgroundImageFix"/>
<feColorMatrix in="SourceAlpha" type="matrix" values="0 0 0 0 0 0 0 0 0 0 0 0 0 0 0 0 0 0 127 0" result="hardAlpha"/>
<feOffset dx="2" dy="4"/>
<feComposite in2="hardAlpha" operator="out"/>
<feColorMatrix type="matrix" values="0 0 0 0 0.964706 0 0 0 0 0.6 0 0 0 0 1 0 0 0 1 0"/>
<feBlend mode="normal" in2="BackgroundImageFix" result="effect1_dropShadow_4255_23019"/>
<feBlend mode="normal" in="SourceGraphic" in2="effect1_dropShadow_4255_23019" result="shape"/>
</filter>
<clipPath id="clip0_4255_23019">
<rect width="24" height="24" fill="white" transform="translate(32 188)"/>
</clipPath>
</defs>
</svg>
