<svg width="66" height="68" viewBox="0 0 66 68" fill="none" xmlns="http://www.w3.org/2000/svg">
<g filter="url(#filter0_d_4255_22666)">
<rect width="64" height="64" rx="32" fill="white" shape-rendering="crispEdges"/>
<path d="M38.0621 33.3334C39.0621 33.3334 39.9421 32.7867 40.3954 31.96L45.1688 23.3067C45.6621 22.4267 45.0221 21.3334 44.0088 21.3334H24.2754L23.0221 18.6667H18.6621V21.3334H21.3288L26.1288 31.4534L24.3288 34.7067C23.3554 36.4934 24.6354 38.6667 26.6621 38.6667H42.6621V36H26.6621L28.1288 33.3334H38.0621ZM25.5421 24H41.7421L38.0621 30.6667H28.7021L25.5421 24ZM26.6621 40C25.1954 40 24.0088 41.2 24.0088 42.6667C24.0088 44.1334 25.1954 45.3334 26.6621 45.3334C28.1288 45.3334 29.3288 44.1334 29.3288 42.6667C29.3288 41.2 28.1288 40 26.6621 40ZM39.9954 40C38.5288 40 37.3421 41.2 37.3421 42.6667C37.3421 44.1334 38.5288 45.3334 39.9954 45.3334C41.4621 45.3334 42.6621 44.1334 42.6621 42.6667C42.6621 41.2 41.4621 40 39.9954 40Z" fill="black"/>
</g>
<defs>
<filter id="filter0_d_4255_22666" x="0" y="0" width="66" height="68" filterUnits="userSpaceOnUse" color-interpolation-filters="sRGB">
<feFlood flood-opacity="0" result="BackgroundImageFix"/>
<feColorMatrix in="SourceAlpha" type="matrix" values="0 0 0 0 0 0 0 0 0 0 0 0 0 0 0 0 0 0 127 0" result="hardAlpha"/>
<feOffset dx="2" dy="4"/>
<feComposite in2="hardAlpha" operator="out"/>
<feColorMatrix type="matrix" values="0 0 0 0 0 0 0 0 0 0 0 0 0 0 0 0 0 0 1 0"/>
<feBlend mode="normal" in2="BackgroundImageFix" result="effect1_dropShadow_4255_22666"/>
<feBlend mode="normal" in="SourceGraphic" in2="effect1_dropShadow_4255_22666" result="shape"/>
</filter>
</defs>
</svg>
