<svg width="66" height="68" viewBox="0 0 66 68" fill="none" xmlns="http://www.w3.org/2000/svg">
<g filter="url(#filter0_d_4255_22670)">
<rect width="64" height="64" rx="32" fill="white" shape-rendering="crispEdges"/>
<path d="M32.0003 18.6667C24.6403 18.6667 18.667 24.64 18.667 32C18.667 39.36 24.6403 45.3334 32.0003 45.3334C39.3603 45.3334 45.3337 39.36 45.3337 32C45.3337 24.64 39.3603 18.6667 32.0003 18.6667ZM32.0003 42.6667C26.1203 42.6667 21.3337 37.88 21.3337 32C21.3337 26.12 26.1203 21.3334 32.0003 21.3334C37.8803 21.3334 42.667 26.12 42.667 32C42.667 37.88 37.8803 42.6667 32.0003 42.6667ZM32.4137 30.8534C30.0537 30.2534 29.2937 29.6 29.2937 28.6267C29.2937 27.5067 30.347 26.72 32.0937 26.72C33.9337 26.72 34.627 27.6 34.6803 28.9067H36.9603C36.8937 27.12 35.8003 25.48 33.6403 24.9467V22.6667H30.5337V24.92C28.5203 25.3467 26.907 26.6534 26.907 28.6667C26.907 31.0534 28.8937 32.2534 31.787 32.9467C34.387 33.56 34.907 34.48 34.907 35.44C34.907 36.1467 34.387 37.2934 32.107 37.2934C29.9737 37.2934 29.1337 36.3334 29.0137 35.1067H26.7203C26.8537 37.3734 28.5337 38.6534 30.5337 39.0667V41.3334H33.6537V39.1067C35.6803 38.72 37.2803 37.56 37.2937 35.4134C37.2803 32.48 34.7603 31.4667 32.4137 30.8534Z" fill="black"/>
</g>
<defs>
<filter id="filter0_d_4255_22670" x="0" y="0" width="66" height="68" filterUnits="userSpaceOnUse" color-interpolation-filters="sRGB">
<feFlood flood-opacity="0" result="BackgroundImageFix"/>
<feColorMatrix in="SourceAlpha" type="matrix" values="0 0 0 0 0 0 0 0 0 0 0 0 0 0 0 0 0 0 127 0" result="hardAlpha"/>
<feOffset dx="2" dy="4"/>
<feComposite in2="hardAlpha" operator="out"/>
<feColorMatrix type="matrix" values="0 0 0 0 0 0 0 0 0 0 0 0 0 0 0 0 0 0 1 0"/>
<feBlend mode="normal" in2="BackgroundImageFix" result="effect1_dropShadow_4255_22670"/>
<feBlend mode="normal" in="SourceGraphic" in2="effect1_dropShadow_4255_22670" result="shape"/>
</filter>
</defs>
</svg>
