<svg width="74" height="77" viewBox="0 0 74 77" fill="none" xmlns="http://www.w3.org/2000/svg">
<g filter="url(#filter0_d_4255_22687)">
<rect y="0.5" width="72" height="72" rx="36" fill="#F4FF80" shape-rendering="crispEdges"/>
<path d="M49.3337 32.3333V29C49.3337 27.1666 47.8337 25.6666 46.0003 25.6666H41.0003C41.0003 22.9 38.767 20.6666 36.0003 20.6666C33.2337 20.6666 31.0003 22.9 31.0003 25.6666H26.0003C24.167 25.6666 22.667 27.1666 22.667 29V32.3333C19.9003 32.3333 17.667 34.5666 17.667 37.3333C17.667 40.1 19.9003 42.3333 22.667 42.3333V49C22.667 50.8333 24.167 52.3333 26.0003 52.3333H46.0003C47.8337 52.3333 49.3337 50.8333 49.3337 49V42.3333C52.1003 42.3333 54.3337 40.1 54.3337 37.3333C54.3337 34.5666 52.1003 32.3333 49.3337 32.3333ZM46.0003 49H26.0003V29H46.0003V49ZM31.0003 39C29.617 39 28.5003 37.8833 28.5003 36.5C28.5003 35.1166 29.617 34 31.0003 34C32.3837 34 33.5003 35.1166 33.5003 36.5C33.5003 37.8833 32.3837 39 31.0003 39ZM43.5003 36.5C43.5003 37.8833 42.3837 39 41.0003 39C39.617 39 38.5003 37.8833 38.5003 36.5C38.5003 35.1166 39.617 34 41.0003 34C42.3837 34 43.5003 35.1166 43.5003 36.5ZM29.3337 42.3333H42.667V45.6666H29.3337V42.3333Z" fill="black"/>
<path d="M57.667 19.5L58.5003 17.6666L60.3337 16.8333L58.5003 16L57.667 14.1666L56.8337 16L55.0003 16.8333L56.8337 17.6666L57.667 19.5Z" fill="black"/>
<path d="M57.667 23.5L56.8337 25.3333L55.0003 26.1666L56.8337 27L57.667 28.8333L58.5003 27L60.3337 26.1666L58.5003 25.3333L57.667 23.5Z" fill="black"/>
<path d="M52.667 19.8333L51.0003 16.1666L49.3337 19.8333L45.667 21.5L49.3337 23.1666L51.0003 26.8333L52.667 23.1666L56.3337 21.5L52.667 19.8333ZM51.6603 22.16L51.0003 23.6133L50.3403 22.16L48.887 21.5L50.3403 20.84L51.0003 19.3866L51.6603 20.84L53.1137 21.5L51.6603 22.16Z" fill="black"/>
</g>
<defs>
<filter id="filter0_d_4255_22687" x="0" y="0.5" width="74" height="76" filterUnits="userSpaceOnUse" color-interpolation-filters="sRGB">
<feFlood flood-opacity="0" result="BackgroundImageFix"/>
<feColorMatrix in="SourceAlpha" type="matrix" values="0 0 0 0 0 0 0 0 0 0 0 0 0 0 0 0 0 0 127 0" result="hardAlpha"/>
<feOffset dx="2" dy="4"/>
<feComposite in2="hardAlpha" operator="out"/>
<feColorMatrix type="matrix" values="0 0 0 0 0 0 0 0 0 0 0 0 0 0 0 0 0 0 1 0"/>
<feBlend mode="normal" in2="BackgroundImageFix" result="effect1_dropShadow_4255_22687"/>
<feBlend mode="normal" in="SourceGraphic" in2="effect1_dropShadow_4255_22687" result="shape"/>
</filter>
</defs>
</svg>
