<svg width="74" height="77" viewBox="0 0 74 77" fill="none" xmlns="http://www.w3.org/2000/svg">
<g filter="url(#filter0_d_4255_22769)">
<rect y="0.5" width="72" height="72" rx="36" fill="#26D9D9" shape-rendering="crispEdges"/>
<path d="M38.4997 31.5001V34.8334H33.4997V31.5001H29.333V28.1667H33.4997V18.1667H21.833V28.1667H25.9997V31.5001H21.833V41.5001H25.9997V44.8334H21.833V54.8334H33.4997V44.8334H29.333V41.5001H33.4997V38.1667H38.4997V41.5001H50.1663V31.5001H38.4997ZM25.1663 21.5001H30.1663V24.8334H25.1663V21.5001ZM30.1663 51.5001H25.1663V48.1667H30.1663V51.5001ZM30.1663 38.1667H25.1663V34.8334H30.1663V38.1667ZM46.833 38.1667H41.833V34.8334H46.833V38.1667Z" fill="black"/>
</g>
<defs>
<filter id="filter0_d_4255_22769" x="0" y="0.5" width="74" height="76" filterUnits="userSpaceOnUse" color-interpolation-filters="sRGB">
<feFlood flood-opacity="0" result="BackgroundImageFix"/>
<feColorMatrix in="SourceAlpha" type="matrix" values="0 0 0 0 0 0 0 0 0 0 0 0 0 0 0 0 0 0 127 0" result="hardAlpha"/>
<feOffset dx="2" dy="4"/>
<feComposite in2="hardAlpha" operator="out"/>
<feColorMatrix type="matrix" values="0 0 0 0 0 0 0 0 0 0 0 0 0 0 0 0 0 0 1 0"/>
<feBlend mode="normal" in2="BackgroundImageFix" result="effect1_dropShadow_4255_22769"/>
<feBlend mode="normal" in="SourceGraphic" in2="effect1_dropShadow_4255_22769" result="shape"/>
</filter>
</defs>
</svg>
