<svg width="74" height="76" viewBox="0 0 74 76" fill="none" xmlns="http://www.w3.org/2000/svg">
<g filter="url(#filter0_d_4255_23136)">
<rect width="72" height="72" rx="36" fill="#F699FF" shape-rendering="crispEdges"/>
<path d="M47.6667 21H24.3333C22.5 21 21 22.5 21 24.3333V47.6667C21 49.5 22.5 51 24.3333 51H47.6667C49.5 51 51 49.5 51 47.6667V24.3333C51 22.5 49.5 21 47.6667 21ZM47.6667 47.6667H24.3333V24.3333H47.6667V47.6667Z" fill="black"/>
<path d="M31 36H27.6667V44.3333H31V36Z" fill="black"/>
<path d="M44.3333 27.6667H41V44.3333H44.3333V27.6667Z" fill="black"/>
<path d="M37.6667 39.3333H34.3333V44.3333H37.6667V39.3333Z" fill="black"/>
<path d="M37.6667 32.6667H34.3333V36H37.6667V32.6667Z" fill="black"/>
</g>
<defs>
<filter id="filter0_d_4255_23136" x="0" y="0" width="74" height="76" filterUnits="userSpaceOnUse" color-interpolation-filters="sRGB">
<feFlood flood-opacity="0" result="BackgroundImageFix"/>
<feColorMatrix in="SourceAlpha" type="matrix" values="0 0 0 0 0 0 0 0 0 0 0 0 0 0 0 0 0 0 127 0" result="hardAlpha"/>
<feOffset dx="2" dy="4"/>
<feComposite in2="hardAlpha" operator="out"/>
<feColorMatrix type="matrix" values="0 0 0 0 0 0 0 0 0 0 0 0 0 0 0 0 0 0 1 0"/>
<feBlend mode="normal" in2="BackgroundImageFix" result="effect1_dropShadow_4255_23136"/>
<feBlend mode="normal" in="SourceGraphic" in2="effect1_dropShadow_4255_23136" result="shape"/>
</filter>
</defs>
</svg>
