<svg width="540" height="400" viewBox="0 0 540 400" fill="none" xmlns="http://www.w3.org/2000/svg">
<g opacity="0.4" filter="url(#filter0_f_4255_22897)">
<ellipse cx="270.198" cy="291.431" rx="179.563" ry="1.98413" fill="black"/>
</g>
<path d="M108.891 70.0022C108.891 63.8657 113.865 58.8911 120.002 58.8911H421.589C427.725 58.8911 432.7 63.8657 432.7 70.0022V277.145C432.7 278.022 431.989 278.733 431.113 278.733H110.478C109.601 278.733 108.891 278.022 108.891 277.145V70.0022Z" fill="#E2E8F0"/>
<path d="M110.875 69.6052C110.875 64.7836 114.784 60.875 119.605 60.875H421.986C426.807 60.875 430.716 64.7836 430.716 69.6052V270.399H110.875V69.6052Z" fill="#C5D8F1"/>
<path d="M70 277.939C70 277.5 70.3553 277.145 70.7937 277.145H469.206C469.644 277.145 470 277.5 470 277.939V284.288H70V277.939Z" fill="#C3D2E7"/>
<path d="M70 277.939C70 277.5 70.3553 277.145 70.7937 277.145H469.206C469.644 277.145 470 277.5 470 277.939V284.288H70V277.939Z" fill="url(#paint0_linear_4255_22897)"/>
<path d="M70 284.289H470V284.289C454.394 290.321 437.806 293.416 421.075 293.416H114.72C99.3507 293.416 84.14 290.311 70 284.289V284.289Z" fill="#C3D2E7"/>
<path d="M70 284.289H470V284.289C454.394 290.321 437.806 293.416 421.075 293.416H114.72C99.3507 293.416 84.14 290.311 70 284.289V284.289Z" fill="url(#paint1_linear_4255_22897)"/>
<path fill-rule="evenodd" clip-rule="evenodd" d="M237.076 277.145C237.28 280.247 239.861 282.701 243.016 282.701H297.381C300.535 282.701 303.116 280.247 303.32 277.145H237.076Z" fill="#C3D2E7"/>
<path fill-rule="evenodd" clip-rule="evenodd" d="M237.076 277.145C237.28 280.247 239.861 282.701 243.016 282.701H297.381C300.535 282.701 303.116 280.247 303.32 277.145H237.076Z" fill="url(#paint2_linear_4255_22897)"/>
<rect x="114.322" y="65.0088" width="312.439" height="201.398" rx="5.44319" fill="white"/>
<path d="M219.383 289.361V275.789C219.383 270.781 223.448 266.717 228.455 266.717C233.463 266.717 237.527 270.781 237.527 275.789V289.361C241.918 286.421 244.785 281.45 244.785 275.789C244.785 266.753 237.491 259.459 228.455 259.459C219.42 259.459 212.126 266.753 212.126 275.789C212.126 281.45 214.992 286.421 219.383 289.361ZM239.342 298.324C238.326 297.816 237.237 297.562 236.112 297.562H233.898V275.789C233.898 272.777 231.467 270.346 228.455 270.346C225.443 270.346 223.012 272.777 223.012 275.789V314.762L210.529 312.15C209.186 311.859 207.771 312.295 206.791 313.275C205.231 314.871 205.231 317.411 206.791 319.008L221.343 333.559C222.722 334.902 224.572 335.664 226.496 335.664H248.631C252.26 335.664 255.308 333.015 255.816 329.423L258.103 313.202C258.538 310.117 256.941 307.069 254.147 305.69L239.342 298.324Z" fill="#26D9D9"/>
<g filter="url(#filter1_dd_4255_22897)">
<ellipse cx="170.931" cy="221.598" rx="21.7728" ry="21.7728" fill="white"/>
</g>
<path d="M177.424 220.901C177.424 220.81 177.349 220.736 177.257 220.736H176.007C175.916 220.736 175.841 220.81 175.841 220.901C175.841 223.811 173.472 226.169 170.548 226.169C167.625 226.169 165.256 223.811 165.256 220.901C165.256 220.81 165.181 220.736 165.09 220.736H163.84C163.748 220.736 163.673 220.81 163.673 220.901C163.673 224.4 166.311 227.287 169.715 227.696V229.82H166.688C166.402 229.82 166.173 230.116 166.173 230.483V231.23C166.173 231.321 166.231 231.396 166.302 231.396H174.795C174.866 231.396 174.924 231.321 174.924 231.23V230.483C174.924 230.116 174.695 229.82 174.409 229.82H171.299V227.706C174.743 227.333 177.424 224.429 177.424 220.901ZM170.548 224.427C172.505 224.427 174.09 222.868 174.09 220.943V216.297C174.09 214.373 172.505 212.813 170.548 212.813C168.592 212.813 167.006 214.373 167.006 216.297V220.943C167.006 222.868 168.592 224.427 170.548 224.427ZM168.59 216.297C168.59 215.248 169.463 214.389 170.548 214.389C171.634 214.389 172.507 215.248 172.507 216.297V220.943C172.507 221.992 171.634 222.851 170.548 222.851C169.463 222.851 168.59 221.992 168.59 220.943V216.297Z" fill="#373F46"/>
<g filter="url(#filter2_dd_4255_22897)">
<ellipse cx="231.895" cy="221.598" rx="21.7728" ry="21.7728" fill="#26D9D9"/>
</g>
<path d="M233.04 215.869H226.165C225.759 215.869 225.371 216.03 225.084 216.317C224.798 216.603 224.637 216.992 224.637 217.397V225.037C224.637 225.442 224.798 225.83 225.084 226.117C225.371 226.404 225.759 226.565 226.165 226.565H238.388C238.793 226.565 239.182 226.404 239.468 226.117C239.755 225.83 239.916 225.442 239.916 225.037V222.745M229.22 229.62H235.332M232.276 226.565V229.62M239.916 215.869L236.096 219.689M236.096 215.869L239.916 219.689" stroke="black" stroke-width="2.04824" stroke-linecap="round" stroke-linejoin="round"/>
<g filter="url(#filter3_dd_4255_22897)">
<ellipse cx="292.859" cy="221.598" rx="21.7728" ry="21.7728" fill="white"/>
</g>
<path d="M287.098 215.104C286.296 215.104 285.527 215.423 284.96 215.99C284.393 216.557 284.074 217.326 284.074 218.128L284.074 229.62C284.456 229.238 284.857 228.472 285.284 228.41V218.128C285.284 217.647 285.475 217.186 285.815 216.846C286.156 216.505 286.617 216.314 287.098 216.314H295.565C296.047 216.314 296.508 216.505 296.848 216.846C297.189 217.186 297.38 217.647 297.38 218.128V226.596C297.38 227.077 297.189 227.538 296.848 227.879C296.508 228.219 296.047 228.41 295.565 228.41H294.961V229.62H295.565C296.367 229.62 297.137 229.301 297.704 228.734C298.271 228.167 298.589 227.398 298.589 226.596V225.386L301.492 227.563C301.672 227.698 301.886 227.78 302.11 227.8C302.333 227.821 302.558 227.778 302.759 227.678C302.96 227.577 303.129 227.423 303.247 227.232C303.365 227.041 303.428 226.82 303.428 226.596V218.128C303.428 217.904 303.365 217.684 303.247 217.493C303.129 217.301 302.96 217.147 302.759 217.047C302.558 216.946 302.333 216.904 302.11 216.924C301.886 216.944 301.672 217.026 301.492 217.161L298.589 219.338V218.128C298.589 217.326 298.271 216.557 297.704 215.99C297.137 215.423 296.367 215.104 295.565 215.104H287.098ZM298.589 220.85L302.218 218.128V226.596L298.589 223.874V220.85Z" fill="#373F46"/>
<path d="M285.284 228.41C284.857 228.472 284.456 229.238 284.074 229.62H294.961V228.41H285.284Z" fill="#373F46"/>
<g filter="url(#filter4_dd_4255_22897)">
<ellipse cx="353.823" cy="221.598" rx="21.7728" ry="21.7728" fill="#DE6863"/>
</g>
<path d="M364.712 222.604L361.726 225.59L358.359 224.146L358.874 221.57C358.904 221.418 358.897 221.261 358.852 221.113C358.807 220.965 358.726 220.83 358.617 220.721C358.552 220.66 358.616 220.72 358.616 220.72L358.602 220.706C358.572 220.677 358.541 220.649 358.509 220.621C358.451 220.571 358.37 220.503 358.266 220.425C358.061 220.271 357.764 220.074 357.375 219.88C356.595 219.49 355.455 219.116 353.963 219.116C352.471 219.116 351.33 219.49 350.551 219.879C350.162 220.074 349.866 220.271 349.658 220.426C349.542 220.513 349.43 220.607 349.324 220.707L349.315 220.715L349.309 220.72C349.309 220.72 349.239 220.799 349.309 220.721C349.185 220.844 349.099 221 349.059 221.17C349.019 221.34 349.027 221.517 349.082 221.683L349.527 223.019L346.086 225.477L343.214 222.604C344.414 220.998 348.005 217.007 353.963 217.007C359.92 217.007 363.512 220.998 364.712 222.604ZM356.915 221.776L356.514 223.778C356.43 224.201 356.493 224.64 356.694 225.022C356.895 225.404 357.222 225.705 357.618 225.875L360.986 227.318C361.331 227.466 361.713 227.508 362.082 227.436C362.451 227.365 362.79 227.185 363.056 226.919L366.076 223.9C366.68 223.295 366.829 222.307 366.273 221.553C365.008 219.836 360.912 215.127 353.963 215.127C347.013 215.127 342.918 219.837 341.653 221.553C341.097 222.308 341.245 223.295 341.849 223.9L344.756 226.806C345.071 227.121 345.487 227.314 345.931 227.351C346.374 227.388 346.817 227.266 347.179 227.007L350.62 224.549C350.947 224.316 351.191 223.983 351.315 223.601C351.44 223.218 351.438 222.806 351.311 222.424L351.08 221.733C351.182 221.672 351.286 221.615 351.392 221.562C351.941 221.287 352.795 220.996 353.963 220.996C355.13 220.996 355.985 221.287 356.534 221.563C356.665 221.628 356.792 221.699 356.915 221.777L356.915 221.776Z" fill="white"/>
<defs>
<filter id="filter0_f_4255_22897" x="73.1744" y="271.987" width="394.048" height="38.8889" filterUnits="userSpaceOnUse" color-interpolation-filters="sRGB">
<feFlood flood-opacity="0" result="BackgroundImageFix"/>
<feBlend mode="normal" in="SourceGraphic" in2="BackgroundImageFix" result="shape"/>
<feGaussianBlur stdDeviation="8.73016" result="effect1_foregroundBlur_4255_22897"/>
</filter>
<filter id="filter1_dd_4255_22897" x="110.242" y="141.451" width="116.19" height="126.568" filterUnits="userSpaceOnUse" color-interpolation-filters="sRGB">
<feFlood flood-opacity="0" result="BackgroundImageFix"/>
<feColorMatrix in="SourceAlpha" type="matrix" values="0 0 0 0 0 0 0 0 0 0 0 0 0 0 0 0 0 0 127 0" result="hardAlpha"/>
<feOffset dy="5.18888"/>
<feGaussianBlur stdDeviation="9.72915"/>
<feComposite in2="hardAlpha" operator="out"/>
<feColorMatrix type="matrix" values="0 0 0 0 0.00510418 0 0 0 0 0.175175 0 0 0 0 0.6125 0 0 0 0.12 0"/>
<feBlend mode="normal" in2="BackgroundImageFix" result="effect1_dropShadow_4255_22897"/>
<feColorMatrix in="SourceAlpha" type="matrix" values="0 0 0 0 0 0 0 0 0 0 0 0 0 0 0 0 0 0 127 0" result="hardAlpha"/>
<feOffset dx="-2.59444" dy="-22.0527"/>
<feGaussianBlur stdDeviation="18.1611"/>
<feComposite in2="hardAlpha" operator="out"/>
<feColorMatrix type="matrix" values="0 0 0 0 0.0477431 0 0 0 0 0.29375 0 0 0 0 0.520833 0 0 0 0.06 0"/>
<feBlend mode="normal" in2="effect1_dropShadow_4255_22897" result="effect2_dropShadow_4255_22897"/>
<feBlend mode="normal" in="SourceGraphic" in2="effect2_dropShadow_4255_22897" result="shape"/>
</filter>
<filter id="filter2_dd_4255_22897" x="171.205" y="141.451" width="116.19" height="126.568" filterUnits="userSpaceOnUse" color-interpolation-filters="sRGB">
<feFlood flood-opacity="0" result="BackgroundImageFix"/>
<feColorMatrix in="SourceAlpha" type="matrix" values="0 0 0 0 0 0 0 0 0 0 0 0 0 0 0 0 0 0 127 0" result="hardAlpha"/>
<feOffset dy="5.18888"/>
<feGaussianBlur stdDeviation="9.72915"/>
<feComposite in2="hardAlpha" operator="out"/>
<feColorMatrix type="matrix" values="0 0 0 0 0.00510418 0 0 0 0 0.175175 0 0 0 0 0.6125 0 0 0 0.12 0"/>
<feBlend mode="normal" in2="BackgroundImageFix" result="effect1_dropShadow_4255_22897"/>
<feColorMatrix in="SourceAlpha" type="matrix" values="0 0 0 0 0 0 0 0 0 0 0 0 0 0 0 0 0 0 127 0" result="hardAlpha"/>
<feOffset dx="-2.59444" dy="-22.0527"/>
<feGaussianBlur stdDeviation="18.1611"/>
<feComposite in2="hardAlpha" operator="out"/>
<feColorMatrix type="matrix" values="0 0 0 0 0.0477431 0 0 0 0 0.29375 0 0 0 0 0.520833 0 0 0 0.06 0"/>
<feBlend mode="normal" in2="effect1_dropShadow_4255_22897" result="effect2_dropShadow_4255_22897"/>
<feBlend mode="normal" in="SourceGraphic" in2="effect2_dropShadow_4255_22897" result="shape"/>
</filter>
<filter id="filter3_dd_4255_22897" x="232.169" y="141.451" width="116.19" height="126.568" filterUnits="userSpaceOnUse" color-interpolation-filters="sRGB">
<feFlood flood-opacity="0" result="BackgroundImageFix"/>
<feColorMatrix in="SourceAlpha" type="matrix" values="0 0 0 0 0 0 0 0 0 0 0 0 0 0 0 0 0 0 127 0" result="hardAlpha"/>
<feOffset dy="5.18888"/>
<feGaussianBlur stdDeviation="9.72915"/>
<feComposite in2="hardAlpha" operator="out"/>
<feColorMatrix type="matrix" values="0 0 0 0 0.00510418 0 0 0 0 0.175175 0 0 0 0 0.6125 0 0 0 0.12 0"/>
<feBlend mode="normal" in2="BackgroundImageFix" result="effect1_dropShadow_4255_22897"/>
<feColorMatrix in="SourceAlpha" type="matrix" values="0 0 0 0 0 0 0 0 0 0 0 0 0 0 0 0 0 0 127 0" result="hardAlpha"/>
<feOffset dx="-2.59444" dy="-22.0527"/>
<feGaussianBlur stdDeviation="18.1611"/>
<feComposite in2="hardAlpha" operator="out"/>
<feColorMatrix type="matrix" values="0 0 0 0 0.0477431 0 0 0 0 0.29375 0 0 0 0 0.520833 0 0 0 0.06 0"/>
<feBlend mode="normal" in2="effect1_dropShadow_4255_22897" result="effect2_dropShadow_4255_22897"/>
<feBlend mode="normal" in="SourceGraphic" in2="effect2_dropShadow_4255_22897" result="shape"/>
</filter>
<filter id="filter4_dd_4255_22897" x="293.133" y="141.451" width="116.19" height="126.568" filterUnits="userSpaceOnUse" color-interpolation-filters="sRGB">
<feFlood flood-opacity="0" result="BackgroundImageFix"/>
<feColorMatrix in="SourceAlpha" type="matrix" values="0 0 0 0 0 0 0 0 0 0 0 0 0 0 0 0 0 0 127 0" result="hardAlpha"/>
<feOffset dy="5.18888"/>
<feGaussianBlur stdDeviation="9.72915"/>
<feComposite in2="hardAlpha" operator="out"/>
<feColorMatrix type="matrix" values="0 0 0 0 0.00510418 0 0 0 0 0.175175 0 0 0 0 0.6125 0 0 0 0.12 0"/>
<feBlend mode="normal" in2="BackgroundImageFix" result="effect1_dropShadow_4255_22897"/>
<feColorMatrix in="SourceAlpha" type="matrix" values="0 0 0 0 0 0 0 0 0 0 0 0 0 0 0 0 0 0 127 0" result="hardAlpha"/>
<feOffset dx="-2.59444" dy="-22.0527"/>
<feGaussianBlur stdDeviation="18.1611"/>
<feComposite in2="hardAlpha" operator="out"/>
<feColorMatrix type="matrix" values="0 0 0 0 0.0477431 0 0 0 0 0.29375 0 0 0 0 0.520833 0 0 0 0.06 0"/>
<feBlend mode="normal" in2="effect1_dropShadow_4255_22897" result="effect2_dropShadow_4255_22897"/>
<feBlend mode="normal" in="SourceGraphic" in2="effect2_dropShadow_4255_22897" result="shape"/>
</filter>
<linearGradient id="paint0_linear_4255_22897" x1="70" y1="280.717" x2="470" y2="280.717" gradientUnits="userSpaceOnUse">
<stop stop-color="#97AAC4"/>
<stop offset="0.0295345" stop-color="#CAD4DB"/>
<stop offset="0.0625" stop-color="#BECCDE"/>
<stop offset="0.133609" stop-color="#B7C2D0" stop-opacity="0.3"/>
<stop offset="0.865967" stop-color="#B7C2D0" stop-opacity="0.3"/>
<stop offset="0.941937" stop-color="#BECCDE"/>
<stop offset="0.971275" stop-color="#CAD4DB"/>
<stop offset="0.996436" stop-color="#B7C2D0"/>
</linearGradient>
<linearGradient id="paint1_linear_4255_22897" x1="270" y1="284.289" x2="270" y2="293.416" gradientUnits="userSpaceOnUse">
<stop stop-color="#B4C9E7" stop-opacity="0.6"/>
<stop offset="1" stop-color="#AAB5C6" stop-opacity="0.6"/>
</linearGradient>
<linearGradient id="paint2_linear_4255_22897" x1="243.611" y1="280.518" x2="297.976" y2="280.518" gradientUnits="userSpaceOnUse">
<stop stop-color="#B5C2D3"/>
<stop offset="0.317518" stop-color="#CFD9E7" stop-opacity="0"/>
<stop offset="0.660584" stop-color="#CFD9E7" stop-opacity="0"/>
<stop offset="1" stop-color="#CFD9E7"/>
</linearGradient>
</defs>
</svg>
