<svg width="106" height="105" viewBox="0 0 106 105" fill="none" xmlns="http://www.w3.org/2000/svg">
<rect x="0.635986" width="104.636" height="104.636" rx="7.474" fill="white"/>
<mask id="mask0_3681_78662" style="mask-type:luminance" maskUnits="userSpaceOnUse" x="33" y="25" width="40" height="54">
<path d="M67.1839 37.7389C67.1323 37.4239 66.9583 37.1421 66.6999 36.9548C66.4414 36.7675 66.1194 36.6899 65.8039 36.7389C65.5561 36.7718 65.3268 36.8882 65.1539 37.0689L58.9139 43.2989L54.0339 33.9789C53.9611 33.839 53.8615 33.7148 53.7406 33.6134C53.6198 33.512 53.4801 33.4354 53.3297 33.388C53.1792 33.3407 53.0209 33.3234 52.8638 33.3373C52.7066 33.3512 52.5538 33.3959 52.4139 33.4689C52.202 33.5911 52.0261 33.767 51.9039 33.9789L49.2439 39.0789L42.5339 26.5589C42.4587 26.4214 42.357 26.3002 42.2348 26.2021C42.1125 26.104 41.9721 26.031 41.8216 25.9873C41.6711 25.9436 41.5134 25.9301 41.3576 25.9476C41.2019 25.965 41.0511 26.013 40.9139 26.0889C40.7511 26.1758 40.61 26.2983 40.5009 26.4471C40.3919 26.596 40.3177 26.7675 40.2839 26.9489L33.7839 68.4689L51.1339 78.2489C51.6688 78.5422 52.269 78.6959 52.8789 78.6959C53.4889 78.6959 54.0891 78.5422 54.6239 78.2489L72.1239 68.5089L67.1839 37.7389Z" fill="white"/>
</mask>
<g mask="url(#mask0_3681_78662)">
<path d="M33.7839 68.4689L40.2839 26.9489C40.3332 26.642 40.5016 26.3669 40.7525 26.1834C41.0034 25.9999 41.3165 25.9228 41.6239 25.9689C41.8055 26.0022 41.9776 26.075 42.1279 26.1821C42.2782 26.2893 42.4032 26.4281 42.4939 26.5889L49.2039 39.1189L51.8639 34.0189C51.9367 33.879 52.0364 33.7547 52.1572 33.6534C52.2781 33.552 52.4177 33.4754 52.5682 33.428C52.7187 33.3807 52.877 33.3634 53.0341 33.3773C53.1913 33.3912 53.3441 33.4359 53.4839 33.5089C53.6958 33.6311 53.8718 33.807 53.9939 34.0189L72.0939 68.4689H33.7839Z" fill="#FFA000"/>
<path opacity="0.12" d="M55.954 26.2489L24.194 23.5389V81.0589L33.784 68.4689L55.954 26.2489Z" fill="url(#paint0_linear_3681_78662)"/>
<path d="M56.2239 52.2989L49.2239 39.0889L33.7839 68.4689L56.2239 52.2989Z" fill="#F57C00"/>
<path opacity="0.2" d="M24.194 23.5389H81.714V81.0589H24.194V23.5389Z" fill="url(#paint1_linear_3681_78662)"/>
<path d="M72.1339 68.469L67.1339 37.709C67.0823 37.3939 66.9083 37.1121 66.6499 36.9248C66.3914 36.7375 66.0694 36.6599 65.7539 36.709C65.5068 36.7441 65.2782 36.8602 65.1039 37.039L33.7839 68.469L51.1339 78.249C51.6688 78.5422 52.269 78.6959 52.8789 78.6959C53.4889 78.6959 54.0891 78.5422 54.6239 78.249L72.1339 68.469Z" fill="#FFCA28"/>
<path d="M67.1839 37.7389C67.1323 37.4239 66.9583 37.1421 66.6999 36.9548C66.4414 36.7675 66.1194 36.6899 65.8039 36.7389C65.5561 36.7718 65.3268 36.8882 65.1539 37.0689L58.9139 43.2989L54.0339 33.9789C53.9611 33.839 53.8615 33.7148 53.7406 33.6134C53.6198 33.512 53.4801 33.4354 53.3297 33.388C53.1792 33.3407 53.0209 33.3234 52.8638 33.3373C52.7066 33.3512 52.5538 33.3959 52.4139 33.4689C52.202 33.5911 52.0261 33.767 51.9039 33.9789L49.2439 39.0789L42.5339 26.5589C42.4587 26.4214 42.357 26.3002 42.2348 26.2021C42.1125 26.104 41.9721 26.031 41.8216 25.9873C41.6711 25.9436 41.5134 25.9301 41.3576 25.9476C41.2019 25.965 41.0511 26.013 40.9139 26.0889C40.7511 26.1758 40.61 26.2983 40.5009 26.4471C40.3919 26.596 40.3177 26.7675 40.2839 26.9489L33.7839 68.4689L33.9639 68.5589L58.9639 43.5589L65.2039 37.3289C65.314 37.2146 65.446 37.1237 65.5921 37.0615C65.7381 36.9994 65.8952 36.9674 66.0539 36.9674C66.2126 36.9674 66.3697 36.9994 66.5158 37.0615C66.6618 37.1237 66.7938 37.2146 66.9039 37.3289C67.0887 37.5028 67.2057 37.7368 67.2339 37.9889L72.1539 68.4489H72.2139L67.1839 37.7389ZM33.8439 68.4089L40.2839 27.2489C40.3047 27.0946 40.3561 26.946 40.435 26.8117C40.514 26.6775 40.6189 26.5604 40.7437 26.4672C40.8685 26.3741 41.0107 26.3068 41.1618 26.2693C41.313 26.2318 41.4701 26.2249 41.6239 26.2489C41.8062 26.2802 41.9791 26.3522 42.1298 26.4595C42.2804 26.5669 42.4049 26.7068 42.4939 26.8689L49.2039 39.3989L51.8639 34.2989C51.9357 34.158 52.0348 34.0329 52.1556 33.9307C52.2763 33.8286 52.4161 33.7515 52.5669 33.704C52.7178 33.6565 52.8765 33.6396 53.034 33.6542C53.1914 33.6687 53.3444 33.7146 53.4839 33.7889C53.6958 33.9111 53.8718 34.087 53.9939 34.2989L58.7839 43.4089L33.8439 68.4089Z" fill="white" fill-opacity="0.2"/>
<path opacity="0.2" d="M54.624 77.909C54.0879 78.2039 53.4859 78.3586 52.874 78.3586C52.2621 78.3586 51.6601 78.2039 51.124 77.909L33.814 68.249V68.519L51.134 78.249C51.6688 78.5422 52.269 78.6959 52.879 78.6959C53.4889 78.6959 54.0891 78.5422 54.624 78.249L72.124 68.5089V68.239L54.624 77.909Z" fill="#A52714"/>
<path d="M67.1839 37.7389C67.1323 37.4239 66.9583 37.1421 66.6999 36.9548C66.4414 36.7675 66.1194 36.6899 65.8039 36.7389C65.5561 36.7718 65.3268 36.8882 65.1539 37.0689L58.9139 43.2989L54.0339 33.9789C53.9611 33.839 53.8615 33.7148 53.7406 33.6134C53.6198 33.512 53.4801 33.4354 53.3297 33.388C53.1792 33.3407 53.0209 33.3234 52.8638 33.3373C52.7066 33.3512 52.5538 33.3959 52.4139 33.4689C52.202 33.5911 52.0261 33.767 51.9039 33.9789L49.2439 39.0789L42.5339 26.5589C42.4587 26.4214 42.357 26.3002 42.2348 26.2021C42.1125 26.104 41.9721 26.031 41.8216 25.9873C41.6711 25.9436 41.5134 25.9301 41.3576 25.9476C41.2019 25.965 41.0511 26.013 40.9139 26.0889C40.7511 26.1758 40.61 26.2983 40.5009 26.4471C40.3919 26.596 40.3177 26.7675 40.2839 26.9489L33.7839 68.4689L51.1339 78.2489C51.6688 78.5422 52.269 78.6959 52.8789 78.6959C53.4889 78.6959 54.0891 78.5422 54.6239 78.2489L72.1239 68.5089L67.1839 37.7389Z" fill="url(#paint2_linear_3681_78662)"/>
</g>
<defs>
<linearGradient id="paint0_linear_3681_78662" x1="41.254" y1="54.2589" x2="38.864" y2="53.0089" gradientUnits="userSpaceOnUse">
<stop stop-color="#A52714"/>
<stop offset="0.4" stop-color="#A52714" stop-opacity="0.5"/>
<stop offset="0.8" stop-color="#A52714" stop-opacity="0"/>
</linearGradient>
<linearGradient id="paint1_linear_3681_78662" x1="51.434" y1="50.7689" x2="50.364" y2="49.6989" gradientUnits="userSpaceOnUse">
<stop stop-color="#A52714" stop-opacity="0.8"/>
<stop offset="0.5" stop-color="#A52714" stop-opacity="0.21"/>
<stop offset="1" stop-color="#A52714" stop-opacity="0"/>
</linearGradient>
<linearGradient id="paint2_linear_3681_78662" x1="32.7621" y1="35.2148" x2="72.7854" y2="75.2648" gradientUnits="userSpaceOnUse">
<stop stop-color="white" stop-opacity="0.1"/>
<stop offset="1" stop-color="white" stop-opacity="0"/>
</linearGradient>
</defs>
</svg>
