<svg width="105" height="105" viewBox="0 0 105 105" fill="none" xmlns="http://www.w3.org/2000/svg">
<rect x="0.271973" width="104.636" height="104.636" rx="7.474" fill="white"/>
<g clip-path="url(#clip0_3681_78680)">
<mask id="mask0_3681_78680" style="mask-type:luminance" maskUnits="userSpaceOnUse" x="20" y="19" width="326" height="66">
<path d="M345.09 19.818H20.09V84.818H345.09V19.818Z" fill="white"/>
</mask>
<g mask="url(#mask0_3681_78680)">
<path d="M20.4152 61.8242C21.2281 67.8367 24.1546 73.1992 28.2191 77.2617L37.6488 67.8367C37.6488 58.2492 42.6887 48.9867 51.4682 43.7867L20.4152 61.8242Z" fill="#9B65C3"/>
<path d="M37.6489 67.8367C32.934 67.8367 28.2193 66.6992 23.8295 64.0992C22.6915 63.4492 21.5533 62.6367 20.4154 61.8242C21.2283 67.8367 24.1547 73.1992 28.2193 77.2617L37.6489 67.8367Z" fill="#9B65C3"/>
<path d="M37.6487 67.8367L28.219 77.2617C32.2835 81.3242 37.6487 84.2492 43.6642 85.0617L61.7107 54.0242C56.508 62.7992 47.241 67.8367 37.6487 67.8367Z" fill="#BE63C5"/>
<path d="M41.3876 81.6492C38.7864 77.2617 37.6483 72.5492 37.6483 67.8367L28.2186 77.2617C32.2832 81.3242 37.6483 84.2492 43.6638 85.0617C42.8509 84.0867 42.038 82.9492 41.3876 81.6492Z" fill="#BF63C6"/>
<path d="M72.9289 31.4368L51.4688 43.7868C42.5268 48.9868 32.1217 48.4993 23.8295 43.7868C21.3908 47.8493 20.0902 52.5618 20.0902 57.7618C20.0902 59.2243 20.2528 60.5243 20.4154 61.8243C21.5534 62.6368 22.6916 63.4493 23.8295 64.0993C28.2192 66.6993 32.934 67.8368 37.6489 67.8368L73.4172 32.0868C73.2547 31.7618 73.0914 31.5993 72.9289 31.4368Z" fill="#3278B1"/>
<path d="M23.8295 64.0992C28.2192 66.6992 32.934 67.8367 37.6489 67.8367C37.6489 58.2492 42.6888 48.9867 51.4683 43.7867L20.4146 61.8242C21.39 62.6367 22.5289 63.4492 23.8295 64.0992Z" fill="#3278B2"/>
<path d="M23.8293 43.7867C21.3906 47.8492 20.09 52.5617 20.09 57.7617C20.09 59.2242 20.2525 60.5242 20.4151 61.8242L51.4689 43.7867C42.6896 48.9867 32.1215 48.6617 23.8293 43.7867Z" fill="#45A4EC"/>
<path d="M73.4164 32.0867C73.2539 31.9242 73.0912 31.7617 72.7662 31.5992C72.441 31.4367 72.2783 31.1117 71.9533 30.9492C70.9777 30.2992 69.6771 29.9742 68.539 29.9742H47.7288C37.4862 29.9742 28.5443 35.4992 23.6666 43.7867C31.9582 48.4992 42.526 48.9867 51.3058 43.7867C42.3639 48.9867 37.4864 58.2492 37.4864 67.8367C47.0786 67.8367 56.3458 62.7992 61.5486 54.0242L73.9047 32.5742C73.9047 32.4117 73.7416 32.2492 73.4164 32.0867Z" fill="#19BB7D"/>
<path d="M51.4687 43.7867L72.9289 31.4367C72.6037 31.2742 72.4412 30.9492 72.116 30.7867L23.8291 43.7867C32.1207 48.6617 42.6891 48.9867 51.4687 43.7867Z" fill="#08C7FB"/>
<path d="M68.5393 29.9742H47.7292C37.4866 29.9742 28.5446 35.4992 23.667 43.7867L71.9539 30.7867C70.9785 30.2992 69.8399 29.9742 68.5393 29.9742Z" fill="#59F2F6"/>
<path d="M61.7102 54.0243L74.0665 32.5743C73.9038 32.4118 73.7413 32.2493 73.5788 31.9243L37.8105 67.6743C37.8105 72.3868 38.9486 77.0993 41.5499 81.4868C42.2001 82.6243 43.013 83.7618 43.8259 84.8993C45.1267 85.0618 46.5898 85.2243 47.8904 85.2243C52.9306 85.2243 57.6453 83.9243 61.7098 81.4868C56.8324 73.3618 56.5078 62.7993 61.7102 54.0243Z" fill="#DA3757"/>
<path d="M37.6486 67.8367C37.6486 72.5492 38.7867 77.2617 41.388 81.6492C42.0384 82.7867 42.8513 83.9242 43.6642 85.0617L61.7106 54.0242C56.508 62.7992 47.241 67.8367 37.6486 67.8367Z" fill="#D33C4E"/>
<path d="M61.7103 54.0242L43.6637 85.0617C44.9645 85.2242 46.4276 85.3867 47.7282 85.3867C52.7684 85.3867 57.4831 84.0867 61.5476 81.6492C56.8329 73.3617 56.5077 62.7992 61.7103 54.0242Z" fill="#EE5A24"/>
<path d="M74.5559 33.3868C74.3932 33.0618 74.2307 32.7368 73.9055 32.5743C73.743 32.4118 73.5803 32.2493 73.4178 31.9243C73.2551 31.7618 73.0926 31.5993 72.7674 31.4368L51.3072 43.7868C42.3652 48.9868 37.4878 58.2493 37.4878 67.8368C47.0802 67.8368 56.3473 62.7993 61.55 54.0243C56.3473 62.9618 56.835 73.3618 61.55 81.6493C69.8415 76.9368 75.3694 67.8368 75.3694 57.5993V36.9618C75.5319 35.6618 75.2061 34.5243 74.5559 33.3868Z" fill="#8BDF55"/>
<path d="M72.9289 31.4368L51.4687 43.7868C42.5267 48.9868 37.6493 58.2493 37.6493 67.8368L73.4176 32.0868C73.2551 31.7618 73.0914 31.5993 72.9289 31.4368Z" fill="#25C16F"/>
<path d="M37.6486 67.8368C47.2408 67.8368 56.508 62.7993 61.7108 54.0243L74.0671 32.5743C73.9044 32.4118 73.7419 32.2493 73.5792 31.9243L37.6486 67.8368Z" fill="#8BDF55"/>
<path d="M74.0663 32.5742L61.71 54.0242C56.5074 62.9617 56.9953 73.3617 61.71 81.6492L74.7165 33.3867C74.3913 33.2242 74.2288 32.8992 74.0663 32.5742Z" fill="#FFBB00"/>
<path d="M61.7103 81.6493C70.0021 76.9368 75.5297 67.8368 75.5297 57.5993V36.9618C75.5297 35.6618 75.2047 34.5243 74.5543 33.5493L61.7103 81.6493Z" fill="#FFA800"/>
</g>
</g>
<defs>
<clipPath id="clip0_3681_78680">
<rect width="65" height="65" fill="white" transform="translate(20.09 19.818)"/>
</clipPath>
</defs>
</svg>
