<?xml version="1.0" encoding="UTF-8"?>
<svg fill="none" viewBox="0 0 32 32" xmlns="http://www.w3.org/2000/svg">
<g clip-path="url(#a)">
<path d="m0.16016 20.68c0.4002 2.96 1.8409 5.6 3.8419 7.6l4.6423-4.64c0-4.72 2.4812-9.28 6.8034-11.84l-15.288 8.88z" fill="#9B65C3"/>
<path d="m8.6444 23.64c-2.3212 0-4.6423-0.56-6.8034-1.84-0.56028-0.32-1.1206-0.72-1.6808-1.12 0.4002 2.96 1.8409 5.6 3.8419 7.6l4.6423-4.64z" fill="#9B65C3"/>
<path d="m8.6443 23.64-4.6423 4.64c2.001 2 4.6423 3.44 7.6038 3.84l8.8844-15.28c-2.5613 4.32-7.1236 6.8-11.846 6.8z" fill="#BE63C5"/>
<path d="m10.485 30.44c-1.2806-2.16-1.8409-4.48-1.8409-6.8l-4.6423 4.64c2.001 2 4.6423 3.44 7.6038 3.84-0.4002-0.48-0.8004-1.04-1.1206-1.68z" fill="#BF63C6"/>
<path d="m26.013 5.72-10.565 6.08c-4.4022 2.56-9.5247 2.32-13.607 0-1.2006 2-1.8409 4.32-1.8409 6.88 0 0.72 0.08004 1.36 0.16008 2 0.56028 0.4 1.1206 0.8 1.6808 1.12 2.1611 1.28 4.4822 1.84 6.8034 1.84l17.609-17.6c-0.08-0.16-0.1601-0.24-0.2401-0.32z" fill="#3278B1"/>
<path d="m1.841 21.8c2.1611 1.28 4.4822 1.84 6.8034 1.84 0-4.72 2.4812-9.28 6.8034-11.84l-15.288 8.88c0.48024 0.4 1.0405 0.8 1.6808 1.12z" fill="#3278B2"/>
<path d="m1.8409 11.8c-1.2006 2-1.8409 4.32-1.8409 6.88 0 0.72 0.08004 1.36 0.16008 2l15.288-8.88c-4.3221 2.56-9.5247 2.4-13.607 0z" fill="#45A4EC"/>
<path d="m26.253 6.04c-0.08-0.08-0.1601-0.16-0.3201-0.24-0.1601-0.08-0.2402-0.24-0.4002-0.32-0.4803-0.32-1.1206-0.48-1.6809-0.48h-10.245c-5.0425 0-9.4447 2.72-11.846 6.8 4.082 2.32 9.2846 2.56 13.607 0-4.4022 2.56-6.8034 7.12-6.8034 11.84 4.7223 0 9.2846-2.48 11.846-6.8l6.083-10.56c0-0.08-0.08-0.16-0.2401-0.24z" fill="#19BB7D"/>
<path d="m15.448 11.8 10.565-6.08c-0.1601-0.08-0.2401-0.24-0.4002-0.32l-23.772 6.4c4.082 2.4 9.2847 2.56 13.607 0z" fill="#08C7FB"/>
<path d="m23.852 5h-10.245c-5.0425 0-9.4447 2.72-11.846 6.8l23.772-6.4c-0.4802-0.24-1.0405-0.4-1.6808-0.4z" fill="#59F2F6"/>
<path d="m20.49 16.84 6.0831-10.56c-0.0801-0.08-0.1601-0.16-0.2401-0.32l-17.609 17.6c0 2.32 0.56028 4.64 1.8409 6.8 0.3201 0.56 0.7203 1.12 1.1205 1.68 0.6404 0.08 1.3607 0.16 2.001 0.16 2.4813 0 4.8024-0.64 6.8034-1.84-2.4012-4-2.5612-9.2 0-13.52z" fill="#DA3757"/>
<path d="m8.6443 23.64c0 2.32 0.56028 4.64 1.8409 6.8 0.3202 0.56 0.7204 1.12 1.1206 1.68l8.8844-15.28c-2.5613 4.32-7.1236 6.8-11.846 6.8z" fill="#D33C4E"/>
<path d="m20.49 16.84-8.8845 15.28c0.6404 0.08 1.3607 0.16 2.001 0.16 2.4813 0 4.8024-0.64 6.8034-1.84-2.3211-4.08-2.4812-9.28 0.0801-13.6z" fill="#EE5A24"/>
<path d="m26.814 6.68c-0.0801-0.16-0.1601-0.32-0.3202-0.4-0.08-0.08-0.1601-0.16-0.2401-0.32-0.0801-0.08-0.1601-0.16-0.3202-0.24l-10.565 6.08c-4.4022 2.56-6.8034 7.12-6.8034 11.84 4.7224 0 9.2847-2.48 11.846-6.8-2.5613 4.4-2.3212 9.52 0 13.6 4.082-2.32 6.8034-6.8 6.8034-11.84v-10.16c0.08-0.64-0.0801-1.2-0.4002-1.76z" fill="#8BDF55"/>
<path d="m26.013 5.72-10.565 6.08c-4.4022 2.56-6.8034 7.12-6.8034 11.84l17.609-17.6c-0.08-0.16-0.1601-0.24-0.2401-0.32z" fill="#25C16F"/>
<path d="m8.6443 23.64c4.7223 0 9.2846-2.48 11.846-6.8l6.0831-10.56c-0.0801-0.08-0.1601-0.16-0.2402-0.32l-17.689 17.68z" fill="#8BDF55"/>
<path d="m26.573 6.28-6.0831 10.56c-2.5613 4.4-2.3211 9.52 0 13.6l6.4032-23.76c-0.1601-0.08-0.2401-0.24-0.3201-0.4z" fill="#fb0"/>
<path d="m20.49 30.44c4.0821-2.32 6.8034-6.8 6.8034-11.84v-10.16c0-0.64-0.16-1.2-0.4802-1.68l-6.3232 23.68z" fill="#FFA800"/>
</g>
<defs>
<clipPath id="a">
<rect width="160" height="32" fill="#fff"/>
</clipPath>
</defs>
</svg>
