<svg width="105" height="105" viewBox="0 0 105 105" fill="none" xmlns="http://www.w3.org/2000/svg">
<rect x="0.271973" width="104.636" height="104.636" rx="7.474" fill="white"/>
<g clip-path="url(#clip0_3681_78680)">
<path d="M20.4715 57.1787C21.4251 64.2315 24.8578 70.5218 29.6256 75.2872L40.6868 64.2315C40.6868 52.9851 46.5988 42.12 56.8973 36.0203L20.4715 57.1787Z" fill="#9B65C3"/>
<path d="M40.687 64.2314C35.1562 64.2314 29.6258 62.8971 24.4765 59.8473C23.1415 59.0848 21.8065 58.1317 20.4717 57.1786C21.4252 64.2314 24.858 70.5218 29.6258 75.2872L40.687 64.2314Z" fill="#9B65C3"/>
<path d="M40.6867 64.2315L29.6255 75.2872C34.3933 80.0526 40.6867 83.4837 47.743 84.4367L68.9119 48.0291C62.8091 58.3224 51.9387 64.2315 40.6867 64.2315Z" fill="#BE63C5"/>
<path d="M45.0725 80.4338C42.0212 75.2872 40.6862 69.7593 40.6862 64.2314L29.625 75.2872C34.3928 80.0526 40.6862 83.4836 47.7426 84.4367C46.789 83.293 45.8354 81.9587 45.0725 80.4338Z" fill="#BF63C6"/>
<path d="M82.0711 21.5336L56.8979 36.0204C46.4088 42.1201 34.2034 41.5482 24.4765 36.0204C21.6159 40.7858 20.0902 46.3136 20.0902 52.4133C20.0902 54.1289 20.2809 55.6538 20.4716 57.1787C21.8066 58.1318 23.1417 59.0849 24.4765 59.8474C29.6257 62.8972 35.1562 64.2315 40.6869 64.2315L82.6439 22.296C82.4532 21.9148 82.2617 21.7242 82.0711 21.5336Z" fill="#3278B1"/>
<path d="M24.4765 59.8473C29.6257 62.8972 35.1562 64.2315 40.6869 64.2315C40.6869 52.9851 46.5989 42.12 56.8974 36.0203L20.4707 57.1787C21.615 58.1318 22.9509 59.0848 24.4765 59.8473Z" fill="#3278B2"/>
<path d="M24.4763 36.0203C21.6156 40.7857 20.09 46.3136 20.09 52.4133C20.09 54.1288 20.2807 55.6538 20.4714 57.1787L56.8981 36.0203C46.5998 42.12 34.2032 41.7388 24.4763 36.0203Z" fill="#45A4EC"/>
<path d="M82.643 22.296C82.4524 22.1054 82.2616 21.9148 81.8803 21.7242C81.4989 21.5335 81.308 21.1523 80.9268 20.9617C79.7824 20.1992 78.2567 19.818 76.9217 19.818H52.511C40.4962 19.818 30.0071 26.2989 24.2855 36.0203C34.0117 41.5482 46.4079 42.12 56.7069 36.0203C46.2178 42.12 40.4964 52.9851 40.4964 64.2315C51.7483 64.2315 62.6189 58.3224 68.7219 48.0291L83.2158 22.8678C83.2158 22.6772 83.0245 22.4866 82.643 22.296Z" fill="#19BB7D"/>
<path d="M56.8979 36.0203L82.0711 21.5335C81.6897 21.3429 81.499 20.9617 81.1176 20.7711L24.4761 36.0203C34.2022 41.7388 46.5992 42.12 56.8979 36.0203Z" fill="#08C7FB"/>
<path d="M76.9221 19.818H52.5113C40.4966 19.818 30.0075 26.2989 24.2859 36.0203L80.9274 20.7711C79.7832 20.1992 78.4477 19.818 76.9221 19.818Z" fill="#59F2F6"/>
<path d="M68.9114 48.0292L83.4056 22.8679C83.2147 22.6773 83.0241 22.4866 82.8335 22.1054L40.8766 64.0409C40.8766 69.5687 42.2116 75.0966 45.2629 80.2432C46.0256 81.5776 46.9792 82.9119 47.9327 84.2462C49.4586 84.4368 51.1748 84.6274 52.7005 84.6274C58.6127 84.6274 64.1432 83.1025 68.9109 80.2432C63.1896 70.7125 62.8088 58.3224 68.9114 48.0292Z" fill="#DA3757"/>
<path d="M40.6866 64.2315C40.6866 69.7593 42.0216 75.2872 45.0729 80.4338C45.8359 81.7681 46.7894 83.1024 47.743 84.4367L68.9118 48.0291C62.809 58.3224 51.9387 64.2315 40.6866 64.2315Z" fill="#D33C4E"/>
<path d="M68.9115 48.0291L47.7424 84.4367C49.2683 84.6273 50.9846 84.818 52.5102 84.818C58.4224 84.818 63.9529 83.293 68.7207 80.4338C63.1902 70.7124 62.8087 58.3224 68.9115 48.0291Z" fill="#EE5A24"/>
<path d="M83.9795 23.821C83.7887 23.4397 83.5981 23.0585 83.2166 22.8679C83.026 22.6773 82.8351 22.4866 82.6445 22.1054C82.4537 21.9148 82.263 21.7242 81.8816 21.5336L56.7084 36.0204C46.2193 42.1201 40.4979 52.9852 40.4979 64.2315C51.75 64.2315 62.6206 58.3224 68.7234 48.0292C62.6206 58.513 63.1926 70.7125 68.7234 80.4339C78.4495 74.906 84.9338 64.2315 84.9338 52.2227V28.0145C85.1244 26.4896 84.7422 25.1553 83.9795 23.821Z" fill="#8BDF55"/>
<path d="M82.071 21.5336L56.8978 36.0204C46.4087 42.1201 40.6874 52.9852 40.6874 64.2315L82.6443 22.296C82.4537 21.9148 82.2616 21.7242 82.071 21.5336Z" fill="#25C16F"/>
<path d="M40.6866 64.2315C51.9385 64.2315 62.809 58.3224 68.9121 48.0292L83.4063 22.8679C83.2154 22.6773 83.0248 22.4866 82.8339 22.1054L40.6866 64.2315Z" fill="#8BDF55"/>
<path d="M83.4053 22.8678L68.9111 48.0291C62.8083 58.513 63.3807 70.7124 68.9111 80.4338L84.168 23.8209C83.7866 23.6303 83.5959 23.249 83.4053 22.8678Z" fill="#FFBB00"/>
<path d="M68.9115 80.4338C78.6379 74.906 85.1219 64.2315 85.1219 52.2227V28.0145C85.1219 26.4895 84.7407 25.1552 83.9778 24.0115L68.9115 80.4338Z" fill="#FFA800"/>
</g>
<defs>
<clipPath id="clip0_3681_78680">
<rect width="65" height="65" fill="white" transform="translate(20.09 19.818)"/>
</clipPath>
</defs>
</svg>
