<?xml version="1.0" encoding="utf-8"?>
<!-- Generator: Adobe Illustrator 27.1.1, SVG Export Plug-In . SVG Version: 6.00 Build 0)  -->
<svg version="1.1" id="Layer_1" xmlns="http://www.w3.org/2000/svg" xmlns:xlink="http://www.w3.org/1999/xlink" x="0px" y="0px"
	 viewBox="0 0 338.1 167.1" style="enable-background:new 0 0 338.1 167.1;" xml:space="preserve">
<style type="text/css">
	.st0{fill-rule:evenodd;clip-rule:evenodd;fill:#FFFFFF;}
	.st1{fill:#FFFFFF;}
	.st2{fill:none;}
</style>
<g>
	<g>
		<path class="st0" d="M10.8,138.9c1.6,0.1,2.4,1.1,2.4,2.8s-0.8,2.5-2.4,2.7v3c4.1-0.2,6.1-2.3,6.1-5.7c0-3.5-1.9-5.6-6.1-5.8
			V138.9z M8.4,138.9h2.1c0.1,0,0.2,0,0.4,0v-3c-0.2,0-0.5,0-0.7,0H4.7v19.4h3.6v-7.8h1.7c0.2,0,0.5,0,0.7,0v-3c-0.1,0-0.2,0-0.4,0
			H8.4V138.9z"/>
		<path class="st0" d="M30,138.9c1.6,0,2.4,0.6,2.4,2.7v7.9c0,2.2-0.8,2.8-2.4,2.8v3.3c3.6,0,6.2-1.7,6.2-6.5v-6.9
			c0-4.7-2.5-6.4-6.2-6.4V138.9z M27.6,141.6c0-2.2,1-2.7,2.4-2.7v-3.3c-3.5,0-6.1,1.7-6.1,6.4v6.9c0,4.8,2.5,6.5,6.1,6.5v-3.3
			c-1.5,0-2.4-0.6-2.4-2.8V141.6z"/>
		<polygon class="st0" points="47,155.3 50.5,155.3 53.6,142 56.2,155.3 59.9,155.3 64.1,135.9 60.7,135.9 58,148.5 58,148.5 
			55.3,135.9 51.7,135.9 49.1,148.5 49.1,148.5 46.4,135.9 42.9,135.9 		"/>
		<polygon class="st0" points="81.7,155.3 81.7,152 75,152 75,146.9 79.9,146.9 79.9,143.7 75,143.7 75,139.2 81.4,139.2 
			81.4,135.9 71.3,135.9 71.3,155.3 		"/>
		<path class="st0" d="M95.5,138.9c1.5,0.1,2.3,1,2.3,2.7c0,1.8-0.8,2.5-2.3,2.7v4.4l2.8,6.7h4l-3.6-8.6c2.1-0.8,2.9-2.5,2.9-5
			c0-3.5-1.9-5.6-5.9-5.8v3H95.5z M93.3,138.9h1.9c0.1,0,0.2,0,0.4,0v-3c-0.2,0-0.4,0-0.6,0h-5.5v19.4h3.8v-7.9H95l0.5,1.2v-4.4
			c-0.1,0-0.2,0-0.4,0h-1.9v-5.3H93.3z"/>
		<path class="st0" d="M127.5,138.9c1.5,0,2.4,0.6,2.4,2.7v7.9c0,2.2-1,2.8-2.4,2.8v3.3c3.6,0,6.2-1.7,6.2-6.5v-6.9
			c0-4.7-2.5-6.4-6.2-6.4V138.9z M125.1,141.6c0-2.2,1-2.7,2.4-2.7l0,0v-3.3l0,0c-3.5,0-6.1,1.7-6.1,6.4v6.9c0,4.8,2.5,6.5,6.1,6.5
			l0,0v-3.3l0,0c-1.5,0-2.4-0.6-2.4-2.8V141.6z"/>
		<polygon class="st0" points="145.2,155.3 145.2,146.9 149.8,146.9 149.8,143.7 145.2,143.7 145.2,139.2 151.1,139.2 151.1,135.9 
			141.4,135.9 141.4,155.3 		"/>
		<path class="st0" d="M182,140.4c-0.6-2.8-2.7-4.7-5.9-4.7c-3.9,0-5.8,2.2-5.8,5.5c0,5.5,8.4,5.5,8.4,9.2c0,1.5-1,2.3-2.2,2.3
			c-1.2,0-2.5-0.8-2.9-3.2l-3.6,0.8c1,3.9,3.3,5.5,6.3,5.5c3.9,0,6.2-2.2,6.2-5.6c0-6.1-8.2-6.3-8.2-9.2c0-1.3,0.6-2.1,2.1-2.1
			c1.2,0,2.1,0.7,2.7,2.5L182,140.4z"/>
		<polygon class="st0" points="193.5,155.3 193.5,135.9 189.7,135.9 189.7,155.3 		"/>
		<polygon class="st0" points="204.2,155.3 204.2,140 208.1,155.3 211,155.3 214.9,140 215,140 215,155.3 218.1,155.3 218.1,135.9 
			212.9,135.9 209.5,148.6 209.5,148.6 206.1,135.9 201,135.9 201,155.3 		"/>
		<path class="st0" d="M231.5,138.9c1.6,0.1,2.4,1.1,2.4,2.8s-0.8,2.5-2.4,2.7v3c4.1-0.2,6.1-2.3,6.1-5.7c0-3.5-1.9-5.6-6.1-5.8
			V138.9z M229,138.9h1.9c0.1,0,0.2,0,0.4,0v-3c-0.2,0-0.5,0-0.8,0h-5.3v19.4h3.6v-7.8h1.6c0.2,0,0.5,0,0.8,0v-3c-0.1,0-0.2,0-0.4,0
			h-1.9v-5.6H229z"/>
		<polygon class="st0" points="253.3,155.3 253.3,152 247.3,152 247.3,135.9 243.6,135.9 243.6,155.3 		"/>
		<polygon class="st0" points="263.5,155.3 263.5,135.9 259.8,135.9 259.8,155.3 		"/>
		<path class="st0" d="M274.1,141.6c0-2.2,1-2.7,2.4-2.7c1.5,0,2.4,0.6,2.4,2.7v0.6h3.6v-0.1c0-4.7-2.5-6.4-6.2-6.4
			c-3.5,0-6.1,1.7-6.1,6.4v6.9c0,4.8,2.5,6.5,6.1,6.5c3.6,0,6.2-1.7,6.2-6.5v-0.7H279v1.2c0,2.2-1,2.8-2.4,2.8
			c-1.5,0-2.4-0.6-2.4-2.8V141.6z"/>
		<polygon class="st0" points="294.6,155.3 294.6,135.9 290.8,135.9 290.8,155.3 		"/>
		<polygon class="st0" points="301.3,135.9 301.3,139.2 305.6,139.2 305.6,155.3 309.3,155.3 309.3,139.2 313.6,139.2 313.6,135.9 
					"/>
		<polygon class="st0" points="323,135.9 319.1,135.9 324.3,147.5 324.3,155.3 328,155.3 328,147.5 333.4,135.9 329.5,135.9 
			326.2,143.8 		"/>
	</g>
	<g>
		<path class="st1" d="M82,21.9c1,1,2.8,3.5,5.2,2.4c2.5-1.2,15.4-2.4,19.6-3c4.2-0.5,7.8,0.1,7.8,0.1s-11.1,15.3-12.8,17.8
			c-1.9,2.4-11.4,16.1-13.2,18.9c-1.8,2.9-6.3,10.5-8.4,14.3c-1.9,3.8,1.3,3.5,1.3,3.5s7.6,0.2,9.3,0.2c1.6-0.1,1.9-1.2,2.1-1.7
			c0.4-0.6,0.8-2.2,2.3-4.6c1.3-2.4,4.6-7.9,8.2-13.9c3.6-5.9,7.8-11.8,10.9-16.2c3.3-4.5,7-9.7,7.9-10.9c0.8-1.2,4.5-6.1,5.3-7.2
			c0.8-1.2,1.1-1.1,2.4-1.2c0.4,0,1.5,0,2.8,0.1c3.4,0.1,8.8,0.6,11.4,0.8c3.8,0.4,9.3,0.5,12.7,0.8c3.4,0.4,2.4-1.6,2.4-1.6
			s0.2-2.3-0.7-4.7c-1.1-2.5-1.9-2.2-1.9-2.2c-3.9-1.2-16.4-2.1-23.9-2.3c-1.9-0.1-3.5-0.1-4.5-0.1h-1.6c-6.9,0.1-23.9,1.1-27.6,1.5
			C95,13.1,82,15.6,79.6,16c-2.3,0.6-1,2.1-1,2.1S80.9,20.8,82,21.9z"/>
		<path class="st1" d="M264.8,96.4c-0.8-0.4-11.3-4.1-14.3-5c-3.2-0.8-16.4-3.6-18.1-3.8s2.4-4.2,4-6.3c1.6-1.8,10.4-11.4,13.5-14.2
			c2.9-2.9,10.5-9.9,12.8-12.1c2.2-2.2-1.2-3.2-1.2-3.2s-1.1-0.6-5.5-1.6c-4.5-1.1-5.5,1.3-5.5,1.3s-6.2,5.8-9.9,9.3
			c-3.8,3.5-8.2,6.4-11.3,8.1c-2.9,1.7-5.9,2.9-7.2,2.1c-1.2-0.7,0-2.5,0.8-4.1c0.8-1.7,5.6-7,6.8-8.5c1.2-1.5,6.7-7.4,9-9.7
			c2.2-2.4-1.7-3.3-3.6-3.8c-1.8-0.4-3-0.7-5-0.7c-1.8,0-2.5,1.3-2.5,1.3s-3.3,3.4-4.2,4.6c-0.8,1.2-9.8,11.1-12.6,14.1
			c-2.9,3-6.8,5.9-7.9,6.3c-1.2,0.4-3.5,1-5.5-1.5s-0.4-4,2.2-7.6c2.7-3.5,9.5-11.4,12.8-15.3c3.4-3.8,16-14.2,18.5-16
			c2.4-1.8,1-2.4,1-2.4s-2.2-1.5-3.5-1.9c-1.2-0.6-3.3-1-5.5-1c-2.1,0-2.9,1.2-2.9,1.2s-7,5.8-8.4,7.2c-1.3,1.2-16.6,16.2-19.4,19.1
			c-2.8,2.9-10.8,10.1-13.5,12.4c-2.8,2.3-5.3,3.4-6.8,2.4c-1.5-1-1-2.7,0-4.1c0.8-1.5,6.9-9,9.1-11.5c2.2-2.5,8.8-9.5,11.1-11.9
			c2.3-2.4,11.5-10.4,14.1-12.7c2.8-2.2-0.6-3.6-0.6-3.6s-1.9-1.2-5.2-1.8c-3.3-0.7-3.9,0.1-5.7,1.3c-1.9,1.2-14.1,13.9-15.3,15.3
			c-1.2,1.2-16,16.1-18.2,18.5c-2.3,2.2-9.8,9-11.4,9.9c-1.3,1.1-5.7,4.1-6.8,2.2c-1.3-1.8,1.3-3.5,1.3-3.5s6.5-6.3,8.8-9
			s1-6.5,0.6-7.5c-0.5-1.1-2.3-4-5.5-6.7c-3.3-2.7-6.5-2.8-8.8-2.8c-1.9,0.1-4.7,1.8-6.9,2.9c-0.4,0.1-0.7,0.4-1.1,0.5
			C129.5,44,123,49,123,49s-5.2,4.7-8.4,7.9c-2.9,3.2-5.3,5.8-2.1,12.2c3.3,6.4,9.3,7.9,11.9,8.2c2.3,0.4,5.5-2.2,6.5-3.2
			c0.8-0.8,1.2-0.7,1.8,0.4c0.1,0.1,0.2,0.4,0.4,0.6c0.8,1.6,3.6,2.7,6.2,3.2c2.4,0.4,3.5-0.2,7.9-1.5s12.5-6.3,13.9-7.4
			c1.6-1.2,1.7,0.6,3,3s4.6,3.3,7.4,3.6c2.9,0.2,4.2-0.5,6.2-1.3c1.8-0.8,6.8-3.3,8.4-4.4c1.5-1,1.7-1.1,2.3,0.5
			c0.6,1.5,0.7,2.8,5.2,5.8c4.4,3.2,11.9,1.3,13.5,0.8c1.8-0.6,5-2.3,5.8-2.8c0.8-0.5,1.5,0.8,3.3,2.7c1.7,1.7,5.1,1.6,7.3,0.2
			c2.2-1.5,1.1,0.1,1.1,0.1s-3.3,4.6-4.4,5.8c-1,1.2-1.1,2.1-2.2,1.8c-1-0.2-4.5-0.5-9.8-0.8c-5.3-0.4-17.7-1-26.7-1.1
			s-32.8,1.2-41.7,1.7c-1.9,0.1-4.4,0.4-7.2,0.6c-10.2,1.1-24.2,3.3-29.6,4c-6.8,1.1-28.4,5.6-32.8,7c-1.1,0.4-1.6,0.7-1.7,1.2v0.2
			c0.2,1.2,3.4,2.5,5.7,3.6c3.3,1.6,6.5,0.7,6.5,0.7s6.5-1.2,9.9-1.8c3.3-0.7,27.6-4.4,33.7-5.5c1.7-0.2,4.6-0.6,8.2-1.1
			c9.3-1.1,22.5-2.3,27-2.7c6.3-0.4,23.8-0.4,28.7-0.5s21.8,0.8,22.7,1c0.8,0.2,3.5-0.1,1.8,1.3c-1.6,1.7-5.5,9.7-6.5,11.5
			c-1,1.9-0.6,1.8,1.2,2.8c1.7,1,6.2,1.2,7.3,1.2c1,0,1.3-1.2,1.3-1.2s5.5-8.4,7.3-11.1c1.8-2.9,2.9-2.2,2.9-2.2s8.6,1.6,12.4,2.3
			c3.8,0.7,17.8,4.4,20.8,5.7s4.4,1.2,5.2,1c0.8-0.4,2.7-4.6,2.7-4.6v-0.7C267.2,97.4,265.4,96.9,264.8,96.4z M135.8,62.3
			c-0.7,0.6-1.9,1.3-3.2,2.2c-3.2,2.2-7,4.7-8.2,5.1c-1.7,0.5-2.8,1.1-3.8-0.4c-1.1-1.5,2.1-4.4,2.1-4.4s5.8-5.2,8-7.2
			c0.5-0.4,1.2-1,1.9-1.5c2.9-2.3,6.9-5.5,8-6.1c1.3-0.7,2.4-1.3,3.6-0.1c1.2,1.2,0.2,2.4-0.2,3C143.8,53.6,138.4,60.4,135.8,62.3z"
			/>
	</g>
	<path class="st1" d="M284.9,40.3c1.7,0,3.3,0.4,4.8,1.2c1.6,0.8,2.8,2.1,3.6,3.6c0.8,1.6,1.3,3.2,1.3,4.8s-0.5,3.3-1.3,4.8
		c-0.8,1.6-2.1,2.8-3.6,3.6c-1.6,0.8-3.2,1.3-4.8,1.3c-1.7,0-3.3-0.5-4.8-1.3c-1.6-0.8-2.8-2.1-3.6-3.6c-0.8-1.6-1.3-3.2-1.3-4.8
		s0.5-3.3,1.3-4.8c0.8-1.6,2.1-2.8,3.6-3.6C281.6,40.6,283.2,40.3,284.9,40.3z M284.9,41.9c-1.3,0-2.7,0.4-4,1.1
		c-1.3,0.7-2.3,1.7-3,3c-0.7,1.3-1.1,2.7-1.1,4.1c0,1.5,0.4,2.8,1.1,4c0.7,1.3,1.7,2.3,3,3c1.3,0.7,2.7,1.1,4,1.1
		c1.5,0,2.8-0.4,4-1.1c1.2-0.7,2.3-1.7,3-3c0.7-1.2,1.1-2.7,1.1-4c0-1.5-0.4-2.8-1.1-4.1c-0.7-1.3-1.7-2.3-3-3
		C287.6,42.2,286.2,41.9,284.9,41.9z M280.7,55.3V44.9h3.6c1.2,0,2.1,0.1,2.7,0.2c0.6,0.2,1,0.5,1.3,1.1c0.4,0.5,0.5,1,0.5,1.5
		c0,0.7-0.2,1.5-0.8,1.9c-0.6,0.6-1.2,0.8-2.2,1c0.4,0.1,0.6,0.4,0.8,0.6c0.4,0.4,1,1.1,1.6,2.1l1.2,2.1h-2.1l-1-1.7
		c-0.7-1.2-1.3-2.1-1.8-2.4c-0.4-0.2-0.7-0.4-1.3-0.4h-1v4.5H280.7z M282.4,49.5h2.1c1,0,1.7-0.1,1.9-0.5c0.4-0.2,0.6-0.7,0.6-1.2
		c0-0.4-0.1-0.6-0.2-0.8c-0.1-0.2-0.4-0.4-0.7-0.6c-0.4-0.1-0.8-0.1-1.7-0.1h-1.9V49.5z"/>
</g>
<polygon class="st2" points="0,0 338.1,0 338.1,167 0,167 "/>
</svg>
