<svg width="600" height="450" viewBox="0 0 600 450" fill="none" xmlns="http://www.w3.org/2000/svg">
<g filter="url(#filter0_d_2077_27745)">
<rect x="41.1875" y="201" width="100" height="32" rx="16" fill="#EDEDFD" shape-rendering="crispEdges"/>
<path d="M76.6315 222.5L73.2575 212.42H74.5525L77.4855 221.177L80.4465 212.42H81.7415L78.3675 222.5H76.6315ZM85.1805 222.71C84.4291 222.71 83.7805 222.54 83.2345 222.199C82.6931 221.858 82.2755 221.387 81.9815 220.785C81.6875 220.183 81.5405 219.492 81.5405 218.713C81.5405 217.92 81.6898 217.224 81.9885 216.627C82.2871 216.03 82.7095 215.565 83.2555 215.234C83.8015 214.898 84.4431 214.73 85.1805 214.73C85.9365 214.73 86.5875 214.9 87.1335 215.241C87.6795 215.577 88.0971 216.046 88.3865 216.648C88.6805 217.245 88.8275 217.934 88.8275 218.713C88.8275 219.502 88.6805 220.197 88.3865 220.799C88.0925 221.396 87.6725 221.865 87.1265 222.206C86.5805 222.542 85.9318 222.71 85.1805 222.71ZM85.1805 221.527C85.9645 221.527 86.5478 221.266 86.9305 220.743C87.3131 220.22 87.5045 219.544 87.5045 218.713C87.5045 217.859 87.3108 217.18 86.9235 216.676C86.5361 216.167 85.9551 215.913 85.1805 215.913C84.6531 215.913 84.2191 216.032 83.8785 216.27C83.5378 216.508 83.2835 216.837 83.1155 217.257C82.9475 217.677 82.8635 218.162 82.8635 218.713C82.8635 219.562 83.0595 220.244 83.4515 220.757C83.8435 221.27 84.4198 221.527 85.1805 221.527ZM90.5087 213.603V212.315H91.7547V213.603H90.5087ZM90.5087 222.5V214.94H91.7547V222.5H90.5087ZM97.04 222.71C96.2747 222.71 95.6237 222.54 95.087 222.199C94.555 221.854 94.149 221.38 93.869 220.778C93.589 220.176 93.4443 219.49 93.435 218.72C93.4443 217.931 93.5913 217.238 93.876 216.641C94.1653 216.039 94.5783 215.57 95.115 215.234C95.6517 214.898 96.298 214.73 97.054 214.73C97.852 214.73 98.538 214.926 99.112 215.318C99.6907 215.71 100.078 216.247 100.274 216.928L99.042 217.299C98.8833 216.86 98.6243 216.52 98.265 216.277C97.9103 216.034 97.502 215.913 97.04 215.913C96.522 215.913 96.095 216.034 95.759 216.277C95.423 216.515 95.1733 216.846 95.01 217.271C94.8467 217.691 94.7627 218.174 94.758 218.72C94.7673 219.56 94.961 220.239 95.339 220.757C95.7217 221.27 96.2887 221.527 97.04 221.527C97.5347 221.527 97.9453 221.415 98.272 221.191C98.5987 220.962 98.846 220.633 99.014 220.204L100.274 220.533C100.013 221.238 99.6043 221.777 99.049 222.15C98.4937 222.523 97.824 222.71 97.04 222.71ZM104.774 222.71C104.032 222.71 103.383 222.547 102.828 222.22C102.277 221.889 101.848 221.429 101.54 220.841C101.232 220.248 101.078 219.558 101.078 218.769C101.078 217.943 101.229 217.229 101.533 216.627C101.836 216.02 102.258 215.554 102.8 215.227C103.346 214.896 103.985 214.73 104.718 214.73C105.478 214.73 106.125 214.905 106.657 215.255C107.193 215.605 107.595 216.104 107.861 216.753C108.131 217.402 108.248 218.174 108.211 219.07H106.951V218.622C106.937 217.693 106.748 217 106.384 216.543C106.02 216.081 105.478 215.85 104.76 215.85C103.99 215.85 103.404 216.097 103.003 216.592C102.601 217.087 102.401 217.796 102.401 218.72C102.401 219.611 102.601 220.302 103.003 220.792C103.404 221.282 103.976 221.527 104.718 221.527C105.217 221.527 105.651 221.413 106.02 221.184C106.388 220.955 106.678 220.626 106.888 220.197L108.085 220.61C107.791 221.277 107.347 221.795 106.755 222.164C106.167 222.528 105.506 222.71 104.774 222.71ZM101.981 219.07V218.069H107.567V219.07H101.981Z" fill="#212528"/>
</g>
<g filter="url(#filter1_d_2077_27745)">
<rect x="61.1875" y="241" width="60" height="60" rx="7.875" fill="#EDEDFD"/>
<path d="M104.313 271C104.313 278.249 98.4363 284.125 91.1875 284.125C83.9388 284.125 78.0625 278.249 78.0625 271C78.0625 263.751 83.9388 257.875 91.1875 257.875C98.4363 257.875 104.313 263.751 104.313 271Z" fill="#696BEF"/>
<path d="M104.313 271C104.313 278.249 98.4363 284.125 91.1875 284.125C83.9388 284.125 78.0625 278.249 78.0625 271C78.0625 263.751 83.9388 257.875 91.1875 257.875C98.4363 257.875 104.313 263.751 104.313 271Z" fill="#696BEF"/>
<path d="M100.375 273.625C100.375 274.314 100.239 274.997 99.9754 275.634C99.7115 276.271 99.3248 276.85 98.8373 277.337C98.3498 277.825 97.7711 278.212 97.1341 278.475C96.4971 278.739 95.8144 278.875 95.125 278.875L95.125 273.625H100.375Z" fill="white"/>
<path d="M94.8158 268.643L93.5459 259.31L87.25 264.437L91.1875 270.877H92.8651C94.0579 270.877 94.9767 269.825 94.8158 268.643Z" fill="#3A3BA6"/>
<path d="M93.2215 279.237L92.3667 282.633L91.1875 276.788H91.3123C92.5945 276.788 93.5345 277.994 93.2215 279.237Z" fill="#3A3BA6"/>
<path fill-rule="evenodd" clip-rule="evenodd" d="M91.1875 276.787C87.9256 276.787 85.2813 274.143 85.2813 270.881H92.3688C93.0211 270.881 93.55 270.357 93.55 269.704V259.305C92.7867 259.15 91.9966 259.068 91.1875 259.068C84.6636 259.068 79.375 264.357 79.375 270.881C79.375 277.405 84.6636 282.693 91.1875 282.693C91.5862 282.693 91.9802 282.673 92.3688 282.635V277.968C92.3688 277.316 91.8399 276.787 91.1875 276.787ZM91.1878 264.975C91.1878 265.627 90.6589 266.156 90.0065 266.156C89.3542 266.156 88.8253 265.627 88.8253 264.975C88.8253 264.322 89.3542 263.793 90.0065 263.793C90.6589 263.793 91.1878 264.322 91.1878 264.975Z" fill="white"/>
</g>
<g filter="url(#filter2_d_2077_27745)">
<rect x="165.281" y="77" width="60" height="60" rx="7.875" fill="#F9EAE5"/>
<path d="M182.156 100.625C182.156 99.0716 183.332 97.8124 184.781 97.8124H205.781C207.231 97.8124 208.406 99.0716 208.406 100.625V114.687C208.406 116.241 207.231 117.5 205.781 117.5H184.781C183.332 117.5 182.156 116.241 182.156 114.687V100.625Z" fill="#8C2E0E"/>
<path d="M182.156 99.321C182.156 97.763 183.246 96.5001 184.59 96.5001H205.973C207.317 96.5001 208.406 97.763 208.406 99.321C208.406 100.389 207.885 101.366 207.061 101.844L196.455 107.991C195.716 108.42 194.846 108.42 194.107 107.991L183.501 101.844C182.677 101.366 182.156 100.389 182.156 99.321Z" fill="#CC5229"/>
</g>
<g filter="url(#filter3_d_2077_27745)">
<rect x="145.281" y="145" width="100" height="32" rx="16" fill="#F9EAE5" shape-rendering="crispEdges"/>
<path d="M178.261 166.5V156.42H184.631V157.603H179.507V160.76H183.791V161.943H179.507V165.317H184.631V166.5H178.261ZM195.351 166.5L195.358 161.663C195.358 161.098 195.206 160.657 194.903 160.34C194.604 160.018 194.215 159.857 193.734 159.857C193.454 159.857 193.188 159.922 192.936 160.053C192.684 160.179 192.479 160.38 192.32 160.655C192.161 160.926 192.082 161.273 192.082 161.698L191.424 161.432C191.415 160.895 191.524 160.426 191.753 160.025C191.986 159.619 192.304 159.304 192.705 159.08C193.106 158.856 193.559 158.744 194.063 158.744C194.852 158.744 195.472 158.984 195.925 159.465C196.378 159.941 196.604 160.583 196.604 161.39L196.597 166.5H195.351ZM186.307 166.5V158.94H187.42V160.963H187.56V166.5H186.307ZM190.836 166.5L190.843 161.712C190.843 161.133 190.694 160.681 190.395 160.354C190.096 160.023 189.7 159.857 189.205 159.857C188.715 159.857 188.318 160.025 188.015 160.361C187.712 160.697 187.56 161.143 187.56 161.698L186.902 161.306C186.902 160.816 187.019 160.377 187.252 159.99C187.485 159.603 187.803 159.299 188.204 159.08C188.605 158.856 189.06 158.744 189.569 158.744C190.078 158.744 190.521 158.851 190.899 159.066C191.277 159.281 191.569 159.589 191.774 159.99C191.979 160.387 192.082 160.86 192.082 161.411L192.075 166.5H190.836ZM200.576 166.71C200.012 166.71 199.538 166.607 199.155 166.402C198.777 166.192 198.49 165.917 198.294 165.576C198.103 165.235 198.007 164.862 198.007 164.456C198.007 164.059 198.082 163.716 198.231 163.427C198.385 163.133 198.6 162.89 198.875 162.699C199.151 162.503 199.48 162.349 199.862 162.237C200.222 162.139 200.623 162.055 201.066 161.985C201.514 161.91 201.967 161.843 202.424 161.782C202.882 161.721 203.309 161.663 203.705 161.607L203.257 161.866C203.271 161.194 203.136 160.697 202.851 160.375C202.571 160.053 202.086 159.892 201.395 159.892C200.938 159.892 200.537 159.997 200.191 160.207C199.851 160.412 199.61 160.748 199.47 161.215L198.287 160.858C198.469 160.195 198.822 159.675 199.344 159.297C199.867 158.919 200.555 158.73 201.409 158.73C202.095 158.73 202.683 158.854 203.173 159.101C203.668 159.344 204.023 159.712 204.237 160.207C204.345 160.44 204.412 160.695 204.44 160.97C204.468 161.241 204.482 161.525 204.482 161.824V166.5H203.376V164.687L203.635 164.855C203.351 165.466 202.952 165.928 202.438 166.241C201.93 166.554 201.309 166.71 200.576 166.71ZM200.765 165.667C201.213 165.667 201.601 165.588 201.927 165.429C202.259 165.266 202.525 165.053 202.725 164.792C202.926 164.526 203.057 164.237 203.117 163.924C203.187 163.691 203.225 163.432 203.229 163.147C203.239 162.858 203.243 162.636 203.243 162.482L203.677 162.671C203.271 162.727 202.872 162.781 202.48 162.832C202.088 162.883 201.717 162.939 201.367 163C201.017 163.056 200.702 163.124 200.422 163.203C200.217 163.268 200.023 163.352 199.841 163.455C199.664 163.558 199.519 163.691 199.407 163.854C199.3 164.013 199.246 164.211 199.246 164.449C199.246 164.654 199.298 164.85 199.4 165.037C199.508 165.224 199.671 165.375 199.89 165.492C200.114 165.609 200.406 165.667 200.765 165.667ZM206.442 157.603V156.315H207.688V157.603H206.442ZM206.442 166.5V158.94H207.688V166.5H206.442ZM209.929 166.5V156.21H211.175V166.5H209.929Z" fill="#212528"/>
</g>
<g filter="url(#filter4_d_2077_27745)">
<rect x="249.688" y="201" width="100" height="32" rx="16" fill="#E8F7E8" shape-rendering="crispEdges"/>
<path d="M268.317 222.5L265.398 212.42H266.7L268.94 220.393L271.173 212.427L272.482 212.42L274.722 220.393L276.955 212.42H278.264L275.345 222.5H274.099L271.831 214.597L269.562 222.5H268.317ZM284.84 222.5V218.713C284.84 218.354 284.807 218.008 284.742 217.677C284.681 217.346 284.571 217.049 284.413 216.788C284.259 216.522 284.049 216.312 283.783 216.158C283.521 216.004 283.19 215.927 282.789 215.927C282.476 215.927 282.191 215.981 281.935 216.088C281.683 216.191 281.466 216.349 281.284 216.564C281.102 216.779 280.959 217.049 280.857 217.376C280.759 217.698 280.71 218.078 280.71 218.517L279.891 218.265C279.891 217.532 280.021 216.905 280.283 216.382C280.549 215.855 280.92 215.451 281.396 215.171C281.876 214.886 282.441 214.744 283.09 214.744C283.58 214.744 283.997 214.821 284.343 214.975C284.688 215.129 284.975 215.334 285.204 215.591C285.432 215.843 285.612 216.128 285.743 216.445C285.873 216.758 285.964 217.077 286.016 217.404C286.072 217.726 286.1 218.032 286.1 218.321V222.5H284.84ZM279.45 222.5V212.42H280.57V217.985H280.71V222.5H279.45ZM290.068 222.71C289.504 222.71 289.03 222.607 288.647 222.402C288.269 222.192 287.982 221.917 287.786 221.576C287.595 221.235 287.499 220.862 287.499 220.456C287.499 220.059 287.574 219.716 287.723 219.427C287.877 219.133 288.092 218.89 288.367 218.699C288.643 218.503 288.972 218.349 289.354 218.237C289.714 218.139 290.115 218.055 290.558 217.985C291.006 217.91 291.459 217.843 291.916 217.782C292.374 217.721 292.801 217.663 293.197 217.607L292.749 217.866C292.763 217.194 292.628 216.697 292.343 216.375C292.063 216.053 291.578 215.892 290.887 215.892C290.43 215.892 290.029 215.997 289.683 216.207C289.343 216.412 289.102 216.748 288.962 217.215L287.779 216.858C287.961 216.195 288.314 215.675 288.836 215.297C289.359 214.919 290.047 214.73 290.901 214.73C291.587 214.73 292.175 214.854 292.665 215.101C293.16 215.344 293.515 215.712 293.729 216.207C293.837 216.44 293.904 216.695 293.932 216.97C293.96 217.241 293.974 217.525 293.974 217.824V222.5H292.868V220.687L293.127 220.855C292.843 221.466 292.444 221.928 291.93 222.241C291.422 222.554 290.801 222.71 290.068 222.71ZM290.257 221.667C290.705 221.667 291.093 221.588 291.419 221.429C291.751 221.266 292.017 221.053 292.217 220.792C292.418 220.526 292.549 220.237 292.609 219.924C292.679 219.691 292.717 219.432 292.721 219.147C292.731 218.858 292.735 218.636 292.735 218.482L293.169 218.671C292.763 218.727 292.364 218.781 291.972 218.832C291.58 218.883 291.209 218.939 290.859 219C290.509 219.056 290.194 219.124 289.914 219.203C289.709 219.268 289.515 219.352 289.333 219.455C289.156 219.558 289.011 219.691 288.899 219.854C288.792 220.013 288.738 220.211 288.738 220.449C288.738 220.654 288.79 220.85 288.892 221.037C289 221.224 289.163 221.375 289.382 221.492C289.606 221.609 289.898 221.667 290.257 221.667ZM300.015 222.5C299.567 222.589 299.124 222.624 298.685 222.605C298.251 222.591 297.864 222.505 297.523 222.346C297.183 222.183 296.924 221.931 296.746 221.59C296.597 221.291 296.515 220.99 296.501 220.687C296.492 220.379 296.487 220.031 296.487 219.644V212.84H297.733V219.588C297.733 219.896 297.736 220.16 297.74 220.379C297.75 220.598 297.799 220.787 297.887 220.946C298.055 221.245 298.321 221.42 298.685 221.471C299.054 221.522 299.497 221.508 300.015 221.429V222.5ZM294.954 215.969V214.94H300.015V215.969H294.954ZM304.406 222.703C303.506 222.703 302.766 222.507 302.187 222.115C301.613 221.718 301.261 221.165 301.13 220.456L302.404 220.253C302.507 220.664 302.743 220.99 303.111 221.233C303.48 221.471 303.937 221.59 304.483 221.59C305.001 221.59 305.407 221.483 305.701 221.268C305.995 221.053 306.142 220.762 306.142 220.393C306.142 220.178 306.093 220.006 305.995 219.875C305.897 219.74 305.694 219.614 305.386 219.497C305.083 219.38 304.623 219.24 304.007 219.077C303.34 218.9 302.815 218.715 302.432 218.524C302.05 218.333 301.777 218.111 301.613 217.859C301.45 217.607 301.368 217.301 301.368 216.942C301.368 216.499 301.49 216.111 301.732 215.78C301.975 215.444 302.313 215.185 302.747 215.003C303.186 214.821 303.695 214.73 304.273 214.73C304.847 214.73 305.361 214.821 305.813 215.003C306.266 215.185 306.63 215.444 306.905 215.78C307.185 216.111 307.351 216.499 307.402 216.942L306.128 217.173C306.068 216.767 305.872 216.447 305.54 216.214C305.214 215.981 304.791 215.857 304.273 215.843C303.783 215.824 303.384 215.911 303.076 216.102C302.773 216.293 302.621 216.552 302.621 216.879C302.621 217.061 302.677 217.217 302.789 217.348C302.906 217.479 303.118 217.602 303.426 217.719C303.739 217.836 304.192 217.969 304.784 218.118C305.452 218.286 305.977 218.47 306.359 218.671C306.747 218.867 307.022 219.1 307.185 219.371C307.349 219.637 307.43 219.966 307.43 220.358C307.43 221.086 307.162 221.66 306.625 222.08C306.089 222.495 305.349 222.703 304.406 222.703ZM308.274 222.5L311.648 212.42H313.384L316.758 222.5H315.463L312.306 213.148H312.698L309.569 222.5H308.274ZM309.898 220.141V218.972H315.134V220.141H309.898ZM321.483 222.71C320.774 222.71 320.177 222.535 319.691 222.185C319.206 221.83 318.837 221.352 318.585 220.75C318.338 220.143 318.214 219.464 318.214 218.713C318.214 217.952 318.338 217.271 318.585 216.669C318.837 216.067 319.206 215.593 319.691 215.248C320.181 214.903 320.781 214.73 321.49 214.73C322.19 214.73 322.792 214.905 323.296 215.255C323.805 215.6 324.195 216.074 324.465 216.676C324.736 217.278 324.871 217.957 324.871 218.713C324.871 219.469 324.736 220.148 324.465 220.75C324.195 221.352 323.805 221.83 323.296 222.185C322.792 222.535 322.188 222.71 321.483 222.71ZM318.004 225.86V214.94H319.117V220.505H319.257V225.86H318.004ZM321.329 221.569C321.829 221.569 322.242 221.443 322.568 221.191C322.895 220.939 323.14 220.598 323.303 220.169C323.467 219.735 323.548 219.25 323.548 218.713C323.548 218.181 323.467 217.7 323.303 217.271C323.145 216.842 322.897 216.501 322.561 216.249C322.23 215.997 321.808 215.871 321.294 215.871C320.804 215.871 320.398 215.992 320.076 216.235C319.754 216.473 319.514 216.807 319.355 217.236C319.197 217.661 319.117 218.153 319.117 218.713C319.117 219.264 319.194 219.756 319.348 220.19C319.507 220.619 319.75 220.958 320.076 221.205C320.403 221.448 320.821 221.569 321.329 221.569ZM329.878 222.71C329.168 222.71 328.571 222.535 328.086 222.185C327.6 221.83 327.232 221.352 326.98 220.75C326.732 220.143 326.609 219.464 326.609 218.713C326.609 217.952 326.732 217.271 326.98 216.669C327.232 216.067 327.6 215.593 328.086 215.248C328.576 214.903 329.175 214.73 329.885 214.73C330.585 214.73 331.187 214.905 331.691 215.255C332.199 215.6 332.589 216.074 332.86 216.676C333.13 217.278 333.266 217.957 333.266 218.713C333.266 219.469 333.13 220.148 332.86 220.75C332.589 221.352 332.199 221.83 331.691 222.185C331.187 222.535 330.582 222.71 329.878 222.71ZM326.399 225.86V214.94H327.512V220.505H327.652V225.86H326.399ZM329.724 221.569C330.223 221.569 330.636 221.443 330.963 221.191C331.289 220.939 331.534 220.598 331.698 220.169C331.861 219.735 331.943 219.25 331.943 218.713C331.943 218.181 331.861 217.7 331.698 217.271C331.539 216.842 331.292 216.501 330.956 216.249C330.624 215.997 330.202 215.871 329.689 215.871C329.199 215.871 328.793 215.992 328.471 216.235C328.149 216.473 327.908 216.807 327.75 217.236C327.591 217.661 327.512 218.153 327.512 218.713C327.512 219.264 327.589 219.756 327.743 220.19C327.901 220.619 328.144 220.958 328.471 221.205C328.797 221.448 329.215 221.569 329.724 221.569Z" fill="#212528"/>
</g>
<g filter="url(#filter5_d_2077_27745)">
<rect x="269.688" y="241" width="60" height="60" rx="7.875" fill="#E8F7E8"/>
<path fill-rule="evenodd" clip-rule="evenodd" d="M296.53 265.715C296.293 265.189 296.044 265.179 295.819 265.169C295.635 265.162 295.425 265.162 295.214 265.162C295.004 265.162 294.662 265.241 294.373 265.557C294.084 265.873 293.268 266.636 293.268 268.189C293.268 269.742 294.399 271.242 294.557 271.453C294.715 271.664 296.74 274.952 299.948 276.217C302.614 277.269 303.157 277.059 303.736 277.007C304.314 276.954 305.603 276.244 305.866 275.507C306.129 274.77 306.129 274.138 306.05 274.006C305.971 273.874 305.761 273.796 305.445 273.638C305.13 273.48 303.578 272.716 303.288 272.611C302.999 272.506 302.789 272.453 302.578 272.769C302.368 273.085 301.763 273.796 301.579 274.006C301.395 274.217 301.211 274.243 300.895 274.085C300.58 273.927 299.563 273.594 298.357 272.519C297.419 271.683 296.786 270.649 296.601 270.334C296.417 270.018 296.582 269.847 296.74 269.69C296.882 269.548 297.056 269.321 297.214 269.137C297.371 268.952 297.424 268.821 297.529 268.611C297.634 268.4 297.581 268.215 297.502 268.058C297.424 267.9 296.81 266.339 296.53 265.715Z" fill="#29A653"/>
<path fill-rule="evenodd" clip-rule="evenodd" d="M289.975 280.857L291.051 276.973C289.876 275.278 289.187 273.219 289.187 271C289.187 265.201 293.888 260.5 299.687 260.5C305.486 260.5 310.187 265.201 310.187 271C310.187 276.799 305.486 281.5 299.687 281.5C297.576 281.5 295.611 280.877 293.964 279.805L289.975 280.857ZM293.581 282.62L286.225 284.561L288.215 277.379C287.162 275.489 286.562 273.312 286.562 271C286.562 263.751 292.439 257.875 299.687 257.875C306.936 257.875 312.812 263.751 312.812 271C312.812 278.249 306.936 284.125 299.687 284.125C297.486 284.125 295.407 283.581 293.581 282.62Z" fill="#29A653"/>
</g>
<g filter="url(#filter6_d_2077_27745)">
<rect x="374.094" y="77" width="60" height="60" rx="7.875" fill="#E2F0FF"/>
<path d="M390.969 99.125C390.969 96.9504 392.732 95.1875 394.906 95.1875H413.281C415.456 95.1875 417.219 96.9504 417.219 99.125V109.625C417.219 111.8 415.456 113.562 413.281 113.562H390.969V99.125Z" fill="#0D4680"/>
<path d="M390.969 99.125C390.969 96.9504 392.732 95.1875 394.906 95.1875H413.419C413.762 95.1875 414.104 95.2429 414.43 95.3516L390.969 118.813V99.125Z" fill="#66BDFF"/>
</g>
<g filter="url(#filter7_d_2077_27745)">
<rect x="354.094" y="145" width="100" height="32" rx="16" fill="#E2F0FF" shape-rendering="crispEdges"/>
<path d="M393.651 166.71C392.937 166.71 392.293 166.589 391.719 166.346C391.149 166.103 390.678 165.758 390.305 165.31C389.936 164.857 389.696 164.323 389.584 163.707L390.872 163.504C391.035 164.139 391.373 164.636 391.887 164.995C392.405 165.35 393.014 165.527 393.714 165.527C394.166 165.527 394.575 165.457 394.939 165.317C395.307 165.172 395.599 164.967 395.814 164.701C396.028 164.435 396.136 164.12 396.136 163.756C396.136 163.532 396.096 163.341 396.017 163.182C395.942 163.019 395.837 162.881 395.702 162.769C395.571 162.652 395.422 162.554 395.254 162.475C395.086 162.396 394.911 162.33 394.729 162.279L392.16 161.516C391.88 161.432 391.609 161.327 391.348 161.201C391.086 161.07 390.853 160.909 390.648 160.718C390.442 160.522 390.279 160.289 390.158 160.018C390.036 159.743 389.976 159.418 389.976 159.045C389.976 158.448 390.13 157.939 390.438 157.519C390.75 157.094 391.173 156.77 391.705 156.546C392.237 156.322 392.836 156.212 393.504 156.217C394.18 156.222 394.785 156.343 395.317 156.581C395.853 156.814 396.297 157.15 396.647 157.589C397.001 158.028 397.239 158.553 397.361 159.164L396.038 159.395C395.968 158.984 395.811 158.632 395.569 158.338C395.331 158.039 395.032 157.811 394.673 157.652C394.313 157.489 393.919 157.405 393.49 157.4C393.079 157.395 392.708 157.461 392.377 157.596C392.045 157.731 391.782 157.92 391.586 158.163C391.39 158.401 391.292 158.676 391.292 158.989C391.292 159.297 391.38 159.547 391.558 159.738C391.735 159.925 391.952 160.074 392.209 160.186C392.47 160.293 392.724 160.382 392.972 160.452L394.89 161.005C395.109 161.066 395.361 161.15 395.646 161.257C395.935 161.364 396.215 161.516 396.486 161.712C396.756 161.903 396.98 162.16 397.158 162.482C397.335 162.799 397.424 163.201 397.424 163.686C397.424 164.171 397.326 164.603 397.13 164.981C396.938 165.359 396.67 165.676 396.325 165.933C395.979 166.185 395.578 166.376 395.121 166.507C394.663 166.642 394.173 166.71 393.651 166.71ZM398.892 166.5V156.42H400.026L403.834 164.449L407.621 156.42H408.769V166.493H407.586V159.157L404.163 166.5H403.498L400.075 159.157V166.5H398.892ZM414.309 166.71C413.595 166.71 412.951 166.589 412.377 166.346C411.808 166.103 411.336 165.758 410.963 165.31C410.594 164.857 410.354 164.323 410.242 163.707L411.53 163.504C411.693 164.139 412.032 164.636 412.545 164.995C413.063 165.35 413.672 165.527 414.372 165.527C414.825 165.527 415.233 165.457 415.597 165.317C415.966 165.172 416.257 164.967 416.472 164.701C416.687 164.435 416.794 164.12 416.794 163.756C416.794 163.532 416.754 163.341 416.675 163.182C416.6 163.019 416.495 162.881 416.36 162.769C416.229 162.652 416.08 162.554 415.912 162.475C415.744 162.396 415.569 162.33 415.387 162.279L412.818 161.516C412.538 161.432 412.267 161.327 412.006 161.201C411.745 161.07 411.511 160.909 411.306 160.718C411.101 160.522 410.937 160.289 410.816 160.018C410.695 159.743 410.634 159.418 410.634 159.045C410.634 158.448 410.788 157.939 411.096 157.519C411.409 157.094 411.831 156.77 412.363 156.546C412.895 156.322 413.495 156.212 414.162 156.217C414.839 156.222 415.443 156.343 415.975 156.581C416.512 156.814 416.955 157.15 417.305 157.589C417.66 158.028 417.898 158.553 418.019 159.164L416.696 159.395C416.626 158.984 416.47 158.632 416.227 158.338C415.989 158.039 415.69 157.811 415.331 157.652C414.972 157.489 414.577 157.405 414.148 157.4C413.737 157.395 413.366 157.461 413.035 157.596C412.704 157.731 412.44 157.92 412.244 158.163C412.048 158.401 411.95 158.676 411.95 158.989C411.95 159.297 412.039 159.547 412.216 159.738C412.393 159.925 412.61 160.074 412.867 160.186C413.128 160.293 413.383 160.382 413.63 160.452L415.548 161.005C415.767 161.066 416.019 161.15 416.304 161.257C416.593 161.364 416.873 161.516 417.144 161.712C417.415 161.903 417.639 162.16 417.816 162.482C417.993 162.799 418.082 163.201 418.082 163.686C418.082 164.171 417.984 164.603 417.788 164.981C417.597 165.359 417.328 165.676 416.983 165.933C416.638 166.185 416.236 166.376 415.779 166.507C415.322 166.642 414.832 166.71 414.309 166.71Z" fill="#212528"/>
</g>
<g filter="url(#filter8_d_2077_27745)">
<rect x="458.5" y="201" width="100" height="32" rx="16" fill="#E8F7E8" shape-rendering="crispEdges"/>
<path d="M466.803 222.5V212.42H468.063L473.32 220.295V212.42H474.58V222.5H473.32L468.063 214.618V222.5H466.803ZM479.758 222.71C479.006 222.71 478.358 222.54 477.812 222.199C477.27 221.858 476.853 221.387 476.559 220.785C476.265 220.183 476.118 219.492 476.118 218.713C476.118 217.92 476.267 217.224 476.566 216.627C476.864 216.03 477.287 215.565 477.833 215.234C478.379 214.898 479.02 214.73 479.758 214.73C480.514 214.73 481.165 214.9 481.711 215.241C482.257 215.577 482.674 216.046 482.964 216.648C483.258 217.245 483.405 217.934 483.405 218.713C483.405 219.502 483.258 220.197 482.964 220.799C482.67 221.396 482.25 221.865 481.704 222.206C481.158 222.542 480.509 222.71 479.758 222.71ZM479.758 221.527C480.542 221.527 481.125 221.266 481.508 220.743C481.89 220.22 482.082 219.544 482.082 218.713C482.082 217.859 481.888 217.18 481.501 216.676C481.113 216.167 480.532 215.913 479.758 215.913C479.23 215.913 478.796 216.032 478.456 216.27C478.115 216.508 477.861 216.837 477.693 217.257C477.525 217.677 477.441 218.162 477.441 218.713C477.441 219.562 477.637 220.244 478.029 220.757C478.421 221.27 478.997 221.527 479.758 221.527ZM489.167 222.5C488.719 222.589 488.275 222.624 487.837 222.605C487.403 222.591 487.015 222.505 486.675 222.346C486.334 222.183 486.075 221.931 485.898 221.59C485.748 221.291 485.667 220.99 485.653 220.687C485.643 220.379 485.639 220.031 485.639 219.644V212.84H486.885V219.588C486.885 219.896 486.887 220.16 486.892 220.379C486.901 220.598 486.95 220.787 487.039 220.946C487.207 221.245 487.473 221.42 487.837 221.471C488.205 221.522 488.649 221.508 489.167 221.429V222.5ZM484.106 215.969V214.94H489.167V215.969H484.106ZM490.842 213.603V212.315H492.088V213.603H490.842ZM490.842 222.5V214.94H492.088V222.5H490.842ZM494.909 222.5V214.527C494.909 214.331 494.918 214.133 494.937 213.932C494.956 213.727 494.998 213.528 495.063 213.337C495.128 213.141 495.236 212.961 495.385 212.798C495.558 212.607 495.747 212.471 495.952 212.392C496.157 212.308 496.365 212.257 496.575 212.238C496.79 212.219 496.993 212.21 497.184 212.21H498.143V213.246H497.254C496.885 213.246 496.61 213.337 496.428 213.519C496.246 213.696 496.155 213.967 496.155 214.331V222.5H494.909ZM493.628 215.969V214.94H498.143V215.969H493.628ZM499.613 213.603V212.315H500.859V213.603H499.613ZM499.613 222.5V214.94H500.859V222.5H499.613ZM506.15 222.71C505.385 222.71 504.734 222.54 504.197 222.199C503.665 221.854 503.259 221.38 502.979 220.778C502.699 220.176 502.555 219.49 502.545 218.72C502.555 217.931 502.702 217.238 502.986 216.641C503.276 216.039 503.689 215.57 504.225 215.234C504.762 214.898 505.408 214.73 506.164 214.73C506.962 214.73 507.648 214.926 508.222 215.318C508.801 215.71 509.188 216.247 509.384 216.928L508.152 217.299C507.994 216.86 507.735 216.52 507.375 216.277C507.021 216.034 506.612 215.913 506.15 215.913C505.632 215.913 505.205 216.034 504.869 216.277C504.533 216.515 504.284 216.846 504.12 217.271C503.957 217.691 503.873 218.174 503.868 218.72C503.878 219.56 504.071 220.239 504.449 220.757C504.832 221.27 505.399 221.527 506.15 221.527C506.645 221.527 507.056 221.415 507.382 221.191C507.709 220.962 507.956 220.633 508.124 220.204L509.384 220.533C509.123 221.238 508.715 221.777 508.159 222.15C507.604 222.523 506.934 222.71 506.15 222.71ZM512.894 222.71C512.329 222.71 511.855 222.607 511.473 222.402C511.095 222.192 510.808 221.917 510.612 221.576C510.42 221.235 510.325 220.862 510.325 220.456C510.325 220.059 510.399 219.716 510.549 219.427C510.703 219.133 510.917 218.89 511.193 218.699C511.468 218.503 511.797 218.349 512.18 218.237C512.539 218.139 512.94 218.055 513.384 217.985C513.832 217.91 514.284 217.843 514.742 217.782C515.199 217.721 515.626 217.663 516.023 217.607L515.575 217.866C515.589 217.194 515.453 216.697 515.169 216.375C514.889 216.053 514.403 215.892 513.713 215.892C513.255 215.892 512.854 215.997 512.509 216.207C512.168 216.412 511.928 216.748 511.788 217.215L510.605 216.858C510.787 216.195 511.139 215.675 511.662 215.297C512.184 214.919 512.873 214.73 513.727 214.73C514.413 214.73 515.001 214.854 515.491 215.101C515.985 215.344 516.34 215.712 516.555 216.207C516.662 216.44 516.73 216.695 516.758 216.97C516.786 217.241 516.8 217.525 516.8 217.824V222.5H515.694V220.687L515.953 220.855C515.668 221.466 515.269 221.928 514.756 222.241C514.247 222.554 513.626 222.71 512.894 222.71ZM513.083 221.667C513.531 221.667 513.918 221.588 514.245 221.429C514.576 221.266 514.842 221.053 515.043 220.792C515.243 220.526 515.374 220.237 515.435 219.924C515.505 219.691 515.542 219.432 515.547 219.147C515.556 218.858 515.561 218.636 515.561 218.482L515.995 218.671C515.589 218.727 515.19 218.781 514.798 218.832C514.406 218.883 514.035 218.939 513.685 219C513.335 219.056 513.02 219.124 512.74 219.203C512.534 219.268 512.341 219.352 512.159 219.455C511.981 219.558 511.837 219.691 511.725 219.854C511.617 220.013 511.564 220.211 511.564 220.449C511.564 220.654 511.615 220.85 511.718 221.037C511.825 221.224 511.988 221.375 512.208 221.492C512.432 221.609 512.723 221.667 513.083 221.667ZM522.841 222.5C522.393 222.589 521.949 222.624 521.511 222.605C521.077 222.591 520.689 222.505 520.349 222.346C520.008 222.183 519.749 221.931 519.572 221.59C519.422 221.291 519.341 220.99 519.327 220.687C519.317 220.379 519.313 220.031 519.313 219.644V212.84H520.559V219.588C520.559 219.896 520.561 220.16 520.566 220.379C520.575 220.598 520.624 220.787 520.713 220.946C520.881 221.245 521.147 221.42 521.511 221.471C521.879 221.522 522.323 221.508 522.841 221.429V222.5ZM517.78 215.969V214.94H522.841V215.969H517.78ZM524.516 213.603V212.315H525.762V213.603H524.516ZM524.516 222.5V214.94H525.762V222.5H524.516ZM531.082 222.71C530.331 222.71 529.682 222.54 529.136 222.199C528.595 221.858 528.177 221.387 527.883 220.785C527.589 220.183 527.442 219.492 527.442 218.713C527.442 217.92 527.591 217.224 527.89 216.627C528.189 216.03 528.611 215.565 529.157 215.234C529.703 214.898 530.345 214.73 531.082 214.73C531.838 214.73 532.489 214.9 533.035 215.241C533.581 215.577 533.999 216.046 534.288 216.648C534.582 217.245 534.729 217.934 534.729 218.713C534.729 219.502 534.582 220.197 534.288 220.799C533.994 221.396 533.574 221.865 533.028 222.206C532.482 222.542 531.833 222.71 531.082 222.71ZM531.082 221.527C531.866 221.527 532.449 221.266 532.832 220.743C533.215 220.22 533.406 219.544 533.406 218.713C533.406 217.859 533.212 217.18 532.825 216.676C532.438 216.167 531.857 215.913 531.082 215.913C530.555 215.913 530.121 216.032 529.78 216.27C529.439 216.508 529.185 216.837 529.017 217.257C528.849 217.677 528.765 218.162 528.765 218.713C528.765 219.562 528.961 220.244 529.353 220.757C529.745 221.27 530.321 221.527 531.082 221.527ZM541.653 222.5V218.713C541.653 218.354 541.62 218.008 541.555 217.677C541.494 217.346 541.385 217.049 541.226 216.788C541.072 216.522 540.862 216.312 540.596 216.158C540.335 216.004 540.003 215.927 539.602 215.927C539.289 215.927 539.005 215.981 538.748 216.088C538.496 216.191 538.279 216.349 538.097 216.564C537.915 216.779 537.773 217.049 537.67 217.376C537.572 217.698 537.523 218.078 537.523 218.517L536.704 218.265C536.704 217.532 536.835 216.905 537.096 216.382C537.362 215.855 537.733 215.451 538.209 215.171C538.69 214.886 539.254 214.744 539.903 214.744C540.393 214.744 540.811 214.821 541.156 214.975C541.501 215.129 541.788 215.334 542.017 215.591C542.246 215.843 542.425 216.128 542.556 216.445C542.687 216.758 542.778 217.077 542.829 217.404C542.885 217.726 542.913 218.032 542.913 218.321V222.5H541.653ZM536.263 222.5V214.94H537.383V216.963H537.523V222.5H536.263ZM547.589 222.703C546.688 222.703 545.949 222.507 545.37 222.115C544.796 221.718 544.444 221.165 544.313 220.456L545.587 220.253C545.69 220.664 545.925 220.99 546.294 221.233C546.663 221.471 547.12 221.59 547.666 221.59C548.184 221.59 548.59 221.483 548.884 221.268C549.178 221.053 549.325 220.762 549.325 220.393C549.325 220.178 549.276 220.006 549.178 219.875C549.08 219.74 548.877 219.614 548.569 219.497C548.266 219.38 547.806 219.24 547.19 219.077C546.523 218.9 545.998 218.715 545.615 218.524C545.232 218.333 544.959 218.111 544.796 217.859C544.633 217.607 544.551 217.301 544.551 216.942C544.551 216.499 544.672 216.111 544.915 215.78C545.158 215.444 545.496 215.185 545.93 215.003C546.369 214.821 546.877 214.73 547.456 214.73C548.03 214.73 548.543 214.821 548.996 215.003C549.449 215.185 549.813 215.444 550.088 215.78C550.368 216.111 550.534 216.499 550.585 216.942L549.311 217.173C549.25 216.767 549.054 216.447 548.723 216.214C548.396 215.981 547.974 215.857 547.456 215.843C546.966 215.824 546.567 215.911 546.259 216.102C545.956 216.293 545.804 216.552 545.804 216.879C545.804 217.061 545.86 217.217 545.972 217.348C546.089 217.479 546.301 217.602 546.609 217.719C546.922 217.836 547.374 217.969 547.967 218.118C548.634 218.286 549.159 218.47 549.542 218.671C549.929 218.867 550.205 219.1 550.368 219.371C550.531 219.637 550.613 219.966 550.613 220.358C550.613 221.086 550.345 221.66 549.808 222.08C549.271 222.495 548.532 222.703 547.589 222.703Z" fill="#212528"/>
</g>
<g filter="url(#filter9_d_2077_27745)">
<rect x="478.5" y="241" width="60" height="60" rx="7.875" fill="#E8F7E8"/>
<path d="M502.699 260.277L500.822 258.4C497.672 260.802 495.598 264.503 495.414 268.703H498.039C498.236 265.225 500.021 262.18 502.699 260.277ZM518.961 268.703H521.586C521.389 264.503 519.315 260.802 516.178 258.4L514.314 260.277C516.966 262.18 518.764 265.225 518.961 268.703ZM516.375 269.359C516.375 265.33 514.222 261.957 510.469 261.064V260.172C510.469 259.082 509.589 258.203 508.5 258.203C507.411 258.203 506.531 259.082 506.531 260.172V261.064C502.764 261.957 500.625 265.317 500.625 269.359V275.922L498 278.547V279.859H519V278.547L516.375 275.922V269.359ZM508.5 283.797C508.684 283.797 508.854 283.784 509.025 283.744C509.878 283.561 510.574 282.983 510.915 282.196C511.046 281.881 511.112 281.539 511.112 281.172H505.862C505.875 282.616 507.043 283.797 508.5 283.797Z" fill="#29A653"/>
</g>
<g filter="url(#filter10_d_2077_27745)">
<rect x="174" y="325" width="252.767" height="47.3836" rx="23.6918" fill="white" shape-rendering="crispEdges"/>
<path d="M195.784 356.192V341.792H197.404L202.844 353.262L208.254 341.792H209.894V356.182H208.204V345.702L203.314 356.192H202.364L197.474 345.702V356.192H195.784ZM216.798 356.472C216.104 356.472 215.508 356.362 215.008 356.142C214.514 355.922 214.104 355.628 213.778 355.262C213.451 354.895 213.194 354.488 213.008 354.042C212.821 353.595 212.688 353.138 212.608 352.672C212.534 352.205 212.498 351.768 212.498 351.362V345.392H214.298V350.802C214.298 351.308 214.344 351.798 214.438 352.272C214.531 352.745 214.688 353.172 214.908 353.552C215.134 353.932 215.434 354.232 215.808 354.452C216.188 354.672 216.661 354.782 217.228 354.782C217.674 354.782 218.081 354.705 218.448 354.552C218.814 354.398 219.128 354.172 219.388 353.872C219.648 353.565 219.848 353.178 219.988 352.712C220.128 352.245 220.198 351.702 220.198 351.082L221.368 351.442C221.368 352.482 221.178 353.378 220.798 354.132C220.424 354.885 219.894 355.465 219.208 355.872C218.528 356.272 217.724 356.472 216.798 356.472ZM220.398 356.192V353.302H220.198V345.392H221.988V356.192H220.398ZM224.988 356.192V341.492H226.768V356.192H224.988ZM235.798 356.192C235.158 356.318 234.525 356.368 233.898 356.342C233.278 356.322 232.725 356.198 232.238 355.972C231.751 355.738 231.381 355.378 231.128 354.892C230.915 354.465 230.798 354.035 230.778 353.602C230.765 353.162 230.758 352.665 230.758 352.112V342.392H232.538V352.032C232.538 352.472 232.541 352.848 232.548 353.162C232.561 353.475 232.631 353.745 232.758 353.972C232.998 354.398 233.378 354.648 233.898 354.722C234.425 354.795 235.058 354.775 235.798 354.662V356.192ZM228.568 346.862V345.392H235.798V346.862H228.568ZM238.191 343.482V341.642H239.971V343.482H238.191ZM238.191 356.192V345.392H239.971V356.192H238.191ZM242.771 350.622V349.152H248.771V350.622H242.771ZM255.92 356.492C254.826 356.492 253.896 356.248 253.13 355.762C252.37 355.268 251.79 354.592 251.39 353.732C250.99 352.872 250.783 351.892 250.77 350.792C250.783 349.665 250.993 348.675 251.4 347.822C251.813 346.962 252.403 346.292 253.17 345.812C253.936 345.332 254.86 345.092 255.94 345.092C257.08 345.092 258.06 345.372 258.88 345.932C259.706 346.492 260.26 347.258 260.54 348.232L258.78 348.762C258.553 348.135 258.183 347.648 257.67 347.302C257.163 346.955 256.58 346.782 255.92 346.782C255.18 346.782 254.57 346.955 254.09 347.302C253.61 347.642 253.253 348.115 253.02 348.722C252.786 349.322 252.666 350.012 252.66 350.792C252.673 351.992 252.95 352.962 253.49 353.702C254.036 354.435 254.846 354.802 255.92 354.802C256.626 354.802 257.213 354.642 257.68 354.322C258.146 353.995 258.5 353.525 258.74 352.912L260.54 353.382C260.166 354.388 259.583 355.158 258.79 355.692C257.996 356.225 257.04 356.492 255.92 356.492ZM270.271 356.192V350.782C270.271 350.268 270.224 349.775 270.131 349.302C270.044 348.828 269.887 348.405 269.661 348.032C269.441 347.652 269.141 347.352 268.761 347.132C268.387 346.912 267.914 346.802 267.341 346.802C266.894 346.802 266.487 346.878 266.121 347.032C265.761 347.178 265.451 347.405 265.191 347.712C264.931 348.018 264.727 348.405 264.581 348.872C264.441 349.332 264.371 349.875 264.371 350.502L263.201 350.142C263.201 349.095 263.387 348.198 263.761 347.452C264.141 346.698 264.671 346.122 265.351 345.722C266.037 345.315 266.844 345.112 267.771 345.112C268.471 345.112 269.067 345.222 269.561 345.442C270.054 345.662 270.464 345.955 270.791 346.322C271.117 346.682 271.374 347.088 271.561 347.542C271.747 347.988 271.877 348.445 271.951 348.912C272.031 349.372 272.071 349.808 272.071 350.222V356.192H270.271ZM262.571 356.192V341.792H264.171V349.742H264.371V356.192H262.571ZM277.74 356.492C276.934 356.492 276.257 356.345 275.71 356.052C275.17 355.752 274.76 355.358 274.48 354.872C274.207 354.385 274.07 353.852 274.07 353.272C274.07 352.705 274.177 352.215 274.39 351.802C274.61 351.382 274.917 351.035 275.31 350.762C275.704 350.482 276.174 350.262 276.72 350.102C277.234 349.962 277.807 349.842 278.44 349.742C279.08 349.635 279.727 349.538 280.38 349.452C281.034 349.365 281.644 349.282 282.21 349.202L281.57 349.572C281.59 348.612 281.397 347.902 280.99 347.442C280.59 346.982 279.897 346.752 278.91 346.752C278.257 346.752 277.684 346.902 277.19 347.202C276.704 347.495 276.36 347.975 276.16 348.642L274.47 348.132C274.73 347.185 275.234 346.442 275.98 345.902C276.727 345.362 277.71 345.092 278.93 345.092C279.91 345.092 280.75 345.268 281.45 345.622C282.157 345.968 282.664 346.495 282.97 347.202C283.124 347.535 283.22 347.898 283.26 348.292C283.3 348.678 283.32 349.085 283.32 349.512V356.192H281.74V353.602L282.11 353.842C281.704 354.715 281.134 355.375 280.4 355.822C279.674 356.268 278.787 356.492 277.74 356.492ZM278.01 355.002C278.65 355.002 279.204 354.888 279.67 354.662C280.144 354.428 280.524 354.125 280.81 353.752C281.097 353.372 281.284 352.958 281.37 352.512C281.47 352.178 281.524 351.808 281.53 351.402C281.544 350.988 281.55 350.672 281.55 350.452L282.17 350.722C281.59 350.802 281.02 350.878 280.46 350.952C279.9 351.025 279.37 351.105 278.87 351.192C278.37 351.272 277.92 351.368 277.52 351.482C277.227 351.575 276.95 351.695 276.69 351.842C276.437 351.988 276.23 352.178 276.07 352.412C275.917 352.638 275.84 352.922 275.84 353.262C275.84 353.555 275.914 353.835 276.06 354.102C276.214 354.368 276.447 354.585 276.76 354.752C277.08 354.918 277.497 355.002 278.01 355.002ZM293.61 356.192V350.782C293.61 350.268 293.564 349.775 293.47 349.302C293.384 348.828 293.227 348.405 293 348.032C292.78 347.652 292.48 347.352 292.1 347.132C291.727 346.912 291.254 346.802 290.68 346.802C290.234 346.802 289.827 346.878 289.46 347.032C289.1 347.178 288.79 347.405 288.53 347.712C288.27 348.018 288.067 348.405 287.92 348.872C287.78 349.332 287.71 349.875 287.71 350.502L286.54 350.142C286.54 349.095 286.727 348.198 287.1 347.452C287.48 346.698 288.01 346.122 288.69 345.722C289.377 345.315 290.184 345.112 291.11 345.112C291.81 345.112 292.407 345.222 292.9 345.442C293.394 345.662 293.804 345.955 294.13 346.322C294.457 346.682 294.714 347.088 294.9 347.542C295.087 347.988 295.217 348.445 295.29 348.912C295.37 349.372 295.41 349.808 295.41 350.222V356.192H293.61ZM285.91 356.192V345.392H287.51V348.282H287.71V356.192H285.91ZM305.7 356.192V350.782C305.7 350.268 305.654 349.775 305.56 349.302C305.474 348.828 305.317 348.405 305.09 348.032C304.87 347.652 304.57 347.352 304.19 347.132C303.817 346.912 303.344 346.802 302.77 346.802C302.324 346.802 301.917 346.878 301.55 347.032C301.19 347.178 300.88 347.405 300.62 347.712C300.36 348.018 300.157 348.405 300.01 348.872C299.87 349.332 299.8 349.875 299.8 350.502L298.63 350.142C298.63 349.095 298.817 348.198 299.19 347.452C299.57 346.698 300.1 346.122 300.78 345.722C301.467 345.315 302.274 345.112 303.2 345.112C303.9 345.112 304.497 345.222 304.99 345.442C305.484 345.662 305.894 345.955 306.22 346.322C306.547 346.682 306.804 347.088 306.99 347.542C307.177 347.988 307.307 348.445 307.38 348.912C307.46 349.372 307.5 349.808 307.5 350.222V356.192H305.7ZM298 356.192V345.392H299.6V348.282H299.8V356.192H298ZM314.682 356.492C313.622 356.492 312.696 356.258 311.902 355.792C311.116 355.318 310.502 354.662 310.062 353.822C309.622 352.975 309.402 351.988 309.402 350.862C309.402 349.682 309.619 348.662 310.052 347.802C310.486 346.935 311.089 346.268 311.862 345.802C312.642 345.328 313.556 345.092 314.602 345.092C315.689 345.092 316.612 345.342 317.372 345.842C318.139 346.342 318.712 347.055 319.092 347.982C319.479 348.908 319.646 350.012 319.592 351.292H317.792V350.652C317.772 349.325 317.502 348.335 316.982 347.682C316.462 347.022 315.689 346.692 314.662 346.692C313.562 346.692 312.726 347.045 312.152 347.752C311.579 348.458 311.292 349.472 311.292 350.792C311.292 352.065 311.579 353.052 312.152 353.752C312.726 354.452 313.542 354.802 314.602 354.802C315.316 354.802 315.936 354.638 316.462 354.312C316.989 353.985 317.402 353.515 317.702 352.902L319.412 353.492C318.992 354.445 318.359 355.185 317.512 355.712C316.672 356.232 315.729 356.492 314.682 356.492ZM310.692 351.292V349.862H318.672V351.292H310.692ZM322.019 356.192V341.492H323.799V356.192H322.019ZM335.913 356.492C334.893 356.492 333.973 356.318 333.153 355.972C332.34 355.625 331.667 355.132 331.133 354.492C330.607 353.845 330.263 353.082 330.103 352.202L331.943 351.912C332.177 352.818 332.66 353.528 333.393 354.042C334.133 354.548 335.003 354.802 336.003 354.802C336.65 354.802 337.233 354.702 337.753 354.502C338.28 354.295 338.697 354.002 339.003 353.622C339.31 353.242 339.463 352.792 339.463 352.272C339.463 351.952 339.407 351.678 339.293 351.452C339.187 351.218 339.037 351.022 338.843 350.862C338.657 350.695 338.443 350.555 338.203 350.442C337.963 350.328 337.713 350.235 337.453 350.162L333.783 349.072C333.383 348.952 332.997 348.802 332.623 348.622C332.25 348.435 331.917 348.205 331.623 347.932C331.33 347.652 331.097 347.318 330.923 346.932C330.75 346.538 330.663 346.075 330.663 345.542C330.663 344.688 330.883 343.962 331.323 343.362C331.77 342.755 332.373 342.292 333.133 341.972C333.893 341.652 334.75 341.495 335.703 341.502C336.67 341.508 337.533 341.682 338.293 342.022C339.06 342.355 339.693 342.835 340.193 343.462C340.7 344.088 341.04 344.838 341.213 345.712L339.323 346.042C339.223 345.455 339 344.952 338.653 344.532C338.313 344.105 337.887 343.778 337.373 343.552C336.86 343.318 336.297 343.198 335.683 343.192C335.097 343.185 334.567 343.278 334.093 343.472C333.62 343.665 333.243 343.935 332.963 344.282C332.683 344.622 332.543 345.015 332.543 345.462C332.543 345.902 332.67 346.258 332.923 346.532C333.177 346.798 333.487 347.012 333.853 347.172C334.227 347.325 334.59 347.452 334.943 347.552L337.683 348.342C337.997 348.428 338.357 348.548 338.763 348.702C339.177 348.855 339.577 349.072 339.963 349.352C340.35 349.625 340.67 349.992 340.923 350.452C341.177 350.905 341.303 351.478 341.303 352.172C341.303 352.865 341.163 353.482 340.883 354.022C340.61 354.562 340.227 355.015 339.733 355.382C339.24 355.742 338.667 356.015 338.013 356.202C337.36 356.395 336.66 356.492 335.913 356.492ZM347.501 356.472C346.808 356.472 346.211 356.362 345.711 356.142C345.218 355.922 344.808 355.628 344.481 355.262C344.154 354.895 343.898 354.488 343.711 354.042C343.524 353.595 343.391 353.138 343.311 352.672C343.238 352.205 343.201 351.768 343.201 351.362V345.392H345.001V350.802C345.001 351.308 345.048 351.798 345.141 352.272C345.234 352.745 345.391 353.172 345.611 353.552C345.838 353.932 346.138 354.232 346.511 354.452C346.891 354.672 347.364 354.782 347.931 354.782C348.378 354.782 348.784 354.705 349.151 354.552C349.518 354.398 349.831 354.172 350.091 353.872C350.351 353.565 350.551 353.178 350.691 352.712C350.831 352.245 350.901 351.702 350.901 351.082L352.071 351.442C352.071 352.482 351.881 353.378 351.501 354.132C351.128 354.885 350.598 355.465 349.911 355.872C349.231 356.272 348.428 356.472 347.501 356.472ZM351.101 356.192V353.302H350.901V345.392H352.691V356.192H351.101ZM360.451 356.492C359.437 356.492 358.584 356.242 357.891 355.742C357.197 355.235 356.671 354.552 356.311 353.692C355.957 352.825 355.781 351.855 355.781 350.782C355.781 349.695 355.957 348.722 356.311 347.862C356.671 347.002 357.197 346.325 357.891 345.832C358.591 345.338 359.447 345.092 360.461 345.092C361.461 345.092 362.321 345.342 363.041 345.842C363.767 346.335 364.324 347.012 364.711 347.872C365.097 348.732 365.291 349.702 365.291 350.782C365.291 351.862 365.097 352.832 364.711 353.692C364.324 354.552 363.767 355.235 363.041 355.742C362.321 356.242 361.457 356.492 360.451 356.492ZM355.481 360.992V345.392H357.071V353.342H357.271V360.992H355.481ZM360.231 354.862C360.944 354.862 361.534 354.682 362.001 354.322C362.467 353.962 362.817 353.475 363.051 352.862C363.284 352.242 363.401 351.548 363.401 350.782C363.401 350.022 363.284 349.335 363.051 348.722C362.824 348.108 362.471 347.622 361.991 347.262C361.517 346.902 360.914 346.722 360.181 346.722C359.481 346.722 358.901 346.895 358.441 347.242C357.981 347.582 357.637 348.058 357.411 348.672C357.184 349.278 357.071 349.982 357.071 350.782C357.071 351.568 357.181 352.272 357.401 352.892C357.627 353.505 357.974 353.988 358.441 354.342C358.907 354.688 359.504 354.862 360.231 354.862ZM372.443 356.492C371.43 356.492 370.576 356.242 369.883 355.742C369.19 355.235 368.663 354.552 368.303 353.692C367.95 352.825 367.773 351.855 367.773 350.782C367.773 349.695 367.95 348.722 368.303 347.862C368.663 347.002 369.19 346.325 369.883 345.832C370.583 345.338 371.44 345.092 372.453 345.092C373.453 345.092 374.313 345.342 375.033 345.842C375.76 346.335 376.316 347.012 376.703 347.872C377.09 348.732 377.283 349.702 377.283 350.782C377.283 351.862 377.09 352.832 376.703 353.692C376.316 354.552 375.76 355.235 375.033 355.742C374.313 356.242 373.45 356.492 372.443 356.492ZM367.473 360.992V345.392H369.063V353.342H369.263V360.992H367.473ZM372.223 354.862C372.936 354.862 373.526 354.682 373.993 354.322C374.46 353.962 374.81 353.475 375.043 352.862C375.276 352.242 375.393 351.548 375.393 350.782C375.393 350.022 375.276 349.335 375.043 348.722C374.816 348.108 374.463 347.622 373.983 347.262C373.51 346.902 372.906 346.722 372.173 346.722C371.473 346.722 370.893 346.895 370.433 347.242C369.973 347.582 369.63 348.058 369.403 348.672C369.176 349.278 369.063 349.982 369.063 350.782C369.063 351.568 369.173 352.272 369.393 352.892C369.62 353.505 369.966 353.988 370.433 354.342C370.9 354.688 371.496 354.862 372.223 354.862ZM384.075 356.492C383.002 356.492 382.075 356.248 381.295 355.762C380.522 355.275 379.925 354.602 379.505 353.742C379.085 352.882 378.875 351.895 378.875 350.782C378.875 349.648 379.088 348.655 379.515 347.802C379.942 346.948 380.545 346.285 381.325 345.812C382.105 345.332 383.022 345.092 384.075 345.092C385.155 345.092 386.085 345.335 386.865 345.822C387.645 346.302 388.242 346.972 388.655 347.832C389.075 348.685 389.285 349.668 389.285 350.782C389.285 351.908 389.075 352.902 388.655 353.762C388.235 354.615 387.635 355.285 386.855 355.772C386.075 356.252 385.148 356.492 384.075 356.492ZM384.075 354.802C385.195 354.802 386.028 354.428 386.575 353.682C387.122 352.935 387.395 351.968 387.395 350.782C387.395 349.562 387.118 348.592 386.565 347.872C386.012 347.145 385.182 346.782 384.075 346.782C383.322 346.782 382.702 346.952 382.215 347.292C381.728 347.632 381.365 348.102 381.125 348.702C380.885 349.302 380.765 349.995 380.765 350.782C380.765 351.995 381.045 352.968 381.605 353.702C382.165 354.435 382.988 354.802 384.075 354.802ZM391.487 356.192V345.392H393.077V348.002L392.817 347.662C392.943 347.328 393.107 347.022 393.307 346.742C393.513 346.462 393.743 346.232 393.997 346.052C394.277 345.825 394.593 345.652 394.947 345.532C395.3 345.412 395.66 345.342 396.027 345.322C396.393 345.295 396.737 345.318 397.057 345.392V347.062C396.683 346.962 396.273 346.935 395.827 346.982C395.38 347.028 394.967 347.192 394.587 347.472C394.24 347.718 393.97 348.018 393.777 348.372C393.59 348.725 393.46 349.108 393.387 349.522C393.313 349.928 393.277 350.345 393.277 350.772V356.192H391.487ZM404.978 356.192C404.338 356.318 403.704 356.368 403.078 356.342C402.458 356.322 401.904 356.198 401.418 355.972C400.931 355.738 400.561 355.378 400.308 354.892C400.094 354.465 399.978 354.035 399.958 353.602C399.944 353.162 399.938 352.665 399.938 352.112V342.392H401.718V352.032C401.718 352.472 401.721 352.848 401.728 353.162C401.741 353.475 401.811 353.745 401.938 353.972C402.178 354.398 402.558 354.648 403.078 354.722C403.604 354.795 404.238 354.775 404.978 354.662V356.192ZM397.748 346.862V345.392H404.978V346.862H397.748Z" fill="#212528"/>
</g>
<defs>
<filter id="filter0_d_2077_27745" x="38.0375" y="201" width="106.3" height="38.3" filterUnits="userSpaceOnUse" color-interpolation-filters="sRGB">
<feFlood flood-opacity="0" result="BackgroundImageFix"/>
<feColorMatrix in="SourceAlpha" type="matrix" values="0 0 0 0 0 0 0 0 0 0 0 0 0 0 0 0 0 0 127 0" result="hardAlpha"/>
<feOffset dy="3.15"/>
<feGaussianBlur stdDeviation="1.575"/>
<feComposite in2="hardAlpha" operator="out"/>
<feColorMatrix type="matrix" values="0 0 0 0 0 0 0 0 0 0 0 0 0 0 0 0 0 0 0.25 0"/>
<feBlend mode="normal" in2="BackgroundImageFix" result="effect1_dropShadow_2077_27745"/>
<feBlend mode="normal" in="SourceGraphic" in2="effect1_dropShadow_2077_27745" result="shape"/>
</filter>
<filter id="filter1_d_2077_27745" x="58.0375" y="241" width="66.3" height="66.3" filterUnits="userSpaceOnUse" color-interpolation-filters="sRGB">
<feFlood flood-opacity="0" result="BackgroundImageFix"/>
<feColorMatrix in="SourceAlpha" type="matrix" values="0 0 0 0 0 0 0 0 0 0 0 0 0 0 0 0 0 0 127 0" result="hardAlpha"/>
<feOffset dy="3.15"/>
<feGaussianBlur stdDeviation="1.575"/>
<feComposite in2="hardAlpha" operator="out"/>
<feColorMatrix type="matrix" values="0 0 0 0 0 0 0 0 0 0 0 0 0 0 0 0 0 0 0.25 0"/>
<feBlend mode="normal" in2="BackgroundImageFix" result="effect1_dropShadow_2077_27745"/>
<feBlend mode="normal" in="SourceGraphic" in2="effect1_dropShadow_2077_27745" result="shape"/>
</filter>
<filter id="filter2_d_2077_27745" x="162.131" y="77" width="66.3" height="66.3" filterUnits="userSpaceOnUse" color-interpolation-filters="sRGB">
<feFlood flood-opacity="0" result="BackgroundImageFix"/>
<feColorMatrix in="SourceAlpha" type="matrix" values="0 0 0 0 0 0 0 0 0 0 0 0 0 0 0 0 0 0 127 0" result="hardAlpha"/>
<feOffset dy="3.15"/>
<feGaussianBlur stdDeviation="1.575"/>
<feComposite in2="hardAlpha" operator="out"/>
<feColorMatrix type="matrix" values="0 0 0 0 0 0 0 0 0 0 0 0 0 0 0 0 0 0 0.25 0"/>
<feBlend mode="normal" in2="BackgroundImageFix" result="effect1_dropShadow_2077_27745"/>
<feBlend mode="normal" in="SourceGraphic" in2="effect1_dropShadow_2077_27745" result="shape"/>
</filter>
<filter id="filter3_d_2077_27745" x="142.131" y="145" width="106.3" height="38.3" filterUnits="userSpaceOnUse" color-interpolation-filters="sRGB">
<feFlood flood-opacity="0" result="BackgroundImageFix"/>
<feColorMatrix in="SourceAlpha" type="matrix" values="0 0 0 0 0 0 0 0 0 0 0 0 0 0 0 0 0 0 127 0" result="hardAlpha"/>
<feOffset dy="3.15"/>
<feGaussianBlur stdDeviation="1.575"/>
<feComposite in2="hardAlpha" operator="out"/>
<feColorMatrix type="matrix" values="0 0 0 0 0 0 0 0 0 0 0 0 0 0 0 0 0 0 0.25 0"/>
<feBlend mode="normal" in2="BackgroundImageFix" result="effect1_dropShadow_2077_27745"/>
<feBlend mode="normal" in="SourceGraphic" in2="effect1_dropShadow_2077_27745" result="shape"/>
</filter>
<filter id="filter4_d_2077_27745" x="246.537" y="201" width="106.3" height="38.3" filterUnits="userSpaceOnUse" color-interpolation-filters="sRGB">
<feFlood flood-opacity="0" result="BackgroundImageFix"/>
<feColorMatrix in="SourceAlpha" type="matrix" values="0 0 0 0 0 0 0 0 0 0 0 0 0 0 0 0 0 0 127 0" result="hardAlpha"/>
<feOffset dy="3.15"/>
<feGaussianBlur stdDeviation="1.575"/>
<feComposite in2="hardAlpha" operator="out"/>
<feColorMatrix type="matrix" values="0 0 0 0 0 0 0 0 0 0 0 0 0 0 0 0 0 0 0.25 0"/>
<feBlend mode="normal" in2="BackgroundImageFix" result="effect1_dropShadow_2077_27745"/>
<feBlend mode="normal" in="SourceGraphic" in2="effect1_dropShadow_2077_27745" result="shape"/>
</filter>
<filter id="filter5_d_2077_27745" x="266.537" y="241" width="66.3" height="66.3" filterUnits="userSpaceOnUse" color-interpolation-filters="sRGB">
<feFlood flood-opacity="0" result="BackgroundImageFix"/>
<feColorMatrix in="SourceAlpha" type="matrix" values="0 0 0 0 0 0 0 0 0 0 0 0 0 0 0 0 0 0 127 0" result="hardAlpha"/>
<feOffset dy="3.15"/>
<feGaussianBlur stdDeviation="1.575"/>
<feComposite in2="hardAlpha" operator="out"/>
<feColorMatrix type="matrix" values="0 0 0 0 0 0 0 0 0 0 0 0 0 0 0 0 0 0 0.25 0"/>
<feBlend mode="normal" in2="BackgroundImageFix" result="effect1_dropShadow_2077_27745"/>
<feBlend mode="normal" in="SourceGraphic" in2="effect1_dropShadow_2077_27745" result="shape"/>
</filter>
<filter id="filter6_d_2077_27745" x="370.944" y="77" width="66.3" height="66.3" filterUnits="userSpaceOnUse" color-interpolation-filters="sRGB">
<feFlood flood-opacity="0" result="BackgroundImageFix"/>
<feColorMatrix in="SourceAlpha" type="matrix" values="0 0 0 0 0 0 0 0 0 0 0 0 0 0 0 0 0 0 127 0" result="hardAlpha"/>
<feOffset dy="3.15"/>
<feGaussianBlur stdDeviation="1.575"/>
<feComposite in2="hardAlpha" operator="out"/>
<feColorMatrix type="matrix" values="0 0 0 0 0 0 0 0 0 0 0 0 0 0 0 0 0 0 0.25 0"/>
<feBlend mode="normal" in2="BackgroundImageFix" result="effect1_dropShadow_2077_27745"/>
<feBlend mode="normal" in="SourceGraphic" in2="effect1_dropShadow_2077_27745" result="shape"/>
</filter>
<filter id="filter7_d_2077_27745" x="350.944" y="145" width="106.3" height="38.3" filterUnits="userSpaceOnUse" color-interpolation-filters="sRGB">
<feFlood flood-opacity="0" result="BackgroundImageFix"/>
<feColorMatrix in="SourceAlpha" type="matrix" values="0 0 0 0 0 0 0 0 0 0 0 0 0 0 0 0 0 0 127 0" result="hardAlpha"/>
<feOffset dy="3.15"/>
<feGaussianBlur stdDeviation="1.575"/>
<feComposite in2="hardAlpha" operator="out"/>
<feColorMatrix type="matrix" values="0 0 0 0 0 0 0 0 0 0 0 0 0 0 0 0 0 0 0.25 0"/>
<feBlend mode="normal" in2="BackgroundImageFix" result="effect1_dropShadow_2077_27745"/>
<feBlend mode="normal" in="SourceGraphic" in2="effect1_dropShadow_2077_27745" result="shape"/>
</filter>
<filter id="filter8_d_2077_27745" x="455.35" y="201" width="106.3" height="38.3" filterUnits="userSpaceOnUse" color-interpolation-filters="sRGB">
<feFlood flood-opacity="0" result="BackgroundImageFix"/>
<feColorMatrix in="SourceAlpha" type="matrix" values="0 0 0 0 0 0 0 0 0 0 0 0 0 0 0 0 0 0 127 0" result="hardAlpha"/>
<feOffset dy="3.15"/>
<feGaussianBlur stdDeviation="1.575"/>
<feComposite in2="hardAlpha" operator="out"/>
<feColorMatrix type="matrix" values="0 0 0 0 0 0 0 0 0 0 0 0 0 0 0 0 0 0 0.25 0"/>
<feBlend mode="normal" in2="BackgroundImageFix" result="effect1_dropShadow_2077_27745"/>
<feBlend mode="normal" in="SourceGraphic" in2="effect1_dropShadow_2077_27745" result="shape"/>
</filter>
<filter id="filter9_d_2077_27745" x="475.35" y="241" width="66.3" height="66.3" filterUnits="userSpaceOnUse" color-interpolation-filters="sRGB">
<feFlood flood-opacity="0" result="BackgroundImageFix"/>
<feColorMatrix in="SourceAlpha" type="matrix" values="0 0 0 0 0 0 0 0 0 0 0 0 0 0 0 0 0 0 127 0" result="hardAlpha"/>
<feOffset dy="3.15"/>
<feGaussianBlur stdDeviation="1.575"/>
<feComposite in2="hardAlpha" operator="out"/>
<feColorMatrix type="matrix" values="0 0 0 0 0 0 0 0 0 0 0 0 0 0 0 0 0 0 0.25 0"/>
<feBlend mode="normal" in2="BackgroundImageFix" result="effect1_dropShadow_2077_27745"/>
<feBlend mode="normal" in="SourceGraphic" in2="effect1_dropShadow_2077_27745" result="shape"/>
</filter>
<filter id="filter10_d_2077_27745" x="168.904" y="325" width="262.959" height="57.5755" filterUnits="userSpaceOnUse" color-interpolation-filters="sRGB">
<feFlood flood-opacity="0" result="BackgroundImageFix"/>
<feColorMatrix in="SourceAlpha" type="matrix" values="0 0 0 0 0 0 0 0 0 0 0 0 0 0 0 0 0 0 127 0" result="hardAlpha"/>
<feOffset dy="5.09591"/>
<feGaussianBlur stdDeviation="2.54796"/>
<feComposite in2="hardAlpha" operator="out"/>
<feColorMatrix type="matrix" values="0 0 0 0 0 0 0 0 0 0 0 0 0 0 0 0 0 0 0.25 0"/>
<feBlend mode="normal" in2="BackgroundImageFix" result="effect1_dropShadow_2077_27745"/>
<feBlend mode="normal" in="SourceGraphic" in2="effect1_dropShadow_2077_27745" result="shape"/>
</filter>
</defs>
</svg>
