<svg width="600" height="450" viewBox="0 0 600 450" fill="none" xmlns="http://www.w3.org/2000/svg">
<g clip-path="url(#clip0_6449_49499)">
<rect x="262.5" y="73.5" width="360" height="302" rx="7.5" stroke="#D5D9DC"/>
<path d="M48.264 216L54.432 198.12H58.656L64.824 216H61.272L60 212.16H53.088L51.792 216H48.264ZM54.024 209.28H59.064L56.088 200.376H57L54.024 209.28ZM66.5499 216V197.832H69.6939V216H66.5499ZM78.7888 216.288C77.4448 216.288 76.2688 215.984 75.2608 215.376C74.2528 214.768 73.4688 213.944 72.9088 212.904C72.3488 211.864 72.0688 210.712 72.0688 209.448C72.0688 208.136 72.3488 206.976 72.9088 205.968C73.4848 204.944 74.2608 204.136 75.2368 203.544C76.2288 202.952 77.3328 202.656 78.5488 202.656C79.5728 202.656 80.4688 202.824 81.2368 203.16C82.0208 203.496 82.6848 203.96 83.2288 204.552C83.7728 205.144 84.1888 205.824 84.4768 206.592C84.7648 207.344 84.9088 208.16 84.9088 209.04C84.9088 209.264 84.8928 209.496 84.8608 209.736C84.8448 209.976 84.8048 210.184 84.7408 210.36H74.6608V207.96H82.9648L81.4768 209.088C81.6208 208.352 81.5808 207.696 81.3568 207.12C81.1488 206.544 80.7968 206.088 80.3008 205.752C79.8208 205.416 79.2368 205.248 78.5488 205.248C77.8928 205.248 77.3088 205.416 76.7968 205.752C76.2848 206.072 75.8928 206.552 75.6208 207.192C75.3648 207.816 75.2688 208.576 75.3328 209.472C75.2688 210.272 75.3728 210.984 75.6448 211.608C75.9328 212.216 76.3488 212.688 76.8928 213.024C77.4528 213.36 78.0928 213.528 78.8128 213.528C79.5328 213.528 80.1408 213.376 80.6368 213.072C81.1488 212.768 81.5488 212.36 81.8368 211.848L84.3808 213.096C84.1248 213.72 83.7248 214.272 83.1808 214.752C82.6368 215.232 81.9888 215.608 81.2368 215.88C80.5008 216.152 79.6848 216.288 78.7888 216.288ZM87.2921 216V202.944H90.2441V205.848L90.0041 205.416C90.3081 204.44 90.7801 203.76 91.4201 203.376C92.0761 202.992 92.8601 202.8 93.7721 202.8H94.5401V205.584H93.4121C92.5161 205.584 91.7961 205.864 91.2521 206.424C90.7081 206.968 90.4361 207.736 90.4361 208.728V216H87.2921ZM102.572 216.144C101.1 216.144 99.9563 215.744 99.1403 214.944C98.3403 214.128 97.9403 212.984 97.9403 211.512V205.752H95.6843V202.944H95.9243C96.5643 202.944 97.0603 202.776 97.4123 202.44C97.7643 202.104 97.9403 201.616 97.9403 200.976V199.968H101.084V202.944H104.084V205.752H101.084V211.344C101.084 211.776 101.156 212.144 101.3 212.448C101.46 212.752 101.7 212.984 102.02 213.144C102.356 213.304 102.78 213.384 103.292 213.384C103.404 213.384 103.532 213.376 103.676 213.36C103.836 213.344 103.988 213.328 104.132 213.312V216C103.908 216.032 103.652 216.064 103.364 216.096C103.076 216.128 102.812 216.144 102.572 216.144ZM110.447 216.288C109.535 216.288 108.743 216.136 108.071 215.832C107.399 215.528 106.879 215.096 106.511 214.536C106.143 213.96 105.959 213.296 105.959 212.544C105.959 211.824 106.119 211.184 106.439 210.624C106.759 210.048 107.255 209.568 107.927 209.184C108.599 208.8 109.447 208.528 110.471 208.368L114.743 207.672V210.072L111.071 210.696C110.447 210.808 109.983 211.008 109.679 211.296C109.375 211.584 109.223 211.96 109.223 212.424C109.223 212.872 109.391 213.232 109.727 213.504C110.079 213.76 110.511 213.888 111.023 213.888C111.679 213.888 112.255 213.752 112.751 213.48C113.263 213.192 113.655 212.8 113.927 212.304C114.215 211.808 114.359 211.264 114.359 210.672V207.312C114.359 206.752 114.135 206.288 113.687 205.92C113.255 205.536 112.679 205.344 111.959 205.344C111.287 205.344 110.687 205.528 110.159 205.896C109.647 206.248 109.271 206.72 109.031 207.312L106.463 206.064C106.719 205.376 107.119 204.784 107.663 204.288C108.223 203.776 108.879 203.376 109.631 203.088C110.383 202.8 111.199 202.656 112.079 202.656C113.151 202.656 114.095 202.856 114.911 203.256C115.727 203.64 116.359 204.184 116.807 204.888C117.271 205.576 117.503 206.384 117.503 207.312V216H114.527V213.768L115.199 213.72C114.863 214.28 114.463 214.752 113.999 215.136C113.535 215.504 113.007 215.792 112.415 216C111.823 216.192 111.167 216.288 110.447 216.288ZM125.377 216.288C123.985 216.288 122.769 215.96 121.729 215.304C120.705 214.632 120.001 213.728 119.617 212.592L121.969 211.464C122.305 212.2 122.769 212.776 123.361 213.192C123.969 213.608 124.641 213.816 125.377 213.816C125.953 213.816 126.409 213.688 126.745 213.432C127.081 213.176 127.249 212.84 127.249 212.424C127.249 212.168 127.177 211.96 127.033 211.8C126.905 211.624 126.721 211.48 126.481 211.368C126.257 211.24 126.009 211.136 125.737 211.056L123.601 210.456C122.497 210.136 121.657 209.648 121.081 208.992C120.521 208.336 120.241 207.56 120.241 206.664C120.241 205.864 120.441 205.168 120.841 204.576C121.257 203.968 121.825 203.496 122.545 203.16C123.281 202.824 124.121 202.656 125.065 202.656C126.297 202.656 127.385 202.952 128.329 203.544C129.273 204.136 129.945 204.968 130.345 206.04L127.945 207.168C127.721 206.576 127.345 206.104 126.817 205.752C126.289 205.4 125.697 205.224 125.041 205.224C124.513 205.224 124.097 205.344 123.793 205.584C123.489 205.824 123.337 206.136 123.337 206.52C123.337 206.76 123.401 206.968 123.529 207.144C123.657 207.32 123.833 207.464 124.057 207.576C124.297 207.688 124.569 207.792 124.873 207.888L126.961 208.512C128.033 208.832 128.857 209.312 129.433 209.952C130.025 210.592 130.321 211.376 130.321 212.304C130.321 213.088 130.113 213.784 129.697 214.392C129.281 214.984 128.705 215.448 127.969 215.784C127.233 216.12 126.369 216.288 125.377 216.288ZM143.195 216.288C141.851 216.288 140.675 215.984 139.667 215.376C138.659 214.768 137.875 213.944 137.315 212.904C136.755 211.864 136.475 210.712 136.475 209.448C136.475 208.136 136.755 206.976 137.315 205.968C137.891 204.944 138.667 204.136 139.643 203.544C140.635 202.952 141.739 202.656 142.955 202.656C143.979 202.656 144.875 202.824 145.643 203.16C146.427 203.496 147.091 203.96 147.635 204.552C148.179 205.144 148.595 205.824 148.883 206.592C149.171 207.344 149.315 208.16 149.315 209.04C149.315 209.264 149.299 209.496 149.267 209.736C149.251 209.976 149.211 210.184 149.147 210.36H139.067V207.96H147.371L145.883 209.088C146.027 208.352 145.987 207.696 145.763 207.12C145.555 206.544 145.203 206.088 144.707 205.752C144.227 205.416 143.643 205.248 142.955 205.248C142.299 205.248 141.715 205.416 141.203 205.752C140.691 206.072 140.299 206.552 140.027 207.192C139.771 207.816 139.675 208.576 139.739 209.472C139.675 210.272 139.779 210.984 140.051 211.608C140.339 212.216 140.755 212.688 141.299 213.024C141.859 213.36 142.499 213.528 143.219 213.528C143.939 213.528 144.547 213.376 145.043 213.072C145.555 212.768 145.955 212.36 146.243 211.848L148.787 213.096C148.531 213.72 148.131 214.272 147.587 214.752C147.043 215.232 146.395 215.608 145.643 215.88C144.907 216.152 144.091 216.288 143.195 216.288ZM49.464 246V232.944H52.416V235.512L52.176 235.056C52.48 234.272 52.976 233.68 53.664 233.28C54.368 232.864 55.184 232.656 56.112 232.656C57.072 232.656 57.92 232.864 58.656 233.28C59.408 233.696 59.992 234.28 60.408 235.032C60.824 235.768 61.032 236.624 61.032 237.6V246H57.888V238.344C57.888 237.768 57.776 237.272 57.552 236.856C57.328 236.44 57.016 236.12 56.616 235.896C56.232 235.656 55.776 235.536 55.248 235.536C54.736 235.536 54.28 235.656 53.88 235.896C53.48 236.12 53.168 236.44 52.944 236.856C52.72 237.272 52.608 237.768 52.608 238.344V246H49.464ZM70.0746 246.288C68.7946 246.288 67.6266 245.992 66.5706 245.4C65.5306 244.808 64.6986 244 64.0746 242.976C63.4666 241.952 63.1626 240.784 63.1626 239.472C63.1626 238.16 63.4666 236.992 64.0746 235.968C64.6986 234.944 65.5306 234.136 66.5706 233.544C67.6106 232.952 68.7786 232.656 70.0746 232.656C71.3546 232.656 72.5146 232.952 73.5546 233.544C74.5946 234.136 75.4186 234.944 76.0266 235.968C76.6506 236.976 76.9626 238.144 76.9626 239.472C76.9626 240.784 76.6506 241.952 76.0266 242.976C75.4026 244 74.5706 244.808 73.5306 245.4C72.4906 245.992 71.3386 246.288 70.0746 246.288ZM70.0746 243.408C70.7786 243.408 71.3946 243.24 71.9226 242.904C72.4666 242.568 72.8906 242.104 73.1946 241.512C73.5146 240.904 73.6746 240.224 73.6746 239.472C73.6746 238.704 73.5146 238.032 73.1946 237.456C72.8906 236.864 72.4666 236.4 71.9226 236.064C71.3946 235.712 70.7786 235.536 70.0746 235.536C69.3546 235.536 68.7226 235.712 68.1786 236.064C67.6346 236.4 67.2026 236.864 66.8826 237.456C66.5786 238.032 66.4266 238.704 66.4266 239.472C66.4266 240.224 66.5786 240.904 66.8826 241.512C67.2026 242.104 67.6346 242.568 68.1786 242.904C68.7226 243.24 69.3546 243.408 70.0746 243.408ZM85.0644 246.144C83.5924 246.144 82.4484 245.744 81.6324 244.944C80.8324 244.128 80.4324 242.984 80.4324 241.512V235.752H78.1764V232.944H78.4164C79.0564 232.944 79.5524 232.776 79.9044 232.44C80.2564 232.104 80.4324 231.616 80.4324 230.976V229.968H83.5764V232.944H86.5764V235.752H83.5764V241.344C83.5764 241.776 83.6484 242.144 83.7924 242.448C83.9524 242.752 84.1924 242.984 84.5124 243.144C84.8484 243.304 85.2724 243.384 85.7844 243.384C85.8964 243.384 86.0244 243.376 86.1684 243.36C86.3284 243.344 86.4804 243.328 86.6244 243.312V246C86.4004 246.032 86.1444 246.064 85.8564 246.096C85.5684 246.128 85.3044 246.144 85.0644 246.144ZM89.0265 246V232.944H92.1705V246H89.0265ZM89.0265 231.48V228.12H92.1705V231.48H89.0265ZM96.5854 246V235.752H94.2814V232.944H96.5854V232.512C96.5854 231.52 96.7854 230.68 97.1854 229.992C97.6014 229.288 98.1774 228.752 98.9134 228.384C99.6494 228.016 100.521 227.832 101.529 227.832C101.721 227.832 101.929 227.848 102.153 227.88C102.393 227.896 102.593 227.92 102.753 227.952V230.664C102.593 230.632 102.441 230.616 102.297 230.616C102.169 230.6 102.049 230.592 101.937 230.592C101.233 230.592 100.689 230.752 100.305 231.072C99.9214 231.376 99.7294 231.856 99.7294 232.512V232.944H105.441V235.752H99.7294V246H96.5854ZM104.265 246V232.944H107.433V246H104.265ZM116.338 246.288C115.042 246.288 113.874 245.992 112.834 245.4C111.81 244.792 111.002 243.976 110.41 242.952C109.818 241.912 109.522 240.744 109.522 239.448C109.522 238.152 109.818 236.992 110.41 235.968C111.002 234.944 111.81 234.136 112.834 233.544C113.874 232.952 115.042 232.656 116.338 232.656C117.266 232.656 118.13 232.824 118.93 233.16C119.73 233.48 120.418 233.928 120.994 234.504C121.586 235.064 122.01 235.736 122.266 236.52L119.506 237.72C119.266 237.064 118.858 236.536 118.282 236.136C117.722 235.736 117.074 235.536 116.338 235.536C115.65 235.536 115.034 235.704 114.49 236.04C113.962 236.376 113.546 236.84 113.242 237.432C112.938 238.024 112.786 238.704 112.786 239.472C112.786 240.24 112.938 240.92 113.242 241.512C113.546 242.104 113.962 242.568 114.49 242.904C115.034 243.24 115.65 243.408 116.338 243.408C117.09 243.408 117.746 243.208 118.306 242.808C118.866 242.408 119.266 241.872 119.506 241.2L122.266 242.448C122.01 243.184 121.594 243.848 121.018 244.44C120.442 245.016 119.754 245.472 118.954 245.808C118.154 246.128 117.282 246.288 116.338 246.288ZM128.565 246.288C127.653 246.288 126.861 246.136 126.189 245.832C125.517 245.528 124.997 245.096 124.629 244.536C124.261 243.96 124.077 243.296 124.077 242.544C124.077 241.824 124.237 241.184 124.557 240.624C124.877 240.048 125.373 239.568 126.045 239.184C126.717 238.8 127.565 238.528 128.589 238.368L132.861 237.672V240.072L129.189 240.696C128.565 240.808 128.101 241.008 127.797 241.296C127.493 241.584 127.341 241.96 127.341 242.424C127.341 242.872 127.509 243.232 127.845 243.504C128.197 243.76 128.629 243.888 129.141 243.888C129.797 243.888 130.373 243.752 130.869 243.48C131.381 243.192 131.773 242.8 132.045 242.304C132.333 241.808 132.477 241.264 132.477 240.672V237.312C132.477 236.752 132.253 236.288 131.805 235.92C131.373 235.536 130.797 235.344 130.077 235.344C129.405 235.344 128.805 235.528 128.277 235.896C127.765 236.248 127.389 236.72 127.149 237.312L124.581 236.064C124.837 235.376 125.237 234.784 125.781 234.288C126.341 233.776 126.997 233.376 127.749 233.088C128.501 232.8 129.317 232.656 130.197 232.656C131.269 232.656 132.213 232.856 133.029 233.256C133.845 233.64 134.477 234.184 134.925 234.888C135.389 235.576 135.621 236.384 135.621 237.312V246H132.645V243.768L133.317 243.72C132.981 244.28 132.581 244.752 132.117 245.136C131.653 245.504 131.125 245.792 130.533 246C129.941 246.192 129.285 246.288 128.565 246.288ZM144.815 246.288C143.519 246.288 142.351 245.992 141.311 245.4C140.287 244.792 139.479 243.976 138.887 242.952C138.295 241.912 137.999 240.744 137.999 239.448C137.999 238.152 138.295 236.992 138.887 235.968C139.479 234.944 140.287 234.136 141.311 233.544C142.351 232.952 143.519 232.656 144.815 232.656C145.743 232.656 146.607 232.824 147.407 233.16C148.207 233.48 148.895 233.928 149.471 234.504C150.063 235.064 150.487 235.736 150.743 236.52L147.983 237.72C147.743 237.064 147.335 236.536 146.759 236.136C146.199 235.736 145.551 235.536 144.815 235.536C144.127 235.536 143.511 235.704 142.967 236.04C142.439 236.376 142.023 236.84 141.719 237.432C141.415 238.024 141.263 238.704 141.263 239.472C141.263 240.24 141.415 240.92 141.719 241.512C142.023 242.104 142.439 242.568 142.967 242.904C143.511 243.24 144.127 243.408 144.815 243.408C145.567 243.408 146.223 243.208 146.783 242.808C147.343 242.408 147.743 241.872 147.983 241.2L150.743 242.448C150.487 243.184 150.071 243.848 149.495 244.44C148.919 245.016 148.231 245.472 147.431 245.808C146.631 246.128 145.759 246.288 144.815 246.288ZM145.055 251.688C144.639 251.688 144.167 251.616 143.639 251.472C143.127 251.344 142.695 251.152 142.343 250.896L143.015 249.096C143.255 249.256 143.519 249.376 143.807 249.456C144.095 249.552 144.375 249.6 144.647 249.6C144.999 249.6 145.271 249.528 145.463 249.384C145.655 249.24 145.751 249.04 145.751 248.784C145.751 248.48 145.559 248.232 145.175 248.04C144.791 247.864 144.231 247.736 143.495 247.656L143.999 245.76H145.847L145.631 246.72C146.463 246.832 147.119 247.088 147.599 247.488C148.079 247.904 148.319 248.416 148.319 249.024C148.319 249.84 148.023 250.488 147.431 250.968C146.839 251.448 146.047 251.688 145.055 251.688ZM159.512 246.288C158.232 246.288 157.064 245.992 156.008 245.4C154.968 244.808 154.136 244 153.512 242.976C152.904 241.952 152.6 240.784 152.6 239.472C152.6 238.16 152.904 236.992 153.512 235.968C154.136 234.944 154.968 234.136 156.008 233.544C157.048 232.952 158.216 232.656 159.512 232.656C160.792 232.656 161.952 232.952 162.992 233.544C164.032 234.136 164.856 234.944 165.464 235.968C166.088 236.976 166.4 238.144 166.4 239.472C166.4 240.784 166.088 241.952 165.464 242.976C164.84 244 164.008 244.808 162.968 245.4C161.928 245.992 160.776 246.288 159.512 246.288ZM159.512 243.408C160.216 243.408 160.832 243.24 161.36 242.904C161.904 242.568 162.328 242.104 162.632 241.512C162.952 240.904 163.112 240.224 163.112 239.472C163.112 238.704 162.952 238.032 162.632 237.456C162.328 236.864 161.904 236.4 161.36 236.064C160.832 235.712 160.216 235.536 159.512 235.536C158.792 235.536 158.16 235.712 157.616 236.064C157.072 236.4 156.64 236.864 156.32 237.456C156.016 238.032 155.864 238.704 155.864 239.472C155.864 240.224 156.016 240.904 156.32 241.512C156.64 242.104 157.072 242.568 157.616 242.904C158.16 243.24 158.792 243.408 159.512 243.408ZM161.24 230.64C160.808 230.64 160.44 230.576 160.136 230.448C159.848 230.304 159.6 230.152 159.392 229.992C159.184 229.816 158.976 229.664 158.768 229.536C158.56 229.392 158.32 229.32 158.048 229.32C157.776 229.32 157.568 229.424 157.424 229.632C157.28 229.824 157.208 230.128 157.208 230.544H154.784C154.784 229.264 155.072 228.328 155.648 227.736C156.224 227.128 156.92 226.824 157.736 226.824C158.184 226.824 158.56 226.888 158.864 227.016C159.168 227.144 159.432 227.296 159.656 227.472C159.88 227.648 160.088 227.8 160.28 227.928C160.488 228.056 160.712 228.12 160.952 228.12C161.272 228.12 161.496 228.016 161.624 227.808C161.752 227.584 161.816 227.288 161.816 226.92H164.24C164.224 228.136 163.928 229.064 163.352 229.704C162.776 230.328 162.072 230.64 161.24 230.64ZM174.976 246.288C173.632 246.288 172.456 245.984 171.448 245.376C170.44 244.768 169.656 243.944 169.096 242.904C168.536 241.864 168.256 240.712 168.256 239.448C168.256 238.136 168.536 236.976 169.096 235.968C169.672 234.944 170.448 234.136 171.424 233.544C172.416 232.952 173.52 232.656 174.736 232.656C175.76 232.656 176.656 232.824 177.424 233.16C178.208 233.496 178.872 233.96 179.416 234.552C179.96 235.144 180.376 235.824 180.664 236.592C180.952 237.344 181.096 238.16 181.096 239.04C181.096 239.264 181.08 239.496 181.048 239.736C181.032 239.976 180.992 240.184 180.928 240.36H170.848V237.96H179.152L177.664 239.088C177.808 238.352 177.768 237.696 177.544 237.12C177.336 236.544 176.984 236.088 176.488 235.752C176.008 235.416 175.424 235.248 174.736 235.248C174.08 235.248 173.496 235.416 172.984 235.752C172.472 236.072 172.08 236.552 171.808 237.192C171.552 237.816 171.456 238.576 171.52 239.472C171.456 240.272 171.56 240.984 171.832 241.608C172.12 242.216 172.536 242.688 173.08 243.024C173.64 243.36 174.28 243.528 175 243.528C175.72 243.528 176.328 243.376 176.824 243.072C177.336 242.768 177.736 242.36 178.024 241.848L180.568 243.096C180.312 243.72 179.912 244.272 179.368 244.752C178.824 245.232 178.176 245.608 177.424 245.88C176.688 246.152 175.872 246.288 174.976 246.288ZM188.448 246.288C187.056 246.288 185.84 245.96 184.8 245.304C183.776 244.632 183.072 243.728 182.688 242.592L185.04 241.464C185.376 242.2 185.84 242.776 186.432 243.192C187.04 243.608 187.712 243.816 188.448 243.816C189.024 243.816 189.48 243.688 189.816 243.432C190.152 243.176 190.32 242.84 190.32 242.424C190.32 242.168 190.248 241.96 190.104 241.8C189.976 241.624 189.792 241.48 189.552 241.368C189.328 241.24 189.08 241.136 188.808 241.056L186.672 240.456C185.568 240.136 184.728 239.648 184.152 238.992C183.592 238.336 183.312 237.56 183.312 236.664C183.312 235.864 183.512 235.168 183.912 234.576C184.328 233.968 184.896 233.496 185.616 233.16C186.352 232.824 187.192 232.656 188.136 232.656C189.368 232.656 190.456 232.952 191.4 233.544C192.344 234.136 193.016 234.968 193.416 236.04L191.016 237.168C190.792 236.576 190.416 236.104 189.888 235.752C189.36 235.4 188.768 235.224 188.112 235.224C187.584 235.224 187.168 235.344 186.864 235.584C186.56 235.824 186.408 236.136 186.408 236.52C186.408 236.76 186.472 236.968 186.6 237.144C186.728 237.32 186.904 237.464 187.128 237.576C187.368 237.688 187.64 237.792 187.944 237.888L190.032 238.512C191.104 238.832 191.928 239.312 192.504 239.952C193.096 240.592 193.392 241.376 193.392 242.304C193.392 243.088 193.184 243.784 192.768 244.392C192.352 244.984 191.776 245.448 191.04 245.784C190.304 246.12 189.44 246.288 188.448 246.288ZM206.145 246.288C204.881 246.288 203.753 245.992 202.761 245.4C201.769 244.792 200.985 243.968 200.409 242.928C199.833 241.888 199.545 240.736 199.545 239.472C199.545 238.192 199.833 237.04 200.409 236.016C200.985 234.992 201.769 234.176 202.761 233.568C203.769 232.96 204.889 232.656 206.121 232.656C207.113 232.656 207.993 232.856 208.761 233.256C209.545 233.64 210.161 234.184 210.609 234.888L210.129 235.536V227.832H213.273V246H210.297V243.48L210.633 244.104C210.185 244.808 209.561 245.352 208.761 245.736C207.961 246.104 207.089 246.288 206.145 246.288ZM206.481 243.408C207.201 243.408 207.833 243.24 208.377 242.904C208.921 242.568 209.345 242.104 209.649 241.512C209.969 240.92 210.129 240.24 210.129 239.472C210.129 238.72 209.969 238.048 209.649 237.456C209.345 236.848 208.921 236.376 208.377 236.04C207.833 235.704 207.201 235.536 206.481 235.536C205.777 235.536 205.145 235.712 204.585 236.064C204.025 236.4 203.585 236.864 203.265 237.456C202.961 238.032 202.809 238.704 202.809 239.472C202.809 240.24 202.961 240.92 203.265 241.512C203.585 242.104 204.025 242.568 204.585 242.904C205.145 243.24 205.777 243.408 206.481 243.408ZM222.39 246.288C221.046 246.288 219.87 245.984 218.862 245.376C217.854 244.768 217.07 243.944 216.51 242.904C215.95 241.864 215.67 240.712 215.67 239.448C215.67 238.136 215.95 236.976 216.51 235.968C217.086 234.944 217.862 234.136 218.838 233.544C219.83 232.952 220.934 232.656 222.15 232.656C223.174 232.656 224.07 232.824 224.838 233.16C225.622 233.496 226.286 233.96 226.83 234.552C227.374 235.144 227.79 235.824 228.078 236.592C228.366 237.344 228.51 238.16 228.51 239.04C228.51 239.264 228.494 239.496 228.462 239.736C228.446 239.976 228.406 240.184 228.342 240.36H218.262V237.96H226.566L225.078 239.088C225.222 238.352 225.182 237.696 224.958 237.12C224.75 236.544 224.398 236.088 223.902 235.752C223.422 235.416 222.838 235.248 222.15 235.248C221.494 235.248 220.91 235.416 220.398 235.752C219.886 236.072 219.494 236.552 219.222 237.192C218.966 237.816 218.87 238.576 218.934 239.472C218.87 240.272 218.974 240.984 219.246 241.608C219.534 242.216 219.95 242.688 220.494 243.024C221.054 243.36 221.694 243.528 222.414 243.528C223.134 243.528 223.742 243.376 224.238 243.072C224.75 242.768 225.15 242.36 225.438 241.848L227.982 243.096C227.726 243.72 227.326 244.272 226.782 244.752C226.238 245.232 225.59 245.608 224.838 245.88C224.102 246.152 223.286 246.288 222.39 246.288ZM55.752 276.288C54.456 276.288 53.288 275.992 52.248 275.4C51.224 274.792 50.416 273.976 49.824 272.952C49.232 271.912 48.936 270.744 48.936 269.448C48.936 268.152 49.232 266.992 49.824 265.968C50.416 264.944 51.224 264.136 52.248 263.544C53.288 262.952 54.456 262.656 55.752 262.656C56.68 262.656 57.544 262.824 58.344 263.16C59.144 263.48 59.832 263.928 60.408 264.504C61 265.064 61.424 265.736 61.68 266.52L58.92 267.72C58.68 267.064 58.272 266.536 57.696 266.136C57.136 265.736 56.488 265.536 55.752 265.536C55.064 265.536 54.448 265.704 53.904 266.04C53.376 266.376 52.96 266.84 52.656 267.432C52.352 268.024 52.2 268.704 52.2 269.472C52.2 270.24 52.352 270.92 52.656 271.512C52.96 272.104 53.376 272.568 53.904 272.904C54.448 273.24 55.064 273.408 55.752 273.408C56.504 273.408 57.16 273.208 57.72 272.808C58.28 272.408 58.68 271.872 58.92 271.2L61.68 272.448C61.424 273.184 61.008 273.848 60.432 274.44C59.856 275.016 59.168 275.472 58.368 275.808C57.568 276.128 56.696 276.288 55.752 276.288ZM64.0656 276V257.832H67.2096V265.512L66.7776 265.056C67.0816 264.272 67.5776 263.68 68.2656 263.28C68.9696 262.864 69.7856 262.656 70.7136 262.656C71.6736 262.656 72.5216 262.864 73.2576 263.28C74.0096 263.696 74.5936 264.28 75.0096 265.032C75.4256 265.768 75.6336 266.624 75.6336 267.6V276H72.4896V268.344C72.4896 267.768 72.3776 267.272 72.1536 266.856C71.9296 266.44 71.6176 266.12 71.2176 265.896C70.8336 265.656 70.3776 265.536 69.8496 265.536C69.3376 265.536 68.8816 265.656 68.4816 265.896C68.0816 266.12 67.7696 266.44 67.5456 266.856C67.3216 267.272 67.2096 267.768 67.2096 268.344V276H64.0656ZM82.2521 276.288C81.3401 276.288 80.5481 276.136 79.8761 275.832C79.2041 275.528 78.6841 275.096 78.3161 274.536C77.9481 273.96 77.7641 273.296 77.7641 272.544C77.7641 271.824 77.9241 271.184 78.2441 270.624C78.5641 270.048 79.0601 269.568 79.7321 269.184C80.4041 268.8 81.2521 268.528 82.2761 268.368L86.5481 267.672V270.072L82.8761 270.696C82.2521 270.808 81.7881 271.008 81.4841 271.296C81.1801 271.584 81.0281 271.96 81.0281 272.424C81.0281 272.872 81.1961 273.232 81.5321 273.504C81.8841 273.76 82.3161 273.888 82.8281 273.888C83.4841 273.888 84.0601 273.752 84.5561 273.48C85.0681 273.192 85.4601 272.8 85.7321 272.304C86.0201 271.808 86.1641 271.264 86.1641 270.672V267.312C86.1641 266.752 85.9401 266.288 85.4921 265.92C85.0601 265.536 84.4841 265.344 83.7641 265.344C83.0921 265.344 82.4921 265.528 81.9641 265.896C81.4521 266.248 81.0761 266.72 80.8361 267.312L78.2681 266.064C78.5241 265.376 78.9241 264.784 79.4681 264.288C80.0281 263.776 80.6841 263.376 81.4361 263.088C82.1881 262.8 83.0041 262.656 83.8841 262.656C84.9561 262.656 85.9001 262.856 86.7161 263.256C87.5321 263.64 88.1641 264.184 88.6121 264.888C89.0761 265.576 89.3081 266.384 89.3081 267.312V276H86.3321V273.768L87.0041 273.72C86.6681 274.28 86.2681 274.752 85.8041 275.136C85.3401 275.504 84.8121 275.792 84.2201 276C83.6281 276.192 82.9721 276.288 82.2521 276.288ZM92.214 276V262.944H95.166V265.968L94.83 265.464C95.07 264.52 95.55 263.816 96.27 263.352C96.99 262.888 97.838 262.656 98.814 262.656C99.886 262.656 100.83 262.936 101.646 263.496C102.462 264.056 102.99 264.792 103.23 265.704L102.342 265.776C102.742 264.736 103.342 263.96 104.142 263.448C104.942 262.92 105.862 262.656 106.902 262.656C107.83 262.656 108.654 262.864 109.374 263.28C110.11 263.696 110.686 264.28 111.102 265.032C111.518 265.768 111.726 266.624 111.726 267.6V276H108.582V268.344C108.582 267.768 108.478 267.272 108.27 266.856C108.062 266.44 107.774 266.12 107.406 265.896C107.038 265.656 106.59 265.536 106.062 265.536C105.566 265.536 105.126 265.656 104.742 265.896C104.358 266.12 104.062 266.44 103.854 266.856C103.646 267.272 103.542 267.768 103.542 268.344V276H100.398V268.344C100.398 267.768 100.294 267.272 100.086 266.856C99.878 266.44 99.582 266.12 99.198 265.896C98.83 265.656 98.39 265.536 97.878 265.536C97.382 265.536 96.942 265.656 96.558 265.896C96.174 266.12 95.878 266.44 95.67 266.856C95.462 267.272 95.358 267.768 95.358 268.344V276H92.214ZM118.346 276.288C117.434 276.288 116.642 276.136 115.97 275.832C115.298 275.528 114.778 275.096 114.41 274.536C114.042 273.96 113.858 273.296 113.858 272.544C113.858 271.824 114.018 271.184 114.338 270.624C114.658 270.048 115.154 269.568 115.826 269.184C116.498 268.8 117.346 268.528 118.37 268.368L122.642 267.672V270.072L118.97 270.696C118.346 270.808 117.882 271.008 117.578 271.296C117.274 271.584 117.122 271.96 117.122 272.424C117.122 272.872 117.29 273.232 117.626 273.504C117.978 273.76 118.41 273.888 118.922 273.888C119.578 273.888 120.154 273.752 120.65 273.48C121.162 273.192 121.554 272.8 121.826 272.304C122.114 271.808 122.258 271.264 122.258 270.672V267.312C122.258 266.752 122.034 266.288 121.586 265.92C121.154 265.536 120.578 265.344 119.858 265.344C119.186 265.344 118.586 265.528 118.058 265.896C117.546 266.248 117.17 266.72 116.93 267.312L114.362 266.064C114.618 265.376 115.018 264.784 115.562 264.288C116.122 263.776 116.778 263.376 117.53 263.088C118.282 262.8 119.098 262.656 119.978 262.656C121.05 262.656 121.994 262.856 122.81 263.256C123.626 263.64 124.258 264.184 124.706 264.888C125.17 265.576 125.402 266.384 125.402 267.312V276H122.426V273.768L123.098 273.72C122.762 274.28 122.362 274.752 121.898 275.136C121.434 275.504 120.906 275.792 120.314 276C119.722 276.192 119.066 276.288 118.346 276.288ZM134.38 276.288C133.116 276.288 131.988 275.992 130.996 275.4C130.004 274.792 129.22 273.968 128.644 272.928C128.068 271.888 127.78 270.736 127.78 269.472C127.78 268.192 128.068 267.04 128.644 266.016C129.22 264.992 130.004 264.176 130.996 263.568C132.004 262.96 133.124 262.656 134.356 262.656C135.348 262.656 136.228 262.856 136.996 263.256C137.78 263.64 138.396 264.184 138.844 264.888L138.364 265.536V257.832H141.508V276H138.532V273.48L138.868 274.104C138.42 274.808 137.796 275.352 136.996 275.736C136.196 276.104 135.324 276.288 134.38 276.288ZM134.716 273.408C135.436 273.408 136.068 273.24 136.612 272.904C137.156 272.568 137.58 272.104 137.884 271.512C138.204 270.92 138.364 270.24 138.364 269.472C138.364 268.72 138.204 268.048 137.884 267.456C137.58 266.848 137.156 266.376 136.612 266.04C136.068 265.704 135.436 265.536 134.716 265.536C134.012 265.536 133.38 265.712 132.82 266.064C132.26 266.4 131.82 266.864 131.5 267.456C131.196 268.032 131.044 268.704 131.044 269.472C131.044 270.24 131.196 270.92 131.5 271.512C131.82 272.104 132.26 272.568 132.82 272.904C133.38 273.24 134.012 273.408 134.716 273.408ZM148.393 276.288C147.481 276.288 146.689 276.136 146.017 275.832C145.345 275.528 144.825 275.096 144.457 274.536C144.089 273.96 143.905 273.296 143.905 272.544C143.905 271.824 144.065 271.184 144.385 270.624C144.705 270.048 145.201 269.568 145.873 269.184C146.545 268.8 147.393 268.528 148.417 268.368L152.689 267.672V270.072L149.017 270.696C148.393 270.808 147.929 271.008 147.625 271.296C147.321 271.584 147.169 271.96 147.169 272.424C147.169 272.872 147.337 273.232 147.673 273.504C148.025 273.76 148.457 273.888 148.969 273.888C149.625 273.888 150.201 273.752 150.697 273.48C151.209 273.192 151.601 272.8 151.873 272.304C152.161 271.808 152.305 271.264 152.305 270.672V267.312C152.305 266.752 152.081 266.288 151.633 265.92C151.201 265.536 150.625 265.344 149.905 265.344C149.233 265.344 148.633 265.528 148.105 265.896C147.593 266.248 147.217 266.72 146.977 267.312L144.409 266.064C144.665 265.376 145.065 264.784 145.609 264.288C146.169 263.776 146.825 263.376 147.577 263.088C148.329 262.8 149.145 262.656 150.025 262.656C151.097 262.656 152.041 262.856 152.857 263.256C153.673 263.64 154.305 264.184 154.753 264.888C155.217 265.576 155.449 266.384 155.449 267.312V276H152.473V273.768L153.145 273.72C152.809 274.28 152.409 274.752 151.945 275.136C151.481 275.504 150.953 275.792 150.361 276C149.769 276.192 149.113 276.288 148.393 276.288ZM163.323 276.288C161.931 276.288 160.715 275.96 159.675 275.304C158.651 274.632 157.947 273.728 157.563 272.592L159.915 271.464C160.251 272.2 160.715 272.776 161.307 273.192C161.915 273.608 162.587 273.816 163.323 273.816C163.899 273.816 164.355 273.688 164.691 273.432C165.027 273.176 165.195 272.84 165.195 272.424C165.195 272.168 165.123 271.96 164.979 271.8C164.851 271.624 164.667 271.48 164.427 271.368C164.203 271.24 163.955 271.136 163.683 271.056L161.547 270.456C160.443 270.136 159.603 269.648 159.027 268.992C158.467 268.336 158.187 267.56 158.187 266.664C158.187 265.864 158.387 265.168 158.787 264.576C159.203 263.968 159.771 263.496 160.491 263.16C161.227 262.824 162.067 262.656 163.011 262.656C164.243 262.656 165.331 262.952 166.275 263.544C167.219 264.136 167.891 264.968 168.291 266.04L165.891 267.168C165.667 266.576 165.291 266.104 164.763 265.752C164.235 265.4 163.643 265.224 162.987 265.224C162.459 265.224 162.043 265.344 161.739 265.584C161.435 265.824 161.283 266.136 161.283 266.52C161.283 266.76 161.347 266.968 161.475 267.144C161.603 267.32 161.779 267.464 162.003 267.576C162.243 267.688 162.515 267.792 162.819 267.888L164.907 268.512C165.979 268.832 166.803 269.312 167.379 269.952C167.971 270.592 168.267 271.376 168.267 272.304C168.267 273.088 168.059 273.784 167.643 274.392C167.227 274.984 166.651 275.448 165.915 275.784C165.179 276.12 164.315 276.288 163.323 276.288ZM49.464 310.8V292.944H52.416V295.536L52.128 294.888C52.576 294.184 53.184 293.64 53.952 293.256C54.72 292.856 55.608 292.656 56.616 292.656C57.848 292.656 58.96 292.96 59.952 293.568C60.944 294.176 61.728 294.992 62.304 296.016C62.896 297.04 63.192 298.192 63.192 299.472C63.192 300.736 62.904 301.888 62.328 302.928C61.752 303.968 60.968 304.792 59.976 305.4C58.984 305.992 57.856 306.288 56.592 306.288C55.648 306.288 54.776 306.104 53.976 305.736C53.192 305.352 52.568 304.808 52.104 304.104L52.608 303.48V310.8H49.464ZM56.232 303.408C56.952 303.408 57.592 303.24 58.152 302.904C58.712 302.568 59.144 302.104 59.448 301.512C59.768 300.92 59.928 300.24 59.928 299.472C59.928 298.704 59.768 298.032 59.448 297.456C59.144 296.864 58.712 296.4 58.152 296.064C57.592 295.712 56.952 295.536 56.232 295.536C55.544 295.536 54.92 295.704 54.36 296.04C53.816 296.376 53.384 296.848 53.064 297.456C52.76 298.048 52.608 298.72 52.608 299.472C52.608 300.24 52.76 300.92 53.064 301.512C53.384 302.104 53.816 302.568 54.36 302.904C54.92 303.24 55.544 303.408 56.232 303.408ZM71.781 306.288C70.437 306.288 69.261 305.984 68.253 305.376C67.245 304.768 66.461 303.944 65.901 302.904C65.341 301.864 65.061 300.712 65.061 299.448C65.061 298.136 65.341 296.976 65.901 295.968C66.477 294.944 67.253 294.136 68.229 293.544C69.221 292.952 70.325 292.656 71.541 292.656C72.565 292.656 73.461 292.824 74.229 293.16C75.013 293.496 75.677 293.96 76.221 294.552C76.765 295.144 77.181 295.824 77.469 296.592C77.757 297.344 77.901 298.16 77.901 299.04C77.901 299.264 77.885 299.496 77.853 299.736C77.837 299.976 77.797 300.184 77.733 300.36H67.653V297.96H75.957L74.469 299.088C74.613 298.352 74.573 297.696 74.349 297.12C74.141 296.544 73.789 296.088 73.293 295.752C72.813 295.416 72.229 295.248 71.541 295.248C70.885 295.248 70.301 295.416 69.789 295.752C69.277 296.072 68.885 296.552 68.613 297.192C68.357 297.816 68.261 298.576 68.325 299.472C68.261 300.272 68.365 300.984 68.637 301.608C68.925 302.216 69.341 302.688 69.885 303.024C70.445 303.36 71.085 303.528 71.805 303.528C72.525 303.528 73.133 303.376 73.629 303.072C74.141 302.768 74.541 302.36 74.829 301.848L77.373 303.096C77.117 303.72 76.717 304.272 76.173 304.752C75.629 305.232 74.981 305.608 74.229 305.88C73.493 306.152 72.677 306.288 71.781 306.288ZM80.2843 306V292.944H83.2363V295.848L82.9963 295.416C83.3003 294.44 83.7723 293.76 84.4123 293.376C85.0683 292.992 85.8523 292.8 86.7643 292.8H87.5323V295.584H86.4043C85.5083 295.584 84.7883 295.864 84.2443 296.424C83.7003 296.968 83.4283 297.736 83.4283 298.728V306H80.2843ZM95.3329 306.288C94.0689 306.288 92.9409 305.992 91.9489 305.4C90.9569 304.792 90.1729 303.968 89.5969 302.928C89.0209 301.888 88.7329 300.736 88.7329 299.472C88.7329 298.192 89.0209 297.04 89.5969 296.016C90.1729 294.992 90.9569 294.176 91.9489 293.568C92.9569 292.96 94.0769 292.656 95.3089 292.656C96.3009 292.656 97.1809 292.856 97.9489 293.256C98.7329 293.64 99.3489 294.184 99.7969 294.888L99.3169 295.536V287.832H102.461V306H99.4849V303.48L99.8209 304.104C99.3729 304.808 98.7489 305.352 97.9489 305.736C97.1489 306.104 96.2769 306.288 95.3329 306.288ZM95.6689 303.408C96.3889 303.408 97.0209 303.24 97.5649 302.904C98.1089 302.568 98.5329 302.104 98.8369 301.512C99.1569 300.92 99.3169 300.24 99.3169 299.472C99.3169 298.72 99.1569 298.048 98.8369 297.456C98.5329 296.848 98.1089 296.376 97.5649 296.04C97.0209 295.704 96.3889 295.536 95.6689 295.536C94.9649 295.536 94.3329 295.712 93.7729 296.064C93.2129 296.4 92.7729 296.864 92.4529 297.456C92.1489 298.032 91.9969 298.704 91.9969 299.472C91.9969 300.24 92.1489 300.92 92.4529 301.512C92.7729 302.104 93.2129 302.568 93.7729 302.904C94.3329 303.24 94.9649 303.408 95.6689 303.408ZM105.386 306V292.944H108.53V306H105.386ZM105.386 291.48V288.12H108.53V291.48H105.386ZM117.505 306.288C116.241 306.288 115.113 305.992 114.121 305.4C113.129 304.792 112.345 303.968 111.769 302.928C111.193 301.888 110.905 300.736 110.905 299.472C110.905 298.192 111.193 297.04 111.769 296.016C112.345 294.992 113.129 294.176 114.121 293.568C115.129 292.96 116.249 292.656 117.481 292.656C118.473 292.656 119.353 292.856 120.121 293.256C120.905 293.64 121.521 294.184 121.969 294.888L121.489 295.536V287.832H124.633V306H121.657V303.48L121.993 304.104C121.545 304.808 120.921 305.352 120.121 305.736C119.321 306.104 118.449 306.288 117.505 306.288ZM117.841 303.408C118.561 303.408 119.193 303.24 119.737 302.904C120.281 302.568 120.705 302.104 121.009 301.512C121.329 300.92 121.489 300.24 121.489 299.472C121.489 298.72 121.329 298.048 121.009 297.456C120.705 296.848 120.281 296.376 119.737 296.04C119.193 295.704 118.561 295.536 117.841 295.536C117.137 295.536 116.505 295.712 115.945 296.064C115.385 296.4 114.945 296.864 114.625 297.456C114.321 298.032 114.169 298.704 114.169 299.472C114.169 300.24 114.321 300.92 114.625 301.512C114.945 302.104 115.385 302.568 115.945 302.904C116.505 303.24 117.137 303.408 117.841 303.408ZM131.518 306.288C130.606 306.288 129.814 306.136 129.142 305.832C128.47 305.528 127.95 305.096 127.582 304.536C127.214 303.96 127.03 303.296 127.03 302.544C127.03 301.824 127.19 301.184 127.51 300.624C127.83 300.048 128.326 299.568 128.998 299.184C129.67 298.8 130.518 298.528 131.542 298.368L135.814 297.672V300.072L132.142 300.696C131.518 300.808 131.054 301.008 130.75 301.296C130.446 301.584 130.294 301.96 130.294 302.424C130.294 302.872 130.462 303.232 130.798 303.504C131.15 303.76 131.582 303.888 132.094 303.888C132.75 303.888 133.326 303.752 133.822 303.48C134.334 303.192 134.726 302.8 134.998 302.304C135.286 301.808 135.43 301.264 135.43 300.672V297.312C135.43 296.752 135.206 296.288 134.758 295.92C134.326 295.536 133.75 295.344 133.03 295.344C132.358 295.344 131.758 295.528 131.23 295.896C130.718 296.248 130.342 296.72 130.102 297.312L127.534 296.064C127.79 295.376 128.19 294.784 128.734 294.288C129.294 293.776 129.95 293.376 130.702 293.088C131.454 292.8 132.27 292.656 133.15 292.656C134.222 292.656 135.166 292.856 135.982 293.256C136.798 293.64 137.43 294.184 137.878 294.888C138.342 295.576 138.574 296.384 138.574 297.312V306H135.598V303.768L136.27 303.72C135.934 304.28 135.534 304.752 135.07 305.136C134.606 305.504 134.078 305.792 133.486 306C132.894 306.192 132.238 306.288 131.518 306.288ZM146.448 306.288C145.056 306.288 143.84 305.96 142.8 305.304C141.776 304.632 141.072 303.728 140.688 302.592L143.04 301.464C143.376 302.2 143.84 302.776 144.432 303.192C145.04 303.608 145.712 303.816 146.448 303.816C147.024 303.816 147.48 303.688 147.816 303.432C148.152 303.176 148.32 302.84 148.32 302.424C148.32 302.168 148.248 301.96 148.104 301.8C147.976 301.624 147.792 301.48 147.552 301.368C147.328 301.24 147.08 301.136 146.808 301.056L144.672 300.456C143.568 300.136 142.728 299.648 142.152 298.992C141.592 298.336 141.312 297.56 141.312 296.664C141.312 295.864 141.512 295.168 141.912 294.576C142.328 293.968 142.896 293.496 143.616 293.16C144.352 292.824 145.192 292.656 146.136 292.656C147.368 292.656 148.456 292.952 149.4 293.544C150.344 294.136 151.016 294.968 151.416 296.04L149.016 297.168C148.792 296.576 148.416 296.104 147.888 295.752C147.36 295.4 146.768 295.224 146.112 295.224C145.584 295.224 145.168 295.344 144.864 295.584C144.56 295.824 144.408 296.136 144.408 296.52C144.408 296.76 144.472 296.968 144.6 297.144C144.728 297.32 144.904 297.464 145.128 297.576C145.368 297.688 145.64 297.792 145.944 297.888L148.032 298.512C149.104 298.832 149.928 299.312 150.504 299.952C151.096 300.592 151.392 301.376 151.392 302.304C151.392 303.088 151.184 303.784 150.768 304.392C150.352 304.984 149.776 305.448 149.04 305.784C148.304 306.12 147.44 306.288 146.448 306.288Z" fill="#24B3B3"/>
<path d="M67.9995 187.25C69.8328 187.25 71.3328 185.75 71.3328 183.917H64.6661C64.6661 185.75 66.1661 187.25 67.9995 187.25ZM77.9995 177.25V168.917C77.9995 163.8 75.2828 159.517 70.4995 158.383V157.25C70.4995 155.867 69.3828 154.75 67.9995 154.75C66.6161 154.75 65.4995 155.867 65.4995 157.25V158.383C60.7328 159.517 57.9995 163.783 57.9995 168.917V177.25L54.6661 180.583V182.25H81.3328V180.583L77.9995 177.25ZM74.6661 178.917H61.3328V168.917C61.3328 164.783 63.8495 161.417 67.9995 161.417C72.1495 161.417 74.6661 164.783 74.6661 168.917V178.917ZM60.6328 157.383L58.2495 155C54.2495 158.05 51.6161 162.75 51.3828 168.083H54.7161C54.9661 163.667 57.2328 159.8 60.6328 157.383ZM81.2828 168.083H84.6161C84.3661 162.75 81.7328 158.05 77.7495 155L75.3828 157.383C78.7495 159.8 81.0328 163.667 81.2828 168.083Z" fill="#24B3B3"/>
<line x1="405.5" y1="376" x2="405.5" y2="73" stroke="#D5D9DC"/>
<rect x="278" y="89" width="120" height="30" rx="4" fill="#7B7F82" fill-opacity="0.1"/>
<rect x="278" y="127" width="120" height="30" rx="4" fill="#7B7F82" fill-opacity="0.1"/>
<path d="M294 148.5C294.734 148.5 295.334 147.9 295.334 147.167H292.667C292.667 147.9 293.267 148.5 294 148.5ZM298 144.5V141.167C298 139.12 296.914 137.407 295 136.953V136.5C295 135.947 294.554 135.5 294 135.5C293.447 135.5 293 135.947 293 136.5V136.953C291.094 137.407 290 139.113 290 141.167V144.5L288.667 145.833V146.5H299.334V145.833L298 144.5ZM296.667 145.167H291.334V141.167C291.334 139.513 292.34 138.167 294 138.167C295.66 138.167 296.667 139.513 296.667 141.167V145.167ZM291.054 136.553L290.1 135.6C288.5 136.82 287.447 138.7 287.354 140.833H288.687C288.787 139.067 289.694 137.52 291.054 136.553ZM299.314 140.833H300.647C300.547 138.7 299.494 136.82 297.9 135.6L296.954 136.553C298.3 137.52 299.214 139.067 299.314 140.833Z" fill="#212528"/>
<path d="M306.132 146.5L309.336 137.56H310.728L313.932 146.5H312.672L311.94 144.4H308.124L307.392 146.5H306.132ZM308.496 143.32H311.568L309.864 138.412H310.2L308.496 143.32ZM314.927 146.5V137.416H316.043V146.5H314.927ZM320.75 146.644C320.126 146.644 319.57 146.496 319.082 146.2C318.594 145.904 318.21 145.5 317.93 144.988C317.65 144.468 317.51 143.888 317.51 143.248C317.51 142.6 317.646 142.024 317.918 141.52C318.198 141.016 318.574 140.62 319.046 140.332C319.526 140.036 320.062 139.888 320.654 139.888C321.134 139.888 321.558 139.976 321.926 140.152C322.302 140.32 322.618 140.552 322.874 140.848C323.138 141.136 323.338 141.468 323.474 141.844C323.618 142.212 323.69 142.596 323.69 142.996C323.69 143.084 323.682 143.184 323.666 143.296C323.658 143.4 323.646 143.5 323.63 143.596H318.326V142.636H322.982L322.454 143.068C322.526 142.652 322.486 142.28 322.334 141.952C322.182 141.624 321.958 141.364 321.662 141.172C321.366 140.98 321.03 140.884 320.654 140.884C320.278 140.884 319.934 140.98 319.622 141.172C319.31 141.364 319.066 141.64 318.89 142C318.722 142.352 318.654 142.772 318.686 143.26C318.654 143.732 318.726 144.148 318.902 144.508C319.086 144.86 319.342 145.136 319.67 145.336C320.006 145.528 320.37 145.624 320.762 145.624C321.194 145.624 321.558 145.524 321.854 145.324C322.15 145.124 322.39 144.868 322.574 144.556L323.51 145.036C323.382 145.332 323.182 145.604 322.91 145.852C322.646 146.092 322.33 146.284 321.962 146.428C321.602 146.572 321.198 146.644 320.75 146.644ZM325.145 146.5V140.032H326.237V141.22L326.117 141.052C326.269 140.684 326.501 140.412 326.813 140.236C327.125 140.052 327.505 139.96 327.953 139.96H328.349V141.016H327.785C327.329 141.016 326.961 141.16 326.681 141.448C326.401 141.728 326.261 142.128 326.261 142.648V146.5H325.145ZM332.027 146.572C331.395 146.572 330.907 146.392 330.563 146.032C330.227 145.672 330.059 145.164 330.059 144.508V141.1H328.883V140.032H329.123C329.411 140.032 329.639 139.944 329.807 139.768C329.975 139.592 330.059 139.36 330.059 139.072V138.544H331.175V140.032H332.627V141.1H331.175V144.472C331.175 144.688 331.207 144.876 331.271 145.036C331.343 145.196 331.459 145.324 331.619 145.42C331.779 145.508 331.991 145.552 332.255 145.552C332.311 145.552 332.379 145.548 332.459 145.54C332.547 145.532 332.627 145.524 332.699 145.516V146.5C332.595 146.524 332.479 146.54 332.351 146.548C332.223 146.564 332.115 146.572 332.027 146.572ZM335.971 146.644C335.547 146.644 335.171 146.568 334.843 146.416C334.523 146.256 334.271 146.04 334.087 145.768C333.903 145.488 333.811 145.168 333.811 144.808C333.811 144.464 333.883 144.156 334.027 143.884C334.179 143.604 334.411 143.368 334.723 143.176C335.043 142.984 335.443 142.848 335.923 142.768L338.323 142.372V143.308L336.175 143.668C335.759 143.74 335.455 143.872 335.263 144.064C335.079 144.256 334.987 144.492 334.987 144.772C334.987 145.036 335.091 145.256 335.299 145.432C335.515 145.608 335.783 145.696 336.103 145.696C336.511 145.696 336.863 145.612 337.159 145.444C337.463 145.268 337.699 145.032 337.867 144.736C338.043 144.44 338.131 144.112 338.131 143.752V142.108C338.131 141.756 337.999 141.472 337.735 141.256C337.479 141.032 337.139 140.92 336.715 140.92C336.347 140.92 336.019 141.016 335.731 141.208C335.451 141.392 335.243 141.64 335.107 141.952L334.135 141.448C334.255 141.152 334.447 140.888 334.711 140.656C334.975 140.416 335.283 140.228 335.635 140.092C335.987 139.956 336.355 139.888 336.739 139.888C337.235 139.888 337.671 139.984 338.047 140.176C338.423 140.36 338.715 140.62 338.923 140.956C339.139 141.284 339.247 141.668 339.247 142.108V146.5H338.155V145.276L338.359 145.348C338.223 145.604 338.039 145.828 337.807 146.02C337.575 146.212 337.303 146.364 336.991 146.476C336.679 146.588 336.339 146.644 335.971 146.644ZM343.293 146.644C342.645 146.644 342.081 146.484 341.601 146.164C341.121 145.844 340.781 145.412 340.581 144.868L341.469 144.436C341.653 144.82 341.905 145.124 342.225 145.348C342.545 145.572 342.901 145.684 343.293 145.684C343.645 145.684 343.937 145.6 344.169 145.432C344.401 145.264 344.517 145.044 344.517 144.772C344.517 144.58 344.461 144.428 344.349 144.316C344.245 144.196 344.117 144.104 343.965 144.04C343.813 143.968 343.673 143.916 343.545 143.884L342.573 143.608C341.989 143.44 341.561 143.2 341.289 142.888C341.025 142.576 340.893 142.212 340.893 141.796C340.893 141.412 340.989 141.08 341.181 140.8C341.381 140.512 341.649 140.288 341.985 140.128C342.329 139.968 342.713 139.888 343.137 139.888C343.705 139.888 344.213 140.032 344.661 140.32C345.117 140.608 345.441 141.012 345.633 141.532L344.721 141.952C344.577 141.616 344.361 141.352 344.073 141.16C343.785 140.96 343.461 140.86 343.101 140.86C342.773 140.86 342.513 140.944 342.321 141.112C342.129 141.272 342.033 141.476 342.033 141.724C342.033 141.908 342.081 142.06 342.177 142.18C342.273 142.292 342.389 142.38 342.525 142.444C342.661 142.5 342.793 142.548 342.921 142.588L343.977 142.9C344.505 143.052 344.913 143.288 345.201 143.608C345.497 143.928 345.645 144.312 345.645 144.76C345.645 145.12 345.545 145.444 345.345 145.732C345.145 146.02 344.869 146.244 344.517 146.404C344.165 146.564 343.757 146.644 343.293 146.644Z" fill="#212528"/>
<rect x="278" y="165" width="120" height="30" rx="4" fill="#7B7F82" fill-opacity="0.1"/>
<rect x="278" y="203" width="120" height="30" rx="4" fill="#7B7F82" fill-opacity="0.1"/>
<rect x="278" y="241" width="120" height="30" rx="4" fill="#7B7F82" fill-opacity="0.1"/>
<rect x="278" y="279" width="120" height="30" rx="4" fill="#7B7F82" fill-opacity="0.1"/>
<rect x="414.334" y="89.3338" width="242.332" height="35.3325" rx="3.66623" stroke="#D5D9DC" stroke-width="0.667548"/>
<g clip-path="url(#clip1_6449_49499)">
<path d="M439.803 110.2C437.769 108.273 435.023 107.087 431.996 107.087C428.969 107.087 426.223 108.273 424.189 110.2C424.069 110.32 423.996 110.487 423.996 110.673C423.996 110.86 424.069 111.027 424.189 111.147L425.843 112.8C425.963 112.92 426.129 112.993 426.316 112.993C426.496 112.993 426.663 112.92 426.783 112.807C427.309 112.313 427.909 111.9 428.556 111.573C428.776 111.467 428.929 111.24 428.929 110.973V108.907C429.896 108.587 430.929 108.42 431.996 108.42C433.063 108.42 434.096 108.587 435.063 108.9V110.967C435.063 111.227 435.216 111.46 435.436 111.567C436.089 111.893 436.683 112.313 437.216 112.8C437.336 112.92 437.503 112.987 437.683 112.987C437.869 112.987 438.036 112.913 438.156 112.793L439.809 111.14C439.929 111.02 440.003 110.853 440.003 110.667C440.003 110.48 439.923 110.32 439.803 110.2ZM427.596 110.573C427.156 110.82 426.736 111.107 426.349 111.42L425.636 110.707C426.243 110.207 426.903 109.78 427.603 109.44V110.573H427.596ZM437.649 111.413C437.249 111.093 436.836 110.813 436.396 110.567V109.433C437.096 109.773 437.749 110.2 438.363 110.7L437.649 111.413ZM428.663 103.373L431.956 106.667L436.669 101.953L435.729 101.007L431.956 104.78L429.596 102.42H431.329V101.087H427.329V105.087H428.663V103.373Z" fill="#CC5229"/>
</g>
<path d="M453.088 111.644C452.456 111.644 451.868 111.528 451.324 111.296C450.788 111.064 450.32 110.744 449.92 110.336C449.528 109.92 449.22 109.432 448.996 108.872C448.772 108.312 448.66 107.696 448.66 107.024C448.66 106.36 448.768 105.748 448.984 105.188C449.208 104.62 449.52 104.132 449.92 103.724C450.32 103.308 450.788 102.988 451.324 102.764C451.86 102.532 452.448 102.416 453.088 102.416C453.72 102.416 454.284 102.524 454.78 102.74C455.284 102.956 455.708 103.24 456.052 103.592C456.396 103.936 456.644 104.312 456.796 104.72L455.524 105.32C455.332 104.84 455.024 104.452 454.6 104.156C454.184 103.852 453.68 103.7 453.088 103.7C452.496 103.7 451.972 103.84 451.516 104.12C451.06 104.4 450.704 104.788 450.448 105.284C450.2 105.78 450.076 106.36 450.076 107.024C450.076 107.688 450.2 108.272 450.448 108.776C450.704 109.272 451.06 109.66 451.516 109.94C451.972 110.212 452.496 110.348 453.088 110.348C453.68 110.348 454.184 110.2 454.6 109.904C455.024 109.608 455.332 109.22 455.524 108.74L456.796 109.34C456.644 109.74 456.396 110.116 456.052 110.468C455.708 110.82 455.284 111.104 454.78 111.32C454.284 111.536 453.72 111.644 453.088 111.644ZM458.12 111.5V102.416H459.476V106.28L459.26 106.112C459.42 105.704 459.676 105.396 460.028 105.188C460.38 104.972 460.788 104.864 461.252 104.864C461.732 104.864 462.156 104.968 462.524 105.176C462.892 105.384 463.18 105.672 463.388 106.04C463.596 106.408 463.7 106.828 463.7 107.3V111.5H462.356V107.672C462.356 107.344 462.292 107.068 462.164 106.844C462.044 106.612 461.876 106.436 461.66 106.316C461.444 106.188 461.196 106.124 460.916 106.124C460.644 106.124 460.396 106.188 460.172 106.316C459.956 106.436 459.784 106.612 459.656 106.844C459.536 107.076 459.476 107.352 459.476 107.672V111.5H458.12ZM467.095 111.644C466.655 111.644 466.267 111.568 465.931 111.416C465.603 111.256 465.347 111.04 465.163 110.768C464.979 110.488 464.887 110.16 464.887 109.784C464.887 109.432 464.963 109.116 465.115 108.836C465.275 108.556 465.519 108.32 465.847 108.128C466.175 107.936 466.587 107.8 467.083 107.72L469.339 107.348V108.416L467.347 108.764C466.987 108.828 466.723 108.944 466.555 109.112C466.387 109.272 466.303 109.48 466.303 109.736C466.303 109.984 466.395 110.188 466.579 110.348C466.771 110.5 467.015 110.576 467.311 110.576C467.679 110.576 467.999 110.496 468.271 110.336C468.551 110.176 468.767 109.964 468.919 109.7C469.071 109.428 469.147 109.128 469.147 108.8V107.132C469.147 106.812 469.027 106.552 468.787 106.352C468.555 106.144 468.243 106.04 467.851 106.04C467.491 106.04 467.175 106.136 466.903 106.328C466.639 106.512 466.443 106.752 466.315 107.048L465.187 106.484C465.307 106.164 465.503 105.884 465.775 105.644C466.047 105.396 466.363 105.204 466.723 105.068C467.091 104.932 467.479 104.864 467.887 104.864C468.399 104.864 468.851 104.96 469.243 105.152C469.643 105.344 469.951 105.612 470.167 105.956C470.391 106.292 470.503 106.684 470.503 107.132V111.5H469.207V110.324L469.483 110.36C469.331 110.624 469.135 110.852 468.895 111.044C468.663 111.236 468.395 111.384 468.091 111.488C467.795 111.592 467.463 111.644 467.095 111.644ZM472.089 111.5V105.008H473.385V106.412L473.217 106.196C473.353 105.756 473.601 105.424 473.961 105.2C474.321 104.976 474.733 104.864 475.197 104.864C475.717 104.864 476.177 105.004 476.577 105.284C476.985 105.556 477.257 105.92 477.393 106.376L477.009 106.412C477.201 105.892 477.493 105.504 477.885 105.248C478.285 104.992 478.741 104.864 479.253 104.864C479.701 104.864 480.105 104.968 480.465 105.176C480.833 105.384 481.125 105.672 481.341 106.04C481.557 106.408 481.665 106.828 481.665 107.3V111.5H480.309V107.672C480.309 107.344 480.249 107.068 480.129 106.844C480.017 106.612 479.857 106.436 479.649 106.316C479.449 106.188 479.213 106.124 478.941 106.124C478.669 106.124 478.429 106.188 478.221 106.316C478.013 106.436 477.849 106.612 477.729 106.844C477.609 107.076 477.549 107.352 477.549 107.672V111.5H476.205V107.672C476.205 107.344 476.145 107.068 476.025 106.844C475.913 106.612 475.753 106.436 475.545 106.316C475.345 106.188 475.105 106.124 474.825 106.124C474.553 106.124 474.313 106.188 474.105 106.316C473.897 106.436 473.733 106.612 473.613 106.844C473.501 107.076 473.445 107.352 473.445 107.672V111.5H472.089ZM485.06 111.644C484.62 111.644 484.232 111.568 483.896 111.416C483.568 111.256 483.312 111.04 483.128 110.768C482.944 110.488 482.852 110.16 482.852 109.784C482.852 109.432 482.928 109.116 483.08 108.836C483.24 108.556 483.484 108.32 483.812 108.128C484.14 107.936 484.552 107.8 485.048 107.72L487.304 107.348V108.416L485.312 108.764C484.952 108.828 484.688 108.944 484.52 109.112C484.352 109.272 484.268 109.48 484.268 109.736C484.268 109.984 484.36 110.188 484.544 110.348C484.736 110.5 484.98 110.576 485.276 110.576C485.644 110.576 485.964 110.496 486.236 110.336C486.516 110.176 486.732 109.964 486.884 109.7C487.036 109.428 487.112 109.128 487.112 108.8V107.132C487.112 106.812 486.992 106.552 486.752 106.352C486.52 106.144 486.208 106.04 485.816 106.04C485.456 106.04 485.14 106.136 484.868 106.328C484.604 106.512 484.408 106.752 484.28 107.048L483.152 106.484C483.272 106.164 483.468 105.884 483.74 105.644C484.012 105.396 484.328 105.204 484.688 105.068C485.056 104.932 485.444 104.864 485.852 104.864C486.364 104.864 486.816 104.96 487.208 105.152C487.608 105.344 487.916 105.612 488.132 105.956C488.356 106.292 488.468 106.684 488.468 107.132V111.5H487.172V110.324L487.448 110.36C487.296 110.624 487.1 110.852 486.86 111.044C486.628 111.236 486.36 111.384 486.056 111.488C485.76 111.592 485.428 111.644 485.06 111.644ZM493.054 111.644C492.43 111.644 491.87 111.496 491.374 111.2C490.886 110.896 490.498 110.488 490.21 109.976C489.93 109.464 489.79 108.888 489.79 108.248C489.79 107.608 489.934 107.032 490.222 106.52C490.51 106.008 490.898 105.604 491.386 105.308C491.874 105.012 492.426 104.864 493.042 104.864C493.562 104.864 494.022 104.968 494.422 105.176C494.822 105.384 495.138 105.672 495.37 106.04L495.166 106.352V102.416H496.51V111.5H495.226V110.18L495.382 110.432C495.158 110.824 494.838 111.124 494.422 111.332C494.006 111.54 493.55 111.644 493.054 111.644ZM493.186 110.384C493.562 110.384 493.898 110.292 494.194 110.108C494.498 109.924 494.734 109.672 494.902 109.352C495.078 109.024 495.166 108.656 495.166 108.248C495.166 107.84 495.078 107.476 494.902 107.156C494.734 106.836 494.498 106.584 494.194 106.4C493.898 106.216 493.562 106.124 493.186 106.124C492.81 106.124 492.47 106.216 492.166 106.4C491.862 106.584 491.626 106.836 491.458 107.156C491.29 107.476 491.206 107.84 491.206 108.248C491.206 108.656 491.29 109.024 491.458 109.352C491.626 109.672 491.858 109.924 492.154 110.108C492.458 110.292 492.802 110.384 493.186 110.384ZM500.037 111.644C499.597 111.644 499.209 111.568 498.873 111.416C498.545 111.256 498.289 111.04 498.105 110.768C497.921 110.488 497.829 110.16 497.829 109.784C497.829 109.432 497.905 109.116 498.057 108.836C498.217 108.556 498.461 108.32 498.789 108.128C499.117 107.936 499.529 107.8 500.025 107.72L502.281 107.348V108.416L500.289 108.764C499.929 108.828 499.665 108.944 499.497 109.112C499.329 109.272 499.245 109.48 499.245 109.736C499.245 109.984 499.337 110.188 499.521 110.348C499.713 110.5 499.957 110.576 500.253 110.576C500.621 110.576 500.941 110.496 501.213 110.336C501.493 110.176 501.709 109.964 501.861 109.7C502.013 109.428 502.089 109.128 502.089 108.8V107.132C502.089 106.812 501.969 106.552 501.729 106.352C501.497 106.144 501.185 106.04 500.793 106.04C500.433 106.04 500.117 106.136 499.845 106.328C499.581 106.512 499.385 106.752 499.257 107.048L498.129 106.484C498.249 106.164 498.445 105.884 498.717 105.644C498.989 105.396 499.305 105.204 499.665 105.068C500.033 104.932 500.421 104.864 500.829 104.864C501.341 104.864 501.793 104.96 502.185 105.152C502.585 105.344 502.893 105.612 503.109 105.956C503.333 106.292 503.445 106.684 503.445 107.132V111.5H502.149V110.324L502.425 110.36C502.273 110.624 502.077 110.852 501.837 111.044C501.605 111.236 501.337 111.384 501.033 111.488C500.737 111.592 500.405 111.644 500.037 111.644ZM507.26 111.5V102.56H510.512C511.112 102.56 511.64 102.672 512.096 102.896C512.56 103.112 512.92 103.432 513.176 103.856C513.432 104.272 513.56 104.772 513.56 105.356C513.56 105.932 513.428 106.428 513.164 106.844C512.908 107.26 512.552 107.58 512.096 107.804C511.64 108.028 511.112 108.14 510.512 108.14H508.676V111.5H507.26ZM508.676 106.88H510.548C510.868 106.88 511.148 106.816 511.388 106.688C511.628 106.56 511.816 106.384 511.952 106.16C512.088 105.928 512.156 105.656 512.156 105.344C512.156 105.032 512.088 104.764 511.952 104.54C511.816 104.308 511.628 104.132 511.388 104.012C511.148 103.884 510.868 103.82 510.548 103.82H508.676V106.88ZM517.699 111.644C517.051 111.644 516.475 111.496 515.971 111.2C515.475 110.896 515.087 110.488 514.807 109.976C514.527 109.456 514.387 108.876 514.387 108.236C514.387 107.58 514.527 107 514.807 106.496C515.095 105.992 515.479 105.596 515.959 105.308C516.439 105.012 516.983 104.864 517.591 104.864C518.079 104.864 518.515 104.948 518.899 105.116C519.283 105.284 519.607 105.516 519.871 105.812C520.135 106.1 520.335 106.432 520.471 106.808C520.615 107.184 520.687 107.584 520.687 108.008C520.687 108.112 520.683 108.22 520.675 108.332C520.667 108.444 520.651 108.548 520.627 108.644H515.455V107.564H519.859L519.211 108.056C519.291 107.664 519.263 107.316 519.127 107.012C518.999 106.7 518.799 106.456 518.527 106.28C518.263 106.096 517.951 106.004 517.591 106.004C517.231 106.004 516.911 106.096 516.631 106.28C516.351 106.456 516.135 106.712 515.983 107.048C515.831 107.376 515.771 107.776 515.803 108.248C515.763 108.688 515.823 109.072 515.983 109.4C516.151 109.728 516.383 109.984 516.679 110.168C516.983 110.352 517.327 110.444 517.711 110.444C518.103 110.444 518.435 110.356 518.707 110.18C518.987 110.004 519.207 109.776 519.367 109.496L520.471 110.036C520.343 110.34 520.143 110.616 519.871 110.864C519.607 111.104 519.287 111.296 518.911 111.44C518.543 111.576 518.139 111.644 517.699 111.644ZM522.011 111.5V105.008H523.307V106.316L523.187 106.124C523.331 105.7 523.563 105.396 523.883 105.212C524.203 105.02 524.587 104.924 525.035 104.924H525.431V106.16H524.867C524.419 106.16 524.055 106.3 523.775 106.58C523.503 106.852 523.367 107.244 523.367 107.756V111.5H522.011ZM529.358 111.644C528.734 111.644 528.174 111.496 527.678 111.2C527.19 110.896 526.802 110.488 526.514 109.976C526.234 109.464 526.094 108.888 526.094 108.248C526.094 107.608 526.238 107.032 526.526 106.52C526.814 106.008 527.202 105.604 527.69 105.308C528.178 105.012 528.73 104.864 529.346 104.864C529.866 104.864 530.326 104.968 530.726 105.176C531.126 105.384 531.442 105.672 531.674 106.04L531.47 106.352V102.416H532.814V111.5H531.53V110.18L531.686 110.432C531.462 110.824 531.142 111.124 530.726 111.332C530.31 111.54 529.854 111.644 529.358 111.644ZM529.49 110.384C529.866 110.384 530.202 110.292 530.498 110.108C530.802 109.924 531.038 109.672 531.206 109.352C531.382 109.024 531.47 108.656 531.47 108.248C531.47 107.84 531.382 107.476 531.206 107.156C531.038 106.836 530.802 106.584 530.498 106.4C530.202 106.216 529.866 106.124 529.49 106.124C529.114 106.124 528.774 106.216 528.47 106.4C528.166 106.584 527.93 106.836 527.762 107.156C527.594 107.476 527.51 107.84 527.51 108.248C527.51 108.656 527.594 109.024 527.762 109.352C527.93 109.672 528.162 109.924 528.458 110.108C528.762 110.292 529.106 110.384 529.49 110.384ZM534.397 111.5V105.008H535.753V111.5H534.397ZM534.397 104.12V102.56H535.753V104.12H534.397ZM540.339 111.644C539.715 111.644 539.155 111.496 538.659 111.2C538.171 110.896 537.783 110.488 537.495 109.976C537.215 109.464 537.075 108.888 537.075 108.248C537.075 107.608 537.219 107.032 537.507 106.52C537.795 106.008 538.183 105.604 538.671 105.308C539.159 105.012 539.711 104.864 540.327 104.864C540.847 104.864 541.307 104.968 541.707 105.176C542.107 105.384 542.423 105.672 542.655 106.04L542.451 106.352V102.416H543.795V111.5H542.511V110.18L542.667 110.432C542.443 110.824 542.123 111.124 541.707 111.332C541.291 111.54 540.835 111.644 540.339 111.644ZM540.471 110.384C540.847 110.384 541.183 110.292 541.479 110.108C541.783 109.924 542.019 109.672 542.187 109.352C542.363 109.024 542.451 108.656 542.451 108.248C542.451 107.84 542.363 107.476 542.187 107.156C542.019 106.836 541.783 106.584 541.479 106.4C541.183 106.216 540.847 106.124 540.471 106.124C540.095 106.124 539.755 106.216 539.451 106.4C539.147 106.584 538.911 106.836 538.743 107.156C538.575 107.476 538.491 107.84 538.491 108.248C538.491 108.656 538.575 109.024 538.743 109.352C538.911 109.672 539.143 109.924 539.439 110.108C539.743 110.292 540.087 110.384 540.471 110.384ZM547.322 111.644C546.882 111.644 546.494 111.568 546.158 111.416C545.83 111.256 545.574 111.04 545.39 110.768C545.206 110.488 545.114 110.16 545.114 109.784C545.114 109.432 545.19 109.116 545.342 108.836C545.502 108.556 545.746 108.32 546.074 108.128C546.402 107.936 546.814 107.8 547.31 107.72L549.566 107.348V108.416L547.574 108.764C547.214 108.828 546.95 108.944 546.782 109.112C546.614 109.272 546.53 109.48 546.53 109.736C546.53 109.984 546.622 110.188 546.806 110.348C546.998 110.5 547.242 110.576 547.538 110.576C547.906 110.576 548.226 110.496 548.498 110.336C548.778 110.176 548.994 109.964 549.146 109.7C549.298 109.428 549.374 109.128 549.374 108.8V107.132C549.374 106.812 549.254 106.552 549.014 106.352C548.782 106.144 548.47 106.04 548.078 106.04C547.718 106.04 547.402 106.136 547.13 106.328C546.866 106.512 546.67 106.752 546.542 107.048L545.414 106.484C545.534 106.164 545.73 105.884 546.002 105.644C546.274 105.396 546.59 105.204 546.95 105.068C547.318 104.932 547.706 104.864 548.114 104.864C548.626 104.864 549.078 104.96 549.47 105.152C549.87 105.344 550.178 105.612 550.394 105.956C550.618 106.292 550.73 106.684 550.73 107.132V111.5H549.434V110.324L549.71 110.36C549.558 110.624 549.362 110.852 549.122 111.044C548.89 111.236 548.622 111.384 548.318 111.488C548.022 111.592 547.69 111.644 547.322 111.644Z" fill="#CC5229"/>
<path d="M562.128 110V108.296H560.424V107.696H562.128V106H562.728V107.696H564.424V108.296H562.728V110H562.128ZM566.012 110L568.084 107.288L568.204 107.216C568.124 107.344 568.03 107.445 567.924 107.52C567.817 107.595 567.7 107.648 567.572 107.68C567.444 107.712 567.302 107.728 567.148 107.728C566.801 107.728 566.489 107.648 566.212 107.488C565.934 107.323 565.713 107.099 565.548 106.816C565.388 106.528 565.308 106.2 565.308 105.832C565.308 105.469 565.39 105.147 565.556 104.864C565.726 104.581 565.956 104.357 566.244 104.192C566.537 104.027 566.865 103.944 567.228 103.944C567.601 103.944 567.932 104.029 568.22 104.2C568.508 104.365 568.734 104.597 568.9 104.896C569.065 105.189 569.148 105.528 569.148 105.912C569.148 106.125 569.121 106.336 569.068 106.544C569.02 106.752 568.945 106.957 568.844 107.16C568.742 107.363 568.614 107.565 568.46 107.768L566.78 110H566.012ZM567.228 107.152C567.478 107.152 567.7 107.096 567.892 106.984C568.084 106.867 568.233 106.709 568.34 106.512C568.452 106.309 568.508 106.083 568.508 105.832C568.508 105.576 568.452 105.349 568.34 105.152C568.228 104.949 568.076 104.792 567.884 104.68C567.692 104.563 567.473 104.504 567.228 104.504C566.982 104.504 566.764 104.563 566.572 104.68C566.38 104.792 566.228 104.949 566.116 105.152C566.004 105.349 565.948 105.576 565.948 105.832C565.948 106.083 566.001 106.309 566.108 106.512C566.22 106.709 566.372 106.867 566.564 106.984C566.761 107.096 566.982 107.152 567.228 107.152ZM571.073 110V104.6H569.953V104.04H571.713V110H571.073ZM575.113 110L577.185 107.288L577.305 107.216C577.225 107.344 577.132 107.445 577.025 107.52C576.918 107.595 576.801 107.648 576.673 107.68C576.545 107.712 576.404 107.728 576.249 107.728C575.902 107.728 575.59 107.648 575.313 107.488C575.036 107.323 574.814 107.099 574.649 106.816C574.489 106.528 574.409 106.2 574.409 105.832C574.409 105.469 574.492 105.147 574.657 104.864C574.828 104.581 575.057 104.357 575.345 104.192C575.638 104.027 575.966 103.944 576.329 103.944C576.702 103.944 577.033 104.029 577.321 104.2C577.609 104.365 577.836 104.597 578.001 104.896C578.166 105.189 578.249 105.528 578.249 105.912C578.249 106.125 578.222 106.336 578.169 106.544C578.121 106.752 578.046 106.957 577.945 107.16C577.844 107.363 577.716 107.565 577.561 107.768L575.881 110H575.113ZM576.329 107.152C576.58 107.152 576.801 107.096 576.993 106.984C577.185 106.867 577.334 106.709 577.441 106.512C577.553 106.309 577.609 106.083 577.609 105.832C577.609 105.576 577.553 105.349 577.441 105.152C577.329 104.949 577.177 104.792 576.985 104.68C576.793 104.563 576.574 104.504 576.329 104.504C576.084 104.504 575.865 104.563 575.673 104.68C575.481 104.792 575.329 104.949 575.217 105.152C575.105 105.349 575.049 105.576 575.049 105.832C575.049 106.083 575.102 106.309 575.209 106.512C575.321 106.709 575.473 106.867 575.665 106.984C575.862 107.096 576.084 107.152 576.329 107.152ZM581.239 110.096C580.855 110.096 580.511 110.019 580.207 109.864C579.908 109.704 579.671 109.488 579.495 109.216C579.324 108.939 579.239 108.627 579.239 108.28C579.239 107.901 579.345 107.563 579.559 107.264C579.777 106.965 580.071 106.757 580.439 106.64V106.808C580.156 106.685 579.937 106.504 579.783 106.264C579.628 106.019 579.551 105.757 579.551 105.48C579.551 105.187 579.625 104.925 579.775 104.696C579.924 104.467 580.124 104.285 580.375 104.152C580.631 104.013 580.919 103.944 581.239 103.944C581.564 103.944 581.852 104.011 582.103 104.144C582.353 104.272 582.551 104.453 582.695 104.688C582.844 104.917 582.919 105.181 582.919 105.48C582.919 105.779 582.839 106.045 582.679 106.28C582.519 106.509 582.308 106.685 582.047 106.808L582.039 106.64C582.407 106.757 582.697 106.965 582.911 107.264C583.129 107.563 583.239 107.901 583.239 108.28C583.239 108.627 583.151 108.939 582.975 109.216C582.804 109.488 582.567 109.704 582.263 109.864C581.964 110.019 581.623 110.096 581.239 110.096ZM581.239 109.536C581.511 109.536 581.748 109.485 581.951 109.384C582.153 109.277 582.311 109.131 582.423 108.944C582.54 108.752 582.599 108.531 582.599 108.28C582.599 108.029 582.54 107.811 582.423 107.624C582.311 107.432 582.153 107.285 581.951 107.184C581.748 107.077 581.511 107.024 581.239 107.024C580.967 107.024 580.727 107.077 580.519 107.184C580.316 107.285 580.159 107.432 580.047 107.624C579.935 107.811 579.879 108.029 579.879 108.28C579.879 108.531 579.935 108.752 580.047 108.944C580.159 109.131 580.316 109.277 580.519 109.384C580.727 109.485 580.967 109.536 581.239 109.536ZM581.239 106.464C581.436 106.464 581.612 106.424 581.767 106.344C581.921 106.259 582.044 106.144 582.135 106C582.231 105.851 582.279 105.677 582.279 105.48C582.279 105.283 582.231 105.112 582.135 104.968C582.044 104.824 581.921 104.712 581.767 104.632C581.612 104.547 581.436 104.504 581.239 104.504C581.041 104.504 580.863 104.547 580.703 104.632C580.548 104.712 580.423 104.824 580.327 104.968C580.236 105.112 580.191 105.283 580.191 105.48C580.191 105.677 580.236 105.851 580.327 106C580.423 106.144 580.548 106.259 580.703 106.344C580.863 106.424 581.041 106.464 581.239 106.464ZM584.966 106.936L584.502 106.6L585.19 105.688L584.174 105.344L584.35 104.8L585.374 105.136V104.04H585.95V105.136L586.974 104.8L587.15 105.344L586.134 105.688L586.822 106.6L586.358 106.936L585.662 106.024L584.966 106.936ZM588.794 106.936L588.33 106.6L589.018 105.688L588.002 105.344L588.178 104.8L589.202 105.136V104.04H589.778V105.136L590.802 104.8L590.978 105.344L589.962 105.688L590.65 106.6L590.186 106.936L589.49 106.024L588.794 106.936ZM592.622 106.936L592.158 106.6L592.846 105.688L591.83 105.344L592.006 104.8L593.03 105.136V104.04H593.606V105.136L594.63 104.8L594.806 105.344L593.79 105.688L594.478 106.6L594.014 106.936L593.318 106.024L592.622 106.936ZM596.45 106.936L595.986 106.6L596.674 105.688L595.658 105.344L595.834 104.8L596.858 105.136V104.04H597.434V105.136L598.458 104.8L598.634 105.344L597.618 105.688L598.306 106.6L597.842 106.936L597.146 106.024L596.45 106.936ZM600.279 106.936L599.815 106.6L600.503 105.688L599.487 105.344L599.663 104.8L600.687 105.136V104.04H601.263V105.136L602.287 104.8L602.463 105.344L601.447 105.688L602.135 106.6L601.671 106.936L600.975 106.024L600.279 106.936ZM604.107 106.936L603.643 106.6L604.331 105.688L603.315 105.344L603.491 104.8L604.515 105.136V104.04H605.091V105.136L606.115 104.8L606.291 105.344L605.275 105.688L605.963 106.6L605.499 106.936L604.803 106.024L604.107 106.936ZM609.231 110.096C608.847 110.096 608.503 110.019 608.199 109.864C607.9 109.704 607.663 109.488 607.487 109.216C607.316 108.939 607.231 108.627 607.231 108.28C607.231 107.901 607.337 107.563 607.551 107.264C607.769 106.965 608.063 106.757 608.431 106.64V106.808C608.148 106.685 607.929 106.504 607.775 106.264C607.62 106.019 607.543 105.757 607.543 105.48C607.543 105.187 607.617 104.925 607.767 104.696C607.916 104.467 608.116 104.285 608.367 104.152C608.623 104.013 608.911 103.944 609.231 103.944C609.556 103.944 609.844 104.011 610.095 104.144C610.345 104.272 610.543 104.453 610.687 104.688C610.836 104.917 610.911 105.181 610.911 105.48C610.911 105.779 610.831 106.045 610.671 106.28C610.511 106.509 610.3 106.685 610.039 106.808L610.031 106.64C610.399 106.757 610.689 106.965 610.903 107.264C611.121 107.563 611.231 107.901 611.231 108.28C611.231 108.627 611.143 108.939 610.967 109.216C610.796 109.488 610.559 109.704 610.255 109.864C609.956 110.019 609.615 110.096 609.231 110.096ZM609.231 109.536C609.503 109.536 609.74 109.485 609.943 109.384C610.145 109.277 610.303 109.131 610.415 108.944C610.532 108.752 610.591 108.531 610.591 108.28C610.591 108.029 610.532 107.811 610.415 107.624C610.303 107.432 610.145 107.285 609.943 107.184C609.74 107.077 609.503 107.024 609.231 107.024C608.959 107.024 608.719 107.077 608.511 107.184C608.308 107.285 608.151 107.432 608.039 107.624C607.927 107.811 607.871 108.029 607.871 108.28C607.871 108.531 607.927 108.752 608.039 108.944C608.151 109.131 608.308 109.277 608.511 109.384C608.719 109.485 608.959 109.536 609.231 109.536ZM609.231 106.464C609.428 106.464 609.604 106.424 609.759 106.344C609.913 106.259 610.036 106.144 610.127 106C610.223 105.851 610.271 105.677 610.271 105.48C610.271 105.283 610.223 105.112 610.127 104.968C610.036 104.824 609.913 104.712 609.759 104.632C609.604 104.547 609.428 104.504 609.231 104.504C609.033 104.504 608.855 104.547 608.695 104.632C608.54 104.712 608.415 104.824 608.319 104.968C608.228 105.112 608.183 105.283 608.183 105.48C608.183 105.677 608.228 105.851 608.319 106C608.415 106.144 608.54 106.259 608.695 106.344C608.855 106.424 609.033 106.464 609.231 106.464ZM612.902 110L614.974 107.288L615.094 107.216C615.014 107.344 614.921 107.445 614.814 107.52C614.708 107.595 614.59 107.648 614.462 107.68C614.334 107.712 614.193 107.728 614.038 107.728C613.692 107.728 613.38 107.648 613.102 107.488C612.825 107.323 612.604 107.099 612.438 106.816C612.278 106.528 612.198 106.2 612.198 105.832C612.198 105.469 612.281 105.147 612.446 104.864C612.617 104.581 612.846 104.357 613.134 104.192C613.428 104.027 613.756 103.944 614.118 103.944C614.492 103.944 614.822 104.029 615.11 104.2C615.398 104.365 615.625 104.597 615.79 104.896C615.956 105.189 616.038 105.528 616.038 105.912C616.038 106.125 616.012 106.336 615.958 106.544C615.91 106.752 615.836 106.957 615.734 107.16C615.633 107.363 615.505 107.565 615.35 107.768L613.67 110H612.902ZM614.118 107.152C614.369 107.152 614.59 107.096 614.782 106.984C614.974 106.867 615.124 106.709 615.23 106.512C615.342 106.309 615.398 106.083 615.398 105.832C615.398 105.576 615.342 105.349 615.23 105.152C615.118 104.949 614.966 104.792 614.774 104.68C614.582 104.563 614.364 104.504 614.118 104.504C613.873 104.504 613.654 104.563 613.462 104.68C613.27 104.792 613.118 104.949 613.006 105.152C612.894 105.349 612.838 105.576 612.838 105.832C612.838 106.083 612.892 106.309 612.998 106.512C613.11 106.709 613.262 106.867 613.454 106.984C613.652 107.096 613.873 107.152 614.118 107.152Z" fill="black"/>
<rect x="414.334" y="133.334" width="242.332" height="35.3325" rx="3.66623" stroke="#D5D9DC" stroke-width="0.667548"/>
<g clip-path="url(#clip2_6449_49499)">
<path d="M439.803 154.2C437.769 152.273 435.023 151.087 431.996 151.087C428.969 151.087 426.223 152.273 424.189 154.2C424.069 154.32 423.996 154.487 423.996 154.673C423.996 154.86 424.069 155.027 424.189 155.147L425.843 156.8C425.963 156.92 426.129 156.993 426.316 156.993C426.496 156.993 426.663 156.92 426.783 156.807C427.309 156.313 427.909 155.9 428.556 155.573C428.776 155.467 428.929 155.24 428.929 154.973V152.907C429.896 152.587 430.929 152.42 431.996 152.42C433.063 152.42 434.096 152.587 435.063 152.9V154.967C435.063 155.227 435.216 155.46 435.436 155.567C436.089 155.893 436.683 156.313 437.216 156.8C437.336 156.92 437.503 156.987 437.683 156.987C437.869 156.987 438.036 156.913 438.156 156.793L439.809 155.14C439.929 155.02 440.003 154.853 440.003 154.667C440.003 154.48 439.923 154.32 439.803 154.2ZM427.596 154.573C427.156 154.82 426.736 155.107 426.349 155.42L425.636 154.707C426.243 154.207 426.903 153.78 427.603 153.44V154.573H427.596ZM437.649 155.413C437.249 155.093 436.836 154.813 436.396 154.567V153.433C437.096 153.773 437.749 154.2 438.363 154.7L437.649 155.413ZM428.663 147.373L431.956 150.667L436.669 145.953L435.729 145.007L431.956 148.78L429.596 146.42H431.329V145.087H427.329V149.087H428.663V147.373Z" fill="#CC5229"/>
</g>
<path d="M453.088 155.644C452.456 155.644 451.868 155.528 451.324 155.296C450.788 155.064 450.32 154.744 449.92 154.336C449.528 153.92 449.22 153.432 448.996 152.872C448.772 152.312 448.66 151.696 448.66 151.024C448.66 150.36 448.768 149.748 448.984 149.188C449.208 148.62 449.52 148.132 449.92 147.724C450.32 147.308 450.788 146.988 451.324 146.764C451.86 146.532 452.448 146.416 453.088 146.416C453.72 146.416 454.284 146.524 454.78 146.74C455.284 146.956 455.708 147.24 456.052 147.592C456.396 147.936 456.644 148.312 456.796 148.72L455.524 149.32C455.332 148.84 455.024 148.452 454.6 148.156C454.184 147.852 453.68 147.7 453.088 147.7C452.496 147.7 451.972 147.84 451.516 148.12C451.06 148.4 450.704 148.788 450.448 149.284C450.2 149.78 450.076 150.36 450.076 151.024C450.076 151.688 450.2 152.272 450.448 152.776C450.704 153.272 451.06 153.66 451.516 153.94C451.972 154.212 452.496 154.348 453.088 154.348C453.68 154.348 454.184 154.2 454.6 153.904C455.024 153.608 455.332 153.22 455.524 152.74L456.796 153.34C456.644 153.74 456.396 154.116 456.052 154.468C455.708 154.82 455.284 155.104 454.78 155.32C454.284 155.536 453.72 155.644 453.088 155.644ZM458.12 155.5V146.416H459.476V150.28L459.26 150.112C459.42 149.704 459.676 149.396 460.028 149.188C460.38 148.972 460.788 148.864 461.252 148.864C461.732 148.864 462.156 148.968 462.524 149.176C462.892 149.384 463.18 149.672 463.388 150.04C463.596 150.408 463.7 150.828 463.7 151.3V155.5H462.356V151.672C462.356 151.344 462.292 151.068 462.164 150.844C462.044 150.612 461.876 150.436 461.66 150.316C461.444 150.188 461.196 150.124 460.916 150.124C460.644 150.124 460.396 150.188 460.172 150.316C459.956 150.436 459.784 150.612 459.656 150.844C459.536 151.076 459.476 151.352 459.476 151.672V155.5H458.12ZM467.095 155.644C466.655 155.644 466.267 155.568 465.931 155.416C465.603 155.256 465.347 155.04 465.163 154.768C464.979 154.488 464.887 154.16 464.887 153.784C464.887 153.432 464.963 153.116 465.115 152.836C465.275 152.556 465.519 152.32 465.847 152.128C466.175 151.936 466.587 151.8 467.083 151.72L469.339 151.348V152.416L467.347 152.764C466.987 152.828 466.723 152.944 466.555 153.112C466.387 153.272 466.303 153.48 466.303 153.736C466.303 153.984 466.395 154.188 466.579 154.348C466.771 154.5 467.015 154.576 467.311 154.576C467.679 154.576 467.999 154.496 468.271 154.336C468.551 154.176 468.767 153.964 468.919 153.7C469.071 153.428 469.147 153.128 469.147 152.8V151.132C469.147 150.812 469.027 150.552 468.787 150.352C468.555 150.144 468.243 150.04 467.851 150.04C467.491 150.04 467.175 150.136 466.903 150.328C466.639 150.512 466.443 150.752 466.315 151.048L465.187 150.484C465.307 150.164 465.503 149.884 465.775 149.644C466.047 149.396 466.363 149.204 466.723 149.068C467.091 148.932 467.479 148.864 467.887 148.864C468.399 148.864 468.851 148.96 469.243 149.152C469.643 149.344 469.951 149.612 470.167 149.956C470.391 150.292 470.503 150.684 470.503 151.132V155.5H469.207V154.324L469.483 154.36C469.331 154.624 469.135 154.852 468.895 155.044C468.663 155.236 468.395 155.384 468.091 155.488C467.795 155.592 467.463 155.644 467.095 155.644ZM472.089 155.5V149.008H473.385V150.412L473.217 150.196C473.353 149.756 473.601 149.424 473.961 149.2C474.321 148.976 474.733 148.864 475.197 148.864C475.717 148.864 476.177 149.004 476.577 149.284C476.985 149.556 477.257 149.92 477.393 150.376L477.009 150.412C477.201 149.892 477.493 149.504 477.885 149.248C478.285 148.992 478.741 148.864 479.253 148.864C479.701 148.864 480.105 148.968 480.465 149.176C480.833 149.384 481.125 149.672 481.341 150.04C481.557 150.408 481.665 150.828 481.665 151.3V155.5H480.309V151.672C480.309 151.344 480.249 151.068 480.129 150.844C480.017 150.612 479.857 150.436 479.649 150.316C479.449 150.188 479.213 150.124 478.941 150.124C478.669 150.124 478.429 150.188 478.221 150.316C478.013 150.436 477.849 150.612 477.729 150.844C477.609 151.076 477.549 151.352 477.549 151.672V155.5H476.205V151.672C476.205 151.344 476.145 151.068 476.025 150.844C475.913 150.612 475.753 150.436 475.545 150.316C475.345 150.188 475.105 150.124 474.825 150.124C474.553 150.124 474.313 150.188 474.105 150.316C473.897 150.436 473.733 150.612 473.613 150.844C473.501 151.076 473.445 151.352 473.445 151.672V155.5H472.089ZM485.06 155.644C484.62 155.644 484.232 155.568 483.896 155.416C483.568 155.256 483.312 155.04 483.128 154.768C482.944 154.488 482.852 154.16 482.852 153.784C482.852 153.432 482.928 153.116 483.08 152.836C483.24 152.556 483.484 152.32 483.812 152.128C484.14 151.936 484.552 151.8 485.048 151.72L487.304 151.348V152.416L485.312 152.764C484.952 152.828 484.688 152.944 484.52 153.112C484.352 153.272 484.268 153.48 484.268 153.736C484.268 153.984 484.36 154.188 484.544 154.348C484.736 154.5 484.98 154.576 485.276 154.576C485.644 154.576 485.964 154.496 486.236 154.336C486.516 154.176 486.732 153.964 486.884 153.7C487.036 153.428 487.112 153.128 487.112 152.8V151.132C487.112 150.812 486.992 150.552 486.752 150.352C486.52 150.144 486.208 150.04 485.816 150.04C485.456 150.04 485.14 150.136 484.868 150.328C484.604 150.512 484.408 150.752 484.28 151.048L483.152 150.484C483.272 150.164 483.468 149.884 483.74 149.644C484.012 149.396 484.328 149.204 484.688 149.068C485.056 148.932 485.444 148.864 485.852 148.864C486.364 148.864 486.816 148.96 487.208 149.152C487.608 149.344 487.916 149.612 488.132 149.956C488.356 150.292 488.468 150.684 488.468 151.132V155.5H487.172V154.324L487.448 154.36C487.296 154.624 487.1 154.852 486.86 155.044C486.628 155.236 486.36 155.384 486.056 155.488C485.76 155.592 485.428 155.644 485.06 155.644ZM493.054 155.644C492.43 155.644 491.87 155.496 491.374 155.2C490.886 154.896 490.498 154.488 490.21 153.976C489.93 153.464 489.79 152.888 489.79 152.248C489.79 151.608 489.934 151.032 490.222 150.52C490.51 150.008 490.898 149.604 491.386 149.308C491.874 149.012 492.426 148.864 493.042 148.864C493.562 148.864 494.022 148.968 494.422 149.176C494.822 149.384 495.138 149.672 495.37 150.04L495.166 150.352V146.416H496.51V155.5H495.226V154.18L495.382 154.432C495.158 154.824 494.838 155.124 494.422 155.332C494.006 155.54 493.55 155.644 493.054 155.644ZM493.186 154.384C493.562 154.384 493.898 154.292 494.194 154.108C494.498 153.924 494.734 153.672 494.902 153.352C495.078 153.024 495.166 152.656 495.166 152.248C495.166 151.84 495.078 151.476 494.902 151.156C494.734 150.836 494.498 150.584 494.194 150.4C493.898 150.216 493.562 150.124 493.186 150.124C492.81 150.124 492.47 150.216 492.166 150.4C491.862 150.584 491.626 150.836 491.458 151.156C491.29 151.476 491.206 151.84 491.206 152.248C491.206 152.656 491.29 153.024 491.458 153.352C491.626 153.672 491.858 153.924 492.154 154.108C492.458 154.292 492.802 154.384 493.186 154.384ZM500.037 155.644C499.597 155.644 499.209 155.568 498.873 155.416C498.545 155.256 498.289 155.04 498.105 154.768C497.921 154.488 497.829 154.16 497.829 153.784C497.829 153.432 497.905 153.116 498.057 152.836C498.217 152.556 498.461 152.32 498.789 152.128C499.117 151.936 499.529 151.8 500.025 151.72L502.281 151.348V152.416L500.289 152.764C499.929 152.828 499.665 152.944 499.497 153.112C499.329 153.272 499.245 153.48 499.245 153.736C499.245 153.984 499.337 154.188 499.521 154.348C499.713 154.5 499.957 154.576 500.253 154.576C500.621 154.576 500.941 154.496 501.213 154.336C501.493 154.176 501.709 153.964 501.861 153.7C502.013 153.428 502.089 153.128 502.089 152.8V151.132C502.089 150.812 501.969 150.552 501.729 150.352C501.497 150.144 501.185 150.04 500.793 150.04C500.433 150.04 500.117 150.136 499.845 150.328C499.581 150.512 499.385 150.752 499.257 151.048L498.129 150.484C498.249 150.164 498.445 149.884 498.717 149.644C498.989 149.396 499.305 149.204 499.665 149.068C500.033 148.932 500.421 148.864 500.829 148.864C501.341 148.864 501.793 148.96 502.185 149.152C502.585 149.344 502.893 149.612 503.109 149.956C503.333 150.292 503.445 150.684 503.445 151.132V155.5H502.149V154.324L502.425 154.36C502.273 154.624 502.077 154.852 501.837 155.044C501.605 155.236 501.337 155.384 501.033 155.488C500.737 155.592 500.405 155.644 500.037 155.644ZM507.26 155.5V146.56H510.512C511.112 146.56 511.64 146.672 512.096 146.896C512.56 147.112 512.92 147.432 513.176 147.856C513.432 148.272 513.56 148.772 513.56 149.356C513.56 149.932 513.428 150.428 513.164 150.844C512.908 151.26 512.552 151.58 512.096 151.804C511.64 152.028 511.112 152.14 510.512 152.14H508.676V155.5H507.26ZM508.676 150.88H510.548C510.868 150.88 511.148 150.816 511.388 150.688C511.628 150.56 511.816 150.384 511.952 150.16C512.088 149.928 512.156 149.656 512.156 149.344C512.156 149.032 512.088 148.764 511.952 148.54C511.816 148.308 511.628 148.132 511.388 148.012C511.148 147.884 510.868 147.82 510.548 147.82H508.676V150.88ZM517.699 155.644C517.051 155.644 516.475 155.496 515.971 155.2C515.475 154.896 515.087 154.488 514.807 153.976C514.527 153.456 514.387 152.876 514.387 152.236C514.387 151.58 514.527 151 514.807 150.496C515.095 149.992 515.479 149.596 515.959 149.308C516.439 149.012 516.983 148.864 517.591 148.864C518.079 148.864 518.515 148.948 518.899 149.116C519.283 149.284 519.607 149.516 519.871 149.812C520.135 150.1 520.335 150.432 520.471 150.808C520.615 151.184 520.687 151.584 520.687 152.008C520.687 152.112 520.683 152.22 520.675 152.332C520.667 152.444 520.651 152.548 520.627 152.644H515.455V151.564H519.859L519.211 152.056C519.291 151.664 519.263 151.316 519.127 151.012C518.999 150.7 518.799 150.456 518.527 150.28C518.263 150.096 517.951 150.004 517.591 150.004C517.231 150.004 516.911 150.096 516.631 150.28C516.351 150.456 516.135 150.712 515.983 151.048C515.831 151.376 515.771 151.776 515.803 152.248C515.763 152.688 515.823 153.072 515.983 153.4C516.151 153.728 516.383 153.984 516.679 154.168C516.983 154.352 517.327 154.444 517.711 154.444C518.103 154.444 518.435 154.356 518.707 154.18C518.987 154.004 519.207 153.776 519.367 153.496L520.471 154.036C520.343 154.34 520.143 154.616 519.871 154.864C519.607 155.104 519.287 155.296 518.911 155.44C518.543 155.576 518.139 155.644 517.699 155.644ZM522.011 155.5V149.008H523.307V150.316L523.187 150.124C523.331 149.7 523.563 149.396 523.883 149.212C524.203 149.02 524.587 148.924 525.035 148.924H525.431V150.16H524.867C524.419 150.16 524.055 150.3 523.775 150.58C523.503 150.852 523.367 151.244 523.367 151.756V155.5H522.011ZM529.358 155.644C528.734 155.644 528.174 155.496 527.678 155.2C527.19 154.896 526.802 154.488 526.514 153.976C526.234 153.464 526.094 152.888 526.094 152.248C526.094 151.608 526.238 151.032 526.526 150.52C526.814 150.008 527.202 149.604 527.69 149.308C528.178 149.012 528.73 148.864 529.346 148.864C529.866 148.864 530.326 148.968 530.726 149.176C531.126 149.384 531.442 149.672 531.674 150.04L531.47 150.352V146.416H532.814V155.5H531.53V154.18L531.686 154.432C531.462 154.824 531.142 155.124 530.726 155.332C530.31 155.54 529.854 155.644 529.358 155.644ZM529.49 154.384C529.866 154.384 530.202 154.292 530.498 154.108C530.802 153.924 531.038 153.672 531.206 153.352C531.382 153.024 531.47 152.656 531.47 152.248C531.47 151.84 531.382 151.476 531.206 151.156C531.038 150.836 530.802 150.584 530.498 150.4C530.202 150.216 529.866 150.124 529.49 150.124C529.114 150.124 528.774 150.216 528.47 150.4C528.166 150.584 527.93 150.836 527.762 151.156C527.594 151.476 527.51 151.84 527.51 152.248C527.51 152.656 527.594 153.024 527.762 153.352C527.93 153.672 528.162 153.924 528.458 154.108C528.762 154.292 529.106 154.384 529.49 154.384ZM534.397 155.5V149.008H535.753V155.5H534.397ZM534.397 148.12V146.56H535.753V148.12H534.397ZM540.339 155.644C539.715 155.644 539.155 155.496 538.659 155.2C538.171 154.896 537.783 154.488 537.495 153.976C537.215 153.464 537.075 152.888 537.075 152.248C537.075 151.608 537.219 151.032 537.507 150.52C537.795 150.008 538.183 149.604 538.671 149.308C539.159 149.012 539.711 148.864 540.327 148.864C540.847 148.864 541.307 148.968 541.707 149.176C542.107 149.384 542.423 149.672 542.655 150.04L542.451 150.352V146.416H543.795V155.5H542.511V154.18L542.667 154.432C542.443 154.824 542.123 155.124 541.707 155.332C541.291 155.54 540.835 155.644 540.339 155.644ZM540.471 154.384C540.847 154.384 541.183 154.292 541.479 154.108C541.783 153.924 542.019 153.672 542.187 153.352C542.363 153.024 542.451 152.656 542.451 152.248C542.451 151.84 542.363 151.476 542.187 151.156C542.019 150.836 541.783 150.584 541.479 150.4C541.183 150.216 540.847 150.124 540.471 150.124C540.095 150.124 539.755 150.216 539.451 150.4C539.147 150.584 538.911 150.836 538.743 151.156C538.575 151.476 538.491 151.84 538.491 152.248C538.491 152.656 538.575 153.024 538.743 153.352C538.911 153.672 539.143 153.924 539.439 154.108C539.743 154.292 540.087 154.384 540.471 154.384ZM547.322 155.644C546.882 155.644 546.494 155.568 546.158 155.416C545.83 155.256 545.574 155.04 545.39 154.768C545.206 154.488 545.114 154.16 545.114 153.784C545.114 153.432 545.19 153.116 545.342 152.836C545.502 152.556 545.746 152.32 546.074 152.128C546.402 151.936 546.814 151.8 547.31 151.72L549.566 151.348V152.416L547.574 152.764C547.214 152.828 546.95 152.944 546.782 153.112C546.614 153.272 546.53 153.48 546.53 153.736C546.53 153.984 546.622 154.188 546.806 154.348C546.998 154.5 547.242 154.576 547.538 154.576C547.906 154.576 548.226 154.496 548.498 154.336C548.778 154.176 548.994 153.964 549.146 153.7C549.298 153.428 549.374 153.128 549.374 152.8V151.132C549.374 150.812 549.254 150.552 549.014 150.352C548.782 150.144 548.47 150.04 548.078 150.04C547.718 150.04 547.402 150.136 547.13 150.328C546.866 150.512 546.67 150.752 546.542 151.048L545.414 150.484C545.534 150.164 545.73 149.884 546.002 149.644C546.274 149.396 546.59 149.204 546.95 149.068C547.318 148.932 547.706 148.864 548.114 148.864C548.626 148.864 549.078 148.96 549.47 149.152C549.87 149.344 550.178 149.612 550.394 149.956C550.618 150.292 550.73 150.684 550.73 151.132V155.5H549.434V154.324L549.71 154.36C549.558 154.624 549.362 154.852 549.122 155.044C548.89 155.236 548.622 155.384 548.318 155.488C548.022 155.592 547.69 155.644 547.322 155.644Z" fill="#CC5229"/>
<path d="M562.128 154V152.296H560.424V151.696H562.128V150H562.728V151.696H564.424V152.296H562.728V154H562.128ZM566.012 154L568.084 151.288L568.204 151.216C568.124 151.344 568.03 151.445 567.924 151.52C567.817 151.595 567.7 151.648 567.572 151.68C567.444 151.712 567.302 151.728 567.148 151.728C566.801 151.728 566.489 151.648 566.212 151.488C565.934 151.323 565.713 151.099 565.548 150.816C565.388 150.528 565.308 150.2 565.308 149.832C565.308 149.469 565.39 149.147 565.556 148.864C565.726 148.581 565.956 148.357 566.244 148.192C566.537 148.027 566.865 147.944 567.228 147.944C567.601 147.944 567.932 148.029 568.22 148.2C568.508 148.365 568.734 148.597 568.9 148.896C569.065 149.189 569.148 149.528 569.148 149.912C569.148 150.125 569.121 150.336 569.068 150.544C569.02 150.752 568.945 150.957 568.844 151.16C568.742 151.363 568.614 151.565 568.46 151.768L566.78 154H566.012ZM567.228 151.152C567.478 151.152 567.7 151.096 567.892 150.984C568.084 150.867 568.233 150.709 568.34 150.512C568.452 150.309 568.508 150.083 568.508 149.832C568.508 149.576 568.452 149.349 568.34 149.152C568.228 148.949 568.076 148.792 567.884 148.68C567.692 148.563 567.473 148.504 567.228 148.504C566.982 148.504 566.764 148.563 566.572 148.68C566.38 148.792 566.228 148.949 566.116 149.152C566.004 149.349 565.948 149.576 565.948 149.832C565.948 150.083 566.001 150.309 566.108 150.512C566.22 150.709 566.372 150.867 566.564 150.984C566.761 151.096 566.982 151.152 567.228 151.152ZM571.073 154V148.6H569.953V148.04H571.713V154H571.073ZM575.113 154L577.185 151.288L577.305 151.216C577.225 151.344 577.132 151.445 577.025 151.52C576.918 151.595 576.801 151.648 576.673 151.68C576.545 151.712 576.404 151.728 576.249 151.728C575.902 151.728 575.59 151.648 575.313 151.488C575.036 151.323 574.814 151.099 574.649 150.816C574.489 150.528 574.409 150.2 574.409 149.832C574.409 149.469 574.492 149.147 574.657 148.864C574.828 148.581 575.057 148.357 575.345 148.192C575.638 148.027 575.966 147.944 576.329 147.944C576.702 147.944 577.033 148.029 577.321 148.2C577.609 148.365 577.836 148.597 578.001 148.896C578.166 149.189 578.249 149.528 578.249 149.912C578.249 150.125 578.222 150.336 578.169 150.544C578.121 150.752 578.046 150.957 577.945 151.16C577.844 151.363 577.716 151.565 577.561 151.768L575.881 154H575.113ZM576.329 151.152C576.58 151.152 576.801 151.096 576.993 150.984C577.185 150.867 577.334 150.709 577.441 150.512C577.553 150.309 577.609 150.083 577.609 149.832C577.609 149.576 577.553 149.349 577.441 149.152C577.329 148.949 577.177 148.792 576.985 148.68C576.793 148.563 576.574 148.504 576.329 148.504C576.084 148.504 575.865 148.563 575.673 148.68C575.481 148.792 575.329 148.949 575.217 149.152C575.105 149.349 575.049 149.576 575.049 149.832C575.049 150.083 575.102 150.309 575.209 150.512C575.321 150.709 575.473 150.867 575.665 150.984C575.862 151.096 576.084 151.152 576.329 151.152ZM581.143 154.096C580.833 154.096 580.545 154.043 580.279 153.936C580.017 153.829 579.788 153.677 579.591 153.48C579.393 153.283 579.244 153.048 579.143 152.776L579.631 152.536C579.753 152.845 579.953 153.091 580.231 153.272C580.513 153.448 580.817 153.536 581.143 153.536C581.404 153.536 581.636 153.475 581.839 153.352C582.047 153.229 582.209 153.064 582.327 152.856C582.444 152.643 582.503 152.405 582.503 152.144C582.503 151.872 582.441 151.632 582.319 151.424C582.201 151.216 582.041 151.053 581.839 150.936C581.636 150.813 581.407 150.752 581.151 150.752C580.889 150.752 580.647 150.813 580.423 150.936C580.204 151.053 580.044 151.197 579.943 151.368L579.439 151.272L579.887 148.04H582.903V148.6H580.119L580.367 148.384L580.007 150.928L579.759 150.816C579.945 150.587 580.164 150.424 580.415 150.328C580.665 150.227 580.921 150.176 581.183 150.176C581.567 150.176 581.905 150.267 582.199 150.448C582.492 150.624 582.721 150.861 582.887 151.16C583.057 151.453 583.143 151.781 583.143 152.144C583.143 152.512 583.055 152.845 582.879 153.144C582.708 153.437 582.471 153.669 582.167 153.84C581.868 154.011 581.527 154.096 581.143 154.096ZM584.872 150.936L584.408 150.6L585.096 149.688L584.08 149.344L584.256 148.8L585.28 149.136V148.04H585.856V149.136L586.88 148.8L587.056 149.344L586.04 149.688L586.728 150.6L586.264 150.936L585.568 150.024L584.872 150.936ZM588.7 150.936L588.236 150.6L588.924 149.688L587.908 149.344L588.084 148.8L589.108 149.136V148.04H589.684V149.136L590.708 148.8L590.884 149.344L589.868 149.688L590.556 150.6L590.092 150.936L589.396 150.024L588.7 150.936ZM592.529 150.936L592.065 150.6L592.753 149.688L591.737 149.344L591.913 148.8L592.937 149.136V148.04H593.513V149.136L594.537 148.8L594.713 149.344L593.697 149.688L594.385 150.6L593.921 150.936L593.225 150.024L592.529 150.936ZM596.357 150.936L595.893 150.6L596.581 149.688L595.565 149.344L595.741 148.8L596.765 149.136V148.04H597.341V149.136L598.365 148.8L598.541 149.344L597.525 149.688L598.213 150.6L597.749 150.936L597.053 150.024L596.357 150.936ZM600.185 150.936L599.721 150.6L600.409 149.688L599.393 149.344L599.569 148.8L600.593 149.136V148.04H601.169V149.136L602.193 148.8L602.369 149.344L601.353 149.688L602.041 150.6L601.577 150.936L600.881 150.024L600.185 150.936ZM604.013 150.936L603.549 150.6L604.237 149.688L603.221 149.344L603.397 148.8L604.421 149.136V148.04H604.997V149.136L606.021 148.8L606.197 149.344L605.181 149.688L605.869 150.6L605.405 150.936L604.709 150.024L604.013 150.936ZM609.561 154.096C609.092 154.096 608.678 153.968 608.321 153.712C607.969 153.451 607.694 153.091 607.497 152.632C607.3 152.168 607.201 151.629 607.201 151.016C607.201 150.403 607.3 149.867 607.497 149.408C607.694 148.944 607.969 148.584 608.321 148.328C608.673 148.072 609.084 147.944 609.553 147.944C610.022 147.944 610.433 148.072 610.785 148.328C611.137 148.584 611.412 148.944 611.609 149.408C611.806 149.867 611.905 150.403 611.905 151.016C611.905 151.629 611.806 152.168 611.609 152.632C611.417 153.096 611.145 153.456 610.793 153.712C610.441 153.968 610.03 154.096 609.561 154.096ZM609.561 153.496C609.902 153.496 610.201 153.392 610.457 153.184C610.713 152.976 610.913 152.688 611.057 152.32C611.201 151.947 611.273 151.512 611.273 151.016C611.273 150.52 611.201 150.088 611.057 149.72C610.913 149.347 610.713 149.059 610.457 148.856C610.201 148.648 609.9 148.544 609.553 148.544C609.212 148.544 608.913 148.648 608.657 148.856C608.401 149.059 608.201 149.347 608.057 149.72C607.913 150.088 607.841 150.52 607.841 151.016C607.841 151.507 607.913 151.939 608.057 152.312C608.201 152.685 608.401 152.976 608.657 153.184C608.918 153.392 609.22 153.496 609.561 153.496ZM612.948 154V153.6L614.612 151.768C614.938 151.411 615.202 151.115 615.404 150.88C615.612 150.645 615.767 150.432 615.868 150.24C615.97 150.048 616.02 149.84 616.02 149.616C616.02 149.259 615.916 148.984 615.708 148.792C615.5 148.6 615.223 148.504 614.876 148.504C614.519 148.504 614.218 148.605 613.972 148.808C613.732 149.011 613.57 149.293 613.484 149.656L612.9 149.528C612.97 149.203 613.095 148.923 613.276 148.688C613.458 148.453 613.684 148.272 613.956 148.144C614.228 148.011 614.532 147.944 614.868 147.944C615.226 147.944 615.538 148.016 615.804 148.16C616.071 148.304 616.279 148.501 616.428 148.752C616.583 149.003 616.66 149.291 616.66 149.616C616.66 149.84 616.612 150.056 616.516 150.264C616.426 150.472 616.287 150.696 616.1 150.936C615.914 151.176 615.674 151.456 615.38 151.776L613.868 153.44H616.82V154H612.948Z" fill="black"/>
</g>
<defs>
<clipPath id="clip0_6449_49499">
<rect width="600" height="450" fill="white"/>
</clipPath>
<clipPath id="clip1_6449_49499">
<rect width="16" height="16" fill="white" transform="translate(424 99)"/>
</clipPath>
<clipPath id="clip2_6449_49499">
<rect width="16" height="16" fill="white" transform="translate(424 143)"/>
</clipPath>
</defs>
</svg>
