<svg width="40" height="40" viewBox="0 0 40 40" fill="none" xmlns="http://www.w3.org/2000/svg">
<path d="M4.66591 21.9847C2.97436 24.5874 2.88522 27.9205 4.43526 30.6101L7.10611 35.2447C7.92532 36.6661 9.77337 37.0996 11.1379 36.1901C12.396 35.3516 12.7773 33.6733 12.0054 32.3725L9.81793 28.6862L31.1557 30.1986C32.4739 30.292 33.3605 28.8727 32.6999 27.7269L19.1093 4.15878C18.4943 3.09228 16.9716 3.05133 16.3002 4.08323L4.66591 21.9847Z" fill="#683D99"/>
<path d="M5.3034 20.995C3.24688 24.1579 5.33896 28.3695 9.09906 28.6359L31.155 30.1986C32.4732 30.292 33.3598 28.8727 32.6992 27.7269L19.1085 4.15878C18.4936 3.09228 16.9709 3.05133 16.2995 4.08323L5.3034 20.995Z" fill="#9C5CE6"/>
<path fillRule="evenodd" clip-rule="evenodd" d="M28.8657 14.4734C28.4105 13.684 28.6805 12.6745 29.469 12.2187L33.7521 9.74289C34.5406 9.28711 35.5489 9.55758 36.004 10.347C36.4594 11.1365 36.1892 12.1459 35.4007 12.6017L31.1176 15.0775C30.3291 15.5333 29.321 15.2629 28.8657 14.4734Z" fill="#683D99"/>
<path fillRule="evenodd" clip-rule="evenodd" d="M36.6619 18.6466C36.6034 19.5562 35.8193 20.2461 34.9106 20.1875L31.9449 19.9961C31.0362 19.9373 30.3473 19.1523 30.4058 18.2427C30.4645 17.3329 31.2486 16.6431 32.1571 16.7017L35.1228 16.8932C36.0315 16.9519 36.7204 17.7369 36.6619 18.6466Z" fill="#683D99"/>
<path fillRule="evenodd" clip-rule="evenodd" d="M29.1539 5.62546C29.9701 6.02949 30.3046 7.01946 29.9011 7.8366L28.5837 10.504C28.1801 11.3211 27.1913 11.656 26.3751 11.252C25.5591 10.8479 25.2246 9.85796 25.6282 9.04082L26.9455 6.37343C27.3489 5.5563 28.3377 5.22142 29.1539 5.62546Z" fill="#683D99"/>
</svg>
