<svg width="30" height="30" viewBox="0 0 30 30" fill="none" xmlns="http://www.w3.org/2000/svg">
<path d="M2.5 8.92857C2.5 7.44924 3.61929 6.25 5 6.25H25C26.3807 6.25 27.5 7.44924 27.5 8.92857V22.3214C27.5 23.8008 26.3807 25 25 25H5C3.61929 25 2.5 23.8008 2.5 22.3214V8.92857Z" fill="#8C2E0E"/>
<path d="M2.5 7.68661C2.5 6.20284 3.53764 5 4.81763 5H25.1824C26.4624 5 27.5 6.20284 27.5 7.68661C27.5 8.70422 27.004 9.63449 26.2188 10.0896L16.118 15.944C15.4142 16.352 14.5858 16.352 13.882 15.944L3.78115 10.0896C2.99598 9.6345 2.5 8.70422 2.5 7.68661Z" fill="#CC5229"/>
</svg>
