<svg width="60" height="61" viewBox="0 0 60 61" fill="none" xmlns="http://www.w3.org/2000/svg">
<path d="M5 13C5 8.85786 8.35786 5.5 12.5 5.5H47.5C51.6421 5.5 55 8.85786 55 13V48C55 52.1421 51.6421 55.5 47.5 55.5H12.5C8.35786 55.5 5 52.1421 5 48V13Z" fill="#24B3B3"/>
<path d="M14.2949 28.7251H6.24485C5.80151 28.7251 5.47485 28.6318 5.26484 28.4451C5.07818 28.2351 4.98484 27.9085 4.98484 27.4651V23.3351C4.98484 22.8918 5.07818 22.5768 5.26484 22.3901C5.47485 22.1801 5.80151 22.0751 6.24485 22.0751H12.7899C13.6532 22.0751 14.2366 21.9468 14.5399 21.6901C14.8432 21.4101 14.9949 20.8384 14.9949 19.9751V19.2051C14.4349 19.3684 13.7816 19.4968 13.0349 19.5901C12.3115 19.6834 11.4832 19.7301 10.5499 19.7301C7.39986 19.7301 5.24151 19.2051 4.07484 18.1551C2.90817 17.0817 2.32483 15.5067 2.32483 13.4301V10.07C2.32483 8.9967 2.46483 8.02836 2.74483 7.16502C3.04817 6.30168 3.57317 5.56668 4.31984 4.96001C5.08984 4.33001 6.12818 3.85167 7.43486 3.525C8.74153 3.175 10.3982 3 12.4049 3C14.5516 3 16.3016 3.175 17.6549 3.525C19.0316 3.85167 20.1049 4.33001 20.8749 4.96001C21.6449 5.56668 22.1699 6.30168 22.4499 7.16502C22.7533 8.02836 22.9049 8.9967 22.9049 10.07V21.5501C22.9049 23.6734 22.2866 25.4001 21.0499 26.7301C19.8366 28.0601 17.5849 28.7251 14.2949 28.7251ZM14.9949 12.6951V10.63C14.9949 10.2567 14.8549 9.95337 14.5749 9.72003C14.2949 9.46337 13.6532 9.33503 12.6499 9.33503C11.5999 9.33503 10.9349 9.46337 10.6549 9.72003C10.3749 9.95337 10.2349 10.2567 10.2349 10.63V12.6951C10.2349 13.0451 10.3749 13.3484 10.6549 13.6051C10.9349 13.8384 11.5999 13.9551 12.6499 13.9551C13.6532 13.9551 14.2949 13.8384 14.5749 13.6051C14.8549 13.3484 14.9949 13.0451 14.9949 12.6951Z" fill="white"/>
<path d="M43.3576 28.7251H27.8875C27.4442 28.7251 27.1175 28.6318 26.9075 28.4451C26.7209 28.2351 26.6275 27.9085 26.6275 27.4651V23.2301C26.6275 22.7868 26.7209 22.4718 26.9075 22.2851C27.1175 22.0751 27.4442 21.9701 27.8875 21.9701H31.8076V10.28H28.5875C28.1442 10.28 27.8175 10.1867 27.6075 10C27.4209 9.79004 27.3275 9.46337 27.3275 9.02003V4.78501C27.3275 4.34167 27.4209 4.02667 27.6075 3.84C27.8175 3.63 28.1442 3.525 28.5875 3.525H38.7376C39.1809 3.525 39.4959 3.63 39.6826 3.84C39.8926 4.02667 39.9976 4.34167 39.9976 4.78501V21.9701H43.3576C43.801 21.9701 44.116 22.0751 44.3026 22.2851C44.5126 22.4718 44.6176 22.7868 44.6176 23.2301V27.4651C44.6176 27.9085 44.5126 28.2351 44.3026 28.4451C44.116 28.6318 43.801 28.7251 43.3576 28.7251Z" fill="white"/>
<path d="M33.2601 50.8482C33.2601 51.9215 33.1084 52.9015 32.8051 53.7882C32.5017 54.6515 31.9534 55.3982 31.1601 56.0282C30.3667 56.6349 29.2701 57.1132 27.87 57.4632C26.4934 57.8132 24.7317 57.9882 22.585 57.9882C20.4383 57.9882 18.665 57.8132 17.265 57.4632C15.8883 57.1132 14.8033 56.6349 14.01 56.0282C13.2166 55.3982 12.6566 54.6515 12.33 53.7882C12.0266 52.9015 11.875 51.9215 11.875 50.8482V38.9131C11.875 37.8398 12.0266 36.8715 12.33 36.0081C12.6566 35.1214 13.2166 34.3631 14.01 33.7331C14.8033 33.1031 15.8883 32.6131 17.265 32.2631C18.665 31.9131 20.4383 31.7381 22.585 31.7381C24.7317 31.7381 26.4934 31.9131 27.87 32.2631C29.2701 32.6131 30.3667 33.1031 31.1601 33.7331C31.9534 34.3631 32.5017 35.1214 32.8051 36.0081C33.1084 36.8715 33.2601 37.8398 33.2601 38.9131V50.8482ZM19.785 49.5882C19.785 50.0549 19.9483 50.4515 20.275 50.7782C20.625 51.0815 21.395 51.2332 22.585 51.2332C23.775 51.2332 24.5334 51.0815 24.86 50.7782C25.21 50.4515 25.385 50.0549 25.385 49.5882V40.1731C25.385 39.7298 25.21 39.3565 24.86 39.0531C24.5334 38.7265 23.775 38.5631 22.585 38.5631C21.395 38.5631 20.625 38.7265 20.275 39.0531C19.9483 39.3565 19.785 39.7298 19.785 40.1731V49.5882Z" fill="white"/>
<path d="M48.8898 57.4632H40.8398C40.3965 57.4632 40.0698 57.3699 39.8598 57.1832C39.6731 56.9732 39.5798 56.6466 39.5798 56.2032V52.0732C39.5798 51.6299 39.6731 51.3149 39.8598 51.1282C40.0698 50.9182 40.3965 50.8132 40.8398 50.8132H47.3848C48.2482 50.8132 48.8315 50.6849 49.1348 50.4282C49.4382 50.1482 49.5898 49.5765 49.5898 48.7132V47.9432C49.0298 48.1065 48.3765 48.2348 47.6298 48.3282C46.9065 48.4215 46.0782 48.4682 45.1448 48.4682C41.9948 48.4682 39.8365 47.9432 38.6698 46.8932C37.5031 45.8198 36.9198 44.2448 36.9198 42.1682V38.8081C36.9198 37.7348 37.0598 36.7665 37.3398 35.9031C37.6431 35.0398 38.1681 34.3048 38.9148 33.6981C39.6848 33.0681 40.7231 32.5898 42.0298 32.2631C43.3365 31.9131 44.9932 31.7381 46.9998 31.7381C49.1465 31.7381 50.8965 31.9131 52.2499 32.2631C53.6265 32.5898 54.6999 33.0681 55.4699 33.6981C56.2399 34.3048 56.7649 35.0398 57.0449 35.9031C57.3482 36.7665 57.4999 37.7348 57.4999 38.8081V50.2882C57.4999 52.4115 56.8816 54.1382 55.6449 55.4682C54.4315 56.7982 52.1799 57.4632 48.8898 57.4632ZM49.5898 41.4331V39.3681C49.5898 38.9948 49.4498 38.6915 49.1698 38.4581C48.8898 38.2015 48.2482 38.0731 47.2448 38.0731C46.1948 38.0731 45.5298 38.2015 45.2498 38.4581C44.9698 38.6915 44.8298 38.9948 44.8298 39.3681V41.4331C44.8298 41.7832 44.9698 42.0865 45.2498 42.3432C45.5298 42.5765 46.1948 42.6932 47.2448 42.6932C48.2482 42.6932 48.8898 42.5765 49.1698 42.3432C49.4498 42.0865 49.5898 41.7832 49.5898 41.4331Z" fill="white"/>
</svg>
