<svg width="25" height="25" viewBox="0 0 25 25" fill="none" xmlns="http://www.w3.org/2000/svg">
<path d="M8.05 4.08L6.62 2.65C4.22 4.48 2.64 7.3 2.5 10.5H4.5C4.65 7.85 6.01 5.53 8.05 4.08ZM20.44 10.5H22.44C22.29 7.3 20.71 4.48 18.32 2.65L16.9 4.08C18.92 5.53 20.29 7.85 20.44 10.5ZM18.47 11C18.47 7.93 16.83 5.36 13.97 4.68V4C13.97 3.17 13.3 2.5 12.47 2.5C11.64 2.5 10.97 3.17 10.97 4V4.68C8.1 5.36 6.47 7.92 6.47 11V16L4.47 18V19H20.47V18L18.47 16V11ZM12.47 22C12.61 22 12.74 21.99 12.87 21.96C13.52 21.82 14.05 21.38 14.31 20.78C14.41 20.54 14.46 20.28 14.46 20H10.46C10.47 21.1 11.36 22 12.47 22Z" fill="#29A653"/>
</svg>
