<svg width="30" height="30" viewBox="0 0 30 30" fill="none" xmlns="http://www.w3.org/2000/svg">
<path d="M15.0062 27.4871C21.9062 27.4871 27.4998 21.8935 27.4998 14.9935C27.4998 8.09355 21.9062 2.5 15.0062 2.5C8.10625 2.5 2.5127 8.09355 2.5127 14.9935C2.5127 21.8935 8.10625 27.4871 15.0062 27.4871Z" fill="#1A73E8"/>
<path d="M19.5531 20.3903H11.0394C9.82873 20.3903 8.77258 19.4758 8.77258 18.2651V18.2522V18.9606C8.77258 20.1713 9.82873 21.2275 11.0394 21.2275H19.5531C20.7767 21.2275 21.82 20.1584 21.82 18.9606V18.2522C21.82 19.4629 20.7638 20.3903 19.5531 20.3903ZM8.75968 14.2852V13.3191L7.17547 10.7045C7.0853 10.5629 7.04665 10.4341 7.05955 10.3052V11.4129C7.05955 11.516 7.09816 11.619 7.16256 11.7349L8.75968 14.2852Z" fill="#185ABC"/>
<path d="M19.5532 9.88019H7.62631C7.14975 9.88019 6.87931 10.2923 7.20131 10.7303L8.75977 13.435V18.265C8.75977 19.5015 9.66139 20.5319 10.885 20.5319H19.5403C20.7639 20.5319 21.8071 19.4886 21.8071 18.265V12.1599C21.82 10.9234 20.7768 9.88019 19.5532 9.88019Z" fill="white"/>
<path d="M19.4115 13.2934H11.1812C10.8205 13.2934 10.4728 13.0744 10.4728 12.7267C10.4728 12.3789 10.8206 12.16 11.1812 12.16H19.4114C19.7721 12.16 20.1199 12.3789 20.1199 12.7267C20.1199 13.0744 19.7721 13.2934 19.4114 13.2934H19.4115ZM19.4115 15.5603H11.1812C10.8205 15.5603 10.4728 15.3413 10.4728 14.9936C10.4728 14.6458 10.8206 14.4268 11.1812 14.4268H19.4114C19.7721 14.4268 20.1199 14.6458 20.1199 14.9936C20.1199 15.3413 19.7721 15.5603 19.4114 15.5603H19.4115ZM17.1318 17.84H11.1683C10.8077 17.84 10.46 17.6211 10.46 17.2733C10.46 16.9256 10.8077 16.7066 11.1683 16.7066H17.1318C17.4924 16.7066 17.8401 16.9255 17.8401 17.2733C17.8401 17.6211 17.4924 17.84 17.1318 17.84Z" fill="#8AB4F8"/>
<path d="M27.4998 14.9291C27.4741 20.4031 23.9063 25.0528 18.9862 26.7014C17.7368 27.1264 16.3973 27.3454 15.0063 27.3454C8.12836 27.3454 2.55135 21.7942 2.5127 14.9291V15.0064C2.5127 21.9101 8.10261 27.4999 15.0063 27.4999C16.3973 27.4999 17.7368 27.2681 18.9862 26.856C23.9321 25.1945 27.4998 20.519 27.4998 15.0064V14.9291Z" fill="#185ABC"/>
<path d="M18.9734 3.14395C17.7241 2.71899 16.3846 2.50006 14.9936 2.50006C8.08991 2.50001 2.5 8.08987 2.5 14.9936V15.0708C2.53861 8.20579 8.11561 2.65453 14.9936 2.65453C16.3846 2.65453 17.7241 2.88637 18.9734 3.29857C23.9065 4.9472 27.4613 9.59683 27.4871 15.0708V14.9936C27.5 9.48091 23.9322 4.80553 18.9734 3.14395Z" fill="#8AB4F8"/>
</svg>
