<svg width="40" height="40" viewBox="0 0 40 40" fill="none" xmlns="http://www.w3.org/2000/svg">
<path d="M11.6668 3.75L13.7781 2.82395C14.8288 2.36311 16.0427 2.47499 16.9914 3.12012L19.6334 4.91667L11.6668 3.75Z" fill="#DE8644"/>
<path d="M28.7406 15.8333H17.3995C15.296 15.8333 13.7184 17.7577 14.1309 19.8204L14.4642 21.487C14.7759 23.0451 16.1439 24.1667 17.7328 24.1667H25.9768C28.4512 24.1667 30.7221 25.5371 31.8752 27.7263L32.0404 28.0398C33.0605 29.9764 31.9689 32.3539 29.8353 32.8426L18.2064 35.5058C17.2605 35.7224 16.2839 35.7722 15.3208 35.6528L3.3335 34.1666V10.7639L9.58561 5.1956C10.3183 4.54307 11.3012 4.24646 12.2725 4.38478L34.6128 7.56614C36.9197 7.89466 37.933 10.6589 36.3849 12.4005C34.444 14.584 31.662 15.8333 28.7406 15.8333Z" fill="#DE8644"/>
<path d="M19.1665 20C19.1665 16.088 22.2869 12.9167 26.1362 12.9167H31.3635C35.2127 12.9167 38.3332 16.088 38.3332 20C38.3332 23.912 35.2127 27.0834 31.3635 27.0834H26.1362C22.2869 27.0834 19.1665 23.912 19.1665 20Z" fill="white"/>
<path fillRule="evenodd" clip-rule="evenodd" d="M31.3891 14.5833C34.3039 14.5833 36.6668 17.0084 36.6668 20C36.6668 22.9915 34.3039 25.4166 31.3891 25.4166H29.2779V21.0833L31.3891 21.0833C31.972 21.0833 32.4446 20.5983 32.4446 20C32.4446 19.4017 31.972 18.9166 31.3891 18.9166L29.2779 18.9166V14.5833L31.3891 14.5833Z" fill="#3A73B5"/>
<path fillRule="evenodd" clip-rule="evenodd" d="M26.1113 14.5833C23.1964 14.5833 20.8335 17.0084 20.8335 20C20.8335 22.9915 23.1964 25.4166 26.1113 25.4166H28.2224L28.2224 21.0833H26.1113C25.5283 21.0833 25.0557 20.5983 25.0557 20C25.0557 19.4017 25.5283 18.9166 26.1113 18.9166H28.2224V14.5833L26.1113 14.5833Z" fill="#3A73B5"/>
</svg>
