<svg width="625" height="450" viewBox="0 0 625 450" fill="none" xmlns="http://www.w3.org/2000/svg">
<path fill-rule="evenodd" clip-rule="evenodd" d="M401.667 164.778C415.912 197.028 421.966 233.047 410.95 265.726C399.071 300.964 376.073 335.493 341.148 344.301C307.847 352.699 278.218 323.274 246.789 307.126C216.21 291.415 179.309 284.127 163.107 252.825C145.415 218.644 143.112 174.797 161.514 142.376C178.838 111.854 217.271 107.345 250.536 98.7887C279.266 91.3985 308.7 85.1733 336.576 97.345C365.751 110.084 388.425 134.799 401.667 164.778Z" fill="#DBEAF6"/>
<g filter="url(#filter0_d_2076_27985)">
<path d="M60 187C60 182.582 63.5817 179 68 179H361C365.418 179 369 182.582 369 187V235C369 239.418 365.418 243 361 243H68C63.5817 243 60 239.418 60 235V187Z" fill="white"/>
<rect x="72.5" y="191" width="40" height="40" rx="20" fill="white"/>
<rect x="73.75" y="192.25" width="37.5" height="37.5" rx="18.75" fill="#4CD9D9" fill-opacity="0.16"/>
<path d="M84.1539 216.5H81.9039L86.0005 204.864H88.6028L92.7051 216.5H90.4551L87.3471 207.25H87.2562L84.1539 216.5ZM84.2278 211.938H90.3641V213.631H84.2278V211.938ZM92.5748 204.864H94.9555L97.802 210.011H97.9157L100.762 204.864H103.143L98.91 212.159V216.5H96.8077V212.159L92.5748 204.864Z" fill="#212528"/>
<circle cx="106" cy="224" r="4" fill="#29A653"/>
<circle cx="106" cy="224" r="4" stroke="white"/>
<rect x="73.75" y="192.25" width="37.5" height="37.5" rx="18.75" stroke="white" stroke-width="2.5"/>
<path d="M124.25 227.119C123.608 227.119 123.061 226.945 122.609 226.595C122.158 226.243 121.813 225.733 121.574 225.065C121.335 224.395 121.216 223.585 121.216 222.636C121.216 221.693 121.335 220.888 121.574 220.22C121.815 219.55 122.162 219.038 122.614 218.686C123.068 218.331 123.614 218.153 124.25 218.153C124.886 218.153 125.43 218.331 125.882 218.686C126.337 219.038 126.683 219.55 126.922 220.22C127.163 220.888 127.284 221.693 127.284 222.636C127.284 223.585 127.165 224.395 126.926 225.065C126.688 225.733 126.342 226.243 125.891 226.595C125.439 226.945 124.892 227.119 124.25 227.119ZM124.25 226.182C124.886 226.182 125.381 225.875 125.733 225.261C126.085 224.648 126.261 223.773 126.261 222.636C126.261 221.881 126.18 221.237 126.018 220.706C125.859 220.175 125.629 219.77 125.328 219.491C125.03 219.213 124.67 219.074 124.25 219.074C123.619 219.074 123.126 219.385 122.771 220.007C122.416 220.626 122.239 221.503 122.239 222.636C122.239 223.392 122.318 224.034 122.477 224.562C122.636 225.091 122.865 225.493 123.163 225.768C123.464 226.044 123.827 226.182 124.25 226.182ZM131.75 227.119C131.108 227.119 130.561 226.945 130.109 226.595C129.658 226.243 129.313 225.733 129.074 225.065C128.835 224.395 128.716 223.585 128.716 222.636C128.716 221.693 128.835 220.888 129.074 220.22C129.315 219.55 129.662 219.038 130.114 218.686C130.568 218.331 131.114 218.153 131.75 218.153C132.386 218.153 132.93 218.331 133.382 218.686C133.837 219.038 134.183 219.55 134.422 220.22C134.663 220.888 134.784 221.693 134.784 222.636C134.784 223.585 134.665 224.395 134.426 225.065C134.188 225.733 133.842 226.243 133.391 226.595C132.939 226.945 132.392 227.119 131.75 227.119ZM131.75 226.182C132.386 226.182 132.881 225.875 133.233 225.261C133.585 224.648 133.761 223.773 133.761 222.636C133.761 221.881 133.68 221.237 133.518 220.706C133.359 220.175 133.129 219.77 132.828 219.491C132.53 219.213 132.17 219.074 131.75 219.074C131.119 219.074 130.626 219.385 130.271 220.007C129.916 220.626 129.739 221.503 129.739 222.636C129.739 223.392 129.818 224.034 129.977 224.562C130.136 225.091 130.365 225.493 130.663 225.768C130.964 226.044 131.327 226.182 131.75 226.182ZM136.442 227L140.345 219.278V219.21H135.845V218.273H141.436V219.261L137.55 227H136.442Z" fill="#5D6164"/>
<path d="M123.142 207H120.892L124.989 195.364H127.591L131.693 207H129.443L126.335 197.75H126.244L123.142 207ZM123.216 202.438H129.352V204.131H123.216V202.438ZM139.892 200.58L138.017 200.784C137.964 200.595 137.871 200.417 137.739 200.25C137.61 200.083 137.436 199.949 137.216 199.847C136.996 199.744 136.727 199.693 136.409 199.693C135.981 199.693 135.621 199.786 135.33 199.972C135.042 200.157 134.9 200.398 134.903 200.693C134.9 200.947 134.992 201.153 135.182 201.312C135.375 201.472 135.693 201.602 136.136 201.705L137.625 202.023C138.451 202.201 139.064 202.483 139.466 202.869C139.871 203.256 140.076 203.761 140.08 204.386C140.076 204.936 139.915 205.42 139.597 205.841C139.282 206.258 138.845 206.583 138.284 206.818C137.723 207.053 137.08 207.17 136.352 207.17C135.284 207.17 134.424 206.947 133.773 206.5C133.121 206.049 132.733 205.422 132.608 204.619L134.614 204.426C134.705 204.82 134.898 205.117 135.193 205.318C135.489 205.519 135.873 205.619 136.347 205.619C136.835 205.619 137.227 205.519 137.523 205.318C137.822 205.117 137.972 204.869 137.972 204.574C137.972 204.324 137.875 204.117 137.682 203.955C137.492 203.792 137.197 203.667 136.795 203.58L135.307 203.267C134.47 203.093 133.85 202.799 133.449 202.386C133.047 201.97 132.848 201.443 132.852 200.807C132.848 200.269 132.994 199.803 133.29 199.409C133.589 199.011 134.004 198.705 134.534 198.489C135.068 198.269 135.684 198.159 136.381 198.159C137.403 198.159 138.208 198.377 138.795 198.812C139.386 199.248 139.752 199.837 139.892 200.58ZM143.832 201.886V207H141.776V195.364H143.787V199.756H143.889C144.094 199.263 144.41 198.875 144.838 198.591C145.27 198.303 145.819 198.159 146.486 198.159C147.092 198.159 147.62 198.286 148.071 198.54C148.522 198.794 148.87 199.165 149.116 199.653C149.366 200.142 149.491 200.739 149.491 201.443V207H147.435V201.761C147.435 201.174 147.283 200.718 146.98 200.392C146.681 200.062 146.26 199.898 145.719 199.898C145.355 199.898 145.029 199.977 144.741 200.136C144.457 200.292 144.234 200.517 144.071 200.812C143.912 201.108 143.832 201.466 143.832 201.886ZM151.588 207V198.273H153.645V207H151.588ZM152.622 197.034C152.296 197.034 152.016 196.926 151.781 196.71C151.546 196.491 151.429 196.227 151.429 195.92C151.429 195.61 151.546 195.347 151.781 195.131C152.016 194.911 152.296 194.801 152.622 194.801C152.952 194.801 153.232 194.911 153.463 195.131C153.698 195.347 153.815 195.61 153.815 195.92C153.815 196.227 153.698 196.491 153.463 196.71C153.232 196.926 152.952 197.034 152.622 197.034ZM162.658 200.58L160.783 200.784C160.73 200.595 160.637 200.417 160.504 200.25C160.375 200.083 160.201 199.949 159.982 199.847C159.762 199.744 159.493 199.693 159.175 199.693C158.747 199.693 158.387 199.786 158.095 199.972C157.807 200.157 157.665 200.398 157.669 200.693C157.665 200.947 157.758 201.153 157.947 201.312C158.141 201.472 158.459 201.602 158.902 201.705L160.391 202.023C161.216 202.201 161.83 202.483 162.232 202.869C162.637 203.256 162.841 203.761 162.845 204.386C162.841 204.936 162.68 205.42 162.362 205.841C162.048 206.258 161.61 206.583 161.05 206.818C160.489 207.053 159.845 207.17 159.118 207.17C158.05 207.17 157.19 206.947 156.538 206.5C155.887 206.049 155.499 205.422 155.374 204.619L157.379 204.426C157.47 204.82 157.663 205.117 157.959 205.318C158.254 205.519 158.639 205.619 159.112 205.619C159.601 205.619 159.993 205.519 160.288 205.318C160.588 205.117 160.737 204.869 160.737 204.574C160.737 204.324 160.641 204.117 160.447 203.955C160.258 203.792 159.963 203.667 159.561 203.58L158.072 203.267C157.235 203.093 156.616 202.799 156.214 202.386C155.813 201.97 155.614 201.443 155.618 200.807C155.614 200.269 155.76 199.803 156.055 199.409C156.355 199.011 156.769 198.705 157.3 198.489C157.834 198.269 158.449 198.159 159.146 198.159C160.169 198.159 160.974 198.377 161.561 198.812C162.152 199.248 162.518 199.837 162.658 200.58ZM166.598 201.886V207H164.541V195.364H166.553V199.756H166.655C166.859 199.263 167.176 198.875 167.604 198.591C168.036 198.303 168.585 198.159 169.251 198.159C169.857 198.159 170.386 198.286 170.837 198.54C171.287 198.794 171.636 199.165 171.882 199.653C172.132 200.142 172.257 200.739 172.257 201.443V207H170.2V201.761C170.2 201.174 170.049 200.718 169.746 200.392C169.446 200.062 169.026 199.898 168.484 199.898C168.121 199.898 167.795 199.977 167.507 200.136C167.223 200.292 167 200.517 166.837 200.812C166.678 201.108 166.598 201.466 166.598 201.886ZM177.618 195.364H179.999L182.845 200.511H182.959L185.805 195.364H188.186L183.953 202.659V207H181.851V202.659L177.618 195.364ZM190.599 207.176C190.046 207.176 189.548 207.078 189.105 206.881C188.666 206.68 188.317 206.384 188.06 205.994C187.806 205.604 187.679 205.123 187.679 204.551C187.679 204.059 187.77 203.652 187.952 203.33C188.134 203.008 188.382 202.75 188.696 202.557C189.01 202.364 189.365 202.218 189.759 202.119C190.156 202.017 190.567 201.943 190.991 201.898C191.503 201.845 191.918 201.797 192.236 201.756C192.554 201.71 192.785 201.642 192.929 201.551C193.077 201.456 193.151 201.311 193.151 201.114V201.08C193.151 200.652 193.024 200.32 192.77 200.085C192.516 199.85 192.151 199.733 191.673 199.733C191.17 199.733 190.77 199.843 190.474 200.062C190.183 200.282 189.986 200.542 189.884 200.841L187.963 200.568C188.115 200.038 188.365 199.595 188.713 199.239C189.062 198.879 189.488 198.61 189.991 198.432C190.495 198.25 191.052 198.159 191.662 198.159C192.082 198.159 192.501 198.208 192.918 198.307C193.334 198.405 193.715 198.568 194.06 198.795C194.404 199.019 194.681 199.324 194.889 199.71C195.101 200.097 195.207 200.58 195.207 201.159V207H193.23V205.801H193.162C193.037 206.044 192.861 206.271 192.634 206.483C192.41 206.691 192.128 206.86 191.787 206.989C191.45 207.114 191.054 207.176 190.599 207.176ZM191.134 205.665C191.546 205.665 191.904 205.583 192.207 205.42C192.51 205.254 192.743 205.034 192.906 204.761C193.073 204.489 193.156 204.191 193.156 203.869V202.841C193.092 202.894 192.982 202.943 192.827 202.989C192.675 203.034 192.505 203.074 192.315 203.108C192.126 203.142 191.938 203.172 191.753 203.199C191.567 203.225 191.406 203.248 191.27 203.267C190.963 203.309 190.688 203.377 190.446 203.472C190.204 203.566 190.012 203.699 189.872 203.869C189.732 204.036 189.662 204.252 189.662 204.517C189.662 204.896 189.8 205.182 190.077 205.375C190.353 205.568 190.705 205.665 191.134 205.665ZM200.514 207.153C199.829 207.153 199.215 206.977 198.673 206.625C198.132 206.273 197.704 205.761 197.389 205.091C197.075 204.42 196.918 203.606 196.918 202.648C196.918 201.678 197.077 200.86 197.395 200.193C197.717 199.523 198.151 199.017 198.696 198.676C199.241 198.331 199.849 198.159 200.52 198.159C201.031 198.159 201.452 198.246 201.781 198.42C202.111 198.591 202.372 198.797 202.565 199.04C202.759 199.278 202.908 199.504 203.014 199.716H203.099V195.364H205.162V207H203.139V205.625H203.014C202.908 205.837 202.755 206.062 202.554 206.301C202.353 206.536 202.088 206.737 201.759 206.903C201.429 207.07 201.014 207.153 200.514 207.153ZM201.088 205.466C201.524 205.466 201.895 205.348 202.202 205.114C202.509 204.875 202.741 204.544 202.901 204.119C203.06 203.695 203.139 203.201 203.139 202.636C203.139 202.072 203.06 201.581 202.901 201.165C202.745 200.748 202.514 200.424 202.207 200.193C201.904 199.962 201.531 199.847 201.088 199.847C200.63 199.847 200.247 199.966 199.94 200.205C199.634 200.443 199.402 200.773 199.247 201.193C199.092 201.614 199.014 202.095 199.014 202.636C199.014 203.182 199.092 203.669 199.247 204.097C199.406 204.521 199.639 204.856 199.946 205.102C200.257 205.345 200.637 205.466 201.088 205.466ZM209.865 207.176C209.312 207.176 208.814 207.078 208.371 206.881C207.931 206.68 207.583 206.384 207.325 205.994C207.071 205.604 206.945 205.123 206.945 204.551C206.945 204.059 207.036 203.652 207.217 203.33C207.399 203.008 207.647 202.75 207.962 202.557C208.276 202.364 208.63 202.218 209.024 202.119C209.422 202.017 209.833 201.943 210.257 201.898C210.768 201.845 211.183 201.797 211.501 201.756C211.82 201.71 212.051 201.642 212.195 201.551C212.342 201.456 212.416 201.311 212.416 201.114V201.08C212.416 200.652 212.289 200.32 212.036 200.085C211.782 199.85 211.416 199.733 210.939 199.733C210.435 199.733 210.036 199.843 209.74 200.062C209.448 200.282 209.251 200.542 209.149 200.841L207.229 200.568C207.38 200.038 207.63 199.595 207.979 199.239C208.327 198.879 208.753 198.61 209.257 198.432C209.761 198.25 210.318 198.159 210.928 198.159C211.348 198.159 211.767 198.208 212.183 198.307C212.6 198.405 212.981 198.568 213.325 198.795C213.67 199.019 213.946 199.324 214.155 199.71C214.367 200.097 214.473 200.58 214.473 201.159V207H212.496V205.801H212.428C212.303 206.044 212.126 206.271 211.899 206.483C211.676 206.691 211.393 206.86 211.053 206.989C210.715 207.114 210.32 207.176 209.865 207.176ZM210.399 205.665C210.812 205.665 211.17 205.583 211.473 205.42C211.776 205.254 212.009 205.034 212.172 204.761C212.339 204.489 212.422 204.191 212.422 203.869V202.841C212.357 202.894 212.248 202.943 212.092 202.989C211.941 203.034 211.77 203.074 211.581 203.108C211.392 203.142 211.204 203.172 211.018 203.199C210.833 203.225 210.672 203.248 210.536 203.267C210.229 203.309 209.954 203.377 209.712 203.472C209.469 203.566 209.278 203.699 209.138 203.869C208.998 204.036 208.928 204.252 208.928 204.517C208.928 204.896 209.066 205.182 209.342 205.375C209.619 205.568 209.971 205.665 210.399 205.665ZM224.024 198.273L220.916 207H218.643L215.536 198.273H217.729L219.734 204.756H219.825L221.837 198.273H224.024Z" fill="#3F4346"/>
<line x1="232" y1="226" x2="232" y2="196" stroke="#D5D9DC"/>
<rect x="240.5" y="193" width="36" height="36" rx="18" fill="white"/>
<path d="M253.95 205.167C254 205.908 254.125 206.633 254.325 207.325L253.325 208.325C252.983 207.325 252.767 206.267 252.692 205.167H253.95ZM262.167 215.183C262.875 215.383 263.6 215.508 264.333 215.558V216.8C263.233 216.725 262.175 216.508 261.167 216.175L262.167 215.183ZM254.75 203.5H251.833C251.375 203.5 251 203.875 251 204.333C251 212.158 257.342 218.5 265.167 218.5C265.625 218.5 266 218.125 266 217.667V214.758C266 214.3 265.625 213.925 265.167 213.925C264.133 213.925 263.125 213.758 262.192 213.45C262.108 213.417 262.017 213.408 261.933 213.408C261.717 213.408 261.508 213.492 261.342 213.65L259.508 215.483C257.15 214.275 255.217 212.35 254.017 209.992L255.85 208.158C256.083 207.925 256.15 207.6 256.058 207.308C255.75 206.375 255.583 205.375 255.583 204.333C255.583 203.875 255.208 203.5 254.75 203.5Z" fill="#5D6164"/>
<rect x="280.5" y="193" width="36" height="36" rx="18" fill="white"/>
<path d="M302.667 209.75V206.833C302.667 206.375 302.292 206 301.833 206H291.833C291.375 206 291 206.375 291 206.833V215.167C291 215.625 291.375 216 291.833 216H301.833C302.292 216 302.667 215.625 302.667 215.167V212.25L306 215.583V206.417L302.667 209.75ZM301 214.333H292.667V207.667H301V214.333ZM296 213.5H297.667V211.833H299.333V210.167H297.667V208.5H296V210.167H294.333V211.833H296V213.5Z" fill="#5D6164"/>
<rect x="320.5" y="193" width="36" height="36" rx="18" fill="white"/>
<g clip-path="url(#clip0_2076_27985)">
<path d="M345.167 216C346.083 216 346.825 215.25 346.825 214.333L346.833 206C346.833 205.075 346.083 204.333 345.167 204.333H331.833C330.908 204.333 330.167 205.075 330.167 206V214.333C330.167 215.25 330.908 216 331.833 216H328.5V217.667H348.5V216H345.167ZM331.833 214.333V206H345.167V214.342L331.833 214.333ZM339.333 208.608C336.092 209.058 334.8 211.275 334.333 213.5C335.492 211.942 337.017 211.233 339.333 211.233V213.058L342.667 209.942L339.333 206.833V208.608Z" fill="#5D6164"/>
</g>
</g>
<g filter="url(#filter1_d_2076_27985)">
<rect x="235" y="319" width="127" height="38" rx="19" fill="white" shape-rendering="crispEdges"/>
<path d="M254.936 344L251.08 332.48H252.56L255.912 342.488L259.296 332.48H260.776L256.92 344H254.936ZM261.827 333.832V332.36H263.251V333.832H261.827ZM261.827 344V335.36H263.251V344H261.827ZM269.043 344.24C268.238 344.24 267.547 344.04 266.971 343.64C266.395 343.235 265.95 342.688 265.635 342C265.326 341.312 265.171 340.536 265.171 339.672C265.171 338.808 265.326 338.032 265.635 337.344C265.95 336.656 266.395 336.115 266.971 335.72C267.547 335.32 268.235 335.12 269.035 335.12C269.851 335.12 270.537 335.317 271.091 335.712C271.646 336.107 272.065 336.648 272.347 337.336C272.635 338.024 272.779 338.803 272.779 339.672C272.779 340.531 272.635 341.307 272.347 342C272.065 342.688 271.646 343.235 271.091 343.64C270.537 344.04 269.854 344.24 269.043 344.24ZM269.219 342.936C269.801 342.936 270.278 342.797 270.651 342.52C271.025 342.237 271.299 341.851 271.475 341.36C271.657 340.864 271.747 340.301 271.747 339.672C271.747 339.032 271.657 338.469 271.475 337.984C271.299 337.493 271.027 337.112 270.659 336.84C270.291 336.563 269.825 336.424 269.259 336.424C268.673 336.424 268.187 336.568 267.803 336.856C267.425 337.144 267.142 337.533 266.955 338.024C266.774 338.515 266.683 339.064 266.683 339.672C266.683 340.285 266.777 340.84 266.963 341.336C267.15 341.827 267.43 342.216 267.803 342.504C268.182 342.792 268.654 342.936 269.219 342.936ZM271.747 344V337.64H271.587V332.48H273.019V344H271.747ZM279.005 344.24C278.157 344.24 277.415 344.053 276.781 343.68C276.151 343.301 275.661 342.776 275.309 342.104C274.957 341.427 274.781 340.637 274.781 339.736C274.781 338.792 274.954 337.976 275.301 337.288C275.647 336.595 276.13 336.061 276.749 335.688C277.373 335.309 278.103 335.12 278.941 335.12C279.81 335.12 280.549 335.32 281.157 335.72C281.77 336.12 282.229 336.691 282.533 337.432C282.842 338.173 282.975 339.056 282.933 340.08H281.493V339.568C281.477 338.507 281.261 337.715 280.845 337.192C280.429 336.664 279.81 336.4 278.989 336.4C278.109 336.4 277.439 336.683 276.981 337.248C276.522 337.813 276.293 338.624 276.293 339.68C276.293 340.699 276.522 341.488 276.981 342.048C277.439 342.608 278.093 342.888 278.941 342.888C279.511 342.888 280.007 342.757 280.429 342.496C280.85 342.235 281.181 341.859 281.421 341.368L282.789 341.84C282.453 342.603 281.946 343.195 281.269 343.616C280.597 344.032 279.842 344.24 279.005 344.24ZM275.813 340.08V338.936H282.197V340.08H275.813ZM288.394 344.24C287.535 344.24 286.794 344.045 286.17 343.656C285.551 343.267 285.074 342.728 284.738 342.04C284.402 341.352 284.234 340.563 284.234 339.672C284.234 338.765 284.404 337.971 284.746 337.288C285.087 336.605 285.57 336.075 286.194 335.696C286.818 335.312 287.551 335.12 288.394 335.12C289.258 335.12 290.002 335.315 290.626 335.704C291.25 336.088 291.727 336.624 292.058 337.312C292.394 337.995 292.562 338.781 292.562 339.672C292.562 340.573 292.394 341.368 292.058 342.056C291.722 342.739 291.242 343.275 290.618 343.664C289.994 344.048 289.252 344.24 288.394 344.24ZM288.394 342.888C289.29 342.888 289.956 342.589 290.394 341.992C290.831 341.395 291.05 340.621 291.05 339.672C291.05 338.696 290.828 337.92 290.386 337.344C289.943 336.763 289.279 336.472 288.394 336.472C287.791 336.472 287.295 336.608 286.906 336.88C286.516 337.152 286.226 337.528 286.034 338.008C285.842 338.488 285.746 339.043 285.746 339.672C285.746 340.643 285.97 341.421 286.418 342.008C286.866 342.595 287.524 342.888 288.394 342.888ZM301.166 344.24C300.292 344.24 299.548 344.045 298.934 343.656C298.326 343.261 297.862 342.72 297.542 342.032C297.222 341.344 297.057 340.56 297.046 339.68C297.057 338.779 297.225 337.987 297.55 337.304C297.881 336.616 298.353 336.08 298.966 335.696C299.58 335.312 300.318 335.12 301.182 335.12C302.094 335.12 302.878 335.344 303.534 335.792C304.196 336.24 304.638 336.853 304.862 337.632L303.454 338.056C303.273 337.555 302.977 337.165 302.566 336.888C302.161 336.611 301.694 336.472 301.166 336.472C300.574 336.472 300.086 336.611 299.702 336.888C299.318 337.16 299.033 337.539 298.846 338.024C298.66 338.504 298.564 339.056 298.558 339.68C298.569 340.64 298.79 341.416 299.222 342.008C299.66 342.595 300.308 342.888 301.166 342.888C301.732 342.888 302.201 342.76 302.574 342.504C302.948 342.243 303.23 341.867 303.422 341.376L304.862 341.752C304.564 342.557 304.097 343.173 303.462 343.6C302.828 344.027 302.062 344.24 301.166 344.24ZM308.873 344.24C308.228 344.24 307.686 344.123 307.249 343.888C306.817 343.648 306.489 343.333 306.265 342.944C306.046 342.555 305.937 342.128 305.937 341.664C305.937 341.211 306.022 340.819 306.193 340.488C306.369 340.152 306.614 339.875 306.929 339.656C307.244 339.432 307.62 339.256 308.057 339.128C308.468 339.016 308.926 338.92 309.433 338.84C309.945 338.755 310.462 338.677 310.985 338.608C311.508 338.539 311.996 338.472 312.449 338.408L311.937 338.704C311.953 337.936 311.798 337.368 311.473 337C311.153 336.632 310.598 336.448 309.809 336.448C309.286 336.448 308.828 336.568 308.433 336.808C308.044 337.043 307.769 337.427 307.609 337.96L306.257 337.552C306.465 336.795 306.868 336.2 307.465 335.768C308.062 335.336 308.849 335.12 309.825 335.12C310.609 335.12 311.281 335.261 311.841 335.544C312.406 335.821 312.812 336.243 313.057 336.808C313.18 337.075 313.257 337.365 313.289 337.68C313.321 337.989 313.337 338.315 313.337 338.656V344H312.073V341.928L312.369 342.12C312.044 342.819 311.588 343.347 311.001 343.704C310.42 344.061 309.71 344.24 308.873 344.24ZM309.089 343.048C309.601 343.048 310.044 342.957 310.417 342.776C310.796 342.589 311.1 342.347 311.329 342.048C311.558 341.744 311.708 341.413 311.777 341.056C311.857 340.789 311.9 340.493 311.905 340.168C311.916 339.837 311.921 339.584 311.921 339.408L312.417 339.624C311.953 339.688 311.497 339.749 311.049 339.808C310.601 339.867 310.177 339.931 309.777 340C309.377 340.064 309.017 340.141 308.697 340.232C308.462 340.307 308.241 340.403 308.033 340.52C307.83 340.637 307.665 340.789 307.537 340.976C307.414 341.157 307.353 341.384 307.353 341.656C307.353 341.891 307.412 342.115 307.529 342.328C307.652 342.541 307.838 342.715 308.089 342.848C308.345 342.981 308.678 343.048 309.089 343.048ZM315.577 344V332.24H317.001V344H315.577ZM319.561 344V332.24H320.985V344H319.561ZM323.546 333.832V332.36H324.97V333.832H323.546ZM323.546 344V335.36H324.97V344H323.546ZM333.522 344V339.672C333.522 339.261 333.485 338.867 333.41 338.488C333.341 338.109 333.215 337.771 333.034 337.472C332.858 337.168 332.618 336.928 332.314 336.752C332.015 336.576 331.637 336.488 331.178 336.488C330.821 336.488 330.495 336.549 330.202 336.672C329.914 336.789 329.666 336.971 329.458 337.216C329.25 337.461 329.087 337.771 328.97 338.144C328.858 338.512 328.802 338.947 328.802 339.448L327.866 339.16C327.866 338.323 328.015 337.605 328.314 337.008C328.618 336.405 329.042 335.944 329.586 335.624C330.135 335.299 330.781 335.136 331.522 335.136C332.082 335.136 332.559 335.224 332.954 335.4C333.349 335.576 333.677 335.811 333.938 336.104C334.199 336.392 334.405 336.717 334.554 337.08C334.703 337.437 334.807 337.803 334.866 338.176C334.93 338.544 334.962 338.893 334.962 339.224V344H333.522ZM327.362 344V335.36H328.642V337.672H328.802V344H327.362ZM340.538 348.08C340.085 348.08 339.642 348.011 339.21 347.872C338.778 347.733 338.381 347.523 338.018 347.24C337.661 346.963 337.362 346.611 337.122 346.184L338.426 345.496C338.639 345.917 338.941 346.224 339.33 346.416C339.725 346.608 340.13 346.704 340.546 346.704C341.095 346.704 341.551 346.603 341.914 346.4C342.277 346.203 342.543 345.907 342.714 345.512C342.89 345.117 342.975 344.627 342.97 344.04V341.68H343.138V335.36H344.402V344.056C344.402 344.291 344.394 344.517 344.378 344.736C344.367 344.955 344.341 345.171 344.298 345.384C344.186 345.997 343.965 346.501 343.634 346.896C343.303 347.296 342.877 347.592 342.354 347.784C341.831 347.981 341.226 348.08 340.538 348.08ZM340.434 344.24C339.629 344.24 338.938 344.04 338.362 343.64C337.786 343.235 337.341 342.688 337.026 342C336.717 341.312 336.562 340.536 336.562 339.672C336.562 338.808 336.717 338.032 337.026 337.344C337.341 336.656 337.786 336.115 338.362 335.72C338.938 335.32 339.626 335.12 340.426 335.12C341.242 335.12 341.927 335.317 342.482 335.712C343.037 336.107 343.455 336.648 343.738 337.336C344.026 338.024 344.17 338.803 344.17 339.672C344.17 340.531 344.026 341.307 343.738 342C343.455 342.688 343.037 343.235 342.482 343.64C341.927 344.04 341.245 344.24 340.434 344.24ZM340.61 342.936C341.191 342.936 341.669 342.797 342.042 342.52C342.415 342.237 342.69 341.851 342.866 341.36C343.047 340.864 343.138 340.301 343.138 339.672C343.138 339.032 343.047 338.469 342.866 337.984C342.69 337.493 342.418 337.112 342.05 336.84C341.682 336.563 341.215 336.424 340.65 336.424C340.063 336.424 339.578 336.568 339.194 336.856C338.815 337.144 338.533 337.533 338.346 338.024C338.165 338.515 338.074 339.064 338.074 339.672C338.074 340.285 338.167 340.84 338.354 341.336C338.541 341.827 338.821 342.216 339.194 342.504C339.573 342.792 340.045 342.936 340.61 342.936Z" fill="#212528"/>
</g>
<path d="M299.5 233C299.5 232.448 299.052 232 298.5 232C297.948 232 297.5 232.448 297.5 233H299.5ZM297.793 315.707C298.183 316.098 298.817 316.098 299.207 315.707L305.571 309.343C305.962 308.953 305.962 308.319 305.571 307.929C305.181 307.538 304.547 307.538 304.157 307.929L298.5 313.586L292.843 307.929C292.453 307.538 291.819 307.538 291.429 307.929C291.038 308.319 291.038 308.953 291.429 309.343L297.793 315.707ZM297.5 233V315H299.5V233H297.5Z" fill="#B3B3B3"/>
<g filter="url(#filter2_d_2076_27985)">
<rect x="196" y="79" width="125" height="38" rx="19" fill="white" shape-rendering="crispEdges"/>
<path d="M215.936 104L212.08 92.48H213.56L216.912 102.488L220.296 92.48H221.776L217.92 104H215.936ZM225.706 104.24C224.848 104.24 224.106 104.045 223.482 103.656C222.864 103.267 222.386 102.728 222.05 102.04C221.714 101.352 221.546 100.563 221.546 99.672C221.546 98.7653 221.717 97.9707 222.058 97.288C222.4 96.6053 222.882 96.0747 223.506 95.696C224.13 95.312 224.864 95.12 225.706 95.12C226.57 95.12 227.314 95.3147 227.938 95.704C228.562 96.088 229.04 96.624 229.37 97.312C229.706 97.9947 229.874 98.7813 229.874 99.672C229.874 100.573 229.706 101.368 229.37 102.056C229.034 102.739 228.554 103.275 227.93 103.664C227.306 104.048 226.565 104.24 225.706 104.24ZM225.706 102.888C226.602 102.888 227.269 102.589 227.706 101.992C228.144 101.395 228.362 100.621 228.362 99.672C228.362 98.696 228.141 97.92 227.698 97.344C227.256 96.7627 226.592 96.472 225.706 96.472C225.104 96.472 224.608 96.608 224.218 96.88C223.829 97.152 223.538 97.528 223.346 98.008C223.154 98.488 223.058 99.0427 223.058 99.672C223.058 100.643 223.282 101.421 223.73 102.008C224.178 102.595 224.837 102.888 225.706 102.888ZM231.796 93.832V92.36H233.22V93.832H231.796ZM231.796 104V95.36H233.22V104H231.796ZM239.26 104.24C238.385 104.24 237.641 104.045 237.028 103.656C236.42 103.261 235.956 102.72 235.636 102.032C235.316 101.344 235.151 100.56 235.14 99.68C235.151 98.7787 235.319 97.9867 235.644 97.304C235.975 96.616 236.447 96.08 237.06 95.696C237.673 95.312 238.412 95.12 239.276 95.12C240.188 95.12 240.972 95.344 241.628 95.792C242.289 96.24 242.732 96.8533 242.956 97.632L241.548 98.056C241.367 97.5547 241.071 97.1653 240.66 96.888C240.255 96.6107 239.788 96.472 239.26 96.472C238.668 96.472 238.18 96.6107 237.796 96.888C237.412 97.16 237.127 97.5387 236.94 98.024C236.753 98.504 236.657 99.056 236.652 99.68C236.663 100.64 236.884 101.416 237.316 102.008C237.753 102.595 238.401 102.888 239.26 102.888C239.825 102.888 240.295 102.76 240.668 102.504C241.041 102.243 241.324 101.867 241.516 101.376L242.956 101.752C242.657 102.557 242.191 103.173 241.556 103.6C240.921 104.027 240.156 104.24 239.26 104.24ZM248.098 104.24C247.25 104.24 246.509 104.053 245.874 103.68C245.245 103.301 244.754 102.776 244.402 102.104C244.05 101.427 243.874 100.637 243.874 99.736C243.874 98.792 244.048 97.976 244.394 97.288C244.741 96.5947 245.224 96.0613 245.842 95.688C246.466 95.3093 247.197 95.12 248.034 95.12C248.904 95.12 249.642 95.32 250.25 95.72C250.864 96.12 251.322 96.6907 251.626 97.432C251.936 98.1733 252.069 99.056 252.026 100.08H250.586V99.568C250.57 98.5067 250.354 97.7147 249.938 97.192C249.522 96.664 248.904 96.4 248.082 96.4C247.202 96.4 246.533 96.6827 246.074 97.248C245.616 97.8133 245.386 98.624 245.386 99.68C245.386 100.699 245.616 101.488 246.074 102.048C246.533 102.608 247.186 102.888 248.034 102.888C248.605 102.888 249.101 102.757 249.522 102.496C249.944 102.235 250.274 101.859 250.514 101.368L251.882 101.84C251.546 102.603 251.04 103.195 250.362 103.616C249.69 104.032 248.936 104.24 248.098 104.24ZM244.906 100.08V98.936H251.29V100.08H244.906ZM260.651 104.24C259.776 104.24 259.032 104.045 258.419 103.656C257.811 103.261 257.347 102.72 257.027 102.032C256.707 101.344 256.541 100.56 256.531 99.68C256.541 98.7787 256.709 97.9867 257.035 97.304C257.365 96.616 257.837 96.08 258.451 95.696C259.064 95.312 259.803 95.12 260.667 95.12C261.579 95.12 262.363 95.344 263.019 95.792C263.68 96.24 264.123 96.8533 264.347 97.632L262.939 98.056C262.757 97.5547 262.461 97.1653 262.051 96.888C261.645 96.6107 261.179 96.472 260.651 96.472C260.059 96.472 259.571 96.6107 259.187 96.888C258.803 97.16 258.517 97.5387 258.331 98.024C258.144 98.504 258.048 99.056 258.043 99.68C258.053 100.64 258.275 101.416 258.707 102.008C259.144 102.595 259.792 102.888 260.651 102.888C261.216 102.888 261.685 102.76 262.059 102.504C262.432 102.243 262.715 101.867 262.907 101.376L264.347 101.752C264.048 102.557 263.581 103.173 262.947 103.6C262.312 104.027 261.547 104.24 260.651 104.24ZM268.357 104.24C267.712 104.24 267.171 104.123 266.733 103.888C266.301 103.648 265.973 103.333 265.749 102.944C265.531 102.555 265.421 102.128 265.421 101.664C265.421 101.211 265.507 100.819 265.677 100.488C265.853 100.152 266.099 99.8747 266.413 99.656C266.728 99.432 267.104 99.256 267.541 99.128C267.952 99.016 268.411 98.92 268.917 98.84C269.429 98.7547 269.947 98.6773 270.469 98.608C270.992 98.5387 271.48 98.472 271.933 98.408L271.421 98.704C271.437 97.936 271.283 97.368 270.957 97C270.637 96.632 270.083 96.448 269.293 96.448C268.771 96.448 268.312 96.568 267.917 96.808C267.528 97.0427 267.253 97.4267 267.093 97.96L265.741 97.552C265.949 96.7947 266.352 96.2 266.949 95.768C267.547 95.336 268.333 95.12 269.309 95.12C270.093 95.12 270.765 95.2613 271.325 95.544C271.891 95.8213 272.296 96.2427 272.541 96.808C272.664 97.0747 272.741 97.3653 272.773 97.68C272.805 97.9893 272.821 98.3147 272.821 98.656V104H271.557V101.928L271.853 102.12C271.528 102.819 271.072 103.347 270.485 103.704C269.904 104.061 269.195 104.24 268.357 104.24ZM268.573 103.048C269.085 103.048 269.528 102.957 269.901 102.776C270.28 102.589 270.584 102.347 270.813 102.048C271.043 101.744 271.192 101.413 271.261 101.056C271.341 100.789 271.384 100.493 271.389 100.168C271.4 99.8373 271.405 99.584 271.405 99.408L271.901 99.624C271.437 99.688 270.981 99.7493 270.533 99.808C270.085 99.8667 269.661 99.9307 269.261 100C268.861 100.064 268.501 100.141 268.181 100.232C267.947 100.307 267.725 100.403 267.517 100.52C267.315 100.637 267.149 100.789 267.021 100.976C266.899 101.157 266.837 101.384 266.837 101.656C266.837 101.891 266.896 102.115 267.013 102.328C267.136 102.541 267.323 102.715 267.573 102.848C267.829 102.981 268.163 103.048 268.573 103.048ZM275.061 104V92.24H276.485V104H275.061ZM279.046 104V92.24H280.47V104H279.046ZM283.03 93.832V92.36H284.454V93.832H283.03ZM283.03 104V95.36H284.454V104H283.03ZM293.006 104V99.672C293.006 99.2613 292.969 98.8667 292.894 98.488C292.825 98.1093 292.7 97.7707 292.518 97.472C292.342 97.168 292.102 96.928 291.798 96.752C291.5 96.576 291.121 96.488 290.662 96.488C290.305 96.488 289.98 96.5493 289.686 96.672C289.398 96.7893 289.15 96.9707 288.942 97.216C288.734 97.4613 288.572 97.7707 288.454 98.144C288.342 98.512 288.286 98.9467 288.286 99.448L287.35 99.16C287.35 98.3227 287.5 97.6053 287.798 97.008C288.102 96.4053 288.526 95.944 289.07 95.624C289.62 95.2987 290.265 95.136 291.006 95.136C291.566 95.136 292.044 95.224 292.438 95.4C292.833 95.576 293.161 95.8107 293.422 96.104C293.684 96.392 293.889 96.7173 294.038 97.08C294.188 97.4373 294.292 97.8027 294.35 98.176C294.414 98.544 294.446 98.8933 294.446 99.224V104H293.006ZM286.846 104V95.36H288.126V97.672H288.286V104H286.846ZM300.022 108.08C299.569 108.08 299.126 108.011 298.694 107.872C298.262 107.733 297.865 107.523 297.502 107.24C297.145 106.963 296.846 106.611 296.606 106.184L297.91 105.496C298.124 105.917 298.425 106.224 298.814 106.416C299.209 106.608 299.614 106.704 300.03 106.704C300.58 106.704 301.036 106.603 301.398 106.4C301.761 106.203 302.028 105.907 302.198 105.512C302.374 105.117 302.46 104.627 302.454 104.04V101.68H302.622V95.36H303.886V104.056C303.886 104.291 303.878 104.517 303.862 104.736C303.852 104.955 303.825 105.171 303.782 105.384C303.67 105.997 303.449 106.501 303.118 106.896C302.788 107.296 302.361 107.592 301.838 107.784C301.316 107.981 300.71 108.08 300.022 108.08ZM299.918 104.24C299.113 104.24 298.422 104.04 297.846 103.64C297.27 103.235 296.825 102.688 296.51 102C296.201 101.312 296.046 100.536 296.046 99.672C296.046 98.808 296.201 98.032 296.51 97.344C296.825 96.656 297.27 96.1147 297.846 95.72C298.422 95.32 299.11 95.12 299.91 95.12C300.726 95.12 301.412 95.3173 301.966 95.712C302.521 96.1067 302.94 96.648 303.222 97.336C303.51 98.024 303.654 98.8027 303.654 99.672C303.654 100.531 303.51 101.307 303.222 102C302.94 102.688 302.521 103.235 301.966 103.64C301.412 104.04 300.729 104.24 299.918 104.24ZM300.094 102.936C300.676 102.936 301.153 102.797 301.526 102.52C301.9 102.237 302.174 101.851 302.35 101.36C302.532 100.864 302.622 100.301 302.622 99.672C302.622 99.032 302.532 98.4693 302.35 97.984C302.174 97.4933 301.902 97.112 301.534 96.84C301.166 96.5627 300.7 96.424 300.134 96.424C299.548 96.424 299.062 96.568 298.678 96.856C298.3 97.144 298.017 97.5333 297.83 98.024C297.649 98.5147 297.558 99.064 297.558 99.672C297.558 100.285 297.652 100.84 297.838 101.336C298.025 101.827 298.305 102.216 298.678 102.504C299.057 102.792 299.529 102.936 300.094 102.936Z" fill="#212528"/>
</g>
<path d="M257.5 189C257.5 189.552 257.948 190 258.5 190C259.052 190 259.5 189.552 259.5 189H257.5ZM259.207 120.293C258.817 119.902 258.183 119.902 257.793 120.293L251.429 126.657C251.038 127.047 251.038 127.681 251.429 128.071C251.819 128.462 252.453 128.462 252.843 128.071L258.5 122.414L264.157 128.071C264.547 128.462 265.181 128.462 265.571 128.071C265.962 127.681 265.962 127.047 265.571 126.657L259.207 120.293ZM259.5 189V121H257.5V189H259.5Z" fill="#B3B3B3"/>
<g filter="url(#filter3_d_2076_27985)">
<rect x="421" y="181" width="159" height="60" rx="24" fill="white" shape-rendering="crispEdges"/>
<path d="M442.458 206.24C441.642 206.24 440.906 206.101 440.25 205.824C439.599 205.547 439.061 205.152 438.634 204.64C438.213 204.123 437.938 203.512 437.81 202.808L439.282 202.576C439.469 203.301 439.855 203.869 440.442 204.28C441.034 204.685 441.73 204.888 442.53 204.888C443.047 204.888 443.514 204.808 443.93 204.648C444.351 204.483 444.685 204.248 444.93 203.944C445.175 203.64 445.298 203.28 445.298 202.864C445.298 202.608 445.253 202.389 445.162 202.208C445.077 202.021 444.957 201.864 444.802 201.736C444.653 201.603 444.482 201.491 444.29 201.4C444.098 201.309 443.898 201.235 443.69 201.176L440.754 200.304C440.434 200.208 440.125 200.088 439.826 199.944C439.527 199.795 439.261 199.611 439.026 199.392C438.791 199.168 438.605 198.901 438.466 198.592C438.327 198.277 438.258 197.907 438.258 197.48C438.258 196.797 438.434 196.216 438.786 195.736C439.143 195.251 439.626 194.88 440.234 194.624C440.842 194.368 441.527 194.243 442.29 194.248C443.063 194.253 443.754 194.392 444.362 194.664C444.975 194.931 445.482 195.315 445.882 195.816C446.287 196.317 446.559 196.917 446.698 197.616L445.186 197.88C445.106 197.411 444.927 197.008 444.65 196.672C444.378 196.331 444.037 196.069 443.626 195.888C443.215 195.701 442.765 195.605 442.274 195.6C441.805 195.595 441.381 195.669 441.002 195.824C440.623 195.979 440.322 196.195 440.098 196.472C439.874 196.744 439.762 197.059 439.762 197.416C439.762 197.768 439.863 198.053 440.066 198.272C440.269 198.485 440.517 198.656 440.81 198.784C441.109 198.907 441.399 199.008 441.682 199.088L443.874 199.72C444.125 199.789 444.413 199.885 444.738 200.008C445.069 200.131 445.389 200.304 445.698 200.528C446.007 200.747 446.263 201.04 446.466 201.408C446.669 201.771 446.77 202.229 446.77 202.784C446.77 203.339 446.658 203.832 446.434 204.264C446.215 204.696 445.909 205.059 445.514 205.352C445.119 205.64 444.661 205.859 444.138 206.008C443.615 206.163 443.055 206.24 442.458 206.24ZM452.088 206.24C451.213 206.24 450.469 206.045 449.856 205.656C449.248 205.261 448.784 204.72 448.464 204.032C448.144 203.344 447.979 202.56 447.968 201.68C447.979 200.779 448.147 199.987 448.472 199.304C448.803 198.616 449.275 198.08 449.888 197.696C450.501 197.312 451.24 197.12 452.104 197.12C453.016 197.12 453.8 197.344 454.456 197.792C455.117 198.24 455.56 198.853 455.784 199.632L454.376 200.056C454.195 199.555 453.899 199.165 453.488 198.888C453.083 198.611 452.616 198.472 452.088 198.472C451.496 198.472 451.008 198.611 450.624 198.888C450.24 199.16 449.955 199.539 449.768 200.024C449.581 200.504 449.485 201.056 449.48 201.68C449.491 202.64 449.712 203.416 450.144 204.008C450.581 204.595 451.229 204.888 452.088 204.888C452.653 204.888 453.123 204.76 453.496 204.504C453.869 204.243 454.152 203.867 454.344 203.376L455.784 203.752C455.485 204.557 455.019 205.173 454.384 205.6C453.749 206.027 452.984 206.24 452.088 206.24ZM457.417 206V197.36H458.689V199.448L458.481 199.176C458.582 198.909 458.713 198.664 458.873 198.44C459.038 198.216 459.222 198.032 459.425 197.888C459.649 197.707 459.902 197.568 460.185 197.472C460.468 197.376 460.756 197.32 461.049 197.304C461.342 197.283 461.617 197.301 461.873 197.36V198.696C461.574 198.616 461.246 198.595 460.889 198.632C460.532 198.669 460.201 198.8 459.897 199.024C459.62 199.221 459.404 199.461 459.249 199.744C459.1 200.027 458.996 200.333 458.937 200.664C458.878 200.989 458.849 201.323 458.849 201.664V206H457.417ZM466.973 206.24C466.125 206.24 465.384 206.053 464.749 205.68C464.12 205.301 463.629 204.776 463.277 204.104C462.925 203.427 462.749 202.637 462.749 201.736C462.749 200.792 462.923 199.976 463.269 199.288C463.616 198.595 464.099 198.061 464.717 197.688C465.341 197.309 466.072 197.12 466.909 197.12C467.779 197.12 468.517 197.32 469.125 197.72C469.739 198.12 470.197 198.691 470.501 199.432C470.811 200.173 470.944 201.056 470.901 202.08H469.461V201.568C469.445 200.507 469.229 199.715 468.813 199.192C468.397 198.664 467.779 198.4 466.957 198.4C466.077 198.4 465.408 198.683 464.949 199.248C464.491 199.813 464.261 200.624 464.261 201.68C464.261 202.699 464.491 203.488 464.949 204.048C465.408 204.608 466.061 204.888 466.909 204.888C467.48 204.888 467.976 204.757 468.397 204.496C468.819 204.235 469.149 203.859 469.389 203.368L470.757 203.84C470.421 204.603 469.915 205.195 469.237 205.616C468.565 206.032 467.811 206.24 466.973 206.24ZM463.781 202.08V200.936H470.165V202.08H463.781ZM476.427 206.24C475.579 206.24 474.837 206.053 474.203 205.68C473.573 205.301 473.083 204.776 472.731 204.104C472.379 203.427 472.203 202.637 472.203 201.736C472.203 200.792 472.376 199.976 472.723 199.288C473.069 198.595 473.552 198.061 474.171 197.688C474.795 197.309 475.525 197.12 476.363 197.12C477.232 197.12 477.971 197.32 478.579 197.72C479.192 198.12 479.651 198.691 479.955 199.432C480.264 200.173 480.397 201.056 480.355 202.08H478.915V201.568C478.899 200.507 478.683 199.715 478.267 199.192C477.851 198.664 477.232 198.4 476.411 198.4C475.531 198.4 474.861 198.683 474.403 199.248C473.944 199.813 473.715 200.624 473.715 201.68C473.715 202.699 473.944 203.488 474.403 204.048C474.861 204.608 475.515 204.888 476.363 204.888C476.933 204.888 477.429 204.757 477.851 204.496C478.272 204.235 478.603 203.859 478.843 203.368L480.211 203.84C479.875 204.603 479.368 205.195 478.691 205.616C478.019 206.032 477.264 206.24 476.427 206.24ZM473.235 202.08V200.936H479.619V202.08H473.235ZM488.053 206V201.672C488.053 201.261 488.016 200.867 487.941 200.488C487.872 200.109 487.747 199.771 487.565 199.472C487.389 199.168 487.149 198.928 486.845 198.752C486.547 198.576 486.168 198.488 485.709 198.488C485.352 198.488 485.027 198.549 484.733 198.672C484.445 198.789 484.197 198.971 483.989 199.216C483.781 199.461 483.619 199.771 483.501 200.144C483.389 200.512 483.333 200.947 483.333 201.448L482.397 201.16C482.397 200.323 482.547 199.605 482.845 199.008C483.149 198.405 483.573 197.944 484.117 197.624C484.667 197.299 485.312 197.136 486.053 197.136C486.613 197.136 487.091 197.224 487.485 197.4C487.88 197.576 488.208 197.811 488.469 198.104C488.731 198.392 488.936 198.717 489.085 199.08C489.235 199.437 489.339 199.803 489.397 200.176C489.461 200.544 489.493 200.893 489.493 201.224V206H488.053ZM481.893 206V197.36H483.173V199.672H483.333V206H481.893ZM498.04 206.232C497.011 206.232 496.166 206.008 495.504 205.56C494.848 205.107 494.446 204.475 494.296 203.664L495.752 203.432C495.87 203.901 496.139 204.275 496.56 204.552C496.982 204.824 497.504 204.96 498.128 204.96C498.72 204.96 499.184 204.837 499.52 204.592C499.856 204.347 500.024 204.013 500.024 203.592C500.024 203.347 499.968 203.149 499.856 203C499.744 202.845 499.512 202.701 499.16 202.568C498.814 202.435 498.288 202.275 497.584 202.088C496.822 201.885 496.222 201.675 495.784 201.456C495.347 201.237 495.035 200.984 494.848 200.696C494.662 200.408 494.568 200.059 494.568 199.648C494.568 199.141 494.707 198.699 494.984 198.32C495.262 197.936 495.648 197.64 496.144 197.432C496.646 197.224 497.227 197.12 497.888 197.12C498.544 197.12 499.131 197.224 499.648 197.432C500.166 197.64 500.582 197.936 500.896 198.32C501.216 198.699 501.406 199.141 501.464 199.648L500.008 199.912C499.939 199.448 499.715 199.083 499.336 198.816C498.963 198.549 498.48 198.408 497.888 198.392C497.328 198.371 496.872 198.469 496.52 198.688C496.174 198.907 496 199.203 496 199.576C496 199.784 496.064 199.963 496.192 200.112C496.326 200.261 496.568 200.403 496.92 200.536C497.278 200.669 497.795 200.821 498.472 200.992C499.235 201.184 499.835 201.395 500.272 201.624C500.715 201.848 501.03 202.115 501.216 202.424C501.403 202.728 501.496 203.104 501.496 203.552C501.496 204.384 501.19 205.04 500.576 205.52C499.963 205.995 499.118 206.232 498.04 206.232ZM509.413 206V201.672C509.413 201.261 509.375 200.867 509.301 200.488C509.231 200.109 509.106 199.771 508.925 199.472C508.749 199.168 508.509 198.928 508.205 198.752C507.906 198.576 507.527 198.488 507.069 198.488C506.711 198.488 506.386 198.549 506.093 198.672C505.805 198.789 505.557 198.971 505.349 199.216C505.141 199.461 504.978 199.771 504.861 200.144C504.749 200.512 504.693 200.947 504.693 201.448L503.757 201.16C503.757 200.323 503.906 199.605 504.205 199.008C504.509 198.405 504.933 197.944 505.477 197.624C506.026 197.299 506.671 197.136 507.413 197.136C507.973 197.136 508.45 197.224 508.845 197.4C509.239 197.576 509.567 197.811 509.829 198.104C510.09 198.392 510.295 198.717 510.445 199.08C510.594 199.437 510.698 199.803 510.757 200.176C510.821 200.544 510.853 200.893 510.853 201.224V206H509.413ZM503.253 206V194.48H504.533V200.84H504.693V206H503.253ZM515.389 206.24C514.743 206.24 514.202 206.123 513.765 205.888C513.333 205.648 513.005 205.333 512.781 204.944C512.562 204.555 512.453 204.128 512.453 203.664C512.453 203.211 512.538 202.819 512.709 202.488C512.885 202.152 513.13 201.875 513.445 201.656C513.759 201.432 514.135 201.256 514.573 201.128C514.983 201.016 515.442 200.92 515.949 200.84C516.461 200.755 516.978 200.677 517.501 200.608C518.023 200.539 518.511 200.472 518.965 200.408L518.453 200.704C518.469 199.936 518.314 199.368 517.989 199C517.669 198.632 517.114 198.448 516.325 198.448C515.802 198.448 515.343 198.568 514.949 198.808C514.559 199.043 514.285 199.427 514.125 199.96L512.773 199.552C512.981 198.795 513.383 198.2 513.981 197.768C514.578 197.336 515.365 197.12 516.341 197.12C517.125 197.12 517.797 197.261 518.357 197.544C518.922 197.821 519.327 198.243 519.573 198.808C519.695 199.075 519.773 199.365 519.805 199.68C519.837 199.989 519.852 200.315 519.852 200.656V206H518.589V203.928L518.885 204.12C518.559 204.819 518.103 205.347 517.517 205.704C516.935 206.061 516.226 206.24 515.389 206.24ZM515.605 205.048C516.117 205.048 516.559 204.957 516.933 204.776C517.311 204.589 517.615 204.347 517.845 204.048C518.074 203.744 518.223 203.413 518.293 203.056C518.373 202.789 518.415 202.493 518.421 202.168C518.431 201.837 518.437 201.584 518.437 201.408L518.933 201.624C518.469 201.688 518.013 201.749 517.565 201.808C517.117 201.867 516.693 201.931 516.293 202C515.893 202.064 515.533 202.141 515.213 202.232C514.978 202.307 514.757 202.403 514.549 202.52C514.346 202.637 514.181 202.789 514.053 202.976C513.93 203.157 513.868 203.384 513.868 203.656C513.868 203.891 513.927 204.115 514.045 204.328C514.167 204.541 514.354 204.715 514.605 204.848C514.861 204.981 515.194 205.048 515.605 205.048ZM521.933 206V197.36H523.205V199.448L522.997 199.176C523.098 198.909 523.229 198.664 523.389 198.44C523.554 198.216 523.738 198.032 523.941 197.888C524.165 197.707 524.418 197.568 524.701 197.472C524.983 197.376 525.271 197.32 525.565 197.304C525.858 197.283 526.133 197.301 526.389 197.36V198.696C526.09 198.616 525.762 198.595 525.405 198.632C525.047 198.669 524.717 198.8 524.413 199.024C524.135 199.221 523.919 199.461 523.765 199.744C523.615 200.027 523.511 200.333 523.453 200.664C523.394 200.989 523.365 201.323 523.365 201.664V206H521.933ZM528.061 195.832V194.36H529.485V195.832H528.061ZM528.061 206V197.36H529.485V206H528.061ZM538.038 206V201.672C538.038 201.261 538 200.867 537.926 200.488C537.856 200.109 537.731 199.771 537.55 199.472C537.374 199.168 537.134 198.928 536.83 198.752C536.531 198.576 536.152 198.488 535.694 198.488C535.336 198.488 535.011 198.549 534.718 198.672C534.43 198.789 534.182 198.971 533.974 199.216C533.766 199.461 533.603 199.771 533.486 200.144C533.374 200.512 533.318 200.947 533.318 201.448L532.382 201.16C532.382 200.323 532.531 199.605 532.83 199.008C533.134 198.405 533.558 197.944 534.102 197.624C534.651 197.299 535.296 197.136 536.038 197.136C536.598 197.136 537.075 197.224 537.47 197.4C537.864 197.576 538.192 197.811 538.454 198.104C538.715 198.392 538.92 198.717 539.07 199.08C539.219 199.437 539.323 199.803 539.382 200.176C539.446 200.544 539.478 200.893 539.478 201.224V206H538.038ZM531.878 206V197.36H533.158V199.672H533.318V206H531.878ZM545.054 210.08C544.6 210.08 544.158 210.011 543.726 209.872C543.294 209.733 542.896 209.523 542.534 209.24C542.176 208.963 541.878 208.611 541.638 208.184L542.942 207.496C543.155 207.917 543.456 208.224 543.846 208.416C544.24 208.608 544.646 208.704 545.062 208.704C545.611 208.704 546.067 208.603 546.43 208.4C546.792 208.203 547.059 207.907 547.23 207.512C547.406 207.117 547.491 206.627 547.486 206.04V203.68H547.654V197.36H548.918V206.056C548.918 206.291 548.91 206.517 548.894 206.736C548.883 206.955 548.856 207.171 548.814 207.384C548.702 207.997 548.48 208.501 548.15 208.896C547.819 209.296 547.392 209.592 546.87 209.784C546.347 209.981 545.742 210.08 545.054 210.08ZM544.95 206.24C544.144 206.24 543.454 206.04 542.878 205.64C542.302 205.235 541.856 204.688 541.542 204C541.232 203.312 541.078 202.536 541.078 201.672C541.078 200.808 541.232 200.032 541.542 199.344C541.856 198.656 542.302 198.115 542.878 197.72C543.454 197.32 544.142 197.12 544.942 197.12C545.758 197.12 546.443 197.317 546.998 197.712C547.552 198.107 547.971 198.648 548.254 199.336C548.542 200.024 548.686 200.803 548.686 201.672C548.686 202.531 548.542 203.307 548.254 204C547.971 204.688 547.552 205.235 546.998 205.64C546.443 206.04 545.76 206.24 544.95 206.24ZM545.126 204.936C545.707 204.936 546.184 204.797 546.558 204.52C546.931 204.237 547.206 203.851 547.382 203.36C547.563 202.864 547.654 202.301 547.654 201.672C547.654 201.032 547.563 200.469 547.382 199.984C547.206 199.493 546.934 199.112 546.566 198.84C546.198 198.563 545.731 198.424 545.166 198.424C544.579 198.424 544.094 198.568 543.71 198.856C543.331 199.144 543.048 199.533 542.862 200.024C542.68 200.515 542.59 201.064 542.59 201.672C542.59 202.285 542.683 202.84 542.87 203.336C543.056 203.827 543.336 204.216 543.71 204.504C544.088 204.792 544.56 204.936 545.126 204.936ZM558.098 206.24C557.458 206.24 556.861 206.147 556.306 205.96C555.752 205.773 555.288 205.48 554.914 205.08C554.626 204.76 554.41 204.408 554.266 204.024C554.128 203.635 554.05 203.224 554.034 202.792C554.034 202.371 554.096 201.96 554.218 201.56C554.341 201.155 554.536 200.795 554.802 200.48C554.941 200.309 555.096 200.165 555.266 200.048C555.442 199.925 555.618 199.821 555.794 199.736C555.426 199.341 555.144 198.971 554.946 198.624C554.754 198.277 554.658 197.859 554.658 197.368C554.658 196.744 554.818 196.181 555.138 195.68C555.464 195.173 555.906 194.803 556.466 194.568C556.738 194.451 557.016 194.371 557.298 194.328C557.586 194.28 557.866 194.256 558.138 194.256C558.597 194.256 559.042 194.32 559.474 194.448C559.906 194.576 560.274 194.784 560.578 195.072C560.781 195.243 560.954 195.44 561.098 195.664C561.242 195.883 561.354 196.112 561.434 196.352L560.042 196.712C559.941 196.44 559.773 196.211 559.538 196.024C559.352 195.864 559.133 195.755 558.882 195.696C558.637 195.637 558.389 195.608 558.138 195.608C557.722 195.608 557.346 195.688 557.01 195.848C556.712 195.992 556.488 196.195 556.338 196.456C556.189 196.712 556.114 197.016 556.114 197.368C556.114 197.672 556.165 197.923 556.266 198.12C556.373 198.312 556.52 198.517 556.706 198.736C556.818 198.853 556.944 198.979 557.082 199.112C557.226 199.24 557.373 199.373 557.522 199.512L560.914 202.664C560.93 202.531 560.941 202.395 560.946 202.256C560.952 202.117 560.954 201.984 560.954 201.856L560.946 200.264H562.25V202.136C562.25 202.515 562.237 202.837 562.21 203.104C562.189 203.371 562.152 203.592 562.098 203.768L563.562 205.12L562.634 206.112L561.418 204.96C561.21 205.195 560.962 205.4 560.674 205.576C560.386 205.752 560.098 205.885 559.81 205.976C559.538 206.077 559.258 206.147 558.97 206.184C558.682 206.221 558.392 206.24 558.098 206.24ZM558.13 204.872C558.392 204.872 558.629 204.856 558.842 204.824C559.056 204.792 559.258 204.731 559.45 204.64C559.706 204.517 559.904 204.4 560.042 204.288C560.181 204.176 560.296 204.072 560.386 203.976L556.874 200.76C556.682 200.824 556.501 200.909 556.33 201.016C556.165 201.123 556.021 201.248 555.898 201.392C555.76 201.563 555.656 201.763 555.586 201.992C555.522 202.221 555.49 202.464 555.49 202.72C555.496 202.992 555.541 203.243 555.626 203.472C555.712 203.701 555.832 203.907 555.986 204.088C556.221 204.36 556.538 204.56 556.938 204.688C557.338 204.811 557.736 204.872 558.13 204.872ZM478.26 228.24C477.385 228.24 476.641 228.045 476.028 227.656C475.42 227.261 474.956 226.72 474.636 226.032C474.316 225.344 474.151 224.56 474.14 223.68C474.151 222.779 474.319 221.987 474.644 221.304C474.975 220.616 475.447 220.08 476.06 219.696C476.673 219.312 477.412 219.12 478.276 219.12C479.188 219.12 479.972 219.344 480.628 219.792C481.289 220.24 481.732 220.853 481.956 221.632L480.548 222.056C480.367 221.555 480.071 221.165 479.66 220.888C479.255 220.611 478.788 220.472 478.26 220.472C477.668 220.472 477.18 220.611 476.796 220.888C476.412 221.16 476.127 221.539 475.94 222.024C475.753 222.504 475.657 223.056 475.652 223.68C475.663 224.64 475.884 225.416 476.316 226.008C476.753 226.595 477.401 226.888 478.26 226.888C478.825 226.888 479.295 226.76 479.668 226.504C480.041 226.243 480.324 225.867 480.516 225.376L481.956 225.752C481.657 226.557 481.191 227.173 480.556 227.6C479.921 228.027 479.156 228.24 478.26 228.24ZM487.034 228.24C486.176 228.24 485.434 228.045 484.81 227.656C484.192 227.267 483.714 226.728 483.378 226.04C483.042 225.352 482.874 224.563 482.874 223.672C482.874 222.765 483.045 221.971 483.386 221.288C483.728 220.605 484.21 220.075 484.834 219.696C485.458 219.312 486.192 219.12 487.034 219.12C487.898 219.12 488.642 219.315 489.266 219.704C489.89 220.088 490.368 220.624 490.698 221.312C491.034 221.995 491.202 222.781 491.202 223.672C491.202 224.573 491.034 225.368 490.698 226.056C490.362 226.739 489.882 227.275 489.258 227.664C488.634 228.048 487.893 228.24 487.034 228.24ZM487.034 226.888C487.93 226.888 488.597 226.589 489.034 225.992C489.472 225.395 489.69 224.621 489.69 223.672C489.69 222.696 489.469 221.92 489.026 221.344C488.584 220.763 487.92 220.472 487.034 220.472C486.432 220.472 485.936 220.608 485.546 220.88C485.157 221.152 484.866 221.528 484.674 222.008C484.482 222.488 484.386 223.043 484.386 223.672C484.386 224.643 484.61 225.421 485.058 226.008C485.506 226.595 486.165 226.888 487.034 226.888ZM499.116 228V223.672C499.116 223.261 499.078 222.867 499.004 222.488C498.934 222.109 498.809 221.771 498.628 221.472C498.452 221.168 498.212 220.928 497.908 220.752C497.609 220.576 497.23 220.488 496.772 220.488C496.414 220.488 496.089 220.549 495.796 220.672C495.508 220.789 495.26 220.971 495.052 221.216C494.844 221.461 494.681 221.771 494.564 222.144C494.452 222.512 494.396 222.947 494.396 223.448L493.46 223.16C493.46 222.323 493.609 221.605 493.908 221.008C494.212 220.405 494.636 219.944 495.18 219.624C495.729 219.299 496.374 219.136 497.116 219.136C497.676 219.136 498.153 219.224 498.548 219.4C498.942 219.576 499.27 219.811 499.532 220.104C499.793 220.392 499.998 220.717 500.148 221.08C500.297 221.437 500.401 221.803 500.46 222.176C500.524 222.544 500.556 222.893 500.556 223.224V228H499.116ZM492.956 228V219.36H494.236V221.672H494.396V228H492.956ZM507.46 228C506.948 228.101 506.441 228.141 505.94 228.12C505.444 228.104 505.001 228.005 504.612 227.824C504.222 227.637 503.926 227.349 503.724 226.96C503.553 226.619 503.46 226.275 503.444 225.928C503.433 225.576 503.428 225.179 503.428 224.736V216.96H504.852V224.672C504.852 225.024 504.854 225.325 504.86 225.576C504.87 225.827 504.926 226.043 505.028 226.224C505.22 226.565 505.524 226.765 505.94 226.824C506.361 226.883 506.868 226.867 507.46 226.776V228ZM501.676 220.536V219.36H507.46V220.536H501.676ZM509.214 228V219.36H510.486V221.448L510.278 221.176C510.379 220.909 510.51 220.664 510.67 220.44C510.835 220.216 511.019 220.032 511.222 219.888C511.446 219.707 511.699 219.568 511.982 219.472C512.264 219.376 512.552 219.32 512.846 219.304C513.139 219.283 513.414 219.301 513.67 219.36V220.696C513.371 220.616 513.043 220.595 512.686 220.632C512.328 220.669 511.998 220.8 511.694 221.024C511.416 221.221 511.2 221.461 511.046 221.744C510.896 222.027 510.792 222.333 510.734 222.664C510.675 222.989 510.646 223.323 510.646 223.664V228H509.214ZM518.706 228.24C517.848 228.24 517.106 228.045 516.482 227.656C515.864 227.267 515.386 226.728 515.05 226.04C514.714 225.352 514.546 224.563 514.546 223.672C514.546 222.765 514.717 221.971 515.058 221.288C515.4 220.605 515.882 220.075 516.506 219.696C517.13 219.312 517.864 219.12 518.706 219.12C519.57 219.12 520.314 219.315 520.938 219.704C521.562 220.088 522.04 220.624 522.37 221.312C522.706 221.995 522.874 222.781 522.874 223.672C522.874 224.573 522.706 225.368 522.37 226.056C522.034 226.739 521.554 227.275 520.93 227.664C520.306 228.048 519.565 228.24 518.706 228.24ZM518.706 226.888C519.602 226.888 520.269 226.589 520.706 225.992C521.144 225.395 521.362 224.621 521.362 223.672C521.362 222.696 521.141 221.92 520.698 221.344C520.256 220.763 519.592 220.472 518.706 220.472C518.104 220.472 517.608 220.608 517.218 220.88C516.829 221.152 516.538 221.528 516.346 222.008C516.154 222.488 516.058 223.043 516.058 223.672C516.058 224.643 516.282 225.421 516.73 226.008C517.178 226.595 517.837 226.888 518.706 226.888ZM524.796 228V216.24H526.22V228H524.796Z" fill="#212528"/>
</g>
<path d="M152.25 328.625V306.75C152.25 303.312 149.438 300.5 146 300.5H71C67.5625 300.5 64.75 303.312 64.75 306.75V369.25C64.75 372.688 67.5625 375.5 71 375.5H146C149.438 375.5 152.25 372.688 152.25 369.25V347.375L177.25 372.375V303.625L152.25 328.625ZM139.75 363H77.25V313H139.75V363ZM102.25 356.75H114.75V344.25H127.25V331.75H114.75V319.25H102.25V331.75H89.75V344.25H102.25V356.75Z" fill="#DBEAF6"/>
<path d="M537 128C542.5 128 546.95 123.5 546.95 118L547 68C547 62.45 542.5 58 537 58H457C451.45 58 447 62.45 447 68V118C447 123.5 451.45 128 457 128H437V138H557V128H537ZM457 118V68H537V118.05L457 118ZM502 83.65C482.55 86.35 474.8 99.65 472 113C478.95 103.65 488.1 99.4 502 99.4V110.35L522 91.65L502 73V83.65Z" fill="#DBEAF6"/>
<path d="M360.5 210C359.948 210 359.5 210.448 359.5 211C359.5 211.552 359.948 212 360.5 212V210ZM417.707 211.707C418.098 211.317 418.098 210.683 417.707 210.293L411.343 203.929C410.953 203.538 410.319 203.538 409.929 203.929C409.538 204.319 409.538 204.953 409.929 205.343L415.586 211L409.929 216.657C409.538 217.047 409.538 217.681 409.929 218.071C410.319 218.462 410.953 218.462 411.343 218.071L417.707 211.707ZM360.5 212H417V210H360.5V212Z" fill="#B3B3B3"/>
<defs>
<filter id="filter0_d_2076_27985" x="56" y="179" width="317" height="72" filterUnits="userSpaceOnUse" color-interpolation-filters="sRGB">
<feFlood flood-opacity="0" result="BackgroundImageFix"/>
<feColorMatrix in="SourceAlpha" type="matrix" values="0 0 0 0 0 0 0 0 0 0 0 0 0 0 0 0 0 0 127 0" result="hardAlpha"/>
<feOffset dy="4"/>
<feGaussianBlur stdDeviation="2"/>
<feComposite in2="hardAlpha" operator="out"/>
<feColorMatrix type="matrix" values="0 0 0 0 0 0 0 0 0 0 0 0 0 0 0 0 0 0 0.25 0"/>
<feBlend mode="normal" in2="BackgroundImageFix" result="effect1_dropShadow_2076_27985"/>
<feBlend mode="normal" in="SourceGraphic" in2="effect1_dropShadow_2076_27985" result="shape"/>
</filter>
<filter id="filter1_d_2076_27985" x="231" y="319" width="135" height="46" filterUnits="userSpaceOnUse" color-interpolation-filters="sRGB">
<feFlood flood-opacity="0" result="BackgroundImageFix"/>
<feColorMatrix in="SourceAlpha" type="matrix" values="0 0 0 0 0 0 0 0 0 0 0 0 0 0 0 0 0 0 127 0" result="hardAlpha"/>
<feOffset dy="4"/>
<feGaussianBlur stdDeviation="2"/>
<feComposite in2="hardAlpha" operator="out"/>
<feColorMatrix type="matrix" values="0 0 0 0 0 0 0 0 0 0 0 0 0 0 0 0 0 0 0.25 0"/>
<feBlend mode="normal" in2="BackgroundImageFix" result="effect1_dropShadow_2076_27985"/>
<feBlend mode="normal" in="SourceGraphic" in2="effect1_dropShadow_2076_27985" result="shape"/>
</filter>
<filter id="filter2_d_2076_27985" x="192" y="79" width="133" height="46" filterUnits="userSpaceOnUse" color-interpolation-filters="sRGB">
<feFlood flood-opacity="0" result="BackgroundImageFix"/>
<feColorMatrix in="SourceAlpha" type="matrix" values="0 0 0 0 0 0 0 0 0 0 0 0 0 0 0 0 0 0 127 0" result="hardAlpha"/>
<feOffset dy="4"/>
<feGaussianBlur stdDeviation="2"/>
<feComposite in2="hardAlpha" operator="out"/>
<feColorMatrix type="matrix" values="0 0 0 0 0 0 0 0 0 0 0 0 0 0 0 0 0 0 0.25 0"/>
<feBlend mode="normal" in2="BackgroundImageFix" result="effect1_dropShadow_2076_27985"/>
<feBlend mode="normal" in="SourceGraphic" in2="effect1_dropShadow_2076_27985" result="shape"/>
</filter>
<filter id="filter3_d_2076_27985" x="417" y="181" width="167" height="68" filterUnits="userSpaceOnUse" color-interpolation-filters="sRGB">
<feFlood flood-opacity="0" result="BackgroundImageFix"/>
<feColorMatrix in="SourceAlpha" type="matrix" values="0 0 0 0 0 0 0 0 0 0 0 0 0 0 0 0 0 0 127 0" result="hardAlpha"/>
<feOffset dy="4"/>
<feGaussianBlur stdDeviation="2"/>
<feComposite in2="hardAlpha" operator="out"/>
<feColorMatrix type="matrix" values="0 0 0 0 0 0 0 0 0 0 0 0 0 0 0 0 0 0 0.25 0"/>
<feBlend mode="normal" in2="BackgroundImageFix" result="effect1_dropShadow_2076_27985"/>
<feBlend mode="normal" in="SourceGraphic" in2="effect1_dropShadow_2076_27985" result="shape"/>
</filter>
<clipPath id="clip0_2076_27985">
<rect width="20" height="20" fill="white" transform="translate(328.5 201)"/>
</clipPath>
</defs>
</svg>
