<svg width="625" height="450" viewBox="0 0 625 450" fill="none" xmlns="http://www.w3.org/2000/svg">
<g filter="url(#filter0_d_2076_27756)">
<rect x="54.1875" y="237" width="100" height="32" rx="16" fill="#E2F0FF" shape-rendering="crispEdges"/>
<path d="M68.8115 258.71C67.8082 258.71 66.9565 258.488 66.2565 258.045C65.5565 257.602 65.0222 256.986 64.6535 256.197C64.2895 255.408 64.1075 254.496 64.1075 253.46C64.1075 252.424 64.2895 251.512 64.6535 250.723C65.0222 249.934 65.5565 249.318 66.2565 248.875C66.9565 248.432 67.8082 248.21 68.8115 248.21C69.9782 248.21 70.9372 248.506 71.6885 249.099C72.4445 249.692 72.9648 250.49 73.2495 251.493L71.9825 251.829C71.7772 251.078 71.4108 250.485 70.8835 250.051C70.3562 249.617 69.6655 249.4 68.8115 249.4C68.0602 249.4 67.4348 249.57 66.9355 249.911C66.4362 250.252 66.0605 250.728 65.8085 251.339C65.5565 251.946 65.4282 252.653 65.4235 253.46C65.4188 254.263 65.5425 254.97 65.7945 255.581C66.0465 256.188 66.4245 256.664 66.9285 257.009C67.4325 257.35 68.0602 257.52 68.8115 257.52C69.6655 257.52 70.3562 257.303 70.8835 256.869C71.4108 256.43 71.7772 255.838 71.9825 255.091L73.2495 255.427C72.9648 256.426 72.4445 257.224 71.6885 257.821C70.9372 258.414 69.9782 258.71 68.8115 258.71ZM80.1677 258.5V254.713C80.1677 254.354 80.135 254.008 80.0697 253.677C80.009 253.346 79.8994 253.049 79.7407 252.788C79.5867 252.522 79.3767 252.312 79.1107 252.158C78.8494 252.004 78.518 251.927 78.1167 251.927C77.804 251.927 77.5194 251.981 77.2627 252.088C77.0107 252.191 76.7937 252.349 76.6117 252.564C76.4297 252.779 76.2874 253.049 76.1847 253.376C76.0867 253.698 76.0377 254.078 76.0377 254.517L75.2187 254.265C75.2187 253.532 75.3494 252.905 75.6107 252.382C75.8767 251.855 76.2477 251.451 76.7237 251.171C77.2044 250.886 77.769 250.744 78.4177 250.744C78.9077 250.744 79.3254 250.821 79.6707 250.975C80.016 251.129 80.303 251.334 80.5317 251.591C80.7604 251.843 80.94 252.128 81.0707 252.445C81.2014 252.758 81.2924 253.077 81.3437 253.404C81.3997 253.726 81.4277 254.032 81.4277 254.321V258.5H80.1677ZM74.7777 258.5V248.42H75.8977V253.985H76.0377V258.5H74.7777ZM85.3966 258.71C84.8319 258.71 84.3582 258.607 83.9756 258.402C83.5976 258.192 83.3106 257.917 83.1146 257.576C82.9232 257.235 82.8276 256.862 82.8276 256.456C82.8276 256.059 82.9022 255.716 83.0516 255.427C83.2056 255.133 83.4202 254.89 83.6956 254.699C83.9709 254.503 84.2999 254.349 84.6826 254.237C85.0419 254.139 85.4432 254.055 85.8866 253.985C86.3346 253.91 86.7872 253.843 87.2446 253.782C87.7019 253.721 88.1289 253.663 88.5256 253.607L88.0776 253.866C88.0916 253.194 87.9562 252.697 87.6716 252.375C87.3916 252.053 86.9062 251.892 86.2156 251.892C85.7582 251.892 85.3569 251.997 85.0116 252.207C84.6709 252.412 84.4306 252.748 84.2906 253.215L83.1076 252.858C83.2896 252.195 83.6419 251.675 84.1646 251.297C84.6872 250.919 85.3756 250.73 86.2296 250.73C86.9156 250.73 87.5036 250.854 87.9936 251.101C88.4882 251.344 88.8429 251.712 89.0576 252.207C89.1649 252.44 89.2326 252.695 89.2606 252.97C89.2886 253.241 89.3026 253.525 89.3026 253.824V258.5H88.1966V256.687L88.4556 256.855C88.1709 257.466 87.7719 257.928 87.2586 258.241C86.7499 258.554 86.1292 258.71 85.3966 258.71ZM85.5856 257.667C86.0336 257.667 86.4209 257.588 86.7476 257.429C87.0789 257.266 87.3449 257.053 87.5456 256.792C87.7462 256.526 87.8769 256.237 87.9376 255.924C88.0076 255.691 88.0449 255.432 88.0496 255.147C88.0589 254.858 88.0636 254.636 88.0636 254.482L88.4976 254.671C88.0916 254.727 87.6926 254.781 87.3006 254.832C86.9086 254.883 86.5376 254.939 86.1876 255C85.8376 255.056 85.5226 255.124 85.2426 255.203C85.0372 255.268 84.8436 255.352 84.6616 255.455C84.4842 255.558 84.3396 255.691 84.2276 255.854C84.1202 256.013 84.0666 256.211 84.0666 256.449C84.0666 256.654 84.1179 256.85 84.2206 257.037C84.3279 257.224 84.4912 257.375 84.7106 257.492C84.9346 257.609 85.2262 257.667 85.5856 257.667ZM95.3436 258.5C94.8956 258.589 94.4522 258.624 94.0136 258.605C93.5796 258.591 93.1922 258.505 92.8516 258.346C92.5109 258.183 92.2519 257.931 92.0746 257.59C91.9252 257.291 91.8436 256.99 91.8296 256.687C91.8202 256.379 91.8156 256.031 91.8156 255.644V248.84H93.0616V255.588C93.0616 255.896 93.0639 256.16 93.0686 256.379C93.0779 256.598 93.1269 256.787 93.2156 256.946C93.3836 257.245 93.6496 257.42 94.0136 257.471C94.3822 257.522 94.8256 257.508 95.3436 257.429V258.5ZM90.2826 251.969V250.94H95.3436V251.969H90.2826ZM101.291 258.5L98.9812 250.933L100.22 250.94L101.907 256.47L103.608 250.94H104.707L106.401 256.47L108.095 250.94H109.327L107.017 258.5H105.981L104.154 252.753L102.327 258.5H101.291ZM110.731 249.603V248.315H111.977V249.603H110.731ZM110.731 258.5V250.94H111.977V258.5H110.731ZM117.046 258.71C116.341 258.71 115.737 258.535 115.233 258.185C114.729 257.83 114.339 257.352 114.064 256.75C113.793 256.148 113.658 255.469 113.658 254.713C113.658 253.957 113.793 253.278 114.064 252.676C114.339 252.074 114.729 251.6 115.233 251.255C115.737 250.905 116.339 250.73 117.039 250.73C117.753 250.73 118.352 250.903 118.838 251.248C119.323 251.593 119.689 252.067 119.937 252.669C120.189 253.271 120.315 253.952 120.315 254.713C120.315 255.464 120.189 256.143 119.937 256.75C119.689 257.352 119.323 257.83 118.838 258.185C118.352 258.535 117.755 258.71 117.046 258.71ZM117.2 257.569C117.708 257.569 118.126 257.448 118.453 257.205C118.779 256.958 119.02 256.619 119.174 256.19C119.332 255.756 119.412 255.264 119.412 254.713C119.412 254.153 119.332 253.661 119.174 253.236C119.02 252.807 118.782 252.473 118.46 252.235C118.138 251.992 117.729 251.871 117.235 251.871C116.721 251.871 116.297 251.997 115.961 252.249C115.629 252.501 115.382 252.842 115.219 253.271C115.06 253.7 114.981 254.181 114.981 254.713C114.981 255.25 115.062 255.735 115.226 256.169C115.389 256.598 115.634 256.939 115.961 257.191C116.292 257.443 116.705 257.569 117.2 257.569ZM119.412 258.5V252.935H119.272V248.42H120.525V258.5H119.412ZM125.545 262.07C125.148 262.07 124.761 262.009 124.383 261.888C124.005 261.767 123.657 261.582 123.34 261.335C123.027 261.092 122.766 260.784 122.556 260.411L123.697 259.809C123.884 260.178 124.147 260.446 124.488 260.614C124.833 260.782 125.188 260.866 125.552 260.866C126.033 260.866 126.432 260.777 126.749 260.6C127.066 260.427 127.3 260.168 127.449 259.823C127.603 259.478 127.678 259.048 127.673 258.535V256.47H127.82V250.94H128.926V258.549C128.926 258.754 128.919 258.953 128.905 259.144C128.896 259.335 128.872 259.524 128.835 259.711C128.737 260.248 128.543 260.689 128.254 261.034C127.965 261.384 127.591 261.643 127.134 261.811C126.677 261.984 126.147 262.07 125.545 262.07ZM125.454 258.71C124.749 258.71 124.145 258.535 123.641 258.185C123.137 257.83 122.747 257.352 122.472 256.75C122.201 256.148 122.066 255.469 122.066 254.713C122.066 253.957 122.201 253.278 122.472 252.676C122.747 252.074 123.137 251.6 123.641 251.255C124.145 250.905 124.747 250.73 125.447 250.73C126.161 250.73 126.761 250.903 127.246 251.248C127.731 251.593 128.098 252.067 128.345 252.669C128.597 253.271 128.723 253.952 128.723 254.713C128.723 255.464 128.597 256.143 128.345 256.75C128.098 257.352 127.731 257.83 127.246 258.185C126.761 258.535 126.163 258.71 125.454 258.71ZM125.608 257.569C126.117 257.569 126.534 257.448 126.861 257.205C127.188 256.958 127.428 256.619 127.582 256.19C127.741 255.756 127.82 255.264 127.82 254.713C127.82 254.153 127.741 253.661 127.582 253.236C127.428 252.807 127.19 252.473 126.868 252.235C126.546 251.992 126.138 251.871 125.643 251.871C125.13 251.871 124.705 251.997 124.369 252.249C124.038 252.501 123.79 252.842 123.627 253.271C123.468 253.7 123.389 254.181 123.389 254.713C123.389 255.25 123.471 255.735 123.634 256.169C123.797 256.598 124.042 256.939 124.369 257.191C124.7 257.443 125.113 257.569 125.608 257.569ZM134.156 258.71C133.414 258.71 132.766 258.547 132.21 258.22C131.66 257.889 131.23 257.429 130.922 256.841C130.614 256.248 130.46 255.558 130.46 254.769C130.46 253.943 130.612 253.229 130.915 252.627C131.219 252.02 131.641 251.554 132.182 251.227C132.728 250.896 133.368 250.73 134.1 250.73C134.861 250.73 135.507 250.905 136.039 251.255C136.576 251.605 136.977 252.104 137.243 252.753C137.514 253.402 137.631 254.174 137.593 255.07H136.333V254.622C136.319 253.693 136.13 253 135.766 252.543C135.402 252.081 134.861 251.85 134.142 251.85C133.372 251.85 132.787 252.097 132.385 252.592C131.984 253.087 131.783 253.796 131.783 254.72C131.783 255.611 131.984 256.302 132.385 256.792C132.787 257.282 133.358 257.527 134.1 257.527C134.6 257.527 135.034 257.413 135.402 257.184C135.771 256.955 136.06 256.626 136.27 256.197L137.467 256.61C137.173 257.277 136.73 257.795 136.137 258.164C135.549 258.528 134.889 258.71 134.156 258.71ZM131.363 255.07V254.069H136.949V255.07H131.363ZM143.373 258.5C142.925 258.589 142.482 258.624 142.043 258.605C141.609 258.591 141.222 258.505 140.881 258.346C140.54 258.183 140.281 257.931 140.104 257.59C139.955 257.291 139.873 256.99 139.859 256.687C139.85 256.379 139.845 256.031 139.845 255.644V248.84H141.091V255.588C141.091 255.896 141.093 256.16 141.098 256.379C141.107 256.598 141.156 256.787 141.245 256.946C141.413 257.245 141.679 257.42 142.043 257.471C142.412 257.522 142.855 257.508 143.373 257.429V258.5ZM138.312 251.969V250.94H143.373V251.969H138.312Z" fill="#212528"/>
</g>
<g filter="url(#filter1_d_2076_27756)">
<rect x="74.1875" y="277" width="60" height="60" rx="7.875" fill="#E2F0FF"/>
<g clip-path="url(#clip0_2076_27756)">
<path d="M108.125 298.469V307.656H95.2231L94.4487 308.431L93.6875 309.192V298.469H108.125ZM109.437 295.844H92.375C91.6531 295.844 91.0625 296.434 91.0625 297.156V315.531L96.3125 310.281H109.437C110.159 310.281 110.75 309.691 110.75 308.969V297.156C110.75 296.434 110.159 295.844 109.437 295.844ZM116 301.094H113.375V312.906H96.3125V315.531C96.3125 316.253 96.9031 316.844 97.625 316.844H112.062L117.312 322.094V302.406C117.312 301.684 116.722 301.094 116 301.094Z" fill="#1E75BA"/>
</g>
</g>
<g filter="url(#filter2_d_2076_27756)">
<rect x="178.438" y="113" width="60" height="60" rx="7.875" fill="#F9EAE5"/>
<path d="M195.312 136.625C195.312 135.072 196.488 133.812 197.938 133.812H218.938C220.387 133.812 221.563 135.072 221.563 136.625V150.688C221.563 152.241 220.387 153.5 218.938 153.5H197.938C196.488 153.5 195.312 152.241 195.312 150.688V136.625Z" fill="#8C2E0E"/>
<path d="M195.312 135.321C195.312 133.763 196.402 132.5 197.746 132.5H219.129C220.473 132.5 221.563 133.763 221.563 135.321C221.563 136.389 221.042 137.366 220.217 137.844L209.611 143.991C208.872 144.419 208.003 144.419 207.264 143.991L196.658 137.844C195.833 137.366 195.312 136.389 195.312 135.321Z" fill="#CC5229"/>
</g>
<g filter="url(#filter3_d_2076_27756)">
<rect x="158.438" y="181" width="100" height="32" rx="16" fill="#F9EAE5" shape-rendering="crispEdges"/>
<path d="M191.418 202.5V192.42H197.788V193.603H192.664V196.76H196.948V197.943H192.664V201.317H197.788V202.5H191.418ZM208.507 202.5L208.514 197.663C208.514 197.098 208.363 196.657 208.059 196.34C207.761 196.018 207.371 195.857 206.89 195.857C206.61 195.857 206.344 195.922 206.092 196.053C205.84 196.179 205.635 196.38 205.476 196.655C205.318 196.926 205.238 197.273 205.238 197.698L204.58 197.432C204.571 196.895 204.681 196.426 204.909 196.025C205.143 195.619 205.46 195.304 205.861 195.08C206.263 194.856 206.715 194.744 207.219 194.744C208.008 194.744 208.629 194.984 209.081 195.465C209.534 195.941 209.76 196.583 209.76 197.39L209.753 202.5H208.507ZM199.463 202.5V194.94H200.576V196.963H200.716V202.5H199.463ZM203.992 202.5L203.999 197.712C203.999 197.133 203.85 196.681 203.551 196.354C203.253 196.023 202.856 195.857 202.361 195.857C201.871 195.857 201.475 196.025 201.171 196.361C200.868 196.697 200.716 197.143 200.716 197.698L200.058 197.306C200.058 196.816 200.175 196.377 200.408 195.99C200.642 195.603 200.959 195.299 201.36 195.08C201.762 194.856 202.217 194.744 202.725 194.744C203.234 194.744 203.677 194.851 204.055 195.066C204.433 195.281 204.725 195.589 204.93 195.99C205.136 196.387 205.238 196.86 205.238 197.411L205.231 202.5H203.992ZM213.733 202.71C213.168 202.71 212.694 202.607 212.312 202.402C211.934 202.192 211.647 201.917 211.451 201.576C211.259 201.235 211.164 200.862 211.164 200.456C211.164 200.059 211.238 199.716 211.388 199.427C211.542 199.133 211.756 198.89 212.032 198.699C212.307 198.503 212.636 198.349 213.019 198.237C213.378 198.139 213.779 198.055 214.223 197.985C214.671 197.91 215.123 197.843 215.581 197.782C216.038 197.721 216.465 197.663 216.862 197.607L216.414 197.866C216.428 197.194 216.292 196.697 216.008 196.375C215.728 196.053 215.242 195.892 214.552 195.892C214.094 195.892 213.693 195.997 213.348 196.207C213.007 196.412 212.767 196.748 212.627 197.215L211.444 196.858C211.626 196.195 211.978 195.675 212.501 195.297C213.023 194.919 213.712 194.73 214.566 194.73C215.252 194.73 215.84 194.854 216.33 195.101C216.824 195.344 217.179 195.712 217.394 196.207C217.501 196.44 217.569 196.695 217.597 196.97C217.625 197.241 217.639 197.525 217.639 197.824V202.5H216.533V200.687L216.792 200.855C216.507 201.466 216.108 201.928 215.595 202.241C215.086 202.554 214.465 202.71 213.733 202.71ZM213.922 201.667C214.37 201.667 214.757 201.588 215.084 201.429C215.415 201.266 215.681 201.053 215.882 200.792C216.082 200.526 216.213 200.237 216.274 199.924C216.344 199.691 216.381 199.432 216.386 199.147C216.395 198.858 216.4 198.636 216.4 198.482L216.834 198.671C216.428 198.727 216.029 198.781 215.637 198.832C215.245 198.883 214.874 198.939 214.524 199C214.174 199.056 213.859 199.124 213.579 199.203C213.373 199.268 213.18 199.352 212.998 199.455C212.82 199.558 212.676 199.691 212.564 199.854C212.456 200.013 212.403 200.211 212.403 200.449C212.403 200.654 212.454 200.85 212.557 201.037C212.664 201.224 212.827 201.375 213.047 201.492C213.271 201.609 213.562 201.667 213.922 201.667ZM219.599 193.603V192.315H220.845V193.603H219.599ZM219.599 202.5V194.94H220.845V202.5H219.599ZM223.085 202.5V192.21H224.331V202.5H223.085Z" fill="#212528"/>
</g>
<g filter="url(#filter4_d_2076_27756)">
<rect x="262.688" y="237" width="100" height="32" rx="16" fill="#EDEDFD" shape-rendering="crispEdges"/>
<path d="M298.132 258.5L294.758 248.42H296.053L298.986 257.177L301.947 248.42H303.242L299.868 258.5H298.132ZM306.68 258.71C305.929 258.71 305.28 258.54 304.734 258.199C304.193 257.858 303.775 257.387 303.481 256.785C303.187 256.183 303.04 255.492 303.04 254.713C303.04 253.92 303.19 253.224 303.488 252.627C303.787 252.03 304.209 251.565 304.755 251.234C305.301 250.898 305.943 250.73 306.68 250.73C307.436 250.73 308.087 250.9 308.633 251.241C309.179 251.577 309.597 252.046 309.886 252.648C310.18 253.245 310.327 253.934 310.327 254.713C310.327 255.502 310.18 256.197 309.886 256.799C309.592 257.396 309.172 257.865 308.626 258.206C308.08 258.542 307.432 258.71 306.68 258.71ZM306.68 257.527C307.464 257.527 308.048 257.266 308.43 256.743C308.813 256.22 309.004 255.544 309.004 254.713C309.004 253.859 308.811 253.18 308.423 252.676C308.036 252.167 307.455 251.913 306.68 251.913C306.153 251.913 305.719 252.032 305.378 252.27C305.038 252.508 304.783 252.837 304.615 253.257C304.447 253.677 304.363 254.162 304.363 254.713C304.363 255.562 304.559 256.244 304.951 256.757C305.343 257.27 305.92 257.527 306.68 257.527ZM312.009 249.603V248.315H313.255V249.603H312.009ZM312.009 258.5V250.94H313.255V258.5H312.009ZM318.54 258.71C317.775 258.71 317.124 258.54 316.587 258.199C316.055 257.854 315.649 257.38 315.369 256.778C315.089 256.176 314.944 255.49 314.935 254.72C314.944 253.931 315.091 253.238 315.376 252.641C315.665 252.039 316.078 251.57 316.615 251.234C317.152 250.898 317.798 250.73 318.554 250.73C319.352 250.73 320.038 250.926 320.612 251.318C321.191 251.71 321.578 252.247 321.774 252.928L320.542 253.299C320.383 252.86 320.124 252.52 319.765 252.277C319.41 252.034 319.002 251.913 318.54 251.913C318.022 251.913 317.595 252.034 317.259 252.277C316.923 252.515 316.673 252.846 316.51 253.271C316.347 253.691 316.263 254.174 316.258 254.72C316.267 255.56 316.461 256.239 316.839 256.757C317.222 257.27 317.789 257.527 318.54 257.527C319.035 257.527 319.445 257.415 319.772 257.191C320.099 256.962 320.346 256.633 320.514 256.204L321.774 256.533C321.513 257.238 321.104 257.777 320.549 258.15C319.994 258.523 319.324 258.71 318.54 258.71ZM326.274 258.71C325.532 258.71 324.883 258.547 324.328 258.22C323.777 257.889 323.348 257.429 323.04 256.841C322.732 256.248 322.578 255.558 322.578 254.769C322.578 253.943 322.729 253.229 323.033 252.627C323.336 252.02 323.758 251.554 324.3 251.227C324.846 250.896 325.485 250.73 326.218 250.73C326.978 250.73 327.625 250.905 328.157 251.255C328.693 251.605 329.095 252.104 329.361 252.753C329.631 253.402 329.748 254.174 329.711 255.07H328.451V254.622C328.437 253.693 328.248 253 327.884 252.543C327.52 252.081 326.978 251.85 326.26 251.85C325.49 251.85 324.904 252.097 324.503 252.592C324.101 253.087 323.901 253.796 323.901 254.72C323.901 255.611 324.101 256.302 324.503 256.792C324.904 257.282 325.476 257.527 326.218 257.527C326.717 257.527 327.151 257.413 327.52 257.184C327.888 256.955 328.178 256.626 328.388 256.197L329.585 256.61C329.291 257.277 328.847 257.795 328.255 258.164C327.667 258.528 327.006 258.71 326.274 258.71ZM323.481 255.07V254.069H329.067V255.07H323.481Z" fill="#212528"/>
</g>
<g filter="url(#filter5_d_2076_27756)">
<rect x="282.688" y="277" width="60" height="60" rx="7.875" fill="#EDEDFD"/>
<path d="M325.813 307C325.813 314.249 319.936 320.125 312.688 320.125C305.439 320.125 299.562 314.249 299.562 307C299.562 299.751 305.439 293.875 312.688 293.875C319.936 293.875 325.813 299.751 325.813 307Z" fill="#696BEF"/>
<path d="M325.813 307C325.813 314.249 319.936 320.125 312.688 320.125C305.439 320.125 299.562 314.249 299.562 307C299.562 299.751 305.439 293.875 312.688 293.875C319.936 293.875 325.813 299.751 325.813 307Z" fill="#696BEF"/>
<path d="M321.875 309.625C321.875 310.314 321.739 310.997 321.475 311.634C321.212 312.271 320.825 312.85 320.337 313.337C319.85 313.825 319.271 314.212 318.634 314.475C317.997 314.739 317.314 314.875 316.625 314.875L316.625 309.625H321.875Z" fill="white"/>
<path d="M316.316 304.643L315.046 295.31L308.75 300.437L312.688 306.877H314.365C315.558 306.877 316.477 305.825 316.316 304.643Z" fill="#3A3BA6"/>
<path d="M314.721 315.237L313.867 318.633L312.688 312.788H312.812C314.094 312.788 315.035 313.994 314.721 315.237Z" fill="#3A3BA6"/>
<path fill-rule="evenodd" clip-rule="evenodd" d="M312.687 312.787C309.426 312.787 306.781 310.143 306.781 306.881H313.869C314.521 306.881 315.05 306.357 315.05 305.704V295.305C314.287 295.15 313.497 295.068 312.687 295.068C306.164 295.068 300.875 300.357 300.875 306.881C300.875 313.405 306.164 318.693 312.687 318.693C313.086 318.693 313.48 318.673 313.869 318.635V313.968C313.869 313.316 313.34 312.787 312.687 312.787ZM312.688 300.975C312.688 301.627 312.159 302.156 311.507 302.156C310.854 302.156 310.325 301.627 310.325 300.975C310.325 300.322 310.854 299.793 311.507 299.793C312.159 299.793 312.688 300.322 312.688 300.975Z" fill="white"/>
</g>
<g filter="url(#filter6_d_2076_27756)">
<rect x="386.938" y="113" width="60" height="60" rx="7.875" fill="#E2F0FF"/>
<path d="M403.813 135.125C403.813 132.95 405.575 131.187 407.75 131.187H426.125C428.3 131.187 430.063 132.95 430.063 135.125V145.625C430.063 147.799 428.3 149.562 426.125 149.562H403.813V135.125Z" fill="#0D4680"/>
<path d="M403.813 135.125C403.813 132.95 405.575 131.187 407.75 131.187H426.262C426.606 131.187 426.947 131.243 427.273 131.351L403.813 154.812V135.125Z" fill="#66BDFF"/>
</g>
<g filter="url(#filter7_d_2076_27756)">
<rect x="366.938" y="181" width="100" height="32" rx="16" fill="#E2F0FF" shape-rendering="crispEdges"/>
<path d="M406.495 202.71C405.781 202.71 405.137 202.589 404.563 202.346C403.993 202.103 403.522 201.758 403.149 201.31C402.78 200.857 402.54 200.323 402.428 199.707L403.716 199.504C403.879 200.139 404.217 200.636 404.731 200.995C405.249 201.35 405.858 201.527 406.558 201.527C407.01 201.527 407.419 201.457 407.783 201.317C408.151 201.172 408.443 200.967 408.658 200.701C408.872 200.435 408.98 200.12 408.98 199.756C408.98 199.532 408.94 199.341 408.861 199.182C408.786 199.019 408.681 198.881 408.546 198.769C408.415 198.652 408.266 198.554 408.098 198.475C407.93 198.396 407.755 198.33 407.573 198.279L405.004 197.516C404.724 197.432 404.453 197.327 404.192 197.201C403.93 197.07 403.697 196.909 403.492 196.718C403.286 196.522 403.123 196.289 403.002 196.018C402.88 195.743 402.82 195.418 402.82 195.045C402.82 194.448 402.974 193.939 403.282 193.519C403.594 193.094 404.017 192.77 404.549 192.546C405.081 192.322 405.68 192.212 406.348 192.217C407.024 192.222 407.629 192.343 408.161 192.581C408.697 192.814 409.141 193.15 409.49 193.589C409.845 194.028 410.083 194.553 410.205 195.164L408.882 195.395C408.812 194.984 408.655 194.632 408.413 194.338C408.175 194.039 407.876 193.811 407.517 193.652C407.157 193.489 406.763 193.405 406.334 193.4C405.923 193.395 405.552 193.461 405.221 193.596C404.889 193.731 404.626 193.92 404.43 194.163C404.234 194.401 404.136 194.676 404.136 194.989C404.136 195.297 404.224 195.547 404.402 195.738C404.579 195.925 404.796 196.074 405.053 196.186C405.314 196.293 405.568 196.382 405.816 196.452L407.734 197.005C407.953 197.066 408.205 197.15 408.49 197.257C408.779 197.364 409.059 197.516 409.329 197.712C409.6 197.903 409.824 198.16 410.002 198.482C410.179 198.799 410.268 199.201 410.268 199.686C410.268 200.171 410.17 200.603 409.974 200.981C409.782 201.359 409.514 201.676 409.168 201.933C408.823 202.185 408.422 202.376 407.965 202.507C407.507 202.642 407.017 202.71 406.495 202.71ZM411.736 202.5V192.42H412.87L416.678 200.449L420.465 192.42H421.613V202.493H420.43V195.157L417.007 202.5H416.342L412.919 195.157V202.5H411.736ZM427.153 202.71C426.439 202.71 425.795 202.589 425.221 202.346C424.651 202.103 424.18 201.758 423.807 201.31C423.438 200.857 423.198 200.323 423.086 199.707L424.374 199.504C424.537 200.139 424.875 200.636 425.389 200.995C425.907 201.35 426.516 201.527 427.216 201.527C427.668 201.527 428.077 201.457 428.441 201.317C428.809 201.172 429.101 200.967 429.316 200.701C429.53 200.435 429.638 200.12 429.638 199.756C429.638 199.532 429.598 199.341 429.519 199.182C429.444 199.019 429.339 198.881 429.204 198.769C429.073 198.652 428.924 198.554 428.756 198.475C428.588 198.396 428.413 198.33 428.231 198.279L425.662 197.516C425.382 197.432 425.111 197.327 424.85 197.201C424.588 197.07 424.355 196.909 424.15 196.718C423.944 196.522 423.781 196.289 423.66 196.018C423.538 195.743 423.478 195.418 423.478 195.045C423.478 194.448 423.632 193.939 423.94 193.519C424.252 193.094 424.675 192.77 425.207 192.546C425.739 192.322 426.338 192.212 427.006 192.217C427.682 192.222 428.287 192.343 428.819 192.581C429.355 192.814 429.799 193.15 430.149 193.589C430.503 194.028 430.741 194.553 430.863 195.164L429.54 195.395C429.47 194.984 429.313 194.632 429.071 194.338C428.833 194.039 428.534 193.811 428.175 193.652C427.815 193.489 427.421 193.405 426.992 193.4C426.581 193.395 426.21 193.461 425.879 193.596C425.547 193.731 425.284 193.92 425.088 194.163C424.892 194.401 424.794 194.676 424.794 194.989C424.794 195.297 424.882 195.547 425.06 195.738C425.237 195.925 425.454 196.074 425.711 196.186C425.972 196.293 426.226 196.382 426.474 196.452L428.392 197.005C428.611 197.066 428.863 197.15 429.148 197.257C429.437 197.364 429.717 197.516 429.988 197.712C430.258 197.903 430.482 198.16 430.66 198.482C430.837 198.799 430.926 199.201 430.926 199.686C430.926 200.171 430.828 200.603 430.632 200.981C430.44 201.359 430.172 201.676 429.827 201.933C429.481 202.185 429.08 202.376 428.623 202.507C428.165 202.642 427.675 202.71 427.153 202.71Z" fill="#212528"/>
</g>
<g filter="url(#filter8_d_2076_27756)">
<rect x="471.5" y="237" width="100" height="32" rx="16" fill="#E8F7E8" shape-rendering="crispEdges"/>
<path d="M490.129 258.5L487.21 248.42H488.512L490.752 256.393L492.985 248.427L494.294 248.42L496.534 256.393L498.767 248.42H500.076L497.157 258.5H495.911L493.643 250.597L491.375 258.5H490.129ZM506.652 258.5V254.713C506.652 254.354 506.619 254.008 506.554 253.677C506.493 253.346 506.384 253.049 506.225 252.788C506.071 252.522 505.861 252.312 505.595 252.158C505.334 252.004 505.002 251.927 504.601 251.927C504.288 251.927 504.004 251.981 503.747 252.088C503.495 252.191 503.278 252.349 503.096 252.564C502.914 252.779 502.772 253.049 502.669 253.376C502.571 253.698 502.522 254.078 502.522 254.517L501.703 254.265C501.703 253.532 501.834 252.905 502.095 252.382C502.361 251.855 502.732 251.451 503.208 251.171C503.689 250.886 504.253 250.744 504.902 250.744C505.392 250.744 505.81 250.821 506.155 250.975C506.5 251.129 506.787 251.334 507.016 251.591C507.245 251.843 507.424 252.128 507.555 252.445C507.686 252.758 507.777 253.077 507.828 253.404C507.884 253.726 507.912 254.032 507.912 254.321V258.5H506.652ZM501.262 258.5V248.42H502.382V253.985H502.522V258.5H501.262ZM511.881 258.71C511.316 258.71 510.843 258.607 510.46 258.402C510.082 258.192 509.795 257.917 509.599 257.576C509.408 257.235 509.312 256.862 509.312 256.456C509.312 256.059 509.387 255.716 509.536 255.427C509.69 255.133 509.905 254.89 510.18 254.699C510.455 254.503 510.784 254.349 511.167 254.237C511.526 254.139 511.928 254.055 512.371 253.985C512.819 253.91 513.272 253.843 513.729 253.782C514.186 253.721 514.613 253.663 515.01 253.607L514.562 253.866C514.576 253.194 514.441 252.697 514.156 252.375C513.876 252.053 513.391 251.892 512.7 251.892C512.243 251.892 511.841 251.997 511.496 252.207C511.155 252.412 510.915 252.748 510.775 253.215L509.592 252.858C509.774 252.195 510.126 251.675 510.649 251.297C511.172 250.919 511.86 250.73 512.714 250.73C513.4 250.73 513.988 250.854 514.478 251.101C514.973 251.344 515.327 251.712 515.542 252.207C515.649 252.44 515.717 252.695 515.745 252.97C515.773 253.241 515.787 253.525 515.787 253.824V258.5H514.681V256.687L514.94 256.855C514.655 257.466 514.256 257.928 513.743 258.241C513.234 258.554 512.614 258.71 511.881 258.71ZM512.07 257.667C512.518 257.667 512.905 257.588 513.232 257.429C513.563 257.266 513.829 257.053 514.03 256.792C514.231 256.526 514.361 256.237 514.422 255.924C514.492 255.691 514.529 255.432 514.534 255.147C514.543 254.858 514.548 254.636 514.548 254.482L514.982 254.671C514.576 254.727 514.177 254.781 513.785 254.832C513.393 254.883 513.022 254.939 512.672 255C512.322 255.056 512.007 255.124 511.727 255.203C511.522 255.268 511.328 255.352 511.146 255.455C510.969 255.558 510.824 255.691 510.712 255.854C510.605 256.013 510.551 256.211 510.551 256.449C510.551 256.654 510.602 256.85 510.705 257.037C510.812 257.224 510.976 257.375 511.195 257.492C511.419 257.609 511.711 257.667 512.07 257.667ZM521.828 258.5C521.38 258.589 520.937 258.624 520.498 258.605C520.064 258.591 519.677 258.505 519.336 258.346C518.995 258.183 518.736 257.931 518.559 257.59C518.41 257.291 518.328 256.99 518.314 256.687C518.305 256.379 518.3 256.031 518.3 255.644V248.84H519.546V255.588C519.546 255.896 519.548 256.16 519.553 256.379C519.562 256.598 519.611 256.787 519.7 256.946C519.868 257.245 520.134 257.42 520.498 257.471C520.867 257.522 521.31 257.508 521.828 257.429V258.5ZM516.767 251.969V250.94H521.828V251.969H516.767ZM526.219 258.703C525.318 258.703 524.578 258.507 524 258.115C523.426 257.718 523.073 257.165 522.943 256.456L524.217 256.253C524.319 256.664 524.555 256.99 524.924 257.233C525.292 257.471 525.75 257.59 526.296 257.59C526.814 257.59 527.22 257.483 527.514 257.268C527.808 257.053 527.955 256.762 527.955 256.393C527.955 256.178 527.906 256.006 527.808 255.875C527.71 255.74 527.507 255.614 527.199 255.497C526.895 255.38 526.436 255.24 525.82 255.077C525.152 254.9 524.627 254.715 524.245 254.524C523.862 254.333 523.589 254.111 523.426 253.859C523.262 253.607 523.181 253.301 523.181 252.942C523.181 252.499 523.302 252.111 523.545 251.78C523.787 251.444 524.126 251.185 524.56 251.003C524.998 250.821 525.507 250.73 526.086 250.73C526.66 250.73 527.173 250.821 527.626 251.003C528.078 251.185 528.442 251.444 528.718 251.78C528.998 252.111 529.163 252.499 529.215 252.942L527.941 253.173C527.88 252.767 527.684 252.447 527.353 252.214C527.026 251.981 526.604 251.857 526.086 251.843C525.596 251.824 525.197 251.911 524.889 252.102C524.585 252.293 524.434 252.552 524.434 252.879C524.434 253.061 524.49 253.217 524.602 253.348C524.718 253.479 524.931 253.602 525.239 253.719C525.551 253.836 526.004 253.969 526.597 254.118C527.264 254.286 527.789 254.47 528.172 254.671C528.559 254.867 528.834 255.1 528.998 255.371C529.161 255.637 529.243 255.966 529.243 256.358C529.243 257.086 528.974 257.66 528.438 258.08C527.901 258.495 527.161 258.703 526.219 258.703ZM530.087 258.5L533.461 248.42H535.197L538.571 258.5H537.276L534.119 249.148H534.511L531.382 258.5H530.087ZM531.711 256.141V254.972H536.947V256.141H531.711ZM543.296 258.71C542.586 258.71 541.989 258.535 541.504 258.185C541.018 257.83 540.65 257.352 540.398 256.75C540.15 256.143 540.027 255.464 540.027 254.713C540.027 253.952 540.15 253.271 540.398 252.669C540.65 252.067 541.018 251.593 541.504 251.248C541.994 250.903 542.593 250.73 543.303 250.73C544.003 250.73 544.605 250.905 545.109 251.255C545.617 251.6 546.007 252.074 546.278 252.676C546.548 253.278 546.684 253.957 546.684 254.713C546.684 255.469 546.548 256.148 546.278 256.75C546.007 257.352 545.617 257.83 545.109 258.185C544.605 258.535 544 258.71 543.296 258.71ZM539.817 261.86V250.94H540.93V256.505H541.07V261.86H539.817ZM543.142 257.569C543.641 257.569 544.054 257.443 544.381 257.191C544.707 256.939 544.952 256.598 545.116 256.169C545.279 255.735 545.361 255.25 545.361 254.713C545.361 254.181 545.279 253.7 545.116 253.271C544.957 252.842 544.71 252.501 544.374 252.249C544.042 251.997 543.62 251.871 543.107 251.871C542.617 251.871 542.211 251.992 541.889 252.235C541.567 252.473 541.326 252.807 541.168 253.236C541.009 253.661 540.93 254.153 540.93 254.713C540.93 255.264 541.007 255.756 541.161 256.19C541.319 256.619 541.562 256.958 541.889 257.205C542.215 257.448 542.633 257.569 543.142 257.569ZM551.69 258.71C550.981 258.71 550.384 258.535 549.898 258.185C549.413 257.83 549.044 257.352 548.792 256.75C548.545 256.143 548.421 255.464 548.421 254.713C548.421 253.952 548.545 253.271 548.792 252.669C549.044 252.067 549.413 251.593 549.898 251.248C550.388 250.903 550.988 250.73 551.697 250.73C552.397 250.73 552.999 250.905 553.503 251.255C554.012 251.6 554.402 252.074 554.672 252.676C554.943 253.278 555.078 253.957 555.078 254.713C555.078 255.469 554.943 256.148 554.672 256.75C554.402 257.352 554.012 257.83 553.503 258.185C552.999 258.535 552.395 258.71 551.69 258.71ZM548.211 261.86V250.94H549.324V256.505H549.464V261.86H548.211ZM551.536 257.569C552.036 257.569 552.449 257.443 552.775 257.191C553.102 256.939 553.347 256.598 553.51 256.169C553.674 255.735 553.755 255.25 553.755 254.713C553.755 254.181 553.674 253.7 553.51 253.271C553.352 252.842 553.104 252.501 552.768 252.249C552.437 251.997 552.015 251.871 551.501 251.871C551.011 251.871 550.605 251.992 550.283 252.235C549.961 252.473 549.721 252.807 549.562 253.236C549.404 253.661 549.324 254.153 549.324 254.713C549.324 255.264 549.401 255.756 549.555 256.19C549.714 256.619 549.957 256.958 550.283 257.205C550.61 257.448 551.028 257.569 551.536 257.569Z" fill="#212528"/>
</g>
<g filter="url(#filter9_d_2076_27756)">
<rect x="491.5" y="277" width="60" height="60" rx="7.875" fill="#E8F7E8"/>
<path fill-rule="evenodd" clip-rule="evenodd" d="M518.342 301.715C518.106 301.189 517.857 301.179 517.632 301.169C517.448 301.162 517.237 301.162 517.027 301.162C516.816 301.162 516.475 301.241 516.185 301.557C515.896 301.873 515.081 302.636 515.081 304.189C515.081 305.742 516.212 307.242 516.369 307.453C516.527 307.664 518.553 310.952 521.761 312.217C524.427 313.269 524.969 313.059 525.548 313.007C526.127 312.954 527.416 312.244 527.678 311.507C527.942 310.77 527.942 310.138 527.863 310.006C527.784 309.874 527.573 309.796 527.258 309.638C526.942 309.48 525.39 308.716 525.101 308.611C524.812 308.506 524.601 308.453 524.391 308.769C524.18 309.085 523.576 309.796 523.392 310.006C523.208 310.217 523.024 310.243 522.708 310.085C522.392 309.927 521.376 309.594 520.17 308.519C519.231 307.683 518.598 306.649 518.414 306.334C518.23 306.018 518.394 305.847 518.552 305.69C518.694 305.548 518.868 305.321 519.026 305.137C519.183 304.952 519.236 304.821 519.341 304.611C519.446 304.4 519.394 304.215 519.315 304.058C519.236 303.9 518.623 302.339 518.342 301.715Z" fill="#29A653"/>
<path fill-rule="evenodd" clip-rule="evenodd" d="M511.787 316.857L512.863 312.973C511.688 311.278 511 309.219 511 307C511 301.201 515.701 296.5 521.5 296.5C527.299 296.5 532 301.201 532 307C532 312.799 527.299 317.5 521.5 317.5C519.389 317.5 517.423 316.877 515.777 315.805L511.787 316.857ZM515.394 318.62L508.037 320.561L510.027 313.379C508.975 311.489 508.375 309.312 508.375 307C508.375 299.751 514.251 293.875 521.5 293.875C528.749 293.875 534.625 299.751 534.625 307C534.625 314.249 528.749 320.125 521.5 320.125C519.299 320.125 517.219 319.581 515.394 318.62Z" fill="#29A653"/>
</g>
<defs>
<filter id="filter0_d_2076_27756" x="51.0375" y="237" width="106.3" height="38.3" filterUnits="userSpaceOnUse" color-interpolation-filters="sRGB">
<feFlood flood-opacity="0" result="BackgroundImageFix"/>
<feColorMatrix in="SourceAlpha" type="matrix" values="0 0 0 0 0 0 0 0 0 0 0 0 0 0 0 0 0 0 127 0" result="hardAlpha"/>
<feOffset dy="3.15"/>
<feGaussianBlur stdDeviation="1.575"/>
<feComposite in2="hardAlpha" operator="out"/>
<feColorMatrix type="matrix" values="0 0 0 0 0 0 0 0 0 0 0 0 0 0 0 0 0 0 0.25 0"/>
<feBlend mode="normal" in2="BackgroundImageFix" result="effect1_dropShadow_2076_27756"/>
<feBlend mode="normal" in="SourceGraphic" in2="effect1_dropShadow_2076_27756" result="shape"/>
</filter>
<filter id="filter1_d_2076_27756" x="71.0375" y="277" width="66.3" height="66.3" filterUnits="userSpaceOnUse" color-interpolation-filters="sRGB">
<feFlood flood-opacity="0" result="BackgroundImageFix"/>
<feColorMatrix in="SourceAlpha" type="matrix" values="0 0 0 0 0 0 0 0 0 0 0 0 0 0 0 0 0 0 127 0" result="hardAlpha"/>
<feOffset dy="3.15"/>
<feGaussianBlur stdDeviation="1.575"/>
<feComposite in2="hardAlpha" operator="out"/>
<feColorMatrix type="matrix" values="0 0 0 0 0 0 0 0 0 0 0 0 0 0 0 0 0 0 0.25 0"/>
<feBlend mode="normal" in2="BackgroundImageFix" result="effect1_dropShadow_2076_27756"/>
<feBlend mode="normal" in="SourceGraphic" in2="effect1_dropShadow_2076_27756" result="shape"/>
</filter>
<filter id="filter2_d_2076_27756" x="175.287" y="113" width="66.3" height="66.3" filterUnits="userSpaceOnUse" color-interpolation-filters="sRGB">
<feFlood flood-opacity="0" result="BackgroundImageFix"/>
<feColorMatrix in="SourceAlpha" type="matrix" values="0 0 0 0 0 0 0 0 0 0 0 0 0 0 0 0 0 0 127 0" result="hardAlpha"/>
<feOffset dy="3.15"/>
<feGaussianBlur stdDeviation="1.575"/>
<feComposite in2="hardAlpha" operator="out"/>
<feColorMatrix type="matrix" values="0 0 0 0 0 0 0 0 0 0 0 0 0 0 0 0 0 0 0.25 0"/>
<feBlend mode="normal" in2="BackgroundImageFix" result="effect1_dropShadow_2076_27756"/>
<feBlend mode="normal" in="SourceGraphic" in2="effect1_dropShadow_2076_27756" result="shape"/>
</filter>
<filter id="filter3_d_2076_27756" x="155.287" y="181" width="106.3" height="38.3" filterUnits="userSpaceOnUse" color-interpolation-filters="sRGB">
<feFlood flood-opacity="0" result="BackgroundImageFix"/>
<feColorMatrix in="SourceAlpha" type="matrix" values="0 0 0 0 0 0 0 0 0 0 0 0 0 0 0 0 0 0 127 0" result="hardAlpha"/>
<feOffset dy="3.15"/>
<feGaussianBlur stdDeviation="1.575"/>
<feComposite in2="hardAlpha" operator="out"/>
<feColorMatrix type="matrix" values="0 0 0 0 0 0 0 0 0 0 0 0 0 0 0 0 0 0 0.25 0"/>
<feBlend mode="normal" in2="BackgroundImageFix" result="effect1_dropShadow_2076_27756"/>
<feBlend mode="normal" in="SourceGraphic" in2="effect1_dropShadow_2076_27756" result="shape"/>
</filter>
<filter id="filter4_d_2076_27756" x="259.537" y="237" width="106.3" height="38.3" filterUnits="userSpaceOnUse" color-interpolation-filters="sRGB">
<feFlood flood-opacity="0" result="BackgroundImageFix"/>
<feColorMatrix in="SourceAlpha" type="matrix" values="0 0 0 0 0 0 0 0 0 0 0 0 0 0 0 0 0 0 127 0" result="hardAlpha"/>
<feOffset dy="3.15"/>
<feGaussianBlur stdDeviation="1.575"/>
<feComposite in2="hardAlpha" operator="out"/>
<feColorMatrix type="matrix" values="0 0 0 0 0 0 0 0 0 0 0 0 0 0 0 0 0 0 0.25 0"/>
<feBlend mode="normal" in2="BackgroundImageFix" result="effect1_dropShadow_2076_27756"/>
<feBlend mode="normal" in="SourceGraphic" in2="effect1_dropShadow_2076_27756" result="shape"/>
</filter>
<filter id="filter5_d_2076_27756" x="279.537" y="277" width="66.3" height="66.3" filterUnits="userSpaceOnUse" color-interpolation-filters="sRGB">
<feFlood flood-opacity="0" result="BackgroundImageFix"/>
<feColorMatrix in="SourceAlpha" type="matrix" values="0 0 0 0 0 0 0 0 0 0 0 0 0 0 0 0 0 0 127 0" result="hardAlpha"/>
<feOffset dy="3.15"/>
<feGaussianBlur stdDeviation="1.575"/>
<feComposite in2="hardAlpha" operator="out"/>
<feColorMatrix type="matrix" values="0 0 0 0 0 0 0 0 0 0 0 0 0 0 0 0 0 0 0.25 0"/>
<feBlend mode="normal" in2="BackgroundImageFix" result="effect1_dropShadow_2076_27756"/>
<feBlend mode="normal" in="SourceGraphic" in2="effect1_dropShadow_2076_27756" result="shape"/>
</filter>
<filter id="filter6_d_2076_27756" x="383.787" y="113" width="66.3" height="66.3" filterUnits="userSpaceOnUse" color-interpolation-filters="sRGB">
<feFlood flood-opacity="0" result="BackgroundImageFix"/>
<feColorMatrix in="SourceAlpha" type="matrix" values="0 0 0 0 0 0 0 0 0 0 0 0 0 0 0 0 0 0 127 0" result="hardAlpha"/>
<feOffset dy="3.15"/>
<feGaussianBlur stdDeviation="1.575"/>
<feComposite in2="hardAlpha" operator="out"/>
<feColorMatrix type="matrix" values="0 0 0 0 0 0 0 0 0 0 0 0 0 0 0 0 0 0 0.25 0"/>
<feBlend mode="normal" in2="BackgroundImageFix" result="effect1_dropShadow_2076_27756"/>
<feBlend mode="normal" in="SourceGraphic" in2="effect1_dropShadow_2076_27756" result="shape"/>
</filter>
<filter id="filter7_d_2076_27756" x="363.787" y="181" width="106.3" height="38.3" filterUnits="userSpaceOnUse" color-interpolation-filters="sRGB">
<feFlood flood-opacity="0" result="BackgroundImageFix"/>
<feColorMatrix in="SourceAlpha" type="matrix" values="0 0 0 0 0 0 0 0 0 0 0 0 0 0 0 0 0 0 127 0" result="hardAlpha"/>
<feOffset dy="3.15"/>
<feGaussianBlur stdDeviation="1.575"/>
<feComposite in2="hardAlpha" operator="out"/>
<feColorMatrix type="matrix" values="0 0 0 0 0 0 0 0 0 0 0 0 0 0 0 0 0 0 0.25 0"/>
<feBlend mode="normal" in2="BackgroundImageFix" result="effect1_dropShadow_2076_27756"/>
<feBlend mode="normal" in="SourceGraphic" in2="effect1_dropShadow_2076_27756" result="shape"/>
</filter>
<filter id="filter8_d_2076_27756" x="468.35" y="237" width="106.3" height="38.3" filterUnits="userSpaceOnUse" color-interpolation-filters="sRGB">
<feFlood flood-opacity="0" result="BackgroundImageFix"/>
<feColorMatrix in="SourceAlpha" type="matrix" values="0 0 0 0 0 0 0 0 0 0 0 0 0 0 0 0 0 0 127 0" result="hardAlpha"/>
<feOffset dy="3.15"/>
<feGaussianBlur stdDeviation="1.575"/>
<feComposite in2="hardAlpha" operator="out"/>
<feColorMatrix type="matrix" values="0 0 0 0 0 0 0 0 0 0 0 0 0 0 0 0 0 0 0.25 0"/>
<feBlend mode="normal" in2="BackgroundImageFix" result="effect1_dropShadow_2076_27756"/>
<feBlend mode="normal" in="SourceGraphic" in2="effect1_dropShadow_2076_27756" result="shape"/>
</filter>
<filter id="filter9_d_2076_27756" x="488.35" y="277" width="66.3" height="66.3" filterUnits="userSpaceOnUse" color-interpolation-filters="sRGB">
<feFlood flood-opacity="0" result="BackgroundImageFix"/>
<feColorMatrix in="SourceAlpha" type="matrix" values="0 0 0 0 0 0 0 0 0 0 0 0 0 0 0 0 0 0 127 0" result="hardAlpha"/>
<feOffset dy="3.15"/>
<feGaussianBlur stdDeviation="1.575"/>
<feComposite in2="hardAlpha" operator="out"/>
<feColorMatrix type="matrix" values="0 0 0 0 0 0 0 0 0 0 0 0 0 0 0 0 0 0 0.25 0"/>
<feBlend mode="normal" in2="BackgroundImageFix" result="effect1_dropShadow_2076_27756"/>
<feBlend mode="normal" in="SourceGraphic" in2="effect1_dropShadow_2076_27756" result="shape"/>
</filter>
<clipPath id="clip0_2076_27756">
<rect width="31.5" height="31.5" fill="white" transform="translate(88.4375 293.219)"/>
</clipPath>
</defs>
</svg>
