<svg width="625" height="450" viewBox="0 0 625 450" fill="none" xmlns="http://www.w3.org/2000/svg">
<path d="M497.041 185.785C495.41 183.98 492.635 182.117 490.403 180.856L503.283 108.038C515.335 108.076 527.018 104.076 536.042 95.9245C555.894 77.9901 557.463 47.0737 539.528 27.2215C521.594 7.3693 490.678 5.80019 470.826 23.7346C461.2 32.4301 456.039 43.6481 455.458 55.0986L381.71 60.5396C380.681 58.1914 379.109 55.2416 377.478 53.4369C368.239 43.21 353.354 42.4545 343.127 51.6934C332.9 60.9323 332.144 75.818 341.383 86.0449C350.622 96.2718 365.508 97.0273 375.735 87.7883C379.344 84.5275 381.265 80.607 382.643 76.0849L455.789 71.1874C457.245 76.4273 459.303 81.1237 462.506 85.8783L400.543 141.855C391.615 136.81 380.649 137.976 372.829 145.041C362.602 154.28 361.847 169.165 371.085 179.392C380.324 189.619 395.21 190.375 405.437 181.136C413.258 174.071 415.527 163.28 411.412 153.887L473.375 97.9099C477.781 101.578 482.245 104.1 487.31 106.079L475.032 178.354C470.394 179.267 466.299 180.781 462.689 184.041C452.463 193.28 451.707 208.166 460.946 218.393C470.185 228.62 485.071 229.375 495.297 220.136C505.524 210.897 506.28 196.012 497.041 185.785ZM527.497 38.0909C539.453 51.3257 538.407 71.9365 525.172 83.8928C511.937 95.8491 491.327 94.803 479.37 81.5682C467.414 68.3334 468.46 47.7225 481.695 35.7662C494.93 23.81 515.541 24.856 527.497 38.0909ZM353.415 75.1755C350.154 71.566 350.387 66.9858 353.996 63.725C357.606 60.4642 362.186 60.6967 365.447 64.3062C368.707 67.9157 368.475 72.4959 364.865 75.7567C361.256 79.0175 356.676 78.785 353.415 75.1755ZM383.117 168.523C379.856 164.913 380.089 160.333 383.698 157.072C387.308 153.812 391.888 154.044 395.149 157.654C398.41 161.263 398.177 165.843 394.568 169.104C390.958 172.365 386.378 172.132 383.117 168.523ZM472.978 207.524C469.717 203.914 469.949 199.334 473.559 196.073C477.168 192.812 481.748 193.045 485.009 196.654C488.27 200.264 488.038 204.844 484.428 208.105C480.819 211.366 476.238 211.133 472.978 207.524Z" fill="#DBEAF6"/>
<g opacity="0.4" filter="url(#filter0_f_2632_98434)">
<ellipse cx="251.71" cy="368.911" rx="189.888" ry="2.09821" fill="black"/>
</g>
<path d="M81.5446 134.75C81.5446 128.492 86.6174 123.42 92.875 123.42H411.804C418.061 123.42 423.134 128.492 423.134 134.75V353.804C423.134 354.499 422.57 355.062 421.875 355.062H82.8036C82.1083 355.062 81.5446 354.499 81.5446 353.804V134.75Z" fill="#E2E8F0" stroke="#CBD5E0" stroke-width="0.839286"/>
<path d="M83.2233 134.331C83.2233 129.232 87.3566 125.099 92.4554 125.099H412.223C417.322 125.099 421.455 129.232 421.455 134.331V346.67H83.2233V134.331Z" fill="#C5D8F1"/>
<path d="M40 354.643C40 354.179 40.3758 353.804 40.8393 353.804H462.161C462.624 353.804 463 354.179 463 354.643V361.357H40V354.643Z" fill="#C3D2E7"/>
<path d="M40 354.643C40 354.179 40.3758 353.804 40.8393 353.804H462.161C462.624 353.804 463 354.179 463 354.643V361.357H40V354.643Z" fill="url(#paint0_linear_2632_98434)"/>
<path d="M40 361.357H463C446.497 367.737 428.956 371.009 411.262 371.009H87.2913C71.0385 371.009 54.953 367.726 40 361.357Z" fill="#C3D2E7"/>
<path d="M40 361.357H463C446.497 367.737 428.956 371.009 411.262 371.009H87.2913C71.0385 371.009 54.953 367.726 40 361.357Z" fill="url(#paint1_linear_2632_98434)"/>
<path fill-rule="evenodd" clip-rule="evenodd" d="M216.683 353.804C216.899 357.084 219.629 359.679 222.964 359.679H280.455C283.791 359.679 286.52 357.084 286.736 353.804H216.683Z" fill="#C3D2E7"/>
<path fill-rule="evenodd" clip-rule="evenodd" d="M216.683 353.804C216.899 357.084 219.629 359.679 222.964 359.679H280.455C283.791 359.679 286.52 357.084 286.736 353.804H216.683Z" fill="url(#paint2_linear_2632_98434)"/>
<rect x="90.2075" y="137.482" width="322.737" height="202.523" fill="#E7F2FF"/>
<path d="M283.25 331.486V305.573C283.25 296.012 291.01 288.252 300.571 288.252C310.132 288.252 317.892 296.012 317.892 305.573V331.486C326.276 325.874 331.75 316.382 331.75 305.573C331.75 288.321 317.823 274.395 300.571 274.395C283.319 274.395 269.393 288.321 269.393 305.573C269.393 316.382 274.866 325.874 283.25 331.486ZM321.357 348.599C319.417 347.629 317.338 347.144 315.19 347.144H310.964V305.573C310.964 299.822 306.322 295.18 300.571 295.18C294.82 295.18 290.178 299.822 290.178 305.573V379.986L266.344 374.997C263.78 374.443 261.078 375.274 259.208 377.145C256.228 380.194 256.228 385.044 259.208 388.092L286.991 415.876C289.624 418.439 293.158 419.894 296.83 419.894H339.094C346.022 419.894 351.842 414.836 352.812 407.977L357.177 377.006C358.009 371.117 354.96 365.297 349.625 362.664L321.357 348.599Z" fill="#7AB4F5"/>
<g filter="url(#filter1_dd_2632_98434)">
<circle cx="92.5259" cy="208.016" r="30.8657" fill="white"/>
</g>
<path d="M101.731 207.028C101.731 206.899 101.625 206.793 101.495 206.793H99.723C99.593 206.793 99.4867 206.899 99.4867 207.028C99.4867 211.153 96.1284 214.496 91.9844 214.496C87.8404 214.496 84.4821 211.153 84.4821 207.028C84.4821 206.899 84.3758 206.793 84.2458 206.793H82.4736C82.3436 206.793 82.2373 206.899 82.2373 207.028C82.2373 211.988 85.9766 216.081 90.8029 216.66V219.67H86.5113C86.1066 219.67 85.7817 220.091 85.7817 220.611V221.67C85.7817 221.799 85.8644 221.905 85.9648 221.905H98.0039C98.1044 221.905 98.1871 221.799 98.1871 221.67V220.611C98.1871 220.091 97.8622 219.67 97.4575 219.67H93.0477V216.674C97.9301 216.145 101.731 212.029 101.731 207.028ZM91.9844 212.026C94.7579 212.026 97.0056 209.815 97.0056 207.087V200.501C97.0056 197.772 94.7579 195.562 91.9844 195.562C89.2109 195.562 86.9632 197.772 86.9632 200.501V207.087C86.9632 209.815 89.2109 212.026 91.9844 212.026ZM89.2079 200.501C89.2079 199.013 90.4455 197.796 91.9844 197.796C93.5232 197.796 94.7608 199.013 94.7608 200.501V207.087C94.7608 208.574 93.5232 209.792 91.9844 209.792C90.4455 209.792 89.2079 208.574 89.2079 207.087V200.501Z" fill="#373F46"/>
<g filter="url(#filter2_dd_2632_98434)">
<circle cx="255.282" cy="209.867" r="30.8657" fill="white"/>
</g>
<path d="M247.114 200.661C245.977 200.661 244.887 201.113 244.083 201.917C243.279 202.721 242.827 203.811 242.827 204.948L242.827 221.238C243.369 220.697 243.937 219.611 244.542 219.524V204.948C244.542 204.266 244.813 203.612 245.296 203.129C245.778 202.647 246.432 202.376 247.114 202.376H259.118C259.8 202.376 260.454 202.647 260.936 203.129C261.419 203.612 261.69 204.266 261.69 204.948V216.951C261.69 217.634 261.419 218.288 260.936 218.77C260.454 219.253 259.8 219.524 259.118 219.524H258.26V221.238H259.118C260.255 221.238 261.345 220.787 262.149 219.983C262.953 219.179 263.405 218.088 263.405 216.951V215.237L267.52 218.323C267.775 218.514 268.078 218.631 268.395 218.659C268.712 218.688 269.031 218.628 269.316 218.485C269.601 218.343 269.84 218.124 270.008 217.853C270.175 217.582 270.264 217.27 270.264 216.951V204.948C270.264 204.63 270.175 204.317 270.008 204.047C269.84 203.776 269.601 203.557 269.316 203.414C269.031 203.272 268.712 203.212 268.395 203.24C268.078 203.269 267.775 203.385 267.52 203.576L263.405 206.663V204.948C263.405 203.811 262.953 202.721 262.149 201.917C261.345 201.113 260.255 200.661 259.118 200.661H247.114ZM263.405 208.806L268.549 204.948V216.951L263.405 213.093V208.806Z" fill="#373F46"/>
<path d="M244.542 219.524C243.937 219.611 243.369 220.697 242.827 221.238H258.26V219.524H244.542Z" fill="#373F46"/>
<g filter="url(#filter3_dd_2632_98434)">
<circle cx="174.177" cy="207.935" r="30.8657" fill="#373F46"/>
</g>
<path d="M175.802 199.812H166.055C165.48 199.812 164.929 200.041 164.523 200.447C164.117 200.853 163.889 201.404 163.889 201.979V212.809C163.889 213.383 164.117 213.934 164.523 214.34C164.929 214.746 165.48 214.975 166.055 214.975H183.383C183.957 214.975 184.508 214.746 184.915 214.34C185.321 213.934 185.549 213.383 185.549 212.809V209.56M170.387 219.307H179.051M174.719 214.975V219.307M185.549 199.812L180.134 205.228M180.134 199.812L185.549 205.228" stroke="white" stroke-width="2.16602" stroke-linecap="round" stroke-linejoin="round"/>
<g filter="url(#filter4_dd_2632_98434)">
<circle cx="336.386" cy="208.016" r="30.8657" fill="#DE6863"/>
</g>
<path d="M351.823 209.442L347.591 213.674L342.817 211.628L343.548 207.975C343.591 207.76 343.58 207.538 343.516 207.328C343.453 207.118 343.338 206.927 343.183 206.772C343.092 206.686 343.182 206.771 343.182 206.771L343.162 206.751C343.12 206.709 343.076 206.669 343.03 206.63C342.948 206.559 342.833 206.463 342.686 206.352C342.395 206.134 341.974 205.854 341.423 205.579C340.317 205.027 338.7 204.496 336.585 204.496C334.47 204.496 332.854 205.027 331.748 205.578C331.197 205.854 330.777 206.134 330.483 206.353C330.318 206.478 330.16 206.611 330.009 206.752L329.996 206.763L329.989 206.771C329.989 206.771 329.889 206.882 329.988 206.772C329.813 206.947 329.69 207.167 329.633 207.408C329.576 207.649 329.588 207.901 329.666 208.135L330.298 210.03L325.419 213.514L321.347 209.442C323.05 207.165 328.14 201.507 336.585 201.507C345.031 201.507 350.123 207.165 351.823 209.442ZM340.771 208.267L340.203 211.105C340.083 211.705 340.173 212.328 340.458 212.869C340.743 213.41 341.205 213.837 341.767 214.078L346.541 216.124C347.031 216.334 347.573 216.392 348.096 216.292C348.619 216.191 349.1 215.936 349.477 215.559L353.758 211.278C354.614 210.421 354.825 209.02 354.037 207.951C352.244 205.517 346.437 198.841 336.585 198.841C326.734 198.841 320.928 205.518 319.134 207.951C318.346 209.021 318.556 210.421 319.413 211.278L323.534 215.399C323.98 215.845 324.57 216.118 325.199 216.171C325.828 216.223 326.455 216.05 326.969 215.683L331.846 212.199C332.31 211.867 332.656 211.396 332.832 210.854C333.009 210.312 333.007 209.727 332.826 209.186L332.499 208.207C332.643 208.12 332.79 208.039 332.941 207.964C333.719 207.574 334.93 207.162 336.585 207.162C338.24 207.162 339.452 207.574 340.231 207.965C340.416 208.057 340.596 208.158 340.77 208.268L340.771 208.267Z" fill="white"/>
<g filter="url(#filter5_d_2632_98434)">
<rect x="380" y="264" width="189.443" height="50.2213" rx="25.1106" fill="white" shape-rendering="crispEdges"/>
<path d="M408.129 297.929C407.046 297.929 406.07 297.745 405.2 297.377C404.337 297.009 403.623 296.486 403.057 295.807C402.498 295.12 402.134 294.31 401.964 293.377L403.916 293.069C404.164 294.031 404.677 294.784 405.455 295.329C406.24 295.867 407.163 296.135 408.224 296.135C408.91 296.135 409.529 296.029 410.081 295.817C410.64 295.598 411.082 295.287 411.407 294.883C411.733 294.48 411.895 294.003 411.895 293.451C411.895 293.111 411.835 292.821 411.715 292.581C411.602 292.333 411.443 292.125 411.238 291.955C411.04 291.778 410.813 291.629 410.559 291.509C410.304 291.389 410.039 291.29 409.763 291.212L405.869 290.056C405.444 289.928 405.034 289.769 404.638 289.578C404.242 289.38 403.888 289.136 403.577 288.846C403.266 288.549 403.018 288.195 402.834 287.785C402.65 287.368 402.558 286.876 402.558 286.31C402.558 285.405 402.792 284.634 403.258 283.997C403.732 283.353 404.373 282.862 405.179 282.522C405.985 282.182 406.894 282.016 407.906 282.023C408.932 282.03 409.848 282.214 410.654 282.575C411.468 282.929 412.14 283.438 412.67 284.103C413.208 284.768 413.568 285.564 413.752 286.49L411.747 286.841C411.641 286.218 411.404 285.684 411.036 285.238C410.675 284.786 410.223 284.439 409.678 284.199C409.133 283.951 408.535 283.824 407.885 283.817C407.262 283.809 406.7 283.908 406.198 284.114C405.695 284.319 405.296 284.605 404.999 284.973C404.701 285.334 404.553 285.751 404.553 286.225C404.553 286.692 404.687 287.07 404.956 287.36C405.225 287.643 405.554 287.87 405.943 288.04C406.339 288.202 406.725 288.337 407.099 288.443L410.007 289.281C410.339 289.373 410.721 289.5 411.153 289.663C411.591 289.826 412.016 290.056 412.426 290.353C412.836 290.643 413.176 291.032 413.445 291.52C413.713 292.001 413.848 292.609 413.848 293.345C413.848 294.081 413.699 294.735 413.402 295.308C413.112 295.881 412.705 296.362 412.182 296.751C411.659 297.133 411.05 297.423 410.357 297.621C409.664 297.826 408.921 297.929 408.129 297.929ZM420.901 297.929C419.741 297.929 418.755 297.67 417.941 297.154C417.135 296.631 416.519 295.913 416.095 295C415.67 294.088 415.451 293.048 415.437 291.881C415.451 290.685 415.674 289.635 416.105 288.729C416.544 287.817 417.17 287.106 417.983 286.597C418.797 286.087 419.777 285.833 420.923 285.833C422.132 285.833 423.172 286.13 424.042 286.724C424.919 287.318 425.506 288.132 425.804 289.164L423.936 289.727C423.696 289.062 423.303 288.545 422.758 288.178C422.221 287.81 421.602 287.626 420.901 287.626C420.116 287.626 419.469 287.81 418.96 288.178C418.45 288.538 418.072 289.04 417.824 289.684C417.577 290.321 417.449 291.053 417.442 291.881C417.457 293.154 417.75 294.183 418.323 294.968C418.903 295.746 419.763 296.135 420.901 296.135C421.651 296.135 422.274 295.966 422.769 295.626C423.264 295.28 423.639 294.781 423.894 294.13L425.804 294.629C425.407 295.697 424.788 296.514 423.947 297.08C423.105 297.646 422.09 297.929 420.901 297.929ZM427.969 297.61V286.151H429.656V288.92L429.38 288.559C429.515 288.206 429.688 287.88 429.9 287.583C430.12 287.286 430.364 287.042 430.632 286.851C430.929 286.611 431.265 286.427 431.64 286.299C432.015 286.172 432.397 286.098 432.786 286.077C433.175 286.048 433.54 286.073 433.879 286.151V287.923C433.483 287.817 433.048 287.788 432.574 287.838C432.1 287.887 431.662 288.061 431.258 288.358C430.891 288.62 430.604 288.938 430.399 289.313C430.201 289.688 430.063 290.094 429.985 290.533C429.907 290.965 429.868 291.407 429.868 291.859V297.61H427.969ZM440.644 297.929C439.519 297.929 438.536 297.681 437.694 297.186C436.86 296.684 436.209 295.987 435.742 295.096C435.275 294.197 435.042 293.15 435.042 291.955C435.042 290.703 435.272 289.621 435.731 288.708C436.191 287.788 436.831 287.081 437.652 286.586C438.48 286.084 439.449 285.833 440.559 285.833C441.712 285.833 442.692 286.098 443.498 286.628C444.312 287.159 444.92 287.916 445.323 288.899C445.734 289.882 445.911 291.053 445.854 292.411H443.944V291.732C443.923 290.324 443.636 289.274 443.085 288.581C442.533 287.88 441.712 287.53 440.623 287.53C439.456 287.53 438.568 287.905 437.96 288.655C437.351 289.405 437.047 290.48 437.047 291.881C437.047 293.232 437.351 294.279 437.96 295.021C438.568 295.764 439.435 296.135 440.559 296.135C441.316 296.135 441.974 295.962 442.533 295.616C443.092 295.269 443.53 294.77 443.849 294.119L445.663 294.745C445.217 295.757 444.545 296.542 443.647 297.101C442.756 297.653 441.755 297.929 440.644 297.929ZM436.411 292.411V290.894H444.878V292.411H436.411ZM453.182 297.929C452.057 297.929 451.074 297.681 450.232 297.186C449.398 296.684 448.747 295.987 448.28 295.096C447.813 294.197 447.58 293.15 447.58 291.955C447.58 290.703 447.81 289.621 448.269 288.708C448.729 287.788 449.369 287.081 450.19 286.586C451.018 286.084 451.987 285.833 453.097 285.833C454.25 285.833 455.23 286.098 456.036 286.628C456.85 287.159 457.458 287.916 457.861 288.899C458.272 289.882 458.449 291.053 458.392 292.411H456.482V291.732C456.461 290.324 456.174 289.274 455.623 288.581C455.071 287.88 454.25 287.53 453.161 287.53C451.994 287.53 451.106 287.905 450.498 288.655C449.889 289.405 449.585 290.48 449.585 291.881C449.585 293.232 449.889 294.279 450.498 295.021C451.106 295.764 451.972 296.135 453.097 296.135C453.854 296.135 454.512 295.962 455.071 295.616C455.63 295.269 456.068 294.77 456.387 294.119L458.201 294.745C457.755 295.757 457.083 296.542 456.185 297.101C455.294 297.653 454.293 297.929 453.182 297.929ZM448.948 292.411V290.894H457.416V292.411H448.948ZM468.603 297.61V291.87C468.603 291.325 468.553 290.802 468.454 290.3C468.362 289.797 468.196 289.348 467.956 288.952C467.722 288.549 467.404 288.231 467.001 287.997C466.605 287.764 466.102 287.647 465.494 287.647C465.02 287.647 464.589 287.728 464.2 287.891C463.818 288.047 463.489 288.287 463.213 288.613C462.937 288.938 462.721 289.348 462.566 289.843C462.417 290.331 462.343 290.908 462.343 291.573L461.101 291.191C461.101 290.08 461.299 289.129 461.695 288.337C462.099 287.537 462.661 286.925 463.383 286.501C464.111 286.07 464.967 285.854 465.95 285.854C466.693 285.854 467.326 285.97 467.85 286.204C468.373 286.437 468.808 286.749 469.155 287.138C469.501 287.52 469.774 287.951 469.972 288.432C470.17 288.906 470.308 289.391 470.386 289.886C470.47 290.374 470.513 290.837 470.513 291.276V297.61H468.603ZM460.433 297.61V286.151H462.131V289.217H462.343V297.61H460.433ZM482.348 297.929C481.188 297.929 480.201 297.67 479.387 297.154C478.581 296.631 477.966 295.913 477.541 295C477.117 294.088 476.897 293.048 476.883 291.881C476.897 290.685 477.12 289.635 477.552 288.729C477.99 287.817 478.616 287.106 479.43 286.597C480.243 286.087 481.223 285.833 482.369 285.833C483.579 285.833 484.618 286.13 485.488 286.724C486.366 287.318 486.953 288.132 487.25 289.164L485.382 289.727C485.142 289.062 484.749 288.545 484.205 288.178C483.667 287.81 483.048 287.626 482.348 287.626C481.563 287.626 480.915 287.81 480.406 288.178C479.897 288.538 479.518 289.04 479.271 289.684C479.023 290.321 478.896 291.053 478.889 291.881C478.903 293.154 479.196 294.183 479.769 294.968C480.349 295.746 481.209 296.135 482.348 296.135C483.098 296.135 483.72 295.966 484.215 295.626C484.71 295.28 485.085 294.781 485.34 294.13L487.25 294.629C486.854 295.697 486.235 296.514 485.393 297.08C484.551 297.646 483.536 297.929 482.348 297.929ZM493.985 297.929C492.847 297.929 491.863 297.67 491.036 297.154C490.215 296.638 489.582 295.923 489.136 295.011C488.691 294.098 488.468 293.051 488.468 291.87C488.468 290.667 488.694 289.613 489.147 288.708C489.6 287.803 490.24 287.099 491.068 286.597C491.895 286.087 492.868 285.833 493.985 285.833C495.131 285.833 496.118 286.091 496.946 286.607C497.773 287.116 498.407 287.827 498.845 288.74C499.291 289.645 499.514 290.689 499.514 291.87C499.514 293.065 499.291 294.119 498.845 295.032C498.399 295.937 497.763 296.648 496.935 297.165C496.108 297.674 495.124 297.929 493.985 297.929ZM493.985 296.135C495.174 296.135 496.058 295.739 496.638 294.947C497.218 294.155 497.508 293.129 497.508 291.87C497.508 290.576 497.215 289.546 496.627 288.782C496.04 288.011 495.16 287.626 493.985 287.626C493.186 287.626 492.528 287.806 492.012 288.167C491.495 288.528 491.11 289.026 490.855 289.663C490.601 290.3 490.473 291.035 490.473 291.87C490.473 293.157 490.77 294.19 491.365 294.968C491.959 295.746 492.832 296.135 493.985 296.135ZM510.009 297.61V291.87C510.009 291.325 509.96 290.802 509.861 290.3C509.769 289.797 509.603 289.348 509.362 288.952C509.129 288.549 508.81 288.231 508.407 287.997C508.011 287.764 507.509 287.647 506.9 287.647C506.426 287.647 505.995 287.728 505.606 287.891C505.224 288.047 504.895 288.287 504.619 288.613C504.343 288.938 504.127 289.348 503.972 289.843C503.823 290.331 503.749 290.908 503.749 291.573L502.508 291.191C502.508 290.08 502.706 289.129 503.102 288.337C503.505 287.537 504.067 286.925 504.789 286.501C505.517 286.07 506.373 285.854 507.357 285.854C508.099 285.854 508.733 285.97 509.256 286.204C509.779 286.437 510.214 286.749 510.561 287.138C510.908 287.52 511.18 287.951 511.378 288.432C511.576 288.906 511.714 289.391 511.792 289.886C511.877 290.374 511.919 290.837 511.919 291.276V297.61H510.009ZM501.839 297.61V286.151H503.537V289.217H503.749V297.61H501.839ZM521.076 297.61C520.397 297.745 519.725 297.798 519.06 297.77C518.402 297.748 517.815 297.617 517.299 297.377C516.782 297.129 516.39 296.747 516.121 296.231C515.895 295.778 515.771 295.322 515.75 294.862C515.735 294.395 515.728 293.868 515.728 293.281V282.968H517.617V293.196C517.617 293.663 517.621 294.063 517.628 294.395C517.642 294.728 517.716 295.014 517.85 295.255C518.105 295.708 518.508 295.973 519.06 296.051C519.619 296.128 520.291 296.107 521.076 295.987V297.61ZM513.405 287.711V286.151H521.076V287.711H513.405ZM523.403 297.61V286.151H525.09V288.92L524.814 288.559C524.948 288.206 525.122 287.88 525.334 287.583C525.553 287.286 525.797 287.042 526.066 286.851C526.363 286.611 526.699 286.427 527.074 286.299C527.449 286.172 527.831 286.098 528.22 286.077C528.609 286.048 528.973 286.073 529.313 286.151V287.923C528.917 287.817 528.482 287.788 528.008 287.838C527.534 287.887 527.095 288.061 526.692 288.358C526.324 288.62 526.038 288.938 525.832 289.313C525.634 289.688 525.496 290.094 525.419 290.533C525.341 290.965 525.302 291.407 525.302 291.859V297.61H523.403ZM535.993 297.929C534.854 297.929 533.871 297.67 533.043 297.154C532.222 296.638 531.589 295.923 531.144 295.011C530.698 294.098 530.475 293.051 530.475 291.87C530.475 290.667 530.702 289.613 531.154 288.708C531.607 287.803 532.247 287.099 533.075 286.597C533.902 286.087 534.875 285.833 535.993 285.833C537.139 285.833 538.126 286.091 538.953 286.607C539.781 287.116 540.414 287.827 540.852 288.74C541.298 289.645 541.521 290.689 541.521 291.87C541.521 293.065 541.298 294.119 540.852 295.032C540.407 295.937 539.77 296.648 538.943 297.165C538.115 297.674 537.132 297.929 535.993 297.929ZM535.993 296.135C537.181 296.135 538.065 295.739 538.645 294.947C539.225 294.155 539.515 293.129 539.515 291.87C539.515 290.576 539.222 289.546 538.635 288.782C538.048 288.011 537.167 287.626 535.993 287.626C535.193 287.626 534.536 287.806 534.019 288.167C533.503 288.528 533.117 289.026 532.863 289.663C532.608 290.3 532.481 291.035 532.481 291.87C532.481 293.157 532.778 294.19 533.372 294.968C533.966 295.746 534.84 296.135 535.993 296.135ZM544.069 297.61V282.013H545.958V297.61H544.069Z" fill="#212528"/>
</g>
<defs>
<filter id="filter0_f_2632_98434" x="43.3571" y="348.348" width="416.705" height="41.1249" filterUnits="userSpaceOnUse" color-interpolation-filters="sRGB">
<feFlood flood-opacity="0" result="BackgroundImageFix"/>
<feBlend mode="normal" in="SourceGraphic" in2="BackgroundImageFix" result="shape"/>
<feGaussianBlur stdDeviation="9.23214" result="effect1_foregroundBlur_2632_98434"/>
</filter>
<filter id="filter1_dd_2632_98434" x="20.5058" y="115.419" width="138.553" height="149.527" filterUnits="userSpaceOnUse" color-interpolation-filters="sRGB">
<feFlood flood-opacity="0" result="BackgroundImageFix"/>
<feColorMatrix in="SourceAlpha" type="matrix" values="0 0 0 0 0 0 0 0 0 0 0 0 0 0 0 0 0 0 127 0" result="hardAlpha"/>
<feOffset dy="5.48724"/>
<feGaussianBlur stdDeviation="10.2886"/>
<feComposite in2="hardAlpha" operator="out"/>
<feColorMatrix type="matrix" values="0 0 0 0 0.00510418 0 0 0 0 0.175175 0 0 0 0 0.6125 0 0 0 0.12 0"/>
<feBlend mode="normal" in2="BackgroundImageFix" result="effect1_dropShadow_2632_98434"/>
<feColorMatrix in="SourceAlpha" type="matrix" values="0 0 0 0 0 0 0 0 0 0 0 0 0 0 0 0 0 0 127 0" result="hardAlpha"/>
<feOffset dx="-2.74362" dy="-23.3208"/>
<feGaussianBlur stdDeviation="19.2053"/>
<feComposite in2="hardAlpha" operator="out"/>
<feColorMatrix type="matrix" values="0 0 0 0 0.0477431 0 0 0 0 0.29375 0 0 0 0 0.520833 0 0 0 0.06 0"/>
<feBlend mode="normal" in2="effect1_dropShadow_2632_98434" result="effect2_dropShadow_2632_98434"/>
<feBlend mode="normal" in="SourceGraphic" in2="effect2_dropShadow_2632_98434" result="shape"/>
</filter>
<filter id="filter2_dd_2632_98434" x="183.262" y="117.269" width="138.553" height="149.527" filterUnits="userSpaceOnUse" color-interpolation-filters="sRGB">
<feFlood flood-opacity="0" result="BackgroundImageFix"/>
<feColorMatrix in="SourceAlpha" type="matrix" values="0 0 0 0 0 0 0 0 0 0 0 0 0 0 0 0 0 0 127 0" result="hardAlpha"/>
<feOffset dy="5.48724"/>
<feGaussianBlur stdDeviation="10.2886"/>
<feComposite in2="hardAlpha" operator="out"/>
<feColorMatrix type="matrix" values="0 0 0 0 0.00510418 0 0 0 0 0.175175 0 0 0 0 0.6125 0 0 0 0.12 0"/>
<feBlend mode="normal" in2="BackgroundImageFix" result="effect1_dropShadow_2632_98434"/>
<feColorMatrix in="SourceAlpha" type="matrix" values="0 0 0 0 0 0 0 0 0 0 0 0 0 0 0 0 0 0 127 0" result="hardAlpha"/>
<feOffset dx="-2.74362" dy="-23.3208"/>
<feGaussianBlur stdDeviation="19.2053"/>
<feComposite in2="hardAlpha" operator="out"/>
<feColorMatrix type="matrix" values="0 0 0 0 0.0477431 0 0 0 0 0.29375 0 0 0 0 0.520833 0 0 0 0.06 0"/>
<feBlend mode="normal" in2="effect1_dropShadow_2632_98434" result="effect2_dropShadow_2632_98434"/>
<feBlend mode="normal" in="SourceGraphic" in2="effect2_dropShadow_2632_98434" result="shape"/>
</filter>
<filter id="filter3_dd_2632_98434" x="102.157" y="115.338" width="138.553" height="149.527" filterUnits="userSpaceOnUse" color-interpolation-filters="sRGB">
<feFlood flood-opacity="0" result="BackgroundImageFix"/>
<feColorMatrix in="SourceAlpha" type="matrix" values="0 0 0 0 0 0 0 0 0 0 0 0 0 0 0 0 0 0 127 0" result="hardAlpha"/>
<feOffset dy="5.48724"/>
<feGaussianBlur stdDeviation="10.2886"/>
<feComposite in2="hardAlpha" operator="out"/>
<feColorMatrix type="matrix" values="0 0 0 0 0.00510418 0 0 0 0 0.175175 0 0 0 0 0.6125 0 0 0 0.12 0"/>
<feBlend mode="normal" in2="BackgroundImageFix" result="effect1_dropShadow_2632_98434"/>
<feColorMatrix in="SourceAlpha" type="matrix" values="0 0 0 0 0 0 0 0 0 0 0 0 0 0 0 0 0 0 127 0" result="hardAlpha"/>
<feOffset dx="-2.74362" dy="-23.3208"/>
<feGaussianBlur stdDeviation="19.2053"/>
<feComposite in2="hardAlpha" operator="out"/>
<feColorMatrix type="matrix" values="0 0 0 0 0.0477431 0 0 0 0 0.29375 0 0 0 0 0.520833 0 0 0 0.06 0"/>
<feBlend mode="normal" in2="effect1_dropShadow_2632_98434" result="effect2_dropShadow_2632_98434"/>
<feBlend mode="normal" in="SourceGraphic" in2="effect2_dropShadow_2632_98434" result="shape"/>
</filter>
<filter id="filter4_dd_2632_98434" x="264.366" y="115.419" width="138.553" height="149.527" filterUnits="userSpaceOnUse" color-interpolation-filters="sRGB">
<feFlood flood-opacity="0" result="BackgroundImageFix"/>
<feColorMatrix in="SourceAlpha" type="matrix" values="0 0 0 0 0 0 0 0 0 0 0 0 0 0 0 0 0 0 127 0" result="hardAlpha"/>
<feOffset dy="5.48724"/>
<feGaussianBlur stdDeviation="10.2886"/>
<feComposite in2="hardAlpha" operator="out"/>
<feColorMatrix type="matrix" values="0 0 0 0 0.00510418 0 0 0 0 0.175175 0 0 0 0 0.6125 0 0 0 0.12 0"/>
<feBlend mode="normal" in2="BackgroundImageFix" result="effect1_dropShadow_2632_98434"/>
<feColorMatrix in="SourceAlpha" type="matrix" values="0 0 0 0 0 0 0 0 0 0 0 0 0 0 0 0 0 0 127 0" result="hardAlpha"/>
<feOffset dx="-2.74362" dy="-23.3208"/>
<feGaussianBlur stdDeviation="19.2053"/>
<feComposite in2="hardAlpha" operator="out"/>
<feColorMatrix type="matrix" values="0 0 0 0 0.0477431 0 0 0 0 0.29375 0 0 0 0 0.520833 0 0 0 0.06 0"/>
<feBlend mode="normal" in2="effect1_dropShadow_2632_98434" result="effect2_dropShadow_2632_98434"/>
<feBlend mode="normal" in="SourceGraphic" in2="effect2_dropShadow_2632_98434" result="shape"/>
</filter>
<filter id="filter5_d_2632_98434" x="374.695" y="264" width="200.053" height="60.8323" filterUnits="userSpaceOnUse" color-interpolation-filters="sRGB">
<feFlood flood-opacity="0" result="BackgroundImageFix"/>
<feColorMatrix in="SourceAlpha" type="matrix" values="0 0 0 0 0 0 0 0 0 0 0 0 0 0 0 0 0 0 127 0" result="hardAlpha"/>
<feOffset dy="5.30531"/>
<feGaussianBlur stdDeviation="2.65266"/>
<feComposite in2="hardAlpha" operator="out"/>
<feColorMatrix type="matrix" values="0 0 0 0 0 0 0 0 0 0 0 0 0 0 0 0 0 0 0.25 0"/>
<feBlend mode="normal" in2="BackgroundImageFix" result="effect1_dropShadow_2632_98434"/>
<feBlend mode="normal" in="SourceGraphic" in2="effect1_dropShadow_2632_98434" result="shape"/>
</filter>
<linearGradient id="paint0_linear_2632_98434" x1="40" y1="357.581" x2="463" y2="357.581" gradientUnits="userSpaceOnUse">
<stop stop-color="#97AAC4"/>
<stop offset="0.0295345" stop-color="#CAD4DB"/>
<stop offset="0.0625" stop-color="#BECCDE"/>
<stop offset="0.133609" stop-color="#B7C2D0" stop-opacity="0.3"/>
<stop offset="0.865967" stop-color="#B7C2D0" stop-opacity="0.3"/>
<stop offset="0.941937" stop-color="#BECCDE"/>
<stop offset="0.971275" stop-color="#CAD4DB"/>
<stop offset="0.996436" stop-color="#B7C2D0"/>
</linearGradient>
<linearGradient id="paint1_linear_2632_98434" x1="251.5" y1="361.357" x2="251.5" y2="371.009" gradientUnits="userSpaceOnUse">
<stop stop-color="#B4C9E7" stop-opacity="0.6"/>
<stop offset="1" stop-color="#AAB5C6" stop-opacity="0.6"/>
</linearGradient>
<linearGradient id="paint2_linear_2632_98434" x1="223.594" y1="357.371" x2="281.085" y2="357.371" gradientUnits="userSpaceOnUse">
<stop stop-color="#B5C2D3"/>
<stop offset="0.317518" stop-color="#CFD9E7" stop-opacity="0"/>
<stop offset="0.660584" stop-color="#CFD9E7" stop-opacity="0"/>
<stop offset="1" stop-color="#CFD9E7"/>
</linearGradient>
</defs>
</svg>
