<svg width="625" height="450" viewBox="0 0 625 450" fill="none" xmlns="http://www.w3.org/2000/svg">
<path d="M179.5 120.25V74.25H139.25V91.5H104.75V74.25H64.5V120.25H104.75V103H116.25V160.5H139.25V177.75H179.5V131.75H139.25V149H127.75V103H139.25V120.25H179.5ZM93.25 108.75H76V85.75H93.25V108.75ZM150.75 143.25H168V166.25H150.75V143.25ZM150.75 85.75H168V108.75H150.75V85.75Z" fill="#DBEAF6"/>
<path fill-rule="evenodd" clip-rule="evenodd" d="M496.456 183.951C511.683 209.143 520.525 238.328 514.87 266.566C508.773 297.015 493.388 328.061 465.391 339.076C438.694 349.579 411.023 328.366 383.27 318.341C356.268 308.586 324.923 306.482 308.175 282.283C289.887 255.861 283.321 219.793 295.122 190.982C306.232 163.858 337.593 156.03 364.241 145.4C387.258 136.219 410.981 127.928 435.368 135.039C460.891 142.481 482.301 160.534 496.456 183.951Z" fill="#4DA0FF" fill-opacity="0.1"/>
<g filter="url(#filter0_d_2076_28021)">
<rect x="403" y="311" width="169.722" height="46.1772" rx="4.61772" fill="#1E75BA" shape-rendering="crispEdges"/>
<path d="M433.304 334.954H428.109V340.149H426.378V334.954H421.183V333.223H426.378V328.028H428.109V333.223H433.304V334.954Z" fill="white"/>
<path d="M444.535 339.089H442.652L446.882 327.334H448.931L453.161 339.089H451.279L447.956 329.469H447.864L444.535 339.089ZM444.851 334.486H450.957V335.978H444.851V334.486ZM457.879 339.261C457.167 339.261 456.532 339.079 455.974 338.716C455.419 338.348 454.983 337.826 454.665 337.149C454.351 336.468 454.194 335.651 454.194 334.698C454.194 333.745 454.353 332.93 454.671 332.253C454.992 331.576 455.432 331.057 455.991 330.698C456.549 330.338 457.183 330.158 457.89 330.158C458.438 330.158 458.878 330.25 459.211 330.434C459.547 330.614 459.807 330.824 459.991 331.065C460.179 331.306 460.324 331.518 460.427 331.702H460.531V327.334H462.247V339.089H460.571V337.717H460.427C460.324 337.904 460.175 338.119 459.98 338.36C459.788 338.601 459.524 338.811 459.188 338.991C458.851 339.171 458.415 339.261 457.879 339.261ZM458.258 337.797C458.751 337.797 459.168 337.667 459.509 337.407C459.853 337.143 460.114 336.778 460.29 336.311C460.469 335.844 460.559 335.301 460.559 334.681C460.559 334.069 460.471 333.533 460.295 333.074C460.119 332.615 459.861 332.257 459.52 332.001C459.18 331.744 458.759 331.616 458.258 331.616C457.741 331.616 457.311 331.75 456.966 332.018C456.622 332.286 456.362 332.651 456.186 333.114C456.014 333.577 455.928 334.099 455.928 334.681C455.928 335.27 456.016 335.8 456.192 336.271C456.368 336.741 456.628 337.114 456.972 337.39C457.32 337.661 457.749 337.797 458.258 337.797ZM467.996 339.261C467.284 339.261 466.649 339.079 466.091 338.716C465.536 338.348 465.1 337.826 464.782 337.149C464.468 336.468 464.311 335.651 464.311 334.698C464.311 333.745 464.47 332.93 464.788 332.253C465.109 331.576 465.549 331.057 466.108 330.698C466.666 330.338 467.3 330.158 468.008 330.158C468.555 330.158 468.995 330.25 469.328 330.434C469.664 330.614 469.924 330.824 470.108 331.065C470.296 331.306 470.441 331.518 470.544 331.702H470.648V327.334H472.364V339.089H470.688V337.717H470.544C470.441 337.904 470.292 338.119 470.097 338.36C469.905 338.601 469.641 338.811 469.305 338.991C468.968 339.171 468.532 339.261 467.996 339.261ZM468.375 337.797C468.868 337.797 469.285 337.667 469.626 337.407C469.97 337.143 470.231 336.778 470.407 336.311C470.586 335.844 470.676 335.301 470.676 334.681C470.676 334.069 470.588 333.533 470.412 333.074C470.236 332.615 469.978 332.257 469.638 332.001C469.297 331.744 468.876 331.616 468.375 331.616C467.858 331.616 467.428 331.75 467.083 332.018C466.739 332.286 466.479 332.651 466.303 333.114C466.131 333.577 466.045 334.099 466.045 334.681C466.045 335.27 466.133 335.8 466.309 336.271C466.485 336.741 466.745 337.114 467.089 337.39C467.437 337.661 467.866 337.797 468.375 337.797ZM488.715 327.334V339.089H487.085L481.11 330.468H481.001V339.089H479.228V327.334H480.869L486.85 335.966H486.959V327.334H488.715ZM494.964 339.267C494.095 339.267 493.347 339.081 492.72 338.71C492.096 338.335 491.614 337.809 491.273 337.132C490.937 336.45 490.768 335.653 490.768 334.738C490.768 333.835 490.937 333.039 491.273 332.351C491.614 331.662 492.088 331.124 492.697 330.738C493.309 330.351 494.025 330.158 494.843 330.158C495.341 330.158 495.823 330.24 496.29 330.405C496.756 330.57 497.175 330.828 497.547 331.18C497.918 331.532 498.21 331.989 498.425 332.551C498.639 333.11 498.746 333.789 498.746 334.589V335.197H491.738V333.912H497.064C497.064 333.46 496.973 333.06 496.789 332.712C496.605 332.36 496.347 332.083 496.014 331.88C495.685 331.677 495.299 331.576 494.855 331.576C494.373 331.576 493.952 331.694 493.592 331.932C493.236 332.165 492.961 332.471 492.766 332.85C492.574 333.225 492.479 333.632 492.479 334.072V335.077C492.479 335.666 492.582 336.167 492.789 336.581C492.999 336.994 493.292 337.309 493.667 337.528C494.042 337.742 494.48 337.849 494.981 337.849C495.306 337.849 495.603 337.803 495.871 337.711C496.139 337.616 496.37 337.474 496.565 337.286C496.76 337.099 496.91 336.867 497.013 336.592L498.637 336.885C498.507 337.363 498.274 337.782 497.937 338.142C497.604 338.497 497.185 338.775 496.68 338.974C496.179 339.169 495.607 339.267 494.964 339.267ZM502.546 339.089L499.951 330.273H501.725L503.452 336.747H503.538L505.272 330.273H507.045L508.767 336.718H508.853L510.569 330.273H512.343L509.754 339.089H508.004L506.213 332.724H506.081L504.29 339.089H502.546ZM518.386 339.089V327.334H525.675V328.861H520.16V332.442H525.153V333.963H520.16V339.089H518.386ZM529.434 327.334V339.089H527.718V327.334H529.434ZM535.456 339.267C534.63 339.267 533.909 339.077 533.293 338.698C532.677 338.32 532.198 337.79 531.858 337.109C531.517 336.427 531.347 335.632 531.347 334.721C531.347 333.807 531.517 333.007 531.858 332.322C532.198 331.637 532.677 331.105 533.293 330.726C533.909 330.348 534.63 330.158 535.456 330.158C536.283 330.158 537.004 330.348 537.62 330.726C538.236 331.105 538.715 331.637 539.055 332.322C539.396 333.007 539.566 333.807 539.566 334.721C539.566 335.632 539.396 336.427 539.055 337.109C538.715 337.79 538.236 338.32 537.62 338.698C537.004 339.077 536.283 339.267 535.456 339.267ZM535.462 337.826C535.998 337.826 536.442 337.684 536.794 337.401C537.146 337.118 537.406 336.741 537.574 336.271C537.746 335.8 537.833 335.282 537.833 334.715C537.833 334.153 537.746 333.636 537.574 333.166C537.406 332.691 537.146 332.31 536.794 332.023C536.442 331.737 535.998 331.593 535.462 331.593C534.923 331.593 534.475 331.737 534.119 332.023C533.767 332.31 533.505 332.691 533.333 333.166C533.165 333.636 533.08 334.153 533.08 334.715C533.08 335.282 533.165 335.8 533.333 336.271C533.505 336.741 533.767 337.118 534.119 337.401C534.475 337.684 534.923 337.826 535.462 337.826ZM543.124 339.089L540.53 330.273H542.304L544.031 336.747H544.117L545.85 330.273H547.624L549.346 336.718H549.432L551.148 330.273H552.921L550.333 339.089H548.582L546.792 332.724H546.66L544.869 339.089H543.124Z" fill="white"/>
</g>
<g filter="url(#filter1_d_2076_28021)">
<rect x="53" y="194" width="140" height="79" rx="39.5" fill="white" shape-rendering="crispEdges"/>
<path d="M95.364 232L90.36 214.72H92.592L96.432 228.388L100.26 214.732L102.504 214.72L106.344 228.388L110.172 214.72H112.416L107.412 232H105.276L101.388 218.452L97.5 232H95.364ZM123.689 232V225.508C123.689 224.892 123.633 224.3 123.521 223.732C123.417 223.164 123.229 222.656 122.957 222.208C122.693 221.752 122.333 221.392 121.877 221.128C121.429 220.864 120.861 220.732 120.173 220.732C119.637 220.732 119.149 220.824 118.709 221.008C118.277 221.184 117.905 221.456 117.593 221.824C117.281 222.192 117.037 222.656 116.861 223.216C116.693 223.768 116.609 224.42 116.609 225.172L115.205 224.74C115.205 223.484 115.429 222.408 115.877 221.512C116.333 220.608 116.969 219.916 117.785 219.436C118.609 218.948 119.577 218.704 120.689 218.704C121.529 218.704 122.245 218.836 122.837 219.1C123.429 219.364 123.921 219.716 124.313 220.156C124.705 220.588 125.013 221.076 125.237 221.62C125.461 222.156 125.617 222.704 125.705 223.264C125.801 223.816 125.849 224.34 125.849 224.836V232H123.689ZM114.449 232V214.72H116.369V224.26H116.609V232H114.449ZM134.585 232.36C133.313 232.36 132.201 232.08 131.249 231.52C130.305 230.952 129.569 230.164 129.041 229.156C128.513 228.14 128.249 226.956 128.249 225.604C128.249 224.188 128.509 222.964 129.029 221.932C129.549 220.892 130.273 220.092 131.201 219.532C132.137 218.964 133.233 218.68 134.489 218.68C135.793 218.68 136.901 218.98 137.813 219.58C138.733 220.18 139.421 221.036 139.877 222.148C140.341 223.26 140.541 224.584 140.477 226.12H138.317V225.352C138.293 223.76 137.969 222.572 137.345 221.788C136.721 220.996 135.793 220.6 134.561 220.6C133.241 220.6 132.237 221.024 131.549 221.872C130.861 222.72 130.517 223.936 130.517 225.52C130.517 227.048 130.861 228.232 131.549 229.072C132.237 229.912 133.217 230.332 134.489 230.332C135.345 230.332 136.089 230.136 136.721 229.744C137.353 229.352 137.849 228.788 138.209 228.052L140.261 228.76C139.757 229.904 138.997 230.792 137.981 231.424C136.973 232.048 135.841 232.36 134.585 232.36ZM129.797 226.12V224.404H139.373V226.12H129.797ZM152.025 232V225.508C152.025 224.892 151.969 224.3 151.857 223.732C151.753 223.164 151.565 222.656 151.293 222.208C151.029 221.752 150.669 221.392 150.213 221.128C149.765 220.864 149.197 220.732 148.509 220.732C147.973 220.732 147.485 220.824 147.045 221.008C146.613 221.184 146.241 221.456 145.929 221.824C145.617 222.192 145.373 222.656 145.197 223.216C145.029 223.768 144.945 224.42 144.945 225.172L143.541 224.74C143.541 223.484 143.765 222.408 144.213 221.512C144.669 220.608 145.305 219.916 146.121 219.436C146.945 218.948 147.913 218.704 149.025 218.704C149.865 218.704 150.581 218.836 151.173 219.1C151.765 219.364 152.257 219.716 152.649 220.156C153.041 220.588 153.349 221.076 153.573 221.62C153.797 222.156 153.953 222.704 154.041 223.264C154.137 223.816 154.185 224.34 154.185 224.836V232H152.025ZM142.785 232V219.04H144.705V222.508H144.945V232H142.785Z" fill="#212528"/>
<path d="M94.724 258.928C94.1 258.208 93.564 257.4 93.116 256.504C92.668 255.608 92.324 254.667 92.084 253.68C91.844 252.693 91.7293 251.707 91.74 250.72C91.7293 249.728 91.844 248.739 92.084 247.752C92.324 246.765 92.668 245.827 93.116 244.936C93.564 244.04 94.1 243.232 94.724 242.512L95.78 243.312C95.1507 244.059 94.6333 244.835 94.228 245.64C93.828 246.445 93.532 247.275 93.34 248.128C93.148 248.976 93.0493 249.84 93.044 250.72C93.0493 251.589 93.148 252.453 93.34 253.312C93.5373 254.165 93.836 254.997 94.236 255.808C94.6413 256.613 95.156 257.384 95.78 258.12L94.724 258.928ZM100.541 256V245.832H96.6131V244.48H105.893V245.832H101.965V256H100.541ZM106.37 256V247.36H107.642V249.448L107.434 249.176C107.535 248.909 107.666 248.664 107.826 248.44C107.991 248.216 108.175 248.032 108.378 247.888C108.602 247.707 108.855 247.568 109.138 247.472C109.421 247.376 109.709 247.32 110.002 247.304C110.295 247.283 110.57 247.301 110.826 247.36V248.696C110.527 248.616 110.199 248.595 109.842 248.632C109.485 248.669 109.154 248.8 108.85 249.024C108.573 249.221 108.357 249.461 108.202 249.744C108.053 250.027 107.949 250.333 107.89 250.664C107.831 250.989 107.802 251.323 107.802 251.664V256H106.37ZM112.499 245.832V244.36H113.923V245.832H112.499ZM112.499 256V247.36H113.923V256H112.499ZM119.819 260.08C119.366 260.08 118.923 260.011 118.491 259.872C118.059 259.733 117.662 259.523 117.299 259.24C116.942 258.963 116.643 258.611 116.403 258.184L117.707 257.496C117.92 257.917 118.222 258.224 118.611 258.416C119.006 258.608 119.411 258.704 119.827 258.704C120.376 258.704 120.832 258.603 121.195 258.4C121.558 258.203 121.824 257.907 121.995 257.512C122.171 257.117 122.256 256.627 122.251 256.04V253.68H122.419V247.36H123.683V256.056C123.683 256.291 123.675 256.517 123.659 256.736C123.648 256.955 123.622 257.171 123.579 257.384C123.467 257.997 123.246 258.501 122.915 258.896C122.584 259.296 122.158 259.592 121.635 259.784C121.112 259.981 120.507 260.08 119.819 260.08ZM119.715 256.24C118.91 256.24 118.219 256.04 117.643 255.64C117.067 255.235 116.622 254.688 116.307 254C115.998 253.312 115.843 252.536 115.843 251.672C115.843 250.808 115.998 250.032 116.307 249.344C116.622 248.656 117.067 248.115 117.643 247.72C118.219 247.32 118.907 247.12 119.707 247.12C120.523 247.12 121.208 247.317 121.763 247.712C122.318 248.107 122.736 248.648 123.019 249.336C123.307 250.024 123.451 250.803 123.451 251.672C123.451 252.531 123.307 253.307 123.019 254C122.736 254.688 122.318 255.235 121.763 255.64C121.208 256.04 120.526 256.24 119.715 256.24ZM119.891 254.936C120.472 254.936 120.95 254.797 121.323 254.52C121.696 254.237 121.971 253.851 122.147 253.36C122.328 252.864 122.419 252.301 122.419 251.672C122.419 251.032 122.328 250.469 122.147 249.984C121.971 249.493 121.699 249.112 121.331 248.84C120.963 248.563 120.496 248.424 119.931 248.424C119.344 248.424 118.859 248.568 118.475 248.856C118.096 249.144 117.814 249.533 117.627 250.024C117.446 250.515 117.355 251.064 117.355 251.672C117.355 252.285 117.448 252.84 117.635 253.336C117.822 253.827 118.102 254.216 118.475 254.504C118.854 254.792 119.326 254.936 119.891 254.936ZM129.413 260.08C128.96 260.08 128.517 260.011 128.085 259.872C127.653 259.733 127.256 259.523 126.893 259.24C126.536 258.963 126.237 258.611 125.997 258.184L127.301 257.496C127.514 257.917 127.816 258.224 128.205 258.416C128.6 258.608 129.005 258.704 129.421 258.704C129.97 258.704 130.426 258.603 130.789 258.4C131.152 258.203 131.418 257.907 131.589 257.512C131.765 257.117 131.85 256.627 131.845 256.04V253.68H132.013V247.36H133.277V256.056C133.277 256.291 133.269 256.517 133.253 256.736C133.242 256.955 133.216 257.171 133.173 257.384C133.061 257.997 132.84 258.501 132.509 258.896C132.178 259.296 131.752 259.592 131.229 259.784C130.706 259.981 130.101 260.08 129.413 260.08ZM129.309 256.24C128.504 256.24 127.813 256.04 127.237 255.64C126.661 255.235 126.216 254.688 125.901 254C125.592 253.312 125.437 252.536 125.437 251.672C125.437 250.808 125.592 250.032 125.901 249.344C126.216 248.656 126.661 248.115 127.237 247.72C127.813 247.32 128.501 247.12 129.301 247.12C130.117 247.12 130.802 247.317 131.357 247.712C131.912 248.107 132.33 248.648 132.613 249.336C132.901 250.024 133.045 250.803 133.045 251.672C133.045 252.531 132.901 253.307 132.613 254C132.33 254.688 131.912 255.235 131.357 255.64C130.802 256.04 130.12 256.24 129.309 256.24ZM129.485 254.936C130.066 254.936 130.544 254.797 130.917 254.52C131.29 254.237 131.565 253.851 131.741 253.36C131.922 252.864 132.013 252.301 132.013 251.672C132.013 251.032 131.922 250.469 131.741 249.984C131.565 249.493 131.293 249.112 130.925 248.84C130.557 248.563 130.09 248.424 129.525 248.424C128.938 248.424 128.453 248.568 128.069 248.856C127.69 249.144 127.408 249.533 127.221 250.024C127.04 250.515 126.949 251.064 126.949 251.672C126.949 252.285 127.042 252.84 127.229 253.336C127.416 253.827 127.696 254.216 128.069 254.504C128.448 254.792 128.92 254.936 129.485 254.936ZM139.255 256.24C138.407 256.24 137.665 256.053 137.031 255.68C136.401 255.301 135.911 254.776 135.559 254.104C135.207 253.427 135.031 252.637 135.031 251.736C135.031 250.792 135.204 249.976 135.551 249.288C135.897 248.595 136.38 248.061 136.999 247.688C137.623 247.309 138.353 247.12 139.191 247.12C140.06 247.12 140.799 247.32 141.407 247.72C142.02 248.12 142.479 248.691 142.783 249.432C143.092 250.173 143.225 251.056 143.183 252.08H141.743V251.568C141.727 250.507 141.511 249.715 141.095 249.192C140.679 248.664 140.06 248.4 139.239 248.4C138.359 248.4 137.689 248.683 137.231 249.248C136.772 249.813 136.543 250.624 136.543 251.68C136.543 252.699 136.772 253.488 137.231 254.048C137.689 254.608 138.343 254.888 139.191 254.888C139.761 254.888 140.257 254.757 140.679 254.496C141.1 254.235 141.431 253.859 141.671 253.368L143.039 253.84C142.703 254.603 142.196 255.195 141.519 255.616C140.847 256.032 140.092 256.24 139.255 256.24ZM136.063 252.08V250.936H142.447V252.08H136.063ZM144.964 256V247.36H146.236V249.448L146.028 249.176C146.129 248.909 146.26 248.664 146.42 248.44C146.585 248.216 146.769 248.032 146.972 247.888C147.196 247.707 147.449 247.568 147.732 247.472C148.014 247.376 148.302 247.32 148.596 247.304C148.889 247.283 149.164 247.301 149.42 247.36V248.696C149.121 248.616 148.793 248.595 148.436 248.632C148.078 248.669 147.748 248.8 147.444 249.024C147.166 249.221 146.95 249.461 146.796 249.744C146.646 250.027 146.542 250.333 146.484 250.664C146.425 250.989 146.396 251.323 146.396 251.664V256H144.964ZM151.236 258.928L150.18 258.12C150.804 257.384 151.316 256.613 151.716 255.808C152.121 254.997 152.423 254.165 152.62 253.312C152.817 252.453 152.916 251.589 152.916 250.72C152.916 249.84 152.817 248.976 152.62 248.128C152.428 247.275 152.129 246.445 151.724 245.64C151.324 244.835 150.809 244.059 150.18 243.312L151.236 242.512C151.86 243.232 152.396 244.04 152.844 244.936C153.297 245.827 153.641 246.765 153.876 247.752C154.116 248.739 154.231 249.728 154.22 250.72C154.231 251.707 154.116 252.693 153.876 253.68C153.641 254.667 153.297 255.608 152.844 256.504C152.396 257.4 151.86 258.208 151.236 258.928Z" fill="#8F9396"/>
</g>
<g filter="url(#filter2_d_2076_28021)">
<rect x="243" y="194" width="140" height="79" rx="39.5" fill="white" shape-rendering="crispEdges"/>
<path d="M307.42 232V214.72H309.556V232H307.42ZM314.393 232V218.332C314.393 217.996 314.409 217.656 314.441 217.312C314.473 216.96 314.545 216.62 314.657 216.292C314.769 215.956 314.953 215.648 315.209 215.368C315.505 215.04 315.829 214.808 316.181 214.672C316.533 214.528 316.889 214.44 317.249 214.408C317.617 214.376 317.965 214.36 318.293 214.36H319.937V216.136H318.413C317.781 216.136 317.309 216.292 316.997 216.604C316.685 216.908 316.529 217.372 316.529 217.996V232H314.393ZM312.197 220.804V219.04H319.937V220.804H312.197Z" fill="#212528"/>
<path d="M274.224 258.928C273.6 258.208 273.064 257.4 272.616 256.504C272.168 255.608 271.824 254.667 271.584 253.68C271.344 252.693 271.229 251.707 271.24 250.72C271.229 249.728 271.344 248.739 271.584 247.752C271.824 246.765 272.168 245.827 272.616 244.936C273.064 244.04 273.6 243.232 274.224 242.512L275.28 243.312C274.651 244.059 274.133 244.835 273.728 245.64C273.328 246.445 273.032 247.275 272.84 248.128C272.648 248.976 272.549 249.84 272.544 250.72C272.549 251.589 272.648 252.453 272.84 253.312C273.037 254.165 273.336 254.997 273.736 255.808C274.141 256.613 274.656 257.384 275.28 258.12L274.224 258.928ZM281.34 256.24C280.194 256.24 279.22 255.987 278.42 255.48C277.62 254.973 277.01 254.269 276.588 253.368C276.172 252.467 275.964 251.424 275.964 250.24C275.964 249.056 276.172 248.013 276.588 247.112C277.01 246.211 277.62 245.507 278.42 245C279.22 244.493 280.194 244.24 281.34 244.24C282.674 244.24 283.77 244.579 284.628 245.256C285.492 245.933 286.087 246.845 286.412 247.992L284.964 248.376C284.73 247.517 284.311 246.84 283.708 246.344C283.106 245.848 282.316 245.6 281.34 245.6C280.482 245.6 279.767 245.795 279.196 246.184C278.626 246.573 278.196 247.117 277.908 247.816C277.62 248.509 277.474 249.317 277.468 250.24C277.463 251.157 277.604 251.965 277.892 252.664C278.18 253.357 278.612 253.901 279.188 254.296C279.764 254.685 280.482 254.88 281.34 254.88C282.316 254.88 283.106 254.632 283.708 254.136C284.311 253.635 284.73 252.957 284.964 252.104L286.412 252.488C286.087 253.629 285.492 254.541 284.628 255.224C283.77 255.901 282.674 256.24 281.34 256.24ZM291.847 256.24C290.988 256.24 290.247 256.045 289.623 255.656C289.004 255.267 288.527 254.728 288.191 254.04C287.855 253.352 287.687 252.563 287.687 251.672C287.687 250.765 287.858 249.971 288.199 249.288C288.54 248.605 289.023 248.075 289.647 247.696C290.271 247.312 291.004 247.12 291.847 247.12C292.711 247.12 293.455 247.315 294.079 247.704C294.703 248.088 295.18 248.624 295.511 249.312C295.847 249.995 296.015 250.781 296.015 251.672C296.015 252.573 295.847 253.368 295.511 254.056C295.175 254.739 294.695 255.275 294.071 255.664C293.447 256.048 292.706 256.24 291.847 256.24ZM291.847 254.888C292.743 254.888 293.41 254.589 293.847 253.992C294.284 253.395 294.503 252.621 294.503 251.672C294.503 250.696 294.282 249.92 293.839 249.344C293.396 248.763 292.732 248.472 291.847 248.472C291.244 248.472 290.748 248.608 290.359 248.88C289.97 249.152 289.679 249.528 289.487 250.008C289.295 250.488 289.199 251.043 289.199 251.672C289.199 252.643 289.423 253.421 289.871 254.008C290.319 254.595 290.978 254.888 291.847 254.888ZM303.928 256V251.672C303.928 251.261 303.891 250.867 303.816 250.488C303.747 250.109 303.622 249.771 303.44 249.472C303.264 249.168 303.024 248.928 302.72 248.752C302.422 248.576 302.043 248.488 301.584 248.488C301.227 248.488 300.902 248.549 300.608 248.672C300.32 248.789 300.072 248.971 299.864 249.216C299.656 249.461 299.494 249.771 299.376 250.144C299.264 250.512 299.208 250.947 299.208 251.448L298.272 251.16C298.272 250.323 298.422 249.605 298.72 249.008C299.024 248.405 299.448 247.944 299.992 247.624C300.542 247.299 301.187 247.136 301.928 247.136C302.488 247.136 302.966 247.224 303.36 247.4C303.755 247.576 304.083 247.811 304.344 248.104C304.606 248.392 304.811 248.717 304.96 249.08C305.11 249.437 305.214 249.803 305.272 250.176C305.336 250.544 305.368 250.893 305.368 251.224V256H303.928ZM297.768 256V247.36H299.048V249.672H299.208V256H297.768ZM310.762 256.24C309.957 256.24 309.266 256.04 308.69 255.64C308.114 255.235 307.669 254.688 307.354 254C307.045 253.312 306.89 252.536 306.89 251.672C306.89 250.808 307.045 250.032 307.354 249.344C307.669 248.656 308.114 248.115 308.69 247.72C309.266 247.32 309.954 247.12 310.754 247.12C311.57 247.12 312.255 247.317 312.81 247.712C313.365 248.107 313.783 248.648 314.066 249.336C314.354 250.024 314.498 250.803 314.498 251.672C314.498 252.531 314.354 253.307 314.066 254C313.783 254.688 313.365 255.235 312.81 255.64C312.255 256.04 311.573 256.24 310.762 256.24ZM310.938 254.936C311.519 254.936 311.997 254.797 312.37 254.52C312.743 254.237 313.018 253.851 313.194 253.36C313.375 252.864 313.466 252.301 313.466 251.672C313.466 251.032 313.375 250.469 313.194 249.984C313.018 249.493 312.746 249.112 312.378 248.84C312.01 248.563 311.543 248.424 310.978 248.424C310.391 248.424 309.906 248.568 309.522 248.856C309.143 249.144 308.861 249.533 308.674 250.024C308.493 250.515 308.402 251.064 308.402 251.672C308.402 252.285 308.495 252.84 308.682 253.336C308.869 253.827 309.149 254.216 309.522 254.504C309.901 254.792 310.373 254.936 310.938 254.936ZM313.466 256V249.64H313.306V244.48H314.738V256H313.466ZM317.139 245.832V244.36H318.563V245.832H317.139ZM317.139 256V247.36H318.563V256H317.139ZM325.788 256C325.276 256.101 324.769 256.141 324.268 256.12C323.772 256.104 323.329 256.005 322.94 255.824C322.55 255.637 322.254 255.349 322.052 254.96C321.881 254.619 321.788 254.275 321.772 253.928C321.761 253.576 321.756 253.179 321.756 252.736V244.96H323.18V252.672C323.18 253.024 323.182 253.325 323.188 253.576C323.198 253.827 323.254 254.043 323.356 254.224C323.548 254.565 323.852 254.765 324.268 254.824C324.689 254.883 325.196 254.867 325.788 254.776V256ZM320.004 248.536V247.36H325.788V248.536H320.004ZM327.702 245.832V244.36H329.126V245.832H327.702ZM327.702 256V247.36H329.126V256H327.702ZM335.206 256.24C334.348 256.24 333.606 256.045 332.982 255.656C332.364 255.267 331.886 254.728 331.55 254.04C331.214 253.352 331.046 252.563 331.046 251.672C331.046 250.765 331.217 249.971 331.558 249.288C331.9 248.605 332.382 248.075 333.006 247.696C333.63 247.312 334.364 247.12 335.206 247.12C336.07 247.12 336.814 247.315 337.438 247.704C338.062 248.088 338.54 248.624 338.87 249.312C339.206 249.995 339.374 250.781 339.374 251.672C339.374 252.573 339.206 253.368 338.87 254.056C338.534 254.739 338.054 255.275 337.43 255.664C336.806 256.048 336.065 256.24 335.206 256.24ZM335.206 254.888C336.102 254.888 336.769 254.589 337.206 253.992C337.644 253.395 337.862 252.621 337.862 251.672C337.862 250.696 337.641 249.92 337.198 249.344C336.756 248.763 336.092 248.472 335.206 248.472C334.604 248.472 334.108 248.608 333.718 248.88C333.329 249.152 333.038 249.528 332.846 250.008C332.654 250.488 332.558 251.043 332.558 251.672C332.558 252.643 332.782 253.421 333.23 254.008C333.678 254.595 334.337 254.888 335.206 254.888ZM347.288 256V251.672C347.288 251.261 347.25 250.867 347.176 250.488C347.106 250.109 346.981 249.771 346.8 249.472C346.624 249.168 346.384 248.928 346.08 248.752C345.781 248.576 345.402 248.488 344.944 248.488C344.586 248.488 344.261 248.549 343.968 248.672C343.68 248.789 343.432 248.971 343.224 249.216C343.016 249.461 342.853 249.771 342.736 250.144C342.624 250.512 342.568 250.947 342.568 251.448L341.632 251.16C341.632 250.323 341.781 249.605 342.08 249.008C342.384 248.405 342.808 247.944 343.352 247.624C343.901 247.299 344.546 247.136 345.288 247.136C345.848 247.136 346.325 247.224 346.72 247.4C347.114 247.576 347.442 247.811 347.704 248.104C347.965 248.392 348.17 248.717 348.32 249.08C348.469 249.437 348.573 249.803 348.632 250.176C348.696 250.544 348.728 250.893 348.728 251.224V256H347.288ZM341.128 256V247.36H342.408V249.672H342.568V256H341.128ZM351.111 258.928L350.055 258.12C350.679 257.384 351.191 256.613 351.591 255.808C351.996 254.997 352.298 254.165 352.495 253.312C352.692 252.453 352.791 251.589 352.791 250.72C352.791 249.84 352.692 248.976 352.495 248.128C352.303 247.275 352.004 246.445 351.599 245.64C351.199 244.835 350.684 244.059 350.055 243.312L351.111 242.512C351.735 243.232 352.271 244.04 352.719 244.936C353.172 245.827 353.516 246.765 353.751 247.752C353.991 248.739 354.106 249.728 354.095 250.72C354.106 251.707 353.991 252.693 353.751 253.68C353.516 254.667 353.172 255.608 352.719 256.504C352.271 257.4 351.735 258.208 351.111 258.928Z" fill="#8F9396"/>
</g>
<path d="M197 232.5C196.448 232.5 196 232.948 196 233.5C196 234.052 196.448 234.5 197 234.5V232.5ZM239.707 234.207C240.098 233.817 240.098 233.183 239.707 232.793L233.343 226.429C232.953 226.038 232.319 226.038 231.929 226.429C231.538 226.819 231.538 227.453 231.929 227.843L237.586 233.5L231.929 239.157C231.538 239.547 231.538 240.181 231.929 240.571C232.319 240.962 232.953 240.962 233.343 240.571L239.707 234.207ZM197 234.5H239V232.5H197V234.5Z" fill="#B3B3B3"/>
<g filter="url(#filter3_d_2076_28021)">
<rect x="433" y="194" width="140" height="79" rx="39.5" fill="white" shape-rendering="crispEdges"/>
<path d="M480.132 232V216.748H474.24V214.72H488.16V216.748H482.268V232H480.132ZM499.299 232V225.508C499.299 224.892 499.243 224.3 499.131 223.732C499.027 223.164 498.839 222.656 498.567 222.208C498.303 221.752 497.943 221.392 497.487 221.128C497.039 220.864 496.471 220.732 495.783 220.732C495.247 220.732 494.759 220.824 494.319 221.008C493.887 221.184 493.515 221.456 493.203 221.824C492.891 222.192 492.647 222.656 492.471 223.216C492.303 223.768 492.219 224.42 492.219 225.172L490.815 224.74C490.815 223.484 491.039 222.408 491.487 221.512C491.943 220.608 492.579 219.916 493.395 219.436C494.219 218.948 495.187 218.704 496.299 218.704C497.139 218.704 497.855 218.836 498.447 219.1C499.039 219.364 499.531 219.716 499.923 220.156C500.315 220.588 500.623 221.076 500.847 221.62C501.071 222.156 501.227 222.704 501.315 223.264C501.411 223.816 501.459 224.34 501.459 224.836V232H499.299ZM490.059 232V214.72H491.979V224.26H492.219V232H490.059ZM510.194 232.36C508.922 232.36 507.81 232.08 506.858 231.52C505.914 230.952 505.178 230.164 504.65 229.156C504.122 228.14 503.858 226.956 503.858 225.604C503.858 224.188 504.118 222.964 504.638 221.932C505.158 220.892 505.882 220.092 506.81 219.532C507.746 218.964 508.842 218.68 510.098 218.68C511.402 218.68 512.51 218.98 513.422 219.58C514.342 220.18 515.03 221.036 515.486 222.148C515.95 223.26 516.15 224.584 516.086 226.12H513.926V225.352C513.902 223.76 513.578 222.572 512.954 221.788C512.33 220.996 511.402 220.6 510.17 220.6C508.85 220.6 507.846 221.024 507.158 221.872C506.47 222.72 506.126 223.936 506.126 225.52C506.126 227.048 506.47 228.232 507.158 229.072C507.846 229.912 508.826 230.332 510.098 230.332C510.954 230.332 511.698 230.136 512.33 229.744C512.962 229.352 513.458 228.788 513.818 228.052L515.87 228.76C515.366 229.904 514.606 230.792 513.59 231.424C512.582 232.048 511.45 232.36 510.194 232.36ZM505.406 226.12V224.404H514.982V226.12H505.406ZM527.635 232V225.508C527.635 224.892 527.579 224.3 527.467 223.732C527.363 223.164 527.175 222.656 526.903 222.208C526.639 221.752 526.279 221.392 525.823 221.128C525.375 220.864 524.807 220.732 524.119 220.732C523.583 220.732 523.095 220.824 522.655 221.008C522.223 221.184 521.851 221.456 521.539 221.824C521.227 222.192 520.983 222.656 520.807 223.216C520.639 223.768 520.555 224.42 520.555 225.172L519.151 224.74C519.151 223.484 519.375 222.408 519.823 221.512C520.279 220.608 520.915 219.916 521.731 219.436C522.555 218.948 523.523 218.704 524.635 218.704C525.475 218.704 526.191 218.836 526.783 219.1C527.375 219.364 527.867 219.716 528.259 220.156C528.651 220.588 528.959 221.076 529.183 221.62C529.407 222.156 529.563 222.704 529.651 223.264C529.747 223.816 529.795 224.34 529.795 224.836V232H527.635ZM518.395 232V219.04H520.315V222.508H520.555V232H518.395Z" fill="#212528"/>
<path d="M476.724 258.928C476.1 258.208 475.564 257.4 475.116 256.504C474.668 255.608 474.324 254.667 474.084 253.68C473.844 252.693 473.729 251.707 473.74 250.72C473.729 249.728 473.844 248.739 474.084 247.752C474.324 246.765 474.668 245.827 475.116 244.936C475.564 244.04 476.1 243.232 476.724 242.512L477.78 243.312C477.151 244.059 476.633 244.835 476.228 245.64C475.828 246.445 475.532 247.275 475.34 248.128C475.148 248.976 475.049 249.84 475.044 250.72C475.049 251.589 475.148 252.453 475.34 253.312C475.537 254.165 475.836 254.997 476.236 255.808C476.641 256.613 477.156 257.384 477.78 258.12L476.724 258.928ZM478.773 256L482.629 244.48H484.613L488.469 256H486.989L483.381 245.312H483.829L480.253 256H478.773ZM480.629 253.304V251.968H486.613V253.304H480.629ZM493.541 256.24C492.667 256.24 491.923 256.045 491.309 255.656C490.701 255.261 490.237 254.72 489.917 254.032C489.597 253.344 489.432 252.56 489.421 251.68C489.432 250.779 489.6 249.987 489.925 249.304C490.256 248.616 490.728 248.08 491.341 247.696C491.955 247.312 492.693 247.12 493.557 247.12C494.469 247.12 495.253 247.344 495.909 247.792C496.571 248.24 497.013 248.853 497.237 249.632L495.829 250.056C495.648 249.555 495.352 249.165 494.941 248.888C494.536 248.611 494.069 248.472 493.541 248.472C492.949 248.472 492.461 248.611 492.077 248.888C491.693 249.16 491.408 249.539 491.221 250.024C491.035 250.504 490.939 251.056 490.933 251.68C490.944 252.64 491.165 253.416 491.597 254.008C492.035 254.595 492.683 254.888 493.541 254.888C494.107 254.888 494.576 254.76 494.949 254.504C495.323 254.243 495.605 253.867 495.797 253.376L497.237 253.752C496.939 254.557 496.472 255.173 495.837 255.6C495.203 256.027 494.437 256.24 493.541 256.24ZM503.694 256C503.182 256.101 502.675 256.141 502.174 256.12C501.678 256.104 501.235 256.005 500.846 255.824C500.457 255.637 500.161 255.349 499.958 254.96C499.787 254.619 499.694 254.275 499.678 253.928C499.667 253.576 499.662 253.179 499.662 252.736V244.96H501.086V252.672C501.086 253.024 501.089 253.325 501.094 253.576C501.105 253.827 501.161 254.043 501.262 254.224C501.454 254.565 501.758 254.765 502.174 254.824C502.595 254.883 503.102 254.867 503.694 254.776V256ZM497.91 248.536V247.36H503.694V248.536H497.91ZM505.608 245.832V244.36H507.032V245.832H505.608ZM505.608 256V247.36H507.032V256H505.608ZM513.113 256.24C512.254 256.24 511.513 256.045 510.889 255.656C510.27 255.267 509.793 254.728 509.457 254.04C509.121 253.352 508.953 252.563 508.953 251.672C508.953 250.765 509.123 249.971 509.465 249.288C509.806 248.605 510.289 248.075 510.913 247.696C511.537 247.312 512.27 247.12 513.113 247.12C513.977 247.12 514.721 247.315 515.345 247.704C515.969 248.088 516.446 248.624 516.777 249.312C517.113 249.995 517.281 250.781 517.281 251.672C517.281 252.573 517.113 253.368 516.777 254.056C516.441 254.739 515.961 255.275 515.337 255.664C514.713 256.048 513.971 256.24 513.113 256.24ZM513.113 254.888C514.009 254.888 514.675 254.589 515.113 253.992C515.55 253.395 515.769 252.621 515.769 251.672C515.769 250.696 515.547 249.92 515.105 249.344C514.662 248.763 513.998 248.472 513.113 248.472C512.51 248.472 512.014 248.608 511.625 248.88C511.235 249.152 510.945 249.528 510.753 250.008C510.561 250.488 510.465 251.043 510.465 251.672C510.465 252.643 510.689 253.421 511.137 254.008C511.585 254.595 512.243 254.888 513.113 254.888ZM525.194 256V251.672C525.194 251.261 525.157 250.867 525.082 250.488C525.013 250.109 524.887 249.771 524.706 249.472C524.53 249.168 524.29 248.928 523.986 248.752C523.687 248.576 523.309 248.488 522.85 248.488C522.493 248.488 522.167 248.549 521.874 248.672C521.586 248.789 521.338 248.971 521.13 249.216C520.922 249.461 520.759 249.771 520.642 250.144C520.53 250.512 520.474 250.947 520.474 251.448L519.538 251.16C519.538 250.323 519.687 249.605 519.986 249.008C520.29 248.405 520.714 247.944 521.258 247.624C521.807 247.299 522.453 247.136 523.194 247.136C523.754 247.136 524.231 247.224 524.626 247.4C525.021 247.576 525.349 247.811 525.61 248.104C525.871 248.392 526.077 248.717 526.226 249.08C526.375 249.437 526.479 249.803 526.538 250.176C526.602 250.544 526.634 250.893 526.634 251.224V256H525.194ZM519.034 256V247.36H520.314V249.672H520.474V256H519.034ZM529.017 258.928L527.961 258.12C528.585 257.384 529.097 256.613 529.497 255.808C529.903 254.997 530.204 254.165 530.401 253.312C530.599 252.453 530.697 251.589 530.697 250.72C530.697 249.84 530.599 248.976 530.401 248.128C530.209 247.275 529.911 246.445 529.505 245.64C529.105 244.835 528.591 244.059 527.961 243.312L529.017 242.512C529.641 243.232 530.177 244.04 530.625 244.936C531.079 245.827 531.423 246.765 531.657 247.752C531.897 248.739 532.012 249.728 532.001 250.72C532.012 251.707 531.897 252.693 531.657 253.68C531.423 254.667 531.079 255.608 530.625 256.504C530.177 257.4 529.641 258.208 529.017 258.928Z" fill="#8F9396"/>
</g>
<path d="M387 232.5C386.448 232.5 386 232.948 386 233.5C386 234.052 386.448 234.5 387 234.5V232.5ZM429.707 234.207C430.098 233.817 430.098 233.183 429.707 232.793L423.343 226.429C422.953 226.038 422.319 226.038 421.929 226.429C421.538 226.819 421.538 227.453 421.929 227.843L427.586 233.5L421.929 239.157C421.538 239.547 421.538 240.181 421.929 240.571C422.319 240.962 422.953 240.962 423.343 240.571L429.707 234.207ZM387 234.5H429V232.5H387V234.5Z" fill="#B3B3B3"/>
<defs>
<filter id="filter0_d_2076_28021" x="399" y="311" width="177.722" height="54.1772" filterUnits="userSpaceOnUse" color-interpolation-filters="sRGB">
<feFlood flood-opacity="0" result="BackgroundImageFix"/>
<feColorMatrix in="SourceAlpha" type="matrix" values="0 0 0 0 0 0 0 0 0 0 0 0 0 0 0 0 0 0 127 0" result="hardAlpha"/>
<feOffset dy="4"/>
<feGaussianBlur stdDeviation="2"/>
<feComposite in2="hardAlpha" operator="out"/>
<feColorMatrix type="matrix" values="0 0 0 0 0 0 0 0 0 0 0 0 0 0 0 0 0 0 0.25 0"/>
<feBlend mode="normal" in2="BackgroundImageFix" result="effect1_dropShadow_2076_28021"/>
<feBlend mode="normal" in="SourceGraphic" in2="effect1_dropShadow_2076_28021" result="shape"/>
</filter>
<filter id="filter1_d_2076_28021" x="47" y="194" width="152" height="91" filterUnits="userSpaceOnUse" color-interpolation-filters="sRGB">
<feFlood flood-opacity="0" result="BackgroundImageFix"/>
<feColorMatrix in="SourceAlpha" type="matrix" values="0 0 0 0 0 0 0 0 0 0 0 0 0 0 0 0 0 0 127 0" result="hardAlpha"/>
<feOffset dy="6"/>
<feGaussianBlur stdDeviation="3"/>
<feComposite in2="hardAlpha" operator="out"/>
<feColorMatrix type="matrix" values="0 0 0 0 0 0 0 0 0 0 0 0 0 0 0 0 0 0 0.25 0"/>
<feBlend mode="normal" in2="BackgroundImageFix" result="effect1_dropShadow_2076_28021"/>
<feBlend mode="normal" in="SourceGraphic" in2="effect1_dropShadow_2076_28021" result="shape"/>
</filter>
<filter id="filter2_d_2076_28021" x="237" y="194" width="152" height="91" filterUnits="userSpaceOnUse" color-interpolation-filters="sRGB">
<feFlood flood-opacity="0" result="BackgroundImageFix"/>
<feColorMatrix in="SourceAlpha" type="matrix" values="0 0 0 0 0 0 0 0 0 0 0 0 0 0 0 0 0 0 127 0" result="hardAlpha"/>
<feOffset dy="6"/>
<feGaussianBlur stdDeviation="3"/>
<feComposite in2="hardAlpha" operator="out"/>
<feColorMatrix type="matrix" values="0 0 0 0 0 0 0 0 0 0 0 0 0 0 0 0 0 0 0.25 0"/>
<feBlend mode="normal" in2="BackgroundImageFix" result="effect1_dropShadow_2076_28021"/>
<feBlend mode="normal" in="SourceGraphic" in2="effect1_dropShadow_2076_28021" result="shape"/>
</filter>
<filter id="filter3_d_2076_28021" x="427" y="194" width="152" height="91" filterUnits="userSpaceOnUse" color-interpolation-filters="sRGB">
<feFlood flood-opacity="0" result="BackgroundImageFix"/>
<feColorMatrix in="SourceAlpha" type="matrix" values="0 0 0 0 0 0 0 0 0 0 0 0 0 0 0 0 0 0 127 0" result="hardAlpha"/>
<feOffset dy="6"/>
<feGaussianBlur stdDeviation="3"/>
<feComposite in2="hardAlpha" operator="out"/>
<feColorMatrix type="matrix" values="0 0 0 0 0 0 0 0 0 0 0 0 0 0 0 0 0 0 0.25 0"/>
<feBlend mode="normal" in2="BackgroundImageFix" result="effect1_dropShadow_2076_28021"/>
<feBlend mode="normal" in="SourceGraphic" in2="effect1_dropShadow_2076_28021" result="shape"/>
</filter>
</defs>
</svg>
