<svg width="625" height="450" viewBox="0 0 625 450" fill="none" xmlns="http://www.w3.org/2000/svg">
<path d="M280.402 174.197L267 160.819L357.849 69.9699L396.263 108.359L451.279 53.3433L464.681 66.721L396.263 135.163L357.849 96.7494L280.402 174.197Z" fill="#DBEAF6"/>
<path d="M436.396 48.2311L482 36L469.793 81.6039L436.396 48.2311Z" fill="#DBEAF6"/>
<g filter="url(#filter0_d_2076_27949)">
<g clip-path="url(#clip0_2076_27949)">
<rect x="53" y="56" width="240" height="338" rx="8" fill="white"/>
<rect width="240" height="48" transform="translate(53 56)" fill="white"/>
<path d="M71 74C71 72.3431 72.3431 71 74 71H88C89.6569 71 91 72.3431 91 74V83C91 84.6569 89.6569 86 88 86H74C72.3431 86 71 84.6569 71 83V74Z" fill="#F2CA55"/>
<path fill-rule="evenodd" clip-rule="evenodd" d="M78.8499 79C78.8499 80.1874 79.8125 81.15 80.9999 81.15C82.1873 81.15 83.1499 80.1874 83.1499 79H84.8499C84.8499 81.1263 83.1262 82.85 80.9999 82.85C78.8736 82.85 77.1499 81.1263 77.1499 79H78.8499Z" fill="#8C5D00"/>
<path fill-rule="evenodd" clip-rule="evenodd" d="M78.1499 77V74.5H79.8499V77H78.1499ZM82.1499 77V74.5H83.8499V77H82.1499Z" fill="#8C5D00"/>
<path d="M83 86V89L79 86H83Z" fill="#8C5D00"/>
<path d="M102.011 86V74.3636H104.472V79.1648H109.466V74.3636H111.92V86H109.466V81.1932H104.472V86H102.011ZM117.881 86.1705C116.983 86.1705 116.21 85.9886 115.562 85.625C114.919 85.2576 114.422 84.7386 114.074 84.0682C113.725 83.3939 113.551 82.5966 113.551 81.6761C113.551 80.7784 113.725 79.9905 114.074 79.3125C114.422 78.6345 114.913 78.1061 115.545 77.7273C116.182 77.3485 116.928 77.1591 117.784 77.1591C118.36 77.1591 118.896 77.2519 119.392 77.4375C119.892 77.6193 120.328 77.8939 120.699 78.2614C121.074 78.6288 121.366 79.0909 121.574 79.6477C121.782 80.2008 121.886 80.8485 121.886 81.5909V82.2557H114.517V80.7557H119.608C119.608 80.4072 119.532 80.0985 119.381 79.8295C119.229 79.5606 119.019 79.3504 118.75 79.1989C118.485 79.0436 118.176 78.9659 117.824 78.9659C117.456 78.9659 117.131 79.0511 116.847 79.2216C116.566 79.3883 116.347 79.6136 116.188 79.8977C116.028 80.178 115.947 80.4905 115.943 80.8352V82.2614C115.943 82.6932 116.023 83.0663 116.182 83.3807C116.345 83.6951 116.574 83.9375 116.869 84.108C117.165 84.2784 117.515 84.3636 117.92 84.3636C118.189 84.3636 118.436 84.3258 118.659 84.25C118.883 84.1742 119.074 84.0606 119.233 83.9091C119.392 83.7576 119.513 83.572 119.597 83.3523L121.835 83.5C121.722 84.0379 121.489 84.5076 121.136 84.9091C120.788 85.3068 120.337 85.6174 119.784 85.8409C119.235 86.0606 118.6 86.1705 117.881 86.1705ZM125.886 74.3636V86H123.466V74.3636H125.886ZM130.246 74.3636V86H127.825V74.3636H130.246ZM136.128 86.1705C135.245 86.1705 134.482 85.983 133.838 85.608C133.198 85.2292 132.704 84.7027 132.355 84.0284C132.007 83.3504 131.832 82.5644 131.832 81.6705C131.832 80.7689 132.007 79.9811 132.355 79.3068C132.704 78.6288 133.198 78.1023 133.838 77.7273C134.482 77.3485 135.245 77.1591 136.128 77.1591C137.01 77.1591 137.772 77.3485 138.412 77.7273C139.056 78.1023 139.552 78.6288 139.901 79.3068C140.249 79.9811 140.423 80.7689 140.423 81.6705C140.423 82.5644 140.249 83.3504 139.901 84.0284C139.552 84.7027 139.056 85.2292 138.412 85.608C137.772 85.983 137.01 86.1705 136.128 86.1705ZM136.139 84.2955C136.541 84.2955 136.876 84.1818 137.145 83.9545C137.414 83.7235 137.616 83.4091 137.753 83.0114C137.893 82.6136 137.963 82.161 137.963 81.6534C137.963 81.1458 137.893 80.6932 137.753 80.2955C137.616 79.8977 137.414 79.5833 137.145 79.3523C136.876 79.1212 136.541 79.0057 136.139 79.0057C135.734 79.0057 135.393 79.1212 135.116 79.3523C134.844 79.5833 134.637 79.8977 134.497 80.2955C134.361 80.6932 134.293 81.1458 134.293 81.6534C134.293 82.161 134.361 82.6136 134.497 83.0114C134.637 83.4091 134.844 83.7235 135.116 83.9545C135.393 84.1818 135.734 84.2955 136.139 84.2955Z" fill="#212528"/>
<path d="M156.175 76.9125L160 80.7291L163.825 76.9125L165 78.0875L160 83.0875L155 78.0875L156.175 76.9125Z" fill="#5D6164"/>
<rect x="247" y="65" width="30" height="30" rx="15" fill="white"/>
<path d="M266.193 84.5L267.25 83.4425L263.815 80L267.25 76.5575L266.193 75.5L261.693 80L266.193 84.5Z" fill="#5D6164"/>
<path d="M261.25 84.5L262.307 83.4425L258.872 80L262.307 76.5575L261.25 75.5L256.75 80L261.25 84.5Z" fill="#5D6164"/>
<rect width="240" height="50" transform="translate(53 104)" fill="white"/>
<g filter="url(#filter1_d_2076_27949)">
<rect x="71" y="110" width="122" height="36" rx="8" fill="#E2F0FF" shape-rendering="crispEdges"/>
<path d="M97.544 125.765L98.234 126.455L91.439 133.25H90.749V132.56L97.544 125.765ZM100.244 121.25C100.057 121.25 99.8615 121.325 99.719 121.467L98.3465 122.84L101.159 125.652L102.532 124.28C102.824 123.987 102.824 123.515 102.532 123.223L100.777 121.467C100.627 121.317 100.439 121.25 100.244 121.25ZM97.544 123.643L89.249 131.938V134.75H92.0615L100.357 126.455L97.544 123.643Z" fill="#1E75BA"/>
<path d="M122.575 126.129H121.024C120.964 125.798 120.853 125.506 120.691 125.254C120.529 125.002 120.33 124.789 120.094 124.613C119.859 124.437 119.596 124.305 119.304 124.215C119.016 124.126 118.709 124.081 118.384 124.081C117.798 124.081 117.272 124.228 116.808 124.523C116.348 124.818 115.983 125.251 115.714 125.821C115.449 126.391 115.317 127.087 115.317 127.909C115.317 128.738 115.449 129.437 115.714 130.007C115.983 130.577 116.349 131.008 116.813 131.3C117.277 131.591 117.799 131.737 118.379 131.737C118.701 131.737 119.006 131.694 119.294 131.608C119.586 131.518 119.849 131.388 120.085 131.215C120.32 131.043 120.519 130.832 120.681 130.584C120.847 130.332 120.961 130.044 121.024 129.719L122.575 129.724C122.492 130.224 122.332 130.685 122.093 131.106C121.858 131.523 121.554 131.885 121.183 132.19C120.815 132.491 120.394 132.725 119.92 132.891C119.446 133.056 118.929 133.139 118.369 133.139C117.488 133.139 116.702 132.93 116.013 132.513C115.323 132.092 114.78 131.49 114.382 130.708C113.988 129.926 113.79 128.993 113.79 127.909C113.79 126.822 113.989 125.889 114.387 125.11C114.785 124.328 115.328 123.728 116.018 123.31C116.707 122.889 117.491 122.679 118.369 122.679C118.91 122.679 119.413 122.757 119.881 122.913C120.351 123.065 120.774 123.29 121.148 123.589C121.523 123.884 121.833 124.245 122.078 124.673C122.323 125.097 122.489 125.582 122.575 126.129ZM127.511 133.154C126.795 133.154 126.17 132.99 125.637 132.662C125.103 132.334 124.689 131.875 124.394 131.285C124.099 130.695 123.951 130.005 123.951 129.217C123.951 128.424 124.099 127.732 124.394 127.138C124.689 126.545 125.103 126.085 125.637 125.756C126.17 125.428 126.795 125.264 127.511 125.264C128.227 125.264 128.852 125.428 129.385 125.756C129.919 126.085 130.333 126.545 130.628 127.138C130.923 127.732 131.07 128.424 131.07 129.217C131.07 130.005 130.923 130.695 130.628 131.285C130.333 131.875 129.919 132.334 129.385 132.662C128.852 132.99 128.227 133.154 127.511 133.154ZM127.516 131.906C127.98 131.906 128.364 131.784 128.669 131.538C128.974 131.293 129.2 130.967 129.345 130.559C129.494 130.151 129.569 129.702 129.569 129.212C129.569 128.724 129.494 128.277 129.345 127.869C129.2 127.458 128.974 127.129 128.669 126.88C128.364 126.631 127.98 126.507 127.516 126.507C127.048 126.507 126.661 126.631 126.352 126.88C126.048 127.129 125.82 127.458 125.671 127.869C125.526 128.277 125.453 128.724 125.453 129.212C125.453 129.702 125.526 130.151 125.671 130.559C125.82 130.967 126.048 131.293 126.352 131.538C126.661 131.784 127.048 131.906 127.516 131.906ZM132.73 133V125.364H134.157V126.607H134.251C134.41 126.186 134.67 125.857 135.032 125.622C135.393 125.384 135.825 125.264 136.329 125.264C136.84 125.264 137.267 125.384 137.612 125.622C137.96 125.861 138.217 126.189 138.382 126.607H138.462C138.644 126.199 138.934 125.874 139.332 125.632C139.73 125.387 140.204 125.264 140.754 125.264C141.447 125.264 142.012 125.481 142.449 125.915C142.89 126.35 143.11 127.004 143.11 127.879V133H141.624V128.018C141.624 127.501 141.483 127.127 141.201 126.895C140.92 126.663 140.583 126.547 140.192 126.547C139.708 126.547 139.332 126.696 139.064 126.994C138.795 127.289 138.661 127.669 138.661 128.133V133H137.179V127.924C137.179 127.51 137.05 127.177 136.792 126.925C136.533 126.673 136.197 126.547 135.782 126.547C135.501 126.547 135.24 126.621 135.002 126.771C134.766 126.916 134.576 127.12 134.43 127.382C134.288 127.644 134.216 127.947 134.216 128.292V133H132.73ZM145.103 135.864V125.364H146.555V126.602H146.679C146.765 126.442 146.889 126.259 147.052 126.05C147.214 125.841 147.439 125.659 147.728 125.503C148.016 125.344 148.397 125.264 148.871 125.264C149.488 125.264 150.038 125.42 150.522 125.732C151.006 126.043 151.385 126.492 151.66 127.079C151.939 127.665 152.078 128.371 152.078 129.197C152.078 130.022 151.94 130.73 151.665 131.32C151.39 131.906 151.012 132.359 150.532 132.677C150.051 132.992 149.503 133.149 148.886 133.149C148.422 133.149 148.043 133.071 147.748 132.915C147.456 132.76 147.227 132.577 147.062 132.369C146.896 132.16 146.768 131.974 146.679 131.812H146.589V135.864H145.103ZM146.559 129.182C146.559 129.719 146.637 130.189 146.793 130.594C146.949 130.998 147.174 131.315 147.469 131.543C147.764 131.769 148.126 131.881 148.553 131.881C148.997 131.881 149.368 131.764 149.667 131.528C149.965 131.29 150.19 130.967 150.343 130.559C150.499 130.151 150.577 129.692 150.577 129.182C150.577 128.678 150.5 128.226 150.348 127.825C150.199 127.424 149.973 127.107 149.672 126.875C149.373 126.643 149.001 126.527 148.553 126.527C148.122 126.527 147.758 126.638 147.459 126.86C147.164 127.082 146.941 127.392 146.788 127.79C146.636 128.187 146.559 128.652 146.559 129.182ZM156.96 133.154C156.244 133.154 155.619 132.99 155.086 132.662C154.552 132.334 154.138 131.875 153.843 131.285C153.548 130.695 153.4 130.005 153.4 129.217C153.4 128.424 153.548 127.732 153.843 127.138C154.138 126.545 154.552 126.085 155.086 125.756C155.619 125.428 156.244 125.264 156.96 125.264C157.676 125.264 158.301 125.428 158.834 125.756C159.368 126.085 159.782 126.545 160.077 127.138C160.372 127.732 160.52 128.424 160.52 129.217C160.52 130.005 160.372 130.695 160.077 131.285C159.782 131.875 159.368 132.334 158.834 132.662C158.301 132.99 157.676 133.154 156.96 133.154ZM156.965 131.906C157.429 131.906 157.814 131.784 158.118 131.538C158.423 131.293 158.649 130.967 158.795 130.559C158.944 130.151 159.018 129.702 159.018 129.212C159.018 128.724 158.944 128.277 158.795 127.869C158.649 127.458 158.423 127.129 158.118 126.88C157.814 126.631 157.429 126.507 156.965 126.507C156.498 126.507 156.11 126.631 155.802 126.88C155.497 127.129 155.27 127.458 155.121 127.869C154.975 128.277 154.902 128.724 154.902 129.212C154.902 129.702 154.975 130.151 155.121 130.559C155.27 130.967 155.497 131.293 155.802 131.538C156.11 131.784 156.498 131.906 156.965 131.906ZM167.901 127.228L166.554 127.467C166.498 127.294 166.408 127.13 166.286 126.974C166.166 126.819 166.004 126.691 165.798 126.592C165.593 126.492 165.336 126.442 165.028 126.442C164.607 126.442 164.255 126.537 163.974 126.726C163.692 126.911 163.551 127.152 163.551 127.447C163.551 127.702 163.646 127.907 163.835 128.063C164.023 128.219 164.328 128.347 164.749 128.446L165.962 128.724C166.665 128.887 167.189 129.137 167.533 129.475C167.878 129.813 168.05 130.252 168.05 130.793C168.05 131.25 167.918 131.658 167.653 132.016C167.391 132.37 167.025 132.649 166.554 132.851C166.087 133.053 165.545 133.154 164.928 133.154C164.073 133.154 163.375 132.972 162.835 132.607C162.295 132.239 161.964 131.717 161.841 131.041L163.278 130.822C163.367 131.197 163.551 131.48 163.83 131.673C164.108 131.862 164.471 131.956 164.918 131.956C165.406 131.956 165.795 131.855 166.087 131.653C166.378 131.447 166.524 131.197 166.524 130.902C166.524 130.663 166.435 130.463 166.256 130.3C166.08 130.138 165.81 130.015 165.445 129.933L164.153 129.649C163.44 129.487 162.913 129.228 162.572 128.874C162.234 128.519 162.065 128.07 162.065 127.526C162.065 127.076 162.191 126.681 162.442 126.343C162.694 126.005 163.042 125.741 163.487 125.553C163.931 125.36 164.439 125.264 165.013 125.264C165.838 125.264 166.488 125.443 166.962 125.801C167.436 126.156 167.749 126.631 167.901 127.228ZM172.976 133.154C172.224 133.154 171.576 132.993 171.032 132.672C170.492 132.347 170.074 131.891 169.779 131.305C169.488 130.715 169.342 130.024 169.342 129.232C169.342 128.449 169.488 127.76 169.779 127.163C170.074 126.567 170.485 126.101 171.012 125.766C171.543 125.432 172.162 125.264 172.872 125.264C173.302 125.264 173.72 125.335 174.124 125.478C174.529 125.621 174.892 125.844 175.213 126.149C175.535 126.454 175.788 126.85 175.974 127.337C176.16 127.821 176.252 128.41 176.252 129.102V129.629H170.182V128.516H174.796C174.796 128.125 174.716 127.778 174.557 127.477C174.398 127.172 174.174 126.931 173.886 126.756C173.601 126.58 173.266 126.492 172.882 126.492C172.464 126.492 172.099 126.595 171.788 126.8C171.48 127.003 171.241 127.268 171.072 127.596C170.906 127.921 170.823 128.274 170.823 128.655V129.525C170.823 130.035 170.913 130.469 171.092 130.827C171.274 131.185 171.528 131.459 171.852 131.648C172.177 131.833 172.557 131.926 172.991 131.926C173.273 131.926 173.53 131.886 173.762 131.807C173.994 131.724 174.194 131.601 174.363 131.439C174.532 131.277 174.661 131.076 174.751 130.837L176.158 131.091C176.045 131.505 175.843 131.868 175.551 132.18C175.263 132.488 174.9 132.728 174.463 132.901C174.028 133.07 173.533 133.154 172.976 133.154Z" fill="#1157A6"/>
<rect x="71.5" y="110.5" width="121" height="35" rx="7.5" stroke="#E2F0FF" shape-rendering="crispEdges"/>
</g>
<rect width="240" height="40" transform="translate(53 154)" fill="white"/>
<g clip-path="url(#clip1_2076_27949)">
<path d="M81.5001 167.333V173.167H73.3084L72.8167 173.658L72.3334 174.142V167.333H81.5001ZM82.3334 165.667H71.5001C71.0417 165.667 70.6667 166.042 70.6667 166.5V178.167L74.0001 174.833H82.3334C82.7917 174.833 83.1667 174.458 83.1667 174V166.5C83.1667 166.042 82.7917 165.667 82.3334 165.667ZM86.5001 169H84.8334V176.5H74.0001V178.167C74.0001 178.625 74.3751 179 74.8334 179H84.0001L87.3334 182.333V169.833C87.3334 169.375 86.9584 169 86.5001 169Z" fill="#5D6164"/>
</g>
<path d="M114.426 172H113.193C113.12 171.645 112.993 171.334 112.81 171.065C112.631 170.797 112.413 170.571 112.154 170.389C111.899 170.204 111.616 170.064 111.304 169.972C110.992 169.879 110.668 169.832 110.33 169.832C109.713 169.832 109.155 169.988 108.654 170.3C108.157 170.611 107.761 171.07 107.466 171.677C107.174 172.283 107.028 173.027 107.028 173.909C107.028 174.791 107.174 175.535 107.466 176.141C107.761 176.748 108.157 177.207 108.654 177.518C109.155 177.83 109.713 177.986 110.33 177.986C110.668 177.986 110.992 177.939 111.304 177.847C111.616 177.754 111.899 177.616 112.154 177.434C112.413 177.248 112.631 177.021 112.81 176.753C112.993 176.481 113.12 176.17 113.193 175.818H114.426C114.333 176.339 114.164 176.804 113.919 177.215C113.674 177.626 113.369 177.976 113.004 178.264C112.64 178.549 112.23 178.766 111.776 178.915C111.326 179.065 110.843 179.139 110.33 179.139C109.461 179.139 108.689 178.927 108.013 178.503C107.337 178.079 106.805 177.475 106.417 176.693C106.029 175.911 105.835 174.983 105.835 173.909C105.835 172.835 106.029 171.907 106.417 171.125C106.805 170.343 107.337 169.74 108.013 169.315C108.689 168.891 109.461 168.679 110.33 168.679C110.843 168.679 111.326 168.754 111.776 168.903C112.23 169.052 112.64 169.271 113.004 169.559C113.369 169.844 113.674 170.192 113.919 170.603C114.164 171.011 114.333 171.476 114.426 172ZM117.433 174.406V179H116.259V168.818H117.433V172.557H117.532C117.711 172.162 117.98 171.849 118.338 171.617C118.699 171.382 119.179 171.264 119.779 171.264C120.3 171.264 120.755 171.369 121.146 171.577C121.538 171.783 121.841 172.099 122.056 172.527C122.275 172.951 122.384 173.491 122.384 174.148V179H121.211V174.227C121.211 173.621 121.054 173.152 120.739 172.82C120.427 172.486 119.995 172.318 119.441 172.318C119.057 172.318 118.712 172.399 118.407 172.562C118.106 172.724 117.867 172.961 117.691 173.273C117.519 173.584 117.433 173.962 117.433 174.406ZM126.778 179.179C126.294 179.179 125.855 179.088 125.461 178.906C125.066 178.72 124.753 178.453 124.521 178.105C124.289 177.754 124.173 177.33 124.173 176.832C124.173 176.395 124.259 176.04 124.431 175.768C124.604 175.493 124.834 175.278 125.123 175.122C125.411 174.966 125.729 174.85 126.077 174.774C126.428 174.695 126.781 174.632 127.136 174.585C127.6 174.526 127.976 174.481 128.265 174.451C128.556 174.418 128.768 174.363 128.901 174.287C129.037 174.211 129.105 174.078 129.105 173.889V173.849C129.105 173.359 128.971 172.978 128.702 172.706C128.437 172.434 128.034 172.298 127.494 172.298C126.934 172.298 126.495 172.421 126.176 172.666C125.858 172.911 125.635 173.173 125.505 173.452L124.392 173.054C124.591 172.59 124.856 172.229 125.187 171.97C125.522 171.708 125.886 171.526 126.281 171.423C126.679 171.317 127.07 171.264 127.454 171.264C127.699 171.264 127.981 171.294 128.299 171.354C128.621 171.41 128.931 171.528 129.229 171.707C129.531 171.886 129.781 172.156 129.98 172.517C130.179 172.878 130.278 173.362 130.278 173.969V179H129.105V177.966H129.045C128.966 178.132 128.833 178.309 128.647 178.498C128.462 178.687 128.215 178.848 127.907 178.98C127.598 179.113 127.222 179.179 126.778 179.179ZM126.957 178.125C127.421 178.125 127.812 178.034 128.13 177.852C128.452 177.669 128.694 177.434 128.856 177.146C129.022 176.857 129.105 176.554 129.105 176.236V175.162C129.055 175.222 128.946 175.276 128.777 175.326C128.611 175.372 128.419 175.414 128.2 175.45C127.984 175.483 127.774 175.513 127.569 175.54C127.366 175.563 127.202 175.583 127.076 175.599C126.771 175.639 126.486 175.704 126.221 175.793C125.959 175.879 125.747 176.01 125.585 176.186C125.426 176.358 125.346 176.594 125.346 176.892C125.346 177.3 125.497 177.608 125.799 177.817C126.104 178.022 126.49 178.125 126.957 178.125ZM135.741 171.364V172.358H131.783V171.364H135.741ZM132.937 169.534H134.11V176.812C134.11 177.144 134.158 177.393 134.254 177.558C134.354 177.721 134.479 177.83 134.632 177.886C134.788 177.939 134.952 177.966 135.124 177.966C135.253 177.966 135.359 177.959 135.442 177.946C135.525 177.929 135.591 177.916 135.641 177.906L135.88 178.96C135.8 178.99 135.689 179.02 135.547 179.05C135.404 179.083 135.224 179.099 135.005 179.099C134.673 179.099 134.349 179.028 134.03 178.886C133.715 178.743 133.454 178.526 133.245 178.234C133.039 177.943 132.937 177.575 132.937 177.131V169.534Z" fill="#3F4346"/>
<rect width="240" height="40" transform="translate(53 194)" fill="white"/>
<path d="M84.8333 206.5H73.1667C72.25 206.5 71.5 207.25 71.5 208.167V219.833C71.5 220.75 72.2417 221.5 73.1667 221.5H84.8333C85.75 221.5 86.5 220.75 86.5 219.833V208.167C86.5 207.25 85.75 206.5 84.8333 206.5ZM84.8333 219.833H73.1667V217.333H76.1333C76.7083 218.325 77.775 219 79.0083 219C80.2417 219 81.3 218.325 81.8833 217.333H84.8333V219.833ZM84.8333 215.667H80.675C80.675 216.583 79.925 217.333 79.0083 217.333C78.0917 217.333 77.3417 216.583 77.3417 215.667H73.1667V208.167H84.8333V215.667Z" fill="#5D6164"/>
<path d="M107.466 208.818V219H106.233V208.818H107.466ZM110.952 214.406V219H109.779V211.364H110.912V212.557H111.012C111.191 212.169 111.463 211.857 111.827 211.622C112.192 211.384 112.662 211.264 113.239 211.264C113.756 211.264 114.209 211.37 114.596 211.582C114.984 211.791 115.286 212.109 115.501 212.537C115.717 212.961 115.824 213.498 115.824 214.148V219H114.651V214.227C114.651 213.627 114.495 213.16 114.184 212.825C113.872 212.487 113.445 212.318 112.901 212.318C112.527 212.318 112.192 212.399 111.897 212.562C111.605 212.724 111.375 212.961 111.206 213.273C111.037 213.584 110.952 213.962 110.952 214.406ZM118.127 219V208.818H119.301V212.577H119.4C119.486 212.444 119.606 212.275 119.758 212.07C119.914 211.861 120.136 211.675 120.424 211.513C120.716 211.347 121.11 211.264 121.608 211.264C122.251 211.264 122.817 211.425 123.308 211.746C123.798 212.068 124.181 212.524 124.456 213.114C124.731 213.704 124.869 214.4 124.869 215.202C124.869 216.01 124.731 216.711 124.456 217.305C124.181 217.895 123.8 218.352 123.313 218.677C122.826 218.998 122.264 219.159 121.627 219.159C121.137 219.159 120.744 219.078 120.449 218.915C120.154 218.75 119.927 218.562 119.768 218.354C119.609 218.142 119.486 217.966 119.4 217.827H119.261V219H118.127ZM119.281 215.182C119.281 215.759 119.365 216.267 119.534 216.708C119.703 217.146 119.95 217.489 120.275 217.737C120.6 217.982 120.998 218.105 121.468 218.105C121.959 218.105 122.368 217.976 122.696 217.717C123.028 217.455 123.276 217.104 123.442 216.663C123.611 216.219 123.696 215.725 123.696 215.182C123.696 214.645 123.613 214.161 123.447 213.73C123.285 213.296 123.038 212.953 122.706 212.701C122.378 212.446 121.966 212.318 121.468 212.318C120.991 212.318 120.59 212.439 120.265 212.681C119.94 212.92 119.695 213.254 119.529 213.685C119.364 214.113 119.281 214.612 119.281 215.182ZM129.766 219.159C129.077 219.159 128.472 218.995 127.951 218.667C127.434 218.339 127.03 217.88 126.738 217.29C126.45 216.7 126.306 216.01 126.306 215.222C126.306 214.426 126.45 213.732 126.738 213.138C127.03 212.545 127.434 212.085 127.951 211.756C128.472 211.428 129.077 211.264 129.766 211.264C130.455 211.264 131.059 211.428 131.576 211.756C132.096 212.085 132.5 212.545 132.789 213.138C133.08 213.732 133.226 214.426 133.226 215.222C133.226 216.01 133.08 216.7 132.789 217.29C132.5 217.88 132.096 218.339 131.576 218.667C131.059 218.995 130.455 219.159 129.766 219.159ZM129.766 218.105C130.29 218.105 130.721 217.971 131.059 217.702C131.397 217.434 131.647 217.081 131.809 216.643C131.972 216.206 132.053 215.732 132.053 215.222C132.053 214.711 131.972 214.236 131.809 213.795C131.647 213.354 131.397 212.998 131.059 212.726C130.721 212.454 130.29 212.318 129.766 212.318C129.242 212.318 128.811 212.454 128.473 212.726C128.135 212.998 127.885 213.354 127.723 213.795C127.56 214.236 127.479 214.711 127.479 215.222C127.479 215.732 127.56 216.206 127.723 216.643C127.885 217.081 128.135 217.434 128.473 217.702C128.811 217.971 129.242 218.105 129.766 218.105ZM135.578 211.364L137.407 214.486L139.237 211.364H140.589L138.123 215.182L140.589 219H139.237L137.407 216.037L135.578 219H134.225L136.652 215.182L134.225 211.364H135.578Z" fill="#3F4346"/>
<path d="M263.175 210.912L267 214.729L270.825 210.912L272 212.087L267 217.087L262 212.087L263.175 210.912Z" fill="#5D6164"/>
<rect width="240" height="40" transform="translate(53 234)" fill="#F2BE55" fill-opacity="0.17"/>
<path d="M84.8333 246.5H73.1667C72.25 246.5 71.5 247.25 71.5 248.167V259.833C71.5 260.75 72.25 261.5 73.1667 261.5H84.8333C85.75 261.5 86.5 260.75 86.5 259.833V248.167C86.5 247.25 85.75 246.5 84.8333 246.5ZM84.8333 259.833H73.1667V248.167H84.8333V259.833Z" fill="#5D6164"/>
<path d="M76.5 254H74.8333V258.167H76.5V254Z" fill="#5D6164"/>
<path d="M83.1667 249.833H81.5V258.167H83.1667V249.833Z" fill="#5D6164"/>
<path d="M79.8333 255.667H78.1667V258.167H79.8333V255.667Z" fill="#5D6164"/>
<path d="M79.8333 252.333H78.1667V254H79.8333V252.333Z" fill="#5D6164"/>
<path d="M106.651 259H105.358L109.097 248.818H110.369L114.108 259H112.815L109.773 250.429H109.693L106.651 259ZM107.128 255.023H112.338V256.116H107.128V255.023ZM116.708 254.406V259H115.535V251.364H116.668V252.557H116.768C116.947 252.169 117.219 251.857 117.583 251.622C117.948 251.384 118.418 251.264 118.995 251.264C119.512 251.264 119.964 251.37 120.352 251.582C120.74 251.791 121.042 252.109 121.257 252.537C121.473 252.961 121.58 253.498 121.58 254.148V259H120.407V254.227C120.407 253.627 120.251 253.16 119.94 252.825C119.628 252.487 119.201 252.318 118.657 252.318C118.282 252.318 117.948 252.399 117.653 252.562C117.361 252.724 117.131 252.961 116.962 253.273C116.793 253.584 116.708 253.962 116.708 254.406ZM125.971 259.179C125.488 259.179 125.048 259.088 124.654 258.906C124.26 258.72 123.946 258.453 123.714 258.105C123.482 257.754 123.366 257.33 123.366 256.832C123.366 256.395 123.452 256.04 123.625 255.768C123.797 255.493 124.028 255.278 124.316 255.122C124.604 254.966 124.922 254.85 125.27 254.774C125.622 254.695 125.975 254.632 126.329 254.585C126.793 254.526 127.17 254.481 127.458 254.451C127.75 254.418 127.962 254.363 128.094 254.287C128.23 254.211 128.298 254.078 128.298 253.889V253.849C128.298 253.359 128.164 252.978 127.895 252.706C127.63 252.434 127.228 252.298 126.687 252.298C126.127 252.298 125.688 252.421 125.37 252.666C125.052 252.911 124.828 253.173 124.699 253.452L123.585 253.054C123.784 252.59 124.049 252.229 124.381 251.97C124.715 251.708 125.08 251.526 125.474 251.423C125.872 251.317 126.263 251.264 126.648 251.264C126.893 251.264 127.175 251.294 127.493 251.354C127.814 251.41 128.124 251.528 128.422 251.707C128.724 251.886 128.974 252.156 129.173 252.517C129.372 252.878 129.471 253.362 129.471 253.969V259H128.298V257.966H128.238C128.159 258.132 128.026 258.309 127.841 258.498C127.655 258.687 127.408 258.848 127.1 258.98C126.792 259.113 126.416 259.179 125.971 259.179ZM126.15 258.125C126.614 258.125 127.006 258.034 127.324 257.852C127.645 257.669 127.887 257.434 128.05 257.146C128.215 256.857 128.298 256.554 128.298 256.236V255.162C128.248 255.222 128.139 255.276 127.97 255.326C127.804 255.372 127.612 255.414 127.393 255.45C127.178 255.483 126.967 255.513 126.762 255.54C126.56 255.563 126.396 255.583 126.27 255.599C125.965 255.639 125.68 255.704 125.415 255.793C125.153 255.879 124.941 256.01 124.778 256.186C124.619 256.358 124.54 256.594 124.54 256.892C124.54 257.3 124.69 257.608 124.992 257.817C125.297 258.022 125.683 258.125 126.15 258.125ZM132.786 248.818V259H131.613V248.818H132.786ZM135.691 261.864C135.492 261.864 135.315 261.847 135.159 261.814C135.003 261.784 134.895 261.754 134.836 261.724L135.134 260.69C135.419 260.763 135.671 260.79 135.89 260.77C136.108 260.75 136.302 260.652 136.471 260.477C136.644 260.304 136.801 260.024 136.944 259.636L137.162 259.04L134.339 251.364H135.611L137.719 257.449H137.799L139.907 251.364H141.18L137.938 260.114C137.792 260.508 137.612 260.835 137.396 261.093C137.181 261.355 136.93 261.549 136.645 261.675C136.364 261.801 136.046 261.864 135.691 261.864ZM146.049 251.364V252.358H142.092V251.364H146.049ZM143.245 249.534H144.419V256.812C144.419 257.144 144.467 257.393 144.563 257.558C144.662 257.721 144.788 257.83 144.941 257.886C145.096 257.939 145.26 257.966 145.433 257.966C145.562 257.966 145.668 257.959 145.751 257.946C145.834 257.929 145.9 257.916 145.95 257.906L146.188 258.96C146.109 258.99 145.998 259.02 145.855 259.05C145.713 259.083 145.532 259.099 145.313 259.099C144.982 259.099 144.657 259.028 144.339 258.886C144.024 258.743 143.762 258.526 143.553 258.234C143.348 257.943 143.245 257.575 143.245 257.131V249.534ZM147.814 259V251.364H148.987V259H147.814ZM148.411 250.091C148.182 250.091 147.985 250.013 147.819 249.857C147.657 249.701 147.575 249.514 147.575 249.295C147.575 249.077 147.657 248.889 147.819 248.734C147.985 248.578 148.182 248.5 148.411 248.5C148.639 248.5 148.835 248.578 148.997 248.734C149.163 248.889 149.246 249.077 149.246 249.295C149.246 249.514 149.163 249.701 148.997 249.857C148.835 250.013 148.639 250.091 148.411 250.091ZM154.239 259.159C153.523 259.159 152.906 258.99 152.389 258.652C151.872 258.314 151.474 257.848 151.196 257.255C150.918 256.662 150.778 255.984 150.778 255.222C150.778 254.446 150.921 253.762 151.206 253.168C151.494 252.572 151.895 252.106 152.409 251.771C152.926 251.433 153.529 251.264 154.219 251.264C154.756 251.264 155.24 251.364 155.67 251.562C156.101 251.761 156.454 252.04 156.729 252.398C157.004 252.756 157.175 253.173 157.241 253.651H156.068C155.979 253.303 155.78 252.994 155.472 252.726C155.167 252.454 154.756 252.318 154.239 252.318C153.781 252.318 153.38 252.437 153.036 252.676C152.694 252.911 152.427 253.245 152.235 253.675C152.046 254.103 151.952 254.605 151.952 255.182C151.952 255.772 152.045 256.286 152.23 256.723C152.419 257.161 152.684 257.5 153.026 257.742C153.37 257.984 153.775 258.105 154.239 258.105C154.544 258.105 154.82 258.052 155.069 257.946C155.317 257.84 155.528 257.688 155.7 257.489C155.873 257.29 155.995 257.051 156.068 256.773H157.241C157.175 257.223 157.011 257.629 156.749 257.991C156.491 258.349 156.148 258.634 155.72 258.846C155.296 259.055 154.802 259.159 154.239 259.159ZM164.366 253.074L163.312 253.372C163.246 253.196 163.148 253.026 163.018 252.86C162.893 252.691 162.72 252.552 162.501 252.442C162.283 252.333 162.003 252.278 161.661 252.278C161.194 252.278 160.804 252.386 160.493 252.602C160.185 252.814 160.031 253.084 160.031 253.412C160.031 253.704 160.137 253.934 160.349 254.103C160.561 254.272 160.892 254.413 161.343 254.526L162.477 254.804C163.159 254.97 163.668 255.223 164.003 255.565C164.338 255.903 164.505 256.339 164.505 256.872C164.505 257.31 164.379 257.701 164.127 258.045C163.879 258.39 163.531 258.662 163.083 258.861C162.636 259.06 162.115 259.159 161.522 259.159C160.743 259.159 160.098 258.99 159.588 258.652C159.078 258.314 158.754 257.82 158.619 257.17L159.732 256.892C159.838 257.303 160.039 257.611 160.334 257.817C160.632 258.022 161.022 258.125 161.502 258.125C162.049 258.125 162.483 258.009 162.805 257.777C163.129 257.542 163.292 257.26 163.292 256.932C163.292 256.667 163.199 256.445 163.013 256.266C162.828 256.083 162.543 255.947 162.158 255.858L160.886 255.56C160.186 255.394 159.673 255.137 159.344 254.789C159.02 254.438 158.857 253.999 158.857 253.472C158.857 253.041 158.978 252.66 159.22 252.328C159.465 251.997 159.799 251.737 160.219 251.548C160.644 251.359 161.124 251.264 161.661 251.264C162.417 251.264 163.01 251.43 163.441 251.761C163.875 252.093 164.183 252.53 164.366 253.074Z" fill="#3F4346"/>
<path d="M263.175 257.087L267 253.271L270.825 257.087L272 255.912L267 250.912L262 255.912L263.175 257.087Z" fill="#5D6164"/>
<rect width="240" height="40" transform="translate(53 274)" fill="#F2BE55" fill-opacity="0.17"/>
<path d="M117.5 287.333V293.167H109.308L108.817 293.658L108.333 294.142V287.333H117.5ZM118.333 285.667H107.5C107.042 285.667 106.667 286.042 106.667 286.5V298.167L110 294.833H118.333C118.792 294.833 119.167 294.458 119.167 294V286.5C119.167 286.042 118.792 285.667 118.333 285.667ZM122.5 289H120.833V296.5H110V298.167C110 298.625 110.375 299 110.833 299H120L123.333 302.333V289.833C123.333 289.375 122.958 289 122.5 289Z" fill="#5D6164"/>
<path d="M150.426 292H149.193C149.12 291.645 148.993 291.334 148.81 291.065C148.631 290.797 148.413 290.571 148.154 290.389C147.899 290.204 147.616 290.064 147.304 289.972C146.992 289.879 146.668 289.832 146.33 289.832C145.713 289.832 145.155 289.988 144.654 290.3C144.157 290.611 143.761 291.07 143.466 291.677C143.174 292.283 143.028 293.027 143.028 293.909C143.028 294.791 143.174 295.535 143.466 296.141C143.761 296.748 144.157 297.207 144.654 297.518C145.155 297.83 145.713 297.986 146.33 297.986C146.668 297.986 146.992 297.939 147.304 297.847C147.616 297.754 147.899 297.616 148.154 297.434C148.413 297.248 148.631 297.021 148.81 296.753C148.993 296.481 149.12 296.17 149.193 295.818H150.426C150.333 296.339 150.164 296.804 149.919 297.215C149.674 297.626 149.369 297.976 149.004 298.264C148.64 298.549 148.23 298.766 147.776 298.915C147.326 299.065 146.843 299.139 146.33 299.139C145.461 299.139 144.689 298.927 144.013 298.503C143.337 298.079 142.805 297.475 142.417 296.693C142.029 295.911 141.835 294.983 141.835 293.909C141.835 292.835 142.029 291.907 142.417 291.125C142.805 290.343 143.337 289.74 144.013 289.315C144.689 288.891 145.461 288.679 146.33 288.679C146.843 288.679 147.326 288.754 147.776 288.903C148.23 289.052 148.64 289.271 149.004 289.559C149.369 289.844 149.674 290.192 149.919 290.603C150.164 291.011 150.333 291.476 150.426 292ZM153.433 294.406V299H152.259V288.818H153.433V292.557H153.532C153.711 292.162 153.98 291.849 154.338 291.617C154.699 291.382 155.179 291.264 155.779 291.264C156.3 291.264 156.755 291.369 157.146 291.577C157.538 291.783 157.841 292.099 158.056 292.527C158.275 292.951 158.384 293.491 158.384 294.148V299H157.211V294.227C157.211 293.621 157.054 293.152 156.739 292.82C156.427 292.486 155.995 292.318 155.441 292.318C155.057 292.318 154.712 292.399 154.407 292.562C154.106 292.724 153.867 292.961 153.691 293.273C153.519 293.584 153.433 293.962 153.433 294.406ZM162.778 299.179C162.294 299.179 161.855 299.088 161.461 298.906C161.066 298.72 160.753 298.453 160.521 298.105C160.289 297.754 160.173 297.33 160.173 296.832C160.173 296.395 160.259 296.04 160.431 295.768C160.604 295.493 160.834 295.278 161.123 295.122C161.411 294.966 161.729 294.85 162.077 294.774C162.428 294.695 162.781 294.632 163.136 294.585C163.6 294.526 163.976 294.481 164.265 294.451C164.556 294.418 164.768 294.363 164.901 294.287C165.037 294.211 165.105 294.078 165.105 293.889V293.849C165.105 293.359 164.971 292.978 164.702 292.706C164.437 292.434 164.034 292.298 163.494 292.298C162.934 292.298 162.495 292.421 162.176 292.666C161.858 292.911 161.635 293.173 161.505 293.452L160.392 293.054C160.591 292.59 160.856 292.229 161.187 291.97C161.522 291.708 161.886 291.526 162.281 291.423C162.679 291.317 163.07 291.264 163.454 291.264C163.699 291.264 163.981 291.294 164.299 291.354C164.621 291.41 164.931 291.528 165.229 291.707C165.531 291.886 165.781 292.156 165.98 292.517C166.179 292.878 166.278 293.362 166.278 293.969V299H165.105V297.966H165.045C164.966 298.132 164.833 298.309 164.647 298.498C164.462 298.687 164.215 298.848 163.907 298.98C163.598 299.113 163.222 299.179 162.778 299.179ZM162.957 298.125C163.421 298.125 163.812 298.034 164.13 297.852C164.452 297.669 164.694 297.434 164.856 297.146C165.022 296.857 165.105 296.554 165.105 296.236V295.162C165.055 295.222 164.946 295.276 164.777 295.326C164.611 295.372 164.419 295.414 164.2 295.45C163.984 295.483 163.774 295.513 163.569 295.54C163.366 295.563 163.202 295.583 163.076 295.599C162.771 295.639 162.486 295.704 162.221 295.793C161.959 295.879 161.747 296.01 161.585 296.186C161.426 296.358 161.346 296.594 161.346 296.892C161.346 297.3 161.497 297.608 161.799 297.817C162.104 298.022 162.49 298.125 162.957 298.125ZM171.741 291.364V292.358H167.783V291.364H171.741ZM168.937 289.534H170.11V296.812C170.11 297.144 170.158 297.393 170.254 297.558C170.354 297.721 170.479 297.83 170.632 297.886C170.788 297.939 170.952 297.966 171.124 297.966C171.253 297.966 171.359 297.959 171.442 297.946C171.525 297.929 171.591 297.916 171.641 297.906L171.88 298.96C171.8 298.99 171.689 299.02 171.547 299.05C171.404 299.083 171.224 299.099 171.005 299.099C170.673 299.099 170.349 299.028 170.03 298.886C169.715 298.743 169.454 298.526 169.245 298.234C169.039 297.943 168.937 297.575 168.937 297.131V289.534Z" fill="#3F4346"/>
<rect width="240" height="40" transform="translate(53 314)" fill="#F2BE55" fill-opacity="0.17"/>
<path d="M122.842 333.65L115.342 326.15C115.042 325.85 114.625 325.667 114.167 325.667H108.333C107.417 325.667 106.667 326.417 106.667 327.333V333.167C106.667 333.625 106.85 334.042 107.158 334.35L114.658 341.85C114.958 342.15 115.375 342.333 115.833 342.333C116.292 342.333 116.708 342.15 117.008 341.842L122.842 336.008C123.15 335.708 123.333 335.292 123.333 334.833C123.333 334.375 123.142 333.95 122.842 333.65ZM115.833 340.675L108.333 333.167V327.333H114.167V327.325L121.667 334.825L115.833 340.675Z" fill="#5D6164"/>
<path d="M110.417 330.667C111.107 330.667 111.667 330.107 111.667 329.417C111.667 328.726 111.107 328.167 110.417 328.167C109.726 328.167 109.167 328.726 109.167 329.417C109.167 330.107 109.726 330.667 110.417 330.667Z" fill="#5D6164"/>
<path d="M141.676 329.912V328.818H149.312V329.912H146.111V339H144.878V329.912H141.676ZM152.264 339.179C151.78 339.179 151.341 339.088 150.947 338.906C150.552 338.72 150.239 338.453 150.007 338.105C149.775 337.754 149.659 337.33 149.659 336.832C149.659 336.395 149.745 336.04 149.918 335.768C150.09 335.493 150.32 335.278 150.609 335.122C150.897 334.966 151.215 334.85 151.563 334.774C151.915 334.695 152.268 334.632 152.622 334.585C153.086 334.526 153.463 334.481 153.751 334.451C154.043 334.418 154.255 334.363 154.387 334.287C154.523 334.211 154.591 334.078 154.591 333.889V333.849C154.591 333.359 154.457 332.978 154.188 332.706C153.923 332.434 153.521 332.298 152.98 332.298C152.42 332.298 151.981 332.421 151.663 332.666C151.345 332.911 151.121 333.173 150.992 333.452L149.878 333.054C150.077 332.59 150.342 332.229 150.673 331.97C151.008 331.708 151.373 331.526 151.767 331.423C152.165 331.317 152.556 331.264 152.941 331.264C153.186 331.264 153.468 331.294 153.786 331.354C154.107 331.41 154.417 331.528 154.715 331.707C155.017 331.886 155.267 332.156 155.466 332.517C155.665 332.878 155.764 333.362 155.764 333.969V339H154.591V337.966H154.531C154.452 338.132 154.319 338.309 154.134 338.498C153.948 338.687 153.701 338.848 153.393 338.98C153.085 339.113 152.709 339.179 152.264 339.179ZM152.443 338.125C152.907 338.125 153.298 338.034 153.617 337.852C153.938 337.669 154.18 337.434 154.343 337.146C154.508 336.857 154.591 336.554 154.591 336.236V335.162C154.541 335.222 154.432 335.276 154.263 335.326C154.097 335.372 153.905 335.414 153.686 335.45C153.471 335.483 153.26 335.513 153.055 335.54C152.853 335.563 152.689 335.583 152.563 335.599C152.258 335.639 151.973 335.704 151.708 335.793C151.446 335.879 151.234 336.01 151.071 336.186C150.912 336.358 150.833 336.594 150.833 336.892C150.833 337.3 150.983 337.608 151.285 337.817C151.59 338.022 151.976 338.125 152.443 338.125ZM160.988 342.023C160.422 342.023 159.934 341.95 159.527 341.804C159.119 341.661 158.779 341.473 158.507 341.237C158.239 341.005 158.025 340.757 157.866 340.491L158.801 339.835C158.907 339.974 159.041 340.134 159.203 340.312C159.366 340.495 159.588 340.652 159.87 340.785C160.155 340.921 160.528 340.989 160.988 340.989C161.605 340.989 162.114 340.839 162.515 340.541C162.916 340.243 163.116 339.776 163.116 339.139V337.588H163.017C162.931 337.727 162.808 337.9 162.649 338.105C162.493 338.307 162.268 338.488 161.973 338.647C161.681 338.803 161.287 338.881 160.789 338.881C160.173 338.881 159.619 338.735 159.129 338.443C158.642 338.152 158.256 337.727 157.971 337.17C157.689 336.614 157.548 335.937 157.548 335.142C157.548 334.36 157.685 333.679 157.961 333.099C158.236 332.515 158.618 332.065 159.109 331.746C159.6 331.425 160.166 331.264 160.809 331.264C161.306 331.264 161.701 331.347 161.993 331.513C162.288 331.675 162.513 331.861 162.669 332.07C162.828 332.275 162.95 332.444 163.037 332.577H163.156V331.364H164.289V339.219C164.289 339.875 164.14 340.409 163.842 340.82C163.547 341.234 163.149 341.537 162.649 341.729C162.152 341.925 161.598 342.023 160.988 342.023ZM160.949 337.827C161.419 337.827 161.817 337.719 162.142 337.504C162.467 337.288 162.713 336.978 162.882 336.574C163.051 336.17 163.136 335.686 163.136 335.122C163.136 334.572 163.053 334.086 162.887 333.665C162.722 333.245 162.476 332.915 162.152 332.676C161.827 332.437 161.426 332.318 160.949 332.318C160.451 332.318 160.037 332.444 159.706 332.696C159.377 332.948 159.131 333.286 158.965 333.71C158.802 334.134 158.721 334.605 158.721 335.122C158.721 335.652 158.804 336.121 158.97 336.529C159.139 336.933 159.387 337.252 159.716 337.484C160.047 337.712 160.458 337.827 160.949 337.827ZM171.846 333.074L170.792 333.372C170.726 333.196 170.628 333.026 170.499 332.86C170.373 332.691 170.201 332.552 169.982 332.442C169.763 332.333 169.483 332.278 169.142 332.278C168.674 332.278 168.285 332.386 167.973 332.602C167.665 332.814 167.511 333.084 167.511 333.412C167.511 333.704 167.617 333.934 167.829 334.103C168.041 334.272 168.373 334.413 168.824 334.526L169.957 334.804C170.64 334.97 171.149 335.223 171.483 335.565C171.818 335.903 171.985 336.339 171.985 336.872C171.985 337.31 171.859 337.701 171.608 338.045C171.359 338.39 171.011 338.662 170.564 338.861C170.116 339.06 169.596 339.159 169.002 339.159C168.224 339.159 167.579 338.99 167.069 338.652C166.558 338.314 166.235 337.82 166.099 337.17L167.213 336.892C167.319 337.303 167.519 337.611 167.814 337.817C168.113 338.022 168.502 338.125 168.983 338.125C169.529 338.125 169.964 338.009 170.285 337.777C170.61 337.542 170.772 337.26 170.772 336.932C170.772 336.667 170.68 336.445 170.494 336.266C170.308 336.083 170.023 335.947 169.639 335.858L168.366 335.56C167.667 335.394 167.153 335.137 166.825 334.789C166.5 334.438 166.338 333.999 166.338 333.472C166.338 333.041 166.459 332.66 166.701 332.328C166.946 331.997 167.279 331.737 167.7 331.548C168.124 331.359 168.605 331.264 169.142 331.264C169.897 331.264 170.491 331.43 170.922 331.761C171.356 332.093 171.664 332.53 171.846 333.074Z" fill="#3F4346"/>
<rect width="240" height="40" transform="translate(53 354)" fill="#F2BE55" fill-opacity="0.17"/>
<path d="M111.667 377.333H118.333V379H111.667V377.333ZM111.667 374H118.333V375.667H111.667V374ZM116.667 365.667H110C109.083 365.667 108.333 366.417 108.333 367.333V380.667C108.333 381.583 109.075 382.333 109.992 382.333H120C120.917 382.333 121.667 381.583 121.667 380.667V370.667L116.667 365.667ZM120 380.667H110V367.333H115.833V371.5H120V380.667Z" fill="#5D6164"/>
<path d="M150.426 372H149.193C149.12 371.645 148.993 371.334 148.81 371.065C148.631 370.797 148.413 370.571 148.154 370.389C147.899 370.204 147.616 370.064 147.304 369.972C146.992 369.879 146.668 369.832 146.33 369.832C145.713 369.832 145.155 369.988 144.654 370.3C144.157 370.611 143.761 371.07 143.466 371.677C143.174 372.283 143.028 373.027 143.028 373.909C143.028 374.791 143.174 375.535 143.466 376.141C143.761 376.748 144.157 377.207 144.654 377.518C145.155 377.83 145.713 377.986 146.33 377.986C146.668 377.986 146.992 377.939 147.304 377.847C147.616 377.754 147.899 377.616 148.154 377.434C148.413 377.248 148.631 377.021 148.81 376.753C148.993 376.481 149.12 376.17 149.193 375.818H150.426C150.333 376.339 150.164 376.804 149.919 377.215C149.674 377.626 149.369 377.976 149.004 378.264C148.64 378.549 148.23 378.766 147.776 378.915C147.326 379.065 146.843 379.139 146.33 379.139C145.461 379.139 144.689 378.927 144.013 378.503C143.337 378.079 142.805 377.475 142.417 376.693C142.029 375.911 141.835 374.983 141.835 373.909C141.835 372.835 142.029 371.907 142.417 371.125C142.805 370.343 143.337 369.74 144.013 369.315C144.689 368.891 145.461 368.679 146.33 368.679C146.843 368.679 147.326 368.754 147.776 368.903C148.23 369.052 148.64 369.271 149.004 369.559C149.369 369.844 149.674 370.192 149.919 370.603C150.164 371.011 150.333 371.476 150.426 372ZM154.507 379.179C154.023 379.179 153.584 379.088 153.189 378.906C152.795 378.72 152.481 378.453 152.249 378.105C152.017 377.754 151.901 377.33 151.901 376.832C151.901 376.395 151.988 376.04 152.16 375.768C152.332 375.493 152.563 375.278 152.851 375.122C153.139 374.966 153.458 374.85 153.806 374.774C154.157 374.695 154.51 374.632 154.865 374.585C155.329 374.526 155.705 374.481 155.993 374.451C156.285 374.418 156.497 374.363 156.629 374.287C156.765 374.211 156.833 374.078 156.833 373.889V373.849C156.833 373.359 156.699 372.978 156.431 372.706C156.165 372.434 155.763 372.298 155.222 372.298C154.662 372.298 154.223 372.421 153.905 372.666C153.587 372.911 153.363 373.173 153.234 373.452L152.12 373.054C152.319 372.59 152.584 372.229 152.916 371.97C153.25 371.708 153.615 371.526 154.009 371.423C154.407 371.317 154.798 371.264 155.183 371.264C155.428 371.264 155.71 371.294 156.028 371.354C156.349 371.41 156.659 371.528 156.958 371.707C157.259 371.886 157.509 372.156 157.708 372.517C157.907 372.878 158.007 373.362 158.007 373.969V379H156.833V377.966H156.774C156.694 378.132 156.561 378.309 156.376 378.498C156.19 378.687 155.943 378.848 155.635 378.98C155.327 379.113 154.951 379.179 154.507 379.179ZM154.686 378.125C155.15 378.125 155.541 378.034 155.859 377.852C156.18 377.669 156.422 377.434 156.585 377.146C156.75 376.857 156.833 376.554 156.833 376.236V375.162C156.784 375.222 156.674 375.276 156.505 375.326C156.339 375.372 156.147 375.414 155.928 375.45C155.713 375.483 155.503 375.513 155.297 375.54C155.095 375.563 154.931 375.583 154.805 375.599C154.5 375.639 154.215 375.704 153.95 375.793C153.688 375.879 153.476 376.01 153.313 376.186C153.154 376.358 153.075 376.594 153.075 376.892C153.075 377.3 153.226 377.608 153.527 377.817C153.832 378.022 154.218 378.125 154.686 378.125ZM161.321 368.818V379H160.148V368.818H161.321ZM164.644 368.818V379H163.47V368.818H164.644ZM171.903 368.818V379H170.73V368.818H171.903ZM177.155 379.159C176.465 379.159 175.86 378.995 175.34 378.667C174.823 378.339 174.419 377.88 174.127 377.29C173.839 376.7 173.694 376.01 173.694 375.222C173.694 374.426 173.839 373.732 174.127 373.138C174.419 372.545 174.823 372.085 175.34 371.756C175.86 371.428 176.465 371.264 177.155 371.264C177.844 371.264 178.447 371.428 178.964 371.756C179.485 372.085 179.889 372.545 180.177 373.138C180.469 373.732 180.615 374.426 180.615 375.222C180.615 376.01 180.469 376.7 180.177 377.29C179.889 377.88 179.485 378.339 178.964 378.667C178.447 378.995 177.844 379.159 177.155 379.159ZM177.155 378.105C177.678 378.105 178.109 377.971 178.447 377.702C178.785 377.434 179.036 377.081 179.198 376.643C179.36 376.206 179.442 375.732 179.442 375.222C179.442 374.711 179.36 374.236 179.198 373.795C179.036 373.354 178.785 372.998 178.447 372.726C178.109 372.454 177.678 372.318 177.155 372.318C176.631 372.318 176.2 372.454 175.862 372.726C175.524 372.998 175.274 373.354 175.111 373.795C174.949 374.236 174.868 374.711 174.868 375.222C174.868 375.732 174.949 376.206 175.111 376.643C175.274 377.081 175.524 377.434 175.862 377.702C176.2 377.971 176.631 378.105 177.155 378.105ZM185.488 382.023C184.922 382.023 184.434 381.95 184.027 381.804C183.619 381.661 183.279 381.473 183.007 381.237C182.739 381.005 182.525 380.757 182.366 380.491L183.301 379.835C183.407 379.974 183.541 380.134 183.703 380.312C183.866 380.495 184.088 380.652 184.37 380.785C184.655 380.921 185.028 380.989 185.488 380.989C186.105 380.989 186.614 380.839 187.015 380.541C187.416 380.243 187.616 379.776 187.616 379.139V377.588H187.517C187.431 377.727 187.308 377.9 187.149 378.105C186.993 378.307 186.768 378.488 186.473 378.647C186.181 378.803 185.787 378.881 185.289 378.881C184.673 378.881 184.119 378.735 183.629 378.443C183.142 378.152 182.756 377.727 182.471 377.17C182.189 376.614 182.048 375.937 182.048 375.142C182.048 374.36 182.185 373.679 182.461 373.099C182.736 372.515 183.118 372.065 183.609 371.746C184.1 371.425 184.666 371.264 185.309 371.264C185.806 371.264 186.201 371.347 186.493 371.513C186.788 371.675 187.013 371.861 187.169 372.07C187.328 372.275 187.45 372.444 187.537 372.577H187.656V371.364H188.789V379.219C188.789 379.875 188.64 380.409 188.342 380.82C188.047 381.234 187.649 381.537 187.149 381.729C186.652 381.925 186.098 382.023 185.488 382.023ZM185.449 377.827C185.919 377.827 186.317 377.719 186.642 377.504C186.967 377.288 187.213 376.978 187.382 376.574C187.551 376.17 187.636 375.686 187.636 375.122C187.636 374.572 187.553 374.086 187.387 373.665C187.222 373.245 186.976 372.915 186.652 372.676C186.327 372.437 185.926 372.318 185.449 372.318C184.951 372.318 184.537 372.444 184.206 372.696C183.877 372.948 183.631 373.286 183.465 373.71C183.302 374.134 183.221 374.605 183.221 375.122C183.221 375.652 183.304 376.121 183.47 376.529C183.639 376.933 183.887 377.252 184.216 377.484C184.547 377.712 184.958 377.827 185.449 377.827ZM196.346 373.074L195.292 373.372C195.226 373.196 195.128 373.026 194.999 372.86C194.873 372.691 194.701 372.552 194.482 372.442C194.263 372.333 193.983 372.278 193.642 372.278C193.174 372.278 192.785 372.386 192.473 372.602C192.165 372.814 192.011 373.084 192.011 373.412C192.011 373.704 192.117 373.934 192.329 374.103C192.541 374.272 192.873 374.413 193.324 374.526L194.457 374.804C195.14 374.97 195.649 375.223 195.983 375.565C196.318 375.903 196.485 376.339 196.485 376.872C196.485 377.31 196.359 377.701 196.108 378.045C195.859 378.39 195.511 378.662 195.064 378.861C194.616 379.06 194.096 379.159 193.502 379.159C192.724 379.159 192.079 378.99 191.569 378.652C191.058 378.314 190.735 377.82 190.599 377.17L191.713 376.892C191.819 377.303 192.019 377.611 192.314 377.817C192.613 378.022 193.002 378.125 193.483 378.125C194.029 378.125 194.464 378.009 194.785 377.777C195.11 377.542 195.272 377.26 195.272 376.932C195.272 376.667 195.18 376.445 194.994 376.266C194.808 376.083 194.523 375.947 194.139 375.858L192.866 375.56C192.167 375.394 191.653 375.137 191.325 374.789C191 374.438 190.838 373.999 190.838 373.472C190.838 373.041 190.959 372.66 191.201 372.328C191.446 371.997 191.779 371.737 192.2 371.548C192.624 371.359 193.105 371.264 193.642 371.264C194.397 371.264 194.991 371.43 195.422 371.761C195.856 372.093 196.164 372.53 196.346 373.074Z" fill="#3F4346"/>
</g>
</g>
<g filter="url(#filter2_d_2076_27949)">
<rect x="393" y="133" width="180" height="40" rx="20" fill="white" shape-rendering="crispEdges"/>
<path d="M414 150.2H417V160H414V150.2ZM419.6 146H422.4V160H419.6V146ZM425.2 154H428V160H425.2V154Z" fill="#5D6164"/>
<path d="M446.856 158.24C445.709 158.24 444.736 157.987 443.936 157.48C443.136 156.973 442.525 156.269 442.104 155.368C441.688 154.467 441.48 153.424 441.48 152.24C441.48 151.056 441.688 150.013 442.104 149.112C442.525 148.211 443.136 147.507 443.936 147C444.736 146.493 445.709 146.24 446.856 146.24C448.189 146.24 449.285 146.579 450.144 147.256C451.008 147.933 451.603 148.845 451.928 149.992L450.48 150.376C450.245 149.517 449.827 148.84 449.224 148.344C448.621 147.848 447.832 147.6 446.856 147.6C445.997 147.6 445.283 147.795 444.712 148.184C444.141 148.573 443.712 149.117 443.424 149.816C443.136 150.509 442.989 151.317 442.984 152.24C442.979 153.157 443.12 153.965 443.408 154.664C443.696 155.357 444.128 155.901 444.704 156.296C445.28 156.685 445.997 156.88 446.856 156.88C447.832 156.88 448.621 156.632 449.224 156.136C449.827 155.635 450.245 154.957 450.48 154.104L451.928 154.488C451.603 155.629 451.008 156.541 450.144 157.224C449.285 157.901 448.189 158.24 446.856 158.24ZM459.835 158V153.672C459.835 153.261 459.797 152.867 459.723 152.488C459.653 152.109 459.528 151.771 459.347 151.472C459.171 151.168 458.931 150.928 458.627 150.752C458.328 150.576 457.949 150.488 457.491 150.488C457.133 150.488 456.808 150.549 456.515 150.672C456.227 150.789 455.979 150.971 455.771 151.216C455.563 151.461 455.4 151.771 455.283 152.144C455.171 152.512 455.115 152.947 455.115 153.448L454.179 153.16C454.179 152.323 454.328 151.605 454.627 151.008C454.931 150.405 455.355 149.944 455.899 149.624C456.448 149.299 457.093 149.136 457.835 149.136C458.395 149.136 458.872 149.224 459.267 149.4C459.661 149.576 459.989 149.811 460.251 150.104C460.512 150.392 460.717 150.717 460.867 151.08C461.016 151.437 461.12 151.803 461.179 152.176C461.243 152.544 461.275 152.893 461.275 153.224V158H459.835ZM453.675 158V146.48H454.955V152.84H455.115V158H453.675ZM465.81 158.24C465.165 158.24 464.624 158.123 464.186 157.888C463.754 157.648 463.426 157.333 463.202 156.944C462.984 156.555 462.874 156.128 462.874 155.664C462.874 155.211 462.96 154.819 463.13 154.488C463.306 154.152 463.552 153.875 463.866 153.656C464.181 153.432 464.557 153.256 464.994 153.128C465.405 153.016 465.864 152.92 466.37 152.84C466.882 152.755 467.4 152.677 467.922 152.608C468.445 152.539 468.933 152.472 469.386 152.408L468.874 152.704C468.89 151.936 468.736 151.368 468.41 151C468.09 150.632 467.536 150.448 466.746 150.448C466.224 150.448 465.765 150.568 465.37 150.808C464.981 151.043 464.706 151.427 464.546 151.96L463.194 151.552C463.402 150.795 463.805 150.2 464.402 149.768C465 149.336 465.786 149.12 466.762 149.12C467.546 149.12 468.218 149.261 468.778 149.544C469.344 149.821 469.749 150.243 469.994 150.808C470.117 151.075 470.194 151.365 470.226 151.68C470.258 151.989 470.274 152.315 470.274 152.656V158H469.01V155.928L469.306 156.12C468.981 156.819 468.525 157.347 467.938 157.704C467.357 158.061 466.648 158.24 465.81 158.24ZM466.026 157.048C466.538 157.048 466.981 156.957 467.354 156.776C467.733 156.589 468.037 156.347 468.266 156.048C468.496 155.744 468.645 155.413 468.714 155.056C468.794 154.789 468.837 154.493 468.842 154.168C468.853 153.837 468.858 153.584 468.858 153.408L469.354 153.624C468.89 153.688 468.434 153.749 467.986 153.808C467.538 153.867 467.114 153.931 466.714 154C466.314 154.064 465.954 154.141 465.634 154.232C465.4 154.307 465.178 154.403 464.97 154.52C464.768 154.637 464.602 154.789 464.474 154.976C464.352 155.157 464.29 155.384 464.29 155.656C464.29 155.891 464.349 156.115 464.466 156.328C464.589 156.541 464.776 156.715 465.026 156.848C465.282 156.981 465.616 157.048 466.026 157.048ZM477.178 158C476.666 158.101 476.16 158.141 475.658 158.12C475.162 158.104 474.72 158.005 474.33 157.824C473.941 157.637 473.645 157.349 473.442 156.96C473.272 156.619 473.178 156.275 473.162 155.928C473.152 155.576 473.146 155.179 473.146 154.736V146.96H474.57V154.672C474.57 155.024 474.573 155.325 474.578 155.576C474.589 155.827 474.645 156.043 474.746 156.224C474.938 156.565 475.242 156.765 475.658 156.824C476.08 156.883 476.586 156.867 477.178 156.776V158ZM471.394 150.536V149.36H477.178V150.536H471.394ZM484.592 158.24C483.946 158.24 483.405 158.123 482.968 157.888C482.536 157.648 482.208 157.333 481.984 156.944C481.765 156.555 481.656 156.128 481.656 155.664C481.656 155.211 481.741 154.819 481.912 154.488C482.088 154.152 482.333 153.875 482.648 153.656C482.962 153.432 483.338 153.256 483.776 153.128C484.186 153.016 484.645 152.92 485.152 152.84C485.664 152.755 486.181 152.677 486.704 152.608C487.226 152.539 487.714 152.472 488.168 152.408L487.656 152.704C487.672 151.936 487.517 151.368 487.192 151C486.872 150.632 486.317 150.448 485.528 150.448C485.005 150.448 484.546 150.568 484.152 150.808C483.762 151.043 483.488 151.427 483.328 151.96L481.976 151.552C482.184 150.795 482.586 150.2 483.184 149.768C483.781 149.336 484.568 149.12 485.544 149.12C486.328 149.12 487 149.261 487.56 149.544C488.125 149.821 488.53 150.243 488.776 150.808C488.898 151.075 488.976 151.365 489.008 151.68C489.04 151.989 489.056 152.315 489.056 152.656V158H487.792V155.928L488.088 156.12C487.762 156.819 487.306 157.347 486.72 157.704C486.138 158.061 485.429 158.24 484.592 158.24ZM484.808 157.048C485.32 157.048 485.762 156.957 486.136 156.776C486.514 156.589 486.818 156.347 487.048 156.048C487.277 155.744 487.426 155.413 487.496 155.056C487.576 154.789 487.618 154.493 487.624 154.168C487.634 153.837 487.64 153.584 487.64 153.408L488.136 153.624C487.672 153.688 487.216 153.749 486.768 153.808C486.32 153.867 485.896 153.931 485.496 154C485.096 154.064 484.736 154.141 484.416 154.232C484.181 154.307 483.96 154.403 483.752 154.52C483.549 154.637 483.384 154.789 483.256 154.976C483.133 155.157 483.072 155.384 483.072 155.656C483.072 155.891 483.13 156.115 483.248 156.328C483.37 156.541 483.557 156.715 483.808 156.848C484.064 156.981 484.397 157.048 484.808 157.048ZM497.288 158V153.672C497.288 153.261 497.25 152.867 497.176 152.488C497.106 152.109 496.981 151.771 496.8 151.472C496.624 151.168 496.384 150.928 496.08 150.752C495.781 150.576 495.402 150.488 494.944 150.488C494.586 150.488 494.261 150.549 493.968 150.672C493.68 150.789 493.432 150.971 493.224 151.216C493.016 151.461 492.853 151.771 492.736 152.144C492.624 152.512 492.568 152.947 492.568 153.448L491.632 153.16C491.632 152.323 491.781 151.605 492.08 151.008C492.384 150.405 492.808 149.944 493.352 149.624C493.901 149.299 494.546 149.136 495.288 149.136C495.848 149.136 496.325 149.224 496.72 149.4C497.114 149.576 497.442 149.811 497.704 150.104C497.965 150.392 498.17 150.717 498.32 151.08C498.469 151.437 498.573 151.803 498.632 152.176C498.696 152.544 498.728 152.893 498.728 153.224V158H497.288ZM491.128 158V149.36H492.408V151.672H492.568V158H491.128ZM503.264 158.24C502.618 158.24 502.077 158.123 501.64 157.888C501.208 157.648 500.88 157.333 500.656 156.944C500.437 156.555 500.328 156.128 500.328 155.664C500.328 155.211 500.413 154.819 500.584 154.488C500.76 154.152 501.005 153.875 501.32 153.656C501.634 153.432 502.01 153.256 502.448 153.128C502.858 153.016 503.317 152.92 503.824 152.84C504.336 152.755 504.853 152.677 505.376 152.608C505.898 152.539 506.386 152.472 506.84 152.408L506.328 152.704C506.344 151.936 506.189 151.368 505.864 151C505.544 150.632 504.989 150.448 504.2 150.448C503.677 150.448 503.218 150.568 502.824 150.808C502.434 151.043 502.16 151.427 502 151.96L500.648 151.552C500.856 150.795 501.258 150.2 501.856 149.768C502.453 149.336 503.24 149.12 504.216 149.12C505 149.12 505.672 149.261 506.232 149.544C506.797 149.821 507.202 150.243 507.448 150.808C507.57 151.075 507.648 151.365 507.68 151.68C507.712 151.989 507.727 152.315 507.727 152.656V158H506.464V155.928L506.76 156.12C506.434 156.819 505.978 157.347 505.392 157.704C504.81 158.061 504.101 158.24 503.264 158.24ZM503.48 157.048C503.992 157.048 504.434 156.957 504.808 156.776C505.186 156.589 505.49 156.347 505.72 156.048C505.949 155.744 506.098 155.413 506.168 155.056C506.248 154.789 506.29 154.493 506.296 154.168C506.306 153.837 506.312 153.584 506.312 153.408L506.808 153.624C506.344 153.688 505.888 153.749 505.44 153.808C504.992 153.867 504.568 153.931 504.168 154C503.768 154.064 503.408 154.141 503.088 154.232C502.853 154.307 502.632 154.403 502.424 154.52C502.221 154.637 502.056 154.789 501.928 154.976C501.805 155.157 501.743 155.384 501.743 155.656C501.743 155.891 501.802 156.115 501.92 156.328C502.042 156.541 502.229 156.715 502.48 156.848C502.736 156.981 503.069 157.048 503.48 157.048ZM509.968 158V146.24H511.392V158H509.968ZM514.992 161.84L516.664 157.296L516.688 158.64L512.912 149.36H514.408L517.368 156.824H516.856L519.632 149.36H521.08L516.376 161.84H514.992ZM527.866 158C527.354 158.101 526.847 158.141 526.346 158.12C525.85 158.104 525.407 158.005 525.018 157.824C524.629 157.637 524.333 157.349 524.13 156.96C523.959 156.619 523.866 156.275 523.85 155.928C523.839 155.576 523.834 155.179 523.834 154.736V146.96H525.258V154.672C525.258 155.024 525.261 155.325 525.266 155.576C525.277 155.827 525.333 156.043 525.434 156.224C525.626 156.565 525.93 156.765 526.346 156.824C526.767 156.883 527.274 156.867 527.866 156.776V158ZM522.082 150.536V149.36H527.866V150.536H522.082ZM529.78 147.832V146.36H531.204V147.832H529.78ZM529.78 158V149.36H531.204V158H529.78ZM537.244 158.24C536.37 158.24 535.626 158.045 535.012 157.656C534.404 157.261 533.94 156.72 533.62 156.032C533.3 155.344 533.135 154.56 533.124 153.68C533.135 152.779 533.303 151.987 533.628 151.304C533.959 150.616 534.431 150.08 535.044 149.696C535.658 149.312 536.396 149.12 537.26 149.12C538.172 149.12 538.956 149.344 539.612 149.792C540.274 150.24 540.716 150.853 540.94 151.632L539.532 152.056C539.351 151.555 539.055 151.165 538.644 150.888C538.239 150.611 537.772 150.472 537.244 150.472C536.652 150.472 536.164 150.611 535.78 150.888C535.396 151.16 535.111 151.539 534.924 152.024C534.738 152.504 534.642 153.056 534.636 153.68C534.647 154.64 534.868 155.416 535.3 156.008C535.738 156.595 536.386 156.888 537.244 156.888C537.81 156.888 538.279 156.76 538.652 156.504C539.026 156.243 539.308 155.867 539.5 155.376L540.94 155.752C540.642 156.557 540.175 157.173 539.54 157.6C538.906 158.027 538.14 158.24 537.244 158.24ZM545.837 158.232C544.808 158.232 543.962 158.008 543.301 157.56C542.645 157.107 542.242 156.475 542.093 155.664L543.549 155.432C543.666 155.901 543.936 156.275 544.357 156.552C544.778 156.824 545.301 156.96 545.925 156.96C546.517 156.96 546.981 156.837 547.317 156.592C547.653 156.347 547.821 156.013 547.821 155.592C547.821 155.347 547.765 155.149 547.653 155C547.541 154.845 547.309 154.701 546.957 154.568C546.61 154.435 546.085 154.275 545.381 154.088C544.618 153.885 544.018 153.675 543.581 153.456C543.144 153.237 542.832 152.984 542.645 152.696C542.458 152.408 542.365 152.059 542.365 151.648C542.365 151.141 542.504 150.699 542.781 150.32C543.058 149.936 543.445 149.64 543.941 149.432C544.442 149.224 545.024 149.12 545.685 149.12C546.341 149.12 546.928 149.224 547.445 149.432C547.962 149.64 548.378 149.936 548.693 150.32C549.013 150.699 549.202 151.141 549.261 151.648L547.805 151.912C547.736 151.448 547.512 151.083 547.133 150.816C546.76 150.549 546.277 150.408 545.685 150.392C545.125 150.371 544.669 150.469 544.317 150.688C543.97 150.907 543.797 151.203 543.797 151.576C543.797 151.784 543.861 151.963 543.989 152.112C544.122 152.261 544.365 152.403 544.717 152.536C545.074 152.669 545.592 152.821 546.269 152.992C547.032 153.184 547.632 153.395 548.069 153.624C548.512 153.848 548.826 154.115 549.013 154.424C549.2 154.728 549.293 155.104 549.293 155.552C549.293 156.384 548.986 157.04 548.373 157.52C547.76 157.995 546.914 158.232 545.837 158.232Z" fill="#212528"/>
</g>
<g filter="url(#filter3_d_2076_27949)">
<rect x="361" y="205" width="180" height="40" rx="20" fill="white" shape-rendering="crispEdges"/>
<path d="M398 221.5C396.55 221.5 395.74 222.94 396.07 224.01L392.52 227.57C392.22 227.48 391.78 227.48 391.48 227.57L388.93 225.02C389.27 223.95 388.46 222.5 387 222.5C385.55 222.5 384.73 223.94 385.07 225.02L380.51 229.57C379.44 229.24 378 230.05 378 231.5C378 232.6 378.9 233.5 380 233.5C381.45 233.5 382.26 232.06 381.93 230.99L386.48 226.43C386.78 226.52 387.22 226.52 387.52 226.43L390.07 228.98C389.73 230.05 390.54 231.5 392 231.5C393.45 231.5 394.27 230.06 393.93 228.98L397.49 225.43C398.56 225.76 400 224.95 400 223.5C400 222.4 399.1 221.5 398 221.5Z" fill="#5D6164"/>
<path d="M392 222.5L392.94 220.43L395 219.5L392.94 218.57L392 216.5L391.08 218.57L389 219.5L391.08 220.43L392 222.5Z" fill="#5D6164"/>
<path d="M380.5 224.5L381 222.5L383 222L381 221.5L380.5 219.5L380 221.5L378 222L380 222.5L380.5 224.5Z" fill="#5D6164"/>
<path d="M413.088 230V219.832H409.16V218.48H418.44V219.832H414.512V230H413.088ZM421.045 230.24C420.399 230.24 419.858 230.123 419.421 229.888C418.989 229.648 418.661 229.333 418.437 228.944C418.218 228.555 418.109 228.128 418.109 227.664C418.109 227.211 418.194 226.819 418.365 226.488C418.541 226.152 418.786 225.875 419.101 225.656C419.415 225.432 419.791 225.256 420.229 225.128C420.639 225.016 421.098 224.92 421.605 224.84C422.117 224.755 422.634 224.677 423.157 224.608C423.679 224.539 424.167 224.472 424.621 224.408L424.109 224.704C424.125 223.936 423.97 223.368 423.645 223C423.325 222.632 422.77 222.448 421.981 222.448C421.458 222.448 420.999 222.568 420.605 222.808C420.215 223.043 419.941 223.427 419.781 223.96L418.429 223.552C418.637 222.795 419.039 222.2 419.637 221.768C420.234 221.336 421.021 221.12 421.997 221.12C422.781 221.12 423.453 221.261 424.013 221.544C424.578 221.821 424.983 222.243 425.229 222.808C425.351 223.075 425.429 223.365 425.461 223.68C425.493 223.989 425.509 224.315 425.509 224.656V230H424.245V227.928L424.541 228.12C424.215 228.819 423.759 229.347 423.173 229.704C422.591 230.061 421.882 230.24 421.045 230.24ZM421.261 229.048C421.773 229.048 422.215 228.957 422.589 228.776C422.967 228.589 423.271 228.347 423.501 228.048C423.73 227.744 423.879 227.413 423.949 227.056C424.029 226.789 424.071 226.493 424.077 226.168C424.087 225.837 424.093 225.584 424.093 225.408L424.589 225.624C424.125 225.688 423.669 225.749 423.221 225.808C422.773 225.867 422.349 225.931 421.949 226C421.549 226.064 421.189 226.141 420.869 226.232C420.634 226.307 420.413 226.403 420.205 226.52C420.002 226.637 419.837 226.789 419.709 226.976C419.586 227.157 419.525 227.384 419.525 227.656C419.525 227.891 419.583 228.115 419.701 228.328C419.823 228.541 420.01 228.715 420.261 228.848C420.517 228.981 420.85 229.048 421.261 229.048ZM431.085 234.08C430.631 234.08 430.189 234.011 429.757 233.872C429.325 233.733 428.927 233.523 428.565 233.24C428.207 232.963 427.909 232.611 427.669 232.184L428.973 231.496C429.186 231.917 429.487 232.224 429.877 232.416C430.271 232.608 430.677 232.704 431.093 232.704C431.642 232.704 432.098 232.603 432.461 232.4C432.823 232.203 433.09 231.907 433.261 231.512C433.437 231.117 433.522 230.627 433.517 230.04V227.68H433.685V221.36H434.949V230.056C434.949 230.291 434.941 230.517 434.925 230.736C434.914 230.955 434.887 231.171 434.845 231.384C434.733 231.997 434.511 232.501 434.181 232.896C433.85 233.296 433.423 233.592 432.901 233.784C432.378 233.981 431.773 234.08 431.085 234.08ZM430.981 230.24C430.175 230.24 429.485 230.04 428.909 229.64C428.333 229.235 427.887 228.688 427.573 228C427.263 227.312 427.109 226.536 427.109 225.672C427.109 224.808 427.263 224.032 427.573 223.344C427.887 222.656 428.333 222.115 428.909 221.72C429.485 221.32 430.173 221.12 430.973 221.12C431.789 221.12 432.474 221.317 433.029 221.712C433.583 222.107 434.002 222.648 434.285 223.336C434.573 224.024 434.717 224.803 434.717 225.672C434.717 226.531 434.573 227.307 434.285 228C434.002 228.688 433.583 229.235 433.029 229.64C432.474 230.04 431.791 230.24 430.981 230.24ZM431.157 228.936C431.738 228.936 432.215 228.797 432.589 228.52C432.962 228.237 433.237 227.851 433.413 227.36C433.594 226.864 433.685 226.301 433.685 225.672C433.685 225.032 433.594 224.469 433.413 223.984C433.237 223.493 432.965 223.112 432.597 222.84C432.229 222.563 431.762 222.424 431.197 222.424C430.61 222.424 430.125 222.568 429.741 222.856C429.362 223.144 429.079 223.533 428.893 224.024C428.711 224.515 428.621 225.064 428.621 225.672C428.621 226.285 428.714 226.84 428.901 227.336C429.087 227.827 429.367 228.216 429.741 228.504C430.119 228.792 430.591 228.936 431.157 228.936ZM442.842 230.24C442.196 230.24 441.655 230.123 441.218 229.888C440.786 229.648 440.458 229.333 440.234 228.944C440.015 228.555 439.906 228.128 439.906 227.664C439.906 227.211 439.991 226.819 440.162 226.488C440.338 226.152 440.583 225.875 440.898 225.656C441.212 225.432 441.588 225.256 442.026 225.128C442.436 225.016 442.895 224.92 443.402 224.84C443.914 224.755 444.431 224.677 444.954 224.608C445.476 224.539 445.964 224.472 446.418 224.408L445.906 224.704C445.922 223.936 445.767 223.368 445.442 223C445.122 222.632 444.567 222.448 443.778 222.448C443.255 222.448 442.796 222.568 442.402 222.808C442.012 223.043 441.738 223.427 441.578 223.96L440.226 223.552C440.434 222.795 440.836 222.2 441.434 221.768C442.031 221.336 442.818 221.12 443.794 221.12C444.578 221.12 445.25 221.261 445.81 221.544C446.375 221.821 446.78 222.243 447.026 222.808C447.148 223.075 447.226 223.365 447.258 223.68C447.29 223.989 447.306 224.315 447.306 224.656V230H446.042V227.928L446.338 228.12C446.012 228.819 445.556 229.347 444.97 229.704C444.388 230.061 443.679 230.24 442.842 230.24ZM443.058 229.048C443.57 229.048 444.012 228.957 444.386 228.776C444.764 228.589 445.068 228.347 445.298 228.048C445.527 227.744 445.676 227.413 445.746 227.056C445.826 226.789 445.868 226.493 445.874 226.168C445.884 225.837 445.89 225.584 445.89 225.408L446.386 225.624C445.922 225.688 445.466 225.749 445.018 225.808C444.57 225.867 444.146 225.931 443.746 226C443.346 226.064 442.986 226.141 442.666 226.232C442.431 226.307 442.21 226.403 442.002 226.52C441.799 226.637 441.634 226.789 441.506 226.976C441.383 227.157 441.322 227.384 441.322 227.656C441.322 227.891 441.38 228.115 441.498 228.328C441.62 228.541 441.807 228.715 442.058 228.848C442.314 228.981 442.647 229.048 443.058 229.048ZM455.538 230V225.672C455.538 225.261 455.5 224.867 455.426 224.488C455.356 224.109 455.231 223.771 455.05 223.472C454.874 223.168 454.634 222.928 454.33 222.752C454.031 222.576 453.652 222.488 453.194 222.488C452.836 222.488 452.511 222.549 452.218 222.672C451.93 222.789 451.682 222.971 451.474 223.216C451.266 223.461 451.103 223.771 450.986 224.144C450.874 224.512 450.818 224.947 450.818 225.448L449.882 225.16C449.882 224.323 450.031 223.605 450.33 223.008C450.634 222.405 451.058 221.944 451.602 221.624C452.151 221.299 452.796 221.136 453.538 221.136C454.098 221.136 454.575 221.224 454.97 221.4C455.364 221.576 455.692 221.811 455.954 222.104C456.215 222.392 456.42 222.717 456.57 223.08C456.719 223.437 456.823 223.803 456.882 224.176C456.946 224.544 456.978 224.893 456.978 225.224V230H455.538ZM449.378 230V221.36H450.658V223.672H450.818V230H449.378ZM461.514 230.24C460.868 230.24 460.327 230.123 459.89 229.888C459.458 229.648 459.13 229.333 458.906 228.944C458.687 228.555 458.578 228.128 458.578 227.664C458.578 227.211 458.663 226.819 458.834 226.488C459.01 226.152 459.255 225.875 459.57 225.656C459.884 225.432 460.26 225.256 460.698 225.128C461.108 225.016 461.567 224.92 462.074 224.84C462.586 224.755 463.103 224.677 463.626 224.608C464.148 224.539 464.636 224.472 465.09 224.408L464.578 224.704C464.594 223.936 464.439 223.368 464.114 223C463.794 222.632 463.239 222.448 462.45 222.448C461.927 222.448 461.468 222.568 461.074 222.808C460.684 223.043 460.41 223.427 460.25 223.96L458.898 223.552C459.106 222.795 459.508 222.2 460.106 221.768C460.703 221.336 461.49 221.12 462.466 221.12C463.25 221.12 463.922 221.261 464.482 221.544C465.047 221.821 465.452 222.243 465.698 222.808C465.82 223.075 465.898 223.365 465.93 223.68C465.962 223.989 465.977 224.315 465.977 224.656V230H464.714V227.928L465.01 228.12C464.684 228.819 464.228 229.347 463.642 229.704C463.06 230.061 462.351 230.24 461.514 230.24ZM461.73 229.048C462.242 229.048 462.684 228.957 463.058 228.776C463.436 228.589 463.74 228.347 463.97 228.048C464.199 227.744 464.348 227.413 464.418 227.056C464.498 226.789 464.54 226.493 464.546 226.168C464.556 225.837 464.562 225.584 464.562 225.408L465.058 225.624C464.594 225.688 464.138 225.749 463.69 225.808C463.242 225.867 462.818 225.931 462.418 226C462.018 226.064 461.658 226.141 461.338 226.232C461.103 226.307 460.882 226.403 460.674 226.52C460.471 226.637 460.306 226.789 460.178 226.976C460.055 227.157 459.993 227.384 459.993 227.656C459.993 227.891 460.052 228.115 460.17 228.328C460.292 228.541 460.479 228.715 460.73 228.848C460.986 228.981 461.319 229.048 461.73 229.048ZM468.218 230V218.24H469.642V230H468.218ZM473.242 233.84L474.914 229.296L474.938 230.64L471.162 221.36H472.658L475.618 228.824H475.106L477.882 221.36H479.33L474.626 233.84H473.242ZM486.116 230C485.604 230.101 485.097 230.141 484.596 230.12C484.1 230.104 483.657 230.005 483.268 229.824C482.879 229.637 482.583 229.349 482.38 228.96C482.209 228.619 482.116 228.275 482.1 227.928C482.089 227.576 482.084 227.179 482.084 226.736V218.96H483.508V226.672C483.508 227.024 483.511 227.325 483.516 227.576C483.527 227.827 483.583 228.043 483.684 228.224C483.876 228.565 484.18 228.765 484.596 228.824C485.017 228.883 485.524 228.867 486.116 228.776V230ZM480.332 222.536V221.36H486.116V222.536H480.332ZM488.03 219.832V218.36H489.454V219.832H488.03ZM488.03 230V221.36H489.454V230H488.03ZM495.494 230.24C494.62 230.24 493.876 230.045 493.262 229.656C492.654 229.261 492.19 228.72 491.87 228.032C491.55 227.344 491.385 226.56 491.374 225.68C491.385 224.779 491.553 223.987 491.878 223.304C492.209 222.616 492.681 222.08 493.294 221.696C493.908 221.312 494.646 221.12 495.51 221.12C496.422 221.12 497.206 221.344 497.862 221.792C498.524 222.24 498.966 222.853 499.19 223.632L497.782 224.056C497.601 223.555 497.305 223.165 496.894 222.888C496.489 222.611 496.022 222.472 495.494 222.472C494.902 222.472 494.414 222.611 494.03 222.888C493.646 223.16 493.361 223.539 493.174 224.024C492.988 224.504 492.892 225.056 492.886 225.68C492.897 226.64 493.118 227.416 493.55 228.008C493.988 228.595 494.636 228.888 495.494 228.888C496.06 228.888 496.529 228.76 496.902 228.504C497.276 228.243 497.558 227.867 497.75 227.376L499.19 227.752C498.892 228.557 498.425 229.173 497.79 229.6C497.156 230.027 496.39 230.24 495.494 230.24ZM504.087 230.232C503.058 230.232 502.212 230.008 501.551 229.56C500.895 229.107 500.492 228.475 500.343 227.664L501.799 227.432C501.916 227.901 502.186 228.275 502.607 228.552C503.028 228.824 503.551 228.96 504.175 228.96C504.767 228.96 505.231 228.837 505.567 228.592C505.903 228.347 506.071 228.013 506.071 227.592C506.071 227.347 506.015 227.149 505.903 227C505.791 226.845 505.559 226.701 505.207 226.568C504.86 226.435 504.335 226.275 503.631 226.088C502.868 225.885 502.268 225.675 501.831 225.456C501.394 225.237 501.082 224.984 500.895 224.696C500.708 224.408 500.615 224.059 500.615 223.648C500.615 223.141 500.754 222.699 501.031 222.32C501.308 221.936 501.695 221.64 502.191 221.432C502.692 221.224 503.274 221.12 503.935 221.12C504.591 221.12 505.178 221.224 505.695 221.432C506.212 221.64 506.628 221.936 506.943 222.32C507.263 222.699 507.452 223.141 507.511 223.648L506.055 223.912C505.986 223.448 505.762 223.083 505.383 222.816C505.01 222.549 504.527 222.408 503.935 222.392C503.375 222.371 502.919 222.469 502.567 222.688C502.22 222.907 502.047 223.203 502.047 223.576C502.047 223.784 502.111 223.963 502.239 224.112C502.372 224.261 502.615 224.403 502.967 224.536C503.324 224.669 503.842 224.821 504.519 224.992C505.282 225.184 505.882 225.395 506.319 225.624C506.762 225.848 507.076 226.115 507.263 226.424C507.45 226.728 507.543 227.104 507.543 227.552C507.543 228.384 507.236 229.04 506.623 229.52C506.01 229.995 505.164 230.232 504.087 230.232Z" fill="#212528"/>
</g>
<g filter="url(#filter4_d_2076_27949)">
<rect x="393" y="277" width="180" height="40" rx="20" fill="white" shape-rendering="crispEdges"/>
<path d="M428 290V304H414V290H428ZM428 288H414C412.9 288 412 288.9 412 290V304C412 305.1 412.9 306 414 306H428C429.1 306 430 305.1 430 304V290C430 288.9 429.1 288 428 288Z" fill="#5D6164"/>
<path d="M423 302H416V300H423V302ZM426 298H416V296H426V298ZM426 294H416V292H426V294Z" fill="#5D6164"/>
<path d="M446.856 302.24C445.709 302.24 444.736 301.987 443.936 301.48C443.136 300.973 442.525 300.269 442.104 299.368C441.688 298.467 441.48 297.424 441.48 296.24C441.48 295.056 441.688 294.013 442.104 293.112C442.525 292.211 443.136 291.507 443.936 291C444.736 290.493 445.709 290.24 446.856 290.24C448.189 290.24 449.285 290.579 450.144 291.256C451.008 291.933 451.603 292.845 451.928 293.992L450.48 294.376C450.245 293.517 449.827 292.84 449.224 292.344C448.621 291.848 447.832 291.6 446.856 291.6C445.997 291.6 445.283 291.795 444.712 292.184C444.141 292.573 443.712 293.117 443.424 293.816C443.136 294.509 442.989 295.317 442.984 296.24C442.979 297.157 443.12 297.965 443.408 298.664C443.696 299.357 444.128 299.901 444.704 300.296C445.28 300.685 445.997 300.88 446.856 300.88C447.832 300.88 448.621 300.632 449.224 300.136C449.827 299.635 450.245 298.957 450.48 298.104L451.928 298.488C451.603 299.629 451.008 300.541 450.144 301.224C449.285 301.901 448.189 302.24 446.856 302.24ZM456.139 302.24C455.493 302.24 454.952 302.123 454.515 301.888C454.083 301.648 453.755 301.333 453.531 300.944C453.312 300.555 453.203 300.128 453.203 299.664C453.203 299.211 453.288 298.819 453.459 298.488C453.635 298.152 453.88 297.875 454.195 297.656C454.509 297.432 454.885 297.256 455.323 297.128C455.733 297.016 456.192 296.92 456.699 296.84C457.211 296.755 457.728 296.677 458.251 296.608C458.773 296.539 459.261 296.472 459.715 296.408L459.203 296.704C459.219 295.936 459.064 295.368 458.739 295C458.419 294.632 457.864 294.448 457.075 294.448C456.552 294.448 456.093 294.568 455.699 294.808C455.309 295.043 455.035 295.427 454.875 295.96L453.523 295.552C453.731 294.795 454.133 294.2 454.731 293.768C455.328 293.336 456.115 293.12 457.091 293.12C457.875 293.12 458.547 293.261 459.107 293.544C459.672 293.821 460.077 294.243 460.323 294.808C460.445 295.075 460.523 295.365 460.555 295.68C460.587 295.989 460.602 296.315 460.602 296.656V302H459.339V299.928L459.635 300.12C459.309 300.819 458.853 301.347 458.267 301.704C457.685 302.061 456.976 302.24 456.139 302.24ZM456.355 301.048C456.867 301.048 457.309 300.957 457.683 300.776C458.061 300.589 458.365 300.347 458.595 300.048C458.824 299.744 458.973 299.413 459.043 299.056C459.123 298.789 459.165 298.493 459.171 298.168C459.181 297.837 459.187 297.584 459.187 297.408L459.683 297.624C459.219 297.688 458.763 297.749 458.315 297.808C457.867 297.867 457.443 297.931 457.043 298C456.643 298.064 456.283 298.141 455.963 298.232C455.728 298.307 455.507 298.403 455.299 298.52C455.096 298.637 454.931 298.789 454.803 298.976C454.68 299.157 454.618 299.384 454.618 299.656C454.618 299.891 454.677 300.115 454.795 300.328C454.917 300.541 455.104 300.715 455.355 300.848C455.611 300.981 455.944 301.048 456.355 301.048ZM462.843 302V290.24H464.267V302H462.843ZM466.827 302V290.24H468.251V302H466.827ZM474.014 302V290.24H475.438V302H474.014ZM481.519 302.24C480.66 302.24 479.919 302.045 479.295 301.656C478.676 301.267 478.199 300.728 477.863 300.04C477.527 299.352 477.359 298.563 477.359 297.672C477.359 296.765 477.529 295.971 477.871 295.288C478.212 294.605 478.695 294.075 479.319 293.696C479.943 293.312 480.676 293.12 481.519 293.12C482.383 293.12 483.127 293.315 483.751 293.704C484.375 294.088 484.852 294.624 485.183 295.312C485.519 295.995 485.687 296.781 485.687 297.672C485.687 298.573 485.519 299.368 485.183 300.056C484.847 300.739 484.367 301.275 483.743 301.664C483.119 302.048 482.377 302.24 481.519 302.24ZM481.519 300.888C482.415 300.888 483.081 300.589 483.519 299.992C483.956 299.395 484.175 298.621 484.175 297.672C484.175 296.696 483.953 295.92 483.511 295.344C483.068 294.763 482.404 294.472 481.519 294.472C480.916 294.472 480.42 294.608 480.031 294.88C479.641 295.152 479.351 295.528 479.159 296.008C478.967 296.488 478.871 297.043 478.871 297.672C478.871 298.643 479.095 299.421 479.543 300.008C479.991 300.595 480.649 300.888 481.519 300.888ZM490.944 306.08C490.491 306.08 490.048 306.011 489.616 305.872C489.184 305.733 488.787 305.523 488.424 305.24C488.067 304.963 487.768 304.611 487.528 304.184L488.832 303.496C489.045 303.917 489.347 304.224 489.736 304.416C490.131 304.608 490.536 304.704 490.952 304.704C491.501 304.704 491.957 304.603 492.32 304.4C492.683 304.203 492.949 303.907 493.12 303.512C493.296 303.117 493.381 302.627 493.376 302.04V299.68H493.544V293.36H494.808V302.056C494.808 302.291 494.8 302.517 494.784 302.736C494.773 302.955 494.747 303.171 494.704 303.384C494.592 303.997 494.371 304.501 494.04 304.896C493.709 305.296 493.283 305.592 492.76 305.784C492.237 305.981 491.632 306.08 490.944 306.08ZM490.84 302.24C490.035 302.24 489.344 302.04 488.768 301.64C488.192 301.235 487.747 300.688 487.432 300C487.123 299.312 486.968 298.536 486.968 297.672C486.968 296.808 487.123 296.032 487.432 295.344C487.747 294.656 488.192 294.115 488.768 293.72C489.344 293.32 490.032 293.12 490.832 293.12C491.648 293.12 492.333 293.317 492.888 293.712C493.443 294.107 493.861 294.648 494.144 295.336C494.432 296.024 494.576 296.803 494.576 297.672C494.576 298.531 494.432 299.307 494.144 300C493.861 300.688 493.443 301.235 492.888 301.64C492.333 302.04 491.651 302.24 490.84 302.24ZM491.016 300.936C491.597 300.936 492.075 300.797 492.448 300.52C492.821 300.237 493.096 299.851 493.272 299.36C493.453 298.864 493.544 298.301 493.544 297.672C493.544 297.032 493.453 296.469 493.272 295.984C493.096 295.493 492.824 295.112 492.456 294.84C492.088 294.563 491.621 294.424 491.056 294.424C490.469 294.424 489.984 294.568 489.6 294.856C489.221 295.144 488.939 295.533 488.752 296.024C488.571 296.515 488.48 297.064 488.48 297.672C488.48 298.285 488.573 298.84 488.76 299.336C488.947 299.827 489.227 300.216 489.6 300.504C489.979 300.792 490.451 300.936 491.016 300.936ZM500.306 302.232C499.277 302.232 498.431 302.008 497.77 301.56C497.114 301.107 496.711 300.475 496.562 299.664L498.018 299.432C498.135 299.901 498.405 300.275 498.826 300.552C499.247 300.824 499.77 300.96 500.394 300.96C500.986 300.96 501.45 300.837 501.786 300.592C502.122 300.347 502.29 300.013 502.29 299.592C502.29 299.347 502.234 299.149 502.122 299C502.01 298.845 501.778 298.701 501.426 298.568C501.079 298.435 500.554 298.275 499.85 298.088C499.087 297.885 498.487 297.675 498.05 297.456C497.613 297.237 497.301 296.984 497.114 296.696C496.927 296.408 496.834 296.059 496.834 295.648C496.834 295.141 496.973 294.699 497.25 294.32C497.527 293.936 497.914 293.64 498.41 293.432C498.911 293.224 499.493 293.12 500.154 293.12C500.81 293.12 501.397 293.224 501.914 293.432C502.431 293.64 502.847 293.936 503.162 294.32C503.482 294.699 503.671 295.141 503.73 295.648L502.274 295.912C502.205 295.448 501.981 295.083 501.602 294.816C501.229 294.549 500.746 294.408 500.154 294.392C499.594 294.371 499.138 294.469 498.786 294.688C498.439 294.907 498.266 295.203 498.266 295.576C498.266 295.784 498.33 295.963 498.458 296.112C498.591 296.261 498.834 296.403 499.186 296.536C499.543 296.669 500.061 296.821 500.738 296.992C501.501 297.184 502.101 297.395 502.538 297.624C502.981 297.848 503.295 298.115 503.482 298.424C503.669 298.728 503.762 299.104 503.762 299.552C503.762 300.384 503.455 301.04 502.842 301.52C502.229 301.995 501.383 302.232 500.306 302.232Z" fill="#212528"/>
</g>
<path d="M365.125 342.944H317.875C314.162 342.944 311.125 345.981 311.125 349.694V396.944C311.125 400.656 314.162 403.694 317.875 403.694H365.125C368.837 403.694 371.875 400.656 371.875 396.944V349.694C371.875 345.981 368.837 342.944 365.125 342.944ZM365.125 396.944H317.875V349.694H365.125V396.944Z" fill="#DBEAF6"/>
<path d="M331.375 373.319H324.625V390.194H331.375V373.319Z" fill="#DBEAF6"/>
<path d="M358.375 356.444H351.625V390.194H358.375V356.444Z" fill="#DBEAF6"/>
<path d="M344.875 380.069H338.125V390.194H344.875V380.069Z" fill="#DBEAF6"/>
<path d="M344.875 366.569H338.125V373.319H344.875V366.569Z" fill="#DBEAF6"/>
<defs>
<filter id="filter0_d_2076_27949" x="45" y="52" width="256" height="354" filterUnits="userSpaceOnUse" color-interpolation-filters="sRGB">
<feFlood flood-opacity="0" result="BackgroundImageFix"/>
<feColorMatrix in="SourceAlpha" type="matrix" values="0 0 0 0 0 0 0 0 0 0 0 0 0 0 0 0 0 0 127 0" result="hardAlpha"/>
<feOffset dy="4"/>
<feGaussianBlur stdDeviation="4"/>
<feComposite in2="hardAlpha" operator="out"/>
<feColorMatrix type="matrix" values="0 0 0 0 0 0 0 0 0 0 0 0 0 0 0 0 0 0 0.25 0"/>
<feBlend mode="normal" in2="BackgroundImageFix" result="effect1_dropShadow_2076_27949"/>
<feBlend mode="normal" in="SourceGraphic" in2="effect1_dropShadow_2076_27949" result="shape"/>
</filter>
<filter id="filter1_d_2076_27949" x="67" y="108" width="130" height="44" filterUnits="userSpaceOnUse" color-interpolation-filters="sRGB">
<feFlood flood-opacity="0" result="BackgroundImageFix"/>
<feColorMatrix in="SourceAlpha" type="matrix" values="0 0 0 0 0 0 0 0 0 0 0 0 0 0 0 0 0 0 127 0" result="hardAlpha"/>
<feOffset dy="2"/>
<feGaussianBlur stdDeviation="2"/>
<feComposite in2="hardAlpha" operator="out"/>
<feColorMatrix type="matrix" values="0 0 0 0 0.0666667 0 0 0 0 0.318388 0 0 0 0 0.65098 0 0 0 0.5 0"/>
<feBlend mode="normal" in2="BackgroundImageFix" result="effect1_dropShadow_2076_27949"/>
<feBlend mode="normal" in="SourceGraphic" in2="effect1_dropShadow_2076_27949" result="shape"/>
</filter>
<filter id="filter2_d_2076_27949" x="389" y="133" width="188" height="48" filterUnits="userSpaceOnUse" color-interpolation-filters="sRGB">
<feFlood flood-opacity="0" result="BackgroundImageFix"/>
<feColorMatrix in="SourceAlpha" type="matrix" values="0 0 0 0 0 0 0 0 0 0 0 0 0 0 0 0 0 0 127 0" result="hardAlpha"/>
<feOffset dy="4"/>
<feGaussianBlur stdDeviation="2"/>
<feComposite in2="hardAlpha" operator="out"/>
<feColorMatrix type="matrix" values="0 0 0 0 0 0 0 0 0 0 0 0 0 0 0 0 0 0 0.25 0"/>
<feBlend mode="normal" in2="BackgroundImageFix" result="effect1_dropShadow_2076_27949"/>
<feBlend mode="normal" in="SourceGraphic" in2="effect1_dropShadow_2076_27949" result="shape"/>
</filter>
<filter id="filter3_d_2076_27949" x="357" y="205" width="188" height="48" filterUnits="userSpaceOnUse" color-interpolation-filters="sRGB">
<feFlood flood-opacity="0" result="BackgroundImageFix"/>
<feColorMatrix in="SourceAlpha" type="matrix" values="0 0 0 0 0 0 0 0 0 0 0 0 0 0 0 0 0 0 127 0" result="hardAlpha"/>
<feOffset dy="4"/>
<feGaussianBlur stdDeviation="2"/>
<feComposite in2="hardAlpha" operator="out"/>
<feColorMatrix type="matrix" values="0 0 0 0 0 0 0 0 0 0 0 0 0 0 0 0 0 0 0.25 0"/>
<feBlend mode="normal" in2="BackgroundImageFix" result="effect1_dropShadow_2076_27949"/>
<feBlend mode="normal" in="SourceGraphic" in2="effect1_dropShadow_2076_27949" result="shape"/>
</filter>
<filter id="filter4_d_2076_27949" x="389" y="277" width="188" height="48" filterUnits="userSpaceOnUse" color-interpolation-filters="sRGB">
<feFlood flood-opacity="0" result="BackgroundImageFix"/>
<feColorMatrix in="SourceAlpha" type="matrix" values="0 0 0 0 0 0 0 0 0 0 0 0 0 0 0 0 0 0 127 0" result="hardAlpha"/>
<feOffset dy="4"/>
<feGaussianBlur stdDeviation="2"/>
<feComposite in2="hardAlpha" operator="out"/>
<feColorMatrix type="matrix" values="0 0 0 0 0 0 0 0 0 0 0 0 0 0 0 0 0 0 0.25 0"/>
<feBlend mode="normal" in2="BackgroundImageFix" result="effect1_dropShadow_2076_27949"/>
<feBlend mode="normal" in="SourceGraphic" in2="effect1_dropShadow_2076_27949" result="shape"/>
</filter>
<clipPath id="clip0_2076_27949">
<rect x="53" y="56" width="240" height="338" rx="8" fill="white"/>
</clipPath>
<clipPath id="clip1_2076_27949">
<rect width="20" height="20" fill="white" transform="translate(69 164)"/>
</clipPath>
</defs>
</svg>
