<svg width="600" height="450" viewBox="0 0 600 450" fill="none" xmlns="http://www.w3.org/2000/svg">
<path d="M122.296 98.4549L108.754 84.9071C112.814 79.616 114.71 72.9785 114.056 66.341C113.403 59.7036 110.249 53.5632 105.235 49.1656C100.22 44.768 93.7208 42.4424 87.0549 42.6606C80.3889 42.8787 74.0555 45.6243 69.3394 50.3404C64.6233 55.0565 61.8777 61.3899 61.6596 68.0558C61.4414 74.7218 63.767 81.2212 68.1646 86.2355C72.5623 91.2499 78.7026 94.4037 85.34 95.0573C91.9775 95.7108 98.615 93.8151 103.906 89.7548L117.46 103.311C117.778 103.629 118.156 103.882 118.572 104.054C118.988 104.226 119.433 104.315 119.883 104.315C120.334 104.315 120.779 104.226 121.195 104.054C121.611 103.882 121.989 103.629 122.307 103.311C122.626 102.993 122.878 102.615 123.05 102.199C123.223 101.783 123.311 101.337 123.311 100.887C123.311 100.437 123.223 99.9914 123.05 99.5755C122.878 99.1596 122.626 98.7818 122.307 98.4635L122.296 98.4549ZM68.5468 68.9384C68.5468 65.1033 69.684 61.3543 71.8147 58.1655C73.9454 54.9768 76.9738 52.4914 80.5169 51.0238C84.0601 49.5562 87.9589 49.1722 91.7203 49.9204C95.4818 50.6685 98.9368 52.5153 101.649 55.2271C104.36 57.939 106.207 61.3941 106.955 65.1555C107.704 68.9169 107.32 72.8157 105.852 76.3589C104.384 79.902 101.899 82.9304 98.7103 85.0611C95.5215 87.1918 91.7725 88.329 87.9374 88.329C82.7963 88.3237 77.8673 86.2791 74.232 82.6438C70.5967 79.0085 68.5521 74.0795 68.5468 68.9384Z" fill="#F2CA55" fill-opacity="0.2"/>
<g filter="url(#filter0_d_3139_70445)">
<rect x="43.397" y="109.092" width="418.906" height="242.059" rx="8.84233" fill="white"/>
<ellipse cx="71.2454" cy="135.788" rx="7.95343" ry="8.61622" fill="#DF434C"/>
<circle cx="93.1148" cy="135.788" r="8.61622" fill="#E7B44C"/>
<circle cx="114.326" cy="135.788" r="8.61622" fill="#6BD280"/>
<rect x="137.156" y="127.883" width="280.744" height="15.4741" rx="7.73704" stroke="#CDD4DF" stroke-width="2.21058"/>
<rect x="84" y="176" width="326.061" height="6.63175" rx="3.31588" fill="#71A5EE"/>
<rect x="84" y="189.434" width="162.478" height="5.52646" rx="2.76323" fill="#CDD4DF"/>
<rect x="249.794" y="189.434" width="158.057" height="5.52646" rx="2.76323" fill="#CDD4DF"/>
<rect x="84" y="200.486" width="267.481" height="5.52646" rx="2.76323" fill="#CDD4DF"/>
<rect x="84" y="232.371" width="326.061" height="6.63175" rx="3.31588" fill="#71A5EE"/>
<rect x="84" y="245.805" width="162.478" height="5.52646" rx="2.76323" fill="#CDD4DF"/>
<rect x="249.794" y="245.805" width="158.057" height="5.52646" rx="2.76323" fill="#CDD4DF"/>
<rect x="84" y="256.857" width="267.481" height="5.52646" rx="2.76323" fill="#CDD4DF"/>
<rect x="84" y="288.74" width="326.061" height="6.63175" rx="3.31588" fill="#71A5EE"/>
<rect x="84" y="302.174" width="162.478" height="5.52646" rx="2.76323" fill="#CDD4DF"/>
<rect x="249.794" y="302.174" width="158.057" height="5.52646" rx="2.76323" fill="#CDD4DF"/>
<rect x="84" y="313.227" width="267.481" height="5.52646" rx="2.76323" fill="#CDD4DF"/>
</g>
<g filter="url(#filter1_d_3139_70445)">
<rect x="379.361" y="92.2422" width="152.475" height="53.5357" rx="5.35357" fill="#F2CA55" shape-rendering="crispEdges"/>
<path d="M404.351 115.462C404.28 114.832 403.988 114.344 403.473 113.998C402.959 113.648 402.311 113.473 401.53 113.473C400.971 113.473 400.488 113.562 400.08 113.739C399.672 113.912 399.354 114.151 399.128 114.458C398.906 114.759 398.795 115.103 398.795 115.489C398.795 115.813 398.871 116.092 399.022 116.327C399.177 116.562 399.379 116.76 399.627 116.92C399.88 117.075 400.151 117.206 400.439 117.312C400.727 117.414 401.005 117.498 401.271 117.565L402.601 117.911C403.036 118.017 403.482 118.162 403.939 118.343C404.396 118.525 404.819 118.765 405.21 119.062C405.6 119.359 405.915 119.727 406.155 120.167C406.399 120.606 406.521 121.131 406.521 121.744C406.521 122.515 406.321 123.201 405.922 123.8C405.527 124.399 404.953 124.871 404.198 125.217C403.449 125.563 402.542 125.736 401.477 125.736C400.457 125.736 399.574 125.574 398.829 125.25C398.083 124.926 397.5 124.467 397.079 123.873C396.657 123.274 396.424 122.564 396.38 121.744H398.443C398.483 122.236 398.642 122.646 398.922 122.975C399.206 123.298 399.567 123.54 400.006 123.7C400.45 123.855 400.936 123.933 401.464 123.933C402.045 123.933 402.562 123.842 403.014 123.66C403.471 123.474 403.83 123.216 404.092 122.888C404.354 122.555 404.485 122.167 404.485 121.724C404.485 121.32 404.369 120.99 404.139 120.732C403.912 120.475 403.604 120.262 403.214 120.093C402.828 119.925 402.391 119.776 401.903 119.648L400.293 119.208C399.201 118.911 398.336 118.474 397.698 117.898C397.063 117.321 396.746 116.558 396.746 115.609C396.746 114.824 396.959 114.138 397.385 113.553C397.811 112.967 398.387 112.512 399.115 112.189C399.842 111.86 400.663 111.696 401.577 111.696C402.499 111.696 403.313 111.858 404.019 112.182C404.729 112.506 405.287 112.952 405.696 113.519C406.104 114.083 406.317 114.73 406.334 115.462H404.351ZM408.978 125.51V111.883H417.521V113.652H411.034V117.805H417.075V119.568H411.034V123.74H417.601V125.51H408.978ZM432.105 118.696C432.105 120.151 431.839 121.402 431.307 122.449C430.774 123.491 430.045 124.294 429.117 124.858C428.195 125.417 427.146 125.696 425.97 125.696C424.79 125.696 423.737 125.417 422.809 124.858C421.887 124.294 421.159 123.489 420.627 122.442C420.095 121.395 419.829 120.147 419.829 118.696C419.829 117.241 420.095 115.992 420.627 114.95C421.159 113.903 421.887 113.1 422.809 112.541C423.737 111.978 424.79 111.696 425.97 111.696C427.146 111.696 428.195 111.978 429.117 112.541C430.045 113.1 430.774 113.903 431.307 114.95C431.839 115.992 432.105 117.241 432.105 118.696ZM430.069 118.696C430.069 117.587 429.889 116.653 429.53 115.895C429.175 115.132 428.687 114.555 428.066 114.165C427.449 113.77 426.751 113.573 425.97 113.573C425.185 113.573 424.484 113.77 423.867 114.165C423.251 114.555 422.763 115.132 422.404 115.895C422.049 116.653 421.871 117.587 421.871 118.696C421.871 119.805 422.049 120.741 422.404 121.504C422.763 122.263 423.251 122.839 423.867 123.234C424.484 123.624 425.185 123.82 425.97 123.82C426.751 123.82 427.449 123.624 428.066 123.234C428.687 122.839 429.175 122.263 429.53 121.504C429.889 120.741 430.069 119.805 430.069 118.696ZM439.627 125.51V111.883H448.078V113.652H441.683V117.805H447.472V119.568H441.683V125.51H439.627ZM450.319 125.51V115.289H452.242V116.913H452.348C452.534 116.363 452.863 115.93 453.333 115.615C453.807 115.296 454.344 115.136 454.943 115.136C455.067 115.136 455.214 115.141 455.382 115.15C455.555 115.158 455.69 115.17 455.788 115.183V117.086C455.708 117.064 455.566 117.039 455.362 117.013C455.158 116.982 454.954 116.966 454.75 116.966C454.28 116.966 453.861 117.066 453.492 117.266C453.129 117.461 452.84 117.734 452.627 118.084C452.415 118.43 452.308 118.825 452.308 119.268V125.51H450.319ZM457.51 125.51V115.289H459.499V125.51H457.51ZM458.514 113.712C458.168 113.712 457.871 113.597 457.623 113.366C457.379 113.131 457.257 112.852 457.257 112.528C457.257 112.2 457.379 111.92 457.623 111.69C457.871 111.454 458.168 111.337 458.514 111.337C458.861 111.337 459.155 111.454 459.399 111.69C459.648 111.92 459.772 112.2 459.772 112.528C459.772 112.852 459.648 113.131 459.399 113.366C459.155 113.597 458.861 113.712 458.514 113.712ZM466.581 125.716C465.574 125.716 464.707 125.501 463.979 125.071C463.256 124.636 462.697 124.026 462.302 123.241C461.912 122.451 461.717 121.526 461.717 120.466C461.717 119.419 461.912 118.497 462.302 117.698C462.697 116.9 463.247 116.276 463.952 115.828C464.662 115.38 465.492 115.156 466.441 115.156C467.018 115.156 467.577 115.252 468.118 115.442C468.659 115.633 469.145 115.933 469.575 116.341C470.005 116.749 470.345 117.279 470.593 117.931C470.841 118.579 470.966 119.366 470.966 120.293V120.998H462.841V119.508H469.016C469.016 118.984 468.91 118.521 468.697 118.117C468.484 117.709 468.184 117.388 467.798 117.152C467.417 116.917 466.969 116.8 466.454 116.8C465.895 116.8 465.407 116.937 464.99 117.212C464.578 117.483 464.259 117.838 464.032 118.277C463.81 118.712 463.7 119.184 463.7 119.694V120.859C463.7 121.542 463.819 122.123 464.059 122.602C464.303 123.081 464.642 123.447 465.077 123.7C465.512 123.948 466.02 124.073 466.601 124.073C466.978 124.073 467.322 124.019 467.632 123.913C467.943 123.802 468.211 123.638 468.437 123.42C468.663 123.203 468.836 122.935 468.956 122.615L470.839 122.955C470.688 123.509 470.418 123.995 470.027 124.412C469.642 124.824 469.156 125.146 468.57 125.377C467.989 125.603 467.326 125.716 466.581 125.716ZM475.163 119.441V125.51H473.173V115.289H475.083V116.953H475.209C475.444 116.412 475.813 115.977 476.314 115.649C476.819 115.32 477.456 115.156 478.223 115.156C478.92 115.156 479.53 115.303 480.053 115.595C480.577 115.884 480.983 116.314 481.271 116.886C481.559 117.459 481.703 118.166 481.703 119.009V125.51H479.714V119.248C479.714 118.508 479.521 117.929 479.135 117.512C478.749 117.09 478.219 116.88 477.545 116.88C477.083 116.88 476.673 116.979 476.314 117.179C475.959 117.379 475.677 117.671 475.469 118.057C475.265 118.439 475.163 118.9 475.163 119.441ZM488.198 125.709C487.373 125.709 486.636 125.499 485.989 125.077C485.345 124.651 484.84 124.046 484.471 123.261C484.108 122.471 483.926 121.524 483.926 120.42C483.926 119.315 484.11 118.37 484.478 117.585C484.851 116.8 485.361 116.199 486.009 115.782C486.656 115.365 487.39 115.156 488.211 115.156C488.845 115.156 489.355 115.263 489.741 115.476C490.132 115.684 490.433 115.928 490.646 116.208C490.864 116.487 491.032 116.733 491.152 116.946H491.272V111.883H493.261V125.51H491.318V123.919H491.152C491.032 124.137 490.859 124.385 490.633 124.665C490.411 124.944 490.105 125.188 489.715 125.397C489.324 125.605 488.819 125.709 488.198 125.709ZM488.637 124.013C489.209 124.013 489.693 123.862 490.087 123.56C490.487 123.254 490.788 122.83 490.992 122.289C491.201 121.748 491.305 121.118 491.305 120.4C491.305 119.69 491.203 119.069 490.999 118.536C490.795 118.004 490.496 117.589 490.101 117.292C489.706 116.995 489.218 116.846 488.637 116.846C488.038 116.846 487.539 117.002 487.14 117.312C486.74 117.623 486.439 118.046 486.235 118.583C486.035 119.12 485.935 119.725 485.935 120.4C485.935 121.083 486.037 121.697 486.241 122.243C486.445 122.788 486.747 123.221 487.146 123.54C487.55 123.855 488.047 124.013 488.637 124.013ZM498.09 111.883V125.51H496.101V111.883H498.09ZM502.025 129.342C501.727 129.342 501.457 129.318 501.213 129.269C500.969 129.225 500.787 129.176 500.667 129.123L501.146 127.493C501.51 127.59 501.834 127.632 502.118 127.619C502.402 127.606 502.652 127.499 502.87 127.3C503.091 127.1 503.287 126.774 503.455 126.322L503.701 125.643L499.962 115.289H502.091L504.68 123.221H504.786L507.374 115.289H509.51L505.298 126.874C505.103 127.406 504.855 127.856 504.553 128.225C504.251 128.597 503.892 128.877 503.475 129.063C503.058 129.249 502.575 129.342 502.025 129.342Z" fill="black"/>
</g>
<path d="M512.452 300.879C512.452 298.524 513.387 296.266 515.053 294.601C516.718 292.935 518.976 292 521.331 292H550.929C553.284 292 555.543 292.935 557.208 294.601C558.873 296.266 559.809 298.524 559.809 300.879V330.477C559.809 332.832 558.873 335.091 557.208 336.756C555.543 338.421 553.284 339.357 550.929 339.357C548.574 339.357 546.316 338.421 544.651 336.756C542.985 335.091 542.05 332.832 542.05 330.477V322.308L489.129 375.229C487.464 376.892 485.207 377.826 482.854 377.826C480.501 377.826 478.244 376.892 476.579 375.229L447.337 345.986L397.376 395.948C396.563 396.82 395.582 397.52 394.493 398.005C393.404 398.49 392.228 398.751 391.036 398.772C389.844 398.793 388.66 398.574 387.554 398.127C386.448 397.681 385.444 397.016 384.601 396.173C383.758 395.33 383.093 394.325 382.646 393.22C382.2 392.114 381.98 390.93 382.001 389.738C382.022 388.546 382.283 387.37 382.769 386.281C383.254 385.191 383.954 384.211 384.826 383.398L441.062 327.162C442.727 325.499 444.984 324.565 447.337 324.565C449.69 324.565 451.947 325.499 453.611 327.162L482.854 356.405L529.5 309.759H521.331C518.976 309.759 516.718 308.823 515.053 307.158C513.387 305.493 512.452 303.234 512.452 300.879Z" fill="#FCF4DD"/>
<defs>
<filter id="filter0_d_3139_70445" x="22.397" y="87.0918" width="462.906" height="286.059" filterUnits="userSpaceOnUse" color-interpolation-filters="sRGB">
<feFlood flood-opacity="0" result="BackgroundImageFix"/>
<feColorMatrix in="SourceAlpha" type="matrix" values="0 0 0 0 0 0 0 0 0 0 0 0 0 0 0 0 0 0 127 0" result="hardAlpha"/>
<feOffset dx="1"/>
<feGaussianBlur stdDeviation="11"/>
<feComposite in2="hardAlpha" operator="out"/>
<feColorMatrix type="matrix" values="0 0 0 0 0 0 0 0 0 0 0 0 0 0 0 0 0 0 0.12 0"/>
<feBlend mode="normal" in2="BackgroundImageFix" result="effect1_dropShadow_3139_70445"/>
<feBlend mode="normal" in="SourceGraphic" in2="effect1_dropShadow_3139_70445" result="shape"/>
</filter>
<filter id="filter1_d_3139_70445" x="367.768" y="85.2861" width="175.662" height="76.7222" filterUnits="userSpaceOnUse" color-interpolation-filters="sRGB">
<feFlood flood-opacity="0" result="BackgroundImageFix"/>
<feColorMatrix in="SourceAlpha" type="matrix" values="0 0 0 0 0 0 0 0 0 0 0 0 0 0 0 0 0 0 127 0" result="hardAlpha"/>
<feOffset dy="4.63741"/>
<feGaussianBlur stdDeviation="5.79676"/>
<feComposite in2="hardAlpha" operator="out"/>
<feColorMatrix type="matrix" values="0 0 0 0 0 0 0 0 0 0 0 0 0 0 0 0 0 0 0.25 0"/>
<feBlend mode="normal" in2="BackgroundImageFix" result="effect1_dropShadow_3139_70445"/>
<feBlend mode="normal" in="SourceGraphic" in2="effect1_dropShadow_3139_70445" result="shape"/>
</filter>
</defs>
</svg>
