<svg width="600" height="450" viewBox="0 0 600 450" fill="none" xmlns="http://www.w3.org/2000/svg">
<path d="M122.296 98.454L108.754 84.9062C112.814 79.6151 114.71 72.9776 114.056 66.3401C113.403 59.7027 110.249 53.5623 105.235 49.1647C100.22 44.7671 93.7209 42.4415 87.055 42.6597C80.389 42.8778 74.0556 45.6234 69.3395 50.3395C64.6234 55.0556 61.8778 61.389 61.6597 68.0549C61.4415 74.7209 63.7671 81.2203 68.1647 86.2346C72.5624 91.249 78.7027 94.4028 85.3401 95.0564C91.9776 95.7099 98.6151 93.8142 103.906 89.7539L117.46 103.31C117.778 103.629 118.156 103.881 118.572 104.053C118.988 104.226 119.433 104.314 119.884 104.314C120.334 104.314 120.779 104.226 121.195 104.053C121.611 103.881 121.989 103.629 122.307 103.31C122.626 102.992 122.878 102.614 123.05 102.198C123.223 101.782 123.311 101.337 123.311 100.886C123.311 100.436 123.223 99.9905 123.05 99.5746C122.878 99.1587 122.626 98.7809 122.307 98.4626L122.296 98.454ZM68.5469 68.9375C68.5469 65.1024 69.6841 61.3534 71.8148 58.1646C73.9455 54.9759 76.9739 52.4905 80.517 51.0229C84.0602 49.5553 87.959 49.1713 91.7204 49.9195C95.4818 50.6676 98.9369 52.5144 101.649 55.2262C104.361 57.9381 106.207 61.3932 106.956 65.1546C107.704 68.916 107.32 72.8148 105.852 76.358C104.384 79.9011 101.899 82.9295 98.7104 85.0602C95.5216 87.1909 91.7726 88.3281 87.9375 88.3281C82.7964 88.3228 77.8674 86.2782 74.2321 82.6429C70.5968 79.0076 68.5522 74.0786 68.5469 68.9375Z" fill="#DBEAF6"/>
<rect x="43.3969" y="110.091" width="418.906" height="242.059" rx="8.84233" fill="white"/>
<ellipse cx="71.2455" cy="136.786" rx="7.95343" ry="8.61622" fill="#DF434C"/>
<circle cx="93.1148" cy="136.786" r="8.61622" fill="#E7B44C"/>
<circle cx="114.326" cy="136.786" r="8.61622" fill="#6BD280"/>
<rect x="137.156" y="128.881" width="280.744" height="15.4741" rx="7.73704" stroke="#CDD4DF" stroke-width="2.21058"/>
<rect x="93.135" y="179.724" width="192.321" height="6.63175" rx="3.31588" fill="#4FB764"/>
<rect x="93.135" y="167.566" width="326.061" height="6.63175" rx="3.31588" fill="#71A5EE"/>
<rect x="93.135" y="191.882" width="162.478" height="5.52646" rx="2.76323" fill="#CDD4DF"/>
<rect x="258.929" y="191.882" width="158.057" height="5.52646" rx="2.76323" fill="#CDD4DF"/>
<rect x="93.135" y="202.935" width="267.481" height="5.52646" rx="2.76323" fill="#CDD4DF"/>
<rect x="93.135" y="236.094" width="192.321" height="6.63175" rx="3.31588" fill="#4FB764"/>
<rect x="93.135" y="223.936" width="326.061" height="6.63175" rx="3.31588" fill="#71A5EE"/>
<rect x="93.135" y="248.252" width="162.478" height="5.52646" rx="2.76323" fill="#CDD4DF"/>
<rect x="258.929" y="248.252" width="158.057" height="5.52646" rx="2.76323" fill="#CDD4DF"/>
<rect x="93.135" y="259.305" width="267.481" height="5.52646" rx="2.76323" fill="#CDD4DF"/>
<rect x="93.135" y="292.464" width="192.321" height="6.63175" rx="3.31588" fill="#4FB764"/>
<rect x="93.135" y="280.306" width="326.061" height="6.63175" rx="3.31588" fill="#71A5EE"/>
<rect x="93.135" y="304.622" width="162.478" height="5.52646" rx="2.76323" fill="#CDD4DF"/>
<rect x="258.929" y="304.622" width="158.057" height="5.52646" rx="2.76323" fill="#CDD4DF"/>
<rect x="93.135" y="315.675" width="267.481" height="5.52646" rx="2.76323" fill="#CDD4DF"/>
<g filter="url(#filter0_d_2090_29398)">
<rect x="379.361" y="92.2428" width="152.475" height="53.5357" rx="5.35357" fill="#1E75BA" shape-rendering="crispEdges"/>
<path d="M404.352 115.463C404.281 114.833 403.988 114.345 403.473 113.999C402.959 113.649 402.311 113.474 401.53 113.474C400.971 113.474 400.488 113.562 400.08 113.74C399.672 113.913 399.354 114.152 399.128 114.458C398.906 114.76 398.796 115.104 398.796 115.49C398.796 115.814 398.871 116.093 399.022 116.328C399.177 116.563 399.379 116.761 399.627 116.92C399.88 117.076 400.151 117.206 400.439 117.313C400.727 117.415 401.005 117.499 401.271 117.566L402.602 117.912C403.036 118.018 403.482 118.162 403.939 118.344C404.396 118.526 404.82 118.766 405.21 119.063C405.6 119.36 405.915 119.728 406.155 120.167C406.399 120.607 406.521 121.132 406.521 121.744C406.521 122.516 406.321 123.202 405.922 123.801C405.527 124.399 404.953 124.872 404.199 125.218C403.449 125.564 402.542 125.737 401.477 125.737C400.457 125.737 399.574 125.575 398.829 125.251C398.084 124.927 397.5 124.468 397.079 123.874C396.657 123.275 396.425 122.565 396.38 121.744H398.443C398.483 122.237 398.643 122.647 398.922 122.975C399.206 123.299 399.567 123.541 400.007 123.701C400.45 123.856 400.936 123.934 401.464 123.934C402.045 123.934 402.562 123.843 403.014 123.661C403.471 123.474 403.83 123.217 404.092 122.889C404.354 122.556 404.485 122.168 404.485 121.724C404.485 121.321 404.369 120.99 404.139 120.733C403.912 120.476 403.604 120.263 403.214 120.094C402.828 119.926 402.391 119.777 401.903 119.648L400.293 119.209C399.201 118.912 398.336 118.475 397.698 117.898C397.063 117.322 396.746 116.559 396.746 115.61C396.746 114.824 396.959 114.139 397.385 113.553C397.811 112.968 398.387 112.513 399.115 112.189C399.842 111.861 400.663 111.697 401.577 111.697C402.5 111.697 403.314 111.859 404.019 112.183C404.729 112.507 405.288 112.952 405.696 113.52C406.104 114.084 406.317 114.731 406.334 115.463H404.352ZM408.978 125.511V111.883H417.521V113.653H411.034V117.805H417.076V119.569H411.034V123.741H417.601V125.511H408.978ZM432.105 118.697C432.105 120.152 431.839 121.403 431.307 122.45C430.774 123.492 430.045 124.295 429.118 124.859C428.195 125.417 427.146 125.697 425.97 125.697C424.79 125.697 423.737 125.417 422.81 124.859C421.887 124.295 421.159 123.49 420.627 122.443C420.095 121.396 419.829 120.148 419.829 118.697C419.829 117.242 420.095 115.993 420.627 114.951C421.159 113.904 421.887 113.101 422.81 112.542C423.737 111.979 424.79 111.697 425.97 111.697C427.146 111.697 428.195 111.979 429.118 112.542C430.045 113.101 430.774 113.904 431.307 114.951C431.839 115.993 432.105 117.242 432.105 118.697ZM430.069 118.697C430.069 117.588 429.889 116.654 429.53 115.896C429.175 115.133 428.687 114.556 428.066 114.166C427.45 113.771 426.751 113.573 425.97 113.573C425.185 113.573 424.484 113.771 423.868 114.166C423.251 114.556 422.763 115.133 422.404 115.896C422.049 116.654 421.871 117.588 421.871 118.697C421.871 119.806 422.049 120.742 422.404 121.505C422.763 122.263 423.251 122.84 423.868 123.235C424.484 123.625 425.185 123.82 425.97 123.82C426.751 123.82 427.45 123.625 428.066 123.235C428.687 122.84 429.175 122.263 429.53 121.505C429.889 120.742 430.069 119.806 430.069 118.697ZM439.627 125.511V111.883H448.078V113.653H441.683V117.805H447.472V119.569H441.683V125.511H439.627ZM450.319 125.511V115.29H452.242V116.914H452.348C452.534 116.364 452.863 115.931 453.333 115.616C453.808 115.297 454.344 115.137 454.943 115.137C455.067 115.137 455.214 115.142 455.382 115.15C455.555 115.159 455.691 115.17 455.788 115.184V117.087C455.708 117.065 455.566 117.04 455.362 117.014C455.158 116.982 454.954 116.967 454.75 116.967C454.28 116.967 453.861 117.067 453.493 117.266C453.129 117.462 452.84 117.734 452.628 118.085C452.415 118.431 452.308 118.826 452.308 119.269V125.511H450.319ZM457.51 125.511V115.29H459.499V125.511H457.51ZM458.515 113.713C458.169 113.713 457.871 113.598 457.623 113.367C457.379 113.132 457.257 112.853 457.257 112.529C457.257 112.2 457.379 111.921 457.623 111.69C457.871 111.455 458.169 111.338 458.515 111.338C458.861 111.338 459.156 111.455 459.4 111.69C459.648 111.921 459.772 112.2 459.772 112.529C459.772 112.853 459.648 113.132 459.4 113.367C459.156 113.598 458.861 113.713 458.515 113.713ZM466.581 125.717C465.574 125.717 464.707 125.502 463.979 125.071C463.256 124.637 462.697 124.027 462.302 123.242C461.912 122.452 461.717 121.527 461.717 120.467C461.717 119.42 461.912 118.497 462.302 117.699C462.697 116.9 463.247 116.277 463.953 115.829C464.662 115.381 465.492 115.157 466.441 115.157C467.018 115.157 467.577 115.252 468.118 115.443C468.659 115.634 469.145 115.933 469.575 116.341C470.005 116.75 470.345 117.28 470.593 117.932C470.842 118.579 470.966 119.367 470.966 120.294V120.999H462.841V119.509H469.016C469.016 118.985 468.91 118.522 468.697 118.118C468.484 117.71 468.184 117.388 467.799 117.153C467.417 116.918 466.969 116.801 466.454 116.801C465.896 116.801 465.408 116.938 464.991 117.213C464.578 117.484 464.259 117.839 464.032 118.278C463.811 118.712 463.7 119.185 463.7 119.695V120.859C463.7 121.543 463.819 122.124 464.059 122.603C464.303 123.082 464.642 123.448 465.077 123.701C465.512 123.949 466.02 124.073 466.601 124.073C466.978 124.073 467.322 124.02 467.632 123.914C467.943 123.803 468.211 123.639 468.437 123.421C468.664 123.204 468.837 122.936 468.956 122.616L470.839 122.955C470.689 123.51 470.418 123.996 470.028 124.413C469.642 124.825 469.156 125.147 468.57 125.378C467.989 125.604 467.326 125.717 466.581 125.717ZM475.163 119.442V125.511H473.173V115.29H475.083V116.954H475.209C475.444 116.412 475.813 115.978 476.314 115.649C476.82 115.321 477.456 115.157 478.224 115.157C478.92 115.157 479.53 115.303 480.053 115.596C480.577 115.885 480.983 116.315 481.271 116.887C481.559 117.459 481.704 118.167 481.704 119.01V125.511H479.714V119.249C479.714 118.508 479.521 117.93 479.135 117.513C478.749 117.091 478.219 116.88 477.545 116.88C477.084 116.88 476.673 116.98 476.314 117.18C475.959 117.379 475.677 117.672 475.469 118.058C475.265 118.44 475.163 118.901 475.163 119.442ZM488.198 125.71C487.373 125.71 486.636 125.499 485.989 125.078C485.346 124.652 484.84 124.047 484.472 123.262C484.108 122.472 483.926 121.525 483.926 120.42C483.926 119.316 484.11 118.371 484.478 117.586C484.851 116.801 485.361 116.2 486.009 115.783C486.656 115.366 487.39 115.157 488.211 115.157C488.845 115.157 489.356 115.264 489.742 115.476C490.132 115.685 490.434 115.929 490.646 116.208C490.864 116.488 491.032 116.734 491.152 116.947H491.272V111.883H493.261V125.511H491.319V123.92H491.152C491.032 124.138 490.859 124.386 490.633 124.666C490.411 124.945 490.105 125.189 489.715 125.397C489.325 125.606 488.819 125.71 488.198 125.71ZM488.637 124.013C489.209 124.013 489.693 123.863 490.088 123.561C490.487 123.255 490.788 122.831 490.992 122.29C491.201 121.749 491.305 121.119 491.305 120.4C491.305 119.691 491.203 119.07 490.999 118.537C490.795 118.005 490.496 117.59 490.101 117.293C489.706 116.996 489.218 116.847 488.637 116.847C488.038 116.847 487.539 117.002 487.14 117.313C486.741 117.623 486.439 118.047 486.235 118.584C486.035 119.121 485.935 119.726 485.935 120.4C485.935 121.084 486.038 121.698 486.242 122.244C486.446 122.789 486.747 123.222 487.147 123.541C487.55 123.856 488.047 124.013 488.637 124.013ZM498.091 111.883V125.511H496.101V111.883H498.091ZM502.025 129.343C501.727 129.343 501.457 129.319 501.213 129.27C500.969 129.226 500.787 129.177 500.667 129.124L501.146 127.493C501.51 127.591 501.834 127.633 502.118 127.62C502.402 127.607 502.652 127.5 502.87 127.3C503.092 127.101 503.287 126.775 503.455 126.322L503.701 125.644L499.962 115.29H502.091L504.68 123.222H504.786L507.374 115.29H509.51L505.298 126.875C505.103 127.407 504.855 127.857 504.553 128.225C504.252 128.598 503.892 128.877 503.475 129.064C503.058 129.25 502.575 129.343 502.025 129.343Z" fill="white"/>
</g>
<path d="M512.452 300.879C512.452 298.524 513.387 296.266 515.053 294.601C516.718 292.935 518.976 292 521.331 292H550.929C553.284 292 555.543 292.935 557.208 294.601C558.873 296.266 559.809 298.524 559.809 300.879V330.477C559.809 332.832 558.873 335.091 557.208 336.756C555.543 338.421 553.284 339.357 550.929 339.357C548.574 339.357 546.316 338.421 544.651 336.756C542.985 335.091 542.05 332.832 542.05 330.477V322.308L489.129 375.229C487.464 376.892 485.207 377.826 482.854 377.826C480.501 377.826 478.244 376.892 476.579 375.229L447.337 345.986L397.376 395.948C396.563 396.82 395.582 397.52 394.493 398.005C393.404 398.49 392.228 398.751 391.036 398.772C389.844 398.793 388.66 398.574 387.554 398.127C386.448 397.681 385.444 397.016 384.601 396.173C383.758 395.33 383.093 394.325 382.646 393.22C382.2 392.114 381.98 390.93 382.001 389.738C382.022 388.546 382.283 387.37 382.769 386.281C383.254 385.191 383.954 384.211 384.826 383.398L441.062 327.162C442.727 325.499 444.984 324.565 447.337 324.565C449.69 324.565 451.947 325.499 453.611 327.162L482.854 356.405L529.5 309.759H521.331C518.976 309.759 516.718 308.823 515.053 307.158C513.387 305.493 512.452 303.234 512.452 300.879Z" fill="#DBEAF6"/>
<defs>
<filter id="filter0_d_2090_29398" x="367.768" y="85.2867" width="175.662" height="76.7227" filterUnits="userSpaceOnUse" color-interpolation-filters="sRGB">
<feFlood flood-opacity="0" result="BackgroundImageFix"/>
<feColorMatrix in="SourceAlpha" type="matrix" values="0 0 0 0 0 0 0 0 0 0 0 0 0 0 0 0 0 0 127 0" result="hardAlpha"/>
<feOffset dy="4.63741"/>
<feGaussianBlur stdDeviation="5.79676"/>
<feComposite in2="hardAlpha" operator="out"/>
<feColorMatrix type="matrix" values="0 0 0 0 0 0 0 0 0 0 0 0 0 0 0 0 0 0 0.25 0"/>
<feBlend mode="normal" in2="BackgroundImageFix" result="effect1_dropShadow_2090_29398"/>
<feBlend mode="normal" in="SourceGraphic" in2="effect1_dropShadow_2090_29398" result="shape"/>
</filter>
</defs>
</svg>
