<svg width="613" height="450" viewBox="0 0 613 450" fill="none" xmlns="http://www.w3.org/2000/svg">
<g clip-path="url(#clip0_2090_29397)">
<path d="M509.529 264.06C509.849 263.74 510.228 263.486 510.646 263.313C511.064 263.14 511.511 263.051 511.963 263.051C512.415 263.051 512.863 263.14 513.28 263.313C513.698 263.486 514.077 263.74 514.397 264.06C514.717 264.379 514.97 264.759 515.143 265.176C515.316 265.594 515.405 266.041 515.405 266.493C515.405 266.945 515.316 267.393 515.143 267.811C514.97 268.228 514.717 268.608 514.397 268.927L497.969 285.356L491.276 287.181L493.101 280.488L509.529 264.06Z" stroke="white" stroke-width="2.43382" stroke-linecap="round" stroke-linejoin="round"/>
<line x1="494.507" y1="289.982" x2="516.051" y2="289.982" stroke="white" stroke-width="2.15441" stroke-linecap="round"/>
<g clip-path="url(#clip1_2090_29397)">
<rect x="103.104" y="75.5012" width="422.152" height="271.041" rx="14.3916" fill="white"/>
<ellipse cx="128.288" cy="95.2922" rx="7.19577" ry="7.79542" fill="#DF434C"/>
<circle cx="148.074" cy="95.2922" r="7.79542" fill="#E7B44C"/>
<circle cx="167.264" cy="95.2922" r="7.79542" fill="#6BD280"/>
<rect x="187.048" y="87.4968" width="319.013" height="15.5908" rx="7.79542" fill="#E1E3E8"/>
<rect x="121.092" y="127.072" width="71.9578" height="19.1887" rx="4.79718" fill="#F2F3F5"/>
<rect x="121.092" y="153.456" width="71.9578" height="19.1887" rx="4.79718" fill="#F2F3F5"/>
<rect x="121.092" y="179.844" width="71.9578" height="19.1887" rx="4.79718" fill="#5E9BF0"/>
<rect x="121.092" y="206.227" width="71.9578" height="19.1887" rx="4.79718" fill="#F2F3F5"/>
<rect x="121.092" y="232.613" width="71.9578" height="19.1887" rx="4.79718" fill="#F2F3F5"/>
<rect x="121.092" y="258.997" width="71.9578" height="19.1887" rx="4.79718" fill="#F2F3F5"/>
<rect x="208.692" y="153.849" width="297.906" height="135.212" rx="4.79718" fill="#F2F3F5"/>
<g filter="url(#filter0_bdii_2090_29397)">
<rect x="42.6982" y="306.648" width="253.935" height="62.6592" rx="31.3296" fill="#5E9BF0"/>
</g>
<g filter="url(#filter1_bdii_2090_29397)">
<rect x="471.42" y="259.379" width="43.9714" height="43.9714" rx="21.9857" fill="#5E9BF0"/>
</g>
<path d="M88.634 327.889V343.84H92.485V327.889H88.634ZM91.0494 331.057H94.1712C94.9459 331.057 95.5536 331.231 95.9941 331.581C96.4347 331.93 96.6549 332.439 96.6549 333.107C96.6549 333.761 96.4347 334.262 95.9941 334.611C95.5536 334.961 94.9459 335.135 94.1712 335.135H91.0494V338.303H94.1712C95.5232 338.303 96.6549 338.098 97.5664 337.688C98.4931 337.262 99.1919 336.662 99.6628 335.887C100.134 335.097 100.369 334.171 100.369 333.107C100.369 332.014 100.134 331.079 99.6628 330.305C99.1919 329.53 98.4931 328.937 97.5664 328.527C96.6549 328.102 95.5232 327.889 94.1712 327.889H91.0494V331.057ZM106.328 339.738V333.358H102.728V340.103C102.728 341.349 103.024 342.328 103.617 343.042C104.224 343.741 105.181 344.091 106.488 344.091C107.262 344.091 107.908 343.931 108.425 343.612C108.941 343.278 109.359 342.83 109.678 342.268V343.84H113.119V333.358H109.678V339.738C109.678 340.149 109.602 340.498 109.45 340.787C109.298 341.075 109.085 341.295 108.812 341.447C108.554 341.599 108.235 341.675 107.855 341.675C107.293 341.675 106.898 341.508 106.67 341.174C106.442 340.825 106.328 340.346 106.328 339.738ZM119.936 326.066H116.496V343.84H119.936V326.066ZM128.504 338.599C128.504 337.414 128.261 336.419 127.775 335.614C127.304 334.809 126.689 334.194 125.929 333.768C125.185 333.343 124.38 333.13 123.514 333.13C122.648 333.13 121.873 333.35 121.19 333.791C120.506 334.232 119.967 334.862 119.572 335.682C119.177 336.487 118.979 337.46 118.979 338.599C118.979 339.723 119.177 340.695 119.572 341.516C119.967 342.336 120.506 342.966 121.19 343.407C121.873 343.848 122.648 344.068 123.514 344.068C124.38 344.068 125.185 343.855 125.929 343.43C126.689 343.004 127.304 342.389 127.775 341.584C128.261 340.764 128.504 339.769 128.504 338.599ZM124.881 338.599C124.881 339.146 124.767 339.624 124.539 340.035C124.311 340.43 124.007 340.741 123.628 340.969C123.248 341.181 122.83 341.288 122.374 341.288C121.979 341.288 121.592 341.181 121.212 340.969C120.848 340.756 120.544 340.452 120.301 340.057C120.058 339.647 119.936 339.161 119.936 338.599C119.936 338.037 120.058 337.558 120.301 337.163C120.544 336.753 120.848 336.442 121.212 336.229C121.592 336.017 121.979 335.91 122.374 335.91C122.83 335.91 123.248 336.024 123.628 336.252C124.007 336.465 124.311 336.776 124.539 337.186C124.767 337.581 124.881 338.052 124.881 338.599ZM131.266 326.066V343.84H134.729V326.066H131.266ZM137.886 329.416C137.886 329.963 138.083 330.411 138.478 330.76C138.873 331.11 139.344 331.285 139.891 331.285C140.453 331.285 140.924 331.11 141.304 330.76C141.699 330.411 141.896 329.963 141.896 329.416C141.896 328.869 141.699 328.429 141.304 328.094C140.924 327.745 140.453 327.57 139.891 327.57C139.344 327.57 138.873 327.745 138.478 328.094C138.083 328.429 137.886 328.869 137.886 329.416ZM138.228 333.358V343.84H141.554V333.358H138.228ZM145.642 340.035L144.206 342.313C144.677 342.678 145.186 343.012 145.733 343.316C146.28 343.604 146.872 343.832 147.51 343.999C148.163 344.182 148.87 344.273 149.629 344.273C150.875 344.273 151.84 343.992 152.523 343.43C153.222 342.853 153.571 342.002 153.571 340.878C153.571 340.224 153.427 339.7 153.138 339.305C152.865 338.91 152.493 338.584 152.022 338.326C151.566 338.067 151.065 337.839 150.518 337.642C150.001 337.444 149.561 337.285 149.196 337.163C148.847 337.027 148.573 336.882 148.376 336.731C148.194 336.579 148.103 336.389 148.103 336.161C148.103 335.963 148.178 335.804 148.33 335.682C148.497 335.561 148.741 335.5 149.06 335.5C149.53 335.5 150.047 335.637 150.609 335.91C151.171 336.168 151.672 336.503 152.113 336.913L153.343 334.68C152.933 334.376 152.493 334.11 152.022 333.882C151.566 333.654 151.072 333.472 150.541 333.335C150.024 333.199 149.462 333.13 148.854 333.13C148.095 333.13 147.419 333.244 146.826 333.472C146.249 333.7 145.786 334.034 145.436 334.475C145.102 334.915 144.935 335.454 144.935 336.092C144.935 336.761 145.08 337.308 145.368 337.733C145.657 338.158 146.021 338.5 146.462 338.759C146.918 339.002 147.396 339.214 147.897 339.397C148.46 339.564 148.9 339.723 149.219 339.875C149.553 340.027 149.789 340.186 149.925 340.354C150.062 340.505 150.131 340.695 150.131 340.923C150.131 341.166 150.047 341.364 149.88 341.516C149.713 341.668 149.455 341.744 149.105 341.744C148.862 341.744 148.573 341.698 148.239 341.607C147.905 341.501 147.518 341.326 147.077 341.083C146.652 340.825 146.173 340.475 145.642 340.035ZM159.611 326.066H156.147V343.84H159.611V326.066ZM162.961 337.46V343.84H166.401V336.958C166.401 336.092 166.28 335.363 166.037 334.771C165.794 334.178 165.406 333.73 164.875 333.426C164.358 333.123 163.667 332.971 162.801 332.971C161.935 332.971 161.221 333.176 160.659 333.586C160.112 333.981 159.702 334.52 159.429 335.204C159.155 335.872 159.019 336.624 159.019 337.46H159.611C159.611 337.05 159.687 336.708 159.839 336.434C159.991 336.146 160.203 335.925 160.477 335.773C160.75 335.606 161.069 335.523 161.434 335.523C161.996 335.523 162.391 335.69 162.619 336.024C162.847 336.358 162.961 336.837 162.961 337.46ZM180.168 340.764H188.599L188.348 337.824H180.441L180.168 340.764ZM184.338 333.745L186.594 338.918L186.457 339.898L188.371 343.84H192.746L184.338 326.887L175.952 343.84H180.304L182.287 339.738L182.105 338.895L184.338 333.745ZM198.154 333.358H194.759V343.84H198.154V333.358ZM201.185 336.913L202.666 333.973C202.484 333.7 202.218 333.487 201.869 333.335C201.519 333.183 201.155 333.107 200.775 333.107C200.198 333.107 199.643 333.297 199.111 333.677C198.58 334.057 198.147 334.573 197.813 335.227C197.494 335.88 197.334 336.624 197.334 337.46L198.154 338.667C198.154 338.166 198.223 337.741 198.36 337.391C198.496 337.042 198.694 336.776 198.952 336.594C199.21 336.411 199.506 336.32 199.841 336.32C200.144 336.32 200.395 336.374 200.593 336.48C200.805 336.586 201.003 336.731 201.185 336.913ZM203.581 333.358V336.206H210.599V333.358H203.581ZM205.426 329.712V343.84H208.73V329.712H205.426ZM212.544 329.416C212.544 329.963 212.741 330.411 213.136 330.76C213.531 331.11 214.002 331.285 214.549 331.285C215.111 331.285 215.582 331.11 215.962 330.76C216.357 330.411 216.554 329.963 216.554 329.416C216.554 328.869 216.357 328.429 215.962 328.094C215.582 327.745 215.111 327.57 214.549 327.57C214.002 327.57 213.531 327.745 213.136 328.094C212.741 328.429 212.544 328.869 212.544 329.416ZM212.886 333.358V343.84H216.213V333.358H212.886ZM222.624 338.599C222.624 338.083 222.746 337.619 222.989 337.209C223.232 336.799 223.566 336.472 223.991 336.229C224.432 335.986 224.903 335.865 225.404 335.865C225.784 335.865 226.171 335.925 226.566 336.047C226.961 336.168 227.326 336.343 227.66 336.571C228.009 336.799 228.29 337.08 228.503 337.414V334.042C228.138 333.783 227.683 333.571 227.136 333.404C226.589 333.221 225.921 333.13 225.131 333.13C223.976 333.13 222.935 333.358 222.009 333.814C221.097 334.27 220.376 334.908 219.844 335.728C219.328 336.533 219.069 337.49 219.069 338.599C219.069 339.693 219.328 340.65 219.844 341.47C220.376 342.29 221.097 342.928 222.009 343.384C222.935 343.84 223.976 344.068 225.131 344.068C225.921 344.068 226.589 343.984 227.136 343.817C227.683 343.635 228.138 343.399 228.503 343.111V339.761C228.29 340.095 228.017 340.376 227.683 340.604C227.364 340.832 227.007 341.014 226.612 341.151C226.232 341.273 225.829 341.333 225.404 341.333C224.903 341.333 224.432 341.219 223.991 340.992C223.566 340.764 223.232 340.452 222.989 340.057C222.746 339.647 222.624 339.161 222.624 338.599ZM231.674 326.066V343.84H235.137V326.066H231.674ZM243.831 344.068C245.168 344.068 246.299 343.81 247.226 343.293C248.168 342.777 248.912 342.002 249.459 340.969L246.383 340.217C246.125 340.673 245.775 341.014 245.335 341.242C244.909 341.47 244.393 341.584 243.785 341.584C243.254 341.584 242.806 341.47 242.441 341.242C242.076 340.999 241.803 340.65 241.621 340.194C241.438 339.738 241.347 339.191 241.347 338.553C241.362 337.855 241.454 337.277 241.621 336.822C241.803 336.351 242.069 336.001 242.418 335.773C242.768 335.546 243.2 335.432 243.717 335.432C244.127 335.432 244.484 335.523 244.788 335.705C245.092 335.887 245.327 336.146 245.494 336.48C245.661 336.814 245.745 337.209 245.745 337.665C245.745 337.771 245.715 337.908 245.654 338.075C245.608 338.227 245.548 338.356 245.472 338.462L246.292 337.414H239.82V339.328H249.391C249.421 339.222 249.436 339.093 249.436 338.941C249.436 338.774 249.436 338.607 249.436 338.44C249.436 337.315 249.216 336.358 248.776 335.568C248.335 334.778 247.697 334.178 246.862 333.768C246.026 333.343 245.001 333.13 243.785 333.13C242.57 333.13 241.514 333.35 240.618 333.791C239.737 334.232 239.061 334.862 238.59 335.682C238.119 336.503 237.884 337.475 237.884 338.599C237.884 339.708 238.127 340.673 238.613 341.493C239.099 342.313 239.782 342.951 240.664 343.407C241.56 343.848 242.616 344.068 243.831 344.068Z" fill="white"/>
<path d="M153.673 134.397L155.992 133.821V141.072H158.176V131.515L153.673 132.427V134.397Z" fill="#887D7D"/>
<path d="M151.843 167.456H159.791V165.378H156.038L158.223 163.421C158.625 163.073 158.951 162.689 159.201 162.269C159.452 161.84 159.577 161.37 159.577 160.861C159.577 160.504 159.501 160.151 159.349 159.802C159.197 159.454 158.969 159.136 158.665 158.851C158.37 158.556 157.999 158.323 157.553 158.154C157.106 157.975 156.592 157.885 156.011 157.885C155.207 157.885 154.523 158.051 153.96 158.381C153.406 158.712 152.991 159.154 152.714 159.708C152.437 160.262 152.298 160.875 152.298 161.545H154.523C154.523 161.205 154.577 160.906 154.684 160.647C154.8 160.388 154.966 160.186 155.18 160.043C155.404 159.901 155.658 159.829 155.944 159.829C156.159 159.829 156.346 159.865 156.507 159.936C156.668 159.999 156.802 160.088 156.909 160.204C157.017 160.312 157.097 160.437 157.151 160.58C157.204 160.723 157.231 160.866 157.231 161.009C157.231 161.259 157.182 161.496 157.084 161.719C156.994 161.933 156.856 162.152 156.668 162.376C156.489 162.599 156.275 162.849 156.025 163.126L151.843 167.456Z" fill="#887D7D"/>
<path d="M155.596 189.3C156.337 189.3 157.007 189.211 157.606 189.032C158.205 188.853 158.678 188.585 159.027 188.228C159.384 187.87 159.563 187.423 159.563 186.887C159.563 186.405 159.434 185.967 159.174 185.574C158.924 185.18 158.553 184.868 158.062 184.635C157.57 184.403 156.972 184.287 156.266 184.287C155.604 184.287 155.024 184.416 154.523 184.676C154.023 184.926 153.634 185.274 153.357 185.721C153.089 186.159 152.955 186.655 152.955 187.209H155.033C155.033 186.878 155.149 186.61 155.381 186.405C155.613 186.199 155.908 186.096 156.266 186.096C156.507 186.096 156.704 186.137 156.856 186.217C157.007 186.289 157.124 186.396 157.204 186.539C157.284 186.682 157.325 186.843 157.325 187.021C157.325 187.191 157.284 187.352 157.204 187.504C157.124 187.656 157.003 187.79 156.842 187.906C156.69 188.022 156.507 188.116 156.293 188.187C156.087 188.25 155.855 188.281 155.596 188.281V189.3ZM156.159 194.058C156.927 194.058 157.584 193.942 158.129 193.71C158.674 193.469 159.094 193.142 159.389 192.731C159.684 192.311 159.831 191.829 159.831 191.284C159.831 190.81 159.728 190.404 159.523 190.064C159.317 189.724 159.022 189.447 158.638 189.233C158.254 189.01 157.803 188.849 157.284 188.75C156.775 188.643 156.212 188.59 155.596 188.59V189.742C155.935 189.742 156.23 189.774 156.48 189.836C156.73 189.899 156.936 189.992 157.097 190.118C157.267 190.234 157.392 190.372 157.472 190.533C157.553 190.694 157.593 190.873 157.593 191.069C157.593 191.328 157.535 191.547 157.418 191.726C157.302 191.905 157.141 192.034 156.936 192.115C156.739 192.195 156.507 192.235 156.239 192.235C155.989 192.235 155.747 192.186 155.515 192.088C155.292 191.99 155.113 191.838 154.979 191.632C154.845 191.427 154.778 191.172 154.778 190.868H152.553C152.553 191.279 152.633 191.677 152.794 192.061C152.964 192.445 153.201 192.789 153.505 193.093C153.817 193.397 154.197 193.634 154.644 193.804C155.091 193.973 155.596 194.058 156.159 194.058Z" fill="white"/>
<path d="M151.981 218.565H160.586V216.635H158.669L158.441 216.93H154.983L157.007 214.129V217.721L156.753 217.868V220.227H159.112V210.845H157.423L151.981 218.565Z" fill="#887D7D"/>
<path d="M159.762 243.611C159.762 242.959 159.628 242.404 159.36 241.949C159.092 241.493 158.739 241.145 158.301 240.903C157.872 240.662 157.408 240.541 156.907 240.541C156.613 240.541 156.327 240.568 156.05 240.622C155.781 240.666 155.522 240.747 155.272 240.863L155.808 239.188H159.561V237.231H154.146L152.833 242.646C153.154 242.485 153.467 242.364 153.771 242.284C154.084 242.194 154.383 242.136 154.669 242.11C154.964 242.074 155.232 242.056 155.473 242.056C155.786 242.056 156.076 242.101 156.344 242.19C156.621 242.279 156.845 242.422 157.015 242.619C157.193 242.807 157.283 243.057 157.283 243.37C157.283 243.664 157.211 243.915 157.068 244.12C156.925 244.326 156.72 244.478 156.452 244.576C156.184 244.674 155.857 244.723 155.473 244.723C155.25 244.723 155 244.683 154.723 244.603C154.446 244.513 154.169 244.397 153.892 244.254C153.623 244.102 153.36 243.919 153.101 243.705L152.216 245.568C152.511 245.791 152.837 245.997 153.195 246.184C153.552 246.363 153.963 246.506 154.428 246.613C154.892 246.729 155.411 246.788 155.983 246.788C156.438 246.788 156.885 246.729 157.323 246.613C157.77 246.488 158.176 246.296 158.543 246.037C158.918 245.778 159.213 245.447 159.427 245.045C159.651 244.643 159.762 244.165 159.762 243.611Z" fill="#887D7D"/>
<path d="M154.398 269.7C154.398 269.387 154.465 269.11 154.599 268.869C154.742 268.627 154.93 268.44 155.162 268.306C155.403 268.172 155.676 268.105 155.98 268.105C156.275 268.105 156.538 268.172 156.771 268.306C157.012 268.44 157.2 268.627 157.334 268.869C157.477 269.11 157.548 269.387 157.548 269.7C157.548 270.021 157.477 270.303 157.334 270.544C157.2 270.776 157.012 270.96 156.771 271.094C156.538 271.219 156.275 271.281 155.98 271.281C155.676 271.281 155.403 271.219 155.162 271.094C154.93 270.96 154.742 270.776 154.599 270.544C154.465 270.303 154.398 270.021 154.398 269.7ZM155.953 263.654L153.245 267.099C152.942 267.475 152.682 267.877 152.468 268.306C152.262 268.735 152.16 269.199 152.16 269.7C152.16 270.468 152.329 271.116 152.669 271.643C153.017 272.161 153.478 272.555 154.05 272.823C154.63 273.082 155.274 273.211 155.98 273.211C156.677 273.211 157.311 273.082 157.883 272.823C158.464 272.555 158.924 272.161 159.264 271.643C159.612 271.116 159.786 270.468 159.786 269.7C159.786 269.226 159.702 268.802 159.532 268.426C159.371 268.051 159.148 267.734 158.862 267.475C158.585 267.206 158.272 267.005 157.923 266.871C157.584 266.728 157.24 266.657 156.891 266.657C156.552 266.657 156.266 266.693 156.033 266.764C155.81 266.836 155.573 266.996 155.323 267.247L155.792 267.046L158.821 263.654H155.953Z" fill="#887D7D"/>
<path d="M223.272 178.027C223.272 177.17 223.451 176.409 223.81 175.744C224.168 175.078 224.66 174.554 225.287 174.17C225.914 173.786 226.643 173.594 227.475 173.594C228.319 173.594 229.055 173.786 229.681 174.17C230.308 174.554 230.794 175.078 231.14 175.744C231.485 176.409 231.658 177.17 231.658 178.027C231.658 178.884 231.479 179.645 231.121 180.311C230.775 180.976 230.289 181.5 229.662 181.884C229.035 182.268 228.306 182.46 227.475 182.46C226.643 182.46 225.914 182.268 225.287 181.884C224.66 181.5 224.168 180.976 223.81 180.311C223.451 179.645 223.272 178.884 223.272 178.027ZM220.375 178.027C220.375 179.038 220.548 179.978 220.893 180.848C221.238 181.705 221.731 182.453 222.37 183.093C223.01 183.732 223.758 184.231 224.616 184.59C225.485 184.935 226.439 185.108 227.475 185.108C228.511 185.108 229.458 184.935 230.315 184.59C231.185 184.231 231.933 183.732 232.56 183.093C233.199 182.453 233.692 181.705 234.037 180.848C234.395 179.978 234.575 179.038 234.575 178.027C234.575 177.004 234.395 176.07 234.037 175.225C233.692 174.368 233.193 173.626 232.541 173C231.901 172.373 231.153 171.893 230.295 171.56C229.438 171.215 228.498 171.042 227.475 171.042C226.464 171.042 225.524 171.215 224.654 171.56C223.797 171.893 223.048 172.373 222.409 173C221.769 173.626 221.27 174.368 220.912 175.225C220.554 176.07 220.375 177.004 220.375 178.027ZM239.612 181.289V175.916H237.041V181.558C237.041 182.607 237.297 183.432 237.809 184.033C238.333 184.634 239.12 184.935 240.169 184.935C240.796 184.935 241.327 184.807 241.762 184.551C242.197 184.283 242.555 183.899 242.836 183.4V184.743H245.312V175.916H242.836V181.289C242.836 181.66 242.759 181.98 242.606 182.249C242.465 182.517 242.261 182.728 241.992 182.882C241.736 183.023 241.429 183.093 241.071 183.093C240.559 183.093 240.188 182.939 239.958 182.632C239.728 182.313 239.612 181.865 239.612 181.289ZM250.773 175.916H248.336V184.743H250.773V175.916ZM253.363 178.507L254.495 176.396C254.316 176.166 254.079 175.993 253.785 175.878C253.504 175.763 253.203 175.705 252.883 175.705C252.423 175.705 251.975 175.872 251.54 176.204C251.105 176.524 250.753 176.959 250.485 177.509C250.216 178.046 250.082 178.667 250.082 179.37L250.773 180.061C250.773 179.639 250.824 179.281 250.926 178.986C251.041 178.679 251.207 178.443 251.425 178.276C251.642 178.11 251.905 178.027 252.212 178.027C252.468 178.027 252.679 178.072 252.845 178.161C253.024 178.238 253.197 178.353 253.363 178.507ZM265.998 178.488L270.028 184.743H273.27L268.895 178.488H265.998ZM262.947 171.311V184.743H265.691V171.311H262.947ZM264.616 173.652H267.284C267.77 173.652 268.185 173.735 268.531 173.901C268.889 174.055 269.164 174.285 269.356 174.592C269.548 174.886 269.644 175.245 269.644 175.667C269.644 176.089 269.548 176.454 269.356 176.761C269.164 177.055 268.889 177.285 268.531 177.451C268.185 177.605 267.77 177.682 267.284 177.682H264.616V179.869H267.456C268.518 179.869 269.42 179.69 270.162 179.332C270.904 178.974 271.473 178.475 271.87 177.835C272.266 177.183 272.464 176.434 272.464 175.59C272.464 174.733 272.266 173.985 271.87 173.345C271.473 172.705 270.904 172.206 270.162 171.848C269.42 171.49 268.518 171.311 267.456 171.311H264.616V173.652ZM279.355 184.935C280.417 184.935 281.326 184.73 282.08 184.321C282.848 183.899 283.462 183.272 283.922 182.44L281.754 181.769C281.498 182.191 281.172 182.511 280.775 182.728C280.392 182.933 279.925 183.035 279.375 183.035C278.889 183.035 278.473 182.927 278.127 182.709C277.782 182.492 277.52 182.178 277.341 181.769C277.174 181.359 277.091 180.861 277.091 180.272C277.104 179.658 277.194 179.146 277.36 178.737C277.539 178.315 277.788 178.001 278.108 177.797C278.441 177.579 278.85 177.471 279.336 177.471C279.733 177.471 280.078 177.56 280.372 177.739C280.667 177.918 280.891 178.161 281.044 178.468C281.21 178.775 281.294 179.146 281.294 179.581C281.294 179.671 281.268 179.786 281.217 179.927C281.178 180.055 281.134 180.157 281.082 180.234L281.754 179.351H276.017V180.886H283.922C283.935 180.809 283.942 180.707 283.942 180.579C283.954 180.451 283.961 180.33 283.961 180.215C283.961 179.268 283.782 178.462 283.424 177.797C283.065 177.119 282.541 176.607 281.85 176.262C281.172 175.903 280.347 175.724 279.375 175.724C278.402 175.724 277.558 175.916 276.842 176.3C276.125 176.671 275.569 177.202 275.172 177.893C274.789 178.571 274.597 179.383 274.597 180.33C274.597 181.264 274.789 182.076 275.172 182.767C275.569 183.445 276.125 183.976 276.842 184.359C277.558 184.743 278.396 184.935 279.355 184.935ZM285.279 175.916V178.008H290.728V175.916H285.279ZM286.795 172.846V184.743H289.193V172.846H286.795ZM295.198 181.289V175.916H292.627V181.558C292.627 182.607 292.883 183.432 293.395 184.033C293.919 184.634 294.706 184.935 295.755 184.935C296.382 184.935 296.913 184.807 297.347 184.551C297.782 184.283 298.141 183.899 298.422 183.4V184.743H300.897V175.916H298.422V181.289C298.422 181.66 298.345 181.98 298.192 182.249C298.051 182.517 297.846 182.728 297.578 182.882C297.322 183.023 297.015 183.093 296.657 183.093C296.145 183.093 295.774 182.939 295.544 182.632C295.313 182.313 295.198 181.865 295.198 181.289ZM306.358 175.916H303.921V184.743H306.358V175.916ZM308.949 178.507L310.081 176.396C309.902 176.166 309.665 175.993 309.371 175.878C309.09 175.763 308.789 175.705 308.469 175.705C308.009 175.705 307.561 175.872 307.126 176.204C306.691 176.524 306.339 176.959 306.071 177.509C305.802 178.046 305.668 178.667 305.668 179.37L306.358 180.061C306.358 179.639 306.41 179.281 306.512 178.986C306.627 178.679 306.793 178.443 307.011 178.276C307.228 178.11 307.491 178.027 307.798 178.027C308.053 178.027 308.264 178.072 308.431 178.161C308.61 178.238 308.783 178.353 308.949 178.507ZM317.673 179.37V184.743H320.244V179.102C320.244 178.04 319.988 177.215 319.477 176.626C318.965 176.025 318.185 175.724 317.136 175.724C316.509 175.724 315.972 175.859 315.524 176.127C315.089 176.383 314.737 176.761 314.468 177.259V175.916H311.974V184.743H314.468V179.37C314.468 178.999 314.539 178.679 314.68 178.411C314.82 178.142 315.025 177.937 315.294 177.797C315.562 177.643 315.869 177.567 316.215 177.567C316.726 177.567 317.097 177.72 317.328 178.027C317.558 178.334 317.673 178.782 317.673 179.37ZM329.827 171.311V184.743H332.571V171.311H329.827ZM331.497 173.633H334.164C334.893 173.633 335.469 173.799 335.891 174.132C336.313 174.452 336.524 174.938 336.524 175.59C336.524 176.23 336.313 176.716 335.891 177.048C335.469 177.381 334.893 177.547 334.164 177.547H331.497V179.869H334.164C335.226 179.869 336.127 179.696 336.869 179.351C337.624 179.006 338.2 178.513 338.596 177.874C338.993 177.221 339.191 176.46 339.191 175.59C339.191 174.707 338.993 173.946 338.596 173.307C338.2 172.667 337.624 172.174 336.869 171.829C336.127 171.484 335.226 171.311 334.164 171.311H331.497V173.633ZM340.484 180.33C340.484 181.238 340.695 182.044 341.117 182.747C341.552 183.438 342.134 183.976 342.863 184.359C343.605 184.743 344.443 184.935 345.377 184.935C346.311 184.935 347.142 184.743 347.871 184.359C348.613 183.976 349.195 183.438 349.618 182.747C350.053 182.044 350.27 181.238 350.27 180.33C350.27 179.409 350.053 178.603 349.618 177.912C349.195 177.221 348.613 176.684 347.871 176.3C347.142 175.916 346.311 175.724 345.377 175.724C344.443 175.724 343.605 175.916 342.863 176.3C342.134 176.684 341.552 177.221 341.117 177.912C340.695 178.603 340.484 179.409 340.484 180.33ZM343.017 180.33C343.017 179.831 343.119 179.389 343.324 179.006C343.541 178.622 343.829 178.328 344.187 178.123C344.545 177.918 344.942 177.816 345.377 177.816C345.812 177.816 346.208 177.918 346.567 178.123C346.925 178.328 347.206 178.622 347.411 179.006C347.628 179.389 347.737 179.831 347.737 180.33C347.737 180.829 347.628 181.27 347.411 181.654C347.206 182.025 346.925 182.319 346.567 182.536C346.208 182.741 345.812 182.843 345.377 182.843C344.942 182.843 344.545 182.741 344.187 182.536C343.829 182.319 343.541 182.025 343.324 181.654C343.119 181.27 343.017 180.829 343.017 180.33ZM352.71 169.776V184.743H355.205V169.776H352.71ZM358.118 172.501C358.118 172.897 358.265 173.23 358.559 173.499C358.853 173.767 359.205 173.901 359.615 173.901C360.024 173.901 360.369 173.767 360.651 173.499C360.945 173.23 361.092 172.897 361.092 172.501C361.092 172.091 360.945 171.759 360.651 171.503C360.369 171.234 360.024 171.1 359.615 171.1C359.205 171.1 358.853 171.234 358.559 171.503C358.265 171.759 358.118 172.091 358.118 172.501ZM358.387 175.916V184.743H360.804V175.916H358.387ZM365.899 180.33C365.899 179.831 366.014 179.389 366.244 179.006C366.474 178.622 366.781 178.321 367.165 178.104C367.562 177.874 367.997 177.758 368.47 177.758C368.828 177.758 369.186 177.816 369.545 177.931C369.903 178.046 370.229 178.213 370.523 178.43C370.83 178.635 371.06 178.878 371.214 179.159V176.607C370.907 176.338 370.504 176.127 370.005 175.974C369.519 175.808 368.95 175.724 368.297 175.724C367.363 175.724 366.519 175.916 365.764 176.3C365.022 176.684 364.434 177.221 363.999 177.912C363.577 178.603 363.366 179.409 363.366 180.33C363.366 181.238 363.577 182.044 363.999 182.747C364.434 183.438 365.022 183.976 365.764 184.359C366.519 184.743 367.363 184.935 368.297 184.935C368.95 184.935 369.519 184.858 370.005 184.705C370.504 184.538 370.907 184.315 371.214 184.033V181.481C371.06 181.762 370.837 182.012 370.542 182.229C370.261 182.434 369.941 182.6 369.583 182.728C369.225 182.843 368.854 182.901 368.47 182.901C367.997 182.901 367.562 182.792 367.165 182.575C366.781 182.357 366.474 182.057 366.244 181.673C366.014 181.289 365.899 180.841 365.899 180.33ZM382.387 175.916H379.796L377.014 182.901L378.242 182.939L375.402 175.916H372.639L376.304 183.86L374.078 188.965H376.63L382.387 175.916Z" fill="#887D7D"/>
<rect x="219.684" y="214.31" width="246.24" height="7.69499" rx="3.84749" fill="#B9C2D0"/>
<rect x="219.684" y="200.017" width="246.24" height="7.69499" rx="3.84749" fill="#B9C2D0"/>
<rect x="219.684" y="228.599" width="182.293" height="7.19577" rx="3.59789" fill="#B9C2D0"/>
<g filter="url(#filter2_d_2090_29397)">
<path d="M266.906 340.479C266.674 339.372 267.86 338.512 268.843 339.074L308.041 361.498C309.037 362.068 308.873 363.55 307.775 363.887L288.749 369.729C288.455 369.819 288.202 370.01 288.034 370.267L278.512 384.91C277.874 385.89 276.366 385.608 276.126 384.463L266.906 340.479Z" fill="#333333"/>
<path d="M288.362 368.476L288.749 369.729L288.362 368.476C287.774 368.657 287.268 369.038 286.933 369.553L277.411 384.196L268.191 340.211L307.389 362.634L288.362 368.476Z" stroke="white" stroke-width="2.62277"/>
</g>
<path d="M499.858 268.1C500.184 267.774 500.572 267.515 500.999 267.338C501.426 267.162 501.884 267.071 502.346 267.071C502.808 267.071 503.265 267.162 503.692 267.338C504.119 267.515 504.507 267.774 504.834 268.1C505.161 268.426 505.42 268.813 505.597 269.239C505.774 269.665 505.865 270.122 505.865 270.584C505.865 271.045 505.774 271.502 505.597 271.928C505.42 272.354 505.161 272.741 504.834 273.067L488.038 289.832L481.195 291.695L483.062 284.865L499.858 268.1Z" stroke="white" stroke-width="2.4837" stroke-linecap="round" stroke-linejoin="round"/>
<line x1="483.623" y1="294.554" x2="505.609" y2="294.554" stroke="white" stroke-width="2.19857" stroke-linecap="round"/>
<path d="M217.86 139.808H225.994L225.489 137.609H218.343L217.86 139.808ZM221.883 132.728L224.324 138.445L224.389 139.082L226.478 143.765H229.402L221.883 127.518L214.364 143.765H217.288L219.421 138.95L219.465 138.379L221.883 132.728ZM233.149 140.621C233.149 140.299 233.222 140.027 233.369 139.808C233.53 139.588 233.765 139.419 234.073 139.302C234.38 139.17 234.783 139.104 235.282 139.104C235.853 139.104 236.396 139.177 236.909 139.324C237.422 139.471 237.905 139.705 238.36 140.027V138.818C238.228 138.657 238.001 138.481 237.678 138.291C237.356 138.085 236.945 137.91 236.447 137.763C235.963 137.616 235.384 137.543 234.71 137.543C233.45 137.543 232.475 137.836 231.786 138.423C231.097 138.994 230.753 139.771 230.753 140.753C230.753 141.442 230.914 142.028 231.236 142.512C231.559 142.996 231.991 143.362 232.534 143.611C233.076 143.86 233.662 143.985 234.292 143.985C234.879 143.985 235.45 143.882 236.007 143.677C236.579 143.457 237.048 143.135 237.414 142.71C237.796 142.27 237.986 141.728 237.986 141.083L237.634 139.764C237.634 140.262 237.51 140.702 237.261 141.083C237.026 141.449 236.711 141.728 236.315 141.918C235.934 142.109 235.509 142.204 235.04 142.204C234.674 142.204 234.344 142.145 234.051 142.028C233.772 141.911 233.552 141.735 233.391 141.501C233.23 141.251 233.149 140.958 233.149 140.621ZM232.402 136.29C232.548 136.187 232.768 136.063 233.061 135.916C233.369 135.755 233.728 135.623 234.139 135.52C234.564 135.403 235.011 135.345 235.48 135.345C235.787 135.345 236.073 135.374 236.337 135.432C236.601 135.491 236.828 135.586 237.019 135.718C237.209 135.85 237.356 136.019 237.458 136.224C237.576 136.429 237.634 136.693 237.634 137.015V143.765H239.965V136.554C239.965 135.88 239.782 135.315 239.415 134.861C239.049 134.392 238.543 134.033 237.898 133.784C237.268 133.534 236.535 133.41 235.7 133.41C234.761 133.41 233.926 133.542 233.193 133.806C232.475 134.069 231.889 134.341 231.434 134.619L232.402 136.29ZM260.071 135.828H262.731C263.699 135.828 264.549 135.689 265.282 135.41C266.029 135.132 266.608 134.729 267.018 134.201C267.444 133.659 267.656 133.007 267.656 132.245C267.656 131.365 267.444 130.64 267.018 130.068C266.608 129.496 266.029 129.071 265.282 128.793C264.549 128.514 263.699 128.375 262.731 128.375H258.092V143.765H262.995C264.08 143.765 265.032 143.611 265.853 143.303C266.689 142.981 267.341 142.49 267.81 141.83C268.294 141.171 268.536 140.335 268.536 139.324C268.536 138.591 268.389 137.961 268.096 137.433C267.803 136.906 267.392 136.473 266.865 136.136C266.352 135.799 265.765 135.55 265.106 135.389C264.446 135.227 263.743 135.147 262.995 135.147H260.071V136.576H262.841C263.281 136.576 263.684 136.627 264.05 136.73C264.417 136.818 264.732 136.971 264.996 137.191C265.274 137.397 265.487 137.66 265.633 137.983C265.795 138.291 265.875 138.65 265.875 139.06C265.875 139.632 265.743 140.108 265.479 140.489C265.216 140.87 264.857 141.156 264.402 141.347C263.948 141.537 263.427 141.632 262.841 141.632H260.687V130.508H262.555C263.274 130.508 263.86 130.684 264.314 131.035C264.769 131.387 264.996 131.885 264.996 132.53C264.996 132.955 264.893 133.322 264.688 133.63C264.483 133.923 264.197 134.15 263.831 134.311C263.464 134.472 263.039 134.553 262.555 134.553H260.071V135.828ZM286.151 129.628C286.151 130.024 286.297 130.368 286.591 130.662C286.898 130.94 287.25 131.079 287.646 131.079C288.071 131.079 288.423 130.94 288.701 130.662C288.994 130.368 289.141 130.024 289.141 129.628C289.141 129.218 288.994 128.873 288.701 128.595C288.423 128.316 288.071 128.177 287.646 128.177C287.25 128.177 286.898 128.316 286.591 128.595C286.297 128.873 286.151 129.218 286.151 129.628ZM286.481 133.652V143.765H288.811V133.652H286.481ZM307.328 128.375V138.708C307.328 139.558 307.46 140.321 307.724 140.995C307.988 141.654 308.369 142.219 308.867 142.688C309.38 143.157 309.981 143.516 310.67 143.765C311.359 144.014 312.114 144.139 312.935 144.139C313.755 144.139 314.51 144.014 315.199 143.765C315.888 143.516 316.482 143.157 316.98 142.688C317.478 142.219 317.859 141.654 318.123 140.995C318.402 140.321 318.541 139.558 318.541 138.708V128.375H315.947V138.598C315.947 139.551 315.69 140.321 315.177 140.907C314.664 141.479 313.917 141.764 312.935 141.764C311.938 141.764 311.183 141.479 310.67 140.907C310.172 140.321 309.923 139.551 309.923 138.598V128.375H307.328Z" fill="#9B9393"/>
<path d="M305.723 146.513H320.146V147.613H305.723V146.513Z" fill="#9B9393"/>
<g clip-path="url(#clip2_2090_29397)">
<path d="M344.563 135.98C344.917 136.454 345.369 136.845 345.888 137.129C346.407 137.412 346.98 137.581 347.57 137.623C348.16 137.665 348.751 137.58 349.305 137.373C349.859 137.167 350.362 136.843 350.78 136.425L353.253 133.952C354.004 133.175 354.42 132.133 354.41 131.052C354.401 129.972 353.967 128.938 353.203 128.173C352.439 127.409 351.405 126.975 350.324 126.966C349.243 126.957 348.202 127.372 347.424 128.123L346.006 129.533" stroke="#9B9393" stroke-width="2.19857" stroke-linecap="round" stroke-linejoin="round"/>
<path d="M347.861 134.331C347.507 133.858 347.055 133.466 346.536 133.183C346.018 132.899 345.444 132.731 344.854 132.688C344.265 132.646 343.673 132.731 343.119 132.938C342.565 133.144 342.062 133.468 341.644 133.886L339.171 136.359C338.42 137.137 338.005 138.178 338.014 139.259C338.023 140.34 338.457 141.374 339.221 142.138C339.986 142.902 341.02 143.336 342.1 143.345C343.181 143.355 344.223 142.939 345 142.188L346.41 140.778" stroke="#9B9393" stroke-width="2.19857" stroke-linecap="round" stroke-linejoin="round"/>
</g>
<path d="M424.077 126.91H411.252C410.24 126.91 409.42 127.73 409.42 128.742V141.567C409.42 142.579 410.24 143.399 411.252 143.399H424.077C425.089 143.399 425.909 142.579 425.909 141.567V128.742C425.909 127.73 425.089 126.91 424.077 126.91Z" stroke="#9B9393" stroke-width="1.64893" stroke-linecap="round" stroke-linejoin="round"/>
<path d="M414.459 133.324C415.217 133.324 415.833 132.709 415.833 131.95C415.833 131.191 415.217 130.576 414.459 130.576C413.7 130.576 413.084 131.191 413.084 131.95C413.084 132.709 413.7 133.324 414.459 133.324Z" stroke="#9B9393" stroke-width="1.64893" stroke-linecap="round" stroke-linejoin="round"/>
<path d="M425.911 137.906L421.33 133.326L411.254 143.403" stroke="#9B9393" stroke-width="1.64893" stroke-linecap="round" stroke-linejoin="round"/>
<line x1="377.963" y1="128.562" x2="391.284" y2="128.562" stroke="#887D7D" stroke-width="2.19857" stroke-linecap="round"/>
<line x1="371.497" y1="128.562" x2="373.178" y2="128.562" stroke="#887D7D" stroke-width="2.19857" stroke-linecap="round"/>
<line x1="371.497" y1="135.159" x2="373.178" y2="135.159" stroke="#887D7D" stroke-width="2.19857" stroke-linecap="round"/>
<line x1="371.497" y1="141.751" x2="373.178" y2="141.751" stroke="#887D7D" stroke-width="2.19857" stroke-linecap="round"/>
<line x1="377.963" y1="135.159" x2="391.284" y2="135.159" stroke="#887D7D" stroke-width="2.19857" stroke-linecap="round"/>
<line x1="377.963" y1="141.751" x2="391.284" y2="141.751" stroke="#887D7D" stroke-width="2.19857" stroke-linecap="round"/>
<line x1="443.904" y1="128.562" x2="457.224" y2="128.562" stroke="#887D7D" stroke-width="2.19857" stroke-linecap="round"/>
<line x1="443.901" y1="134.842" x2="451.397" y2="134.842" stroke="#887D7D" stroke-width="2.19857" stroke-linecap="round"/>
<line x1="443.904" y1="141.751" x2="457.225" y2="141.751" stroke="#887D7D" stroke-width="2.19857" stroke-linecap="round"/>
</g>
</g>
<defs>
<filter id="filter0_bdii_2090_29397" x="24.0563" y="288.006" width="291.218" height="101.088" filterUnits="userSpaceOnUse" color-interpolation-filters="sRGB">
<feFlood flood-opacity="0" result="BackgroundImageFix"/>
<feGaussianBlur in="BackgroundImageFix" stdDeviation="9.32093"/>
<feComposite in2="SourceAlpha" operator="in" result="effect1_backgroundBlur_2090_29397"/>
<feColorMatrix in="SourceAlpha" type="matrix" values="0 0 0 0 0 0 0 0 0 0 0 0 0 0 0 0 0 0 127 0" result="hardAlpha"/>
<feOffset dy="4.39714"/>
<feGaussianBlur stdDeviation="7.69499"/>
<feComposite in2="hardAlpha" operator="out"/>
<feColorMatrix type="matrix" values="0 0 0 0 0 0 0 0 0 0 0 0 0 0 0 0 0 0 0.25 0"/>
<feBlend mode="normal" in2="effect1_backgroundBlur_2090_29397" result="effect2_dropShadow_2090_29397"/>
<feBlend mode="normal" in="SourceGraphic" in2="effect2_dropShadow_2090_29397" result="shape"/>
<feColorMatrix in="SourceAlpha" type="matrix" values="0 0 0 0 0 0 0 0 0 0 0 0 0 0 0 0 0 0 127 0" result="hardAlpha"/>
<feOffset dx="-10.7137" dy="10.7137"/>
<feGaussianBlur stdDeviation="5.35686"/>
<feComposite in2="hardAlpha" operator="arithmetic" k2="-1" k3="1"/>
<feColorMatrix type="matrix" values="0 0 0 0 1 0 0 0 0 1 0 0 0 0 1 0 0 0 0.1 0"/>
<feBlend mode="normal" in2="shape" result="effect3_innerShadow_2090_29397"/>
<feColorMatrix in="SourceAlpha" type="matrix" values="0 0 0 0 0 0 0 0 0 0 0 0 0 0 0 0 0 0 127 0" result="hardAlpha"/>
<feOffset dx="10.7137" dy="-10.7137"/>
<feGaussianBlur stdDeviation="5.35686"/>
<feComposite in2="hardAlpha" operator="arithmetic" k2="-1" k3="1"/>
<feColorMatrix type="matrix" values="0 0 0 0 0.670588 0 0 0 0 0.676549 0 0 0 0 0.691451 0 0 0 0.1 0"/>
<feBlend mode="normal" in2="effect3_innerShadow_2090_29397" result="effect4_innerShadow_2090_29397"/>
</filter>
<filter id="filter1_bdii_2090_29397" x="441.593" y="229.552" width="103.625" height="103.625" filterUnits="userSpaceOnUse" color-interpolation-filters="sRGB">
<feFlood flood-opacity="0" result="BackgroundImageFix"/>
<feGaussianBlur in="BackgroundImageFix" stdDeviation="14.9135"/>
<feComposite in2="SourceAlpha" operator="in" result="effect1_backgroundBlur_2090_29397"/>
<feColorMatrix in="SourceAlpha" type="matrix" values="0 0 0 0 0 0 0 0 0 0 0 0 0 0 0 0 0 0 127 0" result="hardAlpha"/>
<feOffset dy="4.39714"/>
<feGaussianBlur stdDeviation="5.49642"/>
<feComposite in2="hardAlpha" operator="out"/>
<feColorMatrix type="matrix" values="0 0 0 0 0 0 0 0 0 0 0 0 0 0 0 0 0 0 0.25 0"/>
<feBlend mode="normal" in2="effect1_backgroundBlur_2090_29397" result="effect2_dropShadow_2090_29397"/>
<feBlend mode="normal" in="SourceGraphic" in2="effect2_dropShadow_2090_29397" result="shape"/>
<feColorMatrix in="SourceAlpha" type="matrix" values="0 0 0 0 0 0 0 0 0 0 0 0 0 0 0 0 0 0 127 0" result="hardAlpha"/>
<feOffset dx="-17.1419" dy="17.1419"/>
<feGaussianBlur stdDeviation="8.57097"/>
<feComposite in2="hardAlpha" operator="arithmetic" k2="-1" k3="1"/>
<feColorMatrix type="matrix" values="0 0 0 0 1 0 0 0 0 1 0 0 0 0 1 0 0 0 0.1 0"/>
<feBlend mode="normal" in2="shape" result="effect3_innerShadow_2090_29397"/>
<feColorMatrix in="SourceAlpha" type="matrix" values="0 0 0 0 0 0 0 0 0 0 0 0 0 0 0 0 0 0 127 0" result="hardAlpha"/>
<feOffset dx="17.1419" dy="-17.1419"/>
<feGaussianBlur stdDeviation="8.57097"/>
<feComposite in2="hardAlpha" operator="arithmetic" k2="-1" k3="1"/>
<feColorMatrix type="matrix" values="0 0 0 0 0.670588 0 0 0 0 0.676549 0 0 0 0 0.691451 0 0 0 0.1 0"/>
<feBlend mode="normal" in2="effect3_innerShadow_2090_29397" result="effect4_innerShadow_2090_29397"/>
</filter>
<filter id="filter2_d_2090_29397" x="261.631" y="336.274" width="52.3157" height="57.1007" filterUnits="userSpaceOnUse" color-interpolation-filters="sRGB">
<feFlood flood-opacity="0" result="BackgroundImageFix"/>
<feColorMatrix in="SourceAlpha" type="matrix" values="0 0 0 0 0 0 0 0 0 0 0 0 0 0 0 0 0 0 127 0" result="hardAlpha"/>
<feOffset dy="2.62277"/>
<feGaussianBlur stdDeviation="2.62277"/>
<feColorMatrix type="matrix" values="0 0 0 0 0 0 0 0 0 0 0 0 0 0 0 0 0 0 0.28 0"/>
<feBlend mode="normal" in2="BackgroundImageFix" result="effect1_dropShadow_2090_29397"/>
<feBlend mode="normal" in="SourceGraphic" in2="effect1_dropShadow_2090_29397" result="shape"/>
</filter>
<clipPath id="clip0_2090_29397">
<rect width="586" height="316.699" fill="white" transform="translate(27 67)"/>
</clipPath>
<clipPath id="clip1_2090_29397">
<rect width="599.11" height="323.189" fill="white" transform="translate(6.53308 67)"/>
</clipPath>
<clipPath id="clip2_2090_29397">
<rect width="19.7871" height="19.7871" fill="white" transform="translate(336.317 125.263)"/>
</clipPath>
</defs>
</svg>
