<svg width="600" height="464" viewBox="0 0 600 464" fill="none" xmlns="http://www.w3.org/2000/svg">
<path d="M191.792 293.458C177.875 281.875 160.625 274.292 141.542 272.542V289.292C155.958 290.875 169.125 296.625 179.958 305.292L191.792 293.458Z" fill="#DBEAF6"/>
<path d="M124.875 289.292V272.542C105.792 274.208 88.5417 281.875 74.625 293.458L86.4584 305.292C97.2917 296.625 110.458 290.875 124.875 289.292Z" fill="#DBEAF6"/>
<path d="M74.7084 317.042L62.875 305.208C51.2917 319.125 43.7084 336.375 41.9584 355.458H58.7084C60.2917 341.042 66.0417 327.875 74.7084 317.042Z" fill="#DBEAF6"/>
<path d="M207.708 355.458H224.458C222.708 336.375 215.125 319.125 203.542 305.208L191.708 317.042C200.375 327.875 206.125 341.042 207.708 355.458Z" fill="#DBEAF6"/>
<path d="M91.5417 363.792L120.208 376.792L133.208 405.458L146.208 376.792L174.875 363.792L146.208 350.792L133.208 322.125L120.208 350.792L91.5417 363.792Z" fill="#DBEAF6"/>
<path d="M133.208 438.792C107.292 438.792 84.4584 425.542 71.0417 405.458H91.5417V388.792H41.5417V438.792H58.2084V416.292C74.7917 439.958 102.125 455.458 133.208 455.458C173.792 455.458 208.208 429.042 220.208 392.458L203.875 388.708C193.625 417.792 165.875 438.792 133.208 438.792Z" fill="#DBEAF6"/>
<g filter="url(#filter0_d_2090_29038)">
<rect x="41" y="55" width="180" height="89" rx="44.5" fill="white" shape-rendering="crispEdges"/>
<path d="M102.835 95L97.9943 77.5455H100.764L104.165 91.0625H104.327L107.864 77.5455H110.608L114.145 91.071H114.307L117.699 77.5455H120.477L115.628 95H112.977L109.304 81.9261H109.168L105.494 95H102.835ZM125.222 87.2273V95H122.674V77.5455H125.188V84.0398H125.35C125.657 83.3352 126.126 82.7756 126.756 82.3608C127.387 81.946 128.211 81.7386 129.228 81.7386C130.126 81.7386 130.91 81.9233 131.58 82.2926C132.256 82.6619 132.779 83.2131 133.148 83.946C133.523 84.6733 133.711 85.5824 133.711 86.6733V95H131.163V86.9801C131.163 86.0199 130.915 85.2756 130.421 84.7472C129.927 84.2131 129.239 83.946 128.359 83.946C127.756 83.946 127.217 84.0739 126.739 84.3295C126.268 84.5852 125.896 84.9602 125.623 85.4545C125.356 85.9432 125.222 86.5341 125.222 87.2273ZM142.754 95.2642C141.464 95.2642 140.353 94.9886 139.421 94.4375C138.495 93.8807 137.779 93.0994 137.273 92.0938C136.773 91.0824 136.523 89.8977 136.523 88.5398C136.523 87.1989 136.773 86.017 137.273 84.9943C137.779 83.9716 138.484 83.1733 139.387 82.5994C140.296 82.0256 141.359 81.7386 142.575 81.7386C143.313 81.7386 144.029 81.8608 144.722 82.1051C145.415 82.3494 146.038 82.733 146.589 83.2557C147.14 83.7784 147.575 84.4574 147.893 85.2926C148.211 86.1222 148.37 87.1307 148.37 88.3182V89.2216H137.964V87.3125H145.873C145.873 86.642 145.737 86.0483 145.464 85.5312C145.191 85.0085 144.808 84.5966 144.313 84.2955C143.825 83.9943 143.251 83.8438 142.592 83.8438C141.876 83.8438 141.251 84.0199 140.717 84.3722C140.188 84.7187 139.779 85.1733 139.489 85.7358C139.205 86.2926 139.063 86.8977 139.063 87.5511V89.0426C139.063 89.9176 139.217 90.6619 139.523 91.2756C139.836 91.8892 140.271 92.358 140.827 92.6818C141.384 93 142.035 93.1591 142.779 93.1591C143.262 93.1591 143.702 93.0909 144.1 92.9545C144.498 92.8125 144.842 92.6023 145.131 92.3239C145.421 92.0455 145.643 91.7017 145.796 91.2926L148.208 91.7273C148.015 92.4375 147.668 93.0597 147.168 93.5938C146.674 94.1222 146.052 94.5341 145.302 94.8295C144.558 95.1193 143.708 95.2642 142.754 95.2642ZM153.746 87.2273V95H151.197V81.9091H153.643V84.0398H153.805C154.107 83.3466 154.578 82.7898 155.22 82.3693C155.868 81.9489 156.683 81.7386 157.666 81.7386C158.558 81.7386 159.339 81.9261 160.01 82.3011C160.68 82.6705 161.2 83.2216 161.57 83.9545C161.939 84.6875 162.124 85.5937 162.124 86.6733V95H159.575V86.9801C159.575 86.0312 159.328 85.2898 158.834 84.7557C158.339 84.2159 157.661 83.946 156.797 83.946C156.206 83.946 155.68 84.0739 155.22 84.3295C154.766 84.5852 154.405 84.9602 154.138 85.4545C153.876 85.9432 153.746 86.5341 153.746 87.2273Z" fill="#212528"/>
<path d="M98.6364 120.182C98.6364 118.758 98.8239 117.447 99.1989 116.25C99.5739 115.053 100.121 113.949 100.841 112.938H102.398C102.117 113.312 101.856 113.773 101.614 114.318C101.371 114.864 101.159 115.462 100.977 116.114C100.795 116.761 100.653 117.434 100.551 118.131C100.449 118.824 100.398 119.508 100.398 120.182C100.398 121.083 100.487 121.996 100.665 122.92C100.843 123.845 101.083 124.703 101.386 125.494C101.689 126.286 102.027 126.932 102.398 127.432H100.841C100.121 126.42 99.5739 125.316 99.1989 124.119C98.8239 122.922 98.6364 121.61 98.6364 120.182ZM103.751 115.875V114.364H112.757V115.875H109.126V126H107.376V115.875H103.751ZM113.705 126V117.273H115.347V118.659H115.438C115.597 118.189 115.877 117.82 116.278 117.551C116.684 117.278 117.142 117.142 117.653 117.142C117.759 117.142 117.884 117.146 118.028 117.153C118.176 117.161 118.292 117.17 118.375 117.182V118.807C118.307 118.788 118.186 118.767 118.011 118.744C117.837 118.718 117.663 118.705 117.489 118.705C117.087 118.705 116.729 118.79 116.415 118.96C116.104 119.127 115.858 119.36 115.676 119.659C115.494 119.955 115.403 120.292 115.403 120.67V126H113.705ZM119.845 126V117.273H121.544V126H119.845ZM120.703 115.926C120.408 115.926 120.154 115.828 119.942 115.631C119.733 115.43 119.629 115.191 119.629 114.915C119.629 114.634 119.733 114.396 119.942 114.199C120.154 113.998 120.408 113.898 120.703 113.898C120.999 113.898 121.25 113.998 121.459 114.199C121.671 114.396 121.777 114.634 121.777 114.915C121.777 115.191 121.671 115.43 121.459 115.631C121.25 115.828 120.999 115.926 120.703 115.926ZM127.489 129.455C126.795 129.455 126.199 129.364 125.699 129.182C125.203 129 124.797 128.759 124.483 128.46C124.169 128.161 123.934 127.833 123.778 127.477L125.239 126.875C125.341 127.042 125.477 127.218 125.648 127.403C125.822 127.593 126.057 127.754 126.352 127.886C126.652 128.019 127.036 128.085 127.506 128.085C128.15 128.085 128.682 127.928 129.102 127.614C129.523 127.303 129.733 126.807 129.733 126.125V124.409H129.625C129.523 124.595 129.375 124.801 129.182 125.028C128.992 125.256 128.731 125.453 128.398 125.619C128.064 125.786 127.631 125.869 127.097 125.869C126.407 125.869 125.786 125.708 125.233 125.386C124.684 125.061 124.248 124.581 123.926 123.949C123.608 123.312 123.449 122.53 123.449 121.602C123.449 120.674 123.606 119.879 123.92 119.216C124.239 118.553 124.674 118.045 125.227 117.693C125.78 117.337 126.407 117.159 127.108 117.159C127.65 117.159 128.087 117.25 128.42 117.432C128.754 117.61 129.013 117.818 129.199 118.057C129.388 118.295 129.534 118.506 129.636 118.688H129.761V117.273H131.426V126.193C131.426 126.943 131.252 127.559 130.903 128.04C130.555 128.521 130.083 128.877 129.489 129.108C128.898 129.339 128.231 129.455 127.489 129.455ZM127.472 124.46C127.96 124.46 128.373 124.347 128.71 124.119C129.051 123.888 129.309 123.559 129.483 123.131C129.661 122.699 129.75 122.182 129.75 121.58C129.75 120.992 129.663 120.475 129.489 120.028C129.314 119.581 129.059 119.233 128.722 118.983C128.384 118.729 127.968 118.602 127.472 118.602C126.96 118.602 126.534 118.735 126.193 119C125.852 119.261 125.595 119.617 125.42 120.068C125.25 120.519 125.165 121.023 125.165 121.58C125.165 122.152 125.252 122.653 125.426 123.085C125.6 123.517 125.858 123.854 126.199 124.097C126.544 124.339 126.968 124.46 127.472 124.46ZM137.364 129.455C136.67 129.455 136.074 129.364 135.574 129.182C135.078 129 134.672 128.759 134.358 128.46C134.044 128.161 133.809 127.833 133.653 127.477L135.114 126.875C135.216 127.042 135.352 127.218 135.523 127.403C135.697 127.593 135.932 127.754 136.227 127.886C136.527 128.019 136.911 128.085 137.381 128.085C138.025 128.085 138.557 127.928 138.977 127.614C139.398 127.303 139.608 126.807 139.608 126.125V124.409H139.5C139.398 124.595 139.25 124.801 139.057 125.028C138.867 125.256 138.606 125.453 138.273 125.619C137.939 125.786 137.506 125.869 136.972 125.869C136.282 125.869 135.661 125.708 135.108 125.386C134.559 125.061 134.123 124.581 133.801 123.949C133.483 123.312 133.324 122.53 133.324 121.602C133.324 120.674 133.481 119.879 133.795 119.216C134.114 118.553 134.549 118.045 135.102 117.693C135.655 117.337 136.282 117.159 136.983 117.159C137.525 117.159 137.962 117.25 138.295 117.432C138.629 117.61 138.888 117.818 139.074 118.057C139.263 118.295 139.409 118.506 139.511 118.688H139.636V117.273H141.301V126.193C141.301 126.943 141.127 127.559 140.778 128.04C140.43 128.521 139.958 128.877 139.364 129.108C138.773 129.339 138.106 129.455 137.364 129.455ZM137.347 124.46C137.835 124.46 138.248 124.347 138.585 124.119C138.926 123.888 139.184 123.559 139.358 123.131C139.536 122.699 139.625 122.182 139.625 121.58C139.625 120.992 139.538 120.475 139.364 120.028C139.189 119.581 138.934 119.233 138.597 118.983C138.259 118.729 137.843 118.602 137.347 118.602C136.835 118.602 136.409 118.735 136.068 119C135.727 119.261 135.47 119.617 135.295 120.068C135.125 120.519 135.04 121.023 135.04 121.58C135.04 122.152 135.127 122.653 135.301 123.085C135.475 123.517 135.733 123.854 136.074 124.097C136.419 124.339 136.843 124.46 137.347 124.46ZM147.341 126.176C146.481 126.176 145.741 125.992 145.119 125.625C144.502 125.254 144.025 124.733 143.688 124.062C143.354 123.388 143.188 122.598 143.188 121.693C143.188 120.799 143.354 120.011 143.688 119.33C144.025 118.648 144.494 118.116 145.097 117.733C145.703 117.35 146.411 117.159 147.222 117.159C147.714 117.159 148.191 117.241 148.653 117.403C149.116 117.566 149.53 117.822 149.898 118.17C150.265 118.519 150.555 118.972 150.767 119.528C150.979 120.081 151.085 120.754 151.085 121.545V122.148H144.148V120.875H149.42C149.42 120.428 149.33 120.032 149.148 119.688C148.966 119.339 148.71 119.064 148.381 118.864C148.055 118.663 147.672 118.562 147.233 118.562C146.756 118.562 146.339 118.68 145.983 118.915C145.631 119.146 145.358 119.449 145.165 119.824C144.975 120.195 144.881 120.598 144.881 121.034V122.028C144.881 122.612 144.983 123.108 145.188 123.517C145.396 123.926 145.686 124.239 146.057 124.455C146.428 124.667 146.862 124.773 147.358 124.773C147.68 124.773 147.973 124.727 148.239 124.636C148.504 124.542 148.733 124.402 148.926 124.216C149.119 124.03 149.267 123.801 149.369 123.528L150.977 123.818C150.848 124.292 150.617 124.706 150.284 125.062C149.955 125.415 149.54 125.689 149.04 125.886C148.544 126.08 147.977 126.176 147.341 126.176ZM152.97 126V117.273H154.612V118.659H154.703C154.862 118.189 155.143 117.82 155.544 117.551C155.949 117.278 156.408 117.142 156.919 117.142C157.025 117.142 157.15 117.146 157.294 117.153C157.442 117.161 157.557 117.17 157.641 117.182V118.807C157.572 118.788 157.451 118.767 157.277 118.744C157.103 118.718 156.929 118.705 156.754 118.705C156.353 118.705 155.995 118.79 155.68 118.96C155.37 119.127 155.124 119.36 154.942 119.659C154.76 119.955 154.669 120.292 154.669 120.67V126H152.97ZM162.378 121.17C162.378 122.598 162.19 123.911 161.815 125.108C161.44 126.305 160.893 127.409 160.173 128.42H158.616C158.897 128.045 159.158 127.585 159.401 127.04C159.643 126.494 159.855 125.898 160.037 125.25C160.219 124.598 160.361 123.924 160.463 123.227C160.565 122.53 160.616 121.845 160.616 121.17C160.616 120.273 160.527 119.362 160.349 118.438C160.171 117.513 159.931 116.655 159.628 115.864C159.325 115.072 158.988 114.426 158.616 113.926H160.173C160.893 114.937 161.44 116.042 161.815 117.239C162.19 118.436 162.378 119.746 162.378 121.17Z" fill="#5D6164"/>
</g>
<g filter="url(#filter1_d_2090_29038)">
<rect x="381" y="268" width="180" height="86" rx="43" fill="white" shape-rendering="crispEdges"/>
<path d="M442.557 292.812V290.545H456.065V292.812H450.619V308H447.994V292.812H442.557ZM461.394 300.227V308H458.846V290.545H461.36V297.04H461.522C461.829 296.335 462.298 295.776 462.928 295.361C463.559 294.946 464.383 294.739 465.4 294.739C466.298 294.739 467.082 294.923 467.752 295.293C468.428 295.662 468.951 296.213 469.32 296.946C469.695 297.673 469.883 298.582 469.883 299.673V308H467.335V299.98C467.335 299.02 467.087 298.276 466.593 297.747C466.099 297.213 465.411 296.946 464.531 296.946C463.928 296.946 463.388 297.074 462.911 297.33C462.44 297.585 462.067 297.96 461.795 298.455C461.528 298.943 461.394 299.534 461.394 300.227ZM478.925 308.264C477.636 308.264 476.525 307.989 475.593 307.438C474.667 306.881 473.951 306.099 473.445 305.094C472.945 304.082 472.695 302.898 472.695 301.54C472.695 300.199 472.945 299.017 473.445 297.994C473.951 296.972 474.656 296.173 475.559 295.599C476.468 295.026 477.531 294.739 478.746 294.739C479.485 294.739 480.201 294.861 480.894 295.105C481.587 295.349 482.21 295.733 482.761 296.256C483.312 296.778 483.746 297.457 484.065 298.293C484.383 299.122 484.542 300.131 484.542 301.318V302.222H474.136V300.312H482.045C482.045 299.642 481.908 299.048 481.636 298.531C481.363 298.009 480.979 297.597 480.485 297.295C479.996 296.994 479.423 296.844 478.763 296.844C478.048 296.844 477.423 297.02 476.888 297.372C476.36 297.719 475.951 298.173 475.661 298.736C475.377 299.293 475.235 299.898 475.235 300.551V302.043C475.235 302.918 475.388 303.662 475.695 304.276C476.008 304.889 476.442 305.358 476.999 305.682C477.556 306 478.207 306.159 478.951 306.159C479.434 306.159 479.874 306.091 480.272 305.955C480.67 305.812 481.013 305.602 481.303 305.324C481.593 305.045 481.815 304.702 481.968 304.293L484.38 304.727C484.187 305.437 483.84 306.06 483.34 306.594C482.846 307.122 482.224 307.534 481.474 307.83C480.729 308.119 479.88 308.264 478.925 308.264ZM489.918 300.227V308H487.369V294.909H489.815V297.04H489.977C490.278 296.347 490.75 295.79 491.392 295.369C492.04 294.949 492.855 294.739 493.838 294.739C494.73 294.739 495.511 294.926 496.182 295.301C496.852 295.67 497.372 296.222 497.741 296.955C498.111 297.687 498.295 298.594 498.295 299.673V308H495.747V299.98C495.747 299.031 495.5 298.29 495.006 297.756C494.511 297.216 493.832 296.946 492.969 296.946C492.378 296.946 491.852 297.074 491.392 297.33C490.938 297.585 490.577 297.96 490.31 298.455C490.048 298.943 489.918 299.534 489.918 300.227Z" fill="#212528"/>
<path d="M441.636 330.182C441.636 328.758 441.824 327.447 442.199 326.25C442.574 325.053 443.121 323.949 443.841 322.938H445.398C445.117 323.312 444.856 323.773 444.614 324.318C444.371 324.864 444.159 325.462 443.977 326.114C443.795 326.761 443.653 327.434 443.551 328.131C443.449 328.824 443.398 329.508 443.398 330.182C443.398 331.083 443.487 331.996 443.665 332.92C443.843 333.845 444.083 334.703 444.386 335.494C444.689 336.286 445.027 336.932 445.398 337.432H443.841C443.121 336.42 442.574 335.316 442.199 334.119C441.824 332.922 441.636 331.61 441.636 330.182ZM448.308 336H446.445L450.632 324.364H452.661L456.848 336H454.984L451.695 326.477H451.604L448.308 336ZM448.621 331.443H454.666V332.92H448.621V331.443ZM461.928 336.176C461.083 336.176 460.356 335.985 459.746 335.602C459.14 335.216 458.674 334.684 458.348 334.006C458.022 333.328 457.859 332.551 457.859 331.676C457.859 330.79 458.026 330.008 458.359 329.33C458.693 328.648 459.162 328.116 459.768 327.733C460.375 327.35 461.089 327.159 461.911 327.159C462.573 327.159 463.164 327.282 463.683 327.528C464.202 327.771 464.621 328.112 464.939 328.551C465.261 328.991 465.452 329.504 465.513 330.091H463.859C463.768 329.682 463.56 329.33 463.234 329.034C462.912 328.739 462.481 328.591 461.939 328.591C461.465 328.591 461.051 328.716 460.695 328.966C460.342 329.212 460.068 329.564 459.871 330.023C459.674 330.477 459.575 331.015 459.575 331.636C459.575 332.273 459.672 332.822 459.865 333.284C460.058 333.746 460.331 334.104 460.683 334.358C461.039 334.612 461.458 334.739 461.939 334.739C462.261 334.739 462.553 334.68 462.814 334.562C463.079 334.441 463.301 334.269 463.479 334.045C463.661 333.822 463.787 333.553 463.859 333.239H465.513C465.452 333.803 465.268 334.307 464.962 334.75C464.655 335.193 464.244 335.542 463.729 335.795C463.217 336.049 462.617 336.176 461.928 336.176ZM471.403 327.273V328.636H466.636V327.273H471.403ZM467.915 325.182H469.614V333.438C469.614 333.767 469.663 334.015 469.761 334.182C469.86 334.345 469.987 334.456 470.142 334.517C470.301 334.574 470.473 334.602 470.659 334.602C470.795 334.602 470.915 334.593 471.017 334.574C471.119 334.555 471.199 334.54 471.256 334.528L471.562 335.932C471.464 335.97 471.324 336.008 471.142 336.045C470.96 336.087 470.733 336.11 470.46 336.114C470.013 336.121 469.597 336.042 469.21 335.875C468.824 335.708 468.511 335.451 468.273 335.102C468.034 334.754 467.915 334.316 467.915 333.79V325.182ZM473.283 336V327.273H474.982V336H473.283ZM474.141 325.926C473.845 325.926 473.591 325.828 473.379 325.631C473.171 325.43 473.067 325.191 473.067 324.915C473.067 324.634 473.171 324.396 473.379 324.199C473.591 323.998 473.845 323.898 474.141 323.898C474.436 323.898 474.688 323.998 474.896 324.199C475.108 324.396 475.214 324.634 475.214 324.915C475.214 325.191 475.108 325.43 474.896 325.631C474.688 325.828 474.436 325.926 474.141 325.926ZM480.943 336.176C480.125 336.176 479.411 335.989 478.801 335.614C478.191 335.239 477.718 334.714 477.381 334.04C477.044 333.366 476.875 332.578 476.875 331.676C476.875 330.771 477.044 329.979 477.381 329.301C477.718 328.623 478.191 328.097 478.801 327.722C479.411 327.347 480.125 327.159 480.943 327.159C481.761 327.159 482.475 327.347 483.085 327.722C483.695 328.097 484.169 328.623 484.506 329.301C484.843 329.979 485.011 330.771 485.011 331.676C485.011 332.578 484.843 333.366 484.506 334.04C484.169 334.714 483.695 335.239 483.085 335.614C482.475 335.989 481.761 336.176 480.943 336.176ZM480.949 334.75C481.479 334.75 481.919 334.61 482.267 334.33C482.616 334.049 482.873 333.676 483.04 333.21C483.21 332.744 483.295 332.231 483.295 331.67C483.295 331.114 483.21 330.602 483.04 330.136C482.873 329.667 482.616 329.29 482.267 329.006C481.919 328.722 481.479 328.58 480.949 328.58C480.415 328.58 479.972 328.722 479.619 329.006C479.271 329.29 479.011 329.667 478.841 330.136C478.674 330.602 478.591 331.114 478.591 331.67C478.591 332.231 478.674 332.744 478.841 333.21C479.011 333.676 479.271 334.049 479.619 334.33C479.972 334.61 480.415 334.75 480.949 334.75ZM488.607 330.818V336H486.908V327.273H488.538V328.693H488.646C488.847 328.231 489.161 327.86 489.589 327.58C490.021 327.299 490.565 327.159 491.22 327.159C491.815 327.159 492.336 327.284 492.783 327.534C493.23 327.78 493.576 328.148 493.822 328.636C494.069 329.125 494.192 329.729 494.192 330.449V336H492.493V330.653C492.493 330.021 492.328 329.527 491.999 329.17C491.669 328.811 491.216 328.631 490.641 328.631C490.247 328.631 489.896 328.716 489.589 328.886C489.286 329.057 489.046 329.307 488.868 329.636C488.694 329.962 488.607 330.356 488.607 330.818ZM499.737 331.17C499.737 332.598 499.55 333.911 499.175 335.108C498.8 336.305 498.252 337.409 497.533 338.42H495.976C496.256 338.045 496.518 337.585 496.76 337.04C497.002 336.494 497.214 335.898 497.396 335.25C497.578 334.598 497.72 333.924 497.822 333.227C497.925 332.53 497.976 331.845 497.976 331.17C497.976 330.273 497.887 329.362 497.709 328.438C497.531 327.513 497.29 326.655 496.987 325.864C496.684 325.072 496.347 324.426 495.976 323.926H497.533C498.252 324.937 498.8 326.042 499.175 327.239C499.55 328.436 499.737 329.746 499.737 331.17Z" fill="#5D6164"/>
</g>
<path d="M161.598 190.727C161.598 192.28 161.314 193.616 160.746 194.733C160.178 195.846 159.399 196.703 158.409 197.304C157.424 197.901 156.305 198.199 155.05 198.199C153.79 198.199 152.666 197.901 151.676 197.304C150.691 196.703 149.915 195.843 149.347 194.726C148.779 193.608 148.494 192.276 148.494 190.727C148.494 189.174 148.779 187.841 149.347 186.729C149.915 185.611 150.691 184.754 151.676 184.158C152.666 183.556 153.79 183.256 155.05 183.256C156.305 183.256 157.424 183.556 158.409 184.158C159.399 184.754 160.178 185.611 160.746 186.729C161.314 187.841 161.598 189.174 161.598 190.727ZM159.425 190.727C159.425 189.544 159.233 188.547 158.85 187.737C158.471 186.923 157.95 186.307 157.287 185.891C156.629 185.469 155.883 185.259 155.05 185.259C154.212 185.259 153.464 185.469 152.806 185.891C152.147 186.307 151.627 186.923 151.243 187.737C150.864 188.547 150.675 189.544 150.675 190.727C150.675 191.911 150.864 192.91 151.243 193.724C151.627 194.534 152.147 195.15 152.806 195.571C153.464 195.988 154.212 196.196 155.05 196.196C155.883 196.196 156.629 195.988 157.287 195.571C157.95 195.15 158.471 194.534 158.85 193.724C159.233 192.91 159.425 191.911 159.425 190.727ZM166.287 191.523V198H164.164V187.091H166.202V188.866H166.337C166.588 188.289 166.981 187.825 167.516 187.474C168.056 187.124 168.735 186.949 169.555 186.949C170.298 186.949 170.949 187.105 171.508 187.418C172.066 187.725 172.5 188.185 172.807 188.795C173.115 189.406 173.269 190.161 173.269 191.061V198H171.145V191.317C171.145 190.526 170.939 189.908 170.528 189.463C170.116 189.013 169.55 188.788 168.83 188.788C168.338 188.788 167.9 188.895 167.516 189.108C167.137 189.321 166.837 189.634 166.614 190.045C166.396 190.453 166.287 190.945 166.287 191.523ZM186.005 198.22C184.949 198.22 184.04 197.981 183.278 197.503C182.52 197.02 181.938 196.355 181.531 195.507C181.124 194.66 180.92 193.689 180.92 192.595C180.92 191.487 181.128 190.509 181.545 189.662C181.962 188.81 182.549 188.144 183.306 187.666C184.064 187.188 184.956 186.949 185.984 186.949C186.812 186.949 187.551 187.103 188.2 187.411C188.848 187.714 189.372 188.14 189.769 188.689C190.172 189.238 190.411 189.88 190.487 190.614H188.42C188.306 190.102 188.046 189.662 187.639 189.293C187.236 188.923 186.696 188.739 186.019 188.739C185.427 188.739 184.909 188.895 184.464 189.207C184.024 189.515 183.68 189.955 183.434 190.528C183.188 191.097 183.065 191.769 183.065 192.545C183.065 193.341 183.186 194.027 183.427 194.605C183.669 195.183 184.009 195.63 184.45 195.947C184.895 196.265 185.418 196.423 186.019 196.423C186.422 196.423 186.786 196.35 187.113 196.203C187.445 196.052 187.722 195.836 187.944 195.557C188.171 195.277 188.33 194.941 188.42 194.548H190.487C190.411 195.254 190.181 195.884 189.798 196.438C189.414 196.991 188.901 197.427 188.257 197.744C187.617 198.062 186.867 198.22 186.005 198.22ZM199.668 193.476V187.091H201.799V198H199.711V196.111H199.597C199.346 196.693 198.944 197.179 198.39 197.567C197.84 197.95 197.156 198.142 196.337 198.142C195.636 198.142 195.016 197.988 194.476 197.68C193.941 197.368 193.52 196.906 193.212 196.295C192.909 195.685 192.758 194.929 192.758 194.03V187.091H194.881V193.774C194.881 194.518 195.087 195.109 195.499 195.55C195.911 195.99 196.446 196.21 197.104 196.21C197.502 196.21 197.897 196.111 198.29 195.912C198.688 195.713 199.017 195.412 199.278 195.01C199.543 194.607 199.673 194.096 199.668 193.476ZM212.827 189.754L210.902 190.095C210.822 189.849 210.694 189.615 210.519 189.392C210.348 189.17 210.116 188.987 209.823 188.845C209.529 188.703 209.162 188.632 208.722 188.632C208.12 188.632 207.619 188.767 207.216 189.037C206.814 189.302 206.612 189.645 206.612 190.067C206.612 190.431 206.747 190.725 207.017 190.947C207.287 191.17 207.723 191.352 208.324 191.494L210.057 191.892C211.061 192.124 211.809 192.482 212.301 192.964C212.794 193.447 213.04 194.075 213.04 194.847C213.04 195.5 212.851 196.082 212.472 196.594C212.098 197.1 211.575 197.498 210.902 197.787C210.235 198.076 209.46 198.22 208.58 198.22C207.358 198.22 206.361 197.96 205.59 197.439C204.818 196.913 204.344 196.168 204.169 195.202L206.222 194.889C206.35 195.424 206.612 195.829 207.01 196.104C207.408 196.374 207.926 196.509 208.566 196.509C209.262 196.509 209.818 196.364 210.235 196.075C210.651 195.782 210.86 195.424 210.86 195.003C210.86 194.662 210.732 194.375 210.476 194.143C210.225 193.911 209.839 193.736 209.318 193.618L207.472 193.213C206.454 192.981 205.701 192.612 205.213 192.105C204.73 191.598 204.489 190.957 204.489 190.18C204.489 189.536 204.669 188.973 205.029 188.49C205.388 188.007 205.886 187.631 206.52 187.361C207.155 187.086 207.881 186.949 208.7 186.949C209.879 186.949 210.807 187.205 211.485 187.716C212.162 188.223 212.609 188.902 212.827 189.754ZM220.467 187.091V188.795H214.508V187.091H220.467ZM216.106 184.477H218.23V194.797C218.23 195.209 218.291 195.519 218.415 195.727C218.538 195.931 218.696 196.071 218.89 196.146C219.089 196.217 219.305 196.253 219.537 196.253C219.707 196.253 219.856 196.241 219.984 196.217C220.112 196.194 220.211 196.175 220.282 196.161L220.666 197.915C220.543 197.962 220.368 198.009 220.14 198.057C219.913 198.109 219.629 198.137 219.288 198.142C218.729 198.152 218.209 198.052 217.726 197.844C217.243 197.635 216.852 197.313 216.554 196.878C216.256 196.442 216.106 195.895 216.106 195.237V184.477ZM227.294 198.22C226.271 198.22 225.379 197.986 224.617 197.517C223.854 197.048 223.262 196.393 222.841 195.55C222.42 194.707 222.209 193.722 222.209 192.595C222.209 191.464 222.42 190.474 222.841 189.626C223.262 188.779 223.854 188.121 224.617 187.652C225.379 187.183 226.271 186.949 227.294 186.949C228.317 186.949 229.209 187.183 229.972 187.652C230.734 188.121 231.326 188.779 231.747 189.626C232.169 190.474 232.379 191.464 232.379 192.595C232.379 193.722 232.169 194.707 231.747 195.55C231.326 196.393 230.734 197.048 229.972 197.517C229.209 197.986 228.317 198.22 227.294 198.22ZM227.301 196.438C227.964 196.438 228.513 196.262 228.949 195.912C229.385 195.562 229.707 195.095 229.915 194.513C230.128 193.93 230.235 193.289 230.235 192.588C230.235 191.892 230.128 191.253 229.915 190.67C229.707 190.083 229.385 189.612 228.949 189.257C228.513 188.902 227.964 188.724 227.301 188.724C226.634 188.724 226.08 188.902 225.639 189.257C225.204 189.612 224.879 190.083 224.666 190.67C224.458 191.253 224.354 191.892 224.354 192.588C224.354 193.289 224.458 193.93 224.666 194.513C224.879 195.095 225.204 195.562 225.639 195.912C226.08 196.262 226.634 196.438 227.301 196.438ZM234.75 198V187.091H236.788V188.866H236.923C237.15 188.265 237.522 187.796 238.038 187.46C238.554 187.119 239.172 186.949 239.892 186.949C240.621 186.949 241.232 187.119 241.724 187.46C242.221 187.801 242.588 188.27 242.825 188.866H242.939C243.199 188.284 243.613 187.82 244.182 187.474C244.75 187.124 245.427 186.949 246.213 186.949C247.202 186.949 248.01 187.259 248.635 187.879C249.265 188.5 249.579 189.435 249.579 190.685V198H247.456V190.884C247.456 190.145 247.255 189.61 246.852 189.278C246.45 188.947 245.969 188.781 245.41 188.781C244.719 188.781 244.182 188.994 243.798 189.42C243.415 189.842 243.223 190.384 243.223 191.047V198H241.106V190.749C241.106 190.157 240.922 189.681 240.552 189.321C240.183 188.961 239.702 188.781 239.111 188.781C238.708 188.781 238.336 188.888 237.996 189.101C237.659 189.309 237.387 189.6 237.179 189.974C236.975 190.348 236.873 190.782 236.873 191.274V198H234.75ZM257.127 198.22C256.052 198.22 255.127 197.991 254.35 197.531C253.579 197.067 252.982 196.416 252.561 195.578C252.144 194.735 251.936 193.748 251.936 192.616C251.936 191.499 252.144 190.514 252.561 189.662C252.982 188.81 253.569 188.144 254.322 187.666C255.079 187.188 255.965 186.949 256.978 186.949C257.594 186.949 258.19 187.051 258.768 187.254C259.346 187.458 259.864 187.777 260.323 188.213C260.783 188.649 261.145 189.214 261.41 189.911C261.675 190.602 261.808 191.442 261.808 192.432V193.185H253.136V191.594H259.727C259.727 191.035 259.613 190.54 259.386 190.109C259.159 189.674 258.839 189.33 258.427 189.08C258.02 188.829 257.542 188.703 256.992 188.703C256.396 188.703 255.875 188.85 255.43 189.143C254.99 189.432 254.649 189.811 254.407 190.28C254.17 190.744 254.052 191.248 254.052 191.793V193.036C254.052 193.765 254.18 194.385 254.436 194.896C254.696 195.408 255.058 195.798 255.522 196.068C255.986 196.333 256.528 196.466 257.149 196.466C257.551 196.466 257.918 196.409 258.249 196.295C258.581 196.177 258.867 196.002 259.109 195.77C259.35 195.538 259.535 195.251 259.663 194.911L261.673 195.273C261.512 195.865 261.223 196.383 260.806 196.828C260.394 197.268 259.876 197.612 259.251 197.858C258.631 198.099 257.923 198.22 257.127 198.22ZM264.164 198V187.091H266.216V188.824H266.33C266.529 188.237 266.879 187.775 267.381 187.439C267.888 187.098 268.461 186.928 269.1 186.928C269.233 186.928 269.389 186.932 269.569 186.942C269.753 186.951 269.898 186.963 270.002 186.977V189.009C269.917 188.985 269.765 188.959 269.547 188.93C269.33 188.897 269.112 188.881 268.894 188.881C268.392 188.881 267.945 188.987 267.552 189.2C267.163 189.409 266.856 189.7 266.628 190.074C266.401 190.443 266.287 190.865 266.287 191.338V198H264.164ZM281.728 198.22C280.705 198.22 279.813 197.986 279.05 197.517C278.288 197.048 277.696 196.393 277.275 195.55C276.853 194.707 276.643 193.722 276.643 192.595C276.643 191.464 276.853 190.474 277.275 189.626C277.696 188.779 278.288 188.121 279.05 187.652C279.813 187.183 280.705 186.949 281.728 186.949C282.751 186.949 283.643 187.183 284.405 187.652C285.168 188.121 285.76 188.779 286.181 189.626C286.602 190.474 286.813 191.464 286.813 192.595C286.813 193.722 286.602 194.707 286.181 195.55C285.76 196.393 285.168 197.048 284.405 197.517C283.643 197.986 282.751 198.22 281.728 198.22ZM281.735 196.438C282.398 196.438 282.947 196.262 283.383 195.912C283.818 195.562 284.14 195.095 284.349 194.513C284.562 193.93 284.668 193.289 284.668 192.588C284.668 191.892 284.562 191.253 284.349 190.67C284.14 190.083 283.818 189.612 283.383 189.257C282.947 188.902 282.398 188.724 281.735 188.724C281.067 188.724 280.513 188.902 280.073 189.257C279.637 189.612 279.313 190.083 279.1 190.67C278.892 191.253 278.787 191.892 278.787 192.588C278.787 193.289 278.892 193.93 279.1 194.513C279.313 195.095 279.637 195.562 280.073 195.912C280.513 196.262 281.067 196.438 281.735 196.438ZM291.307 191.523V198H289.183V187.091H291.222V188.866H291.357C291.608 188.289 292.001 187.825 292.536 187.474C293.075 187.124 293.755 186.949 294.574 186.949C295.317 186.949 295.968 187.105 296.527 187.418C297.086 187.725 297.519 188.185 297.827 188.795C298.135 189.406 298.289 190.161 298.289 191.061V198H296.165V191.317C296.165 190.526 295.959 189.908 295.547 189.463C295.135 189.013 294.569 188.788 293.85 188.788C293.357 188.788 292.919 188.895 292.536 189.108C292.157 189.321 291.856 189.634 291.634 190.045C291.416 190.453 291.307 190.945 291.307 191.523ZM301.307 198V183.455H303.431V188.859H303.558C303.682 188.632 303.859 188.369 304.091 188.071C304.323 187.773 304.645 187.512 305.057 187.29C305.469 187.062 306.013 186.949 306.691 186.949C307.571 186.949 308.357 187.171 309.048 187.616C309.74 188.062 310.282 188.703 310.675 189.541C311.073 190.379 311.271 191.388 311.271 192.567C311.271 193.746 311.075 194.757 310.682 195.599C310.289 196.437 309.749 197.084 309.063 197.538C308.376 197.988 307.593 198.213 306.712 198.213C306.049 198.213 305.507 198.102 305.085 197.879C304.669 197.657 304.342 197.396 304.105 197.098C303.869 196.8 303.686 196.535 303.558 196.303H303.381V198H301.307ZM303.388 192.545C303.388 193.312 303.499 193.985 303.722 194.562C303.944 195.14 304.266 195.592 304.688 195.919C305.109 196.241 305.625 196.402 306.236 196.402C306.87 196.402 307.401 196.234 307.827 195.898C308.253 195.557 308.575 195.095 308.793 194.513C309.015 193.93 309.127 193.275 309.127 192.545C309.127 191.826 309.018 191.179 308.8 190.607C308.587 190.034 308.265 189.581 307.834 189.25C307.408 188.919 306.875 188.753 306.236 188.753C305.62 188.753 305.1 188.911 304.673 189.229C304.252 189.546 303.932 189.989 303.715 190.557C303.497 191.125 303.388 191.788 303.388 192.545ZM318.251 198.22C317.229 198.22 316.336 197.986 315.574 197.517C314.811 197.048 314.22 196.393 313.798 195.55C313.377 194.707 313.166 193.722 313.166 192.595C313.166 191.464 313.377 190.474 313.798 189.626C314.22 188.779 314.811 188.121 315.574 187.652C316.336 187.183 317.229 186.949 318.251 186.949C319.274 186.949 320.166 187.183 320.929 187.652C321.691 188.121 322.283 188.779 322.704 189.626C323.126 190.474 323.336 191.464 323.336 192.595C323.336 193.722 323.126 194.707 322.704 195.55C322.283 196.393 321.691 197.048 320.929 197.517C320.166 197.986 319.274 198.22 318.251 198.22ZM318.258 196.438C318.921 196.438 319.47 196.262 319.906 195.912C320.342 195.562 320.664 195.095 320.872 194.513C321.085 193.93 321.192 193.289 321.192 192.588C321.192 191.892 321.085 191.253 320.872 190.67C320.664 190.083 320.342 189.612 319.906 189.257C319.47 188.902 318.921 188.724 318.258 188.724C317.591 188.724 317.037 188.902 316.596 189.257C316.161 189.612 315.836 190.083 315.623 190.67C315.415 191.253 315.311 191.892 315.311 192.588C315.311 193.289 315.415 193.93 315.623 194.513C315.836 195.095 316.161 195.562 316.596 195.912C317.037 196.262 317.591 196.438 318.258 196.438ZM328.882 198.241C328.19 198.241 327.565 198.114 327.007 197.858C326.448 197.598 326.005 197.221 325.678 196.729C325.356 196.236 325.195 195.633 325.195 194.918C325.195 194.302 325.314 193.795 325.551 193.398C325.787 193 326.107 192.685 326.509 192.453C326.912 192.221 327.362 192.046 327.859 191.928C328.356 191.809 328.863 191.719 329.379 191.658C330.032 191.582 330.562 191.52 330.97 191.473C331.377 191.421 331.673 191.338 331.857 191.224C332.042 191.111 332.134 190.926 332.134 190.67V190.621C332.134 190 331.959 189.52 331.609 189.179C331.263 188.838 330.747 188.668 330.061 188.668C329.346 188.668 328.782 188.826 328.37 189.143C327.963 189.456 327.681 189.804 327.525 190.188L325.529 189.733C325.766 189.07 326.112 188.535 326.566 188.128C327.026 187.716 327.553 187.418 328.15 187.233C328.747 187.044 329.374 186.949 330.032 186.949C330.468 186.949 330.929 187.001 331.417 187.105C331.91 187.205 332.369 187.389 332.795 187.659C333.226 187.929 333.579 188.315 333.853 188.817C334.128 189.314 334.265 189.96 334.265 190.756V198H332.191V196.509H332.106C331.969 196.783 331.763 197.053 331.488 197.318C331.213 197.583 330.861 197.804 330.43 197.979C329.999 198.154 329.483 198.241 328.882 198.241ZM329.343 196.537C329.93 196.537 330.432 196.421 330.849 196.189C331.27 195.957 331.59 195.654 331.808 195.28C332.03 194.901 332.142 194.496 332.142 194.065V192.659C332.066 192.735 331.919 192.806 331.701 192.872C331.488 192.934 331.244 192.988 330.97 193.036C330.695 193.078 330.427 193.118 330.167 193.156C329.907 193.189 329.689 193.218 329.514 193.241C329.102 193.294 328.725 193.381 328.384 193.504C328.048 193.627 327.778 193.805 327.575 194.037C327.376 194.264 327.276 194.567 327.276 194.946C327.276 195.472 327.471 195.869 327.859 196.139C328.247 196.404 328.742 196.537 329.343 196.537ZM337.094 198V187.091H339.146V188.824H339.26C339.459 188.237 339.809 187.775 340.311 187.439C340.818 187.098 341.39 186.928 342.03 186.928C342.162 186.928 342.318 186.932 342.498 186.942C342.683 186.951 342.827 186.963 342.932 186.977V189.009C342.846 188.985 342.695 188.959 342.477 188.93C342.259 188.897 342.041 188.881 341.824 188.881C341.322 188.881 340.874 188.987 340.481 189.2C340.093 189.409 339.785 189.7 339.558 190.074C339.331 190.443 339.217 190.865 339.217 191.338V198H337.094ZM348.463 198.213C347.582 198.213 346.796 197.988 346.105 197.538C345.418 197.084 344.878 196.437 344.485 195.599C344.097 194.757 343.903 193.746 343.903 192.567C343.903 191.388 344.099 190.379 344.492 189.541C344.89 188.703 345.435 188.062 346.126 187.616C346.817 187.171 347.601 186.949 348.477 186.949C349.154 186.949 349.698 187.062 350.11 187.29C350.527 187.512 350.849 187.773 351.076 188.071C351.308 188.369 351.488 188.632 351.616 188.859H351.744V183.455H353.867V198H351.794V196.303H351.616C351.488 196.535 351.303 196.8 351.062 197.098C350.825 197.396 350.499 197.657 350.082 197.879C349.665 198.102 349.125 198.213 348.463 198.213ZM348.931 196.402C349.542 196.402 350.058 196.241 350.48 195.919C350.906 195.592 351.228 195.14 351.445 194.562C351.668 193.985 351.779 193.312 351.779 192.545C351.779 191.788 351.67 191.125 351.453 190.557C351.235 189.989 350.915 189.546 350.494 189.229C350.072 188.911 349.552 188.753 348.931 188.753C348.292 188.753 347.759 188.919 347.333 189.25C346.907 189.581 346.585 190.034 346.367 190.607C346.154 191.179 346.048 191.826 346.048 192.545C346.048 193.275 346.157 193.93 346.374 194.513C346.592 195.095 346.914 195.557 347.34 195.898C347.771 196.234 348.302 196.402 348.931 196.402ZM356.898 198V187.091H359.022V198H356.898ZM357.971 185.408C357.601 185.408 357.284 185.285 357.019 185.038C356.759 184.787 356.628 184.489 356.628 184.143C356.628 183.793 356.759 183.495 357.019 183.249C357.284 182.998 357.601 182.872 357.971 182.872C358.34 182.872 358.655 182.998 358.915 183.249C359.18 183.495 359.313 183.793 359.313 184.143C359.313 184.489 359.18 184.787 358.915 185.038C358.655 185.285 358.34 185.408 357.971 185.408ZM364.002 191.523V198H361.879V187.091H363.917V188.866H364.052C364.303 188.289 364.696 187.825 365.231 187.474C365.771 187.124 366.45 186.949 367.269 186.949C368.013 186.949 368.664 187.105 369.222 187.418C369.781 187.725 370.214 188.185 370.522 188.795C370.83 189.406 370.984 190.161 370.984 191.061V198H368.86V191.317C368.86 190.526 368.654 189.908 368.242 189.463C367.83 189.013 367.265 188.788 366.545 188.788C366.052 188.788 365.615 188.895 365.231 189.108C364.852 189.321 364.552 189.634 364.329 190.045C364.111 190.453 364.002 190.945 364.002 191.523ZM378.406 202.318C377.539 202.318 376.794 202.205 376.169 201.977C375.548 201.75 375.042 201.449 374.649 201.075C374.256 200.701 373.962 200.292 373.768 199.847L375.593 199.094C375.721 199.302 375.892 199.522 376.105 199.754C376.322 199.991 376.616 200.192 376.985 200.358C377.359 200.524 377.84 200.607 378.427 200.607C379.232 200.607 379.897 200.41 380.423 200.017C380.948 199.629 381.211 199.009 381.211 198.156V196.011H381.076C380.948 196.243 380.764 196.501 380.522 196.786C380.285 197.07 379.959 197.316 379.542 197.524C379.125 197.732 378.583 197.837 377.916 197.837C377.054 197.837 376.277 197.635 375.586 197.233C374.9 196.826 374.355 196.227 373.953 195.436C373.555 194.641 373.356 193.663 373.356 192.503C373.356 191.343 373.552 190.348 373.945 189.52C374.343 188.691 374.888 188.057 375.579 187.616C376.27 187.171 377.054 186.949 377.93 186.949C378.607 186.949 379.154 187.062 379.57 187.29C379.987 187.512 380.311 187.773 380.544 188.071C380.78 188.369 380.963 188.632 381.09 188.859H381.247V187.091H383.328V198.241C383.328 199.179 383.11 199.948 382.674 200.55C382.239 201.151 381.649 201.596 380.906 201.885C380.167 202.174 379.334 202.318 378.406 202.318ZM378.384 196.075C378.995 196.075 379.511 195.933 379.933 195.649C380.359 195.36 380.681 194.948 380.899 194.413C381.121 193.874 381.232 193.227 381.232 192.474C381.232 191.741 381.124 191.094 380.906 190.536C380.688 189.977 380.368 189.541 379.947 189.229C379.526 188.911 379.005 188.753 378.384 188.753C377.745 188.753 377.213 188.919 376.786 189.25C376.36 189.577 376.038 190.022 375.82 190.585C375.607 191.149 375.501 191.778 375.501 192.474C375.501 193.189 375.61 193.817 375.828 194.357C376.045 194.896 376.367 195.318 376.794 195.621C377.224 195.924 377.755 196.075 378.384 196.075ZM393.592 183.455V198H391.469V183.455H393.592ZM399.624 198.241C398.932 198.241 398.307 198.114 397.749 197.858C397.19 197.598 396.747 197.221 396.421 196.729C396.099 196.236 395.938 195.633 395.938 194.918C395.938 194.302 396.056 193.795 396.293 193.398C396.53 193 396.849 192.685 397.252 192.453C397.654 192.221 398.104 192.046 398.601 191.928C399.098 191.809 399.605 191.719 400.121 191.658C400.774 191.582 401.305 191.52 401.712 191.473C402.119 191.421 402.415 191.338 402.6 191.224C402.784 191.111 402.877 190.926 402.877 190.67V190.621C402.877 190 402.701 189.52 402.351 189.179C402.005 188.838 401.489 188.668 400.803 188.668C400.088 188.668 399.524 188.826 399.112 189.143C398.705 189.456 398.423 189.804 398.267 190.188L396.271 189.733C396.508 189.07 396.854 188.535 397.308 188.128C397.768 187.716 398.296 187.418 398.892 187.233C399.489 187.044 400.116 186.949 400.774 186.949C401.21 186.949 401.672 187.001 402.159 187.105C402.652 187.205 403.111 187.389 403.537 187.659C403.968 187.929 404.321 188.315 404.595 188.817C404.87 189.314 405.007 189.96 405.007 190.756V198H402.933V196.509H402.848C402.711 196.783 402.505 197.053 402.23 197.318C401.956 197.583 401.603 197.804 401.172 197.979C400.741 198.154 400.225 198.241 399.624 198.241ZM400.085 196.537C400.673 196.537 401.174 196.421 401.591 196.189C402.012 195.957 402.332 195.654 402.55 195.28C402.772 194.901 402.884 194.496 402.884 194.065V192.659C402.808 192.735 402.661 192.806 402.443 192.872C402.23 192.934 401.986 192.988 401.712 193.036C401.437 193.078 401.17 193.118 400.909 193.156C400.649 193.189 400.431 193.218 400.256 193.241C399.844 193.294 399.468 193.381 399.127 193.504C398.79 193.627 398.521 193.805 398.317 194.037C398.118 194.264 398.019 194.567 398.019 194.946C398.019 195.472 398.213 195.869 398.601 196.139C398.989 196.404 399.484 196.537 400.085 196.537ZM414.746 193.476V187.091H416.877V198H414.789V196.111H414.675C414.424 196.693 414.022 197.179 413.468 197.567C412.919 197.95 412.234 198.142 411.415 198.142C410.715 198.142 410.094 197.988 409.555 197.68C409.019 197.368 408.598 196.906 408.29 196.295C407.987 195.685 407.836 194.929 407.836 194.03V187.091H409.959V193.774C409.959 194.518 410.165 195.109 410.577 195.55C410.989 195.99 411.524 196.21 412.182 196.21C412.58 196.21 412.975 196.111 413.368 195.912C413.766 195.713 414.095 195.412 414.356 195.01C414.621 194.607 414.751 194.096 414.746 193.476ZM421.854 191.523V198H419.73V187.091H421.769V188.866H421.904C422.155 188.289 422.548 187.825 423.083 187.474C423.622 187.124 424.302 186.949 425.121 186.949C425.864 186.949 426.515 187.105 427.074 187.418C427.633 187.725 428.066 188.185 428.374 188.795C428.682 189.406 428.835 190.161 428.835 191.061V198H426.712V191.317C426.712 190.526 426.506 189.908 426.094 189.463C425.682 189.013 425.116 188.788 424.396 188.788C423.904 188.788 423.466 188.895 423.083 189.108C422.704 189.321 422.403 189.634 422.181 190.045C421.963 190.453 421.854 190.945 421.854 191.523ZM436.279 198.22C435.223 198.22 434.314 197.981 433.551 197.503C432.794 197.02 432.211 196.355 431.804 195.507C431.397 194.66 431.193 193.689 431.193 192.595C431.193 191.487 431.402 190.509 431.818 189.662C432.235 188.81 432.822 188.144 433.58 187.666C434.337 187.188 435.23 186.949 436.257 186.949C437.086 186.949 437.825 187.103 438.473 187.411C439.122 187.714 439.645 188.14 440.043 188.689C440.445 189.238 440.684 189.88 440.76 190.614H438.693C438.58 190.102 438.319 189.662 437.912 189.293C437.51 188.923 436.97 188.739 436.293 188.739C435.701 188.739 435.182 188.895 434.737 189.207C434.297 189.515 433.954 189.955 433.708 190.528C433.461 191.097 433.338 191.769 433.338 192.545C433.338 193.341 433.459 194.027 433.7 194.605C433.942 195.183 434.283 195.63 434.723 195.947C435.168 196.265 435.691 196.423 436.293 196.423C436.695 196.423 437.06 196.35 437.387 196.203C437.718 196.052 437.995 195.836 438.218 195.557C438.445 195.277 438.603 194.941 438.693 194.548H440.76C440.684 195.254 440.455 195.884 440.071 196.438C439.688 196.991 439.174 197.427 438.53 197.744C437.891 198.062 437.14 198.22 436.279 198.22ZM445.155 191.523V198H443.031V183.455H445.126V188.866H445.261C445.517 188.279 445.907 187.813 446.433 187.467C446.959 187.122 447.645 186.949 448.493 186.949C449.241 186.949 449.894 187.103 450.453 187.411C451.016 187.718 451.452 188.178 451.76 188.788C452.072 189.394 452.229 190.152 452.229 191.061V198H450.105V191.317C450.105 190.517 449.899 189.896 449.487 189.456C449.075 189.011 448.502 188.788 447.768 188.788C447.266 188.788 446.817 188.895 446.419 189.108C446.026 189.321 445.716 189.634 445.488 190.045C445.266 190.453 445.155 190.945 445.155 191.523ZM202.646 228.22C201.623 228.22 200.731 227.986 199.968 227.517C199.206 227.048 198.614 226.393 198.193 225.55C197.771 224.707 197.561 223.722 197.561 222.595C197.561 221.464 197.771 220.474 198.193 219.626C198.614 218.779 199.206 218.121 199.968 217.652C200.731 217.183 201.623 216.949 202.646 216.949C203.669 216.949 204.561 217.183 205.323 217.652C206.086 218.121 206.677 218.779 207.099 219.626C207.52 220.474 207.731 221.464 207.731 222.595C207.731 223.722 207.52 224.707 207.099 225.55C206.677 226.393 206.086 227.048 205.323 227.517C204.561 227.986 203.669 228.22 202.646 228.22ZM202.653 226.438C203.316 226.438 203.865 226.262 204.301 225.912C204.736 225.562 205.058 225.095 205.267 224.513C205.48 223.93 205.586 223.289 205.586 222.588C205.586 221.892 205.48 221.253 205.267 220.67C205.058 220.083 204.736 219.612 204.301 219.257C203.865 218.902 203.316 218.724 202.653 218.724C201.985 218.724 201.431 218.902 200.991 219.257C200.555 219.612 200.231 220.083 200.018 220.67C199.81 221.253 199.705 221.892 199.705 222.588C199.705 223.289 199.81 223.93 200.018 224.513C200.231 225.095 200.555 225.562 200.991 225.912C201.431 226.262 201.985 226.438 202.653 226.438ZM212.225 221.523V228H210.101V217.091H212.14V218.866H212.275C212.526 218.289 212.919 217.825 213.454 217.474C213.993 217.124 214.673 216.949 215.492 216.949C216.235 216.949 216.886 217.105 217.445 217.418C218.004 217.725 218.437 218.185 218.745 218.795C219.053 219.406 219.206 220.161 219.206 221.061V228H217.083V221.317C217.083 220.526 216.877 219.908 216.465 219.463C216.053 219.013 215.487 218.788 214.768 218.788C214.275 218.788 213.837 218.895 213.454 219.108C213.075 219.321 212.774 219.634 212.552 220.045C212.334 220.453 212.225 220.945 212.225 221.523ZM222.225 228V213.455H224.349V218.859H224.476C224.599 218.632 224.777 218.369 225.009 218.071C225.241 217.773 225.563 217.512 225.975 217.29C226.387 217.062 226.931 216.949 227.608 216.949C228.489 216.949 229.275 217.171 229.966 217.616C230.658 218.062 231.2 218.703 231.593 219.541C231.991 220.379 232.189 221.388 232.189 222.567C232.189 223.746 231.993 224.757 231.6 225.599C231.207 226.437 230.667 227.084 229.981 227.538C229.294 227.988 228.51 228.213 227.63 228.213C226.967 228.213 226.425 228.102 226.003 227.879C225.587 227.657 225.26 227.396 225.023 227.098C224.787 226.8 224.604 226.535 224.476 226.303H224.299V228H222.225ZM224.306 222.545C224.306 223.312 224.417 223.985 224.64 224.562C224.862 225.14 225.184 225.592 225.606 225.919C226.027 226.241 226.543 226.402 227.154 226.402C227.788 226.402 228.319 226.234 228.745 225.898C229.171 225.557 229.493 225.095 229.711 224.513C229.933 223.93 230.045 223.275 230.045 222.545C230.045 221.826 229.936 221.179 229.718 220.607C229.505 220.034 229.183 219.581 228.752 219.25C228.326 218.919 227.793 218.753 227.154 218.753C226.538 218.753 226.018 218.911 225.591 219.229C225.17 219.546 224.85 219.989 224.633 220.557C224.415 221.125 224.306 221.788 224.306 222.545ZM239.169 228.22C238.146 228.22 237.254 227.986 236.492 227.517C235.729 227.048 235.137 226.393 234.716 225.55C234.295 224.707 234.084 223.722 234.084 222.595C234.084 221.464 234.295 220.474 234.716 219.626C235.137 218.779 235.729 218.121 236.492 217.652C237.254 217.183 238.146 216.949 239.169 216.949C240.192 216.949 241.084 217.183 241.847 217.652C242.609 218.121 243.201 218.779 243.622 219.626C244.044 220.474 244.254 221.464 244.254 222.595C244.254 223.722 244.044 224.707 243.622 225.55C243.201 226.393 242.609 227.048 241.847 227.517C241.084 227.986 240.192 228.22 239.169 228.22ZM239.176 226.438C239.839 226.438 240.388 226.262 240.824 225.912C241.26 225.562 241.582 225.095 241.79 224.513C242.003 223.93 242.11 223.289 242.11 222.588C242.11 221.892 242.003 221.253 241.79 220.67C241.582 220.083 241.26 219.612 240.824 219.257C240.388 218.902 239.839 218.724 239.176 218.724C238.509 218.724 237.955 218.902 237.514 219.257C237.079 219.612 236.754 220.083 236.541 220.67C236.333 221.253 236.229 221.892 236.229 222.588C236.229 223.289 236.333 223.93 236.541 224.513C236.754 225.095 237.079 225.562 237.514 225.912C237.955 226.262 238.509 226.438 239.176 226.438ZM249.8 228.241C249.108 228.241 248.483 228.114 247.925 227.858C247.366 227.598 246.923 227.221 246.596 226.729C246.274 226.236 246.113 225.633 246.113 224.918C246.113 224.302 246.232 223.795 246.469 223.398C246.705 223 247.025 222.685 247.427 222.453C247.83 222.221 248.28 222.046 248.777 221.928C249.274 221.809 249.781 221.719 250.297 221.658C250.95 221.582 251.48 221.52 251.888 221.473C252.295 221.421 252.591 221.338 252.775 221.224C252.96 221.111 253.052 220.926 253.052 220.67V220.621C253.052 220 252.877 219.52 252.527 219.179C252.181 218.838 251.665 218.668 250.979 218.668C250.264 218.668 249.7 218.826 249.288 219.143C248.881 219.456 248.599 219.804 248.443 220.188L246.447 219.733C246.684 219.07 247.03 218.535 247.484 218.128C247.943 217.716 248.471 217.418 249.068 217.233C249.665 217.044 250.292 216.949 250.95 216.949C251.386 216.949 251.847 217.001 252.335 217.105C252.827 217.205 253.287 217.389 253.713 217.659C254.144 217.929 254.497 218.315 254.771 218.817C255.046 219.314 255.183 219.96 255.183 220.756V228H253.109V226.509H253.024C252.887 226.783 252.681 227.053 252.406 227.318C252.131 227.583 251.779 227.804 251.348 227.979C250.917 228.154 250.401 228.241 249.8 228.241ZM250.261 226.537C250.848 226.537 251.35 226.421 251.767 226.189C252.188 225.957 252.508 225.654 252.726 225.28C252.948 224.901 253.059 224.496 253.059 224.065V222.659C252.984 222.735 252.837 222.806 252.619 222.872C252.406 222.934 252.162 222.988 251.888 223.036C251.613 223.078 251.345 223.118 251.085 223.156C250.825 223.189 250.607 223.218 250.432 223.241C250.02 223.294 249.643 223.381 249.302 223.504C248.966 223.627 248.696 223.805 248.493 224.037C248.294 224.264 248.194 224.567 248.194 224.946C248.194 225.472 248.389 225.869 248.777 226.139C249.165 226.404 249.66 226.537 250.261 226.537ZM258.012 228V217.091H260.064V218.824H260.178C260.377 218.237 260.727 217.775 261.229 217.439C261.735 217.098 262.308 216.928 262.948 216.928C263.08 216.928 263.236 216.932 263.416 216.942C263.601 216.951 263.745 216.963 263.85 216.977V219.009C263.764 218.985 263.613 218.959 263.395 218.93C263.177 218.897 262.959 218.881 262.742 218.881C262.24 218.881 261.792 218.987 261.399 219.2C261.011 219.409 260.703 219.7 260.476 220.074C260.249 220.443 260.135 220.865 260.135 221.338V228H258.012ZM269.381 228.213C268.5 228.213 267.714 227.988 267.023 227.538C266.336 227.084 265.796 226.437 265.403 225.599C265.015 224.757 264.821 223.746 264.821 222.567C264.821 221.388 265.017 220.379 265.41 219.541C265.808 218.703 266.353 218.062 267.044 217.616C267.735 217.171 268.519 216.949 269.395 216.949C270.072 216.949 270.616 217.062 271.028 217.29C271.445 217.512 271.767 217.773 271.994 218.071C272.226 218.369 272.406 218.632 272.534 218.859H272.662V213.455H274.785V228H272.711V226.303H272.534C272.406 226.535 272.221 226.8 271.98 227.098C271.743 227.396 271.416 227.657 271 227.879C270.583 228.102 270.043 228.213 269.381 228.213ZM269.849 226.402C270.46 226.402 270.976 226.241 271.398 225.919C271.824 225.592 272.146 225.14 272.363 224.562C272.586 223.985 272.697 223.312 272.697 222.545C272.697 221.788 272.588 221.125 272.371 220.557C272.153 219.989 271.833 219.546 271.412 219.229C270.99 218.911 270.47 218.753 269.849 218.753C269.21 218.753 268.677 218.919 268.251 219.25C267.825 219.581 267.503 220.034 267.285 220.607C267.072 221.179 266.966 221.826 266.966 222.545C266.966 223.275 267.075 223.93 267.292 224.513C267.51 225.095 267.832 225.557 268.258 225.898C268.689 226.234 269.22 226.402 269.849 226.402ZM277.816 228V217.091H279.94V228H277.816ZM278.889 215.408C278.519 215.408 278.202 215.285 277.937 215.038C277.677 214.787 277.546 214.489 277.546 214.143C277.546 213.793 277.677 213.495 277.937 213.249C278.202 212.998 278.519 212.872 278.889 212.872C279.258 212.872 279.573 212.998 279.833 213.249C280.098 213.495 280.231 213.793 280.231 214.143C280.231 214.489 280.098 214.787 279.833 215.038C279.573 215.285 279.258 215.408 278.889 215.408ZM284.92 221.523V228H282.797V217.091H284.835V218.866H284.97C285.221 218.289 285.614 217.825 286.149 217.474C286.689 217.124 287.368 216.949 288.187 216.949C288.931 216.949 289.582 217.105 290.14 217.418C290.699 217.725 291.132 218.185 291.44 218.795C291.748 219.406 291.902 220.161 291.902 221.061V228H289.778V221.317C289.778 220.526 289.572 219.908 289.16 219.463C288.748 219.013 288.183 218.788 287.463 218.788C286.97 218.788 286.532 218.895 286.149 219.108C285.77 219.321 285.47 219.634 285.247 220.045C285.029 220.453 284.92 220.945 284.92 221.523ZM299.324 232.318C298.457 232.318 297.711 232.205 297.086 231.977C296.466 231.75 295.96 231.449 295.567 231.075C295.174 230.701 294.88 230.292 294.686 229.847L296.511 229.094C296.639 229.302 296.809 229.522 297.023 229.754C297.24 229.991 297.534 230.192 297.903 230.358C298.277 230.524 298.758 230.607 299.345 230.607C300.15 230.607 300.815 230.41 301.341 230.017C301.866 229.629 302.129 229.009 302.129 228.156V226.011H301.994C301.866 226.243 301.682 226.501 301.44 226.786C301.203 227.07 300.877 227.316 300.46 227.524C300.043 227.732 299.501 227.837 298.834 227.837C297.972 227.837 297.195 227.635 296.504 227.233C295.818 226.826 295.273 226.227 294.871 225.436C294.473 224.641 294.274 223.663 294.274 222.503C294.274 221.343 294.47 220.348 294.863 219.52C295.261 218.691 295.806 218.057 296.497 217.616C297.188 217.171 297.972 216.949 298.848 216.949C299.525 216.949 300.072 217.062 300.488 217.29C300.905 217.512 301.229 217.773 301.461 218.071C301.698 218.369 301.881 218.632 302.008 218.859H302.165V217.091H304.246V228.241C304.246 229.179 304.028 229.948 303.592 230.55C303.157 231.151 302.567 231.596 301.824 231.885C301.085 232.174 300.252 232.318 299.324 232.318ZM299.302 226.075C299.913 226.075 300.429 225.933 300.851 225.649C301.277 225.36 301.599 224.948 301.817 224.413C302.039 223.874 302.15 223.227 302.15 222.474C302.15 221.741 302.041 221.094 301.824 220.536C301.606 219.977 301.286 219.541 300.865 219.229C300.443 218.911 299.923 218.753 299.302 218.753C298.663 218.753 298.131 218.919 297.704 219.25C297.278 219.577 296.956 220.022 296.738 220.585C296.525 221.149 296.419 221.778 296.419 222.474C296.419 223.189 296.528 223.817 296.746 224.357C296.963 224.896 297.285 225.318 297.711 225.621C298.142 225.924 298.673 226.075 299.302 226.075ZM316.982 228.22C315.926 228.22 315.017 227.981 314.254 227.503C313.497 227.02 312.914 226.355 312.507 225.507C312.1 224.66 311.896 223.689 311.896 222.595C311.896 221.487 312.105 220.509 312.521 219.662C312.938 218.81 313.525 218.144 314.283 217.666C315.04 217.188 315.933 216.949 316.96 216.949C317.789 216.949 318.528 217.103 319.176 217.411C319.825 217.714 320.348 218.14 320.746 218.689C321.148 219.238 321.387 219.88 321.463 220.614H319.396C319.283 220.102 319.022 219.662 318.615 219.293C318.213 218.923 317.673 218.739 316.996 218.739C316.404 218.739 315.886 218.895 315.441 219.207C315 219.515 314.657 219.955 314.411 220.528C314.164 221.097 314.041 221.769 314.041 222.545C314.041 223.341 314.162 224.027 314.404 224.605C314.645 225.183 314.986 225.63 315.426 225.947C315.871 226.265 316.395 226.423 316.996 226.423C317.398 226.423 317.763 226.35 318.09 226.203C318.421 226.052 318.698 225.836 318.921 225.557C319.148 225.277 319.307 224.941 319.396 224.548H321.463C321.387 225.254 321.158 225.884 320.774 226.438C320.391 226.991 319.877 227.427 319.233 227.744C318.594 228.062 317.843 228.22 316.982 228.22ZM326.909 228.241C326.218 228.241 325.593 228.114 325.034 227.858C324.475 227.598 324.032 227.221 323.706 226.729C323.384 226.236 323.223 225.633 323.223 224.918C323.223 224.302 323.341 223.795 323.578 223.398C323.815 223 324.134 222.685 324.537 222.453C324.939 222.221 325.389 222.046 325.886 221.928C326.383 221.809 326.89 221.719 327.406 221.658C328.059 221.582 328.59 221.52 328.997 221.473C329.404 221.421 329.7 221.338 329.885 221.224C330.069 221.111 330.162 220.926 330.162 220.67V220.621C330.162 220 329.987 219.52 329.636 219.179C329.291 218.838 328.774 218.668 328.088 218.668C327.373 218.668 326.809 218.826 326.398 219.143C325.99 219.456 325.709 219.804 325.552 220.188L323.557 219.733C323.793 219.07 324.139 218.535 324.594 218.128C325.053 217.716 325.581 217.418 326.177 217.233C326.774 217.044 327.401 216.949 328.059 216.949C328.495 216.949 328.957 217.001 329.444 217.105C329.937 217.205 330.396 217.389 330.822 217.659C331.253 217.929 331.606 218.315 331.881 218.817C332.155 219.314 332.292 219.96 332.292 220.756V228H330.219V226.509H330.133C329.996 226.783 329.79 227.053 329.515 227.318C329.241 227.583 328.888 227.804 328.457 227.979C328.026 228.154 327.51 228.241 326.909 228.241ZM327.371 226.537C327.958 226.537 328.46 226.421 328.876 226.189C329.298 225.957 329.617 225.654 329.835 225.28C330.058 224.901 330.169 224.496 330.169 224.065V222.659C330.093 222.735 329.946 222.806 329.729 222.872C329.515 222.934 329.272 222.988 328.997 223.036C328.722 223.078 328.455 223.118 328.194 223.156C327.934 223.189 327.716 223.218 327.541 223.241C327.129 223.294 326.753 223.381 326.412 223.504C326.076 223.627 325.806 223.805 325.602 224.037C325.403 224.264 325.304 224.567 325.304 224.946C325.304 225.472 325.498 225.869 325.886 226.139C326.274 226.404 326.769 226.537 327.371 226.537ZM335.121 228V217.091H337.159V218.866H337.294C337.521 218.265 337.893 217.796 338.409 217.46C338.925 217.119 339.543 216.949 340.263 216.949C340.992 216.949 341.603 217.119 342.095 217.46C342.593 217.801 342.959 218.27 343.196 218.866H343.31C343.57 218.284 343.985 217.82 344.553 217.474C345.121 217.124 345.798 216.949 346.584 216.949C347.574 216.949 348.381 217.259 349.006 217.879C349.636 218.5 349.95 219.435 349.95 220.685V228H347.827V220.884C347.827 220.145 347.626 219.61 347.223 219.278C346.821 218.947 346.34 218.781 345.781 218.781C345.09 218.781 344.553 218.994 344.169 219.42C343.786 219.842 343.594 220.384 343.594 221.047V228H341.477V220.749C341.477 220.157 341.293 219.681 340.923 219.321C340.554 218.961 340.074 218.781 339.482 218.781C339.079 218.781 338.708 218.888 338.367 219.101C338.03 219.309 337.758 219.6 337.55 219.974C337.346 220.348 337.244 220.782 337.244 221.274V228H335.121ZM352.797 232.091V217.091H354.871V218.859H355.048C355.171 218.632 355.349 218.369 355.581 218.071C355.813 217.773 356.135 217.512 356.547 217.29C356.959 217.062 357.503 216.949 358.18 216.949C359.061 216.949 359.847 217.171 360.538 217.616C361.229 218.062 361.772 218.703 362.165 219.541C362.562 220.379 362.761 221.388 362.761 222.567C362.761 223.746 362.565 224.757 362.172 225.599C361.779 226.437 361.239 227.084 360.552 227.538C359.866 227.988 359.082 228.213 358.202 228.213C357.539 228.213 356.997 228.102 356.575 227.879C356.158 227.657 355.832 227.396 355.595 227.098C355.358 226.8 355.176 226.535 355.048 226.303H354.92V232.091H352.797ZM354.878 222.545C354.878 223.312 354.989 223.985 355.211 224.562C355.434 225.14 355.756 225.592 356.177 225.919C356.599 226.241 357.115 226.402 357.726 226.402C358.36 226.402 358.89 226.234 359.317 225.898C359.743 225.557 360.065 225.095 360.282 224.513C360.505 223.93 360.616 223.275 360.616 222.545C360.616 221.826 360.507 221.179 360.29 220.607C360.077 220.034 359.755 219.581 359.324 219.25C358.898 218.919 358.365 218.753 357.726 218.753C357.11 218.753 356.589 218.911 356.163 219.229C355.742 219.546 355.422 219.989 355.204 220.557C354.987 221.125 354.878 221.788 354.878 222.545ZM368.315 228.241C367.624 228.241 366.999 228.114 366.44 227.858C365.881 227.598 365.439 227.221 365.112 226.729C364.79 226.236 364.629 225.633 364.629 224.918C364.629 224.302 364.747 223.795 364.984 223.398C365.221 223 365.541 222.685 365.943 222.453C366.345 222.221 366.795 222.046 367.292 221.928C367.79 221.809 368.296 221.719 368.812 221.658C369.466 221.582 369.996 221.52 370.403 221.473C370.81 221.421 371.106 221.338 371.291 221.224C371.476 221.111 371.568 220.926 371.568 220.67V220.621C371.568 220 371.393 219.52 371.042 219.179C370.697 218.838 370.181 218.668 369.494 218.668C368.779 218.668 368.216 218.826 367.804 219.143C367.397 219.456 367.115 219.804 366.959 220.188L364.963 219.733C365.2 219.07 365.545 218.535 366 218.128C366.459 217.716 366.987 217.418 367.584 217.233C368.18 217.044 368.808 216.949 369.466 216.949C369.901 216.949 370.363 217.001 370.851 217.105C371.343 217.205 371.802 217.389 372.229 217.659C372.659 217.929 373.012 218.315 373.287 218.817C373.561 219.314 373.699 219.96 373.699 220.756V228H371.625V226.509H371.54C371.402 226.783 371.196 227.053 370.922 227.318C370.647 227.583 370.294 227.804 369.863 227.979C369.433 228.154 368.916 228.241 368.315 228.241ZM368.777 226.537C369.364 226.537 369.866 226.421 370.282 226.189C370.704 225.957 371.023 225.654 371.241 225.28C371.464 224.901 371.575 224.496 371.575 224.065V222.659C371.499 222.735 371.353 222.806 371.135 222.872C370.922 222.934 370.678 222.988 370.403 223.036C370.129 223.078 369.861 223.118 369.601 223.156C369.34 223.189 369.122 223.218 368.947 223.241C368.535 223.294 368.159 223.381 367.818 223.504C367.482 223.627 367.212 223.805 367.008 224.037C366.809 224.264 366.71 224.567 366.71 224.946C366.71 225.472 366.904 225.869 367.292 226.139C367.681 226.404 368.175 226.537 368.777 226.537ZM376.527 228V217.091H378.651V228H376.527ZM377.6 215.408C377.23 215.408 376.913 215.285 376.648 215.038C376.387 214.787 376.257 214.489 376.257 214.143C376.257 213.793 376.387 213.495 376.648 213.249C376.913 212.998 377.23 212.872 377.6 212.872C377.969 212.872 378.284 212.998 378.544 213.249C378.809 213.495 378.942 213.793 378.942 214.143C378.942 214.489 378.809 214.787 378.544 215.038C378.284 215.285 377.969 215.408 377.6 215.408ZM386.081 232.318C385.215 232.318 384.469 232.205 383.844 231.977C383.224 231.75 382.717 231.449 382.324 231.075C381.931 230.701 381.638 230.292 381.444 229.847L383.269 229.094C383.397 229.302 383.567 229.522 383.78 229.754C383.998 229.991 384.292 230.192 384.661 230.358C385.035 230.524 385.516 230.607 386.103 230.607C386.908 230.607 387.573 230.41 388.099 230.017C388.624 229.629 388.887 229.009 388.887 228.156V226.011H388.752C388.624 226.243 388.439 226.501 388.198 226.786C387.961 227.07 387.635 227.316 387.218 227.524C386.801 227.732 386.259 227.837 385.591 227.837C384.73 227.837 383.953 227.635 383.262 227.233C382.575 226.826 382.031 226.227 381.628 225.436C381.231 224.641 381.032 223.663 381.032 222.503C381.032 221.343 381.228 220.348 381.621 219.52C382.019 218.691 382.564 218.057 383.255 217.616C383.946 217.171 384.73 216.949 385.606 216.949C386.283 216.949 386.83 217.062 387.246 217.29C387.663 217.512 387.987 217.773 388.219 218.071C388.456 218.369 388.638 218.632 388.766 218.859H388.922V217.091H391.003V228.241C391.003 229.179 390.786 229.948 390.35 230.55C389.914 231.151 389.325 231.596 388.581 231.885C387.843 232.174 387.01 232.318 386.081 232.318ZM386.06 226.075C386.671 226.075 387.187 225.933 387.608 225.649C388.035 225.36 388.357 224.948 388.574 224.413C388.797 223.874 388.908 223.227 388.908 222.474C388.908 221.741 388.799 221.094 388.581 220.536C388.364 219.977 388.044 219.541 387.623 219.229C387.201 218.911 386.68 218.753 386.06 218.753C385.421 218.753 384.888 218.919 384.462 219.25C384.036 219.577 383.714 220.022 383.496 220.585C383.283 221.149 383.177 221.778 383.177 222.474C383.177 223.189 383.286 223.817 383.503 224.357C383.721 224.896 384.043 225.318 384.469 225.621C384.9 225.924 385.43 226.075 386.06 226.075ZM395.975 221.523V228H393.851V217.091H395.89V218.866H396.025C396.276 218.289 396.669 217.825 397.204 217.474C397.743 217.124 398.423 216.949 399.242 216.949C399.985 216.949 400.636 217.105 401.195 217.418C401.754 217.725 402.187 218.185 402.495 218.795C402.803 219.406 402.956 220.161 402.956 221.061V228H400.833V221.317C400.833 220.526 400.627 219.908 400.215 219.463C399.803 219.013 399.237 218.788 398.518 218.788C398.025 218.788 397.587 218.895 397.204 219.108C396.825 219.321 396.524 219.634 396.302 220.045C396.084 220.453 395.975 220.945 395.975 221.523Z" fill="#3F4346"/>
<path d="M132 148C132 147.448 131.552 147 131 147C130.448 147 130 147.448 130 148H132ZM470.293 264.707C470.683 265.098 471.317 265.098 471.707 264.707L478.071 258.343C478.462 257.953 478.462 257.319 478.071 256.929C477.681 256.538 477.047 256.538 476.657 256.929L471 262.586L465.343 256.929C464.953 256.538 464.319 256.538 463.929 256.929C463.538 257.319 463.538 257.953 463.929 258.343L470.293 264.707ZM130 148V183H132V148H130ZM155 208H447V206H155V208ZM470 231V264H472V231H470ZM447 208C459.703 208 470 218.297 470 231H472C472 217.193 460.807 206 447 206V208ZM130 183C130 196.807 141.193 208 155 208V206C142.297 206 132 195.703 132 183H130Z" fill="#B3B3B3"/>
<rect x="131" y="291" width="137" height="40" rx="4" fill="#1E75BA"/>
<path d="M157.25 311.75H152.75V316.25H151.25V311.75H146.75V310.25H151.25V305.75H152.75V310.25H157.25V311.75Z" fill="white"/>
<path d="M167.261 316.5H165.398L169.585 304.864H171.614L175.801 316.5H173.938L170.648 306.977H170.557L167.261 316.5ZM167.574 311.943H173.619V313.42H167.574V311.943ZM180.472 316.67C179.767 316.67 179.138 316.491 178.585 316.131C178.036 315.767 177.604 315.25 177.29 314.58C176.979 313.905 176.824 313.097 176.824 312.153C176.824 311.21 176.981 310.403 177.295 309.733C177.614 309.062 178.049 308.549 178.602 308.193C179.155 307.837 179.782 307.659 180.483 307.659C181.025 307.659 181.46 307.75 181.79 307.932C182.123 308.11 182.381 308.318 182.562 308.557C182.748 308.795 182.892 309.006 182.994 309.188H183.097V304.864H184.795V316.5H183.136V315.142H182.994C182.892 315.328 182.744 315.54 182.551 315.778C182.362 316.017 182.1 316.225 181.767 316.403C181.434 316.581 181.002 316.67 180.472 316.67ZM180.847 315.222C181.335 315.222 181.748 315.093 182.085 314.835C182.426 314.574 182.684 314.212 182.858 313.75C183.036 313.288 183.125 312.75 183.125 312.136C183.125 311.53 183.038 311 182.864 310.545C182.689 310.091 182.434 309.737 182.097 309.483C181.759 309.229 181.343 309.102 180.847 309.102C180.335 309.102 179.909 309.235 179.568 309.5C179.227 309.765 178.97 310.127 178.795 310.585C178.625 311.044 178.54 311.561 178.54 312.136C178.54 312.72 178.627 313.244 178.801 313.71C178.975 314.176 179.233 314.545 179.574 314.818C179.919 315.087 180.343 315.222 180.847 315.222ZM190.487 316.67C189.783 316.67 189.154 316.491 188.601 316.131C188.052 315.767 187.62 315.25 187.305 314.58C186.995 313.905 186.839 313.097 186.839 312.153C186.839 311.21 186.997 310.403 187.311 309.733C187.629 309.062 188.065 308.549 188.618 308.193C189.171 307.837 189.798 307.659 190.499 307.659C191.04 307.659 191.476 307.75 191.805 307.932C192.139 308.11 192.396 308.318 192.578 308.557C192.764 308.795 192.908 309.006 193.01 309.188H193.112V304.864H194.811V316.5H193.152V315.142H193.01C192.908 315.328 192.76 315.54 192.567 315.778C192.377 316.017 192.116 316.225 191.783 316.403C191.449 316.581 191.018 316.67 190.487 316.67ZM190.862 315.222C191.351 315.222 191.764 315.093 192.101 314.835C192.442 314.574 192.699 314.212 192.874 313.75C193.052 313.288 193.141 312.75 193.141 312.136C193.141 311.53 193.054 311 192.879 310.545C192.705 310.091 192.449 309.737 192.112 309.483C191.775 309.229 191.358 309.102 190.862 309.102C190.351 309.102 189.925 309.235 189.584 309.5C189.243 309.765 188.985 310.127 188.811 310.585C188.641 311.044 188.555 311.561 188.555 312.136C188.555 312.72 188.643 313.244 188.817 313.71C188.991 314.176 189.249 314.545 189.589 314.818C189.934 315.087 190.358 315.222 190.862 315.222ZM205.544 307.773V309.136H200.777V307.773H205.544ZM202.055 305.682H203.754V313.938C203.754 314.267 203.804 314.515 203.902 314.682C204 314.845 204.127 314.956 204.283 315.017C204.442 315.074 204.614 315.102 204.8 315.102C204.936 315.102 205.055 315.093 205.158 315.074C205.26 315.055 205.339 315.04 205.396 315.028L205.703 316.432C205.605 316.47 205.464 316.508 205.283 316.545C205.101 316.587 204.874 316.61 204.601 316.614C204.154 316.621 203.737 316.542 203.351 316.375C202.964 316.208 202.652 315.951 202.413 315.602C202.175 315.254 202.055 314.816 202.055 314.29V305.682ZM207.423 316.5V307.773H209.065V309.159H209.156C209.315 308.689 209.596 308.32 209.997 308.051C210.402 307.778 210.861 307.642 211.372 307.642C211.478 307.642 211.603 307.646 211.747 307.653C211.895 307.661 212.01 307.67 212.094 307.682V309.307C212.026 309.288 211.904 309.267 211.73 309.244C211.556 309.218 211.382 309.205 211.207 309.205C210.806 309.205 210.448 309.29 210.134 309.46C209.823 309.627 209.577 309.86 209.395 310.159C209.213 310.455 209.122 310.792 209.122 311.17V316.5H207.423ZM213.564 316.5V307.773H215.263V316.5H213.564ZM214.422 306.426C214.126 306.426 213.873 306.328 213.661 306.131C213.452 305.93 213.348 305.691 213.348 305.415C213.348 305.134 213.452 304.896 213.661 304.699C213.873 304.498 214.126 304.398 214.422 304.398C214.717 304.398 214.969 304.498 215.178 304.699C215.39 304.896 215.496 305.134 215.496 305.415C215.496 305.691 215.39 305.93 215.178 306.131C214.969 306.328 214.717 306.426 214.422 306.426ZM221.207 319.955C220.514 319.955 219.918 319.864 219.418 319.682C218.921 319.5 218.516 319.259 218.202 318.96C217.887 318.661 217.652 318.333 217.497 317.977L218.957 317.375C219.06 317.542 219.196 317.718 219.366 317.903C219.541 318.093 219.776 318.254 220.071 318.386C220.37 318.519 220.755 318.585 221.224 318.585C221.868 318.585 222.401 318.428 222.821 318.114C223.241 317.803 223.452 317.307 223.452 316.625V314.909H223.344C223.241 315.095 223.094 315.301 222.901 315.528C222.711 315.756 222.45 315.953 222.116 316.119C221.783 316.286 221.349 316.369 220.815 316.369C220.126 316.369 219.505 316.208 218.952 315.886C218.402 315.561 217.967 315.081 217.645 314.449C217.327 313.812 217.168 313.03 217.168 312.102C217.168 311.174 217.325 310.379 217.639 309.716C217.957 309.053 218.393 308.545 218.946 308.193C219.499 307.837 220.126 307.659 220.827 307.659C221.368 307.659 221.806 307.75 222.139 307.932C222.473 308.11 222.732 308.318 222.918 308.557C223.107 308.795 223.253 309.006 223.355 309.188H223.48V307.773H225.145V316.693C225.145 317.443 224.971 318.059 224.622 318.54C224.274 319.021 223.802 319.377 223.207 319.608C222.616 319.839 221.95 319.955 221.207 319.955ZM221.19 314.96C221.679 314.96 222.092 314.847 222.429 314.619C222.77 314.388 223.027 314.059 223.202 313.631C223.38 313.199 223.469 312.682 223.469 312.08C223.469 311.492 223.382 310.975 223.207 310.528C223.033 310.081 222.777 309.733 222.44 309.483C222.103 309.229 221.687 309.102 221.19 309.102C220.679 309.102 220.253 309.235 219.912 309.5C219.571 309.761 219.313 310.117 219.139 310.568C218.969 311.019 218.884 311.523 218.884 312.08C218.884 312.652 218.971 313.153 219.145 313.585C219.319 314.017 219.577 314.354 219.918 314.597C220.262 314.839 220.687 314.96 221.19 314.96ZM231.082 319.955C230.389 319.955 229.793 319.864 229.293 319.682C228.796 319.5 228.391 319.259 228.077 318.96C227.762 318.661 227.527 318.333 227.372 317.977L228.832 317.375C228.935 317.542 229.071 317.718 229.241 317.903C229.416 318.093 229.651 318.254 229.946 318.386C230.245 318.519 230.63 318.585 231.099 318.585C231.743 318.585 232.276 318.428 232.696 318.114C233.116 317.803 233.327 317.307 233.327 316.625V314.909H233.219C233.116 315.095 232.969 315.301 232.776 315.528C232.586 315.756 232.325 315.953 231.991 316.119C231.658 316.286 231.224 316.369 230.69 316.369C230.001 316.369 229.38 316.208 228.827 315.886C228.277 315.561 227.842 315.081 227.52 314.449C227.202 313.812 227.043 313.03 227.043 312.102C227.043 311.174 227.2 310.379 227.514 309.716C227.832 309.053 228.268 308.545 228.821 308.193C229.374 307.837 230.001 307.659 230.702 307.659C231.243 307.659 231.681 307.75 232.014 307.932C232.348 308.11 232.607 308.318 232.793 308.557C232.982 308.795 233.128 309.006 233.23 309.188H233.355V307.773H235.02V316.693C235.02 317.443 234.846 318.059 234.497 318.54C234.149 319.021 233.677 319.377 233.082 319.608C232.491 319.839 231.825 319.955 231.082 319.955ZM231.065 314.96C231.554 314.96 231.967 314.847 232.304 314.619C232.645 314.388 232.902 314.059 233.077 313.631C233.255 313.199 233.344 312.682 233.344 312.08C233.344 311.492 233.257 310.975 233.082 310.528C232.908 310.081 232.652 309.733 232.315 309.483C231.978 309.229 231.562 309.102 231.065 309.102C230.554 309.102 230.128 309.235 229.787 309.5C229.446 309.761 229.188 310.117 229.014 310.568C228.844 311.019 228.759 311.523 228.759 312.08C228.759 312.652 228.846 313.153 229.02 313.585C229.194 314.017 229.452 314.354 229.793 314.597C230.137 314.839 230.562 314.96 231.065 314.96ZM241.06 316.676C240.2 316.676 239.459 316.492 238.838 316.125C238.221 315.754 237.743 315.233 237.406 314.562C237.073 313.888 236.906 313.098 236.906 312.193C236.906 311.299 237.073 310.511 237.406 309.83C237.743 309.148 238.213 308.616 238.815 308.233C239.421 307.85 240.13 307.659 240.94 307.659C241.433 307.659 241.91 307.741 242.372 307.903C242.834 308.066 243.249 308.322 243.616 308.67C243.984 309.019 244.274 309.472 244.486 310.028C244.698 310.581 244.804 311.254 244.804 312.045V312.648H237.866V311.375H243.139C243.139 310.928 243.048 310.532 242.866 310.188C242.685 309.839 242.429 309.564 242.099 309.364C241.774 309.163 241.391 309.062 240.952 309.062C240.474 309.062 240.058 309.18 239.702 309.415C239.349 309.646 239.077 309.949 238.884 310.324C238.694 310.695 238.599 311.098 238.599 311.534V312.528C238.599 313.112 238.702 313.608 238.906 314.017C239.115 314.426 239.404 314.739 239.776 314.955C240.147 315.167 240.58 315.273 241.077 315.273C241.399 315.273 241.692 315.227 241.957 315.136C242.223 315.042 242.452 314.902 242.645 314.716C242.838 314.53 242.986 314.301 243.088 314.028L244.696 314.318C244.567 314.792 244.336 315.206 244.003 315.562C243.673 315.915 243.259 316.189 242.759 316.386C242.262 316.58 241.696 316.676 241.06 316.676ZM246.689 316.5V307.773H248.331V309.159H248.422C248.581 308.689 248.861 308.32 249.263 308.051C249.668 307.778 250.126 307.642 250.638 307.642C250.744 307.642 250.869 307.646 251.013 307.653C251.161 307.661 251.276 307.67 251.359 307.682V309.307C251.291 309.288 251.17 309.267 250.996 309.244C250.821 309.218 250.647 309.205 250.473 309.205C250.071 309.205 249.714 309.29 249.399 309.46C249.089 309.627 248.842 309.86 248.661 310.159C248.479 310.455 248.388 310.792 248.388 311.17V316.5H246.689Z" fill="white"/>
<path d="M561.333 91.6667V25H503V50H453V25H394.667V91.6667H453V66.6667H469.667V150H503V175H561.333V108.333H503V133.333H486.333V66.6667H503V91.6667H561.333ZM436.333 75H411.333V41.6667H436.333V75ZM519.667 125H544.667V158.333H519.667V125ZM519.667 41.6667H544.667V75H519.667V41.6667Z" fill="#DBEAF6"/>
<defs>
<filter id="filter0_d_2090_29038" x="35" y="55" width="192" height="101" filterUnits="userSpaceOnUse" color-interpolation-filters="sRGB">
<feFlood flood-opacity="0" result="BackgroundImageFix"/>
<feColorMatrix in="SourceAlpha" type="matrix" values="0 0 0 0 0 0 0 0 0 0 0 0 0 0 0 0 0 0 127 0" result="hardAlpha"/>
<feOffset dy="6"/>
<feGaussianBlur stdDeviation="3"/>
<feComposite in2="hardAlpha" operator="out"/>
<feColorMatrix type="matrix" values="0 0 0 0 0 0 0 0 0 0 0 0 0 0 0 0 0 0 0.25 0"/>
<feBlend mode="normal" in2="BackgroundImageFix" result="effect1_dropShadow_2090_29038"/>
<feBlend mode="normal" in="SourceGraphic" in2="effect1_dropShadow_2090_29038" result="shape"/>
</filter>
<filter id="filter1_d_2090_29038" x="375" y="268" width="192" height="98" filterUnits="userSpaceOnUse" color-interpolation-filters="sRGB">
<feFlood flood-opacity="0" result="BackgroundImageFix"/>
<feColorMatrix in="SourceAlpha" type="matrix" values="0 0 0 0 0 0 0 0 0 0 0 0 0 0 0 0 0 0 127 0" result="hardAlpha"/>
<feOffset dy="6"/>
<feGaussianBlur stdDeviation="3"/>
<feComposite in2="hardAlpha" operator="out"/>
<feColorMatrix type="matrix" values="0 0 0 0 0 0 0 0 0 0 0 0 0 0 0 0 0 0 0.25 0"/>
<feBlend mode="normal" in2="BackgroundImageFix" result="effect1_dropShadow_2090_29038"/>
<feBlend mode="normal" in="SourceGraphic" in2="effect1_dropShadow_2090_29038" result="shape"/>
</filter>
</defs>
</svg>
