<svg width="600" height="450" viewBox="0 0 600 450" fill="none" xmlns="http://www.w3.org/2000/svg">
<rect x="40" y="86" width="172" height="89" rx="8" fill="#E2F0FF"/>
<path d="M82.666 117.167H61.3327C59.866 117.167 58.666 118.367 58.666 119.833V143.833L63.9993 138.5H82.666C84.1327 138.5 85.3327 137.3 85.3327 135.833V119.833C85.3327 118.367 84.1327 117.167 82.666 117.167ZM82.666 135.833H63.9993L61.3327 138.5V119.833H82.666V135.833Z" fill="#1E75BA"/>
<path d="M96.6165 112.141V110.818H104.496V112.141H101.32V121H99.7884V112.141H96.6165ZM108.228 121.154C107.512 121.154 106.887 120.99 106.353 120.662C105.82 120.334 105.405 119.875 105.11 119.285C104.815 118.695 104.668 118.005 104.668 117.217C104.668 116.424 104.815 115.732 105.11 115.138C105.405 114.545 105.82 114.085 106.353 113.756C106.887 113.428 107.512 113.264 108.228 113.264C108.944 113.264 109.568 113.428 110.102 113.756C110.636 114.085 111.05 114.545 111.345 115.138C111.64 115.732 111.787 116.424 111.787 117.217C111.787 118.005 111.64 118.695 111.345 119.285C111.05 119.875 110.636 120.334 110.102 120.662C109.568 120.99 108.944 121.154 108.228 121.154ZM108.233 119.906C108.697 119.906 109.081 119.784 109.386 119.538C109.691 119.293 109.916 118.967 110.062 118.559C110.211 118.151 110.286 117.702 110.286 117.212C110.286 116.724 110.211 116.277 110.062 115.869C109.916 115.458 109.691 115.129 109.386 114.88C109.081 114.631 108.697 114.507 108.233 114.507C107.765 114.507 107.377 114.631 107.069 114.88C106.764 115.129 106.537 115.458 106.388 115.869C106.242 116.277 106.169 116.724 106.169 117.212C106.169 117.702 106.242 118.151 106.388 118.559C106.537 118.967 106.764 119.293 107.069 119.538C107.377 119.784 107.765 119.906 108.233 119.906ZM117.011 113.364V114.557H112.84V113.364H117.011ZM113.959 111.534H115.445V118.758C115.445 119.046 115.488 119.263 115.574 119.409C115.661 119.552 115.772 119.649 115.907 119.702C116.047 119.752 116.198 119.777 116.36 119.777C116.479 119.777 116.584 119.769 116.673 119.752C116.763 119.736 116.832 119.722 116.882 119.712L117.15 120.94C117.064 120.973 116.942 121.007 116.782 121.04C116.623 121.076 116.425 121.096 116.186 121.099C115.795 121.106 115.43 121.036 115.092 120.891C114.754 120.745 114.481 120.519 114.272 120.214C114.063 119.91 113.959 119.527 113.959 119.066V111.534ZM120.878 121.169C120.394 121.169 119.956 121.08 119.565 120.901C119.174 120.718 118.864 120.455 118.636 120.11C118.41 119.765 118.298 119.343 118.298 118.842C118.298 118.411 118.38 118.057 118.546 117.778C118.712 117.5 118.936 117.28 119.217 117.117C119.499 116.955 119.814 116.832 120.162 116.749C120.51 116.666 120.865 116.603 121.226 116.56C121.683 116.507 122.054 116.464 122.339 116.431C122.625 116.395 122.832 116.337 122.961 116.257C123.09 116.178 123.155 116.048 123.155 115.869V115.835C123.155 115.4 123.032 115.064 122.787 114.825C122.545 114.587 122.184 114.467 121.703 114.467C121.203 114.467 120.808 114.578 120.52 114.8C120.235 115.019 120.038 115.263 119.928 115.531L118.531 115.213C118.697 114.749 118.939 114.375 119.257 114.089C119.579 113.801 119.948 113.592 120.366 113.463C120.783 113.33 121.223 113.264 121.683 113.264C121.988 113.264 122.311 113.301 122.653 113.374C122.997 113.443 123.319 113.572 123.617 113.761C123.919 113.95 124.166 114.22 124.358 114.572C124.55 114.92 124.646 115.372 124.646 115.929V121H123.195V119.956H123.135C123.039 120.148 122.895 120.337 122.702 120.523C122.51 120.708 122.263 120.862 121.962 120.985C121.66 121.108 121.299 121.169 120.878 121.169ZM121.201 119.976C121.612 119.976 121.963 119.895 122.255 119.732C122.55 119.57 122.774 119.358 122.926 119.096C123.082 118.831 123.16 118.547 123.16 118.246V117.261C123.107 117.314 123.004 117.364 122.852 117.411C122.702 117.454 122.532 117.492 122.339 117.525C122.147 117.555 121.96 117.583 121.778 117.609C121.595 117.633 121.443 117.652 121.32 117.669C121.032 117.705 120.768 117.767 120.53 117.853C120.295 117.939 120.106 118.063 119.963 118.226C119.824 118.385 119.754 118.597 119.754 118.862C119.754 119.23 119.89 119.509 120.162 119.697C120.434 119.883 120.78 119.976 121.201 119.976ZM128.113 110.818V121H126.626V110.818H128.113ZM139.49 113.493C139.437 113.022 139.218 112.658 138.834 112.399C138.45 112.137 137.966 112.006 137.382 112.006C136.965 112.006 136.603 112.073 136.298 112.205C135.994 112.335 135.757 112.513 135.588 112.742C135.422 112.968 135.339 113.224 135.339 113.513C135.339 113.755 135.395 113.964 135.508 114.139C135.624 114.315 135.775 114.462 135.96 114.582C136.149 114.698 136.352 114.795 136.567 114.875C136.782 114.951 136.99 115.014 137.188 115.064L138.183 115.322C138.508 115.402 138.841 115.51 139.182 115.646C139.523 115.781 139.84 115.96 140.132 116.183C140.423 116.405 140.659 116.68 140.838 117.008C141.02 117.336 141.111 117.729 141.111 118.186C141.111 118.763 140.962 119.275 140.664 119.722C140.369 120.17 139.939 120.523 139.376 120.781C138.816 121.04 138.138 121.169 137.343 121.169C136.58 121.169 135.921 121.048 135.364 120.806C134.807 120.564 134.371 120.221 134.056 119.777C133.741 119.33 133.567 118.799 133.534 118.186H135.075C135.105 118.554 135.225 118.861 135.433 119.106C135.646 119.348 135.916 119.528 136.244 119.648C136.575 119.764 136.938 119.822 137.333 119.822C137.767 119.822 138.153 119.754 138.491 119.618C138.832 119.479 139.101 119.286 139.296 119.041C139.492 118.793 139.59 118.503 139.59 118.171C139.59 117.87 139.503 117.623 139.331 117.43C139.162 117.238 138.932 117.079 138.64 116.953C138.352 116.827 138.025 116.716 137.661 116.62L136.458 116.292C135.642 116.07 134.996 115.743 134.519 115.312C134.045 114.882 133.808 114.312 133.808 113.602C133.808 113.016 133.967 112.504 134.285 112.066C134.603 111.629 135.034 111.289 135.578 111.047C136.121 110.802 136.734 110.679 137.417 110.679C138.106 110.679 138.715 110.8 139.242 111.042C139.772 111.284 140.19 111.617 140.494 112.041C140.799 112.462 140.959 112.946 140.972 113.493H139.49ZM142.947 110.818H144.811L148.053 118.733H148.172L151.413 110.818H153.278V121H151.816V113.632H151.722L148.719 120.985H147.506L144.503 113.627H144.408V121H142.947V110.818ZM161.064 113.493C161.011 113.022 160.793 112.658 160.408 112.399C160.024 112.137 159.54 112.006 158.956 112.006C158.539 112.006 158.178 112.073 157.873 112.205C157.568 112.335 157.331 112.513 157.162 112.742C156.996 112.968 156.913 113.224 156.913 113.513C156.913 113.755 156.97 113.964 157.082 114.139C157.198 114.315 157.349 114.462 157.535 114.582C157.724 114.698 157.926 114.795 158.141 114.875C158.357 114.951 158.564 115.014 158.763 115.064L159.757 115.322C160.082 115.402 160.415 115.51 160.756 115.646C161.098 115.781 161.414 115.96 161.706 116.183C161.997 116.405 162.233 116.68 162.412 117.008C162.594 117.336 162.685 117.729 162.685 118.186C162.685 118.763 162.536 119.275 162.238 119.722C161.943 120.17 161.514 120.523 160.95 120.781C160.39 121.04 159.712 121.169 158.917 121.169C158.154 121.169 157.495 121.048 156.938 120.806C156.381 120.564 155.945 120.221 155.631 119.777C155.316 119.33 155.142 118.799 155.108 118.186H156.65C156.68 118.554 156.799 118.861 157.008 119.106C157.22 119.348 157.49 119.528 157.818 119.648C158.149 119.764 158.512 119.822 158.907 119.822C159.341 119.822 159.727 119.754 160.065 119.618C160.407 119.479 160.675 119.286 160.871 119.041C161.066 118.793 161.164 118.503 161.164 118.171C161.164 117.87 161.078 117.623 160.905 117.43C160.736 117.238 160.506 117.079 160.214 116.953C159.926 116.827 159.599 116.716 159.235 116.62L158.032 116.292C157.216 116.07 156.57 115.743 156.093 115.312C155.619 114.882 155.382 114.312 155.382 113.602C155.382 113.016 155.541 112.504 155.859 112.066C156.177 111.629 156.608 111.289 157.152 111.047C157.695 110.802 158.309 110.679 158.991 110.679C159.681 110.679 160.289 110.8 160.816 111.042C161.346 111.284 161.764 111.617 162.069 112.041C162.374 112.462 162.533 112.946 162.546 113.493H161.064Z" fill="#1E75BA"/>
<path d="M103.79 149.239C102.585 149.239 101.511 149.017 100.568 148.574C99.6307 148.131 98.8864 147.52 98.3352 146.741C97.7841 145.963 97.4972 145.071 97.4744 144.065H101.054C101.094 144.741 101.378 145.29 101.906 145.71C102.435 146.131 103.062 146.341 103.79 146.341C104.369 146.341 104.881 146.213 105.324 145.957C105.773 145.696 106.122 145.335 106.372 144.875C106.628 144.409 106.756 143.875 106.756 143.273C106.756 142.659 106.625 142.119 106.364 141.653C106.108 141.187 105.753 140.824 105.298 140.562C104.844 140.301 104.324 140.168 103.739 140.162C103.227 140.162 102.73 140.267 102.247 140.477C101.77 140.687 101.398 140.974 101.131 141.338L97.8494 140.75L98.6761 131.545H109.347V134.562H101.719L101.267 138.935H101.369C101.676 138.503 102.139 138.145 102.759 137.861C103.378 137.577 104.071 137.435 104.838 137.435C105.889 137.435 106.827 137.682 107.651 138.176C108.474 138.67 109.125 139.349 109.602 140.213C110.08 141.071 110.315 142.06 110.31 143.179C110.315 144.355 110.043 145.401 109.491 146.315C108.946 147.224 108.182 147.94 107.199 148.463C106.222 148.98 105.085 149.239 103.79 149.239ZM119.727 149.384C118.261 149.378 117 149.017 115.943 148.301C114.892 147.585 114.082 146.548 113.514 145.19C112.952 143.832 112.673 142.199 112.679 140.29C112.679 138.386 112.96 136.764 113.523 135.423C114.091 134.082 114.901 133.062 115.952 132.364C117.009 131.659 118.267 131.307 119.727 131.307C121.188 131.307 122.443 131.659 123.494 132.364C124.551 133.068 125.364 134.091 125.932 135.432C126.5 136.767 126.781 138.386 126.776 140.29C126.776 142.205 126.491 143.841 125.923 145.199C125.361 146.557 124.554 147.594 123.503 148.31C122.452 149.026 121.193 149.384 119.727 149.384ZM119.727 146.324C120.727 146.324 121.526 145.821 122.122 144.815C122.719 143.81 123.014 142.301 123.009 140.29C123.009 138.966 122.872 137.864 122.599 136.983C122.332 136.102 121.952 135.44 121.457 134.997C120.969 134.554 120.392 134.332 119.727 134.332C118.733 134.332 117.938 134.83 117.341 135.824C116.744 136.818 116.443 138.307 116.438 140.29C116.438 141.631 116.571 142.75 116.838 143.648C117.111 144.54 117.494 145.21 117.989 145.659C118.483 146.102 119.062 146.324 119.727 146.324ZM136.251 149.384C134.785 149.378 133.523 149.017 132.467 148.301C131.415 147.585 130.606 146.548 130.038 145.19C129.475 143.832 129.197 142.199 129.202 140.29C129.202 138.386 129.484 136.764 130.046 135.423C130.614 134.082 131.424 133.062 132.475 132.364C133.532 131.659 134.79 131.307 136.251 131.307C137.711 131.307 138.967 131.659 140.018 132.364C141.075 133.068 141.887 134.091 142.455 135.432C143.023 136.767 143.305 138.386 143.299 140.29C143.299 142.205 143.015 143.841 142.447 145.199C141.884 146.557 141.077 147.594 140.026 148.31C138.975 149.026 137.717 149.384 136.251 149.384ZM136.251 146.324C137.251 146.324 138.049 145.821 138.646 144.815C139.242 143.81 139.538 142.301 139.532 140.29C139.532 138.966 139.396 137.864 139.123 136.983C138.856 136.102 138.475 135.44 137.981 134.997C137.492 134.554 136.915 134.332 136.251 134.332C135.256 134.332 134.461 134.83 133.864 135.824C133.268 136.818 132.967 138.307 132.961 140.29C132.961 141.631 133.094 142.75 133.362 143.648C133.634 144.54 134.018 145.21 134.512 145.659C135.006 146.102 135.586 146.324 136.251 146.324ZM149.254 145.233L149.263 140.878H149.791L153.984 135.909H158.152L152.518 142.489H151.658L149.254 145.233ZM145.964 149V131.545H149.595V149H145.964ZM154.146 149L150.294 143.298L152.714 140.733L158.399 149H154.146Z" fill="#1E75BA"/>
<rect x="388" y="177" width="172" height="89" rx="8" fill="#F9EAE5"/>
<path d="M430.668 208.167H409.335C407.868 208.167 406.668 209.367 406.668 210.833V234.833L412.001 229.5H430.668C432.135 229.5 433.335 228.3 433.335 226.833V210.833C433.335 209.367 432.135 208.167 430.668 208.167ZM430.668 226.833H410.895L409.335 228.393V210.833H430.668V226.833ZM418.668 212.167H421.335V220.167H418.668V212.167ZM418.668 222.833H421.335V225.5H418.668V222.833Z" fill="#CC5229"/>
<path d="M453.119 212V201.818H459.433V203.141H454.655V206.243H458.98V207.56H454.655V212H453.119ZM463.397 212.169C462.913 212.169 462.476 212.08 462.085 211.901C461.694 211.718 461.384 211.455 461.155 211.11C460.93 210.765 460.817 210.343 460.817 209.842C460.817 209.411 460.9 209.057 461.066 208.778C461.231 208.5 461.455 208.28 461.737 208.117C462.019 207.955 462.333 207.832 462.681 207.749C463.029 207.666 463.384 207.603 463.745 207.56C464.203 207.507 464.574 207.464 464.859 207.431C465.144 207.395 465.351 207.337 465.48 207.257C465.61 207.178 465.674 207.048 465.674 206.869V206.835C465.674 206.4 465.552 206.064 465.306 205.825C465.065 205.587 464.703 205.467 464.223 205.467C463.722 205.467 463.328 205.578 463.039 205.8C462.754 206.019 462.557 206.263 462.448 206.531L461.051 206.213C461.217 205.749 461.458 205.375 461.777 205.089C462.098 204.801 462.468 204.592 462.885 204.463C463.303 204.33 463.742 204.264 464.203 204.264C464.508 204.264 464.831 204.301 465.172 204.374C465.517 204.443 465.838 204.572 466.137 204.761C466.438 204.95 466.685 205.22 466.877 205.572C467.07 205.92 467.166 206.372 467.166 206.929V212H465.714V210.956H465.654C465.558 211.148 465.414 211.337 465.222 211.523C465.03 211.708 464.783 211.862 464.481 211.985C464.18 212.108 463.818 212.169 463.397 212.169ZM463.721 210.976C464.132 210.976 464.483 210.895 464.775 210.732C465.069 210.57 465.293 210.358 465.446 210.096C465.601 209.831 465.679 209.547 465.679 209.246V208.261C465.626 208.314 465.524 208.364 465.371 208.411C465.222 208.454 465.051 208.492 464.859 208.525C464.667 208.555 464.48 208.583 464.297 208.609C464.115 208.633 463.962 208.652 463.84 208.669C463.551 208.705 463.288 208.767 463.049 208.853C462.814 208.939 462.625 209.063 462.483 209.226C462.343 209.385 462.274 209.597 462.274 209.862C462.274 210.23 462.41 210.509 462.681 210.697C462.953 210.883 463.3 210.976 463.721 210.976ZM469.146 212V204.364H470.632V212H469.146ZM469.896 203.185C469.638 203.185 469.416 203.099 469.23 202.927C469.048 202.751 468.957 202.542 468.957 202.3C468.957 202.055 469.048 201.846 469.23 201.674C469.416 201.498 469.638 201.411 469.896 201.411C470.155 201.411 470.375 201.498 470.558 201.674C470.743 201.846 470.836 202.055 470.836 202.3C470.836 202.542 470.743 202.751 470.558 202.927C470.375 203.099 470.155 203.185 469.896 203.185ZM474.119 201.818V212H472.632V201.818H474.119ZM479.41 212.154C478.657 212.154 478.009 211.993 477.466 211.672C476.925 211.347 476.508 210.891 476.213 210.305C475.921 209.715 475.775 209.024 475.775 208.232C475.775 207.449 475.921 206.76 476.213 206.163C476.508 205.567 476.919 205.101 477.446 204.766C477.976 204.432 478.596 204.264 479.305 204.264C479.736 204.264 480.154 204.335 480.558 204.478C480.962 204.621 481.325 204.844 481.647 205.149C481.968 205.454 482.222 205.85 482.407 206.337C482.593 206.821 482.686 207.41 482.686 208.102V208.629H476.616V207.516H481.229C481.229 207.125 481.15 206.778 480.991 206.477C480.831 206.172 480.608 205.931 480.319 205.756C480.034 205.58 479.7 205.492 479.315 205.492C478.898 205.492 478.533 205.595 478.221 205.8C477.913 206.003 477.675 206.268 477.506 206.596C477.34 206.921 477.257 207.274 477.257 207.655V208.525C477.257 209.035 477.346 209.469 477.525 209.827C477.708 210.185 477.961 210.459 478.286 210.648C478.611 210.833 478.99 210.926 479.425 210.926C479.706 210.926 479.963 210.886 480.195 210.807C480.427 210.724 480.628 210.601 480.797 210.439C480.966 210.277 481.095 210.076 481.184 209.837L482.591 210.091C482.479 210.505 482.277 210.868 481.985 211.18C481.697 211.488 481.334 211.728 480.896 211.901C480.462 212.07 479.966 212.154 479.41 212.154ZM487.194 212.149C486.577 212.149 486.027 211.992 485.543 211.677C485.063 211.359 484.685 210.906 484.41 210.32C484.138 209.73 484.002 209.022 484.002 208.197C484.002 207.371 484.14 206.665 484.415 206.079C484.693 205.492 485.074 205.043 485.558 204.732C486.042 204.42 486.591 204.264 487.204 204.264C487.678 204.264 488.059 204.344 488.347 204.503C488.639 204.659 488.864 204.841 489.023 205.05C489.186 205.259 489.312 205.442 489.401 205.602H489.491V201.818H490.977V212H489.526V210.812H489.401C489.312 210.974 489.183 211.16 489.013 211.369C488.848 211.577 488.619 211.76 488.327 211.915C488.036 212.071 487.658 212.149 487.194 212.149ZM487.522 210.881C487.95 210.881 488.311 210.769 488.606 210.543C488.904 210.315 489.129 209.998 489.282 209.594C489.438 209.189 489.516 208.719 489.516 208.182C489.516 207.652 489.439 207.187 489.287 206.79C489.134 206.392 488.911 206.082 488.616 205.86C488.321 205.638 487.956 205.527 487.522 205.527C487.075 205.527 486.702 205.643 486.403 205.875C486.105 206.107 485.88 206.424 485.727 206.825C485.578 207.226 485.504 207.678 485.504 208.182C485.504 208.692 485.58 209.151 485.732 209.559C485.885 209.967 486.11 210.29 486.408 210.528C486.71 210.764 487.081 210.881 487.522 210.881Z" fill="#CC5229"/>
<path d="M461.009 222.545V240H457.318V226.048H457.216L453.219 228.554V225.281L457.54 222.545H461.009ZM466.376 240.222C465.813 240.222 465.33 240.023 464.927 239.625C464.529 239.222 464.33 238.739 464.33 238.176C464.33 237.619 464.529 237.142 464.927 236.744C465.33 236.347 465.813 236.148 466.376 236.148C466.921 236.148 467.398 236.347 467.808 236.744C468.217 237.142 468.421 237.619 468.421 238.176C468.421 238.551 468.325 238.895 468.131 239.207C467.944 239.514 467.697 239.761 467.39 239.949C467.083 240.131 466.745 240.222 466.376 240.222ZM477.602 240.239C476.398 240.239 475.324 240.017 474.381 239.574C473.443 239.131 472.699 238.52 472.148 237.741C471.597 236.963 471.31 236.071 471.287 235.065H474.866C474.906 235.741 475.19 236.29 475.719 236.71C476.247 237.131 476.875 237.341 477.602 237.341C478.182 237.341 478.693 237.213 479.136 236.957C479.585 236.696 479.935 236.335 480.185 235.875C480.44 235.409 480.568 234.875 480.568 234.273C480.568 233.659 480.438 233.119 480.176 232.653C479.92 232.187 479.565 231.824 479.111 231.562C478.656 231.301 478.136 231.168 477.551 231.162C477.04 231.162 476.543 231.267 476.06 231.477C475.582 231.687 475.21 231.974 474.943 232.338L471.662 231.75L472.489 222.545H483.159V225.562H475.531L475.08 229.935H475.182C475.489 229.503 475.952 229.145 476.571 228.861C477.19 228.577 477.884 228.435 478.651 228.435C479.702 228.435 480.639 228.682 481.463 229.176C482.287 229.67 482.938 230.349 483.415 231.213C483.892 232.071 484.128 233.06 484.122 234.179C484.128 235.355 483.855 236.401 483.304 237.315C482.759 238.224 481.994 238.94 481.011 239.463C480.034 239.98 478.898 240.239 477.602 240.239ZM486.798 240V222.545H490.489V230.241H490.719L497 222.545H501.423L494.946 230.361L501.5 240H497.085L492.304 232.824L490.489 235.04V240H486.798Z" fill="#CC5229"/>
<rect x="213" y="177" width="172" height="89" rx="8" fill="#DE8644" fill-opacity="0.1"/>
<path d="M240.732 226.7L235.132 221.1L233.266 222.967L240.732 230.434L256.732 214.434L254.866 212.567L240.732 226.7Z" fill="#5D6164"/>
<path d="M283.672 204.493C283.619 204.022 283.4 203.658 283.016 203.399C282.631 203.137 282.147 203.006 281.564 203.006C281.146 203.006 280.785 203.073 280.48 203.205C280.175 203.335 279.938 203.513 279.769 203.742C279.603 203.968 279.521 204.224 279.521 204.513C279.521 204.755 279.577 204.964 279.69 205.139C279.806 205.315 279.956 205.462 280.142 205.582C280.331 205.698 280.533 205.795 280.749 205.875C280.964 205.951 281.171 206.014 281.37 206.064L282.364 206.322C282.689 206.402 283.022 206.51 283.364 206.646C283.705 206.781 284.022 206.96 284.313 207.183C284.605 207.405 284.84 207.68 285.019 208.008C285.201 208.336 285.293 208.729 285.293 209.186C285.293 209.763 285.143 210.275 284.845 210.722C284.55 211.17 284.121 211.523 283.558 211.781C282.997 212.04 282.32 212.169 281.524 212.169C280.762 212.169 280.102 212.048 279.545 211.806C278.989 211.564 278.553 211.221 278.238 210.777C277.923 210.33 277.749 209.799 277.716 209.186H279.257C279.287 209.554 279.406 209.861 279.615 210.106C279.827 210.348 280.097 210.528 280.425 210.648C280.757 210.764 281.12 210.822 281.514 210.822C281.948 210.822 282.335 210.754 282.673 210.618C283.014 210.479 283.282 210.286 283.478 210.041C283.674 209.793 283.771 209.503 283.771 209.171C283.771 208.87 283.685 208.623 283.513 208.43C283.344 208.238 283.113 208.079 282.822 207.953C282.533 207.827 282.207 207.716 281.842 207.62L280.639 207.292C279.824 207.07 279.178 206.743 278.7 206.312C278.226 205.882 277.989 205.312 277.989 204.602C277.989 204.016 278.148 203.504 278.467 203.066C278.785 202.629 279.216 202.289 279.759 202.047C280.303 201.802 280.916 201.679 281.599 201.679C282.288 201.679 282.896 201.8 283.423 202.042C283.954 202.284 284.371 202.617 284.676 203.041C284.981 203.462 285.14 203.946 285.153 204.493H283.672ZM290.3 212.154C289.548 212.154 288.9 211.993 288.356 211.672C287.816 211.347 287.398 210.891 287.104 210.305C286.812 209.715 286.666 209.024 286.666 208.232C286.666 207.449 286.812 206.76 287.104 206.163C287.398 205.567 287.809 205.101 288.336 204.766C288.867 204.432 289.487 204.264 290.196 204.264C290.627 204.264 291.044 204.335 291.449 204.478C291.853 204.621 292.216 204.844 292.537 205.149C292.859 205.454 293.113 205.85 293.298 206.337C293.484 206.821 293.577 207.41 293.577 208.102V208.629H287.506V207.516H292.12C292.12 207.125 292.04 206.778 291.881 206.477C291.722 206.172 291.498 205.931 291.21 205.756C290.925 205.58 290.59 205.492 290.206 205.492C289.788 205.492 289.424 205.595 289.112 205.8C288.804 206.003 288.565 206.268 288.396 206.596C288.23 206.921 288.148 207.274 288.148 207.655V208.525C288.148 209.035 288.237 209.469 288.416 209.827C288.598 210.185 288.852 210.459 289.177 210.648C289.501 210.833 289.881 210.926 290.315 210.926C290.597 210.926 290.854 210.886 291.086 210.807C291.318 210.724 291.518 210.601 291.687 210.439C291.856 210.277 291.986 210.076 292.075 209.837L293.482 210.091C293.369 210.505 293.167 210.868 292.876 211.18C292.587 211.488 292.224 211.728 291.787 211.901C291.353 212.07 290.857 212.154 290.3 212.154ZM296.712 207.466V212H295.226V204.364H296.653V205.607H296.747C296.923 205.202 297.198 204.877 297.572 204.632C297.95 204.387 298.426 204.264 298.999 204.264C299.52 204.264 299.975 204.374 300.366 204.592C300.758 204.808 301.061 205.129 301.276 205.557C301.492 205.984 301.599 206.513 301.599 207.143V212H300.113V207.322C300.113 206.768 299.969 206.336 299.68 206.024C299.392 205.709 298.996 205.552 298.492 205.552C298.147 205.552 297.841 205.626 297.572 205.776C297.307 205.925 297.097 206.143 296.941 206.432C296.789 206.717 296.712 207.062 296.712 207.466ZM307.158 204.364V205.557H302.987V204.364H307.158ZM304.105 202.534H305.592V209.758C305.592 210.046 305.635 210.263 305.721 210.409C305.807 210.552 305.918 210.649 306.054 210.702C306.193 210.752 306.344 210.777 306.506 210.777C306.626 210.777 306.73 210.769 306.82 210.752C306.909 210.736 306.979 210.722 307.028 210.712L307.297 211.94C307.211 211.973 307.088 212.007 306.929 212.04C306.77 212.076 306.571 212.096 306.332 212.099C305.941 212.106 305.577 212.036 305.239 211.891C304.901 211.745 304.627 211.519 304.418 211.214C304.21 210.91 304.105 210.527 304.105 210.066V202.534Z" fill="#DE8644"/>
<path d="M278.151 236.932V234.026L285.438 222.545H287.943V226.568H286.46L281.866 233.838V233.974H292.222V236.932H278.151ZM286.528 240V236.045L286.597 234.759V222.545H290.057V240H286.528ZM300.996 222.307C301.893 222.307 302.757 222.457 303.587 222.759C304.422 223.06 305.166 223.54 305.82 224.199C306.479 224.858 306.999 225.733 307.379 226.824C307.766 227.909 307.962 229.241 307.967 230.821C307.967 232.304 307.8 233.628 307.464 234.793C307.135 235.952 306.661 236.938 306.041 237.75C305.422 238.562 304.675 239.182 303.8 239.608C302.925 240.028 301.947 240.239 300.868 240.239C299.703 240.239 298.675 240.014 297.783 239.565C296.891 239.111 296.172 238.494 295.626 237.716C295.087 236.932 294.76 236.051 294.646 235.074H298.286C298.428 235.71 298.726 236.205 299.18 236.557C299.635 236.903 300.197 237.077 300.868 237.077C302.004 237.077 302.868 236.582 303.459 235.594C304.05 234.599 304.348 233.239 304.354 231.511H304.234C303.973 232.023 303.621 232.463 303.178 232.832C302.734 233.196 302.226 233.477 301.652 233.676C301.084 233.875 300.479 233.974 299.837 233.974C298.808 233.974 297.891 233.733 297.084 233.25C296.277 232.767 295.641 232.102 295.175 231.256C294.709 230.409 294.476 229.443 294.476 228.358C294.47 227.188 294.74 226.145 295.286 225.23C295.831 224.315 296.592 223.599 297.57 223.082C298.553 222.56 299.695 222.301 300.996 222.307ZM301.021 225.205C300.447 225.205 299.936 225.341 299.487 225.614C299.044 225.886 298.692 226.253 298.43 226.713C298.175 227.173 298.05 227.687 298.055 228.256C298.055 228.83 298.18 229.347 298.43 229.807C298.686 230.261 299.033 230.625 299.47 230.898C299.913 231.165 300.419 231.298 300.987 231.298C301.413 231.298 301.808 231.219 302.172 231.06C302.536 230.901 302.851 230.682 303.118 230.403C303.391 230.119 303.604 229.793 303.757 229.423C303.911 229.054 303.987 228.662 303.987 228.247C303.982 227.696 303.851 227.19 303.595 226.73C303.339 226.27 302.987 225.901 302.538 225.622C302.089 225.344 301.584 225.205 301.021 225.205ZM317.368 240.384C315.902 240.378 314.641 240.017 313.584 239.301C312.533 238.585 311.723 237.548 311.155 236.19C310.592 234.832 310.314 233.199 310.32 231.29C310.32 229.386 310.601 227.764 311.163 226.423C311.732 225.082 312.541 224.062 313.592 223.364C314.649 222.659 315.908 222.307 317.368 222.307C318.828 222.307 320.084 222.659 321.135 223.364C322.192 224.068 323.004 225.091 323.572 226.432C324.141 227.767 324.422 229.386 324.416 231.29C324.416 233.205 324.132 234.841 323.564 236.199C323.001 237.557 322.195 238.594 321.143 239.31C320.092 240.026 318.834 240.384 317.368 240.384ZM317.368 237.324C318.368 237.324 319.166 236.821 319.763 235.815C320.359 234.81 320.655 233.301 320.649 231.29C320.649 229.966 320.513 228.864 320.24 227.983C319.973 227.102 319.592 226.44 319.098 225.997C318.609 225.554 318.033 225.332 317.368 225.332C316.374 225.332 315.578 225.83 314.982 226.824C314.385 227.818 314.084 229.307 314.078 231.29C314.078 232.631 314.212 233.75 314.479 234.648C314.751 235.54 315.135 236.21 315.629 236.659C316.124 237.102 316.703 237.324 317.368 237.324ZM327.15 240V222.545H330.84V230.241H331.07L337.352 222.545H341.775L335.298 230.361L341.852 240H337.437L332.656 232.824L330.84 235.04V240H327.15Z" fill="#DE8644"/>
<rect x="112" y="269" width="172" height="89" rx="8" fill="#E8F7E8"/>
<path d="M139.732 318.7L134.132 313.1L132.266 314.967L139.732 322.434L155.732 306.434L153.866 304.567L139.732 318.7Z" fill="#29A653"/>
<path d="M180.415 304H177.119V293.818H180.519C181.517 293.818 182.374 294.022 183.089 294.43C183.805 294.834 184.354 295.416 184.735 296.175C185.12 296.93 185.312 297.837 185.312 298.894C185.312 299.955 185.118 300.866 184.73 301.629C184.346 302.391 183.789 302.978 183.06 303.388C182.33 303.796 181.449 304 180.415 304ZM178.655 302.658H180.33C181.106 302.658 181.75 302.512 182.264 302.22C182.778 301.925 183.162 301.499 183.418 300.942C183.673 300.382 183.8 299.7 183.8 298.894C183.8 298.095 183.673 297.418 183.418 296.861C183.166 296.304 182.79 295.881 182.289 295.593C181.789 295.305 181.167 295.161 180.425 295.161H178.655V302.658ZM190.394 304.154C189.642 304.154 188.994 303.993 188.45 303.672C187.91 303.347 187.492 302.891 187.197 302.305C186.906 301.715 186.76 301.024 186.76 300.232C186.76 299.449 186.906 298.76 187.197 298.163C187.492 297.567 187.903 297.101 188.43 296.766C188.961 296.432 189.58 296.264 190.29 296.264C190.72 296.264 191.138 296.335 191.542 296.478C191.947 296.621 192.31 296.844 192.631 297.149C192.953 297.454 193.206 297.85 193.392 298.337C193.577 298.821 193.67 299.41 193.67 300.102V300.629H187.6V299.516H192.214C192.214 299.125 192.134 298.778 191.975 298.477C191.816 298.172 191.592 297.931 191.304 297.756C191.019 297.58 190.684 297.492 190.3 297.492C189.882 297.492 189.517 297.595 189.206 297.8C188.898 298.003 188.659 298.268 188.49 298.596C188.324 298.921 188.241 299.274 188.241 299.655V300.525C188.241 301.035 188.331 301.469 188.51 301.827C188.692 302.185 188.946 302.459 189.27 302.648C189.595 302.833 189.975 302.926 190.409 302.926C190.691 302.926 190.948 302.886 191.18 302.807C191.412 302.724 191.612 302.601 191.781 302.439C191.95 302.277 192.079 302.076 192.169 301.837L193.576 302.091C193.463 302.505 193.261 302.868 192.969 303.18C192.681 303.488 192.318 303.728 191.881 303.901C191.446 304.07 190.951 304.154 190.394 304.154ZM196.806 293.818V304H195.32V293.818H196.806ZM198.806 304V296.364H200.292V304H198.806ZM199.557 295.185C199.298 295.185 199.076 295.099 198.89 294.927C198.708 294.751 198.617 294.542 198.617 294.3C198.617 294.055 198.708 293.846 198.89 293.674C199.076 293.498 199.298 293.411 199.557 293.411C199.815 293.411 200.036 293.498 200.218 293.674C200.403 293.846 200.496 294.055 200.496 294.3C200.496 294.542 200.403 294.751 200.218 294.927C200.036 295.099 199.815 295.185 199.557 295.185ZM208.825 296.364L206.056 304H204.465L201.691 296.364H203.287L205.221 302.24H205.3L207.229 296.364H208.825ZM213.253 304.154C212.501 304.154 211.853 303.993 211.309 303.672C210.769 303.347 210.352 302.891 210.057 302.305C209.765 301.715 209.619 301.024 209.619 300.232C209.619 299.449 209.765 298.76 210.057 298.163C210.352 297.567 210.763 297.101 211.29 296.766C211.82 296.432 212.44 296.264 213.149 296.264C213.58 296.264 213.997 296.335 214.402 296.478C214.806 296.621 215.169 296.844 215.491 297.149C215.812 297.454 216.066 297.85 216.251 298.337C216.437 298.821 216.53 299.41 216.53 300.102V300.629H210.459V299.516H215.073C215.073 299.125 214.993 298.778 214.834 298.477C214.675 298.172 214.452 297.931 214.163 297.756C213.878 297.58 213.543 297.492 213.159 297.492C212.741 297.492 212.377 297.595 212.065 297.8C211.757 298.003 211.518 298.268 211.349 298.596C211.184 298.921 211.101 299.274 211.101 299.655V300.525C211.101 301.035 211.19 301.469 211.369 301.827C211.551 302.185 211.805 302.459 212.13 302.648C212.455 302.833 212.834 302.926 213.268 302.926C213.55 302.926 213.807 302.886 214.039 302.807C214.271 302.724 214.471 302.601 214.64 302.439C214.809 302.277 214.939 302.076 215.028 301.837L216.435 302.091C216.323 302.505 216.12 302.868 215.829 303.18C215.54 303.488 215.177 303.728 214.74 303.901C214.306 304.07 213.81 304.154 213.253 304.154ZM218.179 304V296.364H219.616V297.577H219.695C219.835 297.166 220.08 296.843 220.431 296.607C220.786 296.369 221.187 296.249 221.634 296.249C221.727 296.249 221.836 296.253 221.962 296.259C222.092 296.266 222.193 296.274 222.266 296.284V297.706C222.206 297.689 222.1 297.671 221.947 297.651C221.795 297.628 221.643 297.616 221.49 297.616C221.139 297.616 220.826 297.691 220.55 297.84C220.279 297.986 220.063 298.19 219.904 298.452C219.745 298.71 219.665 299.005 219.665 299.337V304H218.179ZM226.57 304.154C225.817 304.154 225.169 303.993 224.626 303.672C224.086 303.347 223.668 302.891 223.373 302.305C223.081 301.715 222.936 301.024 222.936 300.232C222.936 299.449 223.081 298.76 223.373 298.163C223.668 297.567 224.079 297.101 224.606 296.766C225.136 296.432 225.756 296.264 226.465 296.264C226.896 296.264 227.314 296.335 227.718 296.478C228.123 296.621 228.485 296.844 228.807 297.149C229.128 297.454 229.382 297.85 229.568 298.337C229.753 298.821 229.846 299.41 229.846 300.102V300.629H223.776V299.516H228.389C228.389 299.125 228.31 298.778 228.151 298.477C227.992 298.172 227.768 297.931 227.48 297.756C227.195 297.58 226.86 297.492 226.475 297.492C226.058 297.492 225.693 297.595 225.382 297.8C225.073 298.003 224.835 298.268 224.666 298.596C224.5 298.921 224.417 299.274 224.417 299.655V300.525C224.417 301.035 224.507 301.469 224.686 301.827C224.868 302.185 225.121 302.459 225.446 302.648C225.771 302.833 226.151 302.926 226.585 302.926C226.866 302.926 227.123 302.886 227.355 302.807C227.587 302.724 227.788 302.601 227.957 302.439C228.126 302.277 228.255 302.076 228.345 301.837L229.752 302.091C229.639 302.505 229.437 302.868 229.145 303.18C228.857 303.488 228.494 303.728 228.056 303.901C227.622 304.07 227.127 304.154 226.57 304.154ZM234.354 304.149C233.738 304.149 233.187 303.992 232.703 303.677C232.223 303.359 231.845 302.906 231.57 302.32C231.298 301.73 231.162 301.022 231.162 300.197C231.162 299.371 231.3 298.665 231.575 298.079C231.853 297.492 232.234 297.043 232.718 296.732C233.202 296.42 233.751 296.264 234.364 296.264C234.838 296.264 235.219 296.344 235.507 296.503C235.799 296.659 236.025 296.841 236.184 297.05C236.346 297.259 236.472 297.442 236.561 297.602H236.651V293.818H238.137V304H236.686V302.812H236.561C236.472 302.974 236.343 303.16 236.174 303.369C236.008 303.577 235.779 303.76 235.488 303.915C235.196 304.071 234.818 304.149 234.354 304.149ZM234.682 302.881C235.11 302.881 235.471 302.769 235.766 302.543C236.064 302.315 236.29 301.998 236.442 301.594C236.598 301.189 236.676 300.719 236.676 300.182C236.676 299.652 236.6 299.187 236.447 298.79C236.295 298.392 236.071 298.082 235.776 297.86C235.481 297.638 235.116 297.527 234.682 297.527C234.235 297.527 233.862 297.643 233.564 297.875C233.265 298.107 233.04 298.424 232.887 298.825C232.738 299.226 232.664 299.678 232.664 300.182C232.664 300.692 232.74 301.151 232.892 301.559C233.045 301.967 233.27 302.29 233.569 302.528C233.87 302.764 234.241 302.881 234.682 302.881Z" fill="#29A653"/>
<path d="M177.151 328.932V326.026L184.438 314.545H186.943V318.568H185.46L180.866 325.838V325.974H191.222V328.932H177.151ZM185.528 332V328.045L185.597 326.759V314.545H189.057V332H185.528ZM200.192 332.239C198.879 332.239 197.712 332.026 196.689 331.599C195.672 331.168 194.874 330.58 194.294 329.835C193.714 329.091 193.425 328.247 193.425 327.304C193.425 326.577 193.589 325.909 193.919 325.301C194.254 324.688 194.709 324.179 195.283 323.776C195.857 323.366 196.499 323.105 197.209 322.991V322.872C196.277 322.685 195.521 322.233 194.942 321.517C194.362 320.795 194.072 319.957 194.072 319.003C194.072 318.099 194.337 317.295 194.865 316.591C195.393 315.881 196.118 315.324 197.038 314.92C197.964 314.511 199.016 314.307 200.192 314.307C201.368 314.307 202.416 314.511 203.337 314.92C204.263 315.33 204.99 315.889 205.518 316.599C206.047 317.304 206.314 318.105 206.32 319.003C206.314 319.963 206.018 320.801 205.433 321.517C204.848 322.233 204.098 322.685 203.183 322.872V322.991C203.882 323.105 204.516 323.366 205.084 323.776C205.658 324.179 206.112 324.688 206.447 325.301C206.788 325.909 206.962 326.577 206.967 327.304C206.962 328.247 206.669 329.091 206.089 329.835C205.51 330.58 204.709 331.168 203.686 331.599C202.669 332.026 201.504 332.239 200.192 332.239ZM200.192 329.528C200.777 329.528 201.288 329.423 201.726 329.213C202.163 328.997 202.504 328.702 202.749 328.327C202.999 327.946 203.124 327.509 203.124 327.014C203.124 326.509 202.996 326.062 202.74 325.676C202.484 325.284 202.138 324.977 201.7 324.756C201.263 324.528 200.76 324.415 200.192 324.415C199.629 324.415 199.126 324.528 198.683 324.756C198.24 324.977 197.891 325.284 197.635 325.676C197.385 326.062 197.26 326.509 197.26 327.014C197.26 327.509 197.382 327.946 197.626 328.327C197.871 328.702 198.214 328.997 198.658 329.213C199.101 329.423 199.612 329.528 200.192 329.528ZM200.192 321.73C200.68 321.73 201.115 321.631 201.496 321.432C201.876 321.233 202.175 320.957 202.391 320.605C202.607 320.253 202.714 319.847 202.714 319.386C202.714 318.932 202.607 318.534 202.391 318.193C202.175 317.847 201.879 317.577 201.504 317.384C201.129 317.185 200.692 317.085 200.192 317.085C199.697 317.085 199.26 317.185 198.879 317.384C198.499 317.577 198.2 317.847 197.984 318.193C197.774 318.534 197.669 318.932 197.669 319.386C197.669 319.847 197.777 320.253 197.993 320.605C198.209 320.957 198.507 321.233 198.888 321.432C199.268 321.631 199.703 321.73 200.192 321.73ZM215.923 332.239C214.718 332.239 213.644 332.017 212.701 331.574C211.763 331.131 211.019 330.52 210.468 329.741C209.917 328.963 209.63 328.071 209.607 327.065H213.187C213.227 327.741 213.511 328.29 214.039 328.71C214.567 329.131 215.195 329.341 215.923 329.341C216.502 329.341 217.013 329.213 217.457 328.957C217.906 328.696 218.255 328.335 218.505 327.875C218.761 327.409 218.888 326.875 218.888 326.273C218.888 325.659 218.758 325.119 218.496 324.653C218.241 324.187 217.886 323.824 217.431 323.562C216.977 323.301 216.457 323.168 215.871 323.162C215.36 323.162 214.863 323.267 214.38 323.477C213.903 323.687 213.531 323.974 213.263 324.338L209.982 323.75L210.809 314.545H221.479V317.562H213.852L213.4 321.935H213.502C213.809 321.503 214.272 321.145 214.891 320.861C215.511 320.577 216.204 320.435 216.971 320.435C218.022 320.435 218.96 320.682 219.783 321.176C220.607 321.67 221.258 322.349 221.735 323.213C222.212 324.071 222.448 325.06 222.442 326.179C222.448 327.355 222.175 328.401 221.624 329.315C221.079 330.224 220.315 330.94 219.332 331.463C218.354 331.98 217.218 332.239 215.923 332.239ZM228.34 328.233L228.349 323.878H228.877L233.07 318.909H237.238L231.604 325.489H230.744L228.34 328.233ZM225.05 332V314.545H228.681V332H225.05ZM233.232 332L229.38 326.298L231.8 323.733L237.485 332H233.232Z" fill="#29A653"/>
<path d="M306 307H321V356H306V307ZM334 286H348V356H334V286ZM362 326H376V356H362V326Z" fill="#66BDFF" fill-opacity="0.2"/>
<path d="M246.434 127.344C246.354 126.599 246.019 126.02 245.428 125.605C244.843 125.19 244.082 124.983 243.144 124.983C242.485 124.983 241.92 125.082 241.448 125.281C240.977 125.48 240.616 125.75 240.366 126.091C240.116 126.432 239.988 126.821 239.982 127.259C239.982 127.622 240.065 127.937 240.229 128.205C240.4 128.472 240.63 128.699 240.92 128.886C241.21 129.068 241.531 129.222 241.883 129.347C242.235 129.472 242.59 129.577 242.948 129.662L244.585 130.071C245.244 130.224 245.877 130.432 246.485 130.693C247.099 130.955 247.647 131.284 248.13 131.682C248.619 132.08 249.005 132.56 249.289 133.122C249.573 133.685 249.715 134.344 249.715 135.099C249.715 136.122 249.454 137.023 248.931 137.801C248.408 138.574 247.653 139.179 246.664 139.616C245.681 140.048 244.491 140.264 243.093 140.264C241.735 140.264 240.556 140.054 239.556 139.634C238.562 139.213 237.783 138.599 237.221 137.793C236.664 136.986 236.363 136.003 236.317 134.844H239.428C239.474 135.452 239.661 135.957 239.991 136.361C240.32 136.764 240.749 137.065 241.278 137.264C241.812 137.463 242.408 137.562 243.067 137.562C243.755 137.562 244.357 137.46 244.874 137.256C245.397 137.045 245.806 136.756 246.102 136.386C246.397 136.011 246.548 135.574 246.553 135.074C246.548 134.619 246.414 134.244 246.153 133.949C245.891 133.648 245.525 133.398 245.053 133.199C244.587 132.994 244.042 132.812 243.417 132.653L241.431 132.142C239.994 131.773 238.857 131.213 238.022 130.463C237.192 129.707 236.778 128.705 236.778 127.455C236.778 126.426 237.056 125.526 237.613 124.753C238.175 123.98 238.94 123.381 239.906 122.955C240.871 122.523 241.965 122.307 243.187 122.307C244.425 122.307 245.511 122.523 246.442 122.955C247.38 123.381 248.116 123.974 248.65 124.736C249.184 125.491 249.46 126.361 249.477 127.344H246.434ZM252.534 122.545H256.403L261.585 135.193H261.79L266.972 122.545H270.841V140H267.807V128.009H267.645L262.821 139.949H260.554L255.73 127.983H255.568V140H252.534V122.545ZM283.77 127.344C283.69 126.599 283.355 126.02 282.764 125.605C282.179 125.19 281.418 124.983 280.48 124.983C279.821 124.983 279.256 125.082 278.784 125.281C278.313 125.48 277.952 125.75 277.702 126.091C277.452 126.432 277.324 126.821 277.318 127.259C277.318 127.622 277.401 127.937 277.565 128.205C277.736 128.472 277.966 128.699 278.256 128.886C278.545 129.068 278.866 129.222 279.219 129.347C279.571 129.472 279.926 129.577 280.284 129.662L281.92 130.071C282.58 130.224 283.213 130.432 283.821 130.693C284.435 130.955 284.983 131.284 285.466 131.682C285.955 132.08 286.341 132.56 286.625 133.122C286.909 133.685 287.051 134.344 287.051 135.099C287.051 136.122 286.79 137.023 286.267 137.801C285.744 138.574 284.989 139.179 284 139.616C283.017 140.048 281.827 140.264 280.429 140.264C279.071 140.264 277.892 140.054 276.892 139.634C275.898 139.213 275.119 138.599 274.557 137.793C274 136.986 273.699 136.003 273.653 134.844H276.764C276.81 135.452 276.997 135.957 277.327 136.361C277.656 136.764 278.085 137.065 278.614 137.264C279.148 137.463 279.744 137.562 280.403 137.562C281.091 137.562 281.693 137.46 282.21 137.256C282.733 137.045 283.142 136.756 283.438 136.386C283.733 136.011 283.884 135.574 283.889 135.074C283.884 134.619 283.75 134.244 283.489 133.949C283.227 133.648 282.861 133.398 282.389 133.199C281.923 132.994 281.378 132.812 280.753 132.653L278.767 132.142C277.33 131.773 276.193 131.213 275.358 130.463C274.528 129.707 274.114 128.705 274.114 127.455C274.114 126.426 274.392 125.526 274.949 124.753C275.511 123.98 276.276 123.381 277.241 122.955C278.207 122.523 279.301 122.307 280.523 122.307C281.761 122.307 282.847 122.523 283.778 122.955C284.716 123.381 285.452 123.974 285.986 124.736C286.52 125.491 286.795 126.361 286.812 127.344H283.77ZM299.454 140.264C298.624 140.264 297.877 140.116 297.212 139.821C296.553 139.52 296.031 139.077 295.644 138.491C295.263 137.906 295.073 137.185 295.073 136.327C295.073 135.588 295.21 134.977 295.482 134.494C295.755 134.011 296.127 133.625 296.599 133.335C297.07 133.045 297.602 132.827 298.192 132.679C298.789 132.526 299.406 132.415 300.042 132.347C300.809 132.267 301.431 132.196 301.908 132.134C302.386 132.065 302.732 131.963 302.948 131.827C303.17 131.685 303.281 131.466 303.281 131.17V131.119C303.281 130.477 303.09 129.98 302.71 129.628C302.329 129.276 301.781 129.099 301.065 129.099C300.309 129.099 299.71 129.264 299.266 129.594C298.829 129.923 298.533 130.312 298.38 130.761L295.499 130.352C295.727 129.557 296.102 128.892 296.624 128.358C297.147 127.818 297.786 127.415 298.542 127.148C299.298 126.875 300.133 126.739 301.048 126.739C301.678 126.739 302.306 126.812 302.931 126.96C303.556 127.108 304.127 127.352 304.644 127.693C305.161 128.028 305.576 128.486 305.888 129.065C306.207 129.645 306.366 130.369 306.366 131.239V140H303.4V138.202H303.298C303.11 138.565 302.846 138.906 302.505 139.224C302.17 139.537 301.746 139.79 301.235 139.983C300.729 140.17 300.136 140.264 299.454 140.264ZM300.255 137.997C300.874 137.997 301.411 137.875 301.866 137.631C302.32 137.381 302.67 137.051 302.914 136.642C303.164 136.233 303.289 135.787 303.289 135.304V133.761C303.192 133.841 303.028 133.915 302.795 133.983C302.567 134.051 302.312 134.111 302.028 134.162C301.744 134.213 301.462 134.259 301.184 134.298C300.906 134.338 300.664 134.372 300.46 134.401C299.999 134.463 299.587 134.565 299.224 134.707C298.86 134.849 298.573 135.048 298.363 135.304C298.153 135.554 298.048 135.878 298.048 136.276C298.048 136.844 298.255 137.273 298.67 137.562C299.085 137.852 299.613 137.997 300.255 137.997ZM312.553 132.33V140H309.468V126.909H312.417V129.134H312.57C312.871 128.401 313.352 127.818 314.011 127.386C314.675 126.955 315.496 126.739 316.474 126.739C317.377 126.739 318.164 126.932 318.835 127.318C319.511 127.705 320.033 128.264 320.403 128.997C320.778 129.73 320.962 130.619 320.957 131.665V140H317.871V132.142C317.871 131.267 317.644 130.582 317.19 130.088C316.741 129.594 316.119 129.347 315.323 129.347C314.783 129.347 314.303 129.466 313.883 129.705C313.468 129.937 313.141 130.276 312.903 130.719C312.67 131.162 312.553 131.699 312.553 132.33ZM327.86 140.264C327.031 140.264 326.283 140.116 325.619 139.821C324.96 139.52 324.437 139.077 324.05 138.491C323.67 137.906 323.479 137.185 323.479 136.327C323.479 135.588 323.616 134.977 323.888 134.494C324.161 134.011 324.533 133.625 325.005 133.335C325.477 133.045 326.008 132.827 326.599 132.679C327.195 132.526 327.812 132.415 328.448 132.347C329.215 132.267 329.837 132.196 330.315 132.134C330.792 132.065 331.138 131.963 331.354 131.827C331.576 131.685 331.687 131.466 331.687 131.17V131.119C331.687 130.477 331.496 129.98 331.116 129.628C330.735 129.276 330.187 129.099 329.471 129.099C328.715 129.099 328.116 129.264 327.673 129.594C327.235 129.923 326.94 130.312 326.786 130.761L323.906 130.352C324.133 129.557 324.508 128.892 325.031 128.358C325.553 127.818 326.192 127.415 326.948 127.148C327.704 126.875 328.539 126.739 329.454 126.739C330.085 126.739 330.712 126.812 331.337 126.96C331.962 127.108 332.533 127.352 333.05 127.693C333.567 128.028 333.982 128.486 334.295 129.065C334.613 129.645 334.772 130.369 334.772 131.239V140H331.806V138.202H331.704C331.516 138.565 331.252 138.906 330.911 139.224C330.576 139.537 330.153 139.79 329.641 139.983C329.136 140.17 328.542 140.264 327.86 140.264ZM328.661 137.997C329.281 137.997 329.817 137.875 330.272 137.631C330.727 137.381 331.076 137.051 331.32 136.642C331.57 136.233 331.695 135.787 331.695 135.304V133.761C331.599 133.841 331.434 133.915 331.201 133.983C330.974 134.051 330.718 134.111 330.434 134.162C330.15 134.213 329.869 134.259 329.59 134.298C329.312 134.338 329.07 134.372 328.866 134.401C328.406 134.463 327.994 134.565 327.63 134.707C327.266 134.849 326.979 135.048 326.769 135.304C326.559 135.554 326.454 135.878 326.454 136.276C326.454 136.844 326.661 137.273 327.076 137.562C327.491 137.852 328.019 137.997 328.661 137.997ZM340.96 122.545V140H337.874V122.545H340.96ZM346.05 144.909C345.629 144.909 345.24 144.875 344.882 144.807C344.53 144.744 344.249 144.67 344.038 144.585L344.754 142.182C345.203 142.313 345.604 142.375 345.956 142.369C346.308 142.364 346.618 142.253 346.885 142.037C347.158 141.827 347.388 141.474 347.575 140.98L347.839 140.273L343.092 126.909H346.365L349.382 136.795H349.518L352.544 126.909H355.825L350.584 141.585C350.339 142.278 350.016 142.872 349.612 143.366C349.209 143.866 348.714 144.247 348.129 144.509C347.55 144.776 346.857 144.909 346.05 144.909ZM364.497 126.909V129.295H356.972V126.909H364.497ZM358.83 123.773H361.915V136.062C361.915 136.477 361.977 136.795 362.102 137.017C362.233 137.233 362.403 137.381 362.614 137.46C362.824 137.54 363.057 137.58 363.312 137.58C363.506 137.58 363.682 137.565 363.841 137.537C364.006 137.509 364.131 137.483 364.216 137.46L364.736 139.872C364.571 139.929 364.335 139.991 364.028 140.06C363.727 140.128 363.358 140.168 362.92 140.179C362.148 140.202 361.452 140.085 360.832 139.83C360.213 139.568 359.722 139.165 359.358 138.619C359 138.074 358.824 137.392 358.83 136.574V123.773ZM367.077 140V126.909H370.163V140H367.077ZM368.629 125.051C368.14 125.051 367.719 124.889 367.367 124.565C367.015 124.236 366.839 123.841 366.839 123.381C366.839 122.915 367.015 122.52 367.367 122.196C367.719 121.866 368.14 121.702 368.629 121.702C369.123 121.702 369.543 121.866 369.89 122.196C370.242 122.52 370.418 122.915 370.418 123.381C370.418 123.841 370.242 124.236 369.89 124.565C369.543 124.889 369.123 125.051 368.629 125.051ZM379.045 140.256C377.739 140.256 376.616 139.969 375.679 139.395C374.747 138.821 374.028 138.028 373.523 137.017C373.023 136 372.773 134.83 372.773 133.506C372.773 132.176 373.028 131.003 373.54 129.986C374.051 128.963 374.773 128.168 375.705 127.599C376.642 127.026 377.75 126.739 379.028 126.739C380.091 126.739 381.031 126.935 381.849 127.327C382.673 127.713 383.33 128.261 383.818 128.972C384.307 129.676 384.585 130.5 384.653 131.443H381.705C381.585 130.812 381.301 130.287 380.852 129.866C380.409 129.44 379.815 129.227 379.071 129.227C378.44 129.227 377.886 129.398 377.409 129.739C376.932 130.074 376.56 130.557 376.293 131.188C376.031 131.818 375.901 132.574 375.901 133.455C375.901 134.347 376.031 135.114 376.293 135.756C376.554 136.392 376.92 136.884 377.392 137.23C377.869 137.571 378.429 137.741 379.071 137.741C379.526 137.741 379.932 137.656 380.29 137.486C380.653 137.31 380.957 137.057 381.202 136.727C381.446 136.398 381.614 135.997 381.705 135.526H384.653C384.58 136.452 384.307 137.273 383.835 137.989C383.364 138.699 382.722 139.256 381.909 139.659C381.097 140.057 380.142 140.256 379.045 140.256ZM397.533 130.369L394.721 130.676C394.641 130.392 394.502 130.125 394.303 129.875C394.11 129.625 393.849 129.423 393.519 129.27C393.19 129.116 392.786 129.04 392.309 129.04C391.667 129.04 391.127 129.179 390.69 129.457C390.258 129.736 390.045 130.097 390.05 130.54C390.045 130.92 390.184 131.23 390.468 131.469C390.758 131.707 391.235 131.903 391.9 132.057L394.133 132.534C395.371 132.801 396.292 133.224 396.894 133.804C397.502 134.384 397.809 135.142 397.815 136.08C397.809 136.903 397.567 137.631 397.09 138.261C396.619 138.886 395.962 139.375 395.121 139.727C394.281 140.08 393.315 140.256 392.224 140.256C390.621 140.256 389.332 139.92 388.354 139.25C387.377 138.574 386.795 137.634 386.607 136.429L389.616 136.139C389.752 136.73 390.042 137.176 390.485 137.477C390.928 137.778 391.505 137.929 392.215 137.929C392.948 137.929 393.536 137.778 393.979 137.477C394.428 137.176 394.653 136.804 394.653 136.361C394.653 135.986 394.508 135.676 394.218 135.432C393.934 135.187 393.491 135 392.888 134.869L390.656 134.401C389.4 134.139 388.471 133.699 387.869 133.08C387.266 132.455 386.968 131.665 386.974 130.71C386.968 129.903 387.187 129.205 387.63 128.614C388.079 128.017 388.701 127.557 389.496 127.233C390.298 126.903 391.221 126.739 392.266 126.739C393.8 126.739 395.008 127.065 395.888 127.719C396.775 128.372 397.323 129.256 397.533 130.369Z" fill="#3A74B5"/>
</svg>
