<svg width="600" height="483" viewBox="0 0 600 483" fill="none" xmlns="http://www.w3.org/2000/svg">
<path d="M425 358V408H458.333L500 449.667V316.333L458.333 358H425ZM483.333 356.583V409.417L465.25 391.333H441.667V374.667H465.25L483.333 356.583ZM537.5 383C537.5 368.25 529 355.583 516.667 349.417V416.5C529 410.417 537.5 397.75 537.5 383ZM516.667 309.917V327.083C540.75 334.25 558.333 356.583 558.333 383C558.333 409.417 540.75 431.75 516.667 438.917V456.083C550.083 448.5 575 418.667 575 383C575 347.333 550.083 317.5 516.667 309.917Z" fill="#DBEAF6"/>
<path d="M500 120.833C513.833 120.833 525 109.667 525 95.8333V45.8333C525 32 513.833 20.8333 500 20.8333C486.167 20.8333 475 32 475 45.8333V95.8333C475 109.667 486.167 120.833 500 120.833ZM491.667 45.8333C491.667 41.25 495.417 37.5 500 37.5C504.583 37.5 508.333 41.25 508.333 45.8333V95.8333C508.333 100.417 504.583 104.167 500 104.167C495.417 104.167 491.667 100.417 491.667 95.8333V45.8333ZM541.667 95.8333C541.667 118.833 523 137.5 500 137.5C477 137.5 458.333 118.833 458.333 95.8333H441.667C441.667 125.25 463.417 149.417 491.667 153.5V179.167H508.333V153.5C536.583 149.417 558.333 125.25 558.333 95.8333H541.667Z" fill="#DBEAF6"/>
<path d="M71.3333 248.333C80.5 248.333 88 240.833 88 231.667C88 222.5 80.5 215 71.3333 215C62.1667 215 54.6667 222.5 54.6667 231.667C54.6667 240.833 62.1667 248.333 71.3333 248.333ZM80.75 257.5C77.6667 257 74.5833 256.667 71.3333 256.667C63.0833 256.667 55.25 258.417 48.1667 261.5C42 264.167 38 270.167 38 276.917V290H75.5V276.583C75.5 269.667 77.4167 263.167 80.75 257.5ZM204.667 248.333C213.833 248.333 221.333 240.833 221.333 231.667C221.333 222.5 213.833 215 204.667 215C195.5 215 188 222.5 188 231.667C188 240.833 195.5 248.333 204.667 248.333ZM238 276.917C238 270.167 234 264.167 227.833 261.5C220.75 258.417 212.917 256.667 204.667 256.667C201.417 256.667 198.333 257 195.25 257.5C198.583 263.167 200.5 269.667 200.5 276.583V290H238V276.917ZM173.333 253.75C163.583 249.417 151.583 246.25 138 246.25C124.417 246.25 112.417 249.5 102.667 253.75C93.6667 257.75 88 266.75 88 276.583V290H188V276.583C188 266.75 182.333 257.75 173.333 253.75ZM105.25 273.333C106 271.417 106.333 270.083 112.833 267.583C120.917 264.417 129.417 262.917 138 262.917C146.583 262.917 155.083 264.417 163.167 267.583C169.583 270.083 169.917 271.417 170.75 273.333H105.25ZM138 206.667C142.583 206.667 146.333 210.417 146.333 215C146.333 219.583 142.583 223.333 138 223.333C133.417 223.333 129.667 219.583 129.667 215C129.667 210.417 133.417 206.667 138 206.667ZM138 190C124.167 190 113 201.167 113 215C113 228.833 124.167 240 138 240C151.833 240 163 228.833 163 215C163 201.167 151.833 190 138 190Z" fill="#DBEAF6"/>
<g filter="url(#filter0_d_2077_29416)">
<rect x="38" y="48" width="296" height="64" rx="32" fill="white" shape-rendering="crispEdges"/>
<path d="M69.6667 95.8333H73V99.1666H69.6667V95.8333ZM78 80.8333C80.7667 80.8333 83 78.6 83 75.8333V65.8333C83 63.0666 80.7667 60.8333 78 60.8333C75.2334 60.8333 73 63.0666 73 65.8333V75.8333C73 78.6 75.2334 80.8333 78 80.8333ZM76.3334 65.8333C76.3334 64.9166 77.0834 64.1666 78 64.1666C78.9167 64.1666 79.6667 64.9166 79.6667 65.8333V75.8333C79.6667 76.7666 78.9334 77.5 78 77.5C77.0834 77.5 76.3334 76.75 76.3334 75.8333V65.8333ZM76.3334 95.8333H79.6667V99.1666H76.3334V95.8333ZM83 95.8333H86.3334V99.1666H83V95.8333ZM89.6667 75.8333H86.8334C86.8334 80.8333 82.6 84.3333 78 84.3333C73.4 84.3333 69.1667 80.8333 69.1667 75.8333H66.3334C66.3334 81.5166 70.8667 86.2166 76.3334 87.0333V92.5H79.6667V87.0333C85.1334 86.2166 89.6667 81.5166 89.6667 75.8333Z" fill="#1E75BA"/>
<path d="M107.598 87V72.4545H112.783C113.91 72.4545 114.845 72.6487 115.588 73.0369C116.336 73.4252 116.895 73.9626 117.264 74.6491C117.634 75.331 117.818 76.1193 117.818 77.0142C117.818 77.9044 117.631 78.688 117.257 79.3651C116.888 80.0374 116.329 80.5606 115.581 80.9347C114.838 81.3087 113.902 81.4957 112.776 81.4957H108.848V79.6065H112.577C113.287 79.6065 113.865 79.5047 114.31 79.3011C114.759 79.0975 115.089 78.8016 115.297 78.4134C115.505 78.0251 115.609 77.5587 115.609 77.0142C115.609 76.465 115.503 75.9891 115.29 75.5866C115.081 75.1842 114.752 74.8764 114.303 74.6634C113.857 74.4455 113.273 74.3366 112.548 74.3366H109.793V87H107.598ZM114.778 80.4375L118.372 87H115.872L112.349 80.4375H114.778ZM124.883 87.2202C123.808 87.2202 122.883 86.9905 122.106 86.5312C121.334 86.0672 120.738 85.4162 120.316 84.5781C119.9 83.7353 119.691 82.7481 119.691 81.6165C119.691 80.4991 119.9 79.5142 120.316 78.6619C120.738 77.8097 121.325 77.1444 122.078 76.6662C122.835 76.188 123.721 75.9489 124.734 75.9489C125.35 75.9489 125.946 76.0507 126.524 76.2543C127.101 76.4579 127.62 76.7775 128.079 77.2131C128.538 77.6487 128.901 78.2145 129.166 78.9105C129.431 79.6018 129.564 80.4422 129.564 81.4318V82.1847H120.892V80.5938H127.483C127.483 80.035 127.369 79.5402 127.142 79.1094C126.914 78.6738 126.595 78.3305 126.183 78.0795C125.776 77.8286 125.297 77.7031 124.748 77.7031C124.152 77.7031 123.631 77.8499 123.186 78.1435C122.745 78.4323 122.404 78.8111 122.163 79.2798C121.926 79.7438 121.808 80.2481 121.808 80.7926V82.0355C121.808 82.7647 121.936 83.3849 122.191 83.8963C122.452 84.4077 122.814 84.7983 123.278 85.0682C123.742 85.3333 124.284 85.4659 124.904 85.4659C125.307 85.4659 125.674 85.4091 126.005 85.2955C126.337 85.1771 126.623 85.0019 126.865 84.7699C127.106 84.5379 127.291 84.2514 127.419 83.9105L129.429 84.2727C129.268 84.8646 128.979 85.383 128.562 85.8281C128.15 86.2685 127.632 86.6117 127.007 86.858C126.386 87.0994 125.679 87.2202 124.883 87.2202ZM136.515 87.2202C135.459 87.2202 134.55 86.9811 133.788 86.5028C133.03 86.0199 132.448 85.3546 132.04 84.5071C131.633 83.6596 131.43 82.6889 131.43 81.5952C131.43 80.4872 131.638 79.5095 132.055 78.6619C132.471 77.8097 133.058 77.1444 133.816 76.6662C134.574 76.188 135.466 75.9489 136.494 75.9489C137.322 75.9489 138.061 76.1027 138.71 76.4105C139.358 76.7135 139.881 77.1397 140.279 77.6889C140.682 78.2382 140.921 78.8797 140.996 79.6136H138.93C138.816 79.1023 138.556 78.6619 138.148 78.2926C137.746 77.9233 137.206 77.7386 136.529 77.7386C135.937 77.7386 135.419 77.8949 134.974 78.2074C134.533 78.5152 134.19 78.9555 133.944 79.5284C133.698 80.0966 133.575 80.7689 133.575 81.5455C133.575 82.3409 133.695 83.0275 133.937 83.6051C134.178 84.1828 134.519 84.6302 134.96 84.9474C135.405 85.2647 135.928 85.4233 136.529 85.4233C136.932 85.4233 137.296 85.3499 137.623 85.2031C137.954 85.0516 138.231 84.8362 138.454 84.5568C138.681 84.2775 138.84 83.9413 138.93 83.5483H140.996C140.921 84.2538 140.691 84.8835 140.308 85.4375C139.924 85.9915 139.41 86.4271 138.766 86.7443C138.127 87.0616 137.377 87.2202 136.515 87.2202ZM147.863 87.2202C146.84 87.2202 145.947 86.9858 145.185 86.517C144.423 86.0483 143.831 85.3925 143.409 84.5497C142.988 83.7069 142.777 82.7221 142.777 81.5952C142.777 80.4635 142.988 79.474 143.409 78.6264C143.831 77.7789 144.423 77.1207 145.185 76.652C145.947 76.1832 146.84 75.9489 147.863 75.9489C148.885 75.9489 149.778 76.1832 150.54 76.652C151.302 77.1207 151.894 77.7789 152.316 78.6264C152.737 79.474 152.948 80.4635 152.948 81.5952C152.948 82.7221 152.737 83.7069 152.316 84.5497C151.894 85.3925 151.302 86.0483 150.54 86.517C149.778 86.9858 148.885 87.2202 147.863 87.2202ZM147.87 85.4375C148.533 85.4375 149.082 85.2623 149.517 84.9119C149.953 84.5616 150.275 84.0952 150.483 83.5128C150.696 82.9304 150.803 82.2888 150.803 81.5881C150.803 80.892 150.696 80.2528 150.483 79.6705C150.275 79.0833 149.953 78.6122 149.517 78.2571C149.082 77.902 148.533 77.7244 147.87 77.7244C147.202 77.7244 146.648 77.902 146.208 78.2571C145.772 78.6122 145.448 79.0833 145.235 79.6705C145.026 80.2528 144.922 80.892 144.922 81.5881C144.922 82.2888 145.026 82.9304 145.235 83.5128C145.448 84.0952 145.772 84.5616 146.208 84.9119C146.648 85.2623 147.202 85.4375 147.87 85.4375ZM155.318 87V76.0909H157.371V77.8239H157.484C157.683 77.2367 158.034 76.7751 158.536 76.4389C159.042 76.098 159.615 75.9276 160.254 75.9276C160.387 75.9276 160.543 75.9323 160.723 75.9418C160.908 75.9512 161.052 75.9631 161.156 75.9773V78.0085C161.071 77.9848 160.92 77.9588 160.702 77.9304C160.484 77.8973 160.266 77.8807 160.048 77.8807C159.546 77.8807 159.099 77.9872 158.706 78.2003C158.318 78.4086 158.01 78.6998 157.783 79.0739C157.555 79.4432 157.442 79.8646 157.442 80.3381V87H155.318ZM166.687 87.2131C165.806 87.2131 165.02 86.9882 164.329 86.5384C163.643 86.0838 163.103 85.4375 162.71 84.5994C162.322 83.7566 162.127 82.7457 162.127 81.5668C162.127 80.3878 162.324 79.3793 162.717 78.5412C163.115 77.7031 163.659 77.0616 164.35 76.6165C165.042 76.1714 165.825 75.9489 166.701 75.9489C167.378 75.9489 167.923 76.0625 168.335 76.2898C168.752 76.5123 169.074 76.7727 169.301 77.071C169.533 77.3693 169.713 77.6321 169.841 77.8594H169.968V72.4545H172.092V87H170.018V85.3026H169.841C169.713 85.5346 169.528 85.7997 169.287 86.098C169.05 86.3963 168.723 86.6567 168.306 86.8793C167.89 87.1018 167.35 87.2131 166.687 87.2131ZM167.156 85.402C167.767 85.402 168.283 85.241 168.704 84.919C169.13 84.5923 169.452 84.1402 169.67 83.5625C169.893 82.9848 170.004 82.3125 170.004 81.5455C170.004 80.7879 169.895 80.125 169.677 79.5568C169.459 78.9886 169.14 78.5459 168.718 78.2287C168.297 77.9115 167.776 77.7528 167.156 77.7528C166.517 77.7528 165.984 77.9186 165.558 78.25C165.132 78.5814 164.81 79.0336 164.592 79.6065C164.379 80.1795 164.272 80.8258 164.272 81.5455C164.272 82.2746 164.381 82.9304 164.599 83.5128C164.817 84.0952 165.139 84.5568 165.565 84.8977C165.996 85.2339 166.526 85.402 167.156 85.402ZM181.758 91.0909C181.441 91.0909 181.152 91.0649 180.892 91.0128C180.631 90.9654 180.437 90.9134 180.309 90.8565L180.821 89.1165C181.209 89.2206 181.555 89.2656 181.858 89.2514C182.161 89.2372 182.428 89.1236 182.66 88.9105C182.897 88.6974 183.105 88.3494 183.285 87.8665L183.548 87.142L179.556 76.0909H181.829L184.592 84.5568H184.706L187.468 76.0909H189.748L185.252 88.456C185.044 89.0241 184.779 89.5047 184.457 89.8977C184.135 90.2955 183.752 90.5938 183.306 90.7926C182.861 90.9915 182.345 91.0909 181.758 91.0909ZM195.968 87.2202C194.945 87.2202 194.053 86.9858 193.29 86.517C192.528 86.0483 191.936 85.3925 191.515 84.5497C191.094 83.7069 190.883 82.7221 190.883 81.5952C190.883 80.4635 191.094 79.474 191.515 78.6264C191.936 77.7789 192.528 77.1207 193.29 76.652C194.053 76.1832 194.945 75.9489 195.968 75.9489C196.991 75.9489 197.883 76.1832 198.646 76.652C199.408 77.1207 200 77.7789 200.421 78.6264C200.843 79.474 201.053 80.4635 201.053 81.5952C201.053 82.7221 200.843 83.7069 200.421 84.5497C200 85.3925 199.408 86.0483 198.646 86.517C197.883 86.9858 196.991 87.2202 195.968 87.2202ZM195.975 85.4375C196.638 85.4375 197.187 85.2623 197.623 84.9119C198.058 84.5616 198.38 84.0952 198.589 83.5128C198.802 82.9304 198.908 82.2888 198.908 81.5881C198.908 80.892 198.802 80.2528 198.589 79.6705C198.38 79.0833 198.058 78.6122 197.623 78.2571C197.187 77.902 196.638 77.7244 195.975 77.7244C195.308 77.7244 194.754 77.902 194.313 78.2571C193.878 78.6122 193.553 79.0833 193.34 79.6705C193.132 80.2528 193.028 80.892 193.028 81.5881C193.028 82.2888 193.132 82.9304 193.34 83.5128C193.553 84.0952 193.878 84.5616 194.313 84.9119C194.754 85.2623 195.308 85.4375 195.975 85.4375ZM210.334 82.4759V76.0909H212.465V87H210.377V85.1108H210.263C210.012 85.6932 209.61 86.1785 209.056 86.5668C208.507 86.9503 207.822 87.142 207.003 87.142C206.302 87.142 205.682 86.9882 205.142 86.6804C204.607 86.3679 204.186 85.9062 203.878 85.2955C203.575 84.6847 203.424 83.9295 203.424 83.0298V76.0909H205.547V82.7741C205.547 83.5175 205.753 84.1094 206.165 84.5497C206.577 84.9901 207.112 85.2102 207.77 85.2102C208.168 85.2102 208.563 85.1108 208.956 84.9119C209.354 84.7131 209.683 84.4124 209.944 84.0099C210.209 83.6075 210.339 83.0961 210.334 82.4759ZM215.318 87V76.0909H217.371V77.8239H217.484C217.683 77.2367 218.034 76.7751 218.536 76.4389C219.042 76.098 219.615 75.9276 220.254 75.9276C220.387 75.9276 220.543 75.9323 220.723 75.9418C220.908 75.9512 221.052 75.9631 221.156 75.9773V78.0085C221.071 77.9848 220.92 77.9588 220.702 77.9304C220.484 77.8973 220.266 77.8807 220.048 77.8807C219.546 77.8807 219.099 77.9872 218.706 78.2003C218.318 78.4086 218.01 78.6998 217.783 79.0739C217.555 79.4432 217.442 79.8646 217.442 80.3381V87H215.318ZM228.457 72.4545H231.121L235.751 83.7614H235.922L240.553 72.4545H243.216V87H241.128V76.4744H240.993L236.703 86.9787H234.97L230.68 76.4673H230.545V87H228.457V72.4545ZM250.938 87.2202C249.863 87.2202 248.937 86.9905 248.161 86.5312C247.389 86.0672 246.792 85.4162 246.371 84.5781C245.954 83.7353 245.746 82.7481 245.746 81.6165C245.746 80.4991 245.954 79.5142 246.371 78.6619C246.792 77.8097 247.38 77.1444 248.132 76.6662C248.89 76.188 249.775 75.9489 250.789 75.9489C251.404 75.9489 252.001 76.0507 252.578 76.2543C253.156 76.4579 253.675 76.7775 254.134 77.2131C254.593 77.6487 254.955 78.2145 255.221 78.9105C255.486 79.6018 255.618 80.4422 255.618 81.4318V82.1847H246.946V80.5938H253.537C253.537 80.035 253.424 79.5402 253.196 79.1094C252.969 78.6738 252.65 78.3305 252.238 78.0795C251.83 77.8286 251.352 77.7031 250.803 77.7031C250.206 77.7031 249.685 77.8499 249.24 78.1435C248.8 78.4323 248.459 78.8111 248.218 79.2798C247.981 79.7438 247.863 80.2481 247.863 80.7926V82.0355C247.863 82.7647 247.99 83.3849 248.246 83.8963C248.507 84.4077 248.869 84.7983 249.333 85.0682C249.797 85.3333 250.339 85.4659 250.959 85.4659C251.362 85.4659 251.729 85.4091 252.06 85.2955C252.391 85.1771 252.678 85.0019 252.919 84.7699C253.161 84.5379 253.346 84.2514 253.473 83.9105L255.483 84.2727C255.322 84.8646 255.033 85.383 254.617 85.8281C254.205 86.2685 253.686 86.6117 253.061 86.858C252.441 87.0994 251.733 87.2202 250.938 87.2202ZM266.149 78.7543L264.224 79.0952C264.144 78.849 264.016 78.6146 263.841 78.392C263.67 78.1695 263.438 77.9872 263.145 77.8452C262.851 77.7031 262.484 77.6321 262.044 77.6321C261.443 77.6321 260.941 77.767 260.538 78.0369C260.136 78.3021 259.935 78.6454 259.935 79.0668C259.935 79.4313 260.07 79.7249 260.339 79.9474C260.609 80.17 261.045 80.3523 261.646 80.4943L263.379 80.892C264.383 81.1241 265.131 81.4815 265.624 81.9645C266.116 82.4474 266.362 83.0748 266.362 83.8466C266.362 84.5 266.173 85.0824 265.794 85.5938C265.42 86.1004 264.897 86.4981 264.224 86.7869C263.557 87.0758 262.783 87.2202 261.902 87.2202C260.68 87.2202 259.684 86.9598 258.912 86.4389C258.14 85.9134 257.667 85.1676 257.491 84.2017L259.544 83.8892C259.672 84.4242 259.935 84.8291 260.332 85.1037C260.73 85.3736 261.249 85.5085 261.888 85.5085C262.584 85.5085 263.14 85.3641 263.557 85.0753C263.973 84.7817 264.182 84.4242 264.182 84.0028C264.182 83.6619 264.054 83.3755 263.798 83.1435C263.547 82.9115 263.161 82.7363 262.641 82.6179L260.794 82.2131C259.776 81.9811 259.023 81.6117 258.536 81.1051C258.053 80.5985 257.811 79.9569 257.811 79.1804C257.811 78.5365 257.991 77.973 258.351 77.4901C258.711 77.0071 259.208 76.6307 259.842 76.3608C260.477 76.0862 261.204 75.9489 262.023 75.9489C263.202 75.9489 264.13 76.2045 264.807 76.7159C265.484 77.2225 265.931 77.902 266.149 78.7543ZM276.872 78.7543L274.947 79.0952C274.867 78.849 274.739 78.6146 274.564 78.392C274.393 78.1695 274.161 77.9872 273.868 77.8452C273.574 77.7031 273.207 77.6321 272.767 77.6321C272.165 77.6321 271.663 77.767 271.261 78.0369C270.859 78.3021 270.657 78.6454 270.657 79.0668C270.657 79.4313 270.792 79.7249 271.062 79.9474C271.332 80.17 271.768 80.3523 272.369 80.4943L274.102 80.892C275.106 81.1241 275.854 81.4815 276.346 81.9645C276.839 82.4474 277.085 83.0748 277.085 83.8466C277.085 84.5 276.895 85.0824 276.517 85.5938C276.143 86.1004 275.619 86.4981 274.947 86.7869C274.279 87.0758 273.505 87.2202 272.625 87.2202C271.403 87.2202 270.406 86.9598 269.635 86.4389C268.863 85.9134 268.389 85.1676 268.214 84.2017L270.267 83.8892C270.395 84.4242 270.657 84.8291 271.055 85.1037C271.453 85.3736 271.971 85.5085 272.61 85.5085C273.306 85.5085 273.863 85.3641 274.279 85.0753C274.696 84.7817 274.904 84.4242 274.904 84.0028C274.904 83.6619 274.777 83.3755 274.521 83.1435C274.27 82.9115 273.884 82.7363 273.363 82.6179L271.517 82.2131C270.499 81.9811 269.746 81.6117 269.258 81.1051C268.775 80.5985 268.534 79.9569 268.534 79.1804C268.534 78.5365 268.714 77.973 269.074 77.4901C269.433 77.0071 269.931 76.6307 270.565 76.3608C271.199 76.0862 271.926 75.9489 272.745 75.9489C273.924 75.9489 274.852 76.2045 275.529 76.7159C276.207 77.2225 276.654 77.902 276.872 78.7543ZM282.594 87.2415C281.903 87.2415 281.278 87.1136 280.719 86.858C280.161 86.5975 279.718 86.2211 279.391 85.7287C279.069 85.2363 278.908 84.6326 278.908 83.9176C278.908 83.3021 279.027 82.7955 279.263 82.3977C279.5 82 279.82 81.6851 280.222 81.4531C280.625 81.2211 281.075 81.0459 281.572 80.9276C282.069 80.8092 282.576 80.7192 283.092 80.6577C283.745 80.5819 284.275 80.5204 284.683 80.473C285.09 80.4209 285.386 80.3381 285.57 80.2244C285.755 80.1108 285.847 79.9261 285.847 79.6705V79.6207C285.847 79.0005 285.672 78.5199 285.322 78.179C284.976 77.8381 284.46 77.6676 283.773 77.6676C283.058 77.6676 282.495 77.8262 282.083 78.1435C281.676 78.456 281.394 78.804 281.238 79.1875L279.242 78.733C279.479 78.0701 279.825 77.535 280.279 77.1278C280.738 76.7159 281.266 76.4176 281.863 76.233C282.46 76.0436 283.087 75.9489 283.745 75.9489C284.181 75.9489 284.642 76.0009 285.13 76.1051C285.622 76.2045 286.082 76.3892 286.508 76.6591C286.939 76.929 287.291 77.3149 287.566 77.8168C287.841 78.3139 287.978 78.9602 287.978 79.7557V87H285.904V85.5085H285.819C285.682 85.7831 285.476 86.053 285.201 86.3182C284.926 86.5833 284.574 86.8035 284.143 86.9787C283.712 87.1539 283.196 87.2415 282.594 87.2415ZM283.056 85.5369C283.643 85.5369 284.145 85.4209 284.562 85.1889C284.983 84.9569 285.303 84.6539 285.521 84.2798C285.743 83.901 285.854 83.4962 285.854 83.0653V81.6591C285.779 81.7348 285.632 81.8059 285.414 81.8722C285.201 81.9337 284.957 81.9882 284.683 82.0355C284.408 82.0781 284.14 82.1184 283.88 82.1562C283.62 82.1894 283.402 82.2178 283.227 82.2415C282.815 82.2936 282.438 82.3812 282.097 82.5043C281.761 82.6274 281.491 82.8049 281.288 83.0369C281.089 83.2642 280.989 83.5672 280.989 83.946C280.989 84.4716 281.183 84.8693 281.572 85.1392C281.96 85.4044 282.455 85.5369 283.056 85.5369ZM295.38 91.3182C294.514 91.3182 293.768 91.2045 293.143 90.9773C292.523 90.75 292.016 90.4493 291.623 90.0753C291.23 89.7012 290.937 89.2917 290.743 88.8466L292.568 88.0938C292.696 88.3021 292.866 88.5223 293.079 88.7543C293.297 88.991 293.591 89.1922 293.96 89.358C294.334 89.5237 294.815 89.6065 295.402 89.6065C296.207 89.6065 296.872 89.41 297.397 89.017C297.923 88.6288 298.186 88.0085 298.186 87.1562V85.0114H298.051C297.923 85.2434 297.738 85.5014 297.497 85.7855C297.26 86.0696 296.933 86.3158 296.517 86.5241C296.1 86.7325 295.558 86.8366 294.89 86.8366C294.029 86.8366 293.252 86.6354 292.561 86.233C291.874 85.8258 291.33 85.2268 290.927 84.4361C290.529 83.6406 290.331 82.6629 290.331 81.5028C290.331 80.3428 290.527 79.3485 290.92 78.5199C291.318 77.6913 291.862 77.0568 292.554 76.6165C293.245 76.1714 294.029 75.9489 294.904 75.9489C295.582 75.9489 296.128 76.0625 296.545 76.2898C296.962 76.5123 297.286 76.7727 297.518 77.071C297.755 77.3693 297.937 77.6321 298.065 77.8594H298.221V76.0909H300.302V87.2415C300.302 88.179 300.084 88.9484 299.649 89.5497C299.213 90.151 298.624 90.5961 297.88 90.8849C297.142 91.1738 296.308 91.3182 295.38 91.3182ZM295.359 85.0753C295.97 85.0753 296.486 84.9332 296.907 84.6491C297.333 84.3603 297.655 83.9484 297.873 83.4134C298.096 82.8736 298.207 82.2273 298.207 81.4744C298.207 80.7405 298.098 80.0942 297.88 79.5355C297.663 78.9768 297.343 78.5412 296.922 78.2287C296.5 77.9115 295.979 77.7528 295.359 77.7528C294.72 77.7528 294.187 77.9186 293.761 78.25C293.335 78.5767 293.013 79.0218 292.795 79.5852C292.582 80.1487 292.475 80.7784 292.475 81.4744C292.475 82.1894 292.584 82.8168 292.802 83.3565C293.02 83.8963 293.342 84.3177 293.768 84.6207C294.199 84.9238 294.729 85.0753 295.359 85.0753ZM307.852 87.2202C306.777 87.2202 305.851 86.9905 305.075 86.5312C304.303 86.0672 303.707 85.4162 303.285 84.5781C302.868 83.7353 302.66 82.7481 302.66 81.6165C302.66 80.4991 302.868 79.5142 303.285 78.6619C303.707 77.8097 304.294 77.1444 305.047 76.6662C305.804 76.188 306.69 75.9489 307.703 75.9489C308.318 75.9489 308.915 76.0507 309.493 76.2543C310.07 76.4579 310.589 76.7775 311.048 77.2131C311.507 77.6487 311.869 78.2145 312.135 78.9105C312.4 79.6018 312.532 80.4422 312.532 81.4318V82.1847H303.86V80.5938H310.451C310.451 80.035 310.338 79.5402 310.11 79.1094C309.883 78.6738 309.564 78.3305 309.152 78.0795C308.744 77.8286 308.266 77.7031 307.717 77.7031C307.12 77.7031 306.6 77.8499 306.154 78.1435C305.714 78.4323 305.373 78.8111 305.132 79.2798C304.895 79.7438 304.777 80.2481 304.777 80.7926V82.0355C304.777 82.7647 304.904 83.3849 305.16 83.8963C305.421 84.4077 305.783 84.7983 306.247 85.0682C306.711 85.3333 307.253 85.4659 307.873 85.4659C308.276 85.4659 308.643 85.4091 308.974 85.2955C309.306 85.1771 309.592 85.0019 309.833 84.7699C310.075 84.5379 310.26 84.2514 310.387 83.9105L312.397 84.2727C312.236 84.8646 311.948 85.383 311.531 85.8281C311.119 86.2685 310.6 86.6117 309.975 86.858C309.355 87.0994 308.647 87.2202 307.852 87.2202Z" fill="#3F4346"/>
</g>
<g filter="url(#filter1_d_2077_29416)">
<rect x="165" y="208" width="393" height="64" rx="32" fill="white" shape-rendering="crispEdges"/>
<path d="M221.667 235V231.667H218.333V235H215V238.333H218.333V241.667H221.667V238.333H225V235H221.667Z" fill="#1E75BA"/>
<path d="M198.333 240C202.017 240 205 237.017 205 233.333C205 229.65 202.017 226.667 198.333 226.667C194.65 226.667 191.667 229.65 191.667 233.333C191.667 237.017 194.65 240 198.333 240ZM198.333 230C200.167 230 201.667 231.5 201.667 233.333C201.667 235.167 200.167 236.667 198.333 236.667C196.5 236.667 195 235.167 195 233.333C195 231.5 196.5 230 198.333 230Z" fill="#1E75BA"/>
<path d="M198.333 241.667C193.883 241.667 185 243.9 185 248.333V253.333H211.667V248.333C211.667 243.9 202.783 241.667 198.333 241.667ZM208.333 250H188.333V248.35C188.667 247.15 193.833 245 198.333 245C202.833 245 208 247.15 208.333 248.333V250Z" fill="#1E75BA"/>
<path d="M205.85 226.75C207.383 228.517 208.333 230.817 208.333 233.333C208.333 235.85 207.383 238.15 205.85 239.917C209.117 239.5 211.667 236.733 211.667 233.333C211.667 229.933 209.117 227.167 205.85 226.75Z" fill="#1E75BA"/>
<path d="M212.55 243.05C214.033 244.433 215 246.167 215 248.333V253.333H218.333V248.333C218.333 245.917 215.683 244.15 212.55 243.05Z" fill="#1E75BA"/>
<path d="M235.827 247H233.497L238.732 232.455H241.267L246.501 247H244.172L240.06 235.097H239.946L235.827 247ZM236.217 241.304H243.774V243.151H236.217V241.304ZM252.339 247.213C251.459 247.213 250.673 246.988 249.982 246.538C249.295 246.084 248.755 245.437 248.362 244.599C247.974 243.757 247.78 242.746 247.78 241.567C247.78 240.388 247.976 239.379 248.369 238.541C248.767 237.703 249.312 237.062 250.003 236.616C250.694 236.171 251.478 235.949 252.354 235.949C253.031 235.949 253.575 236.062 253.987 236.29C254.404 236.512 254.726 236.773 254.953 237.071C255.185 237.369 255.365 237.632 255.493 237.859H255.621V232.455H257.744V247H255.67V245.303H255.493C255.365 245.535 255.18 245.8 254.939 246.098C254.702 246.396 254.375 246.657 253.959 246.879C253.542 247.102 253.002 247.213 252.339 247.213ZM252.808 245.402C253.419 245.402 253.935 245.241 254.357 244.919C254.783 244.592 255.105 244.14 255.322 243.562C255.545 242.985 255.656 242.312 255.656 241.545C255.656 240.788 255.547 240.125 255.33 239.557C255.112 238.989 254.792 238.546 254.371 238.229C253.949 237.911 253.429 237.753 252.808 237.753C252.169 237.753 251.636 237.919 251.21 238.25C250.784 238.581 250.462 239.034 250.244 239.607C250.031 240.179 249.925 240.826 249.925 241.545C249.925 242.275 250.034 242.93 250.251 243.513C250.469 244.095 250.791 244.557 251.217 244.898C251.648 245.234 252.179 245.402 252.808 245.402ZM264.859 247.213C263.978 247.213 263.192 246.988 262.501 246.538C261.815 246.084 261.275 245.437 260.882 244.599C260.493 243.757 260.299 242.746 260.299 241.567C260.299 240.388 260.496 239.379 260.889 238.541C261.287 237.703 261.831 237.062 262.522 236.616C263.214 236.171 263.997 235.949 264.873 235.949C265.55 235.949 266.095 236.062 266.507 236.29C266.923 236.512 267.245 236.773 267.473 237.071C267.705 237.369 267.885 237.632 268.012 237.859H268.14V232.455H270.264V247H268.19V245.303H268.012C267.885 245.535 267.7 245.8 267.458 246.098C267.222 246.396 266.895 246.657 266.478 246.879C266.062 247.102 265.522 247.213 264.859 247.213ZM265.328 245.402C265.939 245.402 266.455 245.241 266.876 244.919C267.302 244.592 267.624 244.14 267.842 243.562C268.065 242.985 268.176 242.312 268.176 241.545C268.176 240.788 268.067 240.125 267.849 239.557C267.631 238.989 267.312 238.546 266.89 238.229C266.469 237.911 265.948 237.753 265.328 237.753C264.689 237.753 264.156 237.919 263.73 238.25C263.304 238.581 262.982 239.034 262.764 239.607C262.551 240.179 262.444 240.826 262.444 241.545C262.444 242.275 262.553 242.93 262.771 243.513C262.989 244.095 263.311 244.557 263.737 244.898C264.168 245.234 264.698 245.402 265.328 245.402ZM278.835 231.773L274.147 249.188H272.251L276.938 231.773H278.835ZM288.813 238.754L286.888 239.095C286.808 238.849 286.68 238.615 286.505 238.392C286.335 238.17 286.103 237.987 285.809 237.845C285.515 237.703 285.148 237.632 284.708 237.632C284.107 237.632 283.605 237.767 283.202 238.037C282.8 238.302 282.599 238.645 282.599 239.067C282.599 239.431 282.734 239.725 283.004 239.947C283.273 240.17 283.709 240.352 284.31 240.494L286.043 240.892C287.047 241.124 287.795 241.482 288.288 241.964C288.78 242.447 289.026 243.075 289.026 243.847C289.026 244.5 288.837 245.082 288.458 245.594C288.084 246.1 287.561 246.498 286.888 246.787C286.221 247.076 285.447 247.22 284.566 247.22C283.344 247.22 282.348 246.96 281.576 246.439C280.804 245.913 280.331 245.168 280.156 244.202L282.208 243.889C282.336 244.424 282.599 244.829 282.996 245.104C283.394 245.374 283.913 245.509 284.552 245.509C285.248 245.509 285.804 245.364 286.221 245.075C286.638 244.782 286.846 244.424 286.846 244.003C286.846 243.662 286.718 243.375 286.462 243.143C286.211 242.911 285.826 242.736 285.305 242.618L283.458 242.213C282.44 241.981 281.687 241.612 281.2 241.105C280.717 240.598 280.475 239.957 280.475 239.18C280.475 238.536 280.655 237.973 281.015 237.49C281.375 237.007 281.872 236.631 282.506 236.361C283.141 236.086 283.868 235.949 284.687 235.949C285.866 235.949 286.794 236.205 287.471 236.716C288.148 237.223 288.595 237.902 288.813 238.754ZM296.063 247.22C294.988 247.22 294.062 246.991 293.286 246.531C292.514 246.067 291.917 245.416 291.496 244.578C291.079 243.735 290.871 242.748 290.871 241.616C290.871 240.499 291.079 239.514 291.496 238.662C291.917 237.81 292.505 237.144 293.257 236.666C294.015 236.188 294.9 235.949 295.914 235.949C296.529 235.949 297.126 236.051 297.703 236.254C298.281 236.458 298.8 236.777 299.259 237.213C299.718 237.649 300.08 238.214 300.346 238.911C300.611 239.602 300.743 240.442 300.743 241.432V242.185H292.071V240.594H298.662C298.662 240.035 298.549 239.54 298.321 239.109C298.094 238.674 297.775 238.33 297.363 238.08C296.955 237.829 296.477 237.703 295.928 237.703C295.331 237.703 294.81 237.85 294.365 238.143C293.925 238.432 293.584 238.811 293.343 239.28C293.106 239.744 292.988 240.248 292.988 240.793V242.036C292.988 242.765 293.115 243.385 293.371 243.896C293.632 244.408 293.994 244.798 294.458 245.068C294.922 245.333 295.464 245.466 296.084 245.466C296.487 245.466 296.854 245.409 297.185 245.295C297.516 245.177 297.803 245.002 298.044 244.77C298.286 244.538 298.471 244.251 298.598 243.911L300.608 244.273C300.447 244.865 300.158 245.383 299.742 245.828C299.33 246.268 298.811 246.612 298.186 246.858C297.566 247.099 296.858 247.22 296.063 247.22ZM305.223 232.455V247H303.099V232.455H305.223ZM312.782 247.22C311.707 247.22 310.781 246.991 310.005 246.531C309.233 246.067 308.636 245.416 308.215 244.578C307.798 243.735 307.59 242.748 307.59 241.616C307.59 240.499 307.798 239.514 308.215 238.662C308.636 237.81 309.223 237.144 309.976 236.666C310.734 236.188 311.619 235.949 312.632 235.949C313.248 235.949 313.845 236.051 314.422 236.254C315 236.458 315.518 236.777 315.978 237.213C316.437 237.649 316.799 238.214 317.064 238.911C317.329 239.602 317.462 240.442 317.462 241.432V242.185H308.79V240.594H315.381C315.381 240.035 315.267 239.54 315.04 239.109C314.813 238.674 314.493 238.33 314.081 238.08C313.674 237.829 313.196 237.703 312.647 237.703C312.05 237.703 311.529 237.85 311.084 238.143C310.644 238.432 310.303 238.811 310.061 239.28C309.825 239.744 309.706 240.248 309.706 240.793V242.036C309.706 242.765 309.834 243.385 310.09 243.896C310.35 244.408 310.712 244.798 311.176 245.068C311.641 245.333 312.183 245.466 312.803 245.466C313.205 245.466 313.572 245.409 313.904 245.295C314.235 245.177 314.522 245.002 314.763 244.77C315.005 244.538 315.189 244.251 315.317 243.911L317.327 244.273C317.166 244.865 316.877 245.383 316.461 245.828C316.049 246.268 315.53 246.612 314.905 246.858C314.285 247.099 313.577 247.22 312.782 247.22ZM324.413 247.22C323.357 247.22 322.448 246.981 321.686 246.503C320.929 246.02 320.346 245.355 319.939 244.507C319.532 243.66 319.328 242.689 319.328 241.595C319.328 240.487 319.536 239.509 319.953 238.662C320.37 237.81 320.957 237.144 321.714 236.666C322.472 236.188 323.365 235.949 324.392 235.949C325.221 235.949 325.959 236.103 326.608 236.411C327.257 236.714 327.78 237.14 328.178 237.689C328.58 238.238 328.819 238.88 328.895 239.614H326.828C326.714 239.102 326.454 238.662 326.047 238.293C325.644 237.923 325.105 237.739 324.428 237.739C323.836 237.739 323.317 237.895 322.872 238.207C322.432 238.515 322.089 238.955 321.842 239.528C321.596 240.097 321.473 240.769 321.473 241.545C321.473 242.341 321.594 243.027 321.835 243.605C322.077 244.183 322.418 244.63 322.858 244.947C323.303 245.265 323.826 245.423 324.428 245.423C324.83 245.423 325.195 245.35 325.521 245.203C325.853 245.052 326.13 244.836 326.352 244.557C326.58 244.277 326.738 243.941 326.828 243.548H328.895C328.819 244.254 328.589 244.884 328.206 245.438C327.822 245.991 327.309 246.427 326.665 246.744C326.026 247.062 325.275 247.22 324.413 247.22ZM336.258 236.091V237.795H330.299V236.091H336.258ZM331.897 233.477H334.021V243.797C334.021 244.209 334.083 244.519 334.206 244.727C334.329 244.931 334.487 245.071 334.681 245.146C334.88 245.217 335.096 245.253 335.328 245.253C335.498 245.253 335.647 245.241 335.775 245.217C335.903 245.194 336.002 245.175 336.074 245.161L336.457 246.915C336.334 246.962 336.159 247.009 335.931 247.057C335.704 247.109 335.42 247.137 335.079 247.142C334.52 247.152 334 247.052 333.517 246.844C333.034 246.635 332.643 246.313 332.345 245.878C332.047 245.442 331.897 244.895 331.897 244.237V233.477ZM344.071 247V232.455H349.255C350.382 232.455 351.317 232.649 352.061 233.037C352.809 233.425 353.368 233.963 353.737 234.649C354.106 235.331 354.291 236.119 354.291 237.014C354.291 237.904 354.104 238.688 353.73 239.365C353.36 240.037 352.802 240.561 352.054 240.935C351.31 241.309 350.375 241.496 349.248 241.496H345.321V239.607H349.049C349.76 239.607 350.337 239.505 350.782 239.301C351.232 239.098 351.561 238.802 351.77 238.413C351.978 238.025 352.082 237.559 352.082 237.014C352.082 236.465 351.975 235.989 351.762 235.587C351.554 235.184 351.225 234.876 350.775 234.663C350.33 234.446 349.745 234.337 349.021 234.337H346.265V247H344.071ZM351.251 240.438L354.845 247H352.345L348.822 240.438H351.251ZM361.356 247.22C360.281 247.22 359.355 246.991 358.579 246.531C357.807 246.067 357.21 245.416 356.789 244.578C356.372 243.735 356.164 242.748 356.164 241.616C356.164 240.499 356.372 239.514 356.789 238.662C357.21 237.81 357.798 237.144 358.55 236.666C359.308 236.188 360.193 235.949 361.207 235.949C361.822 235.949 362.419 236.051 362.996 236.254C363.574 236.458 364.093 236.777 364.552 237.213C365.011 237.649 365.373 238.214 365.638 238.911C365.904 239.602 366.036 240.442 366.036 241.432V242.185H357.364V240.594H363.955C363.955 240.035 363.842 239.54 363.614 239.109C363.387 238.674 363.067 238.33 362.656 238.08C362.248 237.829 361.77 237.703 361.221 237.703C360.624 237.703 360.103 237.85 359.658 238.143C359.218 238.432 358.877 238.811 358.636 239.28C358.399 239.744 358.281 240.248 358.281 240.793V242.036C358.281 242.765 358.408 243.385 358.664 243.896C358.924 244.408 359.287 244.798 359.751 245.068C360.215 245.333 360.757 245.466 361.377 245.466C361.78 245.466 362.147 245.409 362.478 245.295C362.809 245.177 363.096 245.002 363.337 244.77C363.579 244.538 363.763 244.251 363.891 243.911L365.901 244.273C365.74 244.865 365.451 245.383 365.035 245.828C364.623 246.268 364.104 246.612 363.479 246.858C362.859 247.099 362.151 247.22 361.356 247.22ZM372.988 247.22C371.932 247.22 371.023 246.981 370.26 246.503C369.503 246.02 368.92 245.355 368.513 244.507C368.106 243.66 367.902 242.689 367.902 241.595C367.902 240.487 368.111 239.509 368.527 238.662C368.944 237.81 369.531 237.144 370.289 236.666C371.046 236.188 371.939 235.949 372.966 235.949C373.795 235.949 374.533 236.103 375.182 236.411C375.831 236.714 376.354 237.14 376.752 237.689C377.154 238.238 377.393 238.88 377.469 239.614H375.402C375.289 239.102 375.028 238.662 374.621 238.293C374.219 237.923 373.679 237.739 373.002 237.739C372.41 237.739 371.891 237.895 371.446 238.207C371.006 238.515 370.663 238.955 370.417 239.528C370.17 240.097 370.047 240.769 370.047 241.545C370.047 242.341 370.168 243.027 370.409 243.605C370.651 244.183 370.992 244.63 371.432 244.947C371.877 245.265 372.4 245.423 373.002 245.423C373.404 245.423 373.769 245.35 374.096 245.203C374.427 245.052 374.704 244.836 374.926 244.557C375.154 244.277 375.312 243.941 375.402 243.548H377.469C377.393 244.254 377.164 244.884 376.78 245.438C376.397 245.991 375.883 246.427 375.239 246.744C374.6 247.062 373.849 247.22 372.988 247.22ZM379.74 247V236.091H381.864V247H379.74ZM380.812 234.408C380.443 234.408 380.126 234.285 379.861 234.038C379.6 233.787 379.47 233.489 379.47 233.143C379.47 232.793 379.6 232.495 379.861 232.249C380.126 231.998 380.443 231.872 380.812 231.872C381.182 231.872 381.497 231.998 381.757 232.249C382.022 232.495 382.155 232.793 382.155 233.143C382.155 233.489 382.022 233.787 381.757 234.038C381.497 234.285 381.182 234.408 380.812 234.408ZM384.721 251.091V236.091H386.794V237.859H386.972C387.095 237.632 387.273 237.369 387.505 237.071C387.737 236.773 388.059 236.512 388.471 236.29C388.882 236.062 389.427 235.949 390.104 235.949C390.985 235.949 391.771 236.171 392.462 236.616C393.153 237.062 393.695 237.703 394.088 238.541C394.486 239.379 394.685 240.388 394.685 241.567C394.685 242.746 394.489 243.757 394.096 244.599C393.703 245.437 393.163 246.084 392.476 246.538C391.79 246.988 391.006 247.213 390.125 247.213C389.462 247.213 388.92 247.102 388.499 246.879C388.082 246.657 387.756 246.396 387.519 246.098C387.282 245.8 387.1 245.535 386.972 245.303H386.844V251.091H384.721ZM386.801 241.545C386.801 242.312 386.913 242.985 387.135 243.562C387.358 244.14 387.68 244.592 388.101 244.919C388.523 245.241 389.039 245.402 389.65 245.402C390.284 245.402 390.814 245.234 391.24 244.898C391.667 244.557 391.989 244.095 392.206 243.513C392.429 242.93 392.54 242.275 392.54 241.545C392.54 240.826 392.431 240.179 392.213 239.607C392 239.034 391.678 238.581 391.248 238.25C390.821 237.919 390.289 237.753 389.65 237.753C389.034 237.753 388.513 237.911 388.087 238.229C387.666 238.546 387.346 238.989 387.128 239.557C386.91 240.125 386.801 240.788 386.801 241.545ZM397.064 247V236.091H399.188V247H397.064ZM398.137 234.408C397.767 234.408 397.45 234.285 397.185 234.038C396.925 233.787 396.794 233.489 396.794 233.143C396.794 232.793 396.925 232.495 397.185 232.249C397.45 231.998 397.767 231.872 398.137 231.872C398.506 231.872 398.821 231.998 399.081 232.249C399.346 232.495 399.479 232.793 399.479 233.143C399.479 233.489 399.346 233.787 399.081 234.038C398.821 234.285 398.506 234.408 398.137 234.408ZM406.746 247.22C405.672 247.22 404.746 246.991 403.969 246.531C403.198 246.067 402.601 245.416 402.18 244.578C401.763 243.735 401.555 242.748 401.555 241.616C401.555 240.499 401.763 239.514 402.18 238.662C402.601 237.81 403.188 237.144 403.941 236.666C404.699 236.188 405.584 235.949 406.597 235.949C407.213 235.949 407.809 236.051 408.387 236.254C408.965 236.458 409.483 236.777 409.942 237.213C410.402 237.649 410.764 238.214 411.029 238.911C411.294 239.602 411.427 240.442 411.427 241.432V242.185H402.755V240.594H409.346C409.346 240.035 409.232 239.54 409.005 239.109C408.778 238.674 408.458 238.33 408.046 238.08C407.639 237.829 407.161 237.703 406.612 237.703C406.015 237.703 405.494 237.85 405.049 238.143C404.609 238.432 404.268 238.811 404.026 239.28C403.79 239.744 403.671 240.248 403.671 240.793V242.036C403.671 242.765 403.799 243.385 404.055 243.896C404.315 244.408 404.677 244.798 405.141 245.068C405.605 245.333 406.147 245.466 406.768 245.466C407.17 245.466 407.537 245.409 407.869 245.295C408.2 245.177 408.487 245.002 408.728 244.77C408.969 244.538 409.154 244.251 409.282 243.911L411.292 244.273C411.131 244.865 410.842 245.383 410.425 245.828C410.013 246.268 409.495 246.612 408.87 246.858C408.25 247.099 407.542 247.22 406.746 247.22ZM415.907 240.523V247H413.783V236.091H415.821V237.866H415.956C416.207 237.289 416.6 236.825 417.135 236.474C417.675 236.124 418.355 235.949 419.174 235.949C419.917 235.949 420.568 236.105 421.127 236.418C421.685 236.725 422.119 237.185 422.426 237.795C422.734 238.406 422.888 239.161 422.888 240.061V247H420.765V240.317C420.765 239.526 420.559 238.908 420.147 238.463C419.735 238.013 419.169 237.788 418.449 237.788C417.957 237.788 417.519 237.895 417.135 238.108C416.757 238.321 416.456 238.634 416.233 239.045C416.016 239.453 415.907 239.945 415.907 240.523ZM430.828 236.091V237.795H424.87V236.091H430.828ZM426.468 233.477H428.591V243.797C428.591 244.209 428.653 244.519 428.776 244.727C428.899 244.931 429.058 245.071 429.252 245.146C429.451 245.217 429.666 245.253 429.898 245.253C430.069 245.253 430.218 245.241 430.346 245.217C430.473 245.194 430.573 245.175 430.644 245.161L431.027 246.915C430.904 246.962 430.729 247.009 430.502 247.057C430.275 247.109 429.99 247.137 429.65 247.142C429.091 247.152 428.57 247.052 428.087 246.844C427.604 246.635 427.213 246.313 426.915 245.878C426.617 245.442 426.468 244.895 426.468 244.237V233.477ZM441.176 238.754L439.252 239.095C439.171 238.849 439.043 238.615 438.868 238.392C438.698 238.17 438.466 237.987 438.172 237.845C437.879 237.703 437.512 237.632 437.071 237.632C436.47 237.632 435.968 237.767 435.566 238.037C435.163 238.302 434.962 238.645 434.962 239.067C434.962 239.431 435.097 239.725 435.367 239.947C435.637 240.17 436.072 240.352 436.674 240.494L438.407 240.892C439.41 241.124 440.158 241.482 440.651 241.964C441.143 242.447 441.39 243.075 441.39 243.847C441.39 244.5 441.2 245.082 440.821 245.594C440.447 246.1 439.924 246.498 439.252 246.787C438.584 247.076 437.81 247.22 436.929 247.22C435.708 247.22 434.711 246.96 433.939 246.439C433.167 245.913 432.694 245.168 432.519 244.202L434.571 243.889C434.699 244.424 434.962 244.829 435.36 245.104C435.757 245.374 436.276 245.509 436.915 245.509C437.611 245.509 438.167 245.364 438.584 245.075C439.001 244.782 439.209 244.424 439.209 244.003C439.209 243.662 439.081 243.375 438.826 243.143C438.575 242.911 438.189 242.736 437.668 242.618L435.821 242.213C434.803 241.981 434.051 241.612 433.563 241.105C433.08 240.598 432.838 239.957 432.838 239.18C432.838 238.536 433.018 237.973 433.378 237.49C433.738 237.007 434.235 236.631 434.87 236.361C435.504 236.086 436.231 235.949 437.05 235.949C438.229 235.949 439.157 236.205 439.834 236.716C440.511 237.223 440.959 237.902 441.176 238.754ZM452.192 247.241C451.501 247.241 450.876 247.114 450.317 246.858C449.758 246.598 449.316 246.221 448.989 245.729C448.667 245.236 448.506 244.633 448.506 243.918C448.506 243.302 448.624 242.795 448.861 242.398C449.098 242 449.417 241.685 449.82 241.453C450.222 241.221 450.672 241.046 451.169 240.928C451.667 240.809 452.173 240.719 452.689 240.658C453.343 240.582 453.873 240.52 454.28 240.473C454.687 240.421 454.983 240.338 455.168 240.224C455.353 240.111 455.445 239.926 455.445 239.67V239.621C455.445 239 455.27 238.52 454.919 238.179C454.574 237.838 454.058 237.668 453.371 237.668C452.656 237.668 452.093 237.826 451.681 238.143C451.274 238.456 450.992 238.804 450.836 239.188L448.84 238.733C449.077 238.07 449.422 237.535 449.877 237.128C450.336 236.716 450.864 236.418 451.461 236.233C452.057 236.044 452.685 235.949 453.343 235.949C453.778 235.949 454.24 236.001 454.728 236.105C455.22 236.205 455.679 236.389 456.105 236.659C456.536 236.929 456.889 237.315 457.164 237.817C457.438 238.314 457.576 238.96 457.576 239.756V247H455.502V245.509H455.417C455.279 245.783 455.073 246.053 454.799 246.318C454.524 246.583 454.171 246.804 453.74 246.979C453.31 247.154 452.793 247.241 452.192 247.241ZM452.654 245.537C453.241 245.537 453.743 245.421 454.159 245.189C454.581 244.957 454.9 244.654 455.118 244.28C455.341 243.901 455.452 243.496 455.452 243.065V241.659C455.376 241.735 455.23 241.806 455.012 241.872C454.799 241.934 454.555 241.988 454.28 242.036C454.006 242.078 453.738 242.118 453.478 242.156C453.217 242.189 452.999 242.218 452.824 242.241C452.412 242.294 452.036 242.381 451.695 242.504C451.359 242.627 451.089 242.805 450.885 243.037C450.686 243.264 450.587 243.567 450.587 243.946C450.587 244.472 450.781 244.869 451.169 245.139C451.558 245.404 452.052 245.537 452.654 245.537ZM462.528 240.523V247H460.404V236.091H462.442V237.866H462.577C462.828 237.289 463.221 236.825 463.756 236.474C464.296 236.124 464.976 235.949 465.795 235.949C466.538 235.949 467.189 236.105 467.748 236.418C468.307 236.725 468.74 237.185 469.048 237.795C469.355 238.406 469.509 239.161 469.509 240.061V247H467.386V240.317C467.386 239.526 467.18 238.908 466.768 238.463C466.356 238.013 465.79 237.788 465.07 237.788C464.578 237.788 464.14 237.895 463.756 238.108C463.378 238.321 463.077 238.634 462.854 239.045C462.637 239.453 462.528 239.945 462.528 240.523ZM476.441 247.213C475.56 247.213 474.774 246.988 474.083 246.538C473.397 246.084 472.857 245.437 472.464 244.599C472.076 243.757 471.881 242.746 471.881 241.567C471.881 240.388 472.078 239.379 472.471 238.541C472.869 237.703 473.413 237.062 474.104 236.616C474.796 236.171 475.579 235.949 476.455 235.949C477.132 235.949 477.677 236.062 478.089 236.29C478.505 236.512 478.827 236.773 479.055 237.071C479.287 237.369 479.467 237.632 479.594 237.859H479.722V232.455H481.846V247H479.772V245.303H479.594C479.467 245.535 479.282 245.8 479.04 246.098C478.804 246.396 478.477 246.657 478.06 246.879C477.644 247.102 477.104 247.213 476.441 247.213ZM476.91 245.402C477.521 245.402 478.037 245.241 478.458 244.919C478.884 244.592 479.206 244.14 479.424 243.562C479.647 242.985 479.758 242.312 479.758 241.545C479.758 240.788 479.649 240.125 479.431 239.557C479.213 238.989 478.894 238.546 478.472 238.229C478.051 237.911 477.53 237.753 476.91 237.753C476.271 237.753 475.738 237.919 475.312 238.25C474.886 238.581 474.564 239.034 474.346 239.607C474.133 240.179 474.026 240.826 474.026 241.545C474.026 242.275 474.135 242.93 474.353 243.513C474.571 244.095 474.893 244.557 475.319 244.898C475.75 245.234 476.28 245.402 476.91 245.402ZM498.273 236.276C498.198 235.603 497.885 235.082 497.336 234.713C496.787 234.339 496.095 234.152 495.262 234.152C494.665 234.152 494.149 234.247 493.714 234.436C493.278 234.621 492.94 234.876 492.698 235.203C492.461 235.525 492.343 235.892 492.343 236.304C492.343 236.65 492.424 236.948 492.585 237.199C492.75 237.45 492.966 237.661 493.231 237.831C493.501 237.997 493.79 238.136 494.097 238.25C494.405 238.359 494.701 238.449 494.985 238.52L496.406 238.889C496.87 239.003 497.345 239.157 497.833 239.351C498.321 239.545 498.773 239.801 499.19 240.118C499.606 240.435 499.942 240.828 500.198 241.297C500.459 241.766 500.589 242.327 500.589 242.98C500.589 243.804 500.376 244.536 499.95 245.175C499.528 245.814 498.915 246.318 498.11 246.688C497.31 247.057 496.342 247.241 495.205 247.241C494.116 247.241 493.174 247.069 492.379 246.723C491.583 246.377 490.96 245.887 490.511 245.253C490.061 244.614 489.812 243.856 489.765 242.98H491.967C492.009 243.506 492.18 243.944 492.478 244.294C492.781 244.64 493.167 244.898 493.636 245.068C494.109 245.234 494.628 245.317 495.191 245.317C495.811 245.317 496.363 245.22 496.846 245.026C497.334 244.827 497.717 244.552 497.996 244.202C498.276 243.847 498.415 243.432 498.415 242.959C498.415 242.528 498.292 242.175 498.046 241.901C497.805 241.626 497.476 241.399 497.059 241.219C496.647 241.039 496.181 240.88 495.66 240.743L493.941 240.274C492.776 239.957 491.853 239.491 491.171 238.875C490.494 238.259 490.156 237.445 490.156 236.432C490.156 235.594 490.383 234.862 490.837 234.237C491.292 233.612 491.907 233.127 492.684 232.781C493.46 232.431 494.336 232.256 495.312 232.256C496.297 232.256 497.165 232.429 497.918 232.774C498.676 233.12 499.272 233.596 499.708 234.202C500.144 234.803 500.371 235.494 500.39 236.276H498.273ZM507.743 247.22C506.668 247.22 505.742 246.991 504.966 246.531C504.194 246.067 503.597 245.416 503.176 244.578C502.759 243.735 502.551 242.748 502.551 241.616C502.551 240.499 502.759 239.514 503.176 238.662C503.597 237.81 504.184 237.144 504.937 236.666C505.695 236.188 506.58 235.949 507.593 235.949C508.209 235.949 508.806 236.051 509.383 236.254C509.961 236.458 510.479 236.777 510.939 237.213C511.398 237.649 511.76 238.214 512.025 238.911C512.29 239.602 512.423 240.442 512.423 241.432V242.185H503.751V240.594H510.342C510.342 240.035 510.228 239.54 510.001 239.109C509.774 238.674 509.454 238.33 509.042 238.08C508.635 237.829 508.157 237.703 507.608 237.703C507.011 237.703 506.49 237.85 506.045 238.143C505.605 238.432 505.264 238.811 505.022 239.28C504.786 239.744 504.667 240.248 504.667 240.793V242.036C504.667 242.765 504.795 243.385 505.051 243.896C505.311 244.408 505.673 244.798 506.137 245.068C506.601 245.333 507.144 245.466 507.764 245.466C508.166 245.466 508.533 245.409 508.865 245.295C509.196 245.177 509.483 245.002 509.724 244.77C509.966 244.538 510.15 244.251 510.278 243.911L512.288 244.273C512.127 244.865 511.838 245.383 511.422 245.828C511.01 246.268 510.491 246.612 509.866 246.858C509.246 247.099 508.538 247.22 507.743 247.22ZM516.903 240.523V247H514.779V236.091H516.817V237.866H516.952C517.203 237.289 517.596 236.825 518.131 236.474C518.671 236.124 519.351 235.949 520.17 235.949C520.913 235.949 521.564 236.105 522.123 236.418C522.682 236.725 523.115 237.185 523.423 237.795C523.73 238.406 523.884 239.161 523.884 240.061V247H521.761V240.317C521.761 239.526 521.555 238.908 521.143 238.463C520.731 238.013 520.165 237.788 519.445 237.788C518.953 237.788 518.515 237.895 518.131 238.108C517.753 238.321 517.452 238.634 517.229 239.045C517.012 239.453 516.903 239.945 516.903 240.523ZM530.816 247.213C529.935 247.213 529.149 246.988 528.458 246.538C527.772 246.084 527.232 245.437 526.839 244.599C526.451 243.757 526.256 242.746 526.256 241.567C526.256 240.388 526.453 239.379 526.846 238.541C527.244 237.703 527.788 237.062 528.479 236.616C529.171 236.171 529.954 235.949 530.83 235.949C531.507 235.949 532.052 236.062 532.464 236.29C532.88 236.512 533.202 236.773 533.43 237.071C533.662 237.369 533.842 237.632 533.969 237.859H534.097V232.455H536.221V247H534.147V245.303H533.969C533.842 245.535 533.657 245.8 533.415 246.098C533.179 246.396 532.852 246.657 532.435 246.879C532.019 247.102 531.479 247.213 530.816 247.213ZM531.285 245.402C531.896 245.402 532.412 245.241 532.833 244.919C533.259 244.592 533.581 244.14 533.799 243.562C534.022 242.985 534.133 242.312 534.133 241.545C534.133 240.788 534.024 240.125 533.806 239.557C533.588 238.989 533.269 238.546 532.847 238.229C532.426 237.911 531.905 237.753 531.285 237.753C530.646 237.753 530.113 237.919 529.687 238.25C529.261 238.581 528.939 239.034 528.721 239.607C528.508 240.179 528.401 240.826 528.401 241.545C528.401 242.275 528.51 242.93 528.728 243.513C528.946 244.095 529.268 244.557 529.694 244.898C530.125 245.234 530.655 245.402 531.285 245.402Z" fill="#3F4346"/>
</g>
<path d="M360.793 204.707C361.183 205.098 361.816 205.098 362.207 204.707L368.571 198.343C368.961 197.953 368.961 197.319 368.571 196.929C368.18 196.538 367.547 196.538 367.157 196.929L361.5 202.586L355.843 196.929C355.452 196.538 354.819 196.538 354.429 196.929C354.038 197.319 354.038 197.953 354.429 198.343L360.793 204.707ZM187 116C187 115.448 186.552 115 186 115C185.448 115 185 115.448 185 116H187ZM362.5 204V184H360.5V204H362.5ZM337.5 159H210V161H337.5V159ZM187 136V116H185V136H187ZM210 159C197.297 159 187 148.703 187 136H185C185 149.807 196.193 161 210 161V159ZM362.5 184C362.5 170.193 351.307 159 337.5 159V161C350.202 161 360.5 171.297 360.5 184H362.5Z" fill="#8F9396"/>
<g filter="url(#filter2_d_2077_29416)">
<rect x="38" y="368" width="414" height="64" rx="32" fill="white" shape-rendering="crispEdges"/>
<path d="M91.3334 383.333H64.6667C62.8334 383.333 61.3334 384.833 61.3334 386.667V416.667L68 410H91.3334C93.1667 410 94.6667 408.5 94.6667 406.667V386.667C94.6667 384.833 93.1667 383.333 91.3334 383.333ZM91.3334 406.667H68L64.6667 410V386.667H91.3334V406.667Z" fill="#1E75BA"/>
<path d="M85.1636 402.869V398.178L81.027 397.601L79.0943 399.533C78.0925 399.05 77.1497 398.414 76.3248 397.589C75.4998 396.764 74.8634 395.821 74.3802 394.819L76.313 392.887L75.7355 388.75H71.045C70.6561 391.449 71.1511 394.23 72.53 396.67C73.0721 397.636 73.7438 398.543 74.557 399.357C75.3702 400.17 76.2776 400.842 77.244 401.384C79.6718 402.751 82.4648 403.258 85.1636 402.869Z" fill="#1E75BA"/>
<path d="M108.869 392.455L112.918 404.301H113.081L117.129 392.455H119.501L114.267 407H111.732L106.497 392.455H108.869ZM124.933 407.22C123.91 407.22 123.018 406.986 122.255 406.517C121.493 406.048 120.901 405.393 120.48 404.55C120.058 403.707 119.848 402.722 119.848 401.595C119.848 400.464 120.058 399.474 120.48 398.626C120.901 397.779 121.493 397.121 122.255 396.652C123.018 396.183 123.91 395.949 124.933 395.949C125.956 395.949 126.848 396.183 127.61 396.652C128.373 397.121 128.965 397.779 129.386 398.626C129.807 399.474 130.018 400.464 130.018 401.595C130.018 402.722 129.807 403.707 129.386 404.55C128.965 405.393 128.373 406.048 127.61 406.517C126.848 406.986 125.956 407.22 124.933 407.22ZM124.94 405.438C125.603 405.438 126.152 405.262 126.588 404.912C127.023 404.562 127.345 404.095 127.554 403.513C127.767 402.93 127.873 402.289 127.873 401.588C127.873 400.892 127.767 400.253 127.554 399.67C127.345 399.083 127.023 398.612 126.588 398.257C126.152 397.902 125.603 397.724 124.94 397.724C124.272 397.724 123.718 397.902 123.278 398.257C122.842 398.612 122.518 399.083 122.305 399.67C122.097 400.253 121.993 400.892 121.993 401.588C121.993 402.289 122.097 402.93 122.305 403.513C122.518 404.095 122.842 404.562 123.278 404.912C123.718 405.262 124.272 405.438 124.94 405.438ZM132.388 407V396.091H134.512V407H132.388ZM133.461 394.408C133.092 394.408 132.774 394.285 132.509 394.038C132.249 393.787 132.119 393.489 132.119 393.143C132.119 392.793 132.249 392.495 132.509 392.249C132.774 391.998 133.092 391.872 133.461 391.872C133.83 391.872 134.145 391.998 134.406 392.249C134.671 392.495 134.803 392.793 134.803 393.143C134.803 393.489 134.671 393.787 134.406 394.038C134.145 394.285 133.83 394.408 133.461 394.408ZM141.964 407.22C140.908 407.22 139.999 406.981 139.237 406.503C138.479 406.02 137.897 405.355 137.49 404.507C137.083 403.66 136.879 402.689 136.879 401.595C136.879 400.487 137.087 399.509 137.504 398.662C137.921 397.81 138.508 397.144 139.265 396.666C140.023 396.188 140.915 395.949 141.943 395.949C142.771 395.949 143.51 396.103 144.159 396.411C144.807 396.714 145.331 397.14 145.728 397.689C146.131 398.238 146.37 398.88 146.446 399.614H144.379C144.265 399.102 144.005 398.662 143.598 398.293C143.195 397.923 142.655 397.739 141.978 397.739C141.386 397.739 140.868 397.895 140.423 398.207C139.983 398.515 139.639 398.955 139.393 399.528C139.147 400.097 139.024 400.769 139.024 401.545C139.024 402.341 139.145 403.027 139.386 403.605C139.627 404.183 139.968 404.63 140.409 404.947C140.854 405.265 141.377 405.423 141.978 405.423C142.381 405.423 142.745 405.35 143.072 405.203C143.404 405.052 143.681 404.836 143.903 404.557C144.13 404.277 144.289 403.941 144.379 403.548H146.446C146.37 404.254 146.14 404.884 145.757 405.438C145.373 405.991 144.859 406.427 144.216 406.744C143.576 407.062 142.826 407.22 141.964 407.22ZM153.418 407.22C152.344 407.22 151.418 406.991 150.641 406.531C149.87 406.067 149.273 405.416 148.852 404.578C148.435 403.735 148.227 402.748 148.227 401.616C148.227 400.499 148.435 399.514 148.852 398.662C149.273 397.81 149.86 397.144 150.613 396.666C151.371 396.188 152.256 395.949 153.269 395.949C153.885 395.949 154.481 396.051 155.059 396.254C155.637 396.458 156.155 396.777 156.614 397.213C157.074 397.649 157.436 398.214 157.701 398.911C157.966 399.602 158.099 400.442 158.099 401.432V402.185H149.427V400.594H156.018C156.018 400.035 155.904 399.54 155.677 399.109C155.45 398.674 155.13 398.33 154.718 398.08C154.311 397.829 153.833 397.703 153.283 397.703C152.687 397.703 152.166 397.85 151.721 398.143C151.281 398.432 150.94 398.811 150.698 399.28C150.461 399.744 150.343 400.248 150.343 400.793V402.036C150.343 402.765 150.471 403.385 150.727 403.896C150.987 404.408 151.349 404.798 151.813 405.068C152.277 405.333 152.819 405.466 153.44 405.466C153.842 405.466 154.209 405.409 154.54 405.295C154.872 405.177 155.158 405.002 155.4 404.77C155.641 404.538 155.826 404.251 155.954 403.911L157.964 404.273C157.803 404.865 157.514 405.383 157.097 405.828C156.685 406.268 156.167 406.612 155.542 406.858C154.922 407.099 154.214 407.22 153.418 407.22ZM165.748 407V396.091H167.786V397.866H167.921C168.148 397.265 168.52 396.796 169.036 396.46C169.552 396.119 170.17 395.949 170.89 395.949C171.619 395.949 172.23 396.119 172.722 396.46C173.219 396.801 173.586 397.27 173.823 397.866H173.937C174.197 397.284 174.612 396.82 175.18 396.474C175.748 396.124 176.425 395.949 177.211 395.949C178.201 395.949 179.008 396.259 179.633 396.879C180.263 397.5 180.577 398.435 180.577 399.685V407H178.454V399.884C178.454 399.145 178.253 398.61 177.85 398.278C177.448 397.947 176.967 397.781 176.408 397.781C175.717 397.781 175.18 397.994 174.796 398.42C174.413 398.842 174.221 399.384 174.221 400.047V407H172.104V399.749C172.104 399.157 171.92 398.681 171.55 398.321C171.181 397.961 170.701 397.781 170.109 397.781C169.706 397.781 169.335 397.888 168.994 398.101C168.657 398.309 168.385 398.6 168.177 398.974C167.973 399.348 167.871 399.782 167.871 400.274V407H165.748ZM188.125 407.22C187.051 407.22 186.125 406.991 185.348 406.531C184.577 406.067 183.98 405.416 183.559 404.578C183.142 403.735 182.934 402.748 182.934 401.616C182.934 400.499 183.142 399.514 183.559 398.662C183.98 397.81 184.567 397.144 185.32 396.666C186.078 396.188 186.963 395.949 187.976 395.949C188.592 395.949 189.188 396.051 189.766 396.254C190.344 396.458 190.862 396.777 191.321 397.213C191.781 397.649 192.143 398.214 192.408 398.911C192.673 399.602 192.806 400.442 192.806 401.432V402.185H184.134V400.594H190.725C190.725 400.035 190.611 399.54 190.384 399.109C190.157 398.674 189.837 398.33 189.425 398.08C189.018 397.829 188.54 397.703 187.99 397.703C187.394 397.703 186.873 397.85 186.428 398.143C185.988 398.432 185.647 398.811 185.405 399.28C185.168 399.744 185.05 400.248 185.05 400.793V402.036C185.05 402.765 185.178 403.385 185.434 403.896C185.694 404.408 186.056 404.798 186.52 405.068C186.984 405.333 187.526 405.466 188.147 405.466C188.549 405.466 188.916 405.409 189.248 405.295C189.579 405.177 189.865 405.002 190.107 404.77C190.348 404.538 190.533 404.251 190.661 403.911L192.671 404.273C192.51 404.865 192.221 405.383 191.804 405.828C191.392 406.268 190.874 406.612 190.249 406.858C189.629 407.099 188.921 407.22 188.125 407.22ZM203.337 398.754L201.412 399.095C201.331 398.849 201.204 398.615 201.028 398.392C200.858 398.17 200.626 397.987 200.332 397.845C200.039 397.703 199.672 397.632 199.232 397.632C198.63 397.632 198.128 397.767 197.726 398.037C197.323 398.302 197.122 398.645 197.122 399.067C197.122 399.431 197.257 399.725 197.527 399.947C197.797 400.17 198.232 400.352 198.834 400.494L200.567 400.892C201.571 401.124 202.319 401.482 202.811 401.964C203.304 402.447 203.55 403.075 203.55 403.847C203.55 404.5 203.36 405.082 202.982 405.594C202.607 406.1 202.084 406.498 201.412 406.787C200.744 407.076 199.97 407.22 199.089 407.22C197.868 407.22 196.871 406.96 196.099 406.439C195.328 405.913 194.854 405.168 194.679 404.202L196.732 403.889C196.859 404.424 197.122 404.829 197.52 405.104C197.918 405.374 198.436 405.509 199.075 405.509C199.771 405.509 200.328 405.364 200.744 405.075C201.161 404.782 201.369 404.424 201.369 404.003C201.369 403.662 201.241 403.375 200.986 403.143C200.735 402.911 200.349 402.736 199.828 402.618L197.982 402.213C196.964 401.981 196.211 401.612 195.723 401.105C195.24 400.598 194.999 399.957 194.999 399.18C194.999 398.536 195.179 397.973 195.538 397.49C195.898 397.007 196.395 396.631 197.03 396.361C197.664 396.086 198.391 395.949 199.21 395.949C200.389 395.949 201.317 396.205 201.994 396.716C202.671 397.223 203.119 397.902 203.337 398.754ZM214.059 398.754L212.135 399.095C212.054 398.849 211.926 398.615 211.751 398.392C211.581 398.17 211.349 397.987 211.055 397.845C210.761 397.703 210.395 397.632 209.954 397.632C209.353 397.632 208.851 397.767 208.449 398.037C208.046 398.302 207.845 398.645 207.845 399.067C207.845 399.431 207.98 399.725 208.25 399.947C208.52 400.17 208.955 400.352 209.556 400.494L211.289 400.892C212.293 401.124 213.041 401.482 213.534 401.964C214.026 402.447 214.272 403.075 214.272 403.847C214.272 404.5 214.083 405.082 213.704 405.594C213.33 406.1 212.807 406.498 212.135 406.787C211.467 407.076 210.693 407.22 209.812 407.22C208.591 407.22 207.594 406.96 206.822 406.439C206.05 405.913 205.577 405.168 205.402 404.202L207.454 403.889C207.582 404.424 207.845 404.829 208.243 405.104C208.64 405.374 209.159 405.509 209.798 405.509C210.494 405.509 211.05 405.364 211.467 405.075C211.884 404.782 212.092 404.424 212.092 404.003C212.092 403.662 211.964 403.375 211.708 403.143C211.458 402.911 211.072 402.736 210.551 402.618L208.704 402.213C207.686 401.981 206.933 401.612 206.446 401.105C205.963 400.598 205.721 399.957 205.721 399.18C205.721 398.536 205.901 397.973 206.261 397.49C206.621 397.007 207.118 396.631 207.752 396.361C208.387 396.086 209.114 395.949 209.933 395.949C211.112 395.949 212.04 396.205 212.717 396.716C213.394 397.223 213.842 397.902 214.059 398.754ZM219.782 407.241C219.091 407.241 218.466 407.114 217.907 406.858C217.348 406.598 216.906 406.221 216.579 405.729C216.257 405.236 216.096 404.633 216.096 403.918C216.096 403.302 216.214 402.795 216.451 402.398C216.688 402 217.007 401.685 217.41 401.453C217.812 401.221 218.262 401.046 218.759 400.928C219.256 400.809 219.763 400.719 220.279 400.658C220.933 400.582 221.463 400.52 221.87 400.473C222.277 400.421 222.573 400.338 222.758 400.224C222.942 400.111 223.035 399.926 223.035 399.67V399.621C223.035 399 222.86 398.52 222.509 398.179C222.164 397.838 221.647 397.668 220.961 397.668C220.246 397.668 219.683 397.826 219.271 398.143C218.863 398.456 218.582 398.804 218.425 399.188L216.43 398.733C216.666 398.07 217.012 397.535 217.467 397.128C217.926 396.716 218.454 396.418 219.05 396.233C219.647 396.044 220.274 395.949 220.933 395.949C221.368 395.949 221.83 396.001 222.317 396.105C222.81 396.205 223.269 396.389 223.695 396.659C224.126 396.929 224.479 397.315 224.754 397.817C225.028 398.314 225.165 398.96 225.165 399.756V407H223.092V405.509H223.006C222.869 405.783 222.663 406.053 222.388 406.318C222.114 406.583 221.761 406.804 221.33 406.979C220.899 407.154 220.383 407.241 219.782 407.241ZM220.244 405.537C220.831 405.537 221.333 405.421 221.749 405.189C222.171 404.957 222.49 404.654 222.708 404.28C222.931 403.901 223.042 403.496 223.042 403.065V401.659C222.966 401.735 222.819 401.806 222.602 401.872C222.388 401.934 222.145 401.988 221.87 402.036C221.595 402.078 221.328 402.118 221.067 402.156C220.807 402.189 220.589 402.218 220.414 402.241C220.002 402.294 219.626 402.381 219.285 402.504C218.949 402.627 218.679 402.805 218.475 403.037C218.276 403.264 218.177 403.567 218.177 403.946C218.177 404.472 218.371 404.869 218.759 405.139C219.147 405.404 219.642 405.537 220.244 405.537ZM232.568 411.318C231.701 411.318 230.956 411.205 230.331 410.977C229.71 410.75 229.204 410.449 228.811 410.075C228.418 409.701 228.124 409.292 227.93 408.847L229.755 408.094C229.883 408.302 230.054 408.522 230.267 408.754C230.484 408.991 230.778 409.192 231.147 409.358C231.521 409.524 232.002 409.607 232.589 409.607C233.394 409.607 234.059 409.41 234.585 409.017C235.11 408.629 235.373 408.009 235.373 407.156V405.011H235.238C235.11 405.243 234.926 405.501 234.684 405.786C234.448 406.07 234.121 406.316 233.704 406.524C233.288 406.732 232.745 406.837 232.078 406.837C231.216 406.837 230.44 406.635 229.748 406.233C229.062 405.826 228.517 405.227 228.115 404.436C227.717 403.641 227.518 402.663 227.518 401.503C227.518 400.343 227.715 399.348 228.108 398.52C228.505 397.691 229.05 397.057 229.741 396.616C230.432 396.171 231.216 395.949 232.092 395.949C232.769 395.949 233.316 396.062 233.733 396.29C234.149 396.512 234.474 396.773 234.706 397.071C234.942 397.369 235.125 397.632 235.252 397.859H235.409V396.091H237.49V407.241C237.49 408.179 237.272 408.948 236.836 409.55C236.401 410.151 235.811 410.596 235.068 410.885C234.329 411.174 233.496 411.318 232.568 411.318ZM232.547 405.075C233.157 405.075 233.673 404.933 234.095 404.649C234.521 404.36 234.843 403.948 235.061 403.413C235.283 402.874 235.395 402.227 235.395 401.474C235.395 400.741 235.286 400.094 235.068 399.536C234.85 398.977 234.53 398.541 234.109 398.229C233.688 397.911 233.167 397.753 232.547 397.753C231.907 397.753 231.375 397.919 230.949 398.25C230.522 398.577 230.2 399.022 229.983 399.585C229.77 400.149 229.663 400.778 229.663 401.474C229.663 402.189 229.772 402.817 229.99 403.357C230.208 403.896 230.529 404.318 230.956 404.621C231.386 404.924 231.917 405.075 232.547 405.075ZM245.039 407.22C243.965 407.22 243.039 406.991 242.262 406.531C241.491 406.067 240.894 405.416 240.473 404.578C240.056 403.735 239.848 402.748 239.848 401.616C239.848 400.499 240.056 399.514 240.473 398.662C240.894 397.81 241.481 397.144 242.234 396.666C242.992 396.188 243.877 395.949 244.89 395.949C245.506 395.949 246.102 396.051 246.68 396.254C247.258 396.458 247.776 396.777 248.235 397.213C248.695 397.649 249.057 398.214 249.322 398.911C249.587 399.602 249.72 400.442 249.72 401.432V402.185H241.048V400.594H247.639C247.639 400.035 247.525 399.54 247.298 399.109C247.071 398.674 246.751 398.33 246.339 398.08C245.932 397.829 245.454 397.703 244.904 397.703C244.308 397.703 243.787 397.85 243.342 398.143C242.902 398.432 242.561 398.811 242.319 399.28C242.083 399.744 241.964 400.248 241.964 400.793V402.036C241.964 402.765 242.092 403.385 242.348 403.896C242.608 404.408 242.97 404.798 243.434 405.068C243.898 405.333 244.44 405.466 245.061 405.466C245.463 405.466 245.83 405.409 246.162 405.295C246.493 405.177 246.779 405.002 247.021 404.77C247.262 404.538 247.447 404.251 247.575 403.911L249.585 404.273C249.424 404.865 249.135 405.383 248.718 405.828C248.306 406.268 247.788 406.612 247.163 406.858C246.543 407.099 245.835 407.22 245.039 407.22ZM257.539 407V392.455H262.724C263.851 392.455 264.786 392.649 265.529 393.037C266.278 393.425 266.836 393.963 267.206 394.649C267.575 395.331 267.76 396.119 267.76 397.014C267.76 397.904 267.573 398.688 267.199 399.365C266.829 400.037 266.27 400.561 265.522 400.935C264.779 401.309 263.844 401.496 262.717 401.496H258.789V399.607H262.518C263.228 399.607 263.806 399.505 264.251 399.301C264.701 399.098 265.03 398.802 265.238 398.413C265.447 398.025 265.551 397.559 265.551 397.014C265.551 396.465 265.444 395.989 265.231 395.587C265.023 395.184 264.694 394.876 264.244 394.663C263.799 394.446 263.214 394.337 262.49 394.337H259.734V407H257.539ZM264.72 400.438L268.314 407H265.814L262.291 400.438H264.72ZM274.825 407.22C273.75 407.22 272.824 406.991 272.048 406.531C271.276 406.067 270.679 405.416 270.258 404.578C269.841 403.735 269.633 402.748 269.633 401.616C269.633 400.499 269.841 399.514 270.258 398.662C270.679 397.81 271.266 397.144 272.019 396.666C272.777 396.188 273.662 395.949 274.675 395.949C275.291 395.949 275.888 396.051 276.465 396.254C277.043 396.458 277.561 396.777 278.021 397.213C278.48 397.649 278.842 398.214 279.107 398.911C279.372 399.602 279.505 400.442 279.505 401.432V402.185H270.833V400.594H277.424C277.424 400.035 277.31 399.54 277.083 399.109C276.856 398.674 276.536 398.33 276.124 398.08C275.717 397.829 275.239 397.703 274.69 397.703C274.093 397.703 273.572 397.85 273.127 398.143C272.687 398.432 272.346 398.811 272.104 399.28C271.868 399.744 271.749 400.248 271.749 400.793V402.036C271.749 402.765 271.877 403.385 272.133 403.896C272.393 404.408 272.755 404.798 273.219 405.068C273.683 405.333 274.226 405.466 274.846 405.466C275.248 405.466 275.615 405.409 275.947 405.295C276.278 405.177 276.565 405.002 276.806 404.77C277.048 404.538 277.232 404.251 277.36 403.911L279.37 404.273C279.209 404.865 278.92 405.383 278.504 405.828C278.092 406.268 277.573 406.612 276.948 406.858C276.328 407.099 275.62 407.22 274.825 407.22ZM286.456 407.22C285.4 407.22 284.491 406.981 283.729 406.503C282.971 406.02 282.389 405.355 281.982 404.507C281.575 403.66 281.371 402.689 281.371 401.595C281.371 400.487 281.579 399.509 281.996 398.662C282.413 397.81 283 397.144 283.757 396.666C284.515 396.188 285.408 395.949 286.435 395.949C287.264 395.949 288.002 396.103 288.651 396.411C289.3 396.714 289.823 397.14 290.221 397.689C290.623 398.238 290.862 398.88 290.938 399.614H288.871C288.757 399.102 288.497 398.662 288.09 398.293C287.687 397.923 287.148 397.739 286.471 397.739C285.879 397.739 285.36 397.895 284.915 398.207C284.475 398.515 284.132 398.955 283.885 399.528C283.639 400.097 283.516 400.769 283.516 401.545C283.516 402.341 283.637 403.027 283.878 403.605C284.12 404.183 284.461 404.63 284.901 404.947C285.346 405.265 285.869 405.423 286.471 405.423C286.873 405.423 287.238 405.35 287.564 405.203C287.896 405.052 288.173 404.836 288.395 404.557C288.623 404.277 288.781 403.941 288.871 403.548H290.938C290.862 404.254 290.632 404.884 290.249 405.438C289.865 405.991 289.352 406.427 288.708 406.744C288.069 407.062 287.318 407.22 286.456 407.22ZM297.911 407.22C296.836 407.22 295.91 406.991 295.134 406.531C294.362 406.067 293.765 405.416 293.344 404.578C292.927 403.735 292.719 402.748 292.719 401.616C292.719 400.499 292.927 399.514 293.344 398.662C293.765 397.81 294.352 397.144 295.105 396.666C295.863 396.188 296.748 395.949 297.761 395.949C298.377 395.949 298.973 396.051 299.551 396.254C300.129 396.458 300.647 396.777 301.107 397.213C301.566 397.649 301.928 398.214 302.193 398.911C302.458 399.602 302.591 400.442 302.591 401.432V402.185H293.919V400.594H300.51C300.51 400.035 300.396 399.54 300.169 399.109C299.942 398.674 299.622 398.33 299.21 398.08C298.803 397.829 298.325 397.703 297.776 397.703C297.179 397.703 296.658 397.85 296.213 398.143C295.773 398.432 295.432 398.811 295.19 399.28C294.954 399.744 294.835 400.248 294.835 400.793V402.036C294.835 402.765 294.963 403.385 295.219 403.896C295.479 404.408 295.841 404.798 296.305 405.068C296.769 405.333 297.312 405.466 297.932 405.466C298.334 405.466 298.701 405.409 299.033 405.295C299.364 405.177 299.651 405.002 299.892 404.77C300.134 404.538 300.318 404.251 300.446 403.911L302.456 404.273C302.295 404.865 302.006 405.383 301.589 405.828C301.178 406.268 300.659 406.612 300.034 406.858C299.414 407.099 298.706 407.22 297.911 407.22ZM304.947 407V396.091H307.071V407H304.947ZM306.02 394.408C305.65 394.408 305.333 394.285 305.068 394.038C304.807 393.787 304.677 393.489 304.677 393.143C304.677 392.793 304.807 392.495 305.068 392.249C305.333 391.998 305.65 391.872 306.02 391.872C306.389 391.872 306.704 391.998 306.964 392.249C307.229 392.495 307.362 392.793 307.362 393.143C307.362 393.489 307.229 393.787 306.964 394.038C306.704 394.285 306.389 394.408 306.02 394.408ZM319.26 396.091L315.304 407H313.031L309.068 396.091H311.348L314.111 404.486H314.224L316.98 396.091H319.26ZM325.586 407.22C324.511 407.22 323.586 406.991 322.809 406.531C322.038 406.067 321.441 405.416 321.02 404.578C320.603 403.735 320.395 402.748 320.395 401.616C320.395 400.499 320.603 399.514 321.02 398.662C321.441 397.81 322.028 397.144 322.781 396.666C323.538 396.188 324.424 395.949 325.437 395.949C326.053 395.949 326.649 396.051 327.227 396.254C327.805 396.458 328.323 396.777 328.782 397.213C329.242 397.649 329.604 398.214 329.869 398.911C330.134 399.602 330.267 400.442 330.267 401.432V402.185H321.595V400.594H328.186C328.186 400.035 328.072 399.54 327.845 399.109C327.618 398.674 327.298 398.33 326.886 398.08C326.479 397.829 326.001 397.703 325.451 397.703C324.855 397.703 324.334 397.85 323.889 398.143C323.449 398.432 323.108 398.811 322.866 399.28C322.629 399.744 322.511 400.248 322.511 400.793V402.036C322.511 402.765 322.639 403.385 322.895 403.896C323.155 404.408 323.517 404.798 323.981 405.068C324.445 405.333 324.987 405.466 325.608 405.466C326.01 405.466 326.377 405.409 326.708 405.295C327.04 405.177 327.326 405.002 327.568 404.77C327.809 404.538 327.994 404.251 328.122 403.911L330.132 404.273C329.971 404.865 329.682 405.383 329.265 405.828C328.853 406.268 328.335 406.612 327.71 406.858C327.09 407.099 326.382 407.22 325.586 407.22ZM336.707 407.213C335.826 407.213 335.04 406.988 334.349 406.538C333.662 406.084 333.122 405.437 332.729 404.599C332.341 403.757 332.147 402.746 332.147 401.567C332.147 400.388 332.344 399.379 332.737 398.541C333.134 397.703 333.679 397.062 334.37 396.616C335.061 396.171 335.845 395.949 336.721 395.949C337.398 395.949 337.942 396.062 338.354 396.29C338.771 396.512 339.093 396.773 339.32 397.071C339.552 397.369 339.732 397.632 339.86 397.859H339.988V392.455H342.112V407H340.038V405.303H339.86C339.732 405.535 339.548 405.8 339.306 406.098C339.069 406.396 338.743 406.657 338.326 406.879C337.909 407.102 337.37 407.213 336.707 407.213ZM337.175 405.402C337.786 405.402 338.302 405.241 338.724 404.919C339.15 404.592 339.472 404.14 339.69 403.562C339.912 402.985 340.023 402.312 340.023 401.545C340.023 400.788 339.915 400.125 339.697 399.557C339.479 398.989 339.159 398.546 338.738 398.229C338.317 397.911 337.796 397.753 337.175 397.753C336.536 397.753 336.004 397.919 335.577 398.25C335.151 398.581 334.829 399.034 334.612 399.607C334.398 400.179 334.292 400.826 334.292 401.545C334.292 402.275 334.401 402.93 334.619 403.513C334.836 404.095 335.158 404.557 335.585 404.898C336.015 405.234 336.546 405.402 337.175 405.402ZM350.435 407V396.091H352.559V407H350.435ZM351.508 394.408C351.138 394.408 350.821 394.285 350.556 394.038C350.296 393.787 350.165 393.489 350.165 393.143C350.165 392.793 350.296 392.495 350.556 392.249C350.821 391.998 351.138 391.872 351.508 391.872C351.877 391.872 352.192 391.998 352.452 392.249C352.718 392.495 352.85 392.793 352.85 393.143C352.85 393.489 352.718 393.787 352.452 394.038C352.192 394.285 351.877 394.408 351.508 394.408ZM357.539 400.523V407H355.416V396.091H357.454V397.866H357.589C357.84 397.289 358.233 396.825 358.768 396.474C359.308 396.124 359.987 395.949 360.806 395.949C361.55 395.949 362.201 396.105 362.76 396.418C363.318 396.725 363.752 397.185 364.059 397.795C364.367 398.406 364.521 399.161 364.521 400.061V407H362.397V400.317C362.397 399.526 362.191 398.908 361.779 398.463C361.368 398.013 360.802 397.788 360.082 397.788C359.59 397.788 359.152 397.895 358.768 398.108C358.389 398.321 358.089 398.634 357.866 399.045C357.648 399.453 357.539 399.945 357.539 400.523ZM375.544 398.754L373.619 399.095C373.538 398.849 373.411 398.615 373.235 398.392C373.065 398.17 372.833 397.987 372.539 397.845C372.246 397.703 371.879 397.632 371.439 397.632C370.837 397.632 370.335 397.767 369.933 398.037C369.53 398.302 369.329 398.645 369.329 399.067C369.329 399.431 369.464 399.725 369.734 399.947C370.004 400.17 370.44 400.352 371.041 400.494L372.774 400.892C373.778 401.124 374.526 401.482 375.018 401.964C375.511 402.447 375.757 403.075 375.757 403.847C375.757 404.5 375.567 405.082 375.189 405.594C374.815 406.1 374.291 406.498 373.619 406.787C372.951 407.076 372.177 407.22 371.297 407.22C370.075 407.22 369.078 406.96 368.306 406.439C367.535 405.913 367.061 405.168 366.886 404.202L368.939 403.889C369.066 404.424 369.329 404.829 369.727 405.104C370.125 405.374 370.643 405.509 371.282 405.509C371.978 405.509 372.535 405.364 372.951 405.075C373.368 404.782 373.576 404.424 373.576 404.003C373.576 403.662 373.449 403.375 373.193 403.143C372.942 402.911 372.556 402.736 372.035 402.618L370.189 402.213C369.171 401.981 368.418 401.612 367.93 401.105C367.447 400.598 367.206 399.957 367.206 399.18C367.206 398.536 367.386 397.973 367.745 397.49C368.105 397.007 368.602 396.631 369.237 396.361C369.871 396.086 370.598 395.949 371.417 395.949C372.596 395.949 373.524 396.205 374.201 396.716C374.878 397.223 375.326 397.902 375.544 398.754ZM383.184 396.091V397.795H377.225V396.091H383.184ZM378.823 393.477H380.947V403.797C380.947 404.209 381.008 404.519 381.131 404.727C381.254 404.931 381.413 405.071 381.607 405.146C381.806 405.217 382.022 405.253 382.254 405.253C382.424 405.253 382.573 405.241 382.701 405.217C382.829 405.194 382.928 405.175 382.999 405.161L383.383 406.915C383.26 406.962 383.085 407.009 382.857 407.057C382.63 407.109 382.346 407.137 382.005 407.142C381.446 407.152 380.925 407.052 380.442 406.844C379.96 406.635 379.569 406.313 379.271 405.878C378.972 405.442 378.823 404.895 378.823 404.237V393.477ZM388.708 407.241C388.016 407.241 387.391 407.114 386.833 406.858C386.274 406.598 385.831 406.221 385.505 405.729C385.183 405.236 385.022 404.633 385.022 403.918C385.022 403.302 385.14 402.795 385.377 402.398C385.614 402 385.933 401.685 386.336 401.453C386.738 401.221 387.188 401.046 387.685 400.928C388.182 400.809 388.689 400.719 389.205 400.658C389.858 400.582 390.389 400.52 390.796 400.473C391.203 400.421 391.499 400.338 391.684 400.224C391.868 400.111 391.961 399.926 391.961 399.67V399.621C391.961 399 391.785 398.52 391.435 398.179C391.089 397.838 390.573 397.668 389.887 397.668C389.172 397.668 388.608 397.826 388.196 398.143C387.789 398.456 387.507 398.804 387.351 399.188L385.355 398.733C385.592 398.07 385.938 397.535 386.392 397.128C386.852 396.716 387.38 396.418 387.976 396.233C388.573 396.044 389.2 395.949 389.858 395.949C390.294 395.949 390.756 396.001 391.243 396.105C391.736 396.205 392.195 396.389 392.621 396.659C393.052 396.929 393.405 397.315 393.679 397.817C393.954 398.314 394.091 398.96 394.091 399.756V407H392.017V405.509H391.932C391.795 405.783 391.589 406.053 391.314 406.318C391.04 406.583 390.687 406.804 390.256 406.979C389.825 407.154 389.309 407.241 388.708 407.241ZM389.169 405.537C389.757 405.537 390.258 405.421 390.675 405.189C391.096 404.957 391.416 404.654 391.634 404.28C391.856 403.901 391.968 403.496 391.968 403.065V401.659C391.892 401.735 391.745 401.806 391.527 401.872C391.314 401.934 391.07 401.988 390.796 402.036C390.521 402.078 390.254 402.118 389.993 402.156C389.733 402.189 389.515 402.218 389.34 402.241C388.928 402.294 388.551 402.381 388.211 402.504C387.874 402.627 387.605 402.805 387.401 403.037C387.202 403.264 387.103 403.567 387.103 403.946C387.103 404.472 387.297 404.869 387.685 405.139C388.073 405.404 388.568 405.537 389.169 405.537ZM399.043 400.523V407H396.92V396.091H398.958V397.866H399.093C399.344 397.289 399.737 396.825 400.272 396.474C400.812 396.124 401.491 395.949 402.31 395.949C403.054 395.949 403.705 396.105 404.263 396.418C404.822 396.725 405.255 397.185 405.563 397.795C405.871 398.406 406.025 399.161 406.025 400.061V407H403.901V400.317C403.901 399.526 403.695 398.908 403.283 398.463C402.871 398.013 402.306 397.788 401.586 397.788C401.094 397.788 400.656 397.895 400.272 398.108C399.893 398.321 399.593 398.634 399.37 399.045C399.152 399.453 399.043 399.945 399.043 400.523ZM413.965 396.091V397.795H408.006V396.091H413.965ZM409.604 393.477H411.728V403.797C411.728 404.209 411.79 404.519 411.913 404.727C412.036 404.931 412.194 405.071 412.388 405.146C412.587 405.217 412.803 405.253 413.035 405.253C413.205 405.253 413.354 405.241 413.482 405.217C413.61 405.194 413.71 405.175 413.781 405.161L414.164 406.915C414.041 406.962 413.866 407.009 413.638 407.057C413.411 407.109 413.127 407.137 412.786 407.142C412.228 407.152 411.707 407.052 411.224 406.844C410.741 406.635 410.35 406.313 410.052 405.878C409.754 405.442 409.604 404.895 409.604 404.237V393.477ZM418.672 392.455V407H416.549V392.455H418.672ZM422.871 411.091C422.554 411.091 422.265 411.065 422.005 411.013C421.745 410.965 421.55 410.913 421.423 410.857L421.934 409.116C422.322 409.221 422.668 409.266 422.971 409.251C423.274 409.237 423.541 409.124 423.773 408.911C424.01 408.697 424.219 408.349 424.398 407.866L424.661 407.142L420.67 396.091H422.942L425.705 404.557H425.819L428.582 396.091H430.862L426.366 408.456C426.157 409.024 425.892 409.505 425.57 409.898C425.248 410.295 424.865 410.594 424.42 410.793C423.975 410.991 423.459 411.091 422.871 411.091Z" fill="#3F4346"/>
</g>
<path d="M244.293 364.707C244.683 365.098 245.317 365.098 245.707 364.707L252.071 358.343C252.462 357.953 252.462 357.319 252.071 356.929C251.681 356.538 251.047 356.538 250.657 356.929L245 362.586L239.343 356.929C238.953 356.538 238.319 356.538 237.929 356.929C237.538 357.319 237.538 357.953 237.929 358.343L244.293 364.707ZM362.5 276C362.5 275.448 362.052 275 361.5 275C360.948 275 360.5 275.448 360.5 276H362.5ZM246 364V344H244V364H246ZM269 321H337.5V319H269V321ZM362.5 296V276H360.5V296H362.5ZM337.5 321C351.307 321 362.5 309.807 362.5 296H360.5C360.5 308.703 350.203 319 337.5 319V321ZM246 344C246 331.297 256.297 321 269 321V319C255.193 319 244 330.193 244 344H246Z" fill="#8F9396"/>
<defs>
<filter id="filter0_d_2077_29416" x="34" y="48" width="304" height="72" filterUnits="userSpaceOnUse" color-interpolation-filters="sRGB">
<feFlood flood-opacity="0" result="BackgroundImageFix"/>
<feColorMatrix in="SourceAlpha" type="matrix" values="0 0 0 0 0 0 0 0 0 0 0 0 0 0 0 0 0 0 127 0" result="hardAlpha"/>
<feOffset dy="4"/>
<feGaussianBlur stdDeviation="2"/>
<feComposite in2="hardAlpha" operator="out"/>
<feColorMatrix type="matrix" values="0 0 0 0 0 0 0 0 0 0 0 0 0 0 0 0 0 0 0.25 0"/>
<feBlend mode="normal" in2="BackgroundImageFix" result="effect1_dropShadow_2077_29416"/>
<feBlend mode="normal" in="SourceGraphic" in2="effect1_dropShadow_2077_29416" result="shape"/>
</filter>
<filter id="filter1_d_2077_29416" x="161" y="208" width="401" height="72" filterUnits="userSpaceOnUse" color-interpolation-filters="sRGB">
<feFlood flood-opacity="0" result="BackgroundImageFix"/>
<feColorMatrix in="SourceAlpha" type="matrix" values="0 0 0 0 0 0 0 0 0 0 0 0 0 0 0 0 0 0 127 0" result="hardAlpha"/>
<feOffset dy="4"/>
<feGaussianBlur stdDeviation="2"/>
<feComposite in2="hardAlpha" operator="out"/>
<feColorMatrix type="matrix" values="0 0 0 0 0 0 0 0 0 0 0 0 0 0 0 0 0 0 0.25 0"/>
<feBlend mode="normal" in2="BackgroundImageFix" result="effect1_dropShadow_2077_29416"/>
<feBlend mode="normal" in="SourceGraphic" in2="effect1_dropShadow_2077_29416" result="shape"/>
</filter>
<filter id="filter2_d_2077_29416" x="34" y="368" width="422" height="72" filterUnits="userSpaceOnUse" color-interpolation-filters="sRGB">
<feFlood flood-opacity="0" result="BackgroundImageFix"/>
<feColorMatrix in="SourceAlpha" type="matrix" values="0 0 0 0 0 0 0 0 0 0 0 0 0 0 0 0 0 0 127 0" result="hardAlpha"/>
<feOffset dy="4"/>
<feGaussianBlur stdDeviation="2"/>
<feComposite in2="hardAlpha" operator="out"/>
<feColorMatrix type="matrix" values="0 0 0 0 0 0 0 0 0 0 0 0 0 0 0 0 0 0 0.25 0"/>
<feBlend mode="normal" in2="BackgroundImageFix" result="effect1_dropShadow_2077_29416"/>
<feBlend mode="normal" in="SourceGraphic" in2="effect1_dropShadow_2077_29416" result="shape"/>
</filter>
</defs>
</svg>
