<svg width="600" height="462" viewBox="0 0 600 462" fill="none" xmlns="http://www.w3.org/2000/svg">
<path d="M87.5 438.896C84.2315 438.896 81.4345 437.769 79.1089 435.514C76.7793 433.256 75.6146 430.543 75.6146 427.375C75.6146 424.207 76.7793 421.494 79.1089 419.235C81.4345 416.981 84.2315 415.854 87.5 415.854C90.7685 415.854 93.5675 416.981 95.897 419.235C98.2226 421.494 99.3854 424.207 99.3854 427.375C99.3854 430.543 98.2226 433.256 95.897 435.514C93.5675 437.769 90.7685 438.896 87.5 438.896ZM51.8437 335.208C48.5752 335.208 45.7782 334.079 43.4526 331.821C41.1231 329.567 39.9583 326.856 39.9583 323.687C39.9583 320.519 41.1231 317.806 43.4526 315.548C45.7782 313.294 48.5752 312.167 51.8437 312.167C55.1122 312.167 57.9093 313.294 60.2348 315.548C62.5644 317.806 63.7291 320.519 63.7291 323.687C63.7291 326.856 62.5644 329.567 60.2348 331.821C57.9093 334.079 55.1122 335.208 51.8437 335.208ZM51.8437 369.771C48.5752 369.771 45.7782 368.642 43.4526 366.384C41.1231 364.129 39.9583 361.418 39.9583 358.25C39.9583 355.082 41.1231 352.369 43.4526 350.11C45.7782 347.856 48.5752 346.729 51.8437 346.729C55.1122 346.729 57.9093 347.856 60.2348 350.11C62.5644 352.369 63.7291 355.082 63.7291 358.25C63.7291 361.418 62.5644 364.129 60.2348 366.384C57.9093 368.642 55.1122 369.771 51.8437 369.771ZM51.8437 404.333C48.5752 404.333 45.7782 403.206 43.4526 400.952C41.1231 398.694 39.9583 395.981 39.9583 392.812C39.9583 389.644 41.1231 386.931 43.4526 384.673C45.7782 382.419 48.5752 381.292 51.8437 381.292C55.1122 381.292 57.9093 382.419 60.2348 384.673C62.5644 386.931 63.7291 389.644 63.7291 392.812C63.7291 395.981 62.5644 398.694 60.2348 400.952C57.9093 403.206 55.1122 404.333 51.8437 404.333ZM123.156 335.208C119.888 335.208 117.089 334.079 114.759 331.821C112.434 329.567 111.271 326.856 111.271 323.687C111.271 320.519 112.434 317.806 114.759 315.548C117.089 313.294 119.888 312.167 123.156 312.167C126.425 312.167 129.224 313.294 131.553 315.548C133.879 317.806 135.042 320.519 135.042 323.687C135.042 326.856 133.879 329.567 131.553 331.821C129.224 334.079 126.425 335.208 123.156 335.208ZM87.5 404.333C84.2315 404.333 81.4345 403.206 79.1089 400.952C76.7793 398.694 75.6146 395.981 75.6146 392.812C75.6146 389.644 76.7793 386.931 79.1089 384.673C81.4345 382.419 84.2315 381.292 87.5 381.292C90.7685 381.292 93.5675 382.419 95.897 384.673C98.2226 386.931 99.3854 389.644 99.3854 392.812C99.3854 395.981 98.2226 398.694 95.897 400.952C93.5675 403.206 90.7685 404.333 87.5 404.333ZM123.156 404.333C119.888 404.333 117.089 403.206 114.759 400.952C112.434 398.694 111.271 395.981 111.271 392.812C111.271 389.644 112.434 386.931 114.759 384.673C117.089 382.419 119.888 381.292 123.156 381.292C126.425 381.292 129.224 382.419 131.553 384.673C133.879 386.931 135.042 389.644 135.042 392.812C135.042 395.981 133.879 398.694 131.553 400.952C129.224 403.206 126.425 404.333 123.156 404.333ZM123.156 369.771C119.888 369.771 117.089 368.642 114.759 366.384C112.434 364.129 111.271 361.418 111.271 358.25C111.271 355.082 112.434 352.369 114.759 350.11C117.089 347.856 119.888 346.729 123.156 346.729C126.425 346.729 129.224 347.856 131.553 350.11C133.879 352.369 135.042 355.082 135.042 358.25C135.042 361.418 133.879 364.129 131.553 366.384C129.224 368.642 126.425 369.771 123.156 369.771ZM87.5 369.771C84.2315 369.771 81.4345 368.642 79.1089 366.384C76.7793 364.129 75.6146 361.418 75.6146 358.25C75.6146 355.082 76.7793 352.369 79.1089 350.11C81.4345 347.856 84.2315 346.729 87.5 346.729C90.7685 346.729 93.5675 347.856 95.897 350.11C98.2226 352.369 99.3854 355.082 99.3854 358.25C99.3854 361.418 98.2226 364.129 95.897 366.384C93.5675 368.642 90.7685 369.771 87.5 369.771ZM87.5 335.208C84.2315 335.208 81.4345 334.079 79.1089 331.821C76.7793 329.567 75.6146 326.856 75.6146 323.687C75.6146 320.519 76.7793 317.806 79.1089 315.548C81.4345 313.294 84.2315 312.167 87.5 312.167C90.7685 312.167 93.5675 313.294 95.897 315.548C98.2226 317.806 99.3854 320.519 99.3854 323.687C99.3854 326.856 98.2226 329.567 95.897 331.821C93.5675 334.079 90.7685 335.208 87.5 335.208Z" fill="#DBEAF6"/>
<path d="M561 95.3333V26H498V52H444V26H381V95.3333H444V69.3333H462V156H498V182H561V112.667H498V138.667H480V69.3333H498V95.3333H561ZM426 78H399V43.3333H426V78ZM516 130H543V164.667H516V130ZM516 43.3333H543V78H516V43.3333Z" fill="#DBEAF6"/>
<g filter="url(#filter0_d_2077_29291)">
<rect x="144" y="120" width="240" height="243.288" rx="6.57534" fill="white" shape-rendering="crispEdges"/>
<line x1="229.068" y1="146.301" x2="229.068" y2="343.562" stroke="#D5D9DC" stroke-width="0.821918"/>
<line x1="157.151" y1="185.342" x2="370.849" y2="185.342" stroke="#D5D9DC" stroke-width="0.821918"/>
<line x1="157.151" y1="224.795" x2="370.849" y2="224.795" stroke="#D5D9DC" stroke-width="0.821918"/>
<line x1="157.151" y1="265.069" x2="370.849" y2="265.069" stroke="#D5D9DC" stroke-width="0.821918"/>
<line x1="157.151" y1="304.521" x2="370.849" y2="304.521" stroke="#D5D9DC" stroke-width="0.821918"/>
<line x1="299.753" y1="146.301" x2="299.753" y2="343.562" stroke="#D5D9DC" stroke-width="0.821918"/>
<rect x="180.904" y="154.027" width="24" height="24" rx="12" fill="#E2F0FF"/>
<path d="M193.953 161.463V171.027H192.505V162.911H192.449L190.161 164.405V163.023L192.547 161.463H193.953Z" fill="#1E75BA"/>
<path d="M260.42 171.027V169.981L263.656 166.628C264.002 166.264 264.287 165.945 264.511 165.671C264.738 165.394 264.908 165.131 265.02 164.882C265.132 164.633 265.188 164.368 265.188 164.088C265.188 163.77 265.113 163.496 264.964 163.266C264.814 163.032 264.611 162.853 264.352 162.729C264.094 162.601 263.803 162.537 263.479 162.537C263.136 162.537 262.837 162.607 262.582 162.748C262.327 162.888 262.131 163.085 261.994 163.341C261.857 163.596 261.788 163.895 261.788 164.237H260.411C260.411 163.655 260.545 163.146 260.812 162.71C261.08 162.274 261.447 161.936 261.914 161.697C262.381 161.454 262.912 161.333 263.507 161.333C264.108 161.333 264.637 161.452 265.095 161.692C265.555 161.929 265.915 162.252 266.173 162.663C266.432 163.071 266.561 163.532 266.561 164.046C266.561 164.401 266.494 164.748 266.36 165.087C266.229 165.427 266.001 165.805 265.674 166.222C265.347 166.636 264.892 167.139 264.31 167.73L262.409 169.72V169.79H266.715V171.027H260.42Z" fill="#3F4346"/>
<path d="M335.257 171.158C334.615 171.158 334.042 171.048 333.538 170.827C333.037 170.606 332.64 170.299 332.347 169.907C332.058 169.511 331.902 169.054 331.88 168.534H333.347C333.365 168.817 333.46 169.063 333.631 169.271C333.806 169.477 334.033 169.636 334.313 169.748C334.593 169.86 334.905 169.916 335.247 169.916C335.624 169.916 335.957 169.851 336.247 169.72C336.539 169.589 336.768 169.407 336.933 169.173C337.098 168.937 337.181 168.664 337.181 168.356C337.181 168.035 337.098 167.754 336.933 167.511C336.771 167.265 336.533 167.072 336.219 166.932C335.907 166.792 335.531 166.722 335.088 166.722H334.281V165.545H335.088C335.443 165.545 335.755 165.481 336.022 165.353C336.293 165.226 336.505 165.048 336.658 164.821C336.81 164.591 336.886 164.321 336.886 164.013C336.886 163.717 336.819 163.46 336.686 163.243C336.555 163.021 336.368 162.849 336.125 162.724C335.885 162.6 335.602 162.537 335.275 162.537C334.964 162.537 334.673 162.595 334.402 162.71C334.134 162.822 333.916 162.984 333.748 163.196C333.58 163.404 333.49 163.655 333.477 163.948H332.081C332.097 163.431 332.249 162.976 332.539 162.584C332.831 162.192 333.217 161.885 333.697 161.664C334.176 161.443 334.709 161.333 335.294 161.333C335.907 161.333 336.437 161.452 336.882 161.692C337.33 161.929 337.676 162.245 337.918 162.64C338.164 163.035 338.286 163.468 338.283 163.938C338.286 164.474 338.136 164.928 337.834 165.302C337.536 165.676 337.137 165.926 336.639 166.054V166.129C337.274 166.225 337.766 166.477 338.115 166.885C338.466 167.293 338.641 167.799 338.638 168.403C338.641 168.929 338.494 169.401 338.199 169.818C337.906 170.235 337.506 170.564 336.998 170.803C336.491 171.04 335.91 171.158 335.257 171.158Z" fill="#3F4346"/>
<rect x="323.507" y="193.479" width="24" height="24" rx="12" fill="#E2F0FF"/>
<path d="M335.266 210.61C334.839 210.604 334.419 210.526 334.005 210.377C333.594 210.227 333.22 209.978 332.884 209.629C332.548 209.281 332.279 208.812 332.076 208.224C331.877 207.635 331.777 206.901 331.777 206.02C331.777 205.185 331.86 204.444 332.025 203.797C332.193 203.149 332.434 202.603 332.749 202.158C333.063 201.709 333.443 201.368 333.888 201.135C334.333 200.901 334.833 200.785 335.387 200.785C335.957 200.785 336.463 200.897 336.905 201.121C337.347 201.345 337.705 201.655 337.979 202.05C338.256 202.445 338.432 202.895 338.507 203.4H337.083C336.986 203.001 336.795 202.676 336.508 202.424C336.222 202.172 335.848 202.045 335.387 202.045C334.687 202.045 334.14 202.351 333.748 202.961C333.359 203.571 333.163 204.419 333.16 205.506H333.23C333.395 205.235 333.597 205.005 333.837 204.815C334.08 204.622 334.351 204.474 334.649 204.371C334.951 204.265 335.269 204.212 335.602 204.212C336.156 204.212 336.658 204.348 337.106 204.619C337.557 204.886 337.917 205.257 338.185 205.73C338.452 206.203 338.586 206.745 338.586 207.355C338.586 207.965 338.448 208.518 338.171 209.013C337.897 209.508 337.511 209.9 337.013 210.19C336.514 210.476 335.932 210.616 335.266 210.61ZM335.261 209.396C335.629 209.396 335.957 209.306 336.247 209.125C336.536 208.945 336.765 208.702 336.933 208.397C337.101 208.092 337.185 207.751 337.185 207.374C337.185 207.007 337.103 206.672 336.938 206.37C336.776 206.068 336.552 205.828 336.265 205.651C335.982 205.473 335.658 205.384 335.294 205.384C335.017 205.384 334.76 205.437 334.523 205.543C334.29 205.649 334.084 205.795 333.907 205.982C333.729 206.169 333.589 206.384 333.487 206.627C333.387 206.866 333.337 207.12 333.337 207.388C333.337 207.746 333.42 208.078 333.585 208.383C333.753 208.688 333.982 208.934 334.271 209.12C334.564 209.304 334.894 209.396 335.261 209.396Z" fill="#1E75BA"/>
<path d="M335.107 240.237C335.534 240.24 335.954 240.318 336.368 240.47C336.782 240.623 337.156 240.872 337.489 241.217C337.825 241.563 338.093 242.03 338.292 242.618C338.494 243.204 338.597 243.932 338.6 244.804C338.6 245.641 338.516 246.387 338.348 247.041C338.18 247.692 337.939 248.241 337.624 248.689C337.313 249.138 336.935 249.479 336.489 249.712C336.044 249.946 335.543 250.062 334.986 250.062C334.416 250.062 333.91 249.95 333.468 249.726C333.026 249.502 332.666 249.192 332.389 248.797C332.112 248.398 331.939 247.941 331.871 247.424H333.295C333.389 247.835 333.579 248.168 333.865 248.423C334.154 248.675 334.528 248.802 334.986 248.802C335.686 248.802 336.233 248.496 336.625 247.886C337.017 247.273 337.215 246.417 337.218 245.318H337.143C336.981 245.585 336.779 245.816 336.536 246.009C336.296 246.202 336.027 246.351 335.728 246.457C335.429 246.563 335.11 246.616 334.771 246.616C334.22 246.616 333.719 246.481 333.267 246.21C332.816 245.939 332.456 245.567 332.188 245.094C331.921 244.62 331.787 244.08 331.787 243.473C331.787 242.869 331.924 242.321 332.198 241.829C332.475 241.337 332.861 240.948 333.356 240.662C333.854 240.372 334.438 240.231 335.107 240.237ZM335.112 241.451C334.748 241.451 334.419 241.541 334.126 241.722C333.837 241.899 333.608 242.141 333.44 242.446C333.272 242.748 333.188 243.084 333.188 243.454C333.188 243.825 333.269 244.161 333.431 244.463C333.596 244.762 333.82 245 334.103 245.178C334.39 245.352 334.716 245.439 335.084 245.439C335.358 245.439 335.613 245.386 335.85 245.28C336.086 245.174 336.293 245.028 336.471 244.841C336.648 244.651 336.787 244.437 336.886 244.197C336.986 243.957 337.036 243.705 337.036 243.44C337.036 243.089 336.952 242.762 336.784 242.46C336.619 242.158 336.391 241.915 336.102 241.731C335.812 241.544 335.482 241.451 335.112 241.451Z" fill="#3F4346"/>
<path d="M335.532 290.206L337.101 280.641H338.222L336.653 290.206H335.532ZM331.203 287.646L331.385 286.526H338.633L338.451 287.646H331.203ZM332.17 290.206L333.739 280.641H334.86L333.291 290.206H332.17ZM331.759 284.321L331.941 283.201H339.189L339.007 284.321H331.759Z" fill="#3F4346"/>
<path d="M336.262 328.35L336.192 328.859C336.145 329.233 336.066 329.622 335.954 330.027C335.845 330.434 335.731 330.813 335.613 331.161C335.498 331.51 335.403 331.787 335.328 331.993H334.338C334.379 331.8 334.435 331.538 334.506 331.208C334.578 330.881 334.648 330.515 334.716 330.111C334.785 329.706 334.836 329.293 334.871 328.873L334.917 328.35H336.262ZM335.534 324.525C335.278 324.525 335.059 324.433 334.875 324.25C334.692 324.066 334.6 323.847 334.6 323.591C334.6 323.336 334.692 323.118 334.875 322.937C335.059 322.754 335.278 322.662 335.534 322.662C335.789 322.662 336.008 322.754 336.192 322.937C336.376 323.118 336.468 323.336 336.468 323.591C336.468 323.763 336.424 323.92 336.337 324.063C336.253 324.203 336.141 324.315 336.001 324.399C335.861 324.483 335.705 324.525 335.534 324.525Z" fill="#3F4346"/>
<path d="M263.25 329.05V322.737H264.506V329.05H263.25ZM260.724 326.519V325.263H267.037V326.519H260.724Z" fill="#3F4346"/>
<path d="M193.248 328.35L193.178 328.859C193.132 329.233 193.052 329.622 192.94 330.027C192.831 330.434 192.718 330.813 192.599 331.161C192.484 331.51 192.389 331.787 192.314 331.993H191.324C191.365 331.8 191.421 331.538 191.493 331.208C191.564 330.881 191.634 330.515 191.703 330.111C191.771 329.706 191.823 329.293 191.857 328.873L191.904 328.35H193.248Z" fill="#3F4346"/>
<path d="M191.917 286.021L192.005 284.051L190.343 285.12L189.834 284.233L191.599 283.331L189.834 282.43L190.343 281.543L192.005 282.612L191.917 280.641H192.93L192.841 282.612L194.504 281.543L195.013 282.43L193.248 283.331L195.013 284.233L194.504 285.12L192.841 284.051L192.93 286.021H191.917Z" fill="#3F4346"/>
<rect x="180.493" y="232.932" width="24" height="24" rx="12" fill="#E2F0FF"/>
<path d="M189.735 249.932L193.91 241.675V241.605H189.082V240.368H195.405V241.647L191.244 249.932H189.735Z" fill="#1E75BA"/>
<path d="M188.712 208.611V207.444L192.845 200.915H193.765V202.634H193.182L190.225 207.313V207.388H195.89V208.611H188.712ZM193.247 210.479V208.257L193.256 207.724V200.915H194.625V210.479H193.247Z" fill="#3F4346"/>
<path d="M263.577 210.61C262.992 210.61 262.465 210.498 261.998 210.274C261.535 210.047 261.164 209.735 260.887 209.34C260.61 208.945 260.462 208.493 260.443 207.986H261.844C261.879 208.397 262.061 208.734 262.391 208.999C262.721 209.264 263.116 209.396 263.577 209.396C263.944 209.396 264.27 209.312 264.553 209.144C264.839 208.973 265.064 208.738 265.225 208.439C265.39 208.14 265.473 207.799 265.473 207.416C265.473 207.027 265.389 206.68 265.221 206.375C265.053 206.069 264.821 205.83 264.525 205.655C264.232 205.481 263.896 205.392 263.516 205.389C263.227 205.389 262.936 205.439 262.643 205.539C262.35 205.638 262.114 205.769 261.933 205.931L260.611 205.735L261.149 200.915H266.407V202.153H262.349L262.045 204.829H262.101C262.288 204.648 262.535 204.497 262.844 204.376C263.155 204.254 263.488 204.194 263.843 204.194C264.425 204.194 264.944 204.332 265.398 204.609C265.856 204.886 266.215 205.265 266.477 205.744C266.742 206.22 266.872 206.768 266.869 207.388C266.872 208.007 266.732 208.56 266.449 209.046C266.169 209.531 265.78 209.914 265.281 210.195C264.786 210.472 264.218 210.61 263.577 210.61Z" fill="#3F4346"/>
<path d="M263.652 250.062C262.982 250.062 262.391 249.947 261.877 249.717C261.366 249.486 260.966 249.169 260.677 248.764C260.387 248.359 260.244 247.899 260.247 247.382C260.244 246.977 260.327 246.605 260.495 246.266C260.666 245.923 260.898 245.638 261.191 245.411C261.483 245.181 261.81 245.034 262.171 244.972V244.916C261.695 244.801 261.314 244.546 261.027 244.15C260.741 243.755 260.599 243.3 260.602 242.787C260.599 242.298 260.728 241.862 260.99 241.479C261.254 241.093 261.617 240.789 262.078 240.568C262.539 240.347 263.063 240.237 263.652 240.237C264.234 240.237 264.754 240.349 265.211 240.573C265.672 240.794 266.035 241.098 266.3 241.484C266.564 241.867 266.698 242.301 266.701 242.787C266.698 243.3 266.552 243.755 266.262 244.15C265.973 244.546 265.596 244.801 265.132 244.916V244.972C265.49 245.034 265.812 245.181 266.099 245.411C266.388 245.638 266.619 245.923 266.79 246.266C266.964 246.605 267.053 246.977 267.056 247.382C267.053 247.899 266.907 248.359 266.617 248.764C266.328 249.169 265.926 249.486 265.412 249.717C264.902 249.947 264.315 250.062 263.652 250.062ZM263.652 248.881C264.047 248.881 264.389 248.816 264.679 248.685C264.969 248.551 265.193 248.366 265.351 248.129C265.51 247.889 265.591 247.609 265.594 247.288C265.591 246.955 265.504 246.661 265.333 246.406C265.165 246.151 264.936 245.95 264.646 245.803C264.357 245.657 264.025 245.584 263.652 245.584C263.275 245.584 262.94 245.657 262.648 245.803C262.355 245.95 262.125 246.151 261.956 246.406C261.788 246.661 261.706 246.955 261.709 247.288C261.706 247.609 261.782 247.889 261.938 248.129C262.097 248.366 262.322 248.551 262.615 248.685C262.908 248.816 263.253 248.881 263.652 248.881ZM263.652 244.43C263.969 244.43 264.251 244.367 264.497 244.239C264.743 244.111 264.936 243.934 265.076 243.707C265.219 243.479 265.292 243.213 265.295 242.908C265.292 242.609 265.221 242.348 265.081 242.123C264.944 241.899 264.752 241.726 264.506 241.605C264.26 241.481 263.975 241.418 263.652 241.418C263.322 241.418 263.032 241.481 262.783 241.605C262.537 241.726 262.346 241.899 262.209 242.123C262.072 242.348 262.005 242.609 262.008 242.908C262.005 243.213 262.073 243.479 262.213 243.707C262.353 243.934 262.546 244.111 262.792 244.239C263.041 244.367 263.328 244.43 263.652 244.43Z" fill="#3F4346"/>
<path d="M263.75 290.364C263.012 290.361 262.381 290.167 261.858 289.781C261.335 289.395 260.935 288.833 260.658 288.095C260.381 287.357 260.243 286.468 260.243 285.428C260.243 284.391 260.381 283.506 260.658 282.771C260.938 282.036 261.34 281.476 261.863 281.09C262.389 280.704 263.018 280.511 263.75 280.511C264.481 280.511 265.109 280.705 265.632 281.094C266.155 281.48 266.555 282.041 266.832 282.776C267.112 283.507 267.252 284.391 267.252 285.428C267.252 286.471 267.114 287.362 266.837 288.099C266.559 288.834 266.159 289.396 265.636 289.785C265.113 290.171 264.484 290.364 263.75 290.364ZM263.75 289.117C264.397 289.117 264.903 288.801 265.267 288.169C265.635 287.537 265.818 286.624 265.818 285.428C265.818 284.634 265.734 283.963 265.566 283.415C265.401 282.864 265.163 282.447 264.852 282.164C264.544 281.877 264.176 281.734 263.75 281.734C263.105 281.734 262.599 282.052 262.232 282.687C261.865 283.322 261.679 284.236 261.676 285.428C261.676 286.225 261.759 286.899 261.924 287.45C262.092 287.998 262.33 288.414 262.638 288.697C262.946 288.977 263.317 289.117 263.75 289.117Z" fill="#3F4346"/>
</g>
<rect x="40" y="40" width="87" height="40" rx="4" fill="#1E75BA"/>
<path d="M57.2784 65.5V53.8636H61.4261C62.3314 53.8636 63.0814 54.0284 63.6761 54.358C64.2708 54.6875 64.7159 55.1383 65.0114 55.7102C65.3068 56.2784 65.4545 56.9186 65.4545 57.6307C65.4545 58.3466 65.3049 58.9905 65.0057 59.5625C64.7102 60.1307 64.2633 60.5814 63.6648 60.9148C63.0701 61.2443 62.322 61.4091 61.4205 61.4091H58.5682V59.9205H61.2614C61.8333 59.9205 62.2973 59.822 62.6534 59.625C63.0095 59.4242 63.2708 59.1515 63.4375 58.8068C63.6042 58.4621 63.6875 58.0701 63.6875 57.6307C63.6875 57.1913 63.6042 56.8011 63.4375 56.4602C63.2708 56.1193 63.0076 55.8523 62.6477 55.6591C62.2917 55.4659 61.822 55.3693 61.2386 55.3693H59.0341V65.5H57.2784ZM67.3764 65.5V56.7727H69.0185V58.1591H69.1094C69.2685 57.6894 69.5488 57.3201 69.9503 57.0511C70.3556 56.7784 70.8139 56.642 71.3253 56.642C71.4313 56.642 71.5563 56.6458 71.7003 56.6534C71.848 56.661 71.9635 56.6705 72.0469 56.6818V58.3068C71.9787 58.2879 71.8575 58.267 71.6832 58.2443C71.509 58.2178 71.3348 58.2045 71.1605 58.2045C70.759 58.2045 70.401 58.2898 70.0866 58.4602C69.776 58.6269 69.5298 58.8598 69.348 59.1591C69.1662 59.4545 69.0753 59.7917 69.0753 60.1705V65.5H67.3764ZM76.9659 65.6761C76.1061 65.6761 75.3655 65.4924 74.7443 65.125C74.1269 64.7538 73.6496 64.233 73.3125 63.5625C72.9792 62.8883 72.8125 62.0985 72.8125 61.1932C72.8125 60.2992 72.9792 59.5114 73.3125 58.8295C73.6496 58.1477 74.1193 57.6155 74.7216 57.233C75.3277 56.8504 76.036 56.6591 76.8466 56.6591C77.339 56.6591 77.8163 56.7405 78.2784 56.9034C78.7405 57.0663 79.1553 57.322 79.5227 57.6705C79.8902 58.0189 80.1799 58.4716 80.392 59.0284C80.6042 59.5814 80.7102 60.2538 80.7102 61.0455V61.6477H73.7727V60.375H79.0455C79.0455 59.928 78.9545 59.5322 78.7727 59.1875C78.5909 58.839 78.3352 58.5644 78.0057 58.3636C77.6799 58.1629 77.2973 58.0625 76.858 58.0625C76.3807 58.0625 75.964 58.1799 75.608 58.4148C75.2557 58.6458 74.983 58.9489 74.7898 59.3239C74.6004 59.6951 74.5057 60.0985 74.5057 60.5341V61.5284C74.5057 62.1117 74.608 62.608 74.8125 63.017C75.0208 63.4261 75.3106 63.7386 75.6818 63.9545C76.053 64.1667 76.4867 64.2727 76.983 64.2727C77.3049 64.2727 77.5985 64.2273 77.8636 64.1364C78.1288 64.0417 78.358 63.9015 78.5511 63.7159C78.7443 63.5303 78.892 63.3011 78.9943 63.0284L80.6023 63.3182C80.4735 63.7917 80.2424 64.2064 79.9091 64.5625C79.5795 64.9148 79.1648 65.1894 78.6648 65.3864C78.1686 65.5795 77.6023 65.6761 76.9659 65.6761ZM89.1349 58.9034L87.5952 59.1761C87.5308 58.9792 87.4285 58.7917 87.2884 58.6136C87.152 58.4356 86.9664 58.2898 86.7315 58.1761C86.4967 58.0625 86.2031 58.0057 85.8509 58.0057C85.3698 58.0057 84.9683 58.1136 84.6463 58.3295C84.3243 58.5417 84.1634 58.8163 84.1634 59.1534C84.1634 59.4451 84.2713 59.6799 84.4872 59.858C84.7031 60.036 85.0516 60.1818 85.5327 60.2955L86.919 60.6136C87.7221 60.7992 88.3205 61.0852 88.7145 61.4716C89.1084 61.858 89.3054 62.3598 89.3054 62.9773C89.3054 63.5 89.1539 63.9659 88.8509 64.375C88.5516 64.7803 88.133 65.0985 87.5952 65.3295C87.0611 65.5606 86.4418 65.6761 85.7372 65.6761C84.7599 65.6761 83.9626 65.4678 83.3452 65.0511C82.7277 64.6307 82.349 64.0341 82.2088 63.2614L83.8509 63.0114C83.9531 63.4394 84.1634 63.7633 84.4815 63.983C84.7997 64.1989 85.2145 64.3068 85.7259 64.3068C86.2827 64.3068 86.7277 64.1913 87.0611 63.9602C87.3944 63.7254 87.5611 63.4394 87.5611 63.1023C87.5611 62.8295 87.4588 62.6004 87.2543 62.4148C87.0535 62.2292 86.7448 62.089 86.3281 61.9943L84.8509 61.6705C84.0365 61.4848 83.4342 61.1894 83.044 60.7841C82.6577 60.3788 82.4645 59.8655 82.4645 59.2443C82.4645 58.7292 82.6084 58.2784 82.8963 57.892C83.1842 57.5057 83.5819 57.2045 84.0895 56.9886C84.5971 56.7689 85.1785 56.6591 85.8338 56.6591C86.777 56.6591 87.5194 56.8636 88.0611 57.2727C88.6027 57.678 88.9607 58.2216 89.1349 58.9034ZM97.7131 58.9034L96.1733 59.1761C96.1089 58.9792 96.0066 58.7917 95.8665 58.6136C95.7301 58.4356 95.5445 58.2898 95.3097 58.1761C95.0748 58.0625 94.7813 58.0057 94.429 58.0057C93.9479 58.0057 93.5464 58.1136 93.2244 58.3295C92.9025 58.5417 92.7415 58.8163 92.7415 59.1534C92.7415 59.4451 92.8494 59.6799 93.0653 59.858C93.2813 60.036 93.6297 60.1818 94.1108 60.2955L95.4972 60.6136C96.3002 60.7992 96.8987 61.0852 97.2926 61.4716C97.6866 61.858 97.8835 62.3598 97.8835 62.9773C97.8835 63.5 97.732 63.9659 97.429 64.375C97.1297 64.7803 96.7112 65.0985 96.1733 65.3295C95.6392 65.5606 95.0199 65.6761 94.3153 65.6761C93.3381 65.6761 92.5407 65.4678 91.9233 65.0511C91.3059 64.6307 90.9271 64.0341 90.7869 63.2614L92.429 63.0114C92.5313 63.4394 92.7415 63.7633 93.0597 63.983C93.3778 64.1989 93.7926 64.3068 94.304 64.3068C94.8608 64.3068 95.3059 64.1913 95.6392 63.9602C95.9725 63.7254 96.1392 63.4394 96.1392 63.1023C96.1392 62.8295 96.0369 62.6004 95.8324 62.4148C95.6316 62.2292 95.3229 62.089 94.9062 61.9943L93.429 61.6705C92.6146 61.4848 92.0123 61.1894 91.6222 60.7841C91.2358 60.3788 91.0426 59.8655 91.0426 59.2443C91.0426 58.7292 91.1866 58.2784 91.4744 57.892C91.7623 57.5057 92.16 57.2045 92.6676 56.9886C93.1752 56.7689 93.7566 56.6591 94.4119 56.6591C95.3551 56.6591 96.0975 56.8636 96.6392 57.2727C97.1809 57.678 97.5388 58.2216 97.7131 58.9034ZM108.378 53.8636V65.5H106.616V55.625H106.548L103.764 57.4432V55.7614L106.668 53.8636H108.378Z" fill="white"/>
<rect x="147" y="408" width="89" height="40" rx="4" fill="#1E75BA"/>
<path d="M164.278 433.5V421.864H168.426C169.331 421.864 170.081 422.028 170.676 422.358C171.271 422.687 171.716 423.138 172.011 423.71C172.307 424.278 172.455 424.919 172.455 425.631C172.455 426.347 172.305 426.991 172.006 427.562C171.71 428.131 171.263 428.581 170.665 428.915C170.07 429.244 169.322 429.409 168.42 429.409H165.568V427.92H168.261C168.833 427.92 169.297 427.822 169.653 427.625C170.009 427.424 170.271 427.152 170.438 426.807C170.604 426.462 170.688 426.07 170.688 425.631C170.688 425.191 170.604 424.801 170.438 424.46C170.271 424.119 170.008 423.852 169.648 423.659C169.292 423.466 168.822 423.369 168.239 423.369H166.034V433.5H164.278ZM174.376 433.5V424.773H176.018V426.159H176.109C176.268 425.689 176.549 425.32 176.95 425.051C177.356 424.778 177.814 424.642 178.325 424.642C178.431 424.642 178.556 424.646 178.7 424.653C178.848 424.661 178.964 424.67 179.047 424.682V426.307C178.979 426.288 178.857 426.267 178.683 426.244C178.509 426.218 178.335 426.205 178.161 426.205C177.759 426.205 177.401 426.29 177.087 426.46C176.776 426.627 176.53 426.86 176.348 427.159C176.166 427.455 176.075 427.792 176.075 428.17V433.5H174.376ZM183.966 433.676C183.106 433.676 182.366 433.492 181.744 433.125C181.127 432.754 180.65 432.233 180.312 431.562C179.979 430.888 179.812 430.098 179.812 429.193C179.812 428.299 179.979 427.511 180.312 426.83C180.65 426.148 181.119 425.616 181.722 425.233C182.328 424.85 183.036 424.659 183.847 424.659C184.339 424.659 184.816 424.741 185.278 424.903C185.741 425.066 186.155 425.322 186.523 425.67C186.89 426.019 187.18 426.472 187.392 427.028C187.604 427.581 187.71 428.254 187.71 429.045V429.648H180.773V428.375H186.045C186.045 427.928 185.955 427.532 185.773 427.188C185.591 426.839 185.335 426.564 185.006 426.364C184.68 426.163 184.297 426.062 183.858 426.062C183.381 426.062 182.964 426.18 182.608 426.415C182.256 426.646 181.983 426.949 181.79 427.324C181.6 427.695 181.506 428.098 181.506 428.534V429.528C181.506 430.112 181.608 430.608 181.812 431.017C182.021 431.426 182.311 431.739 182.682 431.955C183.053 432.167 183.487 432.273 183.983 432.273C184.305 432.273 184.598 432.227 184.864 432.136C185.129 432.042 185.358 431.902 185.551 431.716C185.744 431.53 185.892 431.301 185.994 431.028L187.602 431.318C187.473 431.792 187.242 432.206 186.909 432.562C186.58 432.915 186.165 433.189 185.665 433.386C185.169 433.58 184.602 433.676 183.966 433.676ZM196.135 426.903L194.595 427.176C194.531 426.979 194.429 426.792 194.288 426.614C194.152 426.436 193.966 426.29 193.732 426.176C193.497 426.062 193.203 426.006 192.851 426.006C192.37 426.006 191.968 426.114 191.646 426.33C191.324 426.542 191.163 426.816 191.163 427.153C191.163 427.445 191.271 427.68 191.487 427.858C191.703 428.036 192.052 428.182 192.533 428.295L193.919 428.614C194.722 428.799 195.321 429.085 195.714 429.472C196.108 429.858 196.305 430.36 196.305 430.977C196.305 431.5 196.154 431.966 195.851 432.375C195.552 432.78 195.133 433.098 194.595 433.33C194.061 433.561 193.442 433.676 192.737 433.676C191.76 433.676 190.963 433.468 190.345 433.051C189.728 432.631 189.349 432.034 189.209 431.261L190.851 431.011C190.953 431.439 191.163 431.763 191.482 431.983C191.8 432.199 192.214 432.307 192.726 432.307C193.283 432.307 193.728 432.191 194.061 431.96C194.394 431.725 194.561 431.439 194.561 431.102C194.561 430.83 194.459 430.6 194.254 430.415C194.054 430.229 193.745 430.089 193.328 429.994L191.851 429.67C191.036 429.485 190.434 429.189 190.044 428.784C189.658 428.379 189.464 427.866 189.464 427.244C189.464 426.729 189.608 426.278 189.896 425.892C190.184 425.506 190.582 425.205 191.089 424.989C191.597 424.769 192.179 424.659 192.834 424.659C193.777 424.659 194.519 424.864 195.061 425.273C195.603 425.678 195.961 426.222 196.135 426.903ZM204.713 426.903L203.173 427.176C203.109 426.979 203.007 426.792 202.866 426.614C202.73 426.436 202.545 426.29 202.31 426.176C202.075 426.062 201.781 426.006 201.429 426.006C200.948 426.006 200.546 426.114 200.224 426.33C199.902 426.542 199.741 426.816 199.741 427.153C199.741 427.445 199.849 427.68 200.065 427.858C200.281 428.036 200.63 428.182 201.111 428.295L202.497 428.614C203.3 428.799 203.899 429.085 204.293 429.472C204.687 429.858 204.884 430.36 204.884 430.977C204.884 431.5 204.732 431.966 204.429 432.375C204.13 432.78 203.711 433.098 203.173 433.33C202.639 433.561 202.02 433.676 201.315 433.676C200.338 433.676 199.541 433.468 198.923 433.051C198.306 432.631 197.927 432.034 197.787 431.261L199.429 431.011C199.531 431.439 199.741 431.763 200.06 431.983C200.378 432.199 200.793 432.307 201.304 432.307C201.861 432.307 202.306 432.191 202.639 431.96C202.973 431.725 203.139 431.439 203.139 431.102C203.139 430.83 203.037 430.6 202.832 430.415C202.632 430.229 202.323 430.089 201.906 429.994L200.429 429.67C199.615 429.485 199.012 429.189 198.622 428.784C198.236 428.379 198.043 427.866 198.043 427.244C198.043 426.729 198.187 426.278 198.474 425.892C198.762 425.506 199.16 425.205 199.668 424.989C200.175 424.769 200.757 424.659 201.412 424.659C202.355 424.659 203.098 424.864 203.639 425.273C204.181 425.678 204.539 426.222 204.713 426.903ZM211.355 433.5L216.435 423.455V423.369H210.56V421.864H218.253V423.42L213.19 433.5H211.355Z" fill="white"/>
<rect x="455" y="185" width="90" height="40" rx="4" fill="#1E75BA"/>
<path d="M472.278 210.5V198.864H476.426C477.331 198.864 478.081 199.028 478.676 199.358C479.271 199.687 479.716 200.138 480.011 200.71C480.307 201.278 480.455 201.919 480.455 202.631C480.455 203.347 480.305 203.991 480.006 204.562C479.71 205.131 479.263 205.581 478.665 205.915C478.07 206.244 477.322 206.409 476.42 206.409H473.568V204.92H476.261C476.833 204.92 477.297 204.822 477.653 204.625C478.009 204.424 478.271 204.152 478.438 203.807C478.604 203.462 478.688 203.07 478.688 202.631C478.688 202.191 478.604 201.801 478.438 201.46C478.271 201.119 478.008 200.852 477.648 200.659C477.292 200.466 476.822 200.369 476.239 200.369H474.034V210.5H472.278ZM482.376 210.5V201.773H484.018V203.159H484.109C484.268 202.689 484.549 202.32 484.95 202.051C485.356 201.778 485.814 201.642 486.325 201.642C486.431 201.642 486.556 201.646 486.7 201.653C486.848 201.661 486.964 201.67 487.047 201.682V203.307C486.979 203.288 486.857 203.267 486.683 203.244C486.509 203.218 486.335 203.205 486.161 203.205C485.759 203.205 485.401 203.29 485.087 203.46C484.776 203.627 484.53 203.86 484.348 204.159C484.166 204.455 484.075 204.792 484.075 205.17V210.5H482.376ZM491.966 210.676C491.106 210.676 490.366 210.492 489.744 210.125C489.127 209.754 488.65 209.233 488.312 208.562C487.979 207.888 487.812 207.098 487.812 206.193C487.812 205.299 487.979 204.511 488.312 203.83C488.65 203.148 489.119 202.616 489.722 202.233C490.328 201.85 491.036 201.659 491.847 201.659C492.339 201.659 492.816 201.741 493.278 201.903C493.741 202.066 494.155 202.322 494.523 202.67C494.89 203.019 495.18 203.472 495.392 204.028C495.604 204.581 495.71 205.254 495.71 206.045V206.648H488.773V205.375H494.045C494.045 204.928 493.955 204.532 493.773 204.188C493.591 203.839 493.335 203.564 493.006 203.364C492.68 203.163 492.297 203.062 491.858 203.062C491.381 203.062 490.964 203.18 490.608 203.415C490.256 203.646 489.983 203.949 489.79 204.324C489.6 204.695 489.506 205.098 489.506 205.534V206.528C489.506 207.112 489.608 207.608 489.812 208.017C490.021 208.426 490.311 208.739 490.682 208.955C491.053 209.167 491.487 209.273 491.983 209.273C492.305 209.273 492.598 209.227 492.864 209.136C493.129 209.042 493.358 208.902 493.551 208.716C493.744 208.53 493.892 208.301 493.994 208.028L495.602 208.318C495.473 208.792 495.242 209.206 494.909 209.562C494.58 209.915 494.165 210.189 493.665 210.386C493.169 210.58 492.602 210.676 491.966 210.676ZM504.135 203.903L502.595 204.176C502.531 203.979 502.429 203.792 502.288 203.614C502.152 203.436 501.966 203.29 501.732 203.176C501.497 203.062 501.203 203.006 500.851 203.006C500.37 203.006 499.968 203.114 499.646 203.33C499.324 203.542 499.163 203.816 499.163 204.153C499.163 204.445 499.271 204.68 499.487 204.858C499.703 205.036 500.052 205.182 500.533 205.295L501.919 205.614C502.722 205.799 503.321 206.085 503.714 206.472C504.108 206.858 504.305 207.36 504.305 207.977C504.305 208.5 504.154 208.966 503.851 209.375C503.552 209.78 503.133 210.098 502.595 210.33C502.061 210.561 501.442 210.676 500.737 210.676C499.76 210.676 498.963 210.468 498.345 210.051C497.728 209.631 497.349 209.034 497.209 208.261L498.851 208.011C498.953 208.439 499.163 208.763 499.482 208.983C499.8 209.199 500.214 209.307 500.726 209.307C501.283 209.307 501.728 209.191 502.061 208.96C502.394 208.725 502.561 208.439 502.561 208.102C502.561 207.83 502.459 207.6 502.254 207.415C502.054 207.229 501.745 207.089 501.328 206.994L499.851 206.67C499.036 206.485 498.434 206.189 498.044 205.784C497.658 205.379 497.464 204.866 497.464 204.244C497.464 203.729 497.608 203.278 497.896 202.892C498.184 202.506 498.582 202.205 499.089 201.989C499.597 201.769 500.179 201.659 500.834 201.659C501.777 201.659 502.519 201.864 503.061 202.273C503.603 202.678 503.961 203.222 504.135 203.903ZM512.713 203.903L511.173 204.176C511.109 203.979 511.007 203.792 510.866 203.614C510.73 203.436 510.545 203.29 510.31 203.176C510.075 203.062 509.781 203.006 509.429 203.006C508.948 203.006 508.546 203.114 508.224 203.33C507.902 203.542 507.741 203.816 507.741 204.153C507.741 204.445 507.849 204.68 508.065 204.858C508.281 205.036 508.63 205.182 509.111 205.295L510.497 205.614C511.3 205.799 511.899 206.085 512.293 206.472C512.687 206.858 512.884 207.36 512.884 207.977C512.884 208.5 512.732 208.966 512.429 209.375C512.13 209.78 511.711 210.098 511.173 210.33C510.639 210.561 510.02 210.676 509.315 210.676C508.338 210.676 507.541 210.468 506.923 210.051C506.306 209.631 505.927 209.034 505.787 208.261L507.429 208.011C507.531 208.439 507.741 208.763 508.06 208.983C508.378 209.199 508.793 209.307 509.304 209.307C509.861 209.307 510.306 209.191 510.639 208.96C510.973 208.725 511.139 208.439 511.139 208.102C511.139 207.83 511.037 207.6 510.832 207.415C510.632 207.229 510.323 207.089 509.906 206.994L508.429 206.67C507.615 206.485 507.012 206.189 506.622 205.784C506.236 205.379 506.043 204.866 506.043 204.244C506.043 203.729 506.187 203.278 506.474 202.892C506.762 202.506 507.16 202.205 507.668 201.989C508.175 201.769 508.757 201.659 509.412 201.659C510.355 201.659 511.098 201.864 511.639 202.273C512.181 202.678 512.539 203.222 512.713 203.903ZM523.026 210.659C522.507 210.652 521.995 210.557 521.491 210.375C520.991 210.193 520.537 209.89 520.128 209.466C519.719 209.042 519.391 208.472 519.145 207.756C518.902 207.04 518.781 206.146 518.781 205.074C518.781 204.059 518.882 203.157 519.082 202.369C519.287 201.581 519.58 200.917 519.963 200.375C520.346 199.83 520.808 199.415 521.349 199.131C521.891 198.847 522.499 198.705 523.173 198.705C523.866 198.705 524.482 198.841 525.02 199.114C525.558 199.386 525.993 199.763 526.327 200.244C526.664 200.725 526.878 201.273 526.969 201.886H525.236C525.118 201.402 524.885 201.006 524.537 200.699C524.188 200.392 523.734 200.239 523.173 200.239C522.321 200.239 521.656 200.61 521.179 201.352C520.705 202.095 520.467 203.127 520.463 204.449H520.548C520.749 204.119 520.995 203.839 521.287 203.608C521.582 203.373 521.912 203.193 522.276 203.068C522.643 202.939 523.029 202.875 523.435 202.875C524.109 202.875 524.719 203.04 525.264 203.369C525.813 203.695 526.251 204.146 526.577 204.722C526.902 205.297 527.065 205.956 527.065 206.699C527.065 207.441 526.897 208.114 526.56 208.716C526.226 209.318 525.757 209.795 525.151 210.148C524.545 210.496 523.836 210.667 523.026 210.659ZM523.02 209.182C523.467 209.182 523.866 209.072 524.219 208.852C524.571 208.633 524.849 208.337 525.054 207.966C525.259 207.595 525.361 207.18 525.361 206.722C525.361 206.275 525.26 205.867 525.06 205.5C524.863 205.133 524.59 204.841 524.241 204.625C523.897 204.409 523.503 204.301 523.06 204.301C522.723 204.301 522.41 204.366 522.122 204.494C521.838 204.623 521.588 204.801 521.372 205.028C521.156 205.256 520.986 205.517 520.861 205.812C520.74 206.104 520.679 206.413 520.679 206.739C520.679 207.174 520.779 207.578 520.98 207.949C521.185 208.32 521.463 208.619 521.815 208.847C522.171 209.07 522.573 209.182 523.02 209.182Z" fill="white"/>
<path d="M451.707 206.187C452.098 205.796 452.098 205.163 451.707 204.772L445.343 198.408C444.953 198.018 444.319 198.018 443.929 198.408C443.538 198.799 443.538 199.432 443.929 199.823L449.586 205.479L443.929 211.136C443.538 211.527 443.538 212.16 443.929 212.551C444.319 212.941 444.953 212.941 445.343 212.551L451.707 206.187ZM351.507 204.479C350.955 204.479 350.507 204.927 350.507 205.479C350.507 206.032 350.955 206.479 351.507 206.479V204.479ZM451 204.479H351.507V206.479H451V204.479Z" fill="#8F9396"/>
<path d="M84.2071 83.2929C83.8166 82.9024 83.1834 82.9024 82.7929 83.2929L76.4289 89.6569C76.0384 90.0474 76.0384 90.6805 76.4289 91.0711C76.8195 91.4616 77.4526 91.4616 77.8431 91.0711L83.5 85.4142L89.1569 91.0711C89.5474 91.4616 90.1805 91.4616 90.5711 91.0711C90.9616 90.6805 90.9616 90.0474 90.5711 89.6569L84.2071 83.2929ZM176.904 167.027C177.456 167.027 177.904 166.58 177.904 166.027C177.904 165.475 177.456 165.027 176.904 165.027V167.027ZM82.5 84V142.027H84.5V84H82.5ZM107.5 167.027H176.904V165.027H107.5V167.027ZM82.5 142.027C82.5 155.835 93.6929 167.027 107.5 167.027V165.027C94.7975 165.027 84.5 154.73 84.5 142.027H82.5Z" fill="#8F9396"/>
<g filter="url(#filter1_d_2077_29291)">
<rect x="174" y="40" width="174" height="40" rx="20" fill="white" shape-rendering="crispEdges"/>
<path d="M200.943 58.1477H199.17C199.102 57.7689 198.975 57.4356 198.79 57.1477C198.604 56.8598 198.377 56.6155 198.108 56.4148C197.839 56.214 197.538 56.0625 197.205 55.9602C196.875 55.858 196.525 55.8068 196.153 55.8068C195.483 55.8068 194.883 55.9754 194.352 56.3125C193.826 56.6496 193.409 57.1439 193.102 57.7955C192.799 58.447 192.648 59.2424 192.648 60.1818C192.648 61.1288 192.799 61.928 193.102 62.5795C193.409 63.2311 193.828 63.7235 194.358 64.0568C194.888 64.3902 195.485 64.5568 196.148 64.5568C196.515 64.5568 196.864 64.5076 197.193 64.4091C197.527 64.3068 197.828 64.1572 198.097 63.9602C198.366 63.7633 198.593 63.5227 198.778 63.2386C198.968 62.9508 199.098 62.6212 199.17 62.25L200.943 62.2557C200.848 62.8277 200.665 63.3542 200.392 63.8352C200.123 64.3125 199.777 64.7254 199.352 65.0739C198.932 65.4186 198.451 65.6856 197.909 65.875C197.367 66.0644 196.777 66.1591 196.136 66.1591C195.129 66.1591 194.231 65.9205 193.443 65.4432C192.655 64.9621 192.034 64.2746 191.58 63.3807C191.129 62.4867 190.903 61.4205 190.903 60.1818C190.903 58.9394 191.131 57.8731 191.585 56.983C192.04 56.089 192.661 55.4034 193.449 54.9261C194.237 54.4451 195.133 54.2045 196.136 54.2045C196.754 54.2045 197.33 54.2936 197.864 54.4716C198.402 54.6458 198.884 54.9034 199.312 55.2443C199.741 55.5814 200.095 55.9943 200.375 56.483C200.655 56.9678 200.845 57.5227 200.943 58.1477ZM208.436 62.3807V57.2727H210.141V66H208.47V64.4886H208.379C208.179 64.9545 207.857 65.3428 207.413 65.6534C206.974 65.9602 206.427 66.1136 205.771 66.1136C205.211 66.1136 204.714 65.9905 204.283 65.7443C203.855 65.4943 203.518 65.125 203.271 64.6364C203.029 64.1477 202.908 63.5436 202.908 62.8239V57.2727H204.607V62.6193C204.607 63.214 204.771 63.6875 205.101 64.0398C205.43 64.392 205.858 64.5682 206.385 64.5682C206.703 64.5682 207.019 64.4886 207.334 64.3295C207.652 64.1705 207.915 63.9299 208.124 63.608C208.336 63.286 208.44 62.8769 208.436 62.3807ZM218.963 59.4034L217.423 59.6761C217.359 59.4792 217.257 59.2917 217.116 59.1136C216.98 58.9356 216.795 58.7898 216.56 58.6761C216.325 58.5625 216.031 58.5057 215.679 58.5057C215.198 58.5057 214.796 58.6136 214.474 58.8295C214.152 59.0417 213.991 59.3163 213.991 59.6534C213.991 59.9451 214.099 60.1799 214.315 60.358C214.531 60.536 214.88 60.6818 215.361 60.7955L216.747 61.1136C217.55 61.2992 218.149 61.5852 218.543 61.9716C218.937 62.358 219.134 62.8598 219.134 63.4773C219.134 64 218.982 64.4659 218.679 64.875C218.38 65.2803 217.961 65.5985 217.423 65.8295C216.889 66.0606 216.27 66.1761 215.565 66.1761C214.588 66.1761 213.791 65.9678 213.173 65.5511C212.556 65.1307 212.177 64.5341 212.037 63.7614L213.679 63.5114C213.781 63.9394 213.991 64.2633 214.31 64.483C214.628 64.6989 215.043 64.8068 215.554 64.8068C216.111 64.8068 216.556 64.6913 216.889 64.4602C217.223 64.2254 217.389 63.9394 217.389 63.6023C217.389 63.3295 217.287 63.1004 217.082 62.9148C216.882 62.7292 216.573 62.589 216.156 62.4943L214.679 62.1705C213.865 61.9848 213.262 61.6894 212.872 61.2841C212.486 60.8788 212.293 60.3655 212.293 59.7443C212.293 59.2292 212.437 58.7784 212.724 58.392C213.012 58.0057 213.41 57.7045 213.918 57.4886C214.425 57.2689 215.007 57.1591 215.662 57.1591C216.605 57.1591 217.348 57.3636 217.889 57.7727C218.431 58.178 218.789 58.7216 218.963 59.4034ZM225.075 57.2727V58.6364H220.308V57.2727H225.075ZM221.587 55.1818H223.286V63.4375C223.286 63.767 223.335 64.0152 223.433 64.1818C223.532 64.3447 223.659 64.4564 223.814 64.517C223.973 64.5739 224.145 64.6023 224.331 64.6023C224.467 64.6023 224.587 64.5928 224.689 64.5739C224.791 64.5549 224.871 64.5398 224.928 64.5284L225.234 65.9318C225.136 65.9697 224.996 66.0076 224.814 66.0455C224.632 66.0871 224.405 66.1098 224.132 66.1136C223.685 66.1212 223.268 66.0417 222.882 65.875C222.496 65.7083 222.183 65.4508 221.945 65.1023C221.706 64.7538 221.587 64.3163 221.587 63.7898V55.1818ZM230.537 66.1761C229.719 66.1761 229.005 65.9886 228.395 65.6136C227.785 65.2386 227.312 64.714 226.974 64.0398C226.637 63.3655 226.469 62.5777 226.469 61.6761C226.469 60.7708 226.637 59.9792 226.974 59.3011C227.312 58.6231 227.785 58.0966 228.395 57.7216C229.005 57.3466 229.719 57.1591 230.537 57.1591C231.355 57.1591 232.069 57.3466 232.679 57.7216C233.289 58.0966 233.762 58.6231 234.099 59.3011C234.437 59.9792 234.605 60.7708 234.605 61.6761C234.605 62.5777 234.437 63.3655 234.099 64.0398C233.762 64.714 233.289 65.2386 232.679 65.6136C232.069 65.9886 231.355 66.1761 230.537 66.1761ZM230.543 64.75C231.073 64.75 231.512 64.6098 231.861 64.3295C232.209 64.0492 232.467 63.6761 232.634 63.2102C232.804 62.7443 232.889 62.2311 232.889 61.6705C232.889 61.1136 232.804 60.6023 232.634 60.1364C232.467 59.6667 232.209 59.2898 231.861 59.0057C231.512 58.7216 231.073 58.5795 230.543 58.5795C230.009 58.5795 229.565 58.7216 229.213 59.0057C228.865 59.2898 228.605 59.6667 228.435 60.1364C228.268 60.6023 228.185 61.1136 228.185 61.6705C228.185 62.2311 228.268 62.7443 228.435 63.2102C228.605 63.6761 228.865 64.0492 229.213 64.3295C229.565 64.6098 230.009 64.75 230.543 64.75ZM236.501 66V57.2727H238.132V58.6932H238.24C238.422 58.2121 238.719 57.8371 239.132 57.5682C239.545 57.2955 240.039 57.1591 240.615 57.1591C241.198 57.1591 241.687 57.2955 242.081 57.5682C242.479 57.8409 242.772 58.2159 242.962 58.6932H243.053C243.261 58.2273 243.592 57.8561 244.047 57.5795C244.501 57.2992 245.043 57.1591 245.672 57.1591C246.464 57.1591 247.109 57.4072 247.609 57.9034C248.113 58.3996 248.365 59.1477 248.365 60.1477V66H246.666V60.3068C246.666 59.7159 246.505 59.2879 246.183 59.0227C245.861 58.7576 245.477 58.625 245.03 58.625C244.477 58.625 244.047 58.7955 243.74 59.1364C243.433 59.4735 243.28 59.9072 243.28 60.4375V66H241.587V60.1989C241.587 59.7254 241.439 59.3447 241.143 59.0568C240.848 58.7689 240.464 58.625 239.99 58.625C239.668 58.625 239.371 58.7102 239.098 58.8807C238.829 59.0473 238.611 59.2803 238.445 59.5795C238.282 59.8788 238.2 60.2254 238.2 60.6193V66H236.501ZM254.403 66.1761C253.544 66.1761 252.803 65.9924 252.182 65.625C251.564 65.2538 251.087 64.733 250.75 64.0625C250.417 63.3883 250.25 62.5985 250.25 61.6932C250.25 60.7992 250.417 60.0114 250.75 59.3295C251.087 58.6477 251.557 58.1155 252.159 57.733C252.765 57.3504 253.473 57.1591 254.284 57.1591C254.777 57.1591 255.254 57.2405 255.716 57.4034C256.178 57.5663 256.593 57.822 256.96 58.1705C257.328 58.5189 257.617 58.9716 257.83 59.5284C258.042 60.0814 258.148 60.7538 258.148 61.5455V62.1477H251.21V60.875H256.483C256.483 60.428 256.392 60.0322 256.21 59.6875C256.028 59.339 255.773 59.0644 255.443 58.8636C255.117 58.6629 254.735 58.5625 254.295 58.5625C253.818 58.5625 253.402 58.6799 253.045 58.9148C252.693 59.1458 252.42 59.4489 252.227 59.8239C252.038 60.1951 251.943 60.5985 251.943 61.0341V62.0284C251.943 62.6117 252.045 63.108 252.25 63.517C252.458 63.9261 252.748 64.2386 253.119 64.4545C253.491 64.6667 253.924 64.7727 254.42 64.7727C254.742 64.7727 255.036 64.7273 255.301 64.6364C255.566 64.5417 255.795 64.4015 255.989 64.2159C256.182 64.0303 256.33 63.8011 256.432 63.5284L258.04 63.8182C257.911 64.2917 257.68 64.7064 257.347 65.0625C257.017 65.4148 256.602 65.6894 256.102 65.8864C255.606 66.0795 255.04 66.1761 254.403 66.1761ZM260.033 66V57.2727H261.675V58.6591H261.766C261.925 58.1894 262.205 57.8201 262.607 57.5511C263.012 57.2784 263.47 57.142 263.982 57.142C264.088 57.142 264.213 57.1458 264.357 57.1534C264.504 57.161 264.62 57.1705 264.703 57.1818V58.8068C264.635 58.7879 264.514 58.767 264.339 58.7443C264.165 58.7178 263.991 58.7045 263.817 58.7045C263.415 58.7045 263.057 58.7898 262.743 58.9602C262.432 59.1269 262.186 59.3598 262.004 59.6591C261.822 59.9545 261.732 60.2917 261.732 60.6705V66H260.033ZM276.891 57.4205C276.83 56.8826 276.58 56.4659 276.141 56.1705C275.701 55.8712 275.148 55.7216 274.482 55.7216C274.004 55.7216 273.591 55.7973 273.243 55.9489C272.894 56.0966 272.624 56.3011 272.43 56.5625C272.241 56.8201 272.146 57.1136 272.146 57.4432C272.146 57.7197 272.211 57.9583 272.339 58.1591C272.472 58.3598 272.644 58.5284 272.857 58.6648C273.072 58.7973 273.304 58.9091 273.55 59C273.796 59.0871 274.033 59.1591 274.26 59.2159L275.396 59.5114C275.768 59.6023 276.148 59.7254 276.538 59.8807C276.929 60.036 277.29 60.2405 277.624 60.4943C277.957 60.7481 278.226 61.0625 278.43 61.4375C278.639 61.8125 278.743 62.2614 278.743 62.7841C278.743 63.4432 278.572 64.0284 278.232 64.5398C277.894 65.0511 277.404 65.4545 276.76 65.75C276.12 66.0455 275.345 66.1932 274.436 66.1932C273.565 66.1932 272.811 66.0549 272.175 65.7784C271.538 65.5019 271.04 65.1098 270.68 64.6023C270.321 64.0909 270.122 63.4848 270.084 62.7841H271.845C271.879 63.2045 272.016 63.5549 272.254 63.8352C272.497 64.1117 272.805 64.3182 273.18 64.4545C273.559 64.5871 273.974 64.6534 274.425 64.6534C274.921 64.6534 275.362 64.5758 275.749 64.4205C276.139 64.2614 276.446 64.0417 276.669 63.7614C276.893 63.4773 277.004 63.1458 277.004 62.767C277.004 62.4223 276.906 62.1402 276.709 61.9205C276.516 61.7008 276.252 61.5189 275.919 61.375C275.589 61.2311 275.216 61.1042 274.8 60.9943L273.425 60.6193C272.493 60.3655 271.754 59.9924 271.209 59.5C270.667 59.0076 270.396 58.3561 270.396 57.5455C270.396 56.875 270.578 56.2898 270.942 55.7898C271.305 55.2898 271.798 54.9015 272.419 54.625C273.04 54.3447 273.741 54.2045 274.521 54.2045C275.309 54.2045 276.004 54.3428 276.607 54.6193C277.213 54.8958 277.69 55.2765 278.038 55.7614C278.387 56.2424 278.569 56.7955 278.584 57.4205H276.891ZM286.233 62.3807V57.2727H287.938V66H286.267V64.4886H286.176C285.975 64.9545 285.653 65.3428 285.21 65.6534C284.771 65.9602 284.223 66.1136 283.568 66.1136C283.008 66.1136 282.511 65.9905 282.08 65.7443C281.652 65.4943 281.314 65.125 281.068 64.6364C280.826 64.1477 280.705 63.5436 280.705 62.8239V57.2727H282.403V62.6193C282.403 63.214 282.568 63.6875 282.898 64.0398C283.227 64.392 283.655 64.5682 284.182 64.5682C284.5 64.5682 284.816 64.4886 285.131 64.3295C285.449 64.1705 285.712 63.9299 285.92 63.608C286.133 63.286 286.237 62.8769 286.233 62.3807ZM290.22 69.2727V57.2727H291.879V58.6875H292.021C292.12 58.5057 292.262 58.2955 292.447 58.0568C292.633 57.8182 292.891 57.6098 293.22 57.4318C293.55 57.25 293.985 57.1591 294.527 57.1591C295.232 57.1591 295.86 57.3371 296.413 57.6932C296.966 58.0492 297.4 58.5625 297.714 59.233C298.033 59.9034 298.192 60.7102 298.192 61.6534C298.192 62.5966 298.035 63.4053 297.72 64.0795C297.406 64.75 296.974 65.267 296.425 65.6307C295.875 65.9905 295.249 66.1705 294.544 66.1705C294.014 66.1705 293.58 66.0814 293.243 65.9034C292.91 65.7254 292.648 65.517 292.459 65.2784C292.269 65.0398 292.124 64.8277 292.021 64.642H291.919V69.2727H290.22ZM291.885 61.6364C291.885 62.25 291.974 62.7879 292.152 63.25C292.33 63.7121 292.588 64.0739 292.925 64.3352C293.262 64.5928 293.675 64.7216 294.163 64.7216C294.671 64.7216 295.095 64.5871 295.436 64.3182C295.777 64.0455 296.035 63.6761 296.209 63.2102C296.387 62.7443 296.476 62.2197 296.476 61.6364C296.476 61.0606 296.389 60.5436 296.214 60.0852C296.044 59.6269 295.786 59.2652 295.442 59C295.101 58.7348 294.675 58.6023 294.163 58.6023C293.671 58.6023 293.254 58.7292 292.913 58.983C292.576 59.2367 292.321 59.5909 292.146 60.0455C291.972 60.5 291.885 61.0303 291.885 61.6364ZM300.095 69.2727V57.2727H301.754V58.6875H301.896C301.995 58.5057 302.137 58.2955 302.322 58.0568C302.508 57.8182 302.766 57.6098 303.095 57.4318C303.425 57.25 303.86 57.1591 304.402 57.1591C305.107 57.1591 305.735 57.3371 306.288 57.6932C306.841 58.0492 307.275 58.5625 307.589 59.233C307.908 59.9034 308.067 60.7102 308.067 61.6534C308.067 62.5966 307.91 63.4053 307.595 64.0795C307.281 64.75 306.849 65.267 306.3 65.6307C305.75 65.9905 305.124 66.1705 304.419 66.1705C303.889 66.1705 303.455 66.0814 303.118 65.9034C302.785 65.7254 302.523 65.517 302.334 65.2784C302.144 65.0398 301.999 64.8277 301.896 64.642H301.794V69.2727H300.095ZM301.76 61.6364C301.76 62.25 301.849 62.7879 302.027 63.25C302.205 63.7121 302.463 64.0739 302.8 64.3352C303.137 64.5928 303.55 64.7216 304.038 64.7216C304.546 64.7216 304.97 64.5871 305.311 64.3182C305.652 64.0455 305.91 63.6761 306.084 63.2102C306.262 62.7443 306.351 62.2197 306.351 61.6364C306.351 61.0606 306.264 60.5436 306.089 60.0852C305.919 59.6269 305.661 59.2652 305.317 59C304.976 58.7348 304.55 58.6023 304.038 58.6023C303.546 58.6023 303.129 58.7292 302.788 58.983C302.451 59.2367 302.196 59.5909 302.021 60.0455C301.847 60.5 301.76 61.0303 301.76 61.6364ZM313.646 66.1761C312.828 66.1761 312.114 65.9886 311.504 65.6136C310.894 65.2386 310.421 64.714 310.084 64.0398C309.747 63.3655 309.578 62.5777 309.578 61.6761C309.578 60.7708 309.747 59.9792 310.084 59.3011C310.421 58.6231 310.894 58.0966 311.504 57.7216C312.114 57.3466 312.828 57.1591 313.646 57.1591C314.464 57.1591 315.179 57.3466 315.788 57.7216C316.398 58.0966 316.872 58.6231 317.209 59.3011C317.546 59.9792 317.714 60.7708 317.714 61.6761C317.714 62.5777 317.546 63.3655 317.209 64.0398C316.872 64.714 316.398 65.2386 315.788 65.6136C315.179 65.9886 314.464 66.1761 313.646 66.1761ZM313.652 64.75C314.182 64.75 314.622 64.6098 314.97 64.3295C315.319 64.0492 315.576 63.6761 315.743 63.2102C315.913 62.7443 315.999 62.2311 315.999 61.6705C315.999 61.1136 315.913 60.6023 315.743 60.1364C315.576 59.6667 315.319 59.2898 314.97 59.0057C314.622 58.7216 314.182 58.5795 313.652 58.5795C313.118 58.5795 312.675 58.7216 312.322 59.0057C311.974 59.2898 311.714 59.6667 311.544 60.1364C311.377 60.6023 311.294 61.1136 311.294 61.6705C311.294 62.2311 311.377 62.7443 311.544 63.2102C311.714 63.6761 311.974 64.0492 312.322 64.3295C312.675 64.6098 313.118 64.75 313.652 64.75ZM319.611 66V57.2727H321.253V58.6591H321.344C321.503 58.1894 321.783 57.8201 322.185 57.5511C322.59 57.2784 323.048 57.142 323.56 57.142C323.666 57.142 323.791 57.1458 323.935 57.1534C324.082 57.161 324.198 57.1705 324.281 57.1818V58.8068C324.213 58.7879 324.092 58.767 323.918 58.7443C323.743 58.7178 323.569 58.7045 323.395 58.7045C322.993 58.7045 322.635 58.7898 322.321 58.9602C322.01 59.1269 321.764 59.3598 321.582 59.6591C321.401 59.9545 321.31 60.2917 321.31 60.6705V66H319.611ZM330.341 57.2727V58.6364H325.574V57.2727H330.341ZM326.852 55.1818H328.551V63.4375C328.551 63.767 328.6 64.0152 328.699 64.1818C328.797 64.3447 328.924 64.4564 329.08 64.517C329.239 64.5739 329.411 64.6023 329.597 64.6023C329.733 64.6023 329.852 64.5928 329.955 64.5739C330.057 64.5549 330.136 64.5398 330.193 64.5284L330.5 65.9318C330.402 65.9697 330.261 66.0076 330.08 66.0455C329.898 66.0871 329.67 66.1098 329.398 66.1136C328.951 66.1212 328.534 66.0417 328.148 65.875C327.761 65.7083 327.449 65.4508 327.21 65.1023C326.972 64.7538 326.852 64.3163 326.852 63.7898V55.1818Z" fill="#212528"/>
</g>
<g filter="url(#filter2_d_2077_29291)">
<rect x="347" y="408" width="214" height="40" rx="20" fill="white" shape-rendering="crispEdges"/>
<path d="M373.943 426.148H372.17C372.102 425.769 371.975 425.436 371.79 425.148C371.604 424.86 371.377 424.616 371.108 424.415C370.839 424.214 370.538 424.062 370.205 423.96C369.875 423.858 369.525 423.807 369.153 423.807C368.483 423.807 367.883 423.975 367.352 424.312C366.826 424.65 366.409 425.144 366.102 425.795C365.799 426.447 365.648 427.242 365.648 428.182C365.648 429.129 365.799 429.928 366.102 430.58C366.409 431.231 366.828 431.723 367.358 432.057C367.888 432.39 368.485 432.557 369.148 432.557C369.515 432.557 369.864 432.508 370.193 432.409C370.527 432.307 370.828 432.157 371.097 431.96C371.366 431.763 371.593 431.523 371.778 431.239C371.968 430.951 372.098 430.621 372.17 430.25L373.943 430.256C373.848 430.828 373.665 431.354 373.392 431.835C373.123 432.312 372.777 432.725 372.352 433.074C371.932 433.419 371.451 433.686 370.909 433.875C370.367 434.064 369.777 434.159 369.136 434.159C368.129 434.159 367.231 433.92 366.443 433.443C365.655 432.962 365.034 432.275 364.58 431.381C364.129 430.487 363.903 429.42 363.903 428.182C363.903 426.939 364.131 425.873 364.585 424.983C365.04 424.089 365.661 423.403 366.449 422.926C367.237 422.445 368.133 422.205 369.136 422.205C369.754 422.205 370.33 422.294 370.864 422.472C371.402 422.646 371.884 422.903 372.312 423.244C372.741 423.581 373.095 423.994 373.375 424.483C373.655 424.968 373.845 425.523 373.943 426.148ZM377.607 428.818V434H375.908V422.364H377.584V426.693H377.692C377.896 426.223 378.209 425.85 378.629 425.574C379.05 425.297 379.599 425.159 380.277 425.159C380.875 425.159 381.398 425.282 381.845 425.528C382.296 425.775 382.644 426.142 382.891 426.631C383.141 427.116 383.266 427.722 383.266 428.449V434H381.567V428.653C381.567 428.013 381.402 427.517 381.072 427.165C380.743 426.809 380.285 426.631 379.697 426.631C379.296 426.631 378.936 426.716 378.618 426.886C378.304 427.057 378.055 427.307 377.874 427.636C377.696 427.962 377.607 428.356 377.607 428.818ZM389.294 434.176C388.434 434.176 387.694 433.992 387.072 433.625C386.455 433.254 385.978 432.733 385.641 432.062C385.307 431.388 385.141 430.598 385.141 429.693C385.141 428.799 385.307 428.011 385.641 427.33C385.978 426.648 386.447 426.116 387.05 425.733C387.656 425.35 388.364 425.159 389.175 425.159C389.667 425.159 390.144 425.241 390.607 425.403C391.069 425.566 391.483 425.822 391.851 426.17C392.218 426.519 392.508 426.972 392.72 427.528C392.932 428.081 393.038 428.754 393.038 429.545V430.148H386.101V428.875H391.374C391.374 428.428 391.283 428.032 391.101 427.688C390.919 427.339 390.663 427.064 390.334 426.864C390.008 426.663 389.625 426.562 389.186 426.562C388.709 426.562 388.292 426.68 387.936 426.915C387.584 427.146 387.311 427.449 387.118 427.824C386.929 428.195 386.834 428.598 386.834 429.034V430.028C386.834 430.612 386.936 431.108 387.141 431.517C387.349 431.926 387.639 432.239 388.01 432.455C388.381 432.667 388.815 432.773 389.311 432.773C389.633 432.773 389.927 432.727 390.192 432.636C390.457 432.542 390.686 432.402 390.879 432.216C391.072 432.03 391.22 431.801 391.322 431.528L392.93 431.818C392.802 432.292 392.571 432.706 392.237 433.062C391.908 433.415 391.493 433.689 390.993 433.886C390.497 434.08 389.93 434.176 389.294 434.176ZM398.599 434.176C397.755 434.176 397.027 433.985 396.418 433.602C395.812 433.216 395.346 432.684 395.02 432.006C394.694 431.328 394.531 430.551 394.531 429.676C394.531 428.79 394.698 428.008 395.031 427.33C395.365 426.648 395.834 426.116 396.44 425.733C397.046 425.35 397.76 425.159 398.582 425.159C399.245 425.159 399.836 425.282 400.355 425.528C400.874 425.771 401.293 426.112 401.611 426.551C401.933 426.991 402.124 427.504 402.185 428.091H400.531C400.44 427.682 400.232 427.33 399.906 427.034C399.584 426.739 399.152 426.591 398.611 426.591C398.137 426.591 397.723 426.716 397.366 426.966C397.014 427.212 396.74 427.564 396.543 428.023C396.346 428.477 396.247 429.015 396.247 429.636C396.247 430.273 396.344 430.822 396.537 431.284C396.73 431.746 397.003 432.104 397.355 432.358C397.711 432.612 398.13 432.739 398.611 432.739C398.933 432.739 399.224 432.68 399.486 432.562C399.751 432.441 399.973 432.269 400.151 432.045C400.332 431.822 400.459 431.553 400.531 431.239H402.185C402.124 431.803 401.94 432.307 401.634 432.75C401.327 433.193 400.916 433.542 400.401 433.795C399.889 434.049 399.289 434.176 398.599 434.176ZM405.564 431.04L405.553 428.966H405.848L409.325 425.273H411.359L407.393 429.477H407.126L405.564 431.04ZM404.001 434V422.364H405.7V434H404.001ZM409.513 434L406.388 429.852L407.558 428.665L411.598 434H409.513ZM418.261 434H416.398L420.585 422.364H422.614L426.801 434H424.938L421.648 424.477H421.557L418.261 434ZM418.574 429.443H424.619V430.92H418.574V429.443ZM431.881 434.176C431.036 434.176 430.309 433.985 429.699 433.602C429.093 433.216 428.627 432.684 428.301 432.006C427.975 431.328 427.812 430.551 427.812 429.676C427.812 428.79 427.979 428.008 428.312 427.33C428.646 426.648 429.116 426.116 429.722 425.733C430.328 425.35 431.042 425.159 431.864 425.159C432.527 425.159 433.117 425.282 433.636 425.528C434.155 425.771 434.574 426.112 434.892 426.551C435.214 426.991 435.405 427.504 435.466 428.091H433.812C433.722 427.682 433.513 427.33 433.188 427.034C432.866 426.739 432.434 426.591 431.892 426.591C431.419 426.591 431.004 426.716 430.648 426.966C430.295 427.212 430.021 427.564 429.824 428.023C429.627 428.477 429.528 429.015 429.528 429.636C429.528 430.273 429.625 430.822 429.818 431.284C430.011 431.746 430.284 432.104 430.636 432.358C430.992 432.612 431.411 432.739 431.892 432.739C432.214 432.739 432.506 432.68 432.767 432.562C433.032 432.441 433.254 432.269 433.432 432.045C433.614 431.822 433.741 431.553 433.812 431.239H435.466C435.405 431.803 435.222 432.307 434.915 432.75C434.608 433.193 434.197 433.542 433.682 433.795C433.17 434.049 432.57 434.176 431.881 434.176ZM440.959 434.176C440.114 434.176 439.387 433.985 438.777 433.602C438.171 433.216 437.705 432.684 437.379 432.006C437.054 431.328 436.891 430.551 436.891 429.676C436.891 428.79 437.057 428.008 437.391 427.33C437.724 426.648 438.194 426.116 438.8 425.733C439.406 425.35 440.12 425.159 440.942 425.159C441.605 425.159 442.196 425.282 442.714 425.528C443.233 425.771 443.652 426.112 443.97 426.551C444.292 426.991 444.483 427.504 444.544 428.091H442.891C442.8 427.682 442.591 427.33 442.266 427.034C441.944 426.739 441.512 426.591 440.97 426.591C440.497 426.591 440.082 426.716 439.726 426.966C439.374 427.212 439.099 427.564 438.902 428.023C438.705 428.477 438.607 429.015 438.607 429.636C438.607 430.273 438.703 430.822 438.896 431.284C439.089 431.746 439.362 432.104 439.714 432.358C440.071 432.612 440.489 432.739 440.97 432.739C441.292 432.739 441.584 432.68 441.845 432.562C442.11 432.441 442.332 432.269 442.51 432.045C442.692 431.822 442.819 431.553 442.891 431.239H444.544C444.483 431.803 444.3 432.307 443.993 432.75C443.686 433.193 443.275 433.542 442.76 433.795C442.249 434.049 441.648 434.176 440.959 434.176ZM450.037 434.176C449.219 434.176 448.505 433.989 447.895 433.614C447.285 433.239 446.812 432.714 446.474 432.04C446.137 431.366 445.969 430.578 445.969 429.676C445.969 428.771 446.137 427.979 446.474 427.301C446.812 426.623 447.285 426.097 447.895 425.722C448.505 425.347 449.219 425.159 450.037 425.159C450.855 425.159 451.569 425.347 452.179 425.722C452.789 426.097 453.262 426.623 453.599 427.301C453.937 427.979 454.105 428.771 454.105 429.676C454.105 430.578 453.937 431.366 453.599 432.04C453.262 432.714 452.789 433.239 452.179 433.614C451.569 433.989 450.855 434.176 450.037 434.176ZM450.043 432.75C450.573 432.75 451.012 432.61 451.361 432.33C451.709 432.049 451.967 431.676 452.134 431.21C452.304 430.744 452.389 430.231 452.389 429.67C452.389 429.114 452.304 428.602 452.134 428.136C451.967 427.667 451.709 427.29 451.361 427.006C451.012 426.722 450.573 426.58 450.043 426.58C449.509 426.58 449.065 426.722 448.713 427.006C448.365 427.29 448.105 427.667 447.935 428.136C447.768 428.602 447.685 429.114 447.685 429.67C447.685 430.231 447.768 430.744 447.935 431.21C448.105 431.676 448.365 432.049 448.713 432.33C449.065 432.61 449.509 432.75 450.043 432.75ZM461.53 430.381V425.273H463.234V434H461.564V432.489H461.473C461.272 432.955 460.95 433.343 460.507 433.653C460.068 433.96 459.52 434.114 458.865 434.114C458.304 434.114 457.808 433.991 457.376 433.744C456.948 433.494 456.611 433.125 456.365 432.636C456.123 432.148 456.001 431.544 456.001 430.824V425.273H457.7V430.619C457.7 431.214 457.865 431.687 458.195 432.04C458.524 432.392 458.952 432.568 459.479 432.568C459.797 432.568 460.113 432.489 460.428 432.33C460.746 432.17 461.009 431.93 461.217 431.608C461.429 431.286 461.534 430.877 461.53 430.381ZM467.216 428.818V434H465.517V425.273H467.148V426.693H467.256C467.456 426.231 467.771 425.86 468.199 425.58C468.631 425.299 469.174 425.159 469.83 425.159C470.424 425.159 470.945 425.284 471.392 425.534C471.839 425.78 472.186 426.148 472.432 426.636C472.678 427.125 472.801 427.729 472.801 428.449V434H471.102V428.653C471.102 428.021 470.938 427.527 470.608 427.17C470.278 426.811 469.826 426.631 469.25 426.631C468.856 426.631 468.506 426.716 468.199 426.886C467.896 427.057 467.655 427.307 467.477 427.636C467.303 427.962 467.216 428.356 467.216 428.818ZM479.153 425.273V426.636H474.386V425.273H479.153ZM475.665 423.182H477.364V431.438C477.364 431.767 477.413 432.015 477.511 432.182C477.61 432.345 477.737 432.456 477.892 432.517C478.051 432.574 478.223 432.602 478.409 432.602C478.545 432.602 478.665 432.593 478.767 432.574C478.869 432.555 478.949 432.54 479.006 432.528L479.312 433.932C479.214 433.97 479.074 434.008 478.892 434.045C478.71 434.087 478.483 434.11 478.21 434.114C477.763 434.121 477.347 434.042 476.96 433.875C476.574 433.708 476.261 433.451 476.023 433.102C475.784 432.754 475.665 432.316 475.665 431.79V423.182ZM485.403 434V422.364H489.665C490.491 422.364 491.174 422.5 491.716 422.773C492.258 423.042 492.663 423.407 492.932 423.869C493.201 424.328 493.335 424.845 493.335 425.42C493.335 425.905 493.246 426.314 493.068 426.648C492.89 426.977 492.652 427.242 492.352 427.443C492.057 427.64 491.731 427.784 491.375 427.875V427.989C491.761 428.008 492.138 428.133 492.506 428.364C492.877 428.591 493.184 428.915 493.426 429.335C493.669 429.756 493.79 430.267 493.79 430.869C493.79 431.464 493.65 431.998 493.369 432.472C493.093 432.941 492.665 433.314 492.085 433.591C491.506 433.864 490.765 434 489.864 434H485.403ZM487.159 432.494H489.693C490.534 432.494 491.136 432.331 491.5 432.006C491.864 431.68 492.045 431.273 492.045 430.784C492.045 430.417 491.953 430.08 491.767 429.773C491.581 429.466 491.316 429.222 490.972 429.04C490.631 428.858 490.225 428.767 489.756 428.767H487.159V432.494ZM487.159 427.398H489.511C489.905 427.398 490.259 427.322 490.574 427.17C490.892 427.019 491.144 426.807 491.33 426.534C491.519 426.258 491.614 425.932 491.614 425.557C491.614 425.076 491.445 424.672 491.108 424.347C490.771 424.021 490.254 423.858 489.557 423.858H487.159V427.398ZM498.276 434.193C497.723 434.193 497.223 434.091 496.776 433.886C496.329 433.678 495.974 433.377 495.713 432.983C495.455 432.589 495.327 432.106 495.327 431.534C495.327 431.042 495.421 430.636 495.611 430.318C495.8 430 496.056 429.748 496.378 429.562C496.7 429.377 497.06 429.237 497.457 429.142C497.855 429.047 498.26 428.975 498.673 428.926C499.196 428.866 499.62 428.816 499.946 428.778C500.272 428.737 500.509 428.67 500.656 428.58C500.804 428.489 500.878 428.341 500.878 428.136V428.097C500.878 427.6 500.738 427.216 500.457 426.943C500.181 426.67 499.768 426.534 499.219 426.534C498.647 426.534 498.196 426.661 497.866 426.915C497.541 427.165 497.315 427.443 497.19 427.75L495.594 427.386C495.783 426.856 496.06 426.428 496.423 426.102C496.791 425.773 497.213 425.534 497.69 425.386C498.168 425.235 498.67 425.159 499.196 425.159C499.545 425.159 499.914 425.201 500.304 425.284C500.698 425.364 501.065 425.511 501.406 425.727C501.751 425.943 502.033 426.252 502.253 426.653C502.473 427.051 502.582 427.568 502.582 428.205V434H500.923V432.807H500.855C500.745 433.027 500.58 433.242 500.361 433.455C500.141 433.667 499.859 433.843 499.514 433.983C499.17 434.123 498.757 434.193 498.276 434.193ZM498.645 432.83C499.115 432.83 499.516 432.737 499.849 432.551C500.187 432.366 500.442 432.123 500.616 431.824C500.795 431.521 500.884 431.197 500.884 430.852V429.727C500.823 429.788 500.705 429.845 500.531 429.898C500.361 429.947 500.166 429.991 499.946 430.028C499.726 430.062 499.512 430.095 499.304 430.125C499.096 430.152 498.921 430.174 498.781 430.193C498.452 430.235 498.151 430.305 497.878 430.403C497.609 430.502 497.393 430.644 497.23 430.83C497.071 431.011 496.991 431.254 496.991 431.557C496.991 431.977 497.147 432.295 497.457 432.511C497.768 432.723 498.164 432.83 498.645 432.83ZM506.544 422.364V434H504.845V422.364H506.544ZM511.369 434.193C510.816 434.193 510.316 434.091 509.869 433.886C509.422 433.678 509.068 433.377 508.807 432.983C508.549 432.589 508.42 432.106 508.42 431.534C508.42 431.042 508.515 430.636 508.705 430.318C508.894 430 509.15 429.748 509.472 429.562C509.794 429.377 510.153 429.237 510.551 429.142C510.949 429.047 511.354 428.975 511.767 428.926C512.29 428.866 512.714 428.816 513.04 428.778C513.366 428.737 513.602 428.67 513.75 428.58C513.898 428.489 513.972 428.341 513.972 428.136V428.097C513.972 427.6 513.831 427.216 513.551 426.943C513.275 426.67 512.862 426.534 512.312 426.534C511.741 426.534 511.29 426.661 510.96 426.915C510.634 427.165 510.409 427.443 510.284 427.75L508.688 427.386C508.877 426.856 509.153 426.428 509.517 426.102C509.884 425.773 510.307 425.534 510.784 425.386C511.261 425.235 511.763 425.159 512.29 425.159C512.638 425.159 513.008 425.201 513.398 425.284C513.792 425.364 514.159 425.511 514.5 425.727C514.845 425.943 515.127 426.252 515.347 426.653C515.566 427.051 515.676 427.568 515.676 428.205V434H514.017V432.807H513.949C513.839 433.027 513.674 433.242 513.455 433.455C513.235 433.667 512.953 433.843 512.608 433.983C512.263 434.123 511.85 434.193 511.369 434.193ZM511.739 432.83C512.208 432.83 512.61 432.737 512.943 432.551C513.28 432.366 513.536 432.123 513.71 431.824C513.888 431.521 513.977 431.197 513.977 430.852V429.727C513.917 429.788 513.799 429.845 513.625 429.898C513.455 429.947 513.259 429.991 513.04 430.028C512.82 430.062 512.606 430.095 512.398 430.125C512.189 430.152 512.015 430.174 511.875 430.193C511.545 430.235 511.244 430.305 510.972 430.403C510.703 430.502 510.487 430.644 510.324 430.83C510.165 431.011 510.085 431.254 510.085 431.557C510.085 431.977 510.241 432.295 510.551 432.511C510.862 432.723 511.258 432.83 511.739 432.83ZM519.638 428.818V434H517.939V425.273H519.57V426.693H519.678C519.878 426.231 520.193 425.86 520.621 425.58C521.053 425.299 521.596 425.159 522.251 425.159C522.846 425.159 523.367 425.284 523.814 425.534C524.261 425.78 524.607 426.148 524.854 426.636C525.1 427.125 525.223 427.729 525.223 428.449V434H523.524V428.653C523.524 428.021 523.359 427.527 523.03 427.17C522.7 426.811 522.248 426.631 521.672 426.631C521.278 426.631 520.928 426.716 520.621 426.886C520.318 427.057 520.077 427.307 519.899 427.636C519.725 427.962 519.638 428.356 519.638 428.818ZM531.178 434.176C530.333 434.176 529.606 433.985 528.996 433.602C528.39 433.216 527.924 432.684 527.598 432.006C527.272 431.328 527.109 430.551 527.109 429.676C527.109 428.79 527.276 428.008 527.609 427.33C527.943 426.648 528.412 426.116 529.018 425.733C529.625 425.35 530.339 425.159 531.161 425.159C531.823 425.159 532.414 425.282 532.933 425.528C533.452 425.771 533.871 426.112 534.189 426.551C534.511 426.991 534.702 427.504 534.763 428.091H533.109C533.018 427.682 532.81 427.33 532.484 427.034C532.162 426.739 531.731 426.591 531.189 426.591C530.715 426.591 530.301 426.716 529.945 426.966C529.592 427.212 529.318 427.564 529.121 428.023C528.924 428.477 528.825 429.015 528.825 429.636C528.825 430.273 528.922 430.822 529.115 431.284C529.308 431.746 529.581 432.104 529.933 432.358C530.289 432.612 530.708 432.739 531.189 432.739C531.511 432.739 531.803 432.68 532.064 432.562C532.329 432.441 532.551 432.269 532.729 432.045C532.911 431.822 533.037 431.553 533.109 431.239H534.763C534.702 431.803 534.518 432.307 534.212 432.75C533.905 433.193 533.494 433.542 532.979 433.795C532.467 434.049 531.867 434.176 531.178 434.176ZM540.341 434.176C539.481 434.176 538.741 433.992 538.119 433.625C537.502 433.254 537.025 432.733 536.688 432.062C536.354 431.388 536.188 430.598 536.188 429.693C536.188 428.799 536.354 428.011 536.688 427.33C537.025 426.648 537.494 426.116 538.097 425.733C538.703 425.35 539.411 425.159 540.222 425.159C540.714 425.159 541.191 425.241 541.653 425.403C542.116 425.566 542.53 425.822 542.898 426.17C543.265 426.519 543.555 426.972 543.767 427.528C543.979 428.081 544.085 428.754 544.085 429.545V430.148H537.148V428.875H542.42C542.42 428.428 542.33 428.032 542.148 427.688C541.966 427.339 541.71 427.064 541.381 426.864C541.055 426.663 540.672 426.562 540.233 426.562C539.756 426.562 539.339 426.68 538.983 426.915C538.631 427.146 538.358 427.449 538.165 427.824C537.975 428.195 537.881 428.598 537.881 429.034V430.028C537.881 430.612 537.983 431.108 538.188 431.517C538.396 431.926 538.686 432.239 539.057 432.455C539.428 432.667 539.862 432.773 540.358 432.773C540.68 432.773 540.973 432.727 541.239 432.636C541.504 432.542 541.733 432.402 541.926 432.216C542.119 432.03 542.267 431.801 542.369 431.528L543.977 431.818C543.848 432.292 543.617 432.706 543.284 433.062C542.955 433.415 542.54 433.689 542.04 433.886C541.544 434.08 540.977 434.176 540.341 434.176Z" fill="#212528"/>
</g>
<g filter="url(#filter3_d_2077_29291)">
<rect x="440" y="282" width="120" height="40" rx="20" fill="white" shape-rendering="crispEdges"/>
<path d="M463.625 299.42C463.564 298.883 463.314 298.466 462.875 298.17C462.436 297.871 461.883 297.722 461.216 297.722C460.739 297.722 460.326 297.797 459.977 297.949C459.629 298.097 459.358 298.301 459.165 298.562C458.975 298.82 458.881 299.114 458.881 299.443C458.881 299.72 458.945 299.958 459.074 300.159C459.206 300.36 459.379 300.528 459.591 300.665C459.807 300.797 460.038 300.909 460.284 301C460.53 301.087 460.767 301.159 460.994 301.216L462.131 301.511C462.502 301.602 462.883 301.725 463.273 301.881C463.663 302.036 464.025 302.241 464.358 302.494C464.691 302.748 464.96 303.062 465.165 303.438C465.373 303.812 465.477 304.261 465.477 304.784C465.477 305.443 465.307 306.028 464.966 306.54C464.629 307.051 464.138 307.455 463.494 307.75C462.854 308.045 462.08 308.193 461.17 308.193C460.299 308.193 459.545 308.055 458.909 307.778C458.273 307.502 457.775 307.11 457.415 306.602C457.055 306.091 456.856 305.485 456.818 304.784H458.58C458.614 305.205 458.75 305.555 458.989 305.835C459.231 306.112 459.54 306.318 459.915 306.455C460.294 306.587 460.708 306.653 461.159 306.653C461.655 306.653 462.097 306.576 462.483 306.42C462.873 306.261 463.18 306.042 463.403 305.761C463.627 305.477 463.739 305.146 463.739 304.767C463.739 304.422 463.64 304.14 463.443 303.92C463.25 303.701 462.987 303.519 462.653 303.375C462.324 303.231 461.951 303.104 461.534 302.994L460.159 302.619C459.227 302.366 458.489 301.992 457.943 301.5C457.402 301.008 457.131 300.356 457.131 299.545C457.131 298.875 457.313 298.29 457.676 297.79C458.04 297.29 458.532 296.902 459.153 296.625C459.775 296.345 460.475 296.205 461.256 296.205C462.044 296.205 462.739 296.343 463.341 296.619C463.947 296.896 464.424 297.277 464.773 297.761C465.121 298.242 465.303 298.795 465.318 299.42H463.625ZM469.979 308.193C469.426 308.193 468.926 308.091 468.479 307.886C468.032 307.678 467.678 307.377 467.416 306.983C467.159 306.589 467.03 306.106 467.03 305.534C467.03 305.042 467.125 304.636 467.314 304.318C467.503 304 467.759 303.748 468.081 303.562C468.403 303.377 468.763 303.237 469.161 303.142C469.558 303.047 469.964 302.975 470.376 302.926C470.899 302.866 471.323 302.816 471.649 302.778C471.975 302.737 472.212 302.67 472.359 302.58C472.507 302.489 472.581 302.341 472.581 302.136V302.097C472.581 301.6 472.441 301.216 472.161 300.943C471.884 300.67 471.471 300.534 470.922 300.534C470.35 300.534 469.899 300.661 469.57 300.915C469.244 301.165 469.018 301.443 468.893 301.75L467.297 301.386C467.486 300.856 467.763 300.428 468.126 300.102C468.494 299.773 468.916 299.534 469.393 299.386C469.871 299.235 470.373 299.159 470.899 299.159C471.248 299.159 471.617 299.201 472.007 299.284C472.401 299.364 472.768 299.511 473.109 299.727C473.454 299.943 473.736 300.252 473.956 300.653C474.176 301.051 474.286 301.568 474.286 302.205V308H472.626V306.807H472.558C472.448 307.027 472.284 307.242 472.064 307.455C471.844 307.667 471.562 307.843 471.217 307.983C470.873 308.123 470.46 308.193 469.979 308.193ZM470.348 306.83C470.818 306.83 471.219 306.737 471.553 306.551C471.89 306.366 472.145 306.123 472.32 305.824C472.498 305.521 472.587 305.197 472.587 304.852V303.727C472.526 303.788 472.409 303.845 472.234 303.898C472.064 303.947 471.869 303.991 471.649 304.028C471.429 304.062 471.215 304.095 471.007 304.125C470.799 304.152 470.625 304.174 470.484 304.193C470.155 304.235 469.854 304.305 469.581 304.403C469.312 304.502 469.096 304.644 468.933 304.83C468.774 305.011 468.695 305.254 468.695 305.557C468.695 305.977 468.85 306.295 469.161 306.511C469.471 306.723 469.867 306.83 470.348 306.83ZM478.247 296.364V308H476.548V296.364H478.247ZM484.294 308.176C483.434 308.176 482.694 307.992 482.072 307.625C481.455 307.254 480.978 306.733 480.641 306.062C480.307 305.388 480.141 304.598 480.141 303.693C480.141 302.799 480.307 302.011 480.641 301.33C480.978 300.648 481.447 300.116 482.05 299.733C482.656 299.35 483.364 299.159 484.175 299.159C484.667 299.159 485.144 299.241 485.607 299.403C486.069 299.566 486.483 299.822 486.851 300.17C487.218 300.519 487.508 300.972 487.72 301.528C487.932 302.081 488.038 302.754 488.038 303.545V304.148H481.101V302.875H486.374C486.374 302.428 486.283 302.032 486.101 301.688C485.919 301.339 485.663 301.064 485.334 300.864C485.008 300.663 484.625 300.562 484.186 300.562C483.709 300.562 483.292 300.68 482.936 300.915C482.584 301.146 482.311 301.449 482.118 301.824C481.929 302.195 481.834 302.598 481.834 303.034V304.028C481.834 304.612 481.936 305.108 482.141 305.517C482.349 305.926 482.639 306.239 483.01 306.455C483.381 306.667 483.815 306.773 484.311 306.773C484.633 306.773 484.927 306.727 485.192 306.636C485.457 306.542 485.686 306.402 485.879 306.216C486.072 306.03 486.22 305.801 486.322 305.528L487.93 305.818C487.802 306.292 487.571 306.706 487.237 307.062C486.908 307.415 486.493 307.689 485.993 307.886C485.497 308.08 484.93 308.176 484.294 308.176ZM496.463 301.403L494.923 301.676C494.859 301.479 494.757 301.292 494.616 301.114C494.48 300.936 494.295 300.79 494.06 300.676C493.825 300.562 493.531 300.506 493.179 300.506C492.698 300.506 492.296 300.614 491.974 300.83C491.652 301.042 491.491 301.316 491.491 301.653C491.491 301.945 491.599 302.18 491.815 302.358C492.031 302.536 492.38 302.682 492.861 302.795L494.247 303.114C495.05 303.299 495.649 303.585 496.043 303.972C496.437 304.358 496.634 304.86 496.634 305.477C496.634 306 496.482 306.466 496.179 306.875C495.88 307.28 495.461 307.598 494.923 307.83C494.389 308.061 493.77 308.176 493.065 308.176C492.088 308.176 491.291 307.968 490.673 307.551C490.056 307.131 489.677 306.534 489.537 305.761L491.179 305.511C491.281 305.939 491.491 306.263 491.81 306.483C492.128 306.699 492.543 306.807 493.054 306.807C493.611 306.807 494.056 306.691 494.389 306.46C494.723 306.225 494.889 305.939 494.889 305.602C494.889 305.33 494.787 305.1 494.582 304.915C494.382 304.729 494.073 304.589 493.656 304.494L492.179 304.17C491.365 303.985 490.762 303.689 490.372 303.284C489.986 302.879 489.793 302.366 489.793 301.744C489.793 301.229 489.937 300.778 490.224 300.392C490.512 300.006 490.91 299.705 491.418 299.489C491.925 299.269 492.507 299.159 493.162 299.159C494.105 299.159 494.848 299.364 495.389 299.773C495.931 300.178 496.289 300.722 496.463 301.403ZM502.298 297.875V296.364H511.304V297.875H507.673V308H505.923V297.875H502.298ZM515.653 308.176C514.794 308.176 514.053 307.992 513.432 307.625C512.814 307.254 512.337 306.733 512 306.062C511.667 305.388 511.5 304.598 511.5 303.693C511.5 302.799 511.667 302.011 512 301.33C512.337 300.648 512.807 300.116 513.409 299.733C514.015 299.35 514.723 299.159 515.534 299.159C516.027 299.159 516.504 299.241 516.966 299.403C517.428 299.566 517.843 299.822 518.21 300.17C518.578 300.519 518.867 300.972 519.08 301.528C519.292 302.081 519.398 302.754 519.398 303.545V304.148H512.46V302.875H517.733C517.733 302.428 517.642 302.032 517.46 301.688C517.278 301.339 517.023 301.064 516.693 300.864C516.367 300.663 515.985 300.562 515.545 300.562C515.068 300.562 514.652 300.68 514.295 300.915C513.943 301.146 513.67 301.449 513.477 301.824C513.288 302.195 513.193 302.598 513.193 303.034V304.028C513.193 304.612 513.295 305.108 513.5 305.517C513.708 305.926 513.998 306.239 514.369 306.455C514.741 306.667 515.174 306.773 515.67 306.773C515.992 306.773 516.286 306.727 516.551 306.636C516.816 306.542 517.045 306.402 517.239 306.216C517.432 306.03 517.58 305.801 517.682 305.528L519.29 305.818C519.161 306.292 518.93 306.706 518.597 307.062C518.267 307.415 517.852 307.689 517.352 307.886C516.856 308.08 516.29 308.176 515.653 308.176ZM523.822 308.193C523.269 308.193 522.769 308.091 522.322 307.886C521.875 307.678 521.521 307.377 521.26 306.983C521.002 306.589 520.874 306.106 520.874 305.534C520.874 305.042 520.968 304.636 521.158 304.318C521.347 304 521.603 303.748 521.925 303.562C522.247 303.377 522.607 303.237 523.004 303.142C523.402 303.047 523.807 302.975 524.22 302.926C524.743 302.866 525.167 302.816 525.493 302.778C525.819 302.737 526.055 302.67 526.203 302.58C526.351 302.489 526.425 302.341 526.425 302.136V302.097C526.425 301.6 526.285 301.216 526.004 300.943C525.728 300.67 525.315 300.534 524.766 300.534C524.194 300.534 523.743 300.661 523.413 300.915C523.088 301.165 522.862 301.443 522.737 301.75L521.141 301.386C521.33 300.856 521.607 300.428 521.97 300.102C522.338 299.773 522.76 299.534 523.237 299.386C523.714 299.235 524.216 299.159 524.743 299.159C525.091 299.159 525.461 299.201 525.851 299.284C526.245 299.364 526.612 299.511 526.953 299.727C527.298 299.943 527.58 300.252 527.8 300.653C528.019 301.051 528.129 301.568 528.129 302.205V308H526.47V306.807H526.402C526.292 307.027 526.127 307.242 525.908 307.455C525.688 307.667 525.406 307.843 525.061 307.983C524.716 308.123 524.304 308.193 523.822 308.193ZM524.192 306.83C524.661 306.83 525.063 306.737 525.396 306.551C525.733 306.366 525.989 306.123 526.163 305.824C526.341 305.521 526.43 305.197 526.43 304.852V303.727C526.37 303.788 526.252 303.845 526.078 303.898C525.908 303.947 525.713 303.991 525.493 304.028C525.273 304.062 525.059 304.095 524.851 304.125C524.643 304.152 524.468 304.174 524.328 304.193C523.999 304.235 523.697 304.305 523.425 304.403C523.156 304.502 522.94 304.644 522.777 304.83C522.618 305.011 522.538 305.254 522.538 305.557C522.538 305.977 522.694 306.295 523.004 306.511C523.315 306.723 523.711 306.83 524.192 306.83ZM530.392 308V299.273H532.023V300.693H532.131C532.313 300.212 532.61 299.837 533.023 299.568C533.436 299.295 533.93 299.159 534.506 299.159C535.089 299.159 535.578 299.295 535.972 299.568C536.369 299.841 536.663 300.216 536.852 300.693H536.943C537.152 300.227 537.483 299.856 537.938 299.58C538.392 299.299 538.934 299.159 539.562 299.159C540.354 299.159 541 299.407 541.5 299.903C542.004 300.4 542.256 301.148 542.256 302.148V308H540.557V302.307C540.557 301.716 540.396 301.288 540.074 301.023C539.752 300.758 539.367 300.625 538.92 300.625C538.367 300.625 537.938 300.795 537.631 301.136C537.324 301.473 537.17 301.907 537.17 302.438V308H535.477V302.199C535.477 301.725 535.33 301.345 535.034 301.057C534.739 300.769 534.354 300.625 533.881 300.625C533.559 300.625 533.261 300.71 532.989 300.881C532.72 301.047 532.502 301.28 532.335 301.58C532.172 301.879 532.091 302.225 532.091 302.619V308H530.392Z" fill="#212528"/>
</g>
<path d="M499.293 278.707C499.683 279.098 500.317 279.098 500.707 278.707L507.071 272.343C507.462 271.953 507.462 271.319 507.071 270.929C506.681 270.538 506.047 270.538 505.657 270.929L500 276.586L494.343 270.929C493.953 270.538 493.319 270.538 492.929 270.929C492.538 271.319 492.538 271.953 492.929 272.343L499.293 278.707ZM501 229C501 228.448 500.552 228 500 228C499.448 228 499 228.448 499 229H501ZM501 278V229H499V278H501Z" fill="#8F9396"/>
<path d="M170.707 60.7071C171.098 60.3166 171.098 59.6834 170.707 59.2929L164.343 52.9289C163.953 52.5384 163.319 52.5384 162.929 52.9289C162.538 53.3195 162.538 53.9526 162.929 54.3431L168.586 60L162.929 65.6569C162.538 66.0474 162.538 66.6805 162.929 67.0711C163.319 67.4616 163.953 67.4616 164.343 67.0711L170.707 60.7071ZM131 59C130.448 59 130 59.4477 130 60C130 60.5523 130.448 61 131 61V59ZM170 59H131V61H170V59Z" fill="#8F9396"/>
<path d="M343.707 428.707C344.098 428.317 344.098 427.683 343.707 427.293L337.343 420.929C336.953 420.538 336.319 420.538 335.929 420.929C335.538 421.319 335.538 421.953 335.929 422.343L341.586 428L335.929 433.657C335.538 434.047 335.538 434.681 335.929 435.071C336.319 435.462 336.953 435.462 337.343 435.071L343.707 428.707ZM240 427C239.448 427 239 427.448 239 428C239 428.552 239.448 429 240 429V427ZM343 427H240V429H343V427Z" fill="#8F9396"/>
<path d="M191.786 404.707C192.177 405.098 192.81 405.098 193.2 404.707L199.564 398.343C199.955 397.952 199.955 397.319 199.564 396.929C199.174 396.538 198.541 396.538 198.15 396.929L192.493 402.586L186.836 396.929C186.446 396.538 185.813 396.538 185.422 396.929C185.032 397.319 185.032 397.952 185.422 398.343L191.786 404.707ZM193.493 260.932C193.493 260.379 193.045 259.932 192.493 259.932C191.941 259.932 191.493 260.379 191.493 260.932H193.493ZM193.493 404V260.932H191.493V404H193.493Z" fill="#8F9396"/>
<defs>
<filter id="filter0_d_2077_29291" x="137.425" y="115.068" width="253.151" height="256.438" filterUnits="userSpaceOnUse" color-interpolation-filters="sRGB">
<feFlood flood-opacity="0" result="BackgroundImageFix"/>
<feColorMatrix in="SourceAlpha" type="matrix" values="0 0 0 0 0 0 0 0 0 0 0 0 0 0 0 0 0 0 127 0" result="hardAlpha"/>
<feOffset dy="1.64384"/>
<feGaussianBlur stdDeviation="3.28767"/>
<feComposite in2="hardAlpha" operator="out"/>
<feColorMatrix type="matrix" values="0 0 0 0 0 0 0 0 0 0 0 0 0 0 0 0 0 0 0.25 0"/>
<feBlend mode="normal" in2="BackgroundImageFix" result="effect1_dropShadow_2077_29291"/>
<feBlend mode="normal" in="SourceGraphic" in2="effect1_dropShadow_2077_29291" result="shape"/>
</filter>
<filter id="filter1_d_2077_29291" x="170" y="40" width="182" height="48" filterUnits="userSpaceOnUse" color-interpolation-filters="sRGB">
<feFlood flood-opacity="0" result="BackgroundImageFix"/>
<feColorMatrix in="SourceAlpha" type="matrix" values="0 0 0 0 0 0 0 0 0 0 0 0 0 0 0 0 0 0 127 0" result="hardAlpha"/>
<feOffset dy="4"/>
<feGaussianBlur stdDeviation="2"/>
<feComposite in2="hardAlpha" operator="out"/>
<feColorMatrix type="matrix" values="0 0 0 0 0 0 0 0 0 0 0 0 0 0 0 0 0 0 0.25 0"/>
<feBlend mode="normal" in2="BackgroundImageFix" result="effect1_dropShadow_2077_29291"/>
<feBlend mode="normal" in="SourceGraphic" in2="effect1_dropShadow_2077_29291" result="shape"/>
</filter>
<filter id="filter2_d_2077_29291" x="343" y="408" width="222" height="48" filterUnits="userSpaceOnUse" color-interpolation-filters="sRGB">
<feFlood flood-opacity="0" result="BackgroundImageFix"/>
<feColorMatrix in="SourceAlpha" type="matrix" values="0 0 0 0 0 0 0 0 0 0 0 0 0 0 0 0 0 0 127 0" result="hardAlpha"/>
<feOffset dy="4"/>
<feGaussianBlur stdDeviation="2"/>
<feComposite in2="hardAlpha" operator="out"/>
<feColorMatrix type="matrix" values="0 0 0 0 0 0 0 0 0 0 0 0 0 0 0 0 0 0 0.25 0"/>
<feBlend mode="normal" in2="BackgroundImageFix" result="effect1_dropShadow_2077_29291"/>
<feBlend mode="normal" in="SourceGraphic" in2="effect1_dropShadow_2077_29291" result="shape"/>
</filter>
<filter id="filter3_d_2077_29291" x="436" y="282" width="128" height="48" filterUnits="userSpaceOnUse" color-interpolation-filters="sRGB">
<feFlood flood-opacity="0" result="BackgroundImageFix"/>
<feColorMatrix in="SourceAlpha" type="matrix" values="0 0 0 0 0 0 0 0 0 0 0 0 0 0 0 0 0 0 127 0" result="hardAlpha"/>
<feOffset dy="4"/>
<feGaussianBlur stdDeviation="2"/>
<feComposite in2="hardAlpha" operator="out"/>
<feColorMatrix type="matrix" values="0 0 0 0 0 0 0 0 0 0 0 0 0 0 0 0 0 0 0.25 0"/>
<feBlend mode="normal" in2="BackgroundImageFix" result="effect1_dropShadow_2077_29291"/>
<feBlend mode="normal" in="SourceGraphic" in2="effect1_dropShadow_2077_29291" result="shape"/>
</filter>
</defs>
</svg>
