<svg width="600" height="450" viewBox="0 0 600 450" fill="none" xmlns="http://www.w3.org/2000/svg">
<path d="M69.6 309.333L43 336L69.6 362.667V342.667H116.333V329.333H69.6V309.333ZM163 296L136.4 269.333V289.333H89.6667V302.667H136.4V322.667L163 296Z" fill="#DBEAF6"/>
<path d="M241.667 21H543C552.167 21 559.667 28.5 559.667 37.6667V147.667L534.333 121.333H241.667C232.5 121.333 225 113.833 225 104.667V37.6667C225 28.5 232.5 21 241.667 21Z" fill="#BEDCF4"/>
<rect x="241" y="37" width="303" height="16" rx="2" fill="white"/>
<rect x="241" y="61" width="271" height="12" rx="2" fill="white"/>
<path d="M241 83C241 81.8954 241.895 81 243 81H486C487.105 81 488 81.8954 488 83V91C488 92.1046 487.105 93 486 93H243C241.895 93 241 92.1046 241 91V83Z" fill="white"/>
<rect x="468" y="101" width="56" height="12" rx="2" fill="white"/>
<path d="M539.977 103.47L539.037 102.53L534.81 106.757L535.75 107.697L539.977 103.47ZM542.803 102.53L535.75 109.583L532.963 106.803L532.023 107.743L535.75 111.47L543.75 103.47L542.803 102.53ZM528.25 107.743L531.977 111.47L532.917 110.53L529.197 106.803L528.25 107.743Z" fill="#1E75BA"/>
<path d="M326 146H56.6667C47.5 146 40 153.5 40 162.667V252.667L65.3333 226.333H326C335.167 226.333 342.667 218.833 342.667 209.667V162.667C342.667 153.5 335.167 146 326 146Z" fill="#BEDCF4"/>
<rect x="56" y="162" width="271" height="16" rx="2" fill="#70ABDB"/>
<rect x="56" y="186" width="198" height="12" rx="2" fill="#70ABDB"/>
<rect x="267" y="206" width="40" height="12" rx="2" fill="#70ABDB"/>
<path d="M322.977 208.47L322.037 207.53L317.81 211.757L318.75 212.697L322.977 208.47ZM325.803 207.53L318.75 214.583L315.963 211.803L315.023 212.743L318.75 216.47L326.75 208.47L325.803 207.53ZM311.25 212.743L314.977 216.47L315.917 215.53L312.197 211.803L311.25 212.743Z" fill="#1E75BA"/>
<path d="M376.667 249H542C551.167 249 558.667 256.5 558.667 265.667V354.667L533.333 329.333H376.667C367.5 329.333 360 321.833 360 312.667V265.667C360 256.5 367.5 249 376.667 249Z" fill="#BEDCF4"/>
<rect x="376" y="265" width="167" height="16" rx="2" fill="white"/>
<rect x="376" y="289" width="135" height="12" rx="2" fill="white"/>
<rect x="482" y="309" width="40" height="12" rx="2" fill="white"/>
<path d="M538.977 311.47L538.037 310.53L533.81 314.757L534.75 315.697L538.977 311.47ZM541.803 310.53L534.75 317.583L531.963 314.803L531.023 315.743L534.75 319.47L542.75 311.47L541.803 310.53ZM527.25 315.743L530.977 319.47L531.917 318.53L528.197 314.803L527.25 315.743Z" fill="#1E75BA"/>
<path d="M175.443 405.196V402.545H189.369V405.196H183.974V420H180.838V405.196H175.443ZM193.119 420L189.42 406.909H192.565L194.866 416.114H194.985L197.338 406.909H200.449L202.801 416.062H202.929L205.196 406.909H208.349L204.642 420H201.429L198.974 411.153H198.795L196.341 420H193.119ZM215.838 420.256C214.56 420.256 213.452 419.974 212.515 419.412C211.577 418.849 210.85 418.062 210.333 417.051C209.821 416.04 209.566 414.858 209.566 413.506C209.566 412.153 209.821 410.969 210.333 409.952C210.85 408.935 211.577 408.145 212.515 407.582C213.452 407.02 214.56 406.739 215.838 406.739C217.117 406.739 218.225 407.02 219.162 407.582C220.1 408.145 220.824 408.935 221.336 409.952C221.853 410.969 222.111 412.153 222.111 413.506C222.111 414.858 221.853 416.04 221.336 417.051C220.824 418.062 220.1 418.849 219.162 419.412C218.225 419.974 217.117 420.256 215.838 420.256ZM215.855 417.784C216.549 417.784 217.128 417.594 217.594 417.213C218.06 416.827 218.407 416.31 218.634 415.662C218.867 415.014 218.983 414.293 218.983 413.497C218.983 412.696 218.867 411.972 218.634 411.324C218.407 410.67 218.06 410.151 217.594 409.764C217.128 409.378 216.549 409.185 215.855 409.185C215.145 409.185 214.554 409.378 214.083 409.764C213.617 410.151 213.267 410.67 213.034 411.324C212.807 411.972 212.694 412.696 212.694 413.497C212.694 414.293 212.807 415.014 213.034 415.662C213.267 416.31 213.617 416.827 214.083 417.213C214.554 417.594 215.145 417.784 215.855 417.784ZM233.385 420L229.686 406.909H232.831L235.132 416.114H235.251L237.603 406.909H240.714L243.066 416.062H243.194L245.461 406.909H248.615L244.907 420H241.694L239.24 411.153H239.061L236.606 420H233.385ZM254.536 420.264C253.706 420.264 252.959 420.116 252.294 419.821C251.635 419.52 251.113 419.077 250.726 418.491C250.346 417.906 250.155 417.185 250.155 416.327C250.155 415.588 250.292 414.977 250.564 414.494C250.837 414.011 251.209 413.625 251.681 413.335C252.152 413.045 252.684 412.827 253.275 412.679C253.871 412.526 254.488 412.415 255.124 412.347C255.891 412.267 256.513 412.196 256.99 412.134C257.468 412.065 257.814 411.963 258.03 411.827C258.252 411.685 258.363 411.466 258.363 411.17V411.119C258.363 410.477 258.172 409.98 257.792 409.628C257.411 409.276 256.863 409.099 256.147 409.099C255.391 409.099 254.792 409.264 254.348 409.594C253.911 409.923 253.615 410.312 253.462 410.761L250.581 410.352C250.809 409.557 251.184 408.892 251.706 408.358C252.229 407.818 252.868 407.415 253.624 407.148C254.38 406.875 255.215 406.739 256.13 406.739C256.76 406.739 257.388 406.812 258.013 406.96C258.638 407.108 259.209 407.352 259.726 407.693C260.243 408.028 260.658 408.486 260.971 409.065C261.289 409.645 261.448 410.369 261.448 411.239V420H258.482V418.202H258.38C258.192 418.565 257.928 418.906 257.587 419.224C257.252 419.537 256.828 419.79 256.317 419.983C255.811 420.17 255.218 420.264 254.536 420.264ZM255.337 417.997C255.956 417.997 256.493 417.875 256.948 417.631C257.402 417.381 257.752 417.051 257.996 416.642C258.246 416.233 258.371 415.787 258.371 415.304V413.761C258.275 413.841 258.11 413.915 257.877 413.983C257.65 414.051 257.394 414.111 257.11 414.162C256.826 414.213 256.544 414.259 256.266 414.298C255.988 414.338 255.746 414.372 255.542 414.401C255.081 414.463 254.669 414.565 254.306 414.707C253.942 414.849 253.655 415.048 253.445 415.304C253.235 415.554 253.13 415.878 253.13 416.276C253.13 416.844 253.337 417.273 253.752 417.562C254.167 417.852 254.695 417.997 255.337 417.997ZM265.999 424.909C265.578 424.909 265.189 424.875 264.831 424.807C264.479 424.744 264.198 424.67 263.988 424.585L264.703 422.182C265.152 422.313 265.553 422.375 265.905 422.369C266.257 422.364 266.567 422.253 266.834 422.037C267.107 421.827 267.337 421.474 267.525 420.98L267.789 420.273L263.042 406.909H266.314L269.331 416.795H269.468L272.493 406.909H275.775L270.533 421.585C270.289 422.278 269.965 422.872 269.561 423.366C269.158 423.866 268.664 424.247 268.078 424.509C267.499 424.776 266.806 424.909 265.999 424.909ZM298.939 408.435H295.752C295.661 407.912 295.493 407.449 295.249 407.045C295.005 406.636 294.701 406.29 294.337 406.006C293.973 405.722 293.559 405.509 293.093 405.366C292.632 405.219 292.135 405.145 291.601 405.145C290.652 405.145 289.811 405.384 289.078 405.861C288.346 406.332 287.772 407.026 287.357 407.94C286.942 408.849 286.735 409.96 286.735 411.273C286.735 412.608 286.942 413.733 287.357 414.648C287.777 415.557 288.351 416.244 289.078 416.71C289.811 417.17 290.65 417.401 291.593 417.401C292.115 417.401 292.604 417.332 293.059 417.196C293.519 417.054 293.931 416.847 294.294 416.574C294.664 416.301 294.973 415.966 295.223 415.568C295.479 415.17 295.655 414.716 295.752 414.205L298.939 414.222C298.82 415.051 298.561 415.83 298.164 416.557C297.772 417.284 297.257 417.926 296.621 418.483C295.985 419.034 295.24 419.466 294.388 419.778C293.536 420.085 292.59 420.239 291.55 420.239C290.016 420.239 288.647 419.884 287.442 419.173C286.238 418.463 285.289 417.438 284.596 416.097C283.902 414.756 283.556 413.148 283.556 411.273C283.556 409.392 283.905 407.784 284.604 406.449C285.303 405.108 286.255 404.082 287.459 403.372C288.664 402.662 290.027 402.307 291.55 402.307C292.522 402.307 293.425 402.443 294.26 402.716C295.096 402.989 295.84 403.389 296.493 403.918C297.147 404.44 297.684 405.082 298.104 405.844C298.53 406.599 298.809 407.463 298.939 408.435ZM307.409 420.256C306.13 420.256 305.022 419.974 304.085 419.412C303.147 418.849 302.42 418.062 301.903 417.051C301.392 416.04 301.136 414.858 301.136 413.506C301.136 412.153 301.392 410.969 301.903 409.952C302.42 408.935 303.147 408.145 304.085 407.582C305.022 407.02 306.13 406.739 307.409 406.739C308.687 406.739 309.795 407.02 310.733 407.582C311.67 408.145 312.395 408.935 312.906 409.952C313.423 410.969 313.681 412.153 313.681 413.506C313.681 414.858 313.423 416.04 312.906 417.051C312.395 418.062 311.67 418.849 310.733 419.412C309.795 419.974 308.687 420.256 307.409 420.256ZM307.426 417.784C308.119 417.784 308.699 417.594 309.164 417.213C309.63 416.827 309.977 416.31 310.204 415.662C310.437 415.014 310.554 414.293 310.554 413.497C310.554 412.696 310.437 411.972 310.204 411.324C309.977 410.67 309.63 410.151 309.164 409.764C308.699 409.378 308.119 409.185 307.426 409.185C306.716 409.185 306.125 409.378 305.653 409.764C305.187 410.151 304.838 410.67 304.605 411.324C304.377 411.972 304.264 412.696 304.264 413.497C304.264 414.293 304.377 415.014 304.605 415.662C304.838 416.31 305.187 416.827 305.653 417.213C306.125 417.594 306.716 417.784 307.426 417.784ZM316.3 420V406.909H319.249V409.134H319.402C319.675 408.384 320.127 407.798 320.757 407.378C321.388 406.952 322.141 406.739 323.016 406.739C323.902 406.739 324.65 406.955 325.257 407.386C325.871 407.812 326.303 408.395 326.553 409.134H326.689C326.979 408.406 327.468 407.827 328.155 407.395C328.848 406.957 329.669 406.739 330.618 406.739C331.823 406.739 332.806 407.119 333.567 407.881C334.328 408.642 334.709 409.753 334.709 411.213V420H331.615V411.69C331.615 410.878 331.4 410.284 330.968 409.909C330.536 409.528 330.007 409.338 329.382 409.338C328.638 409.338 328.056 409.571 327.635 410.037C327.221 410.497 327.013 411.097 327.013 411.835V420H323.988V411.562C323.988 410.886 323.783 410.347 323.374 409.943C322.971 409.54 322.442 409.338 321.789 409.338C321.346 409.338 320.942 409.452 320.578 409.679C320.215 409.901 319.925 410.216 319.709 410.625C319.493 411.028 319.385 411.5 319.385 412.04V420H316.3ZM337.839 420V406.909H340.788V409.134H340.941C341.214 408.384 341.666 407.798 342.297 407.378C342.927 406.952 343.68 406.739 344.555 406.739C345.441 406.739 346.189 406.955 346.797 407.386C347.41 407.812 347.842 408.395 348.092 409.134H348.228C348.518 408.406 349.007 407.827 349.694 407.395C350.387 406.957 351.208 406.739 352.157 406.739C353.362 406.739 354.345 407.119 355.106 407.881C355.868 408.642 356.248 409.753 356.248 411.213V420H353.154V411.69C353.154 410.878 352.939 410.284 352.507 409.909C352.075 409.528 351.547 409.338 350.922 409.338C350.177 409.338 349.595 409.571 349.174 410.037C348.76 410.497 348.552 411.097 348.552 411.835V420H345.527V411.562C345.527 410.886 345.322 410.347 344.913 409.943C344.51 409.54 343.981 409.338 343.328 409.338C342.885 409.338 342.481 409.452 342.118 409.679C341.754 409.901 341.464 410.216 341.248 410.625C341.032 411.028 340.924 411.5 340.924 412.04V420H337.839ZM367.722 414.494V406.909H370.807V420H367.816V417.673H367.679C367.384 418.406 366.898 419.006 366.222 419.472C365.551 419.937 364.725 420.17 363.742 420.17C362.884 420.17 362.125 419.98 361.466 419.599C360.813 419.213 360.301 418.653 359.932 417.92C359.563 417.182 359.378 416.29 359.378 415.244V406.909H362.463V414.767C362.463 415.597 362.691 416.256 363.145 416.744C363.6 417.233 364.196 417.477 364.935 417.477C365.39 417.477 365.83 417.366 366.256 417.145C366.682 416.923 367.032 416.594 367.304 416.156C367.583 415.713 367.722 415.159 367.722 414.494ZM377.065 412.33V420H373.98V406.909H376.929V409.134H377.082C377.383 408.401 377.863 407.818 378.522 407.386C379.187 406.955 380.008 406.739 380.985 406.739C381.889 406.739 382.676 406.932 383.346 407.318C384.022 407.705 384.545 408.264 384.914 408.997C385.289 409.73 385.474 410.619 385.468 411.665V420H382.383V412.142C382.383 411.267 382.156 410.582 381.701 410.088C381.252 409.594 380.63 409.347 379.835 409.347C379.295 409.347 378.815 409.466 378.395 409.705C377.98 409.937 377.653 410.276 377.414 410.719C377.181 411.162 377.065 411.699 377.065 412.33ZM388.605 420V406.909H391.69V420H388.605ZM390.156 405.051C389.667 405.051 389.247 404.889 388.895 404.565C388.542 404.236 388.366 403.841 388.366 403.381C388.366 402.915 388.542 402.52 388.895 402.196C389.247 401.866 389.667 401.702 390.156 401.702C390.65 401.702 391.071 401.866 391.417 402.196C391.77 402.52 391.946 402.915 391.946 403.381C391.946 403.841 391.77 404.236 391.417 404.565C391.071 404.889 390.65 405.051 390.156 405.051ZM400.573 420.256C399.266 420.256 398.144 419.969 397.206 419.395C396.275 418.821 395.556 418.028 395.05 417.017C394.55 416 394.3 414.83 394.3 413.506C394.3 412.176 394.556 411.003 395.067 409.986C395.578 408.963 396.3 408.168 397.232 407.599C398.169 407.026 399.277 406.739 400.556 406.739C401.618 406.739 402.559 406.935 403.377 407.327C404.201 407.713 404.857 408.261 405.346 408.972C405.834 409.676 406.113 410.5 406.181 411.443H403.232C403.113 410.812 402.828 410.287 402.38 409.866C401.936 409.44 401.343 409.227 400.598 409.227C399.968 409.227 399.414 409.398 398.936 409.739C398.459 410.074 398.087 410.557 397.82 411.188C397.559 411.818 397.428 412.574 397.428 413.455C397.428 414.347 397.559 415.114 397.82 415.756C398.081 416.392 398.448 416.884 398.919 417.23C399.397 417.571 399.956 417.741 400.598 417.741C401.053 417.741 401.459 417.656 401.817 417.486C402.181 417.31 402.485 417.057 402.729 416.727C402.973 416.398 403.141 415.997 403.232 415.526H406.181C406.107 416.452 405.834 417.273 405.363 417.989C404.891 418.699 404.249 419.256 403.436 419.659C402.624 420.057 401.669 420.256 400.573 420.256ZM412.481 420.264C411.652 420.264 410.904 420.116 410.24 419.821C409.581 419.52 409.058 419.077 408.672 418.491C408.291 417.906 408.1 417.185 408.1 416.327C408.1 415.588 408.237 414.977 408.51 414.494C408.782 414.011 409.154 413.625 409.626 413.335C410.098 413.045 410.629 412.827 411.22 412.679C411.816 412.526 412.433 412.415 413.069 412.347C413.836 412.267 414.458 412.196 414.936 412.134C415.413 412.065 415.76 411.963 415.975 411.827C416.197 411.685 416.308 411.466 416.308 411.17V411.119C416.308 410.477 416.118 409.98 415.737 409.628C415.356 409.276 414.808 409.099 414.092 409.099C413.336 409.099 412.737 409.264 412.294 409.594C411.856 409.923 411.561 410.312 411.407 410.761L408.527 410.352C408.754 409.557 409.129 408.892 409.652 408.358C410.174 407.818 410.814 407.415 411.569 407.148C412.325 406.875 413.16 406.739 414.075 406.739C414.706 406.739 415.333 406.812 415.958 406.96C416.583 407.108 417.154 407.352 417.672 407.693C418.189 408.028 418.603 408.486 418.916 409.065C419.234 409.645 419.393 410.369 419.393 411.239V420H416.427V418.202H416.325C416.137 418.565 415.873 418.906 415.532 419.224C415.197 419.537 414.774 419.79 414.262 419.983C413.757 420.17 413.163 420.264 412.481 420.264ZM413.282 417.997C413.902 417.997 414.439 417.875 414.893 417.631C415.348 417.381 415.697 417.051 415.941 416.642C416.191 416.233 416.316 415.787 416.316 415.304V413.761C416.22 413.841 416.055 413.915 415.822 413.983C415.595 414.051 415.339 414.111 415.055 414.162C414.771 414.213 414.49 414.259 414.211 414.298C413.933 414.338 413.691 414.372 413.487 414.401C413.027 414.463 412.615 414.565 412.251 414.707C411.887 414.849 411.6 415.048 411.39 415.304C411.18 415.554 411.075 415.878 411.075 416.276C411.075 416.844 411.282 417.273 411.697 417.562C412.112 417.852 412.64 417.997 413.282 417.997ZM429.032 406.909V409.295H421.507V406.909H429.032ZM423.365 403.773H426.45V416.062C426.45 416.477 426.512 416.795 426.637 417.017C426.768 417.233 426.939 417.381 427.149 417.46C427.359 417.54 427.592 417.58 427.848 417.58C428.041 417.58 428.217 417.565 428.376 417.537C428.541 417.509 428.666 417.483 428.751 417.46L429.271 419.872C429.106 419.929 428.87 419.991 428.564 420.06C428.262 420.128 427.893 420.168 427.456 420.179C426.683 420.202 425.987 420.085 425.368 419.83C424.748 419.568 424.257 419.165 423.893 418.619C423.535 418.074 423.359 417.392 423.365 416.574V403.773ZM431.613 420V406.909H434.698V420H431.613ZM433.164 405.051C432.675 405.051 432.255 404.889 431.902 404.565C431.55 404.236 431.374 403.841 431.374 403.381C431.374 402.915 431.55 402.52 431.902 402.196C432.255 401.866 432.675 401.702 433.164 401.702C433.658 401.702 434.078 401.866 434.425 402.196C434.777 402.52 434.953 402.915 434.953 403.381C434.953 403.841 434.777 404.236 434.425 404.565C434.078 404.889 433.658 405.051 433.164 405.051ZM443.581 420.256C442.302 420.256 441.194 419.974 440.257 419.412C439.319 418.849 438.592 418.062 438.075 417.051C437.564 416.04 437.308 414.858 437.308 413.506C437.308 412.153 437.564 410.969 438.075 409.952C438.592 408.935 439.319 408.145 440.257 407.582C441.194 407.02 442.302 406.739 443.581 406.739C444.859 406.739 445.967 407.02 446.904 407.582C447.842 408.145 448.566 408.935 449.078 409.952C449.595 410.969 449.853 412.153 449.853 413.506C449.853 414.858 449.595 416.04 449.078 417.051C448.566 418.062 447.842 418.849 446.904 419.412C445.967 419.974 444.859 420.256 443.581 420.256ZM443.598 417.784C444.291 417.784 444.87 417.594 445.336 417.213C445.802 416.827 446.149 416.31 446.376 415.662C446.609 415.014 446.725 414.293 446.725 413.497C446.725 412.696 446.609 411.972 446.376 411.324C446.149 410.67 445.802 410.151 445.336 409.764C444.87 409.378 444.291 409.185 443.598 409.185C442.887 409.185 442.297 409.378 441.825 409.764C441.359 410.151 441.01 410.67 440.777 411.324C440.549 411.972 440.436 412.696 440.436 413.497C440.436 414.293 440.549 415.014 440.777 415.662C441.01 416.31 441.359 416.827 441.825 417.213C442.297 417.594 442.887 417.784 443.598 417.784ZM455.557 412.33V420H452.472V406.909H455.421V409.134H455.574C455.875 408.401 456.355 407.818 457.015 407.386C457.679 406.955 458.5 406.739 459.478 406.739C460.381 406.739 461.168 406.932 461.838 407.318C462.515 407.705 463.037 408.264 463.407 408.997C463.782 409.73 463.966 410.619 463.961 411.665V420H460.875V412.142C460.875 411.267 460.648 410.582 460.194 410.088C459.745 409.594 459.123 409.347 458.327 409.347C457.787 409.347 457.307 409.466 456.887 409.705C456.472 409.937 456.145 410.276 455.907 410.719C455.674 411.162 455.557 411.699 455.557 412.33Z" fill="#3A74B5"/>
<path fill-rule="evenodd" clip-rule="evenodd" d="M138.737 417.825L136.867 424.667L143.84 422.825C145.762 423.886 147.923 424.441 150.118 424.438C157.359 424.438 163.249 418.51 163.249 411.225C163.249 407.69 161.887 404.371 159.402 401.871C156.917 399.371 153.618 398 150.105 398C142.864 398 136.973 403.927 136.987 411.225C136.984 413.54 137.587 415.816 138.737 417.825ZM144.549 420.688L144.148 420.446L144.146 420.447L139.992 421.549L141.101 417.49L140.847 417.073C139.751 415.326 139.177 413.296 139.177 411.226C139.177 405.178 144.079 400.245 150.104 400.245C153.017 400.245 155.768 401.401 157.827 403.47C159.884 405.54 161.019 408.308 161.019 411.239C161.019 417.287 156.117 422.22 150.106 422.22C148.149 422.219 146.229 421.689 144.549 420.688Z" fill="url(#paint0_linear_2090_28699)"/>
<path d="M144.148 420.446L144.549 420.688C146.23 421.689 148.15 422.219 150.106 422.22C156.117 422.22 161.02 417.287 161.02 411.239C161.02 408.309 159.885 405.54 157.827 403.47C155.769 401.401 153.017 400.245 150.105 400.245C144.08 400.245 139.177 405.178 139.177 411.226C139.177 413.296 139.752 415.326 140.848 417.073L141.101 417.49L139.992 421.549L144.147 420.447L144.148 420.446Z" fill="url(#paint1_linear_2090_28699)"/>
<path fill-rule="evenodd" clip-rule="evenodd" d="M146.832 405.688C146.592 405.137 146.324 405.123 146.098 405.123C145.897 405.11 145.683 405.11 145.456 405.11C145.242 405.11 144.882 405.19 144.575 405.526C144.267 405.862 143.426 406.656 143.426 408.282C143.426 409.908 144.602 411.481 144.762 411.696C144.922 411.911 147.033 415.352 150.372 416.683C153.151 417.784 153.712 417.57 154.313 417.502C154.914 417.435 156.25 416.71 156.53 415.929C156.797 415.164 156.797 414.492 156.717 414.357C156.637 414.223 156.41 414.142 156.089 413.967C155.755 413.806 154.153 413 153.845 412.892C153.538 412.784 153.324 412.731 153.111 413.053C152.897 413.389 152.269 414.129 152.068 414.343C151.882 414.559 151.682 414.586 151.361 414.424C151.026 414.263 149.972 413.914 148.715 412.784C147.741 411.911 147.086 410.822 146.886 410.5C146.699 410.164 146.859 409.989 147.033 409.828C147.18 409.68 147.367 409.438 147.527 409.249C147.687 409.061 147.74 408.914 147.861 408.698C147.968 408.484 147.914 408.282 147.834 408.121C147.754 407.973 147.126 406.347 146.832 405.688Z" fill="white"/>
<defs>
<linearGradient id="paint0_linear_2090_28699" x1="150.056" y1="424.669" x2="150.056" y2="398.004" gradientUnits="userSpaceOnUse">
<stop stop-color="#F9F9F9"/>
<stop offset="1" stop-color="white"/>
</linearGradient>
<linearGradient id="paint1_linear_2090_28699" x1="150.055" y1="424.208" x2="150.055" y2="398.465" gradientUnits="userSpaceOnUse">
<stop stop-color="#20B038"/>
<stop offset="1" stop-color="#60D66A"/>
</linearGradient>
</defs>
</svg>
