<svg width="600" height="450" viewBox="0 0 600 450" fill="none" xmlns="http://www.w3.org/2000/svg">
<rect x="40" y="57" width="172" height="101" rx="8" fill="#E2F0FF"/>
<path d="M56 136L115.5 108.5L185.5 132.5L247.5 117.5L315.5 127.5L379 79L442.5 122.5L509 117L575.5 87.5" stroke="#1E75BA" stroke-width="2"/>
<rect x="388" y="177" width="172" height="72" rx="8" fill="#F9EAE5"/>
<rect x="202" y="181" width="172" height="72" rx="8" fill="#EFEAE3"/>
<rect x="40" y="268" width="172" height="160" rx="8" fill="#E8F7E8"/>
<path d="M81 334H96V383H81V334ZM109 313H123V383H109V313ZM137 353H151V383H137V353Z" fill="#B7D4B7"/>
<rect x="229" y="268" width="172" height="72" rx="8" fill="#DCEEFA"/>
<path d="M509 300H439C433.5 300 429 304.5 429 310V380C429 385.5 433.5 390 439 390H509C514.5 390 519 385.5 519 380V310C519 304.5 514.5 300 509 300ZM509 380H439V310H509V380Z" fill="#E8F7E8"/>
<path d="M459 345H449V370H459V345Z" fill="#E8F7E8"/>
<path d="M499 320H489V370H499V320Z" fill="#E8F7E8"/>
<path d="M479 355H469V370H479V355Z" fill="#E8F7E8"/>
<path d="M479 335H469V345H479V335Z" fill="#E8F7E8"/>
<path d="M21.869 209.435H18.6815C18.5906 208.912 18.4229 208.449 18.1786 208.045C17.9343 207.636 17.6303 207.29 17.2667 207.006C16.9031 206.722 16.4883 206.509 16.0224 206.366C15.5621 206.219 15.065 206.145 14.5309 206.145C13.582 206.145 12.7411 206.384 12.0082 206.861C11.2752 207.332 10.7013 208.026 10.2866 208.94C9.8718 209.849 9.66442 210.96 9.66442 212.273C9.66442 213.608 9.8718 214.733 10.2866 215.648C10.707 216.557 11.2809 217.244 12.0082 217.71C12.7411 218.17 13.5792 218.401 14.5224 218.401C15.0451 218.401 15.5337 218.332 15.9883 218.196C16.4485 218.054 16.8604 217.847 17.2241 217.574C17.5934 217.301 17.9031 216.966 18.1531 216.568C18.4087 216.17 18.5849 215.716 18.6815 215.205L21.869 215.222C21.7496 216.051 21.4911 216.83 21.0934 217.557C20.7013 218.284 20.1871 218.926 19.5508 219.483C18.9144 220.034 18.1701 220.466 17.3178 220.778C16.4656 221.085 15.5195 221.239 14.4798 221.239C12.9457 221.239 11.5763 220.884 10.3718 220.173C9.16726 219.463 8.2184 218.438 7.52521 217.097C6.83203 215.756 6.48544 214.148 6.48544 212.273C6.48544 210.392 6.83487 208.784 7.53374 207.449C8.2326 206.108 9.1843 205.082 10.3888 204.372C11.5934 203.662 12.957 203.307 14.4798 203.307C15.4513 203.307 16.3548 203.443 17.19 203.716C18.0252 203.989 18.7695 204.389 19.4229 204.918C20.0763 205.44 20.6133 206.082 21.0337 206.844C21.4599 207.599 21.7383 208.463 21.869 209.435ZM27.7134 203.545V221H24.6282V203.545H27.7134ZM30.886 221V207.909H33.9712V221H30.886ZM32.4371 206.051C31.9485 206.051 31.5281 205.889 31.1758 205.565C30.8235 205.236 30.6474 204.841 30.6474 204.381C30.6474 203.915 30.8235 203.52 31.1758 203.196C31.5281 202.866 31.9485 202.702 32.4371 202.702C32.9315 202.702 33.3519 202.866 33.6985 203.196C34.0508 203.52 34.2269 203.915 34.2269 204.381C34.2269 204.841 34.0508 205.236 33.6985 205.565C33.3519 205.889 32.9315 206.051 32.4371 206.051ZM42.854 221.256C41.5472 221.256 40.4251 220.969 39.4876 220.395C38.5558 219.821 37.837 219.028 37.3313 218.017C36.8313 217 36.5813 215.83 36.5813 214.506C36.5813 213.176 36.837 212.003 37.3484 210.986C37.8597 209.963 38.5813 209.168 39.5131 208.599C40.4506 208.026 41.5586 207.739 42.837 207.739C43.8995 207.739 44.8398 207.935 45.658 208.327C46.4819 208.713 47.1381 209.261 47.6268 209.972C48.1154 210.676 48.3938 211.5 48.462 212.443H45.5131C45.3938 211.812 45.1097 211.287 44.6609 210.866C44.2177 210.44 43.6239 210.227 42.8796 210.227C42.2489 210.227 41.695 210.398 41.2177 210.739C40.7404 211.074 40.3683 211.557 40.1012 212.188C39.8398 212.818 39.7092 213.574 39.7092 214.455C39.7092 215.347 39.8398 216.114 40.1012 216.756C40.3626 217.392 40.729 217.884 41.2006 218.23C41.6779 218.571 42.2376 218.741 42.8796 218.741C43.3342 218.741 43.7404 218.656 44.0984 218.486C44.462 218.31 44.766 218.057 45.0103 217.727C45.2546 217.398 45.4222 216.997 45.5131 216.526H48.462C48.3881 217.452 48.1154 218.273 47.6438 218.989C47.1722 219.699 46.5302 220.256 45.7177 220.659C44.9052 221.057 43.9506 221.256 42.854 221.256ZM53.8079 216.892L53.7994 213.168H54.2937L58.9982 207.909H62.6033L56.8164 214.352H56.1772L53.8079 216.892ZM50.9954 221V203.545H54.0806V221H50.9954ZM59.2113 221L54.9499 215.043L57.0295 212.869L62.9016 221H59.2113ZM85.6893 209.435H82.5018C82.4109 208.912 82.2433 208.449 81.9989 208.045C81.7546 207.636 81.4506 207.29 81.087 207.006C80.7234 206.722 80.3086 206.509 79.8427 206.366C79.3825 206.219 78.8853 206.145 78.3512 206.145C77.4023 206.145 76.5614 206.384 75.8285 206.861C75.0955 207.332 74.5217 208.026 74.1069 208.94C73.6921 209.849 73.4847 210.96 73.4847 212.273C73.4847 213.608 73.6921 214.733 74.1069 215.648C74.5273 216.557 75.1012 217.244 75.8285 217.71C76.5614 218.17 77.3995 218.401 78.3427 218.401C78.8654 218.401 79.354 218.332 79.8086 218.196C80.2688 218.054 80.6808 217.847 81.0444 217.574C81.4137 217.301 81.7234 216.966 81.9734 216.568C82.229 216.17 82.4052 215.716 82.5018 215.205L85.6893 215.222C85.57 216.051 85.3114 216.83 84.9137 217.557C84.5217 218.284 84.0075 218.926 83.3711 219.483C82.7347 220.034 81.9904 220.466 81.1381 220.778C80.2859 221.085 79.3398 221.239 78.3001 221.239C76.766 221.239 75.3967 220.884 74.1921 220.173C72.9876 219.463 72.0387 218.438 71.3455 217.097C70.6523 215.756 70.3058 214.148 70.3058 212.273C70.3058 210.392 70.6552 208.784 71.354 207.449C72.0529 206.108 73.0046 205.082 74.2092 204.372C75.4137 203.662 76.7773 203.307 78.3001 203.307C79.2717 203.307 80.1751 203.443 81.0103 203.716C81.8455 203.989 82.5898 204.389 83.2433 204.918C83.8967 205.44 84.4336 206.082 84.854 206.844C85.2802 207.599 85.5586 208.463 85.6893 209.435ZM94.1587 221.256C92.8803 221.256 91.7724 220.974 90.8349 220.412C89.8974 219.849 89.1701 219.062 88.6531 218.051C88.1417 217.04 87.886 215.858 87.886 214.506C87.886 213.153 88.1417 211.969 88.6531 210.952C89.1701 209.935 89.8974 209.145 90.8349 208.582C91.7724 208.02 92.8803 207.739 94.1587 207.739C95.4371 207.739 96.5451 208.02 97.4826 208.582C98.4201 209.145 99.1445 209.935 99.6559 210.952C100.173 211.969 100.431 213.153 100.431 214.506C100.431 215.858 100.173 217.04 99.6559 218.051C99.1445 219.062 98.4201 219.849 97.4826 220.412C96.5451 220.974 95.4371 221.256 94.1587 221.256ZM94.1758 218.784C94.869 218.784 95.4485 218.594 95.9144 218.213C96.3803 217.827 96.7269 217.31 96.9542 216.662C97.1871 216.014 97.3036 215.293 97.3036 214.497C97.3036 213.696 97.1871 212.972 96.9542 212.324C96.7269 211.67 96.3803 211.151 95.9144 210.764C95.4485 210.378 94.869 210.185 94.1758 210.185C93.4656 210.185 92.8746 210.378 92.4031 210.764C91.9371 211.151 91.5877 211.67 91.3548 212.324C91.1275 212.972 91.0138 213.696 91.0138 214.497C91.0138 215.293 91.1275 216.014 91.3548 216.662C91.5877 217.31 91.9371 217.827 92.4031 218.213C92.8746 218.594 93.4656 218.784 94.1758 218.784ZM111.394 215.494V207.909H114.479V221H111.488V218.673H111.351C111.056 219.406 110.57 220.006 109.894 220.472C109.223 220.937 108.397 221.17 107.414 221.17C106.556 221.17 105.797 220.98 105.138 220.599C104.485 220.213 103.973 219.653 103.604 218.92C103.235 218.182 103.05 217.29 103.05 216.244V207.909H106.135V215.767C106.135 216.597 106.363 217.256 106.817 217.744C107.272 218.233 107.868 218.477 108.607 218.477C109.061 218.477 109.502 218.366 109.928 218.145C110.354 217.923 110.703 217.594 110.976 217.156C111.255 216.713 111.394 216.159 111.394 215.494ZM120.737 213.33V221H117.652V207.909H120.6V210.134H120.754C121.055 209.401 121.535 208.818 122.194 208.386C122.859 207.955 123.68 207.739 124.657 207.739C125.561 207.739 126.348 207.932 127.018 208.318C127.694 208.705 128.217 209.264 128.586 209.997C128.961 210.73 129.146 211.619 129.14 212.665V221H126.055V213.142C126.055 212.267 125.828 211.582 125.373 211.088C124.924 210.594 124.302 210.347 123.507 210.347C122.967 210.347 122.487 210.466 122.066 210.705C121.652 210.937 121.325 211.276 121.086 211.719C120.853 212.162 120.737 212.699 120.737 213.33ZM138.814 207.909V210.295H131.288V207.909H138.814ZM133.146 204.773H136.231V217.062C136.231 217.477 136.294 217.795 136.419 218.017C136.549 218.233 136.72 218.381 136.93 218.46C137.14 218.54 137.373 218.58 137.629 218.58C137.822 218.58 137.998 218.565 138.157 218.537C138.322 218.509 138.447 218.483 138.532 218.46L139.052 220.872C138.887 220.929 138.652 220.991 138.345 221.06C138.044 221.128 137.674 221.168 137.237 221.179C136.464 221.202 135.768 221.085 135.149 220.83C134.529 220.568 134.038 220.165 133.674 219.619C133.316 219.074 133.14 218.392 133.146 217.574V204.773ZM151.553 211.369L148.74 211.676C148.661 211.392 148.522 211.125 148.323 210.875C148.13 210.625 147.868 210.423 147.539 210.27C147.209 210.116 146.806 210.04 146.328 210.04C145.686 210.04 145.147 210.179 144.709 210.457C144.277 210.736 144.064 211.097 144.07 211.54C144.064 211.92 144.203 212.23 144.488 212.469C144.777 212.707 145.255 212.903 145.919 213.057L148.152 213.534C149.391 213.801 150.311 214.224 150.914 214.804C151.522 215.384 151.828 216.142 151.834 217.08C151.828 217.903 151.587 218.631 151.11 219.261C150.638 219.886 149.982 220.375 149.141 220.727C148.3 221.08 147.334 221.256 146.243 221.256C144.641 221.256 143.351 220.92 142.374 220.25C141.397 219.574 140.814 218.634 140.627 217.429L143.635 217.139C143.772 217.73 144.061 218.176 144.505 218.477C144.948 218.778 145.525 218.929 146.235 218.929C146.968 218.929 147.556 218.778 147.999 218.477C148.448 218.176 148.672 217.804 148.672 217.361C148.672 216.986 148.527 216.676 148.238 216.432C147.953 216.187 147.51 216 146.908 215.869L144.675 215.401C143.419 215.139 142.49 214.699 141.888 214.08C141.286 213.455 140.988 212.665 140.993 211.71C140.988 210.903 141.206 210.205 141.65 209.614C142.098 209.017 142.721 208.557 143.516 208.233C144.317 207.903 145.24 207.739 146.286 207.739C147.82 207.739 149.027 208.065 149.908 208.719C150.794 209.372 151.343 210.256 151.553 211.369Z" fill="#307368"/>
<path d="M281.048 356.086V334.714C281.048 326.829 287.264 320.429 294.922 320.429C302.581 320.429 308.797 326.829 308.797 334.714V356.086C315.512 351.457 319.897 343.629 319.897 334.714C319.897 320.486 308.742 309 294.922 309C281.103 309 269.948 320.486 269.948 334.714C269.948 343.629 274.332 351.457 281.048 356.086ZM311.572 370.2C310.018 369.4 308.353 369 306.633 369H303.247V334.714C303.247 329.971 299.529 326.143 294.922 326.143C290.316 326.143 286.598 329.971 286.598 334.714V396.086L267.506 391.971C265.453 391.514 263.288 392.2 261.79 393.743C259.403 396.257 259.403 400.257 261.79 402.771L284.045 425.686C286.154 427.8 288.984 429 291.925 429H325.78C331.329 429 335.991 424.829 336.768 419.171L340.265 393.629C340.931 388.771 338.489 383.971 334.215 381.8L311.572 370.2Z" fill="#1E75BA"/>
</svg>
