<svg width="560" height="500" viewBox="0 0 560 500" fill="none" xmlns="http://www.w3.org/2000/svg">
<rect width="560" height="500" rx="16" fill="white"/>
<rect x="3" y="2" width="56" height="56" rx="16" fill="#E8F7E8"/>
<path d="M40.8985 26.89L39.8485 22.52C39.6285 21.62 38.8485 21 37.9385 21H24.0485C23.1485 21 22.3585 21.63 22.1485 22.52L21.0985 26.89C20.8585 27.91 21.0785 28.95 21.7185 29.77C21.7985 29.88 21.9085 29.96 21.9985 30.06V37C21.9985 38.1 22.8985 39 23.9985 39H37.9985C39.0985 39 39.9985 38.1 39.9985 37V30.06C40.0885 29.97 40.1985 29.88 40.2785 29.78C40.9185 28.96 41.1485 27.91 40.8985 26.89ZM37.9085 22.99L38.9585 27.36C39.0585 27.78 38.9685 28.2 38.7085 28.53C38.5685 28.71 38.2685 29 37.7685 29C37.1585 29 36.6285 28.51 36.5585 27.86L35.9785 23L37.9085 22.99ZM31.9985 23H33.9585L34.4985 27.52C34.5485 27.91 34.4285 28.3 34.1685 28.59C33.9485 28.85 33.6285 29 33.2185 29C32.5485 29 31.9985 28.41 31.9985 27.69V23ZM27.4885 27.52L28.0385 23H29.9985V27.69C29.9985 28.41 29.4485 29 28.7085 29C28.3685 29 28.0585 28.85 27.8185 28.59C27.5685 28.3 27.4485 27.91 27.4885 27.52ZM23.0385 27.36L24.0485 23H26.0185L25.4385 27.86C25.3585 28.51 24.8385 29 24.2285 29C23.7385 29 23.4285 28.71 23.2985 28.53C23.0285 28.21 22.9385 27.78 23.0385 27.36ZM23.9985 37V30.97C24.0785 30.98 24.1485 31 24.2285 31C25.0985 31 25.8885 30.64 26.4685 30.05C27.0685 30.65 27.8685 31 28.7785 31C29.6485 31 30.4285 30.64 31.0085 30.07C31.5985 30.64 32.3985 31 33.2985 31C34.1385 31 34.9385 30.65 35.5385 30.05C36.1185 30.64 36.9085 31 37.7785 31C37.8585 31 37.9285 30.98 38.0085 30.97V37H23.9985Z" fill="#307368"/>
<rect x="152" y="6" width="80" height="80" rx="16" fill="#F2F2F3"/>
<path d="M170.275 49.261C170.918 53.9458 173.123 58.1712 176.43 61.57L183.87 54.1295C183.87 46.2297 188.004 39.0648 194.801 35.023L170.275 49.261Z" fill="#9B65C3"/>
<path d="M183.962 54.0376C180.104 54.0376 176.338 53.0272 173.031 51.0981C172.113 50.547 171.194 49.904 170.275 49.261C170.918 53.9457 173.123 58.1712 176.43 61.57L183.962 54.0376Z" fill="#9B65C3"/>
<path d="M183.962 54.0376L176.43 61.5699C179.828 64.9687 184.054 67.0814 188.647 67.7244L202.885 43.1064C199.027 49.8121 191.77 54.0376 183.962 54.0376Z" fill="#BE63C5"/>
<path d="M186.902 65.0606C184.972 61.6618 183.962 57.9875 183.962 54.1295L176.43 61.57C179.828 64.9687 184.054 67.0814 188.647 67.7244C188.096 66.8059 187.453 65.9791 186.902 65.0606Z" fill="#BF63C6"/>
<path d="M211.979 25.1942L194.894 34.9311C188.096 38.7891 179.829 38.7891 172.939 34.9311C171.01 38.3299 170 42.1879 170 46.0459C170 47.0564 170.092 48.2505 170.276 49.261C171.194 49.904 172.113 50.547 173.031 51.0981C176.43 53.0271 180.104 54.0376 183.962 54.0376L212.347 25.6534C212.163 25.5616 212.071 25.3779 211.979 25.1942Z" fill="#3278B1"/>
<path d="M172.939 51.0982C176.338 53.0272 180.012 54.0376 183.87 54.0376C183.87 46.1378 188.004 38.9729 194.801 34.9312L170.275 49.1691C171.194 49.904 172.021 50.547 172.939 51.0982Z" fill="#3278B2"/>
<path d="M172.939 34.9312C171.01 38.3299 170 42.1879 170 46.046C170 47.0564 170.092 48.2506 170.276 49.261L194.894 34.9312C188.188 38.9729 179.829 38.9729 172.939 34.9312Z" fill="#45A4EC"/>
<path d="M212.347 25.6534C211.979 25.286 211.704 25.0104 211.336 24.7349C210.509 24.2756 209.499 24 208.58 24H191.954C184.054 24 176.797 28.2255 172.939 34.9311C179.737 38.7891 188.004 38.7891 194.894 34.9311C188.096 38.7891 183.962 46.1378 183.962 54.0376C191.862 54.0376 199.027 49.904 203.069 43.1065L212.806 26.0209C212.622 25.929 212.438 25.8372 212.347 25.6534Z" fill="#19BB7D"/>
<path d="M194.894 34.9312L211.979 25.1942C211.704 25.1024 211.612 24.8268 211.336 24.6431L172.939 34.9312C179.829 38.9729 188.188 38.9729 194.894 34.9312Z" fill="#08C7FB"/>
<path d="M208.489 24H191.954C184.054 24 176.797 28.2255 172.939 34.9311L211.336 24.643C210.418 24.2756 209.499 24 208.489 24Z" fill="#59F2F6"/>
<path d="M203.069 43.1065L212.806 26.0209C212.714 25.929 212.531 25.7453 212.439 25.4697L184.055 53.9457C184.055 57.8038 185.065 61.5699 186.994 64.8768C187.545 65.7954 188.188 66.714 188.831 67.6326C189.842 67.7244 190.852 67.9081 191.954 67.9081C195.813 67.9081 199.579 66.8977 202.886 64.9687C199.028 58.1712 199.028 49.8121 203.069 43.1065Z" fill="#DA3757"/>
<path d="M183.963 54.0376C183.963 57.8956 184.973 61.6618 186.902 64.9687C187.453 65.8872 188.097 66.8058 188.74 67.7244L202.978 43.1064C199.028 49.8121 191.771 54.0376 183.963 54.0376Z" fill="#D33C4E"/>
<path d="M203.068 43.1064L188.83 67.7244C189.841 67.8163 190.851 68 192.045 68C195.903 68 199.669 66.9895 202.976 65.0605C199.026 58.1712 199.026 49.8121 203.068 43.1064Z" fill="#EE5A24"/>
<path d="M213.266 26.7557C212.898 26.1127 212.531 25.5616 211.98 25.1942L194.894 34.9311C188.097 38.7891 183.963 46.1378 183.963 54.0376C191.863 54.0376 199.028 49.904 203.069 43.1065C199.211 49.904 199.211 58.1712 203.069 65.0605C209.775 61.2025 214 53.9457 214 46.2296V29.5115C214 28.501 213.725 27.5825 213.266 26.7557Z" fill="#8BDF55"/>
<path d="M211.98 25.1942L194.894 34.9311C188.097 38.7891 183.963 46.1378 183.963 54.0376L212.347 25.6534C212.163 25.5616 212.071 25.286 211.98 25.1942Z" fill="#25C16F"/>
<path d="M183.963 54.0376C191.863 54.0376 199.028 49.904 203.069 43.1065L212.806 26.0209C212.714 25.929 212.531 25.7453 212.439 25.4697L183.963 54.0376Z" fill="#8BDF55"/>
<path d="M212.806 26.0209L203.069 43.1065C199.211 49.904 199.211 58.1712 203.069 65.0606L213.357 26.7558C213.082 26.4802 212.99 26.2965 212.806 26.0209Z" fill="#FFBB00"/>
<path d="M203.068 65.0605C209.866 61.2025 213.999 53.9457 213.999 46.0459V29.5115C213.999 28.501 213.724 27.5825 213.265 26.6639L203.068 65.0605Z" fill="#FFA800"/>
<rect x="410" y="289" width="80" height="80" rx="16" fill="#F2F2F3"/>
<path d="M450.053 351H435.735C431.473 351 428 347.526 428 343.262V329C428 328.287 428.576 327.71 429.289 327.71C430.002 327.71 430.578 328.287 430.578 329V343.262C430.578 346.099 432.884 348.421 435.735 348.421H450.053C450.766 348.421 451.342 348.997 451.342 349.71C451.342 350.423 450.766 351 450.053 351Z" fill="#F9B21D"/>
<path d="M464.265 351H450.053C449.34 351 448.764 350.423 448.764 349.71C448.764 348.997 449.34 348.421 450.053 348.421H464.265C467.101 348.421 469.421 346.114 469.421 343.262V329C469.421 328.287 469.998 327.71 470.711 327.71C471.423 327.71 472 328.287 472 329V343.262C471.985 347.526 468.527 351 464.265 351Z" fill="#226DB4"/>
<path d="M470.711 330.29C469.998 330.29 469.421 329.713 469.421 329V314.738C469.421 311.901 467.116 309.579 464.265 309.579H450.053C449.34 309.579 448.764 309.003 448.764 308.29C448.764 307.577 449.34 307 450.053 307H464.265C468.527 307 472 310.474 472 314.738V329C471.985 329.713 471.408 330.29 470.711 330.29Z" fill="#089949"/>
<path d="M429.289 330.29C428.576 330.29 428 329.713 428 329V314.738C428 310.474 431.473 307 435.735 307H450.053C450.766 307 451.342 307.577 451.342 308.29C451.342 309.003 450.766 309.579 450.053 309.579H435.735C432.899 309.579 430.578 311.886 430.578 314.738V329C430.578 329.713 430.002 330.29 429.289 330.29Z" fill="#E42527"/>
<path d="M456.378 340.222C453.4 340.222 450.604 339.063 448.486 336.978L442.529 331.019C441.768 330.241 441.338 329.232 441.338 328.139C441.338 327.047 441.768 326.037 442.546 325.259C444.134 323.703 446.699 323.703 448.271 325.276L453.731 330.738C454.211 331.218 455.005 331.218 455.501 330.738C455.733 330.506 455.865 330.192 455.865 329.844C455.865 329.513 455.733 329.199 455.501 328.95L449.545 322.992C447.956 321.419 445.855 320.559 443.605 320.559C441.321 320.559 439.187 321.452 437.615 323.074C436.027 324.697 435.183 326.848 435.216 329.132C435.266 331.35 436.159 333.419 437.731 334.975C439.319 336.531 441.404 337.392 443.621 337.392C443.952 337.392 444.267 337.375 444.598 337.342C445.375 337.259 446.07 337.806 446.153 338.583C446.236 339.361 445.69 340.057 444.912 340.139C444.482 340.189 444.052 340.206 443.621 340.206C440.66 340.206 437.863 339.063 435.762 336.994C433.661 334.926 432.453 332.161 432.403 329.215C432.337 326.17 433.479 323.306 435.596 321.138C437.714 318.97 440.56 317.778 443.605 317.761C443.621 317.761 443.621 317.761 443.638 317.761C446.616 317.761 449.412 318.92 451.53 321.006L457.487 326.964C458.265 327.742 458.678 328.752 458.678 329.844C458.678 330.937 458.248 331.963 457.47 332.724C455.882 334.297 453.317 334.28 451.745 332.708L446.285 327.246C445.805 326.766 445.011 326.766 444.531 327.246C444.3 327.477 444.167 327.792 444.167 328.123C444.167 328.454 444.3 328.768 444.531 329L450.488 334.959C452.076 336.531 454.178 337.392 456.395 337.392C461.028 337.392 464.8 333.618 464.8 328.983C464.8 326.732 463.923 324.63 462.335 323.025C460.746 321.436 458.629 320.559 456.395 320.559C456.08 320.559 455.766 320.575 455.452 320.608C454.674 320.691 453.979 320.145 453.896 319.367C453.814 318.589 454.36 317.894 455.137 317.811C455.551 317.761 455.981 317.745 456.395 317.745C459.39 317.745 462.202 318.92 464.337 321.039C466.455 323.157 467.63 325.988 467.63 328.983C467.63 331.979 466.455 334.793 464.337 336.912C462.186 339.063 459.373 340.222 456.378 340.222Z" fill="#226DB4"/>
<rect x="185" y="314" width="144" height="144" rx="16" fill="#F2F2F3"/>
<path d="M216.464 367.525C216.918 367.979 217.735 369.115 218.825 368.615C219.96 368.07 225.818 367.525 227.725 367.253C229.632 367.026 231.267 367.298 231.267 367.298C231.267 367.298 226.227 374.246 225.455 375.381C224.592 376.471 220.278 382.691 219.461 383.963C218.644 385.28 216.6 388.731 215.647 390.456C214.784 392.182 216.237 392.045 216.237 392.045C216.237 392.045 219.688 392.136 220.46 392.136C221.186 392.091 221.323 391.591 221.413 391.364C221.595 391.092 221.777 390.365 222.458 389.276C223.048 388.186 224.547 385.688 226.181 382.964C227.816 380.285 229.723 377.606 231.131 375.608C232.629 373.565 234.309 371.203 234.718 370.658C235.081 370.114 236.761 367.889 237.124 367.389C237.488 366.844 237.624 366.89 238.214 366.844C238.396 366.844 238.895 366.844 239.486 366.89C241.03 366.935 243.482 367.162 244.662 367.253C246.388 367.434 248.885 367.48 250.429 367.616C251.973 367.798 251.519 366.89 251.519 366.89C251.519 366.89 251.609 365.845 251.201 364.755C250.701 363.62 250.338 363.756 250.338 363.756C248.567 363.212 242.891 362.803 239.486 362.712C238.623 362.667 237.896 362.667 237.442 362.667H236.716C233.583 362.712 225.863 363.166 224.183 363.348C222.367 363.529 216.464 364.665 215.374 364.846C214.33 365.119 214.92 365.8 214.92 365.8C214.92 365.8 215.964 367.026 216.464 367.525Z" fill="#3069B3"/>
<path d="M299.469 401.354C299.106 401.172 294.338 399.492 292.976 399.084C291.523 398.72 285.529 397.449 284.757 397.358C283.985 397.267 285.847 395.451 286.573 394.497C287.3 393.68 291.296 389.321 292.703 388.05C294.02 386.733 297.471 383.554 298.516 382.555C299.515 381.556 297.971 381.102 297.971 381.102C297.971 381.102 297.471 380.83 295.473 380.376C293.43 379.876 292.976 380.966 292.976 380.966C292.976 380.966 290.161 383.6 288.481 385.189C286.755 386.778 284.757 388.095 283.349 388.867C282.033 389.639 280.67 390.184 280.08 389.82C279.535 389.503 280.08 388.685 280.443 387.959C280.807 387.187 282.986 384.78 283.531 384.099C284.076 383.418 286.573 380.739 287.618 379.695C288.617 378.605 286.846 378.196 285.983 377.969C285.166 377.787 284.621 377.651 283.713 377.651C282.895 377.651 282.578 378.242 282.578 378.242C282.578 378.242 281.079 379.785 280.67 380.33C280.307 380.875 276.22 385.371 274.949 386.733C273.632 388.095 271.861 389.412 271.362 389.593C270.817 389.775 269.773 390.048 268.864 388.912C267.956 387.777 268.683 387.096 269.863 385.461C271.089 383.872 274.177 380.285 275.676 378.514C277.219 376.788 282.941 372.066 284.076 371.249C285.166 370.431 284.53 370.159 284.53 370.159C284.53 370.159 283.531 369.478 282.941 369.296C282.396 369.024 281.442 368.842 280.443 368.842C279.49 368.842 279.127 369.387 279.127 369.387C279.127 369.387 275.948 372.021 275.312 372.656C274.722 373.201 267.775 380.012 266.503 381.329C265.232 382.646 261.599 385.915 260.373 386.96C259.102 388.004 257.967 388.504 257.285 388.05C256.604 387.595 256.831 386.824 257.285 386.188C257.649 385.507 260.419 382.101 261.418 380.966C262.417 379.831 265.413 376.652 266.458 375.562C267.502 374.473 271.68 370.84 272.86 369.796C274.132 368.797 272.588 368.161 272.588 368.161C272.588 368.161 271.725 367.616 270.227 367.344C268.728 367.026 268.456 367.389 267.638 367.934C266.776 368.479 261.236 374.246 260.691 374.881C260.146 375.426 253.426 382.192 252.427 383.282C251.382 384.281 247.977 387.368 247.25 387.777C246.66 388.277 244.662 389.639 244.163 388.776C243.572 387.959 244.753 387.187 244.753 387.187C244.753 387.187 247.704 384.326 248.749 383.1C249.793 381.874 249.203 380.149 249.021 379.695C248.794 379.195 247.977 377.878 246.524 376.652C245.025 375.426 243.572 375.381 242.528 375.381C241.665 375.426 240.394 376.198 239.395 376.698C239.213 376.743 239.077 376.879 238.895 376.925C238.033 377.56 235.081 379.831 235.081 379.831C235.081 379.831 232.72 381.965 231.267 383.418C229.95 384.871 228.86 386.052 230.313 388.958C231.812 391.864 234.536 392.545 235.717 392.681C236.761 392.863 238.214 391.682 238.668 391.228C239.032 390.865 239.213 390.91 239.486 391.41C239.531 391.455 239.577 391.591 239.667 391.682C240.031 392.409 241.302 392.908 242.483 393.135C243.572 393.317 244.072 393.044 246.07 392.454C248.068 391.864 251.746 389.593 252.381 389.094C253.108 388.549 253.153 389.366 253.744 390.456C254.334 391.546 255.832 391.955 257.104 392.091C258.421 392.182 259.011 391.864 259.919 391.501C260.736 391.137 263.007 390.002 263.733 389.503C264.414 389.049 264.505 389.003 264.778 389.73C265.05 390.411 265.096 391.001 267.139 392.363C269.137 393.816 272.542 392.954 273.269 392.727C274.086 392.454 275.539 391.682 275.903 391.455C276.266 391.228 276.584 391.818 277.401 392.681C278.173 393.453 279.717 393.408 280.716 392.772C281.715 392.091 281.215 392.817 281.215 392.817C281.215 392.817 279.717 394.906 279.217 395.451C278.763 395.996 278.718 396.405 278.218 396.268C277.764 396.178 276.175 396.041 273.768 395.905C271.362 395.723 265.731 395.451 261.645 395.406C257.558 395.36 246.751 395.95 242.71 396.178C241.847 396.223 240.712 396.359 239.44 396.45C234.809 396.949 228.452 397.948 226 398.266C222.912 398.766 213.104 400.809 211.106 401.445C210.606 401.626 210.379 401.763 210.334 401.99V402.081C210.425 402.625 211.878 403.216 212.922 403.715C214.421 404.442 215.874 404.033 215.874 404.033C215.874 404.033 218.825 403.488 220.369 403.216C221.868 402.898 232.902 401.218 235.671 400.718C236.443 400.627 237.76 400.446 239.395 400.219C243.618 399.719 249.612 399.174 251.655 398.993C254.516 398.811 262.462 398.811 264.687 398.766C266.912 398.72 274.586 399.129 274.994 399.22C275.358 399.311 276.584 399.174 275.812 399.81C275.085 400.582 273.314 404.215 272.86 405.032C272.406 405.895 272.588 405.849 273.405 406.303C274.177 406.758 276.22 406.848 276.72 406.848C277.174 406.848 277.31 406.303 277.31 406.303C277.31 406.303 279.808 402.489 280.625 401.263C281.442 399.946 281.942 400.264 281.942 400.264C281.942 400.264 285.847 400.991 287.572 401.309C289.298 401.626 295.655 403.307 297.017 403.897C298.379 404.487 299.015 404.442 299.378 404.351C299.742 404.169 300.604 402.262 300.604 402.262V401.944C300.559 401.808 299.742 401.581 299.469 401.354ZM240.893 385.87C240.575 386.142 240.031 386.46 239.44 386.869C237.987 387.868 236.262 389.003 235.717 389.185C234.945 389.412 234.445 389.684 233.991 389.003C233.492 388.322 234.945 387.005 234.945 387.005C234.945 387.005 237.579 384.644 238.578 383.736C238.805 383.554 239.122 383.282 239.44 383.055C240.757 382.01 242.573 380.557 243.073 380.285C243.663 379.967 244.163 379.695 244.708 380.239C245.252 380.784 244.798 381.329 244.617 381.602C244.526 381.92 242.074 385.007 240.893 385.87Z" fill="#3069B3"/>
<path d="M303.93 375.88C304.702 375.88 305.428 376.062 306.11 376.425C306.836 376.788 307.381 377.379 307.744 378.06C308.107 378.786 308.334 379.513 308.334 380.239C308.334 380.966 308.107 381.738 307.744 382.419C307.381 383.145 306.791 383.69 306.11 384.054C305.383 384.417 304.656 384.644 303.93 384.644C303.158 384.644 302.431 384.417 301.75 384.054C301.024 383.69 300.479 383.1 300.116 382.419C299.752 381.692 299.525 380.966 299.525 380.239C299.525 379.513 299.752 378.741 300.116 378.06C300.479 377.333 301.069 376.788 301.75 376.425C302.431 376.016 303.158 375.88 303.93 375.88ZM303.93 376.607C303.34 376.607 302.704 376.788 302.114 377.106C301.523 377.424 301.069 377.878 300.751 378.468C300.434 379.059 300.252 379.694 300.252 380.33C300.252 381.011 300.434 381.602 300.751 382.147C301.069 382.737 301.523 383.191 302.114 383.509C302.704 383.827 303.34 384.008 303.93 384.008C304.611 384.008 305.201 383.827 305.746 383.509C306.291 383.191 306.791 382.737 307.108 382.147C307.426 381.602 307.608 380.92 307.608 380.33C307.608 379.649 307.426 379.059 307.108 378.468C306.791 377.878 306.337 377.424 305.746 377.106C305.156 376.743 304.52 376.607 303.93 376.607ZM302.023 382.691V377.969H303.657C304.202 377.969 304.611 378.014 304.883 378.06C305.156 378.151 305.338 378.287 305.474 378.559C305.655 378.786 305.701 379.013 305.701 379.24C305.701 379.558 305.61 379.922 305.338 380.103C305.065 380.376 304.793 380.466 304.339 380.557C304.52 380.603 304.611 380.739 304.702 380.83C304.883 381.011 305.156 381.329 305.428 381.783L305.973 382.737H305.02L304.566 381.965C304.248 381.42 303.975 381.011 303.748 380.875C303.567 380.784 303.43 380.693 303.158 380.693H302.704V382.737H302.023V382.691ZM302.795 380.058H303.748C304.202 380.058 304.52 380.012 304.611 379.831C304.793 379.74 304.883 379.513 304.883 379.286C304.883 379.104 304.838 379.013 304.793 378.923C304.747 378.832 304.611 378.741 304.475 378.65C304.293 378.605 304.112 378.605 303.703 378.605H302.84V380.058H302.795Z" fill="#3069B3"/>
<rect x="474" y="6" width="80" height="80" rx="16" fill="#F2F2F3"/>
<rect x="492" y="24" width="44" height="44" fill="#D92727"/>
<path d="M515.347 58.9C514.204 58.9 513.061 58.7766 511.962 58.5298C508.138 57.707 504.798 55.4854 502.732 52.3587C498.424 45.8585 500.534 37.3424 507.479 33.2695C508.05 32.9403 508.754 33.1049 509.105 33.6397C509.457 34.1334 509.281 34.8328 508.71 35.1619C502.908 38.5766 501.106 45.7351 504.754 51.2067C506.512 53.8397 509.281 55.6911 512.49 56.3905C515.699 57.0898 519.083 56.5962 521.896 54.9505C522.468 54.6214 523.171 54.786 523.523 55.3208C523.874 55.8556 523.698 56.5139 523.127 56.843C520.797 58.2006 518.072 58.9 515.347 58.9Z" fill="white"/>
<path fill-rule="evenodd" clip-rule="evenodd" d="M507.63 33.5289C500.826 37.5197 498.775 45.8442 502.982 52.193C505.002 55.2503 508.274 57.4292 512.026 58.2365L512.028 58.237C513.105 58.4789 514.226 58.6 515.347 58.6C518.022 58.6 520.695 57.9132 522.976 56.5838L522.977 56.583C523.411 56.3333 523.521 55.8651 523.272 55.4856C523.01 55.0873 522.484 54.9587 522.047 55.21C519.166 56.8948 515.705 57.3982 512.426 56.6836C509.145 55.9684 506.308 54.0739 504.504 51.3733C500.755 45.7497 502.616 38.4001 508.558 34.9034L508.56 34.902C508.997 34.65 509.097 34.1456 508.861 33.8138L508.858 33.8092L508.855 33.8045C508.593 33.4062 508.067 33.2777 507.63 33.5289ZM509.353 33.4703C508.911 32.803 508.033 32.6042 507.329 33.0095L507.327 33.0107C500.242 37.166 498.074 45.8731 502.482 52.5244C504.593 55.7198 508.003 57.9842 511.898 58.8228C513.019 59.0744 514.183 59.2 515.347 59.2C518.122 59.2 520.899 58.4882 523.277 57.1026C523.986 56.6939 524.227 55.8459 523.773 55.156C523.332 54.485 522.452 54.2843 521.746 54.6906L521.745 54.6916C518.999 56.2976 515.692 56.7814 512.554 56.0973C509.418 55.4137 506.717 53.6057 505.004 51.0403C501.457 45.7209 503.199 38.754 508.861 35.4212C509.564 35.0154 509.815 34.1251 509.353 33.4703Z" fill="white"/>
<path d="M526.269 54.7287C526.949 54.7287 527.5 54.213 527.5 53.5768C527.5 52.9406 526.949 52.4248 526.269 52.4248C525.589 52.4248 525.038 52.9406 525.038 53.5768C525.038 54.213 525.589 54.7287 526.269 54.7287Z" fill="white"/>
<path fill-rule="evenodd" clip-rule="evenodd" d="M526.269 52.7248C525.736 52.7248 525.338 53.1246 525.338 53.5768C525.338 54.0289 525.736 54.4287 526.269 54.4287C526.802 54.4287 527.2 54.0289 527.2 53.5768C527.2 53.1246 526.802 52.7248 526.269 52.7248ZM524.738 53.5768C524.738 52.7565 525.442 52.1248 526.269 52.1248C527.095 52.1248 527.8 52.7565 527.8 53.5768C527.8 54.397 527.095 55.0287 526.269 55.0287C525.442 55.0287 524.738 54.397 524.738 53.5768Z" fill="white"/>
<rect x="3" y="388" width="88" height="88" rx="16" fill="#E8F7E8"/>
<path fill-rule="evenodd" clip-rule="evenodd" d="M58.05 458.545L57.9252 410.561C57.602 410.238 56.9716 410.335 56.7252 410.407L55.0836 410.916C54.881 410.249 54.618 409.602 54.298 408.983C53.1332 406.759 51.4308 405.583 49.37 405.58H49.3636C49.226 405.58 49.09 405.593 48.9524 405.604L48.9364 405.606C48.8768 405.532 48.8149 405.461 48.7508 405.391C47.8548 404.431 46.7028 403.962 45.3236 404.002C42.6644 404.079 40.0164 406.002 37.8676 409.418C36.3556 411.823 35.2084 414.842 34.8804 417.18L29.6436 418.804C28.1028 419.289 28.0548 419.337 27.8516 420.791C27.6996 421.892 23.666 453.122 23.666 453.122L57.4708 458.975L58.05 458.543V458.545ZM46.9748 406.196C46.5252 405.9 45.9988 405.762 45.3748 405.775C41.2692 405.894 37.6884 412.314 36.7748 416.593L40.7076 415.374L41.41 415.156C41.9252 412.439 43.218 409.62 44.9092 407.806C45.5005 407.155 46.1986 406.611 46.9732 406.196H46.9748ZM43.354 414.553L48.9988 412.802C49.0164 411.33 48.8564 409.154 48.1204 407.618C47.3364 407.942 46.6772 408.508 46.2036 409.015C44.9348 410.38 43.8996 412.462 43.3556 414.553H43.354ZM50.7668 412.255L53.3908 411.441C52.9716 410.078 51.9764 407.793 49.9588 407.409C50.586 409.03 50.7476 410.906 50.7668 412.255V412.255Z" fill="#95BF47"/>
<path d="M65.6243 414.13C65.4227 414.114 61.5155 414.054 61.5155 414.054C61.5155 414.054 58.2467 410.876 57.9235 410.551C57.7984 410.436 57.6398 410.363 57.4707 410.343V458.967L72.1187 455.321C72.1187 455.321 66.1411 414.855 66.1027 414.578C66.0842 414.461 66.0269 414.353 65.9399 414.272C65.8529 414.19 65.7413 414.141 65.6227 414.13H65.6243Z" fill="#5E8E3E"/>
<path d="M49.3538 421.681L47.6514 428.055C47.6514 428.055 45.7538 427.19 43.5026 427.332C40.2034 427.54 40.1682 429.625 40.2018 430.148C40.381 432.996 47.8706 433.62 48.2914 440.297C48.6226 445.55 45.509 449.145 41.0226 449.426C35.6386 449.767 32.6738 446.586 32.6738 446.586L33.8146 441.726C33.8146 441.726 36.7986 443.98 39.1858 443.828C40.7474 443.73 41.3042 442.46 41.2482 441.561C41.013 437.844 34.9138 438.062 34.5282 431.953C34.205 426.809 37.5762 421.601 45.0178 421.13C47.885 420.948 49.3538 421.682 49.3538 421.682" fill="white"/>
<rect x="500" y="388" width="56" height="56" rx="16" fill="#E8F7E8"/>
<path d="M534 410H532C532 407.79 530.21 406 528 406C525.79 406 524 407.79 524 410H522C520.9 410 520 410.9 520 412V424C520 425.1 520.9 426 522 426H534C535.1 426 536 425.1 536 424V412C536 410.9 535.1 410 534 410ZM528 408C529.1 408 530 408.9 530 410H526C526 408.9 526.9 408 528 408ZM534 424H522V412H524V414C524 414.55 524.45 415 525 415C525.55 415 526 414.55 526 414V412H530V414C530 414.55 530.45 415 531 415C531.55 415 532 414.55 532 414V412H534V424Z" fill="#307368"/>
<g filter="url(#filter0_d_6539_17184)">
<rect x="187" y="180" width="203" height="84" rx="16" fill="#212528" shape-rendering="crispEdges"/>
<path d="M214.49 211.636V232H212.025V211.636H214.49ZM221.463 222.812V232H219.116V216.727H221.384V219.114H221.582C221.94 218.338 222.484 217.715 223.213 217.244C223.942 216.767 224.884 216.528 226.037 216.528C227.071 216.528 227.976 216.741 228.751 217.165C229.527 217.582 230.13 218.219 230.561 219.074C230.992 219.922 231.207 220.996 231.207 222.295V232H228.861V222.455C228.861 221.255 228.549 220.32 227.926 219.651C227.303 218.974 226.448 218.636 225.361 218.636C224.612 218.636 223.942 218.799 223.352 219.124C222.769 219.448 222.308 219.922 221.97 220.545C221.632 221.169 221.463 221.924 221.463 222.812ZM242.137 216.727V218.716H234.223V216.727H242.137ZM236.529 213.068H238.876V227.625C238.876 228.288 238.972 228.785 239.164 229.116C239.363 229.441 239.615 229.66 239.92 229.773C240.232 229.879 240.56 229.932 240.904 229.932C241.163 229.932 241.375 229.919 241.541 229.892C241.707 229.859 241.839 229.832 241.939 229.812L242.416 231.92C242.257 231.98 242.035 232.04 241.75 232.099C241.465 232.166 241.103 232.199 240.666 232.199C240.003 232.199 239.353 232.056 238.717 231.771C238.087 231.486 237.564 231.052 237.146 230.469C236.735 229.885 236.529 229.15 236.529 228.261V213.068ZM251.907 232.318C250.435 232.318 249.166 231.993 248.098 231.344C247.038 230.688 246.219 229.773 245.642 228.599C245.072 227.42 244.787 226.047 244.787 224.483C244.787 222.919 245.072 221.54 245.642 220.347C246.219 219.147 247.021 218.212 248.049 217.543C249.083 216.866 250.289 216.528 251.668 216.528C252.463 216.528 253.249 216.661 254.025 216.926C254.8 217.191 255.506 217.622 256.142 218.219C256.779 218.809 257.286 219.591 257.664 220.565C258.042 221.54 258.23 222.74 258.23 224.165V225.159H246.458V223.131H255.844C255.844 222.269 255.672 221.5 255.327 220.824C254.989 220.148 254.505 219.614 253.875 219.223C253.252 218.832 252.516 218.636 251.668 218.636C250.733 218.636 249.925 218.868 249.242 219.332C248.566 219.79 248.045 220.386 247.681 221.122C247.316 221.858 247.134 222.647 247.134 223.489V224.841C247.134 225.994 247.333 226.972 247.73 227.774C248.135 228.57 248.695 229.176 249.411 229.594C250.127 230.005 250.959 230.21 251.907 230.21C252.523 230.21 253.08 230.124 253.577 229.952C254.081 229.773 254.515 229.508 254.88 229.156C255.244 228.798 255.526 228.354 255.725 227.824L257.992 228.46C257.753 229.229 257.352 229.905 256.789 230.489C256.225 231.065 255.529 231.516 254.701 231.841C253.872 232.159 252.941 232.318 251.907 232.318ZM267.965 238.045C266.831 238.045 265.857 237.9 265.042 237.608C264.226 237.323 263.547 236.945 263.003 236.474C262.466 236.01 262.039 235.513 261.721 234.983L263.59 233.67C263.802 233.949 264.07 234.267 264.395 234.625C264.72 234.99 265.164 235.304 265.728 235.57C266.298 235.841 267.043 235.977 267.965 235.977C269.198 235.977 270.215 235.679 271.017 235.082C271.819 234.486 272.221 233.551 272.221 232.278V229.176H272.022C271.849 229.455 271.604 229.799 271.286 230.21C270.974 230.615 270.524 230.976 269.934 231.294C269.35 231.606 268.561 231.761 267.567 231.761C266.334 231.761 265.227 231.47 264.246 230.886C263.272 230.303 262.499 229.455 261.929 228.341C261.366 227.227 261.084 225.875 261.084 224.284C261.084 222.72 261.359 221.357 261.909 220.197C262.46 219.031 263.225 218.129 264.206 217.493C265.187 216.85 266.321 216.528 267.607 216.528C268.601 216.528 269.39 216.694 269.973 217.026C270.563 217.35 271.014 217.722 271.326 218.139C271.644 218.55 271.889 218.888 272.061 219.153H272.3V216.727H274.567V232.438C274.567 233.75 274.269 234.817 273.672 235.639C273.082 236.468 272.287 237.074 271.286 237.459C270.292 237.85 269.185 238.045 267.965 238.045ZM267.885 229.653C268.827 229.653 269.622 229.438 270.272 229.007C270.921 228.576 271.415 227.956 271.753 227.148C272.091 226.339 272.26 225.371 272.26 224.244C272.26 223.144 272.095 222.173 271.763 221.331C271.432 220.489 270.941 219.83 270.292 219.352C269.642 218.875 268.84 218.636 267.885 218.636C266.891 218.636 266.062 218.888 265.4 219.392C264.743 219.896 264.249 220.572 263.918 221.42C263.593 222.269 263.431 223.21 263.431 224.244C263.431 225.305 263.596 226.243 263.928 227.058C264.266 227.867 264.763 228.503 265.419 228.967C266.082 229.425 266.904 229.653 267.885 229.653ZM278.863 232V216.727H281.13V219.034H281.289C281.567 218.278 282.071 217.665 282.8 217.195C283.529 216.724 284.351 216.489 285.266 216.489C285.438 216.489 285.654 216.492 285.912 216.499C286.171 216.505 286.366 216.515 286.499 216.528V218.915C286.419 218.895 286.237 218.865 285.952 218.825C285.674 218.779 285.379 218.756 285.067 218.756C284.325 218.756 283.662 218.911 283.078 219.223C282.502 219.528 282.044 219.952 281.706 220.496C281.375 221.033 281.209 221.646 281.209 222.335V232H278.863ZM293.775 232.358C292.807 232.358 291.929 232.176 291.14 231.811C290.351 231.44 289.725 230.906 289.261 230.21C288.797 229.508 288.565 228.659 288.565 227.665C288.565 226.79 288.737 226.08 289.082 225.537C289.426 224.987 289.887 224.556 290.464 224.244C291.04 223.933 291.677 223.701 292.373 223.548C293.076 223.389 293.781 223.263 294.491 223.17C295.419 223.051 296.171 222.962 296.748 222.902C297.331 222.836 297.755 222.726 298.021 222.574C298.292 222.421 298.428 222.156 298.428 221.778V221.699C298.428 220.718 298.16 219.955 297.623 219.412C297.093 218.868 296.287 218.597 295.207 218.597C294.086 218.597 293.208 218.842 292.572 219.332C291.935 219.823 291.488 220.347 291.229 220.903L289.002 220.108C289.4 219.18 289.93 218.457 290.593 217.94C291.263 217.417 291.992 217.052 292.781 216.847C293.576 216.634 294.358 216.528 295.127 216.528C295.618 216.528 296.181 216.588 296.817 216.707C297.46 216.82 298.08 217.055 298.677 217.413C299.28 217.771 299.781 218.312 300.178 219.034C300.576 219.757 300.775 220.724 300.775 221.938V232H298.428V229.932H298.309C298.15 230.263 297.885 230.618 297.513 230.996C297.142 231.374 296.648 231.695 296.032 231.96C295.415 232.225 294.663 232.358 293.775 232.358ZM294.133 230.25C295.061 230.25 295.843 230.068 296.479 229.703C297.122 229.339 297.606 228.868 297.931 228.291C298.263 227.714 298.428 227.108 298.428 226.472V224.324C298.329 224.443 298.11 224.553 297.772 224.652C297.441 224.745 297.056 224.828 296.619 224.901C296.188 224.967 295.767 225.027 295.356 225.08C294.951 225.126 294.623 225.166 294.371 225.199C293.762 225.278 293.192 225.408 292.661 225.587C292.138 225.759 291.713 226.021 291.388 226.372C291.07 226.717 290.911 227.187 290.911 227.784C290.911 228.599 291.213 229.216 291.816 229.634C292.426 230.045 293.198 230.25 294.133 230.25ZM311.7 216.727V218.716H303.785V216.727H311.7ZM306.092 213.068H308.439V227.625C308.439 228.288 308.535 228.785 308.727 229.116C308.926 229.441 309.178 229.66 309.483 229.773C309.794 229.879 310.122 229.932 310.467 229.932C310.725 229.932 310.938 229.919 311.103 229.892C311.269 229.859 311.402 229.832 311.501 229.812L311.978 231.92C311.819 231.98 311.597 232.04 311.312 232.099C311.027 232.166 310.666 232.199 310.228 232.199C309.565 232.199 308.916 232.056 308.279 231.771C307.65 231.486 307.126 231.052 306.708 230.469C306.297 229.885 306.092 229.15 306.092 228.261V213.068ZM315.23 232V216.727H317.576V232H315.23ZM316.423 214.182C315.966 214.182 315.571 214.026 315.24 213.714C314.915 213.403 314.752 213.028 314.752 212.591C314.752 212.153 314.915 211.779 315.24 211.467C315.571 211.156 315.966 211 316.423 211C316.88 211 317.271 211.156 317.596 211.467C317.928 211.779 318.093 212.153 318.093 212.591C318.093 213.028 317.928 213.403 317.596 213.714C317.271 214.026 316.88 214.182 316.423 214.182ZM328.079 232.318C326.7 232.318 325.49 231.99 324.45 231.334C323.415 230.678 322.607 229.759 322.023 228.58C321.447 227.4 321.158 226.021 321.158 224.443C321.158 222.852 321.447 221.464 322.023 220.277C322.607 219.09 323.415 218.169 324.45 217.513C325.49 216.857 326.7 216.528 328.079 216.528C329.458 216.528 330.664 216.857 331.698 217.513C332.739 218.169 333.548 219.09 334.124 220.277C334.708 221.464 334.999 222.852 334.999 224.443C334.999 226.021 334.708 227.4 334.124 228.58C333.548 229.759 332.739 230.678 331.698 231.334C330.664 231.99 329.458 232.318 328.079 232.318ZM328.079 230.21C329.126 230.21 329.988 229.942 330.664 229.405C331.34 228.868 331.841 228.162 332.165 227.287C332.49 226.412 332.653 225.464 332.653 224.443C332.653 223.422 332.49 222.471 332.165 221.589C331.841 220.708 331.34 219.995 330.664 219.452C329.988 218.908 329.126 218.636 328.079 218.636C327.031 218.636 326.17 218.908 325.494 219.452C324.817 219.995 324.317 220.708 323.992 221.589C323.667 222.471 323.505 223.422 323.505 224.443C323.505 225.464 323.667 226.412 323.992 227.287C324.317 228.162 324.817 228.868 325.494 229.405C326.17 229.942 327.031 230.21 328.079 230.21ZM340.928 222.812V232H338.581V216.727H340.848V219.114H341.047C341.405 218.338 341.949 217.715 342.678 217.244C343.407 216.767 344.348 216.528 345.502 216.528C346.536 216.528 347.441 216.741 348.216 217.165C348.992 217.582 349.595 218.219 350.026 219.074C350.457 219.922 350.672 220.996 350.672 222.295V232H348.326V222.455C348.326 221.255 348.014 220.32 347.391 219.651C346.768 218.974 345.913 218.636 344.826 218.636C344.077 218.636 343.407 218.799 342.817 219.124C342.234 219.448 341.773 219.922 341.435 220.545C341.097 221.169 340.928 221.924 340.928 222.812ZM365.778 220.148L363.67 220.744C363.538 220.393 363.342 220.052 363.084 219.72C362.832 219.382 362.487 219.104 362.05 218.885C361.612 218.666 361.052 218.557 360.369 218.557C359.435 218.557 358.656 218.772 358.033 219.203C357.416 219.627 357.108 220.168 357.108 220.824C357.108 221.407 357.32 221.868 357.744 222.206C358.169 222.544 358.831 222.826 359.733 223.051L362 223.608C363.366 223.939 364.383 224.446 365.053 225.129C365.722 225.805 366.057 226.677 366.057 227.744C366.057 228.619 365.805 229.402 365.301 230.091C364.804 230.78 364.108 231.324 363.213 231.722C362.318 232.119 361.277 232.318 360.091 232.318C358.533 232.318 357.244 231.98 356.223 231.304C355.202 230.628 354.556 229.64 354.284 228.341L356.511 227.784C356.723 228.606 357.125 229.223 357.714 229.634C358.311 230.045 359.09 230.25 360.051 230.25C361.145 230.25 362.013 230.018 362.656 229.554C363.306 229.083 363.631 228.52 363.631 227.864C363.631 227.333 363.445 226.889 363.074 226.531C362.703 226.167 362.133 225.895 361.364 225.716L358.818 225.119C357.42 224.788 356.392 224.274 355.736 223.578C355.086 222.875 354.761 221.997 354.761 220.943C354.761 220.081 355.003 219.319 355.487 218.656C355.978 217.993 356.644 217.473 357.486 217.095C358.334 216.717 359.295 216.528 360.369 216.528C361.881 216.528 363.067 216.86 363.929 217.523C364.797 218.186 365.414 219.061 365.778 220.148Z" fill="white"/>
</g>
<path d="M394 221.25C393.586 221.25 393.25 221.586 393.25 222C393.25 222.414 393.586 222.75 394 222.75V221.25ZM527.47 384.53C527.763 384.823 528.237 384.823 528.53 384.53L533.303 379.757C533.596 379.464 533.596 378.99 533.303 378.697C533.01 378.404 532.536 378.404 532.243 378.697L528 382.939L523.757 378.697C523.464 378.404 522.99 378.404 522.697 378.697C522.404 378.99 522.404 379.464 522.697 379.757L527.47 384.53ZM394 222.75H504V221.25H394V222.75ZM527.25 246V384H528.75V246H527.25ZM504 222.75C516.841 222.75 527.25 233.159 527.25 246H528.75C528.75 232.331 517.669 221.25 504 221.25V222.75Z" fill="#8F9396"/>
<path d="M183 222.75C183.414 222.75 183.75 222.414 183.75 222C183.75 221.586 183.414 221.25 183 221.25V222.75ZM94.4697 431.47C94.1768 431.763 94.1768 432.237 94.4697 432.53L99.2426 437.303C99.5355 437.596 100.01 437.596 100.303 437.303C100.596 437.01 100.596 436.536 100.303 436.243L96.0607 432L100.303 427.757C100.596 427.464 100.596 426.99 100.303 426.697C100.01 426.404 99.5355 426.404 99.2426 426.697L94.4697 431.47ZM183 221.25H163V222.75H183V221.25ZM138.25 246V408H139.75V246H138.25ZM115 431.25H95V432.75H115V431.25ZM138.25 408C138.25 420.841 127.841 431.25 115 431.25V432.75C128.669 432.75 139.75 421.669 139.75 408H138.25ZM163 221.25C149.331 221.25 138.25 232.331 138.25 246H139.75C139.75 233.159 150.159 222.75 163 222.75V221.25Z" fill="#8F9396"/>
<path d="M287.75 176C287.75 176.414 288.086 176.75 288.5 176.75C288.914 176.75 289.25 176.414 289.25 176H287.75ZM192.53 89.4697C192.237 89.1768 191.763 89.1768 191.47 89.4697L186.697 94.2426C186.404 94.5355 186.404 95.0104 186.697 95.3033C186.99 95.5962 187.464 95.5962 187.757 95.3033L192 91.0607L196.243 95.3033C196.536 95.5962 197.01 95.5962 197.303 95.3033C197.596 95.0104 197.596 94.5355 197.303 94.2426L192.53 89.4697ZM289.25 176V157H287.75V176H289.25ZM264.5 132.25H216V133.75H264.5V132.25ZM192.75 109V90H191.25V109H192.75ZM216 132.25C203.159 132.25 192.75 121.841 192.75 109H191.25C191.25 122.669 202.331 133.75 216 133.75V132.25ZM289.25 157C289.25 143.331 278.169 132.25 264.5 132.25V133.75C277.341 133.75 287.75 144.159 287.75 157H289.25Z" fill="#8F9396"/>
<path d="M394 221.25C393.586 221.25 393.25 221.586 393.25 222C393.25 222.414 393.586 222.75 394 222.75V221.25ZM470.53 46.5303C470.823 46.2374 470.823 45.7626 470.53 45.4697L465.757 40.6967C465.464 40.4038 464.99 40.4038 464.697 40.6967C464.404 40.9896 464.404 41.4645 464.697 41.7574L468.939 46L464.697 50.2426C464.404 50.5355 464.404 51.0104 464.697 51.3033C464.99 51.5962 465.464 51.5962 465.757 51.3033L470.53 46.5303ZM394 222.75H408V221.25H394V222.75ZM432.75 198V70H431.25V198H432.75ZM456 46.75H470V45.25H456V46.75ZM432.75 70C432.75 57.1594 443.159 46.75 456 46.75V45.25C442.331 45.25 431.25 56.331 431.25 70H432.75ZM408 222.75C421.669 222.75 432.75 211.669 432.75 198H431.25C431.25 210.841 420.841 221.25 408 221.25V222.75Z" fill="#8F9396"/>
<defs>
<filter id="filter0_d_6539_17184" x="179" y="176" width="219" height="100" filterUnits="userSpaceOnUse" color-interpolation-filters="sRGB">
<feFlood flood-opacity="0" result="BackgroundImageFix"/>
<feColorMatrix in="SourceAlpha" type="matrix" values="0 0 0 0 0 0 0 0 0 0 0 0 0 0 0 0 0 0 127 0" result="hardAlpha"/>
<feOffset dy="4"/>
<feGaussianBlur stdDeviation="4"/>
<feComposite in2="hardAlpha" operator="out"/>
<feColorMatrix type="matrix" values="0 0 0 0 0 0 0 0 0 0 0 0 0 0 0 0 0 0 0.2 0"/>
<feBlend mode="normal" in2="BackgroundImageFix" result="effect1_dropShadow_6539_17184"/>
<feBlend mode="normal" in="SourceGraphic" in2="effect1_dropShadow_6539_17184" result="shape"/>
</filter>
</defs>
</svg>
