<svg width="600" height="450" viewBox="0 0 600 450" fill="none" xmlns="http://www.w3.org/2000/svg">
<rect x="40" y="86" width="172" height="89" rx="8" fill="#E2F0FF"/>
<path d="M82.6666 117.167H61.3333C59.8666 117.167 58.6666 118.367 58.6666 119.833V143.833L64 138.5H82.6666C84.1333 138.5 85.3333 137.3 85.3333 135.833V119.833C85.3333 118.367 84.1333 117.167 82.6666 117.167ZM82.6666 135.833H64L61.3333 138.5V119.833H82.6666V135.833Z" fill="#1E75BA"/>
<path d="M96.6165 112.141V110.818H104.496V112.141H101.32V121H99.7884V112.141H96.6165ZM108.228 121.154C107.512 121.154 106.887 120.99 106.353 120.662C105.82 120.334 105.405 119.875 105.11 119.285C104.815 118.695 104.668 118.005 104.668 117.217C104.668 116.424 104.815 115.732 105.11 115.138C105.405 114.545 105.82 114.085 106.353 113.756C106.887 113.428 107.512 113.264 108.228 113.264C108.944 113.264 109.568 113.428 110.102 113.756C110.636 114.085 111.05 114.545 111.345 115.138C111.64 115.732 111.787 116.424 111.787 117.217C111.787 118.005 111.64 118.695 111.345 119.285C111.05 119.875 110.636 120.334 110.102 120.662C109.568 120.99 108.944 121.154 108.228 121.154ZM108.233 119.906C108.697 119.906 109.081 119.784 109.386 119.538C109.691 119.293 109.916 118.967 110.062 118.559C110.211 118.151 110.286 117.702 110.286 117.212C110.286 116.724 110.211 116.277 110.062 115.869C109.916 115.458 109.691 115.129 109.386 114.88C109.081 114.631 108.697 114.507 108.233 114.507C107.765 114.507 107.377 114.631 107.069 114.88C106.764 115.129 106.537 115.458 106.388 115.869C106.242 116.277 106.169 116.724 106.169 117.212C106.169 117.702 106.242 118.151 106.388 118.559C106.537 118.967 106.764 119.293 107.069 119.538C107.377 119.784 107.765 119.906 108.233 119.906ZM117.011 113.364V114.557H112.84V113.364H117.011ZM113.959 111.534H115.445V118.758C115.445 119.046 115.488 119.263 115.574 119.409C115.661 119.552 115.772 119.649 115.907 119.702C116.047 119.752 116.198 119.777 116.36 119.777C116.479 119.777 116.584 119.769 116.673 119.752C116.763 119.736 116.832 119.722 116.882 119.712L117.15 120.94C117.064 120.973 116.942 121.007 116.782 121.04C116.623 121.076 116.425 121.096 116.186 121.099C115.795 121.106 115.43 121.036 115.092 120.891C114.754 120.745 114.481 120.519 114.272 120.214C114.063 119.91 113.959 119.527 113.959 119.066V111.534ZM120.878 121.169C120.394 121.169 119.956 121.08 119.565 120.901C119.174 120.718 118.864 120.455 118.636 120.11C118.41 119.765 118.298 119.343 118.298 118.842C118.298 118.411 118.38 118.057 118.546 117.778C118.712 117.5 118.936 117.28 119.217 117.117C119.499 116.955 119.814 116.832 120.162 116.749C120.51 116.666 120.865 116.603 121.226 116.56C121.683 116.507 122.054 116.464 122.339 116.431C122.625 116.395 122.832 116.337 122.961 116.257C123.09 116.178 123.155 116.048 123.155 115.869V115.835C123.155 115.4 123.032 115.064 122.787 114.825C122.545 114.587 122.184 114.467 121.703 114.467C121.203 114.467 120.808 114.578 120.52 114.8C120.235 115.019 120.038 115.263 119.928 115.531L118.531 115.213C118.697 114.749 118.939 114.375 119.257 114.089C119.579 113.801 119.948 113.592 120.366 113.463C120.783 113.33 121.223 113.264 121.683 113.264C121.988 113.264 122.311 113.301 122.653 113.374C122.997 113.443 123.319 113.572 123.617 113.761C123.919 113.95 124.166 114.22 124.358 114.572C124.55 114.92 124.646 115.372 124.646 115.929V121H123.195V119.956H123.135C123.039 120.148 122.895 120.337 122.702 120.523C122.51 120.708 122.263 120.862 121.962 120.985C121.66 121.108 121.299 121.169 120.878 121.169ZM121.201 119.976C121.612 119.976 121.963 119.895 122.255 119.732C122.55 119.57 122.774 119.358 122.926 119.096C123.082 118.831 123.16 118.547 123.16 118.246V117.261C123.107 117.314 123.004 117.364 122.852 117.411C122.702 117.454 122.532 117.492 122.339 117.525C122.147 117.555 121.96 117.583 121.778 117.609C121.595 117.633 121.443 117.652 121.32 117.669C121.032 117.705 120.768 117.767 120.53 117.853C120.295 117.939 120.106 118.063 119.963 118.226C119.824 118.385 119.754 118.597 119.754 118.862C119.754 119.23 119.89 119.509 120.162 119.697C120.434 119.883 120.78 119.976 121.201 119.976ZM128.113 110.818V121H126.626V110.818H128.113ZM133.818 121V113.364H135.244V114.607H135.339C135.498 114.186 135.758 113.857 136.119 113.622C136.481 113.384 136.913 113.264 137.417 113.264C137.927 113.264 138.355 113.384 138.7 113.622C139.048 113.861 139.305 114.189 139.47 114.607H139.55C139.732 114.199 140.022 113.874 140.42 113.632C140.818 113.387 141.292 113.264 141.842 113.264C142.535 113.264 143.1 113.481 143.537 113.915C143.978 114.35 144.198 115.004 144.198 115.879V121H142.712V116.018C142.712 115.501 142.571 115.127 142.289 114.895C142.008 114.663 141.671 114.547 141.28 114.547C140.796 114.547 140.42 114.696 140.151 114.994C139.883 115.289 139.749 115.669 139.749 116.133V121H138.267V115.924C138.267 115.51 138.138 115.177 137.879 114.925C137.621 114.673 137.285 114.547 136.87 114.547C136.588 114.547 136.328 114.621 136.09 114.771C135.854 114.916 135.664 115.12 135.518 115.382C135.375 115.644 135.304 115.947 135.304 116.292V121H133.818ZM149.482 121.154C148.73 121.154 148.082 120.993 147.538 120.672C146.998 120.347 146.58 119.891 146.285 119.305C145.993 118.715 145.848 118.024 145.848 117.232C145.848 116.449 145.993 115.76 146.285 115.163C146.58 114.567 146.991 114.101 147.518 113.766C148.048 113.432 148.668 113.264 149.377 113.264C149.808 113.264 150.226 113.335 150.63 113.478C151.035 113.621 151.398 113.844 151.719 114.149C152.041 114.454 152.294 114.85 152.48 115.337C152.665 115.821 152.758 116.41 152.758 117.102V117.629H146.688V116.516H151.301C151.301 116.125 151.222 115.778 151.063 115.477C150.904 115.172 150.68 114.931 150.392 114.756C150.107 114.58 149.772 114.492 149.387 114.492C148.97 114.492 148.605 114.595 148.294 114.8C147.985 115.003 147.747 115.268 147.578 115.596C147.412 115.921 147.329 116.274 147.329 116.655V117.525C147.329 118.035 147.419 118.469 147.598 118.827C147.78 119.185 148.033 119.459 148.358 119.648C148.683 119.833 149.063 119.926 149.497 119.926C149.779 119.926 150.035 119.886 150.267 119.807C150.499 119.724 150.7 119.601 150.869 119.439C151.038 119.277 151.167 119.076 151.257 118.837L152.664 119.091C152.551 119.505 152.349 119.868 152.057 120.18C151.769 120.488 151.406 120.728 150.968 120.901C150.534 121.07 150.039 121.154 149.482 121.154ZM160.13 115.228L158.782 115.467C158.726 115.294 158.637 115.13 158.514 114.974C158.395 114.819 158.232 114.691 158.027 114.592C157.821 114.492 157.564 114.442 157.256 114.442C156.835 114.442 156.484 114.537 156.202 114.726C155.921 114.911 155.78 115.152 155.78 115.447C155.78 115.702 155.874 115.907 156.063 116.063C156.252 116.219 156.557 116.347 156.978 116.446L158.191 116.724C158.894 116.887 159.417 117.137 159.762 117.475C160.107 117.813 160.279 118.252 160.279 118.793C160.279 119.25 160.146 119.658 159.881 120.016C159.619 120.37 159.253 120.649 158.782 120.851C158.315 121.053 157.773 121.154 157.157 121.154C156.302 121.154 155.604 120.972 155.064 120.607C154.523 120.239 154.192 119.717 154.069 119.041L155.506 118.822C155.596 119.197 155.78 119.48 156.058 119.673C156.336 119.862 156.699 119.956 157.147 119.956C157.634 119.956 158.023 119.855 158.315 119.653C158.607 119.447 158.753 119.197 158.753 118.902C158.753 118.663 158.663 118.463 158.484 118.3C158.309 118.138 158.038 118.015 157.674 117.933L156.381 117.649C155.669 117.487 155.142 117.228 154.8 116.874C154.462 116.519 154.293 116.07 154.293 115.526C154.293 115.076 154.419 114.681 154.671 114.343C154.923 114.005 155.271 113.741 155.715 113.553C156.159 113.36 156.668 113.264 157.241 113.264C158.067 113.264 158.716 113.443 159.19 113.801C159.664 114.156 159.977 114.631 160.13 115.228ZM167.636 115.228L166.288 115.467C166.232 115.294 166.143 115.13 166.02 114.974C165.901 114.819 165.738 114.691 165.533 114.592C165.327 114.492 165.07 114.442 164.762 114.442C164.341 114.442 163.99 114.537 163.708 114.726C163.426 114.911 163.286 115.152 163.286 115.447C163.286 115.702 163.38 115.907 163.569 116.063C163.758 116.219 164.063 116.347 164.484 116.446L165.697 116.724C166.399 116.887 166.923 117.137 167.268 117.475C167.612 117.813 167.785 118.252 167.785 118.793C167.785 119.25 167.652 119.658 167.387 120.016C167.125 120.37 166.759 120.649 166.288 120.851C165.821 121.053 165.279 121.154 164.663 121.154C163.808 121.154 163.11 120.972 162.57 120.607C162.029 120.239 161.698 119.717 161.575 119.041L163.012 118.822C163.102 119.197 163.286 119.48 163.564 119.673C163.842 119.862 164.205 119.956 164.653 119.956C165.14 119.956 165.529 119.855 165.821 119.653C166.113 119.447 166.259 119.197 166.259 118.902C166.259 118.663 166.169 118.463 165.99 118.3C165.814 118.138 165.544 118.015 165.18 117.933L163.887 117.649C163.174 117.487 162.647 117.228 162.306 116.874C161.968 116.519 161.799 116.07 161.799 115.526C161.799 115.076 161.925 114.681 162.177 114.343C162.429 114.005 162.777 113.741 163.221 113.553C163.665 113.36 164.174 113.264 164.747 113.264C165.572 113.264 166.222 113.443 166.696 113.801C167.17 114.156 167.483 114.631 167.636 115.228ZM171.642 121.169C171.158 121.169 170.72 121.08 170.329 120.901C169.938 120.718 169.628 120.455 169.399 120.11C169.174 119.765 169.061 119.343 169.061 118.842C169.061 118.411 169.144 118.057 169.31 117.778C169.476 117.5 169.699 117.28 169.981 117.117C170.263 116.955 170.578 116.832 170.926 116.749C171.274 116.666 171.628 116.603 171.99 116.56C172.447 116.507 172.818 116.464 173.103 116.431C173.388 116.395 173.595 116.337 173.725 116.257C173.854 116.178 173.919 116.048 173.919 115.869V115.835C173.919 115.4 173.796 115.064 173.551 114.825C173.309 114.587 172.947 114.467 172.467 114.467C171.966 114.467 171.572 114.578 171.284 114.8C170.999 115.019 170.801 115.263 170.692 115.531L169.295 115.213C169.461 114.749 169.703 114.375 170.021 114.089C170.342 113.801 170.712 113.592 171.129 113.463C171.547 113.33 171.986 113.264 172.447 113.264C172.752 113.264 173.075 113.301 173.416 113.374C173.761 113.443 174.083 113.572 174.381 113.761C174.682 113.95 174.929 114.22 175.122 114.572C175.314 114.92 175.41 115.372 175.41 115.929V121H173.958V119.956H173.899C173.802 120.148 173.658 120.337 173.466 120.523C173.274 120.708 173.027 120.862 172.725 120.985C172.424 121.108 172.062 121.169 171.642 121.169ZM171.965 119.976C172.376 119.976 172.727 119.895 173.019 119.732C173.314 119.57 173.537 119.358 173.69 119.096C173.846 118.831 173.923 118.547 173.923 118.246V117.261C173.87 117.314 173.768 117.364 173.615 117.411C173.466 117.454 173.295 117.492 173.103 117.525C172.911 117.555 172.724 117.583 172.541 117.609C172.359 117.633 172.207 117.652 172.084 117.669C171.796 117.705 171.532 117.767 171.294 117.853C171.058 117.939 170.869 118.063 170.727 118.226C170.588 118.385 170.518 118.597 170.518 118.862C170.518 119.23 170.654 119.509 170.926 119.697C171.197 119.883 171.544 119.976 171.965 119.976ZM180.592 124.023C179.985 124.023 179.463 123.943 179.026 123.784C178.591 123.625 178.237 123.415 177.962 123.153C177.687 122.891 177.481 122.604 177.345 122.293L178.623 121.766C178.712 121.911 178.832 122.066 178.981 122.228C179.133 122.394 179.339 122.535 179.597 122.651C179.859 122.767 180.196 122.825 180.607 122.825C181.17 122.825 181.636 122.687 182.004 122.412C182.371 122.14 182.555 121.706 182.555 121.109V119.608H182.461C182.371 119.77 182.242 119.951 182.073 120.15C181.907 120.349 181.679 120.521 181.387 120.667C181.095 120.813 180.716 120.886 180.249 120.886C179.645 120.886 179.102 120.745 178.618 120.463C178.137 120.178 177.756 119.759 177.474 119.205C177.196 118.648 177.057 117.964 177.057 117.152C177.057 116.34 177.194 115.644 177.469 115.064C177.748 114.484 178.129 114.04 178.613 113.732C179.097 113.42 179.645 113.264 180.259 113.264C180.732 113.264 181.115 113.344 181.407 113.503C181.699 113.659 181.926 113.841 182.088 114.05C182.254 114.259 182.381 114.442 182.471 114.602H182.58V113.364H184.037V121.169C184.037 121.825 183.884 122.364 183.58 122.785C183.275 123.206 182.862 123.517 182.342 123.719C181.825 123.922 181.241 124.023 180.592 124.023ZM180.577 119.653C181.004 119.653 181.366 119.553 181.661 119.354C181.959 119.152 182.184 118.864 182.337 118.489C182.492 118.112 182.57 117.659 182.57 117.132C182.57 116.618 182.494 116.166 182.342 115.775C182.189 115.384 181.965 115.079 181.67 114.86C181.375 114.638 181.011 114.527 180.577 114.527C180.129 114.527 179.756 114.643 179.458 114.875C179.16 115.104 178.934 115.415 178.782 115.81C178.633 116.204 178.558 116.645 178.558 117.132C178.558 117.633 178.634 118.072 178.787 118.45C178.939 118.827 179.165 119.122 179.463 119.335C179.765 119.547 180.136 119.653 180.577 119.653ZM189.322 121.154C188.569 121.154 187.921 120.993 187.378 120.672C186.838 120.347 186.42 119.891 186.125 119.305C185.833 118.715 185.688 118.024 185.688 117.232C185.688 116.449 185.833 115.76 186.125 115.163C186.42 114.567 186.831 114.101 187.358 113.766C187.888 113.432 188.508 113.264 189.217 113.264C189.648 113.264 190.066 113.335 190.47 113.478C190.875 113.621 191.237 113.844 191.559 114.149C191.88 114.454 192.134 114.85 192.32 115.337C192.505 115.821 192.598 116.41 192.598 117.102V117.629H186.528V116.516H191.141C191.141 116.125 191.062 115.778 190.903 115.477C190.744 115.172 190.52 114.931 190.232 114.756C189.946 114.58 189.612 114.492 189.227 114.492C188.81 114.492 188.445 114.595 188.134 114.8C187.825 115.003 187.587 115.268 187.418 115.596C187.252 115.921 187.169 116.274 187.169 116.655V117.525C187.169 118.035 187.259 118.469 187.438 118.827C187.62 119.185 187.873 119.459 188.198 119.648C188.523 119.833 188.902 119.926 189.337 119.926C189.618 119.926 189.875 119.886 190.107 119.807C190.339 119.724 190.54 119.601 190.709 119.439C190.878 119.277 191.007 119.076 191.097 118.837L192.504 119.091C192.391 119.505 192.189 119.868 191.897 120.18C191.609 120.488 191.246 120.728 190.808 120.901C190.374 121.07 189.879 121.154 189.322 121.154ZM199.97 115.228L198.622 115.467C198.566 115.294 198.477 115.13 198.354 114.974C198.235 114.819 198.072 114.691 197.867 114.592C197.661 114.492 197.404 114.442 197.096 114.442C196.675 114.442 196.324 114.537 196.042 114.726C195.76 114.911 195.619 115.152 195.619 115.447C195.619 115.702 195.714 115.907 195.903 116.063C196.092 116.219 196.397 116.347 196.818 116.446L198.031 116.724C198.733 116.887 199.257 117.137 199.602 117.475C199.946 117.813 200.119 118.252 200.119 118.793C200.119 119.25 199.986 119.658 199.721 120.016C199.459 120.37 199.093 120.649 198.622 120.851C198.155 121.053 197.613 121.154 196.997 121.154C196.142 121.154 195.444 120.972 194.904 120.607C194.363 120.239 194.032 119.717 193.909 119.041L195.346 118.822C195.436 119.197 195.619 119.48 195.898 119.673C196.176 119.862 196.539 119.956 196.987 119.956C197.474 119.956 197.863 119.855 198.155 119.653C198.447 119.447 198.593 119.197 198.593 118.902C198.593 118.663 198.503 118.463 198.324 118.3C198.148 118.138 197.878 118.015 197.514 117.933L196.221 117.649C195.508 117.487 194.981 117.228 194.64 116.874C194.302 116.519 194.133 116.07 194.133 115.526C194.133 115.076 194.259 114.681 194.511 114.343C194.763 114.005 195.111 113.741 195.555 113.553C195.999 113.36 196.508 113.264 197.081 113.264C197.906 113.264 198.556 113.443 199.03 113.801C199.504 114.156 199.817 114.631 199.97 115.228Z" fill="#1E75BA"/>
<path d="M103.79 149.239C102.585 149.239 101.511 149.017 100.568 148.574C99.6307 148.131 98.8864 147.52 98.3352 146.741C97.7841 145.963 97.4972 145.071 97.4744 144.065H101.054C101.094 144.741 101.378 145.29 101.906 145.71C102.435 146.131 103.062 146.341 103.79 146.341C104.369 146.341 104.881 146.213 105.324 145.957C105.773 145.696 106.122 145.335 106.372 144.875C106.628 144.409 106.756 143.875 106.756 143.273C106.756 142.659 106.625 142.119 106.364 141.653C106.108 141.187 105.753 140.824 105.298 140.562C104.844 140.301 104.324 140.168 103.739 140.162C103.227 140.162 102.73 140.267 102.247 140.477C101.77 140.687 101.398 140.974 101.131 141.338L97.8494 140.75L98.6761 131.545H109.347V134.562H101.719L101.267 138.935H101.369C101.676 138.503 102.139 138.145 102.759 137.861C103.378 137.577 104.071 137.435 104.838 137.435C105.889 137.435 106.827 137.682 107.651 138.176C108.474 138.67 109.125 139.349 109.602 140.213C110.08 141.071 110.315 142.06 110.31 143.179C110.315 144.355 110.043 145.401 109.491 146.315C108.946 147.224 108.182 147.94 107.199 148.463C106.222 148.98 105.085 149.239 103.79 149.239ZM119.727 149.384C118.261 149.378 117 149.017 115.943 148.301C114.892 147.585 114.082 146.548 113.514 145.19C112.952 143.832 112.673 142.199 112.679 140.29C112.679 138.386 112.96 136.764 113.523 135.423C114.091 134.082 114.901 133.062 115.952 132.364C117.009 131.659 118.267 131.307 119.727 131.307C121.188 131.307 122.443 131.659 123.494 132.364C124.551 133.068 125.364 134.091 125.932 135.432C126.5 136.767 126.781 138.386 126.776 140.29C126.776 142.205 126.491 143.841 125.923 145.199C125.361 146.557 124.554 147.594 123.503 148.31C122.452 149.026 121.193 149.384 119.727 149.384ZM119.727 146.324C120.727 146.324 121.526 145.821 122.122 144.815C122.719 143.81 123.014 142.301 123.009 140.29C123.009 138.966 122.872 137.864 122.599 136.983C122.332 136.102 121.952 135.44 121.457 134.997C120.969 134.554 120.392 134.332 119.727 134.332C118.733 134.332 117.938 134.83 117.341 135.824C116.744 136.818 116.443 138.307 116.438 140.29C116.438 141.631 116.571 142.75 116.838 143.648C117.111 144.54 117.494 145.21 117.989 145.659C118.483 146.102 119.062 146.324 119.727 146.324ZM132.731 145.233L132.739 140.878H133.268L137.461 135.909H141.629L135.995 142.489H135.134L132.731 145.233ZM129.441 149V131.545H133.072V149H129.441ZM137.623 149L133.771 143.298L136.191 140.733L141.876 149H137.623Z" fill="#1E75BA"/>
<rect x="388" y="177" width="172" height="89" rx="8" fill="#F9EAE5"/>
<path d="M430.667 208.167H409.333C407.867 208.167 406.667 209.367 406.667 210.833V234.833L412 229.5H430.667C432.133 229.5 433.333 228.3 433.333 226.833V210.833C433.333 209.367 432.133 208.167 430.667 208.167ZM430.667 226.833H410.893L409.333 228.393V210.833H430.667V226.833ZM418.667 212.167H421.333V220.167H418.667V212.167ZM418.667 222.833H421.333V225.5H418.667V222.833Z" fill="#CC5229"/>
<path d="M453.119 212V201.818H459.433V203.141H454.655V206.243H458.98V207.56H454.655V212H453.119ZM463.397 212.169C462.913 212.169 462.476 212.08 462.085 211.901C461.694 211.718 461.384 211.455 461.155 211.11C460.93 210.765 460.817 210.343 460.817 209.842C460.817 209.411 460.9 209.057 461.066 208.778C461.231 208.5 461.455 208.28 461.737 208.117C462.019 207.955 462.333 207.832 462.681 207.749C463.029 207.666 463.384 207.603 463.745 207.56C464.203 207.507 464.574 207.464 464.859 207.431C465.144 207.395 465.351 207.337 465.48 207.257C465.61 207.178 465.674 207.048 465.674 206.869V206.835C465.674 206.4 465.552 206.064 465.306 205.825C465.065 205.587 464.703 205.467 464.223 205.467C463.722 205.467 463.328 205.578 463.039 205.8C462.754 206.019 462.557 206.263 462.448 206.531L461.051 206.213C461.217 205.749 461.458 205.375 461.777 205.089C462.098 204.801 462.468 204.592 462.885 204.463C463.303 204.33 463.742 204.264 464.203 204.264C464.508 204.264 464.831 204.301 465.172 204.374C465.517 204.443 465.838 204.572 466.137 204.761C466.438 204.95 466.685 205.22 466.877 205.572C467.07 205.92 467.166 206.372 467.166 206.929V212H465.714V210.956H465.654C465.558 211.148 465.414 211.337 465.222 211.523C465.03 211.708 464.783 211.862 464.481 211.985C464.18 212.108 463.818 212.169 463.397 212.169ZM463.721 210.976C464.132 210.976 464.483 210.895 464.775 210.732C465.069 210.57 465.293 210.358 465.446 210.096C465.601 209.831 465.679 209.547 465.679 209.246V208.261C465.626 208.314 465.524 208.364 465.371 208.411C465.222 208.454 465.051 208.492 464.859 208.525C464.667 208.555 464.48 208.583 464.297 208.609C464.115 208.633 463.962 208.652 463.84 208.669C463.551 208.705 463.288 208.767 463.049 208.853C462.814 208.939 462.625 209.063 462.483 209.226C462.343 209.385 462.274 209.597 462.274 209.862C462.274 210.23 462.41 210.509 462.681 210.697C462.953 210.883 463.3 210.976 463.721 210.976ZM469.146 212V204.364H470.632V212H469.146ZM469.896 203.185C469.638 203.185 469.416 203.099 469.23 202.927C469.048 202.751 468.957 202.542 468.957 202.3C468.957 202.055 469.048 201.846 469.23 201.674C469.416 201.498 469.638 201.411 469.896 201.411C470.155 201.411 470.375 201.498 470.558 201.674C470.743 201.846 470.836 202.055 470.836 202.3C470.836 202.542 470.743 202.751 470.558 202.927C470.375 203.099 470.155 203.185 469.896 203.185ZM474.119 201.818V212H472.632V201.818H474.119ZM479.41 212.154C478.657 212.154 478.009 211.993 477.466 211.672C476.925 211.347 476.508 210.891 476.213 210.305C475.921 209.715 475.775 209.024 475.775 208.232C475.775 207.449 475.921 206.76 476.213 206.163C476.508 205.567 476.919 205.101 477.446 204.766C477.976 204.432 478.596 204.264 479.305 204.264C479.736 204.264 480.154 204.335 480.558 204.478C480.962 204.621 481.325 204.844 481.647 205.149C481.968 205.454 482.222 205.85 482.407 206.337C482.593 206.821 482.686 207.41 482.686 208.102V208.629H476.616V207.516H481.229C481.229 207.125 481.15 206.778 480.991 206.477C480.831 206.172 480.608 205.931 480.319 205.756C480.034 205.58 479.7 205.492 479.315 205.492C478.898 205.492 478.533 205.595 478.221 205.8C477.913 206.003 477.675 206.268 477.506 206.596C477.34 206.921 477.257 207.274 477.257 207.655V208.525C477.257 209.035 477.346 209.469 477.525 209.827C477.708 210.185 477.961 210.459 478.286 210.648C478.611 210.833 478.99 210.926 479.425 210.926C479.706 210.926 479.963 210.886 480.195 210.807C480.427 210.724 480.628 210.601 480.797 210.439C480.966 210.277 481.095 210.076 481.184 209.837L482.591 210.091C482.479 210.505 482.277 210.868 481.985 211.18C481.697 211.488 481.334 211.728 480.896 211.901C480.462 212.07 479.966 212.154 479.41 212.154ZM487.194 212.149C486.577 212.149 486.027 211.992 485.543 211.677C485.063 211.359 484.685 210.906 484.41 210.32C484.138 209.73 484.002 209.022 484.002 208.197C484.002 207.371 484.14 206.665 484.415 206.079C484.693 205.492 485.074 205.043 485.558 204.732C486.042 204.42 486.591 204.264 487.204 204.264C487.678 204.264 488.059 204.344 488.347 204.503C488.639 204.659 488.864 204.841 489.023 205.05C489.186 205.259 489.312 205.442 489.401 205.602H489.491V201.818H490.977V212H489.526V210.812H489.401C489.312 210.974 489.183 211.16 489.013 211.369C488.848 211.577 488.619 211.76 488.327 211.915C488.036 212.071 487.658 212.149 487.194 212.149ZM487.522 210.881C487.95 210.881 488.311 210.769 488.606 210.543C488.904 210.315 489.129 209.998 489.282 209.594C489.438 209.189 489.516 208.719 489.516 208.182C489.516 207.652 489.439 207.187 489.287 206.79C489.134 206.392 488.911 206.082 488.616 205.86C488.321 205.638 487.956 205.527 487.522 205.527C487.075 205.527 486.702 205.643 486.403 205.875C486.105 206.107 485.88 206.424 485.727 206.825C485.578 207.226 485.504 207.678 485.504 208.182C485.504 208.692 485.58 209.151 485.732 209.559C485.885 209.967 486.11 210.29 486.408 210.528C486.71 210.764 487.081 210.881 487.522 210.881Z" fill="#CC5229"/>
<path d="M453.151 236.932V234.026L460.438 222.545H462.943V226.568H461.46L456.866 233.838V233.974H467.222V236.932H453.151ZM461.528 240V236.045L461.597 234.759V222.545H465.057V240H461.528Z" fill="#CC5229"/>
<rect x="214" y="177" width="172" height="89" rx="8" fill="#EFEAE3"/>
<path d="M241.733 226.7L236.133 221.1L234.267 222.967L241.733 230.433L257.733 214.433L255.867 212.567L241.733 226.7Z" fill="#5D6164"/>
<path d="M284.672 204.493C284.619 204.022 284.4 203.658 284.016 203.399C283.631 203.137 283.147 203.006 282.564 203.006C282.146 203.006 281.785 203.073 281.48 203.205C281.175 203.335 280.938 203.513 280.769 203.742C280.603 203.968 280.521 204.224 280.521 204.513C280.521 204.755 280.577 204.964 280.69 205.139C280.806 205.315 280.956 205.462 281.142 205.582C281.331 205.698 281.533 205.795 281.749 205.875C281.964 205.951 282.171 206.014 282.37 206.064L283.364 206.322C283.689 206.402 284.022 206.51 284.364 206.646C284.705 206.781 285.022 206.96 285.313 207.183C285.605 207.405 285.84 207.68 286.019 208.008C286.201 208.336 286.293 208.729 286.293 209.186C286.293 209.763 286.143 210.275 285.845 210.722C285.55 211.17 285.121 211.523 284.558 211.781C283.997 212.04 283.32 212.169 282.524 212.169C281.762 212.169 281.102 212.048 280.545 211.806C279.989 211.564 279.553 211.221 279.238 210.777C278.923 210.33 278.749 209.799 278.716 209.186H280.257C280.287 209.554 280.406 209.861 280.615 210.106C280.827 210.348 281.097 210.528 281.425 210.648C281.757 210.764 282.12 210.822 282.514 210.822C282.948 210.822 283.335 210.754 283.673 210.618C284.014 210.479 284.282 210.286 284.478 210.041C284.674 209.793 284.771 209.503 284.771 209.171C284.771 208.87 284.685 208.623 284.513 208.43C284.344 208.238 284.113 208.079 283.822 207.953C283.533 207.827 283.207 207.716 282.842 207.62L281.639 207.292C280.824 207.07 280.178 206.743 279.7 206.312C279.226 205.882 278.989 205.312 278.989 204.602C278.989 204.016 279.148 203.504 279.467 203.066C279.785 202.629 280.216 202.289 280.759 202.047C281.303 201.802 281.916 201.679 282.599 201.679C283.288 201.679 283.896 201.8 284.423 202.042C284.954 202.284 285.371 202.617 285.676 203.041C285.981 203.462 286.14 203.946 286.153 204.493H284.672ZM291.3 212.154C290.548 212.154 289.9 211.993 289.356 211.672C288.816 211.347 288.398 210.891 288.104 210.305C287.812 209.715 287.666 209.024 287.666 208.232C287.666 207.449 287.812 206.76 288.104 206.163C288.398 205.567 288.809 205.101 289.336 204.766C289.867 204.432 290.487 204.264 291.196 204.264C291.627 204.264 292.044 204.335 292.449 204.478C292.853 204.621 293.216 204.844 293.537 205.149C293.859 205.454 294.113 205.85 294.298 206.337C294.484 206.821 294.577 207.41 294.577 208.102V208.629H288.506V207.516H293.12C293.12 207.125 293.04 206.778 292.881 206.477C292.722 206.172 292.498 205.931 292.21 205.756C291.925 205.58 291.59 205.492 291.206 205.492C290.788 205.492 290.424 205.595 290.112 205.8C289.804 206.003 289.565 206.268 289.396 206.596C289.23 206.921 289.148 207.274 289.148 207.655V208.525C289.148 209.035 289.237 209.469 289.416 209.827C289.598 210.185 289.852 210.459 290.177 210.648C290.501 210.833 290.881 210.926 291.315 210.926C291.597 210.926 291.854 210.886 292.086 210.807C292.318 210.724 292.518 210.601 292.687 210.439C292.856 210.277 292.986 210.076 293.075 209.837L294.482 210.091C294.369 210.505 294.167 210.868 293.876 211.18C293.587 211.488 293.224 211.728 292.787 211.901C292.353 212.07 291.857 212.154 291.3 212.154ZM297.712 207.466V212H296.226V204.364H297.653V205.607H297.747C297.923 205.202 298.198 204.877 298.572 204.632C298.95 204.387 299.426 204.264 299.999 204.264C300.52 204.264 300.975 204.374 301.366 204.592C301.758 204.808 302.061 205.129 302.276 205.557C302.492 205.984 302.599 206.513 302.599 207.143V212H301.113V207.322C301.113 206.768 300.969 206.336 300.68 206.024C300.392 205.709 299.996 205.552 299.492 205.552C299.147 205.552 298.841 205.626 298.572 205.776C298.307 205.925 298.097 206.143 297.941 206.432C297.789 206.717 297.712 207.062 297.712 207.466ZM308.158 204.364V205.557H303.987V204.364H308.158ZM305.105 202.534H306.592V209.758C306.592 210.046 306.635 210.263 306.721 210.409C306.807 210.552 306.918 210.649 307.054 210.702C307.193 210.752 307.344 210.777 307.506 210.777C307.626 210.777 307.73 210.769 307.82 210.752C307.909 210.736 307.979 210.722 308.028 210.712L308.297 211.94C308.211 211.973 308.088 212.007 307.929 212.04C307.77 212.076 307.571 212.096 307.332 212.099C306.941 212.106 306.577 212.036 306.239 211.891C305.901 211.745 305.627 211.519 305.418 211.214C305.21 210.91 305.105 210.527 305.105 210.066V202.534Z" fill="#DE8644"/>
<path d="M285.866 240.239C284.594 240.239 283.46 240.02 282.466 239.582C281.477 239.139 280.696 238.531 280.122 237.759C279.554 236.98 279.261 236.082 279.244 235.065H282.96C282.983 235.491 283.122 235.866 283.378 236.19C283.639 236.509 283.986 236.756 284.418 236.932C284.849 237.108 285.335 237.196 285.875 237.196C286.438 237.196 286.935 237.097 287.366 236.898C287.798 236.699 288.136 236.423 288.381 236.071C288.625 235.719 288.747 235.312 288.747 234.852C288.747 234.386 288.616 233.974 288.355 233.616C288.099 233.253 287.73 232.969 287.247 232.764C286.77 232.56 286.202 232.457 285.543 232.457H283.915V229.747H285.543C286.099 229.747 286.591 229.651 287.017 229.457C287.449 229.264 287.784 228.997 288.023 228.656C288.261 228.31 288.381 227.906 288.381 227.446C288.381 227.009 288.276 226.625 288.065 226.295C287.861 225.96 287.571 225.699 287.196 225.511C286.827 225.324 286.395 225.23 285.901 225.23C285.401 225.23 284.943 225.321 284.528 225.503C284.114 225.679 283.781 225.932 283.531 226.261C283.281 226.591 283.148 226.977 283.131 227.42H279.594C279.611 226.415 279.898 225.528 280.455 224.761C281.011 223.994 281.761 223.395 282.705 222.963C283.653 222.526 284.724 222.307 285.918 222.307C287.122 222.307 288.176 222.526 289.08 222.963C289.983 223.401 290.685 223.991 291.185 224.736C291.69 225.474 291.94 226.304 291.935 227.224C291.94 228.202 291.636 229.017 291.023 229.67C290.415 230.324 289.622 230.739 288.645 230.915V231.051C289.929 231.216 290.906 231.662 291.577 232.389C292.253 233.111 292.588 234.014 292.582 235.099C292.588 236.094 292.301 236.977 291.722 237.75C291.148 238.523 290.355 239.131 289.344 239.574C288.332 240.017 287.173 240.239 285.866 240.239ZM302.079 240.384C300.613 240.378 299.352 240.017 298.295 239.301C297.244 238.585 296.434 237.548 295.866 236.19C295.303 234.832 295.025 233.199 295.031 231.29C295.031 229.386 295.312 227.764 295.874 226.423C296.442 225.082 297.252 224.062 298.303 223.364C299.36 222.659 300.619 222.307 302.079 222.307C303.539 222.307 304.795 222.659 305.846 223.364C306.903 224.068 307.715 225.091 308.283 226.432C308.852 227.767 309.133 229.386 309.127 231.29C309.127 233.205 308.843 234.841 308.275 236.199C307.712 237.557 306.906 238.594 305.854 239.31C304.803 240.026 303.545 240.384 302.079 240.384ZM302.079 237.324C303.079 237.324 303.877 236.821 304.474 235.815C305.07 234.81 305.366 233.301 305.36 231.29C305.36 229.966 305.224 228.864 304.951 227.983C304.684 227.102 304.303 226.44 303.809 225.997C303.32 225.554 302.744 225.332 302.079 225.332C301.085 225.332 300.289 225.83 299.692 226.824C299.096 227.818 298.795 229.307 298.789 231.29C298.789 232.631 298.923 233.75 299.19 234.648C299.462 235.54 299.846 236.21 300.34 236.659C300.835 237.102 301.414 237.324 302.079 237.324Z" fill="#DE8644"/>
<rect x="40" y="268" width="172" height="89" rx="8" fill="#E8F7E8"/>
<path d="M79.9533 305.44L78.0733 303.56L69.62 312.013L71.5 313.893L79.9533 305.44ZM85.6067 303.56L71.5 317.667L65.9267 312.107L64.0467 313.987L71.5 321.44L87.5 305.44L85.6067 303.56ZM56.5 313.987L63.9533 321.44L65.8333 319.56L58.3933 312.107L56.5 313.987Z" fill="#5D6164"/>
<path d="M108.415 303H105.119V292.818H108.519C109.517 292.818 110.374 293.022 111.089 293.43C111.805 293.834 112.354 294.416 112.735 295.175C113.12 295.93 113.312 296.837 113.312 297.894C113.312 298.955 113.118 299.866 112.73 300.629C112.346 301.391 111.789 301.978 111.06 302.388C110.33 302.796 109.449 303 108.415 303ZM106.655 301.658H108.33C109.106 301.658 109.75 301.512 110.264 301.22C110.778 300.925 111.162 300.499 111.418 299.942C111.673 299.382 111.8 298.7 111.8 297.894C111.8 297.095 111.673 296.418 111.418 295.861C111.166 295.304 110.79 294.881 110.289 294.593C109.789 294.305 109.167 294.161 108.425 294.161H106.655V301.658ZM118.394 303.154C117.642 303.154 116.994 302.993 116.45 302.672C115.91 302.347 115.492 301.891 115.197 301.305C114.906 300.715 114.76 300.024 114.76 299.232C114.76 298.449 114.906 297.76 115.197 297.163C115.492 296.567 115.903 296.101 116.43 295.766C116.961 295.432 117.58 295.264 118.29 295.264C118.72 295.264 119.138 295.335 119.542 295.478C119.947 295.621 120.31 295.844 120.631 296.149C120.953 296.454 121.206 296.85 121.392 297.337C121.577 297.821 121.67 298.41 121.67 299.102V299.629H115.6V298.516H120.214C120.214 298.125 120.134 297.778 119.975 297.477C119.816 297.172 119.592 296.931 119.304 296.756C119.019 296.58 118.684 296.492 118.3 296.492C117.882 296.492 117.517 296.595 117.206 296.8C116.898 297.003 116.659 297.268 116.49 297.596C116.324 297.921 116.241 298.274 116.241 298.655V299.525C116.241 300.035 116.331 300.469 116.51 300.827C116.692 301.185 116.946 301.459 117.27 301.648C117.595 301.833 117.975 301.926 118.409 301.926C118.691 301.926 118.948 301.886 119.18 301.807C119.412 301.724 119.612 301.601 119.781 301.439C119.95 301.277 120.079 301.076 120.169 300.837L121.576 301.091C121.463 301.505 121.261 301.868 120.969 302.18C120.681 302.488 120.318 302.728 119.881 302.901C119.446 303.07 118.951 303.154 118.394 303.154ZM124.806 292.818V303H123.32V292.818H124.806ZM126.806 303V295.364H128.292V303H126.806ZM127.557 294.185C127.298 294.185 127.076 294.099 126.89 293.927C126.708 293.751 126.617 293.542 126.617 293.3C126.617 293.055 126.708 292.846 126.89 292.674C127.076 292.498 127.298 292.411 127.557 292.411C127.815 292.411 128.036 292.498 128.218 292.674C128.403 292.846 128.496 293.055 128.496 293.3C128.496 293.542 128.403 293.751 128.218 293.927C128.036 294.099 127.815 294.185 127.557 294.185ZM136.825 295.364L134.056 303H132.465L129.691 295.364H131.287L133.221 301.24H133.3L135.229 295.364H136.825ZM141.253 303.154C140.501 303.154 139.853 302.993 139.309 302.672C138.769 302.347 138.352 301.891 138.057 301.305C137.765 300.715 137.619 300.024 137.619 299.232C137.619 298.449 137.765 297.76 138.057 297.163C138.352 296.567 138.763 296.101 139.29 295.766C139.82 295.432 140.44 295.264 141.149 295.264C141.58 295.264 141.997 295.335 142.402 295.478C142.806 295.621 143.169 295.844 143.491 296.149C143.812 296.454 144.066 296.85 144.251 297.337C144.437 297.821 144.53 298.41 144.53 299.102V299.629H138.459V298.516H143.073C143.073 298.125 142.993 297.778 142.834 297.477C142.675 297.172 142.452 296.931 142.163 296.756C141.878 296.58 141.543 296.492 141.159 296.492C140.741 296.492 140.377 296.595 140.065 296.8C139.757 297.003 139.518 297.268 139.349 297.596C139.184 297.921 139.101 298.274 139.101 298.655V299.525C139.101 300.035 139.19 300.469 139.369 300.827C139.551 301.185 139.805 301.459 140.13 301.648C140.455 301.833 140.834 301.926 141.268 301.926C141.55 301.926 141.807 301.886 142.039 301.807C142.271 301.724 142.471 301.601 142.64 301.439C142.809 301.277 142.939 301.076 143.028 300.837L144.435 301.091C144.323 301.505 144.12 301.868 143.829 302.18C143.54 302.488 143.177 302.728 142.74 302.901C142.306 303.07 141.81 303.154 141.253 303.154ZM146.179 303V295.364H147.616V296.577H147.695C147.835 296.166 148.08 295.843 148.431 295.607C148.786 295.369 149.187 295.249 149.634 295.249C149.727 295.249 149.836 295.253 149.962 295.259C150.092 295.266 150.193 295.274 150.266 295.284V296.706C150.206 296.689 150.1 296.671 149.947 296.651C149.795 296.628 149.643 296.616 149.49 296.616C149.139 296.616 148.826 296.691 148.55 296.84C148.279 296.986 148.063 297.19 147.904 297.452C147.745 297.71 147.665 298.005 147.665 298.337V303H146.179ZM154.57 303.154C153.817 303.154 153.169 302.993 152.626 302.672C152.086 302.347 151.668 301.891 151.373 301.305C151.081 300.715 150.936 300.024 150.936 299.232C150.936 298.449 151.081 297.76 151.373 297.163C151.668 296.567 152.079 296.101 152.606 295.766C153.136 295.432 153.756 295.264 154.465 295.264C154.896 295.264 155.314 295.335 155.718 295.478C156.123 295.621 156.485 295.844 156.807 296.149C157.128 296.454 157.382 296.85 157.568 297.337C157.753 297.821 157.846 298.41 157.846 299.102V299.629H151.776V298.516H156.389C156.389 298.125 156.31 297.778 156.151 297.477C155.992 297.172 155.768 296.931 155.48 296.756C155.195 296.58 154.86 296.492 154.475 296.492C154.058 296.492 153.693 296.595 153.382 296.8C153.073 297.003 152.835 297.268 152.666 297.596C152.5 297.921 152.417 298.274 152.417 298.655V299.525C152.417 300.035 152.507 300.469 152.686 300.827C152.868 301.185 153.121 301.459 153.446 301.648C153.771 301.833 154.151 301.926 154.585 301.926C154.866 301.926 155.123 301.886 155.355 301.807C155.587 301.724 155.788 301.601 155.957 301.439C156.126 301.277 156.255 301.076 156.345 300.837L157.752 301.091C157.639 301.505 157.437 301.868 157.145 302.18C156.857 302.488 156.494 302.728 156.056 302.901C155.622 303.07 155.127 303.154 154.57 303.154ZM162.354 303.149C161.738 303.149 161.187 302.992 160.703 302.677C160.223 302.359 159.845 301.906 159.57 301.32C159.298 300.73 159.162 300.022 159.162 299.197C159.162 298.371 159.3 297.665 159.575 297.079C159.853 296.492 160.234 296.043 160.718 295.732C161.202 295.42 161.751 295.264 162.364 295.264C162.838 295.264 163.219 295.344 163.507 295.503C163.799 295.659 164.025 295.841 164.184 296.05C164.346 296.259 164.472 296.442 164.561 296.602H164.651V292.818H166.137V303H164.686V301.812H164.561C164.472 301.974 164.343 302.16 164.174 302.369C164.008 302.577 163.779 302.76 163.488 302.915C163.196 303.071 162.818 303.149 162.354 303.149ZM162.682 301.881C163.11 301.881 163.471 301.769 163.766 301.543C164.064 301.315 164.29 300.998 164.442 300.594C164.598 300.189 164.676 299.719 164.676 299.182C164.676 298.652 164.6 298.187 164.447 297.79C164.295 297.392 164.071 297.082 163.776 296.86C163.481 296.638 163.116 296.527 162.682 296.527C162.235 296.527 161.862 296.643 161.564 296.875C161.265 297.107 161.04 297.424 160.887 297.825C160.738 298.226 160.664 298.678 160.664 299.182C160.664 299.692 160.74 300.151 160.892 300.559C161.045 300.967 161.27 301.29 161.569 301.528C161.87 301.764 162.241 301.881 162.682 301.881Z" fill="#29A653"/>
<path d="M105.415 331V328.341L111.628 322.588C112.156 322.077 112.599 321.616 112.957 321.207C113.321 320.798 113.597 320.398 113.784 320.006C113.972 319.608 114.065 319.179 114.065 318.719C114.065 318.207 113.949 317.767 113.716 317.398C113.483 317.023 113.165 316.736 112.761 316.537C112.358 316.332 111.901 316.23 111.389 316.23C110.855 316.23 110.389 316.338 109.991 316.554C109.594 316.77 109.287 317.08 109.071 317.483C108.855 317.886 108.747 318.366 108.747 318.923H105.244C105.244 317.781 105.503 316.79 106.02 315.949C106.537 315.108 107.261 314.457 108.193 313.997C109.125 313.537 110.199 313.307 111.415 313.307C112.665 313.307 113.753 313.528 114.679 313.972C115.611 314.409 116.335 315.017 116.852 315.795C117.369 316.574 117.628 317.466 117.628 318.472C117.628 319.131 117.497 319.781 117.236 320.423C116.98 321.065 116.523 321.778 115.864 322.562C115.205 323.341 114.276 324.276 113.077 325.366L110.528 327.864V327.983H117.858V331H105.415ZM127.231 331.239C126.333 331.233 125.467 331.082 124.631 330.787C123.802 330.491 123.058 330.011 122.398 329.347C121.739 328.682 121.217 327.801 120.83 326.705C120.45 325.608 120.259 324.261 120.259 322.665C120.265 321.199 120.433 319.889 120.762 318.736C121.097 317.577 121.575 316.594 122.194 315.787C122.819 314.98 123.566 314.366 124.435 313.946C125.305 313.52 126.279 313.307 127.359 313.307C128.523 313.307 129.552 313.534 130.444 313.989C131.336 314.437 132.052 315.048 132.592 315.821C133.137 316.594 133.467 317.46 133.58 318.42H129.941C129.799 317.812 129.501 317.335 129.046 316.989C128.592 316.642 128.029 316.469 127.359 316.469C126.222 316.469 125.359 316.963 124.768 317.952C124.183 318.94 123.884 320.284 123.873 321.983H123.992C124.254 321.466 124.606 321.026 125.049 320.662C125.498 320.293 126.006 320.011 126.575 319.818C127.148 319.619 127.754 319.52 128.39 319.52C129.424 319.52 130.344 319.764 131.151 320.253C131.958 320.736 132.594 321.401 133.06 322.247C133.526 323.094 133.759 324.062 133.759 325.153C133.759 326.335 133.484 327.386 132.933 328.307C132.387 329.227 131.623 329.949 130.64 330.472C129.663 330.989 128.526 331.244 127.231 331.239ZM127.214 328.341C127.782 328.341 128.29 328.205 128.739 327.932C129.188 327.659 129.54 327.29 129.796 326.824C130.052 326.358 130.18 325.835 130.18 325.256C130.18 324.676 130.052 324.156 129.796 323.696C129.546 323.236 129.2 322.869 128.756 322.597C128.313 322.324 127.808 322.188 127.239 322.188C126.813 322.188 126.418 322.267 126.055 322.426C125.697 322.585 125.381 322.807 125.109 323.091C124.842 323.375 124.631 323.705 124.478 324.08C124.325 324.449 124.248 324.844 124.248 325.264C124.248 325.827 124.376 326.341 124.631 326.807C124.893 327.273 125.245 327.645 125.688 327.923C126.137 328.202 126.646 328.341 127.214 328.341Z" fill="#29A653"/>
<rect x="214" y="268" width="172" height="89" rx="8" fill="#DCEEFA"/>
<path d="M253.953 305.44L252.073 303.56L243.62 312.013L245.5 313.893L253.953 305.44ZM259.607 303.56L245.5 317.667L239.927 312.107L238.047 313.987L245.5 321.44L261.5 305.44L259.607 303.56ZM230.5 313.987L237.953 321.44L239.833 319.56L232.393 312.107L230.5 313.987Z" fill="#2188BA"/>
<path d="M279.119 303V292.818H282.748C283.537 292.818 284.191 292.954 284.712 293.226C285.235 293.498 285.626 293.874 285.885 294.354C286.143 294.832 286.273 295.384 286.273 296.01C286.273 296.633 286.142 297.182 285.88 297.656C285.621 298.126 285.23 298.492 284.707 298.754C284.186 299.016 283.532 299.147 282.743 299.147H279.994V297.825H282.604C283.101 297.825 283.505 297.753 283.817 297.611C284.132 297.468 284.362 297.261 284.508 296.989C284.654 296.718 284.727 296.391 284.727 296.01C284.727 295.625 284.652 295.292 284.503 295.011C284.357 294.729 284.127 294.513 283.812 294.364C283.5 294.212 283.091 294.136 282.584 294.136H280.655V303H279.119ZM284.145 298.406L286.661 303H284.911L282.445 298.406H284.145ZM291.218 303.154C290.466 303.154 289.818 302.993 289.274 302.672C288.734 302.347 288.316 301.891 288.021 301.305C287.73 300.715 287.584 300.024 287.584 299.232C287.584 298.449 287.73 297.76 288.021 297.163C288.316 296.567 288.727 296.101 289.254 295.766C289.785 295.432 290.405 295.264 291.114 295.264C291.545 295.264 291.962 295.335 292.367 295.478C292.771 295.621 293.134 295.844 293.455 296.149C293.777 296.454 294.03 296.85 294.216 297.337C294.402 297.821 294.494 298.41 294.494 299.102V299.629H288.424V298.516H293.038C293.038 298.125 292.958 297.778 292.799 297.477C292.64 297.172 292.416 296.931 292.128 296.756C291.843 296.58 291.508 296.492 291.124 296.492C290.706 296.492 290.342 296.595 290.03 296.8C289.722 297.003 289.483 297.268 289.314 297.596C289.148 297.921 289.066 298.274 289.066 298.655V299.525C289.066 300.035 289.155 300.469 289.334 300.827C289.516 301.185 289.77 301.459 290.095 301.648C290.419 301.833 290.799 301.926 291.233 301.926C291.515 301.926 291.772 301.886 292.004 301.807C292.236 301.724 292.436 301.601 292.605 301.439C292.774 301.277 292.904 301.076 292.993 300.837L294.4 301.091C294.287 301.505 294.085 301.868 293.794 302.18C293.505 302.488 293.142 302.728 292.705 302.901C292.271 303.07 291.775 303.154 291.218 303.154ZM298.366 303.169C297.882 303.169 297.445 303.08 297.054 302.901C296.663 302.718 296.353 302.455 296.124 302.11C295.899 301.765 295.786 301.343 295.786 300.842C295.786 300.411 295.869 300.057 296.034 299.778C296.2 299.5 296.424 299.28 296.706 299.117C296.987 298.955 297.302 298.832 297.65 298.749C297.998 298.666 298.353 298.603 298.714 298.56C299.172 298.507 299.543 298.464 299.828 298.431C300.113 298.395 300.32 298.337 300.449 298.257C300.578 298.178 300.643 298.048 300.643 297.869V297.835C300.643 297.4 300.52 297.064 300.275 296.825C300.033 296.587 299.672 296.467 299.191 296.467C298.691 296.467 298.297 296.578 298.008 296.8C297.723 297.019 297.526 297.263 297.417 297.531L296.02 297.213C296.185 296.749 296.427 296.375 296.745 296.089C297.067 295.801 297.436 295.592 297.854 295.463C298.272 295.33 298.711 295.264 299.172 295.264C299.476 295.264 299.8 295.301 300.141 295.374C300.486 295.443 300.807 295.572 301.105 295.761C301.407 295.95 301.654 296.22 301.846 296.572C302.038 296.92 302.135 297.372 302.135 297.929V303H300.683V301.956H300.623C300.527 302.148 300.383 302.337 300.191 302.523C299.998 302.708 299.752 302.862 299.45 302.985C299.148 303.108 298.787 303.169 298.366 303.169ZM298.689 301.976C299.1 301.976 299.452 301.895 299.743 301.732C300.038 301.57 300.262 301.358 300.414 301.096C300.57 300.831 300.648 300.547 300.648 300.246V299.261C300.595 299.314 300.492 299.364 300.34 299.411C300.191 299.454 300.02 299.492 299.828 299.525C299.636 299.555 299.448 299.583 299.266 299.609C299.084 299.633 298.931 299.652 298.809 299.669C298.52 299.705 298.257 299.767 298.018 299.853C297.783 299.939 297.594 300.063 297.451 300.226C297.312 300.385 297.243 300.597 297.243 300.862C297.243 301.23 297.378 301.509 297.65 301.697C297.922 301.883 298.268 301.976 298.689 301.976ZM306.973 303.149C306.357 303.149 305.807 302.992 305.323 302.677C304.842 302.359 304.464 301.906 304.189 301.32C303.917 300.73 303.781 300.022 303.781 299.197C303.781 298.371 303.919 297.665 304.194 297.079C304.472 296.492 304.854 296.043 305.338 295.732C305.821 295.42 306.37 295.264 306.983 295.264C307.457 295.264 307.838 295.344 308.127 295.503C308.418 295.659 308.644 295.841 308.803 296.05C308.965 296.259 309.091 296.442 309.181 296.602H309.27V292.818H310.757V303H309.305V301.812H309.181C309.091 301.974 308.962 302.16 308.793 302.369C308.627 302.577 308.398 302.76 308.107 302.915C307.815 303.071 307.437 303.149 306.973 303.149ZM307.301 301.881C307.729 301.881 308.09 301.769 308.385 301.543C308.683 301.315 308.909 300.998 309.061 300.594C309.217 300.189 309.295 299.719 309.295 299.182C309.295 298.652 309.219 298.187 309.066 297.79C308.914 297.392 308.69 297.082 308.395 296.86C308.1 296.638 307.735 296.527 307.301 296.527C306.854 296.527 306.481 296.643 306.183 296.875C305.884 297.107 305.659 297.424 305.507 297.825C305.357 298.226 305.283 298.678 305.283 299.182C305.283 299.692 305.359 300.151 305.512 300.559C305.664 300.967 305.889 301.29 306.188 301.528C306.489 301.764 306.86 301.881 307.301 301.881Z" fill="#2188BA"/>
<path d="M279.415 331V328.341L285.628 322.588C286.156 322.077 286.599 321.616 286.957 321.207C287.321 320.798 287.597 320.398 287.784 320.006C287.972 319.608 288.065 319.179 288.065 318.719C288.065 318.207 287.949 317.767 287.716 317.398C287.483 317.023 287.165 316.736 286.761 316.537C286.358 316.332 285.901 316.23 285.389 316.23C284.855 316.23 284.389 316.338 283.991 316.554C283.594 316.77 283.287 317.08 283.071 317.483C282.855 317.886 282.747 318.366 282.747 318.923H279.244C279.244 317.781 279.503 316.79 280.02 315.949C280.537 315.108 281.261 314.457 282.193 313.997C283.125 313.537 284.199 313.307 285.415 313.307C286.665 313.307 287.753 313.528 288.679 313.972C289.611 314.409 290.335 315.017 290.852 315.795C291.369 316.574 291.628 317.466 291.628 318.472C291.628 319.131 291.497 319.781 291.236 320.423C290.98 321.065 290.523 321.778 289.864 322.562C289.205 323.341 288.276 324.276 287.077 325.366L284.528 327.864V327.983H291.858V331H279.415ZM301.376 331.384C299.91 331.378 298.648 331.017 297.592 330.301C296.54 329.585 295.731 328.548 295.163 327.19C294.6 325.832 294.322 324.199 294.327 322.29C294.327 320.386 294.609 318.764 295.171 317.423C295.739 316.082 296.549 315.062 297.6 314.364C298.657 313.659 299.915 313.307 301.376 313.307C302.836 313.307 304.092 313.659 305.143 314.364C306.2 315.068 307.012 316.091 307.58 317.432C308.148 318.767 308.43 320.386 308.424 322.29C308.424 324.205 308.14 325.841 307.572 327.199C307.009 328.557 306.202 329.594 305.151 330.31C304.1 331.026 302.842 331.384 301.376 331.384ZM301.376 328.324C302.376 328.324 303.174 327.821 303.771 326.815C304.367 325.81 304.663 324.301 304.657 322.29C304.657 320.966 304.521 319.864 304.248 318.983C303.981 318.102 303.6 317.44 303.106 316.997C302.617 316.554 302.04 316.332 301.376 316.332C300.381 316.332 299.586 316.83 298.989 317.824C298.393 318.818 298.092 320.307 298.086 322.29C298.086 323.631 298.219 324.75 298.487 325.648C298.759 326.54 299.143 327.21 299.637 327.659C300.131 328.102 300.711 328.324 301.376 328.324Z" fill="#2188BA"/>
<path d="M509 300H439C433.5 300 429 304.5 429 310V380C429 385.5 433.5 390 439 390H509C514.5 390 519 385.5 519 380V310C519 304.5 514.5 300 509 300ZM509 380H439V310H509V380Z" fill="#DBEAF6"/>
<path d="M459 345H449V370H459V345Z" fill="#DBEAF6"/>
<path d="M499 320H489V370H499V320Z" fill="#DBEAF6"/>
<path d="M479 355H469V370H479V355Z" fill="#DBEAF6"/>
<path d="M479 335H469V345H479V335Z" fill="#DBEAF6"/>
<path d="M439 90H454V139H439V90ZM467 69H481V139H467V69ZM495 109H509V139H495V109Z" fill="#DBEAF6"/>
<path d="M261.123 127.435H257.935C257.844 126.912 257.677 126.449 257.433 126.045C257.188 125.636 256.884 125.29 256.521 125.006C256.157 124.722 255.742 124.509 255.276 124.366C254.816 124.219 254.319 124.145 253.785 124.145C252.836 124.145 251.995 124.384 251.262 124.861C250.529 125.332 249.955 126.026 249.54 126.94C249.126 127.849 248.918 128.96 248.918 130.273C248.918 131.608 249.126 132.733 249.54 133.648C249.961 134.557 250.535 135.244 251.262 135.71C251.995 136.17 252.833 136.401 253.776 136.401C254.299 136.401 254.788 136.332 255.242 136.196C255.702 136.054 256.114 135.847 256.478 135.574C256.847 135.301 257.157 134.966 257.407 134.568C257.663 134.17 257.839 133.716 257.935 133.205L261.123 133.222C261.004 134.051 260.745 134.83 260.347 135.557C259.955 136.284 259.441 136.926 258.805 137.483C258.168 138.034 257.424 138.466 256.572 138.778C255.719 139.085 254.773 139.239 253.734 139.239C252.2 139.239 250.83 138.884 249.626 138.173C248.421 137.463 247.472 136.438 246.779 135.097C246.086 133.756 245.739 132.148 245.739 130.273C245.739 128.392 246.089 126.784 246.788 125.449C247.487 124.108 248.438 123.082 249.643 122.372C250.847 121.662 252.211 121.307 253.734 121.307C254.705 121.307 255.609 121.443 256.444 121.716C257.279 121.989 258.023 122.389 258.677 122.918C259.33 123.44 259.867 124.082 260.288 124.844C260.714 125.599 260.992 126.463 261.123 127.435ZM266.967 131.33V139H263.882V121.545H266.899V128.134H267.053C267.359 127.395 267.834 126.812 268.476 126.386C269.124 125.955 269.947 125.739 270.947 125.739C271.857 125.739 272.649 125.929 273.325 126.31C274.001 126.69 274.524 127.247 274.893 127.98C275.268 128.713 275.456 129.608 275.456 130.665V139H272.371V131.142C272.371 130.261 272.143 129.577 271.689 129.088C271.24 128.594 270.609 128.347 269.797 128.347C269.251 128.347 268.763 128.466 268.331 128.705C267.905 128.937 267.57 129.276 267.325 129.719C267.087 130.162 266.967 130.699 266.967 131.33ZM282.368 139.264C281.538 139.264 280.791 139.116 280.126 138.821C279.467 138.52 278.945 138.077 278.558 137.491C278.178 136.906 277.987 136.185 277.987 135.327C277.987 134.588 278.124 133.977 278.396 133.494C278.669 133.011 279.041 132.625 279.513 132.335C279.984 132.045 280.516 131.827 281.107 131.679C281.703 131.526 282.32 131.415 282.956 131.347C283.723 131.267 284.345 131.196 284.822 131.134C285.3 131.065 285.646 130.963 285.862 130.827C286.084 130.685 286.195 130.466 286.195 130.17V130.119C286.195 129.477 286.004 128.98 285.624 128.628C285.243 128.276 284.695 128.099 283.979 128.099C283.223 128.099 282.624 128.264 282.18 128.594C281.743 128.923 281.447 129.312 281.294 129.761L278.413 129.352C278.641 128.557 279.016 127.892 279.538 127.358C280.061 126.818 280.7 126.415 281.456 126.148C282.212 125.875 283.047 125.739 283.962 125.739C284.592 125.739 285.22 125.812 285.845 125.96C286.47 126.108 287.041 126.352 287.558 126.693C288.075 127.028 288.49 127.486 288.803 128.065C289.121 128.645 289.28 129.369 289.28 130.239V139H286.314V137.202H286.212C286.024 137.565 285.76 137.906 285.419 138.224C285.084 138.537 284.661 138.79 284.149 138.983C283.643 139.17 283.05 139.264 282.368 139.264ZM283.169 136.997C283.788 136.997 284.325 136.875 284.78 136.631C285.234 136.381 285.584 136.051 285.828 135.642C286.078 135.233 286.203 134.787 286.203 134.304V132.761C286.107 132.841 285.942 132.915 285.709 132.983C285.482 133.051 285.226 133.111 284.942 133.162C284.658 133.213 284.376 133.259 284.098 133.298C283.82 133.338 283.578 133.372 283.374 133.401C282.913 133.463 282.501 133.565 282.138 133.707C281.774 133.849 281.487 134.048 281.277 134.304C281.067 134.554 280.962 134.878 280.962 135.276C280.962 135.844 281.169 136.273 281.584 136.562C281.999 136.852 282.527 136.997 283.169 136.997ZM298.919 125.909V128.295H291.393V125.909H298.919ZM293.251 122.773H296.337V135.062C296.337 135.477 296.399 135.795 296.524 136.017C296.655 136.233 296.825 136.381 297.036 136.46C297.246 136.54 297.479 136.58 297.734 136.58C297.928 136.58 298.104 136.565 298.263 136.537C298.428 136.509 298.553 136.483 298.638 136.46L299.158 138.872C298.993 138.929 298.757 138.991 298.45 139.06C298.149 139.128 297.78 139.168 297.342 139.179C296.57 139.202 295.874 139.085 295.254 138.83C294.635 138.568 294.143 138.165 293.78 137.619C293.422 137.074 293.246 136.392 293.251 135.574V122.773ZM311.219 139.264C310.39 139.264 309.643 139.116 308.978 138.821C308.319 138.52 307.796 138.077 307.41 137.491C307.029 136.906 306.839 136.185 306.839 135.327C306.839 134.588 306.975 133.977 307.248 133.494C307.521 133.011 307.893 132.625 308.364 132.335C308.836 132.045 309.367 131.827 309.958 131.679C310.555 131.526 311.171 131.415 311.808 131.347C312.575 131.267 313.197 131.196 313.674 131.134C314.151 131.065 314.498 130.963 314.714 130.827C314.935 130.685 315.046 130.466 315.046 130.17V130.119C315.046 129.477 314.856 128.98 314.475 128.628C314.094 128.276 313.546 128.099 312.83 128.099C312.075 128.099 311.475 128.264 311.032 128.594C310.594 128.923 310.299 129.312 310.146 129.761L307.265 129.352C307.492 128.557 307.867 127.892 308.39 127.358C308.913 126.818 309.552 126.415 310.308 126.148C311.063 125.875 311.898 125.739 312.813 125.739C313.444 125.739 314.072 125.812 314.697 125.96C315.322 126.108 315.893 126.352 316.41 126.693C316.927 127.028 317.342 127.486 317.654 128.065C317.972 128.645 318.131 129.369 318.131 130.239V139H315.165V137.202H315.063C314.876 137.565 314.612 137.906 314.271 138.224C313.935 138.537 313.512 138.79 313.001 138.983C312.495 139.17 311.901 139.264 311.219 139.264ZM312.021 136.997C312.64 136.997 313.177 136.875 313.631 136.631C314.086 136.381 314.435 136.051 314.68 135.642C314.93 135.233 315.055 134.787 315.055 134.304V132.761C314.958 132.841 314.793 132.915 314.56 132.983C314.333 133.051 314.077 133.111 313.793 133.162C313.509 133.213 313.228 133.259 312.95 133.298C312.671 133.338 312.43 133.372 312.225 133.401C311.765 133.463 311.353 133.565 310.989 133.707C310.626 133.849 310.339 134.048 310.129 134.304C309.918 134.554 309.813 134.878 309.813 135.276C309.813 135.844 310.021 136.273 310.435 136.562C310.85 136.852 311.379 136.997 312.021 136.997ZM324.319 131.33V139H321.234V125.909H324.183V128.134H324.336C324.637 127.401 325.117 126.818 325.776 126.386C326.441 125.955 327.262 125.739 328.239 125.739C329.143 125.739 329.93 125.932 330.6 126.318C331.276 126.705 331.799 127.264 332.168 127.997C332.543 128.73 332.728 129.619 332.722 130.665V139H329.637V131.142C329.637 130.267 329.41 129.582 328.955 129.088C328.506 128.594 327.884 128.347 327.089 128.347C326.549 128.347 326.069 128.466 325.648 128.705C325.234 128.937 324.907 129.276 324.668 129.719C324.435 130.162 324.319 130.699 324.319 131.33ZM339.626 139.264C338.796 139.264 338.049 139.116 337.384 138.821C336.725 138.52 336.202 138.077 335.816 137.491C335.435 136.906 335.245 136.185 335.245 135.327C335.245 134.588 335.381 133.977 335.654 133.494C335.927 133.011 336.299 132.625 336.771 132.335C337.242 132.045 337.773 131.827 338.364 131.679C338.961 131.526 339.577 131.415 340.214 131.347C340.981 131.267 341.603 131.196 342.08 131.134C342.558 131.065 342.904 130.963 343.12 130.827C343.342 130.685 343.452 130.466 343.452 130.17V130.119C343.452 129.477 343.262 128.98 342.881 128.628C342.501 128.276 341.952 128.099 341.237 128.099C340.481 128.099 339.881 128.264 339.438 128.594C339.001 128.923 338.705 129.312 338.552 129.761L335.671 129.352C335.898 128.557 336.273 127.892 336.796 127.358C337.319 126.818 337.958 126.415 338.714 126.148C339.469 125.875 340.305 125.739 341.219 125.739C341.85 125.739 342.478 125.812 343.103 125.96C343.728 126.108 344.299 126.352 344.816 126.693C345.333 127.028 345.748 127.486 346.06 128.065C346.379 128.645 346.538 129.369 346.538 130.239V139H343.572V137.202H343.469C343.282 137.565 343.018 137.906 342.677 138.224C342.342 138.537 341.918 138.79 341.407 138.983C340.901 139.17 340.308 139.264 339.626 139.264ZM340.427 136.997C341.046 136.997 341.583 136.875 342.038 136.631C342.492 136.381 342.842 136.051 343.086 135.642C343.336 135.233 343.461 134.787 343.461 134.304V132.761C343.364 132.841 343.2 132.915 342.967 132.983C342.739 133.051 342.484 133.111 342.2 133.162C341.915 133.213 341.634 133.259 341.356 133.298C341.077 133.338 340.836 133.372 340.631 133.401C340.171 133.463 339.759 133.565 339.396 133.707C339.032 133.849 338.745 134.048 338.535 134.304C338.325 134.554 338.219 134.878 338.219 135.276C338.219 135.844 338.427 136.273 338.842 136.562C339.256 136.852 339.785 136.997 340.427 136.997ZM352.725 121.545V139H349.64V121.545H352.725ZM357.815 143.909C357.395 143.909 357.006 143.875 356.648 143.807C356.295 143.744 356.014 143.67 355.804 143.585L356.52 141.182C356.969 141.313 357.369 141.375 357.722 141.369C358.074 141.364 358.384 141.253 358.651 141.037C358.923 140.827 359.153 140.474 359.341 139.98L359.605 139.273L354.858 125.909H358.131L361.148 135.795H361.284L364.31 125.909H367.591L362.349 140.585C362.105 141.278 361.781 141.872 361.378 142.366C360.974 142.866 360.48 143.247 359.895 143.509C359.315 143.776 358.622 143.909 357.815 143.909ZM376.263 125.909V128.295H368.737V125.909H376.263ZM370.595 122.773H373.68V135.062C373.68 135.477 373.743 135.795 373.868 136.017C373.999 136.233 374.169 136.381 374.379 136.46C374.589 136.54 374.822 136.58 375.078 136.58C375.271 136.58 375.447 136.565 375.607 136.537C375.771 136.509 375.896 136.483 375.982 136.46L376.501 138.872C376.337 138.929 376.101 138.991 375.794 139.06C375.493 139.128 375.124 139.168 374.686 139.179C373.913 139.202 373.217 139.085 372.598 138.83C371.979 138.568 371.487 138.165 371.124 137.619C370.766 137.074 370.589 136.392 370.595 135.574V122.773ZM378.843 139V125.909H381.928V139H378.843ZM380.394 124.051C379.906 124.051 379.485 123.889 379.133 123.565C378.781 123.236 378.604 122.841 378.604 122.381C378.604 121.915 378.781 121.52 379.133 121.196C379.485 120.866 379.906 120.702 380.394 120.702C380.888 120.702 381.309 120.866 381.656 121.196C382.008 121.52 382.184 121.915 382.184 122.381C382.184 122.841 382.008 123.236 381.656 123.565C381.309 123.889 380.888 124.051 380.394 124.051ZM390.811 139.256C389.504 139.256 388.382 138.969 387.445 138.395C386.513 137.821 385.794 137.028 385.288 136.017C384.788 135 384.538 133.83 384.538 132.506C384.538 131.176 384.794 130.003 385.305 128.986C385.817 127.963 386.538 127.168 387.47 126.599C388.408 126.026 389.516 125.739 390.794 125.739C391.857 125.739 392.797 125.935 393.615 126.327C394.439 126.713 395.095 127.261 395.584 127.972C396.072 128.676 396.351 129.5 396.419 130.443H393.47C393.351 129.812 393.067 129.287 392.618 128.866C392.175 128.44 391.581 128.227 390.837 128.227C390.206 128.227 389.652 128.398 389.175 128.739C388.697 129.074 388.325 129.557 388.058 130.188C387.797 130.818 387.666 131.574 387.666 132.455C387.666 133.347 387.797 134.114 388.058 134.756C388.32 135.392 388.686 135.884 389.158 136.23C389.635 136.571 390.195 136.741 390.837 136.741C391.291 136.741 391.697 136.656 392.055 136.486C392.419 136.31 392.723 136.057 392.967 135.727C393.212 135.398 393.379 134.997 393.47 134.526H396.419C396.345 135.452 396.072 136.273 395.601 136.989C395.129 137.699 394.487 138.256 393.675 138.659C392.862 139.057 391.908 139.256 390.811 139.256ZM409.299 129.369L406.487 129.676C406.407 129.392 406.268 129.125 406.069 128.875C405.876 128.625 405.614 128.423 405.285 128.27C404.955 128.116 404.552 128.04 404.075 128.04C403.433 128.04 402.893 128.179 402.455 128.457C402.023 128.736 401.81 129.097 401.816 129.54C401.81 129.92 401.95 130.23 402.234 130.469C402.523 130.707 403.001 130.903 403.665 131.057L405.898 131.534C407.137 131.801 408.058 132.224 408.66 132.804C409.268 133.384 409.575 134.142 409.58 135.08C409.575 135.903 409.333 136.631 408.856 137.261C408.384 137.886 407.728 138.375 406.887 138.727C406.046 139.08 405.08 139.256 403.989 139.256C402.387 139.256 401.097 138.92 400.12 138.25C399.143 137.574 398.56 136.634 398.373 135.429L401.381 135.139C401.518 135.73 401.808 136.176 402.251 136.477C402.694 136.778 403.271 136.929 403.981 136.929C404.714 136.929 405.302 136.778 405.745 136.477C406.194 136.176 406.418 135.804 406.418 135.361C406.418 134.986 406.273 134.676 405.984 134.432C405.7 134.187 405.256 134 404.654 133.869L402.421 133.401C401.165 133.139 400.237 132.699 399.634 132.08C399.032 131.455 398.734 130.665 398.739 129.71C398.734 128.903 398.952 128.205 399.396 127.614C399.844 127.017 400.467 126.557 401.262 126.233C402.063 125.903 402.987 125.739 404.032 125.739C405.566 125.739 406.773 126.065 407.654 126.719C408.54 127.372 409.089 128.256 409.299 129.369Z" fill="#3A74B5"/>
</svg>
