<svg width="600" height="455" viewBox="0 0 600 455" fill="none" xmlns="http://www.w3.org/2000/svg">
<g clip-path="url(#clip0_6449_49750)">
<path d="M490.458 37.25H552.541L521.437 76.3625L490.458 37.25ZM473.385 34.8288C485.926 50.9083 509.083 80.7083 509.083 80.7083V117.958C509.083 121.373 511.877 124.167 515.291 124.167H527.708C531.123 124.167 533.916 121.373 533.916 117.958V80.7083C533.916 80.7083 557.011 50.9083 569.552 34.8288C572.718 30.7313 569.8 24.8333 564.648 24.8333H478.29C473.137 24.8333 470.219 30.7313 473.385 34.8288Z" fill="#DBEAF6"/>
</g>
<path fill-rule="evenodd" clip-rule="evenodd" d="M109.326 296.907L121.919 289.636L161.746 312.631V358.619L149.144 365.895V381.839C149.144 386.335 146.745 390.489 142.852 392.737L95.4993 420.076C91.606 422.324 86.8093 422.324 82.916 420.076L35.5632 392.737C31.6699 390.489 29.2715 386.335 29.2715 381.839V327.161C29.2715 322.666 31.6699 318.511 35.5632 316.264L82.916 288.924C86.8093 286.677 91.606 286.677 95.4993 288.924L109.326 296.907ZM121.909 304.172L121.919 304.166L149.162 319.896V351.354L121.919 367.083L94.675 351.354V319.896L121.909 304.172ZM136.561 373.16V381.839L89.2077 409.179L41.8548 381.839V327.161L89.2077 299.822L96.7422 304.172L82.0917 312.631V358.619L121.919 381.613L136.561 373.16Z" fill="#DBEAF6"/>
<path d="M55.8239 155.909C55.8239 156.983 55.63 157.911 55.2422 158.693C54.8544 159.475 54.3224 160.079 53.6463 160.503C52.9702 160.927 52.1979 161.139 51.3295 161.139C50.4612 161.139 49.6889 160.927 49.0128 160.503C48.3366 160.079 47.8047 159.475 47.4169 158.693C47.0291 157.911 46.8352 156.983 46.8352 155.909C46.8352 154.835 47.0291 153.907 47.4169 153.125C47.8047 152.343 48.3366 151.74 49.0128 151.315C49.6889 150.891 50.4612 150.679 51.3295 150.679C52.1979 150.679 52.9702 150.891 53.6463 151.315C54.3224 151.74 54.8544 152.343 55.2422 153.125C55.63 153.907 55.8239 154.835 55.8239 155.909ZM54.6307 155.909C54.6307 155.027 54.4832 154.283 54.1882 153.677C53.8965 153.07 53.5005 152.611 53 152.3C52.5028 151.988 51.946 151.832 51.3295 151.832C50.7131 151.832 50.1546 151.988 49.6541 152.3C49.157 152.611 48.7609 153.07 48.4659 153.677C48.1742 154.283 48.0284 155.027 48.0284 155.909C48.0284 156.791 48.1742 157.535 48.4659 158.141C48.7609 158.748 49.157 159.207 49.6541 159.518C50.1546 159.83 50.7131 159.986 51.3295 159.986C51.946 159.986 52.5028 159.83 53 159.518C53.5005 159.207 53.8965 158.748 54.1882 158.141C54.4832 157.535 54.6307 156.791 54.6307 155.909ZM58.9112 156.406V161H57.7379V153.364H58.8714V154.557H58.9709C59.1499 154.169 59.4216 153.857 59.7862 153.622C60.1508 153.384 60.6214 153.264 61.1982 153.264C61.7152 153.264 62.1676 153.37 62.5554 153.582C62.9432 153.791 63.2448 154.109 63.4602 154.537C63.6757 154.961 63.7834 155.498 63.7834 156.148V161H62.6101V156.227C62.6101 155.627 62.4543 155.16 62.1428 154.825C61.8312 154.487 61.4036 154.318 60.8601 154.318C60.4856 154.318 60.1508 154.399 59.8558 154.562C59.5642 154.724 59.3338 154.961 59.1648 155.273C58.9957 155.584 58.9112 155.962 58.9112 156.406ZM68.8109 161.159C68.1745 161.159 67.6127 160.998 67.1255 160.677C66.6383 160.352 66.2572 159.895 65.9821 159.305C65.707 158.711 65.5694 158.01 65.5694 157.202C65.5694 156.4 65.707 155.704 65.9821 155.114C66.2572 154.524 66.64 154.068 67.1305 153.746C67.621 153.425 68.1878 153.264 68.8308 153.264C69.3279 153.264 69.7207 153.347 70.0091 153.513C70.3007 153.675 70.5228 153.861 70.6752 154.07C70.831 154.275 70.952 154.444 71.0382 154.577H71.1376V150.818H72.3109V161H71.1774V159.827H71.0382C70.952 159.966 70.8294 160.142 70.6703 160.354C70.5112 160.562 70.2842 160.75 69.9892 160.915C69.6942 161.078 69.3014 161.159 68.8109 161.159ZM68.97 160.105C69.4406 160.105 69.8384 159.982 70.1632 159.737C70.488 159.489 70.7349 159.146 70.9039 158.708C71.073 158.267 71.1575 157.759 71.1575 157.182C71.1575 156.612 71.0746 156.113 70.9089 155.685C70.7432 155.254 70.4979 154.92 70.1731 154.681C69.8483 154.439 69.4473 154.318 68.97 154.318C68.4728 154.318 68.0585 154.446 67.7271 154.701C67.399 154.953 67.152 155.296 66.9863 155.73C66.8239 156.161 66.7427 156.645 66.7427 157.182C66.7427 157.725 66.8256 158.219 66.9913 158.663C67.1603 159.104 67.4089 159.455 67.737 159.717C68.0685 159.976 68.4795 160.105 68.97 160.105ZM77.8244 161.159C77.0886 161.159 76.4539 160.997 75.9203 160.672C75.39 160.344 74.9806 159.886 74.6923 159.3C74.4073 158.71 74.2647 158.024 74.2647 157.241C74.2647 156.459 74.4073 155.77 74.6923 155.173C74.9806 154.573 75.3817 154.106 75.8954 153.771C76.4125 153.433 77.0157 153.264 77.7051 153.264C78.1028 153.264 78.4956 153.33 78.8833 153.463C79.2711 153.596 79.6241 153.811 79.9423 154.109C80.2605 154.404 80.514 154.795 80.7029 155.283C80.8919 155.77 80.9863 156.37 80.9863 157.082V157.58H75.1V156.565H79.7931C79.7931 156.134 79.707 155.75 79.5346 155.412C79.3656 155.074 79.1236 154.807 78.8088 154.612C78.4972 154.416 78.1293 154.318 77.7051 154.318C77.2377 154.318 76.8334 154.434 76.492 154.666C76.1539 154.895 75.8938 155.193 75.7115 155.561C75.5292 155.929 75.438 156.323 75.438 156.744V157.42C75.438 157.997 75.5375 158.486 75.7363 158.887C75.9385 159.285 76.2186 159.588 76.5765 159.797C76.9345 160.002 77.3504 160.105 77.8244 160.105C78.1326 160.105 78.411 160.062 78.6596 159.976C78.9115 159.886 79.1286 159.754 79.3109 159.578C79.4932 159.399 79.6341 159.177 79.7335 158.912L80.867 159.23C80.7477 159.615 80.5472 159.953 80.2654 160.244C79.9837 160.533 79.6357 160.758 79.2214 160.92C78.8071 161.08 78.3414 161.159 77.8244 161.159Z" fill="#3F4346"/>
<g clip-path="url(#clip1_6449_49750)">
<rect x="132" y="141" width="422" height="30" rx="4" fill="white"/>
<rect x="132" y="141" width="120" height="30" stroke="#D5D9DC"/>
<path d="M149.307 150.818V161H148.114L142.565 153.006H142.466V161H141.233V150.818H142.426L147.994 158.832H148.094V150.818H149.307ZM154.717 161.159C154.028 161.159 153.423 160.995 152.903 160.667C152.385 160.339 151.981 159.88 151.689 159.29C151.401 158.7 151.257 158.01 151.257 157.222C151.257 156.426 151.401 155.732 151.689 155.138C151.981 154.545 152.385 154.085 152.903 153.756C153.423 153.428 154.028 153.264 154.717 153.264C155.407 153.264 156.01 153.428 156.527 153.756C157.047 154.085 157.452 154.545 157.74 155.138C158.032 155.732 158.177 156.426 158.177 157.222C158.177 158.01 158.032 158.7 157.74 159.29C157.452 159.88 157.047 160.339 156.527 160.667C156.01 160.995 155.407 161.159 154.717 161.159ZM154.717 160.105C155.241 160.105 155.672 159.971 156.01 159.702C156.348 159.434 156.598 159.081 156.76 158.643C156.923 158.206 157.004 157.732 157.004 157.222C157.004 156.711 156.923 156.236 156.76 155.795C156.598 155.354 156.348 154.998 156.01 154.726C155.672 154.454 155.241 154.318 154.717 154.318C154.193 154.318 153.763 154.454 153.425 154.726C153.086 154.998 152.836 155.354 152.674 155.795C152.511 156.236 152.43 156.711 152.43 157.222C152.43 157.732 152.511 158.206 152.674 158.643C152.836 159.081 153.086 159.434 153.425 159.702C153.763 159.971 154.193 160.105 154.717 160.105ZM159.968 161V153.364H161.102V154.557H161.201C161.36 154.149 161.617 153.833 161.972 153.607C162.327 153.379 162.752 153.264 163.25 153.264C163.753 153.264 164.173 153.379 164.507 153.607C164.846 153.833 165.109 154.149 165.298 154.557H165.377C165.573 154.162 165.866 153.849 166.257 153.617C166.649 153.382 167.118 153.264 167.664 153.264C168.347 153.264 168.906 153.478 169.34 153.906C169.774 154.33 169.991 154.991 169.991 155.889V161H168.818V155.889C168.818 155.326 168.664 154.923 168.355 154.681C168.047 154.439 167.684 154.318 167.267 154.318C166.73 154.318 166.314 154.481 166.019 154.805C165.724 155.127 165.576 155.535 165.576 156.028V161H164.383V155.77C164.383 155.336 164.242 154.986 163.961 154.721C163.679 154.452 163.316 154.318 162.872 154.318C162.567 154.318 162.282 154.399 162.017 154.562C161.755 154.724 161.543 154.95 161.38 155.238C161.221 155.523 161.142 155.853 161.142 156.227V161H159.968ZM175.338 161.159C174.602 161.159 173.968 160.997 173.434 160.672C172.904 160.344 172.494 159.886 172.206 159.3C171.921 158.71 171.778 158.024 171.778 157.241C171.778 156.459 171.921 155.77 172.206 155.173C172.494 154.573 172.895 154.106 173.409 153.771C173.926 153.433 174.529 153.264 175.219 153.264C175.616 153.264 176.009 153.33 176.397 153.463C176.785 153.596 177.138 153.811 177.456 154.109C177.774 154.404 178.028 154.795 178.217 155.283C178.406 155.77 178.5 156.37 178.5 157.082V157.58H172.614V156.565H177.307C177.307 156.134 177.221 155.75 177.048 155.412C176.879 155.074 176.637 154.807 176.322 154.612C176.011 154.416 175.643 154.318 175.219 154.318C174.751 154.318 174.347 154.434 174.006 154.666C173.668 154.895 173.407 155.193 173.225 155.561C173.043 155.929 172.952 156.323 172.952 156.744V157.42C172.952 157.997 173.051 158.486 173.25 158.887C173.452 159.285 173.732 159.588 174.09 159.797C174.448 160.002 174.864 160.105 175.338 160.105C175.646 160.105 175.925 160.062 176.173 159.976C176.425 159.886 176.642 159.754 176.825 159.578C177.007 159.399 177.148 159.177 177.247 158.912L178.381 159.23C178.261 159.615 178.061 159.953 177.779 160.244C177.497 160.533 177.149 160.758 176.735 160.92C176.321 161.08 175.855 161.159 175.338 161.159Z" fill="#3F4346"/>
<path d="M232.981 154.333L236.222 157.667L239.463 154.333H232.981Z" fill="#5D6164"/>
<rect x="252" y="141" width="136" height="30" stroke="#D5D9DC"/>
<path d="M264.176 161.159C263.46 161.159 262.844 160.99 262.327 160.652C261.81 160.314 261.412 159.848 261.134 159.255C260.855 158.662 260.716 157.984 260.716 157.222C260.716 156.446 260.858 155.762 261.143 155.168C261.432 154.572 261.833 154.106 262.347 153.771C262.864 153.433 263.467 153.264 264.156 153.264C264.693 153.264 265.177 153.364 265.608 153.562C266.039 153.761 266.392 154.04 266.667 154.398C266.942 154.756 267.113 155.173 267.179 155.651H266.006C265.916 155.303 265.717 154.994 265.409 154.726C265.104 154.454 264.693 154.318 264.176 154.318C263.719 154.318 263.318 154.437 262.973 154.676C262.632 154.911 262.365 155.245 262.173 155.675C261.984 156.103 261.889 156.605 261.889 157.182C261.889 157.772 261.982 158.286 262.168 158.723C262.357 159.161 262.622 159.5 262.963 159.742C263.308 159.984 263.712 160.105 264.176 160.105C264.481 160.105 264.758 160.052 265.006 159.946C265.255 159.84 265.465 159.688 265.638 159.489C265.81 159.29 265.933 159.051 266.006 158.773H267.179C267.113 159.223 266.949 159.629 266.687 159.991C266.428 160.349 266.085 160.634 265.658 160.846C265.233 161.055 264.74 161.159 264.176 161.159ZM271.996 161.159C271.307 161.159 270.702 160.995 270.182 160.667C269.665 160.339 269.26 159.88 268.969 159.29C268.68 158.7 268.536 158.01 268.536 157.222C268.536 156.426 268.68 155.732 268.969 155.138C269.26 154.545 269.665 154.085 270.182 153.756C270.702 153.428 271.307 153.264 271.996 153.264C272.686 153.264 273.289 153.428 273.806 153.756C274.326 154.085 274.731 154.545 275.019 155.138C275.311 155.732 275.457 156.426 275.457 157.222C275.457 158.01 275.311 158.7 275.019 159.29C274.731 159.88 274.326 160.339 273.806 160.667C273.289 160.995 272.686 161.159 271.996 161.159ZM271.996 160.105C272.52 160.105 272.951 159.971 273.289 159.702C273.627 159.434 273.877 159.081 274.04 158.643C274.202 158.206 274.283 157.732 274.283 157.222C274.283 156.711 274.202 156.236 274.04 155.795C273.877 155.354 273.627 154.998 273.289 154.726C272.951 154.454 272.52 154.318 271.996 154.318C271.473 154.318 271.042 154.454 270.704 154.726C270.366 154.998 270.116 155.354 269.953 155.795C269.791 156.236 269.71 156.711 269.71 157.222C269.71 157.732 269.791 158.206 269.953 158.643C270.116 159.081 270.366 159.434 270.704 159.702C271.042 159.971 271.473 160.105 271.996 160.105ZM277.248 161V153.364H278.381V154.557H278.481C278.64 154.149 278.897 153.833 279.251 153.607C279.606 153.379 280.032 153.264 280.529 153.264C281.033 153.264 281.452 153.379 281.787 153.607C282.125 153.833 282.388 154.149 282.577 154.557H282.657C282.852 154.162 283.146 153.849 283.537 153.617C283.928 153.382 284.397 153.264 284.944 153.264C285.626 153.264 286.185 153.478 286.619 153.906C287.053 154.33 287.27 154.991 287.27 155.889V161H286.097V155.889C286.097 155.326 285.943 154.923 285.635 154.681C285.327 154.439 284.964 154.318 284.546 154.318C284.009 154.318 283.593 154.481 283.298 154.805C283.003 155.127 282.856 155.535 282.856 156.028V161H281.662V155.77C281.662 155.336 281.522 154.986 281.24 154.721C280.958 154.452 280.595 154.318 280.151 154.318C279.846 154.318 279.561 154.399 279.296 154.562C279.034 154.724 278.822 154.95 278.66 155.238C278.501 155.523 278.421 155.853 278.421 156.227V161H277.248ZM292.617 161.159C291.882 161.159 291.247 160.997 290.713 160.672C290.183 160.344 289.774 159.886 289.485 159.3C289.2 158.71 289.058 158.024 289.058 157.241C289.058 156.459 289.2 155.77 289.485 155.173C289.774 154.573 290.175 154.106 290.688 153.771C291.205 153.433 291.809 153.264 292.498 153.264C292.896 153.264 293.289 153.33 293.676 153.463C294.064 153.596 294.417 153.811 294.735 154.109C295.053 154.404 295.307 154.795 295.496 155.283C295.685 155.77 295.779 156.37 295.779 157.082V157.58H289.893V156.565H294.586C294.586 156.134 294.5 155.75 294.328 155.412C294.159 155.074 293.917 154.807 293.602 154.612C293.29 154.416 292.922 154.318 292.498 154.318C292.031 154.318 291.626 154.434 291.285 154.666C290.947 154.895 290.687 155.193 290.504 155.561C290.322 155.929 290.231 156.323 290.231 156.744V157.42C290.231 157.997 290.33 158.486 290.529 158.887C290.731 159.285 291.012 159.588 291.369 159.797C291.727 160.002 292.143 160.105 292.617 160.105C292.926 160.105 293.204 160.062 293.453 159.976C293.704 159.886 293.922 159.754 294.104 159.578C294.286 159.399 294.427 159.177 294.526 158.912L295.66 159.23C295.541 159.615 295.34 159.953 295.058 160.244C294.777 160.533 294.429 160.758 294.014 160.92C293.6 161.08 293.134 161.159 292.617 161.159ZM300.666 161.159C299.95 161.159 299.334 160.99 298.817 160.652C298.3 160.314 297.902 159.848 297.624 159.255C297.345 158.662 297.206 157.984 297.206 157.222C297.206 156.446 297.349 155.762 297.634 155.168C297.922 154.572 298.323 154.106 298.837 153.771C299.354 153.433 299.957 153.264 300.646 153.264C301.183 153.264 301.667 153.364 302.098 153.562C302.529 153.761 302.882 154.04 303.157 154.398C303.432 154.756 303.603 155.173 303.669 155.651H302.496C302.406 155.303 302.208 154.994 301.899 154.726C301.594 154.454 301.183 154.318 300.666 154.318C300.209 154.318 299.808 154.437 299.463 154.676C299.122 154.911 298.855 155.245 298.663 155.675C298.474 156.103 298.379 156.605 298.379 157.182C298.379 157.772 298.472 158.286 298.658 158.723C298.847 159.161 299.112 159.5 299.453 159.742C299.798 159.984 300.202 160.105 300.666 160.105C300.971 160.105 301.248 160.052 301.497 159.946C301.745 159.84 301.956 159.688 302.128 159.489C302.3 159.29 302.423 159.051 302.496 158.773H303.669C303.603 159.223 303.439 159.629 303.177 159.991C302.919 160.349 302.575 160.634 302.148 160.846C301.724 161.055 301.23 161.159 300.666 161.159ZM300.11 160.96H301.084L301.004 161.358C301.263 161.398 301.5 161.505 301.715 161.681C301.931 161.86 302.039 162.143 302.039 162.531C302.039 162.959 301.861 163.307 301.507 163.575C301.155 163.847 300.637 163.983 299.95 163.983L299.911 163.207C300.219 163.207 300.474 163.158 300.676 163.058C300.882 162.962 300.985 162.8 300.985 162.571C300.985 162.342 300.9 162.187 300.731 162.104C300.562 162.021 300.289 161.964 299.911 161.935L300.11 160.96ZM307.632 161.179C307.148 161.179 306.709 161.088 306.314 160.906C305.92 160.72 305.606 160.453 305.374 160.105C305.142 159.754 305.026 159.33 305.026 158.832C305.026 158.395 305.113 158.04 305.285 157.768C305.457 157.493 305.688 157.278 305.976 157.122C306.264 156.966 306.583 156.85 306.931 156.774C307.282 156.695 307.635 156.632 307.99 156.585C308.454 156.526 308.83 156.481 309.118 156.451C309.41 156.418 309.622 156.363 309.754 156.287C309.89 156.211 309.958 156.078 309.958 155.889V155.849C309.958 155.359 309.824 154.978 309.556 154.706C309.29 154.434 308.888 154.298 308.347 154.298C307.787 154.298 307.348 154.421 307.03 154.666C306.712 154.911 306.488 155.173 306.359 155.452L305.245 155.054C305.444 154.59 305.709 154.229 306.041 153.97C306.375 153.708 306.74 153.526 307.134 153.423C307.532 153.317 307.923 153.264 308.308 153.264C308.553 153.264 308.835 153.294 309.153 153.354C309.474 153.41 309.784 153.528 310.083 153.707C310.384 153.886 310.634 154.156 310.833 154.517C311.032 154.878 311.132 155.362 311.132 155.969V161H309.958V159.966H309.899C309.819 160.132 309.686 160.309 309.501 160.498C309.315 160.687 309.068 160.848 308.76 160.98C308.452 161.113 308.076 161.179 307.632 161.179ZM307.811 160.125C308.275 160.125 308.666 160.034 308.984 159.852C309.305 159.669 309.547 159.434 309.71 159.146C309.875 158.857 309.958 158.554 309.958 158.236V157.162C309.909 157.222 309.799 157.276 309.63 157.326C309.464 157.372 309.272 157.414 309.053 157.45C308.838 157.483 308.628 157.513 308.422 157.54C308.22 157.563 308.056 157.583 307.93 157.599C307.625 157.639 307.34 157.704 307.075 157.793C306.813 157.879 306.601 158.01 306.438 158.186C306.279 158.358 306.2 158.594 306.2 158.892C306.2 159.3 306.351 159.608 306.652 159.817C306.957 160.022 307.343 160.125 307.811 160.125ZM313.273 161V153.364H314.407V154.517H314.486C314.625 154.139 314.877 153.833 315.242 153.597C315.606 153.362 316.017 153.244 316.475 153.244C316.561 153.244 316.669 153.246 316.798 153.249C316.927 153.253 317.025 153.258 317.091 153.264V154.457C317.051 154.447 316.96 154.433 316.818 154.413C316.679 154.389 316.531 154.378 316.375 154.378C316.004 154.378 315.673 154.456 315.381 154.612C315.093 154.764 314.864 154.976 314.695 155.248C314.529 155.516 314.446 155.823 314.446 156.168V161H313.273ZM325.522 161.159C324.806 161.159 324.189 160.99 323.672 160.652C323.155 160.314 322.758 159.848 322.479 159.255C322.201 158.662 322.062 157.984 322.062 157.222C322.062 156.446 322.204 155.762 322.489 155.168C322.778 154.572 323.179 154.106 323.692 153.771C324.209 153.433 324.813 153.264 325.502 153.264C326.039 153.264 326.523 153.364 326.954 153.562C327.385 153.761 327.738 154.04 328.013 154.398C328.288 154.756 328.458 155.173 328.525 155.651H327.351C327.262 155.303 327.063 154.994 326.755 154.726C326.45 154.454 326.039 154.318 325.522 154.318C325.064 154.318 324.663 154.437 324.319 154.676C323.977 154.911 323.711 155.245 323.518 155.675C323.329 156.103 323.235 156.605 323.235 157.182C323.235 157.772 323.328 158.286 323.513 158.723C323.702 159.161 323.967 159.5 324.309 159.742C324.653 159.984 325.058 160.105 325.522 160.105C325.827 160.105 326.104 160.052 326.352 159.946C326.601 159.84 326.811 159.688 326.983 159.489C327.156 159.29 327.278 159.051 327.351 158.773H328.525C328.458 159.223 328.294 159.629 328.032 159.991C327.774 160.349 327.431 160.634 327.003 160.846C326.579 161.055 326.085 161.159 325.522 161.159ZM333.342 161.159C332.653 161.159 332.048 160.995 331.528 160.667C331.01 160.339 330.606 159.88 330.314 159.29C330.026 158.7 329.882 158.01 329.882 157.222C329.882 156.426 330.026 155.732 330.314 155.138C330.606 154.545 331.01 154.085 331.528 153.756C332.048 153.428 332.653 153.264 333.342 153.264C334.032 153.264 334.635 153.428 335.152 153.756C335.672 154.085 336.077 154.545 336.365 155.138C336.657 155.732 336.802 156.426 336.802 157.222C336.802 158.01 336.657 158.7 336.365 159.29C336.077 159.88 335.672 160.339 335.152 160.667C334.635 160.995 334.032 161.159 333.342 161.159ZM333.342 160.105C333.866 160.105 334.297 159.971 334.635 159.702C334.973 159.434 335.223 159.081 335.385 158.643C335.548 158.206 335.629 157.732 335.629 157.222C335.629 156.711 335.548 156.236 335.385 155.795C335.223 155.354 334.973 154.998 334.635 154.726C334.297 154.454 333.866 154.318 333.342 154.318C332.818 154.318 332.388 154.454 332.05 154.726C331.711 154.998 331.461 155.354 331.299 155.795C331.136 156.236 331.055 156.711 331.055 157.222C331.055 157.732 331.136 158.206 331.299 158.643C331.461 159.081 331.711 159.434 332.05 159.702C332.388 159.971 332.818 160.105 333.342 160.105ZM338.593 161V153.364H339.727V154.557H339.826C339.985 154.149 340.242 153.833 340.597 153.607C340.952 153.379 341.377 153.264 341.875 153.264C342.378 153.264 342.798 153.379 343.132 153.607C343.471 153.833 343.734 154.149 343.923 154.557H344.002C344.198 154.162 344.491 153.849 344.882 153.617C345.274 153.382 345.743 153.264 346.289 153.264C346.972 153.264 347.531 153.478 347.965 153.906C348.399 154.33 348.616 154.991 348.616 155.889V161H347.443V155.889C347.443 155.326 347.289 154.923 346.98 154.681C346.672 154.439 346.309 154.318 345.892 154.318C345.355 154.318 344.939 154.481 344.644 154.805C344.349 155.127 344.201 155.535 344.201 156.028V161H343.008V155.77C343.008 155.336 342.867 154.986 342.586 154.721C342.304 154.452 341.941 154.318 341.497 154.318C341.192 154.318 340.907 154.399 340.642 154.562C340.38 154.724 340.168 154.95 340.005 155.238C339.846 155.523 339.767 155.853 339.767 156.227V161H338.593Z" fill="#3F4346"/>
<path d="M368.981 154.333L372.222 157.667L375.463 154.333H368.981Z" fill="#5D6164"/>
<rect x="388" y="141" width="136" height="30" stroke="#D5D9DC"/>
<path d="M399.321 161.179C398.837 161.179 398.398 161.088 398.004 160.906C397.609 160.72 397.296 160.453 397.064 160.105C396.832 159.754 396.716 159.33 396.716 158.832C396.716 158.395 396.802 158.04 396.974 157.768C397.147 157.493 397.377 157.278 397.665 157.122C397.954 156.966 398.272 156.85 398.62 156.774C398.971 156.695 399.324 156.632 399.679 156.585C400.143 156.526 400.519 156.481 400.808 156.451C401.099 156.418 401.311 156.363 401.444 156.287C401.58 156.211 401.648 156.078 401.648 155.889V155.849C401.648 155.359 401.513 154.978 401.245 154.706C400.98 154.434 400.577 154.298 400.037 154.298C399.477 154.298 399.038 154.421 398.719 154.666C398.401 154.911 398.178 155.173 398.048 155.452L396.935 155.054C397.134 154.59 397.399 154.229 397.73 153.97C398.065 153.708 398.429 153.526 398.824 153.423C399.222 153.317 399.613 153.264 399.997 153.264C400.242 153.264 400.524 153.294 400.842 153.354C401.164 153.41 401.474 153.528 401.772 153.707C402.074 153.886 402.324 154.156 402.523 154.517C402.722 154.878 402.821 155.362 402.821 155.969V161H401.648V159.966H401.588C401.509 160.132 401.376 160.309 401.19 160.498C401.005 160.687 400.758 160.848 400.45 160.98C400.141 161.113 399.765 161.179 399.321 161.179ZM399.5 160.125C399.964 160.125 400.355 160.034 400.673 159.852C400.995 159.669 401.237 159.434 401.399 159.146C401.565 158.857 401.648 158.554 401.648 158.236V157.162C401.598 157.222 401.489 157.276 401.32 157.326C401.154 157.372 400.962 157.414 400.743 157.45C400.527 157.483 400.317 157.513 400.112 157.54C399.909 157.563 399.745 157.583 399.619 157.599C399.314 157.639 399.029 157.704 398.764 157.793C398.502 157.879 398.29 158.01 398.128 158.186C397.969 158.358 397.889 158.594 397.889 158.892C397.889 159.3 398.04 159.608 398.342 159.817C398.647 160.022 399.033 160.125 399.5 160.125Z" fill="#3F4346"/>
<rect x="524" y="141" width="30" height="30" stroke="#D5D9DC"/>
<path d="M542 153.75V161.25H536V153.75H542ZM540.875 149.25H537.125L536.375 150H533.75V151.5H544.25V150H541.625L540.875 149.25ZM543.5 152.25H534.5V161.25C534.5 162.075 535.175 162.75 536 162.75H542C542.825 162.75 543.5 162.075 543.5 161.25V152.25Z" fill="#5D6164"/>
</g>
<rect x="132.5" y="141.5" width="421" height="29" rx="3.5" stroke="#D5D9DC"/>
<rect x="46" y="187" width="70" height="30" rx="4" fill="white"/>
<rect x="46" y="187" width="70" height="30" rx="4" stroke="#D5D9DC"/>
<path d="M55.233 207V196.818H61.3778V197.912H56.4659V201.352H61.0597V202.446H56.4659V205.906H61.4574V207H55.233Z" fill="#3F4346"/>
<path d="M96.9814 200.333L100.222 203.667L103.463 200.333H96.9814Z" fill="#5D6164"/>
<g clip-path="url(#clip2_6449_49750)">
<rect x="132" y="187" width="422" height="30" rx="4" fill="white"/>
<rect x="132" y="187" width="120" height="30" stroke="#D5D9DC"/>
<path d="M141.233 207V196.818H147.378V197.912H142.466V201.352H147.06V202.446H142.466V205.906H147.457V207H141.233ZM153.816 202.088V203.182H149.362V202.088H153.816ZM155.881 207V199.364H157.014V200.557H157.113C157.273 200.149 157.529 199.833 157.884 199.607C158.239 199.379 158.665 199.264 159.162 199.264C159.666 199.264 160.085 199.379 160.42 199.607C160.758 199.833 161.021 200.149 161.21 200.557H161.29C161.485 200.162 161.778 199.849 162.17 199.617C162.561 199.382 163.03 199.264 163.577 199.264C164.259 199.264 164.818 199.478 165.252 199.906C165.686 200.33 165.903 200.991 165.903 201.889V207H164.73V201.889C164.73 201.326 164.576 200.923 164.268 200.681C163.959 200.439 163.596 200.318 163.179 200.318C162.642 200.318 162.226 200.481 161.931 200.805C161.636 201.127 161.488 201.535 161.488 202.028V207H160.295V201.77C160.295 201.336 160.154 200.986 159.873 200.721C159.591 200.452 159.228 200.318 158.784 200.318C158.479 200.318 158.194 200.399 157.929 200.562C157.667 200.724 157.455 200.95 157.292 201.238C157.133 201.523 157.054 201.853 157.054 202.227V207H155.881ZM170.296 207.179C169.812 207.179 169.373 207.088 168.978 206.906C168.584 206.72 168.271 206.453 168.039 206.105C167.807 205.754 167.691 205.33 167.691 204.832C167.691 204.395 167.777 204.04 167.949 203.768C168.121 203.493 168.352 203.278 168.64 203.122C168.928 202.966 169.247 202.85 169.595 202.774C169.946 202.695 170.299 202.632 170.654 202.585C171.118 202.526 171.494 202.481 171.782 202.451C172.074 202.418 172.286 202.363 172.419 202.287C172.554 202.211 172.622 202.078 172.622 201.889V201.849C172.622 201.359 172.488 200.978 172.22 200.706C171.954 200.434 171.552 200.298 171.012 200.298C170.451 200.298 170.012 200.421 169.694 200.666C169.376 200.911 169.152 201.173 169.023 201.452L167.909 201.054C168.108 200.59 168.373 200.229 168.705 199.97C169.039 199.708 169.404 199.526 169.798 199.423C170.196 199.317 170.587 199.264 170.972 199.264C171.217 199.264 171.499 199.294 171.817 199.354C172.138 199.41 172.448 199.528 172.747 199.707C173.048 199.886 173.298 200.156 173.497 200.517C173.696 200.878 173.796 201.362 173.796 201.969V207H172.622V205.966H172.563C172.483 206.132 172.351 206.309 172.165 206.498C171.979 206.687 171.732 206.848 171.424 206.98C171.116 207.113 170.74 207.179 170.296 207.179ZM170.475 206.125C170.939 206.125 171.33 206.034 171.648 205.852C171.969 205.669 172.211 205.434 172.374 205.146C172.539 204.857 172.622 204.554 172.622 204.236V203.162C172.573 203.222 172.463 203.276 172.294 203.326C172.128 203.372 171.936 203.414 171.718 203.45C171.502 203.483 171.292 203.513 171.086 203.54C170.884 203.563 170.72 203.583 170.594 203.599C170.289 203.639 170.004 203.704 169.739 203.793C169.477 203.879 169.265 204.01 169.102 204.186C168.943 204.358 168.864 204.594 168.864 204.892C168.864 205.3 169.015 205.608 169.316 205.817C169.621 206.022 170.007 206.125 170.475 206.125ZM175.937 207V199.364H177.11V207H175.937ZM176.534 198.091C176.305 198.091 176.108 198.013 175.942 197.857C175.78 197.701 175.699 197.514 175.699 197.295C175.699 197.077 175.78 196.889 175.942 196.734C176.108 196.578 176.305 196.5 176.534 196.5C176.762 196.5 176.958 196.578 177.12 196.734C177.286 196.889 177.369 197.077 177.369 197.295C177.369 197.514 177.286 197.701 177.12 197.857C176.958 198.013 176.762 198.091 176.534 198.091ZM180.433 196.818V207H179.259V196.818H180.433Z" fill="#3F4346"/>
<path d="M232.981 200.333L236.222 203.667L239.463 200.333H232.981Z" fill="#5D6164"/>
<rect x="252" y="187" width="136" height="30" stroke="#D5D9DC"/>
<path d="M269.824 201.909C269.824 202.983 269.63 203.911 269.242 204.693C268.854 205.475 268.322 206.079 267.646 206.503C266.97 206.927 266.198 207.139 265.33 207.139C264.461 207.139 263.689 206.927 263.013 206.503C262.337 206.079 261.805 205.475 261.417 204.693C261.029 203.911 260.835 202.983 260.835 201.909C260.835 200.835 261.029 199.907 261.417 199.125C261.805 198.343 262.337 197.74 263.013 197.315C263.689 196.891 264.461 196.679 265.33 196.679C266.198 196.679 266.97 196.891 267.646 197.315C268.322 197.74 268.854 198.343 269.242 199.125C269.63 199.907 269.824 200.835 269.824 201.909ZM268.631 201.909C268.631 201.027 268.483 200.283 268.188 199.677C267.897 199.07 267.5 198.611 267 198.3C266.503 197.988 265.946 197.832 265.33 197.832C264.713 197.832 264.155 197.988 263.654 198.3C263.157 198.611 262.761 199.07 262.466 199.677C262.174 200.283 262.028 201.027 262.028 201.909C262.028 202.791 262.174 203.535 262.466 204.141C262.761 204.748 263.157 205.207 263.654 205.518C264.155 205.83 264.713 205.986 265.33 205.986C265.946 205.986 266.503 205.83 267 205.518C267.5 205.207 267.897 204.748 268.188 204.141C268.483 203.535 268.631 202.791 268.631 201.909ZM271.738 209.864V199.364H272.871V200.577H273.011C273.097 200.444 273.216 200.275 273.369 200.07C273.524 199.861 273.746 199.675 274.035 199.513C274.326 199.347 274.721 199.264 275.218 199.264C275.861 199.264 276.428 199.425 276.918 199.746C277.409 200.068 277.792 200.524 278.067 201.114C278.342 201.704 278.479 202.4 278.479 203.202C278.479 204.01 278.342 204.711 278.067 205.305C277.792 205.895 277.411 206.352 276.923 206.677C276.436 206.998 275.874 207.159 275.238 207.159C274.747 207.159 274.355 207.078 274.06 206.915C273.765 206.75 273.538 206.562 273.379 206.354C273.219 206.142 273.097 205.966 273.011 205.827H272.911V209.864H271.738ZM272.891 203.182C272.891 203.759 272.976 204.267 273.145 204.708C273.314 205.146 273.561 205.489 273.886 205.737C274.21 205.982 274.608 206.105 275.079 206.105C275.569 206.105 275.979 205.976 276.307 205.717C276.638 205.455 276.887 205.104 277.053 204.663C277.222 204.219 277.306 203.725 277.306 203.182C277.306 202.645 277.223 202.161 277.058 201.73C276.895 201.296 276.648 200.953 276.317 200.701C275.989 200.446 275.576 200.318 275.079 200.318C274.602 200.318 274.201 200.439 273.876 200.681C273.551 200.92 273.306 201.254 273.14 201.685C272.974 202.113 272.891 202.612 272.891 203.182ZM283.471 207.159C282.735 207.159 282.1 206.997 281.567 206.672C281.036 206.344 280.627 205.886 280.339 205.3C280.054 204.71 279.911 204.024 279.911 203.241C279.911 202.459 280.054 201.77 280.339 201.173C280.627 200.573 281.028 200.106 281.542 199.771C282.059 199.433 282.662 199.264 283.352 199.264C283.749 199.264 284.142 199.33 284.53 199.463C284.918 199.596 285.271 199.811 285.589 200.109C285.907 200.404 286.161 200.795 286.349 201.283C286.538 201.77 286.633 202.37 286.633 203.082V203.58H280.746V202.565H285.44C285.44 202.134 285.353 201.75 285.181 201.412C285.012 201.074 284.77 200.807 284.455 200.612C284.144 200.416 283.776 200.318 283.352 200.318C282.884 200.318 282.48 200.434 282.138 200.666C281.8 200.895 281.54 201.193 281.358 201.561C281.176 201.929 281.085 202.323 281.085 202.744V203.42C281.085 203.997 281.184 204.486 281.383 204.887C281.585 205.285 281.865 205.588 282.223 205.797C282.581 206.002 282.997 206.105 283.471 206.105C283.779 206.105 284.058 206.062 284.306 205.976C284.558 205.886 284.775 205.754 284.957 205.578C285.14 205.399 285.281 205.177 285.38 204.912L286.513 205.23C286.394 205.615 286.194 205.953 285.912 206.244C285.63 206.533 285.282 206.758 284.868 206.92C284.454 207.08 283.988 207.159 283.471 207.159ZM288.418 207V199.364H289.551V200.517H289.631C289.77 200.139 290.022 199.833 290.386 199.597C290.751 199.362 291.162 199.244 291.619 199.244C291.705 199.244 291.813 199.246 291.942 199.249C292.072 199.253 292.17 199.258 292.236 199.264V200.457C292.196 200.447 292.105 200.433 291.962 200.413C291.823 200.389 291.676 200.378 291.52 200.378C291.149 200.378 290.817 200.456 290.526 200.612C290.237 200.764 290.009 200.976 289.839 201.248C289.674 201.516 289.591 201.823 289.591 202.168V207H288.418ZM295.874 207.179C295.39 207.179 294.951 207.088 294.556 206.906C294.162 206.72 293.849 206.453 293.617 206.105C293.385 205.754 293.269 205.33 293.269 204.832C293.269 204.395 293.355 204.04 293.527 203.768C293.7 203.493 293.93 203.278 294.218 203.122C294.507 202.966 294.825 202.85 295.173 202.774C295.524 202.695 295.877 202.632 296.232 202.585C296.696 202.526 297.072 202.481 297.36 202.451C297.652 202.418 297.864 202.363 297.997 202.287C298.133 202.211 298.2 202.078 298.2 201.889V201.849C298.2 201.359 298.066 200.978 297.798 200.706C297.533 200.434 297.13 200.298 296.59 200.298C296.03 200.298 295.59 200.421 295.272 200.666C294.954 200.911 294.73 201.173 294.601 201.452L293.487 201.054C293.686 200.59 293.951 200.229 294.283 199.97C294.618 199.708 294.982 199.526 295.377 199.423C295.774 199.317 296.165 199.264 296.55 199.264C296.795 199.264 297.077 199.294 297.395 199.354C297.717 199.41 298.026 199.528 298.325 199.707C298.626 199.886 298.877 200.156 299.075 200.517C299.274 200.878 299.374 201.362 299.374 201.969V207H298.2V205.966H298.141C298.061 206.132 297.929 206.309 297.743 206.498C297.557 206.687 297.311 206.848 297.002 206.98C296.694 207.113 296.318 207.179 295.874 207.179ZM296.053 206.125C296.517 206.125 296.908 206.034 297.226 205.852C297.548 205.669 297.789 205.434 297.952 205.146C298.118 204.857 298.2 204.554 298.2 204.236V203.162C298.151 203.222 298.041 203.276 297.872 203.326C297.707 203.372 297.514 203.414 297.296 203.45C297.08 203.483 296.87 203.513 296.664 203.54C296.462 203.563 296.298 203.583 296.172 203.599C295.867 203.639 295.582 203.704 295.317 203.793C295.055 203.879 294.843 204.01 294.681 204.186C294.521 204.358 294.442 204.594 294.442 204.892C294.442 205.3 294.593 205.608 294.894 205.817C295.199 206.022 295.585 206.125 296.053 206.125ZM304.399 207.159C303.762 207.159 303.201 206.998 302.713 206.677C302.226 206.352 301.845 205.895 301.57 205.305C301.295 204.711 301.157 204.01 301.157 203.202C301.157 202.4 301.295 201.704 301.57 201.114C301.845 200.524 302.228 200.068 302.718 199.746C303.209 199.425 303.776 199.264 304.419 199.264C304.916 199.264 305.309 199.347 305.597 199.513C305.889 199.675 306.111 199.861 306.263 200.07C306.419 200.275 306.54 200.444 306.626 200.577H306.725V196.818H307.899V207H306.765V205.827H306.626C306.54 205.966 306.417 206.142 306.258 206.354C306.099 206.562 305.872 206.75 305.577 206.915C305.282 207.078 304.889 207.159 304.399 207.159ZM304.558 206.105C305.029 206.105 305.426 205.982 305.751 205.737C306.076 205.489 306.323 205.146 306.492 204.708C306.661 204.267 306.745 203.759 306.745 203.182C306.745 202.612 306.663 202.113 306.497 201.685C306.331 201.254 306.086 200.92 305.761 200.681C305.436 200.439 305.035 200.318 304.558 200.318C304.061 200.318 303.646 200.446 303.315 200.701C302.987 200.953 302.74 201.296 302.574 201.73C302.412 202.161 302.331 202.645 302.331 203.182C302.331 203.725 302.413 204.219 302.579 204.663C302.748 205.104 302.997 205.455 303.325 205.717C303.656 205.976 304.067 206.105 304.558 206.105ZM313.313 207.159C312.623 207.159 312.019 206.995 311.498 206.667C310.981 206.339 310.577 205.88 310.285 205.29C309.997 204.7 309.853 204.01 309.853 203.222C309.853 202.426 309.997 201.732 310.285 201.138C310.577 200.545 310.981 200.085 311.498 199.756C312.019 199.428 312.623 199.264 313.313 199.264C314.002 199.264 314.605 199.428 315.123 199.756C315.643 200.085 316.047 200.545 316.336 201.138C316.627 201.732 316.773 202.426 316.773 203.222C316.773 204.01 316.627 204.7 316.336 205.29C316.047 205.88 315.643 206.339 315.123 206.667C314.605 206.995 314.002 207.159 313.313 207.159ZM313.313 206.105C313.837 206.105 314.267 205.971 314.605 205.702C314.944 205.434 315.194 205.081 315.356 204.643C315.519 204.206 315.6 203.732 315.6 203.222C315.6 202.711 315.519 202.236 315.356 201.795C315.194 201.354 314.944 200.998 314.605 200.726C314.267 200.454 313.837 200.318 313.313 200.318C312.789 200.318 312.358 200.454 312.02 200.726C311.682 200.998 311.432 201.354 311.27 201.795C311.107 202.236 311.026 202.711 311.026 203.222C311.026 203.732 311.107 204.206 311.27 204.643C311.432 205.081 311.682 205.434 312.02 205.702C312.358 205.971 312.789 206.105 313.313 206.105ZM318.564 207V199.364H319.698V200.517H319.777C319.916 200.139 320.168 199.833 320.533 199.597C320.897 199.362 321.308 199.244 321.766 199.244C321.852 199.244 321.96 199.246 322.089 199.249C322.218 199.253 322.316 199.258 322.382 199.264V200.457C322.343 200.447 322.251 200.433 322.109 200.413C321.97 200.389 321.822 200.378 321.666 200.378C321.295 200.378 320.964 200.456 320.672 200.612C320.384 200.764 320.155 200.976 319.986 201.248C319.82 201.516 319.737 201.823 319.737 202.168V207H318.564Z" fill="#3F4346"/>
<path d="M368.981 200.333L372.222 203.667L375.463 200.333H368.981Z" fill="#5D6164"/>
<rect x="388" y="187" width="136" height="30" stroke="#D5D9DC"/>
<path d="M398.466 196.818V207H397.233V196.818H398.466ZM401.952 202.406V207H400.779V199.364H401.912V200.557H402.012C402.191 200.169 402.463 199.857 402.827 199.622C403.192 199.384 403.662 199.264 404.239 199.264C404.756 199.264 405.209 199.37 405.596 199.582C405.984 199.791 406.286 200.109 406.501 200.537C406.717 200.961 406.824 201.498 406.824 202.148V207H405.651V202.227C405.651 201.627 405.495 201.16 405.184 200.825C404.872 200.487 404.445 200.318 403.901 200.318C403.527 200.318 403.192 200.399 402.897 200.562C402.605 200.724 402.375 200.961 402.206 201.273C402.037 201.584 401.952 201.962 401.952 202.406ZM414.377 201.074L413.324 201.372C413.257 201.196 413.159 201.026 413.03 200.86C412.904 200.691 412.732 200.552 412.513 200.442C412.294 200.333 412.014 200.278 411.673 200.278C411.206 200.278 410.816 200.386 410.505 200.602C410.196 200.814 410.042 201.084 410.042 201.412C410.042 201.704 410.148 201.934 410.36 202.103C410.573 202.272 410.904 202.413 411.355 202.526L412.488 202.804C413.171 202.97 413.68 203.223 414.015 203.565C414.349 203.903 414.517 204.339 414.517 204.872C414.517 205.31 414.391 205.701 414.139 206.045C413.89 206.39 413.542 206.662 413.095 206.861C412.647 207.06 412.127 207.159 411.534 207.159C410.755 207.159 410.11 206.99 409.6 206.652C409.089 206.314 408.766 205.82 408.63 205.17L409.744 204.892C409.85 205.303 410.051 205.611 410.346 205.817C410.644 206.022 411.033 206.125 411.514 206.125C412.061 206.125 412.495 206.009 412.816 205.777C413.141 205.542 413.304 205.26 413.304 204.932C413.304 204.667 413.211 204.445 413.025 204.266C412.84 204.083 412.555 203.947 412.17 203.858L410.897 203.56C410.198 203.394 409.684 203.137 409.356 202.789C409.031 202.438 408.869 201.999 408.869 201.472C408.869 201.041 408.99 200.66 409.232 200.328C409.477 199.997 409.81 199.737 410.231 199.548C410.655 199.359 411.136 199.264 411.673 199.264C412.429 199.264 413.022 199.43 413.453 199.761C413.887 200.093 414.195 200.53 414.377 201.074ZM416.283 207V199.364H417.456V207H416.283ZM416.879 198.091C416.651 198.091 416.454 198.013 416.288 197.857C416.125 197.701 416.044 197.514 416.044 197.295C416.044 197.077 416.125 196.889 416.288 196.734C416.454 196.578 416.651 196.5 416.879 196.5C417.108 196.5 417.304 196.578 417.466 196.734C417.632 196.889 417.715 197.077 417.715 197.295C417.715 197.514 417.632 197.701 417.466 197.857C417.304 198.013 417.108 198.091 416.879 198.091ZM419.605 207V199.364H420.739V200.517H420.818C420.957 200.139 421.209 199.833 421.574 199.597C421.938 199.362 422.349 199.244 422.807 199.244C422.893 199.244 423.001 199.246 423.13 199.249C423.259 199.253 423.357 199.258 423.423 199.264V200.457C423.384 200.447 423.292 200.433 423.15 200.413C423.011 200.389 422.863 200.378 422.707 200.378C422.336 200.378 422.005 200.456 421.713 200.612C421.425 200.764 421.196 200.976 421.027 201.248C420.861 201.516 420.778 201.823 420.778 202.168V207H419.605ZM427.061 207.179C426.577 207.179 426.138 207.088 425.744 206.906C425.349 206.72 425.036 206.453 424.804 206.105C424.572 205.754 424.456 205.33 424.456 204.832C424.456 204.395 424.542 204.04 424.715 203.768C424.887 203.493 425.117 203.278 425.406 203.122C425.694 202.966 426.012 202.85 426.36 202.774C426.712 202.695 427.065 202.632 427.419 202.585C427.883 202.526 428.259 202.481 428.548 202.451C428.839 202.418 429.052 202.363 429.184 202.287C429.32 202.211 429.388 202.078 429.388 201.889V201.849C429.388 201.359 429.254 200.978 428.985 200.706C428.72 200.434 428.317 200.298 427.777 200.298C427.217 200.298 426.778 200.421 426.46 200.666C426.142 200.911 425.918 201.173 425.789 201.452L424.675 201.054C424.874 200.59 425.139 200.229 425.47 199.97C425.805 199.708 426.17 199.526 426.564 199.423C426.962 199.317 427.353 199.264 427.737 199.264C427.983 199.264 428.264 199.294 428.583 199.354C428.904 199.41 429.214 199.528 429.512 199.707C429.814 199.886 430.064 200.156 430.263 200.517C430.462 200.878 430.561 201.362 430.561 201.969V207H429.388V205.966H429.328C429.249 206.132 429.116 206.309 428.931 206.498C428.745 206.687 428.498 206.848 428.19 206.98C427.882 207.113 427.505 207.179 427.061 207.179ZM427.24 206.125C427.704 206.125 428.095 206.034 428.414 205.852C428.735 205.669 428.977 205.434 429.139 205.146C429.305 204.857 429.388 204.554 429.388 204.236V203.162C429.338 203.222 429.229 203.276 429.06 203.326C428.894 203.372 428.702 203.414 428.483 203.45C428.268 203.483 428.057 203.513 427.852 203.54C427.65 203.563 427.485 203.583 427.36 203.599C427.055 203.639 426.77 203.704 426.504 203.793C426.243 203.879 426.03 204.01 425.868 204.186C425.709 204.358 425.629 204.594 425.629 204.892C425.629 205.3 425.78 205.608 426.082 205.817C426.387 206.022 426.773 206.125 427.24 206.125ZM439.743 207.159C439.053 207.159 438.448 206.995 437.928 206.667C437.411 206.339 437.007 205.88 436.715 205.29C436.426 204.7 436.282 204.01 436.282 203.222C436.282 202.426 436.426 201.732 436.715 201.138C437.007 200.545 437.411 200.085 437.928 199.756C438.448 199.428 439.053 199.264 439.743 199.264C440.432 199.264 441.035 199.428 441.552 199.756C442.073 200.085 442.477 200.545 442.765 201.138C443.057 201.732 443.203 202.426 443.203 203.222C443.203 204.01 443.057 204.7 442.765 205.29C442.477 205.88 442.073 206.339 441.552 206.667C441.035 206.995 440.432 207.159 439.743 207.159ZM439.743 206.105C440.266 206.105 440.697 205.971 441.035 205.702C441.373 205.434 441.623 205.081 441.786 204.643C441.948 204.206 442.029 203.732 442.029 203.222C442.029 202.711 441.948 202.236 441.786 201.795C441.623 201.354 441.373 200.998 441.035 200.726C440.697 200.454 440.266 200.318 439.743 200.318C439.219 200.318 438.788 200.454 438.45 200.726C438.112 200.998 437.862 201.354 437.699 201.795C437.537 202.236 437.456 202.711 437.456 203.222C437.456 203.732 437.537 204.206 437.699 204.643C437.862 205.081 438.112 205.434 438.45 205.702C438.788 205.971 439.219 206.105 439.743 206.105ZM455.176 199.364L452.352 207H451.159L448.335 199.364H449.607L451.715 205.449H451.795L453.903 199.364H455.176ZM458.739 207.179C458.255 207.179 457.816 207.088 457.422 206.906C457.027 206.72 456.714 206.453 456.482 206.105C456.25 205.754 456.134 205.33 456.134 204.832C456.134 204.395 456.22 204.04 456.392 203.768C456.565 203.493 456.795 203.278 457.083 203.122C457.372 202.966 457.69 202.85 458.038 202.774C458.389 202.695 458.742 202.632 459.097 202.585C459.561 202.526 459.937 202.481 460.225 202.451C460.517 202.418 460.729 202.363 460.862 202.287C460.998 202.211 461.066 202.078 461.066 201.889V201.849C461.066 201.359 460.931 200.978 460.663 200.706C460.398 200.434 459.995 200.298 459.455 200.298C458.895 200.298 458.456 200.421 458.137 200.666C457.819 200.911 457.596 201.173 457.466 201.452L456.353 201.054C456.551 200.59 456.817 200.229 457.148 199.97C457.483 199.708 457.847 199.526 458.242 199.423C458.64 199.317 459.031 199.264 459.415 199.264C459.66 199.264 459.942 199.294 460.26 199.354C460.582 199.41 460.892 199.528 461.19 199.707C461.492 199.886 461.742 200.156 461.941 200.517C462.14 200.878 462.239 201.362 462.239 201.969V207H461.066V205.966H461.006C460.926 206.132 460.794 206.309 460.608 206.498C460.423 206.687 460.176 206.848 459.868 206.98C459.559 207.113 459.183 207.179 458.739 207.179ZM458.918 206.125C459.382 206.125 459.773 206.034 460.091 205.852C460.413 205.669 460.655 205.434 460.817 205.146C460.983 204.857 461.066 204.554 461.066 204.236V203.162C461.016 203.222 460.907 203.276 460.738 203.326C460.572 203.372 460.38 203.414 460.161 203.45C459.945 203.483 459.735 203.513 459.529 203.54C459.327 203.563 459.163 203.583 459.037 203.599C458.732 203.639 458.447 203.704 458.182 203.793C457.92 203.879 457.708 204.01 457.546 204.186C457.387 204.358 457.307 204.594 457.307 204.892C457.307 205.3 457.458 205.608 457.76 205.817C458.065 206.022 458.451 206.125 458.918 206.125ZM465.554 196.818V207H464.381V196.818H465.554ZM470.805 207.159C470.116 207.159 469.511 206.995 468.99 206.667C468.473 206.339 468.069 205.88 467.777 205.29C467.489 204.7 467.345 204.01 467.345 203.222C467.345 202.426 467.489 201.732 467.777 201.138C468.069 200.545 468.473 200.085 468.99 199.756C469.511 199.428 470.116 199.264 470.805 199.264C471.494 199.264 472.098 199.428 472.615 199.756C473.135 200.085 473.539 200.545 473.828 201.138C474.119 201.732 474.265 202.426 474.265 203.222C474.265 204.01 474.119 204.7 473.828 205.29C473.539 205.88 473.135 206.339 472.615 206.667C472.098 206.995 471.494 207.159 470.805 207.159ZM470.805 206.105C471.329 206.105 471.76 205.971 472.098 205.702C472.436 205.434 472.686 205.081 472.848 204.643C473.011 204.206 473.092 203.732 473.092 203.222C473.092 202.711 473.011 202.236 472.848 201.795C472.686 201.354 472.436 200.998 472.098 200.726C471.76 200.454 471.329 200.318 470.805 200.318C470.281 200.318 469.85 200.454 469.512 200.726C469.174 200.998 468.924 201.354 468.762 201.795C468.599 202.236 468.518 202.711 468.518 203.222C468.518 203.732 468.599 204.206 468.762 204.643C468.924 205.081 469.174 205.434 469.512 205.702C469.85 205.971 470.281 206.105 470.805 206.105ZM476.056 207V199.364H477.19V200.517H477.269C477.409 200.139 477.66 199.833 478.025 199.597C478.39 199.362 478.801 199.244 479.258 199.244C479.344 199.244 479.452 199.246 479.581 199.249C479.71 199.253 479.808 199.258 479.874 199.264V200.457C479.835 200.447 479.744 200.433 479.601 200.413C479.462 200.389 479.314 200.378 479.159 200.378C478.787 200.378 478.456 200.456 478.164 200.612C477.876 200.764 477.647 200.976 477.478 201.248C477.312 201.516 477.23 201.823 477.23 202.168V207H476.056Z" fill="#8F9396"/>
<rect x="524" y="187" width="30" height="30" stroke="#D5D9DC"/>
<path d="M542 199.75V207.25H536V199.75H542ZM540.875 195.25H537.125L536.375 196H533.75V197.5H544.25V196H541.625L540.875 195.25ZM543.5 198.25H534.5V207.25C534.5 208.075 535.175 208.75 536 208.75H542C542.825 208.75 543.5 208.075 543.5 207.25V198.25Z" fill="#5D6164"/>
</g>
<rect x="132.5" y="187.5" width="421" height="29" rx="3.5" stroke="#D5D9DC"/>
<rect x="175" y="313" width="197" height="40" rx="4" fill="#7B7F82" fill-opacity="0.1"/>
<path d="M201.25 333.75H196.75V338.25H195.25V333.75H190.75V332.25H195.25V327.75H196.75V332.25H201.25V333.75Z" fill="#3F4346"/>
<path d="M211.261 339H209.398L213.585 327.364H215.614L219.801 339H217.938L214.648 329.477H214.557L211.261 339ZM211.574 334.443H217.619V335.92H211.574V334.443ZM224.472 339.17C223.767 339.17 223.138 338.991 222.585 338.631C222.036 338.267 221.604 337.75 221.29 337.08C220.979 336.405 220.824 335.597 220.824 334.653C220.824 333.71 220.981 332.903 221.295 332.233C221.614 331.562 222.049 331.049 222.602 330.693C223.155 330.337 223.782 330.159 224.483 330.159C225.025 330.159 225.46 330.25 225.79 330.432C226.123 330.61 226.381 330.818 226.562 331.057C226.748 331.295 226.892 331.506 226.994 331.688H227.097V327.364H228.795V339H227.136V337.642H226.994C226.892 337.828 226.744 338.04 226.551 338.278C226.362 338.517 226.1 338.725 225.767 338.903C225.434 339.081 225.002 339.17 224.472 339.17ZM224.847 337.722C225.335 337.722 225.748 337.593 226.085 337.335C226.426 337.074 226.684 336.712 226.858 336.25C227.036 335.788 227.125 335.25 227.125 334.636C227.125 334.03 227.038 333.5 226.864 333.045C226.689 332.591 226.434 332.237 226.097 331.983C225.759 331.729 225.343 331.602 224.847 331.602C224.335 331.602 223.909 331.735 223.568 332C223.227 332.265 222.97 332.627 222.795 333.085C222.625 333.544 222.54 334.061 222.54 334.636C222.54 335.22 222.627 335.744 222.801 336.21C222.975 336.676 223.233 337.045 223.574 337.318C223.919 337.587 224.343 337.722 224.847 337.722ZM231.22 339V330.273H232.919V339H231.22ZM232.078 328.926C231.783 328.926 231.529 328.828 231.317 328.631C231.108 328.43 231.004 328.191 231.004 327.915C231.004 327.634 231.108 327.396 231.317 327.199C231.529 326.998 231.783 326.898 232.078 326.898C232.374 326.898 232.625 326.998 232.834 327.199C233.046 327.396 233.152 327.634 233.152 327.915C233.152 328.191 233.046 328.43 232.834 328.631C232.625 328.828 232.374 328.926 232.078 328.926ZM238.881 339.176C238.036 339.176 237.309 338.985 236.699 338.602C236.093 338.216 235.627 337.684 235.301 337.006C234.975 336.328 234.812 335.551 234.812 334.676C234.812 333.79 234.979 333.008 235.312 332.33C235.646 331.648 236.116 331.116 236.722 330.733C237.328 330.35 238.042 330.159 238.864 330.159C239.527 330.159 240.117 330.282 240.636 330.528C241.155 330.771 241.574 331.112 241.892 331.551C242.214 331.991 242.405 332.504 242.466 333.091H240.812C240.722 332.682 240.513 332.33 240.188 332.034C239.866 331.739 239.434 331.591 238.892 331.591C238.419 331.591 238.004 331.716 237.648 331.966C237.295 332.212 237.021 332.564 236.824 333.023C236.627 333.477 236.528 334.015 236.528 334.636C236.528 335.273 236.625 335.822 236.818 336.284C237.011 336.746 237.284 337.104 237.636 337.358C237.992 337.612 238.411 337.739 238.892 337.739C239.214 337.739 239.506 337.68 239.767 337.562C240.032 337.441 240.254 337.269 240.432 337.045C240.614 336.822 240.741 336.553 240.812 336.239H242.466C242.405 336.803 242.222 337.307 241.915 337.75C241.608 338.193 241.197 338.542 240.682 338.795C240.17 339.049 239.57 339.176 238.881 339.176ZM244.283 339V330.273H245.982V339H244.283ZM245.141 328.926C244.845 328.926 244.591 328.828 244.379 328.631C244.171 328.43 244.067 328.191 244.067 327.915C244.067 327.634 244.171 327.396 244.379 327.199C244.591 326.998 244.845 326.898 245.141 326.898C245.436 326.898 245.688 326.998 245.896 327.199C246.108 327.396 246.214 327.634 246.214 327.915C246.214 328.191 246.108 328.43 245.896 328.631C245.688 328.828 245.436 328.926 245.141 328.926ZM251.943 339.176C251.125 339.176 250.411 338.989 249.801 338.614C249.191 338.239 248.718 337.714 248.381 337.04C248.044 336.366 247.875 335.578 247.875 334.676C247.875 333.771 248.044 332.979 248.381 332.301C248.718 331.623 249.191 331.097 249.801 330.722C250.411 330.347 251.125 330.159 251.943 330.159C252.761 330.159 253.475 330.347 254.085 330.722C254.695 331.097 255.169 331.623 255.506 332.301C255.843 332.979 256.011 333.771 256.011 334.676C256.011 335.578 255.843 336.366 255.506 337.04C255.169 337.714 254.695 338.239 254.085 338.614C253.475 338.989 252.761 339.176 251.943 339.176ZM251.949 337.75C252.479 337.75 252.919 337.61 253.267 337.33C253.616 337.049 253.873 336.676 254.04 336.21C254.21 335.744 254.295 335.231 254.295 334.67C254.295 334.114 254.21 333.602 254.04 333.136C253.873 332.667 253.616 332.29 253.267 332.006C252.919 331.722 252.479 331.58 251.949 331.58C251.415 331.58 250.972 331.722 250.619 332.006C250.271 332.29 250.011 332.667 249.841 333.136C249.674 333.602 249.591 334.114 249.591 334.67C249.591 335.231 249.674 335.744 249.841 336.21C250.011 336.676 250.271 337.049 250.619 337.33C250.972 337.61 251.415 337.75 251.949 337.75ZM259.607 333.818V339H257.908V330.273H259.538V331.693H259.646C259.847 331.231 260.161 330.86 260.589 330.58C261.021 330.299 261.565 330.159 262.22 330.159C262.815 330.159 263.336 330.284 263.783 330.534C264.23 330.78 264.576 331.148 264.822 331.636C265.069 332.125 265.192 332.729 265.192 333.449V339H263.493V333.653C263.493 333.021 263.328 332.527 262.999 332.17C262.669 331.811 262.216 331.631 261.641 331.631C261.247 331.631 260.896 331.716 260.589 331.886C260.286 332.057 260.046 332.307 259.868 332.636C259.694 332.962 259.607 333.356 259.607 333.818ZM270.01 339.193C269.457 339.193 268.957 339.091 268.51 338.886C268.063 338.678 267.709 338.377 267.447 337.983C267.19 337.589 267.061 337.106 267.061 336.534C267.061 336.042 267.156 335.636 267.345 335.318C267.535 335 267.79 334.748 268.112 334.562C268.434 334.377 268.794 334.237 269.192 334.142C269.589 334.047 269.995 333.975 270.408 333.926C270.93 333.866 271.355 333.816 271.68 333.778C272.006 333.737 272.243 333.67 272.391 333.58C272.538 333.489 272.612 333.341 272.612 333.136V333.097C272.612 332.6 272.472 332.216 272.192 331.943C271.915 331.67 271.502 331.534 270.953 331.534C270.381 331.534 269.93 331.661 269.601 331.915C269.275 332.165 269.05 332.443 268.925 332.75L267.328 332.386C267.518 331.856 267.794 331.428 268.158 331.102C268.525 330.773 268.947 330.534 269.425 330.386C269.902 330.235 270.404 330.159 270.93 330.159C271.279 330.159 271.648 330.201 272.038 330.284C272.432 330.364 272.8 330.511 273.141 330.727C273.485 330.943 273.768 331.252 273.987 331.653C274.207 332.051 274.317 332.568 274.317 333.205V339H272.658V337.807H272.589C272.48 338.027 272.315 338.242 272.095 338.455C271.875 338.667 271.593 338.843 271.249 338.983C270.904 339.123 270.491 339.193 270.01 339.193ZM270.379 337.83C270.849 337.83 271.25 337.737 271.584 337.551C271.921 337.366 272.177 337.123 272.351 336.824C272.529 336.521 272.618 336.197 272.618 335.852V334.727C272.557 334.788 272.44 334.845 272.266 334.898C272.095 334.947 271.9 334.991 271.68 335.028C271.461 335.062 271.247 335.095 271.038 335.125C270.83 335.152 270.656 335.174 270.516 335.193C270.186 335.235 269.885 335.305 269.612 335.403C269.343 335.502 269.127 335.644 268.964 335.83C268.805 336.011 268.726 336.254 268.726 336.557C268.726 336.977 268.881 337.295 269.192 337.511C269.502 337.723 269.898 337.83 270.379 337.83ZM276.58 339V330.273H278.222V331.659H278.312C278.472 331.189 278.752 330.82 279.153 330.551C279.559 330.278 280.017 330.142 280.528 330.142C280.634 330.142 280.759 330.146 280.903 330.153C281.051 330.161 281.167 330.17 281.25 330.182V331.807C281.182 331.788 281.061 331.767 280.886 331.744C280.712 331.718 280.538 331.705 280.364 331.705C279.962 331.705 279.604 331.79 279.29 331.96C278.979 332.127 278.733 332.36 278.551 332.659C278.369 332.955 278.278 333.292 278.278 333.67V339H276.58ZM290.631 339.176C289.786 339.176 289.059 338.985 288.449 338.602C287.843 338.216 287.377 337.684 287.051 337.006C286.725 336.328 286.562 335.551 286.562 334.676C286.562 333.79 286.729 333.008 287.062 332.33C287.396 331.648 287.866 331.116 288.472 330.733C289.078 330.35 289.792 330.159 290.614 330.159C291.277 330.159 291.867 330.282 292.386 330.528C292.905 330.771 293.324 331.112 293.642 331.551C293.964 331.991 294.155 332.504 294.216 333.091H292.562C292.472 332.682 292.263 332.33 291.938 332.034C291.616 331.739 291.184 331.591 290.642 331.591C290.169 331.591 289.754 331.716 289.398 331.966C289.045 332.212 288.771 332.564 288.574 333.023C288.377 333.477 288.278 334.015 288.278 334.636C288.278 335.273 288.375 335.822 288.568 336.284C288.761 336.746 289.034 337.104 289.386 337.358C289.742 337.612 290.161 337.739 290.642 337.739C290.964 337.739 291.256 337.68 291.517 337.562C291.782 337.441 292.004 337.269 292.182 337.045C292.364 336.822 292.491 336.553 292.562 336.239H294.216C294.155 336.803 293.972 337.307 293.665 337.75C293.358 338.193 292.947 338.542 292.432 338.795C291.92 339.049 291.32 339.176 290.631 339.176ZM299.709 339.176C298.891 339.176 298.177 338.989 297.567 338.614C296.957 338.239 296.483 337.714 296.146 337.04C295.809 336.366 295.641 335.578 295.641 334.676C295.641 333.771 295.809 332.979 296.146 332.301C296.483 331.623 296.957 331.097 297.567 330.722C298.177 330.347 298.891 330.159 299.709 330.159C300.527 330.159 301.241 330.347 301.851 330.722C302.461 331.097 302.934 331.623 303.271 332.301C303.608 332.979 303.777 333.771 303.777 334.676C303.777 335.578 303.608 336.366 303.271 337.04C302.934 337.714 302.461 338.239 301.851 338.614C301.241 338.989 300.527 339.176 299.709 339.176ZM299.714 337.75C300.245 337.75 300.684 337.61 301.033 337.33C301.381 337.049 301.639 336.676 301.805 336.21C301.976 335.744 302.061 335.231 302.061 334.67C302.061 334.114 301.976 333.602 301.805 333.136C301.639 332.667 301.381 332.29 301.033 332.006C300.684 331.722 300.245 331.58 299.714 331.58C299.18 331.58 298.737 331.722 298.385 332.006C298.036 332.29 297.777 332.667 297.607 333.136C297.44 333.602 297.357 334.114 297.357 334.67C297.357 335.231 297.44 335.744 297.607 336.21C297.777 336.676 298.036 337.049 298.385 337.33C298.737 337.61 299.18 337.75 299.714 337.75ZM307.372 333.818V339H305.673V330.273H307.304V331.693H307.412C307.613 331.231 307.927 330.86 308.355 330.58C308.787 330.299 309.33 330.159 309.986 330.159C310.58 330.159 311.101 330.284 311.548 330.534C311.995 330.78 312.342 331.148 312.588 331.636C312.834 332.125 312.957 332.729 312.957 333.449V339H311.259V333.653C311.259 333.021 311.094 332.527 310.764 332.17C310.435 331.811 309.982 331.631 309.406 331.631C309.012 331.631 308.662 331.716 308.355 331.886C308.052 332.057 307.812 332.307 307.634 332.636C307.459 332.962 307.372 333.356 307.372 333.818ZM318.503 339.17C317.798 339.17 317.17 338.991 316.616 338.631C316.067 338.267 315.635 337.75 315.321 337.08C315.01 336.405 314.855 335.597 314.855 334.653C314.855 333.71 315.012 332.903 315.327 332.233C315.645 331.562 316.08 331.049 316.634 330.693C317.187 330.337 317.813 330.159 318.514 330.159C319.056 330.159 319.491 330.25 319.821 330.432C320.154 330.61 320.412 330.818 320.594 331.057C320.779 331.295 320.923 331.506 321.026 331.688H321.128V327.364H322.827V339H321.168V337.642H321.026C320.923 337.828 320.776 338.04 320.582 338.278C320.393 338.517 320.132 338.725 319.798 338.903C319.465 339.081 319.033 339.17 318.503 339.17ZM318.878 337.722C319.366 337.722 319.779 337.593 320.116 337.335C320.457 337.074 320.715 336.712 320.889 336.25C321.067 335.788 321.156 335.25 321.156 334.636C321.156 334.03 321.069 333.5 320.895 333.045C320.721 332.591 320.465 332.237 320.128 331.983C319.791 331.729 319.374 331.602 318.878 331.602C318.366 331.602 317.94 331.735 317.599 332C317.259 332.265 317.001 332.627 316.827 333.085C316.656 333.544 316.571 334.061 316.571 334.636C316.571 335.22 316.658 335.744 316.832 336.21C317.007 336.676 317.264 337.045 317.605 337.318C317.95 337.587 318.374 337.722 318.878 337.722ZM325.251 339V330.273H326.95V339H325.251ZM326.109 328.926C325.814 328.926 325.56 328.828 325.348 328.631C325.14 328.43 325.036 328.191 325.036 327.915C325.036 327.634 325.14 327.396 325.348 327.199C325.56 326.998 325.814 326.898 326.109 326.898C326.405 326.898 326.657 326.998 326.865 327.199C327.077 327.396 327.183 327.634 327.183 327.915C327.183 328.191 327.077 328.43 326.865 328.631C326.657 328.828 326.405 328.926 326.109 328.926ZM332.912 339.176C332.067 339.176 331.34 338.985 330.73 338.602C330.124 338.216 329.658 337.684 329.332 337.006C329.007 336.328 328.844 335.551 328.844 334.676C328.844 333.79 329.01 333.008 329.344 332.33C329.677 331.648 330.147 331.116 330.753 330.733C331.359 330.35 332.073 330.159 332.895 330.159C333.558 330.159 334.149 330.282 334.668 330.528C335.187 330.771 335.605 331.112 335.923 331.551C336.245 331.991 336.437 332.504 336.497 333.091H334.844C334.753 332.682 334.545 332.33 334.219 332.034C333.897 331.739 333.465 331.591 332.923 331.591C332.45 331.591 332.035 331.716 331.679 331.966C331.327 332.212 331.052 332.564 330.855 333.023C330.658 333.477 330.56 334.015 330.56 334.636C330.56 335.273 330.656 335.822 330.849 336.284C331.043 336.746 331.315 337.104 331.668 337.358C332.024 337.612 332.442 337.739 332.923 337.739C333.245 337.739 333.537 337.68 333.798 337.562C334.063 337.441 334.285 337.269 334.463 337.045C334.645 336.822 334.772 336.553 334.844 336.239H336.497C336.437 336.803 336.253 337.307 335.946 337.75C335.639 338.193 335.228 338.542 334.713 338.795C334.202 339.049 333.601 339.176 332.912 339.176ZM332.298 338.955H333.412L333.321 339.42C333.651 339.473 333.938 339.606 334.185 339.818C334.431 340.03 334.554 340.35 334.554 340.778C334.558 341.29 334.336 341.705 333.889 342.023C333.446 342.341 332.804 342.5 331.963 342.5L331.929 341.551C332.323 341.551 332.641 341.494 332.884 341.381C333.13 341.267 333.255 341.083 333.259 340.83C333.262 340.576 333.168 340.398 332.974 340.295C332.785 340.193 332.482 340.121 332.065 340.08L332.298 338.955ZM340.854 339.193C340.301 339.193 339.801 339.091 339.354 338.886C338.907 338.678 338.553 338.377 338.291 337.983C338.034 337.589 337.905 337.106 337.905 336.534C337.905 336.042 338 335.636 338.189 335.318C338.378 335 338.634 334.748 338.956 334.562C339.278 334.377 339.638 334.237 340.036 334.142C340.433 334.047 340.839 333.975 341.251 333.926C341.774 333.866 342.198 333.816 342.524 333.778C342.85 333.737 343.087 333.67 343.234 333.58C343.382 333.489 343.456 333.341 343.456 333.136V333.097C343.456 332.6 343.316 332.216 343.036 331.943C342.759 331.67 342.346 331.534 341.797 331.534C341.225 331.534 340.774 331.661 340.445 331.915C340.119 332.165 339.893 332.443 339.768 332.75L338.172 332.386C338.361 331.856 338.638 331.428 339.001 331.102C339.369 330.773 339.791 330.534 340.268 330.386C340.746 330.235 341.248 330.159 341.774 330.159C342.123 330.159 342.492 330.201 342.882 330.284C343.276 330.364 343.643 330.511 343.984 330.727C344.329 330.943 344.611 331.252 344.831 331.653C345.051 332.051 345.161 332.568 345.161 333.205V339H343.501V337.807H343.433C343.323 338.027 343.159 338.242 342.939 338.455C342.719 338.667 342.437 338.843 342.092 338.983C341.748 339.123 341.335 339.193 340.854 339.193ZM341.223 337.83C341.693 337.83 342.094 337.737 342.428 337.551C342.765 337.366 343.02 337.123 343.195 336.824C343.373 336.521 343.462 336.197 343.462 335.852V334.727C343.401 334.788 343.284 334.845 343.109 334.898C342.939 334.947 342.744 334.991 342.524 335.028C342.304 335.062 342.09 335.095 341.882 335.125C341.674 335.152 341.5 335.174 341.359 335.193C341.03 335.235 340.729 335.305 340.456 335.403C340.187 335.502 339.971 335.644 339.808 335.83C339.649 336.011 339.57 336.254 339.57 336.557C339.57 336.977 339.725 337.295 340.036 337.511C340.346 337.723 340.742 337.83 341.223 337.83ZM340.155 329.216L339.013 329.182C339.013 328.553 339.181 328.051 339.518 327.676C339.859 327.301 340.28 327.114 340.78 327.114C341.011 327.114 341.214 327.153 341.388 327.233C341.562 327.309 341.725 327.398 341.876 327.5C342.032 327.598 342.185 327.687 342.337 327.767C342.492 327.843 342.664 327.881 342.854 327.881C343.073 327.881 343.251 327.797 343.388 327.631C343.528 327.464 343.598 327.258 343.598 327.011L344.717 327.085C344.717 327.718 344.547 328.216 344.206 328.58C343.865 328.939 343.446 329.121 342.95 329.125C342.681 329.125 342.458 329.087 342.28 329.011C342.106 328.932 341.95 328.843 341.814 328.744C341.678 328.642 341.537 328.551 341.393 328.472C341.25 328.392 341.077 328.352 340.876 328.352C340.664 328.352 340.49 328.436 340.354 328.602C340.221 328.765 340.155 328.97 340.155 329.216ZM351.099 339.176C350.281 339.176 349.567 338.989 348.957 338.614C348.348 338.239 347.874 337.714 347.537 337.04C347.2 336.366 347.031 335.578 347.031 334.676C347.031 333.771 347.2 332.979 347.537 332.301C347.874 331.623 348.348 331.097 348.957 330.722C349.567 330.347 350.281 330.159 351.099 330.159C351.918 330.159 352.632 330.347 353.241 330.722C353.851 331.097 354.325 331.623 354.662 332.301C354.999 332.979 355.168 333.771 355.168 334.676C355.168 335.578 354.999 336.366 354.662 337.04C354.325 337.714 353.851 338.239 353.241 338.614C352.632 338.989 351.918 339.176 351.099 339.176ZM351.105 337.75C351.635 337.75 352.075 337.61 352.423 337.33C352.772 337.049 353.029 336.676 353.196 336.21C353.366 335.744 353.452 335.231 353.452 334.67C353.452 334.114 353.366 333.602 353.196 333.136C353.029 332.667 352.772 332.29 352.423 332.006C352.075 331.722 351.635 331.58 351.105 331.58C350.571 331.58 350.128 331.722 349.776 332.006C349.427 332.29 349.168 332.667 348.997 333.136C348.83 333.602 348.747 334.114 348.747 334.67C348.747 335.231 348.83 335.744 348.997 336.21C349.168 336.676 349.427 337.049 349.776 337.33C350.128 337.61 350.571 337.75 351.105 337.75Z" fill="#3F4346"/>
<rect x="132.5" y="89.5" width="142" height="39" rx="3.5" stroke="#1E75BA"/>
<path d="M151.5 113.5H154.5V112H151.5V113.5ZM146.25 104.5V106H159.75V104.5H146.25ZM148.5 109.75H157.5V108.25H148.5V109.75Z" fill="#1E75BA"/>
<path d="M168.261 115H166.398L170.585 103.364H172.614L176.801 115H174.938L171.648 105.477H171.557L168.261 115ZM168.574 110.443H174.619V111.92H168.574V110.443ZM178.345 118.273V106.273H180.004V107.688H180.146C180.245 107.506 180.387 107.295 180.572 107.057C180.758 106.818 181.016 106.61 181.345 106.432C181.675 106.25 182.11 106.159 182.652 106.159C183.357 106.159 183.985 106.337 184.538 106.693C185.091 107.049 185.525 107.562 185.839 108.233C186.158 108.903 186.317 109.71 186.317 110.653C186.317 111.597 186.16 112.405 185.845 113.08C185.531 113.75 185.099 114.267 184.55 114.631C184 114.991 183.374 115.17 182.669 115.17C182.139 115.17 181.705 115.081 181.368 114.903C181.035 114.725 180.773 114.517 180.584 114.278C180.394 114.04 180.249 113.828 180.146 113.642H180.044V118.273H178.345ZM180.01 110.636C180.01 111.25 180.099 111.788 180.277 112.25C180.455 112.712 180.713 113.074 181.05 113.335C181.387 113.593 181.8 113.722 182.288 113.722C182.796 113.722 183.22 113.587 183.561 113.318C183.902 113.045 184.16 112.676 184.334 112.21C184.512 111.744 184.601 111.22 184.601 110.636C184.601 110.061 184.514 109.544 184.339 109.085C184.169 108.627 183.911 108.265 183.567 108C183.226 107.735 182.8 107.602 182.288 107.602C181.796 107.602 181.379 107.729 181.038 107.983C180.701 108.237 180.446 108.591 180.271 109.045C180.097 109.5 180.01 110.03 180.01 110.636ZM189.919 103.364V115H188.22V103.364H189.919ZM192.205 115V106.273H193.903V115H192.205ZM193.062 104.926C192.767 104.926 192.513 104.828 192.301 104.631C192.093 104.43 191.989 104.191 191.989 103.915C191.989 103.634 192.093 103.396 192.301 103.199C192.513 102.998 192.767 102.898 193.062 102.898C193.358 102.898 193.61 102.998 193.818 103.199C194.03 103.396 194.136 103.634 194.136 103.915C194.136 104.191 194.03 104.43 193.818 104.631C193.61 104.828 193.358 104.926 193.062 104.926ZM199.865 115.176C199.02 115.176 198.293 114.985 197.683 114.602C197.077 114.216 196.611 113.684 196.286 113.006C195.96 112.328 195.797 111.551 195.797 110.676C195.797 109.79 195.964 109.008 196.297 108.33C196.63 107.648 197.1 107.116 197.706 106.733C198.312 106.35 199.026 106.159 199.848 106.159C200.511 106.159 201.102 106.282 201.621 106.528C202.14 106.771 202.558 107.112 202.876 107.551C203.198 107.991 203.39 108.504 203.45 109.091H201.797C201.706 108.682 201.498 108.33 201.172 108.034C200.85 107.739 200.418 107.591 199.876 107.591C199.403 107.591 198.988 107.716 198.632 107.966C198.28 108.212 198.005 108.564 197.808 109.023C197.611 109.477 197.513 110.015 197.513 110.636C197.513 111.273 197.609 111.822 197.803 112.284C197.996 112.746 198.268 113.104 198.621 113.358C198.977 113.612 199.395 113.739 199.876 113.739C200.198 113.739 200.49 113.68 200.751 113.562C201.017 113.441 201.238 113.269 201.416 113.045C201.598 112.822 201.725 112.553 201.797 112.239H203.45C203.39 112.803 203.206 113.307 202.899 113.75C202.592 114.193 202.181 114.542 201.666 114.795C201.155 115.049 200.554 115.176 199.865 115.176ZM207.807 115.193C207.254 115.193 206.754 115.091 206.307 114.886C205.86 114.678 205.506 114.377 205.244 113.983C204.987 113.589 204.858 113.106 204.858 112.534C204.858 112.042 204.953 111.636 205.142 111.318C205.331 111 205.587 110.748 205.909 110.562C206.231 110.377 206.591 110.237 206.989 110.142C207.386 110.047 207.792 109.975 208.205 109.926C208.727 109.866 209.152 109.816 209.477 109.778C209.803 109.737 210.04 109.67 210.188 109.58C210.335 109.489 210.409 109.341 210.409 109.136V109.097C210.409 108.6 210.269 108.216 209.989 107.943C209.712 107.67 209.299 107.534 208.75 107.534C208.178 107.534 207.727 107.661 207.398 107.915C207.072 108.165 206.847 108.443 206.722 108.75L205.125 108.386C205.314 107.856 205.591 107.428 205.955 107.102C206.322 106.773 206.744 106.534 207.222 106.386C207.699 106.235 208.201 106.159 208.727 106.159C209.076 106.159 209.445 106.201 209.835 106.284C210.229 106.364 210.597 106.511 210.938 106.727C211.282 106.943 211.564 107.252 211.784 107.653C212.004 108.051 212.114 108.568 212.114 109.205V115H210.455V113.807H210.386C210.277 114.027 210.112 114.242 209.892 114.455C209.672 114.667 209.39 114.843 209.045 114.983C208.701 115.123 208.288 115.193 207.807 115.193ZM208.176 113.83C208.646 113.83 209.047 113.737 209.381 113.551C209.718 113.366 209.973 113.123 210.148 112.824C210.326 112.521 210.415 112.197 210.415 111.852V110.727C210.354 110.788 210.237 110.845 210.062 110.898C209.892 110.947 209.697 110.991 209.477 111.028C209.258 111.062 209.044 111.095 208.835 111.125C208.627 111.152 208.453 111.174 208.312 111.193C207.983 111.235 207.682 111.305 207.409 111.403C207.14 111.502 206.924 111.644 206.761 111.83C206.602 112.011 206.523 112.254 206.523 112.557C206.523 112.977 206.678 113.295 206.989 113.511C207.299 113.723 207.695 113.83 208.176 113.83ZM214.376 115V106.273H216.018V107.659H216.109C216.268 107.189 216.549 106.82 216.95 106.551C217.356 106.278 217.814 106.142 218.325 106.142C218.431 106.142 218.556 106.146 218.7 106.153C218.848 106.161 218.964 106.17 219.047 106.182V107.807C218.979 107.788 218.857 107.767 218.683 107.744C218.509 107.718 218.335 107.705 218.161 107.705C217.759 107.705 217.401 107.79 217.087 107.96C216.776 108.127 216.53 108.36 216.348 108.659C216.166 108.955 216.075 109.292 216.075 109.67V115H214.376ZM228.905 106.273V107.636H223.973V106.273H228.905ZM225.325 115V105.261C225.325 104.716 225.445 104.263 225.683 103.903C225.922 103.54 226.238 103.269 226.632 103.091C227.026 102.909 227.454 102.818 227.916 102.818C228.257 102.818 228.549 102.847 228.791 102.903C229.034 102.956 229.214 103.006 229.331 103.051L228.933 104.426C228.854 104.403 228.751 104.377 228.626 104.347C228.501 104.312 228.35 104.295 228.172 104.295C227.759 104.295 227.464 104.398 227.286 104.602C227.111 104.807 227.024 105.102 227.024 105.489V115H225.325ZM230.658 115V106.273H232.357V115H230.658ZM231.516 104.926C231.22 104.926 230.966 104.828 230.754 104.631C230.546 104.43 230.442 104.191 230.442 103.915C230.442 103.634 230.546 103.396 230.754 103.199C230.966 102.998 231.22 102.898 231.516 102.898C231.811 102.898 232.063 102.998 232.271 103.199C232.483 103.396 232.589 103.634 232.589 103.915C232.589 104.191 232.483 104.43 232.271 104.631C232.063 104.828 231.811 104.926 231.516 104.926ZM236.341 103.364V115H234.642V103.364H236.341ZM242.7 106.273V107.636H237.933V106.273H242.7ZM239.212 104.182H240.911V112.438C240.911 112.767 240.96 113.015 241.058 113.182C241.157 113.345 241.284 113.456 241.439 113.517C241.598 113.574 241.77 113.602 241.956 113.602C242.092 113.602 242.212 113.593 242.314 113.574C242.416 113.555 242.496 113.54 242.553 113.528L242.859 114.932C242.761 114.97 242.621 115.008 242.439 115.045C242.257 115.087 242.03 115.11 241.757 115.114C241.31 115.121 240.893 115.042 240.507 114.875C240.121 114.708 239.808 114.451 239.57 114.102C239.331 113.754 239.212 113.316 239.212 112.79V104.182ZM244.58 115V106.273H246.222V107.659H246.312C246.472 107.189 246.752 106.82 247.153 106.551C247.559 106.278 248.017 106.142 248.528 106.142C248.634 106.142 248.759 106.146 248.903 106.153C249.051 106.161 249.167 106.17 249.25 106.182V107.807C249.182 107.788 249.061 107.767 248.886 107.744C248.712 107.718 248.538 107.705 248.364 107.705C247.962 107.705 247.604 107.79 247.29 107.96C246.979 108.127 246.733 108.36 246.551 108.659C246.369 108.955 246.278 109.292 246.278 109.67V115H244.58ZM254.084 115.176C253.266 115.176 252.552 114.989 251.942 114.614C251.332 114.239 250.858 113.714 250.521 113.04C250.184 112.366 250.016 111.578 250.016 110.676C250.016 109.771 250.184 108.979 250.521 108.301C250.858 107.623 251.332 107.097 251.942 106.722C252.552 106.347 253.266 106.159 254.084 106.159C254.902 106.159 255.616 106.347 256.226 106.722C256.836 107.097 257.309 107.623 257.646 108.301C257.983 108.979 258.152 109.771 258.152 110.676C258.152 111.578 257.983 112.366 257.646 113.04C257.309 113.714 256.836 114.239 256.226 114.614C255.616 114.989 254.902 115.176 254.084 115.176ZM254.089 113.75C254.62 113.75 255.059 113.61 255.408 113.33C255.756 113.049 256.014 112.676 256.18 112.21C256.351 111.744 256.436 111.231 256.436 110.67C256.436 110.114 256.351 109.602 256.18 109.136C256.014 108.667 255.756 108.29 255.408 108.006C255.059 107.722 254.62 107.58 254.089 107.58C253.555 107.58 253.112 107.722 252.76 108.006C252.411 108.29 252.152 108.667 251.982 109.136C251.815 109.602 251.732 110.114 251.732 110.67C251.732 111.231 251.815 111.744 251.982 112.21C252.152 112.676 252.411 113.049 252.76 113.33C253.112 113.61 253.555 113.75 254.089 113.75Z" fill="#1E75BA"/>
<rect x="388" y="313" width="168" height="40" rx="4" fill="#1E75BA"/>
<path d="M414.25 333.75H409.75V338.25H408.25V333.75H403.75V332.25H408.25V327.75H409.75V332.25H414.25V333.75Z" fill="white"/>
<path d="M432.943 331.148H431.17C431.102 330.769 430.975 330.436 430.79 330.148C430.604 329.86 430.377 329.616 430.108 329.415C429.839 329.214 429.538 329.062 429.205 328.96C428.875 328.858 428.525 328.807 428.153 328.807C427.483 328.807 426.883 328.975 426.352 329.312C425.826 329.65 425.409 330.144 425.102 330.795C424.799 331.447 424.648 332.242 424.648 333.182C424.648 334.129 424.799 334.928 425.102 335.58C425.409 336.231 425.828 336.723 426.358 337.057C426.888 337.39 427.485 337.557 428.148 337.557C428.515 337.557 428.864 337.508 429.193 337.409C429.527 337.307 429.828 337.157 430.097 336.96C430.366 336.763 430.593 336.523 430.778 336.239C430.968 335.951 431.098 335.621 431.17 335.25L432.943 335.256C432.848 335.828 432.665 336.354 432.392 336.835C432.123 337.312 431.777 337.725 431.352 338.074C430.932 338.419 430.451 338.686 429.909 338.875C429.367 339.064 428.777 339.159 428.136 339.159C427.129 339.159 426.231 338.92 425.443 338.443C424.655 337.962 424.034 337.275 423.58 336.381C423.129 335.487 422.903 334.42 422.903 333.182C422.903 331.939 423.131 330.873 423.585 329.983C424.04 329.089 424.661 328.403 425.449 327.926C426.237 327.445 427.133 327.205 428.136 327.205C428.754 327.205 429.33 327.294 429.864 327.472C430.402 327.646 430.884 327.903 431.312 328.244C431.741 328.581 432.095 328.994 432.375 329.483C432.655 329.968 432.845 330.523 432.943 331.148ZM434.908 339V330.273H436.55V331.659H436.641C436.8 331.189 437.08 330.82 437.482 330.551C437.887 330.278 438.345 330.142 438.857 330.142C438.963 330.142 439.088 330.146 439.232 330.153C439.379 330.161 439.495 330.17 439.578 330.182V331.807C439.51 331.788 439.389 331.767 439.214 331.744C439.04 331.718 438.866 331.705 438.692 331.705C438.29 331.705 437.932 331.79 437.618 331.96C437.307 332.127 437.061 332.36 436.879 332.659C436.697 332.955 436.607 333.292 436.607 333.67V339H434.908ZM441.048 339V330.273H442.747V339H441.048ZM441.906 328.926C441.611 328.926 441.357 328.828 441.145 328.631C440.937 328.43 440.832 328.191 440.832 327.915C440.832 327.634 440.937 327.396 441.145 327.199C441.357 326.998 441.611 326.898 441.906 326.898C442.202 326.898 442.454 326.998 442.662 327.199C442.874 327.396 442.98 327.634 442.98 327.915C442.98 328.191 442.874 328.43 442.662 328.631C442.454 328.828 442.202 328.926 441.906 328.926ZM447.572 339.193C447.019 339.193 446.519 339.091 446.072 338.886C445.625 338.678 445.271 338.377 445.01 337.983C444.752 337.589 444.624 337.106 444.624 336.534C444.624 336.042 444.718 335.636 444.908 335.318C445.097 335 445.353 334.748 445.675 334.562C445.997 334.377 446.357 334.237 446.754 334.142C447.152 334.047 447.557 333.975 447.97 333.926C448.493 333.866 448.917 333.816 449.243 333.778C449.569 333.737 449.805 333.67 449.953 333.58C450.101 333.489 450.175 333.341 450.175 333.136V333.097C450.175 332.6 450.035 332.216 449.754 331.943C449.478 331.67 449.065 331.534 448.516 331.534C447.944 331.534 447.493 331.661 447.163 331.915C446.838 332.165 446.612 332.443 446.487 332.75L444.891 332.386C445.08 331.856 445.357 331.428 445.72 331.102C446.088 330.773 446.51 330.534 446.987 330.386C447.464 330.235 447.966 330.159 448.493 330.159C448.841 330.159 449.211 330.201 449.601 330.284C449.995 330.364 450.362 330.511 450.703 330.727C451.048 330.943 451.33 331.252 451.55 331.653C451.769 332.051 451.879 332.568 451.879 333.205V339H450.22V337.807H450.152C450.042 338.027 449.877 338.242 449.658 338.455C449.438 338.667 449.156 338.843 448.811 338.983C448.466 339.123 448.054 339.193 447.572 339.193ZM447.942 337.83C448.411 337.83 448.813 337.737 449.146 337.551C449.483 337.366 449.739 337.123 449.913 336.824C450.091 336.521 450.18 336.197 450.18 335.852V334.727C450.12 334.788 450.002 334.845 449.828 334.898C449.658 334.947 449.463 334.991 449.243 335.028C449.023 335.062 448.809 335.095 448.601 335.125C448.393 335.152 448.218 335.174 448.078 335.193C447.749 335.235 447.447 335.305 447.175 335.403C446.906 335.502 446.69 335.644 446.527 335.83C446.368 336.011 446.288 336.254 446.288 336.557C446.288 336.977 446.444 337.295 446.754 337.511C447.065 337.723 447.461 337.83 447.942 337.83ZM454.142 339V330.273H455.784V331.659H455.875C456.034 331.189 456.314 330.82 456.716 330.551C457.121 330.278 457.58 330.142 458.091 330.142C458.197 330.142 458.322 330.146 458.466 330.153C458.614 330.161 458.729 330.17 458.812 330.182V331.807C458.744 331.788 458.623 331.767 458.449 331.744C458.275 331.718 458.1 331.705 457.926 331.705C457.525 331.705 457.167 331.79 456.852 331.96C456.542 332.127 456.295 332.36 456.114 332.659C455.932 332.955 455.841 333.292 455.841 333.67V339H454.142ZM471.057 332.403L469.517 332.676C469.453 332.479 469.35 332.292 469.21 332.114C469.074 331.936 468.888 331.79 468.653 331.676C468.419 331.562 468.125 331.506 467.773 331.506C467.292 331.506 466.89 331.614 466.568 331.83C466.246 332.042 466.085 332.316 466.085 332.653C466.085 332.945 466.193 333.18 466.409 333.358C466.625 333.536 466.973 333.682 467.455 333.795L468.841 334.114C469.644 334.299 470.242 334.585 470.636 334.972C471.03 335.358 471.227 335.86 471.227 336.477C471.227 337 471.076 337.466 470.773 337.875C470.473 338.28 470.055 338.598 469.517 338.83C468.983 339.061 468.364 339.176 467.659 339.176C466.682 339.176 465.884 338.968 465.267 338.551C464.65 338.131 464.271 337.534 464.131 336.761L465.773 336.511C465.875 336.939 466.085 337.263 466.403 337.483C466.722 337.699 467.136 337.807 467.648 337.807C468.205 337.807 468.65 337.691 468.983 337.46C469.316 337.225 469.483 336.939 469.483 336.602C469.483 336.33 469.381 336.1 469.176 335.915C468.975 335.729 468.667 335.589 468.25 335.494L466.773 335.17C465.958 334.985 465.356 334.689 464.966 334.284C464.58 333.879 464.386 333.366 464.386 332.744C464.386 332.229 464.53 331.778 464.818 331.392C465.106 331.006 465.504 330.705 466.011 330.489C466.519 330.269 467.1 330.159 467.756 330.159C468.699 330.159 469.441 330.364 469.983 330.773C470.525 331.178 470.883 331.722 471.057 332.403ZM476.857 339.176C475.997 339.176 475.256 338.992 474.635 338.625C474.018 338.254 473.54 337.733 473.203 337.062C472.87 336.388 472.703 335.598 472.703 334.693C472.703 333.799 472.87 333.011 473.203 332.33C473.54 331.648 474.01 331.116 474.612 330.733C475.218 330.35 475.927 330.159 476.737 330.159C477.23 330.159 477.707 330.241 478.169 330.403C478.631 330.566 479.046 330.822 479.413 331.17C479.781 331.519 480.071 331.972 480.283 332.528C480.495 333.081 480.601 333.754 480.601 334.545V335.148H473.663V333.875H478.936C478.936 333.428 478.845 333.032 478.663 332.688C478.482 332.339 478.226 332.064 477.896 331.864C477.571 331.663 477.188 331.562 476.749 331.562C476.271 331.562 475.855 331.68 475.499 331.915C475.146 332.146 474.874 332.449 474.68 332.824C474.491 333.195 474.396 333.598 474.396 334.034V335.028C474.396 335.612 474.499 336.108 474.703 336.517C474.911 336.926 475.201 337.239 475.572 337.455C475.944 337.667 476.377 337.773 476.874 337.773C477.196 337.773 477.489 337.727 477.754 337.636C478.019 337.542 478.249 337.402 478.442 337.216C478.635 337.03 478.783 336.801 478.885 336.528L480.493 336.818C480.364 337.292 480.133 337.706 479.8 338.062C479.47 338.415 479.055 338.689 478.555 338.886C478.059 339.08 477.493 339.176 476.857 339.176ZM486.145 342.455C485.452 342.455 484.855 342.364 484.355 342.182C483.859 342 483.454 341.759 483.139 341.46C482.825 341.161 482.59 340.833 482.435 340.477L483.895 339.875C483.997 340.042 484.134 340.218 484.304 340.403C484.478 340.593 484.713 340.754 485.009 340.886C485.308 341.019 485.692 341.085 486.162 341.085C486.806 341.085 487.338 340.928 487.759 340.614C488.179 340.303 488.389 339.807 488.389 339.125V337.409H488.281C488.179 337.595 488.031 337.801 487.838 338.028C487.649 338.256 487.387 338.453 487.054 338.619C486.721 338.786 486.287 338.869 485.753 338.869C485.063 338.869 484.442 338.708 483.889 338.386C483.34 338.061 482.904 337.581 482.582 336.949C482.264 336.312 482.105 335.53 482.105 334.602C482.105 333.674 482.262 332.879 482.577 332.216C482.895 331.553 483.33 331.045 483.884 330.693C484.437 330.337 485.063 330.159 485.764 330.159C486.306 330.159 486.743 330.25 487.077 330.432C487.41 330.61 487.67 330.818 487.855 331.057C488.045 331.295 488.19 331.506 488.293 331.688H488.418V330.273H490.082V339.193C490.082 339.943 489.908 340.559 489.56 341.04C489.211 341.521 488.74 341.877 488.145 342.108C487.554 342.339 486.887 342.455 486.145 342.455ZM486.128 337.46C486.616 337.46 487.029 337.347 487.366 337.119C487.707 336.888 487.965 336.559 488.139 336.131C488.317 335.699 488.406 335.182 488.406 334.58C488.406 333.992 488.319 333.475 488.145 333.028C487.971 332.581 487.715 332.233 487.378 331.983C487.041 331.729 486.624 331.602 486.128 331.602C485.616 331.602 485.19 331.735 484.849 332C484.509 332.261 484.251 332.617 484.077 333.068C483.906 333.519 483.821 334.023 483.821 334.58C483.821 335.152 483.908 335.653 484.082 336.085C484.257 336.517 484.514 336.854 484.855 337.097C485.2 337.339 485.624 337.46 486.128 337.46ZM492.361 339V330.273H493.991V331.693H494.099C494.281 331.212 494.579 330.837 494.991 330.568C495.404 330.295 495.899 330.159 496.474 330.159C497.058 330.159 497.546 330.295 497.94 330.568C498.338 330.841 498.632 331.216 498.821 331.693H498.912C499.12 331.227 499.452 330.856 499.906 330.58C500.361 330.299 500.902 330.159 501.531 330.159C502.323 330.159 502.969 330.407 503.469 330.903C503.973 331.4 504.224 332.148 504.224 333.148V339H502.526V333.307C502.526 332.716 502.365 332.288 502.043 332.023C501.721 331.758 501.336 331.625 500.889 331.625C500.336 331.625 499.906 331.795 499.599 332.136C499.293 332.473 499.139 332.907 499.139 333.438V339H497.446V333.199C497.446 332.725 497.298 332.345 497.003 332.057C496.707 331.769 496.323 331.625 495.849 331.625C495.527 331.625 495.23 331.71 494.957 331.881C494.688 332.047 494.471 332.28 494.304 332.58C494.141 332.879 494.06 333.225 494.06 333.619V339H492.361ZM510.263 339.176C509.403 339.176 508.662 338.992 508.041 338.625C507.424 338.254 506.946 337.733 506.609 337.062C506.276 336.388 506.109 335.598 506.109 334.693C506.109 333.799 506.276 333.011 506.609 332.33C506.946 331.648 507.416 331.116 508.018 330.733C508.625 330.35 509.333 330.159 510.143 330.159C510.636 330.159 511.113 330.241 511.575 330.403C512.037 330.566 512.452 330.822 512.82 331.17C513.187 331.519 513.477 331.972 513.689 332.528C513.901 333.081 514.007 333.754 514.007 334.545V335.148H507.07V333.875H512.342C512.342 333.428 512.251 333.032 512.07 332.688C511.888 332.339 511.632 332.064 511.303 331.864C510.977 331.663 510.594 331.562 510.155 331.562C509.678 331.562 509.261 331.68 508.905 331.915C508.553 332.146 508.28 332.449 508.087 332.824C507.897 333.195 507.803 333.598 507.803 334.034V335.028C507.803 335.612 507.905 336.108 508.109 336.517C508.318 336.926 508.607 337.239 508.979 337.455C509.35 337.667 509.784 337.773 510.28 337.773C510.602 337.773 510.895 337.727 511.161 337.636C511.426 337.542 511.655 337.402 511.848 337.216C512.041 337.03 512.189 336.801 512.291 336.528L513.899 336.818C513.77 337.292 513.539 337.706 513.206 338.062C512.876 338.415 512.462 338.689 511.962 338.886C511.465 339.08 510.899 339.176 510.263 339.176ZM517.591 333.818V339H515.892V330.273H517.523V331.693H517.631C517.831 331.231 518.146 330.86 518.574 330.58C519.006 330.299 519.549 330.159 520.205 330.159C520.799 330.159 521.32 330.284 521.767 330.534C522.214 330.78 522.561 331.148 522.807 331.636C523.053 332.125 523.176 332.729 523.176 333.449V339H521.477V333.653C521.477 333.021 521.313 332.527 520.983 332.17C520.653 331.811 520.201 331.631 519.625 331.631C519.231 331.631 518.881 331.716 518.574 331.886C518.271 332.057 518.03 332.307 517.852 332.636C517.678 332.962 517.591 333.356 517.591 333.818ZM529.528 330.273V331.636H524.761V330.273H529.528ZM526.04 328.182H527.739V336.438C527.739 336.767 527.788 337.015 527.886 337.182C527.985 337.345 528.112 337.456 528.267 337.517C528.426 337.574 528.598 337.602 528.784 337.602C528.92 337.602 529.04 337.593 529.142 337.574C529.244 337.555 529.324 337.54 529.381 337.528L529.688 338.932C529.589 338.97 529.449 339.008 529.267 339.045C529.085 339.087 528.858 339.11 528.585 339.114C528.138 339.121 527.722 339.042 527.335 338.875C526.949 338.708 526.636 338.451 526.398 338.102C526.159 337.754 526.04 337.316 526.04 336.79V328.182ZM534.99 339.176C534.172 339.176 533.458 338.989 532.848 338.614C532.238 338.239 531.765 337.714 531.428 337.04C531.09 336.366 530.922 335.578 530.922 334.676C530.922 333.771 531.09 332.979 531.428 332.301C531.765 331.623 532.238 331.097 532.848 330.722C533.458 330.347 534.172 330.159 534.99 330.159C535.808 330.159 536.522 330.347 537.132 330.722C537.742 331.097 538.215 331.623 538.553 332.301C538.89 332.979 539.058 333.771 539.058 334.676C539.058 335.578 538.89 336.366 538.553 337.04C538.215 337.714 537.742 338.239 537.132 338.614C536.522 338.989 535.808 339.176 534.99 339.176ZM534.996 337.75C535.526 337.75 535.965 337.61 536.314 337.33C536.662 337.049 536.92 336.676 537.087 336.21C537.257 335.744 537.342 335.231 537.342 334.67C537.342 334.114 537.257 333.602 537.087 333.136C536.92 332.667 536.662 332.29 536.314 332.006C535.965 331.722 535.526 331.58 534.996 331.58C534.462 331.58 534.018 331.722 533.666 332.006C533.318 332.29 533.058 332.667 532.888 333.136C532.721 333.602 532.638 334.114 532.638 334.67C532.638 335.231 532.721 335.744 532.888 336.21C533.058 336.676 533.318 337.049 533.666 337.33C534.018 337.61 534.462 337.75 534.996 337.75Z" fill="white"/>
<defs>
<clipPath id="clip0_6449_49750">
<rect width="149" height="149" fill="white" transform="translate(447)"/>
</clipPath>
<clipPath id="clip1_6449_49750">
<rect x="132" y="141" width="422" height="30" rx="4" fill="white"/>
</clipPath>
<clipPath id="clip2_6449_49750">
<rect x="132" y="187" width="422" height="30" rx="4" fill="white"/>
</clipPath>
</defs>
</svg>
